<?xml version="1.0" encoding="utf-8"?>
<!-- Generator: Adobe Illustrator 16.0.0, SVG Export Plug-In . SVG Version: 6.00 Build 0)  -->
<!DOCTYPE svg PUBLIC "-//W3C//DTD SVG 1.1//EN" "http://www.w3.org/Graphics/SVG/1.1/DTD/svg11.dtd">
<svg version="1.1" id="Слой_1" xmlns="http://www.w3.org/2000/svg" xmlns:xlink="http://www.w3.org/1999/xlink" x="0px" y="0px"
	 width="356.352px" height="58.5px" viewBox="0 0 356.352 58.5" enable-background="new 0 0 356.352 58.5" xml:space="preserve">
<g>
	<defs>
		<rect id="SVGID_1_" y="0" width="356.352" height="58.499"/>
	</defs>
	<clipPath id="SVGID_2_">
		<use xlink:href="#SVGID_1_"  overflow="visible"/>
	</clipPath>
	<g clip-path="url(#SVGID_2_)">
		<path fill="#878787" d="M4,35.189c-1.667,0-3.222-1.05-3.787-2.715c-0.71-2.092,0.41-4.364,2.501-5.074l0.494-0.167
			c2.099-0.699,4.361,0.435,5.06,2.53c0.698,2.096-0.434,4.361-2.53,5.06l-0.452,0.153C4.86,35.121,4.426,35.189,4,35.189z"/>
	</g>
	<g clip-path="url(#SVGID_2_)">
		<path fill="#878787" d="M310.903,30.201c-0.308,0-0.62-0.036-0.933-0.11l-0.994-0.237c-2.149-0.512-3.477-2.669-2.965-4.818
			c0.513-2.148,2.669-3.475,4.818-2.964l1,0.238c2.148,0.514,3.475,2.672,2.961,4.82C314.352,28.966,312.712,30.201,310.903,30.201z
			 M22.015,29.33c-1.709,0-3.292-1.104-3.821-2.824c-0.65-2.111,0.534-4.35,2.646-5l0.983-0.302c2.11-0.647,4.349,0.539,4.998,2.65
			c0.648,2.112-0.539,4.349-2.651,4.998l-0.976,0.3C22.802,29.272,22.405,29.33,22.015,29.33z M291.942,25.797
			c-0.291,0-0.587-0.032-0.883-0.099l-0.997-0.224c-2.155-0.483-3.511-2.623-3.027-4.778c0.484-2.156,2.624-3.513,4.779-3.027
			l1.003,0.225c2.155,0.485,3.509,2.626,3.023,4.781C295.422,24.534,293.771,25.797,291.942,25.797z M40.711,23.908
			c-1.762,0-3.376-1.173-3.858-2.956c-0.578-2.132,0.683-4.329,2.815-4.906l0.987-0.267c2.133-0.577,4.329,0.681,4.908,2.812
			c0.579,2.132-0.68,4.33-2.812,4.909l-0.992,0.268C41.409,23.862,41.057,23.908,40.711,23.908z M272.914,21.683
			c-0.269,0-0.541-0.027-0.814-0.084l-1.001-0.207c-2.164-0.446-3.556-2.562-3.11-4.725c0.446-2.163,2.562-3.556,4.726-3.11
			l1.007,0.208c2.163,0.448,3.555,2.564,3.106,4.728C276.436,20.382,274.771,21.683,272.914,21.683z M59.592,19.17
			c-1.822,0-3.469-1.252-3.895-3.104c-0.496-2.153,0.848-4.3,3-4.795l1.004-0.23c2.16-0.49,4.299,0.855,4.792,3.007
			c0.493,2.154-0.854,4.299-3.007,4.792l-0.994,0.228C60.191,19.137,59.889,19.17,59.592,19.17z M253.812,17.938
			c-0.242,0-0.488-0.022-0.734-0.067l-1-0.184c-2.173-0.398-3.612-2.482-3.214-4.655c0.398-2.172,2.48-3.61,4.655-3.214l1.018,0.187
			c2.172,0.403,3.606,2.491,3.203,4.663C257.383,16.592,255.701,17.938,253.812,17.938z M78.646,15.192
			c-1.887,0-3.567-1.341-3.927-3.263c-0.407-2.171,1.023-4.262,3.194-4.669l1.024-0.19c2.18-0.396,4.258,1.042,4.655,3.214
			c0.398,2.173-1.041,4.257-3.214,4.655l-0.991,0.184C79.139,15.17,78.891,15.192,78.646,15.192z M234.624,14.651
			c-0.207,0-0.416-0.016-0.627-0.049l-1.009-0.158c-2.183-0.341-3.676-2.388-3.334-4.57s2.396-3.68,4.57-3.333l1.017,0.159
			c2.183,0.344,3.673,2.391,3.329,4.574C238.26,13.245,236.559,14.651,234.624,14.651z M97.863,12.044
			c-1.962,0-3.675-1.444-3.956-3.443c-0.308-2.188,1.216-4.21,3.403-4.519l1.031-0.144c2.186-0.309,4.207,1.228,4.509,3.416
			c0.302,2.188-1.228,4.207-3.416,4.509l-1.008,0.141C98.236,12.031,98.048,12.044,97.863,12.044z M215.35,11.919
			c-0.166,0-0.333-0.01-0.503-0.032l-1.011-0.125c-2.192-0.272-3.749-2.27-3.478-4.461s2.273-3.747,4.462-3.478l1.022,0.127
			c2.191,0.274,3.746,2.274,3.471,4.466C219.06,10.439,217.337,11.919,215.35,11.919z M195.995,9.841
			c-0.119,0-0.239-0.005-0.36-0.017l-1.006-0.088c-2.201-0.19-3.831-2.129-3.641-4.33c0.191-2.202,2.138-3.825,4.33-3.641
			l1.027,0.091c2.201,0.196,3.825,2.14,3.629,4.34C199.789,8.275,198.043,9.841,195.995,9.841z M117.206,9.779
			c-2.042,0-3.785-1.556-3.978-3.63c-0.205-2.199,1.413-4.148,3.613-4.353l0.942-0.087c2.21-0.199,4.19,1.415,4.392,3.614
			c0.202,2.2-1.375,4.143-3.575,4.345l-1.019,0.094C117.456,9.773,117.33,9.779,117.206,9.779z M176.58,8.508
			c-0.062,0-0.124-0.001-0.186-0.004l-1.022-0.047c-2.207-0.101-3.914-1.972-3.812-4.179c0.101-2.206,1.964-3.919,4.179-3.812
			l1.021,0.047c2.207,0.101,3.914,1.972,3.813,4.179C180.475,6.835,178.705,8.508,176.58,8.508z M136.632,8.43
			c-2.125,0-3.895-1.672-3.993-3.817c-0.101-2.207,1.606-4.078,3.813-4.178l1.037-0.046c2.197-0.099,4.073,1.618,4.168,3.825
			c0.094,2.207-1.618,4.073-3.825,4.167l-1.014,0.045C136.756,8.429,136.694,8.43,136.632,8.43z M157.122,8.003
			c-0.004,0-0.007,0-0.011,0l-1.019-0.002c-2.209-0.003-3.997-1.796-3.994-4.006c0.003-2.207,1.793-3.994,4-3.994
			c0.002,0,0.004,0,0.006,0l1.027,0.002c2.209,0.006,3.997,1.802,3.99,4.011C161.114,6.22,159.326,8.003,157.122,8.003z"/>
	</g>
	<g clip-path="url(#SVGID_2_)">
		<path fill="#878787" d="M329.336,34.708c-0.317,0-0.64-0.038-0.962-0.117l-0.485-0.121c-2.145-0.53-3.454-2.698-2.925-4.843
			s2.696-3.454,4.843-2.924l0.485,0.121c2.145,0.53,3.454,2.698,2.925,4.842C332.767,33.489,331.133,34.708,329.336,34.708z"/>
	</g>
	<g clip-path="url(#SVGID_2_)">
		<path fill="#878787" d="M353.354,41.176c-1.055,0-2.076-0.557-2.625-1.543L333.645,8.897c-0.805-1.448-0.283-3.274,1.164-4.08
			c1.449-0.807,3.275-0.284,4.08,1.165l17.085,30.735c0.805,1.448,0.283,3.275-1.164,4.08
			C354.348,41.054,353.848,41.176,353.354,41.176z"/>
	</g>
	<g clip-path="url(#SVGID_2_)">
		<path fill="#878787" d="M322.19,58.5c-1.055,0-2.076-0.557-2.625-1.543c-0.805-1.448-0.283-3.275,1.164-4.08l30.734-17.085
			c1.449-0.806,3.275-0.284,4.08,1.164s0.283,3.275-1.164,4.08l-30.734,17.085C323.184,58.378,322.684,58.5,322.19,58.5z"/>
	</g>
</g>
</svg>
