<?xml version="1.0" encoding="UTF-8" standalone="no"?>
<!-- Generator: Adobe Illustrator 16.0.0, SVG Export Plug-In . SVG Version: 6.00 Build 0)  -->
<!DOCTYPE svg  PUBLIC '-//W3C//DTD SVG 1.1//EN'  'http://www.w3.org/Graphics/SVG/1.1/DTD/svg11.dtd'>
<svg id="Слой_1" xmlns="http://www.w3.org/2000/svg" xml:space="preserve" height="2039.6px" viewBox="0 0 1022.76 2039.63" width="1022.8px" version="1.1" y="0px" x="0px" xmlns:xlink="http://www.w3.org/1999/xlink" enable-background="new 0 0 1022.76 2039.63">
	<defs>
		<rect id="SVGID_1_" width="1022.8" height="2039.6"/>
	</defs>
	<clipPath id="SVGID_2_">
		<use overflow="visible" xlink:href="#SVGID_1_"/>
	</clipPath>
	<g clip-path="url(#SVGID_2_)">
		<defs>
			<rect id="SVGID_3_" y=".003" width="1022.8" height="2039.6"/>
		</defs>
		<clipPath id="SVGID_4_">
			<use overflow="visible" xlink:href="#SVGID_3_"/>
		</clipPath>
		<path fill="#212121" d="m413.43 863.91s0.873 1.391 2.352 3.845c0.756 1.217 1.63 2.725 2.62 4.471 1 1.74 2.133 3.707 3.283 5.893 1.185 2.17 2.382 4.572 3.677 7.112 0.655 1.267 1.253 2.605 1.894 3.962 0.64 1.357 1.291 2.749 1.901 4.191 0.606 1.442 1.248 2.901 1.85 4.401 0.595 1.505 1.16 3.041 1.745 4.59s1.085 3.143 1.617 4.737c0.546 1.59 1.022 3.21 1.488 4.836 0.991 3.24 1.951 6.505 2.974 9.737 0.876 3.248 1.771 6.481 2.037 9.665 0.14 1.59 0.284 3.159 0.238 4.698-0.034 1.538-0.131 3.044-0.257 4.507-0.218 2.928-0.802 5.672-1.336 8.191-0.555 2.517-1.343 4.792-2.052 6.795-0.691 2.004-1.54 3.716-2.248 5.119-0.718 1.401-1.346 2.487-1.829 3.222-0.46 0.736-0.746 1.122-0.746 1.122-0.35 0.474-1.018 0.574-1.492 0.224-0.121-0.089-0.217-0.199-0.288-0.321l-0.015-0.027s-0.243-0.422-0.622-1.202c-0.402-0.781-0.911-1.918-1.479-3.346-0.576-1.428-1.159-3.147-1.824-5.092-0.662-1.944-1.255-4.12-1.858-6.46-0.34-1.17-0.591-2.383-0.895-3.634-0.258-1.245-0.525-2.532-0.799-3.855-0.267-1.317-0.508-2.665-0.689-4.046-0.188-1.38-0.387-2.779-0.487-4.215-0.093-1.435-0.102-2.905-0.147-4.389-0.017-1.488 0.038-3.008 0.073-4.545-0.018-3.058 0.005-6.204-0.374-9.297-0.277-3.111-0.794-6.194-1.206-9.265-0.247-1.533-0.492-3.054-0.735-4.556-0.246-1.506-0.543-2.988-0.805-4.455-0.495-2.944-1.143-5.766-1.677-8.476-0.595-2.695-1.134-5.262-1.724-7.614-0.277-1.183-0.541-2.317-0.793-3.396-0.263-1.077-0.513-2.099-0.747-3.059-0.473-1.93-0.886-3.613-1.226-4.998-0.693-2.78-1.062-4.381-1.062-4.381-0.113-0.491 0.194-0.981 0.685-1.094 0.42-0.08 0.81 0.09 1.01 0.41" clip-path="url(#SVGID_4_)"/>
		<path fill="#212121" d="m428.74 956.6s0.274 0.246 0.787 0.708c0.492 0.475 1.25 1.148 2.144 2.051 0.446 0.451 0.94 0.951 1.477 1.496 0.492 0.603 0.998 1.28 1.558 2.006 0.561 0.725 1.127 1.526 1.747 2.372 0.601 0.852 1.067 1.8 1.648 2.774 0.273 0.495 0.553 1 0.838 1.514 0.283 0.519 0.581 1.044 0.805 1.606 0.489 1.112 0.954 2.282 1.455 3.486 0.123 0.302 0.247 0.607 0.372 0.913 0.095 0.312 0.191 0.626 0.288 0.941 0.193 0.634 0.388 1.276 0.586 1.925 0.417 1.299 0.772 2.645 1.038 4.008 0.636 2.743 1.052 5.565 1.39 8.439 0.307 2.841 0.508 5.745 0.661 8.574 0.115 2.864 0.234 5.645 0.285 8.406 0.059 1.365 0.091 2.723 0.1 4.066 0.018 1.343 0.115 2.643 0.124 3.944 0.026 2.603 0.212 5.075 0.267 7.463 0.001 1.2 0.158 2.334 0.202 3.46 0.056 1.127 0.111 2.215 0.163 3.26 0.163 2.084 0.339 4.006 0.433 5.739 0.024 0.435 0.047 0.854 0.069 1.261 0.042 0.402 0.083 0.789 0.122 1.161 0.069 0.752 0.132 1.443 0.189 2.067 0.112 1.254 0.141 2.268 0.188 2.951 0.024 0.694 0.038 1.064 0.038 1.064s-0.214-0.299-0.582-0.877c-0.356-0.581-0.92-1.424-1.561-2.534-0.332-0.552-0.677-1.171-1.06-1.847-0.188-0.342-0.383-0.694-0.586-1.062-0.176-0.377-0.358-0.767-0.546-1.17-0.735-1.62-1.563-3.467-2.368-5.521-0.694-2.076-1.49-4.344-2.138-6.78-0.58-2.442-1.261-5.041-1.654-7.74-0.476-2.706-0.828-5.491-1.083-8.325-0.28-2.81-0.42-5.694-0.587-8.492-0.111-2.787-0.223-5.574-0.332-8.318-0.094-1.338-0.151-2.671-0.198-3.992-0.056-1.319-0.216-2.575-0.275-3.848-0.05-0.629-0.064-1.268-0.141-1.877-0.086-0.607-0.152-1.213-0.216-1.815-0.154-1.193-0.207-2.406-0.436-3.522-0.186-1.133-0.388-2.237-0.545-3.325-0.14-1.095-0.479-2.083-0.673-3.091-0.228-0.991-0.408-1.984-0.654-2.874-0.257-0.882-0.523-1.72-0.743-2.536-0.222-0.814-0.448-1.578-0.632-2.31-0.262-0.718-0.504-1.378-0.722-1.973-0.434-1.193-0.719-2.166-0.938-2.814-0.23-0.96-0.33-1.31-0.33-1.31" clip-path="url(#SVGID_4_)"/>
		<path fill="#212121" d="m783.45 879.96s0.786 1.357 2.161 3.732c0.338 0.597 0.727 1.246 1.123 1.976 0.38 0.747 0.79 1.554 1.229 2.417 0.441 0.868 0.91 1.793 1.404 2.768 0.468 0.983 0.937 2.024 1.42 3.118 1.012 2.172 1.939 4.593 2.951 7.166 0.528 1.28 0.93 2.637 1.408 4.011 0.471 1.376 0.941 2.789 1.341 4.246 0.398 1.457 0.854 2.937 1.221 4.451 0.35 1.521 0.704 3.06 1.062 4.611 0.62 3.114 1.198 6.306 1.622 9.498 0.492 3.195 0.984 6.39 1.469 9.535 0.208 1.57 0.432 3.132 0.589 4.678 0.157 1.547 0.19 3.058 0.203 4.554 0.009 2.996-0.359 5.845-0.813 8.548-0.47 2.696-1.063 5.216-1.715 7.54-1.316 4.629-2.896 8.433-4.233 11.068-0.677 1.319-1.245 2.351-1.679 3.051-0.42 0.701-0.681 1.072-0.681 1.072-0.297 0.422-0.881 0.523-1.303 0.226-0.126-0.088-0.228-0.209-0.294-0.337 0 0-0.21-0.403-0.532-1.154-0.336-0.751-0.763-1.848-1.259-3.239-0.957-2.782-2.069-6.722-2.849-11.387-0.228-1.165-0.376-2.372-0.567-3.622-0.14-1.244-0.282-2.53-0.431-3.852-0.276-2.628-0.379-5.398-0.313-8.221 0.111-2.839 0.46-5.739 0.865-8.707 0.209-1.485 0.346-2.968 0.496-4.47 0.183-1.505 0.234-3.004 0.271-4.502 0.117-3.009 0.03-5.991 0.016-8.952-0.055-1.475-0.109-2.939-0.164-4.385-0.048-1.451-0.189-2.871-0.275-4.283-0.065-1.416-0.208-2.797-0.359-4.151-0.161-1.352-0.245-2.696-0.442-3.982-0.359-2.582-0.679-5.049-1.136-7.296-0.203-1.134-0.396-2.221-0.582-3.254-0.218-1.024-0.425-1.994-0.619-2.907-0.38-1.828-0.737-3.444-1.082-4.778-0.641-2.668-1.008-4.192-1.008-4.192-0.104-0.434 0.163-0.871 0.597-0.975 0.33-0.11 0.69 0.06 0.86 0.36" clip-path="url(#SVGID_4_)"/>
		<path fill="#212121" d="m789.74 969.6s0.229 0.378 0.657 1.086c0.206 0.357 0.46 0.797 0.759 1.314 0.267 0.543 0.559 1.18 0.879 1.91 0.359 0.731 0.595 1.549 0.919 2.45 0.348 0.9 0.564 1.896 0.849 2.968 0.313 1.072 0.444 2.225 0.685 3.451 0.196 1.225 0.31 2.519 0.44 3.876 0.171 2.704 0.212 5.657-0.015 8.737-0.226 3.08-0.613 6.316-1.247 9.591-0.598 3.29-1.395 6.635-2.351 9.974-0.916 3.357-2.058 6.677-3.211 9.984-1.217 3.284-2.475 6.538-3.834 9.684-0.665 1.577-1.348 3.132-2.054 4.649-0.7 1.521-1.379 3.028-2.104 4.481-2.821 5.852-5.69 11.173-8.261 15.68-2.569 4.507-4.846 8.203-6.48 10.786-0.816 1.292-1.495 2.294-1.942 2.985-0.467 0.685-0.716 1.049-0.716 1.049s0.063-0.438 0.18-1.256c0.143-0.811 0.301-2.021 0.612-3.521 0.579-3.018 1.572-7.277 3.003-12.288 1.425-5.012 3.289-10.764 5.412-16.832 0.535-1.512 1.081-3.05 1.632-4.605 0.547-1.556 1.107-3.123 1.696-4.693 1.14-3.14 2.297-6.329 3.454-9.518 1.164-3.171 2.29-6.35 3.365-9.47 0.529-1.561 1.054-3.11 1.57-4.641 0.485-1.534 0.964-3.049 1.436-4.539 0.929-2.985 1.733-5.877 2.427-8.638 0.169-0.692 0.336-1.373 0.501-2.045 0.145-0.674 0.286-1.338 0.427-1.991 0.323-1.308 0.486-2.575 0.736-3.801 0.394-2.444 0.685-4.715 0.81-6.743 0.152-2.028 0.152-3.834 0.116-5.306-0.036-0.732-0.063-1.401-0.074-1.995-0.064-0.594-0.118-1.099-0.162-1.509-0.11-0.93-0.15-1.37-0.15-1.37" clip-path="url(#SVGID_4_)"/>
		<path fill="#212121" d="m643.05 865.41s0.623 1.575 1.713 4.331c0.273 0.689 0.574 1.452 0.902 2.283 0.321 0.831 0.595 1.775 0.928 2.764 0.326 0.997 0.672 2.059 1.037 3.177 0.183 0.562 0.37 1.139 0.563 1.729 0.18 0.59 0.329 1.197 0.5 1.816 0.335 1.241 0.683 2.534 1.043 3.873 0.18 0.671 0.361 1.354 0.547 2.047 0.16 0.697 0.323 1.404 0.487 2.122 0.673 2.871 1.329 5.918 1.881 9.084 0.279 1.583 0.612 3.194 0.862 4.828 0.266 1.634 0.479 3.294 0.716 4.967 0.25 1.675 0.424 3.362 0.618 5.058 0.186 1.696 0.404 3.403 0.562 5.107 0.298 3.407 0.767 6.822 1.133 10.18 0.409 3.365 0.677 6.669 0.677 9.869-0.029 3.189-0.277 6.275-0.703 9.172-0.176 1.451-0.436 2.859-0.646 4.222-0.268 1.356-0.494 2.665-0.786 3.92-1.09 5.022-2.395 9.15-3.468 12.056-0.537 1.447-0.981 2.59-1.328 3.373-0.336 0.782-0.547 1.202-0.547 1.202l-0.006 0.013c-0.193 0.383-0.659 0.538-1.042 0.346-0.16-0.081-0.28-0.209-0.353-0.359 0 0-0.201-0.421-0.519-1.216-0.326-0.794-0.754-1.965-1.244-3.462-0.938-2.982-1.988-7.262-2.729-12.328-0.381-2.538-0.699-5.272-0.921-8.149-0.246-2.883-0.383-5.896-0.293-9.014 0.06-3.109 0.436-6.323 0.772-9.583 0.388-3.267 0.658-6.58 0.808-9.901 0.08-1.66 0.1-3.313 0.152-4.966 0.043-1.652 0.104-3.302 0.091-4.93-0.006-3.261 0.081-6.485 0.006-9.592-0.031-1.555-0.002-3.096-0.082-4.588-0.06-1.498-0.119-2.964-0.175-4.391-0.025-0.716-0.049-1.422-0.073-2.118-0.049-0.692-0.097-1.373-0.145-2.043-0.098-1.344-0.191-2.642-0.281-3.889-0.077-1.256-0.189-2.44-0.317-3.563-0.119-1.13-0.232-2.202-0.339-3.209-0.181-2.018-0.465-3.802-0.68-5.269-0.429-2.933-0.673-4.609-0.673-4.609-0.058-0.385 0.209-0.743 0.594-0.8 0.35-0.05 0.66 0.14 0.77 0.44" clip-path="url(#SVGID_4_)"/>
		<path fill="#212121" d="m649.71 964.59s0.031 1.087-0.042 2.952c-0.079 1.863-0.278 4.498-0.684 7.612-0.177 1.552-0.54 3.243-0.892 5.019-0.373 1.776-0.792 3.648-1.279 5.57-0.263 0.96-0.593 1.92-0.909 2.897-0.315 0.977-0.643 1.966-0.999 2.952-0.376 0.982-0.635 2.005-1.132 2.97-0.453 0.976-0.907 1.957-1.361 2.938-0.477 0.969-0.954 1.939-1.428 2.905-0.54 0.937-1.14 1.838-1.705 2.744-1.128 1.817-2.286 3.572-3.611 5.092-1.291 1.542-2.503 3.083-3.801 4.359-1.292 1.287-2.54 2.475-3.71 3.548-1.163 1.085-2.3 1.984-3.314 2.785-1.017 0.795-1.921 1.472-2.682 2.013-1.525 1.08-2.451 1.644-2.451 1.644s0.411-1.011 1.228-2.686c0.407-0.837 0.926-1.834 1.538-2.958 0.62-1.109 1.32-2.36 2.085-3.724 0.76-1.352 1.604-2.79 2.522-4.282 0.475-0.741 0.908-1.515 1.343-2.311 0.433-0.799 0.916-1.58 1.385-2.39 0.443-0.822 1.018-1.588 1.427-2.448 0.425-0.853 0.87-1.704 1.337-2.549 0.462-0.849 0.914-1.709 1.404-2.554 0.41-0.891 0.824-1.786 1.237-2.68 0.865-1.771 1.774-3.511 2.519-5.351 0.773-1.814 1.603-3.573 2.415-5.286 0.729-1.755 1.487-3.438 2.231-5.033 0.735-1.604 1.525-3.069 2.182-4.504 1.356-2.829 2.625-5.145 3.573-6.749 0.95-1.52 1.57-2.41 1.57-2.41" clip-path="url(#SVGID_4_)"/>
	</g>
	<g clip-path="url(#SVGID_2_)">
		<defs>
			<path id="SVGID_5_" d="m662.71 372.25c-306 6-539 101-576 244l-85 7 92 61c28.001 101 258.07 219 577 219 185.17 0 404-57.999 335-362-52.136-138.7-202.97-169.02-336.38-169.02-2.2 0-4.41 0.01-6.61 0.02"/>
		</defs>
		<clipPath id="SVGID_6_">
			<use overflow="visible" xlink:href="#SVGID_5_"/>
		</clipPath>
			<linearGradient id="SVGID_7_" y2="2039.7" gradientUnits="userSpaceOnUse" gradientTransform="matrix(0 531.02 531.02 0 -1.0826e6 372.13)" y1="2039.7">
			<stop stop-color="#353535" offset="0"/>
			<stop stop-color="#2E2E2E" offset=".453"/>
			<stop stop-color="#272627" offset="1"/>
		</linearGradient>
		<rect clip-path="url(#SVGID_6_)" height="531.02" width="1073" y="372.23" x="1.711" fill="url(#SVGID_7_)"/>
	</g>
	<g clip-path="url(#SVGID_2_)">
		<defs>
			<rect id="SVGID_8_" y=".003" width="1022.8" height="2039.6"/>
		</defs>
		<clipPath id="SVGID_9_">
			<use overflow="visible" xlink:href="#SVGID_8_"/>
		</clipPath>
		<g opacity=".2" clip-path="url(#SVGID_9_)">
				<defs>
					<rect id="SVGID_10_" y="622.92" x=".044" height="280.49" width="1003.7"/>
				</defs>
				<clipPath id="SVGID_11_">
					<use overflow="visible" xlink:href="#SVGID_10_"/>
				</clipPath>
				<path fill="#000100" d="m0.044 622.92l112.67 18.667c4 82 197 196.67 325 211.67 176 31 410 41 566-116-30 96-125 170-364 166-273-1-520-119-546-219l-92-61" clip-path="url(#SVGID_11_)"/>
		</g>
	</g>
	<g clip-path="url(#SVGID_2_)">
		<defs>
			<path id="SVGID_12_" d="m184.71 491.25c-12.501 150-0.501 235.5 9 298 26.499 18.5 58.5 33 121 57.5-30-137.5-34.5-277-13.5-413-62.5 23.5-91.5 40.5-116.5 57.5"/>
		</defs>
		<clipPath id="SVGID_13_">
			<use overflow="visible" xlink:href="#SVGID_12_"/>
		</clipPath>
			<linearGradient id="SVGID_14_" y2="2039.6" gradientUnits="userSpaceOnUse" gradientTransform="matrix(0 -413 -413 0 8.4261e5 846.63)" y1="2039.6">
			<stop stop-color="#E5B132" offset="0"/>
			<stop stop-color="#F1D936" offset="1"/>
		</linearGradient>
		<rect clip-path="url(#SVGID_13_)" height="413" width="142.5" y="433.75" x="172.21" fill="url(#SVGID_14_)"/>
	</g>
	<g clip-path="url(#SVGID_2_)">
		<defs>
			<rect id="SVGID_15_" y=".003" width="1022.8" height="2039.6"/>
		</defs>
		<clipPath id="SVGID_16_">
			<use overflow="visible" xlink:href="#SVGID_15_"/>
		</clipPath>
			<linearGradient id="SVGID_17_" y2="2039.6" gradientUnits="userSpaceOnUse" gradientTransform="matrix(1.8613e-8 -414.58 -414.58 -1.8613e-8 8.4583e5 847.63)" y1="2039.6">
			<stop stop-color="#E5B132" offset="0"/>
			<stop stop-color="#F1D936" offset="1"/>
		</linearGradient>
		<path fill="url(#SVGID_17_)" d="m314.71 846.75c-62.5-24.5-94.5-39-121-57.5-6.583-43.309-14.366-97.662-14.366-176.87 0-35.097 1.528-75.074 5.366-121.13 25-17 54-34 116.5-57.5-8.647 56-12.971 112.59-12.971 169.4 0 81.15 8.82 162.72 26.47 243.6-17.647-80.882-26.471-162.46-26.471-243.6 0-56.803 4.324-113.4 12.971-169.4-62.5 23.5-91.5 40.5-116.5 57.5-3.838 46.059-5.366 86.035-5.366 121.13 0 79.206 7.783 133.56 14.366 176.87 26.5 18.5 58.5 33 121 57.5z" clip-path="url(#SVGID_16_)"/>
	</g>
	<g clip-path="url(#SVGID_2_)">
		<defs>
			<path id="SVGID_18_" d="m418.71 398.25c-44.667 236.67-10.666 379.33 18 480.67 26 6.667 54.667 11.334 121.33 19.334-69.999-207.33-64-339.33-20-518.67-64 5.34-83.33 12.01-119.33 18.67"/>
		</defs>
		<clipPath id="SVGID_19_">
			<use overflow="visible" xlink:href="#SVGID_18_"/>
		</clipPath>
			<linearGradient id="SVGID_20_" y2="2039.7" gradientUnits="userSpaceOnUse" x2=".9995" gradientTransform="matrix(0 -518.67 -518.67 0 1.0584e6 898.13)" y1="2039.7" x1="-.00048828">
			<stop stop-color="#E5B132" offset="0"/>
			<stop stop-color="#ECCA34" offset=".5668"/>
			<stop stop-color="#F1D936" offset="1"/>
		</linearGradient>
		<rect clip-path="url(#SVGID_19_)" height="518.67" width="184" y="379.59" x="374.04" fill="url(#SVGID_20_)"/>
	</g>
	<g clip-path="url(#SVGID_2_)">
		<defs>
			<path id="SVGID_21_" d="m695.21 902.25c73-2.999 101.5-9 132.5-17-35.5-56.5-127.5-253.5-29-502-66.5-9.5-97-9.5-131-10.499-75 246.5-20 429 27.5 529.5"/>
		</defs>
		<clipPath id="SVGID_22_">
			<use overflow="visible" xlink:href="#SVGID_21_"/>
		</clipPath>
			<linearGradient id="SVGID_23_" y2="2039.7" gradientUnits="userSpaceOnUse" gradientTransform="matrix(0 -529.5 -529.5 0 1.0807e6 902.13)" y1="2039.7">
			<stop stop-color="#E5B132" offset="0"/>
			<stop stop-color="#ECCA34" offset=".5668"/>
			<stop stop-color="#F1D936" offset="1"/>
		</linearGradient>
		<rect clip-path="url(#SVGID_22_)" height="529.5" width="235" y="372.75" x="592.71" fill="url(#SVGID_23_)"/>
	</g>
	<g clip-path="url(#SVGID_2_)">
		<defs>
			<rect id="SVGID_24_" y=".003" width="1022.8" height="2039.6"/>
		</defs>
		<clipPath id="SVGID_25_">
			<use overflow="visible" xlink:href="#SVGID_24_"/>
		</clipPath>
		<path fill="#000100" d="m1008.8 594.95c0 47.632-38.614 86.246-86.246 86.246-47.633 0-86.245-38.614-86.245-86.246s38.612-86.246 86.245-86.246c47.6 0 86.26 38.62 86.26 86.25" clip-path="url(#SVGID_25_)"/>
		<g opacity=".05" clip-path="url(#SVGID_25_)">
				<defs>
					<rect id="SVGID_26_" y="373.39" width="985.12" height="268.75"/>
				</defs>
				<clipPath id="SVGID_27_">
					<use overflow="visible" xlink:href="#SVGID_26_"/>
				</clipPath>
				<path fill="#fff" d="m0.044 622.92c37.333-3.333 52-4 86.667-6.667 22.666-106 188-210.67 461.63-237.05 125.04-4.949 329.87-33.449 436.37 118.55-66-72.166-268.67-89.5-409.37-70.553-155.96 22.387-334.63 39.053-462.63 214.39-26-5.334-50-9.334-111-18.334" clip-path="url(#SVGID_27_)"/>
				<path stroke="#fff" fill="none" stroke-miterlimit="10" d="m0.044 622.92c37.333-3.333 52-4 86.667-6.667 22.666-106 188-210.67 461.63-237.05 125.04-4.949 329.87-33.449 436.37 118.55-66-72.166-268.67-89.5-409.37-70.553-155.96 22.387-334.63 39.053-462.63 214.39-26-5.334-50-9.334-111-18.334" clip-path="url(#SVGID_27_)"/>
		</g>
		<path fill="#E2A331" d="m314.71 846.75c-58-20.5-100-43-121-55.5-3.5-18.5-5-29-7-48 34.5 30.5 56.5 42 121.5 70 2.5 17 4.5 22.5 6.5 33.5" clip-path="url(#SVGID_25_)"/>
		<path fill="#E2A331" d="m558.04 898.42c-62-6.167-84.667-8.833-120-16.833-3.333-9.334-4.667-14-8-28.667 39.333 11.333 71.833 13.333 118.67 14.667 2.67 14 5.33 21.33 9.33 30.83" clip-path="url(#SVGID_25_)"/>
		<path fill="#E2A331" d="m827.71 885.25c-59 13.667-96.333 17-132.5 17-3.333-9.333-9.833-17.333-13.167-32 51.334 0.667 82.667-8.667 127.33-19.333 2.67 14 14.34 24.83 18.34 34.33" clip-path="url(#SVGID_25_)"/>
	</g>
	<g clip-path="url(#SVGID_2_)">
		<defs>
			<path id="SVGID_28_" d="m850.26 580.44c0 47.633 38.614 86.246 86.246 86.246 47.633 0 86.246-38.613 86.246-86.246 0-47.631-38.613-86.245-86.246-86.245-47.67 0-86.29 38.61-86.29 86.24"/>
		</defs>
		<clipPath id="SVGID_29_">
			<use overflow="visible" xlink:href="#SVGID_28_"/>
		</clipPath>
			<radialGradient id="SVGID_30_" gradientUnits="userSpaceOnUse" cy="2039.6" cx="0" gradientTransform="matrix(86.246 0 0 -344.98 936.5 7.0422e5)" r="1">
			<stop stop-color="#fff" offset="0"/>
			<stop stop-color="#E3E3E4" offset=".5289"/>
			<stop stop-color="#D0D1D3" offset="1"/>
		</radialGradient>
		<rect clip-path="url(#SVGID_29_)" height="172.49" width="172.49" y="494.2" x="850.26" fill="url(#SVGID_30_)"/>
	</g>
	<g clip-path="url(#SVGID_2_)">
		<defs>
			<rect id="SVGID_31_" y=".003" width="1022.8" height="2039.6"/>
		</defs>
		<clipPath id="SVGID_32_">
			<use overflow="visible" xlink:href="#SVGID_31_"/>
		</clipPath>
		<g opacity=".2" clip-path="url(#SVGID_32_)">
				<defs>
					<rect id="SVGID_33_" y="556.19" x="922.83" height="75" width="59.997"/>
				</defs>
				<clipPath id="SVGID_34_">
					<use overflow="visible" xlink:href="#SVGID_33_"/>
				</clipPath>
				<g clip-path="url(#SVGID_34_)">
					<defs>
						<path id="SVGID_35_" d="m982.82 593.69c0 20.71-13.432 37.498-29.998 37.498-16.568 0-29.999-16.788-29.999-37.498s13.431-37.498 29.999-37.498c16.57 0 30 16.79 30 37.5"/>
					</defs>
					<clipPath id="SVGID_36_">
						<use overflow="visible" xlink:href="#SVGID_35_"/>
					</clipPath>
						<linearGradient id="SVGID_37_" y2="2039.6" gradientUnits="userSpaceOnUse" x2="1.0005" gradientTransform="matrix(0 -74.996 -74.996 0 1.5392e5 631.19)" y1="2039.6" x1=".00048828">
						<stop offset="0"/>
						<stop stop-color="#161616" offset=".1338"/>
						<stop stop-color="#424243" offset="1"/>
					</linearGradient>
					<rect clip-path="url(#SVGID_36_)" height="74.996" width="59.997" y="556.19" x="922.83" fill="url(#SVGID_37_)"/>
				</g>
		</g>
	</g>
	<g clip-path="url(#SVGID_2_)">
		<defs>
			<path id="SVGID_38_" d="m932.33 580.18c0 20.71 13.43 37.498 29.998 37.498s29.999-16.788 29.999-37.498-13.431-37.499-29.999-37.499-30 16.79-30 37.5"/>
		</defs>
		<clipPath id="SVGID_39_">
			<use overflow="visible" xlink:href="#SVGID_38_"/>
		</clipPath>
			<linearGradient id="SVGID_40_" y2="2039.6" gradientUnits="userSpaceOnUse" x2="1.001" gradientTransform="matrix(0 -74.996 -74.996 0 1.5393e5 617.69)" y1="2039.6" x1=".00097656">
			<stop offset="0"/>
			<stop stop-color="#161616" offset=".1338"/>
			<stop stop-color="#424243" offset="1"/>
		</linearGradient>
		<rect clip-path="url(#SVGID_39_)" height="74.997" width="59.997" y="542.68" x="932.33" fill="url(#SVGID_40_)"/>
	</g>
	<g clip-path="url(#SVGID_2_)">
		<defs>
			<rect id="SVGID_41_" y=".003" width="1022.8" height="2039.6"/>
		</defs>
		<clipPath id="SVGID_42_">
			<use overflow="visible" xlink:href="#SVGID_41_"/>
		</clipPath>
			<path stroke-linejoin="round" d="m808.71 470.75c37-88 41-91 99-141.5" clip-path="url(#SVGID_42_)" stroke="#222221" stroke-linecap="round" stroke-miterlimit="10" stroke-width="22" fill="none"/>
		<path fill="#222221" d="m963.21 314.75c0 18.502-14.998 33.5-33.5 33.5s-33.5-14.998-33.5-33.5c0-18.501 14.998-33.5 33.5-33.5s33.5 15 33.5 33.5" clip-path="url(#SVGID_42_)"/>
		<path fill="#464645" d="m940.21 303.5c0 5.937-4.813 10.75-10.75 10.75s-10.75-4.813-10.75-10.75 4.813-10.75 10.75-10.75c5.94 0 10.75 4.82 10.75 10.75" clip-path="url(#SVGID_42_)"/>
		<path fill="#212121" d="m791.67 381.92l-21.289-2.829 5.007-8.785c25.284-35.445 33.803-47.385 72.156-73.785l11.34 16.474c-35.47 24.41-42.83 34.73-67.22 68.93" clip-path="url(#SVGID_42_)"/>
		<path fill="#222221" d="m883.04 300.67c0 11.828-9.59 21.417-21.418 21.417-11.827 0-21.415-9.589-21.415-21.417s9.588-21.417 21.415-21.417c11.84 0 21.42 9.59 21.42 21.42" clip-path="url(#SVGID_42_)"/>
		<g opacity=".2" clip-path="url(#SVGID_42_)">
				<defs>
					<rect id="SVGID_43_" x="266.13" height="388.75" width="410.58"/>
				</defs>
				<clipPath id="SVGID_44_">
					<use overflow="visible" xlink:href="#SVGID_43_"/>
				</clipPath>
				<path fill="#fff" d="m354.08 32.239c-40.608 31.431-124.28 93.263-70.394 209.75 33.526 47.766 67.924 72.983 170.03 146.77 92.5-17.5 169.5-19 223-17-4.5-18.5-2.801-57.993-35-136.5-36.5-107.5-82.442-173.55-134.02-216.08-48.58-37.667-111.12-12.523-153.62 13.059" clip-path="url(#SVGID_44_)"/>
		</g>
		<g opacity=".1" clip-path="url(#SVGID_42_)">
				<defs>
					<rect id="SVGID_45_" y="34.36" x="283.67" height="336.89" width="382.54"/>
				</defs>
				<clipPath id="SVGID_46_">
					<use overflow="visible" xlink:href="#SVGID_45_"/>
				</clipPath>
				<path fill="#fff" d="m283.67 140.09c43.225-32.504 130.75-94.895 191.12-28.452 83.226 77.449 101.92 133.12 144.92 259.62 19 0 35.271-0.362 46.5 0-37.5-133.5-93.278-288.66-185.02-328.48-73.77-30.862-167.83 28.069-197.52 97.31" clip-path="url(#SVGID_46_)"/>
		</g>
		<g opacity=".2" clip-path="url(#SVGID_42_)">
				<defs>
					<rect id="SVGID_47_" y="150.39" x="93.234" height="386.73" width="536.7"/>
				</defs>
				<clipPath id="SVGID_48_">
					<use overflow="visible" xlink:href="#SVGID_47_"/>
				</clipPath>
				<path fill="#fff" d="m131.25 224.92c-25.333 44.667-78.667 134 16 220.67 29.333 35.333 170 49.333 292.67 78 105.33 18 162 20 186.67-6 24-28.667-86.666-166-146.67-226-71.334-74.667-148-118.67-212-138-59.34-16.01-107.34 31.33-136.67 71.33" clip-path="url(#SVGID_48_)"/>
		</g>
		<g opacity=".1" clip-path="url(#SVGID_42_)">
				<defs>
					<rect id="SVGID_49_" y="185.58" x="107.92" height="348.67" width="509.17"/>
				</defs>
				<clipPath id="SVGID_50_">
					<use overflow="visible" xlink:href="#SVGID_49_"/>
				</clipPath>
				<path fill="#fff" d="m107.92 351.58c27.333-46.667 84-138 165.33-100 106.67 39.333 200 130.67 311.33 282.67 17.134 0 22-4 32.5-8-55.834-131.33-264.5-339.33-364.5-340.67-79.96 0-144 90.67-144.66 166" clip-path="url(#SVGID_50_)"/>
		</g>
		<path fill="#212121" d="m609.7 887.78s0.957 1.226 2.572 3.401c0.801 1.109 1.845 2.329 2.807 4.049 0.509 0.842 1.049 1.737 1.618 2.681 0.55 0.953 1.229 1.962 1.735 3.039 0.527 1.08 1.076 2.205 1.644 3.37 0.543 1.178 1.221 2.378 1.698 3.668 0.526 1.279 1.048 2.606 1.577 3.973 0.259 0.683 0.551 1.373 0.79 2.078 0.228 0.708 0.459 1.423 0.69 2.145 0.449 1.457 0.904 2.938 1.366 4.438 0.39 1.509 0.736 3.05 1.104 4.607 0.18 0.781 0.36 1.565 0.542 2.351 0.137 0.787 0.274 1.577 0.414 2.369 0.265 1.585 0.566 3.188 0.802 4.785 0.406 3.185 1.087 6.403 1.583 9.549 0.244 1.577 0.537 3.161 0.658 4.691 0.134 1.537 0.185 3.057 0.162 4.548-0.12 2.936-0.621 5.787-1.337 8.374-0.693 2.625-1.509 5.03-2.442 7.233-0.892 2.212-1.871 4.161-2.846 5.932-0.925 1.727-1.894 3.252-2.743 4.514-0.813 1.244-1.533 2.25-2.091 2.942-0.529 0.693-0.862 1.071-0.862 1.071l-0.031 0.035c-0.521 0.591-1.422 0.647-2.012 0.127-0.057-0.049-0.111-0.107-0.157-0.162 0 0-0.315-0.382-0.811-1.113-0.525-0.731-1.196-1.814-1.948-3.227-0.716-1.394-1.489-3.091-2.207-5.062-0.692-1.921-1.38-4.14-1.9-6.47-0.562-2.34-0.977-4.856-1.275-7.439-0.283-2.617-0.476-5.266-0.227-8.015 0.104-1.354 0.282-2.729 0.546-4.119 0.291-1.384 0.587-2.784 0.885-4.196 0.684-2.835 1.162-5.693 1.467-8.584 0.126-1.438 0.188-2.866 0.288-4.303 0.046-0.719 0.093-1.436 0.139-2.152 0.02-0.711 0.04-1.42 0.06-2.126 0.04-1.416 0.063-2.825 0.132-4.229-0.02-1.392-0.039-2.769-0.059-4.12-0.001-0.684-0.002-1.362-0.004-2.034-0.012-0.671-0.077-1.322-0.113-1.977-0.088-1.306-0.169-2.592-0.229-3.857-0.026-1.276-0.259-2.461-0.378-3.648-0.146-1.186-0.287-2.332-0.422-3.433-0.339-2.164-0.721-4.118-1.034-5.916-0.154-0.893-0.301-1.739-0.544-2.527-0.203-0.791-0.39-1.518-0.558-2.174-0.679-2.623-1.032-4.138-1.032-4.138-0.142-0.605 0.234-1.211 0.841-1.353 0.43-0.1 0.87 0.07 1.13 0.41" clip-path="url(#SVGID_42_)"/>
		<path fill="#212121" d="m834.68 876.74s1.251 1.643 3.383 4.549c1.07 1.454 2.284 3.324 3.706 5.453 0.729 1.063 1.396 2.224 2.16 3.437 0.744 1.22 1.564 2.49 2.33 3.859 1.505 2.748 3.228 5.709 4.813 8.955 1.699 3.206 3.204 6.708 4.845 10.328 0.767 1.826 1.484 3.707 2.247 5.607 0.792 1.893 1.442 3.853 2.113 5.831 1.431 3.936 2.536 8.031 3.727 12.129 0.568 2.053 1.061 4.124 1.691 6.172 0.302 1.028 0.602 2.055 0.9 3.078 0.271 1.03 0.542 2.058 0.811 3.081 0.516 2.054 1.077 4.095 1.495 6.131 0.363 2.041 0.641 4.069 0.838 6.071 0.092 1.002 0.162 1.996 0.206 2.983 0.005 0.987-0.004 1.966-0.041 2.935-0.062 1.937-0.219 3.832-0.393 5.671-0.427 3.678-1.123 7.135-1.875 10.293-0.806 3.156-1.82 6.01-2.766 8.51-0.903 2.504-2.064 4.631-2.982 6.371-0.944 1.737-1.764 3.077-2.388 3.98-0.598 0.905-0.965 1.378-0.965 1.378-0.438 0.563-1.248 0.664-1.811 0.227-0.153-0.119-0.271-0.265-0.354-0.427l-0.021-0.043s-0.277-0.542-0.702-1.539c-0.454-1-1.021-2.45-1.647-4.265-0.325-0.908-0.627-1.905-0.964-2.984-0.295-1.076-0.673-2.238-1.034-3.469-0.733-2.462-1.41-5.204-2.025-8.157-0.755-2.955-1.296-6.123-1.849-9.447-0.301-1.661-0.588-3.362-0.784-5.1-0.104-0.869-0.179-1.748-0.243-2.635-0.093-0.885-0.174-1.779-0.229-2.683-0.099-1.808-0.121-3.652-0.063-5.532 0.011-1.874 0.063-3.781 0.116-5.713 0.033-0.969 0.065-1.941 0.099-2.916-0.017-0.972-0.035-1.946-0.052-2.923-0.03-1.957-0.116-3.923-0.28-5.877-0.21-1.952-0.421-3.903-0.631-5.847-0.091-0.978-0.217-1.947-0.366-2.909-0.134-0.967-0.268-1.931-0.4-2.891-0.255-1.927-0.531-3.837-0.863-5.715-0.321-1.88-0.607-3.753-0.946-5.583-0.359-1.831-0.713-3.631-1.059-5.393-0.319-1.777-0.782-3.468-1.136-5.155-0.707-3.376-1.609-6.5-2.367-9.431-0.852-2.887-1.586-5.59-2.327-7.931-0.778-2.324-1.399-4.377-1.984-6.082-1.214-3.393-1.875-5.35-1.875-5.35-0.196-0.583 0.116-1.216 0.699-1.413 0.44-0.32 0.94-0.15 1.22 0.22" clip-path="url(#SVGID_42_)"/>
		<path fill="#212121" d="m861.38 990.92s-0.415 2.139-1.396 5.752c-0.449 1.814-1.199 3.968-2.059 6.455-0.842 2.51-1.972 5.222-3.241 8.181-1.239 2.981-2.851 6.054-4.508 9.355-0.86 1.629-1.828 3.249-2.775 4.938-0.478 0.841-0.96 1.694-1.467 2.54-0.527 0.834-1.059 1.675-1.595 2.523-1.085 1.688-2.184 3.415-3.353 5.119-1.194 1.684-2.41 3.387-3.657 5.088-0.61 0.861-1.257 1.7-1.92 2.527-0.66 0.83-1.323 1.664-1.987 2.498-1.329 1.67-2.682 3.331-4.107 4.931-1.422 1.602-2.831 3.215-4.276 4.782-1.473 1.544-2.964 3.058-4.444 4.558-1.465 1.515-3.012 2.926-4.529 4.327-1.536 1.384-3.007 2.794-4.561 4.068-3.082 2.578-6.086 5.028-9.082 7.175-1.501 1.067-2.926 2.143-4.361 3.11-1.46 0.941-2.853 1.865-4.215 2.718-1.378 0.832-2.64 1.695-3.938 2.393-1.289 0.708-2.492 1.398-3.65 2.008-1.159 0.608-2.225 1.196-3.239 1.698-1.028 0.483-1.969 0.93-2.834 1.308-3.435 1.547-5.472 2.281-5.472 2.281s1.332-1.746 3.792-4.538c0.608-0.707 1.302-1.459 2.047-2.288 0.718-0.862 1.526-1.751 2.369-2.72 1.702-1.92 3.666-4.009 5.723-6.369 1.05-1.149 2.145-2.345 3.276-3.583 1.116-1.246 2.27-2.534 3.456-3.858 2.426-2.579 4.849-5.425 7.455-8.248 1.309-1.405 2.564-2.907 3.891-4.37 1.315-1.473 2.678-2.93 3.983-4.464 1.328-1.512 2.665-3.034 4.033-4.538 1.331-1.537 2.668-3.08 4.005-4.623 1.374-1.512 2.671-3.088 3.997-4.63 1.303-1.56 2.69-3.044 3.952-4.607 1.286-1.545 2.583-3.063 3.87-4.561 1.267-1.516 2.518-3.014 3.747-4.486 0.623-0.733 1.242-1.459 1.855-2.178 0.599-0.731 1.192-1.454 1.779-2.169 1.191-1.422 2.332-2.834 3.492-4.178 1.122-1.369 2.188-2.722 3.271-4.001 0.541-0.642 1.071-1.272 1.594-1.891 0.507-0.63 1.004-1.248 1.491-1.854 1.968-2.415 3.846-4.606 5.427-6.584 1.612-1.972 3.104-3.657 4.278-5.125 2.38-2.68 3.89-4.26 3.89-4.26" clip-path="url(#SVGID_42_)"/>
		<path fill="#212121" d="m377.1 855.82s-0.634 1.971-1.807 5.386c-0.562 1.716-1.156 3.778-1.905 6.111-0.712 2.35-1.411 5.065-2.229 7.959-0.724 2.94-1.588 6.072-2.255 9.453-0.334 1.69-0.778 3.384-1.077 5.163-0.326 1.762-0.659 3.563-0.998 5.395-0.319 1.83-0.586 3.703-0.887 5.583-0.311 1.876-0.57 3.784-0.806 5.709-0.124 0.959-0.248 1.921-0.373 2.887-0.14 0.96-0.257 1.928-0.34 2.904-0.193 1.939-0.386 3.886-0.579 5.834-0.146 1.95-0.214 3.911-0.216 5.864-0.005 0.974-0.009 1.946-0.014 2.916 0.047 0.972 0.094 1.942 0.141 2.908 0.079 1.926 0.158 3.827 0.189 5.694 0.07 1.873 0.077 3.71-0.028 5.508-0.053 0.899-0.135 1.788-0.229 2.669-0.066 0.883-0.146 1.757-0.256 2.621-0.207 1.729-0.515 3.421-0.837 5.074-0.334 1.653-0.581 3.271-0.92 4.84-0.339 1.571-0.693 3.095-1.086 4.568-0.705 2.945-1.441 5.682-2.255 8.142-0.41 1.239-0.794 2.397-1.149 3.469-0.376 1.08-0.713 2.077-1.076 2.988-0.697 1.818-1.328 3.273-1.831 4.278-0.472 1.001-0.778 1.546-0.778 1.546l-0.022 0.04c-0.39 0.695-1.271 0.943-1.966 0.553-0.154-0.087-0.289-0.201-0.397-0.328 0 0-0.397-0.469-1.04-1.371-0.673-0.898-1.556-2.233-2.572-3.967-0.989-1.736-2.23-3.861-3.208-6.367-1.028-2.502-2.101-5.361-2.997-8.526-0.795-3.168-1.565-6.637-2.031-10.331-0.196-1.848-0.373-3.752-0.447-5.698-0.043-0.973-0.056-1.956-0.054-2.949 0.042-0.991 0.113-1.99 0.206-2.995 0.19-2.012 0.498-4.048 0.872-6.096 0.438-2.043 1.028-4.09 1.568-6.15 0.284-1.026 0.568-2.056 0.854-3.089 0.311-1.025 0.624-2.054 0.938-3.085 0.658-2.052 1.168-4.127 1.756-6.185 1.226-4.107 2.363-8.211 3.832-12.152 0.69-1.979 1.358-3.942 2.171-5.835 0.782-1.901 1.519-3.782 2.306-5.608 1.682-3.619 3.224-7.118 4.965-10.318 1.625-3.241 3.385-6.194 4.924-8.934 0.781-1.365 1.621-2.63 2.381-3.844 0.782-1.209 1.463-2.363 2.208-3.423 1.451-2.12 2.692-3.982 3.785-5.425 2.173-2.883 3.451-4.512 3.451-4.512 0.415-0.53 1.181-0.622 1.711-0.207 0.45 0.33 0.6 0.86 0.44 1.34" clip-path="url(#SVGID_42_)"/>
		<path fill="#212121" d="m348.38 968.92s1.504 1.577 3.882 4.469c1.173 1.468 2.666 3.153 4.278 5.125 1.581 1.978 3.459 4.169 5.427 6.584 0.487 0.606 0.984 1.224 1.491 1.854 0.522 0.619 1.053 1.249 1.594 1.891 1.083 1.279 2.149 2.632 3.271 4.001 1.16 1.344 2.301 2.756 3.492 4.178 0.587 0.715 1.181 1.438 1.78 2.169 0.613 0.719 1.232 1.445 1.855 2.178 1.23 1.473 2.481 2.971 3.747 4.487 1.287 1.497 2.584 3.015 3.87 4.56 1.262 1.564 2.65 3.047 3.953 4.608 1.326 1.542 2.623 3.118 3.997 4.629 1.336 1.543 2.673 3.086 4.004 4.624 1.369 1.504 2.706 3.026 4.034 4.538 1.305 1.534 2.668 2.991 3.983 4.464 1.326 1.463 2.582 2.965 3.891 4.37 2.606 2.823 5.029 5.669 7.455 8.248 1.186 1.324 2.34 2.612 3.456 3.858 1.132 1.238 2.226 2.434 3.276 3.583 2.057 2.36 4.021 4.449 5.723 6.369 0.843 0.969 1.651 1.857 2.369 2.72 0.745 0.829 1.439 1.581 2.046 2.288 2.461 2.792 3.793 4.538 3.793 4.538s-2.037-0.734-5.472-2.281c-0.865-0.378-1.806-0.824-2.834-1.308-1.014-0.502-2.08-1.09-3.239-1.698-1.158-0.609-2.361-1.3-3.65-2.008-1.298-0.697-2.56-1.561-3.938-2.393-1.362-0.853-2.755-1.776-4.215-2.718-1.435-0.968-2.86-2.043-4.361-3.11-2.996-2.146-6-4.597-9.082-7.175-1.554-1.274-3.025-2.685-4.561-4.068-1.517-1.401-3.064-2.813-4.529-4.327-1.48-1.5-2.972-3.014-4.444-4.558-1.446-1.567-2.855-3.181-4.277-4.782-1.425-1.6-2.778-3.261-4.107-4.931-0.664-0.834-1.327-1.668-1.987-2.498-0.664-0.828-1.31-1.666-1.92-2.528-1.247-1.701-2.463-3.404-3.658-5.088-1.169-1.704-2.267-3.43-3.352-5.119-0.536-0.848-1.068-1.689-1.595-2.523-0.507-0.846-0.989-1.699-1.467-2.54-0.947-1.688-1.915-3.309-2.775-4.938-1.657-3.301-3.269-6.374-4.508-9.355-1.269-2.959-2.399-5.671-3.241-8.181-0.859-2.487-1.609-4.641-2.059-6.455-0.96-3.7-1.37-5.84-1.37-5.84" clip-path="url(#SVGID_42_)"/>
		<path fill="#212121" d="m618.71 975.59s0.294 1.166 0.533 3.123c0.247 1.961 0.448 4.716 0.398 7.935-0.004 1.594-0.188 3.376-0.401 5.215-0.227 1.846-0.531 3.784-0.917 5.773-0.471 1.982-1.06 4.017-1.716 6.062-0.591 2.049-1.541 4.093-2.496 6.111-0.49 1.004-0.975 2.011-1.492 2.995-0.579 0.96-1.202 1.892-1.812 2.817-0.618 0.921-1.246 1.823-1.88 2.702-0.62 0.892-1.368 1.639-2.054 2.424-0.7 0.772-1.396 1.519-2.099 2.231-0.694 0.719-1.384 1.413-2.11 1.998-1.424 1.216-2.843 2.294-4.159 3.269-1.321 0.981-2.608 1.754-3.774 2.434-1.169 0.671-2.219 1.228-3.111 1.658-1.775 0.869-2.91 1.254-2.91 1.254s0.203-1.191 0.769-3.077c0.275-0.948 0.648-2.065 1.108-3.313 0.456-1.247 1.047-2.606 1.625-4.076 0.614-1.449 1.286-2.998 2.074-4.56 0.414-0.778 0.755-1.59 1.132-2.397 0.372-0.812 0.771-1.622 1.187-2.435 0.39-0.823 0.902-1.604 1.254-2.456 0.378-0.839 0.773-1.676 1.188-2.508 0.418-0.829 0.846-1.657 1.296-2.478 0.369-0.874 0.775-1.731 1.175-2.592 0.817-1.714 1.747-3.355 2.517-5.146 0.813-1.748 1.702-3.434 2.605-5.073 0.832-1.688 1.704-3.306 2.596-4.83 0.873-1.541 1.842-2.916 2.67-4.308 1.713-2.723 3.383-4.92 4.658-6.426 1.26-1.41 2.14-2.22 2.14-2.22" clip-path="url(#SVGID_42_)"/>
	</g>
	<g clip-path="url(#SVGID_2_)">
		<defs>
			<path id="SVGID_51_" d="m490.74 987.63c-25.309 22.937-52.199 33.219-84.626 33.219-39.546 12.654 36.381 79.089 71.181 174 12.654 23.728-25.111 49.036-61.691 79.09-355.9 352.74-246.76 708.64 85.417 757.68h4.745c510.92 75.926 705.48-403.36 264.16-776.66-25.309-19.772-44.291-36.579-37.173-58.526 15.819-34.8 27.682-54.572 60.9-115.47 3.162-8.7 35.59-60.107 7.908-58.526-25.792 0-35.591-4.746-46.662-11.863-26.892-20.564-57.735-40.336-86.209-22.145-31.636 14.236-43.498 52.199-79.09 30.844-19.06-6.727-48.107-40.219-76.316-40.222-7.65 0.07-15.23 2.53-22.54 8.65"/>
		</defs>
		<clipPath id="SVGID_52_">
			<use overflow="visible" xlink:href="#SVGID_51_"/>
		</clipPath>
			<linearGradient id="SVGID_53_" y2="2039.7" gradientUnits="userSpaceOnUse" gradientTransform="matrix(0 1060.6 1060.6 0 -2.1626e6 979.13)" y1="2039.7">
			<stop stop-color="#353535" offset="0"/>
			<stop stop-color="#2E2E2E" offset=".453"/>
			<stop stop-color="#272627" offset="1"/>
		</linearGradient>
		<rect clip-path="url(#SVGID_52_)" height="1137.3" width="1151.5" y="970.24" x="59.698" fill="url(#SVGID_53_)"/>
	</g>
	<g clip-path="url(#SVGID_2_)">
		<defs>
			<path id="SVGID_54_" d="m597.47 1433.5v45.552c-25.86 2.107-46.307 10.826-61.339 26.16-15.035 15.335-22.551 35.179-22.551 59.535 0 25.408 7.516 45.103 22.551 59.083 15.032 13.982 38.185 25.933 69.456 35.857 27.363 9.807 46.457 19.988 57.28 30.549 10.825 10.562 16.237 24.137 16.237 40.725 0 17.955-6.506 32.774-19.508 44.466-13.005 11.691-30.634 17.537-52.881 17.537-21.502 0-39.842-5.898-55.025-17.695-15.187-11.797-22.776-31.078-22.776-57.851h-25.257l-0.676 1.354c-0.602 31.722 8.08 55.439 26.046 71.147 17.964 15.711 40.554 24.392 67.766 26.045v42.622h22.777v-42.846c26.457-2.107 47.504-10.633 63.142-25.595 15.636-14.959 23.453-34.915 23.453-59.873 0-25.107-7.479-44.54-22.438-58.294-14.961-13.758-37.999-25.822-69.117-36.195-29.018-9.62-48.638-19.655-58.858-30.106-10.227-10.446-15.337-24.242-15.337-41.381 0-17.739 5.752-32.435 17.252-44.088 11.501-11.649 28.376-17.476 50.627-17.476 21.651 0 38.487 7.141 50.515 21.424 12.026 14.284 18.041 32.849 18.041 55.699h25.258l0.676-1.127c0.3-29.464-6.765-52.846-21.197-70.134-14.434-17.289-34.805-27.136-61.115-29.543v-45.552h-22.99z"/>
		</defs>
		<clipPath id="SVGID_55_">
			<use overflow="visible" xlink:href="#SVGID_54_"/>
		</clipPath>
			<linearGradient id="SVGID_56_" y2="2039.6" gradientUnits="userSpaceOnUse" x2="1.0005" gradientTransform="matrix(0 425.09 425.09 0 -8.6641e5 1433.4)" y1="2039.6" x1=".00048828">
			<stop stop-color="#71B564" offset="0"/>
			<stop stop-color="#4F68AE" offset="1"/>
		</linearGradient>
		<rect clip-path="url(#SVGID_55_)" height="425.09" width="203.79" y="1433.5" x="502.38" fill="url(#SVGID_56_)"/>
	</g>
	<g clip-path="url(#SVGID_2_)">
		<defs>
			<path id="SVGID_57_" d="m665.5 1782c14.886-13.386 22.432-30.554 22.432-51.03 0-18.977-6.358-34.806-18.899-47.043-11.849-11.56-31.627-22.204-60.775-32.644-29.873-9.479-52.117-20.888-66.115-33.907-13.277-12.349-19.734-29.563-19.734-52.62 0-22.159 6.551-39.61 20.027-53.356 13.432-13.701 32.189-21.62 55.753-23.543 4.581-0.373 8.109-4.199 8.109-8.796v-36.725h5.348v36.725c0 4.564 3.479 8.374 8.023 8.789 24.11 2.207 42.146 10.847 55.143 26.411 11.745 14.069 18.139 33.145 19.043 56.776h-8.473c-1.436-20.969-8.083-38.617-19.821-52.558-13.727-16.302-32.996-24.564-57.266-24.564-24.593 0-43.74 6.764-56.908 20.102-13.136 13.312-19.797 30.231-19.797 50.288 0 19.453 6.008 35.452 17.853 47.552 11.324 11.58 31.733 22.148 62.378 32.309 29.78 9.928 51.966 21.474 65.935 34.318 13.18 12.119 19.586 29.062 19.586 51.798 0 22.651-6.781 40.15-20.729 53.495-14.053 13.445-33.481 21.242-57.741 23.176-4.589 0.366-8.125 4.194-8.125 8.797v34.019h-5.125v-33.795c0-4.667-3.633-8.525-8.29-8.808-25.093-1.528-46.118-9.563-62.493-23.883-14.683-12.836-22.239-31.539-22.997-57.029h8.527c1.615 25.07 10.313 43.88 25.91 55.993 16.695 12.974 37.03 19.553 60.439 19.553 24.38-0.2 44.16-6.9 58.78-20m-68.03-357.4c-4.875 0-8.826 3.953-8.826 8.827v37.646c-24.197 3.364-43.953 12.726-58.815 27.886-16.638 16.97-25.074 39.081-25.074 65.715 0 27.841 8.535 49.894 25.364 65.545 15.925 14.813 40.417 27.532 72.491 37.704 26.036 9.331 44.237 18.939 54.096 28.558 9.132 8.913 13.573 20.168 13.573 34.407 0 15.47-5.424 27.87-16.582 37.903-11.274 10.134-27.081 15.273-46.98 15.273-19.666 0-35.893-5.181-49.612-15.841-13.029-10.12-19.363-26.764-19.363-50.879 0-4.874-3.952-8.826-8.826-8.826h-25.257c-3.345 0-6.4 1.891-7.895 4.879l-0.677 1.353c-0.586 1.177-0.906 2.468-0.929 3.78-0.651 34.304 9.126 60.531 29.061 77.959 17.512 15.316 39.263 24.542 64.75 27.485v34.538c0 4.874 3.952 8.827 8.826 8.827h22.777c4.874 0 8.825-3.953 8.825-8.827v-34.909c24.714-3.297 45.01-12.412 60.418-27.153 17.371-16.62 26.179-38.91 26.179-66.251 0-27.562-8.511-49.36-25.292-64.791-15.814-14.541-40.139-27.353-72.313-38.077-27.533-9.127-46.146-18.514-55.329-27.901-8.623-8.811-12.816-20.327-12.816-35.207 0-15.467 4.812-27.859 14.707-37.886 9.728-9.855 24.647-14.852 44.345-14.852 19.088 0 33.403 5.979 43.764 18.281 10.593 12.585 15.966 29.412 15.966 50.016 0 4.874 3.951 8.825 8.826 8.825h25.258c3.098 0 5.971-1.624 7.567-4.28l0.676-1.127c0.81-1.348 1.242-2.887 1.26-4.454 0.318-31.49-7.501-57.02-23.249-75.88-14.396-17.246-34.241-27.889-59.064-31.699v-37.74c0-4.874-3.951-8.827-8.826-8.827h-23.02z"/>
		</defs>
		<clipPath id="SVGID_58_">
			<use overflow="visible" xlink:href="#SVGID_57_"/>
		</clipPath>
			<linearGradient id="SVGID_59_" y2="2039.6" gradientUnits="userSpaceOnUse" gradientTransform="matrix(0 442.74 442.74 0 -9.0242e5 1424.6)" y1="2039.6">
			<stop stop-color="#71B564" offset="0"/>
			<stop stop-color="#4F68AE" offset="1"/>
		</linearGradient>
		<rect clip-path="url(#SVGID_58_)" height="442.74" width="221.49" y="1424.6" x="493.5" fill="url(#SVGID_59_)"/>
	</g>
	<g clip-path="url(#SVGID_2_)">
		<defs>
			<path id="SVGID_60_" d="m654.58 1214.8l-55.363 107.57c-4.798 9.32-1.13 20.767 8.191 25.563 2.779 1.432 5.746 2.107 8.671 2.107 6.883 0 13.525-3.758 16.893-10.302l55.363-107.56c4.798-9.32 1.129-20.767-8.19-25.563-2.779-1.432-5.745-2.11-8.67-2.11-6.87 0-13.52 3.7-16.89 10.3"/>
		</defs>
		<clipPath id="SVGID_61_">
			<use overflow="visible" xlink:href="#SVGID_60_"/>
		</clipPath>
			<linearGradient id="SVGID_62_" y2="2039.6" gradientUnits="userSpaceOnUse" gradientTransform="matrix(0 -145.54 -145.54 0 2.9749e5 1350)" y1="2039.6">
			<stop stop-color="#E5B132" offset="0"/>
			<stop stop-color="#F1D936" offset="1"/>
		</linearGradient>
		<rect clip-path="url(#SVGID_61_)" height="145.54" width="98.714" y="1204.5" x="594.42" fill="url(#SVGID_62_)"/>
	</g>
	<g clip-path="url(#SVGID_2_)">
		<defs>
			<path id="SVGID_63_" d="m666.72 1205.1c-10.15 2.618-16.255 12.971-13.636 23.119l63.271 245.18c2.211 8.563 9.918 14.245 18.366 14.245 1.57 0 3.166-0.194 4.756-0.605 10.151-2.62 16.257-12.973 13.637-23.121l-63.271-245.18c-2.208-8.559-9.901-14.25-18.351-14.249-1.58 0-3.19 0.2-4.78 0.6"/>
		</defs>
		<clipPath id="SVGID_64_">
			<use overflow="visible" xlink:href="#SVGID_63_"/>
		</clipPath>
			<linearGradient id="SVGID_65_" y2="2039.6" gradientUnits="userSpaceOnUse" x2="1.0005" gradientTransform="matrix(0 -283.16 -283.16 0 5.7824e5 1487.6)" y1="2039.6" x1=".00048828">
			<stop stop-color="#E5B132" offset="0"/>
			<stop stop-color="#F1D936" offset="1"/>
		</linearGradient>
		<rect clip-path="url(#SVGID_64_)" height="283.16" width="105.27" y="1204.5" x="650.46" fill="url(#SVGID_65_)"/>
	</g>
	<g clip-path="url(#SVGID_2_)">
		<defs>
			<rect id="SVGID_66_" y=".003" width="1022.8" height="2039.6"/>
		</defs>
		<clipPath id="SVGID_67_">
			<use overflow="visible" xlink:href="#SVGID_66_"/>
		</clipPath>
		<line y2="1217.1" clip-path="url(#SVGID_67_)" x2="758.46" y1="1217.1" x1="445.26" fill="#fff"/>
	</g>
	<g clip-path="url(#SVGID_2_)">
		<defs>
			<path id="SVGID_68_" d="m445.26 1193.4c-13.104 0-23.727 10.622-23.727 23.727 0 13.106 10.623 23.728 23.727 23.728h313.2c13.104 0 23.726-10.621 23.726-23.728 0-13.104-10.621-23.727-23.726-23.727h-313.2z"/>
		</defs>
		<clipPath id="SVGID_69_">
			<use overflow="visible" xlink:href="#SVGID_68_"/>
		</clipPath>
			<linearGradient id="SVGID_70_" y2="2039.6" gradientUnits="userSpaceOnUse" gradientTransform="matrix(0 -47.454 -47.454 0 97390 1240.9)" y1="2039.6">
			<stop stop-color="#E5B132" offset="0"/>
			<stop stop-color="#F1D936" offset="1"/>
		</linearGradient>
		<rect clip-path="url(#SVGID_69_)" height="47.454" width="360.65" y="1193.4" x="421.54" fill="url(#SVGID_70_)"/>
	</g>
	<g clip-path="url(#SVGID_2_)">
		<defs>
			<rect id="SVGID_71_" y=".003" width="1022.8" height="2039.6"/>
		</defs>
		<clipPath id="SVGID_72_">
			<use overflow="visible" xlink:href="#SVGID_71_"/>
		</clipPath>
		<line y2="1169.7" clip-path="url(#SVGID_72_)" x2="745.81" y1="1169.7" x1="456.34" fill="#fff"/>
	</g>
	<g clip-path="url(#SVGID_2_)">
		<defs>
			<path id="SVGID_73_" d="m456.34 1146c-13.104 0-23.727 10.621-23.727 23.726 0 13.106 10.623 23.728 23.727 23.728h289.47c13.105 0 23.728-10.621 23.728-23.728 0-13.104-10.622-23.726-23.728-23.726h-289.47z"/>
		</defs>
		<clipPath id="SVGID_74_">
			<use overflow="visible" xlink:href="#SVGID_73_"/>
		</clipPath>
			<linearGradient id="SVGID_75_" y2="2039.6" gradientUnits="userSpaceOnUse" x2=".9995" gradientTransform="matrix(0 -47.454 -47.454 0 97389 1193.4)" y1="2039.6" x1="-.00048828">
			<stop stop-color="#E5B132" offset="0"/>
			<stop stop-color="#F1D936" offset="1"/>
		</linearGradient>
		<rect clip-path="url(#SVGID_74_)" height="47.453" width="336.92" y="1146" x="432.61" fill="url(#SVGID_75_)"/>
	</g>
</svg>
