<?xml version="1.0" encoding="UTF-8" standalone="no"?>
<!-- Generator: Adobe Illustrator 16.0.0, SVG Export Plug-In . SVG Version: 6.00 Build 0)  -->
<!DOCTYPE svg  PUBLIC '-//W3C//DTD SVG 1.1//EN'  'http://www.w3.org/Graphics/SVG/1.1/DTD/svg11.dtd'>
<svg id="Слой_1" xmlns="http://www.w3.org/2000/svg" xml:space="preserve" height="1647.2px" viewBox="0 0 1022.76 1647.19" width="1022.8px" version="1.1" y="0px" x="0px" xmlns:xlink="http://www.w3.org/1999/xlink" enable-background="new 0 0 1022.76 1647.19">
	<defs>
		<rect id="SVGID_1_" width="1022.8" height="1647.2"/>
	</defs>
	<clipPath id="SVGID_2_">
		<use overflow="visible" xlink:href="#SVGID_1_"/>
	</clipPath>
	<g clip-path="url(#SVGID_2_)">
		<defs>
			<rect id="SVGID_3_" y=".002" width="1022.8" height="1647.2"/>
		</defs>
		<clipPath id="SVGID_4_">
			<use overflow="visible" xlink:href="#SVGID_3_"/>
		</clipPath>
		<path fill="#212121" d="m413.43 863.91s0.873 1.391 2.352 3.845c0.756 1.217 1.63 2.726 2.62 4.472 1 1.739 2.133 3.706 3.283 5.893 1.185 2.17 2.382 4.572 3.677 7.112 0.655 1.267 1.253 2.604 1.894 3.962 0.64 1.356 1.291 2.749 1.901 4.19 0.606 1.442 1.248 2.901 1.85 4.401 0.595 1.505 1.16 3.041 1.745 4.59s1.085 3.144 1.617 4.737c0.546 1.59 1.022 3.21 1.488 4.836 0.991 3.24 1.951 6.505 2.974 9.737 0.876 3.247 1.771 6.48 2.037 9.665 0.14 1.59 0.284 3.158 0.238 4.697-0.034 1.538-0.131 3.044-0.257 4.507-0.218 2.929-0.802 5.673-1.336 8.191-0.555 2.517-1.343 4.792-2.052 6.795-0.691 2.004-1.54 3.716-2.248 5.119-0.718 1.401-1.346 2.487-1.829 3.222-0.46 0.736-0.746 1.122-0.746 1.122-0.35 0.475-1.018 0.574-1.492 0.225-0.121-0.09-0.217-0.199-0.288-0.321l-0.015-0.027s-0.243-0.422-0.622-1.202c-0.402-0.78-0.911-1.918-1.479-3.346-0.576-1.428-1.159-3.147-1.824-5.092-0.662-1.944-1.255-4.12-1.858-6.46-0.34-1.17-0.591-2.383-0.895-3.634-0.258-1.245-0.525-2.532-0.799-3.855-0.267-1.317-0.508-2.665-0.689-4.046-0.188-1.38-0.387-2.779-0.487-4.215-0.093-1.436-0.102-2.905-0.147-4.389-0.017-1.488 0.038-3.009 0.073-4.546-0.018-3.058 0.005-6.203-0.374-9.297-0.277-3.11-0.794-6.193-1.206-9.265-0.247-1.533-0.492-3.054-0.735-4.556-0.246-1.507-0.543-2.988-0.805-4.455-0.495-2.944-1.143-5.767-1.677-8.477-0.595-2.694-1.134-5.262-1.724-7.614-0.277-1.183-0.541-2.316-0.793-3.396-0.263-1.077-0.513-2.099-0.747-3.059-0.473-1.931-0.886-3.613-1.226-4.998-0.693-2.78-1.062-4.382-1.062-4.382-0.113-0.49 0.194-0.98 0.685-1.094 0.42-0.09 0.81 0.09 1.01 0.41" clip-path="url(#SVGID_4_)"/>
		<path fill="#212121" d="m428.74 956.6s0.274 0.246 0.787 0.708c0.492 0.475 1.25 1.147 2.144 2.051 0.446 0.451 0.94 0.951 1.477 1.496 0.492 0.603 0.998 1.28 1.558 2.006 0.561 0.726 1.127 1.526 1.747 2.372 0.601 0.853 1.067 1.8 1.648 2.774 0.273 0.495 0.553 1 0.838 1.514 0.283 0.519 0.581 1.044 0.805 1.606 0.489 1.111 0.954 2.281 1.455 3.485 0.123 0.302 0.247 0.607 0.372 0.913 0.095 0.313 0.191 0.626 0.288 0.941 0.193 0.634 0.388 1.275 0.586 1.925 0.417 1.299 0.772 2.645 1.038 4.008 0.636 2.743 1.052 5.565 1.39 8.439 0.307 2.841 0.508 5.745 0.661 8.573 0.115 2.864 0.234 5.646 0.285 8.406 0.059 1.365 0.091 2.724 0.1 4.066 0.018 1.343 0.115 2.643 0.124 3.943 0.026 2.604 0.212 5.074 0.267 7.464 0.001 1.199 0.158 2.334 0.202 3.46 0.056 1.127 0.111 2.215 0.163 3.26 0.163 2.084 0.339 4.006 0.433 5.739 0.024 0.435 0.047 0.854 0.069 1.261 0.042 0.4 0.083 0.789 0.122 1.161 0.069 0.752 0.132 1.442 0.189 2.066 0.112 1.254 0.141 2.268 0.188 2.952 0.024 0.694 0.038 1.064 0.038 1.064s-0.214-0.299-0.582-0.877c-0.356-0.581-0.92-1.424-1.561-2.534-0.332-0.552-0.677-1.172-1.06-1.849-0.188-0.34-0.383-0.692-0.586-1.06-0.176-0.377-0.358-0.767-0.546-1.17-0.735-1.62-1.563-3.467-2.368-5.522-0.694-2.075-1.49-4.343-2.138-6.779-0.58-2.442-1.261-5.041-1.654-7.74-0.476-2.706-0.828-5.491-1.083-8.325-0.28-2.81-0.42-5.694-0.587-8.492-0.111-2.786-0.223-5.573-0.332-8.317-0.094-1.338-0.151-2.671-0.198-3.992-0.056-1.319-0.216-2.575-0.275-3.848-0.05-0.629-0.064-1.269-0.141-1.877-0.086-0.607-0.152-1.214-0.216-1.815-0.154-1.193-0.207-2.406-0.436-3.522-0.186-1.133-0.388-2.236-0.545-3.324-0.14-1.096-0.479-2.083-0.673-3.092-0.228-0.99-0.408-1.983-0.654-2.873-0.257-0.883-0.523-1.721-0.743-2.536-0.222-0.814-0.448-1.578-0.632-2.311-0.262-0.718-0.504-1.378-0.722-1.973-0.434-1.193-0.719-2.166-0.938-2.814-0.23-0.96-0.33-1.31-0.33-1.31" clip-path="url(#SVGID_4_)"/>
		<path fill="#212121" d="m783.45 879.96s0.786 1.357 2.161 3.732c0.338 0.597 0.727 1.246 1.123 1.976 0.38 0.747 0.79 1.554 1.229 2.417 0.441 0.868 0.91 1.793 1.404 2.768 0.468 0.983 0.937 2.024 1.42 3.118 1.012 2.172 1.939 4.593 2.951 7.166 0.528 1.28 0.93 2.638 1.408 4.012 0.471 1.376 0.941 2.788 1.341 4.245 0.398 1.457 0.854 2.938 1.221 4.451 0.35 1.521 0.704 3.061 1.062 4.611 0.62 3.114 1.198 6.306 1.622 9.498 0.492 3.195 0.984 6.39 1.469 9.535 0.208 1.569 0.432 3.132 0.589 4.678 0.157 1.547 0.19 3.058 0.203 4.554 0.009 2.996-0.359 5.846-0.813 8.548-0.47 2.696-1.063 5.217-1.715 7.54-1.316 4.63-2.896 8.434-4.233 11.068-0.677 1.319-1.245 2.351-1.679 3.051-0.42 0.701-0.681 1.072-0.681 1.072-0.297 0.422-0.881 0.523-1.303 0.226-0.126-0.088-0.228-0.209-0.294-0.337 0 0-0.21-0.402-0.532-1.153-0.336-0.751-0.763-1.849-1.259-3.239-0.957-2.782-2.069-6.722-2.849-11.387-0.228-1.165-0.376-2.372-0.567-3.622-0.14-1.244-0.282-2.53-0.431-3.853-0.276-2.628-0.379-5.397-0.313-8.221 0.111-2.839 0.46-5.739 0.865-8.707 0.209-1.485 0.346-2.968 0.496-4.47 0.183-1.505 0.234-3.004 0.271-4.502 0.117-3.01 0.03-5.991 0.016-8.952-0.055-1.476-0.109-2.939-0.164-4.385-0.048-1.451-0.189-2.871-0.275-4.283-0.065-1.416-0.208-2.797-0.359-4.151-0.161-1.352-0.245-2.696-0.442-3.982-0.359-2.582-0.679-5.05-1.136-7.297-0.203-1.134-0.396-2.221-0.582-3.254-0.218-1.023-0.425-1.994-0.619-2.906-0.38-1.828-0.737-3.444-1.082-4.778-0.641-2.668-1.008-4.192-1.008-4.192-0.104-0.434 0.163-0.871 0.597-0.975 0.33-0.11 0.69 0.06 0.86 0.36" clip-path="url(#SVGID_4_)"/>
		<path fill="#212121" d="m789.74 969.6s0.229 0.378 0.657 1.086c0.206 0.357 0.46 0.797 0.759 1.314 0.267 0.543 0.559 1.18 0.879 1.909 0.359 0.731 0.595 1.55 0.919 2.45 0.348 0.9 0.564 1.896 0.849 2.968 0.313 1.072 0.444 2.226 0.685 3.451 0.196 1.226 0.31 2.52 0.44 3.876 0.171 2.704 0.212 5.657-0.015 8.737-0.226 3.08-0.613 6.316-1.247 9.591-0.598 3.29-1.395 6.635-2.351 9.975-0.916 3.356-2.058 6.677-3.211 9.984-1.217 3.283-2.475 6.538-3.834 9.684-0.665 1.576-1.348 3.131-2.054 4.649-0.7 1.521-1.379 3.028-2.104 4.481-2.821 5.852-5.69 11.173-8.261 15.68-2.569 4.507-4.846 8.203-6.48 10.786-0.816 1.292-1.495 2.294-1.942 2.985-0.467 0.685-0.716 1.049-0.716 1.049s0.063-0.438 0.18-1.256c0.143-0.811 0.301-2.021 0.612-3.521 0.579-3.018 1.572-7.278 3.003-12.288 1.425-5.012 3.289-10.764 5.412-16.832 0.535-1.512 1.081-3.05 1.632-4.605 0.547-1.557 1.107-3.123 1.696-4.694 1.14-3.139 2.297-6.328 3.454-9.517 1.164-3.171 2.29-6.351 3.365-9.471 0.529-1.561 1.054-3.109 1.57-4.641 0.485-1.534 0.964-3.049 1.436-4.539 0.929-2.985 1.733-5.877 2.427-8.638 0.169-0.692 0.336-1.373 0.501-2.045 0.145-0.675 0.286-1.338 0.427-1.991 0.323-1.309 0.486-2.575 0.736-3.801 0.394-2.444 0.685-4.716 0.81-6.743 0.152-2.028 0.152-3.834 0.116-5.307-0.036-0.731-0.063-1.4-0.074-1.994-0.064-0.595-0.118-1.1-0.162-1.51-0.11-0.94-0.15-1.38-0.15-1.38" clip-path="url(#SVGID_4_)"/>
		<path fill="#212121" d="m643.05 865.4s0.623 1.575 1.713 4.331c0.273 0.689 0.574 1.452 0.902 2.283 0.321 0.831 0.595 1.774 0.928 2.764 0.326 0.997 0.672 2.06 1.037 3.177 0.183 0.563 0.37 1.14 0.563 1.73 0.18 0.59 0.329 1.197 0.5 1.816 0.335 1.24 0.683 2.533 1.043 3.873 0.18 0.671 0.361 1.354 0.547 2.047 0.16 0.696 0.323 1.403 0.487 2.121 0.673 2.871 1.329 5.919 1.881 9.085 0.279 1.583 0.612 3.193 0.862 4.827 0.266 1.635 0.479 3.294 0.716 4.968 0.25 1.675 0.424 3.361 0.618 5.058 0.186 1.696 0.404 3.403 0.562 5.107 0.298 3.406 0.767 6.821 1.133 10.18 0.409 3.365 0.677 6.669 0.677 9.869-0.029 3.188-0.277 6.274-0.703 9.172-0.176 1.451-0.436 2.859-0.646 4.222-0.268 1.356-0.494 2.665-0.786 3.92-1.09 5.022-2.395 9.15-3.468 12.057-0.537 1.446-0.981 2.59-1.328 3.373-0.336 0.781-0.547 1.201-0.547 1.201l-0.006 0.014c-0.193 0.383-0.659 0.538-1.042 0.346-0.16-0.081-0.28-0.209-0.353-0.359 0 0-0.201-0.421-0.519-1.216-0.326-0.794-0.754-1.965-1.244-3.462-0.938-2.981-1.988-7.262-2.729-12.328-0.381-2.538-0.699-5.271-0.921-8.148-0.246-2.884-0.383-5.896-0.293-9.015 0.06-3.108 0.436-6.322 0.772-9.583 0.388-3.267 0.658-6.58 0.808-9.9 0.08-1.66 0.1-3.313 0.152-4.966 0.043-1.652 0.104-3.303 0.091-4.931-0.006-3.261 0.081-6.484 0.006-9.592-0.031-1.555-0.002-3.096-0.082-4.588-0.06-1.498-0.119-2.964-0.175-4.391-0.025-0.717-0.049-1.423-0.073-2.118-0.049-0.692-0.097-1.373-0.145-2.043-0.098-1.345-0.191-2.643-0.281-3.89-0.077-1.256-0.189-2.439-0.317-3.562-0.119-1.13-0.232-2.202-0.339-3.209-0.181-2.019-0.465-3.802-0.68-5.27-0.429-2.933-0.673-4.608-0.673-4.608-0.058-0.385 0.209-0.743 0.594-0.8 0.35-0.03 0.66 0.16 0.77 0.45" clip-path="url(#SVGID_4_)"/>
		<path fill="#212121" d="m649.71 964.58s0.031 1.087-0.042 2.952c-0.079 1.863-0.278 4.498-0.684 7.612-0.177 1.552-0.54 3.243-0.892 5.019-0.373 1.776-0.792 3.648-1.279 5.57-0.263 0.96-0.593 1.92-0.909 2.896-0.315 0.978-0.643 1.967-0.999 2.952-0.376 0.982-0.635 2.005-1.132 2.971-0.453 0.976-0.907 1.956-1.361 2.938-0.477 0.969-0.954 1.939-1.428 2.905-0.54 0.937-1.14 1.838-1.705 2.744-1.128 1.816-2.286 3.571-3.611 5.092-1.291 1.542-2.503 3.083-3.801 4.358-1.292 1.287-2.54 2.476-3.71 3.549-1.163 1.085-2.3 1.983-3.314 2.784-1.017 0.795-1.921 1.473-2.682 2.014-1.525 1.08-2.451 1.644-2.451 1.644s0.411-1.011 1.228-2.687c0.407-0.836 0.926-1.833 1.538-2.957 0.62-1.109 1.32-2.36 2.085-3.725 0.76-1.352 1.604-2.79 2.522-4.281 0.475-0.741 0.908-1.516 1.343-2.312 0.433-0.799 0.916-1.58 1.385-2.39 0.443-0.822 1.018-1.588 1.427-2.448 0.425-0.853 0.87-1.704 1.337-2.549 0.462-0.849 0.914-1.709 1.404-2.554 0.41-0.892 0.824-1.786 1.237-2.681 0.865-1.771 1.774-3.511 2.519-5.351 0.773-1.814 1.603-3.573 2.415-5.286 0.729-1.755 1.487-3.438 2.231-5.033 0.735-1.604 1.525-3.069 2.182-4.504 1.356-2.829 2.625-5.145 3.573-6.749 0.95-1.52 1.57-2.42 1.57-2.42" clip-path="url(#SVGID_4_)"/>
	</g>
	<g clip-path="url(#SVGID_2_)">
		<defs>
			<path id="SVGID_5_" d="m246.71 1305.2c0 188.86 153.1 341.97 341.97 341.97 188.86 0 341.97-153.1 341.97-341.97 0-188.86-153.1-341.97-341.97-341.97-188.86 0.02-341.97 153.17-341.97 341.97"/>
		</defs>
		<clipPath id="SVGID_6_">
			<use overflow="visible" xlink:href="#SVGID_5_"/>
		</clipPath>
			<linearGradient id="SVGID_7_" y2="1647.2" gradientUnits="userSpaceOnUse" gradientTransform="matrix(0 683.94 683.94 0 -1.126e6 963.19)" y1="1647.2">
			<stop stop-color="#353535" offset="0"/>
			<stop stop-color="#2E2E2E" offset=".453"/>
			<stop stop-color="#272627" offset="1"/>
		</linearGradient>
		<rect clip-path="url(#SVGID_6_)" height="683.94" width="683.94" y="963.25" x="246.71" fill="url(#SVGID_7_)"/>
	</g>
	<g clip-path="url(#SVGID_2_)">
		<defs>
			<path id="SVGID_8_" d="m662.71 372.25c-306 5.999-539 101-576 244l-85 7 92 60.999c28.001 101 258.07 219 577 219 185.17 0 404-58 335-362-52.12-138.7-202.96-169.02-336.37-169.02-2.21 0-4.42 0.01-6.62 0.02"/>
		</defs>
		<clipPath id="SVGID_9_">
			<use overflow="visible" xlink:href="#SVGID_8_"/>
		</clipPath>
			<linearGradient id="SVGID_10_" y2="1647.2" gradientUnits="userSpaceOnUse" gradientTransform="matrix(0 531.02 531.02 0 -8.7419e5 372.19)" y1="1647.2">
			<stop stop-color="#353535" offset="0"/>
			<stop stop-color="#2E2E2E" offset=".453"/>
			<stop stop-color="#272627" offset="1"/>
		</linearGradient>
		<rect clip-path="url(#SVGID_9_)" height="531.02" width="1073" y="372.23" x="1.711" fill="url(#SVGID_10_)"/>
	</g>
	<g clip-path="url(#SVGID_2_)">
		<defs>
			<rect id="SVGID_11_" y=".002" width="1022.8" height="1647.2"/>
		</defs>
		<clipPath id="SVGID_12_">
			<use overflow="visible" xlink:href="#SVGID_11_"/>
		</clipPath>
		<g opacity=".2" clip-path="url(#SVGID_12_)">
				<defs>
					<rect id="SVGID_13_" y="622.92" x=".044" height="280.49" width="1003.7"/>
				</defs>
				<clipPath id="SVGID_14_">
					<use overflow="visible" xlink:href="#SVGID_13_"/>
				</clipPath>
				<path fill="#000100" d="m0.044 622.92l112.67 18.667c4 82 197 196.67 325 211.67 176 31 410 41 566-116-30 96-125 170-364 166-273-1-520-119-546-219l-92-61" clip-path="url(#SVGID_14_)"/>
		</g>
	</g>
	<g clip-path="url(#SVGID_2_)">
		<defs>
			<path id="SVGID_15_" d="m184.71 491.25c-12.501 150-0.501 235.5 9 298 26.499 18.501 58.5 33.001 121 57.5-30-137.5-34.5-277-13.5-413-62.5 23.5-91.5 40.5-116.5 57.5"/>
		</defs>
		<clipPath id="SVGID_16_">
			<use overflow="visible" xlink:href="#SVGID_15_"/>
		</clipPath>
			<linearGradient id="SVGID_17_" y2="1647.2" gradientUnits="userSpaceOnUse" gradientTransform="matrix(0 -413 -413 0 6.8054e5 846.69)" y1="1647.2">
			<stop stop-color="#E5B132" offset="0"/>
			<stop stop-color="#F1D936" offset="1"/>
		</linearGradient>
		<rect clip-path="url(#SVGID_16_)" height="413" width="142.5" y="433.75" x="172.21" fill="url(#SVGID_17_)"/>
	</g>
	<g clip-path="url(#SVGID_2_)">
		<defs>
			<rect id="SVGID_18_" y=".002" width="1022.8" height="1647.2"/>
		</defs>
		<clipPath id="SVGID_19_">
			<use overflow="visible" xlink:href="#SVGID_18_"/>
		</clipPath>
			<linearGradient id="SVGID_20_" y2="1647.2" gradientUnits="userSpaceOnUse" gradientTransform="matrix(1.8613e-8 -414.58 -414.58 -1.8613e-8 6.8313e5 847.44)" y1="1647.2">
			<stop stop-color="#E5B132" offset="0"/>
			<stop stop-color="#F1D936" offset="1"/>
		</linearGradient>
		<path fill="url(#SVGID_20_)" d="m314.71 846.75c-62.5-24.5-94.5-39-121-57.5-6.583-43.309-14.366-97.663-14.366-176.87 0-35.097 1.528-75.074 5.366-121.13 25-17 54-34 116.5-57.5-8.647 56-12.971 112.59-12.971 169.4 0 81.15 8.82 162.72 26.47 243.6-17.647-80.882-26.471-162.46-26.471-243.6 0-56.803 4.324-113.4 12.971-169.4-62.5 23.5-91.5 40.5-116.5 57.5-3.838 46.058-5.366 86.035-5.366 121.13 0 79.206 7.783 133.56 14.366 176.87 26.5 18.5 58.5 33 121 57.5z" clip-path="url(#SVGID_19_)"/>
	</g>
	<g clip-path="url(#SVGID_2_)">
		<defs>
			<path id="SVGID_21_" d="m418.71 398.25c-44.667 236.67-10.666 379.33 18 480.67 26 6.668 54.667 11.334 121.33 19.334-69.999-207.33-64-339.33-20-518.67-64 5.34-83.33 12.01-119.33 18.67"/>
		</defs>
		<clipPath id="SVGID_22_">
			<use overflow="visible" xlink:href="#SVGID_21_"/>
		</clipPath>
			<linearGradient id="SVGID_23_" y2="1647.2" gradientUnits="userSpaceOnUse" gradientTransform="matrix(0 -518.67 -518.67 0 8.5482e5 898.19)" y1="1647.2">
			<stop stop-color="#E5B132" offset="0"/>
			<stop stop-color="#ECCA34" offset=".5668"/>
			<stop stop-color="#F1D936" offset="1"/>
		</linearGradient>
		<rect clip-path="url(#SVGID_22_)" height="518.67" width="184" y="379.59" x="374.04" fill="url(#SVGID_23_)"/>
	</g>
	<g clip-path="url(#SVGID_2_)">
		<defs>
			<path id="SVGID_24_" d="m695.21 902.25c73-3 101.5-9 132.5-17-35.5-56.5-127.5-253.5-29-502-66.5-9.5-97-9.5-131-10.5-75 246.5-20 429 27.5 529.5"/>
		</defs>
		<clipPath id="SVGID_25_">
			<use overflow="visible" xlink:href="#SVGID_24_"/>
		</clipPath>
			<linearGradient id="SVGID_26_" y2="1647.2" gradientUnits="userSpaceOnUse" gradientTransform="matrix(0 -529.5 -529.5 0 8.7292e5 902.19)" y1="1647.2">
			<stop stop-color="#E5B132" offset="0"/>
			<stop stop-color="#ECCA34" offset=".5668"/>
			<stop stop-color="#F1D936" offset="1"/>
		</linearGradient>
		<rect clip-path="url(#SVGID_25_)" height="529.5" width="235" y="372.75" x="592.71" fill="url(#SVGID_26_)"/>
	</g>
	<g clip-path="url(#SVGID_2_)">
		<defs>
			<rect id="SVGID_27_" y=".002" width="1022.8" height="1647.2"/>
		</defs>
		<clipPath id="SVGID_28_">
			<use overflow="visible" xlink:href="#SVGID_27_"/>
		</clipPath>
		<path fill="#000100" d="m1008.8 594.95c0 47.632-38.614 86.246-86.246 86.246-47.633 0-86.245-38.614-86.245-86.246s38.612-86.246 86.245-86.246c47.6 0 86.26 38.62 86.26 86.25" clip-path="url(#SVGID_28_)"/>
		<g opacity=".05" clip-path="url(#SVGID_28_)">
				<defs>
					<rect id="SVGID_29_" y="373.39" width="985.12" height="268.75"/>
				</defs>
				<clipPath id="SVGID_30_">
					<use overflow="visible" xlink:href="#SVGID_29_"/>
				</clipPath>
				<path fill="#fff" d="m0.044 622.92c37.333-3.333 52-4 86.667-6.667 22.666-106 188-210.67 461.63-237.05 125.04-4.949 329.87-33.449 436.37 118.55-66-72.166-268.67-89.5-409.37-70.553-155.96 22.387-334.63 39.053-462.63 214.39-26-5.334-50-9.334-111-18.334" clip-path="url(#SVGID_30_)"/>
				<path stroke="#fff" fill="none" stroke-miterlimit="10" d="m0.044 622.92c37.333-3.333 52-4 86.667-6.667 22.666-106 188-210.67 461.63-237.05 125.04-4.949 329.87-33.449 436.37 118.55-66-72.166-268.67-89.5-409.37-70.553-155.96 22.387-334.63 39.053-462.63 214.39-26-5.334-50-9.334-111-18.334" clip-path="url(#SVGID_30_)"/>
		</g>
		<path fill="#E2A331" d="m314.71 846.75c-58-20.5-100-43-121-55.5-3.5-18.5-5-29-7-48 34.5 30.5 56.5 42 121.5 70 2.5 17 4.5 22.5 6.5 33.5" clip-path="url(#SVGID_28_)"/>
		<path fill="#E2A331" d="m558.04 898.42c-62-6.167-84.667-8.833-120-16.833-3.333-9.334-4.667-14-8-28.667 39.333 11.333 71.833 13.333 118.67 14.667 2.67 14 5.33 21.33 9.33 30.83" clip-path="url(#SVGID_28_)"/>
		<path fill="#E2A331" d="m827.71 885.25c-59 13.667-96.333 17-132.5 17-3.333-9.333-9.833-17.333-13.167-32 51.334 0.667 82.667-8.667 127.33-19.333 2.67 14 14.34 24.83 18.34 34.33" clip-path="url(#SVGID_28_)"/>
	</g>
	<g clip-path="url(#SVGID_2_)">
		<defs>
			<path id="SVGID_31_" d="m850.26 580.44c0 47.632 38.614 86.245 86.246 86.245 47.633 0 86.246-38.613 86.246-86.245 0-47.633-38.613-86.246-86.246-86.246-47.67 0-86.29 38.62-86.29 86.25"/>
		</defs>
		<clipPath id="SVGID_32_">
			<use overflow="visible" xlink:href="#SVGID_31_"/>
		</clipPath>
			<radialGradient id="SVGID_33_" gradientUnits="userSpaceOnUse" cy="1647.2" cx="0" gradientTransform="matrix(86.246 0 0 -344.98 936.5 5.6883e5)" r="1">
			<stop stop-color="#fff" offset="0"/>
			<stop stop-color="#E3E3E4" offset=".5289"/>
			<stop stop-color="#D0D1D3" offset="1"/>
		</radialGradient>
		<rect clip-path="url(#SVGID_32_)" height="172.49" width="172.49" y="494.19" x="850.26" fill="url(#SVGID_33_)"/>
	</g>
	<g clip-path="url(#SVGID_2_)">
		<defs>
			<rect id="SVGID_34_" y=".002" width="1022.8" height="1647.2"/>
		</defs>
		<clipPath id="SVGID_35_">
			<use overflow="visible" xlink:href="#SVGID_34_"/>
		</clipPath>
		<g opacity=".2" clip-path="url(#SVGID_35_)">
				<defs>
					<rect id="SVGID_36_" y="556.19" x="922.83" height="75" width="59.997"/>
				</defs>
				<clipPath id="SVGID_37_">
					<use overflow="visible" xlink:href="#SVGID_36_"/>
				</clipPath>
				<g clip-path="url(#SVGID_37_)">
					<defs>
						<path id="SVGID_38_" d="m982.82 593.69c0 20.71-13.432 37.498-29.998 37.498-16.568 0-29.999-16.788-29.999-37.498 0-20.709 13.431-37.498 29.999-37.498 16.57 0 30 16.79 30 37.5"/>
					</defs>
					<clipPath id="SVGID_39_">
						<use overflow="visible" xlink:href="#SVGID_38_"/>
					</clipPath>
						<linearGradient id="SVGID_40_" y2="1647.2" gradientUnits="userSpaceOnUse" x2="1.0005" gradientTransform="matrix(0 -74.996 -74.996 0 1.2449e5 631.19)" y1="1647.2" x1=".00048828">
						<stop offset="0"/>
						<stop stop-color="#161616" offset=".1338"/>
						<stop stop-color="#424243" offset="1"/>
					</linearGradient>
					<rect clip-path="url(#SVGID_39_)" height="74.996" width="59.997" y="556.19" x="922.83" fill="url(#SVGID_40_)"/>
				</g>
		</g>
	</g>
	<g clip-path="url(#SVGID_2_)">
		<defs>
			<path id="SVGID_41_" d="m932.33 580.18c0 20.71 13.43 37.498 29.998 37.498s29.999-16.788 29.999-37.498c0-20.709-13.431-37.498-29.999-37.498s-30 16.79-30 37.5"/>
		</defs>
		<clipPath id="SVGID_42_">
			<use overflow="visible" xlink:href="#SVGID_41_"/>
		</clipPath>
			<linearGradient id="SVGID_43_" y2="1647.2" gradientUnits="userSpaceOnUse" x2="1.0005" gradientTransform="matrix(0 -74.996 -74.996 0 1.245e5 617.69)" y1="1647.2" x1=".00048828">
			<stop offset="0"/>
			<stop stop-color="#161616" offset=".1338"/>
			<stop stop-color="#424243" offset="1"/>
		</linearGradient>
		<rect clip-path="url(#SVGID_42_)" height="74.996" width="59.997" y="542.68" x="932.33" fill="url(#SVGID_43_)"/>
	</g>
	<g clip-path="url(#SVGID_2_)">
		<defs>
			<rect id="SVGID_44_" y=".002" width="1022.8" height="1647.2"/>
		</defs>
		<clipPath id="SVGID_45_">
			<use overflow="visible" xlink:href="#SVGID_44_"/>
		</clipPath>
			<path stroke-linejoin="round" d="m808.71 470.75c37-88 41-91 99-141.5" clip-path="url(#SVGID_45_)" stroke="#222221" stroke-linecap="round" stroke-miterlimit="10" stroke-width="22" fill="none"/>
		<path fill="#222221" d="m963.21 314.75c0 18.502-14.998 33.5-33.5 33.5s-33.5-14.998-33.5-33.5c0-18.501 14.998-33.5 33.5-33.5s33.5 15 33.5 33.5" clip-path="url(#SVGID_45_)"/>
		<path fill="#464645" d="m940.21 303.5c0 5.937-4.813 10.75-10.75 10.75s-10.75-4.813-10.75-10.75 4.813-10.75 10.75-10.75c5.94 0 10.75 4.81 10.75 10.75" clip-path="url(#SVGID_45_)"/>
		<path fill="#212121" d="m791.67 381.92l-21.289-2.829 5.007-8.785c25.284-35.445 33.803-47.385 72.156-73.785l11.34 16.474c-35.47 24.41-42.83 34.73-67.22 68.93" clip-path="url(#SVGID_45_)"/>
		<path fill="#222221" d="m883.04 300.67c0 11.828-9.59 21.417-21.418 21.417-11.827 0-21.415-9.589-21.415-21.417s9.588-21.417 21.415-21.417c11.84 0 21.42 9.59 21.42 21.42" clip-path="url(#SVGID_45_)"/>
		<g opacity=".2" clip-path="url(#SVGID_45_)">
				<defs>
					<rect id="SVGID_46_" x="266.13" height="388.75" width="410.58"/>
				</defs>
				<clipPath id="SVGID_47_">
					<use overflow="visible" xlink:href="#SVGID_46_"/>
				</clipPath>
				<path fill="#fff" d="m354.08 32.238c-40.608 31.431-124.28 93.263-70.394 209.75 33.526 47.766 67.924 72.983 170.03 146.77 92.5-17.5 169.5-19 223-17-4.5-18.5-2.801-57.993-35-136.5-36.5-107.5-82.442-173.55-134.02-216.08-48.58-37.668-111.12-12.524-153.62 13.058" clip-path="url(#SVGID_47_)"/>
		</g>
		<g opacity=".1" clip-path="url(#SVGID_45_)">
				<defs>
					<rect id="SVGID_48_" y="34.36" x="283.67" height="336.89" width="382.54"/>
				</defs>
				<clipPath id="SVGID_49_">
					<use overflow="visible" xlink:href="#SVGID_48_"/>
				</clipPath>
				<path fill="#fff" d="m283.67 140.09c43.225-32.504 130.75-94.895 191.12-28.452 83.226 77.449 101.92 133.12 144.92 259.62 19 0 35.271-0.361 46.5 0-37.5-133.5-93.278-288.66-185.02-328.48-73.77-30.863-167.83 28.068-197.52 97.31" clip-path="url(#SVGID_49_)"/>
		</g>
		<g opacity=".2" clip-path="url(#SVGID_45_)">
				<defs>
					<rect id="SVGID_50_" y="150.39" x="93.234" height="386.73" width="536.7"/>
				</defs>
				<clipPath id="SVGID_51_">
					<use overflow="visible" xlink:href="#SVGID_50_"/>
				</clipPath>
				<path fill="#fff" d="m131.25 224.92c-25.333 44.667-78.667 134 16 220.67 29.333 35.333 170 49.333 292.67 78 105.33 18 162 20 186.67-6 24-28.667-86.666-166-146.67-226-71.334-74.667-148-118.67-212-138-59.34-16.01-107.34 31.33-136.67 71.33" clip-path="url(#SVGID_51_)"/>
		</g>
		<g opacity=".1" clip-path="url(#SVGID_45_)">
				<defs>
					<rect id="SVGID_52_" y="185.58" x="107.92" height="348.67" width="509.17"/>
				</defs>
				<clipPath id="SVGID_53_">
					<use overflow="visible" xlink:href="#SVGID_52_"/>
				</clipPath>
				<path fill="#fff" d="m107.92 351.58c27.333-46.667 84-138 165.33-100 106.67 39.333 200 130.67 311.33 282.67 17.134 0 22-4 32.5-8-55.834-131.33-264.5-339.33-364.5-340.67-79.96 0-144 90.67-144.66 166" clip-path="url(#SVGID_53_)"/>
		</g>
		<path fill="#212121" d="m609.7 887.78s0.957 1.226 2.572 3.401c0.801 1.108 1.845 2.329 2.807 4.049 0.509 0.842 1.049 1.736 1.618 2.681 0.55 0.953 1.229 1.962 1.735 3.039 0.527 1.08 1.076 2.205 1.644 3.37 0.543 1.178 1.221 2.378 1.698 3.668 0.526 1.279 1.048 2.606 1.577 3.973 0.259 0.684 0.551 1.373 0.79 2.078 0.228 0.708 0.459 1.423 0.69 2.146 0.449 1.457 0.904 2.938 1.366 4.438 0.39 1.509 0.736 3.05 1.104 4.607 0.18 0.781 0.36 1.564 0.542 2.351 0.137 0.787 0.274 1.577 0.414 2.369 0.265 1.585 0.566 3.187 0.802 4.785 0.406 3.185 1.087 6.403 1.583 9.549 0.244 1.577 0.537 3.161 0.658 4.691 0.134 1.536 0.185 3.057 0.162 4.548-0.12 2.936-0.621 5.787-1.337 8.374-0.693 2.625-1.509 5.03-2.442 7.232-0.892 2.212-1.871 4.161-2.846 5.933-0.925 1.727-1.894 3.252-2.743 4.514-0.813 1.244-1.533 2.25-2.091 2.942-0.529 0.692-0.862 1.07-0.862 1.07l-0.031 0.035c-0.521 0.591-1.422 0.647-2.012 0.127-0.057-0.049-0.111-0.106-0.157-0.162 0 0-0.315-0.382-0.811-1.112-0.525-0.731-1.196-1.814-1.948-3.228-0.716-1.394-1.489-3.091-2.207-5.062-0.692-1.921-1.38-4.141-1.9-6.471-0.562-2.34-0.977-4.855-1.275-7.438-0.283-2.617-0.476-5.267-0.227-8.015 0.104-1.354 0.282-2.729 0.546-4.119 0.291-1.385 0.587-2.784 0.885-4.196 0.684-2.835 1.162-5.693 1.467-8.584 0.126-1.438 0.188-2.866 0.288-4.303 0.046-0.72 0.093-1.437 0.139-2.152 0.02-0.711 0.04-1.42 0.06-2.126 0.04-1.416 0.063-2.825 0.132-4.229-0.02-1.393-0.039-2.769-0.059-4.12-0.001-0.685-0.002-1.362-0.004-2.034-0.012-0.671-0.077-1.322-0.113-1.978-0.088-1.306-0.169-2.592-0.229-3.856-0.026-1.276-0.259-2.461-0.378-3.648-0.146-1.186-0.287-2.332-0.422-3.433-0.339-2.164-0.721-4.118-1.034-5.916-0.154-0.894-0.301-1.739-0.544-2.527-0.203-0.791-0.39-1.518-0.558-2.174-0.679-2.623-1.032-4.138-1.032-4.138-0.142-0.605 0.234-1.211 0.841-1.354 0.43-0.1 0.87 0.07 1.13 0.41" clip-path="url(#SVGID_45_)"/>
		<path fill="#212121" d="m834.68 876.74s1.251 1.644 3.383 4.55c1.07 1.454 2.284 3.323 3.706 5.453 0.729 1.063 1.396 2.224 2.16 3.437 0.744 1.22 1.564 2.49 2.33 3.859 1.505 2.748 3.228 5.709 4.813 8.955 1.699 3.206 3.204 6.708 4.845 10.327 0.767 1.826 1.484 3.707 2.247 5.607 0.792 1.893 1.442 3.853 2.113 5.831 1.431 3.936 2.536 8.031 3.727 12.129 0.568 2.053 1.061 4.124 1.691 6.172 0.302 1.028 0.602 2.055 0.9 3.078 0.271 1.03 0.542 2.058 0.811 3.081 0.516 2.054 1.077 4.095 1.495 6.131 0.363 2.041 0.641 4.069 0.838 6.071 0.092 1.002 0.162 1.996 0.206 2.982 0.005 0.987-0.004 1.967-0.041 2.936-0.062 1.937-0.219 3.832-0.393 5.671-0.427 3.678-1.123 7.135-1.875 10.293-0.806 3.156-1.82 6.01-2.766 8.51-0.903 2.504-2.064 4.631-2.982 6.371-0.944 1.737-1.764 3.077-2.388 3.98-0.598 0.904-0.965 1.378-0.965 1.378-0.438 0.563-1.248 0.664-1.811 0.227-0.153-0.119-0.271-0.265-0.354-0.427l-0.021-0.043s-0.277-0.542-0.702-1.539c-0.454-1-1.021-2.45-1.647-4.265-0.325-0.908-0.627-1.905-0.964-2.984-0.295-1.076-0.673-2.238-1.034-3.469-0.733-2.462-1.41-5.204-2.025-8.157-0.755-2.955-1.296-6.123-1.849-9.447-0.301-1.661-0.588-3.361-0.784-5.1-0.104-0.869-0.179-1.748-0.243-2.635-0.093-0.886-0.174-1.779-0.229-2.684-0.099-1.808-0.121-3.651-0.063-5.532 0.011-1.874 0.063-3.78 0.116-5.713 0.033-0.969 0.065-1.94 0.099-2.916-0.017-0.972-0.035-1.945-0.052-2.923-0.03-1.957-0.116-3.923-0.28-5.877-0.21-1.952-0.421-3.903-0.631-5.847-0.091-0.979-0.217-1.947-0.366-2.909-0.134-0.967-0.268-1.931-0.4-2.891-0.255-1.928-0.531-3.838-0.863-5.716-0.321-1.88-0.607-3.753-0.946-5.583-0.359-1.83-0.713-3.631-1.059-5.393-0.319-1.777-0.782-3.468-1.136-5.155-0.707-3.376-1.609-6.5-2.367-9.431-0.852-2.887-1.586-5.59-2.327-7.931-0.778-2.324-1.399-4.377-1.984-6.082-1.214-3.394-1.875-5.351-1.875-5.351-0.196-0.583 0.116-1.216 0.699-1.413 0.44-0.3 0.94-0.13 1.22 0.24" clip-path="url(#SVGID_45_)"/>
		<path fill="#212121" d="m861.38 990.92s-0.415 2.139-1.396 5.752c-0.449 1.813-1.199 3.968-2.059 6.455-0.842 2.51-1.972 5.222-3.241 8.181-1.239 2.981-2.851 6.054-4.508 9.355-0.86 1.629-1.828 3.248-2.775 4.938-0.478 0.841-0.96 1.694-1.467 2.54-0.527 0.834-1.059 1.675-1.595 2.523-1.085 1.688-2.184 3.415-3.353 5.118-1.194 1.685-2.41 3.388-3.657 5.089-0.61 0.861-1.257 1.699-1.92 2.527-0.66 0.83-1.323 1.664-1.987 2.498-1.329 1.67-2.682 3.331-4.107 4.931-1.422 1.602-2.831 3.215-4.276 4.781-1.473 1.545-2.964 3.059-4.444 4.559-1.465 1.514-3.012 2.926-4.529 4.326-1.536 1.385-3.007 2.795-4.561 4.069-3.082 2.578-6.086 5.028-9.082 7.174-1.501 1.068-2.926 2.143-4.361 3.111-1.46 0.941-2.853 1.865-4.215 2.718-1.378 0.832-2.64 1.695-3.938 2.393-1.289 0.708-2.492 1.398-3.65 2.008-1.159 0.607-2.225 1.195-3.239 1.698-1.028 0.483-1.969 0.93-2.834 1.308-3.435 1.547-5.472 2.281-5.472 2.281s1.332-1.746 3.792-4.538c0.608-0.707 1.302-1.459 2.047-2.288 0.718-0.862 1.526-1.751 2.369-2.72 1.702-1.921 3.666-4.01 5.723-6.369 1.05-1.149 2.145-2.346 3.276-3.583 1.116-1.246 2.27-2.534 3.456-3.858 2.426-2.579 4.849-5.425 7.455-8.248 1.309-1.406 2.564-2.908 3.891-4.37 1.315-1.473 2.678-2.931 3.983-4.464 1.328-1.512 2.665-3.035 4.033-4.538 1.331-1.538 2.668-3.081 4.005-4.624 1.374-1.511 2.671-3.087 3.997-4.629 1.303-1.561 2.69-3.044 3.952-4.607 1.286-1.545 2.583-3.063 3.87-4.561 1.267-1.516 2.518-3.014 3.747-4.487 0.623-0.732 1.242-1.459 1.855-2.178 0.599-0.73 1.192-1.454 1.779-2.169 1.191-1.422 2.332-2.834 3.492-4.178 1.122-1.369 2.188-2.722 3.271-4.001 0.541-0.643 1.071-1.272 1.594-1.891 0.507-0.631 1.004-1.248 1.491-1.854 1.968-2.415 3.846-4.606 5.427-6.584 1.612-1.972 3.104-3.657 4.278-5.125 2.38-2.68 3.89-4.26 3.89-4.26" clip-path="url(#SVGID_45_)"/>
		<path fill="#212121" d="m377.1 855.82s-0.634 1.972-1.807 5.387c-0.562 1.716-1.156 3.777-1.905 6.11-0.712 2.351-1.411 5.065-2.229 7.959-0.724 2.94-1.588 6.072-2.255 9.453-0.334 1.69-0.778 3.384-1.077 5.163-0.326 1.762-0.659 3.563-0.998 5.396-0.319 1.83-0.586 3.703-0.887 5.583-0.311 1.876-0.57 3.783-0.806 5.709-0.124 0.959-0.248 1.921-0.373 2.887-0.14 0.96-0.257 1.928-0.34 2.904-0.193 1.938-0.386 3.886-0.579 5.834-0.146 1.949-0.214 3.911-0.216 5.863-0.005 0.975-0.009 1.946-0.014 2.916 0.047 0.973 0.094 1.942 0.141 2.908 0.079 1.926 0.158 3.827 0.189 5.694 0.07 1.873 0.077 3.71-0.028 5.508-0.053 0.899-0.135 1.788-0.229 2.669-0.066 0.883-0.146 1.757-0.256 2.621-0.207 1.729-0.515 3.421-0.837 5.074-0.334 1.652-0.581 3.271-0.92 4.84-0.339 1.571-0.693 3.095-1.086 4.568-0.705 2.944-1.441 5.682-2.255 8.142-0.41 1.239-0.794 2.397-1.149 3.469-0.376 1.08-0.713 2.077-1.076 2.988-0.697 1.818-1.328 3.272-1.831 4.278-0.472 1.001-0.778 1.546-0.778 1.546l-0.022 0.04c-0.39 0.694-1.271 0.942-1.966 0.553-0.154-0.087-0.289-0.201-0.397-0.328 0 0-0.397-0.469-1.04-1.371-0.673-0.897-1.556-2.232-2.572-3.967-0.989-1.736-2.23-3.861-3.208-6.367-1.028-2.502-2.101-5.361-2.997-8.525-0.795-3.168-1.565-6.638-2.031-10.331-0.196-1.849-0.373-3.752-0.447-5.698-0.043-0.973-0.056-1.956-0.054-2.949 0.042-0.991 0.113-1.99 0.206-2.995 0.19-2.012 0.498-4.048 0.872-6.096 0.438-2.043 1.028-4.09 1.568-6.15 0.284-1.025 0.568-2.056 0.854-3.089 0.311-1.024 0.624-2.054 0.938-3.085 0.658-2.052 1.168-4.127 1.756-6.185 1.226-4.107 2.363-8.211 3.832-12.152 0.69-1.98 1.358-3.942 2.171-5.835 0.782-1.901 1.519-3.782 2.306-5.608 1.682-3.618 3.224-7.117 4.965-10.317 1.625-3.241 3.385-6.194 4.924-8.935 0.781-1.364 1.621-2.63 2.381-3.844 0.782-1.209 1.463-2.363 2.208-3.423 1.451-2.12 2.692-3.982 3.785-5.425 2.173-2.883 3.451-4.513 3.451-4.513 0.415-0.529 1.181-0.622 1.711-0.206 0.45 0.31 0.6 0.84 0.44 1.32" clip-path="url(#SVGID_45_)"/>
		<path fill="#212121" d="m348.38 968.92s1.504 1.577 3.882 4.469c1.173 1.468 2.666 3.153 4.278 5.125 1.581 1.978 3.459 4.169 5.427 6.584 0.487 0.606 0.984 1.224 1.491 1.854 0.522 0.618 1.053 1.248 1.594 1.891 1.083 1.279 2.149 2.632 3.271 4.001 1.16 1.344 2.301 2.756 3.492 4.178 0.587 0.715 1.181 1.438 1.78 2.169 0.613 0.719 1.232 1.445 1.855 2.178 1.23 1.474 2.481 2.972 3.747 4.487 1.287 1.497 2.584 3.016 3.87 4.561 1.262 1.563 2.65 3.047 3.953 4.607 1.326 1.542 2.623 3.118 3.997 4.629 1.336 1.543 2.673 3.086 4.004 4.624 1.369 1.503 2.706 3.026 4.034 4.538 1.305 1.533 2.668 2.991 3.983 4.464 1.326 1.462 2.582 2.964 3.891 4.37 2.606 2.823 5.029 5.669 7.455 8.248 1.186 1.324 2.34 2.612 3.456 3.858 1.132 1.237 2.226 2.434 3.276 3.583 2.057 2.359 4.021 4.448 5.723 6.369 0.843 0.969 1.651 1.857 2.369 2.72 0.745 0.829 1.439 1.581 2.046 2.288 2.461 2.792 3.793 4.538 3.793 4.538s-2.037-0.734-5.472-2.281c-0.865-0.378-1.806-0.824-2.834-1.308-1.014-0.503-2.08-1.091-3.239-1.698-1.158-0.609-2.361-1.3-3.65-2.008-1.298-0.697-2.56-1.561-3.938-2.393-1.362-0.853-2.755-1.776-4.215-2.718-1.435-0.969-2.86-2.043-4.361-3.111-2.996-2.146-6-4.596-9.082-7.174-1.554-1.274-3.025-2.685-4.561-4.069-1.517-1.4-3.064-2.813-4.529-4.326-1.48-1.5-2.972-3.014-4.444-4.559-1.446-1.566-2.855-3.18-4.277-4.781-1.425-1.6-2.778-3.261-4.107-4.931-0.664-0.834-1.327-1.668-1.987-2.498-0.664-0.828-1.31-1.666-1.92-2.527-1.247-1.701-2.463-3.404-3.658-5.089-1.169-1.703-2.267-3.43-3.352-5.118-0.536-0.849-1.068-1.689-1.595-2.523-0.507-0.846-0.989-1.699-1.467-2.54-0.947-1.689-1.915-3.309-2.775-4.938-1.657-3.302-3.269-6.374-4.508-9.355-1.269-2.959-2.399-5.671-3.241-8.181-0.859-2.487-1.609-4.642-2.059-6.455-0.96-3.7-1.37-5.84-1.37-5.84" clip-path="url(#SVGID_45_)"/>
		<path fill="#212121" d="m618.71 975.58s0.294 1.166 0.533 3.123c0.247 1.961 0.448 4.716 0.398 7.936-0.004 1.594-0.188 3.376-0.401 5.215-0.227 1.846-0.531 3.784-0.917 5.772-0.471 1.982-1.06 4.018-1.716 6.063-0.591 2.049-1.541 4.093-2.496 6.111-0.49 1.004-0.975 2.011-1.492 2.994-0.579 0.961-1.202 1.893-1.812 2.817-0.618 0.921-1.246 1.823-1.88 2.702-0.62 0.892-1.368 1.639-2.054 2.424-0.7 0.772-1.396 1.52-2.099 2.231-0.694 0.719-1.384 1.413-2.11 1.998-1.424 1.216-2.843 2.294-4.159 3.269-1.321 0.981-2.608 1.754-3.774 2.433-1.169 0.673-2.219 1.229-3.111 1.658-1.775 0.87-2.91 1.254-2.91 1.254s0.203-1.19 0.769-3.077c0.275-0.947 0.648-2.064 1.108-3.313 0.456-1.246 1.047-2.607 1.625-4.076 0.614-1.45 1.286-2.998 2.074-4.56 0.414-0.777 0.755-1.59 1.132-2.397 0.372-0.812 0.771-1.622 1.187-2.435 0.39-0.823 0.902-1.604 1.254-2.456 0.378-0.839 0.773-1.676 1.188-2.508 0.418-0.829 0.846-1.657 1.296-2.479 0.369-0.874 0.775-1.73 1.175-2.592 0.817-1.714 1.747-3.356 2.517-5.147 0.813-1.748 1.702-3.434 2.605-5.072 0.832-1.688 1.704-3.307 2.596-4.83 0.873-1.541 1.842-2.916 2.67-4.309 1.713-2.723 3.383-4.92 4.658-6.426 1.26-1.41 2.14-2.23 2.14-2.23" clip-path="url(#SVGID_45_)"/>
	</g>
	<g clip-path="url(#SVGID_2_)">
		<defs>
			<path id="SVGID_54_" d="m476.05 1171.2c-21.669 1.521-47.983 31.164-38.696 60.047-3.427 7.768-8.968 21.115-15.481 38.911-1.243 2.2-1.953 4.73-1.953 7.425 0 8.465 6.987 15.326 15.605 15.326 7.368 0 13.538-5.016 15.176-11.759 9.136-24.654 17.276-42.733 17.61-43.063 1.548-3.8 2.322-9.121 0-12.922-5.417-10.64 5.418-21.282 10.061-23.563 3.87 0.762 14.705 5.321 23.218 9.882 3.097 1.521 7.74 2.28 11.61 1.521 0 0 30.183-6.84 75.844-6.84 27.088 0 54.949 2.279 81.263 6.84 3.869 0.76 6.966 0 10.062-1.521 8.513-4.561 20.122-9.12 23.992-9.882 2.321 0.762 8.514 5.321 10.835 11.402 3.87 8.361-4.644 15.962-0.774 25.083 0.774 0.76 43.34 96.532 43.34 148.98 0 6.841-3.87 9.881-10.061 9.881-7.739 0-17.026-5.32-25.539-14.441-15.479-17.481-46.438-56.247-46.438-57.007-3.095-3.801-7.738-6.081-12.383-6.081-1.547 0-3.095 0-4.643 0.76-20.122 6.081-41.792 8.361-65.01 8.361-39.471 0-69.653-8.361-69.653-8.361-6.192-1.52-13.157 0-17.027 5.321 0 0.76-30.958 39.525-46.436 57.007-8.513 9.121-17.8 14.441-25.539 14.441-6.192 0-10.061-3.801-10.061-9.881 0-15.563 3.748-34.942 9.04-54.521-0.018-0.002-0.035-0.004-0.052-0.006 0.383-1.323 0.593-2.718 0.593-4.162 0-8.374-6.912-15.163-15.439-15.163-7.692 0-14.067 5.524-15.243 12.753-0.011-0.003-0.02-0.006-0.03-0.009-5.74 21.601-9.827 43.268-9.827 61.108 0 22.803 17.801 41.045 41.019 41.045 17.026 0 34.052-9.121 48.757-25.844 11.608-12.921 31.731-37.243 41.792-50.166 13.157 3.04 37.923 6.842 68.106 6.842 22.443 0 43.34-2.281 63.462-6.842 10.061 12.923 30.183 37.245 41.792 50.166 14.705 16.723 31.731 25.844 48.758 25.844 23.218 0 41.018-17.482 41.018-41.045 0-51.687-33.278-133.02-43.34-155.82 9.287-28.883-17.026-60.047-40.244-60.047-10.836 0-25.54 6.081-34.053 10.641-26.314-4.56-54.949-6.08-82.037-6.08-37.922 0-65.783 3.8-77.392 6.08-8.807-4.324-23.183-10.699-33.885-10.7-0.58 0.2-1.15 0.2-1.71 0.2"/>
		</defs>
		<clipPath id="SVGID_55_">
			<use overflow="visible" xlink:href="#SVGID_54_"/>
		</clipPath>
			<linearGradient id="SVGID_56_" y2="1647.2" gradientUnits="userSpaceOnUse" gradientTransform="matrix(0 256.97 256.97 0 -4.2269e5 1171.2)" y1="1647.2">
			<stop stop-color="#71B564" offset="0"/>
			<stop stop-color="#4F68AE" offset="1"/>
		</linearGradient>
		<rect clip-path="url(#SVGID_55_)" height="256.97" width="394.7" y="1171.2" x="394.02" fill="url(#SVGID_56_)"/>
	</g>
	<g clip-path="url(#SVGID_2_)">
		<defs>
			<path id="SVGID_57_" d="m620 1248c0 11.401 10.062 21.282 21.67 21.282 11.609 0 21.669-9.881 21.669-21.282 0-11.402-10.06-21.284-21.669-21.284-11.61 0-21.67 9.9-21.67 21.3"/>
		</defs>
		<clipPath id="SVGID_58_">
			<use overflow="visible" xlink:href="#SVGID_57_"/>
		</clipPath>
			<linearGradient id="SVGID_59_" y2="1647.2" gradientUnits="userSpaceOnUse" x2=".9995" gradientTransform="matrix(0 42.565 42.565 0 -69471 1226.7)" y1="1647.2" x1="-.00048828">
			<stop stop-color="#71B564" offset="0"/>
			<stop stop-color="#4F68AE" offset="1"/>
		</linearGradient>
		<rect clip-path="url(#SVGID_58_)" height="42.566" width="43.339" y="1226.7" x="620" fill="url(#SVGID_59_)"/>
	</g>
	<g clip-path="url(#SVGID_2_)">
		<defs>
			<path id="SVGID_60_" d="m664.12 1281.4c0 11.401 10.061 20.521 21.67 20.521s21.671-9.12 21.671-20.521c0-11.402-10.062-21.284-21.671-21.284s-21.67 9.9-21.67 21.3"/>
		</defs>
		<clipPath id="SVGID_61_">
			<use overflow="visible" xlink:href="#SVGID_60_"/>
		</clipPath>
			<linearGradient id="SVGID_62_" y2="1647.2" gradientUnits="userSpaceOnUse" x2=".999" gradientTransform="matrix(0 41.805 41.805 0 -68175 1260.2)" y1="1647.2" x1="-.00097656">
			<stop stop-color="#71B564" offset="0"/>
			<stop stop-color="#4F68AE" offset="1"/>
		</linearGradient>
		<rect clip-path="url(#SVGID_61_)" height="41.806" width="43.341" y="1260.2" x="664.12" fill="url(#SVGID_62_)"/>
	</g>
	<g clip-path="url(#SVGID_2_)">
		<defs>
			<path id="SVGID_63_" d="m506.24 1240.4v12.922h-12.383c-5.418 0-10.061 3.8-10.061 9.121 0 5.32 4.643 9.881 10.061 9.881h12.383v12.162c0 5.32 4.644 9.881 10.061 9.881 5.418 0 9.287-4.561 9.287-9.881v-12.162h13.157c5.418 0 9.287-4.561 9.287-9.881 0-5.321-3.869-9.121-9.287-9.121h-13.157v-12.922c0-5.321-3.869-9.121-9.287-9.121-5.42 0-10.06 3.8-10.06 9.1"/>
		</defs>
		<clipPath id="SVGID_64_">
			<use overflow="visible" xlink:href="#SVGID_63_"/>
		</clipPath>
			<linearGradient id="SVGID_65_" y2="1647.2" gradientUnits="userSpaceOnUse" gradientTransform="matrix(0 63.088 63.088 0 -1.034e5 1231.3)" y1="1647.2">
			<stop stop-color="#71B564" offset="0"/>
			<stop stop-color="#4F68AE" offset="1"/>
		</linearGradient>
		<rect clip-path="url(#SVGID_64_)" height="63.088" width="64.236" y="1231.3" x="483.79" fill="url(#SVGID_65_)"/>
	</g>
</svg>
