<?xml version="1.0" encoding="utf-8"?>
<!-- Generator: Adobe Illustrator 16.0.0, SVG Export Plug-In . SVG Version: 6.00 Build 0)  -->
<!DOCTYPE svg PUBLIC "-//W3C//DTD SVG 1.1//EN" "http://www.w3.org/Graphics/SVG/1.1/DTD/svg11.dtd">
<svg version="1.1" id="Слой_1" xmlns="http://www.w3.org/2000/svg" xmlns:xlink="http://www.w3.org/1999/xlink" x="0px" y="0px"
	 width="207.5px" height="8px" viewBox="0 0 207.5 8" enable-background="new 0 0 207.5 8" xml:space="preserve">
<g>
	<defs>
		<rect id="SVGID_1_" width="207.5" height="8"/>
	</defs>
	<clipPath id="SVGID_2_">
		<use xlink:href="#SVGID_1_"  overflow="visible"/>
	</clipPath>
	<path clip-path="url(#SVGID_2_)" fill="#595A5A" d="M7.5,4.25C7.5,6.321,5.821,8,3.75,8S0,6.321,0,4.25C0,2.179,1.679,0.5,3.75,0.5
		S7.5,2.179,7.5,4.25"/>
	<path clip-path="url(#SVGID_2_)" fill="#595A5A" d="M27.417,4.167c0,2.071-1.679,3.75-3.75,3.75c-2.071,0-3.75-1.68-3.75-3.75
		s1.679-3.75,3.75-3.75C25.738,0.417,27.417,2.096,27.417,4.167"/>
	<path clip-path="url(#SVGID_2_)" fill="#595A5A" d="M47.5,4.083c0,2.071-1.679,3.75-3.75,3.75S40,6.154,40,4.083
		c0-2.071,1.679-3.75,3.75-3.75S47.5,2.012,47.5,4.083"/>
	<path clip-path="url(#SVGID_2_)" fill="#595A5A" d="M67.417,4c0,2.071-1.679,3.75-3.75,3.75c-2.071,0-3.75-1.679-3.75-3.75
		c0-2.071,1.679-3.75,3.75-3.75C65.738,0.25,67.417,1.929,67.417,4"/>
	<path clip-path="url(#SVGID_2_)" fill="#595A5A" d="M87.667,4c0,2.071-1.679,3.75-3.75,3.75c-2.071,0-3.75-1.679-3.75-3.75
		c0-2.071,1.679-3.75,3.75-3.75C85.988,0.25,87.667,1.929,87.667,4"/>
	<path clip-path="url(#SVGID_2_)" fill="#595A5A" d="M107.583,3.917c0,2.071-1.679,3.75-3.75,3.75c-2.071,0-3.75-1.68-3.75-3.75
		s1.679-3.75,3.75-3.75C105.904,0.167,107.583,1.846,107.583,3.917"/>
	<path clip-path="url(#SVGID_2_)" fill="#595A5A" d="M127.667,3.833c0,2.071-1.68,3.75-3.75,3.75c-2.071,0-3.75-1.679-3.75-3.75
		c0-2.071,1.679-3.75,3.75-3.75C125.987,0.083,127.667,1.762,127.667,3.833"/>
	<path clip-path="url(#SVGID_2_)" fill="#595A5A" d="M147.583,3.75c0,2.071-1.679,3.75-3.75,3.75c-2.07,0-3.75-1.679-3.75-3.75
		c0-2.071,1.68-3.75,3.75-3.75C145.904,0,147.583,1.679,147.583,3.75"/>
	<path clip-path="url(#SVGID_2_)" fill="#595A5A" d="M167.5,3.917c0,2.071-1.679,3.75-3.75,3.75S160,5.987,160,3.917
		s1.679-3.75,3.75-3.75S167.5,1.846,167.5,3.917"/>
	<path clip-path="url(#SVGID_2_)" fill="#595A5A" d="M187.417,3.833c0,2.071-1.68,3.75-3.75,3.75c-2.071,0-3.75-1.679-3.75-3.75
		c0-2.071,1.679-3.75,3.75-3.75C185.737,0.083,187.417,1.762,187.417,3.833"/>
	<path clip-path="url(#SVGID_2_)" fill="#595A5A" d="M207.5,3.75c0,2.071-1.679,3.75-3.75,3.75S200,5.821,200,3.75
		c0-2.071,1.679-3.75,3.75-3.75S207.5,1.679,207.5,3.75"/>
</g>
</svg>
