<?xml version="1.0" encoding="utf-8"?>
<!-- Generator: Adobe Illustrator 16.0.0, SVG Export Plug-In . SVG Version: 6.00 Build 0)  -->
<!DOCTYPE svg PUBLIC "-//W3C//DTD SVG 1.1//EN" "http://www.w3.org/Graphics/SVG/1.1/DTD/svg11.dtd">
<svg version="1.1" id="Слой_1" xmlns="http://www.w3.org/2000/svg" xmlns:xlink="http://www.w3.org/1999/xlink" x="0px" y="0px"
	 width="50.208px" height="50.208px" viewBox="0 0 50.208 50.208" enable-background="new 0 0 50.208 50.208" xml:space="preserve">
<path fill="#595A5A" d="M25.104,50.208c-5.749,0-11.158-1.891-15.644-5.469c-0.781-0.624-0.91-1.764-0.287-2.546
	c0.624-0.782,1.765-0.909,2.547-0.287c3.836,3.062,8.465,4.679,13.384,4.679c11.845,0,21.48-9.635,21.48-21.48
	c0-11.845-9.636-21.481-21.48-21.481S3.623,13.259,3.623,25.104c0,3.809,1.009,7.55,2.918,10.816
	c0.505,0.865,0.213,1.974-0.649,2.479c-0.864,0.504-1.974,0.213-2.479-0.65C1.181,33.927,0,29.554,0,25.104
	C0,11.262,11.262,0,25.104,0c13.842,0,25.104,11.262,25.104,25.104C50.208,38.947,38.946,50.208,25.104,50.208"/>
<path fill="#785A43" d="M26.005,37.272h-2.36v-2.775h2.36V37.272z M25.806,29.327h-1.978V13.07h1.978V29.327z"/>
<path fill="#785A43" d="M26.005,38.825h-2.36c-0.857,0-1.553-0.695-1.553-1.553v-2.775c0-0.857,0.695-1.553,1.553-1.553h2.36
	c0.858,0,1.553,0.695,1.553,1.553v2.775C27.558,38.129,26.863,38.825,26.005,38.825 M25.806,30.879h-1.978
	c-0.858,0-1.553-0.695-1.553-1.553V13.07c0-0.858,0.694-1.553,1.553-1.553h1.978c0.857,0,1.554,0.695,1.554,1.553v16.256
	C27.359,30.184,26.663,30.879,25.806,30.879"/>
</svg>
