<svg width="100" height="86" viewBox="0 0 100 86" fill="none" xmlns="http://www.w3.org/2000/svg">
<path d="M8.03535 65.9166C8.12578 65.8262 8.2162 65.7358 8.30663 65.7358L8.03535 65.9166Z" fill="white"/>
<path d="M89.7703 37.3469C91.393 41.4959 92.2212 45.9129 92.2117 50.368C90.5462 54.8093 88.2959 59.0087 85.5203 62.8551C85.5203 62.8551 81.3608 57.9722 78.6309 58.2435C77.817 60.1424 77.1841 67.3763 74.2001 67.0146C71.2161 66.6529 72.2107 62.7647 66.7853 60.9562C67.2159 68.8231 64.9768 72.8018 62.9875 72.8922C61.0885 72.9826 55.0301 63.8498 52.9504 65.8391C53.5833 67.3763 51.7749 76.4188 46.1686 78.3263C40.9239 76.5178 38.4825 71.5445 36.041 68.7413C32.6953 70.6402 37.3974 79.9367 32.2432 80.406C27.0761 80.7677 26.9082 71.6349 24.8284 69.103C22.5678 68.9222 20.3976 77.9646 19.5838 77.8742C17.3898 75.2187 16.2617 71.8422 16.419 68.4011C13.2541 68.582 12.802 75.3638 11.3552 75.4542C9.90842 75.5447 8.73291 65.4171 8.73291 65.4171C7.42596 57.9281 8.37002 50.2198 11.4456 43.2675C6.02018 38.9272 5.84795 35.491 4.12558 33.6825C4.12558 33.5921 4.03516 33.5017 4.03516 33.4113C2.67698 30.078 2.67698 26.3457 4.03516 23.0125C4.03516 23.0125 8.2851 28.4379 11.8116 26.7199C12.4446 26.1773 8.91807 16.5924 15.0669 15.236C21.2158 13.8796 20.7636 20.8337 23.7476 22.1987C25.47 21.0231 21.487 10.2627 28.721 9.99139C34.8698 9.81054 34.4177 14.9647 35.2315 17.0445C43.1889 12.7041 41.1091 7.73078 45.7207 7.73078C50.3324 7.73078 52.6834 13.6084 53.6781 17.0445C56.4812 13.1692 56.9333 7.57146 62.8109 5.84909C70.8587 6.48206 71.1299 14.9819 72.4863 15.8862C79.7203 13.8064 77.0979 8.29055 81.4383 8.29055C85.417 8.56182 84.6936 16.1575 85.5978 16.7C91.1137 12.7213 89.4732 8.92352 91.4754 9.01394C94.9201 9.19479 95.9062 8.38097 96.1775 21.1308C96.3885 33.351 88.233 35.9905 89.7703 37.3469Z" fill="white"/>
<path d="M16.1735 45.1191C17.5299 44.8478 20.8756 51.2679 23.4075 52.1721C22.5937 56.6934 24.8543 58.321 24.8543 58.321C24.8543 58.321 24.7638 43.5818 27.1149 41.3212C29.5563 42.3159 30.6414 46.9189 34.5296 49.7307C34.4705 52.3977 34.6826 55.0639 35.1626 57.688C36.4286 57.9593 38.3275 43.7627 38.6892 39.6936C40.6785 37.8851 51.0773 48.0126 51.6069 56.3317C54.1388 56.5125 57.1228 42.0446 56.942 38.6085C55.5856 35.3532 64.7184 42.3159 66.1652 56.6934C66.6973 54.2823 66.6973 51.7843 66.1652 49.3733C68.9019 44.4876 71.0567 39.298 72.5853 33.9108C72.5853 30.5651 78.2821 38.7937 78.2821 54.7945C79.5205 50.914 79.9212 46.8148 79.4576 42.768C82.6151 38.8214 84.9239 34.2654 86.2394 29.3852C87.6862 27.5768 88.8617 35.082 88.8617 35.082C88.8617 35.082 89.8564 26.9438 85.3352 23.4172C84.0692 26.6725 83.5267 33.9969 79.7375 37.433C78.6868 31.604 76.2006 26.1285 72.5035 21.5011C71.2376 25.8415 67.0781 41.1189 65.36 41.0284C63.642 40.938 60.658 28.5413 54.69 24.8425C54.5091 30.0096 54.2594 43.6507 51.6155 43.6507C49.8932 39.8529 41.1263 23.6713 36.5147 22.8575C36.4466 29.8261 35.6281 36.7671 34.0732 43.5603C30.7275 43.289 26.2063 29.0924 24.0361 26.5605C23.3128 29.002 24.3074 47.6251 22.7702 47.6251C21.233 47.6251 13.8182 33.1572 13.8182 33.1572C12.4766 40.868 12.9095 48.7831 15.0841 56.3015C15.631 50.0924 14.8172 45.3903 16.1735 45.1191Z" fill="#010101"/>
<path d="M0.00480748 21.7035C0.0414278 22.4334 0.229096 23.1479 0.555949 23.8016C0.882803 24.4553 1.34173 25.034 1.90372 25.5013C1.90372 25.5013 1.72287 18.7195 3.53135 18.3578C5.15899 18.9908 8.77596 23.3311 9.40893 23.1503C10.0419 22.879 7.87172 14.3791 14.8344 12.7515C16.1038 12.3604 17.4557 12.3221 18.7452 12.6407C20.0347 12.9593 21.2132 13.6228 22.1544 14.56C22.1544 14.56 22.585 7.41646 28.9363 7.23991C30.6538 7.11584 32.3675 7.52754 33.8413 8.41827C35.315 9.309 36.4763 10.6349 37.1649 12.2133C37.1649 12.2133 41.7765 4.89319 46.7498 4.89319C51.6327 4.89319 54.255 10.4909 54.255 10.4909C54.255 10.4909 57.5103 2.98567 63.5687 2.7144C69.6272 2.44313 74.3335 11.576 74.3335 11.576C74.3335 11.576 77.3175 5.15585 81.9292 5.42712C86.5408 5.6984 87.2642 11.1239 87.2642 11.1239C87.2642 11.1239 88.5301 6.4218 92.6897 6.4218C96.7588 6.4218 98.2055 12.2994 98.2055 14.1078C98.7525 12.9761 99.0249 11.7313 99.0007 10.4745C98.9764 9.21774 98.6562 7.98437 98.0661 6.87451C97.4759 5.76466 96.6324 4.80957 95.604 4.08676C94.5756 3.36395 93.3912 2.89378 92.1471 2.7144C88.8918 2.17186 87.9876 3.79949 86.9025 3.70906C83.2471 1.2404 78.925 -0.0530817 74.5144 0.00166899C73.2484 3.16652 72.4346 2.62398 71.1687 2.62398C67.4295 0.888045 63.3552 -0.00707061 59.2327 0.00166899C51.6371 0.182517 52.7221 1.53888 47.2063 1.08676C42.8058 1.01463 38.4464 1.94217 34.4564 3.79949C31.4724 4.79415 27.2225 3.16652 22.43 6.87391C17.6375 10.5813 16.1907 7.41646 7.87172 11.9377C-0.464539 16.278 0.00480748 21.7035 0.00480748 21.7035Z" fill="#FF0000"/>
<path d="M13.3704 77.491C13.3297 75.7661 13.8712 74.0779 14.9076 72.6985C15.3382 72.4272 16.1735 79.2994 19.7 79.2994C22.4128 79.2994 23.6787 73.7017 23.6787 73.7017C23.6787 73.7017 27.6574 83.0154 31.9073 82.292C36.1573 81.5687 37.9657 74.2443 37.9657 74.2443C37.9657 74.2443 41.9444 80.7548 45.9231 80.2123C49.7984 79.7817 54.6038 72.7975 55.1464 68.8188C56.1445 70.3441 57.4619 71.6346 59.0075 72.601C60.5531 73.5675 62.29 74.1869 64.0984 74.4165C65.9068 74.2357 68.71 71.1613 68.9813 64.4699C70.9706 65.7358 72.5982 69.3528 74.9493 68.6294C76.3987 67.7976 77.6043 66.5997 78.4453 65.1556C79.2864 63.7116 79.7334 62.0719 79.7417 60.4008C81.4641 61.305 83.5396 62.4805 83.5396 63.4752C82.9053 65.6038 81.606 67.4735 79.8322 68.8102C77.9333 70.257 76.2152 70.1666 74.4971 71.3421C72.7791 72.5176 72.2365 74.7869 68.8995 76.4059C66.8717 77.2662 64.787 77.9856 62.6602 78.5588C60.5072 79.4631 60.2187 81.5428 55.7707 82.1758C52.3646 82.9713 48.8671 83.3058 45.3719 83.1705C40.5794 82.9896 39.3135 85.1598 34.7019 85.1598C31.1229 85.526 27.516 85.526 23.9371 85.1598C20.8626 84.4364 21.1339 83.4374 19.1446 83.0068C17.1553 82.5762 14.1712 83.7302 13.1766 81.7409C12.1819 79.7516 10.916 77.7622 11.8202 77.4005C12.0711 77.3089 12.338 77.2697 12.6047 77.2852C12.8713 77.3008 13.1319 77.3708 13.3704 77.491Z" fill="#FF0000"/>
</svg>
