<svg 
 xmlns="http://www.w3.org/2000/svg"
 xmlns:xlink="http://www.w3.org/1999/xlink"
 width="58px" height="58px">
<path fill-rule="evenodd"  fill="rgb(255, 61, 0)"
 d="M57.033,57.999 L0.967,57.999 C0.387,57.999 -0.000,57.613 -0.000,57.033 L-0.000,0.966 C-0.000,0.386 0.387,-0.000 0.967,-0.000 L57.033,-0.000 C57.613,-0.000 58.000,0.386 58.000,0.966 L58.000,57.033 C58.000,57.613 57.613,57.999 57.033,57.999 ZM56.067,1.933 L1.933,1.933 L1.933,56.066 L56.067,56.066 L56.067,1.933 ZM5.800,4.833 L52.200,4.833 C52.780,4.833 53.167,5.219 53.167,5.800 L53.167,17.399 C53.167,17.980 52.780,18.366 52.200,18.366 L5.800,18.366 C5.220,18.366 4.833,17.980 4.833,17.399 L4.833,5.800 C4.833,5.219 5.220,4.833 5.800,4.833 ZM6.767,16.433 L51.233,16.433 L51.233,6.766 L6.767,6.766 L6.767,16.433 ZM33.833,12.566 L36.733,12.566 L36.733,14.500 L33.833,14.500 L33.833,12.566 ZM29.000,12.566 L31.900,12.566 L31.900,14.500 L29.000,14.500 L29.000,12.566 ZM24.167,12.566 L27.067,12.566 L27.067,14.500 L24.167,14.500 L24.167,12.566 ZM5.800,21.266 L22.233,21.266 C22.813,21.266 23.200,21.653 23.200,22.233 L23.200,37.700 C23.200,38.280 22.813,38.666 22.233,38.666 L5.800,38.666 C5.220,38.666 4.833,38.280 4.833,37.700 L4.833,22.233 C4.833,21.653 5.220,21.266 5.800,21.266 ZM21.267,36.733 L21.267,24.553 L8.313,36.733 L21.267,36.733 ZM6.767,35.476 L19.817,23.200 L6.767,23.200 L6.767,35.476 ZM35.767,37.700 L26.100,37.700 L26.100,35.766 L35.767,35.766 L35.767,37.700 ZM35.767,32.866 L26.100,32.866 L26.100,30.933 L35.767,30.933 L35.767,32.866 ZM26.100,21.266 L35.767,21.266 L35.767,23.200 L26.100,23.200 L26.100,21.266 ZM35.767,28.033 L26.100,28.033 L26.100,26.100 L35.767,26.100 L35.767,28.033 ZM35.767,43.500 L5.800,43.500 L5.800,41.566 L35.767,41.566 L35.767,43.500 ZM35.767,48.333 L5.800,48.333 L5.800,46.400 L35.767,46.400 L35.767,48.333 ZM35.767,53.166 L5.800,53.166 L5.800,51.233 L35.767,51.233 L35.767,53.166 ZM40.600,21.266 L52.200,21.266 C52.780,21.266 53.167,21.653 53.167,22.233 L53.167,32.866 C53.167,33.446 52.780,33.833 52.200,33.833 L40.600,33.833 C40.020,33.833 39.633,33.446 39.633,32.866 L39.633,22.233 C39.633,21.653 40.020,21.266 40.600,21.266 ZM51.233,23.200 L43.017,23.200 L51.233,30.740 L51.233,23.200 ZM41.567,31.900 L49.687,31.900 L41.567,24.456 L41.567,31.900 ZM40.600,36.733 L52.200,36.733 C52.780,36.733 53.167,37.120 53.167,37.700 L53.167,52.200 C53.167,52.780 52.780,53.166 52.200,53.166 L40.600,53.166 C40.020,53.166 39.633,52.780 39.633,52.200 L39.633,37.700 C39.633,37.120 40.020,36.733 40.600,36.733 ZM51.233,51.233 L51.233,40.503 L42.630,51.233 L51.233,51.233 ZM41.567,49.493 L50.170,38.666 L41.567,38.666 L41.567,49.493 Z"/>
</svg>