<svg 
 xmlns="http://www.w3.org/2000/svg"
 xmlns:xlink="http://www.w3.org/1999/xlink"
 width="95px" height="95px">
<path fill-rule="evenodd"  stroke-width="2px" stroke="rgb(240, 169, 2)" fill="rgb(1, 3, 39)" fill-opacity="0"
 d="M51.108,72.999 C41.537,72.999 37.636,71.585 33.028,67.348 L31.963,65.933 C29.482,63.459 27.000,60.985 27.000,56.040 C27.000,55.333 27.000,54.274 27.000,53.566 C27.000,49.325 27.000,46.146 29.128,43.673 C30.190,42.612 31.963,41.907 34.091,41.553 L34.091,26.359 C34.091,26.359 34.091,23.533 35.864,21.412 C36.926,20.707 38.346,20.000 39.764,20.000 C43.309,20.000 44.727,22.825 44.727,24.946 L44.727,30.953 C45.082,30.599 45.790,30.599 46.500,30.599 C48.628,30.599 49.691,31.307 50.399,32.012 C50.755,32.720 51.108,33.073 51.465,33.779 C52.171,33.426 52.881,33.426 53.591,33.426 C55.364,33.426 56.783,34.133 57.489,34.840 C58.199,35.546 58.909,36.959 58.909,37.666 C59.262,37.666 60.329,37.666 61.035,37.666 C65.290,38.725 66.000,43.673 66.000,46.146 L66.000,54.981 C66.000,67.348 61.392,72.999 51.108,72.999 Z"/>
</svg>