<svg 
 xmlns="http://www.w3.org/2000/svg"
 xmlns:xlink="http://www.w3.org/1999/xlink"
 width="95px" height="95px">
<path fill-rule="evenodd"  fill="rgb(255, 179, 0)"
 d="M48.001,74.997 C34.541,74.997 23.997,70.452 23.997,64.649 L23.997,59.000 C23.997,58.412 24.472,57.937 25.059,57.937 C25.647,57.937 26.122,58.412 26.122,59.000 L26.122,64.649 C26.122,69.495 37.652,72.873 48.001,72.873 C58.352,72.873 69.882,69.495 69.882,64.649 L69.882,59.000 C69.882,58.412 70.357,57.937 70.944,57.937 C71.531,57.937 72.006,58.412 72.006,59.000 L72.006,64.649 C72.006,70.452 61.462,74.997 48.001,74.997 ZM48.001,60.802 C34.541,60.802 23.997,56.256 23.997,50.454 L23.997,44.803 C23.997,44.217 24.472,43.741 25.059,43.741 C25.647,43.741 26.122,44.217 26.122,44.803 L26.122,50.454 C26.122,55.299 37.652,58.678 48.001,58.678 C58.352,58.678 69.882,55.299 69.882,50.454 L69.882,44.803 C69.882,44.217 70.357,43.741 70.944,43.741 C71.531,43.741 72.006,44.217 72.006,44.803 L72.006,50.454 C72.006,56.256 61.462,60.802 48.001,60.802 ZM48.001,47.354 C34.541,47.354 23.997,42.808 23.997,37.005 L23.997,31.355 C23.997,25.550 34.541,21.004 48.001,21.004 C61.462,21.004 72.006,25.550 72.006,31.355 L72.006,37.005 C72.006,42.808 61.462,47.354 48.001,47.354 ZM69.882,31.354 C69.882,26.506 58.351,23.128 48.001,23.128 C37.651,23.128 26.122,26.506 26.122,31.354 L26.122,37.004 C26.122,41.851 37.652,45.229 48.001,45.229 C58.352,45.229 69.882,41.851 69.882,37.004 L69.882,31.354 Z"/>
</svg>