<?xml version="1.0" encoding="UTF-8" standalone="no"?>
<svg width="189px" height="38px" viewBox="0 0 189 38" version="1.1" xmlns="http://www.w3.org/2000/svg" xmlns:xlink="http://www.w3.org/1999/xlink">
    <!-- Generator: Sketch 3.6.1 (26313) - http://www.bohemiancoding.com/sketch -->
    <title>Group 3 Copy</title>
    <desc>Created with Sketch.</desc>
    <defs></defs>
    <g id="Page-1" stroke="none" stroke-width="1" fill="none" fill-rule="evenodd">
        <g id="Group-3-Copy">
            <path d="M47.644,38 L35.216,38 L30.172,16.212 L24.972,38 L12.544,38 L0.74,1.548 L13.636,1.548 L19.148,25.468 L24.556,1.6 L36.308,1.548 L41.82,25.468 L47.228,1.548 L59.552,1.548 L47.644,38 Z M64.167002,1.548 L82.627002,1.548 C87.0296907,1.548 90.5396556,2.38865826 93.157002,4.07 C95.7743484,5.75134174 97.083002,7.9786528 97.083002,10.752 C97.083002,12.5546757 96.5283409,14.1666596 95.419002,15.588 C94.3096631,17.0093404 92.8190114,17.9973306 90.947002,18.552 C93.1310129,19.0373358 94.8816621,20.1206583 96.199002,21.802 C97.5163419,23.4833417 98.175002,25.4679886 98.175002,27.756 C98.175002,30.8760156 96.8403487,33.3633241 94.171002,35.218 C91.5016553,37.0726759 87.9483575,38 83.511002,38 L64.167002,38 L64.167002,1.548 Z M76.179002,10.388 L76.179002,15.588 L81.951002,15.588 C82.7830062,15.588 83.4503328,15.3453358 83.953002,14.86 C84.4556712,14.3746642 84.707002,13.7333373 84.707002,12.936 C84.707002,12.1733295 84.4556712,11.5580023 83.953002,11.09 C83.4503328,10.6219977 82.7830062,10.388 81.951002,10.388 L76.179002,10.388 Z M76.179002,23.596 L76.179002,29.16 L81.951002,29.16 C83.0603409,29.16 83.9529986,28.891336 84.629002,28.354 C85.3050054,27.816664 85.643002,27.114671 85.643002,26.248 C85.643002,25.4506627 85.3050054,24.8093358 84.629002,24.324 C83.9529986,23.8386642 83.0603409,23.596 81.951002,23.596 L76.179002,23.596 Z" id="WB" fill="#FFFFFF"></path>
            <g id="Group-2" transform="translate(106.000000, 0.000000)" fill="#FAD46B">
                <rect id="Rectangle-411" x="0" y="0" width="2" height="37"></rect>
                <path d="M2,24 L2,14 L6,19 L2,24 L2,24 Z" id="Triangle-15"></path>
            </g>
            <path d="M134.519531,19 L131.142578,6.41894531 L127.714844,19 L122.928711,19 L116.974609,0.794921875 L121.913086,0.794921875 L125.480469,14.1884766 L128.958984,0.794921875 L133.478516,0.794921875 L137.045898,14.1884766 L140.549805,0.794921875 L145.285156,0.794921875 L139.280273,19 L134.519531,19 Z M157.810352,6.12060547 C158.876764,7.01351358 159.418425,8.2555259 159.435352,9.84667969 L159.435352,19 L155.042774,19 L155.042774,17.3876953 C154.594204,17.9801462 154.005994,18.4308253 153.278126,18.7397461 C152.550258,19.0486669 151.708144,19.203125 150.751759,19.203125 C149.279095,19.203125 148.109022,18.7968791 147.241505,17.984375 C146.373987,17.1718709 145.940235,16.1139388 145.940235,14.8105469 C145.940235,13.4733006 146.403609,12.4365271 147.330372,11.7001953 C148.257134,10.9638635 149.588013,10.5872397 151.323048,10.5703125 L155.017384,10.5703125 L155.017384,10.3671875 C155.017384,9.67317361 154.78887,9.13151236 154.331837,8.7421875 C153.874803,8.35286264 153.193495,8.15820312 152.287891,8.15820312 C151.695441,8.15820312 151.031059,8.25764875 150.294727,8.45654297 C149.558396,8.65543719 148.826306,8.9453106 148.098438,9.32617188 L146.828907,6.36816406 C147.971491,5.83495827 149.059045,5.43717579 150.091602,5.17480469 C151.12416,4.91243358 152.20325,4.78125 153.328907,4.78125 C155.250141,4.78125 156.743941,5.22769736 157.810352,6.12060547 L157.810352,6.12060547 Z M154.008106,15.6357422 C154.545544,15.2802717 154.881966,14.8147815 155.017384,14.2392578 L155.017384,12.9951172 L152.186329,12.9951172 C151.509242,12.9951172 151.001435,13.1157215 150.662891,13.3569336 C150.324348,13.5981457 150.155079,13.9811172 150.155079,14.5058594 C150.155079,15.022138 150.32858,15.4283839 150.675587,15.7246094 C151.022594,16.0208348 151.509242,16.1689453 152.135548,16.1689453 C152.846489,16.1689453 153.470669,15.9912127 154.008106,15.6357422 L154.008106,15.6357422 Z M176.023048,5.72705078 C177.021751,6.32373345 177.794042,7.16796329 178.339943,8.25976562 C178.885844,9.35156796 179.158791,10.6168548 179.158791,12.0556641 C179.158791,13.460619 178.890076,14.7005155 178.352638,15.7753906 C177.815201,16.8502658 177.059837,17.6818004 176.086525,18.2700195 C175.113213,18.8582386 173.97911,19.1523438 172.684181,19.1523438 C171.787041,19.1523438 170.972434,18.9788429 170.240334,18.6318359 C169.508234,18.284829 168.892517,17.785485 168.393166,17.1337891 L168.393166,24.0400391 L163.899025,24.0400391 L163.899025,4.984375 L168.393166,4.984375 L168.393166,6.83789062 C168.892517,6.19465824 169.497654,5.69954601 170.208595,5.35253906 C170.919536,5.00553212 171.71087,4.83203125 172.582619,4.83203125 C173.877547,4.83203125 175.024345,5.13036811 176.023048,5.72705078 L176.023048,5.72705078 Z M173.756935,14.5693359 C174.336691,13.8837856 174.626564,13.0035861 174.626564,11.9287109 C174.626564,10.8538358 174.336691,9.97786797 173.756935,9.30078125 C173.17718,8.62369453 172.421816,8.28515625 171.490822,8.28515625 C170.593682,8.28515625 169.853129,8.62369453 169.269142,9.30078125 C168.685155,9.97786797 168.393166,10.8538358 168.393166,11.9287109 C168.393166,13.0205133 168.678807,13.9049445 169.250099,14.5820312 C169.821391,15.259118 170.568291,15.5976562 171.490822,15.5976562 C172.421816,15.5976562 173.17718,15.2548862 173.756935,14.5693359 L173.756935,14.5693359 Z" id="Wap" fill="#FAD46B"></path>
            <path d="M125.375,28.96875 C125.989586,29.3333352 126.467446,29.8450488 126.808594,30.5039062 C127.149741,31.1627637 127.320312,31.9192666 127.320312,32.7734375 C127.320312,33.6171917 127.152345,34.3645801 126.816406,35.015625 C126.480467,35.6666699 126.007816,36.1705711 125.398438,36.5273438 C124.789059,36.8841164 124.085941,37.0625 123.289062,37.0625 C122.617184,37.0625 122.024742,36.932293 121.511719,36.671875 C120.998695,36.411457 120.588543,36.0312525 120.28125,35.53125 L120.28125,37 L118.4375,37 L118.4375,25.125 L120.28125,25.125 L120.28125,29.9609375 C120.588543,29.460935 120.996091,29.0794284 121.503906,28.8164062 C122.011721,28.5533841 122.596351,28.421875 123.257812,28.421875 C124.054691,28.421875 124.760414,28.6041648 125.375,28.96875 L125.375,28.96875 Z M124.214844,35.140625 C124.608075,34.9062488 124.914061,34.576825 125.132812,34.1523438 C125.351564,33.7278625 125.460938,33.2473985 125.460938,32.7109375 C125.460938,32.1901016 125.351564,31.7213562 125.132812,31.3046875 C124.914061,30.8880188 124.608075,30.559897 124.214844,30.3203125 C123.821613,30.080728 123.375002,29.9609375 122.875,29.9609375 C122.374998,29.9609375 121.927085,30.0781238 121.53125,30.3125 C121.135415,30.5468762 120.828126,30.8749979 120.609375,31.296875 C120.390624,31.7187521 120.28125,32.1901016 120.28125,32.7109375 C120.28125,33.5338583 120.523435,34.2031224 121.007812,34.71875 C121.49219,35.2343776 122.11458,35.4921875 122.875,35.4921875 C123.375002,35.4921875 123.821613,35.3750012 124.214844,35.140625 L124.214844,35.140625 Z M132.957813,28.8710938 C133.457815,28.5716131 134.043747,28.421875 134.715625,28.421875 L134.715625,30.1875 C133.871871,30.1458331 133.189586,30.3424457 132.66875,30.7773438 C132.147914,31.2122418 131.851042,31.8046838 131.778125,32.5546875 L131.778125,37 L129.934375,37 L129.934375,28.484375 L131.778125,28.484375 L131.778125,30.1875 C132.064585,29.6093721 132.45781,29.1705744 132.957813,28.8710938 L132.957813,28.8710938 Z M142.884375,28.96875 C143.556254,29.3333352 144.078384,29.8398405 144.450782,30.4882812 C144.823179,31.136722 145.009375,31.8880166 145.009375,32.7421875 C145.009375,33.5859417 144.823179,34.3359342 144.450782,34.9921875 C144.078384,35.6484408 143.556254,36.1575503 142.884375,36.5195312 C142.212497,36.8815122 141.444276,37.0625 140.579688,37.0625 C139.704684,37.0625 138.931254,36.8815122 138.259375,36.5195312 C137.587497,36.1575503 137.065367,35.6484408 136.692969,34.9921875 C136.320572,34.3359342 136.134375,33.5859417 136.134375,32.7421875 C136.134375,31.8880166 136.320572,31.136722 136.692969,30.4882812 C137.065367,29.8398405 137.587497,29.3333352 138.259375,28.96875 C138.931254,28.6041648 139.704684,28.421875 140.579688,28.421875 C141.444276,28.421875 142.212497,28.6041648 142.884375,28.96875 L142.884375,28.96875 Z M138.700782,30.7773438 C138.2138,31.2903671 137.970313,31.9505168 137.970313,32.7578125 C137.970313,33.5807333 138.2138,34.2486954 138.700782,34.7617188 C139.187763,35.2747421 139.814059,35.53125 140.579688,35.53125 C141.345317,35.53125 141.969008,35.2747421 142.450782,34.7617188 C142.932555,34.2486954 143.173438,33.5807333 143.173438,32.7578125 C143.173438,31.9453084 142.929951,31.2838567 142.442969,30.7734375 C141.955988,30.2630183 141.3349,30.0078125 140.579688,30.0078125 C139.814059,30.0078125 139.187763,30.2643204 138.700782,30.7773438 L138.700782,30.7773438 Z M150.350001,37.078125 C149.657289,37.078125 149.086982,36.8697937 148.639063,36.453125 C148.191144,36.0364563 147.967188,35.4192749 147.967188,34.6015625 L147.967188,30.1875 L146.764063,30.1875 L146.764063,28.8046875 L147.967188,28.8046875 L147.967188,26.46875 L149.795313,26.46875 L149.795313,28.8046875 L152.303126,28.8046875 L152.303126,30.1875 L149.795313,30.1875 L149.795313,34.265625 C149.795313,34.6927105 149.869531,34.9908846 150.017969,35.1601562 C150.166408,35.3294279 150.39427,35.4140625 150.701563,35.4140625 C151.045315,35.4140625 151.472394,35.2916679 151.982813,35.046875 L152.451563,36.453125 C151.743226,36.8697937 151.042712,37.078125 150.350001,37.078125 L150.350001,37.078125 Z M162.241407,29.296875 C162.801306,29.8802113 163.081251,30.6822866 163.081251,31.703125 L163.081251,37 L161.237501,37 L161.237501,32.21875 C161.237501,31.5781218 161.056513,31.0729185 160.694532,30.703125 C160.332551,30.3333315 159.831254,30.1484375 159.190626,30.1484375 C158.445831,30.1588542 157.854691,30.4127579 157.417188,30.9101562 C156.979686,31.4075546 156.760938,32.0390587 156.760938,32.8046875 L156.760938,37 L154.917188,37 L154.917188,25.125 L156.760938,25.125 L156.760938,30.1484375 C157.349483,28.9973901 158.398952,28.421875 159.909376,28.421875 C160.904173,28.421875 161.681509,28.7135387 162.241407,29.296875 L162.241407,29.296875 Z M172.765626,29.5585938 C173.432296,30.31641 173.765626,31.3828056 173.765626,32.7578125 C173.765626,32.8984382 173.75521,33.1276026 173.734376,33.4453125 L167.296876,33.4453125 C167.447919,34.1067741 167.757811,34.6276023 168.226564,35.0078125 C168.695316,35.3880227 169.265623,35.578125 169.937501,35.578125 C170.395837,35.578125 170.833332,35.4921884 171.250001,35.3203125 C171.66667,35.1484366 172.028645,34.9036474 172.335939,34.5859375 L173.312501,35.625 C172.885416,36.0833356 172.373702,36.4374988 171.777345,36.6875 C171.180988,36.9375012 170.520838,37.0625 169.796876,37.0625 C168.932288,37.0625 168.171879,36.8815122 167.515626,36.5195312 C166.859373,36.1575503 166.350263,35.6510449 165.988282,35 C165.626301,34.3489551 165.445314,33.6015667 165.445314,32.7578125 C165.445314,31.9140583 165.626301,31.1653679 165.988282,30.5117188 C166.350263,29.8580696 166.859373,29.346356 167.515626,28.9765625 C168.171879,28.606769 168.916664,28.421875 169.750001,28.421875 C171.093758,28.421875 172.098956,28.8007775 172.765626,29.5585938 L172.765626,29.5585938 Z M171.445314,30.4882812 C171.018228,30.0950501 170.458338,29.8984375 169.765626,29.8984375 C169.093748,29.8984375 168.536462,30.0950501 168.093751,30.4882812 C167.651041,30.8815124 167.375002,31.4192674 167.265626,32.1015625 L172.132814,32.1015625 C172.101563,31.4192674 171.872399,30.8815124 171.445314,30.4882812 L171.445314,30.4882812 Z M179.371876,28.8710938 C179.871879,28.5716131 180.45781,28.421875 181.129689,28.421875 L181.129689,30.1875 C180.285935,30.1458331 179.60365,30.3424457 179.082814,30.7773438 C178.561978,31.2122418 178.265106,31.8046838 178.192189,32.5546875 L178.192189,37 L176.348439,37 L176.348439,28.484375 L178.192189,28.484375 L178.192189,30.1875 C178.478649,29.6093721 178.871874,29.1705744 179.371876,28.8710938 L179.371876,28.8710938 Z M187.497658,28.640625 C188.026306,28.7968758 188.483333,29.0078112 188.868752,29.2734375 L188.196877,30.6328125 C187.821875,30.3984363 187.413025,30.2148444 186.970314,30.0820312 C186.527604,29.9492181 186.118753,29.8828125 185.743752,29.8828125 C185.358333,29.8828125 185.054951,29.9518222 184.833595,30.0898438 C184.61224,30.2278653 184.501564,30.4401027 184.501564,30.7265625 C184.501564,31.0130223 184.631771,31.2317701 184.892189,31.3828125 C185.152607,31.5338549 185.587499,31.7057282 186.196877,31.8984375 C186.775004,32.0703134 187.252864,32.2408846 187.63047,32.4101562 C188.008076,32.5794279 188.332292,32.8346337 188.603127,33.1757812 C188.873961,33.5169288 189.009377,33.966143 189.009377,34.5234375 C189.009377,35.356775 188.69688,35.9882791 188.071877,36.4179688 C187.446873,36.8476584 186.67084,37.0625 185.743752,37.0625 C185.103123,37.0625 184.476828,36.9583344 183.864845,36.75 C183.252863,36.5416656 182.738545,36.252606 182.321877,35.8828125 L182.978127,34.5703125 C183.342712,34.8880224 183.78802,35.1432282 184.314064,35.3359375 C184.840108,35.5286468 185.345312,35.625 185.829689,35.625 C186.246358,35.625 186.582292,35.550782 186.837502,35.4023438 C187.092711,35.2539055 187.220314,35.0234391 187.220314,34.7109375 C187.220314,34.4765613 187.14219,34.2825529 186.985939,34.1289062 C186.829688,33.9752596 186.639586,33.852865 186.415627,33.7617188 C186.191667,33.6705725 185.86615,33.5598965 185.439064,33.4296875 C184.871353,33.2578116 184.41042,33.0898446 184.056252,32.9257812 C183.702083,32.7617179 183.396097,32.5169287 183.138283,32.1914062 C182.880469,31.8658838 182.751564,31.4322944 182.751564,30.890625 C182.751564,30.0781209 183.05104,29.4609396 183.650002,29.0390625 C184.248963,28.6171854 184.996351,28.40625 185.892189,28.40625 C186.433858,28.40625 186.969009,28.4843742 187.497658,28.640625 L187.497658,28.640625 Z" id="brothers" fill="#FFFFFF"></path>
        </g>
    </g>
</svg>