<?xml version="1.0" encoding="utf-8"?>
<!-- Generator: Adobe Illustrator 16.0.0, SVG Export Plug-In . SVG Version: 6.00 Build 0)  -->
<!DOCTYPE svg PUBLIC "-//W3C//DTD SVG 1.1//EN" "http://www.w3.org/Graphics/SVG/1.1/DTD/svg11.dtd">
<svg version="1.1" id="Слой_1" xmlns="http://www.w3.org/2000/svg" xmlns:xlink="http://www.w3.org/1999/xlink" x="0px" y="0px"
	 width="56.851px" height="56.852px" viewBox="277.484 389.816 56.851 56.852"
	 enable-background="new 277.484 389.816 56.851 56.852" xml:space="preserve">
<circle fill="#E5E5E5" cx="305.916" cy="418.25" r="28.417"/>
<path d="M306,434.683v-8.699c3.851,0,6.982-3.133,6.982-6.983s-3.133-6.983-6.982-6.983c-3.851,0-6.983,3.133-6.983,6.983h-8.7
	c0-8.648,7.036-15.684,15.684-15.684s15.684,7.036,15.684,15.684C321.683,427.648,314.647,434.683,306,434.683z"/>
<polygon points="299.017,445.792 297.979,445.542 296.771,445.167 295.458,444.689 294.292,444.167 293.062,443.605 
	291.625,442.812 290.316,442.062 290.316,419 299.017,419 "/>
<path fill="#A31E23" d="M286.184,418.583h-8.7c0-15.862,12.905-28.767,28.767-28.767v8.7
	C295.185,398.517,286.184,407.519,286.184,418.583z"/>
</svg>
