<?xml version="1.0" encoding="utf-8"?>
<!-- Generator: Adobe Illustrator 16.0.0, SVG Export Plug-In . SVG Version: 6.00 Build 0)  -->
<!DOCTYPE svg PUBLIC "-//W3C//DTD SVG 1.1//EN" "http://www.w3.org/Graphics/SVG/1.1/DTD/svg11.dtd">
<svg version="1.1" id="Слой_1" xmlns="http://www.w3.org/2000/svg" xmlns:xlink="http://www.w3.org/1999/xlink" x="0px" y="0px"
	 width="28.761px" height="33.937px" viewBox="0 0 28.761 33.937" enable-background="new 0 0 28.761 33.937" xml:space="preserve">
<g>
	<defs>
		<rect id="SVGID_1_" width="28.761" height="33.937"/>
	</defs>
	<path clip-path="url(#SVGID_2_)" fill="#303D7D" d="M14.57,32.539l1.034-6.556l0.066-0.363c0.051-0.315,0.211-0.604,0.455-0.813
		s0.555-0.323,0.875-0.323h0.821c1.368,0,2.625-0.146,3.737-0.435c1.186-0.308,2.239-0.786,3.134-1.422
		c0.948-0.674,1.744-1.546,2.366-2.59c0.656-1.101,1.139-2.427,1.434-3.94c0.26-1.336,0.309-2.533,0.146-3.556
		c-0.174-1.081-0.591-2.004-1.238-2.743c-0.394-0.448-0.896-0.836-1.494-1.153l-0.014-0.007l-0.001-0.018
		c0.209-1.334,0.2-2.446-0.024-3.404c-0.226-0.96-0.683-1.824-1.4-2.64c-1.484-1.692-4.185-2.55-8.025-2.55H5.894
		c-0.353,0-0.695,0.126-0.963,0.355C4.663,0.612,4.485,0.93,4.429,1.278L0.037,29.128c-0.04,0.254,0.033,0.514,0.201,0.708
		c0.167,0.196,0.41,0.309,0.668,0.309h6.543l-0.006,0.03l-0.449,2.851c-0.035,0.221,0.029,0.446,0.174,0.616
		c0.146,0.171,0.358,0.269,0.582,0.269h5.489c0.307,0,0.606-0.111,0.84-0.311c0.234-0.2,0.389-0.478,0.438-0.781L14.57,32.539z"/>
	<path clip-path="url(#SVGID_2_)" fill="#303D7D" d="M10.81,8.657c0.07-0.441,0.353-0.803,0.734-0.985
		c0.173-0.083,0.367-0.13,0.57-0.13h8.268c0.979,0,1.894,0.065,2.729,0.199c0.237,0.038,0.47,0.083,0.695,0.133
		c0.227,0.05,0.444,0.106,0.656,0.168c0.106,0.031,0.211,0.063,0.313,0.097c0.41,0.136,0.792,0.297,1.143,0.483
		c0.414-2.64-0.003-4.436-1.431-6.063C22.915,0.767,20.075,0,16.442,0H5.894C5.151,0,4.519,0.54,4.403,1.274L0.011,29.125
		c-0.086,0.549,0.338,1.046,0.895,1.046h6.511l1.636-10.372L10.81,8.657z"/>
	<path clip-path="url(#SVGID_2_)" fill="#599AD4" d="M25.918,8.622L25.918,8.622c-0.032,0.201-0.066,0.406-0.107,0.618
		c-1.391,7.141-6.15,9.611-12.229,9.611h-3.095c-0.742,0-1.369,0.54-1.485,1.274v-0.001v0.001L7.417,30.171l-0.449,2.85
		c-0.076,0.481,0.295,0.916,0.782,0.916h5.488c0.65,0,1.203-0.473,1.304-1.115l0.055-0.277l1.033-6.558l0.067-0.361
		c0.101-0.643,0.654-1.115,1.304-1.115h0.821c5.317,0,9.48-2.16,10.697-8.408c0.509-2.61,0.246-4.789-1.1-6.321
		C27.015,9.318,26.508,8.934,25.918,8.622"/>
	<path clip-path="url(#SVGID_2_)" fill="#293063" d="M24.463,8.042c-0.212-0.062-0.432-0.118-0.656-0.168
		c-0.226-0.05-0.458-0.094-0.697-0.133c-0.835-0.134-1.748-0.198-2.728-0.198h-8.268c-0.203,0-0.396,0.046-0.569,0.129
		c-0.382,0.183-0.665,0.544-0.734,0.985L9.053,19.8l-0.05,0.324c0.115-0.733,0.742-1.273,1.485-1.273h3.095
		c6.078,0,10.837-2.47,12.228-9.611c0.041-0.211,0.076-0.416,0.108-0.618c-0.353-0.186-0.733-0.346-1.144-0.483
		C24.673,8.105,24.568,8.073,24.463,8.042"/>
</g>
</svg>
