<?xml version="1.0" encoding="utf-8"?>
<!-- Generator: Adobe Illustrator 16.0.0, SVG Export Plug-In . SVG Version: 6.00 Build 0)  -->
<!DOCTYPE svg PUBLIC "-//W3C//DTD SVG 1.1//EN" "http://www.w3.org/Graphics/SVG/1.1/DTD/svg11.dtd">
<svg version="1.1" id="Слой_1" xmlns="http://www.w3.org/2000/svg" xmlns:xlink="http://www.w3.org/1999/xlink" x="0px" y="0px"
	 width="36.542px" height="36.406px" viewBox="0 0 36.542 36.406" enable-background="new 0 0 36.542 36.406" xml:space="preserve">
<g>
	<defs>
		<rect id="SVGID_1_" width="36.542" height="36.406"/>
	</defs>
	<path clip-path="url(#SVGID_2_)" fill-rule="evenodd" clip-rule="evenodd" fill="#2872B4" d="M18.202,0
		c2.858,0,5.565,0.665,7.977,1.847c0.378,0.18,0.756,0.378,1.135,0.595l-1.676,1.5L23.12,1.339l-4.25,3.79l-2.524-2.754L8.432,9.51
		l5.074,5.592l-1.994,1.754l4.999,5.601l-1.983,1.749l7.142,7.951l4.24-3.903l3.665,4.183c-0.729,0.567-1.522,1.1-2.397,1.593
		c-2.651,1.512-5.715,2.377-8.975,2.377C8.176,36.406,0,28.228,0,18.203C0,8.177,8.176,0,18.202,0"/>
	
		<rect x="16.085" y="14.355" transform="matrix(-0.7431 0.6691 -0.6691 -0.7431 44.6711 17.389)" clip-path="url(#SVGID_2_)" fill-rule="evenodd" clip-rule="evenodd" fill="#2872B4" width="5.825" height="5.826"/>
	
		<rect x="19.164" y="21.835" transform="matrix(-0.7433 0.669 -0.669 -0.7433 55.0418 28.3734)" clip-path="url(#SVGID_2_)" fill-rule="evenodd" clip-rule="evenodd" fill="#2872B4" width="5.824" height="5.826"/>
	
		<rect x="12.988" y="6.965" transform="matrix(-0.7432 0.6691 -0.6691 -0.7432 34.3257 6.5783)" clip-path="url(#SVGID_2_)" fill-rule="evenodd" clip-rule="evenodd" fill="#2872B4" width="5.824" height="5.824"/>
	
		<rect x="20.631" y="5.541" transform="matrix(-0.7431 0.6691 -0.6691 -0.7431 44.9388 -1.8004)" clip-path="url(#SVGID_2_)" fill-rule="evenodd" clip-rule="evenodd" fill="#2872B4" width="4.368" height="4.369"/>
	
		<rect x="26.399" y="18.929" transform="matrix(-0.7431 0.6692 -0.6692 -0.7431 63.9535 17.6741)" clip-path="url(#SVGID_2_)" fill-rule="evenodd" clip-rule="evenodd" fill="#2872B4" width="4.37" height="4.37"/>
	
		<rect x="29.255" y="25.485" transform="matrix(-0.7429 0.6694 -0.6694 -0.7429 73.317 27.1814)" clip-path="url(#SVGID_2_)" fill-rule="evenodd" clip-rule="evenodd" fill="#2872B4" width="4.368" height="4.369"/>
	
		<rect x="30.263" y="11.131" transform="matrix(-0.743 0.6693 -0.6693 -0.743 63.7112 0.7129)" clip-path="url(#SVGID_2_)" fill-rule="evenodd" clip-rule="evenodd" fill="#2872B4" width="2.912" height="2.913"/>
	
		<rect x="27.498" y="4.701" transform="matrix(-0.7433 0.669 -0.669 -0.7433 54.5933 -8.6357)" clip-path="url(#SVGID_2_)" fill-rule="evenodd" clip-rule="evenodd" fill="#2872B4" width="2.912" height="2.911"/>
	
		<rect x="33.03" y="17.561" transform="matrix(-0.743 0.6693 -0.6693 -0.743 72.8387 10.0687)" clip-path="url(#SVGID_2_)" fill-rule="evenodd" clip-rule="evenodd" fill="#2872B4" width="2.912" height="2.913"/>
	
		<rect x="23.624" y="12.069" transform="matrix(-0.7429 0.6694 -0.6694 -0.7429 54.5222 7.5666)" clip-path="url(#SVGID_2_)" fill-rule="evenodd" clip-rule="evenodd" fill="#2872B4" width="4.368" height="4.369"/>
</g>
</svg>
