<?xml version="1.0" encoding="utf-8"?>
<!-- Generator: Adobe Illustrator 16.0.0, SVG Export Plug-In . SVG Version: 6.00 Build 0)  -->
<!DOCTYPE svg PUBLIC "-//W3C//DTD SVG 1.1//EN" "http://www.w3.org/Graphics/SVG/1.1/DTD/svg11.dtd">
<svg version="1.1" id="Слой_1" xmlns="http://www.w3.org/2000/svg" xmlns:xlink="http://www.w3.org/1999/xlink" x="0px" y="0px"
	 width="39.684px" height="37.039px" viewBox="0 0 39.684 37.039" enable-background="new 0 0 39.684 37.039" xml:space="preserve">
<g>
	<g>
		<defs>
			<rect id="SVGID_1_" x="0" width="39.683" height="37.039"/>
		</defs>
		<path clip-path="url(#SVGID_2_)" fill="#464646" d="M19.841,0l19.842,7.937v2.646h-2.646c0,0.358-0.142,0.668-0.424,0.931
			c-0.281,0.263-0.615,0.393-1.003,0.392H4.071c-0.386,0-0.72-0.131-1.003-0.392c-0.281-0.261-0.423-0.571-0.423-0.931H0V7.937
			L19.841,0z M5.292,13.228h5.291v15.874h2.645V13.228h5.291v15.874h2.646V13.228h5.291v15.874h2.646V13.228h5.291v15.874h1.219
			c0.388,0,0.722,0.13,1.004,0.392c0.281,0.262,0.423,0.571,0.423,0.932v1.322H2.646v-1.322c0-0.358,0.142-0.668,0.423-0.932
			c0.283-0.264,0.617-0.394,1.003-0.392h1.221V13.228z M38.258,33.069c0.386,0,0.72,0.132,1.003,0.394
			c0.282,0.261,0.423,0.57,0.423,0.931v2.646H0v-2.646c0-0.356,0.141-0.669,0.423-0.931c0.282-0.264,0.616-0.396,1.003-0.394H38.258
			z"/>
	</g>
</g>
</svg>
