<?xml version="1.0" encoding="utf-8"?>
<!-- Generator: Adobe Illustrator 17.0.0, SVG Export Plug-In . SVG Version: 6.00 Build 0)  -->
<!DOCTYPE svg PUBLIC "-//W3C//DTD SVG 1.1//EN" "http://www.w3.org/Graphics/SVG/1.1/DTD/svg11.dtd">
<svg version="1.1" id="Слой_1" xmlns="http://www.w3.org/2000/svg" xmlns:xlink="http://www.w3.org/1999/xlink" x="0px" y="0px"
	 width="31.714px" height="33.686px" viewBox="0 0 31.714 33.686" enable-background="new 0 0 31.714 33.686" xml:space="preserve">
<g>
	<g>
		<g>
			<defs>
				<rect id="SVGID_1_" x="0" y="-0.001" width="31.714" height="33.686"/>
			</defs>
			<clipPath id="SVGID_2_">
				<use xlink:href="#SVGID_1_"  overflow="visible"/>
			</clipPath>
		</g>
		<g>
			<defs>
				<rect id="SVGID_3_" x="0" y="-0.001" width="31.714" height="33.686"/>
			</defs>
			<clipPath id="SVGID_4_">
				<use xlink:href="#SVGID_3_"  overflow="visible"/>
			</clipPath>
		</g>
		<g>
			<defs>
				<rect id="SVGID_5_" x="0" y="-0.001" width="31.714" height="33.686"/>
			</defs>
			<clipPath id="SVGID_6_">
				<use xlink:href="#SVGID_5_"  overflow="visible"/>
			</clipPath>
		</g>
		<g>
			<defs>
				<rect id="SVGID_7_" x="0" y="-0.001" width="31.714" height="33.686"/>
			</defs>
			<clipPath id="SVGID_8_">
				<use xlink:href="#SVGID_7_"  overflow="visible"/>
			</clipPath>
		</g>
		<g>
			<defs>
				<rect id="SVGID_9_" x="0" y="-0.001" width="31.714" height="33.686"/>
			</defs>
			<clipPath id="SVGID_10_">
				<use xlink:href="#SVGID_9_"  overflow="visible"/>
			</clipPath>
		</g>
		<g>
			<defs>
				<rect id="SVGID_11_" x="0" y="-0.001" width="31.714" height="33.686"/>
			</defs>
			<clipPath id="SVGID_12_">
				<use xlink:href="#SVGID_11_"  overflow="visible"/>
			</clipPath>
		</g>
		<g>
			<defs>
				<rect id="SVGID_13_" x="0" y="-0.001" width="31.714" height="33.686"/>
			</defs>
			<clipPath id="SVGID_14_">
				<use xlink:href="#SVGID_13_"  overflow="visible"/>
			</clipPath>
		</g>
	</g>
	<g>
		<g>
			<defs>
				<rect id="SVGID_15_" x="0" y="-0.001" width="31.714" height="33.686"/>
			</defs>
			<clipPath id="SVGID_16_">
				<use xlink:href="#SVGID_15_"  overflow="visible"/>
			</clipPath>
			<path clip-path="url(#SVGID_16_)" fill="#BD242A" d="M10.718,3.8c0.01,0.01,0.019,0.02,0.029,0.03
				c-0.06,0.017-0.121,0.029-0.179,0.052C9.22,4.414,7.904,5.016,6.664,5.77C4.956,6.81,3.403,8.025,2.297,9.731
				c-0.759,1.171-1.455,2.375-1.864,3.72c-0.525,1.723-0.493,3.491-0.319,5.253c0.217,2.214,0.941,4.287,2.018,6.22
				c2.319,4.162,5.841,6.845,10.399,8.141c2.145,0.609,4.367,0.683,6.591,0.586c1.415-0.063,2.805-0.283,4.162-0.691
				c0.304-0.091,0.604-0.196,0.9-0.308c0.294-0.109,0.58-0.234,0.87-0.352c-2.271,0.518-4.554,0.652-6.861,0.4
				c-2.268-0.248-4.438-0.85-6.472-1.881c-2.783-1.41-4.903-3.531-6.44-6.23c-1.754-3.079-2.509-6.38-2.053-9.918
				c0.461-3.587,2.088-6.557,4.853-8.883C8.922,5.08,9.837,4.46,10.718,3.8 M22.237,25.43c0.105-0.031,0.212-0.062,0.316-0.095
				c2.224-0.696,4.131-1.902,5.738-3.584c2.14-2.237,3.215-4.934,3.401-8c0.092-1.51-0.126-2.985-0.639-4.408
				c-1.52-4.217-4.511-6.947-8.669-8.437c-2.346-0.841-4.783-1.07-7.266-0.801c-1.831,0.198-3.607,0.624-5.292,1.369
				c-2.969,1.312-5.327,3.358-7.14,6.043c-0.115,0.17-0.224,0.345-0.33,0.521c-0.1,0.165-0.192,0.334-0.287,0.502
				c0.897-0.964,1.866-1.826,2.927-2.586c1.619-1.16,3.343-2.128,5.249-2.728c1.608-0.507,3.263-0.787,4.95-0.893
				c1.795-0.113,3.566,0.017,5.318,0.414c3.179,0.72,5.712,2.397,7.517,5.124c0.86,1.298,1.367,2.728,1.507,4.288
				c0.094,1.047-0.032,2.072-0.231,3.092c-0.592,3.025-1.962,5.646-4.112,7.854C24.316,24.008,23.32,24.764,22.237,25.43
				 M24.644,10.054c-0.213-0.196-0.413-0.406-0.639-0.586c-2.66-2.134-5.695-2.739-8.995-2.126c-2.23,0.415-4.103,1.49-5.596,3.226
				c-0.68,0.789-0.989,1.677-0.962,2.699c0.043,1.565,0.667,2.918,1.571,4.154c0.855,1.17,2.035,1.943,3.32,2.561
				c0.692,0.333,1.412,0.61,2.12,0.912c-0.466-0.648-0.855-1.303-1.114-2.032c-0.484-1.363-0.535-2.759-0.32-4.176
				c0.151-0.994,0.452-1.926,1.117-2.708c1.5-1.765,3.495-2.507,5.722-2.703C22.182,9.159,23.415,9.562,24.644,10.054
				 M27.327,18.953c-0.568,0.456-1.109,0.932-1.69,1.35c-1.729,1.243-3.672,1.855-5.798,1.858c-1.135,0.002-2.253-0.17-3.356-0.426
				c-1.475-0.343-2.94-0.715-4.258-1.507c-1.764-1.061-3.134-2.47-3.928-4.395c-0.313-0.76-0.478-1.557-0.527-2.422
				c-0.04,0.075-0.062,0.105-0.072,0.138c-0.466,1.498-0.586,3.023-0.335,4.57c0.344,2.118,1.277,3.93,2.855,5.397
				c1.836,1.708,4.026,2.555,6.516,2.566c1.856,0.01,3.593-0.558,5.22-1.418c2.366-1.252,4.058-3.175,5.301-5.518
				C27.287,19.085,27.303,19.017,27.327,18.953 M18.044,10.528c0.001,0.029,0.002,0.058,0.003,0.087
				c0.261,0.178,0.524,0.352,0.782,0.534c0.598,0.422,0.909,0.995,0.812,1.732c-0.146,1.119-0.729,1.941-1.769,2.411
				c-0.687,0.31-1.422,0.374-2.164,0.382c-0.35,0.004-0.7,0.001-1.065,0.001c0.248,0.602,0.893,1.339,1.589,1.778
				c1.811,1.144,3.749,1.287,5.755,0.646c1.724-0.551,2.976-1.651,3.631-3.363c0.538-1.402,0.207-2.638-0.954-3.593
				c-0.301-0.247-0.637-0.465-0.987-0.633c-1.083-0.519-2.229-0.679-3.412-0.465C19.521,10.179,18.784,10.365,18.044,10.528
				 M8.395,27.613c-0.017,0.025-0.034,0.05-0.051,0.075c0.085,0.074,0.168,0.148,0.254,0.221c0.374,0.311,0.736,0.637,1.126,0.927
				c2.769,2.056,5.918,3.058,9.328,3.274c2.343,0.148,4.646-0.127,6.892-0.832c1.889-0.594,3.263-1.777,4.063-3.594
				c0.314-0.713,0.458-1.467,0.394-2.305c-3.008,2.887-6.533,4.594-10.632,5.082C15.623,30.956,11.84,29.962,8.395,27.613"/>
		</g>
		<g>
			<defs>
				<rect id="SVGID_17_" x="0" y="-0.001" width="31.714" height="33.686"/>
			</defs>
			<clipPath id="SVGID_18_">
				<use xlink:href="#SVGID_17_"  overflow="visible"/>
			</clipPath>
			<path clip-path="url(#SVGID_18_)" fill="#BD242A" d="M10.718,3.8C9.837,4.46,8.922,5.079,8.081,5.787
				C5.316,8.113,3.69,11.083,3.228,14.67c-0.455,3.537,0.299,6.839,2.053,9.919c1.538,2.698,3.657,4.819,6.44,6.229
				c2.034,1.031,4.204,1.633,6.473,1.881c2.308,0.252,4.59,0.117,6.861-0.401c-0.29,0.119-0.577,0.243-0.87,0.353
				c-0.297,0.111-0.597,0.217-0.899,0.309c-1.358,0.407-2.748,0.629-4.163,0.69c-2.225,0.097-4.445,0.023-6.591-0.587
				c-4.558-1.295-8.079-3.977-10.399-8.14c-1.077-1.933-1.801-4.005-2.018-6.22c-0.173-1.763-0.206-3.53,0.319-5.253
				c0.409-1.344,1.105-2.548,1.864-3.719C3.404,8.025,4.957,6.81,6.666,5.77c1.239-0.754,2.555-1.356,3.903-1.888
				c0.058-0.023,0.12-0.035,0.18-0.052C10.738,3.82,10.728,3.81,10.718,3.8"/>
		</g>
		<g>
			<defs>
				<rect id="SVGID_19_" x="0" y="-0.001" width="31.714" height="33.686"/>
			</defs>
			<clipPath id="SVGID_20_">
				<use xlink:href="#SVGID_19_"  overflow="visible"/>
			</clipPath>
			<path clip-path="url(#SVGID_20_)" fill="#BD242A" d="M22.237,25.43c1.083-0.665,2.078-1.422,2.958-2.324
				c2.151-2.208,3.521-4.829,4.112-7.854c0.2-1.02,0.326-2.045,0.231-3.091c-0.14-1.561-0.646-2.991-1.507-4.289
				c-1.805-2.727-4.338-4.404-7.516-5.124c-1.752-0.397-3.524-0.527-5.319-0.414c-1.687,0.106-3.342,0.386-4.951,0.893
				c-1.905,0.6-3.629,1.568-5.249,2.728c-1.06,0.76-2.03,1.622-2.926,2.586c0.097-0.168,0.188-0.337,0.288-0.502
				c0.106-0.176,0.215-0.351,0.33-0.521C4.5,4.832,6.859,2.787,9.829,1.475c1.685-0.745,3.46-1.171,5.292-1.369
				c2.482-0.269,4.919-0.039,7.265,0.801c4.157,1.49,7.149,4.22,8.669,8.437c0.513,1.423,0.73,2.898,0.639,4.408
				c-0.187,3.067-1.261,5.763-3.401,8c-1.607,1.682-3.515,2.888-5.737,3.584C22.449,25.369,22.344,25.399,22.237,25.43"/>
		</g>
		<g>
			<defs>
				<rect id="SVGID_21_" x="0" y="-0.001" width="31.714" height="33.686"/>
			</defs>
			<clipPath id="SVGID_22_">
				<use xlink:href="#SVGID_21_"  overflow="visible"/>
			</clipPath>
			<path clip-path="url(#SVGID_22_)" fill="#BD242A" d="M24.644,10.054c-1.229-0.492-2.462-0.895-3.774-0.779
				c-2.229,0.196-4.223,0.938-5.723,2.703c-0.665,0.782-0.966,1.714-1.117,2.708c-0.215,1.417-0.164,2.813,0.32,4.176
				c0.259,0.729,0.648,1.384,1.114,2.032c-0.708-0.303-1.428-0.579-2.12-0.912c-1.285-0.618-2.465-1.391-3.32-2.561
				c-0.904-1.236-1.528-2.589-1.57-4.154c-0.028-1.022,0.281-1.909,0.961-2.699c1.493-1.736,3.366-2.811,5.596-3.226
				c3.299-0.613,6.334-0.008,8.995,2.126C24.23,9.648,24.431,9.858,24.644,10.054"/>
		</g>
		<g>
			<defs>
				<rect id="SVGID_23_" x="0" y="-0.001" width="31.714" height="33.686"/>
			</defs>
			<clipPath id="SVGID_24_">
				<use xlink:href="#SVGID_23_"  overflow="visible"/>
			</clipPath>
			<path clip-path="url(#SVGID_24_)" fill="#BD242A" d="M27.327,18.953c-0.024,0.064-0.04,0.134-0.073,0.194
				c-1.243,2.342-2.935,4.266-5.301,5.518c-1.627,0.86-3.363,1.428-5.22,1.418c-2.49-0.012-4.68-0.858-6.516-2.566
				c-1.578-1.468-2.511-3.279-2.855-5.397c-0.251-1.547-0.131-3.073,0.335-4.57c0.01-0.033,0.032-0.063,0.072-0.138
				c0.049,0.865,0.214,1.662,0.527,2.422c0.793,1.925,2.164,3.334,3.928,4.395c1.318,0.792,2.783,1.164,4.258,1.506
				c1.104,0.257,2.222,0.429,3.356,0.427c2.126-0.003,4.069-0.615,5.798-1.858C26.218,19.884,26.759,19.409,27.327,18.953"/>
		</g>
		<g>
			<defs>
				<rect id="SVGID_25_" x="0" y="-0.001" width="31.714" height="33.686"/>
			</defs>
			<clipPath id="SVGID_26_">
				<use xlink:href="#SVGID_25_"  overflow="visible"/>
			</clipPath>
			<path clip-path="url(#SVGID_26_)" fill="#BD242A" d="M18.044,10.527c0.74-0.163,1.477-0.348,2.222-0.483
				c1.182-0.214,2.329-0.054,3.412,0.465c0.35,0.168,0.686,0.387,0.985,0.633c1.161,0.955,1.492,2.191,0.955,3.594
				c-0.656,1.712-1.907,2.812-3.632,3.363c-2.005,0.641-3.944,0.497-5.755-0.646c-0.695-0.44-1.34-1.177-1.588-1.779
				c0.364,0,0.714,0.003,1.064-0.001c0.743-0.008,1.478-0.072,2.164-0.382c1.04-0.47,1.623-1.291,1.771-2.411
				c0.097-0.737-0.214-1.31-0.813-1.732c-0.257-0.182-0.52-0.356-0.78-0.533C18.047,10.585,18.045,10.557,18.044,10.527"/>
		</g>
		<g>
			<defs>
				<rect id="SVGID_27_" x="0" y="-0.001" width="31.714" height="33.686"/>
			</defs>
			<clipPath id="SVGID_28_">
				<use xlink:href="#SVGID_27_"  overflow="visible"/>
			</clipPath>
			<path clip-path="url(#SVGID_28_)" fill="#BD242A" d="M8.395,27.613c3.445,2.35,7.228,3.343,11.374,2.849
				c4.099-0.488,7.624-2.195,10.632-5.082c0.064,0.838-0.079,1.592-0.394,2.305c-0.801,1.816-2.175,3-4.063,3.594
				c-2.246,0.705-4.549,0.98-6.892,0.832c-3.41-0.217-6.559-1.219-9.328-3.274c-0.39-0.29-0.752-0.616-1.126-0.927
				c-0.086-0.072-0.169-0.146-0.254-0.221C8.361,27.663,8.378,27.638,8.395,27.613"/>
		</g>
	</g>
	<g>
		<g>
			<defs>
				<rect id="SVGID_29_" x="0" y="-0.001" width="31.714" height="33.686"/>
			</defs>
			<clipPath id="SVGID_30_">
				<use xlink:href="#SVGID_29_"  overflow="visible"/>
			</clipPath>
		</g>
		<g>
			<defs>
				<rect id="SVGID_31_" x="0" y="-0.001" width="31.714" height="33.686"/>
			</defs>
			<clipPath id="SVGID_32_">
				<use xlink:href="#SVGID_31_"  overflow="visible"/>
			</clipPath>
		</g>
		<g>
			<defs>
				<rect id="SVGID_33_" x="0" y="-0.001" width="31.714" height="33.686"/>
			</defs>
			<clipPath id="SVGID_34_">
				<use xlink:href="#SVGID_33_"  overflow="visible"/>
			</clipPath>
		</g>
		<g>
			<defs>
				<rect id="SVGID_35_" x="0" y="-0.001" width="31.714" height="33.686"/>
			</defs>
			<clipPath id="SVGID_36_">
				<use xlink:href="#SVGID_35_"  overflow="visible"/>
			</clipPath>
		</g>
		<g>
			<defs>
				<rect id="SVGID_37_" x="0" y="-0.001" width="31.714" height="33.686"/>
			</defs>
			<clipPath id="SVGID_38_">
				<use xlink:href="#SVGID_37_"  overflow="visible"/>
			</clipPath>
		</g>
		<g>
			<defs>
				<rect id="SVGID_39_" x="0" y="-0.001" width="31.714" height="33.686"/>
			</defs>
			<clipPath id="SVGID_40_">
				<use xlink:href="#SVGID_39_"  overflow="visible"/>
			</clipPath>
		</g>
		<g>
			<defs>
				<rect id="SVGID_41_" x="0" y="-0.001" width="31.714" height="33.686"/>
			</defs>
			<clipPath id="SVGID_42_">
				<use xlink:href="#SVGID_41_"  overflow="visible"/>
			</clipPath>
		</g>
	</g>
</g>
</svg>
