<?xml version="1.0" encoding="utf-8"?>
<!-- Generator: Adobe Illustrator 16.0.0, SVG Export Plug-In . SVG Version: 6.00 Build 0)  -->
<!DOCTYPE svg PUBLIC "-//W3C//DTD SVG 1.1//EN" "http://www.w3.org/Graphics/SVG/1.1/DTD/svg11.dtd">
<svg version="1.1" id="Layer_1" xmlns="http://www.w3.org/2000/svg" xmlns:xlink="http://www.w3.org/1999/xlink" x="0px" y="0px"
	 width="49.121px" height="49.821px" viewBox="3.785 4.584 49.121 49.821" enable-background="new 3.785 4.584 49.121 49.821"
	 xml:space="preserve">
<path fill="#FAD46B" d="M51.497,34.785c0.354-1.624,0.539-3.303,0.539-5.029c0-12.938-10.488-23.427-23.428-23.427
	c-1.365,0-2.703,0.119-4.008,0.342c-2.093-1.319-4.571-2.087-7.228-2.087c-7.505,0-13.588,6.084-13.588,13.59
	c0,2.508,0.683,4.854,1.867,6.871c-0.313,1.521-0.474,3.099-0.474,4.711c0,12.941,10.487,23.431,23.429,23.431
	c1.467,0,2.897-0.136,4.289-0.393c1.914,1.027,4.1,1.611,6.424,1.611c7.504,0,13.586-6.083,13.586-13.587
	C52.907,38.65,52.399,36.604,51.497,34.785z M40.624,40.953c-1.082,1.533-2.684,2.749-4.76,3.611
	c-2.055,0.854-4.518,1.288-7.32,1.288c-3.364,0-6.188-0.594-8.389-1.762c-1.575-0.849-2.872-1.999-3.858-3.424
	c-0.993-1.433-1.498-2.856-1.498-4.231c0-0.857,0.328-1.603,0.977-2.211c0.642-0.604,1.464-0.91,2.446-0.91
	c0.805,0,1.5,0.24,2.063,0.716c0.539,0.459,1,1.136,1.373,2.009c0.416,0.953,0.867,1.756,1.346,2.385
	c0.461,0.61,1.121,1.121,1.966,1.521c0.85,0.401,1.995,0.605,3.401,0.605c1.938,0,3.527-0.412,4.721-1.229
	c1.168-0.796,1.732-1.753,1.732-2.923c0-0.925-0.295-1.65-0.902-2.224c-0.641-0.597-1.479-1.058-2.502-1.379
	c-1.063-0.331-2.51-0.69-4.297-1.065c-2.434-0.521-4.498-1.139-6.141-1.835c-1.683-0.716-3.036-1.708-4.026-2.946
	c-1.005-1.261-1.516-2.837-1.516-4.695c0-1.77,0.535-3.366,1.591-4.74c1.047-1.367,2.578-2.432,4.548-3.157
	c1.943-0.719,4.256-1.084,6.875-1.084c2.092,0,3.93,0.244,5.467,0.719c1.545,0.48,2.847,1.13,3.869,1.929
	c1.029,0.807,1.797,1.665,2.279,2.562c0.484,0.901,0.729,1.802,0.729,2.671c0,0.838-0.321,1.599-0.961,2.264
	c-0.643,0.666-1.45,1.004-2.405,1.004c-0.867,0-1.548-0.213-2.019-0.627c-0.438-0.391-0.893-0.995-1.397-1.863
	c-0.584-1.108-1.291-1.984-2.103-2.602c-0.789-0.601-2.104-0.902-3.914-0.902c-1.678,0-3.045,0.337-4.059,1.004
	c-0.978,0.639-1.453,1.374-1.453,2.244c0,0.535,0.154,0.979,0.471,1.363c0.332,0.409,0.804,0.763,1.396,1.063
	c0.615,0.311,1.252,0.556,1.887,0.729c0.65,0.182,1.742,0.449,3.24,0.795c1.896,0.408,3.641,0.863,5.18,1.357
	c1.563,0.5,2.908,1.112,4.01,1.83c1.121,0.729,2.011,1.667,2.642,2.789c0.633,1.125,0.953,2.513,0.953,4.127
	C42.265,37.654,41.712,39.416,40.624,40.953z"/>
</svg>
