<?xml version="1.0" encoding="utf-8"?>
<!-- Generator: Adobe Illustrator 16.0.0, SVG Export Plug-In . SVG Version: 6.00 Build 0)  -->
<!DOCTYPE svg PUBLIC "-//W3C//DTD SVG 1.1//EN" "http://www.w3.org/Graphics/SVG/1.1/DTD/svg11.dtd">
<svg version="1.1" id="LinkedIn_w_x2F__circle" xmlns="http://www.w3.org/2000/svg" xmlns:xlink="http://www.w3.org/1999/xlink"
	 x="0px" y="0px" width="571.469px" height="571.469px" viewBox="11.906 135.21 571.469 571.469"
	 enable-background="new 11.906 135.21 571.469 571.469" xml:space="preserve">
<path fill="#FFFFFF" d="M297.64,135.21c-157.809,0-285.734,127.926-285.734,285.735c0,157.808,127.926,285.734,285.734,285.734
	s285.734-127.926,285.734-285.734C583.374,263.136,455.448,135.21,297.64,135.21z M227.695,539.376h-57.861V353.172h57.861V539.376z
	 M198.406,330.313c-18.274,0-30.091-12.947-30.091-28.96c0-16.341,12.173-28.901,30.835-28.901s30.092,12.561,30.449,28.901
	C229.6,317.366,217.813,330.313,198.406,330.313z M439.019,539.376h-57.861V436.185c0-24.021-8.394-40.331-29.317-40.331
	c-15.983,0-25.478,11.042-29.675,21.668c-1.548,3.78-1.935,9.138-1.935,14.466v107.359H262.34V412.552
	c0-23.246-0.744-42.682-1.518-59.409h50.271l2.649,25.865h1.16c7.62-12.144,26.282-30.062,57.505-30.062
	c38.067,0,66.611,25.508,66.611,80.333V539.376z"/>
</svg>
