<?xml version="1.0" encoding="utf-8"?>
<!-- Generator: Adobe Illustrator 16.0.0, SVG Export Plug-In . SVG Version: 6.00 Build 0)  -->
<!DOCTYPE svg PUBLIC "-//W3C//DTD SVG 1.1//EN" "http://www.w3.org/Graphics/SVG/1.1/DTD/svg11.dtd">
<svg version="1.1" id="Слой_1" xmlns="http://www.w3.org/2000/svg" xmlns:xlink="http://www.w3.org/1999/xlink" x="0px" y="0px"
	 width="595.28px" height="595.256px" viewBox="0 0 595.28 595.256" enable-background="new 0 0 595.28 595.256"
	 xml:space="preserve">
<g>
	<defs>
		<rect id="SVGID_1_" width="595.28" height="595.256"/>
	</defs>
	<clipPath id="SVGID_2_">
		<use xlink:href="#SVGID_1_"  overflow="visible"/>
	</clipPath>
	<path clip-path="url(#SVGID_2_)" fill="#B9BDD7" d="M297.628,0C133.52,0,0,133.52,0,297.628
		c0,164.108,133.544,297.628,297.652,297.628c164.109,0,297.628-133.52,297.628-297.628C595.279,133.52,461.736,0,297.628,0
		 M381.973,187.491c1.67,5.702,5.321,12.001,11.023,19.04l2.291,3.125c0.953,1.313,2.194,2.72,3.388,4.128
		c-3.437-0.954-7.778-2.052-13.218-3.245l-7.445-22.691C379.516,187.801,380.828,187.658,381.973,187.491 M353.962,192.907
		l7.921,12.669l-0.645,0.072l-3.341,2.625c-2.528,2.051-21.473,1.312-28.178-1.432c-0.191-1.002-0.501-2.434-0.883-4.056
		l3.698,2.744l5.034-0.835C346.016,203.286,351.385,197.822,353.962,192.907 M297.628,562.806
		c-61.844,0-120.778-21.259-168.116-60.222c2.362-1.479,4.247-2.887,5.416-3.865l6.227-5.226l-5.535-16.63l8.041-25.339l0.668-4.032
		c0-9.664-3.842-20.83-14.054-22.834c-1.169-0.479-4.175-5.227-5.965-6.49c-5.082-3.722-9.114-9.186-14.053-9.186h-0.048
		c-0.907,0-3.483,1.454-5.034,0.429c-1.384-0.883-3.198-0.596-5.154-1.575c-1.169-0.548-3.126-0.858-2.863-0.477
		c-1.885-2.768-4.438-6.801-6.729-12.669c-1.837-5.131-3.483-7.684-12.121-17.395c-5.678-6.442-7.038-7.85-12.287-10.308
		l-2.195-1.002c-2.219-1.098-3.675-2.22-5.107-3.245c-2.266-1.622-5.082-3.674-9.162-5.345c-3.436-1.407-4.533-2.242-7.85-5.059
		c-1.193-1.073-2.6-2.266-4.294-3.364c-3.293-16.797-4.963-34.048-4.963-51.346l0.047-3.293c2.625-6.824,5.059-18.396,3.89-24.265
		c-0.072-1.48,0.859-6.109,1.431-8.852c0.978-4.82,1.814-9.592,1.718-11.93c0.501-2.005,4.056-7.445,5.941-10.356
		c2.506-3.865,4.653-7.444,5.631-9.83c1.002-2.434,6.514-10.904,9.83-15.986l5.536-8.685c1.455-2.267,4.82-7.635,3.531-13.552
		c6.275-4.438,14.364-10.188,15.414-11.071c1.288-1.289,12.073-13.076,1.026-33.547c-0.358-0.668,3.793-1.193,3.626-1.48
		c0.931-1.718,6.562-4.533,6.562-8.303v-0.883c0-7.277,2.839-12.979,9.234-12.979h3.96c1.432,0,2.84-4.176,4.152-4.415l9.735,2.363
		l20.161-8.494l2.148-4.462c0.024-0.024,2.147-4.128,6.633-7.325c6.681-4.796,8.709-7.826,11.834-13.004l-9.567-7.182l11.285,5.082
		c1.313-1.288,3.961-10.092,10.833-17.465c7.993-8.59,12.574-16.654,12.049-16.654h4.987l3.531,2.243
		c1.074-1.193,5.559-3.102,9.019-7.779c45.93-16.845,96.585-18.921,144.304-9.186c-6.299,0.143-12.216,2.84-21.235,7.158
		c-2.194,1.05-4.151,2.434-5.32,2.816c-2.053,0.501-5.153,1.956-8.422,3.436c-1.981,0.858-5.655,2.576-6.084,2.767
		c-8.138,0-15.151,6.705-20.735,14.03c-6.991,12.717-5.297,20.376-3.054,24.146l4.581,8.089h3.317c-4.343,0-8.375,6.346-10.88,8.541
		l-12.049-14.864l-11.382-24.003l-19.899,17.179v8.899l-12.192-4.175l-12.36,25.769l17.609,24.289l6.991-6.156v1.67l11.166-2.839
		c-0.262,2.816-0.835,5.583,0.096,8.16l-32.688,7.588l2.815,12.168c0.501,1.957,0.621,5.798,0.788,8.112
		c-4.486,17.8-0.43,23.216,1.169,25.292l2.935,3.245c-4.128,4.175-6.848,8.828-8.208,11.119c-1.861,2.171-5.249,6.012-5.965,11.691
		c-1.074,1.36-3.46,3.531-5.154,4.676l-2.171,1.337c-7.826,4.795-15.151,9.591-18.85,15.747c-4.604,7.755-7.515,14.555-8.613,20.233
		c-1.265,6.323-1.265,11.262-1.265,18.73c0,2.291-0.119,4.247-0.238,6.061c-0.239,3.96-0.501,8.064,0.405,13.409
		c1.909,11.429,17.633,31.947,17.848,32.211c4.915,6.156,10.737,13.051,17.489,17.06c3.483,2.1,7.993,5.821,9.854,7.396
		c4.486,5.272,14.913,9.807,25.125,5.917c2.863-1.098,5.75-1.622,8.541-2.29c5.154-1.146,11.024-2.41,16.798-5.679
		c1.336-0.764,2.529-1.455,3.626-1.956c4.462,7.42,13.624,11.095,22.906,8.041l0.191-0.072c0.31,1.909,0.596,3.674,0.905,5.321
		c0.335,1.621,0.621,3.029,0.598,5.845c-0.191,4.057-0.549,11.62,5.606,17.824c1.218,1.217,3.03,2.672,4.987,4.294
		c0.835,0.645,2.076,1.623,3.03,2.481c0.405,5.106,1.479,13.648,4.151,18.968c1.288,2.507,1.622,4.438,2.075,3.579
		c-2.266,4.486-6.728,16.679-7.181,18.206c-2.769,12.454-1.17,17.203-0.692,18.563c1.933,5.965,5.56,11.548,11.094,17.059
		c0.67,0.668,0.979,1.647,1.623,4.058c0.764,2.767,1.789,6.536,4.414,10.045c1.051,1.479,3.46,7.587,4.653,11.285l1.503,8.303
		l-0.023,23.024l13.647-1.956c0,0,22.38-3.269,26.747-4.366c5.082-1.313,22.285-9.258,28.465-15.413
		c3.149-3.15,4.652-6.084,5.654-8.041c0.812-1.503,0.907-1.694,1.694-2.387c5.105-4.056,14.388-11.189,14.388-11.189l5.034-3.865
		l-1.098-17.394l8.565-11.55l7.302-7.443c-1.718,4.104-3.89,9.449-4.677,12.574c-1.431,5.679-0.478,12.526,4.056,18.276l5.297,3.293
		h5.798l4.271,1.599c4.438-1.455,7.945-3.65,11.405-6.943c1.05-1.002,2.052-1.455,2.695-1.933
		c6.515-4.294,12.813-15.271,14.316-21.14l4.128-15.271c1.193-4.748,2.41-13.91,2.41-18.252c0-4.319-1.146-9.091-1.384-10.022
		l-7.468-30.135l-20.879,39.226c-3.054,1.479-5.249,2.863-7.229,4.295c0.023-1.813-0.143-3.293-0.358-4.056
		c-0.501-2.005-1.551-11.238-2.48-19.709c1.479-3.101,3.412-6.704,4.509-8.255c1.957-2.601,3.078-5.202,3.961-7.254
		c1.074-2.481,1.598-3.65,3.34-5.129c6.418-5.321,10.713-11.238,13.887-15.558l2.481-3.316c3.412-4.485,8.733-11.644,10.498-14.411
		c2.935-4.366,4.963-12.192,5.894-16.416l3.795-17.226l-14.293,2.386c1.718-0.859,3.269-1.671,4.318-2.386
		c0.835-0.55,2.291-1.385,3.938-2.315c6.514-3.65,11.381-6.466,14.41-9.496l6.396-4.653c5.606-3.722,12.598-8.375,13.481-16.415
		c1.239,0.978,2.553,1.908,4.079,2.624c1.026,0.644,3.483,3.341,5.465,5.822c1.479,3.484,5.2,12.264,5.965,15.342
		c0.523,2.076,2.075,5.941,3.769,9.974c1.313,3.054,2.744,6.275,3.055,6.562c0,2.696,1.217,10.762,5.702,15.892
		C542.455,463.072,431.458,562.806,297.628,562.806 M301.445,182.313c-0.095,0-0.31,0.048-0.382,0.048
		c-1.121-0.215-4.652-1.36-7.444-2.458l-2.672-1.05l-2.84,0.263c-1.002,0.119-2.481,0.31-4.104,0.501
		c0.096-0.143,0.334-0.501,0.406-0.573c0.835-1.264,1.622-2.457,4.844-3.483c5.893-1.981,9.065-4.725,10.164-6.156
		c1.693-0.525,5.726-1.336,8.971-1.861l5.011,3.316c1.479,1.766,3.579,3.722,6.609,5.631l-19.064,5.44L301.445,182.313z"/>
</g>
</svg>
