<?xml version="1.0" encoding="utf-8"?>
<!-- Generator: Adobe Illustrator 19.2.0, SVG Export Plug-In . SVG Version: 6.00 Build 0)  -->
<svg version="1.1" id="Layer_1" xmlns="http://www.w3.org/2000/svg" xmlns:xlink="http://www.w3.org/1999/xlink" x="0px" y="0px"
	 viewBox="0 0 200 200" style="enable-background:new 0 0 200 200;" xml:space="preserve">
<style type="text/css">
	.st0{fill:#B9BDD7;}
</style>
<g>
	<path class="st0" d="M166.1,65L145,81.7h-6.7l17.2-13.6l8-6.4l0,0c0.1-0.1,0.2-0.2,0.2-0.2c0.8-0.8,1-1.8,0.8-2.8
		c-0.1-0.4-0.3-0.8-0.5-1.2l-21.9-27.6l-6.4-8c-1-1.3-2.9-1.5-4.2-0.5l-8,6.4l-68.1,54h-6.8l80.3-63.6c3.1-2.5,7.6-1.9,10.1,1.2
		L167.3,55C169.7,58.1,169.2,62.6,166.1,65z M156.3,50.7C156.3,50.7,156.3,50.7,156.3,50.7l-15.7-19.8c-5.1,3-11.6,2.3-15.9-1.8
		L58.2,81.7h32.1c-4.9-8.7-3.8-19.1,3.1-24.6c7.8-6.2,20.1-3.7,27.4,5.6c4.6,5.8,6.2,13,4.8,19h9.8l19.1-15.1
		C151.4,61.5,152.1,55,156.3,50.7z M106.8,70.7c-3.3,1-4.8,1.2-5.6,0.3c-0.7-0.8-0.7-2.1,1.2-3.7c2.1-1.7,4-2.1,5.1-2.4l-1.8-4
		c-1.4,0.3-3,0.9-5.1,2.4l-1-1.3c-0.3-0.3-0.7-0.6-1.1-0.6c-0.5-0.1-0.9,0.1-1.2,0.3L97,61.9c-0.3,0.3-0.6,0.7-0.6,1.1
		c-0.1,0.5,0.1,0.9,0.3,1.2l1.2,1.5c-2.7,3.1-2.9,6.6-0.8,9.2c2.3,2.9,5.6,2.6,9.6,1.2c2.8-1,4.3-1,5.2,0.1c0.9,1.2,0.3,2.8-1.4,4.1
		c-0.7,0.5-1.4,1-2.2,1.4h7c2.8-3.2,2.8-6.9,0.8-9.5C114,69.6,111.3,69.1,106.8,70.7z"/>
	<path class="st0" d="M167,77.6H157l7.6-6c0,0,0.1,0.1,0.1,0.1c1.6,1.6,2.4,3.6,2.4,5.7V77.6z M183.1,133.3v19.3
		c0,0.6-0.2,1.2-0.7,1.7c-0.5,0.5-1.1,0.7-1.7,0.7h-33.8c-3.1,0-6.2-1.2-8.5-3.5c-2.4-2.4-3.5-5.4-3.5-8.5c0-3.1,1.2-6.2,3.5-8.5
		s5.4-3.5,8.5-3.5h33.8c0.6,0,1.2,0.2,1.7,0.7C182.9,132.1,183.1,132.7,183.1,133.3z M153,142.9c0-3.4-2.7-6.1-6.1-6.1
		c-3.4,0-6.1,2.7-6.1,6.1c0,3.4,2.7,6.1,6.1,6.1C150.3,149,153,146.3,153,142.9z M146.9,159h31.6v28.9c0,3.1-1.2,6.2-3.5,8.5
		c-2.4,2.4-5.4,3.5-8.5,3.5H29c-3.1,0-6.2-1.2-8.5-3.5c-2.4-2.4-3.5-5.4-3.5-8.5V81.3c0-3.1,1.2-6.2,3.5-8.5
		c2.4-2.4,5.4-3.5,8.5-3.5h8l-3.6,8.3h-4.1c-1,0-2.1,0.4-2.8,1.2c-0.8,0.8-1.2,1.8-1.2,2.8v0.3c0,1,0.4,2.1,1.2,2.8
		c0.8,0.8,1.8,1.2,2.8,1.2h137.3c3.1,0,6.2,1.2,8.5,3.5c2.4,2.4,3.5,5.4,3.5,8.5v28.9h-31.6c-4.3,0-8.3,1.7-11.4,4.7
		c-3,3-4.7,7.1-4.7,11.4c0,4.3,1.7,8.3,4.7,11.4C138.6,157.3,142.6,159,146.9,159z M169.3,116c0-0.7-0.5-1.2-1.2-1.2
		s-1.2,0.5-1.2,1.2v5.6c0,0.7,0.5,1.2,1.2,1.2s1.2-0.5,1.2-1.2V116z M169.3,104c0-0.7-0.5-1.2-1.2-1.2s-1.2,0.5-1.2,1.2v5.6
		c0,0.7,0.5,1.2,1.2,1.2s1.2-0.5,1.2-1.2V104z M164.6,96.3c0,0.7,0.5,1.2,1.2,1.2h0.6c0.2,0,0.4,0.2,0.4,0.4v0.6
		c0,0.7,0.5,1.2,1.2,1.2s1.2-0.5,1.2-1.2v-0.6c0-1.5-1.3-2.8-2.8-2.8h-0.6C165.2,95.1,164.6,95.7,164.6,96.3z M154,96.3
		c0,0.7,0.5,1.2,1.2,1.2h5.6c0.7,0,1.2-0.5,1.2-1.2c0-0.7-0.5-1.2-1.2-1.2h-5.6C154.5,95.1,154,95.7,154,96.3z M141.9,96.3
		c0,0.7,0.5,1.2,1.2,1.2h5.6c0.7,0,1.2-0.5,1.2-1.2c0-0.7-0.5-1.2-1.2-1.2h-5.6C142.5,95.1,141.9,95.7,141.9,96.3z M129.9,96.3
		c0,0.7,0.5,1.2,1.2,1.2h5.6c0.7,0,1.2-0.5,1.2-1.2c0-0.7-0.5-1.2-1.2-1.2h-5.6C130.4,95.1,129.9,95.7,129.9,96.3z M26.1,98.6
		c0,0.7,0.5,1.2,1.2,1.2s1.2-0.5,1.2-1.2v-0.6c0-0.2,0.2-0.4,0.4-0.4h0.6c0.7,0,1.2-0.5,1.2-1.2c0-0.7-0.5-1.2-1.2-1.2H29
		c-1.5,0-2.8,1.3-2.8,2.8L26.1,98.6L26.1,98.6z M26.1,109.6c0,0.7,0.5,1.2,1.2,1.2s1.2-0.5,1.2-1.2V104c0-0.7-0.5-1.2-1.2-1.2
		s-1.2,0.5-1.2,1.2V109.6z M26.1,121.7c0,0.7,0.5,1.2,1.2,1.2s1.2-0.5,1.2-1.2V116c0-0.7-0.5-1.2-1.2-1.2s-1.2,0.5-1.2,1.2V121.7z
		 M26.1,133.7c0,0.7,0.5,1.2,1.2,1.2s1.2-0.5,1.2-1.2v-5.6c0-0.7-0.5-1.2-1.2-1.2s-1.2,0.5-1.2,1.2V133.7z M26.1,145.8
		c0,0.7,0.5,1.2,1.2,1.2s1.2-0.5,1.2-1.2v-5.6c0-0.7-0.5-1.2-1.2-1.2s-1.2,0.5-1.2,1.2V145.8z M26.1,157.8c0,0.7,0.5,1.2,1.2,1.2
		s1.2-0.5,1.2-1.2v-5.6c0-0.7-0.5-1.2-1.2-1.2s-1.2,0.5-1.2,1.2V157.8z M26.1,169.9c0,0.7,0.5,1.2,1.2,1.2s1.2-0.5,1.2-1.2v-5.6
		c0-0.7-0.5-1.2-1.2-1.2s-1.2,0.5-1.2,1.2V169.9z M26.1,181.9c0,0.7,0.5,1.2,1.2,1.2s1.2-0.5,1.2-1.2v-5.6c0-0.7-0.5-1.2-1.2-1.2
		s-1.2,0.5-1.2,1.2V181.9z M30.8,189.6c0-0.7-0.5-1.2-1.2-1.2H29c-0.2,0-0.4-0.2-0.4-0.4v-0.6c0-0.7-0.5-1.2-1.2-1.2
		s-1.2,0.5-1.2,1.2v0.6c0,1.5,1.3,2.8,2.8,2.8h0.6C30.3,190.8,30.8,190.2,30.8,189.6z M41.5,189.6c0-0.7-0.5-1.2-1.2-1.2h-5.6
		c-0.7,0-1.2,0.5-1.2,1.2s0.5,1.2,1.2,1.2h5.6C40.9,190.8,41.5,190.2,41.5,189.6z M41.5,96.3c0-0.7-0.5-1.2-1.2-1.2h-5.6
		c-0.7,0-1.2,0.5-1.2,1.2c0,0.7,0.5,1.2,1.2,1.2h5.6C40.9,97.5,41.5,97,41.5,96.3z M53.5,189.6c0-0.7-0.5-1.2-1.2-1.2h-5.6
		c-0.7,0-1.2,0.5-1.2,1.2s0.5,1.2,1.2,1.2h5.6C53,190.8,53.5,190.2,53.5,189.6z M53.5,96.3c0-0.7-0.5-1.2-1.2-1.2h-5.6
		c-0.7,0-1.2,0.5-1.2,1.2c0,0.7,0.5,1.2,1.2,1.2h5.6C53,97.5,53.5,97,53.5,96.3z M65.6,189.6c0-0.7-0.5-1.2-1.2-1.2h-5.6
		c-0.7,0-1.2,0.5-1.2,1.2s0.5,1.2,1.2,1.2h5.6C65,190.8,65.6,190.2,65.6,189.6z M65.6,96.3c0-0.7-0.5-1.2-1.2-1.2h-5.6
		c-0.7,0-1.2,0.5-1.2,1.2c0,0.7,0.5,1.2,1.2,1.2h5.6C65,97.5,65.6,97,65.6,96.3z M77.6,189.6c0-0.7-0.5-1.2-1.2-1.2h-5.6
		c-0.7,0-1.2,0.5-1.2,1.2s0.5,1.2,1.2,1.2h5.6C77.1,190.8,77.6,190.2,77.6,189.6z M77.6,96.3c0-0.7-0.5-1.2-1.2-1.2h-5.6
		c-0.7,0-1.2,0.5-1.2,1.2c0,0.7,0.5,1.2,1.2,1.2h5.6C77.1,97.5,77.6,97,77.6,96.3z M89.7,189.6c0-0.7-0.5-1.2-1.2-1.2h-5.6
		c-0.7,0-1.2,0.5-1.2,1.2s0.5,1.2,1.2,1.2h5.6C89.1,190.8,89.7,190.2,89.7,189.6z M89.7,96.3c0-0.7-0.5-1.2-1.2-1.2h-5.6
		c-0.7,0-1.2,0.5-1.2,1.2c0,0.7,0.5,1.2,1.2,1.2h5.6C89.1,97.5,89.7,97,89.7,96.3z M101.7,189.6c0-0.7-0.5-1.2-1.2-1.2h-5.6
		c-0.7,0-1.2,0.5-1.2,1.2s0.5,1.2,1.2,1.2h5.6C101.2,190.8,101.7,190.2,101.7,189.6z M101.7,96.3c0-0.7-0.5-1.2-1.2-1.2h-5.6
		c-0.7,0-1.2,0.5-1.2,1.2c0,0.7,0.5,1.2,1.2,1.2h5.6C101.2,97.5,101.7,97,101.7,96.3z M113.8,189.6c0-0.7-0.5-1.2-1.2-1.2H107
		c-0.7,0-1.2,0.5-1.2,1.2s0.5,1.2,1.2,1.2h5.6C113.3,190.8,113.8,190.2,113.8,189.6z M113.8,96.3c0-0.7-0.5-1.2-1.2-1.2H107
		c-0.7,0-1.2,0.5-1.2,1.2c0,0.7,0.5,1.2,1.2,1.2h5.6C113.3,97.5,113.8,97,113.8,96.3z M125.8,189.6c0-0.7-0.5-1.2-1.2-1.2H119
		c-0.7,0-1.2,0.5-1.2,1.2s0.5,1.2,1.2,1.2h5.6C125.3,190.8,125.8,190.2,125.8,189.6z M125.8,96.3c0-0.7-0.5-1.2-1.2-1.2H119
		c-0.7,0-1.2,0.5-1.2,1.2c0,0.7,0.5,1.2,1.2,1.2h5.6C125.3,97.5,125.8,97,125.8,96.3z M137.9,189.6c0-0.7-0.5-1.2-1.2-1.2h-5.6
		c-0.7,0-1.2,0.5-1.2,1.2s0.5,1.2,1.2,1.2h5.6C137.4,190.8,137.9,190.2,137.9,189.6z M166.9,169.9c0,0.7,0.5,1.2,1.2,1.2
		s1.2-0.5,1.2-1.2v-5.6c0-0.7-0.5-1.2-1.2-1.2s-1.2,0.5-1.2,1.2V169.9z M166.9,181.9c0,0.7,0.5,1.2,1.2,1.2s1.2-0.5,1.2-1.2v-5.6
		c0-0.7-0.5-1.2-1.2-1.2s-1.2,0.5-1.2,1.2V181.9z M164.6,189.6c0,0.7,0.5,1.2,1.2,1.2h0.6c1.5,0,2.8-1.3,2.8-2.8v-0.6
		c0-0.7-0.5-1.2-1.2-1.2s-1.2,0.5-1.2,1.2v0.6c0,0.2-0.2,0.4-0.4,0.4h-0.6C165.2,188.3,164.6,188.9,164.6,189.6z M154,189.6
		c0,0.7,0.5,1.2,1.2,1.2h5.6c0.7,0,1.2-0.5,1.2-1.2s-0.5-1.2-1.2-1.2h-5.6C154.5,188.3,154,188.9,154,189.6z M148.7,188.3h-5.6
		c-0.7,0-1.2,0.5-1.2,1.2s0.5,1.2,1.2,1.2h5.6c0.7,0,1.2-0.5,1.2-1.2S149.4,188.3,148.7,188.3z"/>
	<path class="st0" d="M69,53l3.5,2.7c-0.8,0.7-2.2,2-3.3,4.5c0,0.1,0,0.1-0.1,0.2l-4.8,3.8c-0.1-1,0-2,0.2-3.1l-1.8-0.8
		c-0.4-0.2-0.7-0.5-0.9-0.9c-0.2-0.4-0.2-0.9,0-1.3l0.1-0.3c0.2-0.4,0.5-0.7,0.9-0.9c0.4-0.2,0.9-0.2,1.3,0l1.5,0.7
		C66.8,55.2,68,53.9,69,53z M120.4,18.5L78.5,0.6c-3.6-1.6-7.9,0.1-9.4,3.8L35.9,81.7h4.6l28.4-66.3L73,6c0.7-1.5,2.4-2.2,3.9-1.6
		l9.4,4l31.4,13.4l3.7-2.9C121,18.8,120.7,18.6,120.4,18.5z M108.7,20C108.7,20,108.7,20,108.7,20l-23.2-10c-3,5.1-9.1,7.5-14.9,6
		l-28,65.3l14.6-11.5c-2.3-4.5-2.7-9.6-0.8-14.2c3.9-9.1,15.9-12.8,26.8-8.1c0.5,0.2,0.9,0.4,1.4,0.6l24.7-19.5
		C108.1,25.9,107.9,22.9,108.7,20z"/>
</g>
</svg>
