<?xml version="1.0" encoding="utf-8"?>
<!-- Generator: Adobe Illustrator 16.0.0, SVG Export Plug-In . SVG Version: 6.00 Build 0)  -->
<!DOCTYPE svg PUBLIC "-//W3C//DTD SVG 1.1//EN" "http://www.w3.org/Graphics/SVG/1.1/DTD/svg11.dtd">
<svg version="1.1" id="VK_w_x2F__circle" xmlns="http://www.w3.org/2000/svg" xmlns:xlink="http://www.w3.org/1999/xlink" x="0px"
	 y="0px" width="571.469px" height="571.469px" viewBox="11.906 135.21 571.469 571.469"
	 enable-background="new 11.906 135.21 571.469 571.469" xml:space="preserve">
<path fill="#FFFFFF" d="M297.64,135.21c-157.809,0-285.734,127.926-285.734,285.735c0,157.808,127.926,285.734,285.734,285.734
	s285.734-127.926,285.734-285.734C583.374,263.136,455.448,135.21,297.64,135.21z M407.529,457.585c0,0,25.27,24.941,31.49,36.52
	c0.179,0.238,0.268,0.477,0.327,0.596c2.53,4.256,3.126,7.561,1.876,10.029c-2.084,4.107-9.228,6.133-11.668,6.311
	c0,0-43.396,0-44.646,0c-3.096,0-9.585-0.803-17.442-6.221c-6.042-4.227-11.995-11.162-17.799-17.918
	c-8.661-10.061-16.162-18.752-23.722-18.752c-0.952,0-1.935,0.15-2.828,0.447c-5.714,1.846-13.036,10-13.036,31.729
	c0,6.787-5.357,10.686-9.138,10.686c0,0-19.495,0-20.447,0c-6.965,0-43.247-2.441-75.393-36.342
	c-39.348-41.521-74.768-124.801-75.064-125.575c-2.232-5.387,2.381-8.274,7.411-8.274h45.092c6.013,0,7.978,3.661,9.347,6.905
	c1.606,3.78,7.5,18.811,17.174,35.717c15.686,27.562,25.299,38.752,33.008,38.752c1.459,0,2.798-0.387,4.138-1.071
	c10.06-5.596,8.185-41.461,7.738-48.902c0-1.399-0.029-16.042-5.179-23.067c-3.691-5.09-9.971-7.024-13.781-7.739
	c0.982-1.458,3.185-3.69,5.923-5.03c6.905-3.453,19.347-3.959,31.699-3.959h6.875c13.395,0.179,16.847,1.042,21.698,2.262
	c9.822,2.352,10.03,8.691,9.167,30.389c-0.268,6.161-0.535,13.126-0.535,21.341c0,1.786-0.09,3.69-0.09,5.714
	c-0.298,11.042-0.654,23.573,7.144,28.723c1.012,0.625,2.173,0.981,3.394,0.981c2.708,0,10.863,0,32.948-37.889
	c9.674-16.727,17.174-36.461,17.71-37.919c0.446-0.774,1.756-3.155,3.304-4.078c1.22-0.714,2.857-0.863,3.69-0.863h53.01
	c5.774,0,9.732,0.863,10.477,3.095c1.31,3.542-0.237,14.346-24.436,47.117c-4.078,5.417-7.68,10.149-10.805,14.257
	C384.224,434.31,384.224,435.767,407.529,457.585z"/>
</svg>
