<?xml version="1.0" encoding="utf-8"?>
<!-- Generator: Adobe Illustrator 19.2.1, SVG Export Plug-In . SVG Version: 6.00 Build 0)  -->
<svg version="1.1" id="Layer_1" xmlns="http://www.w3.org/2000/svg" xmlns:xlink="http://www.w3.org/1999/xlink" x="0px" y="0px"
	 viewBox="0 0 108.4 52.3" style="enable-background:new 0 0 108.4 52.3;" xml:space="preserve">
<style type="text/css">
	.st0{fill:#FFFFFF;}
	.st1{fill:#FEE444;}
</style>
<g>
	<rect x="7.5" y="6.8" class="st0" width="92.8" height="29.5"/>
	<path class="st1" d="M20.1,0C9.1,0,0.1,8.5,0.1,19L0,52.3l9.3-9.3h79c11.1,0,20.1-8.5,20.1-19V0H20.1z M99.1,23.9
		c0,4.6-5.6,9.7-10.8,9.7l-79.1,0l0-13.9C9.4,13.6,15,9.3,20.1,9.3l79,0L99.1,23.9z"/>
	<g>
		<path d="M90.4,18.1c0-0.5-0.2-0.8-0.5-1c-0.3-0.3-0.7-0.4-1.4-0.4c-0.6,0-1,0.1-1.3,0.4c-0.3,0.3-0.5,0.7-0.5,1v2.9
			c0,0.2,0,0.3,0,0.4c0-0.1,0-0.1,0-0.1c-0.2-0.2-0.3-0.4-0.5-0.7l-2.2-2.9c-0.3-0.3-0.6-0.6-1-0.8c-0.3-0.1-0.7-0.3-1.1-0.3
			c-0.7,0-1.2,0.1-1.5,0.5c-0.4,0.3-0.6,0.7-0.6,1.1v6.3c0,0.4,0.2,0.8,0.5,1c0.3,0.3,0.7,0.3,1.3,0.3c0.6,0,1.1-0.1,1.4-0.3
			c0.2-0.3,0.4-0.6,0.4-1v-2.9c0-0.1,0-0.2,0-0.3c0.2,0.3,0.3,0.4,0.4,0.6l2.3,2.9c0.2,0.4,0.6,0.7,1,0.8c0.3,0.1,0.8,0.2,1.3,0.2
			c0.7,0,1.1-0.1,1.5-0.4c0.3-0.3,0.5-0.7,0.5-1.2V18.1"/>
		<path d="M73.1,16.6c-1.8,0-3.2,0.4-4.2,1.2c-1.1,0.8-1.5,2-1.5,3.5c0,1.4,0.5,2.6,1.5,3.5c1.1,0.8,2.4,1.2,4.2,1.2
			c1.8,0,3.2-0.4,4.2-1.2c1.1-0.8,1.6-2,1.6-3.5c0-1.4-0.6-2.6-1.6-3.5C76.4,17,74.9,16.6,73.1,16.6V19c0.7,0,1.2,0.2,1.5,0.6
			c0.2,0.3,0.4,0.9,0.4,1.7c0,0.8-0.2,1.4-0.4,1.8c-0.3,0.3-0.8,0.5-1.5,0.5c-0.6,0-1.1-0.2-1.5-0.5c-0.3-0.4-0.5-1-0.5-1.8
			c0-0.8,0.2-1.4,0.5-1.7c0.3-0.4,0.8-0.6,1.5-0.6"/>
		<path d="M62.7,20.3v-1.1h3.1c0.5,0,0.9-0.1,1.2-0.3c0.2-0.2,0.4-0.5,0.4-0.9c0-0.4-0.2-0.7-0.4-0.9c-0.3-0.2-0.7-0.3-1.3-0.3h-4.5
			c-0.9,0-1.5,0.1-1.8,0.4c-0.3,0.3-0.5,0.7-0.5,1.4v5.9c0,0.5,0.2,0.8,0.5,1c0.3,0.3,0.8,0.4,1.4,0.4c0.6,0,1.1-0.1,1.5-0.4
			c0.3-0.2,0.5-0.6,0.5-1v-1.8h2c0.6,0,1.1-0.1,1.3-0.3c0.3-0.2,0.4-0.5,0.4-0.8c0-0.4-0.1-0.7-0.4-0.9c-0.2-0.2-0.6-0.3-1.2-0.3
			H62.7"/>
		<path d="M55,16.9c-0.2,0.2-0.5,0.5-0.6,0.8L53,19.8l-1.2-2.1c-0.2-0.4-0.5-0.7-0.7-0.8c-0.2-0.2-0.6-0.3-1-0.3
			c-0.5,0-0.9,0.1-1.3,0.4c-0.3,0.3-0.6,0.6-0.6,1c0,0.2,0.1,0.3,0.1,0.5c0.1,0.1,0.2,0.3,0.3,0.5l2.5,3.5v2c0,0.5,0.2,0.8,0.5,1
			c0.3,0.3,0.8,0.3,1.4,0.3c0.6,0,1.1-0.1,1.5-0.3c0.3-0.3,0.5-0.6,0.5-1v-2l2.5-3.5c0.1-0.2,0.2-0.3,0.2-0.5
			c0.1-0.1,0.1-0.3,0.1-0.4c0-0.4-0.2-0.7-0.5-1c-0.3-0.3-0.7-0.4-1.3-0.4C55.7,16.7,55.3,16.8,55,16.9"/>
		<path d="M41.9,17c-0.3,0.2-0.6,0.6-0.8,1l-2.6,6c-0.1,0.1-0.1,0.1-0.1,0.3c0,0.1,0,0.2,0,0.3c0,0.4,0.2,0.7,0.4,1
			c0.3,0.2,0.7,0.3,1.3,0.3c0.4,0,0.7-0.1,1-0.2c0.3-0.2,0.5-0.5,0.6-0.8l0.2-0.3h3.2l-0.6-2.1h-1.9l1-2.7l0.9,2.7l0.6,2.1l0.2,0.4
			c0.1,0.3,0.3,0.5,0.6,0.7c0.3,0.1,0.6,0.2,1.1,0.2c0.5,0,1-0.1,1.2-0.3c0.3-0.3,0.5-0.6,0.5-1c0-0.1,0-0.2,0-0.3
			c0-0.1-0.1-0.1-0.1-0.3L46,18c-0.2-0.5-0.5-0.9-0.8-1c-0.2-0.2-0.6-0.3-1.1-0.3h-1C42.6,16.7,42.2,16.8,41.9,17"/>
		<path d="M32.7,17.1c-0.3-0.3-0.8-0.4-1.5-0.4c-0.6,0-1.1,0.1-1.4,0.4c-0.3,0.3-0.5,0.6-0.5,1v6.3c0,0.5,0.2,0.8,0.5,1.1
			c0.2,0.2,0.7,0.3,1.4,0.3h4.9c0.6,0,1-0.1,1.3-0.3c0.2-0.2,0.4-0.5,0.4-0.9c0-0.4-0.2-0.7-0.4-1c-0.3-0.2-0.7-0.3-1.3-0.3h-3v-5.1
			C33.2,17.7,33,17.3,32.7,17.1"/>
		<path d="M25.5,16.9c-0.6-0.1-1.4-0.1-2.4-0.1h-2.4c-0.8,0-1.4,0.1-1.7,0.4c-0.4,0.3-0.6,0.7-0.6,1.4v5.9c0,0.5,0.2,0.8,0.6,1
			c0.3,0.3,0.7,0.4,1.4,0.4c0.6,0,1.1-0.1,1.4-0.4c0.3-0.2,0.5-0.6,0.5-1v-1.4v-2.4v-1.5h1c0.7,0,1.2,0.1,1.4,0.1
			c0.2,0.1,0.3,0.3,0.3,0.7c0,0.3-0.2,0.5-0.3,0.6c-0.2,0.1-0.6,0.1-1.4,0.1h-1v2.4H24c1.5,0,2.7-0.3,3.4-0.8
			c0.8-0.5,1.1-1.3,1.1-2.3c0-0.6-0.1-1.1-0.3-1.5C28,18,27.6,17.7,27,17.3C26.6,17.1,26.1,17,25.5,16.9"/>
	</g>
</g>
</svg>
