<?xml version="1.0" encoding="utf-8"?>
<!-- Generator: Adobe Illustrator 16.0.0, SVG Export Plug-In . SVG Version: 6.00 Build 0)  -->
<!DOCTYPE svg PUBLIC "-//W3C//DTD SVG 1.1//EN" "http://www.w3.org/Graphics/SVG/1.1/DTD/svg11.dtd">
<svg version="1.1" id="Слой_1" xmlns="http://www.w3.org/2000/svg" xmlns:xlink="http://www.w3.org/1999/xlink" x="0px" y="0px"
	 width="609.538px" height="461.584px" viewBox="108.508 71.416 609.538 461.584"
	 enable-background="new 108.508 71.416 609.538 461.584" xml:space="preserve">
<g>
	<g>
		
			<linearGradient id="SVGID_1_" gradientUnits="userSpaceOnUse" x1="622.0535" y1="351.6187" x2="622.0535" y2="103.2314" gradientTransform="matrix(1 0 0 -1 -0.02 594.375)">
			<stop  offset="0" style="stop-color:#FFFFFF"/>
			<stop  offset="0.6704" style="stop-color:#CED0D1"/>
			<stop  offset="1" style="stop-color:#BCBEC0"/>
		</linearGradient>
		<path fill="url(#SVGID_1_)" d="M598.755,489.267c119.656,17.781,165.223-94.467,61.865-181.893
			c-5.927-4.631-10.373-8.567-8.705-13.708c3.704-8.15,6.482-12.781,14.263-27.043c0.741-2.038,8.335-14.077,1.852-13.707
			c-6.041,0-8.335-1.111-10.928-2.778c-6.298-4.816-13.522-9.447-20.19-5.186c-7.408,3.334-10.188,12.225-18.522,7.224
			c-5.674-2.003-15.127-14.134-23.153-7.409c-5.927,5.372-12.225,7.78-19.818,7.78c-9.262,2.964,8.52,18.523,16.67,40.75
			c2.964,5.557-5.882,11.485-14.448,18.523c-83.353,82.612-57.791,165.964,20.005,177.448"/>
		<g>
			<g>
				
					<linearGradient id="SVGID_2_" gradientUnits="userSpaceOnUse" x1="621.9099" y1="245.1943" x2="621.9099" y2="145.6387" gradientTransform="matrix(1 0 0 -1 -0.02 594.375)">
					<stop  offset="0" style="stop-color:#3EB65E"/>
					<stop  offset="1" style="stop-color:#4069B2"/>
				</linearGradient>
				<path fill="url(#SVGID_2_)" d="M639.35,418.846c0-3.886-1.269-7.063-3.803-9.538c-2.535-2.473-7.008-4.857-13.415-7.155
					c-7.324-2.323-12.746-5.122-16.268-8.397c-3.521-3.274-5.28-7.887-5.28-13.838c0-5.703,1.76-10.352,5.28-13.942
					c3.521-3.591,8.31-5.634,14.365-6.127V349.18h5.387v10.668c6.162,0.563,10.934,2.87,14.313,6.919s5.035,9.525,4.964,16.425
					l-0.158,0.265h-5.915c0-5.353-1.409-9.699-4.225-13.045c-2.817-3.346-6.76-5.018-11.831-5.018
					c-5.211,0-9.163,1.365-11.857,4.093c-2.692,2.729-4.04,6.171-4.04,10.326c0,4.015,1.197,7.245,3.593,9.69
					c2.394,2.449,6.988,4.799,13.784,7.052c7.288,2.429,12.684,5.255,16.188,8.477c3.503,3.222,5.255,7.772,5.255,13.652
					c0,5.845-1.831,10.519-5.493,14.022s-8.592,5.5-14.788,5.994v10.035h-5.334v-9.982c-6.373-0.389-11.663-2.42-15.871-6.1
					c-4.207-3.68-6.24-9.234-6.1-16.664l0.158-0.316h5.915c0,6.27,1.776,10.785,5.334,13.547c3.556,2.764,7.851,4.145,12.887,4.145
					c5.21,0,9.339-1.369,12.385-4.107C637.826,426.523,639.35,423.05,639.35,418.846z"/>
				
					<linearGradient id="SVGID_3_" gradientUnits="userSpaceOnUse" x1="621.9128" y1="247.2598" x2="621.9128" y2="143.5723" gradientTransform="matrix(1 0 0 -1 -0.02 594.375)">
					<stop  offset="0" style="stop-color:#3EB65E"/>
					<stop  offset="1" style="stop-color:#4069B2"/>
				</linearGradient>
				<path fill="url(#SVGID_3_)" d="M625.407,450.802h-5.334c-1.142,0-2.066-0.926-2.066-2.066v-8.088
					c-5.97-0.689-11.063-2.852-15.164-6.438c-4.669-4.082-6.958-10.225-6.807-18.258c0.006-0.308,0.08-0.611,0.219-0.886
					l0.157-0.317c0.351-0.699,1.066-1.143,1.85-1.143h5.915c1.142,0,2.066,0.926,2.066,2.066c0,5.648,1.483,9.547,4.535,11.916
					c3.213,2.498,7.013,3.711,11.619,3.711c4.66,0,8.362-1.205,11.003-3.578c2.613-2.35,3.883-5.254,3.883-8.876
					c0-3.335-1.04-5.972-3.179-8.058c-2.309-2.254-6.571-4.504-12.669-6.688c-7.511-2.382-13.248-5.36-16.978-8.83
					c-3.94-3.665-5.939-8.83-5.939-15.351c0-6.238,1.976-11.416,5.872-15.391c3.48-3.55,8.107-5.742,13.773-6.531v-8.816
					c0-1.143,0.927-2.066,2.067-2.066h5.387c1.143,0,2.067,0.926,2.067,2.066v8.839c5.813,0.892,10.461,3.385,13.833,7.424
					c3.688,4.417,5.52,10.396,5.445,17.771c-0.004,0.367-0.105,0.729-0.295,1.043l-0.158,0.265
					c-0.374,0.622-1.047,1.003-1.772,1.003h-5.915c-1.142,0-2.066-0.926-2.066-2.066c0-4.826-1.258-8.767-3.739-11.713
					c-2.427-2.882-5.779-4.283-10.249-4.283c-4.613,0-8.108,1.17-10.386,3.479c-2.317,2.348-3.444,5.251-3.444,8.873
					c0,3.484,0.982,6.182,3.002,8.245c2.15,2.198,6.51,4.397,12.958,6.534c7.535,2.512,13.232,5.512,16.937,8.918
					c3.93,3.613,5.923,8.719,5.923,15.174c0,6.402-2.063,11.623-6.131,15.516c-3.609,3.453-8.362,5.588-14.15,6.359v8.176
					C627.474,449.876,626.549,450.802,625.407,450.802z M622.139,446.669h1.2v-7.967c0-1.078,0.827-1.977,1.902-2.063
					c5.683-0.451,10.232-2.277,13.523-5.428c3.267-3.125,4.854-7.223,4.854-12.527c0-5.325-1.5-9.293-4.587-12.131
					c-3.271-3.008-8.467-5.713-15.441-8.037c-7.178-2.38-11.957-4.854-14.609-7.566c-2.774-2.834-4.181-6.582-4.181-11.138
					c0-4.696,1.56-8.66,4.636-11.778c3.084-3.123,7.568-4.707,13.328-4.707c5.684,0,10.197,1.935,13.412,5.752
					c2.749,3.266,4.306,7.398,4.642,12.31h1.984c-0.212-5.535-1.709-10.002-4.46-13.298c-3.044-3.645-7.269-5.668-12.915-6.184
					c-1.064-0.098-1.879-0.99-1.879-2.06v-8.601h-1.253v8.601c0,1.075-0.826,1.973-1.899,2.06c-5.519,0.45-9.912,2.305-13.057,5.514
					c-3.156,3.22-4.69,7.308-4.69,12.496c0,5.4,1.512,9.432,4.622,12.324c3.278,3.049,8.488,5.721,15.484,7.941
					c6.825,2.445,11.459,4.938,14.232,7.645c2.938,2.866,4.426,6.573,4.426,11.018c0,4.795-1.767,8.816-5.254,11.951
					c-3.423,3.076-8.055,4.637-13.767,4.637c-5.482,0-10.245-1.541-14.155-4.578c-3.653-2.838-5.689-7.242-6.068-13.113h-1.996
					c0.178,5.969,1.946,10.35,5.386,13.355c3.835,3.354,8.759,5.234,14.636,5.594c1.091,0.064,1.941,0.969,1.941,2.063v7.916
					H622.139z"/>
			</g>
		</g>
		
			<linearGradient id="SVGID_4_" gradientUnits="userSpaceOnUse" x1="631.0984" y1="264.7393" x2="631.0984" y2="298.8242" gradientTransform="matrix(1 0 0 -1 -0.02 594.375)">
			<stop  offset="0" style="stop-color:#F6B319"/>
			<stop  offset="1" style="stop-color:#FBDA0E"/>
		</linearGradient>
		<path fill="url(#SVGID_4_)" d="M624.592,329.636c-0.686,0-1.38-0.158-2.031-0.494c-2.183-1.123-3.042-3.805-1.918-5.986
			l12.966-25.193c1.124-2.183,3.805-3.042,5.987-1.918c2.183,1.123,3.042,3.804,1.918,5.988l-12.966,25.19
			C627.759,328.755,626.203,329.636,624.592,329.636z"/>
		
			<linearGradient id="SVGID_5_" gradientUnits="userSpaceOnUse" x1="644.99" y1="232.5088" x2="644.99" y2="298.8242" gradientTransform="matrix(1 0 0 -1 -0.02 594.375)">
			<stop  offset="0" style="stop-color:#F6B319"/>
			<stop  offset="1" style="stop-color:#FBDA0E"/>
		</linearGradient>
		<path fill="url(#SVGID_5_)" d="M652.376,361.867c-1.979,0-3.784-1.332-4.302-3.337l-14.817-57.421
			c-0.613-2.377,0.815-4.801,3.193-5.415c2.38-0.616,4.803,0.816,5.415,3.194l14.818,57.421c0.612,2.377-0.816,4.801-3.194,5.415
			C653.117,361.82,652.743,361.867,652.376,361.867z"/>
		<g>
			<line fill="none" x1="584.586" y1="298.517" x2="657.935" y2="298.517"/>
			
				<linearGradient id="SVGID_6_" gradientUnits="userSpaceOnUse" x1="621.281" y1="290.3018" x2="621.281" y2="301.415" gradientTransform="matrix(1 0 0 -1 -0.02 594.375)">
				<stop  offset="0" style="stop-color:#F6B319"/>
				<stop  offset="1" style="stop-color:#FBDA0E"/>
			</linearGradient>
			<path fill="url(#SVGID_6_)" d="M657.935,304.074h-73.35c-3.069,0-5.558-2.488-5.558-5.557c0-3.069,2.488-5.557,5.558-5.557h73.35
				c3.069,0,5.557,2.488,5.557,5.557C663.492,301.585,661.005,304.074,657.935,304.074z"/>
		</g>
		<g>
			<line fill="none" x1="587.178" y1="287.403" x2="654.972" y2="287.403"/>
			
				<linearGradient id="SVGID_7_" gradientUnits="userSpaceOnUse" x1="621.0955" y1="301.4146" x2="621.0955" y2="312.5288" gradientTransform="matrix(1 0 0 -1 -0.02 594.375)">
				<stop  offset="0" style="stop-color:#F6B319"/>
				<stop  offset="1" style="stop-color:#FBDA0E"/>
			</linearGradient>
			<path fill="url(#SVGID_7_)" d="M654.971,292.96h-67.793c-3.069,0-5.558-2.488-5.558-5.557c0-3.069,2.488-5.557,5.558-5.557
				h67.793c3.068,0,5.557,2.488,5.557,5.557C660.528,290.472,658.042,292.96,654.971,292.96z"/>
		</g>
	</g>
	<g>
		
			<linearGradient id="SVGID_8_" gradientUnits="userSpaceOnUse" x1="204.5403" y1="352.1118" x2="204.5403" y2="103.7236" gradientTransform="matrix(1 0 0 -1 -0.02 594.375)">
			<stop  offset="0" style="stop-color:#FFFFFF"/>
			<stop  offset="0.6704" style="stop-color:#CED0D1"/>
			<stop  offset="1" style="stop-color:#BCBEC0"/>
		</linearGradient>
		<path fill="url(#SVGID_8_)" d="M181.24,488.775c119.657,17.781,165.224-94.467,61.866-181.895
			c-5.927-4.631-10.373-8.566-8.706-13.707c3.705-8.15,6.482-12.781,14.263-27.043c0.741-2.038,8.335-14.077,1.853-13.707
			c-6.041,0-8.335-1.111-10.929-2.778c-6.298-4.816-13.521-9.447-20.189-5.186c-7.409,3.334-10.188,12.225-18.523,7.224
			c-5.674-2.003-15.127-14.134-23.152-7.409c-5.928,5.372-12.226,7.78-19.819,7.78c-9.261,2.964,8.52,18.523,16.67,40.75
			c2.964,5.557-5.881,11.483-14.448,18.522c-83.352,82.611-57.791,165.965,20.005,177.449"/>
		<g>
			<g>
				
					<linearGradient id="SVGID_9_" gradientUnits="userSpaceOnUse" x1="204.3967" y1="245.6875" x2="204.3967" y2="146.1328" gradientTransform="matrix(1 0 0 -1 -0.02 594.375)">
					<stop  offset="0" style="stop-color:#3EB65E"/>
					<stop  offset="1" style="stop-color:#4069B2"/>
				</linearGradient>
				<path fill="url(#SVGID_9_)" d="M221.836,418.353c0-3.885-1.268-7.064-3.803-9.538s-7.007-4.858-13.415-7.155
					c-7.324-2.324-12.746-5.123-16.267-8.397c-3.521-3.274-5.281-7.888-5.281-13.837c0-5.704,1.76-10.352,5.281-13.943
					c3.521-3.591,8.309-5.633,14.364-6.127v-10.668h5.388v10.668c6.162,0.564,10.933,2.87,14.313,6.919
					c3.38,4.05,5.035,9.524,4.964,16.425l-0.157,0.264h-5.915c0-5.352-1.409-9.698-4.226-13.045
					c-2.816-3.345-6.76-5.017-11.831-5.017c-5.211,0-9.163,1.365-11.856,4.093c-2.693,2.729-4.04,6.172-4.04,10.326
					c0,4.014,1.197,7.245,3.592,9.691c2.394,2.447,6.989,4.798,13.785,7.051c7.288,2.43,12.683,5.255,16.187,8.477
					c3.503,3.221,5.255,7.772,5.255,13.652c0,5.846-1.83,10.52-5.492,14.021c-3.662,3.504-8.593,5.502-14.788,5.994v10.035h-5.334
					v-9.982c-6.373-0.389-11.663-2.42-15.871-6.1c-4.207-3.68-6.241-9.234-6.101-16.664l0.158-0.316h5.915
					c0,6.27,1.777,10.785,5.334,13.547c3.556,2.764,7.852,4.145,12.887,4.145c5.21,0,9.34-1.369,12.386-4.107
					C220.312,426.029,221.836,422.558,221.836,418.353z"/>
				
					<linearGradient id="SVGID_10_" gradientUnits="userSpaceOnUse" x1="204.3997" y1="247.7539" x2="204.3997" y2="144.0645" gradientTransform="matrix(1 0 0 -1 -0.02 594.375)">
					<stop  offset="0" style="stop-color:#3EB65E"/>
					<stop  offset="1" style="stop-color:#4069B2"/>
				</linearGradient>
				<path fill="url(#SVGID_10_)" d="M207.893,450.31h-5.334c-1.143,0-2.067-0.926-2.067-2.066v-8.09
					c-5.969-0.689-11.063-2.85-15.164-6.438c-4.669-4.08-6.958-10.223-6.806-18.258c0.006-0.307,0.08-0.609,0.218-0.885l0.158-0.316
					c0.35-0.7,1.065-1.143,1.849-1.143h5.915c1.143,0,2.067,0.926,2.067,2.066c0,5.648,1.482,9.545,4.535,11.916
					c3.213,2.496,7.013,3.709,11.618,3.709c4.66,0,8.362-1.203,11.004-3.576c2.612-2.35,3.883-5.254,3.883-8.877
					c0-3.335-1.04-5.971-3.18-8.059c-2.309-2.252-6.57-4.502-12.669-6.688c-7.512-2.382-13.248-5.361-16.977-8.83
					c-3.941-3.665-5.94-8.83-5.94-15.352c0-6.237,1.977-11.416,5.872-15.389c3.481-3.551,8.108-5.744,13.774-6.531v-8.817
					c0-1.142,0.926-2.067,2.066-2.067h5.388c1.142,0,2.066,0.926,2.066,2.067v8.839c5.813,0.893,10.461,3.385,13.833,7.424
					c3.688,4.418,5.521,10.396,5.445,17.771c-0.004,0.367-0.104,0.729-0.295,1.043l-0.158,0.264
					c-0.374,0.622-1.047,1.003-1.771,1.003h-5.915c-1.143,0-2.067-0.926-2.067-2.067c0-4.824-1.258-8.766-3.739-11.713
					c-2.426-2.881-5.778-4.281-10.249-4.281c-4.612,0-8.107,1.17-10.386,3.478c-2.317,2.349-3.444,5.251-3.444,8.873
					c0,3.485,0.982,6.183,3.002,8.245c2.15,2.199,6.511,4.396,12.958,6.534c7.535,2.512,13.232,5.512,16.937,8.918
					c3.93,3.614,5.923,8.719,5.923,15.174c0,6.403-2.063,11.624-6.131,15.517c-3.609,3.451-8.362,5.586-14.15,6.359v8.176
					C209.96,449.384,209.034,450.31,207.893,450.31z M204.625,446.175h1.2v-7.967c0-1.078,0.828-1.975,1.903-2.061
					c5.682-0.453,10.231-2.279,13.522-5.428c3.268-3.125,4.855-7.223,4.855-12.528c0-5.325-1.5-9.293-4.587-12.131
					c-3.272-3.009-8.468-5.712-15.442-8.037c-7.177-2.38-11.957-4.854-14.609-7.567c-2.773-2.834-4.181-6.58-4.181-11.137
					c0-4.697,1.561-8.66,4.636-11.777c3.084-3.125,7.568-4.709,13.328-4.709c5.685,0,10.197,1.936,13.412,5.754
					c2.749,3.265,4.307,7.397,4.643,12.309h1.983c-0.212-5.535-1.709-10.002-4.46-13.297c-3.044-3.645-7.268-5.668-12.915-6.186
					c-1.063-0.097-1.879-0.99-1.879-2.059v-8.602h-1.253v8.602c0,1.076-0.826,1.973-1.899,2.061
					c-5.519,0.449-9.911,2.305-13.057,5.514c-3.156,3.219-4.69,7.307-4.69,12.496c0,5.4,1.513,9.431,4.622,12.324
					c3.278,3.049,8.488,5.721,15.484,7.94c6.826,2.444,11.459,4.938,14.233,7.646c2.937,2.865,4.426,6.572,4.426,11.017
					c0,4.796-1.768,8.815-5.254,11.95c-3.423,3.078-8.056,4.639-13.768,4.639c-5.481,0-10.245-1.541-14.154-4.58
					c-3.653-2.836-5.69-7.242-6.068-13.113h-1.997c0.178,5.971,1.947,10.35,5.386,13.355c3.835,3.355,8.76,5.236,14.637,5.594
					c1.091,0.066,1.94,0.971,1.94,2.063v7.916H204.625z"/>
			</g>
		</g>
		
			<linearGradient id="SVGID_11_" gradientUnits="userSpaceOnUse" x1="213.5833" y1="265.2314" x2="213.5833" y2="299.3154" gradientTransform="matrix(1 0 0 -1 -0.02 594.375)">
			<stop  offset="0" style="stop-color:#F6B319"/>
			<stop  offset="1" style="stop-color:#FBDA0E"/>
		</linearGradient>
		<path fill="url(#SVGID_11_)" d="M207.077,329.144c-0.685,0-1.38-0.158-2.031-0.494c-2.183-1.123-3.042-3.804-1.918-5.986
			l12.967-25.192c1.123-2.183,3.805-3.042,5.986-1.918c2.184,1.123,3.042,3.804,1.918,5.987l-12.966,25.19
			C210.244,328.263,208.689,329.144,207.077,329.144z"/>
		
			<linearGradient id="SVGID_12_" gradientUnits="userSpaceOnUse" x1="227.4749" y1="233.0029" x2="227.4749" y2="299.3174" gradientTransform="matrix(1 0 0 -1 -0.02 594.375)">
			<stop  offset="0" style="stop-color:#F6B319"/>
			<stop  offset="1" style="stop-color:#FBDA0E"/>
		</linearGradient>
		<path fill="url(#SVGID_12_)" d="M234.861,361.373c-1.979,0-3.784-1.33-4.301-3.336l-14.818-57.42
			c-0.613-2.377,0.816-4.802,3.194-5.416c2.38-0.616,4.802,0.816,5.415,3.194l14.817,57.421c0.613,2.377-0.815,4.801-3.193,5.415
			C235.603,361.328,235.229,361.373,234.861,361.373z"/>
		<g>
			<line fill="none" x1="167.071" y1="298.024" x2="240.421" y2="298.024"/>
			
				<linearGradient id="SVGID_13_" gradientUnits="userSpaceOnUse" x1="203.7659" y1="290.7939" x2="203.7659" y2="301.9082" gradientTransform="matrix(1 0 0 -1 -0.02 594.375)">
				<stop  offset="0" style="stop-color:#F6B319"/>
				<stop  offset="1" style="stop-color:#FBDA0E"/>
			</linearGradient>
			<path fill="url(#SVGID_13_)" d="M240.421,303.582h-73.35c-3.069,0-5.557-2.488-5.557-5.558c0-3.069,2.487-5.557,5.557-5.557
				h73.35c3.069,0,5.558,2.488,5.558,5.557C245.978,301.093,243.49,303.582,240.421,303.582z"/>
		</g>
		<g>
			<line fill="none" x1="169.664" y1="286.911" x2="237.458" y2="286.911"/>
			
				<linearGradient id="SVGID_14_" gradientUnits="userSpaceOnUse" x1="203.5803" y1="301.9077" x2="203.5803" y2="313.021" gradientTransform="matrix(1 0 0 -1 -0.02 594.375)">
				<stop  offset="0" style="stop-color:#F6B319"/>
				<stop  offset="1" style="stop-color:#FBDA0E"/>
			</linearGradient>
			<path fill="url(#SVGID_14_)" d="M237.457,292.467h-67.793c-3.068,0-5.557-2.488-5.557-5.557c0-3.069,2.488-5.557,5.557-5.557
				h67.793c3.069,0,5.558,2.488,5.558,5.557C243.014,289.979,240.526,292.467,237.457,292.467z"/>
		</g>
	</g>
	<g>
		
			<linearGradient id="SVGID_15_" gradientUnits="userSpaceOnUse" x1="411.5276" y1="522.9604" x2="411.5276" y2="103.8359" gradientTransform="matrix(1 0 0 -1 -0.02 594.375)">
			<stop  offset="0" style="stop-color:#FFFFFF"/>
			<stop  offset="0.6704" style="stop-color:#CED0D1"/>
			<stop  offset="1" style="stop-color:#BCBEC0"/>
		</linearGradient>
		<path fill="url(#SVGID_15_)" d="M372.227,487.373c201.907,30.006,278.794-159.399,104.391-306.922
			c-10.002-7.814-17.503-14.455-14.689-23.129c6.251-13.752,10.938-21.566,24.065-45.632c1.25-3.438,14.065-23.754,3.125-23.129
			c-10.192,0-14.064-1.875-18.439-4.688c-10.627-8.126-22.816-15.94-34.068-8.751c-12.502,5.626-17.189,20.628-31.255,12.189
			c-9.575-3.379-25.525-23.849-39.069-12.502c-10.002,9.064-20.628,13.127-33.442,13.127c-15.627,5.001,14.377,31.255,28.129,68.761
			c5.001,9.376-9.923,19.378-24.379,31.255c-140.647,139.397-97.516,280.044,33.755,299.421"/>
		<g>
			<g>
				
					<linearGradient id="SVGID_16_" gradientUnits="userSpaceOnUse" x1="411.2893" y1="343.3804" x2="411.2893" y2="175.3931" gradientTransform="matrix(1 0 0 -1 -0.02 594.375)">
					<stop  offset="0" style="stop-color:#3EB65E"/>
					<stop  offset="1" style="stop-color:#4069B2"/>
				</linearGradient>
				<path fill="url(#SVGID_16_)" d="M440.728,368.546c0-6.555-2.139-11.92-6.417-16.094c-4.277-4.175-11.823-8.197-22.636-12.074
					c-12.358-3.92-21.507-8.644-27.448-14.17c-5.941-5.524-8.912-13.308-8.912-23.348c0-9.625,2.97-17.467,8.912-23.527
					c5.941-6.06,14.02-9.505,24.24-10.338v-18.001h9.09v18.001c10.396,0.951,18.448,4.843,24.15,11.675
					c5.704,6.832,8.495,16.072,8.378,27.715l-0.268,0.445h-9.98c0-9.031-2.377-16.367-7.129-22.012
					c-4.754-5.644-11.407-8.466-19.964-8.466c-8.793,0-15.462,2.303-20.007,6.906c-4.545,4.605-6.817,10.413-6.817,17.423
					c0,6.773,2.019,12.225,6.061,16.354c4.039,4.129,11.793,8.096,23.26,11.896c12.299,4.1,21.402,8.867,27.314,14.304
					s8.867,13.115,8.867,23.037c0,9.862-3.09,17.749-9.27,23.661s-14.497,9.281-24.953,10.115v16.932h-9.001v-16.843
					c-10.754-0.654-19.681-4.084-26.779-10.293c-7.101-6.207-10.531-15.58-10.293-28.116l0.267-0.535h9.98
					c0,10.58,2.999,18.2,9.002,22.861c6,4.662,13.247,6.992,21.744,6.992c8.792,0,15.759-2.31,20.898-6.93
					C438.157,381.498,440.728,375.641,440.728,368.546z"/>
				
					<linearGradient id="SVGID_17_" gradientUnits="userSpaceOnUse" x1="411.2898" y1="346.8706" x2="411.2898" y2="171.9067" gradientTransform="matrix(1 0 0 -1 -0.02 594.375)">
					<stop  offset="0" style="stop-color:#3EB65E"/>
					<stop  offset="1" style="stop-color:#4069B2"/>
				</linearGradient>
				<path fill="url(#SVGID_17_)" d="M417.201,422.468H408.2c-1.926,0-3.487-1.561-3.487-3.487v-13.649
					c-10.072-1.162-18.667-4.809-25.589-10.861c-7.878-6.887-11.74-17.252-11.483-30.809c0.009-0.519,0.135-1.029,0.367-1.494
					l0.267-0.535c0.591-1.18,1.799-1.928,3.12-1.928h9.98c1.927,0,3.488,1.563,3.488,3.488c0,9.53,2.503,16.107,7.652,20.105
					c5.421,4.214,11.834,6.261,19.605,6.261c7.863,0,14.111-2.031,18.566-6.036c4.409-3.965,6.553-8.865,6.553-14.979
					c0-5.627-1.755-10.074-5.364-13.596c-3.896-3.802-11.088-7.6-21.378-11.287c-12.675-4.019-22.354-9.045-28.646-14.9
					c-6.651-6.184-10.024-14.899-10.024-25.901c0-10.525,3.334-19.263,9.909-25.97c5.873-5.991,13.681-9.69,23.243-11.02v-14.877
					c0-1.926,1.562-3.488,3.488-3.488h9.09c1.926,0,3.488,1.562,3.488,3.488v14.914c9.809,1.506,17.65,5.712,23.341,12.527
					c6.223,7.454,9.313,17.542,9.188,29.985c-0.007,0.621-0.178,1.229-0.497,1.761l-0.267,0.444
					c-0.631,1.051-1.766,1.692-2.991,1.692h-9.98c-1.927,0-3.488-1.562-3.488-3.487c0-8.143-2.123-14.792-6.31-19.766
					c-4.094-4.862-9.751-7.225-17.295-7.225c-7.783,0-13.681,1.975-17.524,5.869c-3.91,3.962-5.813,8.86-5.813,14.971
					c0,5.881,1.657,10.432,5.065,13.914c3.629,3.709,10.983,7.418,21.865,11.025c12.715,4.238,22.326,9.301,28.576,15.047
					c6.633,6.098,9.995,14.713,9.995,25.604c0,10.805-3.479,19.612-10.345,26.183c-6.09,5.825-14.111,9.428-23.876,10.73v13.795
					C420.689,420.908,419.128,422.468,417.201,422.468z M411.687,415.494h2.025V402.05c0-1.819,1.396-3.332,3.211-3.477
					c9.587-0.765,17.265-3.846,22.817-9.16c5.513-5.272,8.192-12.188,8.192-21.14c0-8.985-2.532-15.681-7.74-20.469
					c-5.521-5.076-14.288-9.64-26.056-13.562c-12.11-4.016-20.175-8.191-24.65-12.769c-4.681-4.782-7.055-11.104-7.055-18.792
					c0-7.926,2.632-14.613,7.823-19.873c5.204-5.271,12.77-7.944,22.488-7.944c9.592,0,17.206,3.266,22.63,9.708
					c4.64,5.509,7.267,12.483,7.834,20.769h3.348c-0.358-9.338-2.884-16.876-7.525-22.436c-5.136-6.151-12.263-9.565-21.792-10.438
					c-1.796-0.164-3.17-1.67-3.17-3.474v-14.513h-2.114v14.513c0,1.816-1.394,3.329-3.203,3.476
					c-9.313,0.76-16.726,3.889-22.033,9.303c-5.326,5.432-7.915,12.329-7.915,21.086c0,9.112,2.551,15.914,7.799,20.795
					c5.532,5.145,14.323,9.653,26.128,13.399c11.518,4.126,19.335,8.332,24.017,12.899c4.956,4.836,7.47,11.092,7.47,18.592
					c0,8.092-2.982,14.875-8.865,20.166c-5.776,5.191-13.592,7.824-23.23,7.824c-9.251,0-17.287-2.601-23.885-7.728
					c-6.164-4.787-9.601-12.22-10.239-22.127h-3.37c0.301,10.073,3.285,17.464,9.089,22.536c6.471,5.66,14.779,8.834,24.695,9.438
					c1.84,0.112,3.276,1.638,3.276,3.481L411.687,415.494L411.687,415.494z"/>
			</g>
		</g>
		
			<linearGradient id="SVGID_18_" gradientUnits="userSpaceOnUse" x1="426.7908" y1="376.3589" x2="426.7908" y2="433.8726" gradientTransform="matrix(1 0 0 -1 -0.02 594.375)">
			<stop  offset="0" style="stop-color:#F6B319"/>
			<stop  offset="1" style="stop-color:#FBDA0E"/>
		</linearGradient>
		<path fill="url(#SVGID_18_)" d="M415.824,218.016c-1.155,0-2.329-0.267-3.427-0.833c-3.683-1.895-5.133-6.419-3.237-10.102
			l21.879-42.509c1.897-3.683,6.421-5.133,10.104-3.236c3.683,1.895,5.133,6.419,3.237,10.102l-21.879,42.507
			C421.17,216.53,418.545,218.016,415.824,218.016z"/>
		
			<linearGradient id="SVGID_19_" gradientUnits="userSpaceOnUse" x1="450.2312" y1="321.9761" x2="450.2312" y2="433.8745" gradientTransform="matrix(1 0 0 -1 -0.02 594.375)">
			<stop  offset="0" style="stop-color:#F6B319"/>
			<stop  offset="1" style="stop-color:#FBDA0E"/>
		</linearGradient>
		<path fill="url(#SVGID_19_)" d="M462.707,272.399c-3.339,0-6.385-2.245-7.258-5.63l-25.004-96.891
			c-1.035-4.011,1.377-8.102,5.39-9.137c4.016-1.04,8.102,1.377,9.137,5.39l25.004,96.891c1.035,4.011-1.377,8.102-5.389,9.137
			C463.958,272.322,463.328,272.399,462.707,272.399z"/>
		<g>
			<line fill="none" x1="348.319" y1="165.506" x2="472.09" y2="165.506"/>
			
				<linearGradient id="SVGID_20_" gradientUnits="userSpaceOnUse" x1="410.2239" y1="419.4927" x2="410.2239" y2="438.2446" gradientTransform="matrix(1 0 0 -1 -0.02 594.375)">
				<stop  offset="0" style="stop-color:#F6B319"/>
				<stop  offset="1" style="stop-color:#FBDA0E"/>
			</linearGradient>
			<path fill="url(#SVGID_20_)" d="M472.09,174.882H348.319c-5.179,0-9.376-4.197-9.376-9.376c0-5.179,4.198-9.376,9.376-9.376
				h123.77c5.179,0,9.376,4.197,9.376,9.376C481.466,170.685,477.267,174.882,472.09,174.882z"/>
		</g>
		<g>
			<line fill="none" x1="352.695" y1="146.753" x2="467.089" y2="146.753"/>
			
				<linearGradient id="SVGID_21_" gradientUnits="userSpaceOnUse" x1="409.9114" y1="438.2456" x2="409.9114" y2="456.9976" gradientTransform="matrix(1 0 0 -1 -0.02 594.375)">
				<stop  offset="0" style="stop-color:#F6B319"/>
				<stop  offset="1" style="stop-color:#FBDA0E"/>
			</linearGradient>
			<path fill="url(#SVGID_21_)" d="M467.089,156.129H352.695c-5.179,0-9.376-4.197-9.376-9.376c0-5.179,4.198-9.376,9.376-9.376
				h114.394c5.179,0,9.376,4.197,9.376,9.376C476.465,151.932,472.266,156.129,467.089,156.129z"/>
		</g>
	</g>
	
		<linearGradient id="SVGID_22_" gradientUnits="userSpaceOnUse" x1="411.0198" y1="61.376" x2="411.0198" y2="387.375" gradientTransform="matrix(1 0 0 -1 -0.02 594.375)">
		<stop  offset="0" style="stop-color:#40AB55"/>
		<stop  offset="0.2289" style="stop-color:#50B058"/>
		<stop  offset="1" style="stop-color:#74C163"/>
	</linearGradient>
	<circle fill="url(#SVGID_22_)" cx="411.001" cy="370" r="163"/>
	<g>
		<path fill="#281A11" stroke="#905D31" stroke-width="4" stroke-miterlimit="10" d="M475.094,395.615
			c3.872-0.164,5.181,0.211,10.997,0.18c-23.606-23.279-30.925-40.795-58.259-39.627c7.918-23.418,14.418-51.918-27.5-55.834
			c-2.166-6.833-3.5-5.167,0.334-25.667c-15.834,13.167-17.5,15.5-22.668,28.833c6.25,28.834-33,43-39.75,68.75
			c-15.248,61.25-0.248,97.25,46.479,112.752c33.073,12.6,67.163,18.693,73.643,8.938c8.481-8.332,11.369-16.43,14.317-28.189
			c5.058-7.758,11.854-15.156,9.329-34.012C488.442,420.69,489.331,411.171,475.094,395.615z"/>
		<path fill="#AA7340" d="M450.366,406.035c-4.86,5.293-6.762,11.44-4.252,13.746c12.659-4.666,20.586-12.435,21.564-33.826
			l-0.108,0.239C453.751,365,429.001,359.25,418.501,366c-8.584,5.519-10.5,10.168-21.168,20.334
			c2.834,2.25,5.418,3.416,7.463,9.076c-2.841-16.865,15.641-23.313,22.06-22.171c-11.481,8.804-28.677,20.505-4.384,38.405
			c2.538,1.426,4.914-5.104,3.6-6.877c-2.009-2.864-12.149-8.331-8.467-16.036l-0.241-0.108
			c15.91,14.613,31.943,16.101,43.784,10.23c-2.985,6.084-6.488,6.939-10.711,7.475"/>
		<path fill="#AA7340" d="M472.212,399.623c9.754,13.032,4.921,24.207,0.817,27.566c-5.021,15.076-18.169,18.955-18.677,18.486
			c1.616-3.605,3.431-6.691,4.142-10.791c2.273-0.627,5.283-2.426,8.93-6.395c-6.497,1.16-12.597,3.365-17.857-3.842
			c0.103,0.092,16.572-1.412,22.507-24.136"/>
		<path fill="#AA7340" d="M457.815,452.253c0.407,0.373,10.92-1.172,17.648-17.736c-3.417,23.678-18.396,29.268-22.854,32.643
			C454.534,462.476,456.518,459.208,457.815,452.253z"/>
		<path fill="#AA7340" d="M445.499,483.033c-3.982-2.131-8.995-3.51-12.586-6.809c6.258-6.813,24.123,3.486,32.599-9.436
			c-3.511,21.469-16.771,26.943-29.089,25.387C438.016,491.179,442.199,488.658,445.499,483.033z"/>
		<path fill="#BC8456" d="M467.604,386.283C456.751,373,450.751,369.25,439.001,365.5c-6.356,6.92-9.511,20.229-5.439,23.969
			c7.67,8.402,15.389,9.607,27.492,8.504c2.646,2.43-0.083,11.917-7.614,17.898C462.206,411.591,466.756,402.39,467.604,386.283"/>
		<path fill="#BC8456" d="M462.058,427.183c3.27-3.561,13.394-12.365,10.153-27.563c4.937,7.93,7.07,13.736,4.135,22.354
			C472.801,424.605,469.205,426.054,462.058,427.183z"/>
		<path fill="#BC8456" d="M465.51,466.789c-4.76,26.432-21.929,25.26-23.157,25.49c1.055-0.164,13.361-6.201,18.054-20.674
			c3.066-1.768,4.115-3.094,4.98-4.592"/>
		<path fill="#BC8456" d="M469.705,444.757c-0.716,6.047-4.665,12.01-9.822,17.625c6.447-5.449,13.459-12.559,15.555-27.775
			C474.371,437.615,472.515,441.144,469.705,444.757z"/>
		<path fill="#59595A" d="M432.544,407.146c-1.646,14.357-16.192,20.77-16.192,20.77c6.561,0.34,17.037-1.918,28.285-20.354
			C440.247,408.367,437.226,408.053,432.544,407.146z"/>
		<path fill="#59595A" d="M425.854,450.648c2.632-1.572,19.456-9.541,18.746-22.074c3.374,4.457,5.738,5.949,10.713,6.445
			C452.431,446.289,440.404,448.482,425.854,450.648z"/>
		<path fill="#59595A" d="M439.215,455.875c-4.611,8.07-16.844,11.686-21.986,13.496c10.976,1.17,30.711,0.287,36.13-13.744
			C447.536,457.07,446.323,456.634,439.215,455.875z"/>
		<path fill="#59595A" d="M408.767,487.822c6.338,0.307,11.404-1.236,20.168-7.359c4.096,3.762,7.778,4.004,9.759,4.805
			c-8.037,5.518-19.544,5.389-30.053,2.693"/>
		<path fill="#FFFFFF" d="M439.429,408.21c-4.412,9.978-6.855,13.222-15.376,18.465c5.876-1.9,12.288-6.11,20.582-19.114
			C442.62,408.001,441.695,408.083,439.429,408.21z"/>
		<path fill="#FFFFFF" d="M451.326,434.185c-0.747,4.633-5.343,8.898-12.954,12.996c5.618-2.422,9.839-4.43,16.619-12.459
			C454.313,434.871,452.642,434.601,451.326,434.185z"/>
		<path fill="#FFFFFF" d="M444.963,456.515c-1.488,3.838-2.12,5.635-9.869,9.266c5.535-1.592,7.629-1.252,14.409-9.281
			C448.824,456.646,446.62,456.679,444.963,456.515z"/>
		<path fill="#FFFFFF" d="M431.377,482.394c-2.121,2.125-3.494,3.127-10.849,5.65c7.422-1.613,8.511-0.951,13.774-4.094
			C433.704,483.74,432.655,483.341,431.377,482.394z"/>
		<path fill="#59595A" d="M396.167,311.833c-10.244-11.188,1.087-30.803,1.087-30.803c-5.59,6.521-18.474,15.642-12.087,37.637
			C389.333,314.667,391.501,313.667,396.167,311.833z"/>
		<path fill="#FFFFFF" d="M392.833,313.167c-7.407-8.859-4.587-15.822-0.714-25.646c-3.714,5.387-12.586,14.277-6.62,30.146
			C387.501,316,389.84,314.307,392.833,313.167z"/>
		<path fill="#A9733F" d="M425.251,476.25c-12.299,0-22.25-4.025-22.25-9l0.75,0.5c11.75-1.75,18.75-5.25,25.75-10.75
			c-9.949,0-18-2.684-18-6c10-2.75,19.25-10.25,24-20.5c-10.5,11.75-39.25,2.094-39.25-1.5c9.396,0,17-5.703,17-12.75
			c-18.25-2.916-9.918-22.75-23.084-29.25c-10.5-3.666-8.166-4.666-2-8.832C426.667,357,431.333,319,409.626,314.25
			c-16.25-3.75-19.293,13.5-24.793,23.25c0.584-4.25,0-9.832-2.166-18.832l0,0c-0.668,11.582-4.5,16.832-7,21.332
			c-2.543,6-13.793,14.25-16.168,17c-18.25,19.5-20.25,66.25-4.5,72.25l-0.75-0.25C354.251,458.433,391.501,494.333,425.251,476.25"
			/>
		<path fill="#905D31" d="M429.501,457c-10.75,7.418-15.5,9.168-26.25,10.668c2.25,7.75,14.666,7.916,21.666,8.666
			c-18.5,10-40.832,3.584-56.332-13.916c27.75,9,30.416,1.082,37.166-4.418c-2.901,0-5.5-8.75,2.5-14.25c-17-1-25.25-16.5-16.5-22
			c-11.25-0.5-16.082-25.5-8.582-38.25c24.832,8.5,8.332,29.668,30.082,32.75c-0.5,8.125-8.313,12.439-17,12.75
			c3.75,5,29.582,12.5,39.082,2c-8,13.668-13.666,15.668-23.832,20C411.251,453.583,418.417,457.333,429.501,457"/>
		<path fill="#BB8355" d="M385.001,337.312c16-20.625,38.832-20.146,36,4.521c5.166-18.5-4.75-27.709-13.5-27.709
			c-13.75-0.125-16.084,7.959-22.668,23.375"/>
		<path fill="#BB8355" d="M369.333,449c4.668,3,12,2.168,14.5-4c3.334-6.332-5.832-18.832-23.832-22.5c19.832-12.5-5-26.611-5-59.5
			c-10.25,15.5-16.668,56.834-0.5,65.5C358.333,442.833,362.667,445,369.333,449z"/>
		<path fill="#D1E7BA" d="M342.954,282.033l2.856-2.856l2.855,2.856c0.713,0.712,1.646,1.068,2.579,1.068
			c0.934,0,1.867-0.356,2.579-1.068c1.425-1.425,1.425-3.734,0-5.158l-2.855-2.856l2.855-2.856c1.425-1.425,1.425-3.734,0-5.158
			c-1.425-1.425-3.733-1.424-5.159,0l-2.855,2.856l-2.856-2.856c-1.425-1.425-3.732-1.425-5.158,0c-1.426,1.425-1.426,3.734,0,5.158
			l2.855,2.856l-2.855,2.856c-1.426,1.425-1.426,3.734,0,5.158C339.22,283.457,341.529,283.457,342.954,282.033z"/>
		<path fill="#D1E7BA" d="M476.712,325.759c0.149,0.609-0.089,1.246-0.602,1.607c-0.513,0.36-1.194,0.368-1.716,0.02l-7.116-4.744
			l-7.671,4.771c-0.246,0.152-0.525,0.229-0.802,0.229c-0.322,0-0.644-0.102-0.912-0.305c-0.501-0.377-0.72-1.022-0.55-1.627
			l2.313-8.234l-6.908-5.82c-0.479-0.404-0.661-1.063-0.457-1.654c0.202-0.594,0.75-1,1.376-1.026l8.547-0.345l3.4-8.368
			c0.236-0.581,0.803-0.954,1.432-0.947c0.627,0.011,1.183,0.403,1.4,0.992l2.968,8.022l9.012,0.648
			c0.625,0.045,1.159,0.469,1.343,1.068s-0.019,1.25-0.51,1.64l-6.712,5.302L476.712,325.759z"/>
		<path fill="#D1E7BA" d="M385.7,245.915l2.108-2.108l2.108,2.108c0.525,0.526,1.215,0.788,1.903,0.788
			c0.689,0,1.378-0.263,1.904-0.788c1.051-1.051,1.051-2.756,0-3.807l-2.11-2.108l2.108-2.108c1.051-1.051,1.051-2.756,0-3.807
			c-1.052-1.051-2.756-1.051-3.808,0l-2.107,2.108l-2.108-2.108c-1.051-1.051-2.755-1.051-3.807,0c-1.051,1.051-1.051,2.756,0,3.807
			l2.108,2.108l-2.108,2.108c-1.051,1.051-1.051,2.756,0,3.807C382.944,246.966,384.648,246.966,385.7,245.915z"/>
		<path fill="#D1E7BA" d="M289.775,362.651l1.225-1.226l1.226,1.226c0.306,0.306,0.706,0.458,1.105,0.458
			c0.4,0,0.801-0.152,1.106-0.458c0.61-0.61,0.61-1.603,0-2.213l-1.226-1.226l1.226-1.225c0.61-0.611,0.61-1.602,0-2.213
			c-0.611-0.611-1.603-0.611-2.213,0L291,357l-1.225-1.225c-0.611-0.611-1.603-0.611-2.213,0c-0.611,0.611-0.611,1.602,0,2.213
			l1.225,1.225l-1.225,1.226c-0.611,0.61-0.611,1.603,0,2.213C288.173,363.262,289.164,363.262,289.775,362.651z"/>
		<path fill="#D1E7BA" d="M519.775,415.651l1.226-1.226l1.225,1.226c0.306,0.306,0.706,0.458,1.106,0.458
			c0.401,0,0.802-0.152,1.107-0.458c0.611-0.61,0.611-1.603,0-2.213l-1.225-1.226l1.225-1.225c0.611-0.611,0.611-1.602,0-2.213
			s-1.602-0.611-2.213,0L521.001,410l-1.226-1.225c-0.611-0.611-1.602-0.611-2.213,0s-0.611,1.602,0,2.213l1.225,1.225l-1.225,1.226
			c-0.611,0.61-0.611,1.603,0,2.213C518.174,416.262,519.164,416.262,519.775,415.651z"/>
		<path fill="#D1E7BA" d="M455.215,259.664l1.225-1.225l1.225,1.225c0.307,0.306,0.706,0.458,1.106,0.458s0.801-0.153,1.105-0.458
			c0.611-0.611,0.611-1.602,0-2.213l-1.225-1.225l1.225-1.225c0.611-0.611,0.611-1.602,0-2.213c-0.61-0.611-1.602-0.611-2.213,0
			l-1.225,1.225l-1.225-1.225c-0.611-0.611-1.603-0.611-2.214,0c-0.61,0.611-0.61,1.602,0,2.213l1.226,1.225l-1.225,1.225
			c-0.611,0.611-0.611,1.602,0,2.213C453.612,260.275,454.602,260.275,455.215,259.664z"/>
		<path fill="#D1E7BA" d="M306.477,421.48c0.069,0.279-0.041,0.574-0.277,0.738c-0.235,0.166-0.549,0.17-0.789,0.012l-3.272-2.184
			l-3.528,2.195c-0.113,0.07-0.241,0.104-0.369,0.104c-0.147,0-0.296-0.047-0.42-0.139c-0.231-0.174-0.331-0.471-0.253-0.748
			l1.064-3.787l-3.178-2.678c-0.221-0.186-0.304-0.488-0.211-0.761s0.345-0.46,0.633-0.472l3.932-0.158l1.563-3.85
			c0.109-0.266,0.369-0.438,0.658-0.436c0.288,0.006,0.544,0.186,0.645,0.456l1.364,3.69l4.145,0.298
			c0.288,0.021,0.533,0.216,0.618,0.491c0.085,0.277-0.008,0.576-0.235,0.755l-3.087,2.438L306.477,421.48z"/>
		<path fill="#D1E7BA" d="M496.446,364.529l2.856-2.855l2.855,2.855c0.712,0.713,1.646,1.068,2.579,1.068
			c0.934,0,1.867-0.355,2.579-1.068c1.425-1.425,1.425-3.734,0-5.158l-2.855-2.855l2.855-2.855c1.425-1.426,1.425-3.734,0-5.158
			c-1.425-1.426-3.734-1.424-5.159,0l-2.855,2.855l-2.856-2.855c-1.425-1.426-3.732-1.426-5.159,0c-1.425,1.424-1.425,3.733,0,5.158
			l2.856,2.855l-2.856,2.855c-1.425,1.426-1.425,3.734,0,5.158C492.713,365.953,495.021,365.953,496.446,364.529z"/>
		<path fill="#D1E7BA" d="M330.094,323.647l1.14-1.14l1.14,1.14c0.285,0.285,0.657,0.427,1.03,0.427s0.745-0.142,1.03-0.427
			c0.569-0.569,0.569-1.491,0-2.06l-1.141-1.141l1.141-1.142c0.569-0.569,0.569-1.491,0-2.06c-0.569-0.57-1.491-0.57-2.061,0
			l-1.141,1.141l-1.141-1.141c-0.569-0.57-1.491-0.57-2.061,0c-0.568,0.568-0.568,1.49,0,2.06l1.142,1.142l-1.142,1.141
			c-0.568,0.568-0.568,1.49,0,2.06C328.603,324.216,329.525,324.216,330.094,323.647z"/>
		<path fill="#D1E7BA" d="M513.06,317.401l1.14-1.14l1.141,1.14c0.283,0.285,0.656,0.427,1.029,0.427s0.745-0.142,1.03-0.427
			c0.569-0.569,0.569-1.491,0-2.06l-1.141-1.141l1.141-1.142c0.569-0.569,0.569-1.491,0-2.06c-0.568-0.569-1.491-0.569-2.06,0
			l-1.142,1.141L513.06,311c-0.569-0.568-1.491-0.568-2.06,0c-0.569,0.569-0.569,1.492,0,2.061l1.141,1.141l-1.141,1.141
			c-0.569,0.568-0.569,1.49,0,2.06C511.569,317.97,512.492,317.97,513.06,317.401z"/>
		<path fill="#905D31" d="M396.167,372.167c21-13.668,29.334-33.334,21.668-45.5c-1,15.666-0.334,20.5-21.334,46"/>
		<path fill="#271911" d="M390.001,363c13.956,0,21-3,29.082-16.332C416.251,358.25,401.626,370.5,392.126,376
			C397.376,371.75,394.501,366.25,390.001,363"/>
	</g>
</g>
</svg>
