<?xml version="1.0" encoding="utf-8"?>
<!-- Generator: Adobe Illustrator 16.0.0, SVG Export Plug-In . SVG Version: 6.00 Build 0)  -->
<!DOCTYPE svg PUBLIC "-//W3C//DTD SVG 1.1//EN" "http://www.w3.org/Graphics/SVG/1.1/DTD/svg11.dtd">
<svg version="1.1" id="Слой_1" xmlns="http://www.w3.org/2000/svg" xmlns:xlink="http://www.w3.org/1999/xlink" x="0px" y="0px"
	 width="545.089px" height="176.699px" viewBox="0 0 545.089 176.699" enable-background="new 0 0 545.089 176.699"
	 xml:space="preserve">
<g>
	<path fill-rule="evenodd" clip-rule="evenodd" fill="#FFFFFF" d="M62.924,147.807H43.165c-0.631,0-1.167-0.385-1.368-0.982
		L0.079,22.666c-0.152-0.455-0.084-0.913,0.196-1.302c0.28-0.39,0.693-0.601,1.172-0.601h26.946c0.631,0,1.167,0.385,1.368,0.983
		l23.283,69.295l23.284-69.295c0.202-0.598,0.737-0.983,1.368-0.983h19.759c0.63,0,1.167,0.385,1.368,0.983l23.276,69.271
		l13.203-39.378c0.201-0.598,0.737-0.984,1.368-0.984h26.941c0.479,0,0.892,0.211,1.172,0.6c0.28,0.389,0.348,0.847,0.196,1.302
		l-31.629,94.267c-0.201,0.598-0.737,0.982-1.368,0.982h-19.755c-0.63,0-1.167-0.385-1.368-0.982L87.576,77.53l-23.284,69.294
		C64.091,147.422,63.554,147.807,62.924,147.807L62.924,147.807z"/>
	<path fill-rule="evenodd" clip-rule="evenodd" fill="#FFFFFF" d="M251.172,77.648c9.228,7.222,15.333,17.758,15.333,29.645
		c0,4.125-0.741,8.201-2.175,12.07c-6.874,18.545-27.062,28.443-45.991,28.443h-76.392c-0.479,0-0.892-0.211-1.171-0.6
		c-0.28-0.389-0.349-0.848-0.196-1.301l7.18-21.389c0.201-0.6,0.737-0.984,1.368-0.984l69.212-0.002
		c9.224,0,19.305-6.137,19.305-16.238c0-10.104-10.074-16.262-19.305-16.238l-57.386,0.15c-0.48,0-0.894-0.211-1.174-0.6
		c-0.281-0.389-0.351-0.848-0.198-1.303l7.186-21.408c0.201-0.598,0.734-0.983,1.364-0.984l36.895-0.094
		c0.104-0.024,0.213-0.037,0.325-0.037l13.006-0.001c6.171,0,12.904-4.113,12.904-10.87c0-6.765-6.749-10.869-12.923-10.869H139.52
		c-0.479,0-0.892-0.212-1.171-0.601c-0.28-0.389-0.35-0.847-0.197-1.302l7.171-21.39c0.201-0.598,0.737-0.984,1.368-0.984h71.648
		c16.423,0,33.937,8.589,39.898,24.679c1.244,3.354,1.886,6.889,1.886,10.466C260.123,64.12,256.749,71.698,251.172,77.648
		L251.172,77.648z"/>
	<path fill-rule="evenodd" clip-rule="evenodd" fill="#F2D88A" d="M515.295,62.58h-10.874V41.396h10.874
		c8.837,0,12.688,4.758,12.688,10.649C527.983,57.709,524.132,62.58,515.295,62.58L515.295,62.58z M515.408,25.424H489.92
		c-2.605,0-3.284,1.246-3.284,3.285v67.969c0,2.607,1.245,3.287,3.284,3.287h11.216c2.039,0,3.285-0.68,3.285-3.287V77.874h10.874
		c19.373,0,29.794-10.421,29.794-26.169C545.089,36.072,534.894,25.424,515.408,25.424L515.408,25.424z M432.938,71.756
		l8.496-25.036l8.496,25.036H432.938L432.938,71.756z M476.553,96.791l-25.036-67.856c-1.019-2.378-2.152-3.511-4.645-3.511h-10.875
		c-2.492,0-3.738,1.133-4.645,3.511l-25.149,67.856c-0.566,1.361-0.566,3.174,1.926,3.174h11.896c2.491,0,3.397-0.68,4.305-3.4
		l3.172-8.948h27.755l3.171,8.948c0.906,2.721,1.813,3.4,4.305,3.4h11.896C477.119,99.965,477.119,98.152,476.553,96.791
		L476.553,96.791z M399.632,25.424h-12.007c-3.399,0-4.191,2.265-4.532,3.625l-11.215,38.517l-10.987-38.517
		c-0.454-1.586-1.247-3.625-3.739-3.625h-7.931c-2.605,0-3.398,2.039-3.851,3.625l-10.876,38.517l-11.215-38.517
		c-0.453-1.359-1.134-3.625-4.531-3.625h-12.462c-2.039,0-2.379,1.925-2.039,3.285l20.958,68.875c0,0,0.566,2.381,3.059,2.381h9.969
		c2.946,0,3.625-2.607,3.625-2.607l11.329-36.137l11.328,36.137c0,0,0.68,2.607,3.625,2.607h9.516c2.492,0,3.06-2.381,3.06-2.381
		l20.844-68.875C402.011,27.349,401.672,25.424,399.632,25.424L399.632,25.424z"/>
	<path fill-rule="evenodd" clip-rule="evenodd" fill="#FFFFFF" d="M545.084,135.982c0,5.092-2.547,7.639-7.639,7.639h-16.552v-5.092
		h16.552c1.696,0,2.546-0.85,2.546-2.547s-0.85-2.547-2.546-2.547H527.26c-5.093,0-7.639-2.545-7.639-7.639
		c0-5.092,2.546-7.639,7.639-7.639h16.551v5.092H527.26c-1.697,0-2.547,0.85-2.547,2.547s0.85,2.547,2.547,2.547h10.186
		C542.537,128.344,545.084,130.891,545.084,135.982L545.084,135.982z M508.8,125.797c0-1.697-0.85-2.547-2.547-2.547h-12.731v7.641
		h12.731c1.697,0,2.547-0.85,2.547-2.547V125.797L508.8,125.797z M513.892,125.797v2.547c0,5.092-2.546,7.639-7.639,7.639
		l7.639,7.639h-7.214l-7.639-7.639h-5.518v7.639h-5.093v-25.463h17.824C511.346,118.158,513.892,120.705,513.892,125.797
		L513.892,125.797z M482.7,123.25h-20.371v5.094h15.278v5.092h-15.278v5.094H482.7v5.092h-25.464v-25.463H482.7V123.25L482.7,123.25
		z M451.508,143.621h-5.093v-10.186h-15.277v10.186h-5.093v-25.463h5.093v10.186h15.277v-10.186h5.093V143.621L451.508,143.621z
		 M420.316,123.25H410.13v20.371h-5.092V123.25h-10.186v-5.092h25.464V123.25L420.316,123.25z M385.602,136.406v-11.033
		c0-1.697-0.85-2.547-2.547-2.547h-10.186c-1.696,0-2.546,0.85-2.546,2.547v11.033c0,1.699,0.85,2.547,2.546,2.547h10.186
		C384.752,138.953,385.602,138.105,385.602,136.406L385.602,136.406z M390.694,136.406c0,5.094-2.547,7.639-7.64,7.639h-10.186
		c-5.092,0-7.639-2.545-7.639-7.639v-11.033c0-5.092,2.547-7.639,7.639-7.639h10.186c5.093,0,7.64,2.547,7.64,7.639V136.406
		L390.694,136.406z M355.81,125.797c0-1.697-0.849-2.547-2.546-2.547h-12.731v7.641h12.731c1.697,0,2.546-0.85,2.546-2.547V125.797
		L355.81,125.797z M360.902,125.797v2.547c0,5.092-2.546,7.639-7.639,7.639l7.639,7.639h-7.215l-7.639-7.639h-5.517v7.639h-5.093
		v-25.463h17.824C358.356,118.158,360.902,120.705,360.902,125.797L360.902,125.797z M322.071,138.529H309.34v-5.094h12.731
		c1.697,0,2.547,0.85,2.547,2.547S323.769,138.529,322.071,138.529L322.071,138.529z M322.071,128.344H309.34v-5.094h12.731
		c1.697,0,2.547,0.85,2.547,2.547S323.769,128.344,322.071,128.344L322.071,128.344z M328.098,130.848
		c1.075-1.047,1.613-2.744,1.613-5.092c-0.028-5.064-2.575-7.598-7.64-7.598h-17.824v25.463h17.824c5.093,0,7.64-2.547,7.64-7.639
		C329.711,133.662,329.173,131.951,328.098,130.848L328.098,130.848z"/>
	<path fill-rule="evenodd" clip-rule="evenodd" fill="#F2D88A" d="M283.773,0L283.773,0c1.43,0,2.599,1.169,2.599,2.598v73.258
		l12.493,12.494l-12.493,12.494v73.258c0,1.43-1.169,2.598-2.598,2.598h-0.001c-1.429,0-2.598-1.168-2.598-2.598V2.598
		C281.176,1.169,282.345,0,283.773,0L283.773,0z"/>
	<path fill-rule="evenodd" clip-rule="evenodd" fill="#FFFFFF" d="M251.172,77.648c9.229,7.222,15.333,17.758,15.333,29.645
		c0,4.125-0.741,8.201-2.175,12.07c-6.874,18.545-27.062,28.443-45.991,28.443h-76.392c-0.479,0-0.892-0.211-1.171-0.6
		s-0.349-0.848-0.197-1.301l7.18-21.389c0.201-0.6,0.737-0.984,1.368-0.984l69.212-0.002c9.224,0,19.305-6.137,19.305-16.238
		c0-10.104-10.075-16.262-19.305-16.238l-57.386,0.15c-0.479,0-0.893-0.211-1.174-0.6s-0.35-0.848-0.197-1.303l7.186-21.409
		c0.201-0.597,0.734-0.983,1.364-0.984l36.896-0.095c0.104-0.023,0.212-0.037,0.324-0.037l13.006,0
		c6.171,0,12.904-4.114,12.904-10.87c0-6.765-6.75-10.87-12.923-10.87H139.52c-0.479,0-0.892-0.211-1.171-0.601
		c-0.28-0.389-0.35-0.847-0.197-1.301l7.172-21.39c0.2-0.599,0.736-0.984,1.367-0.984h71.648c16.423,0,33.937,8.589,39.898,24.679
		c1.244,3.355,1.886,6.889,1.886,10.467C260.123,64.12,256.749,71.698,251.172,77.648L251.172,77.648z"/>
	<path fill-rule="evenodd" clip-rule="evenodd" fill="#EED586" d="M62.924,147.807h-19.76c-0.63,0-1.167-0.385-1.368-0.982
		L0.079,22.665c-0.152-0.455-0.084-0.913,0.196-1.301c0.28-0.39,0.693-0.601,1.172-0.601h26.946c0.631,0,1.167,0.385,1.368,0.983
		l23.283,69.295l23.284-69.295c0.201-0.598,0.737-0.983,1.368-0.983h19.759c0.63,0,1.167,0.385,1.368,0.983l23.275,69.272
		l13.204-39.378c0.2-0.598,0.736-0.984,1.367-0.984h26.941c0.479,0,0.892,0.211,1.172,0.6c0.28,0.389,0.348,0.847,0.196,1.302
		l-31.629,94.267c-0.201,0.598-0.736,0.982-1.368,0.982h-19.754c-0.631,0-1.167-0.385-1.368-0.982L87.576,77.53l-23.284,69.294
		C64.091,147.422,63.555,147.807,62.924,147.807L62.924,147.807z"/>
	<path fill-rule="evenodd" clip-rule="evenodd" fill="#EED586" d="M515.295,62.58h-10.874V41.396h10.874
		c8.837,0,12.688,4.758,12.688,10.649C527.983,57.709,524.132,62.58,515.295,62.58L515.295,62.58z M515.408,25.424H489.92
		c-2.605,0-3.284,1.246-3.284,3.285v67.969c0,2.607,1.245,3.287,3.284,3.287h11.216c2.039,0,3.285-0.68,3.285-3.287V77.874h10.874
		c19.373,0,29.794-10.421,29.794-26.169C545.089,36.072,534.894,25.424,515.408,25.424L515.408,25.424z M432.938,71.756
		l8.496-25.036l8.496,25.036H432.938L432.938,71.756z M476.553,96.791l-25.036-67.856c-1.019-2.378-2.152-3.511-4.645-3.511h-10.875
		c-2.492,0-3.738,1.133-4.645,3.511l-25.149,67.856c-0.566,1.361-0.566,3.174,1.926,3.174h11.896c2.491,0,3.397-0.68,4.305-3.4
		l3.172-8.948h27.755l3.171,8.948c0.906,2.721,1.813,3.4,4.305,3.4h11.896C477.119,99.965,477.119,98.152,476.553,96.791
		L476.553,96.791z M399.632,25.424h-12.007c-3.399,0-4.191,2.265-4.532,3.625l-11.215,38.517l-10.987-38.517
		c-0.454-1.586-1.247-3.625-3.739-3.625h-7.931c-2.605,0-3.398,2.039-3.851,3.625l-10.876,38.517l-11.215-38.517
		c-0.453-1.359-1.134-3.625-4.531-3.625h-12.462c-2.039,0-2.379,1.925-2.039,3.285l20.958,68.875c0,0,0.566,2.381,3.059,2.381h9.969
		c2.946,0,3.625-2.607,3.625-2.607l11.329-36.137l11.328,36.137c0,0,0.68,2.607,3.625,2.607h9.516c2.492,0,3.06-2.381,3.06-2.381
		l20.844-68.875C402.011,27.349,401.672,25.424,399.632,25.424L399.632,25.424z"/>
	<path fill-rule="evenodd" clip-rule="evenodd" fill="#FFFFFF" d="M545.084,135.982c0,5.092-2.547,7.639-7.639,7.639h-16.552v-5.092
		h16.552c1.696,0,2.546-0.85,2.546-2.547s-0.85-2.547-2.546-2.547H527.26c-5.093,0-7.639-2.545-7.639-7.639
		c0-5.092,2.546-7.639,7.639-7.639h16.551v5.092H527.26c-1.697,0-2.547,0.85-2.547,2.547s0.85,2.547,2.547,2.547h10.186
		C542.537,128.344,545.084,130.891,545.084,135.982L545.084,135.982z M508.8,125.797c0-1.697-0.85-2.547-2.547-2.547h-12.731v7.641
		h12.731c1.697,0,2.547-0.85,2.547-2.547V125.797L508.8,125.797z M513.892,125.797v2.547c0,5.092-2.546,7.639-7.639,7.639
		l7.639,7.639h-7.214l-7.639-7.639h-5.518v7.639h-5.093v-25.463h17.824C511.346,118.158,513.892,120.705,513.892,125.797
		L513.892,125.797z M482.7,123.25h-20.371v5.094h15.278v5.092h-15.278v5.094H482.7v5.092h-25.464v-25.463H482.7V123.25L482.7,123.25
		z M451.508,143.621h-5.093v-10.186h-15.277v10.186h-5.093v-25.463h5.093v10.186h15.277v-10.186h5.093V143.621L451.508,143.621z
		 M420.316,123.25H410.13v20.371h-5.092V123.25h-10.186v-5.092h25.464V123.25L420.316,123.25z M385.602,136.406v-11.033
		c0-1.697-0.85-2.547-2.547-2.547h-10.186c-1.696,0-2.546,0.85-2.546,2.547v11.033c0,1.699,0.85,2.547,2.546,2.547h10.186
		C384.752,138.953,385.602,138.105,385.602,136.406L385.602,136.406z M390.694,136.406c0,5.094-2.547,7.639-7.64,7.639h-10.186
		c-5.092,0-7.639-2.545-7.639-7.639v-11.033c0-5.092,2.547-7.639,7.639-7.639h10.186c5.093,0,7.64,2.547,7.64,7.639V136.406
		L390.694,136.406z M355.81,125.797c0-1.697-0.849-2.547-2.546-2.547h-12.731v7.641h12.731c1.697,0,2.546-0.85,2.546-2.547V125.797
		L355.81,125.797z M360.902,125.797v2.547c0,5.092-2.546,7.639-7.639,7.639l7.639,7.639h-7.215l-7.639-7.639h-5.517v7.639h-5.093
		v-25.463h17.824C358.356,118.158,360.902,120.705,360.902,125.797L360.902,125.797z M322.071,138.529H309.34v-5.094h12.731
		c1.697,0,2.547,0.85,2.547,2.547S323.769,138.529,322.071,138.529L322.071,138.529z M322.071,128.344H309.34v-5.094h12.731
		c1.697,0,2.547,0.85,2.547,2.547S323.769,128.344,322.071,128.344L322.071,128.344z M328.098,130.848
		c1.075-1.047,1.613-2.744,1.613-5.092c-0.028-5.064-2.575-7.598-7.64-7.598h-17.824v25.463h17.824c5.093,0,7.64-2.547,7.64-7.639
		C329.711,133.662,329.173,131.951,328.098,130.848L328.098,130.848z"/>
	<path fill-rule="evenodd" clip-rule="evenodd" fill="#EED586" d="M283.773,0L283.773,0c1.43,0,2.599,1.169,2.599,2.598v73.258
		l12.493,12.494l-12.493,12.494v73.258c0,1.43-1.169,2.598-2.598,2.598h-0.001c-1.429,0-2.598-1.168-2.598-2.598V2.598
		C281.176,1.169,282.345,0,283.773,0L283.773,0z"/>
</g>
</svg>
