<?xml version="1.0" encoding="utf-8"?>
<!-- Generator: Adobe Illustrator 16.0.0, SVG Export Plug-In . SVG Version: 6.00 Build 0)  -->
<!DOCTYPE svg PUBLIC "-//W3C//DTD SVG 1.1//EN" "http://www.w3.org/Graphics/SVG/1.1/DTD/svg11.dtd">
<svg version="1.1" id="Слой_1" xmlns="http://www.w3.org/2000/svg" xmlns:xlink="http://www.w3.org/1999/xlink" x="0px" y="0px"
	 width="116.333px" height="397.667px" viewBox="0 0 116.333 397.667" enable-background="new 0 0 116.333 397.667"
	 xml:space="preserve">
<rect x="9.588" y="170.693" transform="matrix(0.3923 0.9199 -0.9199 0.3923 169.3895 86.0062)" fill="#E4E5E6" width="20.039" height="1"/>
<rect x="47.789" y="161.173" transform="matrix(0.9196 0.3927 -0.3927 0.9196 71.1148 -5.2097)" fill="#E4E5E6" width="1.001" height="20.04"/>
<rect x="19.107" y="227.281" transform="matrix(0.9197 0.3925 -0.3925 0.9197 94.7152 11.3474)" fill="#E4E5E6" width="1" height="20.04"/>
<rect x="38.27" y="236.801" transform="matrix(0.3922 0.9199 -0.9199 0.3922 247.6323 99.8016)" fill="#E4E5E6" width="20.04" height="1"/>
<rect x="38.27" y="104.585" transform="matrix(0.3923 0.9199 -0.9199 0.3923 126.0116 19.446)" fill="#E4E5E6" width="20.039" height="1"/>
<rect x="76.471" y="95.066" transform="matrix(0.9196 0.3929 -0.3929 0.9196 47.4807 -21.7919)" fill="#E4E5E6" width="1" height="20.04"/>
<rect x="66.952" y="170.693" transform="matrix(0.3922 0.9199 -0.9199 0.3922 204.2588 33.2449)" fill="#E4E5E6" width="20.039" height="1"/>
<rect x="105.14" y="161.178" transform="matrix(0.9196 0.3929 -0.3929 0.9196 75.7629 -27.7393)" fill="#E4E5E6" width="1" height="20.04"/>
<rect x="76.458" y="227.286" transform="matrix(0.9197 0.3925 -0.3925 0.9197 99.3193 -11.1628)" fill="#E4E5E6" width="1" height="20.039"/>
<rect x="95.622" y="236.805" transform="matrix(0.3922 0.9199 -0.9199 0.3922 282.4968 47.0538)" fill="#E4E5E6" width="20.038" height="1"/>
<rect x="9.613" y="302.915" transform="matrix(-0.3922 -0.9199 0.9199 -0.3922 -251.7682 440.4859)" fill="#E4E5E6" width="20.038" height="1"/>
<rect x="47.814" y="293.396" transform="matrix(-0.9197 -0.3925 0.3925 -0.9197 -26.3409 601.4456)" fill="#E4E5E6" width="1" height="20.038"/>
<rect x="19.132" y="359.504" transform="matrix(-0.9197 -0.3925 0.3925 -0.9197 -107.3509 717.0974)" fill="#E4E5E6" width="1" height="20.038"/>
<rect x="38.295" y="369.023" transform="matrix(-0.3922 -0.9199 0.9199 -0.3922 -272.6456 558.9069)" fill="#E4E5E6" width="20.038" height="1"/>
<rect x="66.977" y="302.915" transform="matrix(-0.3922 -0.9199 0.9199 -0.3922 -171.9074 493.2478)" fill="#E4E5E6" width="20.038" height="1.001"/>
<rect x="105.165" y="293.4" transform="matrix(-0.9197 -0.3925 0.3925 -0.9197 83.7576 623.9646)" fill="#E4E5E6" width="1" height="20.04"/>
<rect x="76.483" y="359.508" transform="matrix(-0.9197 -0.3925 0.3925 -0.9197 2.7467 739.6163)" fill="#E4E5E6" width="1" height="20.04"/>
<rect x="95.646" y="369.027" transform="matrix(-0.3922 -0.9199 0.9199 -0.3922 -192.8129 611.6559)" fill="#E4E5E6" width="20.039" height="1.001"/>
<rect x="9.595" y="38.485" transform="matrix(0.3923 0.9199 -0.9199 0.3923 47.7811 5.6507)" fill="#E4E5E6" width="20.039" height="1"/>
<rect x="47.796" y="28.965" transform="matrix(0.9196 0.3929 -0.3929 0.9196 19.2023 -15.8411)" fill="#E4E5E6" width="1" height="20.04"/>
<rect x="19.114" y="95.073" transform="matrix(0.9196 0.3927 -0.3927 0.9196 42.8503 0.741)" fill="#E4E5E6" width="1.001" height="20.039"/>
<rect x="66.959" y="38.485" transform="matrix(0.3922 0.9199 -0.9199 0.3922 82.648 -47.1161)" fill="#E4E5E6" width="20.039" height="1"/>
<rect x="105.147" y="28.97" transform="matrix(0.9196 0.3929 -0.3929 0.9196 23.8166 -38.3749)" fill="#E4E5E6" width="1" height="20.04"/>
<rect x="95.628" y="104.597" transform="matrix(0.3922 0.9199 -0.9199 0.3922 160.8878 -33.3055)" fill="#E4E5E6" width="20.039" height="1"/>
<g>
	<defs>
		<rect id="SVGID_1_" width="116.333" height="397.667"/>
	</defs>
	<clipPath id="SVGID_2_">
		<use xlink:href="#SVGID_1_"  overflow="visible"/>
	</clipPath>
	<path clip-path="url(#SVGID_2_)" fill="#E4E5E6" d="M92.728,202.856c0.208-1.279,0.121-2.039-0.985-3.456
		c-1.104,1.417-1.209,2.181-1.002,3.459c-1.277-0.207-2.039-0.121-3.455,0.985c1.416,1.105,2.178,1.206,3.455,0.999
		c-0.207,1.278-0.113,2.032,0.992,3.449c1.106-1.417,1.195-2.181,0.988-3.46c1.278,0.207,2.039,0.121,3.456-0.984
		C94.76,202.742,94.007,202.649,92.728,202.856 M91.758,204.365c-0.286,0-0.519-0.231-0.519-0.518c0-0.287,0.232-0.52,0.519-0.52
		s0.518,0.232,0.518,0.52C92.275,204.134,92.044,204.365,91.758,204.365"/>
	<path clip-path="url(#SVGID_2_)" fill="#E4E5E6" d="M34.194,198.785l-0.008-0.016c-1.069,2.79-2.929,4.309-5.346,5.3l0.008,0.008
		c2.789,1.069,4.308,2.929,5.3,5.347l0.007,0.016c1.07-2.789,2.929-4.309,5.347-5.3l-0.008-0.009
		C36.705,203.063,35.186,201.202,34.194,198.785 M34.163,206.805l-0.004-0.009c-0.213-1.456-0.786-2.378-2.696-2.72l-0.004-0.004
		c1.798-0.452,2.41-1.041,2.72-2.696l0.004,0.009c0.337,1.817,1.018,2.328,2.696,2.72l0.004,0.004
		C35.116,204.379,34.512,204.945,34.163,206.805"/>
	<path clip-path="url(#SVGID_2_)" fill="#E4E5E6" d="M6.228,137.356c0.208-1.279,0.121-2.039-0.985-3.456
		c-1.105,1.417-1.209,2.181-1.002,3.459c-1.278-0.207-2.039-0.121-3.455,0.985c1.416,1.106,2.177,1.206,3.455,0.999
		c-0.207,1.279-0.114,2.032,0.992,3.449c1.106-1.417,1.195-2.18,0.988-3.459c1.279,0.207,2.039,0.121,3.456-0.985
		C8.259,137.243,7.506,137.149,6.228,137.356 M5.257,138.865c-0.286,0-0.518-0.232-0.518-0.518c0-0.287,0.232-0.519,0.518-0.519
		c0.286,0,0.518,0.232,0.518,0.519C5.775,138.633,5.543,138.865,5.257,138.865"/>
	<path clip-path="url(#SVGID_2_)" fill="#E4E5E6" d="M63.193,132.535l-0.008-0.016c-1.068,2.79-2.929,4.309-5.346,5.3l0.008,0.008
		c2.789,1.069,4.308,2.929,5.3,5.347l0.007,0.015c1.07-2.789,2.93-4.308,5.348-5.3l-0.008-0.008
		C65.705,136.813,64.186,134.952,63.193,132.535 M63.163,140.554l-0.004-0.008c-0.214-1.456-0.786-2.378-2.696-2.72l-0.004-0.004
		c1.798-0.452,2.41-1.041,2.72-2.696l0.004,0.008c0.337,1.818,1.019,2.329,2.696,2.72l0.004,0.004
		C64.115,138.129,63.512,138.695,63.163,140.554"/>
	<path clip-path="url(#SVGID_2_)" fill="#E4E5E6" d="M33.289,73.344c-0.207,1.278-0.114,2.032,0.992,3.448
		c1.106-1.416,1.196-2.18,0.988-3.458c1.279,0.207,2.039,0.121,3.456-0.985c-1.417-1.106-2.17-1.2-3.449-0.992
		c0.208-1.279,0.121-2.039-0.985-3.456c-1.105,1.417-1.209,2.18-1.002,3.459c-1.278-0.208-2.039-0.121-3.455,0.985
		C31.25,73.45,32.011,73.551,33.289,73.344 M34.306,71.829c0.286,0,0.518,0.232,0.518,0.518c0,0.287-0.232,0.519-0.518,0.519
		s-0.518-0.232-0.518-0.519C33.788,72.061,34.02,71.829,34.306,71.829"/>
	<path clip-path="url(#SVGID_2_)" fill="#E4E5E6" d="M92.242,66.535l-0.008-0.016c-1.069,2.79-2.93,4.309-5.347,5.3l0.009,0.008
		c2.788,1.069,4.308,2.929,5.3,5.347l0.007,0.015c1.07-2.789,2.929-4.308,5.347-5.3l-0.008-0.008
		C94.753,70.813,93.234,68.952,92.242,66.535 M92.211,74.554l-0.004-0.008c-0.213-1.456-0.786-2.378-2.696-2.72l-0.004-0.004
		c1.798-0.452,2.41-1.041,2.72-2.696l0.005,0.008c0.337,1.818,1.018,2.329,2.695,2.72l0.004,0.004
		C93.164,72.129,92.56,72.695,92.211,74.554"/>
	<path clip-path="url(#SVGID_2_)" fill="#E4E5E6" d="M6.276,5.356C6.484,4.078,6.396,3.317,5.291,1.9
		C4.186,3.317,4.082,4.082,4.289,5.359C3.011,5.152,2.25,5.238,0.833,6.345C2.25,7.451,3.011,7.55,4.289,7.344
		c-0.207,1.279-0.114,2.032,0.992,3.449c1.106-1.417,1.196-2.18,0.988-3.459c1.279,0.207,2.039,0.121,3.456-0.985
		C8.308,5.243,7.555,5.149,6.276,5.356 M5.306,6.865c-0.286,0-0.518-0.232-0.518-0.518c0-0.287,0.232-0.519,0.518-0.519
		s0.518,0.232,0.518,0.519C5.824,6.633,5.592,6.865,5.306,6.865"/>
	<path clip-path="url(#SVGID_2_)" fill="#E4E5E6" d="M63.242,0.535L63.234,0.52c-1.069,2.79-2.93,4.309-5.346,5.3l0.008,0.008
		c2.789,1.069,4.308,2.929,5.3,5.347l0.007,0.015c1.07-2.789,2.929-4.308,5.347-5.3l-0.008-0.008
		C65.753,4.813,64.234,2.952,63.242,0.535 M63.211,8.554l-0.004-0.008c-0.213-1.456-0.786-2.378-2.696-2.72l-0.004-0.004
		c1.798-0.452,2.41-1.041,2.72-2.696l0.005,0.008c0.337,1.818,1.018,2.329,2.695,2.72l0.004,0.004
		C64.164,6.129,63.56,6.695,63.211,8.554"/>
	<path clip-path="url(#SVGID_2_)" fill="#E4E5E6" d="M5.228,269.356c0.208-1.279,0.121-2.039-0.985-3.456
		c-1.105,1.417-1.209,2.181-1.002,3.459c-1.278-0.207-2.039-0.121-3.455,0.985c1.416,1.105,2.177,1.206,3.455,0.999
		c-0.207,1.278-0.114,2.032,0.992,3.449c1.106-1.417,1.195-2.181,0.988-3.46c1.279,0.207,2.039,0.121,3.456-0.984
		C7.259,269.242,6.506,269.149,5.228,269.356 M4.257,270.865c-0.286,0-0.518-0.231-0.518-0.518c0-0.287,0.232-0.52,0.518-0.52
		c0.286,0,0.518,0.232,0.518,0.52C4.775,270.634,4.543,270.865,4.257,270.865"/>
	<path clip-path="url(#SVGID_2_)" fill="#E4E5E6" d="M62.193,264.535l-0.008-0.016c-1.068,2.79-2.929,4.309-5.346,5.3l0.008,0.008
		c2.789,1.069,4.308,2.929,5.3,5.347l0.007,0.016c1.07-2.789,2.93-4.309,5.348-5.3l-0.008-0.009
		C64.705,268.813,63.186,266.952,62.193,264.535 M62.163,272.555l-0.004-0.009c-0.214-1.456-0.786-2.378-2.696-2.72l-0.004-0.004
		c1.798-0.452,2.41-1.041,2.72-2.696l0.004,0.009c0.337,1.817,1.019,2.328,2.696,2.72l0.004,0.004
		C63.115,270.129,62.512,270.695,62.163,272.555"/>
	<path clip-path="url(#SVGID_2_)" fill="#E4E5E6" d="M92.228,335.856c0.208-1.279,0.121-2.039-0.985-3.456
		c-1.104,1.417-1.209,2.181-1.002,3.459c-1.277-0.207-2.039-0.121-3.455,0.985c1.416,1.105,2.178,1.206,3.455,0.999
		c-0.207,1.278-0.113,2.032,0.992,3.449c1.106-1.417,1.195-2.181,0.988-3.46c1.278,0.207,2.039,0.121,3.456-0.984
		C94.26,335.742,93.507,335.649,92.228,335.856 M91.258,337.365c-0.286,0-0.519-0.231-0.519-0.518c0-0.287,0.232-0.52,0.519-0.52
		s0.518,0.232,0.518,0.52C91.775,337.134,91.544,337.365,91.258,337.365"/>
	<path clip-path="url(#SVGID_2_)" fill="#E4E5E6" d="M34.194,331.535l-0.008-0.016c-1.069,2.79-2.929,4.309-5.346,5.3l0.008,0.008
		c2.789,1.069,4.308,2.929,5.3,5.347l0.007,0.016c1.07-2.789,2.929-4.309,5.347-5.3l-0.008-0.009
		C36.705,335.813,35.186,333.952,34.194,331.535 M34.163,339.555l-0.004-0.009c-0.213-1.456-0.786-2.378-2.696-2.72l-0.004-0.004
		c1.798-0.452,2.41-1.041,2.72-2.696l0.004,0.009c0.337,1.817,1.018,2.328,2.696,2.72l0.004,0.004
		C35.116,337.129,34.512,337.695,34.163,339.555"/>
</g>
</svg>
