<?xml version="1.0" encoding="utf-8"?>
<!-- Generator: Adobe Illustrator 16.0.0, SVG Export Plug-In . SVG Version: 6.00 Build 0)  -->
<!DOCTYPE svg PUBLIC "-//W3C//DTD SVG 1.1//EN" "http://www.w3.org/Graphics/SVG/1.1/DTD/svg11.dtd">
<svg version="1.1" id="Слой_1" xmlns="http://www.w3.org/2000/svg" xmlns:xlink="http://www.w3.org/1999/xlink" x="0px" y="0px"
	 width="16.372px" height="19.076px" viewBox="0 0 16.372 19.076" enable-background="new 0 0 16.372 19.076" xml:space="preserve">
<g>
	<defs>
		<rect id="SVGID_1_" y="0" width="16.372" height="19.076"/>
	</defs>
	<clipPath id="SVGID_2_">
		<use xlink:href="#SVGID_1_"  overflow="visible"/>
	</clipPath>
	<g clip-path="url(#SVGID_2_)">
		<path fill="#000100" d="M8.013,19.076c-2.719,0-5.298-0.989-7.666-2.94c-0.562-0.462-0.319-1.687-0.114-2.121
			c0.183-0.547,0.771-0.999,1.796-1.382c2.154-0.704,3.143-1.532,3.315-1.687c-0.006,0,0.001-0.021,0.003-0.072
			c0-0.114-0.04-0.351-0.3-0.784L4.944,9.926C4.576,9.313,4.312,8.649,4.161,7.98C4.044,7.804,3.902,7.58,3.79,7.159
			C3.663,6.731,3.496,5.931,3.85,5.53l0.054-0.052C3.744,4.69,3.73,3.327,3.901,2.82c0.587-1.779,2.687-2.606,2.776-2.64
			C7.312-0.1,7.854,0.022,7.875,0.026C7.834,0.018,7.843,0.015,8.229,0.094c0.523,0.104,3.517,1.049,4.072,2.728
			c0.258,0.768,0.09,2.067-0.007,2.648c0.424,0.392,0.252,1.231,0.113,1.702c-0.114,0.43-0.265,0.655-0.354,0.79
			c-0.148,0.66-0.419,1.359-0.779,1.97c-0.071,0.113-0.114,0.181-0.154,0.249c-0.219,0.37-0.301,0.648-0.222,0.751
			c0.129,0.117,1.135,0.981,3.311,1.693c1.307,0.492,1.964,1.017,2.088,1.655c0.041,0.131,0.264,1.471-0.282,1.919
			c-2.275,1.869-4.96,2.863-7.766,2.874L8.013,19.076z M5.777,9.374l0.109,0.173c0.314,0.52,0.459,0.94,0.46,1.311
			c-0.005,0.309-0.095,0.559-0.26,0.757c-0.241,0.229-1.343,1.183-3.728,1.962c-1.024,0.382-1.163,0.702-1.18,0.763l-0.046,0.109
			c-0.1,0.177-0.181,0.805-0.104,0.969c2.137,1.746,4.502,2.658,6.983,2.658l0.189-0.002c2.651-0.01,5.052-0.9,7.177-2.647
			c0.019-0.095,0.002-0.722-0.054-0.91c-0.018-0.084-0.125-0.447-1.449-0.947c-2.54-0.831-3.639-1.884-3.685-1.929
			c-0.453-0.479-0.426-1.137,0.066-1.968c0.05-0.083,0.101-0.165,0.153-0.244c0.308-0.524,0.537-1.12,0.666-1.726
			c0.053-0.159,0.102-0.231,0.144-0.295c0.066-0.099,0.148-0.222,0.224-0.505c0.103-0.347,0.127-0.621,0.119-0.741
			c-0.248-0.234-0.389-0.401-0.275-0.691c0.063-0.353,0.267-1.729,0.064-2.33c-0.344-1.038-2.664-1.934-3.321-2.063
			C8.026,1.074,7.776,1.022,7.714,1.012C7.597,0.993,7.37,0.968,7.057,1.104C7.02,1.119,5.291,1.799,4.85,3.136
			C4.674,3.66,4.802,4.851,4.929,5.511c0.095,0.291-0.105,0.475-0.335,0.685C4.625,6.17,4.626,6.464,4.752,6.888
			c0.079,0.295,0.161,0.418,0.227,0.518C5.023,7.47,5.072,7.544,5.105,7.639C5.247,8.282,5.473,8.861,5.777,9.374z"/>
	</g>
</g>
</svg>
