<svg xmlns="http://www.w3.org/2000/svg" width="729.919" height="520.192" viewBox="54.546 45.108 729.919 520.192"><path fill="#E9AE73" d="M511.76 335.016c-1.16 12.63-6.7 34.665.388 76.805 16.495-.643 28.35-2.705 39.305-4.638-18.557 41.237-26.547 71.65-34.536 103.866-7.217 25 3.094 33.506 9.536 40.723 35.182 3.095 43.558-6.958 96.65-11.597-3.608-7.904-6.443-17.613-6.96-35.566-30.154-11.6-48.453 0-48.453 0 13.145-12.63 27.32-35.568 40.593-57.22 19.46 28.74 39.305 50.39 55.155 67.4 0 .57 5.13 1.03 11.47 1.03 7.022-6.572 6.637-15.014 20.554-18.557 10.115-3.287 14.498-6.38 28.995-10.826 8.183-22.55 11.79-33.377 16.173-46.906-15.206 2.834-30.542-1.16-40.594-3.738-8.763 11.727-13.272 19.717-17.826 29.984-7.904-32.646-13.145-45.706-24.056-61.428l.172.258c.086-27.492-19.07-42.87-39.69-49.14l.172.17c-19.416-12.8-47.68-1.374-61.427 1.032-25.43 0-46.005-9.8-46.005-21.908"/><path fill="#991E21" d="M623.188 541.29c26.203-1.804 40.346-3.243 53.523-.43 6.787 2.062 19.932-.858 26.72-3.093 14.603-5.67 22.937-5.842 32.73-5.584 9.545 0 8.506 2.922 17.27 1.375 5.755-1.29 11.34-18.9 7.044-24.313-6.1-7.646-20.877-15.465-24.914-13.06-10.91 6.356-28.18 9.192-30.07 3.608.26-2.922 14.95-8.764 25-12.457l-1.202-2.32-35.48 12.8c-11.512 2.923-13.402 14.22-18.9 18-24.572-.474-47.768-8.894-59.107-12.33.86 20.105 3.266 26.634 7.56 37.63"/><path fill="#77151D" d="M705.578 500.052c-.9-3.436 14.005-7.346 25.26-11.813l-1.548-3.224c-17.912 5.412-21.22 7.475-36.47 13.016 5.67 6.572 13.274 11.34 28.738 10.053 18.557-3.436 32.73 14.563 37.243 20.104 2.105-4.513 5.198-13.79 1.676-18.944-5.155-6.7-20.104-15.293-24.57-13.316-14.09 8.504-30.328 8.076-30.414 3.865"/><path fill="#991E21" d="M775.853 327.542c6.443-3.78 8.247-5.928 8.59-11.426.345-4.21-3.606-8.506-9.105-13.746-1.29-1.203-1.977-2.234-5.67-1.633-11.255 1.375-13.574 1.805-19.847 3.52-3.35 1.032-4.617 4.792-4.938 10.462-.516 12.24-5.735 28.22-14.37 28.993-6.313 1.29-9.664-9.15-8.054-31.508-1.61.258-2.77.45-4.64.773-.77 7.088-.9 12.887-.386 30.025 1.03 13.273-.13 23.97 5.284 34.15 10.052 14.82-9.88 41.237-23.927 58.12 9.794 3.265 27.233 7.474 42.87 3.864 9.707-34.105 16.322-52.577 23.11-83.247 2.407-12.712-.343-21.732 11.083-28.348z"/><path fill="#76141C" d="M751.842 303.703c-4.77.772-6.7 3.35-6.83 9.664-.645 10.567-4.51 31.187-15.852 30.284-5.025-.257-8.12-9.922-6.7-31.443-2.19.258-3.223.516-4.64.773-.644 13.016-.987 21.436.388 47.725 4.64-7.39 11.34-11.127 17.396-13.832 10.696-6.314 12.37-14.69 13.016-22.938.388-7.73 18.364-14.37 34.602-12.692-4.897-6.638-8.956-11.148-11.79-10.633-11.343 1.03-11.472 1.288-19.59 3.093z"/><path fill="#E1A161" d="M608.283 447.775c13.017-27.578 26.497-26.6 29.124-50.902.388-7.218.773-7.346 5.8-9.537 6.314-1.933 7.045-1.375 10.652-3.78 4.982 8.506 6.1 25.946 1.46 35.053-4.253 7.344-8.376 13.06-10.31 22.852-3.478 24.742 20.62 36.984 14.563 69.33-18.428-20.232-39.047-43.428-51.29-63.402M740.63 439.53c-15.206 2.446-23.626.9-40.594-3.74-.9 1.118-1.847 2.58-3.222 4.726 26.117.688 36.17 21.822 15.722 49.916l12.114-4.21 15.98-46.693zM685.474 501.77c-2.02 0-3.265-16.313-3.265-35.995l.042-.346c-6.314 25.128-6.314 33.376-7.346 50.388 5.026-5.027 6.058-9.408 10.31-13.66"/><path fill="#C6874D" d="M678.193 483.47c.86-5.67 1.29-13.28 1.29-28.285 1.417 5.154 1.74 6.766 2.728 10.59-1.053 3.586-2.34 8.998-4.017 17.695zM633.326 480.808c-9.45-10.998-15.808-19.416-25.043-33.42 4.253-8.506 6.486-10.738 10.267-16.064 7.903-11.34 19.07-16.984 19.07-37.974 3.61 24.228-19.242 33.677-23.882 56.53 3.093 7.905 8.59 15.12 19.588 30.928z"/><path fill="#BA2531" d="M637.622 393.35c-.344-9.278-11.34-16.84-36.083-11.685-11.34 3.094-29.64 5.756-49.83 24.914 5.155-19.59 20.963-54.813 41.926-57.218 6.528.172 14.604-1.203 25 6.1l.172.172c19.588 5.07 31.615 15.12 35.052 27.664-4.984 5.07-14.778.774-16.238 10.052"/><path fill="#E1A161" d="M514.596 525.654c0-9.965 10.138-43.814 23.195-84.71-3.092 45.02-8.59 58.937 4.47 79.556 8.934 13.06 30.51 20.877 68.213 20.877-39.69 4.037-52.578 14.004-84.02 10.395-4.64-5.155-11.857-11.872-11.857-26.118z"/><path fill="#C6874D" d="M561.762 550.052c-19.374 0-31.7-2.92-35.052-4.896-5.584-3.436-10.91-8.162-12.285-17.87.43 13.144 6.614 18.386 12.027 24.485 12.63 1.72 28.523-.17 35.31-1.718z"/><path fill="#E1A161" d="M609.1 502.2c1.63 14.347 11.597 32.39 1.374 39.177 4.896-.516 5.842-.86 12.457-1.29-3.607-8.333-6.528-17.438-7.3-35.653-2.664-1.03-4.124-1.634-6.53-2.233z"/><path fill="#C6874D" d="M572.458 499.58c-6.83 5.156-8.375 7.604-14.562 15.078 8.247-6.443 12.242-10.697 22.294-14.305-5.67 1.117-8.462 2.148-12.5 4.254 2.362-2.363 3.092-3.094 4.768-5.027z"/><path fill="#E1A161" d="M604.975 433.04c8.548 0 20.705-10.91 24.055-14.775-2.19 2.706-8.634 11.47-12.114 15.077-5.54 2.45-11.94.126-11.94-.3z"/><path fill="#891A28" d="M766.34 342.555c1.03-11.168 7.02-13.468 14.238-18.278 1.89-1.375 5.843-7.045 2.643-13.037-.58 5.82-3.328 8.055-8.483 10.803-6.53 3.437-8.398 9.21-8.398 20.512zM750.81 533.923c4.416 0 5.606-2.32 7.99-5.734-.773-1.097-1.16-1.483-2.19-2.708-3.867 4.896-9.537 2.447-21.908 2.063-16.882-.13-20.877 3.994-35.31 11.21 20.425-7.022 27.77-6.636 35.31-6.57 8.44.127 10.116 2.06 16.108 1.738z"/><path fill="#BA2531" d="M692.17 501.847c-5.602 1.455-6.983 6.62-10.476 11.35 6.91-5.82 11.712-3.2 12.367-7.057.438-.945-.8-4.8-1.89-4.293zM707.527 431.666c10.48-12.75 15.33-19.002 20.227-38.526-1.36 12.01-6.378 27.582-18.188 40.356-.615.98-2.957-.596-2.04-1.83z"/><g fill="#BA2531"><path d="M763.224 317.748c-6.357 5.498-9.622 7.56-10.997 15.81.516-8.766-.17-11.685 10.997-15.81z"/><path d="M752.482 333.598l-.51-.058c.036-.62.065-1.213.095-1.778.378-7.33.534-10.365 11.068-14.255l1.33-.492-1.072.928c-.59.512-1.154.992-1.692 1.45-5.317 4.538-7.986 6.815-9.218 14.205zm9.45-15.08c-8.244 3.272-8.934 5.933-9.277 11.905 1.502-5.27 4.256-7.62 8.712-11.422l.566-.482z"/></g><path fill="#BA2531" d="M718.4 360.662c1.546 12.05 3.157 14.26 5.8 18.88-1.998-5.33-4.705-13.79-3.352-22.36-.965 1.16-1.16 1.76-2.448 3.48zM615.758 503.19c7.345 3.09 25 9.534 57.604 12.757-29.64-1.29-44.2-5.54-57.346-8.893 0-1.97-.096-3.564-.215-3.564"/><path fill="#A11D2B" d="M619.408 355.893c10.653 8.763 17.183 19.93 18.213 37.457.603-3.78 2.064-5.155 4.898-6.187-3.093-14.26-10.567-22.51-22.595-31.27"/><path fill="#E1A161" d="M551.452 407.182c.902-5.026 1.547-7.603 4.77-15.464-5.027 9.406-19.944 16.753-44.59 16.753.286 0 .516 1.5.516 3.352 21.78-1.29 34.407-3.867 39.304-4.64z"/><linearGradient id="a" gradientUnits="userSpaceOnUse" x1="595.678" y1="169.153" x2="595.678" y2="250.855" gradientTransform="matrix(1 0 0 -1 -.02 594.375)"><stop offset="0" stop-color="#2f1c0e"/><stop offset="1" stop-color="#4c2b16"/></linearGradient><path fill="url(#a)" d="M543.72 425.222c14.44-13.887 85.567 3.352 112.036-81.7-39.047 15.502-69-4.847-97.884 11.626-2.406 1.453-.578 1.13-6.42 1.39 19.846 28.48-2.836 50.128-15.895 53.308 7.22 2.422 4.458 7.223 9.45 9.107.894 1.668-.578 2.77-1.287 6.27z"/><linearGradient id="b" gradientUnits="userSpaceOnUse" x1="557.267" y1="179.032" x2="557.267" y2="244.411" gradientTransform="matrix(1 0 0 -1 -.02 594.375)"><stop offset="0" stop-color="#f6b319"/><stop offset="1" stop-color="#fbda0e"/></linearGradient><path fill="url(#b)" d="M541.573 415.343c18.558-3.78 40.81-26.202 29.47-65.38-5.542 1.42-7.927 2.58-11.342 4.255 18.042 31.96-8.787 59.408-19.33 59.408.773.836 1.096 1.288 1.203 1.717z"/><path fill="#2F1C0E" d="M655.233 386.39c4.725-12.715 6.942-20.422.523-42.87-3.96 11.427-5.85 16.582-11.435 26.634 5.243 5.413 8.594 9.708 10.913 16.237z"/><linearGradient id="c" gradientUnits="userSpaceOnUse" x1="571.312" y1="175.596" x2="571.312" y2="246.177" gradientTransform="matrix(1 0 0 -1 -.02 594.375)"><stop offset="0" stop-color="#f6b319"/><stop offset="1" stop-color="#fbda0e"/></linearGradient><path fill="url(#c)" d="M543.978 418.78c31.186-5.41 56.96-35.567 55.928-70.104-7.946-.557-13.832-.473-14.733-.473 4.896 38.402-17.784 66.023-42.526 69.116.688.687.903 1.03 1.33 1.46z"/><path opacity=".3" fill="#2F1C0E" d="M557.724 399.192c-6.014 6.7-4.167 10.933-12.586 19.522-3.3 0-3.222-4.252-5.972-7.15 6.187-.86 9.968-2.92 18.558-12.372z"/><linearGradient id="d" gradientUnits="userSpaceOnUse" x1="589.918" y1="172.374" x2="589.918" y2="245.356" gradientTransform="matrix(1 0 0 -1 -.02 594.375)"><stop offset="0" stop-color="#f6b319"/><stop offset="1" stop-color="#fbda0e"/></linearGradient><path fill="url(#d)" d="M544.75 422c12.89-3.864 16.496-4.895 26.376-7.687 35.053-9.278 55.672-27.32 63.918-65.293-9.535 1.16-12.155.815-19.76.687-3.265 38.146-34.536 65.637-70.018 70.19-.042.558 0 1.117-.515 2.104z"/><path opacity=".2" fill="#2E1C11" d="M544.236 423.162c7.388-4.467 5.756-8.076 12.715-10.652-6.457 0-8.504 6.53-11.683 7.388-.086.857 0 1.717-1.03 3.264z"/><path fill="#E1A161" d="M705.492 499.794c1.246-2.533 6.787-5.11 17.612-8.59-1.546 5.8-2.19 7.344-3.866 10.953-4.896.773-11.727 1.29-13.66-2.105"/><path fill="#281A11" d="M177.652 293.006c0 5.11-1.804 14.347-6.873 26.117 5.41-11.21 14.646-11.21 17.395-30.112"/><path fill="#905D31" d="M171.94 319.683l-2.345-1.07c6.28-14.582 6.768-23.287 6.768-25.607h2.577c0 4.5-1.24 10.625-3.44 17.322.483-.513.968-1.013 1.45-1.51 4.26-4.39 8.283-8.535 9.95-19.993l2.55.37c-1.786 12.285-6.293 16.927-10.65 21.42-2.54 2.615-4.938 5.086-6.86 9.068z"/><path fill="#261911" d="M183.02 159.37c-6.7 28.093 2.793 51.848 16.797 64.82-8.076-14.863-1.89-23.11 9.622-31.358-4.813-6.186-14.262-16.065-17.098-21.736-2.233-.172-3.436-9.966-1.288-4.725-1.375-2.403-5.026 1.334-8.033-7z"/><path fill="#905D31" d="M203.717 229.21l-4.6-4.263c-12.987-12.03-24.297-35.637-17.1-65.816l.802-3.357 1.17 3.247c1.753 4.856 3.516 5.083 5.07 5.284l.106.014c.042-.062.09-.12.145-.177.218-.22.506-.34.81-.34.836 0 1.31.766 1.888 2.18l-.955.467c.244 1.51.926 3.354 1.41 3.625l.54.042.263.52c1.846 3.693 6.764 9.438 11.104 14.505 2.205 2.573 4.287 5.005 5.884 7.06l.658.845-.872.625c-11.685 8.37-16.956 15.968-9.315 30.027l2.992 5.512zm-20.353-66.59c-4.94 24.683 2.815 44.538 13.077 56.558-4.035-11.668 1.614-19.26 11.524-26.55-1.467-1.832-3.27-3.936-5.16-6.147-4.48-5.228-9.104-10.63-11.178-14.522-1.648-.762-2.432-3.858-2.657-5.586l-.174-.022c-1.467-.19-3.54-.457-5.432-3.73z"/><path fill="#261911" d="M342.81 139.34c15.205 24.554 13.672 50.09 4.465 66.81-16.83 17.783-17.61 12.193-31.134 7.99 2.62-7.387 20.607-54.462 21.514-60.736 2.066-.866.124-10.54-.264-4.89.547-2.716 5.19-.32 5.42-9.175z"/><path fill="#905D31" d="M329.798 219.446c-2.522 0-4.884-.933-7.87-2.114-1.746-.69-3.726-1.473-6.092-2.208l-1.024-.318.358-1.01c.615-1.74 2.092-5.7 3.96-10.71 5.88-15.774 16.825-45.133 17.504-49.828l.083-.578.502-.21c.373-.408.437-2.374.195-3.884l-1.054-.142c.075-1.084.19-2.722 1.46-2.722.298 0 .533.1.717.247.03-.016.063-.03.094-.046 1.414-.68 3.015-1.45 3.148-6.61l.09-3.452 1.817 2.935c16.334 26.378 13.03 52.346 4.49 67.852l-.063.115-.09.096c-8.793 9.292-13.562 12.585-18.224 12.586zm-12.325-5.963c1.99.657 3.688 1.328 5.212 1.93 2.784 1.1 4.983 1.97 7.112 1.97 3.99 0 8.353-3.102 16.637-11.844 7.926-14.492 11.102-38.378-2.928-63.01-.765 3.704-2.65 4.61-3.982 5.252l-.157.076c.33 1.715.563 4.912-.772 6.148-1.203 5.997-11.383 33.304-17.532 49.8a1525.835 1525.835 0 0 0-3.59 9.677z"/><path fill="#281A11" d="M188.176 289.01c-2.318 29.38-11.647 41.445-13.272 50.732-4.124 21.65-2.026 37.568 1.84 53.03-8.426 14.61-24.592 51.075-22.488 72.993-1.775 12.898-3.5 15.707-1.322 27.945 0-6.98.544-12.238 3.807-13.234-1.63 7.615-1.36 9.97.364 16.045 0-5.09 1.028-9.204 2.3-9.204 3.158 8.27 7.826 16.936 14.38 25.975-10.734 3.087-15.89 7.038-21.817 14.255-9.608 1.813-15.39 3.287-20.103 11.082-3.173 4.262-4.257 7.69-3.35 13.402 0-4.21 6.72-4.814 8.103-5.743 5.212 1.27 7.592.25 10.515-1.813-1.36 5.348-.544 8.7-.18 9.79.86-3.99 2.424-5.483 3.988-5.62 10.243 3.174 10.515-2.086 14.323-2.357 5.167-.635 5.62 1.633 11.33.906 24.93-4.078 39.704-13.87 42.605-33.54 2.312-19.942 4.76-28.372 16.18-38.57 0 4.284-.27 5.235-1.495 7.75 3.604-2.99 5.644-8.157 6.12-11.49 1.224 4.284.95 7.07-.205 10.267 3.943-4.895 5.644-10.334 5.983-14.55 1.157 6.257 0 10.403-.543 12.782 6.05-5.71 5.438-15.16 9.586-17.133 6.935-2.72 13.957-4.896 31.206-4.896-1.848-71.346 193.706-190.792 184.495-269.705-.582-4.99-62.796 33.514-71.307 28.213-12.73-7.93-31.595-15.266-48.41-19.193 0 0-18.602 27.32-32.605 24.742-4.97-.915 8.247-26.804 10.825-31.444 9.862-17.752-40.76-8.976-55.155-15.98-42.268 1.03-23.163 6.735-59.245 14.983-26.46 6.187-26.666 9.074-62.062 34.503-11.34-5.498-13.23-6.7-20.962-13.918-3.093-2.577-6.287-6.148-9.278-10.567-1.03-8.935-.687-6.7-2.577-12.37.128-3.996 0-3.867 2.19-9.28-2.964 2.32-4.124 2.127-4.253 1.096-.388-1.546-.516-2.448-1.805-4.446 0-1.29 3.352-1.546 1.46-4.897 0-4.982 4.726-12.284 13.574-17.267-8.42-1.89-15.894 2.148-21.82 6.357-.69-1.46 8.245-10.138 20.273-12.715-7.56-3.436-18.558-1.89-27.063 3.007 3.52-4.725 8.162-8.505 18.814-10.567-4.724-1.718-18.556-5.67-30.498 5.327-.258-6.873 5.842-13.746 16.495-20.533-15.55.514-17.87 3.178-28.995 11.726-23.84-2.964-8.422 48.53-.346 66.915 2.234 3.266 4.685 14.23 14.65 36.566 10.528 24.195 22.166 41.753 48.454 57.39 20.963 4.81 27.148 2.406 36.77-2.75"/><path fill="#905D31" d="M147.162 558.162l-1.19-3.572c-.358-1.072-1.01-3.78-.34-7.96-2.422 1.284-4.888 1.66-8.873.75-.46.212-1.057.396-1.764.612-2.874.88-5.453 1.854-5.453 4.037l-2.05.16c-.907-5.72.012-9.425 3.513-14.14 4.895-8.064 10.97-9.66 20.402-11.45 5.37-6.485 10.42-10.708 20.694-13.886-5.523-7.785-9.9-15.656-13.037-23.44-.455 1.278-.932 3.737-.932 7.245v7.413l-2.022-7.133c-1.498-5.285-1.9-7.97-1.023-13.213-.95 2.314-1.123 6.143-1.123 10.123l-2.046.18c-1.708-9.605-1.047-13.574.154-20.777.35-2.102.747-4.48 1.146-7.37-2.05-22.104 14.072-58.507 22.425-73.124-3.498-14.1-6.087-30.31-1.752-53.07.538-3.067 1.848-6.325 3.507-10.45 3.456-8.592 8.188-20.357 9.752-40.17l2.054.163c-1.59 20.125-6.39 32.06-9.895 40.777-1.615 4.012-2.89 7.182-3.393 10.05-4.305 22.603-1.667 38.64 1.824 52.604l.102.403-.207.36c-8.196 14.212-24.445 50.6-22.354 72.38l.013.12-.016.12c-.41 2.97-.814 5.4-1.17 7.545-.65 3.89-1.123 6.732-1.163 9.982.664-1.97 1.744-3.408 3.495-3.943l1.676-.513-.367 1.715c-.898 4.19-1.213 6.697-1.01 9.172.474-1.967 1.284-3.58 2.663-3.58h.71l.253.664c3.254 8.523 8.05 17.184 14.25 25.738l.864 1.19-1.413.405c-10.925 3.142-15.746 7.15-21.305 13.92l-.238.288-.368.068c-9.373 1.77-14.896 3.133-19.412 10.604l-.055.082c-2.41 3.234-3.452 5.848-3.46 9.168 1.49-1.264 3.63-1.92 5.16-2.39.667-.204 1.42-.437 1.65-.59l.376-.255.442.11c5.072 1.233 7.124.145 9.677-1.655l2.28-1.61-.687 2.706c-.536 2.11-.716 3.89-.72 5.313 1.075-1.776 2.373-2.333 3.44-2.425l.2-.018.192.06c6.42 1.987 8.51.495 10.357-.823 1.006-.717 2.046-1.46 3.56-1.576 2.696-.328 4.228.086 5.71.486 1.47.396 2.86.77 5.592.424 12.764-2.088 22.284-5.6 29.07-10.723 7.124-5.38 11.26-12.557 12.646-21.945 1.133-9.777 2.32-17.08 4.735-23.168 2.367-5.973 5.89-10.764 11.78-16.02l1.718-1.534v2.303c0 1.372-.03 2.425-.105 3.302 1.464-2.39 2.378-5.088 2.678-7.188l.685-4.783 1.328 4.647c.62 2.168.86 3.98.834 5.6 1.636-3.086 2.665-6.443 2.926-9.682l.626-7.764 1.414 7.66c.682 3.685.586 6.67.276 9.005 1.296-2.172 2.1-4.56 2.838-6.754 1.122-3.333 2.09-6.214 4.472-7.345l.066-.03c6.79-2.66 13.8-4.874 30.538-4.962.01-34.29 43.076-78.31 88.645-124.883 49.29-50.38 100.254-102.473 95.922-143.22-2.62.143-13.92 5.843-23.94 10.9-24.336 12.275-41.947 20.725-46.94 17.615-12.242-7.626-30.353-14.84-47.418-18.904-2.742 3.896-18.057 24.78-31.146 24.78-.704 0-1.402-.06-2.09-.187-.718-.132-1.29-.582-1.614-1.267-2.543-5.39 11.578-31.43 11.724-31.69 1.23-2.218 1.46-3.957.694-5.316-2.606-4.64-16.508-5.197-28.77-5.687-10.686-.427-20.785-.83-26.4-3.44-24.02.6-27.837 2.73-33.61 5.95-4.395 2.45-9.865 5.5-25.184 9-21.72 5.08-25.472 7.833-46.29 23.122-4.376 3.214-9.336 6.858-15.4 11.214l-.5.357-.552-.268c-11.53-5.592-13.52-6.91-21.195-14.073-3.255-2.718-6.52-6.44-9.448-10.763l-.142-.21-.216-1.875c-.646-5.632-.646-5.632-1.54-8.195-.214-.61-.476-1.358-.804-2.344l-.06-.174.027-.838c.082-2.715.15-3.56 1.08-6.037-.837.35-1.515.398-2.083.164-.574-.237-.958-.754-1.063-1.426l-.098-.405c-.308-1.266-.494-2.03-1.557-3.678l-.165-.255v-.304c0-.92.66-1.47 1.192-1.91.817-.676 1.23-1.016.4-2.48l-.132-.237v-.272c0-5.412 4.684-11.995 11.66-16.666-7.147-.524-13.45 3.167-18.28 6.596l-1.005.714-.525-1.115c-.22-.468-.17-1.034.15-1.68 1.39-2.802 8.362-8.74 17.532-11.61-6.784-1.713-15.603-.237-23.022 4.036l-4.32 2.488 2.98-3.996c2.875-3.857 6.805-7.702 15.65-10.09-6.805-1.685-16.868-2.01-25.81 6.224l-1.646 1.515-.085-2.235c-.237-6.33 4.3-12.685 13.85-19.36-11.003.74-14.087 3.127-22.474 9.62-.7.543-1.438 1.113-2.218 1.712l-.336.258-.42-.052c-3.89-.483-6.716.533-8.635 3.108-8.004 10.744 2.104 45.812 9.323 62.285 1 1.507 1.97 4.23 3.563 8.69 2.145 6.01 5.384 15.09 11.122 27.952 13.826 31.776 28.585 45.33 47.9 56.84 20.68 4.728 26.536 2.325 35.896-2.69l.976 1.818c-9.556 5.118-16.01 7.775-37.488 2.845l-.158-.036-.14-.084c-26.62-15.833-38.437-33.88-48.87-57.864-5.77-12.925-9.024-22.05-11.178-28.09-1.512-4.236-2.51-7.035-3.38-8.304l-.092-.168c-3.12-7.104-7.72-20.04-10.416-33.118-3.17-15.375-2.734-25.91 1.29-31.313 2.295-3.08 5.697-4.417 10.117-3.97.658-.506 1.283-.99 1.883-1.455 9.412-7.287 12.583-9.742 27.378-10.232l3.768-.125-3.18 2.025c-9.477 6.038-14.788 11.837-15.833 17.273 11.04-8.695 23.175-6.256 29.637-3.905l3.5 1.274-3.656.708c-7.23 1.4-11.562 3.552-14.706 6.328 8.058-3.223 16.884-3.582 23.184-.72l2.844 1.293-3.055.654c-6.434 1.38-11.895 4.56-15.39 7.277 4.853-2.597 10.588-4.362 16.946-2.934l2.616.588-2.338 1.317c-8.407 4.735-12.882 11.626-13.044 16.118 1.437 2.794-.214 4.16-1.02 4.828-.09.076-.205.17-.3.258.987 1.633 1.225 2.608 1.52 3.813l.09.37c.33-.08 1.12-.393 2.637-1.58l3.04-2.377-1.448 3.577c-1.994 4.927-1.996 4.99-2.097 8.267l-.015.473c.298.89.538 1.576.735 2.142.97 2.78.983 2.89 1.643 8.64l.158 1.37c2.79 4.088 5.88 7.592 8.943 10.146l.043.04c7.438 6.942 9.244 8.174 20.155 13.474 5.83-4.192 10.634-7.72 14.886-10.843 21.104-15.5 24.907-18.294 47.045-23.468 15.035-3.437 20.36-6.407 24.643-8.794 6.06-3.38 10.064-5.612 34.812-6.215l.25-.006.227.11c5.177 2.518 15.666 2.938 25.81 3.343 14.047.562 27.314 1.092 30.486 6.737 1.128 2.007.896 4.472-.69 7.327-3.958 7.127-13.24 26.46-11.66 29.81.05.106.076.11.12.12 13.182 2.428 31.383-24.043 31.564-24.31l.398-.584.69.16c17.467 4.08 36.135 11.484 48.72 19.323 4.392 2.738 28.78-9.566 44.92-17.707 18.813-9.49 24.18-11.914 26.097-10.884.433.233.713.646.77 1.133 4.88 41.793-46.63 94.44-96.446 145.354-23.086 23.597-44.892 45.884-61.394 67.103-18.32 23.56-27.038 42.314-26.648 57.34l.026 1.06h-1.058c-17.104 0-24.074 2.175-30.793 4.808-1.572.774-2.407 3.255-3.374 6.128-1.15 3.41-2.578 7.656-5.92 10.81l-2.468 2.33.873-3.808c.28-1.195.655-2.803.815-4.844a29.45 29.45 0 0 1-4.563 7.988l-3.872 4.807 2.1-5.804c.608-1.686.99-3.293.933-5.232-1.112 2.78-2.875 5.652-5.22 7.6l-3.675 3.05 2.09-4.294c.89-1.83 1.232-2.744 1.344-4.9-9.52 9.115-11.865 17.197-14.078 36.29-2.82 19.116-16.628 30.05-43.465 34.44-3.172.402-4.9-.063-6.426-.475-1.414-.38-2.634-.71-4.946-.426l-.053.005c-.95.068-1.648.566-2.535 1.2-2.104 1.5-4.717 3.366-11.944 1.18-1.24.25-2.287 1.976-2.895 4.786l-.793 3.682z"/><path fill="#FFF" d="M348.273 127.345c-.646 0-1-.133-1.38-.412a2.063 2.063 0 0 1 1.474-3.717c.254-.02.824-.08 1.67-.213a2.062 2.062 0 1 1 .638 4.074c-1.125.177-1.865.27-2.402.27zm1.173-3.65c.36.31.617.745.696 1.25a2.007 2.007 0 0 0-.696-1.25z"/><path fill="#AA7340" d="M227.48 211.046c30.24 31.272 119.932 5.498 103.094 69.932-27.835 120.275-66.624 147.467-77.664 162.717-3.136 3.95-3.52 6.744-10.095 13.06.387-2.45 1.246-5.386 1.246-10.396-2.705 3.95-6.786 9.964-6.786 18.298-1.718-7.56-1.03-12.543-.516-16.668-3.78 6.7-5.928 17.096-9.45 18.213-11.34 3.266-9.88 55.543-31.915 65.723-19.975 9.406-35.954 9.107-36.383 1.46-.087-11.513 23.626-12.028 21.048-18.73-17.183-37.63-10.825-54.982-5.67-63.23-3.094 1.03-4.64 2.576-7.56 5.842 1.717-9.967 5.67-21.992 11.51-31.615-4.81 1.203-6.872 6.873-9.448 12.543 1.718-14.777 7.045-23.367 13.4-36.598 1.892-4.124-.686-12.457-1.717-38.746 4.64-58.764 27.835-55.068 14.433-87.887-3.95-7.388-5.67-10.223-12.113-19.072 4.64 16.495 1.29 24.614-.773 29.253-5.54-11.985-11.083-17.397-20.876-18.686-12.758.258-31.057-5.928-41.753-19.588l-.128-.515c1.16 9.536 2.32 14.82 8.376 21.005-12.758-8.634-17.268-19.46-18.557-26.547-4.51-18.3-19.974-38.145-13.788-43.557 3.35-2.835 11.21-7.345 15.85-4.253.26 6.057.646 6.057 8.248 16.495 11.21 13.66 13.144 13.402 31.444 20.103 6.057 4.38 8.505 11.985 7.99 17.913 0-11.325 5.154-8.892 4.123-19.974-.515-5.284 24.614-21.78 30.93-23.454 3.264 10.395 14.603 21.478 16.15 21.22-4.554-8.763-4.21-13.832-4.425-17.998 9.02 15.206 19.717 18.428 30.8 22.68-7.604-10.825-9.15-14.305-9.022-18.944M423.23 212.98c.285 0 16.366-6.315 24.614-11.34-1.16 5.283-1.29 7.087-1.29 11.21-1.932.387-18.426 1.29-23.324.13z"/><path fill="#BB8355" d="M247.068 230.806c11.855 3.608 14.433 4.64 29.554 5.155 0 118.432-.483 192.098-1.718 192.098-32.99 6.188-70.877-29.123-61.083-84.794 4.125-16.753 12.63-25 5.67-46.392 0 4.38-1.03 5.413-3.865 11.598 0-8.247-2.835-19.588-2.577-27.32-.644 6.572-3.093 4.64-5.54 9.923 1.094-6.5 3.35-25.773 10.052-34.408 1.08-1.39 5.025 9.794 5.154 13.66.053 1.572 5.106-12.81 5.284-14.304.645-5.41.516-9.664-.344-18.17 4.81 8.764 4.725 10.44 4.725 18.944 0 1.277 2.437-8.526 4.38-12.414 3.266-6.53 6.015-8.505 9.622-13.746"/><path fill="#010101" d="M268.88 394.27h-.09v-1.226h-13.462c-.676 0-1.224.55-1.224 1.225v18.356h.005a1.22 1.22 0 0 0 1.218 1.178h13.462v-1.178h.09V394.27zM268.76 345.558h-.092v-1.225h-13.462c-.676 0-1.224.55-1.224 1.225v18.357h.005c.024.653.56 1.178 1.22 1.178h13.46v-1.178h.093v-18.357zM268.76 290.804h-.092v-1.224h-13.462c-.676 0-1.224.548-1.224 1.224v18.358h.005c.024.653.56 1.178 1.22 1.178h13.46v-1.178h.093v-18.358z"/><path fill="#333" d="M298.313 212.737c-22.097 0-40.008 17.912-40.008 40.008v312.45-.016H528.54V252.73v.023c0-22.096-17.91-40.008-40.008-40.008v-.008H297.986"/><circle fill="#555" cx="391.53" cy="239.389" r="5.258"/><path fill="#010101" d="M391.53 237.032a2.36 2.36 0 0 1 2.357 2.357c0 1.3-1.058 2.356-2.357 2.356s-2.356-1.057-2.356-2.357c0-1.3 1.056-2.358 2.356-2.358m0-2.9a5.26 5.26 0 1 0 0 10.516 5.26 5.26 0 0 0 0-10.517z"/><path fill="#555" d="M410.934 256.975a6.164 6.164 0 0 1 0 12.328h-35.627a6.164 6.164 0 0 1 0-12.328h35.627z"/><path fill="#010101" d="M410.934 259.876c1.8 0 3.263 1.464 3.263 3.263 0 1.798-1.464 3.263-3.263 3.263h-35.627a3.267 3.267 0 0 1-3.263-3.264c0-1.8 1.464-3.264 3.263-3.264h35.627m0-2.9h-35.627a6.164 6.164 0 0 0 0 12.327h35.627a6.164 6.164 0 0 0 0-12.328z"/><linearGradient id="e" gradientUnits="userSpaceOnUse" x1="394.04" y1="303.453" x2="394.04" y2="29.332" gradientTransform="matrix(1 0 0 -1 -.02 594.375)"><stop offset="0" stop-color="#3eb65e"/><stop offset="1" stop-color="#4069b2"/></linearGradient><path fill="url(#e)" d="M275.452 290.923H512.59v274.12H275.45z"/><path fill="#4A4A4A" d="M512.846 565.3h-237.65V290.665h237.65V565.3zm-237.136-.515h236.62V291.18H275.71v273.605z"/><path fill="none" d="M275.452 565.042V289.43"/><path fill="#010101" d="M274.727 289.43h1.45v275.613h-1.45z"/><path fill="#010101" d="M275.453 289.43h237.164v1.45H275.453z"/><path fill="#010101" d="M512.435 289.43h1.45v275.613h-1.45z"/><path fill="#271911" d="M270.615 87.654c-13.418-1.114-17.388 1.335-22.794 2.947-10.532-39.526-56.73-14.254-37.775 17.813-33.272 18.133-29.596 56.736-18.063 79.26-1.05-8.152-1.256-12.193-1.204-15.04 4.76 13.357 9.382 26.558 29.486 39.79-1.658-4.98-2.577-14.778-.773-21.737 6.918 14.954 26.21 29.84 57.577 33.278-6.068-3.776-8.534-6.12-11.997-10 9.5 4.41 19.324 9.377 44.177 12.1 11.433-19.144 23.76-30.28 35.13-64.642l-.114-.53c1.055 7.72.51 11.117.12 16.26 7.483-19.403 4.317-42.567-16.553-54.015l-.322-.208c3.064-5.888 3.324-9.835 3.924-15.3-5-.116-6.23-1.72-14.064-2.578 3.307-15.972-24.076-35.826-26.667-11.392-6.533-3.095-13.576-5.466-20.085-6.006z"/><path fill="#905D31" d="M309.792 227.16l-.657-.07c-20.726-2.273-31.207-6.154-39.518-9.892 2.068 1.92 4.372 3.636 7.994 5.89l3.847 2.394-4.503-.493c-14.868-1.63-27.785-5.827-38.392-12.473-8.282-5.19-14.67-11.616-18.64-18.717-.907 6.24-.137 13.928 1.318 18.296l.94 2.822-2.485-1.636c-17.2-11.32-23.3-22.813-27.61-34.06.18 2.128.468 4.827.917 8.32l.758 5.87-2.697-5.268c-11.25-21.975-15.72-61.233 17.567-80.124-5.12-9.236-5.485-18.995-.966-26.918 4.067-7.13 11.646-11.736 19.31-11.736 4.796 0 16.36 1.97 21.555 19.935.512-.165 1.02-.337 1.547-.515 3.55-1.2 7.222-2.443 14.292-2.443 1.924 0 4.054.096 6.33.285 5.646.47 12.245 2.367 19.157 5.505.533-3.432 1.617-6.11 3.23-7.974 1.692-1.955 3.972-2.988 6.592-2.988 4.51 0 9.793 3.05 13.79 7.958 3.88 4.765 5.7 10.176 5.09 15.025 3.378.432 5.486 1.01 7.21 1.48 1.858.508 3.326.91 5.684.964l1.123.026-.232 2.138c-.51 4.745-.92 8.544-3.482 13.772 9.677 5.48 16.198 13.896 18.875 24.374 2.42 9.47 1.57 20.342-2.395 30.617l-2.52 6.533.53-6.982c.052-.686.106-1.34.16-1.98.24-2.883.446-5.335.26-8.728-7.834 22.078-16.098 34.07-24.105 45.69-3.155 4.58-6.418 9.315-9.537 14.538l-.338.567zm-48.818-16.236l5.72 2.658c8.83 4.117 18.827 8.778 42.008 11.384 3.05-5.055 6.21-9.64 9.27-14.08 8.43-12.235 17.145-24.886 25.32-49.47l-.052-.386 2.03-.357.173.806-.046.14c.344 2.72.484 4.905.505 6.834 1.543-7.245 1.508-14.498-.162-21.037-2.58-10.103-8.945-18.187-18.405-23.376l-.063-.037-1.11-.718.434-.833c2.768-5.318 3.164-8.904 3.695-13.846-1.995-.145-3.434-.54-5.06-.984-1.928-.527-4.112-1.124-7.974-1.547l-1.127-.124.228-1.11c.92-4.444-.757-9.83-4.484-14.41-3.56-4.373-8.347-7.198-12.192-7.198-4.475 0-7.226 3.643-7.956 10.535l-.153 1.445-1.313-.622c-7.155-3.388-13.978-5.43-19.73-5.908a75.273 75.273 0 0 0-6.158-.278c-6.73 0-10.238 1.186-13.63 2.334-.847.286-1.72.582-2.624.85l-1.017.304-.272-1.026c-4.675-17.545-15.44-19.44-19.85-19.44-6.936 0-13.812 4.2-17.52 10.697-4.292 7.525-3.754 16.916 1.478 25.765l.543.92-.94.51C180.426 125.73 181.44 159.2 190.2 181.23c-.438-4.432-.483-6.84-.45-8.617l.103-5.652 1.972 5.534c4.59 12.885 8.936 25.082 26.725 37.516-1.228-5.59-1.577-13.712-.056-19.585l.724-2.79 1.21 2.616c8.854 19.142 32.045 28.962 52.313 32.1-3.53-2.486-5.648-4.578-8.437-7.702l-3.33-3.724z"/><path fill="#FFF" d="M305.17 187.568c-3.57-1.19-3.66-1.652-5.53-3.976 4.835 1.295 7.35 1.235 9.84 1.305 0 0 3.29-.158 5.328-.712 2.144-.64 5.338-1.392 8.18-4.84 4.315 4.79-3.485 5.926-4.4 6.175l-13.42 2.048z"/><path fill="#FFF" d="M324.95 178.667c1.542-1.973 6.438-7.823 7.22-15.464-10.11 7.968-21.182 14.53-36.172 4.18 4.107 8.468 3.058 11.773 3.398 16.936 3.277-1.955 5.29-4.187 5.828-6.865.948 1.68 1.228 1.6 1.418 3.146 1.318-1.148 1.895-1.817 2.406-3.257 3.436.35 8.854-1.156 11.864-2.822.553 1.606.497 1.543 1.46 3.852 1.423-1.79 1.723-1.574 2.407-3.83.555 2.803.117 2.292.17 4.125z"/><path d="M298.477 186.067l-.11-1.68c-.075-1.123-.085-2.157-.095-3.156-.034-3.564-.067-6.932-3.203-13.397l-1.71-3.522 3.223 2.225c5.016 3.462 9.766 5.145 14.52 5.145h.002c7.595 0 14.305-4.464 20.424-9.286l1.91-1.506-.247 2.42c-.77 7.556-5.426 13.453-7.178 15.672l-2.017 2.575-.08-2.86a9.59 9.59 0 0 1-.003-.556c-.21.235-.447.51-.735.873l-1.086 1.37-.673-1.614c-.683-1.64-.863-2.106-1.103-2.796-2.743 1.27-6.87 2.45-10.198 2.45-.134 0-.266 0-.395-.005-.54 1.194-1.237 1.937-2.407 2.958l-1.465 1.278-.236-1.93c-.05-.397-.093-.64-.165-.844-1.012 1.963-2.84 3.72-5.528 5.323l-1.447.862zm-.165-16.005c1.962 4.935 1.99 7.97 2.022 11.15.004.41.008.828.017 1.252 2.213-1.597 3.48-3.312 3.862-5.21l.546-2.72 1.362 2.417c.263.465.473.792.643 1.054.156.24.287.45.398.66.407-.48.663-.956.915-1.664l.27-.763.806.082c.3.03.625.045.97.045 3.337 0 7.854-1.396 10.293-2.744l1.074-.593.624 1.817c.213.623.323.946.575 1.58.516-.583.708-.868 1.107-2.18l1.196-3.935.8 4.035c.1.495.17.896.218 1.232 1.644-2.312 3.753-5.803 4.715-9.955-5.853 4.395-12.272 8.12-19.613 8.122h-.002c-4.25-.002-8.46-1.21-12.793-3.682z"/><path fill="#E8AD74" d="M266.564 147.686c14.49 8.156 40.31 36.158 55.688 17.274 5.433 4.052 19.868-10.96 17.256-20.234-3.713-8.704-6.2-9.668-37.77-18.14-9.66-1.75-24.966 8.39-35.174 21.1"/><path fill="#C88F5D" d="M305.37 207.014c-22.012-1.03-25.962-28.082-38.95-59.408 17.036 22.782 31.16 40.578 43.246 39.137 10.682-1.25 22.238-12.86 23.614-19.105.85 15.91-5.465 19.106-8.876 21.844-4.116 13.895-7.886 17.544-19.034 17.532z"/><path fill="#261911" d="M319.882 167.466c1.89-1.867-3.253-3.722-5.2-4.59-6.904-3.072-10.662-9.147-10.736-14.615 1.88-11.633 13.316-15.436 29.165-12.187 6.55 1.755 7.436 7.38 6.972 8.454-.17 3.136.617 6.292-8.107 14.93-2.652 2.625-6.477 4.087-3.777 5.485"/><path fill="#5D3D21" d="M307.38 145.685c3.257-8.012 14.737-9.865 25.735-7.135-9.057.853-16.53-.744-23.036 9.608-2.294 2.083-3.828 1.193-2.7-2.473"/><path fill="#AA7341" d="M266.564 147.686c6.902-9.16 8.15-12.654 26.86-24.086-12.516-32.874-25.513-36.113-49.223-27.174-.575-4.212-1.347-12.94-8.167-18.526-.3 2.733-.335 4.63-4.966 9.827.82-2.762 1.923-8.086-3.264-12.803-10.477-1.407-22.806 14.094-16.443 24.644 3.194 3.98 5.79 8.672 3.36 13.505-21.213 26.37-7.135 55.222-8.456 55.077-.533-7.75 1.528-12.19 1.765-12.165 6.228 16.5 11.054 26.88 24.703 37.19-7.672-10.433-8.504-14.673-8.626-20.65 5.66 16.955 19.05 24.904 35.2 33.675-5.475-6.823-6.586-8.5-7.418-12.74 8.468 10.262 24.02 19.745 54.633 29.063-5.043-3.664-5.956-4.8-9.362-11.57-18.99-9.685-24.946-34.192-30.596-63.267z"/><path d="M307.916 223.218l-1.468-.447c-27.328-8.318-44.563-17.347-54.09-28.356.826 3.512 2.19 5.444 7.152 11.626l.802 1-1.126-.612c-16.63-9.03-28.96-16.71-34.764-32.236.26 4.897 1.48 9.26 8.52 18.833l1.046 1.423-1.41-1.065c-13.835-10.452-18.592-20.933-24.616-36.848-.557 1.15-1.736 4.945-1.495 10.624.176.71.188.963.06 1.127a.32.32 0 0 1-.252.123l-.252-.025-.016-.215c-.02-.318-.04-.63-.053-.937-.093-.375-.227-.853-.386-1.426-2.135-7.673-8.633-31.016 8.934-52.872 2.467-4.936-.49-9.648-3.343-13.204-2.606-4.315-2.372-9.817.623-15.122 3.388-6 9.28-10.03 14.666-10.03.467 0 .934.03 1.387.092l.08.01.06.055c4.855 4.416 4.275 9.395 3.64 11.972 3.675-4.303 3.867-6.09 4.126-8.51l.087-.795.368.3c6.506 5.33 7.58 13.52 8.157 17.92l.06.45c7.64-2.856 13.558-4.188 18.606-4.188 13.216 0 22.094 9.163 30.647 31.626l.076.2-.183.112c-16.543 10.107-19.412 14.01-24.62 21.097-.653.887-1.343 1.825-2.1 2.83 5.805 29.852 11.747 53.44 30.438 62.976l.075.038.038.076c3.405 6.763 4.272 7.836 9.284 11.477l1.242.9zm-56.476-30.706l.647.785c9.152 11.09 26.034 20.174 53.064 28.537-4-3.007-5.088-4.543-8.183-10.69-18.863-9.676-24.826-33.404-30.657-63.41l-.022-.112.07-.092c.782-1.04 1.492-2.006 2.164-2.92 5.228-7.112 8.116-11.042 24.585-21.12-8.44-22.08-17.164-31.093-30.088-31.093-5.052 0-11.003 1.357-18.73 4.27l-.303.113-.146-1.094c-.556-4.244-1.583-12.072-7.603-17.278-.27 2.494-.57 4.543-4.978 9.49l-.77.862.328-1.107c.556-1.87 2.243-7.545-3.13-12.485a9.96 9.96 0 0 0-1.24-.077c-5.124 0-10.97 4.018-14.218 9.77-2.9 5.137-3.14 10.45-.65 14.574 5.666 7.06 4.638 11.232 3.368 13.754l-.03.046c-17.043 21.188-11.24 43.82-8.998 51.918.075-5.547 1.45-8.873 1.87-9.314.07-.073.15-.11.236-.11l.157.016.086.15c5.86 15.525 10.432 25.87 23.202 35.982-6.92-9.71-7.512-13.852-7.624-19.345l-.035-1.694.537 1.608c5.36 16.056 17.45 23.904 33.955 32.918-4.793-6.007-5.867-7.758-6.67-11.852l-.195-.998z"/><path fill="#BC8456" d="M231.023 191.434c-12.73-10.038-16.7-21.103-22.86-35.866-1.705 2.147-2.023 5.05-2.426 8.723-4.626-16.15-3.403-35.98 9.126-50.94 2.638-5.935-.195-10.048-2.79-13.962-5.522-5.618.267-23.738 15.36-24.244 2.927 2.48 3.897 3.884 3.948 7.347-10.345 9.238-9.164 18.96-8.392 27.688-10.398 25.48 1.198 39.54 11.455 46.888-6.416-1.395-8.92-2.188-14.925-7.34 3.277 15.83 9.34 33.865 19.296 43.167-6.186-5.863-10.07-8.277-15.08-22.48-.482 7.55 1.785 13.676 7.29 21.02z"/><g fill="#C88F5D"><path d="M306.87 157.052c-11.046-1.21-19.1-13.403-17.517-27.848-11.357 5.842-18.252 13.556-22.268 18.648 15.137 8.573 30.345 27.525 48.02 22.375 6.354-2.76 6.578-4.81 2.724-5.924-5.183-1.604-7.197-3.727-11.264-7.63"/><path d="M309.017 171.353c-10.353 0-19.86-7.23-29.103-14.257-4.457-3.39-8.668-6.59-12.957-9.02l-.26-.148.185-.236c2.37-3.004 9.58-12.146 22.353-18.717l.426-.22-.05.478c-1.515 13.815 6.035 26.048 16.885 27.514l.25-.26.612.59c3.67 3.53 5.69 5.476 10.548 6.98 1.75.506 2.67 1.207 2.726 2.082.084 1.287-1.69 2.702-5.422 4.324-2.098.61-4.16.89-6.19.89zm-41.544-23.577c4.23 2.427 8.372 5.578 12.754 8.91 10.955 8.33 22.28 16.942 34.807 13.293 4.505-1.96 5.12-3.23 5.082-3.81-.04-.625-.855-1.186-2.357-1.62-4.98-1.542-7.032-3.517-10.76-7.103l-.156-.15v.01c-11.224-1.23-19.133-13.584-17.796-27.655-12.096 6.338-19.075 14.96-21.575 18.124z"/></g><path fill="#B17A4F" d="M313.04 169.568c1.946-.413 5.245-1.144 5.452-3.032.36-2.1-5.757-.112-11.93-7.66-10.698-4.11-10.514 2.478-24.097-1.928 8.116 6.983 20.653 14.04 30.574 12.62z"/><path fill="#E8AD76" d="M276.103 160.594c8.804 15.484 24.016 34.005 40.904 31.318 13.614-2.397 16.71-11.716 16.216-23.762-2.416 7.254-13.99 18.237-24.67 18.687-9.34-.506-16.21-6.444-32.45-26.243z"/><path fill="#B17A4F" d="M324.404 189.48c6.47-3.438 9.568-11.007 8.912-21.58-1.328 11.523-4.645 19.327-8.912 21.58M309.283 193.788c6.242 1.008 8.846.32 11.988-1.15-2.207 8.315-7.36 12.742-15.05 12.547-4.674-.512-7.702-1.298-8.863-1.943 6.02.658 11.266-3.436 11.926-9.454"/><path fill="#905D31" d="M286.6 203.228c-15.188-19.943-20.077-35.647-24.932-55.236 6.02.66 3.806-3.96 3.767-3.606 3.853 16.887 7.022 42.384 21.164 58.842z"/><path fill="#4FA94E" d="M261.612 149.497c-15.836-1.533-20.98-10.767-21.73-24.416-1.148-14.415 7.776-20.11 18.467-20.55 9.487-.336 24.527-.12 33.626 6.77 1.96 1.512 5.64 5.767 3.48 11.28-8.436 19.156-22.416 26.936-33.844 26.917z"/><path fill="#FFF" d="M261.654 150.528l-.14-.005c-14.786-1.43-21.773-9.26-22.66-25.386-.516-6.462.904-11.65 4.223-15.396 3.378-3.81 8.645-5.97 15.23-6.242 1.8-.063 3.434-.094 5-.094 13.427 0 23.008 2.313 29.292 7.072.69.534 6.603 5.368 3.816 12.48-4.03 9.155-9.453 16.238-16.132 21.09-5.835 4.24-12.277 6.482-18.63 6.482zm-.012-1.338l.012.307v-.43l-.012.123zm1.664-43.724c-1.542 0-3.15.03-4.92.093-4.188.172-9.98 1.275-13.767 5.55-2.933 3.308-4.18 7.98-3.71 13.888.83 15.112 7.037 22.125 20.752 23.467 15.683-.005 27.25-13.588 32.85-26.3 2.223-5.675-2.608-9.62-3.166-10.052-5.823-4.408-15.26-6.647-28.04-6.647z"/><path fill="#469647" d="M328.32 134.337c8.56 3.53 12.65 6.265 11.965 10.3 0 0 1.262-.813 1.408-.92.968-.705 2.244-2.137 2.683-2.883.533-.91.81-1.598 1.342-2.786.39-1.188.723-2.51.84-4.12 1.033-14.147-6.088-21.033-19.123-22.158-9.3-.803-9.508-.48-12.912 1.005-1.365.596-4.11 2.402-4.213 5.318-.498 2.473 1.402 7.608 3.483 11.693.147.29 11.51 3.314 14.442 4.543"/><path fill="#FFF" d="M339.92 147.19l.27-2.488c2.73-1.55 5.67-4.31 6.37-10.697 1.135-13.374-5.457-21.07-19.06-22.227-8.708-.954-11.75-.386-15.527 2.892-3.217 2.844-1.284 7.723.42 12.028.253.637 1.175 2.568 1.39 3.15l-2.583-.67c-.21-.57-.476-1.098-.723-1.72-1.76-4.444-4.17-10.53.138-14.338 4.573-3.97 8.45-4.34 17.085-3.393 14.714 1.243 22.146 9.946 20.91 24.478-.804 7.35-5.64 11.25-8.69 12.984z"/><path fill="#FFF" d="M323.54 111.075c-16.813-4.62-33.552-6.4-54.275-5.773l-.048-1.546c20.884-.633 37.764 1.165 54.732 5.828l-.41 1.49zM309.247 116.19c-2.012-1.572-7.35-2.535-11.202-2.018-2.144.287-2.806.896-2.99 1.145l-1.654-1.233c.754-1.01 2.224-1.668 4.37-1.956 3.97-.533 10.038.32 12.747 2.438l-1.27 1.625zM239.63 122.878a2.09 2.09 0 0 1-.468-.053c-11.386-2.633-15.81-4.41-20.93-6.467-3.865-1.552-8.245-3.31-16.573-5.787a2.06 2.06 0 1 1 1.173-3.952c8.512 2.53 12.986 4.328 16.934 5.913 4.963 1.994 9.25 3.715 20.322 6.276 1.108.257.402 1.052.146 2.16-.218.955.33 1.912-.607 1.912z"/><path fill="#FFF" d="M201.335 112.687c-1.386-2.183-.89-3.23-.266-4.116.096-.137.18-.256.218-.352l1.918.756c-.13.327-.31.582-.453.786-.293.414-.438.622.322 1.822l-1.74 1.105z"/><path fill="#5BB656" d="M265.23 105.61c4.242 14.32 3.62 23.18-3.39 42.763-10.466-1.496-19.768-5.246-21.002-24.6.56-7.528 1.7-18.718 24.393-18.162"/><path fill="#77C263" d="M242.68 130.414c.085-4.007 1.796-14.082 10.91-16.406 10.867-3.905 8.272-8.863.42-6.3-12.557 4.327-11.74 17.512-11.33 22.706"/><path fill="#4EA84D" d="M333.22 112.792c-.188 14.326-6.298 18.653-12.83 17.1-1.347-.32-3.835-1.08-7.548-2.09-1.437-4.048-2.733-5.227-2.27-10.36.842-2.632 5.067-8.068 22.648-4.65"/><path fill="#5AB654" d="M311.7 119.294c.103-1.604 1.714-3.504 5.406-4.28 4.42-1.38 3.5-3.128.31-2.235-5.106 1.52-5.792 4.427-5.716 6.514"/><path fill="#439945" d="M278.16 142.98c6.283-4.317 13.015-12.595 16.348-21.16 1.98-5.09-2.2-9.91-6.734-11.913 9.234 12.387 3.105 18.25-9.615 33.074"/><path fill="#905D31" d="M235.4 100.626c2.42-6.303 5.34-10.456.92-22.176 5.4 5.518 7.03 11.747 7.633 18.273-4.24.832-6 1.914-8.552 3.903z"/><path fill="#AA7340" d="M81.41 152.734c-12.63 3.608-9.86 17.333-1.977 37.94 4.982 12.888 8.935 19.073 11.512 24.572 2.964-22.595 4.21-17.998 15.206-22.466-2.963-.644-7.71-19.02-18.985-33.205-3.436 4.64-4.296 9.45-3.952 14.605-2.255-4.66-4.96-9.848-1.804-21.446"/><path fill="#BB8355" d="M99.13 197.257c-6.357-.344-11.084-1.546-15.336-7.86-.772 5.283-1.16 7.13 1.246 13.83-4.296-8.59-15.163-35.738-5.756-49.752-2.448 21.36.73 28.79 5.8 26.643 1.93 5.155 3.735 11.34 14.045 17.14z"/><path fill="#905D31" d="M158.75 260.703c-.686-12.715-8.246-17.182-16.494-17.526-17.475 0-29.51-19.588-30.5-45.275 5.672 10.567 13.66 24.227 39.178 31.7 9.02 7.218 8.762 14.95 7.817 31.1z"/><path fill="#BB8355" d="M159.267 252.112c3.222-10.954 3.78-12.2 6.186-17.526.502-1.583 3.426-5.01 2.406-3.608-1.023 1.405 5.922 10.57 5.497 9.622-2.92-6.53-5.54-16.31-.344-20.447 4.965-3.954 8.894-6.448 20.962-16.065-15.464 7.088-32.304 20.533-30.67 24.227.644 11.597-5.5 7.216-4.038 23.797z"/><path fill="#905D31" d="M214.422 218.606c10.14 14.777 17.698 21.478 17.955 38.188 3.352-12.5 6.272-16.796 14.004-26.16 8.507 2.148 12.114 3.436 16.152 4.124 1.89-3.78 2.32-4.38 4.382-6.7-21.306-3.953-33.248-10.482-39.433-17.01-.085 7.473 5.5 13.4 9.022 18.942-8.506-2.964-13.49-5.37-22.08-11.384M258.15 437.595c-4.123 3.865-5.24 6.1-10.05 13.23.514-3.352-1.355-10.717-4.254-14.326-8.376-9.667-23.067-33.786-26.16-45.642 7.302 17.354 20.79 32.646 40.636 37.113-.094.002-.17 5.73-.17 9.625zM188.82 534.503c6.186-3.738 9.02-7.86 12.114-14.176-3.094 2.45-5.026 3.738-10.91 2.922 15.005 0 20.273-54.985 35.738-56.704-3.694 3.91-4.854 8.162-8.333 20.92-4.254 16.752-8.378 42.526-28.61 47.037z"/><g><path fill="#281A11" d="M487.23 240.578c5.023-2.197 7.534-3.924 10.202-6.12-1.727 8.317-4.708 10.2-9.73 15.536 16.95-6.748 32.017-16.322 31.074-22.286.314-6.12-1.412-10.2-4.394-15.694-.785-4.708-.785-9.887-8.318-16.165-1.412-6.436-4.394-10.36-15.223-11.3 1.413-1.413 2.04-1.727 4.237-3.768-26.522-.942-44.515 4.54-44.83 30.907 2.32 0 12.263.166 27.097.166 0 8.414-4.002 13.732-5.18 15.223 8.633-4.395 12.084-8.162 14.125-16.166 5.65 7.376 2.196 15.223-2.04 21.187 5.02-3.295 7.062-5.178 8.632-7.06-2.668 8.317 0 10.67-5.336 15.693"/><path fill="#905D31" d="M483.767 252.67l3.183-3.382c.763-.81 1.478-1.54 2.148-2.226 3.118-3.186 5.19-5.304 6.607-9.967-1.867 1.338-3.968 2.57-7.006 3.955-.145.143-.295.288-.45.435l-.154-.163-.453.2-.557-1.274-.25-.265.096-.09-.115-.26.684-.304c2.408-2.5 2.598-4.268 2.897-7.053.117-1.09.25-2.332.534-3.797-1.41 1.224-3.315 2.646-6.115 4.484l-4.577 3.003 3.17-4.462c5.02-7.06 6.094-13.022 3.255-18.15-2.166 6.734-5.856 10.483-14.03 14.644l-4.19 2.132 2.914-3.69c2.99-3.79 4.725-8.57 4.937-13.555-10.13-.006-18.01-.09-22.308-.134-1.813-.02-3.08-.033-3.735-.033h-1.043l.014-1.043c.123-10.264 2.842-17.79 8.313-23.01 7.167-6.834 18.757-9.585 37.584-8.915l2.493.088-1.828 1.697a55.27 55.27 0 0 1-2.56 2.244c9.422 1.338 12.368 5.43 13.772 11.503 6.804 5.78 7.534 10.726 8.18 15.096.064.435.13.867.198 1.294 3.17 5.86 4.73 9.978 4.44 15.984.427 3.248-2.693 7.2-9.277 11.745-5.753 3.972-13.726 8.073-22.45 11.546l-4.318 1.72zm15.27-20.87l-.596 2.867c-1.34 6.454-3.443 9.23-6.516 12.446 15.465-6.777 26.52-14.89 25.833-19.243l-.018-.106.005-.107c.29-5.657-1.146-9.393-4.27-15.15l-.084-.15-.027-.172a71.812 71.812 0 0 1-.23-1.502c-.63-4.26-1.282-8.667-7.73-14.04l-.272-.226-.075-.345c-1.343-6.115-4.02-9.6-14.307-10.494l-2.203-.192 1.564-1.565c.762-.762 1.315-1.226 1.955-1.762l.376-.315c-16.7-.315-27.082 2.31-33.488 8.42-4.865 4.64-7.374 11.354-7.65 20.503l2.703.027c4.442.047 12.713.135 23.338.135h1.03v1.03c0 4.353-1.073 8.602-3.072 12.314 5.848-3.558 8.363-7.133 9.988-13.51l.525-2.058 1.293 1.687c3.976 5.192 4.18 11.273.626 18.124 2.154-1.632 3.368-2.847 4.355-4.032l3.392-4.072-1.62 5.047c-.977 3.047-1.21 5.223-1.416 7.142-.192 1.8-.355 3.326-1.075 4.903 2.148-1.203 3.742-2.372 5.404-3.74l2.262-1.862z"/></g><path fill="#AA7340" d="M485.087 197.13c0 3.703 1.422 6.7 3.18 6.7 3.178-6.186 3.478-11.9-3.61-20.36l.044.128c-17.022 0-30.798 11.412-30.798 25.516 0-.07 4.553-.13 10.18-.13-6.958-5.41-2.19-14.303.646-16.107-1.29 7.345-3.737 17.784 11.727 16.108 1.46-.344.086-3.65-1.03-3.866-1.762-.388-7.518 1.073-8.807-3.137l-.13.043c11.136 0 17.742-5.026 20.19-11.383.987 3.35-.043 4.897-1.46 6.572"/><path fill="#AA7340" d="M491.143 187.077c8.247 1.546 10.31 7.474 9.923 10.18 3.352 7.475-.288 13.532-.644 13.532-.645-1.934-1.03-3.738-2.19-5.542.644-1.03 1.16-2.763 1.16-5.54-2.064 2.705-3.61 5.67-8.12 4.767.07 0 5.8-6.314.13-17.01M504.03 212.077c.284 0 3.736-4.253.515-12.887 6.96 10.18 3.222 17.526 2.706 20.36-.9-2.447-1.287-4.38-3.22-7.473zM510.087 228.057c-2.256.58-4.64 1.804-7.152 1.804 0-4.767 10.374-7.087 9.085-14.948 6.153 9.375 3.028 16.076-2.19 19.78.257-.933.966-3.35.257-6.635z"/><path fill="#BC8456" d="M484.742 183.62c-9.26 0-13.444 2.598-16.967 4.316 0 4.844 2.306 8.763 5.155 8.763 5.842.514 9.192-1.72 13.4-6.358 1.854 0 4.125 4.553 3.353 9.45 1.835-4.682.353-9.762-4.94-16.173M496.9 201.08c0-2.49.772-9.364-5.757-14.004 4.64 1.29 7.474 2.75 9.364 7.045-.43 2.235-1.288 4.04-3.608 6.96zM512.02 214.912c7.41 11.695.482 17.236.096 17.75.344-.43 2.91-7.012-.354-14.142.548-1.74.482-2.61.29-3.48M505.93 205.086c1.836 2.545 2.416 6.186 2.416 10.116.548-4.317.73-9.46-3.78-15.97.646 1.516 1.17 3.502 1.364 5.854z"/><path fill="#59595A" d="M478.707 203.765c4.383 6.025 1.096 13.53 1.096 13.53 2.61-2.158 5.8-6.668 3.64-17.59-1.386 1.837-2.64 2.772-4.736 4.06zM491.337 222.612c.45-1.514 4.06-10.406-.58-14.916 2.835.515 4.253.258 6.314-1.29 2.836 5.285-.966 10.31-5.733 16.206zM498.23 219.938c1.063 4.67-2.32 10.31-3.64 12.79 4.573-3.383 11.758-10.6 8.923-17.816-1.707 2.578-2.32 2.835-5.283 5.026zM497.81 242.683c2.514-2.094 3.9-4.446 5.09-9.826 2.868 0 4.35-1.192 5.38-1.58-1.127 4.898-5.54 8.86-10.47 11.502"/><path fill="#FFF" d="M481.692 201.768c1.804 5.327 2.008 7.41.602 12.37 1.567-2.77 2.533-6.603 1.148-14.432-.61.87-.933 1.224-1.75 2.062zM495.266 207.48c1.332 2.02 1.074 5.242-.387 9.45 1.288-2.877 2.19-5.11 1.964-10.523-.205.293-.933.773-1.578 1.074zM500.636 218.177c.772 1.976 1.16 2.878-.516 6.96 1.546-2.535 2.46-3.137 2.234-8.55-.206.293-1.03 1.074-1.718 1.59zM504.503 232.74c-.064 1.545-.236 2.405-2.148 5.927 2.255-3.2 2.9-3.33 3.802-6.357-.302.128-.84.343-1.654.43z"/><path fill="#AA7340" d="M87.53 146.355c-7.56 5.498-9.15 10.095-7.73 26.547-17.655-21.005-10.567-36.255-1.03-33.505.15 2.18 5.53 5.624 6.1 5.584-.435.57-2.148 3.266-6.96 3.523 4.38.515 7.33-.437 9.62-2.148z"/><path fill="#59595A" d="M87.1 143.004c-.6-9.687 9.278-15.464 9.278-15.464-5.498 2.062-12.63 5.756-15.98 10.653.968 2.707 3.224 4.23 6.703 4.81zM99.32 149.292c.406-7.12 8.188-10.626 8.188-10.626-4.347 1.52-9.323 2.878-12.156 6.773.754 2.207 1.15 3.344 3.97 3.852zM105.89 159.732c-1.86-5.547 12.225-12.69 12.225-12.69-5.756 1.03-13.574 3.007-15.67 8.55 1.093 2.062.63 3.635 3.445 4.14z"/><path fill="#AA7340" d="M91.46 147.837c-3.864 1.16-7.988 1.997-10.565 14.175-.602 2.964.71 8.656 2.427 11.92l3.78-3.48c-1.053 4.7 5.954-1.33 6.356-1.33l.345.17c-.945-4.94.987-13.337 5.777-15.205-2.674-.612-4.092-1.53-4.446-2.32-.45-.66-1.224-4.446-3.673-3.93"/><path fill="#A9733F" d="M98.29 157.953c-8.504 10.48-3.8 28.007 7.196 34.193-5.713-21.564.344-24.657-1.847-29.167-1.977-5.07-2.643-7.218-5.35-5.027z"/><path fill="#59595A" d="M113.198 165.837c.793-5.91 8.87-10.29 8.87-10.29-5.843 1.718-10.95 4.575-11.17 8.162.79 1.225 1.408 1.582 2.3 2.127z"/><path fill="#A9733F" d="M113.905 167.575c-2.835-.45-4.05-.977-4.983-3.265-8.42.344-10.824 28.866 2.32 32.775-.687-3.35 4.725-15.808.43-21.263-3.77-4.4 2.233-2.366 2.233-8.247"/><g><path d="M102.458 136.024c-.516-.735-3.19-4.26-3.737-4.93-.402-.478-.677-1.053-1.08-1.532-.547-.59-1.142-1.165-1.69-1.755l-.062-.032c-.468-.67-.632-1.39-1.162-2.014-.612-.7-1.145-1.484-1.82-2.138l-.047-.064c-1.128-1.197-1.855-2.716-2.935-3.93-.58-.685-1.175-1.26-1.802-1.85-.69-.702-1.08-1.613-1.82-2.3-.745-2.207-2.915-3.72-4.938-4.72l.016-.032c.01-1.554-.698-2.705-2.24-3.227l.064-.05c.187-1.346-.747-2.367-1.87-3.003a8.282 8.282 0 0 0-2.15-.824c-.85-.22-1.603.087-2.45-.054l-.018-.05c-.005-1.2-1.51-.906-2.197-.646a7.336 7.336 0 0 0-1.6.968c-.51.467-.557.964-.89 1.558l-.064.048c-.753-.093-1.056.357-1.053 1.078h-.08c-.863.532-.604.98-.377 1.812l-.032-.016c-1.296.278-1.464 2.313-.61 3.095l-.018.032c-.206.497-.51.706-.94 1.012l.03.016c.242.08.482.078.706.11l-.03.063c-.096.594.084 1.202.31 1.794l-.015.032c-.67.467-.41 1.636.072 2.195l.048-.015c.72-.323 1.44-.006 2.115.327l.017.048c.13.544-.027 1.105.135 1.666.18.608.564.88 1.063 1.245.675.415 1.3.845 1.673 1.548.355.575.522 1.855 1.228 2.126.9.765 1.785 1.482 2.573 2.312.516.575 1 1.133 1.498 1.66.5.527.76 1.294 1.257 1.74.4.16.66.607 1.013.862.32.24.706.35 1.028.588.61.462 1.303 1.244 1.578 1.98.26.608.26.768.806 1.118.418.287.772.622 1.142.924.595.494.838 1.214 1.433 1.708 1.336 1.42 2.88 2.663 4.295 4.003.386.35.804.716 1.158 1.132.467.51.112.21.562.752.5.607-.31-.407.19.2l11.784-6.57"/><path fill="#905D31" d="M68.396 116.934c-.587 3.167 2.475 2.733 3.23 4.844.71.722.576 1.035 1.446 2.064 2.515 1.744 3.35 3.935 4.594 4.73v.04c2.443 1.85 4.175 4.044 6.44 6.173.894 1.462 2.258 2.886 4.356 4.703 1.203.89 1.114.853 1.896 1.67.364.34.327.37.475.52.743.61.154.118.44.373 2.68-1.713 5.27-3.183 9.19-5.24-.978-.865-1.112-.94-2.07-1.85-.47-.588-.137-.193-.58-.678-1.7-1.89-4.127-4.26-5.543-6.67-1.872-2.274-3.14-3.77-5.168-5.973-1.148-1.558-3.248-3.736-6.122-6.956-3.603 6.19-9.2.664-11.685 4.592.427-.86.017-1.93-.915-2.39"/><path fill="#A9733F" d="M84.198 132.866c-7.99-6.47-13.142-12.296-12.234-13.565.527-1.064 2.34-.78 4.495.286 5.69 3.036 2.923 13.178 17.122 20.2-.285.813-.55.888-1.543 1.382-6.805-5.84-4.835-5.656-7.822-8.272"/><path fill="#6D4019" d="M73.168 123.89l-.192-.094c1.095-2.213 2.835-3.496 5.173-3.814 2.543-.346 5.813.46 9.72 2.392l-.094.193c-3.868-1.913-7.097-2.71-9.597-2.37-2.266.305-3.95 1.548-5.012 3.694zM82.63 133.276l-.164-.138c1.215-1.442 2.58-2.31 4.294-2.728 2.12-.518 4.774-.34 8.112.545l-.055.208c-3.302-.875-5.92-1.053-8.006-.544-1.668.405-2.996 1.25-4.18 2.656z"/><path fill="#6D4019" d="M82.55 133.21l-.193-.096c2.7-5.455 6.096-9.095 7.734-8.284l-.094.193c-.698-.344-1.89.313-3.267 1.808-1.427 1.548-2.91 3.813-4.18 6.38z"/><path fill="#5B5C5C" d="M79.146 111.408c-1.135.173-1.667-.872-1.645-.918-1.177-1.438-.923-2.495-1.67-2.684.184 1.784-.924 2.9-2.778 3.72-.753.31-1.055.84-1.787 1.675-.178-.087-.335-.13-.354-.094-1.162 1.463-2.07 1.763-4.12 1.788.065.432-1.298 1.284-.863 1.78 1.216-.616 3.802-.086 3.5 2.342 1.016-2.54 2.272-2.253 4.817-2.942 2.21-.587 5.304-.51 4.902-4.666z"/><path fill="#5B5C5C" d="M66.937 111.728c-.234-.496-.325-1-.71-1.82.097-.132.184-.308.383-.53.945 1.787 1.332 2.338 2.563 3.607-.572.795-1.317.967-3.263 1.143-.188-.872-.213-1.145-.204-1.91.476-.094.704-.17 1.23-.49z"/><path fill="#5B5C5C" d="M69.21 111.638c.687.28 1.065.272 1.708.305-.105-.053-.107-1.267.588-1.673 1.206-.438 2.05-1.505 1.793-2.08-.728-1.41-1.204-2.05-1.736-2.822l.268-.542c-.342.146-.503.32-.694.556.146.072.22.223.163.336-.622.38-1.022.98-1.95 2.856-.29-.113-.59-.172-1.01-.2.183.75.305 1.02.452 1.872-.252-.035-.055 1.082.238 2.336-.066.133-.028.286.086.342.032-.222.12-.763.094-1.286z"/><path fill="#353434" d="M65.706 112.218c.4-.092.772-.147 1.145-.443-.042-.336-.032-.63-.335-1.23.18-.366.387-.633.46-.597.647 1.265 1.106 1.822 2.042 2.75-1.94 1.527-2.086 1.215-3.31-.48z"/><path fill="none" d="M70.438 109.368c.388-.785.81-1.368.943-1.302"/><path fill="#C12726" d="M71.38 108.067c-.155-.138-.492-.214-.548-.556.494.355.87.1 1.395-.03-.275-.615-.353-.823-.523-1.447 2.04 2.018.73 4.567-1.26 3.314.12-.24.334-.694.917-1.266"/><path fill="#B5B5B6" d="M71.71 113.01c1.816-.735 2.2-1.115 3.487-3.505-.61.808-1.182 1.843-2.514 2.113-.084.14-.233.41-.243.734-.14-.07-.146-.34-.016-.607-.28-.138-.88.51-1.346 1.448.606.3 1.106.52 1.12.494-.23-.204-.362-.42-.49-.677zM67.266 115.143c1.617.396 2.51-.317 3.652-1.235-.315.64-.522 1.18-.463 1.21.506.28.83.32 1.786.51-.81.273-.926 1.024-2.24 1.71-.59-.684-2.02-1.212-2.734-2.195z"/><path fill="#991C1F" d="M70.505 115.172c2.463-1.434 3.792-2.515 5.817-5.276-.128 1.076-.28 1.69-.757 2.743 1.193-.355 1.71-.55 2.43-.883-1.227 4.205-3.546 4.016-6.17 4.112.19-.146.22-.176.42-.243-.843-.147-.97-.164-1.78-.43"/><path d="M88.846 140.275c-2.348-1.88-2.5-3.674-5.696-5.775 3.264-.943 7.427-5.238 8.677-8.977 2.062 2.458 4.107 5.11 5.46 6.818-2.72 5.503-6.727 7.784-8.44 7.935"/><path fill="#FFF" d="M94.202 126.278c-2.6 4.47-5.564 8.098-9.774 9.822 2.48 1.916 1.688 2.504 3.176 3.7 2.178-.283 7.137-3.724 9.538-9.91-.274-.296-.282-.4-.86-.75-.653-.918-.822-1.222-2.064-2.855"/><path fill="#FBB11A" d="M96.28 129.142c-.66-.947-.846-1.235-1.418-1.998-3.18 5.7-5.846 7.86-9.523 9.717 1.096 1.133.828 1.263 1.724 2.45 4.424-1.666 7.534-4.984 9.495-9.98-.108-.087-.117-.084-.28-.188z"/><path fill="#DC9427" d="M96.263 129.14c.173.087.297.19.295.192-.258.558-.526 1.38-1.34 2.8-.72-.7-1.172-1.21-1.963-2.306a28.33 28.33 0 0 0 1.607-2.682c.775 1.096 1 1.416 1.4 1.997z"/></g><path fill="#BB8355" d="M182.205 420.928c-4.896 2.233-7.56 3.608-9.88 6.187 5.756-13.488 15.464-22.88 15.464-39.263 4.252 21.65 1.16 32.217-15.207 58.247 3.222-10.567 3.952-13.444 9.622-25.172z"/><path fill="#FFF" d="M95.39 145.56c.192.787.302.967.516 1.31 3.093-3.65 3.673-4.96 11.383-8.14-7.13 2.406-9.75 4.468-11.9 6.83M104.54 153.486c2.192-2.234 5.07-4.21 11.73-5.8-6.273 1.89-9.322 3.996-11.127 6.66-.516.342-1.29-.173-.602-.86zM110.92 163.688c.27-2.287 2.04-3.973 4.103-5.176-2.148 1.933-3.383 2.835-3.565 5.96-.29-.312-.366-.355-.538-.784z"/><path fill="#905D31" d="M77.48 148.546c4.295-.43 5.86-1.74 7.216-3.608-1.718-.86-2.19-1.117-3.222-1.997 0 2.66-3.425 5.392-7.604 5.392 7.732 3.78 1.718 15.12 9.45 25.602-5.65-8.763-4.167-21.67 3.308-26.89-2.835 1.416-4.64 1.845-9.15 1.502zM93.802 169.293c-.516-5.327.086-12.114 5.777-15.206-2.17-.43-2.6-.515-3.974-1.46-2.835 8.505-3.093 11.168-1.89 16.925M113.26 182.674c.26-3.028-.58-5.606-1.643-6.862-1.69-1.88-1.37-2.858-.226-3.683 1.805-1.204 2.514-2.275 2.514-4.554-1.074-.215-1.332-.236-1.954-.344.193 2.19-3.802 3.35-3.544 6.272.6 3.522 2.92 3.18 4.81 9.193M150.783 531.388c-5.22.773-11.963 2.254-14.455 7.238-.6 2.49 2.577.773 3.18 2.92 0-3.418-.84-6.615 11.275-10.158.097.098 0 0 0 0zM153.124 543.523c-1.546-.387-1.095-.902-2.362-1.72 0-2.706.43-2.92 5.41-9.448-3.435 4.467.69 4.297 1.204 4.982-2.75.688-3.436 3.264-4.252 6.186z"/><path fill="#59595A" d="M134.315 540.957c.413.65 1.138 1.777 2.706 1.977-2.92.387-3.838.865-6.254 3.36.86-2.406 1.487-3.533 3.55-5.337M149.967 543.33c.42.5.822 1.29 1.853 1.725-1.836.436-2.416.998-3.352 2.176.387-1.693.63-2.225 1.5-3.9z"/><path fill="#2E579A" d="M467.357 385.537v-.023H324.83c-7.402 0-13.402 6-13.402 13.402v77.32c0 7.4 6 13.4 13.4 13.4h142.528v-.023c7.042-.4 12.63-6.236 12.63-13.377v-77.32c0-7.143-5.588-12.98-12.63-13.38z"/><linearGradient id="f" gradientUnits="userSpaceOnUse" x1="395.561" y1="212.22" x2="395.561" y2="108.096" gradientTransform="matrix(1 0 0 -1 -.02 594.375)"><stop offset="0" stop-color="#FFF"/><stop offset="1" stop-color="#d1d3d4"/></linearGradient><path fill="url(#f)" d="M467.19 382.18v-.025H324.663c-7.4 0-13.4 6-13.4 13.402v77.32c0 7.4 6 13.4 13.4 13.4H467.19v-.022c7.042-.4 12.63-6.236 12.63-13.38v-77.318c0-7.14-5.588-12.977-12.63-13.378z"/><g><path d="M395.43 436.365c0 3.7-1.172 6.752-3.52 9.152-2.345 2.402-5.41 3.604-9.193 3.604-3.813 0-6.9-1.2-9.268-3.603-2.368-2.4-3.55-5.45-3.55-9.152v-5.406c0-3.69 1.178-6.737 3.538-9.145s5.44-3.612 9.236-3.612c3.77 0 6.838 1.205 9.205 3.612 2.364 2.407 3.55 5.456 3.55 9.144v5.405zm-6.954-5.45c0-2.145-.506-3.905-1.517-5.282-1.014-1.377-2.44-2.064-4.284-2.064-1.885 0-3.326.685-4.324 2.052-.998 1.37-1.496 3.135-1.496 5.295v5.45c0 2.173.505 3.948 1.517 5.323 1.012 1.377 2.46 2.064 4.345 2.064 1.83 0 3.247-.688 4.252-2.064 1.004-1.375 1.507-3.15 1.507-5.324v-5.45zM408.636 436.632h-3.22v12.053h-6.997v-30.05h6.995V430.4h2.373l6.604-11.764h8.67l-9.31 13.602 10.113 16.447h-8.503l-6.726-12.053z"/></g><linearGradient id="g" gradientUnits="userSpaceOnUse" x1="333.777" y1="382.017" x2="333.777" y2="29.196" gradientTransform="matrix(1 0 0 -1 -.02 594.375)"><stop offset="0" stop-color="#FFF"/><stop offset="1" stop-color="#d1d3d4" stop-opacity="0"/></linearGradient><path opacity=".15" fill="url(#g)" d="M409.207 212.593h-89.8l-9.623 14.605c-21.65-2.234-29.64-5.412-39.95-9.88 4.984 4.124 7.304 5.928 12.114 8.162-6.787-.515-8.162-.86-11.168-1.203-8.076 6.7-12.37 15.808-12.475 31.272v309.63-.007h89.45l61.45-352.815"/><path fill="#275485" d="M258.305 565.18h-117.81L129.54 552.07c.087-2.063 2.836-3.65 7.218-4.81 3.094 1.16 6.015.9 8.764-.646-.645 4.768-.172 7.346 1.804 11.598.515-4.252 1.614-8.375 3.608-8.375 6.485 1.374 8.29 1.5 13.06-2.064 3.865-1.418 5.798.215 10.265.773 21.392-2.448 40.378-10.868 45.23-30.67 3.223-20.75 3.48-28.997 14.564-40.208.258 2.963-2.105 6.1-3.48 9.193 4.168-3.18 6.702-4.94 9.022-10.096.215 2.276-2.448 8.118-3.094 10.565 3.78-4.553 6.058-6.313 8.505-12.758-.258 4.254-.944 6.1-1.718 8.55 5.884-4.855 6.4-7.52 9.88-16.67.73-2.017 2.405-3.478 5.11-3.82l.027 102.534M754.677 533.085c-2.32 1.16-3.31.988-6.83.902-12.672-2.88-27.492-2.578-43.085 3.35-6.572 1.504-13.66 5.713-28.48 3.523-13.016-2.922-25.987-1.074-53.093.43l-.087-1.117c-50.774 4.123-66.023 15.678-94.563 11.598v13.41h250.88l-24.743-32.224"/><path opacity=".8" fill="#F6C18E" d="M554.16 360.92c1.353 2.32 1.545 2.77 2.705 5.97-5.155-1.546-13.06-.86-28.35-2.063v-9.578c8.076 3.35 18.943 5.37 25.644 5.67z"/><g opacity=".1" fill="#F9F9FA"><path d="M78.58 81.896a4.9 4.9 0 0 0-4.27-4.86c.134-.33.228-.678.285-1.04.102.004.202.014.307.014a6.13 6.13 0 0 0 0-12.262 6.11 6.11 0 0 0-4.634 2.124 4.147 4.147 0 0 0-2.233-.653 4.17 4.17 0 0 0-4.17 4.168c0 .083.01.164.013.246h-.012a4.905 4.905 0 0 0-4.905 4.904 4.89 4.89 0 0 0 1.646 3.657 4.508 4.508 0 0 0-.663 2.352 4.537 4.537 0 0 0 4.537 4.537c.583 0 1.14-.114 1.65-.314a3.665 3.665 0 0 0-.792 2.276 3.68 3.68 0 1 0 7.34-.347 4.905 4.905 0 0 0 5.9-4.803zm-9.604-1.916c-.007-.057-.018-.113-.026-.17a5.6 5.6 0 0 0 .264.053c-.023.053-.05.105-.072.16a2.12 2.12 0 0 0-.166-.043zM65.337 58.842c0-.848-.27-1.63-.73-2.273a3.678 3.678 0 0 0-.75-6.975 3.187 3.187 0 1 0-5.45 2.41 3.435 3.435 0 0 0-3.862 3.405c-.002 1.73 1.28 3.156 2.943 3.394 0 .013-.003.026-.003.04a3.924 3.924 0 0 0 7.85-.002z"/><circle cx="68.525" cy="46.825" r="1.717"/><circle cx="78.09" cy="92.196" r="1.962"/><circle cx="76.618" cy="52.465" r="2.943"/><circle cx="70.978" cy="57.125" r="2.207"/></g></svg>