<?xml version="1.0" encoding="utf-8"?>
<!-- Generator: Adobe Illustrator 17.0.0, SVG Export Plug-In . SVG Version: 6.00 Build 0)  -->
<!DOCTYPE svg PUBLIC "-//W3C//DTD SVG 1.1//EN" "http://www.w3.org/Graphics/SVG/1.1/DTD/svg11.dtd">
<svg version="1.1" id="Слой_1" xmlns="http://www.w3.org/2000/svg" xmlns:xlink="http://www.w3.org/1999/xlink" x="0px" y="0px"
	 width="180px" height="173.333px" viewBox="0 0 180 173.333" enable-background="new 0 0 180 173.333" xml:space="preserve">
<path fill="#ccc" d="M158.802,27.659c-1.824-2.241-4.515-3.525-7.382-3.525c-1.175,0-2.333,0.217-3.438,0.645L25.401,72.083
	c-3.722,1.436-6.114,4.94-6.094,8.929c0.02,3.991,2.448,7.475,6.193,8.877l27.113,10.116l10.691,34.369
	c1.245,4.005,4.901,6.695,9.098,6.695c0,0,0,0,0.001,0c2.181,0,4.316-0.764,6.007-2.146l16.031-13.072l29.388,21.331
	c1.64,1.19,3.571,1.82,5.585,1.82c4.496,0,8.421-3.191,9.331-7.584l21.987-105.826C161.316,32.776,160.612,29.884,158.802,27.659z
	 M74.116,126.941c0.338-2.395,0.639-4.972,0.739-5.724l1.188-8.803l8.38,6.122L74.116,126.941z M127.776,135.22l-26.93-19.547
	c0,0,0,0-0.001,0l-19.488-14.235l46.412-43.142c0.901-0.836-0.179-2.254-1.228-1.61L62.433,91.174l-0.11-0.354l-26.512-9.891
	l112.246-43.316L127.776,135.22z"/>
</svg>
