<?xml version="1.0" encoding="utf-8"?>
<!-- Generator: Adobe Illustrator 16.0.0, SVG Export Plug-In . SVG Version: 6.00 Build 0)  -->
<!DOCTYPE svg PUBLIC "-//W3C//DTD SVG 1.1//EN" "http://www.w3.org/Graphics/SVG/1.1/DTD/svg11.dtd">
<svg version="1.1" id="Layer_1" xmlns="http://www.w3.org/2000/svg" xmlns:xlink="http://www.w3.org/1999/xlink" x="0px" y="0px"
	 width="347px" height="455.3px" viewBox="0 0 347 455.3" enable-background="new 0 0 347 455.3" xml:space="preserve">
<polygon fill="#4AAADD" points="0,213.1 2.5,213.1 11,220.1 2,229.201 11,237.1 2.1,245.4 11,252.6 2.8,259.8 0,259.8 "/>
<polygon fill="#E06013" points="19,213.1 19,252.1 27.1,245.8 19.6,239.8 27.1,233 19.6,226.9 27.1,218.9 "/>
<g>
	<polygon fill="#8ABFDD" points="9.6,270.701 0,266.1 0,266.5 9.6,275.3 19.1,266.5 19.1,266.1 	"/>
	<polygon fill="#77B3D6" points="0,266.5 9.6,275.701 9.6,271.1 	"/>
	<polyline fill="#6DA4C4" points="9.6,271.1 19.1,266.5 9.6,275.701 	"/>
</g>
<polygon opacity="0.8" fill="#FFFFFF" enable-background="new    " points="135.3,253.1 124.8,253.1 128.7,249 128,248.3 
	122.8,253.8 128,258.9 128.7,258.1 124.5,254.1 135.3,254.1 "/>
<line fill="none" stroke="#FFFFFF" stroke-miterlimit="10" x1="123.5" y1="283.3" x2="133.1" y2="273.8"/>
<line fill="none" stroke="#FFFFFF" stroke-miterlimit="10" x1="123.5" y1="273.8" x2="133.1" y2="283.3"/>
<g opacity="0.45">
	<polygon points="226.9,221.8 226.7,221.8 226.7,230.6 243,230.6 243,221.8 234.9,227.4 	"/>
	<polygon points="226.7,218.2 243,218.2 243,219.8 234.9,225.4 226.7,219.6 	"/>
</g>
<g opacity="0.45">
	<ellipse cx="293" cy="223.3" rx="7.1" ry="6.2"/>
	<path d="M289.8,227.1c0,0-0.4,1.601-0.9,2.601s-2,2-2,2s1.7,0,3.4-0.801c1.7-0.8,3.4-2.199,3.4-2.199L289.8,227.1z"/>
</g>
<g opacity="0.45">
	<path fill="#F5F7F9" stroke="#000000" stroke-width="0.5" stroke-miterlimit="10" d="M265.2,223.3c-1.801-1.1-1.9-4.5-1.2-5.5
		s2.2-1.2,3.2-0.5c1,0.7,1.899,2.3,1.199,3.6c-0.899,1.7-1.5,1.8-2.3,2.3C265.2,223.8,265.2,223.3,265.2,223.3z"/>
	<path fill="#F5F7F9" stroke="#000000" stroke-width="0.5" stroke-miterlimit="10" d="M263.3,223.2c-2.1-0.2-3.4-1.1-3.6-3.1
		c-0.2-2,1.5-2.9,3.199-1.6c1.7,1.3,1.2,3.9,1,4.3C263.7,223.2,263.3,223.2,263.3,223.2z"/>
	<path fill="#F5F7F9" stroke="#000000" stroke-width="0.5" stroke-miterlimit="10" d="M261.8,224.5c-0.8,1.9-2.1,1.2-3.5,1.2
		s-4.5-2.9-1.2-4.2c2.601-0.4,4.601,0.8,5,1.5C262.5,223.7,261.8,224.5,261.8,224.5z"/>
	<path fill="#F5F7F9" stroke="#000000" stroke-width="0.5" stroke-miterlimit="10" d="M265.9,224.1c1.4-2.4,4.2-4.4,5.601-2.7
		c1.399,1.7-1.4,3.6-4.9,3.2S265.9,224.1,265.9,224.1z"/>
	<path fill="#F5F7F9" stroke="#000000" stroke-width="0.5" stroke-miterlimit="10" d="M265.8,224.9c1.7-1.2,6.9-0.4,6.2,3.301
		c-0.7,3.699-5.2,0.6-6.5-2S265.8,224.9,265.8,224.9z"/>
	<path fill="#F5F7F9" stroke="#000000" stroke-width="0.5" stroke-miterlimit="10" d="M262.3,226.9c2.1,0.6,2.6,5.5-0.4,6.801
		c-3,1.299-4.199-5.601-0.399-6.801C265.3,225.7,262.3,226.9,262.3,226.9z"/>
	<path fill="#F5F7F9" stroke="#000000" stroke-width="0.5" stroke-miterlimit="10" d="M263.8,226.8c2.1-1.4,4.9,4.1,3.4,5.5
		s-5.2-1.1-3.9-5.4C264.6,222.5,263.8,226.8,263.8,226.8z"/>
	<g>
		<path fill="#020202" d="M261.6,226.3c-0.2-1.5-3.7-1-4.399-0.6c-0.7,0.4-0.801,1.8-0.301,2.6c0.5,0.8,2.101,1.4,3.2,0.5
			C261.2,227.9,261.7,227.5,261.6,226.3z"/>
		<circle fill="#F5F7F9" stroke="#050707" stroke-width="0.5" stroke-miterlimit="10" cx="263.9" cy="225.3" r="2.2"/>
	</g>
</g>
<path opacity="0.45" enable-background="new    " d="M185.7,225.4c0-0.2,0-0.5,0-0.7c0-4.9-3.9-8.9-8.7-8.9c-0.3,0-0.601,0-1,0.1
	c-0.9-0.6-2-0.9-3.101-0.9c-3.1,0-5.6,2.5-5.6,5.6c0,1.2,0.4,2.3,1,3.3c0,0.3,0,0.6,0,0.9c0,4.901,3.9,8.901,8.7,8.901
	c0.6,0,1.2-0.101,1.8-0.201c0.6,0.201,1.2,0.301,1.9,0.301c3.1,0,5.6-2.5,5.6-5.6C186.3,227.1,186.1,226.2,185.7,225.4z
	 M181.1,228.201c-0.3,0.5-0.899,0.899-1.5,1.199c-0.7,0.301-1.5,0.4-2.399,0.4c-0.801,0-1.601-0.1-2.2-0.4
	c-0.601-0.199-1.101-0.6-1.601-0.9c-0.1-0.1-0.3-0.299-0.399-0.399c-0.3-0.3-0.3-0.8,0-1.2c0.2-0.3,0.6-0.4,0.899-0.3l0.801,0.2
	c0.399,0.5,0.8,0.9,1.199,1.1c0.4,0.2,0.9,0.301,1.4,0.301c0.6,0,1.1-0.101,1.5-0.401c0.4-0.3,0.5-0.6,0.5-0.9
	c0-0.3-0.1-0.6-0.4-0.8c-0.3-0.2-0.899-0.5-1.899-0.7c-1.4-0.3-2.3-0.7-2.9-1.1c-0.7-0.5-1.1-1.2-1.1-2c0-0.9,0.399-1.6,1.1-2.1
	c0.7-0.6,1.7-0.8,3-0.8c0.7,0,1.4,0.1,1.9,0.3c0.5,0.2,1,0.5,1.399,0.8c0.301,0.2,0.5,0.5,0.801,0.9c0,0,0.199,0.4-0.301,0.9
	s-1,0-1,0c-0.399-0.1-0.8-0.3-1.1-0.6c-0.2-0.2-0.5-0.4-0.7-0.5c-0.399-0.2-0.8-0.3-1.2-0.3c-0.5,0-1,0.1-1.3,0.4
	c-0.3,0.3-0.5,0.6-0.5,0.9c0,0.3,0.101,0.5,0.4,0.7c0.3,0.2,0.899,0.4,2,0.6c1.1,0.2,1.8,0.5,2.399,0.8c0.5,0.3,0.9,0.7,1.2,1.1
	c0.3,0.5,0.4,0.9,0.4,1.4C181.6,227.1,181.4,227.7,181.1,228.201z"/>
<g opacity="0.45">
	<path fill="none" stroke="#000000" stroke-miterlimit="10" d="M202.7,217.4c-2.4,3.8-2,10,2.5,13.5"/>
	<path d="M201.3,218.3c0.2-1.9,1.6-2.3,2.3-2.6c0.7-0.3,1.101,0.1,1.2,1.4c0.1,1.3,0,2.9-0.6,3.3c-0.601,0.4-2.601,0.2-2.801,0.6
		c-0.199,0.4-0.399,3.4,0.101,4.7c0.5,1.3,0.8,2.2,1.8,2.6s1,0.1,3.5,0.3c1.6,1.8,1.9,3.899,1.2,4.2c-1.3,0.6-2.101,0.1-3.601-1.301
		c-1.3-1.299-1.899-3.1-1.899-3.1l-1.9-5.2l0.5-3.4L201.3,218.3z"/>
</g>
<g>
	<path fill="#B3B3B3" d="M186.1,275.201V272.9c0,0,0-0.4,0-0.6v-0.1c-0.1-0.601-0.6-1.5-2.2-2.201c0,0-2.199-0.399-4.3-1.199
		c-0.399-0.301,0.601,0,0,0l0,0l-1.5-0.9l0.101-1.3c1.1-0.601,1.5-1.601,1.699-2.7c0.101-0.9,0.301-3,0.301-4c0-1.199-0.301-4-3.7-4
		l0,0l0,0c-3.2,0-3.601,2.801-3.601,4c0,0.7,0.101,3.2,0.301,4c0.1,1,0.699,2.4,1.8,2.7v1.3l-1.5,0.9l0,0c0.6-0.301-0.601,0.1,0,0
		c-2.9,1-4.3,1.3-4.3,1.3c-1.5,0.601-1.9,1.3-2.101,2.2v0.6v2v0.1"/>
	<path fill="#B3B3B3" d="M174.1,263.8L174.1,263.8c-0.6,0.1-1.1-0.1-1.2-0.6l-0.3-0.701c-0.1-0.6,0.101-1,0.601-1.299l0,0
		c0.6-0.101,1,0.1,1.199,0.6l0.301,0.699C174.8,263,174.5,263.6,174.1,263.8z"/>
	<path fill="#B3B3B3" d="M178.6,263.8L178.6,263.8c-0.6-0.301-0.7-0.9-0.399-1.301l0.399-0.699c0.3-0.4,0.8-0.6,1.2-0.4l0,0
		c0.4,0.301,0.6,0.9,0.4,1.301l-0.4,0.699C179.7,263.8,179.2,264.1,178.6,263.8z"/>
</g>
<g>
	<path fill="#E66B6B" d="M186.1,323.1v-2.3c0,0,0-0.4,0-0.6V320c-0.1-0.6-0.6-1.5-2.2-2.199c0,0-2.199-0.4-4.3-1.2
		c-0.399-0.3,0.601,0,0,0l0,0l-1.5-0.899l0.101-1.301c1.1-0.6,1.5-1.6,1.699-2.699c0.101-0.9,0.301-3,0.301-4c0-1.201-0.301-4-3.7-4
		l0,0l0,0c-3.2,0-3.601,2.799-3.601,4c0,0.699,0.101,3.199,0.301,4c0.1,1,0.699,2.399,1.8,2.699v1.301l-1.5,0.899l0,0
		c0.6-0.3-0.601,0.101,0,0c-2.9,1-4.3,1.3-4.3,1.3c-1.5,0.6-1.9,1.301-2.101,2.2v0.601v2v0.1"/>
	<path fill="#E66B6B" d="M174.1,311.6L174.1,311.6c-0.6,0.101-1.1-0.101-1.2-0.601l-0.3-0.699c-0.1-0.6,0.101-1,0.601-1.301l0,0
		c0.6-0.1,1,0.101,1.199,0.601l0.301,0.7C174.8,310.9,174.5,311.4,174.1,311.6z"/>
	<path fill="#E66B6B" d="M178.6,311.6L178.6,311.6c-0.6-0.3-0.7-0.899-0.399-1.3l0.399-0.7c0.3-0.399,0.8-0.601,1.2-0.399l0,0
		c0.4,0.299,0.6,0.899,0.4,1.299l-0.4,0.701C179.7,311.6,179.2,311.9,178.6,311.6z"/>
</g>
<g>
	<path fill="#80B2C9" d="M186.1,370.1v-2.3c0,0,0-0.4,0-0.6V367c-0.1-0.6-0.6-1.5-2.2-2.199c0,0-2.199-0.4-4.3-1.2
		c-0.399-0.3,0.601,0,0,0l0,0l-1.5-0.899l0.101-1.301c1.1-0.6,1.5-1.6,1.699-2.699c0.101-0.9,0.301-3,0.301-4c0-1.201-0.301-4-3.7-4
		l0,0l0,0c-3.2,0-3.601,2.799-3.601,4c0,0.699,0.101,3.199,0.301,4c0.1,1,0.699,2.399,1.8,2.699v1.301l-1.5,0.899l0,0
		c0.6-0.3-0.601,0.101,0,0c-2.9,1-4.3,1.3-4.3,1.3c-1.5,0.6-1.9,1.301-2.101,2.2v0.601v2v0.1"/>
	<path fill="#80B2C9" d="M174.1,358.6L174.1,358.6c-0.6,0.101-1.1-0.101-1.2-0.601l-0.3-0.699c-0.1-0.6,0.101-1,0.601-1.301l0,0
		c0.6-0.1,1,0.101,1.199,0.601l0.301,0.7C174.8,357.9,174.5,358.4,174.1,358.6z"/>
	<path fill="#80B2C9" d="M178.6,358.6L178.6,358.6c-0.6-0.3-0.7-0.899-0.399-1.3l0.399-0.7c0.3-0.399,0.8-0.601,1.2-0.399l0,0
		c0.4,0.299,0.6,0.899,0.4,1.299l-0.4,0.701C179.7,358.6,179.2,358.9,178.6,358.6z"/>
</g>
<g id="g3788" transform="translate(408.34682,294.34371)">
	<g id="g4602" transform="matrix(1.4170928,0,0,1.4170928,-1808.8376,-2167.3915)">
		<path id="path6-5" fill="#FFFFFF" d="M1010.1,1558.3v-10.701v-1.199l0,0v-1.4l0,0h-16.9l0,0v1.6v1.199v10.701
			c0,0.999,0.799,2,1.799,2h1.4c0,0.2,0,0.4,0,0.6v0.2v0.601v3.199c0,1.001,0.8,1.8,1.8,1.8s1.8-0.799,1.8-1.8v-3.199v-0.601v-0.2
			c0-0.2,0-0.4,0-0.6h3.4c0,0.2,0,0.4,0,0.6v0.2v0.601v3.199c0,1.001,0.8,1.8,1.8,1.8s1.8-0.799,1.8-1.8v-3.199v-0.601v-0.2
			c0-0.2,0-0.4,0-0.6h1.4C1009.5,1560.1,1010.1,1559.299,1010.1,1558.3L1010.1,1558.3z"/>
		<path id="path8" fill="#FFFFFF" d="M1011.5,1546.6v7.9c0,0.999,0.8,1.8,1.8,1.8c1,0,1.8-0.801,1.8-1.8v-7.9
			c0-1.001-0.8-1.8-1.8-1.8C1012.3,1544.8,1011.5,1545.599,1011.5,1546.6z"/>
		<path id="path10" fill="#FFFFFF" d="M990.1,1556.3c1,0,1.8-0.801,1.8-1.8v-7.9c0-1.001-0.8-1.8-1.8-1.8s-1.8,0.799-1.8,1.8v7.9
			C988.3,1555.5,989.1,1556.3,990.1,1556.3z"/>
		<path id="path12" fill="#FFFFFF" d="M1006.5,1536.3l0.8-1.2c0-0.2,0-0.4,0-0.4c-0.2,0-0.4,0-0.4,0l-0.8,1.199l-0.4,0.601
			l-0.4,0.599c-1.2-0.4-2.4-0.599-3.6-0.599c-1.4,0-2.6,0.2-3.6,0.599l-0.4-0.599l-0.4-0.601l-0.8-1.199c0-0.2-0.2-0.2-0.4,0
			c-0.201,0-0.201,0.2,0,0.4l0.8,1.2l0.4,0.599l0.4,0.6c-2.599,1.2-4.399,3.6-4.399,6.201h17.3c0-2.601-1.8-5-4.4-6.201l0.4-0.6
			L1006.5,1536.3L1006.5,1536.3z M998,1541c-0.6,0-1-0.401-1-1.001s0.4-1,1-1s1,0.4,1,1S998.6,1541,998,1541z M1006.3,1540.1
			c0,0.6-0.4,0.999-1,0.999c-0.6,0-1-0.4-1-0.999c0-0.601,0.4-1.001,1-1.001C1005.9,1539.1,1006.3,1539.699,1006.3,1540.1z"/>
	</g>
</g>
<path opacity="1" fill="#B3B3B3" enable-background="new    " d="M231.8,273.8H219v-8.6h1.1V262c0-3,2.4-5.399,5.3-5.399
	c2.9,0,5.301,2.399,5.301,5.399v3.201h1.1V273.8L231.8,273.8z M228.6,261.8c0-1.801-1.399-3.2-3.2-3.2c-1.8,0-3.199,1.399-3.199,3.2
	v3.3h6.399V261.8z"/>
<path opacity="0.4" fill="#E66B6B" enable-background="new    " d="M231.8,322.1H219V313.5h1.1V310.3c0-3,2.4-5.4,5.3-5.4
	c2.9,0,5.301,2.4,5.301,5.4v3.199h1.1V322.1L231.8,322.1z M228.6,310.1c0-1.8-1.399-3.2-3.2-3.2c-1.8,0-3.199,1.4-3.199,3.2v3.3
	h6.399V310.1z"/>
<path opacity="0.4" fill="#80B2C9" enable-background="new    " d="M231.8,369.1H219V360.5h1.1V357.3c0-3,2.4-5.4,5.3-5.4
	c2.9,0,5.301,2.4,5.301,5.4v3.199h1.1V369.1L231.8,369.1z M228.6,357.1c0-1.8-1.399-3.2-3.2-3.2c-1.8,0-3.199,1.4-3.199,3.2v3.3
	h6.399V357.1z"/>
<path fill="#80B2C9" d="M332,360.9c0-1.5-0.7-2.9-1.801-3.9c0.2,0.5,0.2,1,0.2,1.601c0,4-4.6,7.2-9.6,6.3c-0.3,0.2-0.601,0.4-1,0.5
	c1.3,0.9,3,1.5,4.8,1.5c0.6,0,1.3-0.1,1.9-0.199c1.3,0.899,3.899,1.699,3.399,1.399s-1-1.101-0.899-2.3
	C330.8,364.6,332,362.9,332,360.9z"/>
<path fill="#80B2C9" d="M322.5,352.6c-4.101,0-7.4,2.7-7.4,5.899c0,2,1.2,3.701,3,4.801c0.1,1.199-0.4,2-0.9,2.3
	s2.101-0.5,3.4-1.399c0.6,0.1,1.2,0.199,1.9,0.199c4.1,0,7.399-2.699,7.399-5.9C329.9,355.3,326.6,352.6,322.5,352.6z"/>
<path fill="#E66B6B" d="M332,314.4c0-1.5-0.7-2.9-1.801-3.9c0.2,0.5,0.2,1,0.2,1.601c0,4-4.6,7.2-9.6,6.3c-0.3,0.2-0.601,0.4-1,0.5
	c1.3,0.9,3,1.5,4.8,1.5c0.6,0,1.3-0.1,1.9-0.199c1.3,0.899,3.899,1.699,3.399,1.399s-1-1.101-0.899-2.3
	C330.8,318.1,332,316.4,332,314.4z"/>
<path fill="#E66B6B" d="M322.5,306.1c-4.101,0-7.4,2.7-7.4,5.899c0,2,1.2,3.701,3,4.801c0.1,1.199-0.4,2-0.9,2.3
	s2.101-0.5,3.4-1.399c0.6,0.1,1.2,0.199,1.9,0.199c4.1,0,7.399-2.699,7.399-5.9C329.9,308.8,326.6,306.1,322.5,306.1z"/>
<path fill="#B3B3B3" d="M332,266.201c0-1.5-0.7-2.9-1.801-3.9c0.2,0.5,0.2,1,0.2,1.6c0,4-4.6,7.2-9.6,6.301
	c-0.3,0.199-0.601,0.399-1,0.5c1.3,0.899,3,1.5,4.8,1.5c0.6,0,1.3-0.101,1.9-0.201c1.3,0.9,3.899,1.701,3.399,1.4
	c-0.5-0.3-1-1.1-0.899-2.3C330.8,269.9,332,268.201,332,266.201z"/>
<path fill="#B3B3B3" d="M322.5,258c-4.101,0-7.4,2.701-7.4,5.9c0,2,1.2,3.7,3,4.801c0.1,1.199-0.4,2-0.9,2.299
	c-0.5,0.301,2.101-0.5,3.4-1.399c0.6,0.101,1.2,0.2,1.9,0.2c4.1,0,7.399-2.7,7.399-5.9C329.9,260.701,326.6,258,322.5,258z"/>
<g opacity="0.3">
	<path d="M273.4,263c0,0.301,0.101,0.5,0.301,0.701c0.199,0.199,0.5,0.399,0.8,0.5V262c-0.4,0-0.7,0.101-0.9,0.301
		C273.5,262.5,273.4,262.701,273.4,263z"/>
	<path d="M274.8,266.4v2.4c0.4,0,0.7-0.2,0.9-0.4c0.199-0.199,0.3-0.5,0.3-0.8s-0.101-0.5-0.4-0.7
		C275.4,266.8,275.1,266.6,274.8,266.4z"/>
	<path d="M274.6,256.9c-4.7,0-8.5,3.801-8.5,8.5c0,4.7,3.8,8.5,8.5,8.5s8.5-3.8,8.5-8.5C283.1,260.701,279.3,256.9,274.6,256.9z
		 M277.2,269.4c-0.4,0.5-1,0.801-1.801,0.9v1.3H274v-1.2c-0.5,0-1-0.1-1.4-0.199C272.2,270.1,271.9,270,271.7,269.9l0.5-1.6
		c0.199,0.1,0.399,0.199,0.699,0.3c0.301,0.101,0.7,0.2,1.101,0.2V266c-0.3-0.1-0.601-0.299-0.8-0.399
		c-0.301-0.2-0.5-0.3-0.801-0.601c-0.199-0.199-0.399-0.5-0.5-0.799c-0.1-0.301-0.199-0.701-0.199-1.101c0-0.8,0.199-1.399,0.6-1.8
		s1-0.7,1.7-0.801v-1.299h1.399v1.199c0.4,0,0.801,0.1,1.101,0.2s0.6,0.2,0.8,0.3l-0.5,1.5c-0.2-0.1-0.4-0.1-0.6-0.199
		C276,262.1,275.7,262.1,275.4,262v2.601c0.301,0.101,0.601,0.3,0.9,0.399c0.3,0.201,0.5,0.4,0.8,0.601c0.2,0.2,0.4,0.5,0.601,0.8
		c0.199,0.301,0.199,0.7,0.199,1.1C277.8,268.3,277.6,269,277.2,269.4z"/>
</g>
<g opacity="0.4">
	<path fill="#E66B6B" d="M273.4,311.1c0,0.3,0.101,0.5,0.301,0.7c0.199,0.199,0.5,0.4,0.8,0.5V310c-0.4,0-0.7,0.101-0.9,0.301
		C273.5,310.5,273.4,310.8,273.4,311.1z"/>
	<path fill="#E66B6B" d="M274.8,314.5v2.4c0.4,0,0.7-0.199,0.9-0.4c0.199-0.199,0.3-0.5,0.3-0.799c0-0.301-0.101-0.5-0.4-0.701
		C275.4,314.8,275.1,314.6,274.8,314.5z"/>
	<path fill="#E66B6B" d="M274.6,305c-4.7,0-8.5,3.801-8.5,8.5c0,4.701,3.8,8.5,8.5,8.5s8.5-3.799,8.5-8.5
		C283.1,308.8,279.3,305,274.6,305z M277.2,317.5c-0.4,0.5-1,0.801-1.801,0.9v1.301H274V318.5c-0.5,0-1-0.1-1.4-0.199
		c-0.399-0.1-0.7-0.2-0.899-0.301l0.5-1.6c0.199,0.1,0.399,0.2,0.699,0.301c0.301,0.1,0.7,0.199,1.101,0.199v-2.8
		c-0.3-0.101-0.601-0.3-0.8-0.399c-0.301-0.201-0.5-0.301-0.801-0.601c-0.199-0.2-0.399-0.5-0.5-0.8c-0.1-0.301-0.199-0.7-0.199-1.1
		c0-0.801,0.199-1.4,0.6-1.801s1-0.699,1.7-0.8v-1.3h1.399v1.199c0.4,0,0.801,0.101,1.101,0.201c0.3,0.1,0.6,0.199,0.8,0.299
		l-0.5,1.5c-0.2-0.1-0.4-0.1-0.6-0.199c-0.2-0.1-0.5-0.1-0.801-0.2v2.601c0.301,0.1,0.601,0.299,0.9,0.399
		c0.3,0.2,0.5,0.399,0.8,0.601c0.2,0.199,0.4,0.5,0.601,0.799c0.199,0.301,0.199,0.701,0.199,1.101
		C277.8,316.4,277.6,317,277.2,317.5z"/>
</g>
<g opacity="0.4">
	<path fill="#80B2C9" d="M273.4,358.1c0,0.3,0.101,0.5,0.301,0.7c0.199,0.199,0.5,0.4,0.8,0.5V357c-0.4,0-0.7,0.101-0.9,0.301
		C273.5,357.5,273.4,357.8,273.4,358.1z"/>
	<path fill="#80B2C9" d="M274.8,361.5v2.4c0.4,0,0.7-0.199,0.9-0.4c0.199-0.199,0.3-0.5,0.3-0.799c0-0.301-0.101-0.5-0.4-0.701
		C275.4,361.8,275.1,361.6,274.8,361.5z"/>
	<path fill="#80B2C9" d="M274.6,352c-4.7,0-8.5,3.801-8.5,8.5c0,4.701,3.8,8.5,8.5,8.5s8.5-3.799,8.5-8.5
		C283.1,355.8,279.3,352,274.6,352z M277.2,364.5c-0.4,0.5-1,0.801-1.801,0.9v1.301H274V365.5c-0.5,0-1-0.1-1.4-0.199
		c-0.399-0.1-0.7-0.2-0.899-0.301l0.5-1.6c0.199,0.1,0.399,0.2,0.699,0.301c0.301,0.1,0.7,0.199,1.101,0.199v-2.8
		c-0.3-0.101-0.601-0.3-0.8-0.399c-0.301-0.201-0.5-0.301-0.801-0.601c-0.199-0.2-0.399-0.5-0.5-0.8c-0.1-0.301-0.199-0.7-0.199-1.1
		c0-0.801,0.199-1.4,0.6-1.801s1-0.699,1.7-0.8v-1.3h1.399v1.199c0.4,0,0.801,0.101,1.101,0.201c0.3,0.1,0.6,0.199,0.8,0.299
		l-0.5,1.5c-0.2-0.1-0.4-0.1-0.6-0.199c-0.2-0.1-0.5-0.1-0.801-0.2v2.601c0.301,0.1,0.601,0.299,0.9,0.399
		c0.3,0.2,0.5,0.399,0.8,0.601c0.2,0.199,0.4,0.5,0.601,0.799c0.199,0.301,0.199,0.701,0.199,1.101
		C277.8,363.4,277.6,364,277.2,364.5z"/>
</g>
<g>
	<polygon fill="#F7941E" points="119.1,237.8 119.1,233 138.4,214.1 139.8,214.1 158.8,233.4 158.8,237.8 	"/>
	<polygon fill="#F8A623" points="119.1,233.3 138.5,214.1 139.5,214.1 158.8,233.3 158.8,232.201 139.2,213 138.5,213 
		119.1,232.701 	"/>
	<g>
		<polygon fill="#F68C1C" points="127,237.8 127,237 128,237 128,236 127,236 127,235 128,235 128,234.1 127,234.1 127,233 128,233 
			128,232.1 127,232.1 127,231.1 128,231.1 128,230 127,230 127,228.9 128,228.9 128,227 128.9,227 128.9,226.1 130,226 130,227 
			128.9,227.3 128.9,228 130,227.9 130,229 129,229 129,230 130,230 130,231 129,231 129,232 130,232 130,233 129,233 129,234 
			130,234 130,235 129,235 129,236 130,236 130,236.9 129,236.9 129,237.8 		"/>
		<polygon fill="#F68C1C" points="147.1,237.8 147.1,237 148,237 148,236 147.1,236 147.1,235 148,235 148,234.1 147.1,234.1 
			147.1,233 148,233 148,232.1 147.1,232.1 147.1,231.1 148,231.1 148,230 147.1,230 147.1,228.9 148,228.9 148,227 149,227 
			149,226.1 150,226 150,227 149,227.3 148.9,228 150,227.9 150,229 149,229 149,230 150,230 150,231 149,231 149,232 150.1,232 
			150.1,233 149,233 149,234 150,234 150,235 149,235 149,236 150.1,236 150.1,236.9 149,236.9 149,237.8 		"/>
		<g>
			<polygon fill="#F68C1C" points="124.2,235 125.2,235 125.2,234 124.2,234 124.2,233 125.2,233 125.2,232.201 123.2,232.201 
				123.2,233 122.2,233 122.2,234.1 123.2,234.1 123.2,235 122.2,235 122.2,236 123.2,236 123.2,237 122.2,237 122.2,237.8 
				124.2,237.8 124.2,236.9 125.3,236.9 125.3,236 124.2,236 			"/>
		</g>
		<polygon fill="#F68C1C" points="134,231 135,231 135,230.1 135,230.1 135,230 134,230 134,229.1 135,229.1 135,229 135,229 
			135,227.9 134,228 134,227.3 134.7,227.1 135,227.1 135,226.1 135,226.1 135,226 134,226.1 134,225.1 135,225.1 135,224.1 
			134,224.1 134,223.1 135,223.1 135,222 133.9,222.1 133.9,221.4 135,221.1 135,220.1 133.9,220.2 133.9,221.1 133,221.1 133,223 
			132,223 132,224.1 133,224.1 133,225.2 132,225.2 132,226.2 133,226.2 133,227 133,227.1 132,227.1 132,228.201 133,228.201 
			133,228.9 132,228.9 132,229.201 132,230 132,230.1 133,230.1 133,231.1 132,231.1 132,231.201 132,231.9 132,232.1 133,232.1 
			133,233 132,233 132,234.1 133,234.1 133,235 132,235 132,236 133,236 133,237 132,237 132,237.8 134,237.8 134,236.9 135,236.9 
			135,236 134,236 134,235 135,235 135,234 134,234 134,233 135,233 135,232 134,232 134,231.9 		"/>
		<polygon fill="#F68C1C" points="139.2,227.2 140,227.2 140,226.2 140,226.2 140,226 139,226.1 139,225.3 140,225.3 140,224.2 
			139,224.2 139,223.2 140,223.2 140,222.2 139,222.2 139,221.2 140,221.2 140,220.2 139,220.2 139,219.2 140,219.2 140,218.2 
			138.9,218.2 138.9,217.6 140,217.2 140,216.3 138.9,216.3 138.9,217.3 138,217.3 138,219.2 137,219.2 137,220.2 138,220.2 
			138,221.4 137,221.4 137,222.4 138,222.4 138,223.3 137,223.3 137,224.3 138,224.3 138,225.3 137,225.3 137,226.2 138,226.2 
			138,227 138,227.3 137,227.3 137,228.1 138,228.1 138,228.9 137,228.9 137,230 138,230 138,231.1 137,231.1 137,232.1 138,232.1 
			138,233 137,233 137,234.1 138,234.1 138,235 137,235 137,236 138,236 138,237 137,237 137,237.8 139,237.8 139,236.9 140,236.9 
			140,236 139,236 139,235 140,235 140,234 139,234 139,233 140,233 140,232 139,232 139,231 140,231 140,230 139,230 139,229 
			140,229 140,227.9 139,228 139,227.3 		"/>
		<polygon fill="#F68C1C" points="144,231 145.1,231 145.1,230.1 145,230.1 145,230 144,230 144,229.1 145,229.1 145,229 145,229 
			145,227.9 144,228 144,227.3 144.7,227.1 145,227.1 145,226.1 145,226.1 145,226 144,226.1 144,225.1 145,225.1 145,224.1 
			144,224.1 144,223.1 145,223.1 145,222 143.9,222.1 144,221.4 145,221.1 145,220.1 144,220.2 144,221.1 143,221.1 143,223 
			142,223 142,224.1 143,224.1 143,225.2 142,225.2 142,226.2 143,226.2 143,227 143,227.1 142,227.1 142,228.201 143,228.201 
			143,228.9 142,228.9 142,229.201 142,230 142,230.1 143,230.1 143,231.1 142,231.1 142,231.201 142,231.9 142,232.1 143,232.1 
			143,233 142,233 142,234.1 143,234.1 143,235 142,235 142,236 143,236 143,237 142,237 142,237.8 144,237.8 144,236.9 
			145.1,236.9 145.1,236 144,236 144,235 145,235 145,234 144,234 144,233 145,233 145,232 144,232 144,231.9 		"/>
		<g>
			<polygon fill="#F68C1C" points="153.8,235 154.8,235 154.8,234 153.8,234 153.8,233 154.9,233 154.9,232.201 152.8,232.201 
				152.8,233 151.9,233 151.9,234.1 152.8,234.1 152.8,235 151.9,235 151.9,236 152.8,236 152.8,237 151.9,237 151.9,237.8 
				153.9,237.8 153.9,236.9 154.9,236.9 154.9,236 153.8,236 			"/>
		</g>
	</g>
</g>
<g>
	<g>
		
			<linearGradient id="SVGID_1_" gradientUnits="userSpaceOnUse" x1="16.2195" y1="319.6841" x2="16.2195" y2="335.2204" gradientTransform="matrix(1 0 0 -1 -0.02 454.3945)">
			<stop  offset="0" style="stop-color:#C8AA8E"/>
			<stop  offset="1" style="stop-color:#A1764F"/>
		</linearGradient>
		<path fill="url(#SVGID_1_)" d="M8.9,135.1c4.9,0,23.5-3.4,23.5-7.6S16,119.9,8.9,119.9C4,119.9,0,123.3,0,127.5S4,135.1,8.9,135.1
			z"/>
	</g>
	
		<linearGradient id="SVGID_2_" gradientUnits="userSpaceOnUse" x1="48.8206" y1="385.1685" x2="48.8206" y2="372.1555" gradientTransform="matrix(1 0 0 -1 -0.02 454.3945)">
		<stop  offset="0" style="stop-color:#666768"/>
		<stop  offset="1" style="stop-color:#49494B"/>
	</linearGradient>
	<path fill="url(#SVGID_2_)" d="M29.9,123.8L29.9,123.8L29.9,123.8c0.301,0,2.601-0.5,4.5-1.9c2-1.4,2.9-3.4,2.9-6.1
		c0-25.7,3.4-35.6,10.1-40.9c0.101-0.1,0.2-0.2,0.4-0.3c0.4-4,1.9-6.9,3.7-6.9h17.7v17.8H51.5C50.7,85.5,50,85,49.4,84
		C47.2,88.7,44.5,93.2,44.5,115.7c0,4.9-2,9-5.8,11.8c-3,2.2-7.4,3-8.601,3.2H30c0,0,0,0-0.101,0l0,0l0,0c-0.8,0-1.5-1.6-1.5-3.5
		C28.4,125.4,29.1,123.8,29.9,123.8z"/>
	
		<linearGradient id="SVGID_3_" gradientUnits="userSpaceOnUse" x1="97.9153" y1="353.6851" x2="97.9153" y2="398.7262" gradientTransform="matrix(1 0 0 -1 -0.02 454.3945)">
		<stop  offset="0" style="stop-color:#888A8D"/>
		<stop  offset="0.0457" style="stop-color:#8E9092"/>
		<stop  offset="0.3024" style="stop-color:#A9AAAC"/>
		<stop  offset="0.5298" style="stop-color:#B9BABC"/>
		<stop  offset="0.7029" style="stop-color:#BFC0C2"/>
		<stop  offset="0.8396" style="stop-color:#B9BABD"/>
		<stop  offset="1" style="stop-color:#ABACAF"/>
	</linearGradient>
	<path fill="url(#SVGID_3_)" stroke="#737476" stroke-miterlimit="10" d="M69.7,54.5l64.5,1.2c-2.4,5.7-4,14.4-4.2,24.1
		c-0.2,9.7,2.399,18.4,4.5,24.2l-65.7-1.2c-4.4-0.1-7.7-11-7.5-24.3C61.6,65.1,65.3,54.4,69.7,54.5z"/>
	<g>
		<path fill="#F59120" d="M163.5,116.5l3.3-1.4l8.4,19.6l-3.301,1.4c-2.8,1.2-7-2.2-9.3-7.6S160.7,117.7,163.5,116.5z"/>
		
			<ellipse transform="matrix(0.3948 0.9188 -0.9188 0.3948 218.2015 -81.4801)" fill="#FDDC0D" cx="170.947" cy="124.883" rx="10.7" ry="5.5"/>
	</g>
	
		<linearGradient id="SVGID_4_" gradientUnits="userSpaceOnUse" x1="141.7644" y1="405.8442" x2="143.0238" y2="342.2476" gradientTransform="matrix(1 0 0 -1 -0.02 454.3945)">
		<stop  offset="0" style="stop-color:#C6C8C8"/>
		<stop  offset="0.0149" style="stop-color:#CCCDCD"/>
		<stop  offset="0.0624" style="stop-color:#D7D9D9"/>
		<stop  offset="0.1291" style="stop-color:#DEDFDF"/>
		<stop  offset="0.3144" style="stop-color:#E0E1E1"/>
		<stop  offset="0.6362" style="stop-color:#DEDFDF"/>
		<stop  offset="0.7656" style="stop-color:#D7D8D8"/>
		<stop  offset="0.8604" style="stop-color:#CBCCCC"/>
		<stop  offset="0.9379" style="stop-color:#B9BBBB"/>
		<stop  offset="1" style="stop-color:#A5A7A7"/>
	</linearGradient>
	<path fill="url(#SVGID_4_)" stroke="#737476" stroke-miterlimit="10" d="M133.7,55c1.8-4.6,4.1-7.3,6.6-7.3H154
		c-5.7,0-10.3,14.1-10.3,31.5c0,17.4,4.6,31.5,10.3,31.5H140.4c-2.5,0-4.8-2.7-6.6-7.3c-2.3-5.8-3.7-14.5-3.7-24.2
		C130,69.5,131.5,60.8,133.7,55z"/>
	
		<linearGradient id="SVGID_5_" gradientUnits="userSpaceOnUse" x1="154.4431" y1="362.7251" x2="155.2827" y2="337.9585" gradientTransform="matrix(1 0 0 -1 -0.02 454.3945)">
		<stop  offset="0" style="stop-color:#F1F1F1"/>
		<stop  offset="1" style="stop-color:#CAC9CA"/>
	</linearGradient>
	<path fill="url(#SVGID_5_)" stroke="#737476" stroke-miterlimit="10" d="M154,47.7c1.8,0,3.5,1.4,5,3.9c3.2,5.4,5.3,15.7,5.3,27.6
		c0,11.9-2.2,22.2-5.3,27.6c-1.5,2.5-3.2,3.9-5,3.9c-5.7,0-10.3-14.1-10.3-31.5C143.7,61.8,148.3,47.7,154,47.7z"/>
	<path fill="#414141" d="M154,58.3c1.1,0,2.1,0.9,2.899,2.6C158.8,64.5,160,71.3,160,79.1c0,7.9-1.3,14.7-3.101,18.2
		C156,99,155,99.9,154,99.9c-3.3,0-6-9.3-6-20.8C147.9,67.7,150.6,58.3,154,58.3z"/>
	
		<linearGradient id="SVGID_6_" gradientUnits="userSpaceOnUse" x1="147.4646" y1="364.2612" x2="155.86" y2="357.9646" gradientTransform="matrix(1 0 0 -1 -0.02 454.3945)">
		<stop  offset="0" style="stop-color:#573A18"/>
		<stop  offset="0.5348" style="stop-color:#B29312"/>
		<stop  offset="1" style="stop-color:#FDDC0D"/>
	</linearGradient>
	<path fill="url(#SVGID_6_)" d="M149.1,91.4c0.7,3.1,1.601,5.6,2.601,7.1c0.699,0.6,1.5,1.1,2.3,1.5l0,0c4.3,2.5,8.3,3.1,9.8,1.3
		l2-2.6c-1.4,1.8-5.1,1.3-9.1-0.9c-1.101-0.6-2.301-1.3-3.4-2.2C151.6,94.2,150.2,92.8,149.1,91.4z"/>
	
		<linearGradient id="SVGID_7_" gradientUnits="userSpaceOnUse" x1="84.6888" y1="402.2583" x2="120.7889" y2="403.0978" gradientTransform="matrix(1 0 0 -1 -0.02 454.3945)">
		<stop  offset="0" style="stop-color:#E2E3E4"/>
		<stop  offset="1" style="stop-color:#D2D3D5"/>
	</linearGradient>
	<path fill="url(#SVGID_7_)" stroke="#747474" stroke-miterlimit="10" d="M72.5,57.3V34.2c6.3,1.1,15.8,1.9,26.399,1.9
		c10.601,0,20.101-0.7,26.4-1.9V55c0,2.2-24.2,15.3-38.4,15.3C72.5,70.3,72.5,59.5,72.5,57.3z"/>
	
		<linearGradient id="SVGID_8_" gradientUnits="userSpaceOnUse" x1="64.9197" y1="421.644" x2="132.9197" y2="421.644" gradientTransform="matrix(1 0 0 -1 -0.02 454.3945)">
		<stop  offset="0" style="stop-color:#C6C7C8"/>
		<stop  offset="0.2573" style="stop-color:#D4D5D6"/>
		<stop  offset="0.4851" style="stop-color:#DBDBDD"/>
		<stop  offset="0.709" style="stop-color:#D6D7D8"/>
		<stop  offset="0.9627" style="stop-color:#C9CACB"/>
		<stop  offset="1" style="stop-color:#C6C7C8"/>
	</linearGradient>
	<path fill="url(#SVGID_8_)" stroke="#747474" stroke-miterlimit="10" d="M72.8,38.5c-4.9-1.3-7.9-2.9-7.9-4.6v-9.5
		c0,4,15.2,7.2,34,7.2c18.801,0,34-3.2,34-7.2v9.5c0,1.8-3,3.4-7.899,4.6c-6.2,1.6-15.601,2.6-26.101,2.6S79.1,40.1,72.8,38.5z"/>
	<path fill="#F1F1F1" stroke="#737476" stroke-miterlimit="10" d="M64.9,24.3c0-1.3,1.5-2.5,4.2-3.5c5.8-2.2,17-3.7,29.8-3.7
		c12.801,0,24,1.5,29.801,3.7c2.699,1,4.199,2.2,4.199,3.5c0,4-15.199,7.2-34,7.2C80.1,31.5,64.9,28.3,64.9,24.3z"/>
	<path fill="#414141" d="M73.8,24.3c0-0.7,1.1-1.4,3.1-2c4.301-1.3,12.5-2.1,22-2.1s17.7,0.9,22,2.1c2,0.6,3.101,1.3,3.101,2
		c0,2.3-11.2,4.1-25.101,4.1C85.1,28.4,73.8,26.6,73.8,24.3z"/>
	<g>
		<path fill="#FDDC0D" d="M181.7,94.9l-3.101,1l-7.3-22.3l3.1-1c2.7-0.9,6.5,3.4,8.5,9.6C184.9,88.3,184.4,94,181.7,94.9z"/>
		
			<ellipse transform="matrix(-0.3092 -0.951 0.951 -0.3092 148.4229 277.2154)" fill="#F59120" cx="174.895" cy="84.701" rx="11.7" ry="5.1"/>
	</g>
	
		<linearGradient id="SVGID_9_" gradientUnits="userSpaceOnUse" x1="145.2244" y1="371.0747" x2="156.139" y2="363.0987" gradientTransform="matrix(1 0 0 -1 -0.02 454.3945)">
		<stop  offset="0" style="stop-color:#573A18"/>
		<stop  offset="0.5122" style="stop-color:#AA681C"/>
		<stop  offset="1" style="stop-color:#F59120"/>
	</linearGradient>
	<path fill="url(#SVGID_9_)" d="M148,83.6c0,0.5,0.1,1,0.1,1.5c0.2,2.3,0.5,4.4,0.9,6.3c1.1,1.4,2.5,2.8,4.2,4.1
		c1.1,0.9,2.3,1.6,3.399,2.2c4,2.2,7.7,2.6,9.101,0.9c1.699-2.3-1-7.3-6.2-11.2c0,0,0,0-0.101,0C155.1,84,150.4,82.5,148,83.6z"/>
	<g>
		<path fill="#FDDC0D" d="M196.5,102.4l0.7,3.2l-23,4.7l-0.7-3.2c-0.601-2.8,4.1-6.1,10.5-7.4C190.3,98.4,195.9,99.6,196.5,102.4z"
			/>
		
			<ellipse transform="matrix(-0.9794 0.202 -0.202 -0.9794 389.327 176.1655)" fill="#F59120" cx="185.675" cy="107.947" rx="11.7" ry="5.1"/>
	</g>
	<g>
		<path fill="#747474" d="M98.9,21.2c9,0,17.301,0.8,21.7,2.1c1.601,0.5,2.101,0.9,2.3,1c-1.1,1.1-9,3.1-24,3.1s-22.899-2-24-3.1
			c0.2-0.2,0.801-0.6,2.301-1C81.6,22,89.9,21.2,98.9,21.2 M98.9,20.2c-9.5,0-17.699,0.9-22,2.1c-2,0.6-3.1,1.3-3.1,2
			c0,2.3,11.2,4.1,25.1,4.1c13.9,0,25.101-1.8,25.101-4.1c0-0.7-1.101-1.4-3.101-2C116.6,21.1,108.4,20.2,98.9,20.2L98.9,20.2z"/>
	</g>
	<g>
		
			<linearGradient id="SVGID_10_" gradientUnits="userSpaceOnUse" x1="145.6263" y1="386.3784" x2="160.3183" y2="385.7488" gradientTransform="matrix(1 0 0 -1 -0.02 454.3945)">
			<stop  offset="0" style="stop-color:#573A18"/>
			<stop  offset="0.5348" style="stop-color:#B29312"/>
			<stop  offset="1" style="stop-color:#FDDC0D"/>
		</linearGradient>
		<path fill="url(#SVGID_10_)" d="M162.5,73.7c-0.9,0.6-1.7,1.1-2.601,1.5c-4.5,2.2-8.699,2.6-10,0.6l-1.699-2.6L148.1,73l0.101-0.1
			l10.5-6.8l9.1-5.9l1.8,2.8C171.1,65.4,168,70.1,162.5,73.7z"/>
		
			<linearGradient id="SVGID_11_" gradientUnits="userSpaceOnUse" x1="148.7674" y1="387.8403" x2="160.7312" y2="387.8403" gradientTransform="matrix(1 0 0 -1 -0.02 454.3945)">
			<stop  offset="0" style="stop-color:#573A18"/>
			<stop  offset="0.5122" style="stop-color:#AA681C"/>
			<stop  offset="1" style="stop-color:#F59120"/>
		</linearGradient>
		<path fill="url(#SVGID_11_)" d="M160.7,70.9c-0.4,0.2-0.7,0.5-1.101,0.7c-5,2.9-9.8,3.6-11.399,1.5c0-0.1-0.101-0.1-0.101-0.2
			l0.101-0.1c0.1-1.6,0.399-3.1,0.6-4.6c1.3-2,3.5-4.2,6.3-6c0.601-0.4,1.2-0.8,1.9-1.1c4.8-2.6,9.399-3.1,10.8-1
			C169.3,62.6,166.2,67.4,160.7,70.9z"/>
	</g>
	<path fill="#414141" d="M77,7.6v17.5c1.1,0.3,2.5,0.6,4.1,0.9V15h35.8v11c1.601-0.3,3-0.6,4.101-0.9V7.6c0-3.6-2.9-6.5-6.5-6.5h-31
		C79.9,1.1,77,4,77,7.6z M94.8,9.2c0-0.5,0.4-0.8,0.8-0.8h6.5c0.5,0,0.8,0.4,0.8,0.8c0,0.4-0.399,0.8-0.8,0.8h-6.5
		C95.2,10.1,94.8,9.7,94.8,9.2z"/>
	
		<linearGradient id="SVGID_12_" gradientUnits="userSpaceOnUse" x1="98.9207" y1="434.7026" x2="98.9207" y2="424.5759" gradientTransform="matrix(1 0 0 -1 -0.02 454.3945)">
		<stop  offset="0" style="stop-color:#8AC4EA"/>
		<stop  offset="0.2531" style="stop-color:#7DB1D4"/>
		<stop  offset="0.7798" style="stop-color:#5A819A"/>
		<stop  offset="0.8734" style="stop-color:#54788F"/>
	</linearGradient>
	<path fill="url(#SVGID_12_)" d="M81,14.9V26c4.6,0.7,10.899,1.2,17.899,1.2s13.4-0.4,17.9-1.2V14.9H81z"/>
</g>
<g>
	<path fill="#666666" d="M85.7,155.7l-2.101-3.1l-0.899,1v2.2h-1.5v-7h1.5v3.1l2.699-3.1H87.2l-2.601,2.8l2.9,4.2h-1.8V155.7z"/>
	<path fill="#666666" d="M94.5,152.2c0,2.3-1.3,3.7-3.4,3.7c-2.1,0-3.399-1.4-3.399-3.7c0-2.2,1.3-3.7,3.399-3.7
		C93.2,148.5,94.5,149.9,94.5,152.2z M89.2,152.2c0,1.6,0.699,2.5,1.899,2.5s1.9-0.9,1.9-2.5c0-1.5-0.7-2.5-1.9-2.5
		S89.2,150.6,89.2,152.2z"/>
	<path fill="#666666" d="M95.7,155.7v-7h1.5v2.7h2.899v-2.7h1.5v7h-1.5v-3H97.2v3H95.7z"/>
	<path fill="#666666" d="M106.7,155.7h-3.5v-7h3.699c1.301,0,2,0.6,2,1.7c0,0.8-0.3,1.2-1,1.5l0,0c0.801,0.2,1.301,0.9,1.301,1.8
		C109.2,154.9,108.3,155.7,106.7,155.7z M104.7,149.8v1.6h1.899c0.5,0,0.9-0.3,0.9-0.8s-0.3-0.8-0.9-0.8H104.7z M104.7,152.6v1.9h2
		c0.699,0,1-0.3,1-0.9s-0.4-1-1-1H104.7z"/>
	<path fill="#666666" d="M113.4,155.9c-2.1,0-3.3-1.6-3.3-3.6c0-2.2,1.4-3.8,3.3-3.8c2,0,3.2,1.5,3.2,3.9v0.2h-5
		c0,1.4,0.7,2.2,1.9,2.2c0.8,0,1.3-0.4,1.6-1.3h1.4C116.1,155,114.9,155.9,113.4,155.9z M113.4,149.6c-1,0-1.6,0.7-1.699,1.9h3.5
		C115,150.3,114.3,149.6,113.4,149.6z"/>
	<path fill="#666666" d="M119.1,149.6c0.5-0.8,1.3-1.1,2.2-1.1c1.9,0,3.1,1.5,3.1,3.7c0,2.2-1.199,3.6-3,3.6
		c-0.899,0-1.699-0.3-2.199-1.1v3.5h-1.5v-9.6h1.399V149.6z M119.1,152.2c0,1.5,0.7,2.4,1.9,2.4c1.1,0,1.8-0.9,1.8-2.4
		s-0.7-2.5-1.9-2.5C119.8,149.7,119.1,150.6,119.1,152.2z"/>
	<path fill="#666666" d="M128.5,149.9v5.8H127v-5.8h-2.2v-1.2h5.9v1.2H128.5z"/>
	<path fill="#666666" d="M131.6,155.7v-7h1.5v5.1l0,0l2.5-5.1h1.9v7H136v-5.1l0,0l-2.5,5.1H131.6z"/>
	<path fill="#666666" d="M140.7,149.6c0.5-0.8,1.3-1.1,2.199-1.1c1.9,0,3.101,1.5,3.101,3.7c0,2.2-1.2,3.6-3,3.6
		c-0.9,0-1.7-0.3-2.2-1.1v3.5h-1.5v-9.6h1.4V149.6z M140.7,152.2c0,1.5,0.699,2.4,1.899,2.4c1.101,0,1.8-0.9,1.8-2.4
		s-0.699-2.5-1.899-2.5C141.4,149.7,140.7,150.6,140.7,152.2z"/>
	<path fill="#666666" d="M150.5,155.5c-0.5,1.3-0.8,2.8-2.5,2.8c-0.3,0-0.5,0-1-0.1v-1.3c0.399,0.1,0.6,0.1,0.8,0.1
		c0.8,0,1-1,1.1-1.6l-2.6-6.8h1.6l1.801,5.1l1.699-5.1H153L150.5,155.5z"/>
	<path fill="#666666" d="M156.7,155.9c-2.101,0-3.301-1.6-3.301-3.6c0-2.2,1.4-3.8,3.301-3.8c2,0,3.199,1.5,3.199,3.9v0.2h-5
		c0,1.4,0.7,2.2,1.9,2.2c0.8,0,1.3-0.4,1.6-1.3h1.4C159.4,155,158.2,155.9,156.7,155.9z M156.6,149.6c-1,0-1.6,0.7-1.7,1.9h3.5
		C158.3,150.3,157.6,149.6,156.6,149.6z"/>
	<path fill="#666666" d="M161.2,155.7v-7h2l1.899,5.5l0,0l1.8-5.5h2v7H167.5V151l0,0l-1.601,4.6h-1.5l-1.6-4.6l0,0v4.6h-1.6V155.7z"
		/>
	<path fill="#666666" d="M178.5,155.7v-5.8H176.4l-0.1,3.1c-0.1,1.8-0.8,2.9-2,2.9c-0.3,0-0.7-0.1-0.9-0.1v-1.2
		c0.101,0.1,0.4,0.1,0.5,0.1c0.4,0,0.9-0.3,0.9-1.7l0.1-4.1h5v7H178.5V155.7z"/>
	<path fill="#666666" d="M190.7,152.2c0,2.3-1.301,3.7-3.2,3.7c-1.9,0-3.101-1.3-3.3-3.3H183v3.1h-1.5v-7h1.5v2.8h1.2
		c0.199-1.8,1.5-3,3.199-3C189.5,148.5,190.7,149.9,190.7,152.2z M185.7,152.2c0,1.6,0.699,2.5,1.8,2.5c1.1,0,1.7-0.9,1.7-2.5
		c0-1.5-0.7-2.5-1.801-2.5C186.3,149.7,185.7,150.6,185.7,152.2z"/>
	<path fill="#666666" d="M195.2,155.8c-1.4,0-2.5-0.6-3.101-1.9c-0.2-0.6-0.3-1.3-0.3-2.2c0-1.3,0.2-3.1,0.8-4.1
		c0.601-1,1.4-1.4,2.7-1.5c0.8-0.1,1.2,0,1.4-0.4h1.5c-0.301,1.7-1.5,1.6-3,1.7c-1.301,0.1-2,1.2-2.4,2.6l0,0
		c0.5-0.9,1.2-1.4,2.5-1.4c1.7,0,3.1,1.4,3.1,3.6C198.4,154.4,197.1,155.8,195.2,155.8z M195.1,149.9c-1.1,0-1.8,0.9-1.8,2.4
		c0,1.4,0.7,2.4,1.8,2.4c1.101,0,1.8-0.9,1.8-2.4S196.2,149.9,195.1,149.9z"/>
	<path fill="#666666" d="M202.9,155.7h-3.3v-7h1.5v2.5h1.8c1.5,0,2.301,0.9,2.301,2.2C205.2,154.8,204.4,155.7,202.9,155.7z
		 M202.7,152.4H201.1v2h1.601c0.699,0,1-0.4,1-1S203.4,152.4,202.7,152.4z M207.6,148.7v7h-1.5v-7H207.6z"/>
	<path fill="#666666" d="M212.1,155.9c-2.1,0-3.3-1.6-3.3-3.6c0-2.2,1.4-3.8,3.3-3.8c2,0,3.2,1.5,3.2,3.9v0.2h-5
		c0,1.4,0.7,2.2,1.9,2.2c0.8,0,1.3-0.4,1.6-1.3h1.4C214.8,155,213.6,155.9,212.1,155.9z M212,149.6c-1,0-1.601,0.7-1.7,1.9h3.5
		C213.6,150.3,213,149.6,212,149.6z"/>
	<path fill="#666666" d="M225.5,157.9v-2.2h-4.8v2.2h-1.4v-3.4h0.8c0.5-1.2,0.8-2.7,0.8-5v-0.8H226v5.8h0.899v3.4H225.5z
		 M224.5,149.9h-2.2v0.5c0,1.6-0.4,3.4-0.7,4.1h2.9V149.9z"/>
	<path fill="#666666" d="M230.8,155.9c-2.1,0-3.3-1.6-3.3-3.6c0-2.2,1.399-3.8,3.3-3.8c2,0,3.2,1.5,3.2,3.9v0.2h-5
		c0,1.4,0.7,2.2,1.899,2.2c0.801,0,1.301-0.4,1.601-1.3h1.399C233.5,155,232.3,155.9,230.8,155.9z M230.7,149.6
		c-1,0-1.601,0.7-1.7,1.9h3.5C232.3,150.3,231.7,149.6,230.7,149.6z"/>
	<path fill="#666666" d="M238.8,155.7h-3.5v-7h3.7c1.3,0,2,0.6,2,1.7c0,0.8-0.3,1.2-1,1.5l0,0c0.8,0.2,1.3,0.9,1.3,1.8
		C241.3,154.9,240.4,155.7,238.8,155.7z M236.8,149.8v1.6h1.9c0.5,0,0.899-0.3,0.899-0.8s-0.3-0.8-0.899-0.8H236.8z M236.8,152.6
		v1.9h2c0.7,0,1-0.3,1-0.9s-0.4-1-1-1H236.8z"/>
	<path fill="#666666" d="M245.4,148.5c1.601,0,2.801,0.6,2.801,2.1v3.5c0,0.4,0.1,0.5,0.399,0.5c0.101,0,0.2,0,0.3,0v1.1
		c-0.5,0.1-0.699,0.1-1,0.1c-0.6,0-1-0.2-1.1-0.8c-0.6,0.6-1.5,0.8-2.4,0.8c-1.399,0-2.3-0.8-2.3-2.1c0-1.9,1.7-2,3-2.2
		c1-0.1,1.3-0.2,1.5-0.4c0.101-0.1,0.101-0.2,0.101-0.5c0-0.7-0.4-1.1-1.4-1.1s-1.4,0.3-1.5,1.2h-1.4
		C242.7,149.1,243.8,148.5,245.4,148.5z M245.2,152.5c-0.7,0.1-1.5,0.2-1.5,1.2c0,0.7,0.399,1,1.199,1c0.601,0,1.2-0.2,1.5-0.6
		c0.301-0.3,0.301-0.8,0.301-1.2v-0.8C246.3,152.4,245.7,152.5,245.2,152.5z"/>
	<path fill="#666666" d="M250.1,155.7v-7h1.5v5.1l0,0l2.5-5.1h1.9v7h-1.5v-5.1l0,0l-2.5,5.1H250.1z M253,147.7
		c-1.3,0-2-0.6-2.101-1.9h0.801c0.199,0.7,0.6,1,1.399,1s1.2-0.3,1.4-1h0.8C255,147.1,254.3,147.7,253,147.7z"/>
	<path fill="#666666" d="M260.6,155.8c-2,0-3.3-1.5-3.3-3.6c0-2.3,1.3-3.8,3.3-3.8c1.7,0,2.8,0.9,3,2.6h-1.5
		c-0.2-0.9-0.7-1.4-1.5-1.4c-1.1,0-1.899,0.9-1.899,2.5c0,1.5,0.699,2.5,1.8,2.5c0.899,0,1.5-0.6,1.6-1.6h1.5
		C263.4,154.7,262.2,155.8,260.6,155.8z"/>
	<path fill="#666666" d="M268,155.7h-3.3v-7h1.5v2.5h1.8c1.5,0,2.3,0.9,2.3,2.2C270.3,154.8,269.5,155.7,268,155.7z M267.8,152.4
		h-1.6v2h1.6c0.7,0,1-0.4,1-1S268.5,152.4,267.8,152.4z M272.7,148.7v7h-1.5v-7H272.7z"/>
</g>
<g>
	<path fill="#FFFFFF" d="M124.2,335.1c0,0-1.9,1.101,1.399,1.5c3.9,0.399,5.9,0.399,10.3-0.399c0,0,1.101,0.699,2.7,1.299
		C128.8,341.6,116.5,337.201,124.2,335.1z"/>
	<path fill="#FFFFFF" d="M123,329.701c0,0-2.101,1.6,1.1,1.899c4.2,0.399,7.5,0.5,13.3-0.601c0,0,0.801,0.801,2,1.201
		C127.6,335.6,114.6,332.4,123,329.701z"/>
	<path fill="#FFFFFF" d="M133,320.4c2.399,2.801-0.601,5.2-0.601,5.2s6.101-3.101,3.301-7.101c-2.601-3.699-4.601-5.5,6.199-11.799
		C141.9,306.8,124.9,311.1,133,320.4z"/>
	<path fill="#FFFFFF" d="M145.8,339.1c0,0,1.4,1.2-1.5,2.101c-5.6,1.699-23.4,2.199-28.3,0.1c-1.8-0.801,1.6-1.801,2.6-2.1
		C119.7,339,120.3,339,120.3,339c-2-1.399-12.7,2.701-5.5,3.9C134.7,346.1,151,341.4,145.8,339.1z"/>
	<path fill="#FFFFFF" d="M125.1,324c0,0-9,2.101-3.2,2.9c2.5,0.301,7.4,0.301,11.9-0.1c3.7-0.301,7.5-1,7.5-1S140,326.4,139,327
		c-9.2,2.4-26.9,1.301-21.8-1.199C121.6,323.8,125.1,324,125.1,324z"/>
	<path fill="#FFFFFF" d="M141.3,333.1c9.3-4.8,5-9.5,2-8.899c-0.7,0.199-1.1,0.299-1.1,0.299s0.3-0.399,0.8-0.6
		c6-2.1,10.5,6.2-1.9,9.4C141.1,333.3,141.2,333.201,141.3,333.1z"/>
	<path fill="#FFFFFF" d="M135.6,296.701c0,0,5.2,5.199-4.899,13.1c-8.101,6.4-1.801,10,0,14.1c-4.7-4.199-8.2-8-5.801-11.5
		C128.3,307.4,137.7,304.9,135.6,296.701z"/>
	<path fill="#FFFFFF" d="M126,346.201c8.899,0.6,22.7-0.301,23-4.601c0,0-0.601,1.601-7.4,2.899c-7.6,1.4-17.1,1.301-22.6,0.301
		C119,344.9,120.1,345.8,126,346.201z"/>
</g>
<g>
	<path fill="#FFFFFF" d="M86.1,325.9c-1.1-5.6,4.2-8.8,4.2-8.8s-2.1-3-5.5-3.7c-3.5-0.8-5.2,0.2-6.9,0.9C76.2,315,75.3,315,75.3,315
		c-2.5,0-4.3-2.6-9.1-1.399c-3.301,0.8-6.7,4.601-7.4,9.101c-0.6,4.5,0.7,10.299,3.3,14.699c2.601,4.5,5.2,6.2,7.101,6.2
		c1.899,0.101,3.8-1.3,6-1.7c2.3-0.3,3.6,0.801,5.899,1.4c2.2,0.6,3,0,5.5-2.1c2.5-2.201,4.9-8.4,4.9-8.4S87.2,331.5,86.1,325.9z"/>
	<path fill="#FFFFFF" d="M81.2,309.701c2.5-2.5,1.6-6.4,1.6-6.4s-3.4,0.6-5.8,3c-2.3,2.4-1.9,6.199-1.9,6.199
		S78.8,312.201,81.2,309.701z"/>
</g>
<g>
	
		<image overflow="visible" opacity="0.5" enable-background="new    " width="72" height="70" xlink:href="77B45793.png"  transform="matrix(0.9861 0 0 1 36.9973 213.999)">
	</image>
	<g>
		
			<rect x="58.492" y="235.309" transform="matrix(-0.7071 -0.7071 0.7071 -0.7071 -52.6314 476.6191)" fill="#FFFFFF" width="27.799" height="27.8"/>
	</g>
</g>
<rect x="167.4" y="395.5" fill="rgba(0,0,0,0)" stroke="#999999" stroke-miterlimit="10" width="17" height="11.9"/>
<polygon fill="#B3B3B3" points="184.4,400 175.9,400 175.9,396 172,396 172,400 167.8,400 167.8,402 172,402 172,407.9 175.9,407.9 
	175.9,402 184.4,402 "/>
<rect x="216.5" y="392.8" fill="#FFFFFF" width="14.7" height="4.4"/>
<rect x="216.5" y="401.9" fill="#D62B1D" width="14.7" height="5"/>
<rect x="216.5" y="397.201" fill="#0038A8" width="14.7" height="4.799"/>
<g>
	<g>
		<g>
			<g>
				<rect x="168.2" y="425.9" fill="#FFFFFF" width="15.8" height="12.6"/>
				<rect x="168.2" y="425.9" fill="#DC0000" width="15.8" height="1.1"/>
				<rect x="168.2" y="429.099" fill="#DC0000" width="15.8" height="1.102"/>
				<rect x="168.2" y="431.201" fill="#DC0000" width="15.8" height="1.1"/>
				<rect x="168.2" y="433.3" fill="#DC0000" width="15.8" height="1.1"/>
				<rect x="168.2" y="435.4" fill="#DC0000" width="15.8" height="1.1"/>
				<rect x="168.2" y="437.5" fill="#DC0000" width="15.8" height="1.1"/>
			</g>
			<rect x="168.2" y="425.9" fill="#005694" width="0.899" height="7.4"/>
			<rect x="168.2" y="425.9" fill="#005694" width="8.1" height="1"/>
		</g>
		<g>
			<g>
				<rect x="169" y="426.9" fill="#ABC6E5" width="1.1" height="1.1"/>
			</g>
			<g>
				<g>
					<rect x="170.1" y="426.9" fill="#FFFFFF" width="1.101" height="1.1"/>
				</g>
				<g>
					<rect x="171.1" y="426.9" fill="#A2C1E1" width="1.101" height="1.1"/>
				</g>
			</g>
			<g>
				<g>
					<rect x="172.2" y="426.9" fill="#FFFFFF" width="1.1" height="1.1"/>
				</g>
				<g>
					<rect x="173.3" y="426.9" fill="#A2C1E1" width="1.1" height="1.1"/>
				</g>
				<g>
					<g>
						<rect x="174.3" y="426.9" fill="#FFFFFF" width="1.1" height="1.1"/>
					</g>
					<g>
						<rect x="175.4" y="426.9" fill="#A2C1E1" width="1.101" height="1.1"/>
					</g>
				</g>
			</g>
			<g>
				<g>
					<rect x="169" y="428" fill="#FFFFFF" width="1.1" height="1.1"/>
				</g>
				<g>
					<g>
						<rect x="170.1" y="428" fill="#0043A7" width="1.101" height="1.1"/>
					</g>
					<g>
						<rect x="171.1" y="428" fill="#CDDEF0" width="1.101" height="1.1"/>
					</g>
				</g>
				<g>
					<g>
						<rect x="172.2" y="428" fill="#0043A7" width="1.1" height="1.1"/>
					</g>
					<g>
						<rect x="173.3" y="428" fill="#CDDEF0" width="1.1" height="1.1"/>
					</g>
					<g>
						<g>
							<rect x="174.3" y="428" fill="#0043A7" width="1.1" height="1.1"/>
						</g>
						<g>
							<rect x="175.4" y="428" fill="#CDDEF0" width="1.101" height="1.1"/>
						</g>
					</g>
				</g>
			</g>
			<g>
				<g>
					<rect x="169" y="429.099" fill="#80B1E2" width="1.1" height="1.102"/>
				</g>
				<g>
					<g>
						<rect x="170.1" y="429.099" fill="#CDE1F3" width="1.101" height="1.102"/>
					</g>
					<g>
						<rect x="171.1" y="429.099" fill="#A2C1E1" width="1.101" height="1.102"/>
					</g>
				</g>
				<g>
					<g>
						<rect x="172.2" y="429.099" fill="#D2E4F3" width="1.1" height="1.102"/>
					</g>
					<g>
						<rect x="173.3" y="429.099" fill="#A2C1E1" width="1.1" height="1.102"/>
					</g>
					<g>
						<g>
							<rect x="174.3" y="429.099" fill="#D2E4F3" width="1.1" height="1.102"/>
						</g>
						<g>
							<rect x="175.4" y="429.099" fill="#A2C1E1" width="1.101" height="1.102"/>
						</g>
					</g>
				</g>
			</g>
			<g>
				<g>
					<rect x="169" y="430.099" fill="#FEFEFF" width="1.1" height="1.102"/>
				</g>
				<g>
					<g>
						<rect x="170.1" y="430.099" fill="#005DCD" width="1.101" height="1.102"/>
					</g>
					<g>
						<rect x="171.1" y="430.099" fill="#D3E5F5" width="1.101" height="1.102"/>
					</g>
				</g>
				<g>
					<g>
						<rect x="172.2" y="430.099" fill="#005DCD" width="1.1" height="1.102"/>
					</g>
					<g>
						<rect x="173.3" y="430.099" fill="#D3E5F5" width="1.1" height="1.102"/>
					</g>
					<g>
						<g>
							<rect x="174.3" y="430.099" fill="#005DCD" width="1.1" height="1.102"/>
						</g>
						<g>
							<rect x="175.4" y="430.099" fill="#D3E5F5" width="1.101" height="1.102"/>
						</g>
					</g>
				</g>
				<g>
					<g>
						<rect x="169" y="431.201" fill="#56A4E8" width="1.1" height="1.1"/>
					</g>
					<g>
						<g>
							<rect x="170.1" y="431.201" fill="#D1E9FA" width="1.101" height="1.1"/>
						</g>
						<g>
							<rect x="171.1" y="431.201" fill="#005DCD" width="1.101" height="1.1"/>
						</g>
					</g>
					<g>
						<g>
							<rect x="172.2" y="431.201" fill="#D1E9FA" width="1.1" height="1.1"/>
						</g>
						<g>
							<rect x="173.3" y="431.201" fill="#005DCD" width="1.1" height="1.1"/>
						</g>
						<g>
							<g>
								<rect x="174.3" y="431.201" fill="#D1E9FA" width="1.1" height="1.1"/>
							</g>
							<g>
								<rect x="175.4" y="431.201" fill="#005DCD" width="1.101" height="1.1"/>
							</g>
						</g>
					</g>
				</g>
				<g>
					<g>
						<rect x="169" y="432.3" fill="#E1FFFF" width="1.1" height="1.1"/>
					</g>
					<g>
						<g>
							<rect x="170.1" y="432.3" fill="#006BE6" width="1.101" height="1.1"/>
						</g>
						<g>
							<rect x="171.1" y="432.3" fill="#C2F0FF" width="1.101" height="1.1"/>
						</g>
					</g>
					<g>
						<g>
							<rect x="172.2" y="432.3" fill="#006BE6" width="1.1" height="1.1"/>
						</g>
						<g>
							<rect x="173.3" y="432.3" fill="#C2F0FF" width="1.1" height="1.1"/>
						</g>
						<g>
							<g>
								<rect x="174.3" y="432.3" fill="#006BE6" width="1.1" height="1.1"/>
							</g>
							<g>
								<rect x="175.4" y="432.3" fill="#C2F0FF" width="1.101" height="1.1"/>
							</g>
						</g>
					</g>
				</g>
			</g>
		</g>
	</g>
	<rect x="176.5" y="426.9" fill="#FFAEA7" width="7.5" height="1.1"/>
</g>
<g>
	
		<linearGradient id="SVGID_13_" gradientUnits="userSpaceOnUse" x1="89.6951" y1="336.3579" x2="90.0644" y2="325.282" gradientTransform="matrix(1 0 0 -1 -0.02 454.3945)">
		<stop  offset="0" style="stop-color:#AC1F24"/>
		<stop  offset="1" style="stop-color:#D62028"/>
	</linearGradient>
	<path fill="url(#SVGID_13_)" d="M92.9,136.3l-2.8-11.1c-0.3-1-0.5-2.5-0.5-2.5h-0.1c0,0-0.2,1.4-0.5,2.5l-2.7,11.1h-5.1l-5.4-20.5
		h5.1l2.5,12.2c0.2,0.9,0.4,2.5,0.4,2.5h0.1c0,0,0.301-1.6,0.5-2.5l3-12.2h4.4l3.1,12.2c0.2,0.9,0.5,2.5,0.5,2.5H95.5
		c0,0,0.2-1.5,0.399-2.5l2.4-12.2h5.1L98,136.3H92.9z"/>
	
		<linearGradient id="SVGID_14_" gradientUnits="userSpaceOnUse" x1="112.2322" y1="337.1099" x2="112.6014" y2="326.0341" gradientTransform="matrix(1 0 0 -1 -0.02 454.3945)">
		<stop  offset="0" style="stop-color:#AC1F24"/>
		<stop  offset="1" style="stop-color:#D62028"/>
	</linearGradient>
	<path fill="url(#SVGID_14_)" d="M115.9,136.3c-0.3-0.5-0.5-1.4-0.6-2.2h-0.1c-0.9,1.3-2.4,2.5-4.7,2.5c-3.7,0-5.5-2.7-5.5-6.1
		c0-3.8,3-6.6,10.2-6.6v-0.8c0-2.2-0.801-3.7-2.801-3.7c-1.699,0-3,1.4-3.6,2.8L106,119c2.1-2.5,4.7-3.6,7.2-3.6
		c3.6,0,6.699,2.4,6.699,8.3v9.5c0,1.1,0.101,2.1,0.601,3H115.9V136.3z M115.2,127.3c-3.2-0.1-5.7,0.9-5.7,3.3
		c0,1.6,0.899,2.3,2,2.3c2.3,0,3.7-2,3.7-4.3V127.3z"/>
	
		<linearGradient id="SVGID_15_" gradientUnits="userSpaceOnUse" x1="132.1678" y1="337.7749" x2="132.537" y2="326.6991" gradientTransform="matrix(1 0 0 -1 -0.02 454.3945)">
		<stop  offset="0" style="stop-color:#AC1F24"/>
		<stop  offset="1" style="stop-color:#D62028"/>
	</linearGradient>
	<path fill="url(#SVGID_15_)" d="M125,143.5v-24.8c0-0.7,0-2-0.4-2.9h4.101c0,0,0.3,0.9,0.399,1.8h0.101c1-1.2,2.6-2.2,4.5-2.2
		c4.399,0,6.8,4.4,6.8,10.8c0,6.3-2.2,10.5-6.5,10.5c-2,0-3.4-0.8-4.3-1.7l0,0c0,0,0,1,0,1.9v6.7H125V143.5z M129.8,129.1
		c0,1.7,0.8,3.4,2.8,3.4c2.8,0,3.2-3.1,3.2-6.3c0-3-0.4-6.4-3.2-6.4c-1.899,0-2.8,1.7-2.8,3.4V129.1z"/>
</g>
<g>
	
		<linearGradient id="SVGID_16_" gradientUnits="userSpaceOnUse" x1="150.7268" y1="336.2808" x2="151.096" y2="317.084" gradientTransform="matrix(1 0 0 -1 -0.02 454.3945)">
		<stop  offset="0" style="stop-color:#808283"/>
		<stop  offset="1" style="stop-color:#959799"/>
	</linearGradient>
	<path fill="url(#SVGID_16_)" d="M158.2,132.4c-1.301,2.7-3.4,4.2-6.801,4.2c-5.199,0-8-4-8-10.5s3-10.7,8-10.7
		c3.4,0,5.5,1.6,6.801,4.2l-3.7,3.1c-0.3-1.7-1.3-2.9-2.9-2.9c-2.899,0-3.399,3-3.399,6.3c0,3.1,0.399,6.2,3.399,6.2
		c1.7,0,2.5-1.3,3-2.9L158.2,132.4z"/>
	
		<linearGradient id="SVGID_17_" gradientUnits="userSpaceOnUse" x1="192.9348" y1="337.0942" x2="193.3041" y2="317.8953" gradientTransform="matrix(1 0 0 -1 -0.02 454.3945)">
		<stop  offset="0" style="stop-color:#808283"/>
		<stop  offset="1" style="stop-color:#959799"/>
	</linearGradient>
	<path fill="url(#SVGID_17_)" d="M200.4,136.3v-13.9c0-2-1-2.8-2.3-2.8c-1.8,0-2.6,1.7-2.6,3.6v13.2h-4.7v-13.9c0-2-1-2.8-2.3-2.8
		c-1.8,0-2.601,1.7-2.601,3.6v13.2H181.2v-17.6c0-0.7,0-2-0.4-2.9h4.1c0,0,0.4,1,0.5,2.2h0.101c1.2-1.7,2.6-2.6,4.6-2.6
		c2.4,0,4.101,1.1,4.7,2.9h0.1c1.2-2,2.601-2.9,4.9-2.9c4.2,0,5.3,2.9,5.3,6.8v14.1h-4.7V136.3z"/>
	
		<linearGradient id="SVGID_18_" gradientUnits="userSpaceOnUse" x1="217.2952" y1="337.561" x2="217.6644" y2="318.363" gradientTransform="matrix(1 0 0 -1 -0.02 454.3945)">
		<stop  offset="0" style="stop-color:#808283"/>
		<stop  offset="1" style="stop-color:#959799"/>
	</linearGradient>
	<path fill="url(#SVGID_18_)" d="M209.6,136.3c0.2-0.9,0.3-2,0.3-3v-23.4h4.7v5.1c0,0.9,0,2.2,0,2.2h0.101
		c0.899-0.9,2.3-1.7,4.3-1.7c4.2,0,6.5,4.2,6.5,10.5s-2.4,10.8-6.8,10.8c-1.801,0-3.5-1-4.4-2.2h-0.1c-0.101,0.5-0.301,1.2-0.5,1.8
		H209.6V136.3z M214.6,128.9c0,1.7,0.9,3.4,2.8,3.4c2.801,0,3.2-3.4,3.2-6.4c0-3.2-0.399-6.3-3.2-6.3c-1.899,0-2.8,1.6-2.8,3.2
		V128.9z"/>
	
		<linearGradient id="SVGID_19_" gradientUnits="userSpaceOnUse" x1="231.9778" y1="337.8433" x2="232.347" y2="318.6456" gradientTransform="matrix(1 0 0 -1 -0.02 454.3945)">
		<stop  offset="0" style="stop-color:#808283"/>
		<stop  offset="1" style="stop-color:#959799"/>
	</linearGradient>
	<path fill="url(#SVGID_19_)" d="M229,111c0-1.6,1.3-2.8,2.899-2.8c1.601,0,2.801,1.3,2.801,2.8c0,1.6-1.301,2.9-2.801,2.9
		C230.3,113.8,229,112.5,229,111z M229.5,136.3v-20.5h4.7v20.5H229.5z"/>
	
		<linearGradient id="SVGID_20_" gradientUnits="userSpaceOnUse" x1="247.0569" y1="338.1333" x2="247.4261" y2="318.9348" gradientTransform="matrix(1 0 0 -1 -0.02 454.3945)">
		<stop  offset="0" style="stop-color:#808283"/>
		<stop  offset="1" style="stop-color:#959799"/>
	</linearGradient>
	<path fill="url(#SVGID_20_)" d="M250.3,136.3v-12.9c0-2-0.8-3.9-2.9-3.9c-2,0-3.1,1.6-3.1,3.6v13.2h-4.7v-17.6c0-0.7,0-2-0.399-2.9
		h4.1c0,0,0.4,1,0.5,2.2h0.1c1.2-1.7,2.801-2.6,5-2.6c4.5,0,6.101,3.8,6.101,8v12.9H250.3z"/>
	
		<linearGradient id="SVGID_21_" gradientUnits="userSpaceOnUse" x1="266.6233" y1="338.5083" x2="266.9925" y2="319.3112" gradientTransform="matrix(1 0 0 -1 -0.02 454.3945)">
		<stop  offset="0" style="stop-color:#808283"/>
		<stop  offset="1" style="stop-color:#959799"/>
	</linearGradient>
	<path fill="url(#SVGID_21_)" d="M263.7,127.5c0.199,2.8,1.1,5,3.899,5c1.601,0,2.7-1.1,3.5-2.8l3.3,2.8
		c-1.699,2.6-3.8,4.1-7.399,4.1c-5.2,0-7.9-4-7.9-10.5s2.9-10.7,7.9-10.7c6.399,0,7.5,5.5,7.5,10.9v1.2H263.7z M270,124.1
		c-0.101-2.6-0.8-5-2.8-5c-2.301,0-3.2,2.4-3.4,5H270z"/>
</g>
<rect x="266.4" y="395.5" fill="#FFFFFF" stroke="#D9E8EF" stroke-miterlimit="10" width="17" height="11.9"/>
<polygon fill="#D9E8EF" points="283.4,400 274.9,400 274.9,396 271,396 271,400 266.8,400 266.8,402 271,402 271,407.9 274.9,407.9 
	274.9,402 283.4,402 "/>
<rect x="315.4" y="395.5" fill="#FFFFFF" stroke="#FFC4C4" stroke-miterlimit="10" width="17" height="11.9"/>
<polygon fill="#FFC4C4" points="332.4,400 323.9,400 323.9,396 320,396 320,400 315.8,400 315.8,402 320,402 320,407.9 323.9,407.9 
	323.9,402 332.4,402 "/>
</svg>
