<?xml version="1.0" encoding="utf-8"?>
<!-- Generator: Adobe Illustrator 19.0.0, SVG Export Plug-In . SVG Version: 6.00 Build 0)  -->
<svg version="1.1" id="Layer_1" xmlns="http://www.w3.org/2000/svg" xmlns:xlink="http://www.w3.org/1999/xlink" x="0px" y="0px"
	 viewBox="-269 374 72 46" style="enable-background:new -269 374 72 46;" xml:space="preserve">
<style type="text/css">
	.st0{clip-path:url(#SVGID_2_);}
	.st1{fill:#007A3E;}
	.st2{fill:none;stroke:#000000;stroke-width:0.24924;}
	.st3{fill:#FFFFFF;}
	.st4{fill:#E40520;}
</style>
<g>
	<defs>
		<path id="SVGID_1_" d="M-203.95834,420h-58.08331c-3.84299,0-6.95834-3.0965-6.95834-6.9162v-32.22049
			c0-3.8197,3.11536-6.9162,6.95834-6.9162h58.08331c3.84299,0,6.95834,3.0965,6.95834,6.9162v32.22049
			C-197,416.9035-200.11536,420-203.95834,420z"/>
	</defs>
	<clipPath id="SVGID_2_">
		<use xlink:href="#SVGID_1_"  style="overflow:visible;"/>
	</clipPath>
	<g class="st0">
		<g>
			<g>
				<polygon class="st1" points="-175.81958,420.4032 -175.81958,373.54391 -269.43042,373.54391 -269.43042,420.4032 				"/>
			</g>
		</g>
		<g>
			<g>
				<path d="M-175.69434,420.52707h-93.86133v-47.10718h93.86133V420.52707z M-269.30566,420.27856h93.36133v-46.6102h-93.36133
					V420.27856z"/>
			</g>
		</g>
		<g>
			<g>
				<path class="st1" d="M-222.625,396.97354"/>
			</g>
		</g>
		<g>
			<g>
				<path class="st2" d="M-222.625,396.97354"/>
			</g>
		</g>
		<g>
			<g>
				<polygon class="st3" points="-175.81958,407.01523 -269.43042,407.01523 -269.43042,413.7092 -175.81958,413.7092 				"/>
			</g>
		</g>
		<g>
			<g>
				<path d="M-175.69434,413.83344h-93.86133v-6.94208h93.86133V413.83344z M-269.30566,413.58496h93.36133v-6.44513h-93.36133
					V413.58496z"/>
			</g>
		</g>
		<g>
			<g>
				<polygon class="st3" points="-175.81958,393.62622 -269.43042,393.62622 -269.43042,400.32053 -175.81958,400.32053 				"/>
			</g>
		</g>
		<g>
			<g>
				<path d="M-175.69434,400.44525h-93.86133v-6.94308h93.86133V400.44525z M-269.30566,400.19678h93.36133v-6.44611h-93.36133
					V400.19678z"/>
			</g>
		</g>
		<g>
			<g>
				<polygon class="st3" points="-269.43042,380.23788 -175.81958,380.23788 -175.81958,386.93185 -269.43042,386.93185 				"/>
			</g>
		</g>
		<g>
			<g>
				<path d="M-175.69434,387.05609h-93.86133v-6.9426h93.86133V387.05609z M-269.30566,386.80759h93.36133v-6.44562h-93.36133
					V386.80759z"/>
			</g>
		</g>
		<g>
			<g>
				<polygon class="st4" points="-241.96352,393.62622 -241.96352,373.54391 -269.43042,373.54391 -269.43042,393.62622 				"/>
			</g>
		</g>
		<g>
			<g>
				<path d="M-241.83838,393.75067h-27.71729v-20.33078h27.71729V393.75067z M-269.30566,393.50217h27.21729v-19.8338h-27.21729
					V393.50217z"/>
			</g>
		</g>
		<g>
			<g>
				<path class="st3" d="M-253.9874,390.18375c0.02023-0.64877,0.47485-1.12201,0.89273-1.54034
					c0.41791-0.41837,0.55087-0.79874,0.70282-1.46432c0.15196-0.66559,0.05699-1.6925,0.03801-2.24402
					c-0.019-0.55148,0.07596-0.8367,0.43686-1.48331c0.36092-0.64658-0.37988-0.6846-0.91174-0.39935
					s-1.02573,1.29315-1.13971,1.7876s-0.3989,0.1521-0.3799-0.19019c0.0274-0.49405-0.04695-2.72919-0.15196-3.28995
					c-0.11397-0.60852-0.28493-0.95084-0.60785-0.81769c-0.32292,0.13312-0.20894,0.64655-0.18996,1.04593
					c0.019,0.39935-0.15262,1.84454-0.28494,2.73843c-0.07597,0.51346-0.34189,0.24722-0.36087-0.03802
					c-0.01901-0.28525,0.03796-1.35022,0.09497-1.61646c0.05696-0.26624,0.11398-0.83673,0.09497-1.12201
					c-0.01898-0.28525-0.03801-0.5705-0.01898-1.10297c0.01898-0.5325-0.17096-0.60855-0.53186-0.62756
					c-0.3609-0.01904-0.39893,0.49445-0.34192,0.77969s0.07596,1.67349-0.01898,2.18695
					c-0.09497,0.51346-0.07599,1.2171-0.09497,1.61646c-0.01901,0.39938-0.3609,0.38034-0.3609,0.07608
					c0-0.30432,0-1.23611,0.07593-1.54041c0.07599-0.30426,0.05701-0.49445,0.03802-0.70361s0-0.64658-0.03802-1.31216
					c-0.03796-0.66562-0.2659-0.76068-0.47485-0.68463c-0.20892,0.07608-0.41788,0.43741-0.45587,0.79874
					s0.09497,0.51343,0.15195,0.87476s0,1.33121,0.095,2.62433c0.03214,0.43787-0.41791,0.24725-0.4559,0
					c-0.03799-0.24719-0.11398-1.16-0.095-1.63544c0.03421-0.85529-0.18991-1.27414-0.37988-1.14102
					c-0.24899,0.1745-0.47491,0.36093-0.47491,0.81772c0,0.5705-0.01501,1.36978-0.13293,2.18698
					c-0.24695,1.71152,0.53186,2.90958,0.7598,4.69717c0.06842,0.53656,0.03522,1.08463,0.53186,1.54037
					c0.4559,0.4184,0.98788,0.67047,1.72855,0.64655c1.17772-0.03802,1.10173-0.32327,1.6526-0.43735
					C-254.11234,391.11063-254.00641,390.7923-253.9874,390.18375L-253.9874,390.18375z"/>
			</g>
		</g>
		<g>
			<g>
				<polygon class="st3" points="-255.69698,374.51376 -256.10498,375.78311 -257.44687,375.78311 -256.35715,376.57297 
					-256.77582,377.84122 -255.69698,377.05319 -254.61816,377.84122 -255.03123,376.56223 -253.94713,375.78842 
					-255.28363,375.78842 				"/>
			</g>
		</g>
		<g>
			<g>
				<path class="st3" d="M-255.69698,376.34988"/>
			</g>
		</g>
		<g>
			<g>
				<polygon class="st3" points="-259.63397,375.41525 -260.04196,376.68457 -261.38385,376.68457 -260.29413,377.47443 
					-260.71277,378.74265 -259.63397,377.95465 -258.55515,378.74265 -258.96823,377.46371 -257.88409,376.68991 
					-259.22061,376.68991 				"/>
			</g>
		</g>
		<g>
			<g>
				<path class="st3" d="M-259.63397,377.25137"/>
			</g>
		</g>
		<g>
			<g>
				<polygon class="st3" points="-263.3291,377.00552 -263.73712,378.27487 -265.07898,378.27487 -263.98929,379.06473 
					-264.40793,380.33298 -263.3291,379.54492 -262.25031,380.33298 -262.66339,379.05402 -261.57925,378.28021 
					-262.91577,378.28021 				"/>
			</g>
		</g>
		<g>
			<g>
				<path class="st3" d="M-263.3291,378.84164"/>
			</g>
		</g>
		<g>
			<g>
				<polygon class="st3" points="-267.06558,379.44803 -267.47357,380.71738 -268.81543,380.71738 -267.72571,381.50723 
					-268.14438,382.77548 -267.06558,381.98746 -265.98676,382.77548 -266.39984,381.49652 -265.3157,380.72269 
					-266.65222,380.72269 				"/>
			</g>
		</g>
		<g>
			<g>
				<path class="st3" d="M-267.06558,381.28415"/>
			</g>
		</g>
		<g>
			<g>
				<polygon class="st3" points="-251.75999,375.41525 -251.35197,376.68457 -250.01015,376.68457 -251.09985,377.47443 
					-250.68118,378.74265 -251.75999,377.95465 -252.83884,378.74265 -252.42575,377.46371 -253.50989,376.68991 
					-252.17332,376.68991 				"/>
			</g>
		</g>
		<g>
			<g>
				<path class="st3" d="M-251.75999,377.25137"/>
			</g>
		</g>
		<g>
			<g>
				<polygon class="st3" points="-248.06487,377.00552 -247.65686,378.27487 -246.315,378.27487 -247.40469,379.06473 
					-246.98605,380.33298 -248.06487,379.54492 -249.14368,380.33298 -248.73061,379.05402 -249.81473,378.28021 
					-248.47816,378.28021 				"/>
			</g>
		</g>
		<g>
			<g>
				<path class="st3" d="M-248.06487,378.84164"/>
			</g>
		</g>
		<g>
			<g>
				<polygon class="st3" points="-244.3284,379.44803 -243.92039,380.71738 -242.57854,380.71738 -243.66823,381.50723 
					-243.2496,382.77548 -244.3284,381.98746 -245.40723,382.77548 -244.99413,381.49652 -246.07828,380.72269 
					-244.74174,380.72269 				"/>
			</g>
		</g>
		<g>
			<g>
				<path class="st3" d="M-244.3284,381.28415"/>
			</g>
		</g>
	</g>
</g>
</svg>
