<?xml version="1.0" encoding="utf-8"?>
<!-- Generator: Adobe Illustrator 19.0.0, SVG Export Plug-In . SVG Version: 6.00 Build 0)  -->
<svg version="1.1" id="Layer_1" xmlns="http://www.w3.org/2000/svg" xmlns:xlink="http://www.w3.org/1999/xlink" x="0px" y="0px"
	 viewBox="-269 374 72 46" style="enable-background:new -269 374 72 46;" xml:space="preserve">
<style type="text/css">
	.st0{clip-path:url(#SVGID_2_);}
	.st1{fill:#FFFFFF;}
	.st2{fill:#007A4D;}
	.st3{fill:#E95123;}
</style>
<g>
	<defs>
		<path id="SVGID_1_" d="M-203.95834,420h-58.08331c-3.84299,0-6.95834-3.11536-6.95834-6.95831v-32.08334
			c0-3.84299,3.11536-6.95834,6.95834-6.95834h58.08331c3.84299,0,6.95834,3.11536,6.95834,6.95834v32.08334
			C-197,416.88464-200.11536,420-203.95834,420z"/>
	</defs>
	<clipPath id="SVGID_2_">
		<use xlink:href="#SVGID_1_"  style="overflow:visible;"/>
	</clipPath>
	<g class="st0">
		<g>
			<polygon class="st1" points="-172.16667,404.71838 -246.1376,404.71838 -246.1376,388.2811 -172.16667,388.2811 			"/>
		</g>
		<g>
			<path d="M-172.04199,404.84375h-74.2207v-16.6875h74.2207V404.84375z M-246.0127,404.59375h73.7207v-16.1875h-73.7207V404.59375z
				"/>
		</g>
		<g>
			<polygon class="st2" points="-172.16667,388.2811 -246.1376,388.2811 -246.1376,371.84381 -172.16667,371.84381 			"/>
		</g>
		<g>
			<path d="M-172.04199,388.40625h-74.2207v-16.6875h74.2207V388.40625z M-246.0127,388.15625h73.7207v-16.1875h-73.7207V388.15625z
				"/>
		</g>
		<g>
			<polygon points="-246.1376,421.15619 -172.16667,421.15619 -172.16667,404.71838 -246.1376,404.71838 			"/>
		</g>
		<g>
			<path d="M-172.04199,421.28125h-74.2207v-16.6875h74.2207V421.28125z M-246.0127,421.03125h73.7207v-16.1875h-73.7207V421.03125z
				"/>
		</g>
		<g>
			<polygon class="st3" points="-270.79166,421.15619 -270.79166,371.84381 -246.1376,371.84381 -246.1376,421.15619 			"/>
		</g>
		<g>
			<path d="M-246.0127,421.28125h-24.90381v-49.5625h24.90381V421.28125z M-270.6665,421.03125h24.40381v-49.0625h-24.40381
				V421.03125z"/>
		</g>
	</g>
</g>
</svg>
