<?xml version="1.0" encoding="utf-8"?>
<!-- Generator: Adobe Illustrator 19.0.0, SVG Export Plug-In . SVG Version: 6.00 Build 0)  -->
<svg version="1.1" id="Layer_1" xmlns="http://www.w3.org/2000/svg" xmlns:xlink="http://www.w3.org/1999/xlink" x="0px" y="0px"
	 viewBox="-269 374 72 46" style="enable-background:new -269 374 72 46;" xml:space="preserve">
<style type="text/css">
	.st0{clip-path:url(#SVGID_2_);}
	.st1{fill:#FFFFFF;}
	.st2{fill:none;stroke:#000000;stroke-width:0.25;}
	.st3{fill:#0072BB;}
	.st4{fill:#DC2F34;}
	.st5{fill:#FFD500;}
</style>
<g>
	<defs>
		<path id="SVGID_1_" d="M-203.95834,420h-58.08331c-3.84299,0-6.95834-3.11536-6.95834-6.95831v-32.08334
			c0-3.84299,3.11536-6.95834,6.95834-6.95834h58.08331c3.84299,0,6.95834,3.11536,6.95834,6.95834v32.08334
			C-197,416.88464-200.11536,420-203.95834,420z"/>
	</defs>
	<clipPath id="SVGID_2_">
		<use xlink:href="#SVGID_1_"  style="overflow:visible;"/>
	</clipPath>
	<g class="st0">
		<g>
			<path class="st1" d="M-232.99155,396.4895"/>
		</g>
		<g>
			<path class="st2" d="M-232.99155,396.4895"/>
		</g>
		<g>
			<polygon points="-192.80986,390.66895 -273.19019,390.66895 -273.19019,369.6904 -192.80986,369.6904 			"/>
		</g>
		<g>
			<path d="M-192.68457,390.79395h-80.63086v-21.22852h80.63086V390.79395z M-273.06543,390.54395h80.13086v-20.72852h-80.13086
				V390.54395z"/>
		</g>
		<g>
			<polygon class="st1" points="-192.80986,423.30963 -273.19019,423.30963 -273.19019,402.32367 -192.80986,402.32367 			"/>
		</g>
		<g>
			<path d="M-192.68457,423.43457h-80.63086v-21.23633h80.63086V423.43457z M-273.06543,423.18457h80.13086v-20.73633h-80.13086
				V423.18457z"/>
		</g>
		<g>
			<polygon class="st3" points="-192.80986,402.32367 -273.19019,402.32367 -273.19019,390.66895 -192.80986,390.66895 			"/>
		</g>
		<g>
			<path d="M-192.68457,402.44824h-80.63086v-11.9043h80.63086V402.44824z M-273.06543,402.19824h80.13086v-11.4043h-80.13086
				V402.19824z"/>
		</g>
		<g>
			<polygon class="st4" points="-232.99155,423.30963 -273.19019,369.6904 -273.19019,423.30963 -192.80986,423.30963 
				-192.80986,369.6904 			"/>
		</g>
		<g>
			<path d="M-192.80957,423.43457h-80.38086l-0.125-0.125v-53.61914l0.2251-0.0752l40.09863,53.48633l40.08252-53.48633
				l0.22461,0.0752v53.61914L-192.80957,423.43457z M-232.7417,423.18457h39.80713v-53.11914L-232.7417,423.18457z
				 M-273.06543,423.18457h39.82373l-39.82373-53.11914V423.18457z"/>
		</g>
		<g>
			<polygon class="st5" points="-251.3735,390.66895 -243.12218,388.61334 -249.95218,383.56503 -241.53841,384.80249 
				-245.89381,377.52698 -238.6183,381.88239 -239.85556,373.4686 -234.80743,380.29855 -232.72873,372.04706 -230.65007,380.29855 
				-225.60176,373.4686 -226.839,381.88239 -219.56367,377.52698 -223.9191,384.80249 -215.50531,383.56503 -222.33531,388.61334 
				-214.08379,390.66895 			"/>
		</g>
		<g>
			<path d="M-214.08398,390.79395h-37.28955l-0.03027-0.24609l7.99414-1.9917l-6.6167-4.89063l0.09229-0.22412l8.15283,1.19873
				l-4.22021-7.04932l0.17139-0.17139l7.0498,4.22021l-1.19873-8.15283l0.22412-0.09229l4.89063,6.6167l2.01465-7.99512h0.24219
				l2.01367,7.99512l4.8916-6.6167l0.22461,0.09229l-1.19922,8.15283l7.04883-4.22021l0.17188,0.17139l-4.21973,7.04932
				l8.15234-1.19873l0.09277,0.22412l-6.61621,4.89063l7.99316,1.9917L-214.08398,390.79395z M-250.35449,390.54395h35.25195
				l-7.52051-1.87354l6.64258-4.90918l-8.18164,1.20313l4.23535-7.07471l-7.07422,4.23535l1.20313-8.18018l-4.90918,6.64063
				l-2.02148-8.02686l-2.02246,8.02686l-4.9082-6.64063l1.20313,8.18018l-7.0752-4.23535l4.23535,7.07471l-8.18018-1.20313
				l6.6416,4.90918L-250.35449,390.54395z"/>
		</g>
	</g>
</g>
</svg>
