<?xml version="1.0" encoding="utf-8"?>
<!-- Generator: Adobe Illustrator 19.0.0, SVG Export Plug-In . SVG Version: 6.00 Build 0)  -->
<svg version="1.1" id="Layer_1" xmlns="http://www.w3.org/2000/svg" xmlns:xlink="http://www.w3.org/1999/xlink" x="0px" y="0px"
	 viewBox="-269 374 72 46" style="enable-background:new -269 374 72 46;" xml:space="preserve">
<style type="text/css">
	.st0{clip-path:url(#SVGID_2_);}
	.st1{fill:#003671;}
	.st2{fill:none;stroke:#000000;stroke-width:0.25;}
	.st3{fill:#FFFFFF;}
	.st4{fill:#DC2F34;}
</style>
<g>
	<defs>
		<path id="SVGID_1_" d="M-203.95834,420h-58.08331c-3.84299,0-6.95834-3.11536-6.95834-6.95831v-32.08334
			c0-3.84299,3.11536-6.95834,6.95834-6.95834h58.08331c3.84299,0,6.95834,3.11536,6.95834,6.95834v32.08334
			C-197,416.88464-200.11536,420-203.95834,420z"/>
	</defs>
	<clipPath id="SVGID_2_">
		<use xlink:href="#SVGID_1_"  style="overflow:visible;"/>
	</clipPath>
	<g class="st0">
		<g>
			<polygon class="st1" points="-185.75958,420.64828 -185.75958,373.35168 -280.24045,373.35168 -280.24045,420.64828 			"/>
		</g>
		<g>
			<path d="M-185.63477,420.77344h-94.73047v-47.54688h94.73047V420.77344z M-280.11523,420.52344h94.23047v-47.04688h-94.23047
				V420.52344z"/>
		</g>
		<g>
			<path class="st1" d="M-233,397"/>
		</g>
		<g>
			<path class="st2" d="M-233,397"/>
		</g>
		<g>
			<polygon class="st3" points="-280.24045,389.11264 -260.28543,389.11264 -280.24045,379.09973 -280.24045,373.35168 
				-268.82333,373.35168 -240.90894,387.26556 -240.90894,373.35168 -225.18983,373.35168 -225.18983,387.26556 
				-197.27542,373.35168 -185.75958,373.35168 -185.75958,379.09973 -205.81332,389.11264 -185.75958,389.11264 
				-185.75958,404.88553 -205.81332,404.88553 -185.75958,414.8985 -185.75958,420.64828 -197.27542,420.64828 
				-225.18983,406.73264 -225.18983,420.64828 -240.90894,420.64828 -240.90894,406.73264 -268.82333,420.64828 
				-280.24045,420.64828 -280.24045,414.8985 -260.28543,404.88553 -280.24045,404.88553 			"/>
		</g>
		<g>
			<path d="M-185.63477,420.77344l-11.69629-0.0127l-27.7334-13.82617v13.83887h-15.96924v-13.83887l-27.78955,13.83887h-11.54199
				v-5.95215l0.06885-0.03418l19.48291-9.77637h-19.55176v-16.02295h19.55176l-19.55176-9.81104v-5.9502l11.59766,0.01318
				l27.73389,13.82373v-13.83691h15.96924v13.83691l27.78906-13.83691h11.64063v5.9502l-19.64844,9.81104h19.64844v16.02295
				h-19.64844l19.64844,9.81055V420.77344z M-197.24609,420.52344h11.36133v-5.54785l-19.98438-9.97754l0.05566-0.2373h19.92871
				v-15.52295h-19.92871l-0.05566-0.23682l19.98438-9.97852v-5.5459h-11.36133l-28.06836,13.99121v-13.99121h-15.46924v13.99121
				l-0.18066-0.09033l-27.88818-13.90088h-11.2627v5.5459l19.88574,9.97852l-0.05615,0.23682h-19.82959v15.52295h19.82959
				l0.05615,0.23633l-19.88574,9.97852v5.54785h11.2627l28.06885-13.99316v13.99316h15.46924v-13.99316l0.18066,0.08984
				L-197.24609,420.52344z"/>
		</g>
		<g>
			<polygon class="st4" points="-193.18645,373.35168 -224.72243,389.12354 -217.17322,389.12354 -185.75958,373.35168 			"/>
		</g>
		<g>
			<path d="M-217.17285,389.24854h-7.5498l-0.05566-0.23682l31.5918-15.78516h7.42676l0.05566,0.23682L-217.17285,389.24854z
				 M-224.19336,388.99854h6.99121l30.91504-15.52197h-6.87012L-224.19336,388.99854z"/>
		</g>
		<g>
			<polygon class="st4" points="-185.75958,420.64828 -217.20673,404.88519 -209.62433,404.88519 -185.75958,416.8905 			"/>
		</g>
		<g>
			<path d="M-185.81543,420.75977l-31.44727-15.76367l0.05566-0.23633l7.63965,0.01367l23.86426,12.00586l0.06836,0.11133v3.75781
				L-185.81543,420.75977z M-216.67871,405.00977l30.79395,15.43652v-3.47852l-23.76855-11.95801H-216.67871z"/>
		</g>
		<g>
			<polygon class="st4" points="-248.64401,389.12354 -280.24045,373.35168 -280.24045,377.11856 -256.25925,389.12354 			"/>
		</g>
		<g>
			<path d="M-248.64404,389.24854l-7.67139-0.01318l-23.98096-12.00488l-0.06885-0.11182v-3.76709l0.18066-0.11182
				l31.59619,15.77197L-248.64404,389.24854z M-256.22949,388.99854h7.05518l-30.94092-15.44482v3.48779L-256.22949,388.99854z"/>
		</g>
		<g>
			<polygon class="st4" points="-248.70906,404.88519 -280.24045,420.64828 -272.6955,420.64828 -241.15967,404.88519 			"/>
		</g>
		<g>
			<path d="M-272.69531,420.77344h-7.54492l-0.05566-0.23633l31.58691-15.77734h7.54932l0.05566,0.23633L-272.69531,420.77344z
				 M-279.71045,420.52344h6.98584l31.03516-15.51367h-6.99023L-279.71045,420.52344z"/>
		</g>
		<g>
			<polygon class="st4" points="-280.24045,392.38486 -237.56049,392.38486 -237.56049,373.35168 -228.3241,373.35168 
				-228.3241,392.38486 -185.75958,392.38486 -185.75958,401.6214 -228.3241,401.6214 -228.3241,420.64828 -237.56049,420.64828 
				-237.56049,401.6214 -280.24045,401.6214 			"/>
		</g>
		<g>
			<path d="M-228.19922,420.77344h-9.48633v-19.02734h-42.67969v-9.48633h42.67969v-19.0332h9.48633v19.0332h42.56445v9.48633
				h-42.56445V420.77344z M-237.43555,420.52344h8.98633v-19.02734h42.56445v-8.98633h-42.56445v-19.0332h-8.98633v19.0332
				h-42.67969v8.98633h42.67969V420.52344z"/>
		</g>
	</g>
</g>
</svg>
