<?xml version="1.0" encoding="utf-8"?>
<!-- Generator: Adobe Illustrator 19.0.0, SVG Export Plug-In . SVG Version: 6.00 Build 0)  -->
<svg version="1.1" id="Layer_1" xmlns="http://www.w3.org/2000/svg" xmlns:xlink="http://www.w3.org/1999/xlink" x="0px" y="0px"
	 viewBox="-269 374 72 46" style="enable-background:new -269 374 72 46;" xml:space="preserve">
<style type="text/css">
	.st0{clip-path:url(#SVGID_2_);}
	.st1{fill:#E40520;}
	.st2{fill:#FFFFFF;stroke:#000000;stroke-width:0.25;}
</style>
<g>
	<defs>
		<path id="SVGID_1_" d="M-203.95834,420h-58.08331c-3.84299,0-6.95834-3.11536-6.95834-6.95831v-32.08334
			c0-3.84299,3.11536-6.95834,6.95834-6.95834h58.08331c3.84299,0,6.95834,3.11536,6.95834,6.95834v32.08334
			C-197,416.88464-200.11536,420-203.95834,420z"/>
	</defs>
	<clipPath id="SVGID_2_">
		<use xlink:href="#SVGID_1_"  style="overflow:visible;"/>
	</clipPath>
	<g class="st0">
		<g>
			<polygon class="st1" points="-195.82567,423.05313 -195.82567,369.94687 -270.17435,369.94687 -270.17435,423.05313 			"/>
		</g>
		<g>
			<path d="M-195.7002,423.17773h-74.59912v-53.35596h74.59912V423.17773z M-270.04932,422.92773h74.09912v-52.85596h-74.09912
				V422.92773z"/>
		</g>
		<g>
			<path class="st2" d="M-232.99992,396.5"/>
		</g>
		<g>
			<path d="M-232.99992,387.31512c-0.39433-0.06573-0.40506-0.18488-0.20596-0.45865
				c0.08452-0.11615,0.01584-0.18484-0.25882-0.10559c-0.20343,0.05869-0.43307-0.22183-0.53519-0.35123
				c-0.09438-0.1196-0.0845-0.14084,0.0282-0.14084c0.11266,0,0.32391-0.09857,0.38023-0.16904
				c0.05634-0.07037,0.04228-0.15491-0.11266-0.12674c-0.15492,0.0282-0.61449-0.20428-0.78871-0.43658
				c-0.08453-0.1127-0.09857-0.16904,0.04227-0.21124c0.14084-0.04227,0.28168-0.12677,0.38025-0.1972
				c0.0986-0.07043,0.04227-0.15491-0.14084-0.18311c-0.18309-0.02817-0.58238-0.24207-0.76054-0.46478
				c-0.05635-0.0704-0.11266-0.15491,0.05632-0.19717c0.16902-0.04224,0.57745-0.32391,0.69012-0.47885
				c0.1127-0.15494,0.12675-0.32391-0.19716-0.18307c-0.32393,0.14081-0.97182,0.18307-1.35207,0.09857
				c-0.80278-0.38025-1.97177-0.8732-2.42249-0.15491c-0.76051-0.04227-1.67596-0.0845-1.50697,0.85913
				c0.15138-0.0141,0.23473-0.10074,0.28168-0.19717c0.06693-0.13733,0.29282-0.16129,0.50706-0.08453
				c0.18661,0.06693,0.33829,0.16583,0.20067,0.33096c-0.07042,0.08453-0.34506,0.12677-0.51407,0.08453
				c-0.16901-0.0423-0.48302-0.09183-0.66545-0.11267c-0.12326-0.0141-0.36621-0.16904-0.47887-0.38733
				c-0.11267-0.21832-0.4014-0.47888-0.58452-0.32394c-0.18307,0.15497,0.03523,0.4155,0.21831,0.57748
				c0.18312,0.16193,0.55632,0.36615,0.75349,0.36615c0.26068,0,0.5141,0.06339,0.64789,0.09158
				c0.06339,0.49731,0.71828,0.72269,1.26756,0.70859c0.54927-0.0141,1.27466,0.25272,1.9436,0.80542
				c0.86617,0.71567,1.47885,3.08176,0.01408,3.08176c-0.91547,0-0.77463-0.91544-0.74644-1.43655
				c0.02814-0.52109-0.25356-1.08447-0.87323-1.30981s-1.88725-0.66196-2.23936-0.85913
				c-0.14082-0.09863-0.28976,0.25-0.30981,0.45065c-0.0141,0.14087-0.17268,0.15317-0.61971,0.0141
				c-1.26759-0.39432-2.42247-1.07034-2.97174-2.11258c-0.54929-1.04224-1.58495-0.01797-1.07042,0.85913
				c0.61975,1.05627,2.69006,1.91544,3.99989,2.08444c0.60855,0.07852,0.60316,0.80612,0.02818,0.88727
				c-1.19716,0.16904-2.36859,0.14609-3.0985-0.80276c-0.56337-0.73239-1.11765-0.07434-0.8732,0.50699
				c0.52109,1.23941,2.28955,1.76202,4.01393,0.92957c0.40845-0.19714,0.8465-0.16434,0.49295,0.32394
				c-0.88728,1.22531-2.06848,1.41455-3.54918,0.50702c-0.43661-0.26758-0.77463-0.22534-0.8732-0.0563
				c-0.17328,0.297-0.25137,0.56525,0.25351,0.9295c1.11264,0.80276,2.40149,0.74661,3.43651,0.21127
				c0.40843-0.21127,1.15488-0.38031,0.4929,0.49295c-0.66193,0.8732-2.35201,1.32391-3.04213,0.83096
				c-0.69011-0.49295-1.54926-0.04227-0.99997,0.71826c0.54927,0.76053,1.69009,0.56339,2.21121,0.28168
				c0.52112-0.28168,1.3239-0.66193,1.66191-0.81686s0.49576,0.10968,0.11267,0.54929
				c-0.85913,0.9859-1.74449,1.81403-2.94357,1.42245c-0.69011-0.22534-1.32391-0.25348-1.14078,0.59158
				c0.18307,0.845,1.60556,0.90134,2.30977,0.47885c0.70421-0.42255,1.33801-0.9014,1.76053-1.30981
				c0.4225-0.40845,0.8497-0.39282,0.38025,0.29575c-1.05627,1.54926-1.95836,2.68338-3.46468,2.39432
				c-1.39432-0.26764-1.04756,0.56934-0.74646,0.8309c0.85915,0.74649,2.36613,0.54929,4.1689-1.66187
				c0.1407-0.17261,0.37749-0.12265,0.25351,0.19717c-0.80278,2.07034-2.14078,3.40833-3.43652,3.08441
				c-0.67412-0.16858-1.33127,0.20633-0.64784,0.80276c0.7746,0.67603,2.18303,0.42252,3.19707-0.70416
				c1.01404-1.12674,1.63376-1.92953,1.85912-2.35205c0.22531-0.42252,0.56334-0.43665,0.52109,0.11267
				c-0.04225,0.54926-0.45068,1.61966-1.16899,1.97174c-0.37192,0.18234-0.70416,0.59158,0,0.9014
				c0.70422,0.30988,1.53519-0.9436,2.21121-2.77454c0.07942-0.21512,0.5452-0.26843,0.5352,0.14084
				c-0.01407,0.57745-0.29579,1.05627-0.60561,1.33798c-0.30988,0.28168-0.06747,0.75314,0.3521,0.56335
				c0.59151-0.26761,0.96519-0.6608,1.19713-1.25351c0.1268-0.32388,0.41272-0.43527,0.25354,0.07043
				c-0.47887,1.52109-1.54942,2.25354-2.95767,2.95767c0.21127,0.21127,0.4014,0.44366,0.59151,0.63379
				c-0.86613,0.44363-1.77458,0.73941-2.49284,1.03516c-0.57042-0.38025-1.07747-0.59155-1.33095-0.95065
				c-0.08452-0.4859-0.67603-0.69717-1.05634-0.4859c-0.65489-0.25354-1.11969-0.19012-1.16193,0.42255
				c0.38028-0.06345,0.69717-0.1268,0.9718,0.12674c0.12675,0.29575,0.52814,0.44363,0.90845,0.31686
				c0.42252,0.25351,0.78168,0.50708,1.03516,0.67603c-0.80281-0.02109-1.39432-0.06335-1.81685-0.10562
				c-0.40138-0.40137-0.78165-0.40137-1.07741-0.12674c-0.4859-0.10565-0.8662,0.11969-0.99295,0.54224
				c0.36618-0.0423,0.70419-0.16904,0.94365-0.0423c0.19717,0.36621,0.74644,0.38031,1.09854,0.11273
				c0.5352-0.01413,1.57742-0.0282,1.81685-0.0282c-0.3521,0.21127-0.77464,0.46475-0.98587,0.59152
				c-0.83098-0.16901-1.28168,0.15494-1.22534,0.76059c-0.19719,0.30981-0.18309,0.74643,0.05635,0.9436
				c0.05635-0.25354,0.19717-0.57745,0.39436-0.76056c0.50699,0.09857,0.8732-0.0704,1.02814-0.63379
				c0.32391-0.21124,0.74646-0.47885,0.91545-0.59149c0.16901-0.1127,0.3038-0.24213,0.69014-0.07047
				c0.38025,0.16904,0.73238,0.30988,0.95767,0.43661c0.12682,0.49295,0.60567,0.52115,0.9155,0.29578
				c0.19716,0.11267,0.36618,0.30984,0.47885,0.52112c0.18309-0.32394,0.08452-0.7605-0.26759-0.8732
				c-0.12675-0.38031-0.57744-0.50702-0.9014-0.32394c-0.26758-0.11267-0.64783-0.29578-0.81686-0.36618
				c0.54927-0.19717,1.9436-0.71832,2.43655-0.9296c0.46475,0.35211,0.98587,0.69019,1.36615,0.59158
				c0.05634-0.33801,0.23022-0.61624,0.46477-1.09857c0.3732-0.76758,0.838-1.48584,1.21828-1.92953
				c0.38026-0.4436,0.76561-0.18958,0.7394,0.42255c-0.06339,1.47879-1.15489,3.69-2.76047,3.77451
				c-0.54895,0.0289-0.76712,0.14114-0.4648,0.54929c0.28168,0.38025,1.15494,0.42957,1.64078,0.07043
				c0.48593-0.35916,0.65494-0.33801,0.55632,0.14084c-0.09857,0.47885-0.64865,0.66101-1.05626,0.69012
				c-0.59158,0.04224-1.26759,0.25351-0.71832,0.76053c0.54929,0.50702,1.45065,0.22531,2.11259-0.53522
				c0.22971-0.26385,0.41066-0.33862,0.39439,0.0845c-0.02818,0.73242-0.46477,1.19717-0.91548,1.29575
				c-0.45073,0.09863-0.90111,0.2175-0.77463,0.47885c0.21124,0.43661,0.91547,0.50705,1.3098,0.29581
				c0.39439-0.21127,0.81689-0.60565,0.90141-0.84506c0.08449-0.23944,0.25722-0.10297,0.21126,0.22534
				c-0.09857,0.70419-0.59152,0.69009-0.59152,1.26758c0,0.57742,0.47888,1.14078,1.04221,1.7746
				c0.56337-0.63382,1.04222-1.19717,1.04222-1.7746c0-0.57748-0.49292-0.56339-0.59152-1.26758
				c-0.04594-0.32834,0.12675-0.46478,0.21127-0.22534c0.08449,0.23941,0.50702,0.63376,0.90138,0.84506
				c0.39432,0.21124,1.09854,0.14081,1.30981-0.29581c0.12646-0.26135-0.32394-0.38025-0.77463-0.47885
				c-0.45068-0.09857-0.8873-0.56332-0.91548-1.29575c-0.01627-0.42313,0.16467-0.34836,0.39439-0.0845
				c0.66193,0.76053,1.56331,1.04224,2.11259,0.53522c0.54927-0.50702-0.12675-0.71829-0.71831-0.76053
				c-0.40762-0.02911-0.95772-0.21127-1.05629-0.69012c-0.09859-0.47885,0.07043-0.5,0.5563-0.14084
				c0.48589,0.35913,1.35913,0.30981,1.64082-0.07043c0.30231-0.40814,0.08414-0.52039-0.4648-0.54929
				c-1.60558-0.0845-2.6971-2.29572-2.7605-3.77451c-0.02621-0.61209,0.35915-0.86615,0.73944-0.42255
				c0.38026,0.4437,0.84503,1.16196,1.21826,1.92953c0.23451,0.48233,0.40846,0.76056,0.46478,1.09857
				c0.38028,0.0986,0.90138-0.23947,1.36615-0.59158c0.49294,0.21127,1.88727,0.73242,2.43655,0.9296
				c-0.16904,0.0704-0.54929,0.25351-0.81688,0.36618c-0.32393-0.18307-0.77463-0.05637-0.90138,0.32394
				c-0.35213,0.1127-0.45071,0.54929-0.26761,0.8732c0.11267-0.21127,0.28169-0.40845,0.47887-0.52112
				c0.30983,0.22537,0.7887,0.19717,0.91548-0.29578c0.22531-0.12674,0.57742-0.26758,0.95769-0.43661
				c0.38632-0.17166,0.5211-0.04224,0.69011,0.07047c0.16902,0.11264,0.59155,0.38025,0.91548,0.59149
				c0.15492,0.56342,0.52113,0.73239,1.02812,0.63379c0.19719,0.18311,0.33803,0.50702,0.39436,0.76056
				c0.23944-0.19717,0.25352-0.63379,0.05635-0.9436c0.05634-0.60565-0.39438-0.9296-1.2253-0.76059
				c-0.21127-0.12677-0.63377-0.38028-0.9859-0.59152c0.23941,0,1.28165,0.01407,1.81683,0.0282
				c0.35211,0.26758,0.9014,0.25348,1.09856-0.11273c0.23946-0.12674,0.57747,0,0.94365,0.0423
				c-0.12677-0.42252-0.50702-0.64789-0.99295-0.54224c-0.29576-0.27463-0.67603-0.27463-1.07739,0.12674
				c-0.42253,0.04224-1.01405,0.08453-1.81686,0.10562c0.25352-0.16898,0.61266-0.42252,1.03519-0.67603
				c0.38028,0.12674,0.78168-0.02112,0.90843-0.31686c0.27463-0.25354,0.59152-0.19019,0.97182-0.12674
				c-0.04228-0.61267-0.50705-0.67609-1.16196-0.42255c-0.38028-0.21127-0.9718,0-1.05632,0.4859
				c-0.25351,0.35913-0.76054,0.5704-1.33096,0.95065c-0.71825-0.29575-1.62669-0.59155-2.49284-1.03516
				c0.19012-0.19012,0.38025-0.42252,0.59152-0.63379c-1.40823-0.70413-2.47879-1.43658-2.95767-2.95767
				c-0.15916-0.50571,0.12675-0.39432,0.25356-0.07043c0.23189,0.59271,0.60561,0.9859,1.19713,1.25351
				c0.41953,0.18979,0.66193-0.28168,0.35211-0.56335c-0.30983-0.28171-0.59152-0.76056-0.60562-1.33798
				c-0.01001-0.40927,0.45578-0.35596,0.53519-0.14087c0.67603,1.83093,1.507,3.08444,2.21121,2.77457
				c0.70419-0.30981,0.37195-0.71906,0-0.9014c-0.71832-0.35205-1.12674-1.42249-1.16898-1.97174
				c-0.04227-0.54929,0.29576-0.53519,0.52109-0.11267c0.22536,0.42252,0.84506,1.22531,1.85912,2.35205
				c1.01402,1.12671,2.42247,1.38019,3.1971,0.70416c0.6834-0.59644,0.02621-0.97134-0.64789-0.80276
				c-1.29573,0.32391-2.63373-1.01407-3.43649-3.08441c-0.12399-0.31982,0.11278-0.36981,0.25348-0.19717
				c1.80278,2.21115,3.30977,2.40836,4.16891,1.66187c0.30109-0.26157,0.64786-1.09854-0.74649-0.8309
				c-1.50629,0.28906-2.40834-0.84506-3.46465-2.39432c-0.46947-0.68857-0.04225-0.70419,0.38023-0.29578
				c0.42253,0.40845,1.05634,0.8873,1.76054,1.30984c0.70422,0.42249,2.12669,0.36615,2.30977-0.47885
				c0.18314-0.84509-0.45067-0.81693-1.14079-0.59158c-1.19907,0.39157-2.08444-0.43655-2.94356-1.42245
				c-0.3831-0.43961-0.22536-0.70422,0.11266-0.54929c0.338,0.15494,1.14084,0.53519,1.66193,0.81686
				c0.5211,0.28171,1.66191,0.47885,2.21117-0.28168c0.54932-0.76056-0.30984-1.21121-0.99995-0.71826
				s-2.38019,0.04224-3.04213-0.83096c-0.66196-0.87326,0.08447-0.70422,0.4929-0.49295
				c1.03502,0.53531,2.3239,0.59149,3.43651-0.21127c0.50491-0.36429,0.42679-0.63254,0.25354-0.9295
				c-0.0986-0.16904-0.4366-0.21127-0.87323,0.0563c-1.4807,0.90753-2.66187,0.71826-3.54918-0.50702
				c-0.35358-0.48828,0.08452-0.52109,0.49297-0.32394c1.72437,0.83246,3.49284,0.30981,4.01396-0.92957
				c0.2444-0.58133-0.30986-1.23941-0.87323-0.50699c-0.72992,0.94885-1.90134,0.9718-3.0985,0.80276
				c-0.575-0.08118-0.58038-0.80878,0.0282-0.88727c1.30981-0.16901,3.38016-1.02817,3.99988-2.08444
				c0.51456-0.87711-0.52113-1.90137-1.0704-0.85913c-0.54929,1.04221-1.70416,1.71826-2.97176,2.11258
				c-0.44702,0.13907-0.60561,0.12677-0.61969-0.0141c-0.02005-0.20062-0.16899-0.54929-0.30983-0.45068
				c-0.35211,0.1972-1.61971,0.63382-2.23941,0.85913c-0.61964,0.22537-0.90134,0.78873-0.8732,1.30984
				c0.0282,0.52112,0.16902,1.43655-0.74644,1.43655c-1.46472,0-0.8521-2.36612,0.0141-3.08176
				c0.66895-0.5527,1.39433-0.81952,1.94362-0.80542c0.54927,0.01407,1.20415-0.21127,1.26753-0.70859
				c0.13379-0.0282,0.38722-0.09158,0.64789-0.09158c0.19717,0,0.57037-0.20422,0.75349-0.36615
				c0.18307-0.16199,0.40138-0.42252,0.21831-0.57748c-0.18312-0.15494-0.4718,0.10562-0.5845,0.32394
				c-0.11267,0.21829-0.35562,0.37323-0.47887,0.38733c-0.18245,0.02084-0.49644,0.07037-0.66547,0.11267
				c-0.16899,0.04221-0.44363,0-0.51407-0.08453c-0.13762-0.16513,0.0141-0.26404,0.20068-0.33096
				c0.21422-0.07675,0.44016-0.05283,0.50705,0.08453c0.04697,0.09641,0.13031,0.18307,0.28168,0.19717
				c0.16901-0.94363-0.74643-0.9014-1.50697-0.85913c-0.45071-0.71832-1.61969-0.22534-2.42247,0.15488
				c-0.38031,0.08453-1.02815,0.04227-1.35205-0.09854c-0.32396-0.14087-0.30988,0.02817-0.19717,0.18307
				c0.11266,0.15494,0.52107,0.43661,0.69011,0.47885c0.16899,0.04224,0.11267,0.12677,0.05634,0.19717
				c-0.17815,0.22272-0.57747,0.43661-0.76054,0.46475c-0.18312,0.0282-0.23944,0.1127-0.14084,0.18314
				s0.23941,0.15494,0.38026,0.19717c0.14084,0.04224,0.12679,0.09857,0.04225,0.21127
				c-0.17421,0.2323-0.63379,0.46478-0.7887,0.43658c-0.15491-0.02817-0.16901,0.05637-0.11267,0.12674
				c0.05632,0.07047,0.26758,0.16904,0.38025,0.16904c0.1127,0,0.12256,0.02124,0.0282,0.14084
				c-0.10211,0.12939-0.33177,0.40991-0.53519,0.35123c-0.27466-0.07925-0.34331-0.01056-0.25882,0.10559
				C-232.59485,387.13025-232.60555,387.24939-232.99992,387.31512L-232.99992,387.31512z"/>
		</g>
		<g>
			<path class="st1" d="M-236.73218,384.16028c-0.23158-0.11581-0.49297-0.15491-0.69012-0.0704
				c-0.19717,0.08447-0.23946,0.28165-0.0141,0.35211c0.22536,0.07043,0.52112,0.07043,0.67603,0.02814
				C-236.60544,384.42789-236.535,384.25885-236.73218,384.16028L-236.73218,384.16028z"/>
		</g>
		<g>
			<path class="st1" d="M-229.26765,384.16028c0.23161-0.11581,0.49297-0.15491,0.69014-0.0704
				c0.19716,0.08447,0.23944,0.28165,0.01408,0.35211c-0.22536,0.07043-0.52113,0.07043-0.67603,0.02814
				C-229.39441,384.42789-229.4648,384.25885-229.26765,384.16028L-229.26765,384.16028z"/>
		</g>
	</g>
</g>
</svg>
