<?xml version="1.0" encoding="utf-8"?>
<!-- Generator: Adobe Illustrator 19.0.0, SVG Export Plug-In . SVG Version: 6.00 Build 0)  -->
<svg version="1.1" id="Layer_1" xmlns="http://www.w3.org/2000/svg" xmlns:xlink="http://www.w3.org/1999/xlink" x="0px" y="0px"
	 viewBox="-269 374 72 46" style="enable-background:new -269 374 72 46;" xml:space="preserve">
<style type="text/css">
	.st0{clip-path:url(#SVGID_2_);}
	.st1{fill:#D32E3F;}
	.st2{fill:none;stroke:#000000;stroke-width:0.25;}
	.st3{fill:#F6A22D;}
	.st4{fill:#004A93;}
</style>
<g>
	<defs>
		<path id="SVGID_1_" d="M-203.95834,420h-58.08331c-3.84299,0-6.95834-3.11536-6.95834-6.95831v-32.08334
			c0-3.84299,3.11536-6.95834,6.95834-6.95834h58.08331c3.84299,0,6.95834,3.11536,6.95834,6.95834v32.08334
			C-197,416.88464-200.11536,420-203.95834,420z"/>
	</defs>
	<clipPath id="SVGID_2_">
		<use xlink:href="#SVGID_1_"  style="overflow:visible;"/>
	</clipPath>
	<g class="st0">
		<polygon class="st1" points="-179.84563,387.64066 -286.15436,387.64066 -286.15436,369.92282 -179.84563,369.92282 		"/>
		<polygon class="st2" points="-179.84563,387.64066 -286.15436,387.64066 -286.15436,369.92282 -179.84563,369.92282 		"/>
		<polygon class="st3" points="-286.15436,423.07718 -179.84563,423.07718 -179.84563,405.35852 -286.15436,405.35852 		"/>
		<polygon class="st2" points="-286.15436,423.07718 -179.84563,423.07718 -179.84563,405.35852 -286.15436,405.35852 		"/>
		<polygon class="st4" points="-179.84563,405.35852 -286.15436,405.35852 -286.15436,387.64066 -179.84563,387.64066 		"/>
		<polygon class="st2" points="-179.84563,405.35852 -286.15436,405.35852 -286.15436,387.64066 -179.84563,387.64066 		"/>
	</g>
</g>
</svg>
