<?xml version="1.0" encoding="utf-8"?>
<!-- Generator: Adobe Illustrator 19.0.0, SVG Export Plug-In . SVG Version: 6.00 Build 0)  -->
<svg version="1.1" id="Layer_1" xmlns="http://www.w3.org/2000/svg" xmlns:xlink="http://www.w3.org/1999/xlink" x="0px" y="0px"
	 viewBox="-269 374 72 46" style="enable-background:new -269 374 72 46;" xml:space="preserve">
<style type="text/css">
	.st0{clip-path:url(#SVGID_2_);}
	.st1{fill:#E40520;}
	.st2{fill:#FFE247;}
</style>
<g>
	<defs>
		<path id="SVGID_1_" d="M-203.95834,420h-58.08331c-3.84299,0-6.95834-3.11536-6.95834-6.95831v-32.08334
			c0-3.84299,3.11536-6.95834,6.95834-6.95834h58.08331c3.84299,0,6.95834,3.11536,6.95834,6.95834v32.08334
			C-197,416.88464-200.11536,420-203.95834,420z"/>
	</defs>
	<clipPath id="SVGID_2_">
		<use xlink:href="#SVGID_1_"  style="overflow:visible;"/>
	</clipPath>
	<g class="st0">
		<g>
			<polygon class="st1" points="-274.19464,396.5 -191.80536,396.5 -191.80536,369.0369 -274.19464,369.0369 			"/>
		</g>
		<g>
			<path d="M-191.68066,396.625h-82.63916v-27.71289h82.63916V396.625z M-274.06982,396.375h82.13916v-27.21289h-82.13916V396.375z"
				/>
		</g>
		<g>
			<polygon points="-191.80536,423.96307 -274.19464,423.96307 -274.19464,396.5 -191.80536,396.5 			"/>
		</g>
		<g>
			<path d="M-191.68066,424.08789h-82.63916V396.375h82.63916V424.08789z M-274.06982,423.83789h82.13916V396.625h-82.13916
				V423.83789z"/>
		</g>
		<g>
			<path class="st2" d="M-223.50403,406.93112c0.29764-0.28818,0.57027-0.57925,0.76056-0.8306l-0.84956-0.74097
				c0.64937-0.72302,1.10139-1.4566,1.52339-2.1702l0.9819,0.56445c0.38733-0.65387,0.97424-1.85544,1.17497-2.62411
				l-1.06847-0.35941c0.32323-0.91647,0.46013-1.76721,0.57687-2.58798l1.1232,0.14575
				c0.10764-0.75232,0.19003-2.08704,0.08133-2.87402l-1.12469,0.07681c-0.05212-0.97037-0.25122-1.80875-0.45746-2.61172
				l1.09349-0.2952c-0.18849-0.73627-0.62314-2.00089-1.02477-2.68634l-1.00964,0.5014
				c-0.41953-0.87659-0.92429-1.57495-1.42212-2.23785l0.89728-0.69122c-0.45589-0.60806-1.34142-1.61011-1.97479-2.08969
				l-0.74092,0.84961c-0.72304-0.64932-1.45665-1.10132-2.1703-1.52328l0.56448-0.98196
				c-0.65388-0.3873-1.85551-0.97418-2.62418-1.1749l-0.35938,1.06851c-0.91647-0.32318-1.76514-0.46048-2.58592-0.57721
				l-0.28711,2.64438c5.33997,0.68546,9.46672,5.2482,9.46672,10.7746c0,3.24353-1.42148,6.15506-3.67546,8.1456
				L-223.50403,406.93112L-223.50403,406.93112z"/>
		</g>
		<g>
			<path d="M-223.49805,407.01172l-0.04297-0.03027l-3.19336-2.33105l0.05859-0.05176
				c2.32227-2.05078,3.6543-5.00293,3.6543-8.09863c0-5.41846-4.04688-10.02393-9.41211-10.7124l-0.06104-0.00781l0.00684-0.06104
				l0.29395-2.7085l0.06396,0.00879c0.79004,0.11279,1.63672,0.24854,2.53809,0.55957l0.35742-1.06396l0.05664,0.01465
				c0.79492,0.20752,2.02246,0.81592,2.64063,1.18164l0.05273,0.03125l-0.56445,0.98193
				c0.67285,0.39893,1.38574,0.84229,2.0791,1.45703l0.73828-0.8457l0.04688,0.03516
				c0.6543,0.49512,1.55566,1.52686,1.98633,2.10156l0.03711,0.04932l-0.89746,0.69141
				c0.46973,0.62744,0.95898,1.30957,1.36426,2.14209l1.00586-0.49951l0.0293,0.05029
				c0.41602,0.71045,0.85352,2.0083,1.03125,2.70264l0.01563,0.06006l-1.09375,0.29492
				c0.19336,0.75977,0.38379,1.57764,0.44043,2.50049l1.11914-0.07617l0.00781,0.05762
				c0.11328,0.8125,0.02051,2.17969-0.08105,2.8916l-0.00879,0.06152l-0.06055-0.00879l-1.0625-0.13672
				c-0.11523,0.80566-0.24902,1.60449-0.5498,2.47852l1.06348,0.35742l-0.01465,0.05664
				c-0.20703,0.79492-0.81543,2.02246-1.18164,2.64063l-0.03125,0.05273l-0.98145-0.56445
				c-0.39941,0.67285-0.8418,1.38574-1.45703,2.0791l0.8457,0.73828l-0.03516,0.04688
				c-0.17773,0.23438-0.44336,0.52344-0.76758,0.83691L-223.49805,407.01172z M-226.53516,404.64063l3.02539,2.20801
				c0.28125-0.27441,0.51563-0.52832,0.68164-0.73926l-0.85352-0.74414l0.04199-0.04785
				c0.64648-0.71875,1.10352-1.46094,1.5166-2.16016l0.03125-0.05273l0.98145,0.56445
				c0.35547-0.61133,0.91113-1.7373,1.12207-2.49902l-1.07324-0.36035l0.02148-0.05957
				c0.32031-0.90918,0.4541-1.7373,0.57422-2.57617l0.00879-0.06152l0.06055,0.00879l1.06152,0.13672
				c0.09473-0.70117,0.17676-1.95459,0.08008-2.7373l-1.12793,0.07715l-0.00391-0.06348
				c-0.05176-0.96289-0.24512-1.7793-0.45605-2.59961l-0.01563-0.06006l1.09375-0.29492
				c-0.18066-0.68262-0.58398-1.87109-0.97266-2.56006l-1.01465,0.50342l-0.02734-0.05713
				c-0.41699-0.87012-0.92773-1.57715-1.41602-2.22705l-0.03711-0.04932l0.89746-0.69141
				c-0.42969-0.5625-1.25781-1.50635-1.87891-1.99219l-0.74414,0.85303l-0.04785-0.04248
				c-0.71875-0.646-1.46094-1.10303-2.16016-1.51611l-0.05273-0.03125l0.56445-0.98193
				c-0.61133-0.35547-1.7373-0.91016-2.49902-1.12158l-0.36035,1.07275l-0.05957-0.021
				c-0.88867-0.31348-1.72656-0.45264-2.51025-0.56543l-0.27344,2.51953c5.39795,0.72314,9.46045,5.36768,9.46045,10.82861
				C-222.89648,399.60645-224.22168,402.56836-226.53516,404.64063z"/>
		</g>
		<g>
			<path class="st2" d="M-227.86627,409.91263c-0.67934,0.30048-1.52873,0.58026-2.08095,0.72162l-0.29518-1.09348
				c-0.80295,0.20621-1.64134,0.40527-2.61176,0.45737l0.07683,1.12463c-0.78697,0.10873-2.12163,0.02625-2.87398-0.08139
				l0.1458-1.1232c-0.82076-0.11676-1.67152-0.25369-2.58794-0.57693l-0.35948,1.06845
				c-0.76865-0.20074-1.97017-0.78769-2.62401-1.17505l0.5645-0.9819c-0.36363-0.21506-0.73245-0.4379-1.10245-0.69067
				l1.53177-2.18268c1.76955,1.24994,3.92921,1.98422,6.26036,1.98422c1.32635,0,2.59724-0.23773,3.77232-0.67288
				c0,0,0.65694,0.40753,1.51122,0.94507c0.12398,0.078,0.33582,0.14398,0.36473,0.32639
				C-228.02087,408.93161-227.86627,409.91263-227.86627,409.91263L-227.86627,409.91263z"/>
		</g>
		<g>
			<path d="M-233.69727,411.23633c-0.70703,0-1.48486-0.06445-1.96289-0.13379l-0.06104-0.00879l0.146-1.12305
				c-0.77295-0.10938-1.59912-0.24609-2.479-0.5498l-0.3584,1.06445l-0.05615-0.01465
				c-0.79639-0.20898-2.02344-0.81738-2.64014-1.18262l-0.05322-0.03125l0.56494-0.98145
				c-0.33447-0.19824-0.69141-0.41504-1.05273-0.66113l-0.05225-0.03613l1.604-2.28516l0.05127,0.03613
				c1.82764,1.29004,3.97998,1.97168,6.22412,1.97168c1.29102,0,2.55322-0.22461,3.75049-0.66895l0.02832-0.01074l0.02637,0.0166
				c0,0,0.65723,0.4082,1.51172,0.94531c0.02539,0.01563,0.05469,0.03125,0.08594,0.04785
				c0.12402,0.06543,0.28027,0.14746,0.30664,0.32129c0.1543,0.96973,0.30859,1.95117,0.30859,1.95117l0.00781,0.04785
				l-0.04395,0.01953c-0.71094,0.31348-1.5625,0.58887-2.09082,0.72363l-0.05957,0.01563l-0.0166-0.05957l-0.27832-1.0332
				c-0.75977,0.19336-1.57715,0.38379-2.50098,0.43945l0.07617,1.12012l-0.05811,0.00781
				C-233.03467,411.22168-233.35742,411.23633-233.69727,411.23633z M-235.58154,410.9873
				c0.69824,0.0957,1.94775,0.17578,2.73779,0.08105l-0.07715-1.12891l0.06348-0.00391
				c0.96289-0.05078,1.8125-0.25293,2.59961-0.45508l0.05957-0.01563l0.0166,0.05957l0.27832,1.0332
				c0.51563-0.13477,1.29883-0.3916,1.96777-0.68262c-0.03223-0.20703-0.16699-1.05957-0.30078-1.90332
				c-0.01758-0.11133-0.13184-0.17188-0.24219-0.23047c-0.03418-0.01758-0.06641-0.03516-0.09375-0.05273
				c-0.75488-0.47461-1.35645-0.84863-1.48535-0.92871c-1.20313,0.44238-2.46924,0.66602-3.76514,0.66602
				c-2.24951,0-4.40723-0.67676-6.24512-1.95898l-1.45947,2.08008c0.35986,0.24219,0.71533,0.45605,1.04688,0.65234l0.05322,0.03125
				l-0.56494,0.98145c0.61035,0.35547,1.73633,0.91016,2.49854,1.12305l0.36133-1.07422l0.06006,0.02148
				c0.91455,0.32227,1.77393,0.45996,2.57568,0.57422l0.06104,0.00781L-235.58154,410.9873z"/>
		</g>
		<g>
			<path class="st2" d="M-238.27231,394.69672c-2.03494,3.11005-0.30717,6.41199,2.38048,7.94775
				c3.90645,2.23227,8.0629,4.60739,12.70863,7.67896l1.15186-1.49741C-229.01915,403.68112-237.38921,397.9603-238.27231,394.69672
				L-238.27231,394.69672z"/>
		</g>
		<g>
			<path d="M-223.16992,410.40723l-0.04785-0.03223c-4.64063-3.06738-8.73633-5.4082-12.69629-7.67188
				c-1.60791-0.91797-2.79053-2.41211-3.17285-4c-0.33105-1.37549-0.06738-2.77246,0.76221-4.04053l0.07617-0.1167l0.03662,0.13477
				c0.76611,2.83154,7.25488,7.55859,13.53027,12.13086c0.90625,0.66016,1.80762,1.31641,2.6875,1.96387l0.05176,0.03809
				L-223.16992,410.40723z M-238.29346,394.8457c-0.75195,1.20752-0.98486,2.52832-0.67188,3.82813
				c0.37402,1.55566,1.53467,3.01953,3.10498,3.91602c3.95605,2.26172,8.03906,4.59473,12.66309,7.64941l1.07715-1.40039
				c-0.86328-0.63574-1.74707-1.2793-2.63477-1.92676C-230.95215,402.39746-237.35693,397.73145-238.29346,394.8457z"/>
		</g>
		<g>
			<path class="st2" d="M-222.03133,408.82602c-0.36476,0.47992-0.66231,0.89267-1.07503,1.40143
				c-0.35233,0.4343,0.16318,0.41275,0.36478,0.44156c1.3642,0.19489,2.74519,1.65094,3.28275,2.68759
				c0.53751,1.03668,1.16345,1.06213,1.57417,0.84476c0.32635-0.17282,0.83043-0.90649-0.11519-2.01578
				c-0.99823-1.17102-2.36127-2.16931-3.74347-3.29236C-221.91324,408.75522-221.97374,408.76843-222.03133,408.82602
				L-222.03133,408.82602z"/>
		</g>
		<g>
			<path d="M-218.30859,414.37305c-0.08398,0-0.1748-0.01172-0.26953-0.04102c-0.35254-0.11035-0.66699-0.42871-0.93652-0.94727
				c-0.49414-0.9541-1.86523-2.45801-3.23535-2.6543c-0.02441-0.00293-0.05469-0.00586-0.08691-0.00879
				c-0.15918-0.01465-0.37793-0.03418-0.4375-0.17578c-0.03906-0.09375,0-0.20996,0.11914-0.35742
				c0.29102-0.3584,0.52051-0.66504,0.76465-0.98926c0.10059-0.13379,0.20215-0.26953,0.30957-0.41113l0.00586-0.00586
				c0.10938-0.11426,0.22949-0.05371,0.37109,0.0625c0.26563,0.21582,0.5293,0.42676,0.79102,0.63477
				c1.10547,0.88184,2.15039,1.71484,2.96094,2.66504c0.55273,0.64941,0.59863,1.15332,0.54004,1.46094
				c-0.06543,0.3418-0.28027,0.56445-0.44336,0.65137C-217.9668,414.31543-218.12305,414.37305-218.30859,414.37305z
				 M-221.98438,408.86719c-0.10645,0.13965-0.20703,0.27441-0.30664,0.40723c-0.24414,0.3252-0.47461,0.63281-0.7666,0.99219
				c-0.11426,0.14063-0.1123,0.2041-0.10156,0.23047c0.03027,0.07227,0.21973,0.08984,0.33301,0.10059
				c0.03516,0.00293,0.06738,0.00586,0.09375,0.00977c1.42969,0.2041,2.80762,1.71387,3.3291,2.7207
				c0.25293,0.4873,0.54297,0.78516,0.8623,0.88379c0.25977,0.08496,0.48535,0.00879,0.62695-0.06641
				c0.13965-0.07324,0.32227-0.26563,0.37891-0.56348c0.05371-0.28125,0.00879-0.74512-0.5127-1.35547
				c-0.80273-0.94238-1.8418-1.77148-2.94336-2.64941c-0.26172-0.20801-0.52637-0.41992-0.79102-0.63477
				C-221.92871,408.82227-221.96094,408.84277-221.98438,408.86719z"/>
		</g>
		<g>
			<polygon class="st2" points="-232.90466,386.90302 -233.99173,390.2811 -237.56696,390.2811 -234.66354,392.38321 
				-235.77899,395.75839 -232.90466,393.66119 -230.03027,395.75839 -231.13087,392.35468 -228.24232,390.29526 
				-231.80342,390.29526 			"/>
		</g>
		<g>
			<path d="M-235.89941,395.92334l1.16211-3.51611l-3.02246-2.18848h3.72266l1.13184-3.51904l0.06006,0.18359l1.0874,3.34961
				h3.71094l-3.01074,2.146l1.14648,3.54346l-2.99365-2.18408L-235.89941,395.92334z M-232.90479,393.58398l0.03662,0.02686
				l2.71875,1.9834l-1.05469-3.26416l2.7666-1.97217h-3.41211l-0.01367-0.04297l-1.04102-3.20898l-1.04199,3.23779h-3.42773
				l2.78418,2.01563l-0.01416,0.04346l-1.0542,3.19043L-232.90479,393.58398z"/>
		</g>
		<g>
			<path d="M-221.34021,410.11362c0.07495,0,0.13576-0.06079,0.13576-0.13574c0-0.07498-0.06081-0.13574-0.13576-0.13574
				c-0.07494,0-0.13576,0.06076-0.13576,0.13574C-221.47597,410.05283-221.41515,410.11362-221.34021,410.11362
				L-221.34021,410.11362z"/>
			<circle cx="-221.33984" cy="409.97754" r="0.19824"/>
		</g>
		<g>
			<path d="M-219.95801,411.2641c0.07498,0,0.13577-0.06079,0.13577-0.13574c0-0.07498-0.06079-0.13574-0.13577-0.13574
				s-0.13573,0.06076-0.13573,0.13574C-220.09372,411.20331-220.03297,411.2641-219.95801,411.2641L-219.95801,411.2641z"/>
			<circle cx="-219.95801" cy="411.12793" r="0.19824"/>
		</g>
		<g>
			<path d="M-218.69098,412.45435c0.07498,0,0.13576-0.06076,0.13576-0.13571c0-0.07501-0.06078-0.13577-0.13576-0.13577
				c-0.07495,0-0.13571,0.06076-0.13571,0.13577C-218.82669,412.39355-218.76591,412.45435-218.69098,412.45435
				L-218.69098,412.45435z"/>
			<circle cx="-218.69141" cy="412.31836" r="0.19824"/>
		</g>
		<g>
			<path d="M-222.45215,409.41406c-1.05469-0.76563-2.13672-1.53711-3.18262-2.28418
				c-3.61133-2.5791-7.02197-5.01465-9.53076-7.24121l0.08301-0.09375c2.50342,2.22266,5.9126,4.65625,9.521,7.2334
				c1.0459,0.74707,2.12695,1.51855,3.18359,2.28418L-222.45215,409.41406z"/>
		</g>
	</g>
</g>
</svg>
