<?xml version="1.0" encoding="utf-8"?>
<!-- Generator: Adobe Illustrator 19.0.0, SVG Export Plug-In . SVG Version: 6.00 Build 0)  -->
<svg version="1.1" id="Layer_1" xmlns="http://www.w3.org/2000/svg" xmlns:xlink="http://www.w3.org/1999/xlink" x="0px" y="0px"
	 viewBox="-269 374 72 46" style="enable-background:new -269 374 72 46;" xml:space="preserve">
<style type="text/css">
	.st0{clip-path:url(#SVGID_2_);}
	.st1{fill:#F3912D;}
	.st2{fill:#FFFFFF;}
	.st3{fill:none;stroke:#000000;stroke-width:0.5;}
</style>
<g>
	<defs>
		<path id="SVGID_1_" d="M-203.95834,420h-58.08331c-3.84299,0-6.95834-3.11536-6.95834-6.95831v-32.08334
			c0-3.84299,3.11536-6.95834,6.95834-6.95834h58.08331c3.84299,0,6.95834,3.11536,6.95834,6.95834v32.08334
			C-197,416.88464-200.11536,420-203.95834,420z"/>
	</defs>
	<clipPath id="SVGID_2_">
		<use xlink:href="#SVGID_1_"  style="overflow:visible;"/>
	</clipPath>
	<g class="st0">
		<g>
			<polygon class="st1" points="-189.77524,425.3165 -189.77524,367.6835 -276.22479,367.6835 -276.22479,425.3165 			"/>
		</g>
		<g>
			<path d="M-189.65039,425.44141h-86.69922v-57.88281h86.69922V425.44141z M-276.09961,425.19141h86.19922v-57.38281h-86.19922
				V425.19141z"/>
		</g>
		<g>
			<path class="st2" d="M-233,396.5"/>
		</g>
		<g>
			<path class="st3" d="M-233,396.5"/>
		</g>
		<g>
			<polygon class="st2" points="-245.14536,393.82578 -242.31171,399.57492 -238.27312,399.57492 -251.52303,373.4606 
				-264.77292,399.57492 -260.73434,399.57492 -257.90067,393.82578 			"/>
		</g>
		<g>
			<path class="st2" d="M-238.39285,400.71277c-1.49719,4.55142-7.26128,8.61993-13.13017,8.61993
				c-5.86888,0-11.63298-4.06851-13.13017-8.61993H-238.39285L-238.39285,400.71277z"/>
		</g>
		<g>
			<path class="st2" d="M-245.72897,419.56207c0-1.70673,1.43726-2.42538,3.2339-3.68301
				c1.79659-1.2576,3.05418-2.38049,3.81773-5.97366c0.76355-3.5932,1.34747-6.10846,2.60509-8.5788
				c-2.29065-0.35931-3.16632,2.21548-3.54829,3.81778c-1.84151,7.7254-3.32373,7.41098-7.72536,7.50082
				c-2.38173,0.04858-2.87457,1.75171-2.91951,2.91949c-0.04491,1.16776,0,1.88641-1.25761,3.54825
				c-1.25763-1.66183-1.21269-2.38049-1.25763-3.54825c-0.04492-1.16782-0.53775-2.87091-2.91948-2.91949
				c-4.40164-0.08984-5.88385,0.22458-7.72534-7.50082c-0.38199-1.60229-1.25763-4.17709-3.54834-3.81778
				c1.25766,2.47034,1.84155,4.9856,2.6051,8.5788c0.76358,3.59317,2.02115,4.71606,3.81775,5.97366
				c1.79663,1.25763,3.23392,1.97629,3.23392,3.68301H-245.72897L-245.72897,419.56207z"/>
		</g>
		<g>
			<polygon class="st1" points="-256.17389,390.32242 -251.52303,380.88651 -246.87215,390.32242 			"/>
		</g>
	</g>
</g>
</svg>
