<?xml version="1.0" encoding="utf-8"?>
<!-- Generator: Adobe Illustrator 19.0.0, SVG Export Plug-In . SVG Version: 6.00 Build 0)  -->
<svg version="1.1" id="Layer_1" xmlns="http://www.w3.org/2000/svg" xmlns:xlink="http://www.w3.org/1999/xlink" x="0px" y="0px"
	 viewBox="-269 374 72 46" style="enable-background:new -269 374 72 46;" xml:space="preserve">
<style type="text/css">
	.st0{clip-path:url(#SVGID_2_);}
	.st1{clip-path:url(#SVGID_5_);}
	.st2{clip-path:url(#SVGID_6_);}
	.st3{fill:#74ACDF;}
	.st4{fill:#FFFFFF;}
	.st5{fill:#F6B40E;}
	.st6{fill:#85340A;}
	.st7{fill:#843511;}
</style>
<g>
	<defs>
		<path id="SVGID_1_" d="M-203.95834,420h-58.08331c-3.84299,0-6.95834-3.11536-6.95834-6.95831v-32.08334
			c0-3.84299,3.11536-6.95834,6.95834-6.95834h58.08331c3.84299,0,6.95834,3.11536,6.95834,6.95834v32.08334
			C-197,416.88464-200.11536,420-203.95834,420z"/>
	</defs>
	<clipPath id="SVGID_2_">
		<use xlink:href="#SVGID_1_"  style="overflow:visible;"/>
	</clipPath>
	<g class="st0">
		<g>
			<g>
				<defs>
					<rect id="SVGID_3_" x="-270.90186" y="373.09833" width="75.92194" height="47.46012"/>
				</defs>
				<defs>
					<rect id="SVGID_4_" x="-270.90186" y="373.09833" width="75.92194" height="47.46012"/>
				</defs>
				<clipPath id="SVGID_5_">
					<use xlink:href="#SVGID_3_"  style="overflow:visible;"/>
				</clipPath>
				<clipPath id="SVGID_6_" class="st1">
					<use xlink:href="#SVGID_4_"  style="overflow:visible;"/>
				</clipPath>
				<g class="st2">
					<rect x="-270.91608" y="373.09833" class="st3" width="75.93618" height="47.46012"/>
				</g>
				<g class="st2">
					<rect x="-270.91608" y="388.91867" class="st4" width="75.93618" height="15.82035"/>
				</g>
			</g>
			<g>
				<path class="st5" d="M-233.24783,396.95261l2.70061,5.88434c0,0,0.04639,0.11261,0.12149,0.08151
					s0.02872-0.14322,0.02872-0.14322l-2.25116-6.07108 M-232.71307,398.99374c-0.03287,0.89499,0.51779,1.38715,0.44589,2.18625
					c-0.07179,0.79901,0.3671,1.25095,0.46866,1.56192c0.10193,0.31052-0.10986,0.49631-0.01862,0.5408
					c0.09135,0.04416,0.29152-0.20111,0.22626-0.64319c-0.06537-0.44174-0.40044-0.57297-0.32166-1.54898
					c0.0788-0.97614-0.39961-1.2037-0.28322-2.09406"/>
			</g>
			<g>
				<path class="st6" d="M-231.69141,403.7832l-0.32129-0.10156c-0.09033-0.04395-0.37842-0.22363-0.22607-0.66992
					c0.0249-0.07324,0.02979-0.09375,0.01758-0.12988c-0.02051-0.06348-0.06201-0.13184-0.10645-0.21191
					c-0.17773-0.32324-0.44678-0.81152-0.38232-1.53027c0.02686-0.2998-0.06592-0.54883-0.18311-0.86426
					c-0.1333-0.35742-0.28418-0.7627-0.26416-1.29785l0.35547,0.01367l-0.85059-1.85303l0.59082-0.271l-0.00342-0.0083
					l0.22119-0.0918l0.00342,0.0083l0.60938-0.22607l2.25049,6.07178c0.02246,0.05273,0.08203,0.2373,0.00195,0.43164
					l-0.07031,0.16992l-0.20605,0.10645c-0.2832,0.11816-0.58203-0.02539-0.70313-0.32422l-0.19043-0.41406
					c0.06055,0.43945-0.06738,0.84375-0.32617,1.0332L-231.69141,403.7832z"/>
			</g>
			<g>
				<path class="st5" d="M-233.27287,396.82837l0.24371,6.47012c0,0-0.00035,0.12152,0.08115,0.12198
					c0.08116,0,0.08116-0.12198,0.08116-0.12198l0.24323-6.47012 M-233.5593,398.91913
					c-0.37314,0.81381-0.05292,1.47943-0.425,2.18991c-0.37221,0.71097-0.13954,1.29639-0.16457,1.62268
					c-0.02457,0.32629-0.29153,0.41669-0.22438,0.49265c0.06775,0.07556,0.34622-0.07465,0.45514-0.50797
					c0.10893-0.43283-0.15056-0.68271,0.29568-1.55408c0.44637-0.8717,0.09135-1.2648,0.53996-2.04254"/>
			</g>
			<g>
				<path class="st6" d="M-232.94775,403.86523c-0.30371-0.00293-0.52734-0.24805-0.52637-0.56836l-0.01709-0.45508
					c-0.1123,0.42773-0.38428,0.75195-0.6958,0.8291l-0.25928,0.06348l-0.25781-0.21289
					c-0.06934-0.07813-0.26563-0.35449,0.04541-0.70898c0.05127-0.05859,0.06348-0.07617,0.06641-0.11426
					c0.00488-0.06543-0.00732-0.14355-0.01758-0.23438c-0.04102-0.36719-0.10352-0.9209,0.23145-1.56055
					c0.13965-0.2666,0.14941-0.53223,0.16162-0.86914c0.01416-0.38086,0.02979-0.81348,0.25293-1.30078l0.32324,0.14844
					l-0.07666-2.03662l0.64941-0.0332l0.11914,0.00439l0.12012-0.00439l0.00049,0.00879l0.64893,0.02441l-0.24316,6.47021
					C-232.42188,403.62207-232.64795,403.86523-232.94775,403.86523z"/>
			</g>
			<g>
				<path class="st5" d="M-233.24783,396.70416l-2.25114,6.07062c0,0-0.04688,0.11258,0.02824,0.14368
					c0.0751,0.03107,0.12149-0.08151,0.12149-0.08151l2.70107-5.88434 M-234.31296,398.52567
					c-0.65579,0.60986-0.61461,1.3468-1.23053,1.86127c-0.61591,0.51401-0.62527,1.14392-0.77312,1.43591
					c-0.14784,0.29153-0.42915,0.27338-0.39581,0.3689c0.03346,0.09598,0.34859,0.06393,0.61508-0.29474
					c0.26601-0.35831,0.12184-0.68829,0.86769-1.32281c0.74571-0.63443,0.5687-1.13312,1.28058-1.68057"/>
			</g>
			<g>
				<path class="st6" d="M-235.41992,403.39941l-0.39014-0.14063l-0.10645-0.20313
					c-0.08203-0.19531-0.02246-0.38086,0.00684-0.45117l0.15771-0.42676c-0.26855,0.35254-0.64307,0.54492-0.96045,0.49805
					l-0.26514-0.04199l-0.15527-0.29785c-0.0332-0.09375-0.11035-0.42578,0.31396-0.63379
					c0.07031-0.03516,0.08887-0.0459,0.10596-0.08008c0.02881-0.05762,0.04736-0.13477,0.07275-0.22168
					c0.10254-0.35547,0.25684-0.8916,0.81152-1.35449c0.23145-0.19336,0.34229-0.43555,0.48242-0.74121
					c0.15869-0.34668,0.33838-0.74023,0.73047-1.10449l0.24219,0.25977l0.7085-1.91064l0.60938,0.22607l0.00342-0.0083
					l0.22119,0.0918l-0.00342,0.0083l0.59082,0.271l-2.70117,5.88428c-0.02246,0.05469-0.11084,0.22656-0.30469,0.30664
					L-235.41992,403.39941z"/>
			</g>
			<g>
				<path class="st5" d="M-233.17783,396.59891l-4.40265,4.74695c0,0-0.08626,0.08627-0.0287,0.14371
					c0.05743,0.05707,0.1432-0.02872,0.1432-0.02872l4.74744-4.40298 M-234.85851,397.87439
					c-0.83934,0.31195-1.08353,1.009-1.84917,1.2482c-0.76625,0.23956-1.01553,0.81799-1.26352,1.03073
					c-0.24844,0.2132-0.50105,0.08862-0.507,0.18958c-0.00604,0.10159,0.29747,0.19235,0.68083-0.03702
					c0.38324-0.22897,0.37587-0.58908,1.30788-0.88986c0.93211-0.3009,0.95892-0.82971,1.82614-1.06274"/>
			</g>
			<g>
				<path class="st6" d="M-237.55908,401.95605c-0.13184,0-0.26221-0.0498-0.36475-0.15234
					c-0.21143-0.21387-0.19873-0.54492,0.02881-0.77246l0.31104-0.33496c-0.38281,0.22266-0.8042,0.26172-1.07959,0.09277
					l-0.229-0.13867l-0.0293-0.33496c0.00586-0.10059,0.06201-0.43555,0.53271-0.46582
					c0.07813-0.00488,0.09912-0.00879,0.12891-0.03418c0.04883-0.04199,0.0957-0.10645,0.15234-0.17676
					c0.22998-0.28906,0.57813-0.72461,1.26807-0.94043c0.28711-0.08984,0.48193-0.27051,0.72803-0.49902
					c0.27979-0.26025,0.59668-0.55518,1.09863-0.7417l0.12354,0.3335l1.38574-1.49414l0.47607,0.44092l0.00684-0.00635
					l0.16943,0.16992l-0.00586,0.00635l0.44092,0.47607l-4.74707,4.40332
					C-237.27539,401.89844-237.41797,401.95605-237.55908,401.95605z"/>
			</g>
			<g>
				<path class="st6" d="M-232.53879,399.14526c0.0432,0.85938,0.53026,1.2399,0.43427,2.0231
					c0.21048-0.61923-0.29614-1.0994-0.26743-2.01419 M-233.09821,396.89932l1.84975,4.04147l-1.5498-4.16568"/>
			</g>
			<g>
				<path class="st6" d="M-233.45689,399.12534c-0.2888,0.81061,0.01579,1.34882-0.37268,2.03568
					c0.43106-0.49182,0.147-1.12909,0.52373-1.96332 M-233.11353,396.8367l0.16232,4.44153l0.1622-4.44202"/>
			</g>
			<g>
				<path class="st6" d="M-234.29716,398.75598c-0.57701,0.63821-0.50154,1.25186-1.12303,1.7381
					c0.58626-0.28973,0.56775-0.9873,1.23468-1.61389 M-233.10416,396.77225l-1.54991,4.16583l1.84976-4.0416"/>
			</g>
			<g>
				<path class="st6" d="M-234.93219,398.0932c-0.77716,0.36853-0.94269,0.96402-1.70276,1.17535
					c0.65259-0.0426,0.90234-0.69424,1.75841-1.01779 M-233.0708,396.7171l-3.02605,3.25552l3.2554-3.02652"/>
			</g>
			<g>
				<path class="st5" d="M-233.07224,396.52856l-5.88434,2.70059c0,0-0.11259,0.04639-0.08151,0.12149
					c0.0311,0.0751,0.14322,0.02872,0.14322,0.02872l6.07109-2.25116 M-235.11337,397.06332
					c-0.89497-0.03287-1.38713,0.51779-2.18625,0.44589c-0.79898-0.07181-1.25093,0.3671-1.5619,0.46854
					c-0.31052,0.10205-0.49632-0.10974-0.54082-0.01852c-0.04413,0.09137,0.20111,0.29153,0.64322,0.22614
					c0.44173-0.06525,0.57295-0.40042,1.54898-0.32153c0.97614,0.0788,1.20369-0.3996,2.09406-0.2832"/>
			</g>
			<g>
				<path class="st6" d="M-238.96338,399.83887c-0.06348,0-0.13477-0.01074-0.20801-0.04102l-0.1709-0.07031l-0.17725-0.37695
					l0.0708-0.22168c0.08105-0.19434,0.25391-0.28223,0.32471-0.31152l0.41357-0.18945
					c-0.43652,0.06055-0.84229-0.06641-1.03271-0.3252l-0.15869-0.21582l0.09863-0.32031
					c0.04639-0.09277,0.22461-0.38086,0.67236-0.229c0.07275,0.02441,0.0918,0.02979,0.13086,0.01807
					c0.06201-0.02051,0.12988-0.06201,0.20996-0.10596c0.32324-0.17871,0.81201-0.45215,1.52979-0.3833
					c0.30078,0.03027,0.5498-0.06543,0.86475-0.18311c0.35791-0.1333,0.76318-0.28125,1.29883-0.26416l-0.01318,0.35547
					l1.85205-0.85059l0.271,0.59082l0.0083-0.00342l0.0918,0.22119l-0.0083,0.00342l0.22607,0.60938l-6.07129,2.25049
					C-238.77344,399.80957-238.85742,399.83887-238.96338,399.83887z"/>
			</g>
			<g>
				<path class="st5" d="M-232.948,396.50351l-6.47012,0.24371c0,0-0.12151-0.00046-0.12196,0.08118
					c0,0.08115,0.12196,0.08115,0.12196,0.08115l6.47012,0.24323 M-235.03874,396.2171
					c-0.81381-0.37317-1.47945-0.05292-2.18993-0.42502c-0.71095-0.37219-1.29637-0.13953-1.62267-0.16455
					c-0.32628-0.02457-0.4167-0.29153-0.49263-0.2244c-0.07559,0.06775,0.07463,0.34622,0.50793,0.45514
					c0.43285,0.10892,0.68271-0.15057,1.55408,0.29568c0.87173,0.44638,1.26482,0.09137,2.04257,0.53998"/>
			</g>
			<g>
				<path class="st6" d="M-232.96436,397.59717l-6.47021-0.24316c-0.00049,0-0.00049,0-0.00098,0
					c-0.30566,0-0.54932-0.22607-0.54932-0.52539v-0.18604l0.15234-0.17822c0.14941-0.14697,0.34424-0.16016,0.41797-0.16162
					l0.45508-0.01709c-0.42822-0.11182-0.75391-0.38379-0.83105-0.6958l-0.06396-0.25928l0.21338-0.2583
					c0.0791-0.07031,0.35449-0.26514,0.70898,0.04541c0.05859,0.05127,0.07617,0.06348,0.11426,0.06641
					c0.0625,0.00391,0.14307-0.00732,0.23486-0.01758c0.3667-0.04004,0.9209-0.10205,1.56055,0.23145
					c0.2666,0.13965,0.53223,0.14941,0.86816,0.16211c0.38184,0.01367,0.81445,0.02979,1.30127,0.25293l-0.14844,0.32324
					l2.03711-0.07715l0.0332,0.64941l-0.00439,0.11914l0.00439,0.12012l-0.00879,0.00049L-232.96436,397.59717z"/>
			</g>
			<g>
				<path class="st5" d="M-232.82376,396.52856l-6.07063-2.25116c0,0-0.11261-0.04688-0.14369,0.02823
					s0.08151,0.12149,0.08151,0.12149l5.88434,2.70108 M-234.64529,395.46344c-0.60986-0.65579-1.3468-0.61462-1.86127-1.23053
					c-0.51399-0.61591-1.14391-0.62531-1.4359-0.77313c-0.29153-0.14783-0.27338-0.42917-0.3689-0.39581
					c-0.09599,0.03345-0.06395,0.34857,0.29474,0.61508c0.35832,0.26599,0.68828,0.12186,1.32283,0.86768
					c0.63443,0.74573,1.1331,0.56857,1.68056,1.28049"/>
			</g>
			<g>
				<path class="st6" d="M-233.25781,397.53271l-5.88428-2.70117c-0.28174-0.11621-0.4209-0.41748-0.30762-0.69434l0.07031-0.17188
					l0.20752-0.10693c0.19531-0.08008,0.37842-0.02002,0.44873,0.00879l0.42725,0.1582
					c-0.35254-0.26807-0.54785-0.64355-0.49902-0.96094l0.04053-0.26465l0.29736-0.15576
					c0.09668-0.03467,0.42627-0.10986,0.63574,0.31348c0.03418,0.07031,0.0459,0.08838,0.08008,0.10596
					c0.05713,0.02881,0.13428,0.04736,0.22217,0.07275c0.35449,0.10254,0.89063,0.25684,1.35352,0.81201
					c0.19336,0.23096,0.43506,0.3418,0.74121,0.48193c0.34717,0.15869,0.74023,0.33838,1.10498,0.73047l-0.26074,0.24219
					l1.91113,0.7085l-0.22607,0.60938l0.0083,0.00342l-0.0918,0.22119l-0.0083-0.00342L-233.25781,397.53271z"/>
			</g>
			<g>
				<path class="st5" d="M-232.71854,396.59845l-4.74695-4.40253c0,0-0.08626-0.08627-0.14368-0.02872
					c-0.05708,0.05743,0.0287,0.14322,0.0287,0.14322l4.403,4.74744 M-233.99403,394.91788
					c-0.31194-0.83932-1.00899-1.08353-1.2482-1.84927c-0.23955-0.76614-0.81798-1.01541-1.03072-1.2634
					c-0.21321-0.24844-0.08862-0.50107-0.18961-0.50699c-0.10156-0.00604-0.19232,0.29745,0.03702,0.68082
					c0.229,0.38324,0.58911,0.37589,0.88989,1.30789c0.3009,0.9321,0.82971,0.95892,1.06274,1.82614"/>
			</g>
			<g>
				<path class="st6" d="M-233.50342,397.35986l-4.40332-4.74707c-0.21436-0.21533-0.22754-0.5459-0.01953-0.75732
					c0.21484-0.21436,0.5459-0.20264,0.77441,0.0249l0.33594,0.31201c-0.22363-0.38281-0.26025-0.80469-0.09326-1.07959
					l0.13965-0.229l0.33496-0.0293c0.1001,0.00586,0.43555,0.06201,0.46533,0.5332c0.00488,0.07764,0.00879,0.09863,0.03369,0.12793
					c0.04248,0.04932,0.10645,0.0957,0.17773,0.15283c0.28857,0.22998,0.72412,0.57764,0.93994,1.26758
					c0.08984,0.2876,0.271,0.48242,0.5,0.729c0.25977,0.2793,0.5542,0.59619,0.74072,1.09814l-0.3335,0.12354l1.49414,1.38574
					l-0.44092,0.47607l0.00635,0.00684l-0.16992,0.16943l-0.00635-0.00586L-233.50342,397.35986z"/>
			</g>
			<g>
				<path class="st6" d="M-235.26489,397.23761c-0.85938,0.04306-1.23988,0.53024-2.0231,0.43427
					c0.61925,0.21048,1.09941-0.29614,2.01422-0.26746 M-233.01895,396.67816l-4.04147,1.84976l4.1657-1.5498"/>
			</g>
			<g>
				<path class="st6" d="M-235.24495,396.31949c-0.81062-0.28879-1.3488,0.01578-2.03568-0.37268
					c0.49179,0.43106,1.12907,0.147,1.9633,0.52371 M-232.95631,396.66287l-4.44154,0.16232l4.44203,0.16217"/>
			</g>
			<g>
				<path class="st6" d="M-234.8756,395.47922c-0.63823-0.577-1.25188-0.50156-1.73811-1.12302
					c0.28973,0.58624,0.98729,0.56772,1.61388,1.23465 M-232.89188,396.67224l-4.16582-1.54993l4.04158,1.84976"/>
			</g>
			<g>
				<path class="st6" d="M-234.21281,394.84418c-0.36853-0.77716-0.96404-0.94266-1.17534-1.70273
					c0.04259,0.65256,0.69421,0.90234,1.01778,1.75839 M-232.83672,396.70557l-3.25551-3.02606l3.02652,3.25543"/>
			</g>
			<g>
				<path class="st5" d="M-232.64816,396.70416l-2.70061-5.88437c0,0-0.04639-0.11258-0.12151-0.08151
					c-0.07509,0.0311-0.0287,0.14322-0.0287,0.14322l2.25114,6.07111 M-233.18292,394.66302
					c0.03287-0.89499-0.51779-1.38715-0.44589-2.18628c0.07178-0.79898-0.3671-1.25092-0.46855-1.56189
					c-0.10204-0.31052,0.10976-0.49631,0.01851-0.54083c-0.09135-0.04413-0.29152,0.20111-0.22615,0.64322
					c0.06526,0.44174,0.40044,0.57297,0.32155,1.54898c-0.0788,0.97614,0.3996,1.2037,0.28322,2.09406"/>
			</g>
			<g>
				<path class="st6" d="M-233.66504,397.10742l-2.25098-6.07129c-0.11719-0.28223-0.00146-0.59326,0.27539-0.7085l0.17041-0.0708
					l0.22119,0.07031c0.19434,0.08057,0.28271,0.25293,0.31152,0.32373l0.18994,0.41357
					c-0.05957-0.4375,0.06689-0.84033,0.32471-1.03076l0.21484-0.15869l0.32129,0.09814
					c0.09473,0.04639,0.38086,0.22656,0.22998,0.67188c-0.02539,0.07373-0.02979,0.09473-0.01807,0.13135
					c0.02051,0.06299,0.06201,0.13086,0.10596,0.21045c0.17822,0.32324,0.44727,0.81104,0.38281,1.5293
					c-0.02686,0.30029,0.06592,0.54932,0.18311,0.86475c0.1333,0.35791,0.28418,0.76367,0.26416,1.29883l-0.35547-0.01318
					l0.85059,1.85205l-0.59082,0.271l0.00342,0.0083l-0.22119,0.0918l-0.00342-0.0083L-233.66504,397.10742z"/>
			</g>
			<g>
				<path class="st5" d="M-232.62314,396.82837l-0.2437-6.47009c0,0,0.00047-0.12152-0.08116-0.12198
					c-0.08115,0-0.08115,0.12198-0.08115,0.12198l-0.24326,6.47009 M-232.33672,394.73764
					c0.37315-0.81381,0.05292-1.47946,0.425-2.18994c0.37222-0.71094,0.13953-1.29636,0.16458-1.62265
					c0.02455-0.32629,0.2915-0.41669,0.22437-0.49265c-0.06775-0.07556-0.34622,0.07465-0.45514,0.50793
					c-0.10892,0.43283,0.15057,0.68271-0.29568,1.55411c-0.44637,0.8717-0.09135,1.2648-0.53998,2.04242"/>
			</g>
			<g>
				<path class="st6" d="M-233.06738,396.84473l-0.00049-0.00879l-0.64893-0.02441l0.24316-6.46973
					c-0.00049-0.30664,0.22607-0.55029,0.52588-0.55029c0.30078,0.00195,0.52588,0.24561,0.52588,0.56689l0.01709,0.45801
					c0.11084-0.42676,0.38232-0.75195,0.69385-0.82959l0.25879-0.06494l0.25977,0.21289
					c0.07031,0.07861,0.26758,0.35547-0.04492,0.70996c-0.05078,0.05811-0.06348,0.07568-0.06641,0.11377
					c-0.00488,0.06641,0.00684,0.14502,0.01758,0.23535c0.04102,0.3667,0.10352,0.9209-0.23242,1.56055
					c-0.13867,0.26611-0.14844,0.53174-0.16113,0.86816c-0.01367,0.38135-0.0293,0.81348-0.25195,1.30029l-0.32373-0.14795
					l0.07666,2.03662l-0.64941,0.0332l-0.11914-0.00439L-233.06738,396.84473z"/>
			</g>
			<g>
				<path class="st5" d="M-232.64816,396.95261l2.25116-6.07062c0,0,0.04684-0.11261-0.02824-0.14368
					c-0.0751-0.0311-0.12151,0.08151-0.12151,0.08151l-2.70107,5.88434 M-231.58305,395.1311
					c0.65578-0.60989,0.61461-1.3468,1.23051-1.86127c0.61592-0.51401,0.62529-1.14392,0.77313-1.43591
					c0.14783-0.29153,0.42915-0.27338,0.39581-0.3689c-0.03345-0.09598-0.34859-0.06393-0.61508,0.29474
					c-0.26602,0.35831-0.12186,0.68829-0.86769,1.32281c-0.74573,0.63443-0.56857,1.13312-1.28049,1.68057"/>
			</g>
			<g>
				<path class="st6" d="M-232.23096,397.10742l-0.60938-0.22607l-0.00342,0.0083l-0.22119-0.0918l0.00342-0.0083l-0.59082-0.271
					l2.70117-5.88428c0.11816-0.28223,0.42188-0.42188,0.69434-0.30762c0.28027,0.11768,0.39355,0.4292,0.26953,0.72656
					l-0.1582,0.42822c0.2666-0.35303,0.63867-0.55664,0.96094-0.5l0.26465,0.04053l0.15625,0.29736
					c0.0332,0.09619,0.10938,0.42676-0.31348,0.63525c-0.07031,0.03467-0.08789,0.04639-0.10547,0.08008
					c-0.0293,0.05908-0.04883,0.13623-0.07422,0.22461c-0.10156,0.354-0.25684,0.88965-0.81055,1.35156
					c-0.23145,0.19336-0.34277,0.43555-0.48242,0.7417c-0.15918,0.34668-0.33887,0.73975-0.73047,1.104l-0.24219-0.26025
					L-232.23096,397.10742z"/>
			</g>
			<g>
				<path class="st5" d="M-232.71806,397.05786l4.40253-4.74698c0,0,0.08624-0.08624,0.0287-0.14368
					c-0.05743-0.05707-0.1432,0.02872-0.1432,0.02872l-4.74744,4.40298 M-231.03749,395.78235
					c0.83932-0.31192,1.08351-1.009,1.84929-1.2482c0.76611-0.23953,1.01541-0.81796,1.26338-1.0307
					c0.24846-0.21323,0.50105-0.08862,0.507-0.18961c0.00604-0.10156-0.29745-0.19232-0.68082,0.03702
					c-0.38324,0.229-0.3759,0.58911-1.30789,0.88989c-0.9321,0.3009-0.95892,0.82971-1.82614,1.06274"/>
			</g>
			<g>
				<path class="st6" d="M-232.39209,397.35986l-0.47607-0.44092l-0.00684,0.00635l-0.16943-0.16992l0.00586-0.00635
					l-0.44092-0.47607l4.74707-4.40332c0.21387-0.21387,0.54492-0.22949,0.75684-0.01953
					c0.21484,0.21387,0.20313,0.5459-0.02441,0.77441l-0.31152,0.33594c0.38086-0.22314,0.80176-0.26025,1.07715-0.09424
					l0.22949,0.13867l0.03125,0.33447c-0.00684,0.10254-0.0625,0.43799-0.53418,0.46777
					c-0.07715,0.00488-0.09863,0.00879-0.12695,0.0332c-0.0498,0.04297-0.09668,0.10693-0.15332,0.17822
					c-0.22949,0.28857-0.57715,0.72412-1.26758,0.93994c-0.28809,0.08984-0.48242,0.271-0.72852,0.5
					c-0.28027,0.25977-0.59668,0.5542-1.09766,0.74023l-0.12402-0.33301L-232.39209,397.35986z"/>
			</g>
			<g>
				<path class="st6" d="M-233.35724,394.51151c-0.04306-0.85938-0.53024-1.2399-0.43425-2.0231
					c-0.21049,0.61923,0.29614,1.09927,0.26744,2.01419 M-232.79779,396.75742l-1.84976-4.04144l1.5498,4.16568"/>
			</g>
			<g>
				<path class="st6" d="M-232.43912,394.53143c0.2888-0.81061-0.01578-1.34882,0.37268-2.03568
					c-0.43106,0.49179-0.147,1.12906-0.52371,1.96329 M-232.78249,396.82007l-0.16231-4.44156l-0.1622,4.44205"/>
			</g>
			<g>
				<path class="st6" d="M-231.59883,394.90079c0.577-0.63821,0.50154-1.25189,1.12303-1.7381
					c-0.58624,0.28973-0.56775,0.98727-1.23468,1.61386 M-232.79185,396.88449l1.54994-4.1658l-1.84976,4.0416"/>
			</g>
			<g>
				<path class="st6" d="M-230.96381,395.56357c0.77716-0.36853,0.94267-0.96402,1.70274-1.17535
					c-0.65257,0.0426-0.90233,0.69421-1.75839,1.01779 M-232.8252,396.93958l3.02605-3.25543l-3.25542,3.02655"/>
			</g>
			<g>
				<path class="st5" d="M-232.82376,397.1282l5.88434-2.70059c0,0,0.11259-0.04639,0.08151-0.12149
					c-0.0311-0.07513-0.14322-0.02872-0.14322-0.02872l-6.07109,2.25113 M-230.78262,396.59344
					c0.89497,0.03287,1.38713-0.51779,2.18625-0.44589c0.79898,0.07178,1.25092-0.3671,1.5619-0.46866
					c0.3105-0.10193,0.49632,0.10986,0.5408,0.01862c0.04413-0.09134-0.20111-0.2915-0.6432-0.22626
					c-0.44174,0.06537-0.57297,0.40045-1.54898,0.32166c-0.97614-0.07877-1.2037,0.39963-2.09406,0.28323"/>
			</g>
			<g>
				<path class="st6" d="M-232.63818,397.53271l-0.271-0.59082l-0.0083,0.00342l-0.0918-0.22119l0.0083-0.00342l-0.22607-0.60938
					l6.07178-2.25098c0.28125-0.11865,0.59375-0.00146,0.70801,0.27539c0.11328,0.28027-0.02637,0.58057-0.32227,0.70313
					l-0.41406,0.18994c0.43164-0.06152,0.8418,0.06738,1.03125,0.32666l0.15918,0.2168l-0.10156,0.3208
					c-0.04395,0.09033-0.22266,0.37891-0.66992,0.22607c-0.07324-0.02441-0.09375-0.02783-0.13086-0.01758
					c-0.06348,0.02051-0.13184,0.0625-0.21191,0.10645c-0.32324,0.17773-0.80957,0.45068-1.5293,0.38232
					c-0.30078-0.02881-0.54883,0.06592-0.86426,0.18311c-0.35742,0.1333-0.76074,0.28125-1.29785,0.26416l0.01367-0.35547
					L-232.63818,397.53271z"/>
			</g>
			<g>
				<path class="st5" d="M-232.948,397.15326l6.47012-0.24371c0,0,0.12149,0.00034,0.12196-0.08118
					c0-0.08115-0.12196-0.08115-0.12196-0.08115l-6.47012-0.24323 M-230.85727,397.43967
					c0.81383,0.37317,1.47946,0.05292,2.18994,0.42502c0.71094,0.37219,1.29637,0.13953,1.62265,0.16455
					c0.32629,0.02457,0.4167,0.29153,0.49265,0.22437c0.07559-0.06775-0.07463-0.34622-0.50793-0.45514
					c-0.43283-0.10892-0.68272,0.15057-1.55408-0.29568c-0.87173-0.44635-1.26482-0.09134-2.04245-0.53998"/>
			</g>
			<g>
				<path class="st6" d="M-226.57422,398.70898c-0.11133,0-0.24414-0.04199-0.38965-0.16992
					c-0.05859-0.05078-0.07617-0.06348-0.11426-0.06641c-0.06348-0.00586-0.14355,0.00684-0.23535,0.01758
					c-0.36621,0.04199-0.9209,0.10352-1.55957-0.23145c-0.2666-0.13965-0.53223-0.14941-0.86816-0.16211
					c-0.38184-0.01367-0.81445-0.0293-1.30176-0.25293l0.14844-0.32275l-2.03711,0.07666l-0.0332-0.64941l0.00439-0.11914
					l-0.00439-0.12012l0.00879-0.00049l0.02441-0.64893l6.4707,0.24316h0.00098c0.30566,0,0.54785,0.22607,0.54785,0.52588v0.18457
					l-0.14941,0.17773c-0.14746,0.14697-0.33789,0.16357-0.41602,0.16357c0,0-0.00098,0-0.00195,0l-0.45508,0.01709
					c0.42676,0.11182,0.75098,0.38281,0.82813,0.69287l0.06445,0.25879l-0.21094,0.25977
					C-226.30176,398.625-226.41602,398.70898-226.57422,398.70898z"/>
			</g>
			<g>
				<path class="st5" d="M-233.07224,397.1282l6.07063,2.25116c0,0,0.11259,0.04688,0.14368-0.02823
					c0.0311-0.0751-0.08151-0.12152-0.08151-0.12152l-5.88434-2.70105 M-231.2507,398.19333
					c0.60985,0.65579,1.3468,0.61462,1.86127,1.23053c0.51399,0.61591,1.14391,0.62527,1.43591,0.77313
					c0.2915,0.14783,0.27336,0.42914,0.36888,0.39581c0.09599-0.03348,0.06395-0.3486-0.29472-0.61508
					c-0.35832-0.26602-0.68829-0.12186-1.32285-0.86768c-0.63443-0.74573-1.1331-0.5687-1.68056-1.28061"/>
			</g>
			<g>
				<path class="st6" d="M-227.60449,401.04102c-0.14063,0-0.33203-0.06152-0.46973-0.3418
					c-0.03418-0.07031-0.0459-0.08789-0.08008-0.10547c-0.05859-0.0293-0.13574-0.04883-0.22363-0.07422
					c-0.35449-0.10156-0.89063-0.25684-1.35254-0.81055c-0.19434-0.23145-0.43555-0.34277-0.74219-0.48242
					c-0.34668-0.15918-0.73926-0.33887-1.10352-0.73047l0.26074-0.24219l-1.91162-0.7085l0.22607-0.60938l-0.0083-0.00342
					l0.0918-0.22119l0.0083,0.00342l0.271-0.59082l5.88428,2.70117c0.2832,0.11816,0.4209,0.4209,0.30566,0.69727l-0.07031,0.16895
					l-0.20313,0.10547c-0.19336,0.08105-0.37988,0.02148-0.4502-0.00684l-0.42773-0.15918
					c0.35254,0.26855,0.54785,0.64453,0.49902,0.96191l-0.04199,0.26465l-0.29785,0.15625
					C-227.47266,401.02441-227.53223,401.04102-227.60449,401.04102z"/>
			</g>
			<g>
				<path class="st5" d="M-233.17747,397.0582l4.74696,4.40265c0,0,0.08624,0.08627,0.14368,0.02872
					c0.05707-0.05743-0.0287-0.14322-0.0287-0.14322l-4.403-4.74744 M-231.90198,398.73889
					c0.31192,0.83932,1.009,1.0835,1.2482,1.84915c0.23956,0.76624,0.81796,1.01553,1.03072,1.26352
					c0.21321,0.24844,0.08864,0.50107,0.18961,0.50699c0.10155,0.00604,0.19232-0.29745-0.03703-0.68082
					c-0.22897-0.38324-0.5891-0.37589-0.88988-1.30786c-0.30089-0.93213-0.82971-0.95895-1.06274-1.82617"/>
			</g>
			<g>
				<path class="st6" d="M-229.45898,402.80273c-0.10254-0.00684-0.4375-0.0625-0.46777-0.5332
					c-0.00488-0.07813-0.00879-0.09961-0.03418-0.12793c-0.04199-0.0498-0.10645-0.09668-0.17773-0.15332
					c-0.28809-0.23047-0.72363-0.57715-0.93945-1.26758c-0.08984-0.28809-0.27148-0.48242-0.5-0.72949
					c-0.25977-0.2793-0.5542-0.59668-0.74072-1.09766l0.33252-0.12402l-1.49316-1.38525l0.44092-0.47607l-0.00635-0.00684
					l0.16992-0.16943l0.00635,0.00586l0.47607-0.44092l4.40332,4.74707c0.04199,0.04199,0.16797,0.19043,0.16699,0.40137
					l-0.00098,0.18555l-0.15234,0.17578c-0.20898,0.20898-0.54004,0.19824-0.76953-0.03125l-0.33496-0.31055
					c0.22266,0.38086,0.25977,0.80371,0.09375,1.07813l-0.13867,0.22852L-229.45898,402.80273z"/>
			</g>
			<g>
				<path class="st6" d="M-230.6311,396.41916c0.85938-0.04318,1.23988-0.53024,2.0231-0.43427
					c-0.61923-0.21048-1.0993,0.29617-2.01421,0.26746 M-232.87704,396.97858l4.04147-1.84973l-4.1657,1.5498"/>
			</g>
			<g>
				<path class="st6" d="M-230.65105,397.33728c0.81062,0.28879,1.3488-0.01578,2.03568,0.37268
					c-0.49181-0.43106-1.12907-0.14703-1.9633-0.52374 M-232.9397,396.9939l4.44156-0.16232l-4.44203-0.16217"/>
			</g>
			<g>
				<path class="st6" d="M-231.02042,398.17755c0.63824,0.577,1.25189,0.50153,1.73811,1.12302
					c-0.28973-0.58624-0.98729-0.56775-1.61388-1.23468 M-233.00412,396.98453l4.1658,1.54993l-4.04156-1.84976"/>
			</g>
			<g>
				<path class="st6" d="M-231.6832,398.81256c0.36853,0.77716,0.96405,0.94269,1.17535,1.70276
					c-0.04259-0.65259-0.69421-0.90234-1.01778-1.75839 M-233.05917,396.9512l3.2554,3.02606l-3.02654-3.25543"/>
			</g>
			<g>
				<path class="st5" d="M-230.31125,396.82837c0,1.45621-1.18056,2.63678-2.63675,2.63678s-2.63678-1.18057-2.63678-2.63678
					c0-1.45618,1.18057-2.63675,2.63678-2.63675C-231.49181,394.19162-230.31125,395.37219-230.31125,396.82837
					L-230.31125,396.82837z"/>
			</g>
			<g>
				<path class="st6" d="M-232.94824,400.06445c-1.78467,0-3.23682-1.45117-3.23682-3.23584
					c0-1.78516,1.45215-3.2373,3.23682-3.2373c1.78516,0,3.23633,1.45215,3.23633,3.2373
					C-229.71191,398.61328-231.16309,400.06445-232.94824,400.06445z M-232.94824,394.7915
					c-1.12305,0-2.03662,0.91357-2.03662,2.03711c0,1.12256,0.91357,2.03662,2.03662,2.03662s2.03711-0.91406,2.03711-2.03662
					C-230.91113,395.70508-231.8252,394.7915-232.94824,394.7915z"/>
			</g>
			<g>
				<path class="st7" d="M-232.04935,396.26431c-0.17975,0-0.35226,0.07831-0.4537,0.24051
					c0.203,0.18259,0.65067,0.20218,0.95525-0.02075C-231.6795,396.34216-231.869,396.26431-232.04935,396.26431
					L-232.04935,396.26431z M-232.05206,396.30609c0.17513-0.00333,0.3392,0.07736,0.362,0.15707
					c-0.20302,0.22342-0.52704,0.20395-0.73006,0.04166C-232.33115,396.36304-232.1884,396.30835-232.05206,396.30609
					L-232.05206,396.30609z"/>
			</g>
			<g>
				<path class="st6" d="M-232.01505,396.13913c-0.26317,0-0.3244,0.06122-0.44626,0.16232
					c-0.12149,0.10144-0.18224,0.08105-0.20253,0.10144c-0.0204,0.02042,0,0.08118,0.04022,0.06076
					c0.04082-0.02042,0.12196-0.06076,0.24335-0.1622c0.12198-0.10156,0.24336-0.10156,0.3652-0.10156
					c0.36522,0,0.56773,0.30457,0.60857,0.28418C-231.36615,396.46365-231.6095,396.13913-232.01505,396.13913L-232.01505,396.13913
					z"/>
			</g>
			<g>
				<path class="st6" d="M-231.285,396.26065c-0.46628-0.40555-1.05444-0.46631-1.3793-0.1622
					c-0.07927,0.10654-0.13028,0.22009-0.15117,0.33875c-0.0408,0.23126,0.03157,0.48065,0.21227,0.73645
					c-0.0204,0-0.0611,0.01996-0.08102,0.04034c-0.16138-0.30777-0.21832-0.62433-0.16553-0.92511
					c0.01389-0.07831,0.03571-0.15567,0.06348-0.23077C-232.33992,395.6929-231.73135,395.65207-231.285,396.26065
					L-231.285,396.26065z"/>
			</g>
			<g>
				<path class="st6" d="M-231.87315,396.46317c0,0.10062-0.08162,0.18213-0.18224,0.18213
					c-0.10097,0-0.18262-0.08151-0.18262-0.18213c0-0.10107,0.08163-0.18259,0.18262-0.18259
					C-231.95477,396.28058-231.87315,396.36209-231.87315,396.46317L-231.87315,396.46317z"/>
			</g>
			<g>
				<path class="st6" d="M-231.52788,396.58551c-0.3448,0.26376-0.68971,0.24335-0.89272,0.12149
					c-0.20255-0.12149-0.20255-0.16232-0.1622-0.16232s0.08115,0.04083,0.24335,0.12198
					c0.1622,0.08102,0.40555,0.08102,0.8111-0.08118C-231.52835,396.58548-231.52788,396.58548-231.52788,396.58551z"/>
			</g>
			<g>
				<path class="st6" d="M-233.35118,397.19263c-0.08673,0.01627-0.14832,0.09314-0.14832,0.1813
					c0,0.10049,0.08295,0.18069,0.18344,0.18069c0.0598,0,0.11449-0.02823,0.14832-0.07687
					c0.07048,0.0528,0.16789,0.05838,0.21974,0.05933c0.00783,0,0.01851,0,0.02361,0
					c0.05197-0.00095,0.14926-0.00653,0.21974-0.05933c0.0343,0.04865,0.08853,0.07687,0.14832,0.07687
					c0.10051,0,0.18402-0.0802,0.18402-0.18069c0-0.08817-0.06169-0.16504-0.1483-0.1813
					c0.04865,0.01721,0.07962,0.06445,0.07962,0.11594c0,0.06717-0.05423,0.12137-0.12138,0.12137
					c-0.06442,0-0.11771-0.0509-0.12138-0.11533c-0.01994,0.0394-0.09836,0.1571-0.25212,0.16315
					c-0.15436-0.00604-0.23267-0.12375-0.25214-0.16315c-0.00427,0.06442-0.05707,0.11533-0.12196,0.11533
					c-0.06717,0-0.12138-0.0542-0.12138-0.12137C-233.43138,397.25705-233.39993,397.21033-233.35118,397.19263
					L-233.35118,397.19263z"/>
			</g>
			<g>
				<path class="st6" d="M-233.15291,397.73309c-0.2029,0-0.2831,0.18353-0.46571,0.30542
					c0.10146-0.04034,0.18118-0.12045,0.32297-0.2016c0.1424-0.08118,0.26331,0.01755,0.34445,0.01755h0.00273
					c0.08115,0,0.20206-0.09872,0.34433-0.01755c0.14189,0.08115,0.22484,0.16125,0.32628,0.2016
					c-0.1826-0.12186-0.26601-0.30542-0.46902-0.30542c-0.04034,0-0.12042,0.02182-0.20157,0.06204h-0.00275
					C-233.03236,397.75491-233.11258,397.73309-233.15291,397.73309L-233.15291,397.73309z"/>
			</g>
			<g>
				<path class="st6" d="M-233.2215,397.97311c-0.08008,0.00381-0.18581,0.01947-0.3378,0.0654
					c0.36522-0.08105,0.44542,0.04129,0.60809,0.04129h0.00273c0.1622,0,0.24287-0.12234,0.60808-0.04129
					c-0.40555-0.12186-0.48624-0.04166-0.60808-0.04166h-0.00273C-233.02773,397.99686-233.08801,397.96719-233.2215,397.97311
					L-233.2215,397.97311z"/>
			</g>
			<g>
				<path class="st6" d="M-233.54124,398.03577c-0.02361,0.00046-0.04912,0.00046-0.07689,0.00272
					c0.42584,0.04083,0.22104,0.28513,0.6674,0.28513h0.00273c0.44635,0,0.24429-0.24429,0.67014-0.28513
					c-0.44577-0.04034-0.30493,0.22247-0.67014,0.22247h-0.00273C-233.29327,398.26096-233.18803,398.03162-233.54124,398.03577
					L-233.54124,398.03577z"/>
			</g>
			<g>
				<path class="st6" d="M-232.58279,398.6944c0-0.20172-0.16315-0.36484-0.36473-0.36484s-0.3652,0.16312-0.3652,0.36484
					c0.04033-0.1687,0.19138-0.28833,0.3652-0.28833S-232.62267,398.52567-232.58279,398.6944L-232.58279,398.6944z"/>
			</g>
			<g>
				<path class="st6" d="M-234.58727,396.26065c0.46664-0.40555,1.05432-0.46631,1.3793-0.1622
					c0.07927,0.10654,0.13017,0.22009,0.15105,0.33875c0.04082,0.23126-0.03108,0.48065-0.21228,0.73645
					c0.02042,0,0.06122,0.01996,0.08153,0.04034c0.16089-0.30777,0.21783-0.62433,0.16504-0.92511
					c-0.01389-0.07831-0.03571-0.15567-0.06346-0.23077c-0.44637-0.3652-1.05493-0.40601-1.5007,0.20255H-234.58727
					L-234.58727,396.26065z"/>
			</g>
			<g>
				<path class="st6" d="M-233.85735,396.13913c0.26376,0,0.32439,0.06122,0.44637,0.16232
					c0.12186,0.10144,0.18262,0.08105,0.20255,0.10144c0.0204,0.02042,0,0.08118-0.04034,0.06076s-0.12186-0.06076-0.24335-0.1622
					c-0.12186-0.10156-0.24335-0.10156-0.36522-0.10156c-0.36473,0-0.56773,0.30457-0.60808,0.28418
					C-234.50623,396.46365-234.26288,396.13913-233.85735,396.13913L-233.85735,396.13913z"/>
			</g>
			<g>
				<path class="st7" d="M-233.8699,396.26431c-0.17976,0-0.35217,0.07831-0.45374,0.24051
					c0.20302,0.18259,0.6508,0.20218,0.95526-0.02075C-233.50044,396.34216-233.68956,396.26431-233.8699,396.26431
					L-233.8699,396.26431z M-233.87263,396.30609c0.17525-0.00333,0.33885,0.07736,0.362,0.15707
					c-0.20302,0.22342-0.52705,0.20395-0.73006,0.04166C-234.1517,396.36304-234.00885,396.30835-233.87263,396.30609
					L-233.87263,396.30609z"/>
			</g>
			<g>
				<path class="st6" d="M-233.66357,396.46317c0,0.10062-0.08163,0.18213-0.18213,0.18213c-0.1011,0-0.1826-0.08151-0.1826-0.18213
					c0-0.10107,0.0815-0.18259,0.1826-0.18259C-233.74521,396.28058-233.66357,396.36209-233.66357,396.46317L-233.66357,396.46317z
					"/>
			</g>
			<g>
				<path class="st6" d="M-234.34451,396.58551c0.34491,0.26376,0.68971,0.24335,0.89273,0.12149
					c0.20253-0.12149,0.20253-0.16232,0.16219-0.16232s-0.08104,0.04083-0.24336,0.12198
					c-0.1622,0.08102-0.40555,0.08102-0.8111-0.08118C-234.34406,396.58548-234.34451,396.58548-234.34451,396.58551z"/>
			</g>
		</g>
	</g>
</g>
</svg>
