<?xml version="1.0" encoding="utf-8"?>
<!-- Generator: Adobe Illustrator 19.0.0, SVG Export Plug-In . SVG Version: 6.00 Build 0)  -->
<svg version="1.1" id="Layer_1" xmlns="http://www.w3.org/2000/svg" xmlns:xlink="http://www.w3.org/1999/xlink" x="0px" y="0px"
	 viewBox="-269 374 72 46" style="enable-background:new -269 374 72 46;" xml:space="preserve">
<style type="text/css">
	.st0{clip-path:url(#SVGID_2_);}
	.st1{fill:#003671;}
	.st2{fill:none;stroke:#000000;stroke-width:0.25;}
	.st3{fill:#D32E3F;}
	.st4{fill:#FFFFFF;}
	.st5{fill:#FFED00;}
	.st6{fill:#80612D;}
</style>
<g>
	<defs>
		<path id="SVGID_1_" d="M-203.95834,420h-58.08331c-3.84299,0-6.95834-3.11536-6.95834-6.95831v-32.08334
			c0-3.84299,3.11536-6.95834,6.95834-6.95834h58.08331c3.84299,0,6.95834,3.11536,6.95834,6.95834v32.08334
			C-197,416.88464-200.11536,420-203.95834,420z"/>
	</defs>
	<clipPath id="SVGID_2_">
		<use xlink:href="#SVGID_1_"  style="overflow:visible;"/>
	</clipPath>
	<g class="st0">
		<g>
			<polygon class="st1" points="-195.81142,419.96591 -195.81142,372.86145 -290.02194,372.86145 -290.02194,419.96591 			"/>
		</g>
		<g>
			<path d="M-195.68652,420.09082h-94.46045v-47.35449h94.46045V420.09082z M-289.89697,419.84082h93.96045v-46.85449h-93.96045
				V419.84082z"/>
		</g>
		<g>
			<path class="st1" d="M-242.91589,396.41367"/>
		</g>
		<g>
			<path class="st2" d="M-242.91589,396.41367"/>
		</g>
		<g>
			<polygon class="st3" points="-195.81142,372.86145 -290.02194,396.41367 -195.81142,419.96591 			"/>
		</g>
		<g>
			<path d="M-195.8418,420.08691l-94.21045-23.55225v-0.24219l94.21045-23.55225l0.15527,0.12109v47.10449L-195.8418,420.08691z
				 M-289.50635,396.41357l93.56982,23.39209v-46.78418L-289.50635,396.41357z"/>
		</g>
		<g>
			<polygon class="st4" points="-195.81142,375.29755 -280.30096,396.41367 -195.81142,417.53525 			"/>
		</g>
		<g>
			<path d="M-195.8418,417.65625l-84.48926-21.12158v-0.24219l84.48926-21.11621l0.15527,0.12109v42.23779L-195.8418,417.65625z
				 M-279.78516,396.41357l83.84863,20.96143v-41.91748L-279.78516,396.41357z"/>
		</g>
		<g>
			<path class="st5" d="M-209.42651,401.46692c-0.23863,0.21698-0.70505,1.04132-0.79184,1.73553
				c0.07593,0.4447-0.70503,1.50772-0.82436,1.90903c-0.08676,0.15186-0.19522,0.35797-0.282,0.46643l-3.93744-0.27118
				c-0.17355-0.08679-0.29288-0.28201-0.29288-0.45557c0.4122,0.06509,1.07069-0.39032,1.28763-0.58554
				c-0.02583-0.19534-0.0092-0.46786,0.05737-0.651c0.10851-0.31454,0.4339-0.57489,0.62914-0.70505
				c0.26108-0.15665,0.80347-0.27768,1.10774-0.3757c0.17354-0.21692,0.32407-0.43781,0.62776-1.00183
				c0.07594,0.06503,0.19453,0.15836,0.28441,0.19305c0.33115-0.46902,0.58774-1.01328,0.69182-1.29947
				c0.30371,0.34171,0.81349,0.30371,1.16756,0.19479C-209.67058,400.84866-209.56209,401.2771-209.42651,401.46692
				L-209.42651,401.46692z"/>
		</g>
		<g>
			<path d="M-211.29688,405.64258l-0.03223-0.00195l-3.96094-0.27832c-0.18945-0.09473-0.32715-0.30957-0.32715-0.51074v-0.07324
				l0.07227,0.01172c0.02344,0.00391,0.04785,0.00488,0.07324,0.00488c0.35645,0,0.89063-0.33984,1.13867-0.55469
				c-0.01855-0.18262-0.00684-0.45117,0.06445-0.64746c0.11621-0.33691,0.45898-0.60547,0.65234-0.73535
				c0.19922-0.11914,0.53418-0.21387,0.8291-0.29688c0.10156-0.02832,0.19629-0.05469,0.27637-0.08008
				c0.16699-0.20996,0.31641-0.43359,0.61035-0.97754l0.03613-0.06836l0.05859,0.0498
				c0.08789,0.07422,0.16504,0.12988,0.22363,0.16211c0.29297-0.42578,0.54297-0.9375,0.6543-1.24219l0.03613-0.09863
				l0.06934,0.07813c0.33301,0.37695,0.92773,0.22949,1.10254,0.17676l0.07129-0.02148l0.00879,0.07324
				c0.03125,0.23145,0.13965,0.64551,0.26367,0.81836l0.03223,0.04492l-0.04102,0.03711
				c-0.21582,0.19727-0.68262,1.00488-0.77051,1.68848c0.04395,0.30664-0.25195,0.83594-0.51465,1.30371
				c-0.13965,0.24902-0.27148,0.48535-0.31348,0.62402l-0.06055,0.1123c-0.0752,0.13379-0.16016,0.28613-0.23242,0.37598
				L-211.29688,405.64258z M-215.24414,405.24512l3.88965,0.26855c0.0625-0.08496,0.13574-0.2168,0.20117-0.33398l0.05566-0.09961
				c0.04004-0.13867,0.16895-0.36914,0.31934-0.63672c0.24121-0.43164,0.54297-0.96875,0.49805-1.23047l-0.00195-0.00977
				l0.00098-0.00879c0.08691-0.6875,0.52832-1.47461,0.77441-1.73633c-0.11621-0.19336-0.20703-0.52832-0.24512-0.75879
				c-0.2334,0.06152-0.74512,0.14648-1.09277-0.16113c-0.11133,0.27734-0.34473,0.76953-0.66504,1.22363l-0.02832,0.04004
				l-0.04492-0.01758c-0.06445-0.02539-0.14551-0.07715-0.24414-0.15527c-0.28027,0.5166-0.42871,0.7334-0.59766,0.94434
				l-0.01172,0.01465l-0.01758,0.00586c-0.08496,0.02734-0.18848,0.05664-0.29883,0.08691
				c-0.27344,0.07715-0.61426,0.17383-0.7959,0.28223c-0.14258,0.0957-0.49316,0.35645-0.60156,0.67188
				c-0.05957,0.16309-0.08203,0.41895-0.05566,0.62305l0.00488,0.03223l-0.02441,0.02246
				c-0.22363,0.20117-0.82227,0.60742-1.24805,0.60742c-0.00391,0-0.00781,0-0.01172,0
				C-215.45996,405.0498-215.36523,405.18066-215.24414,405.24512z"/>
		</g>
		<g>
			<path class="st5" d="M-216.51794,402.24261c0,0-4.41963-1.05576-5.0976-1.21445c-0.67799-0.15869-1.3381-1.24246-1.61484-1.84143
				c-1.16879,0.70145-3.26431,0.93994-4.2345,0.89178c0.88943,0.3905,2.65747,1.54028,3.38968,2.69006
				c0.5152-0.4122,1.59003-1.08676,2.26747-0.92575c0.68381,0.16254,5.10297,1.19147,5.10297,1.19147"/>
		</g>
		<g>
			<path d="M-216.71973,403.09473c-0.04395-0.00977-4.42676-1.03027-5.10254-1.19141
				c-0.65918-0.1582-1.69922,0.50195-2.21387,0.91406l-0.05469,0.04297l-0.03711-0.05859
				c-0.74414-1.16797-2.55664-2.3125-3.3623-2.66602l0.02832-0.12012c0.86816,0.04785,3.00977-0.16895,4.19922-0.88281
				l0.05957-0.03613l0.0293,0.06348c0.25684,0.55762,0.91699,1.65332,1.57324,1.80762
				c0.66992,0.15625,5.05371,1.20313,5.09766,1.21387l-0.0293,0.12109c-0.04395-0.01074-4.42773-1.05762-5.09766-1.21387
				c-0.67871-0.15918-1.32813-1.18652-1.62793-1.81348c-1.07422,0.61426-2.84277,0.86914-3.91504,0.87207
				c0.95898,0.48145,2.42676,1.50098,3.1123,2.5293c0.5498-0.42676,1.58691-1.05371,2.26758-0.89453
				c0.67578,0.16113,5.05762,1.18066,5.10254,1.19141L-216.71973,403.09473z"/>
		</g>
		<g>
			<path class="st5" d="M-222.12645,403.18768c-0.0558,0.23529,0.06573,0.2717,0.28473,0.31683
				c0.10439,0.02155,0.27913,0.05978,0.45148,0.10291c0.21692,0.05426,0.34801,0.09399,0.40172-0.14178l0.83299-3.55341
				c0.05669-0.23505-0.0784-0.25775-0.29683-0.30554c-0.17358-0.03796-0.34711-0.08136-0.45013-0.10846
				c-0.21626-0.05692-0.34134-0.07831-0.39594,0.15726L-222.12645,403.18768L-222.12645,403.18768z"/>
		</g>
		<g>
			<path d="M-221.16797,403.71191c-0.06543,0-0.13867-0.01855-0.22266-0.04004l-0.01563-0.00391
				c-0.1709-0.04297-0.34375-0.08008-0.44824-0.10156c-0.14844-0.03125-0.25781-0.06055-0.31348-0.14844
				c-0.03809-0.06055-0.04395-0.13867-0.01855-0.24512l0.82715-3.53223c0.02441-0.10645,0.06445-0.17383,0.12598-0.20996
				c0.08887-0.05469,0.19922-0.03223,0.34668,0.00684c0.10254,0.02734,0.27539,0.07031,0.44824,0.10742l0.01758,0.00488
				c0.1416,0.03027,0.25293,0.05469,0.30859,0.14453c0.03613,0.05762,0.04199,0.13184,0.01758,0.23242l-0.83301,3.55371
				c-0.02246,0.10059-0.06055,0.16406-0.11914,0.2002C-221.08301,403.70313-221.12402,403.71191-221.16797,403.71191z
				 M-221.10645,399.52344c-0.02539,0-0.0459,0.00391-0.0625,0.01367c-0.03027,0.01855-0.05273,0.06152-0.06934,0.13184
				l-0.82715,3.5332c-0.0166,0.07031-0.01563,0.11914,0.00293,0.14941c0.0293,0.0459,0.11523,0.06738,0.2334,0.0918
				c0.10449,0.02148,0.28125,0.06055,0.4541,0.10352l0.01563,0.00391c0.1123,0.0293,0.20117,0.05176,0.24707,0.02246
				c0.02734-0.0166,0.04785-0.05566,0.06348-0.12109l0.83301-3.55469c0.01563-0.06543,0.01465-0.10938-0.00195-0.13672
				c-0.02832-0.04492-0.11719-0.06445-0.22949-0.08887l-0.01855-0.00391c-0.18164-0.04004-0.35742-0.08398-0.45215-0.10938
				C-220.99316,399.53906-221.05762,399.52344-221.10645,399.52344z"/>
		</g>
		<g>
			<path class="st5" d="M-220.05469,403.04559c-0.0374,0.16415-0.12868,0.13654-0.27974,0.09872
				c-0.12-0.03003-0.24167-0.05664-0.31432-0.07162c-0.1525-0.03143-0.23712-0.05682-0.1983-0.22061l0.54561-2.32727
				c0.03801-0.16403,0.12509-0.14914,0.27565-0.10956c0.07176,0.01892,0.19263,0.0491,0.31345,0.07553
				c0.15211,0.03329,0.24615,0.04907,0.20668,0.21277L-220.05469,403.04559L-220.05469,403.04559z"/>
		</g>
		<g>
			<path d="M-220.17969,403.23535c-0.04688,0-0.09863-0.0127-0.15527-0.02637c-0.13281-0.03418-0.25391-0.05957-0.3252-0.0752
				c-0.0918-0.01855-0.18555-0.03809-0.23145-0.11133c-0.03027-0.0459-0.03516-0.10547-0.01563-0.18457l0.54492-2.32813
				c0.01855-0.0791,0.04883-0.12988,0.0957-0.1582c0.07422-0.04297,0.16797-0.01953,0.25684,0.00293
				c0.07129,0.01953,0.19141,0.04883,0.31152,0.07617c0.11133,0.02344,0.19629,0.04199,0.23926,0.11133
				c0.02734,0.04492,0.03223,0.10156,0.01367,0.17578l-0.54883,2.34277c-0.0166,0.0752-0.0459,0.12305-0.09082,0.15039
				C-220.11328,403.22852-220.14551,403.23535-220.17969,403.23535z M-220.16895,400.45215
				c-0.01367,0-0.02441,0.00195-0.03223,0.00684c-0.02051,0.01172-0.0332,0.0498-0.04004,0.0791l-0.54492,2.3291
				c-0.00684,0.0293-0.0127,0.06934,0,0.08887c0.0166,0.02539,0.07813,0.04004,0.15039,0.05469
				c0.0752,0.0166,0.19727,0.04297,0.31738,0.07324c0.08008,0.02051,0.14355,0.0332,0.16797,0.02051
				c0.01367-0.00879,0.02637-0.0332,0.03516-0.07227v-0.00098l0.54883-2.34277c0.00977-0.03906,0.00977-0.06641,0.00098-0.08008
				c-0.01465-0.02441-0.0791-0.03809-0.14648-0.05371c-0.13574-0.03027-0.25781-0.05957-0.33008-0.0791
				C-220.0918,400.46289-220.13672,400.45215-220.16895,400.45215z"/>
		</g>
		<g>
			<path class="st5" d="M-203.21439,405.30286l-10.80783-2.49762c-0.53468-0.14139-1.78275-0.94675-2.00037-1.4884
				c-0.21759-0.54166-0.59857,0.38297-0.79065,1.26733c-0.19211,0.88434-0.28204,1.8765,0.15186,1.48602
				c0.43387-0.3905,1.90906-0.56403,2.45135-0.45557l10.80353,2.51645
				C-203.14615,406.18533-202.96803,405.36407-203.21439,405.30286L-203.21439,405.30286z"/>
		</g>
		<g>
			<path d="M-203.37891,406.19629c-0.01367,0-0.02637-0.00098-0.04004-0.00391l-10.80566-2.51758
				c-0.54297-0.10742-1.98828,0.0752-2.39453,0.44238c-0.10938,0.09766-0.20605,0.12891-0.28418,0.08301
				c-0.25-0.14551-0.08984-1.08301,0.02832-1.62988c0.03223-0.14746,0.3252-1.44629,0.68652-1.47656
				c0.00488-0.00098,0.00977-0.00098,0.01465-0.00098c0.08496,0,0.15625,0.06738,0.20898,0.2002
				c0.2041,0.50781,1.41992,1.30957,1.95801,1.45215l10.80664,2.49707c0.17188,0.04297,0.19336,0.30078,0.13965,0.53711
				C-203.10645,405.97852-203.21582,406.19629-203.37891,406.19629z M-214.61328,403.52148
				c0.16797,0,0.31152,0.01074,0.41602,0.03125l10.80566,2.51758c0.00293,0,0.00684,0.00098,0.00977,0.00098
				c0.07031,0,0.15723-0.13867,0.19922-0.32031c0.04395-0.19238,0.02246-0.36914-0.04688-0.3877l-10.80664-2.49707
				c-0.51563-0.13574-1.81055-0.94531-2.04395-1.52637c-0.03125-0.07715-0.06641-0.12207-0.0957-0.12207
				c-0.00098,0-0.00098,0-0.00195,0c-0.13477,0.01172-0.39844,0.56836-0.57422,1.37988
				c-0.19531,0.90137-0.19238,1.43359-0.08887,1.49414c0.02246,0.01172,0.07617-0.0127,0.1377-0.06836
				C-216.33105,403.68848-215.2832,403.52148-214.61328,403.52148z"/>
		</g>
		<g>
			<path class="st5" d="M-218.76563,405.85342l14.66228,1.05701c0.26558,0.01328,0.31435-0.82565,0.06148-0.84799l-14.6636-1.03769
				L-218.76563,405.85342L-218.76563,405.85342z"/>
		</g>
		<g>
			<path d="M-204.0957,406.97266c-0.00391,0-0.00781,0-0.01074,0l-14.72559-1.06152l0.00391-0.0625l0.06543-0.89063l0.0625,0.00391
				L-204.03711,406c0.17676,0.01563,0.23828,0.2666,0.2207,0.50879C-203.83105,406.72461-203.91406,406.97266-204.0957,406.97266z
				 M-218.69922,405.7959l14.60059,1.05176c0.00098,0,0.00098,0,0.00195,0c0.07324,0,0.1416-0.15137,0.15527-0.34766
				c0.01465-0.19727-0.03418-0.36914-0.10645-0.375l-14.59961-1.03418L-218.69922,405.7959z"/>
		</g>
		<g>
			<path class="st5" d="M-209.93633,408.21371c0.34712,0.30368,1.73549,0.9545,2.29955,1.08469
				c-0.60742,0.30371-2.21278,0-2.77679-0.26031c0.17357,0.43384,0.86775,1.08469,1.43179,1.34497
				c-0.91113,0.60742-1.99582-0.30371-2.64664-1.17145c0.21692,0.26035,0.34708,1.04132,0.21692,1.30167
				c-0.52066-0.95456-2.03922-1.64874-2.86356-1.77893c0.69418,0.21695,0.78094,0.82437,0.73758,1.12811
				c-0.69423-0.69424-1.38841-0.56406-1.56195,0.08676c-0.60745-1.30164-2.29953-1.69214-3.21069-1.69214
				c-0.91113,0-0.6508-0.73758-2.25616-0.82434c-1.04787-0.05664-1.17146-1.17148-1.90906-1.56198
				c-0.73759-0.39047-0.43387-0.73758-0.13013-1.12805c0.30368-0.3905,0.91113-0.52069,1.17145-0.17358
				c0.26033,0.34714,0.86774-0.52063,1.47519-0.04337c0.28951,0.22745,0.43387,0.56403,0.73758,0
				c0.3037-0.56406,1.07664,0.33563,1.38843,0.78098c0.15182,0.21695,0.2169,0.45557,0.04337,0.54236
				c-0.17357,0.08676-0.32542,0.32538-0.17357,0.47726c0.15187,0.15186-0.17352,0.32541-0.43385,0.32541
				c1.77887,0.3905,4.27368,0.36877,5.07632,0.23865c-0.08679,0.15186-0.28201,0.45554-0.45557,0.54233
				c0.80269,0.06506,2.69,0.15186,3.51437-0.45557c-0.04337,0.23862-0.15184,0.67249-0.28201,0.80267
				c0.34711,0.06506,1.82228,0.0217,2.21278-0.08679C-208.50453,408.01843-208.9167,408.34384-209.93633,408.21371
				L-209.93633,408.21371z"/>
		</g>
		<g>
			<path d="M-211.4082,410.64844l-0.05762-0.10449c-0.41895-0.76758-1.52441-1.38086-2.36328-1.63867
				c0.33594,0.28906,0.38965,0.71094,0.35352,0.96582l-0.01758,0.12402l-0.08789-0.08887
				c-0.35059-0.35059-0.71875-0.50781-1.02441-0.4248c-0.21094,0.05664-0.36523,0.22852-0.43359,0.48438l-0.04492,0.16602
				l-0.07227-0.15625c-0.61133-1.31055-2.33105-1.65625-3.1543-1.65625c-0.4209,0-0.61426-0.15625-0.81738-0.32227
				c-0.2627-0.21289-0.56055-0.4541-1.44141-0.50195c-0.65625-0.03516-0.96484-0.46484-1.26367-0.87988
				c-0.19922-0.27734-0.3877-0.53809-0.67188-0.68848c-0.28711-0.15234-0.44434-0.3125-0.48242-0.48926
				c-0.05078-0.24219,0.12207-0.46387,0.30566-0.69824l0.02734-0.03418c0.18848-0.24316,0.49512-0.39941,0.7832-0.39941
				c0.00195,0,0.00488,0,0.00684,0c0.20215,0.00098,0.37207,0.08203,0.48047,0.22656
				c0.08008,0.10547,0.21094,0.05469,0.43945-0.0498c0.27734-0.125,0.65234-0.2959,1.02441-0.00586
				c0.05664,0.04395,0.10742,0.09277,0.15625,0.13867c0.08789,0.08398,0.16602,0.15723,0.23242,0.15723
				c0.00391,0,0.00879-0.00098,0.01367-0.00098c0.06738-0.01074,0.14844-0.10352,0.24121-0.27539
				c0.07129-0.13379,0.17285-0.20508,0.30078-0.21289c0.00684,0,0.01367,0,0.02051,0c0.46875,0,1.10156,0.88477,1.17285,0.9873
				c0.07422,0.10547,0.19238,0.30859,0.15039,0.47656c-0.01758,0.06934-0.0625,0.12402-0.12988,0.15723
				c-0.10059,0.05078-0.18457,0.1543-0.19922,0.24609c-0.00781,0.05273,0.00586,0.09473,0.04199,0.13184
				c0.05566,0.05566,0.07129,0.12305,0.04395,0.18945c-0.03125,0.07422-0.11328,0.13574-0.21387,0.17871
				c1.75781,0.33008,4.02539,0.29688,4.75879,0.17871l0.12891-0.02148l-0.06543,0.11426
				c-0.05957,0.10449-0.19238,0.32031-0.33984,0.46094c0.99121,0.07129,2.57813,0.08203,3.30762-0.45605l0.12695-0.09277
				l-0.02832,0.1543c-0.00391,0.02344-0.0918,0.5-0.23145,0.74316c0.46289,0.04297,1.7373-0.00293,2.08398-0.09863l0.14063-0.03906
				l-0.06934,0.12891c-0.20703,0.3877-0.61816,0.58301-1.22559,0.58301c-0.06836,0-0.13867-0.00195-0.21094-0.00684
				c0.5,0.32129,1.60449,0.82617,2.08984,0.93945l0.16992,0.03906l-0.15527,0.07715
				c-0.57129,0.28613-1.99805,0.05273-2.6748-0.19531c0.24219,0.40918,0.83594,0.94043,1.32813,1.16699l0.10156,0.04688
				l-0.09277,0.06152c-0.79102,0.52734-1.72363-0.0293-2.43359-0.82031c0.09277,0.33789,0.11621,0.74316,0.02441,0.92773
				L-211.4082,410.64844z M-211.55078,409.21191c0.66602,0.87109,1.63574,1.60449,2.43945,1.17676
				c-0.5625-0.29492-1.19043-0.90234-1.35938-1.32715l-0.05859-0.14648l0.14258,0.06641
				c0.51855,0.24023,1.87695,0.49512,2.54492,0.3252c-0.65332-0.20703-1.81934-0.76953-2.13574-1.0459l-0.1543-0.13477
				l0.20313,0.02637c0.71777,0.08691,1.20801-0.0332,1.46484-0.36816c-0.53125,0.08594-1.77051,0.11914-2.0918,0.05762
				l-0.11621-0.02148l0.08398-0.08398c0.08496-0.08594,0.17578-0.35742,0.23535-0.62402
				c-0.85254,0.50488-2.49414,0.45703-3.42871,0.38281l-0.22266-0.01855l0.19922-0.09961
				c0.11328-0.05664,0.25195-0.23145,0.36328-0.40625c-0.90625,0.10938-3.25391,0.11719-4.96875-0.25781l0.01367-0.12402
				c0.18164,0,0.375-0.09082,0.40625-0.16504c0.00391-0.00977,0.01074-0.02637-0.0166-0.05371
				c-0.06543-0.06445-0.0918-0.14746-0.07715-0.23926c0.02051-0.13086,0.13086-0.27051,0.2666-0.33789
				c0.03516-0.01758,0.05566-0.04199,0.06445-0.07715c0.02148-0.08594-0.02734-0.22559-0.13086-0.37305
				c-0.31836-0.4541-0.78516-0.93457-1.07031-0.93457c-0.00488,0-0.00977,0-0.01465,0
				c-0.08301,0.00488-0.14746,0.05273-0.19824,0.14648c-0.11621,0.2168-0.21875,0.32227-0.33105,0.33984
				c-0.01172,0.00195-0.02344,0.00293-0.03418,0.00293c-0.11523,0-0.21387-0.09375-0.31738-0.19141
				c-0.0459-0.04297-0.09375-0.08887-0.14844-0.13184c-0.30957-0.24121-0.62109-0.10156-0.89453,0.02246
				c-0.22949,0.10352-0.44727,0.20313-0.59082,0.00977c-0.1084-0.14355-0.26758-0.1748-0.38184-0.17578
				c-0.00195,0-0.00391,0-0.00586,0c-0.25098,0-0.51855,0.13672-0.68457,0.35059l-0.02734,0.03516
				c-0.16504,0.21094-0.32129,0.41016-0.28223,0.59473c0.03027,0.13867,0.16699,0.27148,0.41895,0.4043
				c0.31055,0.16406,0.51563,0.4502,0.71484,0.72656c0.29395,0.40918,0.57227,0.7959,1.16797,0.82813
				c0.92285,0.0498,1.25098,0.31641,1.51367,0.53027c0.20215,0.16406,0.3623,0.29395,0.73926,0.29395
				c0.82324,0,2.51172,0.33789,3.2002,1.59473c0.0957-0.22168,0.25977-0.37109,0.47266-0.42871
				c0.31543-0.08594,0.69141,0.04785,1.04688,0.36523c0-0.31055-0.14648-0.75781-0.70313-0.93164l0.02832-0.12109
				c0.82129,0.12891,2.25586,0.79492,2.83496,1.68652c0.04492-0.29688-0.05957-0.83887-0.21973-1.07227
				c-0.00977-0.0127-0.01855-0.02539-0.02832-0.03809l0.09766-0.07715
				C-211.57031,409.18457-211.56055,409.19727-211.55078,409.21191z"/>
		</g>
		<g>
			<path class="st5" d="M-210.63707,403.72714c-0.09613,0.42679-0.05632,0.74432-0.65337,0.68771
				c-0.06815,0.2941,0.12112,0.75589,0.47636,0.76056c0.48737,0.00644,0.83954-0.54593,0.9447-1.00223
				c0.06984-0.30307,0.09456-0.89688-0.22849-0.96115C-210.39685,403.15256-210.53894,403.29147-210.63707,403.72714
				L-210.63707,403.72714z"/>
		</g>
		<g>
			<path d="M-210.80664,405.23828c-0.00293,0-0.00586,0-0.00879,0c-0.14844-0.00195-0.28125-0.07324-0.38477-0.2041
				c-0.13574-0.17285-0.19727-0.43359-0.15039-0.63281l0.01172-0.05371l0.05469,0.00488
				c0.45117,0.0498,0.48828-0.12402,0.55078-0.46289c0.01074-0.05566,0.02148-0.11523,0.03613-0.17578l0,0
				c0.08789-0.39355,0.22266-0.63477,0.6123-0.56348c0.08887,0.01758,0.16113,0.06934,0.21582,0.15234
				c0.15332,0.23828,0.10742,0.68262,0.06055,0.88379C-209.92871,404.71094-210.31055,405.23828-210.80664,405.23828z
				 M-211.23828,404.48145c-0.0166,0.15625,0.03613,0.34766,0.13672,0.47559c0.05469,0.07031,0.14941,0.1543,0.28809,0.15625
				c0.00195,0,0.00391,0,0.00684,0c0.42578,0,0.76953-0.49023,0.87695-0.9541c0.04883-0.21387,0.07715-0.60059-0.04492-0.78809
				c-0.03516-0.05469-0.0791-0.08691-0.13574-0.09766c-0.23438-0.04688-0.36426,0.01465-0.46582,0.46777l0,0
				c-0.0127,0.05957-0.02344,0.11719-0.03418,0.1709c-0.05762,0.30469-0.10742,0.57129-0.55566,0.57129
				C-211.18848,404.4834-211.21289,404.4834-211.23828,404.48145z"/>
		</g>
		<g>
			<path class="st5" d="M-211.43629,403.63416c-0.10713,0.47562-0.06276,0.8295-0.72809,0.76639
				c-0.07597,0.32773,0.13498,0.84232,0.53082,0.84753c0.54311,0.00717,0.93553-0.6084,1.05272-1.11685
				c0.07782-0.33774,0.10535-0.99939-0.25461-1.07101C-211.16866,402.99387-211.32697,403.14871-211.43629,403.63416
				L-211.43629,403.63416z"/>
		</g>
		<g>
			<path d="M-211.625,405.31055c-0.00293,0-0.00586,0-0.00977,0c-0.16309-0.00195-0.30957-0.08008-0.42383-0.22461
				c-0.14941-0.19043-0.21777-0.47852-0.16602-0.69922l0.01172-0.05371l0.05469,0.00488
				c0.51855,0.05078,0.55273-0.15332,0.62207-0.52441c0.01172-0.06152,0.02344-0.12598,0.03906-0.19336l0,0
				c0.09668-0.43359,0.24805-0.70313,0.67383-0.62109c0.09766,0.01953,0.17773,0.0752,0.23633,0.16699
				c0.1709,0.26465,0.11816,0.75586,0.06641,0.97852C-210.6543,404.72559-211.07617,405.31055-211.625,405.31055z
				 M-212.1123,404.4668c-0.02148,0.17773,0.03809,0.39648,0.15234,0.54199c0.0625,0.08008,0.16992,0.1748,0.32715,0.17676
				c0.00195,0,0.00488,0,0.00781,0c0.47852,0,0.86328-0.54883,0.9834-1.06836c0.05469-0.23926,0.08691-0.6709-0.05078-0.88379
				c-0.04004-0.0625-0.09082-0.09863-0.1543-0.11133c-0.26367-0.05664-0.41309,0.0166-0.5293,0.52539
				c-0.01465,0.06543-0.02637,0.12891-0.03711,0.18945c-0.06348,0.33789-0.11816,0.63281-0.6123,0.63281
				C-212.05371,404.46973-212.08203,404.46875-212.1123,404.4668z"/>
		</g>
		<g>
			<path class="st5" d="M-212.21416,403.34344c-0.17001,0.45694-0.17354,0.81354-0.82434,0.66168
				c-0.11932,0.31454,0.0206,0.85281,0.41219,0.91113c0.53722,0.07999,1.00876-0.47726,1.19312-0.96539
				c0.1225-0.32422,0.23865-0.9762-0.10846-1.09552C-211.86295,402.7449-212.0406,402.87701-212.21416,403.34344
				L-212.21416,403.34344z"/>
		</g>
		<g>
			<path d="M-212.51758,404.98633c-0.03906,0-0.07813-0.00293-0.11719-0.00879c-0.16211-0.02344-0.29785-0.12012-0.39063-0.2793
				c-0.12305-0.20996-0.15234-0.50391-0.07129-0.71582l0.01953-0.05078l0.05371,0.0127
				c0.50391,0.11816,0.56836-0.08008,0.68652-0.43555c0.01953-0.05957,0.04004-0.12207,0.06445-0.18652l0,0
				c0.15527-0.41699,0.3457-0.66309,0.75098-0.52637c0.09473,0.0332,0.16602,0.09961,0.21191,0.19727
				c0.13379,0.28613,0.01563,0.76563-0.06543,0.98047C-211.53516,404.39746-211.96191,404.98633-212.51758,404.98633z
				 M-212.99609,404.07813c-0.04492,0.17188-0.01563,0.39648,0.07813,0.55664c0.05176,0.08691,0.14551,0.19629,0.30078,0.21973
				c0.03125,0.00391,0.0625,0.00684,0.09277,0.00684c0.44434,0,0.85645-0.46289,1.03223-0.93262
				c0.08691-0.22852,0.17676-0.65234,0.06934-0.88184c-0.03125-0.06738-0.07715-0.11133-0.13965-0.13184
				c-0.24414-0.08789-0.41211-0.03809-0.59277,0.4502l0,0c-0.02344,0.06348-0.04395,0.125-0.06348,0.18359
				C-212.33203,403.8916-212.43164,404.19141-212.99609,404.07813z"/>
		</g>
		<g>
			<path class="st5" d="M-212.97343,403.05057c-0.17,0.45691-0.17358,0.81351-0.8244,0.66168
				c-0.11928,0.31454,0.02063,0.85284,0.41219,0.91113c0.50981,0.07593,0.94371-0.4339,1.18231-0.92197
				c0.16409-0.3356,0.29724-1.00098-0.05423-1.10638C-212.58296,402.49741-212.79988,402.58417-212.97343,403.05057
				L-212.97343,403.05057z"/>
		</g>
		<g>
			<path d="M-213.28516,404.69336c-0.03613,0-0.07324-0.00293-0.10938-0.00879c-0.16211-0.02344-0.29688-0.12012-0.38965-0.27832
				c-0.12305-0.20898-0.15234-0.50391-0.07227-0.7168l0.01953-0.05078l0.05371,0.0127
				c0.50391,0.11914,0.56836-0.08008,0.68652-0.43555c0.01953-0.05957,0.04004-0.12207,0.06445-0.18652l0,0
				c0.17188-0.46387,0.41309-0.6123,0.79199-0.49414c0.09961,0.0293,0.17188,0.09668,0.2168,0.19824
				c0.125,0.28613-0.00977,0.7627-0.12402,0.99512C-212.38184,404.20801-212.79688,404.69336-213.28516,404.69336z
				 M-213.75586,403.78516c-0.04492,0.17285-0.01465,0.39844,0.0791,0.55762c0.05078,0.08691,0.14453,0.19531,0.2998,0.21875
				c0.03125,0.00391,0.06152,0.00684,0.0918,0.00684c0.43164,0,0.80859-0.45117,1.02637-0.89453
				c0.12891-0.26465,0.21289-0.68066,0.12109-0.88965c-0.03027-0.06836-0.0752-0.11035-0.1377-0.12988
				c-0.27441-0.0791-0.46875-0.04102-0.63965,0.41797c-0.02344,0.06348-0.04395,0.125-0.06348,0.18359
				C-213.0918,403.59863-213.19043,403.89844-213.75586,403.78516z"/>
		</g>
		<g>
			<path class="st5" d="M-211.92128,405.20911c-0.48814,0.24948-0.90575,1.53735-0.27118,1.67041
				C-211.51997,407.02054-211.54535,405.56421-211.92128,405.20911L-211.92128,405.20911z"/>
		</g>
		<g>
			<path d="M-212.10547,406.95215c-0.03223,0-0.06543-0.00391-0.09961-0.01074c-0.20313-0.04297-0.33203-0.19727-0.36426-0.43457
				c-0.0625-0.47168,0.25586-1.16699,0.62012-1.35352l0.03906-0.02051l0.03223,0.03027
				c0.29395,0.27832,0.38086,1.10547,0.16113,1.52637C-211.80664,406.86133-211.94238,406.95215-212.10547,406.95215z
				 M-211.93262,405.28809c-0.29785,0.19238-0.56543,0.80762-0.5127,1.20215c0.02539,0.18555,0.11426,0.29688,0.26563,0.32813
				c0.15332,0.03613,0.27051-0.03027,0.35156-0.18652C-211.64453,406.28027-211.70605,405.55762-211.93262,405.28809z"/>
		</g>
		<g>
			<path class="st5" d="M-212.61551,405.11148c-0.4881,0.24948-0.98166,1.48312-0.34709,1.61618
				C-212.2901,406.86865-212.23953,405.46655-212.61551,405.11148L-212.61551,405.11148z"/>
		</g>
		<g>
			<path d="M-212.87109,406.7998c-0.03418,0-0.06934-0.00391-0.10449-0.01074c-0.19336-0.04102-0.31543-0.17969-0.34375-0.39063
				c-0.05957-0.44531,0.29395-1.14746,0.67578-1.34277l0.03906-0.02051l0.03223,0.03027
				c0.27441,0.25977,0.33887,1.03027,0.12109,1.44629C-212.5498,406.7002-212.69629,406.7998-212.87109,406.7998z
				 M-212.62695,405.19043c-0.31641,0.19922-0.61816,0.82031-0.56836,1.19141c0.02148,0.15918,0.10449,0.25488,0.24512,0.28418
				c0.16699,0.03809,0.2959-0.03613,0.38867-0.21191C-212.37695,406.10156-212.41602,405.44434-212.62695,405.19043z"/>
		</g>
		<g>
			<path class="st5" d="M-213.32056,405.01385c-0.4881,0.24948-1.04675,1.49399-0.41219,1.62704
				C-213.06024,406.78189-212.94458,405.36893-213.32056,405.01385L-213.32056,405.01385z"/>
		</g>
		<g>
			<path d="M-213.64063,406.71289c-0.03418,0-0.06934-0.00391-0.10449-0.01074c-0.1875-0.04004-0.30078-0.16602-0.32813-0.36719
				c-0.05762-0.43066,0.33496-1.17773,0.72461-1.37695l0.03906-0.02051l0.03223,0.03027
				c0.27148,0.25684,0.31445,0.99219,0.08496,1.43066C-213.2998,406.60449-213.45703,406.71289-213.64063,406.71289z
				 M-213.33203,405.09277c-0.33398,0.20703-0.66699,0.85742-0.61719,1.22559c0.01953,0.14746,0.09473,0.2334,0.22949,0.26074
				c0.17773,0.03711,0.31348-0.04395,0.41699-0.23926C-213.1123,405.97559-213.13184,405.33789-213.33203,405.09277z"/>
		</g>
		<g>
			<path class="st5" d="M-213.99893,404.94009c-0.51559,0.18622-1.16016,1.34811-0.5473,1.55978
				C-213.89677,406.72424-213.67056,405.33954-213.99893,404.94009L-213.99893,404.94009z"/>
		</g>
		<g>
			<path d="M-214.40918,406.58691c-0.05078,0-0.10352-0.00879-0.15723-0.02832c-0.18652-0.06445-0.29102-0.21777-0.29199-0.43164
				c-0.00293-0.44922,0.43555-1.10059,0.83789-1.24512l0.04199-0.01465l0.02734,0.0332
				c0.24023,0.29199,0.20801,1.06445-0.06055,1.4502C-214.12012,406.50586-214.25781,406.58691-214.40918,406.58691z
				 M-214.02051,405.0166c-0.33887,0.15723-0.71484,0.73438-0.71289,1.10938c0.00098,0.16211,0.07129,0.26758,0.20801,0.31543
				c0.1543,0.05273,0.29785,0,0.41113-0.16211C-213.88672,405.95215-213.84375,405.2959-214.02051,405.0166z"/>
		</g>
		<g>
			<path class="st6" d="M-216.27087,395.3764c0.29333-0.06284,0.8528-0.12018,1.36662-0.1481
				c0.73759,0.04337,1.27898,1.0538,2.19115,1.0538c0.01083,0.24948,0.19524,0.88947,0.73759,0.95456
				c-0.06508,0.34711-0.10851,0.78098,0.26033,0.99789c-0.21696,0.32544-0.34714,1.01962-0.06509,1.21484
				c-0.08678,0.21695-0.17355,0.69421,0.06509,0.91116c-0.21696,0.30371-0.47726,0.9111-0.13019,1.17148
				c0.08678,0.08676,0.18471,0.15201,0.2823,0.19543c0.33205-0.46964,0.58968-1.01514,0.69392-1.30185
				c0.26031,0.30371,0.73369,0.32495,1.16756,0.19479c0.10008,0.7189,0.48505,1.38779,1.19707,1.77933
				c-0.13019-0.36877-0.23863-0.82434,0.13016-1.23654c0.30371,0.15186,0.82436,0.30374,1.06299,0.28204
				c-0.36877-0.28204-0.39049-0.95453-0.21692-1.34503c0.39046,0.28204,1.12805,0.4339,1.51855,0.3688
				c-0.52065-0.30371-0.78096-1.27994-0.99791-1.64874c0.43387,0.08679,1.30162,0.32544,1.49687,0.75931
				c0.06506-0.43387-0.04338-0.95456-0.3905-1.25824c0.82436,0,1.21486-0.49896,1.54027-1.17151
				c-0.41219,0.19528-0.84605,0.08682-1.41008,0.21698c0.39049-0.10849,0.73759-0.60742,0.93283-0.91116
				c-0.3688,0.17355-1.0847,0.23865-1.43179,0.0217c0.43387-0.06506,1.45346-0.32541,1.84396-0.86774
				c-0.9545-0.08676-0.67218-1.14697-1.62671-1.08185c0.63947-0.07349,1.31268-0.03107,1.7352,0.10565
				c0.42905,0.13879,0.76492,0.12775,0.89314-0.01077c0.47725,0.04337,3.35881,0.5314,4.1181,0.72665
				s1.04674-0.33899,0.78642-0.79453c0.69418-0.21695,0.68875-0.91928,0.4501-1.13623
				c0.69421-0.06509,0.52188-0.96622,0.16937-1.10724c0.15611-0.11182,0.23291-0.24069,0.22113-0.38962
				c-0.01483-0.18823-0.11435-0.30594-0.2856-0.36893c0.05077-0.37216,0.09189-0.82327-0.40852-0.91135
				c-0.02173-0.43387-0.19531-0.65048-0.65088-0.80234c-0.46248-0.15417-1.12805,0.06509-1.84398,0.28201
				c-0.73634,0.22314-1.76637,0.29498-2.786,0.36008c-0.76315-0.34482-2.60083-0.5925-3.14178-0.71274
				c0.28815,0.06955,0.76772-0.19693,1.61073-0.69946c0.4041-0.24091,0.79204-0.47501,0.97472-0.68472
				c0.36877-0.17355,1.19464-0.62778,1.49837-0.80136c0.30373-0.17352,0.81351-0.52606,0.50438-0.82974
				c0.27028-0.15768,0.51973-0.4335,0.3634-0.63455c0.3308-0.14102,0.43929-0.54233,0.28201-0.70505
				c0.45558-0.17355,0.62595-0.45438,0.56091-0.77975c0.42749-0.17435,0.71268-0.48044,0.61934-0.8912
				c0.28719-0.25018,0.34155-0.59827,0.25148-0.88354c0.32275-0.25784,0.45792-0.60327,0.37933-0.96024
				c0.30887-0.29102,0.36467-0.82718,0.08716-1.06265c0.28198-0.37964,0.42299-1.18228-0.59662-0.69421
				c-0.91025,0.43579-2.63701,1.08984-3.28781,1.22c-0.03474-0.32452-0.40668-0.30554-0.92076-0.04852
				c-0.69426,0.34708-2.0412,0.73773-2.73538,0.82449c-0.00984-0.15057-0.03928-0.29721-0.08485-0.43402
				c-0.82436,0.60745-3.2946,1.47519-4.07556,1.64874c0.00293-0.24405-0.02899-0.46875-0.08966-0.65082
				c-0.34709,1.08469-2.73341,1.34503-4.29536,1.7355c-1.47736,0.36932-4.1245,1.29993-2.89647,3.43869
				c-0.75926,1.12805-2.35739,1.53967-2.7222,2.15829c-0.49896,0.84607-0.0961,1.64127,0.80263,1.7572
				c1.34505,0.17352,2.09875-1.33688,3.33531-0.85965c0.25502,0.55597-1.11168,1.12-0.38495,2.89886
				C-216.9265,395.51819-216.63971,395.40353-216.27087,395.3764L-216.27087,395.3764z"/>
		</g>
		<g>
			<path d="M-208.3916,402.5332l-0.14355-0.0791c-0.66016-0.36328-1.09082-0.98438-1.2168-1.75488
				c-0.44727,0.11816-0.84473,0.05957-1.09375-0.16016c-0.13086,0.32715-0.37988,0.81934-0.66699,1.22461l-0.0293,0.04199
				l-0.04688-0.02148c-0.1123-0.0498-0.21289-0.12012-0.30078-0.20801c-0.35254-0.26465-0.14648-0.85156,0.09375-1.20898
				c-0.2168-0.25098-0.12891-0.69434-0.05859-0.89746c-0.2627-0.24512-0.13379-0.88672,0.05469-1.21582
				c-0.31543-0.22363-0.31055-0.60547-0.24805-0.96582c-0.4873-0.10107-0.68945-0.63916-0.72266-0.94482
				c-0.48242-0.021-0.85547-0.3042-1.21582-0.57861c-0.30762-0.23389-0.59863-0.45508-0.92188-0.47363
				c-0.53223,0.0293-1.07715,0.08789-1.34961,0.14648l-0.00781,0.00146l-0.05371,0.00391
				c-0.36426,0.0293-0.68164,0.06055-1.35449-1.58887c-0.47363-1.15918-0.08301-1.81006,0.20215-2.28516
				c0.14551-0.24316,0.25293-0.42188,0.19238-0.58838c-0.61035-0.22363-1.10938,0.06494-1.63379,0.37109
				c-0.49414,0.28809-1.00586,0.58252-1.66113,0.50195c-0.44824-0.05762-0.80176-0.28662-0.96777-0.62793
				c-0.17676-0.35938-0.13379-0.79395,0.11914-1.22314c0.16699-0.2832,0.56641-0.51709,1.02832-0.78809
				c0.58691-0.34473,1.25195-0.73438,1.6748-1.34131c-0.33008-0.59082-0.39258-1.13721-0.18555-1.62451
				c0.34375-0.80713,1.40039-1.43701,3.13965-1.87158c0.30664-0.07666,0.63867-0.14697,0.99121-0.22168
				c1.40234-0.29736,2.99219-0.63428,3.25977-1.47266l0.05859-0.18262l0.06055,0.18213
				c0.05664,0.1709,0.08887,0.37451,0.09277,0.5918c0.83594-0.20459,3.1875-1.03906,3.97559-1.62012l0.06934-0.05078
				l0.02734,0.08105c0.04102,0.12354,0.06836,0.25195,0.08203,0.38281c0.67188-0.09668,1.96484-0.46631,2.65039-0.80908
				c0.27246-0.13623,0.64063-0.2749,0.85742-0.15625c0.05078,0.02832,0.11328,0.08301,0.1416,0.18604
				c0.70508-0.15869,2.34961-0.78955,3.21094-1.20166c0.41016-0.1958,0.68457-0.21094,0.81641-0.04883
				c0.16113,0.19482,0.03613,0.56787-0.11035,0.79053c0.09863,0.10547,0.15527,0.25439,0.16016,0.42578
				c0.00586,0.24219-0.09375,0.49414-0.26074,0.6665c0.06445,0.35498-0.07129,0.70166-0.37695,0.96094
				c0.08594,0.32178-0.00977,0.6543-0.25391,0.88428c0.06738,0.37646-0.15625,0.7041-0.61914,0.90723
				c0.04395,0.32959-0.14355,0.59961-0.53418,0.76953c0.03809,0.07568,0.04785,0.1709,0.02734,0.27393
				c-0.03613,0.17871-0.15527,0.33789-0.31738,0.4292c0.02246,0.05322,0.0293,0.11133,0.0166,0.17236
				c-0.0332,0.17383-0.2041,0.33936-0.37305,0.4502c0.05176,0.0708,0.07227,0.14795,0.06152,0.23047
				c-0.02637,0.2002-0.2373,0.41504-0.62891,0.63916c-0.27051,0.1543-1.10352,0.61377-1.49219,0.79785
				c-0.18359,0.20508-0.53809,0.42383-0.98047,0.6875c-0.56543,0.3374-0.95605,0.55908-1.24316,0.65869
				c0.07715,0.01367,0.16113,0.02832,0.24902,0.04346c0.76855,0.13477,1.92676,0.33691,2.50488,0.59277
				c0.89551-0.05713,2.00586-0.12891,2.75586-0.35645l0.11523-0.03467c0.67383-0.20459,1.30762-0.39844,1.7666-0.24658
				c0.45898,0.15234,0.65625,0.38184,0.69141,0.81006c0.50098,0.11768,0.45996,0.60156,0.41699,0.92334
				c0.1709,0.07813,0.26465,0.21387,0.2793,0.40381c0.01074,0.14307-0.04688,0.27295-0.17285,0.38623
				c0.17676,0.1333,0.29102,0.43018,0.25195,0.69629c-0.03418,0.2417-0.18359,0.40576-0.41602,0.46289
				c0.08594,0.13623,0.11523,0.33203,0.07324,0.52344c-0.03613,0.16504-0.15625,0.45459-0.5498,0.60449
				c0.10254,0.22461,0.08789,0.4624-0.04297,0.63379c-0.16309,0.21387-0.4707,0.28223-0.84863,0.18555
				c-0.72656-0.18701-3.52051-0.66309-4.08008-0.72217c-0.16113,0.14209-0.50684,0.14355-0.93457,0.00537
				c-0.27832-0.09033-0.67188-0.13818-1.08984-0.13818c-0.04688,0-0.09473,0.00098-0.14355,0.00195
				c0.18359,0.10254,0.29102,0.27393,0.39648,0.44189c0.16406,0.26172,0.31836,0.50928,0.75391,0.54883l0.1084,0.00977
				l-0.06348,0.08887c-0.3418,0.47412-1.13867,0.74463-1.67871,0.85596c0.35059,0.09863,0.88379,0.04004,1.18945-0.10303
				l0.19629-0.09277l-0.11719,0.18311c-0.15918,0.24707-0.37793,0.55762-0.63379,0.75781
				c0.10938-0.01074,0.21289-0.01611,0.31055-0.02148c0.2666-0.01416,0.49707-0.02637,0.7207-0.13232l0.16016-0.07568
				l-0.07715,0.15967c-0.28613,0.59131-0.66211,1.14111-1.45117,1.20068c0.30566,0.35059,0.36035,0.8584,0.30664,1.21094
				l-0.03125,0.20898l-0.08691-0.19336c-0.14648-0.3252-0.75684-0.56641-1.32324-0.69531
				c0.04395,0.08984,0.08887,0.19629,0.13867,0.31445c0.18652,0.4375,0.41797,0.9834,0.77344,1.19141l0.14941,0.08691
				l-0.16992,0.02832c-0.37695,0.06152-1.07617-0.06641-1.5-0.33496c-0.12598,0.35938-0.10449,0.94727,0.22559,1.2002
				l0.12695,0.09766l-0.15918,0.01465c-0.0166,0.00098-0.03516,0.00195-0.05371,0.00195c-0.25488,0-0.70703-0.13184-0.99902-0.26953
				c-0.2998,0.36523-0.21973,0.7627-0.08789,1.13867L-208.3916,402.5332z M-209.64941,400.53906l0.00977,0.07227
				c0.09863,0.70605,0.45898,1.28516,1.02441,1.64941c-0.10742-0.36523-0.13672-0.76953,0.19434-1.13965l0.03223-0.03516
				l0.04297,0.02148c0.23438,0.11816,0.61914,0.24023,0.87695,0.27051c-0.27051-0.33203-0.28906-0.91699-0.11621-1.30273
				l0.03125-0.07031l0.06152,0.04492c0.32422,0.2334,0.89063,0.37109,1.2793,0.37109c0.01074,0,0.02051,0,0.03027,0
				c-0.31055-0.26855-0.51563-0.75098-0.68457-1.14844c-0.07227-0.17188-0.13574-0.32031-0.19434-0.4209l-0.07129-0.12012
				l0.1377,0.02734c0.3457,0.06934,1.11426,0.26074,1.43848,0.63672c0.01172-0.34082-0.08105-0.76074-0.38574-1.02734
				l-0.12598-0.10938h0.16699c0.71973,0,1.09668-0.39063,1.41113-0.9917c-0.19629,0.06152-0.39941,0.07227-0.61133,0.0835
				c-0.20508,0.01074-0.41797,0.02197-0.65625,0.07715l-0.03027-0.12109c0.31738-0.08838,0.61914-0.47363,0.79199-0.72461
				c-0.39258,0.12158-0.97949,0.15479-1.30762-0.05127l-0.14355-0.08984l0.16699-0.02539
				c0.43848-0.06592,1.33008-0.30664,1.73633-0.75928c-0.41309-0.07666-0.58398-0.34863-0.73633-0.59131
				c-0.1709-0.27148-0.32422-0.50879-0.76855-0.47461l-0.01074-0.12451c0.65039-0.07568,1.32324-0.03271,1.76172,0.10791
				c0.3877,0.12598,0.71289,0.12842,0.82715,0.00635l0.02051-0.02246l0.03125,0.00293
				c0.4873,0.04395,3.38477,0.53662,4.12793,0.72803c0.32422,0.08301,0.58594,0.03223,0.71875-0.14063
				c0.1123-0.14746,0.1123-0.36328-0.00195-0.5625l-0.03809-0.06738l0.07422-0.02295
				c0.38965-0.12207,0.50293-0.38818,0.53516-0.53613c0.04785-0.21582-0.01855-0.41211-0.10938-0.49414l-0.10449-0.09521
				l0.14063-0.01318c0.31836-0.02979,0.39648-0.24756,0.41504-0.37451c0.03516-0.24707-0.0918-0.54443-0.2627-0.6123
				l-0.10547-0.04248l0.09277-0.06641c0.14063-0.10059,0.2041-0.20996,0.19434-0.33398
				c-0.01172-0.1582-0.08984-0.2583-0.24414-0.31543l-0.04688-0.01709l0.00684-0.0498
				c0.05469-0.40088,0.06836-0.7666-0.35742-0.84131l-0.04883-0.00879l-0.00293-0.04932
				c-0.02148-0.40869-0.18066-0.60449-0.6084-0.74707c-0.41699-0.13721-1.03613,0.04932-1.69141,0.24805l-0.11426,0.03467
				c-0.71289,0.21631-1.64941,0.28955-2.80078,0.36279l-0.01563,0.00098l-0.01367-0.00635
				c-0.55859-0.25244-1.7207-0.45557-2.48926-0.58984c-0.25879-0.04541-0.4834-0.08447-0.625-0.11523
				c-0.00586-0.00146-0.01172-0.00244-0.0166-0.00391l0.02832-0.12158c0.00391,0.00098,0.00879,0.00195,0.0127,0.00293
				c0.02246,0.00439,0.0459,0.00635,0.07031,0.00635c0.28223,0,0.76172-0.27246,1.48145-0.70166
				c0.36426-0.2168,0.77734-0.4624,0.95996-0.67188l0.02051-0.01563c0.35547-0.16748,1.16211-0.60889,1.49414-0.79883
				c0.3457-0.19775,0.54785-0.39209,0.56738-0.54688c0.00879-0.06543-0.0166-0.12598-0.07617-0.18457l-0.05859-0.05713
				l0.07129-0.0415c0.2041-0.11865,0.35156-0.27783,0.37695-0.40527c0.00977-0.05176-0.00098-0.09619-0.03223-0.13623
				l-0.04883-0.06445l0.07422-0.03174c0.1875-0.07959,0.28125-0.24365,0.30664-0.37012
				c0.01953-0.09668,0.00293-0.18408-0.04492-0.23389l-0.06641-0.06836l0.08887-0.03369
				c0.28125-0.10693,0.60059-0.31689,0.52148-0.70898l-0.00977-0.05078l0.04785-0.01953
				c0.2627-0.10693,0.6875-0.35547,0.58301-0.81934l-0.00879-0.03613l0.02832-0.02441
				c0.24023-0.20996,0.32715-0.51611,0.23242-0.81836l-0.0127-0.04053l0.0332-0.02686
				c0.30469-0.24268,0.43164-0.56152,0.35742-0.89795l-0.00684-0.03418l0.02539-0.02441
				c0.1582-0.14893,0.25195-0.37744,0.24707-0.59717c-0.00488-0.15771-0.06055-0.29004-0.15723-0.37256l-0.04492-0.03809
				l0.03516-0.04688c0.1582-0.21338,0.25488-0.55029,0.14648-0.68213c-0.0918-0.11035-0.32715-0.08057-0.66602,0.08154
				c-0.89453,0.42773-2.62891,1.09033-3.30273,1.2251l-0.06738,0.01318l-0.00781-0.06836
				c-0.00781-0.07666-0.03711-0.12793-0.08984-0.15674c-0.12988-0.0708-0.39844-0.01367-0.74023,0.15771
				c-0.73145,0.36572-2.08203,0.74658-2.75586,0.83057l-0.06543,0.0083l-0.00488-0.06641
				c-0.00684-0.11426-0.02637-0.22754-0.05664-0.33643c-0.90137,0.61523-3.26074,1.43799-4.02734,1.6084l-0.07715,0.01709
				l0.00098-0.0791c0.00195-0.16357-0.01172-0.31982-0.04102-0.45996c-0.42871,0.78174-1.9375,1.10156-3.28027,1.38574
				c-0.35059,0.07471-0.68164,0.14453-0.98535,0.2207c-1.67676,0.41895-2.7334,1.04102-3.05566,1.79932
				c-0.19531,0.45898-0.12891,0.97949,0.19727,1.54736l0.01953,0.03369l-0.02148,0.03271
				c-0.4375,0.64893-1.12793,1.05371-1.7373,1.41113c-0.44629,0.26221-0.83301,0.48828-0.9834,0.74365
				c-0.23047,0.3916-0.27148,0.78418-0.11426,1.10498c0.14746,0.30273,0.46582,0.50635,0.87109,0.55859
				c0.61328,0.08398,1.10645-0.20752,1.58301-0.48584c0.55859-0.32568,1.08691-0.63428,1.7666-0.37012l0.02344,0.00879
				l0.01074,0.02295c0.10742,0.23291-0.03027,0.4624-0.19043,0.72803c-0.27148,0.45215-0.64355,1.07178-0.19336,2.17383
				c0.63867,1.56055,0.91699,1.54053,1.22852,1.51123l0.05078-0.00391c0.2832-0.06055,0.82031-0.11865,1.37207-0.14844
				c0.36719,0.021,0.67285,0.25342,0.99609,0.49902c0.35938,0.27295,0.72949,0.55469,1.19824,0.55469h0.05957l0.00293,0.05957
				c0.01074,0.25635,0.19824,0.83691,0.68262,0.89551l0.06641,0.00781l-0.0127,0.06592
				c-0.07031,0.37207-0.09082,0.74316,0.23047,0.93213l0.05762,0.0332l-0.03711,0.05566
				c-0.2041,0.30469-0.32715,0.95898-0.08203,1.12793l0.04102,0.02832l-0.01855,0.04688
				c-0.07617,0.19043-0.16504,0.64746,0.0498,0.8418l0.04102,0.03711l-0.03223,0.04492
				c-0.21484,0.2998-0.44434,0.86035-0.14453,1.08594c0.07031,0.06934,0.14453,0.12402,0.22461,0.16602
				c0.29492-0.42773,0.54492-0.93945,0.65625-1.24414l0.03613-0.10059l0.07031,0.08105
				c0.21582,0.25293,0.62695,0.31934,1.10254,0.17578L-209.64941,400.53906z"/>
		</g>
		<g>
			<path class="st4" d="M-216.09125,394.32785c0.50002-0.31564,0.89096-0.77914,1.25214-0.77914
				c-0.2753-0.13766-0.97906-0.19263-1.67604-0.03616c0.3037-0.21692,0.76491-0.67972,0.96014-0.94003
				c-0.28319-0.02267-0.67354-0.02777-1.06158,0.04373c0.15186-0.21692,0.45418-0.60779,0.69281-0.78134
				c-0.58574-0.0217-1.34505,0.11932-1.7355,0.43387c0.34711-0.28198,0.6725-0.84061,0.43387-1.33957
				c-0.86775,1.60532-2.99373,2.27243-4.07845,2.74966c-1.08467,0.47726-1.95242,0.82434-1.99582,1.34503
				c-0.04337,0.52063-0.23863,1.01959-0.6725,1.4101c-0.43385,0.3905,1.84396,1.86566,3.1239,0.78098
				c1.27992-1.08472,3.10228-1.66861,4.1869-1.71384c0.52065-0.0217,1.08469-0.75928,1.62701-0.71585
				C-215.20792,394.65509-215.72244,394.28448-216.09125,394.32785L-216.09125,394.32785z"/>
		</g>
		<g>
			<path d="M-221.98438,397.67432c-0.82715,0-1.64844-0.45752-1.9541-0.80713c-0.24219-0.27686-0.13379-0.42773-0.07617-0.47949
				c0.38672-0.34766,0.60645-0.80811,0.65234-1.36914c0.04492-0.52539,0.83496-0.87207,1.83594-1.31055l0.19727-0.08643
				c0.15234-0.06689,0.3252-0.1377,0.51172-0.21387c1.11523-0.45654,2.80176-1.14697,3.53711-2.5083l0.05762-0.10791
				l0.05371,0.11084c0.1748,0.36426,0.06641,0.78076-0.16309,1.10645c0.42773-0.18115,0.98535-0.25049,1.41016-0.23633
				l0.18066,0.00684l-0.14551,0.10596c-0.18262,0.13281-0.41504,0.4082-0.59082,0.64551
				c0.35449-0.04883,0.69434-0.03955,0.92773-0.021l0.11328,0.00928l-0.06836,0.09082
				c-0.15332,0.20508-0.48438,0.54932-0.77246,0.79395c0.62012-0.09473,1.21094-0.03809,1.4668,0.08936l-0.02832,0.11816
				c-0.21387,0-0.45215,0.18896-0.72754,0.4082c-0.10742,0.08496-0.2168,0.17188-0.33203,0.25439
				c0.30078,0.05273,0.64453,0.26904,0.90137,0.46094l0.17383,0.12988l-0.21582-0.01709
				c-0.01367-0.00146-0.02734-0.00195-0.04102-0.00195c-0.25293,0-0.52441,0.18018-0.78613,0.35498
				c-0.25977,0.17285-0.5293,0.35205-0.79199,0.36279c-1.12109,0.04688-2.90625,0.64551-4.15039,1.69922
				C-221.15918,397.56006-221.57227,397.67383-221.98438,397.67432z M-217.23633,391.0752
				c-0.78613,1.32373-2.43359,1.99756-3.53418,2.44824c-0.18555,0.07568-0.35645,0.146-0.50781,0.2124l-0.19727,0.08691
				c-0.96289,0.42188-1.72363,0.75488-1.76172,1.20654c-0.04883,0.59326-0.28223,1.08154-0.69336,1.45117
				c-0.09082,0.08154,0.03027,0.24023,0.08594,0.3042c0.42188,0.48145,1.97656,1.21289,2.95605,0.38232
				c1.26465-1.07178,3.08301-1.68066,4.22461-1.72852c0.22852-0.00928,0.47168-0.1709,0.72852-0.3418
				c0.23535-0.15674,0.47656-0.31787,0.72168-0.36328c-0.35938-0.24658-0.65918-0.36572-0.87012-0.34375l-0.04004-0.11475
				c0.1709-0.10791,0.32813-0.23291,0.47949-0.35352c0.20605-0.16309,0.3916-0.31055,0.57227-0.38477
				c-0.33496-0.07617-0.8916-0.0835-1.42969,0.03711l-0.0498-0.11182c0.27148-0.19482,0.66016-0.57764,0.87402-0.83496
				c-0.25293-0.01563-0.58984-0.01172-0.92676,0.05078l-0.15039,0.02734l0.08789-0.12451
				c0.14941-0.21484,0.37305-0.49805,0.57324-0.68506c-0.51953,0.00781-1.1709,0.13623-1.52637,0.42188l-0.07813-0.09717
				C-217.42676,391.99902-217.10449,391.52881-217.23633,391.0752z"/>
		</g>
		<g>
			<path class="st5" d="M-223.66846,397.95255c0.19522,0.32541,1.06393,0.4957,1.63785,0.21695
				c0.75928-0.36884,0.68335-0.62915,1.33418-1.06302c-0.21695,0.13019-0.4556,0.0217-0.60745-0.10846
				c-0.15182-0.13016-0.71587-0.26035-1.08467-0.06506C-222.47533,397.10648-223.32137,397.84406-223.66846,397.95255
				L-223.66846,397.95255z"/>
		</g>
		<g>
			<path d="M-222.69629,398.37109c-0.4541,0-0.88965-0.1582-1.02637-0.38623l-0.04102-0.06836l0.07617-0.02344
				c0.33203-0.10352,1.16699-0.83643,1.24316-0.98779l0.00879-0.01807l0.01758-0.00928
				c0.38867-0.20605,0.98145-0.0752,1.15527,0.07275c0.06836,0.05859,0.30859,0.23926,0.53418,0.10205l0.06641,0.10596
				c-0.27734,0.18457-0.41797,0.33594-0.55469,0.48193c-0.17871,0.19141-0.34766,0.37207-0.78613,0.58594
				C-222.21191,398.32715-222.45703,398.37109-222.69629,398.37109z M-223.56934,397.98047
				c0.24902,0.2627,1.01172,0.37695,1.51172,0.13281c0.41797-0.20313,0.57129-0.36768,0.75-0.55811
				c0.09277-0.09961,0.19434-0.2085,0.34375-0.33008c-0.17871-0.02051-0.3252-0.13232-0.38086-0.17969
				c-0.12109-0.10449-0.64648-0.23975-0.99902-0.06494C-222.47363,397.1875-223.19727,397.80762-223.56934,397.98047z"/>
		</g>
		<g>
			<path class="st5" d="M-223.69019,396.10858c-0.32541,0.45554-0.94652,0.63757-1.06296,1.3233
				c-0.09766,0.57489,0.18437,1.36673,0.98705,1.4101c-0.08063-0.49384,0.06508-0.63995,0.39049-0.8569
				c0.37714-0.2514,0.78876-0.79935,1.06302-0.93826c0.41757-0.21152,0.22647-0.26724-0.3905-0.27658
				C-223.41901,396.7594-223.9071,396.47736-223.69019,396.10858L-223.69019,396.10858z"/>
		</g>
		<g>
			<path d="M-223.69141,398.9082l-0.07715-0.00391c-0.32227-0.01758-0.59277-0.15234-0.7832-0.3916
				c-0.22852-0.28516-0.3291-0.70264-0.2627-1.09082c0.07813-0.4624,0.37207-0.70508,0.65527-0.93994
				c0.15723-0.12988,0.30566-0.25244,0.41797-0.40967l0.10449,0.06787c-0.05273,0.08936-0.05762,0.16943-0.01465,0.24512
				c0.10645,0.18896,0.47852,0.31543,0.94922,0.32227c0.49219,0.00781,0.64941,0.0415,0.67285,0.14404
				c0.02051,0.09082-0.08691,0.16602-0.25488,0.25098c-0.12988,0.06592-0.30273,0.23975-0.48535,0.42334
				c-0.18652,0.18896-0.38086,0.38379-0.57227,0.51123c-0.32227,0.21484-0.43652,0.33984-0.3623,0.79492L-223.69141,398.9082z
				 M-223.80078,396.33252c-0.08789,0.08838-0.18457,0.16797-0.27832,0.24609c-0.27832,0.22998-0.54199,0.44775-0.6123,0.86377
				c-0.05957,0.34912,0.03418,0.73828,0.2373,0.99219c0.15234,0.19141,0.36426,0.30762,0.61523,0.33789
				c-0.05762-0.45898,0.09863-0.61914,0.42773-0.83936c0.18164-0.12061,0.37012-0.31104,0.55273-0.49512
				c0.19043-0.19141,0.36914-0.37207,0.51758-0.44678c0.11328-0.05762,0.15918-0.09277,0.17773-0.11084
				c-0.04297-0.01855-0.17188-0.04199-0.54102-0.04785c-0.52246-0.00781-0.92676-0.15576-1.05664-0.38574
				C-223.78125,396.40967-223.79492,396.37158-223.80078,396.33252z"/>
		</g>
		<g>
			<path class="st4" d="M-203.42447,394.62265c0.47723,0.04337,3.3588,0.5314,4.1181,0.72665
				c0.75929,0.19525,1.04672-0.33899,0.78641-0.79453c0.69418-0.21695,0.68875-0.91928,0.4501-1.13623
				c0.69423-0.06509,0.52188-0.96622,0.16937-1.10724c0.15613-0.11182,0.23293-0.24069,0.22115-0.38962
				c-0.01485-0.18823-0.11436-0.30594-0.2856-0.36893c0.05077-0.37216,0.09189-0.82327-0.40854-0.91135
				c-0.02171-0.43387-0.1953-0.65048-0.65086-0.80234c-0.46248-0.15417-1.12807,0.06509-1.84398,0.28201
				c-0.73636,0.22314-1.76639,0.29498-2.78601,0.36008c0.20093,0.09079,0.32556,0.18677,0.33463,0.29074
				c0.03403,0.39142-0.17355,0.67252-0.6508,0.60742c0.58571,0.08679,0.80263,0.49896,0.45555,0.82434l-0.04047,0.00806
				c0.03815,0.04367,0.05978,0.09155,0.06216,0.1438c0.01082,0.23865-0.24271,0.33899-0.63049,0.36069
				c0.84607,0.06506,0.5871,1.00604,0.06647,0.94095C-203.64708,393.89926-203.24277,394.32385-203.42447,394.62265
				L-203.42447,394.62265z"/>
		</g>
		<g>
			<path d="M-210.79492,409.26465c-0.36816-0.23926-2.09766-0.92969-2.39063-1.01172l0.0127-0.12305l0.18457-0.0127
				c0.47754-0.0332,1.36328-0.09082,1.71094-0.07422l-0.00781,0.125c-0.30176-0.0127-1.10156,0.03516-1.57422,0.06641
				c0.60156,0.22363,1.82617,0.72656,2.13281,0.9248L-210.79492,409.26465z M-214.05176,408.48145
				c-0.32227-0.23633-1.37891-0.86035-1.77344-0.92188l0.00977-0.12402c0.35059,0,1.41406-0.03027,1.68555-0.16699l0.05664,0.11133
				c-0.23828,0.12012-0.93359,0.16016-1.37109,0.17383c0.49805,0.20996,1.20313,0.63379,1.4668,0.82617L-214.05176,408.48145z
				 M-216.8877,408.14551c-0.43066-0.06445-1.49023-0.49316-1.9248-0.99707l-0.14453-0.16699l0.20996,0.06641
				c0.47461,0.14941,1.45996,0.29492,1.78516,0.19531l0.03711,0.11914c-0.30957,0.09668-1.09375,0-1.62402-0.12988
				c0.47656,0.40332,1.32324,0.73633,1.68066,0.79004L-216.8877,408.14551z M-219.88379,407.23438
				c-0.48828-0.0918-1.10449-0.46094-1.83008-1.09961l0.07129-0.10156c0.24609,0.13379,1.33691,0.53418,1.66211,0.53418v0.125
				c-0.25781,0-0.89648-0.21191-1.33008-0.38086c0.56934,0.45801,1.05566,0.72656,1.4502,0.7998L-219.88379,407.23438z
				 M-219.57031,406.02051c-0.65527-0.02246-1.63281-0.43066-2.04492-1.00293l-0.12598-0.17383l0.2002,0.08008
				c0.44043,0.17578,1.12695,0.31641,1.65918,0.23438l0.01953,0.12305c-0.49902,0.0791-1.0791-0.02637-1.50098-0.16211
				c0.44434,0.44434,1.25391,0.75781,1.79688,0.77637L-219.57031,406.02051z M-214.26563,404.50098l-0.02441-0.06152
				c-0.01758-0.0459-0.03125-0.10254-0.03906-0.16602l0.12305-0.01563c0.00391,0.02539,0.00781,0.05078,0.01367,0.07324
				l0.07617-0.03516c0.12402-0.05566,0.2207-0.09961,0.31934-0.13379l0.04102,0.11914
				c-0.09375,0.03125-0.18848,0.07422-0.30859,0.12891L-214.26563,404.50098z M-212.45313,402.59375l-0.03906-0.11914
				c0.07129-0.02344,0.12695-0.0459,0.16113-0.06445c0.22754-0.12598,0.46973-0.36816,0.71973-0.7207l0.10156,0.07227
				c-0.26074,0.36816-0.5166,0.62305-0.76074,0.75781C-212.3125,402.54297-212.37402,402.56738-212.45313,402.59375z
				 M-208.39844,401.2207c-0.17969-0.07617-0.34473-0.29883-0.4668-0.62598c-0.16113-0.43359-0.2334-1.05469-0.03125-1.46582
				l0.11133,0.05469c-0.18457,0.37598-0.11035,0.97266,0.03711,1.36816c0.10645,0.28613,0.25488,0.49316,0.39844,0.55371
				L-208.39844,401.2207z M-209.7627,400.62891c-0.02246-0.1543-0.02344-0.30566-0.01953-0.4873l0.125,0.00391
				c-0.00391,0.17383-0.00293,0.32031,0.01758,0.46582L-209.7627,400.62891z M-210.91699,400.4668
				c-0.38672-0.45313-0.4082-0.99219-0.06445-1.39941c-0.14063-0.39258-0.03906-0.9043,0.28516-1.24561
				c-0.07031-0.45703,0.19434-1.02344,0.33203-1.29932c-0.10352-0.12988-0.20605-0.29688-0.32129-0.51465
				c-0.31738-0.59424-1.24121-0.90918-2.03223-0.9624c-0.00488,0.01514-0.01074,0.0293-0.01758,0.04199
				c-0.11328,0.22217-0.49805,0.26855-0.8125,0.21484c-0.24219-0.04053-0.74805-0.04443-1.35254-0.01123l-0.00781-0.125
				c0.61426-0.03271,1.13086-0.0293,1.38184,0.01318c0.31152,0.05371,0.61035-0.01318,0.68066-0.14893
				c0.05664-0.11035-0.05078-0.25293-0.15039-0.35254l0.08789-0.08887c0.13281,0.13281,0.18652,0.24316,0.2002,0.33203
				c0.76855,0.05176,1.77051,0.34961,2.13184,1.02832c0.34961,0.65381,0.55469,0.79883,0.95605,0.87891l-0.02539,0.12256
				c-0.26758-0.05322-0.45508-0.1416-0.62988-0.32568c-0.19531,0.39844-0.57031,1.26904-0.01953,1.59961l-0.06445,0.10742
				c-0.15527-0.09375-0.24902-0.21973-0.2998-0.36279c-0.25195,0.31104-0.32227,0.75732-0.19238,1.08545l0.02637,0.02637
				c-0.00293,0.00391-0.00684,0.00684-0.00977,0.01074c0.03418,0.07715,0.08105,0.14648,0.13965,0.20508l-0.08789,0.08789
				c-0.05664-0.05566-0.10254-0.11914-0.14063-0.18848c-0.26074,0.35254-0.22656,0.80469,0.10254,1.18848L-210.91699,400.4668z
				 M-207.55859,400.15527c-0.36328-0.20508-0.9668-0.99121-0.94336-1.43555l0.125,0.00586
				c-0.02051,0.38965,0.55762,1.13867,0.87891,1.32031L-207.55859,400.15527z M-211.41602,399.70508
				c-0.1875-0.0498-0.30957-0.1123-0.4082-0.21191l0.08789-0.08789c0.08398,0.08301,0.18555,0.13477,0.35156,0.17871
				L-211.41602,399.70508z M-207.06543,398.84375c-0.125-0.30176-0.31152-0.4873-0.54199-0.53711l0.02734-0.12305
				c0.27148,0.05957,0.48926,0.27148,0.62988,0.61328L-207.06543,398.84375z M-211.29102,398.46973
				c-0.15918-0.02441-0.33984-0.09668-0.46094-0.18457l0.07422-0.10156c0.10352,0.07617,0.26758,0.1416,0.40625,0.16309
				L-211.29102,398.46973z M-206.0166,398.3877c-0.3916,0-0.89063-0.13281-1.24316-0.51221l0.0918-0.08496
				c0.46387,0.50049,1.13281,0.47998,1.26172,0.46826l0.00977,0.125C-205.93555,398.38672-205.97559,398.3877-206.0166,398.3877z
				 M-206.4375,397.5127c-0.3877,0-0.83203-0.06934-1.10742-0.28027l0.07617-0.09961
				c0.44629,0.34277,1.43262,0.26465,1.67578,0.17529l0.04297,0.11719C-205.88184,397.47266-206.14355,397.5127-206.4375,397.5127z
				 M-211.79785,397.31055c-0.05664,0-0.11816-0.00342-0.18555-0.01172l0.01563-0.12402
				c0.4502,0.05322,0.5752-0.09668,0.72168-0.2876l0.0459-0.05859l0.09766,0.07813l-0.04395,0.05664
				C-211.27832,397.13428-211.41406,397.31055-211.79785,397.31055z M-206.60156,396.56885
				c-0.41309,0-1.06055-0.08154-1.41113-0.36865l0.08008-0.09668c0.44824,0.3667,1.4873,0.36426,1.64258,0.31494l0.03906,0.11816
				C-206.30566,396.55518-206.43457,396.56885-206.60156,396.56885z M-212.71289,396.34473v-0.125
				c0.16797,0,0.34277-0.07178,0.54883-0.22607l0.07422,0.09961C-212.2334,396.20117-212.4541,396.34473-212.71289,396.34473z
				 M-222.58594,396.04736l-0.125-0.00781c0.04492-0.71436,0.66602-1.0127,1.21387-1.27588
				c0.35254-0.16895,0.68457-0.32861,0.83398-0.57471l0.11133,0.05566c-0.03711,0.0918-0.08203,0.18457-0.12695,0.27441
				c-0.11328,0.22998-0.23047,0.46777-0.21582,0.71826l-0.125,0.00684c-0.01465-0.25537,0.08496-0.48633,0.19336-0.7085
				c-0.17383,0.12793-0.3916,0.23242-0.61719,0.34082c-0.06836,0.0332-0.1377,0.06641-0.20605,0.1001
				c0.12402,0.06738,0.21582,0.19531,0.25,0.35986c0.04785,0.22461-0.02344,0.43896-0.1748,0.53271
				c-0.16211,0.09961-0.38965,0.09961-0.5791-0.00098c-0.13379-0.07129-0.22656-0.18066-0.26855-0.31055
				C-222.51367,395.69336-222.57422,395.85352-222.58594,396.04736z M-222.31934,395.43018
				c0.00977,0.13721,0.09082,0.25635,0.22461,0.32764c0.15137,0.08057,0.3291,0.08252,0.45508,0.00488
				c0.10547-0.06494,0.1543-0.22998,0.11816-0.40039c-0.01367-0.06396-0.07324-0.27197-0.27832-0.30762
				c-0.06152,0.0332-0.12207,0.06787-0.17969,0.104c0.17578,0.07178,0.34082,0.20801,0.40137,0.53711l-0.12305,0.02246
				c-0.05566-0.30371-0.20313-0.41064-0.4082-0.47266C-222.18652,395.30176-222.25684,395.36279-222.31934,395.43018z
				 M-199.00586,395.45264c-0.09766,0-0.2041-0.01416-0.31641-0.04297c-0.73926-0.19043-3.62305-0.68066-4.1084-0.7251
				l-0.09961-0.00879l0.05176-0.08545c0.03711-0.06104,0.04492-0.12891,0.02539-0.2085
				c-0.00684-0.02686-0.0166-0.05469-0.0293-0.08203c-0.02539-0.04834-0.05566-0.09277-0.08203-0.12793
				c-0.05176-0.06836-0.10449-0.12988-0.1582-0.18555c-0.11133-0.10547-0.24219-0.20166-0.36719-0.27539l0.00391-0.00977
				c-0.38184-0.2207-0.79297-0.24854-1.1709-0.27393c-0.37988-0.02539-0.73828-0.04932-1.00879-0.26367l0.07813-0.09766
				c0.23926,0.18994,0.56348,0.21143,0.93945,0.23682c0.39746,0.02686,0.83105,0.05566,1.23633,0.29492
				c0.11816,0.00146,0.21484-0.05225,0.28809-0.15137c0.09082-0.12451,0.11133-0.2876,0.05176-0.41602
				c-0.03223-0.07227-0.10059-0.15625-0.24023-0.20752c-0.05664-0.01855-0.12109-0.03076-0.19336-0.03613l0.00098-0.00586
				c-0.00781-0.00098-0.0166-0.00146-0.02441-0.00195v-0.00977c-0.39453,0.02686-0.90234-0.0249-1.34473-0.06934l0.01172-0.12402
				c0.67578,0.06592,1.60254,0.15967,1.84961-0.0752c0.04102-0.03906,0.05957-0.08398,0.05664-0.14209
				c-0.00195-0.03711-0.01758-0.07129-0.04688-0.10547l-0.01074-0.01221c-0.00586-0.00537-0.01172-0.01074-0.01758-0.0166
				c-0.3291-0.29248-1.60059-0.38477-2.63477-0.30518l-0.00977-0.125c0.86816-0.06445,2.31152-0.03174,2.72754,0.33691
				c0.00293,0.00293,0.00586,0.00586,0.00977,0.00879c0.08301-0.08545,0.12695-0.17725,0.12695-0.26758
				c0-0.02832-0.00391-0.05615-0.0127-0.08398c-0.05371-0.1709-0.2666-0.30371-0.55566-0.34668
				c-0.52148-0.07715-2.33984-0.25928-3.35059-0.21631l-0.00586-0.125c1.01953-0.04688,2.84863,0.13916,3.37402,0.21729
				c0.19531,0.02637,0.35352-0.00928,0.45313-0.10352c0.08594-0.08154,0.12988-0.20557,0.13086-0.36035
				c0-0.0249-0.00098-0.05029-0.00391-0.07617c-0.00391-0.04053-0.04785-0.12646-0.29785-0.23926l0.02148-0.11963
				c0.89844-0.05713,2.0166-0.12842,2.77148-0.35742l0.11621-0.03516c0.67383-0.20508,1.31055-0.39795,1.76563-0.24609
				c0.45898,0.15234,0.65625,0.38184,0.69141,0.81006c0.50098,0.11768,0.45996,0.60156,0.41699,0.92334
				c0.1709,0.07813,0.26465,0.21387,0.2793,0.40381c0.01074,0.14307-0.04688,0.27295-0.17285,0.38623
				c0.17676,0.1333,0.29102,0.43018,0.25195,0.69629c-0.03418,0.2417-0.18359,0.40576-0.41602,0.46289
				c0.08594,0.13623,0.11523,0.33203,0.07324,0.52344c-0.03613,0.16504-0.15625,0.45459-0.5498,0.60449
				c0.10254,0.22461,0.08789,0.4624-0.04297,0.63379C-198.58789,395.37451-198.77441,395.45264-199.00586,395.45264z
				 M-203.32227,394.57129c0.69238,0.08496,3.32813,0.53613,4.03125,0.71729c0.32422,0.08301,0.58594,0.03223,0.71875-0.14063
				c0.1123-0.14746,0.1123-0.36328-0.00195-0.56201l0,0c-0.24316-0.42627-0.90332-0.54199-1.81934-0.58447
				c-0.90137-0.0415-2.49707-0.25293-3.28809-0.40967c-0.0459,0.04297-0.09863,0.07617-0.1543,0.09814
				c-0.00781,0.00342-0.01563,0.00635-0.02344,0.00879c0.0791,0.05908,0.15625,0.12744,0.23242,0.20654
				c0.10742,0.10352,0.2002,0.21875,0.25586,0.33643C-203.29395,394.38867-203.2959,394.49658-203.32227,394.57129z
				 M-203.58984,393.48242c0.80566,0.15381,2.33105,0.354,3.20215,0.39404c0.95313,0.04443,1.60742,0.1626,1.89551,0.60303
				c0.35254-0.12744,0.45801-0.37891,0.48926-0.52051c0.04395-0.20117-0.01074-0.38477-0.09082-0.47559
				c-0.76367,0.06641-3.0293,0.03516-5.43555-0.13037C-203.54395,393.39795-203.56445,393.44141-203.58984,393.48242z
				 M-203.43164,393.23438c2.39551,0.16064,4.63477,0.18799,5.35547,0.12207l0,0c0.31836-0.02979,0.39648-0.24756,0.41504-0.37451
				c0.0332-0.23291-0.07813-0.51025-0.2334-0.59863C-198.63965,392.87744-200.86133,393.04395-203.43164,393.23438z
				 M-203.79883,392.7334c0.11816,0.05469,0.20605,0.1377,0.25488,0.24463c0.02051,0.04297,0.0332,0.08936,0.03906,0.13672
				l0.04102-0.00293c2.5957-0.19287,4.83691-0.35938,5.52539-0.8501l0.00195-0.00098
				c0.14063-0.10059,0.2041-0.20996,0.19434-0.33398c-0.01172-0.1582-0.08984-0.2583-0.24414-0.31543l0,0
				c-0.21582-0.07861-0.57324-0.07275-1.0918,0.0249c-0.81152,0.14941-3.27344,0.4248-4.25586,0.43408
				c-0.03027,0.05859-0.07227,0.11523-0.12695,0.16846c0.01855,0.03613,0.02832,0.07373,0.03027,0.11279
				c0,0.00049,0,0.00049,0,0.00049v0.00049l0,0c0,0.00439,0,0.0083,0,0.01221
				C-203.42773,392.54688-203.55176,392.67041-203.79883,392.7334z M-203.28516,391.87305
				c0,0.02393-0.00293,0.04785-0.00684,0.07178c1.00391-0.0166,3.39551-0.28516,4.19043-0.43164
				c0.49707-0.09131,0.8457-0.10547,1.08398-0.04199c0.0459-0.37109,0.0332-0.69775-0.36621-0.76807
				c-0.14258-0.02539-0.32422-0.01758-0.54297,0.02197c-0.20898,0.0376-0.45801,0.08594-0.73438,0.13916
				c-1.1543,0.22266-2.72168,0.5249-3.92285,0.57422c0.1416,0.07764,0.23926,0.18555,0.2793,0.31201
				C-203.29199,391.7915-203.28613,391.83203-203.28516,391.87305z M-203.25293,390.85303
				c-0.00098,0.19043-0.05859,0.34521-0.16992,0.45166l-0.00098,0.00049c1.16797-0.06787,2.6416-0.35205,3.73828-0.56348
				c0.27734-0.05371,0.52734-0.10205,0.7373-0.13965c0.19531-0.03467,0.36719-0.04395,0.50684-0.03271
				c-0.03613-0.35791-0.20215-0.5376-0.60254-0.67139c-0.42285-0.13867-1.03711,0.0498-1.68945,0.24756l-0.11621,0.03516
				c-0.66797,0.20264-1.53125,0.2793-2.58398,0.34863c0.11133,0.0752,0.16895,0.15234,0.17676,0.23682
				C-203.25488,390.7959-203.25293,390.82471-203.25293,390.85303z M-206.62305,394.69385l-0.03125-0.12109
				c0.19238-0.04834,0.39258-0.08398,0.59473-0.10693l0.01367,0.12402C-206.24219,394.6123-206.43652,394.64746-206.62305,394.69385
				z M-216.96582,394.67725c-0.0293,0-0.05957-0.00098-0.08984-0.00293l0.00781-0.125
				c0.2998,0.02197,0.59473-0.06787,0.92383-0.27441l0.06641,0.10547C-216.37695,394.58154-216.66797,394.67725-216.96582,394.67725
				z M-209.48242,394.44141c-0.08203,0-0.1582-0.00537-0.22656-0.01563c-0.24023-0.03516-0.42578-0.12598-0.52441-0.25781
				c-0.0918,0.0249-0.18359,0.04199-0.27734,0.05029c-0.33496,0.03125-0.60938-0.06201-0.77344-0.25293
				c-0.81836,0.17676-1.50293-0.03369-1.73438-0.32959c-0.05859-0.07422-0.08496-0.15137-0.0791-0.22363
				c-0.75098-0.0542-1.33887-0.55029-1.57324-0.84375l-0.04004-0.0498l0.05078-0.03906
				c0.25879-0.19824,0.35938-0.46094,0.27051-0.70215c-0.09668-0.26172-0.37988-0.42432-0.73242-0.42432
				c-0.01953,0-0.04004,0.00098-0.06152,0.00195c-0.02734,0.00146-0.05566,0.00195-0.08398,0.00195
				c-0.65332,0-1.30273-0.3999-1.89648-1.16553c0.06934,0.26123,0.07422,0.51123-0.00781,0.75977l-0.11914-0.03906
				c0.22852-0.69482-0.2998-1.43799-1.03027-2.46631c-0.12109-0.17041-0.24707-0.34814-0.37695-0.53418l0.10352-0.07129
				c0.12793,0.18604,0.25488,0.36328,0.375,0.5332c0.37988,0.53467,0.70703,0.99463,0.90527,1.4165l0.01074-0.00732
				c0.6582,0.98633,1.38672,1.49414,2.11426,1.44727c0.02246-0.00098,0.04492-0.00195,0.06738-0.00195
				c0.40527,0,0.73438,0.19434,0.84961,0.50586c0.10254,0.27881,0.00488,0.5752-0.26074,0.8042
				c0.25195,0.29004,0.81445,0.73145,1.51758,0.75293c0.24219-0.00049,0.85645-0.14404,1.17285-0.41895l0.08203,0.09473
				c-0.32617,0.2832-0.92383,0.43311-1.21094,0.44775c-0.00879,0.05322,0.02148,0.10645,0.05176,0.14404
				c0.18066,0.23096,0.81348,0.47021,1.64648,0.27637l0.00195-0.00049c0.25-0.05859,0.71777-0.31787,0.90918-0.76563
				l0.11523,0.04883c-0.1875,0.43701-0.61426,0.70996-0.89941,0.81006c0.1416,0.12744,0.36426,0.19141,0.625,0.16602
				c0.50684-0.0459,1.2207-0.43701,1.70117-1.39746l0.11133,0.05566c-0.34375,0.68799-0.84668,1.17725-1.39551,1.375
				c0.08496,0.08691,0.22852,0.14844,0.41309,0.17529c0.38867,0.05713,1.03125-0.04004,1.58105-0.49756l0.08008,0.0957
				C-208.51367,394.30371-209.07129,394.44141-209.48242,394.44141z M-217.32422,393.88477l-0.0625-0.1084
				c0.24707-0.1416,0.54297-0.25391,0.85742-0.32471l0.02734,0.12207C-216.80371,393.6416-217.08789,393.74902-217.32422,393.88477z
				 M-217.55273,393.09668l-0.08203-0.09375c0.24902-0.22021,0.58789-0.37109,1.00684-0.44824l0.02344,0.12305
				C-217.00195,392.75049-217.32031,392.8916-217.55273,393.09668z M-208.27344,390.94385l-0.09375-0.08398
				c0.16016-0.17676,0.4502-0.32275,0.66211-0.42969c0.05957-0.03027,0.11426-0.05762,0.15723-0.08154
				c0.06738-0.0376,0.13965-0.07324,0.20996-0.1084c0.2998-0.14795,0.4873-0.25391,0.48438-0.42383
				c-0.08301-0.03027-0.15234-0.0874-0.20898-0.17285c-0.12109,0.05078-0.23926,0.09375-0.35254,0.12842
				c0.01465,0.04395,0.0166,0.08936,0.00684,0.13672c-0.04688,0.21143-0.35059,0.40479-0.61035,0.54932
				c-0.0625,0.03516-0.1416,0.06689-0.22363,0.10107c-0.18066,0.07373-0.38477,0.15723-0.49512,0.29541l-0.09766-0.07813
				c0.12988-0.16357,0.35059-0.25342,0.54492-0.33301c0.0791-0.03271,0.1543-0.06348,0.21094-0.09473
				c0.12598-0.06982,0.50781-0.2832,0.54883-0.4668c0.00586-0.02637,0.00391-0.05127-0.00488-0.07568
				c-0.21582,0.05713-0.40918,0.08057-0.56543,0.06982c0.00684,0.03662,0.00488,0.07324-0.00586,0.10938
				c-0.05859,0.20215-0.37988,0.34521-0.71973,0.49658l-0.10547,0.0459c-0.21582,0.09326-0.54199,0.23389-0.68164,0.35596
				l-0.08203-0.09375c0.1543-0.13525,0.49121-0.28027,0.71387-0.37695l0.10449-0.04541
				c0.28516-0.12695,0.6084-0.27051,0.65039-0.41748c0.00586-0.02002,0.01074-0.05127-0.0127-0.0957
				c-0.01172-0.00293-0.02344-0.00635-0.03516-0.01025c-0.10645-0.03418-0.18457-0.09326-0.23242-0.17578
				c-0.05469,0.03174-0.10938,0.06299-0.16113,0.09424l-0.0166-0.02832c-0.06055,0.16748-0.21973,0.33789-0.45996,0.4834
				c-0.17285,0.10498-0.46191,0.2334-0.7168,0.34668c-0.1416,0.06299-0.27051,0.12061-0.35645,0.16357l-0.05664-0.11133
				c0.08691-0.04395,0.21875-0.10254,0.3623-0.1665c0.25195-0.11182,0.53711-0.23828,0.70313-0.33887
				c0.29199-0.17773,0.45703-0.40332,0.4209-0.57471c-0.02441-0.1123-0.13574-0.19092-0.30859-0.21777
				c-0.04395,0.07324-0.10645,0.13232-0.1875,0.16553c-0.3623,0.14941-1.15723,0.62207-1.57324,0.88477l-0.06641-0.10547
				c0.41895-0.26514,1.22266-0.74219,1.59277-0.89453c0.15625-0.06445,0.23535-0.31543,0.15918-0.50684
				c-0.07324-0.18555-0.26465-0.23486-0.52539-0.13623l-0.00098-0.00244c-0.06641,0.13281-0.18652,0.25195-0.34082,0.32568
				c-0.44531,0.21289-1.11914,0.61816-1.56445,0.88672l-0.14453,0.08691l-0.06445-0.10742l0.14453-0.08643
				c0.44727-0.27002,1.12402-0.67725,1.57422-0.89258c0.26465-0.12598,0.3623-0.36572,0.32031-0.52734
				c-0.03809-0.14355-0.17676-0.22314-0.38477-0.22314c-0.01172,0-0.02441,0-0.03711,0.00098
				c-0.04199,0.13184-0.1377,0.2583-0.29883,0.34082c-0.17383,0.08984-0.37598,0.19922-0.5918,0.31543
				c-0.62988,0.33984-1.34277,0.72461-1.8457,0.90283l-0.04102-0.11816c0.49316-0.17432,1.20215-0.55713,1.82715-0.89453
				c0.2168-0.1167,0.41895-0.22656,0.59473-0.31689c0.22559-0.1167,0.29102-0.33887,0.23828-0.49854
				c-0.03711-0.11182-0.14063-0.21826-0.32422-0.2373c-0.00684,0.00195-0.0127,0.00391-0.01953,0.00586l-0.00195-0.00781
				c-0.04492-0.00195-0.09082-0.00049-0.14063,0.00684c-0.08203,0.17188-0.21777,0.31592-0.37598,0.36865
				c-0.38672,0.12939-0.82813,0.35791-1.25391,0.5791c-0.43555,0.22607-0.84766,0.43994-1.19824,0.54932l-0.03711-0.11914
				c0.33984-0.10645,0.74707-0.31738,1.17773-0.54102s0.87598-0.45459,1.27246-0.58643
				c0.24512-0.08203,0.43457-0.47461,0.35547-0.73633c-0.06738-0.21973-0.30371-0.28662-0.67676-0.18896
				c-0.07129,0.20361-0.24512,0.40039-0.52832,0.50098c-0.7002,0.24854-1.83691,0.81836-2.41113,1.27051l-0.07813-0.09863
				c0.60449-0.47461,1.74121-1.03906,2.44824-1.29004c0.35352-0.12549,0.50977-0.43262,0.47754-0.65771
				c-0.0332-0.22656-0.24121-0.37207-0.55664-0.3916c-0.10547,0.18945-0.30469,0.3833-0.63379,0.53613
				c-0.08105,0.0376-0.20117,0.09033-0.34766,0.15479c-0.66016,0.28955-1.8877,0.82861-2.41504,1.26807l-0.08008-0.0957
				c0.54102-0.45117,1.7793-0.99463,2.44434-1.28662c0.14648-0.06396,0.26563-0.1167,0.3457-0.15381
				c0.54297-0.25244,0.69238-0.61182,0.65625-0.84277c-0.03125-0.20459-0.19922-0.34619-0.4502-0.38184
				c-0.06445,0.0293-0.13184,0.05664-0.20117,0.08203c-1.42188,0.5083-2.25195,1.00537-2.85742,1.36816
				c-0.79492,0.47559-1.19531,0.71436-1.98047,0.40967l0.04492-0.11621c0.72949,0.28174,1.08789,0.06934,1.87109-0.40088
				c0.61035-0.36523,1.44629-0.86621,2.87891-1.37891c0.42578-0.15186,0.74414-0.39648,0.97461-0.68555l-0.00293-0.00635
				c0.00391-0.00195,0.00781-0.00391,0.0127-0.00586c0.34668-0.44092,0.49023-0.9834,0.49609-1.45703l0.125,0.00195
				c-0.00488,0.43945-0.12402,0.93555-0.40332,1.36572c0.51855-0.19385,1.35254-0.40234,2.16309-0.60449
				c0.37109-0.09229,0.73438-0.18311,1.05469-0.26953c0.9668-0.25977,1.26172-1.08008,1.2207-1.70361l0.125-0.00781
				c0.02246,0.33936-0.04785,0.73291-0.25781,1.0752l0.02148-0.00439c1.27051-0.25244,3.39648-0.67529,3.6748-1.39307
				c0.07422-0.18799,0.10449-0.33691,0.09277-0.44287l0.125-0.01367c0.01367,0.12744-0.01855,0.29199-0.10059,0.50195
				c-0.0498,0.12646-0.14551,0.24365-0.27832,0.35205c0.41699-0.12695,0.88184-0.25635,1.33594-0.38232
				c1.27051-0.35254,2.58398-0.71729,2.81543-1.02783l0.09961,0.07422c-0.25586,0.34521-1.53125,0.69922-2.88184,1.07422
				c-0.56543,0.15674-1.14941,0.31885-1.63184,0.47559c0.18555,0.17432,0.26563,0.36816,0.22852,0.55371
				c-0.00684,0.03418-0.01758,0.06738-0.03223,0.09912c0.98633-0.29834,2.82227-0.80176,3.85059-1.06348
				c0.10742-0.02734,0.2041-0.08057,0.28711-0.15869l0.08594,0.09082c-0.09961,0.09277-0.21387,0.15674-0.3418,0.18896
				c-1.05078,0.26758-2.94141,0.78613-3.9082,1.08105c0.22461,0.06641,0.36328,0.2124,0.38086,0.40967
				c0.00781,0.08252-0.00977,0.17188-0.05176,0.25977c0.6582-0.17236,2.14258-0.56738,2.83008-0.76465
				c0.25-0.07178,0.46191-0.17578,0.62891-0.30908l0.07813,0.09766c-0.18066,0.14355-0.40625,0.25488-0.67188,0.33154
				c-0.73438,0.21045-2.375,0.646-2.95313,0.79639c0.1709,0.11621,0.25488,0.27441,0.23926,0.45313
				c-0.00488,0.05273-0.01855,0.10498-0.03906,0.15625c0.47266-0.15381,1.45996-0.40918,2.13965-0.58496
				c0.18164-0.04736,0.33789-0.08789,0.44922-0.11719c0.20996-0.05518,0.37988-0.13867,0.50488-0.24756l0.08203,0.09473
				c-0.13965,0.12109-0.32617,0.21338-0.55566,0.27393c-0.11133,0.0293-0.2666,0.06982-0.44922,0.1167
				c-0.68555,0.17773-1.81152,0.46924-2.22754,0.61523c0.2002,0.0542,0.3291,0.17676,0.35254,0.34229
				c0.00391,0.0332,0.00488,0.06689,0,0.10059c0.49219-0.17334,1.42578-0.43457,1.94629-0.58008l0.03711-0.01025
				c0.07227-0.02051,0.14355-0.04492,0.21191-0.07275l0.04688,0.11572c-0.07227,0.02979-0.14746,0.05566-0.22559,0.07715
				l-0.03711,0.01025c-0.55176,0.15479-1.57227,0.43994-2.02539,0.60938c-0.02734,0.05518-0.06445,0.10889-0.1123,0.16064
				c0.18164,0.01416,0.29785,0.12158,0.33789,0.24512c0.0127,0.03955,0.01855,0.08203,0.01563,0.12598
				c0.41895-0.17627,1.17676-0.46436,1.44043-0.56494l0.04492,0.11719c-0.2832,0.10742-1.13672,0.43164-1.52344,0.6001
				c-0.0332,0.0708-0.08789,0.1416-0.16797,0.20508c0.11035,0.11523,0.12598,0.22949,0.11719,0.31006
				c0,0.00146-0.00098,0.00342-0.00098,0.00488c0.26465-0.13525,0.69824-0.30957,1.00488-0.43311
				c0.10254-0.0415,0.1875-0.0752,0.24121-0.09814l0.04883,0.11523c-0.05371,0.02295-0.13965,0.05713-0.24316,0.09912
				c-0.3418,0.13721-0.90918,0.36523-1.12012,0.49805c-0.07129,0.1123-0.19336,0.21973-0.36035,0.31543
				c0.07813,0.06396,0.12207,0.14551,0.12598,0.23438c0.31836-0.16211,0.95313-0.49219,1.17871-0.62402l0.0625,0.10742
				c-0.25488,0.1499-0.99902,0.53516-1.27539,0.67383c-0.06152,0.12891-0.20313,0.24561-0.40723,0.3335
				c-0.07129,0.03076-0.16113,0.07275-0.26172,0.12354c0.04297,0.05029,0.06836,0.10889,0.07422,0.17285
				c0.01074,0.104-0.03027,0.21631-0.11719,0.31494l-0.09375-0.08203c0.06348-0.07275,0.09375-0.15088,0.08691-0.22021
				c-0.00488-0.04785-0.02734-0.09033-0.06738-0.12695c-0.28027,0.14355-0.62695,0.33203-0.94629,0.50537
				c-0.27832,0.15088-0.54199,0.29395-0.70605,0.37695c-0.13281,0.17969-0.40137,0.38086-0.78418,0.58203
				c-0.0918,0.04785-0.18164,0.09229-0.27051,0.13232c0.0459,0.0625,0.09863,0.09912,0.16406,0.11523l-0.01465,0.06055
				l0.06152-0.01074c0.05078,0.29834-0.25293,0.44873-0.54785,0.59473c-0.06934,0.03418-0.13867,0.06885-0.20508,0.10547
				c-0.04492,0.0249-0.10059,0.05273-0.16211,0.08398C-207.85254,390.64404-208.12988,390.78418-208.27344,390.94385z
				 M-208.39746,389.60742c0.03125,0.0542,0.08594,0.09375,0.16113,0.11816c0.2998,0.09521,0.88672-0.05225,1.50293-0.37549
				c0.58887-0.30859,0.83008-0.58545,0.80957-0.72266c-0.01074-0.07031-0.09961-0.10498-0.17969-0.12207
				c-0.01855,0.0083-0.03711,0.0166-0.05664,0.0249C-206.54883,388.68848-207.58203,389.15234-208.39746,389.60742z
				 M-209.04395,389.20117c0.20703,0.04053,0.34375,0.15137,0.37793,0.30908c0.00684,0.0332,0.00879,0.06738,0.00684,0.10205
				c0.84375-0.49219,2.02832-1.02539,2.45215-1.19824c0.29883-0.12109,0.3877-0.31006,0.37207-0.4458
				c-0.01563-0.12744-0.12012-0.22656-0.26953-0.25879c-0.07227,0.06445-0.16895,0.12354-0.29492,0.1709
				c-0.64746,0.24268-1.89648,0.77637-2.61816,1.13525C-209.01758,389.07813-209.02637,389.1416-209.04395,389.20117z
				 M-209.45508,388.54932c0.26758,0,0.37012,0.19287,0.39941,0.2666c0.00879,0.02197,0.01563,0.04492,0.02148,0.06836
				c0.73047-0.36035,1.95215-0.88184,2.59082-1.12109c0.33984-0.12793,0.42383-0.34131,0.39258-0.48486
				c-0.03027-0.13574-0.17578-0.27197-0.43066-0.26367c-0.05957,0.09814-0.16016,0.1748-0.29102,0.21582
				c-0.53516,0.16797-1.37305,0.4917-2.1123,0.77734c-0.28223,0.10938-0.55371,0.21387-0.79199,0.30371
				c0.00977,0.021,0.01758,0.04297,0.02344,0.06592c0.01758,0.06494,0.01855,0.1333,0.00586,0.20068
				C-209.57617,388.55762-209.51172,388.54932-209.45508,388.54932z M-205.95801,388.42139
				c0.11133,0.05127,0.14844,0.12598,0.15723,0.18701c0.00488,0.02686,0.00391,0.05469-0.00098,0.0835
				c0.1543-0.08154,0.35156-0.18848,0.55762-0.30029c0.49121-0.26709,1.04883-0.56934,1.33594-0.69287
				c0.22168-0.09473,0.36133-0.23193,0.36523-0.3584c0.00195-0.07178-0.04199-0.13721-0.125-0.18604l-0.2373,0.11865
				c-0.54492,0.27344-1.45313,0.72803-1.84863,0.91699C-205.79297,388.27002-205.8584,388.35059-205.95801,388.42139z
				 M-210.16016,388.06104c0.17773,0,0.32031,0.05127,0.41113,0.14453c0.24512-0.09229,0.52539-0.20068,0.81934-0.31445
				c0.74121-0.28613,1.58105-0.61035,2.12012-0.77979c0.19629-0.06201,0.29395-0.21094,0.26172-0.39941
				c-0.0332-0.19727-0.21875-0.40137-0.5-0.41162c-0.11133,0.19922-0.34961,0.36084-0.68066,0.45313
				c-0.56348,0.15723-1.33594,0.41357-1.95703,0.61914c-0.28223,0.09375-0.53809,0.17871-0.7373,0.24219
				c0.12109,0.0625,0.19531,0.16455,0.22852,0.26367c0.01855,0.05664,0.02637,0.11865,0.02246,0.18262
				C-210.16797,388.06104-210.16406,388.06104-210.16016,388.06104z M-206.01074,387.60596
				c0.16699,0.05762,0.28027,0.18604,0.2998,0.34717c0.00293,0.0249,0.00293,0.05029,0.00098,0.07666
				c0.43164-0.20898,1.24512-0.61621,1.74902-0.86865l0.26563-0.13281c0.27344-0.13672,0.43945-0.30225,0.45703-0.45459
				c0.00879-0.07959-0.02441-0.15527-0.09863-0.2251c-0.0332,0.01953-0.07031,0.03809-0.11035,0.05518l-0.46387,0.19775
				c-0.64355,0.27441-1.52246,0.64893-2.03711,0.88818C-205.96289,387.52881-205.9834,387.56787-206.01074,387.60596z
				 M-211.23828,386.84131c0.35547,0,0.46582,0.2124,0.49902,0.32227c0.03711,0.12061,0.03027,0.25928-0.00879,0.39111
				c0.03418-0.00195,0.06836-0.00146,0.09766-0.00049c0.20898-0.0625,0.54297-0.17334,0.92578-0.30029
				c0.62207-0.20605,1.39648-0.46289,1.96289-0.62061c0.4043-0.11328,0.65039-0.33154,0.6582-0.58447
				c0.00684-0.19824-0.13672-0.37842-0.36621-0.46289c-0.08789,0.0874-0.20313,0.15625-0.34668,0.19189
				c-0.6709,0.16748-2.54004,0.68896-3.5293,1.06934C-211.30762,386.84326-211.27148,386.84131-211.23828,386.84131z
				 M-206.4248,386.89014c0.25195,0.01221,0.4502,0.15234,0.49609,0.36133c0.00586,0.02734,0.00879,0.05713,0.00879,0.0874
				c0.52344-0.24023,1.34766-0.59131,1.95996-0.85205l0.46387-0.19824c0.29199-0.125,0.37891-0.32373,0.33594-0.45605
				c-0.03516-0.10693-0.16504-0.19385-0.37402-0.14648v-0.00098c-0.0918,0.06641-0.20117,0.12646-0.32617,0.17725
				c-0.19238,0.07813-0.4209,0.1709-0.66113,0.26953C-205.25977,386.43359-206.09277,386.77393-206.4248,386.89014z
				 M-212.12695,386.22363c0.35156,0.03516,0.58301,0.2168,0.62305,0.49414c0.00293,0.01807,0.00488,0.03662,0.00586,0.05518
				c0.96191-0.38574,2.95313-0.94238,3.65039-1.11621c0.35254-0.08789,0.5-0.41016,0.45898-0.66846
				c-0.02637-0.17188-0.14648-0.34912-0.40234-0.34912c-0.01172,0-0.02441,0.00049-0.03711,0.00146v-0.00146
				c-0.19043,0.13232-0.45605,0.25342-0.78809,0.35645c-0.2207,0.06885-0.47363,0.146-0.74414,0.229
				c-0.90625,0.27637-2.0293,0.61963-2.73535,0.88623C-212.10254,386.14746-212.11328,386.18506-212.12695,386.22363z
				 M-206.95898,386.18359c0.2998,0.04688,0.49609,0.28076,0.53516,0.50732c0.00293,0.02148,0.00586,0.04297,0.00684,0.06348
				c0.35645-0.12842,1.14551-0.45068,1.84863-0.73828c0.24023-0.09863,0.46777-0.19189,0.66113-0.27002
				c0.42188-0.1709,0.58594-0.41992,0.5625-0.59082c-0.01855-0.13428-0.15039-0.229-0.35254-0.25684
				c-0.11133,0.10498-0.25781,0.19238-0.42773,0.24854C-204.66992,385.3291-206.2334,385.90869-206.95898,386.18359z
				 M-207.38574,385.48486c0.25684,0.10986,0.41504,0.32715,0.40723,0.56787c0,0.00146,0,0.00293,0,0.00439
				c0.7373-0.27832,2.27344-0.84814,2.81445-1.02832c0.31641-0.10547,0.54199-0.32666,0.56152-0.55127
				c0.0127-0.14209-0.06152-0.26514-0.21484-0.35791c-0.09082,0.07666-0.20898,0.14063-0.35254,0.18262
				c-0.48633,0.14111-1.54102,0.52246-2.3877,0.8291c-0.30762,0.11133-0.58301,0.21094-0.78418,0.28223
				C-207.35547,385.43799-207.36914,385.46191-207.38574,385.48486z M-212.49219,385.45508
				c0.21973,0.07568,0.36914,0.23828,0.40234,0.44971c0.00293,0.02197,0.00488,0.04443,0.00586,0.06836
				c0.71191-0.26514,1.80273-0.59814,2.68652-0.86816c0.27051-0.08252,0.52441-0.16016,0.74414-0.22852
				c0.62305-0.19385,1.00293-0.4502,1.04199-0.70361c0.02344-0.14844-0.07129-0.30127-0.28125-0.45508
				c-0.1582,0.10449-0.34473,0.18945-0.5625,0.24854c-0.32129,0.08643-0.68555,0.17725-1.05762,0.27002
				c-0.91309,0.22754-1.85645,0.46289-2.33105,0.67334C-212.01367,385.11963-212.22754,385.30713-212.49219,385.45508z
				 M-207.68457,384.52344c0.22363,0.03955,0.38184,0.20313,0.41992,0.4458c0.01465,0.09326,0.00879,0.19287-0.0166,0.29004
				c0.1875-0.06689,0.42285-0.15186,0.68066-0.24561c0.84863-0.30713,1.90527-0.68896,2.39551-0.83154
				c0.35352-0.10254,0.52051-0.35254,0.50391-0.54688c-0.01563-0.1748-0.17285-0.2959-0.42188-0.32715
				c-0.11426,0.08887-0.26953,0.16113-0.45996,0.21338c-0.7334,0.19971-2.41211,0.68799-2.97656,0.85449
				C-207.5918,384.42627-207.63281,384.47559-207.68457,384.52344z M-207.78613,383.6416
				c0.22754,0.17627,0.32813,0.36084,0.29883,0.55078c-0.00195,0.01123-0.00391,0.02295-0.00684,0.03418
				c0.6416-0.18896,2.18359-0.63623,2.87793-0.82568c0.33887-0.09229,0.55469-0.25586,0.59375-0.44873
				c0.03223-0.15771-0.05566-0.33008-0.24707-0.4873c-0.80371,0.40869-2.11719,0.66992-3.08496,0.86279l-0.14844,0.0293
				C-207.58203,383.45947-207.67578,383.55566-207.78613,383.6416z"/>
		</g>
	</g>
</g>
</svg>
