<?xml version="1.0" encoding="utf-8"?>
<!-- Generator: Adobe Illustrator 19.0.0, SVG Export Plug-In . SVG Version: 6.00 Build 0)  -->
<svg version="1.1" id="Layer_1" xmlns="http://www.w3.org/2000/svg" xmlns:xlink="http://www.w3.org/1999/xlink" x="0px" y="0px"
	 viewBox="-269 374 72 46" style="enable-background:new -269 374 72 46;" xml:space="preserve">
<style type="text/css">
	.st0{clip-path:url(#SVGID_2_);}
	.st1{fill:#003671;}
	.st2{fill:none;stroke:#000000;stroke-width:0.25;}
	.st3{fill:#FFFFFF;}
	.st4{fill:#DC2F34;}
</style>
<g>
	<defs>
		<path id="SVGID_1_" d="M-203.95834,420h-58.08331c-3.84299,0-6.95834-3.11536-6.95834-6.95831v-32.08334
			c0-3.84299,3.11536-6.95834,6.95834-6.95834h58.08331c3.84299,0,6.95834,3.11536,6.95834,6.95834v32.08334
			C-197,416.88464-200.11536,420-203.95834,420z"/>
	</defs>
	<clipPath id="SVGID_2_">
		<use xlink:href="#SVGID_1_"  style="overflow:visible;"/>
	</clipPath>
	<g class="st0">
		<g>
			<polygon class="st1" points="-183.20346,421.64551 -183.20346,371.35449 -283.79657,371.35449 -283.79657,421.64551 			"/>
		</g>
		<g>
			<path d="M-183.07813,421.77051h-100.84326v-50.54102h100.84326V421.77051z M-283.67139,421.52051h100.34326v-50.04102h-100.34326
				V421.52051z"/>
		</g>
		<g>
			<path class="st1" d="M-233.50278,396.496"/>
		</g>
		<g>
			<path class="st2" d="M-233.50278,396.496"/>
		</g>
		<g>
			<polygon class="st3" points="-283.79657,379.733 -273.18848,379.733 -283.79657,374.41016 -283.79657,371.35449 
				-277.72723,371.35449 -262.88794,378.75113 -262.88794,371.35449 -254.53165,371.35449 -254.53165,378.75113 
				-239.69232,371.35449 -233.57053,371.35449 -233.57053,374.41016 -244.23106,379.733 -233.57053,379.733 -233.57053,388.11792 
				-244.23106,388.11792 -233.57053,393.4408 -233.57053,396.49738 -239.69232,396.49738 -254.53165,389.09982 
				-254.53165,396.49738 -262.88794,396.49738 -262.88794,389.09982 -277.72723,396.49738 -283.79657,396.49738 
				-283.79657,393.4408 -273.18848,388.11792 -283.79657,388.11792 			"/>
		</g>
		<g>
			<path d="M-233.44531,396.62256l-6.30273-0.01318l-14.65869-7.30762v7.3208h-8.60596v-7.3208l-14.71436,7.3208h-6.19434v-3.25879
				l0.06885-0.03467l10.13623-5.08643h-10.20508v-8.63477h10.20508l-10.20508-5.12061v-3.25781l6.25,0.01318l14.65869,7.30615
				v-7.31934h8.60596v7.31934l14.71436-7.31934h6.24707v3.25781l-10.25537,5.12061h10.25537v8.63477h-10.25537l10.25537,5.12109
				V396.62256z M-239.66309,396.37256h5.96777v-2.85449l-10.59131-5.28857l0.05566-0.23682h10.53564v-8.13477h-10.53564
				l-0.05566-0.23682l10.59131-5.28809v-2.85352h-5.96777l-14.99365,7.47363v-7.47363h-8.10596v7.47363l-0.18066-0.09033
				l-14.81299-7.3833h-5.91504v2.85352l10.53906,5.28809l-0.05615,0.23682h-10.48291v8.13477h10.48291l0.05615,0.23682
				l-10.53906,5.28857v2.85449h5.91504l14.99365-7.4751v7.4751h8.10596v-7.4751l0.18066,0.09033L-239.66309,396.37256z"/>
		</g>
		<g>
			<polygon class="st4" points="-237.51863,371.35449 -254.28317,379.7388 -250.27,379.7388 -233.57053,371.35449 			"/>
		</g>
		<g>
			<path d="M-250.27002,379.86377h-4.01318l-0.05615-0.23682l16.8208-8.39746h3.94824l0.05615,0.23682L-250.27002,379.86377z
				 M-253.75391,379.61377h3.4541l16.20215-8.13428h-3.3916L-253.75391,379.61377z"/>
		</g>
		<g>
			<polygon class="st4" points="-233.57053,396.49738 -250.28783,388.11774 -246.25703,388.11774 -233.57053,394.49976 			"/>
		</g>
		<g>
			<path d="M-233.62646,396.60938l-16.71729-8.37988l0.05615-0.23682l4.08691,0.01318l12.68652,6.38184l0.06885,0.11182v1.99805
				L-233.62646,396.60938z M-249.75928,388.24268l16.06396,8.05225v-1.71826l-12.59131-6.33398H-249.75928z"/>
		</g>
		<g>
			<polygon class="st4" points="-266.99991,379.7388 -283.79657,371.35449 -283.79657,373.35696 -271.04816,379.7388 			"/>
		</g>
		<g>
			<path d="M-267,379.86377l-4.10449-0.01318l-12.74805-6.38184l-0.06885-0.11182v-2.00244l0.18066-0.11182l16.79639,8.38428
				L-267,379.86377z M-271.01904,379.61377h3.48877l-16.14111-8.05713v1.72314L-271.01904,379.61377z"/>
		</g>
		<g>
			<polygon class="st4" points="-267.03448,388.11774 -283.79657,396.49738 -279.78564,396.49738 -263.02121,388.11774 			"/>
		</g>
		<g>
			<path d="M-279.78564,396.62256h-4.01074l-0.05566-0.23682l16.81738-8.39307h4.01367l0.05566,0.23682L-279.78564,396.62256z
				 M-283.2666,396.37256h3.45166l16.26416-8.12988h-3.45459L-283.2666,396.37256z"/>
		</g>
		<g>
			<polygon class="st4" points="-283.79657,381.47253 -261.10788,381.47253 -261.10788,371.35449 -256.19781,371.35449 
				-256.19781,381.47253 -233.57053,381.47253 -233.57053,386.38266 -256.19781,386.38266 -256.19781,396.49738 
				-261.10788,396.49738 -261.10788,386.38266 -283.79657,386.38266 			"/>
		</g>
		<g>
			<path d="M-256.07275,396.62256h-5.16016v-10.11475h-22.68848v-5.16016h22.68848v-10.11816h5.16016v10.11816h22.62744v5.16016
				h-22.62744V396.62256z M-260.98291,396.37256h4.66016v-10.11475h22.62744v-4.66016h-22.62744v-10.11816h-4.66016v10.11816
				h-22.68848v4.66016h22.68848V396.37256z"/>
		</g>
		<g>
			<polygon class="st3" points="-257.19135,406.04565 -252.7462,404.35928 -255.35847,408.29791 -251.31598,410.70459 
				-256.01645,411.12091 -255.36488,415.8009 -258.64832,412.37045 -261.91159,415.8009 -261.28015,411.12091 -265.96045,410.70459 
				-261.93811,408.29791 -264.53024,404.35928 -260.10519,406.04565 -258.64832,401.53918 			"/>
		</g>
		<g>
			<polygon class="st3" points="-207.67575,378.2854 -205.5681,377.48581 -206.80667,379.35327 -204.88998,380.49435 
				-207.11868,380.69174 -206.80974,382.91071 -208.36653,381.28418 -209.91376,382.91071 -209.6144,380.69174 
				-211.83348,380.49435 -209.92633,379.35327 -211.15538,377.48581 -209.05728,378.2854 -208.36653,376.14871 			"/>
		</g>
		<g>
			<polygon class="st3" points="-207.67575,411.81433 -205.5681,411.01471 -206.80667,412.8822 -204.88998,414.02325 
				-207.11868,414.22064 -206.80974,416.43964 -208.36653,414.81311 -209.91376,416.43964 -209.6144,414.22064 
				-211.83348,414.02325 -209.92633,412.8822 -211.15538,411.01471 -209.05728,411.81433 -208.36653,409.67761 			"/>
		</g>
		<g>
			<polygon class="st3" points="-196.49945,388.54489 -194.39182,387.7453 -195.63037,389.61276 -193.71368,390.75385 
				-195.94237,390.95123 -195.63342,393.1702 -197.19022,391.5437 -198.73747,393.1702 -198.43808,390.95123 -200.65717,390.75385 
				-198.75003,389.61276 -199.97906,387.7453 -197.88097,388.54489 -197.19022,386.4082 			"/>
		</g>
		<g>
			<polygon class="st3" points="-220.24908,391.90652 -218.14145,391.10693 -219.38002,392.9744 -217.46333,394.11548 
				-219.69203,394.31287 -219.38309,396.53186 -220.93987,394.9053 -222.48711,396.53186 -222.18773,394.31287 
				-224.40681,394.11548 -222.49969,392.9744 -223.72873,391.10693 -221.63062,391.90652 -220.93987,389.76984 			"/>
		</g>
		<g>
			<polygon class="st3" points="-203.33829,396.40247 -203.82181,397.91879 -205.42526,397.923 -204.12065,398.8623 
				-204.61691,400.37738 -203.33028,399.43338 -202.03867,400.37054 -202.53632,398.84534 -201.24332,397.9183 
				-202.84036,397.92252 			"/>
		</g>
	</g>
</g>
</svg>
