<?xml version="1.0" encoding="utf-8"?>
<!-- Generator: Adobe Illustrator 19.0.0, SVG Export Plug-In . SVG Version: 6.00 Build 0)  -->
<svg version="1.1" id="Layer_1" xmlns="http://www.w3.org/2000/svg" xmlns:xlink="http://www.w3.org/1999/xlink" x="0px" y="0px"
	 viewBox="-269 374 72 46" style="enable-background:new -269 374 72 46;" xml:space="preserve">
<style type="text/css">
	.st0{clip-path:url(#SVGID_2_);}
	.st1{fill:#0097D8;}
	.st2{fill:none;stroke:#000000;stroke-width:0.25;}
	.st3{fill:#FFED00;}
	.st4{fill:#FFFFFF;}
	.st5{fill:#E40520;}
</style>
<g>
	<defs>
		<path id="SVGID_1_" d="M-203.95834,420h-58.08331c-3.84299,0-6.95834-3.11536-6.95834-6.95831v-32.08334
			c0-3.84299,3.11536-6.95834,6.95834-6.95834h58.08331c3.84299,0,6.95834,3.11536,6.95834,6.95834v32.08334
			C-197,416.88464-200.11536,420-203.95834,420z"/>
	</defs>
	<clipPath id="SVGID_2_">
		<use xlink:href="#SVGID_1_"  style="overflow:visible;"/>
	</clipPath>
	<g class="st0">
		<g>
			<polygon class="st1" points="-194.39366,422.73755 -194.39366,371.26242 -271.60635,371.26242 -271.60635,422.73755 			"/>
		</g>
		<g>
			<path d="M-194.26855,422.8623h-77.46289v-51.7251h77.46289V422.8623z M-271.48145,422.6123h76.96289v-51.2251h-76.96289V422.6123
				z"/>
		</g>
		<g>
			<path class="st1" d="M-233,397"/>
		</g>
		<g>
			<path class="st2" d="M-233,397"/>
		</g>
		<g>
			<polygon class="st3" points="-194.39366,414.15836 -194.39366,411.29865 -271.60635,411.29865 -271.60635,414.15836 			"/>
		</g>
		<g>
			<path d="M-194.26855,414.2832h-77.46289v-3.10938h77.46289V414.2832z M-271.48145,414.0332h76.96289v-2.60938h-76.96289V414.0332
				z"/>
		</g>
		<g>
			<polygon class="st3" points="-194.39366,408.4389 -194.39366,405.57916 -271.60635,405.57916 -271.60635,408.4389 			"/>
		</g>
		<g>
			<path d="M-194.26855,408.56348h-77.46289v-3.10938h77.46289V408.56348z M-271.48145,408.31348h76.96289v-2.60938h-76.96289
				V408.31348z"/>
		</g>
		<g>
			<polygon class="st4" points="-258.15585,380.65665 -251.6524,382.68884 -258.15585,384.71606 -260.18567,391.22208 
				-262.2153,384.71606 -268.71872,382.68884 -262.2153,380.65665 -260.18567,374.15561 			"/>
		</g>
		<g>
			<polygon class="st5" points="-258.51163,381.01312 -253.14748,382.68991 -258.51163,384.36148 -260.18591,389.72833 
				-261.85999,384.36148 -267.22415,382.68991 -261.85999,381.01312 -260.18591,375.65167 			"/>
		</g>
	</g>
</g>
</svg>
