<?xml version="1.0" encoding="utf-8"?>
<!-- Generator: Adobe Illustrator 19.0.0, SVG Export Plug-In . SVG Version: 6.00 Build 0)  -->
<svg version="1.1" id="Layer_1" xmlns="http://www.w3.org/2000/svg" xmlns:xlink="http://www.w3.org/1999/xlink" x="0px" y="0px"
	 viewBox="-269 374 72 46" style="enable-background:new -269 374 72 46;" xml:space="preserve">
<style type="text/css">
	.st0{clip-path:url(#SVGID_2_);}
	.st1{fill:#0097D8;}
	.st2{fill:#FFED00;}
	.st3{fill:#E40520;}
</style>
<g>
	<defs>
		<path id="SVGID_1_" d="M-203.95834,420h-58.08331c-3.84299,0-6.95834-3.11536-6.95834-6.95831v-32.08334
			c0-3.84299,3.11536-6.95834,6.95834-6.95834h58.08331c3.84299,0,6.95834,3.11536,6.95834,6.95834v32.08334
			C-197,416.88464-200.11536,420-203.95834,420z"/>
	</defs>
	<clipPath id="SVGID_2_">
		<use xlink:href="#SVGID_1_"  style="overflow:visible;"/>
	</clipPath>
	<g class="st0">
		<g>
			<polygon class="st1" points="-188.6918,425.46841 -188.6918,367.53156 -277.30823,367.53156 -277.30823,425.46841 			"/>
		</g>
		<g>
			<path d="M-188.56641,425.59375h-88.8667v-58.18701h88.8667V425.59375z M-277.18311,425.34375h88.3667v-57.68701h-88.3667
				V425.34375z"/>
		</g>
		<g>
			<polygon class="st2" points="-250.02377,367.53156 -250.02377,387.97919 -277.30823,387.97919 -277.30823,405.01495 
				-250.02377,405.01495 -250.02377,425.46841 -232.98921,425.46841 -232.98921,405.01495 -188.6918,405.01495 -188.6918,387.97919 
				-232.98921,387.97919 -232.98921,367.53156 			"/>
		</g>
		<g>
			<path d="M-232.86426,425.59375h-17.28467v-20.4541h-27.28418V387.854h27.28418v-20.44727h17.28467V387.854h44.29785v17.28564
				h-44.29785V425.59375z M-249.89893,425.34375h16.78467v-20.4541h44.29785V388.104h-44.29785v-20.44727h-16.78467V388.104
				h-27.28418v16.78564h27.28418V425.34375z"/>
		</g>
		<g>
			<polygon class="st3" points="-244.92078,367.53156 -244.92078,393.08218 -277.30823,393.08218 -277.30823,399.8992 
				-244.92078,399.8992 -244.92078,425.46841 -238.1004,425.46841 -238.1004,399.8992 -188.6918,399.8992 -188.6918,393.08218 
				-238.1004,393.08218 -238.1004,367.53156 			"/>
		</g>
		<g>
			<path d="M-237.97559,425.59375h-7.07031v-25.56934h-32.38721v-7.06738h32.38721v-25.55029h7.07031v25.55029h49.40918v7.06738
				h-49.40918V425.59375z M-244.7959,425.34375h6.57031v-25.56934h49.40918v-6.56738h-49.40918v-25.55029h-6.57031v25.55029
				h-32.38721v6.56738h32.38721V425.34375z"/>
		</g>
	</g>
</g>
</svg>
