<?xml version="1.0" encoding="utf-8"?>
<!-- Generator: Adobe Illustrator 19.0.0, SVG Export Plug-In . SVG Version: 6.00 Build 0)  -->
<svg version="1.1" id="Layer_1" xmlns="http://www.w3.org/2000/svg" xmlns:xlink="http://www.w3.org/1999/xlink" x="0px" y="0px"
	 viewBox="-269 374 72 46" style="enable-background:new -269 374 72 46;" xml:space="preserve">
<style type="text/css">
	.st0{clip-path:url(#SVGID_2_);}
	.st1{fill:#0089BD;}
	.st2{fill:#31AA47;}
	.st3{fill:#E50040;}
	.st4{fill:#FFFFFF;}
</style>
<g>
	<defs>
		<path id="SVGID_1_" d="M-203.95834,420h-58.08331c-3.84299,0-6.95834-3.11536-6.95834-6.95831v-32.08334
			c0-3.84299,3.11536-6.95834,6.95834-6.95834h58.08331c3.84299,0,6.95834,3.11536,6.95834,6.95834v32.08334
			C-197,416.88464-200.11536,420-203.95834,420z"/>
	</defs>
	<clipPath id="SVGID_2_">
		<use xlink:href="#SVGID_1_"  style="overflow:visible;"/>
	</clipPath>
	<g class="st0">
		<g>
			<polygon class="st1" points="-185.48596,388.58075 -280.51407,388.58075 -280.51407,372.74295 -185.48596,372.74295 			"/>
		</g>
		<g>
			<path d="M-185.36133,388.70557h-95.27783v-16.0874h95.27783V388.70557z M-280.38916,388.45557h94.77783v-15.5874h-94.77783
				V388.45557z"/>
		</g>
		<g>
			<polygon class="st2" points="-280.51407,420.25702 -185.48596,420.25702 -185.48596,404.41925 -280.51407,404.41925 			"/>
		</g>
		<g>
			<path d="M-185.36133,420.38184h-95.27783v-16.08789h95.27783V420.38184z M-280.38916,420.13184h94.77783v-15.58789h-94.77783
				V420.13184z"/>
		</g>
		<g>
			<polygon class="st3" points="-185.48596,404.41925 -280.51407,404.41925 -280.51407,388.58075 -185.48596,388.58075 			"/>
		</g>
		<g>
			<path d="M-185.36133,404.54395h-95.27783v-16.08838h95.27783V404.54395z M-280.38916,404.29395h94.77783v-15.58838h-94.77783
				V404.29395z"/>
		</g>
		<g>
			<polygon class="st4" points="-227.44943,392.55063 -226.70525,394.6799 -224.65482,393.70395 -225.61836,395.74081 
				-223.5014,396.4986 -225.61032,397.23248 -224.65482,399.29324 -226.68109,398.30936 -227.44943,400.44672 -228.21088,398.30936 
				-230.24408,399.29324 -229.28168,397.23248 -231.39751,396.4986 -229.27365,395.74081 -230.24408,393.70395 -228.18674,394.6799 
							"/>
		</g>
		<g>
			<path class="st4" d="M-242.49149,396.4993c0,3.92975,3.18579,7.11554,7.11552,7.11554c2.30235,0,4.35002-1.0936,5.65059-2.78958
				c-1.05812,0.98911-2.4787,1.59448-4.04135,1.59448c-3.26971,0-5.92044-2.65073-5.92044-5.92044s2.65073-5.92044,5.92044-5.92044
				c1.56267,0,2.98323,0.60541,4.04135,1.59451c-1.30057-1.69601-3.34825-2.78958-5.65059-2.78958
				C-239.30569,389.38379-242.49149,392.56955-242.49149,396.4993L-242.49149,396.4993z"/>
		</g>
	</g>
</g>
</svg>
