<?xml version="1.0" encoding="utf-8"?>
<!-- Generator: Adobe Illustrator 19.0.0, SVG Export Plug-In . SVG Version: 6.00 Build 0)  -->
<svg version="1.1" id="Layer_1" xmlns="http://www.w3.org/2000/svg" xmlns:xlink="http://www.w3.org/1999/xlink" x="0px" y="0px"
	 viewBox="-269 374 72 46" style="enable-background:new -269 374 72 46;" xml:space="preserve">
<style type="text/css">
	.st0{clip-path:url(#SVGID_2_);}
	.st1{fill:#FFFFFF;}
	.st2{fill:#0058A2;}
	.st3{fill:#FFD500;}
</style>
<g>
	<defs>
		<path id="SVGID_1_" d="M-203.95834,420h-58.08331c-3.84299,0-6.95834-3.11536-6.95834-6.95831v-32.08334
			c0-3.84299,3.11536-6.95834,6.95834-6.95834h58.08331c3.84299,0,6.95834,3.11536,6.95834,6.95834v32.08334
			C-197,416.88464-200.11536,420-203.95834,420z"/>
	</defs>
	<clipPath id="SVGID_2_">
		<use xlink:href="#SVGID_1_"  style="overflow:visible;"/>
	</clipPath>
	<g class="st0">
		<g>
			<polygon class="st1" points="-185.16887,420.41556 -185.16887,372.58444 -280.83112,372.58444 -280.83112,420.41556 			"/>
		</g>
		<g>
			<path d="M-185.04395,420.54102h-95.91211v-48.08154h95.91211V420.54102z M-280.70605,420.29102h95.41211v-47.58154h-95.41211
				V420.29102z"/>
		</g>
		<g>
			<path class="st2" d="M-219.98911,380.59402c0,0,0,8.86874,0,12.60965c0,9.83728-5.94774,16.83423-13.01088,19.25891
				c-7.06314-2.42465-13.00706-9.42163-13.00706-19.25891c0-3.74091,0-12.60965,0-12.60965H-219.98911L-219.98911,380.59402z"/>
		</g>
		<g>
			<path d="M-233,412.5293l-0.02051-0.00684c-3.61963-1.24316-6.88037-3.68359-9.18213-6.87305
				c-2.52979-3.50488-3.8667-7.80811-3.8667-12.4458v-12.67188h26.14258v12.67188c0,4.63721-1.33789,8.94092-3.86816,12.4458
				c-2.30273,3.18945-5.56445,5.62988-9.18457,6.87305L-233,412.5293z M-245.94434,380.65674v12.54688
				c0,8.95264,5.08008,16.48389,12.94434,19.19287c7.86621-2.70996,12.94824-10.24121,12.94824-19.19287v-12.54688H-245.94434z"/>
		</g>
		<g>
			<path class="st1" d="M-222.76195,403.93115l-20.57458-23.33713h-2.67052v3.05682l20.82687,23.60959
				C-224.25816,406.271-223.27098,404.8508-222.76195,403.93115L-222.76195,403.93115z"/>
		</g>
		<g>
			<path d="M-225.18066,407.35352l-0.0459-0.05176l-20.84277-23.62744v-3.14258h2.76123l0.01855,0.021l20.604,23.37012
				l-0.02148,0.03809c-0.49805,0.90039-1.49121,2.33789-2.42676,3.34277L-225.18066,407.35352z M-245.94434,383.62744
				l20.76563,23.54053c0.90137-0.98047,1.84863-2.34863,2.34082-3.22949l-20.52686-23.28174h-2.57959V383.62744z"/>
		</g>
		<g>
			<path class="st3" d="M-232.99875,387.44934l0.52884-0.41968c-0.16924-0.13351-0.26344-0.36243-0.26344-0.61041
				c0-1.13181,1.82883-0.80112,1.1942,0.08734c0.63463,0.06348,1.00037-0.42477,0.84616-0.97308
				c-0.19038-0.67694-1.20576-1.05768-2.12674-0.22214c0.80559-1.21631,0.54019-2.21057-0.17902-2.85574
				c-0.71925,0.64517-0.98462,1.63943-0.17902,2.85574c-0.92102-0.83554-1.93637-0.4548-2.12675,0.22214
				c-0.15422,0.54831,0.21153,1.03656,0.84616,0.97308c-0.63463-0.88846,1.19421-1.21915,1.19421-0.08734
				c0,0.24802-0.09422,0.4769-0.26344,0.61041L-232.99875,387.44934L-232.99875,387.44934z"/>
		</g>
		<g>
			<path class="st3" d="M-224.75485,387.44934l0.52884-0.41968c-0.16922-0.13351-0.26344-0.36243-0.26344-0.61041
				c0-1.13181,1.82883-0.80112,1.19421,0.08734c0.63461,0.06348,1.00035-0.42477,0.84615-0.97308
				c-0.19037-0.67694-1.20578-1.05768-2.12674-0.22214c0.8056-1.21631,0.54021-2.21057-0.17902-2.85574
				c-0.71924,0.64517-0.9846,1.63943-0.17902,2.85574c-0.92097-0.83554-1.93636-0.4548-2.12674,0.22214
				c-0.15421,0.54831,0.21155,1.03656,0.84616,0.97308c-0.63461-0.88846,1.19421-1.21915,1.19421-0.08734
				c0,0.24802-0.09422,0.4769-0.26346,0.61041L-224.75485,387.44934L-224.75485,387.44934z"/>
		</g>
		<g>
			<path class="st3" d="M-224.75485,396.66315l0.52884-0.41968c-0.16922-0.13351-0.26344-0.3624-0.26344-0.61041
				c0-1.13177,1.82883-0.80112,1.19421,0.08731c0.63461,0.06348,1.00035-0.42477,0.84615-0.97305
				c-0.19037-0.67691-1.20578-1.05771-2.12674-0.22214c0.8056-1.21634,0.54021-2.21057-0.17902-2.85574
				c-0.71924,0.64517-0.9846,1.63943-0.17902,2.85574c-0.92097-0.83554-1.93636-0.45477-2.12674,0.22214
				c-0.15421,0.54828,0.21155,1.03653,0.84616,0.97305c-0.63461-0.88843,1.19421-1.21906,1.19421-0.08731
				c0,0.24802-0.09422,0.4769-0.26346,0.61041L-224.75485,396.66315L-224.75485,396.66315z"/>
		</g>
		<g>
			<path class="st3" d="M-242.55894,396.66315l0.52882-0.41968c-0.1692-0.13351-0.26343-0.3624-0.26343-0.61041
				c0-1.13177,1.82883-0.80112,1.19421,0.08731c0.63461,0.06348,1.00037-0.42477,0.84613-0.97305
				c-0.19037-0.67691-1.20576-1.05771-2.12672-0.22214c0.80557-1.21634,0.54021-2.21057-0.17902-2.85574
				c-0.71921,0.64517-0.9846,1.63943-0.179,2.85574c-0.92099-0.83554-1.93639-0.45477-2.12675,0.22214
				c-0.15421,0.54828,0.21152,1.03653,0.84615,0.97305c-0.63463-0.88843,1.19424-1.21906,1.19424-0.08731
				c0,0.24802-0.09425,0.4769-0.26347,0.61041L-242.55894,396.66315L-242.55894,396.66315z"/>
		</g>
		<g>
			<path class="st3" d="M-237.7789,402.06744l0.52887-0.41968c-0.16924-0.13354-0.26347-0.36243-0.26347-0.61041
				c0-1.13177,1.82887-0.80115,1.19426,0.08731c0.63461,0.06348,1.00034-0.42477,0.84615-0.97308
				c-0.19041-0.67688-1.20578-1.05768-2.12677-0.22211c0.80557-1.21634,0.54022-2.21057-0.17903-2.85574
				c-0.71921,0.64517-0.98456,1.6394-0.17902,2.85574c-0.92097-0.83554-1.93634-0.45477-2.12674,0.22211
				c-0.15421,0.54831,0.21155,1.03656,0.84616,0.97308c-0.63461-0.88846,1.19424-1.21909,1.19424-0.08731
				c0,0.24799-0.09422,0.4769-0.26349,0.61041L-237.7789,402.06744L-237.7789,402.06744z"/>
		</g>
		<g>
			<path class="st3" d="M-232.99878,407.47171l0.52884-0.41965c-0.16922-0.13354-0.26346-0.36246-0.26346-0.61044
				c0-1.13177,1.82886-0.80112,1.19421,0.08731c0.63464,0.06348,1.00037-0.42474,0.84616-0.97308
				c-0.19037-0.67688-1.20576-1.05768-2.12674-0.22208c0.8056-1.21634,0.54022-2.2106-0.17902-2.8558
				c-0.71924,0.6452-0.98462,1.63947-0.17902,2.8558c-0.92097-0.8356-1.93637-0.4548-2.12674,0.22208
				c-0.15424,0.54834,0.21153,1.03656,0.84615,0.97308c-0.63461-0.88846,1.19421-1.21909,1.19421-0.08731
				c0,0.24799-0.09422,0.4769-0.26344,0.61044L-232.99878,407.47171L-232.99878,407.47171z"/>
		</g>
	</g>
</g>
</svg>
