<?xml version="1.0" encoding="utf-8"?>
<!-- Generator: Adobe Illustrator 19.0.0, SVG Export Plug-In . SVG Version: 6.00 Build 0)  -->
<svg version="1.1" id="Layer_1" xmlns="http://www.w3.org/2000/svg" xmlns:xlink="http://www.w3.org/1999/xlink" x="0px" y="0px"
	 viewBox="-269 374 72 46" style="enable-background:new -269 374 72 46;" xml:space="preserve">
<style type="text/css">
	.st0{clip-path:url(#SVGID_2_);}
	.st1{fill:#004996;}
	.st2{fill:#FBB907;}
</style>
<g>
	<defs>
		<path id="SVGID_1_" d="M-203.95834,420h-58.08331c-3.84299,0-6.95834-3.11536-6.95834-6.95831v-32.08334
			c0-3.84299,3.11536-6.95834,6.95834-6.95834h58.08331c3.84299,0,6.95834,3.11536,6.95834,6.95834v32.08334
			C-197,416.88464-200.11536,420-203.95834,420z"/>
	</defs>
	<clipPath id="SVGID_2_">
		<use xlink:href="#SVGID_1_"  style="overflow:visible;"/>
	</clipPath>
	<g class="st0">
		<g>
			<polygon class="st1" points="-245.66554,422.44037 -245.66554,370.55963 -270.99548,370.55963 -270.99548,422.44037 			"/>
		</g>
		<g>
			<path d="M-245.54053,422.56543h-25.58008v-52.13086h25.58008V422.56543z M-270.87061,422.31543h25.08008v-51.63086h-25.08008
				V422.31543z"/>
		</g>
		<g>
			<polygon class="st1" points="-220.3356,422.44037 -220.3356,370.55963 -195.00452,370.55963 -195.00452,422.44037 			"/>
		</g>
		<g>
			<path d="M-194.87988,422.56543h-25.58105v-52.13086h25.58105V422.56543z M-220.21094,422.31543h25.08105v-51.63086h-25.08105
				V422.31543z"/>
		</g>
		<g>
			<polygon class="st2" points="-245.66554,422.44037 -245.66554,370.55963 -220.3356,370.55963 -220.3356,422.44037 			"/>
		</g>
		<g>
			<path d="M-220.21094,422.56543h-25.57959v-52.13086h25.57959V422.56543z M-245.54053,422.31543h25.07959v-51.63086h-25.07959
				V422.31543z"/>
		</g>
		<g>
			<path d="M-233,396.51129"/>
		</g>
		<g>
			<path d="M-231.7467,408.16586v-5.80661c1.22638,0.08264,2.82045,0.37195,4.03116,0.64056
				c0.24213-5.08337,1.61426-10.70401,5.50865-14.77487c-2.66353,0.1033-4.74188,1.28116-6.37631,3.20294
				c0.51453-0.08264,1.14008-0.10333,1.67479-0.0517c-1.45285,2.47974-2.34068,6.04428-2.66351,9.14395
				c-0.58521-0.14465-1.57953-0.25833-2.17477-0.28931v-9.52621c0.57506,0.0517,1.26674,0.22733,1.85637,0.49594
				c-1.11427-1.88043-2.22406-4.00885-3.11194-6.3439c-0.8878,2.33505-1.99763,4.46347-3.11192,6.3439
				c0.58968-0.26862,1.28133-0.44424,1.85645-0.49594v9.52621c-0.59528,0.03098-1.58963,0.14465-2.1748,0.28931
				c-0.32285-3.09967-1.21071-6.66422-2.66351-9.14395c0.53471-0.05164,1.16025-0.03094,1.67479,0.0517
				c-1.63445-1.92178-3.71281-3.09964-6.37634-3.20294c3.89438,4.07086,5.26651,9.69153,5.50867,14.77487
				c1.21069-0.26862,2.80478-0.55792,4.03119-0.64056v5.80661H-231.7467L-231.7467,408.16586z"/>
		</g>
	</g>
</g>
</svg>
