<?xml version="1.0" encoding="utf-8"?>
<!-- Generator: Adobe Illustrator 19.0.0, SVG Export Plug-In . SVG Version: 6.00 Build 0)  -->
<svg version="1.1" id="Layer_1" xmlns="http://www.w3.org/2000/svg" xmlns:xlink="http://www.w3.org/1999/xlink" x="0px" y="0px"
	 viewBox="-269 374 72 46" style="enable-background:new -269 374 72 46;" xml:space="preserve">
<style type="text/css">
	.st0{clip-path:url(#SVGID_2_);}
	.st1{fill:#00634E;}
	.st2{fill:none;stroke:#000000;stroke-width:0.25;}
	.st3{fill:#E62644;}
</style>
<g>
	<defs>
		<path id="SVGID_1_" d="M-203.95834,420h-58.08331c-3.84299,0-6.95834-3.11536-6.95834-6.95831v-32.08334
			c0-3.84299,3.11536-6.95834,6.95834-6.95834h58.08331c3.84299,0,6.95834,3.11536,6.95834,6.95834v32.08334
			C-197,416.88464-200.11536,420-203.95834,420z"/>
	</defs>
	<clipPath id="SVGID_2_">
		<use xlink:href="#SVGID_1_"  style="overflow:visible;"/>
	</clipPath>
	<g class="st0">
		<g>
			<polygon class="st1" points="-193.8801,420.95154 -193.8801,372.8396 -272.11996,372.8396 -272.11996,420.95154 			"/>
		</g>
		<g>
			<path d="M-193.75488,421.07617h-78.49023v-48.36182h78.49023V421.07617z M-271.99512,420.82617h77.99023v-47.86182h-77.99023
				V420.82617z"/>
		</g>
		<g>
			<path class="st1" d="M-233.00006,396.89557"/>
		</g>
		<g>
			<path class="st2" d="M-233.00006,396.89557"/>
		</g>
		<g>
			<path class="st3" d="M-236.90593,412.93149c8.62669,0,15.62019-7.16751,15.62019-16.00885
				c0-8.84131-6.9935-16.00882-15.62019-16.00882c-8.62665,0-15.62015,7.16751-15.62015,16.00882
				C-252.52608,405.76398-245.53258,412.93149-236.90593,412.93149L-236.90593,412.93149z"/>
		</g>
		<g>
			<path d="M-236.90576,413.05664c-8.68213,0-15.74512-7.2373-15.74512-16.13379s7.06299-16.13428,15.74512-16.13428
				c8.68115,0,15.74463,7.23779,15.74463,16.13428S-228.22461,413.05664-236.90576,413.05664z M-236.90576,381.03857
				c-8.54395,0-15.49512,7.12549-15.49512,15.88428s6.95117,15.88379,15.49512,15.88379c8.54346,0,15.49463-7.125,15.49463-15.88379
				S-228.3623,381.03857-236.90576,381.03857z"/>
		</g>
		<g>
			<path class="st3" d="M-236.90593,396.92264"/>
		</g>
		<g>
			<path class="st2" d="M-236.90593,396.92264"/>
		</g>
	</g>
</g>
</svg>
