<?xml version="1.0" encoding="utf-8"?>
<!-- Generator: Adobe Illustrator 19.0.0, SVG Export Plug-In . SVG Version: 6.00 Build 0)  -->
<svg version="1.1" id="Layer_1" xmlns="http://www.w3.org/2000/svg" xmlns:xlink="http://www.w3.org/1999/xlink" x="0px" y="0px"
	 viewBox="-269 374 72 46" style="enable-background:new -269 374 72 46;" xml:space="preserve">
<style type="text/css">
	.st0{clip-path:url(#SVGID_2_);}
	.st1{fill:#E40520;}
	.st2{fill:#009E59;}
	.st3{fill:#FFE247;}
	.st4{fill:none;stroke:#000000;stroke-width:0.125;}
</style>
<g>
	<defs>
		<path id="SVGID_1_" d="M-203.95834,420h-58.08331c-3.84299,0-6.95834-3.11536-6.95834-6.95831v-32.08334
			c0-3.84299,3.11536-6.95834,6.95834-6.95834h58.08331c3.84299,0,6.95834,3.11536,6.95834,6.95834v32.08334
			C-197,416.88464-200.11536,420-203.95834,420z"/>
	</defs>
	<clipPath id="SVGID_2_">
		<use xlink:href="#SVGID_1_"  style="overflow:visible;"/>
	</clipPath>
	<g class="st0">
		<g>
			<polygon class="st1" points="-195.71362,396.5 -270.28638,396.5 -270.28638,371.6424 -195.71362,371.6424 			"/>
		</g>
		<g>
			<path d="M-195.58887,396.625h-74.82275v-25.10742h74.82275V396.625z M-270.16162,396.375h74.32275v-24.60742h-74.32275V396.375z"
				/>
		</g>
		<g>
			<polygon class="st2" points="-195.71362,396.5 -270.28638,396.5 -270.28638,421.3576 -195.71362,421.3576 			"/>
		</g>
		<g>
			<path d="M-195.58887,421.48242h-74.82275V396.375h74.82275V421.48242z M-270.16162,421.23242h74.32275V396.625h-74.32275
				V421.23242z"/>
		</g>
		<g>
			<polygon class="st3" points="-233,388.99173 -234.67529,394.19662 -240.1843,394.19662 -235.71059,397.43539 
				-237.42924,402.63647 -233,399.40482 -228.57133,402.63647 -230.26691,397.39172 -225.81619,394.2186 -231.3033,394.2186 			"/>
		</g>
		<g>
			<path d="M-237.5498,402.80176l1.76563-5.34229l-4.59277-3.3252h5.65625l1.72021-5.3457l0.06006,0.18359l1.68262,5.18408h5.63672
				l-4.57227,3.25977l1.74121,5.38477l-0.15625-0.11328L-233,399.48242L-237.5498,402.80176z M-233,399.32813l0.03662,0.02637
				l4.27295,3.11816l-1.64941-5.10547l0.03711-0.02637l4.29102-3.05957h-5.33789l-0.01367-0.04297L-233,389.19482l-1.62988,5.06445
				h-5.36133l4.35449,3.15234l-0.01416,0.04346l-1.65771,5.0166L-233,399.32813z"/>
		</g>
		<g>
			<path class="st3" d="M-233,396.52069"/>
		</g>
		<g>
			<path class="st4" d="M-233,396.52069"/>
		</g>
	</g>
</g>
</svg>
