<?xml version="1.0" encoding="utf-8"?>
<!-- Generator: Adobe Illustrator 19.0.0, SVG Export Plug-In . SVG Version: 6.00 Build 0)  -->
<svg version="1.1" id="Layer_1" xmlns="http://www.w3.org/2000/svg" xmlns:xlink="http://www.w3.org/1999/xlink" x="0px" y="0px"
	 viewBox="-269 374 72 46" style="enable-background:new -269 374 72 46;" xml:space="preserve">
<style type="text/css">
	.st0{clip-path:url(#SVGID_2_);}
	.st1{fill:#FFFFFF;}
	.st2{fill:#DC2F34;}
	.st3{fill:#007759;}
</style>
<g>
	<defs>
		<path id="SVGID_1_" d="M-203.95834,420h-58.08331c-3.84299,0-6.95834-3.11536-6.95834-6.95831v-32.08334
			c0-3.84299,3.11536-6.95834,6.95834-6.95834h58.08331c3.84299,0,6.95834,3.11536,6.95834,6.95834v32.08334
			C-197,416.88464-200.11536,420-203.95834,420z"/>
	</defs>
	<clipPath id="SVGID_2_">
		<use xlink:href="#SVGID_1_"  style="overflow:visible;"/>
	</clipPath>
	<g class="st0">
		<g>
			<polygon class="st1" points="-197.00052,388.99988 -268.99948,388.99988 -268.99948,373.00034 -197.00052,373.00034 			"/>
		</g>
		<g>
			<path d="M-196.87598,389.125h-72.24854v-16.24951h72.24854V389.125z M-268.87451,388.875h71.74854v-15.74951h-71.74854V388.875z"
				/>
		</g>
		<g>
			<polygon class="st2" points="-268.99948,420.99963 -197.00052,420.99963 -197.00052,404.99942 -268.99948,404.99942 			"/>
		</g>
		<g>
			<path d="M-196.87598,421.125h-72.24854v-16.25098h72.24854V421.125z M-268.87451,420.875h71.74854v-15.75098h-71.74854V420.875z"
				/>
		</g>
		<g>
			<polygon class="st3" points="-197.00052,404.99942 -268.99948,404.99942 -268.99948,388.99988 -197.00052,388.99988 			"/>
		</g>
		<g>
			<path d="M-196.87598,405.12402h-72.24854V388.875h72.24854V405.12402z M-268.87451,404.87402h71.74854V389.125h-71.74854
				V404.87402z"/>
		</g>
	</g>
</g>
</svg>
