<?xml version="1.0" encoding="utf-8"?>
<!-- Generator: Adobe Illustrator 19.0.0, SVG Export Plug-In . SVG Version: 6.00 Build 0)  -->
<svg version="1.1" id="Layer_1" xmlns="http://www.w3.org/2000/svg" xmlns:xlink="http://www.w3.org/1999/xlink" x="0px" y="0px"
	 viewBox="-269 374 72 46" style="enable-background:new -269 374 72 46;" xml:space="preserve">
<style type="text/css">
	.st0{clip-path:url(#SVGID_2_);}
	.st1{fill:#E40520;}
	.st2{fill:none;stroke:#000000;stroke-width:0.25;}
	.st3{fill:#FFFFFF;}
</style>
<g>
	<defs>
		<path id="SVGID_1_" d="M-203.95834,420h-58.08331c-3.84299,0-6.95834-3.11536-6.95834-6.95831v-32.08334
			c0-3.84299,3.11536-6.95834,6.95834-6.95834h58.08331c3.84299,0,6.95834,3.11536,6.95834,6.95834v32.08334
			C-197,416.88464-200.11536,420-203.95834,420z"/>
	</defs>
	<clipPath id="SVGID_2_">
		<use xlink:href="#SVGID_1_"  style="overflow:visible;"/>
	</clipPath>
	<g class="st0">
		<g>
			<polygon class="st1" points="-190.10477,422.23715 -190.10477,370.76285 -275.89529,370.76285 -275.89529,422.23715 			"/>
		</g>
		<g>
			<path d="M-189.97949,422.3623h-86.04102V370.6377h86.04102V422.3623z M-275.77051,422.1123h85.54102V370.8877h-85.54102V422.1123
				z"/>
		</g>
		<g>
			<path class="st1" d="M-233.00008,396.5"/>
		</g>
		<g>
			<path class="st2" d="M-233.00008,396.5"/>
		</g>
		<g>
			<path class="st1" d="M-233.00008,396.5"/>
		</g>
		<g>
			<path class="st2" d="M-233.00008,396.5"/>
		</g>
		<g>
			<polygon class="st3" points="-258.73578,422.23715 -249.8194,419.01944 -258.73578,415.80173 -249.8194,412.58405 
				-258.73578,409.36633 -249.8194,406.14862 -258.73578,402.93091 -249.8194,399.71323 -258.73578,396.49551 -249.8194,393.2778 
				-258.73578,390.06012 -249.8194,386.84241 -258.73578,383.62469 -249.8194,380.40701 -258.73578,377.1893 -249.8194,373.97162 
				-258.73578,370.76285 -275.89529,370.76285 -275.89529,422.23715 			"/>
		</g>
		<g>
			<path d="M-258.71387,422.3623h-17.30664V370.6377l17.32715,0.00732l9.24268,3.32666l-8.91699,3.21777l8.9165,3.21777
				l-8.9165,3.21729l8.9165,3.21777l-8.9165,3.21777l8.9165,3.21777l-8.9165,3.21777l8.9165,3.21729l-8.9165,3.21777l8.9165,3.21777
				l-8.9165,3.21777l8.9165,3.21777l-8.9165,3.21777l8.9165,3.21777L-258.71387,422.3623z M-275.77051,422.1123h17.0127
				l8.57031-3.09277l-8.9165-3.21777l8.9165-3.21777l-8.9165-3.21777l8.9165-3.21777l-8.9165-3.21777l8.9165-3.21777
				l-8.9165-3.21729l8.9165-3.21777l-8.9165-3.21777l8.9165-3.21777l-8.9165-3.21777l8.9165-3.21729l-8.9165-3.21777
				l8.91602-3.21777l-8.56982-3.08398h-17.0127V422.1123z"/>
		</g>
	</g>
</g>
</svg>
