<?xml version="1.0" encoding="utf-8"?>
<!-- Generator: Adobe Illustrator 19.0.0, SVG Export Plug-In . SVG Version: 6.00 Build 0)  -->
<svg version="1.1" id="Layer_1" xmlns="http://www.w3.org/2000/svg" xmlns:xlink="http://www.w3.org/1999/xlink" x="0px" y="0px"
	 viewBox="-269 374 72 46" style="enable-background:new -269 374 72 46;" xml:space="preserve">
<style type="text/css">
	.st0{clip-path:url(#SVGID_2_);}
	.st1{fill:#008E5B;}
	.st2{fill:#E73137;}
	.st3{fill:#FFFFFF;}
</style>
<g>
	<g>
		<defs>
			<path id="SVGID_1_" d="M-203.95834,420h-58.08331c-3.84299,0-6.95834-3.11536-6.95834-6.95831v-32.08334
				c0-3.84299,3.11536-6.95834,6.95834-6.95834h58.08331c3.84299,0,6.95834,3.11536,6.95834,6.95834v32.08334
				C-197,416.88464-200.11536,420-203.95834,420z"/>
		</defs>
		<clipPath id="SVGID_2_">
			<use xlink:href="#SVGID_1_"  style="overflow:visible;"/>
		</clipPath>
		<g class="st0">
			<g>
				<polygon class="st1" points="-196.38828,420.90948 -196.38828,372.09052 -269.61172,372.09052 -269.61172,420.90948 				"/>
			</g>
			<g>
				<path d="M-196.26367,421.03418h-73.47314v-49.06885h73.47314V421.03418z M-269.48682,420.78418h72.97314v-48.56885h-72.97314
					V420.78418z"/>
			</g>
			<g>
				<polygon class="st2" points="-196.38828,372.09052 -269.61172,372.09052 -233.00128,396.50006 				"/>
			</g>
			<g>
				<path d="M-232.93213,396.604h-0.13867l-36.61035-24.40967l0.06934-0.229h73.22314l0.06934,0.229L-232.93213,396.604z
					 M-269.19922,372.21533l36.19775,24.13428l36.19971-24.13428H-269.19922z"/>
			</g>
			<g>
				<polygon class="st2" points="-196.38828,420.90948 -269.61172,420.90948 -233.00128,396.50006 				"/>
			</g>
			<g>
				<path d="M-196.38867,421.03418h-73.22314l-0.06934-0.22852l36.61035-24.40967h0.13867l36.61279,24.40967L-196.38867,421.03418z
					 M-269.19922,420.78418h72.39746l-36.19971-24.13379L-269.19922,420.78418z"/>
			</g>
			<g>
				<path class="st3" d="M-233.00128,410.28415c3.61243,0,6.89575-1.38101,9.35368-3.65497l21.40698,14.2803h5.85234v-3.90283
					l-23.65588-15.79129c0.53394-1.46918,0.82692-3.06161,0.82692-4.7153c0-1.67474-0.29663-3.27661-0.84364-4.76151
					l23.67261-15.80136v-3.84668h-5.9371l-21.35452,14.25443c-2.45425-2.25565-5.72533-3.62897-9.32138-3.62897
					s-6.86711,1.37335-9.32137,3.62897l-21.35454-14.25443h-5.93454v3.84668l23.67003,15.80136
					c-0.54701,1.48489-0.84364,3.08676-0.84364,4.76151c0,1.65366,0.29298,3.24612,0.82693,4.7153l-23.65335,15.79129v3.90283
					h5.84982l21.40695-14.28027C-239.89703,408.90314-236.61372,410.28415-233.00128,410.28415L-233.00128,410.28415z"/>
			</g>
			<g>
				<path d="M-196.26367,421.03418h-6.01465l-0.03125-0.02148l-21.3252-14.22559c-2.56152,2.33691-5.88379,3.62207-9.3667,3.62207
					s-6.80469-1.28516-9.36572-3.62207l-21.35645,14.24707h-6.01318v-4.09375l0.05566-0.03711l23.57178-15.7373
					c-0.53125-1.49609-0.80078-3.06543-0.80078-4.66602c0-1.62158,0.2749-3.20605,0.81738-4.71191l-23.64404-15.78418v-4.03857
					h6.09766l0.03125,0.021l21.27295,14.2002c2.56055-2.31934,5.87109-3.5957,9.3335-3.5957
					c3.46338,0,6.77393,1.27637,9.3335,3.5957l21.30469-14.22119h6.09961v4.03857l-0.05566,0.03711l-23.58984,15.74707
					c0.54199,1.50635,0.81738,3.09131,0.81738,4.71191c0,1.60059-0.26953,3.16992-0.80176,4.66602l23.62988,15.77441V421.03418z
					 M-202.20215,420.78418h5.68848v-3.71094l-23.68164-15.80762l0.03418-0.09277c0.54395-1.49609,0.81934-3.06836,0.81934-4.67285
					c0-1.62451-0.28125-3.21191-0.83594-4.71826l-0.03418-0.09229l0.08203-0.05469l23.61621-15.76465v-3.65479h-5.77344
					l-21.40527,14.28809l-0.07227-0.06689c-2.52246-2.31885-5.80371-3.5957-9.23682-3.5957
					c-3.43262,0-6.71289,1.27686-9.23682,3.59619l-0.07227,0.06641l-0.08154-0.05469l-21.32324-14.2334h-5.77148v3.65479
					l23.69629,15.81934l-0.03418,0.09229c-0.5542,1.50586-0.83545,3.09277-0.83545,4.71826
					c0,1.60352,0.27539,3.17676,0.81934,4.67285l0.0332,0.09277l-0.08154,0.05371l-23.59766,15.75391v3.71094h5.68701
					l21.45752-14.31348l0.07227,0.06641c2.52393,2.33594,5.81592,3.62207,9.26855,3.62207s6.74463-1.28613,9.26904-3.62207
					l0.07227-0.06641L-202.20215,420.78418z"/>
			</g>
			<g>
				<polygon class="st1" points="-232.91653,393.21738 -231.80116,391.30573 -229.5976,391.30573 -230.69177,389.37418 
					-229.5976,387.44269 -231.80116,387.44269 -232.91653,385.53107 -234.03191,387.44269 -236.23547,387.44269 
					-235.14133,389.37418 -236.23547,391.30573 -234.03191,391.30573 				"/>
			</g>
			<g>
				<polygon class="st1" points="-239.08246,404.09363 -237.96707,402.18198 -235.76352,402.18198 -236.8577,400.25049 
					-235.76352,398.31897 -237.96707,398.31897 -239.08246,396.40732 -240.19783,398.31897 -242.40138,398.31897 
					-241.30724,400.25049 -242.40138,402.18198 -240.19783,402.18198 				"/>
			</g>
			<g>
				<polygon class="st1" points="-226.95193,404.09363 -225.83655,402.18198 -223.633,402.18198 -224.72717,400.25049 
					-223.633,398.31897 -225.83655,398.31897 -226.95193,396.40732 -228.06731,398.31897 -230.27083,398.31897 
					-229.17667,400.25049 -230.27083,402.18198 -228.06731,402.18198 				"/>
			</g>
			<g>
				<polygon class="st2" points="-232.91653,392.63596 -231.96992,391.01352 -230.09973,391.01352 -231.02837,389.37418 
					-230.09973,387.73492 -231.96992,387.73492 -232.91653,386.11249 -233.86317,387.73492 -235.73334,387.73492 
					-234.80473,389.37418 -235.73334,391.01352 -233.86317,391.01352 				"/>
			</g>
			<g>
				<polygon class="st2" points="-239.08246,403.51221 -238.13585,401.88977 -236.26564,401.88977 -237.19429,400.25049 
					-236.26564,398.61121 -238.13585,398.61121 -239.08246,396.98874 -240.02908,398.61121 -241.89926,398.61121 
					-240.97064,400.25049 -241.89926,401.88977 -240.02908,401.88977 				"/>
			</g>
			<g>
				<polygon class="st2" points="-226.95193,403.51221 -226.00528,401.88977 -224.13507,401.88977 -225.06372,400.25049 
					-224.13507,398.61121 -226.00528,398.61121 -226.95193,396.98874 -227.89856,398.61121 -229.76875,398.61121 
					-228.8401,400.25049 -229.76875,401.88977 -227.89856,401.88977 				"/>
			</g>
		</g>
	</g>
</g>
</svg>
