<?xml version="1.0" encoding="utf-8"?>
<!-- Generator: Adobe Illustrator 19.0.0, SVG Export Plug-In . SVG Version: 6.00 Build 0)  -->
<svg version="1.1" id="Layer_1" xmlns="http://www.w3.org/2000/svg" xmlns:xlink="http://www.w3.org/1999/xlink" x="0px" y="0px"
	 viewBox="-269 374 72 46" style="enable-background:new -269 374 72 46;" xml:space="preserve">
<style type="text/css">
	.st0{clip-path:url(#SVGID_2_);}
	.st1{fill:#009E59;}
	.st2{fill:#FFE247;}
	.st3{fill:#E40520;}
</style>
<g>
	<defs>
		<path id="SVGID_1_" d="M-203.95834,420h-58.08331c-3.84299,0-6.95834-3.11536-6.95834-6.95831v-32.08334
			c0-3.84299,3.11536-6.95834,6.95834-6.95834h58.08331c3.84299,0,6.95834,3.11536,6.95834,6.95834v32.08334
			C-197,416.88464-200.11536,420-203.95834,420z"/>
	</defs>
	<clipPath id="SVGID_2_">
		<use xlink:href="#SVGID_1_"  style="overflow:visible;"/>
	</clipPath>
	<g class="st0">
		<g>
			<polygon class="st1" points="-240.89568,422.80768 -240.89568,370.19229 -272.46155,370.19229 -272.46155,422.80768 			"/>
		</g>
		<g>
			<path d="M-240.77051,422.93262h-31.81592v-52.86523h31.81592V422.93262z M-272.33643,422.68262h31.31592v-52.36523h-31.31592
				V422.68262z"/>
		</g>
		<g>
			<polygon class="st2" points="-193.53845,396.5 -240.89568,396.5 -240.89568,370.19229 -193.53845,370.19229 			"/>
		</g>
		<g>
			<path d="M-193.41309,396.625h-47.60742v-26.55762h47.60742V396.625z M-240.77051,396.375h47.10742v-26.05762h-47.10742V396.375z"
				/>
		</g>
		<g>
			<polygon class="st3" points="-193.53845,396.5 -240.89568,396.5 -240.89568,422.80768 -193.53845,422.80768 			"/>
		</g>
		<g>
			<path d="M-193.41309,422.93262h-47.60742V396.375h47.60742V422.93262z M-240.77051,422.68262h47.10742V396.625h-47.10742
				V422.68262z"/>
		</g>
	</g>
</g>
</svg>
