<?xml version="1.0" encoding="utf-8"?>
<!-- Generator: Adobe Illustrator 19.0.0, SVG Export Plug-In . SVG Version: 6.00 Build 0)  -->
<svg version="1.1" id="Layer_1" xmlns="http://www.w3.org/2000/svg" xmlns:xlink="http://www.w3.org/1999/xlink" x="0px" y="0px"
	 viewBox="-269 374 72 46" style="enable-background:new -269 374 72 46;" xml:space="preserve">
<style type="text/css">
	.st0{clip-path:url(#SVGID_2_);}
	.st1{fill:#FFED00;}
	.st2{fill:none;stroke:#000000;stroke-width:0.25;stroke-linecap:round;}
	.st3{fill:#FFFFFF;}
	.st4{fill:#E73137;}
	.st5{fill:#DC2F34;}
	.st6{fill:none;stroke:#000000;stroke-width:0.125;stroke-linecap:round;}
</style>
<g>
	<defs>
		<path id="SVGID_1_" d="M-203.95834,420h-58.08331c-3.84299,0-6.95834-3.11536-6.95834-6.95831v-32.08334
			c0-3.84299,3.11536-6.95834,6.95834-6.95834h58.08331c3.84299,0,6.95834,3.11536,6.95834,6.95834v32.08334
			C-197,416.88464-200.11536,420-203.95834,420z"/>
	</defs>
	<clipPath id="SVGID_2_">
		<use xlink:href="#SVGID_1_"  style="overflow:visible;"/>
	</clipPath>
	<g class="st0">
		<g>
			<polygon class="st1" points="-184.23561,420.80447 -184.23561,372.19846 -281.41794,372.19846 -281.41794,420.80447 			"/>
		</g>
		<g>
			<path d="M-184.11035,420.92969h-97.43262v-48.85645h97.43262V420.92969z M-281.29297,420.67969h96.93262v-48.35645h-96.93262
				V420.67969z"/>
		</g>
		<g>
			<path class="st1" d="M-232.82678,396.50146"/>
		</g>
		<g>
			<path class="st2" d="M-232.82678,396.50146"/>
		</g>
		<g>
			<polygon class="st3" points="-184.23561,407.08521 -281.41794,387.3927 -281.41794,375.63232 -184.23561,395.16995 			"/>
		</g>
		<g>
			<path d="M-184.11035,407.23828l-0.14941-0.03125l-97.2832-19.7124v-12.01514l0.14941,0.03027l97.2832,19.55762V407.23828z
				 M-281.29297,387.29053l96.93262,19.64111v-11.65918l-96.93262-19.4873V387.29053z"/>
		</g>
		<g>
			<polygon points="-184.23561,407.08521 -281.41794,387.3927 -281.41794,397.71613 -184.23561,417.39206 			"/>
		</g>
		<g>
			<path d="M-184.11035,417.54492l-0.14941-0.03125l-97.2832-19.69531v-10.57861l0.1499,0.03027l97.28271,19.7124V417.54492z
				 M-281.29297,397.61426l96.93262,19.62402V407.1875l-96.93262-19.64209V397.61426z"/>
		</g>
		<g>
			<polygon class="st4" points="-232.32895,396.78012 -232.50244,387.55505 -233.14178,387.55515 -233.28859,396.77979 			"/>
		</g>
		<g>
			<path d="M-232.26563,396.84277l-1.08643-0.00049l0.14893-9.34961h0.76221l0.00098,0.06152L-232.26563,396.84277z
				 M-233.2251,396.71729l0.83252,0.00049l-0.17139-9.1001h-0.51611L-233.2251,396.71729z"/>
		</g>
		<g>
			<path class="st4" d="M-232.82901,394.29736c0.38077,0.34631,0.69232,1.11203,0.64038,1.65891
				c0.08653-0.58334,0.60577-1.27612,1.24615-1.23965c-1.45383,1.9324,0.79619,3.66431-1.88655,5.3779
				c-2.68269-1.71359-0.43269-3.4455-1.88657-5.3779c0.6404-0.03647,1.15964,0.65631,1.24617,1.23965
				C-233.5213,395.40939-233.20979,394.64368-232.82901,394.29736L-232.82901,394.29736z"/>
		</g>
		<g>
			<path d="M-232.8291,400.16895l-0.03369-0.02148c-1.56055-0.99707-1.48291-2.03516-1.40771-3.04004
				c0.05713-0.75732,0.11572-1.54102-0.49512-2.35303l-0.07031-0.09326l0.1167-0.00684
				c0.01709-0.00098,0.03418-0.00146,0.05078-0.00146c0.50342,0,0.94531,0.42432,1.15186,0.91211
				c0.07227-0.48535,0.32617-1.02344,0.64551-1.31396l0.04199-0.03809l0.04199,0.03809
				c0.31934,0.29053,0.57324,0.82861,0.646,1.31396c0.2124-0.50488,0.67432-0.93555,1.20264-0.91064l0.11621,0.00684
				l-0.07031,0.09326c-0.61133,0.81201-0.55176,1.5957-0.49512,2.35303c0.0752,1.00488,0.15332,2.04297-1.40771,3.04004
				L-232.8291,400.16895z M-234.59229,394.78174c0.56104,0.81201,0.50293,1.58594,0.44678,2.33545
				c-0.07568,1.00391-0.14648,1.95313,1.31641,2.90332c1.46289-0.9502,1.3916-1.89941,1.31641-2.90332
				c-0.05566-0.74951-0.11426-1.52344,0.44629-2.33545c-0.53418,0.05078-0.979,0.63623-1.06006,1.18359l-0.12402-0.01514
				c0.04639-0.49219-0.2207-1.20654-0.57861-1.56641c-0.3584,0.35986-0.625,1.07422-0.57813,1.56641l-0.12402,0.01514
				C-233.61279,395.41797-234.05762,394.83252-234.59229,394.78174z"/>
		</g>
		<g>
			<path class="st4" d="M-232.82901,403.89102c3.06175-1.85681,0.49387-3.73337,2.15311-5.82724
				c-0.7309-0.03949-1.32347,0.71115-1.42221,1.34326c0.05922-0.59259-0.29634-1.42227-0.73091-1.79758
				c-0.43457,0.37531-0.79015,1.20499-0.73088,1.79758c-0.09879-0.63211-0.69135-1.38275-1.42223-1.34326
				C-233.32285,400.15765-235.89078,402.03421-232.82901,403.89102L-232.82901,403.89102z"/>
		</g>
		<g>
			<path d="M-232.8291,403.96387l-0.03223-0.01953c-1.77832-1.07813-1.68945-2.20313-1.60352-3.29004
				c0.06494-0.82129,0.13184-1.6709-0.56592-2.55176l-0.0752-0.09473l0.12061-0.00684
				c0.01904-0.00098,0.03809-0.00146,0.05713-0.00146c0.58105,0,1.09033,0.4751,1.31836,1.01416
				c0.07617-0.5332,0.36963-1.13135,0.73975-1.45166l0.04102-0.03516l0.04102,0.03516
				c0.37061,0.32031,0.66357,0.91943,0.73975,1.45264c0.22803-0.54004,0.73779-1.01514,1.31885-1.01514
				c0.01953,0,0.03809,0.00049,0.05664,0.00146l0.12109,0.00684l-0.0752,0.09473c-0.69824,0.88086-0.63086,1.73047-0.56641,2.55176
				c0.08594,1.08691,0.1748,2.21191-1.60352,3.29004L-232.8291,403.96387z M-234.85498,398.12695
				c0.64551,0.88184,0.5791,1.72266,0.51465,2.53711c-0.08643,1.09082-0.16748,2.12207,1.51123,3.15332
				c1.67871-1.03223,1.59766-2.0625,1.51172-3.15332c-0.06445-0.81445-0.13086-1.65527,0.51465-2.53711
				c-0.62109,0.04785-1.13965,0.68945-1.23389,1.29004l-0.12354-0.01563c0.05322-0.53711-0.25586-1.31934-0.66895-1.70801
				c-0.41309,0.38867-0.72217,1.1709-0.66895,1.70801l-0.12354,0.01563C-233.71533,398.81641-234.2334,398.1748-234.85498,398.12695
				z"/>
		</g>
		<g>
			<path class="st4" d="M-232.82901,406.53796c3.16054-0.47409,1.09631-1.90619,2.52843-4.24698
				c-0.52345,0.18765-1.30373-0.33585-1.63951,0.94818c0.15805-0.81979-0.74077-1.22473-0.8889-1.75806
				c-0.14812,0.53333-1.04694,0.93826-0.88889,1.75806c-0.3358-1.28403-1.11607-0.76053-1.63953-0.94818
				C-233.92529,404.63177-235.98952,406.06387-232.82901,406.53796L-232.82901,406.53796z"/>
		</g>
		<g>
			<path d="M-232.8291,406.60156l-0.00928-0.00195c-1.95215-0.29297-1.96533-0.98535-1.9834-1.94336
				c-0.01172-0.62988-0.02637-1.41309-0.58887-2.33301l-0.09277-0.15039l0.16699,0.05957
				c0.1377,0.0498,0.29834,0.04785,0.46582,0.04199c0.38037-0.00781,0.81445-0.01758,1.08936,0.58887
				c0.06494-0.34082,0.2998-0.60449,0.51416-0.8457c0.16748-0.1875,0.32568-0.36523,0.37793-0.55273l0.06006-0.2168l0.06006,0.2168
				c0.05225,0.1875,0.21045,0.36426,0.37793,0.55273c0.21436,0.24023,0.44971,0.50488,0.51416,0.8457
				c0.27539-0.60645,0.69531-0.59961,1.08984-0.58887c0.16895,0.00391,0.32813,0.00684,0.46484-0.04199l0.16699-0.05957
				l-0.0918,0.15039c-0.5625,0.91992-0.57715,1.70313-0.58984,2.33301c-0.01758,0.95801-0.03125,1.65039-1.98291,1.94336
				L-232.8291,406.60156z M-235.22852,402.38672c0.50586,0.89258,0.52002,1.65137,0.53174,2.26758
				c0.01807,0.96191,0.0293,1.54297,1.86768,1.82031c1.83887-0.27734,1.84961-0.85938,1.86719-1.82129
				c0.01172-0.61523,0.02637-1.37402,0.53223-2.2666c-0.11719,0.01758-0.24121,0.0166-0.36035,0.0127
				c-0.43652-0.0127-0.86035-0.02148-1.08984,0.85547l-0.12207-0.02734c0.09277-0.48047-0.19971-0.80859-0.48242-1.12695
				c-0.13477-0.15137-0.26416-0.2959-0.34473-0.45215c-0.08057,0.15625-0.20947,0.30078-0.34473,0.45313
				c-0.28271,0.31738-0.5752,0.64551-0.48242,1.12598l-0.12207,0.02734c-0.22852-0.87402-0.64307-0.86523-1.08984-0.85547
				C-234.9873,402.40234-235.11182,402.40332-235.22852,402.38672z"/>
		</g>
		<g>
			<path class="st4" d="M-232.82901,389.08591c0.33582-0.19751,0.6226-0.56293,0.6226-1.09625
				c0,0.55307,0.29631,0.86911,0.59258,1.0864c0.26669-0.26666,0.45433-0.49384,0.45433-1.15558
				c0,0.66174,0.24654,1.05682,0.74042,1.26422c0.34563-0.78024-0.04152-2.39108-0.71114-2.73087
				c-0.33087-0.16791-1.03212-0.22162-1.69879-0.22162c-0.66664,0-1.36792,0.05371-1.69876,0.22162
				c-0.66962,0.33978-1.05681,1.95065-0.71112,2.73087c0.49384-0.2074,0.74039-0.60248,0.74039-1.26422
				c0,0.66174,0.18762,0.88892,0.45432,1.15558c0.2963-0.21729,0.59259-0.53333,0.59259-1.0864
				C-233.4516,388.52298-233.16479,388.8884-232.82901,389.08591L-232.82901,389.08591z"/>
		</g>
		<g>
			<path d="M-235.271,389.26611l-0.0249-0.05615c-0.37061-0.83643,0.05811-2.46582,0.73975-2.81201
				c0.37256-0.18848,1.14453-0.22803,1.72705-0.22803s1.35547,0.03955,1.72754,0.22803
				c0.68164,0.34619,1.11035,1.97559,0.74023,2.81201l-0.02539,0.05615l-0.05664-0.02393
				c-0.36816-0.1543-0.60352-0.41357-0.71094-0.78662c-0.07715,0.30322-0.22754,0.47754-0.41602,0.66504l-0.03809,0.0376
				l-0.04297-0.03174c-0.19727-0.14453-0.44287-0.36426-0.55566-0.71924c-0.09619,0.30518-0.2998,0.56152-0.59033,0.73242
				l-0.03174,0.01904l-0.03174-0.01904c-0.29053-0.1709-0.49414-0.42725-0.59033-0.73242
				c-0.11279,0.35498-0.3584,0.57471-0.55566,0.71924l-0.04346,0.03174l-0.0376-0.0376
				c-0.18799-0.1875-0.33838-0.36182-0.41602-0.66553c-0.10742,0.37305-0.34229,0.63281-0.71094,0.78711L-235.271,389.26611z
				 M-231.22168,387.92041h0.125c0,0.59717,0.20508,0.97412,0.64453,1.18115c0.29883-0.79102-0.09863-2.2832-0.70605-2.59229
				c-0.27344-0.13818-0.8667-0.21436-1.6709-0.21436c-0.80371,0-1.39697,0.07617-1.67041,0.21436
				c-0.60791,0.30859-1.00488,1.80127-0.70605,2.59229c0.43945-0.20703,0.64453-0.58447,0.64453-1.18115h0.125
				c0,0.59814,0.15625,0.82617,0.39795,1.07324c0.25293-0.19385,0.52393-0.48438,0.52393-1.00391h0.125
				c0,0.42871,0.20361,0.79932,0.56006,1.02295c0.35645-0.22363,0.56006-0.59424,0.56006-1.02295h0.125
				c0,0.51953,0.271,0.81006,0.52393,1.00391C-231.37793,388.74658-231.22168,388.51904-231.22168,387.92041z"/>
		</g>
		<g>
			<path class="st4" d="M-232.82901,386.90262c1.00284,0,1.8158-0.15009,1.8158-0.33524c0-0.18512-0.81297-0.33517-1.8158-0.33517
				c-1.00281,0-1.8158,0.15005-1.8158,0.33517C-234.64481,386.75253-233.83182,386.90262-232.82901,386.90262L-232.82901,386.90262z
				"/>
		</g>
		<g>
			<path d="M-232.8291,386.96533c-0.6499,0-1.87842-0.08301-1.87842-0.39795c0-0.31445,1.22852-0.39746,1.87842-0.39746
				c0.64941,0,1.87793,0.08301,1.87793,0.39746C-230.95117,386.88232-232.17969,386.96533-232.8291,386.96533z M-232.8291,386.29492
				c-1.21436,0-1.75342,0.19727-1.75342,0.27246s0.53906,0.27295,1.75342,0.27295c1.21387,0,1.75293-0.19775,1.75293-0.27295
				S-231.61523,386.29492-232.8291,386.29492z"/>
		</g>
		<g>
			<path class="st4" d="M-241.28342,407.01205c-0.35556-0.13828-0.94817-0.33582-1.12592-0.77036
				c-0.24695,0.34564-0.15805,1.04694,0.01974,1.42218c-0.82965-0.0592-1.57039,0.34573-1.89635,1.20502
				c1.02716-0.27658,2.14015-0.44363,2.963,0.17773c0.96793,0.7309,2.13336,1.58026,4.48402,1.2247
				C-237.41177,409.48117-240.49327,407.34781-241.28342,407.01205L-241.28342,407.01205z"/>
		</g>
		<g>
			<path d="M-237.89648,410.41797c-1.71387,0-2.67041-0.72168-3.46387-1.32129c-0.81787-0.61719-1.9292-0.43164-2.90967-0.16699
				l-0.11816,0.03125l0.04346-0.11426c0.30078-0.79199,0.96436-1.25098,1.79346-1.25098c0.02148,0,0.04297,0,0.06494,0.00098
				c-0.15381-0.39648-0.22363-1.04199,0.02637-1.3916l0.06592-0.09277l0.04248,0.10547
				c0.15527,0.37891,0.67139,0.57617,1.01318,0.70605l0.07959,0.03027c0.76807,0.32715,3.87744,2.46289,4.4707,3.28027
				l0.06006,0.08398l-0.10156,0.01465C-237.21533,410.3916-237.56982,410.41797-237.89648,410.41797z M-242.73633,408.55762
				c0.52051,0,1.02148,0.11523,1.45117,0.43945c0.91162,0.6875,2.04248,1.5459,4.33057,1.22754
				c-0.71729-0.8584-3.61475-2.84082-4.35205-3.15527l-0.07617-0.0293c-0.33008-0.125-0.81445-0.30957-1.02979-0.66699
				c-0.15967,0.34766-0.07178,0.94531,0.07959,1.26465l0.0459,0.09668l-0.10693-0.00781
				c-0.80859-0.0625-1.46533,0.33203-1.78613,1.0498C-243.71094,408.65527-243.21533,408.55762-242.73633,408.55762z"/>
		</g>
		<g>
			<path class="st4" d="M-224.37457,407.01205c0.35556-0.13828,0.94814-0.33582,1.12592-0.77036
				c0.24689,0.34564,0.15805,1.04694-0.01978,1.42218c0.82967-0.0592,1.57042,0.34573,1.89635,1.20502
				c-1.02718-0.27658-2.14009-0.44363-2.96301,0.17773c-0.96791,0.7309-2.13336,1.58026-4.48399,1.2247
				C-228.24625,409.48117-225.16472,407.34781-224.37457,407.01205L-224.37457,407.01205z"/>
		</g>
		<g>
			<path d="M-227.76172,410.41797c-0.32617,0-0.68066-0.02637-1.06738-0.08496l-0.10156-0.01465l0.06055-0.08398
				c0.59375-0.81738,3.70313-2.9541,4.4707-3.28027l0.00195-0.00098l0.07715-0.0293c0.3418-0.12988,0.8584-0.32617,1.01367-0.70605
				l0.04297-0.10547l0.06543,0.09277c0.25,0.34961,0.17969,0.99512,0.02637,1.3916c0.02148-0.00098,0.04297-0.00098,0.06445-0.00098
				c0.83008,0,1.49316,0.45898,1.79395,1.25098l0.04297,0.11426l-0.11816-0.03125c-0.98145-0.26465-2.09375-0.45117-2.9082,0.16699
				C-225.09082,409.69629-226.04785,410.41797-227.76172,410.41797z M-228.70313,410.22461
				c2.27832,0.31738,3.41895-0.53906,4.33008-1.22754c0.82715-0.62305,1.91699-0.47266,2.89551-0.2207
				c-0.30078-0.6709-0.89648-1.05566-1.63086-1.05566c-0.05176,0-0.10352,0.00195-0.15527,0.00586l-0.10742,0.00781l0.0459-0.09668
				c0.15137-0.31934,0.23926-0.91699,0.08008-1.26465c-0.21582,0.35742-0.7002,0.54199-1.03125,0.66797l-0.0752,0.02832
				C-225.08789,407.38379-227.98535,409.36621-228.70313,410.22461z"/>
		</g>
		<g>
			<path class="st4" d="M-232.82901,411.25903c2.72595,0,4.65033-0.9259,5.59019-1.92105
				c0.82965-0.33582,1.8632-0.96118,2.51851-1.33829c1.04694-0.60248,0.59262-0.8988,0.3062-1.24448
				c-0.29016-0.35013-0.27654-0.71109-0.35555-1.18521c-0.06888-0.4133-0.59259-1.28394-1.75803,0.07907
				c-1.42027,1.66095-4.64201,2.58768-6.30132,2.58768c-1.65929,0-4.88106-0.92673-6.3013-2.58768
				c-1.16541-1.36301-1.68916-0.49237-1.75803-0.07907c-0.07901,0.47412-0.06543,0.83508-0.35556,1.18521
				c-0.28642,0.34567-0.74074,0.642,0.3062,1.24448c0.65529,0.37711,1.68887,1.00247,2.51852,1.33829
				C-237.47931,410.33316-235.55495,411.25903-232.82901,411.25903L-232.82901,411.25903z"/>
		</g>
		<g>
			<path d="M-232.8291,411.32129c-2.375,0-4.47656-0.72168-5.62598-1.93066c-0.71387-0.29102-1.58008-0.79395-2.21338-1.16211
				c-0.10645-0.0625-0.20703-0.12109-0.30029-0.1748c-0.42969-0.24707-0.64648-0.46289-0.68115-0.67871
				c-0.03516-0.21777,0.11719-0.3877,0.26416-0.55273c0.03223-0.03516,0.06396-0.07129,0.09375-0.10742
				c0.21973-0.26465,0.25586-0.53516,0.30176-0.87695c0.01172-0.08887,0.02441-0.18066,0.04053-0.27832
				c0.04492-0.26953,0.23438-0.60059,0.54443-0.68652c0.36816-0.09961,0.81592,0.14355,1.32227,0.73535
				c1.41309,1.65234,4.59473,2.56543,6.25391,2.56543s4.84082-0.91309,6.25391-2.56543
				c0.50586-0.59082,0.9502-0.84082,1.32227-0.73535c0.30957,0.08594,0.5,0.41602,0.54492,0.68652
				c0.0166,0.09766,0.02832,0.18945,0.04004,0.27832c0.0459,0.3418,0.08203,0.6123,0.30176,0.87695
				c0.03027,0.03613,0.0625,0.07227,0.09375,0.10742c0.14746,0.16504,0.29883,0.33496,0.26367,0.55273
				c-0.03418,0.21582-0.25098,0.43164-0.68066,0.67871c-0.09277,0.05371-0.19336,0.1123-0.30078,0.1748
				c-0.63281,0.36816-1.49902,0.87109-2.21289,1.16211C-228.35254,410.59961-230.4541,411.32129-232.8291,411.32129z
				 M-240.23926,404.97559c-0.0459,0-0.08984,0.00586-0.13281,0.01758c-0.2959,0.08301-0.42676,0.41992-0.45459,0.58691
				c-0.01563,0.0957-0.02783,0.18652-0.03955,0.27441c-0.04639,0.34766-0.08691,0.64746-0.3291,0.94043
				c-0.03125,0.03711-0.06396,0.07422-0.09717,0.11133c-0.1333,0.14844-0.25928,0.29004-0.23389,0.44824
				c0.02783,0.17383,0.23096,0.36719,0.62012,0.5918c0.09326,0.05273,0.19385,0.11133,0.30078,0.17383
				c0.63379,0.36816,1.50195,0.87305,2.20996,1.16016l0.02197,0.01465c1.12402,1.19043,3.19678,1.90137,5.54443,1.90137
				s4.4209-0.71094,5.54395-1.90137l0.02246-0.01465c0.70801-0.28711,1.57617-0.79199,2.20996-1.16016
				c0.10645-0.0625,0.20801-0.12109,0.30078-0.17383c0.38965-0.22461,0.5918-0.41797,0.62012-0.5918
				c0.02539-0.1582-0.10059-0.2998-0.2334-0.44824c-0.0332-0.03711-0.06641-0.07422-0.09668-0.11133
				c-0.24316-0.29297-0.2832-0.59277-0.3291-0.94043c-0.01172-0.08789-0.02441-0.17871-0.04004-0.27344
				c-0.02832-0.16797-0.15918-0.50488-0.45508-0.58789c-0.32324-0.08984-0.73047,0.15332-1.19336,0.69727
				c-1.43848,1.67969-4.66699,2.6084-6.34961,2.6084s-4.91162-0.92871-6.34863-2.6084
				C-239.58008,405.21973-239.94336,404.97559-240.23926,404.97559z"/>
		</g>
		<g>
			<path class="st4" d="M-238.1201,391.92313c-1.21429,1.29614-1.95779,3.03867-1.95779,4.95483
				c0,4.00339,3.2455,7.2489,7.2489,7.2489c4.00337,0,7.2489-3.24551,7.2489-7.2489c0-2.14761-0.93401-4.07721-2.41792-5.40457
				l0.29735-0.33154c2.59613,1.68256,4.31383,4.60541,4.31383,7.92938c0,5.21469-4.22746,9.44214-9.44215,9.44214
				c-5.21466,0-9.44212-4.22745-9.44212-9.44214c0-3.06323,1.4588-5.78589,3.71953-7.51099L-238.1201,391.92313L-238.1201,391.92313
				z"/>
		</g>
		<g>
			<path d="M-232.8291,408.57617c-5.24072,0-9.50439-4.26367-9.50439-9.50488c0-2.98975,1.36475-5.74561,3.74365-7.56104
				l0.04004-0.03027l0.52051,0.43799l-0.04541,0.04834c-1.25146,1.33545-1.94092,3.08008-1.94092,4.91162
				c0,3.96289,3.22363,7.18652,7.18652,7.18652s7.18652-3.22363,7.18652-7.18652c0-2.04297-0.87402-3.99561-2.39746-5.35791
				l-0.0459-0.0415l0.375-0.41846l0.04492,0.0293c2.71875,1.76221,4.3418,4.74609,4.3418,7.98193
				C-223.32422,404.3125-227.58789,408.57617-232.8291,408.57617z M-238.55371,391.64014
				c-2.32324,1.79199-3.65479,4.49756-3.65479,7.43115c0,5.17188,4.20752,9.37988,9.37939,9.37988s9.37988-4.20801,9.37988-9.37988
				c0-3.17529-1.58398-6.10498-4.24023-7.84814l-0.2207,0.24561c1.52148,1.38379,2.39258,3.35156,2.39258,5.40918
				c0,4.03125-3.28027,7.31152-7.31152,7.31152c-4.03174,0-7.31152-3.28027-7.31152-7.31152
				c0-1.8418,0.68506-3.59619,1.93018-4.94922L-238.55371,391.64014z"/>
		</g>
		<g>
			<path class="st4" d="M-232.82901,392.98724c0.34317,0.69757,1.37894,0.97766,1.93584,0.77032
				c0.96788,0.40494,1.7383,0.39511,2.22751-0.04355c0.74873,0.11221,1.89214,0.25116,1.94362-0.41959
				c0.61154,0.05042,1.42303-0.03384,1.492-0.57593c0.85052-0.05396,1.04237-0.2876,1.15805-0.68063
				c0.7775-0.39114,0.79013-0.89072,0.09351-0.80838c-2.17781,0.25745-3.17661-0.23459-4.70862-0.73615
				c-1.53207-0.50156-2.93851-1.39597-4.14192-0.39014c-1.20334-1.00583-2.60985-0.11142-4.14186,0.39014
				c-1.53206,0.50156-2.53084,0.99359-4.70868,0.73615c-0.69658-0.08234-0.68398,0.41724,0.09348,0.80838
				c0.11571,0.39304,0.30759,0.62668,1.15811,0.68063c0.06891,0.54208,0.88043,0.62634,1.492,0.57593
				c0.05145,0.67075,1.1949,0.5318,1.94362,0.41959c0.48921,0.43866,1.25957,0.44849,2.22751,0.04355
				C-234.20792,393.9649-233.17216,393.68481-232.82901,392.98724L-232.82901,392.98724z"/>
		</g>
		<g>
			<path d="M-236.02197,394.11426c-0.39648,0-0.72998-0.11133-0.98975-0.33447c-0.72998,0.10889-1.44775,0.16797-1.79297-0.10742
				c-0.10059-0.08008-0.16309-0.18457-0.18604-0.31104c-0.38672,0.02344-1.36133,0.02588-1.49072-0.58398
				c-0.79932-0.05908-1.03125-0.2915-1.15674-0.6958c-0.42969-0.22168-0.66455-0.50098-0.60059-0.71436
				c0.02393-0.07715,0.13037-0.25342,0.56641-0.19971c1.88184,0.22363,2.86328-0.11475,4.10693-0.54004
				c0.18555-0.06299,0.37598-0.12842,0.5752-0.19385c0.29688-0.09717,0.59229-0.21045,0.87793-0.31982
				c1.17969-0.45313,2.29639-0.88232,3.2832-0.09131c0.9873-0.79053,2.10352-0.36133,3.28418,0.0918
				c0.28516,0.10938,0.58008,0.22217,0.87695,0.31934c0.19922,0.06543,0.38965,0.13086,0.5752,0.19385
				c1.24414,0.42529,2.22852,0.76367,4.10645,0.54004c0.44238-0.05371,0.54297,0.12207,0.56641,0.19971
				c0.06445,0.21338-0.1709,0.49219-0.60059,0.71436c-0.125,0.4043-0.35645,0.63672-1.15625,0.6958
				c-0.12793,0.60938-1.10645,0.60742-1.49023,0.58398c-0.02344,0.12646-0.08594,0.23096-0.18652,0.31104
				c-0.3457,0.27441-1.06543,0.21533-1.79297,0.10742c-0.50293,0.43115-1.28027,0.44531-2.24902,0.04492
				c-0.58887,0.20313-1.5459-0.08252-1.93359-0.7085c-0.38818,0.62744-1.34521,0.90967-1.93408,0.7085
				C-235.23096,394.01807-235.65332,394.11426-236.02197,394.11426z M-236.97217,393.64746l0.02148,0.02002
				c0.46582,0.41699,1.21289,0.4292,2.16211,0.03271l0.02246-0.00977l0.02344,0.00879
				c0.49512,0.18457,1.51807-0.0498,1.85742-0.73975l0.05615-0.11377l0.05615,0.11377
				c0.33936,0.69141,1.36279,0.92383,1.85791,0.73975l0.02246-0.00879l0.02344,0.00977
				c0.94922,0.39746,1.69629,0.38477,2.16113-0.03271l0.02246-0.02002l0.02832,0.00439
				c0.44531,0.06738,1.37012,0.20703,1.72656-0.07715c0.08887-0.07129,0.1377-0.16455,0.14648-0.28516l0.00488-0.0625
				l0.0625,0.00488c0.65527,0.05566,1.36523-0.05518,1.42383-0.52148l0.00684-0.05127l0.05176-0.00342
				c0.86621-0.05469,1.00293-0.29785,1.10254-0.63525l0.00684-0.02588l0.02441-0.01221
				c0.41895-0.21143,0.59961-0.45117,0.56152-0.5791c-0.0293-0.09766-0.19727-0.13916-0.43164-0.11182
				c-1.91113,0.22803-2.90332-0.11523-4.16309-0.54541c-0.18457-0.06348-0.37402-0.12842-0.57324-0.19336
				c-0.2998-0.09814-0.5957-0.21191-0.88281-0.32178c-1.16113-0.44678-2.25879-0.86523-3.19922-0.08008l-0.04004,0.03369
				l-0.04004-0.03369c-0.94141-0.78711-2.03809-0.36621-3.19873,0.07959c-0.28662,0.11035-0.5835,0.22412-0.8833,0.32227
				c-0.19922,0.06494-0.38916,0.12988-0.57373,0.19336c-1.25879,0.43018-2.25391,0.77246-4.16211,0.54541
				c-0.23682-0.0293-0.40283,0.01514-0.43164,0.11182c-0.03857,0.12793,0.1416,0.36768,0.56104,0.5791l0.02393,0.01221
				l0.00781,0.02588c0.09961,0.3374,0.23682,0.58057,1.10156,0.63525l0.05176,0.00342l0.00635,0.05127
				c0.06006,0.46631,0.77441,0.57666,1.42529,0.52148l0.0625-0.00488l0.00488,0.0625
				c0.00879,0.12061,0.05713,0.21387,0.14648,0.28516c0.35596,0.28369,1.28174,0.14404,1.72559,0.07715L-236.97217,393.64746z"/>
		</g>
		<g>
			<path class="st5" d="M-241.58607,392.03787c0.36192,0.1987,1.32983,0.2876,2.76196-0.10748"/>
		</g>
		<g>
			<path d="M-240.63281,392.26807c-0.45068,0-0.78809-0.06836-0.9834-0.17529l0.06055-0.10938
				c0.28564,0.15625,1.1792,0.30957,2.71484-0.11328l0.0332,0.12012C-239.52344,392.18799-240.14453,392.26807-240.63281,392.26807z
				"/>
		</g>
		<g>
			<path class="st5" d="M-240.42798,392.71851c1.10999,0.07117,2.42358,0.0119,3.41129-0.35352"/>
		</g>
		<g>
			<path d="M-239.6167,392.80664c-0.3125,0-0.59229-0.01172-0.81494-0.02588l0.00781-0.125
				c0.77783,0.05029,2.24951,0.0708,3.38574-0.34961l0.04297,0.11719C-237.82471,392.73047-238.82617,392.80664-239.6167,392.80664z
				"/>
		</g>
		<g>
			<path class="st5" d="M-238.93596,393.29443c1.12914-0.01096,2.09705-0.16895,2.96617-0.50476"/>
		</g>
		<g>
			<path d="M-238.93555,393.35693l-0.00098-0.125c1.1377-0.01074,2.10059-0.1748,2.94434-0.50049l0.04492,0.11621
				C-236.80518,393.1792-237.78271,393.34619-238.93555,393.35693z"/>
		</g>
		<g>
			<path class="st5" d="M-236.99232,393.71402c0.72626-0.0947,1.84233-0.42062,2.46455-0.99347"/>
		</g>
		<g>
			<path d="M-236.98389,393.77588l-0.0166-0.12402c0.79395-0.10352,1.85352-0.4458,2.43018-0.97705l0.08496,0.0918
				C-235.08252,393.31641-236.1709,393.66992-236.98389,393.77588z"/>
		</g>
		<g>
			<path class="st5" d="M-234.76482,393.75757c0.40495-0.14813,0.94814-0.54321,1.21481-0.92838"/>
		</g>
		<g>
			<path d="M-234.74316,393.81641l-0.04297-0.11719c0.41895-0.15381,0.93945-0.55127,1.18506-0.90576l0.10254,0.07129
				C-233.75684,393.2373-234.30322,393.65527-234.74316,393.81641z"/>
		</g>
		<g>
			<path class="st5" d="M-224.07198,392.03787c-0.36192,0.1987-1.32979,0.2876-2.76189-0.10748"/>
		</g>
		<g>
			<path d="M-225.02539,392.26807c-0.48828,0-1.10938-0.08008-1.8252-0.27783l0.0332-0.12012
				c1.53516,0.42334,2.42871,0.27051,2.71484,0.11328l0.06055,0.10938
				C-224.23633,392.19971-224.57422,392.26807-225.02539,392.26807z"/>
		</g>
		<g>
			<path class="st5" d="M-225.23001,392.71851c-1.11008,0.07117-2.42363,0.0119-3.41132-0.35352"/>
		</g>
		<g>
			<path d="M-226.04102,392.80664c-0.79102,0-1.79199-0.07617-2.62207-0.3833l0.04297-0.11719
				c1.1377,0.42139,2.61133,0.3999,3.38574,0.34961l0.00781,0.125C-225.44922,392.79492-225.72852,392.80664-226.04102,392.80664z"
				/>
		</g>
		<g>
			<path class="st5" d="M-226.72203,393.29443c-1.12917-0.01096-2.09705-0.16895-2.96622-0.50476"/>
		</g>
		<g>
			<path d="M-226.72266,393.35693c-1.15234-0.01074-2.13086-0.17773-2.98828-0.50928l0.04492-0.11621
				c0.84375,0.32568,1.80664,0.48975,2.94531,0.50049L-226.72266,393.35693z"/>
		</g>
		<g>
			<path class="st5" d="M-228.66566,393.71402c-0.72626-0.0947-1.84233-0.42062-2.46457-0.99347"/>
		</g>
		<g>
			<path d="M-228.67383,393.77588c-0.81348-0.10645-1.90137-0.45947-2.49805-1.00928l0.08398-0.0918
				c0.57715,0.53125,1.63672,0.87354,2.42969,0.97705L-228.67383,393.77588z"/>
		</g>
		<g>
			<path class="st5" d="M-230.89317,393.75757c-0.40495-0.14813-0.94817-0.54321-1.21486-0.92838"/>
		</g>
		<g>
			<path d="M-230.91504,393.81641c-0.38672-0.1416-0.95801-0.53662-1.24414-0.95166l0.10254-0.07129
				c0.27246,0.39502,0.81641,0.77051,1.18457,0.90576L-230.91504,393.81641z"/>
		</g>
		<g>
			<path class="st4" d="M-232.59196,382.79453l0.06908,3.71851c0,0.03473-0.13531,0.06287-0.30115,0.06287
				c-0.16588,0-0.30077-0.02814-0.30077-0.06287l0.05876-3.71851H-232.59196L-232.59196,382.79453z"/>
		</g>
		<g>
			<path d="M-232.82422,386.63818c-0.24121,0-0.36328-0.04199-0.36328-0.125l0.06006-3.78125h0.59717l0.00098,0.06152
				l0.06885,3.71875C-232.46045,386.59619-232.58301,386.63818-232.82422,386.63818z M-233.06201,386.48633
				c0.03418,0.01172,0.11768,0.02686,0.23779,0.02686s0.20361-0.01514,0.23828-0.02686l-0.06738-3.62939h-0.35107
				L-233.06201,386.48633z"/>
		</g>
		<g>
			<path class="st4" d="M-232.82901,383.20187c0.405,0,0.73331-0.32831,0.73331-0.73331s-0.32831-0.73334-0.73331-0.73334
				c-0.40498,0-0.73329,0.32834-0.73329,0.73334C-233.56229,382.87357-233.23398,383.20187-232.82901,383.20187
				L-232.82901,383.20187z"/>
		</g>
		<g>
			<path d="M-232.8291,383.26416c-0.43896,0-0.7959-0.35693-0.7959-0.79541c0-0.43896,0.35693-0.7959,0.7959-0.7959
				s0.7959,0.35693,0.7959,0.7959C-232.0332,382.90723-232.39014,383.26416-232.8291,383.26416z M-232.8291,381.79785
				c-0.37012,0-0.6709,0.30078-0.6709,0.6709c0,0.36963,0.30078,0.67041,0.6709,0.67041s0.6709-0.30078,0.6709-0.67041
				C-232.1582,382.09863-232.45898,381.79785-232.8291,381.79785z"/>
		</g>
		<g>
			<path class="st4" d="M-232.82901,383.38013c1.36996-0.10098,1.52831,1.12036,3.06693,1.12283
				c-0.28456,0.30554-0.56906,0.65317-0.93793,0.68039c0.41098,0.33856,0.15808,0.96838,0.71658,1.15906
				c-1.5386-0.0025-1.48613-0.93372-2.8456-0.8335v-2.12878H-232.82901z"/>
		</g>
		<g>
			<path d="M-229.9834,386.40479c-0.79004-0.00146-1.18164-0.24854-1.52637-0.4668c-0.33789-0.21387-0.65576-0.4165-1.31494-0.3667
				l-0.06689,0.00488v-2.25391l0.05811-0.00439c0.70605-0.04834,1.09424,0.23145,1.50635,0.53076
				c0.39941,0.29004,0.8125,0.59082,1.56543,0.5918h0.14355l-0.17871,0.19238c-0.2334,0.25342-0.47363,0.51514-0.77246,0.5918
				c0.12695,0.15186,0.17285,0.33691,0.21387,0.50342c0.06152,0.24707,0.11426,0.46045,0.39258,0.55518L-229.9834,386.40479z
				 M-232.62988,385.43848c0.56348,0,0.86719,0.19189,1.18652,0.39404c0.30664,0.19336,0.62207,0.39258,1.20996,0.43799
				c-0.15039-0.13574-0.19727-0.32617-0.24316-0.51221c-0.0498-0.2002-0.09668-0.38965-0.26367-0.52686l-0.12012-0.09912
				l0.15527-0.01172c0.30469-0.02197,0.55859-0.29248,0.80371-0.55859c-0.70508-0.03564-1.1084-0.32861-1.49902-0.6123
				c-0.3623-0.26318-0.70557-0.5127-1.27246-0.5127c-0.03076,0-0.06201,0.00049-0.09375,0.00195v2.00342
				C-232.71924,385.43994-232.67383,385.43848-232.62988,385.43848z"/>
		</g>
		<g>
			<path class="st4" d="M-218.37584,393.75757c-0.10208-0.25949-0.45697-0.19467-0.57285,0.0889
				c-0.11589,0.28354-0.16791,0.71112-0.16638,1.00873c-0.10428,0.21475-0.34892,0.53796-0.39833,0.8988
				c-0.0674,0.49252,1.03607,0.2637,1.13756-0.77173C-218.32646,394.47855-218.24747,393.98468-218.37584,393.75757
				L-218.37584,393.75757z"/>
		</g>
		<g>
			<path d="M-219.26855,396.06494c-0.08398,0-0.1582-0.02051-0.21289-0.06152c-0.0752-0.05713-0.10938-0.14893-0.09375-0.25781
				c0.03809-0.27881,0.18359-0.52979,0.30078-0.73193c0.03711-0.06348,0.07031-0.12158,0.09668-0.17334
				c0.00098-0.30225,0.05371-0.72998,0.17188-1.01758c0.07031-0.17432,0.23047-0.29102,0.39746-0.29102c0,0,0.00098,0,0.00195,0
				c0.12988,0.00098,0.2373,0.0752,0.28711,0.19922c0.11719,0.2124,0.07617,0.59619,0.02832,1.04053
				c-0.00781,0.07178-0.01563,0.14404-0.02246,0.21729c-0.05469,0.55176-0.38379,0.88477-0.6748,1.01172
				C-219.08594,396.04346-219.18262,396.06494-219.26855,396.06494z M-218.6084,393.65674
				c-0.09473,0-0.22266,0.06689-0.28223,0.21338c-0.11328,0.27686-0.16309,0.69385-0.16211,0.98486l-0.00586,0.02734
				c-0.02832,0.05762-0.06641,0.12256-0.10742,0.19385c-0.11133,0.19287-0.25098,0.43213-0.28613,0.68604
				c-0.00879,0.06445,0.00684,0.11182,0.0459,0.14111c0.07227,0.05469,0.21484,0.04932,0.36816-0.01709
				c0.25781-0.11328,0.55078-0.41162,0.59961-0.90967c0.00781-0.07373,0.01563-0.14648,0.02344-0.21875
				c0.04395-0.40723,0.08496-0.79248-0.01563-0.96924l-0.00391-0.00781c-0.03027-0.07959-0.0918-0.12354-0.17285-0.12402H-218.6084z
				"/>
		</g>
		<g>
			<path class="st4" d="M-217.70422,393.69827c-0.12839-0.24689-0.62222-0.19748-0.76053,0.12845
				c-0.13826,0.32596-0.13826,0.68146-0.14813,1.03702c-0.17776,0.22717-0.43161,0.7121-0.54318,1.04694
				c-0.11856,0.35556-0.77039,1.27414,0.54318,0.49384C-218.1524,396.13098-217.36844,394.21188-217.70422,393.69827
				L-217.70422,393.69827z"/>
		</g>
		<g>
			<path d="M-219.31543,396.77295c-0.05859,0-0.09375-0.01807-0.12012-0.0415c-0.11816-0.10791-0.00391-0.34863,0.11621-0.60352
				c0.04297-0.08936,0.08301-0.17383,0.10352-0.23682c0.11035-0.33105,0.35449-0.80469,0.54102-1.04932l0.00098-0.05664
				c0.00977-0.3291,0.01953-0.66943,0.15137-0.98291c0.08008-0.18701,0.27246-0.31348,0.49219-0.32178
				c0.00781-0.00049,0.01563-0.00049,0.02246-0.00049c0.16211,0,0.29492,0.06885,0.35742,0.18652
				c0.14355,0.22217,0.08887,0.63281,0.01758,0.93799c-0.16406,0.70654-0.60449,1.64941-0.94824,1.85352
				C-218.99121,396.70117-219.19922,396.77295-219.31543,396.77295z M-218.00781,393.60498c-0.00586,0-0.01172,0-0.01758,0.00049
				c-0.12988,0.00488-0.30859,0.07227-0.38184,0.24561c-0.12305,0.29199-0.13184,0.60547-0.1416,0.9375l-0.00293,0.09766
				l-0.0127,0.01611c-0.17676,0.22607-0.42578,0.70654-0.53223,1.02783c-0.02344,0.07031-0.06543,0.1582-0.10938,0.25146
				c-0.06348,0.1333-0.19531,0.41162-0.14453,0.45703c0.00781,0.00879,0.10254,0.0708,0.70508-0.28809
				c0.28027-0.1665,0.72168-1.04492,0.8916-1.77393c0.09277-0.40039,0.0918-0.7002-0.00293-0.84424l-0.00293-0.00537
				C-217.7998,393.6499-217.8916,393.60498-218.00781,393.60498z"/>
		</g>
		<g>
			<path class="st4" d="M-217.06223,393.45139c-0.26669-0.30612-0.77039-0.09875-0.8593,0.24689
				c-0.08348,0.32489-0.11852,0.83957-0.07899,1.23465c-0.32593,0.24692-0.72101,0.93823-0.83954,1.41232
				c-0.67162,0.45432-1.58023,1.24448-1.14568,1.67905S-216.39063,396.10822-217.06223,393.45139L-217.06223,393.45139z"/>
		</g>
		<g>
			<path d="M-219.8291,398.13867c-0.08594,0-0.15332-0.02246-0.2002-0.07031c-0.09961-0.09863-0.14258-0.21973-0.12988-0.3584
				c0.0498-0.51953,0.88574-1.14453,1.26465-1.40332c0.11914-0.44971,0.48828-1.12305,0.82813-1.40137
				c-0.0332-0.38916,0.00098-0.89697,0.08398-1.22266c0.05176-0.20313,0.23633-0.37451,0.45801-0.42676
				c0.19434-0.04736,0.38281,0.00928,0.50879,0.1543l0.01367,0.02588c0.48633,1.92383-1.04785,3.8208-2.23828,4.49658
				C-219.48145,398.06934-219.68164,398.13867-219.8291,398.13867z M-217.39258,393.36475c-0.0332,0-0.06836,0.00439-0.10352,0.0127
				c-0.17773,0.04199-0.32422,0.17725-0.36523,0.33643c-0.08203,0.32227-0.11523,0.83252-0.07715,1.21289l0.00293,0.03516
				l-0.02734,0.021c-0.2998,0.22705-0.69629,0.89648-0.81641,1.37744l-0.00586,0.02344l-0.01953,0.01318
				c-0.57031,0.38574-1.19238,0.93652-1.22949,1.32471c-0.00977,0.10156,0.02051,0.18604,0.09277,0.2583
				c0.06055,0.06104,0.26465,0.05615,0.63965-0.15576c0.89648-0.50928,2.68652-2.30762,2.18262-4.34277
				C-217.19141,393.40527-217.28711,393.36475-217.39258,393.36475z"/>
		</g>
		<g>
			<path class="st4" d="M-220.43636,406.28116c0.742,0.00616,1.48273-0.15308,1.4778-0.37531
				c-0.02499-1.12564-0.19753-5.59021-0.17776-6.87411c0.41478-0.32599,1.12595-0.99759,1.4617-1.37289
				c0.33582-0.37527,0.51361-0.60248,0.60249-1.04694c0.08888-0.4444,0.22716-0.75061,0.28645-0.95801
				c0.12897-0.45145,0.18764-0.78024,0.24689-1.70865c0.03528-0.5528-0.06914-0.70126-0.25681-0.69141
				c-0.52357,0.02759-0.642,1.06671-0.642,1.75803c-0.40492,0.35556-0.59256,0.9877-0.69135,1.52103
				c-0.55309,0.30618-1.20322,0.70264-1.48151,1.05679c-0.21729,0.27658-0.32538,0.33105,0.03221-0.21683
				c0.27583-0.42276,0.21895-0.8157,0.51483-1.19983c0.1808-0.23471,0.57893-0.77594,0.15108-0.96927
				c-0.42786-0.1933-0.67239,0.12595-0.93542,0.59421c-0.25101,0.44687-0.70703,0.75989-1.3232,1.17941
				c-0.92839,0.63208-0.61235,1.65927-0.61235,2.54813c0,0.99084-0.13824,4.72061-0.13824,6.38037
				C-221.92154,406.10339-221.17838,406.27499-220.43636,406.28116L-220.43636,406.28116z"/>
		</g>
		<g>
			<path d="M-220.39844,406.34375c-0.01367,0-0.02637,0-0.03906,0c-0.62402-0.00488-1.54688-0.14746-1.54688-0.4375
				c0-0.9375,0.04395-2.52441,0.08301-3.92383c0.0293-1.08691,0.05566-2.02539,0.05566-2.45703
				c0-0.17676-0.0127-0.36328-0.02539-0.54492c-0.05273-0.75195-0.10645-1.52979,0.66504-2.05469
				c0.59082-0.40283,1.05859-0.72119,1.30371-1.15869c0.24512-0.43457,0.52734-0.84082,1.01563-0.62061
				c0.11719,0.05322,0.19043,0.13428,0.2168,0.24072c0.06348,0.25244-0.15039,0.57275-0.34375,0.82373
				c-0.14746,0.19189-0.2041,0.38623-0.2627,0.59277c-0.05469,0.19043-0.11133,0.38721-0.24219,0.59277
				c0.25977-0.25342,0.69922-0.55127,1.33398-0.9043c0.13574-0.7168,0.36035-1.21094,0.68457-1.5083
				c0.00293-0.55078,0.0791-1.75977,0.70117-1.79248c0.00586-0.00049,0.0127-0.00049,0.01953-0.00049
				c0.07617,0,0.13965,0.0249,0.1875,0.07324c0.10352,0.104,0.13867,0.31543,0.11523,0.68506
				c-0.05859,0.93018-0.11621,1.25977-0.24902,1.72168c-0.01953,0.06641-0.0459,0.14307-0.07715,0.23096
				c-0.06641,0.18848-0.14844,0.42236-0.20801,0.72217c-0.08984,0.44922-0.26563,0.68359-0.61719,1.07617
				c-0.34473,0.38477-1.03906,1.03809-1.44629,1.36133c-0.01172,0.90918,0.06543,3.29102,0.12305,5.03516
				c0.02539,0.79395,0.04688,1.45996,0.05469,1.80859c0.00098,0.04883-0.01953,0.0957-0.06152,0.13867
				C-219.1543,406.24219-219.82422,406.34375-220.39844,406.34375z M-219.14941,395.20947
				c-0.24316,0-0.42578,0.22949-0.64355,0.61914c-0.26074,0.46289-0.73828,0.78857-1.34277,1.20068
				c-0.71191,0.48438-0.66016,1.22559-0.61035,1.94238c0.0127,0.18359,0.02539,0.37305,0.02539,0.55371
				c0,0.43262-0.02637,1.37207-0.05566,2.46094c-0.03906,1.39844-0.08301,2.98438-0.08301,3.91992
				c0,0.10547,0.58691,0.30566,1.42383,0.3125c0.0127,0,0.02539,0,0.03906,0c0.61426,0,1.20215-0.11328,1.34961-0.2627
				c0.0166-0.01758,0.02539-0.03418,0.02539-0.04883c-0.00781-0.34766-0.0293-1.01367-0.05469-1.80566
				c-0.05762-1.76563-0.13672-4.18262-0.12305-5.07129V399l0.02441-0.01758c0.39941-0.31348,1.10645-0.97754,1.45313-1.36523
				c0.34473-0.38428,0.50391-0.59668,0.58789-1.01758c0.06152-0.30859,0.14551-0.54736,0.21289-0.73926
				c0.03027-0.08496,0.05664-0.15918,0.07422-0.22363c0.13086-0.45264,0.1875-0.77637,0.24512-1.69531
				c0.02051-0.31738-0.00586-0.51563-0.0791-0.58936c-0.02734-0.02783-0.06445-0.0415-0.1123-0.03564
				c-0.42871,0.02246-0.58203,0.89063-0.58203,1.69531v0.02832l-0.02148,0.01855c-0.31348,0.27588-0.54004,0.77588-0.6709,1.48535
				l-0.00586,0.0293l-0.02539,0.01416c-0.76855,0.42529-1.24707,0.76611-1.46289,1.04102
				c-0.17969,0.229-0.2334,0.25195-0.2832,0.21484c-0.05469-0.03906-0.06641-0.07422,0.21387-0.50439
				c0.12695-0.19385,0.18164-0.38477,0.23438-0.56982c0.05957-0.2085,0.12109-0.42383,0.2832-0.63428
				c0.09375-0.12158,0.37891-0.49121,0.32227-0.71729c-0.0166-0.06885-0.06543-0.12012-0.14648-0.15674
				C-219.01367,395.22607-219.08398,395.20947-219.14941,395.20947z"/>
		</g>
		<g>
			<path class="st4" d="M-220.44824,405.73538c-0.47276,0-1.13306-0.0925-1.4928-0.3186
				c-0.68182-0.42856-0.12175-0.84277,0.03084-0.84277c0,0.35977,1.2153,0.42142,1.46196,0.42142
				c0.24667,0,1.45686-0.06165,1.45686-0.42142c0.16743,0,0.68979,0.4035,0.03081,0.84277
				C-219.29974,405.64288-219.97551,405.73538-220.44824,405.73538L-220.44824,405.73538z"/>
		</g>
		<g>
			<path d="M-220.44824,405.79785c-0.49902,0-1.16406-0.10156-1.52637-0.32813c-0.36133-0.22754-0.38672-0.45117-0.34473-0.59863
				c0.05957-0.20508,0.28906-0.35938,0.40918-0.35938h0.0625v0.0625c0,0.23828,0.89746,0.3584,1.39941,0.3584
				c0.50098,0,1.39453-0.12012,1.39453-0.3584v-0.0625h0.0625c0.11816,0,0.33789,0.13672,0.40039,0.34277
				c0.04492,0.14844,0.02344,0.375-0.33594,0.61426C-219.26758,405.69629-219.93652,405.79785-220.44824,405.79785z
				 M-221.95898,404.65039c-0.07715,0.0332-0.20215,0.12598-0.24023,0.25586c-0.05469,0.19238,0.12793,0.35547,0.29102,0.45801
				c0.34082,0.21289,0.97852,0.30859,1.45996,0.30859c0.47656,0,1.13477-0.09668,1.45313-0.30762
				c0.23242-0.15625,0.33105-0.32031,0.28418-0.47461c-0.03711-0.12402-0.1543-0.21094-0.23047-0.24219
				c-0.14844,0.4043-1.49219,0.40918-1.50684,0.40918S-221.80859,405.05273-221.95898,404.65039z"/>
		</g>
		<g>
			<path class="st4" d="M-220.44824,405.01163c-0.46808,0-1.12187-0.09161-1.47806-0.3154
				c-0.67505-0.42435-0.1205-0.83444,0.03056-0.83444c0,0.35617,1.20326,0.41718,1.44749,0.41718
				c0.2442,0,1.4424-0.061,1.4424-0.41718c0.16583,0,0.683,0.39944,0.03052,0.83444
				C-219.31113,404.92001-219.98015,405.01163-220.44824,405.01163L-220.44824,405.01163z"/>
		</g>
		<g>
			<path d="M-220.44824,405.07422c-0.49512,0-1.1543-0.10059-1.51172-0.3252c-0.3584-0.22559-0.38379-0.44727-0.34082-0.59375
				c0.05859-0.20313,0.28613-0.35645,0.40527-0.35645h0.0625v0.0625c0,0.23633,0.8877,0.35547,1.38477,0.35547
				c0.49512,0,1.37988-0.11914,1.37988-0.35547v-0.0625h0.0625c0.11719,0,0.33496,0.13574,0.39746,0.33984
				c0.04395,0.14746,0.02246,0.37305-0.33301,0.60938C-219.2793,404.97363-219.94141,405.07422-220.44824,405.07422z
				 M-221.94434,403.9375c-0.07617,0.03223-0.2002,0.125-0.23633,0.25293c-0.05566,0.19043,0.12598,0.35156,0.28711,0.45313
				c0.33691,0.21094,0.96875,0.30566,1.44531,0.30566c0.47168,0,1.12305-0.0957,1.43848-0.30469
				c0.16016-0.10742,0.33984-0.27637,0.28125-0.46973c-0.03711-0.12207-0.15234-0.20898-0.22852-0.23926
				c-0.14941,0.39453-1.47656,0.40625-1.49121,0.40625S-221.79199,404.33008-221.94434,403.9375z"/>
		</g>
		<g>
			<path class="st4" d="M-220.44824,404.2775c-0.45886,0-1.09981-0.08978-1.44891-0.30923
				c-0.66176-0.41595-0.11815-0.81799,0.02991-0.81799c0,0.34915,1.1796,0.409,1.41901,0.409s1.414-0.05984,1.414-0.409
				c0.1626,0,0.66954,0.39157,0.02994,0.81799C-219.33353,404.18771-219.98941,404.2775-220.44824,404.2775L-220.44824,404.2775z"/>
		</g>
		<g>
			<path d="M-220.44824,404.33984c-0.48535,0-1.13184-0.09863-1.48242-0.31934c-0.35156-0.2207-0.37598-0.43848-0.33496-0.58203
				c0.05762-0.2002,0.28125-0.35059,0.39844-0.35059h0.0625v0.0625c0,0.23047,0.86914,0.34668,1.35645,0.34668
				c0.48535,0,1.35156-0.11621,1.35156-0.34668v-0.0625h0.0625c0.11523,0,0.33008,0.13281,0.39063,0.33398
				c0.04395,0.14453,0.02246,0.36621-0.32617,0.59766C-219.30176,404.24121-219.95117,404.33984-220.44824,404.33984z
				 M-221.91504,403.22656c-0.0752,0.03223-0.19434,0.12207-0.23047,0.24609c-0.05371,0.18555,0.12305,0.34277,0.28125,0.44238
				c0.33008,0.20703,0.94922,0.2998,1.41602,0.2998c0.46289,0,1.10059-0.09375,1.41016-0.29883
				c0.15625-0.10449,0.33203-0.26953,0.27539-0.45801c-0.03613-0.11816-0.14844-0.20313-0.22266-0.2334
				c-0.14648,0.39258-1.44922,0.39746-1.46289,0.39746S-221.76367,403.61035-221.91504,403.22656z"/>
		</g>
		<g>
			<path class="st5" d="M-232.82901,396.50168"/>
		</g>
		<g>
			<path class="st6" d="M-232.82901,396.50168"/>
		</g>
		<g>
			<path class="st4" d="M-247.28217,393.75757c0.10208-0.25949,0.45694-0.19467,0.57283,0.0889
				c0.11589,0.28354,0.16794,0.71112,0.16641,1.00873c0.10428,0.21475,0.34886,0.53796,0.3983,0.8988
				c0.0674,0.49252-1.03604,0.2637-1.13754-0.77173C-247.33154,394.47855-247.41054,393.98468-247.28217,393.75757
				L-247.28217,393.75757z"/>
		</g>
		<g>
			<path d="M-246.38916,396.06494c-0.08594,0-0.18262-0.02148-0.28076-0.06445c-0.29053-0.12695-0.62012-0.45996-0.67432-1.01221
				c-0.00732-0.07373-0.01514-0.14746-0.02295-0.22021c-0.04736-0.44238-0.08838-0.8252,0.02832-1.03711
				c0.05029-0.12402,0.15771-0.19824,0.2876-0.19922c0.00049,0,0.00146,0,0.00195,0c0.16699,0,0.32666,0.1167,0.39795,0.2915
				c0.11816,0.28809,0.1709,0.71533,0.1709,1.01709c0.02588,0.05225,0.06006,0.11035,0.09668,0.17334
				c0.11719,0.20215,0.26318,0.45313,0.30127,0.73193c0.01465,0.10889-0.01855,0.20068-0.09424,0.25781
				C-246.23145,396.04443-246.30518,396.06494-246.38916,396.06494z M-247.04932,393.65674c-0.00049,0-0.00098,0-0.00146,0
				c-0.08057,0.00049-0.14209,0.04443-0.17334,0.12402l-0.00391,0.00781c-0.09961,0.17627-0.05859,0.56006-0.01514,0.96631
				c0.00781,0.07324,0.01563,0.14697,0.02295,0.22168c0.04932,0.49805,0.34229,0.79639,0.60059,0.90967
				c0.14941,0.06543,0.29443,0.07324,0.36768,0.01709c0.03906-0.0293,0.0542-0.07666,0.04541-0.14111
				c-0.03467-0.25391-0.17383-0.49316-0.28516-0.68555c-0.0415-0.07178-0.07959-0.13672-0.10742-0.19434l-0.00635-0.02783
				c0.00146-0.29004-0.04785-0.70703-0.16162-0.98389C-246.82715,393.72363-246.95508,393.65674-247.04932,393.65674z"/>
		</g>
		<g>
			<path class="st4" d="M-247.95378,393.69827c0.12837-0.24689,0.62224-0.19748,0.76051,0.12845
				c0.13829,0.32596,0.13829,0.68146,0.14815,1.03702c0.17775,0.22717,0.43159,0.7121,0.54324,1.04694
				c0.11853,0.35556,0.77036,1.27414-0.54324,0.49384C-247.50565,396.13098-248.28957,394.21188-247.95378,393.69827
				L-247.95378,393.69827z"/>
		</g>
		<g>
			<path d="M-246.34229,396.77295c-0.1167,0-0.3252-0.07178-0.73438-0.31494c-0.34424-0.2041-0.78467-1.14648-0.94873-1.85254
				c-0.0708-0.30615-0.125-0.71631,0.01758-0.93896c0.06299-0.11768,0.19531-0.18652,0.35742-0.18652
				c0.00732,0,0.01514,0,0.02295,0.00049c0.21924,0.0083,0.41211,0.13477,0.4917,0.32178
				c0.1333,0.31445,0.14258,0.65625,0.15137,0.98682l0.00146,0.05273c0.18604,0.24463,0.43018,0.71826,0.54004,1.04932
				c0.021,0.0625,0.06104,0.14697,0.10352,0.23584c0.12061,0.25537,0.23486,0.49658,0.1167,0.60449
				C-246.24854,396.75488-246.28369,396.77295-246.34229,396.77295z M-247.65039,393.60498
				c-0.11572,0-0.20752,0.04492-0.24756,0.12207l-0.00342,0.00537c-0.09424,0.14404-0.09521,0.44434-0.00195,0.84473
				c0.16895,0.729,0.61035,1.60742,0.89014,1.77344c0.59863,0.35547,0.69873,0.29736,0.70605,0.28809
				c0.05029-0.04541-0.08203-0.32422-0.14551-0.45801c-0.04395-0.09277-0.08545-0.18018-0.1084-0.25
				c-0.10693-0.32178-0.35596-0.80225-0.5332-1.02832l-0.0127-0.01611l-0.00244-0.09424
				c-0.00879-0.33301-0.01758-0.64795-0.1416-0.94092c-0.07324-0.17334-0.25146-0.24072-0.38135-0.24561
				C-247.63867,393.60498-247.64453,393.60498-247.65039,393.60498z"/>
		</g>
		<g>
			<path class="st4" d="M-248.59575,393.45139c0.26666-0.30612,0.77034-0.09875,0.85928,0.24689
				c0.08348,0.32489,0.11852,0.83957,0.07898,1.23465c0.32594,0.24692,0.72099,0.93823,0.83952,1.41232
				c0.67162,0.45432,1.58026,1.24448,1.14566,1.67905C-246.10686,398.45886-249.26736,396.10822-248.59575,393.45139
				L-248.59575,393.45139z"/>
		</g>
		<g>
			<path d="M-245.82861,398.13867c-0.14746,0-0.34814-0.06934-0.58936-0.20605c-1.18994-0.67578-2.72461-2.57275-2.23828-4.49658
				l0.01318-0.02588c0.12646-0.14453,0.31494-0.2002,0.50977-0.1543c0.22168,0.05225,0.40527,0.22363,0.45752,0.42676
				c0.0835,0.32471,0.11768,0.83252,0.0835,1.22266c0.34033,0.27734,0.70947,0.95068,0.8291,1.40137
				c0.37939,0.25879,1.21484,0.88477,1.26416,1.40332c0.01367,0.13916-0.03027,0.25977-0.12891,0.3584
				C-245.67529,398.11621-245.74316,398.13867-245.82861,398.13867z M-248.53906,393.48145
				c-0.50342,2.03516,1.28662,3.8335,2.18311,4.34277c0.37305,0.21191,0.5791,0.21777,0.63916,0.15576
				c0.07275-0.07227,0.10303-0.15674,0.09375-0.2583c-0.03711-0.3877-0.65967-0.93848-1.22998-1.32471l-0.01953-0.01318
				l-0.00586-0.02344c-0.12061-0.48145-0.51758-1.15088-0.81689-1.37744l-0.02832-0.021l0.00391-0.03516
				c0.03809-0.38135,0.00537-0.89111-0.07715-1.21289c-0.04102-0.15918-0.1875-0.29443-0.36523-0.33643
				C-248.30859,393.34277-248.44482,393.38086-248.53906,393.48145z"/>
		</g>
		<g>
			<path class="st4" d="M-245.22166,406.28116c-0.74193,0.00616-1.4827-0.15308-1.47777-0.37531
				c0.02499-1.12564,0.19756-5.59021,0.1778-6.87411c-0.41483-0.32599-1.12593-0.99759-1.46176-1.37289
				c-0.33582-0.37527-0.5136-0.60248-0.60249-1.04694c-0.08885-0.4444-0.22716-0.75061-0.28641-0.95801
				c-0.12898-0.45145-0.18767-0.78024-0.2469-1.70865c-0.03529-0.5528,0.06915-0.70126,0.25679-0.69141
				c0.52361,0.02759,0.64198,1.06671,0.64198,1.75803c0.40497,0.35556,0.59261,0.9877,0.69139,1.52103
				c0.55309,0.30618,1.20317,0.70264,1.48149,1.05679c0.21725,0.27658,0.32536,0.33105-0.03217-0.21683
				c-0.27588-0.42276-0.21895-0.8157-0.51489-1.19983c-0.18076-0.23471-0.57887-0.77594-0.15105-0.96927
				c0.42784-0.1933,0.67235,0.12595,0.93538,0.59421c0.25102,0.44687,0.70708,0.75989,1.32321,1.17941
				c0.92844,0.63208,0.61238,1.65927,0.61238,2.54813c0,0.99084,0.13823,4.72061,0.13823,6.38037
				C-243.73647,406.10339-244.47968,406.27499-245.22166,406.28116L-245.22166,406.28116z"/>
		</g>
		<g>
			<path d="M-245.25928,406.34375c-0.57568,0-1.24512-0.10156-1.44092-0.30078c-0.04199-0.04199-0.0625-0.08887-0.06152-0.13867
				c0.00781-0.34277,0.02881-0.99609,0.0542-1.77441c0.05713-1.75586,0.13525-4.15332,0.12402-5.06836
				c-0.4082-0.32324-1.10205-0.97656-1.44629-1.36133c-0.35205-0.39258-0.52734-0.62695-0.61768-1.07617
				c-0.06006-0.30127-0.14258-0.53613-0.20898-0.7251c-0.03027-0.08643-0.05713-0.16211-0.07568-0.22803
				c-0.13281-0.46191-0.19043-0.7915-0.24951-1.72168c-0.02344-0.36963,0.01221-0.58105,0.11475-0.68506
				c0.05225-0.05273,0.11816-0.08057,0.20801-0.07275c0.62207,0.03271,0.69873,1.2417,0.70117,1.79248
				c0.32373,0.29688,0.54785,0.79102,0.68506,1.5083c0.63428,0.35303,1.07373,0.65088,1.33398,0.9043
				c-0.13184-0.20557-0.18848-0.40283-0.24316-0.59326c-0.05908-0.20605-0.11475-0.40088-0.26221-0.59229
				c-0.19336-0.25049-0.40723-0.5708-0.34424-0.82373c0.02686-0.10645,0.09961-0.1875,0.2168-0.24072
				c0.49316-0.2207,0.77148,0.18604,1.01611,0.62061c0.24561,0.4375,0.7124,0.75586,1.30322,1.15869
				c0.77148,0.5249,0.71777,1.30273,0.66553,2.05566c-0.01221,0.18066-0.02539,0.36719-0.02539,0.54395
				c0,0.43164,0.02588,1.37012,0.05566,2.45703c0.03857,1.39941,0.08252,2.98633,0.08252,3.92383
				c0,0.29004-0.92334,0.43262-1.54736,0.4375l-0.00049-0.0625l0.00049,0.0625
				C-245.23389,406.34375-245.24658,406.34375-245.25928,406.34375z M-248.87939,393.31592
				c-0.04346,0-0.07373,0.01123-0.09863,0.03613c-0.07227,0.07373-0.09912,0.27197-0.07861,0.58936
				c0.05811,0.91846,0.11475,1.24268,0.24463,1.69531c0.01807,0.06348,0.04395,0.13672,0.07324,0.2207
				c0.06787,0.19238,0.15234,0.43213,0.21436,0.74219c0.08398,0.4209,0.24365,0.6333,0.5874,1.01758
				c0.34766,0.3877,1.0542,1.05176,1.4541,1.36523L-246.45947,399l0.00049,0.03027c0.01367,0.89453-0.06543,3.32715-0.12354,5.10352
				c-0.02539,0.77832-0.04639,1.43066-0.0542,1.77344c-0.00049,0.01465,0.0083,0.03125,0.02588,0.04883
				c0.14648,0.14941,0.73486,0.2627,1.34961,0.2627c0.01318,0,0.02588,0,0.03906,0c0.83643-0.00684,1.42334-0.20703,1.42334-0.3125
				c0-0.93555-0.04395-2.52148-0.08252-3.91992c-0.02979-1.08887-0.05566-2.02832-0.05566-2.46094
				c0-0.18066,0.01318-0.37012,0.02588-0.55273c0.0498-0.7168,0.10107-1.45898-0.61133-1.94336
				c-0.60449-0.4126-1.08203-0.73828-1.34229-1.20068c-0.28369-0.50537-0.49365-0.7334-0.85498-0.56787
				c-0.08203,0.03662-0.12988,0.08838-0.14746,0.15674c-0.05615,0.22656,0.22852,0.5957,0.32178,0.71729
				c0.16211,0.21045,0.22412,0.42578,0.28369,0.63379c0.05322,0.18506,0.10791,0.37646,0.23438,0.57031
				c0.28076,0.43018,0.26855,0.46533,0.21436,0.50439c-0.0542,0.04004-0.10449,0.01221-0.28369-0.21484
				c-0.21582-0.2749-0.69434-0.61572-1.4624-1.04102l-0.02588-0.01416l-0.00537-0.0293
				c-0.13379-0.71973-0.35352-1.20605-0.67139-1.48535l-0.021-0.01855v-0.02832c0-0.80469-0.15332-1.67285-0.58301-1.69531
				C-248.87061,393.31592-248.875,393.31592-248.87939,393.31592z"/>
		</g>
		<g>
			<path class="st4" d="M-245.20975,405.73538c0.47273,0,1.13307-0.0925,1.49278-0.3186
				c0.68181-0.42856,0.1217-0.84277-0.03082-0.84277c0,0.35977-1.21529,0.42142-1.46194,0.42142
				c-0.24667,0-1.45686-0.06165-1.45686-0.42142c-0.16748,0-0.68979,0.4035-0.03081,0.84277
				C-246.35825,405.64288-245.68256,405.73538-245.20975,405.73538L-245.20975,405.73538z"/>
		</g>
		<g>
			<path d="M-245.20996,405.79785c-0.51172,0-1.18066-0.10156-1.52197-0.3291c-0.3584-0.23926-0.38037-0.46582-0.33545-0.61426
				c0.0625-0.20605,0.28271-0.34277,0.40088-0.34277h0.0625v0.0625c0,0.23828,0.89355,0.3584,1.39404,0.3584
				c0.50244,0,1.3999-0.12012,1.3999-0.3584v-0.0625h0.0625c0.12012,0,0.34912,0.1543,0.4082,0.35938
				c0.04297,0.14746,0.01758,0.37109-0.34424,0.59863C-244.04492,405.69629-244.71045,405.79785-245.20996,405.79785z
				 M-246.71582,404.64844c-0.07715,0.03125-0.19434,0.11816-0.23193,0.24219c-0.04688,0.1543,0.05176,0.31836,0.28516,0.47461
				c0.31787,0.21094,0.97559,0.30762,1.45264,0.30762c0.48145,0,1.11963-0.0957,1.45996-0.30859
				c0.16309-0.10254,0.34619-0.26563,0.29053-0.45898c-0.03711-0.12891-0.16211-0.22168-0.23926-0.25488
				c-0.15088,0.40234-1.49707,0.40723-1.51123,0.40723S-246.56836,405.05273-246.71582,404.64844z"/>
		</g>
		<g>
			<path class="st4" d="M-245.20975,405.01163c0.46808,0,1.12184-0.09161,1.47801-0.3154
				c0.67506-0.42435,0.12051-0.83444-0.03052-0.83444c0,0.35617-1.20329,0.41718-1.44749,0.41718
				c-0.24426,0-1.44244-0.061-1.44244-0.41718c-0.16583,0-0.68295,0.39944-0.03053,0.83444
				C-246.34691,404.92001-245.67784,405.01163-245.20975,405.01163L-245.20975,405.01163z"/>
		</g>
		<g>
			<path d="M-245.20996,405.07422c-0.50635,0-1.16895-0.10059-1.50732-0.32617c-0.35498-0.23633-0.37646-0.46191-0.33203-0.60938
				c0.06201-0.2041,0.27979-0.33984,0.39697-0.33984h0.0625v0.0625c0,0.23633,0.88477,0.35547,1.37988,0.35547
				c0.49707,0,1.38525-0.11914,1.38525-0.35547v-0.0625h0.0625c0.11914,0,0.34619,0.15332,0.40527,0.35645
				c0.04199,0.14648,0.01709,0.36816-0.3418,0.59375C-244.05615,404.97363-244.71533,405.07422-245.20996,405.07422z
				 M-246.70117,403.93555c-0.07617,0.03027-0.19141,0.11719-0.22852,0.23926c-0.05859,0.19434,0.12109,0.3623,0.28174,0.46973
				c0.31494,0.20898,0.96582,0.30469,1.43799,0.30469c0.47705,0,1.1084-0.09473,1.44482-0.30566
				c0.16162-0.10156,0.34277-0.2627,0.28809-0.4541c-0.03711-0.12695-0.16016-0.21973-0.23682-0.25195
				c-0.15186,0.39258-1.48193,0.4043-1.49609,0.4043S-246.55225,404.33008-246.70117,403.93555z"/>
		</g>
		<g>
			<path class="st4" d="M-245.20975,404.2775c0.45883,0,1.09976-0.08978,1.44888-0.30923
				c0.66179-0.41595,0.11819-0.81799-0.02989-0.81799c0,0.34915-1.17963,0.409-1.41899,0.409
				c-0.23946,0-1.41403-0.05984-1.41403-0.409c-0.16257,0-0.66953,0.39157-0.02994,0.81799
				C-246.32449,404.18771-245.66862,404.2775-245.20975,404.2775L-245.20975,404.2775z"/>
		</g>
		<g>
			<path d="M-227.19336,409.38086l-0.0918-0.08594c0.79199-0.83789,1.88477-1.8125,2.5752-2.03613
				c0.44629-0.14355,0.57715,0.00879,0.61328,0.08203c0.06641,0.13672-0.01465,0.32324-0.19336,0.44434l-0.07031-0.10352
				c0.13672-0.09277,0.18457-0.21777,0.15137-0.28613c-0.0332-0.06543-0.1748-0.11035-0.46191-0.01758
				C-225.34082,407.59375-226.44824,408.5918-227.19336,409.38086z M-238.46436,409.38086
				c-0.74561-0.78906-1.85352-1.78711-2.52197-2.00293c-0.28955-0.09277-0.43018-0.04785-0.4624,0.01758
				c-0.0332,0.06836,0.01416,0.19336,0.15088,0.28613l-0.07031,0.10352c-0.17822-0.12109-0.25977-0.30762-0.19287-0.44434
				c0.03516-0.07324,0.16748-0.22559,0.61279-0.08203c0.69043,0.22363,1.78271,1.19824,2.57471,2.03613L-238.46436,409.38086z
				 M-245.20996,404.33984c-0.49756,0-1.14746-0.09863-1.47852-0.32031c-0.34863-0.23145-0.36963-0.45313-0.32617-0.59766
				c0.06104-0.20117,0.27539-0.33398,0.39063-0.33398h0.0625v0.0625c0,0.23047,0.8667,0.34668,1.35156,0.34668
				c0.48682,0,1.35693-0.11621,1.35693-0.34668v-0.0625h0.0625c0.11719,0,0.34082,0.15039,0.39844,0.35059
				c0.04102,0.14355,0.0166,0.36133-0.33545,0.58203C-244.07764,404.24121-244.72461,404.33984-245.20996,404.33984z
				 M-246.67285,403.22461c-0.07422,0.03027-0.18604,0.11523-0.22217,0.2334c-0.05664,0.18848,0.11865,0.35352,0.27588,0.45801
				c0.30762,0.20508,0.94629,0.29883,1.40918,0.29883c0.46777,0,1.08691-0.09277,1.41602-0.2998
				c0.15771-0.09961,0.33496-0.25684,0.28174-0.44238c-0.03613-0.12402-0.15527-0.21387-0.22998-0.24609
				c-0.1499,0.39063-1.45361,0.39551-1.46777,0.39551S-246.52588,403.61719-246.67285,403.22461z"/>
		</g>
		<g>
			<path class="st1" d="M-231.23828,410.7168c-0.03809,0-0.0752-0.00195-0.1123-0.00586
				c-0.1875-0.01855-0.33691-0.10352-0.43359-0.24414c-0.15625-0.22852-0.14355-0.56348-0.0791-0.80176
				c0.01855-0.06641,0.08301-0.10449,0.1543-0.08789c0.06641,0.01855,0.10547,0.08691,0.08691,0.1543
				c-0.04688,0.1748-0.06445,0.43555,0.04395,0.59375c0.05566,0.08105,0.1377,0.12598,0.25293,0.1377
				c0.36621,0.03418,0.72266-0.17383,0.9082-0.39941c0.07227-0.08789,0.17773-0.24902,0.07324-0.34082
				c-0.13574-0.11914-0.20117-0.23926-0.19531-0.35742c0.00391-0.06738,0.03418-0.16602,0.15625-0.25293
				c0.18262-0.12988,0.34863-0.18652,0.61914-0.06055c0.15137,0.06934,0.2832,0.07813,0.36719,0.02246
				c0.0957-0.06348,0.14453-0.21973,0.13672-0.43848c-0.00195-0.06836,0.05176-0.12598,0.12109-0.12891
				c0.00098,0,0.00293,0,0.00391,0c0.06738,0,0.12305,0.05273,0.125,0.12109c0.01367,0.39551-0.12793,0.57422-0.24805,0.6543
				c-0.16016,0.10742-0.37598,0.10352-0.61133-0.00391c-0.16016-0.07324-0.2334-0.05566-0.36914,0.03809
				c-0.01855,0.01367-0.0498,0.03906-0.05078,0.0625c-0.00195,0.02734,0.02637,0.08203,0.11035,0.15625
				c0.18848,0.16602,0.17188,0.42285-0.04492,0.68652C-230.47656,410.53027-230.86523,410.7168-231.23828,410.7168z
				 M-233.16748,410.69824c-0.125,0-0.25635-0.03809-0.37891-0.11328c-0.05908-0.03613-0.07715-0.11328-0.04102-0.17188
				c0.03516-0.05859,0.11279-0.07813,0.17188-0.04102c0.18115,0.11133,0.33936,0.08496,0.42725,0.02246
				c0.07324-0.05273,0.10498-0.13086,0.08643-0.21582c-0.01221-0.05566-0.09326-0.10742-0.18457-0.11914
				c-0.05469-0.00488-0.19775-0.00586-0.27246,0.14746l-0.23291-0.08691l0.03174-0.11816
				c0.08887-0.32715,0.25391-0.93457,0.27002-1.21875c0.00391-0.06934,0.05615-0.12207,0.13232-0.11816
				c0.06885,0.00391,0.12158,0.06348,0.11768,0.13184c-0.01465,0.24805-0.12109,0.67969-0.21289,1.02637
				c0.06104-0.01465,0.12842-0.02051,0.1958-0.01172c0.20313,0.02441,0.36377,0.15039,0.39941,0.31445
				c0.04004,0.18164-0.03125,0.3623-0.18604,0.47168C-232.93799,410.66504-233.05029,410.69824-233.16748,410.69824z
				 M-230.30078,410.69238c-0.0127,0-0.02637-0.00195-0.03906-0.00684c-0.06641-0.02148-0.10156-0.0918-0.0791-0.15723
				l0.01953-0.05859c0.02051-0.06543,0.09375-0.10254,0.15723-0.0791c0.06641,0.02148,0.10156,0.0918,0.0791,0.15723
				l-0.01953,0.05859C-230.19922,410.65918-230.24805,410.69238-230.30078,410.69238z M-235.05762,410.45703
				c-0.1333,0-0.25635-0.01465-0.35742-0.04688c-0.06592-0.02051-0.10254-0.09082-0.08154-0.15625
				c0.02051-0.06641,0.08887-0.10254,0.15674-0.08203c0.32324,0.10352,0.99023-0.01953,1.23438-0.28223
				c0.0459-0.05078,0.12549-0.05469,0.17627-0.00684c0.05078,0.04688,0.05371,0.12598,0.00635,0.17676
				C-234.16162,410.31641-234.65479,410.45703-235.05762,410.45703z M-229.83594,410.37695
				c-0.0127,0-0.02637-0.00195-0.03906-0.00586c-0.06543-0.02148-0.10156-0.09277-0.08008-0.1582l0.01953-0.05957
				c0.02246-0.06543,0.09277-0.09863,0.1582-0.08008c0.06543,0.02148,0.10156,0.09277,0.08008,0.1582l-0.01953,0.05957
				C-229.73438,410.34375-229.7832,410.37695-229.83594,410.37695z M-229.03809,410.04688
				c-0.09863,0-0.19336-0.01855-0.2832-0.05566c-0.06348-0.02637-0.09375-0.09863-0.06738-0.16309
				c0.02637-0.0625,0.09766-0.0957,0.16309-0.06738c0.17188,0.06934,0.35156,0.02441,0.47168-0.03027
				c0.20898-0.0918,0.41211-0.27344,0.56348-0.49316c-0.07813-0.00098-0.15332-0.00977-0.21387-0.03906
				c-0.24512-0.11914-0.26465-0.5127-0.1709-0.74219c0.06445-0.15723,0.19531-0.29297,0.3418-0.35352
				c0.10059-0.04102,0.19922-0.0459,0.28223-0.01074c0.25293,0.10449,0.32617,0.46484,0.17871,0.87598
				c-0.00195,0.00684-0.00488,0.01465-0.00781,0.02148c-0.15918,0.42578-0.5,0.80566-0.87207,0.9707
				C-228.78418,410.01758-228.91406,410.04688-229.03809,410.04688z M-228.07227,408.31836
				c-0.01855,0-0.04102,0.00488-0.06543,0.01465c-0.08496,0.03613-0.16602,0.12109-0.20605,0.21777
				c-0.06543,0.16016-0.02734,0.38574,0.04883,0.42285c0.04102,0.01953,0.12402,0.02246,0.20117-0.01172
				c0.04102-0.01758,0.07031-0.04102,0.08105-0.06543c0.00195-0.00293,0.00293-0.00684,0.00391-0.01074l0.00098-0.00098
				c0.11133-0.31055,0.04883-0.52539-0.03906-0.5625C-228.05371,408.31934-228.0625,408.31836-228.07227,408.31836z
				 M-234.50781,410.00098c-0.01758,0-0.03516-0.00391-0.05225-0.01172c-0.0625-0.02832-0.09033-0.10254-0.06152-0.16504
				c0.10742-0.23438,0.22656-0.79199,0.26611-1.14648c0.00684-0.06934,0.06934-0.13184,0.1377-0.11035
				c0.06885,0.00781,0.11816,0.06934,0.11035,0.1377c-0.04199,0.37988-0.16406,0.95605-0.28662,1.22363
				C-234.41553,409.97363-234.46045,410.00098-234.50781,410.00098z M-236.34326,409.98535
				c-0.02441,0-0.04785-0.00195-0.06982-0.00488c-0.20605-0.03027-0.31641-0.14355-0.37305-0.2334
				c-0.02295-0.03613-0.04053-0.07422-0.05371-0.11133c-0.03955,0.02539-0.08154,0.0459-0.125,0.06055
				c-0.10986,0.03613-0.21729,0.03027-0.30176-0.01758c-0.09668-0.05566-0.16504-0.14844-0.19336-0.2627
				c-0.00439-0.01855-0.00781-0.03711-0.01025-0.05566c-0.03516,0.01367-0.07031,0.02344-0.10547,0.02734
				c-0.1001,0.01172-0.18848-0.01465-0.26221-0.07715c-0.09424-0.08008-0.1543-0.21094-0.15137-0.36133
				c-0.03955,0.01074-0.09033,0.01172-0.12207,0.01758c-0.10693,0-0.20117-0.04297-0.27295-0.12402
				c-0.09619-0.1084-0.09424-0.30078,0.00391-0.57715c-0.07129,0.03516-0.14209,0.05371-0.21143,0.05664
				c-0.00781,0-0.01563,0-0.02393,0c-0.27832,0-0.58447-0.20117-0.60938-0.54102c-0.00537-0.06836,0.04639-0.12793,0.11523-0.13379
				c0.05371-0.00293,0.09619,0.02441,0.11914,0.06543c0.00488-0.00586,0.01074-0.00977,0.01709-0.01465
				c0.15869-0.10742,0.38428-0.44824,0.45898-0.62598c0.02637-0.06348,0.09863-0.09473,0.16406-0.06641
				c0.06348,0.02734,0.09326,0.10059,0.06641,0.16406c-0.07715,0.18164-0.32617,0.58398-0.54883,0.73535
				c-0.0249,0.0166-0.0542,0.02637-0.08301,0.02051c0.07275,0.09863,0.21289,0.15234,0.31348,0.14648
				c0.15625-0.00586,0.36182-0.18848,0.56592-0.49805c0.03564-0.05957,0.07373-0.12109,0.11426-0.18457l0.21387,0.12891
				c-0.03809,0.06641-0.07666,0.12891-0.11523,0.1875c-0.36719,0.62012-0.41455,0.9248-0.37402,0.9707
				c0.02441,0.02734,0.05127,0.04004,0.08643,0.04004c0.00049,0,0.00098,0,0.00146,0
				c0.08643-0.00098,0.19727-0.07617,0.25732-0.14648l0.19775,0.15234c-0.11914,0.1709-0.10107,0.3291-0.02148,0.39746
				c0.02002,0.0166,0.04248,0.01855,0.0708,0.01953c0.07031-0.00879,0.15674-0.07422,0.23096-0.17578l0.20654,0.13965
				c-0.04932,0.0791-0.06836,0.1748-0.04932,0.25195c0.01221,0.04883,0.03711,0.08496,0.0752,0.10645
				c0.02002,0.01367,0.05664,0.0127,0.09766-0.00293c0.08496-0.02832,0.16309-0.10059,0.19922-0.18457l0.23389,0.08594
				c-0.01611,0.05273-0.02002,0.16406,0.03662,0.25391c0.0415,0.06543,0.10791,0.10547,0.19824,0.11816
				c0.27393,0.05469,0.54053-0.45117,0.68848-1.25195c0.0127-0.06836,0.07471-0.1084,0.146-0.10059
				c0.06787,0.0127,0.1123,0.07813,0.1001,0.14551C-235.67188,409.76367-236.08008,409.98535-236.34326,409.98535z
				 M-227.59473,409.38867c-0.03223,0-0.06348-0.01172-0.08789-0.03613c-0.04883-0.04883-0.0498-0.12793-0.00098-0.17676
				c0.72461-0.7334,0.72461-1.03906,0.72461-1.33398c0-0.10156-0.00586-0.19629-0.01172-0.2832
				c-0.01855-0.2959-0.03613-0.57617,0.25586-0.70117c0.24023-0.10254,0.55176-0.39063,0.77637-0.7168
				c0.15137-0.2207,0.41699-0.31836,0.62305-0.22852c0.07422,0.0332,0.30957,0.17578,0.20313,0.61523
				c-0.01563,0.06738-0.08301,0.11426-0.15039,0.0918c-0.06738-0.01563-0.1084-0.08301-0.0918-0.15039
				c0.04004-0.16992,0.0166-0.29297-0.06348-0.32813c-0.08008-0.03613-0.22266,0.00879-0.31543,0.1416
				c-0.19141,0.2793-0.53809,0.65723-0.88281,0.80566c-0.12012,0.05078-0.12402,0.15234-0.10449,0.45508
				c0.00586,0.0918,0.01172,0.19141,0.01172,0.29883c0,0.39844-0.05859,0.7627-0.79688,1.50977
				C-227.53027,409.37598-227.5625,409.38867-227.59473,409.38867z M-229.87598,408.90527
				c-0.0127,0-0.02637-0.00195-0.03906-0.00586c-0.06543-0.02148-0.10156-0.09277-0.08008-0.1582l0.01953-0.05957
				c0.02246-0.06543,0.09277-0.09863,0.1582-0.08008c0.06543,0.02148,0.10156,0.09277,0.08008,0.1582l-0.01953,0.05957
				C-229.77441,408.87207-229.82324,408.90527-229.87598,408.90527z M-239.40674,407.7002c-0.10254,0-0.19482-0.0293-0.2666-0.08691
				c-0.10889-0.08887-0.16064-0.20508-0.14453-0.32813c0.00391-0.0332,0.01367-0.06641,0.02734-0.09863
				c-0.30859-0.02051-0.60986-0.11426-0.75244-0.20801c-0.05713-0.03906-0.07275-0.11621-0.03467-0.17383
				s0.11572-0.07227,0.17334-0.03516c0.13281,0.08887,0.55566,0.2041,0.89111,0.16309
				c0.01318-0.00391,0.02832-0.00391,0.03955-0.00586c0.02588-0.00391,0.05078-0.00977,0.0752-0.01563
				c0.19775-0.05078,0.34668-0.02539,0.44141,0.07422c0.10693,0.1123,0.10352,0.28516,0.06445,0.40918
				c-0.04443,0.14258-0.20166,0.2373-0.33447,0.27734C-239.28857,407.69043-239.34961,407.7002-239.40674,407.7002z
				 M-239.44385,407.1748c-0.0708,0.03711-0.11963,0.0918-0.12646,0.14258c-0.00439,0.03418,0.01367,0.06836,0.0542,0.10059
				c0.04492,0.03809,0.12891,0.04199,0.21631,0.01465c0.10303-0.03125,0.16162-0.08984,0.16895-0.1123
				c0.02051-0.06641,0.01758-0.13672-0.00732-0.16309c-0.02686-0.02734-0.1001-0.0293-0.19775-0.00391
				C-239.37061,407.16211-239.40674,407.16895-239.44385,407.1748z M-232.96826,407.625c-0.02686,0-0.05371-0.00293-0.08105-0.00879
				c-0.13037-0.02832-0.23486-0.11035-0.29492-0.23047c-0.05176-0.10449-0.06885-0.23145-0.05273-0.37012
				c-0.17725,0.0957-0.32471,0.13184-0.44385,0.11133c-0.43018,0.3125-1.01611,0.52441-1.521,0.45313
				c-0.06836-0.00977-0.11572-0.07324-0.10596-0.1416c0.00928-0.06836,0.07422-0.11914,0.14111-0.10645
				c0.41406,0.06152,0.89746-0.10938,1.27002-0.35938c-0.11572-0.19629-0.06055-0.52148,0.00098-0.70801
				c0.08545-0.25879,0.25439-0.46777,0.44092-0.54492c0.09229-0.03809,0.18311-0.03809,0.25635-0.00195
				c0.07422,0.03711,0.12988,0.11621,0.15723,0.22266c0.05518,0.21387-0.00781,0.48242-0.16943,0.71777
				c-0.021,0.03125-0.04443,0.0625-0.06934,0.09375c0.05518-0.03418,0.11621-0.0752,0.18311-0.12598l0.18799,0.15332
				c-0.08887,0.19043-0.1084,0.37988-0.05127,0.49512c0.02637,0.05371,0.06689,0.08496,0.12354,0.09766
				c0.03906,0.00781,0.07178,0.00098,0.10596-0.02539c0.10547-0.0791,0.22998-0.3418,0.26416-0.83984l0.24951,0.00684
				c0.00879,0.59277,0.03613,0.65918,0.1416,0.66699c0.00244,0.00098,0.00439,0.00098,0.00684,0.00098
				c0.08057,0,0.14697-0.12305,0.22559-0.69043l0.24805,0.03027c-0.02832,0.2832,0.01953,0.59863,0.16699,0.62598
				c0.00684,0.00195,0.01367,0.00195,0.02148,0.00195c0.14453,0,0.2793-0.26465,0.34082-0.54004
				c0.01465-0.06738,0.08203-0.1084,0.14941-0.09473c0.06738,0.01563,0.10938,0.08203,0.09473,0.14941
				c-0.08789,0.39453-0.30859,0.79688-0.65234,0.72949c-0.12305-0.02344-0.20996-0.09766-0.27051-0.20117
				c-0.07227,0.16309-0.18652,0.25391-0.35059,0.23828c-0.14014-0.01172-0.22607-0.06836-0.2793-0.16699
				c-0.05615,0.12598-0.12549,0.22168-0.20605,0.28223C-232.81006,407.59863-232.8877,407.625-232.96826,407.625z
				 M-233.479,405.93945c-0.05029,0-0.23975,0.10254-0.33936,0.40332c-0.05957,0.18066-0.07227,0.37988-0.03613,0.47656
				c0.1123-0.0957,0.20703-0.19824,0.27783-0.30176c0.20508-0.30078,0.14355-0.54883,0.104-0.57813
				C-233.47461,405.93945-233.47656,405.93945-233.479,405.93945z M-229.69531,407.47754c-0.06152,0-0.12305-0.01074-0.18262-0.0332
				c-0.14551-0.05566-0.22363-0.2002-0.21582-0.38867c-0.16309,0.19336-0.35059,0.39648-0.60645,0.40332l-0.03906-0.24512
				c0.18652-0.05469,0.30078-0.44238,0.41113-0.81836c0.07617-0.25977,0.15723-0.53711,0.27637-0.77832
				c-0.24707,0.10449-0.48828,0.16992-0.68359,0.17969c-0.06934-0.00488-0.12793-0.0498-0.13086-0.11914
				c-0.00293-0.06836,0.0498-0.12695,0.11914-0.13086c0.27734-0.0127,0.6875-0.16992,1.04004-0.3916
				c0.04688-0.03809,0.09766-0.07227,0.15332-0.10059l0.12988,0.21191c-0.04395,0.03125-0.08887,0.06152-0.13379,0.09082
				c-0.27344,0.23242-0.40918,0.69434-0.53125,1.1084c-0.03125,0.10742-0.06152,0.21094-0.09375,0.30859
				c0.1709-0.19727,0.3623-0.3877,0.63574-0.34082l-0.00781,0.04395l0.28516,0.08789
				c0.04004-0.01563,0.19141-0.23047,0.23047-0.5625c0.04492-0.39551,0.08105-0.9502-0.00586-1.3418
				c-0.01465-0.06738,0.02734-0.13477,0.09473-0.14941c0.07617-0.01367,0.13477,0.02832,0.14941,0.09473
				c0.09473,0.42578,0.05762,1.00977,0.00977,1.42578c-0.03809,0.3252-0.17969,0.62793-0.34473,0.73535l0,0
				c0.03809,0.1582-0.00195,0.33789-0.11719,0.48438C-229.36816,407.39746-229.53027,407.47754-229.69531,407.47754z
				 M-229.60059,406.67871c-0.08398,0-0.18457,0.12305-0.22559,0.2793c-0.02832,0.10547-0.02441,0.22949,0.03613,0.25195
				c0.14258,0.05566,0.26953-0.02344,0.34082-0.1123c0.07227-0.09277,0.1123-0.23438,0.03906-0.34277l-0.15332-0.22656
				l-0.02441,0.15137C-229.5918,406.67969-229.59668,406.67871-229.60059,406.67871z M-225.59961,407.15723
				c-0.01367,0-0.02734-0.00195-0.04102-0.00684c-0.06543-0.02246-0.09961-0.09375-0.07715-0.15918l0.02051-0.05957
				c0.02246-0.06543,0.09375-0.10059,0.15918-0.07715c0.06543,0.02246,0.09961,0.09375,0.07715,0.15918l-0.02051,0.05957
				C-225.49902,407.125-225.54785,407.15723-225.59961,407.15723z M-235.56592,407.02344
				c-0.07666,0-0.15479-0.01563-0.23242-0.05078c-0.33252-0.15137-0.4458-0.58008-0.27002-1.01953
				c0.02588-0.06445,0.09814-0.09375,0.1626-0.06934c0.06445,0.02637,0.09521,0.09863,0.06982,0.16309
				c-0.12305,0.30566-0.0625,0.60547,0.14063,0.69727c0.25195,0.11719,0.49854-0.13477,0.59229-0.31934
				c0.03076-0.06152,0.10693-0.08691,0.16797-0.05469c0.06152,0.03125,0.08594,0.10645,0.05469,0.16797
				C-235.01416,406.80176-235.27881,407.02344-235.56592,407.02344z M-237.24072,406.89258
				c-0.03271,0-0.06543-0.0127-0.09033-0.03809c-0.04785-0.0498-0.0459-0.12891,0.00391-0.17676l0.02539-0.02441
				c0.02832-0.02734,0.06543-0.04199,0.104-0.03418c-0.21924-0.14941-0.36328-0.51172-0.24609-1.00586
				c0.08936-0.37695,0.22217-0.97363,0.35205-1.55859l0.08643-0.38965c0.01514-0.06641,0.08105-0.1084,0.14941-0.09473
				c0.06738,0.01465,0.10986,0.08203,0.09473,0.14941l-0.08691,0.38965c-0.12988,0.58594-0.2627,1.18359-0.35254,1.5625
				c-0.10791,0.45605,0.05566,0.72754,0.2002,0.76855c0.13281,0.03809,0.27539-0.1123,0.3623-0.38086
				c0.021-0.06543,0.09131-0.10156,0.15723-0.08105c0.06592,0.02148,0.10205,0.0918,0.08105,0.15723
				c-0.15918,0.49512-0.45898,0.6084-0.66748,0.54492c-0.01758-0.00488-0.03516-0.01074-0.05273-0.01855
				c0.04248,0.0498,0.03906,0.125-0.00879,0.1709l-0.02539,0.02441C-237.17822,406.88086-237.20947,406.89258-237.24072,406.89258z
				 M-228.67578,406.87305c-0.01855,0-0.03809-0.00391-0.05566-0.0127c-0.06152-0.03125-0.08691-0.10645-0.05664-0.16797
				c0.23926-0.48145,0.2373-1.37207-0.00781-2.64844c-0.0127-0.06738,0.03125-0.13281,0.09961-0.14648
				c0.06543-0.00879,0.13379,0.03223,0.14648,0.09961c0.25488,1.33105,0.25,2.27539-0.01367,2.80664
				C-228.58594,406.84766-228.62988,406.87305-228.67578,406.87305z M-227.73047,406.28809
				c-0.21094,0-0.48145-0.09766-0.57422-0.56445c-0.0127-0.06738,0.03125-0.13379,0.09863-0.14746
				c0.06543-0.01074,0.13281,0.03125,0.14746,0.09863c0.07129,0.36621,0.25781,0.38379,0.41113,0.35645
				c0.06934-0.01172,0.14551-0.08887,0.19434-0.19629c0.04688-0.10156,0.17188-0.47168-0.14844-0.99414
				c-0.03613-0.05859-0.01758-0.13574,0.04102-0.17188c0.05859-0.03516,0.13672-0.0166,0.17188,0.04102
				c0.25977,0.42383,0.32129,0.88281,0.16309,1.22852c-0.08496,0.1875-0.22656,0.31348-0.37988,0.33887
				C-227.64258,406.28418-227.68555,406.28809-227.73047,406.28809z M-238.8252,405.8916
				c-0.04004,0-0.08057-0.00879-0.12061-0.02637c-0.17676-0.07813-0.28516-0.31348-0.25732-0.55957
				c0.00732-0.06934,0.05762-0.12891,0.13818-0.11035c0.06836,0.00781,0.11768,0.06934,0.10986,0.1377
				c-0.01855,0.16602,0.05518,0.2793,0.11035,0.30371c0.01318,0.00391,0.02979,0.0127,0.05762-0.01953
				c0.1001-0.1123-0.0498-0.36621-0.2417-0.54785c-0.0332-0.03125-0.05811-0.06641-0.07617-0.10352
				c-0.21191-0.24414-0.1416-0.56543-0.07861-0.85254c0.021-0.09766,0.04346-0.19727,0.05615-0.29883
				c0.0083-0.06934,0.06006-0.125,0.13965-0.1084c0.06836,0.00879,0.11719,0.07129,0.1084,0.13965
				c-0.01367,0.10938-0.03711,0.2168-0.06006,0.32129c-0.02002,0.09082-0.03711,0.17188-0.04736,0.24512
				c0.13721-0.16504,0.31982-0.22656,0.46729-0.1543c0.1123,0.05469,0.17773,0.1709,0.1792,0.32031
				c0.00195,0.18457-0.09766,0.43066-0.28613,0.52734c-0.01025,0.00488-0.02002,0.00977-0.03027,0.01367
				c0.01514,0.02148,0.02979,0.04395,0.04297,0.06641c0.0415-0.02734,0.09424-0.02734,0.13867,0
				c0.2168,0.14453,0.36182,0.19043,0.4585,0.14648c0.25977-0.12109,0.38916-0.98438,0.48145-1.81152
				c0.00732-0.06934,0.06689-0.125,0.1377-0.11035c0.06885,0.00781,0.11816,0.06934,0.11035,0.1377
				c-0.15088,1.35645-0.30859,1.86328-0.62402,2.01074c-0.19727,0.08984-0.41406,0.00977-0.59717-0.09863
				c0.0166,0.11621-0.00684,0.22754-0.09131,0.32324C-238.66309,405.85449-238.74268,405.8916-238.8252,405.8916z
				 M-238.88623,404.83301c0.01172,0.01074,0.02441,0.02148,0.03809,0.03125c0.05127,0.03809,0.0835,0.03027,0.10791,0.01855
				c0.07959-0.04102,0.15137-0.18457,0.1499-0.30176c0-0.02441-0.00439-0.08203-0.03857-0.09863
				c-0.04297-0.01855-0.12939,0.03418-0.19092,0.12207C-238.86816,404.6748-238.90039,404.7666-238.88623,404.83301z
				 M-226.93652,405.56445c-0.03809,0-0.0752-0.01758-0.09961-0.0498c-0.04199-0.05566-0.03027-0.13379,0.02441-0.1748
				c0.09766-0.07324,0.20508-0.20117,0.29785-0.34668c-0.05762-0.00098-0.11523-0.01465-0.16602-0.04199
				c-0.06738-0.03809-0.11719-0.10547-0.14258-0.19531c-0.03809-0.13379-0.01758-0.29785,0.05078-0.41797
				c0.08984-0.16113,0.32227-0.35352,0.53516-0.25488c0.01172,0.00586,0.02344,0.0127,0.03418,0.01953
				c0.00488-0.01563,0.01074-0.03125,0.01758-0.04785c0.07617-0.19824,0.20508-0.53027,0.57227-0.6748
				c0.01855-0.00684,0.03711-0.00879,0.05469-0.00879c0.00977-0.05762,0.0127-0.15918-0.00684-0.34082
				c-0.04883-0.44043-0.17773-1.08398-0.52148-1.64844c-0.03613-0.05957-0.01758-0.13672,0.04102-0.17188
				c0.05957-0.03516,0.13574-0.01758,0.17188,0.04102c0.36816,0.60449,0.50586,1.28613,0.55664,1.75195
				c0.05371,0.47754-0.02832,0.61133-0.17773,0.6709c-0.04297,0.02344-0.0957,0.02051-0.13477-0.00586
				c-0.07227,0.04688-0.12891,0.10645-0.1748,0.1748c0.06445-0.01172,0.14941,0.01465,0.2207,0.05957
				c0.07227,0.0459,0.12109,0.11719,0.14063,0.20605c0.02734,0.12402-0.00684,0.28027-0.08984,0.40723
				c-0.11035,0.16797-0.36426,0.29102-0.54004,0.19629c-0.00684-0.00293-0.01367-0.00684-0.01953-0.01074
				c-0.09668,0.27637-0.32129,0.65137-0.56934,0.83789C-226.88379,405.55664-226.91016,405.56445-226.93652,405.56445z
				 M-226.55859,404.30664c-0.04883,0-0.14844,0.07031-0.19531,0.1543c-0.06152,0.10742-0.03516,0.25-0.00586,0.27051
				c0.02734,0.01465,0.06543,0.01465,0.10156,0.00098c0.03223-0.01465,0.0752-0.04785,0.09473-0.12598
				c0.01758-0.06934,0.03711-0.13477,0.05664-0.19531c-0.00488-0.05273-0.01855-0.09277-0.03711-0.10156
				C-226.54785,404.30762-226.55273,404.30664-226.55859,404.30664z M-226.20605,404.33008
				c-0.01953,0.12402,0.0293,0.14941,0.05078,0.16113c0.03906,0.01855,0.16016-0.0293,0.21387-0.1123
				c0.04492-0.06934,0.06738-0.1582,0.05469-0.2168c-0.00586-0.03027-0.01953-0.04199-0.03027-0.04883
				c-0.05371-0.03418-0.0918-0.01758-0.10352-0.01367C-226.05566,404.11328-226.12793,404.16211-226.20605,404.33008z
				 M-225.26172,403.59082c-0.01953,0-0.03906-0.00488-0.05762-0.01367c-0.06152-0.03223-0.08496-0.10742-0.05371-0.16895
				c0.0791-0.15137,0.14355-0.49609,0.05566-0.72461l0.23145-0.09473c0.04688,0.10938,0.18262,0.22754,0.28027,0.24316
				c0.03418,0.00391,0.04102-0.00488,0.04492-0.00977c0.04785-0.05469,0.06445-0.21973-0.12891-0.69336
				c-0.12598-0.30371-0.42578-0.94141-0.7373-1.45313c-0.03613-0.05957-0.01758-0.13672,0.04102-0.17188
				c0.05957-0.03613,0.13574-0.01758,0.17188,0.04102c0.32031,0.52539,0.62695,1.17773,0.75488,1.48828
				c0.15332,0.37207,0.26855,0.74512,0.08594,0.9541c-0.06641,0.0752-0.16504,0.10645-0.27148,0.09082
				c-0.05957-0.00879-0.12207-0.0332-0.18164-0.06934c-0.00879,0.20508-0.06445,0.39844-0.12402,0.51465
				C-225.17285,403.56641-225.2168,403.59082-225.26172,403.59082z M-239.12744,403.56543c-0.0376,0-0.07422-0.0166-0.09912-0.04883
				c-0.04199-0.05469-0.03174-0.13281,0.02295-0.1748c0.18408-0.14258,0.26807-0.4209,0.19971-0.66211
				c-0.0293-0.10547-0.11377-0.28418-0.34863-0.30957c-0.24805-0.01172-0.36914,0.16309-0.41895,0.2793
				c-0.08447,0.19629-0.06006,0.39551-0.00684,0.44043l-0.15088,0.19922c-0.90625-0.61523-0.77637-1.58691-0.65137-2.52539
				c0.02393-0.17773,0.04785-0.35742,0.06543-0.53711c0.00684-0.06836,0.06641-0.12988,0.13672-0.11133
				c0.06885,0.00684,0.11914,0.06738,0.1123,0.13672c-0.01807,0.18164-0.04248,0.36426-0.06641,0.54395
				c-0.10791,0.80664-0.20264,1.51953,0.25928,2.04004c0.00928-0.09863,0.03467-0.19824,0.07178-0.28516
				c0.12891-0.30078,0.38086-0.46289,0.67529-0.42871c0.27441,0.02832,0.48486,0.21191,0.56299,0.48926
				c0.09668,0.3418-0.02197,0.72363-0.28809,0.92773C-239.07373,403.55664-239.10059,403.56543-239.12744,403.56543z
				 M-225.95898,402.94434c-0.16113,0-0.2998-0.10547-0.35547-0.27441c-0.01855-0.05566-0.02539-0.1123-0.02148-0.16504
				c-0.17188-0.02441-0.31055-0.1377-0.37012-0.27734c-0.04883-0.11621-0.04199-0.28027,0.0166-0.41797
				c0.05273-0.125,0.14453-0.21875,0.25781-0.26367c0.06055-0.02539,0.13574,0.00586,0.16211,0.07031
				c0.02539,0.06445-0.00586,0.13672-0.07031,0.16211s-0.10059,0.08398-0.12012,0.12891
				c-0.03613,0.08496-0.03516,0.17676-0.01563,0.22363c0.03418,0.08203,0.15723,0.17188,0.31152,0.1084l0.10449,0.22754
				c-0.02734,0.01465-0.03516,0.07031-0.01758,0.125c0.00977,0.02734,0.04395,0.11523,0.13672,0.10059
				c0.06445-0.01172,0.13184,0.03809,0.1416,0.10645s-0.03809,0.13184-0.10645,0.1416
				C-225.92285,402.94238-225.94141,402.94434-225.95898,402.94434z M-224.4082,402.19043h-0.00098
				c-0.06934-0.00098-0.125-0.05664-0.12402-0.12598c0.00488-0.64648-0.49121-1.50098-0.72949-1.91211
				c-0.03418-0.05957-0.01367-0.13574,0.0459-0.1709c0.05859-0.03223,0.13477-0.01465,0.1709,0.0459
				c0.24902,0.42969,0.76758,1.3252,0.7627,2.03906C-224.28418,402.13477-224.33984,402.19043-224.4082,402.19043z"/>
		</g>
	</g>
</g>
</svg>
