<?xml version="1.0" encoding="utf-8"?>
<!-- Generator: Adobe Illustrator 19.0.0, SVG Export Plug-In . SVG Version: 6.00 Build 0)  -->
<svg version="1.1" id="Layer_1" xmlns="http://www.w3.org/2000/svg" xmlns:xlink="http://www.w3.org/1999/xlink" x="0px" y="0px"
	 viewBox="-269 374 72 46" style="enable-background:new -269 374 72 46;" xml:space="preserve">
<style type="text/css">
	.st0{clip-path:url(#SVGID_2_);}
	.st1{fill:#DC2F34;}
	.st2{fill:#00793E;}
	.st3{fill:#FFE000;}
</style>
<g>
	<defs>
		<path id="SVGID_1_" d="M-203.95834,420h-58.08331c-3.84299,0-6.95834-3.11536-6.95834-6.95831v-32.08334
			c0-3.84299,3.11536-6.95834,6.95834-6.95834h58.08331c3.84299,0,6.95834,3.11536,6.95834,6.95834v32.08334
			C-197,416.88464-200.11536,420-203.95834,420z"/>
	</defs>
	<clipPath id="SVGID_2_">
		<use xlink:href="#SVGID_1_"  style="overflow:visible;"/>
	</clipPath>
	<g class="st0">
		<g>
			<polygon class="st1" points="-196.39584,389.13409 -269,389.13409 -269,373 -196.39584,373 			"/>
		</g>
		<g>
			<path d="M-196.27051,389.25928H-269.125V372.875h72.85449V389.25928z M-268.875,389.00928h72.35449V373.125H-268.875V389.00928z"
				/>
		</g>
		<g>
			<polygon class="st2" points="-269,421.4028 -196.39584,421.4028 -196.39584,405.26819 -269,405.26819 			"/>
		</g>
		<g>
			<path d="M-196.27051,421.52734H-269.125v-16.38379h72.85449V421.52734z M-268.875,421.27734h72.35449v-15.88379H-268.875
				V421.27734z"/>
		</g>
		<g>
			<polygon class="st3" points="-269,405.26819 -196.39584,405.26819 -196.39584,389.13409 -269,389.13409 			"/>
		</g>
		<g>
			<path d="M-196.27051,405.39355H-269.125v-16.38428h72.85449V405.39355z M-268.875,405.14355h72.35449v-15.88428H-268.875
				V405.14355z"/>
		</g>
	</g>
</g>
</svg>
