<?xml version="1.0" encoding="utf-8"?>
<!-- Generator: Adobe Illustrator 19.0.0, SVG Export Plug-In . SVG Version: 6.00 Build 0)  -->
<svg version="1.1" id="Layer_1" xmlns="http://www.w3.org/2000/svg" xmlns:xlink="http://www.w3.org/1999/xlink" x="0px" y="0px"
	 viewBox="-269 374 72 46" style="enable-background:new -269 374 72 46;" xml:space="preserve">
<style type="text/css">
	.st0{clip-path:url(#SVGID_2_);}
	.st1{fill:#FFFFFF;}
	.st2{fill:#312782;}
	.st3{fill:#FFEC00;}
	.st4{fill:none;}
	.st5{fill:#1D1D1B;}
	.st6{fill:#E20613;}
</style>
<g>
	<defs>
		<path id="SVGID_1_" d="M-203.95834,420h-58.08331c-3.84299,0-6.95834-3.11536-6.95834-6.95831v-32.08334
			c0-3.84299,3.11536-6.95834,6.95834-6.95834h58.08331c3.84299,0,6.95834,3.11536,6.95834,6.95834v32.08334
			C-197,416.88464-200.11536,420-203.95834,420z"/>
	</defs>
	<clipPath id="SVGID_2_">
		<use xlink:href="#SVGID_1_"  style="overflow:visible;"/>
	</clipPath>
	<g class="st0">
		<g>
			<polygon class="st1" points="-272.92032,373.375 -193.07968,373.375 -193.07968,421.03741 -272.92032,421.03741 			"/>
		</g>
		<g>
			<polygon class="st2" points="-193.07968,373.40109 -272.89456,421.05032 -193.09259,421.05032 			"/>
		</g>
		<g>
			<polygon class="st3" points="-246.1694,373.388 -272.92032,389.73611 -272.92032,373.388 			"/>
		</g>
		<g>
			<polygon class="st4" points="-272.92032,373.375 -193.07968,373.375 -193.07968,421.03741 -272.92032,421.03741 			"/>
		</g>
		<g>
			<polygon class="st2" points="-259.79599,391.1701 -250.60001,389.73611 -249.55675,380.80597 -248.65517,389.61877 
				-239.31741,391.1701 -248.52634,392.04361 -249.55675,401.53427 -250.47118,391.80899 			"/>
			<path class="st5" d="M-249.55664,401.82227c-0.00049,0-0.00146,0-0.00195,0c-0.14795-0.00098-0.271-0.11426-0.28467-0.26074
				l-0.8916-9.48193l-9.08057-0.62256c-0.14648-0.00977-0.26172-0.12842-0.26807-0.2749s0.09814-0.27441,0.24316-0.29688
				l8.97949-1.3999l1.01807-8.7124c0.01709-0.14551,0.14014-0.25488,0.28613-0.25488c0.00049,0,0.00146,0,0.00195,0
				c0.14697,0.00098,0.26953,0.11279,0.28467,0.25879l0.87891,8.59375l9.12109,1.51514
				c0.14258,0.02393,0.24561,0.1499,0.24023,0.29443c-0.00488,0.14453-0.11621,0.2627-0.26025,0.27637l-8.97559,0.85156
				l-1.00488,9.25732C-249.28613,401.71191-249.40967,401.82227-249.55664,401.82227z M-257.21094,391.05859l6.75928,0.46338
				c0.14111,0.00928,0.25391,0.11963,0.26709,0.26025l0.64844,6.89453l0.72363-6.66455
				c0.01465-0.13574,0.12305-0.24268,0.25879-0.25537l7.00928-0.66504l-7.1582-1.18896
				c-0.12793-0.02148-0.22607-0.12549-0.23926-0.25488l-0.63379-6.19727l-0.73828,6.31885
				c-0.01514,0.12891-0.11377,0.23145-0.2417,0.25146L-257.21094,391.05859z"/>
		</g>
		<g>
			<path class="st1" d="M-249.54382,382.86575c4.50781,0,8.20427,3.74155,8.20427,8.31744s-3.69646,8.31744-8.20427,8.31744
				c-4.5079,0-8.20435-3.74155-8.20435-8.31744S-254.05171,382.86575-249.54382,382.86575L-249.54382,382.86575z"/>
			<path class="st2" d="M-249.54395,403.49707c-6.72705,0-12.2002-5.52393-12.2002-12.31396
				c0-6.78955,5.47314-12.31348,12.2002-12.31348c6.72754,0,12.20068,5.52393,12.20068,12.31348
				C-237.34326,397.97314-242.81641,403.49707-249.54395,403.49707z M-249.54395,386.86182
				c-2.32031,0-4.20801,1.93848-4.20801,4.32129c0,2.3833,1.8877,4.32178,4.20801,4.32178c2.3208,0,4.2085-1.93848,4.2085-4.32178
				C-245.33545,388.80029-247.22314,386.86182-249.54395,386.86182z"/>
		</g>
		<g>
			<polygon class="st6" points="-243.94122,394.53363 -249.59537,384.84732 -255.13358,394.55972 			"/>
		</g>
		<g>
			<polygon class="st6" points="-255.13358,387.84576 -249.49237,397.51901 -243.99277,387.85886 			"/>
		</g>
	</g>
</g>
</svg>
