<?xml version="1.0" encoding="utf-8"?>
<!-- Generator: Adobe Illustrator 19.0.0, SVG Export Plug-In . SVG Version: 6.00 Build 0)  -->
<svg version="1.1" id="Layer_1" xmlns="http://www.w3.org/2000/svg" xmlns:xlink="http://www.w3.org/1999/xlink" x="0px" y="0px"
	 viewBox="-269 374 72 46" style="enable-background:new -269 374 72 46;" xml:space="preserve">
<style type="text/css">
	.st0{clip-path:url(#SVGID_2_);}
	.st1{fill:#009640;}
	.st2{fill:#FFCC00;}
	.st3{fill:#312783;}
	.st4{fill:#FFFFFF;}
</style>
<g>
	<defs>
		<path id="SVGID_1_" d="M-203.95834,420h-58.08331c-3.84299,0-6.95834-3.11536-6.95834-6.95831v-32.08334
			c0-3.84299,3.11536-6.95834,6.95834-6.95834h58.08331c3.84299,0,6.95834,3.11536,6.95834,6.95834v32.08334
			C-197,416.88464-200.11536,420-203.95834,420z"/>
	</defs>
	<clipPath id="SVGID_2_">
		<use xlink:href="#SVGID_1_"  style="overflow:visible;"/>
	</clipPath>
	<g class="st0">
		<polygon class="st1" points="-196.81467,370.79959 -196.81467,421.28387 -268.93503,421.28387 -268.93503,370.79959 		"/>
		<polygon class="st2" points="-232.87494,376.92984 -262.80505,396.04172 -232.87494,415.15359 -202.94496,396.04172 
			-232.87494,376.92984 		"/>
		<path class="st3" d="M-232.90129,383.44702c6.95592,0,12.59483,5.63879,12.59483,12.5947
			c0,6.95593-5.63892,12.59497-12.59483,12.59497c-6.95593,0-12.59483-5.63907-12.59483-12.59497
			C-245.49614,389.08582-239.85722,383.44702-232.90129,383.44702L-232.90129,383.44702z"/>
		<polygon class="st4" points="-229.01689,390.95996 -228.83603,391.41486 -228.34778,391.44608 -228.72461,391.75861 
			-228.60333,392.23257 -229.01689,391.97095 -229.43033,392.23257 -229.30908,391.75861 -229.6859,391.44608 -229.19737,391.41486 
			-229.01689,390.95996 		"/>
		<polygon class="st4" points="-229.91685,394.78812 -229.78699,395.1153 -229.4357,395.13773 -229.70663,395.36249 
			-229.61943,395.7034 -229.91685,395.51526 -230.21439,395.7034 -230.12717,395.36249 -230.39807,395.13773 -230.04683,395.1153 
			-229.91685,394.78812 		"/>
		<polygon class="st4" points="-243.14029,393.29776 -242.95953,393.75266 -242.47118,393.78387 -242.84785,394.09622 
			-242.72672,394.57034 -243.14029,394.30872 -243.55373,394.57034 -243.43246,394.09622 -243.80931,393.78387 
			-243.32076,393.75266 -243.14029,393.29776 		"/>
		<polygon class="st4" points="-237.79962,395.98373 -237.64699,396.36752 -237.23489,396.39392 -237.55278,396.65744 
			-237.45049,397.05756 -237.79962,396.83685 -238.14845,397.05756 -238.04617,396.65744 -238.36404,396.39392 
			-237.95197,396.36752 -237.79962,395.98373 		"/>
		<polygon class="st4" points="-240.94637,398.0303 -240.84906,398.27496 -240.58636,398.29163 -240.78903,398.45975 
			-240.72375,398.71478 -240.94637,398.57413 -241.1687,398.71478 -241.10358,398.45975 -241.30624,398.29163 -241.04353,398.27496 
			-240.94637,398.0303 		"/>
		<polygon class="st4" points="-242.10269,398.53781 -241.92194,398.99268 -241.43353,399.0239 -241.81036,399.33636 
			-241.68912,399.81039 -242.10269,399.54874 -242.51611,399.81039 -242.39499,399.33636 -242.77168,399.0239 -242.28328,398.99268 
			-242.10269,398.53781 		"/>
		<polygon class="st4" points="-243.42455,399.73529 -243.27203,400.11911 -242.85982,400.14551 -243.17769,400.40912 
			-243.07555,400.80927 -243.42455,400.58838 -243.77338,400.80927 -243.67108,400.40912 -243.98895,400.14551 
			-243.57687,400.11911 -243.42455,399.73529 		"/>
		<polygon class="st4" points="-239.55078,399.83365 -239.39828,400.21747 -238.98605,400.24387 -239.30406,400.50754 
			-239.20181,400.90747 -239.55078,400.68665 -239.89973,400.90747 -239.79732,400.50754 -240.11533,400.24387 
			-239.70311,400.21747 -239.55078,399.83365 		"/>
		<polygon class="st4" points="-240.00726,401.24878 -239.87726,401.57593 -239.52586,401.59842 -239.79691,401.82315 
			-239.70982,402.16406 -240.00726,401.97592 -240.30469,402.16406 -240.21748,401.82315 -240.48853,401.59842 
			-240.13713,401.57593 -240.00726,401.24878 		"/>
		<polygon class="st4" points="-238.16797,402.34546 -237.9872,402.8002 -237.49883,402.83157 -237.87564,403.14395 
			-237.75439,403.61792 -238.16797,403.35632 -238.58153,403.61792 -238.46025,403.14395 -238.83694,402.83157 -238.34857,402.8002 
			-238.16797,402.34546 		"/>
		<polygon class="st4" points="-232.81204,405.80756 -232.74261,405.98221 -232.55501,405.99408 -232.69981,406.11411 
			-232.65312,406.2962 -232.81204,406.1958 -232.97087,406.2962 -232.92432,406.11411 -233.06898,405.99408 -232.8815,405.98221 
			-232.81204,405.80756 		"/>
		<polygon class="st4" points="-232.77988,397.67902 -232.62741,398.06284 -232.21506,398.08923 -232.53307,398.35275 
			-232.43079,398.75272 -232.77988,398.53201 -233.12875,398.75272 -233.02646,398.35275 -233.34447,398.08923 
			-232.93225,398.06284 -232.77988,397.67902 		"/>
		<polygon class="st4" points="-231.62535,398.75876 -231.47285,399.14261 -231.06064,399.16898 -231.37866,399.43274 
			-231.27625,399.83273 -231.62535,399.612 -231.97417,399.83273 -231.87189,399.43274 -232.1899,399.16898 -231.77768,399.14261 
			-231.62535,398.75876 		"/>
		<polygon class="st4" points="-233.60742,399.78656 -233.51028,400.03122 -233.24744,400.04803 -233.45026,400.21613 
			-233.38498,400.47116 -233.60742,400.33041 -233.82988,400.47116 -233.76476,400.21613 -233.96732,400.04803 
			-233.70461,400.03122 -233.60742,399.78656 		"/>
		<polygon class="st4" points="-234.52811,398.99078 -234.39822,399.31781 -234.04684,399.34045 -234.31787,399.56503 
			-234.23067,399.90591 -234.52811,399.71793 -234.8255,399.90591 -234.7383,399.56503 -235.00935,399.34045 -234.65796,399.31781 
			-234.52811,398.99078 		"/>
		<polygon class="st4" points="-232.85324,401.25198 -232.67265,401.70688 -232.18411,401.7381 -232.56091,402.05048 
			-232.4397,402.5246 -232.85324,402.26282 -233.26668,402.5246 -233.14555,402.05048 -233.52225,401.7381 -233.03384,401.70688 
			-232.85324,401.25198 		"/>
		<polygon class="st4" points="-230.25101,402.73105 -230.121,403.05807 -229.76962,403.08069 -230.04079,403.30542 
			-229.95358,403.64633 -230.25101,403.45816 -230.54829,403.64633 -230.46123,403.30542 -230.73224,403.08069 
			-230.38086,403.05807 -230.25101,402.73105 		"/>
		<polygon class="st4" points="-229.21634,404.20187 -229.06387,404.58557 -228.65179,404.61194 -228.96965,404.87558 
			-228.86737,405.27554 -229.21634,405.05484 -229.56519,405.27554 -229.46304,404.87558 -229.78091,404.61194 
			-229.36871,404.58557 -229.21634,404.20187 		"/>
		<polygon class="st4" points="-228.06422,403.04865 -227.9342,403.37582 -227.58281,403.39813 -227.85385,403.62305 
			-227.76666,403.96393 -228.06422,403.77567 -228.3615,403.96393 -228.27429,403.62305 -228.54533,403.39813 -228.19408,403.37582 
			-228.06422,403.04865 		"/>
		<polygon class="st4" points="-226.55919,405.30664 -226.42931,405.63394 -226.07793,405.65628 -226.34897,405.88101 
			-226.26176,406.22208 -226.55919,406.03391 -226.85661,406.22208 -226.76941,405.88101 -227.04045,405.65628 
			-226.68921,405.63394 -226.55919,405.30664 		"/>
		<polygon class="st4" points="-226.54453,403.89554 -226.39206,404.27939 -225.97997,404.30576 -226.29799,404.56927 
			-226.19556,404.96939 -226.54453,404.74866 -226.89349,404.96939 -226.79121,404.56927 -227.10921,404.30576 
			-226.69687,404.27939 -226.54453,403.89554 		"/>
		<polygon class="st4" points="-226.57898,402.75595 -226.44897,403.08313 -226.09758,403.10544 -226.36862,403.33035 
			-226.28143,403.67123 -226.57898,403.48309 -226.8764,403.67123 -226.78918,403.33035 -227.0601,403.10544 -226.70883,403.08313 
			-226.57898,402.75595 		"/>
		<polygon class="st4" points="-225.33237,402.76831 -225.2025,403.09549 -224.8511,403.11795 -225.12216,403.34259 
			-225.03494,403.68359 -225.33237,403.49545 -225.62979,403.68359 -225.54254,403.34259 -225.8136,403.11795 -225.46234,403.09549 
			-225.33237,402.76831 		"/>
		<polygon class="st4" points="-224.15356,402.14792 -224.00111,402.53171 -223.5889,402.55811 -223.90689,402.82175 
			-223.80461,403.22171 -224.15356,403.00101 -224.50253,403.22171 -224.40025,402.82175 -224.71812,402.55811 
			-224.30605,402.53171 -224.15356,402.14792 		"/>
		<polygon class="st4" points="-223.55685,401.14664 -223.40436,401.53033 -222.99214,401.5567 -223.31004,401.82047 
			-223.20776,402.22043 -223.55685,401.99957 -223.90569,402.22043 -223.80339,401.82047 -224.12141,401.5567 -223.7092,401.53033 
			-223.55685,401.14664 		"/>
		<polygon class="st4" points="-224.05652,399.79611 -223.87579,400.25085 -223.38741,400.2821 -223.7641,400.59457 
			-223.64285,401.06845 -224.05652,400.80695 -224.46996,401.06845 -224.34872,400.59457 -224.7254,400.2821 -224.237,400.25085 
			-224.05652,399.79611 		"/>
		<polygon class="st4" points="-222.20901,400.10312 -222.07915,400.43027 -221.72789,400.45273 -221.99879,400.67734 
			-221.91159,401.01837 -222.20901,400.83026 -222.50658,401.01837 -222.41936,400.67734 -222.69028,400.45273 
			-222.33902,400.43027 -222.20901,400.10312 		"/>
		<path class="st4" d="M-240.42068,392.15115c7.49141,0,14.35957,2.75513,19.64374,7.30353
			c0.17484-0.61288,0.30373-1.24472,0.38382-1.89139c-5.47879-4.44357-12.45123-7.11218-20.02757-7.11218
			c-1.31377,0-2.60872,0.08212-3.88158,0.23779c-0.27211,0.58047-0.50156,1.1842-0.68367,1.80811
			C-243.49652,392.26932-241.97198,392.15115-240.42068,392.15115L-240.42068,392.15115L-240.42068,392.15115z"/>
		<path class="st1" d="M-243.66151,391.4967c0.01064,0.12326,0.0464,0.21664,0.10698,0.2803
			c0.06056,0.06342,0.14011,0.09085,0.23848,0.08252c0.09944-0.00864,0.17389-0.04926,0.22328-0.12234
			c0.04938-0.07294,0.06876-0.1712,0.05812-0.29446c-0.01062-0.12299-0.0463-0.2164-0.1075-0.27991
			c-0.06125-0.06354-0.14146-0.09073-0.2408-0.0824c-0.09836,0.00848-0.1721,0.04916-0.22096,0.12183
			C-243.65279,391.27502-243.67215,391.37302-243.66151,391.4967L-243.66151,391.4967L-243.66151,391.4967z M-243.89636,391.51685
			c-0.01561-0.18085,0.02141-0.32864,0.1109-0.4433s0.21788-0.17938,0.38515-0.19363
			c0.16731-0.0144,0.30498,0.02731,0.41328,0.12531c0.10822,0.09781,0.17012,0.23709,0.18561,0.41745
			c0.01559,0.18073-0.02153,0.32849-0.11171,0.44342c-0.0899,0.11496-0.21843,0.17957-0.3857,0.19394
			c-0.1674,0.0144-0.30482-0.02731-0.41263-0.12531C-243.81911,391.83676-243.88087,391.69748-243.89636,391.51685
			L-243.89636,391.51685L-243.89636,391.51685z M-242.06712,391.30759l0.27184-0.00916
			c0.05879-0.00186,0.10173-0.01532,0.12865-0.04025c0.0269-0.02487,0.03941-0.06284,0.03767-0.11438
			c-0.00177-0.04871-0.01643-0.08521-0.04401-0.10968c-0.02783-0.02423-0.06851-0.0354-0.12167-0.03363l-0.28249,0.00943
			L-242.06712,391.30759L-242.06712,391.30759L-242.06712,391.30759z M-242.27724,391.94739l-0.03755-1.12344l0.54494-0.01822
			c0.12233-0.00415,0.21423,0.01913,0.27464,0.06961c0.06097,0.05032,0.093,0.12946,0.09663,0.2374
			c0.00229,0.06836-0.01022,0.12625-0.03752,0.17294c-0.02705,0.04681-0.06743,0.07938-0.12073,0.09784
			c0.04953,0.01587,0.08505,0.04089,0.10699,0.0759c0.02179,0.03513,0.03539,0.09018,0.04103,0.16525l0.00902,0.13245
			c0,0.00092,0.00014,0.00256,0.00027,0.00458c0.00337,0.06689,0.01938,0.10724,0.04753,0.12042l0.00107,0.03433l-0.25356,0.00848
			c-0.00862-0.01547-0.01521-0.03461-0.02046-0.05762c-0.00482-0.02301-0.00874-0.05057-0.01048-0.08261l-0.00713-0.11816
			c-0.00499-0.06946-0.01952-0.116-0.04402-0.13943c-0.02451-0.0238-0.06755-0.03458-0.12907-0.03241l-0.24506,0.00818
			l0.01468,0.43686L-242.27724,391.94739L-242.27724,391.94739L-242.27724,391.94739z M-240.61839,391.69492l0.18544,0.00363
			c0.10728,0.00201,0.18575-0.02466,0.23473-0.07993c0.04924-0.05502,0.07497-0.14603,0.07739-0.27213
			c0.00229-0.12558-0.0183-0.21841-0.06206-0.27817c-0.04359-0.05991-0.1129-0.09073-0.20819-0.09247l-0.21358-0.00415
			L-240.61839,391.69492L-240.61839,391.69492L-240.61839,391.69492z M-240.84892,391.89371l0.02139-1.12387l0.44022,0.0083
			c0.17241,0.00327,0.30009,0.05225,0.38301,0.14685c0.08289,0.0946,0.12273,0.2366,0.11922,0.42596
			c-0.00214,0.10266-0.01938,0.19296-0.05205,0.27075c-0.03285,0.07779-0.07968,0.13998-0.13983,0.18668
			c-0.0455,0.0347-0.09677,0.0592-0.1541,0.07388c-0.05746,0.01413-0.1373,0.02045-0.2401,0.01855L-240.84892,391.89371
			L-240.84892,391.89371L-240.84892,391.89371z M-239.42265,391.9187l0.06056-1.1225l0.81529,0.04398l-0.01051,0.19516
			l-0.58743-0.03177l-0.01279,0.23929l0.53725,0.02893l-0.01051,0.19205l-0.53723-0.02893l-0.01546,0.28867l0.61488,0.03323
			l-0.01117,0.2074L-239.42265,391.9187L-239.42265,391.9187L-239.42265,391.9187z M-238.09959,391.99731l0.11925-1.11783
			l0.34009,0.03635l0.13159,0.87436l0.31007-0.82739l0.34145,0.03647l-0.11925,1.11771l-0.21547-0.02286l0.09612-0.90143
			l-0.32314,0.8772l-0.23511-0.02502l-0.13393-0.92609l-0.09622,0.90143L-238.09959,391.99731L-238.09959,391.99731
			L-238.09959,391.99731z M-235.12093,392.38086l0.23537-1.09924l0.79849,0.17105l-0.04108,0.19098l-0.5752-0.12314
			l-0.05005,0.23444l0.52592,0.11252l-0.04024,0.18799l-0.52606-0.11264l-0.06056,0.28278l0.60223,0.12906l-0.04347,0.20294
			L-235.12093,392.38086L-235.12093,392.38086L-235.12093,392.38086z M-232.14536,392.4502l0.21573,0.05814
			c0.0584,0.01575,0.10416,0.0148,0.13766-0.00284c0.03311-0.01776,0.0571-0.05396,0.07188-0.10901
			c0.01396-0.05154,0.01131-0.09406-0.00728-0.12769c-0.0191-0.03339-0.05424-0.05722-0.10577-0.07111l-0.22772-0.06134
			L-232.14536,392.4502L-232.14536,392.4502L-232.14536,392.4502z M-232.19998,392.64655l-0.10405,0.38596l-0.22325-0.06015
			l0.29259-1.08539l0.48259,0.13016c0.11385,0.03082,0.19217,0.08371,0.23512,0.15863
			c0.04265,0.07483,0.04869,0.16959,0.01775,0.28424c-0.03012,0.11212-0.08208,0.19058-0.15582,0.23569
			c-0.07376,0.0452-0.16434,0.05341-0.27065,0.02472L-232.19998,392.64655L-232.19998,392.64655L-232.19998,392.64655z
			 M-230.8484,392.82312l0.25999,0.0799c0.05612,0.01724,0.10121,0.01862,0.13486,0.00394
			c0.03337-0.0148,0.0576-0.04672,0.0728-0.09613c0.01427-0.04654,0.01227-0.08585-0.00603-0.11786
			c-0.01817-0.03201-0.05304-0.05585-0.10391-0.07147l-0.27026-0.08301L-230.8484,392.82312L-230.8484,392.82312
			L-230.8484,392.82312z M-231.25537,393.35968l0.33023-1.07452l0.52126,0.16031c0.11708,0.03592,0.19623,0.08789,0.23698,0.15518
			c0.04118,0.06757,0.0459,0.15286,0.01414,0.25595c-0.0202,0.06528-0.05074,0.11588-0.09178,0.1514
			c-0.04092,0.03528-0.08965,0.05304-0.14616,0.05304c0.04173,0.03119,0.06703,0.06647,0.07658,0.10672
			c0.00914,0.04025,0.00404,0.09662-0.01505,0.16956l-0.03445,0.12811c-0.00043,0.00098-0.00084,0.00241-0.00136,0.00446
			c-0.01845,0.06433-0.01656,0.10767,0.00566,0.12933l-0.00999,0.03281l-0.24263-0.07455
			c-0.00298-0.01761-0.00311-0.03781-0.00041-0.06107c0.0027-0.02344,0.00807-0.05075,0.01682-0.08157l0.03177-0.11411
			c0.01775-0.06717,0.01924-0.11588,0.00378-0.14618c-0.01537-0.0304-0.05266-0.05463-0.11143-0.07266l-0.23445-0.07199
			l-0.12842,0.41785L-231.25537,393.35968L-231.25537,393.35968L-231.25537,393.35968z M-229.54338,393.35577
			c-0.04253,0.1163-0.04953,0.216-0.02151,0.29929c0.028,0.08319,0.08855,0.1416,0.18126,0.17563
			c0.09369,0.03421,0.17833,0.02869,0.25397-0.01654c0.07576-0.04535,0.1347-0.12607,0.17709-0.24225
			c0.04254-0.116,0.04953-0.2157,0.02087-0.29904c-0.02856-0.08356-0.08963-0.14224-0.18346-0.17642
			c-0.09271-0.03394-0.17656-0.02829-0.25163,0.01697C-229.44191,393.15863-229.50087,393.23935-229.54338,393.35577
			L-229.54338,393.35577L-229.54338,393.35577z M-229.76491,393.27487c0.06247-0.1705,0.1584-0.28879,0.28799-0.35489
			c0.12947-0.06619,0.27309-0.0705,0.43094-0.01276c0.15759,0.05771,0.26472,0.15353,0.32137,0.28827
			c0.05681,0.13443,0.05411,0.28677-0.00807,0.45676c-0.0623,0.17035-0.1584,0.28854-0.28853,0.35461
			s-0.27402,0.0704-0.43147,0.01279c-0.15785-0.05759-0.26485-0.15369-0.32111-0.28784
			C-229.83017,393.59735-229.82709,393.44513-229.76491,393.27487L-229.76491,393.27487L-229.76491,393.27487z
			 M-227.68536,394.59485c-0.06056,0.03583-0.12047,0.05518-0.17966,0.05896c-0.05923,0.00323-0.12195-0.00903-0.188-0.03714
			c-0.14429-0.06165-0.2401-0.16165-0.28709-0.30026c-0.04681-0.13861-0.03525-0.28973,0.03435-0.45285
			c0.07024-0.16498,0.17119-0.27777,0.30267-0.33835s0.27158-0.0592,0.42043,0.00418
			c0.12959,0.05533,0.22217,0.13123,0.27763,0.22824c0.05531,0.09689,0.06767,0.20306,0.03687,0.31815l-0.21693-0.09232
			c0.0097-0.05933,0.00056-0.11169-0.028-0.15692c-0.02852-0.04535-0.07536-0.08209-0.14034-0.1098
			c-0.08655-0.03687-0.16811-0.03421-0.24443,0.00821c-0.07655,0.04254-0.13847,0.11948-0.18613,0.23132
			c-0.04805,0.1124-0.05972,0.2113-0.03554,0.29703c0.02451,0.08548,0.08157,0.14749,0.17148,0.18585
			c0.06741,0.02856,0.13216,0.03271,0.19461,0.01239c0.06219-0.02057,0.11359-0.06311,0.15382-0.12787l-0.2343-0.09985
			l0.07536-0.17682l0.42822,0.18262l-0.23846,0.55945l-0.14252-0.0607L-227.68536,394.59485L-227.68536,394.59485
			L-227.68536,394.59485z M-226.61652,394.5654l0.24426,0.11963c0.05289,0.02582,0.09717,0.03406,0.13257,0.02478
			c0.03539-0.00946,0.06435-0.03717,0.08693-0.08344c0.02138-0.04361,0.02556-0.08276,0.01265-0.11737
			c-0.01306-0.03442-0.04388-0.06351-0.09164-0.08682l-0.25381-0.12421L-226.61652,394.5654L-226.61652,394.5654
			L-226.61652,394.5654z M-227.10236,395.03156l0.49417-1.00946l0.48987,0.23981c0.1098,0.05383,0.18007,0.11737,0.20981,0.19043
			c0.03015,0.07294,0.02127,0.15799-0.02611,0.25488c-0.03014,0.0614-0.06825,0.1066-0.11427,0.13513
			s-0.09688,0.03848-0.15262,0.02975c0.03622,0.03711,0.05574,0.07602,0.05884,0.11722
			c0.00269,0.04117-0.01117,0.09607-0.04146,0.16513l-0.05396,0.12125c-0.00066,0.00079-0.00124,0.00214-0.00217,0.00406
			c-0.02824,0.0607-0.03322,0.10385-0.01453,0.12866l-0.01506,0.03079l-0.228-0.11157
			c-0.00026-0.01776,0.00298-0.03781,0.00902-0.06039c0.00662-0.02277,0.01605-0.04874,0.0295-0.07794l0.0491-0.10751
			c0.02826-0.06369,0.03741-0.11172,0.02679-0.14389c-0.0105-0.03253-0.04359-0.06216-0.09877-0.08936l-0.2202-0.10764
			l-0.19217,0.39255L-227.10236,395.03156L-227.10236,395.03156L-227.10236,395.03156z M-225.84605,395.67661l0.54652-0.98218
			l0.71355,0.39688l-0.09515,0.17081l-0.5141-0.28601l-0.11642,0.20944l0.47011,0.2616l-0.09352,0.16797l-0.47011-0.26154
			l-0.14066,0.25247l0.53835,0.29947l-0.10095,0.18155L-225.84605,395.67661L-225.84605,395.67661L-225.84605,395.67661z
			 M-224.57765,396.02518l0.19542,0.11789c-0.02451,0.05707-0.02625,0.10916-0.00607,0.1564
			c0.02036,0.04694,0.06422,0.09055,0.13177,0.13144c0.05762,0.03476,0.10712,0.05063,0.14856,0.04755
			c0.0416-0.00256,0.07431-0.02423,0.09856-0.06433c0.03525-0.05853-0.01952-0.1572-0.16423-0.29675
			c-0.002-0.00174-0.00374-0.00351-0.0051-0.00482c-0.00377-0.00354-0.00957-0.00919-0.01736-0.017
			c-0.07803-0.07385-0.12906-0.13416-0.15219-0.18179c-0.02113-0.04227-0.02934-0.08734-0.02505-0.13486
			c0.00447-0.04764,0.0217-0.09622,0.05197-0.14642c0.0564-0.09369,0.13164-0.1463,0.2254-0.15799
			c0.09355-0.01129,0.20053,0.01907,0.32071,0.09149c0.11252,0.06784,0.18437,0.14752,0.21574,0.23877
			c0.03122,0.09152,0.0195,0.18637-0.03529,0.28528l-0.19029-0.11465c0.02464-0.04874,0.02815-0.095,0.01065-0.13873
			c-0.01764-0.04373-0.05626-0.08383-0.11588-0.11966c-0.05182-0.03137-0.09798-0.04547-0.13823-0.04199
			c-0.04037,0.00323-0.0717,0.02371-0.09433,0.0611c-0.03082,0.05103,0.00093,0.12195,0.09503,0.21335
			c0.02542,0.02487,0.04535,0.04413,0.05948,0.05814c0.0592,0.06,0.1008,0.10416,0.12422,0.13159
			c0.02325,0.02789,0.04211,0.0545,0.05678,0.07996c0.02571,0.0455,0.03796,0.09192,0.0358,0.13956
			c-0.00201,0.04788-0.01802,0.09689-0.04846,0.14709c-0.06026,0.10001-0.1409,0.15747-0.24168,0.17172
			c-0.10081,0.0144-0.21251-0.0152-0.33537-0.08936c-0.12128-0.07294-0.19934-0.15842-0.23416-0.25598
			C-224.64613,396.23431-224.6351,396.13214-224.57765,396.02518L-224.57765,396.02518L-224.57765,396.02518z M-223.39291,396.76602
			l0.18893,0.12802c-0.02731,0.05569-0.03203,0.10751-0.01414,0.15582c0.01778,0.04791,0.05922,0.09396,0.12463,0.13809
			c0.05571,0.03766,0.10431,0.05609,0.14589,0.05545c0.04158-0.00055,0.07549-0.02032,0.10187-0.05923
			c0.03809-0.05652-0.01144-0.15799-0.14844-0.30493c-0.00188-0.00189-0.00363-0.00363-0.00484-0.00513
			c-0.00363-0.00375-0.00916-0.00955-0.01656-0.01788c-0.07416-0.07779-0.12166-0.14078-0.14253-0.18936
			c-0.01897-0.04333-0.02461-0.08884-0.01787-0.13608c0.00699-0.04724,0.02649-0.095,0.05946-0.14362
			c0.06139-0.09055,0.1393-0.13913,0.23338-0.14572c0.09406-0.00659,0.1993,0.02948,0.31546,0.10806
			c0.10886,0.07361,0.17654,0.1568,0.20293,0.24966c0.02637,0.09283,0.00998,0.18719-0.05006,0.28326l-0.18398-0.1246
			c0.02707-0.04752,0.0331-0.09354,0.01791-0.13809c-0.01547-0.04453-0.05182-0.08667-0.10941-0.12558
			c-0.05022-0.03391-0.09541-0.05045-0.13608-0.04922c-0.04025,0.00134-0.0728,0.01993-0.09729,0.05609
			c-0.03352,0.04953-0.00539,0.12195,0.08369,0.21814c0.02409,0.026,0.04309,0.04645,0.05624,0.06113
			c0.05627,0.06311,0.09543,0.10944,0.11725,0.13794c0.0218,0.02908,0.03943,0.05667,0.05247,0.08276
			c0.02342,0.04669,0.03311,0.09381,0.02853,0.14145c-0.00446,0.04749-0.02327,0.09555-0.05614,0.14413
			c-0.06541,0.09677-0.14883,0.14993-0.25032,0.15894c-0.10132,0.00903-0.21143-0.02637-0.3304-0.10684
			c-0.11693-0.07928-0.19055-0.16864-0.22014-0.26797C-223.47231,396.97113-223.45589,396.86981-223.39291,396.76602
			L-223.39291,396.76602L-223.39291,396.76602z M-221.96475,397.52426c-0.07458,0.09866-0.1105,0.19205-0.10809,0.27991
			c0.00272,0.08762,0.04333,0.16125,0.12209,0.22086c0.07954,0.06018,0.16217,0.07968,0.24776,0.05856
			c0.08548-0.02127,0.16553-0.0813,0.2401-0.18005c0.07454-0.09839,0.11035-0.1918,0.10741-0.27982
			c-0.00284-0.08817-0.0443-0.16229-0.12384-0.22247c-0.0787-0.05948-0.16068-0.07858-0.24559-0.05719
			C-221.81001,397.36533-221.89006,397.42532-221.96475,397.52426L-221.96475,397.52426L-221.96475,397.52426z
			 M-222.15276,397.38214c0.10942-0.14496,0.23576-0.23001,0.37898-0.25531c0.14333-0.02545,0.2818,0.01239,0.41599,0.11386
			c0.13362,0.1012,0.20819,0.22437,0.22298,0.36954c0.01509,0.14539-0.03203,0.29007-0.14131,0.4346
			c-0.10925,0.14453-0.2359,0.22958-0.3795,0.25476c-0.144,0.02515-0.28276-0.01282-0.41652-0.11401
			c-0.13406-0.10132-0.20834-0.22446-0.22287-0.36926C-222.30956,397.67148-222.26204,397.52655-222.15276,397.38214
			L-222.15276,397.38214L-222.15276,397.38214z"/>
	</g>
</g>
</svg>
