<?xml version="1.0" encoding="utf-8"?>
<!-- Generator: Adobe Illustrator 19.0.0, SVG Export Plug-In . SVG Version: 6.00 Build 0)  -->
<svg version="1.1" id="Layer_1" xmlns="http://www.w3.org/2000/svg" xmlns:xlink="http://www.w3.org/1999/xlink" x="0px" y="0px"
	 viewBox="-269 374 72 46" style="enable-background:new -269 374 72 46;" xml:space="preserve">
<style type="text/css">
	.st0{clip-path:url(#SVGID_2_);}
	.st1{fill:#0062AE;}
	.st2{fill:#FFED00;}
</style>
<g>
	<defs>
		<path id="SVGID_1_" d="M-203.95834,420.625h-58.08331c-3.84299,0-6.95834-3.11536-6.95834-6.95831v-32.95834
			c0-3.84299,3.11536-6.95834,6.95834-6.95834h58.08331c3.84299,0,6.95834,3.11536,6.95834,6.95834v32.95834
			C-197,417.50964-200.11536,420.625-203.95834,420.625z"/>
	</defs>
	<clipPath id="SVGID_2_">
		<use xlink:href="#SVGID_1_"  style="overflow:visible;"/>
	</clipPath>
	<g class="st0">
		<g>
			<polygon class="st1" points="-182.49982,404.6814 -283.50018,404.6814 -283.50018,422.40839 -182.49982,422.40839 			"/>
		</g>
		<g>
			<path d="M-182.375,422.5332h-101.25v-17.97656h101.25V422.5332z M-283.375,422.2832h100.75v-17.47656h-100.75V422.2832z"/>
		</g>
		<g>
			<polygon class="st1" points="-182.49982,388.6738 -283.50018,388.6738 -283.50018,370.94757 -182.49982,370.94757 			"/>
		</g>
		<g>
			<path d="M-182.375,388.79883h-101.25v-17.97607h101.25V388.79883z M-283.375,388.54883h100.75v-17.47607h-100.75V388.54883z"/>
		</g>
		<g>
			<polygon class="st2" points="-182.49982,404.6814 -283.50018,404.6814 -283.50018,388.6738 -182.49982,388.6738 			"/>
		</g>
		<g>
			<path d="M-182.375,404.80664h-101.25v-16.25781h101.25V404.80664z M-283.375,404.55664h100.75v-15.75781h-100.75V404.55664z"/>
		</g>
		<g>
			<polygon points="-283.50018,370.97128 -239.75864,396.68961 -283.50018,422.40839 			"/>
		</g>
		<g>
			<path d="M-283.625,422.62695v-51.87402l0.18848,0.11035l43.92432,25.82617l-0.18311,0.10791L-283.625,422.62695z
				 M-283.375,371.18945v51l43.36963-25.5L-283.375,371.18945z"/>
		</g>
	</g>
</g>
</svg>
