<?xml version="1.0" encoding="utf-8"?>
<!-- Generator: Adobe Illustrator 19.0.0, SVG Export Plug-In . SVG Version: 6.00 Build 0)  -->
<svg version="1.1" id="Layer_1" xmlns="http://www.w3.org/2000/svg" xmlns:xlink="http://www.w3.org/1999/xlink" x="0px" y="0px"
	 viewBox="-269 374 72 46" style="enable-background:new -269 374 72 46;" xml:space="preserve">
<style type="text/css">
	.st0{clip-path:url(#SVGID_2_);}
	.st1{fill:#E52713;}
	.st2{fill:#00A67A;}
	.st3{fill:#FFFFFF;}
</style>
<g>
	<defs>
		<path id="SVGID_1_" d="M-203.95834,420h-58.08331c-3.84299,0-6.95834-3.11536-6.95834-6.95831v-32.08334
			c0-3.84299,3.11536-6.95834,6.95834-6.95834h58.08331c3.84299,0,6.95834,3.11536,6.95834,6.95834v32.08334
			C-197,416.88464-200.11536,420-203.95834,420z"/>
	</defs>
	<clipPath id="SVGID_2_">
		<use xlink:href="#SVGID_1_"  style="overflow:visible;"/>
	</clipPath>
	<g class="st0">
		<g>
			<polygon class="st1" points="-258.12708,404.60254 -172.41943,404.60254 -172.41943,372.20587 -258.12708,372.20587 			"/>
		</g>
		<g>
			<path d="M-172.29492,404.72754h-85.95703v-32.64648h85.95703V404.72754z M-258.00195,404.47754h85.45703v-32.14648h-85.45703
				V404.47754z"/>
		</g>
		<g>
			<polygon class="st2" points="-172.41943,420.7941 -172.41943,404.60254 -258.12708,404.60254 -258.12708,420.7941 			"/>
		</g>
		<g>
			<path d="M-172.29492,420.91895h-85.95703v-16.44141h85.95703V420.91895z M-258.00195,420.66895h85.45703v-15.94141h-85.45703
				V420.66895z"/>
		</g>
		<g>
			<polygon class="st3" points="-258.79245,420.7941 -258.79245,372.20587 -269.5806,372.20587 -269.5806,420.7941 			"/>
		</g>
		<g>
			<path d="M-258.66748,420.91895h-11.03809v-48.83789h11.03809V420.91895z M-269.45557,420.66895h10.53809v-48.33789h-10.53809
				V420.66895z"/>
		</g>
		<g>
			<polygon class="st3" points="-258.12354,420.7941 -258.12354,372.20587 -258.79245,372.20587 -258.79245,420.7941 			"/>
		</g>
		<g>
			<path d="M-257.99854,420.91895h-0.91895v-48.83789h0.91895V420.91895z M-258.66748,420.66895h0.41895v-48.33789h-0.41895
				V420.66895z"/>
		</g>
		<g>
			<polygon class="st1" points="-266.9819,380.68967 -266.9819,381.2901 -266.72406,381.2901 -266.72406,381.97171 
				-266.42554,381.97171 -266.42554,382.66632 -266.72406,382.66632 -266.72406,383.34793 -266.9819,383.34793 -266.9819,383.94843 
				-267.38901,383.94843 -267.38901,383.34793 -267.64688,383.34793 -267.64688,382.66632 -267.96649,382.66632 
				-267.96649,381.97171 -267.64688,381.97171 -267.64688,381.2901 -267.38901,381.2901 -267.38901,380.68967 			"/>
		</g>
		<g>
			<polygon class="st1" points="-266.9819,412.30377 -266.9819,411.70331 -266.72406,411.70331 -266.72406,411.0217 
				-266.42554,411.0217 -266.42554,410.32712 -266.72406,410.32712 -266.72406,409.64548 -266.9819,409.64548 -266.9819,409.04504 
				-267.38901,409.04504 -267.38901,409.64548 -267.64688,409.64548 -267.64688,410.32712 -267.96649,410.32712 
				-267.96649,411.0217 -267.64688,411.0217 -267.64688,411.70331 -267.38901,411.70331 -267.38901,412.30377 			"/>
		</g>
		<g>
			<polygon class="st1" points="-263.94904,378.14169 -263.94904,379.05051 -263.54871,379.05051 -263.54871,380.02426 
				-263.08737,380.02426 -263.08737,380.73831 -262.57169,380.73831 -262.57169,381.64713 -262.19174,381.64713 
				-262.19174,380.73831 -261.67603,380.73831 -261.67603,380.02426 -261.21469,380.02426 -261.21469,379.05051 
				-260.81439,379.05051 -260.81439,378.14169 -260.40652,378.14169 -260.40652,376.90826 -260.81439,376.90826 
				-260.81439,375.86963 -261.21469,375.86963 -261.21469,374.62 -261.67603,374.62 -261.67603,373.84814 -263.08737,373.84814 
				-263.08737,374.62 -263.54871,374.62 -263.54871,375.86963 -263.94904,375.86963 -263.94904,376.90826 -264.42398,376.90826 
				-264.42398,375.86963 -264.82428,375.86963 -264.82428,374.62 -265.28564,374.62 -265.28564,373.84814 -266.69693,373.84814 
				-266.69693,374.62 -267.15829,374.62 -267.15829,375.86963 -267.55862,375.86963 -267.55862,376.90826 -267.96649,376.90826 
				-267.96649,378.14169 -267.55862,378.14169 -267.55862,379.05051 -267.15829,379.05051 -267.15829,380.02426 
				-266.69693,380.02426 -266.69693,380.73831 -266.18127,380.73831 -266.18127,381.64713 -265.80133,381.64713 
				-265.80133,380.73831 -265.28564,380.73831 -265.28564,380.02426 -264.82428,380.02426 -264.82428,379.05051 
				-264.42398,379.05051 -264.42398,378.14169 			"/>
		</g>
		<g>
			<polygon class="st1" points="-261.39111,380.68967 -261.39111,381.2901 -261.64896,381.2901 -261.64896,381.97171 
				-261.94748,381.97171 -261.94748,382.66632 -261.64896,382.66632 -261.64896,383.34793 -261.39111,383.34793 
				-261.39111,383.94843 -260.98401,383.94843 -260.98401,383.34793 -260.72617,383.34793 -260.72617,382.66632 
				-260.40652,382.66632 -260.40652,381.97171 -260.72617,381.97171 -260.72617,381.2901 -260.98401,381.2901 -260.98401,380.68967 
							"/>
		</g>
		<g>
			<polygon class="st1" points="-264.05078,382.66632 -264.05078,383.34793 -263.79297,383.34793 -263.79297,383.94843 
				-263.38586,383.94843 -263.38586,383.34793 -263.12805,383.34793 -263.12805,382.66632 -262.82953,382.66632 
				-262.82953,381.97171 -263.12805,381.97171 -263.12805,381.2901 -263.38586,381.2901 -263.38586,380.68967 -263.79297,380.68967 
				-263.79297,381.2901 -264.05078,381.2901 -264.05078,381.97171 -264.3222,381.97171 -264.3222,381.2901 -264.57999,381.2901 
				-264.57999,380.68967 -264.98712,380.68967 -264.98712,381.2901 -265.24496,381.2901 -265.24496,381.97171 -265.54349,381.97171 
				-265.54349,382.66632 -265.24496,382.66632 -265.24496,383.34793 -264.98712,383.34793 -264.98712,383.94843 
				-264.57999,383.94843 -264.57999,383.34793 -264.3222,383.34793 -264.3222,382.66632 			"/>
		</g>
		<g>
			<polygon class="st1" points="-263.94904,414.85175 -263.94904,413.9429 -263.54871,413.9429 -263.54871,412.96915 
				-263.08737,412.96915 -263.08737,412.2551 -262.57169,412.2551 -262.57169,411.34628 -262.19174,411.34628 -262.19174,412.2551 
				-261.67603,412.2551 -261.67603,412.96915 -261.21469,412.96915 -261.21469,413.9429 -260.81439,413.9429 -260.81439,414.85175 
				-260.40652,414.85175 -260.40652,416.08514 -260.81439,416.08514 -260.81439,417.12378 -261.21469,417.12378 
				-261.21469,418.37341 -261.67603,418.37341 -261.67603,419.15189 -263.08737,419.15189 -263.08737,418.37341 
				-263.54871,418.37341 -263.54871,417.12378 -263.94904,417.12378 -263.94904,416.08514 -264.42398,416.08514 
				-264.42398,417.12378 -264.82428,417.12378 -264.82428,418.37341 -265.28564,418.37341 -265.28564,419.15189 
				-266.69693,419.15189 -266.69693,418.37341 -267.15829,418.37341 -267.15829,417.12378 -267.55862,417.12378 
				-267.55862,416.08514 -267.96649,416.08514 -267.96649,414.85175 -267.55862,414.85175 -267.55862,413.9429 -267.15829,413.9429 
				-267.15829,412.96915 -266.69693,412.96915 -266.69693,412.2551 -266.18127,412.2551 -266.18127,411.34628 -265.80133,411.34628 
				-265.80133,412.2551 -265.28564,412.2551 -265.28564,412.96915 -264.82428,412.96915 -264.82428,413.9429 -264.42398,413.9429 
				-264.42398,414.85175 			"/>
		</g>
		<g>
			<polygon class="st1" points="-261.39111,412.30377 -261.39111,411.70331 -261.64896,411.70331 -261.64896,411.0217 
				-261.94748,411.0217 -261.94748,410.32712 -261.64896,410.32712 -261.64896,409.64548 -261.39111,409.64548 
				-261.39111,409.04504 -260.98401,409.04504 -260.98401,409.64548 -260.72617,409.64548 -260.72617,410.32712 
				-260.40652,410.32712 -260.40652,411.0217 -260.72617,411.0217 -260.72617,411.70331 -260.98401,411.70331 -260.98401,412.30377 
							"/>
		</g>
		<g>
			<polygon class="st1" points="-264.05078,411.0217 -264.05078,411.70331 -263.79297,411.70331 -263.79297,412.30377 
				-263.38586,412.30377 -263.38586,411.70331 -263.12805,411.70331 -263.12805,411.0217 -262.82953,411.0217 -262.82953,410.32712 
				-263.12805,410.32712 -263.12805,409.64548 -263.38586,409.64548 -263.38586,409.04504 -263.79297,409.04504 
				-263.79297,409.64548 -264.05078,409.64548 -264.05078,410.32712 -264.3222,410.32712 -264.3222,409.64548 -264.57999,409.64548 
				-264.57999,409.04504 -264.98712,409.04504 -264.98712,409.64548 -265.24496,409.64548 -265.24496,410.32712 
				-265.54349,410.32712 -265.54349,411.0217 -265.24496,411.0217 -265.24496,411.70331 -264.98712,411.70331 -264.98712,412.30377 
				-264.57999,412.30377 -264.57999,411.70331 -264.3222,411.70331 -264.3222,411.0217 			"/>
		</g>
		<g>
			<polygon class="st1" points="-263.87439,406.00693 -263.87439,407.14294 -263.42657,407.14294 -263.42657,408.18158 
				-262.93805,408.18158 -262.93805,409.17157 -262.62595,409.17157 -262.62595,409.77203 -262.16461,409.77203 
				-262.16461,409.17157 -261.85251,409.17157 -261.85251,408.24652 -261.21469,408.24652 -261.21469,407.14294 
				-260.71262,407.14294 -260.71262,406.20978 -260.40652,406.20978 -260.40652,404.83844 -260.71262,404.83844 
				-260.71262,403.88092 -261.14682,403.88092 -261.14682,402.55011 -261.55396,402.55011 -261.55396,401.59262 
				-262.01529,401.59262 -262.01529,402.55011 -262.47668,402.55011 -262.47668,403.88092 -262.77521,403.88092 
				-262.77521,404.83844 -262.341,404.83844 -262.341,406.20978 -262.88376,406.20978 -262.88376,405.30905 -263.26376,405.30905 
				-263.26376,403.66995 -263.75229,403.66995 -263.75229,402.43652 -263.29092,402.43652 -263.29092,401.49524 
				-262.85666,401.49524 -262.85666,400.35919 -262.39529,400.35919 -262.39529,399.15826 -261.98819,399.15826 
				-261.98819,398.05469 -261.54034,398.05469 -261.54034,399.12582 -261.18756,399.12582 -261.18756,400.0022 -260.86185,400.0022 
				-260.86185,401.13821 -260.63116,401.13821 -260.63116,402.01456 -260.40652,402.01456 -260.40652,398.70386 
				-260.73975,398.70386 -260.73975,397.60028 -261.13327,397.60028 -261.13327,396.86993 -261.49966,396.86993 
				-261.49966,396.12344 -261.13327,396.12344 -261.13327,395.39313 -260.73975,395.39313 -260.73975,394.28958 
				-260.40652,394.28958 -260.40652,390.97885 -260.63116,390.97885 -260.63116,391.85522 -260.86185,391.85522 
				-260.86185,392.99124 -261.18756,392.99124 -261.18756,393.86758 -261.54034,393.86758 -261.54034,394.93872 
				-261.98819,394.93872 -261.98819,393.83514 -262.39529,393.83514 -262.39529,392.63419 -262.85666,392.63419 
				-262.85666,391.49817 -263.29092,391.49817 -263.29092,390.55688 -263.75229,390.55688 -263.75229,389.32349 
				-263.26376,389.32349 -263.26376,387.68433 -262.88376,387.68433 -262.88376,386.78366 -262.341,386.78366 -262.341,388.15497 
				-262.77521,388.15497 -262.77521,389.11255 -262.47668,389.11255 -262.47668,390.44327 -262.01529,390.44327 
				-262.01529,391.40079 -261.55396,391.40079 -261.55396,390.44327 -261.14682,390.44327 -261.14682,389.11255 
				-260.71262,389.11255 -260.71262,388.15497 -260.40652,388.15497 -260.40652,386.78366 -260.71262,386.78366 
				-260.71262,385.85046 -261.21469,385.85046 -261.21469,384.74689 -261.85251,384.74689 -261.85251,383.82184 
				-262.16461,383.82184 -262.16461,383.22134 -262.62595,383.22134 -262.62595,383.82184 -262.93805,383.82184 
				-262.93805,384.8118 -263.42657,384.8118 -263.42657,385.85046 -263.87439,385.85046 -263.87439,386.98651 -264.49863,386.98651 
				-264.49863,385.85046 -264.94641,385.85046 -264.94641,384.8118 -265.43497,384.8118 -265.43497,383.82184 -265.74704,383.82184 
				-265.74704,383.22134 -266.20844,383.22134 -266.20844,383.82184 -266.52051,383.82184 -266.52051,384.74689 
				-267.15829,384.74689 -267.15829,385.85046 -267.6604,385.85046 -267.6604,386.78366 -267.96649,386.78366 -267.96649,388.15497 
				-267.6604,388.15497 -267.6604,389.11255 -267.22617,389.11255 -267.22617,390.44327 -266.81906,390.44327 -266.81906,391.40079 
				-266.35767,391.40079 -266.35767,390.44327 -265.8963,390.44327 -265.8963,389.11255 -265.59781,389.11255 -265.59781,388.15497 
				-266.03204,388.15497 -266.03204,386.78366 -265.4892,386.78366 -265.4892,387.68433 -265.10928,387.68433 -265.10928,389.32349 
				-264.6207,389.32349 -264.6207,390.55688 -265.08212,390.55688 -265.08212,391.49817 -265.51636,391.49817 -265.51636,392.63419 
				-265.97772,392.63419 -265.97772,393.83514 -266.38486,393.83514 -266.38486,394.93872 -266.83267,394.93872 
				-266.83267,393.86758 -267.18546,393.86758 -267.18546,392.99124 -267.51114,392.99124 -267.51114,391.85522 
				-267.74185,391.85522 -267.74185,390.97885 -267.96649,390.97885 -267.96649,394.28958 -267.63327,394.28958 
				-267.63327,395.39313 -267.23975,395.39313 -267.23975,396.12344 -266.87335,396.12344 -266.87335,396.86993 
				-267.23975,396.86993 -267.23975,397.60028 -267.63327,397.60028 -267.63327,398.70386 -267.96649,398.70386 
				-267.96649,402.01456 -267.74185,402.01456 -267.74185,401.13821 -267.51114,401.13821 -267.51114,400.0022 -267.18546,400.0022 
				-267.18546,399.12582 -266.83267,399.12582 -266.83267,398.05469 -266.38486,398.05469 -266.38486,399.15826 
				-265.97772,399.15826 -265.97772,400.35919 -265.51636,400.35919 -265.51636,401.49524 -265.08212,401.49524 
				-265.08212,402.43652 -264.6207,402.43652 -264.6207,403.66995 -265.10928,403.66995 -265.10928,405.30905 -265.4892,405.30905 
				-265.4892,406.20978 -266.03204,406.20978 -266.03204,404.83844 -265.59781,404.83844 -265.59781,403.88092 -265.8963,403.88092 
				-265.8963,402.55011 -266.35767,402.55011 -266.35767,401.59262 -266.81906,401.59262 -266.81906,402.55011 
				-267.22617,402.55011 -267.22617,403.88092 -267.6604,403.88092 -267.6604,404.83844 -267.96649,404.83844 -267.96649,406.20978 
				-267.6604,406.20978 -267.6604,407.14294 -267.15829,407.14294 -267.15829,408.24652 -266.52051,408.24652 -266.52051,409.17157 
				-266.20844,409.17157 -266.20844,409.77203 -265.74704,409.77203 -265.74704,409.17157 -265.43497,409.17157 
				-265.43497,408.18158 -264.94641,408.18158 -264.94641,407.14294 -264.49863,407.14294 -264.49863,406.00693 			"/>
		</g>
		<g>
			<polygon class="st3" points="-263.87439,401.81982 -263.87439,400.8461 -263.52161,400.8461 -263.52161,399.87234 
				-263.15521,399.87234 -263.15521,398.70386 -262.69385,398.70386 -262.69385,397.56784 -262.23245,397.56784 
				-262.23245,396.86993 -261.90674,396.86993 -261.90674,396.12344 -262.23245,396.12344 -262.23245,395.42563 
				-262.69385,395.42563 -262.69385,394.28958 -263.15521,394.28958 -263.15521,393.12106 -263.52161,393.12106 
				-263.52161,392.14731 -263.87439,392.14731 -263.87439,391.17358 -264.49863,391.17358 -264.49863,392.14731 
				-264.85141,392.14731 -264.85141,393.12106 -265.2178,393.12106 -265.2178,394.28958 -265.6792,394.28958 -265.6792,395.42563 
				-266.14056,395.42563 -266.14056,396.12344 -266.46625,396.12344 -266.46625,396.86993 -266.14056,396.86993 
				-266.14056,397.56784 -265.6792,397.56784 -265.6792,398.70386 -265.2178,398.70386 -265.2178,399.87234 -264.85141,399.87234 
				-264.85141,400.8461 -264.49863,400.8461 -264.49863,401.81982 			"/>
		</g>
		<g>
			<polygon class="st1" points="-263.96939,397.40552 -263.96939,397.92487 -263.61655,397.92487 -263.61655,398.50909 
				-263.29092,398.50909 -263.29092,397.40552 -263.61655,397.40552 -263.61655,396.85376 -263.9151,396.85376 -263.9151,396.13965 
				-263.61655,396.13965 -263.61655,395.58789 -263.29092,395.58789 -263.29092,394.48431 -263.61655,394.48431 
				-263.61655,395.06857 -263.96939,395.06857 -263.96939,395.58789 -264.40363,395.58789 -264.40363,395.06857 
				-264.75641,395.06857 -264.75641,394.48431 -265.08212,394.48431 -265.08212,395.58789 -264.75641,395.58789 
				-264.75641,396.13965 -264.45792,396.13965 -264.45792,396.85376 -264.75641,396.85376 -264.75641,397.40552 
				-265.08212,397.40552 -265.08212,398.50909 -264.75641,398.50909 -264.75641,397.92487 -264.40363,397.92487 
				-264.40363,397.40552 			"/>
		</g>
		<g>
			<polygon class="st3" points="-265.78772,379.862 -265.78772,379.03427 -265.40781,379.03427 -265.40781,378.06055 
				-265.0007,378.06055 -265.0007,376.98944 -265.40781,376.98944 -265.40781,376.01569 -265.78772,376.01569 -265.78772,375.18805 
				-266.19482,375.18805 -266.19482,376.01569 -266.5748,376.01569 -266.5748,376.98944 -266.9819,376.98944 -266.9819,378.06055 
				-266.5748,378.06055 -266.5748,379.03427 -266.19482,379.03427 -266.19482,379.862 			"/>
		</g>
		<g>
			<polygon class="st3" points="-265.78772,413.13147 -265.78772,413.95908 -265.40781,413.95908 -265.40781,414.93283 
				-265.0007,414.93283 -265.0007,416.00403 -265.40781,416.00403 -265.40781,416.97772 -265.78772,416.97772 -265.78772,417.80539 
				-266.19482,417.80539 -266.19482,416.97772 -266.5748,416.97772 -266.5748,416.00403 -266.9819,416.00403 -266.9819,414.93283 
				-266.5748,414.93283 -266.5748,413.95908 -266.19482,413.95908 -266.19482,413.13147 			"/>
		</g>
		<g>
			<polygon class="st3" points="-262.58521,379.862 -262.58521,379.03427 -262.96521,379.03427 -262.96521,378.06055 
				-263.37231,378.06055 -263.37231,376.98944 -262.96521,376.98944 -262.96521,376.01569 -262.58521,376.01569 
				-262.58521,375.18805 -262.17816,375.18805 -262.17816,376.01569 -261.79819,376.01569 -261.79819,376.98944 
				-261.39111,376.98944 -261.39111,378.06055 -261.79819,378.06055 -261.79819,379.03427 -262.17816,379.03427 -262.17816,379.862 
							"/>
		</g>
		<g>
			<polygon class="st3" points="-262.58521,413.13147 -262.58521,413.95908 -262.96521,413.95908 -262.96521,414.93283 
				-263.37231,414.93283 -263.37231,416.00403 -262.96521,416.00403 -262.96521,416.97772 -262.58521,416.97772 
				-262.58521,417.80539 -262.17816,417.80539 -262.17816,416.97772 -261.79819,416.97772 -261.79819,416.00403 
				-261.39111,416.00403 -261.39111,414.93283 -261.79819,414.93283 -261.79819,413.95908 -262.17816,413.95908 
				-262.17816,413.13147 			"/>
		</g>
		<g>
			<polygon class="st1" points="-267.62039,375.62616 -267.62039,374.63037 -267.96649,374.63037 -267.96649,375.62616 			"/>
		</g>
		<g>
			<polygon class="st1" points="-264.03723,380.40482 -264.03723,379.41431 -264.33578,379.41431 -264.33578,380.40482 			"/>
		</g>
		<g>
			<polygon class="st1" points="-264.03723,374.93674 -264.03723,373.84814 -264.33578,373.84814 -264.33578,374.93674 			"/>
		</g>
		<g>
			<polygon class="st1" points="-264.03723,394.29172 -264.03723,393.19769 -264.33578,393.19769 -264.33578,394.29172 			"/>
		</g>
		<g>
			<polygon class="st1" points="-267.62039,380.41949 -267.62039,379.42902 -267.96649,379.42902 -267.96649,380.41949 			"/>
		</g>
		<g>
			<polygon class="st1" points="-267.62039,385.27603 -267.62039,384.29892 -267.96649,384.29892 -267.96649,385.27603 			"/>
		</g>
		<g>
			<polygon class="st1" points="-267.62039,390.40302 -267.62039,389.44656 -267.96649,389.44656 -267.96649,390.40302 			"/>
		</g>
		<g>
			<polygon class="st1" points="-267.62039,417.42624 -267.62039,418.36304 -267.96649,418.36304 -267.96649,417.42624 			"/>
		</g>
		<g>
			<polygon class="st1" points="-265.83868,414.92444 -265.83868,416.01852 -266.13718,416.01852 -266.13718,414.92444 			"/>
		</g>
		<g>
			<polygon class="st1" points="-264.03723,412.57697 -264.03723,413.59625 -264.33578,413.59625 -264.33578,412.57697 			"/>
		</g>
		<g>
			<polygon class="st1" points="-264.03723,418.05664 -264.03723,419.15189 -264.33578,419.15189 -264.33578,418.05664 			"/>
		</g>
		<g>
			<polygon class="st1" points="-264.03723,398.70166 -264.03723,399.79575 -264.33578,399.79575 -264.33578,398.70166 			"/>
		</g>
		<g>
			<polygon class="st1" points="-267.62039,412.56183 -267.62039,413.58109 -267.96649,413.58109 -267.96649,412.56183 			"/>
		</g>
		<g>
			<polygon class="st1" points="-267.62039,407.65387 -267.62039,408.74792 -267.96649,408.74792 -267.96649,407.65387 			"/>
		</g>
		<g>
			<polygon class="st1" points="-267.62039,402.62088 -267.62039,403.65518 -267.96649,403.65518 -267.96649,402.62088 			"/>
		</g>
		<g>
			<polygon class="st1" points="-267.62039,397.02429 -267.62039,395.97476 -267.96649,395.97476 -267.96649,397.02429 			"/>
		</g>
		<g>
			<polygon class="st1" points="-265.29926,397.02429 -265.29926,395.97476 -265.59781,395.97476 -265.59781,397.02429 			"/>
		</g>
		<g>
			<polygon class="st1" points="-260.75266,375.62616 -260.75266,374.63037 -260.40652,374.63037 -260.40652,375.62616 			"/>
		</g>
		<g>
			<polygon class="st1" points="-262.53439,378.069 -262.53439,376.97491 -262.23584,376.97491 -262.23584,378.069 			"/>
		</g>
		<g>
			<polygon class="st1" points="-260.75266,380.41949 -260.75266,379.42902 -260.40652,379.42902 -260.40652,380.41949 			"/>
		</g>
		<g>
			<polygon class="st1" points="-260.75266,385.27603 -260.75266,384.29892 -260.40652,384.29892 -260.40652,385.27603 			"/>
		</g>
		<g>
			<polygon class="st1" points="-260.75266,390.40302 -260.75266,389.44656 -260.40652,389.44656 -260.40652,390.40302 			"/>
		</g>
		<g>
			<polygon class="st1" points="-260.75266,417.42624 -260.75266,418.36304 -260.40652,418.36304 -260.40652,417.42624 			"/>
		</g>
		<g>
			<polygon class="st1" points="-262.53439,414.92444 -262.53439,416.01852 -262.23584,416.01852 -262.23584,414.92444 			"/>
		</g>
		<g>
			<polygon class="st1" points="-260.75266,412.56183 -260.75266,413.58109 -260.40652,413.58109 -260.40652,412.56183 			"/>
		</g>
		<g>
			<polygon class="st1" points="-260.75266,407.65387 -260.75266,408.74792 -260.40652,408.74792 -260.40652,407.65387 			"/>
		</g>
		<g>
			<polygon class="st1" points="-260.75266,402.62088 -260.75266,403.65518 -260.40652,403.65518 -260.40652,402.62088 			"/>
		</g>
		<g>
			<polygon class="st1" points="-260.75266,397.02429 -260.75266,395.97476 -260.40652,395.97476 -260.40652,397.02429 			"/>
		</g>
		<g>
			<polygon class="st1" points="-263.07376,397.02429 -263.07376,395.97476 -262.77521,395.97476 -262.77521,397.02429 			"/>
		</g>
		<g>
			<polygon class="st1" points="-264.03723,384.23196 -264.03723,385.20901 -264.33578,385.20901 -264.33578,384.23196 			"/>
		</g>
		<g>
			<polygon class="st1" points="-264.03723,408.82297 -264.03723,407.72888 -264.33578,407.72888 -264.33578,408.82297 			"/>
		</g>
		<g>
			<polygon class="st3" points="-267.07388,382.63477 -267.07388,382.00323 -267.29706,382.00323 -267.29706,382.63477 			"/>
		</g>
		<g>
			<polygon class="st3" points="-264.672,382.63477 -264.672,382.00323 -264.89517,382.00323 -264.89517,382.63477 			"/>
		</g>
		<g>
			<polygon class="st3" points="-267.07388,410.35867 -267.07388,410.99014 -267.29706,410.99014 -267.29706,410.35867 			"/>
		</g>
		<g>
			<polygon class="st3" points="-264.672,410.35867 -264.672,410.99014 -264.89517,410.99014 -264.89517,410.35867 			"/>
		</g>
		<g>
			<polygon class="st3" points="-261.29913,382.63477 -261.29913,382.00323 -261.07599,382.00323 -261.07599,382.63477 			"/>
		</g>
		<g>
			<polygon class="st3" points="-263.70102,382.63477 -263.70102,382.00323 -263.47781,382.00323 -263.47781,382.63477 			"/>
		</g>
		<g>
			<polygon class="st3" points="-261.29913,410.35867 -261.29913,410.99014 -261.07599,410.99014 -261.07599,410.35867 			"/>
		</g>
		<g>
			<polygon class="st3" points="-263.70102,410.35867 -263.70102,410.99014 -263.47781,410.99014 -263.47781,410.35867 			"/>
		</g>
		<g>
			<polygon class="st3" points="-265.83868,378.069 -265.83868,376.97491 -266.13718,376.97491 -266.13718,378.069 			"/>
		</g>
		<g>
			<path class="st1" d="M-258.66748,420.83496h-10.95361v-48.66992h10.95361V420.83496z M-269.37109,420.58496h10.45361v-48.16992
				h-10.45361V420.58496z"/>
		</g>
	</g>
</g>
</svg>
