<?xml version="1.0" encoding="utf-8"?>
<!-- Generator: Adobe Illustrator 19.0.0, SVG Export Plug-In . SVG Version: 6.00 Build 0)  -->
<svg version="1.1" id="Layer_1" xmlns="http://www.w3.org/2000/svg" xmlns:xlink="http://www.w3.org/1999/xlink" x="0px" y="0px"
	 viewBox="-269 374 72 46" style="enable-background:new -269 374 72 46;" xml:space="preserve">
<style type="text/css">
	.st0{clip-path:url(#SVGID_2_);}
	.st1{fill:none;}
	.st2{fill:#312782;}
	.st3{fill:#FFFFFF;}
	.st4{fill:#E20613;}
</style>
<g>
	<defs>
		<path id="SVGID_1_" d="M-203.95834,420h-58.08331c-3.84299,0-6.95834-3.11536-6.95834-6.95831v-32.08334
			c0-3.84299,3.11536-6.95834,6.95834-6.95834h58.08331c3.84299,0,6.95834,3.11536,6.95834,6.95834v32.08334
			C-197,416.88464-200.11536,420-203.95834,420z"/>
	</defs>
	<clipPath id="SVGID_2_">
		<use xlink:href="#SVGID_1_"  style="overflow:visible;"/>
	</clipPath>
	<g class="st0">
		<g>
			<rect x="-271.50931" y="373.30338" class="st1" width="77.01864" height="47.39631"/>
			<path class="st1" d="M-232.99991,397.00153"/>
		</g>
		<g>
			<rect x="-271.50931" y="373.30338" class="st2" width="77.01864" height="47.39631"/>
			<path class="st2" d="M-232.99991,397.00153"/>
		</g>
		<g>
			<g>
				<rect x="-271.48743" y="373.30029" class="st3" width="36.10282" height="22.26477"/>
				<path class="st3" d="M-253.43604,384.40878"/>
			</g>
			<g>
				<polygon class="st4" points="-256.07806,373.30106 -256.07806,381.75293 -271.48581,381.75293 -271.48581,387.07272 
					-256.07806,387.07272 -256.07806,395.56506 -250.7944,395.56506 -250.7944,387.07291 -235.38461,387.07291 
					-235.38461,381.75293 -250.7944,381.75293 -250.7944,373.30106 				"/>
				<polygon class="st4" points="-271.48581,374.8064 -271.48581,373.30029 -260.46722,380.6257 -262.84311,380.6257 				"/>
				<polygon class="st4" points="-271.48581,395.57104 -269.19501,395.57376 -258.09091,388.24838 -260.46722,388.24838 				"/>
				<polygon class="st4" points="-235.39818,394.06763 -235.39818,395.57376 -246.41685,388.24838 -244.04085,388.24838 				"/>
				<polygon class="st4" points="-235.39818,373.30298 -237.68901,373.30029 -248.79306,380.6257 -246.41685,380.6257 				"/>
			</g>
			<g>
				<polygon class="st2" points="-271.48581,375.77246 -271.48581,380.6257 -264.29681,380.6257 				"/>
				<polygon class="st2" points="-267.49762,373.31131 -257.19601,373.31131 -257.19406,380.18234 				"/>
				<polygon class="st2" points="-271.48581,393.10159 -271.48581,388.24838 -264.29681,388.24838 				"/>
				<polygon class="st2" points="-267.49762,395.56253 -257.19601,395.56253 -257.19406,388.69171 				"/>
				<polygon class="st2" points="-235.39818,393.10159 -235.39818,388.24838 -242.58714,388.24838 				"/>
				<polygon class="st2" points="-239.38638,395.56253 -249.688,395.56253 -249.69002,388.69171 				"/>
				<polygon class="st2" points="-235.38461,375.77246 -235.38461,380.6257 -242.58714,380.6257 				"/>
				<polygon class="st2" points="-239.38638,373.31131 -249.688,373.31131 -249.69002,380.18234 				"/>
			</g>
		</g>
		<g>
			<rect x="-271.50931" y="373.30338" class="st1" width="77.01864" height="47.39631"/>
			<path class="st1" d="M-232.99991,397.00153"/>
		</g>
		<g>
			<polygon class="st3" points="-226.39069,389.57706 -226.99638,391.54047 -228.90912,390.79294 -227.74454,392.48752 
				-229.51523,393.5101 -227.47015,393.66159 -227.79196,395.68756 -226.38121,394.18298 -224.99911,395.68756 
				-225.30179,393.67072 -223.24759,393.5101 -225.01788,392.48752 -223.87244,390.78323 -225.78458,391.53101 			"/>
		</g>
		<g>
			<polygon class="st3" points="-214.16698,408.1236 -214.77289,410.08722 -216.68538,409.33908 -215.52081,411.03372 
				-217.29112,412.05621 -215.24641,412.20779 -215.56822,414.2337 -214.15747,412.72913 -212.77538,414.2337 -213.07803,412.21725 
				-211.02385,412.05621 -212.79416,411.03372 -211.6487,409.32996 -213.56088,410.07755 			"/>
		</g>
		<g>
			<polygon class="st3" points="-214.16698,376.93182 -214.77289,378.89523 -216.68538,378.14749 -215.52081,379.84235 
				-217.29112,380.86469 -215.24641,381.0162 -215.56822,383.04214 -214.15747,381.53772 -212.77538,383.04214 
				-213.07803,381.02548 -211.02385,380.86469 -212.79416,379.84235 -211.6487,378.13803 -213.56088,378.88617 			"/>
		</g>
		<g>
			<polygon class="st3" points="-203.34818,386.48599 -203.95425,388.44962 -205.86679,387.70184 -204.70221,389.39648 
				-206.4725,390.41904 -204.4274,390.57056 -204.7496,392.59647 -203.3389,391.09192 -201.95639,392.59647 -202.25943,390.57968 
				-200.20483,390.41904 -201.97554,389.39648 -200.82973,387.69238 -202.74246,388.44031 			"/>
		</g>
		<g>
			<polygon class="st3" points="-253.68742,401.38876 -254.99387,405.62274 -259.1178,404.00998 -256.60663,407.66418 
				-260.42426,409.86911 -256.01483,410.19577 -256.7088,414.56424 -253.66708,411.3201 -250.68661,414.56424 -251.33968,410.21609 
				-246.90996,409.86911 -250.72768,407.66418 -248.25742,403.98984 -252.38086,405.60242 			"/>
		</g>
		<g>
			<polygon class="st3" points="-209.00237,396.91718 -207.36848,396.91718 -208.685,397.9043 -208.17429,399.47025 
				-209.4848,398.50574 -210.79529,399.47025 -210.27899,397.9043 -211.60654,396.91718 -209.97827,396.91718 -209.4848,395.39087 
							"/>
		</g>
	</g>
</g>
</svg>
