<?xml version="1.0" encoding="utf-8"?>
<!-- Generator: Adobe Illustrator 19.0.0, SVG Export Plug-In . SVG Version: 6.00 Build 0)  -->
<svg version="1.1" id="Layer_1" xmlns="http://www.w3.org/2000/svg" xmlns:xlink="http://www.w3.org/1999/xlink" x="0px" y="0px"
	 viewBox="-269 374 72 46" style="enable-background:new -269 374 72 46;" xml:space="preserve">
<style type="text/css">
	.st0{clip-path:url(#SVGID_2_);}
	.st1{fill:#FFE000;}
	.st2{fill:#004288;}
	.st3{fill:#00634E;}
	.st4{fill:#FFFFFF;}
	.st5{fill:#E50040;}
	.st6{fill:none;stroke:#000000;stroke-width:0.24467;}
</style>
<g>
	<defs>
		<path id="SVGID_1_" d="M-203.82794,420h-58.34412c-3.77097,0-6.82794-3.04099-6.82794-6.79221v-32.41559
			c0-3.75122,3.05698-6.79221,6.82794-6.79221h58.34412c3.77097,0,6.82794,3.04099,6.82794,6.79221v32.41559
			C-197,416.95901-200.05698,420-203.82794,420z"/>
	</defs>
	<clipPath id="SVGID_2_">
		<use xlink:href="#SVGID_1_"  style="overflow:visible;"/>
	</clipPath>
	<g class="st0">
		<g>
			<polygon class="st1" points="-194.25,408.625 -271.75,408.625 -271.75,420.25 -194.25,420.25 			"/>
		</g>
		<g>
			<path d="M-194.12793,420.37207h-77.74463v-11.86914h77.74463V420.37207z M-271.62744,420.12793h77.25537v-11.38086h-77.25537
				V420.12793z"/>
		</g>
		<g>
			<polygon class="st2" points="-194.25,385.375 -271.75,385.375 -271.75,373.75 -194.25,373.75 			"/>
		</g>
		<g>
			<path d="M-194.12793,385.49756h-77.74463v-11.87012h77.74463V385.49756z M-271.62744,385.25244h77.25537v-11.37988h-77.25537
				V385.25244z"/>
		</g>
		<g>
			<polygon class="st3" points="-194.25,408.625 -271.75,408.625 -271.75,397 -194.25,397 			"/>
		</g>
		<g>
			<path d="M-194.12793,408.74707h-77.74463v-11.86963h77.74463V408.74707z M-271.62744,408.50293h77.25537v-11.38037h-77.25537
				V408.50293z"/>
		</g>
		<g>
			<polygon class="st4" points="-194.25,397 -271.75,397 -271.75,385.375 -194.25,385.375 			"/>
		</g>
		<g>
			<path d="M-194.12793,397.12256h-77.74463v-11.87012h77.74463V397.12256z M-271.62744,396.87744h77.25537v-11.37988h-77.25537
				V396.87744z"/>
		</g>
		<g>
			<polygon class="st5" points="-227.14444,420.25 -227.14444,373.75 -238.85556,373.75 -238.85556,420.25 			"/>
		</g>
		<g>
			<path d="M-227.02246,420.37207h-11.95557v-46.74463h11.95557V420.37207z M-238.73291,420.12793h11.46631v-46.25537h-11.46631
				V420.12793z"/>
		</g>
		<g>
			<path class="st5" d="M-233,397"/>
		</g>
		<g>
			<path class="st6" d="M-233,397"/>
		</g>
		<g>
			<polygon class="st1" points="-260.125,375.19046 -261.19446,378.51364 -264.71167,378.51364 -261.85538,380.5816 
				-262.95273,383.90201 -260.125,381.83884 -257.29736,383.90201 -258.38007,380.55356 -255.53839,378.52756 -259.04163,378.52756 
							"/>
		</g>
		<g>
			<path d="M-263.01172,383.98291l0.03027-0.09082l1.08984-3.29883l-2.91406-2.11035h3.58887l1.0918-3.39209l1.10596,3.40576
				h3.57617l-2.90088,2.06885l1.10449,3.4165l-0.07617-0.05518l-2.80957-2.0498L-263.01172,383.98291z M-260.125,381.80078
				l2.76953,2.021l-1.06055-3.27979l0.01855-0.01318l2.76318-1.9707h-3.42969l-0.00684-0.02148l-1.0542-3.24658l-1.04688,3.25439
				h-3.44531l2.79785,2.02539l-0.00732,0.02148l-1.06689,3.22949L-260.125,381.80078z"/>
		</g>
	</g>
</g>
</svg>
