<?xml version="1.0" encoding="utf-8"?>
<!-- Generator: Adobe Illustrator 19.0.0, SVG Export Plug-In . SVG Version: 6.00 Build 0)  -->
<svg version="1.1" id="Layer_1" xmlns="http://www.w3.org/2000/svg" xmlns:xlink="http://www.w3.org/1999/xlink" x="0px" y="0px"
	 viewBox="-269 374 72 46" style="enable-background:new -269 374 72 46;" xml:space="preserve">
<style type="text/css">
	.st0{clip-path:url(#SVGID_2_);}
	.st1{fill:#009D59;}
	.st2{fill:#E30520;}
	.st3{fill:#FFE046;}
</style>
<g>
	<defs>
		<path id="SVGID_1_" d="M-203.95834,420h-58.08331c-3.84299,0-6.95834-3.11536-6.95834-6.95831v-32.08334
			c0-3.84299,3.11536-6.95834,6.95834-6.95834h58.08331c3.84299,0,6.95834,3.11536,6.95834,6.95834v32.08334
			C-197,416.88464-200.11536,420-203.95834,420z"/>
	</defs>
	<clipPath id="SVGID_2_">
		<use xlink:href="#SVGID_1_"  style="overflow:visible;"/>
	</clipPath>
	<g class="st0">
		<g>
			<polygon class="st1" points="-209.07031,372.75 -269.5,372.75 -269.5,421.5 -257.3125,421.5 			"/>
			<path d="M-257.20801,421.75H-269.75V372.5h61.27832l-0.4209,0.42578L-257.20801,421.75z M-269.25,421.25h11.83301l47.74805-48.25
				H-269.25V421.25z"/>
		</g>
		<g>
			<polygon class="st2" points="-257.3125,421.5 -196.375,421.5 -196.375,372.75 -209.07031,372.75 			"/>
			<path d="M-196.125,421.75h-61.78662l48.73682-49.25h13.0498V421.75z M-256.71338,421.25h60.08838V373h-12.34082
				L-256.71338,421.25z"/>
		</g>
		<g>
			<polygon class="st3" points="-269.5,421.5 -245.125,421.5 -196.375,372.75 -220.75,372.75 			"/>
			<path d="M-245.125,421.75H-269.5l-0.17676-0.42676l48.75-48.75L-220.75,372.5h24.375l0.17676,0.42676l-48.75,48.75
				L-245.125,421.75z M-268.89648,421.25h23.66797l48.25-48.25h-23.66797L-268.89648,421.25z"/>
		</g>
	</g>
</g>
</svg>
