<?xml version="1.0" encoding="utf-8"?>
<!-- Generator: Adobe Illustrator 19.0.0, SVG Export Plug-In . SVG Version: 6.00 Build 0)  -->
<svg version="1.1" id="Layer_1" xmlns="http://www.w3.org/2000/svg" xmlns:xlink="http://www.w3.org/1999/xlink" x="0px" y="0px"
	 viewBox="-269 374 72 46" style="enable-background:new -269 374 72 46;" xml:space="preserve">
<style type="text/css">
	.st0{clip-path:url(#SVGID_2_);}
	.st1{fill:#00793E;}
	.st2{fill:#F6A22D;}
	.st3{fill:#FFFFFF;}
</style>
<g>
	<defs>
		<path id="SVGID_1_" d="M-203.95834,420h-58.08331c-3.84299,0-6.95834-3.11536-6.95834-6.95831v-32.08334
			c0-3.84299,3.11536-6.95834,6.95834-6.95834h58.08331c3.84299,0,6.95834,3.11536,6.95834,6.95834v32.08334
			C-197,416.88464-200.11536,420-203.95834,420z"/>
	</defs>
	<clipPath id="SVGID_2_">
		<use xlink:href="#SVGID_1_"  style="overflow:visible;"/>
	</clipPath>
	<g class="st0">
		<g>
			<polygon class="st1" points="-220.76648,421.46875 -220.76648,372.53125 -196.29688,372.53125 -196.29688,421.46875 			"/>
		</g>
		<g>
			<path d="M-196.17188,421.59375h-24.71973v-49.1875h24.71973V421.59375z M-220.6416,421.34375h24.21973v-48.6875h-24.21973
				V421.34375z"/>
		</g>
		<g>
			<polygon class="st2" points="-269.70313,421.46875 -269.70313,372.53125 -245.23488,372.53125 -245.23488,421.46875 			"/>
		</g>
		<g>
			<path d="M-245.10986,421.59375h-24.71826v-49.1875h24.71826V421.59375z M-269.57813,421.34375h24.21826v-48.6875h-24.21826
				V421.34375z"/>
		</g>
		<g>
			<polygon class="st3" points="-245.23488,421.46875 -245.23488,372.53125 -220.76648,372.53125 -220.76648,421.46875 			"/>
		</g>
		<g>
			<path d="M-220.6416,421.59375h-24.71826v-49.1875h24.71826V421.59375z M-245.10986,421.34375h24.21826v-48.6875h-24.21826
				V421.34375z"/>
		</g>
	</g>
</g>
</svg>
