<?xml version="1.0" encoding="utf-8"?>
<!-- Generator: Adobe Illustrator 19.0.0, SVG Export Plug-In . SVG Version: 6.00 Build 0)  -->
<svg version="1.1" id="Layer_1" xmlns="http://www.w3.org/2000/svg" xmlns:xlink="http://www.w3.org/1999/xlink" x="0px" y="0px"
	 viewBox="-269 374 72 46" style="enable-background:new -269 374 72 46;" xml:space="preserve">
<style type="text/css">
	.st0{clip-path:url(#SVGID_2_);fill:#00247D;}
	.st1{clip-path:url(#SVGID_4_);}
	.st2{fill:#FFFFFF;}
	.st3{clip-path:url(#SVGID_6_);fill:#FFFFFF;}
	.st4{clip-path:url(#SVGID_8_);fill:#FFFFFF;}
	.st5{clip-path:url(#SVGID_10_);fill:#FFFFFF;}
	.st6{clip-path:url(#SVGID_12_);fill:#FFFFFF;}
	.st7{clip-path:url(#SVGID_14_);fill:#CF142B;}
	.st8{clip-path:url(#SVGID_16_);fill:#CF142B;}
	.st9{clip-path:url(#SVGID_18_);fill:#CF142B;}
	.st10{clip-path:url(#SVGID_20_);fill:#CF142B;}
	.st11{clip-path:url(#SVGID_22_);fill:#CF142B;}
	.st12{clip-path:url(#SVGID_24_);fill:#CF142B;}
</style>
<g>
	<defs>
		<path id="SVGID_1_" d="M-203.95834,420h-58.08331c-3.84299,0-6.95834-3.11536-6.95834-6.95831v-32.08334
			c0-3.84299,3.11536-6.95834,6.95834-6.95834h58.08331c3.84299,0,6.95834,3.11536,6.95834,6.95834v32.08334
			C-197,416.88464-200.11536,420-203.95834,420z"/>
	</defs>
	<clipPath id="SVGID_2_">
		<use xlink:href="#SVGID_1_"  style="overflow:visible;"/>
	</clipPath>
	<rect x="-279.67981" y="373.01965" class="st0" width="93.96133" height="47.73036"/>
</g>
<g>
	<defs>
		<path id="SVGID_3_" d="M-203.95834,420h-58.08331c-3.84299,0-6.95834-3.11536-6.95834-6.95831v-32.08334
			c0-3.84299,3.11536-6.95834,6.95834-6.95834h58.08331c3.84299,0,6.95834,3.11536,6.95834,6.95834v32.08334
			C-197,416.88464-200.11536,420-203.95834,420z"/>
	</defs>
	<clipPath id="SVGID_4_">
		<use xlink:href="#SVGID_3_"  style="overflow:visible;"/>
	</clipPath>
	<g class="st1">
		<g>
			<polyline class="st2" points="-209.18826,377.08755 -208.40799,379.50748 -205.84131,379.50748 -207.91518,381.07205 
				-207.13492,383.51282 -209.18826,382.0108 -211.28268,383.51282 -210.50241,381.07205 -212.55576,379.50748 
				-209.98907,379.50748 			"/>
		</g>
		<polyline class="st2" points="-199.24187,382.3978 -201.69675,382.97467 -201.96512,385.56796 -203.26964,383.31006 
			-205.73543,383.8439 -204.04782,381.92654 -205.29797,379.65341 -202.99982,380.69598 -201.26314,378.78384 -201.52284,381.29419 
					"/>
		<polyline class="st2" points="-194.24435,387.70117 -196.72073,387.22961 -197.9903,389.49582 -198.29413,386.8959 
			-200.76361,386.3804 -198.46095,385.31152 -198.7088,382.71985 -197.01495,384.61118 -194.66946,383.56708 -195.8981,385.76102 		
			"/>
		<polyline class="st2" points="-191.9613,394.66327 -194.02554,393.19589 -196.10217,394.72821 -195.3235,392.23254 
			-197.36369,390.72791 -194.83197,390.71921 -194.00549,388.25449 -193.23036,390.68735 -190.66992,390.71912 
			-192.67996,392.20279 		"/>
		<polyline class="st2" points="-192.52597,402.04047 -193.8186,399.84351 -196.3306,400.37857 -194.61508,398.4248 
			-195.87085,396.20389 -193.55728,397.2486 -191.81049,395.34296 -192.08289,397.88516 -189.7594,398.97812 -192.19101,399.49655 
					"/>
		<polygon class="st2" points="-196.07346,408.50058 -196.39334,405.96188 -198.90628,405.43155 -196.56479,404.3378 
			-196.84152,401.79208 -195.13226,403.68964 -192.78119,402.65295 -194.03148,404.87222 -192.33218,406.81799 
			-194.76492,406.30511 		"/>
		<polyline class="st2" points="-197.79282,412.85422 -199.85706,411.38693 -201.93369,412.91925 -201.155,410.4234 
			-203.19522,408.91879 -200.66348,408.91016 -199.83701,406.44543 -199.06186,408.87836 -196.50145,408.90997 
			-198.51147,410.39374 		"/>
		<polyline class="st2" points="-205.13354,416.26779 -206.42618,414.07083 -208.93817,414.6059 -207.22267,412.6521 
			-208.47841,410.43121 -206.16486,411.47592 -204.41806,409.57037 -204.69046,412.11249 -202.36697,413.20544 
			-204.79858,413.72388 		"/>
		<polygon class="st2" points="-213.19839,416.27332 -213.51826,413.73462 -216.03122,413.20428 -213.68976,412.11053 
			-213.96648,409.56482 -212.25722,411.46237 -209.90613,410.42566 -211.15643,412.64496 -209.45712,414.59073 
			-211.88986,414.07785 		"/>
		<polyline class="st2" points="-216.51938,412.85422 -218.58363,411.38693 -220.66025,412.91925 -219.88156,410.4234 
			-221.92177,408.91879 -219.39005,408.91016 -218.56357,406.44543 -217.78844,408.87836 -215.22801,408.90997 
			-217.23804,410.39374 		"/>
		<polygon class="st2" points="-222.00566,405.90091 -219.57405,405.38248 -221.89754,404.28955 -221.62515,401.74744 
			-223.37195,403.65295 -225.68549,402.60828 -224.42975,404.82916 -226.14523,406.78296 -223.63326,406.24789 
			-222.34062,408.44485 		"/>
		<polyline class="st2" points="-220.34888,389.48206 -221.64151,387.2851 -224.1535,387.82016 -222.438,385.86636 
			-223.69374,383.64548 -221.38019,384.69019 -219.63339,382.78461 -219.90579,385.32675 -217.58231,386.41968 
			-220.01392,386.93811 		"/>
		<polyline class="st2" points="-222.33035,394.68414 -224.39461,393.21683 -226.47122,394.74915 -225.69257,392.2533 
			-227.73276,390.74869 -225.20103,390.74008 -224.37454,388.27536 -223.59943,390.70828 -221.03899,390.7399 -223.04901,392.22366 
					"/>
		<polygon class="st2" points="-225.82651,402.04602 -226.14638,399.50732 -228.65932,398.97696 -226.31786,397.88321 
			-226.59459,395.33752 -224.88533,397.23505 -222.53424,396.19836 -223.78453,398.41763 -222.08524,400.3634 -224.51797,399.85052 
					"/>
		<polygon class="st2" points="-216.40161,385.50311 -216.7215,382.96439 -219.23444,382.43405 -216.89297,381.3403 
			-217.16971,378.79459 -215.46045,380.69214 -213.10936,379.65546 -214.35965,381.87473 -212.66035,383.8205 -215.09309,383.30762 
					"/>
	</g>
</g>
<g>
	<defs>
		<path id="SVGID_5_" d="M-203.95834,420h-58.08331c-3.84299,0-6.95834-3.11536-6.95834-6.95831v-32.08334
			c0-3.84299,3.11536-6.95834,6.95834-6.95834h58.08331c3.84299,0,6.95834,3.11536,6.95834,6.95834v32.08334
			C-197,416.88464-200.11536,420-203.95834,420z"/>
	</defs>
	<clipPath id="SVGID_6_">
		<use xlink:href="#SVGID_5_"  style="overflow:visible;"/>
	</clipPath>
	<rect x="-260.1319" y="373.01965" class="st3" width="7.83008" height="23.86518"/>
</g>
<g>
	<defs>
		<path id="SVGID_7_" d="M-203.95834,420h-58.08331c-3.84299,0-6.95834-3.11536-6.95834-6.95831v-32.08334
			c0-3.84299,3.11536-6.95834,6.95834-6.95834h58.08331c3.84299,0,6.95834,3.11536,6.95834,6.95834v32.08334
			C-197,416.88464-200.11536,420-203.95834,420z"/>
	</defs>
	<clipPath id="SVGID_8_">
		<use xlink:href="#SVGID_7_"  style="overflow:visible;"/>
	</clipPath>
	<rect x="-279.67981" y="380.86343" class="st4" width="46.98067" height="8.01069"/>
</g>
<g>
	<defs>
		<path id="SVGID_9_" d="M-203.95834,420h-58.08331c-3.84299,0-6.95834-3.11536-6.95834-6.95831v-32.08334
			c0-3.84299,3.11536-6.95834,6.95834-6.95834h58.08331c3.84299,0,6.95834,3.11536,6.95834,6.95834v32.08334
			C-197,416.88464-200.11536,420-203.95834,420z"/>
	</defs>
	<clipPath id="SVGID_10_">
		<use xlink:href="#SVGID_9_"  style="overflow:visible;"/>
	</clipPath>
	<polygon class="st5" points="-279.67981,396.9241 -274.31372,396.88483 -232.69913,375.74554 -232.75826,373.01965 
		-238.0105,373.01965 -279.67981,394.27026 	"/>
</g>
<g>
	<defs>
		<path id="SVGID_11_" d="M-203.95834,420h-58.08331c-3.84299,0-6.95834-3.11536-6.95834-6.95831v-32.08334
			c0-3.84299,3.11536-6.95834,6.95834-6.95834h58.08331c3.84299,0,6.95834,3.11536,6.95834,6.95834v32.08334
			C-197,416.88464-200.11536,420-203.95834,420z"/>
	</defs>
	<clipPath id="SVGID_12_">
		<use xlink:href="#SVGID_11_"  style="overflow:visible;"/>
	</clipPath>
	<polygon class="st6" points="-279.67981,373.01965 -279.67981,375.74554 -237.90092,396.9241 -232.69913,396.88483 
		-232.69913,394.2146 -274.14948,373.01965 	"/>
</g>
<g>
	<defs>
		<path id="SVGID_13_" d="M-203.95834,420h-58.08331c-3.84299,0-6.95834-3.11536-6.95834-6.95831v-32.08334
			c0-3.84299,3.11536-6.95834,6.95834-6.95834h58.08331c3.84299,0,6.95834,3.11536,6.95834,6.95834v32.08334
			C-197,416.88464-200.11536,420-203.95834,420z"/>
	</defs>
	<clipPath id="SVGID_14_">
		<use xlink:href="#SVGID_13_"  style="overflow:visible;"/>
	</clipPath>
	<rect x="-258.54401" y="373.01965" class="st7" width="4.76377" height="23.86518"/>
</g>
<g>
	<defs>
		<path id="SVGID_15_" d="M-203.95834,420h-58.08331c-3.84299,0-6.95834-3.11536-6.95834-6.95831v-32.08334
			c0-3.84299,3.11536-6.95834,6.95834-6.95834h58.08331c3.84299,0,6.95834,3.11536,6.95834,6.95834v32.08334
			C-197,416.88464-200.11536,420-203.95834,420z"/>
	</defs>
	<clipPath id="SVGID_16_">
		<use xlink:href="#SVGID_15_"  style="overflow:visible;"/>
	</clipPath>
	<rect x="-279.67981" y="382.58798" class="st8" width="46.98067" height="4.72848"/>
</g>
<g>
	<defs>
		<path id="SVGID_17_" d="M-203.95834,420h-58.08331c-3.84299,0-6.95834-3.11536-6.95834-6.95831v-32.08334
			c0-3.84299,3.11536-6.95834,6.95834-6.95834h58.08331c3.84299,0,6.95834,3.11536,6.95834,6.95834v32.08334
			C-197,416.88464-200.11536,420-203.95834,420z"/>
	</defs>
	<clipPath id="SVGID_18_">
		<use xlink:href="#SVGID_17_"  style="overflow:visible;"/>
	</clipPath>
	<polyline class="st9" points="-279.67981,374.85541 -267.46918,380.9191 -264.18381,380.9191 -279.67981,373.01965 
		-279.67981,374.85541 	"/>
</g>
<g>
	<defs>
		<path id="SVGID_19_" d="M-203.95834,420h-58.08331c-3.84299,0-6.95834-3.11536-6.95834-6.95831v-32.08334
			c0-3.84299,3.11536-6.95834,6.95834-6.95834h58.08331c3.84299,0,6.95834,3.11536,6.95834,6.95834v32.08334
			C-197,416.88464-200.11536,420-203.95834,420z"/>
	</defs>
	<clipPath id="SVGID_20_">
		<use xlink:href="#SVGID_19_"  style="overflow:visible;"/>
	</clipPath>
	<polyline class="st10" points="-248.24982,388.98535 -232.69913,396.88483 -232.75826,394.92957 -244.74548,388.98535 
		-248.24982,388.98535 	"/>
</g>
<g>
	<defs>
		<path id="SVGID_21_" d="M-203.95834,420h-58.08331c-3.84299,0-6.95834-3.11536-6.95834-6.95831v-32.08334
			c0-3.84299,3.11536-6.95834,6.95834-6.95834h58.08331c3.84299,0,6.95834,3.11536,6.95834,6.95834v32.08334
			C-197,416.88464-200.11536,420-203.95834,420z"/>
	</defs>
	<clipPath id="SVGID_22_">
		<use xlink:href="#SVGID_21_"  style="overflow:visible;"/>
	</clipPath>
	<polyline class="st11" points="-236.20346,373 -251.69943,380.93875 -248.03076,380.93875 -232.69913,373 -236.20346,373 	"/>
</g>
<g>
	<defs>
		<path id="SVGID_23_" d="M-203.95834,420h-58.08331c-3.84299,0-6.95834-3.11536-6.95834-6.95831v-32.08334
			c0-3.84299,3.11536-6.95834,6.95834-6.95834h58.08331c3.84299,0,6.95834,3.11536,6.95834,6.95834v32.08334
			C-197,416.88464-200.11536,420-203.95834,420z"/>
	</defs>
	<clipPath id="SVGID_24_">
		<use xlink:href="#SVGID_23_"  style="overflow:visible;"/>
	</clipPath>
	<polyline class="st12" points="-264.18381,388.98535 -279.67981,396.9241 -276.01111,396.9241 -260.6795,388.98535 
		-264.18381,388.98535 	"/>
</g>
</svg>
