<?xml version="1.0" encoding="utf-8"?>
<!-- Generator: Adobe Illustrator 19.0.0, SVG Export Plug-In . SVG Version: 6.00 Build 0)  -->
<svg version="1.1" id="Layer_1" xmlns="http://www.w3.org/2000/svg" xmlns:xlink="http://www.w3.org/1999/xlink" x="0px" y="0px"
	 viewBox="-269 374 72 46" style="enable-background:new -269 374 72 46;" xml:space="preserve">
<style type="text/css">
	.st0{clip-path:url(#SVGID_2_);}
	.st1{fill:#E40520;}
	.st2{fill:#FFFFFF;}
	.st3{fill:#004A93;}
</style>
<g>
	<defs>
		<path id="SVGID_1_" d="M-204,420H-262c-3.8,0-7-3.1-7-7V381c0-3.8,3.1-7,7-7h58.1c3.8,0,7,3.1,7,7V413
			C-197,416.9-200.1,420-204,420z"/>
	</defs>
	<clipPath id="SVGID_2_">
		<use xlink:href="#SVGID_1_"  style="overflow:visible;"/>
	</clipPath>
	<g class="st0">
		<g>
			<polygon class="st1" points="-196.4,397.4 -269.6,397.4 -269.6,421.8 -196.4,421.8 			"/>
		</g>
		<g>
			<path d="M-196.3,421.9h-73.5v-24.7h73.5V421.9z M-269.5,421.7h73v-24.2h-73V421.7z"/>
		</g>
		<g>
			<polygon class="st2" points="-196.4,397.4 -245.2,397.4 -245.2,373 -196.4,373 			"/>
		</g>
		<g>
			<path d="M-196.3,397.5h-49.1v-24.7h49.1V397.5z M-245.1,397.3h48.6v-24.2h-48.6V397.3z"/>
		</g>
		<g>
			<polygon class="st3" points="-245.2,397.4 -245.2,373 -269.6,373 -269.6,397.4 			"/>
		</g>
		<g>
			<path d="M-245.1,397.5h-24.7v-24.7h24.7V397.5z M-269.5,397.3h24.2v-24.2h-24.2V397.3z"/>
		</g>
		<g>
			<polygon class="st2" points="-257.4,379.1 -258.8,383.3 -263.2,383.3 -259.6,385.9 -261,390.2 -257.4,387.5 -253.8,390.2 
				-255.2,385.9 -251.6,383.3 -256,383.3 			"/>
		</g>
	</g>
</g>
</svg>
