<?xml version="1.0" encoding="utf-8"?>
<!-- Generator: Adobe Illustrator 19.0.0, SVG Export Plug-In . SVG Version: 6.00 Build 0)  -->
<svg version="1.1" id="Layer_1" xmlns="http://www.w3.org/2000/svg" xmlns:xlink="http://www.w3.org/1999/xlink" x="0px" y="0px"
	 viewBox="-269 374 72 46" style="enable-background:new -269 374 72 46;" xml:space="preserve">
<style type="text/css">
	.st0{clip-path:url(#SVGID_2_);}
	.st1{fill:#E40520;}
	.st2{fill:#FFE247;}
	.st3{fill:#009E59;}
</style>
<g>
	<defs>
		<path id="SVGID_1_" d="M-204,420H-262c-3.8,0-7-3.1-7-7V381c0-3.8,3.1-7,7-7h58.1c3.8,0,7,3.1,7,7V413
			C-197,416.9-200.1,420-204,420z"/>
	</defs>
	<clipPath id="SVGID_2_">
		<use xlink:href="#SVGID_1_"  style="overflow:visible;"/>
	</clipPath>
	<g class="st0">
		<g>
			<polygon class="st1" points="-245.7,371.1 -245.7,421.9 -220.3,421.9 -220.3,371.1 			"/>
		</g>
		<g>
			<path d="M-220.2,422.1h-25.7v-51.1h25.7V422.1z M-245.6,421.8h25.2v-50.6h-25.2V421.8z"/>
		</g>
		<g>
			<polygon class="st2" points="-220.3,421.9 -220.3,371.1 -194.8,371.1 -194.8,421.9 			"/>
		</g>
		<g>
			<path d="M-194.7,422.1h-25.7v-51.1h25.7V422.1z M-220.2,421.8h25.2v-50.6h-25.2V421.8z"/>
		</g>
		<g>
			<polygon class="st3" points="-271.2,421.9 -271.2,371.1 -245.7,371.1 -245.7,421.9 			"/>
		</g>
		<g>
			<path d="M-245.6,422.1h-25.7v-51.1h25.7V422.1z M-271,421.8h25.2v-50.6H-271V421.8z"/>
		</g>
		<g>
			<polygon class="st2" points="-233,387.3 -235.1,393.6 -241.8,393.6 -236.3,397.6 -238.4,404 -233,400 -227.6,404 -229.6,397.6 
				-224.2,393.7 -230.9,393.7 			"/>
		</g>
		<g>
			<path d="M-238.6,404.2l2.2-6.5l-5.6-4.1h6.9l2.1-6.5l0.1,0.2l2.1,6.4h6.9l-5.6,4l2.1,6.6l-0.2-0.1l-5.4-3.9L-238.6,404.2z
				 M-233,400L-233,400l5.3,3.9l-2-6.3l0,0l5.3-3.8h-6.6l0,0l-2-6.2l-2,6.2h-6.6l5.4,3.9l0,0l-2,6.2L-233,400z"/>
		</g>
	</g>
</g>
</svg>
