<?xml version="1.0" encoding="utf-8"?>
<!-- Generator: Adobe Illustrator 19.0.0, SVG Export Plug-In . SVG Version: 6.00 Build 0)  -->
<svg version="1.1" id="Layer_1" xmlns="http://www.w3.org/2000/svg" xmlns:xlink="http://www.w3.org/1999/xlink" x="0px" y="0px"
	 viewBox="-269 374 72 46" style="enable-background:new -269 374 72 46;" xml:space="preserve">
<style type="text/css">
	.st0{clip-path:url(#SVGID_2_);}
	.st1{fill:#E40520;}
	.st2{fill:none;stroke:#000000;stroke-width:0.25;}
	.st3{fill:#FFE247;}
</style>
<g>
	<defs>
		<path id="SVGID_1_" d="M-204,420H-262c-3.8,0-7-3.1-7-7V381c0-3.8,3.1-7,7-7h58.1c3.8,0,7,3.1,7,7V413
			C-197,416.9-200.1,420-204,420z"/>
	</defs>
	<clipPath id="SVGID_2_">
		<use xlink:href="#SVGID_1_"  style="overflow:visible;"/>
	</clipPath>
	<g class="st0">
		<g>
			<polygon class="st1" points="-195.1,421.8 -195.1,371.2 -270.9,371.2 -270.9,421.8 			"/>
		</g>
		<g>
			<path d="M-195,421.9H-271v-50.8h76.1V421.9z M-270.8,421.6h75.6v-50.3h-75.6V421.6z"/>
		</g>
		<g>
			<path class="st1" d="M-233,396.5"/>
		</g>
		<g>
			<path class="st2" d="M-233,396.5"/>
		</g>
		<g>
			<polygon class="st3" points="-258.3,376.4 -259.9,381.6 -265.4,381.6 -261,384.8 -262.7,389.9 -258.3,386.7 -253.9,389.9 
				-255.6,384.7 -251.1,381.6 -256.6,381.6 			"/>
		</g>
		<g>
			<path d="M-262.8,390.1l1.8-5.3l-4.6-3.3h5.6l1.7-5.3l0.1,0.2l1.7,5.1h5.6l-4.5,3.2l1.7,5.3l-0.2-0.1l-4.4-3.2L-262.8,390.1z
				 M-258.3,386.6L-258.3,386.6l4.3,3.1l-1.6-5.1l0,0l4.3-3h-5.3l0,0l-1.6-5l-1.6,5h-5.3l4.3,3.1l0,0l-1.6,5L-258.3,386.6z"/>
		</g>
		<g>
			<polygon class="st3" points="-247.5,374.7 -246.6,376.2 -247.8,377.6 -246,377.2 -245.1,378.8 -244.9,377 -243.1,376.6 
				-244.8,375.8 -244.6,374 -245.8,375.4 			"/>
		</g>
		<g>
			<path d="M-245,379l-1-1.7l-1.9,0.4l1.3-1.5l-1-1.7l1.8,0.8l1.3-1.5l-0.2,2l1.8,0.8l-1.9,0.4L-245,379z M-246,377.1l0.8,1.4
				l0.2-1.7l1.6-0.4l-1.6-0.7l0.2-1.7l-1.1,1.3l-1.5-0.7l0.9,1.4l-1.1,1.3L-246,377.1z"/>
		</g>
		<g>
			<polygon class="st3" points="-241.6,379.1 -241.4,380.9 -243,381.7 -241.2,382 -241,383.8 -240.1,382.2 -238.3,382.5 
				-239.6,381.2 -238.7,379.6 -240.4,380.4 			"/>
		</g>
		<g>
			<path d="M-241,384l-0.3-2l-2-0.3l1.8-0.9l-0.3-2l1.4,1.4l1.8-0.9l-0.9,1.7l1.4,1.4l-1.9-0.3L-241,384z M-242.8,381.6l1.7,0.3l0,0
				l0.2,1.6l0.8-1.5l0,0l1.6,0.3l-1.2-1.2l0.8-1.5l-1.5,0.7l-1.2-1.2l0.2,1.7L-242.8,381.6z"/>
		</g>
		<g>
			<polygon class="st3" points="-243,388.2 -241.4,389.3 -242,391 -240.5,389.9 -239,391 -239.6,389.2 -238.2,388.1 -240,388.2 
				-240.6,386.4 -241.1,388.2 			"/>
		</g>
		<g>
			<path d="M-242.1,391.2l0.6-1.9l-1.6-1.1l2-0.1l0.6-1.9l0.6,1.9l2,0l-1.6,1.2l0.7,1.9l-1.6-1.1L-242.1,391.2z M-242.8,388.3
				l1.4,0.9l-0.5,1.6l1.3-1l1.4,1l-0.6-1.6l1.3-1l-1.7,0l-0.5-1.6l-0.5,1.6L-242.8,388.3z"/>
		</g>
		<g>
			<polygon class="st3" points="-247.6,392.4 -246.6,393.9 -247.7,395.3 -246,394.9 -245,396.4 -244.9,394.6 -243.1,394.1 
				-244.8,393.4 -244.7,391.6 -245.9,393 			"/>
		</g>
		<g>
			<path d="M-244.9,396.6l-1.1-1.7l-1.9,0.5l1.2-1.5l-1.1-1.6l1.9,0.7l1.2-1.5l-0.1,2l1.9,0.7l-1.9,0.5L-244.9,396.6z M-245.9,394.8
				l0.9,1.4l0.1-1.7l0,0l1.6-0.4l-1.6-0.6l0.1-1.7l-1.1,1.3l-1.6-0.6l0.9,1.4l-1.1,1.3L-245.9,394.8z"/>
		</g>
	</g>
</g>
</svg>
