<?xml version="1.0" encoding="utf-8"?>
<!-- Generator: Adobe Illustrator 19.0.0, SVG Export Plug-In . SVG Version: 6.00 Build 0)  -->
<svg version="1.1" id="Layer_1" xmlns="http://www.w3.org/2000/svg" xmlns:xlink="http://www.w3.org/1999/xlink" x="0px" y="0px"
	 viewBox="-269 374 72 46" style="enable-background:new -269 374 72 46;" xml:space="preserve">
<style type="text/css">
	.st0{clip-path:url(#SVGID_2_);}
	.st1{fill:#FFE247;}
	.st2{fill:#DC2F34;}
	.st3{fill:#0077BE;}
</style>
<g>
	<defs>
		<path id="SVGID_1_" d="M-204,420H-262c-3.8,0-7-3.1-7-7V381c0-3.8,3.1-7,7-7h58.1c3.8,0,7,3.1,7,7V413
			C-197,416.9-200.1,420-204,420z"/>
	</defs>
	<clipPath id="SVGID_2_">
		<use xlink:href="#SVGID_1_"  style="overflow:visible;"/>
	</clipPath>
	<g class="st0">
		<g>
			<polygon class="st1" points="-193.3,396.3 -272.7,396.3 -272.7,369.8 -193.3,369.8 			"/>
		</g>
		<g>
			<path d="M-193.2,396.4h-79.6v-26.7h79.6V396.4z M-272.6,396.2h79.1V370h-79.1V396.2z"/>
		</g>
		<g>
			<polygon class="st2" points="-193.3,422.8 -272.7,422.8 -272.7,409.5 -193.3,409.5 			"/>
		</g>
		<g>
			<path d="M-193.2,422.9h-79.6v-13.5h79.6V422.9z M-272.6,422.6h79.1v-13h-79.1V422.6z"/>
		</g>
		<g>
			<polygon class="st3" points="-193.3,409.5 -272.7,409.5 -272.7,396.3 -193.3,396.3 			"/>
		</g>
		<g>
			<path d="M-193.2,409.6h-79.6v-13.5h79.6V409.6z M-272.6,409.4h79.1v-13h-79.1V409.4z"/>
		</g>
	</g>
</g>
</svg>
