<?xml version="1.0" encoding="utf-8"?>
<!-- Generator: Adobe Illustrator 19.0.0, SVG Export Plug-In . SVG Version: 6.00 Build 0)  -->
<svg version="1.1" id="Layer_1" xmlns="http://www.w3.org/2000/svg" xmlns:xlink="http://www.w3.org/1999/xlink" x="0px" y="0px"
	 viewBox="-269 374 72 46" style="enable-background:new -269 374 72 46;" xml:space="preserve">
<style type="text/css">
	.st0{clip-path:url(#SVGID_2_);}
	.st1{fill:#E30520;}
	.st2{fill:#004287;}
	.st3{fill:#FFFFFF;}
	.st4{fill:#FFFFFF;stroke:#000000;stroke-width:0.125;}
	.st5{fill:#FFE366;}
	.st6{fill:none;}
	.st7{fill:#74B85B;}
	.st8{fill:#4ABDD1;}
	.st9{fill:#0087AB;}
	.st10{fill:#9A6527;}
	.st11{fill:#F5E500;}
	.st12{fill:#B6BD00;}
	.st13{fill:#003671;}
</style>
<g>
	<defs>
		<path id="SVGID_1_" d="M-204,420H-262c-3.8,0-7-3.1-7-7V381c0-3.8,3.1-7,7-7h58.1c3.8,0,7,3.1,7,7V413
			C-197,416.9-200.1,420-204,420z"/>
	</defs>
	<clipPath id="SVGID_2_">
		<use xlink:href="#SVGID_1_"  style="overflow:visible;"/>
	</clipPath>
	<g class="st0">
		<g>
			<rect x="-272" y="389.3" class="st1" width="78" height="15.6"/>
			<path d="M-193.9,405h-78.3v-15.9h78.3V405z M-271.9,404.8h77.8v-15.4h-77.8V404.8z"/>
		</g>
		<g>
			<g>
				<rect x="-272" y="373.7" class="st2" width="78" height="7.8"/>
				<path d="M-193.9,381.6h-78.3v-8.1h78.3V381.6z M-271.9,381.4h77.8v-7.6h-77.8V381.4z"/>
			</g>
			<g>
				<rect x="-272" y="412.7" class="st2" width="78" height="7.8"/>
				<path d="M-193.9,420.6h-78.3v-8.1h78.3V420.6z M-271.9,420.4h77.8v-7.6h-77.8V420.4z"/>
			</g>
		</g>
		<g>
			<g>
				<rect x="-272" y="381.5" class="st3" width="78" height="7.8"/>
				<path d="M-193.9,389.4h-78.3v-8.1h78.3V389.4z M-271.9,389.2h77.8v-7.6h-77.8V389.2z"/>
			</g>
			<g>
				<rect x="-272" y="404.9" class="st3" width="78" height="7.8"/>
				<path d="M-193.9,412.8h-78.3v-8.1h78.3V412.8z M-271.9,412.6h77.8V405h-77.8V412.6z"/>
			</g>
		</g>
		<g>
			<g>
				<ellipse class="st3" cx="-244.6" cy="397.1" rx="4" ry="5.9"/>
				<path d="M-244.6,403.1c-2.3,0-4.1-2.7-4.1-6c0-3.3,1.8-6,4.1-6c2.3,0,4.1,2.7,4.1,6C-240.5,400.4-242.3,403.1-244.6,403.1z
					 M-244.6,391.3c-2.2,0-4,2.6-4,5.9s1.8,5.9,4,5.9c2.2,0,4-2.6,4-5.9S-242.4,391.3-244.6,391.3z"/>
			</g>
			<g>
				<path class="st4" d="M-244.6,397.1"/>
			</g>
		</g>
		<g>
			<g>
				<path class="st5" d="M-244.6,393.6c0.2,0.2,0.6,0.8,1.2,0.7c0.2,0,0.4,0.1,0.5,0.2c0.1,0,0.2,0,0.2,0.1c0,0.1-0.1,0.2-0.1,0.1
					c0.1,0.2,0.8,0.1,1,0.5c-0.1,0-0.2-0.1-0.2-0.1l0.1,0.2c0.1,0,0.2,0.1,0.3,0.2c0.1,0.1,0.1,0.4,0.2,0.5c0,0.1,0,0.1,0,0.1
					c0,0.1,0,0.2-0.2,0.2c-0.1,0-0.2-0.1-0.2-0.1l-0.1-0.1c-0.1,0-0.2,0-0.3,0.1c-0.2,0.1-0.2,0.3-0.1,0.5c0.1,0.2,0.3,0.3,0.6,0.1
					c0.3-0.1,0.5,0,0.6,0.3c0.4,1.1-0.3,2-1.1,2.5c-0.8,0.5-1,0.7-1.2,0.9c-0.2,0.3-0.4,0.6-0.8,0.6c0,0-0.1,0-0.1,0
					c-0.2,0-0.2,0.1-0.5,0.1c-0.3,0-0.3-0.1-0.5-0.1c0,0-0.1,0-0.1,0c-0.3,0-0.5-0.3-0.8-0.6c-0.2-0.3-0.4-0.4-1.2-0.9
					c-0.8-0.5-1.5-1.4-1.1-2.5c0.1-0.2,0.4-0.4,0.6-0.3c0.3,0.1,0.5,0,0.6-0.1c0.1-0.2,0.1-0.4-0.1-0.5c-0.1-0.1-0.2-0.1-0.3-0.1
					l-0.1,0.1c0,0.1-0.1,0.1-0.2,0.1c-0.1,0-0.2-0.1-0.2-0.2c0,0,0-0.1,0-0.1c0.1-0.1,0.1-0.3,0.2-0.5c0.1-0.1,0.2-0.2,0.3-0.2
					l0.1-0.2c-0.1,0-0.2,0-0.2,0.1c0.3-0.4,1-0.3,1-0.5c-0.1,0-0.2-0.1-0.1-0.1c0-0.1,0.1-0.1,0.2-0.1c0.1-0.1,0.3-0.1,0.5-0.2
					C-245.2,394.4-244.8,393.9-244.6,393.6z"/>
				<path d="M-244.6,401.2c-0.2,0-0.3,0-0.3,0c-0.1,0-0.1,0-0.2,0c-0.1,0-0.1,0-0.2,0c-0.3,0-0.5-0.3-0.8-0.5l-0.1-0.1
					c-0.2-0.3-0.4-0.4-1.2-0.9c-1-0.7-1.5-1.6-1.1-2.6c0-0.1,0.2-0.2,0.3-0.3c0.1-0.1,0.3-0.1,0.4,0c0.3,0.1,0.5,0,0.6-0.1
					c0.1-0.2,0-0.3-0.1-0.4c-0.1,0-0.1-0.1-0.2-0.1l0,0.1c0,0.1-0.1,0.2-0.2,0.2c-0.1,0-0.2-0.1-0.2-0.2c0,0,0-0.1,0.1-0.2
					c0-0.1,0.1-0.3,0.2-0.4l0-0.1c0.1-0.2,0.2-0.2,0.3-0.2l0,0c0,0-0.1,0-0.1,0l-0.2,0.1l0.1-0.2c0.2-0.3,0.5-0.3,0.7-0.4
					c0.1,0,0.2,0,0.2-0.1c0,0,0,0,0,0c0,0-0.1-0.1,0-0.2c0-0.1,0.2-0.2,0.3-0.2c0.1-0.1,0.3-0.1,0.5-0.2l0,0l0,0
					c0.6,0.1,0.9-0.4,1.1-0.6l0.1-0.1l0.1,0.1c0.2,0.3,0.6,0.7,1.1,0.6l0,0l0,0c0.2,0,0.4,0.1,0.5,0.2c0.1,0,0.2,0.1,0.3,0.2
					c0,0.1,0,0.1,0,0.2c0,0,0,0,0,0c0.1,0,0.1,0,0.2,0.1c0.2,0.1,0.6,0.1,0.7,0.4l0.1,0.2l-0.2-0.1c0,0-0.1,0-0.1,0l0,0
					c0.1,0,0.2,0.1,0.3,0.2l0,0.1c0.1,0.1,0.1,0.3,0.2,0.4c0.1,0.1,0.1,0.1,0.1,0.2c0,0.1-0.1,0.2-0.2,0.2c-0.1,0-0.2-0.1-0.2-0.2
					l0-0.1c-0.1,0-0.1,0-0.2,0.1c-0.1,0.1-0.2,0.3-0.1,0.4c0.1,0.1,0.2,0.2,0.6,0.1c0.1-0.1,0.3-0.1,0.4,0c0.1,0.1,0.2,0.2,0.3,0.3
					c0.3,0.9-0.1,1.9-1.1,2.6c-0.8,0.5-1,0.7-1.2,0.9l-0.1,0.1c-0.2,0.3-0.4,0.5-0.8,0.5c-0.1,0-0.1,0-0.2,0c-0.1,0-0.1,0-0.2,0
					C-244.3,401.2-244.4,401.2-244.6,401.2z M-245.1,401L-245.1,401c0.1,0,0.2,0,0.2,0c0.1,0,0.1,0,0.3,0s0.2,0,0.3,0
					c0.1,0,0.1,0,0.2,0h0l0,0c0,0,0.1,0,0.1,0c0.3,0,0.5-0.2,0.7-0.5l0.1-0.1c0.2-0.3,0.4-0.4,1.2-1c0.5-0.3,1.5-1.2,1.1-2.4
					c0-0.1-0.1-0.2-0.2-0.2c-0.1,0-0.2,0-0.3,0c-0.4,0.2-0.6,0-0.7-0.2c-0.1-0.2-0.1-0.5,0.1-0.6c0.1-0.1,0.2-0.1,0.3-0.1l0,0
					l0.1,0.2v0c0,0,0,0.1,0.1,0.1c0.1,0,0.1-0.1,0.1-0.1c0,0,0,0,0-0.1c-0.1-0.1-0.1-0.3-0.2-0.4l0-0.1c0-0.1-0.1-0.1-0.2-0.2l0,0
					l0,0l-0.1-0.2l0.1,0c0,0,0,0,0,0c-0.1-0.1-0.3-0.1-0.5-0.2c-0.2,0-0.4-0.1-0.4-0.2l0-0.1l0.1,0c0,0,0,0,0.1,0c0,0,0,0,0,0
					c0-0.1-0.1-0.1-0.2-0.1l0,0l0,0c-0.1-0.1-0.3-0.1-0.5-0.2c-0.6,0.1-1-0.4-1.2-0.6c-0.2,0.3-0.6,0.7-1.2,0.6
					c-0.2,0-0.3,0.1-0.5,0.2l0,0l0,0c-0.1,0-0.1,0-0.2,0.1c0,0,0,0,0,0c0,0,0,0,0.1,0l0.1,0l0,0.1c0,0.1-0.2,0.2-0.4,0.2
					c-0.2,0-0.3,0.1-0.5,0.2c0,0,0,0,0,0l0.1,0l-0.1,0.3l0,0c-0.1,0-0.2,0.1-0.2,0.2l0,0.1c-0.1,0.1-0.1,0.3-0.2,0.4
					c0,0.1,0,0.1,0,0.1c0,0,0,0.1,0.1,0.1c0.1,0,0.1,0,0.1-0.1v0l0.1-0.2l0,0c0.1,0,0.2,0.1,0.3,0.1c0.2,0.1,0.2,0.4,0.1,0.6
					c-0.1,0.2-0.3,0.3-0.7,0.2c-0.1,0-0.2,0-0.3,0c-0.1,0-0.2,0.1-0.2,0.2c-0.5,1.3,0.6,2.1,1.1,2.4c0.8,0.5,1,0.7,1.2,1l0.1,0.1
					c0.2,0.2,0.4,0.5,0.7,0.5C-245.2,401.1-245.2,401.1-245.1,401L-245.1,401z"/>
			</g>
			<g>
				<g>
					<path d="M-244.7,400.4c-0.2-0.3-0.7-0.2-1.5-0.7c-0.9-0.5-1.1-1.7-0.8-2.4c0.3-0.5,0.4-0.9,0.1-1.7c0-0.1-0.4-0.1-0.1,0.2
						c0.3,0.4,0.4,1.1-0.1,1.3c-0.2,0.1-0.3,0.2-0.5,0.1c-0.2,0-0.4,0-0.4,0.3c-0.1,1.1,0.8,2.2,1.7,2.4c0.3,0.1,1.1,0.3,1.3,0.5
						C-244.9,400.4-244.8,400.4-244.7,400.4z"/>
					<path d="M-245,400.5L-245,400.5c-0.2-0.2-0.8-0.4-1.3-0.5c-1-0.2-1.9-1.3-1.8-2.5c0-0.4,0.4-0.4,0.5-0.3c0.2,0,0.3,0,0.5-0.1
						c0.1-0.1,0.2-0.2,0.3-0.4c0.1-0.3,0-0.6-0.2-0.9c-0.1-0.1-0.1-0.2-0.1-0.3c0,0,0.1-0.1,0.2-0.1c0.1,0,0.1,0,0.2,0.1
						c0.3,0.9,0.1,1.2-0.1,1.7c-0.3,0.7-0.1,1.8,0.7,2.3c0.4,0.2,0.7,0.3,1,0.4c0.2,0.1,0.4,0.1,0.5,0.3l0.1,0.1l-0.1,0
						C-244.8,400.5-244.9,400.5-245,400.5L-245,400.5z M-247.7,397.3c-0.2,0-0.3,0.1-0.3,0.2c-0.1,1.1,0.8,2.1,1.7,2.3
						c0,0,0.1,0,0.2,0c-0.1,0-0.1-0.1-0.2-0.1c-0.9-0.5-1.2-1.8-0.8-2.5c0-0.1,0.1-0.1,0.1-0.2c0,0,0,0-0.1,0
						C-247.2,397.3-247.4,397.3-247.7,397.3C-247.6,397.3-247.7,397.3-247.7,397.3z"/>
				</g>
				<g>
					<path d="M-244.4,400.4c0.2-0.3,0.7-0.2,1.5-0.7c0.9-0.5,1.1-1.7,0.8-2.4c-0.3-0.5-0.4-0.9-0.1-1.7c0-0.1,0.4-0.1,0.1,0.2
						c-0.3,0.4-0.4,1.1,0.1,1.3c0.2,0.1,0.3,0.2,0.5,0.1c0.2,0,0.4,0,0.4,0.3c0.1,1.1-0.8,2.2-1.7,2.4c-0.3,0.1-1.1,0.3-1.3,0.5
						C-244.2,400.4-244.4,400.4-244.4,400.4z"/>
					<path d="M-244.1,400.5L-244.1,400.5c-0.1,0-0.2,0-0.3-0.1l-0.1,0l0.1-0.1c0.1-0.2,0.3-0.2,0.5-0.3c0.3-0.1,0.6-0.1,1-0.4
						c0.9-0.5,1.1-1.6,0.7-2.3c-0.3-0.5-0.4-0.9-0.1-1.7c0-0.1,0.1-0.1,0.2-0.1c0.1,0,0.1,0,0.2,0.1c0,0.1,0,0.2-0.1,0.3
						c-0.2,0.3-0.3,0.6-0.2,0.9c0,0.2,0.1,0.3,0.3,0.4c0.2,0.1,0.3,0.1,0.5,0.1c0.1,0,0.4,0,0.5,0.3c0.1,1.2-0.8,2.3-1.8,2.5
						C-243.3,400.1-244,400.3-244.1,400.5L-244.1,400.5z M-242.2,397.1c0,0.1,0.1,0.1,0.1,0.2c0.4,0.8,0.1,2-0.8,2.5
						c-0.1,0-0.1,0.1-0.2,0.1c0.1,0,0.1,0,0.2,0c0.9-0.2,1.8-1.2,1.7-2.3c0-0.2-0.1-0.3-0.3-0.2
						C-241.8,397.3-241.9,397.3-242.2,397.1C-242.1,397.2-242.2,397.1-242.2,397.1z"/>
				</g>
			</g>
			<g>
				<g>
					<path d="M-247.2,395.1l-0.1-0.1c0.1-0.1,0.3-0.1,0.5-0.1c0.2,0,0.4,0,0.5-0.2c0-0.1,0-0.1,0-0.2c0,0,0-0.1-0.1-0.1l0-0.1
						c0.1,0,0.1,0.1,0.2,0.1c0,0.1,0,0.2,0,0.3c-0.1,0.2-0.4,0.2-0.6,0.2C-246.9,395.1-247.1,395.1-247.2,395.1z"/>
				</g>
				<g>
					<path class="st6" d="M-246.4,394.8c0.1,0,0.1-0.1,0.1-0.2"/>
				</g>
				<g>
					<path d="M-245.2,400.9c-0.4,0-0.6-0.2-0.8-0.5c-0.1-0.2-0.3-0.3-0.5-0.5l0.1-0.1c0.2,0.2,0.4,0.3,0.5,0.5
						c0.2,0.2,0.4,0.4,0.7,0.4L-245.2,400.9z"/>
				</g>
				<g>
					<path d="M-245.3,401c-0.3,0-0.5-0.2-0.8-0.6c-0.1-0.2-0.5-0.5-1.1-0.9c-1-0.6-1.3-1.8-1-2.4c0.1-0.2,0.3-0.2,0.5-0.2
						c0.2,0,0.4,0,0.6-0.1c0.1-0.1,0.2-0.2,0.2-0.4c0-0.1-0.1-0.3-0.2-0.4c-0.1-0.1-0.2-0.1-0.3-0.1c-0.1,0-0.2,0-0.3,0.1l-0.1-0.1
						c0.1-0.1,0.2-0.1,0.4-0.1c0.1,0,0.3,0.1,0.4,0.2c0.1,0.1,0.2,0.3,0.2,0.5c0,0.2-0.1,0.3-0.2,0.5c-0.2,0.1-0.5,0.2-0.7,0.1
						c-0.1,0-0.3,0-0.3,0.1c-0.3,0.6,0,1.6,0.9,2.2c0.6,0.4,1,0.7,1.2,0.9c0.3,0.4,0.5,0.6,0.8,0.5l0,0.1
						C-245.2,401-245.3,401-245.3,401z"/>
				</g>
				<g>
					<path class="st6" d="M-247.7,396.1c0.1-0.1,0.2,0,0.2,0.1"/>
				</g>
				<g>
					<path class="st6" d="M-247.6,396.1c0,0,0.1,0,0.1,0"/>
				</g>
				<g>
					<path d="M-245.1,401.1l-0.1-0.1c0,0,0.1-0.1,0.1-0.1c0-0.1,0-0.2,0-0.3c0,0-0.1,0-0.1,0c0,0,0,0,0,0c0,0,0,0,0.1,0
						c0.1,0,0.1,0.1,0.1,0.1c0,0.1,0,0.1-0.1,0.1c0,0-0.1,0-0.2,0c-0.1,0-0.1,0-0.1-0.1c0-0.1,0-0.1,0-0.2c0-0.1,0.1-0.1,0.1-0.1
						c0.1,0,0.1,0,0.2,0c0.2,0.1,0.2,0.3,0.1,0.4C-244.9,401-245,401.1-245.1,401.1z"/>
				</g>
				<g>
					<path d="M-242,395.1c-0.1-0.1-0.3-0.1-0.4-0.1c-0.2,0-0.5,0-0.6-0.2c-0.1-0.1-0.1-0.2,0-0.3c0-0.1,0.1-0.1,0.2-0.1l0,0.1
						c0,0-0.1,0-0.1,0.1c0,0,0,0.1,0,0.2c0.1,0.1,0.3,0.1,0.5,0.2c0.2,0,0.4,0,0.5,0.1L-242,395.1z"/>
				</g>
				<g>
					<path class="st6" d="M-242.8,394.8c-0.1,0-0.1-0.1-0.1-0.2"/>
				</g>
				<g>
					<path d="M-244,400.9l0-0.1c0.3,0,0.5-0.2,0.7-0.4c0.1-0.2,0.3-0.3,0.5-0.5l0.1,0.1c-0.2,0.2-0.4,0.3-0.5,0.5
						C-243.4,400.7-243.6,400.9-244,400.9z"/>
				</g>
				<g>
					<path d="M-243.9,401c-0.1,0-0.1,0-0.2,0l0-0.1c0.3,0.1,0.5-0.1,0.8-0.5c0.1-0.2,0.5-0.5,1.2-0.9c0.9-0.6,1.3-1.6,0.9-2.2
						c-0.1-0.1-0.2-0.2-0.3-0.1c-0.2,0.1-0.5,0-0.7-0.1c-0.1-0.1-0.2-0.3-0.2-0.5c0-0.2,0.1-0.4,0.2-0.5c0.1-0.1,0.2-0.2,0.4-0.2
						c0.2,0,0.3,0.1,0.4,0.1l-0.1,0.1c0-0.1-0.1-0.1-0.3-0.1c-0.1,0-0.2,0.1-0.3,0.1c-0.1,0.1-0.2,0.3-0.2,0.4
						c0,0.2,0.1,0.3,0.2,0.4c0.2,0.1,0.4,0.1,0.6,0.1c0.1,0,0.4,0,0.5,0.2c0.3,0.6,0,1.8-1,2.4c-0.6,0.4-1,0.7-1.1,0.9
						C-243.3,400.8-243.6,401-243.9,401z"/>
				</g>
				<g>
					<path class="st6" d="M-241.5,396.1c-0.1-0.1-0.2,0-0.2,0.1"/>
				</g>
				<g>
					<path d="M-243.8,400.7h-0.1c0-0.2-0.3-0.3-0.7-0.3s-0.7,0.1-0.7,0.3h-0.1c0-0.3,0.4-0.4,0.8-0.4S-243.8,400.4-243.8,400.7z"/>
				</g>
				<g>
					<path class="st6" d="M-241.6,396.1c0,0-0.1,0-0.1,0"/>
				</g>
				<g>
					<path d="M-244.1,401.1c-0.1,0-0.1-0.1-0.2-0.2c-0.1-0.1-0.1-0.4,0.1-0.4c0.1,0,0.2,0,0.2,0c0.1,0,0.1,0.1,0.1,0.1
						c0,0.1,0,0.1,0,0.2c0,0-0.1,0.1-0.1,0.1c-0.1,0-0.1,0-0.2,0c0,0-0.1-0.1-0.1-0.1c0-0.1,0.1-0.1,0.1-0.1c0,0,0,0,0.1,0
						c0,0,0,0,0,0c0,0-0.1,0-0.1,0c-0.1,0-0.1,0.2,0,0.3c0,0,0.1,0.1,0.1,0.1L-244.1,401.1z"/>
				</g>
				<g>
					<path d="M-244.6,401.2c-0.2,0-0.2-0.1-0.3-0.1c0,0-0.1-0.1-0.1-0.1v-0.1c0.1,0,0.2,0.1,0.2,0.1c0.1,0,0.1,0.1,0.2,0.1
						c0.1,0,0.1,0,0.2-0.1c0,0,0.1-0.1,0.2-0.1v0.1c0,0-0.1,0-0.1,0.1C-244.4,401.2-244.4,401.2-244.6,401.2z"/>
				</g>
			</g>
			<g>
				<g>
					<path class="st5" d="M-244.6,400.7c-0.1,0-0.1,0.2,0,0.2C-244.5,400.9-244.5,400.7-244.6,400.7z"/>
				</g>
				<g>
					<path class="st5" d="M-244.4,400.7c-0.1,0-0.1,0.1,0,0.1C-244.3,400.9-244.3,400.7-244.4,400.7z"/>
				</g>
				<g>
					<path class="st5" d="M-244.5,401c0-0.1-0.1-0.1-0.1,0C-244.6,401.1-244.5,401.1-244.5,401z"/>
				</g>
				<g>
					<path class="st5" d="M-244.8,400.9c0.1,0,0.1-0.1,0-0.1C-244.9,400.7-244.9,400.9-244.8,400.9z"/>
				</g>
				<g>
					<path class="st5" d="M-244.6,400.6c0,0.1,0.1,0.1,0.1,0C-244.5,400.5-244.6,400.5-244.6,400.6z"/>
				</g>
			</g>
			<g>
				<path d="M-244.6,397.1"/>
			</g>
			<g>
				<g>
					<g>
						<path class="st7" d="M-244.9,394.8c0.2-0.1,0.3-0.3,0.4-0.4c0.1-0.2,0.1-0.1,0.2-0.1C-244.4,394.5-244.6,394.7-244.9,394.8
							L-244.9,394.8z"/>
						<path d="M-244.8,394.8l-0.1-0.1L-244.8,394.8c0.1-0.2,0.3-0.3,0.3-0.4c0.1-0.1,0.1-0.1,0.2-0.1c0,0,0,0,0,0l0.1,0l0,0.1
							C-244.4,394.5-244.6,394.7-244.8,394.8L-244.8,394.8z M-244.8,394.8L-244.8,394.8c0.1-0.1,0.3-0.3,0.5-0.4c0,0,0,0,0,0
							c0,0,0,0-0.1,0.1C-244.5,394.5-244.7,394.7-244.8,394.8z"/>
					</g>
					<g>
						<path class="st7" d="M-246.1,395.1c-0.4-0.2-0.5,0-0.6,0C-246.6,395.2-246.5,395.4-246.1,395.1z"/>
						<path d="M-246.5,395.3c-0.1,0-0.2,0-0.2-0.1c0,0,0,0-0.1,0l0,0c0,0,0,0,0.1,0c0.1-0.1,0.3-0.2,0.6,0l0,0l0,0
							C-246.3,395.2-246.4,395.3-246.5,395.3z M-246.7,395.2C-246.7,395.2-246.7,395.2-246.7,395.2c0.1,0.1,0.2,0.1,0.5,0
							C-246.4,395-246.6,395.1-246.7,395.2C-246.7,395.2-246.7,395.2-246.7,395.2z"/>
					</g>
					<g>
						<path class="st7" d="M-246,395c-0.4-0.2-0.5,0-0.6,0C-246.5,395-246.4,395.2-246,395z"/>
						<path d="M-246.3,395.1c-0.1,0-0.2,0-0.2-0.1c0,0,0,0-0.1,0l0,0c0,0,0,0,0.1,0c0.1-0.1,0.3-0.1,0.6,0.1l0,0l0,0
							C-246.1,395.1-246.2,395.1-246.3,395.1z M-246.5,395C-246.5,395-246.5,395-246.5,395c0.1,0.1,0.2,0.1,0.5,0
							C-246.2,394.9-246.4,394.9-246.5,395C-246.5,395-246.5,395-246.5,395z"/>
					</g>
					<g>
						<path class="st7" d="M-245.7,394.9c-0.4-0.3-0.5,0-0.6,0C-246.2,394.9-246.1,395-245.7,394.9z"/>
						<path d="M-246,395c-0.1,0-0.2,0-0.2-0.1c0,0,0,0-0.1,0l0,0c0,0,0,0,0.1,0c0.1,0,0.3-0.1,0.6,0.1l0,0l0,0
							C-245.8,395-245.9,395-246,395z M-246.2,394.8C-246.2,394.8-246.2,394.8-246.2,394.8c0.1,0.1,0.2,0.1,0.5,0
							C-246,394.7-246.1,394.8-246.2,394.8C-246.2,394.8-246.2,394.8-246.2,394.8z"/>
					</g>
					<g>
						<path class="st7" d="M-245.5,394.7c-0.3-0.3-0.5-0.1-0.6-0.1C-246,394.7-245.9,394.9-245.5,394.7z"/>
						<path d="M-245.8,394.8c-0.2,0-0.2-0.1-0.3-0.1c0,0,0,0-0.1,0l0,0c0,0,0,0,0,0c0,0,0,0,0.1,0c0.1,0,0.3-0.1,0.5,0.1l0,0l0,0
							C-245.6,394.8-245.7,394.8-245.8,394.8z M-246,394.6C-246,394.7-246,394.7-246,394.6c0.1,0.1,0.2,0.2,0.5,0.1
							C-245.8,394.6-245.9,394.6-246,394.6C-246,394.6-246,394.6-246,394.6z"/>
					</g>
					<g>
						<path class="st7" d="M-245.2,394.6c-0.3-0.3-0.5-0.1-0.6-0.1C-245.7,394.6-245.7,394.7-245.2,394.6z"/>
						<path d="M-245.5,394.7c-0.2,0-0.3-0.1-0.3-0.1c0,0,0,0-0.1,0l0,0c0,0,0,0,0.1,0c0.1,0,0.3-0.1,0.5,0.2l0,0l0,0
							C-245.3,394.7-245.4,394.7-245.5,394.7z M-245.7,394.5C-245.7,394.5-245.7,394.5-245.7,394.5c0.1,0.1,0.2,0.2,0.5,0.1
							C-245.5,394.4-245.6,394.5-245.7,394.5C-245.7,394.5-245.7,394.5-245.7,394.5z"/>
					</g>
					<g>
						<path class="st7" d="M-244.9,394.6c-0.3-0.4-0.5-0.2-0.6-0.2C-245.4,394.5-245.4,394.6-244.9,394.6z"/>
						<path d="M-245,394.6c-0.3,0-0.4-0.1-0.5-0.2c0,0,0,0,0-0.1l0,0c0,0,0,0,0.1,0c0.1,0,0.3,0,0.5,0.2l0,0L-245,394.6
							C-245,394.6-245,394.6-245,394.6z M-245.4,394.4C-245.4,394.4-245.4,394.4-245.4,394.4c0.1,0.1,0.1,0.2,0.4,0.2c0,0,0,0,0,0
							C-245.2,394.4-245.3,394.4-245.4,394.4C-245.4,394.4-245.4,394.4-245.4,394.4z"/>
					</g>
					<g>
						<path class="st7" d="M-244.9,394.6c0-0.1-0.2-0.2-0.2-0.2c0,0,0,0,0-0.1c0,0,0,0-0.1,0c0,0,0,0.1,0,0.1
							C-245,394.5-244.9,394.6-244.9,394.6"/>
					</g>
					<g>
						<path class="st7" d="M-244.3,394.8c-0.2-0.1-0.3-0.3-0.4-0.4c-0.1-0.2-0.1-0.1-0.2-0.1C-244.7,394.5-244.5,394.7-244.3,394.8
							L-244.3,394.8z"/>
						<path d="M-244.4,394.8L-244.4,394.8c-0.2-0.1-0.4-0.3-0.5-0.5l0-0.1l0.1,0c0,0,0,0,0,0c0.1,0,0.1,0,0.2,0.1
							C-244.7,394.5-244.5,394.6-244.4,394.8l0.1-0.1L-244.4,394.8z M-244.9,394.3c0.2,0.2,0.3,0.3,0.5,0.4l0,0
							c-0.1-0.1-0.3-0.2-0.4-0.4C-244.8,394.3-244.8,394.3-244.9,394.3C-244.9,394.3-244.9,394.3-244.9,394.3z"/>
					</g>
					<g>
						<path class="st7" d="M-243.1,395.1c0.4-0.2,0.5,0,0.6,0C-242.6,395.2-242.6,395.4-243.1,395.1z"/>
						<path d="M-242.7,395.3c-0.1,0-0.2,0-0.4-0.1l0,0l0,0c0.3-0.2,0.5-0.1,0.6,0c0,0,0,0,0.1,0l0,0c0,0,0,0-0.1,0
							C-242.6,395.2-242.6,395.3-242.7,395.3z M-243,395.1c0.3,0.1,0.4,0.1,0.5,0c0,0,0,0,0,0c0,0,0,0,0,0
							C-242.6,395.1-242.8,395-243,395.1z"/>
					</g>
					<g>
						<path class="st7" d="M-243.2,395c0.4-0.2,0.5,0,0.6,0C-242.7,395-242.8,395.2-243.2,395z"/>
						<path d="M-242.9,395.1c-0.1,0-0.2,0-0.3-0.1l0,0l0,0c0.3-0.2,0.5-0.1,0.6-0.1c0,0,0.1,0,0.1,0l0,0c0,0,0,0-0.1,0
							C-242.7,395.1-242.8,395.1-242.9,395.1z M-243.2,395c0.3,0.1,0.4,0,0.5,0c0,0,0,0,0,0c0,0,0,0,0,0
							C-242.8,394.9-242.9,394.9-243.2,395z"/>
					</g>
					<g>
						<path class="st7" d="M-243.5,394.9c0.4-0.3,0.5,0,0.6,0C-243,394.9-243,395-243.5,394.9z"/>
						<path d="M-243.2,395c-0.1,0-0.2,0-0.3-0.1l0,0l0,0c0.3-0.2,0.5-0.1,0.6-0.1c0,0,0.1,0,0.1,0l0,0c0,0,0,0-0.1,0
							C-243,394.9-243,395-243.2,395z M-243.4,394.9c0.3,0.1,0.4,0,0.5,0c0,0,0,0,0,0c0,0,0,0,0,0
							C-243.1,394.8-243.2,394.7-243.4,394.9z"/>
					</g>
					<g>
						<path class="st7" d="M-243.7,394.7c0.3-0.3,0.5-0.1,0.6-0.1C-243.2,394.7-243.2,394.9-243.7,394.7z"/>
						<path d="M-243.4,394.8c-0.1,0-0.2,0-0.3,0l0,0l0,0c0.3-0.2,0.4-0.2,0.5-0.1c0,0,0.1,0,0.1,0c0,0,0,0,0,0l0,0c0,0,0,0-0.1,0
							C-243.2,394.7-243.3,394.8-243.4,394.8z M-243.6,394.7c0.3,0.1,0.4,0,0.5-0.1c0,0,0,0,0,0c0,0,0,0,0,0
							C-243.3,394.6-243.4,394.6-243.6,394.7z"/>
					</g>
					<g>
						<path class="st7" d="M-244,394.6c0.3-0.3,0.5-0.1,0.6-0.1C-243.5,394.6-243.5,394.7-244,394.6z"/>
						<path d="M-243.7,394.7c-0.1,0-0.1,0-0.2,0l0,0l0,0c0.2-0.2,0.4-0.2,0.5-0.2c0,0,0,0,0.1,0c0,0,0,0,0,0l0,0c0,0,0,0-0.1,0
							C-243.5,394.6-243.5,394.7-243.7,394.7z M-243.9,394.6c0.3,0.1,0.4,0,0.5-0.1c0,0,0,0,0,0c0,0,0,0,0,0
							C-243.6,394.5-243.7,394.4-243.9,394.6z"/>
					</g>
					<g>
						<path class="st7" d="M-244.3,394.6c0.3-0.4,0.5-0.2,0.6-0.2C-243.8,394.5-243.8,394.6-244.3,394.6z"/>
						<path d="M-244.2,394.6C-244.2,394.6-244.2,394.6-244.2,394.6l-0.1,0l0,0c0.2-0.3,0.4-0.3,0.5-0.2c0,0,0.1,0,0.1,0l0,0
							c0,0,0,0,0,0.1C-243.8,394.5-243.9,394.6-244.2,394.6z M-244.2,394.6C-244.2,394.6-244.2,394.6-244.2,394.6
							c0.3,0,0.4-0.1,0.4-0.2c0,0,0,0,0,0c0,0,0,0,0,0C-243.9,394.4-244,394.4-244.2,394.6z"/>
					</g>
					<g>
						<path class="st7" d="M-244.3,394.6c0-0.1,0.2-0.2,0.2-0.2c0,0,0,0,0-0.1c0,0,0,0,0.1,0c0,0,0,0.1,0,0.1
							C-244.2,394.5-244.2,394.6-244.3,394.6"/>
						<path d="M-244.2,394.6L-244.2,394.6C-244.3,394.6-244.3,394.6-244.2,394.6L-244.2,394.6c-0.1-0.1,0-0.1,0-0.2c0,0,0,0,0,0
							c0,0,0,0,0,0c0,0,0-0.1,0-0.1c0,0,0,0,0,0c0,0,0,0,0,0c0,0,0,0,0.1,0c0,0,0,0,0,0.1c0,0,0,0,0,0.1
							C-244.2,394.5-244.2,394.6-244.2,394.6z"/>
					</g>
				</g>
				<g>
					<g>
						<path class="st6" d="M-246.5,395.2c0.1,0,0.2,0,0.3,0"/>
					</g>
					<g>
						<path class="st6" d="M-246.3,395c0.1,0,0.2,0,0.3,0"/>
					</g>
					<g>
						<path class="st6" d="M-246,394.9c0.1,0,0.2,0,0.3,0"/>
					</g>
					<g>
						<path class="st6" d="M-245.8,394.7c0.1,0,0.2,0,0.3,0"/>
					</g>
					<g>
						<path class="st6" d="M-245.6,394.6c0.1,0,0.2,0,0.3,0.1"/>
					</g>
					<g>
						<path class="st6" d="M-245.3,394.5c0.1,0,0.2,0.1,0.3,0.1"/>
					</g>
					<g>
						<path class="st6" d="M-242.7,395.2c-0.1,0-0.2,0-0.3,0"/>
					</g>
					<g>
						<path class="st6" d="M-242.9,395c-0.1,0-0.2,0-0.3,0"/>
					</g>
					<g>
						<path class="st6" d="M-243.1,394.9c-0.1,0-0.2,0-0.3,0"/>
					</g>
					<g>
						<path class="st6" d="M-243.4,394.7c-0.1,0-0.2,0-0.3,0"/>
					</g>
					<g>
						<path class="st6" d="M-243.6,394.6c-0.1,0-0.2,0-0.3,0.1"/>
					</g>
					<g>
						<path class="st6" d="M-243.9,394.5c-0.1,0-0.2,0.1-0.3,0.1"/>
					</g>
				</g>
			</g>
			<g>
				<path class="st8" d="M-246.8,397c0.1-0.3,0.2-0.8,0-1.4c0.7-0.4,1.1-0.8,2.2-0.8c1.1,0,1.6,0.3,2.2,0.8c-0.1,0.6-0.1,1,0,1.4
					H-246.8z"/>
			</g>
			<g>
				<g>
					<g>
						<path class="st5" d="M-246.7,397c0.1-0.4,0.6-0.4,0.7,0H-246.7z"/>
						<path class="st5" d="M-245.8,397.1h-0.9l0-0.1c0.1-0.2,0.2-0.4,0.4-0.4c0,0,0,0,0,0C-246.1,396.7-245.9,396.8-245.8,397.1
							L-245.8,397.1z M-246.6,397h0.6c-0.1-0.1-0.2-0.2-0.3-0.2c0,0,0,0,0,0C-246.4,396.8-246.5,396.8-246.6,397z"/>
					</g>
					<g>
						<g>
							<line class="st6" x1="-246.3" y1="396.7" x2="-246.3" y2="396"/>
						</g>
						<g>
							<line class="st6" x1="-246.2" y1="396.7" x2="-246" y2="396"/>
						</g>
						<g>
							<line class="st6" x1="-246.1" y1="396.7" x2="-245.7" y2="396.1"/>
						</g>
						<g>
							<line class="st6" x1="-246" y1="396.8" x2="-245.6" y2="396.4"/>
						</g>
						<g>
							<line class="st6" x1="-245.9" y1="396.9" x2="-245.7" y2="396.8"/>
						</g>
						<g>
							
								<rect x="-246.9" y="396.3" transform="matrix(0.2586 0.966 -0.966 0.2586 200.1123 531.9421)" class="st5" width="0.7" height="0.1"/>
						</g>
						<g>
							<line class="st6" x1="-246.5" y1="396.7" x2="-246.7" y2="396.4"/>
						</g>
						<g>
							<line class="st6" x1="-246.6" y1="396.8" x2="-246.7" y2="396.7"/>
						</g>
						<g>
							<line class="st6" x1="-246.7" y1="396.9" x2="-246.7" y2="396.9"/>
						</g>
					</g>
				</g>
			</g>
			<g>
				<path class="st9" d="M-246.8,397c-0.1,0.2-0.1,0.4-0.2,0.5c-0.2,0.4-0.2,1.2,0.4,1.8c0.9,0.9,1.6,0.5,1.9,1c0,0,0,0,0.1,0
					c0.3-0.5,1-0.1,1.9-1c0.6-0.6,0.6-1.5,0.4-1.8c-0.1-0.1-0.1-0.3-0.2-0.5C-243.1,397-246.1,397-246.8,397z"/>
			</g>
			<g>
				<g>
					<path class="st10" d="M-244.8,397.1l0-0.6c0,0,0,0,0,0L-244.8,397.1"/>
					<path d="M-244.8,397.1L-244.8,397.1L-244.8,397.1l0-0.6c0,0,0,0,0,0l0,0c0,0,0,0,0,0L-244.8,397.1L-244.8,397.1z"/>
				</g>
				<g>
					<path class="st3" d="M-244.8,396.5C-244.8,396.5-244.7,396.5-244.8,396.5C-244.7,396.6-244.8,396.5-244.8,396.5L-244.8,396.5z"
						/>
				</g>
				<g>
					<path class="st10" d="M-244.6,397.1l0-0.6c0,0,0,0,0,0L-244.6,397.1"/>
					<path d="M-244.6,397.1L-244.6,397.1L-244.6,397.1l0-0.6c0,0,0,0,0,0l0,0c0,0,0,0,0,0L-244.6,397.1L-244.6,397.1z"/>
				</g>
				<g>
					<path class="st3" d="M-244.6,396.5C-244.6,396.5-244.5,396.5-244.6,396.5C-244.5,396.6-244.6,396.5-244.6,396.5L-244.6,396.5z"
						/>
				</g>
				<g>
					<path class="st10" d="M-244.4,397.1l0-0.6c0,0,0,0,0,0L-244.4,397.1"/>
					<path d="M-244.4,397.1L-244.4,397.1L-244.4,397.1l0-0.6c0,0,0,0,0,0l0,0c0,0,0,0,0,0L-244.4,397.1L-244.4,397.1z"/>
				</g>
				<g>
					<path class="st3" d="M-244.4,396.6C-244.4,396.5-244.4,396.6-244.4,396.6C-244.4,396.6-244.4,396.6-244.4,396.6L-244.4,396.6z"
						/>
				</g>
				<g>
					<path class="st10" d="M-244.4,397.2C-244.4,397.2-244.4,397.2-244.4,397.2c-0.1,0-0.1,0-0.1,0c0,0-0.1,0-0.1,0c0,0-0.1,0-0.1,0
						c0,0,0,0-0.1,0c0,0-0.1-0.1-0.1-0.1c-0.1,0-0.2-0.1-0.2-0.1c0,0-0.1,0,0,0c0.1,0,0.2,0.1,0.2,0.1
						C-244.8,397.1-244.4,397.1-244.4,397.2c0.1-0.1,0.1-0.1,0.2-0.1c0,0,0,0,0,0C-244.3,397.1-244.3,397.1-244.4,397.2
						C-244.3,397.1-244.4,397.2-244.4,397.2z"/>
					<path d="M-244.8,397.2L-244.8,397.2c0,0-0.1-0.1-0.1-0.1c0,0-0.2-0.1-0.2-0.1c0,0,0,0,0,0l0,0l0,0c0,0,0,0,0,0c0,0,0.1,0,0.1,0
						c0,0,0.1,0,0.1,0.1c0.1,0,0.5,0,0.5,0c0,0,0.1,0,0.1,0c0,0,0,0,0,0l0,0l0,0c0,0,0,0,0,0c0,0,0,0,0,0c0,0,0,0-0.1,0
						c0,0,0,0,0,0.1c0,0,0,0,0,0l0,0h0c0,0,0,0-0.1,0c0,0-0.1,0-0.1,0c0,0-0.1,0-0.1,0C-244.6,397.2-244.7,397.2-244.8,397.2
						C-244.7,397.2-244.8,397.2-244.8,397.2L-244.8,397.2z M-244.9,397.1c0,0,0.1,0.1,0.1,0.1c0,0,0,0,0.1,0l0,0l0,0
						c0,0,0.1,0,0.1,0l0,0l0,0c0,0,0.1,0,0.1,0l0,0l0,0c0,0,0.1,0,0.1,0l0,0l0,0c0,0,0,0,0,0c0,0,0,0,0,0c0,0,0,0,0,0c0,0,0,0,0,0
						C-244.4,397.1-244.8,397.1-244.9,397.1z"/>
				</g>
				<g>
					<path class="st3" d="M-244.3,396.7l-0.1,0c0,0,0,0.1,0,0.1c0,0,0.1,0,0.2,0C-244.4,396.7-244.4,396.7-244.3,396.7z"/>
				</g>
				<g>
					<path class="st3" d="M-244.3,396.8c0,0-0.1,0-0.2,0c0,0,0,0.1,0,0.1c0-0.1,0.1,0,0.2,0C-244.3,396.9-244.4,396.8-244.3,396.8z"
						/>
				</g>
				<g>
					<path class="st3" d="M-244.3,396.9c0,0-0.2,0-0.2,0c0,0,0,0.1,0,0.1c0.1-0.1,0.2,0,0.2,0C-244.4,397-244.4,396.9-244.3,396.9z"
						/>
				</g>
				<g>
					<path class="st3" d="M-244.5,396.6l-0.2,0c0,0,0,0.1,0,0.1c0,0,0.2,0,0.2,0C-244.5,396.7-244.5,396.6-244.5,396.6z"/>
				</g>
				<g>
					<path class="st3" d="M-244.5,396.8l-0.2,0c0,0,0,0.1,0,0.2c0,0,0.2,0,0.2,0C-244.5,396.9-244.5,396.8-244.5,396.8z"/>
				</g>
				<g>
					<path class="st3" d="M-244.5,396.9l-0.2,0c0,0,0,0.1,0,0.1c0-0.1,0.2,0,0.2,0C-244.5,397-244.5,397-244.5,396.9z"/>
				</g>
				<g>
					<path class="st3" d="M-244.8,396.6C-244.8,396.6-244.8,396.7-244.8,396.6c0,0.1,0.1,0.1,0.1,0.1
						C-244.7,396.7-244.7,396.6-244.8,396.6C-244.7,396.6-244.8,396.6-244.8,396.6z"/>
				</g>
				<g>
					<path class="st3" d="M-244.9,396.7c0,0,0.1,0,0.2,0c0,0,0,0.1,0,0.2c-0.1-0.1-0.2-0.1-0.2,0
						C-244.9,396.8-244.9,396.8-244.9,396.7z"/>
				</g>
				<g>
					<path class="st3" d="M-244.7,396.9c0,0-0.2,0-0.2,0c0,0.1,0,0.1,0,0.2c0.1-0.1,0.2,0,0.2,0C-244.7,397-244.7,396.9-244.7,396.9
						z"/>
					<path d="M-244.7,397.1c0,0-0.1-0.1-0.1-0.1c0,0,0,0,0,0c0,0-0.1,0-0.1,0l0,0l0,0c0,0,0-0.1,0-0.2l0,0l0,0c0.1,0,0.2,0,0.2,0
						c0,0,0,0,0,0l0,0l0,0C-244.7,397-244.7,397-244.7,397.1L-244.7,397.1L-244.7,397.1z"/>
				</g>
				<g>
					<path class="st3" d="M-244.8,396.6c-0.1,0.1-0.2,0.3-0.3,0.4c0,0,0.1,0,0.1,0C-244.9,396.9-244.9,396.7-244.8,396.6z"/>
					<path d="M-245,397.1L-245,397.1C-245,397-245,397-245,397.1c-0.1-0.1-0.1-0.1-0.1-0.1l0,0l0,0c0-0.1,0.1-0.3,0.3-0.4l0,0
						C-244.8,396.7-244.9,396.8-245,397.1L-245,397.1z"/>
				</g>
				<g>
					<path d="M-245.1,397L-245.1,397c0-0.1,0.2-0.3,0.3-0.4l0,0C-244.9,396.6-245,396.8-245.1,397z"/>
				</g>
				<g>
					<path d="M-244.3,397.1L-244.3,397.1c0-0.1,0-0.3,0-0.4l0,0C-244.3,396.8-244.3,397-244.3,397.1z"/>
				</g>
			</g>
			<g>
				<g>
					<path class="st11" d="M-243.3,397.4c0-0.1,0.1-0.3,0.2-0.4c0-0.1,0-0.1,0.1-0.2c0.1-0.1,0.1-0.2,0.1-0.2c0-0.1,0.1-0.1,0.1,0
						c0,0.1,0.1,0.3,0.1,0.4c0,0.1,0.1,0.1,0.1,0.2c0,0,0,0.1,0.1,0.1c0,0,0,0.1,0.1,0.2c0.1,0.1,0.2,0.1,0.2,0.2
						c0.1,0.1,0.1,0.4,0.1,0.6l-5,0c0-0.1,0-0.1,0-0.2c0.4-0.1,0.6-0.4,0.8-0.4c0.1-0.1,0.2-0.3,0.3-0.4c0.1-0.1,0.3-0.5,0.4-0.7
						c0.1-0.2,0.1-0.3,0.2-0.3c0.1,0,0.1,0,0.1,0.2c0.1,0.3,0.2,0.3,0.2,0.5c0.1,0.2,0.2,0.5,0.4,0.6c0.1-0.1,0.3-0.2,0.3-0.3
						c0-0.1,0.1-0.2,0.2-0.2c0-0.1,0.1-0.3,0.1-0.3c0,0,0-0.1,0-0.1c0-0.1,0.1-0.2,0.1-0.3c0.1-0.1,0.2-0.1,0.2,0
						c0,0.1,0.1,0.5,0.2,0.6C-243.5,397.1-243.4,397.2-243.3,397.4z"/>
				</g>
				<g>
					<g>
						<path class="st10" d="M-243.8,397.9c-0.1-0.1-0.2-0.1-0.3-0.1c-0.1-0.1-0.2,0-0.4-0.2c0,0-0.1,0-0.1-0.1
							c-0.2-0.2-0.3-0.5-0.4-0.6c-0.1-0.2-0.1-0.2-0.2-0.5c0-0.1-0.1-0.2-0.1-0.2c0.1,0.1,0,0.2,0.1,0.4c0,0.1,0,0.1,0,0
							c0,0-0.1,0-0.1,0c0,0,0,0.1,0.1,0.2c0,0.1,0,0.1,0,0.2c0,0,0,0.1,0,0.1c0,0-0.1-0.1-0.1,0c0,0,0.1,0.1,0.1,0.1c0,0,0,0,0,0
							c0,0-0.1,0-0.1,0c0,0,0,0.1,0.1,0.1c0,0,0,0.1-0.1,0.1c0,0,0,0.1,0,0.1c0.1,0,0.1,0.1,0.2,0.1c0.1,0,0.1,0.1,0,0.1
							c-0.1,0-0.2-0.1-0.3-0.2c0,0-0.1,0-0.1,0c0,0,0,0.1,0,0.2c0,0-0.1-0.1-0.1-0.1c0-0.1-0.1,0,0,0.1c0,0,0.1,0.1,0,0.1
							c-0.1,0-0.1,0-0.1,0c-0.1,0.1-0.1,0.1-0.1,0c0,0-0.1,0.1-0.1,0.2C-246.1,398-243.8,398.2-243.8,397.9z"/>
					</g>
					<g>
						<path class="st10" d="M-242.1,397.9c-0.6-0.1-1-0.3-1.2-0.5c-0.1-0.2-0.2-0.3-0.2-0.4c-0.1-0.2-0.2-0.5-0.2-0.6
							c0,0,0-0.1-0.1-0.1c0,0,0,0,0,0.1c0,0,0,0.1,0,0c0,0,0,0,0,0.1c0,0,0.1,0.1,0.1,0.1c0,0,0,0.1,0,0.1c0,0-0.1,0-0.1,0
							c0,0,0,0.1,0,0.1c0,0,0,0,0,0.1c0,0.1,0,0.1,0,0.1c0,0,0.1-0.1,0.1,0c0,0,0,0.1,0.1,0.1c0,0,0,0,0,0c0,0-0.1-0.1-0.1,0
							c0,0.1,0,0.1,0.1,0.1c0,0,0.1,0,0,0c0,0,0,0.1,0,0c0,0,0.1,0,0.1,0.1c0,0.1,0,0.1-0.1,0c-0.1,0-0.1-0.1-0.1-0.1c0,0,0,0,0,0.1
							c0,0,0,0.1,0.1,0.1c0,0,0,0.1-0.1,0c0,0-0.1,0-0.1,0c0,0.1-0.1,0.1-0.1,0.1c0,0,0,0.1,0,0.1c0,0-0.1,0-0.1-0.1c0,0,0,0-0.1,0
							c0,0.1,0,0.1-0.1,0.1c0,0,0,0.1,0,0.1c0.1,0,0.1,0,0.1,0.1c0,0,0,0,0,0c0,0,0.1,0,0,0c-0.1,0-0.2,0-0.2,0
							c0.1,0.1,0.2,0.1,0.3,0.1c0.5,0.2,1.4,0.3,1.7,0.2C-242.1,398.1-242.1,398-242.1,397.9z"/>
					</g>
					<g>
						<path class="st10" d="M-242.9,396.5C-242.8,396.5-242.8,396.5-242.9,396.5c0.1,0.2,0.1,0.4,0.2,0.5c0,0.1,0.1,0.1,0.1,0.2
							c0,0,0,0.1,0.1,0.1c0,0,0,0.1,0.1,0.2c0.1,0.1,0.2,0.1,0.2,0.2c0,0.1,0.1,0.2,0.1,0.4c-0.2,0-0.5-0.1-0.6-0.1c0,0,0,0,0-0.1
							c0,0,0-0.1,0-0.1c0,0,0-0.1,0-0.1c0,0,0-0.1,0-0.1c0,0,0-0.1,0-0.1c0,0,0-0.1,0-0.1c0,0,0.1-0.1,0-0.2c0-0.1-0.1,0-0.1,0
							c0,0,0-0.1,0-0.1c0,0,0-0.1,0-0.1c0.1,0,0-0.2-0.1-0.2C-242.9,396.5-242.8,396.5-242.9,396.5z"/>
					</g>
				</g>
				<g>
					<g>
						<path class="st11" d="M-245.1,397.1C-245.1,397.1-245.1,397.2-245.1,397.1c0,0.1,0,0.2,0,0.2c0,0,0.1,0,0.1,0.1
							c0,0.1,0,0.1,0,0.2c0,0,0.1,0.1,0.1,0.1c0,0,0,0,0.1,0c0.1,0,0.1,0.1,0.2,0.1c0.1,0,0,0.1,0.2,0.1c0.1,0,0.2,0,0.2,0.1
							c0.1-0.1,0.1,0,0.2,0c0.1,0,0.1,0,0.1,0c-0.1,0-0.2,0-0.2,0c-0.1,0-0.1,0-0.2,0c-0.1,0-0.1-0.1-0.2-0.1c-0.1,0-0.1,0-0.1-0.1
							c0-0.1-0.1-0.1-0.1-0.1c0,0-0.1,0,0-0.1c0.1-0.1,0-0.1,0-0.1c0,0,0-0.1-0.1-0.1c-0.1,0,0,0,0-0.1
							C-245,397.1-245.2,397.1-245.1,397.1z"/>
					</g>
					<g>
						<path class="st11" d="M-242.3,397.7c0-0.1,0-0.1-0.1-0.2c0-0.1-0.1-0.1-0.1,0c0,0,0,0,0,0.1c0,0,0,0,0,0c0,0,0,0,0,0
							c0,0,0,0,0,0C-242.4,397.6-242.4,397.6-242.3,397.7C-242.3,397.7-242.3,397.8-242.3,397.7z"/>
					</g>
					<g>
						<path class="st11" d="M-242.6,397.6C-242.6,397.7-242.5,397.7-242.6,397.6c0.1,0.1,0.1,0.1,0.1,0.1c0,0,0,0.1,0,0.1
							c0,0,0,0,0,0c0,0-0.1,0-0.1,0c0,0,0,0.1,0,0C-242.6,397.8-242.6,397.7-242.6,397.6C-242.6,397.7-242.6,397.7-242.6,397.6
							C-242.6,397.7-242.6,397.6-242.6,397.6z"/>
					</g>
				</g>
			</g>
			<g>
				<g>
					<path class="st12" d="M-247.1,398.1c0.1,0,0.1,0,0.2,0c0,0,0-0.1,0.1-0.1c0,0,0.1-0.1,0.1,0c0,0,0.1-0.1,0.1,0
						c0,0,0.1-0.1,0.1,0c0.1-0.1,0.2-0.1,0.2-0.1c0.1,0,0.1,0,0.1,0c0,0,0.1,0,0.1,0c0,0,0.1,0,0.1,0c0,0,0,0,0.1,0
						c0-0.1,0.1-0.1,0.1-0.1c0-0.1,0.1-0.1,0.1-0.1c0,0,0.1,0,0.1,0c0.1,0,0.1,0,0.1,0.1c0,0.1,0.1,0.1,0.2,0.1c0.1,0,0.1,0,0.1,0
						c0,0,0.1,0,0.1,0c0,0,0.1,0,0.1,0c0,0,0.1,0,0.1,0c0.1,0,0.2,0.1,0.3,0.1c0.1,0,0.2-0.1,0.3,0c0.1,0,0.2-0.1,0.2,0
						c0,0,0.1-0.1,0.2,0c0-0.1,0.1-0.1,0.2-0.1c0-0.1,0.2-0.1,0.2,0c0,0,0.1,0,0.1,0.1c0,0,0.1,0,0.1,0.1c0,0,0.1,0,0.1,0.1
						c0.1,0,0.1,0,0.2,0.1c0,0,0-0.1,0.1-0.1c0.1,0,0.1,0,0.1,0c0.1,0,0.2,0,0.2,0c0.1,0,0.1,0,0.1,0c0,0,0.1,0,0.1,0
						c0,0.1,0,0.3,0,0.4h-4.9C-247.1,398.3-247.1,398.2-247.1,398.1z"/>
				</g>
			</g>
			<g>
				<g>
					<path class="st3" d="M-244.5,393.7c0,0.1,0,0.2-0.1,0.3c0.2,0.2,0.4,0.2,0.8,0.2c0.3,0,0.5,0,0.6,0c0,0.1,0,0.1,0,0.2
						c0,0.1,0.1,0.1,0.2,0.1c0.1,0,0.3-0.1,0.4,0c0.2,0.2,0.5,0.2,0.6,0.3c0-0.1-0.1-0.3-0.3-0.4c0.1,0,0.3,0,0.3,0
						c-0.1-0.2-0.4-0.2-0.5-0.2c-0.1-0.1-0.2-0.1-0.3-0.2c0,0,0-0.1,0-0.1c-0.1-0.1-0.2-0.1-0.4-0.1c0,0,0,0,0-0.1
						c0-0.1,0-0.1,0-0.2c0-0.1,0-0.1-0.1-0.1c-0.3-0.2-0.7-0.3-1.3-0.3c-0.7,0-1,0.1-1.3,0.3c-0.1,0.1-0.1,0.1-0.1,0.1
						c0,0.1,0,0.1,0,0.2c0,0,0,0.1,0,0.1c-0.1,0-0.3,0-0.4,0.1c0,0,0,0.1,0,0.1c-0.1,0-0.2,0.1-0.3,0.2c-0.1,0.1-0.4,0.1-0.5,0.2
						c0.1,0,0.2-0.1,0.3,0c-0.1,0.1-0.2,0.2-0.3,0.4c0.1-0.1,0.4-0.1,0.6-0.3c0.1-0.1,0.3,0,0.4,0c0.1,0,0.2,0,0.2-0.1
						c0-0.1,0-0.1,0-0.2c0.1,0,0.4,0,0.6,0c0.4,0,0.6,0,0.8-0.2c-0.1,0-0.1-0.2-0.1-0.3c-0.2,0-0.3-0.1-0.4-0.1
						c-0.2,0-0.2,0.1-0.2,0.1c0,0,0,0,0,0c-0.1,0-0.3,0-0.3-0.1c0.2-0.1,0.6-0.2,1-0.2c0.5,0,0.8,0.1,1,0.2c0,0.1-0.2,0.1-0.3,0.1
						c0,0,0,0,0,0c0,0,0-0.1-0.2-0.1C-244.2,393.5-244.3,393.6-244.5,393.7z"/>
					<path d="M-242.1,394.7c0,0-0.1-0.1-0.2-0.1c-0.1,0-0.3-0.1-0.4-0.2c-0.1-0.1-0.2,0-0.3,0l0,0c-0.1,0-0.1,0-0.2,0
						c0,0,0-0.1,0-0.1c0,0,0-0.1,0-0.1c0,0,0,0,0,0c-0.1,0-0.2,0-0.3,0h-0.2c-0.4,0-0.6,0-0.8-0.3l0,0l0,0c-0.2,0.2-0.5,0.3-0.8,0.3
						h-0.2c-0.1,0-0.2,0-0.3,0c0,0,0,0,0,0c0,0,0,0.1,0,0.1c0,0,0,0.1,0,0.1c0,0-0.1,0-0.2,0l0,0c-0.1,0-0.2-0.1-0.3,0
						c-0.1,0.1-0.3,0.1-0.4,0.2c-0.1,0-0.2,0.1-0.2,0.1l-0.1,0c0-0.1,0.1-0.2,0.2-0.3c-0.1,0-0.2,0-0.2,0l-0.1-0.1
						c0.1-0.1,0.2-0.2,0.4-0.2c0.1,0,0.1,0,0.2-0.1c0.1-0.1,0.2-0.1,0.3-0.2c0,0,0-0.1,0.1-0.1c0.1,0,0.2-0.1,0.3-0.1c0,0,0,0,0,0
						l0-0.2c0-0.1,0-0.1,0.1-0.2c0.3-0.2,0.6-0.3,1.4-0.3c0.7,0,1.1,0.2,1.4,0.3c0.1,0.1,0.1,0.1,0.1,0.2l0,0.2c0,0,0,0,0,0
						c0.1,0,0.3,0,0.3,0.1c0,0,0.1,0.1,0.1,0.1c0.1,0,0.2,0.1,0.3,0.2c0,0,0.1,0,0.2,0.1c0.1,0,0.3,0.1,0.4,0.2l-0.1,0.1
						c0,0-0.1,0-0.2,0C-242.1,394.5-242,394.6-242.1,394.7L-242.1,394.7z M-247,394.3C-246.9,394.3-246.9,394.3-247,394.3l0.2,0
						l-0.1,0.1c-0.1,0.1-0.1,0.1-0.2,0.2c0,0,0.1,0,0.1,0c0.1,0,0.3-0.1,0.3-0.2c0.1-0.1,0.3-0.1,0.4,0l0,0c0,0,0.1,0,0.1,0
						c0,0,0,0,0,0c0,0,0-0.1,0-0.1c0,0,0-0.1,0-0.1v0l0,0c0.1,0,0.2,0,0.4,0l0.2,0c0.4,0,0.6,0,0.7-0.2c0-0.1-0.1-0.1,0-0.2
						c-0.1,0-0.1,0-0.2-0.1c-0.1,0-0.1-0.1-0.2-0.1c-0.1,0-0.1,0.1-0.1,0.1v0.1h0c0,0-0.3,0-0.4-0.1l0,0l0,0
						c0.3-0.1,0.7-0.2,1.1-0.2c0.4,0,0.8,0.1,1.1,0.2l0,0l0,0c-0.1,0.1-0.3,0.1-0.4,0.1h0v-0.1c0,0,0-0.1-0.1-0.1
						c-0.1,0-0.1,0-0.2,0.1c0,0-0.1,0-0.2,0.1c0,0.1,0,0.2,0,0.2c0.1,0.1,0.3,0.2,0.7,0.2l0.2,0c0.2,0,0.3,0,0.4,0l0,0v0
						c0,0,0,0.1,0,0.1c0,0,0,0.1,0,0.1c0,0,0,0,0,0c0,0,0,0,0.1,0l0,0c0.1,0,0.3-0.1,0.4,0c0.1,0.1,0.2,0.1,0.3,0.2c0,0,0.1,0,0.1,0
						c0-0.1-0.1-0.1-0.2-0.2l-0.1-0.1l0.1,0c0,0,0.1,0,0.1,0c0,0-0.1,0-0.1,0c-0.1,0-0.1,0-0.2-0.1c-0.1-0.1-0.2-0.1-0.3-0.2l0,0v0
						c0,0,0-0.1,0-0.1c0,0-0.1-0.1-0.3-0.1l-0.1,0l0.1-0.1c0,0,0,0,0,0v-0.2c0,0,0,0,0-0.1c-0.2-0.2-0.6-0.3-1.3-0.3
						c-0.7,0-1.1,0.2-1.3,0.3c0,0,0,0,0,0.1v0.2c0,0,0,0,0,0l0.1,0.1l-0.1,0c-0.2,0-0.3,0-0.3,0.1c0,0,0,0,0,0.1v0l0,0
						c-0.1,0-0.2,0.1-0.3,0.2C-246.7,394.2-246.8,394.2-247,394.3C-246.9,394.3-246.9,394.3-247,394.3z M-245.1,393.5
						c0.1,0,0.2,0,0.3,0.1c0.1,0,0.1,0,0.2,0.1l0,0l0,0c0,0.1,0,0.2,0,0.2l0,0l0,0c0,0,0-0.1,0-0.2l0,0l0,0c0.1,0,0.1,0,0.2-0.1
						c0.1,0,0.2-0.1,0.3-0.1c0.2,0,0.2,0.1,0.2,0.1c0.1,0,0.1,0,0.2,0c-0.3-0.1-0.6-0.2-1-0.2c-0.4,0-0.7,0.1-1,0.2c0,0,0.1,0,0.2,0
						C-245.3,393.6-245.3,393.5-245.1,393.5z"/>
				</g>
				<g>
					<path class="st3" d="M-244.6,393.9c0.1,0,0.1-0.1,0.1-0.2c0-0.1,0-0.2-0.1-0.2c-0.1,0-0.1,0.1-0.1,0.2
						C-244.7,393.8-244.7,393.9-244.6,393.9z"/>
					<path d="M-244.6,394c-0.2,0-0.2-0.2-0.2-0.2c0-0.1,0-0.2,0.2-0.2c0.2,0,0.2,0.2,0.2,0.2C-244.4,393.8-244.4,394-244.6,394z"/>
				</g>
				<g>
					<g>
						<path d="M-246,393.9C-246,393.9-246,393.8-246,393.9c-0.1-0.1,0-0.2,0.2-0.3c0,0,0.1,0,0.1-0.1l0,0.1c0,0-0.1,0-0.1,0.1
							C-245.8,393.7-245.9,393.8-246,393.9C-245.9,393.8-245.9,393.8-246,393.9L-246,393.9z"/>
					</g>
					<g>
						<path class="st6" d="M-246,394.1c-0.1,0-0.2,0-0.2,0c-0.1,0-0.1,0.1,0,0.1"/>
					</g>
					<g>
						<path d="M-245.1,394c-0.1,0-0.2-0.1-0.2-0.2v-0.1h0.1v0.1C-245.3,393.8-245.2,393.9-245.1,394c0.1-0.1,0.2-0.1,0.3-0.1
							c0.1,0,0.1,0,0.2,0l0,0.1c-0.1,0-0.1,0-0.2,0C-244.9,394-245,394-245.1,394z"/>
					</g>
					<g>
						<path d="M-244.7,393.9c-0.1,0-0.1,0-0.2-0.1c-0.1,0-0.2-0.1-0.2-0.1c-0.1,0-0.1,0-0.1,0l-0.1,0.1c0,0,0-0.1,0-0.1
							c0,0,0.1-0.1,0.2-0.1c0.1,0,0.2,0,0.3,0.1C-244.8,393.8-244.7,393.8-244.7,393.9L-244.7,393.9z"/>
					</g>
					<g>
						<path d="M-246,394.3L-246,394.3c-0.1,0-0.1,0-0.2,0c-0.1,0-0.1,0-0.2,0c0,0-0.1-0.1-0.1-0.1V394h0.1v0.2c0,0,0,0,0,0
							c0,0,0,0,0.1,0C-246.1,394.2-246,394.2-246,394.3C-246,394.3-246,394.3-246,394.3z"/>
					</g>
					<g>
						<path d="M-245.2,394c-0.2,0-0.5,0-0.6-0.1c-0.1-0.1-0.2-0.1-0.2-0.1l0.1-0.1c0,0,0.1,0.1,0.2,0.1c0.2,0.1,0.8,0.1,1.1,0l0,0.1
							C-244.7,394-244.9,394-245.2,394z"/>
					</g>
					<g>
						<path d="M-243.2,393.9L-243.2,393.9C-243.3,393.8-243.3,393.8-243.2,393.9c-0.1-0.1-0.1-0.1-0.2-0.2c0,0-0.1,0-0.1-0.1l0-0.1
							c0,0,0.1,0,0.1,0.1C-243.2,393.7-243.2,393.7-243.2,393.9C-243.2,393.8-243.2,393.9-243.2,393.9z"/>
					</g>
					<g>
						<path d="M-242.8,394.3L-242.8,394.3C-242.9,394.2-242.9,394.2-242.8,394.3C-242.9,394.2-242.9,394.2-242.8,394.3
							c-0.1-0.1-0.2-0.1-0.3-0.1l0-0.1c0.1,0,0.2,0,0.3,0C-242.8,394.2-242.8,394.2-242.8,394.3
							C-242.8,394.2-242.8,394.3-242.8,394.3z"/>
					</g>
					<g>
						<path d="M-244,394c-0.1,0-0.2,0-0.3,0c-0.1,0-0.1,0-0.2,0l0-0.1c0.1,0,0.2,0,0.2,0C-244.2,393.9-244.2,393.9-244,394
							c0.1-0.1,0.1-0.2,0.1-0.2v-0.1h0.1v0.1C-243.8,393.9-243.9,394-244,394z"/>
					</g>
					<g>
						<path d="M-244.5,393.9L-244.5,393.9c0.1-0.1,0.1-0.1,0.2-0.2c0.1,0,0.2-0.1,0.3-0.1c0.1,0,0.2,0.1,0.2,0.1c0,0,0,0.1,0,0.1
							l-0.1-0.1c0,0,0,0,0,0c0,0,0,0-0.1,0c-0.1,0-0.1,0-0.2,0.1C-244.3,393.9-244.4,393.9-244.5,393.9z"/>
					</g>
					<g>
						<path d="M-243.1,394.3L-243.1,394.3C-243.2,394.3-243.2,394.3-243.1,394.3c0-0.1,0.1-0.1,0.1-0.1c0,0,0.1,0,0.1,0c0,0,0,0,0,0
							V394h0.1v0.2c0,0,0,0.1-0.1,0.1c0,0-0.1,0-0.2,0C-243.1,394.3-243.1,394.3-243.1,394.3z"/>
					</g>
					<g>
						<path d="M-244,394c-0.2,0-0.4,0-0.6-0.1l0-0.1c0.3,0.2,0.9,0.1,1.1,0c0.1,0,0.2-0.1,0.2-0.1l0.1,0.1c0,0-0.1,0.1-0.2,0.1
							C-243.6,394-243.8,394-244,394z"/>
					</g>
				</g>
			</g>
			<g>
				<g>
					<polygon class="st3" points="-244.6,395.3 -244.6,395.5 -244.8,395.5 -244.7,395.6 -244.7,395.7 -244.6,395.6 -244.5,395.7 
						-244.5,395.6 -244.4,395.5 -244.5,395.5 					"/>
				</g>
				<g>
					<polygon class="st3" points="-245.2,395.4 -245.2,395.5 -245.4,395.6 -245.3,395.6 -245.3,395.8 -245.2,395.7 -245,395.8 
						-245.1,395.6 -245,395.5 -245.1,395.5 					"/>
				</g>
				<g>
					<polygon class="st3" points="-245.8,395.5 -245.8,395.7 -246,395.8 -245.8,395.8 -245.8,396 -245.7,395.8 -245.6,395.9 
						-245.7,395.8 -245.6,395.6 -245.7,395.7 					"/>
				</g>
				<g>
					<polygon class="st3" points="-246.4,395.8 -246.4,396 -246.5,396 -246.4,396.1 -246.3,396.2 -246.3,396.1 -246.1,396.1 
						-246.2,396 -246.1,395.8 -246.3,395.9 					"/>
				</g>
				<g>
					<polygon class="st3" points="-244,395.4 -243.9,395.5 -243.8,395.6 -243.9,395.6 -243.9,395.8 -244,395.7 -244.2,395.8 
						-244.1,395.6 -244.2,395.5 -244,395.5 					"/>
				</g>
				<g>
					<polygon class="st3" points="-243.3,395.5 -243.4,395.7 -243.2,395.8 -243.4,395.8 -243.4,396 -243.4,395.8 -243.6,395.9 
						-243.5,395.8 -243.6,395.6 -243.4,395.7 					"/>
				</g>
				<g>
					<polygon class="st3" points="-242.8,395.8 -242.8,396 -242.7,396 -242.8,396.1 -242.8,396.2 -242.9,396.1 -243.1,396.1 
						-243,396 -243,395.8 -242.9,395.9 					"/>
				</g>
			</g>
			<g>
				<path d="M-244.5,400.4l-0.1-0.1c0.2-0.2,0.4-0.3,0.7-0.4c0.3-0.1,0.8-0.2,1.3-0.7c0.6-0.6,0.6-1.4,0.4-1.8
					c-0.2-0.4-0.4-1-0.2-1.9l0.1,0c-0.2,0.9,0,1.4,0.2,1.8c0.2,0.4,0.2,1.3-0.4,1.9c-0.5,0.5-1,0.6-1.3,0.7
					C-244.2,400.2-244.4,400.3-244.5,400.4z"/>
			</g>
			<g>
				<path d="M-244.7,400.4c-0.1-0.2-0.3-0.2-0.6-0.3c-0.4-0.1-0.8-0.2-1.3-0.7c-0.6-0.6-0.6-1.5-0.4-1.9c0.2-0.4,0.4-1,0.2-1.8
					l0.1,0c0.2,0.9,0,1.5-0.2,1.9c-0.2,0.4-0.2,1.2,0.4,1.8c0.5,0.5,0.9,0.6,1.3,0.7c0.3,0.1,0.5,0.1,0.7,0.4L-244.7,400.4z"/>
			</g>
			<g>
				<g>
					<path class="st10" d="M-244.9,399.3l0-1.2c0-0.1,0-0.1,0,0L-244.9,399.3"/>
					<path d="M-244.9,399.3l0-0.7L-244.9,399.3L-244.9,399.3l0-1.2c0-0.1,0-0.1,0-0.1c0,0,0,0,0,0c0,0,0,0,0,0.1L-244.9,399.3
						L-244.9,399.3z"/>
				</g>
				<g>
					<path class="st3" d="M-244.9,398.1c0,0,0.1,0,0.2,0C-244.7,398.2-244.8,398.1-244.9,398.1L-244.9,398.1z"/>
				</g>
				<g>
					<path class="st10" d="M-244.5,399.3l0-1.2c0-0.1,0-0.1,0,0L-244.5,399.3"/>
					<path d="M-244.5,399.3l0-0.7L-244.5,399.3L-244.5,399.3l0-1.2c0-0.1,0-0.1,0-0.1c0,0,0,0,0,0c0,0,0,0,0,0.1L-244.5,399.3
						L-244.5,399.3z"/>
				</g>
				<g>
					<path class="st3" d="M-244.4,398.1c0,0,0.1,0,0.2,0C-244.3,398.2-244.4,398.1-244.4,398.1L-244.4,398.1z"/>
				</g>
				<g>
					<path class="st10" d="M-244.1,399.3l0-1.2c0-0.1,0-0.1,0,0L-244.1,399.3"/>
					<path d="M-244.1,399.4l0-0.7L-244.1,399.4L-244.1,399.4l0-1.2c0-0.1,0-0.1,0-0.1h0c0,0,0,0,0,0.1L-244.1,399.4L-244.1,399.4z"
						/>
				</g>
				<g>
					<path class="st3" d="M-244.1,398.1c0,0,0.1,0,0.2,0C-243.9,398.3-244,398.2-244.1,398.1L-244.1,398.1z"/>
				</g>
				<g>
					<path class="st10" d="M-244,399.5c0,0-0.1,0-0.1-0.1c0,0-0.2,0-0.2,0c0,0-0.1,0-0.2,0c0,0-0.2,0-0.2,0c0,0-0.1,0.1-0.1,0.1
						c-0.1-0.1-0.2-0.2-0.3-0.3c-0.1-0.1-0.3-0.2-0.5-0.2c-0.1,0-0.1-0.1,0,0c0.1,0.1,0.4,0.2,0.5,0.2c0.2,0.1,1.1,0.1,1.3,0.1
						c0.1,0,0.2-0.1,0.2-0.1c0.1,0,0.1,0,0,0c-0.1,0-0.1,0.1-0.2,0.1C-243.8,399.4-243.9,399.4-244,399.5z"/>
					<path d="M-244.9,399.5L-244.9,399.5c-0.1-0.1-0.2-0.2-0.3-0.3c-0.1-0.1-0.3-0.2-0.5-0.2c0,0-0.1,0-0.1-0.1c0,0,0,0,0.1,0
						c0.1,0,0.2,0.1,0.2,0.1c0.1,0,0.2,0.1,0.3,0.1c0.2,0.1,1.1,0.1,1.2,0.1c0.1,0,0.2-0.1,0.2-0.1c0,0,0.1,0,0.1,0l0,0l0,0
						c0,0,0,0,0,0c0,0,0,0,0,0c0,0-0.1,0-0.1,0.1c0,0-0.1,0.1-0.1,0.1c0,0-0.1,0-0.1,0.1l0,0h0c0,0-0.1,0-0.1,0c0,0-0.2,0-0.2,0
						c0,0-0.1,0-0.2,0c-0.1,0-0.2,0-0.2,0C-244.7,399.5-244.8,399.5-244.9,399.5L-244.9,399.5z M-245.5,399c0.1,0.1,0.3,0.1,0.3,0.2
						c0.1,0.1,0.3,0.2,0.3,0.3c0,0,0.1,0,0.1-0.1l0,0l0,0c0.1,0,0.2,0,0.2,0l0,0l0,0c0,0,0.1,0,0.2,0l0,0l0,0c0,0,0.2,0,0.2,0l0,0
						l0,0c0,0,0.1,0,0.1,0c0,0,0,0,0.1-0.1c0,0,0.1-0.1,0.1-0.1c0,0,0,0,0,0c0,0-0.1,0-0.1,0c-0.1,0-1,0-1.3-0.1
						c-0.1,0-0.2-0.1-0.3-0.1C-245.4,399.1-245.5,399.1-245.5,399z"/>
				</g>
				<g>
					<path class="st3" d="M-243.9,398.3l-0.3,0c-0.1,0.1-0.1,0.2,0,0.3c0.1-0.1,0.3,0,0.3,0C-243.9,398.5-243.9,398.4-243.9,398.3z"
						/>
					<path d="M-243.8,398.6L-243.8,398.6c-0.1-0.1-0.3-0.1-0.4,0l0,0l0,0c0-0.1,0-0.2,0-0.3l0,0l0.3,0l0,0
						C-243.9,398.4-243.9,398.5-243.8,398.6L-243.8,398.6z"/>
				</g>
				<g>
					<path class="st3" d="M-243.9,398.6c-0.1,0-0.3,0-0.4,0c-0.1,0.1,0,0.2,0,0.3c0.1-0.1,0.3-0.1,0.4,0
						C-243.9,398.8-243.9,398.7-243.9,398.6z"/>
					<path d="M-243.8,398.9c-0.1,0-0.2-0.1-0.3-0.1c0,0,0,0,0,0c0,0-0.1,0-0.1,0.1l0,0l0,0c0-0.1,0-0.2,0-0.3l0,0h0
						c0.1,0,0.2,0,0.3,0c0,0,0,0,0.1,0h0l0,0C-243.9,398.7-243.8,398.8-243.8,398.9L-243.8,398.9z M-244.1,398.8
						c0.1,0,0.2,0,0.2,0.1c0-0.1-0.1-0.1,0-0.2c-0.1,0-0.2,0-0.2,0c0,0-0.1,0-0.1,0c0,0.1,0,0.1,0,0.2
						C-244.2,398.8-244.2,398.8-244.1,398.8C-244.1,398.8-244.1,398.8-244.1,398.8z"/>
				</g>
				<g>
					<path class="st3" d="M-243.8,398.9c-0.1,0-0.4,0-0.4,0c0,0.1-0.1,0.2-0.1,0.3c0.1-0.1,0.4,0,0.5,0.1
						C-243.9,399.1-243.9,399-243.8,398.9z"/>
					<path d="M-243.8,399.3C-243.8,399.3-243.8,399.2-243.8,399.3c0-0.1-0.1-0.1-0.3-0.2c-0.1,0-0.2,0-0.2,0.1l0,0l0,0
						c0-0.1,0.1-0.2,0.1-0.3l0,0l0,0c0,0,0.1,0,0.2,0c0.1,0,0.2,0,0.2,0l0,0l0,0C-243.9,399-243.9,399.1-243.8,399.3
						C-243.8,399.2-243.8,399.2-243.8,399.3L-243.8,399.3z M-244.1,399.1C-244.1,399.1-244.1,399.1-244.1,399.1
						c0.1,0,0.2,0.1,0.3,0.1c-0.1-0.1,0-0.2,0-0.3c0,0-0.1,0-0.2,0c-0.1,0-0.1,0-0.2,0c0,0.1-0.1,0.2-0.1,0.3
						C-244.3,399.1-244.2,399.1-244.1,399.1z"/>
				</g>
				<g>
					<path class="st3" d="M-244.2,398.3l-0.4-0.1c-0.1,0.1-0.1,0.2-0.1,0.3c0.1-0.1,0.4,0,0.4,0.1
						C-244.2,398.5-244.3,398.3-244.2,398.3z"/>
					<path d="M-244.2,398.6c0,0-0.1-0.1-0.2-0.1c-0.1,0-0.2,0-0.2,0l0,0l0,0c0-0.1,0-0.2,0.1-0.3l0,0l0,0l0.4,0.1l0,0
						C-244.2,398.3-244.2,398.5-244.2,398.6L-244.2,398.6z M-244.5,398.5C-244.5,398.5-244.4,398.5-244.5,398.5c0.1,0,0.2,0,0.3,0.1
						c0-0.1,0-0.2,0-0.3l-0.3,0c-0.1,0.1-0.1,0.2-0.1,0.3C-244.6,398.5-244.5,398.5-244.5,398.5z"/>
				</g>
				<g>
					<path class="st3" d="M-244.2,398.6l-0.4-0.1c-0.1,0.1-0.1,0.2,0,0.3c0.1-0.1,0.4,0,0.5,0.1
						C-244.2,398.8-244.3,398.7-244.2,398.6z"/>
					<path d="M-244.2,398.9c0,0-0.1-0.1-0.2-0.1c-0.1,0-0.2,0-0.2,0l0,0l0,0c0-0.1,0-0.3,0.1-0.3l0,0l0,0l0.4,0.1l0,0
						C-244.2,398.7-244.2,398.8-244.2,398.9L-244.2,398.9L-244.2,398.9z M-244.5,398.8C-244.5,398.8-244.4,398.8-244.5,398.8
						c0.2,0,0.2,0,0.3,0.1c0-0.1-0.1-0.2,0-0.3l-0.4-0.1c-0.1,0.1-0.1,0.2,0,0.3C-244.6,398.8-244.6,398.8-244.5,398.8z"/>
				</g>
				<g>
					<path class="st3" d="M-244.2,398.9l-0.4,0c-0.1,0.1-0.1,0.2-0.1,0.3c0.1-0.1,0.4,0,0.5,0.1C-244.3,399.2-244.3,399-244.2,398.9
						z"/>
					<path d="M-244.2,399.3c-0.1-0.1-0.2-0.1-0.3-0.1c0,0,0,0,0,0c0,0-0.1,0-0.1,0l0,0l0,0c0-0.1,0-0.2,0.1-0.3l0,0h0l0.5,0l0,0
						C-244.3,399.1-244.3,399.2-244.2,399.3L-244.2,399.3z M-244.6,399.1c0.1,0,0.2,0,0.3,0.1c0-0.1,0-0.2,0.1-0.3l-0.4,0
						c-0.1,0.1-0.1,0.1-0.1,0.3C-244.7,399.1-244.7,399.1-244.6,399.1C-244.6,399.1-244.6,399.1-244.6,399.1z"/>
				</g>
				<g>
					<path class="st3" d="M-244.9,398.3c0,0-0.1,0.2-0.1,0.2c0.1,0,0.2,0,0.4,0c0-0.1,0-0.2,0-0.2
						C-244.7,398.3-244.8,398.2-244.9,398.3z"/>
					<path d="M-244.7,398.5c-0.1-0.1-0.3-0.1-0.3,0l0,0l0,0c0,0,0.1-0.2,0.1-0.2l0,0c0.1,0,0.2,0,0.2,0l0,0l0,0
						C-244.7,398.3-244.7,398.4-244.7,398.5L-244.7,398.5z"/>
				</g>
				<g>
					<path class="st3" d="M-245.1,398.5c0.1,0,0.3,0,0.4,0.1c-0.1,0.1-0.1,0.2,0,0.3c-0.2-0.2-0.4-0.1-0.5-0.1
						C-245.2,398.7-245.1,398.6-245.1,398.5z"/>
					<path d="M-244.6,398.9L-244.6,398.9c-0.2-0.2-0.4-0.2-0.6-0.1l0,0l0,0c0-0.1,0.1-0.2,0.1-0.3l0,0h0c0,0,0,0,0,0
						c0.1,0,0.3,0,0.4,0.1l0,0l0,0C-244.7,398.6-244.7,398.8-244.6,398.9L-244.6,398.9z M-245,398.7c0.1,0,0.2,0,0.3,0.1
						c0-0.1,0-0.2,0-0.3c-0.1,0-0.3,0-0.4,0c0,0,0,0,0,0c0,0.1-0.1,0.2-0.1,0.2C-245.1,398.8-245.1,398.7-245,398.7z"/>
				</g>
				<g>
					<path class="st3" d="M-244.6,398.9c-0.1,0-0.4,0-0.5-0.1c0,0.1-0.1,0.3-0.1,0.4c0.1-0.2,0.4-0.1,0.5,0.1
						C-244.7,399.2-244.7,399-244.6,398.9z"/>
					<path d="M-244.7,399.3c-0.1-0.1-0.2-0.2-0.3-0.2c0,0,0,0,0,0c-0.1,0-0.1,0-0.2,0.1l0,0l0,0c0-0.1,0-0.3,0.1-0.4l0,0l0,0
						c0.1,0.1,0.4,0.1,0.5,0.1c0,0,0,0,0,0l0,0l0,0C-244.7,399-244.7,399.2-244.7,399.3L-244.7,399.3L-244.7,399.3z M-245,399.1
						C-245,399.1-245,399.1-245,399.1c0.1,0,0.2,0.1,0.3,0.1c0-0.1,0-0.2,0-0.3c-0.1,0-0.3,0-0.5-0.1c0,0.1-0.1,0.2-0.1,0.3
						C-245.1,399.1-245.1,399.1-245,399.1z"/>
				</g>
				<g>
					<path class="st3" d="M-244.9,398.3c-0.3,0.2-0.5,0.5-0.6,0.8c0.1,0,0.2,0,0.2,0.1C-245.2,398.8-245,398.5-244.9,398.3z"/>
					<path d="M-245.3,399.2L-245.3,399.2c0-0.1-0.1-0.1-0.2-0.1c0,0,0,0,0,0h0l0,0c0.1-0.3,0.3-0.6,0.6-0.8l0,0
						C-245,398.4-245.2,398.7-245.3,399.2L-245.3,399.2z M-245.5,399c0.1,0,0.2,0,0.2,0.1c0.1-0.4,0.2-0.6,0.3-0.8
						C-245.2,398.5-245.4,398.8-245.5,399z"/>
				</g>
				<g>
					<path d="M-245.6,399L-245.6,399c0.1-0.3,0.5-0.7,0.7-0.9l0,0C-245.1,398.3-245.4,398.8-245.6,399z"/>
				</g>
				<g>
					<path d="M-243.8,399.3L-243.8,399.3c0-0.2,0-0.6-0.1-0.9l0,0C-243.8,398.7-243.8,399.1-243.8,399.3z"/>
				</g>
				<g>
					<path class="st13" d="M-243.5,399c-0.1,0-0.2-0.1-0.3,0v0C-243.7,398.9-243.6,399-243.5,399L-243.5,399z"/>
				</g>
				<g>
					<path class="st3" d="M-243.5,399.1c-0.1,0-0.2-0.1-0.3,0v0C-243.7,399-243.6,399.1-243.5,399.1L-243.5,399.1z"/>
				</g>
				<g>
					<path class="st1" d="M-243.5,399.1c-0.1,0-0.2-0.1-0.3,0v0C-243.7,399-243.6,399.1-243.5,399.1L-243.5,399.1z"/>
				</g>
				<g>
					<path class="st3" d="M-243.5,399.1c-0.1,0-0.2-0.1-0.3,0v0C-243.7,399-243.6,399.1-243.5,399.1L-243.5,399.1z"/>
				</g>
				<g>
					<path class="st13" d="M-243.5,399.2c-0.1,0-0.2-0.1-0.3,0v0C-243.7,399.1-243.6,399.2-243.5,399.2L-243.5,399.2z"/>
				</g>
			</g>
			<g>
				<g>
					<g>
						<path class="st5" d="M-247.8,397.3c-0.1,0-0.1,0.2,0,0.2S-247.6,397.3-247.8,397.3z"/>
					</g>
					<g>
						<path class="st5" d="M-247.5,397.3c-0.1,0-0.1,0.2,0,0.2C-247.4,397.5-247.4,397.3-247.5,397.3z"/>
					</g>
					<g>
						<path class="st5" d="M-247.2,397.3c-0.1,0-0.1,0.2,0,0.2C-247.1,397.5-247.1,397.3-247.2,397.3z"/>
					</g>
					<g>
						<path class="st5" d="M-247.9,397.6c-0.1,0-0.1,0.2,0,0.2C-247.7,397.8-247.7,397.6-247.9,397.6z"/>
					</g>
					<g>
						<path class="st5" d="M-247.6,397.6c-0.1,0-0.1,0.2,0,0.2C-247.5,397.8-247.5,397.6-247.6,397.6z"/>
					</g>
					<g>
						<path class="st5" d="M-247.3,397.6c-0.1,0-0.1,0.2,0,0.2C-247.2,397.8-247.2,397.6-247.3,397.6z"/>
					</g>
					<g>
						<path class="st5" d="M-247.9,397.8c-0.1,0-0.1,0.2,0,0.2S-247.7,397.8-247.9,397.8z"/>
					</g>
					<g>
						<path class="st5" d="M-247.6,397.8c-0.1,0-0.1,0.2,0,0.2C-247.5,398-247.5,397.8-247.6,397.8z"/>
					</g>
					<g>
						<path class="st5" d="M-247.4,397.8c-0.1,0-0.1,0.2,0,0.2S-247.2,397.8-247.4,397.8z"/>
					</g>
					<g>
						<path class="st5" d="M-247.8,398.1c-0.1,0-0.1,0.2,0,0.2C-247.7,398.3-247.7,398.1-247.8,398.1z"/>
					</g>
					<g>
						<path class="st5" d="M-247.6,398.1c-0.1,0-0.1,0.2,0,0.2C-247.5,398.3-247.4,398.1-247.6,398.1z"/>
					</g>
					<g>
						<path class="st5" d="M-247.3,398.1c-0.1,0-0.1,0.2,0,0.2C-247.2,398.3-247.2,398.1-247.3,398.1z"/>
					</g>
					<g>
						<path class="st5" d="M-247.8,398.3c-0.1,0-0.1,0.2,0,0.2C-247.7,398.5-247.7,398.3-247.8,398.3z"/>
					</g>
					<g>
						<path class="st5" d="M-247.6,398.3c-0.1,0-0.1,0.2,0,0.2C-247.4,398.5-247.4,398.3-247.6,398.3z"/>
					</g>
					<g>
						<path class="st5" d="M-247.3,398.3c-0.1,0-0.1,0.2,0,0.2C-247.2,398.5-247.2,398.3-247.3,398.3z"/>
					</g>
					<g>
						<path class="st5" d="M-247.7,398.5c-0.1,0-0.1,0.2,0,0.2C-247.6,398.7-247.6,398.5-247.7,398.5z"/>
					</g>
					<g>
						<path class="st5" d="M-247.5,398.5c-0.1,0-0.1,0.2,0,0.2C-247.4,398.7-247.4,398.5-247.5,398.5z"/>
					</g>
					<g>
						<path class="st5" d="M-247.3,398.5c-0.1,0-0.1,0.1,0,0.1C-247.2,398.6-247.2,398.5-247.3,398.5z"/>
					</g>
					<g>
						<path class="st5" d="M-247.6,398.7c-0.1,0-0.1,0.2,0,0.2C-247.5,398.9-247.5,398.7-247.6,398.7z"/>
					</g>
					<g>
						<path class="st5" d="M-247.4,398.7c-0.1,0-0.1,0.2,0,0.1C-247.3,398.8-247.3,398.7-247.4,398.7z"/>
					</g>
					<g>
						<path class="st5" d="M-247.2,398.7c-0.1,0-0.1,0.1,0,0.1C-247.1,398.8-247.1,398.7-247.2,398.7z"/>
					</g>
					<g>
						<path class="st5" d="M-247.5,398.9c-0.1,0-0.1,0.2,0,0.2C-247.4,399.1-247.4,398.9-247.5,398.9z"/>
					</g>
					<g>
						<path class="st5" d="M-247.3,398.9c-0.1,0-0.1,0.2,0,0.1C-247.2,399-247.2,398.8-247.3,398.9z"/>
					</g>
					<g>
						<path class="st5" d="M-247.2,398.8c-0.1,0,0,0.1,0,0.1C-247.1,398.9-247.1,398.8-247.2,398.8z"/>
					</g>
					<g>
						<path class="st5" d="M-247.4,399.1c-0.1,0,0,0.2,0.1,0.1C-247.3,399.2-247.3,399.1-247.4,399.1z"/>
					</g>
					<g>
						<path class="st5" d="M-247.2,399c-0.1,0,0,0.1,0,0.1C-247.1,399.1-247.2,399-247.2,399z"/>
					</g>
					<g>
						<path class="st5" d="M-247.1,398.9C-247.2,399-247.1,399.1-247.1,398.9C-247,399-247,398.9-247.1,398.9z"/>
					</g>
					<g>
						<path class="st5" d="M-247.3,399.2c-0.1,0,0,0.2,0.1,0.1C-247.2,399.3-247.2,399.2-247.3,399.2z"/>
					</g>
					<g>
						<path class="st5" d="M-247.2,399.1c-0.1,0,0,0.1,0,0.1C-247,399.2-247.1,399.1-247.2,399.1z"/>
					</g>
					<g>
						<path class="st5" d="M-247,399.1C-247.1,399.1-247.1,399.2-247,399.1C-246.9,399.1-247,399-247,399.1z"/>
					</g>
					<g>
						<path class="st5" d="M-247.2,399.3c-0.1,0,0,0.1,0.1,0.1C-247.1,399.4-247.1,399.3-247.2,399.3z"/>
					</g>
					<g>
						<path class="st5" d="M-247.1,399.3C-247.1,399.3-247.1,399.4-247.1,399.3C-247,399.3-247,399.2-247.1,399.3z"/>
					</g>
					<g>
						<path class="st5" d="M-247,399.2C-247,399.2-247,399.3-247,399.2C-246.9,399.2-246.9,399.2-247,399.2z"/>
					</g>
					<g>
						<path class="st5" d="M-247.1,399.4C-247.1,399.5-247.1,399.6-247.1,399.4C-247,399.5-247,399.4-247.1,399.4z"/>
					</g>
					<g>
						<path class="st5" d="M-247,399.4C-247,399.4-247,399.5-247,399.4C-246.9,399.4-246.9,399.3-247,399.4z"/>
					</g>
					<g>
						<path class="st5" d="M-246.9,399.3C-246.9,399.3-246.9,399.4-246.9,399.3C-246.8,399.3-246.8,399.3-246.9,399.3z"/>
					</g>
					<g>
						<path class="st5" d="M-247,399.5C-247,399.6-247,399.7-247,399.5C-246.9,399.6-246.9,399.5-247,399.5z"/>
					</g>
					<g>
						<path class="st5" d="M-246.9,399.4C-246.9,399.5-246.9,399.6-246.9,399.4C-246.8,399.5-246.8,399.4-246.9,399.4z"/>
					</g>
					<g>
						<path class="st5" d="M-246.8,399.4C-246.8,399.4-246.8,399.5-246.8,399.4C-246.7,399.4-246.8,399.3-246.8,399.4z"/>
					</g>
					<g>
						<path class="st5" d="M-246.7,399.5C-246.8,399.5-246.7,399.5-246.7,399.5C-246.6,399.5-246.7,399.4-246.7,399.5z"/>
					</g>
					<g>
						<path class="st5" d="M-246.8,399.5C-246.8,399.6-246.8,399.6-246.8,399.5C-246.7,399.6-246.7,399.5-246.8,399.5z"/>
					</g>
					<g>
						<path class="st5" d="M-246.9,399.6C-246.9,399.6-246.9,399.7-246.9,399.6C-246.8,399.6-246.8,399.6-246.9,399.6z"/>
					</g>
					<g>
						<path class="st5" d="M-246.6,399.6C-246.7,399.6-246.6,399.6-246.6,399.6C-246.6,399.6-246.6,399.5-246.6,399.6z"/>
					</g>
					<g>
						<path class="st5" d="M-246.7,399.6C-246.7,399.6-246.7,399.7-246.7,399.6C-246.6,399.6-246.7,399.6-246.7,399.6z"/>
					</g>
					<g>
						<path class="st5" d="M-246.8,399.7C-246.8,399.7-246.8,399.8-246.8,399.7C-246.7,399.7-246.7,399.7-246.8,399.7z"/>
					</g>
					<g>
						<path class="st5" d="M-246.6,399.6C-246.6,399.6-246.6,399.7-246.6,399.6C-246.5,399.6-246.5,399.6-246.6,399.6z"/>
					</g>
					<g>
						<path class="st5" d="M-246.6,399.7C-246.6,399.7-246.6,399.8-246.6,399.7C-246.5,399.7-246.6,399.7-246.6,399.7z"/>
					</g>
					<g>
						<path class="st5" d="M-246.7,399.7C-246.7,399.8-246.7,399.8-246.7,399.7C-246.6,399.8-246.6,399.7-246.7,399.7z"/>
					</g>
					<g>
						<path class="st5" d="M-246.5,399.7C-246.5,399.7-246.5,399.7-246.5,399.7C-246.4,399.7-246.5,399.6-246.5,399.7z"/>
					</g>
					<g>
						<path class="st5" d="M-246.5,399.7C-246.6,399.7-246.5,399.8-246.5,399.7C-246.5,399.7-246.5,399.7-246.5,399.7z"/>
					</g>
					<g>
						<path class="st5" d="M-246.6,399.8C-246.6,399.8-246.6,399.9-246.6,399.8C-246.5,399.8-246.6,399.8-246.6,399.8z"/>
					</g>
					<g>
						<path class="st5" d="M-246.4,399.7C-246.4,399.7-246.4,399.8-246.4,399.7C-246.4,399.7-246.4,399.7-246.4,399.7z"/>
					</g>
					<g>
						<path class="st5" d="M-246.5,399.8C-246.5,399.8-246.5,399.8-246.5,399.8C-246.4,399.8-246.4,399.7-246.5,399.8z"/>
					</g>
					<g>
						<path class="st5" d="M-246.5,399.8C-246.5,399.9-246.5,399.9-246.5,399.8C-246.4,399.8-246.5,399.8-246.5,399.8z"/>
					</g>
					<g>
						<path class="st5" d="M-246.4,399.7C-246.4,399.8-246.3,399.8-246.4,399.7C-246.3,399.8-246.3,399.7-246.4,399.7z"/>
					</g>
					<g>
						<path class="st5" d="M-246.4,399.8C-246.4,399.8-246.4,399.9-246.4,399.8C-246.3,399.8-246.4,399.8-246.4,399.8z"/>
					</g>
					<g>
						<path class="st5" d="M-246.4,399.9C-246.4,399.9-246.4,399.9-246.4,399.9C-246.4,399.9-246.4,399.8-246.4,399.9z"/>
					</g>
					<g>
						<path class="st5" d="M-246.3,399.8C-246.3,399.8-246.3,399.8-246.3,399.8C-246.2,399.8-246.3,399.8-246.3,399.8z"/>
					</g>
					<g>
						<path class="st5" d="M-246.3,399.8C-246.3,399.9-246.3,399.9-246.3,399.8C-246.3,399.8-246.3,399.8-246.3,399.8z"/>
					</g>
					<g>
						<path class="st5" d="M-246.3,399.9C-246.4,399.9-246.3,399.9-246.3,399.9C-246.3,399.9-246.3,399.9-246.3,399.9z"/>
					</g>
					<g>
						<path class="st5" d="M-247.1,397.2c-0.1,0-0.1,0.1,0,0.1C-247,397.3-247,397.2-247.1,397.2z"/>
					</g>
				</g>
				<g>
					<g>
						<path class="st5" d="M-241.4,397.3c0.1,0,0.1,0.2,0,0.2S-241.6,397.3-241.4,397.3z"/>
					</g>
					<g>
						<path class="st5" d="M-241.7,397.3c0.1,0,0.1,0.2,0,0.2C-241.8,397.5-241.8,397.3-241.7,397.3z"/>
					</g>
					<g>
						<path class="st5" d="M-241.9,397.3c0.1,0,0.1,0.2,0,0.2S-242.1,397.3-241.9,397.3z"/>
					</g>
					<g>
						<path class="st5" d="M-241.3,397.6c0.1,0,0.1,0.2,0,0.2S-241.5,397.6-241.3,397.6z"/>
					</g>
					<g>
						<path class="st5" d="M-241.6,397.6c0.1,0,0.1,0.2,0,0.2C-241.7,397.8-241.7,397.6-241.6,397.6z"/>
					</g>
					<g>
						<path class="st5" d="M-241.8,397.6c0.1,0,0.1,0.2,0,0.2S-242,397.6-241.8,397.6z"/>
					</g>
					<g>
						<path class="st5" d="M-241.3,397.8c0.1,0,0.1,0.2,0,0.2S-241.4,397.8-241.3,397.8z"/>
					</g>
					<g>
						<path class="st5" d="M-241.6,397.8c0.1,0,0.1,0.2,0,0.2C-241.7,398-241.7,397.8-241.6,397.8z"/>
					</g>
					<g>
						<path class="st5" d="M-241.8,397.8c0.1,0,0.1,0.2,0,0.2S-242,397.8-241.8,397.8z"/>
					</g>
					<g>
						<path class="st5" d="M-241.3,398.1c0.1,0,0.1,0.2,0,0.2C-241.5,398.3-241.5,398.1-241.3,398.1z"/>
					</g>
					<g>
						<path class="st5" d="M-241.6,398.1c0.1,0,0.1,0.2,0,0.2C-241.7,398.3-241.7,398.1-241.6,398.1z"/>
					</g>
					<g>
						<path class="st5" d="M-241.8,398.1c0.1,0,0.1,0.2,0,0.2C-242,398.3-242,398.1-241.8,398.1z"/>
					</g>
					<g>
						<path class="st5" d="M-241.4,398.3c0.1,0,0.1,0.2,0,0.2C-241.5,398.5-241.5,398.3-241.4,398.3z"/>
					</g>
					<g>
						<path class="st5" d="M-241.6,398.3c0.1,0,0.1,0.2,0,0.2C-241.8,398.5-241.8,398.3-241.6,398.3z"/>
					</g>
					<g>
						<path class="st5" d="M-241.9,398.3c0.1,0,0.1,0.2,0,0.2C-242,398.5-242,398.3-241.9,398.3z"/>
					</g>
					<g>
						<path class="st5" d="M-241.5,398.5c0.1,0,0.1,0.2,0,0.2C-241.6,398.7-241.6,398.5-241.5,398.5z"/>
					</g>
					<g>
						<path class="st5" d="M-241.7,398.5c0.1,0,0.1,0.2,0,0.2C-241.8,398.7-241.8,398.5-241.7,398.5z"/>
					</g>
					<g>
						<path class="st5" d="M-241.9,398.5c0.1,0,0.1,0.1,0,0.1C-242,398.6-242,398.5-241.9,398.5z"/>
					</g>
					<g>
						<path class="st5" d="M-241.6,398.7c0.1,0,0.1,0.2,0,0.2C-241.7,398.9-241.7,398.7-241.6,398.7z"/>
					</g>
					<g>
						<path class="st5" d="M-241.8,398.7c0.1,0,0.1,0.2,0,0.1C-241.9,398.8-241.9,398.7-241.8,398.7z"/>
					</g>
					<g>
						<path class="st5" d="M-242,398.7c0.1,0,0.1,0.1,0,0.1C-242.1,398.8-242.1,398.7-242,398.7z"/>
					</g>
					<g>
						<path class="st5" d="M-241.7,398.9c0.1,0,0.1,0.2,0,0.2C-241.8,399.1-241.8,398.9-241.7,398.9z"/>
					</g>
					<g>
						<path class="st5" d="M-241.8,398.9c0.1,0,0.1,0.2,0,0.1C-242,399-241.9,398.8-241.8,398.9z"/>
					</g>
					<g>
						<path class="st5" d="M-242,398.8c0.1,0,0,0.1,0,0.1C-242.1,398.9-242.1,398.8-242,398.8z"/>
					</g>
					<g>
						<path class="st5" d="M-241.8,399.1c0.1,0,0,0.2-0.1,0.1C-241.9,399.2-241.9,399.1-241.8,399.1z"/>
					</g>
					<g>
						<path class="st5" d="M-241.9,399c0.1,0,0,0.1,0,0.1C-242.1,399.1-242,399-241.9,399z"/>
					</g>
					<g>
						<path class="st5" d="M-242.1,398.9C-242,399-242.1,399.1-242.1,398.9C-242.2,399-242.2,398.9-242.1,398.9z"/>
					</g>
					<g>
						<path class="st5" d="M-241.9,399.2c0.1,0,0,0.2-0.1,0.1C-242,399.3-242,399.2-241.9,399.2z"/>
					</g>
					<g>
						<path class="st5" d="M-242,399.1c0.1,0,0,0.1,0,0.1C-242.1,399.2-242.1,399.1-242,399.1z"/>
					</g>
					<g>
						<path class="st5" d="M-242.1,399.1C-242.1,399.1-242.1,399.2-242.1,399.1C-242.2,399.1-242.2,399-242.1,399.1z"/>
					</g>
					<g>
						<path class="st5" d="M-242,399.3c0.1,0,0,0.1-0.1,0.1C-242.1,399.4-242.1,399.3-242,399.3z"/>
					</g>
					<g>
						<path class="st5" d="M-242.1,399.3C-242.1,399.3-242.1,399.4-242.1,399.3C-242.2,399.3-242.2,399.2-242.1,399.3z"/>
					</g>
					<g>
						<path class="st5" d="M-242.2,399.2C-242.2,399.2-242.2,399.3-242.2,399.2C-242.3,399.2-242.3,399.2-242.2,399.2z"/>
					</g>
					<g>
						<path class="st5" d="M-242.1,399.4C-242,399.5-242.1,399.6-242.1,399.4C-242.2,399.5-242.2,399.4-242.1,399.4z"/>
					</g>
					<g>
						<path class="st5" d="M-242.2,399.4C-242.2,399.4-242.2,399.5-242.2,399.4C-242.3,399.4-242.3,399.3-242.2,399.4z"/>
					</g>
					<g>
						<path class="st5" d="M-242.3,399.3C-242.3,399.3-242.3,399.4-242.3,399.3C-242.4,399.3-242.3,399.3-242.3,399.3z"/>
					</g>
					<g>
						<path class="st5" d="M-242.2,399.5C-242.1,399.6-242.2,399.7-242.2,399.5C-242.3,399.6-242.3,399.5-242.2,399.5z"/>
					</g>
					<g>
						<path class="st5" d="M-242.3,399.4C-242.2,399.5-242.3,399.6-242.3,399.4C-242.4,399.5-242.3,399.4-242.3,399.4z"/>
					</g>
					<g>
						<path class="st5" d="M-242.4,399.4C-242.3,399.4-242.4,399.5-242.4,399.4C-242.5,399.4-242.4,399.3-242.4,399.4z"/>
					</g>
					<g>
						<path class="st5" d="M-242.5,399.5C-242.4,399.5-242.5,399.5-242.5,399.5C-242.5,399.5-242.5,399.4-242.5,399.5z"/>
					</g>
					<g>
						<path class="st5" d="M-242.4,399.5C-242.4,399.6-242.4,399.6-242.4,399.5C-242.5,399.6-242.4,399.5-242.4,399.5z"/>
					</g>
					<g>
						<path class="st5" d="M-242.3,399.6C-242.3,399.6-242.3,399.7-242.3,399.6C-242.4,399.6-242.4,399.6-242.3,399.6z"/>
					</g>
					<g>
						<path class="st5" d="M-242.5,399.6C-242.5,399.6-242.5,399.6-242.5,399.6C-242.6,399.6-242.6,399.5-242.5,399.6z"/>
					</g>
					<g>
						<path class="st5" d="M-242.5,399.6C-242.4,399.6-242.5,399.7-242.5,399.6C-242.6,399.6-242.5,399.6-242.5,399.6z"/>
					</g>
					<g>
						<path class="st5" d="M-242.4,399.7C-242.4,399.7-242.4,399.8-242.4,399.7C-242.5,399.7-242.5,399.7-242.4,399.7z"/>
					</g>
					<g>
						<path class="st5" d="M-242.6,399.6C-242.6,399.6-242.6,399.7-242.6,399.6C-242.7,399.6-242.7,399.6-242.6,399.6z"/>
					</g>
					<g>
						<path class="st5" d="M-242.6,399.7C-242.5,399.7-242.6,399.8-242.6,399.7C-242.6,399.7-242.6,399.7-242.6,399.7z"/>
					</g>
					<g>
						<path class="st5" d="M-242.5,399.7C-242.5,399.8-242.5,399.8-242.5,399.7C-242.6,399.8-242.5,399.7-242.5,399.7z"/>
					</g>
					<g>
						<path class="st5" d="M-242.7,399.7C-242.7,399.7-242.7,399.7-242.7,399.7C-242.8,399.7-242.7,399.6-242.7,399.7z"/>
					</g>
					<g>
						<path class="st5" d="M-242.6,399.7C-242.6,399.7-242.7,399.8-242.6,399.7C-242.7,399.7-242.7,399.7-242.6,399.7z"/>
					</g>
					<g>
						<path class="st5" d="M-242.6,399.8C-242.6,399.8-242.6,399.9-242.6,399.8C-242.7,399.8-242.6,399.8-242.6,399.8z"/>
					</g>
					<g>
						<path class="st5" d="M-242.8,399.7C-242.7,399.7-242.8,399.8-242.8,399.7C-242.8,399.7-242.8,399.7-242.8,399.7z"/>
					</g>
					<g>
						<path class="st5" d="M-242.7,399.8C-242.7,399.8-242.7,399.8-242.7,399.8C-242.8,399.8-242.7,399.7-242.7,399.8z"/>
					</g>
					<g>
						<path class="st5" d="M-242.7,399.8C-242.6,399.9-242.7,399.9-242.7,399.8C-242.7,399.8-242.7,399.8-242.7,399.8z"/>
					</g>
					<g>
						<path class="st5" d="M-242.8,399.7C-242.8,399.8-242.8,399.8-242.8,399.7C-242.9,399.8-242.8,399.7-242.8,399.7z"/>
					</g>
					<g>
						<path class="st5" d="M-242.8,399.8C-242.8,399.8-242.8,399.9-242.8,399.8C-242.9,399.8-242.8,399.8-242.8,399.8z"/>
					</g>
					<g>
						<path class="st5" d="M-242.8,399.9C-242.7,399.9-242.8,399.9-242.8,399.9C-242.8,399.9-242.8,399.8-242.8,399.9z"/>
					</g>
					<g>
						<path class="st5" d="M-242.9,399.8C-242.9,399.8-242.9,399.8-242.9,399.8C-242.9,399.8-242.9,399.8-242.9,399.8z"/>
					</g>
					<g>
						<path class="st5" d="M-242.9,399.8C-242.9,399.9-242.9,399.9-242.9,399.8C-242.9,399.8-242.9,399.8-242.9,399.8z"/>
					</g>
					<g>
						<path class="st5" d="M-242.8,399.9C-242.8,399.9-242.9,399.9-242.8,399.9C-242.9,399.9-242.9,399.9-242.8,399.9z"/>
					</g>
					<g>
						<path class="st5" d="M-242.1,397.2c0.1,0,0.1,0.1,0,0.1C-242.2,397.3-242.2,397.2-242.1,397.2z"/>
					</g>
				</g>
			</g>
			<g>
				<g>
					<path class="st3" d="M-244.6,394.8c0.1,0,0.2,0,0.2,0c0,0,0-0.1,0-0.1c0,0,0.1-0.1,0.4,0c0.8,0.2,0.9,0.5,1.6,0.8
						c0,0,0,0,0.1,0c0,0,0-0.1,0.1-0.1c0,0,0.1,0,0.2,0c0.1,0,0.1,0.1,0.1,0.1c0,0,0,0.1,0,0.1c0.1,0.1,0.4,0.1,0.3,0.5
						c-0.1-0.1-0.2-0.1-0.3-0.1c-0.1,0-0.2,0-0.2-0.2c0,0-0.1,0-0.1,0c0,0,0,0,0,0c0,0.1-0.1,0.1-0.3,0.1c-0.7-0.2-0.9-0.7-1.6-0.7
						c0,0,0,0,0,0c0,0.1-0.1,0.1-0.3,0.1c-0.2,0-0.3-0.1-0.3-0.1c0,0,0,0,0,0c-0.8,0-1,0.5-1.6,0.7c-0.1,0-0.2,0-0.3-0.1
						c0,0,0,0,0,0c0,0-0.1,0-0.1,0c0,0.1-0.1,0.2-0.2,0.2c-0.1,0-0.3,0.1-0.3,0.1c-0.1-0.4,0.2-0.4,0.3-0.5c0,0,0-0.1,0-0.1
						c0,0,0-0.1,0.1-0.1c0.1,0,0.2,0,0.2,0c0,0,0,0.1,0.1,0.1c0,0,0.1,0,0.1,0c0.6-0.2,0.7-0.6,1.6-0.8c0.2,0,0.4,0,0.4,0
						c0,0,0,0.1,0,0.1C-244.7,394.8-244.7,394.8-244.6,394.8z"/>
					<path d="M-247.5,396.1L-247.5,396.1c-0.1-0.4,0.1-0.6,0.3-0.6c0,0,0,0,0-0.1c0,0,0,0,0-0.1c0,0,0.1-0.1,0.1-0.1
						c0.1,0,0.2,0,0.2,0c0,0,0,0,0,0l0,0.1c0,0,0,0,0,0c0.3-0.1,0.4-0.2,0.6-0.3c0.2-0.2,0.5-0.3,1-0.4c0.2,0,0.3,0,0.4,0
						c0,0,0,0,0,0.1v0.1c0.1,0,0.2,0,0.3,0v-0.1c0,0,0,0,0-0.1c0.1,0,0.2-0.1,0.4,0c0.5,0.1,0.7,0.3,1,0.4c0.2,0.1,0.3,0.2,0.6,0.3
						c0,0,0,0,0,0c0,0,0-0.1,0-0.1c0,0,0,0,0,0c0.1,0,0.1,0,0.2,0c0,0,0.1,0.1,0.1,0.1c0,0,0,0,0,0.1c0,0,0,0,0,0.1
						c0.2,0.1,0.4,0.2,0.3,0.5l0,0.1l-0.1-0.1c-0.1-0.1-0.2-0.1-0.3-0.1c-0.1,0-0.2,0-0.2-0.1c0,0,0-0.1,0-0.1
						c0,0.1-0.2,0.1-0.3,0.1c-0.3-0.1-0.5-0.2-0.6-0.4c-0.3-0.2-0.5-0.4-0.9-0.4c0,0.1-0.1,0.1-0.3,0.1c-0.3,0-0.3-0.1-0.3-0.1
						c-0.4,0-0.7,0.2-0.9,0.4c-0.2,0.1-0.4,0.3-0.6,0.4c-0.1,0-0.3,0-0.3-0.1c0,0,0,0.1,0,0.1c-0.1,0.1-0.2,0.1-0.2,0.1
						C-247.2,395.9-247.3,395.9-247.5,396.1L-247.5,396.1z M-247.1,395.4C-247.1,395.4-247.1,395.4-247.1,395.4l0.1,0.1l-0.1,0
						c-0.2,0.1-0.3,0.1-0.3,0.3c0.1-0.1,0.2-0.1,0.3-0.1c0.1,0,0.1,0,0.2,0c0,0,0,0,0-0.1l0,0l0,0c0,0,0.1,0,0.1,0l0,0l0,0.1
						c0,0,0.1,0.1,0.2,0c0.3-0.1,0.4-0.2,0.6-0.3c0.3-0.2,0.6-0.4,1-0.4l0.1,0v0.1c0,0,0.1,0.1,0.3,0.1c0.2,0,0.3,0,0.3-0.1v-0.1
						l0.1,0c0.5,0,0.8,0.2,1,0.4c0.2,0.1,0.4,0.3,0.6,0.3c0.1,0,0.2,0,0.2,0c0,0,0,0,0,0l0,0l0,0c0,0,0.1,0,0.1,0l0,0l0,0
						c0,0,0,0.1,0,0.1c0,0,0.1,0,0.2,0c0.1,0,0.2,0,0.3,0.1c0-0.2-0.1-0.3-0.3-0.3l-0.1,0l0-0.1c0,0,0,0,0-0.1c0,0,0,0-0.1-0.1
						c-0.1,0-0.1,0-0.1,0c0,0,0,0.1,0,0.1l0,0l0,0c0,0-0.1,0-0.1,0c-0.3-0.1-0.5-0.2-0.6-0.3c-0.2-0.2-0.5-0.3-0.9-0.4
						c-0.2,0-0.3,0-0.3,0v0.2l0,0c-0.1,0-0.1,0-0.2,0c-0.1,0-0.2,0-0.2,0l0,0v-0.2c0,0-0.1,0-0.3,0c-0.5,0.1-0.7,0.3-0.9,0.4
						c-0.2,0.1-0.4,0.2-0.6,0.3c0,0,0,0-0.1,0l0,0l-0.1-0.2C-246.9,395.3-247,395.3-247.1,395.4
						C-247.1,395.3-247.1,395.4-247.1,395.4z"/>
				</g>
				<g>
					<g>
						<path class="st6" d="M-244.8,394.8C-244.9,394.8-244.9,394.7-244.8,394.8c-0.1-0.1,0-0.1,0-0.1"/>
					</g>
					<g>
						<path class="st6" d="M-246.9,395.4c0,0.1,0.1,0.2,0.1,0.3"/>
					</g>
					<g>
						<path class="st6" d="M-247,395.4c0,0.1,0.1,0.2,0.1,0.3"/>
					</g>
					<g>
						<path class="st6" d="M-247.2,395.4c0,0,0.1,0,0.2,0c0,0,0,0.1-0.1,0.1"/>
					</g>
					<g>
						<path class="st6" d="M-246.8,395.2c0,0-0.1,0.1-0.1,0.1c0,0,0.1,0,0.1,0"/>
					</g>
					<g>
						<path class="st6" d="M-244.9,394.7c0,0.1,0,0.2,0,0.3"/>
					</g>
					<g>
						<path class="st6" d="M-244.4,394.8C-244.3,394.8-244.3,394.7-244.4,394.8c0.1-0.1,0-0.1,0-0.1"/>
					</g>
					<g>
						<path class="st6" d="M-242.3,395.4c0,0.1-0.1,0.2-0.1,0.3"/>
					</g>
					<g>
						<path class="st6" d="M-242.2,395.4c0,0.1-0.1,0.2-0.1,0.3"/>
					</g>
					<g>
						<path class="st6" d="M-242,395.4c0,0-0.1,0-0.2,0c0,0,0,0.1,0.1,0.1"/>
					</g>
					<g>
						<path class="st6" d="M-242.3,395.2c0,0,0.1,0.1,0.1,0.1c0,0-0.1,0-0.1,0"/>
					</g>
					<g>
						<path class="st6" d="M-244.3,394.7c0,0.1,0,0.2,0,0.3"/>
					</g>
				</g>
			</g>
			<g>
				<g>
					<g>
						<g>
							<polygon points="-245.8,393.5 -245.8,393.5 -245.9,393.4 -245.8,393.5 -245.8,393.5 -245.8,393.6 -245.7,393.5 -245.9,393.4 
								-245.9,393.4 -245.9,393.6 -245.8,393.6 -245.8,393.6 -245.8,393.5 							"/>
						</g>
					</g>
					<g>
						<g>
							<polygon points="-245.6,393.5 -245.7,393.4 -245.6,393.5 -245.7,393.5 -245.8,393.3 -245.7,393.3 -245.6,393.5 -245.6,393.3 
								-245.6,393.3 -245.5,393.5 -245.6,393.5 -245.6,393.3 -245.6,393.5 							"/>
						</g>
					</g>
					<g>
						<g>
							<polygon points="-245.4,393.2 -245.5,393.3 -245.5,393.3 -245.4,393.3 -245.4,393.3 -245.5,393.3 -245.4,393.4 -245.3,393.4 
								-245.3,393.4 -245.5,393.4 -245.5,393.2 -245.4,393.2 							"/>
						</g>
					</g>
					<g>
						<g>
							<path d="M-245.3,393.3L-245.3,393.3C-245.3,393.2-245.3,393.2-245.3,393.3C-245.2,393.2-245.2,393.2-245.3,393.3
								C-245.2,393.2-245.2,393.3-245.3,393.3C-245.2,393.3-245.3,393.3-245.3,393.3L-245.3,393.3
								C-245.3,393.3-245.3,393.3-245.3,393.3C-245.2,393.3-245.2,393.3-245.3,393.3c0.1,0.1,0.1,0.1,0.1,0.1l0,0c0,0,0,0,0-0.1
								C-245.2,393.3-245.2,393.3-245.3,393.3C-245.2,393.3-245.2,393.2-245.3,393.3C-245.2,393.2-245.2,393.2-245.3,393.3
								C-245.3,393.2-245.3,393.2-245.3,393.3c-0.1-0.1,0,0.1,0,0.1l0,0L-245.3,393.3L-245.3,393.3z"/>
						</g>
					</g>
					<g>
						<g>
							<rect x="-245.2" y="393.2" transform="matrix(-0.1469 -0.9892 0.9892 -0.1469 -670.0934 208.5674)" width="0.2" height="0"/>
						</g>
					</g>
					<g>
						<g>
							<path d="M-244.9,393.2C-244.9,393.2-244.9,393.2-244.9,393.2C-245,393.2-245,393.2-244.9,393.2c-0.1,0.1-0.1,0.1,0,0.1
								C-244.9,393.3-244.9,393.3-244.9,393.2L-244.9,393.2c0,0.1,0,0.1,0,0.1c0,0-0.1,0-0.1-0.1C-245,393.2-245,393.1-244.9,393.2
								C-244.9,393.1-244.9,393.2-244.9,393.2L-244.9,393.2z"/>
						</g>
					</g>
					<g>
						<g>
							<path d="M-244.4,393.2C-244.4,393.2-244.4,393.2-244.4,393.2C-244.5,393.2-244.5,393.2-244.4,393.2
								C-244.5,393.3-244.5,393.3-244.4,393.2C-244.4,393.3-244.4,393.3-244.4,393.2L-244.4,393.2c0,0.1,0,0.1,0,0.1
								c0,0-0.1,0-0.1-0.1C-244.5,393.2-244.5,393.1-244.4,393.2C-244.4,393.1-244.4,393.2-244.4,393.2L-244.4,393.2z"/>
						</g>
					</g>
					<g>
						<g>
							<polygon points="-244.2,393.2 -244.3,393.2 -244.3,393.2 -244.2,393.2 -244.2,393.2 -244.3,393.2 -244.3,393.3 -244.2,393.3 
								-244.2,393.3 -244.3,393.3 -244.3,393.1 -244.2,393.1 							"/>
						</g>
					</g>
					<g>
						<g>
							<polygon points="-244.1,393.1 -244.1,393.3 -244,393.2 -244,393.2 -244,393.4 -244.1,393.4 -244.1,393.2 -244.1,393.3 
								-244.2,393.3 -244.1,393.1 							"/>
						</g>
					</g>
					<g>
						<g>
							<polygon points="-243.9,393.4 -243.9,393.2 -243.9,393.2 -243.9,393.2 -243.8,393.2 -243.8,393.2 -243.9,393.2 -243.9,393.4 
															"/>
						</g>
					</g>
					<g>
						<g>
							<polygon points="-243.3,393.4 -243.4,393.5 -243.3,393.6 -243.3,393.6 -243.4,393.6 -243.3,393.4 							"/>
						</g>
					</g>
					<g>
						<g>
							<polygon points="-244.7,393.2 -244.8,393.2 -244.8,393.2 -244.7,393.2 -244.7,393.3 -244.7,393.3 -244.7,393.3 -244.7,393.1 
								-244.8,393.1 -244.8,393.3 -244.8,393.3 -244.8,393.3 -244.7,393.3 							"/>
						</g>
					</g>
					<g>
						<g>
							<polygon points="-243.5,393.4 -243.5,393.4 -243.5,393.4 -243.5,393.4 -243.5,393.5 -243.5,393.5 -243.5,393.5 -243.4,393.3 
								-243.5,393.3 -243.6,393.5 -243.6,393.5 -243.6,393.5 -243.5,393.5 							"/>
						</g>
					</g>
					<g>
						<g>
							<path d="M-243.7,393.3L-243.7,393.3C-243.7,393.3-243.7,393.3-243.7,393.3C-243.7,393.3-243.6,393.3-243.7,393.3
								C-243.7,393.3-243.7,393.3-243.7,393.3C-243.7,393.3-243.7,393.3-243.7,393.3L-243.7,393.3
								C-243.7,393.3-243.7,393.4-243.7,393.3C-243.7,393.4-243.7,393.4-243.7,393.3c0,0.1,0,0.1,0,0.1l0,0
								C-243.7,393.5-243.7,393.4-243.7,393.3C-243.6,393.4-243.6,393.4-243.7,393.3c0.1,0,0.1,0,0.1,0
								C-243.6,393.3-243.6,393.3-243.7,393.3C-243.7,393.2-243.7,393.2-243.7,393.3C-243.7,393.2-243.8,393.4-243.7,393.3l0,0.1
								L-243.7,393.3L-243.7,393.3z"/>
						</g>
					</g>
				</g>
				<g>
					<g>
						<g>
							<path d="M-246.6,395.5L-246.6,395.5C-246.7,395.4-246.6,395.4-246.6,395.5C-246.6,395.4-246.6,395.4-246.6,395.5
								C-246.6,395.5-246.6,395.5-246.6,395.5C-246.6,395.5-246.6,395.5-246.6,395.5L-246.6,395.5
								C-246.6,395.6-246.6,395.5-246.6,395.5C-246.6,395.5-246.6,395.5-246.6,395.5c0.1,0.1,0.1,0.1,0.1,0.1l0,0c0,0,0,0,0-0.1
								C-246.5,395.5-246.5,395.5-246.6,395.5c0.1,0,0.1,0,0.1-0.1c0,0,0-0.1-0.1-0.1C-246.6,395.4-246.7,395.4-246.6,395.5l0,0.1
								l0,0L-246.6,395.5L-246.6,395.5z"/>
						</g>
					</g>
					<g>
						<g>
							<polygon points="-246.4,395.3 -246.5,395.4 -246.4,395.4 -246.4,395.4 -246.3,395.4 -246.4,395.5 -246.4,395.5 -246.3,395.5 
								-246.3,395.5 -246.4,395.6 -246.5,395.4 -246.4,395.3 							"/>
						</g>
					</g>
					<g>
						<g>
							<path d="M-246.3,395.4C-246.3,395.4-246.3,395.3-246.3,395.4C-246.3,395.3-246.3,395.3-246.3,395.4
								C-246.3,395.3-246.2,395.3-246.3,395.4C-246.2,395.3-246.2,395.3-246.3,395.4C-246.2,395.4-246.3,395.4-246.3,395.4
								L-246.3,395.4C-246.2,395.4-246.2,395.4-246.3,395.4C-246.2,395.4-246.2,395.3-246.3,395.4c0.1-0.1,0-0.1,0-0.1
								C-246.3,395.3-246.4,395.3-246.3,395.4l0,0.1l0,0L-246.3,395.4L-246.3,395.4z"/>
						</g>
					</g>
					<g>
						<g>
							<path d="M-246,395.3C-246,395.3-246,395.3-246,395.3c0-0.1-0.1-0.2-0.1-0.2l0,0C-246.1,395.1-246,395.2-246,395.3
								C-246,395.3-245.9,395.3-246,395.3C-246,395.4-246.1,395.4-246,395.3c-0.1,0-0.2-0.1-0.2-0.1l0,0
								C-246.2,395.2-246.1,395.3-246,395.3C-246.1,395.3-246,395.3-246,395.3z"/>
						</g>
					</g>
					<g>
						<g>
							<path d="M-245.8,395.1C-245.8,395.1-245.9,395.1-245.8,395.1C-245.9,395.1-245.9,395.2-245.8,395.1
								C-245.9,395.2-245.9,395.2-245.8,395.1C-245.9,395.2-245.8,395.2-245.8,395.1C-245.8,395.2-245.8,395.2-245.8,395.1
								L-245.8,395.1C-245.8,395.1-245.8,395.2-245.8,395.1c0,0.1-0.1,0.1-0.1,0.1c0,0-0.1-0.2-0.1-0.2s0,0,0.1,0c0,0,0.1,0,0.1,0
								L-245.8,395.1C-245.9,395.1-245.9,395-245.8,395.1c-0.1-0.1-0.1-0.1-0.1-0.1c0,0,0,0,0,0S-245.9,395.1-245.8,395.1
								C-245.9,395.1-245.9,395.1-245.8,395.1l0-0.1C-245.8,395-245.8,395.1-245.8,395.1C-245.8,395.1-245.8,395.1-245.8,395.1
								L-245.8,395.1z"/>
						</g>
					</g>
					<g>
						<g>
							<polygon points="-245.8,394.9 -245.7,395.1 -245.6,395 -245.6,395.1 -245.7,395.1 -245.8,394.9 							"/>
						</g>
					</g>
					<g>
						<g>
							<rect x="-245.7" y="394.9" transform="matrix(-0.4404 -0.8978 0.8978 -0.4404 -708.3295 348.37)" width="0.2" height="0"/>
						</g>
					</g>
					<g>
						<g>
							<path d="M-245.4,394.8C-245.4,394.8-245.4,394.8-245.4,394.8C-245.5,394.8-245.5,394.8-245.4,394.8c-0.1,0.1,0,0.1,0,0.1
								C-245.4,394.9-245.4,394.9-245.4,394.8L-245.4,394.8c0.1,0.1,0.1,0.1,0,0.2c0,0-0.1,0-0.1-0.1
								C-245.5,394.8-245.5,394.8-245.4,394.8C-245.4,394.7-245.4,394.8-245.4,394.8L-245.4,394.8z"/>
						</g>
					</g>
					<g>
						<g>
							<polygon points="-245.2,394.8 -245.2,394.7 -245.2,394.8 -245.2,394.8 -245.2,394.9 -245.2,394.9 -245.1,394.9 -245.1,394.9 
								-245.2,394.7 -245.3,394.7 -245.3,394.9 -245.2,394.9 -245.2,394.9 							"/>
						</g>
					</g>
					<g>
						<g>
							<path d="M-244.1,394.7C-244.1,394.7-244.1,394.7-244.1,394.7C-244.1,394.7-244.2,394.7-244.1,394.7c-0.1,0.1-0.1,0.1-0.1,0.1
								C-244.1,394.9-244.1,394.8-244.1,394.7L-244.1,394.7c0,0.1,0,0.2-0.1,0.1c0,0-0.1-0.1-0.1-0.1
								C-244.2,394.7-244.2,394.7-244.1,394.7C-244,394.7-244,394.7-244.1,394.7L-244.1,394.7z"/>
						</g>
					</g>
					<g>
						<g>
							<path d="M-243.9,394.9C-243.9,394.9-243.9,394.9-243.9,394.9c0.1-0.1,0.1-0.1,0-0.2C-243.9,394.7-243.9,394.8-243.9,394.9
								C-244,394.9-243.9,394.9-243.9,394.9L-243.9,394.9c-0.1,0-0.1,0-0.1-0.1c0-0.1,0.1-0.1,0.1-0.1c0.1,0,0.1,0.1,0.1,0.1
								C-243.8,394.9-243.9,394.9-243.9,394.9L-243.9,394.9z"/>
						</g>
					</g>
					<g>
						<g>
							<path d="M-243.6,394.9C-243.6,394.8-243.6,394.8-243.6,394.9C-243.7,394.8-243.7,394.8-243.6,394.9
								C-243.7,394.8-243.7,394.9-243.6,394.9C-243.6,394.9-243.6,394.9-243.6,394.9c0,0.1,0,0.2-0.1,0.1c-0.1,0,0-0.1,0-0.1l0,0
								c0,0,0,0,0,0.1C-243.7,395-243.7,395-243.6,394.9C-243.6,394.9-243.7,394.9-243.6,394.9c-0.1,0-0.1,0-0.1,0
								C-243.7,394.8-243.7,394.8-243.6,394.9C-243.6,394.8-243.6,394.8-243.6,394.9L-243.6,394.9z"/>
						</g>
					</g>
					<g>
						<g>
							<polygon points="-243.6,395.1 -243.5,394.9 -243.5,394.9 -243.5,394.9 -243.3,394.9 -243.4,395 -243.4,394.9 -243.5,395.1 
															"/>
						</g>
					</g>
					<g>
						<g>
							<rect x="-243" y="395.4" transform="matrix(0.4843 -0.8749 0.8749 0.4843 -471.1605 -8.627)" width="0.2" height="0"/>
						</g>
					</g>
					<g>
						<g>
							<path d="M-242.7,395.4C-242.7,395.4-242.7,395.4-242.7,395.4C-242.7,395.4-242.8,395.4-242.7,395.4
								C-242.8,395.5-242.8,395.5-242.7,395.4C-242.8,395.5-242.7,395.5-242.7,395.4L-242.7,395.4c0,0.1-0.1,0.1-0.1,0.1
								c0,0-0.1-0.1,0-0.1C-242.8,395.4-242.7,395.3-242.7,395.4C-242.7,395.4-242.6,395.4-242.7,395.4L-242.7,395.4z"/>
						</g>
					</g>
					<g>
						<g>
							<path d="M-244.7,394.9C-244.7,395-244.7,395-244.7,394.9C-244.7,395-244.7,395-244.7,394.9C-244.7,395-244.7,395-244.7,394.9
								C-244.6,394.9-244.7,394.9-244.7,394.9C-244.7,394.9-244.7,394.9-244.7,394.9C-244.7,394.9-244.7,394.9-244.7,394.9
								L-244.7,394.9c0-0.1,0-0.1,0-0.1c0,0,0.1,0,0.1,0c0,0,0.1,0,0.1,0.1c0,0.1,0,0.1-0.1,0.1c0,0-0.1,0-0.1,0
								S-244.8,395-244.7,394.9L-244.7,394.9z"/>
						</g>
					</g>
					<g>
						<g>
							<polygon points="-244.4,394.8 -244.5,394.9 -244.5,394.9 -244.4,394.9 -244.4,394.9 -244.5,395 -244.5,395 -244.4,395 
								-244.4,395 -244.5,395.1 -244.6,394.8 -244.4,394.8 							"/>
						</g>
					</g>
					<g>
						<g>
							<path d="M-243.1,395.3L-243.1,395.3C-243,395.2-243,395.2-243.1,395.3C-243,395.2-243,395.3-243.1,395.3
								C-243,395.3-243,395.3-243.1,395.3C-243,395.3-243.1,395.3-243.1,395.3L-243.1,395.3C-243.1,395.3-243.1,395.3-243.1,395.3
								c0,0.1,0,0.1,0,0.1c0,0,0,0,0,0l0,0c0,0,0,0,0-0.1C-243,395.4-243,395.3-243.1,395.3c0.1,0.1,0.1,0.1,0.1,0c0,0,0-0.1,0-0.1
								c0,0-0.1-0.1-0.1-0.1c0,0-0.1,0.2-0.1,0.2l0,0L-243.1,395.3L-243.1,395.3z"/>
						</g>
					</g>
					<g>
						<g>
							<polygon points="-243.3,395.1 -243.2,395.1 -243.3,395.2 -243.3,395.1 -243.4,395.2 -243.3,395.2 -243.3,395.2 -243.3,395.3 
								-243.2,395 -243.2,395 -243.4,395.2 -243.4,395.2 -243.4,395.2 							"/>
						</g>
					</g>
					<g>
						<g>
							<polygon points="-242.6,395.6 -242.5,395.5 -242.5,395.6 -242.6,395.6 -242.6,395.6 -242.5,395.6 -242.5,395.6 -242.5,395.6 
								-242.5,395.4 -242.6,395.4 -242.6,395.6 -242.6,395.6 -242.6,395.6 							"/>
						</g>
					</g>
				</g>
			</g>
		</g>
	</g>
</g>
</svg>
