<?xml version="1.0" encoding="utf-8"?>
<!-- Generator: Adobe Illustrator 19.0.0, SVG Export Plug-In . SVG Version: 6.00 Build 0)  -->
<svg version="1.1" id="Layer_1" xmlns="http://www.w3.org/2000/svg" xmlns:xlink="http://www.w3.org/1999/xlink" x="0px" y="0px"
	 viewBox="-269 374 72 46" style="enable-background:new -269 374 72 46;" xml:space="preserve">
<style type="text/css">
	.st0{clip-path:url(#SVGID_2_);}
	.st1{fill:#003671;}
	.st2{fill:#FFFFFF;}
	.st3{fill:#E40520;}
</style>
<g>
	<defs>
		<path id="SVGID_1_" d="M-204,420H-262c-3.8,0-7-3.1-7-7V381c0-3.8,3.1-7,7-7h58.1c3.8,0,7,3.1,7,7V413
			C-197,416.9-200.1,420-204,420z"/>
	</defs>
	<clipPath id="SVGID_2_">
		<use xlink:href="#SVGID_1_"  style="overflow:visible;"/>
	</clipPath>
	<g class="st0">
		<g>
			<polygon class="st1" points="-174.9,382.4 -269,382.4 -269,373 -174.9,373 			"/>
		</g>
		<g>
			<path d="M-174.8,382.5h-94.4v-9.7h94.4V382.5z M-268.9,382.3h93.9v-9.2h-93.9V382.3z"/>
		</g>
		<g>
			<polygon class="st1" points="-174.9,410.6 -269,410.6 -269,420 -174.9,420 			"/>
		</g>
		<g>
			<path d="M-174.8,420.2h-94.4v-9.7h94.4V420.2z M-268.9,419.9h93.9v-9.2h-93.9V419.9z"/>
		</g>
		<g>
			<polygon class="st1" points="-174.9,401.2 -269,401.2 -269,391.8 -174.9,391.8 			"/>
		</g>
		<g>
			<path d="M-174.8,401.3h-94.4v-9.7h94.4V401.3z M-268.9,401.1h93.9v-9.2h-93.9V401.1z"/>
		</g>
		<g>
			<polygon class="st2" points="-174.9,391.8 -269,391.8 -269,382.4 -174.9,382.4 			"/>
		</g>
		<g>
			<path d="M-174.8,391.9h-94.4v-9.7h94.4V391.9z M-268.9,391.7h93.9v-9.2h-93.9V391.7z"/>
		</g>
		<g>
			<polygon class="st2" points="-174.9,410.6 -269,410.6 -269,401.2 -174.9,401.2 			"/>
		</g>
		<g>
			<path d="M-174.8,410.7h-94.4v-9.7h94.4V410.7z M-268.9,410.5h93.9v-9.2h-93.9V410.5z"/>
		</g>
		<g>
			<polygon class="st3" points="-228.5,396.5 -269,420 -269,373 			"/>
		</g>
		<g>
			<path d="M-268.9,420.1l-0.2-0.1V373l0.2-0.1l40.5,23.5v0.2L-268.9,420.1z M-268.9,373.2v46.6l40.1-23.3L-268.9,373.2z"/>
		</g>
		<g>
			<polygon class="st2" points="-256,388.6 -257.8,394.1 -263.5,394.1 -258.9,397.5 -260.7,402.9 -256,399.5 -251.4,402.9 
				-253.2,397.4 -248.6,394.1 -254.3,394.1 			"/>
		</g>
	</g>
</g>
</svg>
