<?xml version="1.0" encoding="utf-8"?>
<!-- Generator: Adobe Illustrator 19.0.0, SVG Export Plug-In . SVG Version: 6.00 Build 0)  -->
<svg version="1.1" id="Layer_1" xmlns="http://www.w3.org/2000/svg" xmlns:xlink="http://www.w3.org/1999/xlink" x="0px" y="0px"
	 viewBox="-269 374 72 46" style="enable-background:new -269 374 72 46;" xml:space="preserve">
<style type="text/css">
	.st0{clip-path:url(#SVGID_2_);}
	.st1{fill:#004A92;}
	.st2{clip-path:url(#SVGID_4_);}
	.st3{fill:#FFFFFF;}
	.st4{clip-path:url(#SVGID_6_);}
	.st5{fill:#DB2F34;}
	.st6{clip-path:url(#SVGID_8_);}
	.st7{fill:#FFD500;}
</style>
<g>
	<defs>
		<path id="SVGID_1_" d="M-204,420H-262c-3.8,0-7-3.1-7-7V381c0-3.8,3.1-7,7-7h58.1c3.8,0,7,3.1,7,7V413
			C-197,416.9-200.1,420-204,420z"/>
	</defs>
	<clipPath id="SVGID_2_">
		<use xlink:href="#SVGID_1_"  style="overflow:visible;"/>
	</clipPath>
	<g class="st0">
		<rect x="-273.7" y="373.1" class="st1" width="81.4" height="47.9"/>
		<path d="M-192.2,421.1h-81.7v-48.1h81.7V421.1z M-273.6,420.8h81.2v-47.6h-81.2V420.8z"/>
	</g>
</g>
<g>
	<defs>
		<path id="SVGID_3_" d="M-204,420H-262c-3.8,0-7-3.1-7-7V381c0-3.8,3.1-7,7-7h58.1c3.8,0,7,3.1,7,7V413
			C-197,416.9-200.1,420-204,420z"/>
	</defs>
	<clipPath id="SVGID_4_">
		<use xlink:href="#SVGID_3_"  style="overflow:visible;"/>
	</clipPath>
	<g class="st2">
		<rect x="-273.7" y="397" class="st3" width="81.4" height="11.9"/>
		<path d="M-192.2,409.1h-81.7v-12.2h81.7V409.1z M-273.6,408.8h81.2v-11.7h-81.2V408.8z"/>
	</g>
</g>
<g>
	<defs>
		<path id="SVGID_5_" d="M-204,420H-262c-3.8,0-7-3.1-7-7V381c0-3.8,3.1-7,7-7h58.1c3.8,0,7,3.1,7,7V413
			C-197,416.9-200.1,420-204,420z"/>
	</defs>
	<clipPath id="SVGID_6_">
		<use xlink:href="#SVGID_5_"  style="overflow:visible;"/>
	</clipPath>
	<g class="st4">
		<rect x="-273.7" y="401" class="st5" width="81.4" height="4"/>
		<path d="M-192.2,405.1h-81.7v-4.2h81.7V405.1z M-273.6,404.9h81.2v-3.7h-81.2V404.9z"/>
	</g>
</g>
<g>
	<defs>
		<path id="SVGID_7_" d="M-204,420H-262c-3.8,0-7-3.1-7-7V381c0-3.8,3.1-7,7-7h58.1c3.8,0,7,3.1,7,7V413
			C-197,416.9-200.1,420-204,420z"/>
	</defs>
	<clipPath id="SVGID_8_">
		<use xlink:href="#SVGID_7_"  style="overflow:visible;"/>
	</clipPath>
	<g class="st6">
		<g>
			<polygon class="st7" points="-243.1,389.4 -243.7,391.1 -245.4,391.1 -244,392.1 -244.6,393.8 -243.1,392.7 -241.7,393.8 
				-242.3,392.1 -240.8,391.1 -242.6,391.1 			"/>
			<path d="M-244.6,393.9L-244.6,393.9l0.6-1.7l-1.5-1.1h1.8l0.6-1.7l0.6,1.7h1.8l-1.5,1.1l0.6,1.7l-0.1-0.1l-1.4-1L-244.6,393.9z
				 M-243.1,392.7L-243.1,392.7l1.4,1l-0.5-1.6l1.4-1h-1.7l0,0l-0.5-1.6l-0.5,1.6h-1.7l1.4,1l0,0l-0.5,1.6L-243.1,392.7z"/>
		</g>
		<g>
			<polygon class="st7" points="-249.8,391.6 -250.3,393.2 -252.1,393.2 -250.6,394.3 -251.2,395.9 -249.8,394.9 -248.3,395.9 
				-248.9,394.2 -247.5,393.2 -249.2,393.2 			"/>
			<path d="M-251.2,396L-251.2,396l0.6-1.7l-1.5-1.1h1.8l0.6-1.7l0.6,1.7h1.8l-1.5,1.1l0.6,1.7l-0.1-0.1l-1.4-1L-251.2,396z
				 M-249.8,394.9L-249.8,394.9l1.4,1l-0.5-1.6l1.4-1h-1.7l0,0l-0.5-1.6l-0.5,1.6h-1.7l1.4,1l0,0l-0.5,1.6L-249.8,394.9z"/>
		</g>
		<g>
			<polygon class="st7" points="-253.9,397.2 -254.4,398.9 -256.1,398.9 -254.7,399.9 -255.3,401.5 -253.9,400.5 -252.4,401.5 
				-253,399.9 -251.6,398.9 -253.3,398.9 			"/>
			<path d="M-255.3,401.6L-255.3,401.6l0.6-1.7l-1.5-1.1h1.8l0.6-1.7l0.6,1.7h1.8l-1.5,1.1l0.6,1.7l-0.1-0.1l-1.4-1L-255.3,401.6z
				 M-253.9,400.5L-253.9,400.5l1.4,1l-0.5-1.6l0,0l1.3-1h-1.7l0,0l-0.5-1.6l-0.5,1.6h-1.7l1.4,1l0,0l-0.5,1.6L-253.9,400.5z"/>
		</g>
		<g>
			<polygon class="st7" points="-253.8,404.1 -254.4,405.8 -256.1,405.8 -254.7,406.8 -255.3,408.5 -253.8,407.5 -252.4,408.5 
				-253,406.8 -251.6,405.8 -253.3,405.8 			"/>
			<path d="M-255.3,408.6L-255.3,408.6l0.6-1.7l-1.5-1.1h1.8l0.6-1.7l0.6,1.7h1.8l-1.5,1.1l0.6,1.7l-0.1-0.1l-1.4-1L-255.3,408.6z
				 M-253.8,407.4L-253.8,407.4l1.4,1l-0.5-1.6l0,0l1.3-1h-1.7l0,0l-0.5-1.6l-0.5,1.6h-1.7l1.4,1l0,0l-0.5,1.6L-253.8,407.4z"/>
		</g>
		<g>
			<polygon class="st7" points="-249.8,409.8 -250.3,411.4 -252.1,411.4 -250.6,412.5 -251.2,414.1 -249.8,413.1 -248.3,414.1 
				-248.9,412.4 -247.5,411.4 -249.2,411.4 			"/>
			<path d="M-251.2,414.2L-251.2,414.2l0.6-1.7l-1.5-1.1h1.8l0.6-1.7l0.6,1.7h1.8l-1.5,1.1l0.6,1.7l-0.1-0.1l-1.4-1L-251.2,414.2z
				 M-249.8,413.1L-249.8,413.1l1.4,1l-0.5-1.6l0,0l1.3-1h-1.7l0,0l-0.5-1.6l-0.5,1.6h-1.7l1.4,1l0,0l-0.5,1.6L-249.8,413.1z"/>
		</g>
		<g>
			<polygon class="st7" points="-243.1,411.9 -243.7,413.6 -245.4,413.6 -244,414.6 -244.6,416.3 -243.1,415.2 -241.7,416.3 
				-242.3,414.6 -240.8,413.6 -242.6,413.6 			"/>
			<path d="M-244.6,416.4L-244.6,416.4l0.6-1.7l-1.5-1.1h1.8l0.6-1.7l0.6,1.7h1.8l-1.5,1.1l0.6,1.7l-0.1-0.1l-1.4-1L-244.6,416.4z
				 M-243.1,415.2L-243.1,415.2l1.4,1l-0.5-1.6l0,0l1.3-1h-1.7l0,0l-0.5-1.6l-0.5,1.6h-1.7l1.4,1l0,0l-0.5,1.6L-243.1,415.2z"/>
		</g>
		<g>
			<polygon class="st7" points="-236.5,391.6 -236,393.2 -234.2,393.2 -235.7,394.3 -235.1,395.9 -236.5,394.9 -237.9,395.9 
				-237.4,394.2 -238.8,393.2 -237.1,393.2 			"/>
			<path d="M-235.1,396l-1.5-1.1l-1.5,1.1l0.6-1.7l-1.5-1.1h1.8l0.6-1.7l0,0.1l0.5,1.6h1.8l-0.1,0.1l-1.4,1L-235.1,396z
				 M-238.7,393.3l1.4,1l0,0l-0.5,1.6l1.4-1l0,0l1.3,1l-0.5-1.6l0,0l1.4-1h-1.7l0,0l-0.5-1.6l-0.5,1.6H-238.7z"/>
		</g>
		<g>
			<polygon class="st7" points="-232.4,397.2 -231.9,398.9 -230.1,398.9 -231.6,399.9 -231,401.5 -232.4,400.5 -233.9,401.5 
				-233.3,399.9 -234.7,398.9 -233,398.9 			"/>
			<path d="M-231,401.6l-1.5-1.1l-1.5,1.1l0.6-1.7l-1.5-1.1h1.8l0.6-1.7l0,0.1l0.5,1.6h1.8l-1.5,1.1L-231,401.6z M-234.6,398.9
				l1.4,1l0,0l-0.5,1.6l1.4-1l0,0l1.3,1l-0.5-1.6l0,0l1.4-1h-1.7l0,0l-0.5-1.6l-0.5,1.6H-234.6z"/>
		</g>
		<g>
			<polygon class="st7" points="-232.4,404.1 -231.9,405.8 -230.1,405.8 -231.6,406.8 -231,408.5 -232.4,407.5 -233.9,408.5 
				-233.3,406.8 -234.7,405.8 -233,405.8 			"/>
			<path d="M-231,408.6l-1.5-1.1l-1.5,1.1l0.6-1.7l-1.5-1.1h1.8l0.6-1.7l0,0.1l0.5,1.6h1.8l-1.5,1.1L-231,408.6z M-234.6,405.8
				l1.4,1l0,0l-0.5,1.6l1.4-1l0,0l1.3,1l-0.5-1.6l0,0l1.4-1h-1.7l0,0l-0.5-1.6l-0.5,1.6H-234.6z"/>
		</g>
		<g>
			<polygon class="st7" points="-236.5,409.8 -236,411.4 -234.2,411.4 -235.7,412.5 -235.1,414.1 -236.5,413.1 -237.9,414.1 
				-237.4,412.4 -238.8,411.4 -237.1,411.4 			"/>
			<path d="M-235.1,414.2l-1.5-1.1l-1.5,1.1l0.6-1.7l-1.5-1.1h1.8l0.6-1.7l0,0.1l0.5,1.6h1.8l-1.5,1.1L-235.1,414.2z M-238.7,411.5
				l1.4,1l0,0l-0.5,1.6l1.4-1l0,0l1.3,1l-0.5-1.6l0,0l1.4-1h-1.7l0,0l-0.5-1.6l-0.5,1.6H-238.7z"/>
		</g>
	</g>
</g>
</svg>
