<?xml version="1.0" encoding="utf-8"?>
<!-- Generator: Adobe Illustrator 19.0.0, SVG Export Plug-In . SVG Version: 6.00 Build 0)  -->
<svg version="1.1" id="Layer_1" xmlns="http://www.w3.org/2000/svg" xmlns:xlink="http://www.w3.org/1999/xlink" x="0px" y="0px"
	 viewBox="-269 374 72 46" style="enable-background:new -269 374 72 46;" xml:space="preserve">
<style type="text/css">
	.st0{clip-path:url(#SVGID_2_);}
	.st1{fill:#004996;}
	.st2{fill:none;stroke:#000000;stroke-width:0.25;}
	.st3{fill:#2D8D2D;}
	.st4{fill:#FFED00;}
	.st5{fill:none;stroke:#000000;stroke-width:0.125;stroke-linejoin:bevel;}
	.st6{fill:#FFFFFF;}
</style>
<g>
	<defs>
		<path id="SVGID_1_" d="M-204,420H-262c-3.8,0-7-3.1-7-7V381c0-3.8,3.1-7,7-7h58.1c3.8,0,7,3.1,7,7V413
			C-197,416.9-200.1,420-204,420z"/>
	</defs>
	<clipPath id="SVGID_2_">
		<use xlink:href="#SVGID_1_"  style="overflow:visible;"/>
	</clipPath>
	<g class="st0">
		<g>
			<polygon class="st1" points="-184.9,421.4 -184.9,373.3 -281.1,373.3 -281.1,421.4 			"/>
		</g>
		<g>
			<path d="M-184.8,421.5h-96.4v-48.3h96.4V421.5z M-281,421.3h95.9v-47.8H-281V421.3z"/>
		</g>
		<g>
			<path class="st1" d="M-233,397.4"/>
		</g>
		<g>
			<path class="st2" d="M-233,397.4"/>
		</g>
		<g>
			<polygon class="st1" points="-184.9,421.4 -184.9,373.3 -281.1,373.3 -281.1,421.4 			"/>
		</g>
		<g>
			<path d="M-184.8,421.5h-96.4v-48.3h96.4V421.5z M-281,421.3h95.9v-47.8H-281V421.3z"/>
		</g>
		<g>
			<path class="st1" d="M-233,397.4"/>
		</g>
		<g>
			<path class="st2" d="M-233,397.4"/>
		</g>
		<g>
			<polygon class="st3" points="-184.9,421.4 -184.9,373.3 -281.1,373.3 			"/>
		</g>
		<g>
			<path d="M-185,421.5l-96.2-48.1l0.1-0.2h96.2l0.1,0.1v48.1L-185,421.5z M-280.6,373.4l95.5,47.8v-47.8H-280.6z"/>
		</g>
		<g>
			<path class="st4" d="M-233,405.3c4.4,0,8-3.6,8-8c0-4.4-3.6-8-8-8s-8,3.6-8,8C-241,401.8-237.4,405.3-233,405.3L-233,405.3z"/>
		</g>
		<g>
			<path d="M-233,405.4c-4.4,0-8-3.6-8-8s3.6-8,8-8s8,3.6,8,8S-228.6,405.4-233,405.4z M-233,389.4c-4.4,0-7.9,3.6-7.9,7.9
				c0,4.4,3.6,7.9,7.9,7.9c4.4,0,7.9-3.6,7.9-7.9C-225.1,393-228.6,389.4-233,389.4z"/>
		</g>
		<g>
			<path class="st4" d="M-233,397.4"/>
		</g>
		<g>
			<path class="st5" d="M-233,397.4"/>
		</g>
		<g>
			<path class="st3" d="M-238.3,395.2c-0.2-0.4-0.6-0.5-0.9-0.2c-0.1,0.1,0,0.3-0.1,0.4c-0.1,0.1,0.1,0.2,0.2,0.2
				c0.1,0,0.3,0.2,0.2,0.4c-0.1,0.2,0.3,0.2,0.1,0.6c-0.2,0.4,0.1,1.2-0.2,1.4c-0.3,0.3-0.4,0.8-0.7,0.8c-0.2,0-0.3,0.1-0.3,0.2
				c0,0.2-0.3,0.1-0.3,0.3c0,0.2,0.3,0.6,0.5,0.6c0.4,0,0.3-0.3,0.6-0.3s0.5-0.4,0.9-0.3c0.1,0,0.3,0,0.5-0.1c0.2-0.1,0.4-0.1,0.6,0
				c0.2,0.2,0.5,0.1,0.6,0.3s0.5,0.2,1,0.1c0.4-0.1,1-0.2,2,0.5c0.4,0.3,0.3,0.5,0.2,0.7c-0.2,0.5,0.3,0.7,0.2,1
				c-0.2,0.6,0.2,0.6,0.2,0.9c0,0.3,0.1,0.3,0.4,0.6c0.3,0.3,0.4,0.3,0.7,0.3c0.3,0,0.7,0.2,0.9,0.1c0.2-0.1,0.6,0.1,0.7-0.1
				c0.4-0.5-0.2-0.9,0.1-2.3c0.2-0.6,0.2-1,0.4-1.1c0.2-0.1,0.1-0.4,0.1-0.6c0-0.2-0.1-0.4,0.1-0.7c0.6-0.6,0.5-1,0.8-1
				c0.2,0,0.2-0.1,0.2-0.3c0-0.3,0.4-0.3,0.5-0.5c0.1-0.2,0.2-0.3,0.4-0.2c0.3,0.2,0.2-0.1,0.4-0.1c0.2,0,0.3-0.2,0-0.5
				c-0.3-0.2-0.5-0.6-0.4-0.7c0.1-0.2-0.1-0.3,0.1-0.5c0.1-0.2,0.3-0.4,0.2-0.8c-0.1-0.2-0.2-0.5-0.1-0.7c0.2-0.3-0.2-0.6,0-0.9
				c-0.3-0.2-0.6,0.1-0.9,0c-0.2-0.1-0.6,0.2-0.8,0.1c-0.5-0.1-0.6,0.1-0.6,0.4c0,0.3-0.2,0.2-0.2,0.4c0,0.2-0.3,0.2-0.4,0.1
				c-0.1-0.2-0.2-0.1-0.2,0.2c0,0.2,0.1,0.3-0.3,0.6c-0.4,0.3-0.2,0.5-1.8,1.3c-0.4,0.2-1.7,0.4-2.1,0.3c-0.3-0.1-0.7,0.2-1,0
				c-0.2-0.2-0.8,0.2-1.2-0.3c-0.2-0.2-0.6,0-0.7-0.2C-237.9,395.5-238.1,395.6-238.3,395.2L-238.3,395.2z"/>
		</g>
		<g>
			<path d="M-231.1,403.8c-0.1,0-0.2,0-0.4-0.1c-0.1,0-0.3-0.1-0.4-0.1c-0.3,0-0.4-0.1-0.7-0.3c0,0-0.1-0.1-0.1-0.1
				c-0.2-0.2-0.3-0.3-0.3-0.5c0-0.1,0-0.1-0.1-0.2c-0.1-0.1-0.2-0.3-0.1-0.7c0-0.1,0-0.2-0.1-0.4c-0.1-0.2-0.2-0.4-0.1-0.7
				c0.1-0.2,0.1-0.4-0.2-0.6c-0.9-0.7-1.5-0.6-1.9-0.5l0,0c-0.4,0.1-0.8,0.1-1-0.1c-0.1-0.1-0.1-0.1-0.2-0.1c-0.1,0-0.3,0-0.4-0.2
				c-0.1-0.1-0.4-0.1-0.5,0c-0.1,0-0.3,0.1-0.5,0.1c-0.2,0-0.4,0.1-0.5,0.2c-0.1,0.1-0.2,0.2-0.4,0.2c-0.1,0-0.2,0.1-0.2,0.1
				c-0.1,0.1-0.2,0.2-0.4,0.2c-0.1,0-0.3-0.1-0.3-0.2c-0.1-0.1-0.2-0.3-0.2-0.5c0-0.1,0.1-0.1,0.2-0.2c0.1,0,0.1,0,0.1-0.1
				c0-0.1,0.1-0.3,0.4-0.3c0.1,0,0.2-0.1,0.3-0.3c0.1-0.1,0.2-0.3,0.3-0.5c0.1-0.1,0.1-0.4,0.1-0.7c0-0.3,0-0.5,0.1-0.7
				c0.1-0.2,0-0.2,0-0.3c-0.1-0.1-0.1-0.1-0.1-0.3c0-0.1,0-0.1,0-0.2c0-0.1-0.1-0.1-0.1-0.1c-0.2,0-0.3-0.1-0.3-0.1c0,0,0-0.1,0-0.1
				c0,0,0-0.1,0-0.1c0-0.1,0-0.2,0.1-0.3c0.1-0.1,0.3-0.2,0.5-0.2c0.2,0,0.4,0.2,0.5,0.4l0,0c0.1,0.2,0.2,0.2,0.3,0.3
				c0.1,0,0.2,0.1,0.2,0.2c0.1,0.1,0.2,0.1,0.4,0.1c0.1,0,0.3,0,0.4,0.1c0.2,0.2,0.5,0.2,0.7,0.2c0.2,0,0.3,0,0.5,0.1
				c0.1,0.1,0.3,0.1,0.5,0c0.2,0,0.3-0.1,0.5,0c0.3,0.1,1.6-0.1,2-0.3c1.1-0.6,1.4-0.9,1.6-1.1c0.1-0.1,0.1-0.2,0.3-0.2
				c0.3-0.2,0.3-0.3,0.3-0.5c0,0,0-0.1,0-0.1c0-0.2,0.1-0.3,0.2-0.3c0,0,0.1,0,0.2,0.1c0,0,0.1,0.1,0.1,0.1c0.1,0,0.1,0,0.2-0.1
				c0-0.1,0.1-0.1,0.1-0.2c0,0,0.1-0.1,0.1-0.2c0-0.1,0-0.3,0.1-0.3c0.1-0.1,0.3-0.1,0.6-0.1c0.1,0,0.2,0,0.4-0.1
				c0.2-0.1,0.3-0.1,0.5,0c0.1,0,0.2,0,0.3,0c0.2-0.1,0.4-0.1,0.6,0l0.1,0l0,0.1c-0.1,0.1,0,0.3,0,0.4c0,0.2,0.1,0.3,0,0.5
				s0,0.5,0.1,0.6c0.2,0.4,0,0.6-0.1,0.8c0,0,0,0.1-0.1,0.1c-0.1,0.1,0,0.1,0,0.2c0,0.1,0,0.2,0,0.3c-0.1,0.1,0.1,0.4,0.3,0.7
				c0.2,0.1,0.2,0.3,0.2,0.4c0,0.1-0.1,0.2-0.2,0.2c0,0-0.1,0-0.1,0.1c-0.1,0.1-0.1,0.2-0.3,0c-0.1,0-0.1,0-0.2,0
				c0,0-0.1,0.1-0.2,0.2c-0.1,0.1-0.2,0.2-0.3,0.2c-0.1,0.1-0.2,0.1-0.2,0.2c0,0,0,0,0,0.1c0,0.1,0,0.3-0.3,0.3
				c-0.1,0-0.1,0.1-0.2,0.2c-0.1,0.2-0.2,0.4-0.5,0.8c-0.2,0.2-0.2,0.4-0.1,0.6c0,0,0,0.1,0,0.1l0,0c0,0.2,0.1,0.5-0.1,0.6
				c-0.1,0.1-0.2,0.3-0.3,0.6c0,0.1-0.1,0.3-0.1,0.4c-0.2,0.7-0.1,1.1,0,1.5c0.1,0.3,0.1,0.5-0.1,0.8c-0.1,0.1-0.3,0.1-0.5,0.1
				c-0.1,0-0.2,0-0.3,0C-231,403.8-231.1,403.8-231.1,403.8z M-234.9,399.4c0.4,0,0.9,0.1,1.5,0.6c0.4,0.3,0.3,0.5,0.3,0.7
				c-0.1,0.3,0,0.4,0.1,0.6c0.1,0.1,0.1,0.3,0.1,0.5c-0.1,0.4,0,0.5,0.1,0.6c0.1,0.1,0.1,0.2,0.1,0.3c0,0.2,0.1,0.3,0.2,0.4
				c0,0,0.1,0.1,0.1,0.1c0.3,0.3,0.4,0.3,0.6,0.3c0.1,0,0.3,0,0.4,0.1c0.2,0,0.3,0.1,0.4,0c0.1,0,0.2,0,0.3,0c0.1,0,0.3,0,0.4-0.1
				c0.2-0.2,0.2-0.4,0.1-0.7c-0.1-0.3-0.2-0.8,0-1.5c0-0.2,0.1-0.3,0.1-0.4c0.1-0.4,0.1-0.6,0.3-0.7c0.2-0.1,0.1-0.3,0.1-0.5l0,0
				c0,0,0,0,0-0.1c0-0.2-0.1-0.4,0.2-0.7c0.3-0.3,0.4-0.6,0.5-0.7c0.1-0.2,0.1-0.3,0.3-0.3c0.1,0,0.1,0,0.1-0.2c0,0,0,0,0-0.1
				c0-0.2,0.2-0.3,0.3-0.3c0.1,0,0.2-0.1,0.2-0.2c0.1-0.1,0.1-0.2,0.2-0.2c0.1,0,0.2,0,0.3,0c0.1,0.1,0.1,0,0.2,0
				c0,0,0.1-0.1,0.2-0.1c0.1,0,0.1-0.1,0.2-0.1c0-0.1,0-0.2-0.1-0.2c-0.3-0.2-0.5-0.6-0.4-0.8c0-0.1,0-0.1,0-0.2c0-0.1,0-0.2,0-0.3
				c0,0,0-0.1,0.1-0.1c0.1-0.2,0.2-0.3,0.1-0.6c-0.1-0.3-0.2-0.5-0.1-0.7c0.1-0.1,0-0.2,0-0.4c0-0.2-0.1-0.3,0-0.5
				c-0.1-0.1-0.3,0-0.4,0c-0.1,0-0.3,0.1-0.4,0c-0.1,0-0.2,0-0.4,0.1c-0.1,0-0.3,0.1-0.4,0.1c-0.3,0-0.4,0-0.5,0.1
				c-0.1,0-0.1,0.1-0.1,0.3c0,0.2-0.1,0.2-0.1,0.3c0,0-0.1,0-0.1,0.1c0,0.1-0.2,0.2-0.3,0.2c0,0,0,0,0,0c-0.1,0-0.2,0-0.2-0.1
				c0,0,0,0,0,0c0,0,0,0-0.1,0.2c0,0,0,0.1,0,0.1c0,0.1,0,0.3-0.3,0.5c-0.1,0.1-0.2,0.1-0.2,0.2c-0.2,0.2-0.4,0.5-1.6,1.1
				c-0.4,0.2-1.7,0.4-2.1,0.3c-0.1,0-0.3,0-0.4,0c-0.2,0.1-0.4,0.1-0.6,0c-0.1-0.1-0.2-0.1-0.4,0c-0.2,0-0.6,0.1-0.8-0.2
				c-0.1-0.1-0.2-0.1-0.3-0.1c-0.2,0-0.3,0-0.4-0.1c-0.1-0.1-0.1-0.1-0.2-0.1c-0.1-0.1-0.2-0.1-0.4-0.3l0,0
				c-0.1-0.2-0.3-0.3-0.4-0.4c-0.1,0-0.2,0-0.4,0.1c0,0-0.1,0.1-0.1,0.2c0,0.1,0,0.2-0.1,0.2c0,0,0,0,0,0c0,0,0,0,0.2,0.1
				c0.1,0,0.2,0.1,0.2,0.2c0.1,0.1,0.1,0.2,0,0.3c0,0.1,0,0.1,0.1,0.1c0.1,0.1,0.2,0.2,0.1,0.4c-0.1,0.2-0.1,0.4-0.1,0.7
				c0,0.3,0,0.6-0.1,0.8c-0.1,0.1-0.2,0.3-0.3,0.4c-0.1,0.2-0.2,0.4-0.4,0.4c-0.2,0-0.2,0.1-0.3,0.2c0,0.1-0.1,0.2-0.2,0.2
				c-0.1,0-0.1,0-0.1,0.1c0,0.1,0.1,0.3,0.2,0.4c0.1,0.1,0.2,0.2,0.2,0.2c0.2,0,0.2-0.1,0.3-0.1c0.1-0.1,0.2-0.2,0.3-0.2
				c0.1,0,0.2-0.1,0.3-0.2c0.2-0.1,0.3-0.2,0.6-0.2c0.1,0,0.3,0,0.4-0.1c0.1-0.1,0.5-0.1,0.7,0.1c0.1,0.1,0.2,0.1,0.3,0.1
				c0.1,0,0.2,0,0.3,0.1c0.1,0.1,0.4,0.2,0.9,0.1l0,0C-235.3,399.4-235.1,399.4-234.9,399.4z"/>
		</g>
		<g>
			<path class="st4" d="M-191.6,390.6c-1.2-1.4-2.4-0.3-3.6-0.4c-1.1-1.2-1.3-2-1.4-3.8c-0.1-1.8-0.4-3-0.6-4
				c-0.2-1-0.7-1.6-1.4-2.5c-1.4-1.6-3.8-3.7-5-4.5c-1.1-0.7-1.4-0.7-0.7,1c0.7,1.7,2.9,5.9,3.8,7.2c0.1,0.6-0.2,2.6-0.2,3.4
				c-2.8-1.1-6-3-8.4-3.5c-0.8-0.2-1.7-0.4-2.3-0.6c-0.6-0.2-1-0.1-0.2,0.7c2.5,2.3,3.8,3.3,6.7,4.7c1.2,0.6,2.2,1.9,2.9,2.4
				c1.2,0.9,0.8,3-0.9,4.4c-3,2.5-9.5,6.2-19.1,4.1c-1-0.2-1.7,0.1,0,0.6c6.8,1.7,12.6,0.3,17.7-2.3c4-2.1,7.3-3.2,9.1-3.5
				c1-0.2,1.9-0.7,2.3-1.2c0.5-0.5,1.1-1.3,2.9-1.4C-190,390.8-190.9,390.7-191.6,390.6L-191.6,390.6z"/>
		</g>
		<g>
			<path d="M-216.1,400.6c-1.9,0-3.9-0.3-5.9-0.7c-0.8-0.2-1.1-0.4-1.1-0.6c0-0.2,0.6-0.2,1.1-0.1c10.2,2.2,16.7-2.1,19.1-4
				c1-0.8,1.6-2,1.6-3c0-0.6-0.2-1-0.7-1.3c-0.3-0.2-0.6-0.5-0.9-0.8c-0.6-0.6-1.2-1.3-2-1.6c-2.9-1.3-4.2-2.3-6.8-4.7
				c-0.4-0.4-0.6-0.6-0.5-0.8c0.1-0.2,0.5-0.1,0.7,0c0.6,0.2,1.5,0.5,2.3,0.6c1.5,0.3,3.4,1.2,5.2,2.1c1,0.5,2.1,1,3.1,1.4
				c0-0.3,0-0.8,0.1-1.3c0.1-0.8,0.1-1.6,0.1-1.9c-0.9-1.3-3.1-5.4-3.8-7.2c-0.4-0.9-0.4-1.3-0.3-1.5c0.2-0.1,0.5,0,1.1,0.4
				c1.1,0.7,3.6,2.9,5,4.5l0.1,0.1c0.8,0.9,1.2,1.4,1.4,2.4c0,0.1,0.1,0.3,0.1,0.4c0.2,1,0.4,2,0.5,3.6c0.1,1.8,0.3,2.5,1.4,3.7
				c0.4,0,0.8-0.1,1.2-0.2c0.8-0.2,1.6-0.4,2.5,0.5l0.1,0c0.7,0.1,1.5,0.2,1.5,0.8l0,0.1l-0.1,0c-1.7,0.1-2.3,0.8-2.8,1.3l-0.1,0.1
				c-0.4,0.5-1.3,1.1-2.3,1.2c-1.6,0.3-4.8,1.3-9.1,3.5C-208.3,399.6-212.2,400.6-216.1,400.6z M-222.5,399.3c-0.2,0-0.4,0-0.4,0.1
				c0,0,0.1,0.2,1,0.4c6,1.5,11.6,0.8,17.6-2.3c4.3-2.2,7.5-3.2,9.1-3.5c0.9-0.1,1.8-0.7,2.3-1.2l0.1-0.1c0.5-0.5,1.1-1.2,2.8-1.3
				c0-0.4-0.7-0.5-1.4-0.7l-0.1,0l0,0c-0.8-0.9-1.5-0.7-2.3-0.5c-0.4,0.1-0.8,0.2-1.3,0.2l0,0l0,0c-1.1-1.3-1.4-2-1.4-3.8
				c-0.1-1.6-0.3-2.7-0.5-3.6c0-0.1-0.1-0.3-0.1-0.4c-0.2-1-0.6-1.5-1.4-2.4l-0.1-0.1c-1.4-1.6-3.8-3.7-4.9-4.5
				c-0.2-0.1-0.8-0.6-1-0.4c-0.1,0.1,0,0.5,0.3,1.3c0.7,1.7,3,5.9,3.8,7.2l0,0c0,0.4,0,1.2-0.1,2c0,0.6-0.1,1.1-0.1,1.4v0.1l-0.1,0
				c-1-0.4-2.1-0.9-3.2-1.4c-1.8-0.9-3.7-1.7-5.2-2c-0.8-0.2-1.8-0.4-2.3-0.6c-0.3-0.1-0.5-0.1-0.6,0c0,0-0.1,0.2,0.5,0.6
				c2.6,2.4,3.9,3.3,6.7,4.7c0.8,0.4,1.4,1,2,1.6c0.3,0.3,0.6,0.6,0.9,0.8c0.4,0.3,0.7,0.8,0.7,1.4c0,1-0.6,2.2-1.6,3.1
				c-2.3,2-8.9,6.3-19.2,4.1C-222.2,399.3-222.4,399.3-222.5,399.3z"/>
		</g>
		<g>
			<path class="st3" d="M-194,391c0,0.2,0.6,0.3,0.8,0.3c0.5,0,0.4-0.4,0-0.4C-193.7,391-194,390.8-194,391L-194,391z"/>
		</g>
		<g>
			<path d="M-193.2,391.3C-193.2,391.3-193.2,391.3-193.2,391.3c-0.2,0-0.8-0.1-0.8-0.3c0,0,0-0.1,0-0.1c0,0,0.1,0,0.3,0
				c0.1,0,0.3,0,0.5,0c0.2,0,0.3,0,0.3,0.1c0,0.1,0,0.1,0,0.2C-192.9,391.3-193.1,391.3-193.2,391.3z M-193.9,390.9
				C-193.9,390.9-194,390.9-193.9,390.9C-194,391-194,391-193.9,390.9c-0.1,0.2,0.4,0.3,0.7,0.3c0,0,0,0,0,0c0.1,0,0.3,0,0.3-0.1
				c0,0,0-0.1,0-0.1c0-0.1-0.1-0.1-0.3-0.1c-0.2,0-0.4,0-0.6,0C-193.8,391-193.9,390.9-193.9,390.9z"/>
		</g>
		<g>
			<polygon class="st6" points="-263.6,387 -261.9,386.6 -262.7,388.1 -261.3,389.2 -263,389.5 -263,391.3 -264.3,390.2 
				-265.6,391.3 -265.6,389.5 -267.3,389.2 -265.9,388.1 -266.7,386.6 -265,387 -264.3,385.5 			"/>
		</g>
		<g>
			<polygon class="st6" points="-274,398 -272.3,397.5 -273.1,399.1 -271.7,400.1 -273.4,400.5 -273.4,402.2 -274.7,401.1 
				-276,402.2 -276,400.5 -277.7,400.1 -276.3,399.1 -277.1,397.5 -275.4,398 -274.7,396.4 			"/>
		</g>
		<g>
			<polygon class="st6" points="-254.2,395 -252.5,394.6 -253.3,396.1 -252,397.1 -253.6,397.5 -253.6,399.2 -254.9,398.1 
				-256.3,399.2 -256.2,397.5 -257.9,397.2 -256.5,396.1 -257.3,394.6 -255.6,395 -254.9,393.4 			"/>
		</g>
		<g>
			<polygon class="st6" points="-263.6,413.9 -261.9,413.5 -262.7,415 -261.3,416.1 -263,416.4 -263,418.1 -264.3,417 -265.6,418.1 
				-265.6,416.4 -267.3,416.1 -265.9,415 -266.7,413.5 -265,413.9 -264.3,412.3 			"/>
		</g>
		<g>
			<polygon class="st6" points="-260.2,401.8 -260.6,403.1 -261.9,403.1 -260.8,403.9 -261.3,405.1 -260.2,404.4 -259.1,405.1 
				-259.5,403.9 -258.4,403.1 -259.8,403.1 			"/>
		</g>
	</g>
</g>
</svg>
