<?xml version="1.0" encoding="utf-8"?>
<!-- Generator: Adobe Illustrator 19.0.0, SVG Export Plug-In . SVG Version: 6.00 Build 0)  -->
<svg version="1.1" id="Layer_1" xmlns="http://www.w3.org/2000/svg" xmlns:xlink="http://www.w3.org/1999/xlink" x="0px" y="0px"
	 viewBox="-269 374 72 46" style="enable-background:new -269 374 72 46;" xml:space="preserve">
<style type="text/css">
	.st0{clip-path:url(#SVGID_2_);}
	.st1{fill:#FFFFFF;}
	.st2{fill:none;stroke:#000000;stroke-width:0.25;}
	.st3{fill:#FBBB3A;}
	.st4{fill:#00793E;}
</style>
<g>
	<defs>
		<path id="SVGID_1_" d="M-204,420H-262c-3.8,0-7-3.1-7-7V381c0-3.8,3.1-7,7-7h58.1c3.8,0,7,3.1,7,7V413
			C-197,416.9-200.1,420-204,420z"/>
	</defs>
	<clipPath id="SVGID_2_">
		<use xlink:href="#SVGID_1_"  style="overflow:visible;"/>
	</clipPath>
	<g class="st0">
		<g>
			<polygon class="st1" points="-185.3,425.4 -185.3,367.6 -281.7,367.6 -281.7,425.4 			"/>
		</g>
		<g>
			<path d="M-185.1,425.6h-96.7v-58.1h96.7V425.6z M-281.6,425.3h96.2v-57.6h-96.2V425.3z"/>
		</g>
		<g>
			<path class="st1" d="M-233.5,396.5"/>
		</g>
		<g>
			<path class="st2" d="M-233.5,396.5"/>
		</g>
		<g>
			<path class="st3" d="M-238.1,385.5c-0.4,0.6,0.2,0.9-0.3,1.6c-0.7,1.1,0.1,1.9-1.3,2.7c-1,0.5-1.1,0.2-1.4,0
				c-0.3-0.2-1-0.6-2.5,0.1c-0.7,0.3-0.7,0.3-0.9,0.1c-0.2-0.2-0.4-0.1-0.9,0.2c-0.9,0.4-0.4,1.1-1.4,1.4c-1.1,0.3-1.4,0.1-2.2-0.3
				c-0.8-0.4-1-0.3-1.2-0.1c-0.2,0.3-0.2,0.6,0.3,0.9c0.5,0.4,0.7,0.6,0.5,1.1c-0.2,0.5-0.2,0.7,0.1,0.9c0.7,0.4,0,0.9,0.7,2
				c0.4,0.6,0.4,1,0.5,1.5c0,0.6,0.1,0.9,0.7,1c0.8,0.2,0.1,0.6,1.4,1c0.6,0.2,1,0.4,1.4,0.6c0.4,0.2,1.5,0.4,2.3,0.2
				c0.8-0.1,2.1-0.4,2.4,0.3c0.6,1.3,0.9,1.4,1.2,1.8c0.3,0.4,0.8,0.1,1.2-0.9c0.2-0.7,0.5-1.7,1.8-1.7c3.2,0,4,0.1,5.4-0.9
				c0.8-0.6,1.7-1.4,2.4-0.8c0.1,0.1,0.2-0.3,0.7-0.5c0.1-0.1,0-0.3,0.1-0.5c0.4-0.8-0.1-1,0.2-1.5c0.9-1.1,1.3-1.1,2-1.1
				c0.7,0,1,0.1,1.4,0.6c0.5,0.5,0.7,0.6,1.3,0.1c0.7-0.5,2.3-0.6,2.5,0c0.1,0.2,0.5,0.1,0.5-0.3c0-0.4-0.2-0.7-0.7-1
				c-0.5-0.3-0.1-0.6-0.7-1c-0.6-0.4,0.1-0.5-1-1.5c-1.1-0.9-0.4-2.6,0.2-3.3c0.1-0.1,0.4-0.3,1-0.2c0.6,0.1,0.7,0.1,1.2-0.4
				c0.4-0.5,0.8-1.2,1.4-1.4c0.8-0.2,0.9-0.7,1.6-0.8c1.1-0.1,1.3-1.1,2.1-1.4c1.2-0.4,0.8-1.3,2.2-1.7c1.4-0.4,1.3-1.1,1.7-1.4
				c-1.3,0.3-1.8,0.5-2.3,0.9c-0.7,0.5-1.2,0.3-1.9,0.8c-0.7,0.5-1.3,0.9-2,0.7c-0.7-0.2-0.9-0.3-1.2,0.3c-0.6,1.7-1.7,1-2.2,1.5
				c-0.8,0.8-1.5,0.2-2,0.6c-0.8,0.6-2.5-0.2-3.2,0.5c-1.2,1.1-1.5-0.2-2.9,0.6c-1.1,0.6-2.1,0.4-2.8,0.1c-0.7-0.3-3.2-0.2-4.1-0.5
				C-236.7,385.8-237.6,386.2-238.1,385.5L-238.1,385.5z"/>
		</g>
		<g>
			<path d="M-238.5,402.8c-0.1,0-0.2,0-0.3-0.2c-0.1-0.1-0.2-0.2-0.3-0.3c-0.2-0.3-0.5-0.6-0.9-1.5c-0.3-0.7-1.3-0.5-2.1-0.3
				c-0.1,0-0.2,0-0.2,0c-0.8,0.1-1.9,0-2.3-0.2c-0.4-0.2-0.8-0.4-1.3-0.6c-0.8-0.2-0.9-0.5-1-0.7c-0.1-0.1-0.1-0.2-0.4-0.3
				c-0.5-0.1-0.7-0.5-0.7-1.1c0-0.5-0.1-0.9-0.5-1.5c-0.3-0.6-0.3-0.9-0.3-1.3c0-0.3,0-0.5-0.3-0.7c-0.4-0.2-0.3-0.5-0.1-1
				c0.2-0.5,0-0.7-0.5-1c-0.4-0.3-0.5-0.6-0.3-1c0.2-0.3,0.4-0.4,1.2,0c0.8,0.4,1.1,0.6,2.1,0.3c0.5-0.1,0.6-0.4,0.8-0.7
				c0.1-0.2,0.2-0.5,0.6-0.7c0.1,0,0.2-0.1,0.2-0.1c0.4-0.2,0.5-0.3,0.7-0.1c0.2,0.2,0.2,0.2,0.9-0.1c1.5-0.6,2.2-0.4,2.6-0.1
				c0,0,0.1,0,0.1,0.1c0.2,0.2,0.4,0.4,1.2-0.1c0.8-0.4,0.8-0.9,0.9-1.4c0-0.4,0.1-0.8,0.4-1.2c0.3-0.4,0.2-0.6,0.2-0.8
				c0-0.2-0.1-0.4,0.1-0.7l0.1-0.1l0.1,0.1c0.2,0.4,0.6,0.4,1.1,0.5c0.5,0.1,1.2,0.1,2,0.5c0.4,0.2,1.3,0.2,2.2,0.3
				c0.8,0.1,1.5,0.1,1.9,0.2c0.6,0.3,1.6,0.5,2.8-0.1c0.6-0.4,1.1-0.3,1.5-0.2c0.4,0.1,0.8,0.2,1.4-0.4c0.4-0.4,1-0.3,1.7-0.3
				c0.6,0,1.2,0.1,1.6-0.2c0.3-0.2,0.5-0.2,0.8-0.2c0.4,0,0.8,0,1.2-0.4c0.2-0.2,0.4-0.2,0.7-0.3c0.5-0.1,1.1-0.1,1.4-1.2
				c0.2-0.6,0.5-0.5,1-0.4c0.1,0,0.1,0,0.2,0.1c0.6,0.2,1.2,0,2-0.7c0.3-0.3,0.7-0.4,1-0.4c0.3-0.1,0.6-0.1,0.9-0.4
				c0.5-0.4,1-0.6,2.3-1l0.1,0.1c-0.1,0.1-0.2,0.2-0.3,0.4c-0.2,0.3-0.5,0.8-1.4,1.1c-0.7,0.2-0.9,0.5-1.1,0.9
				c-0.2,0.3-0.4,0.6-1,0.8c-0.3,0.1-0.6,0.4-0.8,0.6c-0.3,0.3-0.7,0.7-1.3,0.8c-0.3,0-0.5,0.2-0.7,0.3c-0.2,0.1-0.4,0.3-0.8,0.4
				c-0.4,0.1-0.7,0.6-1,1c-0.1,0.1-0.2,0.2-0.3,0.4c-0.4,0.5-0.6,0.5-1.2,0.5c-0.6-0.1-0.9,0.1-1,0.2c-0.4,0.4-0.9,1.3-0.8,2.1
				c0,0.5,0.2,0.8,0.6,1.1c0.7,0.6,0.7,0.8,0.7,1.1c0,0.1,0,0.2,0.3,0.4c0.3,0.2,0.4,0.4,0.4,0.6c0,0.1,0.1,0.3,0.3,0.4
				c0.6,0.3,0.7,0.6,0.7,1.1c0,0.3-0.1,0.5-0.3,0.5c-0.1,0-0.2,0-0.3-0.1c-0.1-0.2-0.3-0.3-0.4-0.3c-0.6-0.2-1.5,0-2,0.4
				c-0.6,0.5-0.9,0.4-1.4-0.1c-0.5-0.5-0.7-0.6-1.4-0.6l-0.1,0c-0.7,0-1.1-0.1-1.9,1c-0.1,0.2-0.1,0.3-0.1,0.5
				c0,0.2,0.1,0.5-0.1,0.9c0,0.1-0.1,0.2-0.1,0.3c0,0.1,0,0.2-0.1,0.2c-0.2,0.1-0.3,0.3-0.4,0.4c-0.1,0.1-0.1,0.2-0.2,0.2
				c0,0-0.1,0-0.1,0c-0.5-0.5-1.3,0.1-2,0.7c-0.1,0.1-0.2,0.1-0.2,0.2c-1.2,0.9-2,0.9-4.5,0.9c-0.3,0-0.6,0-0.9,0c0,0,0,0,0,0
				c-1.2,0-1.5,0.9-1.7,1.6l0,0.1C-237.7,402.3-238.1,402.8-238.5,402.8C-238.4,402.8-238.4,402.8-238.5,402.8z M-241,400.2
				c0.5,0,0.9,0.1,1.1,0.5c0.4,0.9,0.7,1.2,0.9,1.5c0.1,0.1,0.2,0.2,0.3,0.3c0.1,0.1,0.2,0.2,0.3,0.2c0.3,0,0.6-0.4,0.8-1l0-0.1
				c0.2-0.7,0.5-1.7,1.8-1.7c0,0,0,0,0,0c0.3,0,0.6,0,0.9,0c2.4,0,3.2,0,4.4-0.9c0.1-0.1,0.2-0.1,0.2-0.2c0.7-0.6,1.6-1.2,2.2-0.7
				c0,0,0.1-0.1,0.1-0.1c0.1-0.1,0.2-0.3,0.5-0.4c0,0,0,0,0-0.1c0-0.1,0-0.2,0.1-0.3c0.2-0.4,0.1-0.6,0.1-0.9c0-0.2-0.1-0.4,0.1-0.6
				c0.9-1.1,1.3-1.1,2-1.1l0.1,0c0.7,0,1,0.1,1.5,0.6c0.5,0.5,0.6,0.6,1.2,0.1c0.5-0.4,1.5-0.6,2.1-0.4c0.3,0.1,0.4,0.2,0.5,0.4
				c0,0,0.1,0.1,0.1,0c0.1,0,0.2-0.1,0.2-0.4c0-0.4-0.2-0.7-0.7-1c-0.3-0.2-0.3-0.3-0.4-0.5c0-0.1-0.1-0.3-0.3-0.5
				c-0.3-0.2-0.3-0.3-0.3-0.5c0-0.2-0.1-0.4-0.7-1c-0.4-0.3-0.6-0.7-0.6-1.2c0-0.8,0.4-1.7,0.8-2.2c0.1-0.1,0.4-0.4,1.1-0.3
				c0.5,0.1,0.7,0.1,1.1-0.4c0.1-0.1,0.2-0.2,0.3-0.4c0.3-0.4,0.7-0.9,1.1-1c0.4-0.1,0.6-0.3,0.8-0.4c0.2-0.2,0.4-0.3,0.8-0.4
				c0.6-0.1,0.9-0.4,1.2-0.7c0.3-0.3,0.5-0.5,0.9-0.6c0.6-0.2,0.8-0.5,1-0.8c0.2-0.3,0.5-0.7,1.2-0.9c0.9-0.3,1.2-0.7,1.4-1
				c0.1-0.1,0.1-0.2,0.2-0.2c-1.1,0.3-1.5,0.5-2,0.9c-0.3,0.3-0.7,0.4-1,0.4c-0.3,0.1-0.6,0.1-0.9,0.4c-0.6,0.5-1.3,0.9-2.1,0.7
				c-0.1,0-0.1,0-0.2-0.1c-0.5-0.2-0.7-0.2-0.9,0.3c-0.4,1.1-1,1.2-1.5,1.3c-0.3,0-0.5,0.1-0.6,0.2c-0.5,0.5-0.9,0.5-1.3,0.5
				c-0.3,0-0.5,0-0.7,0.2c-0.4,0.3-1,0.3-1.6,0.2c-0.6,0-1.2-0.1-1.6,0.3c-0.7,0.6-1.1,0.5-1.5,0.4c-0.4-0.1-0.8-0.2-1.4,0.2
				c-1.2,0.7-2.2,0.4-2.9,0.1c-0.3-0.1-1.1-0.2-1.9-0.2c-0.8-0.1-1.7-0.1-2.2-0.3c-0.9-0.3-1.5-0.4-2-0.4c-0.5-0.1-0.9-0.1-1.2-0.4
				c-0.1,0.2-0.1,0.4,0,0.6c0,0.2,0.1,0.5-0.2,0.9c-0.3,0.4-0.3,0.8-0.4,1.2c0,0.5-0.1,1.1-0.9,1.5c-0.9,0.5-1.1,0.3-1.4,0.1
				c0,0-0.1,0-0.1-0.1c-0.3-0.3-1.1-0.5-2.5,0.1c-0.7,0.3-0.8,0.3-1,0.1c-0.1-0.1-0.2-0.1-0.6,0.1c-0.1,0-0.1,0.1-0.2,0.1
				c-0.4,0.2-0.5,0.4-0.6,0.7c-0.1,0.3-0.2,0.6-0.8,0.7c-1.1,0.3-1.4,0.1-2.2-0.3c-0.9-0.4-0.9-0.3-1.1-0.1
				c-0.2,0.3-0.2,0.5,0.3,0.8c0.5,0.3,0.7,0.6,0.5,1.1c-0.2,0.5-0.2,0.7,0.1,0.8c0.4,0.2,0.4,0.5,0.4,0.8c0,0.3,0,0.7,0.3,1.2
				c0.4,0.6,0.4,1,0.5,1.6c0,0.5,0.1,0.8,0.6,0.9c0.4,0.1,0.5,0.2,0.5,0.4c0.1,0.2,0.2,0.4,0.9,0.6c0.5,0.2,0.9,0.3,1.4,0.6
				c0.4,0.2,1.4,0.4,2.2,0.2c0.1,0,0.1,0,0.2,0C-241.8,400.3-241.4,400.2-241,400.2z"/>
		</g>
		<g>
			<path class="st4" d="M-234,412.4c-5.6-2.6-10.9-3.4-13.7-7c2.6,3.8,8.4,4.7,13.8,7.5C-233.8,412.9-233.8,412.5-234,412.4
				L-234,412.4z"/>
		</g>
		<g>
			<path d="M-233.9,413C-233.9,413-233.9,413-233.9,413c-1.8-0.9-3.5-1.6-5.2-2.2c-3.7-1.4-6.8-2.7-8.6-5.3l0.1-0.1
				c1.9,2.4,4.9,3.5,8.5,4.9c1.7,0.6,3.4,1.3,5.2,2.1l0,0C-233.8,412.4-233.8,412.8-233.9,413C-233.8,412.9-233.9,413-233.9,413z
				 M-245.9,407.2c1.8,1.4,4.2,2.4,6.8,3.4c1.7,0.7,3.5,1.4,5.2,2.2c0,0,0-0.1,0-0.2c0-0.1-0.1-0.2-0.1-0.2
				c-1.8-0.8-3.5-1.5-5.2-2.1C-241.8,409.4-244.1,408.5-245.9,407.2z"/>
		</g>
		<g>
			<path class="st4" d="M-245.9,407.3c-1.9-1.4-2.5-0.5-3.3-0.4C-247.7,408-247.3,407.9-245.9,407.3L-245.9,407.3z"/>
		</g>
		<g>
			<path d="M-247.4,407.8c-0.5,0-1-0.2-1.9-0.8l-0.1-0.1l0.2,0c0.2,0,0.4-0.1,0.6-0.2c0.6-0.2,1.3-0.5,2.8,0.6l0.1,0.1l-0.1,0
				C-246.5,407.6-247,407.8-247.4,407.8z M-249.1,406.9c1.4,0.9,1.8,0.9,3,0.3c-1.3-1-2-0.7-2.6-0.5
				C-248.7,406.8-248.9,406.9-249.1,406.9z"/>
		</g>
		<g>
			<path class="st4" d="M-246,407.2c-1.7-1.7-0.8-2.4-0.8-3.3C-245.5,405.3-245.5,405.7-246,407.2L-246,407.2z"/>
		</g>
		<g>
			<path d="M-245.9,407.3L-245.9,407.3c-1.3-1.4-1.2-2.1-1-2.7c0.1-0.2,0.1-0.4,0.1-0.6l0-0.2l0.1,0.1c1.3,1.4,1.3,1.8,0.8,3.3
				L-245.9,407.3z M-246.7,404.1c0,0.2-0.1,0.3-0.1,0.5c-0.2,0.6-0.3,1.3,0.8,2.5C-245.6,405.7-245.6,405.3-246.7,404.1z"/>
		</g>
		<g>
			<path class="st4" d="M-247.4,405.7c-0.4-2.3-1.5-2-2.2-2.5C-249.2,405-248.9,405.2-247.4,405.7L-247.4,405.7z"/>
		</g>
		<g>
			<path d="M-247.4,405.8l-0.1,0c-1.5-0.5-1.8-0.7-2.2-2.6l0-0.2l0.1,0.1c0.2,0.1,0.4,0.2,0.6,0.3c0.6,0.2,1.3,0.5,1.6,2.3
				L-247.4,405.8z M-249.5,403.3c0.4,1.6,0.7,1.8,2,2.3c-0.3-1.6-0.9-1.9-1.5-2.1C-249.2,403.5-249.4,403.4-249.5,403.3z"/>
		</g>
		<g>
			<path class="st4" d="M-244.3,408.2c-1.7-1.7-0.8-2.4-0.8-3.3C-243.8,406.4-243.9,406.7-244.3,408.2L-244.3,408.2z"/>
		</g>
		<g>
			<path d="M-244.3,408.3L-244.3,408.3c-1.3-1.4-1.2-2.1-1-2.7c0.1-0.2,0.1-0.4,0.1-0.6l0-0.2l0.1,0.1c1.3,1.4,1.3,1.8,0.8,3.3
				L-244.3,408.3z M-245,405.1c0,0.2-0.1,0.3-0.1,0.5c-0.2,0.6-0.3,1.3,0.8,2.5C-243.9,406.7-243.9,406.4-245,405.1z"/>
		</g>
		<g>
			<path class="st4" d="M-244.3,408.3c-1.8,1.6-2.4,0.7-3.3,0.6C-246.1,407.7-245.7,407.8-244.3,408.3L-244.3,408.3z"/>
		</g>
		<g>
			<path d="M-246.1,409.3c-0.3,0-0.6-0.1-0.8-0.2c-0.2-0.1-0.4-0.1-0.6-0.1l-0.2,0l0.1-0.1c1.5-1.2,1.9-1.2,3.3-0.7l0.1,0l-0.1,0.1
				C-245.1,409.1-245.6,409.3-246.1,409.3z M-247.4,408.9c0.2,0,0.3,0.1,0.5,0.1c0.6,0.2,1.3,0.4,2.5-0.7
				C-245.7,407.9-246.1,407.8-247.4,408.9z"/>
		</g>
		<g>
			<path class="st4" d="M-242.4,409.2c-1.9-1.5-1.1-2.3-1.2-3.1C-242.1,407.3-242.1,407.6-242.4,409.2L-242.4,409.2z"/>
		</g>
		<g>
			<path d="M-242.3,409.3L-242.3,409.3c-1.5-1.2-1.4-1.9-1.3-2.6c0-0.2,0-0.4,0-0.6l0-0.2l0.1,0.1c1.5,1.3,1.5,1.6,1.2,3.2
				L-242.3,409.3z M-243.5,406.2c0,0.2,0,0.3,0,0.5c-0.1,0.6-0.1,1.3,1.1,2.3C-242.2,407.7-242.2,407.3-243.5,406.2z"/>
		</g>
		<g>
			<path class="st4" d="M-242.1,409.3c-1.6,1.8-2.3,0.9-3.2,1C-244,408.9-243.6,409-242.1,409.3L-242.1,409.3z"/>
		</g>
		<g>
			<path d="M-244.1,410.5c-0.2,0-0.4,0-0.6-0.1c-0.2,0-0.4-0.1-0.6-0.1l-0.2,0l0.1-0.1c1.4-1.4,1.7-1.3,3.3-1l0.1,0l-0.1,0.1
				C-242.9,410.3-243.6,410.5-244.1,410.5z M-245.2,410.2c0.2,0,0.3,0,0.5,0.1c0.6,0.1,1.3,0.2,2.4-0.9
				C-243.6,409-244,409-245.2,410.2z"/>
		</g>
		<g>
			<path class="st4" d="M-240.2,410.1c-2-1.3-1.3-2.2-1.5-3C-240.1,408.2-240.1,408.5-240.2,410.1L-240.2,410.1z"/>
		</g>
		<g>
			<path d="M-240.1,410.2L-240.1,410.2c-1.6-1.1-1.6-1.8-1.6-2.5c0-0.2,0-0.4,0-0.6l0-0.2l0.1,0.1c1.6,1.1,1.6,1.5,1.5,3.1
				L-240.1,410.2z M-241.6,407.2c0,0.2,0,0.3,0,0.5c0,0.6,0,1.3,1.3,2.2C-240.2,408.6-240.2,408.2-241.6,407.2z"/>
		</g>
		<g>
			<path class="st4" d="M-240,410.2c-1.6,1.8-2.3,0.9-3.2,1C-241.9,409.9-241.5,409.9-240,410.2L-240,410.2z"/>
		</g>
		<g>
			<path d="M-242,411.4c-0.2,0-0.4,0-0.6-0.1c-0.2,0-0.4-0.1-0.6-0.1l-0.2,0l0.1-0.1c1.4-1.4,1.7-1.3,3.3-1l0.1,0l-0.1,0.1
				C-240.8,411.2-241.5,411.4-242,411.4z M-243.1,411.1c0.2,0,0.3,0,0.5,0.1c0.6,0.1,1.3,0.2,2.4-0.9
				C-241.5,410-241.9,410-243.1,411.1z"/>
		</g>
		<g>
			<path class="st4" d="M-238.1,410.8c-2-1.3-1.3-2.2-1.5-3C-238,408.9-238,409.2-238.1,410.8L-238.1,410.8z"/>
		</g>
		<g>
			<path d="M-238.1,410.9L-238.1,410.9c-1.6-1.1-1.6-1.8-1.6-2.5c0-0.2,0-0.4,0-0.6l0-0.2l0.1,0.1c1.6,1.1,1.6,1.5,1.5,3.1
				L-238.1,410.9z M-239.5,407.9c0,0.2,0,0.3,0,0.5c0,0.6,0,1.3,1.3,2.2C-238.1,409.3-238.1,408.9-239.5,407.9z"/>
		</g>
		<g>
			<path class="st4" d="M-237.9,411c-1.4,1.9-2.2,1.1-3.1,1.3C-239.8,410.8-239.5,410.8-237.9,411L-237.9,411z"/>
		</g>
		<g>
			<path d="M-241.2,412.4l0.1-0.1c1.2-1.5,1.6-1.5,3.2-1.3l0.1,0l-0.1,0.1c-1.1,1.4-1.8,1.4-2.5,1.3c-0.2,0-0.4,0-0.6,0
				L-241.2,412.4z M-240.7,412.2c0.1,0,0.3,0,0.4,0c0.6,0.1,1.3,0.1,2.3-1.2c-1.4-0.2-1.7-0.1-2.8,1.2
				C-240.8,412.2-240.8,412.2-240.7,412.2z"/>
		</g>
		<g>
			<path class="st4" d="M-237.3,412.4c5.6-2.6,10.9-3.4,13.7-7c-2.6,3.8-8.4,4.7-13.8,7.5C-237.5,412.9-237.4,412.5-237.3,412.4
				L-237.3,412.4z"/>
		</g>
		<g>
			<path d="M-237.4,413C-237.4,413-237.4,412.9-237.4,413c-0.2-0.2-0.1-0.5,0.1-0.6l0,0c1.8-0.8,3.5-1.5,5.2-2.1
				c3.5-1.3,6.6-2.5,8.5-4.9l0.1,0.1c-1.8,2.6-4.9,3.8-8.6,5.3C-233.8,411.4-235.6,412.1-237.4,413C-237.3,413-237.4,413-237.4,413z
				 M-237.2,412.4c0,0-0.1,0.1-0.1,0.2c0,0.1,0,0.1,0,0.2c1.7-0.9,3.5-1.6,5.2-2.2c2.7-1,5-2,6.8-3.4c-1.8,1.3-4.1,2.2-6.7,3.1
				C-233.7,411-235.5,411.6-237.2,412.4z"/>
		</g>
		<g>
			<path class="st4" d="M-225.4,407.3c1.9-1.4,2.5-0.5,3.3-0.4C-223.6,408-224,407.9-225.4,407.3L-225.4,407.3z"/>
		</g>
		<g>
			<path d="M-223.9,407.8c-0.4,0-0.9-0.2-1.5-0.5l-0.1,0l0.1-0.1c1.4-1.1,2.1-0.8,2.8-0.6c0.2,0.1,0.4,0.2,0.6,0.2l0.2,0l-0.1,0.1
				C-222.9,407.5-223.4,407.8-223.9,407.8z M-225.3,407.2c1.3,0.6,1.6,0.6,3-0.3c-0.2,0-0.3-0.1-0.5-0.2
				C-223.3,406.5-223.9,406.3-225.3,407.2z"/>
		</g>
		<g>
			<path class="st4" d="M-225.3,407.2c1.7-1.7,0.8-2.4,0.8-3.3C-225.8,405.3-225.7,405.7-225.3,407.2L-225.3,407.2z"/>
		</g>
		<g>
			<path d="M-225.3,407.3l0-0.1c-0.4-1.5-0.5-1.9,0.8-3.3l0.1-0.1l0,0.2c0,0.2,0,0.4,0.1,0.6C-224.2,405.2-224,405.9-225.3,407.3
				L-225.3,407.3z M-224.6,404.1c-1.1,1.3-1.1,1.6-0.7,3c1.1-1.2,1-1.8,0.8-2.5C-224.5,404.4-224.5,404.2-224.6,404.1z"/>
		</g>
		<g>
			<path class="st4" d="M-223.8,405.7c0.4-2.3,1.5-2,2.2-2.5C-222.1,405-222.4,405.2-223.8,405.7L-223.8,405.7z"/>
		</g>
		<g>
			<path d="M-223.9,405.8l0-0.1c0.3-1.8,1-2.1,1.6-2.3c0.2-0.1,0.4-0.2,0.6-0.3l0.1-0.1l0,0.2c-0.4,1.9-0.8,2.1-2.2,2.6
				L-223.9,405.8z M-221.8,403.3c-0.1,0.1-0.3,0.1-0.5,0.2c-0.6,0.2-1.2,0.5-1.5,2.1C-222.4,405.2-222.1,405-221.8,403.3z"/>
		</g>
		<g>
			<path class="st4" d="M-227,408.2c1.7-1.7,0.8-2.4,0.8-3.3C-227.4,406.4-227.4,406.7-227,408.2L-227,408.2z"/>
		</g>
		<g>
			<path d="M-227,408.3l0-0.1c-0.4-1.5-0.5-1.9,0.8-3.3l0.1-0.1l0,0.2c0,0.2,0,0.4,0.1,0.6C-225.9,406.2-225.7,407-227,408.3
				L-227,408.3z M-226.2,405.1c-1.1,1.3-1.1,1.6-0.7,3c1.1-1.2,1-1.8,0.8-2.5C-226.2,405.5-226.2,405.3-226.2,405.1z"/>
		</g>
		<g>
			<path class="st4" d="M-227,408.3c1.8,1.6,2.4,0.7,3.3,0.6C-225.2,407.7-225.6,407.8-227,408.3L-227,408.3z"/>
		</g>
		<g>
			<path d="M-225.2,409.3c-0.5,0-1.1-0.2-1.9-0.9l-0.1-0.1l0.1,0c1.5-0.5,1.8-0.6,3.3,0.7l0.1,0.1l-0.2,0c-0.2,0-0.4,0.1-0.6,0.1
				C-224.6,409.2-224.9,409.3-225.2,409.3z M-226.9,408.3c1.3,1.1,1.9,0.9,2.5,0.7c0.2-0.1,0.3-0.1,0.5-0.1
				C-225.2,407.8-225.6,407.9-226.9,408.3z"/>
		</g>
		<g>
			<path class="st4" d="M-228.9,409.2c1.9-1.5,1.1-2.3,1.2-3.1C-229.1,407.3-229.1,407.6-228.9,409.2L-228.9,409.2z"/>
		</g>
		<g>
			<path d="M-229,409.3l0-0.1c-0.2-1.5-0.2-1.9,1.2-3.2l0.1-0.1l0,0.2c0,0.2,0,0.4,0,0.6C-227.5,407.4-227.4,408.1-229,409.3
				L-229,409.3z M-227.8,406.2c-1.3,1.1-1.3,1.5-1.1,2.9c1.3-1,1.2-1.7,1.1-2.3C-227.8,406.5-227.8,406.4-227.8,406.2z"/>
		</g>
		<g>
			<path class="st4" d="M-229.1,409.3c1.6,1.8,2.3,0.9,3.2,1C-227.3,408.9-227.6,409-229.1,409.3L-229.1,409.3z"/>
		</g>
		<g>
			<path d="M-227.2,410.5c-0.5,0-1.1-0.2-2-1.1l-0.1-0.1l0.1,0c1.5-0.3,1.9-0.4,3.3,1l0.1,0.1l-0.2,0c-0.2,0-0.4,0-0.6,0.1
				C-226.8,410.5-227,410.5-227.2,410.5z M-229,409.3c1.1,1.2,1.8,1.1,2.4,0.9c0.2,0,0.3-0.1,0.5-0.1
				C-227.3,409-227.7,409-229,409.3z"/>
		</g>
		<g>
			<path class="st4" d="M-231.1,410.1c2-1.3,1.3-2.2,1.5-3C-231.2,408.2-231.2,408.5-231.1,410.1L-231.1,410.1z"/>
		</g>
		<g>
			<path d="M-231.1,410.2l0-0.1c-0.1-1.6-0.1-1.9,1.5-3.1l0.1-0.1l0,0.2c-0.1,0.2,0,0.4,0,0.6C-229.6,408.4-229.5,409.1-231.1,410.2
				L-231.1,410.2z M-229.7,407.2c-1.4,1-1.4,1.4-1.3,2.7c1.4-0.9,1.3-1.6,1.3-2.2C-229.7,407.5-229.7,407.4-229.7,407.2z"/>
		</g>
		<g>
			<path class="st4" d="M-231.2,410.2c1.6,1.8,2.3,0.9,3.2,1C-229.4,409.9-229.7,409.9-231.2,410.2L-231.2,410.2z"/>
		</g>
		<g>
			<path d="M-229.3,411.4c-0.5,0-1.1-0.2-2-1.1l-0.1-0.1l0.1,0c1.5-0.3,1.9-0.4,3.3,1l0.1,0.1l-0.2,0c-0.2,0-0.4,0-0.6,0.1
				C-228.9,411.4-229.1,411.4-229.3,411.4z M-231.1,410.3c1.1,1.2,1.8,1.1,2.4,0.9c0.2,0,0.3-0.1,0.5-0.1
				C-229.4,410-229.8,410-231.1,410.3z"/>
		</g>
		<g>
			<path class="st4" d="M-233.2,410.8c2-1.3,1.3-2.2,1.5-3C-233.2,408.9-233.3,409.2-233.2,410.8L-233.2,410.8z"/>
		</g>
		<g>
			<path d="M-233.2,410.9l0-0.1c-0.1-1.6-0.1-1.9,1.5-3.1l0.1-0.1l0,0.2c-0.1,0.2,0,0.4,0,0.6C-231.6,409.1-231.6,409.8-233.2,410.9
				L-233.2,410.9z M-231.8,407.9c-1.4,1-1.4,1.4-1.3,2.7c1.4-0.9,1.3-1.6,1.3-2.2C-231.8,408.3-231.8,408.1-231.8,407.9z"/>
		</g>
		<g>
			<path class="st4" d="M-233.4,411c1.4,1.9,2.2,1.1,3.1,1.3C-231.5,410.8-231.8,410.8-233.4,411L-233.4,411z"/>
		</g>
		<g>
			<path d="M-230.1,412.4l-0.2,0c-0.2,0-0.4,0-0.6,0c-0.7,0.1-1.4,0.1-2.5-1.3l-0.1-0.1l0.1,0c1.5-0.2,1.9-0.2,3.2,1.3L-230.1,412.4
				z M-233.2,411.1c1,1.3,1.7,1.2,2.3,1.2c0.2,0,0.3,0,0.5,0C-231.5,410.9-231.9,410.9-233.2,411.1z"/>
		</g>
	</g>
</g>
</svg>
