<?xml version="1.0" encoding="utf-8"?>
<!-- Generator: Adobe Illustrator 19.0.0, SVG Export Plug-In . SVG Version: 6.00 Build 0)  -->
<svg version="1.1" id="Layer_1" xmlns="http://www.w3.org/2000/svg" xmlns:xlink="http://www.w3.org/1999/xlink" x="0px" y="0px"
	 viewBox="-269 374 72 46" style="enable-background:new -269 374 72 46;" xml:space="preserve">
<style type="text/css">
	.st0{clip-path:url(#SVGID_2_);}
	.st1{fill:#E73137;}
	.st2{fill:#FFFFFF;}
	.st3{fill:#0062A3;}
</style>
<g>
	<defs>
		<path id="SVGID_1_" d="M-204,420H-262c-3.8,0-7-3.1-7-7V381c0-3.8,3.1-7,7-7h58.1c3.8,0,7,3.1,7,7V413
			C-197,416.9-200.1,420-204,420z"/>
	</defs>
	<clipPath id="SVGID_2_">
		<use xlink:href="#SVGID_1_"  style="overflow:visible;"/>
	</clipPath>
	<g class="st0">
		<g>
			<polygon class="st1" points="-192,424.3 -274,424.3 -274,397 -192,397 			"/>
		</g>
		<g>
			<path d="M-191.9,424.5h-82.3v-27.6h82.3V424.5z M-273.9,424.2h81.8v-27.1h-81.8V424.2z"/>
		</g>
		<g>
			<polygon class="st2" points="-274,397 -192,397 -192,369.7 -274,369.7 			"/>
		</g>
		<g>
			<path d="M-191.9,397.1h-82.3v-27.6h82.3V397.1z M-273.9,396.9h81.8v-27.1h-81.8V396.9z"/>
		</g>
		<g>
			<polygon class="st3" points="-274,424.3 -233,397 -274,369.7 			"/>
		</g>
		<g>
			<path d="M-274,424.5C-274,424.5-274,424.5-274,424.5c-0.1,0-0.1-0.1-0.1-0.1v-54.7c0,0,0-0.1,0.1-0.1c0,0,0.1,0,0.1,0l41,27.3
				c0,0,0.1,0.1,0.1,0.1s0,0.1-0.1,0.1L-274,424.5C-274,424.5-274,424.5-274,424.5z M-273.9,369.9v54.2l40.7-27.1L-273.9,369.9z"/>
		</g>
	</g>
</g>
</svg>
