<?xml version="1.0" encoding="utf-8"?>
<!-- Generator: Adobe Illustrator 19.0.0, SVG Export Plug-In . SVG Version: 6.00 Build 0)  -->
<svg version="1.1" id="Layer_1" xmlns="http://www.w3.org/2000/svg" xmlns:xlink="http://www.w3.org/1999/xlink" x="0px" y="0px"
	 viewBox="-269 374 72 46" style="enable-background:new -269 374 72 46;" xml:space="preserve">
<style type="text/css">
	.st0{clip-path:url(#SVGID_2_);}
	.st1{fill:#D4DF84;}
	.st2{fill:#47BFDE;}
	.st3{fill:#FFFFFF;}
	.st4{fill:#E50040;}
</style>
<g>
	<defs>
		<path id="SVGID_1_" d="M-204,420H-262c-3.8,0-7-3.1-7-7V381c0-3.8,3.1-7,7-7h58.1c3.8,0,7,3.1,7,7V413
			C-197,416.9-200.1,420-204,420z"/>
	</defs>
	<clipPath id="SVGID_2_">
		<use xlink:href="#SVGID_1_"  style="overflow:visible;"/>
	</clipPath>
	<g class="st0">
		<g>
			<polygon class="st1" points="-272.8,396.8 -189.4,396.8 -189.4,420.1 -272.8,420.1 			"/>
		</g>
		<g>
			<path d="M-189.3,420.2h-83.6v-23.5h83.6V420.2z M-272.6,419.9h83.1v-23h-83.1V419.9z"/>
		</g>
		<g>
			<polygon class="st2" points="-189.4,396.8 -272.8,396.8 -272.8,373.6 -189.4,373.6 			"/>
		</g>
		<g>
			<path d="M-189.3,396.9h-83.6v-23.5h83.6V396.9z M-272.6,396.7h83.1v-23h-83.1V396.7z"/>
		</g>
		<g>
			<polygon class="st3" points="-272.8,420.1 -232.9,396.8 -272.8,373.6 			"/>
		</g>
		<g>
			<path d="M-272.7,420.2l-0.2-0.1v-46.5l0.2-0.1l39.9,23.2v0.2L-272.7,420.2z M-272.6,373.8v46l39.5-23L-272.6,373.8z"/>
		</g>
		<g>
			<polygon class="st4" points="-257.1,390.7 -258.6,395.3 -263.4,395.3 -259.5,398.2 -261,402.8 -257.1,400 -253.2,402.8 
				-254.7,398.2 -250.8,395.3 -255.6,395.3 			"/>
		</g>
		<g>
			<path d="M-261.1,403l1.6-4.8l-4.1-3h5l1.5-4.8l1.5,4.8h5l-4,2.9l1.5,4.8l-0.2-0.1l-3.9-2.8L-261.1,403z M-257.1,399.9
				L-257.1,399.9l3.8,2.8l-1.4-4.5l3.8-2.7h-4.7l0,0l-1.4-4.5l-1.4,4.5h-4.7l3.8,2.8l0,0l-1.5,4.4L-257.1,399.9z"/>
		</g>
	</g>
</g>
</svg>
