<?xml version="1.0" encoding="utf-8"?>
<!-- Generator: Adobe Illustrator 19.0.0, SVG Export Plug-In . SVG Version: 6.00 Build 0)  -->
<svg version="1.1" id="Layer_1" xmlns="http://www.w3.org/2000/svg" xmlns:xlink="http://www.w3.org/1999/xlink" x="0px" y="0px"
	 viewBox="-269 374 72 46" style="enable-background:new -269 374 72 46;" xml:space="preserve">
<style type="text/css">
	.st0{clip-path:url(#SVGID_2_);}
	.st1{fill:#00633A;}
	.st2{fill:#FFD500;}
	.st3{fill:#FFFFFF;}
	.st4{fill:none;stroke:#000000;stroke-width:0.25;}
	.st5{fill:#E50040;}
	.st6{fill:#D9D9D9;}
	.st7{fill:#8577B6;}
</style>
<g>
	<defs>
		<path id="SVGID_1_" d="M-204,420H-262c-3.8,0-7-3.1-7-7V381c0-3.8,3.1-7,7-7h58.1c3.8,0,7,3.1,7,7V413
			C-197,416.9-200.1,420-204,420z"/>
	</defs>
	<clipPath id="SVGID_2_">
		<use xlink:href="#SVGID_1_"  style="overflow:visible;"/>
	</clipPath>
	<g class="st0">
		<g>
			<polygon class="st1" points="-185.6,420.5 -185.6,373.1 -280.4,373.1 -280.4,420.5 			"/>
		</g>
		<g>
			<path d="M-185.5,420.6h-95.1V373h95.1V420.6z M-280.3,420.4h94.6v-47.2h-94.6V420.4z"/>
		</g>
		<g>
			<polygon class="st2" points="-185.6,394.8 -185.6,390.9 -280.4,390.9 -280.4,394.8 			"/>
		</g>
		<g>
			<path d="M-185.5,394.9h-95.1v-4.2h95.1V394.9z M-280.3,394.7h94.6V391h-94.6V394.7z"/>
		</g>
		<g>
			<polygon points="-185.6,398.8 -185.6,394.8 -280.4,394.8 -280.4,398.8 			"/>
			<path d="M-185.5,398.9h-95.1v-4.2h95.1V398.9z M-280.3,398.6h94.6v-3.7h-94.6V398.6z"/>
		</g>
		<g>
			<polygon class="st3" points="-185.6,402.7 -185.6,398.8 -280.4,398.8 -280.4,402.7 			"/>
		</g>
		<g>
			<path d="M-185.5,402.8h-95.1v-4.2h95.1V402.8z M-280.3,402.6h94.6v-3.7h-94.6V402.6z"/>
		</g>
		<g>
			<polygon class="st2" points="-235,373.1 -238.9,373.1 -238.9,420.5 -235,420.5 			"/>
		</g>
		<g>
			<path d="M-234.9,420.6h-4.2V373h4.2V420.6z M-238.8,420.4h3.7v-47.2h-3.7V420.4z"/>
		</g>
		<g>
			<polygon points="-231,373.1 -235,373.1 -235,420.5 -231,420.5 			"/>
			<path d="M-230.9,420.6h-4.2V373h4.2V420.6z M-234.9,420.4h3.7v-47.2h-3.7V420.4z"/>
		</g>
		<g>
			<polygon class="st3" points="-227.1,373.1 -231,373.1 -231,420.5 -227.1,420.5 			"/>
		</g>
		<g>
			<path d="M-226.9,420.6h-4.2V373h4.2V420.6z M-230.9,420.4h3.7v-47.2h-3.7V420.4z"/>
		</g>
		<g>
			<path class="st3" d="M-233,396.8"/>
		</g>
		<g>
			<path class="st4" d="M-233,396.8"/>
		</g>
		<g>
			<path class="st3" d="M-233,396.8"/>
		</g>
		<g>
			<path class="st4" d="M-233,396.8"/>
		</g>
		<g>
			<path class="st5" d="M-233,411c7.9,0,14.2-6.4,14.2-14.2c0-7.9-6.4-14.2-14.2-14.2s-14.2,6.4-14.2,14.2
				C-247.2,404.6-240.9,411-233,411L-233,411z"/>
		</g>
		<g>
			<path d="M-233,411.1c-7.9,0-14.3-6.4-14.3-14.3c0-7.9,6.4-14.3,14.3-14.3c7.9,0,14.3,6.4,14.3,14.3
				C-218.7,404.7-225.1,411.1-233,411.1z M-233,382.7c-7.8,0-14.1,6.3-14.1,14.1c0,7.8,6.3,14.1,14.1,14.1c7.8,0,14.1-6.3,14.1-14.1
				C-218.9,389-225.2,382.7-233,382.7z"/>
		</g>
		<g>
			<polygon class="st1" points="-233,383.3 -233.4,384.6 -234.9,384.6 -233.7,385.5 -234.1,386.8 -233,386 -231.9,386.8 
				-232.3,385.5 -231.1,384.6 -232.6,384.6 			"/>
		</g>
		<g>
			<path d="M-234.4,387.2l0.5-1.6l-1.4-1h1.7l0.5-1.6l0.5,1.6h1.7l-1.4,1l0.5,1.6l-1.4-1L-234.4,387.2z M-233,385.8l0.9,0.7
				l-0.3-1.1l0.9-0.6h-1.1l-0.3-1.1l-0.3,1.1h-1.1l0.9,0.7l-0.4,1.1L-233,385.8z"/>
		</g>
		<g>
			<polygon class="st1" points="-240.9,385.9 -240.5,387.2 -241.6,388.1 -240.2,388.1 -239.8,389.4 -239.3,388.1 -237.9,388.1 
				-239.1,387.2 -238.6,385.9 -239.8,386.7 			"/>
		</g>
		<g>
			<path d="M-239.8,389.8l-0.5-1.6l-1.7,0l1.4-1l-0.5-1.6l1.4,1l1.4-1l-0.5,1.6l1.4,1l-1.7,0L-239.8,389.8z M-240.1,387.9l0.3,1.1
				l0.3-1.1l1.1,0l-0.9-0.7l0.4-1.1l-0.9,0.7l-0.9-0.7l0.3,1.1l-0.9,0.7L-240.1,387.9z"/>
		</g>
		<g>
			<polygon class="st1" points="-245.8,392.6 -244.7,393.4 -245.1,394.8 -244,394 -242.8,394.8 -243.3,393.4 -242.1,392.6 
				-243.5,392.6 -244,391.3 -244.4,392.6 			"/>
		</g>
		<g>
			<path d="M-245.4,395.1l0.5-1.6l-1.4-1h1.7l0.5-1.6l0.5,1.6l1.7,0l-1.4,1l0.5,1.6l-1.4-1L-245.4,395.1z M-245.4,392.7l0.9,0.7
				l-0.4,1.1l0.9-0.7l0.9,0.7l-0.3-1.1l0.9-0.7l-1.1,0l-0.3-1.1l-0.3,1.1H-245.4z"/>
		</g>
		<g>
			<polygon class="st1" points="-245.8,401 -244.4,401 -244,402.3 -243.5,400.9 -242.1,401 -243.3,400.1 -242.8,398.8 -244,399.6 
				-245.1,398.8 -244.7,400.1 			"/>
		</g>
		<g>
			<path d="M-244,402.7l-0.5-1.6l-1.7,0l1.4-1l-0.5-1.6l1.4,1l1.4-1l-0.5,1.6l1.4,1l-1.7,0L-244,402.7z M-244.3,400.8l0.4,1.1
				l0.3-1.1l1.1,0l-0.9-0.7l0.4-1.1l-0.9,0.7l-0.9-0.7l0.3,1.1l-0.9,0.7L-244.3,400.8z"/>
		</g>
		<g>
			<polygon class="st1" points="-240.9,407.7 -239.8,406.9 -238.6,407.7 -239.1,406.3 -237.9,405.5 -239.3,405.5 -239.8,404.2 
				-240.2,405.5 -241.6,405.5 -240.5,406.3 			"/>
		</g>
		<g>
			<path d="M-238.4,408l-1.4-1l-1.4,1l0.5-1.6l-1.4-1l1.7,0l0.5-1.6l0.5,1.6l1.7,0l-1.4,1L-238.4,408z M-239.8,406.7l0.9,0.7
				l-0.4-1.1l0.9-0.7l-1.1,0l-0.3-1.1l-0.4,1.1l-1.1,0l0.9,0.7l-0.3,1.1L-239.8,406.7z"/>
		</g>
		<g>
			<polygon class="st1" points="-233,410.3 -232.6,408.9 -231.1,408.9 -232.3,408.1 -231.9,406.7 -233,407.6 -234.1,406.7 
				-233.7,408.1 -234.9,408.9 -233.4,408.9 			"/>
		</g>
		<g>
			<path d="M-233,410.7l-0.5-1.6h-1.7l1.4-1l-0.5-1.6l1.4,1l1.4-1l-0.5,1.6l1.4,1h-1.7L-233,410.7z M-234.5,408.8h1.1l0.3,1.1
				l0.3-1.1h1.1l-0.9-0.7l0.4-1.1l-0.9,0.7l-0.9-0.7l0.3,1.1L-234.5,408.8z"/>
		</g>
		<g>
			<polygon class="st1" points="-225.1,407.7 -225.5,406.4 -224.4,405.5 -225.8,405.5 -226.2,404.2 -226.7,405.5 -228.1,405.5 
				-226.9,406.4 -227.4,407.7 -226.2,406.9 			"/>
		</g>
		<g>
			<path d="M-227.6,408l0.5-1.6l-1.4-1l1.7,0l0.5-1.6l0.5,1.6l1.7,0l-1.4,1l0.5,1.6l-1.4-1L-227.6,408z M-226.2,406.7l0.9,0.7
				l-0.3-1.1l0.9-0.7l-1.1,0l-0.3-1.1l-0.3,1.1l-1.1,0l0.9,0.7l-0.4,1.1L-226.2,406.7z"/>
		</g>
		<g>
			<polygon class="st1" points="-220.2,401 -221.3,400.1 -220.9,398.8 -222,399.6 -223.2,398.8 -222.7,400.1 -223.9,401 -222.5,401 
				-222,402.3 -221.6,401 			"/>
		</g>
		<g>
			<path d="M-222,402.7l-0.5-1.6l-1.7,0l1.4-1l-0.5-1.6l1.4,1l1.4-1l-0.5,1.6l1.4,1h-1.7L-222,402.7z M-223.5,400.8l1.1,0l0.3,1.1
				l0.3-1.1h1.1l-0.9-0.7l0.4-1.1l-0.9,0.7l-0.9-0.7l0.3,1.1L-223.5,400.8z"/>
		</g>
		<g>
			<polygon class="st1" points="-220.2,392.6 -221.6,392.6 -222,391.3 -222.5,392.6 -223.9,392.6 -222.7,393.4 -223.2,394.8 
				-222,394 -220.9,394.8 -221.3,393.5 			"/>
		</g>
		<g>
			<path d="M-220.6,395.1l-1.4-1l-1.4,1l0.5-1.6l-1.4-1l1.7,0l0.5-1.6l0.5,1.6l1.7,0l-1.4,1L-220.6,395.1z M-223.5,392.7l0.9,0.7
				l-0.4,1.1l0.9-0.7l0.9,0.7l-0.3-1.1l0.9-0.7l-1.1,0l-0.4-1.1l-0.3,1.1L-223.5,392.7z"/>
		</g>
		<g>
			<polygon class="st1" points="-225.1,385.9 -226.2,386.7 -227.4,385.9 -226.9,387.2 -228.1,388.1 -226.7,388 -226.2,389.4 
				-225.8,388 -224.4,388.1 -225.5,387.2 			"/>
		</g>
		<g>
			<path d="M-226.2,389.8l-0.5-1.6l-1.7,0l1.4-1l-0.5-1.6l1.4,1l1.4-1l-0.5,1.6l1.4,1l-1.7,0L-226.2,389.8z M-226.6,387.9l0.3,1.1
				l0.4-1.1l1.1,0l-0.9-0.7l0.3-1.1l-0.9,0.7l-0.9-0.7l0.4,1.1l-0.9,0.7L-226.6,387.9z"/>
		</g>
		<g>
			<path class="st6" d="M-235.6,389.8c0,0.2,0,0.7,0.6,0.8c0.4-0.1,0.2-1,0.1-1.2C-235.1,389.4-235.5,389.7-235.6,389.8
				L-235.6,389.8z"/>
		</g>
		<g>
			<path d="M-235,390.7C-235,390.7-235,390.7-235,390.7c-0.7-0.1-0.7-0.6-0.7-0.9c0,0,0,0,0-0.1c0.1-0.2,0.5-0.5,0.8-0.5
				c0.1,0,0.1,0,0.1,0.1c0.1,0.2,0.2,0.8,0.1,1.1C-234.7,390.6-234.8,390.7-235,390.7C-235,390.7-235,390.7-235,390.7z
				 M-235.5,389.9c0,0.2,0,0.5,0.5,0.6c0,0,0.1-0.1,0.1-0.1c0.1-0.2,0-0.6,0-0.8C-235.1,389.6-235.4,389.8-235.5,389.9z"/>
		</g>
		<g>
			<path class="st6" d="M-234.9,389.6c-0.4,0.2-0.9,0.6-0.9,1.3c-0.7-0.5-0.8-2,0-2.2C-235.4,388.6-234.8,389-234.9,389.6
				L-234.9,389.6z"/>
		</g>
		<g>
			<path d="M-235.8,391C-235.8,391-235.8,391-235.8,391c-0.6-0.4-0.8-1.1-0.7-1.6c0.1-0.4,0.3-0.7,0.7-0.8c0.2,0,0.5,0.1,0.7,0.3
				c0.2,0.2,0.3,0.5,0.3,0.8c0,0,0,0.1-0.1,0.1c-0.4,0.2-0.9,0.6-0.8,1.1C-235.6,390.9-235.6,390.9-235.8,391
				C-235.7,391-235.7,391-235.8,391z M-235.7,388.8C-235.7,388.8-235.7,388.8-235.7,388.8c-0.3,0.1-0.4,0.4-0.5,0.6
				c-0.1,0.4,0,0.9,0.3,1.2c0.1-0.4,0.4-0.8,0.9-1.1c0-0.2-0.1-0.4-0.2-0.5C-235.4,388.9-235.6,388.8-235.7,388.8z"/>
		</g>
		<g>
			<path class="st7" d="M-235.2,391.1c0.4,0.3,1.1,0.3,1.5,0.1c0.6,0.4,1.3,0.4,2.2,0.1c0.2,0,0.6,0.1,0.8,0
				c0.1-0.1,0.2-0.2,0.3-0.2c-0.2-0.2-0.4-0.5-0.5-0.8c0,0,0.2-0.2,0.2-0.3c-0.2-0.2-0.5-0.4-0.7-0.5c0.1-0.1,0.2-0.4,0.2-0.4
				c-0.3-0.1-0.7-0.3-0.8-0.5l0-0.2c-0.5,0-0.5-0.7-1.7-0.9c-0.8-0.1-2,0.2-2.1,1.1c0.4,0.4,1.1,1,0.7,1.9c-0.1,0.1-0.3,0.3-0.4,0.4
				C-235.3,391-235.3,391-235.2,391.1L-235.2,391.1z"/>
		</g>
		<g>
			<path d="M-232.6,391.6c-0.4,0-0.8-0.1-1.2-0.3c-0.4,0.2-1.1,0.2-1.5-0.1l0,0c-0.1,0-0.1-0.1-0.2-0.1c0,0,0-0.1,0-0.1
				c0,0,0-0.1,0.1-0.1c0.1,0,0.3-0.2,0.3-0.3c0.3-0.8-0.2-1.3-0.6-1.7l-0.1-0.1c0,0,0-0.1,0-0.1c0-0.3,0.2-0.6,0.5-0.8
				c0.5-0.4,1.2-0.5,1.7-0.4c0.7,0.1,1,0.4,1.2,0.6c0.2,0.1,0.3,0.2,0.4,0.3c0,0,0.1,0,0.1,0c0,0,0,0.1,0,0.1l0,0.1
				c0.1,0.1,0.4,0.3,0.7,0.4c0,0,0.1,0,0.1,0.1c0,0,0,0.1,0,0.1c0,0-0.1,0.2-0.1,0.3c0.2,0.1,0.4,0.3,0.6,0.5c0,0,0,0.1,0,0.2
				c0,0.1-0.1,0.2-0.2,0.3c0.1,0.2,0.3,0.5,0.4,0.6c0,0,0,0.1,0,0.1c0,0,0,0.1-0.1,0.1c-0.1,0.1-0.2,0.1-0.3,0.2c0,0,0,0,0,0
				c-0.2,0.1-0.6,0-0.8,0C-231.9,391.5-232.3,391.6-232.6,391.6z M-233.7,391C-233.7,391-233.7,391-233.7,391
				c0.7,0.4,1.3,0.4,2.1,0.1c0,0,0,0,0.1,0c0.2,0.1,0.5,0.1,0.7,0.1c0.1-0.1,0.1-0.1,0.2-0.1c-0.2-0.2-0.3-0.4-0.4-0.7
				c0,0,0-0.1,0-0.1c0,0,0.1-0.1,0.2-0.2c-0.2-0.2-0.4-0.4-0.6-0.4c0,0-0.1-0.1-0.1-0.1s0-0.1,0-0.1c0,0,0.1-0.1,0.1-0.2
				c-0.3-0.1-0.6-0.3-0.7-0.5c0,0,0-0.1,0-0.1l0-0.1c-0.2-0.1-0.3-0.2-0.5-0.3c-0.2-0.2-0.5-0.5-1.1-0.6c-0.4-0.1-1.1,0-1.5,0.3
				c-0.2,0.2-0.3,0.4-0.4,0.6l0,0c0.4,0.4,1.1,1,0.7,2c0,0,0,0,0,0c-0.1,0.1-0.2,0.2-0.3,0.3c0,0,0,0,0,0c0,0,0,0,0,0
				C-234.8,391.3-234.1,391.2-233.7,391C-233.8,391-233.8,391-233.7,391z"/>
		</g>
		<g>
			<path class="st1" d="M-232,400.8c0.3,1.2,1,3.5,1.2,4c0.2,0.5,0.5,1.5,1.1,1.7c0.3,0.2,0.7,0,0.5-1.3c0.2,0,0.2-0.6,0.2-0.9
				c0-0.4-0.2-1.7-0.2-2.7C-229.1,400.6-232,398.9-232,400.8L-232,400.8z"/>
		</g>
		<g>
			<path d="M-229.4,406.7c-0.1,0-0.2,0-0.3-0.1c-0.6-0.2-0.9-1-1.1-1.6c0-0.1-0.1-0.2-0.1-0.2c-0.2-0.6-1-2.8-1.2-4c0,0,0,0,0,0
				c0-0.6,0.3-1,0.8-1c0,0,0,0,0,0c1,0,2.3,1,2.3,1.8c0,1.1,0.1,2.4,0.2,2.7c0,0.2,0,0.8-0.2,1c0.1,0.7,0,1.2-0.2,1.3
				C-229.3,406.7-229.3,406.7-229.4,406.7z M-231.2,400.2c0.1,0,0.1,0,0.1,0.1c0,0.2,0.1,0.5,0.2,0.8c0.2,0.7,0.4,1.7,0.5,2.3
				c0.2,0.8,0.6,2.3,0.8,2.7c0.1,0.2,0.2,0.2,0.3,0.2c0,0,0,0,0,0c0,0,0.1,0,0.1,0c0.1-0.1,0.1-0.4,0-0.9c-0.4-0.1-0.6-0.9-0.7-1.6
				l0-0.1c0-0.1,0-0.2-0.1-0.4c-0.2-0.8-0.3-1.6-0.3-1.8c0-0.1,0.1-0.1,0.1-0.1c0.1,0,0.1,0.1,0.1,0.1c0,0.3,0.2,1.3,0.3,1.8
				c0,0.2,0.1,0.3,0.1,0.4l0,0.1c0.1,1.1,0.3,1.4,0.5,1.4c0.1-0.1,0.1-0.4,0.1-0.8c0-0.4-0.2-1.7-0.2-2.8c0-0.6-1.2-1.6-2-1.6
				c0,0,0,0,0,0c-0.4,0-0.6,0.3-0.6,0.7c0.3,1.3,1,3.5,1.2,4c0,0.1,0.1,0.2,0.1,0.2c0.1,0.4,0.4,1,0.7,1.3c0,0,0,0,0,0
				c-0.2-0.4-0.6-1.9-0.8-2.7c-0.1-0.6-0.3-1.5-0.5-2.3c-0.1-0.3-0.1-0.6-0.2-0.8C-231.3,400.3-231.3,400.3-231.2,400.2
				C-231.2,400.2-231.2,400.2-231.2,400.2z"/>
		</g>
		<g>
			<path class="st1" d="M-234.7,398.5c-0.1,0.8,0.1,2.3,0.5,2.9l1.7,0.4c0.2-0.1,0.4-0.4,0.4-0.6c0.4-0.1,0.8-0.5,0.9-1.1
				C-231.7,398.9-233.5,397.3-234.7,398.5L-234.7,398.5z"/>
		</g>
		<g>
			<path d="M-232.4,401.9C-232.5,401.9-232.5,401.9-232.4,401.9l-1.8-0.4c0,0-0.1,0-0.1-0.1c-0.4-0.6-0.6-2.2-0.5-3c0,0,0-0.1,0-0.1
				c0.4-0.4,0.9-0.5,1.4-0.4c1,0.2,2,1.2,2.3,2.1c0,0,0,0,0,0.1c-0.1,0.7-0.5,1.1-0.9,1.2C-232,401.5-232.2,401.8-232.4,401.9
				C-232.4,401.9-232.4,401.9-232.4,401.9z M-234.1,401.3l1.6,0.4c0.1-0.1,0.3-0.3,0.3-0.5c0,0,0-0.1,0.1-0.1c0.4-0.1,0.7-0.5,0.8-1
				c-0.3-0.8-1.2-1.7-2.1-1.9c-0.4-0.1-0.8,0-1.1,0.3C-234.6,399.3-234.4,400.7-234.1,401.3z"/>
		</g>
		<g>
			<path class="st7" d="M-230.8,391.3c0,0.3,0.2,0.5,0.4,0.7c-0.1,0.1-0.2,0.2-0.2,0.3c-0.7,0.6-2.4,5-2.5,6
				c-0.1,0.5-0.3,1.3-0.5,1.7c-1.1-1-2.3-2.9-2.1-3.7c-0.1,0-0.2,0-0.3-0.1c0-0.1,0.1-0.5,0.1-0.7c-0.1,0-0.2,0-0.3,0
				c0-0.1,0.1-0.6,0.1-0.8c-0.1,0-0.2-0.1-0.3-0.3c0.1-0.2,0.3-0.6,0.4-0.8c-0.2,0-0.3-0.2-0.3-0.3c0.1-0.1,0.3-0.3,0.4-0.5
				c-0.1-0.1-0.3-0.2-0.3-0.3c0.2-0.1,0.6-0.6,0.8-0.9c-0.1,0-0.2,0-0.3,0c0.2-0.1,0.4-0.3,0.6-0.5c0.4,0.3,1.1,0.3,1.5,0.1
				c0.6,0.4,1.3,0.4,2.2,0.1C-231.4,391.3-230.9,391.4-230.8,391.3L-230.8,391.3z"/>
		</g>
		<g>
			<path d="M-233.6,400.1C-233.6,400.1-233.7,400.1-233.6,400.1c-1.2-1-2.3-2.8-2.2-3.8c-0.1,0-0.1,0-0.2,0c-0.1,0-0.1-0.1-0.1-0.2
				c0-0.1,0-0.3,0.1-0.5c-0.1,0-0.1,0-0.2,0c-0.1,0-0.1-0.1-0.1-0.1c0-0.1,0.1-0.5,0.1-0.6c-0.1-0.1-0.3-0.2-0.3-0.3
				c0,0,0-0.1,0-0.1c0-0.1,0.1-0.3,0.2-0.4c0-0.1,0.1-0.2,0.1-0.2c-0.1-0.1-0.2-0.2-0.3-0.3c0-0.1,0-0.1,0-0.2
				c0.1-0.1,0.2-0.2,0.3-0.4c-0.1-0.1-0.2-0.2-0.2-0.3c0,0,0-0.1,0-0.1c0.1-0.1,0.4-0.5,0.7-0.7c0,0,0,0,0,0c-0.1,0-0.1-0.1-0.1-0.1
				c0-0.1,0-0.1,0.1-0.1c0.1,0,0.2-0.2,0.3-0.3c0.1-0.1,0.1-0.1,0.2-0.2c0,0,0.1,0,0.2,0c0.3,0.3,1,0.2,1.3,0.1c0,0,0.1,0,0.1,0
				c0.6,0.4,1.2,0.4,2.1,0.1c0,0,0,0,0.1,0c0.2,0.1,0.6,0.1,0.7,0.1c0,0,0.1,0,0.1,0c0,0,0.1,0.1,0.1,0.1c0,0.2,0.2,0.5,0.4,0.6
				c0,0,0,0.1,0,0.1c0,0,0,0.1,0,0.1c-0.1,0.1-0.2,0.2-0.2,0.3c0,0,0,0,0,0.1c-0.7,0.6-2.4,4.9-2.4,5.9c-0.1,0.4-0.3,1.3-0.6,1.7
				C-233.5,400.1-233.6,400.1-233.6,400.1C-233.6,400.1-233.6,400.1-233.6,400.1z M-235.8,396.1c0,0,0.1,0,0.1,0l0,0
				c0,0,0.1,0,0.1,0.1c0,0,0,0.1,0,0.1c-0.2,0.8,0.9,2.5,1.9,3.5c0.2-0.4,0.4-1.1,0.5-1.5c0-0.9,1.7-5.2,2.5-6
				c0-0.1,0.1-0.2,0.2-0.3c-0.1-0.2-0.3-0.4-0.3-0.5c-0.2,0-0.5,0-0.7-0.1c-0.9,0.3-1.6,0.2-2.2-0.1c-0.4,0.2-1,0.2-1.4,0
				c0,0-0.1,0.1-0.1,0.1c-0.1,0.1-0.1,0.1-0.2,0.2c0,0,0,0,0.1,0.1c0,0,0,0.1,0,0.1c-0.2,0.3-0.6,0.7-0.7,0.9c0,0.1,0.1,0.1,0.2,0.2
				c0,0,0.1,0.1,0,0.2c-0.1,0.1-0.2,0.3-0.4,0.5c0.1,0.1,0.1,0.1,0.2,0.1c0,0,0.1,0,0.1,0.1c0,0,0,0.1,0,0.1c0,0.1-0.1,0.2-0.2,0.4
				c-0.1,0.1-0.1,0.3-0.2,0.4c0.1,0.1,0.2,0.1,0.2,0.2c0.1,0,0.1,0.1,0.1,0.1c0,0.2,0,0.5-0.1,0.7c0.1,0,0.2,0,0.2,0
				c0,0,0,0.1,0,0.1C-235.8,395.7-235.8,395.9-235.8,396.1z"/>
		</g>
		<g>
			<path class="st1" d="M-228.3,403.3c0.1-4.7-0.7-8.9-1.9-10.5c-1.2-1.6-3.5-1.2-4.1,0.1c-0.3,0.6-0.3,1.9,0,2.5
				c0.5,1,2.3,4.1,3.5,5.3C-229.6,402-228.7,402.8-228.3,403.3L-228.3,403.3z"/>
		</g>
		<g>
			<path d="M-228.3,403.5C-228.3,403.5-228.3,403.5-228.3,403.5c-0.4-0.5-1-1-1.8-1.8c-0.3-0.2-0.5-0.5-0.8-0.8
				c-1.2-1.2-3-4.3-3.5-5.4c-0.3-0.6-0.3-2,0-2.6c0.3-0.7,1-1.1,1.8-1.2c0.9-0.1,1.9,0.3,2.5,1.1c1.3,1.6,2,5.9,1.9,10.6
				C-228.1,403.4-228.2,403.5-228.3,403.5C-228.2,403.5-228.3,403.5-228.3,403.5z M-232.2,391.9c-0.1,0-0.2,0-0.3,0
				c-0.7,0.1-1.4,0.5-1.6,1.1c-0.3,0.5-0.3,1.9,0,2.4c0.5,1.1,2.3,4.1,3.5,5.3c0.3,0.3,0.6,0.5,0.8,0.8c0.7,0.6,1.2,1.1,1.5,1.5
				c0.1-4.5-0.7-8.6-1.9-10.1C-230.7,392.3-231.5,391.9-232.2,391.9z"/>
		</g>
		<g>
			<path class="st2" d="M-230.1,402.2c-0.4,0-0.8,0-1.1-0.2c-0.3-0.2-0.6-0.3-1-0.3c-0.4,0-2.3-0.1-2.6-0.2
				c-0.3-0.1-1.2-0.3-1.5-0.2c-0.4,0-0.9,0.3-1.1,0.3c-0.2,0-0.3,0.2-0.3,0.4s0,0.5,0.3,0.7c0.5,0,1.1-0.1,1.2-0.2
				c0.6,0.2,1.5,0.4,2,0.4c0.5,0,1.5,0.1,1.8,0c0.4,0,0.4-0.1,0.9,0c0.5,0.2,1.1,0.5,1.4,0.6c0.3,0.1,0.5-0.2,0.5-0.5
				C-229.5,402.6-229.7,402.2-230.1,402.2L-230.1,402.2z"/>
		</g>
		<g>
			<path d="M-230,403.5c0,0-0.1,0-0.1,0c-0.1,0-0.3-0.1-0.6-0.2c-0.3-0.1-0.6-0.3-0.8-0.3c-0.3-0.1-0.4-0.1-0.6-0.1
				c-0.1,0-0.2,0-0.3,0c-0.3,0-1.2,0-1.7,0l-0.1,0c-0.5,0-1.4-0.2-2-0.4c-0.1,0-0.4,0.1-1.2,0.1c0,0-0.1,0-0.1,0
				c-0.3-0.2-0.4-0.6-0.4-0.8c0-0.2,0.2-0.5,0.5-0.5c0.1,0,0.3-0.1,0.4-0.1c0.2-0.1,0.5-0.1,0.7-0.2c0.4,0,1.3,0.1,1.6,0.3
				c0.3,0.1,2.2,0.2,2.5,0.2c0.3,0,0.6,0.1,0.9,0.3l0.1,0c0.3,0.2,0.7,0.2,1,0.2c0,0,0,0,0,0c0.2,0,0.3,0.1,0.5,0.2
				c0.1,0.2,0.2,0.4,0.2,0.6c0,0.2-0.1,0.4-0.3,0.6C-229.9,403.5-229.9,403.5-230,403.5z M-231.9,402.6c0.1,0,0.2,0,0.4,0.1
				c0.3,0.1,0.6,0.2,0.8,0.3c0.2,0.1,0.4,0.2,0.5,0.2c0.1,0,0.1,0,0.2,0c0.1-0.1,0.2-0.2,0.2-0.4c0-0.1,0-0.3-0.1-0.4
				c-0.1-0.1-0.1-0.1-0.3-0.1c0,0,0,0,0,0c-0.4,0-0.8,0-1.2-0.2l-0.1,0c-0.3-0.1-0.5-0.2-0.8-0.2c-0.3,0-2.3-0.1-2.6-0.2
				c-0.3-0.1-1.1-0.3-1.5-0.2c-0.2,0-0.4,0.1-0.6,0.1s-0.4,0.1-0.5,0.1c-0.2,0-0.2,0.2-0.2,0.2c0,0.1,0,0.4,0.2,0.6
				c0.9,0,1.1-0.1,1.1-0.1c0,0,0.1,0,0.1,0c0.6,0.2,1.5,0.3,2,0.4l0.1,0c0.5,0,1.4,0.1,1.7,0c0.1,0,0.2,0,0.2,0
				C-232,402.6-232,402.6-231.9,402.6z"/>
		</g>
		<g>
			<path class="st2" d="M-230.1,403.4c0.3,0.1,0.5-0.2,0.5-0.5c0.1-0.3-0.2-0.7-0.5-0.7C-230.4,402.3-230.7,403-230.1,403.4
				L-230.1,403.4z"/>
		</g>
		<g>
			<path d="M-230,403.5c0,0-0.1,0-0.1,0c0,0,0,0,0,0c-0.3-0.2-0.5-0.5-0.4-0.9c0.1-0.3,0.2-0.5,0.4-0.5c0.2,0,0.4,0.1,0.5,0.2
				c0.1,0.2,0.2,0.4,0.2,0.6c0,0.2-0.1,0.4-0.3,0.6C-229.9,403.5-229.9,403.5-230,403.5z M-230.1,403.3c0,0,0.1,0,0.1,0
				c0.1-0.1,0.2-0.2,0.2-0.4c0-0.1,0-0.3-0.1-0.4c-0.1-0.1-0.1-0.1-0.3-0.1c0,0,0,0,0,0c-0.1,0-0.2,0.2-0.2,0.3
				C-230.4,402.8-230.4,403.1-230.1,403.3z"/>
		</g>
		<g>
			<path class="st6" d="M-233.8,401.2c-0.4-0.3-1,0-1.1,0.7c-0.1,0.7,0.3,1.2,0.8,1.1C-234.3,402.7-234.2,401.4-233.8,401.2
				L-233.8,401.2z"/>
		</g>
		<g>
			<path d="M-234.2,403.2c-0.2,0-0.4-0.1-0.6-0.3c-0.2-0.2-0.3-0.6-0.3-1c0.1-0.4,0.3-0.8,0.6-0.9c0.2-0.1,0.5-0.1,0.7,0.1
				c0,0,0.1,0.1,0,0.1c0,0,0,0.1-0.1,0.1c-0.3,0.1-0.4,1.3-0.3,1.7c0,0,0,0.1,0,0.1S-234.1,403.2-234.2,403.2
				C-234.2,403.2-234.2,403.2-234.2,403.2z M-234.2,401.2c-0.1,0-0.1,0-0.2,0c-0.2,0.1-0.4,0.3-0.5,0.7c0,0.3,0,0.6,0.2,0.8
				c0.1,0.1,0.2,0.1,0.3,0.2c-0.1-0.4,0-1.4,0.3-1.7C-234.1,401.3-234.1,401.2-234.2,401.2z"/>
		</g>
		<g>
			<path class="st6" d="M-233.3,401.2c-0.4-0.3-0.8,0-1,0.3c-0.3,0.4-0.3,1.1-0.1,1.4c0.2,0.4,0.7,0.2,0.8,0
				C-233.6,402.6-233.6,401.5-233.3,401.2L-233.3,401.2z"/>
		</g>
		<g>
			<path d="M-234,403.3C-234,403.3-234,403.3-234,403.3c-0.2,0-0.4-0.1-0.5-0.3c-0.2-0.4-0.2-1.2,0.1-1.6c0.1-0.2,0.4-0.4,0.7-0.4
				c0.2,0,0.4,0,0.5,0.1c0,0,0,0.1,0,0.1s0,0.1,0,0.1c-0.2,0.2-0.3,1.3-0.2,1.6c0,0,0,0.1,0,0.1C-233.5,403.2-233.8,403.3-234,403.3
				z M-233.6,401.2C-233.6,401.2-233.6,401.2-233.6,401.2c-0.3,0-0.5,0.2-0.6,0.3c-0.2,0.3-0.2,1-0.1,1.3c0,0.1,0.1,0.1,0.3,0.2
				c0.1,0,0.3,0,0.3-0.1c0-0.4,0-1.3,0.2-1.7C-233.5,401.3-233.5,401.2-233.6,401.2z"/>
		</g>
		<g>
			<path class="st6" d="M-232.6,401.5c-0.2-0.4-0.9-0.3-1.2,0c-0.2,0.3-0.3,1,0,1.3c0.3,0.3,0.6,0.3,0.8,0.1
				C-233,402.6-232.9,401.8-232.6,401.5L-232.6,401.5z"/>
		</g>
		<g>
			<path d="M-233.3,403.2c-0.2,0-0.4-0.1-0.5-0.3c-0.3-0.4-0.3-1.1,0-1.5c0.1-0.2,0.5-0.4,0.8-0.3c0.3,0,0.5,0.1,0.6,0.3
				c0,0,0,0.1,0,0.2c-0.3,0.3-0.4,1-0.3,1.3c0,0,0,0.1,0,0.1C-233,403.1-233.2,403.2-233.3,403.2z M-233.1,401.4
				c-0.2,0-0.4,0.1-0.5,0.2c-0.2,0.3-0.2,0.9,0,1.2c0.2,0.2,0.3,0.3,0.6,0.1c0-0.3,0.1-1,0.3-1.4
				C-232.8,401.4-233,401.4-233.1,401.4C-233.1,401.4-233.1,401.4-233.1,401.4z"/>
		</g>
		<g>
			<path class="st6" d="M-232.2,401.7c-0.2-0.4-0.7-0.2-0.9,0c-0.3,0.4-0.2,1.2,0.3,1.4c0.3,0.1,0.5-0.2,0.6-0.3
				c-0.2,0-0.4-0.3-0.4-0.5C-232.6,402.1-232.5,401.7-232.2,401.7L-232.2,401.7z"/>
		</g>
		<g>
			<path d="M-232.6,403.2c0,0-0.1,0-0.1,0c-0.2-0.1-0.4-0.2-0.5-0.5c-0.1-0.3-0.1-0.8,0.1-1.1c0.1-0.2,0.4-0.4,0.6-0.3
				c0.1,0,0.3,0.1,0.5,0.3c0,0,0,0.1,0,0.1c0,0-0.1,0.1-0.1,0.1c-0.2,0-0.3,0.2-0.3,0.5c0,0.1,0.2,0.3,0.3,0.3c0,0,0.1,0,0.1,0.1
				c0,0,0,0.1,0,0.1C-232.2,403.2-232.4,403.2-232.6,403.2z M-232.6,401.6c-0.2,0-0.3,0.1-0.4,0.2c-0.1,0.2-0.2,0.6-0.1,0.9
				c0.1,0.2,0.2,0.3,0.3,0.3c0.1,0,0.2,0,0.3-0.1c-0.2-0.1-0.3-0.3-0.3-0.5c0-0.4,0.1-0.6,0.3-0.7
				C-232.4,401.6-232.5,401.6-232.6,401.6C-232.5,401.6-232.5,401.6-232.6,401.6z"/>
		</g>
		<g>
			<path class="st2" d="M-234.1,388.3c-0.6,0-0.6,0.9,0,0.9C-233.5,389.2-233.5,388.3-234.1,388.3L-234.1,388.3z"/>
		</g>
		<g>
			<path d="M-234.1,389.3c-0.4,0-0.6-0.3-0.6-0.6c0-0.3,0.2-0.6,0.6-0.6c0.4,0,0.6,0.3,0.6,0.6c0,0.1-0.1,0.3-0.1,0.4
				C-233.8,389.3-234,389.3-234.1,389.3z M-234.1,388.4c-0.1,0-0.2,0-0.2,0.1c-0.1,0.1-0.1,0.1-0.1,0.2c0,0.1,0.1,0.3,0.3,0.3
				c0.1,0,0.2,0,0.2-0.1c0.1-0.1,0.1-0.1,0.1-0.2C-233.8,388.6-233.9,388.4-234.1,388.4z"/>
		</g>
		<g>
			<path d="M-234.1,388.6c-0.1,0-0.1,0.2,0,0.2C-234,388.9-234,388.6-234.1,388.6L-234.1,388.6z"/>
		</g>
		<g>
			<path class="st5" d="M-230.8,400.8c-1.2-1.2-3-4.3-3.5-5.3C-233.9,396.9-233.6,399.1-230.8,400.8L-230.8,400.8z"/>
		</g>
		<g>
			<path d="M-228.3,403.2c-0.1,0-0.1,0-0.1-0.1c-0.4-1.1-1.4-1.9-2.1-2.6l0,0c-0.6-0.5-0.9-1.4-1.1-2.2c0,0.1-0.1,0.1-0.1,0.1
				c-0.2,0.1-0.4,0.1-0.6,0.1c0.5,0.8,1.1,1.6,1.6,2.1c0,0,0.1,0.1,0,0.2c0,0.1-0.1,0.1-0.2,0c-0.5-0.3-0.9-0.7-1.3-1
				c0,0.1,0,0.2,0,0.3c0,0,0,0,0,0c0,0.4,0.1,0.8,0.3,0.9c0.1,0,0.1,0.1,0,0.2s-0.1,0.1-0.2,0c-0.2-0.1-0.3-0.5-0.4-0.8
				c-0.1,0-0.1,0.1-0.1,0.1c-0.1,0.2-0.1,0.4-0.1,0.6c0,0.1,0,0.1-0.1,0.1c-0.1,0-0.1,0-0.1-0.1c0-0.2,0-0.4,0.1-0.6
				c0,0-0.1,0-0.1,0c-0.1,0-0.2,0.1-0.3,0.1c0,0.1,0.1,0.3,0.1,0.5c0,0.1-0.1,0.1-0.1,0.1s-0.1-0.1-0.1-0.1c0-0.2,0-0.4-0.1-0.5
				c0,0,0,0,0,0c0,0,0,0,0,0l0,0c0,0,0,0,0-0.1c0-0.1,0-0.2,0-0.3c-0.1,0.1-0.1,0.2-0.1,0.2c0,0,0,0.1,0,0.1c0,0.1,0,0.3,0.1,0.4
				c0,0.1,0,0.1-0.1,0.2c-0.1,0-0.1,0-0.2-0.1c-0.1-0.1-0.1-0.3-0.1-0.5c0,0,0-0.1,0-0.1c-0.3-0.2-0.4-0.4-0.4-0.6
				c-0.3,0-0.4-0.2-0.4-0.4c0-0.1,0-0.1,0.1-0.1c0.1,0,0.1,0,0.1,0.1c0,0.1,0,0.2,0.2,0.2c0-0.2,0.1-0.3,0.1-0.4
				c0-0.1,0.1-0.1,0.2-0.1c0.1,0,0.1,0.1,0.1,0.2c-0.1,0.4-0.1,0.7,0.2,0.9c0-0.1,0.1-0.2,0.2-0.4c0,0,0,0,0-0.1
				c0-0.1,0-0.1,0.1-0.2c0.1,0,0.1,0,0.2,0.1c0,0,0,0.1,0,0.1c0,0,0,0,0,0c0,0.1,0.1,0.3,0.1,0.4c0.1,0,0.1-0.1,0.2-0.1
				c0-0.1,0-0.2,0-0.2c0,0,0-0.1,0-0.1c0-0.1,0-0.2,0-0.2c0,0-0.1,0-0.1,0c-0.1-0.1-0.2-0.2-0.2-0.4c0-0.1,0-0.1,0.1-0.1
				c0.1,0,0.1,0,0.1,0.1c0,0.1,0,0.2,0.1,0.2c0,0,0,0,0,0c0-0.1,0.1-0.3,0.2-0.4c-0.6-0.8-1-1.7-1.2-2.4c-0.1,0-0.2,0.1-0.2,0.2
				c-0.1,0.1-0.3,0.2-0.5,0.2c-0.1,0-0.1-0.1-0.1-0.2c0-0.1,0.1-0.1,0.2-0.1c0,0,0.2-0.1,0.2-0.1c0.1-0.1,0.2-0.2,0.3-0.2
				c-0.1-0.2-0.1-0.4-0.2-0.6c0-0.1-0.1-0.2-0.1-0.3c0-0.1,0-0.1,0.1-0.1c0.1,0,0.1,0,0.2,0.1c0.2,0.4,0.5,1,0.9,1.7
				c0.4,0,0.7-0.3,0.8-0.4c-0.1-0.2-0.2-0.4-0.2-0.6c-0.1,0-0.2,0-0.3,0c-0.3-0.1-0.5-0.4-0.7-0.7c0,0,0,0,0,0
				c-0.2,0-0.5-0.1-0.8-0.5c0,0,0-0.1,0-0.2c0.1,0,0.1,0,0.2,0c0.3,0.3,0.5,0.4,0.7,0.4c0.1,0,0.2-0.1,0.4-0.2c0,0-0.1-0.1-0.1-0.1
				c-0.1,0-0.1-0.1,0-0.2c0-0.1,0.1-0.1,0.2,0c0.2,0.2,0.4,0.3,0.6,0.2c0.1,0,0.3-0.2,0.4-0.4c-0.1-0.1-0.2-0.3-0.2-0.4
				c-0.3,0.4-0.6,0.4-0.8,0.4c-0.4-0.1-0.7-0.5-0.8-0.9c0-0.1,0-0.1,0.1-0.2c0.1,0,0.1,0,0.2,0.1c0.1,0.3,0.3,0.7,0.6,0.7
				c0.2,0,0.3,0,0.5-0.2c-0.2-0.2-0.3-0.4-0.4-0.6c0-0.1,0-0.1,0-0.2c-0.2,0-0.3-0.1-0.4-0.2c-0.2-0.2-0.3-0.4-0.2-0.7
				c0-0.1,0.1-0.1,0.1-0.1c0.1,0,0.1,0.1,0.1,0.1c0,0.2,0,0.3,0.2,0.4c0.1,0.1,0.2,0.1,0.3,0.1c0-0.1,0.1-0.3,0.2-0.4
				c0-0.1,0.1-0.1,0.2,0c0.1,0,0.1,0.1,0,0.2c-0.1,0.1-0.1,0.2-0.2,0.4c0,0,0,0,0,0c0,0.1,0,0.1,0,0.2c0,0.2,0.1,0.3,0.3,0.5
				c0.3-0.1,0.5-0.5,0.3-1.1c0,0,0,0,0,0c0,0,0,0,0,0c0-0.1,0-0.1,0.1-0.2c0.1,0,0.1,0,0.2,0.1c0,0,0,0,0,0c0.1,0.1,0.3,0.2,0.5,0.2
				c0.2-0.1,0.3-0.3,0.4-0.6c0-0.1,0.1-0.1,0.1-0.1c0.1,0,0.1,0.1,0.1,0.1c0,0.1,0,0.1,0,0.2c0.3,0.3,0.5,0.6,0.5,0.9
				c0.2,0.5,0.6,1.6,0.6,2.1c0.3,0.6,0.4,1.2,0.4,1.6c0.3,0.4,0.4,1.2,0.3,1.6c0.4,0.3,0.8,0.8,0.9,1.2c0,0.1,0,0.1-0.1,0.1
				c-0.1,0-0.1,0-0.1-0.1c0-0.3-0.6-0.9-1-1.3c-0.4-0.3-0.7-0.7-0.8-1c0,0,0,0,0,0c0,0-0.1,0.1-0.1,0.1c0,0.4,0.5,0.9,0.8,1.3
				c0.3,0.3,1.3,1.3,1.4,1.8c0,0.1,0,0.1-0.1,0.1c-0.1,0-0.1,0-0.1-0.1c0-0.3-0.9-1.2-1.3-1.6c-0.2-0.2-0.6-0.6-0.8-0.9
				c0,0.8,0.5,1.5,0.9,1.8c0.7,0.6,1.4,1.4,1.5,2.4c0,0.1,0,0.1-0.1,0.1c-0.1,0-0.1,0-0.1-0.1c0-0.8-0.8-1.6-1.4-2.2
				c-0.5-0.4-1-1.3-0.9-2.3c-0.2,0.1-0.3,0.1-0.4,0.1c-0.1,0-0.2-0.1-0.3-0.1c0,0.6,0.4,1.9,1.1,2.6l0,0c0.7,0.7,1.8,1.6,2.2,2.7
				C-228.1,403.1-228.2,403.2-228.3,403.2C-228.2,403.2-228.2,403.2-228.3,403.2z M-232.8,399.6c0,0.1,0,0.3,0,0.4c0,0,0,0.1,0,0.1
				c0,0.1,0,0.2,0.1,0.3c0,0,0,0,0,0c0,0,0,0,0,0c0.1,0,0.1-0.1,0.2-0.2c0-0.2,0-0.3,0.1-0.5c-0.1-0.1-0.2-0.3-0.3-0.4
				C-232.8,399.4-232.8,399.5-232.8,399.6C-232.8,399.6-232.8,399.6-232.8,399.6z M-232.2,399.6c0.2,0.2,0.3,0.3,0.5,0.5
				c-0.4-0.5-0.7-1-1.1-1.6c0,0,0,0,0,0c-0.3-0.4-0.5-0.8-0.7-1.2c0,0,0,0,0,0c-0.2-0.3-0.3-0.5-0.4-0.8c0.2,0.8,0.5,1.6,1.2,2.5
				c0,0,0,0,0,0C-232.5,399.2-232.4,399.4-232.2,399.6C-232.2,399.6-232.2,399.6-232.2,399.6z M-232.5,398.3c0.2,0.1,0.5,0.1,0.6,0
				c0.1-0.1,0.2-0.3,0.2-0.5c0,0,0,0,0,0c0,0,0,0,0,0c0-0.1,0-0.2,0-0.2c0,0,0,0-0.1-0.1c-0.2,0.2-0.4,0.3-0.6,0.3
				c-0.2,0-0.5-0.1-0.6-0.2c0,0,0-0.1,0-0.2s0.1,0,0.2,0c0.1,0.1,0.3,0.2,0.4,0.1c0.1,0,0.3-0.1,0.5-0.3c-0.1,0-0.2-0.1-0.3-0.2
				c0,0-0.1-0.1-0.1-0.2c-0.2,0.2-0.5,0.4-0.8,0.4C-233,397.6-232.7,398-232.5,398.3z M-230,397.4c0,0.2,0.3,0.6,0.7,0.8
				c0,0,0,0,0.1,0c0-0.3-0.1-0.8-0.2-1.2C-229.7,397.3-229.9,397.4-230,397.4z M-231.6,397.2c0.1,0.3,0.3,0.4,0.5,0.4
				c0.2,0,0.3-0.1,0.5-0.2c0,0,0,0,0,0c0,0,0.1-0.1,0.1-0.1c0,0,0,0,0,0c-0.1-0.1-0.1-0.4-0.1-0.7c-0.2,0-0.4,0-0.6,0
				c0,0.2,0,0.3-0.1,0.4C-231.4,397.1-231.5,397.2-231.6,397.2z M-230.3,397.2C-230.2,397.2-230.2,397.2-230.3,397.2
				C-230.2,397.2-230.2,397.2-230.3,397.2c0.2,0,0.4-0.1,0.6-0.3c0-0.4-0.1-0.9-0.3-1.4c-0.1,0.1-0.3,0.2-0.4,0.2
				c-0.1,0-0.2,0-0.3-0.1c0,0,0,0,0,0c-0.3,0.1-0.5,0-0.7-0.2c0,0,0,0.1-0.1,0.1c0.1,0.3,0.2,0.5,0.2,0.8c0.1,0,0.4,0.1,0.6,0
				c0-0.1,0-0.3,0.1-0.4c0-0.1,0.1-0.1,0.1-0.1c0.1,0,0.1,0.1,0.1,0.1C-230.5,396.5-230.4,397-230.3,397.2
				C-230.3,397.2-230.3,397.2-230.3,397.2C-230.3,397.2-230.3,397.2-230.3,397.2z M-231.8,397C-231.8,397-231.7,397-231.8,397
				c0.1,0,0.1,0,0.2-0.1c0-0.1,0.1-0.3,0.1-0.5c0,0,0,0,0,0c0-0.2-0.1-0.5-0.2-0.7c0,0-0.1,0-0.1,0c-0.2,0.1-0.4,0.1-0.6,0
				c0,0.1,0,0.1-0.1,0.1c0,0.3,0.2,0.8,0.4,1C-232,396.9-231.9,397-231.8,397C-231.8,397-231.8,397-231.8,397z M-233.5,395.2
				c0.2,0.3,0.4,0.5,0.6,0.6c0.1,0,0.1,0,0.2,0c0,0,0.1-0.1,0.1-0.1c0,0,0-0.1,0-0.1c0,0,0,0,0,0c0-0.1,0-0.3-0.1-0.5
				c-0.2,0-0.3,0-0.5-0.1C-233.2,395.1-233.4,395.2-233.5,395.2z M-232.4,395.5c0.1,0,0.3,0.1,0.5,0c0.1,0,0.1,0,0.1-0.1
				c0,0,0,0,0,0c0.1,0,0.1-0.1,0.1-0.2c0,0,0-0.1,0.1-0.1c0,0,0.1,0,0.1,0c0.4,0.3,0.6,0.3,0.7,0.2c0-0.2,0-0.7-0.1-0.9
				c-0.2,0-0.3,0-0.5,0c0,0.1-0.1,0.1-0.1,0.1c-0.1,0.1-0.2,0.2-0.4,0.2c-0.1,0-0.2-0.1-0.3-0.1c-0.1,0.1-0.2,0.3-0.3,0.3
				C-232.4,395.1-232.3,395.3-232.4,395.5z M-230.5,395.5C-230.5,395.5-230.5,395.5-230.5,395.5
				C-230.5,395.5-230.5,395.5-230.5,395.5c0.2,0,0.4-0.1,0.5-0.2c0-0.3-0.2-0.8-0.3-1.3c-0.1,0.1-0.1,0.2-0.2,0.3c0,0,0,0-0.1,0.1
				c0.1,0.3,0.1,0.8,0.1,1C-230.5,395.3-230.5,395.4-230.5,395.5C-230.5,395.4-230.5,395.5-230.5,395.5z M-232.1,394.3
				c0.1,0.1,0.2,0.1,0.3,0.1c0.1,0,0.1,0,0.2-0.1c0,0,0.1-0.1,0.1-0.1c0,0,0-0.1,0-0.1c0,0,0,0,0,0c0.1-0.3,0-0.7-0.1-1.1
				c-0.1,0-0.3,0-0.4-0.1c0,0.4-0.1,0.7-0.3,0.9C-232.3,394-232.2,394.2-232.1,394.3C-232.1,394.3-232.1,394.3-232.1,394.3z
				 M-231.3,394.1c0.1,0.1,0.3,0.1,0.4,0c0,0,0,0,0,0c0,0,0.1,0,0.1-0.1c0.2-0.2,0.2-0.4,0.1-0.8c0,0,0,0,0,0c0,0,0,0,0,0
				c-0.1-0.2-0.2-0.4-0.4-0.6c-0.1,0.2-0.2,0.3-0.3,0.3C-231.2,393.2-231.2,393.7-231.3,394.1z M-234.6,398.4c0,0-0.1,0-0.1-0.1
				c0-0.1,0-0.1,0-0.2c0.3-0.2,0.6-0.3,0.9-0.2c0.1,0,0.1,0.1,0.1,0.2c0,0.1-0.1,0.1-0.2,0.1C-234,398.1-234.3,398.2-234.6,398.4
				C-234.5,398.4-234.5,398.4-234.6,398.4z M-235.7,396.4c-0.1,0-0.1,0-0.1-0.1c0-0.1,0-0.1,0.1-0.1c0.1,0,0.2-0.1,0.4-0.2
				c0.2-0.1,0.4-0.3,0.7-0.2c0.1,0,0.1,0.1,0.1,0.2c0,0.1-0.1,0.1-0.2,0.1c-0.1,0-0.3,0-0.4,0.1
				C-235.4,396.3-235.5,396.3-235.7,396.4C-235.7,396.4-235.7,396.4-235.7,396.4z M-235.9,395.6c-0.1,0-0.1,0-0.1-0.1
				c0-0.1,0-0.1,0.1-0.1c0.1,0,0.4-0.1,0.5-0.2c0.1,0,0.1,0,0.2,0.1s0,0.1-0.1,0.2C-235.4,395.5-235.7,395.6-235.9,395.6
				C-235.9,395.6-235.9,395.6-235.9,395.6z M-236.1,394.8c-0.1,0-0.1,0-0.1-0.1c0-0.1,0-0.1,0.1-0.1c0.1,0,0.3-0.1,0.4-0.1
				c0.1-0.1,0.2,0,0.3,0l0,0c0.1,0,0.2,0,0.4-0.1c0.1,0,0.1,0,0.2,0c0,0.1,0,0.1,0,0.2c-0.3,0.2-0.6,0.2-0.7,0.1l0,0
				c0,0-0.1,0-0.1,0C-235.8,394.8-236.1,394.8-236.1,394.8C-236.1,394.8-236.1,394.8-236.1,394.8z M-235.1,393.8
				c-0.2,0-0.4,0-0.5-0.1c-0.2,0.1-0.4,0.1-0.5,0.1c-0.1,0-0.1-0.1-0.1-0.1s0.1-0.1,0.1-0.1c0.2,0,0.4,0,0.5-0.1c0,0,0.1,0,0.1,0
				c0.1,0.1,0.5,0.1,0.6,0.1c0.1,0,0.1,0,0.2,0.1c0,0.1,0,0.1-0.1,0.2C-234.9,393.8-235,393.8-235.1,393.8z M-234.9,393
				c-0.2,0-0.4-0.1-0.5-0.1c-0.2,0-0.5,0.1-0.7,0.1c-0.1,0-0.1-0.1-0.1-0.1c0-0.1,0.1-0.1,0.1-0.1c0.1,0,0.5,0,0.6-0.1
				c0,0,0.1,0,0.1,0c0.2,0.1,0.4,0.1,0.5,0.1c0.1,0,0.1,0,0.2,0.1c0,0.1,0,0.1-0.1,0.2C-234.8,393-234.8,393-234.9,393z
				 M-234.1,392.4c-0.2,0-0.4-0.1-0.5-0.3c0,0-0.2,0-0.3-0.1c-0.1,0-0.2,0-0.3-0.1c0,0-0.1,0-0.1-0.1c-0.1-0.1-0.1-0.1-0.3-0.1
				c-0.1,0-0.1-0.1-0.1-0.1s0.1-0.1,0.1-0.1c0.2,0,0.3,0.1,0.4,0.2c0,0,0,0,0.1,0.1c0,0,0.1,0,0.2,0c0.2,0,0.3,0,0.4,0.1
				c0.1,0.2,0.3,0.2,0.3,0.2c0.1,0,0.1,0,0.1,0.1C-233.9,392.3-233.9,392.3-234.1,392.4C-234,392.3-234.1,392.4-234.1,392.4z
				 M-232.4,391.1c0,0-0.1,0-0.1,0c-0.1,0-0.1-0.1-0.1-0.1c0-0.1,0.1-0.1,0.1-0.1c0.2,0,0.5-0.1,0.6-0.2c0.1-0.1,0.4-0.5,0.9-0.4
				c0.1,0,0.1,0.1,0.1,0.1c0,0.1-0.1,0.1-0.1,0.1c-0.3,0-0.6,0.2-0.7,0.3C-231.8,390.9-232.1,391.1-232.4,391.1z M-234.2,390.9
				c-0.1,0-0.2,0-0.2,0c-0.1,0-0.1-0.1-0.1-0.2c0-0.1,0.1-0.1,0.2-0.1c0.2,0.1,0.6-0.1,0.7-0.2c0,0,0.1,0,0.1,0
				c0.4,0.1,1-0.1,1.2-0.3c0.1-0.2,0.2-0.2,0.4-0.3c0.1-0.1,0.3-0.1,0.4-0.3c0-0.1,0.1-0.1,0.2,0c0.1,0,0.1,0.1,0,0.2
				c-0.2,0.3-0.4,0.3-0.5,0.4c-0.1,0.1-0.2,0.1-0.3,0.2c-0.2,0.3-0.9,0.5-1.4,0.4C-233.7,390.7-234,390.9-234.2,390.9z M-234.1,390
				c0,0-0.1,0-0.1,0c-0.1,0-0.1-0.1-0.1-0.2s0.1-0.1,0.2-0.1c0,0,0.1,0,0.2-0.1c0-0.1,0.1-0.1,0.2,0c0.1,0,0.1,0.1,0,0.2
				C-233.8,390-234,390-234.1,390z M-233.1,389.8c0,0-0.1,0-0.1-0.1c0-0.1,0-0.1,0.1-0.2c0.2-0.1,0.4-0.3,0.4-0.4c0,0,0-0.1,0.1-0.1
				c0.1,0,0.3-0.1,0.6-0.5c0-0.1,0.1-0.1,0.2,0c0.1,0,0.1,0.1,0,0.2c-0.3,0.4-0.5,0.5-0.6,0.6C-232.6,389.5-232.8,389.7-233.1,389.8
				C-233.1,389.8-233.1,389.8-233.1,389.8z M-233.2,389c0,0-0.1,0-0.1,0c-0.1,0-0.1-0.1-0.1-0.2c0-0.1,0.1-0.1,0.2-0.1c0,0,0,0,0,0
				c0,0,0,0,0-0.1c0-0.1,0.1-0.1,0.2-0.1c0.1,0,0.1,0.1,0.1,0.2C-232.9,388.9-233,389-233.2,389C-233.1,389-233.1,389-233.2,389z
				 M-232.4,388.9C-232.4,388.9-232.4,388.9-232.4,388.9L-232.4,388.9c-0.1,0-0.2,0-0.2,0c-0.1,0-0.1,0-0.2,0c0-0.1,0-0.1,0-0.2
				c0.1-0.1,0.2,0,0.4,0l0,0c0.1,0,0.1,0.1,0.1,0.2C-232.3,388.8-232.4,388.9-232.4,388.9z"/>
		</g>
		<g>
			<path d="M-236.8,401.3c0.1,0,0.3-0.1,0.4-0.1c0,0.2,0,0.3-0.1,0.3C-236.7,401.6-236.7,401.5-236.8,401.3L-236.8,401.3z"/>
		</g>
		<g>
			<path d="M-236.6,401.7c-0.2,0-0.2-0.1-0.3-0.2l0-0.1c0,0,0-0.1,0-0.1c0,0,0-0.1,0.1-0.1c0.1,0,0.3-0.1,0.4-0.1l0,0
				c0,0,0.1,0,0.1,0c0,0,0,0.1,0,0.1c0,0,0,0.1,0,0.1C-236.3,401.5-236.4,401.7-236.6,401.7C-236.6,401.7-236.6,401.7-236.6,401.7z"
				/>
		</g>
		<g>
			<path d="M-236,402.4c0.2,0,0,0-0.2-0.1c0,0-0.1,0.1-0.2,0.1c0-0.2,0-0.3,0.2-0.3C-235.9,402.1-236,402.2-236,402.4L-236,402.4z"
				/>
		</g>
		<g>
			<path d="M-236,402.6c0,0-0.1,0-0.3-0.1c-0.1,0-0.1,0-0.2,0c0,0-0.1,0-0.1,0s0-0.1,0-0.1c0,0,0-0.1,0-0.1c0-0.2,0.1-0.3,0.3-0.3
				c0.1,0,0.2,0,0.2,0.1c0.1,0.1,0.1,0.1,0,0.2c0,0,0,0.1,0,0.1c0,0,0.1,0,0.1,0.1C-235.8,402.5-235.8,402.5-236,402.6
				C-235.9,402.6-235.9,402.6-236,402.6z"/>
		</g>
	</g>
</g>
</svg>
