<?xml version="1.0" encoding="utf-8"?>
<!-- Generator: Adobe Illustrator 19.0.0, SVG Export Plug-In . SVG Version: 6.00 Build 0)  -->
<svg version="1.1" id="Layer_1" xmlns="http://www.w3.org/2000/svg" xmlns:xlink="http://www.w3.org/1999/xlink" x="0px" y="0px"
	 viewBox="-269 374 72 46" style="enable-background:new -269 374 72 46;" xml:space="preserve">
<style type="text/css">
	.st0{clip-path:url(#SVGID_2_);}
	.st1{fill:#E40520;}
	.st2{fill:#005497;}
	.st3{fill:#FFFFFF;}
	.st4{fill:none;stroke:#000000;stroke-width:3.100000e-002;}
	.st5{fill:#FFD139;}
	.st6{fill:#9B6527;}
	.st7{fill:none;}
	.st8{fill:#5F9322;}
</style>
<g>
	<defs>
		<path id="SVGID_1_" d="M-204,420H-262c-3.8,0-7-3.1-7-7V381c0-3.8,3.1-7,7-7h58.1c3.8,0,7,3.1,7,7V413
			C-197,416.9-200.1,420-204,420z"/>
	</defs>
	<clipPath id="SVGID_2_">
		<use xlink:href="#SVGID_1_"  style="overflow:visible;"/>
	</clipPath>
	<g class="st0">
		<g>
			<polygon class="st1" points="-232.9,396.5 -232.9,372.2 -194.1,372.2 -194.1,396.5 			"/>
		</g>
		<g>
			<path d="M-194,396.6H-233v-24.5h39.1V396.6z M-232.8,396.4h38.6v-24h-38.6V396.4z"/>
		</g>
		<g>
			<polygon class="st1" points="-232.9,396.5 -232.9,420.8 -271.8,420.8 -271.8,396.5 			"/>
		</g>
		<g>
			<path d="M-232.8,420.9h-39.1v-24.5h39.1V420.9z M-271.6,420.7h38.6v-24h-38.6V420.7z"/>
		</g>
		<g>
			<polygon class="st2" points="-232.9,396.5 -232.9,372.2 -271.8,372.2 -271.8,396.5 			"/>
		</g>
		<g>
			<path d="M-232.8,396.6h-39.1v-24.5h39.1V396.6z M-271.6,396.4h38.6v-24h-38.6V396.4z"/>
		</g>
		<g>
			<polygon class="st2" points="-232.9,396.5 -232.9,420.8 -194.1,420.8 -194.1,396.5 			"/>
		</g>
		<g>
			<path d="M-194,420.9H-233v-24.5h39.1V420.9z M-232.8,420.7h38.6v-24h-38.6V420.7z"/>
		</g>
		<g>
			<polygon class="st3" points="-228.1,420.8 -228.1,401.4 -194.1,401.4 -194.1,391.7 -228.1,391.7 -228.1,372.2 -237.8,372.2 
				-237.8,391.7 -271.8,391.7 -271.8,401.4 -237.8,401.4 -237.8,420.8 			"/>
		</g>
		<g>
			<path d="M-227.9,420.9h-10v-19.4h-34v-10h34v-19.4h10v19.4h34v10h-34V420.9z M-237.7,420.7h9.5v-19.4h34v-9.5h-34v-19.4h-9.5
				v19.4h-34v9.5h34V420.7z"/>
		</g>
		<g>
			<path class="st2" d="M-232.9,392.9h-3l0.5,0.5c0,0.8,0,1.8,0,2.6h2.5V392.9L-232.9,392.9z"/>
		</g>
		<g>
			<path d="M-232.9,396.1h-2.5v-2.6l-0.6-0.5h3.1V396.1z M-235.4,396.1h2.5V393h-3l0.5,0.5V396.1z"/>
		</g>
		<g>
			<path class="st2" d="M-232.9,399.2c0.4-0.4,0.7-0.4,1.8-0.4c0.6,0,0.7-0.4,0.7-1.2c0-0.3,0-0.8,0-1.5h-2.5V399.2L-232.9,399.2z"
				/>
		</g>
		<g>
			<path d="M-232.9,399.2v-3.1h2.5v1.5c0,0.7,0,1.2-0.7,1.2h-0.1c0,0-0.1,0-0.1,0C-232.3,398.8-232.5,398.8-232.9,399.2
				L-232.9,399.2z M-232.9,396.1v3c0.4-0.4,0.6-0.4,1.5-0.4c0,0,0.1,0,0.1,0h0.1c0.6,0,0.7-0.4,0.7-1.2v-1.4H-232.9z"/>
		</g>
		<g>
			<path class="st1" d="M-232.9,399.2c-0.4-0.4-0.7-0.4-1.8-0.4c-0.6,0-0.7-0.4-0.7-1.2c0-0.3,0-0.8,0-1.5h2.5L-232.9,399.2
				L-232.9,399.2z"/>
		</g>
		<g>
			<path d="M-232.9,399.2L-232.9,399.2c-0.4-0.4-0.7-0.4-1.6-0.4c0,0-0.1,0-0.1,0h-0.1c-0.6,0-0.7-0.5-0.7-1.2v-1.5h2.5V399.2z
				 M-234.5,398.7c0.9,0,1.2,0,1.5,0.4v-3h-2.5v1.4c0,0.8,0.1,1.2,0.7,1.2h0.1C-234.6,398.7-234.5,398.7-234.5,398.7z"/>
		</g>
		<g>
			<path class="st1" d="M-232.9,392.9h3l-0.5,0.5c0,0.8,0,1.8,0,2.6h-2.5V392.9L-232.9,392.9z"/>
		</g>
		<g>
			<path d="M-230.4,396.1h-2.5v-3.2h3.1l0,0l-0.5,0.5V396.1z M-232.9,396.1h2.5v-2.6l0,0l0.5-0.5h-3V396.1z"/>
		</g>
		<g>
			<path class="st3" d="M-232.5,398.8v-5.9h-0.9v5.9c0.1,0.1,0.3,0.2,0.4,0.3C-232.8,399-232.6,398.9-232.5,398.8L-232.5,398.8z"/>
		</g>
		<g>
			<path d="M-232.9,399.2L-232.9,399.2c-0.1-0.2-0.3-0.3-0.4-0.3l0,0v-5.9h0.9v5.9l0,0C-232.6,398.9-232.8,399-232.9,399.2
				L-232.9,399.2z M-233.3,398.8c0.1,0.1,0.3,0.2,0.4,0.3c0.1-0.1,0.3-0.3,0.4-0.3V393h-0.8V398.8z"/>
		</g>
		<g>
			<polygon class="st3" points="-235.4,396.5 -230.4,396.5 -230.4,395.6 -235.4,395.6 			"/>
		</g>
		<g>
			<path d="M-230.4,396.5h-5v-0.9h5V396.5z M-235.4,396.5h5v-0.8h-5V396.5z"/>
		</g>
		<g>
			<path class="st3" d="M-232.9,396.1"/>
		</g>
		<g>
			<path class="st4" d="M-232.9,396.1"/>
		</g>
		<g>
			<path class="st2" d="M-232.9,395.5l1.6-1.7v0.5l0.3-0.3c0,0.6,0,2.3,0,2.9c0,1.1-1.7,1-1.9,0.5c-0.2,0.5-1.9,0.6-1.9-0.5
				c0-0.6,0-2.3,0-2.9l0.3,0.3v-0.5L-232.9,395.5L-232.9,395.5z"/>
		</g>
		<g>
			<path d="M-233.8,397.8c-0.1,0-0.2,0-0.3,0c-0.5-0.1-0.7-0.4-0.7-0.8v-3l0.3,0.3v-0.5l0,0l1.6,1.7l1.7-1.8v0.5l0.3-0.3v3
				c0,0.4-0.3,0.7-0.7,0.8c-0.5,0.1-1.1,0-1.2-0.3C-233,397.7-233.4,397.8-233.8,397.8z M-234.8,394v2.9c0,0.6,0.4,0.7,0.7,0.8
				c0.5,0.1,1.1,0,1.2-0.3l0,0l0,0c0.1,0.3,0.7,0.4,1.2,0.3c0.3-0.1,0.7-0.2,0.7-0.8V394l-0.3,0.3v-0.5l-1.6,1.7l0,0l-1.6-1.7v0.5
				L-234.8,394z"/>
		</g>
		<g>
			<path class="st3" d="M-232.9,397.4c-0.8,0.4-1.3,0.1-1.3-0.3c0-0.1,0-0.4,0-0.5c-0.3,0-0.6-0.2-0.6-0.3v-0.4
				c0,0.1,0.5,0.2,0.6,0.2c0-0.3,0-1.2,0-1.5l0.3,0.2l0-0.4l0.4,0.4v0.3l-0.3-0.2c0,0.4,0,1.1,0,1.3c0.3,0,0.5,0.2,0.9,0.2
				c0.3,0,0.6-0.2,0.9-0.2c0-0.2,0-0.9,0-1.3l-0.3,0.2v-0.3l0.4-0.4l0,0.4l0.3-0.2c0,0.3,0,1.3,0,1.5c0.1,0,0.6-0.1,0.6-0.2v0.4
				c0,0.1-0.3,0.3-0.6,0.3c0,0.1,0,0.4,0,0.5C-231.6,397.5-232.1,397.8-232.9,397.4v-0.4c0.4,0.2,0.9,0.3,0.9,0c0-0.1,0-0.2,0-0.3
				c-0.3,0-0.5,0.2-0.9,0.2c-0.3,0-0.6-0.2-0.9-0.2c0,0.2,0,0.2,0,0.3c0,0.3,0.4,0.2,0.9,0V397.4L-232.9,397.4z"/>
		</g>
		<g>
			<path d="M-233.6,397.6c-0.1,0-0.3,0-0.4-0.1c-0.2-0.1-0.3-0.3-0.3-0.4v-0.5c-0.3,0-0.6-0.2-0.6-0.3v-0.4h0c0,0.1,0.4,0.2,0.6,0.2
				v-1.5l0.3,0.2v-0.4l0.5,0.5v0.3l-0.3-0.2v1.2c0.1,0,0.3,0,0.4,0.1c0.1,0,0.3,0.1,0.5,0.1s0.3,0,0.5-0.1c0.1,0,0.3-0.1,0.4-0.1
				V395l-0.3,0.2v-0.3l0,0l0.5-0.5v0.4l0.3-0.2v1.5c0.2,0,0.6-0.1,0.6-0.2h0v0.4c0,0.1-0.4,0.3-0.6,0.3v0.5c0,0.2-0.1,0.3-0.3,0.4
				c-0.3,0.2-0.6,0.1-1.1-0.1C-233.2,397.5-233.4,397.6-233.6,397.6z M-234.8,395.9v0.4c0,0.1,0.3,0.2,0.6,0.2h0v0.5
				c0,0.2,0.1,0.3,0.2,0.4c0.3,0.2,0.6,0.1,1-0.1v-0.4c-0.3,0.2-0.6,0.2-0.8,0.2c-0.1,0-0.1-0.1-0.1-0.2v-0.3h0c0.1,0,0.3,0,0.4,0.1
				c0.1,0,0.3,0.1,0.5,0.1s0.3,0,0.5-0.1c0.1,0,0.3-0.1,0.4-0.1h0v0.3c0,0.1,0,0.1-0.1,0.2c-0.1,0.1-0.5,0-0.8-0.2v0.4
				c0.4,0.2,0.8,0.2,1,0.1c0.2-0.1,0.2-0.2,0.2-0.4v-0.5h0c0.3,0,0.6-0.2,0.6-0.2v-0.4c-0.1,0.1-0.5,0.2-0.6,0.2h0v-1.5l-0.3,0.2
				v-0.4l-0.4,0.4v0.3l0.3-0.2v1.3h0c-0.1,0-0.3,0-0.4,0.1c-0.1,0-0.3,0.1-0.5,0.1s-0.3,0-0.5-0.1c-0.1,0-0.3-0.1-0.4-0.1h0v-1.3
				l0.3,0.2v-0.3l-0.4-0.4v0.4l-0.3-0.2v1.5h0C-234.3,396.1-234.7,396-234.8,395.9z M-233.8,396.7v0.3c0,0.1,0,0.1,0.1,0.1
				c0.1,0.1,0.4,0,0.8-0.2v0l0,0l0,0v0c0.3,0.2,0.6,0.3,0.8,0.2c0,0,0.1-0.1,0.1-0.1v-0.3c-0.1,0-0.3,0-0.4,0.1
				c-0.1,0-0.3,0.1-0.5,0.1s-0.3,0-0.5-0.1C-233.5,396.7-233.6,396.7-233.8,396.7z"/>
		</g>
		<g>
			<path class="st1" d="M-232.3,394.9v0.3l0.3-0.2c0,0.4,0,1.1,0,1.3c-0.3,0-0.5,0.2-0.9,0.2c-0.3,0-0.6-0.2-0.9-0.2
				c0-0.2,0-0.9,0-1.3l0.3,0.2v-0.3l0.6,0.6L-232.3,394.9L-232.3,394.9z"/>
		</g>
		<g>
			<path d="M-232.9,396.4c-0.2,0-0.3,0-0.5-0.1c-0.1,0-0.3-0.1-0.4-0.1h0v-1.3l0.3,0.2v-0.3l0,0l0.6,0.6l0.6-0.6v0.3l0.3-0.2v1.3h0
				c-0.1,0-0.3,0-0.4,0.1C-232.6,396.4-232.7,396.4-232.9,396.4z M-233.8,396.2c0.1,0,0.3,0,0.4,0.1c0.1,0,0.3,0.1,0.5,0.1
				s0.3,0,0.5-0.1c0.1,0,0.3-0.1,0.4-0.1V395l-0.3,0.2v-0.3l-0.6,0.6l0,0l-0.6-0.6v0.3l-0.3-0.2V396.2z"/>
		</g>
		<g>
			<path class="st1" d="M-234.9,396.3c0,0.3,0,0.5,0,0.6c0,1.1,1.7,1,1.9,0.5c0.2,0.5,1.9,0.6,1.9-0.5c0-0.2,0-0.4,0-0.6
				c0,0.1-0.3,0.3-0.6,0.3c0,0.1,0,0.4,0,0.5c0,0.4-0.5,0.7-1.3,0.3c-0.8,0.4-1.3,0.1-1.3-0.3c0-0.1,0-0.4,0-0.5
				C-234.5,396.5-234.9,396.4-234.9,396.3L-234.9,396.3z"/>
		</g>
		<g>
			<path d="M-233.8,397.8c-0.1,0-0.2,0-0.3,0c-0.5-0.1-0.7-0.4-0.7-0.8v-0.6h0c0,0.1,0.3,0.2,0.6,0.2h0v0.5c0,0.2,0.1,0.3,0.2,0.4
				c0.3,0.2,0.6,0.1,1-0.1l0,0l0,0c0.4,0.2,0.8,0.3,1,0.1c0.2-0.1,0.2-0.2,0.2-0.4v-0.5h0c0.3,0,0.6-0.2,0.6-0.2h0v0.6
				c0,0.4-0.3,0.7-0.7,0.8c-0.5,0.1-1.1,0-1.2-0.3C-233,397.7-233.4,397.8-233.8,397.8z M-234.8,396.4v0.6c0,0.6,0.4,0.7,0.7,0.8
				c0.5,0.1,1.1,0,1.2-0.3l0,0c-0.4,0.2-0.8,0.3-1.1,0.1c-0.2-0.1-0.3-0.3-0.3-0.4v-0.5C-234.5,396.6-234.8,396.5-234.8,396.4z
				 M-232.9,397.4L-232.9,397.4c0.1,0.3,0.7,0.5,1.2,0.3c0.3-0.1,0.7-0.2,0.7-0.8v-0.6c-0.1,0.1-0.4,0.2-0.6,0.2v0.5
				c0,0.2-0.1,0.3-0.3,0.4C-232.1,397.6-232.5,397.6-232.9,397.4z"/>
		</g>
		<g>
			<path class="st2" d="M-232.3,391.9c0-0.1,0.1-0.2,0.1-0.3c-0.2,0-0.5,0-0.7,0c-0.3,0-0.5,0-0.7,0c0,0.1,0.1,0.2,0.1,0.3
				c0,0.1-0.1,0.2-0.5,0.2c-0.4,0-0.9,0-1.3,0.1c0.1,0.1,0.1,0.1,0.1,0.2c0,0.1-0.3,0.2-0.7,0.3c-0.4,0.1-0.6,0.5-0.7,1.1
				c-0.2-0.1-0.4-0.1-0.6-0.2c0.1-0.4,0.4-1.3,0.8-1.4c-0.1-0.2-0.1-0.3,0.3-0.5c0.4-0.2,1.1-0.3,1.9-0.3c0-0.2,0-0.3,0.2-0.4
				c0.2-0.1,0.5-0.2,1.2-0.2c0.6,0,1,0.1,1.2,0.2c0.2,0.1,0.3,0.2,0.2,0.4c0.8,0,1.5,0.1,1.9,0.3c0.4,0.2,0.4,0.3,0.3,0.5
				c0.4,0.1,0.7,1,0.8,1.4c-0.2,0-0.4,0.1-0.6,0.2c-0.1-0.6-0.3-1.1-0.7-1.1c-0.4-0.1-0.7-0.2-0.7-0.3c0-0.1,0-0.1,0.1-0.2
				c-0.5-0.1-1-0.1-1.3-0.1C-232.2,392.1-232.3,392-232.3,391.9L-232.3,391.9z"/>
		</g>
		<g>
			<path d="M-229.1,393.8C-229.1,393.8-229.1,393.8-229.1,393.8C-229.1,393.8-229.1,393.8-229.1,393.8c-0.2-0.7-0.3-1.1-0.7-1.1
				c-0.3,0-0.7-0.1-0.7-0.3c0-0.1,0-0.1,0.1-0.2c0,0,0,0,0,0c-0.4-0.1-0.8-0.1-1.1-0.1c-0.1,0-0.2,0-0.2,0c0,0-0.1,0-0.1,0
				c-0.3,0-0.4-0.1-0.4-0.1c0,0,0-0.1,0-0.1c0,0,0,0,0,0c0-0.1,0-0.1,0.1-0.2l0-0.1c-0.2,0-0.5,0-0.7,0s-0.5,0-0.7,0l0,0.1
				c0,0.1,0,0.2,0.1,0.2c0,0,0,0.1,0,0.1c0,0-0.1,0.1-0.5,0.1c-0.4,0-0.9,0-1.3,0.1c0,0,0,0,0,0c0.1,0.1,0.1,0.1,0.1,0.2
				c0,0.2-0.4,0.2-0.7,0.3c-0.4,0.1-0.6,0.4-0.7,1.1c0,0,0,0,0,0c0,0,0,0,0,0c-0.2-0.1-0.4-0.1-0.6-0.2c0,0,0,0,0,0c0,0,0,0,0,0
				c0.1-0.3,0.4-1.3,0.8-1.4c-0.1-0.2-0.1-0.3,0.3-0.5c0.4-0.2,1.1-0.3,1.9-0.3c0-0.2,0-0.3,0.3-0.4c0.3-0.1,0.6-0.2,1.2-0.2
				c0.5,0,0.9,0.1,1.2,0.2c0.2,0.1,0.3,0.2,0.3,0.4c0.8,0,1.5,0.2,1.9,0.3c0.4,0.2,0.4,0.3,0.3,0.5c0.4,0.1,0.7,1.1,0.8,1.4
				c0,0,0,0,0,0c0,0,0,0,0,0C-228.7,393.7-228.9,393.7-229.1,393.8C-229.1,393.8-229.1,393.8-229.1,393.8z M-237.3,393.6
				c0.2,0,0.4,0.1,0.6,0.2c0.2-0.7,0.3-1.1,0.7-1.1c0.5-0.1,0.7-0.2,0.7-0.2c0-0.1,0-0.1-0.1-0.2c0,0,0,0,0,0c0,0,0,0,0,0
				c0,0,0,0,0,0c0.4-0.1,1-0.1,1.4-0.1c0.4,0,0.5-0.1,0.5-0.1c0,0,0,0,0,0c0-0.1,0-0.1-0.1-0.2l0-0.1c0,0,0,0,0,0c0,0,0,0,0,0
				c0.2,0,0.5,0,0.7,0s0.5,0,0.7,0c0,0,0,0,0,0c0,0,0,0,0,0l0,0.1c0,0.1,0,0.2-0.1,0.2c0,0,0,0,0,0c0,0,0.1,0.1,0.4,0.1
				c0,0,0.1,0,0.1,0c0.4,0,0.9,0,1.4,0.1c0,0,0,0,0,0c0,0,0,0,0,0c0,0,0,0,0,0c-0.1,0.1-0.1,0.1-0.1,0.2c0,0.1,0.2,0.2,0.7,0.2
				c0.4,0.1,0.6,0.5,0.7,1.1c0.2-0.1,0.4-0.1,0.6-0.2c-0.1-0.4-0.4-1.3-0.8-1.4c0,0,0,0,0,0c0,0,0,0,0,0c0.1-0.2,0.1-0.3-0.3-0.5
				c-0.4-0.2-1.1-0.3-1.9-0.3c0,0,0,0,0,0s0,0,0,0c0-0.2,0-0.2-0.2-0.3c-0.2-0.1-0.6-0.2-1.2-0.2c-0.5,0-0.9,0-1.2,0.2
				c-0.2,0.1-0.3,0.2-0.2,0.3c0,0,0,0,0,0c0,0,0,0,0,0c-0.8,0-1.5,0.2-1.9,0.3c-0.4,0.2-0.4,0.3-0.3,0.5c0,0,0,0,0,0c0,0,0,0,0,0
				C-236.9,392.3-237.2,393.2-237.3,393.6z"/>
		</g>
		<g>
			<path class="st5" d="M-233.9,391l0,0.2l0.1,0L-233.9,391c0.1,0.1,0.1,0.1,0.1,0c0,0,0.1,0,0.1,0c0,0,0,0.1,0,0.1c0,0-0.1,0-0.1,0
				l0,0l-0.1,0l0,0.3l0.1,0l0-0.1c0,0,0,0,0.1,0c0.1,0,0.1-0.1,0.1-0.2c0-0.1-0.1-0.1-0.1-0.1C-233.8,391-233.9,391-233.9,391
				L-233.9,391z"/>
		</g>
		<g>
			<polygon class="st5" points="-233.3,391.3 -233.3,391.4 -233.2,391.4 -233.4,391 -233.5,391 -233.5,391.4 -233.5,391.4 
				-233.5,391.3 -233.4,391.3 -233.4,391.3 -233.4,391.3 -233.4,391.1 -233.4,391.3 -233.4,391.3 -233.4,391.3 			"/>
		</g>
		<g>
			<polygon class="st5" points="-233.1,391.4 -233.1,391 -233,391 -233,391 -233.2,391 -233.2,391 -233.1,391 -233.1,391.4 			"/>
		</g>
		<g>
			<path class="st5" d="M-232.9,391l0,0.1l0.1,0L-232.9,391c0.1,0.1,0.1,0.1,0.2,0.1c0,0,0,0,0,0.1c0,0,0,0.1,0,0.1c0,0-0.1,0-0.1,0
				l0-0.1l-0.1,0l0,0.3l0.1,0l0-0.2c0,0,0,0,0.1,0c0,0,0.1,0,0.1,0.1c0,0.1,0,0.1,0,0.1l0.1,0c0,0,0-0.1,0-0.1c0-0.1,0-0.1,0-0.1
				c0,0,0.1,0,0.1-0.1c0-0.1,0-0.1-0.1-0.1C-232.7,391-232.9,391-232.9,391L-232.9,391z"/>
		</g>
		<g>
			<polygon class="st5" points="-232.5,391.4 -232.4,391 -232.5,391 -232.5,391.4 			"/>
		</g>
		<g>
			<polygon class="st5" points="-232.1,391.4 -232.1,391.4 -232.1,391.5 -232.1,391 -232.2,391 -232.4,391.4 -232.3,391.4 
				-232.3,391.3 -232.2,391.3 -232.2,391.3 -232.2,391.3 -232.2,391.1 -232.2,391.3 -232.2,391.3 -232.2,391.3 			"/>
		</g>
		<g>
			<path class="st5" d="M-236,391.7c0,0,0.1,0,0.1,0c0,0,0.1,0,0.2,0.2c0,0.1,0,0.2-0.1,0.2c-0.1,0-0.1,0-0.1,0l-0.1-0.2l0.1,0
				l0,0.1c0,0,0,0,0.1,0c0,0,0.1,0,0-0.2c0-0.1-0.1-0.1-0.1-0.1C-235.9,391.8-235.9,391.8-236,391.7l0.1,0.2l-0.1,0L-236,391.7
				L-236,391.7z"/>
		</g>
		<g>
			<polygon class="st5" points="-235.5,392 -235.6,391.6 -235.6,391.6 -235.6,392.1 			"/>
		</g>
		<g>
			<path class="st5" d="M-235.3,391.9c-0.1,0-0.1,0-0.1-0.1c0-0.1,0-0.2,0.1-0.2c0.1,0,0.1,0,0.1,0.1
				C-235.2,391.9-235.2,391.9-235.3,391.9L-235.3,391.9c0.1,0.1,0.2,0,0.1-0.2s-0.1-0.2-0.2-0.2c-0.1,0-0.2,0.1-0.1,0.2
				C-235.4,391.9-235.4,392-235.3,391.9L-235.3,391.9L-235.3,391.9z"/>
		</g>
		<g>
			<path class="st5" d="M-234.8,391.6c0-0.1-0.1-0.1-0.2-0.1c-0.1,0-0.1,0.1-0.1,0.1c0,0,0,0.1,0.1,0.1c0,0,0.1,0,0.1,0.1
				s0,0.1-0.1,0.1c0,0-0.1,0-0.1-0.1l-0.1,0c0,0.1,0.1,0.1,0.2,0.1c0.1,0,0.1-0.1,0.1-0.2c0-0.1-0.1-0.1-0.1-0.1c-0.1,0-0.1,0-0.1,0
				c0,0,0-0.1,0-0.1C-234.9,391.6-234.9,391.6-234.8,391.6L-234.8,391.6L-234.8,391.6z"/>
		</g>
		<g>
			<path class="st5" d="M-231.6,391.5v0.3h0.2v0.1h-0.2v-0.2C-231.6,391.7-231.6,391.6-231.6,391.5L-231.6,391.5z"/>
		</g>
		<g>
			<polygon class="st5" points="-231.3,391.9 -231.3,391.5 -231.3,391.5 -231.3,391.9 			"/>
		</g>
		<g>
			<path class="st5" d="M-231.2,391.9c0,0,0.1,0,0.2,0c0.1,0,0.1-0.1,0.1-0.1c0-0.1,0-0.1,0-0.1c0,0,0-0.1,0-0.1
				c0-0.1-0.1-0.1-0.1-0.1c-0.1,0-0.1,0-0.1,0l0,0.1l0.1,0l0,0c0,0,0.1,0,0.1,0c0,0,0,0,0,0c0,0,0,0,0,0c0,0-0.1,0-0.1,0l0,0l-0.1,0
				l0,0.2l0.1,0l0-0.1c0,0,0.1,0,0.1,0c0,0,0,0,0,0.1c0,0,0,0.1,0,0.1C-231.1,391.9-231.1,391.9-231.2,391.9l0.1-0.1l-0.1,0
				L-231.2,391.9L-231.2,391.9z"/>
		</g>
		<g>
			<polygon class="st5" points="-230.6,391.6 -230.9,391.6 -230.9,392 -230.6,392 -230.6,391.9 -230.8,391.9 -230.8,391.8 
				-230.6,391.8 -230.6,391.7 -230.8,391.7 -230.8,391.6 -230.6,391.6 			"/>
		</g>
		<g>
			<path class="st5" d="M-230.5,391.6l0,0.1l0.1,0L-230.5,391.6c0.1,0.1,0.1,0.1,0.2,0.1c0,0,0,0,0,0.1c0,0,0,0.1,0,0.1
				c0,0-0.1,0-0.1,0l0-0.1l-0.1,0l0,0.3l0.1,0l0-0.2c0,0,0,0,0.1,0c0,0,0.1,0,0,0.1c0,0,0,0.1,0,0.1l0.1,0c0,0,0-0.1,0-0.1
				c0-0.1,0-0.1,0-0.1c0,0,0.1,0,0.1-0.1c0-0.1,0-0.1-0.1-0.1C-230.4,391.6-230.5,391.6-230.5,391.6L-230.5,391.6z"/>
		</g>
		<g>
			<polygon class="st5" points="-230.2,392.1 -230.1,391.7 -230,391.8 -230,391.7 -230.2,391.6 -230.3,391.7 -230.2,391.7 
				-230.2,392.1 			"/>
		</g>
		<g>
			<polygon class="st5" points="-229.9,392.1 -229.9,392.2 -229.8,392.2 -229.8,391.8 -229.9,391.7 -230.1,392.1 -230,392.1 
				-230,392 -229.9,392.1 -229.9,392 -229.9,392 -229.9,391.8 -229.9,392 -229.9,392 -229.9,392.1 			"/>
		</g>
		<g>
			<path class="st5" d="M-229.6,391.8c0,0,0.1,0,0.1,0.1c0,0,0.1,0.1,0,0.2c0,0.1-0.1,0.2-0.2,0.1c-0.1,0-0.1-0.1-0.1-0.1l0.1-0.2
				l0.1,0l-0.1,0.1c0,0,0,0,0.1,0c0,0,0.1,0,0.1-0.1c0.1-0.1,0-0.1,0-0.2C-229.5,391.9-229.6,391.9-229.6,391.8l0,0.2l-0.1,0
				L-229.6,391.8L-229.6,391.8z"/>
		</g>
		<g>
			<path d="M-228.7,393.1C-228.7,393.1-228.7,393.1-228.7,393.1c-0.2-0.4-0.5-0.4-0.9-0.4c0,0-0.1,0-0.1,0c-0.1,0-0.3,0-0.4,0
				c0,0,0,0,0,0c0,0,0,0,0,0c0,0,0,0,0,0c0.1,0,0.3,0,0.4,0c0,0,0.1,0,0.1,0C-229.1,392.6-228.8,392.7-228.7,393.1
				C-228.6,393.1-228.6,393.1-228.7,393.1C-228.7,393.1-228.7,393.1-228.7,393.1z M-237.2,393.1
				C-237.2,393.1-237.2,393.1-237.2,393.1C-237.2,393.1-237.2,393.1-237.2,393.1c0.1-0.5,0.5-0.5,0.9-0.5c0,0,0.1,0,0.1,0
				c0.1,0,0.3,0,0.4,0c0,0,0,0,0,0c0,0,0,0,0,0c0,0,0,0,0,0c-0.2,0-0.3,0-0.5,0c0,0,0,0-0.1,0C-236.7,392.7-237,392.7-237.2,393.1
				C-237.2,393.1-237.2,393.1-237.2,393.1z M-236.2,392.6C-236.3,392.6-236.3,392.6-236.2,392.6c-0.1,0-0.1-0.1-0.2-0.3l0-0.1
				c0,0,0,0,0,0l0,0c0,0,0,0,0,0c0,0,0,0,0,0l0,0c0,0,0,0,0,0l0,0.1c0,0.1,0.1,0.1,0.1,0.2c0,0,0,0,0,0c0-0.1,0.2-0.2,0.4-0.2
				c0.1,0,0.3-0.1,0.5-0.1c0,0,0,0,0,0c0,0,0,0,0,0c0,0,0,0,0,0c-0.2,0-0.4,0.1-0.5,0.1c-0.1,0-0.3,0.1-0.4,0.2
				C-236.3,392.5-236.3,392.5-236.2,392.6C-236.3,392.6-236.3,392.6-236.2,392.6C-236.3,392.6-236.3,392.6-236.2,392.6
				C-236.2,392.6-236.2,392.6-236.2,392.6c0.1,0,0.2-0.1,0.3-0.2c0,0,0,0,0.1,0c0.1-0.1,0.4-0.2,0.5-0.1c0,0,0,0,0.1,0c0,0,0,0,0,0
				c0,0,0,0,0,0c0,0,0,0,0,0c0,0,0,0,0,0c0,0,0,0,0,0c-0.1,0-0.3,0-0.5,0.1c0,0,0,0-0.1,0C-236,392.5-236.2,392.6-236.2,392.6z
				 M-229.6,392.6c-0.1,0-0.2-0.1-0.3-0.1c0,0,0,0-0.1,0c-0.1-0.1-0.4-0.1-0.5-0.1c0,0,0,0,0,0c0,0,0,0,0,0c0,0,0,0,0,0c0,0,0,0,0,0
				c0,0,0,0,0,0c0,0,0,0,0,0c0,0,0,0,0.1-0.1c0.1,0,0.4,0.1,0.5,0.1c0,0,0,0,0.1,0C-229.8,392.5-229.7,392.6-229.6,392.6
				C-229.6,392.6-229.6,392.6-229.6,392.6C-229.6,392.6-229.6,392.6-229.6,392.6C-229.5,392.6-229.5,392.6-229.6,392.6
				c0.1-0.1,0.1-0.1,0.1-0.1c0-0.1-0.3-0.2-0.4-0.2c-0.1,0-0.3-0.1-0.5-0.1c0,0,0,0,0,0c0,0,0,0,0,0c0.2,0,0.4,0.1,0.5,0.1
				c0.2,0.1,0.4,0.1,0.4,0.2c0,0,0,0,0,0c0,0,0.1-0.1,0.1-0.2l0-0.1c0,0,0,0,0-0.1c0,0,0,0,0,0c0,0,0,0,0,0c0,0,0,0,0,0.1l0,0.1
				C-229.5,392.5-229.5,392.6-229.6,392.6C-229.6,392.6-229.6,392.6-229.6,392.6z M-232.3,391.9
				C-232.3,391.9-232.3,391.9-232.3,391.9C-232.3,391.9-232.3,391.9-232.3,391.9c0-0.1,0.2-0.2,0.4-0.1c0.1,0,0.2,0,0.2,0
				c0,0,0,0,0,0c0,0,0,0,0,0c0-0.1-0.2-0.1-0.5-0.1c0,0,0,0,0,0c0,0,0,0,0,0c0,0,0,0,0,0c0.2,0,0.5,0.1,0.5,0.2c0,0,0-0.1,0.1-0.1
				c0,0,0-0.1,0-0.1c0-0.1,0-0.1,0.1-0.2c0,0,0,0,0,0c0,0,0,0,0,0c0,0,0,0.1-0.1,0.2c0,0,0,0.1,0,0.1c-0.1,0.2-0.1,0.3-0.3,0.2
				C-232.1,391.8-232.2,391.8-232.3,391.9C-232.2,391.9-232.3,391.9-232.3,391.9z M-233.6,391.9
				C-233.6,391.9-233.6,391.9-233.6,391.9c0-0.1-0.2-0.1-0.4-0.1c-0.2,0.1-0.3-0.1-0.3-0.2c0,0,0-0.1,0-0.1c0-0.1,0-0.1-0.1-0.2
				c0,0,0,0,0,0c0,0,0,0,0,0c0,0,0,0.1,0.1,0.2c0,0,0,0.1,0,0.1c0,0.1,0,0.1,0.1,0.1c0-0.1,0.3-0.1,0.5-0.2c0,0,0,0,0,0c0,0,0,0,0,0
				c0,0,0,0,0,0c-0.3,0-0.5,0.1-0.5,0.1c0,0,0,0,0,0c0,0,0,0,0,0c0,0,0.1,0,0.2,0C-233.7,391.8-233.6,391.8-233.6,391.9
				C-233.6,391.9-233.6,391.9-233.6,391.9C-233.6,391.9-233.6,391.9-233.6,391.9z"/>
		</g>
		<g>
			<polygon class="st6" points="-232.9,395.6 -230.9,393.9 -230.9,394 -232.9,395.7 			"/>
		</g>
		<g>
			<path d="M-232.9,395.8v-0.1l0,0l2-1.7l0.1,0.1l0,0L-232.9,395.8z M-232.9,395.6L-232.9,395.6l2-1.7l0,0L-232.9,395.6z"/>
		</g>
		<g>
			<polygon class="st6" points="-232.9,395.4 -231.2,393.6 -231.2,393.7 -232.9,395.5 			"/>
		</g>
		<g>
			<path d="M-232.9,395.6v-0.1l0,0l1.7-1.9l0.1,0.1l0,0L-232.9,395.6z M-232.9,395.4L-232.9,395.4l1.7-1.8l0,0L-232.9,395.4z"/>
		</g>
		<g>
			<polygon class="st6" points="-232.9,395.2 -231.6,393.3 -231.5,393.4 -232.9,395.3 			"/>
		</g>
		<g>
			<path d="M-232.9,395.4v-0.2l0,0l1.4-1.9l0.1,0.1l0,0L-232.9,395.4z M-232.9,395.2L-232.9,395.2l1.4-1.8l0,0L-232.9,395.2z"/>
		</g>
		<g>
			<polygon class="st6" points="-232.9,395.6 -234.9,393.9 -235,394 -232.9,395.7 			"/>
		</g>
		<g>
			<path d="M-232.9,395.8L-232.9,395.8l-2.1-1.8l0.1-0.1l0,0l2,1.7V395.8z M-234.9,394l2,1.7v0L-234.9,394L-234.9,394z"/>
		</g>
		<g>
			<polygon class="st6" points="-232.9,395.4 -234.6,393.6 -234.7,393.7 -232.9,395.5 			"/>
		</g>
		<g>
			<path d="M-232.9,395.6L-232.9,395.6l-1.8-1.9l0.1-0.1l0,0l1.7,1.8V395.6z M-234.6,393.7l1.7,1.9v-0.1L-234.6,393.7L-234.6,393.7z
				"/>
		</g>
		<g>
			<polygon class="st6" points="-232.9,395.2 -234.3,393.3 -234.3,393.4 -232.9,395.3 			"/>
		</g>
		<g>
			<path d="M-232.9,395.4L-232.9,395.4l-1.4-2l0.1-0.1l0,0l1.4,1.9V395.4z M-234.3,393.4l1.4,1.9v-0.1L-234.3,393.4L-234.3,393.4z"
				/>
		</g>
		<g>
			<path class="st5" d="M-230.9,393.9l0.3-0.2l-0.2,0.3C-230.9,394-231,393.9-230.9,393.9L-230.9,393.9z"/>
		</g>
		<g>
			<path class="st7" d="M-230.9,393.9l0.3-0.2l-0.2,0.3C-230.9,394-231,393.9-230.9,393.9L-230.9,393.9z"/>
		</g>
		<g>
			<path class="st5" d="M-231.3,393.6l0.3-0.2l-0.2,0.3C-231.2,393.7-231.3,393.6-231.3,393.6L-231.3,393.6z"/>
		</g>
		<g>
			<path class="st7" d="M-231.3,393.6l0.3-0.2l-0.2,0.3C-231.2,393.7-231.3,393.6-231.3,393.6L-231.3,393.6z"/>
		</g>
		<g>
			<path class="st5" d="M-231.6,393.3l0.2-0.2l-0.1,0.3C-231.5,393.4-231.6,393.3-231.6,393.3L-231.6,393.3z"/>
		</g>
		<g>
			<path class="st7" d="M-231.6,393.3l0.2-0.2l-0.1,0.3C-231.5,393.4-231.6,393.3-231.6,393.3L-231.6,393.3z"/>
		</g>
		<g>
			<path class="st5" d="M-234.9,393.9l-0.3-0.2l0.2,0.3C-235,394-234.9,393.9-234.9,393.9L-234.9,393.9z"/>
		</g>
		<g>
			<path class="st7" d="M-234.9,393.9l-0.3-0.2l0.2,0.3C-235,394-234.9,393.9-234.9,393.9L-234.9,393.9z"/>
		</g>
		<g>
			<path class="st5" d="M-234.6,393.6l-0.3-0.2l0.2,0.3C-234.7,393.7-234.6,393.6-234.6,393.6L-234.6,393.6z"/>
		</g>
		<g>
			<path class="st7" d="M-234.6,393.6l-0.3-0.2l0.2,0.3C-234.7,393.7-234.6,393.6-234.6,393.6L-234.6,393.6z"/>
		</g>
		<g>
			<path class="st5" d="M-234.2,393.3l-0.2-0.2l0.1,0.3C-234.3,393.4-234.2,393.3-234.2,393.3L-234.2,393.3z"/>
		</g>
		<g>
			<path class="st7" d="M-234.2,393.3l-0.2-0.2l0.1,0.3C-234.3,393.4-234.2,393.3-234.2,393.3L-234.2,393.3z"/>
		</g>
		<g>
			<polygon class="st5" points="-232.8,395.3 -232.8,394.4 -232.6,394.4 -232.6,394.2 -232.8,394.2 -232.8,394 -233,394 -233,394.2 
				-233.2,394.2 -233.2,394.4 -233,394.4 -233,395.3 			"/>
		</g>
		<g>
			<path d="M-232.8,395.3h-0.2v-0.9h-0.2v-0.2h0.2v-0.3h0.2v0.3h0.2v0.2h-0.2V395.3z M-233,395.3h0.2v-0.9h0.2v-0.2h-0.2V394h-0.2
				v0.3h-0.2v0.2h0.2V395.3z"/>
		</g>
		<g>
			<path class="st1" d="M-232.6,396.5c0,0.4,0.3,1,0.3,1.3c0,0-0.1,0-0.1,0c0,0.1,0,0.3,0,0.4c-0.1-0.1-0.2,0-0.3,0
				c0,0.2-0.1,0.4-0.3,0.6c0-0.1-0.2-0.5-0.5-0.9c-0.2-0.3-0.1-1.1,0.3-1.6c0,0,0-0.1,0.1-0.2c0.1-0.1,0.2-0.1,0.3-0.1
				c0.1,0,0.3,0.1,0.2,0.2C-232.6,396.5-232.6,396.5-232.6,396.5L-232.6,396.5z"/>
		</g>
		<g>
			<path d="M-232.9,398.8C-232.9,398.8-232.9,398.8-232.9,398.8C-232.9,398.8-232.9,398.8-232.9,398.8c0-0.2-0.3-0.6-0.5-0.9
				c-0.2-0.3-0.1-1.1,0.2-1.6c0,0,0,0,0,0c0-0.1,0.1-0.1,0.1-0.2c0.1-0.1,0.2-0.1,0.4-0.1c0,0,0.2,0,0.2,0.1c0,0,0,0.1,0,0.1
				c-0.1,0.1-0.1,0.2-0.2,0.2c0,0.2,0.1,0.5,0.2,0.8c0.1,0.2,0.1,0.4,0.1,0.5c0,0,0,0,0,0c0,0,0,0,0,0c0,0-0.1,0-0.1,0c0,0,0,0,0,0
				c0,0.2,0,0.3,0,0.4c0,0,0,0,0,0c0,0,0,0,0,0c-0.1-0.1-0.2,0-0.2,0C-232.7,398.3-232.8,398.5-232.9,398.8
				C-232.9,398.8-232.9,398.8-232.9,398.8z M-232.8,396c-0.1,0-0.1,0-0.2,0.1c-0.1,0.1-0.1,0.1-0.1,0.2c0,0,0,0,0,0c0,0,0,0,0,0
				c-0.3,0.5-0.5,1.3-0.3,1.6c0.3,0.4,0.4,0.7,0.5,0.8c0.1-0.2,0.2-0.4,0.2-0.6c0,0,0,0,0,0c0,0,0.1-0.1,0.2,0c0-0.1,0-0.2,0-0.4
				c0,0,0,0,0,0c0,0,0,0,0,0c0,0,0,0,0,0c0,0,0.1,0,0.1,0c0,0,0,0,0,0c0-0.1-0.1-0.3-0.1-0.4c-0.1-0.2-0.2-0.5-0.2-0.8c0,0,0,0,0,0
				c0,0,0,0,0,0h0c0,0,0,0,0,0c0,0,0.1,0,0.1-0.2c0,0,0-0.1,0-0.1c0-0.1-0.1-0.1-0.2-0.1C-232.7,396-232.8,396-232.8,396z"/>
		</g>
		<g>
			<path class="st3" d="M-232.8,396.2c-0.4,0.7,0.1,1.8-0.1,2.5c0-0.1-0.2-0.5-0.5-0.9c-0.2-0.3-0.1-1.1,0.3-1.6
				C-233.1,396.2-233,396.2-232.8,396.2L-232.8,396.2z"/>
		</g>
		<g>
			<path d="M-232.9,398.8C-232.9,398.8-232.9,398.8-232.9,398.8C-232.9,398.8-232.9,398.8-232.9,398.8c0-0.2-0.3-0.6-0.5-0.9
				c-0.2-0.3-0.1-1.1,0.3-1.6c0-0.1,0.2-0.1,0.3-0.1c0,0,0,0,0,0c0,0,0,0,0,0c-0.2,0.4-0.2,0.9-0.1,1.4
				C-232.9,398.1-232.8,398.5-232.9,398.8C-232.9,398.8-232.9,398.8-232.9,398.8z M-232.9,396.2c-0.1,0-0.2,0-0.2,0.1
				c-0.3,0.5-0.5,1.3-0.3,1.6c0.3,0.4,0.4,0.6,0.4,0.8c0.1-0.3,0-0.6,0-1C-233,397.2-233.1,396.6-232.9,396.2
				C-232.9,396.2-232.9,396.2-232.9,396.2z"/>
		</g>
		<g>
			<path class="st2" d="M-233.1,396.3c-0.3,0.5-0.5,1.3-0.3,1.6c0.1,0.1,0.2,0.2,0.2,0.3c-0.1-0.5-0.2-1.3,0.3-2
				C-232.9,396.2-233.1,396.2-233.1,396.3L-233.1,396.3z"/>
		</g>
		<g>
			<path d="M-233.1,398.3C-233.1,398.3-233.1,398.3-233.1,398.3c-0.1-0.1-0.2-0.2-0.2-0.4c-0.2-0.3-0.1-1.1,0.2-1.6c0,0,0,0,0,0
				c0,0,0,0,0,0c0,0,0.1,0,0.1,0c0.1,0,0.1,0,0.2,0c0.1,0,0.1,0,0.2,0.1c0,0,0,0,0,0c0,0,0.1,0.1,0,0.2c0,0,0,0,0,0l0,0c0,0,0,0,0,0
				l0,0l0,0c0,0,0,0,0,0l0,0h0l0,0l0,0h0l0,0l0,0c0,0,0,0,0,0s0,0,0,0l0,0l0,0c0,0,0,0,0,0c0,0,0,0,0,0l0,0c0,0,0,0,0,0l0,0l0,0l0,0
				c0,0,0,0,0,0c0,0,0-0.1,0-0.1c-0.1,0.3,0,0.6,0.1,1c0,0.1,0.1,0.3,0.1,0.4c0,0,0,0,0,0c0,0,0,0,0,0c0-0.1-0.1-0.3-0.1-0.4
				c-0.1-0.2-0.1-0.5-0.1-0.7c0,0.2,0,0.5,0.1,0.8c0,0.3,0,0.5,0,0.7c0,0,0,0,0,0c0,0,0,0,0,0c0,0,0,0,0,0c0-0.2,0-0.4,0-0.7
				c-0.1-0.5-0.1-0.9,0-1.1c0,0-0.1,0-0.1,0c0,0,0,0-0.1,0C-233.3,397-233.2,397.8-233.1,398.3
				C-233.1,398.2-233.1,398.3-233.1,398.3C-233.1,398.3-233.1,398.3-233.1,398.3z M-233.1,396.3c-0.3,0.5-0.5,1.3-0.3,1.6
				c0.1,0.1,0.1,0.2,0.2,0.3c-0.1-0.5-0.2-1.3,0.3-1.9C-232.9,396.2-233,396.2-233.1,396.3C-233,396.3-233.1,396.3-233.1,396.3
				C-233.1,396.3-233.1,396.3-233.1,396.3z"/>
		</g>
		<g>
			<path d="M-233,395.1c0.1-0.1,0.4-0.2,0.5-0.1l0.3,0.9c-0.1,0-0.3,0-0.3,0.1c0,0-0.1,0.1-0.2,0.1c0,0-0.1,0.1-0.2,0.1
				c-0.1,0-0.2,0-0.3,0.1l-0.3-1l0.1-0.1C-233.3,395.1-233.1,395-233,395.1L-233,395.1z"/>
		</g>
		<g>
			<path d="M-233.2,396.3C-233.2,396.3-233.2,396.3-233.2,396.3C-233.2,396.3-233.2,396.3-233.2,396.3l-0.3-1c0,0,0,0,0,0l0.1-0.1
				c0.1-0.1,0.3-0.2,0.4-0.1c0.1-0.1,0.4-0.2,0.5-0.1c0,0,0,0,0,0l0.3,0.9c0,0,0,0,0,0s0,0,0,0c-0.1,0-0.2,0-0.3,0.1
				c0,0-0.1,0.1-0.2,0.1c0,0,0,0,0,0c0,0,0,0,0,0c0,0-0.1,0.1-0.2,0.1C-232.9,396.1-233,396.2-233.2,396.3
				C-233.1,396.2-233.1,396.3-233.2,396.3C-233.2,396.3-233.2,396.3-233.2,396.3z M-233.5,395.3l0.3,0.9c0,0,0,0,0,0
				c0.1-0.1,0.2-0.1,0.3-0.1c0.1,0,0.1,0,0.2-0.1c0,0,0,0,0,0c0,0,0,0,0,0c0,0,0,0,0,0c0,0,0.1,0,0.2-0.1c0.1-0.1,0.2-0.1,0.3-0.1
				l-0.3-0.9c-0.1-0.1-0.4,0-0.5,0.1c0,0,0,0,0,0C-233.1,395-233.3,395.1-233.5,395.3L-233.5,395.3z"/>
		</g>
		<g>
			<path class="st3" d="M-233.4,395.2c0.1-0.1,0.3-0.2,0.4-0.1c0.1-0.1,0.3-0.2,0.5-0.1l0.3,0.9c-0.1,0.1-0.2,0-0.3,0.1
				c0,0-0.1,0.1-0.1,0.1c0,0-0.2,0-0.2,0c-0.1,0-0.1,0.1-0.2,0.1L-233.4,395.2"/>
		</g>
		<g>
			<path d="M-233.1,396.1C-233.1,396.1-233.1,396.1-233.1,396.1l-0.3-0.9c0,0,0,0,0,0c0.1-0.1,0.3-0.2,0.4-0.1
				c0.1-0.1,0.4-0.2,0.5-0.1c0,0,0,0,0,0l0.3,0.9c0,0,0,0,0,0c0,0-0.1,0-0.2,0c-0.1,0-0.1,0-0.2,0l0,0c0,0-0.1,0.1-0.1,0.1
				c0,0,0,0,0,0c0,0,0,0,0,0l0,0c0,0-0.1,0-0.2,0c0,0-0.1,0-0.1,0C-233,396.1-233,396.1-233.1,396.1
				C-233.1,396.1-233.1,396.1-233.1,396.1z M-233.4,395.2l0.3,0.9c0,0,0.1,0,0.1-0.1c0,0,0.1,0,0.1,0c0.1,0,0.2,0,0.2,0l-0.3-0.9
				C-233.1,395.1-233.3,395.1-233.4,395.2z M-233,395.1l0.3,0.8c0,0,0.1,0,0.1-0.1l0,0c0.1,0,0.1,0,0.2,0c0.1,0,0.1,0,0.1,0
				l-0.3-0.8C-232.6,394.9-232.8,395-233,395.1z"/>
		</g>
		<g>
			<path class="st7" d="M-233,395.2c-0.1,0-0.2,0-0.3,0.1 M-233,395.3c-0.1,0-0.2,0-0.3,0.1 M-232.9,395.4c-0.1,0-0.2,0-0.3,0.1
				 M-232.9,395.5c-0.1,0-0.2,0-0.3,0.1 M-232.9,395.6c-0.1,0-0.2,0-0.3,0.1 M-232.8,395.7c-0.1,0-0.2,0-0.3,0.1 M-232.8,395.8
				c-0.1,0-0.2,0.1-0.3,0.1 M-232.9,395.1c0.1-0.1,0.3-0.1,0.3-0.1 M-232.8,395.2c0.1-0.1,0.2-0.1,0.3-0.1 M-232.8,395.4
				c0.1-0.1,0.2-0.1,0.3-0.1 M-232.8,395.5c0.1-0.1,0.2-0.1,0.3-0.1 M-232.7,395.6c0.1-0.1,0.2-0.1,0.3-0.1 M-232.7,395.7
				c0.1-0.1,0.2-0.1,0.3-0.1 M-232.6,395.8c0.1-0.1,0.2-0.1,0.3-0.1"/>
		</g>
		<g>
			<path class="st8" d="M-230.3,399.8c0.3,0,0.6,0.1,0.7,0.1c-0.1-0.1-0.3-0.2-0.5-0.2c0.2,0,0.3,0.1,0.5,0.1c0.1,0,0.1,0,0.1,0.2
				c0,0.1,0,0.2,0.1,0c0.1-0.2,0.1-0.2,0-0.3c-0.1-0.1-0.3-0.1-0.4-0.2c0.3,0.1,0.5,0.2,0.7,0.3c-0.1-0.1-0.2-0.3-0.4-0.4
				c0.2,0,0.4,0.1,0.6,0.2c-0.1-0.1-0.2-0.3-0.4-0.4c0.3,0.1,0.6,0.1,0.7,0.2c-0.1-0.2-0.3-0.4-0.5-0.4c0.3,0,0.6,0.1,0.7,0.2
				c-0.2-0.2-0.4-0.3-0.5-0.4c0.2,0,0.5,0.1,0.6,0.2c-0.2-0.2-0.4-0.3-0.7-0.3c0.2,0,0.4,0,0.6,0.1c-0.2-0.1-0.5-0.2-0.6-0.2
				c0.3-0.1,0.6-0.1,1,0.1c-0.2-0.1-0.4-0.2-0.7-0.3c0.1,0,0.4,0,0.5,0c-0.1,0-0.5-0.1-0.7-0.1c0.3-0.1,0.6-0.1,0.8-0.2
				c-0.3,0-0.7,0-1,0.1c0.3-0.3,0.6-0.3,0.8-0.3c0.2,0,0.4-0.1,0.2-0.1c-0.2,0-0.3,0-0.4,0c0.2-0.1,0.6-0.2,0.7-0.3
				c0.1-0.1,0.4-0.2,0.1-0.1c-0.3,0.1-0.7,0.1-1,0.2c-0.2,0-0.3,0-0.4,0.1c0.2-0.1,0.4-0.2,0.6-0.3c0.2-0.1,0.2-0.1,0.4,0.1
				c0.1,0.1,0.1,0,0-0.3c-0.1-0.2-0.2-0.1-0.4,0c-0.1,0-0.2,0.1-0.3,0.1c0.1-0.1,0.5-0.6,0.6-0.7c0.1-0.1,0.2,0,0.3,0.1
				c0.1,0.1,0.1,0,0-0.1c-0.1-0.2-0.2-0.2-0.3-0.1c-0.1,0.1-0.5,0.3-0.8,0.6c0.4-0.4,0.9-0.9,1.1-1c-0.2,0.1-0.5,0.3-0.7,0.4
				c0.1-0.1,0.2-0.3,0.3-0.4c-0.1,0.1-0.2,0.1-0.3,0.2c0.1-0.2,0.2-0.4,0.3-0.4c0-0.1,0.1-0.1,0.1-0.1c0,0,0.1,0,0.2,0
				c0.1,0,0.1,0,0-0.1c-0.3-0.1-0.3-0.1-0.4,0c-0.1,0.1-0.1,0.1-0.2,0.3c0.1-0.3,0.4-0.5,0.4-0.6c-0.3,0.2-0.4,0.3-0.5,0.4
				c0.1-0.2,0.5-0.5,0.6-0.6c-0.1,0-0.4,0.2-0.4,0.3c0.1-0.1,0.1-0.2,0.2-0.4c-0.2,0.1-0.4,0.3-0.5,0.5c0-0.1,0-0.1,0.1-0.2
				c0.1-0.1,0.3-0.3,0.4-0.4c0.1-0.1,0.1-0.1,0.4,0c0-0.1-0.1-0.2-0.1-0.3c-0.1-0.1-0.1-0.1-0.2,0c-0.1,0.1-0.1,0.1-0.2,0.2
				c0.1-0.3,0.3-0.6,0.3-0.9c-0.2,0.2-0.4,0.5-0.5,0.8c0-0.2,0.1-0.7,0.1-0.9c-0.1,0.1-0.2,0.3-0.2,0.6c0-0.2,0-0.5-0.1-0.7
				c0,0.1-0.1,0.5-0.2,0.7c-0.1-0.2-0.2-0.4-0.3-0.6c0,0.1,0,0.4,0.1,0.7c-0.1-0.2-0.4-0.5-0.4-0.7c0,0.3,0.2,0.8,0.2,0.9
				c0,0,0,0.1,0,0.2c-0.1-0.2-0.3-0.4-0.4-0.6c0,0.1,0,0.3,0.1,0.4c-0.1-0.1-0.2,0-0.4,0.3c0.1,0,0.1-0.1,0.2-0.1
				c0.1,0,0.1-0.1,0.2,0c0.1,0.1,0.3,0.4,0.4,0.8c0-0.1-0.2-0.4-0.3-0.5c0,0.1,0.1,0.2,0.1,0.3c-0.1-0.3-0.2-0.4-0.3-0.5
				c0,0.1,0.1,0.5,0.1,0.6c-0.1-0.1-0.1-0.2-0.2-0.3c0,0.1,0.1,0.5,0.1,0.6c-0.1-0.1-0.2-0.3-0.2-0.4c0,0.1,0.1,0.4,0.1,0.6
				c0-0.1-0.1-0.1-0.1-0.1c-0.1-0.2-0.2,0.1-0.2,0.3c-0.1,0.1,0,0.1,0,0c0.1-0.2,0.1-0.1,0.2,0c0,0.1,0.1,0.3,0.2,0.7
				c-0.1-0.1-0.2-0.3-0.3-0.5c-0.1-0.1-0.1-0.1,0,0.1c0,0.2,0.2,0.5,0.1,0.9c-0.1-0.2-0.1-0.5-0.2-0.7c0,0.2,0,0.4,0,0.6
				c0-0.1-0.1-0.1-0.1-0.2c0.1,0.2,0.1,0.6,0.1,0.8c0-0.1-0.1-0.3-0.1-0.4c0,0.2,0,0.5,0.1,0.7c0-0.1-0.1-0.3-0.1-0.4
				c0,0.2,0,0.5,0,0.7c0-0.1,0-0.2-0.1-0.3c0,0.1,0,0.4-0.1,0.5c0-0.2,0-0.3,0-0.4c-0.1,0.2-0.1,0.4-0.2,0.5c0-0.1,0.1-0.3,0.1-0.4
				c0,0.1-0.1,0.2-0.1,0.3c0-0.1,0-0.3,0-0.3c-0.1,0.2-0.2,0.4-0.3,0.6c0.1-0.2,0.1-0.4,0.1-0.5c-0.1,0.2-0.1,0.3-0.3,0.6
				c0.1-0.2,0.1-0.4,0.1-0.5c0,0.1-0.1,0.2-0.2,0.4c0-0.1,0-0.4,0-0.5c-0.1,0.1-0.2,0.2-0.2,0.4c0-0.1-0.1-0.2-0.2-0.3
				c0.1,0.4,0,0.8-0.2,1c-0.6,0.4-1.1,1.2-1.8,1.6c0,0,0.2,0.1,0.2,0.2c0.7-0.3,1.1-1,1.7-1.4c0.3-0.1,0.8,0.2,1.5,0
				c0.2-0.1,0.7,0.1,0.9,0.2C-229.7,400-229.9,399.9-230.3,399.8L-230.3,399.8z"/>
		</g>
		<g>
			<path d="M-233.7,401.3C-233.7,401.3-233.7,401.3-233.7,401.3c-0.1-0.1-0.2-0.2-0.2-0.2c0,0,0,0,0,0c0,0,0,0,0,0
				c0.4-0.2,0.7-0.5,1.1-0.9c0.2-0.3,0.5-0.5,0.7-0.7c0.2-0.2,0.3-0.5,0.2-1c0,0,0,0,0,0s0,0,0,0c0.1,0.1,0.1,0.2,0.1,0.3
				c0-0.1,0.1-0.2,0.2-0.3c0,0,0,0,0,0c0,0,0,0,0,0c0,0.1-0.1,0.3-0.1,0.5c0.1-0.2,0.1-0.3,0.2-0.4c0,0,0,0,0,0l0,0c0,0,0,0,0,0
				c0,0.1,0,0.3,0,0.4c0.1-0.1,0.1-0.2,0.2-0.3c0-0.1,0.1-0.1,0.1-0.2c0,0,0,0,0,0c0,0,0,0,0,0c0,0,0,0,0,0c0,0.1,0,0.2-0.1,0.4
				c0.1-0.2,0.2-0.3,0.3-0.5c0,0,0,0,0,0c0,0,0,0,0,0c0,0.1,0,0.1,0,0.2c0,0,0,0,0,0c0-0.1,0.1-0.1,0.1-0.2c0,0,0,0,0,0c0,0,0,0,0,0
				c0,0,0,0,0,0c0,0.1,0,0.2,0,0.3c0.1-0.1,0.1-0.2,0.1-0.4c0,0,0,0,0,0h0c0,0,0,0,0,0c0,0.1,0,0.1,0,0.2c0-0.1,0-0.2,0-0.2
				c0,0,0,0,0-0.1c0,0,0,0,0,0h0c0,0,0,0,0,0l0,0c0,0.1,0,0.1,0.1,0.2c0-0.2,0-0.4,0-0.6c0,0,0,0,0,0c0,0,0,0,0,0
				c0,0.1,0.1,0.1,0.1,0.2c0-0.2,0-0.4,0-0.5c0,0,0,0,0,0c0,0,0,0,0,0c0,0,0,0,0,0c0,0.1,0.1,0.2,0.1,0.3c0-0.2,0-0.5-0.1-0.7
				c0,0,0,0,0,0c0,0,0,0,0,0c0,0,0.1,0.1,0.1,0.1c0-0.1,0-0.3,0-0.5l0,0c0,0,0,0,0,0c0,0,0,0,0,0c0.1,0.2,0.2,0.4,0.2,0.7
				c0-0.3-0.1-0.5-0.1-0.7c0,0,0-0.1,0-0.1c-0.1-0.2-0.1-0.2,0-0.3c0,0,0,0,0.1,0.1c0,0.1,0.1,0.2,0.2,0.4c-0.1-0.2-0.1-0.4-0.2-0.5
				c0,0,0-0.1,0-0.1c0,0,0,0,0-0.1c0,0,0-0.1,0-0.1c0,0,0,0.1-0.1,0.1c-0.1,0.1-0.1,0.1-0.1,0.1c0,0,0,0,0-0.1c0,0,0-0.1,0-0.1
				c0-0.1,0.1-0.2,0.1-0.2c0,0,0.1,0,0.1,0.1c0,0,0,0,0,0.1c0-0.2-0.1-0.4-0.1-0.5c0,0,0,0,0,0c0,0,0,0,0,0l0,0
				c0,0.1,0.1,0.2,0.2,0.3c0-0.2-0.1-0.5-0.1-0.6c0,0,0,0,0,0c0,0,0,0,0,0c0,0.1,0.1,0.1,0.1,0.2c0,0,0-0.1,0-0.2
				c0-0.1-0.1-0.3-0.1-0.4c0,0,0,0,0,0c0,0,0,0,0,0c0,0.1,0.1,0.2,0.2,0.4c0-0.1,0-0.1,0-0.1c0,0,0,0,0,0c0,0,0,0,0,0
				c0,0,0.1,0.1,0.1,0.1c0,0.1,0.1,0.1,0.1,0.2c-0.1-0.2-0.2-0.4-0.3-0.6c0,0,0,0,0-0.1c0,0,0-0.1-0.1-0.1c0,0-0.1,0-0.1,0l0,0
				c0,0,0,0-0.1,0.1c0,0-0.1,0.1-0.1,0.1c0,0,0,0,0,0c0,0,0,0,0,0c0.2-0.3,0.2-0.4,0.3-0.4c0,0,0.1,0,0.1,0c0,0,0-0.1,0-0.1
				c0-0.1,0-0.2,0-0.3c0,0,0,0,0,0c0,0,0,0,0,0c0,0,0,0,0,0c0,0.1,0.2,0.3,0.3,0.5c0,0,0.1,0.1,0.1,0.1c0,0,0-0.1,0-0.1
				c0,0,0-0.1-0.1-0.2c-0.1-0.2-0.2-0.5-0.2-0.7c0,0,0,0,0,0l0,0c0,0,0,0,0,0c0,0.1,0.1,0.2,0.2,0.4c0.1,0.1,0.1,0.2,0.1,0.2
				c0-0.3-0.1-0.5-0.1-0.6c0,0,0,0,0,0c0,0,0,0,0,0c0,0.1,0.1,0.2,0.1,0.3c0,0.1,0.1,0.2,0.1,0.3c0-0.1,0-0.2,0.1-0.3
				c0-0.2,0.1-0.3,0.1-0.4c0,0,0,0,0,0c0,0,0,0,0,0c0,0,0,0,0,0c0,0.1,0.1,0.4,0.1,0.6c0.1-0.2,0.1-0.3,0.2-0.4c0,0,0,0,0,0
				c0,0,0,0,0,0c0,0.1,0,0.3-0.1,0.5c0,0.1,0,0.2,0,0.3c0.1-0.3,0.3-0.5,0.4-0.7c0,0,0,0,0,0c0,0,0,0,0,0c-0.1,0.1-0.1,0.4-0.2,0.6
				c0,0.1-0.1,0.2-0.1,0.2c0,0,0.1-0.1,0.1-0.1c0,0,0.1-0.1,0.1-0.1c0,0,0,0,0,0c0,0,0.1-0.1,0.1-0.1c0,0,0,0,0,0c0,0,0.1,0,0.1,0.1
				c0,0.1,0.1,0.2,0.1,0.3c0,0,0,0,0,0c0,0,0,0,0,0c-0.3-0.2-0.3-0.1-0.4,0l0,0c0,0,0,0-0.1,0.1c-0.1,0.1-0.2,0.2-0.3,0.3
				c0,0,0,0.1,0,0.1c0.1-0.2,0.3-0.3,0.4-0.4c0,0,0,0,0,0c0,0,0,0,0,0c0,0.1-0.1,0.2-0.1,0.3c0.1-0.1,0.3-0.2,0.4-0.2c0,0,0,0,0,0
				s0,0,0,0c0,0-0.1,0.1-0.2,0.2c-0.1,0.1-0.2,0.2-0.3,0.3c0.1-0.1,0.2-0.1,0.3-0.2c0,0,0,0,0,0c0,0,0,0,0,0c0,0,0,0.1-0.1,0.1
				c-0.1,0.1-0.2,0.2-0.3,0.4c0.1-0.1,0.1-0.1,0.2-0.2c0,0,0,0,0,0c0.1-0.1,0.1-0.1,0.4,0c0.1,0,0.1,0,0.1,0c0,0,0,0-0.1,0
				c-0.1,0-0.2,0-0.2,0c0,0-0.1,0-0.1,0.1c0,0,0,0,0,0.1c0,0.1-0.1,0.2-0.2,0.3c0,0,0.1-0.1,0.1-0.1c0,0,0.1-0.1,0.1-0.1
				c0,0,0,0,0,0c0,0,0,0,0,0c0,0.1-0.1,0.2-0.2,0.3c0.2-0.1,0.4-0.3,0.6-0.4c0,0,0,0,0,0c0,0,0,0,0,0c-0.1,0.1-0.3,0.3-0.6,0.6
				c0,0-0.1,0.1-0.1,0.1c0.1-0.1,0.2-0.1,0.3-0.2c0.1-0.1,0.1-0.1,0.2-0.1c0.1-0.1,0.2,0,0.3,0.1c0.2,0.2,0.1,0.2,0.1,0.2
				c0,0,0,0-0.1,0c0,0,0,0-0.1,0c-0.1-0.1-0.2-0.1-0.3-0.1c-0.1,0.1-0.4,0.5-0.6,0.7c0.1,0,0.2-0.1,0.2-0.1c0,0,0.1,0,0.1,0
				c0.1,0,0.1-0.1,0.2,0c0,0,0.1,0.1,0.1,0.1c0.1,0.3,0.1,0.3,0.1,0.3c0.1,0,0.2-0.1,0.3-0.1c0.1-0.1,0.1,0,0.1,0
				c0,0-0.2,0.2-0.2,0.2c-0.1,0.1-0.4,0.2-0.6,0.3c0.1,0,0.2,0,0.3,0c0.1,0,0.1,0,0.1,0c0,0,0,0-0.3,0.1c0,0-0.1,0-0.1,0
				c-0.2,0-0.4,0.1-0.7,0.3c0.3,0,0.6-0.1,0.9,0c0,0,0,0,0,0c0,0,0,0,0,0c-0.2,0-0.4,0.1-0.7,0.2c0.2,0,0.5,0.1,0.6,0.1c0,0,0,0,0,0
				c0,0,0,0,0,0c-0.1,0-0.2,0-0.4,0c0,0,0,0,0,0c0.3,0.1,0.5,0.2,0.6,0.2c0,0,0,0,0,0c0,0,0,0,0,0c-0.3-0.1-0.6-0.1-0.9-0.1
				c0.1,0,0.3,0.1,0.5,0.2c0,0,0,0,0,0c0,0,0,0,0,0c-0.1,0-0.3,0-0.4-0.1c0.2,0.1,0.4,0.2,0.5,0.3c0,0,0,0,0,0c0,0,0,0,0,0
				c-0.1,0-0.3-0.1-0.5-0.1c0.1,0.1,0.3,0.2,0.4,0.3l0,0c0,0,0,0,0,0c0,0,0,0,0,0c-0.1-0.1-0.3-0.1-0.6-0.2c0.2,0.1,0.3,0.3,0.4,0.4
				c0,0,0,0,0,0c0,0,0,0,0,0c-0.1-0.1-0.4-0.2-0.6-0.2c0.1,0.1,0.2,0.2,0.3,0.3c0,0,0,0,0,0c0,0,0,0,0,0c-0.1-0.1-0.3-0.2-0.5-0.2
				c0.1,0.1,0.2,0.2,0.3,0.3c0,0,0,0,0,0c0,0,0,0,0,0c-0.1-0.1-0.3-0.1-0.5-0.2c0.1,0,0.1,0.1,0.2,0.1c0.1,0.1,0.1,0.1,0,0.3l0,0
				c0,0.1,0,0.1-0.1,0.1c0,0,0,0,0,0c0,0,0,0,0-0.1l0,0c0-0.2,0-0.2-0.1-0.2c0,0-0.1,0-0.1,0c-0.1,0-0.1,0-0.2,0
				c0.1,0.1,0.2,0.1,0.3,0.2c0,0,0,0,0,0s0,0,0,0c-0.1,0-0.3-0.1-0.5-0.1c0.2,0.1,0.4,0.2,0.5,0.3c0,0,0,0,0,0c0,0,0,0,0,0
				c-0.2-0.1-0.7-0.2-0.9-0.2c-0.4,0.1-0.7,0-1,0c-0.2,0-0.4-0.1-0.5,0c-0.2,0.1-0.4,0.3-0.6,0.5
				C-232.9,400.8-233.3,401.1-233.7,401.3C-233.7,401.3-233.7,401.3-233.7,401.3z M-233.9,401.1c0.1,0,0.1,0.1,0.2,0.2
				c0.4-0.2,0.7-0.5,1.1-0.8c0.2-0.2,0.4-0.4,0.6-0.5c0.1-0.1,0.3,0,0.5,0c0.3,0,0.6,0.1,1,0c0.2-0.1,0.6,0.1,0.9,0.1
				c-0.1-0.1-0.3-0.2-0.6-0.3c0,0,0,0,0,0c-0.1,0-0.1,0-0.2,0c0,0,0,0,0,0c0,0,0,0,0,0c0,0,0,0,0,0c0,0,0.1,0,0.2,0l0,0c0,0,0,0,0,0
				c0.2,0,0.5,0,0.6,0.1c-0.1-0.1-0.2-0.1-0.4-0.2c0,0,0,0,0,0c-0.2-0.1-0.4-0.1-0.6-0.1c0,0-0.1,0-0.1,0c0,0,0,0,0,0s0,0,0,0
				c0.2,0,0.4,0,0.7,0.1c0.2,0,0.2,0.1,0.3,0.1c0,0,0.1,0,0.1,0c0.1,0,0.1,0.1,0.1,0.2v0c0,0,0,0.1,0,0.1c0,0,0,0,0-0.1l0,0
				c0-0.2,0.1-0.2,0-0.2c-0.1-0.1-0.2-0.1-0.4-0.2c0,0,0,0,0,0c-0.2-0.1-0.5-0.1-0.7-0.1c0,0,0,0,0,0c0,0,0,0,0,0c0,0,0,0,0,0
				c0,0-0.1,0-0.1,0c0,0,0,0,0,0c0,0,0,0,0,0c0.2-0.1,0.5-0.1,0.7-0.1c-0.1-0.1-0.2-0.1-0.4-0.1c0,0,0,0,0,0c0,0,0,0,0,0
				c0,0,0,0,0,0c0,0,0,0,0,0c0,0,0,0,0,0c0.2,0,0.4,0.1,0.5,0.2c0,0,0,0,0,0c0,0,0,0,0,0c-0.2,0-0.4-0.1-0.5,0
				c0.2,0,0.4,0.1,0.6,0.1c0.3,0.1,0.5,0.2,0.6,0.2c-0.1-0.1-0.2-0.2-0.3-0.3l0,0c-0.1-0.1-0.2-0.1-0.3-0.1c0,0,0,0,0,0c0,0,0,0,0,0
				c0.1,0,0.2,0.1,0.3,0.1c0.2,0,0.4,0.1,0.5,0.2c-0.1-0.1-0.2-0.2-0.3-0.3h0c-0.2,0-0.3,0-0.4-0.1c0,0,0,0,0,0c0,0,0,0,0,0
				c0,0,0,0,0,0c0.1,0,0.2,0,0.4,0.1c0,0,0,0,0,0c0.3,0.1,0.5,0.1,0.6,0.2c-0.1-0.2-0.3-0.3-0.5-0.4c0,0,0,0,0,0c-0.2,0-0.5,0-0.7,0
				c0,0,0,0,0,0c0,0,0,0,0,0c0.2-0.1,0.5-0.1,0.7,0c0,0,0,0,0,0c0.3,0,0.5,0.1,0.6,0.2c-0.2-0.1-0.3-0.3-0.5-0.3c-0.2,0-0.4,0-0.5,0
				c0,0,0,0,0,0c0,0,0,0,0,0c0,0,0,0,0,0c0.1,0,0.3,0,0.5,0l0,0c0.2,0,0.4,0.1,0.5,0.1c-0.2-0.1-0.4-0.3-0.6-0.3c0,0,0,0,0,0
				c0,0-0.1,0-0.1,0c-0.1,0-0.1,0-0.2,0h0c0,0,0,0,0,0c-0.2,0.1-0.4,0.3-0.6,0.5c0,0,0,0,0,0s0,0,0,0c0.3-0.3,0.6-0.5,1-0.6
				c0.3-0.1,0.6-0.1,0.9,0c-0.1-0.1-0.4-0.2-0.6-0.2c0,0,0,0,0,0c-0.2,0-0.4-0.1-0.6,0c0,0,0,0,0,0c-0.2,0.1-0.4,0.2-0.5,0.3
				c0,0,0,0,0,0s0,0,0,0c0.2-0.2,0.5-0.3,0.9-0.4c0.2-0.1,0.5-0.1,0.6-0.2c0,0-0.1,0-0.1,0c-0.2,0-0.5,0-0.7,0.1c0,0,0,0,0,0
				c-0.2,0-0.5,0.2-0.6,0.3c0,0,0,0,0,0c0,0,0,0,0,0c0.1-0.1,0.4-0.3,0.6-0.3c0.3-0.3,0.5-0.3,0.7-0.3c0,0,0.1,0,0.1,0
				c0.2,0,0.2-0.1,0.3-0.1c0,0,0,0-0.1,0c-0.2,0-0.3,0-0.4,0l0,0c0,0,0,0,0,0c-0.5,0-0.8,0.3-1.1,0.5c0,0,0,0,0,0c0,0,0,0,0,0
				c0.3-0.2,0.6-0.5,1.1-0.5c0,0,0,0,0,0c0.2-0.1,0.5-0.2,0.7-0.3c0.1,0,0.1-0.1,0.2-0.1c0,0,0,0-0.1,0c-0.2,0.1-0.5,0.1-0.8,0.2
				c-0.1,0-0.1,0-0.2,0c-0.2,0-0.3,0-0.4,0.1c0,0,0,0,0,0c-0.1,0.1-0.3,0.2-0.5,0.4c0,0,0,0,0,0c0,0,0,0,0,0
				c0.2-0.2,0.4-0.4,0.5-0.5c0,0,0,0,0,0c0.2-0.1,0.4-0.2,0.6-0.3c0,0,0.1,0,0.1,0c0.1-0.1,0.1-0.1,0.3,0.1l0,0c0,0,0,0,0,0
				c0,0,0-0.1-0.1-0.3c0-0.1-0.1-0.1-0.1-0.1c0,0-0.1,0-0.2,0c0,0-0.1,0-0.1,0c-0.1,0-0.2,0.1-0.3,0.1c0,0,0,0,0,0
				c-0.2,0.1-0.4,0.2-0.6,0.5c0,0,0,0,0,0c0,0,0,0,0,0c0.2-0.2,0.5-0.4,0.6-0.5c0.1-0.1,0.5-0.6,0.6-0.7c0.1-0.1,0.2,0,0.3,0.1
				c0,0,0,0,0.1,0c0,0,0,0,0.1,0c0,0,0-0.1-0.1-0.2c-0.1-0.2-0.2-0.2-0.3-0.1c0,0-0.1,0.1-0.2,0.1c-0.2,0.1-0.4,0.3-0.6,0.4
				c0,0,0,0,0,0c0,0,0,0,0,0l0,0l0,0c0,0,0,0,0,0c-0.2,0.2-0.4,0.4-0.5,0.6c0,0,0,0,0,0c0,0,0,0,0,0c0.1-0.2,0.3-0.4,0.5-0.6
				c0,0,0,0,0,0c0,0,0,0,0,0c0.1-0.1,0.3-0.3,0.4-0.4c0.2-0.2,0.5-0.4,0.6-0.5c-0.2,0.1-0.4,0.2-0.6,0.4c0,0,0,0,0,0
				c-0.3,0.2-0.6,0.5-0.7,0.7c0,0,0,0,0,0c0,0,0,0,0,0c0.1-0.2,0.3-0.4,0.5-0.5c0,0,0,0,0,0c0-0.1,0.1-0.2,0.2-0.3c0,0,0,0,0,0
				c0.1-0.1,0.2-0.3,0.2-0.3c0,0,0-0.1,0-0.1c0-0.1,0.1-0.1,0.1-0.1c0,0,0.1,0,0.2,0c0,0,0,0,0.1,0c0,0,0,0,0,0
				c-0.3-0.1-0.3-0.1-0.4,0c0,0,0,0,0,0c-0.1,0.1-0.1,0.1-0.2,0.3c0,0,0,0,0,0c-0.2,0.3-0.5,0.7-0.6,0.9c0,0,0,0,0,0c0,0,0,0,0,0
				c0.1-0.2,0.4-0.6,0.6-0.9l0,0c0.1-0.2,0.2-0.4,0.3-0.5c0,0,0,0,0,0c-0.2,0.1-0.4,0.2-0.5,0.4c0,0,0,0,0,0
				c-0.1,0.1-0.1,0.2-0.2,0.3c0,0.1,0,0.1-0.1,0.2c0,0,0,0,0,0c0,0,0,0,0,0c0-0.1,0-0.1,0.1-0.2c0.1-0.1,0.1-0.2,0.2-0.3
				c0,0,0,0,0,0c0.1-0.1,0.3-0.3,0.5-0.5c0,0,0.1-0.1,0.1-0.1c-0.1,0.1-0.3,0.2-0.4,0.2c0,0,0,0,0,0c-0.1,0.2-0.2,0.3-0.3,0.4
				c-0.1,0.2-0.2,0.3-0.3,0.6c0,0.1-0.1,0.2-0.1,0.3c0,0,0,0,0,0c0,0,0,0,0,0c0-0.1,0.1-0.2,0.1-0.3c0.1-0.2,0.1-0.4,0.3-0.6
				c0.1-0.1,0.2-0.3,0.3-0.4c0,0,0,0,0,0c0.1-0.1,0.1-0.2,0.2-0.3c-0.2,0.1-0.3,0.3-0.4,0.5l0,0c-0.1,0.2-0.2,0.5-0.3,0.7
				c0,0,0,0,0,0c0,0,0,0,0,0c0.1-0.2,0.2-0.5,0.3-0.7c0-0.1,0-0.1,0.1-0.2c0,0,0,0,0,0c0-0.1,0.1-0.3,0.2-0.4c0,0,0,0,0,0
				c0-0.1,0.1-0.2,0.1-0.3c0.1-0.2,0.1-0.4,0.2-0.5c-0.2,0.2-0.3,0.4-0.4,0.7l0,0c-0.1,0.3-0.2,0.6-0.3,0.9c0,0,0,0,0,0c0,0,0,0,0,0
				c0,0,0,0,0,0c0-0.1,0.1-0.3,0.1-0.5c0,0,0,0,0,0c0-0.2-0.1-0.4-0.2-0.7c0,0,0,0,0,0c0-0.1-0.1-0.2-0.1-0.3c0-0.1-0.1-0.1-0.1-0.2
				c0,0.1,0,0.4,0.1,0.6c0,0,0,0,0,0c0.1,0.4,0.1,0.7,0.2,1c0,0,0,0,0,0c0,0,0,0,0,0c-0.1-0.3-0.1-0.6-0.2-1c0-0.1-0.1-0.2-0.2-0.3
				c-0.1-0.1-0.1-0.2-0.1-0.2c0,0.2,0.1,0.4,0.1,0.5c0,0.1,0.1,0.2,0.1,0.2c0,0,0,0.1,0,0.2c0,0,0,0,0,0c0,0.1,0,0.1,0.1,0.2
				c0,0.1,0,0.2,0.1,0.3c0,0,0,0,0,0c0.1,0.1,0.1,0.3,0.2,0.5c0,0,0,0,0,0c0,0,0,0,0,0c-0.1-0.5-0.2-0.7-0.4-1l0,0
				c-0.1-0.1-0.1-0.1-0.2-0.2c0,0,0,0,0,0l0,0c0,0-0.1,0-0.1,0c0,0,0,0,0,0c-0.1,0-0.1,0.1-0.3,0.3c0,0,0.1,0,0.1-0.1
				c0,0,0,0,0.1-0.1l0,0c0,0,0.1,0,0.1,0c0,0,0,0,0,0c0,0,0.1,0,0.1,0.1c0,0,0,0,0,0.1c0.1,0.2,0.3,0.4,0.4,0.7c0,0,0,0,0,0
				c0,0,0,0.1,0,0.1c0.1,0.2,0.1,0.4,0.1,0.7c0,0,0,0,0,0c0,0,0,0,0,0c0-0.2,0-0.5-0.1-0.7c0,0,0-0.1,0-0.1c0,0,0,0,0,0
				c0-0.1-0.1-0.2-0.2-0.3c0,0,0,0,0-0.1c0,0,0,0.1,0,0.1c0,0.1,0,0.1,0,0.2c0,0,0,0,0,0c0,0,0,0.1,0,0.1c0.1,0.3,0.3,0.8,0.2,1.5
				c0,0,0,0,0,0c0,0,0,0,0,0c0,0,0,0,0,0c0.1-0.7-0.1-1.1-0.2-1.5c0,0,0-0.1,0-0.1c0,0,0,0,0,0c-0.1-0.2-0.2-0.4-0.2-0.5
				c0,0.1,0,0.2,0.1,0.3c0,0.1,0,0.2,0,0.3l0,0c0.1,0.3,0.3,0.7,0.3,1.2c0,0,0,0,0,0c0,0,0,0,0,0c0,0,0,0,0,0c0-0.5-0.2-0.9-0.3-1.2
				l0,0c0,0,0,0,0,0c0-0.1-0.1-0.2-0.1-0.2c0,0.2,0.1,0.4,0.1,0.5c0.2,0.3,0.4,0.8,0.4,1.3c0,0,0,0,0,0l0,0c0,0,0,0,0,0
				c0-0.5-0.2-1-0.4-1.3v0c-0.1-0.1-0.1-0.2-0.2-0.3c0,0.2,0.1,0.4,0.1,0.5l0,0c0.1,0.2,0.4,0.8,0.4,1.3c0,0,0,0,0,0s0,0,0,0
				c0-0.5-0.3-1.1-0.4-1.3l0,0c0,0,0,0,0,0c0,0,0-0.1-0.1-0.1c0,0,0,0,0,0c0,0,0,0,0,0c0,0-0.1,0.1-0.1,0.2c0,0,0,0.1,0,0.1
				c0,0,0,0,0,0.1c0,0,0,0,0,0c0.1-0.1,0.1-0.1,0.1-0.1c0,0,0,0,0,0c0,0,0,0,0.1,0.1c0,0,0,0,0,0c0,0,0,0,0,0.1
				c0,0.1,0.1,0.3,0.2,0.6c0,0,0,0,0,0c0.1,0.2,0.1,0.5,0.1,0.9c0,0,0,0,0,0l0,0c0,0,0,0,0,0c0-0.4-0.1-0.7-0.1-0.9
				c0,0,0-0.1-0.1-0.1c-0.1-0.1-0.2-0.3-0.2-0.4c0,0,0,0,0,0c0,0.1,0,0.1,0,0.1c0,0,0,0,0,0.1c0.1,0.2,0.1,0.5,0.1,0.8
				c0.1,0.2,0.1,0.5,0.1,0.7c0,0,0,0,0,0s0,0,0,0c0-0.2-0.1-0.5-0.1-0.7l0,0c-0.1-0.2-0.1-0.4-0.2-0.6c0,0.2,0,0.4,0,0.5
				c0.1,0.2,0.2,0.9,0.2,1.5c0,0,0,0,0,0c0,0,0,0,0,0c0.1-0.6,0-1.2-0.2-1.4c0,0,0,0,0,0c0,0-0.1-0.1-0.1-0.1c0,0.2,0.1,0.5,0.1,0.7
				c0,0,0,0,0,0l0,0c0,0.2,0.1,0.6,0.1,0.8c0,0,0,0,0,0c0,0,0,0,0,0c0,0,0,0,0,0c0-0.2-0.1-0.6-0.1-0.8l0,0c0,0,0,0,0,0
				c0-0.1-0.1-0.2-0.1-0.3c0,0.2,0,0.5,0.1,0.7c0,0,0,0,0,0c0.1,0.2,0.1,0.5,0,0.7c0,0,0,0,0,0c0,0,0,0,0,0c0-0.2,0-0.4,0-0.6
				c0,0,0,0,0,0c0-0.1-0.1-0.2-0.1-0.3c0,0.2,0,0.4,0,0.6c0,0,0,0,0,0c0,0.2,0,0.6-0.3,0.8c0,0,0,0,0,0c0,0,0,0,0,0
				c0.2-0.2,0.3-0.6,0.2-0.8c0,0,0,0,0,0c0-0.1,0-0.1-0.1-0.2c0,0.1,0,0.3-0.1,0.4c0,0.2-0.1,0.4-0.3,0.6c0,0,0,0,0,0s0,0,0,0
				c0.2-0.2,0.3-0.5,0.3-0.6c0,0,0,0,0,0c0-0.1,0-0.3,0-0.3c0,0.1-0.1,0.3-0.2,0.4c0,0,0,0,0,0c-0.1,0.1-0.1,0.2-0.2,0.3
				c0,0,0,0,0,0c-0.1,0.1-0.1,0.2-0.2,0.3c0,0,0,0,0,0c0,0,0,0,0,0c0.2-0.2,0.3-0.4,0.3-0.7c0,0,0,0,0,0c0-0.1,0-0.2,0-0.2
				c-0.1,0.2-0.2,0.4-0.3,0.5c0,0.1-0.1,0.2-0.2,0.3c0,0,0,0,0,0c0,0,0,0,0,0c0.1-0.1,0.1-0.2,0.1-0.3l0,0c0.1-0.2,0.1-0.4,0.1-0.5
				c0,0.1,0,0.1-0.1,0.1c-0.1,0.1-0.1,0.2-0.2,0.4c0,0,0,0,0,0c-0.1,0.1-0.2,0.3-0.3,0.4c0,0,0,0,0,0c0,0,0,0,0,0
				c0.1-0.1,0.2-0.2,0.3-0.4c0,0,0,0,0,0c0.1-0.1,0.1-0.3,0.1-0.4c0,0.1-0.1,0.2-0.2,0.3l0,0c-0.1,0.1-0.2,0.3-0.3,0.5c0,0,0,0,0,0
				c0,0,0,0,0,0c0.1-0.1,0.3-0.3,0.3-0.5c0-0.1,0-0.4,0-0.5c-0.1,0.1-0.2,0.2-0.2,0.3c0,0.1,0,0.2,0,0.3c0,0,0,0,0,0
				c0-0.1,0-0.2,0-0.3c0,0,0,0,0,0c0-0.1-0.1-0.2-0.1-0.3c0.1,0.5,0,0.8-0.2,1c-0.2,0.2-0.5,0.4-0.7,0.7
				C-233.2,400.6-233.5,400.9-233.9,401.1z M-230.9,398.8C-230.9,398.8-230.9,398.8-230.9,398.8c0,0.1,0,0.2-0.1,0.3
				c0-0.1,0.1-0.1,0.1-0.2c0-0.1,0-0.2,0.1-0.3C-230.8,398.7-230.9,398.7-230.9,398.8C-230.9,398.8-230.9,398.8-230.9,398.8z
				 M-229,398.7c0.1,0,0.3,0,0.5,0C-228.7,398.6-228.9,398.6-229,398.7C-229,398.6-229,398.6-229,398.7c0-0.1-0.1,0-0.2,0
				C-229.2,398.7-229.1,398.7-229,398.7C-229,398.7-229,398.7-229,398.7z M-229,398.3c0.1,0,0.2,0,0.3,0c0,0,0.1,0,0.1,0
				c0.1,0,0.2,0,0.2,0c-0.2,0-0.4-0.1-0.5-0.1c0,0,0,0,0,0C-228.9,398.3-229,398.3-229,398.3C-229,398.3-229,398.3-229,398.3z
				 M-228.3,397.1C-228.3,397.1-228.3,397.1-228.3,397.1c-0.1,0-0.1,0.1-0.2,0.1c-0.2,0.1-0.3,0.2-0.4,0.2c0.1,0,0.1,0,0.2,0
				c0.1,0,0.1,0,0.2,0c0.2,0,0.3,0,0.5-0.1c0,0,0,0-0.1,0l0,0C-228.2,397.1-228.2,397.1-228.3,397.1z M-228.6,396.1
				c0,0.1-0.1,0.2-0.1,0.3c0.1,0,0.1-0.1,0.2-0.1c0,0,0,0,0,0L-228.6,396.1c0.1,0,0.2-0.1,0.2-0.2c0,0,0,0,0,0
				C-228.5,396-228.6,396-228.6,396.1C-228.6,396.1-228.6,396.1-228.6,396.1z M-229.8,394.7c0,0,0.1,0.1,0.2,0.2l0,0
				c0.1,0.1,0.2,0.2,0.2,0.4c0,0,0-0.1,0-0.2c0-0.1,0-0.1-0.1-0.2c0,0-0.1-0.1-0.1-0.2c-0.1-0.1-0.2-0.3-0.2-0.4c0,0.1,0,0.2,0,0.2
				C-229.8,394.6-229.8,394.6-229.8,394.7z M-228.7,394.7c0,0.1-0.1,0.2-0.1,0.3c0.1-0.1,0.1-0.2,0.2-0.3c0,0,0.1-0.1,0.1-0.1l0,0
				c0.1-0.1,0.1-0.1,0.4,0c0-0.1-0.1-0.2-0.1-0.2c0,0-0.1-0.1-0.1-0.1c0,0,0,0,0,0c0,0-0.1,0-0.1,0.1c0,0,0,0,0,0
				c0,0-0.1,0.1-0.1,0.1C-228.6,394.7-228.6,394.7-228.7,394.7z M-229.2,394.3c0.1,0.3,0.2,0.5,0.2,0.7c0-0.1,0.1-0.2,0.1-0.4
				c0-0.1,0-0.2,0-0.3c0-0.2,0.1-0.4,0.1-0.5c-0.1,0.1-0.2,0.3-0.2,0.5v0c0,0.1,0,0.2,0,0.2c0,0,0,0,0,0c0,0,0,0,0,0
				c0-0.1,0-0.1,0-0.2l0,0c0,0,0,0,0,0c0-0.2,0-0.4,0-0.6c0,0.1,0,0.2-0.1,0.3C-229.1,394.1-229.2,394.2-229.2,394.3z M-229.9,399
				C-229.9,399-229.9,399-229.9,399C-230,399-230,399-229.9,399c0.1-0.3,0.2-0.6,0.2-0.8c-0.1,0.2-0.2,0.5-0.2,0.6c0,0,0,0,0,0
				c0,0,0,0,0,0c0.1-0.2,0.2-0.5,0.3-0.7c0,0,0,0,0,0h0c0,0,0,0,0,0C-229.7,398.2-229.7,398.6-229.9,399
				C-229.9,399-229.9,399-229.9,399z"/>
		</g>
		<g>
			<path class="st8" d="M-235.2,399.3c0.1,0,0.4,0,0.7,0c-0.2-0.1-0.1-0.5-0.3-0.6c0.2,0.1,0.3,0.1,0.4,0.1c0,0,0,0,0,0
				c0-0.1,0-0.2,0-0.2c0,0.1,0.1,0.1,0.3,0.2c0,0,0,0,0,0c0-0.1,0.2-0.3,0.2-0.4c0,0.1,0.1,0.2,0.2,0.4c0.1,0.4-0.2,0.5-0.1,0.8
				c0.6,0.4,1.1,1.2,1.8,1.5c0,0-0.2,0.1-0.2,0.2c-1-0.4-1.6-1.6-2.4-1.7c0,0,0,0-0.1,0c-0.2,0.1-0.4,0.2-0.6,0.1
				c-0.2,0-0.4,0-0.5,0.1C-235.5,399.5-235.3,399.4-235.2,399.3c-0.1,0.1-0.4,0.1-0.5,0c-0.1,0.3-0.4,0.3-0.6,0.4
				c-0.2,0-0.4,0.1-0.5,0.2c0-0.1,0-0.3,0-0.4c-0.1,0-0.2,0-0.4,0c0.1,0,0.3-0.4,0.6-0.5c-0.1,0-0.1-0.1-0.2-0.2c0.1,0,0.1,0,0.3,0
				c0.1,0,0.2,0,0.3,0c-0.1-0.1-0.2-0.2-0.2-0.3c-0.1,0.3-0.4,0.4-0.6,0.4c-0.2,0-0.3,0.1-0.4,0.2c0-0.1,0-0.3,0.1-0.3
				c-0.1,0-0.2,0-0.2,0c0-0.2,0.2-0.4,0.3-0.4c-0.1,0-0.3-0.3-0.4-0.5c0.1,0.1,0.6,0,0.8,0.3c-0.1-0.1-0.2-0.3-0.2-0.5
				c0.1,0.1,0.2,0.1,0.3,0.1c-0.2-0.6-0.5-0.4-0.8-0.6c-0.3-0.2-0.2-0.6-0.4-0.8c0.1,0,0.2,0,0.3,0c0-0.1,0-0.4,0-0.5
				c0.1,0.2,0.3,0.2,0.4,0.3c0,0,0-0.1,0-0.1c0.1,0.1,0.2,0.2,0.2,0.3c0-0.2,0.1-0.3,0.1-0.3c0,0.1,0,0.2,0.1,0.4
				c0.1,0.1,0.1,0.3,0,0.6c-0.1,0.3,0.1,0.5,0.2,0.6c0-0.1,0-0.4,0-0.5c0-0.1,0-0.3,0-0.5c0,0.1,0.1,0.2,0.2,0.3c0,0,0,0.1,0.1,0.1
				c0-0.1,0.1-0.1,0.1-0.2c0-0.1-0.4-0.2-0.4-0.7c-0.3-0.2-0.5-0.4-0.6-0.7c0,0,0.1,0.1,0.2,0.1c-0.2-0.2-0.2-0.5-0.1-0.7
				c0,0.1,0.2,0.2,0.3,0.2c0-0.2-0.2-0.4-0.2-0.7c0-0.4,0.2-0.4,0.3-0.6c0.1,0.1,0.1,0.2,0.1,0.2c0-0.2,0.2-0.3,0.2-0.4
				c0.1,0.1,0.2,0.3,0.1,0.5c0.1,0,0.3,0,0.4,0c-0.2,0-0.2,0.3-0.4,0.4c-0.2,0.1-0.5,0.3-0.4,0.6c0.1,0.1,0.2,0.3,0.2,0.6
				c0,0,0.1,0.1,0.1,0.2c0-0.1,0.1-0.1,0.1-0.2c0-0.1-0.2-0.3-0.2-0.4c-0.1-0.2,0.1-0.4,0-0.6c0.1,0,0.2,0.1,0.3,0.2
				c0.1-0.2,0.2-0.3,0.2-0.6c0.1,0.1,0.1,0.2,0.1,0.4c0.1-0.1,0.2-0.3,0.4-0.3c-0.1,0.2-0.1,0.4-0.1,0.5c0,0.2,0,0.4-0.2,0.6
				c-0.2,0.2-0.3,0.2-0.3,0.7c0.1-0.2,0.3-0.4,0.3-0.5c0,0.2,0.1,0.4,0.1,0.5c0.1-0.1,0.2-0.1,0.4-0.2c-0.1,0.1-0.2,0.7-0.5,0.7
				s-0.4,0.4-0.5,0.5c-0.1,0.2-0.1,0.3,0,0.5c0-0.2,0-0.4,0.1-0.5c0.1-0.2,0.3-0.3,0.3-0.4c0,0.2,0,0.3,0,0.4
				c0.2-0.3,0.5-0.2,0.6-0.3c-0.1,0.1-0.1,0.2-0.2,0.4c0,0.2-0.2,0.3-0.3,0.4c-0.1,0.1-0.3,0.1-0.3,0.2c0,0.1,0.1,0.2,0.1,0.3
				c0-0.1,0-0.1,0-0.1c0.1-0.1,0.1-0.2,0.1-0.3c0.2,0.2,0.2,0.4,0.2,0.6c-0.1,0.2-0.1,0.4,0,0.5c0.1,0.1,0.2,0.1,0.2,0.1
				c0.1-0.1,0-0.2-0.1-0.4c-0.1-0.1-0.1-0.4,0-0.5c0.1-0.1,0.2-0.2,0.2-0.4c0.1,0.1,0.2,0.2,0.2,0.2c0-0.1,0.1-0.2,0.2-0.2
				c0,0.2,0.1,0.3,0.1,0.4c0.1-0.1,0.1-0.2,0.2-0.2c0,0.1,0.1,0.2,0.1,0.3c0,0.1,0,0.2,0,0.2c0,0.1-0.1,0.2-0.2,0.3
				c0,0-0.1,0-0.2,0.1c0.2,0,0.5,0,0.5,0.2C-234.8,399.2-235.1,399.3-235.2,399.3L-235.2,399.3z"/>
		</g>
		<g>
			<path d="M-232.1,401.3C-232.1,401.3-232.1,401.3-232.1,401.3c-0.4-0.2-0.8-0.5-1.1-0.9c-0.4-0.4-0.8-0.8-1.3-0.8c0,0,0,0,0,0
				c0,0,0,0,0,0c-0.2,0.1-0.4,0.2-0.6,0.1c-0.2,0-0.4,0-0.5,0.1c0,0,0,0,0,0c0,0,0,0,0,0c0.2-0.3,0.3-0.4,0.4-0.5
				c-0.1,0-0.3,0-0.4,0c-0.1,0.3-0.4,0.3-0.6,0.4c-0.2,0-0.4,0.1-0.4,0.2c0,0,0,0,0,0c0,0,0,0,0,0c0-0.1,0-0.3,0-0.4
				c-0.1,0-0.2,0-0.3,0c0,0,0,0,0,0s0,0,0,0c0,0,0.1-0.1,0.1-0.1c0.1-0.1,0.2-0.3,0.4-0.3c-0.1,0-0.1-0.1-0.1-0.1c0,0,0,0,0,0
				c0,0,0,0,0,0c0.1,0,0.1,0,0.2,0c0,0,0.1,0,0.1,0c0.1,0,0.2,0,0.2,0c-0.1-0.1-0.1-0.2-0.2-0.3c-0.1,0.3-0.5,0.4-0.6,0.4
				c-0.3,0-0.4,0.1-0.4,0.2c0,0,0,0,0,0c0,0,0,0,0,0c0-0.2,0-0.3,0.1-0.3c-0.1,0-0.2,0-0.2,0c0,0,0,0,0,0c0,0,0,0,0,0
				c0-0.2,0.1-0.3,0.3-0.4c-0.2-0.1-0.3-0.3-0.3-0.5c0,0,0,0,0,0c0,0,0,0,0,0c0,0.1,0.2,0.1,0.3,0.1c0.1,0,0.3,0,0.4,0.1
				c-0.1-0.1-0.1-0.2-0.1-0.3c0,0,0,0,0,0c0,0,0,0,0,0c0,0,0.1,0.1,0.1,0.1c0,0,0.1,0,0.1,0c-0.1-0.3-0.3-0.4-0.5-0.5
				c-0.1,0-0.2-0.1-0.3-0.1c-0.2-0.1-0.2-0.3-0.2-0.5c0-0.1-0.1-0.3-0.2-0.4c0,0,0,0,0,0c0,0,0,0,0,0c0.1,0,0.2,0,0.2,0
				c0-0.1,0-0.3,0-0.5c0,0,0,0,0,0c0,0,0,0,0,0c0,0.1,0.1,0.1,0.2,0.2c0.1,0,0.1,0.1,0.2,0.1c0,0,0-0.1,0-0.1c0,0,0,0,0,0
				c0,0,0,0,0,0l0,0c0.1,0.1,0.1,0.1,0.2,0.2c0-0.2,0.1-0.3,0.1-0.3c0,0,0,0,0,0c0,0,0,0,0,0c0,0.1,0,0.2,0.1,0.4
				c0.1,0.2,0.1,0.3,0.1,0.6c0,0.2,0,0.4,0.2,0.6c0-0.1,0-0.4,0-0.5c0-0.1-0.1-0.3,0-0.5c0,0,0,0,0,0h0c0,0,0,0,0,0
				c0,0.1,0.1,0.2,0.2,0.3c0,0,0,0,0,0.1c0,0,0-0.1,0-0.1l0,0c0,0,0-0.1-0.1-0.1c-0.1-0.1-0.3-0.3-0.3-0.6c-0.2-0.1-0.5-0.3-0.6-0.7
				c0,0,0,0,0,0c0,0,0,0,0,0c0,0,0.1,0,0.1,0.1c-0.1-0.2-0.2-0.5-0.1-0.6c0,0,0,0,0,0h0c0,0,0,0,0,0c0,0.1,0.1,0.1,0.2,0.2
				c0,0,0.1,0,0.1,0.1c0-0.1-0.1-0.2-0.1-0.3c-0.1-0.1-0.1-0.2-0.1-0.3c0-0.2,0.1-0.3,0.2-0.4c0-0.1,0.1-0.1,0.1-0.2c0,0,0,0,0,0
				c0,0,0,0,0,0c0,0.1,0.1,0.1,0.1,0.2c0-0.1,0.1-0.1,0.1-0.2c0.1-0.1,0.1-0.1,0.1-0.2c0,0,0,0,0,0c0,0,0,0,0,0
				c0.1,0.1,0.2,0.3,0.1,0.4c0.1,0,0.3,0,0.3,0.1c0,0,0,0,0,0c0,0,0,0,0,0c-0.1,0-0.2,0.1-0.2,0.2c0,0.1-0.1,0.1-0.1,0.2
				c0,0-0.4,0.2-0.4,0.6c0.1,0.1,0.2,0.3,0.2,0.6c0,0,0.1,0.1,0.1,0.1c0-0.1,0.1-0.1,0.1-0.2c0-0.1-0.1-0.1-0.1-0.2
				c0-0.1-0.1-0.1-0.1-0.2c0-0.1,0-0.2,0-0.3c0-0.1,0-0.2,0-0.3c0,0,0,0,0,0c0,0,0,0,0,0c0.1,0,0.2,0.1,0.3,0.2c0,0,0-0.1,0.1-0.1
				c0.1-0.1,0.1-0.2,0.1-0.4c0,0,0,0,0,0c0,0,0,0,0,0c0.1,0.1,0.1,0.2,0.1,0.3c0.1-0.1,0.2-0.2,0.4-0.3c0,0,0,0,0,0s0,0,0,0
				c-0.1,0.1-0.1,0.3-0.1,0.4c0,0,0,0.1,0,0.1l0,0c0,0.2,0,0.4-0.3,0.6c-0.2,0.2-0.3,0.2-0.3,0.6c0-0.1,0.1-0.2,0.2-0.2
				c0.1-0.1,0.1-0.2,0.1-0.2c0,0,0,0,0,0c0,0,0,0,0,0l0,0c0,0.2,0.1,0.3,0.1,0.5c0.1-0.1,0.2-0.1,0.4-0.1c0,0,0,0,0,0c0,0,0,0,0,0
				c0,0-0.1,0.1-0.1,0.2c-0.1,0.2-0.2,0.5-0.4,0.5c-0.3,0.1-0.4,0.3-0.5,0.4c0,0,0,0,0,0c0,0,0,0,0,0c0,0,0,0,0,0.1c0,0,0,0,0,0.1
				c0,0,0,0,0,0c0,0,0,0,0,0c-0.1,0.1-0.1,0.2,0,0.3c0-0.1,0-0.3,0.1-0.4c0.1-0.1,0.1-0.2,0.2-0.2c0.1-0.1,0.1-0.1,0.1-0.2
				c0,0,0,0,0,0h0c0,0,0,0,0,0c0,0.1,0,0.2,0,0.3c0.1-0.2,0.3-0.2,0.4-0.2c0.1,0,0.1,0,0.2,0c0,0,0,0,0,0c0,0,0,0,0,0
				c-0.1,0.1-0.1,0.2-0.2,0.4c0,0.2-0.2,0.3-0.4,0.4c0,0-0.1,0-0.1,0c-0.1,0-0.2,0.1-0.2,0.2c0,0,0,0,0,0c0,0,0,0.1,0,0.1
				c0,0,0,0.1,0,0.1c0,0,0,0,0-0.1c0.1-0.1,0.1-0.2,0.1-0.3c0,0,0,0,0,0c0,0,0,0,0,0c0.2,0.2,0.3,0.4,0.2,0.6
				c-0.1,0.2-0.1,0.4,0,0.5c0.1,0.1,0.1,0.1,0.2,0.1c0.1-0.1,0-0.2-0.1-0.3c-0.1-0.1-0.1-0.4,0-0.6c0.1-0.1,0.2-0.2,0.2-0.3
				c0,0,0,0,0,0c0,0,0,0,0,0c0.1,0.1,0.1,0.1,0.2,0.2c0-0.1,0.1-0.2,0.2-0.2c0,0,0,0,0,0c0,0,0,0,0,0c0,0.1,0,0.1,0.1,0.2
				c0,0.1,0.1,0.1,0.1,0.2c0-0.1,0.1-0.2,0.2-0.2c0,0,0,0,0,0c0,0,0,0,0,0c0,0.1,0,0.1,0,0.2c0,0,0,0.1,0,0.1c0,0.1,0,0.2,0,0.2
				c0,0,0,0,0,0c0.1,0.1,0.2,0.1,0.3,0.1c0,0,0.1,0,0.1,0c0,0,0,0,0,0c0-0.1,0-0.2,0.1-0.2c0,0,0,0,0,0c0,0,0,0,0,0
				c0,0.1,0.1,0.1,0.1,0.1c0,0,0.1,0,0.1,0.1c0,0,0,0,0,0c0-0.1,0.1-0.1,0.1-0.2c0-0.1,0.1-0.1,0.1-0.1c0,0,0,0,0,0c0,0,0,0,0,0
				c0,0,0,0.1,0.1,0.1c0,0.1,0.1,0.1,0.1,0.2c0.1,0.2,0,0.3-0.1,0.5c-0.1,0.1-0.1,0.2,0,0.3c0.2,0.2,0.5,0.4,0.7,0.6
				c0.3,0.3,0.7,0.7,1.1,0.9c0,0,0,0,0,0c0,0,0,0,0,0C-231.9,401.1-232,401.2-232.1,401.3C-232.1,401.3-232.1,401.3-232.1,401.3z
				 M-234.5,399.6c0.5,0.1,0.9,0.4,1.3,0.8c0.3,0.3,0.7,0.7,1.1,0.9c0.1-0.1,0.1-0.1,0.2-0.2c-0.4-0.2-0.8-0.5-1.1-0.9
				c-0.2-0.2-0.5-0.5-0.7-0.6c0,0,0,0,0,0c-0.1-0.1-0.3-0.1-0.4-0.2c0,0,0,0,0,0c0,0,0,0,0,0c-0.1,0-0.3-0.1-0.4-0.1h0
				c-0.3,0-0.6,0-0.7,0c0,0,0,0-0.1,0c-0.1,0-0.2,0.2-0.4,0.4c0.1-0.1,0.3-0.1,0.5-0.1c0.2,0,0.4-0.1,0.6-0.1
				C-234.6,399.6-234.6,399.6-234.5,399.6C-234.6,399.6-234.5,399.6-234.5,399.6C-234.5,399.6-234.5,399.6-234.5,399.6
				c0.1-0.1,0.2-0.1,0.4-0.1c0,0,0,0,0,0c0,0,0,0,0,0C-234.2,399.5-234.3,399.5-234.5,399.6z M-236.8,399.6c0,0.1,0,0.2,0,0.3
				c0.1-0.1,0.2-0.2,0.5-0.2c0.2,0,0.5-0.1,0.6-0.3c0,0,0,0,0,0c0,0,0,0,0,0c0,0,0,0,0,0c0,0,0,0,0,0c0,0,0,0,0,0
				c0.2,0.1,0.4,0,0.5,0c0,0,0,0,0.1,0c0,0,0,0,0,0c0.1,0,0.3-0.1,0.5-0.1c0,0,0,0,0,0c-0.1-0.1-0.3-0.1-0.4-0.1c0,0,0,0-0.1,0
				c0,0,0,0,0,0c-0.1,0-0.2,0.1-0.2,0.2c0,0,0,0,0,0c0,0,0,0,0,0c0,0,0,0,0,0c0,0,0,0,0,0c0.1-0.1,0.1-0.1,0.2-0.2c0,0,0,0,0,0
				c0,0,0.1,0,0.1,0c0,0,0.1,0,0.1,0c0.2-0.1,0.2-0.2,0.2-0.3c0-0.1,0-0.2,0-0.2c0,0,0-0.1,0-0.1c0-0.1,0-0.1,0-0.2
				c-0.1,0-0.2,0.1-0.2,0.2c0,0,0,0,0,0c0,0.1-0.1,0.2-0.1,0.2c0,0.2-0.1,0.3-0.1,0.4l0,0c0,0,0,0,0,0c0,0,0,0,0,0l0,0
				c0.1-0.1,0.1-0.2,0.1-0.4c0-0.1,0-0.2,0.1-0.3c0-0.1,0-0.2-0.1-0.2c0-0.1-0.1-0.1-0.1-0.2c-0.1,0-0.1,0.1-0.1,0.2c0,0,0,0,0,0
				c-0.1,0.2-0.1,0.4,0,0.5c0,0.1,0,0.3,0,0.4c0,0,0,0,0,0c0,0,0,0,0,0c0.1-0.1,0.1-0.3,0-0.4c0-0.1,0-0.3,0-0.5
				c0-0.1-0.1-0.1-0.1-0.2c0,0.1-0.1,0.2-0.2,0.3c-0.1,0.1-0.1,0.4,0,0.5c0.1,0.1,0.2,0.2,0.1,0.4c0,0,0,0,0.1,0c0,0,0,0,0,0
				c0,0,0,0,0,0h0c0,0,0,0-0.1,0c0,0,0,0,0,0c-0.1,0-0.2-0.1-0.2-0.1c0,0,0,0,0,0c0,0,0,0-0.1-0.1c0-0.1-0.1-0.1-0.2-0.1l0,0
				c-0.1,0-0.2,0-0.3,0c0,0-0.1,0-0.1,0c-0.1,0-0.1,0-0.1,0c0,0,0,0,0,0c0,0,0.1,0.1,0.1,0.1c0,0,0,0,0,0c0.3,0.2,0.6,0.2,0.9,0.1
				c0,0,0,0,0,0c0,0,0,0,0,0c-0.1,0-0.2,0-0.3,0c0,0,0,0,0,0c0,0,0,0,0,0c-0.1,0.3-0.4,0.3-0.6,0.3c0,0-0.1,0-0.1,0
				C-236.7,399.6-236.7,399.6-236.8,399.6z M-236.8,399.6C-236.8,399.6-236.8,399.6-236.8,399.6c0.1,0,0.1,0,0.1,0c0,0,0.1,0,0.1,0
				c0,0,0,0,0,0c0.2,0,0.4-0.1,0.6-0.3c-0.2,0-0.4,0-0.6-0.2c-0.2,0-0.3,0.2-0.4,0.3c0,0-0.1,0.1-0.1,0.1
				C-237,399.6-236.9,399.6-236.8,399.6C-236.8,399.6-236.8,399.6-236.8,399.6z M-234.3,399.4C-234.3,399.4-234.3,399.4-234.3,399.4
				c0.2,0,0.4,0.1,0.6,0.2c0-0.1,0-0.2,0.1-0.3c0.1-0.1,0.1-0.2,0.1-0.4c0-0.1-0.1-0.2-0.1-0.2c0,0,0-0.1-0.1-0.1c0,0,0,0.1-0.1,0.1
				c-0.1,0.1-0.1,0.2-0.1,0.2c0.1,0.1,0.2,0.3,0.1,0.6c0,0,0,0,0,0c0,0,0,0,0,0c0.1-0.3,0-0.4-0.1-0.5c0,0,0,0,0,0c0,0,0,0,0,0
				c0,0-0.1,0-0.1-0.1c-0.1,0-0.1-0.1-0.1-0.1c0,0.1,0,0.1,0,0.2c0.2,0.1,0.4,0.3,0.4,0.6c0,0,0,0,0,0h0c0,0,0,0,0,0
				c0-0.4-0.3-0.6-0.4-0.6c0,0,0,0,0,0c0,0,0,0,0,0c0,0-0.1,0-0.1,0c-0.1,0-0.1,0-0.2,0c0.1,0.1,0.1,0.2,0.1,0.3
				c0,0.1,0,0.2,0.1,0.3C-234.4,399.4-234.4,399.4-234.3,399.4C-234.3,399.4-234.3,399.4-234.3,399.4z M-235,399.3
				c0.1,0,0.3,0,0.4,0c0-0.1-0.1-0.1-0.1-0.2c0-0.1,0-0.3-0.1-0.3c0,0.1-0.1,0.2-0.2,0.3c0,0-0.1,0-0.1,0c0,0,0,0,0,0
				c0.2,0,0.4,0.1,0.5,0.2c0,0,0,0,0,0c0,0,0,0,0,0c-0.1,0-0.3,0-0.4,0.1C-235.1,399.3-235,399.3-235,399.3z M-237.3,398.8
				c0,0-0.1,0.1-0.1,0.3c0.1,0,0.2-0.1,0.4-0.1c0.1,0,0.5-0.1,0.6-0.4c0,0,0,0,0,0c0-0.1,0-0.1,0-0.2c0,0,0,0,0,0c0,0,0,0,0,0
				c0,0,0,0,0,0c0,0.1,0,0.1,0,0.2c0,0.1,0.1,0.2,0.2,0.3c0.1,0,0.2,0,0.2,0.1c-0.1-0.1,0-0.3,0-0.4c0.1-0.2,0-0.4-0.1-0.6
				c0,0.1-0.1,0.2-0.1,0.3c0,0,0,0.1,0,0.1c0,0,0,0,0,0c0,0.1,0,0.3,0.1,0.5c0,0,0,0,0,0c0,0,0,0,0,0c-0.1-0.2-0.1-0.4-0.1-0.5
				c0,0,0,0,0,0c0-0.1,0-0.1,0-0.2c0,0,0,0,0-0.1c0,0,0,0.1,0,0.1c0,0,0,0,0,0c0,0,0,0,0,0c0,0,0,0,0,0c0-0.1,0-0.1,0.1-0.2l0,0
				c0,0,0,0,0,0c0,0,0,0,0,0c0,0,0,0,0,0c0.1-0.1,0.1-0.2,0.3-0.2c0,0,0.1,0,0.1,0c0.2-0.1,0.3-0.2,0.3-0.4c0-0.1,0.1-0.2,0.1-0.3
				c0,0-0.1,0-0.1,0c-0.1,0-0.3,0.1-0.4,0.3c0,0.1-0.1,0.2-0.2,0.3c-0.2,0.1-0.2,0.3-0.2,0.4c0,0,0,0,0,0c0,0,0,0,0,0c0,0,0,0,0,0
				c0-0.1,0-0.2,0.2-0.4c0.1-0.1,0.1-0.2,0.2-0.3c0,0,0,0,0,0c0-0.1,0-0.2,0-0.3c0,0.1-0.1,0.1-0.1,0.2c-0.1,0.1-0.1,0.1-0.2,0.2
				c-0.1,0.1-0.1,0.3-0.1,0.5c0,0,0,0,0,0c0,0,0,0,0,0c0,0,0,0,0,0c0,0,0,0,0,0c0,0,0,0,0,0c-0.1-0.2-0.1-0.3,0-0.4
				c0-0.1,0.1-0.3,0-0.4c0,0,0,0,0,0c0,0,0,0,0,0c0,0,0-0.1-0.1-0.1c-0.1-0.1-0.1-0.2-0.2-0.2c0,0.2,0,0.3,0,0.4
				c0,0.1,0.1,0.4,0,0.5c0,0,0,0,0,0l0,0c0,0,0,0,0,0c0,0,0,0,0,0l0,0c0,0,0,0,0,0c0,0,0,0,0,0c-0.1-0.2-0.2-0.4-0.2-0.7
				c0-0.2,0-0.4,0-0.6c-0.1-0.1-0.1-0.3-0.1-0.3c0,0-0.1,0.1-0.1,0.3c0.1,0.1,0.1,0.3,0,0.5c0,0.2,0,0.2,0,0.3c0,0,0.1,0.1,0.1,0.1
				c0,0,0,0,0,0c0,0,0,0,0,0c0-0.1-0.1-0.1-0.2-0.2c-0.1-0.1-0.2-0.1-0.2-0.3c0-0.2-0.1-0.3-0.3-0.4c0,0,0,0,0,0c-0.1,0-0.1,0-0.2,0
				c0.1,0.1,0.1,0.2,0.1,0.3c0,0.2,0.1,0.3,0.2,0.4c0.1,0.1,0.2,0.1,0.2,0.1c0.2,0.1,0.4,0.1,0.5,0.5c0.1,0.1,0.2,0.1,0.2,0.2
				c0,0,0,0,0,0c0,0,0,0,0,0c0-0.1-0.1-0.2-0.2-0.2c0,0,0,0,0,0c0,0-0.1,0-0.1-0.1c0,0-0.1,0-0.1-0.1c0,0.1,0.1,0.3,0.2,0.4
				c0,0,0,0,0,0c0,0,0,0,0,0c0,0,0,0,0.1,0.1c0.1,0,0.1-0.1,0.2-0.1c0,0,0,0,0,0c0,0,0,0,0,0c-0.2,0.1-0.3,0.1-0.4,0.2l0,0
				c-0.1,0-0.2,0-0.3,0.1l0,0l0,0c-0.1,0.1-0.2,0.2-0.3,0.4C-237.4,398.8-237.4,398.8-237.3,398.8L-237.3,398.8
				C-237.3,398.8-237.3,398.8-237.3,398.8c0.1,0,0.3-0.1,0.4-0.2c0.1-0.1,0.2-0.2,0.2-0.3c0.1-0.1,0.1-0.2,0.2-0.2c0,0,0,0,0,0
				c0,0,0,0,0,0c0,0,0,0,0,0c-0.1,0-0.1,0.1-0.2,0.2c-0.1,0.1-0.1,0.2-0.2,0.3C-236.9,398.8-237.1,398.8-237.3,398.8z M-237.6,398
				c0,0.2,0.2,0.4,0.3,0.4c0.1-0.1,0.2-0.1,0.3-0.1l0,0c0.1,0,0.1,0,0.2,0c0,0,0,0-0.1,0c0,0,0,0,0,0c0,0,0,0-0.1,0
				c-0.1-0.1-0.3-0.1-0.5-0.1C-237.4,398-237.5,398-237.6,398z M-236.4,397.1c0,0.1,0,0.2,0,0.3c0,0,0,0,0,0
				c0.1-0.3,0.2-0.4,0.3-0.5c0.1,0,0.1-0.1,0.2-0.2c0.1-0.1,0.1-0.2,0.1-0.3l0,0c0-0.1,0-0.3-0.1-0.4c0,0-0.1,0.1-0.1,0.2
				c-0.1,0.1-0.2,0.2-0.2,0.3c0,0,0,0,0,0c0,0,0,0.1,0,0.1c0,0,0,0,0,0c0,0,0,0,0,0c0,0,0,0,0,0c0,0.1,0,0.2-0.1,0.4c0,0,0,0,0,0
				c0,0,0,0,0,0l0,0C-236.4,397-236.4,397-236.4,397.1z M-237.4,396.6c0,0.1,0.1,0.2,0.1,0.3c0,0.2,0.1,0.3,0.2,0.3c0,0,0,0,0,0
				c0-0.1,0-0.1,0-0.3c0-0.1,0-0.4,0-0.5l0,0l0,0c0,0,0,0,0,0l0,0c0,0,0,0,0,0c0-0.1-0.1-0.2-0.2-0.2l0,0c0,0,0,0.1,0,0.1
				c0,0,0,0,0,0c0,0,0,0,0,0.1C-237.4,396.4-237.4,396.5-237.4,396.6C-237.4,396.6-237.4,396.6-237.4,396.6z M-235.8,396.3
				c0,0.1,0,0.2-0.1,0.3c-0.1,0.1-0.1,0.1-0.2,0.2c-0.1,0.1-0.2,0.2-0.3,0.4c0.1-0.1,0.2-0.3,0.4-0.3c0.2,0,0.3-0.3,0.4-0.5
				c0-0.1,0.1-0.1,0.1-0.2C-235.6,396.2-235.7,396.2-235.8,396.3z M-236.7,396.2c0,0.3,0.2,0.5,0.3,0.6c0,0,0.1,0.1,0.1,0.1
				c0.1-0.2,0.1-0.3,0.1-0.4c0,0,0,0,0,0c0-0.2-0.2-0.3-0.3-0.3c0,0-0.1-0.1-0.1-0.1C-236.7,396.1-236.7,396.1-236.7,396.2
				C-236.7,396.2-236.7,396.2-236.7,396.2z M-237.7,396.5c0.1,0,0.2,0.1,0.2,0.1c0,0,0,0,0,0c0,0,0,0,0,0c0,0,0,0,0,0
				c0-0.1-0.1-0.1-0.1-0.2c0-0.1-0.1-0.1-0.1-0.2c0,0,0,0,0,0c0,0,0,0,0,0c0,0,0,0,0,0c0,0,0.1,0.1,0.1,0.2c0,0.1,0.1,0.1,0.1,0.2
				c0-0.1,0-0.1,0.1-0.2c0,0,0,0,0-0.1c-0.1-0.1-0.1-0.1-0.2-0.1c-0.1,0-0.1-0.1-0.2-0.1C-237.7,396.2-237.7,396.4-237.7,396.5z
				 M-236.4,396.2c0.1,0.1,0.1,0.1,0.2,0.2c0,0,0-0.1,0-0.1c0-0.5,0.1-0.5,0.4-0.7c0.2-0.2,0.2-0.4,0.2-0.6v0c0,0,0-0.1,0-0.1
				c0-0.1,0-0.3,0.1-0.4c-0.2,0.1-0.3,0.2-0.4,0.3c0.1,0.3,0,0.5-0.1,0.7C-236.3,395.7-236.4,395.9-236.4,396.2
				C-236.4,396.2-236.4,396.2-236.4,396.2z M-237.3,395.5c0.1,0.3,0.3,0.5,0.6,0.7c0-0.1,0-0.1,0-0.2c0,0,0,0,0,0c0,0,0,0,0,0
				c0,0,0,0,0,0c0,0,0.1,0.1,0.1,0.1c0,0,0,0,0,0c0,0,0-0.1,0-0.1c0,0,0,0,0,0c0-0.1-0.1-0.1-0.1-0.2c0,0,0,0,0,0
				c-0.1-0.1-0.3-0.2-0.4-0.2c0,0,0,0-0.1,0c0,0,0,0,0,0C-237.2,395.5-237.2,395.5-237.3,395.5z M-236.5,396.1
				C-236.5,396.1-236.4,396.1-236.5,396.1c0-0.2,0.2-0.4,0.4-0.7c0.1-0.1,0.1-0.4,0.1-0.7c0,0,0,0,0,0c0-0.1-0.1-0.2-0.1-0.3
				c0,0.2-0.1,0.3-0.1,0.4c0,0-0.1,0.1-0.1,0.1c0,0,0,0,0,0c0,0.1-0.1,0.2,0,0.3c0,0.1,0,0.3-0.1,0.5c0,0,0,0,0,0
				c0,0.1-0.1,0.2-0.1,0.2C-236.5,396-236.5,396.1-236.5,396.1C-236.5,396.1-236.5,396.1-236.5,396.1z M-237.1,395.5
				C-237.1,395.5-237.1,395.6-237.1,395.5c0.2,0.1,0.4,0.1,0.5,0.2c0-0.2-0.1-0.4-0.2-0.5c0,0,0,0,0,0c0,0-0.1-0.1-0.1-0.1
				c0,0,0,0,0,0c0,0-0.1,0-0.1-0.1c-0.1,0-0.1-0.1-0.2-0.1C-237.3,395.1-237.3,395.3-237.1,395.5z M-236.6,394.8c0,0.1,0,0.2,0,0.3
				c0,0.1,0,0.2,0,0.3c0,0,0.1,0.1,0.1,0.2c0,0.1,0.1,0.1,0.1,0.2c0-0.2,0.1-0.3,0.1-0.4c0-0.1,0-0.2,0-0.3
				C-236.4,394.9-236.5,394.8-236.6,394.8z M-237,395.1C-237,395.1-236.9,395.2-237,395.1c0.1-0.2,0.3-0.4,0.5-0.5
				c0.1,0,0.1-0.1,0.1-0.2c0-0.1,0.1-0.2,0.2-0.2c-0.1,0-0.2-0.1-0.3,0c0,0,0,0,0,0c0,0-0.1,0-0.1,0c-0.1,0-0.2,0.2-0.2,0.3
				c0,0,0,0,0,0c0,0,0,0,0,0c-0.1,0.1-0.1,0.3-0.1,0.4C-236.9,395-236.9,395-237,395.1C-237,395-237,395-237,395.1
				c0-0.1,0-0.1,0-0.1c0-0.2,0.1-0.3,0.1-0.5c0-0.1,0-0.3,0-0.4c0,0,0,0,0,0c0,0,0,0,0,0c0-0.1-0.1-0.1-0.1-0.2
				c0,0.1-0.1,0.1-0.1,0.2c-0.1,0.1-0.1,0.2-0.2,0.4c0,0.1,0.1,0.2,0.1,0.3C-237,394.9-237,395-237,395.1z M-236.8,394.1
				c0,0.1,0.1,0.2,0,0.3c0.1-0.1,0.1-0.2,0.2-0.2c0,0,0.1,0,0.1,0c0-0.1,0-0.3-0.1-0.4c0,0.1-0.1,0.1-0.1,0.2
				C-236.7,394-236.8,394-236.8,394.1z M-235.5,399.7C-235.5,399.7-235.5,399.7-235.5,399.7C-235.6,399.7-235.6,399.7-235.5,399.7
				c0.1-0.1,0.4-0.2,0.6-0.2c0.1,0,0.3,0,0.4-0.1c0,0,0,0,0,0c0,0,0,0,0,0c-0.1,0-0.2,0.1-0.4,0.1
				C-235.2,399.6-235.4,399.6-235.5,399.7C-235.5,399.7-235.5,399.7-235.5,399.7z M-236.9,399.5
				C-236.9,399.5-236.9,399.5-236.9,399.5C-236.9,399.5-236.9,399.5-236.9,399.5c0.1-0.1,0.2-0.1,0.4-0.1c0.1,0,0.3,0,0.4-0.1
				c0,0,0,0,0,0c0,0,0,0,0,0c-0.1,0.1-0.3,0.1-0.4,0.1C-236.7,399.5-236.8,399.5-236.9,399.5C-236.9,399.5-236.9,399.5-236.9,399.5z
				 M-234.1,399.3C-234.1,399.3-234.1,399.3-234.1,399.3c-0.1,0-0.1-0.1-0.2-0.1c-0.1-0.1-0.2-0.2-0.3-0.3c0,0,0,0,0,0c0,0,0,0,0,0
				c0.1,0.1,0.2,0.2,0.3,0.3C-234.2,399.2-234.1,399.3-234.1,399.3C-234.1,399.3-234.1,399.3-234.1,399.3
				C-234.1,399.3-234.1,399.3-234.1,399.3z M-235.3,399.3C-235.3,399.3-235.3,399.3-235.3,399.3
				C-235.3,399.3-235.3,399.3-235.3,399.3c0.2-0.1,0.4-0.1,0.5-0.1c0,0,0,0,0,0c0,0,0,0,0,0c0,0,0,0,0,0
				C-235,399.2-235.2,399.2-235.3,399.3C-235.3,399.3-235.3,399.3-235.3,399.3z M-233.7,399.2C-233.8,399.2-233.8,399.2-233.7,399.2
				c0-0.1,0-0.1,0-0.2c0-0.1,0-0.2,0-0.4c0,0,0,0,0,0c0,0,0,0,0,0c0.1,0.1,0,0.3,0,0.4C-233.7,399.1-233.7,399.1-233.7,399.2
				C-233.7,399.2-233.7,399.2-233.7,399.2C-233.7,399.2-233.7,399.2-233.7,399.2z M-236,399.1C-236,399.1-236,399.1-236,399.1
				c-0.1-0.1-0.2,0-0.3,0c-0.1,0-0.2,0-0.3,0c0,0,0,0,0,0c0,0,0,0,0,0c0.1,0,0.2,0,0.3,0C-236.2,399-236.1,399-236,399.1
				C-236,399.1-236,399.1-236,399.1C-236,399.1-236,399.1-236,399.1z M-237.2,399C-237.2,399-237.2,399-237.2,399
				C-237.2,399-237.2,398.9-237.2,399c0-0.1,0.1-0.1,0.2-0.1c0.1,0,0.3-0.1,0.4-0.2c0,0,0,0,0,0c0,0,0,0,0,0
				c-0.1,0.1-0.3,0.2-0.4,0.2C-237.1,398.9-237.2,398.9-237.2,399C-237.2,399-237.2,399-237.2,399z M-235,398.8
				C-235,398.8-235,398.8-235,398.8C-235.1,398.8-235.1,398.8-235,398.8c0-0.1,0.1-0.2,0.1-0.2c0-0.1,0-0.2,0.1-0.2c0,0,0,0,0,0
				c0,0,0,0,0,0c0,0.1-0.1,0.2-0.1,0.2C-235,398.7-235,398.8-235,398.8C-235,398.8-235,398.8-235,398.8z M-235.6,398.8
				C-235.6,398.8-235.6,398.8-235.6,398.8c0-0.1,0-0.2,0-0.3c0-0.1,0-0.2,0-0.3c0,0,0,0,0,0h0c0,0,0,0,0,0c0,0.1,0,0.2,0,0.3
				C-235.5,398.6-235.6,398.7-235.6,398.8C-235.5,398.8-235.6,398.8-235.6,398.8C-235.6,398.8-235.6,398.8-235.6,398.8z
				 M-237.4,398.7C-237.4,398.7-237.4,398.7-237.4,398.7C-237.4,398.7-237.4,398.7-237.4,398.7c0.1-0.1,0.2-0.1,0.3-0.2
				c0.1,0,0.2-0.1,0.3-0.1c0,0,0,0,0,0c0,0,0,0,0,0c-0.1,0.1-0.2,0.1-0.3,0.1C-237.2,398.6-237.3,398.7-237.4,398.7
				C-237.4,398.7-237.4,398.7-237.4,398.7z M-236,398.7C-236,398.7-236,398.7-236,398.7c0-0.1,0-0.2,0-0.4c0-0.1,0-0.2,0-0.3
				c0,0,0,0,0,0c0,0,0,0,0,0c0,0.1,0,0.2,0,0.3C-236,398.5-236,398.6-236,398.7C-236,398.7-236,398.7-236,398.7
				C-236,398.7-236,398.7-236,398.7z M-235.3,398.7C-235.3,398.7-235.3,398.7-235.3,398.7C-235.3,398.7-235.3,398.7-235.3,398.7
				c0-0.1,0-0.2,0-0.2c0-0.1,0-0.2,0-0.4c0,0,0,0,0,0c0,0,0,0,0,0c0,0,0,0,0,0c0,0.1,0,0.3,0,0.4
				C-235.2,398.5-235.2,398.6-235.3,398.7C-235.3,398.7-235.3,398.7-235.3,398.7z M-237,398.2C-237,398.2-237,398.2-237,398.2
				c-0.1,0-0.2-0.1-0.3-0.1c-0.1,0-0.2-0.1-0.3-0.1c0,0,0,0,0,0c0,0,0,0,0,0c0.1,0.1,0.2,0.1,0.3,0.1
				C-237.1,398.1-237,398.2-237,398.2C-237,398.2-237,398.2-237,398.2C-237,398.2-237,398.2-237,398.2z M-236.1,397.7
				C-236.1,397.7-236.1,397.7-236.1,397.7C-236.1,397.7-236.1,397.7-236.1,397.7c0.1-0.1,0.2-0.2,0.3-0.3c0.1-0.1,0.1-0.2,0.2-0.3
				c0,0,0,0,0,0c0,0,0,0,0,0c-0.1,0-0.1,0.1-0.2,0.2C-235.8,397.5-235.9,397.7-236.1,397.7C-236.1,397.7-236.1,397.7-236.1,397.7z
				 M-236.3,397.6C-236.3,397.6-236.3,397.6-236.3,397.6C-236.3,397.6-236.3,397.6-236.3,397.6c0-0.1,0.1-0.2,0.1-0.2
				c0-0.1,0.1-0.1,0.1-0.3c0,0,0,0,0,0c0,0,0,0,0,0c0,0.1-0.1,0.2-0.1,0.3C-236.2,397.4-236.2,397.5-236.3,397.6
				C-236.3,397.6-236.3,397.6-236.3,397.6z M-236.5,397.3C-236.6,397.3-236.6,397.3-236.5,397.3
				C-236.6,397.3-236.6,397.3-236.5,397.3c0-0.1,0-0.2-0.1-0.2c0-0.1-0.1-0.2-0.1-0.3c0,0,0,0,0,0c0,0,0,0,0,0c0,0.1,0,0.2,0.1,0.2
				C-236.5,397.1-236.5,397.2-236.5,397.3C-236.5,397.3-236.5,397.3-236.5,397.3z M-237.3,397.2
				C-237.3,397.2-237.3,397.2-237.3,397.2c-0.1-0.1-0.1-0.2-0.2-0.3c-0.1-0.1-0.1-0.3-0.3-0.4c0,0,0,0,0,0c0,0,0,0,0,0
				c0.2,0.1,0.3,0.3,0.3,0.4C-237.4,397.1-237.4,397.2-237.3,397.2C-237.3,397.2-237.3,397.2-237.3,397.2
				C-237.3,397.2-237.3,397.2-237.3,397.2z M-237.2,396.9C-237.2,396.9-237.2,396.9-237.2,396.9c0-0.1,0-0.2,0-0.2
				c0-0.1,0-0.2,0-0.3c0,0,0,0,0,0c0,0,0,0,0,0c0,0.1,0,0.2,0.1,0.3C-237.2,396.7-237.2,396.8-237.2,396.9
				C-237.2,396.9-237.2,396.9-237.2,396.9C-237.2,396.9-237.2,396.9-237.2,396.9z M-235.9,396.7
				C-235.9,396.7-235.9,396.7-235.9,396.7C-235.9,396.7-235.9,396.7-235.9,396.7c0.1-0.1,0.1-0.2,0.2-0.3c0.1-0.1,0.1-0.2,0.2-0.2
				c0,0,0,0,0,0c0,0,0,0,0,0c-0.1,0.1-0.1,0.1-0.2,0.2C-235.7,396.6-235.8,396.7-235.9,396.7C-235.9,396.7-235.9,396.7-235.9,396.7z
				 M-236.1,396.7C-236.1,396.7-236.1,396.7-236.1,396.7C-236.1,396.7-236.1,396.7-236.1,396.7c0.1-0.1,0.1-0.2,0.1-0.4
				c0-0.1,0-0.2,0.1-0.3c0,0,0,0,0,0c0,0,0,0,0,0c-0.1,0.1-0.1,0.2-0.1,0.3C-236,396.4-236,396.6-236.1,396.7
				C-236.1,396.7-236.1,396.7-236.1,396.7z M-236.4,396.6C-236.4,396.6-236.4,396.6-236.4,396.6c0-0.1-0.1-0.1-0.1-0.2
				c-0.1-0.1-0.1-0.2-0.1-0.3c0,0,0,0,0,0c0,0,0,0,0,0c0,0,0,0,0,0c0,0.1,0.1,0.2,0.1,0.3C-236.4,396.4-236.4,396.5-236.4,396.6
				C-236.4,396.6-236.4,396.6-236.4,396.6C-236.4,396.6-236.4,396.6-236.4,396.6z M-236.8,395.9
				C-236.8,395.9-236.8,395.9-236.8,395.9c0-0.1-0.1-0.1-0.2-0.2c-0.1-0.1-0.2-0.1-0.2-0.2c0,0,0,0,0,0c0,0,0,0,0,0
				c0,0.1,0.1,0.1,0.2,0.2C-236.9,395.8-236.8,395.9-236.8,395.9C-236.8,395.9-236.8,395.9-236.8,395.9
				C-236.8,395.9-236.8,395.9-236.8,395.9z M-236.8,395.6C-236.8,395.6-236.8,395.6-236.8,395.6c0-0.1-0.1-0.2-0.2-0.2
				c-0.1-0.1-0.2-0.2-0.2-0.3c0,0,0,0,0,0c0,0,0,0,0,0c0,0.1,0.1,0.2,0.2,0.3C-236.9,395.4-236.9,395.5-236.8,395.6
				C-236.8,395.6-236.8,395.6-236.8,395.6C-236.8,395.6-236.8,395.6-236.8,395.6z M-236.4,395.4
				C-236.4,395.4-236.4,395.4-236.4,395.4c0-0.1-0.1-0.2-0.1-0.3c0-0.1,0-0.3-0.1-0.3c0,0,0,0,0,0c0,0,0,0,0,0
				c0,0.1,0.1,0.2,0.1,0.3C-236.4,395.3-236.4,395.4-236.4,395.4C-236.4,395.4-236.4,395.4-236.4,395.4
				C-236.4,395.4-236.4,395.4-236.4,395.4z M-236.2,395.4C-236.2,395.4-236.2,395.4-236.2,395.4c0-0.1,0-0.3,0.1-0.4
				c0-0.1,0.1-0.3,0.1-0.4c0,0,0,0,0,0c0,0,0,0,0,0c0,0,0,0,0,0c0,0.1,0,0.2-0.1,0.4C-236.1,395.1-236.2,395.3-236.2,395.4
				C-236.2,395.4-236.2,395.4-236.2,395.4z M-236.8,394.8C-236.8,394.8-236.8,394.8-236.8,394.8
				C-236.8,394.8-236.8,394.7-236.8,394.8c0,0,0-0.1,0.1-0.1c0.1-0.1,0.3-0.4,0.5-0.4c0,0,0,0,0,0c0,0,0,0,0,0c0,0,0,0,0,0
				C-236.4,394.3-236.6,394.5-236.8,394.8C-236.8,394.7-236.8,394.7-236.8,394.8C-236.8,394.8-236.8,394.8-236.8,394.8z M-237,394.7
				C-237,394.7-237,394.7-237,394.7c0-0.2,0-0.3,0-0.5c0-0.1,0-0.2,0-0.3c0,0,0,0,0,0c0,0,0,0,0,0c0,0,0,0,0,0c0,0.1,0,0.2,0,0.3
				C-237,394.4-237,394.6-237,394.7C-237,394.7-237,394.7-237,394.7C-237,394.7-237,394.7-237,394.7z"/>
		</g>
		<g>
			<path class="st3" d="M-235.7,394.6c-0.1,0.2,0,0.6-0.2,0.8c-0.2,0.2-0.4,0.4-0.4,0.7"/>
		</g>
		<g>
			<path d="M-236.3,396.2C-236.3,396.2-236.3,396.2-236.3,396.2c0-0.3,0.1-0.5,0.3-0.7c0,0,0.1-0.1,0.1-0.1c0.1-0.1,0.1-0.3,0.1-0.4
				c0-0.1,0-0.3,0.1-0.4c0,0,0,0,0,0c0,0,0,0,0,0c-0.1,0.1-0.1,0.2-0.1,0.4c0,0.2,0,0.3-0.1,0.5c0,0-0.1,0.1-0.1,0.1
				C-236.2,395.8-236.3,395.9-236.3,396.2C-236.3,396.2-236.3,396.2-236.3,396.2C-236.3,396.2-236.3,396.2-236.3,396.2z"/>
		</g>
		<g>
			<path class="st1" d="M-233.5,400.4c-0.1,0-0.3,0-0.4,0.1c0,0.1,0,0.3,0,0.4c0.1,0,0.2-0.1,0.3-0.1V400.4L-233.5,400.4z"/>
		</g>
		<g>
			<path d="M-233.9,400.9C-233.9,400.9-233.9,400.9-233.9,400.9C-233.9,400.9-233.9,400.9-233.9,400.9c0-0.1,0-0.3-0.1-0.4
				c0,0,0,0,0,0c0.1-0.1,0.3-0.1,0.4-0.1c0,0,0,0,0,0c0,0,0,0,0,0v0.3c0,0,0,0,0,0C-233.6,400.8-233.8,400.8-233.9,400.9
				C-233.9,400.9-233.9,400.9-233.9,400.9z M-233.9,400.5c0,0.1,0,0.2,0,0.3c0.1,0,0.2-0.1,0.3-0.1v-0.3
				C-233.7,400.4-233.8,400.5-233.9,400.5z"/>
		</g>
		<g>
			<path class="st1" d="M-233,400.4c-0.3-0.1-0.5-0.1-0.5,0s0,0.2,0,0.3c0,0.1,0.1,0.1,0.5,0V400.4L-233,400.4z"/>
		</g>
		<g>
			<path d="M-233.4,400.8c-0.1,0-0.1,0-0.2,0c0,0,0,0,0,0v-0.3c0,0,0-0.1,0-0.1c0.1,0,0.2-0.1,0.5,0c0,0,0,0,0,0v0.3l0,0l0,0
				c0,0,0,0,0,0l0,0c0,0,0,0,0,0c0,0,0,0,0,0C-233.2,400.8-233.3,400.8-233.4,400.8z M-233.5,400.7c0.1,0,0.2,0,0.4,0.1v-0.3
				c-0.2-0.1-0.4-0.1-0.5,0c0,0,0,0,0,0.1v0.2C-233.5,400.7-233.5,400.7-233.5,400.7z"/>
		</g>
		<g>
			<path class="st1" d="M-232.3,400.4c0.1,0,0.3,0,0.4,0.1c0,0.1,0,0.3,0,0.4c-0.1,0-0.2-0.1-0.3-0.1V400.4L-232.3,400.4z"/>
		</g>
		<g>
			<path d="M-231.9,400.9C-232,400.9-232,400.9-231.9,400.9c-0.1,0-0.2-0.1-0.3-0.1c0,0,0,0,0,0v-0.3c0,0,0,0,0,0c0,0,0,0,0,0
				c0.1,0,0.3,0,0.4,0.1c0,0,0,0,0,0C-231.9,400.6-231.9,400.8-231.9,400.9C-231.9,400.9-231.9,400.9-231.9,400.9
				C-231.9,400.9-231.9,400.9-231.9,400.9z"/>
		</g>
		<g>
			<path class="st1" d="M-232.8,400.4c0.3-0.1,0.5-0.1,0.5,0s0,0.2,0,0.3c0,0.1-0.1,0.1-0.5,0V400.4L-232.8,400.4z"/>
		</g>
		<g>
			<path d="M-232.4,400.8c-0.1,0-0.2,0-0.4-0.1c0,0,0,0,0,0c0,0,0,0,0,0l0,0c0,0,0,0,0,0l0,0l0,0v-0.3c0,0,0,0,0,0
				c0.3-0.1,0.4-0.1,0.5,0c0,0,0,0,0,0.1v0.3c0,0,0,0,0,0C-232.3,400.8-232.3,400.8-232.4,400.8z M-232.7,400.8c0.3,0.1,0.4,0,0.4,0
				c0,0,0,0,0,0v0c0,0,0,0,0,0C-232.3,400.7-232.4,400.7-232.7,400.8z M-232.8,400.4v0.3c0.3-0.1,0.4-0.1,0.5-0.1v-0.2
				c0,0,0,0,0-0.1C-232.4,400.4-232.5,400.4-232.8,400.4z"/>
		</g>
		<g>
			<path class="st1" d="M-232.9,400.4c0.2,0,0.2,0,0.2,0.2s0,0.2-0.2,0.2c-0.2,0-0.2,0-0.2-0.2S-233.1,400.4-232.9,400.4
				L-232.9,400.4z"/>
		</g>
		<g>
			<path d="M-232.9,400.8c-0.2,0-0.2-0.1-0.2-0.2s0.1-0.2,0.2-0.2s0.2,0.1,0.2,0.2S-232.7,400.8-232.9,400.8z M-232.9,400.4
				c-0.2,0-0.2,0-0.2,0.2s0,0.2,0.2,0.2s0.2,0,0.2-0.2S-232.8,400.4-232.9,400.4z"/>
		</g>
		<g>
			<path class="st3" d="M-237.4,400.8c-0.1,0-0.1,0.2-0.2,0.2"/>
		</g>
		<g>
			<path class="st7" d="M-237.4,400.8c-0.1,0-0.1,0.2-0.2,0.2"/>
		</g>
		<g>
			<path class="st3" d="M-237.3,400.8c-0.1,0-0.1,0.2-0.2,0.2"/>
		</g>
		<g>
			<path class="st7" d="M-237.3,400.8c-0.1,0-0.1,0.2-0.2,0.2"/>
		</g>
		<g>
			<path class="st3" d="M-237.3,400.9c-0.1,0-0.1,0.2-0.2,0.3"/>
		</g>
		<g>
			<path class="st7" d="M-237.3,400.9c-0.1,0-0.1,0.2-0.2,0.3"/>
		</g>
		<g>
			<path class="st3" d="M-237.2,400.9c-0.1,0-0.1,0.2-0.2,0.3"/>
		</g>
		<g>
			<path class="st7" d="M-237.2,400.9c-0.1,0-0.1,0.2-0.2,0.3"/>
		</g>
		<g>
			<path class="st3" d="M-237.2,401c-0.1,0.1-0.1,0.2-0.2,0.3"/>
		</g>
		<g>
			<path class="st7" d="M-237.2,401c-0.1,0.1-0.1,0.2-0.2,0.3"/>
		</g>
		<g>
			<path class="st3" d="M-237.1,401.1c-0.1,0.1-0.1,0.2-0.2,0.3"/>
		</g>
		<g>
			<path class="st7" d="M-237.1,401.1c-0.1,0.1-0.1,0.2-0.2,0.3"/>
		</g>
		<g>
			<path class="st3" d="M-237.1,401.1c-0.1,0.1-0.1,0.2-0.2,0.3"/>
		</g>
		<g>
			<path class="st7" d="M-237.1,401.1c-0.1,0.1-0.1,0.2-0.2,0.3"/>
		</g>
		<g>
			<path class="st3" d="M-237,401.2c-0.1,0.1-0.1,0.2-0.2,0.3"/>
		</g>
		<g>
			<path class="st7" d="M-237,401.2c-0.1,0.1-0.1,0.2-0.2,0.3"/>
		</g>
		<g>
			<path class="st3" d="M-237,401.2c-0.1,0.1-0.1,0.2-0.2,0.3"/>
		</g>
		<g>
			<path class="st7" d="M-237,401.2c-0.1,0.1-0.1,0.2-0.2,0.3"/>
		</g>
		<g>
			<path class="st3" d="M-236.9,401.3c-0.1,0.1-0.1,0.2-0.2,0.3"/>
		</g>
		<g>
			<path class="st7" d="M-236.9,401.3c-0.1,0.1-0.1,0.2-0.2,0.3"/>
		</g>
		<g>
			<path class="st3" d="M-228.4,400.8c0.1,0,0.1,0.2,0.2,0.2"/>
		</g>
		<g>
			<path class="st7" d="M-228.4,400.8c0.1,0,0.1,0.2,0.2,0.2"/>
		</g>
		<g>
			<path class="st3" d="M-228.5,400.8c0.1,0,0.1,0.2,0.2,0.2"/>
		</g>
		<g>
			<path class="st7" d="M-228.5,400.8c0.1,0,0.1,0.2,0.2,0.2"/>
		</g>
		<g>
			<path class="st3" d="M-228.5,400.9c0.1,0,0.1,0.2,0.2,0.3"/>
		</g>
		<g>
			<path class="st7" d="M-228.5,400.9c0.1,0,0.1,0.2,0.2,0.3"/>
		</g>
		<g>
			<path class="st3" d="M-228.6,400.9c0.1,0,0.1,0.2,0.2,0.3"/>
		</g>
		<g>
			<path class="st7" d="M-228.6,400.9c0.1,0,0.1,0.2,0.2,0.3"/>
		</g>
		<g>
			<path class="st3" d="M-228.6,401c0.1,0.1,0.1,0.2,0.2,0.3"/>
		</g>
		<g>
			<path class="st7" d="M-228.6,401c0.1,0.1,0.1,0.2,0.2,0.3"/>
		</g>
		<g>
			<path class="st3" d="M-228.7,401.1c0.1,0.1,0.1,0.2,0.2,0.3"/>
		</g>
		<g>
			<path class="st7" d="M-228.7,401.1c0.1,0.1,0.1,0.2,0.2,0.3"/>
		</g>
		<g>
			<path class="st3" d="M-228.7,401.1c0.1,0.1,0.1,0.2,0.2,0.3"/>
		</g>
		<g>
			<path class="st7" d="M-228.7,401.1c0.1,0.1,0.1,0.2,0.2,0.3"/>
		</g>
		<g>
			<path class="st3" d="M-228.8,401.2c0.1,0.1,0.1,0.2,0.2,0.3"/>
		</g>
		<g>
			<path class="st7" d="M-228.8,401.2c0.1,0.1,0.1,0.2,0.2,0.3"/>
		</g>
		<g>
			<path class="st3" d="M-228.8,401.2c0.1,0.1,0.1,0.2,0.2,0.3"/>
		</g>
		<g>
			<path class="st7" d="M-228.8,401.2c0.1,0.1,0.1,0.2,0.2,0.3"/>
		</g>
		<g>
			<path class="st3" d="M-228.9,401.3c0.1,0.1,0.1,0.2,0.2,0.3"/>
		</g>
		<g>
			<path class="st7" d="M-228.9,401.3c0.1,0.1,0.1,0.2,0.2,0.3"/>
		</g>
		<g>
			<path class="st1" d="M-232.9,400.1c0.9,0,1.6,0.1,2.2,0.2c-0.1,0.1-0.1,0.1-0.2,0.2c-0.1,0,0,0.2,0.1,0.3
				c0.1,0.1,0.4,0.2,0.7,0.1c0.1,0,0.1,0,0.2-0.1c-0.1,0.1-0.1,0.2-0.1,0.2c0.2,0.4,0.8-0.1,1.2,0.4c0.1-0.1,0.4-0.4,0.5-0.5
				c-0.2-0.3-0.5-0.2-0.8-0.2c0.1-0.2,0.1-0.3-0.1-0.4c-0.1-0.1-0.4,0-0.6,0.1c0-0.1,0-0.3-0.4-0.5c-0.6-0.3-1.7-0.3-2.6-0.3
				c-1,0-2,0.1-2.6,0.3c-0.4,0.2-0.4,0.4-0.4,0.5c-0.3-0.1-0.5-0.1-0.6-0.1c-0.2,0.1-0.2,0.3-0.1,0.4c-0.3,0-0.6-0.1-0.8,0.2
				c0.1,0.1,0.4,0.4,0.5,0.5c0.4-0.5,1,0,1.2-0.4c0-0.1,0-0.2-0.1-0.2c0.1,0,0.1,0,0.2,0.1c0.3,0.1,0.6,0,0.7-0.1
				c0.1-0.1,0.1-0.2,0.1-0.3c0,0-0.1-0.1-0.2-0.2C-234.5,400.2-233.8,400.1-232.9,400.1L-232.9,400.1z"/>
		</g>
		<g>
			<path d="M-237,401.3L-237,401.3C-237,401.3-237,401.3-237,401.3c-0.1-0.1-0.4-0.4-0.5-0.5c0,0,0,0,0,0c0.2-0.3,0.5-0.2,0.7-0.2
				l0,0c-0.1-0.1-0.1-0.3,0.1-0.4c0.1-0.1,0.4-0.1,0.6,0.1c0-0.1,0-0.3,0.4-0.5c0.5-0.2,1.4-0.3,2.6-0.3c1.3,0,2.1,0.1,2.6,0.3
				c0.4,0.2,0.4,0.4,0.4,0.5c0.3-0.1,0.5-0.1,0.6-0.1c0.2,0.1,0.2,0.3,0.1,0.4l0,0c0.2,0,0.5,0,0.7,0.2c0,0,0,0,0,0
				c-0.1,0.1-0.4,0.4-0.5,0.5c0,0,0,0,0,0l0,0c0,0,0,0,0,0c-0.2-0.2-0.5-0.2-0.7-0.2c-0.2,0-0.4,0-0.5-0.2c0,0,0,0,0,0l0,0
				c0,0,0,0,0,0c0,0,0,0,0,0c0-0.1,0-0.1,0.1-0.1c0,0-0.1,0-0.1,0c-0.3,0.1-0.6,0-0.7-0.1c-0.1-0.1-0.1-0.1-0.1-0.2c0,0,0-0.1,0-0.1
				l0,0c0,0,0,0,0,0c0,0,0,0,0.1-0.1c0,0,0.1-0.1,0.1-0.1c-0.5-0.1-1.3-0.2-2.2-0.2s-1.6,0.1-2.2,0.2c0,0,0.1,0.1,0.1,0.1
				c0,0,0,0,0.1,0.1c0,0,0,0,0,0.1c0,0.1,0,0.1-0.1,0.2c-0.1,0.1-0.4,0.2-0.7,0.1c0,0-0.1,0-0.1,0c0,0,0.1,0.1,0.1,0.1
				c0,0,0,0,0,0.1l0,0c0,0,0,0,0,0v0c-0.1,0.2-0.3,0.2-0.5,0.2C-236.5,401.1-236.8,401.1-237,401.3C-237,401.3-237,401.3-237,401.3z
				 M-229.4,401.1c0.2,0,0.4,0,0.5,0.2c0.1-0.1,0.3-0.4,0.4-0.5c-0.2-0.2-0.5-0.2-0.7-0.2l0,0c0,0-0.1,0.1-0.1,0.1c0,0,0,0,0,0.1
				c0,0,0,0,0,0c0,0.1-0.1,0.1-0.2,0.1c0,0,0,0-0.1,0c-0.1,0-0.2,0-0.3,0c-0.1,0-0.2,0-0.2,0c0,0,0,0,0,0c0,0,0,0,0,0c0,0,0,0,0,0
				l0,0c0.1,0.2,0.2,0.2,0.5,0.1C-229.5,401.1-229.5,401.1-229.4,401.1z M-237.4,400.8c0.1,0.1,0.3,0.4,0.5,0.5
				c0.2-0.2,0.5-0.2,0.7-0.2c0.2,0,0.4,0,0.5-0.1l0,0c0,0,0,0,0,0c0,0,0,0,0,0c0,0,0,0,0,0c0,0-0.1,0-0.2,0c-0.1,0-0.2,0-0.3,0
				c0,0,0,0-0.1,0c-0.1,0-0.1,0-0.2-0.1c0,0,0,0,0,0l0-0.1c0-0.1-0.1-0.1-0.1-0.1l0,0C-236.9,400.6-237.2,400.6-237.4,400.8z
				 M-230,400.8c0,0,0.1,0,0.1,0c0.1,0,0.2,0,0.3,0c0,0,0,0,0.1,0c0.1,0,0.2,0,0.2-0.1c0-0.1,0-0.1,0-0.2
				C-229.5,400.5-229.7,400.6-230,400.8C-230,400.8-230,400.8-230,400.8C-230,400.8-230,400.8-230,400.8z M-236.4,400.6
				c0,0-0.1,0-0.1,0c-0.1,0-0.1,0.1,0,0.2c0,0.1,0.1,0.1,0.2,0.1c0.1,0,0.3,0,0.4,0c0.1,0,0.1,0,0.2,0c0,0-0.1-0.1-0.1-0.1
				C-236.1,400.6-236.2,400.6-236.4,400.6z M-230.9,400.5C-230.9,400.5-230.9,400.5-230.9,400.5c0,0.1,0,0.2,0.1,0.2
				c0.1,0.1,0.4,0.2,0.7,0.1c0,0,0.1,0,0.1-0.1l0,0c0.3-0.1,0.5-0.2,0.6-0.1c0,0,0.1,0.1,0.1,0.1c0,0,0.1-0.1,0.1-0.1c0,0,0,0,0,0
				c0.1-0.2,0.1-0.3-0.1-0.4c-0.1-0.1-0.3-0.1-0.6,0.1c0,0,0,0,0,0.1l0,0c-0.1,0.2-0.2,0.3-0.3,0.3c0,0,0,0,0,0
				c-0.1,0-0.2-0.1-0.4-0.2C-230.7,400.4-230.8,400.4-230.9,400.5L-230.9,400.5z M-235.9,400.7
				C-235.9,400.7-235.9,400.7-235.9,400.7L-235.9,400.7c0.1,0,0.1,0.1,0.2,0.1c0.3,0.1,0.6,0,0.7-0.1c0.1-0.1,0.1-0.1,0.1-0.2
				c0,0,0,0,0-0.1l0,0c0,0-0.2,0-0.2,0c-0.1,0.1-0.3,0.2-0.4,0.2c0,0,0,0,0,0c-0.1,0-0.2-0.1-0.3-0.3l0,0c0,0,0,0,0-0.1
				c-0.3-0.1-0.5-0.1-0.6-0.1c-0.2,0.1-0.2,0.2-0.1,0.4c0,0,0,0,0,0c0,0,0.1,0.1,0.1,0.1c0-0.1,0-0.1,0.1-0.1
				C-236.4,400.5-236.1,400.6-235.9,400.7C-235.9,400.7-235.9,400.7-235.9,400.7z M-235.1,400.3c0,0-0.1,0-0.1,0
				c-0.2,0-0.4,0.2-0.4,0.2c0,0,0,0,0.1,0c0.1,0,0.2-0.1,0.4-0.1c0.1,0,0.1-0.1,0.2-0.1c0,0,0,0,0,0c0,0,0,0,0,0
				C-235,400.4-235.1,400.3-235.1,400.3z M-230.8,400.4c0.1,0,0.1,0,0.2,0.1c0.1,0.1,0.3,0.1,0.4,0.1c0,0,0.1,0,0.1,0
				c0-0.1-0.2-0.2-0.4-0.2c0,0-0.1,0-0.1,0C-230.8,400.3-230.8,400.4-230.8,400.4C-230.8,400.4-230.8,400.4-230.8,400.4
				C-230.8,400.4-230.8,400.4-230.8,400.4z M-235.9,400.3C-235.9,400.3-235.9,400.3-235.9,400.3L-235.9,400.3
				c0.1,0.2,0.2,0.3,0.2,0.3c0-0.1,0.2-0.2,0.4-0.3c0,0,0.1,0,0.1,0c0,0,0,0,0,0c0.6-0.1,1.3-0.2,2.2-0.2c0.9,0,1.6,0.1,2.2,0.2
				c0,0,0,0,0,0c0,0,0.1,0,0.1,0c0.2,0,0.4,0.2,0.4,0.3c0.1,0,0.1-0.1,0.2-0.2l0,0c0,0,0,0,0-0.1c0,0,0,0,0,0
				c0.1-0.2-0.1-0.4-0.4-0.5c-0.5-0.2-1.3-0.3-2.6-0.3s-2.1,0.1-2.6,0.3C-235.9,399.9-236,400.1-235.9,400.3
				C-235.9,400.3-235.9,400.3-235.9,400.3z"/>
		</g>
		<g>
			<path class="st5" d="M-232.9,399.6c0,0,0.1,0,0.1,0c0,0,0.1,0,0.1,0.2c0,0.1,0,0.2-0.1,0.2c-0.1,0-0.1,0-0.1,0v-0.2h0.1v0.1
				c0,0,0,0,0.1,0c0,0,0.1,0,0.1-0.1c0-0.1-0.1-0.1-0.1-0.1C-232.8,399.7-232.9,399.7-232.9,399.6l0.1,0.2h-0.1V399.6L-232.9,399.6z
				"/>
		</g>
		<g>
			<path class="st5" d="M-232.5,399.9c-0.1,0-0.1-0.1-0.1-0.1c0-0.1,0-0.1,0.1-0.1c0.1,0,0.1,0.1,0.1,0.1
				C-232.4,399.9-232.4,399.9-232.5,399.9L-232.5,399.9c0.1,0.1,0.1,0,0.1-0.1c0-0.1-0.1-0.2-0.1-0.2c-0.1,0-0.1,0.1-0.1,0.2
				C-232.6,399.9-232.6,400-232.5,399.9L-232.5,399.9L-232.5,399.9z"/>
		</g>
		<g>
			<polygon class="st5" points="-232.1,400 -232.1,399.7 -232.1,400 -232,400 -232,399.6 -232.1,399.6 -232.2,399.9 -232.2,399.6 
				-232.3,399.6 -232.3,400 -232.2,400 -232.2,399.7 -232.2,400 			"/>
		</g>
		<g>
			<polygon class="st5" points="-231.9,400 -231.9,399.6 -231.9,399.6 -232,400 			"/>
		</g>
		<g>
			<polygon class="st5" points="-231.7,399.6 -231.6,399.9 -231.6,399.6 -231.6,399.6 -231.6,400 -231.6,400 -231.8,399.7 
				-231.8,400 -231.8,400 -231.8,399.6 			"/>
		</g>
		<g>
			<polygon class="st5" points="-231.5,400 -231.4,399.6 -231.5,399.6 -231.5,400 			"/>
		</g>
		<g>
			<path class="st5" d="M-231.1,399.8c0-0.1,0-0.1-0.1-0.2c-0.1,0-0.1,0.1-0.2,0.2c0,0.1,0,0.2,0.1,0.2c0.1,0,0.1,0,0.1-0.1l-0.1,0
				c0,0,0,0.1-0.1,0.1c0,0-0.1-0.1-0.1-0.1c0-0.1,0-0.1,0.1-0.1C-231.2,399.7-231.2,399.8-231.1,399.8L-231.1,399.8L-231.1,399.8z"
				/>
		</g>
		<g>
			<polygon class="st5" points="-230.9,400 -230.9,400.1 -230.9,400.1 -230.9,399.7 -231,399.7 -231.1,400.1 -231.1,400.1 
				-231.1,400 -231,400 -231,399.9 -231,399.9 -231,399.8 -231,399.9 -231,399.9 -231,400 			"/>
		</g>
		<g>
			<polygon class="st5" points="-230.7,399.8 -230.6,400 -230.6,399.8 -230.5,399.8 -230.6,400.2 -230.7,400.2 -230.7,399.9 
				-230.8,400.1 -230.8,400.1 -230.8,399.7 			"/>
		</g>
		<g>
			<polygon class="st5" points="-230.4,400.2 -230.4,400.3 -230.3,400.3 -230.3,399.9 -230.3,399.9 -230.6,400.2 -230.5,400.2 
				-230.5,400.1 -230.4,400.2 -230.4,400.1 -230.4,400.1 -230.3,400 -230.4,400.1 -230.4,400.1 -230.4,400.2 			"/>
		</g>
		<g>
			<path class="st5" d="M-235.7,399.9L-235.7,399.9L-235.7,399.9L-235.7,399.9c0.1,0,0.1,0,0.2,0c0,0,0,0,0.1,0c0,0,0,0.1,0,0.1
				c0,0-0.1,0-0.1,0L-235.7,399.9L-235.7,399.9l0.1,0.3l0.1,0l-0.1-0.1c0,0,0,0,0.1,0c0,0,0.1,0,0.1,0c0,0,0,0.1,0,0.1l0.1,0
				c0,0,0-0.1,0-0.1c0,0,0-0.1-0.1-0.1c0,0,0-0.1,0-0.1c0,0-0.1-0.1-0.1-0.1C-235.5,399.9-235.7,399.9-235.7,399.9L-235.7,399.9z"/>
		</g>
		<g>
			<path class="st5" d="M-235,399.7l0,0.1l0.1,0L-235,399.7c0.1,0.1,0.1,0,0.1,0c0,0,0.1,0,0.1,0c0,0,0,0.1,0,0.1c0,0-0.1,0-0.1,0
				l0,0l-0.1,0l0,0.2l0.1,0l0-0.1c0,0,0,0,0.1,0c0.1,0,0.1-0.1,0.1-0.1c0-0.1-0.1-0.1-0.1-0.1C-235,399.7-235,399.7-235,399.7
				L-235,399.7z"/>
		</g>
		<g>
			<path class="st5" d="M-234.6,400C-234.5,400-234.5,399.9-234.6,400c0-0.1,0-0.3,0-0.3l0.1,0c0,0,0,0.2,0,0.3
				C-234.4,400-234.5,400-234.6,400c-0.1,0.1-0.1,0-0.1-0.1c0-0.1,0-0.3,0-0.3l0.1,0C-234.7,399.7-234.6,399.9-234.6,400
				C-234.6,400-234.6,400-234.6,400L-234.6,400z"/>
		</g>
		<g>
			<path class="st5" d="M-234.4,400c0,0,0.1,0,0.1,0c0.1,0,0.1-0.1,0.1-0.1c0,0,0-0.1,0-0.1c0,0,0-0.1,0-0.1c0-0.1-0.1-0.1-0.1-0.1
				c-0.1,0-0.1,0-0.1,0l0,0.1l0.1,0l0,0c0,0,0.1,0,0.1,0c0,0,0,0,0,0c0,0,0,0,0,0c0,0-0.1,0-0.1,0l0,0l-0.1,0l0,0.2l0.1,0l0,0
				c0,0,0.1,0,0.1,0c0,0,0,0,0,0c0,0,0,0.1,0,0.1C-234.3,399.9-234.3,399.9-234.4,400l0.1-0.1l-0.1,0L-234.4,400L-234.4,400z"/>
		</g>
		<g>
			<polygon class="st5" points="-234.1,399.6 -234.1,400 -233.9,400 -233.9,399.9 -234,399.9 -234,399.6 			"/>
		</g>
		<g>
			<polygon class="st5" points="-233.8,400 -233.8,399.6 -233.8,399.6 -233.8,400 			"/>
		</g>
		<g>
			<path class="st5" d="M-233.5,399.7c0-0.1,0-0.1-0.1-0.1c-0.1,0-0.1,0.1-0.1,0.2c0,0.1,0.1,0.2,0.1,0.2c0.1,0,0.1-0.1,0.1-0.1
				l-0.1,0c0,0,0,0.1-0.1,0.1c0,0-0.1-0.1-0.1-0.1c0-0.1,0-0.1,0.1-0.1C-233.5,399.7-233.5,399.7-233.5,399.7L-233.5,399.7
				L-233.5,399.7z"/>
		</g>
		<g>
			<polygon class="st5" points="-233.2,399.9 -233.2,400 -233.2,400 -233.3,399.6 -233.3,399.6 -233.4,400 -233.4,400 -233.3,399.9 
				-233.3,399.9 -233.3,399.8 -233.3,399.8 -233.3,399.7 -233.2,399.8 -233.3,399.8 -233.3,399.9 			"/>
		</g>
		<g>
			<polygon class="st5" points="-235.1,399.7 -235.3,399.8 -235.2,400.2 -235,400.1 -235,400.1 -235.2,400.1 -235.2,400 -235.1,400 
				-235.1,399.9 -235.2,399.9 -235.2,399.8 -235.1,399.8 			"/>
		</g>
		<g>
			<path class="st1" d="M-237,395.1c0.1,0,0.1-0.2,0-0.2C-237.1,394.9-237.1,395-237,395.1C-237.1,395.1-237,395.1-237,395.1
				L-237,395.1z"/>
		</g>
		<g>
			<path class="st7" d="M-237,395.1c0.1,0,0.1-0.2,0-0.2C-237.1,394.9-237.1,395-237,395.1C-237.1,395.1-237,395.1-237,395.1
				L-237,395.1z"/>
		</g>
		<g>
			<path class="st1" d="M-236.8,395.3c0.1,0,0.1-0.2,0-0.2c-0.1,0-0.1,0-0.1,0.1C-236.9,395.2-236.8,395.3-236.8,395.3L-236.8,395.3
				z"/>
		</g>
		<g>
			<path class="st7" d="M-236.8,395.3c0.1,0,0.1-0.2,0-0.2c-0.1,0-0.1,0-0.1,0.1C-236.9,395.2-236.8,395.3-236.8,395.3L-236.8,395.3
				z"/>
		</g>
		<g>
			<path class="st1" d="M-236.1,396.1C-236.1,396.1-236.2,396.1-236.1,396.1c-0.2,0-0.2,0.2-0.1,0.2
				C-236.2,396.3-236.1,396.2-236.1,396.1L-236.1,396.1z"/>
		</g>
		<g>
			<path class="st7" d="M-236.1,396.1C-236.1,396.1-236.2,396.1-236.1,396.1c-0.2,0-0.2,0.2-0.1,0.2
				C-236.2,396.3-236.1,396.2-236.1,396.1L-236.1,396.1z"/>
		</g>
		<g>
			<path class="st1" d="M-236.4,396.2c0.1,0,0.1-0.2,0-0.2c0,0-0.1,0-0.1,0C-236.5,396.1-236.5,396.1-236.4,396.2
				C-236.5,396.2-236.4,396.2-236.4,396.2L-236.4,396.2z"/>
		</g>
		<g>
			<path class="st7" d="M-236.4,396.2c0.1,0,0.1-0.2,0-0.2c0,0-0.1,0-0.1,0C-236.5,396.1-236.5,396.1-236.4,396.2
				C-236.5,396.2-236.4,396.2-236.4,396.2L-236.4,396.2z"/>
		</g>
		<g>
			<path class="st1" d="M-237,397.4c-0.1,0-0.1,0.2,0,0.2C-236.8,397.6-236.8,397.4-237,397.4L-237,397.4z"/>
		</g>
		<g>
			<path class="st7" d="M-237,397.4c-0.1,0-0.1,0.2,0,0.2C-236.8,397.6-236.8,397.4-237,397.4L-237,397.4z"/>
		</g>
		<g>
			<path class="st1" d="M-236.1,398.9c0.1-0.1,0-0.3-0.1-0.2c-0.1,0,0,0.1,0,0.2C-236.2,398.9-236.1,398.9-236.1,398.9L-236.1,398.9
				z"/>
		</g>
		<g>
			<path class="st7" d="M-236.1,398.9c0.1-0.1,0-0.3-0.1-0.2c-0.1,0,0,0.1,0,0.2C-236.2,398.9-236.1,398.9-236.1,398.9L-236.1,398.9
				z"/>
		</g>
		<g>
			<path class="st1" d="M-235.6,399.2c0.1-0.1,0-0.3-0.1-0.2c0,0-0.1,0.1,0,0.1C-235.7,399.1-235.6,399.2-235.6,399.2L-235.6,399.2z
				"/>
		</g>
		<g>
			<path class="st7" d="M-235.6,399.2c0.1-0.1,0-0.3-0.1-0.2c0,0-0.1,0.1,0,0.1C-235.7,399.1-235.6,399.2-235.6,399.2L-235.6,399.2z
				"/>
		</g>
		<g>
			<path class="st1" d="M-236.5,397.9c-0.1,0-0.2-0.2-0.1-0.2c0,0,0.1,0,0.1,0C-236.4,397.7-236.5,397.8-236.5,397.9L-236.5,397.9z"
				/>
		</g>
		<g>
			<path class="st7" d="M-236.5,397.9c-0.1,0-0.2-0.2-0.1-0.2c0,0,0.1,0,0.1,0C-236.4,397.7-236.5,397.8-236.5,397.9L-236.5,397.9z"
				/>
		</g>
		<g>
			<path class="st1" d="M-234.4,399.4c0.1-0.1,0-0.3-0.1-0.2c0,0,0,0.1,0,0.1C-234.5,399.4-234.4,399.4-234.4,399.4L-234.4,399.4z"
				/>
		</g>
		<g>
			<path class="st7" d="M-234.4,399.4c0.1-0.1,0-0.3-0.1-0.2c0,0,0,0.1,0,0.1C-234.5,399.4-234.4,399.4-234.4,399.4L-234.4,399.4z"
				/>
		</g>
		<g>
			<path class="st1" d="M-235.2,399.1C-235.3,399.1-235.3,399-235.2,399.1c-0.2-0.1-0.3,0-0.2,0.1
				C-235.4,399.2-235.3,399.1-235.2,399.1L-235.2,399.1z"/>
		</g>
		<g>
			<path class="st7" d="M-235.2,399.1C-235.3,399.1-235.3,399-235.2,399.1c-0.2-0.1-0.3,0-0.2,0.1
				C-235.4,399.2-235.3,399.1-235.2,399.1L-235.2,399.1z"/>
		</g>
	</g>
</g>
</svg>
