<?xml version="1.0" encoding="utf-8"?>
<!-- Generator: Adobe Illustrator 19.0.0, SVG Export Plug-In . SVG Version: 6.00 Build 0)  -->
<svg version="1.1" id="Layer_1" xmlns="http://www.w3.org/2000/svg" xmlns:xlink="http://www.w3.org/1999/xlink" x="0px" y="0px"
	 viewBox="-269 374 72 46" style="enable-background:new -269 374 72 46;" xml:space="preserve">
<style type="text/css">
	.st0{clip-path:url(#SVGID_2_);}
	.st1{fill:#FFFFFF;}
	.st2{fill:#7FA89B;}
	.st3{fill:#CA0538;}
</style>
<g>
	<defs>
		<path id="SVGID_1_" d="M-204,420H-262c-3.8,0-7-3.1-7-7V381c0-3.8,3.1-7,7-7h58.1c3.8,0,7,3.1,7,7V413
			C-197,416.9-200.1,420-204,420z"/>
	</defs>
	<clipPath id="SVGID_2_">
		<use xlink:href="#SVGID_1_"  style="overflow:visible;"/>
	</clipPath>
	<g class="st0">
		<g>
			<polygon class="st1" points="-193.4,422.9 -193.4,370.1 -233,370.1 -233,422.9 			"/>
		</g>
		<g>
			<path d="M-193.3,423h-39.9V370h39.9V423z M-232.9,422.8h39.4v-52.6h-39.4V422.8z"/>
		</g>
		<g>
			<polygon class="st2" points="-233,422.9 -233,370.1 -272.6,370.1 -272.6,422.9 			"/>
		</g>
		<g>
			<path d="M-232.9,423h-39.8V370h39.8V423z M-272.5,422.8h39.3v-52.6h-39.3V422.8z"/>
		</g>
		<g>
			<path class="st3" d="M-221.9,403.5c-2.3,3.7-6.4,6.2-11.1,6.2c-7.2,0-13.1-5.9-13.1-13.1s5.9-13.1,13.1-13.1
				c4.7,0,8.8,2.5,11.1,6.2c-1.8-1.9-4.4-3.1-7.2-3.1c-5.5,0-10,4.5-10,10s4.5,10,10,10C-226.2,406.5-223.7,405.4-221.9,403.5
				L-221.9,403.5z"/>
		</g>
		<g>
			<path d="M-233,409.7c-7.3,0-13.2-5.9-13.2-13.2s5.9-13.2,13.2-13.2c4.6,0,8.8,2.3,11.2,6.2l-0.1,0.1c-1.9-2-4.5-3.1-7.2-3.1
				c-5.5,0-10,4.5-10,10c0,5.5,4.5,10,10,10c2.7,0,5.3-1.1,7.2-3.1l0.1,0.1C-224.2,407.4-228.4,409.7-233,409.7z M-233,383.4
				c-7.2,0-13.1,5.9-13.1,13.1c0,7.2,5.9,13.1,13.1,13.1c4.3,0,8.3-2.1,10.8-5.7c-1.9,1.7-4.3,2.7-6.9,2.7
				c-5.6,0-10.1-4.5-10.1-10.1s4.5-10.1,10.1-10.1c2.6,0,5,1,6.9,2.7C-224.7,385.5-228.6,383.4-233,383.4z"/>
		</g>
		<g>
			<polygon class="st3" points="-225.6,390.4 -228.3,394.2 -232.8,392.7 -230,396.5 -232.8,400.3 -228.3,398.9 -225.6,402.6 
				-225.6,397.9 -221.1,396.5 -225.6,395.1 			"/>
		</g>
		<g>
			<path d="M-225.5,402.8l-2.9-3.9l-4.6,1.5l0.1-0.2l2.7-3.8l-2.9-3.9l4.6,1.5l2.8-3.9l0,4.9l4.6,1.5l-4.6,1.5L-225.5,402.8z
				 M-228.3,398.8L-228.3,398.8l2.7,3.7l0-4.6l0,0l4.3-1.4l-4.3-1.4v0l0-4.5l-2.6,3.7l0,0l-4.3-1.4l2.7,3.7l0,0l-2.6,3.6
				L-228.3,398.8z"/>
		</g>
	</g>
</g>
</svg>
