<?xml version="1.0" encoding="utf-8"?>
<!-- Generator: Adobe Illustrator 19.0.0, SVG Export Plug-In . SVG Version: 6.00 Build 0)  -->
<svg version="1.1" id="Layer_1" xmlns="http://www.w3.org/2000/svg" xmlns:xlink="http://www.w3.org/1999/xlink" x="0px" y="0px"
	 viewBox="-269 374 72 46" style="enable-background:new -269 374 72 46;" xml:space="preserve">
<style type="text/css">
	.st0{clip-path:url(#SVGID_2_);}
	.st1{fill:#0077BE;}
	.st2{fill:#FFFFFF;}
</style>
<g>
	<defs>
		<path id="SVGID_1_" d="M-204,420H-262c-3.8,0-7-3.1-7-7V381c0-3.8,3.1-7,7-7h58.1c3.8,0,7,3.1,7,7V413
			C-197,416.9-200.1,420-204,420z"/>
	</defs>
	<clipPath id="SVGID_2_">
		<use xlink:href="#SVGID_1_"  style="overflow:visible;"/>
	</clipPath>
	<g class="st0">
		<g>
			<polygon class="st1" points="-193.1,388 -272.9,388 -272.9,371.1 -193.1,371.1 			"/>
		</g>
		<g>
			<path d="M-193,388.2H-273V371h80.1V388.2z M-272.8,387.9h79.6v-16.7h-79.6V387.9z"/>
		</g>
		<g>
			<polygon class="st2" points="-272.9,421.9 -193.1,421.9 -193.1,405 -272.9,405 			"/>
		</g>
		<g>
			<path d="M-193,422H-273v-17.2h80.1V422z M-272.8,421.8h79.6v-16.7h-79.6V421.8z"/>
		</g>
		<g>
			<polygon points="-193.1,405 -272.9,405 -272.9,388 -193.1,388 			"/>
		</g>
		<g>
			<path d="M-193,405.1H-273v-17.2h80.1V405.1z M-272.8,404.8h79.6v-16.7h-79.6V404.8z"/>
		</g>
	</g>
</g>
</svg>
