<?xml version="1.0" encoding="utf-8"?>
<!-- Generator: Adobe Illustrator 19.0.0, SVG Export Plug-In . SVG Version: 6.00 Build 0)  -->
<svg version="1.1" id="Layer_1" xmlns="http://www.w3.org/2000/svg" xmlns:xlink="http://www.w3.org/1999/xlink" x="0px" y="0px"
	 viewBox="-269 374 72 46" style="enable-background:new -269 374 72 46;" xml:space="preserve">
<style type="text/css">
	.st0{clip-path:url(#SVGID_2_);}
	.st1{fill:#FFFFFF;}
	.st2{fill:#E30520;}
	.st3{fill:#FFD039;}
	.st4{fill:none;}
</style>
<g>
	<defs>
		<path id="SVGID_1_" d="M-204,420H-262c-3.8,0-7-3.1-7-7V381c0-3.8,3.1-7,7-7h58.1c3.8,0,7,3.1,7,7V413
			C-197,416.9-200.1,420-204,420z"/>
	</defs>
	<clipPath id="SVGID_2_">
		<use xlink:href="#SVGID_1_"  style="overflow:visible;"/>
	</clipPath>
	<g class="st0">
		<g>
			<rect x="-269.4" y="388.9" class="st1" width="72.9" height="16.2"/>
			<path d="M-196.4,405.2h-73.1v-16.4h73.1V405.2z M-269.3,405h72.6V389h-72.6V405z"/>
		</g>
		<g>
			<rect x="-269.4" y="372.7" class="st2" width="72.9" height="16.2"/>
			<path d="M-196.4,389h-73.1v-16.4h73.1V389z M-269.3,388.8h72.6v-15.9h-72.6V388.8z"/>
		</g>
		<g>
			<rect x="-269.4" y="405.1" width="72.9" height="16.2"/>
			<path d="M-196.4,421.4h-73.1V405h73.1V421.4z M-269.3,421.2h72.6v-15.9h-72.6V421.2z"/>
		</g>
		<g>
			<g>
				<path class="st1" d="M-233,403.9c1.4,0,2.8-0.1,3.6-0.3c0.3-0.1,0.3-0.2,0.3-0.5c0.3-0.1,0.2-0.5,0.4-0.5
					c-0.3,0-0.3-0.4-0.6-0.3c0-0.4-0.4-0.4-0.8-0.3c-0.7,0.2-1.9,0.3-3,0.3c-1.2,0-2.4-0.1-3-0.3c-0.4-0.1-0.7,0-0.8,0.3
					c-0.3,0-0.3,0.4-0.6,0.3c0.3,0,0.1,0.4,0.4,0.5c0,0.2,0,0.4,0.3,0.5C-235.8,403.8-234.4,403.9-233,403.9z"/>
				<path class="st3" d="M-233,404c-1.5,0-2.8-0.1-3.6-0.4c-0.3-0.1-0.4-0.2-0.4-0.5c-0.2-0.1-0.2-0.2-0.2-0.3
					c0-0.1-0.1-0.2-0.1-0.2c0,0,0,0,0,0l0-0.1c0,0,0,0,0,0c0.1,0,0.1-0.1,0.2-0.1c0.1-0.1,0.1-0.2,0.3-0.2c0-0.1,0.1-0.2,0.2-0.3
					c0.2-0.1,0.4-0.1,0.7,0c0.6,0.2,1.5,0.2,2.5,0.2c0.2,0,0.3,0,0.5,0c1.2,0,2.4-0.1,3-0.3c0.3-0.1,0.5-0.1,0.7,0
					c0.1,0.1,0.2,0.2,0.2,0.3c0.1,0,0.2,0.1,0.3,0.2c0.1,0.1,0.1,0.1,0.2,0.1c0,0,0,0,0,0l0,0.1c0,0,0,0,0,0c-0.1,0-0.1,0.1-0.1,0.2
					c0,0.1-0.1,0.3-0.2,0.3c0,0.2-0.1,0.4-0.4,0.5C-230.1,403.8-231.4,404-233,404z M-237.2,402.6c0,0.1,0.1,0.1,0.1,0.2
					c0,0.1,0.1,0.2,0.2,0.3l0,0l0,0c0,0.2,0,0.3,0.3,0.4c0.8,0.2,2.1,0.3,3.6,0.3c1.5,0,2.8-0.1,3.6-0.3c0.3-0.1,0.3-0.2,0.3-0.4
					l0,0l0,0c0.1-0.1,0.2-0.2,0.2-0.3c0-0.1,0-0.1,0.1-0.2c-0.1,0-0.1-0.1-0.2-0.2c-0.1-0.1-0.1-0.2-0.2-0.1l-0.1,0l0-0.1
					c0-0.1-0.1-0.2-0.1-0.3c-0.1-0.1-0.3-0.1-0.6,0c-0.7,0.2-1.8,0.3-3,0.3c-0.2,0-0.3,0-0.5,0c-1,0-2-0.1-2.6-0.2
					c-0.2-0.1-0.4-0.1-0.6,0c-0.1,0.1-0.1,0.1-0.1,0.3l0,0.1l-0.1,0c-0.1,0-0.1,0-0.2,0.1C-237,402.5-237.1,402.5-237.2,402.6z"/>
			</g>
			<g>
				<g>
					<path class="st3" d="M-236.2,402.4C-236.3,402.4-236.3,402.5-236.2,402.4C-236.2,402.5-236.2,402.4-236.2,402.4z"/>
				</g>
				<g>
					<path class="st3" d="M-236.2,402.2C-236.3,402.2-236.3,402.3-236.2,402.2C-236.1,402.3-236.1,402.2-236.2,402.2z"/>
				</g>
				<g>
					<path class="st3" d="M-236.2,403.1C-236.3,403.1-236.3,403.2-236.2,403.1C-236.2,403.2-236.2,403.1-236.2,403.1z"/>
				</g>
				<g>
					<path class="st3" d="M-236,403.1C-236.1,403.1-236.1,403.2-236,403.1C-236,403.2-235.9,403.1-236,403.1z"/>
				</g>
				<g>
					<path class="st3" d="M-235.7,403.2C-235.8,403.2-235.8,403.3-235.7,403.2C-235.7,403.3-235.7,403.2-235.7,403.2z"/>
				</g>
				<g>
					<path class="st3" d="M-232.2,402.6C-232.3,402.6-232.3,402.7-232.2,402.6C-232.1,402.7-232.1,402.6-232.2,402.6z"/>
				</g>
				<g>
					<path class="st3" d="M-232.2,402.8C-232.2,402.8-232.2,402.9-232.2,402.8C-232.1,402.9-232.1,402.8-232.2,402.8z"/>
				</g>
				<g>
					<path class="st3" d="M-232,403.4C-232,403.4-232,403.5-232,403.4C-231.9,403.5-231.9,403.4-232,403.4z"/>
				</g>
				<g>
					<path class="st3" d="M-231.8,403.4C-231.8,403.4-231.8,403.5-231.8,403.4C-231.7,403.5-231.7,403.4-231.8,403.4z"/>
				</g>
				<g>
					<path class="st3" d="M-229.4,402.9C-229.5,402.9-229.5,403-229.4,402.9C-229.4,403-229.4,402.9-229.4,402.9z"/>
				</g>
			</g>
			<g>
				<g>
					<path class="st3" d="M-235.6,403.2c0,0-0.1,0-0.1,0c-0.1,0-0.1,0-0.2-0.1c0,0-0.1,0-0.1,0c-0.1,0-0.2-0.1-0.2-0.2
						c0-0.1,0.1-0.2,0.1-0.4l0-0.2c0,0,0,0,0.1,0c0,0,0.1,0,0,0.1l-0.1,0.2c0,0.2-0.1,0.3-0.1,0.4c0,0,0,0.1,0.1,0.1
						c0,0,0.1,0,0.1,0c0,0,0,0,0,0c0,0,0,0,0-0.1c0,0,0,0,0-0.1c0-0.1,0.1-0.1,0.1-0.1c0,0,0,0,0.1,0c0,0,0,0.1,0,0.1
						c0,0.1,0,0.1-0.1,0.1c0,0,0,0,0.1,0c0.1,0,0.1,0,0.1,0c0,0,0-0.1,0.1-0.1c0,0,0,0,0,0c0,0,0-0.1,0-0.1c0,0,0.1,0,0.1,0
						c0,0,0.1,0.1,0,0.1c0,0.1-0.1,0.2-0.1,0.3C-235.5,403.1-235.6,403.2-235.6,403.2z"/>
				</g>
				<g>
					<path class="st3" d="M-236.1,403C-236.1,403-236.1,403-236.1,403c-0.2-0.1-0.3-0.2-0.3-0.2c0-0.1,0-0.1,0.2-0.2
						c0,0,0.1,0,0.1,0.1s0,0.1-0.1,0.1c-0.1,0-0.1,0-0.1,0c0,0,0,0.1,0.2,0.1C-236,402.9-236,402.9-236.1,403
						C-236,403-236.1,403-236.1,403z"/>
				</g>
				<g>
					<path class="st3" d="M-234.5,403.5C-234.5,403.5-234.5,403.5-234.5,403.5c-0.1,0-0.1,0-0.1-0.1c0,0,0-0.1,0-0.1
						c-0.1,0-0.1-0.1-0.1-0.1c-0.1,0-0.2,0.1-0.3,0.1c-0.1,0-0.1,0-0.1,0c0,0.1-0.1,0.1-0.2,0.2c0,0-0.1,0-0.1,0c0,0,0-0.1,0-0.1
						c0.1,0,0.1-0.1,0.1-0.1c0,0,0-0.1,0-0.1c0-0.1,0-0.1,0-0.2c0,0,0.1,0,0.1,0c0,0,0.1,0.1,0.1,0.2c0,0,0,0.1,0,0.1
						c0,0,0.1,0,0.1,0c0.1,0,0.1,0,0.2,0c-0.1-0.1-0.1-0.2,0-0.3c0-0.1,0.1-0.1,0.2-0.1c0.1,0,0.1,0.1,0.2,0.2c0,0.1,0,0.2-0.1,0.2
						c0,0,0.1,0,0.1,0.1c0,0,0.1,0,0,0.1c0,0,0,0.1,0,0.1c0,0,0,0,0,0l0,0c0,0,0,0,0,0c0,0,0.1-0.1,0.1-0.2c0-0.2,0-0.4,0-0.5
						c0,0,0-0.1,0.1-0.1c0,0,0.1,0,0.1,0.1c0,0.1,0,0.3,0,0.5C-234.2,403.3-234.3,403.4-234.5,403.5
						C-234.4,403.5-234.4,403.5-234.5,403.5z"/>
				</g>
				<g>
					<path class="st3" d="M-234.1,403.3C-234.1,403.3-234.2,403.3-234.1,403.3c-0.1-0.2,0-0.3,0-0.5c0-0.1,0-0.2,0-0.2
						c0,0,0-0.1,0.1-0.1c0,0,0.1,0,0.1,0.1c0,0.1,0,0.2,0,0.3C-234,403-234.1,403.1-234.1,403.3C-234,403.3-234.1,403.3-234.1,403.3
						C-234.1,403.3-234.1,403.3-234.1,403.3z"/>
				</g>
				<g>
					<path class="st3" d="M-233.9,403.6C-234,403.6-234,403.6-233.9,403.6c-0.1-0.1-0.1-0.1,0-0.1c0.1-0.1,0.2-0.1,0.2-0.2
						c0,0-0.1-0.1-0.1-0.1c0-0.1,0-0.1,0-0.1c0,0,0.1,0,0.1,0c0.1,0,0.1,0.1,0.1,0.2c0,0,0,0,0,0.1c0,0,0,0,0.1,0c0,0,0,0,0,0
						c0,0,0,0,0,0c0,0,0-0.1,0-0.2c0,0,0,0,0-0.1c0,0,0-0.1,0-0.1c0,0,0,0,0.1,0c0,0,0.1,0.1,0.1,0.1c0,0,0.1,0,0.1,0
						c0.1,0,0.4,0,0.4,0c0,0,0.1,0,0.1,0c0,0,0,0.1,0,0.2c0,0.1,0,0.2-0.1,0.2c-0.1,0.1-0.1,0.1-0.1,0.1c0,0-0.1,0-0.1-0.1
						c0,0,0-0.1-0.1-0.1c0,0-0.1,0-0.1,0c-0.1,0-0.1,0-0.2,0c0,0,0,0,0,0c0,0,0,0,0,0c0,0,0,0-0.1,0
						C-233.7,403.4-233.8,403.5-233.9,403.6C-233.9,403.6-233.9,403.6-233.9,403.6z M-233.2,403.2c0.1,0,0.2,0,0.2,0.1c0,0,0,0,0,0
						c0,0,0,0,0,0c0,0,0-0.1,0.1-0.2c0,0,0-0.1,0-0.1c-0.1,0-0.4,0-0.5,0c0,0-0.1,0-0.1,0c0,0,0,0.1,0,0.1c0,0,0.1,0,0.1,0
						C-233.3,403.3-233.3,403.3-233.2,403.2C-233.2,403.2-233.2,403.2-233.2,403.2z"/>
				</g>
				<g>
					<path class="st3" d="M-232.8,403.4C-232.8,403.4-232.9,403.4-232.8,403.4c-0.1-0.1,0-0.1,0-0.1c0,0,0,0,0.1,0c0,0,0.1,0,0.1,0
						c0-0.1,0-0.2,0-0.2c0,0,0.1-0.1,0.1,0c0.1,0,0.1,0.1,0.1,0.2c0,0.1,0,0.1-0.1,0.2c0,0-0.1,0-0.1,0
						C-232.6,403.3-232.7,403.4-232.8,403.4C-232.8,403.4-232.8,403.4-232.8,403.4C-232.8,403.4-232.8,403.4-232.8,403.4z"/>
				</g>
				<g>
					<path class="st3" d="M-232.1,403.4C-232.1,403.4-232.2,403.3-232.1,403.4c-0.1-0.1-0.1-0.1-0.1-0.2c0-0.1,0.1-0.1,0.2-0.1
						c0,0,0,0,0,0c0-0.1,0-0.3,0-0.4c0,0,0-0.1,0-0.1c0,0,0.1,0,0.1,0c0,0.2,0,0.4,0,0.5c0,0,0,0,0,0c0,0,0,0,0.1,0l0,0
						c0.1,0,0.1,0,0.1-0.2c-0.1-0.1-0.1-0.1-0.1-0.1c0,0,0.1-0.1,0.1,0c0,0,0.1,0,0.1,0.1c0,0.3-0.1,0.3-0.2,0.4l0,0
						c-0.1,0-0.1,0-0.2,0C-232,403.3-232,403.3-232.1,403.4C-232.1,403.4-232.1,403.4-232.1,403.4z"/>
				</g>
				<g>
					<path class="st3" d="M-231.4,403.5C-231.5,403.5-231.5,403.5-231.4,403.5c-0.1-0.1-0.1-0.1,0-0.1c0.1,0,0.1-0.1,0.2-0.2
						c-0.1-0.1-0.1-0.1-0.1-0.2c0-0.1,0-0.1,0.1-0.1c0,0,0.1,0,0.2,0.1C-231.1,403.1-231.2,403.4-231.4,403.5
						C-231.4,403.5-231.4,403.5-231.4,403.5z"/>
				</g>
				<g>
					<path class="st3" d="M-231,403.4C-231,403.4-231,403.4-231,403.4c-0.1-0.1-0.1-0.1,0-0.1c0.1,0,0.1-0.1,0.1-0.1c0,0,0,0,0,0
						c-0.1,0-0.1,0-0.1-0.1c0-0.1,0-0.2,0.1-0.2c0.1,0,0.1,0,0.1,0c0.1,0,0.1,0.1,0.1,0.2c0,0,0,0,0,0c0.2,0,0.5-0.1,0.7-0.2
						c0,0,0.1,0,0.1,0c0,0,0,0.1,0,0.1c-0.3,0.1-0.6,0.2-0.8,0.2C-230.8,403.3-230.9,403.4-231,403.4
						C-231,403.4-231,403.4-231,403.4z"/>
				</g>
				<g>
					<path class="st3" d="M-230.3,403.2c0,0-0.1,0-0.1-0.1c0,0-0.1-0.1-0.1-0.2c0,0,0,0.1,0,0.1c0,0,0,0.1,0,0.1c0,0-0.1,0-0.1,0
						c0-0.1,0-0.2,0.1-0.3c0-0.1,0-0.2,0-0.3c0,0,0-0.1,0.1-0.1c0,0,0.1,0,0.1,0.1c0,0.1,0,0.2,0,0.3c0.1,0,0.1,0,0.2,0
						c0.1,0,0.1,0.1,0.1,0.1C-230.1,403-230.2,403.1-230.3,403.2C-230.3,403.2-230.3,403.2-230.3,403.2z"/>
				</g>
				<g>
					<path class="st3" d="M-229.9,403.1C-229.9,403.1-229.9,403.1-229.9,403.1c-0.1,0-0.2,0-0.2-0.1c0-0.1,0-0.2,0.1-0.3
						c0.1,0,0.2,0,0.3,0.1l0,0c0,0.1,0,0.1,0,0.2C-229.7,403-229.8,403.1-229.9,403.1z"/>
				</g>
				<g>
					<path class="st4" d="M-229.7,402.8c0,0,0.1-0.1,0.2-0.1"/>
				</g>
				<g>
					<path class="st3" d="M-229.4,402.8C-229.4,402.8-229.5,402.8-229.4,402.8c-0.2-0.1-0.3-0.3-0.3-0.5c0,0,0-0.1-0.1-0.1
						c0,0-0.1,0-0.2,0c0,0-0.1,0-0.1,0c0,0,0-0.1,0-0.1c0.1-0.1,0.2-0.1,0.3-0.1c0,0,0.1,0.1,0.1,0.2c0,0.2,0.1,0.3,0.2,0.4
						c0,0,0.1,0,0.1,0c0,0,0,0,0,0c0-0.1,0.1-0.1,0.1-0.1c0,0,0.1,0,0.1,0.1c0,0,0,0.1,0,0.1C-229.3,402.8-229.3,402.8-229.4,402.8z
						"/>
				</g>
				<g>
					<path class="st4" d="M-235,402.9c0,0,0.1,0,0.1,0"/>
				</g>
				<g>
					<path class="st4" d="M-234.6,402.9C-234.6,402.9-234.5,402.9-234.6,402.9"/>
				</g>
			</g>
			<g>
				<path class="st1" d="M-228,401.9l-0.4-8.3c-0.1-1.2-1.1-1-1.9-0.5c-0.8,0.5-1.7,0.5-2.7,0.2c-1,0.4-1.9,0.3-2.7-0.2
					c-0.8-0.5-1.9-0.7-1.9,0.5l-0.4,8.3"/>
				<path class="st3" d="M-228,401.9C-228,401.9-228,401.9-228,401.9l-0.4-8.3c0-0.4-0.1-0.6-0.4-0.8c-0.3-0.2-0.9-0.1-1.5,0.3
					c-0.8,0.5-1.7,0.5-2.7,0.2c-1,0.4-1.9,0.3-2.7-0.2c-0.6-0.4-1.2-0.5-1.5-0.3c-0.2,0.1-0.3,0.4-0.4,0.8l-0.4,8.3
					c0,0,0,0.1-0.1,0.1c0,0-0.1,0-0.1-0.1l0.4-8.3c0-0.4,0.2-0.7,0.4-0.9c0.5-0.3,1.3,0.1,1.6,0.3c0.8,0.5,1.7,0.5,2.6,0.2l0,0l0,0
					c1,0.4,1.9,0.3,2.6-0.2c0.3-0.2,1.1-0.6,1.6-0.3c0.3,0.1,0.4,0.4,0.4,0.9L-228,401.9C-227.9,401.9-227.9,401.9-228,401.9
					C-228,401.9-228,401.9-228,401.9z"/>
			</g>
			<g>
				<path class="st1" d="M-232.1,393.6c0.3,0.2,0.6,0.1,0.7,0.1c-0.6-0.3-0.7-1.4-0.7-1.9c0.1-0.9-0.1-1.4-0.7-1.5
					c-0.1,0-0.2-0.1-0.4-0.1c-0.2,0-0.3,0.1-0.4,0.3c-0.2-0.1-0.3-0.1-0.5-0.2c-0.2-0.1-0.4,0-0.5,0.3l0.1,0c0.1,0.1,0.2,0,0.3,0.1
					c0.1,0.1,0.4,0.2,0.4,0.6c0.1,0.8,0,1.7-0.8,2.4c0.2,0,0.5,0.1,0.7-0.1c-0.1,0.1-0.2,0.2-0.3,0.3c0.4-0.1,0.6-0.2,0.8-0.4
					c0.1,0.1,0.3,0.3,0.3,0.4c0.1-0.1,0.2-0.3,0.3-0.4c0.2,0.2,0.4,0.4,0.8,0.4C-232,393.8-232.1,393.7-232.1,393.6z"/>
				<path class="st3" d="M-233,394l-0.1-0.1c0,0-0.1-0.1-0.2-0.3c-0.2,0.2-0.4,0.3-0.8,0.4l-0.2,0l0.2-0.2c0,0,0.1-0.1,0.1-0.1
					c-0.2,0.1-0.4,0-0.5,0l-0.1,0l0.1-0.1c0.7-0.6,0.9-1.3,0.8-2.3c0-0.4-0.2-0.5-0.4-0.6l0,0c-0.1,0-0.1,0-0.2,0c0,0-0.1,0-0.1,0
					l-0.1,0.1l0-0.1c0-0.2,0.1-0.3,0.2-0.4c0.1-0.1,0.2-0.1,0.4,0c0.1,0,0.1,0,0.2,0c0.1,0,0.2,0,0.3,0.1c0.1-0.2,0.3-0.3,0.4-0.2
					c0.1,0,0.2,0,0.3,0.1c0,0,0.1,0,0.1,0c0.6,0.1,0.8,0.6,0.7,1.6c-0.1,0.5,0.1,1.5,0.7,1.9l0.2,0.1l-0.2,0c-0.1,0-0.3,0-0.5,0
					c0,0,0.1,0.1,0.1,0.1l0.2,0.2l-0.2,0c-0.4-0.1-0.6-0.2-0.8-0.4c-0.1,0.1-0.2,0.2-0.2,0.3L-233,394z M-233.8,393.5L-233.8,393.5
					c0,0.1,0,0.2,0,0.2c0.3-0.1,0.4-0.2,0.5-0.3l0-0.1l0.1,0.1c0.1,0.1,0.2,0.2,0.3,0.3c0.1-0.1,0.2-0.2,0.3-0.3l0.1-0.1l0.1,0.1
					c0.1,0.2,0.3,0.3,0.5,0.3c0,0-0.1-0.1-0.1-0.2l0.1-0.1c0.2,0.1,0.4,0.1,0.5,0.1c-0.5-0.4-0.6-1.4-0.6-1.9
					c0.1-0.9-0.1-1.4-0.6-1.5c-0.1,0-0.1,0-0.2,0c-0.1,0-0.1,0-0.3-0.1c-0.1,0-0.3,0.1-0.3,0.2l0,0.1l-0.1,0
					c-0.1-0.1-0.2-0.1-0.3-0.1c-0.1,0-0.1,0-0.2,0c-0.1,0-0.2,0-0.3,0c-0.1,0-0.1,0.1-0.1,0.2l0,0l0,0c0,0,0,0,0.1,0
					c0.1,0,0.1,0,0.2,0.1l0,0c0.1,0.1,0.4,0.2,0.4,0.7c0.1,0.6,0.1,1.6-0.7,2.3C-234.2,393.6-234,393.6-233.8,393.5z"/>
			</g>
			<g>
				<path class="st3" d="M-232.1,393.6C-232.2,393.6-232.2,393.6-232.1,393.6c-0.3-0.3-0.4-0.7-0.4-1.2c0,0,0-0.1,0.1-0.1
					c0,0,0,0,0,0c0,0,0.1,0,0.1,0.1C-232.4,392.8-232.3,393.2-232.1,393.6C-232.1,393.5-232.1,393.6-232.1,393.6
					C-232.1,393.6-232.1,393.6-232.1,393.6z"/>
			</g>
			<g>
				<path class="st3" d="M-232.7,393.5C-232.7,393.5-232.7,393.5-232.7,393.5c-0.2-0.2-0.3-0.6-0.3-1c0,0,0-0.1,0.1-0.1
					s0.1,0,0.1,0.1C-232.8,392.9-232.7,393.2-232.7,393.5C-232.6,393.4-232.6,393.5-232.7,393.5
					C-232.6,393.5-232.6,393.5-232.7,393.5z"/>
			</g>
			<g>
				<path class="st3" d="M-233.8,393.6C-233.8,393.6-233.8,393.6-233.8,393.6C-233.8,393.6-233.9,393.5-233.8,393.6
					c0.2-0.4,0.3-0.8,0.3-1.1c0,0,0-0.1,0.1-0.1c0,0,0,0,0,0c0,0,0.1,0,0.1,0.1C-233.4,392.9-233.5,393.3-233.8,393.6
					C-233.7,393.6-233.8,393.6-233.8,393.6z"/>
			</g>
			<g>
				<path class="st3" d="M-233.3,393.5C-233.3,393.5-233.3,393.5-233.3,393.5C-233.3,393.5-233.3,393.4-233.3,393.5
					c0.1-0.3,0.1-0.6,0.1-1c0,0,0-0.1,0.1-0.1s0.1,0,0.1,0.1C-233,392.9-233.1,393.2-233.3,393.5
					C-233.2,393.5-233.2,393.5-233.3,393.5z"/>
			</g>
			<g>
				<path class="st3" d="M-234.4,390.5c0.1,0.1,0.2,0,0.3,0.1c0.1,0.1,0.3,0.2,0.4,0.5c0-0.1,0.1-0.3,0.2-0.3
					C-233.7,390.6-234.2,390.5-234.4,390.5z"/>
			</g>
			<g>
				<polygon class="st3" points="-232.7,398.2 -232,401.3 -232.3,401.6 -232.5,401.4 -232.9,398.6 -232.7,401.4 -233,401.7 
					-233.2,401.4 -233,398.6 -233.4,401.4 -233.7,401.6 -233.9,401.3 -233.2,398.2 				"/>
				<path class="st3" d="M-233,401.8l-0.3-0.3l0.1-1.2l-0.2,1.2l0,0l-0.3,0.2l-0.3-0.3l0.7-3.2h0.6l0,0l0.7,3.2l-0.3,0.3l-0.3-0.2
					l-0.2-1.2l0.1,1.2L-233,401.8z M-233.2,401.4l0.2,0.2l0.2-0.2l-0.2-2.6L-233.2,401.4z M-232.4,401.4l0.2,0.1l0.2-0.2l-0.7-3
					h-0.4l-0.7,3l0.2,0.2l0.2-0.1l0.4-2.7l0.1,0l0.1,0L-232.4,401.4z"/>
			</g>
			<g>
				<g>
					<path class="st3" d="M-237,393.3l-0.3,8l-0.6,0.5l0.4-8.3C-237.4,393.5-237.1,393.3-237,393.3z"/>
					<path class="st3" d="M-238,402l0-0.2l0.4-8.3l0,0c0,0,0.1-0.1,0.2-0.1c0.2-0.1,0.4-0.2,0.4-0.2l0.1,0l0,0.1l-0.3,8.1L-238,402z
						 M-237.5,393.6l-0.4,8.1l0.4-0.4l0.3-7.9c-0.1,0-0.2,0.1-0.3,0.2C-237.4,393.6-237.5,393.6-237.5,393.6z"/>
				</g>
				<g>
					<path class="st3" d="M-236.3,393.9l-0.3,6.7l-0.6,0.5l0.3-7.7C-236.7,393.5-236.4,393.8-236.3,393.9z"/>
					<path class="st3" d="M-237.2,401.3l0.3-8l0.1,0.1c0.1,0.1,0.4,0.4,0.5,0.5l0,0l0,0l-0.3,6.8l0,0L-237.2,401.3z M-236.8,393.5
						l-0.3,7.4l0.4-0.4l0.3-6.7C-236.5,393.8-236.6,393.7-236.8,393.5z"/>
				</g>
				<g>
					<path class="st3" d="M-235.7,394.4l-0.2,5.6l-0.5,0.4l0.3-6.4C-236,394.1-235.7,394.3-235.7,394.4z"/>
					<path class="st3" d="M-236.5,400.5l0.3-6.7l0.1,0.1c0.1,0.1,0.4,0.3,0.4,0.3l0,0l0,0l-0.2,5.6l0,0L-236.5,400.5z M-236.1,394.2
						l-0.3,6.1l0.3-0.3l0.2-5.5C-235.8,394.4-236,394.3-236.1,394.2z"/>
				</g>
				<g>
					<path class="st3" d="M-235,394.7l-0.2,4.6l-0.5,0.4l0.2-5.2C-235.4,394.6-235.2,394.7-235,394.7z"/>
					<path class="st3" d="M-235.8,399.9l0.2-5.5l0.1,0.1c0.1,0.1,0.3,0.2,0.4,0.2l0.1,0l0,0.1l-0.2,4.6l0,0L-235.8,399.9z
						 M-235.4,394.6l-0.2,5l0.3-0.3l0.2-4.5C-235.2,394.7-235.3,394.7-235.4,394.6z"/>
				</g>
				<g>
					<path class="st3" d="M-234.4,394.7l-0.2,4l-0.5,0.4l0.2-4.4C-234.7,394.7-234.4,394.7-234.4,394.7z"/>
					<path class="st3" d="M-235.1,399.3l0.2-4.6l0.1,0c0.1,0,0.4,0,0.4,0l0.1,0l0,0.1l-0.2,4l0,0L-235.1,399.3z M-234.8,394.8
						l-0.2,4.2l0.3-0.3l0.2-3.9C-234.5,394.8-234.7,394.8-234.8,394.8z"/>
				</g>
				<g>
					<path class="st3" d="M-228.9,393.3l0.3,8l0.6,0.5l-0.4-8.3C-228.5,393.5-228.8,393.3-228.9,393.3z"/>
					<path class="st3" d="M-227.9,402l-0.7-0.6l0,0l-0.4-8.1l0.1,0c0.1,0,0.2,0.1,0.4,0.2c0.1,0,0.1,0.1,0.2,0.1l0,0l0,0L-227.9,402
						z M-228.5,401.3l0.4,0.4l-0.3-8.1c0,0-0.1,0-0.1-0.1c-0.1,0-0.2-0.1-0.3-0.2L-228.5,401.3z"/>
				</g>
				<g>
					<path class="st3" d="M-229.6,393.9l0.3,6.7l0.6,0.5l-0.3-7.7C-229.2,393.5-229.5,393.8-229.6,393.9z"/>
					<path class="st3" d="M-228.7,401.3l-0.7-0.7l0,0l-0.3-6.8l0,0c0.1-0.1,0.4-0.3,0.5-0.5l0.1-0.1l0,0.1L-228.7,401.3z
						 M-229.3,400.6l0.4,0.4l-0.3-7.4c-0.1,0.1-0.3,0.3-0.4,0.3L-229.3,400.6z"/>
				</g>
				<g>
					<path class="st3" d="M-230.2,394.4l0.2,5.6l0.5,0.4l-0.3-6.4C-229.9,394.1-230.2,394.3-230.2,394.4z"/>
					<path class="st3" d="M-229.5,400.5l-0.6-0.6l0,0l-0.2-5.6l0,0c0.1,0,0.3-0.2,0.4-0.3l0.1-0.1L-229.5,400.5z M-229.9,399.9
						l0.3,0.3l-0.3-6.1c-0.1,0.1-0.2,0.2-0.3,0.3L-229.9,399.9z"/>
				</g>
				<g>
					<path class="st3" d="M-230.9,394.7l0.2,4.6l0.5,0.4l-0.2-5.2C-230.5,394.6-230.8,394.7-230.9,394.7z"/>
					<path class="st3" d="M-230.1,399.9l-0.6-0.6l0,0l-0.2-4.7l0.1,0c0.1,0,0.3-0.1,0.4-0.2l0.1-0.1l0,0.1L-230.1,399.9z
						 M-230.6,399.3l0.3,0.3l-0.2-5c-0.1,0-0.2,0.1-0.3,0.1L-230.6,399.3z"/>
				</g>
				<g>
					<path class="st3" d="M-231.5,394.7l0.2,4l0.5,0.4l-0.2-4.4C-231.2,394.7-231.5,394.7-231.5,394.7z"/>
					<path class="st3" d="M-230.8,399.3l-0.6-0.6l0,0l-0.2-4.1l0.1,0c0,0,0.3,0,0.4,0l0.1,0l0,0.1L-230.8,399.3z M-231.3,398.6
						l0.3,0.3l-0.2-4.2c-0.1,0-0.2,0-0.3,0L-231.3,398.6z"/>
				</g>
			</g>
			<g>
				<g>
					<polygon class="st1" points="-234.5,396.8 -235.9,401.7 -234,402 -233.2,398.3 					"/>
					<path class="st3" d="M-233.9,402l-2-0.3l1.4-5.1l1.4,1.6l0,0L-233.9,402z M-235.8,401.7l1.8,0.2l0.8-3.5l-1.2-1.4L-235.8,401.7
						z"/>
				</g>
				<g>
					<polygon class="st1" points="-231.4,396.8 -230.1,401.7 -232,402 -232.7,398.3 					"/>
					<path class="st3" d="M-232,402l-0.8-3.7l1.4-1.6l0,0.1l1.4,4.9l-0.1,0L-232,402z M-232.7,398.3l0.8,3.5l1.8-0.2l-1.3-4.7
						L-232.7,398.3z"/>
				</g>
			</g>
			<g>
				<g>
					<g>
						<path class="st3" d="M-234.8,399l-0.2-0.5c0,0,0-0.1,0-0.1c0,0,0.1,0,0.1,0l0.1,0.3l0.4-0.5c0,0,0.1,0,0.1,0c0,0,0,0.1,0,0.1
							L-234.8,399z"/>
					</g>
					<g>
						<path class="st3" d="M-234.2,399.4l-0.2-1.7c0,0,0-0.1,0.1-0.1c0,0,0.1,0,0.1,0.1l0.2,1.4l0.5-0.6c0,0,0.1,0,0.1,0
							c0,0,0,0.1,0,0.1L-234.2,399.4z"/>
					</g>
					<g>
						<path class="st3" d="M-233.5,399.7C-233.5,399.7-233.5,399.7-233.5,399.7l-0.4-0.9c0,0,0-0.1,0-0.1c0,0,0.1,0,0.1,0
							L-233.5,399.7C-233.4,399.7-233.4,399.7-233.5,399.7C-233.5,399.7-233.5,399.7-233.5,399.7z"/>
					</g>
					<g>
						<path class="st3" d="M-234.1,400.4l-0.2-0.8l-0.3,0.5l-0.2-0.6l-0.4,0.4c0,0-0.1,0-0.1,0c0,0,0-0.1,0-0.1l0.6-0.5l0.2,0.6
							l0.3-0.5l0.2,0.9l0.4-0.4c0,0,0.1,0,0.1,0c0,0,0,0.1,0,0.1L-234.1,400.4z"/>
					</g>
					<g>
						<path class="st3" d="M-233.8,401.4C-233.9,401.4-233.9,401.4-233.8,401.4l-0.2-0.7l-0.4,0.6l-0.2-0.7l-0.4,0.5l-0.4-1
							c0,0,0-0.1,0-0.1s0.1,0,0.1,0l0.3,0.8l0.4-0.5l0.2,0.7l0.5-0.6L-233.8,401.4C-233.8,401.3-233.8,401.4-233.8,401.4
							C-233.8,401.4-233.8,401.4-233.8,401.4z"/>
					</g>
					<g>
						<path class="st3" d="M-234.3,402.1l-0.2-0.6l-0.4,0.6l-0.3-0.8l-0.3,0.4c0,0-0.1,0-0.1,0c0,0,0-0.1,0-0.1l0.4-0.6l0.3,0.8
							l0.4-0.6l0.2,0.7l0.3-0.2c0,0,0.1,0,0.1,0c0,0,0,0.1,0,0.1L-234.3,402.1z"/>
					</g>
				</g>
				<g>
					<g>
						<path class="st3" d="M-231.1,399l-0.5-0.6c0,0,0-0.1,0-0.1c0,0,0.1,0,0.1,0l0.4,0.5l0.1-0.3c0,0,0.1,0,0.1,0c0,0,0,0.1,0,0.1
							L-231.1,399z"/>
					</g>
					<g>
						<path class="st3" d="M-231.7,399.4l-0.7-0.8c0,0,0-0.1,0-0.1c0,0,0.1,0,0.1,0l0.5,0.6l0.2-1.4c0,0,0-0.1,0.1-0.1
							c0,0,0.1,0,0.1,0.1L-231.7,399.4z"/>
					</g>
					<g>
						<path class="st3" d="M-232.4,399.7C-232.4,399.7-232.5,399.7-232.4,399.7C-232.5,399.7-232.5,399.7-232.4,399.7l0.3-1
							c0,0,0,0,0.1,0c0,0,0,0,0,0.1L-232.4,399.7C-232.4,399.7-232.4,399.7-232.4,399.7z"/>
					</g>
					<g>
						<path class="st3" d="M-231.9,400.4l-0.6-0.5c0,0,0-0.1,0-0.1c0,0,0.1,0,0.1,0l0.4,0.4l0.2-0.9l0.3,0.5l0.2-0.6l0.6,0.5
							c0,0,0,0.1,0,0.1c0,0-0.1,0-0.1,0l-0.4-0.4l-0.2,0.6l-0.3-0.5L-231.9,400.4z"/>
					</g>
					<g>
						<path class="st3" d="M-232.1,401.4C-232.1,401.4-232.1,401.4-232.1,401.4C-232.1,401.4-232.2,401.3-232.1,401.4l0.1-1l0.5,0.6
							l0.2-0.7l0.4,0.5l0.3-0.8c0,0,0.1,0,0.1,0c0,0,0,0,0,0.1l-0.4,1l-0.4-0.5l-0.2,0.7l-0.4-0.6L-232.1,401.4
							C-232,401.4-232.1,401.4-232.1,401.4z"/>
					</g>
					<g>
						<path class="st3" d="M-231.6,402.1l-0.5-0.3c0,0,0-0.1,0-0.1c0,0,0.1,0,0.1,0l0.3,0.2l0.2-0.7l0.4,0.6l0.3-0.8l0.4,0.6
							c0,0,0,0.1,0,0.1c0,0-0.1,0-0.1,0l-0.3-0.4l-0.3,0.8l-0.4-0.6L-231.6,402.1z"/>
					</g>
				</g>
			</g>
			<g>
				<path class="st1" d="M-233,394.1c0.6,0.5,1.3,0.7,2.2,0.6c-0.1,2-0.7,3.4-2.2,4.4c-1.5-1-2.1-2.4-2.2-4.4
					C-234.3,394.7-233.5,394.5-233,394.1z"/>
				<path class="st3" d="M-233,399.2L-233,399.2c-1.5-1-2.1-2.3-2.3-4.5l0-0.1l0.1,0c0.9,0.1,1.6-0.1,2.1-0.6l0,0l0,0
					c0.5,0.4,1.3,0.6,2.1,0.6l0.1,0l0,0.1C-230.8,396.8-231.5,398.2-233,399.2L-233,399.2z M-235.1,394.7c0.1,2.1,0.8,3.3,2.1,4.3
					c1.4-0.9,2-2.2,2.1-4.3c-0.8,0-1.6-0.2-2.1-0.6C-233.5,394.6-234.3,394.8-235.1,394.7z"/>
			</g>
			<g>
				<path class="st1" d="M-233,398.8c1.2-0.8,1.9-2.2,2-4c-0.8,0-1.5-0.2-2-0.6c-0.5,0.4-1.2,0.6-2,0.6
					C-234.8,396.7-234.2,398-233,398.8z"/>
				<path class="st3" d="M-233,398.9L-233,398.9c-1.3-0.8-1.9-2.2-2-4.1l0-0.1l0.1,0c0,0,0.1,0,0.1,0c0.8,0,1.4-0.2,1.8-0.6l0,0l0,0
					c0.4,0.4,1.1,0.6,1.8,0.6c0,0,0.1,0,0.1,0l0.1,0l0,0.1C-231,396.7-231.7,398.1-233,398.9L-233,398.9z M-234.9,394.9
					c0.1,1.8,0.7,3.1,1.9,3.9c1.2-0.8,1.8-2.1,1.9-3.9c0,0,0,0,0,0c-0.8,0-1.4-0.2-1.9-0.5C-233.4,394.7-234.1,394.9-234.9,394.9
					C-234.8,394.9-234.9,394.9-234.9,394.9z"/>
			</g>
			<g>
				<g>
					<path class="st3" d="M-232.3,394.6c0.4,0.1,0.8,0.2,1.3,0.2c-0.1,1.5-0.5,2.6-1.3,3.5L-232.3,394.6z"/>
					<path class="st3" d="M-232.4,398.5l0-3.9l0.1,0c0.4,0.1,0.8,0.2,1.3,0.2l0.1,0l0,0.1c-0.1,1.5-0.5,2.7-1.3,3.5L-232.4,398.5z
						 M-232.2,394.7l0,3.4c0.7-0.8,1.1-1.9,1.2-3.2c0,0,0,0,0,0C-231.5,394.9-231.9,394.8-232.2,394.7z"/>
				</g>
				<g>
					<path class="st3" d="M-233.6,394.6c-0.4,0.1-0.8,0.2-1.3,0.2c0.1,1.5,0.5,2.6,1.3,3.5L-233.6,394.6z"/>
					<path class="st3" d="M-233.6,398.5l-0.1-0.1c-0.8-0.8-1.3-2-1.3-3.5l0-0.1l0.1,0c0.5,0,0.9-0.1,1.3-0.2l0.1,0L-233.6,398.5z
						 M-234.9,394.9c0.1,1.4,0.5,2.5,1.2,3.2l0-3.4C-234,394.8-234.4,394.9-234.9,394.9C-234.8,394.9-234.9,394.9-234.9,394.9z"/>
				</g>
			</g>
			<g>
				<g>
					<g>
						<path class="st1" d="M-234.9,401.7c0.5,0.1,1,0.1,1.3,0.1c0.2,0,0.4,0.4,0,0.4c-0.4,0-1,0-1.4-0.1c-0.3,0-0.9-0.1-1.3-0.3
							c-0.4-0.2-0.1-0.5,0.1-0.4C-235.8,401.5-235.3,401.6-234.9,401.7z"/>
						<path class="st3" d="M-233.9,402.3c-0.4,0-0.7,0-1.1-0.1c-0.4-0.1-1-0.1-1.4-0.3c-0.2-0.1-0.3-0.3-0.2-0.4
							c0-0.1,0.2-0.2,0.4-0.2c0.3,0.1,0.8,0.2,1.3,0.3h0c0.5,0.1,1,0.1,1.3,0.1c0,0,0,0,0,0c0.2,0,0.3,0.1,0.3,0.3
							c0,0.1-0.1,0.3-0.3,0.3C-233.7,402.3-233.8,402.3-233.9,402.3z M-236.3,401.5c-0.1,0-0.1,0.1-0.2,0.1c0,0.1,0,0.2,0.2,0.2
							c0.4,0.2,1.1,0.3,1.3,0.3c0.4,0.1,1,0.1,1.4,0.1c0.1,0,0.2-0.1,0.2-0.2c0-0.1-0.1-0.2-0.2-0.2c0,0,0,0,0,0
							c-0.4,0-0.9,0-1.3-0.1l0,0C-235.4,401.7-235.9,401.6-236.3,401.5C-236.2,401.5-236.2,401.5-236.3,401.5z"/>
					</g>
					<g>
						<path class="st1" d="M-231,401.7c-0.5,0.1-1,0.1-1.3,0.1c-0.2,0-0.4,0.4,0,0.4c0.4,0,1,0,1.4-0.1c0.3,0,0.9-0.1,1.3-0.3
							c0.4-0.2,0.1-0.5-0.1-0.4C-230.1,401.5-230.6,401.6-231,401.7z"/>
						<path class="st3" d="M-232,402.3c-0.1,0-0.2,0-0.3,0c-0.3,0-0.3-0.2-0.3-0.3c0-0.1,0.1-0.3,0.3-0.3c0,0,0,0,0,0
							c0.4,0,0.9,0,1.3-0.1l0,0c0.5-0.1,0.9-0.2,1.3-0.3c0.2-0.1,0.3,0,0.4,0.2c0,0.1,0,0.3-0.2,0.4c-0.4,0.2-1,0.2-1.4,0.3
							C-231.3,402.2-231.7,402.3-232,402.3z M-232.4,401.8c-0.1,0-0.2,0.1-0.2,0.2c0,0.1,0.1,0.1,0.2,0.2c0.4,0,0.9,0,1.4-0.1
							c0.2,0,0.9-0.1,1.3-0.3c0.1-0.1,0.2-0.1,0.2-0.2c0-0.1-0.1-0.1-0.2-0.1c-0.4,0.1-0.9,0.2-1.3,0.3
							C-231.5,401.8-232,401.9-232.4,401.8C-232.4,401.8-232.4,401.8-232.4,401.8z"/>
					</g>
				</g>
				<g>
					<g>
						<path class="st1" d="M-236.3,401.5c-0.3-0.1-0.5,0.3-0.4,0.6c0-0.1,0.3-0.1,0.3-0.3C-236.4,401.7-236.5,401.6-236.3,401.5z"/>
						<path class="st3" d="M-236.7,402.2l-0.1-0.2c-0.1-0.1-0.1-0.4,0-0.5c0.1-0.1,0.2-0.2,0.4-0.2l0.1,0l-0.1,0.1
							c-0.1,0.1,0,0.1,0,0.1c0,0,0,0.1,0,0.2c0,0.1-0.1,0.1-0.2,0.2c-0.1,0-0.1,0.1-0.1,0.1L-236.7,402.2z M-236.5,401.5
							c-0.1,0-0.1,0.1-0.2,0.1c-0.1,0.1-0.1,0.2-0.1,0.3c0,0,0.1,0,0.1-0.1c0,0,0.1,0,0.1-0.1c0,0,0-0.1,0-0.1
							C-236.5,401.6-236.5,401.6-236.5,401.5z"/>
					</g>
					<g>
						<path class="st1" d="M-235,402.4c0-0.2,0.2-0.1,0.3-0.3c0-0.1,0-0.3-0.2-0.3c-0.1,0-0.2,0.1-0.2,0.2
							C-235.2,402.3-235,402.2-235,402.4z"/>
						<path class="st3" d="M-234.9,402.4l-0.1,0l0,0l0,0l0,0c0-0.1,0-0.1-0.1-0.1c-0.1,0-0.1-0.1-0.1-0.3c0-0.2,0.1-0.3,0.3-0.3
							c0.2,0,0.3,0.2,0.2,0.4c0,0.2-0.1,0.2-0.2,0.2C-234.9,402.3-234.9,402.4-234.9,402.4z M-234.9,401.9c-0.1,0-0.1,0.1-0.2,0.2
							c0,0.1,0,0.1,0.1,0.1c0,0,0,0,0.1,0.1c0,0,0.1,0,0.1,0c0.1,0,0.1,0,0.1-0.1C-234.8,402-234.8,401.9-234.9,401.9
							C-234.9,401.9-234.9,401.9-234.9,401.9z"/>
					</g>
					<g>
						<path class="st1" d="M-233.4,401.9c0.3,0,0.4,0.5,0.2,0.7c0-0.1-0.2-0.2-0.2-0.3C-233.5,402.1-233.3,402-233.4,401.9z"/>
						<path class="st3" d="M-233.3,402.7l0-0.2c0,0,0-0.1-0.1-0.1c-0.1-0.1-0.1-0.1-0.1-0.2c0-0.1,0-0.1,0-0.2c0,0,0-0.1,0-0.1
							l-0.1-0.1l0.1,0c0.2,0,0.3,0.1,0.3,0.3c0.1,0.2,0,0.4-0.1,0.5L-233.3,402.7z M-233.3,402c0,0.1,0,0.1,0,0.1c0,0,0,0.1,0,0.1
							c0,0,0.1,0.1,0.1,0.1c0,0,0.1,0.1,0.1,0.1c0-0.1,0-0.2,0-0.3C-233.2,402.1-233.2,402-233.3,402z"/>
					</g>
					<g>
						<path class="st1" d="M-229.6,401.5c0.3-0.1,0.5,0.3,0.4,0.6c0-0.1-0.3-0.1-0.3-0.3C-229.6,401.7-229.5,401.6-229.6,401.5z"/>
						<path class="st3" d="M-229.3,402.2l0-0.2c0,0-0.1-0.1-0.1-0.1c-0.1,0-0.2-0.1-0.2-0.2c0-0.1,0-0.1,0-0.2c0,0,0-0.1,0-0.1
							l-0.1-0.1l0.1,0c0.2,0,0.3,0,0.4,0.2c0.1,0.2,0.1,0.4,0,0.5L-229.3,402.2z M-229.5,401.5c0,0.1,0,0.1,0,0.1c0,0,0,0.1,0,0.1
							c0,0,0.1,0.1,0.1,0.1c0,0,0.1,0,0.1,0.1c0-0.1,0-0.2-0.1-0.3C-229.3,401.6-229.4,401.5-229.5,401.5z"/>
					</g>
					<g>
						<path class="st1" d="M-230.9,402.4c0-0.2-0.2-0.1-0.3-0.3c0-0.1,0-0.3,0.2-0.3c0.1,0,0.2,0.1,0.2,0.2
							C-230.7,402.3-231,402.2-230.9,402.4z"/>
						<path class="st3" d="M-231,402.4c0-0.1,0-0.1-0.1-0.1c-0.1,0-0.2-0.1-0.2-0.2c0-0.2,0.1-0.3,0.2-0.4c0.2,0,0.3,0.1,0.3,0.3
							c0,0.2-0.1,0.2-0.1,0.3c0,0-0.1,0-0.1,0.1l0,0l0,0l0,0L-231,402.4z M-231,401.9C-231,401.9-231,401.9-231,401.9
							c-0.1,0-0.2,0.1-0.1,0.2c0,0.1,0,0.1,0.1,0.1c0,0,0.1,0,0.1,0c0,0,0,0,0.1-0.1c0,0,0.1-0.1,0.1-0.1
							C-230.9,402-230.9,401.9-231,401.9z"/>
					</g>
					<g>
						<path class="st1" d="M-232.5,401.9c-0.3,0-0.4,0.5-0.2,0.7c0-0.1,0.2-0.2,0.2-0.3C-232.5,402.1-232.6,402-232.5,401.9z"/>
						<path class="st3" d="M-232.6,402.7l-0.1-0.1c-0.1-0.1-0.2-0.3-0.1-0.5c0.1-0.2,0.2-0.3,0.3-0.3l0.1,0l-0.1,0.1
							c0,0.1,0,0.1,0,0.1c0,0,0,0.1,0,0.2c0,0.1-0.1,0.1-0.1,0.2c-0.1,0-0.1,0.1-0.1,0.1L-232.6,402.7z M-232.6,402
							c-0.1,0-0.1,0.1-0.1,0.2c0,0.1,0,0.2,0,0.3c0,0,0.1-0.1,0.1-0.1c0,0,0.1-0.1,0.1-0.1c0,0,0-0.1,0-0.1
							C-232.6,402.1-232.6,402-232.6,402z"/>
					</g>
				</g>
				<g>
					<g>
						<path class="st1" d="M-236.2,401.6c0.1,0,0.3,0.1,0.3,0.1"/>
						<path class="st3" d="M-235.9,401.8C-235.9,401.8-235.9,401.8-235.9,401.8c-0.1-0.1-0.3-0.1-0.3-0.1c0,0-0.1,0-0.1,0
							c0,0,0-0.1,0-0.1C-236.1,401.5-235.9,401.6-235.9,401.8C-235.8,401.7-235.8,401.7-235.9,401.8
							C-235.8,401.8-235.9,401.8-235.9,401.8z"/>
					</g>
					<g>
						<path class="st1" d="M-235.7,401.8c0.1,0,0.3,0,0.4,0.1"/>
						<path class="st3" d="M-235.3,401.9C-235.3,401.9-235.3,401.9-235.3,401.9c-0.1-0.1-0.3-0.1-0.4-0.1c0,0-0.1,0-0.1,0
							c0,0,0-0.1,0-0.1c0.1,0,0.4,0,0.4,0.1C-235.2,401.8-235.2,401.9-235.3,401.9C-235.2,401.9-235.3,401.9-235.3,401.9z"/>
					</g>
					<g>
						<path class="st1" d="M-233.6,402c-0.1,0-0.3,0-0.4,0"/>
						<path class="st3" d="M-234,402.1C-234,402.1-234,402.1-234,402.1c-0.1-0.1-0.1-0.1,0-0.1c0.1-0.1,0.3-0.1,0.4,0
							c0,0,0,0.1,0,0.1s-0.1,0-0.1,0C-233.7,402-233.9,402-234,402.1C-234,402.1-234,402.1-234,402.1z"/>
					</g>
					<g>
						<path class="st1" d="M-234.2,402c-0.1-0.1-0.3-0.1-0.4,0"/>
						<path class="st3" d="M-234.2,402.1C-234.2,402.1-234.2,402.1-234.2,402.1c-0.1,0-0.3-0.1-0.4,0c0,0-0.1,0-0.1,0
							c0,0,0-0.1,0-0.1c0.1,0,0.4,0,0.5,0C-234.1,402-234.1,402-234.2,402.1C-234.2,402.1-234.2,402.1-234.2,402.1z"/>
					</g>
					<g>
						<path class="st1" d="M-229.7,401.6c-0.1,0-0.3,0.1-0.3,0.1"/>
						<path class="st3" d="M-230.1,401.8C-230.1,401.8-230.1,401.8-230.1,401.8C-230.1,401.7-230.1,401.7-230.1,401.8
							c0-0.2,0.2-0.3,0.4-0.2c0,0,0.1,0,0,0.1c0,0,0,0.1-0.1,0C-229.8,401.6-230,401.7-230.1,401.8
							C-230,401.8-230,401.8-230.1,401.8z"/>
					</g>
					<g>
						<path class="st1" d="M-230.3,401.8c-0.1,0-0.3,0-0.4,0.1"/>
						<path class="st3" d="M-230.7,401.9C-230.7,401.9-230.7,401.9-230.7,401.9c-0.1,0-0.1-0.1,0-0.1c0.1-0.1,0.3-0.1,0.4-0.1
							c0,0,0,0,0,0.1c0,0,0,0-0.1,0C-230.4,401.8-230.6,401.9-230.7,401.9C-230.6,401.9-230.6,401.9-230.7,401.9z"/>
					</g>
					<g>
						<path class="st1" d="M-232.3,402c0.1,0,0.3,0,0.4,0"/>
						<path class="st3" d="M-231.9,402.1C-232,402.1-232,402.1-231.9,402.1c-0.1,0-0.3-0.1-0.3,0c0,0-0.1,0-0.1,0c0,0,0-0.1,0-0.1
							c0.1-0.1,0.4-0.1,0.4,0C-231.9,402-231.9,402-231.9,402.1C-231.9,402.1-231.9,402.1-231.9,402.1z"/>
					</g>
					<g>
						<path class="st1" d="M-231.7,402c0.1-0.1,0.3-0.1,0.4,0"/>
						<path class="st3" d="M-231.7,402.1C-231.7,402.1-231.8,402.1-231.7,402.1c-0.1-0.1-0.1-0.1,0-0.1c0.1-0.1,0.4-0.1,0.5,0
							c0,0,0,0.1,0,0.1c0,0-0.1,0-0.1,0C-231.4,402-231.6,402-231.7,402.1C-231.7,402.1-231.7,402.1-231.7,402.1z"/>
					</g>
				</g>
			</g>
			<g>
				<path class="st3" d="M-232.2,390.7c-0.1-0.3-0.3-0.5-0.6-0.5c-0.1,0-0.3-0.1-0.4-0.1c-0.2,0-0.3,0.1-0.4,0.3
					c0.1,0.1,0.2,0.2,0.4,0.3c0.1,0,0.2,0,0.4-0.2C-232.7,390.3-232.3,390.4-232.2,390.7z"/>
			</g>
			<g>
				<path class="st1" d="M-233.2,390.4c-0.1,0-0.1,0.1,0,0.1C-233.1,390.6-233.1,390.4-233.2,390.4z"/>
			</g>
		</g>
	</g>
</g>
</svg>
