<?xml version="1.0" encoding="utf-8"?>
<!-- Generator: Adobe Illustrator 19.0.0, SVG Export Plug-In . SVG Version: 6.00 Build 0)  -->
<svg version="1.1" id="Layer_1" xmlns="http://www.w3.org/2000/svg" xmlns:xlink="http://www.w3.org/1999/xlink" x="0px" y="0px"
	 viewBox="-269 374 72 46" style="enable-background:new -269 374 72 46;" xml:space="preserve">
<style type="text/css">
	.st0{clip-path:url(#SVGID_2_);}
	.st1{fill:#007A3D;}
	.st2{fill:#FFFFFF;}
	.st3{fill:#CE1126;}
</style>
<g>
	<defs>
		<path id="SVGID_1_" d="M-204,420H-262c-3.8,0-7-3.1-7-7V381c0-3.8,3.1-7,7-7h58.1c3.8,0,7,3.1,7,7V413
			C-197,416.9-200.1,420-204,420z"/>
	</defs>
	<clipPath id="SVGID_2_">
		<use xlink:href="#SVGID_1_"  style="overflow:visible;"/>
	</clipPath>
	<g class="st0">
		<path d="M-280.9,373.6c31.4,0,62.8,0,94.1,0c0,5.2,0,10.4,0,15.7c-24.4,0-48.8,0-73.2,0C-267,384.1-274,378.8-280.9,373.6z"/>
		<path class="st1" d="M-259.9,404.9c24.4,0,48.8,0,73.2,0c0,5.2,0,10.5,0,15.7c-31.4,0-62.8,0-94.1,0
			C-274,415.4-267,410.1-259.9,404.9z"/>
		<path class="st2" d="M-259.9,389.3c24.4,0,48.8,0,73.2,0c0,5.2,0,10.4,0,15.7c-24.4,0-48.8,0-73.2,0c3.4-2.6,6.9-5.2,10.4-7.8
			C-252.9,394.5-256.6,392-259.9,389.3z"/>
		<path class="st3" d="M-233,391.6c-2.7,0.7-4.9,2.7-4.5,6.2c0.2,2.6,2.1,4.3,4.5,4.8c-4,0.4-6.7-2.3-6.4-5.9
			C-239.2,393.5-236.7,391.3-233,391.6z"/>
		<path class="st3" d="M-233,392.8c1.1,3,0,0,1.1,3c3.1,0,0,0,3.1,0c-2.5,1.9,0,0-2.5,1.9c1,2.9,0.7,2,1,2.9
			c-2.6-1.8-1.7-1.2-2.6-1.8c-2.5,1.8,0,0-2.5,1.8c0.9-2.9,0,0,0.9-2.9c-2.5-1.9,0-0.1-2.5-1.9c3.1,0,0,0,3.1,0
			C-233,392.8-234,395.8-233,392.8z"/>
		<path class="st3" d="M-280.9,373.6c6.9,5.3,13.9,10.5,20.9,15.7c0,0.1,0,0.1,0.1,0.1c3.4,2.7,7,5.2,10.4,7.9
			c-3.5,2.5-7,5.1-10.4,7.8c-7,5.2-14,10.4-21,15.7C-281,405.1-281,389.1-280.9,373.6z"/>
	</g>
</g>
</svg>
