<?xml version="1.0" encoding="utf-8"?>
<!-- Generator: Adobe Illustrator 19.0.0, SVG Export Plug-In . SVG Version: 6.00 Build 0)  -->
<svg version="1.1" id="Layer_1" xmlns="http://www.w3.org/2000/svg" xmlns:xlink="http://www.w3.org/1999/xlink" x="0px" y="0px"
	 viewBox="-269 374 72 46" style="enable-background:new -269 374 72 46;" xml:space="preserve">
<style type="text/css">
	.st0{clip-path:url(#SVGID_2_);}
	.st1{fill:#E73137;stroke:#000000;stroke-width:0.25;}
	.st2{fill:#5291CE;stroke:#000000;stroke-width:0.25;}
	.st3{fill:#31AA47;stroke:#000000;stroke-width:0.25;}
	.st4{fill:#FBBA07;stroke:#000000;stroke-width:0.25;}
</style>
<g>
	<defs>
		<path id="SVGID_1_" d="M-204,420H-262c-3.8,0-7-3.1-7-7V381c0-3.8,3.1-7,7-7h58.1c3.8,0,7,3.1,7,7V413
			C-197,416.9-200.1,420-204,420z"/>
	</defs>
	<clipPath id="SVGID_2_">
		<use xlink:href="#SVGID_1_"  style="overflow:visible;"/>
	</clipPath>
	<g class="st0">
		<polygon class="st1" points="-170.1,421.9 -170.1,371.1 -271.6,371.1 -271.6,421.9 		"/>
		<path class="st1" d="M-220.9,396.5"/>
		<polygon class="st2" points="-271.6,421.9 -170.1,421.9 -170.1,396.5 		"/>
		<polygon class="st3" points="-271.6,371.1 -170.1,371.1 -170.1,396.5 		"/>
		<path class="st4" d="M-245.4,406.1c0.1-1.1,0-2.7-0.3-3.9c0.7-0.2,1.2-0.8,1.5-1.3c2.1,0.8,3.5-0.5,3.8-1.6
			c-0.3,0.3-1,0.7-1.6,0.8c-0.2,0-0.2,0,0-0.1c0.9-0.5,1.4-1.3,1.5-2.1c-0.5,0.4-0.8,0.4-1.2,0.4c-0.2,0-0.9,0-1.2,0.5
			c-0.1,0.2-0.3,0.1-0.2-0.1c0-0.1,0.1-0.3,0.1-0.5c0-0.2-0.1-0.4,0.7-0.9c0.1-0.1,0.1-0.2,0-0.1c-1.7,0.4-2.3,1.8-1.9,3
			c-0.4,0.9-1.2,1.2-1.6,1.4c0,0,0,0,0,0c-0.5-1.3-0.9-3-0.8-4.1c0-0.2,0-0.5,0.3-0.5c0.4,0,0.8-0.2,1.1-0.5c0.3-0.3,0.7-0.2,1,0
			c1,0.5,2.2-0.2,2.5-0.8c0.2-0.3,0-0.3-0.1-0.2c-0.4,0.3-0.8,0.3-1.4,0.1c-0.2-0.1-0.2-0.2,0.1-0.2c0.9,0,1.5-0.7,1.9-1.3
			c0.1-0.1,0-0.2-0.1-0.1c-0.5,0.3-0.7,0.2-1.1,0.1c-0.3-0.1-0.6-0.2-1,0.1c-0.2,0.1-0.2,0,0-0.2c0.2-0.1,0.1-0.3,0.6-0.6
			c0.1-0.1,0.2-0.2,0-0.2c-1.3-0.1-1.6,0.6-2,1.6c-0.4,1-0.5,1.1-1.4,1.4c-0.3,0.1-0.2-0.1-0.2-0.2c0.6-1.1,1.1-1.9,1.5-3.3
			c0-0.2,0.1-0.3,0.1-0.4c0.4-0.4,0.9-0.6,0.9-0.6c0.1-0.1,0.1-0.1,0.3-0.1c0.9,0.3,2,0,2.4-0.8c0.1-0.2,0-0.2,0-0.2
			c-0.4,0.3-0.8,0.3-1,0.3c-0.3,0-0.3-0.1,0-0.2c0.5-0.1,1.1-0.7,1.2-1.2c0-0.2-0.1-0.2-0.2-0.1c-0.1,0.1-0.4,0.2-0.7,0.2
			c-0.7-0.1-0.8,0.2-0.9,0.4c-0.1,0.2-0.2,0.1-0.2,0s0-0.2,0.1-0.3c0.1-0.1,0.1-0.3,0.5-0.5c0.2-0.1,0.2-0.2,0-0.2
			c-0.9-0.1-1.4,0.7-1.4,1.4c0,0.7-0.1,0.9-0.6,1.4c-0.2,0.1-0.3,0.1-0.2,0c0.4-1.3,0.3-2.1-0.2-3.3c-0.1-0.1-0.1-0.2,0-0.3
			c0.5-0.7,0.1-1.8-0.5-2.4c-0.2-0.2-0.2-0.1-0.2,0c0.1,0.3-0.1,0.7,0,1.2c0,0.1-0.1,0.4-0.2,0.1c-0.1-0.4-0.8-0.6-0.9-1.1
			c0-0.1-0.1-0.2-0.1-0.1c-0.4,0.4-0.3,1.1,0.3,1.6c0.2,0.1,0.1,0.2-0.1,0.1c-0.2-0.1-0.4-0.2-0.7-0.5c-0.1-0.1-0.2-0.1-0.2,0.1
			c0.1,1,1.2,1.5,1.9,1.4c0.2,0,0.2-0.1,0.3,0.1c0.6,1.2,0.1,3-0.4,4.9c-0.1,0.3-0.2,0.2-0.3,0.1c-0.4-0.2-0.9-0.8-1.1-0.9
			c-0.2-0.2-0.1-0.2-0.1-0.4c0.2-0.8-0.3-1.7-1.2-2.4c-0.3-0.2-0.3,0-0.1,0.2c0.2,0.2,0.3,0.7,0.3,1s0,0.3-0.2,0
			c-0.1-0.3-0.6-0.5-1-0.4c-0.4,0-0.6-0.2-0.7-0.5c-0.2-0.2-0.2-0.1-0.2,0c0,0.5,0.4,1.4,1.1,1.7c0.3,0.1,0.2,0.2,0,0.2
			c-0.2,0-0.5,0-1-0.1c-0.2,0-0.3,0-0.2,0.2c0.7,0.8,1.4,0.8,2.6,0.8c0.5,0,0.5,0,0.6,0.1c0.2,0.1,0.4,0.3,0.7,0.7
			c0.5,0.5,0.4,0.5,0.2,0.7c-1.1,1.7-1.4,3.6-1.1,4.7c0.1,0.5,0,0.3-0.2,0.2c-0.2-0.2-0.4-0.4-0.7-0.7c-0.2-0.2-0.3-0.4-0.3-1
			c0-0.6,0-1.9-1.8-2.3c-0.2-0.1-0.2,0.1-0.1,0.1c0.4,0.2,0.5,0.6,0.5,1c0.1,0.4,0,0.4-0.3,0c-0.3-0.4-0.5-0.3-1-0.3
			c-0.5,0-0.8-0.2-1.2-0.7c-0.1,1,0.7,2,1.7,2.3c0.3,0.1,0.2,0.2,0,0.2c-0.2,0-0.5,0-0.6-0.2c-0.2-0.1-0.2-0.1-0.4-0.1
			c-0.2,0-0.5-0.1-0.6-0.2c-0.1-0.1-0.2,0,0,0.3c0.3,0.7,2,2,3.4,1c0.4,0.3,0.7,0.9,1.4,1.4c0.5,0.3,0.4,0.7,0.4,0.9
			c0,0.1,0.1,0.5,0.3,0.9c0.2,0.4,0.2,0.8,0.2,1.1c0,0.9,0,2.2,0,3.1c-0.2-0.1-0.4-0.2-0.7-0.3c-2.8-1.3-2.2-3.7-5.2-5.7
			c-0.2-0.2-0.4-0.2-0.2,0.1c0.2,0.3,0.4,1.3,0.4,1.8c0,0.5,0,0.9,0.2,1.3c0.2,0.3,0,0.3-0.2,0.1c-0.2-0.2-0.4-0.4-0.7-0.7
			c0.2-1.3,0-4-0.9-5.6c-0.1-0.2-0.2-0.1-0.2,0c0.1,1-0.3,1.6-0.6,2c-0.1,0.2-0.3,0.5-0.3,0.7c0,0.3-0.1,0.2-0.2,0
			c-0.1-0.1-0.2-0.4-0.3-0.5c-0.1-0.2-0.2-0.2-0.1-0.3c0.9-1,1.5-3.3,1.2-4.8c0-0.1-0.1-0.1-0.1,0c-0.4,1.5-1,0.8-1.6,1.7
			c-0.2,0.3-0.2,0-0.3-0.3c0-0.2,0-0.4,0-0.4c1.6-1,2.1-2.2,2.6-3.5c0.1-0.4,0-0.7-0.2-0.1c-0.2,0.6-0.8,0.6-1.1,0.6
			c-0.3,0-0.5,0.1-0.6,0.2s-0.2,0.2-0.2,0c0-0.1,0-0.2,0.2-0.5c0.2-0.3,0.1-0.4,0.5-0.4c1.1,0,2.2-0.8,2.8-2.1
			c0.3-0.6-0.1-0.3-0.3-0.1c-0.2,0.2-0.5,0.2-0.7,0.2c-0.2,0-0.5-0.1-0.7-0.1c-0.2,0-0.2-0.2,0-0.4c0.2-0.2,0.2-0.3,0.4-0.2
			c1,0.7,3-0.1,3.3-1.1c0.1-0.3,0.1-0.3-0.2-0.2c-0.8,0.3-1.2,0-1.5,0c-0.3,0-0.3-0.1,0.2-0.3c0.5-0.3,0.6-0.2,1.5-0.1
			c0.8,0.1,1.5-0.1,2.5-1.1c0.2-0.1,0.1-0.2-0.1-0.1c-0.1,0.1-0.2,0-0.4,0c-0.3,0-0.7,0.1-1,0.2c-0.3,0.1-0.4-0.2,0-0.2
			c1.1-0.1,1.8-0.6,2.1-0.8c0.3-0.2,0.2-0.3,0.1-0.3c-0.2,0-0.4,0-0.8,0c-0.4,0-1.1,0.4-1.5,0.8c-0.2,0.2-0.2,0.2-0.2,0
			c0.2-0.3,0.7-0.8,1-1.1c0.1-0.1,0-0.1-0.1-0.1c-1.2,0-2.4,0.7-3,1.9c-0.2,0.1-0.4,0.2-0.6,0.3c0-0.9,0.7-1.3,1.4-1.8
			c0.1-0.1,0-0.2,0-0.1c-2.5,0.1-3.5,2-3.4,3.7c-0.1,0.1-0.1,0.2-0.2,0.2c-0.4-0.4,0-1.7,0.4-2.2c-2.2,0.4-2.7,3.8-2.1,4.7
			c0.1,0.2,0.1,0.3,0.1,0.4c0,0.3-0.1,0.2-0.1,0.1c-0.3-0.5-0.6-1.6-0.3-2.7c0-0.1,0-0.1-0.1-0.1c-2.2,2-1.6,4.9-0.1,6.2
			c0,0.1,0,0.2,0,0.3c-1-0.7-1.4-1.7-1.6-2.7c-1.3,3.1,0.1,5.4,2.3,6.6c0,0.1,0.1,0.2,0.1,0.3c-1.5-0.4-2.3-1.6-2.7-2.2
			c0,3.9,3.1,5.7,5.1,5.7c0.1,0.1,0.2,0.2,0.4,0.4c-1.7,0.1-3.4-0.6-4-1c-0.2-0.1-0.2-0.1-0.1,0.1c2.5,4.3,7.6,4.3,10,4.1
			c0.1,0,0.2,0,0.3,0c-0.7,0.4-1.4,0.9-1.7,1.2c-0.1,0.1-0.1,0.2,0.1,0.4c0.2,0.2,0.2,0.3,0.5,0.1c0.4-0.4,0.8-0.7,1.3-1.1
			c0,0.3-0.1,0.6-0.3,0.8c-0.2,0.3,0,0.3,0.2,0.3c0.2,0,0.5,0,0.8,0.1c0.2,0.1,0.2,0,0.1-0.2c0-0.2-0.1-0.5,0-1.1
			c0.5,0.4,0.9,0.9,1.5,1.4c0.2,0.2,0.2,0.1,0.4-0.1c0.3-0.2,0.3-0.3,0.1-0.5c-0.6-0.6-0.8-0.8-1.7-1.3c0.4-0.1,0.8-0.1,1.2-0.1
			c2.4,0.3,7.7-0.4,8.9-3.9c-0.6,0.8-2,1-2.8,1c-0.3,0-0.7,0-0.9,0.1c-0.2,0.1-0.3,0-0.1-0.1c0.2-0.1,0.3-0.2,0.5-0.2
			c3.5-0.3,4.8-3.5,4.5-5.5c-0.3,0.8-1.1,1.5-2.1,2c-0.2,0.1-0.3,0.1-0.3,0c0-0.1,0.1-0.2,0.2-0.3c3.2-2.3,2.5-5.2,2-6.5
			c-0.1-0.2-0.1-0.1-0.1,0c-0.1,1.3-0.6,1.7-1.3,2.7c-0.1,0.1-0.2,0.1-0.2,0.1c0-0.1,0-0.2,0-0.3c2.1-2.1,1.1-4.8-0.3-6.2
			c0.2,1,0,2.3-0.2,2.6c-0.1,0.3-0.2,0.3-0.2,0.2c0-0.1,0-0.2-0.1-0.3c0.6-2.2-0.2-4-2-5.1c0.2,0.4,0.5,1.7,0.5,2.1
			c-0.1,0.4-0.2,0.3-0.2,0c-0.4-2.7-1.7-3.5-3.7-3.9c-0.1,0-0.1,0.1,0,0.1c0.7,0.4,1.3,1.1,1.5,1.5c0.2,0.4,0,0.3-0.3,0.2
			c-0.2,0-0.3-0.1-0.4-0.2c-0.8-1.6-1.8-1.8-3.1-2c-0.2,0-0.2,0-0.1,0.1c0.5,0.3,0.9,0.6,1.3,1.1c0.2,0.2,0,0.2-0.2,0.1
			c-0.9-1.1-1.5-1-2.3-0.9c-0.2,0-0.2,0.1,0,0.2c0.1,0,0.2,0.2,0.3,0.2c0.7,0.5,1.4,0.7,2.3,0.9c0.2,0,0.1,0.1,0,0.1
			c-0.5,0-1.2-0.2-1.7-0.4c-0.2-0.1-0.1,0-0.1,0.1c1.5,1.7,2.6,1.4,3.1,1.3c0.2,0,0.3-0.1,0.5,0c0.2,0.1,0.5,0.2,0.7,0.4
			c0.2,0.1,0,0.2-0.2,0.2c-0.2,0-0.6,0-0.8,0c-0.2,0-0.6-0.1-0.8-0.2c-0.1-0.1-0.2-0.1-0.1,0c0.2,1,1.8,2.3,3.7,1.7
			c0.1,0.1,0.3,0.2,0.4,0.4c0.2,0.2,0.1,0.3-0.1,0.2c-0.2,0-0.3-0.1-0.5-0.1c-0.2,0-0.7,0-1.1-0.3c-0.1-0.1-0.3-0.1-0.3,0
			c0.4,1.4,1.9,2.3,3.3,2.5c0.1,0.2,0.2,0.4,0.2,0.6c0.2,0.4,0,0.3-0.1,0.2c-0.2-0.2-1,0.1-2-1c-0.1-0.1-0.1-0.1-0.1,0
			c0.3,1.5,1.2,2.9,2.8,3.9c0,0.2,0,0.4,0,0.6c-0.1,0.2-0.1,0.3-0.4,0c-0.2-0.3-1.3-0.5-1.6-1.9c-0.3,1.5,0.2,3.5,1,4.7
			c0.2,0.3,0.3,0.5,0.2,0.6c-0.1,0.1-0.2,0.4-0.3,0.6c-0.1,0.2-0.2,0.3-0.2,0c0-0.3-1.2-1.2-1-3c-0.9,1-1,4.1-0.8,5.7
			c-0.2,0.3-0.4,0.5-0.7,0.8c-0.4,0.4-0.5,0.2-0.2-0.2c0.2-0.4,0.2-1,0.2-1.5c0-0.5,0.2-1.2,0.4-1.6c0.2-0.4,0.1-0.5-0.2-0.3
			c-0.3,0.2-1.9,1.7-2.7,3.5c-0.3,0.7-0.6,1.5-2,1.9C-244.7,405.8-245.1,406-245.4,406.1L-245.4,406.1z"/>
	</g>
</g>
</svg>
