<?xml version="1.0" encoding="utf-8"?>
<!-- Generator: Adobe Illustrator 19.0.0, SVG Export Plug-In . SVG Version: 6.00 Build 0)  -->
<svg version="1.1" id="Layer_1" xmlns="http://www.w3.org/2000/svg" xmlns:xlink="http://www.w3.org/1999/xlink" x="0px" y="0px"
	 viewBox="-269 374 72 46" style="enable-background:new -269 374 72 46;" xml:space="preserve">
<style type="text/css">
	.st0{clip-path:url(#SVGID_2_);}
	.st1{fill:#00633A;}
	.st2{fill:#E9511D;}
	.st3{fill:#FFED00;}
	.st4{fill:#0096DC;}
</style>
<g>
	<defs>
		<path id="SVGID_1_" d="M-204,420H-262c-3.8,0-7-3.1-7-7V381c0-3.8,3.1-7,7-7h58.1c3.8,0,7,3.1,7,7V413
			C-197,416.9-200.1,420-204,420z"/>
	</defs>
	<clipPath id="SVGID_2_">
		<use xlink:href="#SVGID_1_"  style="overflow:visible;"/>
	</clipPath>
	<g class="st0">
		<g>
			<polygon class="st1" points="-185,388.5 -281,388.5 -281,372.5 -185,372.5 			"/>
		</g>
		<g>
			<path d="M-184.9,388.6h-96.3v-16.3h96.3V388.6z M-280.9,388.4h95.8v-15.8h-95.8V388.4z"/>
		</g>
		<g>
			<polygon class="st2" points="-281,420.5 -185,420.5 -185,404.5 -281,404.5 			"/>
		</g>
		<g>
			<path d="M-184.9,420.6h-96.3v-16.3h96.3V420.6z M-280.9,420.4h95.8v-15.8h-95.8V420.4z"/>
		</g>
		<g>
			<polygon class="st3" points="-185,404.5 -281,404.5 -281,388.5 -185,388.5 			"/>
		</g>
		<g>
			<path d="M-184.9,404.6h-96.3v-16.3h96.3V404.6z M-280.9,404.4h95.8v-15.8h-95.8V404.4z"/>
		</g>
		<g>
			<path class="st4" d="M-233.2,408.5c6.6,0,12-5.4,12-12c0-6.6-5.4-12-12-12c-6.6,0-12,5.4-12,12
				C-245.2,403.1-239.8,408.5-233.2,408.5L-233.2,408.5z"/>
		</g>
		<g>
			<path d="M-233.2,408.6c-6.7,0-12.1-5.4-12.1-12.1s5.4-12.1,12.1-12.1c6.7,0,12.1,5.4,12.1,12.1S-226.5,408.6-233.2,408.6z
				 M-233.2,384.6c-6.5,0-11.9,5.3-11.9,11.9c0,6.5,5.3,11.9,11.9,11.9c6.5,0,11.9-5.3,11.9-11.9
				C-221.3,389.9-226.6,384.6-233.2,384.6z"/>
		</g>
		<g>
			<polygon class="st3" points="-233,401 -233.1,406.1 -233.3,406.1 -233.3,401 			"/>
		</g>
		<g>
			<polygon class="st3" points="-228.8,397.7 -224,399.3 -224.1,399.5 -228.9,398 			"/>
		</g>
		<g>
			<polygon class="st3" points="-230.6,392.7 -227.6,388.6 -227.4,388.7 -230.3,392.8 			"/>
		</g>
		<g>
			<polygon class="st3" points="-236,392.8 -238.9,388.7 -238.8,388.6 -235.7,392.7 			"/>
		</g>
		<g>
			<polygon class="st3" points="-237.5,398 -242.3,399.5 -242.3,399.3 -237.6,397.7 			"/>
		</g>
		<g>
			<polygon class="st3" points="-233.8,389 -235.3,393.5 -242.2,393.5 -240.9,394.5 -235.6,394.5 -236.2,396.4 -235.4,397 
				-233.3,390.5 			"/>
		</g>
		<g>
			<polygon class="st3" points="-240.5,394.8 -236.6,397.6 -238.8,404.2 -237.4,403.2 -235.8,398.2 -234.2,399.4 -233.4,398.8 
				-238.9,394.8 			"/>
		</g>
		<g>
			<polygon class="st3" points="-237.1,402.9 -233.2,400.1 -227.6,404.2 -228.1,402.6 -232.4,399.5 -230.8,398.4 -231.1,397.4 
				-236.5,401.4 			"/>
		</g>
		<g>
			<polygon class="st3" points="-228.2,402.2 -229.7,397.6 -224.1,393.5 -225.8,393.5 -230,396.7 -230.6,394.8 -231.6,394.8 
				-229.6,401.2 			"/>
		</g>
		<g>
			<polygon class="st3" points="-226.2,393.6 -231,393.5 -233.2,387 -233.7,388.5 -232,393.5 -234,393.5 -234.3,394.5 -227.6,394.5 
							"/>
		</g>
	</g>
</g>
</svg>
