<?xml version="1.0" encoding="utf-8"?>
<!-- Generator: Adobe Illustrator 19.0.0, SVG Export Plug-In . SVG Version: 6.00 Build 0)  -->
<svg version="1.1" id="Layer_1" xmlns="http://www.w3.org/2000/svg" xmlns:xlink="http://www.w3.org/1999/xlink" x="0px" y="0px"
	 viewBox="-269 374 72 46" style="enable-background:new -269 374 72 46;" xml:space="preserve">
<style type="text/css">
	.st0{clip-path:url(#SVGID_2_);}
	.st1{fill:#6EC8E9;}
	.st2{fill:#6EC8E9;stroke:#000000;stroke-width:0.25;}
	.st3{fill:#212062;}
	.st4{fill:#FFFFFF;}
	.st5{fill:#E30520;}
	.st6{fill:#AF3120;}
	.st7{fill:none;}
	.st8{fill:#FFE146;}
	.st9{fill:#008F4A;}
</style>
<g>
	<defs>
		<path id="SVGID_1_" d="M-204,420H-262c-3.8,0-7-3.1-7-7V381c0-3.8,3.1-7,7-7h58.1c3.8,0,7,3.1,7,7V413
			C-197,416.9-200.1,420-204,420z"/>
	</defs>
	<clipPath id="SVGID_2_">
		<use xlink:href="#SVGID_1_"  style="overflow:visible;"/>
	</clipPath>
	<g class="st0">
		<g>
			<g>
				<rect x="-280.4" y="373.3" class="st1" width="94.8" height="47.4"/>
				<path d="M-185.5,420.8h-95v-47.6h95V420.8z M-280.3,420.6h94.5v-47.1h-94.5V420.6z"/>
			</g>
			<g>
				<path class="st2" d="M-233,397"/>
			</g>
		</g>
		<g>
			<rect x="-280.4" y="373.3" class="st3" width="47.3" height="23.7"/>
			<path d="M-232.9,397.1h-47.6v-23.9h47.6V397.1z M-280.3,396.9h47.1v-23.4h-47.1V396.9z"/>
		</g>
		<g>
			<polygon class="st4" points="-280.4,381.2 -270.4,381.2 -280.4,376.2 -280.4,373.3 -274.7,373.3 -260.7,380.3 -260.7,373.3 
				-252.8,373.3 -252.8,380.3 -238.8,373.3 -233.1,373.3 -233.1,376.2 -243.1,381.2 -233.1,381.2 -233.1,389.1 -243.1,389.1 
				-233.1,394.1 -233.1,397 -238.8,397 -252.8,390 -252.8,397 -260.7,397 -260.7,390 -274.7,397 -280.4,397 -280.4,394.1 
				-270.4,389.1 -280.4,389.1 			"/>
			<path d="M-232.9,397.1l-5.9,0l-13.8-6.9v6.9h-8.1v-6.9l-13.9,6.9h-5.8V394l9.6-4.8h-9.6v-8.1h9.6l-9.6-4.8v-3.1l5.9,0l13.8,6.9
				v-6.9h8.1v6.9l13.9-6.9h5.9v3.1l-9.6,4.8h9.6v8.1h-9.6l9.6,4.8V397.1z M-238.8,396.9h5.6v-2.7l-10-5l0.1-0.2h9.9v-7.6h-9.9
				l-0.1-0.2l10-5v-2.7h-5.6l-14.1,7v-7h-7.6v7l-0.2-0.1l-14-7h-5.6v2.7l9.9,5l-0.1,0.2h-9.9v7.6h9.9l0.1,0.2l-9.9,5v2.7h5.6l14.1-7
				v7h7.6v-7l0.2,0.1L-238.8,396.9z"/>
		</g>
		<g>
			<g>
				<polygon class="st5" points="-236.8,373.3 -252.6,381.2 -248.8,381.2 -233.1,373.3 				"/>
				<path d="M-248.8,381.3h-3.8l-0.1-0.2l15.8-7.9h3.7l0.1,0.2L-248.8,381.3z M-252,381.1h3.2l15.2-7.6h-3.2L-252,381.1z"/>
			</g>
			<g>
				<polygon class="st5" points="-233.1,397 -248.8,389.1 -245,389.1 -233.1,395.1 				"/>
				<path d="M-233.1,397.1l-15.7-7.9l0.1-0.2l3.9,0l11.9,6l0.1,0.1v1.9L-233.1,397.1z M-248.3,389.2l15.1,7.6v-1.6l-11.9-6H-248.3z"
					/>
			</g>
			<g>
				<polygon class="st5" points="-264.6,381.2 -280.4,373.3 -280.4,375.2 -268.4,381.2 				"/>
				<path d="M-264.6,381.3l-3.9,0l-12-6l-0.1-0.1v-1.9l0.2-0.1l15.8,7.9L-264.6,381.3z M-268.3,381.1h3.3l-15.2-7.6v1.6
					L-268.3,381.1z"/>
			</g>
			<g>
				<polygon class="st5" points="-264.6,389.1 -280.4,397 -276.6,397 -260.8,389.1 				"/>
				<path d="M-276.6,397.1h-3.8l-0.1-0.2l15.8-7.9h3.8l0.1,0.2L-276.6,397.1z M-279.8,396.9h3.2l15.3-7.6h-3.2L-279.8,396.9z"/>
			</g>
			<g>
				<polygon class="st5" points="-280.4,382.8 -259,382.8 -259,373.3 -254.4,373.3 -254.4,382.8 -233.1,382.8 -233.1,387.5 
					-254.4,387.5 -254.4,397 -259,397 -259,387.5 -280.4,387.5 				"/>
				<path d="M-254.3,397.1h-4.9v-9.5h-21.4v-4.9h21.4v-9.5h4.9v9.5h21.3v4.9h-21.3V397.1z M-258.9,396.9h4.4v-9.5h21.3V383h-21.3
					v-9.5h-4.4v9.5h-21.4v4.4h21.4V396.9z"/>
			</g>
		</g>
		<g>
			<g>
				<path class="st5" d="M-201.2,386.3c0,0,0,10.6,0,13.5c0,3-3.9,6-8.1,7.8c-4.3-1.8-8.1-4.8-8.1-7.8c0-3,0-13.5,0-13.5H-201.2z"/>
				<path d="M-209.3,407.7L-209.3,407.7c-3.8-1.6-8.2-4.6-8.2-7.8v-13.6h16.4v13.6C-201.1,403.1-205.5,406.1-209.3,407.7
					L-209.3,407.7z M-217.4,386.4v13.5c0,3.2,4.4,6.2,8.1,7.7c3.7-1.6,8.1-4.5,8.1-7.7v-13.5H-217.4z"/>
			</g>
			<g>
				<g>
					<path class="st4" d="M-210.8,407c-3.6-1.8-6.6-4.4-6.6-7.1h6.6V407z"/>
					<path d="M-210.8,407L-210.8,407c-4.2-2.1-6.7-4.8-6.7-7.1v0h6.7V407z M-217.4,399.9c0,2.3,2.5,4.9,6.6,7v-7H-217.4z"/>
				</g>
				<g>
					<path class="st4" d="M-217.5,396.8c0-1.6,0-3.4,0-5h6.6v5H-217.5z"/>
					<path d="M-210.8,396.9h-6.7v-5h6.7V396.9z M-217.4,396.8h6.6v-4.9h-6.6V396.8z"/>
				</g>
				<g>
					<path class="st4" d="M-207.8,407c3.6-1.8,6.6-4.4,6.6-7.1h-6.6V407z"/>
					<path d="M-207.8,407v-7.2h6.7v0C-201.1,402.3-203.6,404.9-207.8,407L-207.8,407z M-207.8,399.9v7c4.1-2.1,6.5-4.7,6.6-7H-207.8
						z"/>
				</g>
				<g>
					<path class="st4" d="M-201.2,396.8c0-1.6,0-3.4,0-5h-6.6v5H-201.2z"/>
					<path d="M-201.1,396.9h-6.7v-5h6.7V396.9z M-207.8,396.8h6.6v-4.9h-6.6V396.8z"/>
				</g>
			</g>
			<g>
				<g>
					<g>
						<path class="st6" d="M-203.8,400.9c0.3-0.3,1.1-0.3,1.4-0.1c0.1,0,0.2,0,0.2-0.2c0-0.2-0.1-0.3-0.4-0.3c-0.3,0-1.1,0-1.6,0.5
							C-204.4,401-204,401.1-203.8,400.9z"/>
						<path d="M-204.1,401.1c-0.1,0-0.2,0-0.2-0.1c0,0-0.1-0.1,0.1-0.3c0.5-0.5,1.2-0.5,1.5-0.5c0,0,0.1,0,0.1,0
							c0.2,0,0.3,0,0.3,0.1c0.1,0.1,0.1,0.2,0.1,0.3c0,0.2-0.1,0.2-0.1,0.3c0,0-0.1,0-0.1,0c-0.3-0.2-1-0.2-1.4,0.1l0,0
							C-203.8,401-204,401.1-204.1,401.1z M-202.5,400.3C-202.5,400.3-202.6,400.3-202.5,400.3c0,0-0.1,0-0.1,0c-0.4,0-1,0-1.5,0.5
							c0,0-0.1,0.1-0.1,0.2c0.1,0.1,0.3,0.1,0.4,0c0.4-0.3,1.2-0.3,1.5-0.1c0,0,0,0,0.1,0c0,0,0.1-0.1,0.1-0.2c0-0.1,0-0.2-0.1-0.2
							C-202.3,400.3-202.4,400.3-202.5,400.3z"/>
					</g>
					<g>
						<path class="st6" d="M-206.1,404c-0.1,0.1-0.3,0.4-0.4,0.6c-0.1,0.1-0.2,0.2-0.4,0.3c-0.4,0.1-0.1,0.3-0.5,0.8
							c0.2,0,0.4-0.1,0.5-0.2c0.1,0.1,0.2,0.2,0.2,0.2c0-0.1,0.2-0.2,0.2-0.3c0,0.1,0.1,0.2,0.2,0.2c0-0.1,0.2-0.3,0.3-0.3
							c0-0.1-0.1-0.1-0.1-0.3c0-0.2-0.1-0.3,0.1-0.6C-205.7,404.1-205.8,403.6-206.1,404z"/>
						<path d="M-207.4,405.6L-207.4,405.6c0.2-0.3,0.2-0.4,0.2-0.5c0-0.1,0-0.2,0.3-0.3c0.3-0.1,0.3-0.2,0.4-0.3l0-0.1
							c0.1-0.2,0.2-0.4,0.3-0.5c0.2-0.2,0.3-0.1,0.3-0.1c0.1,0.1,0,0.3-0.1,0.5c-0.2,0.2-0.2,0.3-0.2,0.4c0,0,0,0.1,0,0.2
							c0,0.1,0,0.2,0.1,0.2c0,0,0,0.1,0,0.1l0,0l0,0c-0.1,0.1-0.2,0.2-0.3,0.3l0,0l0,0c0,0-0.1-0.1-0.2-0.2c0,0,0,0-0.1,0.1
							c0,0-0.1,0.1-0.1,0.1l0,0l0,0c-0.1,0-0.1-0.1-0.2-0.2C-207,405.5-207.2,405.6-207.4,405.6L-207.4,405.6z M-205.9,403.9
							c0,0-0.1,0-0.2,0.1l0,0c-0.1,0.1-0.2,0.3-0.3,0.5l0,0.1c-0.1,0.1-0.2,0.2-0.5,0.3c-0.2,0.1-0.2,0.1-0.2,0.3
							c0,0.1,0,0.2-0.2,0.4c0.2,0,0.4-0.1,0.5-0.2l0,0l0,0c0.1,0.1,0.1,0.1,0.2,0.2c0-0.1,0.1-0.1,0.1-0.1c0,0,0.1-0.1,0.1-0.1
							l0.1,0c0,0.1,0.1,0.1,0.1,0.2c0-0.1,0.2-0.2,0.2-0.3c0,0,0,0,0-0.1c0,0-0.1-0.1-0.1-0.2c0-0.1,0-0.1,0-0.1
							c0-0.1,0-0.2,0.2-0.5C-205.8,404.2-205.8,403.9-205.9,403.9C-205.9,403.9-205.9,403.9-205.9,403.9z"/>
					</g>
				</g>
				<g>
					<g>
						<path d="M-202.4,400.8c-0.1-0.1-0.1-0.2-0.1-0.4c0-0.1,0.1-0.2,0.1-0.2c0,0,0,0,0.1,0l0,0.1c0,0,0,0,0,0c0,0-0.1,0.1-0.1,0.1
							C-202.4,400.6-202.4,400.7-202.4,400.8L-202.4,400.8z"/>
					</g>
					<g>
						<path class="st7" d="M-206.8,405.4c0,0,0-0.1,0-0.2"/>
					</g>
					<g>
						<path class="st7" d="M-206.4,405.3c0-0.1,0.1-0.2,0.1-0.3"/>
					</g>
				</g>
				<g>
					<g>
						<path class="st8" d="M-202.9,401.9c-0.2-0.2-0.4,0.2-0.6,0.5c-0.2,0.3-0.4,0.6-0.3,0.7c0.1,0.1,0.5-0.1,0.7-0.4
							C-202.9,402.4-202.7,402-202.9,401.9z"/>
						<path d="M-203.7,403.1C-203.8,403.1-203.8,403.1-203.7,403.1c-0.3-0.2,0-0.6,0.2-0.8c0,0,0.1-0.1,0.1-0.1
							c0.1-0.2,0.3-0.4,0.4-0.4c0.1,0,0.1,0,0.2,0l0,0c0.2,0.1,0.1,0.4-0.2,0.8C-203.3,402.9-203.5,403.1-203.7,403.1z M-203,401.9
							C-203,401.9-203,401.9-203,401.9c-0.1,0-0.3,0.2-0.4,0.4c0,0-0.1,0.1-0.1,0.1c-0.3,0.3-0.4,0.6-0.3,0.7
							c0.1,0.1,0.4-0.1,0.6-0.4C-202.8,402.3-202.8,402-203,401.9L-203,401.9C-202.9,401.9-203,401.9-203,401.9z"/>
					</g>
					<g>
						<path class="st8" d="M-203,401.6c-0.2-0.2-0.5,0.2-0.7,0.4c-0.2,0.2-0.5,0.6-0.4,0.7c0.1,0.1,0.5-0.1,0.7-0.3
							S-202.8,401.8-203,401.6z"/>
						<path d="M-204,402.8c-0.1,0-0.1,0-0.1,0c-0.1-0.1,0.2-0.5,0.4-0.7c0,0,0.1-0.1,0.1-0.1c0.2-0.2,0.3-0.3,0.5-0.3c0,0,0,0,0,0
							c0.1,0,0.1,0,0.1,0.1l0,0c0.2,0.2,0.1,0.4-0.3,0.8c-0.1,0.1-0.3,0.2-0.4,0.3C-203.8,402.8-203.9,402.8-204,402.8z
							 M-203.1,401.6C-203.1,401.6-203.1,401.6-203.1,401.6c-0.1,0-0.3,0.2-0.4,0.3c0,0-0.1,0.1-0.1,0.1c-0.3,0.3-0.5,0.6-0.4,0.6
							c0,0,0.2,0,0.3,0c0.1-0.1,0.3-0.2,0.4-0.3C-203,402-202.9,401.8-203.1,401.6L-203.1,401.6
							C-203.1,401.6-203.1,401.6-203.1,401.6z"/>
					</g>
					<g>
						<path class="st8" d="M-203.2,401.4c-0.2-0.2-0.5,0.2-0.7,0.4c-0.2,0.2-0.5,0.6-0.4,0.8c0.1,0.1,0.5-0.2,0.7-0.4
							C-203.3,401.9-203,401.6-203.2,401.4z"/>
						<path d="M-204.2,402.6C-204.2,402.6-204.3,402.6-204.2,402.6c-0.2-0.2,0.1-0.6,0.3-0.8c0,0,0.1-0.1,0.1-0.1
							c0.2-0.2,0.3-0.3,0.5-0.3c0,0,0,0,0,0c0.1,0,0.1,0,0.1,0.1c0.1,0.1,0.1,0.2,0,0.4c-0.1,0.1-0.2,0.2-0.3,0.4
							C-203.7,402.3-204,402.6-204.2,402.6L-204.2,402.6z M-203.3,401.4C-203.3,401.4-203.3,401.4-203.3,401.4
							c-0.1,0-0.3,0.2-0.4,0.3c0,0-0.1,0.1-0.1,0.1c-0.3,0.3-0.5,0.6-0.4,0.7c0,0,0,0,0.1,0c0,0,0,0,0,0c0.1,0,0.5-0.2,0.6-0.4
							c0.1-0.1,0.3-0.3,0.3-0.4C-203.2,401.6-203.2,401.5-203.3,401.4C-203.3,401.4-203.3,401.4-203.3,401.4z"/>
					</g>
					<g>
						<path class="st8" d="M-203.5,401.1c-0.2-0.2-0.5,0.2-0.7,0.4c-0.2,0.2-0.4,0.7-0.3,0.8c0.1,0.1,0.5-0.2,0.7-0.4
							C-203.6,401.6-203.3,401.3-203.5,401.1z"/>
						<path d="M-204.4,402.3C-204.5,402.3-204.5,402.3-204.4,402.3c-0.2-0.2,0-0.6,0.2-0.9c0,0,0.1-0.1,0.1-0.1
							c0.2-0.2,0.3-0.3,0.5-0.3c0,0,0,0,0,0c0.1,0,0.1,0,0.1,0.1c0.2,0.2-0.1,0.7-0.3,0.8C-203.9,402-204.2,402.3-204.4,402.3
							C-204.4,402.3-204.4,402.3-204.4,402.3z M-203.6,401.1C-203.6,401.1-203.6,401.1-203.6,401.1c-0.1,0-0.3,0.2-0.4,0.3
							c0,0-0.1,0.1-0.1,0.1c-0.2,0.2-0.4,0.6-0.3,0.7c0,0,0,0,0.1,0h0c0.1,0,0.4-0.2,0.6-0.4C-203.6,401.6-203.4,401.3-203.6,401.1
							C-203.5,401.1-203.6,401.1-203.6,401.1z"/>
					</g>
					<g>
						<path class="st8" d="M-204.5,400.3c-0.2-0.2-0.4,0.2-0.6,0.5c-0.2,0.3-0.3,0.7-0.2,0.8c0.1,0.1,0.4-0.3,0.6-0.5
							C-204.5,400.9-204.3,400.5-204.5,400.3z"/>
						<path d="M-205.2,401.7C-205.3,401.7-205.3,401.7-205.2,401.7c-0.2-0.1-0.1-0.7,0.1-0.9c0,0,0.1-0.1,0.1-0.1
							c0.1-0.2,0.3-0.4,0.4-0.4c0.1,0,0.1,0,0.2,0l0,0c0,0,0.1,0.1,0.1,0.1c0,0.2-0.2,0.5-0.3,0.7c0,0-0.1,0.1-0.1,0.1
							C-204.9,401.5-205.1,401.7-205.2,401.7C-205.2,401.7-205.2,401.7-205.2,401.7z M-204.6,400.3
							C-204.6,400.3-204.6,400.3-204.6,400.3c-0.1,0-0.3,0.2-0.4,0.4c0,0-0.1,0.1-0.1,0.1c-0.2,0.2-0.3,0.7-0.2,0.8c0,0,0,0,0,0
							c0.1,0,0.2-0.2,0.4-0.4c0,0,0.1-0.1,0.1-0.1c0.1-0.1,0.4-0.5,0.3-0.6C-204.4,400.4-204.5,400.4-204.6,400.3L-204.6,400.3
							C-204.5,400.4-204.5,400.3-204.6,400.3z"/>
					</g>
					<g>
						<path class="st8" d="M-204.1,400.5c-0.2-0.2-0.4,0.2-0.6,0.4c-0.2,0.2-0.4,0.7-0.2,0.8c0.1,0.1,0.4-0.2,0.6-0.5
							C-204.2,401.1-203.9,400.7-204.1,400.5z"/>
						<path d="M-204.9,401.8C-204.9,401.8-204.9,401.8-204.9,401.8c-0.1-0.1-0.1-0.1-0.1-0.2c0-0.2,0.1-0.5,0.3-0.7
							c0,0,0.1-0.1,0.1-0.1c0.1-0.2,0.3-0.4,0.4-0.4c0,0,0,0,0,0c0,0,0.1,0,0.1,0.1l0,0c0,0,0.1,0.1,0.1,0.2c0,0.2-0.2,0.4-0.4,0.7
							c0,0-0.1,0.1-0.1,0.1C-204.6,401.6-204.8,401.8-204.9,401.8C-204.9,401.8-204.9,401.8-204.9,401.8z M-204.2,400.5
							C-204.2,400.5-204.2,400.5-204.2,400.5c-0.1,0-0.3,0.2-0.4,0.4c0,0-0.1,0.1-0.1,0.1c-0.2,0.2-0.3,0.5-0.3,0.7c0,0,0,0.1,0,0.1
							c0,0,0,0,0,0c0.1,0,0.3-0.2,0.4-0.4c0,0,0.1-0.1,0.1-0.1c0.1-0.1,0.4-0.4,0.4-0.6C-204,400.6-204.1,400.6-204.2,400.5
							L-204.2,400.5C-204.1,400.5-204.2,400.5-204.2,400.5z"/>
					</g>
					<g>
						<path class="st8" d="M-203.8,400.8c-0.2-0.2-0.4,0.2-0.6,0.5c-0.2,0.3-0.4,0.6-0.3,0.7c0.1,0.1,0.4-0.2,0.6-0.5
							C-203.9,401.3-203.6,401-203.8,400.8z"/>
						<path d="M-204.7,402C-204.7,402-204.7,402-204.7,402c-0.2-0.1-0.1-0.2-0.1-0.4c0.1-0.2,0.2-0.3,0.3-0.4c0,0,0.1-0.1,0.1-0.1
							c0.1-0.2,0.3-0.4,0.4-0.4c0.1,0,0.1,0,0.2,0s0.1,0.1,0.1,0.1c0,0.2-0.1,0.3-0.3,0.5c0,0-0.1,0.1-0.1,0.1
							C-204.2,401.7-204.5,402-204.7,402C-204.7,402-204.7,402-204.7,402z M-203.9,400.8C-203.9,400.8-203.9,400.8-203.9,400.8
							c-0.1,0-0.3,0.2-0.4,0.4c0,0-0.1,0.1-0.1,0.1c-0.1,0.1-0.2,0.3-0.3,0.4c-0.1,0.1-0.1,0.2,0,0.3c0,0,0,0,0,0c0,0,0,0,0,0
							c0.1,0,0.3-0.2,0.5-0.5c0,0,0.1-0.1,0.1-0.1c0.1-0.2,0.3-0.3,0.3-0.5C-203.8,400.9-203.8,400.9-203.9,400.8
							C-203.8,400.8-203.9,400.8-203.9,400.8z"/>
					</g>
					<g>
						<path class="st8" d="M-205.3,401.3c-0.3-0.1-0.5,0.3-0.6,0.6c-0.1,0.3-0.2,0.8,0,0.9c0.2,0.1,0.4-0.3,0.5-0.7
							C-205.3,401.8-205,401.4-205.3,401.3z"/>
						<path d="M-205.9,402.8C-205.9,402.8-206,402.8-205.9,402.8c-0.3-0.1-0.2-0.6,0-0.9c0.1-0.2,0.2-0.4,0.3-0.5
							c0.1-0.2,0.3-0.2,0.4-0.2l0,0c0.1,0,0.1,0.1,0.1,0.1c0.1,0.2-0.1,0.4-0.2,0.6c0,0,0,0.1-0.1,0.1
							C-205.5,402.3-205.7,402.7-205.9,402.8C-205.9,402.8-205.9,402.8-205.9,402.8z M-205.4,401.3c-0.1,0-0.2,0.1-0.2,0.2
							c-0.1,0.1-0.2,0.3-0.3,0.5c-0.1,0.3-0.2,0.8,0,0.8c0,0,0,0,0.1,0c0.1,0,0.3-0.3,0.4-0.6c0,0,0-0.1,0.1-0.1
							c0.1-0.2,0.2-0.4,0.2-0.6C-205.2,401.4-205.3,401.3-205.4,401.3L-205.4,401.3C-205.3,401.3-205.4,401.3-205.4,401.3z"/>
					</g>
					<g>
						<path class="st8" d="M-205,401.4c-0.3-0.1-0.5,0.3-0.6,0.6c-0.1,0.3-0.3,0.9-0.1,1c0.2,0.1,0.5-0.4,0.7-0.7
							C-204.9,401.9-204.7,401.5-205,401.4z"/>
						<path d="M-205.7,403C-205.7,403-205.7,403-205.7,403c-0.2-0.1,0-0.7,0.1-1c0.1-0.2,0.2-0.4,0.3-0.5c0.1-0.2,0.3-0.2,0.4-0.2
							c0.1,0,0.1,0.1,0.1,0.1c0.1,0.2-0.1,0.4-0.2,0.6c0,0,0,0.1-0.1,0.1C-205.2,402.5-205.5,403-205.7,403z M-205,401.4
							c-0.1,0-0.2,0.1-0.2,0.2c-0.1,0.1-0.2,0.3-0.3,0.5c-0.2,0.4-0.3,0.9-0.2,0.9c0,0,0,0,0,0c0.1,0,0.4-0.4,0.6-0.7
							c0,0,0-0.1,0.1-0.1c0.1-0.2,0.2-0.4,0.2-0.6C-204.9,401.5-204.9,401.5-205,401.4C-205,401.4-205,401.4-205,401.4z"/>
					</g>
					<g>
						<path class="st8" d="M-204.7,401.7c-0.2-0.1-0.4,0.3-0.5,0.6c-0.1,0.3-0.4,0.8-0.2,0.9c0.2,0.1,0.5-0.4,0.6-0.7
							C-204.7,402.1-204.5,401.8-204.7,401.7z"/>
						<path d="M-205.4,403.2C-205.5,403.2-205.5,403.2-205.4,403.2c-0.1,0-0.1-0.1-0.1-0.1c-0.1-0.2,0.1-0.5,0.3-0.8l0-0.1
							c0,0,0-0.1,0.1-0.1c0.1-0.2,0.2-0.4,0.4-0.5c0,0,0.1,0,0.2,0l0,0c0.1,0,0.1,0.1,0.1,0.1c0,0.1-0.1,0.4-0.2,0.6
							c0,0,0,0.1-0.1,0.1l0,0.1C-205,402.7-205.2,403.1-205.4,403.2C-205.4,403.2-205.4,403.2-205.4,403.2z M-204.8,401.7
							C-204.8,401.7-204.8,401.7-204.8,401.7c-0.2,0-0.3,0.3-0.4,0.4c0,0,0,0.1-0.1,0.1l0,0.1c-0.1,0.2-0.3,0.6-0.3,0.7
							c0,0,0,0,0,0.1c0,0,0,0,0.1,0c0.2,0,0.3-0.4,0.5-0.6l0-0.1c0,0,0-0.1,0.1-0.1c0.1-0.2,0.2-0.4,0.2-0.5
							C-204.7,401.7-204.7,401.7-204.8,401.7L-204.8,401.7C-204.8,401.7-204.8,401.7-204.8,401.7z"/>
					</g>
					<g>
						<path class="st8" d="M-203.6,402.9c-0.2-0.2-0.4,0.2-0.7,0.4c-0.3,0.2-0.6,0.3-0.5,0.5c0.1,0.2,0.5,0,0.7-0.2
							C-203.8,403.4-203.4,403.1-203.6,402.9z"/>
						<path d="M-204.6,403.9C-204.6,403.9-204.7,403.9-204.6,403.9c-0.1,0-0.1,0-0.2-0.1c0,0,0-0.1,0-0.1c0-0.1,0.2-0.2,0.3-0.3
							c0.1,0,0.2-0.1,0.2-0.1c0.1,0,0.1-0.1,0.2-0.2c0.2-0.1,0.3-0.3,0.4-0.3c0,0,0.1,0,0.1,0.1c0,0,0.1,0.1,0,0.2
							c0,0.2-0.3,0.4-0.5,0.5l0,0C-204.2,403.7-204.4,403.9-204.6,403.9z M-203.7,402.9c-0.1,0-0.2,0.1-0.4,0.3
							c-0.1,0.1-0.1,0.1-0.2,0.2c-0.1,0.1-0.2,0.1-0.2,0.2c-0.1,0.1-0.3,0.2-0.3,0.2c0,0,0,0,0,0.1c0,0,0.1,0.1,0.1,0.1
							c0.1,0,0.3-0.1,0.6-0.3l0,0c0.2-0.1,0.4-0.3,0.5-0.5C-203.6,403-203.6,403-203.7,402.9L-203.7,402.9
							C-203.6,402.9-203.7,402.9-203.7,402.9C-203.7,402.9-203.7,402.9-203.7,402.9z"/>
					</g>
					<g>
						<path class="st8" d="M-203.7,402.6c-0.3-0.3-0.5,0.3-0.8,0.5c-0.2,0.2-0.6,0.4-0.5,0.6c0.2,0.2,0.5-0.1,0.7-0.3
							C-203.9,403.1-203.5,402.7-203.7,402.6z"/>
						<path d="M-204.7,403.7C-204.8,403.7-204.8,403.7-204.7,403.7c-0.1,0-0.1,0-0.2-0.1c0,0,0-0.1,0-0.1c0-0.1,0.1-0.2,0.3-0.3
							c0.1-0.1,0.1-0.1,0.2-0.2c0.1-0.1,0.1-0.1,0.2-0.2c0.1-0.2,0.3-0.3,0.4-0.4c0,0,0,0,0,0c0.1,0,0.1,0,0.2,0.1l0,0
							c0,0,0.1,0.1,0.1,0.1c0,0.2-0.3,0.5-0.5,0.7C-204.3,403.5-204.5,403.7-204.7,403.7z M-203.8,402.5
							C-203.8,402.5-203.8,402.5-203.8,402.5c-0.1,0-0.3,0.2-0.4,0.3c-0.1,0.1-0.1,0.2-0.2,0.2c-0.1,0.1-0.1,0.1-0.2,0.2
							c-0.1,0.1-0.3,0.2-0.3,0.3c0,0,0,0,0,0.1c0,0,0.1,0,0.1,0c0,0,0,0,0,0c0.1,0,0.3-0.1,0.6-0.3c0.2-0.2,0.5-0.5,0.5-0.7
							c0,0,0-0.1,0-0.1l0,0C-203.7,402.5-203.8,402.5-203.8,402.5z"/>
					</g>
					<g>
						<path class="st8" d="M-204,402.2c-0.3-0.2-0.5,0.2-0.7,0.4c-0.2,0.2-0.7,0.8-0.5,1c0.2,0.1,0.7-0.4,0.9-0.7
							C-204.1,402.7-203.7,402.4-204,402.2z"/>
						<path d="M-205.1,403.7C-205.1,403.7-205.1,403.7-205.1,403.7c-0.3-0.2,0.1-0.6,0.4-1.1c0,0,0.1-0.1,0.1-0.2
							c0.1-0.2,0.2-0.3,0.4-0.4c0,0,0,0,0,0c0.1,0,0.1,0,0.2,0.1l0,0c0,0,0.1,0.1,0.1,0.1c0,0.2-0.1,0.3-0.3,0.5
							c0,0-0.1,0.1-0.1,0.1C-204.5,403.3-204.9,403.7-205.1,403.7z M-204.1,402.2C-204.1,402.2-204.1,402.2-204.1,402.2
							c-0.1,0-0.3,0.2-0.4,0.3c0,0.1-0.1,0.1-0.1,0.2c-0.4,0.5-0.6,0.9-0.5,0.9c0.1,0.1,0.3,0,0.8-0.7c0,0,0.1-0.1,0.1-0.1
							c0.1-0.2,0.3-0.3,0.3-0.5c0,0,0-0.1-0.1-0.1l0,0C-204,402.2-204.1,402.2-204.1,402.2z"/>
					</g>
					<g>
						<path class="st8" d="M-204.3,401.9c-0.3-0.2-0.4,0.3-0.6,0.5c-0.2,0.3-0.6,0.9-0.4,1c0.2,0.1,0.6-0.5,0.8-0.8
							C-204.4,402.3-204.1,402-204.3,401.9z"/>
						<path d="M-205.3,403.4C-205.3,403.4-205.3,403.4-205.3,403.4c-0.1,0-0.1-0.1-0.1-0.1c0-0.2,0.2-0.6,0.4-0.8
							c0,0,0.1-0.1,0.1-0.1c0-0.1,0.1-0.1,0.1-0.2c0.1-0.2,0.2-0.4,0.3-0.4c0.1,0,0.1,0,0.2,0l0,0c0,0,0.1,0.1,0.1,0.1
							c0,0.1-0.1,0.3-0.2,0.5c0,0-0.1,0.1-0.1,0.1C-204.8,403-205.1,403.4-205.3,403.4z M-204.4,401.9
							C-204.5,401.9-204.5,401.9-204.4,401.9c-0.1,0-0.2,0.2-0.3,0.4c0,0.1-0.1,0.1-0.1,0.2c0,0-0.1,0.1-0.1,0.1
							c-0.2,0.2-0.4,0.6-0.4,0.8c0,0,0,0,0,0c0.1,0,0.3-0.1,0.7-0.8c0,0,0.1-0.1,0.1-0.1c0.1-0.2,0.2-0.4,0.2-0.5c0,0,0-0.1-0.1-0.1
							l0,0C-204.4,401.9-204.4,401.9-204.4,401.9z"/>
					</g>
					<g>
						<path class="st8" d="M-206,402.5c-0.2-0.1-0.3,0.3-0.4,0.6c-0.1,0.3-0.2,0.7,0,0.7c0.1,0,0.3-0.3,0.4-0.6
							C-206,402.9-205.8,402.6-206,402.5z"/>
						<path d="M-206.4,403.8C-206.4,403.8-206.4,403.8-206.4,403.8c-0.2-0.1-0.1-0.5,0-0.7c0,0,0-0.1,0-0.1c0.1-0.2,0.1-0.4,0.2-0.5
							c0,0,0.1,0,0.1,0l0,0c0.1,0,0.1,0,0.1,0.1c0.1,0.1,0,0.3-0.1,0.5c0,0,0,0.1,0,0.1C-206.1,403.5-206.2,403.8-206.4,403.8z
							 M-206.1,402.5C-206.1,402.5-206.1,402.5-206.1,402.5c-0.2,0.1-0.2,0.3-0.3,0.4c0,0,0,0.1,0,0.1c-0.1,0.4-0.1,0.6-0.1,0.7
							c0,0,0,0,0,0c0.1,0,0.2-0.2,0.3-0.6c0,0,0-0.1,0-0.1c0.1-0.2,0.1-0.4,0.1-0.5C-206,402.6-206,402.6-206.1,402.5L-206.1,402.5
							C-206,402.5-206.1,402.5-206.1,402.5z"/>
					</g>
					<g>
						<path class="st8" d="M-205.8,402.7c-0.2-0.1-0.3,0.3-0.4,0.6c-0.1,0.3-0.2,0.7-0.1,0.8c0.2,0.1,0.3-0.3,0.4-0.6
							C-205.7,403.2-205.5,402.8-205.8,402.7z"/>
						<path d="M-206.3,404.1C-206.3,404.1-206.3,404.1-206.3,404.1c-0.1,0-0.2-0.1-0.1-0.3c0-0.2,0.1-0.4,0.1-0.5c0,0,0-0.1,0-0.1
							c0.1-0.2,0.2-0.4,0.3-0.5c0,0,0.1,0,0.2,0l0,0c0.1,0,0.1,0.1,0.1,0.1c0.1,0.1,0,0.4-0.1,0.6c0,0,0,0.1-0.1,0.1
							C-205.9,403.7-206.1,404.1-206.3,404.1z M-205.8,402.7C-205.9,402.7-205.9,402.7-205.8,402.7c-0.2,0.1-0.2,0.3-0.3,0.5
							c0,0,0,0.1,0,0.1c0,0.1-0.1,0.3-0.1,0.5c0,0.1,0,0.2,0,0.3c0,0,0,0,0,0c0.1,0,0.3-0.2,0.4-0.6c0,0,0-0.1,0.1-0.1
							c0.1-0.2,0.2-0.4,0.1-0.5C-205.7,402.8-205.8,402.7-205.8,402.7L-205.8,402.7C-205.8,402.7-205.8,402.7-205.8,402.7z"/>
					</g>
					<g>
						<path class="st8" d="M-204.6,403.8c-0.1-0.2-0.3,0-0.5,0.2c-0.2,0.1-0.4,0.3-0.4,0.4c0.1,0.2,0.4,0,0.6-0.1
							C-204.7,404.2-204.5,404-204.6,403.8z"/>
						<path d="M-205.3,404.5c-0.1,0-0.1,0-0.2-0.1c0,0,0,0,0-0.1c0-0.1,0.2-0.3,0.4-0.4l0,0c0.1-0.1,0.3-0.2,0.4-0.2c0,0,0,0,0,0
							c0,0,0.1,0,0.1,0.1l0,0c0.1,0.2-0.2,0.4-0.3,0.5C-205,404.4-205.2,404.5-205.3,404.5z M-204.7,403.8c-0.1,0-0.2,0.1-0.4,0.2
							l0,0c-0.2,0.1-0.3,0.3-0.4,0.4c0,0,0,0,0,0c0.1,0.1,0.2,0.1,0.5-0.1C-204.7,404.1-204.5,404-204.7,403.8L-204.7,403.8
							C-204.6,403.8-204.6,403.8-204.7,403.8C-204.7,403.8-204.7,403.8-204.7,403.8z"/>
					</g>
					<g>
						<path class="st8" d="M-204.8,403.6c-0.2-0.2-0.3,0.1-0.5,0.3c-0.2,0.2-0.4,0.4-0.3,0.5c0.1,0.1,0.4-0.1,0.5-0.3
							C-204.9,403.9-204.6,403.8-204.8,403.6z"/>
						<path d="M-205.6,404.4C-205.6,404.4-205.7,404.4-205.6,404.4c-0.1-0.1-0.1-0.1-0.1-0.1c0-0.1,0.3-0.4,0.4-0.5
							c0.1,0,0.1-0.1,0.1-0.2c0.1-0.1,0.2-0.2,0.3-0.2c0,0,0,0,0,0c0.1,0,0.1,0,0.2,0.1l0,0c0,0,0.1,0.1,0.1,0.2
							c0,0.1-0.2,0.2-0.3,0.4c0,0-0.1,0.1-0.1,0.1C-205.2,404.3-205.5,404.4-205.6,404.4z M-204.9,403.5
							C-204.9,403.5-204.9,403.5-204.9,403.5c-0.1,0-0.1,0.1-0.2,0.2c0,0.1-0.1,0.1-0.2,0.2c-0.2,0.2-0.3,0.3-0.3,0.4c0,0,0,0,0,0
							c0.1,0.1,0.3-0.1,0.5-0.3c0,0,0.1-0.1,0.1-0.1c0.1-0.1,0.3-0.2,0.3-0.3c0,0,0-0.1,0-0.1l0,0
							C-204.9,403.5-204.9,403.5-204.9,403.5z"/>
					</g>
					<g>
						<path class="st8" d="M-205,403.2c-0.2-0.2-0.4,0.2-0.6,0.5c-0.2,0.2-0.5,0.6-0.4,0.7c0.1,0.1,0.5-0.2,0.7-0.4
							C-205.1,403.7-204.8,403.3-205,403.2z"/>
						<path d="M-205.9,404.4C-206,404.4-206,404.4-205.9,404.4c-0.1-0.1-0.1-0.1-0.1-0.1c0-0.2,0.3-0.5,0.4-0.7
							c0.1-0.1,0.1-0.1,0.2-0.2c0.1-0.2,0.3-0.3,0.4-0.3c0,0,0.1,0,0.1,0.1l0,0c0.2,0.2-0.1,0.6-0.3,0.8
							C-205.5,404.1-205.7,404.4-205.9,404.4z M-205.1,403.1C-205.1,403.1-205.1,403.1-205.1,403.1c-0.1,0-0.2,0.2-0.4,0.3
							c-0.1,0.1-0.1,0.1-0.2,0.2c-0.2,0.3-0.4,0.5-0.4,0.6c0,0,0,0,0,0.1c0.1,0.1,0.3-0.1,0.6-0.4
							C-205.1,403.7-204.8,403.3-205.1,403.1L-205.1,403.1C-205,403.2-205.1,403.1-205.1,403.1z"/>
					</g>
					<g>
						<path class="st8" d="M-205.4,402.9c-0.3-0.2-0.4,0.3-0.6,0.5c-0.2,0.3-0.3,0.7-0.1,0.8c0.1,0.1,0.4-0.3,0.5-0.6
							C-205.4,403.4-205.2,403-205.4,402.9z"/>
						<path d="M-206.1,404.3C-206.1,404.3-206.1,404.3-206.1,404.3c-0.2-0.1-0.1-0.6,0.1-0.9c0,0,0-0.1,0.1-0.1
							c0.1-0.2,0.2-0.4,0.4-0.5c0.1,0,0.1,0,0.2,0l0,0c0.2,0.1,0.1,0.4-0.1,0.7c0,0,0,0.1-0.1,0.1
							C-205.7,403.9-205.9,404.3-206.1,404.3z M-205.5,402.9C-205.5,402.9-205.5,402.9-205.5,402.9c-0.2,0-0.3,0.3-0.4,0.4
							c0,0,0,0.1-0.1,0.1c-0.2,0.3-0.3,0.7-0.1,0.8c0.1,0.1,0.3-0.2,0.5-0.6c0,0,0-0.1,0.1-0.1c0.2-0.3,0.3-0.5,0.1-0.6l0,0
							C-205.5,402.9-205.5,402.9-205.5,402.9z"/>
					</g>
				</g>
			</g>
			<g>
				<g>
					<g>
						<path class="st4" d="M-216,388.5c0.6,0.7,0.7,1.6,0,2.4h-0.6c-0.7-0.8-0.6-1.6,0-2.4H-216z"/>
						<path d="M-216,390.9h-0.6l0,0c-0.7-0.7-0.7-1.6,0-2.4l0,0h0.6l0,0C-215.3,389.3-215.3,390.1-216,390.9L-216,390.9z
							 M-216.6,390.8h0.6c0.8-0.9,0.5-1.8,0-2.3h-0.6C-217.1,389.1-217.4,389.9-216.6,390.8z"/>
					</g>
					<g>
						<path d="M-216.1,390.9h-0.3l0,0c-0.4-1-0.2-1.8,0-2.4l0,0h0.3l0,0C-215.9,389-215.7,389.9-216.1,390.9L-216.1,390.9z
							 M-216.4,390.8h0.2c0.4-0.9,0.2-1.8,0-2.3h-0.2C-216.7,389.1-216.8,389.9-216.4,390.8z"/>
					</g>
				</g>
				<g>
					<path class="st8" d="M-213.8,388.4c-0.4,0-0.8-0.2-1-0.4c-0.3-0.2-0.7-0.3-0.8-0.1c-0.4,0.2-0.4,0.3-0.5,0.3
						c-0.2-0.1-0.3-0.1-0.5,0.1c-0.2,0.1-0.2,0.4-0.2,0.5c0,0,0.1,0.1,0.1,0.1c0,0,0.1,0.1,0.2,0.1c0,0-0.1-0.1-0.1-0.1
						c0,0,0.1,0,0.1-0.1c0,0,0,0.1,0.1,0.1c0,0.1,0.1,0.1,0.1,0.2c0-0.1,0-0.1,0-0.2c0,0,0.1,0,0.1,0c0,0,0.1,0,0.1,0
						c0,0,0,0.1,0,0.2c0.1,0,0.1-0.1,0.1-0.2c0.1,0,0.3,0,0.2-0.2c0-0.2,0-0.2,0.1-0.3s0.4,0,0.6,0.1c0.1,0.1,0.5,0.4,0.7,0.5
						C-213.7,388.9-213.4,388.4-213.8,388.4z"/>
					<path d="M-216.2,388.9L-216.2,388.9c-0.2,0-0.2-0.1-0.2-0.2c0,0,0,0-0.1,0c0,0,0,0,0,0c0,0,0,0.1,0.1,0.1l0.1,0l-0.1,0
						c0,0,0,0,0,0c-0.1,0-0.1-0.1-0.2-0.1c-0.1,0-0.1-0.1-0.1-0.1c-0.1-0.1,0-0.4,0.2-0.5c0.2-0.1,0.3-0.1,0.5-0.1
						c0.1,0,0.1,0,0.3-0.1c0.1,0,0.1-0.1,0.2-0.2c0.2-0.1,0.6,0,0.9,0.1l0,0c0.2,0.1,0.6,0.4,0.9,0.4c0,0,0,0,0,0h0
						c0.1,0,0.2,0.1,0.2,0.1c0,0.1,0,0.1,0,0.2c-0.1,0.1-0.4,0.3-0.8,0.2c-0.1,0-0.4-0.2-0.5-0.3c-0.1-0.1-0.2-0.1-0.2-0.2
						c-0.1-0.1-0.5-0.1-0.5-0.1c-0.1,0-0.1,0.1,0,0.2c0,0.1,0,0.1,0,0.2c0,0-0.1,0.1-0.2,0.1c0,0,0,0,0,0c0,0.1-0.1,0.1-0.1,0.2
						L-216.2,388.9L-216.2,388.9c0.1-0.1,0.1-0.2,0.1-0.2c0,0,0,0-0.1,0c0,0,0,0-0.1,0C-216.3,388.8-216.3,388.8-216.2,388.9
						L-216.2,388.9z M-216.5,388.6L-216.5,388.6c0,0.1,0.1,0.1,0.1,0.1l0,0v0c0,0,0,0.1,0,0.1c0,0,0-0.1,0-0.1l0,0l0,0h0
						c0,0,0,0,0,0l0,0l0,0c0,0,0.1,0,0.1,0l0,0l0,0c0,0,0,0.1,0,0.1c0,0,0.1-0.1,0.1-0.1l0,0l0,0c0.1,0,0.1,0,0.2,0c0,0,0-0.1,0-0.1
						c0-0.1,0-0.2,0.1-0.3c0.1,0,0.5,0,0.6,0.1c0,0,0.1,0.1,0.2,0.2c0.2,0.1,0.4,0.3,0.5,0.3c0.4,0.1,0.6,0,0.7-0.2
						c0-0.1,0.1-0.1,0-0.1c0,0-0.1-0.1-0.1-0.1c0,0,0,0,0,0c-0.4,0-0.7-0.2-1-0.4l0,0c-0.3-0.2-0.6-0.2-0.8-0.1
						c-0.1,0.1-0.2,0.1-0.2,0.2c-0.2,0.1-0.2,0.2-0.3,0.1c-0.2-0.1-0.3-0.1-0.5,0.1c-0.2,0.1-0.2,0.3-0.1,0.4c0,0,0.1,0.1,0.1,0.1
						l0,0l0,0c0,0,0,0,0,0c0,0,0,0,0,0l0,0L-216.5,388.6C-216.6,388.7-216.6,388.7-216.5,388.6L-216.5,388.6z"/>
				</g>
				<g>
					<path class="st8" d="M-213.7,390.7c-0.2,0.1-0.5,0.3-0.7,0.5c-0.2,0.2-0.5,0.3-1.1,0c-0.1,0-0.2-0.1-0.4-0.1
						c-0.1,0-0.3,0-0.4-0.1c-0.2-0.2-0.2,0-0.4-0.1c-0.2-0.1-0.3-0.2-0.3-0.3c0,0,0-0.1,0-0.2c0,0,0.1,0.1,0.1,0.1
						c0.1,0,0.1,0,0.2,0c-0.1-0.2,0-0.3,0-0.3c0-0.1,0-0.2,0.1-0.2c0,0.1,0,0.2,0,0.2c0,0,0.1,0,0.1,0.1c0,0,0,0,0.1,0
						c0-0.1,0.1-0.2,0.1-0.2c0,0.1,0,0.2,0,0.2c0.1,0,0.2,0.1,0.2,0.2c-0.1-0.1,0-0.2,0.1-0.2c0,0,0-0.2,0-0.2
						c0.1,0,0.2,0.2,0.2,0.3c0.2,0,0.2,0.2,0.1,0.3c0.1,0.1,0.1,0.1,0.3,0.2c0.1,0.1,0.4,0,0.6,0c0.2-0.1,0.5-0.3,0.7-0.5
						C-213.7,389.9-213.3,390.3-213.7,390.7z"/>
					<path d="M-215,391.4c-0.2,0-0.3,0-0.6-0.1c-0.1,0-0.2-0.1-0.3-0.1c0,0,0,0,0,0c0,0,0,0,0,0c-0.1,0-0.3,0-0.3-0.1
						c-0.1-0.1-0.1-0.1-0.2-0.1c0,0-0.1,0-0.2,0c-0.2,0-0.2-0.1-0.3-0.2c0-0.1,0-0.1,0-0.2c0,0,0-0.1,0-0.2l0-0.1l0,0.1
						c0,0,0,0.1,0.1,0.1c0,0,0.1,0,0.1,0c-0.1-0.2,0-0.2,0.1-0.3c0-0.1,0-0.2,0.1-0.3l0,0c0,0,0,0.1,0,0.2c0,0,0,0,0,0
						c0,0,0.1,0,0.1,0.1c0,0,0,0,0,0c0-0.1,0.1-0.2,0.2-0.2l0.1,0l0,0.1c0,0,0,0.1,0,0.1c0,0,0,0,0,0c0.1,0,0.1,0,0.1,0.1
						c0-0.1,0.1-0.1,0.1-0.1c0,0,0-0.2,0-0.2l0,0l0,0c0,0,0,0,0,0c0.1,0,0.2,0.2,0.2,0.3c0.1,0,0.1,0,0.1,0.1c0.1,0.1,0.1,0.2,0,0.3
						c0,0,0.1,0,0.1,0.1c0,0,0.1,0.1,0.1,0.1c0.1,0.1,0.3,0,0.5,0c0.1,0,0.4-0.2,0.7-0.5c0.2-0.2,0.4-0.2,0.5-0.1
						c0.1,0.1,0.1,0.3-0.1,0.5l0,0c-0.1,0-0.1,0.1-0.2,0.1c-0.2,0.1-0.4,0.2-0.5,0.3C-214.6,391.3-214.7,391.4-215,391.4z
						 M-215.9,391.1c0.1,0,0.2,0,0.3,0.1c0.6,0.2,0.8,0.1,1,0c0.1-0.1,0.3-0.2,0.5-0.3c0.1-0.1,0.2-0.1,0.2-0.1
						c0.2-0.2,0.2-0.4,0.1-0.4c-0.1-0.1-0.2-0.1-0.4,0.1c-0.2,0.2-0.6,0.5-0.7,0.5c-0.2,0.1-0.5,0.1-0.6,0c-0.1,0-0.1-0.1-0.1-0.1
						c0,0-0.1-0.1-0.1-0.1l0,0l0,0c0-0.1,0-0.2,0-0.3c0,0-0.1,0-0.1,0l0,0l0,0c0-0.1,0-0.2-0.1-0.2c0,0.1,0,0.2,0,0.2l0,0
						c0,0-0.1,0.1-0.1,0.2l-0.1,0c0-0.1-0.1-0.1-0.2-0.1l0,0l0,0c0,0,0,0,0,0c0,0,0-0.1,0-0.1c0,0-0.1,0.1-0.1,0.1l0,0l0,0
						c0,0,0,0,0,0l0,0.1l0-0.1c0,0,0-0.1-0.1-0.1c0,0,0,0,0,0l0,0l0,0c0,0,0,0,0,0c0,0,0-0.1,0-0.1c0,0,0,0.1,0,0.1l0,0l0,0
						c-0.1,0.1-0.1,0.1,0,0.3l0,0.1l-0.1,0c0,0-0.1,0-0.2,0l0,0l0,0c0,0,0,0-0.1,0c0,0,0,0,0,0.1l0,0l0,0c0,0,0,0.1,0,0.1
						s0.1,0.1,0.2,0.2c0.1,0,0.1,0,0.2,0c0.1,0,0.1,0,0.2,0.1C-216.2,391.1-216.1,391.1-215.9,391.1
						C-215.9,391.1-215.9,391.1-215.9,391.1z"/>
				</g>
				<g>
					<path class="st8" d="M-208.5,391.1c0,0,0,0.1,0,0.1c-0.2,0.1-0.2,0.2-0.2,0.3c0.1-0.1,0.2-0.2,0.3-0.2c0.1,0.1,0.3,0.2,0.5,0
						c0.1-0.1,0.2-0.2,0.4-0.1c0.3,0.1,1.1,0.1,1.8-0.5c-0.5-0.4-0.3-0.7,0-0.8c0.2-0.1,0.4-0.1,0.5-0.3c0.1,0.1,0.2,0.3,0.2,0.5
						c0.1-0.1,0.2-0.3,0.2-0.5c0.3,0.4,0.6,0.2,0.7,0.4c0-0.1,0-0.2,0-0.2c0.6,0.4,1.2-0.1,1.6,0.1c0.2,0.1,0.3,0.2,0.4,0.4
						c0.1,0.2,0.2,0.3,0,0.5c-0.2,0.2-0.4,0-0.4,0.2c-0.1-0.2-0.3-0.2-0.4,0c-0.1-0.2-0.3-0.2-0.4-0.1c-0.1,0.1-0.1,0.3,0.1,0.4
						c-0.1,0.1-0.1,0.3,0.1,0.4c0-0.1,0-0.3,0.1-0.3c0,0,0.1,0.1,0.1,0.1c0,0.1,0,0.3,0.2,0.4c0-0.1,0-0.3,0-0.4c0,0,0.2,0.1,0.2,0
						c0,0.2,0.1,0.3,0.3,0.4c-0.1-0.1-0.1-0.3-0.1-0.4c0.1,0.1,0.2,0,0.3-0.2c0.1-0.3,0.6-0.3,0.6-0.7c0-0.2-0.3-0.1-0.5-0.9
						c-0.1-0.5-0.6-0.3-1.2-0.2c-1.2,0.3-1.2-0.6-1.6-0.8c0.8,0.2,1.1-0.6,1.3-0.9c0.2-0.3,0.7-0.1,0.7,0.2c0.2-0.4-0.3-0.8-0.7-0.6
						c0.1-0.1,0-0.2-0.1-0.3c-0.1-0.1-0.1-0.2,0-0.4c-0.2,0-0.4,0.2-0.2,0.5c-1.2-1.1-3.2,0.8-4.9,0.1c-0.1-1.1-2.1,0.7-1.9-0.5
						c-0.4,0.4,0,0.7,0.3,0.8c-0.4,0.3-0.1,0.6,0.2,0.7c-0.2-0.3,0-0.7,0.4-0.6c0.8,0.1,1,0.2,1-0.1c1.9,0.5,3.7-1,4.6-0.3
						c0.7,0.5-0.1,1.2-0.9,1.1c-1.8-1.2-3.4,1.1-6.1,0.6c-0.8-0.2-2.1,1.1-0.9,1.6c1.5,0.7,4.6-2.1,5.4-1.7c0.2,0.1,0.3,0.2,0.3,0.3
						c-0.2,0.3-0.6,0-0.8,0.4c0,0.1-0.2,0.3-0.3,0.3c0.1,0,0.3,0,0.4-0.1c-0.2,0.3-0.1,0.6,0.2,0.8c-0.4,0.2-0.9,0.3-1.1,0
						c-0.2-0.3-0.5-0.3-0.6-0.2c-0.1,0-0.2,0-0.2,0.1c0,0,0.1,0,0.2,0.1c-0.1,0-0.3,0.1-0.3,0.2c-0.1,0-0.2,0.1-0.2,0.2
						c0,0,0.2-0.1,0.2-0.1C-208.6,391-208.5,391-208.5,391.1z"/>
					<path d="M-202.2,391.8l-0.1,0c-0.1,0-0.2-0.1-0.3-0.2c0-0.1,0-0.1,0-0.2c0,0,0,0-0.1,0c0,0-0.1,0-0.1,0c0,0.1,0,0.2,0,0.3
						l0,0.1l-0.1,0c-0.2-0.1-0.3-0.2-0.2-0.4c0,0-0.1,0-0.1-0.1c-0.1,0.1-0.1,0.2-0.1,0.3l0,0.1l-0.1,0c-0.1,0-0.2-0.1-0.2-0.2
						c0-0.1,0-0.1,0.1-0.2c0,0-0.1-0.1-0.1-0.1c0-0.1,0-0.2,0.1-0.3c0.1-0.1,0.1-0.1,0.2-0.1c0,0,0,0,0,0c0.1,0,0.1,0,0.2,0.1
						c0-0.1,0.1-0.1,0.2-0.1c0,0,0,0,0,0c0.1,0,0.2,0.1,0.2,0.1c0-0.1,0.1-0.1,0.2,0c0.1,0,0.2,0,0.2-0.1c0.1-0.1,0.1-0.3,0-0.4
						c-0.1-0.2-0.2-0.3-0.4-0.4c-0.1-0.1-0.3,0-0.5,0c-0.3,0.1-0.7,0.1-1-0.1c0,0.1,0,0.1,0,0.2l0,0.1l0,0c0,0-0.1,0-0.2-0.1
						c-0.1,0-0.3,0-0.5-0.3c0,0.1-0.1,0.3-0.2,0.4l-0.1,0.1v-0.1c0-0.2-0.1-0.4-0.2-0.5c-0.1,0.2-0.3,0.2-0.5,0.3l0,0
						c-0.1,0-0.2,0.1-0.3,0.3c0,0.1,0,0.3,0.3,0.5l0,0l0,0c-0.6,0.6-1.5,0.6-1.8,0.5c-0.2-0.1-0.3,0-0.3,0.1
						c-0.1,0.1-0.2,0.1-0.3,0.1c0,0,0,0,0,0c-0.1,0-0.2,0-0.2-0.1c-0.1,0-0.2,0.1-0.3,0.2l-0.1,0.1v-0.1c0-0.1,0-0.2,0.2-0.3
						c0,0,0-0.1,0-0.1c0,0-0.1-0.1-0.1-0.1c-0.1,0-0.2,0.1-0.2,0.1l-0.1,0.1l0-0.1c0-0.1,0.1-0.2,0.2-0.3c0-0.1,0.1-0.1,0.2-0.1
						c0,0,0,0,0,0l-0.1,0l0,0c0-0.1,0.1-0.1,0.2-0.1l0,0c0,0,0.1-0.1,0.2-0.1c0,0,0,0,0,0c0.1,0,0.3,0,0.4,0.3c0.2,0.3,0.6,0.3,1,0
						c-0.3-0.2-0.3-0.5-0.2-0.8c-0.1,0.1-0.3,0.1-0.4,0l0-0.1c0.1,0,0.2-0.2,0.2-0.3c0.1-0.2,0.3-0.2,0.4-0.3c0.1,0,0.3,0,0.3-0.1
						c0-0.1-0.1-0.2-0.3-0.3c-0.3-0.2-1.1,0.2-2,0.7c-1.2,0.6-2.5,1.4-3.4,1c-0.4-0.2-0.6-0.5-0.5-0.9c0.1-0.4,0.7-0.8,1.2-0.8
						c0.1,0,0.1,0,0.2,0c1.3,0.2,2.3-0.2,3.2-0.5c1-0.4,1.9-0.7,2.9-0.1c0.4,0.1,0.9-0.1,1-0.5c0.1-0.2,0-0.4-0.2-0.6
						c-0.4-0.3-1.1-0.1-1.9,0.1c-0.8,0.2-1.7,0.5-2.7,0.3c0,0.1,0,0.1-0.1,0.1c-0.1,0.1-0.4,0.1-1-0.1l0,0c-0.2,0-0.3,0-0.4,0.1
						c-0.1,0.1-0.1,0.3,0,0.4l0,0.1l-0.1,0c-0.2-0.1-0.4-0.2-0.4-0.4c0-0.1,0-0.2,0.2-0.3c-0.2-0.1-0.4-0.2-0.4-0.4
						c0-0.1,0-0.3,0.2-0.4l0.1-0.1l0,0.1c0,0.2,0,0.3,0.1,0.3c0.1,0.1,0.5,0,0.8-0.1c0.4-0.1,0.7-0.2,0.9-0.1
						c0.1,0.1,0.1,0.2,0.2,0.3c0.8,0.3,1.6,0.1,2.4-0.2c0.9-0.3,1.7-0.5,2.4,0c0-0.1,0-0.2,0-0.3c0-0.1,0.1-0.1,0.3-0.2l0.1,0l0,0.1
						c-0.1,0.1-0.1,0.2,0,0.3c0,0,0,0.1,0.1,0.1c0.1,0,0.2,0.1,0.2,0.2c0,0,0,0,0,0.1c0.2-0.1,0.4,0,0.6,0.1
						c0.1,0.1,0.2,0.4,0.1,0.5l0,0.1l0-0.1c0-0.1-0.2-0.3-0.4-0.3c-0.1,0-0.2,0-0.3,0.1c0,0,0,0.1-0.1,0.1c-0.2,0.3-0.5,0.8-1,0.8
						c0,0,0,0-0.1,0c0.1,0.1,0.1,0.2,0.2,0.2c0.2,0.3,0.5,0.6,1.2,0.5c0.1,0,0.1,0,0.2,0c0.5-0.1,1-0.2,1.1,0.2
						c0.1,0.5,0.3,0.7,0.4,0.7c0.1,0.1,0.1,0.1,0.1,0.2c0,0.2-0.2,0.3-0.4,0.4c-0.1,0.1-0.3,0.1-0.3,0.3c0,0.1-0.1,0.2-0.1,0.2
						c0,0-0.1,0-0.1,0C-202.3,391.5-202.3,391.7-202.2,391.8L-202.2,391.8z M-202.5,391.3l0,0.1c0,0.1,0,0.1,0,0.2
						c0,0.1,0.1,0.1,0.1,0.1c0-0.1,0-0.3,0-0.4l0,0l0,0c0.1,0,0.1,0,0.1,0c0,0,0.1-0.1,0.1-0.2c0-0.1,0.2-0.2,0.3-0.3
						c0.2-0.1,0.3-0.2,0.3-0.4c0-0.1,0-0.1-0.1-0.1c-0.1-0.1-0.3-0.3-0.4-0.8c-0.1-0.4-0.5-0.3-1-0.2c-0.1,0-0.1,0-0.2,0
						c-0.8,0.2-1.1-0.2-1.3-0.5c-0.1-0.1-0.2-0.3-0.3-0.3l0-0.1c0.7,0.2,1-0.4,1.2-0.8c0,0,0-0.1,0.1-0.1c0.1-0.1,0.2-0.2,0.4-0.2
						c0.2,0,0.3,0.2,0.4,0.3c0.1-0.1,0-0.3-0.1-0.4c-0.1-0.1-0.4-0.2-0.6-0.1l0,0c0,0,0-0.1,0-0.1c0-0.1-0.1-0.1-0.1-0.2
						c-0.1,0-0.1-0.1-0.1-0.1c0-0.1,0-0.1,0-0.2c-0.1,0-0.1,0.1-0.2,0.1c0,0.1,0,0.2,0,0.3l-0.1,0c-0.6-0.6-1.5-0.3-2.4-0.1
						c-0.8,0.3-1.7,0.5-2.5,0.2l0,0l0,0c0-0.1-0.1-0.2-0.1-0.3c-0.2-0.1-0.5,0-0.9,0.1c-0.3,0.1-0.7,0.2-0.8,0.1
						c-0.1-0.1-0.1-0.2-0.1-0.3c-0.1,0.1-0.1,0.2-0.1,0.3c0,0.2,0.2,0.3,0.4,0.4l0.1,0l0,0c-0.1,0.1-0.2,0.2-0.2,0.3
						c0,0.1,0.1,0.2,0.3,0.3c-0.1-0.1,0-0.3,0-0.4c0.1-0.1,0.2-0.2,0.4-0.1l0,0c0.5,0.1,0.8,0.2,0.9,0.1c0,0,0-0.1,0-0.1l0,0l0,0
						c1,0.2,1.9,0,2.7-0.3c0.8-0.2,1.5-0.4,1.9-0.1c0.3,0.3,0.3,0.5,0.2,0.7c-0.1,0.3-0.6,0.6-1.1,0.5l0,0c-0.9-0.6-1.8-0.3-2.8,0.1
						c-0.9,0.4-2,0.8-3.2,0.5c-0.1,0-0.1,0-0.2,0c-0.4,0-1,0.4-1.1,0.8c-0.1,0.3,0,0.6,0.4,0.8c0.8,0.4,2.2-0.4,3.4-1
						c0.8-0.4,1.4-0.8,1.8-0.8c0.1,0,0.2,0,0.2,0.1c0.2,0.1,0.3,0.2,0.3,0.4l0,0l0,0c-0.1,0.1-0.2,0.2-0.4,0.2c-0.2,0-0.3,0-0.4,0.2
						c0,0.1-0.1,0.2-0.2,0.2c0,0,0,0,0,0c0.1,0,0.2,0,0.3-0.1l0,0c-0.2,0.3-0.1,0.6,0.2,0.8l0,0l0,0c-0.5,0.3-0.9,0.3-1.1,0
						c-0.1-0.2-0.3-0.2-0.4-0.2c0,0,0,0,0,0c-0.1,0-0.1,0-0.2,0.1l0,0l0,0c0,0-0.1,0-0.1,0c0,0,0.1,0,0.1,0l0,0.1c0,0,0,0,0,0
						c-0.1,0-0.2,0.1-0.2,0.1l0,0l0,0c-0.1,0-0.1,0.1-0.2,0.1c0.1,0,0.1-0.1,0.2-0.1l0,0l0,0c0,0.1,0.1,0.1,0.1,0.2l0,0l0,0
						c0,0,0,0.1,0,0.1l0,0l0,0c-0.1,0.1-0.2,0.1-0.2,0.2c0.1-0.1,0.2-0.1,0.3-0.1h0l0,0c0,0,0.1,0.1,0.2,0.1c0,0,0,0,0,0
						c0.1,0,0.1,0,0.2-0.1c0.1-0.1,0.2-0.2,0.4-0.1c0.3,0.1,1.1,0,1.7-0.5c-0.3-0.2-0.3-0.4-0.3-0.5c0-0.2,0.2-0.3,0.3-0.3l0,0
						c0.2-0.1,0.4-0.1,0.5-0.3l0,0l0,0c0.2,0.1,0.2,0.3,0.3,0.5c0.1-0.1,0.2-0.3,0.1-0.4l0-0.1l0.1,0.1c0.2,0.3,0.4,0.3,0.5,0.3
						c0.1,0,0.1,0,0.2,0c0-0.1,0-0.1,0-0.2l0-0.1l0.1,0c0.4,0.2,0.7,0.2,1,0.1c0.2,0,0.4-0.1,0.5,0c0.2,0.1,0.3,0.2,0.4,0.4
						c0.1,0.2,0.2,0.3,0,0.5c-0.1,0.1-0.2,0.1-0.3,0.1c-0.1,0-0.1,0-0.1,0.1l0,0.1l0-0.1c0-0.1-0.1-0.1-0.2-0.1c0,0,0,0,0,0
						c-0.1,0-0.1,0-0.2,0.1l0,0.1l0-0.1c-0.1-0.1-0.1-0.2-0.2-0.2c0,0,0,0,0,0c-0.1,0-0.1,0-0.2,0.1c0,0.1-0.1,0.2,0,0.2
						c0,0.1,0,0.1,0.1,0.1l0,0l0,0c0,0.1-0.1,0.1-0.1,0.2c0,0.1,0,0.1,0.1,0.1c0-0.1,0-0.2,0.1-0.3l0,0l0,0c0,0,0.1,0,0.1,0
						c0,0,0,0,0,0l0,0l0,0c0,0.1,0,0.3,0.1,0.3c0-0.1,0-0.3,0.1-0.4l0,0l0,0c0,0,0,0,0.1,0C-202.6,391.4-202.6,391.4-202.5,391.3
						L-202.5,391.3z"/>
				</g>
				<g>
					<path class="st8" d="M-212.1,388.2c0.2,0.5,0.7,0.7,1.2,0.6c0,0.2-0.3,0.3-0.5,0.3c0.5,0.1,0.4,0.5,0.9,0.4
						c-0.2,0.4-0.7,0.4-1,0.2c0.2,0.1,0.4,0.3,0.6,0.7c-0.3,0.1-0.9,0.1-1.1-0.2c0,0.1,0.1,0.4,0,0.6c-0.2-0.3-0.8-0.4-0.8-0.7
						c0,0.2-0.3,0.4-0.3,0.7c-0.2-0.2-0.3-0.3-0.3-0.6c0,0.5-0.6,0.5-0.7,0.7c0-0.3,0-0.5,0-0.7c-0.2,0.1-0.5,0.3-0.8,0.1
						c0.4-0.2,0.3-0.7,0.7-0.9c-0.3,0.2-0.7,0.1-0.8-0.1c0.2,0,0.4-0.1,0.5-0.2c-0.2,0-0.5-0.1-0.7-0.3c0.3,0,0.6-0.2,0.9-0.4
						C-213.9,388.3-212.3,387.7-212.1,388.2z"/>
					<path d="M-211.8,391L-211.8,391c-0.1-0.2-0.3-0.3-0.4-0.4c-0.2-0.1-0.3-0.2-0.4-0.3c0,0.1-0.1,0.1-0.1,0.2
						c-0.1,0.1-0.2,0.3-0.2,0.4l0,0.1l-0.1-0.1c-0.1-0.1-0.2-0.2-0.2-0.4c-0.1,0.2-0.3,0.3-0.4,0.4c-0.1,0.1-0.2,0.1-0.2,0.2l-0.1,0
						c0-0.2,0-0.5,0-0.6c-0.2,0.1-0.5,0.3-0.8,0.1l-0.1,0l0.1,0c0.2-0.1,0.2-0.2,0.3-0.4c0-0.1,0.1-0.2,0.2-0.3
						c-0.3,0.1-0.5,0-0.6-0.2l0-0.1h0.1c0.1,0,0.3-0.1,0.4-0.2c-0.2,0-0.5-0.1-0.7-0.3l0-0.1l0.1,0c0.2,0,0.6-0.1,0.9-0.4
						c0.1-0.1,1.2-0.6,1.7-0.4c0.1,0,0.2,0.1,0.3,0.2v0c0.2,0.4,0.6,0.7,1.2,0.6l0,0l0,0c0,0.1-0.2,0.3-0.3,0.3
						c0.2,0.1,0.2,0.1,0.3,0.2c0.1,0.1,0.2,0.2,0.4,0.2l0.1,0l0,0.1c-0.2,0.3-0.5,0.4-0.8,0.3c0.2,0.1,0.3,0.3,0.4,0.5l0,0l0,0
						c-0.3,0.1-0.8,0.1-1-0.1C-211.8,390.5-211.8,390.7-211.8,391L-211.8,391z M-213.8,390.2L-213.8,390.2c-0.1,0.2-0.1,0.4-0.1,0.7
						c0,0,0.1-0.1,0.2-0.1c0.2-0.1,0.4-0.2,0.4-0.5c0,0,0,0,0,0l0.1,0c0,0,0,0,0,0c0,0.2,0.1,0.3,0.2,0.5c0-0.1,0.1-0.2,0.2-0.3
						c0.1-0.1,0.1-0.2,0.1-0.3l0.1,0c0,0.2,0.2,0.3,0.4,0.4c0.1,0.1,0.3,0.2,0.3,0.3c0-0.2,0-0.4-0.1-0.5l0-0.1l0.1,0.1
						c0.2,0.2,0.7,0.2,1,0.2c-0.2-0.3-0.4-0.5-0.6-0.6l0-0.1c0.3,0.1,0.7,0.2,0.9-0.1c0,0,0,0,0,0c-0.2,0-0.3-0.1-0.4-0.2
						c-0.1-0.1-0.2-0.2-0.4-0.2l0-0.1c0.2,0,0.4-0.1,0.4-0.3c0,0-0.1,0-0.1,0c-0.5,0-1-0.3-1.1-0.7c0-0.1-0.1-0.1-0.2-0.2
						c-0.5-0.1-1.6,0.3-1.7,0.4c-0.3,0.3-0.6,0.4-0.9,0.4c0.2,0.2,0.4,0.3,0.6,0.2l0.1,0l-0.1,0.1c-0.1,0.1-0.3,0.2-0.5,0.3
						c0.1,0.1,0.4,0.2,0.6,0.1c0,0,0.1,0,0.1,0l0,0.1c0,0-0.1,0-0.1,0c-0.1,0.1-0.2,0.2-0.2,0.4c-0.1,0.2-0.1,0.3-0.3,0.4
						C-214.3,390.5-214.1,390.3-213.8,390.2L-213.8,390.2z"/>
				</g>
				<g>
					<path class="st8" d="M-213.3,387.8c-0.2,0-0.3,0.2-0.5,0c0,0.1,0.1,0.2,0.2,0.3c-0.2,0-0.2,0.2-0.6,0.2
						c0.1,0.2,0.2,0.3,0.4,0.3c-0.2,0.1-0.3,0.4-0.5,0.3c0.1,0.1,0.4,0.3,0.6,0.2c-0.1,0.2,0,0.5-0.2,0.6c0.3,0,0.6-0.2,0.7-0.4
						c0,0.3,0.1,0.5,0.4,0.6c-0.1-0.2,0.1-0.4,0.1-0.6c0.1,0.2,0.3,0.1,0.4,0.3c0-0.2-0.1-0.2,0-0.6c0.1,0.1,0.2,0.2,0.4,0.1
						c-0.2-0.2-0.3-0.5-0.3-0.9C-212.2,388-212.7,387.8-213.3,387.8z"/>
					<path d="M-212.7,389.9L-212.7,389.9c-0.3-0.1-0.5-0.2-0.5-0.5c-0.1,0.2-0.4,0.3-0.6,0.3l-0.1,0l0.1,0c0.1,0,0.1-0.1,0.1-0.2
						c0-0.1,0-0.2,0-0.3c0,0,0,0-0.1,0c-0.2,0-0.4-0.1-0.5-0.2l0-0.1l0.1,0c0.1,0,0.2-0.1,0.3-0.2c0,0,0.1-0.1,0.1-0.1
						c0,0-0.1,0-0.1,0c-0.1,0-0.2-0.1-0.2-0.3l0,0l0,0c0.2,0,0.3,0,0.4-0.1c0,0,0.1,0,0.1-0.1c-0.1-0.1-0.2-0.2-0.2-0.3l0-0.1l0,0
						c0.1,0.1,0.2,0,0.3,0c0.1,0,0.1-0.1,0.2,0c0.5,0,0.9,0.1,1.1,0.3c0,0,0.1,0.1,0.1,0.1c0,0.4,0.1,0.7,0.3,0.9l0,0l-0.1,0
						c-0.1,0-0.3,0-0.4-0.1c0,0.2,0,0.3,0,0.4c0,0.1,0,0.1,0,0.2l0,0.1l0-0.1c-0.1-0.1-0.1-0.1-0.2-0.2c-0.1,0-0.1-0.1-0.2-0.1
						c0,0.1,0,0.1,0,0.2C-212.7,389.6-212.8,389.7-212.7,389.9L-212.7,389.9z M-213.2,389.3L-213.2,389.3c0.1,0.3,0.2,0.5,0.4,0.6
						c0-0.1,0-0.2,0.1-0.3c0-0.1,0.1-0.2,0-0.2l0.1,0c0,0.1,0.1,0.1,0.2,0.1c0.1,0,0.1,0.1,0.2,0.1c0,0,0-0.1,0-0.1
						c0-0.1,0-0.2,0-0.4l0-0.1l0,0c0.1,0.1,0.2,0.1,0.3,0.1c0,0,0,0,0,0c-0.2-0.2-0.3-0.5-0.3-0.9c0,0,0-0.1,0-0.1
						c-0.1-0.1-0.6-0.2-1-0.2c0,0,0,0-0.1,0l0,0c-0.1,0-0.1,0-0.2,0c-0.1,0-0.2,0.1-0.3,0c0,0.1,0.1,0.2,0.2,0.2l0,0.1
						c-0.1,0-0.1,0-0.2,0.1c-0.1,0-0.2,0.1-0.3,0.1c0,0,0,0-0.1,0c0,0.1,0.1,0.1,0.1,0.2c0.1,0,0.1,0,0.2,0l0,0.1
						c-0.1,0-0.1,0.1-0.2,0.2c-0.1,0.1-0.2,0.2-0.2,0.2c0.1,0.1,0.4,0.2,0.5,0.1l0.1,0l-0.1,0.1c-0.1,0.1-0.1,0.2-0.1,0.3
						c0,0.1,0,0.2,0,0.2C-213.6,389.6-213.3,389.5-213.2,389.3z"/>
				</g>
				<g>
					<path class="st8" d="M-213.3,388.9c-0.2,0-0.3-0.2-0.2-0.3c0.1-0.1,0.1-0.2,0.1-0.4c0-0.2,0-0.3,0.3-0.6
						c-0.1-0.1-0.1-0.2,0-0.3c0.1-0.1,0.2,0,0.3,0c0.3,0,0.6,0.2,0.7,0.5c0.1,0,0.2,0.1,0.2,0.2c0,0.1-0.1,0.2-0.3,0.2
						c-0.1,0.3-0.2,0.4-0.4,0.5c-0.1,0.1-0.3,0.1-0.3,0.2C-213,389.1-213.2,389.1-213.3,388.9z"/>
					<path d="M-213.1,389.1c0,0-0.1,0-0.2-0.1c-0.1,0-0.2-0.1-0.2-0.1c0-0.1,0-0.1,0-0.2c0.1-0.1,0.1-0.2,0.1-0.4
						c0-0.2,0.1-0.4,0.3-0.6c0,0-0.1-0.1-0.1-0.1c0-0.1,0.1-0.2,0.1-0.2c0.1-0.1,0.1-0.1,0.2-0.1c0.1,0,0.1,0,0.1,0.1
						c0.3,0,0.6,0.2,0.7,0.5c0.1,0,0.1,0,0.1,0.1c0,0.1,0.1,0.1,0,0.2c0,0.1-0.1,0.1-0.1,0.2c0,0-0.1,0-0.2,0
						c-0.1,0.3-0.2,0.4-0.4,0.5c-0.1,0.1-0.2,0.1-0.3,0.2C-213,389.1-213,389.1-213.1,389.1C-213.1,389.1-213.1,389.1-213.1,389.1z
						 M-213,387.3c0,0-0.1,0-0.1,0c0,0-0.1,0.1-0.1,0.2c0,0,0,0.1,0.1,0.1l0,0l0,0c-0.3,0.2-0.3,0.4-0.3,0.5c0,0.2,0,0.3-0.1,0.4
						c0,0,0,0.1,0,0.1c0,0.1,0.1,0.1,0.2,0.1l0,0l0,0c0,0.1,0.1,0.1,0.2,0.1c0,0,0,0,0,0c0,0,0.1,0,0.1-0.1c0.1-0.1,0.2-0.2,0.3-0.3
						c0.1,0,0.3-0.2,0.4-0.5l0,0l0,0c0.1,0,0.1,0,0.1,0c0.1,0,0.1-0.1,0.1-0.1c0-0.1,0-0.1,0-0.1c0,0-0.1-0.1-0.1-0.1c0,0,0,0,0,0
						l0,0l0,0c-0.1-0.2-0.5-0.4-0.7-0.4l0,0l0,0C-212.9,387.4-213,387.3-213,387.3C-213,387.3-213,387.3-213,387.3z"/>
				</g>
				<g>
					<path class="st8" d="M-212.5,387.6c0.1,0.1,0.3,0.2,0.3,0.3c0,0,0,0,0.1,0c0.2-0.2,0.4-0.3,0.6-0.4c0.1,0,0.1-0.1,0-0.1
						s-0.1,0-0.2,0c0-0.1-0.1-0.2-0.2-0.1c-0.1,0,0,0.1,0,0.2c-0.1,0-0.3-0.1-0.3-0.4c0,0.1,0.2,0.1,0.2,0c0-0.1,0-0.1-0.1-0.1
						c0.1,0,0.1-0.1,0-0.2c-0.1-0.1-0.2,0-0.2,0.1c0-0.1-0.1-0.1-0.2,0c-0.1,0.1,0,0.2,0.1,0.2c-0.2,0.1-0.4,0-0.5-0.1
						c0,0,0.1,0,0.1-0.1c0-0.1-0.1-0.2-0.2-0.1c0-0.1-0.1-0.2-0.1-0.2c0,0-0.1-0.1-0.1,0.1c0,0.2,0,0.5-0.1,0.7c0,0.1,0,0.1,0,0.1
						C-212.8,387.5-212.6,387.5-212.5,387.6z"/>
					<path d="M-212.2,388C-212.2,388-212.2,388-212.2,388C-212.2,388-212.2,388-212.2,388c-0.1-0.1-0.3-0.3-0.4-0.3l0,0
						c-0.1-0.1-0.3-0.1-0.4-0.2c0,0,0,0-0.1,0c0,0,0,0,0-0.1c0.1-0.2,0.1-0.5,0.1-0.7c0,0,0-0.1,0-0.1c0,0,0.1,0,0.1,0
						c0,0,0.1,0.1,0.1,0.2c0,0,0.1,0,0.1,0c0,0,0.1,0.1,0.1,0.1c0,0,0,0.1-0.1,0.1c0,0,0,0-0.1,0c0,0,0.1,0.1,0.2,0.1
						c0.1,0,0.1,0,0.2,0c0,0,0,0-0.1-0.1c0-0.1,0-0.1,0-0.1c0,0,0.1,0,0.1,0c0,0,0,0,0,0c0,0,0,0,0.1-0.1c0,0,0.1,0,0.1,0
						c0,0,0.1,0.1,0.1,0.1c0,0,0,0.1,0,0.1c0,0,0,0,0,0c0,0,0,0.1,0,0.1c0,0.1-0.1,0.1-0.1,0.1c0,0-0.1,0-0.1,0c0,0.1,0,0.1,0.1,0.2
						c0,0,0.1,0.1,0.2,0.1c0,0,0,0,0-0.1c0,0,0-0.1,0.1-0.1c0,0,0.1,0,0.2,0c0,0,0.1,0.1,0.1,0.1c0.1,0,0.2,0,0.2,0
						c0,0,0.1,0,0.1,0.1c0,0.1-0.1,0.1-0.1,0.1C-211.7,387.6-212,387.8-212.2,388C-212.1,388-212.1,388-212.2,388z M-213,387.4
						C-213,387.4-213,387.4-213,387.4c0.1,0,0.3,0.1,0.5,0.2l0,0c0.1,0.1,0.3,0.2,0.3,0.3c0,0,0,0,0,0c0,0,0,0,0,0
						c0.1-0.1,0.4-0.3,0.6-0.4c0,0,0.1,0,0.1,0c0,0,0,0,0,0c0,0-0.1,0-0.2,0l-0.1,0l0-0.1c0-0.1,0-0.1,0-0.1c0,0-0.1,0-0.1,0
						c0,0,0,0,0,0.1c0,0,0,0.1,0,0.1l0.1,0.1l-0.1,0c0,0,0,0,0,0c-0.1,0-0.2,0-0.3-0.1c0-0.1-0.1-0.1-0.1-0.3l0-0.1l0,0.1
						c0,0,0.1,0,0.1,0c0,0,0.1,0,0.1,0c0,0,0-0.1,0-0.1c0,0,0,0,0,0c0,0,0,0,0,0l0-0.1c0,0,0.1,0,0.1-0.1c0,0,0,0,0-0.1
						c0,0-0.1,0-0.1,0c0,0,0,0.1,0,0.1l-0.1,0c0,0,0,0,0,0c0,0-0.1,0-0.1,0c0,0,0,0,0,0.1c0,0,0,0.1,0.1,0.1c0,0,0,0,0,0l0.1,0
						l-0.1,0.1c-0.1,0.1-0.2,0.1-0.3,0.1c-0.1,0-0.2-0.1-0.2-0.2l0-0.1l0.1,0c0,0,0,0,0.1,0c0,0,0,0,0-0.1c0,0,0-0.1,0-0.1
						c0,0-0.1,0-0.1,0l0,0l0-0.1c0-0.1-0.1-0.2-0.1-0.2c0,0,0,0,0,0c0,0,0,0,0,0.1C-212.8,386.9-212.9,387.2-213,387.4
						C-213,387.4-213,387.4-213,387.4z"/>
				</g>
				<g>
					<path class="st8" d="M-213,388.6c0-0.1,0-0.2,0.1-0.3c-0.1,0.1-0.1,0.2-0.2,0.2c-0.1,0.2-0.3,0.4-0.2,0.5
						C-213.2,389.1-213.1,388.8-213,388.6z"/>
					<path d="M-213.3,389C-213.3,389-213.3,389-213.3,389c-0.1,0-0.1-0.1-0.1-0.1c0-0.1,0.1-0.3,0.2-0.4l0,0l0,0
						c0.1,0,0.1-0.1,0.2-0.2c0,0,0,0,0,0l0.1,0l0,0l0,0c-0.1,0.1-0.1,0.2-0.1,0.2l0,0l0,0l0,0l0,0C-213.1,388.8-213.2,389-213.3,389
						C-213.3,389-213.3,389-213.3,389z M-213.1,388.5c-0.1,0.1-0.2,0.3-0.2,0.4c0,0,0,0,0,0c0,0,0,0,0,0
						C-213.2,388.9-213.1,388.7-213.1,388.5C-213.1,388.6-213.1,388.5-213.1,388.5C-213.1,388.5-213.1,388.5-213.1,388.5z"/>
				</g>
				<g>
					<g>
						<path class="st7" d="M-205.6,389.4c0.1,0.1,0.2,0.1,0.3,0.2"/>
					</g>
					<g>
						<path d="M-208.4,391.1L-208.4,391.1c0-0.1,0.2-0.2,0.4-0.2l0,0.1C-208.3,390.9-208.4,391-208.4,391.1z"/>
					</g>
					<g>
						<path d="M-206.2,389.8c-0.1,0-0.1,0-0.2,0l-0.1,0l0.1,0c0.1-0.1,0.2-0.2,0.2-0.4l0.1,0C-206.1,389.4-206.2,389.6-206.2,389.8
							c0.2,0,0.4-0.1,0.5-0.2c0.1-0.1,0.1-0.2,0-0.3l0.1,0c0.1,0.1,0,0.3-0.1,0.4C-205.8,389.7-206,389.8-206.2,389.8z"/>
					</g>
					<g>
						<path class="st7" d="M-208.3,390.6c0.1,0,0.1,0,0.2,0"/>
					</g>
					<g>
						<path class="st7" d="M-204.8,389.6c0-0.1-0.1-0.2-0.1-0.2"/>
					</g>
					<g>
						<path class="st7" d="M-204.1,389.8c-0.1,0-0.1-0.1-0.2-0.1"/>
					</g>
					<g>
						<path class="st7" d="M-203,390.9c0,0.1,0,0.2,0,0.2"/>
					</g>
					<g>
						<path class="st7" d="M-202.6,390.9c0,0.1,0,0.2,0,0.2"/>
					</g>
					<g>
						<path class="st7" d="M-216.2,388.7c-0.1,0-0.1-0.2,0.1-0.3"/>
					</g>
					<g>
						<path class="st7" d="M-216.5,388.6c-0.1-0.1-0.1-0.3,0.1-0.4"/>
					</g>
					<g>
						<path class="st7" d="M-216.5,390.4c0,0-0.1,0.2,0.1,0.3"/>
					</g>
					<g>
						<path class="st7" d="M-216.7,390.6c0,0.1,0.1,0.1,0.2,0.1"/>
					</g>
					<g>
						<path class="st7" d="M-212.8,388.3c0,0.1-0.1,0.1-0.2,0c-0.1-0.1-0.1-0.1-0.1-0.2"/>
					</g>
					<g>
						<g>
							<path class="st7" d="M-213,387.7c0.1,0.1,0.2,0,0.3,0.1"/>
						</g>
						<g>
							<path class="st7" d="M-213,387.8c0,0,0,0.1,0,0.1"/>
						</g>
						<g>
							<path class="st7" d="M-212.8,387.8c0,0.1,0,0.1-0.1,0.1"/>
						</g>
						<g>
							<path d="M-212.8,388.7c-0.1,0-0.2,0-0.2-0.1c0,0,0-0.1,0-0.1c0,0-0.1,0-0.1,0c0,0,0,0,0,0c-0.1,0-0.1,0-0.2-0.1l0.1,0
								c0,0.1,0.1,0.1,0.1,0.1c0,0,0,0,0,0c0.1,0,0.1-0.1,0.2-0.2l0.1,0c-0.1,0.1-0.1,0.2,0,0.3C-213,388.6-212.9,388.7-212.8,388.7
								C-212.8,388.7-212.8,388.7-212.8,388.7L-212.8,388.7C-212.8,388.7-212.8,388.7-212.8,388.7z"/>
						</g>
						<g>
							<path class="st7" d="M-212.4,388.1c-0.1,0-0.1-0.2-0.2-0.2"/>
						</g>
						<g>
							<path class="st7" d="M-212.4,388.1C-212.5,388.1-212.5,388.1-212.4,388.1"/>
						</g>
						<g>
							<path class="st7" d="M-212.6,388c0,0-0.1,0.1-0.1,0.1"/>
						</g>
					</g>
					<g>
						<path d="M-212.1,387.8c-0.1-0.1-0.3-0.2-0.4-0.3c-0.1-0.1-0.3-0.1-0.4-0.2l0-0.1c0.2,0,0.4,0.1,0.5,0.2
							C-212.3,387.5-212.1,387.7-212.1,387.8L-212.1,387.8z"/>
					</g>
				</g>
			</g>
			<g>
				<g>
					<path class="st6" d="M-204.6,394.1c0.2,1.3,0,1.9-0.2,2.4c0.1,0,0.3-0.1,0.3-0.2c0,0.1,0,0.2,0.1,0.3c0.1,0,0.2-0.2,0.2-0.3
						c0,0.1,0.2,0.2,0.3,0.2c-0.3-0.5-0.3-2-0.2-2.5C-204.1,394-204.6,393.9-204.6,394.1z"/>
					<path d="M-204.4,396.7L-204.4,396.7c0-0.1-0.1-0.2-0.1-0.3c-0.1,0.1-0.2,0.1-0.3,0.1l-0.1,0l0-0.1c0.2-0.5,0.4-1.1,0.2-2.4v0
						c0-0.1,0-0.1,0.1-0.1c0.1-0.1,0.3,0,0.4,0c0,0,0.1,0.1,0.1,0.1c0,0.6,0,2,0.2,2.5l0,0.1l-0.1,0c-0.1,0-0.2-0.1-0.3-0.2
						C-204.2,396.5-204.3,396.6-204.4,396.7L-204.4,396.7z M-204.4,396.3L-204.4,396.3c0,0.1,0,0.2,0,0.3c0.1-0.1,0.1-0.2,0.1-0.2
						l0-0.1l0,0.1c0,0.1,0.1,0.2,0.2,0.2c-0.2-0.6-0.2-2-0.2-2.4c0,0-0.2-0.1-0.3-0.1c-0.1,0-0.1,0.1-0.1,0.1l0,0
						c0.2,1.2,0,1.9-0.2,2.3C-204.6,396.5-204.5,396.4-204.4,396.3L-204.4,396.3z"/>
				</g>
				<g>
					<path class="st9" d="M-204.1,392.5c0.1-0.1,0.2-0.1,0.3-0.1c-0.1,0.1-0.3,0.4-0.3,0.5c0.3-0.4,1.1-0.6,1.2-0.8
						c0,0.1,0,0.2,0,0.2c0.1-0.1,0.3-0.2,0.4-0.2c-0.1,0.1-0.1,0.2-0.1,0.3c0.1-0.1,0.4-0.2,0.7-0.2c-0.1,0.1-0.2,0.2-0.2,0.3
						c0.1-0.1,0.3-0.1,0.6,0c-0.1,0-0.2,0.1-0.3,0.2c0.1,0,0.4,0,0.5,0.3c-0.1,0-0.4,0-0.5,0c0.1,0.1,0.2,0.2,0.2,0.4
						c-0.1-0.1-0.4-0.2-0.5-0.2c0.1,0.1,0.1,0.2,0.1,0.3c-0.1-0.1-0.4-0.3-0.6-0.3c0.1,0,0.2,0.1,0.2,0.2c-0.2-0.1-0.5-0.2-0.7-0.2
						c0.1,0,0.2,0.1,0.2,0.2c-0.1,0-0.4,0-0.4,0.1c0.7,0.2,1.5,0.6,1.2,1.6c0-0.2-0.1-0.5-0.2-0.6c0,0.1,0,0.4-0.2,0.4
						c0-0.1,0-0.4,0-0.5c0,0.1-0.1,0.2-0.1,0.3c0-0.1-0.1-0.4-0.2-0.5c0,0.1,0,0.3-0.1,0.4c0-0.1,0-0.4-0.2-0.4
						c0,0.1-0.1,0.2-0.1,0.2c-0.1-0.2-0.3-0.5-0.6-0.4c0.4,0.2,1,0.7,1,1.2c0,0.5,0,0.7-0.2,0.9c0-0.1,0-0.3,0-0.4
						c0,0.1-0.1,0.2-0.2,0.3c0-0.1,0.1-0.3,0.1-0.5c-0.1,0.2-0.1,0.3-0.3,0.4c0-0.3,0.1-0.5,0.1-0.7c-0.1,0.1-0.1,0.2-0.2,0.3
						c0-0.2,0.1-0.4,0-0.6c0,0.1,0,0.2-0.2,0.3c0-0.2,0-0.4-0.1-0.5c0,0.1-0.1,0.2-0.2,0.2c0-0.1,0-0.3,0-0.4c0,0.1,0,0.3-0.1,0.4
						c0-0.1,0-0.3-0.1-0.4c0,0.4-0.1,0.6-0.1,0.8c-0.1-0.2-0.1-0.3-0.1-0.5c0,0.2-0.1,0.6-0.2,0.7c0-0.1-0.1-0.3-0.1-0.5
						c0,0.4-0.2,0.8-0.1,0.9c-0.1-0.1-0.2-0.3-0.2-0.4c-0.1,0.2-0.1,0.4-0.2,0.6c-0.1-0.1-0.1-0.2-0.1-0.2c0,0.1-0.1,0.2-0.2,0.4
						c-0.1-0.9,0.3-1.7,1.1-2c-0.1-0.1-0.3,0-0.5,0.2c0-0.1,0-0.2,0-0.3c-0.1,0.1-0.2,0.3-0.2,0.4c0-0.1-0.1-0.2,0-0.4
						c-0.1,0.1-0.2,0.4-0.2,0.5c0-0.1-0.1-0.3-0.1-0.4c-0.1,0.1-0.1,0.3-0.1,0.4c-0.1-0.1-0.1-0.2-0.1-0.3c-0.1,0.2-0.1,0.4-0.2,0.5
						c-0.1-0.1-0.1-0.3-0.2-0.4c-0.1,0.1-0.3,0.3-0.3,0.5c-0.2-0.9,0.7-1.6,2.2-1.2c-0.4-0.1-0.7-0.4-1-0.1c0-0.1,0-0.2,0-0.3
						c-0.1,0.1-0.3,0.2-0.4,0.4c0-0.1,0-0.3,0-0.4c-0.2,0.1-0.4,0.3-0.5,0.5c0-0.1,0-0.3,0-0.4c-0.1,0.1-0.3,0.2-0.3,0.4
						c0-0.2,0-0.4,0.1-0.6c-0.3,0.1-0.5,0.4-0.6,0.6c0-0.2,0-0.6,0.2-0.8c-0.2,0-0.3,0-0.4,0.1c0.1-0.2,0.5-0.4,0.6-0.4
						c0-0.1-0.1-0.2-0.3-0.3c0.1,0,0.4,0.1,0.5,0.3c0-0.1,0-0.3-0.1-0.4c0.1,0,0.3,0.2,0.4,0.3c0-0.1,0-0.2,0-0.3
						c0.2,0.1,0.3,0.2,0.4,0.4c0-0.1,0-0.3-0.1-0.3c0.1,0.1,0.2,0.2,0.3,0.4c0-0.1,0-0.2,0-0.3c0.2,0.1,0.3,0.3,0.4,0.5
						c0-0.1,0-0.3,0-0.3c0.2,0.1,0.3,0.5,0.5,0.7c0-0.1-0.1-0.3-0.1-0.4c0.1,0,0.2,0,0.2,0.1c-0.1-0.2-0.2-0.3-0.2-0.4
						c0.1,0,0.2,0.1,0.3,0.2c0-0.1,0-0.3,0-0.4c0.1,0.1,0.2,0.2,0.2,0.3c0-0.1,0.1-0.3,0.2-0.4
						C-204.1,392.3-204.1,392.4-204.1,392.5z"/>
					<path d="M-203.3,396L-203.3,396c0-0.2,0-0.3,0-0.4c0,0.1-0.1,0.2-0.2,0.2l-0.1,0l0-0.1c0-0.1,0.1-0.2,0.1-0.3
						c-0.1,0.1-0.1,0.2-0.2,0.2l-0.1,0l0-0.1c0-0.2,0.1-0.4,0.1-0.5c0,0.1-0.1,0.1-0.2,0.2l-0.1,0l0-0.1c0-0.1,0.1-0.3,0.1-0.5
						c0,0.1-0.1,0.1-0.1,0.2l-0.1,0.1l0-0.1c0-0.1,0-0.3-0.1-0.5c0,0.1-0.1,0.1-0.1,0.2l-0.1,0l0-0.1c0-0.1,0-0.1,0-0.2
						c0,0.1,0,0.1-0.1,0.2l-0.1,0.1v-0.1c0-0.1,0-0.2,0-0.3c0,0.2-0.1,0.3-0.1,0.5c0,0.1,0,0.1,0,0.2l-0.1,0c0-0.1-0.1-0.2-0.1-0.3
						c0,0.2-0.1,0.4-0.2,0.5l0,0l0-0.1c0-0.1,0-0.1-0.1-0.2c0,0.2-0.1,0.3-0.1,0.4c0,0.1,0,0.2,0,0.2l0,0.1l-0.1-0.1
						c-0.1-0.1-0.1-0.2-0.2-0.3c0,0,0,0.1,0,0.1c0,0.2-0.1,0.3-0.1,0.4l0,0.1l-0.1-0.1c0-0.1-0.1-0.1-0.1-0.2c0,0,0,0,0,0
						c0,0.1-0.1,0.2-0.1,0.3l-0.1,0c-0.1-0.9,0.3-1.7,1.1-2.1c0,0-0.1,0-0.1,0c-0.1,0-0.2,0.1-0.2,0.2l0,0.1l0-0.1c0,0,0-0.1,0-0.2
						c-0.1,0.1-0.2,0.3-0.2,0.3l-0.1,0c0,0,0,0,0-0.1c0-0.1,0-0.1,0-0.2c-0.1,0.1-0.2,0.3-0.2,0.4l-0.1,0c0-0.1-0.1-0.2-0.1-0.3
						c0,0.1-0.1,0.2-0.1,0.3v0.1l-0.1-0.1c-0.1-0.1-0.1-0.2-0.1-0.2c-0.1,0.1-0.1,0.3-0.1,0.4l0,0.1l0,0c-0.1-0.1-0.1-0.2-0.2-0.4
						c-0.1,0.1-0.2,0.3-0.3,0.4l0,0.1l0-0.1c-0.1-0.4,0-0.7,0.3-0.9c0,0,0.1-0.1,0.1-0.1l0-0.1c0-0.1,0-0.2,0-0.3
						c-0.1,0.1-0.2,0.2-0.3,0.3l0,0.1l0-0.1c0-0.2,0-0.3,0.1-0.5c-0.2,0.1-0.4,0.4-0.4,0.5l0,0.1l0-0.1c0-0.2,0-0.6,0.1-0.7
						c-0.1,0-0.2,0-0.3,0.1l-0.1,0c0.1-0.2,0.4-0.4,0.6-0.4c0-0.1-0.1-0.2-0.2-0.2l0-0.1c0,0,0,0,0,0c0.1,0,0.4,0.1,0.5,0.2
						c0-0.1,0-0.2-0.1-0.3l-0.1-0.1l0.1,0c0.1,0,0.3,0.1,0.4,0.2c0-0.1,0-0.2,0-0.2l0-0.1l0.1,0c0.1,0.1,0.2,0.2,0.3,0.3
						c0-0.1,0-0.1,0-0.2l0-0.1l0.1,0.1c0.1,0.1,0.2,0.2,0.3,0.3c0-0.1,0-0.1,0-0.2l0-0.1l0.1,0.1c0.1,0.1,0.3,0.3,0.4,0.4
						c0-0.1,0-0.2,0-0.2l0-0.1l0.1,0c0.1,0,0.2,0.2,0.2,0.3l0.1,0c0,0,0.1,0,0.1,0c-0.1-0.1-0.1-0.3-0.2-0.3l0-0.1
						c0.1,0,0.2,0.1,0.3,0.2c0-0.1,0-0.2,0-0.3l0-0.1l0.1,0c0.1,0,0.2,0.1,0.2,0.2c0-0.1,0.1-0.3,0.2-0.3l0.1,0l0,0.1
						c0,0.2,0,0.3,0,0.4c0.1,0,0.2-0.1,0.3-0.1l0.1,0l-0.1,0.1c-0.1,0.1-0.2,0.2-0.2,0.4c0.2-0.2,0.4-0.3,0.6-0.4
						c0.2-0.1,0.4-0.2,0.4-0.3l0-0.1l0,0.1c0,0,0,0.1,0,0.1c0.1-0.1,0.2-0.1,0.3-0.1c0,0,0,0,0,0l0.1,0l0,0c0,0-0.1,0.1-0.1,0.2
						c0.1-0.1,0.4-0.2,0.6-0.1l0.1,0l-0.1,0c-0.1,0-0.1,0.1-0.2,0.2c0.1-0.1,0.3-0.1,0.5,0l0.1,0l-0.1,0c-0.1,0-0.2,0.1-0.2,0.1
						c0.1,0,0.3,0.1,0.5,0.3l0,0.1l-0.1,0c-0.1,0-0.3,0-0.4,0c0.1,0.1,0.1,0.2,0.2,0.4l0,0.1l-0.1,0c-0.1-0.1-0.3-0.2-0.4-0.2
						c0,0.1,0.1,0.2,0.1,0.2l0,0.1l-0.1-0.1c-0.1-0.1-0.3-0.2-0.5-0.3c0.1,0.1,0.1,0.1,0.1,0.2l0,0.1l-0.1,0
						c-0.3-0.1-0.5-0.2-0.6-0.2c0.1,0,0.1,0.1,0.2,0.1l0,0h-0.1c-0.1,0-0.2,0-0.3,0c0.4,0.1,0.8,0.3,1,0.7c0.1,0.3,0.2,0.6,0,0.9
						l-0.1,0c0,0,0-0.1,0-0.1c0-0.1-0.1-0.3-0.1-0.4c0,0.1-0.1,0.3-0.2,0.3l0,0l0-0.1c0-0.1,0-0.3,0-0.4c0,0.1-0.1,0.1-0.1,0.2l0,0
						l0-0.1c0-0.1-0.1-0.3-0.2-0.4c0,0.1,0,0.3-0.1,0.3l0,0v-0.1c0-0.1,0-0.3-0.1-0.3c0,0.1-0.1,0.2-0.1,0.2l0,0
						c0.2,0.2,0.4,0.5,0.4,0.8C-203,395.5-203.1,395.7-203.3,396L-203.3,396z M-203.3,395.4l0,0.2c0,0.1,0,0.2,0,0.3
						c0.1-0.2,0.1-0.4,0.1-0.8c0-0.4-0.5-0.9-1-1.2l-0.1,0l0.1,0c0,0,0.1,0,0.1,0c0.2,0,0.5,0.2,0.5,0.4c0,0,0.1-0.1,0.1-0.2l0,0
						l0,0c0.1,0,0.2,0.2,0.2,0.3c0.1-0.1,0.1-0.2,0.1-0.3l0-0.1l0.1,0.1c0.1,0.1,0.2,0.3,0.2,0.4c0-0.1,0.1-0.1,0.1-0.2l0-0.1l0,0.1
						c0,0.1,0.1,0.3,0.1,0.4c0.1-0.1,0.1-0.3,0.1-0.4l0-0.1l0.1,0.1c0.1,0.1,0.1,0.3,0.2,0.5c0.1-0.3,0-0.5-0.1-0.7
						c-0.2-0.4-0.7-0.6-1.1-0.7l-0.1,0l0.1,0c0.1-0.1,0.3-0.1,0.4-0.1c0,0-0.1-0.1-0.2-0.1l-0.1,0l0.1,0c0.2-0.1,0.4,0,0.6,0.1
						c0-0.1-0.1-0.1-0.2-0.1l-0.1-0.1l0.1,0c0.2,0,0.4,0.1,0.6,0.2c0-0.1-0.1-0.1-0.1-0.2l-0.1-0.1l0.1,0c0.1,0,0.3,0.1,0.5,0.2
						c0-0.1-0.1-0.2-0.2-0.3l0,0l0.1,0c0.1,0,0.3,0,0.4,0c-0.2-0.2-0.4-0.2-0.4-0.2l-0.1,0l0-0.1c0.1-0.1,0.1-0.1,0.2-0.2
						c-0.2,0-0.3,0-0.4,0.1l-0.1,0.1l0.1-0.1c0-0.1,0.1-0.2,0.2-0.2l0,0c-0.2,0-0.4,0.1-0.6,0.2l-0.1,0l0-0.1c0-0.1,0.1-0.2,0.1-0.2
						c-0.1,0-0.2,0.1-0.3,0.2l-0.1,0.1l0-0.1c0,0,0-0.1,0-0.1c-0.1,0.1-0.2,0.2-0.4,0.2c-0.3,0.1-0.6,0.3-0.7,0.5l-0.1,0
						c0-0.1,0.1-0.3,0.2-0.5c-0.1,0-0.1,0.1-0.2,0.1l0,0l0,0c0-0.1,0-0.2,0-0.4c-0.1,0.1-0.1,0.2-0.2,0.3l0,0.1l0-0.1
						c0-0.1-0.1-0.2-0.2-0.2c0,0.1,0,0.2,0,0.3l0,0.1l0-0.1c0,0-0.1-0.1-0.2-0.1c0.1,0.1,0.1,0.2,0.2,0.3l-0.1,0c0,0,0,0-0.1,0
						c0.1,0.1,0.1,0.2,0.1,0.3l-0.1,0c0,0,0-0.1-0.1-0.1c-0.1-0.2-0.2-0.4-0.3-0.5c0,0.1,0,0.2,0,0.3l0,0.1l0-0.1
						c-0.1-0.2-0.2-0.3-0.3-0.4c0,0.1,0,0.1,0,0.2v0l-0.1,0c-0.1-0.1-0.1-0.2-0.2-0.3c0,0.1,0,0.2,0,0.2l0,0l-0.1,0
						c-0.1-0.1-0.2-0.2-0.3-0.3c0,0.1,0,0.2,0,0.2l0,0.1l0-0.1c-0.1-0.1-0.2-0.2-0.3-0.3c0,0.1,0,0.3,0,0.3l0,0.1l0-0.1
						c-0.1-0.1-0.2-0.2-0.4-0.2c0.1,0.1,0.1,0.1,0.1,0.2l0,0.1l-0.1,0c-0.1,0-0.4,0.1-0.6,0.2c0.1,0,0.2,0,0.3,0l0.1,0l-0.1,0.1
						c-0.1,0.1-0.2,0.4-0.2,0.6c0.1-0.2,0.3-0.4,0.5-0.5l0.1,0l-0.1,0.1c-0.1,0.1-0.1,0.3-0.1,0.4c0.1-0.1,0.2-0.2,0.3-0.3l0.1,0
						l0,0.1c0,0.1,0,0.2,0,0.3c0.1-0.2,0.3-0.3,0.4-0.5l0,0c0,0.1,0,0.2,0,0.3c0.1-0.1,0.2-0.2,0.3-0.3l0.1,0l0,0.1
						c0,0.1,0,0.1,0,0.2c0.2-0.2,0.5-0.1,0.7,0c0.1,0,0.2,0.1,0.3,0.1l0,0.1c-0.4-0.1-0.7-0.1-1-0.1l0,0v0c-0.1,0-0.2,0-0.3,0.1l0,0
						l0,0c-0.2,0.1-0.4,0.2-0.5,0.3c-0.2,0.2-0.3,0.5-0.3,0.8c0.1-0.1,0.2-0.3,0.3-0.4l0-0.1l0,0.1c0,0.1,0,0.3,0.1,0.3
						c0-0.1,0.1-0.4,0.1-0.5l0-0.1l0,0.1c0,0.1,0,0.2,0.1,0.2c0-0.1,0.1-0.3,0.1-0.4l0.1,0c0,0.1,0,0.2,0,0.3c0-0.1,0.1-0.3,0.2-0.4
						l0.1,0c0,0.1,0,0.2,0,0.3c0.1-0.1,0.1-0.2,0.2-0.3l0.1-0.1v0.1c0,0.1,0,0.1,0,0.2c0.1-0.1,0.1-0.1,0.2-0.1c0.1,0,0.2,0,0.2,0
						l0,0l0,0c-0.8,0.4-1.2,1.1-1.1,1.9c0-0.1,0.1-0.1,0.1-0.2c0,0,0-0.1,0-0.1l0-0.1l0,0.1c0,0,0,0.1,0.1,0.2
						c0-0.1,0.1-0.2,0.1-0.3c0-0.1,0-0.1,0.1-0.2l0.1,0c0,0.1,0.1,0.2,0.1,0.3c0,0,0-0.1,0-0.1c0-0.2,0.1-0.4,0.1-0.7c0,0,0,0,0,0
						l0.1,0c0,0,0,0,0,0c0,0.1,0.1,0.3,0.1,0.4c0.1-0.2,0.1-0.4,0.1-0.6l0.1,0c0,0.1,0,0.2,0.1,0.3c0,0,0-0.1,0-0.1
						c0-0.1,0.1-0.3,0.1-0.6l0-0.1l0.1,0.1c0.1,0.1,0.1,0.2,0.1,0.3c0-0.1,0-0.2,0-0.3l0.1,0c0,0.1,0.1,0.2,0,0.4
						c0,0,0.1-0.1,0.1-0.1l0,0l0,0c0.1,0.1,0.1,0.3,0.1,0.5c0.1-0.1,0.1-0.2,0.1-0.2l0.1,0c0.1,0.2,0,0.4,0,0.6
						c0.1-0.1,0.1-0.1,0.2-0.2l0.1,0c0,0.2,0,0.4-0.1,0.6c0.1-0.1,0.1-0.2,0.2-0.3l0.1,0c0,0.1,0,0.3-0.1,0.4
						c0.1-0.1,0.1-0.1,0.1-0.2C-203.3,395.5-203.3,395.5-203.3,395.4L-203.3,395.4z M-204,393.9c0.2,0.1,0.3,0.2,0.5,0.4
						C-203.6,394-203.7,393.9-204,393.9z M-205.9,393.1c-0.1,0.1-0.3,0.3-0.4,0.5l0,0c0.1-0.1,0.2-0.1,0.4-0.2v0
						C-205.9,393.3-205.9,393.2-205.9,393.1z M-205.2,393.3c0.1,0,0.3,0,0.4,0c0,0,0,0,0,0c-0.3-0.1-0.5-0.2-0.6,0
						C-205.4,393.3-205.3,393.3-205.2,393.3z"/>
				</g>
				<g>
					<g>
						<path class="st7" d="M-202.9,392.3c0,0-0.1,0.1-0.1,0.1"/>
					</g>
					<g>
						<path d="M-204,393.4L-204,393.4c0.1-0.1,0.4-0.2,0.5-0.1l0,0.1C-203.6,393.3-203.8,393.3-204,393.4z"/>
					</g>
					<g>
						<path class="st7" d="M-203.3,394c0,0,0-0.2-0.1-0.2"/>
					</g>
					<g>
						<path d="M-203.4,395.3L-203.4,395.3c0-0.1,0-0.3,0-0.3l0.1,0C-203.3,395-203.3,395.2-203.4,395.3z"/>
					</g>
					<g>
						<path class="st7" d="M-203.3,395.5c0-0.1,0-0.2,0-0.3"/>
					</g>
					<g>
						<path class="st7" d="M-203.8,394.6c0-0.1,0-0.1-0.1-0.2"/>
					</g>
					<g>
						<path class="st7" d="M-203.6,394.9c0-0.1,0-0.3,0-0.3"/>
					</g>
					<g>
						<path class="st7" d="M-204.1,394.4c0,0,0-0.1,0-0.2"/>
					</g>
					<g>
						<path class="st7" d="M-205.3,395.2c0-0.1,0-0.3,0-0.4"/>
					</g>
					<g>
						<path d="M-205.6,395.5L-205.6,395.5c0-0.1,0-0.4,0-0.5l0.1,0C-205.5,395.2-205.6,395.5-205.6,395.5z"/>
					</g>
					<g>
						<path class="st7" d="M-206,394c0-0.1,0-0.1,0.1-0.2"/>
					</g>
					<g>
						<path class="st7" d="M-206.3,394.1c0-0.1,0-0.2,0.1-0.3"/>
					</g>
					<g>
						<path class="st7" d="M-205.8,393.9c0,0,0-0.1,0.1-0.2"/>
					</g>
					<g>
						<path class="st7" d="M-205.5,393.8c0,0,0.1-0.1,0.1-0.2"/>
					</g>
					<g>
						<path class="st7" d="M-205.2,393.7c0,0,0.1-0.1,0.1-0.1"/>
					</g>
					<g>
						<path d="M-204.4,393.5c-0.1-0.1-0.2-0.3-0.2-0.4l0,0l0.1,0l0,0C-204.5,393.2-204.5,393.4-204.4,393.5L-204.4,393.5z"/>
					</g>
					<g>
						<path d="M-204.5,393.3c-0.4-0.4-1.2-0.7-1.8-0.6l0-0.1C-205.7,392.6-204.9,392.9-204.5,393.3L-204.5,393.3z"/>
					</g>
					<g>
						<path d="M-204.1,393.4L-204.1,393.4c0.5-0.6,1.2-0.9,1.8-0.7l0,0.1C-202.9,392.6-203.6,392.8-204.1,393.4z"/>
					</g>
					<g>
						<path class="st7" d="M-204,393c0,0.1,0,0.2-0.1,0.3"/>
					</g>
					<g>
						<path class="st7" d="M-204.4,396.4c0,0,0-0.1,0-0.2"/>
					</g>
				</g>
				<g>
					<path class="st6" d="M-204.1,394.4c-0.3,0-0.3,0.5,0,0.5C-203.8,394.8-203.8,394.4-204.1,394.4z"/>
					<path d="M-204.1,394.8c-0.2,0-0.3-0.1-0.3-0.3c0-0.1,0-0.1,0.1-0.2c0-0.1,0.1-0.1,0.2-0.1c0.2,0,0.3,0.1,0.3,0.3
						c0,0.1,0,0.1-0.1,0.2C-203.9,394.8-204,394.8-204.1,394.8z M-204.1,394.4c-0.1,0-0.1,0-0.2,0.1c0,0-0.1,0.1-0.1,0.1
						c0,0.1,0.1,0.2,0.2,0.2c0.1,0,0.1,0,0.2-0.1c0,0,0.1-0.1,0.1-0.1C-203.9,394.5-203.9,394.4-204.1,394.4z"/>
				</g>
			</g>
			<g>
				<g>
					<path class="st9" d="M-214.7,400.7c0,0-0.3,0-0.3,0c0,0.1-0.1,0.2-0.2,0.3c-0.1-0.2-0.3-0.5-0.4-0.5c0,0.1,0,0.3,0,0.4
						c-0.1-0.4-0.5-0.4-0.5-0.5c-0.1,0.1-0.1,0.3-0.1,0.4c-0.2-0.2-0.5-0.3-0.7-0.2c0.1,0.3,0.3,0.5,0.5,0.6c-0.2,0-0.4,0.1-0.5,0.2
						c0.2,0.1,0.5,0.2,0.7,0.1c-0.1,0.1-0.2,0.2-0.2,0.3c0.1,0,0.5,0,0.6,0c0,0.1-0.1,0.2-0.1,0.2c0.1,0,0.3,0,0.3,0
						c-0.2,0.2-0.2,0.7-0.1,0.9c0.2-0.1,0.4-0.4,0.5-0.6c0.1,0.1,0.2,0.2,0.4,0.2c-0.2-0.3,0.2-0.5,0-0.7c-0.1-0.2-0.3-0.3-0.3-0.4
						C-215.1,401.1-214.8,400.8-214.7,400.7z"/>
					<path d="M-215.8,402.8L-215.8,402.8c-0.1-0.2,0-0.6,0.1-0.9c-0.1,0-0.2,0-0.3,0l0,0l0,0c0-0.1,0-0.1,0.1-0.2
						c-0.2,0-0.4,0.1-0.5,0l0,0l0,0c0-0.1,0.1-0.2,0.1-0.3c-0.2,0-0.4,0-0.6-0.2l0,0l0,0c0.1-0.1,0.3-0.2,0.4-0.2
						c-0.2-0.1-0.4-0.3-0.4-0.5l0,0l0,0c0.2-0.1,0.5,0,0.7,0.2c0-0.1,0-0.2,0.1-0.3l0-0.1l0,0.1c0,0,0.1,0.1,0.1,0.1
						c0.1,0.1,0.3,0.1,0.3,0.3c0-0.1,0-0.2,0-0.3l0-0.1l0.1,0c0.1,0.1,0.3,0.3,0.4,0.5c0.1-0.1,0.1-0.2,0.1-0.3l0,0l0,0
						c0.1,0,0.3,0,0.3,0l0.1,0l0,0.1c0,0.1-0.2,0.2-0.3,0.4c-0.1,0.1-0.1,0.1-0.1,0.2c0.1,0.1,0.2,0.1,0.3,0.4c0.1,0.1,0,0.2,0,0.4
						c0,0.1-0.1,0.2,0,0.4l0,0.1l-0.1,0c-0.1,0-0.3-0.1-0.4-0.2C-215.3,402.4-215.5,402.7-215.8,402.8L-215.8,402.8z M-215.6,401.9
						L-215.6,401.9c-0.1,0.2-0.2,0.7-0.1,0.9c0.2-0.1,0.4-0.4,0.5-0.6l0,0l0,0c0.1,0.1,0.2,0.2,0.3,0.2c-0.1-0.1,0-0.3,0-0.4
						c0-0.1,0.1-0.2,0-0.3c-0.1-0.2-0.3-0.3-0.3-0.4l0,0l0,0c0,0,0.1-0.1,0.2-0.2c0.1-0.1,0.2-0.3,0.2-0.3c-0.1,0-0.2,0-0.2,0
						c0,0.1-0.1,0.2-0.2,0.3l0,0l0-0.1c0-0.2-0.2-0.4-0.3-0.5c0,0.1,0,0.3,0,0.3l0,0.1l0-0.1c-0.1-0.2-0.2-0.3-0.3-0.4
						c0,0-0.1,0-0.1-0.1c0,0.1-0.1,0.2,0,0.3l-0.1,0c-0.1-0.1-0.4-0.2-0.6-0.2c0,0,0,0-0.1,0c0.1,0.3,0.3,0.4,0.5,0.5l0,0.1
						c-0.2,0-0.3,0.1-0.4,0.2c0.3,0.1,0.5,0.2,0.6,0.1l0,0.1c-0.1,0.1-0.2,0.2-0.2,0.3c0.1,0,0.4,0,0.5,0l0,0c0,0-0.1,0.1-0.1,0.2
						C-215.8,401.9-215.7,401.9-215.6,401.9z"/>
				</g>
				<g>
					<path class="st4" d="M-214.2,402.9c-0.1,0-0.3,0.1-0.3,0.3c0-0.1,0.1,0,0.2,0c0,0.1,0,0.1,0,0.2c0-0.1,0.1-0.1,0.2-0.2
						c0,0.1,0,0.2,0.1,0.2c0-0.1,0.1-0.2,0.2-0.2c0.1,0.1,0.1,0.1,0.2,0.2c-0.1,0.1-0.2,0.2-0.1,0.3c0.1-0.1,0.1-0.1,0.2,0.1
						c0.1-0.2,0.2-0.1,0.2,0.1c0.1-0.3,0.3-0.2,0.5-0.1c0.2,0.1,0.6,0.2,0.7,0.7c0.1,0.2,0.2,0.2,0.3,0.2c0,0,0.1,0.1,0.1,0
						c0,0,0.1-0.1,0.1-0.1c0.1,0,0.1,0.1,0.2,0c0,0,0.1-0.1,0-0.1c0.3-0.2,0.1-0.3,0-0.3c-0.1-0.1-0.3-0.1-0.4-0.3
						c-0.5-0.5-0.5-1.1-0.8-1.4c0.2-0.1,0.3-0.2,0.2-0.2c0.2,0,0.3-0.2,0.2-0.2c0,0-0.1,0-0.1,0c0.2,0,0.3-0.1,0.4-0.2
						c0.1-0.1,0.1-0.1,0-0.1c0.3-0.2,0.5-0.5,0.3-0.5c0.4-0.4,0.2-0.4,0.1-0.3c0.5-0.6,0.2-0.6,0.2-0.6c-0.2,0.3-0.8,0.5-1.2,0.6
						c0.1-0.1,0.1-0.2,0.2-0.3c0.1-0.2,0-0.1-0.1-0.1c0,0-0.1,0-0.1,0c0.1-0.1,0.2-0.2,0.3-0.4c0-0.1,0-0.2-0.1-0.1
						c-0.1,0.1-0.3,0.2-0.8,0.4c-0.5,0.1-0.4,0.5-0.2,0.7c0.2,0.2,0.2,0.3,0.2,0.4c-0.1-0.1-0.4-0.2-0.5-0.5
						c-0.1-0.2-0.1-0.4-0.3-0.5c0.1,0,0.2-0.2,0.2-0.3c-0.1,0.1-0.2,0.1-0.5,0c-0.3-0.1-0.5,0.1-0.5,0.3c-0.2,0.1-0.3,0.2-0.3,0.3
						c0.1,0,0.1-0.1,0.2,0c0.1,0,0.2,0,0.2,0c0.3,0.2,0.3,0.6,0.2,1C-214.5,402.3-214.4,402.6-214.2,402.9z"/>
					<path d="M-211.7,404.7C-211.7,404.7-211.8,404.7-211.7,404.7c-0.2,0-0.4,0-0.5-0.2c-0.1-0.5-0.4-0.6-0.7-0.7
						c-0.1-0.1-0.3-0.1-0.4-0.1c-0.1,0-0.1,0.1-0.1,0.2l-0.1,0c0-0.1,0-0.1-0.1-0.1c0,0,0,0,0,0c0,0-0.1,0-0.1,0.1l0,0.1l0-0.1
						c0-0.1,0-0.1-0.1-0.1c0,0,0,0,0,0c0,0,0,0-0.1,0.1l-0.1,0.1l0-0.1c0-0.1,0-0.2,0.1-0.3c-0.1,0-0.1-0.1-0.2-0.1
						c0,0-0.1,0.1-0.2,0.2l0,0.1l0-0.1c0,0-0.1-0.1-0.1-0.2c-0.1,0-0.1,0.1-0.1,0.1l0,0.1l0-0.1c0,0,0-0.1,0-0.2c0,0,0,0,0,0
						c0,0-0.1,0-0.1,0l-0.1,0.1l0-0.1c0-0.1,0-0.2,0.1-0.2c0,0,0.1-0.1,0.2-0.1c-0.2-0.3-0.2-0.6-0.2-0.9c0.1-0.4,0.1-0.8-0.2-1
						c0,0-0.1,0-0.1,0c0,0-0.1,0-0.1,0c0,0,0,0-0.1,0c0,0-0.1,0-0.1,0l0,0l0,0c0-0.1,0.1-0.2,0.3-0.3c0-0.1,0.1-0.2,0.2-0.3
						c0.1-0.1,0.3-0.1,0.4,0c0.3,0.1,0.4,0.1,0.5,0l0.1,0l0,0.1c0,0.1-0.1,0.3-0.2,0.3c0.2,0.1,0.2,0.2,0.3,0.4
						c0,0.2,0.2,0.3,0.3,0.3c0,0,0.1,0.1,0.1,0.1c0-0.1,0-0.2-0.2-0.3c-0.1-0.1-0.2-0.3-0.2-0.4c0-0.2,0.2-0.3,0.4-0.3
						c0.5-0.2,0.7-0.3,0.7-0.3c0,0,0.1-0.1,0.1,0c0,0,0,0.1,0,0.2c0,0.1-0.1,0.2-0.1,0.2c0,0,0,0,0.1,0c0,0,0,0.1,0,0.2
						c0,0.1-0.1,0.1-0.1,0.2c0.4-0.1,0.9-0.3,1.1-0.5c0,0,0.1-0.1,0.1,0c0.1,0.1,0,0.2-0.2,0.6c0.1,0,0.1,0,0.1,0c0,0,0,0.1-0.2,0.3
						c0,0,0,0,0,0c0,0.1-0.2,0.3-0.3,0.5c0,0,0,0,0,0c0,0,0,0.1-0.1,0.1c0,0,0,0-0.1,0.1c-0.1,0.1-0.1,0.1-0.2,0.2c0,0,0,0,0,0
						c0,0.1-0.1,0.1-0.2,0.2c0,0.1-0.1,0.1-0.2,0.2c0.1,0.1,0.2,0.3,0.3,0.5c0.1,0.3,0.2,0.6,0.4,0.8c0.1,0.1,0.2,0.2,0.4,0.3
						c0.1,0,0.2,0.1,0.2,0.1c0,0.1,0,0.1-0.1,0.2c0,0,0,0.1-0.1,0.1c-0.1,0.1-0.2,0.1-0.2,0C-211.6,404.6-211.6,404.6-211.7,404.7
						C-211.7,404.7-211.7,404.7-211.7,404.7z M-211.8,404.6L-211.8,404.6c0.1,0.1,0.1,0,0.1,0c0,0,0.1,0,0.1-0.1l0,0l0.1,0
						c0,0,0.1,0.1,0.2,0c0.1,0,0-0.1,0-0.1l0,0l0,0c0.1-0.1,0.1-0.1,0.1-0.2c0,0-0.1-0.1-0.2-0.1c-0.2-0.1-0.3-0.1-0.4-0.3
						c-0.2-0.2-0.4-0.6-0.5-0.8c-0.1-0.2-0.2-0.4-0.3-0.5l0,0l0.1,0c0.1-0.1,0.2-0.1,0.2-0.2c0,0,0,0,0,0c0,0,0,0,0,0l0-0.1l0,0l0,0
						c0.1,0,0.2-0.1,0.2-0.1c0,0,0,0,0,0c0,0-0.1,0-0.1,0l0,0l0-0.1c0.1,0,0.2-0.1,0.3-0.2c0,0,0,0,0.1-0.1c0,0,0,0,0,0c0,0,0,0,0,0
						h-0.1l0.1-0.1c0.2-0.2,0.4-0.4,0.4-0.4c0,0,0,0,0,0l0-0.1c0.2-0.2,0.2-0.3,0.2-0.3c0,0,0,0-0.1,0l-0.1,0l0.1-0.1
						c0.3-0.5,0.3-0.5,0.3-0.5c0,0,0,0,0,0c-0.2,0.3-0.8,0.5-1.3,0.6l-0.1,0l0.1-0.1c0.1-0.1,0.1-0.2,0.2-0.3c0,0,0-0.1,0-0.1
						c0,0,0,0,0,0c0,0-0.1,0-0.1,0l0-0.1c0.1-0.1,0.2-0.2,0.2-0.3c0-0.1,0-0.1,0-0.1c0,0,0,0,0,0c-0.1,0.1-0.2,0.2-0.8,0.4
						c-0.2,0.1-0.3,0.2-0.3,0.3c0,0.1,0,0.3,0.1,0.4c0.2,0.2,0.2,0.3,0.2,0.4l0,0l0,0c0,0-0.1-0.1-0.2-0.1c-0.1-0.1-0.3-0.1-0.3-0.4
						c-0.1-0.3-0.1-0.4-0.3-0.4l-0.1,0l0.1,0c0.1,0,0.1-0.1,0.2-0.2c-0.1,0.1-0.2,0-0.5,0c-0.1,0-0.3,0-0.4,0
						c-0.1,0.1-0.1,0.2-0.1,0.3l0,0l0,0c-0.2,0.1-0.2,0.2-0.3,0.2c0,0,0,0,0.1,0c0,0,0.1,0,0.1,0c0,0,0.1,0,0.1,0c0.1,0,0.1,0,0.2,0
						c0.4,0.2,0.3,0.6,0.2,1c-0.1,0.3,0,0.6,0.2,0.9l0,0.1l-0.1,0c-0.1,0-0.1,0-0.2,0.1c0,0-0.1,0.1-0.1,0.1c0,0,0.1,0,0.1,0
						c0,0,0,0,0,0h0l0,0c0,0,0,0.1,0,0.1c0,0,0.1-0.1,0.2-0.1l0.1,0l0,0.1c0,0,0,0.1,0,0.2c0.1-0.1,0.1-0.1,0.2-0.2l0,0l0,0
						c0.1,0.1,0.1,0.1,0.2,0.1l0,0l0,0c-0.1,0.1-0.1,0.1-0.1,0.2c0,0,0,0,0.1,0c0,0,0.1,0.1,0.1,0.1c0.1-0.1,0.1-0.1,0.2-0.1
						c0,0,0.1,0,0.1,0.1c0-0.1,0.1-0.1,0.1-0.1c0.1-0.1,0.3,0,0.4,0.1c0.2,0.1,0.6,0.2,0.7,0.8C-212,404.6-211.9,404.6-211.8,404.6
						L-211.8,404.6z"/>
				</g>
				<g>
					<path d="M-214.5,400.6C-214.4,400.6-214.4,400.7-214.5,400.6C-214.5,400.7-214.6,400.6-214.5,400.6z"/>
				</g>
				<g>
					<g>
						<path class="st7" d="M-213.2,401.6C-213.1,401.6-213.1,401.7-213.2,401.6"/>
					</g>
					<g>
						<path d="M-213.3,401.9L-213.3,401.9c0.2-0.2,0.2-0.3,0.2-0.5c0-0.1,0-0.3,0.1-0.4c0.1-0.1,0.2-0.1,0.3-0.1c0,0,0.1,0,0.1,0
							l0,0l0,0c0,0-0.1,0-0.1,0c-0.1,0-0.2,0-0.3,0.1c-0.1,0.1-0.1,0.2-0.1,0.3C-213,401.6-213,401.8-213.3,401.9z"/>
					</g>
					<g>
						<path class="st7" d="M-212.7,400.7c0-0.1,0.1-0.1,0.2-0.1"/>
					</g>
					<g>
						<path class="st7" d="M-212.2,401.8c0.1,0,0.2,0,0.3,0c0,0,0,0,0.1,0"/>
					</g>
					<g>
						<path class="st7" d="M-212.3,402.1C-212.3,402.1-212.2,402.1-212.3,402.1"/>
					</g>
					<g>
						<path class="st7" d="M-212.4,402.3C-212.4,402.3-212.3,402.3-212.4,402.3"/>
					</g>
					<g>
						<path class="st7" d="M-211.6,404.2c0.2,0.1,0.3,0.2,0.3,0.3"/>
					</g>
					<g>
						<path d="M-211.5,404.6L-211.5,404.6c0-0.1-0.1-0.2-0.2-0.3c0,0-0.1-0.1-0.1-0.1l0,0c0,0,0.1,0.1,0.1,0.1
							C-211.6,404.4-211.5,404.5-211.5,404.6z"/>
					</g>
					<g>
						<path class="st7" d="M-212,404.3c0.1,0.1,0.1,0.3,0.2,0.3"/>
					</g>
					<g>
						<path class="st7" d="M-213.4,403.4c-0.1,0-0.2,0-0.3,0"/>
					</g>
					<g>
						<path class="st7" d="M-214.2,402.9c0,0,0.1,0.1,0.1,0.1"/>
					</g>
					<g>
						<path class="st7" d="M-213.9,403.2C-213.9,403.2-213.9,403.2-213.9,403.2"/>
					</g>
					<g>
						<path d="M-212.9,402c0,0-0.1,0-0.1,0l0-0.1C-213,402-212.9,402-212.9,402c0.1-0.1,0.2-0.2,0.2-0.2l0.1,0
							C-212.7,401.9-212.7,402-212.9,402C-212.8,402-212.9,402-212.9,402z"/>
					</g>
					<g>
						<path d="M-212.6,401.9c0,0-0.1,0-0.1,0l0-0.1c0.1,0.1,0.2,0,0.2,0c0-0.1,0-0.2,0-0.3l0-0.1c0.1,0.1,0.1,0.2,0.1,0.3
							C-212.5,401.8-212.5,401.9-212.6,401.9z"/>
					</g>
					<g>
						<path d="M-212.6,401.5L-212.6,401.5c0.1-0.1,0.1-0.2,0.1-0.3c0,0,0-0.1-0.1-0.1l0-0.1c0.1,0,0.1,0.1,0.1,0.2
							C-212.4,401.3-212.5,401.4-212.6,401.5z"/>
					</g>
					<g>
						<path d="M-211.9,401.1C-211.9,401.1-211.9,401.1-211.9,401.1L-211.9,401.1c0,0,0.2-0.1,0.3-0.1c0,0,0.1,0,0.1,0l0,0.1
							c0,0,0,0-0.1,0C-211.6,401-211.8,401.1-211.9,401.1z"/>
					</g>
					<g>
						<path d="M-212,401.5L-212,401.5c0.2-0.1,0.3-0.2,0.4-0.2l0,0C-211.6,401.4-211.8,401.5-212,401.5z"/>
					</g>
				</g>
			</g>
			<g>
				<g>
					<g>
						<path class="st6" d="M-212.9,394.8c-0.1,0.3-0.6,1.1-0.7,1.4c-0.1,0.1,0.4,0.4,0.4,0.2c0.3-0.6,0.6-1.3,0.7-1.5
							C-212.4,394.8-212.8,394.6-212.9,394.8z"/>
						<path d="M-213.3,396.5c-0.1,0-0.3-0.1-0.3-0.2c0-0.1,0-0.1,0-0.1c0.2-0.4,0.6-1.1,0.7-1.4v0c0-0.1,0.1-0.1,0.2-0.1
							c0,0,0,0,0,0c0.1,0,0.2,0.1,0.2,0.1c0,0.1,0,0.1,0,0.2c-0.1,0.1-0.2,0.5-0.4,0.8c-0.1,0.2-0.2,0.5-0.3,0.7
							C-213.2,396.5-213.2,396.5-213.3,396.5C-213.3,396.5-213.3,396.5-213.3,396.5z M-212.9,394.8c-0.1,0.3-0.5,1.1-0.7,1.4
							c0,0,0,0,0,0.1c0,0.1,0.2,0.2,0.3,0.2c0,0,0,0,0,0c0,0,0.1,0,0.1-0.1c0.1-0.2,0.2-0.4,0.3-0.7c0.2-0.4,0.3-0.7,0.4-0.8
							c0,0,0-0.1,0-0.1c0-0.1-0.1-0.1-0.2-0.1c0,0,0,0,0,0C-212.8,394.8-212.8,394.8-212.9,394.8z"/>
					</g>
					<g>
						<path class="st6" d="M-215.7,394.3c0.1,0.4,0.4,1.1,0.6,1.9c0.1,0.2,0.5,0.1,0.5-0.2c-0.2-0.6-0.5-1.5-0.6-1.9
							C-215.3,394-215.8,394.1-215.7,394.3z"/>
						<path d="M-215,396.3C-215,396.3-215,396.3-215,396.3c-0.1,0-0.2-0.1-0.2-0.1c-0.2-0.7-0.4-1.4-0.5-1.8l0,0
							c0-0.1,0.1-0.3,0.2-0.3c0.1,0,0.2,0,0.3,0.1l0,0.1c0.1,0.4,0.4,1.2,0.6,1.8c0,0.1,0,0.2-0.1,0.3
							C-214.8,396.3-214.9,396.3-215,396.3z M-215.7,394.3L-215.7,394.3c0.1,0.4,0.4,1.2,0.6,1.9c0,0.1,0.1,0.1,0.1,0.1
							c0.1,0,0.2,0,0.3-0.1c0,0,0.1-0.1,0.1-0.2c-0.1-0.6-0.4-1.4-0.6-1.8l0-0.1c0,0-0.1-0.1-0.2,0
							C-215.6,394.1-215.7,394.2-215.7,394.3L-215.7,394.3z"/>
					</g>
					<g>
						<path class="st6" d="M-214.3,394.1c0,0.4,0,1.4,0,1.8c0,0.2,0.5,0.2,0.5,0c0-0.7-0.1-1.6-0.1-1.8
							C-213.9,393.8-214.3,393.9-214.3,394.1z"/>
						<path d="M-214.1,396.1c-0.1,0-0.2,0-0.2,0c-0.1,0-0.1-0.1-0.1-0.1c0-0.5,0-1.4,0-1.8v0c0-0.1,0-0.2,0.1-0.2c0.1,0,0.2,0,0.3,0
							c0.1,0,0.1,0.1,0.1,0.2c0,0.2,0,0.6,0,1c0,0.3,0,0.6,0,0.8c0,0.1,0,0.1-0.1,0.2C-214,396.1-214,396.1-214.1,396.1z
							 M-214.3,394.1c0,0.4,0,1.4,0,1.8c0,0,0,0.1,0,0.1c0.1,0,0.2,0.1,0.3,0c0,0,0.1-0.1,0.1-0.1c0-0.3,0-0.5,0-0.8
							c0-0.5,0-0.9,0-1c0,0,0-0.1,0-0.1c0,0-0.1,0-0.2,0C-214.2,394-214.3,394-214.3,394.1z"/>
					</g>
				</g>
				<g>
					<g>
						<path class="st9" d="M-215.3,394.2c0-0.4,0.3-1.1,0.5-1.2c0.2-0.1,0.6-0.4,0.8-0.7c-0.2,0.1-0.8,0.3-0.9,0.3
							c-0.6,0.2-0.6,0.8-0.6,1.4c0-0.4,0-0.7-0.4-1.2c-0.4-0.5-0.7-0.1-0.8,0.2c-0.1,0.3,0,0.5,0.2,0.7c0.1-0.3,0.1-0.6,0.3-0.6
							c0.2,0,0.5,0.5,0.5,1c-0.2-0.3-0.6-0.5-1-0.2c-0.4,0.4-0.1,0.5,0.1,0.9c0.1-0.4,0.1-0.5,0.2-0.6c0.2-0.2,0.6,0,0.8,0.2
							C-215.5,394.9-215.3,394.6-215.3,394.2z"/>
						<path d="M-216.6,395.1L-216.6,395.1c-0.1-0.2-0.1-0.2-0.2-0.3c-0.2-0.3-0.3-0.4,0.1-0.8c0.1-0.1,0.3-0.2,0.4-0.2c0,0,0,0,0,0
							c0.2,0,0.4,0.2,0.5,0.3c-0.1-0.5-0.3-0.9-0.5-0.9c0,0,0,0,0,0c-0.1,0-0.2,0.1-0.2,0.4c0,0,0,0.1,0,0.1l0,0.1l0-0.1
							c0,0,0-0.1-0.1-0.1c-0.1-0.2-0.2-0.4-0.1-0.7c0.1-0.2,0.2-0.4,0.4-0.5c0.1,0,0.3,0.1,0.4,0.2c0.2,0.3,0.3,0.5,0.4,0.7
							c0-0.4,0.2-0.8,0.6-0.9c0,0,0.1,0,0.1,0c0.2-0.1,0.7-0.2,0.8-0.3l0,0c-0.2,0.3-0.6,0.6-0.8,0.7c-0.2,0.1-0.5,0.8-0.5,1.2v0
							c0,0.3-0.1,0.5-0.2,0.6c-0.1,0-0.1,0-0.2-0.1c-0.1-0.1-0.3-0.3-0.4-0.3c-0.1,0-0.2,0-0.3,0.1c-0.1,0.1-0.1,0.2-0.2,0.5
							L-216.6,395.1z M-216.3,393.9c-0.1,0-0.3,0.1-0.4,0.2c-0.3,0.3-0.2,0.4,0,0.7c0,0,0,0.1,0.1,0.1c0-0.3,0.1-0.4,0.2-0.5
							c0.1-0.1,0.2-0.1,0.4-0.1c0.2,0,0.4,0.2,0.5,0.3c0,0,0.1,0.1,0.1,0.1c0.1,0,0.2-0.2,0.2-0.5c0-0.4,0.3-1.1,0.5-1.2
							c0.2-0.1,0.5-0.4,0.7-0.6c-0.2,0.1-0.5,0.2-0.7,0.2c-0.1,0-0.1,0-0.1,0c-0.6,0.2-0.6,0.7-0.6,1.3c0,0,0,0,0,0.1l-0.1,0l0,0
							c0,0,0,0,0,0c0-0.4-0.1-0.7-0.4-1.1c-0.1-0.1-0.2-0.2-0.3-0.2c0,0,0,0,0,0c-0.2,0-0.3,0.3-0.4,0.4c-0.1,0.3,0,0.4,0.1,0.6
							c0,0,0,0,0,0c0,0,0,0,0-0.1c0.1-0.3,0.1-0.5,0.3-0.5c0,0,0,0,0,0c0.2,0,0.5,0.5,0.6,1l0,0.1l-0.1-0.1
							C-215.9,394.2-216,393.9-216.3,393.9C-216.3,393.9-216.3,393.9-216.3,393.9z"/>
					</g>
					<g>
						<path class="st9" d="M-215.2,394.8c-0.7-0.6-1.3-0.2-1.4,0.4c-0.1,0.5,0.1,0.8,0.3,1c0.1-0.8,0.5-1.5,0.9-1.3
							C-215.3,395-215,395-215.2,394.8z"/>
						<path d="M-216.3,396.2L-216.3,396.2c-0.2-0.2-0.5-0.5-0.3-1.1c0.1-0.3,0.3-0.5,0.6-0.6c0.3-0.1,0.6,0,0.9,0.2l0,0
							c0.1,0.1,0,0.2,0,0.2c-0.1,0.1-0.2,0-0.3-0.1c-0.1-0.1-0.2-0.1-0.3,0C-216,395-216.2,395.6-216.3,396.2L-216.3,396.2z
							 M-215.8,394.6c-0.1,0-0.1,0-0.2,0c-0.3,0.1-0.5,0.3-0.5,0.6c-0.1,0.5,0,0.7,0.2,0.9c0.1-0.6,0.3-1.1,0.6-1.3
							c0.1,0,0.2,0,0.3,0c0.1,0.1,0.2,0.1,0.3,0.1c0,0,0-0.1,0-0.1C-215.4,394.6-215.6,394.6-215.8,394.6z"/>
					</g>
					<g>
						<path class="st9" d="M-214,394.5c0.2-0.3,0.5-0.5,0.5-0.2c0,0.5,0.3,0.5,0.5,0.5c-0.3-0.2-0.1-0.3-0.1-0.7c0-0.4,0-1-0.8-0.2
							c0.4-0.9,0.5-1,1.1-1.3c0.6-0.3,0.8-0.5,0-0.3c-0.7,0.2-1.2,0.4-1.2,1.1c0-0.4,0.1-0.6-0.1-0.8c-0.5-0.4-0.6-0.4-1.4-0.3
							c0.3,0.1,0.5,0.4,0.9,0.5c0.3,0.1,0.4,0.1,0.4,1c-0.1-0.3-0.3-0.7-0.6-0.1c-0.4,0.7-0.1,0.7,0.1,1.5c0.1-0.1,0.2-0.6,0.1-0.8
							c-0.1-0.2,0-0.2,0.1-0.4c0.1-0.2,0.2-0.2,0.3,0.2C-214.2,394.5-214.1,394.7-214,394.5z"/>
						<path d="M-214.8,395.2L-214.8,395.2c-0.1-0.3-0.2-0.4-0.2-0.5c-0.1-0.3-0.2-0.5,0.1-1c0.1-0.2,0.2-0.3,0.3-0.3c0,0,0,0,0,0
							c0.1,0,0.2,0.1,0.3,0.2c0-0.6-0.2-0.6-0.4-0.7c0,0,0,0-0.1,0c-0.2-0.1-0.4-0.2-0.5-0.3c-0.1-0.1-0.2-0.2-0.3-0.2l-0.1,0l0.1,0
							c0.9-0.1,1-0.1,1.5,0.3c0.1,0.1,0.2,0.2,0.2,0.4c0.2-0.4,0.6-0.5,1.1-0.7c0.5-0.1,0.5-0.1,0.5-0.1c0,0.1-0.4,0.3-0.5,0.4
							c-0.5,0.2-0.6,0.3-1,1.1c0.2-0.2,0.4-0.3,0.5-0.3c0.2,0.1,0.2,0.3,0.2,0.6c0,0.1,0,0.2,0,0.3c0,0.2,0,0.3,0.1,0.4l0.1,0.1
							l-0.1,0c-0.1,0-0.3,0-0.4-0.1c-0.1-0.1-0.1-0.2-0.2-0.4c0-0.1,0-0.1-0.1-0.1c0,0,0,0,0,0c-0.1,0-0.2,0.1-0.3,0.3l0,0
							c0,0-0.1,0.1-0.1,0c-0.1,0-0.2-0.2-0.3-0.5c-0.1-0.2-0.1-0.3-0.1-0.3c0,0,0,0-0.1,0.1c0,0,0,0,0,0.1c-0.1,0.1-0.1,0.1,0,0.3
							C-214.6,394.6-214.6,395-214.8,395.2L-214.8,395.2z M-214.6,393.5c-0.1,0-0.2,0.1-0.3,0.3c-0.3,0.5-0.2,0.6-0.1,0.9
							c0.1,0.1,0.1,0.3,0.2,0.4c0.1-0.2,0.1-0.5,0.1-0.7c-0.1-0.2,0-0.3,0-0.4c0,0,0,0,0-0.1c0-0.1,0.1-0.1,0.1-0.1c0,0,0,0,0,0
							c0.1,0,0.1,0.1,0.2,0.3c0.1,0.4,0.2,0.4,0.2,0.4c0,0,0,0,0.1,0c0.1-0.2,0.3-0.4,0.4-0.4c0.1,0,0.1,0.1,0.1,0.2
							c0,0.2,0.1,0.3,0.1,0.4c0.1,0.1,0.2,0.1,0.2,0.1c0,0,0,0,0,0c-0.1-0.1-0.1-0.2-0.1-0.4c0-0.1,0-0.2,0-0.3c0-0.1,0-0.5-0.1-0.5
							c-0.1,0-0.2,0-0.6,0.4l-0.1,0c0.4-0.9,0.5-1,1.1-1.3c0.3-0.1,0.5-0.2,0.5-0.3c0,0-0.1,0-0.4,0.1c-0.7,0.2-1.1,0.4-1.2,1
							c0,0,0,0.1,0,0.1l-0.1,0c0,0,0-0.1,0-0.1c0,0,0-0.1,0-0.1c0-0.3,0.1-0.4-0.1-0.6c-0.5-0.4-0.6-0.4-1.3-0.3
							c0.1,0,0.2,0.1,0.3,0.2c0.1,0.1,0.3,0.2,0.5,0.3c0,0,0,0,0.1,0c0.2,0.1,0.4,0.2,0.4,1l-0.1,0
							C-214.4,393.6-214.5,393.5-214.6,393.5C-214.6,393.5-214.6,393.5-214.6,393.5z"/>
					</g>
					<g>
						<path class="st9" d="M-212.3,393.3c0.1-0.4-0.2-0.6-0.4-0.7c-0.2,0-0.6-0.1-0.8-0.3c0,0.4,0.3,0.7,0.6,0.8
							c0.3,0.1,0.3,0.3,0.3,0.5C-212.7,395-212.4,395.5-212.3,393.3z"/>
						<path d="M-212.5,394.9L-212.5,394.9c-0.2,0-0.2-0.7-0.2-1.2c0-0.2,0-0.4-0.3-0.5c-0.3-0.1-0.6-0.4-0.6-0.8v-0.1l0.1,0.1
							c0.1,0.1,0.4,0.2,0.8,0.3c0.1,0,0.2,0.1,0.3,0.2c0.1,0.1,0.1,0.3,0.1,0.5C-212.3,394.3-212.4,394.9-212.5,394.9z
							 M-213.5,392.4c0,0.4,0.3,0.6,0.5,0.7c0.3,0.1,0.3,0.3,0.3,0.6c0,0.7,0.1,1.1,0.1,1.1c0,0,0.1-0.4,0.2-1.5v0
							c0-0.2,0-0.3-0.1-0.5c-0.1-0.1-0.2-0.2-0.3-0.2C-213.1,392.7-213.4,392.6-213.5,392.4z"/>
					</g>
					<g>
						<path class="st9" d="M-212.9,394.9c0.1-0.9-0.2-1.3,0.5-1.7c0.7-0.4,1-0.5,1.1,0.5c-0.2-0.1-0.4-0.2-0.5-0.3
							c-0.2,0.2-0.5,0.4-0.7,0.7c-0.1,0.5-0.1,0.7-0.1,0.9C-212.7,395.2-212.9,395.2-212.9,394.9z"/>
						<path d="M-212.8,395.2C-212.8,395.2-212.8,395.2-212.8,395.2c-0.1,0-0.2-0.1-0.2-0.3v0c0-0.2,0-0.4,0-0.5c0-0.5,0-0.8,0.6-1.2
							c0.4-0.2,0.7-0.4,0.9-0.3c0.2,0.1,0.2,0.3,0.3,0.8l0,0l0,0c-0.2-0.1-0.4-0.2-0.5-0.3c-0.1,0.1-0.2,0.2-0.2,0.2
							c-0.1,0.1-0.3,0.3-0.4,0.4c0,0.1,0,0.3-0.1,0.4c0,0.2-0.1,0.4-0.1,0.5C-212.6,395.1-212.7,395.2-212.8,395.2z M-212.9,394.9
							c0,0.1,0.1,0.2,0.1,0.2c0,0,0.1,0,0.1-0.1c0-0.1,0.1-0.3,0.1-0.5c0-0.1,0-0.2,0.1-0.4l0,0l0,0c0.1-0.1,0.3-0.3,0.4-0.4
							c0.1-0.1,0.2-0.2,0.3-0.3l0,0l0,0c0.1,0.1,0.3,0.2,0.4,0.3c0-0.4-0.1-0.6-0.2-0.7c-0.2-0.1-0.4,0-0.8,0.2
							c-0.5,0.3-0.5,0.6-0.5,1.1C-212.9,394.5-212.9,394.7-212.9,394.9z"/>
					</g>
					<g>
						<path class="st9" d="M-212.7,395c0.3-0.5,0.3-0.7,0.6-0.9c0.3-0.2,0.7-0.4,0.8,0.9c-0.2-0.2-0.4-0.4-0.6-0.5
							c-0.1-0.1-0.2,0-0.3,0.2C-212.4,394.9-212.9,395.3-212.7,395z"/>
						<path d="M-212.7,395.1C-212.7,395.1-212.8,395.1-212.7,395.1c-0.1,0-0.1-0.1,0-0.2l0,0c0.1-0.1,0.1-0.3,0.2-0.4
							c0.1-0.3,0.2-0.4,0.4-0.6c0.2-0.1,0.3-0.2,0.5-0.1c0.2,0.1,0.4,0.4,0.4,1l0,0.1l-0.1,0c-0.1-0.1-0.2-0.2-0.3-0.3
							c-0.1-0.1-0.2-0.2-0.2-0.2c-0.1,0-0.1,0-0.2,0.1c0,0,0,0.1-0.1,0.1C-212.3,394.8-212.6,395.1-212.7,395.1z M-212.7,395
							C-212.7,395-212.7,395.1-212.7,395C-212.7,395.1-212.7,395.1-212.7,395c0.1,0.1,0.3-0.1,0.5-0.3c0,0,0-0.1,0.1-0.1
							c0.1-0.2,0.2-0.2,0.3-0.2c0.1,0,0.1,0.1,0.2,0.2c0.1,0.1,0.2,0.2,0.3,0.2c-0.1-0.5-0.2-0.8-0.4-0.9c-0.1,0-0.2,0-0.4,0.1
							c-0.2,0.1-0.2,0.3-0.4,0.5C-212.6,394.7-212.6,394.8-212.7,395z"/>
					</g>
					<g>
						<path class="st9" d="M-212.9,395c0.3-0.5,0.7-0.4,0.9-0.1c0.3,0.4-0.1,0.8-0.1,1.2c-0.3,0-0.2-0.4-0.2-0.6
							c0-0.2-0.2-0.5-0.4-0.2C-212.7,395.3-213,395.1-212.9,395z"/>
						<path d="M-212,396L-212,396c-0.1,0-0.2,0-0.2-0.1c-0.1-0.1-0.1-0.4,0-0.5l0,0c0-0.1,0-0.3-0.1-0.3c0,0,0,0,0,0
							c-0.1,0-0.1,0.1-0.2,0.1c0,0,0,0-0.1,0c-0.1,0-0.2-0.1-0.3-0.2c0,0,0-0.1,0-0.1c0.1-0.2,0.3-0.4,0.5-0.4
							c0.2,0,0.4,0.1,0.5,0.2c0.2,0.2,0.1,0.5,0,0.7C-212,395.7-212.1,395.9-212,396L-212,396z M-212.5,395
							C-212.5,395-212.4,395.1-212.5,395c0.2,0.1,0.2,0.2,0.2,0.4l0,0c0,0.1-0.1,0.4,0,0.5c0,0,0.1,0.1,0.1,0.1c0-0.1,0-0.3,0.1-0.4
							c0.1-0.2,0.2-0.5,0-0.7c-0.1-0.1-0.2-0.2-0.4-0.2c0,0,0,0,0,0c-0.2,0-0.3,0.1-0.4,0.3l0,0c0,0,0,0,0,0c0,0.1,0.2,0.2,0.2,0.2
							C-212.6,395.1-212.5,395-212.5,395z"/>
					</g>
				</g>
			</g>
		</g>
	</g>
</g>
</svg>
