<?xml version="1.0" encoding="utf-8"?>
<!-- Generator: Adobe Illustrator 19.0.0, SVG Export Plug-In . SVG Version: 6.00 Build 0)  -->
<svg version="1.1" id="Layer_1" xmlns="http://www.w3.org/2000/svg" xmlns:xlink="http://www.w3.org/1999/xlink" x="0px" y="0px"
	 viewBox="-269 374 72 46" style="enable-background:new -269 374 72 46;" xml:space="preserve">
<style type="text/css">
	.st0{clip-path:url(#SVGID_2_);}
	.st1{fill:#003671;}
	.st2{fill:none;stroke:#000000;stroke-width:0.25;}
	.st3{fill:#FFFFFF;}
	.st4{fill:#DC2F34;}
	.st5{fill:#FFEC96;}
	.st6{fill:#823B8F;}
	.st7{fill:#007A4D;}
</style>
<g>
	<defs>
		<path id="SVGID_1_" d="M-204,420H-262c-3.8,0-7-3.1-7-7V381c0-3.8,3.1-7,7-7h58.1c3.8,0,7,3.1,7,7V413
			C-197,416.9-200.1,420-204,420z"/>
	</defs>
	<clipPath id="SVGID_2_">
		<use xlink:href="#SVGID_1_"  style="overflow:visible;"/>
	</clipPath>
	<g class="st0">
		<g>
			<polygon class="st1" points="-185.6,420.3 -185.6,373 -280.4,373 -280.4,420.3 			"/>
		</g>
		<g>
			<path d="M-185.5,420.5h-95v-47.6h95V420.5z M-280.3,420.2h94.5v-47.1h-94.5V420.2z"/>
		</g>
		<g>
			<path class="st1" d="M-233,396.7"/>
		</g>
		<g>
			<path class="st2" d="M-233,396.7"/>
		</g>
		<g>
			<polygon class="st3" points="-280.4,380.9 -270.4,380.9 -280.4,375.8 -280.4,373 -274.7,373 -260.7,379.9 -260.7,373 -252.8,373 
				-252.8,379.9 -238.8,373 -233.1,373 -233.1,375.8 -243.1,380.9 -233.1,380.9 -233.1,388.8 -243.1,388.8 -233.1,393.8 
				-233.1,396.7 -238.8,396.7 -252.8,389.7 -252.8,396.7 -260.7,396.7 -260.7,389.7 -274.7,396.7 -280.4,396.7 -280.4,393.8 
				-270.4,388.8 -280.4,388.8 			"/>
		</g>
		<g>
			<path d="M-232.9,396.8l-5.9,0l-13.8-6.9v6.9h-8.1v-6.9l-13.9,6.9h-5.8v-3.1l9.6-4.8h-9.6v-8.1h9.6l-9.6-4.8v-3.1l5.9,0l13.8,6.9
				v-6.9h8.1v6.9l13.9-6.9h5.9v3.1l-9.6,4.8h9.6v8.1h-9.6l9.6,4.8V396.8z M-238.8,396.5h5.6v-2.7l-10-5l0.1-0.2h9.9V381h-9.9
				l-0.1-0.2l10-5v-2.7h-5.6l-14.1,7v-7h-7.6v7l-0.2-0.1l-14-7h-5.6v2.7l9.9,5l-0.1,0.2h-9.9v7.6h9.9l0.1,0.2l-9.9,5v2.7h5.6l14.1-7
				v7h7.6v-7l0.2,0.1L-238.8,396.5z"/>
		</g>
		<g>
			<polygon class="st4" points="-236.8,373 -252.6,380.9 -248.8,380.9 -233.1,373 			"/>
		</g>
		<g>
			<path d="M-248.8,381h-3.8l-0.1-0.2l15.8-7.9h3.7l0.1,0.2L-248.8,381z M-252,380.7h3.2l15.2-7.6h-3.2L-252,380.7z"/>
		</g>
		<g>
			<polygon class="st4" points="-233.1,396.7 -248.8,388.8 -245,388.8 -233.1,394.8 			"/>
		</g>
		<g>
			<path d="M-233.1,396.8l-15.7-7.9l0.1-0.2l3.9,0l12,6l0.1,0.1v1.9L-233.1,396.8z M-248.3,388.9l15.1,7.6v-1.6l-11.9-6H-248.3z"/>
		</g>
		<g>
			<polygon class="st4" points="-264.6,380.9 -280.4,373 -280.4,374.9 -268.4,380.9 			"/>
		</g>
		<g>
			<path d="M-264.6,381l-3.9,0l-12-6l-0.1-0.1V373l0.2-0.1l15.8,7.9L-264.6,381z M-268.3,380.7h3.3l-15.2-7.6v1.6L-268.3,380.7z"/>
		</g>
		<g>
			<polygon class="st4" points="-264.6,388.8 -280.4,396.7 -276.6,396.7 -260.8,388.8 			"/>
		</g>
		<g>
			<path d="M-276.6,396.8h-3.8l-0.1-0.2l15.8-7.9h3.8l0.1,0.2L-276.6,396.8z M-279.9,396.5h3.2l15.3-7.6h-3.2L-279.9,396.5z"/>
		</g>
		<g>
			<polygon class="st4" points="-280.4,382.5 -259,382.5 -259,373 -254.4,373 -254.4,382.5 -233.1,382.5 -233.1,387.1 -254.4,387.1 
				-254.4,396.7 -259,396.7 -259,387.1 -280.4,387.1 			"/>
		</g>
		<g>
			<path d="M-254.3,396.8h-4.9v-9.5h-21.4v-4.9h21.4v-9.5h4.9v9.5h21.3v4.9h-21.3V396.8z M-258.9,396.5h4.4V387h21.3v-4.4h-21.3
				v-9.5h-4.4v9.5h-21.4v4.4h21.4V396.5z"/>
		</g>
		<g>
			<path class="st3" d="M-209.3,407.1c5.8,0,10.5-4.7,10.5-10.5s-4.7-10.5-10.5-10.5s-10.5,4.7-10.5,10.5S-215.1,407.1-209.3,407.1
				L-209.3,407.1z"/>
		</g>
		<g>
			<path d="M-209.3,407.2c-5.8,0-10.6-4.8-10.6-10.6s4.8-10.6,10.6-10.6c5.8,0,10.6,4.8,10.6,10.6S-203.5,407.2-209.3,407.2z
				 M-209.3,386.3c-5.7,0-10.3,4.6-10.3,10.3c0,5.7,4.6,10.3,10.3,10.3c5.7,0,10.3-4.6,10.3-10.3
				C-199,390.9-203.6,386.3-209.3,386.3z"/>
		</g>
		<g>
			<path class="st3" d="M-209.3,396.7"/>
		</g>
		<g>
			<path class="st2" d="M-209.3,396.7"/>
		</g>
		<g>
			<path class="st5" d="M-213.7,400.7c0.5,0.2,0.9,0.5,1.2,0.7c1.3,1.2-0.1,3.4-1.3,3.6c-0.7,0.1-1.1,0-1.2-0.3
				c-0.3-0.6,0.3-0.6,0.7-0.6C-213.7,404-212.2,401.8-213.7,400.7L-213.7,400.7z"/>
		</g>
		<g>
			<path d="M-214.3,405.2c-0.4,0-0.7-0.1-0.8-0.4c-0.1-0.2-0.1-0.4,0-0.5c0.1-0.2,0.4-0.2,0.6-0.2c0,0,0.1,0,0.1,0
				c0.3,0,1-0.7,1.2-1.6c0.1-0.5,0.1-1.2-0.6-1.7l0.1-0.1c0.5,0.2,0.9,0.5,1.2,0.7c0.5,0.4,0.7,1.1,0.5,1.8
				c-0.3,0.9-1.1,1.8-1.8,1.9C-214,405.1-214.2,405.2-214.3,405.2z M-213.4,401c0.3,0.4,0.5,0.9,0.3,1.5c-0.2,0.8-0.9,1.6-1.3,1.6
				c0,0-0.1,0-0.1,0c-0.2,0-0.5,0-0.5,0.2c0,0.1,0,0.2,0,0.4c0.1,0.3,0.5,0.4,1.2,0.3c0.7-0.1,1.5-0.9,1.7-1.8
				c0.2-0.7,0-1.3-0.4-1.7C-212.8,401.3-213,401.1-213.4,401z"/>
		</g>
		<g>
			<path class="st4" d="M-213.7,400.7c-0.3-0.2-0.7,0.2-0.8,0.6c-0.1,0.4,0.1,0.8,0.6,1.1c0.2-0.3,0.4-0.6,0.9,0
				C-212.9,401.7-213.2,401-213.7,400.7L-213.7,400.7z"/>
		</g>
		<g>
			<path d="M-213.1,402.6L-213.1,402.6c-0.2-0.3-0.4-0.4-0.5-0.4c0,0,0,0,0,0c-0.1,0-0.3,0.2-0.4,0.3l0,0.1l-0.1,0
				c-0.5-0.4-0.7-0.8-0.6-1.2c0.1-0.3,0.3-0.6,0.5-0.7c0.1-0.1,0.3-0.1,0.4,0l0,0c0.4,0.3,0.9,0.9,0.6,1.8L-213.1,402.6z
				 M-213.9,400.7c-0.1,0-0.1,0-0.2,0c-0.2,0.1-0.4,0.3-0.4,0.6c-0.1,0.3,0.1,0.7,0.5,1c0.1-0.1,0.2-0.3,0.4-0.3c0,0,0,0,0,0
				c0.1,0,0.3,0.1,0.4,0.2c0.1-0.8-0.2-1.3-0.6-1.5C-213.8,400.8-213.8,400.7-213.9,400.7z"/>
		</g>
		<g>
			<path class="st5" d="M-204.9,400.7c-0.5,0.2-0.9,0.5-1.2,0.7c-1.3,1.2,0.1,3.4,1.3,3.6c0.7,0.1,1.1,0,1.2-0.3
				c0.3-0.6-0.3-0.6-0.7-0.6C-204.9,404-206.4,401.8-204.9,400.7L-204.9,400.7z"/>
		</g>
		<g>
			<path d="M-204.3,405.2c-0.1,0-0.3,0-0.5-0.1c-0.8-0.1-1.6-1-1.8-1.9c-0.2-0.7,0-1.4,0.5-1.8c0.3-0.3,0.7-0.5,1.2-0.7l0.1,0.1
				c-0.7,0.5-0.7,1.2-0.6,1.7c0.2,0.8,0.9,1.5,1.2,1.6c0,0,0.1,0,0.1,0c0.3,0,0.5,0.1,0.6,0.2c0.1,0.1,0.1,0.3,0,0.5
				C-203.6,405-203.9,405.2-204.3,405.2z M-205.3,401c-0.3,0.2-0.6,0.3-0.8,0.5c-0.5,0.4-0.6,1-0.4,1.7c0.2,0.9,1,1.7,1.7,1.8
				c0.7,0.1,1,0,1.2-0.3c0.1-0.2,0.1-0.3,0-0.4c-0.1-0.1-0.3-0.2-0.5-0.2c0,0-0.1,0-0.1,0c-0.4-0.1-1.1-0.8-1.3-1.6
				C-205.7,401.9-205.6,401.4-205.3,401z"/>
		</g>
		<g>
			<path class="st4" d="M-204.9,400.7c0.3-0.2,0.7,0.2,0.8,0.6c0.1,0.4-0.1,0.8-0.6,1.1c-0.2-0.3-0.4-0.6-0.9,0
				C-205.7,401.7-205.4,401-204.9,400.7L-204.9,400.7z"/>
		</g>
		<g>
			<path d="M-205.6,402.6l0-0.1c-0.2-0.9,0.2-1.5,0.6-1.8l0,0c0.1-0.1,0.3-0.1,0.4,0c0.2,0.1,0.4,0.4,0.5,0.7
				c0.1,0.4-0.1,0.8-0.6,1.2l-0.1,0l0-0.1c-0.1-0.2-0.2-0.3-0.4-0.3c0,0,0,0,0,0C-205.2,402.2-205.3,402.3-205.6,402.6L-205.6,402.6
				z M-205.1,402.1C-205.1,402.1-205.1,402.1-205.1,402.1c0.2,0,0.3,0.2,0.4,0.3c0.4-0.3,0.6-0.7,0.5-1c-0.1-0.3-0.2-0.5-0.4-0.6
				c-0.1,0-0.2-0.1-0.3,0c-0.4,0.2-0.7,0.8-0.6,1.5C-205.3,402.2-205.2,402.1-205.1,402.1z"/>
		</g>
		<g>
			<path class="st5" d="M-209.3,405.2c2.6,0,4.4-0.8,5.8-2c0.4-0.4,0.3-0.5,0.1-0.8c-0.3-0.2-0.6-0.7-0.7-1c0.3,1.2-2.9,2.5-5.2,2.5
				c-2.4,0-5.5-1.3-5.2-2.5c-0.1,0.3-0.4,0.8-0.7,1c-0.3,0.2-0.3,0.4,0.1,0.8C-213.7,404.4-211.9,405.2-209.3,405.2L-209.3,405.2z"
				/>
		</g>
		<g>
			<path d="M-209.3,405.2c-2.3,0-4.2-0.6-5.8-2c-0.2-0.2-0.3-0.3-0.3-0.5c0-0.2,0.1-0.3,0.2-0.4c0.3-0.2,0.5-0.7,0.6-1l0.1,0
				c0,0.2,0,0.5,0.2,0.7c0.7,0.9,3.1,1.7,4.9,1.7s4.2-0.8,4.9-1.7c0.2-0.2,0.3-0.5,0.2-0.7l0.1,0c0.1,0.3,0.4,0.8,0.6,1
				c0.1,0.1,0.2,0.2,0.2,0.4c0,0.1-0.1,0.3-0.3,0.5C-205.2,404.6-207,405.2-209.3,405.2z M-214.6,401.7c-0.1,0.3-0.4,0.6-0.6,0.8
				c-0.1,0.1-0.2,0.2-0.2,0.3c0,0.1,0.1,0.2,0.3,0.4c1.7,1.4,3.5,2,5.8,2c2.3,0,4.1-0.6,5.8-2c0.2-0.2,0.3-0.3,0.3-0.4
				c0-0.1-0.1-0.2-0.2-0.3c-0.2-0.2-0.4-0.5-0.6-0.8c0,0.2-0.1,0.3-0.3,0.5c-0.8,1-3.1,1.8-5,1.8s-4.3-0.8-5-1.8
				C-214.5,402-214.6,401.8-214.6,401.7z"/>
		</g>
		<g>
			<path class="st4" d="M-214.9,404.2c0.3,0.2,0.5,0.4,0.5,0.6c0.4-0.3,0-0.6-0.2-0.6C-214.7,404.1-214.9,404.2-214.9,404.2
				L-214.9,404.2z"/>
		</g>
		<g>
			<path d="M-214.4,404.9L-214.4,404.9c-0.1-0.2-0.3-0.4-0.6-0.6l-0.1-0.1l0.1,0c0.1-0.1,0.2-0.1,0.4-0.1c0.2,0,0.4,0.2,0.4,0.3
				C-214.2,404.5-214.2,404.7-214.4,404.9L-214.4,404.9z M-214.8,404.2c0.1,0.1,0.3,0.3,0.4,0.5c0.1-0.1,0.1-0.1,0.1-0.2
				c0-0.1-0.2-0.2-0.3-0.2C-214.7,404.2-214.8,404.2-214.8,404.2z"/>
		</g>
		<g>
			<path class="st4" d="M-203.7,404.2c-0.3,0.2-0.5,0.4-0.5,0.6c-0.4-0.3,0-0.6,0.2-0.6C-203.9,404.1-203.8,404.2-203.7,404.2
				L-203.7,404.2z"/>
		</g>
		<g>
			<path d="M-204.2,404.9L-204.2,404.9c-0.3-0.2-0.3-0.4-0.2-0.5c0.1-0.2,0.2-0.3,0.4-0.3c0.1,0,0.3,0,0.4,0.1l0.1,0l-0.1,0.1
				C-203.9,404.5-204.1,404.7-204.2,404.9L-204.2,404.9z M-203.9,404.2C-204,404.2-204,404.2-203.9,404.2c-0.2,0-0.3,0.1-0.4,0.2
				c0,0.1,0,0.2,0.1,0.2c0.1-0.2,0.3-0.3,0.4-0.5C-203.8,404.2-203.9,404.2-203.9,404.2z"/>
		</g>
		<g>
			<path class="st5" d="M-214.2,404.5c0-0.2-0.2-0.3-0.4-0.3c-0.3,0-0.6,0.2-0.4,0.5c-0.1-0.4-0.4-0.9-0.6-1.2
				c-0.2-0.2-0.1-0.6,0.2-0.7c0.3-0.1,0.9,0.2,0.9,0.6C-214.5,404-214.2,404.1-214.2,404.5L-214.2,404.5z"/>
		</g>
		<g>
			<path d="M-215.1,404.7c0,0,0-0.1,0-0.1c-0.1-0.4-0.3-0.8-0.5-1.1c-0.1-0.1-0.1-0.3-0.1-0.4c0-0.2,0.2-0.3,0.3-0.4
				c0.2-0.1,0.4,0,0.6,0.1c0.2,0.1,0.3,0.3,0.3,0.5c0,0.4,0.1,0.6,0.2,0.8c0.1,0.1,0.1,0.3,0.1,0.5l-0.1,0c0-0.1-0.2-0.3-0.3-0.3
				c-0.2,0-0.3,0-0.4,0.1c0,0.1-0.1,0.1,0,0.2c0,0,0,0.1,0,0.1L-215.1,404.7z M-215.3,402.7c-0.1,0-0.1,0-0.1,0
				c-0.1,0.1-0.2,0.2-0.3,0.3c0,0.1,0,0.2,0,0.3c0.2,0.2,0.4,0.6,0.5,0.9c0,0,0,0,0,0c0.1-0.1,0.3-0.2,0.5-0.2c0.1,0,0.2,0,0.3,0.1
				c0,0,0-0.1,0-0.1c-0.1-0.2-0.2-0.4-0.2-0.8c0-0.2-0.1-0.3-0.3-0.4C-215,402.8-215.1,402.7-215.3,402.7z"/>
		</g>
		<g>
			<path class="st5" d="M-204.4,404.5c0-0.2,0.2-0.3,0.4-0.3c0.3,0,0.6,0.2,0.4,0.5c0.1-0.4,0.4-0.9,0.6-1.2
				c0.2-0.2,0.1-0.6-0.2-0.7c-0.3-0.1-0.9,0.2-0.9,0.6C-204.1,404-204.4,404.1-204.4,404.5L-204.4,404.5z"/>
		</g>
		<g>
			<path d="M-203.5,404.7l-0.1,0c0,0,0-0.1,0-0.1c0-0.1,0-0.1,0-0.2c-0.1-0.1-0.2-0.2-0.4-0.1c-0.1,0-0.3,0.1-0.3,0.3l-0.1,0
				c0-0.2,0-0.3,0.1-0.5c0.1-0.2,0.2-0.4,0.2-0.8c0-0.2,0.1-0.4,0.3-0.5c0.2-0.1,0.5-0.2,0.6-0.1c0.2,0.1,0.3,0.2,0.3,0.4
				c0,0.2,0,0.3-0.1,0.4c-0.2,0.3-0.4,0.7-0.5,1.1C-203.5,404.6-203.5,404.7-203.5,404.7z M-203.9,404.1c0.2,0,0.3,0.1,0.4,0.2
				c0,0,0,0,0,0c0.1-0.3,0.3-0.7,0.5-0.9c0.1-0.1,0.1-0.2,0-0.3c0-0.2-0.1-0.3-0.3-0.3c-0.1-0.1-0.3,0-0.5,0.1
				c-0.2,0.1-0.3,0.3-0.3,0.4c0,0.4-0.1,0.7-0.2,0.8c0,0,0,0.1,0,0.1C-204.2,404.1-204.1,404.1-203.9,404.1
				C-204,404.1-204,404.1-203.9,404.1z"/>
		</g>
		<g>
			<path class="st1" d="M-203.6,388.4v7.8c0,3-1.7,6.3-5.7,7.4c-3.9-1.1-5.7-4.4-5.7-7.4v-7.8H-203.6L-203.6,388.4z"/>
		</g>
		<g>
			<path d="M-209.3,403.6L-209.3,403.6c-4.2-1.2-5.7-4.8-5.7-7.4v-7.9h11.5v7.9C-203.6,398.9-205.1,402.4-209.3,403.6L-209.3,403.6z
				 M-214.9,388.4v7.8c0,2.6,1.5,6.1,5.6,7.3c4.1-1.2,5.6-4.7,5.6-7.3v-7.8H-214.9z"/>
		</g>
		<g>
			<path class="st6" d="M-206.4,393.5c0.1,0,0.2,0,0.3,0.1c0.1,0.1,0.3,0.1,0.3,0.2c0.1,0.1,0.2,0.2,0.2,0.4s0,0.6,0,0.7
				c0,0.1,0,0.2,0.1,0.2c0.1,0,0.3,0,0.3-0.3c0-0.2-0.2-0.3-0.2-1.1c0.1-0.1,0.1-0.1,0.1-0.3c0-0.1,0.1-0.2,0.1-0.3
				c0-0.2,0.2-0.3,0.1-0.4c-0.1-0.2,0.1-0.2,0-0.3c-0.1-0.1,0.1-0.3,0-0.4s0.1-0.2,0-0.4c-0.1-0.1,0.1-0.2,0-0.3
				c0.1-0.1,0-0.4-0.2-0.6c-0.2-0.2-0.5-0.3-0.6-0.3c-0.3-0.1-0.8-0.1-1.2,0c-0.4,0.1-1.1,0.1-1.3,0.1c-0.2,0-0.7-0.1-1.1,0
				c-0.1,0-0.3,0-0.4-0.1c-0.1-0.1-0.1-0.1-0.2-0.1c-0.1,0-0.1,0-0.1-0.1c-0.1-0.2-0.2,0-0.2-0.2c0-0.1-0.2,0-0.3-0.1
				c-0.1-0.1-0.1-0.1-0.3-0.1c0-0.1-0.1-0.1-0.2-0.1c0-0.1-0.1-0.2-0.2-0.2c0-0.1-0.2-0.2-0.3-0.2c-0.1-0.1-0.2-0.1-0.2,0
				c-0.1-0.1-0.3-0.1-0.4,0c-0.1-0.1-0.3,0.1-0.3,0.3c0,0.1,0,0.1-0.1,0.2c-0.2,0-0.3,0.3-0.5,0.3c-0.2,0-0.3,0.1-0.4,0.2
				c0,0.1,0,0.2,0,0.3c-0.1,0.1,0,0.1,0.1,0.1c0,0,0.1,0.1,0.1,0.1c0,0.1,0.1,0.1,0.3,0c0.1,0,0.1,0.1,0.3,0c0.1-0.1,0.4,0,0.3,0.1
				c0,0.1,0,0.1,0.1,0.2c0,0.1,0.1,0.3,0.1,0.4c-0.1,0.2,0.1,0.3,0,0.4c0,0.1,0,0.3,0,0.5c-0.1,0.2-0.1,0.5,0,0.5
				c0.1,0.1,0.1,0.3,0.2,0.4c0.1,0.1,0,0.2,0.2,0.3s0.1,0.2,0.3,0.2c0.2,0,0.3,0.2,0.5,0.2c0.1,0,0.2,0,0.3,0.1c0,0.1,0,0.7,0,0.8
				c0,0.1-0.1,0.3-0.1,0.4c0,0.1,0.1,0.1,0.3,0.1c0.1,0,0.2-0.1,0.2-0.2c0-0.2,0-0.6,0-0.9c0.1,0.1,0.2,0.2,0.2,0.3
				c0,0.2,0,0.5,0,0.6c0,0.1,0,0.3,0,0.4c0,0,0.2,0,0.3,0c0.1,0,0.1-0.1,0.1-0.6c0-0.2-0.2-0.5,0.1-0.6c0.1-0.1,0.3-0.2,0.4-0.3
				c0.1-0.1,0.2-0.1,0.3,0c0.1,0.1,0.3,0.2,0.4,0.1c0.1-0.1,0.3,0.1,0.4,0c0.1-0.1,0.3,0.1,0.4,0c0.1-0.1,0.3,0,0.3-0.1
				c0.1-0.1,0.4,0.1,0.5-0.1c0.1-0.1,0.3,0,0.4-0.1c0,0,0.1,0,0.1,0c0,0.2,0,0.5,0,0.6c0,0.1-0.1,0.3-0.1,0.4c0,0.1,0.1,0.1,0.3,0.1
				c0.1,0,0.2-0.1,0.2-0.2C-206.5,394.2-206.4,393.8-206.4,393.5L-206.4,393.5z"/>
		</g>
		<g>
			<path d="M-210.3,395.3c-0.1,0-0.1,0-0.2,0c0,0,0,0,0-0.1c0,0,0-0.1,0-0.1c0-0.1,0-0.2,0-0.3c0-0.1,0-0.3,0-0.4c0-0.1,0-0.1,0-0.2
				c0,0,0-0.1-0.1-0.2c0,0.3,0,0.6,0,0.8c0,0.1,0,0.2,0,0.3c0,0-0.1,0.1-0.2,0.1s-0.3,0-0.3-0.1c0-0.1,0-0.2,0-0.2
				c0-0.1,0-0.1,0-0.2l0-0.1c0-0.2,0-0.5,0-0.7c-0.1,0-0.1-0.1-0.2,0c-0.1,0-0.2,0-0.3-0.1c-0.1,0-0.1-0.1-0.2-0.1
				c-0.1,0-0.2-0.1-0.2-0.1c0,0,0-0.1-0.1-0.1c-0.1,0-0.2-0.1-0.2-0.2c0,0,0-0.1,0-0.1c-0.1-0.1-0.1-0.1-0.1-0.2
				c0-0.1,0-0.1-0.1-0.2c-0.1-0.1-0.1-0.4-0.1-0.6c0-0.1,0-0.2,0-0.3c0-0.1,0-0.1,0-0.2c0-0.1,0-0.1,0-0.1c0-0.1,0-0.2,0-0.3
				c0-0.1,0-0.3-0.1-0.3c-0.1-0.1-0.1-0.2-0.1-0.3c0,0,0,0,0,0c0,0-0.1,0-0.2,0c-0.1,0.1-0.2,0-0.3,0c0,0,0,0,0,0
				c-0.1,0.1-0.2,0.1-0.3,0.1c-0.1,0-0.1-0.1-0.1-0.1c0,0,0-0.1-0.1-0.1c0,0,0,0,0,0c0,0-0.1-0.1-0.1-0.1c0,0,0-0.1,0-0.1
				c0,0,0,0,0-0.1c0,0,0-0.1,0-0.2c0-0.1,0.2-0.2,0.4-0.2c0.1,0,0.1-0.1,0.2-0.1c0.1-0.1,0.2-0.2,0.3-0.2c0,0,0,0,0-0.1
				c0-0.2,0.1-0.3,0.2-0.4c0,0,0.1,0,0.1,0c0.1-0.1,0.1-0.1,0.2-0.1c0.1,0,0.1,0,0.2,0c0,0,0.1,0,0.1,0c0.1,0,0.1,0,0.2,0.1
				c0.1,0,0.2,0,0.2,0c0.1,0,0.1,0.1,0.1,0.1c0.1,0,0.1,0,0.2,0.1c0,0,0,0.1,0.1,0.1c0,0,0.1,0,0.1,0c0,0,0,0,0.1,0.1
				c0.1,0,0.2,0,0.3,0.1c0,0,0,0,0.1,0c0.1,0,0.2,0,0.2,0.1c0,0.1,0,0.1,0.1,0.1c0,0,0.1,0,0.1,0.1c0,0.1,0,0.1,0.1,0.1
				c0.1,0,0.1,0,0.2,0.1c0.1,0.1,0.2,0.1,0.3,0.1c0.4-0.1,0.9,0,1.2,0c0.2,0,0.9,0,1.3-0.1c0.5-0.1,1-0.1,1.3,0l0.1,0
				c0.2,0.1,0.4,0.2,0.6,0.3c0.2,0.2,0.3,0.5,0.2,0.7c0,0.1,0,0.1,0,0.2c0,0.1,0,0.1,0,0.1c0.1,0.1,0,0.2,0,0.3c0,0.1,0,0.1,0,0.1
				c0.1,0.1,0,0.2,0,0.2c0,0.1,0,0.1,0,0.1c0,0.1,0,0.2,0,0.2c0,0,0,0.1,0,0.1c0.1,0.1,0,0.2,0,0.3c0,0.1-0.1,0.1,0,0.1
				c0,0.1,0,0.2-0.1,0.2c0,0,0,0.1,0,0.1c0,0.1,0,0.2-0.1,0.3c0,0.4,0.1,0.7,0.2,0.8c0,0.1,0.1,0.2,0.1,0.3c0,0.4-0.3,0.4-0.4,0.4
				c-0.2,0-0.2-0.1-0.2-0.2c0,0,0-0.2,0-0.3c0-0.1,0-0.3,0-0.3c0-0.1-0.1-0.2-0.1-0.3l0,0c0,0-0.1-0.1-0.1-0.1c-0.1,0-0.1,0-0.2-0.1
				c0,0-0.1,0-0.1,0c0,0.1,0,0.2,0,0.2c0,0.2,0,0.5,0,0.6c0,0.1,0,0.2,0,0.3c0,0-0.1,0.1-0.2,0.1s-0.3,0-0.3-0.1c0-0.1,0-0.2,0-0.2
				c0-0.1,0-0.1,0-0.2c0,0,0-0.1,0-0.1c0-0.1,0-0.3,0-0.4c-0.1,0-0.1,0-0.2,0c-0.1,0-0.1,0-0.1,0c-0.1,0.1-0.2,0.1-0.3,0.1
				c0,0-0.1,0-0.2,0c-0.1,0.1-0.3,0-0.4,0.1c-0.1,0.1-0.2,0.1-0.2,0c-0.1,0-0.1,0-0.1,0c-0.1,0.1-0.2,0-0.3,0c-0.1,0-0.1,0-0.2,0
				c-0.1,0-0.3,0-0.4-0.1c-0.1,0-0.2-0.1-0.2,0c-0.1,0.1-0.3,0.3-0.4,0.3c-0.1,0.1-0.1,0.1-0.1,0.3c0,0.1,0,0.2,0,0.2
				c0,0.5,0,0.6-0.1,0.7C-210.1,395.3-210.2,395.3-210.3,395.3z M-210.4,395.2c0.1,0,0.2,0,0.3,0c0.1,0,0.1-0.1,0-0.6
				c0-0.1,0-0.1,0-0.2c0-0.2-0.1-0.3,0.1-0.4c0.1-0.1,0.3-0.2,0.4-0.3c0.1-0.1,0.2-0.1,0.4,0c0.1,0,0.3,0.1,0.3,0.1
				c0.1,0,0.2,0,0.2,0c0.1,0,0.1,0,0.2,0c0.1-0.1,0.2,0,0.2,0c0.1,0,0.1,0,0.1,0c0.1-0.1,0.2-0.1,0.2-0.1c0.1,0,0.1,0,0.1,0
				c0.1-0.1,0.2-0.1,0.3,0c0.1,0,0.2,0,0.2,0c0.1-0.1,0.2-0.1,0.3-0.1c0.1,0,0.1,0,0.1,0c0,0,0.1,0,0.1,0l0.1,0l0,0.1
				c0,0.2,0,0.4,0,0.5c0,0.1,0,0.1,0,0.1c0,0.1,0,0.1,0,0.2c0,0.1,0,0.2,0,0.2l0,0c0,0,0,0,0.2,0c0,0,0.1,0,0.1,0c0,0,0-0.1,0-0.1
				c0-0.1,0-0.4,0-0.6c0-0.1,0-0.2,0-0.3l0,0l0,0c0.1,0,0.2,0,0.3,0.1c0,0,0.1,0.1,0.1,0.1c0.1,0,0.1,0,0.2,0.1l0,0
				c0.1,0.1,0.2,0.2,0.2,0.4c0,0.1,0,0.2,0,0.3c0,0.1,0,0.3,0,0.3c0,0.1,0,0.1,0,0.1c0,0,0,0,0.1,0c0.2,0,0.3,0,0.3-0.3
				c0-0.1,0-0.1-0.1-0.2c-0.1-0.2-0.1-0.4-0.2-0.9l0,0l0,0c0.1-0.1,0.1-0.1,0.1-0.2c0-0.1,0-0.1,0.1-0.2c0,0,0.1-0.1,0.1-0.1
				c0-0.1,0-0.2,0.1-0.2c0-0.1,0.1-0.1,0-0.2c-0.1-0.1,0-0.2,0-0.2c0,0,0,0,0-0.1c0-0.1,0-0.2,0-0.3c0-0.1,0-0.1,0-0.1
				c-0.1-0.1,0-0.2,0-0.2c0-0.1,0-0.1,0-0.2c-0.1-0.1,0-0.2,0-0.2c0-0.1,0-0.1,0-0.1l0,0l0,0c0-0.1,0-0.4-0.2-0.5
				c-0.2-0.1-0.4-0.2-0.5-0.3l-0.1,0c-0.3-0.1-0.9,0-1.2,0c-0.4,0.1-1.1,0.1-1.3,0.1c-0.2,0-0.7-0.1-1.1,0c-0.2,0-0.3,0-0.4-0.1
				c0,0-0.1,0-0.1,0c0,0,0,0,0,0c-0.1,0-0.2-0.1-0.2-0.1c0,0,0-0.1-0.1-0.1c-0.1,0-0.1,0-0.2-0.2c0,0,0,0-0.1,0
				c-0.1,0-0.2,0-0.2-0.1c0-0.1-0.1-0.1-0.2-0.1l-0.1,0l0-0.1c0,0,0,0,0,0c0,0-0.1,0-0.1,0l-0.1,0l0-0.1c0,0,0-0.1,0-0.1
				c0,0-0.1-0.1-0.1,0l-0.1,0l0-0.1c0,0,0-0.1-0.1-0.1c-0.1,0-0.1,0-0.1,0l-0.1,0l0-0.1c0,0-0.1,0-0.1,0c0,0,0,0-0.1,0l0,0.1
				l-0.1-0.1c0,0-0.1,0-0.1,0c-0.1,0-0.1,0-0.1,0.1l0,0.1l-0.1,0c0,0,0,0-0.1,0c-0.1,0-0.1,0.1-0.1,0.3c0,0.1,0,0.2-0.1,0.2
				c-0.1,0-0.1,0.1-0.2,0.2c-0.1,0.1-0.1,0.1-0.2,0.2c-0.2,0-0.3,0.1-0.3,0.2c0,0,0,0.1,0,0.1c0,0.1,0,0.1,0,0.2c0,0,0,0,0,0
				c0,0,0,0,0,0c0,0,0.1,0.1,0.1,0.2c0,0,0,0,0,0c0,0,0.1,0,0.1,0c0,0,0.1,0,0.1,0c0,0,0.1,0,0.2,0c0.1-0.1,0.3-0.1,0.4,0
				c0.1,0,0.1,0.1,0.1,0.2c0,0,0,0.1,0.1,0.1c0.1,0.1,0.1,0.3,0.1,0.4c0,0.1,0,0.1,0,0.2c0,0.1,0,0.1,0,0.2c0,0.1,0,0.1,0,0.2
				c0,0.1,0,0.2,0,0.3c-0.1,0.2,0,0.4,0,0.5c0.1,0.1,0.1,0.2,0.1,0.2c0,0.1,0,0.1,0.1,0.1c0.1,0,0.1,0.1,0.1,0.2
				c0,0.1,0,0.1,0.1,0.1c0.1,0,0.1,0.1,0.2,0.2c0,0,0,0.1,0.1,0.1c0.1,0,0.2,0.1,0.2,0.1c0.1,0,0.1,0.1,0.2,0.1c0.2,0,0.2,0,0.3,0.1
				l0,0l0,0c0,0.1,0,0.4,0,0.7l0,0.1c0,0.1,0,0.1,0,0.2c0,0.1,0,0.2,0,0.2l0,0c0,0,0,0,0.2,0c0,0,0.1,0,0.1,0c0,0,0-0.1,0-0.1
				c0-0.2,0-0.7,0-0.9l0-0.1l0.1,0.1c0.2,0.1,0.3,0.2,0.3,0.3c0,0.1,0,0.1,0,0.2c0,0.2,0,0.3,0,0.4
				C-210.4,394.9-210.4,395-210.4,395.2C-210.4,395.1-210.4,395.2-210.4,395.2z"/>
		</g>
		<g>
			<path class="st3" d="M-213.5,390.3c0.1,0,0-0.2,0-0.3c0-0.1,0.2-0.2,0.3-0.2c0.2,0,0.3-0.3,0.4-0.3c0.1,0,0.1-0.1,0.1-0.2
				c0-0.2,0.2-0.4,0.3-0.3c0.1-0.1,0.3-0.1,0.4,0c0-0.1,0.2-0.1,0.2,0c0.1-0.1,0.3,0,0.3,0.1c0.1,0,0.2,0.1,0.2,0.2
				c0.1,0,0.2,0,0.2,0.1c0,0.1,0.2,0.1,0.1,0.2c-0.1,0.1-0.2,0-0.2,0c-0.1-0.1-0.4,0-0.4,0c0,0-0.1,0.1-0.1,0c0,0-0.1-0.1-0.2-0.1
				c0,0-0.1,0-0.2-0.1c0-0.1-0.2-0.1-0.2-0.1c0,0,0,0.2,0.1,0.2c0.1,0,0,0.1,0.1,0.2c0.1,0,0,0.2,0,0.2c0,0.1-0.1,0-0.2,0
				c0-0.1,0-0.1-0.1,0c-0.1,0.1-0.2,0.1-0.3,0c0,0-0.1-0.1-0.2,0c-0.1,0,0,0.1,0,0.1c0,0-0.1,0-0.2,0c-0.1,0-0.1,0,0,0.1
				s0.2,0,0.3,0c0.1,0,0.2,0,0.3,0.1s-0.1,0.1-0.2,0.1c-0.1,0-0.3,0.1-0.3,0.1c-0.1,0-0.3,0-0.4,0
				C-213.4,390.4-213.5,390.3-213.5,390.3L-213.5,390.3z"/>
		</g>
		<g>
			<path class="st3" d="M-212,390.7c-0.1,0,0,0.1-0.1,0.2c-0.1,0-0.1,0.1,0,0.2c0.1,0,0.2,0.1,0.3,0c0.1,0,0.1,0,0.1,0.1
				c-0.1,0,0.1,0.1,0.1,0.1c0,0.1,0.1,0.1,0.1,0.1c0.1,0,0.2-0.1,0.2-0.1c0.1,0,0.1,0,0.1,0.1c-0.1,0.1-0.3,0.2-0.5,0.2
				s-0.3,0-0.3,0.1c0,0.1,0.3,0.1,0.4,0c0.1,0,0.1,0,0,0.1c-0.1,0-0.2,0.1-0.3,0c-0.1,0-0.2,0.1-0.1,0.2c0.1,0.1,0.3,0,0.4,0.1
				c0.1,0,0.3,0,0.3,0.1c0,0.1-0.1,0.1-0.2,0.1c-0.1,0-0.1,0.1,0,0.1c0.1,0,0.2,0,0.3,0c0.1,0,0.1,0.1,0,0.1c-0.1,0-0.3,0.1-0.4,0.1
				s-0.1,0.1,0.1,0.1c0.5,0,0.6-0.3,0.7-0.4c0.1-0.1,0.2-0.1,0.2-0.1c0,0.1,0,0.1,0,0.1c-0.1,0,0,0.1,0.1,0.1c0.1,0,0.2,0,0.3-0.1
				s0.3,0.1,0.1,0.1c-0.4,0-0.8,0.2-0.9,0.2c-0.1,0.1-0.4,0.2-0.5,0.2c-0.1,0-0.2,0-0.1,0.1c0,0.1,0.2,0.1,0.3,0c0.1,0,0.1,0,0,0.1
				c-0.1,0.1-0.2,0.1-0.3,0.1c-0.1,0-0.1,0.1-0.1,0.1c0.1,0.1,0,0.1,0.1,0.1c0.1,0,0,0.1,0.1,0.1c0.1,0,0.2,0,0.2,0
				c0.1-0.1,0.1-0.1,0.2-0.1c0.1,0,0.1,0,0.2-0.1c0-0.1,0.2-0.2,0.3-0.1c0.1,0.1,0.2,0,0.2,0c0,0.1,0.1,0,0.1,0.1
				c0,0.1,0.1,0.1,0.2,0.1c0.1,0,0.1-0.1,0.1-0.2c0-0.1,0-0.2,0.1,0c0,0.1,0.1,0.2,0.2,0.1s0.1-0.3,0-0.3c0-0.1,0-0.2,0-0.2
				c0,0,0.1,0.2,0.2,0.3c0,0.1,0.1,0.1,0.1,0c0-0.1,0.1-0.1,0.1-0.1c0.1,0.1,0,0.3,0,0.4c0,0.1,0.2,0,0.2,0c0,0,0.1,0,0.1,0
				c0-0.1,0.1-0.1,0.1-0.1c0,0,0.1,0.1,0.1,0.2c0,0.1,0.1,0.1,0.1,0c0-0.1,0.1-0.3,0.1-0.4c0-0.1,0-0.2,0.1-0.1c0,0.1,0,0.2,0,0.4
				c0,0.1,0.1,0.1,0.1-0.1c0-0.1,0-0.1,0.1-0.1c0,0.1,0,0.1,0,0.2c0,0.1,0.1,0,0.2,0c0-0.1,0-0.3,0-0.4c0-0.1,0-0.2,0.1-0.1
				c0,0.1,0.1,0.2,0.1,0.4c0,0.2,0.1,0.2,0.1,0.1c0,0,0-0.2,0-0.3c0-0.1,0-0.1,0.1,0c0,0.1,0.1,0,0.1,0c0,0,0-0.1,0.1,0
				c0,0.1,0,0.2,0,0.3c0,0.1,0.1,0.1,0.2,0c0.1-0.1,0-0.4,0-0.5c-0.1-0.1,0-0.2,0-0.3c0-0.1,0.1-0.1,0.1-0.1c0,0,0,0.1,0.1,0.2
				c0,0.1,0.1,0.1,0.1,0c0-0.1,0.1-0.1,0.1,0c0,0.1,0,0.1,0.1,0.1c0-0.1,0.1,0,0.1,0.1s0,0.2,0,0.3c0,0.1,0.1,0.1,0.1,0
				c0-0.2,0-0.1,0.1,0s0.1,0.1,0.1,0c0-0.1,0-0.1,0,0c0,0.1,0,0.1,0.1,0.1c0.1,0,0-0.1,0.1-0.2c0-0.1,0.1,0,0.1,0.2
				c0.1,0.2,0.1,0,0.3,0.4c0.1,0.1,0.2,0,0.1,0c0-0.1,0-0.1,0.1-0.1c0.1,0,0.1,0,0.1-0.1c0-0.1,0-0.2,0-0.3c0-0.1,0-0.2,0-0.1
				c0,0.1,0.1,0.2,0.1,0.2c0.1,0,0.1-0.1,0.1-0.2c-0.1-0.1-0.1-0.3-0.1-0.4c0-0.1,0.1-0.1,0.1,0c0,0.1,0,0.2,0.1,0.3
				s0.1-0.1,0.1-0.2c0-0.1,0-0.2,0-0.2c0.1,0,0-0.1-0.1-0.2c-0.1-0.1-0.1-0.1,0-0.1c0.1,0,0-0.1,0-0.1s-0.1-0.1,0-0.1
				c0.1,0,0.1-0.1,0-0.1c-0.1,0-0.1-0.1,0-0.1c0.1,0,0.1,0,0.1-0.1c0-0.2-0.3-0.3-0.4-0.5c-0.1-0.1-0.4-0.3-0.5-0.3
				c-0.1,0-0.1,0.1-0.1,0.1c0,0.1,0.1,0.1,0.1,0c0-0.1,0.1,0,0.1,0.1c0,0.1,0.2,0.2,0.3,0.2c0.1,0.1-0.1,0-0.2-0.1
				c-0.1-0.1-0.1,0,0,0.1c0.1,0.1,0,0.1-0.1,0c-0.1-0.1-0.3-0.3-0.4-0.4s-0.2-0.1-0.2,0c0,0.1,0,0.1,0.1,0.2
				c0.1,0.1,0.2,0.2,0.3,0.3c0.1,0.1,0,0.1,0,0.1c-0.1-0.1-0.2-0.2-0.3-0.3c-0.1-0.1-0.2-0.1-0.3-0.1c-0.1,0-0.1,0.1,0,0.2
				c0.1,0.1,0.2,0.2,0.2,0.3c0,0.1-0.1,0.1-0.1,0c0-0.2-0.2-0.3-0.3-0.5c-0.1-0.1-0.2-0.2-0.3-0.2c-0.1,0-0.1,0.1-0.1,0.2
				c0,0.1-0.1,0-0.1,0c0-0.1-0.1-0.1-0.1-0.1c0,0,0,0.1,0,0.2c0,0.1-0.1,0.1-0.1,0c0-0.1-0.1-0.2-0.2-0.2c-0.1,0-0.1,0-0.1,0.1
				c0,0.1,0,0.2,0,0.3c0,0.1-0.1-0.1-0.1-0.2c0-0.2-0.2-0.3-0.4-0.2c-0.1,0,0,0.2-0.1,0.3c0,0.1-0.1,0-0.1-0.1
				c0-0.1-0.1-0.2-0.2-0.1c-0.1,0-0.2,0.1-0.2,0.1c0,0.1,0,0.1,0,0.2c0,0.1-0.1,0.1-0.1,0c0-0.1,0-0.2,0-0.3c0-0.1-0.1,0,0,0.1
				c0,0.1,0,0.3,0,0.4c0,0.1-0.1,0.1-0.1,0c0-0.2,0-0.4-0.1-0.5c0-0.1-0.2-0.1-0.2,0c0,0.1,0,0.2,0.1,0.3c0.1,0.1,0,0.3-0.1,0.4
				c-0.1,0.1-0.1,0,0-0.2s-0.1-0.2-0.2-0.2c-0.1,0,0.1-0.1,0.1-0.3c0-0.1,0-0.1-0.1-0.1c-0.1,0-0.2,0.1-0.3,0.3c0-0.1,0-0.2-0.1-0.2
				c-0.1,0-0.1,0.1-0.1,0.2c0,0.1-0.1,0,0,0c0-0.1,0.1-0.3,0-0.4c-0.1,0-0.1,0.1-0.2,0.1c0,0,0-0.1,0-0.2c0-0.1,0-0.1-0.1,0
				c-0.1,0.1-0.2,0.3-0.2,0.4c0,0.1-0.2,0.3-0.4,0.4c-0.1,0.1-0.2,0.1-0.1,0c0.1,0,0.2-0.2,0.2-0.2s0-0.1-0.1,0
				c-0.1,0.1-0.3,0.2-0.5,0.3c-0.1,0-0.1,0,0,0c0.1,0,0.4-0.2,0.5-0.3c0-0.1-0.1,0-0.1,0c-0.1,0-0.1,0,0,0c0.1,0,0.4-0.4,0.5-0.5
				c0.1-0.1,0-0.2,0-0.2c0,0-0.1,0-0.1,0c0-0.1,0-0.1-0.1-0.1c-0.1,0-0.1,0.1-0.1,0.2c0,0.1-0.1,0.2-0.2,0.2c-0.1,0-0.2,0-0.3,0.1
				c-0.1,0.1-0.1,0-0.1,0c0-0.1,0.1-0.1,0.2-0.1c0.1,0,0.2,0,0.3-0.1c0.1-0.1,0.1-0.1,0-0.2c-0.1,0-0.2-0.1-0.2-0.1
				c-0.2-0.2-0.4,0.1-0.6,0.2c-0.1,0.1-0.3,0.3-0.3,0.3c-0.1,0.1,0,0.1,0.1,0c0.1-0.1,0.1,0,0,0c-0.1,0.1-0.2,0.2-0.1,0.2
				c0,0,0.2,0,0.2-0.1c0.1,0,0.1,0.1-0.1,0.1C-212.1,390.5-212.1,390.6-212,390.7c0.1-0.1,0.2-0.1,0.3-0.2c0.1-0.1,0.2,0,0.1,0
				C-211.7,390.6-211.9,390.7-212,390.7L-212,390.7z"/>
		</g>
		<g>
			<path class="st6" d="M-211.6,389.8c0.1-0.1,0.2-0.2,0.3-0.1c0.1,0.1,0.1,0.1,0,0.1C-211.4,389.8-211.5,389.8-211.6,389.8
				C-211.6,390-211.7,390-211.6,389.8L-211.6,389.8z"/>
		</g>
		<g>
			<path class="st6" d="M-213.3,390.2c0.1-0.1,0.2-0.1,0.3-0.2c0.1-0.1,0.1-0.1,0,0C-213.1,390.1-213.2,390.1-213.3,390.2
				C-213.3,390.2-213.3,390.2-213.3,390.2L-213.3,390.2z"/>
		</g>
		<g>
			<path class="st6" d="M-212.8,389.8c0,0,0.1-0.1,0.2-0.1c0.1-0.1,0.2-0.1,0.3,0c0.1,0.1,0.1,0.1,0.2,0.1c0,0,0,0.1,0,0.1
				c-0.1,0-0.1,0-0.2,0c0,0-0.1,0-0.2,0c-0.1,0-0.1,0,0,0c0,0,0.1-0.1,0.1-0.1c0,0,0.1,0,0.1,0c0,0,0,0.1,0,0.1c0,0,0.1,0,0.2,0
				c-0.1-0.1-0.1-0.1-0.2-0.2c0,0-0.1,0-0.1,0C-212.6,389.7-212.7,389.9-212.8,389.8C-212.9,389.9-212.9,389.8-212.8,389.8
				L-212.8,389.8z"/>
		</g>
		<g>
			<path class="st6" d="M-210,390.6c0,0.1-0.1,0.1-0.1,0.2s0,0.1,0.1,0C-210.1,390.8-210.1,390.7-210,390.6
				C-209.9,390.6-210,390.6-210,390.6L-210,390.6z"/>
		</g>
		<g>
			<path class="st6" d="M-210.6,390.6c0,0,0.1-0.1,0.2-0.1c0,0,0.1,0,0,0C-210.4,390.6-210.5,390.7-210.6,390.6
				C-210.6,390.7-210.6,390.7-210.6,390.6L-210.6,390.6z"/>
		</g>
		<g>
			<path class="st6" d="M-210.5,390.9c-0.1,0.1-0.3,0.3-0.4,0.3c-0.1,0,0,0.1,0,0.1c-0.1,0.1-0.2,0.1-0.3,0.2c-0.1,0-0.1,0.1,0,0.1
				c0.1,0,0.3-0.2,0.4-0.2c0-0.1,0-0.1,0.1-0.1C-210.6,391.1-210.5,391-210.5,390.9C-210.4,390.9-210.5,390.8-210.5,390.9
				L-210.5,390.9z"/>
		</g>
		<g>
			<path class="st6" d="M-210.8,391.6c0.1-0.1,0.3-0.2,0.3-0.3c0-0.1,0.1-0.1,0,0C-210.5,391.4-210.6,391.6-210.8,391.6
				C-210.8,391.7-210.9,391.7-210.8,391.6L-210.8,391.6z"/>
		</g>
		<g>
			<path class="st6" d="M-208.8,390.6c0,0.1,0,0.2,0,0.3c0,0.1,0.1,0.1,0.1,0C-208.8,390.8-208.8,390.7-208.8,390.6
				C-208.7,390.6-208.7,390.5-208.8,390.6L-208.8,390.6z"/>
		</g>
		<g>
			<path class="st6" d="M-208.3,390.8c0,0,0.1,0.3,0.1,0.4c0,0.1,0.1,0.1,0.1,0C-208.1,391-208.1,390.9-208.3,390.8
				C-208.2,390.7-208.3,390.8-208.3,390.8L-208.3,390.8z"/>
		</g>
		<g>
			<path class="st6" d="M-207.8,391c0,0.1,0.1,0.2,0.1,0.2s0.1,0,0.1,0C-207.7,391.1-207.7,391-207.8,391
				C-207.7,390.9-207.8,390.9-207.8,391L-207.8,391z"/>
		</g>
		<g>
			<path class="st6" d="M-207.5,390.9c0-0.1-0.1-0.1-0.1-0.1C-207.6,390.8-207.6,390.9-207.5,390.9
				C-207.5,391-207.5,391-207.5,390.9L-207.5,390.9z"/>
		</g>
		<g>
			<path class="st6" d="M-209.3,391.4c0,0.2-0.1,0.3-0.2,0.4c-0.1,0.1-0.1,0.1,0,0.1C-209.4,391.8-209.3,391.6-209.3,391.4
				C-209.2,391.3-209.3,391.3-209.3,391.4L-209.3,391.4z"/>
		</g>
		<g>
			<path class="st6" d="M-209.5,391.3c-0.1,0.1-0.1,0.2-0.1,0.3c0,0.1,0,0,0,0c0-0.1,0-0.1,0.1-0.2S-209.5,391.3-209.5,391.3
				L-209.5,391.3z"/>
		</g>
		<g>
			<path class="st6" d="M-205.8,391.4c0,0.1,0.1,0.2,0.1,0.3c0,0.1,0,0.1,0,0C-205.7,391.7-205.8,391.5-205.8,391.4
				C-205.8,391.4-205.8,391.3-205.8,391.4L-205.8,391.4z"/>
		</g>
		<g>
			<path class="st7" d="M-205.3,395.4c0.3,0,0.8-0.1,1-0.3c-0.1-0.1-0.3-0.1-0.5-0.1c0.1-0.1,0.1-0.2,0.2-0.3c-0.1,0-0.2,0-0.3,0
				c0-0.1,0-0.2,0-0.2c-0.1,0-0.2,0.1-0.3,0.2c0-0.1,0-0.2,0-0.3c-0.1,0.1-0.2,0.2-0.3,0.3c0-0.1,0-0.2,0-0.2
				c-0.1,0.1-0.2,0.1-0.2,0.2c0-0.1-0.1-0.2-0.1-0.3c-0.1,0.2-0.2,0.5-0.2,0.7c0-0.1,0-0.2,0-0.2c0.1-0.2,0.1-0.3,0.1-0.4
				c-0.1,0-0.1,0.1-0.2,0.1c0-0.1-0.1-0.2-0.1-0.3c-0.1,0.1-0.1,0.3-0.1,0.4c0-0.1,0-0.3-0.1-0.4c-0.1,0.2-0.2,0.4-0.3,0.6
				c0-0.2,0-0.4,0-0.5c-0.1,0.1-0.2,0.2-0.3,0.4c0-0.1-0.1-0.2-0.1-0.3c-0.1,0.2-0.1,0.4-0.1,0.6c0-0.2-0.1-0.4-0.1-0.6
				c-0.1,0.2-0.2,0.5-0.2,0.7c0-0.1-0.1-0.1-0.1-0.2c0-0.2,0.1-0.3,0-0.5c-0.1,0-0.1,0.1-0.2,0.2c-0.1-0.1-0.1-0.2-0.2-0.3
				c0,0.1,0,0.3,0,0.5c0,0,0,0.1-0.1,0.1c0-0.2-0.1-0.4-0.2-0.6c-0.1,0.2-0.1,0.4-0.2,0.6c0-0.2,0-0.4-0.1-0.5
				c-0.1,0.1-0.1,0.2-0.2,0.3c0-0.2,0-0.3,0-0.5c-0.1,0.1-0.1,0.2-0.2,0.3c0-0.1,0-0.2,0-0.3c-0.1,0.1-0.2,0.2-0.3,0.4
				c0-0.1-0.1-0.2-0.1-0.3c-0.1,0.1-0.1,0.3-0.2,0.4c0-0.1,0-0.1,0-0.2c-0.1,0.1-0.2,0.2-0.3,0.3c0-0.1,0-0.3-0.1-0.4
				c-0.1,0.1-0.2,0.3-0.3,0.5c0-0.2,0-0.3-0.1-0.4c-0.1,0.1-0.2,0.3-0.3,0.5c0-0.1-0.1-0.3-0.1-0.4c-0.1,0.1-0.2,0.3-0.2,0.5
				c0-0.2,0-0.4,0-0.5c-0.1,0-0.1,0.1-0.2,0.1c0-0.1-0.1-0.1-0.1-0.2c-0.1,0.1-0.1,0.2-0.1,0.4c0-0.2,0-0.3-0.1-0.4
				c-0.1,0.1-0.2,0.2-0.2,0.4c0-0.2-0.1-0.4-0.2-0.5c-0.1,0.1-0.1,0.2-0.1,0.4c0-0.2-0.1-0.4-0.2-0.5c-0.1,0.1-0.1,0.2-0.1,0.4
				c-0.1-0.2-0.2-0.3-0.3-0.4c0,0.2-0.1,0.3,0,0.5c-0.1-0.2-0.3-0.4-0.5-0.5c0,0.1,0,0.2,0,0.4c-0.1-0.1-0.2-0.1-0.3-0.1
				c0.1,0.3,0.3,0.7,0.6,0.8C-211.6,395.9-205.8,396.1-205.3,395.4L-205.3,395.4z"/>
		</g>
		<g>
			<path d="M-208.2,395.9c-1.8,0-3.9-0.2-4.5-0.4c-0.3-0.1-0.6-0.5-0.6-0.9l0-0.1l0.1,0c0.1,0,0.1,0,0.2,0.1c0-0.1,0-0.2,0-0.3
				l0-0.1l0.1,0c0.1,0.1,0.2,0.2,0.3,0.3c0-0.1,0-0.2,0-0.3l0-0.1l0.1,0.1c0.1,0.1,0.1,0.2,0.2,0.3c0-0.1,0.1-0.2,0.1-0.2l0-0.1
				l0.1,0.1c0.1,0.1,0.1,0.2,0.1,0.3c0-0.1,0-0.1,0.1-0.2l0-0.1l0.1,0.1c0.1,0.1,0.1,0.2,0.1,0.3c0-0.1,0.1-0.2,0.1-0.2l0.1-0.1
				l0,0.1c0,0,0,0.1,0.1,0.2c0,0,0-0.1,0-0.1l0-0.1l0.1,0.1c0,0,0.1,0.1,0.1,0.1c0,0,0.1-0.1,0.1-0.1l0.1-0.1l0,0.1c0,0,0,0.1,0,0.1
				c0,0,0-0.1,0.1-0.1l0.1-0.1l0.1,0.1c0,0.1,0.1,0.1,0.1,0.2c0.1-0.1,0.1-0.3,0.2-0.4l0.1-0.1l0,0.1c0,0.1,0,0.1,0.1,0.2
				c0.1-0.1,0.1-0.2,0.2-0.3l0.1-0.1l0,0.1c0,0.1,0,0.2,0.1,0.3c0.1-0.1,0.1-0.1,0.2-0.2l0.1-0.1c0,0,0-0.1,0.1-0.1l0.1-0.1l0.1,0.1
				c0,0.1,0.1,0.1,0.1,0.2c0.1-0.1,0.1-0.2,0.2-0.3l0.1-0.1l0,0.1c0,0,0,0.1,0,0.1c0,0,0.1-0.1,0.1-0.1l0.1-0.1l0,0.1
				c0,0.1,0,0.1,0,0.2c0,0,0,0,0-0.1l0.1-0.1l0,0.1c0,0.1,0,0.1,0.1,0.2c0-0.1,0.1-0.2,0.1-0.3l0.1-0.1l0.1,0.1
				c0,0.1,0.1,0.1,0.1,0.2c0-0.1,0-0.1,0-0.2l0-0.1l0.1,0.1c0.1,0.1,0.1,0.1,0.2,0.2c0.1,0,0.1-0.1,0.2-0.1l0.1-0.1l0,0.1
				c0,0.1,0,0.1,0,0.2c0-0.1,0.1-0.2,0.1-0.3l0.1-0.1l0.1,0.1c0,0.1,0.1,0.1,0.1,0.2c0-0.1,0-0.1,0.1-0.2l0-0.1l0.1,0.1
				c0,0.1,0.1,0.1,0.1,0.2c0.1-0.1,0.1-0.2,0.2-0.3l0.1-0.1l0,0.1c0,0,0,0.1,0,0.1c0-0.1,0.1-0.2,0.2-0.2l0.1-0.1l0,0.1
				c0,0,0,0.1,0,0.1c0-0.1,0-0.1,0.1-0.1l0-0.1l0.1,0.1c0,0.1,0.1,0.1,0.1,0.2c0,0,0.1-0.1,0.1-0.1l0.1-0.1l0,0.1c0,0,0,0,0,0
				l0.1-0.1l0,0.1c0,0.1,0.1,0.1,0.1,0.2c0-0.1,0.1-0.1,0.2-0.1l0.1-0.1l0,0.1c0,0,0,0.1,0,0.1c0.1-0.1,0.1-0.1,0.2-0.2l0.1,0l0,0.1
				c0,0,0,0.1,0,0.1c0.1,0,0.1-0.1,0.2-0.1l0.1,0l0,0.1c0,0,0,0.1,0,0.2c0.1,0,0.2,0,0.2,0l0.1,0l0,0.1c0,0.1-0.1,0.1-0.1,0.2
				c0.1,0,0.3,0,0.4,0.1l0.1,0l-0.1,0.1c-0.2,0.2-0.6,0.4-1,0.4c0,0,0,0,0,0C-205.5,395.8-206.8,395.9-208.2,395.9z M-213.1,394.7
				c0.1,0.3,0.3,0.6,0.5,0.7c1,0.5,6.8,0.6,7.3,0l0,0l0,0c0,0,0,0,0,0c0.3,0,0.6-0.1,0.8-0.3c-0.1,0-0.2,0-0.3,0l-0.2,0l0.1-0.1
				c0,0,0.1-0.1,0.1-0.2c-0.1,0-0.1,0-0.2,0l-0.1,0l0-0.1c0,0,0-0.1,0-0.1c-0.1,0-0.1,0.1-0.2,0.1l-0.1,0.1l0-0.2c0,0,0-0.1,0-0.1
				c-0.1,0.1-0.1,0.1-0.2,0.2l-0.1,0.2l0-0.2c0,0,0-0.1,0-0.1c0,0-0.1,0.1-0.1,0.1l-0.1,0.1l0-0.1c0-0.1,0-0.1-0.1-0.2
				c-0.1,0.2-0.2,0.4-0.2,0.6l-0.1,0c0-0.1,0-0.1,0-0.2l0,0l0,0c0-0.1,0.1-0.2,0.1-0.3c0,0,0,0-0.1,0.1l-0.1,0.1l0-0.1
				c0-0.1,0-0.1-0.1-0.2c0,0.1-0.1,0.2-0.1,0.3l-0.1,0c0-0.1,0-0.2,0-0.3c-0.1,0.1-0.2,0.3-0.2,0.5l-0.1,0c0-0.1,0-0.3,0-0.4
				c-0.1,0.1-0.1,0.2-0.2,0.3l-0.1,0.1l0-0.1c0-0.1,0-0.1-0.1-0.2c0,0.1-0.1,0.3-0.1,0.4l-0.1,0c0-0.2,0-0.3-0.1-0.4
				c-0.1,0.2-0.1,0.4-0.1,0.6l-0.1,0c0-0.1-0.1-0.1-0.1-0.2l0,0l0,0c0-0.1,0-0.2,0-0.3c0,0-0.1,0.1-0.1,0.1l-0.1,0.1l0-0.1
				c0-0.1-0.1-0.1-0.1-0.1c0,0.1,0,0.2,0,0.4l0,0l0,0c0,0,0,0.1-0.1,0.1l-0.1,0.2l0-0.2c0-0.2-0.1-0.3-0.1-0.5
				c-0.1,0.1-0.1,0.3-0.1,0.4l-0.1,0c0-0.1,0-0.3-0.1-0.4c0,0.1-0.1,0.1-0.1,0.2l-0.1,0c0-0.1,0-0.2,0-0.3c0,0.1-0.1,0.1-0.1,0.2
				l-0.1,0c0-0.1,0-0.1,0-0.2c-0.1,0.1-0.1,0.2-0.2,0.3l-0.1,0.1l0-0.2c0-0.1,0-0.2-0.1-0.2c0,0.1-0.1,0.2-0.1,0.3l-0.1,0
				c0,0,0-0.1,0-0.1c-0.1,0.1-0.1,0.1-0.2,0.2l-0.1,0.2l0-0.2c0-0.1,0-0.2,0-0.3c-0.1,0.1-0.2,0.2-0.2,0.4l-0.1,0c0-0.1,0-0.2,0-0.3
				c-0.1,0.1-0.1,0.3-0.2,0.4l-0.1,0c0-0.1,0-0.2-0.1-0.2c-0.1,0.1-0.1,0.2-0.1,0.3c0,0,0,0.1,0,0.1l-0.1,0c0,0,0-0.1,0-0.1
				c0-0.1,0-0.2,0-0.3c0,0,0,0-0.1,0.1l-0.1,0.1l0-0.1c0,0,0-0.1,0-0.1c0,0.1,0,0.2-0.1,0.3l-0.1,0c0-0.1,0-0.2-0.1-0.3
				c0,0.1-0.1,0.2-0.1,0.3l-0.1,0c0-0.1-0.1-0.3-0.1-0.4c0,0.1-0.1,0.2-0.1,0.2h-0.1c0-0.1-0.1-0.3-0.1-0.4c0,0.1-0.1,0.2-0.1,0.3
				l0,0.2l-0.1-0.2c-0.1-0.1-0.1-0.2-0.2-0.3c0,0.1,0,0.3,0,0.4l-0.1,0c-0.1-0.2-0.2-0.3-0.3-0.4c0,0.1,0,0.2,0,0.2l0,0.1l-0.1-0.1
				C-213,394.7-213.1,394.7-213.1,394.7z"/>
		</g>
		<g>
			<path class="st3" d="M-209.3,400c0.2,0,0.6,0.1,1,0.3c0.5,0.2,1.5,0.1,1.8-0.2c0.3-0.2,1.2-0.3,1.7,0.1c0.3-0.5,0.5-1,0.7-1.5
				c-0.5-0.2-1.5-0.6-2.2-0.2c-0.7,0.4-1.6,0.5-1.9,0.3c-0.2-0.1-0.7-0.5-1.2-0.5c-0.5,0-0.9,0.3-1.2,0.5c-0.2,0.1-1.2,0-1.9-0.3
				c-0.7-0.4-1.7,0-2.2,0.2c0.2,0.5,0.4,1,0.7,1.5c0.5-0.4,1.4-0.4,1.7-0.1c0.3,0.2,1.3,0.4,1.8,0.2C-209.9,400-209.6,400-209.3,400
				L-209.3,400z"/>
		</g>
		<g>
			<path d="M-211,400.4c-0.5,0-1-0.1-1.2-0.3c-0.3-0.2-1.2-0.3-1.6,0.1l-0.1,0l0-0.1c-0.3-0.5-0.5-1-0.7-1.5l0-0.1l0.2-0.1
				c0.6-0.2,1.5-0.5,2.2-0.2c0.7,0.4,1.6,0.5,1.8,0.3c0,0,0.1-0.1,0.1-0.1c0.3-0.2,0.7-0.4,1.1-0.4c0.4,0,0.8,0.2,1.1,0.4
				c0.1,0,0.1,0.1,0.1,0.1c0.2,0.1,1.1,0,1.8-0.3c0.7-0.4,1.6,0,2.2,0.2l0.2,0.1l0,0.1c-0.2,0.5-0.4,1-0.7,1.5l0,0.1l-0.1,0
				c-0.5-0.4-1.3-0.3-1.6-0.1c-0.4,0.3-1.3,0.4-1.9,0.2c-0.4-0.2-0.7-0.3-1-0.3c-0.3,0-0.6,0.1-1,0.3
				C-210.5,400.4-210.7,400.4-211,400.4z M-213,399.8c0.3,0,0.6,0.1,0.8,0.2c0.3,0.2,1.3,0.4,1.8,0.2c0.4-0.2,0.7-0.3,1-0.3
				c0.3,0,0.7,0.1,1,0.3c0.5,0.2,1.5,0.1,1.8-0.2c0.4-0.3,1.2-0.3,1.7,0.1c0.3-0.4,0.5-0.9,0.6-1.4l-0.1,0c-0.5-0.2-1.4-0.5-2.1-0.2
				c-0.7,0.4-1.6,0.5-1.9,0.3c0,0-0.1-0.1-0.1-0.1c-0.2-0.2-0.6-0.4-1-0.4s-0.8,0.2-1,0.4c-0.1,0-0.1,0.1-0.1,0.1
				c-0.3,0.2-1.2,0-1.9-0.3c-0.6-0.3-1.5,0-2.1,0.2l-0.1,0c0.2,0.5,0.4,0.9,0.6,1.4C-213.6,399.9-213.3,399.8-213,399.8z"/>
		</g>
		<g>
			<path class="st3" d="M-209.3,396.8c0.5,0,0.8,0.1,0.9,0.2c0.5,0.3,1.5,0,2-0.3c0.5-0.3,0.9-0.2,1.6,0.2c0.3,0.2,0.7,0.4,1.1,0.4
				c0.1-0.4,0.1-0.7,0.1-1.1v-0.4c-0.5,0-0.8-0.1-1.2-0.4c-0.4-0.3-1.3-0.6-1.9-0.1c-0.6,0.5-1.4,0.3-1.7,0.1
				c-0.3-0.2-0.7-0.3-0.8-0.3c-0.2,0-0.5,0.1-0.8,0.3c-0.4,0.2-1.1,0.4-1.7-0.1c-0.6-0.5-1.5-0.2-1.9,0.1c-0.4,0.3-0.8,0.4-1.2,0.4
				v0.4c0,0.4,0,0.7,0.1,1.1c0.3,0,0.7-0.2,1.1-0.4c0.7-0.4,1.1-0.5,1.6-0.2c0.5,0.3,1.5,0.6,2,0.3
				C-210.1,396.9-209.8,396.8-209.3,396.8L-209.3,396.8z"/>
		</g>
		<g>
			<path d="M-203.7,397.4L-203.7,397.4c-0.4,0-0.9-0.2-1.2-0.4c-0.7-0.4-1.1-0.5-1.5-0.2c-0.4,0.3-1.5,0.6-2.1,0.3
				c-0.2-0.1-0.5-0.2-0.9-0.2s-0.7,0.1-0.9,0.2c-0.6,0.3-1.6,0-2.1-0.3c-0.4-0.3-0.8-0.3-1.5,0.2c-0.2,0.2-0.7,0.4-1.1,0.4h-0.1
				l0-0.1c-0.1-0.4-0.1-0.7-0.1-1.1v-0.4h0.1c0.5,0,0.8-0.1,1.2-0.4c0.4-0.3,1.3-0.6,2-0.1c0.6,0.4,1.3,0.3,1.6,0.1
				c0.3-0.2,0.6-0.4,0.9-0.4c0.2,0,0.6,0.2,0.9,0.4c0.3,0.2,1.1,0.4,1.6-0.1c0.7-0.5,1.5-0.2,2,0.1c0.4,0.3,0.7,0.4,1.2,0.4h0.1v0.4
				C-203.6,396.6-203.6,396.9-203.7,397.4L-203.7,397.4z M-214.9,395.9v0.3c0,0.3,0,0.7,0.1,1c0.4,0,0.8-0.3,1-0.4
				c0.6-0.4,1.1-0.6,1.6-0.2c0.5,0.4,1.4,0.6,1.9,0.3c0.2-0.1,0.5-0.3,1-0.3s0.8,0.1,1,0.3c0.5,0.3,1.5,0.1,1.9-0.3
				c0.5-0.4,1-0.2,1.6,0.2c0.4,0.2,0.7,0.4,1,0.4c0-0.3,0.1-0.7,0.1-1v-0.3c-0.5,0-0.8-0.1-1.2-0.4c-0.4-0.3-1.2-0.6-1.8-0.1
				c-0.6,0.5-1.4,0.3-1.8,0.1c-0.3-0.2-0.6-0.3-0.8-0.3c-0.2,0-0.5,0.1-0.8,0.3c-0.4,0.2-1.2,0.4-1.8-0.1c-0.6-0.5-1.4-0.2-1.8,0.1
				C-214.1,395.8-214.4,395.9-214.9,395.9z"/>
		</g>
		<g>
			<path class="st3" d="M-209.3,403.6c1.1-0.3,2-0.8,2.7-1.4c-0.6,0-1.3-0.2-1.6-0.4c-0.3-0.2-0.8-0.3-1.1-0.3
				c-0.3,0-0.8,0.1-1.1,0.3c-0.3,0.2-1.1,0.4-1.7,0.4C-211.3,402.8-210.4,403.3-209.3,403.6L-209.3,403.6z"/>
		</g>
		<g>
			<path d="M-209.3,403.6L-209.3,403.6c-1.1-0.3-2-0.8-2.8-1.4l-0.1-0.1l0.2,0c0,0,0,0,0,0c0.6,0,1.3-0.2,1.6-0.4
				c0.3-0.3,0.8-0.4,1.1-0.4s0.8,0.1,1.1,0.4c0.3,0.2,1,0.4,1.6,0.4c0,0,0,0,0,0l0.2,0l-0.1,0.1
				C-207.3,402.9-208.3,403.3-209.3,403.6L-209.3,403.6z M-211.9,402.3c0.7,0.5,1.6,1,2.6,1.2c1-0.3,1.8-0.7,2.6-1.2
				c-0.5,0-1.2-0.2-1.5-0.4c-0.3-0.2-0.8-0.3-1-0.3s-0.8,0.1-1,0.3C-210.7,402.1-211.3,402.3-211.9,402.3z"/>
		</g>
		<g>
			<path class="st5" d="M-213,399.6c0.1,0.2-0.1,0.2-0.1,0l-0.3-1.1c-0.1-0.2,0.1-0.2,0.1,0L-213,399.6L-213,399.6z"/>
		</g>
		<g>
			<path d="M-213,399.8c-0.1,0-0.1,0-0.2-0.2l-0.3-1.1c0-0.2,0-0.2,0.1-0.3c0.1,0,0.1,0,0.2,0.2l0.3,1.1
				C-212.9,399.7-213,399.8-213,399.8C-213,399.8-213,399.8-213,399.8z M-213.4,398.5C-213.4,398.5-213.4,398.5-213.4,398.5l0.3,1.1
				c0,0,0,0,0,0c0,0,0,0,0,0v0L-213.4,398.5C-213.4,398.5-213.4,398.5-213.4,398.5z"/>
		</g>
		<g>
			<path class="st5" d="M-212.6,399.4c-0.4-0.2-1-0.4-1.5-0.6c-0.1-0.1-0.2,0,0,0.1c0.6,0.3,1,0.4,1.5,0.6"/>
		</g>
		<g>
			<path d="M-212.7,399.6c-0.4-0.2-0.7-0.3-1.1-0.4l-0.4-0.2c0,0-0.2-0.1-0.1-0.2c0-0.1,0.1-0.1,0.2,0c0.3,0.1,0.5,0.2,0.8,0.3
				c0.3,0.1,0.6,0.2,0.8,0.3l0,0.1c-0.1,0-0.3-0.1-0.4-0.2c0.1,0,0.2,0.1,0.4,0.2L-212.7,399.6z"/>
		</g>
		<g>
			<path class="st5" d="M-211.1,400c0-1.6,0-3.7,0-4c0-0.3-0.1-0.3-0.1,0c0,1.1,0,2.7-0.1,3.9"/>
		</g>
		<g>
			<path d="M-211,400h-0.1c0-1.1,0-2.5,0-3.3c0,0,0-0.1,0-0.1c0,0.8,0,1.6,0,2.4l0,0.9l-0.1,0l0-0.9c0-1,0-2.2,0.1-3
				c0-0.2,0-0.3,0.1-0.3l0,0c0.1,0,0.1,0.1,0.1,0.3c0,0.1,0,0.4,0,0.7C-211,397.6-211,398.9-211,400z"/>
		</g>
		<g>
			<path class="st5" d="M-209.2,401.1c0-1.6,0-5.2,0-5.6c0-0.3-0.1-0.3-0.1,0c0,1.1,0,4.3-0.1,5.5"/>
		</g>
		<g>
			<path d="M-209.1,401.1h-0.1c0-1.1,0-3.2,0-4.5c0-0.3,0-0.5,0-0.7c0,1.3,0,4-0.1,5.1l-0.1,0c0-1.2,0.1-4.4,0.1-5.5
				c0-0.2,0-0.3,0.1-0.3c0,0,0,0,0,0c0.1,0,0.1,0.1,0.1,0.3c0,0.1,0,0.5,0,1.1C-209.1,397.8-209.1,399.9-209.1,401.1z"/>
		</g>
		<g>
			<path class="st5" d="M-207.3,400.6c0-1.6,0.1-4.4,0.1-4.7c0-0.3-0.1-0.3-0.1,0c0,1.1-0.1,3.5-0.1,4.7"/>
		</g>
		<g>
			<path d="M-207.3,400.6l-0.1,0c0-1.1,0-2.7,0.1-3.7c0-0.3,0-0.5,0-0.6c0,1.3-0.1,3.3-0.1,4.3l-0.1,0c0-1.2,0.1-3.5,0.1-4.7
				c0-0.2,0-0.3,0.1-0.3c0,0,0,0,0,0c0.1,0,0.1,0.1,0.1,0.3c0,0.1,0,0.5,0,1C-207.2,398-207.2,399.6-207.3,400.6z"/>
		</g>
		<g>
			<path class="st5" d="M-205.8,399c0-0.5,0-0.8,0-0.9c0-0.1-0.1-0.2-0.1,0C-205.9,398.4-205.9,398.7-205.8,399"/>
		</g>
		<g>
			<path d="M-205.8,399l-0.1,0l0-0.9c0-0.1,0.1-0.2,0.1-0.2h0c0.1,0,0.1,0.1,0.1,0.2L-205.8,399L-205.8,399L-205.8,399z"/>
		</g>
		<g>
			<path class="st5" d="M-211.9,400c0.2,2.5,4.9,3,6-0.1l-1.1,0c-0.9,1.5-3.2,1.2-4.1,0.2c0-0.1,0-0.1-0.2-0.2
				c-0.5-0.2-0.9-0.3-1.3-0.5c-0.2-0.1-0.3,0.2-0.1,0.3c0,0.1,0.1,0.3,0.3,0.2c0.1,0.1,0.2,0,0.2,0
				C-212,399.9-211.9,399.9-211.9,400L-211.9,400z"/>
		</g>
		<g>
			<path d="M-209,402.1c-0.2,0-0.3,0-0.5,0c-1.3-0.2-2.3-1-2.4-2c0,0-0.1,0-0.1,0c0,0,0,0-0.1,0c-0.1,0.1-0.2,0.1-0.3,0
				c-0.1,0-0.2,0-0.2-0.1c-0.1,0-0.1-0.1-0.1-0.2c-0.1-0.1-0.2-0.2-0.1-0.3c0-0.1,0.1-0.2,0.3-0.1l0.3,0.1c0.3,0.1,0.6,0.2,1,0.4
				c0.2,0.1,0.2,0.1,0.2,0.2c0.5,0.6,1.4,0.9,2.3,0.8c0.7-0.1,1.3-0.4,1.7-1l0,0l1.2,0l0,0.1C-206.3,401.4-207.7,402.1-209,402.1z
				 M-212.1,399.8L-212.1,399.8c0.1,0,0.1,0,0.2,0.1c0,0,0.1,0,0.1,0l0,0l0,0c0.1,1.2,1.2,1.8,2.3,2c1.3,0.2,2.9-0.4,3.6-2l-1,0
				c-0.4,0.6-1,1-1.8,1c-0.9,0.1-1.9-0.3-2.5-0.9l0,0v0c0-0.1,0-0.1-0.1-0.1c-0.4-0.1-0.7-0.2-1-0.4l-0.3-0.1c0,0-0.1,0-0.1,0.1
				c0,0,0,0.1,0.1,0.2l0.1,0l0,0.1c0,0,0,0.1,0,0.1c0,0,0.1,0.1,0.1,0l0,0l0,0C-212.3,399.9-212.2,399.9-212.1,399.8L-212.1,399.8z"
				/>
		</g>
		<g>
			<path class="st5" d="M-206.9,399.9l1.6-0.1c0.2,0,0.2-0.2,0-0.2c0.1-0.3,0.2-0.5,0.2-0.6c0.1,0,0.1-0.2-0.1-0.2l-1.7,0.3
				c-0.1,0-0.1,0.1-0.1,0.2c0,0.1-0.1,0.3-0.1,0.4C-207,399.8-207,399.9-206.9,399.9L-206.9,399.9z"/>
		</g>
		<g>
			<path d="M-206.9,400c-0.1,0-0.2-0.1-0.2-0.1c0-0.1,0-0.1,0.1-0.2c0-0.1,0-0.2,0.1-0.3c0,0-0.1-0.1,0-0.1c0-0.1,0.1-0.1,0.1-0.1
				l1.7-0.3c0.2,0,0.2,0.1,0.3,0.1c0,0.1,0,0.1-0.1,0.2c0,0,0,0.1,0,0.1c0,0.1-0.1,0.3-0.1,0.4c0.1,0,0.1,0.1,0.1,0.2
				c0,0.1,0,0.1-0.1,0.1c0,0-0.1,0.1-0.2,0.1L-206.9,400C-206.9,400-206.9,400-206.9,400z M-205,398.9
				C-205.1,398.9-205.1,398.9-205,398.9l-1.7,0.3c0,0-0.1,0-0.1,0c0,0,0,0,0,0l0,0l0,0c0,0.1-0.1,0.3-0.1,0.4l0,0l0,0c0,0,0,0,0,0
				c0,0,0,0,0.1,0c0,0,0,0,0,0h0l1.6-0.1c0,0,0.1,0,0.1,0c0,0,0,0,0,0c0,0,0-0.1-0.1-0.1h-0.1l0-0.1c0.1-0.2,0.1-0.4,0.2-0.5
				C-205.1,399.1-205.1,399-205,398.9L-205,398.9L-205,398.9C-205,398.9-205,398.9-205,398.9C-205,398.9-205,398.9-205,398.9z"/>
		</g>
		<g>
			<path class="st3" d="M-211.7,396.8l1.3-0.4c0,0.2-0.3,0.4-0.4,0.3c-0.1,0.2-0.3,0.3-0.5,0.1
				C-211.4,396.9-211.6,396.9-211.7,396.8L-211.7,396.8z"/>
		</g>
		<g>
			<path d="M-211.1,397c-0.1,0-0.2,0-0.2-0.1c-0.1,0-0.3,0-0.4-0.1l-0.1-0.1l1.5-0.5v0.1c0,0.1-0.1,0.3-0.2,0.3
				c-0.1,0.1-0.2,0.1-0.3,0.1C-210.9,396.9-211,396.9-211.1,397C-211.1,397-211.1,397-211.1,397z M-211.3,396.8L-211.3,396.8
				c0.1,0.1,0.2,0.1,0.3,0.1c0.1,0,0.1-0.1,0.1-0.1l0-0.1l0.1,0c0.1,0,0.2,0,0.2-0.1c0.1,0,0.1-0.1,0.1-0.1l-1,0.3
				C-211.5,396.8-211.4,396.8-211.3,396.8L-211.3,396.8z"/>
		</g>
		<g>
			<path class="st3" d="M-210.2,396.9l-1.7,0.5c-0.1,0.4-0.1,0.8,0.1,1c0.3-0.4,0.9-0.5,1.3-0.3
				C-210.7,397.8-210.5,397.2-210.2,396.9L-210.2,396.9z"/>
		</g>
		<g>
			<path d="M-211.8,398.5L-211.8,398.5c-0.3-0.3-0.4-0.7-0.2-1.2l0,0l1.9-0.6l-0.1,0.2c-0.3,0.4-0.4,0.9-0.2,1.1l-0.1,0.1
				C-210.9,398-211.5,398-211.8,398.5L-211.8,398.5z M-211.9,397.5c-0.1,0.3-0.1,0.7,0.1,0.9c0.3-0.4,0.8-0.5,1.2-0.3
				c-0.1-0.3,0-0.7,0.2-1L-211.9,397.5z"/>
		</g>
		<g>
			<path class="st3" d="M-210.3,398.1l-1.7,0.5c0.1,0.1,0.4,0.2,0.5,0.1c0.3,0.2,0.7,0,0.8-0.2
				C-210.5,398.6-210.3,398.4-210.3,398.1L-210.3,398.1z"/>
		</g>
		<g>
			<path d="M-211.2,398.9c-0.1,0-0.2,0-0.3-0.1c-0.2,0.1-0.5,0-0.6-0.2l0-0.1l1.9-0.5l0,0.1c0,0.1-0.1,0.3-0.2,0.4
				c-0.1,0.1-0.2,0.1-0.3,0.1c-0.1,0.1-0.2,0.2-0.4,0.3C-211.1,398.9-211.1,398.9-211.2,398.9z M-211.5,398.6L-211.5,398.6
				c0.1,0.1,0.3,0.1,0.4,0.1c0.1,0,0.3-0.1,0.3-0.2l0,0l0,0c0.1,0,0.2,0,0.3-0.1c0.1-0.1,0.1-0.1,0.1-0.2l-1.5,0.4
				C-211.8,398.7-211.6,398.7-211.5,398.6L-211.5,398.6z"/>
		</g>
		<g>
			<path class="st3" d="M-208.5,395.9l-1.5,0.5c0.1,0.2,0.4,0.2,0.5,0.1c0.2,0.2,0.4,0.1,0.5-0.1
				C-208.7,396.4-208.5,396.2-208.5,395.9L-208.5,395.9z"/>
		</g>
		<g>
			<path d="M-209.2,396.6c-0.1,0-0.2,0-0.2-0.1c-0.2,0.1-0.4,0-0.6-0.1l-0.1-0.1l1.6-0.5v0.1c0,0.2-0.1,0.3-0.2,0.4
				c-0.1,0.1-0.2,0.1-0.3,0.1C-209,396.5-209.1,396.6-209.2,396.6C-209.2,396.6-209.2,396.6-209.2,396.6z M-209.4,396.4
				L-209.4,396.4c0.1,0.1,0.2,0.1,0.2,0.1c0.1,0,0.1-0.1,0.2-0.1l0,0l0,0c0.1,0,0.2,0,0.3-0.1c0.1-0.1,0.1-0.1,0.1-0.2l-1.3,0.4
				C-209.7,396.5-209.6,396.5-209.4,396.4L-209.4,396.4z"/>
		</g>
		<g>
			<path class="st3" d="M-208.3,396.5l-1.7,0.4c-0.1,0.5-0.2,1.1,0.1,1.4c0.2-0.4,0.8-0.6,1.4-0.2
				C-208.9,397.8-208.7,397.1-208.3,396.5L-208.3,396.5z"/>
		</g>
		<g>
			<path d="M-209.8,398.5L-209.8,398.5c-0.4-0.5-0.3-1.2-0.2-1.6l0,0l1.9-0.5l-0.1,0.1c-0.4,0.5-0.6,1.2-0.2,1.5l-0.1,0.1
				c-0.3-0.2-0.6-0.2-0.8-0.1C-209.5,398.1-209.7,398.2-209.8,398.5L-209.8,398.5z M-209.9,397c-0.1,0.3-0.2,0.9,0,1.3
				c0.1-0.2,0.3-0.3,0.5-0.3c0.2-0.1,0.4-0.1,0.7,0c-0.2-0.3-0.1-0.8,0.3-1.3L-209.9,397z"/>
		</g>
		<g>
			<path class="st3" d="M-208.4,398.2l-1.5,0.3c0.1,0.2,0.3,0.2,0.4,0.1c0.2,0.2,0.5,0.2,0.7,0
				C-208.8,398.6-208.5,398.5-208.4,398.2L-208.4,398.2z"/>
		</g>
		<g>
			<path d="M-209.3,398.8c-0.1,0-0.2-0.1-0.3-0.1c-0.1,0-0.2,0-0.2,0c-0.1,0-0.2-0.1-0.2-0.2l0-0.1l0.1,0l1.6-0.3l0,0.1
				c0,0.2-0.1,0.3-0.3,0.4c-0.1,0-0.2,0-0.2,0C-209,398.7-209.1,398.8-209.3,398.8C-209.2,398.8-209.2,398.8-209.3,398.8z
				 M-209.6,398.5L-209.6,398.5c0.1,0.1,0.2,0.2,0.3,0.2c0,0,0,0,0,0c0.1,0,0.2-0.1,0.3-0.2l0,0l0,0c0.1,0,0.1,0,0.2,0
				c0.1,0,0.1-0.1,0.2-0.2l-1.3,0.2c0,0,0,0,0.1,0C-209.7,398.6-209.7,398.5-209.6,398.5L-209.6,398.5z"/>
		</g>
		<g>
			<path class="st3" d="M-206.7,396.2l-1.3,0.4c0.1,0.1,0.3,0.2,0.4,0.1c0.2,0.1,0.5,0,0.6-0.2
				C-206.9,396.5-206.7,396.4-206.7,396.2L-206.7,396.2z"/>
		</g>
		<g>
			<path d="M-207.4,396.8c-0.1,0-0.1,0-0.2,0c-0.1,0.1-0.3,0-0.4-0.1l-0.1-0.1l1.5-0.5l0,0.1c0,0.1-0.1,0.2-0.2,0.3
				c-0.1,0.1-0.1,0.1-0.2,0.1c0,0,0,0,0,0c-0.1,0.1-0.1,0.2-0.3,0.2C-207.3,396.8-207.4,396.8-207.4,396.8z M-207.6,396.6
				L-207.6,396.6c0.1,0.1,0.2,0.1,0.3,0c0.1,0,0.2-0.1,0.2-0.2l0,0l0,0c0.1,0,0.1,0,0.2-0.1c0,0,0.1-0.1,0.1-0.1l-1.1,0.3
				C-207.8,396.7-207.7,396.7-207.6,396.6L-207.6,396.6z"/>
		</g>
		<g>
			<path class="st3" d="M-206.6,396.7l-1.5,0.4c-0.2,0.5-0.3,1.1-0.1,1.5c0.3-0.5,1.2-0.6,1.5-0.3
				C-206.8,397.9-206.9,397.1-206.6,396.7L-206.6,396.7z"/>
		</g>
		<g>
			<path d="M-208.1,398.7L-208.1,398.7c-0.3-0.5-0.2-1.2,0-1.6l0,0l0,0l1.7-0.4l-0.1,0.1c-0.3,0.4-0.2,1.1,0,1.4l-0.1,0.1
				c-0.2-0.1-0.5-0.2-0.8-0.1C-207.7,398.2-208,398.4-208.1,398.7L-208.1,398.7z M-208,397.1c-0.2,0.4-0.3,1-0.1,1.3
				c0.2-0.2,0.4-0.3,0.7-0.4c0.2,0,0.5,0,0.7,0c-0.1-0.4-0.2-0.9,0-1.3L-208,397.1z"/>
		</g>
		<g>
			<path class="st3" d="M-206.6,398.3l-1.7,0.3c0.1,0.2,0.4,0.2,0.5,0.2c0.3,0.2,0.6,0.1,0.7-0.1
				C-206.9,398.7-206.6,398.6-206.6,398.3L-206.6,398.3z"/>
		</g>
		<g>
			<path d="M-207.5,398.9c-0.1,0-0.2,0-0.3-0.1c-0.1,0-0.2,0.1-0.3,0c-0.1,0-0.2-0.1-0.3-0.2l0-0.1l0.1,0l1.8-0.3l0,0.1
				c0,0.1-0.1,0.3-0.2,0.3c-0.1,0.1-0.2,0.1-0.3,0.1c-0.1,0.1-0.2,0.2-0.3,0.2C-207.3,398.9-207.4,398.9-207.5,398.9z M-207.8,398.7
				L-207.8,398.7c0.2,0.1,0.3,0.1,0.4,0.1c0.1,0,0.2-0.1,0.2-0.2l0,0l0,0c0.1,0,0.2,0,0.3,0c0,0,0.1-0.1,0.1-0.1l-1.5,0.3
				c0,0,0.1,0.1,0.1,0.1C-208,398.8-207.9,398.7-207.8,398.7L-207.8,398.7z"/>
		</g>
		<g>
			<path class="st3" d="M-211.2,396c-0.2,0.1-0.6,0-0.7,0.4c0.2-0.1,0.6,0,0.7,0C-211.2,396.2-211.2,396.1-211.2,396L-211.2,396z"/>
		</g>
		<g>
			<path d="M-212,396.5l0-0.1c0.1-0.3,0.3-0.4,0.5-0.4c0.1,0,0.2,0,0.3-0.1l0.1-0.1l0,0.1c0,0,0,0.1,0,0.2l0,0.2l0,0
				c-0.1,0-0.1,0-0.3,0c-0.1,0-0.3,0-0.4,0L-212,396.5z M-211.7,396.3c0.1,0,0.2,0,0.3,0c0.1,0,0.1,0,0.2,0l0-0.1c0,0,0-0.1,0-0.1
				c-0.1,0-0.1,0-0.2,0c-0.1,0-0.3,0-0.3,0.2C-211.8,396.3-211.7,396.3-211.7,396.3z"/>
		</g>
		<g>
			<path class="st3" d="M-209.3,395.5c-0.2,0.1-0.6,0-0.7,0.4c0.2-0.1,0.6,0,0.7,0C-209.3,395.7-209.3,395.6-209.3,395.5
				L-209.3,395.5z"/>
		</g>
		<g>
			<path d="M-210.1,396l0-0.1c0.1-0.3,0.3-0.4,0.5-0.4c0.1,0,0.2,0,0.3-0.1l0.1-0.1l0,0.1c0,0,0,0.1,0,0.2l0,0.2l0,0
				c-0.1,0-0.1,0-0.3,0c-0.2,0-0.3,0-0.4,0L-210.1,396z M-209.8,395.8c0.1,0,0.2,0,0.3,0c0.1,0,0.1,0,0.2,0c0,0,0,0,0,0l0-0.1
				c0,0,0-0.1,0-0.1c-0.1,0-0.1,0-0.2,0c-0.1,0-0.3,0-0.3,0.2C-209.8,395.8-209.8,395.8-209.8,395.8z"/>
		</g>
		<g>
			<path class="st3" d="M-207.4,395.9c-0.2,0.1-0.6,0-0.7,0.4c0.2-0.1,0.6,0,0.7,0C-207.4,396.1-207.4,396-207.4,395.9L-207.4,395.9
				z"/>
		</g>
		<g>
			<path d="M-208.2,396.4l0-0.1c0.1-0.3,0.3-0.3,0.5-0.4c0.1,0,0.2,0,0.3-0.1l0.1-0.1l0,0.1c0,0,0,0.1,0,0.2l0,0.2l0,0
				c-0.1,0-0.1,0-0.3,0c-0.2,0-0.3-0.1-0.4,0L-208.2,396.4z M-207.9,396.2c0.1,0,0.2,0,0.3,0c0.1,0,0.1,0,0.2,0c0,0,0,0,0,0l0-0.1
				c0,0,0-0.1,0-0.1c-0.1,0-0.1,0-0.2,0c-0.1,0-0.3,0-0.3,0.2C-208,396.2-207.9,396.2-207.9,396.2z"/>
		</g>
		<g>
			<path class="st3" d="M-205.9,398.1c-0.2,0.1-0.5,0-0.6,0.3c0.2-0.1,0.5,0,0.6,0C-205.9,398.3-205.9,398.1-205.9,398.1
				L-205.9,398.1z"/>
		</g>
		<g>
			<path d="M-206.5,398.5l0-0.1c0.1-0.3,0.2-0.3,0.4-0.3c0.1,0,0.1,0,0.2,0l0.1-0.1l0,0.2c0,0.1,0,0.1,0,0.2l0,0l0,0
				c-0.1,0-0.1,0-0.2,0c-0.1,0-0.3,0-0.3,0L-206.5,398.5z"/>
		</g>
		<g>
			<polygon points="-206.7,399.4 -206.7,399.7 -206.5,399.7 -206.5,399.4 			"/>
		</g>
		<g>
			<polygon points="-206.4,399.3 -206.4,399.7 -206.2,399.6 -206.2,399.3 			"/>
		</g>
		<g>
			<polygon points="-206.1,399.3 -206.1,399.6 -205.9,399.6 -205.9,399.3 			"/>
		</g>
		<g>
			<polygon points="-205.8,399.2 -205.8,399.6 -205.6,399.6 -205.6,399.2 			"/>
		</g>
		<g>
			<polygon points="-205.5,399.2 -205.5,399.6 -205.3,399.5 -205.3,399.1 			"/>
		</g>
		<g>
			<path d="M-209,401.9c-0.1,0-0.2,0-0.3,0c-1.1-0.1-2-0.8-2.4-1.8c0,0-0.1,0-0.1,0l0-0.1c0.2,0.1,0.2,0.1,0.3,0.1
				c0.1,0,0.1,0,0.2,0.1l0,0l0,0c0,0.1,0.1,0.2,0.2,0.3c0-0.1,0.1-0.1,0.2-0.1c0.1,0,0.2,0.1,0.2,0.2c0,0.1,0,0.1-0.1,0.1
				c0,0,0.1,0,0.1,0l0,0.1c-0.3-0.1-0.6-0.4-0.7-0.6c-0.1,0-0.1,0-0.2-0.1c0,0,0,0,0,0c0.9,1.2,2.1,1.4,2.7,1.3
				c0.9,0,1.8-0.5,2.2-1.1c0,0-0.1-0.1-0.1-0.1c-0.1,0.1-0.1,0.2-0.2,0.2c0,0,0,0,0,0.1c0,0.1-0.1,0.2-0.2,0.2c0,0-0.1,0-0.1,0
				c-0.1,0.1-0.3,0.2-0.4,0.3c0,0.1-0.1,0.2-0.2,0.2c-0.1,0-0.2-0.1-0.2-0.2s0.1-0.2,0.2-0.2c0,0,0.1,0,0.1,0
				c0.1-0.1,0.3-0.2,0.4-0.3c0,0,0,0,0,0c0-0.1,0.1-0.2,0.2-0.2c0,0,0,0,0.1,0c0.1-0.1,0.2-0.2,0.3-0.3c0-0.1,0-0.1,0-0.2l0.1,0
				c0,0.2,0.2,0.4,0.5,0.5l0,0.1l0,0c0,0,0,0,0,0v0c0,0,0,0,0,0C-206.9,401.4-208,401.9-209,401.9z M-211.4,400.6
				c0.5,0.7,1.2,1.1,2,1.2c0.1,0,0.2,0,0.3,0c1,0,2-0.5,2.6-1.3c-0.1,0-0.1-0.1-0.2-0.1c-0.4,0.7-1.3,1.2-2.3,1.2c0,0-0.1,0-0.1,0
				C-209.6,401.6-210.5,401.4-211.4,400.6z M-208.9,401.3c-0.1,0-0.2-0.1-0.2-0.2s0.1-0.2,0.2-0.2s0.2,0.1,0.2,0.2
				C-208.8,401.2-208.8,401.3-208.9,401.3z M-210,401.1c-0.1,0-0.2-0.1-0.2-0.2s0.1-0.2,0.2-0.2c0.1,0,0.2,0.1,0.2,0.2
				C-209.9,401-209.9,401.1-210,401.1z"/>
		</g>
		<g>
			<path d="M-208.8,400.9l-0.2-2c-0.5-0.7-1-1.5-1.2-2l0,0c0.3,0.5,0.7,1.3,1.2,2l0-0.2l0,0l0,0.1c0,0,0,0,0,0l0-0.1l0,0l0,0.1
				c0,0,0,0,0,0c0,0,0,0,0,0l0-0.1l0,0l0.2,0.9c0.2,0.3,0.5,0.6,0.6,0.9l0.2-0.9c-0.2-0.3-0.3-0.6-0.4-0.8l0,0
				c0.1,0.2,0.2,0.5,0.4,0.8l0-0.2c-0.2-0.2-0.3-0.4-0.3-0.5l0,0c0.1,0.1,0.2,0.3,0.3,0.5l0.1-0.3l0,0l0,0.1c0,0,0,0,0,0l0-0.1l0,0
				l0,0.1c0,0,0,0,0,0l0-0.1l0,0l0,0.5c0.2,0.2,0.4,0.5,0.5,0.6l-0.2-1.2l0,0l0,0.2c0,0,0.1,0,0.1,0l0-0.2l0,0l0,0.2c0,0,0,0,0,0
				c0,0,0.1,0,0.1,0l-0.1-0.3l0,0l0.2,0.6l0,0l0,0c0,0-0.1,0-0.1,0l0.1,0.3c0,0,0,0,0,0l0,0c0,0,0,0,0,0c0,0,0,0,0,0l0,0.1l0,0
				l0-0.1c0,0-0.1,0-0.1,0l0.1,0.4l0,0c-0.2-0.1-0.3-0.3-0.5-0.6l0,0.3c0.1,0.2,0.3,0.4,0.4,0.5l0,0c-0.1-0.1-0.3-0.3-0.4-0.5l0,0.9
				h0l0-0.1c0,0-0.1,0-0.2,0l0,0.1c0,0,0,0.1,0.1,0.1l0,0c0,0,0,0,0,0l0,0.1l0,0l0-0.1c0,0,0,0-0.1-0.1c0,0-0.1,0-0.1,0l-0.1,0.3
				l0,0l0.1-0.5c-0.2-0.2-0.4-0.5-0.6-0.8l0.4,1.3l0,0l0-0.1c0,0-0.1,0-0.2,0c0,0,0,0,0,0l0,0.1l0,0l0-0.1c-0.1,0-0.2,0-0.2,0
				L-208.8,400.9L-208.8,400.9z M-209.8,400.8L-209.8,400.8l0-0.2c-0.1,0-0.1,0-0.2,0l0,0.2l0,0l0-0.2c0,0,0,0,0,0
				c-0.1,0-0.1,0-0.2-0.1l0,0.1l0,0l0.7-2.1l0,0l0,0.1c0,0,0,0,0,0l0-0.1l0,0l0,0.1c0,0,0,0,0,0c0,0,0,0,0,0l0-0.1l0,0L-209.8,400.8
				z M-210.4,400.6l-0.1-0.3c0,0-0.1,0-0.1,0l0,0.2l0,0l0-0.2c0,0-0.1,0-0.2,0l0,0l-0.2-1.5l0,0l0,0.1c0,0,0,0,0.1,0l0-0.1l0,0
				l0,0.1c0,0,0,0,0.1,0l0-0.1l0,0L-210.4,400.6L-210.4,400.6z M-213,399.8L-213,399.8l-1-0.8l0,0L-213,399.8l0.5,0v0L-213,399.8z
				 M-211.4,399.8l-0.1-0.1c0,0,0,0-0.1,0l0,0.1l0,0l0-0.1c0,0,0,0,0,0c0,0-0.1,0-0.1,0l0,0.1l0,0l0.1-0.4l-0.3-0.7l0,0l0.3,0.7
				l0.1-0.5l0,0l0,0.1c0,0,0,0,0.1,0l0-0.1l0,0l0,0.1c0,0,0.1,0,0.1,0h0l0-0.1l0,0L-211.4,399.8L-211.4,399.8L-211.4,399.8z
				 M-212.1,399.6l-0.6-0.5l0,0.3l0,0l0-0.3l-0.2-0.2l-0.4,0.3l0,0l0.4-0.3l-0.4-0.3l0,0l0.4,0.3l1.8-1.6l0,0l-1.5,1.3l-0.1,0.5
				L-212.1,399.6L-212.1,399.6z M-206,399c-0.5-0.4-1.5-1.4-2-2.1l0,0.2l0,0l0-0.2c-0.1-0.1-0.2-0.2-0.2-0.3l0,0
				c0.1,0.1,0.1,0.2,0.2,0.3l0-0.2l0.2-0.4l0,0l-0.2,0.3l0,0.2C-207.5,397.6-206.5,398.6-206,399L-206,399z M-214,398.9L-214,398.9
				l2.3-2.1l0.3-0.4l0,0l-0.3,0.4l0,0.5l0,0l0-0.5L-214,398.9z M-205,398.8c-0.7-0.7-1.3-1.5-1.5-2.1l0,1.5h0l0-1.6l-0.1-0.5
				l-0.5-0.3l0,0l0.6,0.3l0,0l0.1,0.5C-206.3,397.2-205.7,398.1-205,398.8L-205,398.8z M-210.3,396.9l-0.1-0.5l-0.6-0.4l0,0l0.7,0.4
				l0,0L-210.3,396.9L-210.3,396.9z M-208.3,396.5l-0.2-0.6l-0.6-0.4l0,0l0.6,0.4L-208.3,396.5L-208.3,396.5z"/>
		</g>
		<g>
			<path class="st1" d="M-213.7,403.4c-0.1,0.2-0.3,0.2-0.3,0.2c0,0,0,0-0.1,0c0,0,0,0,0,0l0.3-0.5c0,0,0,0,0.1,0c0,0,0,0,0.1,0
				C-213.7,403.1-213.6,403.2-213.7,403.4l0.2,0.1c0.2-0.2,0-0.4-0.1-0.5c-0.1-0.1-0.3-0.2-0.3-0.2l0,0c0,0,0.1,0.1,0,0.1l-0.3,0.4
				c0,0.1-0.1,0-0.1,0l0,0l0.3,0.2c0.1,0.1,0.4,0.1,0.5-0.1L-213.7,403.4L-213.7,403.4z"/>
		</g>
		<g>
			<path class="st1" d="M-213.3,403.3c0-0.1,0-0.1-0.1-0.1l0,0l0.6,0.3l-0.1,0.2l0,0c0.1-0.1,0-0.2-0.1-0.3c0,0-0.1,0-0.1,0
				c0,0,0,0-0.1,0c0,0-0.1,0.2-0.1,0.2c0,0,0.1,0.1,0.2-0.1l0,0l-0.2,0.3l0,0c0.1-0.2,0-0.2-0.1-0.2l-0.1,0.2c0,0.1,0,0.1,0,0.1
				c0,0,0.1,0,0.1,0c0.1,0,0.2,0,0.3-0.1l0,0l-0.2,0.2l-0.6-0.3l0,0c0,0,0.1,0,0.1,0L-213.3,403.3L-213.3,403.3z"/>
		</g>
		<g>
			<path class="st1" d="M-212.5,403.6c0,0-0.1,0-0.1,0.1c0,0.1,0,0.1,0.1,0.2c0.1,0.1,0.1,0.2,0.1,0.3c-0.1,0.2-0.2,0.1-0.3,0.1
				c0,0-0.1-0.1-0.1-0.1c0,0,0,0-0.1,0l0,0l0.1-0.2l0,0c0,0.1,0,0.2,0.1,0.3c0.1,0,0.2,0,0.2-0.1c0-0.1,0-0.1-0.1-0.2
				c-0.1-0.1-0.1-0.2-0.1-0.3C-212.8,403.6-212.6,403.5-212.5,403.6c0.1,0,0.1,0,0.1,0.1c0,0,0,0,0.1,0l0,0l-0.1,0.2l0,0
				C-212.4,403.7-212.5,403.6-212.5,403.6L-212.5,403.6z"/>
		</g>
		<g>
			<path class="st1" d="M-212.2,404.4c0,0.1,0,0.1,0.1,0.1l0,0l-0.4-0.1l0,0c0,0,0.1,0,0.1,0l0.2-0.5c0-0.1,0-0.1-0.1-0.1l0,0
				l0.4,0.1l0,0c0,0-0.1,0-0.1,0L-212.2,404.4L-212.2,404.4z"/>
		</g>
		<g>
			<path class="st1" d="M-211.7,404.3l0.1-0.3c0,0,0,0,0.1,0c0.1,0,0.1,0.1,0.1,0.2C-211.5,404.2-211.5,404.3-211.7,404.3
				L-211.7,404.3C-211.7,404.3-211.7,404.3-211.7,404.3l0.2,0.4l0.2,0.1l0,0c0,0,0,0,0,0l-0.1-0.4c0.1,0,0.2,0,0.2-0.1
				c0-0.1-0.1-0.2-0.2-0.3l-0.3-0.1l0,0c0,0,0.1,0,0.1,0.1l-0.1,0.5c0,0.1-0.1,0.1-0.1,0.1l0,0l0.3,0.1l0,0c0,0-0.1,0-0.1-0.1
				L-211.7,404.3L-211.7,404.3L-211.7,404.3z"/>
		</g>
		<g>
			<path class="st1" d="M-211,404.2C-211,404.1-211.1,404.1-211,404.2l-0.1-0.1l0.6,0.1l0,0.2l0,0c0-0.1-0.1-0.2-0.2-0.2
				c0,0-0.1,0-0.1,0c0,0,0,0,0,0.1c0,0,0,0.2,0,0.2c0,0,0.1,0,0.2-0.1l0,0l-0.1,0.4l0,0c0-0.2-0.1-0.2-0.1-0.2l0,0.2
				c0,0.1,0,0.1,0,0.1c0,0,0.1,0,0.1,0c0.1,0,0.2,0,0.3-0.1l0,0l-0.1,0.2l-0.6-0.1l0,0c0,0,0.1,0,0.1-0.1L-211,404.2L-211,404.2z"/>
		</g>
		<g>
			<path class="st1" d="M-210.1,404.9L-210.1,404.9C-210.1,404.9-210,404.9-210.1,404.9l0.1-0.7l0,0c-0.1,0-0.2,0.1-0.2,0.2l0,0
				l0-0.2l0.6,0l0,0.2l0,0c0-0.1-0.1-0.2-0.2-0.2l0,0l0,0.6c0,0.1,0,0.1,0.1,0.1l0,0L-210.1,404.9L-210.1,404.9z"/>
		</g>
		<g>
			<path class="st1" d="M-209.3,404.6l0,0.2c0,0.1,0,0.1,0.1,0.1l0,0l-0.4,0l0,0c0,0,0.1,0,0.1-0.1l0-0.5c0-0.1,0-0.1-0.1-0.1l0,0
				l0.4,0l0,0c0,0-0.1,0-0.1,0.1L-209.3,404.6l0.3,0l0-0.2c0-0.1,0-0.1-0.1-0.1l0,0l0.4,0l0,0c0,0-0.1,0-0.1,0.1l0,0.5
				c0,0.1,0,0.1,0.1,0.1l0,0l-0.4,0l0,0c0,0,0.1,0,0.1-0.1l0-0.2L-209.3,404.6L-209.3,404.6z"/>
		</g>
		<g>
			<path class="st1" d="M-208.6,404.3c0-0.1-0.1-0.1-0.1-0.1l0,0l0.6-0.1l0,0.2l0,0c0-0.1-0.1-0.2-0.2-0.2c0,0-0.1,0-0.1,0
				c0,0,0,0,0,0.1c0,0,0,0.2,0,0.2c0,0,0.2,0,0.2-0.2l0,0l0,0.4l0,0c0-0.2-0.2-0.2-0.2-0.1l0,0.2c0,0.1,0,0.1,0,0.1c0,0,0.1,0,0.1,0
				c0.1,0,0.2-0.1,0.2-0.2l0,0l0,0.2l-0.6,0.1l0,0c0,0,0.1,0,0.1-0.1L-208.6,404.3L-208.6,404.3z"/>
		</g>
		<g>
			<path class="st1" d="M-206.6,404.5c0,0.1,0.1,0.1,0.1,0l0,0l-0.4,0.1l0,0c0,0,0.1-0.1,0.1-0.1l-0.2-0.5c0-0.1-0.1-0.1-0.1,0l0,0
				l0.4-0.1l0,0c0,0-0.1,0.1-0.1,0.1L-206.6,404.5L-206.6,404.5z"/>
		</g>
		<g>
			<path class="st1" d="M-206,404.4c-0.2,0.1-0.4,0-0.5-0.2c-0.1-0.2,0-0.4,0.2-0.5c0.1,0,0.1,0,0.2,0c0,0,0.1,0,0.1-0.1l0,0
				l0.1,0.2l0,0c-0.1-0.1-0.2-0.1-0.3-0.1c-0.1,0-0.2,0.1-0.1,0.4C-206.3,404.4-206.1,404.4-206,404.4c0,0,0.1-0.1,0.1-0.1
				c0,0,0-0.1,0-0.1c0-0.1-0.1-0.1-0.1,0l0,0l0.3-0.1l0,0c0,0-0.1,0.1-0.1,0.1c0,0.1,0.1,0.2,0.1,0.2
				C-205.9,404.3-206,404.3-206,404.4L-206,404.4z"/>
		</g>
		<g>
			<path class="st1" d="M-205.5,403.8l0.1,0.2c0,0.1,0.1,0,0.1,0l0,0l-0.3,0.2l0,0c0,0,0.1-0.1,0-0.1l-0.2-0.5c0-0.1-0.1,0-0.1,0
				l0,0l0.3-0.2l0,0c0,0-0.1,0.1,0,0.1L-205.5,403.8l0.2-0.2l-0.1-0.2c0-0.1-0.1,0-0.1,0l0,0l0.3-0.2l0,0c0,0-0.1,0.1,0,0.1l0.2,0.5
				c0,0.1,0.1,0,0.1,0l0,0l-0.3,0.2l0,0c0,0,0.1-0.1,0-0.1l-0.1-0.2L-205.5,403.8L-205.5,403.8z"/>
		</g>
		<g>
			<path class="st1" d="M-204.7,403.7L-204.7,403.7c0,0,0.1-0.1,0-0.1l-0.3-0.5l0,0c-0.1,0-0.1,0.1-0.1,0.2l0,0l-0.1-0.2l0.5-0.3
				l0.1,0.2l0,0c-0.1-0.1-0.2-0.1-0.2-0.1l0,0l0.3,0.5c0,0.1,0.1,0,0.1,0l0,0L-204.7,403.7L-204.7,403.7z"/>
		</g>
		<g>
			<path class="st1" d="M-207.5,404.4l-0.1-0.3c0,0,0,0,0.1-0.1c0.1,0,0.1,0,0.2,0.1C-207.3,404.3-207.3,404.4-207.5,404.4
				L-207.5,404.4C-207.5,404.4-207.5,404.4-207.5,404.4l0.3,0.3l0.2,0l0,0c0,0,0,0,0,0l-0.3-0.3c0.1,0,0.1-0.1,0.1-0.2
				c0-0.1-0.2-0.2-0.3-0.1l-0.3,0.1l0,0c0,0,0.1,0,0.1,0.1l0.1,0.5c0,0.1,0,0.1-0.1,0.1l0,0l0.3-0.1l0,0c0,0-0.1,0-0.1-0.1
				L-207.5,404.4L-207.5,404.4L-207.5,404.4z"/>
		</g>
	</g>
</g>
</svg>
