<?xml version="1.0" encoding="utf-8"?>
<!-- Generator: Adobe Illustrator 19.0.0, SVG Export Plug-In . SVG Version: 6.00 Build 0)  -->
<svg version="1.1" id="Layer_1" xmlns="http://www.w3.org/2000/svg" xmlns:xlink="http://www.w3.org/1999/xlink" x="0px" y="0px"
	 viewBox="-269 374 72 46" style="enable-background:new -269 374 72 46;" xml:space="preserve">
<style type="text/css">
	.st0{clip-path:url(#SVGID_2_);}
	.st1{fill:#0062AE;}
	.st2{fill:#FFFFFF;}
</style>
<g>
	<defs>
		<path id="SVGID_1_" d="M-204,420H-262c-3.8,0-7-3.1-7-7V381c0-3.8,3.1-7,7-7h58.1c3.8,0,7,3.1,7,7V413
			C-197,416.9-200.1,420-204,420z"/>
	</defs>
	<clipPath id="SVGID_2_">
		<use xlink:href="#SVGID_1_"  style="overflow:visible;"/>
	</clipPath>
	<g class="st0">
		<g>
			<polygon class="st1" points="-188.7,420 -188.7,373.3 -277.3,373.3 -277.3,420 			"/>
		</g>
		<g>
			<path d="M-188.5,420.1h-88.9v-46.9h88.9V420.1z M-277.2,419.9h88.4v-46.4h-88.4V419.9z"/>
		</g>
		<g>
			<polygon class="st2" points="-233,378.7 -234.1,382.2 -237.8,382.2 -234.8,384.3 -236,387.8 -233,385.7 -230,387.8 -231.2,384.3 
				-228.2,382.2 -231.9,382.2 			"/>
		</g>
		<g>
			<polygon class="st2" points="-248.4,396.7 -244.9,397.9 -244.9,401.6 -242.8,398.6 -239.3,399.7 -241.4,396.7 -239.3,393.8 
				-242.8,394.9 -244.9,391.9 -244.9,395.6 			"/>
		</g>
		<g>
			<polygon class="st2" points="-233,414.8 -231.9,411.3 -228.2,411.3 -231.2,409.1 -230,405.7 -233,407.8 -236,405.7 -234.9,409.2 
				-237.8,411.3 -234.2,411.3 			"/>
		</g>
		<g>
			<polygon class="st2" points="-217.5,396.7 -221,395.6 -221,391.9 -223.2,394.9 -226.7,393.8 -224.5,396.7 -226.7,399.7 
				-223.1,398.6 -221,401.6 -221,397.9 			"/>
		</g>
	</g>
</g>
</svg>
