<?xml version="1.0" encoding="utf-8"?>
<!-- Generator: Adobe Illustrator 19.0.0, SVG Export Plug-In . SVG Version: 6.00 Build 0)  -->
<svg version="1.1" id="Layer_1" xmlns="http://www.w3.org/2000/svg" xmlns:xlink="http://www.w3.org/1999/xlink" x="0px" y="0px"
	 viewBox="-269 374 72 46" style="enable-background:new -269 374 72 46;" xml:space="preserve">
<style type="text/css">
	.st0{clip-path:url(#SVGID_2_);}
	.st1{fill:#FFFFFF;}
	.st2{clip-path:url(#SVGID_4_);}
	.st3{fill:#004995;}
	.st4{clip-path:url(#SVGID_6_);}
	.st5{fill:#E30520;}
</style>
<g>
	<defs>
		<path id="SVGID_1_" d="M-204,420H-262c-3.8,0-7-3.1-7-7V381c0-3.8,3.1-7,7-7h58.1c3.8,0,7,3.1,7,7V413
			C-197,416.9-200.1,420-204,420z"/>
	</defs>
	<clipPath id="SVGID_2_">
		<use xlink:href="#SVGID_1_"  style="overflow:visible;"/>
	</clipPath>
	<g class="st0">
		<rect x="-269.8" y="369.7" class="st1" width="73.5" height="53.5"/>
		<path d="M-196.1,423.4h-73.8v-53.8h73.8V423.4z M-269.6,423.1h73.3v-53.3h-73.3V423.1z"/>
	</g>
</g>
<g>
	<defs>
		<path id="SVGID_3_" d="M-204,420H-262c-3.8,0-7-3.1-7-7V381c0-3.8,3.1-7,7-7h58.1c3.8,0,7,3.1,7,7V413
			C-197,416.9-200.1,420-204,420z"/>
	</defs>
	<clipPath id="SVGID_4_">
		<use xlink:href="#SVGID_3_"  style="overflow:visible;"/>
	</clipPath>
	<g class="st2">
		<polygon class="st3" points="-249.7,369.7 -249.7,389.8 -269.8,389.8 -269.8,403.2 -249.7,403.2 -249.7,423.3 -236.3,423.3 
			-236.3,403.2 -196.3,403.2 -196.3,389.8 -236.3,389.8 -236.3,369.7 		"/>
		<path d="M-236.2,423.4h-13.6v-20.1h-20v-13.6h20v-20.1h13.6v20.1h40.1v13.6h-40.1V423.4z M-249.6,423.1h13.1v-20.1h40.1v-13.1
			h-40.1v-20.1h-13.1v20.1h-20v13.1h20V423.1z"/>
	</g>
</g>
<g>
	<defs>
		<path id="SVGID_5_" d="M-204,420H-262c-3.8,0-7-3.1-7-7V381c0-3.8,3.1-7,7-7h58.1c3.8,0,7,3.1,7,7V413
			C-197,416.9-200.1,420-204,420z"/>
	</defs>
	<clipPath id="SVGID_6_">
		<use xlink:href="#SVGID_5_"  style="overflow:visible;"/>
	</clipPath>
	<g class="st4">
		<polygon class="st5" points="-246.4,369.7 -246.4,393.2 -269.8,393.2 -269.8,399.8 -246.4,399.8 -246.4,423.3 -239.7,423.3 
			-239.7,399.8 -196.3,399.8 -196.3,393.2 -239.7,393.2 -239.7,369.7 		"/>
		<path d="M-239.6,423.4h-6.9v-23.5h-23.4V393h23.4v-23.4h6.9V393h43.4v6.9h-43.4V423.4z M-246.2,423.1h6.4v-23.5h43.4v-6.4h-43.4
			v-23.4h-6.4v23.4h-23.4v6.4h23.4V423.1z"/>
	</g>
</g>
</svg>
