<?xml version="1.0" encoding="utf-8"?>
<!-- Generator: Adobe Illustrator 19.0.0, SVG Export Plug-In . SVG Version: 6.00 Build 0)  -->
<svg version="1.1" id="Layer_1" xmlns="http://www.w3.org/2000/svg" xmlns:xlink="http://www.w3.org/1999/xlink" x="0px" y="0px"
	 viewBox="-269 374 72 46" style="enable-background:new -269 374 72 46;" xml:space="preserve">
<style type="text/css">
	.st0{clip-path:url(#SVGID_2_);}
	.st1{fill:#329B32;}
	.st2{fill:#0077BE;}
	.st3{fill:#FFE000;}
</style>
<g>
	<defs>
		<path id="SVGID_1_" d="M-204,420H-262c-3.8,0-7-3.1-7-7V381c0-3.8,3.1-7,7-7h58.1c3.8,0,7,3.1,7,7V413
			C-197,416.9-200.1,420-204,420z"/>
	</defs>
	<clipPath id="SVGID_2_">
		<use xlink:href="#SVGID_1_"  style="overflow:visible;"/>
	</clipPath>
	<g class="st0">
		<g>
			<polygon class="st1" points="-196.6,387.4 -269.4,387.4 -269.4,369.2 -196.6,369.2 			"/>
		</g>
		<g>
			<path d="M-196.5,387.5h-73.1v-18.5h73.1V387.5z M-269.3,387.3h72.6v-18h-72.6V387.3z"/>
		</g>
		<g>
			<polygon class="st2" points="-269.4,423.8 -196.6,423.8 -196.6,405.6 -269.4,405.6 			"/>
		</g>
		<g>
			<path d="M-196.5,423.9h-73.1v-18.5h73.1V423.9z M-269.3,423.7h72.6v-18h-72.6V423.7z"/>
		</g>
		<g>
			<polygon class="st3" points="-196.6,405.6 -269.4,405.6 -269.4,387.4 -196.6,387.4 			"/>
		</g>
		<g>
			<path d="M-196.5,405.7h-73.1v-18.5h73.1V405.7z M-269.3,405.5h72.6v-18h-72.6V405.5z"/>
		</g>
	</g>
</g>
</svg>
