<?xml version="1.0" encoding="utf-8"?>
<!-- Generator: Adobe Illustrator 19.0.0, SVG Export Plug-In . SVG Version: 6.00 Build 0)  -->
<svg version="1.1" id="Layer_1" xmlns="http://www.w3.org/2000/svg" xmlns:xlink="http://www.w3.org/1999/xlink" x="0px" y="0px"
	 viewBox="-269 374 72 46" style="enable-background:new -269 374 72 46;" xml:space="preserve">
<style type="text/css">
	.st0{clip-path:url(#SVGID_2_);}
	.st1{fill:#003671;}
	.st2{fill:#FFFFFF;}
	.st3{fill:#DC2F34;}
</style>
<g>
	<defs>
		<path id="SVGID_1_" d="M-204,420H-262c-3.8,0-7-3.1-7-7V381c0-3.8,3.1-7,7-7h58.1c3.8,0,7,3.1,7,7V413
			C-197,416.9-200.1,420-204,420z"/>
	</defs>
	<clipPath id="SVGID_2_">
		<use xlink:href="#SVGID_1_"  style="overflow:visible;"/>
	</clipPath>
	<g class="st0">
		<g>
			<polygon class="st1" points="-185.1,421 -185.1,373.1 -280.9,373.1 -280.9,421 			"/>
		</g>
		<g>
			<path d="M-185,421.1h-96V373h96V421.1z M-280.7,420.9h95.5v-47.7h-95.5V420.9z"/>
		</g>
		<g>
			<polygon class="st2" points="-280.9,389 -260.6,389 -280.9,378.9 -280.9,373.1 -269.3,373.1 -241,387.2 -241,373.1 -225.1,373.1 
				-225.1,387.2 -196.8,373.1 -185.1,373.1 -185.1,378.9 -205.5,389 -185.1,389 -185.1,405 -205.5,405 -185.1,415.2 -185.1,421 
				-196.8,421 -225.1,406.9 -225.1,421 -241,421 -241,406.9 -269.3,421 -280.9,421 -280.9,415.2 -260.6,405 -280.9,405 			"/>
		</g>
		<g>
			<path d="M-185,421.1l-11.8,0l-28.1-14v14h-16.2v-14l-28.2,14H-281v-6l0.1,0l19.7-9.9H-281v-16.2h19.8L-281,379v-6l11.7,0l28.1,14
				v-14h16.2v14l28.2-14h11.8v6l-19.9,9.9h19.9v16.2h-19.9l19.9,9.9V421.1z M-196.8,420.9h11.5v-5.6l-20.3-10.1l0.1-0.2h20.2v-15.7
				h-20.2l-0.1-0.2l20.3-10.1v-5.6h-11.5l-28.4,14.2v-14.2h-15.7v14.2l-0.2-0.1l-28.3-14.1h-11.4v5.6l20.2,10.1l-0.1,0.2h-20.1v15.7
				h20.1l0.1,0.2l-20.2,10.1v5.6h11.4l28.4-14.2v14.2h15.7v-14.2l0.2,0.1L-196.8,420.9z"/>
		</g>
		<g>
			<polygon class="st3" points="-192.7,373.1 -224.6,389.1 -217,389.1 -185.1,373.1 			"/>
		</g>
		<g>
			<path d="M-217,389.2h-7.6l-0.1-0.2l32-16h7.5l0.1,0.2L-217,389.2z M-224.1,388.9h7.1l31.3-15.7h-7L-224.1,388.9z"/>
		</g>
		<g>
			<polygon class="st3" points="-185.1,421 -217,405 -209.3,405 -185.1,417.2 			"/>
		</g>
		<g>
			<path d="M-185.2,421.1l-31.9-16l0.1-0.2l7.7,0l24.2,12.2l0.1,0.1v3.8L-185.2,421.1z M-216.5,405.2l31.2,15.6v-3.5l-24.1-12.1
				H-216.5z"/>
		</g>
		<g>
			<polygon class="st3" points="-248.9,389.1 -280.9,373.1 -280.9,376.9 -256.6,389.1 			"/>
		</g>
		<g>
			<path d="M-248.9,389.2l-7.8,0l-24.3-12.2l-0.1-0.1v-3.8l0.2-0.1l32,16L-248.9,389.2z M-256.5,388.9h7.2l-31.4-15.7v3.5
				L-256.5,388.9z"/>
		</g>
		<g>
			<polygon class="st3" points="-248.9,405 -280.9,421 -273.2,421 -241.3,405 			"/>
		</g>
		<g>
			<path d="M-273.2,421.1h-7.6l-0.1-0.2l32-16h7.6l0.1,0.2L-273.2,421.1z M-280.3,420.9h7.1l31.5-15.7h-7.1L-280.3,420.9z"/>
		</g>
		<g>
			<polygon class="st3" points="-280.9,392.4 -237.6,392.4 -237.6,373.1 -228.3,373.1 -228.3,392.4 -185.1,392.4 -185.1,401.7 
				-228.3,401.7 -228.3,421 -237.6,421 -237.6,401.7 -280.9,401.7 			"/>
		</g>
		<g>
			<path d="M-228.1,421.1h-9.6v-19.3H-281v-9.6h43.2V373h9.6v19.3h43.1v9.6h-43.1V421.1z M-237.5,420.9h9.1v-19.3h43.1v-9.1h-43.1
				v-19.3h-9.1v19.3h-43.2v9.1h43.2V420.9z"/>
		</g>
	</g>
</g>
</svg>
