<?xml version="1.0" encoding="utf-8"?>
<!-- Generator: Adobe Illustrator 19.0.0, SVG Export Plug-In . SVG Version: 6.00 Build 0)  -->
<svg version="1.1" id="Layer_1" xmlns="http://www.w3.org/2000/svg" xmlns:xlink="http://www.w3.org/1999/xlink" x="0px" y="0px"
	 viewBox="-269 374 72 46" style="enable-background:new -269 374 72 46;" xml:space="preserve">
<style type="text/css">
	.st0{clip-path:url(#SVGID_2_);}
	.st1{fill:#E95123;}
	.st2{fill:none;stroke:#000000;stroke-width:0.25;}
	.st3{fill:#FFE247;}
	.st4{fill:#00775E;}
	.st5{fill:none;stroke:#000000;stroke-width:0.125;stroke-linejoin:bevel;}
	.st6{fill:none;stroke:#000000;stroke-width:0.125;}
</style>
<g>
	<defs>
		<path id="SVGID_1_" d="M-204,420H-262c-3.8,0-7-3.1-7-7V381c0-3.8,3.1-7,7-7h58.1c3.8,0,7,3.1,7,7V413
			C-197,416.9-200.1,420-204,420z"/>
	</defs>
	<clipPath id="SVGID_2_">
		<use xlink:href="#SVGID_1_"  style="overflow:visible;"/>
	</clipPath>
	<g class="st0">
		<g>
			<polygon class="st1" points="-194.7,420.3 -194.7,374 -271.3,374 -271.3,420.3 			"/>
		</g>
		<g>
			<path d="M-194.6,420.5h-76.8v-46.6h76.8V420.5z M-271.2,420.2h76.3v-46.1h-76.3V420.2z"/>
		</g>
		<g>
			<path class="st1" d="M-233,397.2"/>
		</g>
		<g>
			<path class="st2" d="M-233,397.2"/>
		</g>
		<g>
			<polygon class="st3" points="-201.2,413.9 -201.2,380.4 -264.8,380.4 -264.8,413.9 			"/>
		</g>
		<g>
			<path d="M-201,414H-265v-33.7h63.9V414z M-264.7,413.8h63.4v-33.2h-63.4V413.8z"/>
		</g>
		<g>
			<path class="st3" d="M-233,397.2"/>
		</g>
		<g>
			<path class="st2" d="M-233,397.2"/>
		</g>
		<g>
			<polygon class="st4" points="-264.8,413.9 -264.8,380.4 -233,397.2 			"/>
		</g>
		<g>
			<path d="M-264.8,414l-0.2-0.1v-33.5l0.2-0.1l31.8,16.7v0.2L-264.8,414z M-264.7,380.6v33.1l31.5-16.5L-264.7,380.6z"/>
		</g>
		<g>
			<polygon class="st4" points="-201.2,413.9 -201.2,380.4 -233,397.2 			"/>
		</g>
		<g>
			<path d="M-201.2,414l-31.8-16.7V397l31.8-16.7l0.2,0.1v33.5L-201.2,414z M-232.7,397.2l31.5,16.5v-33.1L-232.7,397.2z"/>
		</g>
		<g>
			<path class="st1" d="M-258.2,396c0.9,0.9,1.8,2.8,1.4,4.7c-1.8-0.5-3.1-2.1-3.5-3.4L-258.2,396L-258.2,396z"/>
		</g>
		<g>
			<path d="M-256.7,400.7L-256.7,400.7c-1.8-0.4-3.1-2.1-3.6-3.4l0,0l0,0l2.1-1.3l0,0C-257.1,397-256.3,398.9-256.7,400.7
				L-256.7,400.7z M-260.2,397.3c0.4,1.3,1.7,2.8,3.3,3.3c0.4-1.7-0.4-3.5-1.4-4.5L-260.2,397.3z"/>
		</g>
		<g>
			<path class="st3" d="M-258.8,397.3c1.6,0.5,2.5,1.9,3.3,3.1c1.8-5.8-4-5.2-5.3-6.6c0.6,1.9-2.6,6.8,3.4,7.8
				C-258.3,400.5-259.1,399-258.8,397.3L-258.8,397.3z"/>
		</g>
		<g>
			<path d="M-257.4,401.8l-0.1,0c-4.3-0.7-3.9-3.5-3.5-5.7c0.1-0.9,0.3-1.6,0.1-2.1l0.1-0.1c0.4,0.4,1.1,0.6,1.9,0.9
				c2.1,0.7,4.8,1.5,3.5,5.8l0,0.1l-0.1-0.1c-0.8-1.3-1.7-2.6-3.2-3.1c-0.2,1.6,0.5,3,1.3,4.2L-257.4,401.8z M-260.8,394.1
				c0.1,0.5,0,1.2-0.1,2c-0.4,2.2-0.8,4.8,3.3,5.6c-0.8-1.3-1.5-2.7-1.2-4.3l0-0.1l0.1,0c1.5,0.5,2.4,1.8,3.2,3
				c1.2-4-1.4-4.8-3.4-5.5C-259.7,394.6-260.4,394.4-260.8,394.1z"/>
		</g>
		<g>
			<polygon class="st3" points="-248.9,414.7 -249.5,416.5 -251.4,416.5 -249.9,417.6 -250.5,419.4 -248.9,418.3 -247.4,419.4 
				-248,417.6 -246.5,416.5 -248.4,416.5 			"/>
		</g>
		<g>
			<path d="M-250.6,419.6l0.6-1.9l-1.6-1.2h2l0.6-1.9l0.6,1.9h2l-1.6,1.2l0.6,2l-1.6-1.2L-250.6,419.6z M-248.9,418.2L-248.9,418.2
				l1.4,1l-0.5-1.7l1.4-1h-1.7l0,0l-0.5-1.6l-0.5,1.7h-1.7l1.4,1l-0.5,1.7L-248.9,418.2z"/>
		</g>
		<g>
			<polygon class="st3" points="-233,414.7 -233.6,416.5 -235.5,416.5 -233.9,417.6 -234.5,419.4 -233,418.3 -231.5,419.4 
				-232.1,417.6 -230.6,416.5 -232.4,416.5 			"/>
		</g>
		<g>
			<path d="M-234.7,419.6l0.6-1.9l-1.6-1.2h2l0.6-1.9l0.6,1.9h2l-1.6,1.2l0.6,2l-1.6-1.2L-234.7,419.6z M-233,418.2L-233,418.2
				l1.4,1l-0.5-1.7l1.4-1h-1.7l0,0l-0.5-1.6l-0.5,1.7h-1.7l1.4,1l-0.5,1.7L-233,418.2z"/>
		</g>
		<g>
			<polygon class="st3" points="-217.1,414.7 -217.7,416.5 -219.6,416.5 -218,417.6 -218.6,419.4 -217.1,418.3 -215.6,419.4 
				-216.2,417.6 -214.6,416.5 -216.5,416.5 			"/>
		</g>
		<g>
			<path d="M-218.7,419.6l0.6-1.9l-1.6-1.2h2l0.6-1.9l0.6,1.9h2l-1.6,1.2l0.6,2l-1.6-1.2L-218.7,419.6z M-217.1,418.2L-217.1,418.2
				l1.4,1l-0.5-1.7l0,0l1.4-1h-1.7l-0.5-1.7l-0.5,1.7h-1.7l1.4,1l0,0l-0.5,1.6L-217.1,418.2z"/>
		</g>
		<g>
			<polygon class="st3" points="-248.9,374.8 -249.5,376.6 -251.4,376.6 -249.9,377.7 -250.5,379.5 -248.9,378.4 -247.4,379.5 
				-248,377.7 -246.5,376.6 -248.4,376.6 			"/>
		</g>
		<g>
			<path d="M-250.6,379.6l0.6-1.9l-1.6-1.2h2l0.6-1.9l0.6,1.9h2l-1.6,1.2l0.6,2l-1.6-1.2L-250.6,379.6z M-248.9,378.3l1.4,1
				l-0.5-1.7l1.4-1h-1.7l-0.5-1.7l-0.5,1.7h-1.7l1.4,1l-0.5,1.7L-248.9,378.3z"/>
		</g>
		<g>
			<polygon class="st3" points="-233,374.8 -233.6,376.6 -235.5,376.6 -233.9,377.7 -234.5,379.5 -233,378.4 -231.5,379.5 
				-232.1,377.7 -230.6,376.6 -232.4,376.6 			"/>
		</g>
		<g>
			<path d="M-234.7,379.6l0.6-1.9l-1.6-1.2h2l0.6-1.9l0.6,1.9h2l-1.6,1.2l0.6,2l-1.6-1.2L-234.7,379.6z M-233,378.3l1.4,1l-0.5-1.7
				l1.4-1h-1.7l-0.5-1.7l-0.5,1.7h-1.7l1.4,1l-0.5,1.7L-233,378.3z"/>
		</g>
		<g>
			<polygon class="st3" points="-217.1,374.8 -217.7,376.6 -219.6,376.6 -218,377.7 -218.6,379.5 -217.1,378.4 -215.6,379.5 
				-216.2,377.7 -214.6,376.6 -216.5,376.6 			"/>
		</g>
		<g>
			<path d="M-218.7,379.6l0.6-1.9l-1.6-1.2h2l0.6-1.9l0.6,1.9h2l-1.6,1.2l0.6,2l-1.6-1.2L-218.7,379.6z M-217.1,378.3l1.4,1
				l-0.5-1.7l0,0l1.4-1h-1.7l0,0l-0.5-1.6l-0.5,1.7h-1.7l1.4,1l0,0l-0.5,1.6L-217.1,378.3z"/>
		</g>
		<g>
			<path class="st1" d="M-233,401.1c2.2,0,3.9-1.8,3.9-4s-1.8-4-3.9-4c-2.2,0-3.9,1.8-3.9,4S-235.2,401.1-233,401.1L-233,401.1z"/>
		</g>
		<g>
			<path d="M-233,401.2c-2.2,0-4-1.8-4-4c0-2.2,1.8-4,4-4c2.2,0,4,1.8,4,4C-229,399.4-230.8,401.2-233,401.2z M-233,393.2
				c-2.1,0-3.9,1.8-3.9,3.9c0,2.2,1.7,3.9,3.9,3.9s3.9-1.8,3.9-3.9C-229.1,395-230.9,393.2-233,393.2z"/>
		</g>
		<g>
			<path class="st1" d="M-233,397.2"/>
		</g>
		<g>
			<path class="st5" d="M-233,397.2"/>
		</g>
		<g>
			<polygon class="st3" points="-233,393.9 -233.7,396.1 -236.1,396.1 -234.2,397.6 -234.9,399.8 -233,398.4 -231.1,399.8 
				-231.8,397.5 -229.9,396.2 -232.3,396.2 			"/>
		</g>
		<g>
			<path d="M-235,400l0.8-2.4l-2.1-1.5h2.5l0.8-2.4l0.8,2.4h2.5l-2,1.5l0.8,2.4l-2-1.5L-235,400z M-233,398.3L-233,398.3l1.8,1.3
				l-0.7-2.1l0,0l1.8-1.3h-2.2l0,0l-0.7-2.1l-0.7,2.1h-2.2l1.8,1.3l-0.7,2.1L-233,398.3z"/>
		</g>
		<g>
			<path class="st3" d="M-233,397.2"/>
		</g>
		<g>
			<path class="st6" d="M-233,397.2"/>
		</g>
	</g>
</g>
</svg>
