<?xml version="1.0" encoding="utf-8"?>
<!-- Generator: Adobe Illustrator 19.0.0, SVG Export Plug-In . SVG Version: 6.00 Build 0)  -->
<svg version="1.1" id="Layer_1" xmlns="http://www.w3.org/2000/svg" xmlns:xlink="http://www.w3.org/1999/xlink" x="0px" y="0px"
	 viewBox="-269 374 72 46" style="enable-background:new -269 374 72 46;" xml:space="preserve">
<style type="text/css">
	.st0{clip-path:url(#SVGID_2_);}
	.st1{fill:#A90A2E;}
	.st2{fill:#FFFFFF;}
</style>
<g>
	<defs>
		<path id="SVGID_1_" d="M-204,420H-262c-3.8,0-7-3.1-7-7V381c0-3.8,3.1-7,7-7h58.1c3.8,0,7,3.1,7,7V413
			C-197,416.9-200.1,420-204,420z"/>
	</defs>
	<clipPath id="SVGID_2_">
		<use xlink:href="#SVGID_1_"  style="overflow:visible;"/>
	</clipPath>
	<g class="st0">
		<g>
			<polygon class="st1" points="-195.8,420.5 -195.8,374 -271.2,374 -271.2,420.5 			"/>
		</g>
		<g>
			<path d="M-195.7,420.7h-75.6v-46.8h75.6V420.7z M-271.1,420.4h75.1v-46.3h-75.1V420.4z"/>
		</g>
		<g>
			<polygon class="st2" points="-241,392.6 -241,374 -271.2,374 -271.2,392.6 			"/>
		</g>
		<g>
			<path d="M-240.9,392.7h-30.4v-18.9h30.4V392.7z M-271.1,392.5h29.9v-18.4h-29.9V392.5z"/>
		</g>
		<g>
			<polygon points="-241,383.3 -241,374 -271.2,374 -271.2,383.3 			"/>
		</g>
		<g>
			<path d="M-240.9,383.4h-30.4v-9.6h30.4V383.4z M-271.1,383.2h29.9v-9.1h-29.9V383.2z"/>
		</g>
	</g>
</g>
</svg>
