<?xml version="1.0" encoding="utf-8"?>
<!-- Generator: Adobe Illustrator 19.0.0, SVG Export Plug-In . SVG Version: 6.00 Build 0)  -->
<svg version="1.1" id="Layer_1" xmlns="http://www.w3.org/2000/svg" xmlns:xlink="http://www.w3.org/1999/xlink" x="0px" y="0px"
	 viewBox="-269 374 72 46" style="enable-background:new -269 374 72 46;" xml:space="preserve">
<style type="text/css">
	.st0{clip-path:url(#SVGID_2_);}
	.st1{fill:#F7DB13;}
	.st2{fill:#0B8938;}
	.st3{fill:#D9101D;}
</style>
<g>
	<defs>
		<path id="SVGID_1_" d="M-204,420H-262c-3.8,0-7-3.1-7-7V381c0-3.8,3.1-7,7-7h58.1c3.8,0,7,3.1,7,7V413
			C-197,416.9-200.1,420-204,420z"/>
	</defs>
	<clipPath id="SVGID_2_">
		<use xlink:href="#SVGID_1_"  style="overflow:visible;"/>
	</clipPath>
	<g class="st0">
		<rect x="-269.6" y="372" class="st1" width="73.6" height="49.1"/>
		<polyline class="st2" points="-196,372 -269.6,372 -196,420.8 		"/>
		<polygon class="st3" points="-232.8,388.4 -231,394 -225,394 -229.8,397.4 -228,403.1 -232.8,399.7 -237.6,403.1 -235.8,397.5 
			-240.5,394 -234.6,394 		"/>
	</g>
</g>
</svg>
