<?xml version="1.0" encoding="utf-8"?>
<!-- Generator: Adobe Illustrator 19.0.0, SVG Export Plug-In . SVG Version: 6.00 Build 0)  -->
<svg version="1.1" id="Layer_1" xmlns="http://www.w3.org/2000/svg" xmlns:xlink="http://www.w3.org/1999/xlink" x="0px" y="0px"
	 viewBox="-269 374 72 46" style="enable-background:new -269 374 72 46;" xml:space="preserve">
<style type="text/css">
	.st0{clip-path:url(#SVGID_2_);}
	.st1{fill:#FFFFFF;}
	.st2{fill:#E40520;}
	.st3{fill:#FFED00;}
</style>
<g>
	<defs>
		<path id="SVGID_1_" d="M-204,420H-262c-3.8,0-7-3.1-7-7V381c0-3.8,3.1-7,7-7h58.1c3.8,0,7,3.1,7,7V413
			C-197,416.9-200.1,420-204,420z"/>
	</defs>
	<clipPath id="SVGID_2_">
		<use xlink:href="#SVGID_1_"  style="overflow:visible;"/>
	</clipPath>
	<g class="st0">
		<g>
			<polygon class="st1" points="-194.6,422 -194.6,370.8 -271.4,370.8 -271.4,422 			"/>
		</g>
		<g>
			<path d="M-194.5,422.1h-77.1v-51.5h77.1V422.1z M-271.3,421.9h76.6v-51h-76.6V421.9z"/>
		</g>
		<g>
			<polygon class="st2" points="-194.6,402.7 -226.6,402.7 -226.6,422 -239.4,422 -239.4,402.7 -271.4,402.7 -271.4,389.9 
				-239.4,389.9 -239.4,370.8 -226.6,370.8 -226.6,389.9 -194.6,389.9 			"/>
		</g>
		<g>
			<path d="M-226.5,422.1h-13.1v-19.2h-32v-13.1h32v-19.1h13.1v19.1h32v13.1h-32V422.1z M-239.3,421.9h12.6v-19.2h32V390h-32v-19.1
				h-12.6V390h-32v12.6h32V421.9z"/>
		</g>
		<g>
			<polygon class="st3" points="-230.9,398.5 -215.9,398.5 -213.8,400.6 -213.8,392.1 -215.9,394.2 -230.9,394.2 -230.9,379.2 
				-228.8,377.1 -237.2,377.1 -235.1,379.2 -235.1,394.2 -250.1,394.2 -252.2,392.1 -252.2,400.6 -250.1,398.5 -235.1,398.5 
				-235.1,413.5 -237.2,415.6 -228.8,415.6 -230.9,413.5 			"/>
		</g>
		<g>
			<path d="M-228.5,415.7h-9.1l2.3-2.3v-14.8h-14.8l-2.3,2.3v-9.1l2.3,2.3h14.8v-14.8l-2.3-2.3h9.1l-2.3,2.3v14.8h14.8l2.3-2.3v9.1
				l-2.3-2.3h-14.8v14.8L-228.5,415.7z M-236.9,415.5h7.9l-1.9-1.9v-15.2h15.2l1.9,1.9v-7.9l-1.9,1.9H-231v-15.2l1.9-1.9h-7.9
				l1.9,1.9v15.2h-15.2l-1.9-1.9v7.9l1.9-1.9h15.2v15.2l0,0L-236.9,415.5z"/>
		</g>
	</g>
</g>
</svg>
