<?xml version="1.0" encoding="utf-8"?>
<!-- Generator: Adobe Illustrator 19.0.0, SVG Export Plug-In . SVG Version: 6.00 Build 0)  -->
<svg version="1.1" id="Layer_1" xmlns="http://www.w3.org/2000/svg" xmlns:xlink="http://www.w3.org/1999/xlink" x="0px" y="0px"
	 viewBox="-269 374 72 46" style="enable-background:new -269 374 72 46;" xml:space="preserve">
<style type="text/css">
	.st0{clip-path:url(#SVGID_2_);}
	.st1{fill:#E40520;}
	.st2{fill:#FFFFFF;}
	.st3{fill:none;stroke:#000000;stroke-width:0.25;}
	.st4{fill:#FFED00;}
</style>
<g>
	<defs>
		<path id="SVGID_1_" d="M-204,420H-262c-3.8,0-7-3.1-7-7V381c0-3.8,3.1-7,7-7h58.1c3.8,0,7,3.1,7,7V413
			C-197,416.9-200.1,420-204,420z"/>
	</defs>
	<clipPath id="SVGID_2_">
		<use xlink:href="#SVGID_1_"  style="overflow:visible;"/>
	</clipPath>
	<g class="st0">
		<g>
			<polygon class="st1" points="-185.5,420.2 -280.4,420.2 -280.4,404.4 -185.5,404.4 			"/>
		</g>
		<g>
			<path d="M-185.3,420.3h-95.1v-16.1h95.1V420.3z M-280.2,420.1h94.6v-15.6h-94.6V420.1z"/>
		</g>
		<g>
			<polygon class="st2" points="-185.5,404.4 -280.4,404.4 -280.4,372.8 -185.5,372.8 			"/>
		</g>
		<g>
			<path d="M-185.3,404.5h-95.1v-31.9h95.1V404.5z M-280.2,404.3h94.6v-31.4h-94.6V404.3z"/>
		</g>
		<g>
			<path class="st2" d="M-232.9,396.5"/>
		</g>
		<g>
			<path class="st3" d="M-232.9,396.5"/>
		</g>
		<g>
			<polygon class="st1" points="-237,400.9 -236.6,393.9 -237,392.6 -236,383.9 -236.4,383 -236.4,380.9 -234.7,380.9 -234.7,382 
				-233.8,382 -233.8,380.9 -232,380.9 -232,382 -231.1,382 -231.1,380.9 -229.4,380.9 -229.4,383 -229.9,383.9 -228.8,392.6 
				-229.2,393.9 -228.8,400.9 			"/>
		</g>
		<g>
			<path d="M-228.7,400.9h-8.4l0.4-7.1l-0.4-1.3l0,0l1.1-8.7l-0.5-0.8v-2.2h1.9v1h0.8v-1h1.9v1h0.8v-1h1.9v2.2l0,0l-0.5,0.8l1.1,8.7
				l0,0l-0.4,1.3L-228.7,400.9z M-237,400.8h8.1l-0.4-6.9l0,0l0.4-1.3l-1.1-8.7l0,0l0.5-0.8v-2h-1.6v1h-1v-1h-1.6v1h-1v-1h-1.6v2
				l0.5,0.8l0,0l-1.1,8.7l0.4,1.3l0,0L-237,400.8z"/>
		</g>
		<g>
			<polygon class="st1" points="-237,400.9 -237.4,393.9 -237,392.6 -238.1,386 -237.6,385.1 -237.6,383 -239.4,383 -239.4,384.1 
				-240.3,384.1 -240.3,383 -242,383 -242,384.1 -242.9,384.1 -242.9,383 -244.7,383 -244.7,385.1 -244.2,386 -245.3,392.6 
				-244.8,393.9 -245.3,400.9 			"/>
		</g>
		<g>
			<path d="M-237,400.9h-8.4l0.4-7.1l-0.4-1.3l0,0l1.1-6.6l-0.5-0.8V383h1.9v1h0.8v-1h1.9v1h0.8v-1h1.9v2.2l0,0l-0.5,0.8l1.1,6.6
				l0,0l-0.4,1.3L-237,400.9z M-245.2,400.8h8.1l-0.4-6.9l0,0l0.4-1.3l-1.1-6.6l0.5-0.8v-2h-1.6v1h-1v-1h-1.6v1h-1v-1h-1.6v2
				l0.5,0.8l0,0l-1.1,6.6l0.4,1.3l0,0L-245.2,400.8z"/>
		</g>
		<g>
			<polygon class="st1" points="-228.8,400.9 -228.4,393.9 -228.8,392.6 -227.7,386 -228.2,385.1 -228.2,383 -226.4,383 
				-226.4,384.1 -225.6,384.1 -225.6,383 -223.8,383 -223.8,384.1 -222.9,384.1 -222.9,383 -221.1,383 -221.1,385.1 -221.6,386 
				-220.6,392.6 -221,393.9 -220.6,400.9 			"/>
		</g>
		<g>
			<path d="M-220.5,400.9H-237v-0.1h1.3v-1.1h-1.2v-0.1h8.1v0.1h-1.2v1.1h1.3l0.4-6.9l-0.4-1.3l0,0l1.1-6.6l-0.5-0.8V383h1.9v1h0.8
				v-1h1.9v1h0.8v-1h1.9v2.2l0,0l-0.5,0.8l1.1,6.6l0,0l-0.4,1.3L-220.5,400.9z M-221.9,400.8h1.2l-0.1-1.1h-1.2V400.8z
				 M-227.4,400.8h5.4v-1.1h-5.4V400.8z M-228.7,400.8h1.2v-1.1h-1.2L-228.7,400.8z M-235.6,400.8h5.4v-1.1h-5.4V400.8z
				 M-228.7,399.6h8l-0.1-1.1h-7.8L-228.7,399.6z M-221.9,398.3h1.1l-0.1-1.1h-1V398.3z M-227.4,398.3h5.4v-1.1h-5.4V398.3z
				 M-228.6,398.3h1.1v-1.1h-1L-228.6,398.3z M-223.2,397.1h2.4l-0.1-1.1h-2.3V397.1z M-226,397.1h2.6V396h-2.6V397.1z
				 M-228.5,397.1h2.4V396h-2.3L-228.5,397.1z M-221.9,395.8h1l-0.1-1.1h-0.9V395.8z M-224.6,395.8h2.6v-1.1h-2.6V395.8z
				 M-227.4,395.8h2.6v-1.1h-2.6V395.8z M-228.4,395.8h1v-1.1h-0.9L-228.4,395.8z M-223.2,394.6h2.3l0-0.7l0,0l0.4-1.3l-0.1-0.4
				h-1.2v1.2h-0.1v-1.2h-2.6v1.2h-0.1v-1.2h-2.6v1.2h-0.1v-1.2h-1.2l-0.1,0.4l0.4,1.3l0,0l0,0.7h2.3v-1.2h0.1v1.2h2.6v-1.2h0.1
				V394.6z M-228.6,392.1h8l-0.2-1.1h-7.6L-228.6,392.1z M-221.9,390.9h1l-0.2-1.1h-0.8V390.9z M-224.6,390.9h2.6v-1.1h-2.6V390.9z
				 M-227.4,390.9h2.6v-1.1h-2.6V390.9z M-228.4,390.9h1v-1.1h-0.8L-228.4,390.9z M-223.2,389.6h2.1l-0.2-1.1h-2V389.6z M-226,389.6
				h2.6v-1.1h-2.6V389.6z M-228.2,389.6h2.1v-1.1h-2L-228.2,389.6z M-221.9,388.4h0.6l-0.2-1.1h-0.4V388.4z M-224.6,388.4h2.6v-1.1
				h-2.6V388.4z M-227.4,388.4h2.6v-1.1h-2.6V388.4z M-228,388.4h0.6v-1.1h-0.4L-228,388.4z M-223.2,387.1h1.7l-0.2-1.2l0.5-0.8
				v-0.6h-1.6v0.6h-0.1v-1h-0.8v1h-0.1v-0.6h-1.6v0.6h-0.1v-1h-0.8v1h-0.1v-0.6h-1.6v0.6l0.5,0.8l0,0l-0.2,1.2h1.7V386h0.1v1.2h2.6
				V386h0.1V387.1z M-222.8,384.4h1.6v-0.6h-1.6V384.4z M-225.5,384.4h1.6v-0.6h-1.6V384.4z M-228.2,384.4h1.6v-0.6h-1.6V384.4z
				 M-222.8,383.7h1.6v-0.6h-1.6V383.7z M-225.5,383.7h1.6v-0.6h-1.6V383.7z M-228.2,383.7h1.6v-0.6h-1.6V383.7z M-237,400.9h-8.2
				v-0.1h1.3v-1.1h-1.2v-0.1h8.1v0.1h-1.2v1.1h1.3V400.9z M-243.8,400.8h5.4v-1.1h-5.4V400.8z M-228.9,398.4h-7.9v-0.1h1.2v-1.1
				h-1.1v-0.1h2.5V396h-2.4v-0.1h1v-1.1h-0.9v-0.1h2.3v-1.2h0.1v1.2h2.6v-1.2h0.1v1.2h2.3v0.1h-0.9v1.1h1v0.1h-2.4v1.1h2.5v0.1h-1.1
				v1.1h1.2V398.4z M-235.6,398.3h5.4v-1.1h-5.4V398.3z M-234.2,397.1h2.6V396h-2.6V397.1z M-232.8,395.8h2.6v-1.1h-2.6V395.8z
				 M-235.6,395.8h2.6v-1.1h-2.6V395.8z M-237.2,398.4h-7.9v-0.1h1.2v-1.1h-1.1v-0.1h2.5V396h-2.4v-0.1h1v-1.1h-0.9v-0.1h2.3v-1.2
				h0.1v1.2h2.6v-1.2h0.1v1.2h2.3v0.1h-0.9v1.1h1v0.1h-2.4v1.1h2.5v0.1h-1.1v1.1h1.2V398.4z M-243.8,398.3h5.4v-1.1h-5.4V398.3z
				 M-242.5,397.1h2.6V396h-2.6V397.1z M-241.1,395.8h2.6v-1.1h-2.6V395.8z M-243.8,395.8h2.6v-1.1h-2.6V395.8z M-230.1,393.4h-0.1
				v-1.2h-2.6v1.2h-0.1v-1.2h-2.6v1.2h-0.1v-1.2h-1.3v-0.1h8.1v0.1h-1.3V393.4z M-238.3,393.4h-0.1v-1.2h-2.6v1.2h-0.1v-1.2h-2.6
				v1.2h-0.1v-1.2h-1.3v-0.1h8.1v0.1h-1.2V393.4z M-229,391h-7.8v-0.1h1.1v-1.1h-0.9v-0.1h2.3v-1.1h-2.2v-0.1h0.8v-1.1h-0.6v-0.1h2
				V386h-1.9v-0.1h0.5v-1.1h-0.3v-0.1h1.7v-1.2h0.1v1.2h2.6v-1.2h0.1v1.2h1.7v0.1h-0.3v1.1h0.5v0.1h-1.9v1.1h2v0.1h-0.7v1.1h0.8v0.1
				h-2.2v1.1h2.3v0.1h-0.9v1.1h1.1V391z M-232.8,390.9h2.6v-1.1h-2.6V390.9z M-235.6,390.9h2.6v-1.1h-2.6V390.9z M-234.2,389.6h2.6
				v-1.1h-2.6V389.6z M-232.8,388.4h2.6v-1.1h-2.6V388.4z M-235.6,388.4h2.6v-1.1h-2.6V388.4z M-234.2,387.1h2.6V386h-2.6V387.1z
				 M-232.8,385.9h2.6v-1.1h-2.6V385.9z M-235.6,385.9h2.6v-1.1h-2.6V385.9z M-237.3,391h-7.7v-0.1h1v-1.1h-0.8v-0.1h2.2v-1.1h-2
				v-0.1h0.6v-1.1h-0.4v-0.1h1.8V386h0.1v1.2h2.6V386h0.1v1.2h1.8v0.1h-0.4v1.1h0.6v0.1h-2v1.1h2.2v0.1h-0.8v1.1h1V391z
				 M-241.1,390.9h2.6v-1.1h-2.6V390.9z M-243.8,390.9h2.6v-1.1h-2.6V390.9z M-242.5,389.6h2.6v-1.1h-2.6V389.6z M-241.1,388.4h2.6
				v-1.1h-2.6V388.4z M-243.8,388.4h2.6v-1.1h-2.6V388.4z M-239.3,385.1h-0.1v-1.1h0.1v0.3h1.7v0.1h-1.7V385.1z M-240.2,385.1h-0.1
				v-0.6h-1.6v0.6h-0.1v-1.1h0.1v0.3h1.6v-0.3h0.1V385.1z M-242.9,385.1h-0.1v-0.6h-1.7v-0.1h1.7v-0.3h0.1V385.1z M-237.6,383.8
				h-1.8v-0.1h1.8V383.8z M-240.3,383.8h-1.8v-0.1h1.8V383.8z M-242.9,383.8h-1.8v-0.1h1.8V383.8z M-231.1,383h-0.1V382h0.1v0.3h1.7
				v0.1h-1.7V383z M-232,383h-0.1v-0.6h-1.6v0.6h-0.1V382h0.1v0.3h1.6V382h0.1V383z M-234.6,383h-0.1v-0.6h-1.7v-0.1h1.7V382h0.1
				V383z M-229.4,381.7h-1.8v-0.1h1.8V381.7z M-232,381.7h-1.8v-0.1h1.8V381.7z M-234.7,381.7h-1.8v-0.1h1.8V381.7z"/>
		</g>
		<g>
			<polygon points="-229.4,383 -229.9,383.9 -236,383.9 -236.4,383 			"/>
		</g>
		<g>
			<path d="M-229.8,383.9h-6.2l0,0l-0.6-0.9h7.3L-229.8,383.9z M-235.9,383.8h6l0.4-0.7h-6.9L-235.9,383.8z"/>
		</g>
		<g>
			<polygon points="-229.2,393.9 -228.8,392.6 -237,392.6 -236.6,393.9 			"/>
		</g>
		<g>
			<path d="M-229.2,393.9h-7.5l-0.5-1.4h8.4L-229.2,393.9z M-236.6,393.8h7.3l0.4-1.2h-8.1L-236.6,393.8z"/>
		</g>
		<g>
			<polygon points="-244.7,385.1 -244.2,386 -238.1,386 -237.6,385.1 			"/>
		</g>
		<g>
			<path d="M-238.1,386h-6.2l0,0l-0.6-0.9h7.3L-238.1,386z M-244.2,385.9h6l0.4-0.7h-6.9L-244.2,385.9z"/>
		</g>
		<g>
			<polygon points="-244.8,393.9 -245.3,392.6 -237,392.6 -237.4,393.9 			"/>
		</g>
		<g>
			<path d="M-237.4,393.9h-7.5l-0.5-1.4h8.4L-237.4,393.9z M-244.8,393.8h7.3l0.4-1.2h-8.1L-244.8,393.8z"/>
		</g>
		<g>
			<polygon points="-221.1,385.1 -221.6,386 -227.7,386 -228.2,385.1 			"/>
		</g>
		<g>
			<path d="M-221.6,386h-6.2l0,0l-0.6-0.9h7.3L-221.6,386z M-227.7,385.9h6l0.4-0.7h-6.9L-227.7,385.9z"/>
		</g>
		<g>
			<polygon points="-221,393.9 -220.6,392.6 -228.8,392.6 -228.4,393.9 			"/>
		</g>
		<g>
			<path d="M-220.9,393.9h-7.5l0,0l-0.4-1.4h8.4L-220.9,393.9z M-228.3,393.8h7.3l0.4-1.2h-8.1L-228.3,393.8z"/>
		</g>
		<g>
			<path class="st1" d="M-231.5,397.8c0-0.8-0.6-1.5-1.4-1.5c-0.8,0-1.4,0.7-1.4,1.5v3.1h2.7L-231.5,397.8L-231.5,397.8z"/>
		</g>
		<g>
			<path d="M-231.5,400.9h-2.9v-3.1c0-0.9,0.6-1.6,1.4-1.6s1.4,0.7,1.4,1.6V400.9z M-234.2,400.8h2.6v-3c0-0.8-0.6-1.4-1.3-1.4
				s-1.3,0.6-1.3,1.4V400.8z"/>
		</g>
		<g>
			<path class="st1" d="M-232,398c0-0.7-0.4-1.2-0.9-1.2c-0.5,0-0.9,0.5-0.9,1.2v2.9h1.8V398L-232,398z"/>
		</g>
		<g>
			<path d="M-231.9,400.9h-2V398c0-0.7,0.4-1.3,1-1.3c0.6,0,1,0.6,1,1.3V400.9z M-233.8,400.8h1.7V398c0-0.6-0.4-1.1-0.9-1.1
				s-0.9,0.5-0.9,1.1V400.8z"/>
		</g>
		<g>
			<path class="st1" d="M-231.5,389.7c0-0.8-0.6-1.4-1.4-1.4c-0.8,0-1.4,0.6-1.4,1.4v2.9h2.7L-231.5,389.7L-231.5,389.7z"/>
		</g>
		<g>
			<path d="M-231.5,392.7h-2.9v-2.9c0-0.8,0.6-1.5,1.4-1.5s1.4,0.7,1.4,1.5V392.7z M-234.2,392.5h2.6v-2.8c0-0.7-0.6-1.3-1.3-1.3
				s-1.3,0.6-1.3,1.3V392.5z"/>
		</g>
		<g>
			<path class="st1" d="M-232,389.9c0-0.7-0.4-1.1-0.9-1.1s-0.9,0.5-0.9,1.1v2.7h1.8V389.9L-232,389.9z"/>
		</g>
		<g>
			<path d="M-231.9,392.7h-2v-2.7c0-0.7,0.4-1.2,1-1.2c0.5,0,1,0.5,1,1.2V392.7z M-233.8,392.5h1.7v-2.6c0-0.6-0.4-1.1-0.9-1.1
				c-0.5,0-0.9,0.5-0.9,1.1V392.5z"/>
		</g>
		<g>
			<path class="st1" d="M-242.5,397.8c0-0.8,0.6-1.5,1.4-1.5c0.8,0,1.4,0.7,1.4,1.5v3.1h-2.7V397.8L-242.5,397.8z"/>
		</g>
		<g>
			<path d="M-239.7,400.9h-2.9v-3.1c0-0.9,0.6-1.6,1.4-1.6s1.4,0.7,1.4,1.6V400.9z M-242.5,400.8h2.6v-3c0-0.8-0.6-1.4-1.3-1.4
				s-1.3,0.6-1.3,1.4V400.8z"/>
		</g>
		<g>
			<path class="st1" d="M-242.1,398c0-0.7,0.4-1.2,0.9-1.2s0.9,0.5,0.9,1.2v2.9h-1.8V398L-242.1,398z"/>
		</g>
		<g>
			<path d="M-240.2,400.9h-2V398c0-0.7,0.4-1.3,1-1.3c0.6,0,1,0.6,1,1.3V400.9z M-242,400.8h1.7V398c0-0.6-0.4-1.1-0.9-1.1
				s-0.9,0.5-0.9,1.1V400.8z"/>
		</g>
		<g>
			<path class="st1" d="M-242.5,389.7c0-0.8,0.6-1.4,1.4-1.4c0.8,0,1.4,0.6,1.4,1.4v2.9h-2.7V389.7L-242.5,389.7z"/>
		</g>
		<g>
			<path d="M-239.7,392.7h-2.9v-2.9c0-0.8,0.6-1.5,1.4-1.5s1.4,0.7,1.4,1.5V392.7z M-242.5,392.5h2.6v-2.8c0-0.7-0.6-1.3-1.3-1.3
				s-1.3,0.6-1.3,1.3V392.5z"/>
		</g>
		<g>
			<path class="st1" d="M-242.1,389.9c0-0.7,0.4-1.1,0.9-1.1c0.5,0,0.9,0.5,0.9,1.1v2.7h-1.8L-242.1,389.9L-242.1,389.9z"/>
		</g>
		<g>
			<path d="M-240.2,392.7h-2v-2.7c0-0.7,0.4-1.2,1-1.2s1,0.5,1,1.2V392.7z M-242,392.5h1.7v-2.6c0-0.6-0.4-1.1-0.9-1.1
				s-0.9,0.5-0.9,1.1V392.5z"/>
		</g>
		<g>
			<path class="st1" d="M-223.3,397.8c0-0.8-0.6-1.5-1.4-1.5c-0.8,0-1.4,0.7-1.4,1.5v3.1h2.7V397.8L-223.3,397.8z"/>
		</g>
		<g>
			<path d="M-223.2,400.9h-2.9v-3.1c0-0.9,0.6-1.6,1.4-1.6s1.4,0.7,1.4,1.6V400.9z M-226,400.8h2.6v-3c0-0.8-0.6-1.4-1.3-1.4
				s-1.3,0.6-1.3,1.4V400.8z"/>
		</g>
		<g>
			<path class="st1" d="M-223.8,398c0-0.7-0.4-1.2-0.9-1.2c-0.5,0-0.9,0.5-0.9,1.2v2.9h1.8V398L-223.8,398z"/>
		</g>
		<g>
			<path d="M-223.7,400.9h-2V398c0-0.7,0.4-1.3,1-1.3s1,0.6,1,1.3V400.9z M-225.5,400.8h1.7V398c0-0.6-0.4-1.1-0.9-1.1
				s-0.9,0.5-0.9,1.1V400.8z"/>
		</g>
		<g>
			<path class="st1" d="M-223.3,389.7c0-0.8-0.6-1.4-1.4-1.4c-0.8,0-1.4,0.6-1.4,1.4v2.9h2.7V389.7L-223.3,389.7z"/>
		</g>
		<g>
			<path d="M-223.2,392.7h-2.9v-2.9c0-0.8,0.6-1.5,1.4-1.5s1.4,0.7,1.4,1.5V392.7z M-226,392.5h2.6v-2.8c0-0.7-0.6-1.3-1.3-1.3
				s-1.3,0.6-1.3,1.3V392.5z"/>
		</g>
		<g>
			<path class="st1" d="M-223.8,389.9c0-0.7-0.4-1.1-0.9-1.1c-0.5,0-0.9,0.5-0.9,1.1v2.7h1.8V389.9L-223.8,389.9z"/>
		</g>
		<g>
			<path d="M-223.7,392.7h-2v-2.7c0-0.7,0.4-1.2,1-1.2s1,0.5,1,1.2V392.7z M-225.5,392.5h1.7v-2.6c0-0.6-0.4-1.1-0.9-1.1
				s-0.9,0.5-0.9,1.1V392.5z"/>
		</g>
		<g>
			<polygon class="st1" points="-228.8,391.2 -228.8,392.6 -237,392.6 -237,391.2 			"/>
		</g>
		<g>
			<path d="M-228.7,392.7h-8.4v-1.5h8.4V392.7z M-237,392.5h8.1v-1.3h-8.1V392.5z"/>
		</g>
		<g>
			<polygon class="st1" points="-245.3,391.2 -245.3,392.6 -237,392.6 -237,391.2 			"/>
		</g>
		<g>
			<path d="M-237,392.7h-8.4v-1.5h8.4V392.7z M-245.2,392.5h8.1v-1.3h-8.1V392.5z"/>
		</g>
		<g>
			<polygon class="st1" points="-220.6,391.2 -220.6,392.6 -228.8,392.6 -228.8,391.2 			"/>
		</g>
		<g>
			<path d="M-220.5,392.7h-8.4v-1.5h8.4V392.7z M-228.7,392.5h8.1v-1.3h-8.1V392.5z"/>
		</g>
		<g>
			<polygon class="st1" points="-220.4,391.1 -220.4,391.4 -245.4,391.4 -245.4,391.1 			"/>
		</g>
		<g>
			<path d="M-220.3,391.5h-25.1V391h25.1V391.5z M-245.3,391.3h24.9v-0.2h-24.9V391.3z"/>
		</g>
		<g>
			<polygon class="st1" points="-220.4,392.7 -220.4,392.4 -245.4,392.4 -245.4,392.7 			"/>
		</g>
		<g>
			<path d="M-220.3,392.7h-25.1v-0.4h25.1V392.7z M-245.3,392.6h24.9v-0.2h-24.9V392.6z"/>
		</g>
		<g>
			<polygon class="st1" points="-234.8,392.1 -234.9,392.2 -236.2,392.2 -236.3,392.1 -236.3,391.9 -234.8,391.9 			"/>
		</g>
		<g>
			<path d="M-234.9,392.3h-1.4l-0.1-0.2v-0.2h1.6l0,0.3L-234.9,392.3z M-236.2,392.2h1.2l0-0.1l0-0.1h-1.3L-236.2,392.2
				L-236.2,392.2z"/>
		</g>
		<g>
			<polygon class="st1" points="-236.3,390.1 -236.3,392.1 -234.8,392.1 -234.8,390.1 			"/>
		</g>
		<g>
			<path d="M-234.8,392.2h-1.6v-2.1h1.6V392.2z M-236.2,392h1.3v-1.9h-1.3V392z"/>
		</g>
		<g>
			<polygon class="st1" points="-231,392.1 -230.9,392.2 -229.6,392.2 -229.5,392.1 -229.5,391.9 -231,391.9 			"/>
		</g>
		<g>
			<path d="M-229.6,392.3h-1.4l-0.1-0.2l0-0.2h1.6l0,0.3L-229.6,392.3z M-230.9,392.2h1.2l0-0.1V392h-1.3L-230.9,392.2L-230.9,392.2
				z"/>
		</g>
		<g>
			<polygon class="st1" points="-229.5,390.1 -229.5,392.1 -231,392.1 -231,390.1 			"/>
		</g>
		<g>
			<path d="M-229.5,392.2h-1.6v-2.1h1.6V392.2z M-230.9,392h1.3v-1.9h-1.3V392z"/>
		</g>
		<g>
			<polygon class="st1" points="-239.2,392.1 -239.2,392.2 -237.8,392.2 -237.8,392.1 -237.8,391.9 -239.2,391.9 			"/>
		</g>
		<g>
			<path d="M-237.8,392.3h-1.4l-0.1-0.2l0-0.2h1.6l0,0.3L-237.8,392.3z M-239.1,392.2h1.2l0-0.1V392h-1.3L-239.1,392.2L-239.1,392.2
				z"/>
		</g>
		<g>
			<polygon class="st1" points="-237.8,390.1 -237.8,392.1 -239.2,392.1 -239.2,390.1 			"/>
		</g>
		<g>
			<path d="M-237.7,392.2h-1.6v-2.1h1.6V392.2z M-239.2,392h1.3v-1.9h-1.3V392z"/>
		</g>
		<g>
			<polygon class="st1" points="-243.1,392.1 -243.1,392.2 -244.4,392.2 -244.5,392.1 -244.5,391.9 -243.1,391.9 			"/>
		</g>
		<g>
			<path d="M-243.1,392.3h-1.4l-0.1-0.2v-0.2h1.6l0,0.3L-243.1,392.3z M-244.4,392.2h1.2l0-0.1l0-0.1h-1.3L-244.4,392.2
				L-244.4,392.2z"/>
		</g>
		<g>
			<polygon class="st1" points="-244.5,390.1 -244.5,392.1 -243.1,392.1 -243.1,390.1 			"/>
		</g>
		<g>
			<path d="M-243,392.2h-1.6v-2.1h1.6V392.2z M-244.4,392h1.3v-1.9h-1.3V392z"/>
		</g>
		<g>
			<polygon class="st1" points="-226.6,392.1 -226.7,392.2 -228,392.2 -228,392.1 -228,391.9 -226.6,391.9 			"/>
		</g>
		<g>
			<path d="M-226.6,392.3h-1.4l-0.1-0.2v-0.2h1.6l0,0.3L-226.6,392.3z M-227.9,392.2h1.2l0-0.1V392h-1.3L-227.9,392.2L-227.9,392.2z
				"/>
		</g>
		<g>
			<polygon class="st1" points="-228,390.1 -228,392.1 -226.6,392.1 -226.6,390.1 			"/>
		</g>
		<g>
			<path d="M-226.5,392.2h-1.6v-2.1h1.6V392.2z M-228,392h1.3v-1.9h-1.3V392z"/>
		</g>
		<g>
			<polygon class="st1" points="-222.8,392.1 -222.7,392.2 -221.4,392.2 -221.3,392.1 -221.3,391.9 -222.8,391.9 			"/>
		</g>
		<g>
			<path d="M-221.3,392.3h-1.4l-0.1-0.2v-0.2h1.6l0,0.3L-221.3,392.3z M-222.7,392.2h1.2l0-0.1V392h-1.3L-222.7,392.2L-222.7,392.2z
				"/>
		</g>
		<g>
			<polygon class="st1" points="-221.3,390.1 -221.3,392.1 -222.8,392.1 -222.8,390.1 			"/>
		</g>
		<g>
			<path d="M-221.3,392.2h-1.6v-2.1h1.6V392.2z M-222.7,392h1.3v-1.9h-1.3V392z"/>
		</g>
		<g>
			<polygon class="st1" points="-219.8,402.7 -219.8,400.9 -246.1,400.9 -246.1,402.7 			"/>
		</g>
		<g>
			<path d="M-219.7,402.8h-26.4v-1.9h26.4V402.8z M-246,402.6h26.2v-1.7H-246V402.6z"/>
		</g>
		<g>
			<polygon class="st4" points="-232.5,400.9 -232.5,404.5 -230.3,406.7 -232.5,408.8 -232.5,418.3 -233.2,418.3 -233.2,417.2 
				-235.6,417.2 -235.6,415.8 -234.9,415.8 -234.9,416.5 -233.2,416.5 -233.2,414.4 -234.9,414.4 -234.9,415.1 -235.6,415.1 
				-235.6,413.7 -233.2,413.7 -233.2,408.8 -235.4,406.7 -233.2,404.5 -233.2,400.9 			"/>
		</g>
		<g>
			<path d="M-232.4,418.3h-0.8v-1.1h-2.4v-1.5h0.8v0.7h1.6v-2h-1.6v0.7h-0.8v-1.5h2.4v-4.8l-2.2-2.2l0,0l2.1-2.1v-3.7h0.8v3.7
				l2.2,2.2l0,0l-2.1,2.1V418.3z M-233.1,418.2h0.6v-9.4l0,0l2.1-2.1l-2.1-2.1v-3.6h-0.6v3.6l0,0l-2.1,2.1l2.1,2.1v5h-2.4v1.3h0.6
				v-0.7h1.8v2.2h-1.8v-0.7h-0.6v1.3h2.4V418.2z"/>
		</g>
		<g>
			<polygon class="st1" points="-232.8,408.2 -231.3,406.7 -232.8,405.2 -234.3,406.7 			"/>
		</g>
		<g>
			<path d="M-232.8,408.3L-232.8,408.3l-1.6-1.6l1.6-1.6l1.6,1.6l0,0L-232.8,408.3z M-234.3,406.7l1.4,1.4l1.4-1.4l-1.4-1.4
				L-234.3,406.7z"/>
		</g>
	</g>
</g>
</svg>
