<?xml version="1.0" encoding="utf-8"?>
<!-- Generator: Adobe Illustrator 19.0.0, SVG Export Plug-In . SVG Version: 6.00 Build 0)  -->
<svg version="1.1" id="Layer_1" xmlns="http://www.w3.org/2000/svg" xmlns:xlink="http://www.w3.org/1999/xlink" x="0px" y="0px"
	 viewBox="-269 374 72 46" style="enable-background:new -269 374 72 46;" xml:space="preserve">
<style type="text/css">
	.st0{clip-path:url(#SVGID_2_);}
	.st1{fill:#E40520;}
	.st2{fill:#FFFFFF;}
</style>
<g>
	<defs>
		<path id="SVGID_1_" d="M-204,420H-262c-3.8,0-7-3.1-7-7V381c0-3.8,3.1-7,7-7h58.1c3.8,0,7,3.1,7,7V413
			C-197,416.9-200.1,420-204,420z"/>
	</defs>
	<clipPath id="SVGID_2_">
		<use xlink:href="#SVGID_1_"  style="overflow:visible;"/>
	</clipPath>
	<g class="st0">
		<g>
			<polygon class="st1" points="-196.1,421.9 -269.9,421.9 -269.9,397 -196.1,397 			"/>
		</g>
		<g>
			<path d="M-195.9,422h-74.1v-25.1h74.1V422z M-269.8,421.8h73.6v-24.6h-73.6V421.8z"/>
		</g>
		<g>
			<polygon class="st2" points="-196.1,397 -269.9,397 -269.9,372.1 -196.1,372.1 			"/>
		</g>
		<g>
			<path d="M-195.9,397.1h-74.1V372h74.1V397.1z M-269.8,396.9h73.6v-24.6h-73.6V396.9z"/>
		</g>
		<g>
			<path class="st1" d="M-220.5,397c0-10.2-8.3-18.5-18.5-18.5c-10.2,0-18.5,8.3-18.5,18.5H-220.5L-220.5,397z"/>
		</g>
		<g>
			<path d="M-220.3,397.1h-37.2V397c0-10.3,8.4-18.6,18.6-18.6c10.3,0,18.6,8.4,18.6,18.6V397.1z M-257.3,396.9h36.7
				c-0.1-10.1-8.3-18.2-18.4-18.2S-257.3,386.8-257.3,396.9z"/>
		</g>
		<g>
			<path class="st2" d="M-257.5,397c0,10.2,8.3,18.5,18.5,18.5c10.2,0,18.5-8.3,18.5-18.5H-257.5L-257.5,397z"/>
		</g>
		<g>
			<path d="M-239,415.6c-10.3,0-18.6-8.4-18.6-18.6v-0.1h37.2v0.1C-220.3,407.3-228.7,415.6-239,415.6z M-257.3,397.1
				c0.1,10.1,8.3,18.2,18.4,18.2s18.3-8.2,18.4-18.2H-257.3z"/>
		</g>
	</g>
</g>
</svg>
