<?xml version="1.0" encoding="utf-8"?>
<!-- Generator: Adobe Illustrator 19.0.0, SVG Export Plug-In . SVG Version: 6.00 Build 0)  -->
<svg version="1.1" id="Layer_1" xmlns="http://www.w3.org/2000/svg" xmlns:xlink="http://www.w3.org/1999/xlink" x="0px" y="0px"
	 viewBox="-269 374 72 46" style="enable-background:new -269 374 72 46;" xml:space="preserve">
<style type="text/css">
	.st0{clip-path:url(#SVGID_2_);fill:#DA121A;}
	.st1{clip-path:url(#SVGID_4_);fill:#008000;}
	.st2{clip-path:url(#SVGID_6_);fill:#008000;}
	.st3{clip-path:url(#SVGID_8_);fill:#008000;}
	.st4{clip-path:url(#SVGID_10_);fill:#008000;}
	.st5{clip-path:url(#SVGID_12_);fill:#008000;}
	.st6{clip-path:url(#SVGID_14_);fill:#008000;}
	.st7{clip-path:url(#SVGID_16_);fill:#008000;}
	.st8{clip-path:url(#SVGID_18_);fill:#008000;}
	.st9{clip-path:url(#SVGID_20_);fill:#008000;}
	.st10{clip-path:url(#SVGID_22_);fill:#008000;}
	.st11{clip-path:url(#SVGID_24_);fill:#FCDD09;}
	.st12{clip-path:url(#SVGID_26_);fill:#008000;}
	.st13{clip-path:url(#SVGID_28_);fill:#008000;}
	.st14{clip-path:url(#SVGID_30_);fill:#008000;}
	.st15{clip-path:url(#SVGID_32_);fill:#002488;}
	.st16{clip-path:url(#SVGID_34_);fill:#FCDD09;}
	.st17{clip-path:url(#SVGID_36_);fill:#FCDD09;}
	.st18{clip-path:url(#SVGID_38_);fill:#FCDD09;}
	.st19{clip-path:url(#SVGID_40_);fill:#FCDD09;}
	.st20{clip-path:url(#SVGID_42_);fill:#FCDD09;}
	.st21{clip-path:url(#SVGID_44_);fill:#FCDD09;}
	.st22{clip-path:url(#SVGID_46_);fill:#FCDD09;}
	.st23{clip-path:url(#SVGID_48_);fill:#FCDD09;}
	.st24{clip-path:url(#SVGID_50_);fill:#FCDD09;}
	.st25{clip-path:url(#SVGID_52_);fill:#FCDD09;}
	.st26{clip-path:url(#SVGID_54_);fill:#FCDD09;}
	.st27{clip-path:url(#SVGID_56_);fill:#FCDD09;}
	.st28{clip-path:url(#SVGID_58_);fill:#FCDD09;}
	.st29{clip-path:url(#SVGID_60_);fill:#FCDD09;}
	.st30{clip-path:url(#SVGID_62_);fill:#FCDD09;}
</style>
<g>
	<defs>
		<path id="SVGID_1_" d="M-204,420H-262c-3.8,0-7-3.1-7-7V381c0-3.8,3.1-7,7-7h58.1c3.8,0,7,3.1,7,7V413
			C-197,416.9-200.1,420-204,420z"/>
	</defs>
	<clipPath id="SVGID_2_">
		<use xlink:href="#SVGID_1_"  style="overflow:visible;"/>
	</clipPath>
	<rect x="-269.7" y="389.3" class="st0" width="73.7" height="32.8"/>
</g>
<g>
	<defs>
		<path id="SVGID_3_" d="M-204,420H-262c-3.8,0-7-3.1-7-7V381c0-3.8,3.1-7,7-7h58.1c3.8,0,7,3.1,7,7V413
			C-197,416.9-200.1,420-204,420z"/>
	</defs>
	<clipPath id="SVGID_4_">
		<use xlink:href="#SVGID_3_"  style="overflow:visible;"/>
	</clipPath>
	<path class="st1" d="M-257.5,392.7c2,1.6,3.9,3.4,5.6,5.2C-254.2,396.5-256.4,395.2-257.5,392.7z"/>
</g>
<g>
	<defs>
		<path id="SVGID_5_" d="M-204,420H-262c-3.8,0-7-3.1-7-7V381c0-3.8,3.1-7,7-7h58.1c3.8,0,7,3.1,7,7V413
			C-197,416.9-200.1,420-204,420z"/>
	</defs>
	<clipPath id="SVGID_6_">
		<use xlink:href="#SVGID_5_"  style="overflow:visible;"/>
	</clipPath>
	<path class="st2" d="M-241.9,399.3c-0.2,0-0.4,0.1-0.6,0.1c-0.7-0.1-0.9-0.7-1.8-0.6c0.5,0.3,1.1,0.4,1.5,0.7c-0.5,0.1-1,0.2-1.5,0
		c-0.4-0.2-0.8-0.4-1.1-0.8c-0.2,0-0.3,0-0.5,0c-0.2-0.2-0.4-0.3-0.5-0.5c0.1,0,0.2,0,0.3,0c-0.9-0.8-1.4-2-1.9-3.2
		c1,1,1.9,2.1,2.8,3.3c0.3,0,0.5,0.1,0.8,0.1c-0.6-0.8-1.3-1.9-1.7-3.1c-0.1-0.4-0.4-0.9-0.1-1.2c0.4,0.2,0.3,0.7,0.4,1
		c0.1,0.3,0.3,0.7,0.5,1c0.4,0.9,0.8,1.8,1.6,2.3c0.2,0.1,0.5,0,0.7,0.2c0,0.1-0.1,0.1-0.1,0.1C-242.8,399-242.3,399.1-241.9,399.3z
		"/>
</g>
<g>
	<defs>
		<path id="SVGID_7_" d="M-204,420H-262c-3.8,0-7-3.1-7-7V381c0-3.8,3.1-7,7-7h58.1c3.8,0,7,3.1,7,7V413
			C-197,416.9-200.1,420-204,420z"/>
	</defs>
	<clipPath id="SVGID_8_">
		<use xlink:href="#SVGID_7_"  style="overflow:visible;"/>
	</clipPath>
	<path class="st3" d="M-247.5,405c0.2,0.1,0.3,0.2,0.4,0.3c-0.5,0.5-0.7,1.4-0.9,2.3c0,0,0,0-0.1,0
		C-248.1,406.5-248.1,405.5-247.5,405z"/>
</g>
<g>
	<defs>
		<path id="SVGID_9_" d="M-204,420H-262c-3.8,0-7-3.1-7-7V381c0-3.8,3.1-7,7-7h58.1c3.8,0,7,3.1,7,7V413
			C-197,416.9-200.1,420-204,420z"/>
	</defs>
	<clipPath id="SVGID_10_">
		<use xlink:href="#SVGID_9_"  style="overflow:visible;"/>
	</clipPath>
	<path class="st4" d="M-246,405.7c0.2,0.1,0.3,0.1,0.5,0.1c-0.5,0.4-0.8,1.1-1.3,1.5C-246.8,406.6-246.4,406.1-246,405.7z"/>
</g>
<g>
	<defs>
		<path id="SVGID_11_" d="M-204,420H-262c-3.8,0-7-3.1-7-7V381c0-3.8,3.1-7,7-7h58.1c3.8,0,7,3.1,7,7V413
			C-197,416.9-200.1,420-204,420z"/>
	</defs>
	<clipPath id="SVGID_12_">
		<use xlink:href="#SVGID_11_"  style="overflow:visible;"/>
	</clipPath>
	<path class="st5" d="M-218.5,409.9c-0.8-0.2-1.5-0.4-2.3-0.6C-219.9,409.1-219,409.5-218.5,409.9
		C-218.5,409.8-218.5,409.9-218.5,409.9z"/>
</g>
<g>
	<defs>
		<path id="SVGID_13_" d="M-204,420H-262c-3.8,0-7-3.1-7-7V381c0-3.8,3.1-7,7-7h58.1c3.8,0,7,3.1,7,7V413
			C-197,416.9-200.1,420-204,420z"/>
	</defs>
	<clipPath id="SVGID_14_">
		<use xlink:href="#SVGID_13_"  style="overflow:visible;"/>
	</clipPath>
	<path class="st6" d="M-221.3,409.4c4.4,1.3,9,2.5,13.6,3.6c0,0.2-0.2,0.4-0.2,0.6c-4.7-1.3-9.5-2.6-14-4
		C-221.7,409.5-221.5,409.5-221.3,409.4z"/>
</g>
<g>
	<defs>
		<path id="SVGID_15_" d="M-204,420H-262c-3.8,0-7-3.1-7-7V381c0-3.8,3.1-7,7-7h58.1c3.8,0,7,3.1,7,7V413
			C-197,416.9-200.1,420-204,420z"/>
	</defs>
	<clipPath id="SVGID_16_">
		<use xlink:href="#SVGID_15_"  style="overflow:visible;"/>
	</clipPath>
	<path class="st7" d="M-218.6,409.4c3.7,1,7.6,1.7,11.5,2.5c0,0.2-0.2,0.4-0.2,0.7c-3.6-0.9-7.3-1.8-10.9-2.7
		C-218.3,409.8-218.4,409.6-218.6,409.4C-218.6,409.4-218.6,409.4-218.6,409.4z"/>
</g>
<g>
	<defs>
		<path id="SVGID_17_" d="M-204,420H-262c-3.8,0-7-3.1-7-7V381c0-3.8,3.1-7,7-7h58.1c3.8,0,7,3.1,7,7V413
			C-197,416.9-200.1,420-204,420z"/>
	</defs>
	<clipPath id="SVGID_18_">
		<use xlink:href="#SVGID_17_"  style="overflow:visible;"/>
	</clipPath>
	<path class="st8" d="M-222.1,409.8c4.4,1.6,9,3,13.7,4.4c-0.1,0.2-0.2,0.3-0.2,0.6c-4.5-1.4-8.7-3-13.2-4.4c-0.1,0-0.2-0.1-0.3-0.1
		c-0.1-0.1-0.3-0.1-0.4-0.3C-222.4,409.9-222.3,409.8-222.1,409.8z"/>
</g>
<g>
	<defs>
		<path id="SVGID_19_" d="M-204,420H-262c-3.8,0-7-3.1-7-7V381c0-3.8,3.1-7,7-7h58.1c3.8,0,7,3.1,7,7V413
			C-197,416.9-200.1,420-204,420z"/>
	</defs>
	<clipPath id="SVGID_20_">
		<use xlink:href="#SVGID_19_"  style="overflow:visible;"/>
	</clipPath>
	<path class="st9" d="M-222.6,411.8c3.9,2.1,8,4,12.1,5.9c0,0.3-0.2,0.3-0.3,0.6c-4.2-2.1-8.4-4.2-12.5-6.3
		C-223.1,411.8-222.9,411.8-222.6,411.8z"/>
</g>
<g>
	<defs>
		<path id="SVGID_21_" d="M-204,420H-262c-3.8,0-7-3.1-7-7V381c0-3.8,3.1-7,7-7h58.1c3.8,0,7,3.1,7,7V413
			C-197,416.9-200.1,420-204,420z"/>
	</defs>
	<clipPath id="SVGID_22_">
		<use xlink:href="#SVGID_21_"  style="overflow:visible;"/>
	</clipPath>
	<path class="st10" d="M-219.6,412.4c3.2,1.4,6.6,2.7,9.9,4.1c-0.1,0.2-0.2,0.3-0.3,0.6c-3.2-1.3-6.2-2.8-9.4-4.1
		C-219.5,412.7-219.6,412.6-219.6,412.4z"/>
</g>
<g>
	<defs>
		<path id="SVGID_23_" d="M-204,420H-262c-3.8,0-7-3.1-7-7V381c0-3.8,3.1-7,7-7h58.1c3.8,0,7,3.1,7,7V413
			C-197,416.9-200.1,420-204,420z"/>
	</defs>
	<clipPath id="SVGID_24_">
		<use xlink:href="#SVGID_23_"  style="overflow:visible;"/>
	</clipPath>
	<path class="st11" d="M-241.9,399.3C-241.9,399.3-241.9,399.3-241.9,399.3c0-0.2-0.2-0.2-0.3-0.3c-1.2-0.7-2.1-1.8-2.3-3.5
		c0.7,1.4,2,2.2,4.2,2c-0.9-0.9-2-2-1.8-4.2c0.5,1.7,1.8,2.6,3.7,2.8c-0.8-0.9-1.5-2.7-1-4.5c0.2,2,1.4,3,3.1,3.5
		c-0.2-0.5-0.5-1.2-0.6-2c-0.1-1,0.2-1.9,0.6-2.7c-0.3,2.3,1,3.3,2.3,4.1c-0.5-1.6,0.1-3.6,0.9-4.5c0,0.4-0.2,0.8-0.3,1.3
		c-0.1,1.5,0.9,2.5,1.7,3.3c-0.2-1.9,0.6-3.1,1.5-3.9c0.1-0.1,0.1-0.3,0.3-0.2c-0.2,0.5-0.6,0.9-0.6,1.5c-0.1,1.3,0.6,2.3,1,3.1
		c0.4-1.8,1.3-3,2.7-3.8c-0.3,0.6-1,1.2-1.1,2.2c-0.1,0.9,0.3,1.7,0.5,2.5c0.6-1.5,1.7-2.7,3.4-3.1c-0.8,0.6-1.6,1.5-1.7,2.9
		c0,0.5,0.1,1,0.1,1.5c0.8-1.1,2-2.2,4-2.3c-1.6,0.6-2.4,1.9-2.4,4c0.9-0.9,2.3-1.8,4.4-1.5c-0.9,0.3-1.6,0.6-2.1,1.2
		c-0.5,0.6-0.8,1.4-1,2.3c1-0.8,3.1-1.2,4.6-0.5c-2.2-0.1-3.1,1.2-3.9,2.7c0.5-0.1,1-0.3,1.6-0.4c1.2-0.1,2.3,0.4,3,0.8
		c-0.5,0-0.9-0.1-1.4-0.1c-1.4,0.1-2.2,1.2-2.9,2c2-0.4,3.5,0.4,4.4,1.4c-0.5-0.1-1.1-0.4-1.7-0.4c-1.2,0-2.2,0.8-2.9,1.4
		c1.6,0.1,2.7,0.7,3.5,1.6c0,0,0,0,0,0c0.2,0.1,0.3,0.3,0.4,0.5c0,0,0.1,0.1,0.1,0.1c-0.1,0-0.3-0.2-0.4-0.2c0,0,0,0,0,0
		c-0.6-0.4-1.4-0.7-2.3-0.5c-0.2,0-0.4,0-0.5,0.1c-0.2,0-0.4,0.1-0.6,0.2c-0.1,0-0.2,0.1-0.3,0.1c-0.2,0-0.3,0.1-0.4,0.2
		c-0.1,0-0.1,0.1-0.2,0.1c0.2,0.1,0.4,0.2,0.6,0.2c0.1,0,0.2,0.1,0.3,0.1c0.4,0.2,0.7,0.4,1,0.6c0.3,0.3,0.5,0.5,0.8,0.8
		c0.1,0.2,0.3,0.4,0.4,0.6c0.1,0.2,0.2,0.4,0.3,0.6c0,0,0,0.1,0.1,0.1c-0.1,0.1-0.2-0.2-0.4-0.3c-0.5-0.6-1.3-1.1-2.4-1.1
		c-0.2,0-0.4,0-0.6,0.1c-0.3,0-0.5,0.1-0.7,0.1c-0.2,0-0.3,0.1-0.5,0.1c1.4,0.8,2.5,1.9,2.7,3.8c-0.7-1.4-1.9-2.2-4.2-2
		c0.9,0.9,2,2.1,1.9,4.2c-0.5-1.7-1.7-2.6-3.7-2.8c0.7,0.9,1.6,2.8,0.9,4.5c-0.1-2.1-1.4-2.9-3-3.5c0.2,0.5,0.5,1.2,0.6,2.1
		c0.1,1-0.3,1.9-0.6,2.5c0.2-2.3-1-3.3-2.3-4.1c0.6,1.7,0,3.6-0.9,4.5c0-0.5,0.3-0.9,0.3-1.4c0-1.4-1-2.3-1.7-3.1
		c0.1,1.9-0.7,3-1.5,3.9c-0.1,0.1-0.2,0.3-0.3,0.2c1.1-1.3,0.5-3.6-0.4-4.6c-0.3,1.8-1.3,3-2.7,3.8c0.4-0.6,1-1.2,1.1-2.3
		c0.1-0.9-0.3-1.7-0.5-2.4c-0.7,1.5-1.7,2.7-3.4,3.1c1.3-0.8,2-2.4,1.5-4.4c-0.8,1.1-2,2.3-4,2.3c1.6-0.6,2.4-1.9,2.5-4
		c-0.9,0.8-2.3,1.8-4.4,1.4c1.9-0.3,2.8-1.6,3.2-3.4c-1,0.7-3.1,1.2-4.6,0.5c2.2,0,3.2-1.2,3.9-2.7c-1.4,0.7-3.7,0.4-4.6-0.4
		c0,0,0,0,0.1,0c0,0,0,0,0.1,0c1.9,0.6,3-0.5,3.9-1.5c0.1-0.1,0.2-0.2,0.2-0.3c-0.5,0.1-1.1,0.1-1.6,0c-0.2,0-0.4-0.1-0.5-0.1
		c-0.4-0.1-0.7-0.3-1.1-0.4c-0.1-0.1-0.2-0.2-0.4-0.3c-0.2-0.2-0.5-0.4-0.7-0.6c0.3,0,0.7,0.3,1.1,0.3c0.2,0.1,0.5,0.1,0.8,0.1
		c0.5,0,0.9-0.1,1.3-0.3c0.2,0,0.3-0.1,0.4-0.2c0.1,0,0.2-0.1,0.2-0.1c0.2-0.1,0.5-0.3,0.7-0.5c0.1,0,0.2-0.1,0.2-0.1
		c-0.9-0.1-1.7-0.3-2.4-0.7c-0.1-0.2-0.3-0.2-0.5-0.4c-0.2-0.2-0.4-0.4-0.6-0.6c-0.1-0.2-0.3-0.4-0.4-0.6c0.7,0.5,2.1,1.2,3.3,0.6
		c0.2,0,0.4-0.1,0.6-0.2c0.1-0.1,0.3-0.1,0.4-0.2c0.1-0.1,0.3-0.1,0.4-0.2c-0.9-0.2-1.6-0.6-2.2-1.1c-0.6-0.5-1-1.2-1.3-2
		c0-0.1,0,0,0.1,0c0.2,0.2,0.3,0.4,0.5,0.5c0,0,0,0,0,0c0.4,0.4,0.9,0.7,1.6,0.7c0.5,0.1,1,0,1.5,0c0.1-0.1,0.2,0,0.3-0.1
		C-242.3,399.4-242.1,399.3-241.9,399.3z"/>
</g>
<g>
	<defs>
		<path id="SVGID_25_" d="M-204,420H-262c-3.8,0-7-3.1-7-7V381c0-3.8,3.1-7,7-7h58.1c3.8,0,7,3.1,7,7V413
			C-197,416.9-200.1,420-204,420z"/>
	</defs>
	<clipPath id="SVGID_26_">
		<use xlink:href="#SVGID_25_"  style="overflow:visible;"/>
	</clipPath>
	<path class="st12" d="M-246.4,398.2c0.3,0.8,0.7,1.4,1.3,2c-0.2,0-0.4,0.1-0.6,0.2c0.8,0.4,1.6,0.6,2.4,1c-0.1,0.1-0.3,0.1-0.4,0.2
		c0,0,0,0,0,0c-0.6-0.2-1.3-0.5-1.9-0.8c-0.2-0.1-0.4-0.3-0.6-0.1c0.6,0.4,1.2,0.9,1.9,1.1c-1.2,0.6-2.7-0.2-3.3-0.6
		c0.1,0.2,0.3,0.4,0.4,0.6c-0.9,0-1.2,0.6-1.5,1.1c0.7-0.2,1.4-0.4,2.2-0.5c0.2,0.1,0.4,0.2,0.5,0.4c-0.9,0.3-2,0.3-2.9,0.6
		c0,0.2-0.1,0.2,0,0.4c0.8-0.5,1.9-0.4,2.9-0.2c0.2,0.1,0.4,0.2,0.6,0.2c0.5,0,1-0.4,1.6-0.3c-0.2,0.2-0.4,0.3-0.7,0.5
		c-0.1,0-0.3,0-0.2,0.1c-0.1,0.1-0.2,0.2-0.4,0.2c-0.5-0.2-0.9,0.2-1.3,0.3c-0.3,0-0.6,0-0.8-0.1c0.3-0.2,0.5-0.4,0.9-0.5
		c-0.7-0.4-2.1-0.3-2.7,0.1c0,0.5,0.1,0.8,0.1,1.3c-0.2-0.3-0.2-0.7-0.4-1c-0.4,0.3-0.6,0.6-1,0.9c0.2-0.6,1-1,0.8-2
		c-1.3,0.3-2.3,0.7-2.2,2.4c-0.2-0.4-0.4-0.9-0.3-1.4c0.2-0.9,1.8-1,2.5-1.4c0.2-0.5,0.5-0.9,0.9-1.3c-0.2,0-0.5-0.1-0.6-0.1
		c-0.9,0.6-2.2,0.7-3.2,1.1c-0.4,0.1-0.6,0.4-1,0.5c0.1-0.7,1-0.9,1.6-1.1c0.7-0.3,1.4-0.5,2.2-0.6c-1.1-0.4-3.7-0.6-4.2,0.5
		c-0.1,0.2,0,0.5-0.4,0.7c-0.1-0.5,0.3-0.9,0.3-1.4c-0.3-0.2-0.7,0-1.1,0.1c-0.5,0.1-1,0.3-1.4,0.7c0.2-1.1,2-1.2,3.3-1.3
		c0.4,0,1-0.1,1.5,0c-0.3-0.2-0.6-0.3-1-0.5c-0.3-0.2-0.7-0.5-1-0.6c-0.8-0.2-2.4-0.2-2.9,0.1c-0.3,0.2-0.4,0.6-0.5,1.1
		c-0.4-1.6,1.3-1.5,2.5-1.7c-0.5-0.4-1.1-1-2.1-1.1c0.1-0.1,0.3-0.1,0.4-0.1c0-0.2-0.5-0.4-0.4-0.6c0.2,0.2,0.5,0.3,0.7,0.4
		c0.4-0.1,0.8-0.3,1.3-0.3c-0.3-0.2-0.8-0.2-1.2-0.4c-0.3,0.2-1.2,0.1-1.6,0.1c-1,0.1-1.2,1-1.8,1.5c0-1.4,1-2.2,2.5-1.9
		c-1.2-0.4-2.6-0.7-3.9-1c1.8-0.2,3.3,0.6,4.9,0.8c-1.1-0.7-2.3-1.4-3.5-2c0.6-0.1,1.3,0.4,1.9,0.6c-0.4-0.4-0.8-0.8-1.3-1.2
		c-0.5-0.4-1.1-0.6-1.4-1.1c2,0.8,3.5,2,4.9,3.5c0.3,0.1,0.5,0.3,0.7,0.4c0.2,0.1,0.4,0.4,0.6,0.5c0.4,0.2,0.8,0.1,1.2,0.3
		c0.1,0.1,0-0.1,0.1-0.1c0.9,0.7,2.2,0.6,3.1,1.2c0.4,0.3,0.7,0.6,1.1,0.9c0.4,0.3,0.8,0.5,1.3,0.8c0.1-0.1,0.2-0.1,0.4-0.1
		c-0.8-0.6-1.9-1-2.4-1.9c-2.1-0.3-3.3-1.8-4.5-3c-1.2-1.2-2.5-2.6-3.2-4.3c0.6,0.7,1.1,1.5,1.7,2.2c0.6,0.7,1.1,1.5,1.9,2
		c-0.5-1.1-1.5-2-1.7-3.5c1.7,2,2.9,4.4,4.9,6c-0.9-1.6-2.7-2.8-2.9-5c0.1-0.1,0.2,0.1,0.3,0.2c0.2,0.3,0.4,0.8,0.7,1.1
		c0.9,1.4,2.1,2.9,3.2,4.1c0.1,0,0.2-0.1,0.3-0.1c-0.5-0.7-1.3-1.5-1.7-2.5c0.3,0,0.4,0.3,0.6,0.5c0.5,0.6,1,1.3,1.4,2
		c0.3,0,0.7-0.1,1,0c-1.2-0.8-1.8-2.3-2.5-3.6c0.4,0.5,0.9,1,1.4,1.6c0.5,0.6,1.1,1.2,1.3,2C-246.7,398.2-246.5,398.1-246.4,398.2z
		 M-253.7,398c0.2,0.2,0.6,0.2,0.9,0.1C-253.1,398.1-253.4,397.8-253.7,398z M-255.1,398.3c0.2,0.1,0.3,0.2,0.4,0.3
		c0.2-0.2,0.5-0.2,0.7-0.4C-254.2,397.8-254.8,398.2-255.1,398.3z M-250.9,399.4c-0.4-0.3-0.7-0.6-1-1c-0.3-0.1-0.8,0-1,0.1
		C-252.4,398.9-251.6,399.3-250.9,399.4z M-253.6,398.6c-0.3,0-0.5,0.1-0.8,0.1c0.3,0.3,0.8,0.6,1.3,0.3
		C-253.3,398.9-253.5,398.8-253.6,398.6z M-246.6,398.9c-0.2-0.2-0.6-0.3-1-0.2C-247.3,398.8-246.9,399-246.6,398.9z M-249.3,399.7
		c-0.3-0.4-0.9-0.6-1.4-0.7C-250.2,399.2-249.9,399.7-249.3,399.7z M-246.2,400.2c0.2-0.1,0.4-0.2,0.6-0.3c-0.8-0.2-1.7-0.6-2.4-0.9
		C-247.5,399.5-246.8,399.8-246.2,400.2z M-251.7,400.2c0-0.3-0.6-0.5-1-0.4C-252.3,399.9-252.1,400.1-251.7,400.2z M-248.7,400.8
		c-0.6-0.3-1.1-0.8-1.9-0.7C-250,400.3-249.5,400.9-248.7,400.8z M-247.4,401c0-0.1,0.2-0.1,0.2-0.2c-0.3-0.1-0.7-0.3-1-0.2
		C-247.9,400.7-247.7,400.9-247.4,401z M-246,401.3c-0.2-0.1-0.3-0.3-0.6-0.3c-0.1,0.1-0.2,0.1-0.3,0.2
		C-246.6,401.2-246.3,401.4-246,401.3z"/>
</g>
<g>
	<defs>
		<path id="SVGID_27_" d="M-204,420H-262c-3.8,0-7-3.1-7-7V381c0-3.8,3.1-7,7-7h58.1c3.8,0,7,3.1,7,7V413
			C-197,416.9-200.1,420-204,420z"/>
	</defs>
	<clipPath id="SVGID_28_">
		<use xlink:href="#SVGID_27_"  style="overflow:visible;"/>
	</clipPath>
	<path class="st13" d="M-222.1,411.7c1.2,0,1.9,0.4,2.4,1.1C-220.5,412.4-221.3,412.1-222.1,411.7z"/>
</g>
<g>
	<defs>
		<path id="SVGID_29_" d="M-204,420H-262c-3.8,0-7-3.1-7-7V381c0-3.8,3.1-7,7-7h58.1c3.8,0,7,3.1,7,7V413
			C-197,416.9-200.1,420-204,420z"/>
	</defs>
	<clipPath id="SVGID_30_">
		<use xlink:href="#SVGID_29_"  style="overflow:visible;"/>
	</clipPath>
	<path class="st14" d="M-220.8,411c3.7,1.6,7.7,3,11.6,4.4c-0.1,0.3-0.2,0.4-0.3,0.7c-0.1-0.2-0.4-0.2-0.6-0.3
		c-1.5-0.6-3.1-1.2-4.6-1.8c-1.8-0.7-3.6-1.5-5.3-2.1C-220.2,411.5-220.5,411.2-220.8,411z"/>
</g>
<g>
	<defs>
		<path id="SVGID_31_" d="M-204,420H-262c-3.8,0-7-3.1-7-7V381c0-3.8,3.1-7,7-7h58.1c3.8,0,7,3.1,7,7V413
			C-197,416.9-200.1,420-204,420z"/>
	</defs>
	<clipPath id="SVGID_32_">
		<use xlink:href="#SVGID_31_"  style="overflow:visible;"/>
	</clipPath>
	<rect x="-269.7" y="372.9" class="st15" width="73.7" height="16.3"/>
</g>
<g>
	<defs>
		<path id="SVGID_33_" d="M-204,420H-262c-3.8,0-7-3.1-7-7V381c0-3.8,3.1-7,7-7h58.1c3.8,0,7,3.1,7,7V413
			C-197,416.9-200.1,420-204,420z"/>
	</defs>
	<clipPath id="SVGID_34_">
		<use xlink:href="#SVGID_33_"  style="overflow:visible;"/>
	</clipPath>
	<path class="st16" d="M-231.2,384.4c0,0.1,0,0.1,0,0.2c-1,0.1-2.6,0.1-3.7,0c0-0.1,0-0.1,0-0.2c0.6,0,1.3,0,1.8,0
		c0.3,0,0.6,0,0.9,0C-231.9,384.4-231.5,384.3-231.2,384.4z"/>
</g>
<g>
	<defs>
		<path id="SVGID_35_" d="M-204,420H-262c-3.8,0-7-3.1-7-7V381c0-3.8,3.1-7,7-7h58.1c3.8,0,7,3.1,7,7V413
			C-197,416.9-200.1,420-204,420z"/>
	</defs>
	<clipPath id="SVGID_36_">
		<use xlink:href="#SVGID_35_"  style="overflow:visible;"/>
	</clipPath>
	<path class="st17" d="M-211.3,384.2c1.2,0,2.6-0.1,3.7,0.1c0,0,0,0.1,0,0.1c-0.1,0.2-0.5,0.1-0.8,0.1c-0.9,0-1.9,0-2.8,0
		c-0.1,0-0.1,0-0.1,0c0,0,0,0,0,0C-211.3,384.4-211.3,384.3-211.3,384.2z"/>
</g>
<g>
	<defs>
		<path id="SVGID_37_" d="M-204,420H-262c-3.8,0-7-3.1-7-7V381c0-3.8,3.1-7,7-7h58.1c3.8,0,7,3.1,7,7V413
			C-197,416.9-200.1,420-204,420z"/>
	</defs>
	<clipPath id="SVGID_38_">
		<use xlink:href="#SVGID_37_"  style="overflow:visible;"/>
	</clipPath>
	<path class="st18" d="M-257.8,386.5c-0.1,0-0.2,0-0.4,0c0.6-0.4,1.2-0.9,1.5-1.6c0.7,0,1.4,0,2,0c0.2,0.8,0.7,1.3,1.4,1.6
		c-0.7,0.1-1.4,0-2-0.2c0.2,0.8,0.2,2.1-0.4,2.6c-0.7-0.3-0.7-1.6-0.6-2.6c-0.3,0.1-0.6,0.2-1.1,0.2
		C-257.4,386.5-257.6,386.5-257.8,386.5z"/>
</g>
<g>
	<defs>
		<path id="SVGID_39_" d="M-204,420H-262c-3.8,0-7-3.1-7-7V381c0-3.8,3.1-7,7-7h58.1c3.8,0,7,3.1,7,7V413
			C-197,416.9-200.1,420-204,420z"/>
	</defs>
	<clipPath id="SVGID_40_">
		<use xlink:href="#SVGID_39_"  style="overflow:visible;"/>
	</clipPath>
	<path class="st19" d="M-210,384c-0.1-1-0.3-2.1-0.6-3.2c-0.3-1.3-0.9-2.4-0.7-4c0.1-0.9,0.6-1.9,1.1-2.5c0.2-0.2,0.4-0.5,0.7-0.5
		c0.4,0,0.9,0.8,1.1,1.1c0.4,0.6,0.6,1.2,0.6,1.9c0,0.2,0,0.4,0,0.6c-0.3,2.3-1.1,4.1-1.2,6.6C-209.4,384-209.7,384-210,384z"/>
</g>
<g>
	<defs>
		<path id="SVGID_41_" d="M-204,420H-262c-3.8,0-7-3.1-7-7V381c0-3.8,3.1-7,7-7h58.1c3.8,0,7,3.1,7,7V413
			C-197,416.9-200.1,420-204,420z"/>
	</defs>
	<clipPath id="SVGID_42_">
		<use xlink:href="#SVGID_41_"  style="overflow:visible;"/>
	</clipPath>
	<path class="st20" d="M-256.2,384.1c-0.2-1.1-0.4-2.4-0.7-3.5c-0.3-1.1-0.7-2.2-0.7-3.4c0-0.8,0.3-1.4,0.6-2
		c0.2-0.5,0.7-1.4,1.2-1.3c0.4,0,0.9,0.9,1.1,1.2c0.4,0.7,0.7,1.4,0.6,2.6c-0.1,1.1-0.5,2.1-0.7,3.1c-0.2,1.1-0.4,2.1-0.5,3.3
		C-255.5,384.1-255.9,384.1-256.2,384.1z"/>
</g>
<g>
	<defs>
		<path id="SVGID_43_" d="M-204,420H-262c-3.8,0-7-3.1-7-7V381c0-3.8,3.1-7,7-7h58.1c3.8,0,7,3.1,7,7V413
			C-197,416.9-200.1,420-204,420z"/>
	</defs>
	<clipPath id="SVGID_44_">
		<use xlink:href="#SVGID_43_"  style="overflow:visible;"/>
	</clipPath>
	<path class="st21" d="M-208.5,384.8c0.2,0.8,0.7,1.3,1.4,1.6c-0.6,0.1-1.4,0-1.9-0.2c0.1,0.8,0.1,2.1-0.4,2.6
		c-0.7-0.4-0.6-1.6-0.6-2.6c-0.6,0.2-1.2,0.2-2,0.2c0.6-0.4,1.2-0.8,1.4-1.6C-209.8,384.8-209.2,384.8-208.5,384.8z"/>
</g>
<g>
	<defs>
		<path id="SVGID_45_" d="M-204,420H-262c-3.8,0-7-3.1-7-7V381c0-3.8,3.1-7,7-7h58.1c3.8,0,7,3.1,7,7V413
			C-197,416.9-200.1,420-204,420z"/>
	</defs>
	<clipPath id="SVGID_46_">
		<use xlink:href="#SVGID_45_"  style="overflow:visible;"/>
	</clipPath>
	<path class="st22" d="M-235.1,386.5c-0.1,0-0.2,0-0.3,0c0.6-0.4,1.2-0.8,1.4-1.6c0.7,0,1.3,0,2,0c0.2,0.8,0.7,1.3,1.4,1.6
		c-0.7,0.1-1.4,0-2-0.2c0.2,0.9,0.1,2.1-0.4,2.6c-0.7-0.4-0.6-1.6-0.6-2.5c-0.3,0-0.6,0.2-1.1,0.1
		C-234.7,386.5-234.9,386.5-235.1,386.5z"/>
</g>
<g>
	<defs>
		<path id="SVGID_47_" d="M-204,420H-262c-3.8,0-7-3.1-7-7V381c0-3.8,3.1-7,7-7h58.1c3.8,0,7,3.1,7,7V413
			C-197,416.9-200.1,420-204,420z"/>
	</defs>
	<clipPath id="SVGID_48_">
		<use xlink:href="#SVGID_47_"  style="overflow:visible;"/>
	</clipPath>
	<path class="st23" d="M-211,384c-0.1-0.7-0.5-1.8-1-2.2c-0.7-0.6-1.4,0-1.1,0.9c0.1,0.3,0.3,0.4,0.3,0.6c-1.2-0.5-2.6-1.2-2.5-3
		c0.1-1.2,1.3-2,2.6-1.3c1.5,0.8,2.2,3,2.4,5C-210.5,384-210.9,384-211,384z"/>
</g>
<g>
	<defs>
		<path id="SVGID_49_" d="M-204,420H-262c-3.8,0-7-3.1-7-7V381c0-3.8,3.1-7,7-7h58.1c3.8,0,7,3.1,7,7V413
			C-197,416.9-200.1,420-204,420z"/>
	</defs>
	<clipPath id="SVGID_50_">
		<use xlink:href="#SVGID_49_"  style="overflow:visible;"/>
	</clipPath>
	<path class="st24" d="M-208.7,383.9c0.2-2.1,1.1-5.1,3.3-5.2c0.7-0.1,1.3,0.4,1.5,0.8c0.8,1.7-0.8,3.4-2.3,3.7
		c-0.1-0.1,0.2-0.3,0.3-0.6c0.2-0.9-0.4-1.4-1.1-0.8c-0.6,0.4-0.9,1.3-1.1,2.2C-208.2,384-208.6,384.1-208.7,383.9z"/>
</g>
<g>
	<defs>
		<path id="SVGID_51_" d="M-204,420H-262c-3.8,0-7-3.1-7-7V381c0-3.8,3.1-7,7-7h58.1c3.8,0,7,3.1,7,7V413
			C-197,416.9-200.1,420-204,420z"/>
	</defs>
	<clipPath id="SVGID_52_">
		<use xlink:href="#SVGID_51_"  style="overflow:visible;"/>
	</clipPath>
	<path class="st25" d="M-257.2,384.1c-0.1-0.7-0.7-2.6-1.7-2.5c-0.6,0.1-0.5,1.4-0.1,1.7c-1.2-0.2-2.9-1.6-2.5-3.4
		c0.1-0.5,0.6-1.1,1.3-1.1c0.1,0,0.2,0,0.4,0c2.4,0.5,2.9,2.8,3.3,5.3C-256.7,384.1-257,384.1-257.2,384.1z"/>
</g>
<g>
	<defs>
		<path id="SVGID_53_" d="M-204,420H-262c-3.8,0-7-3.1-7-7V381c0-3.8,3.1-7,7-7h58.1c3.8,0,7,3.1,7,7V413
			C-197,416.9-200.1,420-204,420z"/>
	</defs>
	<clipPath id="SVGID_54_">
		<use xlink:href="#SVGID_53_"  style="overflow:visible;"/>
	</clipPath>
	<path class="st26" d="M-254.9,384.1c0.1-1.2,0.4-2.4,1-3.5c0.5-0.9,1.3-1.8,2.5-1.8c0.9,0,1.5,0.7,1.5,1.4c0.3,1.9-1.2,2.7-2.5,3.2
		c0.4-0.3,0.6-1.6,0-1.7c-0.5-0.1-1,0.5-1.2,0.8c-0.3,0.5-0.4,1.1-0.6,1.6C-254.5,384.1-254.7,384.1-254.9,384.1z"/>
</g>
<g>
	<defs>
		<path id="SVGID_55_" d="M-204,420H-262c-3.8,0-7-3.1-7-7V381c0-3.8,3.1-7,7-7h58.1c3.8,0,7,3.1,7,7V413
			C-197,416.9-200.1,420-204,420z"/>
	</defs>
	<clipPath id="SVGID_56_">
		<use xlink:href="#SVGID_55_"  style="overflow:visible;"/>
	</clipPath>
	<path class="st27" d="M-234.5,384c-0.1-0.6-0.4-1.6-0.9-2.1c-0.2-0.2-0.6-0.4-0.8-0.4c-0.7,0.1-0.4,1.5,0,1.7
		c-1-0.3-2.4-1.2-2.5-2.5c-0.1-1.2,0.6-2.3,2-2c2.1,0.4,2.7,3,3,5.3C-234,384-234.3,384.1-234.5,384z"/>
</g>
<g>
	<defs>
		<path id="SVGID_57_" d="M-204,420H-262c-3.8,0-7-3.1-7-7V381c0-3.8,3.1-7,7-7h58.1c3.8,0,7,3.1,7,7V413
			C-197,416.9-200.1,420-204,420z"/>
	</defs>
	<clipPath id="SVGID_58_">
		<use xlink:href="#SVGID_57_"  style="overflow:visible;"/>
	</clipPath>
	<path class="st28" d="M-232.2,384c0.1-1.7,0.8-3.6,1.7-4.5c0.7-0.6,2.1-1.1,2.8-0.2c0.3,0.3,0.4,0.6,0.4,1.1
		c0.1,1.6-1.3,2.5-2.5,2.9c-0.1-0.2,0.2-0.3,0.3-0.6c0.2-1-0.4-1.3-1.1-0.8c-0.6,0.4-0.9,1.3-1.1,2.2
		C-231.7,384.1-232.1,384.1-232.2,384z"/>
</g>
<g>
	<defs>
		<path id="SVGID_59_" d="M-204,420H-262c-3.8,0-7-3.1-7-7V381c0-3.8,3.1-7,7-7h58.1c3.8,0,7,3.1,7,7V413
			C-197,416.9-200.1,420-204,420z"/>
	</defs>
	<clipPath id="SVGID_60_">
		<use xlink:href="#SVGID_59_"  style="overflow:visible;"/>
	</clipPath>
	<path class="st29" d="M-233.5,384.1C-233.5,384.1-233.5,384-233.5,384.1c-0.1-1.1-0.3-2.2-0.6-3.2c-0.3-1.3-0.9-2.4-0.7-4
		c0.1-0.9,0.5-1.9,1.1-2.5c0.2-0.2,0.5-0.5,0.7-0.5c0.3,0,0.9,0.7,1.1,1.1c0.4,0.7,0.6,1.2,0.7,2.1c0,0.2,0,0.4,0,0.6
		c-0.3,2.3-1.1,4.1-1.2,6.6C-232.8,384.1-233.2,384.1-233.5,384.1z"/>
</g>
<g>
	<defs>
		<path id="SVGID_61_" d="M-204,420H-262c-3.8,0-7-3.1-7-7V381c0-3.8,3.1-7,7-7h58.1c3.8,0,7,3.1,7,7V413
			C-197,416.9-200.1,420-204,420z"/>
	</defs>
	<clipPath id="SVGID_62_">
		<use xlink:href="#SVGID_61_"  style="overflow:visible;"/>
	</clipPath>
	<path class="st30" d="M-255.8,384.3c0.4,0,0.8,0,1.3,0c0.1,0.1,0.7-0.1,0.7,0.1c0,0.1,0,0.1,0,0.1c-0.9,0-1.9,0-2.8,0
		c-0.3,0-0.7,0.1-0.8-0.1c0-0.1,0-0.1,0-0.1C-257,384.3-256.3,384.4-255.8,384.3z"/>
</g>
</svg>
