<?xml version="1.0" encoding="utf-8"?>
<!-- Generator: Adobe Illustrator 19.0.0, SVG Export Plug-In . SVG Version: 6.00 Build 0)  -->
<svg version="1.1" id="Layer_1" xmlns="http://www.w3.org/2000/svg" xmlns:xlink="http://www.w3.org/1999/xlink" x="0px" y="0px"
	 viewBox="-269 374 72 46" style="enable-background:new -269 374 72 46;" xml:space="preserve">
<style type="text/css">
	.st0{clip-path:url(#SVGID_2_);}
	.st1{fill:#007A4D;}
	.st2{fill:#E73137;}
	.st3{fill:#FFFFFF;}
	.st4{fill:#004A93;}
	.st5{fill:#EAEAEA;}
	.st6{fill:#FFD139;}
	.st7{fill:#7F4E06;}
	.st8{fill:none;stroke:#000000;stroke-width:0.125;stroke-miterlimit:3;}
</style>
<g>
	<defs>
		<path id="SVGID_1_" d="M-204,420H-262c-3.8,0-7-3.1-7-7V381c0-3.8,3.1-7,7-7h58.1c3.8,0,7,3.1,7,7V413
			C-197,416.9-200.1,420-204,420z"/>
	</defs>
	<clipPath id="SVGID_2_">
		<use xlink:href="#SVGID_1_"  style="overflow:visible;"/>
	</clipPath>
	<g class="st0">
		<g>
			<polygon class="st1" points="-196.7,388 -269.3,388 -269.3,371.9 -196.7,371.9 			"/>
		</g>
		<g>
			<path d="M-196.6,388.1h-72.9v-16.4h72.9V388.1z M-269.2,387.9h72.4V372h-72.4V387.9z"/>
		</g>
		<g>
			<polygon class="st2" points="-269.3,420.3 -196.7,420.3 -196.7,404.1 -269.3,404.1 			"/>
		</g>
		<g>
			<path d="M-196.6,420.4h-72.9V404h72.9V420.4z M-269.2,420.2h72.4v-15.9h-72.4V420.2z"/>
		</g>
		<g>
			<polygon class="st3" points="-196.7,404.1 -269.3,404.1 -269.3,388 -196.7,388 			"/>
		</g>
		<g>
			<path d="M-196.6,404.3h-72.9v-16.4h72.9V404.3z M-269.2,404h72.4v-15.9h-72.4V404z"/>
		</g>
		<g>
			<polygon class="st4" points="-269.3,371.9 -245.3,396.1 -269.3,420.3 			"/>
		</g>
		<g>
			<path d="M-269.2,420.4l-0.2-0.1v-48.4l0.2-0.1l24.1,24.3l-0.1,0.1L-269.2,420.4z M-269.2,372.2V420l23.7-23.9L-269.2,372.2z"/>
		</g>
		<g>
			<path class="st5" d="M-221.3,390.9c0,0,0,6.7,0,8.2s-0.8,2-1.6,2c-0.4,0-1,0-1.5,0c-0.5,0-0.9,0.1-1,0.6c-0.2-0.5-0.6-0.6-1-0.6
				c-0.5,0-1,0-1.5,0c-0.8,0-1.6-0.5-1.6-2s0-8.2,0-8.2H-221.3L-221.3,390.9z"/>
		</g>
		<g>
			<path d="M-225.3,401.9l-0.1-0.2c-0.1-0.4-0.4-0.5-1-0.5h-1.5c-0.4,0-1.6-0.1-1.6-2.1v-8.3h8.3v8.3c0,1.9-1.3,2.1-1.6,2.1h-1.5
				c-0.6,0-0.9,0.2-1,0.5L-225.3,401.9z M-229.4,391v8.1c0,1.2,0.6,1.9,1.5,1.9h1.5c0.4,0,0.8,0.1,1,0.5c0.2-0.4,0.7-0.5,1-0.5h1.5
				c1,0,1.5-0.7,1.5-1.9V391H-229.4z"/>
		</g>
		<g>
			<polygon class="st6" points="-226.3,390.2 -226.1,389.7 -225.7,389.7 -225.9,389.3 -225.7,388.9 -226.2,388.9 -226.4,388.6 
				-226.6,389 -227.1,389 -226.9,389.4 -227.1,389.8 -226.6,389.8 			"/>
		</g>
		<g>
			<path d="M-226.3,390.2L-226.3,390.2l-0.3-0.4l-0.5,0l0.2-0.4l-0.3-0.4l0.5,0l0.2-0.4l0.3,0.4l0.5,0l-0.2,0.4l0.3,0.4l-0.5,0
				L-226.3,390.2z M-226.6,389.7l0.2,0.4l0.2-0.4l0,0l0.4,0l-0.2-0.4l0.2-0.4l-0.4,0l0,0l-0.2-0.3l-0.2,0.4l0,0l-0.4,0l0.2,0.4
				l-0.2,0.4L-226.6,389.7z"/>
		</g>
		<g>
			<polygon class="st6" points="-228.3,390.4 -228.1,390 -227.7,389.9 -228,389.6 -227.8,389.1 -228.3,389.2 -228.6,388.9 
				-228.7,389.3 -229.2,389.4 -228.9,389.8 -229,390.2 -228.6,390.1 			"/>
		</g>
		<g>
			<path d="M-228.3,390.5l-0.3-0.4l-0.5,0.1l0.1-0.5l-0.3-0.4l0.5-0.1l0.2-0.5l0.3,0.4l0.5-0.1l-0.1,0.5l0.3,0.4l-0.1,0l-0.4,0.1
				L-228.3,390.5z M-228.6,390.1L-228.6,390.1l0.3,0.3l0.1-0.4l0.4-0.1l-0.3-0.3l0,0l0.1-0.4l-0.4,0.1l0,0l-0.3-0.3l-0.1,0.4
				l-0.4,0.1l0.3,0.3l0,0l-0.1,0.4L-228.6,390.1z"/>
		</g>
		<g>
			<polygon class="st6" points="-230,391 -230,390.5 -229.6,390.3 -230,390.1 -229.9,389.6 -230.3,389.8 -230.7,389.5 -230.8,390 
				-231.2,390.2 -230.8,390.5 -230.8,390.9 -230.4,390.7 			"/>
		</g>
		<g>
			<path d="M-230,391.1l-0.4-0.3l-0.5,0.2l0-0.5l-0.4-0.3l0.5-0.2l0-0.5l0.4,0.3l0.5-0.2l0,0.5l0.4,0.3l-0.5,0.2L-230,391.1z
				 M-230.4,390.7L-230.4,390.7l0.3,0.2l0-0.4l0,0l0.4-0.2l-0.3-0.3l0,0l0-0.4l-0.4,0.2l-0.3-0.2l0,0.4l0,0l-0.4,0.2l0.3,0.3l0,0
				l0,0.4L-230.4,390.7z"/>
		</g>
		<g>
			<polygon class="st6" points="-224.4,390.2 -224.6,389.7 -225,389.7 -224.8,389.3 -225,388.9 -224.5,388.9 -224.3,388.6 -224,389 
				-223.6,389 -223.8,389.4 -223.6,389.8 -224.1,389.8 			"/>
		</g>
		<g>
			<path d="M-224.4,390.2L-224.4,390.2l-0.2-0.4l-0.5,0l0.3-0.4l-0.2-0.4l0.5,0l0.3-0.4l0,0l0.2,0.4l0.5,0l-0.3,0.4l0.2,0.4l-0.5,0
				L-224.4,390.2z M-225,389.7l0.4,0l0,0l0.2,0.4l0.2-0.4l0,0l0.4,0l-0.2-0.4l0.2-0.4l-0.4,0l0,0l-0.2-0.4l-0.2,0.4l0,0l-0.4,0
				l0.2,0.4L-225,389.7z"/>
		</g>
		<g>
			<polygon class="st6" points="-222.4,390.4 -222.6,390 -223,389.9 -222.7,389.6 -222.9,389.1 -222.4,389.2 -222.1,388.9 
				-221.9,389.3 -221.5,389.4 -221.8,389.8 -221.7,390.2 -222.1,390.1 			"/>
		</g>
		<g>
			<path d="M-222.4,390.5l-0.2-0.5l-0.5-0.1l0.3-0.4l-0.1-0.5l0.5,0.1l0.3-0.4l0.2,0.5l0.5,0.1l-0.3,0.4l0.1,0.5l-0.5-0.1
				L-222.4,390.5z M-223,389.9l0.4,0.1l0,0l0.1,0.4l0.3-0.3l0,0l0.4,0.1l-0.1-0.4l0.3-0.3l-0.4-0.1l0,0l-0.1-0.4l-0.3,0.3l0,0
				l-0.4-0.1l0.1,0.4l0,0L-223,389.9z"/>
		</g>
		<g>
			<polygon class="st6" points="-220.6,391 -220.7,390.5 -221.1,390.3 -220.7,390.1 -220.8,389.6 -220.4,389.8 -220,389.5 
				-219.9,390 -219.5,390.2 -219.9,390.5 -219.8,390.9 -220.3,390.7 			"/>
		</g>
		<g>
			<path d="M-220.7,391.1l0-0.5l-0.5-0.2l0.4-0.3l0-0.5l0.5,0.2l0.4-0.3l0,0.5l0.5,0.2l-0.4,0.3l0,0.5l-0.5-0.2L-220.7,391.1z
				 M-221,390.3l0.4,0.2l0,0l0,0.4l0.3-0.2l0,0l0.4,0.2l0-0.4l0,0l0.3-0.2l-0.4-0.2l0,0l0-0.4l-0.3,0.2l-0.4-0.2l0,0.4l0,0
				L-221,390.3z"/>
		</g>
		<g>
			<path class="st3" d="M-225.3,403.6c2.1,0,2.2-0.3,2.2-0.5c0-0.1,0-0.3-0.1-0.4c1.9,0,3-0.7,3.7-1.3c0.4-0.4,0.2-0.7,0.1-1.1
				c0-0.1,0-0.2-0.1-0.3c0.7-0.5,0.5-0.9,0.3-1.3c-0.1-0.4-0.2-0.9-0.2-1.3c0,0.7-1.3,1.5-1.1,1.9c0.1,0.2,0.4,0.6,0.5,0.9
				c-0.8,1-2.3,1.5-3.6,1.2c-0.4-0.1-0.4,0-0.4,0.1c0,0.4,0.1,0.7,0.1,0.9c-0.4,0.1-1,0.1-1.5,0.1c-0.5,0-1.1,0-1.5-0.1
				c0-0.2,0.1-0.5,0.1-0.9c0-0.1,0-0.2-0.4-0.1c-1.3,0.3-2.8-0.1-3.6-1.2c0.1-0.3,0.4-0.7,0.5-0.9c0.3-0.4-1.1-1.2-1.1-1.9
				c0,0.4-0.1,0.9-0.2,1.3c-0.1,0.4-0.4,0.9,0.3,1.3c0,0.1,0,0.2-0.1,0.3c-0.1,0.3-0.3,0.7,0.1,1.1c0.6,0.7,1.8,1.4,3.7,1.3
				c0,0.2-0.1,0.3-0.1,0.4C-227.6,403.3-227.4,403.6-225.3,403.6L-225.3,403.6z"/>
		</g>
		<g>
			<path d="M-225.3,403.7c-2,0-2.3-0.3-2.3-0.5c0-0.1,0-0.2,0-0.3c0,0,0-0.1,0-0.1c0,0,0,0,0,0c-1.9,0-3-0.7-3.6-1.4
				c-0.3-0.4-0.2-0.7-0.1-1c0-0.1,0-0.1,0-0.1c0-0.1,0-0.2,0.1-0.3c-0.6-0.4-0.5-0.8-0.4-1.2c0,0,0-0.1,0-0.1
				c0.1-0.4,0.2-0.8,0.2-1.3l0.1,0c0,0.3,0.3,0.7,0.6,1c0.3,0.4,0.6,0.7,0.4,0.9c0,0,0,0,0,0l0,0.1c-0.1,0.2-0.3,0.5-0.5,0.8
				c0.7,1,2.2,1.4,3.5,1.1c0.2,0,0.3,0,0.4,0c0.1,0,0.1,0.1,0.1,0.2c0,0.2,0,0.4-0.1,0.6c0,0.1,0,0.2,0,0.2c0.4,0.1,0.9,0.1,1.4,0.1
				s1.1,0,1.4-0.1c0-0.1,0-0.1,0-0.2c0-0.2-0.1-0.4-0.1-0.6c0-0.1,0-0.1,0.1-0.2c0.1-0.1,0.2-0.1,0.4,0c1.3,0.3,2.8-0.1,3.5-1.1
				c-0.1-0.3-0.3-0.6-0.5-0.8l0-0.1c0,0,0,0,0,0c-0.2-0.2,0.1-0.6,0.4-0.9c0.3-0.3,0.6-0.7,0.6-1l0.1,0c0,0.5,0.1,0.9,0.2,1.3
				c0,0,0,0.1,0,0.1c0.1,0.4,0.3,0.8-0.4,1.2c0,0.1,0,0.2,0.1,0.3c0,0,0,0.1,0,0.1c0.1,0.3,0.2,0.6-0.1,1c-0.6,0.6-1.7,1.4-3.6,1.4
				c0,0,0,0,0,0c0,0,0,0.1,0,0.1c0,0.1,0,0.2,0,0.3C-223.1,403.4-223.4,403.7-225.3,403.7z M-227.4,402.7L-227.4,402.7
				c0,0.1,0,0.1,0,0.2c0,0.1,0,0.2,0,0.2c0,0.3,0.7,0.4,2.2,0.4s2.1-0.1,2.2-0.4c0-0.1,0-0.2,0-0.2c0-0.1,0-0.1,0-0.2h0
				c0,0,0,0,0-0.1l0,0h0c0-0.1,0-0.2,0-0.3c0,0,0-0.1,0-0.1c-0.1,0.1-0.3,0.1-0.6,0.2l0,0c-0.5,0.1-1.2,0.1-1.5,0.1s-1,0-1.5-0.1
				l0,0c-0.3,0-0.5-0.1-0.6-0.2c0,0.1,0,0.1,0,0.1C-227.4,402.5-227.4,402.6-227.4,402.7L-227.4,402.7L-227.4,402.7
				C-227.4,402.7-227.4,402.7-227.4,402.7L-227.4,402.7z M-223.1,402.7C-223.1,402.7-223.1,402.7-223.1,402.7c1.5,0,2.8-0.5,3.6-1.3
				c0.3-0.3,0.2-0.6,0.1-0.8c0-0.1,0-0.1-0.1-0.2c0-0.1,0-0.2-0.1-0.3h0l0-0.1c0-0.1,0-0.1,0-0.2c0,0.1-0.1,0.2-0.1,0.2
				c0,0.1-0.1,0.2-0.2,0.3v0l0,0c-0.8,1-2.2,1.5-3.6,1.2c-0.2-0.1-0.3,0-0.3,0c0,0,0,0,0,0.1c0,0.1,0.1,0.1,0.3,0.2
				c0.2,0,0.5,0.1,0.5,0.4c0,0,0,0,0,0c0,0.1,0,0.3,0,0.4C-223.1,402.5-223.1,402.6-223.1,402.7
				C-223.1,402.7-223.1,402.7-223.1,402.7z M-231.1,400c0,0.1,0,0.2-0.1,0.3c0,0.1,0,0.1-0.1,0.2c-0.1,0.3-0.2,0.5,0.1,0.8
				c0.8,0.9,2,1.3,3.5,1.3c0,0,0,0,0,0v0c0-0.1,0-0.2,0-0.3c0-0.1,0-0.2,0-0.4c0,0,0,0,0,0c0-0.3,0.3-0.3,0.5-0.4
				c0.2,0,0.3-0.1,0.3-0.2c0,0,0-0.1,0-0.1c0,0-0.1-0.1-0.3,0c-1.4,0.3-2.9-0.2-3.6-1.2l0,0c-0.1-0.1-0.1-0.2-0.2-0.3
				c0-0.1-0.1-0.1-0.1-0.2c0,0.1,0,0.2,0,0.2L-231.1,400z M-227.5,402c0,0,0.1,0.2,0.6,0.3c0-0.1,0-0.2,0-0.2c0-0.1,0-0.2,0.1-0.3
				c-0.1,0-0.2,0.1-0.3,0.1C-227.3,401.8-227.5,401.9-227.5,402C-227.5,402-227.5,402-227.5,402z M-223.9,401.7c0,0.1,0,0.2,0.1,0.3
				c0,0.1,0,0.2,0,0.2c0.5-0.1,0.6-0.2,0.6-0.3c0,0,0,0,0,0c0-0.2-0.1-0.2-0.4-0.3C-223.7,401.8-223.8,401.8-223.9,401.7z
				 M-231,399.3c0,0.1,0,0.4,0.1,0.5c0,0.1,0.1,0.1,0.1,0.2c0.1-0.2,0.3-0.5,0.4-0.6c-0.1,0-0.2-0.1-0.3-0.2c0,0-0.1-0.1-0.1-0.1
				c-0.1,0-0.1,0-0.2,0.1C-231,399.2-231,399.3-231,399.3L-231,399.3C-231,399.3-231,399.3-231,399.3z M-220.3,399.4
				c0.1,0.2,0.3,0.4,0.4,0.6c0-0.1,0.1-0.1,0.1-0.2c0.1-0.2,0.2-0.4,0.1-0.5c0,0,0,0,0,0l0,0c0,0,0-0.1-0.1-0.1c0,0-0.1-0.1-0.2-0.1
				c-0.1,0-0.1,0-0.1,0.1C-220.1,399.3-220.2,399.4-220.3,399.4z M-219.6,399.3c0.1,0.2,0.1,0.4,0.1,0.6l0,0c0.5-0.4,0.4-0.7,0.3-1
				c0-0.1,0-0.1,0-0.2c-0.1-0.3-0.2-0.6-0.2-1c-0.1,0.3-0.3,0.5-0.6,0.7c-0.3,0.3-0.5,0.6-0.4,0.8l0,0c0,0,0,0,0.1,0c0,0,0,0,0,0
				c0.1,0,0.1-0.1,0.2-0.2c0-0.1,0.1-0.1,0.2-0.1c0.1,0,0.2,0,0.3,0.1C-219.6,399.2-219.6,399.2-219.6,399.3z M-231.3,397.8
				c0,0.4-0.1,0.7-0.2,1c0,0,0,0.1,0,0.2c-0.1,0.4-0.2,0.7,0.3,1l0,0c0-0.2,0.1-0.4,0.1-0.6c0-0.1,0-0.1,0.1-0.2
				c0.1-0.1,0.2-0.1,0.3-0.1c0.1,0,0.2,0,0.2,0.1c0.1,0.1,0.2,0.2,0.2,0.2c0,0,0,0,0,0c0,0,0,0,0.1,0l0,0c0.1-0.2-0.2-0.5-0.4-0.8
				C-230.9,398.3-231.1,398-231.3,397.8z"/>
		</g>
		<g>
			<path class="st7" d="M-226.5,394.3c1,0.5,0.9,0.9,0.9,1.9c0,0.7-0.2,1.7-0.3,2.3c-0.2,0.7-0.3,1.1-0.5,1.5
				c-0.1,0.2,0.2,0.5,0.4,0.3c0.2,0.1,0.4,0.1,0.4,0c0.3,0.2,0.5,0.1,0.6,0c0.2,0.1,0.2,0,0.2-0.1c0.3,0.3,0.4,0.2,0.2-0.6
				c-0.3-1-0.5-1.9-0.5-3.4c0-1.3,0.2-1.4,0.5-1.6c0.3-0.2,0.8-0.6,1.5-0.6l-0.4-0.3c-0.5,0.1-1.3,0.5-1.6,0.9c0-0.2-0.1-0.6,0-1.2
				h-0.4c0,0.3,0.1,1,0.1,1.2c-0.2-0.2-0.6-0.5-0.8-0.6L-226.5,394.3L-226.5,394.3z"/>
		</g>
		<g>
			<path d="M-225.2,400.5c-0.1,0-0.2,0-0.3-0.1c0,0-0.1,0-0.1,0.1c-0.1,0-0.2,0-0.3-0.1c-0.1,0.1-0.2,0-0.3,0
				c-0.1-0.1-0.2-0.2-0.1-0.4c0.2-0.3,0.3-0.8,0.5-1.5c0.1-0.6,0.3-1.6,0.3-2.3l0-0.2c0-0.9,0.1-1.2-0.9-1.7l-0.1,0l0.3-0.3l0,0
				c0.2,0.1,0.5,0.3,0.7,0.5c0-0.3,0-0.8-0.1-1l0-0.1h0.6l0,0.1c0,0.4,0,0.6,0,0.9c0,0.1,0,0.1,0,0.1c0.4-0.4,1.1-0.7,1.5-0.8l0,0
				l0.5,0.4l-0.2,0c-0.7,0-1.2,0.3-1.5,0.6l0,0c-0.2,0.2-0.4,0.3-0.4,1.5c0,1.4,0.2,2.3,0.5,3.3c0.2,0.6,0.2,0.7,0.1,0.8
				c-0.1,0-0.2,0-0.3-0.1c0,0,0,0-0.1,0.1c0,0-0.1,0-0.2,0C-225,400.5-225.1,400.5-225.2,400.5
				C-225.2,400.5-225.2,400.5-225.2,400.5z M-225.5,400.3c0.1,0.1,0.2,0.1,0.3,0.1c0,0,0.1,0,0.1-0.1c-0.1-0.1-0.2-0.6-0.2-0.9
				c0-0.2,0-0.5,0-0.9c0,0.3,0,0.5-0.1,0.7c-0.1,0.1-0.1,0.4-0.1,0.7C-225.4,400.1-225.5,400.2-225.5,400.3z M-226,400.2L-226,400.2
				c0.1,0.1,0.2,0.1,0.3,0.1c0,0,0,0,0.1,0c0-0.1,0-0.3,0-0.4c0-0.3,0-0.6,0.1-0.7c0.1-0.3,0.1-0.9,0.1-1.2l0-0.1l0.1,0
				c0-0.2,0-0.4,0-0.5c0-0.2,0-0.5,0-1c0-0.5,0.1-1.1,0-1.5l0.1,0c0.1,0.4,0,1,0,1.5c0,0.4,0,0.8,0,1c0,0.2,0.1,0.6,0.1,1l0.1,0
				c0,0.3,0.1,0.8,0.2,1c0.1,0.2,0.1,0.6,0.1,0.8c0.1,0.1,0.2,0.1,0.2,0.1h0c0,0,0-0.1-0.1-0.7c-0.3-1.1-0.5-1.9-0.5-3.4
				c0-1.2,0.2-1.4,0.4-1.6l0,0c0.3-0.2,0.7-0.5,1.4-0.6l-0.2-0.2c-0.4,0.1-1.3,0.5-1.5,0.9l-0.1,0c0-0.1,0-0.2,0-0.3
				c0-0.2,0-0.5,0-0.8h-0.3c0,0.3,0.1,1,0.1,1.1v0.2l-0.1-0.1c-0.2-0.2-0.5-0.5-0.8-0.6l-0.1,0.1c0.9,0.5,0.9,0.9,0.9,1.8l0,0.2
				c0,0.7-0.2,1.7-0.3,2.3c-0.2,0.7-0.3,1.2-0.5,1.5c0,0.1,0,0.2,0.1,0.2c0,0,0.1,0,0.1,0c0,0,0,0,0,0c-0.1-0.1-0.1-0.2,0-0.4
				c0-0.1,0-0.2,0.1-0.3c0.2-0.5,0.5-1.5,0.5-2.1c0-0.3,0-0.7,0-1c0-0.6,0-1.2,0-1.4l0.1,0c0.1,0.2,0,0.8,0,1.5c0,0.4,0,0.7,0,1
				c0,0.6-0.3,1.6-0.5,2.2c0,0.1-0.1,0.2-0.1,0.3C-226,400.2-226,400.2-226,400.2L-226,400.2z M-225,400.2L-225,400.2
				c0.1,0,0.1,0,0.1,0c0,0,0,0,0-0.1v0l0,0l0,0c0-0.1,0-0.6-0.1-0.8c-0.1-0.2-0.2-0.7-0.2-1c0,0.4,0,0.8,0,1
				C-225.2,399.8-225,400.2-225,400.2z"/>
		</g>
		<g>
			<path class="st1" d="M-225,391.8c0-0.2-0.3-0.3-0.5-0.1c-0.1-0.1-0.4,0-0.4,0.2c-0.3,0-0.5,0.2-0.4,0.5c-0.1,0-0.3,0-0.2,0.2
				c-0.2-0.1-0.4,0.2-0.4,0.4c-0.2,0-0.3,0.2-0.3,0.4c-0.2,0-0.3,0.4-0.2,0.6c-0.1,0.1-0.2,0.2-0.2,0.3c-0.1-0.1-0.3,0-0.3,0.1
				c-0.2-0.1-0.4,0-0.4,0.2c-0.2,0-0.4,0.1-0.3,0.3c0,0.1,0.1,0.2,0.2,0.1c0.1,0.2,0.4,0.2,0.5,0.1c0.2,0.1,0.3,0,0.4-0.2
				c0.1,0.1,0.3,0.2,0.4,0.1c0,0.2,0.2,0.3,0.4,0.2c0.2,0.1,0.3,0,0.4-0.1c0.1,0,0.2-0.1,0.1-0.2c0.1,0,0.1-0.1,0-0.2
				c0.2,0,0.3-0.1,0.3-0.2c0.1,0,0.2-0.1,0.1-0.2c0.2,0,0.3-0.1,0.4-0.2c0.1,0.1,0.2,0.1,0.2,0.1c0.2,0.1,0.5,0,0.6-0.1
				c0.1,0.2,0.4,0.4,0.7,0.3c0,0.1,0.3,0.2,0.3,0.1c0.1,0.1,0.4,0.2,0.5,0.1c0.1,0.1,0.3,0.1,0.4-0.1c0.1,0.1,0.4,0,0.5-0.2
				c0.2,0,0.3-0.1,0.3-0.2c0.1,0,0.2-0.1,0.2-0.2c0.1-0.1,0-0.4-0.2-0.4c0-0.1-0.1-0.2-0.2-0.2c0.1-0.1,0-0.3-0.2-0.2
				c0-0.1-0.2-0.2-0.3-0.1c0-0.1-0.1-0.1-0.1-0.1c0-0.1-0.1-0.3-0.3-0.3c0,0-0.1-0.1-0.2-0.1c0-0.1-0.1-0.2-0.2-0.2
				c-0.1-0.1-0.4-0.1-0.4,0.1c-0.1,0-0.3,0-0.3,0.1c0,0-0.1,0-0.2,0c0-0.1-0.1-0.1-0.2-0.1c0-0.1-0.1-0.2-0.2-0.1c0-0.1,0-0.2,0-0.2
				c0.1-0.1,0-0.3-0.2-0.3C-224.9,391.7-225,391.7-225,391.8L-225,391.8z"/>
		</g>
		<g>
			<path d="M-226.7,395.3C-226.7,395.3-226.8,395.2-226.7,395.3c-0.2,0-0.3,0-0.4-0.1c-0.1,0-0.1-0.1-0.1-0.2c-0.1,0-0.2,0-0.3-0.1
				c0,0-0.1,0.1-0.1,0.1c-0.1,0-0.2,0.1-0.3,0c-0.1,0-0.3,0.1-0.4,0c-0.1,0-0.1-0.1-0.2-0.1c-0.1,0-0.2,0-0.2-0.1
				c0,0-0.1-0.1-0.1-0.1c0-0.1,0-0.1,0-0.2c0-0.1,0.1-0.1,0.3-0.2c0-0.1,0.1-0.1,0.1-0.2c0.1-0.1,0.2-0.1,0.3,0
				c0.1-0.1,0.2-0.1,0.3-0.1c0-0.1,0.1-0.2,0.1-0.3c0-0.1,0-0.3,0.1-0.5c0-0.1,0.1-0.1,0.2-0.2c0-0.1,0-0.2,0.1-0.3
				c0.1-0.1,0.1-0.1,0.2-0.1c0-0.1,0.1-0.2,0.2-0.3c0.1-0.1,0.1-0.1,0.2-0.1c0,0,0,0,0,0c0-0.1,0-0.1,0.1-0.1c0,0,0.1-0.1,0.2-0.1
				c0-0.1,0-0.2,0.1-0.3c0.1-0.1,0.2-0.2,0.3-0.2c0-0.1,0.1-0.1,0.1-0.2c0.1,0,0.2,0,0.3,0c0.1,0,0.2-0.1,0.3,0
				c0.1,0,0.2,0.1,0.2,0.2c0,0,0.1,0,0.1,0c0,0,0.1,0,0.1,0.1c0.1,0,0.1,0,0.1,0.1c0,0.1,0.1,0.1,0,0.2c0,0,0,0,0,0.1
				c0,0,0,0.1,0,0.1c0,0,0,0,0.1,0c0,0,0.1,0.1,0.1,0.1c0,0,0.1,0,0.1,0c0,0,0.1,0,0.1,0.1c0,0,0.1,0,0.1,0c0,0,0,0,0.1-0.1
				c0.1,0,0.1-0.1,0.2,0c0-0.1,0.1-0.1,0.2-0.1c0.1,0,0.2,0,0.3,0c0.1,0,0.1,0,0.2,0.1c0,0,0.1,0.1,0.1,0.1c0,0,0,0,0.1,0
				c0,0,0.1,0,0.1,0.1c0.1,0,0.1,0,0.2,0.1c0.1,0.1,0.1,0.1,0.1,0.2c0,0,0,0,0,0c0,0,0,0,0,0c0.1,0,0.2,0,0.2,0
				c0.1,0,0.1,0.1,0.1,0.1c0.1,0,0.1,0,0.2,0.1c0,0,0,0.1,0,0.2c0.1,0,0.1,0.1,0.2,0.2c0.1,0,0.2,0.1,0.2,0.2c0,0.1,0,0.2,0,0.2
				c0,0.1,0,0.1,0,0.2c0,0-0.1,0.1-0.1,0.1c0,0.1,0,0.1-0.1,0.2c-0.1,0.1-0.1,0.1-0.2,0.1c0,0.1-0.1,0.1-0.2,0.2c-0.1,0-0.2,0-0.3,0
				c-0.1,0.1-0.3,0.1-0.4,0c-0.1,0-0.2,0-0.3,0c-0.1,0-0.2-0.1-0.2-0.1c-0.1,0-0.1,0-0.2,0c-0.1,0-0.1-0.1-0.2-0.1
				c-0.3,0.1-0.6-0.1-0.7-0.3c-0.1,0-0.1,0.1-0.2,0.1c-0.1,0-0.2,0-0.3,0c-0.1,0-0.1,0-0.2-0.1c-0.1,0.1-0.2,0.1-0.3,0.1
				c0,0,0,0.1,0,0.1c0,0-0.1,0.1-0.1,0.1c0,0.1-0.1,0.2-0.3,0.2c0,0,0,0,0,0c0,0,0,0.1,0,0.1c0,0.1,0,0.1,0,0.2c0,0-0.1,0.1-0.1,0.1
				c0,0.1-0.1,0.1-0.2,0.1C-226.6,395.2-226.7,395.3-226.7,395.3z M-226.8,395.1L-226.8,395.1c0.1,0,0.2,0,0.2,0
				c0.1,0,0.1-0.1,0.1-0.1l0,0l0,0c0,0,0.1,0,0.1,0c0,0,0-0.1,0-0.1l0-0.1l0,0c0,0,0,0,0,0c0,0,0,0,0,0c0,0-0.1,0-0.1-0.1
				c-0.1,0-0.2-0.1-0.2-0.1l0.1,0c0,0,0.1,0,0.1,0l0,0l0,0c0,0,0.1,0,0.1,0l0,0l0,0c0.1,0,0.2-0.1,0.2-0.1l0,0l0,0c0,0,0.1,0,0.1,0
				c0,0,0-0.1,0-0.1l0-0.1h0.1c0.2,0,0.3-0.1,0.4-0.1l0.1-0.1l0.1,0.1c0,0.1,0.1,0.1,0.2,0.1h0l0,0c0.1,0,0.2,0.1,0.3,0
				c0.1,0,0.2-0.1,0.2-0.1c-0.1-0.1-0.1-0.2-0.1-0.4h0.1c0,0.1,0,0.2,0,0.2l0,0l0,0.1c0.1,0.2,0.3,0.4,0.6,0.3l0.1,0l0,0
				c0.1,0,0.1,0,0.2-0.1l0,0l0,0c0,0,0.1,0,0.2,0l0.1,0.1c-0.1,0-0.2,0.1-0.3,0c-0.1,0-0.1,0.1-0.2,0.1c0,0,0,0,0.1,0
				c0.1,0,0.1,0,0.1,0l0.1-0.1l0,0.1c0,0,0.1,0.1,0.2,0.1c0.1,0,0.2,0,0.2,0l0,0l0,0c0.1,0.1,0.2,0.1,0.3,0c0,0-0.1-0.1-0.1-0.1
				c-0.1,0-0.1-0.1-0.1-0.1l0.1,0c0,0,0.1,0.1,0.1,0.1l0,0l0,0c0,0,0,0.1,0.1,0.1l0,0c0,0,0.1,0,0.2,0c0.1,0,0.2-0.1,0.2-0.1l0,0
				l0,0c0.1,0,0.1,0,0.2,0c0,0,0,0,0,0c-0.1,0-0.1,0-0.2,0c-0.1,0-0.1,0-0.2,0c0,0-0.1-0.1-0.1-0.1c0,0-0.1-0.1-0.1-0.1l0.1,0
				c0,0,0,0,0.1,0l0.1,0l0,0.1c0,0,0,0,0,0c0,0,0.1,0,0.1,0l0,0l0,0c0,0,0.1,0,0.2,0c0,0,0,0,0,0l0,0l0.1,0c0,0,0,0,0,0
				c0,0,0.1,0,0.1-0.1c0,0,0-0.1,0-0.1l0,0l0,0c0,0,0-0.1,0-0.1c0-0.1-0.1-0.1-0.1-0.1l0,0l0,0c0-0.1-0.1-0.1-0.1-0.1l-0.2,0
				l0.1-0.1c0,0,0-0.1,0-0.1c0,0-0.1,0-0.1,0l-0.1,0l0-0.1c0,0,0-0.1-0.1-0.1c0,0-0.1,0-0.2,0l-0.1,0.1l0-0.1c-0.1,0-0.1,0-0.2,0
				l0,0.1l-0.1-0.1c0,0,0,0-0.1,0c0,0-0.1,0-0.1,0.1l-0.1-0.1c0-0.1,0.1-0.1,0.2-0.1c0,0,0.1,0,0.1,0c0,0,0.1,0,0.1,0l0,0
				c0-0.1,0-0.1-0.1-0.2c0,0-0.1-0.1-0.1-0.1l-0.1,0l0-0.1c0,0,0,0,0,0c0,0,0,0,0,0l-0.1,0l0-0.1c0,0,0-0.1,0-0.1c0,0-0.1-0.1-0.1,0
				l0,0l0,0c0,0-0.1-0.1-0.2,0c0,0-0.1,0-0.1,0.1l0,0.1l-0.1,0c0,0-0.1,0-0.1,0c0,0-0.1,0-0.1,0l0,0.1l-0.1-0.1c0,0,0,0,0,0
				c0,0,0,0,0,0c0,0.1,0,0.1,0,0.1c0.1,0.1,0.1,0.2,0.1,0.3l-0.1,0c0-0.1,0-0.2,0-0.2l-0.1,0l0-0.1c0,0,0,0,0-0.1l0-0.1c0,0,0,0,0,0
				c0,0,0,0,0,0l-0.1,0.1l0-0.1c0,0,0-0.1-0.1-0.1c0,0,0,0,0,0c0,0.1-0.2,0.2-0.3,0.2c-0.1,0.1-0.2,0.2-0.3,0.1l0-0.1
				c0.1,0,0.2,0,0.2-0.1l0,0l0.1,0c0.1,0,0.2,0,0.2-0.1l0,0c0,0,0-0.1,0-0.1c0,0,0,0,0,0l-0.1,0l0-0.1c0,0,0-0.1,0-0.1
				c0,0,0,0-0.1,0l-0.1,0l0-0.1c0,0,0,0,0,0c0,0,0,0,0,0l-0.1,0l0-0.1c0-0.1-0.1-0.1-0.2-0.1c-0.1,0-0.1,0-0.2,0l0,0l0,0
				c0,0-0.1,0-0.2,0c0,0-0.1,0.1-0.1,0.1l0,0.1l-0.1,0c-0.1,0-0.2,0-0.3,0.1c-0.1,0.1-0.1,0.2-0.1,0.3l0,0.1l-0.1,0c0,0-0.1,0-0.1,0
				c0,0,0,0,0,0c0.1,0,0.3,0,0.4,0.1c0,0,0.1,0,0.2,0c0.1,0,0.1,0.1,0.2,0.2l-0.1,0c0,0,0-0.1-0.1-0.1c0,0-0.1,0-0.1,0l0,0l0,0
				c-0.1-0.1-0.2-0.1-0.3-0.1l0,0.1l-0.1,0c-0.1,0-0.2,0-0.2,0c-0.1,0.1-0.1,0.2-0.1,0.3l0,0.1l-0.1,0c-0.1,0-0.1,0.1-0.2,0.1
				c-0.1,0.1-0.1,0.2,0,0.2l0,0.1l-0.1,0c-0.1,0-0.1,0.1-0.2,0.1c-0.1,0.1-0.1,0.2-0.1,0.4c0.1,0,0.1,0,0.2,0
				c0.1-0.1,0.3-0.1,0.4-0.1l0,0.1c-0.2,0-0.3,0-0.4,0.1l0,0l0,0c0,0-0.1,0-0.2,0l0,0c-0.1,0-0.2,0.2-0.1,0.3l0.1,0.2l-0.2-0.1
				c-0.1-0.1-0.2,0-0.2,0.1l0,0l0,0c-0.1,0-0.2,0-0.3,0c-0.1,0-0.1,0.1-0.1,0.1l0,0l0,0c-0.2,0-0.2,0.1-0.2,0.1c0,0,0,0,0,0.1l0,0
				l0,0c0,0,0,0,0,0c0,0,0.1,0,0.1,0l0,0l0,0c0.1,0,0.1,0,0.1-0.1l0.1,0.1c0,0-0.1,0.1-0.1,0.1c0,0,0,0,0.1,0c0.1,0,0.2,0,0.3,0l0,0
				l0,0c0.1,0,0.1,0,0.2,0c0,0,0.1-0.1,0.1-0.1l0-0.2l0.1,0.2c0.1,0.1,0.2,0.1,0.3,0.1l0.1,0v0c0.1,0,0.2-0.1,0.2-0.1l0,0l0,0
				c0,0,0.1,0,0.1,0l0.1,0.1c0,0.1-0.1,0.1-0.2,0.1c-0.1,0-0.2,0.1-0.2,0.1c0,0,0,0.1,0.1,0.1C-227,395.1-226.9,395.1-226.8,395.1
				L-226.8,395.1z M-226.4,394.1C-226.5,394.1-226.5,394.1-226.4,394.1l-0.1-0.1c0.1,0,0.3-0.1,0.3-0.1l0.1,0.1
				C-226.1,394-226.3,394.1-226.4,394.1z M-223.2,393.8c-0.1,0-0.2,0-0.3-0.1c-0.2,0-0.4,0-0.5-0.1l0.1-0.1c0.1,0.1,0.3,0.1,0.4,0.1
				l0,0l0,0c0,0,0.2,0.1,0.3,0.1L-223.2,393.8C-223.1,393.8-223.2,393.8-223.2,393.8z M-225,393.5c-0.1,0-0.2,0-0.2,0
				c-0.1,0-0.1-0.1-0.2-0.1c-0.1,0-0.4-0.1-0.4-0.3l0.1,0c0,0.1,0.2,0.2,0.3,0.2l0,0l0,0c0,0,0,0,0.1,0.1c0.1,0,0.4,0,0.4,0l0.1,0.1
				C-224.7,393.5-224.9,393.5-225,393.5z M-226.7,393.5C-226.7,393.5-226.8,393.5-226.7,393.5l0-0.1c0.1,0,0.2-0.1,0.3-0.1l0-0.1
				l0.1,0c0,0,0.1,0,0.1,0l0.1,0.1c0,0.1-0.1,0.1-0.2,0.1C-226.5,393.4-226.6,393.5-226.7,393.5z"/>
		</g>
		<g>
			<path d="M-226.1,402.6v0.3h0.1v-0.1c0,0,0.1,0,0.1,0c0.1,0,0.1,0,0.1,0.1c0,0.1,0,0.1-0.1,0.1c-0.1,0-0.1,0-0.1,0v-0.1h-0.1v0.5
				h0.1v-0.3c0,0,0.1,0,0.2,0c0.1,0,0.2-0.1,0.2-0.2c0-0.1-0.1-0.2-0.2-0.2C-226,402.6-226.1,402.6-226.1,402.6L-226.1,402.6z"/>
		</g>
		<g>
			<polygon points="-225.2,403.2 -225.2,403.4 -225.1,403.4 -225.3,402.7 -225.4,402.7 -225.6,403.4 -225.5,403.4 -225.5,403.2 
				-225.3,403.2 -225.3,403.1 -225.4,403.1 -225.3,402.8 -225.3,403.1 -225.3,403.1 -225.3,403.2 			"/>
		</g>
		<g>
			<polygon points="-224.6,403.2 -224.3,403.2 -224.3,403.4 -224.8,403.4 -224.8,403.2 -224.5,402.8 -224.8,402.8 -224.8,402.6 
				-224.3,402.6 -224.3,402.8 			"/>
		</g>
		<g>
			<path d="M-231.1,401c0.1,0.1,0.1,0,0.2,0c0,0,0.3-0.4,0.3-0.4l0.1,0.1c0,0-0.2,0.3-0.3,0.4C-230.9,401.2-231,401.2-231.1,401
				c-0.2,0-0.2-0.2-0.1-0.3c0.1-0.1,0.3-0.4,0.3-0.4l0.1,0.1c0,0-0.3,0.3-0.3,0.4C-231.1,400.9-231.1,401-231.1,401L-231.1,401z"/>
		</g>
		<g>
			<polygon points="-230.2,400.9 -230.3,401.5 -230,401.1 -229.9,401.1 -230.4,401.7 -230.5,401.7 -230.4,401.1 -230.7,401.5 
				-230.8,401.4 -230.4,400.8 			"/>
		</g>
		<g>
			<polygon points="-230,401.9 -229.7,401.3 -229.8,401.2 -230.1,401.9 			"/>
		</g>
		<g>
			<path d="M-229.5,401.4c0.1,0,0.1,0.1,0.2,0.1c0.1,0,0.2,0.1,0.1,0.4c-0.1,0.2-0.2,0.3-0.4,0.3c-0.1-0.1-0.2-0.1-0.2-0.1l0.2-0.3
				l0.1,0l-0.1,0.2c0,0,0.1,0,0.1,0c0,0,0.1,0,0.2-0.2c0.1-0.2,0-0.2,0-0.3c0,0-0.1,0-0.1,0l-0.1,0.2l-0.1,0L-229.5,401.4
				L-229.5,401.4z"/>
		</g>
		<g>
			<polygon points="-228.7,402.2 -228.7,402.4 -228.6,402.4 -228.6,401.7 -228.7,401.6 -229.1,402.3 -229,402.3 -228.9,402.2 
				-228.8,402.2 -228.8,402.1 -228.8,402.1 -228.7,401.8 -228.7,402.1 -228.8,402.1 -228.8,402.2 			"/>
		</g>
		<g>
			<path d="M-228.3,401.7c0.1,0,0.2,0,0.2,0c0.1,0,0.3,0.1,0.2,0.4c0,0.2-0.1,0.4-0.3,0.4c-0.1,0-0.3,0-0.3,0l0-0.4l0.1,0l0,0.2
				c0,0,0.1,0,0.1,0c0,0,0.2,0,0.2-0.2c0-0.2-0.1-0.2-0.1-0.2c0,0-0.1,0-0.1,0l0,0.2l-0.1,0L-228.3,401.7L-228.3,401.7z"/>
		</g>
		<g>
			<path d="M-223.2,402.4c0,0,0.1,0.1,0.2,0.1c0.1,0,0.2-0.1,0.2-0.2c0-0.1,0-0.5,0-0.5l-0.1,0c0,0,0,0.4,0,0.5c0,0.1,0,0.1-0.1,0.1
				c-0.1,0-0.1-0.1-0.1-0.2l-0.1,0C-223.2,402.3-223.2,402.4-223.2,402.4L-223.2,402.4z"/>
		</g>
		<g>
			<path d="M-222.4,402.3c0.1,0,0.1-0.1,0.1-0.1c0-0.1-0.1-0.5-0.1-0.5l0.1,0c0,0,0,0.4,0.1,0.5c0,0.1,0,0.3-0.2,0.3
				c-0.2,0-0.3-0.1-0.3-0.2c0-0.1-0.1-0.5-0.1-0.5l0.1,0c0,0,0.1,0.4,0.1,0.5C-222.5,402.3-222.5,402.3-222.4,402.3L-222.4,402.3z"
				/>
		</g>
		<g>
			<path d="M-221.7,401.8c0-0.1-0.1-0.2-0.3-0.1c-0.2,0.1-0.2,0.2-0.1,0.3c0,0.1,0.1,0.2,0.3,0.1c0.1,0,0.1,0,0.2,0.1
				c0,0,0,0.1-0.1,0.1c-0.1,0-0.1,0-0.2-0.1l-0.1,0c0,0.1,0.1,0.2,0.3,0.2c0.2-0.1,0.2-0.2,0.2-0.3c0-0.1-0.2-0.1-0.3-0.1
				c-0.1,0-0.2,0-0.2,0c0,0,0-0.1,0.1-0.1c0.1,0,0.1,0,0.2,0.1L-221.7,401.8L-221.7,401.8z"/>
		</g>
		<g>
			<polygon points="-221.1,402.1 -221.3,401.6 -221.1,401.5 -221.2,401.4 -221.6,401.6 -221.6,401.7 -221.4,401.6 -221.2,402.2 			
				"/>
		</g>
		<g>
			<polygon points="-220.6,401.9 -221,401.3 -221.1,401.3 -220.7,402 			"/>
		</g>
		<g>
			<path d="M-220.3,401.1c-0.1-0.1-0.2-0.2-0.4-0.1c-0.1,0.1-0.2,0.3,0,0.5c0.1,0.2,0.3,0.3,0.4,0.2c0.1-0.1,0.2-0.2,0.1-0.4
				l-0.1,0.1c0,0,0,0.1-0.1,0.2c-0.1,0-0.2,0-0.3-0.1c-0.1-0.1-0.1-0.2,0-0.3c0.1-0.1,0.2,0,0.2,0L-220.3,401.1L-220.3,401.1z"/>
		</g>
		<g>
			<polygon points="-219.8,401.4 -220.2,400.8 -220.3,400.9 -219.9,401.4 			"/>
		</g>
		<g>
			<polygon points="-219.5,400.9 -219.4,401 -219.3,400.9 -220,400.5 -220.1,400.6 -219.7,401.3 -219.6,401.2 -219.7,401.1 
				-219.6,401 -219.7,400.9 -219.8,401 -219.9,400.7 -219.6,400.9 -219.7,400.9 -219.6,401 			"/>
		</g>
		<g>
			<path class="st3" d="M-225.4,396.1"/>
		</g>
		<g>
			<path class="st8" d="M-225.4,396.1"/>
		</g>
	</g>
</g>
</svg>
