<?xml version="1.0" encoding="utf-8"?>
<!-- Generator: Adobe Illustrator 19.0.0, SVG Export Plug-In . SVG Version: 6.00 Build 0)  -->
<svg version="1.1" id="Layer_1" xmlns="http://www.w3.org/2000/svg" xmlns:xlink="http://www.w3.org/1999/xlink" x="0px" y="0px"
	 viewBox="-269 374 72 46" style="enable-background:new -269 374 72 46;" xml:space="preserve">
<style type="text/css">
	.st0{clip-path:url(#SVGID_2_);fill:#000066;}
	.st1{clip-path:url(#SVGID_4_);}
	.st2{fill:#FFFFFF;}
	.st3{fill:#CC0000;}
	.st4{clip-path:url(#SVGID_6_);fill:#6A4C2D;stroke:#000000;stroke-width:9.903000e-002;}
	.st5{clip-path:url(#SVGID_8_);fill:#FFFFFF;stroke:#000000;stroke-width:9.903000e-002;}
	.st6{clip-path:url(#SVGID_10_);fill:url(#SVGID_11_);stroke:#000000;stroke-width:0.1151;}
	.st7{clip-path:url(#SVGID_13_);fill:#656263;stroke:#000000;stroke-width:9.903000e-002;}
	.st8{clip-path:url(#SVGID_15_);}
	.st9{opacity:0.979;fill:none;stroke:#000000;stroke-width:0.1238;stroke-linejoin:round;}
	.st10{clip-path:url(#SVGID_17_);fill:#FFBB00;stroke:#000000;stroke-width:0.1311;}
	.st11{clip-path:url(#SVGID_19_);fill:#FFBB00;stroke:#000000;stroke-width:9.903000e-002;}
	.st12{clip-path:url(#SVGID_21_);fill:#00713D;stroke:#000000;stroke-width:9.903000e-002;}
	.st13{clip-path:url(#SVGID_23_);}
	.st14{fill:none;stroke:#3EC26D;stroke-width:0.1238;stroke-linecap:round;}
	.st15{clip-path:url(#SVGID_25_);fill:#FFFFFF;stroke:#000000;stroke-width:9.903000e-002;}
	.st16{clip-path:url(#SVGID_27_);fill:#006B00;stroke:#000000;stroke-width:9.903000e-002;}
	.st17{clip-path:url(#SVGID_29_);fill:#FFC900;stroke:#006B00;stroke-width:6.823000e-002;stroke-linecap:round;}
	.st18{clip-path:url(#SVGID_31_);fill:#CDAD56;stroke:#000000;stroke-width:0.1238;stroke-linejoin:round;}
	.st19{clip-path:url(#SVGID_33_);fill:#CDAD56;stroke:#000000;stroke-width:0.1088;stroke-linejoin:round;}
	.st20{clip-path:url(#SVGID_35_);fill:#FFC900;}
	
		.st21{clip-path:url(#SVGID_37_);fill:#FFC900;stroke:#006B00;stroke-width:6.823000e-002;stroke-linecap:round;stroke-linejoin:round;}
	.st22{clip-path:url(#SVGID_39_);fill:none;stroke:#006B00;stroke-width:0.1438;stroke-linecap:round;}
	.st23{clip-path:url(#SVGID_41_);fill:none;stroke:#006B00;stroke-width:0.1438;stroke-linecap:round;}
	.st24{clip-path:url(#SVGID_43_);fill:#E80000;stroke:#006B00;stroke-width:0.1438;stroke-linecap:round;}
	.st25{clip-path:url(#SVGID_45_);fill:none;stroke:#006B00;stroke-width:0.1438;stroke-linecap:round;}
	.st26{clip-path:url(#SVGID_47_);fill:#006B00;}
	.st27{clip-path:url(#SVGID_49_);fill:#FFC900;stroke:#FFC900;stroke-width:0.1438;stroke-linecap:round;stroke-linejoin:round;}
	.st28{clip-path:url(#SVGID_51_);fill:#E80000;stroke:#006B00;stroke-width:0.1438;stroke-linejoin:round;}
	.st29{clip-path:url(#SVGID_53_);fill:#E80000;stroke:#006B00;stroke-width:0.1151;stroke-linejoin:round;}
	.st30{clip-path:url(#SVGID_55_);fill:#FFC900;stroke:#006B00;stroke-width:0.1151;stroke-linejoin:round;}
	.st31{clip-path:url(#SVGID_57_);fill:none;}
	.st32{clip-path:url(#SVGID_59_);fill:#E80000;stroke:#006B00;stroke-width:0.1151;stroke-linejoin:round;}
	.st33{clip-path:url(#SVGID_61_);fill:#FFC900;stroke:#006B00;stroke-width:0.1151;stroke-linejoin:round;}
	.st34{clip-path:url(#SVGID_63_);fill:url(#SVGID_64_);}
	.st35{clip-path:url(#SVGID_66_);fill:#C01500;stroke:#000000;stroke-width:9.903000e-002;}
	.st36{clip-path:url(#SVGID_68_);fill:#C01500;stroke:#000000;stroke-width:0.1311;}
	.st37{clip-path:url(#SVGID_70_);fill:#FFBB00;stroke:#000000;stroke-width:9.903000e-002;}
	.st38{clip-path:url(#SVGID_72_);}
	.st39{fill:#1E5AA6;stroke:#000000;stroke-width:9.903000e-002;}
	.st40{fill:#1E5AA6;stroke:#000000;stroke-width:0.1278;}
	.st41{clip-path:url(#SVGID_74_);enable-background:new    ;}
	.st42{clip-path:url(#SVGID_76_);enable-background:new    ;}
	.st43{clip-path:url(#SVGID_78_);enable-background:new    ;}
	.st44{clip-path:url(#SVGID_80_);enable-background:new    ;}
	.st45{clip-path:url(#SVGID_82_);enable-background:new    ;}
	.st46{clip-path:url(#SVGID_84_);enable-background:new    ;}
	.st47{clip-path:url(#SVGID_86_);enable-background:new    ;}
	.st48{clip-path:url(#SVGID_88_);enable-background:new    ;}
	.st49{clip-path:url(#SVGID_90_);enable-background:new    ;}
	.st50{clip-path:url(#SVGID_92_);enable-background:new    ;}
	.st51{clip-path:url(#SVGID_94_);enable-background:new    ;}
	.st52{clip-path:url(#SVGID_96_);enable-background:new    ;}
	.st53{clip-path:url(#SVGID_98_);enable-background:new    ;}
	.st54{clip-path:url(#SVGID_100_);enable-background:new    ;}
	.st55{clip-path:url(#SVGID_102_);enable-background:new    ;}
	.st56{clip-path:url(#SVGID_104_);enable-background:new    ;}
	.st57{clip-path:url(#SVGID_106_);enable-background:new    ;}
	.st58{clip-path:url(#SVGID_108_);enable-background:new    ;}
	.st59{clip-path:url(#SVGID_110_);enable-background:new    ;}
	.st60{clip-path:url(#SVGID_112_);enable-background:new    ;}
	.st61{clip-path:url(#SVGID_114_);enable-background:new    ;}
	.st62{clip-path:url(#SVGID_116_);enable-background:new    ;}
	.st63{clip-path:url(#SVGID_118_);enable-background:new    ;}
	.st64{clip-path:url(#SVGID_120_);enable-background:new    ;}
	.st65{clip-path:url(#SVGID_122_);enable-background:new    ;}
	.st66{clip-path:url(#SVGID_124_);}
	.st67{fill:none;stroke:#FFF700;stroke-width:9.903000e-002;stroke-linecap:round;}
	.st68{clip-path:url(#SVGID_126_);fill:url(#SVGID_127_);stroke:#000000;stroke-width:0.1151;}
	.st69{clip-path:url(#SVGID_129_);fill:#FF7000;stroke:#000000;stroke-width:9.903000e-002;}
	.st70{clip-path:url(#SVGID_131_);fill:none;stroke:#000000;stroke-width:9.903000e-002;}
	.st71{clip-path:url(#SVGID_133_);fill:#FFFFFF;stroke:#000000;stroke-width:0.1238;stroke-linejoin:round;}
	.st72{clip-path:url(#SVGID_135_);fill:none;stroke:#FFFFFF;stroke-width:0.1238;stroke-linecap:round;}
	.st73{clip-path:url(#SVGID_137_);fill:#C75B00;stroke:#000000;stroke-width:9.903000e-002;}
	.st74{clip-path:url(#SVGID_139_);}
	.st75{clip-path:url(#SVGID_141_);fill:#FFFFFF;stroke:#000000;stroke-width:9.903000e-002;}
	.st76{clip-path:url(#SVGID_143_);fill:#CCCCCD;stroke:#CCCCCC;stroke-width:9.903000e-002;}
	.st77{clip-path:url(#SVGID_145_);fill:none;stroke:#000000;stroke-width:9.903000e-002;}
	.st78{clip-path:url(#SVGID_147_);fill:#0000FF;stroke:#000000;stroke-width:9.903000e-002;}
	.st79{clip-path:url(#SVGID_149_);fill:#0000FF;stroke:#000000;stroke-width:9.903000e-002;}
	.st80{clip-path:url(#SVGID_151_);fill:#FFFFFF;stroke:#000000;stroke-width:9.903000e-002;}
	.st81{clip-path:url(#SVGID_153_);fill:#0000FF;stroke:#000000;stroke-width:9.903000e-002;}
	.st82{clip-path:url(#SVGID_155_);fill:none;stroke:#000000;stroke-width:9.903000e-002;}
	.st83{clip-path:url(#SVGID_157_);fill:#FFFFFF;stroke:#000000;stroke-width:9.903000e-002;}
	.st84{clip-path:url(#SVGID_159_);fill:none;stroke:#000000;stroke-width:9.903000e-002;}
	.st85{clip-path:url(#SVGID_161_);fill:#CCCCCD;stroke:#CCCCCC;stroke-width:9.388000e-002;}
	.st86{clip-path:url(#SVGID_163_);fill:#923F00;stroke:#000000;stroke-width:9.903000e-002;}
	.st87{clip-path:url(#SVGID_165_);fill:#0000FF;stroke:#000000;stroke-width:9.903000e-002;}
	.st88{clip-path:url(#SVGID_167_);fill:#FFFEFF;stroke:#000000;stroke-width:9.903000e-002;}
	.st89{clip-path:url(#SVGID_169_);fill:#0000FF;stroke:#000000;stroke-width:9.903000e-002;}
	.st90{clip-path:url(#SVGID_171_);fill:#FFFFFF;stroke:#000000;stroke-width:9.903000e-002;}
	.st91{clip-path:url(#SVGID_173_);fill:#0000FF;stroke:#000000;stroke-width:9.903000e-002;}
	.st92{clip-path:url(#SVGID_175_);fill:#FFFFFF;stroke:#000000;stroke-width:9.903000e-002;}
	.st93{clip-path:url(#SVGID_177_);fill:#5E0043;stroke:#000000;stroke-width:9.903000e-002;}
	.st94{clip-path:url(#SVGID_179_);fill:none;stroke:#000000;stroke-width:9.903000e-002;}
	.st95{clip-path:url(#SVGID_181_);fill:#5E0043;stroke:#000000;stroke-width:9.903000e-002;}
	.st96{clip-path:url(#SVGID_183_);fill:#474747;stroke:#474747;stroke-width:0.1238;stroke-linejoin:round;}
	.st97{clip-path:url(#SVGID_185_);fill:none;stroke:#000000;stroke-width:0.1238;stroke-linecap:round;}
	.st98{clip-path:url(#SVGID_187_);fill:none;stroke:#000000;stroke-width:9.903000e-002;}
	.st99{clip-path:url(#SVGID_189_);fill:#B4B6B9;stroke:#000000;stroke-width:9.903000e-002;}
	.st100{clip-path:url(#SVGID_191_);fill:#474747;stroke:#474747;stroke-width:0.1238;stroke-linejoin:round;}
	.st101{clip-path:url(#SVGID_193_);fill:none;stroke:#000000;stroke-width:9.903000e-002;}
	.st102{clip-path:url(#SVGID_195_);fill:url(#SVGID_196_);stroke:#000000;stroke-width:0.1151;}
	.st103{clip-path:url(#SVGID_198_);fill:none;stroke:#000000;stroke-width:9.903000e-002;}
	.st104{clip-path:url(#SVGID_200_);}
	.st105{clip-path:url(#SVGID_202_);fill:#FF7000;stroke:#000000;stroke-width:9.903000e-002;stroke-linejoin:round;}
	.st106{clip-path:url(#SVGID_204_);fill:#FF7000;stroke:#000000;stroke-width:0.1238;stroke-linejoin:round;}
	.st107{clip-path:url(#SVGID_206_);fill:url(#SVGID_207_);stroke:#000000;stroke-width:0.1151;}
	.st108{clip-path:url(#SVGID_209_);fill:url(#SVGID_210_);stroke:#000000;stroke-width:0.1151;}
	.st109{clip-path:url(#SVGID_212_);fill:none;stroke:#000000;stroke-width:9.903000e-002;}
	.st110{clip-path:url(#SVGID_214_);fill:#8A9396;stroke:#2B2B2B;stroke-width:9.903000e-002;}
	.st111{clip-path:url(#SVGID_216_);fill:#CECFCF;stroke:#2B2B2B;stroke-width:9.903000e-002;}
	.st112{clip-path:url(#SVGID_218_);}
	.st113{clip-path:url(#SVGID_220_);fill:none;stroke:#2B2B2B;stroke-width:6.190000e-002;}
	.st114{clip-path:url(#SVGID_222_);fill:none;stroke:#000000;stroke-width:9.903000e-002;}
	.st115{clip-path:url(#SVGID_224_);fill:none;stroke:#2B2B2B;stroke-width:6.190000e-002;}
	.st116{clip-path:url(#SVGID_226_);fill:none;stroke:#000000;stroke-width:9.903000e-002;}
	.st117{clip-path:url(#SVGID_228_);fill:none;stroke:#2B2B2B;stroke-width:6.190000e-002;}
	.st118{clip-path:url(#SVGID_230_);fill:#2B2B2B;stroke:#2B2B2B;stroke-width:9.903000e-002;}
	.st119{clip-path:url(#SVGID_232_);fill:none;stroke:#2B2B2B;stroke-width:9.903000e-002;}
	.st120{clip-path:url(#SVGID_234_);fill:#2B2B2B;stroke:#2B2B2B;stroke-width:0.1238;stroke-linejoin:round;}
	.st121{clip-path:url(#SVGID_236_);fill:none;stroke:#2B2B2B;stroke-width:9.903000e-002;}
	.st122{clip-path:url(#SVGID_238_);}
	.st123{clip-path:url(#SVGID_240_);fill:#2B2B2B;stroke:#2B2B2B;stroke-width:9.903000e-002;}
	.st124{clip-path:url(#SVGID_242_);fill:#2B2B2B;stroke:#2B2B2B;stroke-width:0.1238;stroke-linejoin:round;}
	.st125{clip-path:url(#SVGID_244_);fill:#2B2B2B;stroke:#2B2B2B;stroke-width:9.903000e-002;}
	.st126{clip-path:url(#SVGID_246_);fill:#2B2B2B;stroke:#2B2B2B;stroke-width:9.903000e-002;}
	.st127{clip-path:url(#SVGID_248_);fill:#2B2B2B;stroke:#2B2B2B;stroke-width:9.903000e-002;}
	.st128{clip-path:url(#SVGID_250_);fill:#2B2B2B;stroke:#2B2B2B;stroke-width:0.1238;stroke-linejoin:round;}
	.st129{clip-path:url(#SVGID_252_);fill:#8A9396;stroke:#2B2B2B;stroke-width:0.1238;stroke-linejoin:round;}
	.st130{clip-path:url(#SVGID_254_);fill:none;stroke:#8A9396;stroke-width:0.1238;stroke-linecap:round;}
	.st131{clip-path:url(#SVGID_256_);fill:none;stroke:#2B2B2B;stroke-width:0.1238;stroke-linecap:round;}
	.st132{clip-path:url(#SVGID_258_);fill:none;stroke:#2B2B2B;stroke-width:9.903000e-002;}
</style>
<g>
	<g>
		<defs>
			<path id="SVGID_1_" d="M-204,420H-262c-3.8,0-7-3.1-7-7V381c0-3.8,3.1-7,7-7h58.1c3.8,0,7,3.1,7,7V413
				C-197,416.9-200.1,420-204,420z"/>
		</defs>
		<clipPath id="SVGID_2_">
			<use xlink:href="#SVGID_1_"  style="overflow:visible;"/>
		</clipPath>
		<path class="st0" d="M-270,368.9h73.6v55.2H-270V368.9z"/>
	</g>
	<g>
		<defs>
			<path id="SVGID_3_" d="M-204,420H-262c-3.8,0-7-3.1-7-7V381c0-3.8,3.1-7,7-7h58.1c3.8,0,7,3.1,7,7V413
				C-197,416.9-200.1,420-204,420z"/>
		</defs>
		<clipPath id="SVGID_4_">
			<use xlink:href="#SVGID_3_"  style="overflow:visible;"/>
		</clipPath>
		<g class="st1">
			<path class="st2" d="M-270,368.9v3.8l46.4,30.1h5.8V399l-46.4-30.1H-270z M-217.7,368.9v3.8l-46.4,30.1h-5.8V399l46.4-30.1
				H-217.7z"/>
			<path class="st2" d="M-248.2,368.9v33.9h8.7v-33.9H-248.2L-248.2,368.9z M-270,380.2v11.3h52.2v-11.3H-270z"/>
			<path class="st3" d="M-270,382.5v6.8h52.2v-6.8C-217.7,382.5-270,382.5-270,382.5z M-246.5,368.9v33.9h5.2v-33.9H-246.5z
				 M-270,402.8l17.4-11.3h3.9l-17.4,11.3H-270z M-270,368.9l17.4,11.3h-3.9l-13.5-8.8V368.9z M-239.1,380.2l17.4-11.3h3.9
				l-17.4,11.3H-239.1z M-217.7,402.8l-17.4-11.3h3.9l13.5,8.8V402.8z"/>
		</g>
	</g>
	<g>
		<defs>
			<path id="SVGID_5_" d="M-204,420H-262c-3.8,0-7-3.1-7-7V381c0-3.8,3.1-7,7-7h58.1c3.8,0,7,3.1,7,7V413
				C-197,416.9-200.1,420-204,420z"/>
		</defs>
		<clipPath id="SVGID_6_">
			<use xlink:href="#SVGID_5_"  style="overflow:visible;"/>
		</clipPath>
		<path class="st4" d="M-216.6,409.2c0,0-0.3,0.9-0.5,0.9c-0.2,0-0.9-0.4-0.9-0.4s-0.5,0.8-0.8,0.9c-0.3,0-0.9-0.1-0.9-0.1
			s-0.7,0-0.7-0.1c0-0.1,0-0.3,0-0.3s-0.9,0.8-1.2,0.7c-0.2,0-0.9-0.9-0.9-0.9l-0.1,0.5l-1.3,0l-1.2-0.8c0,0-0.7,1.1-0.7,1.1
			c0,0-1.2,0.3-1.2,0.3l-0.1-0.2l-0.8-0.4c0,0,0.6-0.8,0.6-0.9c0,0-0.3-0.1-0.3-0.1l-0.4,0.4l-0.9,0.6l-0.9-0.4l0.4-0.7l0-0.5l0.7-1
			l8.4-8.2l4.1,7.6L-216.6,409.2L-216.6,409.2z"/>
	</g>
	<g>
		<defs>
			<path id="SVGID_7_" d="M-204,420H-262c-3.8,0-7-3.1-7-7V381c0-3.8,3.1-7,7-7h58.1c3.8,0,7,3.1,7,7V413
				C-197,416.9-200.1,420-204,420z"/>
		</defs>
		<clipPath id="SVGID_8_">
			<use xlink:href="#SVGID_7_"  style="overflow:visible;"/>
		</clipPath>
		<path class="st5" d="M-210.7,409.7l2.2-0.1l-0.9-0.5l8.3-0.3l-1.2-0.4l-1-1.4l-4.3-0.3c0,0-0.3-0.2-0.9-0.1c0-0.3-0.4-0.8-0.4-0.8
			l-2.7-0.2l-1.7,1.1l1.1,2.9L-210.7,409.7L-210.7,409.7L-210.7,409.7z"/>
	</g>
	<g>
		<defs>
			<path id="SVGID_9_" d="M-204,420H-262c-3.8,0-7-3.1-7-7V381c0-3.8,3.1-7,7-7h58.1c3.8,0,7,3.1,7,7V413
				C-197,416.9-200.1,420-204,420z"/>
		</defs>
		<clipPath id="SVGID_10_">
			<use xlink:href="#SVGID_9_"  style="overflow:visible;"/>
		</clipPath>
		
			<linearGradient id="SVGID_11_" gradientUnits="userSpaceOnUse" x1="-638.1121" y1="1700.5702" x2="-637.9279" y2="1695.3894" gradientTransform="matrix(1.2996 0 0 0.561 614.1949 -569.6589)">
			<stop  offset="0" style="stop-color:#474747"/>
			<stop  offset="1" style="stop-color:#FF5500"/>
		</linearGradient>
		<path class="st6" d="M-219.2,385.2l0.2-0.7c0,0,0.4-0.6,0.4-0.9c0-0.3,0.3-0.6,0.3-0.6s0.9-0.3,1.1,0.3c0.9-1.4,2.1-0.1,2.1-0.1
			l0.3-0.4l0.6-0.8c0,0,0.9,0.8,0.9,1c0,0.1,0.2,0,0.2,0l1-0.1c0,0,0.5,0.4,0.4,1c0.3,0.2,0.6,1.4,0.6,1.4L-219.2,385.2
			L-219.2,385.2z"/>
	</g>
	<g>
		<defs>
			<path id="SVGID_12_" d="M-204,420H-262c-3.8,0-7-3.1-7-7V381c0-3.8,3.1-7,7-7h58.1c3.8,0,7,3.1,7,7V413
				C-197,416.9-200.1,420-204,420z"/>
		</defs>
		<clipPath id="SVGID_13_">
			<use xlink:href="#SVGID_12_"  style="overflow:visible;"/>
		</clipPath>
		<path class="st7" d="M-210.7,394.1c0.2-0.1,0.7-0.3,0.6-1c-0.1-0.8-0.7-0.9-1.1-0.8c-0.4,0-0.7,0.3-0.7,0.3l-1.2-0.8
			c0,0,0.6-3.9,1.3-4.1c0.6-0.4,0.7-0.6,0.7-0.7s-0.2-0.4-0.2-0.4l-4-0.5l-3.8,0.4c0,0-0.3,0.4-0.3,0.6c0,0.2,0.1,0.4,0.7,0.9
			c0.8,0.6,1.3,3.9,1.3,3.9s-1.1,0.5-1.1,0.5c-0.1-0.1-0.4-0.1-0.6-0.1c-0.2,0-0.7,0.3-0.7,1s0.6,1.2,0.6,1.2s3.6-0.4,4.2,0.6
			C-214.5,393.9-211.1,394.3-210.7,394.1L-210.7,394.1L-210.7,394.1z"/>
	</g>
	<g>
		<defs>
			<path id="SVGID_14_" d="M-204,420H-262c-3.8,0-7-3.1-7-7V381c0-3.8,3.1-7,7-7h58.1c3.8,0,7,3.1,7,7V413
				C-197,416.9-200.1,420-204,420z"/>
		</defs>
		<clipPath id="SVGID_15_">
			<use xlink:href="#SVGID_14_"  style="overflow:visible;"/>
		</clipPath>
		<g class="st8">
			<path d="M-206.7,390.1c0,0,0-0.4,0.3-0.6c0.3-0.2,2.3-0.3,2.8,0s0.7,1.8,0.7,1.8s0.3,0.5,0.3,0.9c0,0.4,0.1,0.6,0.1,0.6
				s1.6,2.1,1.6,4c0.2,1.3,0.1,4.7-0.4,6c0,1.6-0.7,2.7-0.7,2.7s0.2,0.3,0.1,0.6c0,0.3-0.2,0.6-0.2,0.6l2.4,1.2l-0.9-0.3
				c0,0,0.9,0.7,0.9,0.7c0,0-1-0.5-1-0.5l0.6,0.6c0,0-1.4-0.6-1.4-0.6s0.7,0.6,0.6,0.6c0,0-1.1-0.5-1.1-0.5s0.6,0.7,0.6,0.6
				c0,0-0.9-0.4-0.9-0.4l0,0.3c0,0-0.7,0-0.7-0.6c-0.4-0.2-0.6-0.5-0.6-0.5l-1.7-0.3l-1.9-5.7l0.4-9.6l0.1-0.5L-206.7,390.1z"/>
			<path class="st9" d="M-206.7,390.1c0,0,0-0.4,0.3-0.6c0.3-0.2,2.3-0.3,2.8,0s0.7,1.8,0.7,1.8s0.3,0.5,0.3,0.9
				c0,0.4,0.1,0.6,0.1,0.6s1.6,2.1,1.6,4c0.2,1.3,0.1,4.7-0.4,6c0,1.6-0.7,2.7-0.7,2.7s0.2,0.3,0.1,0.6c0,0.3-0.2,0.6-0.2,0.6
				l2.4,1.2l-0.9-0.3c0,0,0.9,0.7,0.9,0.7c0,0-1-0.5-1-0.5l0.6,0.6c0,0-1.4-0.6-1.4-0.6s0.7,0.6,0.6,0.6c0,0-1.1-0.5-1.1-0.5
				s0.6,0.7,0.6,0.6c0,0-0.9-0.4-0.9-0.4l0,0.3c0,0-0.7,0-0.7-0.6c-0.4-0.2-0.6-0.5-0.6-0.5l-1.7-0.3l-1.9-5.7l0.4-9.6l0.1-0.5
				L-206.7,390.1z"/>
		</g>
	</g>
	<g>
		<defs>
			<path id="SVGID_16_" d="M-204,420H-262c-3.8,0-7-3.1-7-7V381c0-3.8,3.1-7,7-7h58.1c3.8,0,7,3.1,7,7V413
				C-197,416.9-200.1,420-204,420z"/>
		</defs>
		<clipPath id="SVGID_17_">
			<use xlink:href="#SVGID_16_"  style="overflow:visible;"/>
		</clipPath>
		<path class="st10" d="M-208,420.6c0,0-1-2-1.5-2.1c-0.4-0.8,1.5-7.6,5.3-8c2.1,0.2,0.2,2.4-1.2,1.7c0.2,0.6,0.9,1.5,0.9,1.5
			S-207.2,414.9-208,420.6L-208,420.6z"/>
	</g>
	<g>
		<defs>
			<path id="SVGID_18_" d="M-204,420H-262c-3.8,0-7-3.1-7-7V381c0-3.8,3.1-7,7-7h58.1c3.8,0,7,3.1,7,7V413
				C-197,416.9-200.1,420-204,420z"/>
		</defs>
		<clipPath id="SVGID_19_">
			<use xlink:href="#SVGID_18_"  style="overflow:visible;"/>
		</clipPath>
		<path class="st11" d="M-221,420.9c0,0,0.8-2.3,1.3-2.3c0.5,0-1.3-7.7-5.2-7.8c-2.1,0.2-0.2,2.4,1.2,1.7c-0.2,0.6-0.9,1.5-0.9,1.5
			S-221.8,415.1-221,420.9C-221,420.9-221,420.9-221,420.9z"/>
	</g>
	<g>
		<defs>
			<path id="SVGID_20_" d="M-204,420H-262c-3.8,0-7-3.1-7-7V381c0-3.8,3.1-7,7-7h58.1c3.8,0,7,3.1,7,7V413
				C-197,416.9-200.1,420-204,420z"/>
		</defs>
		<clipPath id="SVGID_21_">
			<use xlink:href="#SVGID_20_"  style="overflow:visible;"/>
		</clipPath>
		<path class="st12" d="M-217.4,406.4c0,0-1,0.3-0.3,1.3c0-0.4,0.5-0.6,0.5-0.6s-0.7,0.8,0,1.4c0.1-0.6,0.5-0.8,0.5-0.8
			s-0.5,1.4,0,1.7c0.1-0.6,0.4-0.8,0.4-0.8s-0.4,1.3,0,1.6c0-0.5,0.4-0.7,0.4-0.7s-0.2,1.3,0.3,1.4c0-0.5,0.4-0.9,0.4-0.9
			s-0.2,1.1,0.6,1.1c0-0.4,0.2-0.9,0.2-0.9s0.4,1.1,0.9,1c0-0.3,0-1,0-1s0.3,1.1,1,0.9c-0.1-0.3,0-0.7,0-0.7s0.3,0.7,0.9,0.5
			c0.1-0.2,0-0.6,0-0.6s0.9,0.9,1.2,0.4c0.3-0.5-0.7-0.7-0.7-0.7h0.7c0,0-0.2-0.6-1.1-0.7c0.3-0.1,0.6,0,0.6,0s-0.2-0.7-1.1-0.8
			c0.4-0.1,0.7,0,0.7,0s-0.1-0.7-1.1-0.8c0.2-0.2,0.6-0.1,0.6-0.1s-0.4-0.6-0.9-0.6S-217.4,406.4-217.4,406.4L-217.4,406.4z"/>
	</g>
	<g>
		<defs>
			<path id="SVGID_22_" d="M-204,420H-262c-3.8,0-7-3.1-7-7V381c0-3.8,3.1-7,7-7h58.1c3.8,0,7,3.1,7,7V413
				C-197,416.9-200.1,420-204,420z"/>
		</defs>
		<clipPath id="SVGID_23_">
			<use xlink:href="#SVGID_22_"  style="overflow:visible;"/>
		</clipPath>
		<g class="st13">
			<path class="st14" d="M-213.4,409.8c0,0,0.4,0.2,0.4,0.3 M-213.2,409.5c0,0,0.5,0.3,0.5,0.6 M-212.7,409.3c0,0,0.4,0.2,0.4,0.6
				 M-212.1,409.5c0,0,0.2,0.4,0.1,0.5 M-211.7,409.7c0,0.3,0,0.3,0,0.3 M-216.3,407.7c0,0,0.4,0.3,0.4,0.7 M-216.4,408
				c0,0,0.2,0.2,0.2,0.3 M-215.8,407.7c0,0,0.3,0.4,0.2,0.7 M-215.3,407.9c0,0,0.1,0.3,0,0.4 M-215.1,408.1c0,0,0.2,0.3,0,0.3
				 M-215.3,408.9c0,0,0.4,0.1,0.5,0.4 M-215,408.6c0,0,0.4,0,0.5,0.5 M-214.5,408.5c0,0,0.3,0.5,0.2,0.7 M-213.9,408.5
				c0,0,0.1,0.5,0,0.6 M-213.6,408.7c0,0,0,0.5,0,0.5 M-214.1,407.9c0,0,0.3,0.1,0.3,0.4 M-213.9,407.7c0,0,0.3,0.2,0.3,0.6
				 M-213.5,407.5c0,0,0.3,0.4,0.2,0.7 M-212.9,407.6c0,0-0.1,0.4-0.1,0.6 M-212.6,407.9c0,0-0.2,0.1-0.1,0.3 M-214.3,409.6
				c0,0,0.1,0.3,0,0.4 M-214.7,409.4c0,0,0.2,0.4,0.1,0.6 M-215.2,409.4c0,0,0.2,0.3,0.2,0.5 M-215.6,409.5c0,0,0.2,0.2,0.2,0.3
				 M-215.8,409.8c0,0,0.2,0.2,0.2,0.3"/>
		</g>
	</g>
	<g>
		<defs>
			<path id="SVGID_24_" d="M-204,420H-262c-3.8,0-7-3.1-7-7V381c0-3.8,3.1-7,7-7h58.1c3.8,0,7,3.1,7,7V413
				C-197,416.9-200.1,420-204,420z"/>
		</defs>
		<clipPath id="SVGID_25_">
			<use xlink:href="#SVGID_24_"  style="overflow:visible;"/>
		</clipPath>
		<path class="st15" d="M-220.4,394.5l3.1-0.1c0,0,2,0,2.3,0.7c0.4-0.9,2.1-0.8,2.1-0.8l3.2-0.1l0.1,7.7c-0.6,3-2.8,5.1-5.2,6
			c-2.8-0.9-4.6-3.3-5.2-6.1L-220.4,394.5L-220.4,394.5z"/>
	</g>
	<g>
		<defs>
			<path id="SVGID_26_" d="M-204,420H-262c-3.8,0-7-3.1-7-7V381c0-3.8,3.1-7,7-7h58.1c3.8,0,7,3.1,7,7V413
				C-197,416.9-200.1,420-204,420z"/>
		</defs>
		<clipPath id="SVGID_27_">
			<use xlink:href="#SVGID_26_"  style="overflow:visible;"/>
		</clipPath>
		<path class="st16" d="M-219.3,394.5l4.5,12l4.1-12.2c-1.3,0.1-4-0.2-4.3,0.9C-215.6,394.1-218.4,394.6-219.3,394.5L-219.3,394.5z"
			/>
	</g>
	<g>
		<defs>
			<path id="SVGID_28_" d="M-204,420H-262c-3.8,0-7-3.1-7-7V381c0-3.8,3.1-7,7-7h58.1c3.8,0,7,3.1,7,7V413
				C-197,416.9-200.1,420-204,420z"/>
		</defs>
		<clipPath id="SVGID_29_">
			<use xlink:href="#SVGID_28_"  style="overflow:visible;"/>
		</clipPath>
		<path class="st17" d="M-216.2,401c0.2,0.1,0.2-3.2,0.4-3.3c0.1-0.3,0.1-0.4,0.2-0.7c-0.2-0.3-1.1-0.3-1.4,0
			c0.1,0.5,0.2,0.6,0.2,0.6C-216.4,398.2-216.5,401-216.2,401L-216.2,401L-216.2,401z"/>
	</g>
	<g>
		<defs>
			<path id="SVGID_30_" d="M-204,420H-262c-3.8,0-7-3.1-7-7V381c0-3.8,3.1-7,7-7h58.1c3.8,0,7,3.1,7,7V413
				C-197,416.9-200.1,420-204,420z"/>
		</defs>
		<clipPath id="SVGID_31_">
			<use xlink:href="#SVGID_30_"  style="overflow:visible;"/>
		</clipPath>
		<path class="st18" d="M-217.4,375.2c0,0,0.3-0.4,0.3-0.4c0-0.1,1.4-0.1,2.3-1.7c0.5-0.8,0-0.3,0-0.3l0-0.4c0,0,0.6-0.6,0.4-0.9
			c-0.2-0.3-0.1,0.4-0.5,0.4c-0.3,0-0.2-0.7-0.2-0.7s0-0.1-0.1-0.1c-0.1,0-0.1,0.3-0.2,0.3c-0.1,0-0.2-0.6-0.2-0.6s-0.2-0.3-0.4,0.6
			c0.1,1,0.7,0.8,0.7,1.4c0,0.6-0.5,1.1-0.7,1.1c-0.2,0-0.1-0.5-0.1-0.5s-0.1-0.3-0.1-0.3s0.3-0.1,0.3-0.8c-0.1-0.9-0.2,0.2-0.5,0.2
			s-0.1-0.8,0-0.9c0.1-0.1-0.1-0.4-0.6,0.5c0,0.4-0.1-0.1-0.2-0.1c-0.2,0.4-0.1,0.6,0.1,1c0.4,0.3,0.6,0.7,0.6,0.8
			c0,0.2-0.2,0.6-0.5,0.6s0-0.5,0-0.6c0-0.2-0.4-0.7-0.4-0.7s-0.3-0.5-0.3-0.5c0,0,0-0.1-0.2,0.4c-0.1,0.5-0.3-0.3-0.3-0.3
			s-0.2,0.6,0.2,1c-0.3,0-0.4,0.1-0.4,0.1c0,0.2,0.4,0.2,0.5,0.5c0.1,0.3-0.5,0.5-0.5,0.5s0.2,0.3,0.8-0.3c0,0.4-0.2,0.6-0.2,0.6
			C-217.6,375-217.5,374.9-217.4,375.2L-217.4,375.2z"/>
	</g>
	<g>
		<defs>
			<path id="SVGID_32_" d="M-204,420H-262c-3.8,0-7-3.1-7-7V381c0-3.8,3.1-7,7-7h58.1c3.8,0,7,3.1,7,7V413
				C-197,416.9-200.1,420-204,420z"/>
		</defs>
		<clipPath id="SVGID_33_">
			<use xlink:href="#SVGID_32_"  style="overflow:visible;"/>
		</clipPath>
		<path class="st19" d="M-219.4,375.2c0,0-0.3-0.4-0.3-0.5c0-0.1-1.3,0.1-1.9-1.5c-0.4-0.8,0-0.3,0-0.3l0-0.4c0,0-0.4-0.5-0.2-0.8
			c0.2-0.3,0.1,0.4,0.3,0.4c0.3,0,0.1-0.7,0.1-0.7s0-0.1,0.1-0.1c0.1,0,0.2,0.4,0.3,0.4c0.1,0,0.3-0.5,0.4-0.6
			c0.1,0,0.1-0.4,0.3,0.4c-0.1,0.9-0.8,0.7-0.8,1.3c0,0.6,0.5,1,0.6,1s0.1-0.5,0.1-0.5s0.1-0.2,0.1-0.2c0,0-0.4,0.1-0.4-0.6
			c0.1-0.6,0.4,0,0.6,0c0.2,0,0-0.6,0-0.7c0-0.1,0.3-0.5,0.4,0.4c0,0.4,0.3-0.3,0.3-0.3c0.1,0.3-0.1,0.8-0.3,1.1
			c-0.3,0.3-0.4,0.6-0.4,0.8c0,0.2,0.1,0.4,0.3,0.4c0.2,0,0.1-0.3,0.1-0.4c0-0.1,0.4-0.6,0.4-0.6c0.1-0.1,0-0.3,0.1-0.4
			c0.1,0,0.2-0.2,0.3,0.3c0.1,0.5,0.3-0.3,0.3-0.3s0.2,0.6-0.2,0.9c0.3,0,0.3,0.1,0.3,0.1c0,0.2-0.1,0.2-0.2,0.5
			c0,0.3,0.1,0.4,0.1,0.4s-0.2,0.3-0.7-0.3c0,0.3,0.2,0.6,0.2,0.6C-219.3,375-219.4,375-219.4,375.2L-219.4,375.2z"/>
	</g>
	<g>
		<defs>
			<path id="SVGID_34_" d="M-204,420H-262c-3.8,0-7-3.1-7-7V381c0-3.8,3.1-7,7-7h58.1c3.8,0,7,3.1,7,7V413
				C-197,416.9-200.1,420-204,420z"/>
		</defs>
		<clipPath id="SVGID_35_">
			<use xlink:href="#SVGID_34_"  style="overflow:visible;"/>
		</clipPath>
		<path class="st20" d="M-211.5,396.3c-0.3-0.2-0.3,0-0.4-0.1c-0.1,0-0.1-0.1-0.2-0.1c0-0.1-0.1-0.1-0.2-0.1c0,0.1,0,0.1-0.1,0.2
			c0,0.1,0.1,0.2,0.1,0.3c0,0.2-0.1,0.3-0.3,0.3c0.1-0.1,0.1-0.1,0.1-0.3c0-0.1-0.2-0.2-0.2-0.3c0-0.1,0.1-0.2,0.1-0.3
			c-0.1,0.1-0.2,0-0.3,0.1c-0.1,0-0.1,0.2-0.2,0.2c-0.1,0-0.3,0-0.5-0.1c0.1-0.1,0.2,0,0.3-0.1c0.1,0,0.1-0.2,0.1-0.3
			c0.1,0,0.2-0.1,0.2-0.1c-0.1-0.1,0-0.1-0.1-0.2c-0.1-0.1-0.3,0-0.3-0.1c-0.1-0.1-0.1-0.3-0.2-0.4c0.3,0.1,0.2,0.2,0.3,0.2
			c0.1-0.1,0.2-0.1,0.3,0c0.1,0,0.2,0.2,0.3,0.2c0-0.1,0.1-0.2,0.1-0.2c0-0.1-0.1-0.2-0.1-0.3c0-0.1,0.2-0.3,0.2-0.4
			c0,0.1,0,0.3,0.1,0.4c0,0.1,0.1,0.1,0.2,0.2c0,0.1-0.1,0.2-0.1,0.3c0.1,0,0.2,0,0.3,0c0.1,0,0.1-0.2,0.2-0.2c0.1,0,0.3,0,0.4,0
			c-0.1,0.1-0.2,0.1-0.3,0.2c-0.1,0,0,0.2-0.1,0.3c-0.1,0-0.2,0-0.3,0l0.2,0.2c0.1,0.1,0.3,0.1,0.3,0.1
			C-211.5,396-211.5,396.1-211.5,396.3z M-218.4,396.4c0.3-0.2,0.3,0,0.4-0.1c0.1,0,0.1-0.1,0.2-0.1c0-0.1,0.1-0.1,0.2-0.1l0.1,0.2
			c0,0.1-0.1,0.2-0.1,0.3c0,0.2,0.1,0.3,0.3,0.3c-0.1-0.1-0.1-0.1-0.1-0.3c0-0.1,0.2-0.2,0.2-0.3c0-0.1-0.1-0.2-0.1-0.3
			c0.1,0.1,0.2,0,0.3,0.1c0.1,0,0.1,0.2,0.2,0.2c0.1,0,0.3,0,0.5-0.1c-0.1-0.1-0.2,0-0.3-0.1c-0.1,0-0.1-0.2-0.1-0.3
			c-0.1,0-0.2-0.1-0.2-0.1c0.1-0.1,0-0.1,0.1-0.2c0.1-0.1,0.3,0,0.3-0.1c0.1-0.1,0.1-0.3,0.2-0.4c-0.3,0.1-0.2,0.2-0.3,0.2
			c-0.1-0.1-0.2-0.1-0.3,0c-0.1,0-0.2,0.2-0.3,0.2c0-0.1-0.1-0.2-0.1-0.2c0-0.1,0.1-0.2,0.1-0.3c0-0.1-0.2-0.3-0.2-0.4
			c0,0.1,0,0.3-0.1,0.4c0,0.1-0.1,0.1-0.2,0.2c0,0.1,0.1,0.2,0.1,0.3c-0.1,0-0.2,0-0.3,0c-0.1,0-0.1-0.2-0.2-0.2c-0.1,0-0.3,0-0.4,0
			c0.1,0.1,0.2,0.1,0.3,0.2c0.1,0,0,0.2,0.1,0.3c0.1,0,0.2,0,0.3,0c-0.1,0.1-0.1,0.1-0.2,0.2c-0.1,0.1-0.3,0.1-0.3,0.1
			C-218.4,396.1-218.4,396.3-218.4,396.4L-218.4,396.4z"/>
	</g>
	<g>
		<defs>
			<path id="SVGID_36_" d="M-204,420H-262c-3.8,0-7-3.1-7-7V381c0-3.8,3.1-7,7-7h58.1c3.8,0,7,3.1,7,7V413
				C-197,416.9-200.1,420-204,420z"/>
		</defs>
		<clipPath id="SVGID_37_">
			<use xlink:href="#SVGID_36_"  style="overflow:visible;"/>
		</clipPath>
		<path class="st21" d="M-211.7,397c-0.2,0.2-1.8,0.6-1.8,2c0,1.4,0.3,1.7,0,1.7c-0.6,0-0.6-1.5-0.6-2.2c0-0.7,0-0.6,0-0.6
			s0.4,0.1,0.4,0.4c0,0.3,0.4-0.8,0.2-1.1c0.3,0.3,0.6,0.2,0.6,0.1s-0.2-0.2-0.3-0.4c-0.1-0.2,0.3,0.1,0.3,0.1s0-0.3-0.3-0.2
			c-0.4,0,0.1-0.1,0.1-0.1s0.2,0.2,0.4,0c-0.2-0.2-0.4-0.3-0.4-0.3s-0.2-0.4-0.5-0.5c-0.4-0.1-0.3,0.2-0.7,0.1
			c-0.1,0.2-0.1,0.2,0.1,0.2c-0.3,0.2-0.1,0.6-0.1,0.6s0.4-0.2,0.4,0.1c0,0.3-0.3,0.3-0.4,0.1c-0.1-0.1-0.2,0.1-0.2,0.1l0.2,0.2
			c0,0-0.4,0-0.6,0.3c0.2,0,0.4,0.1,0.4,0.1s-0.5,0.2-0.6,0.3c0,0.1-0.1-0.1-0.1-0.1c0,0-0.5-0.2-0.5-0.2l-0.2,0.7
			c0,0,0.3,0.3,0.5,0.2c0.2-0.1,0.5-0.4,0.7-0.3c-0.6,0.4-1.1,1.1-1.4,1.1c-0.1-0.1-0.4-0.3-0.5-0.2c-0.1,0.1,0,0.3,0.1,0.3
			c0.1,0-0.5,0.1-0.3,0.4c0.1,0.3,0.1,0.2,0.2,0.2c0.1-0.1-0.1-0.1,0.3-0.2c0.4-0.1,0.4-0.2,0.4-0.2s-0.1,0.2-0.3,0.2
			c-0.2,0.1-0.4,0.1-0.4,0.1c0,0.1,0.1,0.2,0.1,0.3c0,0.1,0.5-0.4,0.6,0c0.3,0,0.6-0.4,0.4-0.7c0,0.3,0.2,0.3,0.1,0.5
			c-0.1,0.1,0.8-0.4,0.3-0.7c0.1,0.3,0.1,0.5,0.1,0.5s0.2,0,0.2-0.1c0-0.1-0.1,0.2,0,0.2c0.1,0.1,0.4,0.3,0.2,0.6
			c-0.1-0.1-0.1-0.3-0.2-0.3c-0.1,0-0.5,0.3-0.7,0.3s0.3,0.9,0.3,0.9s-0.4-0.1-0.4,0c0,0-0.3-0.3-0.3-0.1c-0.1,0.3,0.1,0.2,0.1,0.2
			s-0.2-0.1-0.3,0c-0.1,0.1-0.2,0.2-0.1,0.3c0.1,0.1,0.4,0.1,0.5,0c0,0-0.4,0-0.4,0.1s-0.1,0.2,0,0.3c0.1,0.1,0.3,0,0.4-0.1
			c0-0.1,0,0.2,0,0.2s0.4,0,0.4-0.4c0-0.4,0,0.3,0,0.3s0.4,0.1,0.4-0.4c0-0.4,0,0.3,0,0.3s0.3-0.1,0.3-0.2c0-0.1,0,0.9-0.2,1.1
			c-0.3-0.2-0.5,0.1-0.5,0.1s0,0.5,0,0.6c0,0.1,0.2-0.1,0.2-0.1c0-0.1,0.3-0.2,0.3-0.2l0.1-0.2c0,0-0.1,0.2-0.2,0.3
			s-0.2,0.2-0.2,0.3c0,0.1,0.2,0.2,0.3,0.3c0.1,0.1,0.3-0.6,0.3-0.6l0,0.2c0,0,0.3-0.1,0.3-0.2c0-0.1-0.3-0.3,0-0.5
			c0.3-0.2,0,0.2,0,0.2s0.1,0.3,0.2,0.3s0.2-0.6,0.1-0.8c-0.2-0.2,0.2,0.2,0.2,0.2s0.2-0.6,0-0.7s-0.4-0.1-0.4-0.1s0.1-0.2,0.1-0.2
			c-0.1,0,0.3,0.4,0.4,0.3c0.1-0.1,0.2-0.4-0.3-0.6c-0.5-0.2,0-0.7,0-0.7s0.3,0.3,0.5,0.2c0.2-0.2,0-0.2,0-0.2s0.6-0.4,0.6-0.6
			c-0.1,0-0.3,0-0.3,0s0.3-0.2,0.3-0.6c-0.1,0.2-0.3,0.2-0.3,0.2s0.3-0.3,0.2-0.6c-0.2,0.1-0.2,0.2-0.3,0.2c-0.1,0-0.3-1.1,0.1-1.2
			c0.5-0.1,0.2,0.5,0.2,0.5c0,0,0.7-0.3,0-0.7c0.2-0.1,0.5,0.3,0.5,0.3s-0.1-0.8-0.9-0.3c0.2-0.2,0.3-0.3,0.4-0.3
			c0.1,0,0.7,0,0.7-0.2c-0.1-0.1-0.4,0.1-0.6,0C-212.8,397.7-211.6,397.6-211.7,397L-211.7,397z"/>
	</g>
	<g>
		<defs>
			<path id="SVGID_38_" d="M-204,420H-262c-3.8,0-7-3.1-7-7V381c0-3.8,3.1-7,7-7h58.1c3.8,0,7,3.1,7,7V413
				C-197,416.9-200.1,420-204,420z"/>
		</defs>
		<clipPath id="SVGID_39_">
			<use xlink:href="#SVGID_38_"  style="overflow:visible;"/>
		</clipPath>
		<path class="st22" d="M-216.9,397.5c0,0,0.6-0.4,1,0.1 M-215.6,398.3c0,0-0.2,0.2-0.3,0.2 M-215.2,399c0,0,0.6,0.1,1-0.6"/>
	</g>
	<g>
		<defs>
			<path id="SVGID_40_" d="M-204,420H-262c-3.8,0-7-3.1-7-7V381c0-3.8,3.1-7,7-7h58.1c3.8,0,7,3.1,7,7V413
				C-197,416.9-200.1,420-204,420z"/>
		</defs>
		<clipPath id="SVGID_41_">
			<use xlink:href="#SVGID_40_"  style="overflow:visible;"/>
		</clipPath>
		<path class="st23" d="M-214.6,398.8c0,0,0,0.3,0.1,0.3s-0.2,0.1-0.3,0c0.1,0.2,0.2,0.4,0,0.5"/>
	</g>
	<g>
		<defs>
			<path id="SVGID_42_" d="M-204,420H-262c-3.8,0-7-3.1-7-7V381c0-3.8,3.1-7,7-7h58.1c3.8,0,7,3.1,7,7V413
				C-197,416.9-200.1,420-204,420z"/>
		</defs>
		<clipPath id="SVGID_43_">
			<use xlink:href="#SVGID_42_"  style="overflow:visible;"/>
		</clipPath>
		<path class="st24" d="M-214.9,403.1c0,0-0.2,0.2-0.5,0.3"/>
	</g>
	<g>
		<defs>
			<path id="SVGID_44_" d="M-204,420H-262c-3.8,0-7-3.1-7-7V381c0-3.8,3.1-7,7-7h58.1c3.8,0,7,3.1,7,7V413
				C-197,416.9-200.1,420-204,420z"/>
		</defs>
		<clipPath id="SVGID_45_">
			<use xlink:href="#SVGID_44_"  style="overflow:visible;"/>
		</clipPath>
		<path class="st25" d="M-214.6,402c0,0-0.1-0.7,0-0.9c0-0.2,0.3-0.3,0.4-0.6 M-214.7,401.5c0,0-0.2,0.4-0.9,0.3 M-214.5,400.5
			c0,0,0,0.6-0.6,0.3 M-215.3,398c0,0-0.3,0.2-0.2,0.6"/>
	</g>
	<g>
		<defs>
			<path id="SVGID_46_" d="M-204,420H-262c-3.8,0-7-3.1-7-7V381c0-3.8,3.1-7,7-7h58.1c3.8,0,7,3.1,7,7V413
				C-197,416.9-200.1,420-204,420z"/>
		</defs>
		<clipPath id="SVGID_47_">
			<use xlink:href="#SVGID_46_"  style="overflow:visible;"/>
		</clipPath>
		<path class="st26" d="M-214.3,397.4c0,0,0.3-0.1,0.4-0.2c0.1-0.1,0.2-0.2,0.2-0.3c0-0.1-0.2-0.3-0.1-0.5c0.1-0.1,0.2-0.1,0.4,0
			c0.2,0.1-0.2-0.4-0.4-0.4c-0.2,0-0.3,0.1-0.4,0.1c0,0,0,0.1-0.1,0.1c-0.1,0,0.2,0.1,0.1,0.2c0,0.1,0.3,0.4,0.2,0.4
			C-213.9,397-214.2,397.4-214.3,397.4L-214.3,397.4z"/>
	</g>
	<g>
		<defs>
			<path id="SVGID_48_" d="M-204,420H-262c-3.8,0-7-3.1-7-7V381c0-3.8,3.1-7,7-7h58.1c3.8,0,7,3.1,7,7V413
				C-197,416.9-200.1,420-204,420z"/>
		</defs>
		<clipPath id="SVGID_49_">
			<use xlink:href="#SVGID_48_"  style="overflow:visible;"/>
		</clipPath>
		<path class="st27" d="M-214.1,396.3c0.1,0,0.2,0,0.1,0.1C-214,396.4-214,396.3-214.1,396.3z"/>
	</g>
	<g>
		<defs>
			<path id="SVGID_50_" d="M-204,420H-262c-3.8,0-7-3.1-7-7V381c0-3.8,3.1-7,7-7h58.1c3.8,0,7,3.1,7,7V413
				C-197,416.9-200.1,420-204,420z"/>
		</defs>
		<clipPath id="SVGID_51_">
			<use xlink:href="#SVGID_50_"  style="overflow:visible;"/>
		</clipPath>
		<path class="st28" d="M-215.1,404c0,0-0.1,0.4,0.1,0.4c0-0.1,0-0.2,0.1-0.3C-215,404.1-215.1,404-215.1,404L-215.1,404z
			 M-215.4,403.5c-0.1,0-0.3,0.1-0.3,0.2c0.1-0.1,0.2,0,0.3-0.1C-215.4,403.6-215.4,403.6-215.4,403.5z M-215.4,403.3
			c0,0-0.2,0-0.2,0.1c0.1,0,0.2,0,0.2,0C-215.4,403.3-215.4,403.3-215.4,403.3z"/>
	</g>
	<g>
		<defs>
			<path id="SVGID_52_" d="M-204,420H-262c-3.8,0-7-3.1-7-7V381c0-3.8,3.1-7,7-7h58.1c3.8,0,7,3.1,7,7V413
				C-197,416.9-200.1,420-204,420z"/>
		</defs>
		<clipPath id="SVGID_53_">
			<use xlink:href="#SVGID_52_"  style="overflow:visible;"/>
		</clipPath>
		<path class="st29" d="M-216.2,401.2c0,0,0.1,0,0.1,0.2C-216,401.3-215.9,401.1-216.2,401.2z M-216.5,401.5c0,0,0.2-0.2,0.3,0
			c-0.1,0.1-0.1,0.1-0.1,0.1C-216.4,401.6-216.5,401.5-216.5,401.5z M-216.5,402c0,0,0.2-0.1,0.2,0c0.1,0.1,0,0.1,0,0.1
			S-216.4,402-216.5,402L-216.5,402z M-216.8,399.3c0,0-0.2-0.1-0.3,0.1c0.1,0,0.2,0.1,0.2,0.1
			C-216.8,399.4-216.8,399.3-216.8,399.3z M-217.1,400.3c0,0,0-0.2,0.1-0.3c0.1,0,0.1,0.1,0.1,0.2
			C-217,400.2-217.1,400.2-217.1,400.3z M-216.6,400.1c0,0-0.2,0.1-0.1,0.2c0.1-0.1,0.1-0.1,0.1-0.1
			C-216.6,400.3-216.6,400.1-216.6,400.1z"/>
	</g>
	<g>
		<defs>
			<path id="SVGID_54_" d="M-204,420H-262c-3.8,0-7-3.1-7-7V381c0-3.8,3.1-7,7-7h58.1c3.8,0,7,3.1,7,7V413
				C-197,416.9-200.1,420-204,420z"/>
		</defs>
		<clipPath id="SVGID_55_">
			<use xlink:href="#SVGID_54_"  style="overflow:visible;"/>
		</clipPath>
		<path class="st30" d="M-216.9,397.9c-0.1,0.1,0.1,0.3,0.3,0.3C-216.6,397.9-216.9,397.8-216.9,397.9z"/>
	</g>
	<g>
		<defs>
			<path id="SVGID_56_" d="M-204,420H-262c-3.8,0-7-3.1-7-7V381c0-3.8,3.1-7,7-7h58.1c3.8,0,7,3.1,7,7V413
				C-197,416.9-200.1,420-204,420z"/>
		</defs>
		<clipPath id="SVGID_57_">
			<use xlink:href="#SVGID_56_"  style="overflow:visible;"/>
		</clipPath>
		<path class="st31" d="M-216.9,397.5c0,0.1,0.1,0.2,0.2,0.2C-216.7,397.6-216.9,397.4-216.9,397.5z"/>
	</g>
	<g>
		<defs>
			<path id="SVGID_58_" d="M-204,420H-262c-3.8,0-7-3.1-7-7V381c0-3.8,3.1-7,7-7h58.1c3.8,0,7,3.1,7,7V413
				C-197,416.9-200.1,420-204,420z"/>
		</defs>
		<clipPath id="SVGID_59_">
			<use xlink:href="#SVGID_58_"  style="overflow:visible;"/>
		</clipPath>
		<path class="st32" d="M-216.7,397.7c0,0,0,0.2,0.2,0.1c0-0.1-0.1-0.2-0.1-0.2C-216.7,397.7-216.6,397.7-216.7,397.7z
			 M-216.6,398.2c0,0,0.1,0.1,0.2-0.1c-0.1,0-0.2,0-0.2,0S-216.6,398.2-216.6,398.2z"/>
	</g>
	<g>
		<defs>
			<path id="SVGID_60_" d="M-204,420H-262c-3.8,0-7-3.1-7-7V381c0-3.8,3.1-7,7-7h58.1c3.8,0,7,3.1,7,7V413
				C-197,416.9-200.1,420-204,420z"/>
		</defs>
		<clipPath id="SVGID_61_">
			<use xlink:href="#SVGID_60_"  style="overflow:visible;"/>
		</clipPath>
		<path class="st33" d="M-216.9,397.5c-0.1,0.1,0,0.2,0.2,0.2C-216.7,397.5-216.9,397.4-216.9,397.5z"/>
	</g>
	<g>
		<defs>
			<path id="SVGID_62_" d="M-204,420H-262c-3.8,0-7-3.1-7-7V381c0-3.8,3.1-7,7-7h58.1c3.8,0,7,3.1,7,7V413
				C-197,416.9-200.1,420-204,420z"/>
		</defs>
		<clipPath id="SVGID_63_">
			<use xlink:href="#SVGID_62_"  style="overflow:visible;"/>
		</clipPath>
		
			<linearGradient id="SVGID_64_" gradientUnits="userSpaceOnUse" x1="-600.3011" y1="1472.072" x2="-600.2885" y2="1474.4714" gradientTransform="matrix(1.0598 0 0 0.6878 420.4688 -617.2366)">
			<stop  offset="0" style="stop-color:#B50000"/>
			<stop  offset="1" style="stop-color:#FFC500"/>
		</linearGradient>
		<path class="st34" d="M-216.9,396.7c0,0,0.7-0.2,1.1,0.1c0.4,0.3,0.4,0,0.4,0s0.5,0.2,0.7,0.2c0.2,0-0.1,0,0.1-0.1
			c0.2-0.1-0.4,0-0.5-0.2c-0.1-0.2,0-0.4-0.2-0.3c-0.2-0.2,0.1-0.3,0-0.6c-0.2,0.1-0.2,0-0.4,0.2c-0.3-0.1,0-0.5-0.4-0.5
			c0,0.3-0.2,0.3-0.3,0.5C-216.4,396-217,396.4-216.9,396.7L-216.9,396.7z"/>
	</g>
	<g>
		<defs>
			<path id="SVGID_65_" d="M-204,420H-262c-3.8,0-7-3.1-7-7V381c0-3.8,3.1-7,7-7h58.1c3.8,0,7,3.1,7,7V413
				C-197,416.9-200.1,420-204,420z"/>
		</defs>
		<clipPath id="SVGID_66_">
			<use xlink:href="#SVGID_65_"  style="overflow:visible;"/>
		</clipPath>
		<path class="st35" d="M-224.9,419.4c0.5-0.1,2.9,0.5,3.8,1.6c-0.2-1.8-0.7-3.2-0.7-3.2s-1.5-0.4-1.7-0.2
			C-223.7,417.8-224.6,418.7-224.9,419.4L-224.9,419.4z M-225.6,411c-0.2,0-0.3,0.1-0.5,0.4c-0.2,0.5-0.3,1.7-0.6,2
			s-0.5,0.3-0.5,0.6c0,0.3,0,0.9,0.8,1.1c0.8,0,2-1.2,2-1.2s0.6-0.7,0.9-1.4C-225.1,413-226.2,411.6-225.6,411L-225.6,411z"/>
	</g>
	<g>
		<defs>
			<path id="SVGID_67_" d="M-204,420H-262c-3.8,0-7-3.1-7-7V381c0-3.8,3.1-7,7-7h58.1c3.8,0,7,3.1,7,7V413
				C-197,416.9-200.1,420-204,420z"/>
		</defs>
		<clipPath id="SVGID_68_">
			<use xlink:href="#SVGID_67_"  style="overflow:visible;"/>
		</clipPath>
		<path class="st36" d="M-204.1,419.1c-0.4-0.1-2.9,0.5-3.9,1.5c0.2-1.8,0.7-3.2,0.7-3.2c0.2,0,1.4-0.4,1.6-0.2
			C-205.3,417.5-204.4,418.5-204.1,419.1L-204.1,419.1z M-203.4,410.8c0.2,0,0.2,0.3,0.4,0.5c0.2,0.5,0.4,1.2,0.7,1.5
			c0.3,0.3,0.5,0.7,0.5,1c0,0.3-0.1,0.6-0.8,0.8c-0.8,0-1.9-1-1.9-1s-0.6-0.7-0.9-1.4C-203.9,412.7-203,411.4-203.4,410.8
			L-203.4,410.8z"/>
	</g>
	<g>
		<defs>
			<path id="SVGID_69_" d="M-204,420H-262c-3.8,0-7-3.1-7-7V381c0-3.8,3.1-7,7-7h58.1c3.8,0,7,3.1,7,7V413
				C-197,416.9-200.1,420-204,420z"/>
		</defs>
		<clipPath id="SVGID_70_">
			<use xlink:href="#SVGID_69_"  style="overflow:visible;"/>
		</clipPath>
		<path class="st37" d="M-226.5,417.8c0,0,1.5,1.1,1.6,1.5c4.2-6.2,14.7-8.1,20.8-0.4c0.8-1.1,1.6-1.4,1.6-1.4
			C-208.8,409.2-221.5,410.2-226.5,417.8C-226.5,417.8-226.5,417.8-226.5,417.8z"/>
	</g>
	<g>
		<defs>
			<path id="SVGID_71_" d="M-204,420H-262c-3.8,0-7-3.1-7-7V381c0-3.8,3.1-7,7-7h58.1c3.8,0,7,3.1,7,7V413
				C-197,416.9-200.1,420-204,420z"/>
		</defs>
		<clipPath id="SVGID_72_">
			<use xlink:href="#SVGID_71_"  style="overflow:visible;"/>
		</clipPath>
		<g class="st38">
			<path class="st39" d="M-210.7,394.2l0.6,0l-1.1,1.4l1.3,1.5l-2.6,3.2l2.4,2.9c-0.3,0.6-0.6,1.2-1,1.8l-1.4-1.5l2.5-3.1l-2.1-2.3
				L-210.7,394.2L-210.7,394.2z M-219.4,394.5l-0.6,0l1.2,1.3l-1.3,1.6l2.7,2.9l-2.2,3c0.3,0.6,0.6,1.4,1.1,1.9l1.3-1.7l-2.7-3
				l2-2.5L-219.4,394.5L-219.4,394.5z"/>
			<path class="st39" d="M-216.4,402.3l-1,1.3l3.4,3.9c0.6-0.3,1.1-0.6,1.6-1.1l-1.8-2l0.7-2.1l1,1.2l-3.2,4.1
				c-0.5-0.2-1.1-0.6-1.7-1l1.7-2.2L-216.4,402.3L-216.4,402.3z M-217.4,400.3l0.6,0.8l-0.4-1.1L-217.4,400.3L-217.4,400.3z"/>
			<path class="st40" d="M-213,401c0,0,0.5-0.7,0.5-0.7l-0.2-0.3L-213,401L-213,401z"/>
		</g>
	</g>
	<g>
		<defs>
			<path id="SVGID_73_" d="M-204,420H-262c-3.8,0-7-3.1-7-7V381c0-3.8,3.1-7,7-7h58.1c3.8,0,7,3.1,7,7V413
				C-197,416.9-200.1,420-204,420z"/>
		</defs>
		<clipPath id="SVGID_74_">
			<use xlink:href="#SVGID_73_"  style="overflow:visible;"/>
		</clipPath>
		<g class="st41">
			<path d="M-224.9,418.2l-0.7-0.6l0.1-0.2l0.6,0.5l0.3-0.4l0.1,0.1L-224.9,418.2z"/>
		</g>
	</g>
	<g>
		<defs>
			<path id="SVGID_75_" d="M-204,420H-262c-3.8,0-7-3.1-7-7V381c0-3.8,3.1-7,7-7h58.1c3.8,0,7,3.1,7,7V413
				C-197,416.9-200.1,420-204,420z"/>
		</defs>
		<clipPath id="SVGID_76_">
			<use xlink:href="#SVGID_75_"  style="overflow:visible;"/>
		</clipPath>
		<g class="st42">
			<path d="M-224.3,417.5l-0.7-0.7l0.5-0.5l0.1,0.1l-0.4,0.4l0.2,0.2l0.3-0.4l0.1,0.1l-0.3,0.4l0.2,0.2l0.4-0.4l0.1,0.1
				L-224.3,417.5z"/>
		</g>
	</g>
	<g>
		<defs>
			<path id="SVGID_77_" d="M-204,420H-262c-3.8,0-7-3.1-7-7V381c0-3.8,3.1-7,7-7h58.1c3.8,0,7,3.1,7,7V413
				C-197,416.9-200.1,420-204,420z"/>
		</defs>
		<clipPath id="SVGID_78_">
			<use xlink:href="#SVGID_77_"  style="overflow:visible;"/>
		</clipPath>
		<g class="st43">
			<path d="M-224.1,416.5c-0.1-0.1-0.1-0.1-0.1-0.2c0,0,0-0.1,0-0.2c0-0.1,0-0.1,0-0.1c0-0.1,0.1-0.1,0.1-0.1
				c0.1-0.1,0.2-0.1,0.3-0.1c0.1,0,0.2,0.1,0.3,0.2c0.1,0.1,0.1,0.2,0.1,0.4c0,0.1-0.1,0.2-0.2,0.3c-0.1,0.1-0.2,0.1-0.3,0.1
				C-223.9,416.7-224,416.7-224.1,416.5z M-224,416.4c0.1,0.1,0.1,0.1,0.2,0.2c0.1,0,0.1,0,0.2,0c0.1,0,0.1-0.1,0.1-0.2
				c0-0.1,0-0.2-0.1-0.2c-0.1-0.1-0.1-0.1-0.2-0.2c-0.1,0-0.1,0-0.2,0s-0.1,0.1-0.1,0.2C-224.1,416.3-224,416.3-224,416.4z"/>
		</g>
	</g>
	<g>
		<defs>
			<path id="SVGID_79_" d="M-204,420H-262c-3.8,0-7-3.1-7-7V381c0-3.8,3.1-7,7-7h58.1c3.8,0,7,3.1,7,7V413
				C-197,416.9-200.1,420-204,420z"/>
		</defs>
		<clipPath id="SVGID_80_">
			<use xlink:href="#SVGID_79_"  style="overflow:visible;"/>
		</clipPath>
		<g class="st44">
			<path d="M-222.5,415.8l-0.5-0.7l-0.2,0.2l-0.1-0.1l0.7-0.4l0.1,0.1l-0.2,0.2l0.5,0.7L-222.5,415.8z"/>
		</g>
	</g>
	<g>
		<defs>
			<path id="SVGID_81_" d="M-204,420H-262c-3.8,0-7-3.1-7-7V381c0-3.8,3.1-7,7-7h58.1c3.8,0,7,3.1,7,7V413
				C-197,416.9-200.1,420-204,420z"/>
		</defs>
		<clipPath id="SVGID_82_">
			<use xlink:href="#SVGID_81_"  style="overflow:visible;"/>
		</clipPath>
		<g class="st45">
			<path d="M-222.1,415.5l-0.4-0.9l0.7-0.3l0.1,0.2l-0.5,0.2l0.1,0.2l0.4-0.2l0.1,0.2l-0.4,0.2l0.1,0.2l0.5-0.2l0.1,0.2
				L-222.1,415.5z"/>
		</g>
	</g>
	<g>
		<defs>
			<path id="SVGID_83_" d="M-204,420H-262c-3.8,0-7-3.1-7-7V381c0-3.8,3.1-7,7-7h58.1c3.8,0,7,3.1,7,7V413
				C-197,416.9-200.1,420-204,420z"/>
		</defs>
		<clipPath id="SVGID_84_">
			<use xlink:href="#SVGID_83_"  style="overflow:visible;"/>
		</clipPath>
		<g class="st46">
			<path d="M-221.4,415l-0.4-0.9l0.4-0.2c0.1,0,0.2-0.1,0.2-0.1c0.1,0,0.1,0,0.1,0c0,0,0.1,0.1,0.1,0.1c0,0.1,0,0.1,0,0.2
				c0,0.1-0.1,0.1-0.1,0.2c0,0,0.1,0,0.1,0c0,0,0.1,0.1,0.2,0.1l0.2,0.1l-0.2,0.1l-0.2-0.1c-0.1,0-0.1-0.1-0.2-0.1c0,0,0,0-0.1,0
				c0,0-0.1,0-0.1,0l0,0l0.2,0.4L-221.4,415z M-221.4,414.4l0.1-0.1c0.1,0,0.1-0.1,0.2-0.1c0,0,0,0,0-0.1c0,0,0,0,0-0.1
				c0,0,0-0.1-0.1-0.1c0,0-0.1,0-0.1,0c0,0-0.1,0-0.1,0.1l-0.1,0.1L-221.4,414.4z"/>
		</g>
	</g>
	<g>
		<defs>
			<path id="SVGID_85_" d="M-204,420H-262c-3.8,0-7-3.1-7-7V381c0-3.8,3.1-7,7-7h58.1c3.8,0,7,3.1,7,7V413
				C-197,416.9-200.1,420-204,420z"/>
		</defs>
		<clipPath id="SVGID_86_">
			<use xlink:href="#SVGID_85_"  style="overflow:visible;"/>
		</clipPath>
		<g class="st47">
			<path d="M-220.5,414.6l-0.4-0.9l0.4-0.2c0.1,0,0.2-0.1,0.2-0.1c0.1,0,0.1,0,0.1,0s0.1,0.1,0.1,0.1c0,0.1,0,0.1,0,0.2
				c0,0.1-0.1,0.1-0.1,0.2c0,0,0.1,0,0.1,0c0,0,0.1,0.1,0.2,0.1l0.2,0.1l-0.2,0.1l-0.2-0.1c-0.1-0.1-0.1-0.1-0.2-0.1c0,0,0,0-0.1,0
				c0,0-0.1,0-0.1,0l0,0l0.2,0.4L-220.5,414.6z M-220.6,414l0.1-0.1c0.1,0,0.1-0.1,0.2-0.1c0,0,0,0,0-0.1c0,0,0,0,0-0.1
				c0,0,0-0.1-0.1-0.1c0,0-0.1,0-0.1,0c0,0-0.1,0-0.1,0.1l-0.1,0.1L-220.6,414z"/>
		</g>
	</g>
	<g>
		<defs>
			<path id="SVGID_87_" d="M-204,420H-262c-3.8,0-7-3.1-7-7V381c0-3.8,3.1-7,7-7h58.1c3.8,0,7,3.1,7,7V413
				C-197,416.9-200.1,420-204,420z"/>
		</defs>
		<clipPath id="SVGID_88_">
			<use xlink:href="#SVGID_87_"  style="overflow:visible;"/>
		</clipPath>
		<g class="st48">
			<path d="M-216.4,413.3l-0.1-1l0.4,0c0.1,0,0.2,0,0.2,0c0,0,0.1,0,0.1,0.1c0,0,0.1,0.1,0.1,0.2c0,0.1,0,0.1,0,0.2
				c0,0.1-0.1,0.1-0.2,0.1c0,0,0.1,0,0.1,0.1s0.1,0.1,0.1,0.2l0.1,0.2l-0.2,0l-0.2-0.2c-0.1-0.1-0.1-0.1-0.1-0.1c0,0,0,0-0.1,0
				c0,0-0.1,0-0.1,0l0,0l0,0.4L-216.4,413.3z M-216.2,412.7l0.1,0c0.1,0,0.2,0,0.2,0c0,0,0,0,0.1,0c0,0,0,0,0-0.1c0,0,0-0.1,0-0.1
				c0,0,0,0-0.1,0c0,0-0.1,0-0.1,0l-0.2,0L-216.2,412.7z"/>
		</g>
	</g>
	<g>
		<defs>
			<path id="SVGID_89_" d="M-204,420H-262c-3.8,0-7-3.1-7-7V381c0-3.8,3.1-7,7-7h58.1c3.8,0,7,3.1,7,7V413
				C-197,416.9-200.1,420-204,420z"/>
		</defs>
		<clipPath id="SVGID_90_">
			<use xlink:href="#SVGID_89_"  style="overflow:visible;"/>
		</clipPath>
		<g class="st49">
			<path d="M-213.9,413.2l0-1l0.4,0c0.1,0,0.2,0,0.2,0c0,0,0.1,0.1,0.1,0.1c0,0,0,0.1,0,0.2c0,0.1,0,0.1-0.1,0.2
				c0,0-0.1,0.1-0.2,0.1c0,0,0.1,0.1,0.1,0.1c0,0,0.1,0.1,0.1,0.2l0.1,0.2l-0.2,0l-0.1-0.2c0-0.1-0.1-0.1-0.1-0.1c0,0,0,0-0.1,0
				c0,0-0.1,0-0.1,0l0,0l0,0.4L-213.9,413.2z M-213.7,412.6l0.1,0c0.1,0,0.2,0,0.2,0c0,0,0,0,0.1,0c0,0,0,0,0-0.1c0,0,0-0.1,0-0.1
				c0,0,0,0-0.1,0c0,0-0.1,0-0.1,0l-0.2,0L-213.7,412.6z"/>
		</g>
	</g>
	<g>
		<defs>
			<path id="SVGID_91_" d="M-204,420H-262c-3.8,0-7-3.1-7-7V381c0-3.8,3.1-7,7-7h58.1c3.8,0,7,3.1,7,7V413
				C-197,416.9-200.1,420-204,420z"/>
		</defs>
		<clipPath id="SVGID_92_">
			<use xlink:href="#SVGID_91_"  style="overflow:visible;"/>
		</clipPath>
		<g class="st50">
			<path d="M-208.9,414.3l0.5-0.9l0.4,0.2c0.1,0.1,0.2,0.1,0.2,0.1c0,0,0.1,0.1,0.1,0.1c0,0.1,0,0.1,0,0.2c0,0.1-0.1,0.1-0.1,0.1
				c-0.1,0-0.1,0-0.2,0c0,0,0,0.1,0.1,0.1c0,0,0,0.1,0,0.2l0,0.2l-0.2-0.1l0-0.3c0-0.1,0-0.2,0-0.2c0,0,0,0,0-0.1c0,0,0,0-0.1-0.1
				l0,0l-0.2,0.4L-208.9,414.3z M-208.4,413.9l0.1,0.1c0.1,0,0.1,0.1,0.2,0.1c0,0,0,0,0.1,0c0,0,0,0,0.1-0.1c0,0,0-0.1,0-0.1
				c0,0,0,0,0-0.1c0,0-0.1,0-0.1-0.1l-0.1-0.1L-208.4,413.9z"/>
		</g>
	</g>
	<g>
		<defs>
			<path id="SVGID_93_" d="M-204,420H-262c-3.8,0-7-3.1-7-7V381c0-3.8,3.1-7,7-7h58.1c3.8,0,7,3.1,7,7V413
				C-197,416.9-200.1,420-204,420z"/>
		</defs>
		<clipPath id="SVGID_94_">
			<use xlink:href="#SVGID_93_"  style="overflow:visible;"/>
		</clipPath>
		<g class="st51">
			<path d="M-206.5,415.7l0.6-0.8l0.6,0.5l-0.1,0.1l-0.4-0.3l-0.1,0.2l0.4,0.3l-0.1,0.1l-0.4-0.3l-0.2,0.2l0.4,0.4l-0.1,0.1
				L-206.5,415.7z"/>
		</g>
	</g>
	<g>
		<defs>
			<path id="SVGID_95_" d="M-204,420H-262c-3.8,0-7-3.1-7-7V381c0-3.8,3.1-7,7-7h58.1c3.8,0,7,3.1,7,7V413
				C-197,416.9-200.1,420-204,420z"/>
		</defs>
		<clipPath id="SVGID_96_">
			<use xlink:href="#SVGID_95_"  style="overflow:visible;"/>
		</clipPath>
		<g class="st52">
			<path d="M-207.9,414.4c0-0.1,0-0.2,0.1-0.2c0,0,0.1-0.1,0.1-0.1c0,0,0.1-0.1,0.1-0.1c0.1,0,0.1,0,0.2,0c0.1,0,0.2,0.1,0.3,0.2
				c0.1,0.1,0.1,0.2,0.1,0.4c0,0.2-0.1,0.3-0.2,0.3c-0.1,0.1-0.2,0.1-0.4,0.1c-0.1,0-0.2-0.1-0.3-0.2S-207.9,414.5-207.9,414.4z
				 M-207.7,414.4c0,0.1,0,0.2,0,0.3s0.1,0.1,0.2,0.1c0.1,0,0.1,0,0.2,0c0.1,0,0.1-0.1,0.1-0.2c0-0.1,0-0.2,0-0.3s-0.1-0.1-0.2-0.1
				c-0.1,0-0.1,0-0.2,0C-207.7,414.2-207.7,414.3-207.7,414.4z"/>
		</g>
	</g>
	<g>
		<defs>
			<path id="SVGID_97_" d="M-204,420H-262c-3.8,0-7-3.1-7-7V381c0-3.8,3.1-7,7-7h58.1c3.8,0,7,3.1,7,7V413
				C-197,416.9-200.1,420-204,420z"/>
		</defs>
		<clipPath id="SVGID_98_">
			<use xlink:href="#SVGID_97_"  style="overflow:visible;"/>
		</clipPath>
		<g class="st53">
			<path d="M-215.6,412.8c0-0.1,0-0.2,0-0.3c0-0.1,0-0.1,0.1-0.1c0,0,0.1-0.1,0.1-0.1c0.1,0,0.1-0.1,0.2-0.1c0.1,0,0.2,0,0.3,0.1
				c0.1,0.1,0.1,0.2,0.2,0.4c0,0.2,0,0.3-0.1,0.4c-0.1,0.1-0.2,0.2-0.3,0.2c-0.1,0-0.2,0-0.3-0.1
				C-215.5,413-215.6,412.9-215.6,412.8z M-215.4,412.7c0,0.1,0,0.2,0.1,0.2s0.1,0.1,0.2,0.1c0.1,0,0.1,0,0.2-0.1c0-0.1,0-0.1,0-0.3
				c0-0.1,0-0.2-0.1-0.2c-0.1,0-0.1-0.1-0.2-0.1c-0.1,0-0.1,0-0.2,0.1C-215.4,412.5-215.4,412.6-215.4,412.7z"/>
		</g>
	</g>
	<g>
		<defs>
			<path id="SVGID_99_" d="M-204,420H-262c-3.8,0-7-3.1-7-7V381c0-3.8,3.1-7,7-7h58.1c3.8,0,7,3.1,7,7V413
				C-197,416.9-200.1,420-204,420z"/>
		</defs>
		<clipPath id="SVGID_100_">
			<use xlink:href="#SVGID_99_"  style="overflow:visible;"/>
		</clipPath>
		<g class="st54">
			<path d="M-218.8,413.8l-0.2,0.1l-0.2-0.2l-0.4,0.1l0,0.2l-0.2,0.1l0-1.1l0.2-0.1L-218.8,413.8z M-219.3,413.6l-0.3-0.3l0,0.4
				L-219.3,413.6z"/>
		</g>
	</g>
	<g>
		<defs>
			<path id="SVGID_101_" d="M-204,420H-262c-3.8,0-7-3.1-7-7V381c0-3.8,3.1-7,7-7h58.1c3.8,0,7,3.1,7,7V413
				C-197,416.9-200.1,420-204,420z"/>
		</defs>
		<clipPath id="SVGID_102_">
			<use xlink:href="#SVGID_101_"  style="overflow:visible;"/>
		</clipPath>
		<g class="st55">
			<path d="M-204.5,417.5l-0.2-0.2l0.1-0.2l-0.3-0.3l-0.2,0.1l-0.1-0.2l1-0.4l0.1,0.2L-204.5,417.5z M-204.4,417l0.2-0.4l-0.4,0.2
				L-204.4,417z"/>
		</g>
	</g>
	<g>
		<defs>
			<path id="SVGID_103_" d="M-204,420H-262c-3.8,0-7-3.1-7-7V381c0-3.8,3.1-7,7-7h58.1c3.8,0,7,3.1,7,7V413
				C-197,416.9-200.1,420-204,420z"/>
		</defs>
		<clipPath id="SVGID_104_">
			<use xlink:href="#SVGID_103_"  style="overflow:visible;"/>
		</clipPath>
		<g class="st56">
			<path d="M-211.4,413.5l-0.2,0l0-0.2l-0.4-0.1l-0.1,0.2l-0.2,0l0.6-0.9l0.2,0L-211.4,413.5z M-211.7,413l-0.1-0.4l-0.2,0.3
				L-211.7,413z"/>
		</g>
	</g>
	<g>
		<defs>
			<path id="SVGID_105_" d="M-204,420H-262c-3.8,0-7-3.1-7-7V381c0-3.8,3.1-7,7-7h58.1c3.8,0,7,3.1,7,7V413
				C-197,416.9-200.1,420-204,420z"/>
		</defs>
		<clipPath id="SVGID_106_">
			<use xlink:href="#SVGID_105_"  style="overflow:visible;"/>
		</clipPath>
		<g class="st57">
			<path d="M-218.8,413.8l-0.2-1l0.3-0.1l0.3,0.6l0.1-0.7l0.3-0.1l0.2,1l-0.2,0l-0.1-0.8l0,0.8l-0.2,0l-0.3-0.7l0.1,0.8
				L-218.8,413.8z"/>
		</g>
	</g>
	<g>
		<defs>
			<path id="SVGID_107_" d="M-204,420H-262c-3.8,0-7-3.1-7-7V381c0-3.8,3.1-7,7-7h58.1c3.8,0,7,3.1,7,7V413
				C-197,416.9-200.1,420-204,420z"/>
		</defs>
		<clipPath id="SVGID_108_">
			<use xlink:href="#SVGID_107_"  style="overflow:visible;"/>
		</clipPath>
		<g class="st58">
			<path d="M-217.2,413.4l-0.1-1l0.3,0c0.1,0,0.2,0,0.2,0c0.1,0,0.1,0,0.2,0.1c0,0,0.1,0.1,0.1,0.2c0,0.1,0,0.1,0,0.2
				c0,0,0,0.1-0.1,0.1c0,0-0.1,0-0.1,0.1c0,0-0.1,0-0.2,0l-0.1,0l0,0.4L-217.2,413.4z M-217.1,412.6l0,0.3l0.1,0c0.1,0,0.1,0,0.2,0
				c0,0,0,0,0.1-0.1c0,0,0,0,0-0.1c0,0,0-0.1,0-0.1c0,0-0.1,0-0.1,0C-216.9,412.6-216.9,412.6-217.1,412.6L-217.1,412.6z"/>
		</g>
	</g>
	<g>
		<defs>
			<path id="SVGID_109_" d="M-204,420H-262c-3.8,0-7-3.1-7-7V381c0-3.8,3.1-7,7-7h58.1c3.8,0,7,3.1,7,7V413
				C-197,416.9-200.1,420-204,420z"/>
		</defs>
		<clipPath id="SVGID_110_">
			<use xlink:href="#SVGID_109_"  style="overflow:visible;"/>
		</clipPath>
		<g class="st59">
			<path d="M-214.6,413.2l0-1l0.3,0c0.1,0,0.2,0,0.2,0c0.1,0,0.1,0,0.1,0.1c0,0,0.1,0.1,0.1,0.2c0,0.1,0,0.1,0,0.2s0,0.1-0.1,0.1
				c0,0-0.1,0-0.1,0c0,0-0.1,0-0.2,0l-0.1,0l0,0.4L-214.6,413.2z M-214.4,412.4l0,0.3l0.1,0c0.1,0,0.1,0,0.2,0c0,0,0,0,0.1-0.1
				c0,0,0,0,0-0.1c0,0,0-0.1,0-0.1c0,0,0,0-0.1,0C-214.2,412.4-214.3,412.4-214.4,412.4L-214.4,412.4z"/>
		</g>
	</g>
	<g>
		<defs>
			<path id="SVGID_111_" d="M-204,420H-262c-3.8,0-7-3.1-7-7V381c0-3.8,3.1-7,7-7h58.1c3.8,0,7,3.1,7,7V413
				C-197,416.9-200.1,420-204,420z"/>
		</defs>
		<clipPath id="SVGID_112_">
			<use xlink:href="#SVGID_111_"  style="overflow:visible;"/>
		</clipPath>
		<g class="st60">
			<path d="M-209.7,413.9l0.5-0.9l0.3,0.2c0.1,0.1,0.2,0.1,0.2,0.1c0,0,0.1,0.1,0.1,0.2c0,0.1,0,0.1,0,0.2c0,0.1-0.1,0.1-0.1,0.1
				c0,0-0.1,0-0.1,0c0,0-0.1,0-0.1,0c0,0-0.1,0-0.2-0.1l-0.1-0.1l-0.2,0.3L-209.7,413.9z M-209.1,413.3l-0.1,0.2l0.1,0.1
				c0.1,0,0.1,0.1,0.1,0.1c0,0,0.1,0,0.1,0c0,0,0,0,0.1-0.1c0,0,0-0.1,0-0.1c0,0,0-0.1,0-0.1C-208.9,413.4-208.9,413.4-209.1,413.3
				L-209.1,413.3z"/>
		</g>
	</g>
	<g>
		<defs>
			<path id="SVGID_113_" d="M-204,420H-262c-3.8,0-7-3.1-7-7V381c0-3.8,3.1-7,7-7h58.1c3.8,0,7,3.1,7,7V413
				C-197,416.9-200.1,420-204,420z"/>
		</defs>
		<clipPath id="SVGID_114_">
			<use xlink:href="#SVGID_113_"  style="overflow:visible;"/>
		</clipPath>
		<g class="st61">
			<path d="M-212.9,413.2l0.1-1l0.2,0l-0.1,1L-212.9,413.2z"/>
		</g>
	</g>
	<g>
		<defs>
			<path id="SVGID_115_" d="M-204,420H-262c-3.8,0-7-3.1-7-7V381c0-3.8,3.1-7,7-7h58.1c3.8,0,7,3.1,7,7V413
				C-197,416.9-200.1,420-204,420z"/>
		</defs>
		<clipPath id="SVGID_116_">
			<use xlink:href="#SVGID_115_"  style="overflow:visible;"/>
		</clipPath>
		<g class="st62">
			<path d="M-204.4,417.7l0.6-0.6l-0.2-0.2l0.1-0.1l0.5,0.6l-0.1,0.1l-0.2-0.2l-0.6,0.6L-204.4,417.7z"/>
		</g>
	</g>
	<g>
		<defs>
			<path id="SVGID_117_" d="M-204,420H-262c-3.8,0-7-3.1-7-7V381c0-3.8,3.1-7,7-7h58.1c3.8,0,7,3.1,7,7V413
				C-197,416.9-200.1,420-204,420z"/>
		</defs>
		<clipPath id="SVGID_118_">
			<use xlink:href="#SVGID_117_"  style="overflow:visible;"/>
		</clipPath>
		<g class="st63">
			<path d="M-207.1,415.3l0.5-0.7l-0.2-0.2l0.1-0.1l0.6,0.5l-0.1,0.1l-0.2-0.2l-0.5,0.7L-207.1,415.3z"/>
		</g>
	</g>
	<g>
		<defs>
			<path id="SVGID_119_" d="M-204,420H-262c-3.8,0-7-3.1-7-7V381c0-3.8,3.1-7,7-7h58.1c3.8,0,7,3.1,7,7V413
				C-197,416.9-200.1,420-204,420z"/>
		</defs>
		<clipPath id="SVGID_120_">
			<use xlink:href="#SVGID_119_"  style="overflow:visible;"/>
		</clipPath>
		<g class="st64">
			<path d="M-211.4,413.5l0.3-1l0.3,0.1l0,0.7l0.4-0.6l0.3,0.1l-0.3,1l-0.2-0.1l0.2-0.7l-0.4,0.7l-0.2-0.1l0-0.8l-0.2,0.7
				L-211.4,413.5z"/>
		</g>
	</g>
	<g>
		<defs>
			<path id="SVGID_121_" d="M-204,420H-262c-3.8,0-7-3.1-7-7V381c0-3.8,3.1-7,7-7h58.1c3.8,0,7,3.1,7,7V413
				C-197,416.9-200.1,420-204,420z"/>
		</defs>
		<clipPath id="SVGID_122_">
			<use xlink:href="#SVGID_121_"  style="overflow:visible;"/>
		</clipPath>
		<g class="st65">
			<path d="M-205.3,416.3l0.1-0.1l0.3,0.3l-0.3,0.3c-0.1,0-0.1,0-0.2-0.1c-0.1,0-0.1-0.1-0.2-0.1c-0.1-0.1-0.1-0.2-0.1-0.2
				c0-0.1,0-0.2,0-0.3c0-0.1,0.1-0.2,0.2-0.2c0.1-0.1,0.2-0.1,0.2-0.1c0.1,0,0.2,0,0.3,0c0.1,0,0.1,0.1,0.2,0.1
				c0.1,0.1,0.1,0.2,0.1,0.3c0,0.1,0,0.2-0.1,0.2l-0.2-0.1c0,0,0-0.1,0-0.1s0-0.1-0.1-0.1c-0.1-0.1-0.1-0.1-0.2-0.1
				c-0.1,0-0.2,0-0.2,0.1c-0.1,0.1-0.1,0.2-0.1,0.2c0,0.1,0,0.1,0.1,0.2c0,0,0.1,0.1,0.1,0.1c0,0,0.1,0,0.1,0l0.1-0.1L-205.3,416.3z
				"/>
		</g>
	</g>
	<g>
		<defs>
			<path id="SVGID_123_" d="M-204,420H-262c-3.8,0-7-3.1-7-7V381c0-3.8,3.1-7,7-7h58.1c3.8,0,7,3.1,7,7V413
				C-197,416.9-200.1,420-204,420z"/>
		</defs>
		<clipPath id="SVGID_124_">
			<use xlink:href="#SVGID_123_"  style="overflow:visible;"/>
		</clipPath>
		<g class="st66">
			<path class="st67" d="M-205.8,390.2c0,0,0.6-0.5,1-0.5 M-205.7,390.1c0,0,3.6-0.5,3.7-0.6 M-205.7,390.1c0,0,4-0.3,4-0.3
				 M-205.7,390.1c0,0,4.2-0.2,4.5,0 M-205.8,390.1c0,0,4.1,0,4.2,0.1 M-205.7,390.1l4,0.3 M-205.8,390.2c0,0,4.1,0.4,4.5,0.9
				 M-201.1,391.7c0,0-1.4-1.6-4.7-1.6 M-205.8,390.2c0,0,2.3,0.2,3,1 M-205.7,390.1c0,0,1.5-0.3,3,1.6"/>
		</g>
	</g>
	<g>
		<defs>
			<path id="SVGID_125_" d="M-204,420H-262c-3.8,0-7-3.1-7-7V381c0-3.8,3.1-7,7-7h58.1c3.8,0,7,3.1,7,7V413
				C-197,416.9-200.1,420-204,420z"/>
		</defs>
		<clipPath id="SVGID_126_">
			<use xlink:href="#SVGID_125_"  style="overflow:visible;"/>
		</clipPath>
		
			<linearGradient id="SVGID_127_" gradientUnits="userSpaceOnUse" x1="-327.1808" y1="875.5716" x2="-321.5961" y2="875.338" gradientTransform="matrix(0.4811 0 0 1.5152 -47.135 -927.5085)">
			<stop  offset="0" style="stop-color:#D5DFFF"/>
			<stop  offset="1" style="stop-color:#FFFFFF"/>
		</linearGradient>
		<path class="st68" d="M-206.7,391.8c0,0,2.1,0.1,2.1,0.3s-1.5,0.6-1.5,1.4c0,0.8,1.2,0.9,1.2,2c0.1,1.1-0.9,1.2-1.1,1.5
			c-0.2,0.1-0.7,1.6-0.6,2.5c0.1,0.9,0.3,3.9,0.8,4.5c0.4,0.3,0.9,1.2,1.5,0.9c0.6-0.3,0.2-1.3,0.1-1.6s0.2-0.7,0.2-1.2
			c0-0.4-0.2-0.8-0.2-0.9c0-0.1,1.6,0.4,1.5,2c-0.1,1.6-0.7,1.1-0.7,1.1s0.2,2-0.3,2.2c-0.9,0.5-1.6-0.1-1.6-0.1l0.1,0.4l-0.7-0.4
			c0,0-0.9-1.3-1.1-1.8c-0.2-0.6-0.4-3.1-0.4-3.6c0.1-0.5,0.1-3.7,0.1-3.9c0-0.2-0.2-2.8-0.1-3.2
			C-207.3,393.6-206.7,391.8-206.7,391.8L-206.7,391.8z"/>
	</g>
	<g>
		<defs>
			<path id="SVGID_128_" d="M-204,420H-262c-3.8,0-7-3.1-7-7V381c0-3.8,3.1-7,7-7h58.1c3.8,0,7,3.1,7,7V413
				C-197,416.9-200.1,420-204,420z"/>
		</defs>
		<clipPath id="SVGID_129_">
			<use xlink:href="#SVGID_128_"  style="overflow:visible;"/>
		</clipPath>
		<path class="st69" d="M-208.9,391.3c0,0,1.4-1.4,2.3-1.2c0.4,0,0,0.3,0,0.3s0.7,0.1,0.8,0.4c0,0.1-0.3,0.2-0.3,0.2
			s0.3,0.1,0.3,0.3C-205.8,391.5-208.9,391.3-208.9,391.3z"/>
	</g>
	<g>
		<defs>
			<path id="SVGID_130_" d="M-204,420H-262c-3.8,0-7-3.1-7-7V381c0-3.8,3.1-7,7-7h58.1c3.8,0,7,3.1,7,7V413
				C-197,416.9-200.1,420-204,420z"/>
		</defs>
		<clipPath id="SVGID_131_">
			<use xlink:href="#SVGID_130_"  style="overflow:visible;"/>
		</clipPath>
		<path class="st70" d="M-208.8,391.3c0,0,1.5-0.2,2.2-0.8 M-207.3,390.8c0,0,1.1,0,1.1,0.1"/>
	</g>
	<g>
		<defs>
			<path id="SVGID_132_" d="M-204,420H-262c-3.8,0-7-3.1-7-7V381c0-3.8,3.1-7,7-7h58.1c3.8,0,7,3.1,7,7V413
				C-197,416.9-200.1,420-204,420z"/>
		</defs>
		<clipPath id="SVGID_133_">
			<use xlink:href="#SVGID_132_"  style="overflow:visible;"/>
		</clipPath>
		<path class="st71" d="M-203.3,407.3c0,0,1-0.2,1.2-0.6C-201.9,406.6-201,408-203.3,407.3z"/>
	</g>
	<g>
		<defs>
			<path id="SVGID_134_" d="M-204,420H-262c-3.8,0-7-3.1-7-7V381c0-3.8,3.1-7,7-7h58.1c3.8,0,7,3.1,7,7V413
				C-197,416.9-200.1,420-204,420z"/>
		</defs>
		<clipPath id="SVGID_135_">
			<use xlink:href="#SVGID_134_"  style="overflow:visible;"/>
		</clipPath>
		<path class="st72" d="M-203.5,399.3c0,0,0.1,0.7-0.2,1.2c-0.2,0.2-0.7,0.5-0.7,0.8c0,0.2,0.2,0.6,0.2,0.8s-0.3,0.6-0.3,0.8
			c0,0.2,0.3,1.5,0.3,1.5 M-205.3,396.9c0,0-0.8,0.3-0.9,1"/>
	</g>
	<g>
		<defs>
			<path id="SVGID_136_" d="M-204,420H-262c-3.8,0-7-3.1-7-7V381c0-3.8,3.1-7,7-7h58.1c3.8,0,7,3.1,7,7V413
				C-197,416.9-200.1,420-204,420z"/>
		</defs>
		<clipPath id="SVGID_137_">
			<use xlink:href="#SVGID_136_"  style="overflow:visible;"/>
		</clipPath>
		<path class="st73" d="M-205.6,390.8c0,0,0.3,0.7,1.1,0C-205,390.1-205.6,390.8-205.6,390.8L-205.6,390.8z"/>
	</g>
	<g>
		<defs>
			<path id="SVGID_138_" d="M-204,420H-262c-3.8,0-7-3.1-7-7V381c0-3.8,3.1-7,7-7h58.1c3.8,0,7,3.1,7,7V413
				C-197,416.9-200.1,420-204,420z"/>
		</defs>
		<clipPath id="SVGID_139_">
			<use xlink:href="#SVGID_138_"  style="overflow:visible;"/>
		</clipPath>
		<path class="st74" d="M-205,390.8C-205,390.8-205,390.9-205,390.8c-0.1,0.1-0.2,0-0.2,0C-205.2,390.8-205.1,390.7-205,390.8
			C-205,390.7-205,390.8-205,390.8z"/>
	</g>
	<g>
		<defs>
			<path id="SVGID_140_" d="M-204,420H-262c-3.8,0-7-3.1-7-7V381c0-3.8,3.1-7,7-7h58.1c3.8,0,7,3.1,7,7V413
				C-197,416.9-200.1,420-204,420z"/>
		</defs>
		<clipPath id="SVGID_141_">
			<use xlink:href="#SVGID_140_"  style="overflow:visible;"/>
		</clipPath>
		<path class="st75" d="M-212.5,389.1c0,0,1.6,1.7,2.6,1.7c0.2,0.5-0.5,1-0.7,1.2c-0.5-0.2-1,0-2.2-1.5
			C-212.8,389.6-212.5,389.2-212.5,389.1L-212.5,389.1z M-210.3,385.1c0.2-0.6,0.6-1.1,1-1.2c-0.1-0.5,0.8-2.7,3.2-3.5
			c0.2,1.1-1.1,2.2-1.1,2.2s3.6-0.6,4.4-1.5c-0.1,0.4-0.8,3-4.7,3c1.5,1.4-0.5,2.5-1.3,2.2C-207.3,385.1-209.3,384.4-210.3,385.1
			L-210.3,385.1z"/>
	</g>
	<g>
		<defs>
			<path id="SVGID_142_" d="M-204,420H-262c-3.8,0-7-3.1-7-7V381c0-3.8,3.1-7,7-7h58.1c3.8,0,7,3.1,7,7V413
				C-197,416.9-200.1,420-204,420z"/>
		</defs>
		<clipPath id="SVGID_143_">
			<use xlink:href="#SVGID_142_"  style="overflow:visible;"/>
		</clipPath>
		<path class="st76" d="M-209.1,384.2c0.7-0.5,1-0.5,1.6-0.4c-0.4,0.1-0.4,0.1-0.4,0.1s0,0.1,0.2,0.3
			C-208,384.1-208.3,384-209.1,384.2C-209.1,384.2-209.1,384.2-209.1,384.2z"/>
	</g>
	<g>
		<defs>
			<path id="SVGID_144_" d="M-204,420H-262c-3.8,0-7-3.1-7-7V381c0-3.8,3.1-7,7-7h58.1c3.8,0,7,3.1,7,7V413
				C-197,416.9-200.1,420-204,420z"/>
		</defs>
		<clipPath id="SVGID_145_">
			<use xlink:href="#SVGID_144_"  style="overflow:visible;"/>
		</clipPath>
		<path class="st77" d="M-209.4,383.9c0,0,1.5-0.8,2.3-1.3"/>
	</g>
	<g>
		<defs>
			<path id="SVGID_146_" d="M-204,420H-262c-3.8,0-7-3.1-7-7V381c0-3.8,3.1-7,7-7h58.1c3.8,0,7,3.1,7,7V413
				C-197,416.9-200.1,420-204,420z"/>
		</defs>
		<clipPath id="SVGID_147_">
			<use xlink:href="#SVGID_146_"  style="overflow:visible;"/>
		</clipPath>
		<path class="st78" d="M-210.6,392.1c0,0,2,0.5,2.2-2.3c-0.4-1.2-1-3.9-0.1-4.7c-0.8-0.6-1.8,0-1.8,0c-0.1,0.1-0.8,1.2,0.2,3.1
			c-2.4-0.6-1.4,1.6-1.4,1.6c0.1-0.4,1.4-0.7,1.7,1.1C-209.7,391.4-210.7,392.1-210.6,392.1L-210.6,392.1z"/>
	</g>
	<g>
		<defs>
			<path id="SVGID_148_" d="M-204,420H-262c-3.8,0-7-3.1-7-7V381c0-3.8,3.1-7,7-7h58.1c3.8,0,7,3.1,7,7V413
				C-197,416.9-200.1,420-204,420z"/>
		</defs>
		<clipPath id="SVGID_149_">
			<use xlink:href="#SVGID_148_"  style="overflow:visible;"/>
		</clipPath>
		<path class="st79" d="M-208.4,389.8c0,0,2.1-1.1,2.1-3.8c-1.8,0-2.4,2.4-2.4,2.4L-208.4,389.8L-208.4,389.8z"/>
	</g>
	<g>
		<defs>
			<path id="SVGID_150_" d="M-204,420H-262c-3.8,0-7-3.1-7-7V381c0-3.8,3.1-7,7-7h58.1c3.8,0,7,3.1,7,7V413
				C-197,416.9-200.1,420-204,420z"/>
		</defs>
		<clipPath id="SVGID_151_">
			<use xlink:href="#SVGID_150_"  style="overflow:visible;"/>
		</clipPath>
		<path class="st80" d="M-217.8,389.6c0,0-1.6,1.4-2.5,0.9c-0.7,0.4-1.4-0.3-1.4-0.3s0.9,3.3,4.1,0.9
			C-217.6,390.4-217.8,389.7-217.8,389.6L-217.8,389.6z"/>
	</g>
	<g>
		<defs>
			<path id="SVGID_152_" d="M-204,420H-262c-3.8,0-7-3.1-7-7V381c0-3.8,3.1-7,7-7h58.1c3.8,0,7,3.1,7,7V413
				C-197,416.9-200.1,420-204,420z"/>
		</defs>
		<clipPath id="SVGID_153_">
			<use xlink:href="#SVGID_152_"  style="overflow:visible;"/>
		</clipPath>
		<path class="st81" d="M-220.3,390.5c0.1-0.7,0.7-1,1.1-0.4c0.6,0.1,1.2-2.3-0.9-1.9c0.6-3.1-1.2-4.3-1.2-4.3s-0.6,3.5-0.3,4.1
			c0.3,0.6-0.4-1.2-2.7-1.7c0,2.6,2.5,3.8,2.5,3.8S-221.1,390.9-220.3,390.5L-220.3,390.5z"/>
	</g>
	<g>
		<defs>
			<path id="SVGID_154_" d="M-204,420H-262c-3.8,0-7-3.1-7-7V381c0-3.8,3.1-7,7-7h58.1c3.8,0,7,3.1,7,7V413
				C-197,416.9-200.1,420-204,420z"/>
		</defs>
		<clipPath id="SVGID_155_">
			<use xlink:href="#SVGID_154_"  style="overflow:visible;"/>
		</clipPath>
		<path class="st82" d="M-220.1,388.2c0,0-1,0.8-0.8,2 M-221.6,388.1c0,0-0.2,0.8,0.3,2 M-221.8,390.3c0,0,0.5-0.7,1.4,0.2"/>
	</g>
	<g>
		<defs>
			<path id="SVGID_156_" d="M-204,420H-262c-3.8,0-7-3.1-7-7V381c0-3.8,3.1-7,7-7h58.1c3.8,0,7,3.1,7,7V413
				C-197,416.9-200.1,420-204,420z"/>
		</defs>
		<clipPath id="SVGID_157_">
			<use xlink:href="#SVGID_156_"  style="overflow:visible;"/>
		</clipPath>
		<path class="st83" d="M-221.6,385.2c0,0-1.5,0-0.6,1.5c-0.7,0.2-2.1-0.8-1.1-2c-3.3-0.1-4.7-1.7-4.7-3.1c1,1,3.3,0.6,4.1,1.2
			c-1-0.9-0.8-2.2-0.8-2.2s2.8,0.8,3.4,3.4C-221.4,384.4-221.5,385.3-221.6,385.2C-221.6,385.2-221.6,385.2-221.6,385.2z"/>
	</g>
	<g>
		<defs>
			<path id="SVGID_158_" d="M-204,420H-262c-3.8,0-7-3.1-7-7V381c0-3.8,3.1-7,7-7h58.1c3.8,0,7,3.1,7,7V413
				C-197,416.9-200.1,420-204,420z"/>
		</defs>
		<clipPath id="SVGID_159_">
			<use xlink:href="#SVGID_158_"  style="overflow:visible;"/>
		</clipPath>
		<path class="st84" d="M-223.9,382.7c0.5,0.6,2,0.7,2.7,1.3"/>
	</g>
	<g>
		<defs>
			<path id="SVGID_160_" d="M-204,420H-262c-3.8,0-7-3.1-7-7V381c0-3.8,3.1-7,7-7h58.1c3.8,0,7,3.1,7,7V413
				C-197,416.9-200.1,420-204,420z"/>
		</defs>
		<clipPath id="SVGID_161_">
			<use xlink:href="#SVGID_160_"  style="overflow:visible;"/>
		</clipPath>
		<path class="st85" d="M-223.2,384.4c0,0,1.2-0.2,1.5,0.3c-0.5,0-0.6-0.1-1.3,0.1c0.2-0.1,0.1-0.3,0.2-0.3
			S-223.2,384.4-223.2,384.4L-223.2,384.4z"/>
	</g>
	<g>
		<defs>
			<path id="SVGID_162_" d="M-204,420H-262c-3.8,0-7-3.1-7-7V381c0-3.8,3.1-7,7-7h58.1c3.8,0,7,3.1,7,7V413
				C-197,416.9-200.1,420-204,420z"/>
		</defs>
		<clipPath id="SVGID_163_">
			<use xlink:href="#SVGID_162_"  style="overflow:visible;"/>
		</clipPath>
		<path class="st86" d="M-217.4,375.2c0,0,0.6-0.6,1.3-0.1c-0.3,0.9-1.5,0.6-1.5,0.6s0,0.5-0.1,0.7c0.2,0.2,0.4,0.7,0.4,0.7
			s1.2-0.3,1.4,0.2c0.4-0.1,0.8,0,0.8,0s0.9-0.2,1.2-0.2c0.3,0,1.3,0.3,1.4,0.5c0.1,0.2,0.4,1.5,0.7,1.4c0.2,0-0.5,0.3-0.8,0
			c-0.2-0.3-0.2,0.4-0.2,0.4s0.6,0.7,0.7,0.8s-0.4,1.4,0,2.2c-0.3,0-0.3,0.4-0.3,0.4c0,0.4-0.5,0.5-0.5,0.5l-0.1-0.5l-0.3,0.2
			l0.1-0.4c0,0,0.4-1.1,0.5-1.4c0-0.3-0.4-0.9-0.7-0.9s-0.6,1.1-0.6,1.1s-0.2,0.8-0.1,0.9c0.1,0.1-0.2-0.3-0.2-0.3s-0.2,0.5-0.3,0.6
			c-0.1,0.2-0.4,0.2-0.4,0.2s-0.2-0.5-0.1-0.7c0.1-0.2,0.9-0.9,0.8-1.5c-0.1-0.5,0-0.4,0-0.4c0,0-0.5-0.4-0.5-0.6
			c0-0.2-0.6,0.3-1.3,0.1c-0.2,0.4-0.2,1.3-0.2,1.3s-0.1,1.1,0.1,1.3c0.2,0.1-0.4,0.4-0.4,0.4l-0.4,0.5c0,0-0.1-0.3-0.1-0.3
			c0,0-0.3,0.2-0.3,0.2l0.2-0.4c0-0.3,0.4-1.1,0.4-1.7c0-0.7,0-1.4,0-1.4s-0.7,0-0.7,0.7c0,0.7-0.2,0.8-0.1,1c0,0.2,0.2,0.8,0.2,1
			c-0.1,0.2-0.3,0.2-0.3,0.2l-0.1,0.1c0,0-0.7,0.3-0.7,0.5c0,0.1,0-0.4,0-0.4l0-0.5c0,0,0.4-0.3,0.4-0.9c0-0.7-0.1-0.8-0.1-0.9
			c0-0.2,0.1-0.7,0.1-0.8c0-0.1-0.4,0.2-0.5,0.2c-0.1,0,0.2-0.4,0.2-0.7c0-0.3-0.4,0.3-0.7-0.1c0.2-0.3,0.4-0.5,0.4-0.7
			c0-0.3-0.3,0.2-0.5,0c0-0.3,0.3-0.5,0.3-0.5s-0.2,0-0.3,0c-0.2-0.1,0.2-0.3,0.2-0.7c0-0.4-0.2-0.5-0.2-0.5c0,0-0.4-0.3-0.4-0.5
			c-0.1-0.1-0.1-0.3-0.1-0.3s-0.6,0.5-1.4-0.5c0.7-0.6,1.4-0.2,1.4-0.2s0.2-0.5,1.1-0.5S-217.3,375.3-217.4,375.2L-217.4,375.2z"/>
	</g>
	<g>
		<defs>
			<path id="SVGID_164_" d="M-204,420H-262c-3.8,0-7-3.1-7-7V381c0-3.8,3.1-7,7-7h58.1c3.8,0,7,3.1,7,7V413
				C-197,416.9-200.1,420-204,420z"/>
		</defs>
		<clipPath id="SVGID_165_">
			<use xlink:href="#SVGID_164_"  style="overflow:visible;"/>
		</clipPath>
		<path class="st87" d="M-212.6,385c0,0,1.6,0,1.6,0.9c0,0.8-0.5,0.6-0.5,0.6s-1.2-0.1-1.2-0.1L-212.6,385L-212.6,385z"/>
	</g>
	<g>
		<defs>
			<path id="SVGID_166_" d="M-204,420H-262c-3.8,0-7-3.1-7-7V381c0-3.8,3.1-7,7-7h58.1c3.8,0,7,3.1,7,7V413
				C-197,416.9-200.1,420-204,420z"/>
		</defs>
		<clipPath id="SVGID_167_">
			<use xlink:href="#SVGID_166_"  style="overflow:visible;"/>
		</clipPath>
		<path class="st88" d="M-214.2,384.8c0,0,2,0,1.9,0.8c-0.1,0.9-0.6,0.7-0.6,0.7l-1-0.1L-214.2,384.8L-214.2,384.8z"/>
	</g>
	<g>
		<defs>
			<path id="SVGID_168_" d="M-204,420H-262c-3.8,0-7-3.1-7-7V381c0-3.8,3.1-7,7-7h58.1c3.8,0,7,3.1,7,7V413
				C-197,416.9-200.1,420-204,420z"/>
		</defs>
		<clipPath id="SVGID_169_">
			<use xlink:href="#SVGID_168_"  style="overflow:visible;"/>
		</clipPath>
		<path class="st89" d="M-215.3,384.7l1.1,0.1c0,0,0.7,0.1,0.7,0.8c0,0.7-0.7,0.7-0.7,0.7l-1.1-0.1L-215.3,384.7z"/>
	</g>
	<g>
		<defs>
			<path id="SVGID_170_" d="M-204,420H-262c-3.8,0-7-3.1-7-7V381c0-3.8,3.1-7,7-7h58.1c3.8,0,7,3.1,7,7V413
				C-197,416.9-200.1,420-204,420z"/>
		</defs>
		<clipPath id="SVGID_171_">
			<use xlink:href="#SVGID_170_"  style="overflow:visible;"/>
		</clipPath>
		<path class="st90" d="M-218,385c0,0-1.6,0-1.6,0.9c0,0.8,0.5,0.6,0.5,0.6s1.2-0.1,1.2-0.1L-218,385L-218,385z"/>
	</g>
	<g>
		<defs>
			<path id="SVGID_172_" d="M-204,420H-262c-3.8,0-7-3.1-7-7V381c0-3.8,3.1-7,7-7h58.1c3.8,0,7,3.1,7,7V413
				C-197,416.9-200.1,420-204,420z"/>
		</defs>
		<clipPath id="SVGID_173_">
			<use xlink:href="#SVGID_172_"  style="overflow:visible;"/>
		</clipPath>
		<path class="st91" d="M-216.4,384.8c0,0-2,0-1.9,0.8c0.1,0.9,0.6,0.7,0.6,0.7l1-0.1L-216.4,384.8L-216.4,384.8z"/>
	</g>
	<g>
		<defs>
			<path id="SVGID_174_" d="M-204,420H-262c-3.8,0-7-3.1-7-7V381c0-3.8,3.1-7,7-7h58.1c3.8,0,7,3.1,7,7V413
				C-197,416.9-200.1,420-204,420z"/>
		</defs>
		<clipPath id="SVGID_175_">
			<use xlink:href="#SVGID_174_"  style="overflow:visible;"/>
		</clipPath>
		<path class="st92" d="M-215.3,384.7l-1.1,0.1c0,0-0.7,0.1-0.7,0.8s0.7,0.7,0.7,0.7l1.1-0.1L-215.3,384.7z"/>
	</g>
	<g>
		<defs>
			<path id="SVGID_176_" d="M-204,420H-262c-3.8,0-7-3.1-7-7V381c0-3.8,3.1-7,7-7h58.1c3.8,0,7,3.1,7,7V413
				C-197,416.9-200.1,420-204,420z"/>
		</defs>
		<clipPath id="SVGID_177_">
			<use xlink:href="#SVGID_176_"  style="overflow:visible;"/>
		</clipPath>
		<path class="st93" d="M-212.3,394.2c0,0,0.8-1.2,1.2-1.1c0.3,0.1,0.1,1-0.1,1.1L-212.3,394.2
			C-212.3,394.2-212.3,394.2-212.3,394.2z M-217.9,394.4c-0.3-0.4-0.6-1.4-1-1.1c-0.3,0.1-0.1,1,0.1,1.1L-217.9,394.4z"/>
	</g>
	<g>
		<defs>
			<path id="SVGID_178_" d="M-204,420H-262c-3.8,0-7-3.1-7-7V381c0-3.8,3.1-7,7-7h58.1c3.8,0,7,3.1,7,7V413
				C-197,416.9-200.1,420-204,420z"/>
		</defs>
		<clipPath id="SVGID_179_">
			<use xlink:href="#SVGID_178_"  style="overflow:visible;"/>
		</clipPath>
		<path class="st94" d="M-217.4,392c0,0,1.6,1,2.1,1c0.5,0,2.2-1.3,2.2-1.3"/>
	</g>
	<g>
		<defs>
			<path id="SVGID_180_" d="M-204,420H-262c-3.8,0-7-3.1-7-7V381c0-3.8,3.1-7,7-7h58.1c3.8,0,7,3.1,7,7V413
				C-197,416.9-200.1,420-204,420z"/>
		</defs>
		<clipPath id="SVGID_181_">
			<use xlink:href="#SVGID_180_"  style="overflow:visible;"/>
		</clipPath>
		<path class="st95" d="M-217.2,388.1l0.3-0.4l1.5,0.8l1.6-0.7l0.3,0.3l-1.7,1.2L-217.2,388.1z"/>
	</g>
	<g>
		<defs>
			<path id="SVGID_182_" d="M-204,420H-262c-3.8,0-7-3.1-7-7V381c0-3.8,3.1-7,7-7h58.1c3.8,0,7,3.1,7,7V413
				C-197,416.9-200.1,420-204,420z"/>
		</defs>
		<clipPath id="SVGID_183_">
			<use xlink:href="#SVGID_182_"  style="overflow:visible;"/>
		</clipPath>
		<path class="st96" d="M-218.4,388.1c0.1,0.2,1.1,1.4,1.3,2.4c0.2,1-0.1-1.4-0.1-1.4s1.2,0.6,1.3,1c0,0.4,0.6,0,0.6-0.1l-3.6-2.3
			L-218.4,388.1L-218.4,388.1z M-212.3,388c0,0-1.3,1.7-1.1,3.6c-0.3-0.9-0.1-2.4-0.1-2.4l-0.3,0.2c0,0-0.3,1.3-0.7,1.5
			c-0.1-0.2-0.1-0.2-0.1-0.2s-0.4,0.5-0.5,0.6c-0.1,0.1,0,1.7,0,1.7s0.1,1.2,0.3,1.2c-0.2,0.1-0.4,0.2-0.4,0.2l-0.2-3.3l0.4-0.4
			c0,0,0.5-0.6,0.5-1.2c-0.2,0.2-0.4,0.2-0.4,0.2s-0.1,0.8-0.3,0.9c-0.2,0.1-0.2,0.3-0.2,0.3l0-1.1L-212.3,388L-212.3,388z"/>
	</g>
	<g>
		<defs>
			<path id="SVGID_184_" d="M-204,420H-262c-3.8,0-7-3.1-7-7V381c0-3.8,3.1-7,7-7h58.1c3.8,0,7,3.1,7,7V413
				C-197,416.9-200.1,420-204,420z"/>
		</defs>
		<clipPath id="SVGID_185_">
			<use xlink:href="#SVGID_184_"  style="overflow:visible;"/>
		</clipPath>
		<path class="st97" d="M-215.3,390l0.3,5.1"/>
	</g>
	<g>
		<defs>
			<path id="SVGID_186_" d="M-204,420H-262c-3.8,0-7-3.1-7-7V381c0-3.8,3.1-7,7-7h58.1c3.8,0,7,3.1,7,7V413
				C-197,416.9-200.1,420-204,420z"/>
		</defs>
		<clipPath id="SVGID_187_">
			<use xlink:href="#SVGID_186_"  style="overflow:visible;"/>
		</clipPath>
		<path class="st98" d="M-218.5,392.5c0,0,0.6,0.3,0.8,1.4c1.9-0.1,2.5,0.5,2.5,0.5s1.6-0.8,2.3-0.6c0.3-0.5,1-1.2,1-1.2"/>
	</g>
	<g>
		<defs>
			<path id="SVGID_188_" d="M-204,420H-262c-3.8,0-7-3.1-7-7V381c0-3.8,3.1-7,7-7h58.1c3.8,0,7,3.1,7,7V413
				C-197,416.9-200.1,420-204,420z"/>
		</defs>
		<clipPath id="SVGID_189_">
			<use xlink:href="#SVGID_188_"  style="overflow:visible;"/>
		</clipPath>
		<path class="st99" d="M-219.3,387.4l4,2.6l3.6-2.4c0,0,0.7-0.4,0.7-0.7c-0.1-0.3-0.3-0.2-0.4-0.1c-0.1,0.1-3.7,2.6-3.7,2.6
			l-3.8-2.4c0,0-0.3-0.1-0.3,0.1C-219.5,387.2-219.3,387.3-219.3,387.4L-219.3,387.4z"/>
	</g>
	<g>
		<defs>
			<path id="SVGID_190_" d="M-204,420H-262c-3.8,0-7-3.1-7-7V381c0-3.8,3.1-7,7-7h58.1c3.8,0,7,3.1,7,7V413
				C-197,416.9-200.1,420-204,420z"/>
		</defs>
		<clipPath id="SVGID_191_">
			<use xlink:href="#SVGID_190_"  style="overflow:visible;"/>
		</clipPath>
		<path class="st100" d="M-212.2,386.8c0,0-1-0.4-1-0.1s0,0.4,0.2,0.7c0.2,0.2-0.1,0.4-0.1,0.4s0-0.1-0.1-0.3
			c-0.1-0.2-0.6-0.3-0.7-0.5c0-0.2,0.1-0.5-0.2-0.5c-0.3,0-0.6,0.1-0.7,0.5c-0.1,0.4-0.5,1.2-0.5,1.2l0.1-2c0.7,0.1,2,0.2,3.1,0.3
			c-0.3,0,0.1,0,0.1,0.1C-212.1,386.8-212.2,386.8-212.2,386.8L-212.2,386.8z M-215.8,386.3c-0.2,0-1.1,0.1-1.3,0.2
			c-0.2,0.1,0.4,0.3,0.3,0.5c-0.1,0.2-0.1,0.5-0.4,0.5c-0.3-0.1-1.3-0.6-1.3-0.7c0-0.2-0.2-0.2-0.2-0.2S-215.9,386.2-215.8,386.3
			L-215.8,386.3z"/>
	</g>
	<g>
		<defs>
			<path id="SVGID_192_" d="M-204,420H-262c-3.8,0-7-3.1-7-7V381c0-3.8,3.1-7,7-7h58.1c3.8,0,7,3.1,7,7V413
				C-197,416.9-200.1,420-204,420z"/>
		</defs>
		<clipPath id="SVGID_193_">
			<use xlink:href="#SVGID_192_"  style="overflow:visible;"/>
		</clipPath>
		<path class="st101" d="M-215.3,386l0,2.4 M-217.2,383.2c0,0-1.1,1.8-1.1,1.9"/>
	</g>
	<g>
		<defs>
			<path id="SVGID_194_" d="M-204,420H-262c-3.8,0-7-3.1-7-7V381c0-3.8,3.1-7,7-7h58.1c3.8,0,7,3.1,7,7V413
				C-197,416.9-200.1,420-204,420z"/>
		</defs>
		<clipPath id="SVGID_195_">
			<use xlink:href="#SVGID_194_"  style="overflow:visible;"/>
		</clipPath>
		
			<linearGradient id="SVGID_196_" gradientUnits="userSpaceOnUse" x1="-455.8338" y1="1025.0227" x2="-454.3217" y2="1025.0227" gradientTransform="matrix(0.6376 0 0 1.1434 79.3065 -788.0614)">
			<stop  offset="0" style="stop-color:#474747"/>
			<stop  offset="1" style="stop-color:#FF5500"/>
		</linearGradient>
		<path class="st102" d="M-215.2,383.1c0,0,0.5,0.7,0.4,0.8c0.2,0.2,0.4,0.8,0.4,0.8"/>
	</g>
	<g>
		<defs>
			<path id="SVGID_197_" d="M-204,420H-262c-3.8,0-7-3.1-7-7V381c0-3.8,3.1-7,7-7h58.1c3.8,0,7,3.1,7,7V413
				C-197,416.9-200.1,420-204,420z"/>
		</defs>
		<clipPath id="SVGID_198_">
			<use xlink:href="#SVGID_197_"  style="overflow:visible;"/>
		</clipPath>
		<path class="st103" d="M-213.3,383c0,0-1,1.5-1,1.6"/>
	</g>
	<g>
		<defs>
			<path id="SVGID_199_" d="M-204,420H-262c-3.8,0-7-3.1-7-7V381c0-3.8,3.1-7,7-7h58.1c3.8,0,7,3.1,7,7V413
				C-197,416.9-200.1,420-204,420z"/>
		</defs>
		<clipPath id="SVGID_200_">
			<use xlink:href="#SVGID_199_"  style="overflow:visible;"/>
		</clipPath>
		<path class="st104" d="M-218.6,376c0,0.1-0.2,0.1-0.3,0.1c-0.1,0-0.2-0.1-0.2-0.2c0-0.1,0.2-0.1,0.3-0.1
			C-218.7,375.8-218.6,375.9-218.6,376z M-218.2,376c0,0.1,0.2,0.1,0.3,0.1c0.1,0,0.2-0.1,0.2-0.2c0-0.1-0.2-0.1-0.3-0.1
			C-218.1,375.8-218.2,375.9-218.2,376z"/>
	</g>
	<g>
		<defs>
			<path id="SVGID_201_" d="M-204,420H-262c-3.8,0-7-3.1-7-7V381c0-3.8,3.1-7,7-7h58.1c3.8,0,7,3.1,7,7V413
				C-197,416.9-200.1,420-204,420z"/>
		</defs>
		<clipPath id="SVGID_202_">
			<use xlink:href="#SVGID_201_"  style="overflow:visible;"/>
		</clipPath>
		<path class="st105" d="M-206,406.5c0,0-0.4,0.1-0.4,0.1s-1.1,0.1-1.2,0c0,0-0.2,0.2-0.2,0.2l0.2-0.1c0,0,0.3,0.3,0.4,0.3
			c0.1,0,0,0.1,0,0.1c0,0,0.1,0,0.1,0l1.9,0L-206,406.5z"/>
	</g>
	<g>
		<defs>
			<path id="SVGID_203_" d="M-204,420H-262c-3.8,0-7-3.1-7-7V381c0-3.8,3.1-7,7-7h58.1c3.8,0,7,3.1,7,7V413
				C-197,416.9-200.1,420-204,420z"/>
		</defs>
		<clipPath id="SVGID_204_">
			<use xlink:href="#SVGID_203_"  style="overflow:visible;"/>
		</clipPath>
		<path class="st106" d="M-205.3,407.1l-1.5,0c0,0-0.4,0.4-0.4,0.4c0,0.1,0.3,0.1,0.3,0.1l0.1,0.3l0.2-0.1c0,0,1.3,0.2,2.5-0.1
			c0.6-0.2,0.7-0.5,0.3-0.6C-204.3,407.1-205.3,407.1-205.3,407.1L-205.3,407.1z"/>
	</g>
	<g>
		<defs>
			<path id="SVGID_205_" d="M-204,420H-262c-3.8,0-7-3.1-7-7V381c0-3.8,3.1-7,7-7h58.1c3.8,0,7,3.1,7,7V413
				C-197,416.9-200.1,420-204,420z"/>
		</defs>
		<clipPath id="SVGID_206_">
			<use xlink:href="#SVGID_205_"  style="overflow:visible;"/>
		</clipPath>
		
			<linearGradient id="SVGID_207_" gradientUnits="userSpaceOnUse" x1="-701.1729" y1="2703.3406" x2="-705.7045" y2="2699.1172" gradientTransform="matrix(2.2054 0 0 0.3305 1346.1235 -483.2447)">
			<stop  offset="0" style="stop-color:#D5DFFF"/>
			<stop  offset="1" style="stop-color:#FFFFFF"/>
		</linearGradient>
		<path class="st107" d="M-210.5,410.3l2.8-0.1l-0.5-0.4l7.5-0.3l-0.3-0.6l-8.4,0.3l1,0.5l-2.3,0.1l0.1,0.2l-0.6,0
			C-211.2,409.9-210.6,410.2-210.5,410.3L-210.5,410.3z"/>
	</g>
	<g>
		<defs>
			<path id="SVGID_208_" d="M-204,420H-262c-3.8,0-7-3.1-7-7V381c0-3.8,3.1-7,7-7h58.1c3.8,0,7,3.1,7,7V413
				C-197,416.9-200.1,420-204,420z"/>
		</defs>
		<clipPath id="SVGID_209_">
			<use xlink:href="#SVGID_208_"  style="overflow:visible;"/>
		</clipPath>
		
			<linearGradient id="SVGID_210_" gradientUnits="userSpaceOnUse" x1="-508.4291" y1="1168.9242" x2="-509.5442" y2="1166.6687" gradientTransform="matrix(0.7628 0 0 0.9557 180.4601 -717.6796)">
			<stop  offset="0" style="stop-color:#D5DFFF"/>
			<stop  offset="1" style="stop-color:#FFFFFF"/>
		</linearGradient>
		<path class="st108" d="M-207.4,395c-0.2-0.1-1.2-0.2-2.3,0.5l0,2.5c0,0,1.6-0.9,2.4-0.7C-207.3,396.5-207.3,395.5-207.4,395z"/>
	</g>
	<g>
		<defs>
			<path id="SVGID_211_" d="M-204,420H-262c-3.8,0-7-3.1-7-7V381c0-3.8,3.1-7,7-7h58.1c3.8,0,7,3.1,7,7V413
				C-197,416.9-200.1,420-204,420z"/>
		</defs>
		<clipPath id="SVGID_212_">
			<use xlink:href="#SVGID_211_"  style="overflow:visible;"/>
		</clipPath>
		<path class="st109" d="M-222.7,402.5l-6.5,6.5 M-219.8,402.6l-5.3,7 M-220.1,400.7l-7.1,8.6 M-227.4,409.2l0.7-0.8 M-218.7,405.1
			l-2.7,3.8 M-221.6,409.3l0.1,1.4 M-217.5,406.4l-2.9,3.6 M-218,409.7l1.2-1.9 M-217.5,407.4l-1.4,1.6 M-218,405.9l-1,1.2
			 M-219.2,404.2c0,0-3,4.3-2.9,4.7 M-219.5,403.6c-0.1,0-2.6,3.3-2.6,3.3 M-222.2,408l-0.4,0.5 M-223.2,409.4l-0.7,0.9"/>
	</g>
	<g>
		<defs>
			<path id="SVGID_213_" d="M-204,420H-262c-3.8,0-7-3.1-7-7V381c0-3.8,3.1-7,7-7h58.1c3.8,0,7,3.1,7,7V413
				C-197,416.9-200.1,420-204,420z"/>
		</defs>
		<clipPath id="SVGID_214_">
			<use xlink:href="#SVGID_213_"  style="overflow:visible;"/>
		</clipPath>
		<path class="st110" d="M-223.1,392.6c0,0-0.2,0.6,0,0.9c0.2,0.3,1.5,2.9,1.5,2.9s0.9-1.1,1.2-1.1c0.3,0,0.2,2.7,0.2,2.7
			s-0.5,0.5-0.8,0.5c-0.3,0,0.8,1.1,0.7,2c0,0.9-1.4,5.6-1.9,5.7c-0.5,0.1,0.2-0.9,0.2-1.1c0-0.3-0.2-0.1-0.3-0.4s0.2-0.7,0.1-1
			s-0.3-0.2-0.3-0.4c0-0.2,0.2-0.3,0.1-0.5c0-0.2-0.3-0.2-0.3-0.4c0-0.2,0.1-0.1,0-0.5c0-0.4-0.1,0.3-0.4,0.3
			c-0.3,0-0.6,0.7-0.6,0.7s-0.6,0.9-1.3,0.5c0.4,0.8,0.1,1.1-0.1,1.2s0.1,0.6-0.2,0.7c-0.3,0,0.3,1.3-0.1,1.5
			c0.4,0.2,0.1,0.5,0.1,0.5s-1,0.1-0.8,1.4c-2.9-1-4.4-2.8-4.3-4.6c0-1.8,0.6-3.4,2-4c0.4-1.5,1.1-3.1,1.1-3.1s-0.1-0.7,0-1.1
			c0.1-0.4,0.5-0.9,0.5-0.9s-0.1-1,0-1.5c0-0.5,0.2-0.7,0.3-1c0-0.3-0.1-1.7,0.2-2c0.3-0.3,0.8-0.2,1.1-0.4c0.3-0.2,0.7-0.5,1-0.5
			s0.7,0.3,0.7,0.3s1.4,0,1.5,0.5c0.1,0.5-0.3,0.7-0.3,0.7S-222.2,391.8-223.1,392.6L-223.1,392.6z"/>
	</g>
	<g>
		<defs>
			<path id="SVGID_215_" d="M-204,420H-262c-3.8,0-7-3.1-7-7V381c0-3.8,3.1-7,7-7h58.1c3.8,0,7,3.1,7,7V413
				C-197,416.9-200.1,420-204,420z"/>
		</defs>
		<clipPath id="SVGID_216_">
			<use xlink:href="#SVGID_215_"  style="overflow:visible;"/>
		</clipPath>
		<path class="st111" d="M-224.3,390.6c0,0.1-0.1,0.2-0.2,0.3c-0.2,0.1-0.3,0.1-0.4,0c0-0.1,0.1-0.2,0.2-0.3
			C-224.5,390.5-224.4,390.5-224.3,390.6z"/>
	</g>
	<g>
		<defs>
			<path id="SVGID_217_" d="M-204,420H-262c-3.8,0-7-3.1-7-7V381c0-3.8,3.1-7,7-7h58.1c3.8,0,7,3.1,7,7V413
				C-197,416.9-200.1,420-204,420z"/>
		</defs>
		<clipPath id="SVGID_218_">
			<use xlink:href="#SVGID_217_"  style="overflow:visible;"/>
		</clipPath>
		<path class="st112" d="M-224.6,390.7c0,0.1,0,0.1-0.1,0.1c-0.1,0-0.1,0-0.1-0.1c0-0.1,0-0.1,0.1-0.1
			C-224.6,390.6-224.6,390.7-224.6,390.7z"/>
	</g>
	<g>
		<defs>
			<path id="SVGID_219_" d="M-204,420H-262c-3.8,0-7-3.1-7-7V381c0-3.8,3.1-7,7-7h58.1c3.8,0,7,3.1,7,7V413
				C-197,416.9-200.1,420-204,420z"/>
		</defs>
		<clipPath id="SVGID_220_">
			<use xlink:href="#SVGID_219_"  style="overflow:visible;"/>
		</clipPath>
		<path class="st113" d="M-222.5,391.7c0,0,0.3,1.6-0.1,2.6 M-222.4,391c0,0,0.7,0.9,0.6,2 M-222.3,390.8c0,0,0.6,0.5,0.5,0.8
			 M-222.2,390.6c0,0,0.4,0.3,0.5,0.5"/>
	</g>
	<g>
		<defs>
			<path id="SVGID_221_" d="M-204,420H-262c-3.8,0-7-3.1-7-7V381c0-3.8,3.1-7,7-7h58.1c3.8,0,7,3.1,7,7V413
				C-197,416.9-200.1,420-204,420z"/>
		</defs>
		<clipPath id="SVGID_222_">
			<use xlink:href="#SVGID_221_"  style="overflow:visible;"/>
		</clipPath>
		<path class="st114" d="M-222.3,390.4c0,0-1.3,2.2-1.2,3.5"/>
	</g>
	<g>
		<defs>
			<path id="SVGID_223_" d="M-204,420H-262c-3.8,0-7-3.1-7-7V381c0-3.8,3.1-7,7-7h58.1c3.8,0,7,3.1,7,7V413
				C-197,416.9-200.1,420-204,420z"/>
		</defs>
		<clipPath id="SVGID_224_">
			<use xlink:href="#SVGID_223_"  style="overflow:visible;"/>
		</clipPath>
		<path class="st115" d="M-222.2,390.4c0,0-1.8,1.1-2.1,4.5"/>
	</g>
	<g>
		<defs>
			<path id="SVGID_225_" d="M-204,420H-262c-3.8,0-7-3.1-7-7V381c0-3.8,3.1-7,7-7h58.1c3.8,0,7,3.1,7,7V413
				C-197,416.9-200.1,420-204,420z"/>
		</defs>
		<clipPath id="SVGID_226_">
			<use xlink:href="#SVGID_225_"  style="overflow:visible;"/>
		</clipPath>
		<path class="st116" d="M-222.4,391l-0.7,0.5"/>
	</g>
	<g>
		<defs>
			<path id="SVGID_227_" d="M-204,420H-262c-3.8,0-7-3.1-7-7V381c0-3.8,3.1-7,7-7h58.1c3.8,0,7,3.1,7,7V413
				C-197,416.9-200.1,420-204,420z"/>
		</defs>
		<clipPath id="SVGID_228_">
			<use xlink:href="#SVGID_227_"  style="overflow:visible;"/>
		</clipPath>
		<path class="st117" d="M-225,395.1c0,0,1-4.1,2.7-4.7"/>
	</g>
	<g>
		<defs>
			<path id="SVGID_229_" d="M-204,420H-262c-3.8,0-7-3.1-7-7V381c0-3.8,3.1-7,7-7h58.1c3.8,0,7,3.1,7,7V413
				C-197,416.9-200.1,420-204,420z"/>
		</defs>
		<clipPath id="SVGID_230_">
			<use xlink:href="#SVGID_229_"  style="overflow:visible;"/>
		</clipPath>
		<path class="st118" d="M-221.6,396.4c0,0,0.9-1.2,1.2-1.1c0.2,0,0.2,2.7,0.2,2.7s-0.7,0.5-0.9,0.5c-0.2,0,0.8,1.3,0.8,1.8
			c0,0.5,0,0.5,0,0.5s0-0.3-0.2-0.7c-0.2-0.5-0.1-1-1.5-2.1c-0.4-0.7,0.7,0.4,0.9,0.3C-221,398-221.6,396.5-221.6,396.4
			C-221.6,396.4-221.6,396.4-221.6,396.4z"/>
	</g>
	<g>
		<defs>
			<path id="SVGID_231_" d="M-204,420H-262c-3.8,0-7-3.1-7-7V381c0-3.8,3.1-7,7-7h58.1c3.8,0,7,3.1,7,7V413
				C-197,416.9-200.1,420-204,420z"/>
		</defs>
		<clipPath id="SVGID_232_">
			<use xlink:href="#SVGID_231_"  style="overflow:visible;"/>
		</clipPath>
		<path class="st119" d="M-223.3,389.8c0,0-0.4,0.1-0.4,0.3c-0.1,0.2-0.3,0.3-0.4,0.3c-0.1-0.1-0.4-0.3-0.4-0.3"/>
	</g>
	<g>
		<defs>
			<path id="SVGID_233_" d="M-204,420H-262c-3.8,0-7-3.1-7-7V381c0-3.8,3.1-7,7-7h58.1c3.8,0,7,3.1,7,7V413
				C-197,416.9-200.1,420-204,420z"/>
		</defs>
		<clipPath id="SVGID_234_">
			<use xlink:href="#SVGID_233_"  style="overflow:visible;"/>
		</clipPath>
		<path class="st120" d="M-225.5,391.2c0,0-0.6,0.6-0.3,0.7c0.3,0.1,0.6-0.5,0.6-0.5s0,0.9,0.3,0.8c0.3-0.1,1-0.7,1-0.7s0.3,0,0.3,0
			c0.1,0,0.7,0.6,1.1,0.4c-0.2,0.6-0.5,0.7-0.5,0.7s-0.4,0.6-1,0.4c-0.6-0.1-0.7-0.4-0.7-0.4s-0.5,0-0.6-0.2
			c-0.1-0.2-0.2-0.3-0.2-0.3s-0.3,0.3-0.3,0.1C-226,392.1-225.9,391.3-225.5,391.2L-225.5,391.2z"/>
	</g>
	<g>
		<defs>
			<path id="SVGID_235_" d="M-204,420H-262c-3.8,0-7-3.1-7-7V381c0-3.8,3.1-7,7-7h58.1c3.8,0,7,3.1,7,7V413
				C-197,416.9-200.1,420-204,420z"/>
		</defs>
		<clipPath id="SVGID_236_">
			<use xlink:href="#SVGID_235_"  style="overflow:visible;"/>
		</clipPath>
		<path class="st121" d="M-222.1,390.3c0,0-1.1-0.3-1.5,0.2c-0.4,0.5-0.3,0.8-0.1,0.9"/>
	</g>
	<g>
		<defs>
			<path id="SVGID_237_" d="M-204,420H-262c-3.8,0-7-3.1-7-7V381c0-3.8,3.1-7,7-7h58.1c3.8,0,7,3.1,7,7V413
				C-197,416.9-200.1,420-204,420z"/>
		</defs>
		<clipPath id="SVGID_238_">
			<use xlink:href="#SVGID_237_"  style="overflow:visible;"/>
		</clipPath>
		<path class="st122" d="M-222,390.3c0,0.1-0.1,0.2-0.2,0.2c-0.1,0-0.2-0.1-0.2-0.2c0-0.1,0.1-0.2,0.2-0.2
			C-222.1,390.1-222,390.2-222,390.3z"/>
	</g>
	<g>
		<defs>
			<path id="SVGID_239_" d="M-204,420H-262c-3.8,0-7-3.1-7-7V381c0-3.8,3.1-7,7-7h58.1c3.8,0,7,3.1,7,7V413
				C-197,416.9-200.1,420-204,420z"/>
		</defs>
		<clipPath id="SVGID_240_">
			<use xlink:href="#SVGID_239_"  style="overflow:visible;"/>
		</clipPath>
		<path class="st123" d="M-225.2,393.1c0,0,0.4,0.7,1,0.9c0.5,0.2-0.4,0.4-0.9,0c-0.4-0.5-0.3-0.9-0.3-0.9S-225.3,393-225.2,393.1z
			 M-221.3,397.2c0,0-1.3-1.7-1.6-1.8c-0.4-0.1,0.3-0.2,0.7,0.2c0.4,0.4-0.1-0.6-0.1-0.6L-221.3,397.2z"/>
	</g>
	<g>
		<defs>
			<path id="SVGID_241_" d="M-204,420H-262c-3.8,0-7-3.1-7-7V381c0-3.8,3.1-7,7-7h58.1c3.8,0,7,3.1,7,7V413
				C-197,416.9-200.1,420-204,420z"/>
		</defs>
		<clipPath id="SVGID_242_">
			<use xlink:href="#SVGID_241_"  style="overflow:visible;"/>
		</clipPath>
		<path class="st124" d="M-225.3,407.3c0.5-0.1,2.6,1.2,3.1,1.5c0.5,0.3,1.5,0.1,1.5,0.1s-0.5,0.3-0.7,0.3s0.8,0.1,0.8,0.1
			s-2.7,0.7-5.4-0.7C-226.3,407.5-225.5,407.3-225.3,407.3L-225.3,407.3z"/>
	</g>
	<g>
		<defs>
			<path id="SVGID_243_" d="M-204,420H-262c-3.8,0-7-3.1-7-7V381c0-3.8,3.1-7,7-7h58.1c3.8,0,7,3.1,7,7V413
				C-197,416.9-200.1,420-204,420z"/>
		</defs>
		<clipPath id="SVGID_244_">
			<use xlink:href="#SVGID_243_"  style="overflow:visible;"/>
		</clipPath>
		<path class="st125" d="M-222.2,397.6c0,0-0.4-0.1-0.5-0.3c-0.2-0.2-0.4-0.7-0.7-0.9c-0.3-0.2-1.6-0.9-2.1-0.9
			c-0.5,0.1-0.6-0.1-0.7-0.1c-0.1-0.1-0.3,0-0.2,0.3c0,0.2-0.4,0.8-0.2,1.1c0.1,0.3,0.8,1.3,1,1.3c0.1,0,0.1,0.6,0.1,0.6
			s0.6,0.6,0.8,0.7c0.2,0,0.3,0.1,0.3,0.3c0,0.1-0.7,0.9-0.7,0.9s-0.7,0.4-0.7,0.6c0,0.2,0.2,0.6,0.7,0.8c0.6,0.1,2.1,0,2.1-0.1
			c0.1-0.1,0.2-0.9,0.1-1c-0.1-0.1-0.4-0.3-0.6-0.3c-0.2,0-0.4,0.2-0.3,0.2c0,0-0.3,0.2-0.3,0s0.6-0.8,0.6-0.7
			c0.1,0.1,0.8,0.1,1,0.5s0.1,0.7,0.6,0.6c0.4,0,1-0.4,1-1.2c0.1-0.8-0.5-1.3-0.6-1.4c-0.1-0.1-0.6-0.3-0.6-0.5
			C-222.2,398.1-222.3,397.7-222.2,397.6L-222.2,397.6L-222.2,397.6z"/>
	</g>
	<g>
		<defs>
			<path id="SVGID_245_" d="M-204,420H-262c-3.8,0-7-3.1-7-7V381c0-3.8,3.1-7,7-7h58.1c3.8,0,7,3.1,7,7V413
				C-197,416.9-200.1,420-204,420z"/>
		</defs>
		<clipPath id="SVGID_246_">
			<use xlink:href="#SVGID_245_"  style="overflow:visible;"/>
		</clipPath>
		<path class="st126" d="M-229.7,401.1c0,0,1.3-0.3,1.7-0.3c0.3,0,1.6,0.6,2,1c0.4,0.4,1.2,1.2,1.7,1.2c0.5-0.1,0.7-0.2,0.7-0.2
			l-0.2,0.4c0,0-0.4,0.1-0.6,0.1c-0.2-0.1-0.6-0.2-1-0.6c-0.4-0.4-1.7-1.5-2.7-1.4c-1.1,0.1-1.7,1.1-1.7,1.1s0-0.5,0.1-0.6
			c0-0.1-0.2,0.2-0.2,0.2L-229.7,401.1L-229.7,401.1z"/>
	</g>
	<g>
		<defs>
			<path id="SVGID_247_" d="M-204,420H-262c-3.8,0-7-3.1-7-7V381c0-3.8,3.1-7,7-7h58.1c3.8,0,7,3.1,7,7V413
				C-197,416.9-200.1,420-204,420z"/>
		</defs>
		<clipPath id="SVGID_248_">
			<use xlink:href="#SVGID_247_"  style="overflow:visible;"/>
		</clipPath>
		<path class="st127" d="M-224.7,402.1c0,0,0.3,0.1,0.9,0.1s0.8-0.2,0.8-0.2l0-0.2l0.1-0.3c0,0,0.4,0.4,0.4,0.5
			c0,0.1-0.2,0.1-0.2,0.1l-0.1-0.2l-0.1,0.2c0,0-0.8,0.6-1.2,0.5c-0.4-0.1-0.8-0.4-0.7-0.4S-224.7,402.1-224.7,402.1
			C-224.7,402.1-224.7,402.1-224.7,402.1z M-226.7,403.2c0,0-0.5,0-0.7,0.1c-0.2,0.1-0.3,0.2-0.4,0.2c-0.1,0-0.3-0.2-0.2-0.3
			c0.1-0.1,0.3-0.3,0.9-0.2C-226.6,403.1-226.7,403.2-226.7,403.2L-226.7,403.2z M-225,404.6c0,0,0-0.7-0.3-1s-0.6-0.3-0.7-0.2
			c-0.1,0,0.5,0.3,0.6,0.5c0.1,0.2,0.3,0.7,0.2,0.9c-0.1,0.1-0.2-0.4-0.6-0.5c-0.4-0.1-1-0.1-0.9,0.1c0.1,0.2,0.6,0,0.8,0.4
			c0.2,0.4,0.4,0.8,0.4,0.8l0.1-0.3l0.2-0.1l0-0.6L-225,404.6L-225,404.6z"/>
	</g>
	<g>
		<defs>
			<path id="SVGID_249_" d="M-204,420H-262c-3.8,0-7-3.1-7-7V381c0-3.8,3.1-7,7-7h58.1c3.8,0,7,3.1,7,7V413
				C-197,416.9-200.1,420-204,420z"/>
		</defs>
		<clipPath id="SVGID_250_">
			<use xlink:href="#SVGID_249_"  style="overflow:visible;"/>
		</clipPath>
		<path class="st128" d="M-225.4,406.8l-0.4-0.9c0,0-0.1-0.6-0.5-0.7c-0.4-0.2-0.9-0.1-0.9,0.1c0,0.2,0.8,0.4,0.8,0.5
			c0.1,0.1,0,0.3,0,0.3c-0.1,0-0.4-0.1-0.6-0.1c-0.2,0-0.3,0.3-0.6,0.2c-0.3-0.1-0.5-0.9-0.4-1c0.1-0.1-0.2,0.2-0.3-0.1
			c-0.1-0.2,0.1-0.9,0-1c-0.1-0.1-0.6-0.4-0.6-0.4c0-0.1,0-3.4,2.8-0.6c-1.2-1.4-1.7-1.3-1.9-1.3c-0.2,0-1.3,0.1-1.5,1.5
			c-0.3,1.4-0.6,0.5-0.6,0.5s-0.1,0.6,0.2,0.8c0.3,0.2-0.1,0.7-0.1,0.7s-0.5-1.3-0.4-1.8c-0.1,0.4-0.1,1.6,0.6,2.8
			c0.8,0.8,1.5,1.6,3.4,2.4C-225.3,407-225.4,406.8-225.4,406.8L-225.4,406.8z"/>
	</g>
	<g>
		<defs>
			<path id="SVGID_251_" d="M-204,420H-262c-3.8,0-7-3.1-7-7V381c0-3.8,3.1-7,7-7h58.1c3.8,0,7,3.1,7,7V413
				C-197,416.9-200.1,420-204,420z"/>
		</defs>
		<clipPath id="SVGID_252_">
			<use xlink:href="#SVGID_251_"  style="overflow:visible;"/>
		</clipPath>
		<path class="st129" d="M-227.2,406.8c0,0,0.6,0.1,0.7,0.4c0.2,0.3,0.2,0.7,0.2,0.7c0.1-0.2,0.1-0.4,0.3-0.5
			c0.2-0.1,0.3-0.2,0.3-0.3c0-0.1-0.6-0.7-0.9-0.8c-0.3,0-0.8,0.3-0.8,0.3S-227.4,406.8-227.2,406.8L-227.2,406.8z"/>
	</g>
	<g>
		<defs>
			<path id="SVGID_253_" d="M-204,420H-262c-3.8,0-7-3.1-7-7V381c0-3.8,3.1-7,7-7h58.1c3.8,0,7,3.1,7,7V413
				C-197,416.9-200.1,420-204,420z"/>
		</defs>
		<clipPath id="SVGID_254_">
			<use xlink:href="#SVGID_253_"  style="overflow:visible;"/>
		</clipPath>
		<path class="st130" d="M-225.9,408.2c0,0,1.5,0.7,3.9,0.7"/>
	</g>
	<g>
		<defs>
			<path id="SVGID_255_" d="M-204,420H-262c-3.8,0-7-3.1-7-7V381c0-3.8,3.1-7,7-7h58.1c3.8,0,7,3.1,7,7V413
				C-197,416.9-200.1,420-204,420z"/>
		</defs>
		<clipPath id="SVGID_256_">
			<use xlink:href="#SVGID_255_"  style="overflow:visible;"/>
		</clipPath>
		<path class="st131" d="M-221,401.4c0,0-0.1,1.2-1.1,3.7"/>
	</g>
	<g>
		<defs>
			<path id="SVGID_257_" d="M-204,420H-262c-3.8,0-7-3.1-7-7V381c0-3.8,3.1-7,7-7h58.1c3.8,0,7,3.1,7,7V413
				C-197,416.9-200.1,420-204,420z"/>
		</defs>
		<clipPath id="SVGID_258_">
			<use xlink:href="#SVGID_257_"  style="overflow:visible;"/>
		</clipPath>
		<path class="st132" d="M-221.2,402.2c0,0-0.3,0.9-1.1,1.6"/>
	</g>
</g>
</svg>
