<?xml version="1.0" encoding="utf-8"?>
<!-- Generator: Adobe Illustrator 19.0.0, SVG Export Plug-In . SVG Version: 6.00 Build 0)  -->
<svg version="1.1" id="Layer_1" xmlns="http://www.w3.org/2000/svg" xmlns:xlink="http://www.w3.org/1999/xlink" x="0px" y="0px"
	 viewBox="-269 374 72 46" style="enable-background:new -269 374 72 46;" xml:space="preserve">
<style type="text/css">
	.st0{clip-path:url(#SVGID_2_);}
	.st1{fill:#FFFFFF;}
	.st2{fill:#3E98D4;}
</style>
<g>
	<defs>
		<path id="SVGID_1_" d="M-204,420H-262c-3.8,0-7-3.1-7-7V381c0-3.8,3.1-7,7-7h58.1c3.8,0,7,3.1,7,7V413
			C-197,416.9-200.1,420-204,420z"/>
	</defs>
	<clipPath id="SVGID_2_">
		<use xlink:href="#SVGID_1_"  style="overflow:visible;"/>
	</clipPath>
	<g class="st0">
		<g>
			<polygon class="st1" points="-245.9,421 -245.9,372.7 -220.1,372.7 -220.1,421 			"/>
		</g>
		<g>
			<path d="M-220,421.1h-26v-48.6h26V421.1z M-245.8,420.9h25.5v-48.1h-25.5V420.9z"/>
		</g>
		<g>
			<polygon class="st2" points="-245.9,421 -245.9,372.7 -271.7,372.7 -271.7,421 			"/>
		</g>
		<g>
			<path d="M-245.8,421.1h-26v-48.6h26V421.1z M-271.6,420.9h25.5v-48.1h-25.5V420.9z"/>
		</g>
		<g>
			<polygon class="st2" points="-220.1,421 -220.1,372.7 -194.3,372.7 -194.3,421 			"/>
		</g>
		<g>
			<path d="M-194.2,421.1h-26v-48.6h26V421.1z M-220,420.9h25.5v-48.1H-220V420.9z"/>
		</g>
	</g>
</g>
</svg>
