<?xml version="1.0" encoding="utf-8"?>
<!-- Generator: Adobe Illustrator 19.0.0, SVG Export Plug-In . SVG Version: 6.00 Build 0)  -->
<svg version="1.1" id="Layer_1" xmlns="http://www.w3.org/2000/svg" xmlns:xlink="http://www.w3.org/1999/xlink" x="0px" y="0px"
	 viewBox="-269 374 72 46" style="enable-background:new -269 374 72 46;" xml:space="preserve">
<style type="text/css">
	.st0{clip-path:url(#SVGID_2_);}
	.st1{fill:#E40520;}
	.st2{fill:#003671;}
	.st3{fill:#00ABE5;}
	.st4{fill:#DDDDDD;}
	.st5{fill:#FFED00;}
	.st6{fill:#008866;}
	.st7{fill:#80612D;}
	.st8{fill:#FFFFFF;}
</style>
<g>
	<defs>
		<path id="SVGID_1_" d="M-204,420H-262c-3.8,0-7-3.1-7-7V381c0-3.8,3.1-7,7-7h58.1c3.8,0,7,3.1,7,7V413
			C-197,416.9-200.1,420-204,420z"/>
	</defs>
	<clipPath id="SVGID_2_">
		<use xlink:href="#SVGID_1_"  style="overflow:visible;"/>
	</clipPath>
	<g class="st0">
		<g>
			<polygon class="st1" points="-189.2,420.1 -189.2,373.3 -276.5,373.3 -276.5,420.1 			"/>
		</g>
		<g>
			<path d="M-189.1,420.2h-87.5v-47.1h87.5V420.2z M-276.4,420h87v-46.6h-87V420z"/>
		</g>
		<g>
			<polygon class="st2" points="-191.3,417.9 -191.3,375.4 -274.4,375.4 -274.4,417.9 			"/>
		</g>
		<g>
			<path d="M-191.2,418h-83.3v-42.8h83.3V418z M-274.3,417.8h82.8v-42.3h-82.8V417.8z"/>
		</g>
		<g>
			<path class="st1" d="M-232.9,409.5c4.1-3.4,8.5-7.3,8.5-12.8s-4.5-9.4-8.5-12.8c-4.1,3.4-8.5,7.3-8.5,12.8
				S-236.9,406.1-232.9,409.5L-232.9,409.5z"/>
		</g>
		<g>
			<path d="M-232.9,409.6L-232.9,409.6c-3.7-3-8.6-7.1-8.6-12.9c0-5.7,4.9-9.8,8.6-12.8l0,0l0,0c3.6,3,8.6,7.1,8.6,12.8
				C-224.3,402.4-229.2,406.5-232.9,409.6L-232.9,409.6z M-232.9,384c-3.6,3-8.5,7.1-8.5,12.7c0,5.7,4.9,9.7,8.5,12.7
				c3.6-3,8.5-7.1,8.5-12.7S-229.3,387-232.9,384z"/>
		</g>
		<g>
			<path class="st2" d="M-240.1,398.9c0.9,3.9,4.2,6.8,7.3,9.4c3-2.6,6.3-5.5,7.3-9.4H-240.1L-240.1,398.9z"/>
		</g>
		<g>
			<path d="M-232.9,408.4L-232.9,408.4c-2.7-2.3-6.4-5.4-7.3-9.5l0-0.1h14.7l0,0.1C-226.5,402.9-230.2,406-232.9,408.4L-232.9,408.4
				z M-240.1,398.9c1,4,4.6,7,7.2,9.3c2.6-2.2,6.2-5.3,7.2-9.3H-240.1z"/>
		</g>
		<g>
			<path class="st3" d="M-225.6,398.9c0.2-0.7,0.3-1.4,0.3-2.2c0-5-4-8.5-7.5-11.6c-3.6,3-7.5,6.6-7.5,11.6c0,0.8,0.1,1.5,0.3,2.2
				H-225.6L-225.6,398.9z"/>
		</g>
		<g>
			<path d="M-225.5,398.9h-14.6l0,0c-0.2-0.7-0.3-1.5-0.3-2.2c0-5.2,4.4-8.9,7.5-11.6l0,0l0,0c3.2,2.7,7.5,6.4,7.5,11.6
				C-225.3,397.4-225.4,398.2-225.5,398.9L-225.5,398.9z M-240.1,398.8h14.4c0.2-0.7,0.2-1.4,0.2-2.1c0-5.1-4.3-8.8-7.5-11.5
				c-3.2,2.7-7.5,6.4-7.5,11.5C-240.3,397.4-240.2,398.1-240.1,398.8z"/>
		</g>
		<g>
			<path class="st4" d="M-225.4,397.4c0,0.5-0.1,1-0.2,1.5h-8.7c0.1-0.3,0.3-0.7,0.4-1.1C-231.5,398.1-227.6,398-225.4,397.4
				L-225.4,397.4z"/>
		</g>
		<g>
			<path d="M-225.5,398.9h-8.9l0-0.1c0-0.1,0.1-0.3,0.1-0.4c0.1-0.2,0.2-0.5,0.2-0.7l0,0l0,0c2.3,0.3,6.3,0.3,8.6-0.4l0.1,0l0,0.1
				C-225.3,397.9-225.4,398.4-225.5,398.9L-225.5,398.9z M-234.2,398.8h8.6c0.1-0.4,0.2-0.9,0.2-1.3c-2.3,0.6-6.2,0.7-8.5,0.4
				c-0.1,0.2-0.2,0.4-0.2,0.6C-234.2,398.6-234.2,398.7-234.2,398.8z"/>
		</g>
		<g>
			<path class="st5" d="M-236.8,404.6c-0.7-0.7-1.3-1.5-1.8-2.3c1.4,0.1,4.1,0.3,5.1,1.3c0.3,0.2,0.3,0.3-0.1,0.3
				C-234.2,403.8-235.9,404.2-236.8,404.6L-236.8,404.6z"/>
		</g>
		<g>
			<path d="M-236.8,404.7L-236.8,404.7c-0.8-0.8-1.4-1.6-1.9-2.3l-0.1-0.1l0.1,0c0.9,0,4,0.3,5.2,1.3c0.2,0.2,0.2,0.3,0.2,0.3
				c0,0.1-0.2,0.1-0.3,0.1C-234.2,403.9-235.9,404.2-236.8,404.7L-236.8,404.7z M-238.5,402.4c0.5,0.7,1,1.4,1.7,2.2
				c0.9-0.5,2.6-0.8,3.2-0.7c0.1,0,0.2,0,0.2,0c0,0,0-0.1-0.2-0.2C-234.6,402.7-237.4,402.5-238.5,402.4z"/>
		</g>
		<g>
			<path class="st5" d="M-226.4,401c-1.4,2.9-4,5.2-6.5,7.2c-0.8-0.6-1.5-1.3-2.3-2c1-1.6,3.9-0.6,3.9-2.1c0-0.8-0.7-1.4-1.8-1.5
				c-0.3,0-0.4,0-0.2-0.2c1.2-0.9,2.4,0.1,4.4-0.9C-227.2,400.9-226.6,401-226.4,401L-226.4,401z"/>
		</g>
		<g>
			<path d="M-232.9,408.4L-232.9,408.4c-0.7-0.6-1.6-1.3-2.3-2.1l0,0l0,0c0.5-0.8,1.5-1,2.4-1.1c0.8-0.1,1.5-0.2,1.5-0.9
				c0-0.8-0.7-1.4-1.7-1.4c-0.2,0-0.3,0-0.4-0.1c0-0.1,0-0.1,0.2-0.2c0.6-0.5,1.2-0.4,1.9-0.4c0.7,0,1.5,0,2.5-0.4
				c1.6-0.7,2.3-0.6,2.4-0.6l0.1,0l0,0.1C-227.7,403.8-230.2,406.1-232.9,408.4L-232.9,408.4z M-235.1,406.2
				c0.7,0.7,1.5,1.4,2.2,1.9c2.6-2.2,5-4.4,6.4-7.1c-0.2,0-0.8-0.1-2.2,0.6c-1,0.5-1.8,0.5-2.6,0.4c-0.7,0-1.3,0-1.8,0.4
				c-0.1,0-0.1,0.1-0.1,0.1c0.1,0,0.2,0,0.2,0c1,0.1,1.8,0.7,1.8,1.6c0,0.8-0.8,0.9-1.6,1C-233.6,405.3-234.6,405.5-235.1,406.2z"/>
		</g>
		<g>
			<path class="st6" d="M-231.3,391c0,0-0.1-0.1-0.1-0.1c0.1,0.1,0.3,0.1,0.4,0.1c0,0-0.1-0.1-0.1-0.2c0.1,0,0.4,0.1,0.4,0.1
				c-0.1-0.1-0.2-0.2-0.3-0.3c0.1,0,0.4,0.2,0.5,0.2c0-0.1,0-0.2-0.1-0.2c0.1,0.1,0.3,0.1,0.4,0.2c0-0.1,0-0.2-0.1-0.3
				c0.1,0.1,0.3,0.2,0.4,0.2c0,0,0-0.2-0.1-0.3c0.1,0.1,0.3,0.2,0.4,0.3c-0.1-0.1-0.1-0.2-0.1-0.3c0.1,0.1,0.3,0.2,0.4,0.2
				c0,0-0.1-0.1-0.1-0.2c0.1,0.1,0.4,0.2,0.4,0.3c0-0.1-0.1-0.2-0.1-0.3c0.1,0,0.5,0.2,0.6,0.3c-0.4-0.8-2.1-1-3.1-0.7
				c0.2-0.1,0.2-0.2,0.5-0.3c-0.1,0-0.3-0.1-0.3-0.2c0.1,0,0.5,0,0.5-0.1c-0.1-0.1-0.2-0.1-0.2-0.2c0.1,0,0.5,0,0.6-0.1
				c-0.1,0-0.2-0.1-0.2-0.1c0.1,0,0.3,0,0.4,0c-0.1-0.1-0.2-0.2-0.3-0.2c0.1,0,0.4,0,0.6,0c-0.1-0.1-0.2-0.1-0.3-0.2
				c0.1,0,0.5-0.1,0.5-0.1c-0.1-0.1-0.2-0.1-0.3-0.1c0.2,0,0.4-0.2,0.5-0.2c-1.2,0-2.2,0.6-2.7,1.5c0-0.3-0.1-0.6-0.1-0.8
				c0,0.1-0.1,0.2-0.2,0.2c0-0.2,0-0.6,0-0.7c0,0.1-0.1,0.2-0.1,0.3c0-0.1,0-0.6-0.1-0.7c0,0.1-0.1,0.2-0.2,0.3
				c0-0.2-0.1-0.7-0.1-0.8c0,0.1-0.1,0.3-0.1,0.4c0-0.2-0.1-0.7-0.2-0.8c0,0.1,0,0.3,0,0.4c0-0.1-0.2-0.4-0.3-0.5c0,0.1,0,0.2,0,0.2
				c-0.1-0.1-0.3-0.4-0.5-0.5c0.1,0.1,0.2,0.4,0.2,0.5c0,0-0.1,0-0.1-0.1c0.1,0.1,0.2,0.4,0.3,0.5c-0.1,0-0.2,0-0.2,0
				c0.1,0.1,0.3,0.3,0.4,0.4c0,0-0.2,0-0.2,0c0.1,0.1,0.3,0.3,0.4,0.4c-0.1,0-0.2-0.1-0.2-0.1c0.1,0.1,0.3,0.3,0.4,0.4
				c-0.1,0-0.3-0.1-0.3-0.1c0.1,0.1,0.3,0.4,0.4,0.5c-0.1,0-0.2,0-0.3,0c0.1,0.1,0.4,0.4,0.4,0.5c-0.1,0-0.2-0.1-0.3-0.1
				c0.1,0.1,0.3,0.4,0.3,0.5c-0.1,0-0.2,0-0.2,0c-0.6-0.9-1.6-1.5-2.3-1.6c0.1,0,0.4,0.3,0.5,0.4c-0.1,0-0.2,0-0.2,0
				c0.1,0.1,0.4,0.2,0.5,0.3c0,0-0.2,0-0.2,0c0.1,0.1,0.4,0.2,0.5,0.3c-0.1,0-0.2,0-0.2,0c0.1,0.1,0.4,0.2,0.5,0.4c0,0-0.2,0-0.2,0
				c0.1,0.1,0.3,0.2,0.4,0.3c-0.1,0-0.2,0-0.2,0c0.1,0.1,0.4,0.2,0.4,0.3c0,0-0.2,0-0.2,0c0.1,0.1,0.3,0.3,0.5,0.4
				c-1.6-0.8-3.6-0.4-4.7,1c0.1,0,0.6-0.3,0.7-0.4c-0.1,0.1,0,0.2-0.1,0.3c0.1-0.1,0.3-0.2,0.5-0.3c0,0.1-0.1,0.2-0.1,0.3
				c0.1-0.1,0.4-0.3,0.6-0.4c0,0.1-0.1,0.2-0.1,0.3c0.2-0.1,0.5-0.3,0.6-0.4c-0.1,0.1-0.1,0.2-0.2,0.3c0.2-0.1,0.5-0.3,0.7-0.4
				c0,0.1-0.1,0.2-0.1,0.3c0.2-0.1,0.4-0.2,0.6-0.2c0,0.1-0.1,0.2-0.2,0.2c0.2-0.1,0.4-0.1,0.7-0.1c-1.1,0.4-2.2,1.6-2.2,2.4
				c0.1-0.2,0.3-0.4,0.4-0.5c0,0.1,0,0.2,0,0.3c0.1-0.2,0.2-0.4,0.3-0.5c0,0.1,0,0.2,0,0.3c0.1-0.2,0.2-0.5,0.3-0.6
				c0,0.1,0,0.3,0,0.4c0.1-0.2,0.2-0.4,0.4-0.6c0,0.1,0,0.3,0,0.3c0.1-0.2,0.3-0.4,0.4-0.6c0,0.1,0,0.3,0,0.4
				c0.1-0.2,0.4-0.5,0.6-0.6c0,0.1-0.1,0.3-0.1,0.4c0.1-0.1,0.5-0.4,0.6-0.4c-0.2,0.2-0.4,0.5-0.6,0.7c0.1,0,0.2,0,0.2,0
				c-0.1,0.1-0.4,0.4-0.4,0.5c0.1,0,0.2-0.1,0.2-0.1c-0.1,0.1-0.3,0.4-0.4,0.5c0.1,0,0.2-0.1,0.3-0.1c-0.1,0.1-0.3,0.5-0.4,0.7
				c0-0.1,0.2-0.2,0.3-0.2c-0.1,0.1-0.3,0.6-0.3,0.7c0-0.1,0.2-0.2,0.2-0.3c0,0.1-0.1,0.4-0.1,0.5c0-0.1,0.1-0.1,0.1-0.2
				c0,0.2,0,0.5,0,0.6c0-0.2,0.1-0.4,0.1-0.5c0,0,0,0.1,0.1,0.1c0-0.1,0-0.4,0.1-0.5c0,0,0.1,0.1,0.1,0.2c0-0.1,0-0.4,0-0.6
				c0,0,0.1,0.1,0.2,0.1c0-0.1-0.1-0.4-0.1-0.5c0,0.1,0.1,0.2,0.1,0.2c0-0.2,0-0.4,0-0.5c0,0.1,0.1,0.2,0.2,0.3c0-0.1,0-0.5,0-0.6
				c0,0.1,0.2,0.1,0.2,0.2c0-0.1,0-0.5,0-0.6c0,0.1,0.1,0.2,0.2,0.2c0-0.2,0-0.4,0-0.5c0,0,0.1,0.1,0.1,0.2c0-0.2,0.2-0.5,0.3-0.7
				c0.2,0.2,0.4,0.7,0.4,0.7c0-0.1,0-0.2,0.1-0.2c0,0.1,0.1,0.4,0.1,0.5c0-0.1,0.1-0.2,0.1-0.2c0,0.1,0,0.4,0,0.5
				c0-0.1,0.1-0.1,0.1-0.2c0,0.1,0,0.4,0,0.5c0,0,0.1-0.1,0.1-0.2c0,0.1,0.1,0.5,0.1,0.6c0-0.1,0.1-0.1,0.1-0.2c0,0.1,0,0.5,0.1,0.7
				c0-0.1,0.1-0.2,0.1-0.2c0,0.2,0.1,0.5,0.1,0.6c0-0.1,0-0.2,0.1-0.3c0.1,0.1,0.2,0.4,0.2,0.6c0.1-0.2,0.1-0.5,0-0.7
				c0,0,0.1,0.1,0.1,0.1c0-0.1-0.2-0.4-0.2-0.5c0.1,0,0.1,0.1,0.2,0.1c0-0.2-0.2-0.4-0.2-0.6c0.1,0,0.2,0,0.2,0.1
				c-0.1-0.1-0.3-0.4-0.4-0.5c0.1,0,0.2,0.1,0.2,0.1c-0.1-0.1-0.3-0.3-0.5-0.4c0.1,0,0.2,0,0.3,0c-0.1-0.1-0.3-0.3-0.5-0.4
				c0,0,0.2,0,0.2,0.1c0-0.1-0.3-0.4-0.4-0.5c0.1,0.1,0.4,0.2,0.5,0.3c0-0.1,0-0.3,0-0.3c0.1,0.1,0.3,0.3,0.4,0.4c0-0.1,0-0.2,0-0.3
				c0.2,0.2,0.4,0.4,0.5,0.5c0-0.1,0-0.3,0-0.4c0.1,0.1,0.3,0.3,0.3,0.4c0-0.1,0-0.2,0-0.3c0.1,0.1,0.2,0.4,0.2,0.4
				c0-0.1,0.1-0.3,0-0.3c0.1,0.1,0.3,0.4,0.3,0.5c0-0.1,0.1-0.2,0.1-0.3c0.1,0.1,0.2,0.4,0.2,0.5c0,0,0.1-0.3,0.1-0.4
				c0.1,0.1,0.2,0.5,0.2,0.6c0-0.1,0.1-0.2,0-0.3c0,0.1,0.2,0.5,0.2,0.6c0-0.1,0-0.2,0-0.3c0,0.1,0.2,0.4,0.3,0.6
				C-228.5,392.1-230.1,391.2-231.3,391L-231.3,391z"/>
		</g>
		<g>
			<path d="M-234.4,395.1c0-0.1,0-0.3-0.1-0.5c0,0,0,0,0,0l-0.1,0c0-0.1,0-0.2,0.1-0.3c0,0-0.1,0.1-0.1,0.1l-0.1,0
				c0-0.1,0.1-0.3,0.2-0.5c0,0,0,0,0,0l-0.1-0.1c0-0.1,0.1-0.3,0.3-0.5c0,0,0,0-0.1,0l-0.2,0.1l0.1-0.2c0-0.1,0.1-0.2,0.2-0.4
				c0,0,0,0,0,0l-0.2,0.1l0.1-0.2c0-0.1,0.1-0.2,0.3-0.3l-0.1,0l0.1-0.1c0,0,0.1-0.1,0.1-0.1c0.1-0.1,0.1-0.2,0.2-0.3
				c-0.1,0.1-0.2,0.1-0.3,0.2l-0.2,0.2l0-0.2c0,0,0,0,0-0.1c0,0,0,0,0-0.1c-0.2,0.2-0.3,0.3-0.4,0.4l-0.1,0l0-0.1c0,0,0-0.1,0-0.1
				c-0.1,0.1-0.2,0.3-0.3,0.4l-0.1,0.2l0-0.2c0,0,0-0.1,0-0.1c-0.1,0.1-0.2,0.3-0.2,0.4l-0.1,0.2l0-0.2c0,0,0-0.1,0-0.2
				c-0.1,0.1-0.2,0.3-0.2,0.4l-0.1,0.2l-0.1-0.2c0,0,0-0.1,0-0.1c-0.1,0.1-0.1,0.2-0.2,0.4l-0.1,0l0,0c0,0,0-0.1,0-0.1
				c-0.1,0.1-0.2,0.3-0.3,0.4l-0.1,0.2l0-0.2c0-0.8,0.9-1.8,1.9-2.3c-0.1,0-0.3,0-0.3,0.1l-0.1-0.1c0,0,0.1-0.1,0.1-0.1
				c-0.2,0-0.3,0.1-0.5,0.1l-0.1-0.1c0,0,0,0,0-0.1c0,0-0.1,0-0.1,0.1c-0.2,0.1-0.4,0.2-0.5,0.2l-0.2,0.1l0.1-0.2c0,0,0,0,0,0
				c-0.1,0.1-0.3,0.2-0.4,0.3l-0.2,0.1l0.1-0.2c0,0,0,0,0-0.1c-0.2,0.1-0.4,0.3-0.4,0.3l-0.2,0.1l0.1-0.2c0,0,0-0.1,0-0.1
				c0,0,0,0-0.1,0c-0.1,0.1-0.2,0.1-0.3,0.2l-0.2,0.1l0.1-0.2c0,0,0-0.1,0-0.1c0,0,0,0,0,0c-0.1,0-0.2,0.1-0.3,0.1
				c-0.1,0.1-0.3,0.1-0.3,0.2l-0.2,0.1l0.1-0.2c1-1.3,2.8-1.8,4.4-1.2c-0.1-0.1-0.1-0.1-0.2-0.1l-0.2-0.1h0.2c0,0,0,0,0,0
				c0,0-0.1,0-0.1-0.1c-0.1,0-0.1-0.1-0.2-0.1l-0.1-0.1h0.2c0,0,0,0,0,0c-0.1-0.1-0.2-0.1-0.3-0.2l0-0.1l0,0c0,0,0,0,0,0
				c-0.1-0.1-0.3-0.2-0.4-0.2l0-0.1c0,0,0,0,0,0c0,0-0.1,0-0.1,0c-0.1-0.1-0.2-0.1-0.3-0.2l-0.1-0.1l0.1,0c0,0,0,0,0,0
				c-0.1-0.1-0.2-0.1-0.3-0.2l-0.1-0.1h0.2c0,0,0,0,0,0c-0.1-0.1-0.3-0.2-0.4-0.2l0-0.1c0.7,0.1,1.7,0.6,2.3,1.6c0,0,0,0,0.1,0
				c-0.1-0.1-0.2-0.3-0.3-0.4l-0.1-0.1l0.2,0c0,0,0.1,0,0.1,0c-0.1-0.1-0.2-0.2-0.3-0.3l-0.1-0.1h0.2c0,0,0,0,0.1,0c0,0,0.1,0,0.1,0
				c-0.1-0.1-0.3-0.3-0.3-0.3l-0.1-0.1l0.1,0c0,0,0.1,0,0.2,0c-0.1-0.1-0.1-0.2-0.2-0.2l-0.1-0.1l0.1,0c0,0,0,0,0,0
				c-0.1-0.1-0.2-0.1-0.2-0.2l-0.1-0.1l0.1-0.1c0,0,0.1,0,0.1,0c-0.1-0.1-0.2-0.3-0.3-0.3l-0.1-0.1h0.2c0,0,0.1,0,0.1,0
				c-0.1-0.1-0.2-0.3-0.2-0.4l-0.1-0.1l0.2,0c0,0,0,0,0,0c0-0.1-0.1-0.2-0.2-0.3l0.1-0.1c0.1,0.1,0.2,0.2,0.4,0.4c0,0,0,0,0-0.1
				l0.1-0.1c0,0.1,0.1,0.2,0.2,0.3c0-0.1,0-0.1,0-0.2l0.1,0c0,0.1,0.1,0.4,0.2,0.6c0,0,0-0.1,0-0.1l0.1,0c0,0.1,0.1,0.4,0.1,0.7
				c0,0,0-0.1,0-0.1l0.1-0.2l0.1,0.2c0,0.1,0.1,0.3,0.1,0.5c0,0,0,0,0,0l0.1-0.2l0,0.2c0,0.1,0,0.3,0,0.5c0,0,0,0,0,0l0.1-0.1l0,0.2
				c0,0.1,0,0.2,0,0.2c0,0.1,0,0.2,0.1,0.4c0.6-0.8,1.6-1.3,2.7-1.3l0.2,0l-0.1,0.1c0,0-0.2,0.1-0.3,0.2c0,0,0.1,0,0.1,0.1l0.1,0.1
				l-0.1,0c0,0,0,0-0.1,0c-0.1,0-0.2,0.1-0.3,0.1c0,0,0.1,0,0.1,0.1l0.1,0.1l-0.2,0c-0.1,0-0.3,0-0.4,0c0,0,0,0,0,0
				c0,0,0.1,0.1,0.1,0.1l0.1,0.1l-0.1,0c0,0,0,0-0.1,0l0.1,0l-0.2,0.1c-0.1,0-0.3,0.1-0.4,0.1c0,0,0,0,0,0c0,0,0.1,0,0.1,0.1
				l0.1,0.1l-0.2,0c-0.1,0-0.2,0-0.3,0c0,0,0.1,0,0.1,0l0.2,0.1l-0.2,0.1c-0.1,0-0.2,0.1-0.3,0.1c1-0.2,2.5,0.1,2.9,0.8l0.1,0.1
				l-0.2-0.1c0,0-0.1-0.1-0.2-0.1c-0.1,0-0.1-0.1-0.2-0.1c0,0,0,0.1,0,0.1l0.1,0.2l-0.2-0.1c0,0-0.1-0.1-0.2-0.1c0,0,0,0-0.1,0
				l0.1,0.2l-0.2-0.1c0,0-0.1-0.1-0.2-0.1c0,0,0,0,0,0c0,0,0,0.1,0,0.1l0.1,0.2l-0.2-0.1c-0.1,0-0.2-0.1-0.3-0.2c0,0,0,0.1,0,0.1
				l0.1,0.2l-0.2-0.1c-0.1,0-0.2-0.1-0.3-0.1c0,0,0,0.1,0,0.1l0,0.1l-0.1,0c-0.1,0-0.1-0.1-0.2-0.1c0,0,0,0,0,0.1l0,0.1h-0.1
				c0,0-0.1,0-0.1,0c0,0,0,0,0,0l0.1,0.1l-0.1,0c-0.1,0-0.2,0-0.3,0l0,0.1c1.1,0.3,2.5,1.1,2.3,2.6l0,0.1l-0.1-0.1
				c-0.1-0.1-0.2-0.2-0.2-0.4c0,0,0,0,0,0.1l-0.1,0c0,0-0.1-0.2-0.1-0.4c0,0,0,0.1,0,0.1l-0.1,0.2l-0.1-0.2
				c-0.1-0.2-0.1-0.3-0.1-0.4c0,0.1,0,0.1-0.1,0.2l-0.1,0.2l0-0.2c0-0.1-0.1-0.2-0.1-0.3c0,0,0,0,0,0l0,0l-0.1,0
				c0-0.1-0.1-0.2-0.2-0.3c0,0.1,0,0.1,0,0.1l-0.1,0.2l-0.1-0.2c0,0-0.1-0.1-0.1-0.2l0,0l-0.1,0c0,0-0.1-0.1-0.2-0.2
				c0,0.1,0,0.2,0,0.2l0,0.2l-0.1-0.2c-0.1-0.1-0.2-0.3-0.3-0.4c0,0.1,0,0.1,0,0.2l0,0.2l-0.1-0.1c0,0-0.1-0.2-0.2-0.2
				c0,0.1,0,0.2,0,0.2l0,0.1l-0.1-0.1c0,0-0.1-0.1-0.1-0.1c0.1,0.1,0.1,0.1,0.1,0.2l0,0.1l0,0c0.1,0.1,0.2,0.1,0.2,0.2l0.1,0.1h-0.1
				c0,0-0.1,0-0.1,0c0.2,0.1,0.3,0.3,0.4,0.4l0.1,0.1l-0.2-0.1c0,0,0,0,0,0c0.1,0.1,0.2,0.3,0.2,0.3l0.1,0.2l-0.2-0.1c0,0,0,0-0.1,0
				c0.1,0.1,0.1,0.3,0.2,0.5l0,0.2l-0.1-0.1c0,0.1,0.1,0.2,0.1,0.3l0,0.1l-0.1,0c0,0,0,0,0,0c0,0.2,0,0.5,0,0.6l-0.1,0
				c0-0.1-0.1-0.3-0.1-0.4c0,0,0,0.1,0,0.1l0,0.2l-0.1-0.2c0-0.1-0.1-0.3-0.1-0.4c0,0,0,0,0,0l-0.1,0c0-0.1,0-0.2,0-0.3
				c0-0.1,0-0.1,0-0.2c0,0,0,0,0,0l-0.1,0c0-0.1,0-0.1,0-0.2c0-0.1,0-0.1,0-0.2c0,0,0,0,0,0l-0.1,0.2l0-0.2c0-0.1,0-0.2,0-0.3
				l-0.1,0.1l0-0.2c0-0.1,0-0.2,0-0.3l-0.1,0l0-0.1c0,0,0-0.1,0-0.1l0,0l-0.1-0.1c0,0,0,0-0.1-0.1c-0.1-0.1-0.2-0.4-0.3-0.5
				c-0.2,0.2-0.3,0.4-0.3,0.6l0,0.2l-0.1-0.2c0,0,0,0,0-0.1c0,0.1,0,0.3,0,0.4l0,0.2l-0.1-0.1c0,0,0,0,0-0.1c0,0.1,0,0.3,0,0.4
				l0,0.2l-0.1-0.1c0,0,0,0,0,0c0,0,0,0,0,0c0,0.1,0,0.3,0,0.4l0,0.1l-0.1-0.1c0,0-0.1-0.1-0.1-0.1c0,0.1,0,0.2,0,0.3l0,0.1
				l-0.1-0.1c0,0,0,0,0,0c0,0.1,0,0.2,0,0.2l0,0.1l-0.1,0c0,0-0.1,0-0.1-0.1c0,0.1,0,0.3,0,0.4l0,0.2l-0.1-0.1c0,0,0,0-0.1-0.1
				c0,0.1,0,0.3,0,0.4v0.2l-0.1-0.1c0,0.1-0.1,0.2-0.1,0.3L-234.4,395.1z M-234.3,394.3l0,0.2c0,0.1,0,0.1,0,0.2c0,0,0,0,0,0
				c0,0,0-0.1,0-0.1L-234.3,394.3l0.1,0.2c0-0.1,0-0.2,0-0.2l0-0.2l0.1,0.1c0-0.1,0-0.3,0-0.4l0.1,0c0,0,0,0,0,0c0-0.1,0-0.3,0-0.3
				l0.1,0c0,0,0-0.1,0-0.1c0-0.1,0-0.1,0-0.2l0.1,0c0,0,0,0.1,0.1,0.1c0-0.1,0-0.3,0-0.4l0-0.2l0.1,0.2c0,0,0,0,0.1,0.1
				c0-0.2,0-0.4,0-0.4l0.1,0c0,0,0,0,0,0.1c0-0.1,0-0.2,0-0.3l0-0.2l0.1,0.1c0,0,0,0,0.1,0.1c0-0.2,0.2-0.4,0.3-0.6l0-0.1l0,0.1
				c0.1,0.1,0.3,0.4,0.3,0.6c0,0,0,0,0-0.1l0.1-0.1l0,0.1c0,0.1,0,0.2,0,0.3c0,0,0,0,0,0l0.1-0.1v0.1c0,0.1,0,0.2,0,0.3c0,0,0,0,0,0
				l0.1-0.1l0,0.2c0,0.1,0,0.2,0,0.3c0,0,0,0,0,0l0.2-0.2l-0.1,0.2c0,0,0,0.2,0,0.3c0,0,0,0.1,0,0.1c0,0,0,0,0,0l0.1-0.2v0.2
				c0,0.1,0,0.2,0,0.4c0,0,0,0.1,0,0.1c0,0,0,0,0-0.1l0.1-0.2l0,0.2c0,0.1,0,0.2,0,0.4c0,0,0,0,0-0.1l0.1-0.1l0,0.1
				c0,0,0.1,0.2,0.1,0.3c0-0.1,0-0.3-0.1-0.4l-0.1-0.2l0.2,0.1c0-0.1-0.1-0.3-0.1-0.3l0.1-0.1l0,0c0,0,0,0,0,0
				c-0.1-0.2-0.1-0.3-0.2-0.4l-0.1-0.1l0.2,0c0,0,0,0,0,0c-0.1-0.1-0.2-0.3-0.3-0.3l0.1-0.1c0,0,0,0,0,0c-0.1-0.1-0.2-0.2-0.3-0.3
				l-0.1-0.1l0.2,0c0,0,0.1,0,0.2,0c-0.1-0.1-0.3-0.2-0.4-0.3l0-0.1c0,0,0.1,0,0.1,0c-0.1-0.1-0.2-0.2-0.3-0.3l0.1-0.1l0,0
				c0.1,0.1,0.3,0.2,0.4,0.2c0-0.1,0-0.2,0-0.2l-0.1-0.2l0.2,0.1c0.1,0,0.2,0.2,0.3,0.3c0,0,0-0.1,0-0.1l0-0.1l0.1,0.1
				c0.2,0.1,0.3,0.2,0.4,0.4c0-0.1,0-0.1,0-0.2l0-0.2l0.1,0.1c0,0,0.1,0.1,0.2,0.2c0,0,0,0,0,0l0.1-0.1c0,0,0.1,0.2,0.1,0.3
				c0,0,0-0.1,0-0.1l0.1-0.1c0,0,0.1,0.2,0.2,0.3c0,0,0-0.1,0-0.1l0.1,0c0,0.1,0.1,0.2,0.1,0.3c0,0,0-0.1,0-0.1l0.1,0
				c0,0.1,0.1,0.2,0.2,0.4c0,0,0-0.1,0-0.1l0.1,0c0,0,0.1,0.2,0.1,0.3c0,0,0,0,0,0l0.1,0c0,0.1,0.1,0.2,0.2,0.4
				c0-1.3-1.5-2.2-2.6-2.3l0,0c-0.2,0-0.5,0-0.7,0l0-0.1c0.2,0,0.4,0,0.6,0c0,0,0,0,0,0c0,0,0,0,0,0l0.1-0.1c0,0,0.1,0.1,0.2,0.1
				c0,0,0,0,0,0l0.1-0.1c0.1,0,0.2,0.1,0.3,0.1c-0.1-0.1-0.1-0.1-0.1-0.1l0.1-0.1c0,0,0.1,0.1,0.2,0.1c0,0,0.1,0,0.1,0.1
				c0,0,0-0.1,0-0.1l-0.1-0.2l0.2,0.1c0.1,0,0.2,0.1,0.3,0.1c0-0.1,0-0.1,0-0.1l-0.1-0.2l0.3,0.2c0.1,0,0.1,0.1,0.2,0.1
				c0,0,0-0.1,0-0.1l0.1-0.1l0,0c0,0,0.1,0.1,0.2,0.1c0,0,0-0.1,0-0.1l0.1-0.1c0,0,0.1,0.1,0.2,0.1c0,0,0,0,0,0c0,0,0,0,0,0l0.1-0.1
				c0,0,0.2,0.1,0.3,0.2c0,0,0,0,0,0c0,0,0-0.1,0-0.1l-0.1-0.1l0.2,0.1c0.1,0,0.2,0.1,0.3,0.2c-0.5-0.6-2-0.8-2.9-0.5l0,0
				c-0.1,0-0.2,0.1-0.2,0.1l-0.1-0.1c0.1,0,0.2-0.1,0.2-0.1c0,0,0.1-0.1,0.1-0.1c0.1-0.1,0.1-0.1,0.3-0.2c-0.1,0-0.1-0.1-0.2-0.1
				l-0.1-0.1l0.2,0c0.1,0,0.2,0,0.4,0c-0.1,0-0.1-0.1-0.1-0.1l-0.1-0.1l0.2,0c0.1,0,0.2,0,0.3,0c0,0,0,0,0,0l0-0.1
				c0.1,0,0.2,0,0.3,0c-0.1-0.1-0.1-0.1-0.2-0.1l0-0.1c0.1,0,0.2,0,0.4,0c0,0-0.1,0-0.1-0.1l0-0.1c0,0,0.2,0,0.4-0.1c0,0,0,0,0,0
				c0,0-0.1,0-0.1,0l0-0.1c0.1,0,0.2,0,0.3-0.1c-1,0.1-1.9,0.6-2.4,1.4v0v0c-0.1,0.2-0.3,0.5-0.3,0.8l-0.1,0
				c0.1-0.3,0.2-0.6,0.3-0.8c0-0.2,0-0.4-0.1-0.5c0,0,0-0.1,0-0.1c0,0,0,0.1-0.1,0.1l-0.1-0.1c0-0.1,0-0.3,0-0.4c0,0,0,0,0,0l0,0
				l-0.1,0c0-0.1,0-0.3,0-0.5c0,0,0,0,0,0c0,0,0,0.1,0,0.1l-0.1,0c0-0.1,0-0.4-0.1-0.6c0,0.1,0,0.1-0.1,0.1l-0.1,0
				c0-0.1,0-0.3-0.1-0.5c0,0,0,0.1,0,0.1l-0.1,0c0-0.1-0.1-0.2-0.1-0.3c0,0,0,0,0,0l0,0.2l-0.1-0.2c0-0.1-0.1-0.1-0.2-0.2
				c0,0,0,0,0,0c0,0.1,0,0.1,0.1,0.1l0.1,0.2l-0.1-0.1c0.1,0.1,0.1,0.2,0.1,0.2l0.1,0.2l-0.2-0.1c0,0,0,0,0,0
				c0.1,0.1,0.2,0.3,0.3,0.3l0.1,0.2l-0.2-0.1c0,0,0,0,0,0c0.1,0.1,0.2,0.2,0.3,0.3l-0.1,0.1c0,0,0,0,0,0c0,0,0.1,0.1,0.1,0.1
				c0.1,0.1,0.1,0.1,0.1,0.1l-0.1,0.1c0,0-0.1,0-0.1-0.1c0.1,0.1,0.2,0.3,0.3,0.3l0.1,0.2l-0.2-0.1c0,0-0.1,0-0.1,0
				c0.1,0.1,0.3,0.3,0.3,0.4l-0.1,0.1c0,0-0.1,0-0.1,0c0.1,0.1,0.1,0.2,0.2,0.3l0.1,0.2l-0.1,0c0,0-0.1,0-0.1,0
				c0.1,0.2,0.2,0.4,0.3,0.6l-0.1,0c-0.1-0.3-0.2-0.5-0.3-0.7c-0.5-0.8-1.3-1.3-1.9-1.5c0.1,0.1,0.2,0.2,0.3,0.2l0.1,0.1h-0.1
				c0,0,0,0,0,0c0.1,0.1,0.2,0.1,0.3,0.2l0,0.1c0,0,0,0,0,0c0,0,0.1,0,0.1,0c0.1,0,0.2,0.1,0.3,0.2l0.2,0.1h-0.2c0,0,0,0,0,0
				c0.1,0.1,0.3,0.2,0.3,0.3l0.1,0.1l-0.1,0c0.1,0.1,0.2,0.1,0.2,0.2l0.2,0.2l-0.1,0c0.1,0,0.1,0.1,0.2,0.1l0.1,0.1l-0.2,0
				c0,0,0,0,0,0c0.1,0.1,0.2,0.2,0.3,0.3c0.1,0,0.2,0.1,0.3,0.1l-0.1,0.1c-0.1-0.1-0.2-0.1-0.3-0.1h0h0c-1.6-0.8-3.4-0.4-4.5,0.8
				c0,0,0,0,0.1,0c0.2-0.1,0.3-0.2,0.4-0.2l0.2-0.1l-0.1,0.2c0,0,0,0,0,0.1c0,0,0.1-0.1,0.1-0.1c0.1-0.1,0.2-0.1,0.2-0.2l0.1,0.1
				c0,0,0,0.1,0,0.1c0.1-0.1,0.3-0.2,0.4-0.3l0.1-0.1l0,0.2c0,0,0,0.1,0,0.1c0.2-0.1,0.4-0.2,0.4-0.3l0.1,0.1c0,0,0,0.1-0.1,0.1
				c0,0,0,0,0,0c0.1,0,0.2-0.1,0.3-0.2c0.1-0.1,0.2-0.1,0.3-0.1l0.2-0.1l-0.1,0.2c0,0,0,0,0,0.1c0,0,0,0,0,0
				c0.1-0.1,0.3-0.1,0.5-0.1l0.1,0l-0.1,0.1c0,0,0,0,0,0c0.1,0,0.3,0,0.5,0c0.1,0,0.2-0.1,0.3-0.1l0,0.1c-0.1,0-0.2,0-0.3,0.1v0v0
				c-1,0.3-2,1.3-2.1,2.1c0.1-0.1,0.2-0.3,0.3-0.3l0.2-0.2l0,0.1c0-0.1,0.1-0.2,0.1-0.2l0.1,0c0,0,0,0.1,0,0.1
				c0.1-0.2,0.2-0.4,0.3-0.5l0.1,0.1c0,0,0,0.1,0,0.2c0.1-0.1,0.2-0.3,0.3-0.4l0.1,0.1c0,0,0,0.1,0,0.1c0.1-0.1,0.2-0.3,0.3-0.4
				l0.1,0.1c0,0,0,0.1,0,0.2c0.1-0.2,0.3-0.4,0.4-0.5l0.1,0.1c0,0,0,0.1,0,0.2c0.2-0.1,0.4-0.3,0.5-0.3l0.1,0.1
				c-0.2,0.1-0.3,0.4-0.5,0.6c0,0,0,0,0,0c0,0,0.1,0,0.1,0l0,0.1c-0.1,0-0.2,0.2-0.3,0.3c0,0,0,0,0,0l0,0l0.1,0.1
				c-0.1,0.1-0.2,0.2-0.3,0.4c0,0,0,0,0,0c0,0,0.1,0,0.1,0l0.1,0.1c-0.1,0.1-0.2,0.3-0.3,0.4c0,0,0.1,0,0.1-0.1l0.1,0.1
				c0,0.1-0.1,0.2-0.2,0.4c0,0,0,0,0,0l0.1,0.1c0,0.1,0,0.2-0.1,0.3L-234.3,394.3z"/>
		</g>
		<g>
			<path class="st7" d="M-235.3,400.7c0-2.5,0-3.4-0.1-3.4c-0.1,0-0.1,0.9-0.1,3.4"/>
		</g>
		<g>
			<path d="M-235.4,400.7l0-1.1c0-0.4,0-0.7,0-1c0,0.3,0,0.6,0,1L-235.4,400.7h-0.1l0-1.1c0-2.3,0-2.3,0.1-2.3s0.1,0,0.1,2.3l0,1.1
				H-235.4z"/>
		</g>
		<g>
			<path class="st7" d="M-235.9,401.2c1.6,0,2.1-0.4,2.1-0.7c-0.8,0-1,0.2-2.1,0.2c-1.1,0-1.3-0.2-2.1-0.2
				C-238,400.8-237.5,401.2-235.9,401.2L-235.9,401.2z"/>
		</g>
		<g>
			<path d="M-235.9,401.2c-1.1,0-1.8-0.2-2-0.5c-0.1-0.1-0.1-0.2-0.1-0.3l0-0.1h0.1c0.3,0,0.6,0,0.8,0.1c0.3,0,0.6,0.1,1.3,0.1
				s1-0.1,1.3-0.1c0.2,0,0.5-0.1,0.8-0.1h0.1l0,0.1c0,0.1,0,0.2-0.1,0.3C-234.1,401.1-234.8,401.2-235.9,401.2z M-237.9,400.5
				c0,0.1,0,0.1,0.1,0.2c0.1,0.2,0.6,0.4,1.9,0.4c1.4,0,1.8-0.3,1.9-0.4c0-0.1,0.1-0.1,0.1-0.2c-0.3,0-0.5,0-0.7,0.1
				c-0.3,0-0.7,0.1-1.3,0.1s-1-0.1-1.3-0.1C-237.4,400.6-237.6,400.5-237.9,400.5z"/>
		</g>
		<g>
			<path class="st7" d="M-235.9,401.6c0.7,0,1.3-0.1,1.3-0.3c-0.1,0-0.2,0-0.3,0l0-0.2c0-0.1-0.2,0-0.2,0l0,0.2c-0.3,0-0.6,0-0.8,0
				c-0.2,0-0.5,0-0.8,0l0-0.2c0-0.1-0.2-0.1-0.2,0l0,0.2c-0.1,0-0.2,0-0.3,0C-237.2,401.5-236.6,401.6-235.9,401.6L-235.9,401.6z"/>
		</g>
		<g>
			<path d="M-235.9,401.7c-0.8,0-1.2-0.1-1.3-0.2c0,0-0.1-0.1,0-0.2l0-0.1l0.1,0c0.1,0,0.1,0,0.2,0l0-0.2c0-0.1,0.1-0.1,0.2-0.1
				c0.1,0,0.1,0.1,0.1,0.1l0,0.2c0.2,0,0.5,0,0.7,0c0.2,0,0.5,0,0.7,0l0-0.2c0,0,0-0.1,0.1-0.1c0.1,0,0.2,0,0.2,0.1l0,0.2
				c0.1,0,0.2,0,0.2,0l0.1,0l0,0.1c0,0.1,0,0.1,0,0.2C-234.7,401.6-235.1,401.7-235.9,401.7z M-237.1,401.4c0.1,0.1,0.5,0.2,1.2,0.2
				c0.7,0,1.1-0.1,1.2-0.2c-0.1,0-0.1,0-0.2,0l-0.1,0l0-0.3c0,0,0,0-0.1,0l0,0.3l-0.1,0c-0.3,0-0.6,0-0.8,0c-0.2,0-0.5,0-0.8,0
				l-0.1,0l0-0.3c0,0,0,0-0.1,0l0,0.3l-0.1,0C-236.9,401.4-237,401.4-237.1,401.4z"/>
		</g>
		<g>
			<path class="st7" d="M-232.7,391.4c0.1,2.8-1.1,9.4,3.1,11.5c0.4,0.2,0.1,0.9-0.6,0.6c-4-2.3-2.7-9.1-2.8-12.1L-232.7,391.4
				L-232.7,391.4z"/>
		</g>
		<g>
			<path d="M-229.8,403.7c-0.1,0-0.2,0-0.4-0.1c-3.3-1.9-3-6.9-2.9-10.2c0-0.8,0.1-1.5,0.1-2l0-0.1l0.4,0l0,0.1c0,0.5,0,1.1,0,1.8
				c-0.1,3.2-0.3,8,3.1,9.6c0.1,0.1,0.2,0.2,0.2,0.3c0,0.2-0.1,0.3-0.2,0.4C-229.6,403.6-229.7,403.7-229.8,403.7z M-232.8,391.5
				c0,0.5,0,1.2-0.1,2c-0.2,3.3-0.4,8.2,2.8,10c0.2,0.1,0.4,0.1,0.5,0c0.1-0.1,0.2-0.2,0.1-0.3c0-0.1,0-0.2-0.1-0.2
				c-3.5-1.7-3.3-6.6-3.2-9.8c0-0.7,0-1.3,0-1.7L-232.8,391.5z"/>
		</g>
		<g>
			<path class="st7" d="M-233,390.7c-0.4,0-0.4,0.6,0,0.6C-232.6,391.3-232.6,390.7-233,390.7L-233,390.7z"/>
		</g>
		<g>
			<path d="M-233,391.4c-0.2,0-0.4-0.2-0.4-0.4c0-0.1,0-0.2,0.1-0.2c0.1-0.1,0.2-0.1,0.3-0.1c0.2,0,0.4,0.2,0.4,0.4
				c0,0.1,0,0.2-0.1,0.2C-232.8,391.4-232.9,391.4-233,391.4z M-233,390.8c-0.1,0-0.1,0-0.2,0.1c0,0-0.1,0.1-0.1,0.2
				c0,0.1,0.1,0.2,0.2,0.2c0.1,0,0.1,0,0.2-0.1c0,0,0.1-0.1,0.1-0.2C-232.8,390.9-232.8,390.8-233,390.8z"/>
		</g>
		<g>
			<path class="st7" d="M-232.5,390.8c-0.4,0-0.4,0.6,0,0.6C-232.1,391.4-232.1,390.8-232.5,390.8L-232.5,390.8z"/>
		</g>
		<g>
			<path d="M-232.5,391.5c-0.2,0-0.4-0.2-0.4-0.4c0-0.1,0-0.2,0.1-0.2c0.1-0.1,0.2-0.1,0.3-0.1c0.2,0,0.4,0.2,0.4,0.4
				c0,0.1,0,0.2-0.1,0.2C-232.3,391.4-232.3,391.5-232.5,391.5z M-232.5,390.9c-0.1,0-0.1,0-0.2,0.1c0,0-0.1,0.1-0.1,0.2
				c0,0.1,0.1,0.2,0.2,0.2c0.1,0,0.1,0,0.2-0.1c0,0,0.1-0.1,0.1-0.2C-232.2,391-232.3,390.9-232.5,390.9z"/>
		</g>
		<g>
			<path class="st7" d="M-233,391.2c-0.4,0-0.4,0.6,0,0.6C-232.6,391.8-232.6,391.2-233,391.2L-233,391.2z"/>
		</g>
		<g>
			<path d="M-233,391.9c-0.2,0-0.4-0.2-0.4-0.4c0-0.1,0-0.2,0.1-0.2c0.1-0.1,0.2-0.1,0.3-0.1c0.2,0,0.4,0.2,0.4,0.4
				c0,0.1,0,0.2-0.1,0.2C-232.8,391.8-232.9,391.9-233,391.9z M-233,391.3c-0.1,0-0.1,0-0.2,0.1c0,0-0.1,0.1-0.1,0.2
				c0,0.1,0.1,0.2,0.2,0.2c0.1,0,0.1,0,0.2-0.1c0,0,0.1-0.1,0.1-0.2C-232.7,391.4-232.8,391.3-233,391.3z"/>
		</g>
		<g>
			<path class="st7" d="M-232.6,391.1c-0.4,0-0.4,0.6,0,0.6C-232.2,391.7-232.2,391.1-232.6,391.1L-232.6,391.1z"/>
		</g>
		<g>
			<path d="M-232.6,391.8c-0.2,0-0.4-0.2-0.4-0.4c0-0.1,0-0.2,0.1-0.2c0.1-0.1,0.2-0.1,0.3-0.1c0.2,0,0.4,0.2,0.4,0.4
				c0,0.1,0,0.2-0.1,0.2C-232.4,391.7-232.5,391.8-232.6,391.8z M-232.6,391.2c-0.1,0-0.1,0-0.2,0.1c0,0-0.1,0.1-0.1,0.2
				c0,0.1,0.1,0.2,0.2,0.2c0.1,0,0.1,0,0.2-0.1c0,0,0.1-0.1,0.1-0.2C-232.4,391.3-232.5,391.2-232.6,391.2z"/>
		</g>
		<g>
			<path class="st8" d="M-237,397.5c0.3,0.9,0,2.2-0.5,3.1c1-0.1,2.6-0.2,3.1,0C-234.8,399.2-235.9,397.7-237,397.5L-237,397.5z"/>
		</g>
		<g>
			<path d="M-234.2,400.6l-0.1,0c-0.5-0.2-1.9-0.1-3.1,0l-0.1,0l0.1-0.1c0.4-0.8,0.7-2,0.5-3l0-0.1l0.1,0c1.1,0.3,2.2,1.8,2.7,3.1
				L-234.2,400.6z M-236.9,397.5c0.2,0.9-0.1,2.1-0.5,2.9c0.6-0.1,2.2-0.2,2.9,0C-234.9,399.2-235.9,397.8-236.9,397.5z"/>
		</g>
		<g>
			<path class="st1" d="M-236.9,395.7c-0.1-0.2-0.2-0.3-0.4-0.3c-0.3,0-0.4,0.3-0.4,0.7c0,0.4,0.2,0.7,0.5,0.7
				c0.2,0,0.4-0.2,0.4-0.4h-0.4V396h0.7v1.1h-0.2c0-0.1,0-0.2,0-0.2c-0.1,0.2-0.3,0.3-0.5,0.3c-0.4,0-0.8-0.4-0.8-1.1s0.3-1,0.8-1
				c0.4,0,0.7,0.3,0.7,0.7H-236.9L-236.9,395.7z"/>
		</g>
		<g>
			<path class="st1" d="M-234.5,396.8c0.3,0,0.3-0.2,0.3-0.4c0-0.2,0-1.4,0-1.4h0.4c0,0,0,1.1,0,1.4c0,0.3-0.2,0.7-0.7,0.7
				c-0.5,0-0.7-0.4-0.7-0.7c0-0.3,0-1.4,0-1.4h0.4c0,0,0,1.2,0,1.4C-234.8,396.6-234.7,396.8-234.5,396.8L-234.5,396.8z"/>
		</g>
		<g>
			<path class="st1" d="M-231.3,396.4c-0.1,0-0.2,0-0.2,0l0.2-0.8l0.2,0.8C-231.1,396.4-231.2,396.4-231.3,396.4l0,0.3
				c0.1,0,0.3,0,0.3,0l0.1,0.4h0.3l-0.6-2.1h-0.4l-0.6,2.1h0.3l0.1-0.4c0,0,0.2,0,0.3,0L-231.3,396.4L-231.3,396.4z"/>
		</g>
		<g>
			<polygon class="st1" points="-228.6,397.2 -228.9,395.6 -228.9,397.2 -229.3,397.2 -229.3,395.1 -228.7,395.1 -228.4,396.7 
				-228.1,395.1 -227.6,395.1 -227.6,397.2 -227.9,397.2 -227.9,395.6 -228.3,397.2 			"/>
		</g>
	</g>
</g>
</svg>
