<?xml version="1.0" encoding="utf-8"?>
<!-- Generator: Adobe Illustrator 19.0.0, SVG Export Plug-In . SVG Version: 6.00 Build 0)  -->
<svg version="1.1" id="Layer_1" xmlns="http://www.w3.org/2000/svg" xmlns:xlink="http://www.w3.org/1999/xlink" x="0px" y="0px"
	 viewBox="-269 374 72 46" style="enable-background:new -269 374 72 46;" xml:space="preserve">
<style type="text/css">
	.st0{clip-path:url(#SVGID_2_);}
	.st1{fill:#E40520;}
	.st2{fill:#FFE247;}
	.st3{fill:#009E59;}
</style>
<g>
	<defs>
		<path id="SVGID_1_" d="M-204,420H-262c-3.8,0-7-3.1-7-7V381c0-3.8,3.1-7,7-7h58.1c3.8,0,7,3.1,7,7V413
			C-197,416.9-200.1,420-204,420z"/>
	</defs>
	<clipPath id="SVGID_2_">
		<use xlink:href="#SVGID_1_"  style="overflow:visible;"/>
	</clipPath>
	<g class="st0">
		<g>
			<polygon class="st1" points="-239.5,420.1 -239.5,372.9 -271,372.9 -271,420.1 			"/>
		</g>
		<g>
			<path d="M-239.4,420.3h-31.8v-47.5h31.8V420.3z M-270.9,420h31.3v-47h-31.3V420z"/>
		</g>
		<g>
			<polygon class="st2" points="-176.5,396.5 -176.5,372.9 -239.5,372.9 -239.5,396.5 			"/>
		</g>
		<g>
			<path d="M-176.3,396.6h-63.3v-23.9h63.3V396.6z M-239.4,396.4h62.8V373h-62.8V396.4z"/>
		</g>
		<g>
			<polygon class="st3" points="-176.5,420.1 -176.5,396.5 -239.5,396.5 -239.5,420.1 			"/>
		</g>
		<g>
			<path d="M-176.3,420.3h-63.3v-23.9h63.3V420.3z M-239.4,420h62.8v-23.4h-62.8V420z"/>
		</g>
		<g>
			<polygon points="-255.2,388.6 -257,394.1 -262.7,394.1 -258.1,397.5 -259.9,402.9 -255.2,399.5 -250.6,402.9 -252.4,397.4 
				-247.7,394.1 -253.4,394.1 			"/>
		</g>
	</g>
</g>
</svg>
