<?xml version="1.0" encoding="utf-8"?>
<!-- Generator: Adobe Illustrator 19.0.0, SVG Export Plug-In . SVG Version: 6.00 Build 0)  -->
<svg version="1.1" id="Layer_1" xmlns="http://www.w3.org/2000/svg" xmlns:xlink="http://www.w3.org/1999/xlink" x="0px" y="0px"
	 viewBox="-269 374 72 46" style="enable-background:new -269 374 72 46;" xml:space="preserve">
<style type="text/css">
	.st0{clip-path:url(#SVGID_2_);}
	.st1{fill:#E40520;}
	.st2{fill:#FFFFFF;}
</style>
<g>
	<defs>
		<path id="SVGID_1_" d="M-204,420H-262c-3.8,0-7-3.1-7-7V381c0-3.8,3.1-7,7-7h58.1c3.8,0,7,3.1,7,7V413
			C-197,416.9-200.1,420-204,420z"/>
	</defs>
	<clipPath id="SVGID_2_">
		<use xlink:href="#SVGID_1_"  style="overflow:visible;"/>
	</clipPath>
	<g class="st0">
		<g>
			<polygon class="st1" points="-195.4,421.6 -195.4,371.6 -270.5,371.6 -270.5,421.6 			"/>
			<path d="M-195.3,421.8h-75.3v-50.3h75.3V421.8z M-270.4,421.5h74.8v-49.8h-74.8V421.5z"/>
		</g>
		<g>
			<path class="st2" d="M-233,396.6"/>
		</g>
		<g>
			<path class="st2" d="M-228.5,382.4c-1.4-2.4-5.9-3.9-8.5,0.4c-2.5,4.3,0.5,11.1,3.2,13.4c-1.6-2.6-1.5-4.6-0.5-7.4
				c0.1-0.2,0.5-0.1,0.4,0.1c-1,2.5-1.1,4.8,0.5,7.2c-0.7-2-0.9-3.5,1-4.3c3.3-1.4,3.7-4.5,2.4-6.8
				C-231.4,382.7-230.4,381.2-228.5,382.4L-228.5,382.4z"/>
		</g>
		<g>
			<polygon class="st1" points="-233.2,386.4 -233.2,387.5 -232.2,387.9 -233.3,388.2 -233.3,389.3 -233.9,388.4 -235,388.7 
				-234.3,387.8 -234.9,386.9 -233.9,387.3 			"/>
		</g>
		<g>
			<path class="st2" d="M-245.1,388c-2.8,0.6-5.6,4.4-2.2,8.2c3.3,3.7,10.7,3,13.7,1.1c-2.9,0.8-4.9,0-7.2-1.8
				c-0.2-0.1,0-0.5,0.2-0.3c2.1,1.7,4.2,2.6,7,1.7c-2.1,0.1-3.6-0.3-3.8-2.2c-0.3-3.5-3.1-4.9-5.7-4.3
				C-245.7,390.9-246.8,389.4-245.1,388L-245.1,388z"/>
		</g>
		<g>
			<polygon class="st1" points="-242.7,393.8 -241.7,394.1 -241,393.3 -241.1,394.4 -240,394.7 -241.1,395 -241.1,396.1 
				-241.7,395.2 -242.8,395.5 -242.1,394.7 			"/>
		</g>
		<g>
			<path class="st2" d="M-244.9,405.6c-0.3,2.8,2.5,6.7,7.1,4.6c4.6-2,6.1-9.2,5.3-12.7c-0.2,3-1.5,4.6-4,6.3
				c-0.2,0.1-0.4-0.2-0.2-0.3c2.3-1.5,3.7-3.2,3.8-6.1c-0.6,2-1.4,3.3-3.3,2.9c-3.5-0.8-5.6,1.4-5.9,4.1
				C-242.4,407-244.1,407.6-244.9,405.6L-244.9,405.6z"/>
		</g>
		<g>
			<polygon class="st1" points="-238.7,405.1 -238,404.2 -238.7,403.3 -237.6,403.7 -237,402.8 -237,403.9 -236,404.3 -237,404.6 
				-237,405.7 -237.7,404.8 			"/>
		</g>
		<g>
			<path class="st2" d="M-228.1,410.8c2.6,1.1,7.1-0.3,6.6-5.3c-0.5-5-6.9-8.7-10.5-9c2.8,1.1,3.9,2.8,4.8,5.7
				c0.1,0.2-0.3,0.4-0.4,0.1c-0.7-2.6-1.9-4.6-4.6-5.5c1.7,1.2,2.7,2.3,1.7,4c-1.8,3.1-0.4,5.8,2.1,6.9
				C-226,408.8-225.9,410.7-228.1,410.8L-228.1,410.8z"/>
		</g>
		<g>
			<polygon class="st1" points="-226.7,404.8 -227.3,403.9 -228.4,404.2 -227.7,403.3 -228.3,402.4 -227.3,402.8 -226.6,401.9 
				-226.7,403 -225.6,403.4 -226.7,403.7 			"/>
		</g>
		<g>
			<path class="st2" d="M-218,396.5c1.9-2.1,1.9-6.9-3-7.9c-4.9-1.1-10.4,3.9-11.8,7.2c1.9-2.3,3.9-2.9,6.9-2.8c0.2,0,0.2,0.4,0,0.4
				c-2.7-0.2-4.9,0.4-6.7,2.7c1.6-1.3,3-1.9,4.4-0.4c2.4,2.7,5.4,2.2,7.2,0.2C-219.2,393.8-217.4,394.3-218,396.5L-218,396.5z"/>
		</g>
		<g>
			<polygon class="st1" points="-223.3,393.2 -224.4,393.5 -224.4,394.6 -225,393.7 -226.1,394 -225.4,393.2 -226,392.3 -225,392.6 
				-224.3,391.8 -224.3,392.9 			"/>
		</g>
	</g>
</g>
</svg>
