<?xml version="1.0" encoding="utf-8"?>
<!-- Generator: Adobe Illustrator 19.0.0, SVG Export Plug-In . SVG Version: 6.00 Build 0)  -->
<svg version="1.1" id="Layer_1" xmlns="http://www.w3.org/2000/svg" xmlns:xlink="http://www.w3.org/1999/xlink" x="0px" y="0px"
	 viewBox="-269 374 72 46" style="enable-background:new -269 374 72 46;" xml:space="preserve">
<style type="text/css">
	.st0{clip-path:url(#SVGID_2_);}
	.st1{fill:#000066;}
	.st2{fill:#FFFFFF;}
	.st3{fill:#CC0000;}
</style>
<g>
	<defs>
		<path id="SVGID_1_" d="M-204,420H-262c-3.8,0-7-3.1-7-7V381c0-3.8,3.1-7,7-7h58.1c3.8,0,7,3.1,7,7V413
			C-197,416.9-200.1,420-204,420z"/>
	</defs>
	<clipPath id="SVGID_2_">
		<use xlink:href="#SVGID_1_"  style="overflow:visible;"/>
	</clipPath>
	<g id="flag" class="st0">
		<rect id="rect124" x="-269.4" y="366.5" class="st1" width="72.7" height="54.5"/>
		<g id="g584" transform="matrix(6.9913 0 0 9.1204 0 -.00002)">
			<path id="path146" class="st2" d="M-38.5,40.2v0.4l6.1,3h0.8v-0.4l-6.1-3L-38.5,40.2C-38.5,40.2-38.5,40.2-38.5,40.2z
				 M-31.7,40.2v0.4l-6.1,3h-0.8v-0.4l6.1-3L-31.7,40.2L-31.7,40.2z"/>
			<path id="path136" class="st2" d="M-35.7,40.2v3.4h1.1v-3.4C-34.6,40.2-35.7,40.2-35.7,40.2z M-38.5,41.3v1.1h6.8v-1.1H-38.5z"/>
			<path id="path141" class="st3" d="M-38.5,41.5v0.7h6.8v-0.7H-38.5z M-35.5,40.2v3.4h0.7v-3.4C-34.8,40.2-35.5,40.2-35.5,40.2z"/>
			<path id="path150" class="st3" d="M-38.5,43.6l2.3-1.1h0.5l-2.3,1.1H-38.5z M-38.5,40.2l2.3,1.1h-0.5l-1.8-0.9V40.2z M-34.5,41.3
				l2.3-1.1h0.5l-2.3,1.1H-34.5z M-31.7,43.6l-2.3-1.1h0.5l1.8,0.9L-31.7,43.6L-31.7,43.6z"/>
		</g>
		<polygon id="polygon589" class="st2" points="-255.1,413.8 -258.2,413.5 -255.5,411.9 -257.3,409.3 -254.3,410.4 -253.4,407.4 
			-253.4,407.4 -252.4,410.4 -249.5,409.3 -251.2,411.9 -248.5,413.5 -251.6,413.8 -251.2,416.9 -253.4,414.6 -255.5,416.9 		"/>
		<g id="g596" transform="matrix(7.1944 0 0 7.1944 -144.62 77.43)">
			<polygon id="polygon590" class="st2" points="-9.6,47.2 -9.9,47.2 -9.6,47 -9.8,46.8 -9.5,46.9 -9.4,46.6 -9.4,46.6 -9.3,46.9 
				-9,46.8 -9.2,47 -8.9,47.2 -9.2,47.2 -9.2,47.5 -9.4,47.3 -9.6,47.5 			"/>
			<polygon id="polygon592" class="st2" points="-9.6,42.7 -9.9,42.6 -9.6,42.5 -9.8,42.2 -9.5,42.3 -9.4,42 -9.4,42 -9.3,42.3 
				-9,42.2 -9.2,42.5 -8.9,42.6 -9.2,42.7 -9.2,43 -9.4,42.8 -9.6,43 			"/>
			<polygon id="polygon593" class="st2" points="-11.3,44.5 -11.6,44.5 -11.3,44.3 -11.5,44.1 -11.2,44.2 -11.1,43.9 -11.1,43.9 
				-11,44.2 -10.7,44.1 -10.9,44.3 -10.6,44.5 -10.9,44.5 -10.9,44.8 -11.1,44.6 -11.3,44.8 			"/>
			<polygon id="polygon594" class="st2" points="-8.1,44.1 -8.4,44 -8.1,43.9 -8.3,43.6 -8,43.7 -7.9,43.4 -7.9,43.4 -7.8,43.7 
				-7.5,43.6 -7.7,43.9 -7.4,44 -7.7,44.1 -7.7,44.4 -7.9,44.1 -8.1,44.4 			"/>
			<polygon id="polygon595" class="st2" points="-8.4,45 -8.6,45.1 -8.5,45.3 -8.7,45.2 -8.9,45.3 -8.8,45.1 -9,45 -8.8,45 
				-8.7,44.8 -8.7,44.8 -8.6,45 			"/>
		</g>
	</g>
</g>
</svg>
