<?xml version="1.0" encoding="utf-8"?>
<!-- Generator: Adobe Illustrator 19.0.0, SVG Export Plug-In . SVG Version: 6.00 Build 0)  -->
<svg version="1.1" id="Layer_1" xmlns="http://www.w3.org/2000/svg" xmlns:xlink="http://www.w3.org/1999/xlink" x="0px" y="0px"
	 viewBox="-269 374 72 46" style="enable-background:new -269 374 72 46;" xml:space="preserve">
<style type="text/css">
	.st0{clip-path:url(#SVGID_2_);}
	.st1{fill:#FFFFFF;}
	.st2{fill:#004288;}
</style>
<g>
	<defs>
		<path id="SVGID_1_" d="M-204,420H-262c-3.8,0-7-3.1-7-7V381c0-3.8,3.1-7,7-7h58.1c3.8,0,7,3.1,7,7V413
			C-197,416.9-200.1,420-204,420z"/>
	</defs>
	<clipPath id="SVGID_2_">
		<use xlink:href="#SVGID_1_"  style="overflow:visible;"/>
	</clipPath>
	<g class="st0">
		<g>
			<polygon class="st1" points="-279,404.9 -187,404.9 -187,389.2 -279,389.2 			"/>
		</g>
		<g>
			<path d="M-186.9,405.1h-92.2v-16h92.2V405.1z M-278.9,404.8h91.7v-15.5h-91.7V404.8z"/>
		</g>
		<g>
			<polygon class="st2" points="-233,394.4 -233.6,396.2 -235.5,396.2 -234,397.4 -234.6,399.3 -233,398.1 -231.4,399.3 -232,397.4 
				-230.5,396.3 -232.4,396.3 			"/>
		</g>
		<g>
			<polygon class="st2" points="-226.6,390.4 -227.2,392.2 -229.1,392.2 -227.6,393.4 -228.2,395.3 -226.6,394.1 -225.1,395.3 
				-225.7,393.4 -224.1,392.2 -226,392.2 			"/>
		</g>
		<g>
			<polygon class="st2" points="-226.6,398.4 -226,400.3 -224.1,400.3 -225.7,401.4 -225.1,403.3 -226.6,402.1 -228.2,403.3 
				-227.6,401.4 -229.1,400.3 -227.2,400.3 			"/>
		</g>
		<g>
			<polygon class="st2" points="-239.4,390.4 -238.8,392.2 -236.9,392.2 -238.4,393.4 -237.8,395.3 -239.4,394.1 -240.9,395.3 
				-240.3,393.4 -241.9,392.2 -240,392.2 			"/>
		</g>
		<g>
			<polygon class="st2" points="-239.4,398.4 -240,400.3 -241.9,400.3 -240.3,401.4 -240.9,403.3 -239.4,402.1 -237.8,403.3 
				-238.4,401.4 -236.9,400.3 -238.8,400.3 			"/>
		</g>
		<g>
			<polygon class="st2" points="-187,404.9 -279,404.9 -279,420.7 -187,420.7 			"/>
		</g>
		<g>
			<path d="M-186.9,420.8h-92.2v-16h92.2V420.8z M-278.9,420.5h91.7v-15.5h-91.7V420.5z"/>
		</g>
		<g>
			<polygon class="st2" points="-187,389.2 -279,389.2 -279,373.5 -187,373.5 			"/>
		</g>
		<g>
			<path d="M-186.9,389.4h-92.2v-16h92.2V389.4z M-278.9,389.1h91.7v-15.5h-91.7V389.1z"/>
		</g>
	</g>
</g>
</svg>
