<?xml version="1.0" encoding="utf-8"?>
<!-- Generator: Adobe Illustrator 19.0.0, SVG Export Plug-In . SVG Version: 6.00 Build 0)  -->
<svg version="1.1" id="Layer_1" xmlns="http://www.w3.org/2000/svg" xmlns:xlink="http://www.w3.org/1999/xlink" x="0px" y="0px"
	 viewBox="-269 374 72 46" style="enable-background:new -269 374 72 46;" xml:space="preserve">
<style type="text/css">
	.st0{clip-path:url(#SVGID_2_);}
	.st1{fill:#E30520;}
	.st2{fill:#0077BD;}
	.st3{fill:#FFFFFF;}
	.st4{fill:#005496;}
	.st5{fill:#FFEC00;}
</style>
<g>
	<defs>
		<path id="SVGID_1_" d="M-204,420H-262c-3.8,0-7-3.1-7-7V381c0-3.8,3.1-7,7-7h58.1c3.8,0,7,3.1,7,7V413
			C-197,416.9-200.1,420-204,420z"/>
	</defs>
	<clipPath id="SVGID_2_">
		<use xlink:href="#SVGID_1_"  style="overflow:visible;"/>
	</clipPath>
	<g class="st0">
		<g>
			<rect x="-280.2" y="373.3" class="st1" width="94.8" height="15.8"/>
			<path d="M-185.3,389.2h-95v-16h95V389.2z M-280.1,389h94.5v-15.5h-94.5V389z"/>
		</g>
		<g>
			<rect x="-280.2" y="404.9" class="st2" width="94.8" height="15.8"/>
			<path d="M-185.3,420.8h-95v-16h95V420.8z M-280.1,420.6h94.5V405h-94.5V420.6z"/>
		</g>
		<g>
			<rect x="-280.2" y="389.1" class="st3" width="94.8" height="15.8"/>
			<path d="M-185.3,405h-95v-16h95V405z M-280.1,404.8h94.5v-15.5h-94.5V404.8z"/>
		</g>
		<g>
			<g>
				<path class="st3" d="M-232.8,387c3.4,0,6.6,0.7,9.5,1.9l2-4.8l-1.8-2.8l-2.8,1.1l-2-2.2l-2.6,1.5l-2.3-1.9l-2.3,1.9l-2.6-1.5
					l-2,2.2l-2.8-1.1l-1.8,2.8l2,4.8C-239.4,387.7-236.2,387-232.8,387z"/>
				<path d="M-223.3,389.1L-223.3,389.1c-3-1.3-6.2-2-9.5-2c-3.3,0-6.5,0.7-9.4,1.9l-0.1,0l0-0.1l-2-4.8l1.9-2.9l2.8,1.1l2-2.2l0,0
					l2.5,1.5l2.3-1.9l2.3,1.9l2.6-1.5l0,0l1.9,2.2l2.8-1.1l0,0l1.8,2.9l0,0L-223.3,389.1z M-232.8,387c3.3,0,6.4,0.6,9.4,1.9
					l1.9-4.7l-1.8-2.8l-2.8,1.1l0,0l-1.9-2.2l-2.6,1.5l0,0l-2.3-1.9l-2.3,1.9l0,0l-2.5-1.5l-2,2.2l0,0l-2.7-1.1l-1.8,2.8l1.9,4.7
					C-239.3,387.6-236.1,387-232.8,387z"/>
			</g>
			<g>
				<path class="st3" d="M-223,389c0,0,0,8.1,0,10c0,5.4-4.4,9.8-9.8,9.8s-9.8-4.4-9.8-9.8c0-1.9,0-10,0-10S-223,389-223,389z"/>
				<path d="M-232.8,408.9c-5.5,0-9.9-4.4-9.9-9.9v-10.1h19.8V399C-222.9,404.5-227.4,408.9-232.8,408.9z M-242.6,389v10
					c0,5.4,4.4,9.8,9.8,9.8c5.4,0,9.8-4.4,9.8-9.8v-10H-242.6z"/>
			</g>
			<g>
				<path class="st1" d="M-223.5,389.5c0,0,0,7.8,0,9.6c0,5.2-4.2,9.4-9.4,9.4c-5.2,0-9.4-4.2-9.4-9.4c0-1.8,0-9.6,0-9.6
					C-242.2,389.5-223.5,389.5-223.5,389.5z"/>
				<path d="M-232.8,408.4c-5.2,0-9.4-4.2-9.4-9.4l0-8.9c0-0.8,0-0.8,0.1-0.8h18.7c0.1,0,0.1,0,0.1,0.8v8.9
					C-223.4,404.2-227.6,408.4-232.8,408.4z M-242.1,389.5c0,0.5,0,4.4,0,7v2.5c0,5.1,4.2,9.3,9.3,9.3c5.1,0,9.3-4.2,9.3-9.3v-2.5
					c0-2.6,0-6.4,0-7H-242.1z"/>
			</g>
			<g>
				<g>
					<rect x="-234.6" y="400.7" class="st3" width="3.7" height="3.7"/>
					<path d="M-230.9,404.5h-3.8v-3.9h3.8V404.5z M-234.6,404.4h3.5v-3.6h-3.5V404.4z"/>
				</g>
				<g>
					<rect x="-234.6" y="393.2" class="st3" width="3.7" height="3.7"/>
					<path d="M-230.9,397h-3.8v-3.9h3.8V397z M-234.6,396.9h3.5v-3.6h-3.5V396.9z"/>
				</g>
				<g>
					<rect x="-231" y="396.9" class="st3" width="3.7" height="3.7"/>
					<path d="M-227.2,400.8h-3.9v-3.9h3.9V400.8z M-230.9,400.6h3.6V397h-3.6V400.6z"/>
				</g>
				<g>
					<rect x="-231" y="389.5" class="st3" width="3.7" height="3.7"/>
					<path d="M-227.2,393.3h-3.9v-3.9h3.9V393.3z M-230.9,393.1h3.6v-3.6h-3.6V393.1z"/>
				</g>
				<g>
					<rect x="-227.2" y="393.2" class="st3" width="3.7" height="3.7"/>
					<path d="M-223.4,397h-3.9v-3.9h3.9V397z M-227.2,396.9h3.6v-3.6h-3.6V396.9z"/>
				</g>
				<g>
					<rect x="-238.5" y="396.9" class="st3" width="3.8" height="3.7"/>
					<path d="M-234.6,400.8h-4v-3.9h4V400.8z M-238.4,400.6h3.7V397h-3.7V400.6z"/>
				</g>
				<g>
					<rect x="-238.5" y="389.5" class="st3" width="3.8" height="3.7"/>
					<path d="M-234.6,393.3h-4v-3.9h4V393.3z M-238.4,393.1h3.7v-3.6h-3.7V393.1z"/>
				</g>
				<g>
					<rect x="-242.2" y="393.2" class="st3" width="3.7" height="3.7"/>
					<path d="M-238.4,397h-3.9v-3.9h3.9V397z M-242.1,396.9h3.6v-3.6h-3.6V396.9z"/>
				</g>
				<g>
					<path class="st3" d="M-234.6,408.2v-3.7h-3.8l0,2.1C-237.4,407.3-236,407.9-234.6,408.2z"/>
					<path d="M-234.6,408.3L-234.6,408.3c-1.5-0.3-2.9-0.9-3.9-1.7l0,0l0-2.2h4V408.3z M-238.4,406.5c1,0.8,2.4,1.4,3.7,1.6v-3.6
						h-3.7L-238.4,406.5z"/>
				</g>
				<g>
					<path class="st3" d="M-242.1,400.7l3.6,0v3.7l-2,0C-241.2,403.3-241.8,402.1-242.1,400.7z"/>
					<path d="M-238.4,404.5l-2.1,0l0,0c-0.8-1.1-1.4-2.4-1.6-3.8l0-0.1h3.7V404.5z M-240.4,404.4l1.9,0v-3.6h-3.5
						C-241.7,402.1-241.2,403.3-240.4,404.4z"/>
				</g>
				<g>
					<path class="st3" d="M-231,408.2v-3.7h3.7l0,2.1C-228.3,407.3-229.6,407.9-231,408.2z"/>
					<path d="M-231,408.3v-3.9h3.9l0,2.2l0,0C-228.3,407.4-229.6,408-231,408.3L-231,408.3z M-230.9,404.5v3.6
						c1.3-0.3,2.5-0.8,3.6-1.6l0-2H-230.9z"/>
				</g>
				<g>
					<path class="st3" d="M-223.6,400.7l-3.6,0v3.7l2,0C-224.4,403.3-223.9,402.1-223.6,400.7z"/>
					<path d="M-227.3,404.5v-3.9h3.7l0,0.1c-0.2,1.4-0.8,2.6-1.6,3.8l0,0L-227.3,404.5z M-227.2,400.8v3.6l1.9,0
						c0.8-1.1,1.3-2.3,1.5-3.6H-227.2z"/>
				</g>
			</g>
			<g>
				<path class="st4" d="M-236.6,387c0.6-0.1,1.3-0.2,1.9-0.2l-0.4-4.7l-2.5-1.5l-2,2.2l1.1,4.6C-237.9,387.2-237.3,387.1-236.6,387
					z"/>
				<path d="M-238.5,387.5L-238.5,387.5l-1.1-4.7l0,0l2-2.2l0,0l2.6,1.5l0,0l0.4,4.8l-0.1,0c-0.6,0.1-1.3,0.1-1.9,0.2l0,0
					C-237.2,387.2-237.9,387.3-238.5,387.5L-238.5,387.5z M-239.5,382.8l1.1,4.5c0.6-0.1,1.2-0.3,1.8-0.4l0,0
					c0.6-0.1,1.2-0.2,1.8-0.2l-0.4-4.6l-2.5-1.4L-239.5,382.8z"/>
			</g>
			<g>
				<path class="st2" d="M-240.3,387.9c0.6-0.2,1.2-0.4,1.8-0.5l-1.1-4.6l-2.7-1.1l-1.6,2.5l1.8,4.3
					C-241.5,388.3-240.9,388.1-240.3,387.9z"/>
				<path d="M-242.2,388.6l-1.8-4.4l1.6-2.5l2.8,1.1l0,0l1.1,4.6l-0.1,0c-0.6,0.1-1.2,0.3-1.8,0.5l0,0
					C-240.9,388.2-241.5,388.4-242.2,388.6L-242.2,388.6z M-243.8,384.2l1.8,4.3c0.6-0.2,1.1-0.4,1.7-0.6l0,0
					c0.6-0.2,1.2-0.4,1.8-0.5l-1.1-4.5l-2.7-1L-243.8,384.2z"/>
			</g>
			<g>
				<path class="st2" d="M-232.8,386.7c0.6,0,1.3,0,1.9,0.1l0.4-4.7l-2.3-1.9l-2.3,1.9l0.4,4.7
					C-234.1,386.7-233.5,386.7-232.8,386.7z"/>
				<path d="M-230.9,386.9L-230.9,386.9c-1.3-0.1-2.6-0.1-3.9,0l-0.1,0l-0.4-4.8l0,0l2.3-1.9l2.3,1.9l0,0L-230.9,386.9z M-235,382.1
					l0.4,4.6c1.2-0.1,2.5-0.1,3.7,0l0.4-4.6l-2.2-1.8L-235,382.1z"/>
			</g>
			<g>
				<path class="st4" d="M-229,387c-0.6-0.1-1.3-0.2-1.9-0.2l0.4-4.7l2.5-1.5l2,2.2l-1.1,4.6C-227.8,387.2-228.4,387.1-229,387z"/>
				<path d="M-227.1,387.5L-227.1,387.5c-0.7-0.2-1.3-0.3-1.9-0.4l0,0c-0.6-0.1-1.3-0.2-1.9-0.2l-0.1,0l0.4-4.8l2.6-1.5l0,0l2,2.2
					l0,0L-227.1,387.5z M-229,387c0.6,0.1,1.2,0.2,1.8,0.4l1.1-4.5l-1.9-2.1l-2.5,1.4l-0.4,4.6C-230.3,386.8-229.6,386.9-229,387
					L-229,387z"/>
			</g>
			<g>
				<path class="st2" d="M-225.3,387.9c-0.6-0.2-1.2-0.4-1.8-0.5l1.1-4.6l2.7-1.1l1.6,2.5l-1.8,4.3
					C-224.1,388.3-224.7,388.1-225.3,387.9z"/>
				<path d="M-223.5,388.6L-223.5,388.6c-0.6-0.3-1.2-0.5-1.8-0.7l0,0c-0.6-0.2-1.2-0.4-1.8-0.5l-0.1,0l0-0.1l1.1-4.6l2.8-1.1l0,0
					l1.6,2.5l0,0L-223.5,388.6z M-227.1,387.3c0.6,0.1,1.2,0.3,1.8,0.5l0,0c0.6,0.2,1.2,0.4,1.7,0.6l1.8-4.3l-1.5-2.4l-2.7,1
					L-227.1,387.3z"/>
			</g>
			<g>
				<path class="st3" d="M-222.3,385.6l-1,2.3c-1.2-0.5-2.5-0.9-3.7-1.2l0.6-2.4C-225,384.6-223.7,385.1-222.3,385.6z"/>
				<path d="M-223.3,388L-223.3,388c-1.3-0.5-2.5-0.9-3.8-1.2l-0.1,0l0.6-2.6l0.1,0c1.4,0.3,2.8,0.8,4.1,1.3l0.1,0l0,0.1L-223.3,388
					z M-226.9,386.7c1.2,0.3,2.4,0.7,3.6,1.2l0.9-2.2c-1.3-0.5-2.6-1-4-1.3L-226.9,386.7z"/>
			</g>
			<g>
				<path class="st1" d="M-222.5,386.1c-1.3-0.5-2.7-1-4-1.3l-0.4,1.5c1.3,0.3,2.6,0.7,3.8,1.2L-222.5,386.1z"/>
				<path d="M-223.1,387.6L-223.1,387.6c-1.3-0.5-2.6-1-3.8-1.3l-0.1,0l0.4-1.6l0.1,0c1.4,0.3,2.7,0.8,4,1.3l0.1,0l0,0.1
					L-223.1,387.6z M-226.8,386.2c1.2,0.3,2.5,0.7,3.7,1.2l0.5-1.3c-1.2-0.5-2.6-0.9-3.9-1.3L-226.8,386.2z"/>
			</g>
			<g>
				<path class="st1" d="M-239,385.1c1.4-0.3,2.7-0.5,4.1-0.6l0.1,1.2c-1.3,0.1-2.6,0.3-3.9,0.6L-239,385.1z"/>
				<path d="M-238.8,386.4l-0.3-1.3l0.1,0c1.3-0.3,2.7-0.5,4.1-0.6l0.1,0l0.1,1.3l-0.1,0C-236.1,385.8-237.5,386.1-238.8,386.4
					L-238.8,386.4z M-239,385.2l0.2,1c1.3-0.3,2.5-0.5,3.8-0.6l-0.1-1.1C-236.3,384.7-237.7,384.9-239,385.2z"/>
			</g>
			<g>
				<path class="st1" d="M-235,383.3c-1.4,0.1-2.9,0.3-4.3,0.7l-0.3-1.2c1.5-0.4,3-0.6,4.5-0.7L-235,383.3z"/>
				<path d="M-239.4,384.1l-0.3-1.3l0.1,0c1.5-0.4,3-0.6,4.5-0.7l0.1,0l0,0.1l0.1,1.3l-0.1,0C-236.5,383.5-237.9,383.7-239.4,384.1
					L-239.4,384.1z M-239.5,382.9l0.2,1c1.4-0.3,2.8-0.5,4.2-0.7l-0.1-1.1C-236.6,382.3-238.1,382.5-239.5,382.9z"/>
			</g>
			<g>
				<polygon class="st5" points="-241.4,384.5 -241.3,384 -240.9,383.8 -241.2,383.5 -241.1,383 -241.6,383.2 -242,382.8 
					-242.1,383.3 -242.6,383.5 -242.2,383.8 -242.3,384.3 -241.8,384.2 				"/>
				<path d="M-241.4,384.5l-0.4-0.4l-0.5,0.2l0.1-0.5l-0.4-0.4l0.5-0.2l0.1-0.5l0.4,0.4l0.5-0.2l-0.1,0.5l0.4,0.4l-0.5,0.2
					L-241.4,384.5z M-241.8,384.1L-241.8,384.1l0.3,0.3l0.1-0.5l0,0l0.4-0.1l-0.3-0.3l0,0l0.1-0.4l-0.4,0.1l0,0l-0.3-0.3l-0.1,0.5
					l0,0l-0.4,0.1l0.3,0.3l0,0l-0.1,0.4L-241.8,384.1z"/>
			</g>
			<g>
				<polygon class="st5" points="-224.2,384.5 -224.3,384 -224.8,383.8 -224.4,383.5 -224.5,383 -224.1,383.2 -223.7,382.8 
					-223.6,383.3 -223.1,383.5 -223.5,383.8 -223.4,384.3 -223.9,384.2 				"/>
				<path d="M-224.3,384.5L-224.3,384.5l-0.1-0.5l-0.5-0.2l0.4-0.4l-0.1-0.5l0.5,0.2l0.4-0.4l0,0.1l0.1,0.5l0.5,0.2l-0.4,0.4
					l0.1,0.5l-0.5-0.2L-224.3,384.5z M-224.8,383.8l0.4,0.1l0.1,0.5l0.3-0.3l0,0l0.4,0.1l-0.1-0.5l0.3-0.3l-0.4-0.1l-0.1-0.5
					l-0.3,0.3l0,0l-0.4-0.1l0.1,0.5L-224.8,383.8z"/>
			</g>
			<g>
				<path class="st3" d="M-240,385c0.1,0.1,0.1,0.2,0.1,0.3c0.2,0.7-0.1,1.4-0.8,1.6c-0.7,0.2-1.4-0.1-1.6-0.8
					c0-0.1-0.1-0.2-0.1-0.3c0.3,0.5,0.9,0.7,1.5,0.5C-240.3,386.1-240,385.5-240,385z"/>
				<path d="M-241.1,386.9c-0.5,0-1.1-0.3-1.2-0.9c0-0.1-0.1-0.2-0.1-0.3l0.1,0c0.3,0.5,0.9,0.7,1.4,0.5c0.5-0.2,0.9-0.7,0.8-1.3
					l0.1,0c0.1,0.1,0.1,0.2,0.1,0.3c0.2,0.7-0.2,1.4-0.8,1.6C-240.8,386.9-240.9,386.9-241.1,386.9z M-242.3,385.8
					c0,0.1,0,0.1,0,0.2c0.2,0.6,0.9,1,1.6,0.8c0.6-0.2,1-0.9,0.8-1.6c0-0.1,0-0.1-0.1-0.2c0,0.5-0.4,1-0.9,1.2
					C-241.4,386.4-242,386.3-242.3,385.8z"/>
			</g>
			<g>
				<g>
					<path class="st5" d="M-232.8,385.5c0.1,0,0.1-0.1,0.1-0.1c0-0.1,0-0.1,0.1-0.1s0.1,0.1,0.2,0.1c-0.1,0,0-0.1,0-0.2
						c0,0.1,0.1,0.1,0.2,0c0-0.1-0.1-0.2,0-0.2c0.1,0.1,0.2,0,0.2,0c0-0.1,0-0.2,0-0.2c0.1,0,0.1-0.1,0.1-0.1c0-0.1-0.1-0.1-0.2-0.1
						c0.1,0,0.1-0.1,0.1-0.1c-0.1,0-0.1,0-0.2,0c-0.1,0-0.1-0.1-0.1-0.1c0.1,0,0.1-0.1,0.1-0.2c0,0-0.1,0-0.2,0.1
						c-0.1-0.1-0.2-0.2-0.4-0.2c-0.2,0-0.3,0.1-0.4,0.2c0,0-0.1,0-0.2-0.1c0,0.1,0,0.2,0.1,0.2c0.1,0.1,0,0.1-0.1,0.1
						c0,0-0.1,0-0.2,0c0,0.1,0,0.1,0.1,0.1c0,0.1-0.1,0-0.2,0.1c0.1,0,0.1,0.1,0.1,0.1c0,0-0.1,0.1,0,0.2c0,0,0.1,0,0.2,0
						c0,0,0,0.1,0,0.2c0.1,0,0.2,0,0.2,0c-0.1,0.1,0,0.2,0,0.2c0.1,0,0.2,0,0.2-0.1c0,0,0.1,0,0.1,0.1
						C-232.9,385.4-233,385.5-232.8,385.5z"/>
					<path d="M-232.8,385.5c-0.1,0-0.1,0-0.1-0.1c0,0,0,0,0,0l0,0l0,0c0,0,0-0.1,0-0.1c0,0,0,0,0,0c0,0-0.1,0.1-0.2,0.1l-0.1,0
						l0.1-0.1c0,0,0,0,0-0.1c0,0,0,0,0-0.1c-0.1,0-0.1,0-0.2,0l0,0l0,0c0,0,0-0.1,0-0.1c0,0-0.1,0-0.1,0c0,0,0,0,0,0l0,0l0-0.1
						c0-0.1,0-0.1,0-0.2c0,0,0,0,0,0c0,0,0,0,0,0l0,0l0,0c0-0.1,0.1-0.1,0.1-0.1c0,0,0,0,0,0c0,0-0.1-0.1-0.1-0.1l0-0.1l0.1,0
						c0,0,0.1,0,0.1,0l0,0c0.1,0,0.1,0,0.1,0l0,0c0,0,0,0,0,0c-0.1-0.1-0.1-0.2-0.1-0.3l0-0.1l0,0c0,0,0,0,0.1,0c0,0,0.1,0,0.1,0
						c0.1-0.1,0.2-0.1,0.4-0.1s0.3,0.1,0.4,0.1c0,0,0.1,0,0.1,0c0,0,0,0,0.1,0l0,0l0,0.1c0,0,0,0.2-0.1,0.3c0,0,0,0,0,0
						c0,0,0,0,0.1,0l0,0c0,0,0.1,0,0.1,0l0.1,0l0,0.1c0,0.1,0,0.1-0.1,0.1c0,0,0,0,0,0c0,0,0.1,0,0.1,0.1l0,0l0,0c0,0,0,0,0,0
						c0,0,0,0,0,0c0,0,0,0,0,0c0,0.1,0,0.1,0,0.2l0,0.1l0,0c0,0,0,0,0,0c0,0-0.1,0-0.1,0c0,0,0,0.1,0,0.1l0,0l0,0c0,0-0.1,0-0.2,0
						c0,0,0,0,0,0.1c0,0,0,0,0,0.1l0.1,0.1l-0.1,0c-0.1,0-0.2,0-0.2-0.1c0,0,0,0,0,0c0,0,0,0,0,0.1l0,0l0,0c0,0,0,0,0,0
						C-232.7,385.5-232.8,385.5-232.8,385.5z M-232.9,385.4C-232.9,385.4-232.9,385.4-232.9,385.4c0.1,0.1,0.1,0.1,0.1,0.1
						c0,0,0.1,0,0.1,0c0,0,0,0,0,0c0,0,0-0.1,0-0.1c0,0,0.1,0,0.1,0c0,0,0,0,0.1,0c0,0,0,0,0,0c0,0,0-0.1,0-0.1l0,0c0,0,0.1,0,0.1,0
						c0-0.1-0.1-0.1,0-0.2l0,0l0,0c0,0,0.1,0,0.1,0c0,0,0,0,0.1,0c0,0,0-0.1,0-0.1l0-0.1c0,0,0,0,0,0c0,0,0,0,0,0c0,0,0,0-0.1,0
						c0,0-0.1,0-0.1-0.1l0,0l0,0c0,0,0.1,0,0.1-0.1c0,0,0,0,0,0c0,0-0.1,0-0.1,0l0,0c0,0-0.1,0-0.1-0.1c0,0,0,0,0-0.1
						c0,0,0-0.1,0-0.2c0,0,0,0,0,0c0,0-0.1,0-0.1,0l0,0l0,0c-0.1-0.1-0.2-0.1-0.4-0.1s-0.3,0.1-0.4,0.1l0,0l0,0c0,0,0,0-0.1,0
						c0,0,0,0,0,0c0,0.1,0,0.1,0,0.2c0,0,0,0.1,0,0.1c0,0-0.1,0.1-0.1,0.1l0,0c0,0-0.1,0-0.1,0c0,0,0,0,0,0c0,0,0,0.1,0.1,0.1l0,0
						l0,0c0,0-0.1,0-0.1,0.1c0,0,0,0-0.1,0c0,0,0,0,0,0c0,0,0,0,0,0l0,0.1c0,0,0,0.1,0,0.1c0,0,0,0,0.1,0c0,0,0.1,0,0.1,0l0,0l0,0
						c0,0,0,0.1,0,0.2c0,0,0.1,0,0.1,0l0,0c0,0,0,0.1,0,0.1c0,0,0,0,0,0c0.1,0,0.1,0,0.1,0C-233,385.3-233,385.3-232.9,385.4
						C-233,385.3-232.9,385.3-232.9,385.4z"/>
				</g>
				<g>
					<path class="st5" d="M-232.8,384.2c0.1,0,0.3,0.1,0.3,0c0-0.1,0.1-0.2,0.2-0.3c0.1,0,0-0.1,0-0.1c0,0-0.1,0-0.1,0c0,0,0,0,0,0
						c0,0-0.1,0-0.1,0.1c0,0,0,0-0.1,0c-0.1,0-0.1,0,0-0.1s0-0.1-0.1-0.1c-0.1,0-0.1-0.1-0.1-0.1c0,0,0-0.1-0.1-0.1
						c-0.1,0-0.1,0.1-0.1,0.1c0,0,0,0.1-0.1,0.1c-0.1,0-0.1,0.1-0.1,0.1c0,0,0,0.1,0,0.1c-0.1,0-0.1,0-0.1,0c0-0.1-0.1-0.1-0.1-0.1
						c0,0,0,0,0,0c0,0,0-0.1-0.1,0c0,0,0,0.1,0,0.1c0.1,0,0.2,0.2,0.2,0.3C-233.1,384.3-233,384.2-232.8,384.2z"/>
					<path d="M-232.6,384.3c0,0-0.1,0-0.1,0c-0.1,0-0.1,0-0.2,0s-0.1,0-0.2,0c-0.1,0-0.2,0-0.2,0c0-0.1-0.1-0.2-0.2-0.3
						s-0.1-0.1-0.1-0.1c0,0,0-0.1,0-0.1c0,0,0,0,0.1,0c0,0,0,0,0,0.1c0,0,0,0,0,0c0,0,0.1,0,0.1,0.1c0,0,0,0.1,0,0.1c0,0,0,0,0,0
						c0,0,0,0,0,0c0,0,0,0,0,0c0,0,0-0.1,0-0.1c0,0,0.1-0.1,0.1-0.1c0,0,0,0,0,0c0,0,0,0,0,0c0,0,0-0.1,0-0.1c0,0,0,0,0.1,0
						c0.1,0,0.1,0,0.1,0c0,0,0,0.1,0,0.1c0,0,0,0,0,0c0,0,0,0,0,0c0,0,0.1,0,0.1,0.1c0,0,0,0.1,0,0.1c0,0,0,0,0,0c0,0,0,0,0,0
						c0,0,0,0,0,0c0,0,0-0.1,0-0.1c0,0,0.1-0.1,0.1-0.1c0,0,0,0,0,0c0,0,0-0.1,0-0.1c0,0,0,0,0.1,0c0,0,0,0,0,0.1c0,0,0,0.1-0.1,0.1
						C-232.4,384-232.5,384.2-232.6,384.3C-232.5,384.3-232.5,384.3-232.6,384.3z M-233.3,384c0.1,0.1,0.2,0.2,0.2,0.3
						c0,0,0.1,0,0.1,0c0.1,0,0.1,0,0.2,0s0.1,0,0.2,0c0,0,0.1,0,0.1,0c0,0,0.1-0.2,0.2-0.3c0,0,0,0,0,0c0,0-0.1,0-0.1,0
						c0,0,0,0,0,0.1c0,0,0,0,0,0c0,0,0,0-0.1,0c0,0-0.1,0-0.1-0.1c0,0,0,0,0-0.1c0,0,0,0,0,0c0,0,0,0,0,0c-0.1,0-0.1,0-0.1,0
						c0,0,0-0.1,0-0.1c0,0,0,0,0,0c0,0,0,0,0,0c0,0,0,0,0,0c0,0,0,0,0,0c0,0,0,0,0,0.1c0,0,0,0-0.1,0c0,0,0,0,0,0c0,0,0,0,0,0
						c0,0,0,0,0,0.1c0,0,0,0-0.1,0.1c-0.1,0-0.1,0-0.1,0c0,0,0,0,0,0c0,0,0,0,0-0.1C-233.2,384-233.2,384-233.3,384
						C-233.3,384-233.3,384-233.3,384z"/>
				</g>
				<g>
					<path class="st5" d="M-234.1,383.7c0.1,0,0.1-0.1,0.1-0.1c0-0.1,0-0.1,0.1-0.1s0.1,0.1,0.2,0.1c-0.1,0,0-0.1,0-0.2
						c0,0.1,0.1,0.1,0.2,0c0-0.1-0.1-0.2,0-0.2c0.1,0.1,0.2,0,0.2,0c0-0.1,0-0.2,0-0.2c0.1,0,0.1-0.1,0.1-0.1c0-0.1-0.1-0.1-0.2-0.1
						c0.1,0,0.1-0.1,0.1-0.1c-0.1,0-0.1,0-0.2,0c-0.1,0-0.1-0.1-0.1-0.1c0.1,0,0.1-0.1,0.1-0.2c0,0-0.1,0-0.2,0.1
						c-0.1-0.1-0.2-0.2-0.4-0.2c-0.2,0-0.3,0.1-0.4,0.2c0,0-0.1,0-0.2-0.1c0,0.1,0,0.2,0.1,0.2c0.1,0.1,0,0.1-0.1,0.1
						c0,0-0.1,0-0.2,0c0,0.1,0,0.1,0.1,0.1c0,0.1-0.1,0-0.2,0.1c0.1,0,0.1,0.1,0.1,0.1c0,0-0.1,0.1,0,0.2c0,0,0.1,0,0.2,0
						c0,0,0,0.1,0,0.2c0.1,0,0.2,0,0.2,0c-0.1,0.1,0,0.2,0,0.2c0.1,0,0.2,0,0.2-0.1c0,0,0.1,0,0.1,0.1
						C-234.1,383.6-234.2,383.7-234.1,383.7z"/>
					<path d="M-234.1,383.7c-0.1,0-0.1,0-0.1-0.1c0,0,0,0,0,0l0,0l0,0c0,0,0-0.1,0-0.1c0,0,0,0,0,0c0,0-0.1,0.1-0.2,0.1l-0.1,0
						l0.1-0.1c0,0,0,0,0-0.1c0,0,0,0,0-0.1c-0.1,0-0.1,0-0.2,0l0,0l0,0c0,0,0-0.1,0-0.1c0,0-0.1,0-0.1,0c0,0,0,0,0,0l0,0l0-0.1
						c0-0.1,0-0.1,0-0.2c0,0,0,0,0,0c0,0,0,0,0,0c0,0,0,0,0,0l0,0l0,0c0-0.1,0.1-0.1,0.1-0.1c0,0,0,0,0,0c0,0-0.1-0.1-0.1-0.1l0-0.1
						l0.1,0c0,0,0.1,0,0.1,0l0,0c0.1,0,0.1,0,0.1,0l0,0c0,0,0,0,0,0c-0.1-0.1-0.1-0.2-0.1-0.3l0-0.1l0,0c0,0,0,0,0.1,0
						c0,0,0.1,0,0.1,0c0.1-0.1,0.2-0.1,0.4-0.1s0.3,0.1,0.4,0.1c0,0,0.1,0,0.1,0c0,0,0,0,0.1,0l0,0l0,0.1c0,0.1,0,0.2-0.1,0.3
						c0,0,0,0,0,0c0,0,0,0,0.1,0l0,0c0,0,0.1,0,0.1,0l0.1,0l0,0.1c0,0.1,0,0.1-0.1,0.1c0,0,0,0,0,0c0,0,0.1,0,0.1,0.1l0,0l0,0
						c0,0,0,0,0,0c0,0,0,0,0,0c0,0,0,0,0,0c0,0,0,0.1,0,0.2l0,0.1l0,0c0,0,0,0-0.1,0c0,0-0.1,0-0.1,0c0,0,0,0.1,0,0.1l0,0l0,0
						c0,0-0.1,0-0.2,0c0,0,0,0,0,0.1c0,0,0,0,0,0.1l0.1,0.1l-0.1,0c-0.1,0-0.2,0-0.2-0.1c0,0,0,0,0,0c0,0,0,0,0,0.1l0,0l0,0
						c0,0,0,0,0,0C-234,383.7-234,383.7-234.1,383.7z M-234.2,383.6C-234.2,383.6-234.1,383.6-234.2,383.6c0.1,0.1,0.1,0.1,0.1,0.1
						s0.1,0,0.1,0c0,0,0,0,0,0c0,0,0-0.1,0-0.1c0,0,0.1,0,0.1,0c0,0,0.1,0,0.1,0c0,0,0,0,0,0c0,0,0-0.1,0-0.1l0,0c0,0,0.1,0.1,0.1,0
						c0-0.1-0.1-0.2,0-0.2l0,0l0,0c0,0,0.1,0,0.1,0c0,0,0,0,0.1,0c0,0,0-0.1,0-0.1l0-0.1c0,0,0,0,0,0c0,0,0,0,0,0c0,0,0,0-0.1,0
						c0,0-0.1,0-0.1-0.1l0,0l0,0c0,0,0.1,0,0.1-0.1c0,0,0,0,0,0c0,0-0.1,0-0.1,0l0,0c0,0-0.1,0-0.1-0.1c0,0,0,0,0-0.1
						c0,0,0-0.1,0-0.2c0,0,0,0,0,0c0,0-0.1,0-0.1,0l0,0l0,0c-0.1-0.1-0.2-0.1-0.4-0.1s-0.3,0.1-0.4,0.1l0,0l0,0c0,0,0,0-0.1,0
						c0,0,0,0,0,0c0,0.1,0,0.1,0,0.2c0,0,0,0.1,0,0.1c0,0-0.1,0.1-0.1,0.1l0,0c0,0-0.1,0-0.1,0c0,0,0,0,0,0c0,0,0,0.1,0.1,0.1l0,0
						l0,0c0,0-0.1,0-0.1,0.1c0,0,0,0-0.1,0c0,0,0,0,0,0c0,0,0,0,0,0l0,0.1c0,0,0,0.1,0,0.1c0,0,0,0,0.1,0c0,0,0.1,0,0.1,0l0,0l0,0
						c0,0,0,0.1,0,0.2c0,0,0,0,0,0c0,0,0.1,0,0.1,0l0,0c0,0,0,0.1,0,0.1c0,0,0,0,0,0c0,0,0.1,0,0.1,0
						C-234.3,383.5-234.2,383.5-234.2,383.6C-234.2,383.5-234.2,383.5-234.2,383.6z"/>
				</g>
				<g>
					<path class="st5" d="M-234.1,382.4c0.1,0,0.3,0.1,0.3,0c0-0.1,0.1-0.2,0.2-0.3c0.1,0,0-0.1,0-0.1c0,0-0.1,0-0.1,0c0,0,0,0,0,0
						c0,0-0.1,0-0.1,0.1c0,0,0,0-0.1,0c-0.1,0-0.1,0,0-0.1c0,0,0-0.1-0.1-0.1c-0.1,0-0.1-0.1-0.1-0.1c0,0,0-0.1-0.1-0.1
						s-0.1,0.1-0.1,0.1c0,0,0,0.1-0.1,0.1c-0.1,0-0.1,0.1-0.1,0.1c0,0,0,0.1,0,0.1c-0.1,0-0.1,0-0.1,0c0-0.1-0.1-0.1-0.1-0.1
						c0,0,0,0,0,0c0,0,0-0.1-0.1,0c0,0,0,0.1,0,0.1c0.1,0,0.2,0.2,0.2,0.3C-234.4,382.5-234.2,382.4-234.1,382.4z"/>
					<path d="M-233.8,382.5c0,0-0.1,0-0.1,0c-0.1,0-0.1,0-0.2,0s-0.1,0-0.2,0c-0.1,0-0.2,0-0.2,0c0-0.1-0.1-0.2-0.2-0.3
						c0,0-0.1-0.1-0.1-0.1c0,0,0-0.1,0-0.1c0,0,0,0,0.1,0c0,0,0,0,0,0.1c0,0,0,0,0,0c0,0,0.1,0,0.1,0.1c0,0,0,0.1,0,0.1c0,0,0,0,0,0
						c0,0,0,0,0,0c0,0,0,0,0,0c0,0,0-0.1,0-0.1c0,0,0.1-0.1,0.1-0.1c0,0,0,0,0,0c0,0,0,0,0,0c0,0,0-0.1,0-0.1c0,0,0,0,0.1,0
						s0.1,0,0.1,0c0,0,0,0.1,0,0.1c0,0,0,0,0,0c0,0,0,0,0,0c0,0,0.1,0,0.1,0.1c0,0,0,0.1,0,0.1c0,0,0,0,0,0c0,0,0,0,0,0c0,0,0,0,0,0
						c0,0,0-0.1,0-0.1c0,0,0.1-0.1,0.1-0.1c0,0,0,0,0,0c0,0,0-0.1,0-0.1c0,0,0,0,0.1,0c0,0,0,0,0,0.1c0,0,0,0.1-0.1,0.1
						C-233.6,382.2-233.7,382.4-233.8,382.5C-233.8,382.5-233.8,382.5-233.8,382.5z M-234.5,382.1c0.1,0.1,0.2,0.2,0.2,0.3
						c0,0,0,0,0,0c0,0,0.1,0,0.1,0c0.1,0,0.1,0,0.2,0s0.1,0,0.2,0c0,0,0.1,0,0.1,0c0,0,0.1-0.2,0.2-0.3c0,0,0,0,0,0c0,0-0.1,0-0.1,0
						c0,0,0,0,0,0.1c0,0,0,0,0,0c0,0,0,0-0.1,0c0,0-0.1,0-0.1-0.1c0,0,0,0,0-0.1c0,0,0,0,0,0c0,0,0,0,0,0c-0.1,0-0.1,0-0.1,0
						c0,0,0-0.1,0-0.1c0,0,0,0,0,0c0,0-0.1,0-0.1,0c0,0,0,0,0,0c0,0,0,0,0,0.1c0,0,0,0-0.1,0c0,0,0,0,0,0c0,0,0,0,0,0c0,0,0,0,0,0.1
						c0,0,0,0-0.1,0.1c-0.1,0-0.1,0-0.1,0c0,0,0,0,0,0c0,0,0,0,0-0.1C-234.4,382.2-234.5,382.1-234.5,382.1
						C-234.5,382.1-234.5,382.1-234.5,382.1z"/>
				</g>
				<g>
					<path class="st5" d="M-231.6,383.7c-0.1,0-0.1-0.1-0.1-0.1c0-0.1,0-0.1-0.1-0.1c0,0-0.1,0.1-0.2,0.1c0.1,0,0-0.1,0-0.2
						c0,0.1-0.1,0.1-0.2,0c0-0.1,0.1-0.2,0-0.2c-0.1,0.1-0.2,0-0.2,0c0-0.1,0-0.2,0-0.2c-0.1,0-0.1-0.1-0.1-0.1
						c0-0.1,0.1-0.1,0.2-0.1c-0.1,0-0.1-0.1-0.1-0.1c0.1,0,0.1,0,0.2,0c0.1,0,0.1-0.1,0.1-0.1c-0.1,0-0.1-0.1-0.1-0.2
						c0,0,0.1,0,0.2,0.1c0.1-0.1,0.2-0.2,0.4-0.2c0.2,0,0.3,0.1,0.4,0.2c0,0,0.1,0,0.2-0.1c0,0.1,0,0.2-0.1,0.2
						c-0.1,0.1,0,0.1,0.1,0.1c0,0,0.1,0,0.2,0c0,0.1,0,0.1-0.1,0.1c0,0.1,0.1,0,0.2,0.1c-0.1,0-0.1,0.1-0.1,0.1c0,0,0.1,0.1,0,0.2
						c0,0-0.1,0-0.2,0c0,0,0,0.1,0,0.2c-0.1,0-0.2,0-0.2,0c0.1,0.1,0,0.2,0,0.2c-0.1,0-0.2,0-0.2-0.1s-0.1,0-0.1,0.1
						C-231.5,383.6-231.5,383.7-231.6,383.7z"/>
					<path d="M-231.6,383.7c-0.1,0-0.1,0-0.1-0.1c0,0,0,0,0,0c0,0,0,0,0,0l0,0l0,0c0,0,0-0.1,0-0.1c0,0,0,0,0,0c0,0-0.1,0.1-0.2,0.1
						l-0.1,0l0.1-0.1c0,0,0,0,0-0.1c0,0,0,0,0-0.1c-0.1,0-0.1,0-0.2,0l0,0l0,0c0,0,0-0.1,0-0.1c0,0-0.1,0-0.1,0c0,0,0,0-0.1,0l0,0
						l0-0.1c0-0.1,0-0.1,0-0.2c0,0,0,0,0,0c0,0,0,0,0,0c0,0,0,0,0,0l0,0l0,0c0-0.1,0.1-0.1,0.1-0.1c0,0,0,0,0,0c0,0-0.1-0.1-0.1-0.1
						l0-0.1l0.1,0c0,0,0.1,0,0.1,0l0,0c0.1,0,0.1,0,0.1,0l0,0c0,0,0,0,0,0c-0.1,0-0.1-0.2-0.1-0.3l0-0.1l0,0c0,0,0,0,0.1,0
						c0,0,0.1,0,0.1,0c0.1-0.1,0.2-0.1,0.4-0.1c0.2,0,0.3,0.1,0.4,0.1c0,0,0.1,0,0.1,0c0,0,0,0,0.1,0l0,0l0,0.1c0,0,0,0.2-0.1,0.3
						c0,0,0,0,0,0c0,0,0,0,0.1,0l0,0c0,0,0.1,0,0.1,0l0.1,0l0,0.1c0,0.1,0,0.1-0.1,0.1c0,0,0,0,0,0c0,0,0.1,0,0.1,0.1l0,0l0,0
						c0,0,0,0,0,0c0,0,0,0,0,0c0,0.1,0,0.1,0,0.2l0,0.1l0,0c0,0,0,0,0,0c0,0-0.1,0-0.1,0c0,0,0,0.1,0,0.1l0,0l0,0c0,0-0.1,0-0.2,0
						c0,0,0,0,0,0.1c0,0,0,0,0,0.1l0.1,0.1l-0.1,0c-0.1,0-0.2,0-0.2-0.1c0,0,0,0,0,0c0,0,0,0,0,0.1l0,0l0,0c0,0,0,0,0,0
						C-231.5,383.7-231.5,383.7-231.6,383.7z M-231.7,383.6C-231.7,383.6-231.7,383.6-231.7,383.6c0.1,0.1,0.1,0.1,0.1,0.1
						c0,0,0.1,0,0.1,0c0,0,0,0,0,0c0,0,0-0.1,0-0.1c0,0,0.1,0,0.1,0c0,0,0.1,0,0.1,0c0,0,0,0,0,0c0,0,0-0.1,0-0.1l0,0
						c0,0,0.1,0,0.1,0c0-0.1-0.1-0.1,0-0.2l0,0l0,0c0,0,0.1,0,0.1,0c0,0,0,0,0.1,0c0,0,0-0.1,0-0.1l0-0.1c0,0,0,0,0,0c0,0,0,0,0,0
						c0,0,0,0-0.1,0c0,0-0.1,0-0.1-0.1l0,0l0,0c0,0,0.1,0,0.1-0.1c0,0,0,0,0,0c0,0-0.1,0-0.1,0l0,0c0,0-0.1,0-0.1-0.1c0,0,0,0,0-0.1
						c0,0,0-0.1,0-0.2c0,0,0,0,0,0c0,0-0.1,0-0.1,0l0,0l0,0c-0.1-0.1-0.2-0.1-0.4-0.1c-0.1,0-0.3,0.1-0.4,0.1l0,0l0,0c0,0,0,0-0.1,0
						c0,0,0,0,0,0c0,0.1,0,0.1,0,0.2c0,0,0,0.1,0,0.1c0,0-0.1,0.1-0.1,0.1l0,0c0,0-0.1,0-0.1,0c0,0,0,0,0,0c0,0,0,0.1,0.1,0.1l0,0
						l0,0c0,0-0.1,0-0.1,0.1c0,0,0,0-0.1,0c0,0,0,0,0,0c0,0,0,0,0,0l0,0.1c0,0,0,0.1,0,0.1c0,0,0,0,0.1,0c0,0,0.1,0,0.1,0l0,0l0,0
						c0,0,0,0.1,0,0.2c0.1,0,0.1,0,0.1,0l0,0c0,0,0,0.1,0,0.1c0,0,0,0,0,0c0.1,0,0.1,0,0.1,0C-231.8,383.5-231.8,383.5-231.7,383.6
						C-231.7,383.5-231.7,383.5-231.7,383.6z"/>
				</g>
				<g>
					<path class="st5" d="M-231.6,382.4c-0.1,0-0.3,0.1-0.3,0c0-0.1-0.1-0.2-0.2-0.3c-0.1,0,0-0.1,0-0.1c0,0,0.1,0,0.1,0
						c0,0,0,0,0,0c0,0,0.1,0,0.1,0.1c0,0,0,0,0.1,0c0.1,0,0.1,0,0-0.1c0,0,0-0.1,0.1-0.1c0.1,0,0.1-0.1,0.1-0.1c0,0,0-0.1,0.1-0.1
						c0.1,0,0.1,0.1,0.1,0.1c0,0,0,0.1,0.1,0.1c0.1,0,0.1,0.1,0.1,0.1c0,0,0,0.1,0,0.1c0.1,0,0.1,0,0.1,0c0-0.1,0.1-0.1,0.1-0.1
						c0,0,0,0,0,0c0,0,0-0.1,0.1,0c0,0,0,0.1,0,0.1c-0.1,0-0.2,0.2-0.2,0.3C-231.3,382.5-231.5,382.4-231.6,382.4z"/>
					<path d="M-231.3,382.5c0,0-0.1,0-0.1,0c0,0-0.1,0-0.2,0c0,0-0.1,0-0.2,0c-0.1,0-0.2,0-0.2,0c0-0.1-0.1-0.2-0.2-0.3
						c0,0-0.1,0-0.1-0.1c0,0,0-0.1,0-0.1c0,0,0,0,0.1,0c0,0,0,0,0,0.1c0,0,0,0,0,0c0,0,0.1,0,0.1,0.1c0,0,0,0.1,0,0.1c0,0,0,0,0,0
						c0,0,0,0,0,0c0,0,0,0,0,0c0,0,0-0.1,0-0.1c0,0,0.1-0.1,0.1-0.1c0,0,0,0,0,0c0,0,0,0,0,0c0,0,0-0.1,0-0.1c0,0,0,0,0.1,0
						c0.1,0,0.1,0,0.1,0c0,0,0,0.1,0,0.1c0,0,0,0,0,0c0,0,0,0,0,0c0,0,0.1,0,0.1,0.1c0,0,0,0.1,0,0.1c0,0,0,0,0,0c0,0,0,0,0,0
						c0,0,0,0,0,0c0,0,0-0.1,0-0.1c0,0,0.1-0.1,0.1-0.1c0,0,0,0,0,0c0,0,0-0.1,0-0.1c0,0,0,0,0.1,0c0,0,0,0,0,0.1c0,0,0,0.1-0.1,0.1
						C-231.1,382.2-231.2,382.4-231.3,382.5C-231.3,382.5-231.3,382.5-231.3,382.5z M-232.1,382.1c0.1,0.1,0.2,0.2,0.2,0.3
						c0,0,0,0,0,0c0,0,0.1,0,0.1,0c0.1,0,0.1,0,0.2,0s0.1,0,0.2,0c0,0,0.1,0,0.1,0c0,0,0.1-0.2,0.2-0.3c0,0,0,0,0,0c0,0-0.1,0-0.1,0
						c0,0,0,0,0,0.1c0,0,0,0,0,0c0,0,0,0-0.1,0c0,0-0.1,0-0.1-0.1c0,0,0,0,0-0.1c0,0,0,0,0,0c0,0,0,0,0,0c-0.1,0-0.1,0-0.1,0
						c0,0,0-0.1,0-0.1c0,0,0,0,0,0c0,0-0.1,0-0.1,0c0,0,0,0,0,0c0,0,0,0,0,0.1c0,0,0,0-0.1,0c0,0,0,0,0,0c0,0,0,0,0,0c0,0,0,0,0,0.1
						c0,0,0,0-0.1,0.1c-0.1,0-0.1,0-0.1,0c0,0,0,0,0,0c0,0,0,0,0-0.1C-232,382.2-232,382.1-232.1,382.1
						C-232,382.1-232,382.1-232.1,382.1z"/>
				</g>
			</g>
			<g>
				<g>
					<g>
						<path d="M-233.3,384.7c0,0,0,0.1,0,0.1c0,0,0.1,0.1,0,0.1c0,0-0.1,0-0.1,0C-233.4,384.8-233.4,384.7-233.3,384.7z"/>
					</g>
					<g>
						<path d="M-232.8,384.5C-232.8,384.5-232.8,384.5-232.8,384.5c0.1,0.1,0.1,0.2,0.2,0.2c0.1,0,0.1-0.1,0.1-0.2c0,0,0,0,0.1,0
							c0-0.1,0-0.1,0,0C-232.6,384.5-232.7,384.5-232.8,384.5c0-0.1,0-0.1,0-0.2c0,0,0,0,0,0c0,0,0,0-0.1,0c0,0,0,0-0.1,0
							c0,0,0,0,0,0C-232.9,384.3-232.9,384.4-232.8,384.5c-0.1,0-0.3,0-0.3,0c-0.1-0.1-0.1,0,0,0c0,0,0,0,0.1,0c0,0.1,0,0.2,0.1,0.2
							C-232.9,384.7-232.9,384.6-232.8,384.5C-232.9,384.5-232.9,384.5-232.8,384.5z"/>
					</g>
					<g>
						<path d="M-232.8,385.1c0,0,0.1,0,0.2,0c0,0,0-0.1,0,0C-232.7,385-232.7,385-232.8,385.1C-232.8,385-232.8,385-232.8,385.1
							c0-0.1,0-0.1,0-0.1c0.1,0,0.1,0,0.1-0.1c0-0.1,0-0.1,0,0c0,0-0.1,0-0.1,0s-0.1,0-0.1,0c0-0.1,0-0.1,0,0c0,0.1,0,0.1,0.1,0.1
							C-232.9,384.9-232.9,384.9-232.8,385.1C-232.9,385-232.9,385-232.8,385.1c-0.1,0-0.2,0-0.2-0.1c0,0,0,0,0,0
							C-233,385.1-232.9,385.1-232.8,385.1z"/>
					</g>
					<g>
						<path d="M-232.8,385.2C-232.7,385.2-232.7,385.1-232.8,385.2C-232.9,385.1-232.9,385.2-232.8,385.2z"/>
					</g>
					<g>
						<path d="M-232.8,385.3C-232.8,385.3-232.8,385.2-232.8,385.3C-232.9,385.2-232.9,385.3-232.8,385.3z"/>
					</g>
					<g>
						<path d="M-232.3,384.7c0,0,0,0.1,0,0.1c0,0-0.1,0.1,0,0.1c0,0,0.1,0,0.1,0C-232.3,384.8-232.3,384.7-232.3,384.7z"/>
					</g>
				</g>
				<g>
					<g>
						<path d="M-234.6,382.9c0,0,0,0.1,0,0.1c0,0,0.1,0.1,0,0.1c0,0-0.1,0-0.1,0C-234.6,383-234.6,382.9-234.6,382.9z"/>
					</g>
					<g>
						<path d="M-234.1,382.7C-234,382.7-234,382.7-234.1,382.7c0.1,0.1,0.1,0.2,0.2,0.2c0.1,0,0.1-0.1,0.1-0.2c0,0,0,0,0.1,0
							c0-0.1,0-0.1,0,0C-233.8,382.7-234,382.7-234.1,382.7c0-0.1,0-0.1,0-0.2c0,0,0,0,0,0c0,0,0,0-0.1,0c0,0,0,0-0.1,0c0,0,0,0,0,0
							C-234.1,382.5-234.1,382.6-234.1,382.7c-0.1,0-0.3,0-0.3,0c-0.1-0.1-0.1,0,0,0c0,0,0,0,0.1,0c0,0.1,0,0.2,0.1,0.2
							C-234.2,382.9-234.1,382.8-234.1,382.7C-234.1,382.7-234.1,382.7-234.1,382.7z"/>
					</g>
					<g>
						<path d="M-234.1,383.2c0,0,0.1,0,0.2,0c0,0,0-0.1,0,0C-233.9,383.2-234,383.2-234.1,383.2C-234,383.2-234.1,383.2-234.1,383.2
							c0-0.1,0-0.1,0-0.1c0.1,0,0.1,0,0.1-0.1c0-0.1,0-0.1,0,0c0,0-0.1,0-0.1,0s-0.1,0-0.1,0c0-0.1,0-0.1,0,0c0,0.1,0,0.1,0.1,0.1
							C-234.1,383.1-234.1,383.1-234.1,383.2C-234.1,383.2-234.1,383.2-234.1,383.2c-0.1,0-0.2,0-0.2-0.1c0,0,0,0,0,0
							C-234.2,383.3-234.1,383.2-234.1,383.2z"/>
					</g>
					<g>
						<path d="M-234.1,383.4C-234,383.4-234,383.3-234.1,383.4C-234.2,383.3-234.2,383.4-234.1,383.4z"/>
					</g>
					<g>
						<path d="M-234.1,383.5C-234,383.5-234,383.4-234.1,383.5C-234.1,383.4-234.1,383.5-234.1,383.5z"/>
					</g>
					<g>
						<path d="M-233.6,382.9c0,0,0,0.1,0,0.1c0,0-0.1,0.1,0,0.1c0,0,0.1,0,0.1,0C-233.5,383-233.5,382.9-233.6,382.9z"/>
					</g>
				</g>
				<g>
					<g>
						<path d="M-231.1,382.9c0,0,0,0.1,0,0.1c0,0-0.1,0.1,0,0.1c0,0,0.1,0,0.1,0C-231.1,383-231.1,382.9-231.1,382.9z"/>
					</g>
					<g>
						<path d="M-231.6,382.7C-231.6,382.7-231.7,382.7-231.6,382.7c-0.1,0.1-0.1,0.2-0.2,0.2c-0.1,0-0.1-0.1-0.1-0.2c0,0,0,0-0.1,0
							c0-0.1,0-0.1,0,0C-231.9,382.7-231.7,382.7-231.6,382.7c0-0.1,0-0.1,0-0.2c0,0,0,0,0,0c0,0,0,0,0.1,0c0,0,0,0,0.1,0
							c0,0,0,0,0,0C-231.6,382.5-231.6,382.6-231.6,382.7c0.1,0,0.3,0,0.3,0c0.1-0.1,0.1,0,0,0c0,0,0,0-0.1,0c0,0.1,0,0.2-0.1,0.2
							C-231.5,382.9-231.5,382.8-231.6,382.7C-231.5,382.7-231.6,382.7-231.6,382.7z"/>
					</g>
					<g>
						<path d="M-231.6,383.2c0,0-0.1,0-0.2,0c0,0,0-0.1,0,0C-231.8,383.2-231.7,383.2-231.6,383.2
							C-231.6,383.2-231.6,383.2-231.6,383.2c0-0.1,0-0.1,0-0.1c-0.1,0-0.1,0-0.1-0.1c0-0.1,0-0.1,0,0c0,0,0.1,0,0.1,0s0.1,0,0.1,0
							c0-0.1,0-0.1,0,0c0,0.1,0,0.1-0.1,0.1C-231.6,383.1-231.6,383.1-231.6,383.2C-231.6,383.2-231.6,383.2-231.6,383.2
							c0.1,0,0.2,0,0.2-0.1c0,0,0,0,0,0C-231.5,383.3-231.6,383.2-231.6,383.2z"/>
					</g>
					<g>
						<path d="M-231.6,383.4C-231.7,383.4-231.7,383.3-231.6,383.4C-231.5,383.3-231.5,383.4-231.6,383.4z"/>
					</g>
					<g>
						<path d="M-231.6,383.5C-231.7,383.5-231.7,383.4-231.6,383.5C-231.5,383.4-231.5,383.5-231.6,383.5z"/>
					</g>
					<g>
						<path d="M-232.1,382.9c0,0,0,0.1,0,0.1c0,0,0.1,0.1,0,0.1c0,0-0.1,0-0.1,0C-232.1,383-232.1,382.9-232.1,382.9z"/>
					</g>
				</g>
			</g>
			<g>
				<g>
					<path class="st4" d="M-229.6,383.1c0.6-0.6,1.4,0.2,1.8-0.1c-0.1,0.2-0.4,0.2-0.7,0.1c-0.3-0.1-0.8-0.1-0.9,0.1
						C-229.5,383.2-229.7,383.2-229.6,383.1z"/>
				</g>
				<g>
					<path class="st4" d="M-229.3,383.4c0.2-0.1,0.4-0.2,0.7,0c0.3,0.2,0.8,0.2,0.9,0.1c-0.3,0.1-0.5,0-0.9-0.2
						c-0.3-0.2-0.6-0.2-0.9,0C-229.4,383.3-229.4,383.5-229.3,383.4z"/>
				</g>
			</g>
			<g>
				<g>
					<path class="st1" d="M-229.2,383.3c0,0-0.1,0-0.1,0.1c-0.1,0.1-0.1-0.1-0.1-0.2c0,0,0.1-0.1,0.1-0.1
						C-229.2,383.1-229.1,383.3-229.2,383.3z"/>
				</g>
				<g>
					<path class="st1" d="M-228.3,383.6c0.1,0,0.1,0,0.2,0c0,0,0-0.1,0-0.1c-0.1,0-0.1,0-0.2-0.1
						C-228.2,383.5-228.2,383.6-228.3,383.6z"/>
				</g>
				<g>
					<path class="st1" d="M-228.8,383.3c0.1,0,0.1,0,0.2,0.1c0,0,0.1-0.1,0.1-0.2c-0.1,0-0.1-0.1-0.2-0.1
						C-228.7,383.2-228.7,383.3-228.8,383.3z"/>
				</g>
				<g>
					<path class="st1" d="M-228.9,383.3c-0.1,0-0.1,0-0.2,0c0.1,0,0-0.2-0.1-0.2c0.1,0,0.2,0,0.3,0
						C-228.8,383.1-228.8,383.3-228.9,383.3z"/>
				</g>
				<g>
					<path class="st1" d="M-228.5,383.5c0.1,0,0.1,0.1,0.2,0.1c0,0,0.1-0.1,0.1-0.1c-0.1,0-0.1-0.1-0.2-0.1
						C-228.4,383.3-228.5,383.5-228.5,383.5z"/>
				</g>
				<g>
					<path class="st1" d="M-228,383.6c0.1,0,0.3,0,0.3-0.1C-227.8,383.5-227.9,383.5-228,383.6C-227.9,383.5-227.9,383.6-228,383.6z
						"/>
				</g>
				<g>
					<path class="st1" d="M-228.3,383.1c-0.1,0-0.1,0-0.2,0c0.1,0,0.1-0.1,0-0.2c0.1,0,0.1,0,0.2,0
						C-228.2,383-228.2,383.1-228.3,383.1z"/>
				</g>
				<g>
					<path class="st1" d="M-228.7,383c0.1,0,0.1,0,0.1,0c0,0,0,0,0.1,0c0.1,0,0.1-0.1,0-0.1c-0.1,0-0.1,0-0.2-0.1
						C-228.7,382.9-228.7,383-228.7,383z"/>
				</g>
				<g>
					<path class="st1" d="M-229.1,383c0.1,0,0.1,0,0.2,0c0.1,0,0.1-0.2,0-0.2c-0.1,0-0.2,0-0.2,0C-229,382.8-229,383-229.1,383z"/>
				</g>
				<g>
					<path class="st1" d="M-229.3,383.1c0,0,0.1,0,0.1,0c0.1,0,0-0.2,0-0.2c-0.1,0-0.1,0-0.2,0.1
						C-229.3,382.8-229.3,383-229.3,383.1z"/>
				</g>
				<g>
					<path class="st1" d="M-228.2,383.1c0.1,0,0.2-0.1,0.3-0.2c-0.1,0.1-0.2,0.1-0.3,0.1C-228.1,383-228.1,383.1-228.2,383.1z"/>
				</g>
				<g>
					<path class="st1" d="M-229.4,383.1C-229.4,383.1-229.4,383.1-229.4,383.1c-0.1,0.1-0.3,0.1-0.2,0c0,0,0.1-0.1,0.1-0.1
						C-229.5,382.9-229.4,383.1-229.4,383.1z"/>
				</g>
			</g>
			<g>
				<path class="st5" d="M-229.7,383.1c-0.1,0.2-0.2,0.1-0.3,0.3c0,0,0,0.1-0.2,0c-0.2-0.1-0.2-0.1-0.1,0.1c0,0.1,0.2,0,0.1,0.2
					c-0.1,0.1,0,0.2-0.2,0.3c-0.1,0.1,0.1,0.2,0.2,0.1c0.2-0.1,0.3,0,0.2,0c-0.1,0.1-0.1,0.1,0,0.1c0.1,0,0,0.1,0.1,0.1
					c0.1,0,0.1,0.1,0,0.2c-0.1,0.1-0.3,0.2-0.2,0.2c0.2,0.1,0,0.1,0,0.1c0.1,0,0.1,0.1,0,0.1c-0.1,0,0,0,0,0.1c0,0.1,0,0.2,0,0.4
					c-0.1,0.1-0.1,0.2-0.2,0.3c-0.1,0-0.1,0.1,0,0.1c0,0-0.1,0.1-0.1,0.1c0,0.1,0,0.1,0.1,0.1c0.2,0,0.2,0,0.2-0.1
					c0-0.1,0-0.1,0.1-0.2c0.1,0,0.1-0.1,0.1-0.1c0-0.1,0-0.1,0.1-0.2c0.1-0.1,0.1-0.1,0.1-0.2c0,0,0.1-0.1,0.1,0c0,0,0.1,0,0.2,0
					c0.1,0,0.1,0.1,0,0.1c-0.1,0,0,0.1-0.1,0.1c-0.1,0.1,0.1,0.1-0.1,0.2c-0.1,0.1-0.1,0.2,0,0.2c0,0.1-0.1,0.2-0.1,0.2
					c0,0.1,0,0.1-0.1,0.2c-0.1,0.1,0,0.1,0.1,0.1c0.2,0,0.1-0.1,0.1-0.2c0-0.1,0-0.1,0.1-0.1c0.1,0,0.1-0.1,0.1-0.1
					c0-0.1,0-0.1,0-0.2c0-0.1,0-0.1,0.1-0.1c0.1-0.1,0-0.1,0.2-0.3c0.1-0.1,0.1-0.2,0.2-0.2c0.1,0,0-0.1,0.2,0c0.2,0,0.3,0,0.4,0
					c0,0,0.1,0.1,0,0.1c-0.1,0,0,0.1-0.1,0.2c-0.1,0.1-0.1,0.2-0.1,0.2c0,0.1-0.1,0.1-0.1,0.2c-0.1,0.1-0.1,0.1,0,0.2
					c0.2,0,0.2,0,0.2-0.1c0-0.1,0-0.1,0.1-0.2c0.1-0.1,0.2-0.1,0.2-0.2c0-0.1,0.1-0.2,0.2-0.2c0.1,0,0.1-0.2,0.2-0.2
					c0.1,0,0.2,0.1,0.2,0.2c0,0.1,0,0.2,0,0.3c0,0.1-0.1,0.2-0.1,0.2c0,0.1,0,0.2-0.1,0.2c-0.1,0-0.1,0.2,0.1,0.2
					c0.2,0,0.2-0.1,0.2-0.2c0-0.1,0-0.1,0-0.1c0.1,0,0.1-0.1,0.1-0.1c0-0.1,0.1-0.3,0.3-0.4c0.2-0.1,0-0.1,0-0.2c0,0-0.1-0.2,0-0.2
					c0.1-0.1,0.1-0.1,0-0.1c-0.1,0,0-0.1,0-0.2c0-0.1,0-0.1,0-0.1c-0.1,0-0.1-0.1,0-0.1c0.1-0.1,0.2-0.2,0.1-0.3
					c0.1,0,0.1-0.1,0.1-0.2c0,0-0.1,0-0.1,0c0-0.1,0.1-0.2,0-0.2c-0.1,0.1-0.2,0.2-0.4,0.2c-0.1,0-0.1-0.2-0.3-0.1
					c-0.2,0.1-0.2,0-0.3,0c-0.2,0.1-0.4,0-0.5,0c-0.1,0.1-0.2,0-0.3,0c0,0,0.1-0.1,0.1-0.1c-0.1,0-0.3,0.1-0.3,0
					c0-0.1-0.1-0.2-0.2-0.2c0-0.1-0.1-0.1,0-0.2c0-0.1,0.2,0,0.3-0.1c0-0.1-0.1-0.1-0.3,0c-0.1,0-0.1,0,0-0.1
					c0.1-0.1,0.2-0.1,0.1-0.2c0-0.1-0.1-0.1-0.1,0c-0.1,0-0.1,0-0.1-0.1C-229.4,383.1-229.6,383-229.7,383.1z"/>
				<path d="M-229.7,386.6c-0.1,0-0.1,0-0.2-0.1c0,0,0-0.1,0.1-0.1c0.1,0,0.1-0.1,0.1-0.1c0,0,0,0,0,0c0,0,0-0.1,0-0.1
					c0,0,0-0.1,0-0.1c0,0,0,0,0,0c0-0.1,0-0.2,0.1-0.2c0.1,0,0.1-0.1,0-0.1c0,0,0-0.1,0.1-0.1c0,0,0,0,0,0c0,0,0-0.1,0-0.1
					c0,0,0,0,0,0c0,0,0,0,0,0c0,0,0,0,0,0c0,0,0,0-0.1,0c-0.1,0-0.1,0-0.1,0c0,0,0,0,0,0c0,0,0,0,0,0c0,0,0,0.1-0.1,0.2l0,0
					c-0.1,0.1-0.1,0.1-0.1,0.1c0,0.1,0,0.1-0.1,0.2c0,0-0.1,0,0,0.1c0,0,0,0.1,0,0.1c0,0-0.1,0-0.2,0c0,0,0,0,0,0
					c-0.1,0-0.1,0-0.1,0c0,0,0-0.1,0-0.1l0,0c0,0,0-0.1,0.1-0.1c0,0,0,0,0,0c0,0,0-0.1,0-0.1c0,0,0-0.1,0.1-0.1c0,0,0.1-0.1,0.1-0.1
					c0,0,0-0.1,0.1-0.1c0-0.1,0-0.2,0-0.3c0,0,0-0.1,0-0.1c0,0,0,0,0,0c0,0,0,0,0-0.1c0,0,0,0,0,0c0,0,0,0,0,0c0,0,0,0,0,0
					c0,0,0,0,0,0c0,0,0,0,0-0.1c0,0,0,0,0,0c0,0,0,0,0,0c0,0-0.1,0-0.1-0.1c0-0.1,0.1-0.1,0.2-0.2c0.1,0,0.1-0.1,0.1-0.1
					c0,0,0,0,0,0c0,0,0,0-0.1,0c0,0,0,0,0-0.1c0,0,0,0,0,0c0,0-0.1,0-0.1,0c0,0,0-0.1,0.1-0.2c0,0,0,0,0-0.1c0,0-0.1,0-0.2,0.1
					c-0.1,0.1-0.2,0-0.3,0c0,0,0-0.1,0-0.2c0.1-0.1,0.1-0.1,0.1-0.2c0,0,0-0.1,0.1-0.1c0,0,0-0.1,0-0.1c0,0,0,0-0.1,0
					c0,0-0.1,0-0.1-0.1c-0.1-0.1-0.1-0.1,0-0.2c0,0,0.1,0,0.2,0c0.1,0,0.1,0.1,0.1,0.1h0c0,0,0,0,0,0c0-0.1,0.1-0.1,0.1-0.2
					c0,0,0.1,0,0.1-0.1l0,0c0,0,0.1-0.1,0.1-0.1c0,0,0,0,0,0c0.1,0,0.1,0,0.1,0.1c0,0,0,0.1,0,0.1c0,0,0,0.1,0,0.1c0,0,0,0,0,0
					c0,0,0.1,0,0.1,0c0,0,0.1,0,0.1,0.1c0.1,0.1,0,0.2-0.1,0.2c0,0,0,0,0,0c0,0,0,0,0,0c0,0,0,0,0,0c0.1,0,0.2,0,0.3,0
					c0,0,0,0,0,0.1c0,0.1-0.1,0.1-0.2,0.1c0,0-0.1,0-0.1,0c0,0,0,0.1,0,0.1c0,0,0,0,0,0.1c0,0,0,0.1,0.1,0.1c0,0,0.1,0.1,0.1,0.2
					c0,0,0,0,0,0.1c0.1,0,0.2,0,0.2,0l0.1,0l0,0.1c0,0,0,0,0,0c0,0,0,0,0,0c0.1,0,0.1,0,0.2,0c0.1,0,0.1,0,0.2,0c0.1,0,0.2,0,0.3,0
					c0.1,0,0.1,0,0.1,0c0,0,0.1,0,0.2,0c0.1-0.1,0.2,0,0.2,0c0,0,0,0,0.1,0c0,0,0,0,0,0c0.1,0,0.3,0,0.3-0.1l0-0.1l0,0.1
					c0,0.1,0,0.1,0,0.2c0,0,0,0,0,0c0,0,0,0,0.1,0l0,0l0,0c0,0.1-0.1,0.2-0.1,0.2c0,0.1,0,0.1,0,0.1c0,0.1-0.1,0.2-0.2,0.2
					c0,0,0,0,0,0c0,0,0,0,0,0c0,0,0,0,0,0c0,0,0,0,0.1,0.1c0,0,0,0.1,0,0.1c0,0,0,0.1,0,0.1c0,0,0,0,0,0c0,0,0.1,0,0.1,0.1
					c0,0,0,0.1-0.1,0.1c0,0,0,0,0,0.1c0,0.1,0,0.1,0,0.1c0,0,0,0,0,0c0,0,0.1,0,0.1,0.1c0,0,0,0.1-0.1,0.1c-0.1,0.1-0.2,0.3-0.2,0.4
					c0,0.1,0,0.2-0.1,0.2c0,0,0,0,0,0c0,0,0,0,0,0.1c0,0,0,0.1,0,0.1c0,0-0.1,0.1-0.2,0.1c0,0,0,0,0,0c-0.1,0-0.1,0-0.1-0.1
					c0-0.1,0-0.1,0.1-0.1c0.1,0,0.1-0.1,0.1-0.2c0,0,0-0.1,0-0.1c0,0,0-0.1,0-0.1c0-0.1,0-0.2,0-0.3l0,0c0,0,0-0.1,0-0.1
					c0,0-0.1-0.1-0.1-0.1c0,0,0,0-0.1,0.1c0,0,0,0.1-0.1,0.1c-0.1,0-0.1,0.1-0.1,0.2c0,0.1-0.1,0.2-0.2,0.2c0,0-0.1,0.1-0.1,0.1
					c0,0,0,0.1,0,0.1c0,0-0.1,0-0.2,0c-0.1,0-0.1,0-0.1-0.1c0-0.1,0-0.1,0.1-0.1c0.1,0,0.1-0.1,0.1-0.1c0-0.1,0-0.2,0.1-0.3
					c0,0,0-0.1,0-0.1c0,0,0-0.1,0-0.1c0,0,0,0,0,0c0,0,0,0,0,0c-0.1,0-0.3,0-0.4,0c0,0,0,0,0,0c0,0,0,0-0.1,0c0,0,0,0,0,0
					c0,0-0.1,0.1-0.1,0.1c0,0,0,0,0,0.1c-0.1,0.1-0.1,0.1-0.1,0.2c0,0,0,0.1-0.1,0.1l0,0c0,0,0,0,0,0.1c0,0,0,0.1,0,0.1
					c0,0,0,0.1,0,0.1c0,0,0,0.1,0,0.1c0,0-0.1,0.1-0.1,0.1c0,0-0.1,0-0.1,0c0,0,0,0,0,0l0,0c0,0,0,0.1,0,0.1
					C-229.5,386.6-229.6,386.6-229.7,386.6C-229.6,386.6-229.6,386.6-229.7,386.6z M-229.4,385.3
					C-229.3,385.3-229.3,385.3-229.4,385.3c0.1,0.1,0.1,0.1,0,0.2c0,0,0,0,0,0c0,0,0,0.1,0,0.1c0,0,0,0,0,0.1c0,0,0,0.1-0.1,0.2
					c-0.1,0-0.1,0.1,0,0.2c0,0,0,0,0,0.1c0,0.1,0,0.1,0,0.2c0,0,0,0,0,0.1c0,0,0,0,0,0c0,0.1,0,0.1-0.1,0.2c0,0,0,0,0,0
					c0,0,0,0,0.1,0c0,0,0.1,0,0.1,0c0,0,0-0.1,0-0.1l0,0c0,0,0-0.1,0-0.1c0,0,0.1,0,0.1,0c0,0,0,0,0,0c0,0,0,0,0,0c0,0,0-0.1,0-0.1
					c0,0,0,0,0-0.1c0-0.1,0-0.1,0.1-0.1l0,0c0,0,0,0,0-0.1c0,0,0-0.1,0.1-0.2c0,0,0,0,0-0.1c0-0.1,0.1-0.2,0.2-0.1c0,0,0,0,0,0
					c0,0,0-0.1,0.1,0c0.2,0,0.3,0,0.4,0c0,0,0.1,0,0.1,0c0,0,0,0.1,0,0.1c0,0,0,0,0,0c0,0,0,0.1-0.1,0.1c-0.1,0.1-0.1,0.2-0.1,0.2
					c0,0.1-0.1,0.1-0.2,0.2c0,0-0.1,0.1-0.1,0.1c0,0,0,0,0.1,0c0,0,0,0,0,0c0.1,0,0.1,0,0.1,0c0,0,0,0,0-0.1c0-0.1,0-0.2,0.1-0.2
					c0.1-0.1,0.1-0.1,0.1-0.2c0-0.1,0.1-0.2,0.2-0.3c0,0,0,0,0-0.1c0,0,0-0.1,0.1-0.1c0.1,0,0.1,0,0.2,0.1c0,0,0.1,0.1,0.1,0.2l0,0
					c0,0.1,0,0.2,0,0.2c0,0.1,0,0.1-0.1,0.2c0,0,0,0,0,0.1c0,0.1,0,0.2-0.1,0.2c0,0,0,0,0,0.1c0,0,0.1,0,0.1,0c0.1,0,0.1,0,0.1-0.1
					c0,0,0,0,0-0.1c0,0,0-0.1,0-0.1c0,0,0,0,0.1,0c0.1,0,0.1,0,0.1-0.1c0-0.1,0.1-0.4,0.3-0.5c0.1,0,0.1-0.1,0.1-0.1c0,0,0,0,0,0
					c0,0,0,0,0,0c0,0,0-0.1,0-0.2c0-0.1,0-0.1,0-0.1c0,0,0,0,0,0c0,0,0,0,0,0c0,0,0,0-0.1-0.1c0-0.1,0-0.1,0.1-0.2c0,0,0,0,0,0
					c0,0,0,0,0,0c-0.1,0-0.1-0.1-0.1-0.1c0,0,0-0.1,0.1-0.1c0.1,0,0.1-0.1,0.1-0.1c0,0,0-0.1,0-0.1l0,0l0,0c0,0,0.1-0.1,0.1-0.2
					c0,0-0.1,0-0.1,0l0,0l0,0c0,0,0-0.1,0-0.1c-0.1,0.1-0.2,0.1-0.3,0.1c0,0,0,0,0,0c-0.1,0-0.1,0-0.1-0.1c0,0-0.1-0.1-0.1,0
					c-0.1,0.1-0.2,0-0.2,0c0,0,0,0-0.1,0c-0.1,0.1-0.2,0.1-0.3,0c-0.1,0-0.1,0-0.2,0c-0.1,0-0.1,0-0.2,0c0,0-0.1,0-0.1,0l0,0
					c-0.1,0-0.1,0-0.2,0c0,0-0.1,0-0.1-0.1c0-0.1-0.1-0.1-0.1-0.1c0,0-0.1-0.1-0.1-0.1c0,0,0,0,0,0c0,0,0-0.1,0-0.1
					c0-0.1,0.1-0.1,0.1-0.1c0.1,0,0.1,0,0.1,0c0,0-0.1,0-0.2,0c0,0-0.1,0-0.1,0c0,0,0-0.1,0-0.1c0,0,0,0,0,0
					c0.1-0.1,0.1-0.1,0.1-0.1c0,0,0,0,0,0c0,0,0,0,0,0c0,0,0,0,0,0c0,0-0.1,0-0.1,0c0,0,0-0.1,0-0.1c0,0,0,0,0,0c0,0-0.1,0-0.1,0
					c0,0,0,0,0,0l0,0c-0.1,0.1-0.1,0.1-0.2,0.2c0,0-0.1,0-0.1,0.1c0,0,0,0,0,0.1c0,0-0.1,0-0.2-0.1c-0.1,0-0.1,0-0.1-0.1
					c0,0,0,0,0,0.1c0,0,0,0,0.1,0c0,0,0.1,0,0.1,0.1c0,0,0,0.1,0,0.1c0,0.1,0,0.1-0.1,0.1c0,0.1,0,0.1-0.1,0.2c0,0,0,0.1,0,0.1
					c0,0,0.1,0,0.2,0c0.1-0.1,0.2-0.1,0.3,0c0,0,0,0.1,0,0.1c0,0,0,0.1-0.1,0.1c0,0,0.1,0,0.1,0c0,0,0,0,0,0.1c0,0,0.1,0,0.1,0.1
					c0,0.1,0,0.1-0.1,0.2c-0.1,0-0.2,0.1-0.2,0.1c0,0,0,0,0,0c0.1,0,0.1,0.1,0.1,0.1c0,0,0,0.1,0,0.1c0,0,0,0,0,0c0,0,0.1,0,0.1,0.1
					c0,0,0,0,0,0.1c0,0,0,0,0,0c0,0,0,0,0,0.1c0,0,0,0,0,0.1c0,0.1,0,0.2,0,0.3c0,0,0,0.1-0.1,0.1c0,0.1-0.1,0.1-0.1,0.2
					c0,0,0,0,0,0c0,0,0,0,0,0c0,0,0,0,0,0c0,0,0,0.1-0.1,0.1c0,0,0,0,0,0l0,0c0,0,0,0,0,0c0,0,0,0,0.1,0c0,0,0,0,0,0
					c0.1,0,0.1,0,0.1,0c0,0,0,0,0,0c0-0.1,0-0.2,0.1-0.2c0,0,0.1-0.1,0.1-0.1c0-0.1,0-0.1,0.1-0.2l0,0c0.1-0.1,0.1-0.1,0.1-0.1
					c0,0,0-0.1,0.1-0.1c0,0,0.1,0,0.1,0C-229.5,385.3-229.5,385.3-229.4,385.3C-229.4,385.3-229.4,385.3-229.4,385.3z"/>
			</g>
			<g>
				<g>
					<path d="M-229.5,384.1c0.1,0.1,0,0.1,0,0.2c0,0.1,0.1,0.1,0.1,0C-229.4,384.2-229.4,384.1-229.5,384.1
						C-229.5,384.1-229.5,384.1-229.5,384.1z"/>
				</g>
				<g>
					<path d="M-229.2,384.5c0,0.1-0.1,0.1-0.1,0.3c0,0.1,0.1,0,0.1,0C-229.2,384.6-229.1,384.5-229.2,384.5
						C-229.1,384.4-229.2,384.4-229.2,384.5z"/>
				</g>
				<g>
					<path d="M-229.6,384.7c0,0-0.1,0.1-0.1,0.2c0,0,0.1,0,0.1-0.1C-229.6,384.7-229.5,384.7-229.6,384.7
						C-229.5,384.6-229.5,384.6-229.6,384.7z"/>
				</g>
				<g>
					<path d="M-229.8,385.1c0,0.1,0,0.2,0,0.2c0,0,0,0,0,0C-229.8,385.2-229.8,385.1-229.8,385.1
						C-229.7,385.1-229.8,385-229.8,385.1z"/>
				</g>
				<g>
					<path d="M-229.5,385c0,0.1,0,0.1,0,0.1c0,0.1,0.1,0,0.1,0C-229.5,385-229.5,385-229.5,385C-229.5,384.9-229.5,384.9-229.5,385z
						"/>
				</g>
				<g>
					<path d="M-229,385.1c-0.1,0,0,0.2,0,0.2c0,0,0,0,0-0.1C-229,385.2-229,385.2-229,385.1C-229,385.1-229,385.1-229,385.1z"/>
				</g>
				<g>
					<path d="M-228.8,385c0,0.1,0.1,0.2,0.1,0.2c0.1,0,0.1,0,0,0C-228.7,385.1-228.7,385.1-228.8,385
						C-228.7,385-228.8,385-228.8,385z"/>
				</g>
				<g>
					<path d="M-228.5,384.9c0,0.1,0,0.1,0,0.2c0,0.1,0,0.1,0,0C-228.4,385-228.4,385-228.5,384.9
						C-228.4,384.9-228.5,384.9-228.5,384.9z"/>
				</g>
				<g>
					<path d="M-228.2,385c0,0,0,0.1,0,0.2s0,0,0-0.1C-228.1,385.1-228.2,385.1-228.2,385C-228.1,385-228.1,385-228.2,385z"/>
				</g>
				<g>
					<path d="M-228.8,384.6c0.1,0.1,0.1,0.1,0.1,0.2c0,0,0.1,0,0-0.1C-228.7,384.6-228.7,384.6-228.8,384.6
						C-228.8,384.5-228.8,384.6-228.8,384.6z"/>
				</g>
				<g>
					<path d="M-228.4,384.5C-228.5,384.5-228.5,384.4-228.4,384.5c0.1,0,0.2,0.1,0.2,0.1c0,0.1,0,0.1-0.1,0
						C-228.3,384.6-228.4,384.5-228.4,384.5z"/>
				</g>
				<g>
					<path d="M-227.8,384.9c0,0.1,0,0.3,0.2,0.3c0,0,0,0,0,0C-227.7,385.1-227.8,385-227.8,384.9
						C-227.8,384.9-227.8,384.9-227.8,384.9z"/>
				</g>
				<g>
					<path d="M-227.7,384.6C-227.8,384.6-227.9,384.7-227.7,384.6c0.1,0.1,0.2,0.1,0.2,0c0,0,0.1-0.1,0,0
						C-227.6,384.7-227.7,384.6-227.7,384.6z"/>
				</g>
				<g>
					<path d="M-227.9,384.4c0.1,0,0.2-0.1,0.3,0c0.1,0,0,0.1,0,0.1C-227.7,384.4-227.8,384.4-227.9,384.4
						C-227.9,384.4-228,384.4-227.9,384.4z"/>
				</g>
				<g>
					<path d="M-228.3,385.4c0.1,0,0.1,0,0.2,0c0.1,0,0.1,0.1,0.1,0.1c0,0-0.1,0.1-0.1,0C-228.2,385.4-228.2,385.4-228.3,385.4
						C-228.3,385.4-228.3,385.4-228.3,385.4z"/>
				</g>
				<g>
					<path d="M-227.6,385.5c0,0,0,0.1,0,0.1C-227.6,385.6-227.6,385.6-227.6,385.5C-227.5,385.5-227.5,385.5-227.6,385.5
						C-227.6,385.4-227.7,385.4-227.6,385.5z"/>
				</g>
				<g>
					<path d="M-229.8,383.6C-229.8,383.6-229.8,383.6-229.8,383.6c0.1,0,0.2,0,0.2,0c0,0,0,0,0,0c0,0,0,0-0.1,0
						C-229.7,383.7-229.8,383.7-229.8,383.6C-229.8,383.6-229.8,383.6-229.8,383.6C-229.8,383.7-229.8,383.6-229.8,383.6z"/>
				</g>
			</g>
			<g>
				<g>
					<path class="st1" d="M-230,386c0,0.1,0,0.1-0.2,0.1c-0.2,0-0.1,0-0.1-0.1c0,0,0,0,0-0.1C-230.3,386-230,386-230,386z"/>
					<path d="M-230.2,386.1c-0.1,0-0.1,0-0.1,0c0,0,0-0.1,0-0.1l0,0c0,0,0-0.1,0.1-0.1l0,0c0,0,0,0,0.1,0c0.1,0,0.1,0,0.1,0
						c0,0,0,0,0,0l0.1,0c0,0,0,0.1,0,0.1C-230,386.1-230.1,386.1-230.2,386.1C-230.2,386.1-230.2,386.1-230.2,386.1z"/>
				</g>
				<g>
					<path class="st1" d="M-229.5,386.5c0,0.1,0,0.1-0.1,0.1c-0.2,0-0.2-0.1-0.1-0.1C-229.8,386.5-229.5,386.5-229.5,386.5z"/>
					<path d="M-229.7,386.6c-0.1,0-0.1,0-0.2-0.1c0,0,0-0.1,0.1-0.1l0.1-0.1l0,0.1c0,0,0.1,0,0.1,0c0,0,0,0,0,0l0.1,0
						c0,0,0,0.1,0,0.1C-229.5,386.6-229.6,386.6-229.7,386.6C-229.6,386.6-229.6,386.6-229.7,386.6z"/>
				</g>
				<g>
					<path class="st1" d="M-228.5,386.2c0,0.1,0,0.1-0.2,0.1c-0.2,0-0.1-0.1,0-0.2C-228.7,386.2-228.5,386.2-228.5,386.2z"/>
					<path d="M-228.6,386.3C-228.6,386.3-228.7,386.3-228.6,386.3c-0.1,0-0.2,0-0.2-0.1c0-0.1,0-0.1,0.1-0.1l0,0c0,0,0,0,0,0
						c0,0,0.1,0,0.1,0c0,0,0,0,0,0l0.1,0c0,0,0,0.1,0,0.1C-228.5,386.3-228.6,386.3-228.6,386.3z"/>
				</g>
				<g>
					<path class="st1" d="M-227.7,386.4c0,0.1,0,0.1-0.2,0.2c-0.2,0-0.2-0.1-0.1-0.2C-228,386.4-227.7,386.5-227.7,386.4z"/>
					<path d="M-227.9,386.6c-0.1,0-0.1,0-0.1-0.1c0-0.1,0-0.1,0.1-0.1l0.1-0.1l0,0.1c0,0,0.1,0,0.2,0c0,0,0,0,0,0l0.1,0
						c0,0,0,0.1,0,0.1C-227.7,386.5-227.8,386.5-227.9,386.6C-227.9,386.6-227.9,386.6-227.9,386.6z"/>
				</g>
			</g>
			<g>
				<path d="M-223.8,386.2c-0.3-0.5-1.1-0.5-1.4-0.5c-0.2,0-0.5-0.1-0.5-0.3c0,0-0.1,0-0.1,0c0,0,0-0.1,0-0.1
					c-0.1,0.1-0.3,0.1-0.3,0.1c0,0-0.3,0-0.3,0.1c0,0.1,0.1,0.1,0.1,0.1c0.1,0,0.2,0,0.2,0c0,0,0.1,0.1-0.1,0.1
					c-0.1,0-0.5,0-0.5,0.1c0,0.1,0.1,0.2,0.5,0.1c0,0.1-0.3,0.1-0.3,0.2c0,0.1,0.1,0.1,0.3,0.1c0.4,0,0.4-0.2,0.8-0.1
					c0.2,0.2,0.6,0.3,0.9,0.3c-0.1,0-0.2,0.1-0.3,0.1c-0.1,0-0.1,0.2,0,0.2c0.2,0.1,0.4,0,0.6,0c0,0.1,0.1,0.1,0.2,0.1
					c0.1,0,0.2,0.1,0.2,0.2c0,0.1,0.1,0.3,0.2,0.1c0.1-0.1,0.1-0.4-0.1-0.5c0.2,0,0.4,0,0.5-0.1c0.1-0.1,0.1-0.3-0.3-0.2
					C-223.5,386.3-223.5,386.1-223.8,386.2z"/>
			</g>
			<g>
				<path class="st3" d="M-225.2,386.1c0.2,0.1,0.5,0.2,0.8,0.2c0-0.1-0.1-0.2-0.3-0.2C-224.9,386.1-225.1,386.1-225.2,386.1
					C-225.2,386-225.3,386-225.2,386.1z"/>
			</g>
		</g>
	</g>
</g>
</svg>
