<?xml version="1.0" encoding="utf-8"?>
<!-- Generator: Adobe Illustrator 19.0.0, SVG Export Plug-In . SVG Version: 6.00 Build 0)  -->
<svg version="1.1" id="Layer_1" xmlns="http://www.w3.org/2000/svg" xmlns:xlink="http://www.w3.org/1999/xlink" x="0px" y="0px"
	 viewBox="-269 374 72 46" style="enable-background:new -269 374 72 46;" xml:space="preserve">
<style type="text/css">
	.st0{clip-path:url(#SVGID_2_);}
	.st1{fill:#FFFFFF;}
	.st2{fill:#E40520;}
	.st3{fill:#FFED00;}
</style>
<g>
	<defs>
		<path id="SVGID_1_" d="M-204,420H-262c-3.8,0-7-3.1-7-7V381c0-3.8,3.1-7,7-7h58.1c3.8,0,7,3.1,7,7V413
			C-197,416.9-200.1,420-204,420z"/>
	</defs>
	<clipPath id="SVGID_2_">
		<use xlink:href="#SVGID_1_"  style="overflow:visible;"/>
	</clipPath>
	<g class="st0">
		<g>
			<polygon class="st1" points="-186.4,420.8 -186.4,373.4 -279.6,373.4 -279.6,420.8 			"/>
		</g>
		<g>
			<path d="M-186.3,420.9h-93.5v-47.6h93.5V420.9z M-279.5,420.7h93v-47.1h-93V420.7z"/>
		</g>
		<g>
			<polygon class="st2" points="-279.6,392.4 -237.7,392.4 -237.7,373.4 -228.3,373.4 -228.3,392.4 -186.4,392.4 -186.4,401.9 
				-228.3,401.9 -228.3,420.8 -237.7,420.8 -237.7,401.9 -279.6,401.9 			"/>
		</g>
		<g>
			<path d="M-228.2,420.9h-9.6v-19h-42v-9.7h42v-19h9.6v19h42v9.7h-42V420.9z M-237.5,420.7h9.1v-19h42v-9.2h-42v-19h-9.1v19h-42
				v9.2h42V420.7z"/>
		</g>
		<g>
			<polygon class="st1" points="-233,409.5 -229.5,403.4 -222.5,403.4 -225.9,397.1 -222.5,390.9 -229.5,390.9 -233,384.7 
				-236.5,390.9 -243.5,390.9 -240.1,397.1 -243.5,403.4 -236.5,403.4 			"/>
		</g>
		<g>
			<path d="M-233,409.7L-233,409.7l-3.6-6.2h-7.1l3.5-6.3l-3.5-6.3h7.1l3.6-6.2l3.6,6.2h7.1l-3.5,6.3l3.5,6.3h-7.1L-233,409.7z
				 M-243.4,403.3h6.9l0,0l3.5,6.1l3.5-6.1h6.9l-3.4-6.2l0,0l3.4-6.1h-6.9l0,0l-3.5-6.1l-3.5,6.1h-6.9l3.4,6.2l0,0L-243.4,403.3z"/>
		</g>
		<g>
			<path class="st2" d="M-231.1,400.1c0.3-0.3,0.7-0.6,0.9-1.2c0.2-0.6,0.7-1.3,1.2-1.8c0.5-0.5,1.1-1,0.7-1.5
				c-0.5-0.5-1.5,0.6-1.8,0.9c-0.2,0.2-0.5,0.2-0.8,0.4c0.2-1.5-0.2-2.6-0.2-4.9c0-0.9-0.3-1.6-0.7-1.6c-0.4,0-0.5,0.3-0.6,0.6
				c0-0.5,0-1.3-0.6-1.3c-0.7,0-0.8,1.3-0.7,2.1c0-0.5,0-1.4-0.6-1.4c-0.6,0-0.7,1.1-0.6,2c0,0.1,0,0.3,0,0.6c0-0.5-0.1-1.3-0.6-1.3
				c-0.4,0-0.5,0.7-0.5,1.3c0,0.6,0.1,2,0,2.4c-0.1,0.8-0.1,2.8,0,3.4c0.1,0.8,0.7,1.1,0.7,1.6c0,0.5,0,1.5,0,1.9
				c0,0.4,0.4,0.4,1.1,0.3c1.2-0.3,1.9,0.3,2.9-0.1C-231.4,401.3-231.1,400.5-231.1,400.1L-231.1,400.1z"/>
		</g>
		<g>
			<path d="M-234.8,402.8c-0.2,0-0.3,0-0.4-0.1c-0.1-0.1-0.1-0.2-0.1-0.3c0-0.1,0-0.3,0-0.5c0-0.5,0-1.1,0-1.4
				c0-0.2-0.1-0.4-0.3-0.6c-0.2-0.3-0.4-0.5-0.4-1c0-0.7-0.1-2.7,0-3.5c0.1-0.4,0-1.9,0-2.4c0-0.6,0-1,0.2-1.2
				c0.1-0.1,0.2-0.1,0.3-0.1c0.2,0,0.4,0.1,0.5,0.3c0-0.7,0.1-1.2,0.3-1.5c0.1-0.1,0.2-0.2,0.4-0.2c0.3,0,0.5,0.2,0.6,0.5
				c0-0.4,0.1-0.7,0.3-0.9c0.1-0.1,0.3-0.2,0.4-0.2c0.5,0,0.6,0.5,0.7,1c0.1-0.2,0.3-0.3,0.5-0.3c0,0,0,0,0,0c0.1,0,0.2,0,0.3,0.1
				c0.2,0.2,0.4,0.8,0.4,1.5c0,0.9,0.1,1.7,0.1,2.3c0.1,0.9,0.1,1.6,0.1,2.4c0.1,0,0.2-0.1,0.2-0.1c0.2-0.1,0.3-0.1,0.5-0.2
				c0,0,0.1-0.1,0.1-0.1c0.4-0.4,1.2-1.3,1.8-0.8c0.1,0.1,0.2,0.2,0.2,0.4c0,0.3-0.4,0.7-0.7,1c0,0-0.1,0.1-0.1,0.1
				c-0.5,0.5-1,1.2-1.2,1.8c-0.2,0.6-0.5,0.9-0.8,1.1c0,0-0.1,0.1-0.1,0.1c0,0.2,0,0.4-0.1,0.6c-0.1,0.5-0.2,1.1-0.1,1.8l0,0l0,0
				c-0.5,0.2-1,0.2-1.4,0.1c-0.4-0.1-0.9-0.1-1.4,0C-234.4,402.8-234.6,402.8-234.8,402.8z M-235.4,391.8c-0.1,0-0.2,0-0.2,0.1
				c-0.2,0.2-0.2,0.5-0.2,1.1c0,0.5,0.1,2,0,2.4c-0.1,0.8-0.1,2.8,0,3.4c0,0.4,0.2,0.7,0.4,0.9c0.2,0.2,0.3,0.4,0.3,0.7
				c0,0.4,0,1,0,1.4c0,0.2,0,0.4,0,0.5c0,0.1,0,0.2,0.1,0.2c0.1,0.1,0.4,0.1,0.9,0c0.6-0.1,1-0.1,1.5,0c0.5,0.1,0.9,0.1,1.3-0.1
				c-0.1-0.7,0-1.4,0.1-1.8c0-0.2,0-0.3,0.1-0.4c-0.1,0.1-0.1,0.1-0.1,0.2l-0.1,0c0-0.2,0.1-0.3,0.2-0.4l0,0
				c0.1-0.1,0.1-0.1,0.2-0.2c0.3-0.2,0.6-0.5,0.8-1.1c0.2-0.6,0.7-1.4,1.2-1.9c0,0,0.1-0.1,0.1-0.1c0.3-0.3,0.7-0.7,0.7-0.9
				c0-0.1,0-0.2-0.1-0.3c-0.4-0.4-1.2,0.4-1.6,0.8c0,0-0.1,0.1-0.1,0.1c-0.1,0.1-0.3,0.2-0.5,0.3c-0.1,0-0.2,0.1-0.3,0.1l0,0
				c-0.3,0.1-0.6,0.4-0.8,1.1l-0.1,0c0.3-0.8,0.6-1,0.9-1.2c0.1-0.9,0-1.6-0.1-2.5c-0.1-0.7-0.1-1.4-0.1-2.3c0-0.7-0.1-1.2-0.4-1.4
				c-0.1-0.1-0.2-0.1-0.3-0.1c-0.3,0-0.4,0.2-0.5,0.6h0c-0.1,0.3,0,0.8,0,1.1c0,0.4,0.1,0.8,0,1.2c0,0.1,0,0.2,0,0.3
				c0,0.3,0.1,0.7,0,0.9l-0.1,0c0.1-0.2,0-0.6,0-0.9c0-0.1,0-0.2,0-0.3c0-0.4,0-0.8,0-1.1c0-0.3-0.1-0.8,0-1.1
				c0-0.7-0.1-1.3-0.5-1.3c-0.1,0-0.2,0-0.3,0.2c-0.2,0.3-0.3,0.9-0.3,1.4c0,0.1,0,0.2,0,0.3l0,0.1c0.1,0.5,0,1.2,0,1.8
				c0,0.4,0,0.8,0,1.1l-0.1,0c0-0.3,0-0.7,0-1.1c0-0.6,0-1.3,0-1.8l0,0l0,0c0-0.1,0-0.2,0-0.4c0-0.5-0.2-0.9-0.6-0.9
				c-0.1,0-0.2,0-0.3,0.1c-0.2,0.3-0.3,0.9-0.2,1.8c0,0.1,0,0.2,0,0.4c0,0.1,0,0.2,0,0.2c0,0.6,0,1.5,0,1.8h-0.1c0-0.3,0-1.2,0-1.8
				h0h0c0-0.1,0-0.2,0-0.2C-234.9,392.4-235,391.8-235.4,391.8z"/>
		</g>
		<g>
			<path class="st2" d="M-233,381.4c0.7-0.9,2.6-0.8,3.2-0.2c0.6,0.6,2.3-0.2,3,1.2l-1.1,2.7h-10.2l-1.1-2.7c0.7-1.4,2.4-0.6,3-1.2
				C-235.6,380.6-233.7,380.5-233,381.4L-233,381.4z"/>
		</g>
		<g>
			<path d="M-227.9,385.1h-10.3l0,0l-1.1-2.7l0,0c0.4-0.9,1.3-0.9,2-1c0.4,0,0.8,0,1-0.2c0.3-0.3,1-0.5,1.7-0.4
				c0.4,0,1.1,0.1,1.5,0.6c0.4-0.5,1.1-0.6,1.5-0.6c0.7-0.1,1.4,0.1,1.7,0.4c0.2,0.2,0.6,0.2,1,0.2c0.7,0,1.5,0.1,2,1l0,0l0,0
				L-227.9,385.1z M-238,384.9h10.1l1.1-2.6c-0.4-0.8-1.2-0.8-1.9-0.9c-0.4,0-0.8,0-1.1-0.3c-0.3-0.3-1-0.5-1.6-0.4
				c-0.6,0-1.2,0.3-1.5,0.6l0,0.1l0-0.1c-0.3-0.4-0.8-0.6-1.5-0.6c-0.7,0-1.3,0.1-1.6,0.4c-0.2,0.2-0.7,0.3-1.1,0.3
				c-0.7,0-1.5,0.1-1.9,0.9L-238,384.9z"/>
		</g>
		<g>
			<path class="st3" d="M-233,380.4c0.3,0,0.6,0.2,0.6-0.6c0-0.7-0.3-0.6-0.6-0.6s-0.6-0.2-0.6,0.6
				C-233.6,380.5-233.3,380.4-233,380.4L-233,380.4z"/>
		</g>
		<g>
			<path d="M-232.7,380.4c0,0-0.1,0-0.1,0c-0.1,0-0.2,0-0.3,0c-0.1,0-0.3,0-0.4-0.1c-0.1-0.1-0.1-0.3-0.1-0.6s0-0.5,0.1-0.6
				c0.1-0.1,0.2-0.1,0.4-0.1c0.1,0,0.2,0,0.3,0c0.1,0,0.3,0,0.4,0.1c0.1,0.1,0.1,0.3,0.1,0.6s0,0.5-0.1,0.6
				C-232.5,380.4-232.6,380.4-232.7,380.4z M-233,380.3c0.1,0,0.1,0,0.2,0c0.1,0,0.2,0,0.3,0c0.1-0.1,0.1-0.2,0.1-0.5s0-0.4-0.1-0.5
				c-0.1-0.1-0.2,0-0.3,0c-0.1,0-0.2,0-0.3,0c-0.1,0-0.2,0-0.3,0c-0.1,0.1-0.1,0.2-0.1,0.5s0,0.4,0.1,0.5c0.1,0.1,0.2,0,0.3,0
				C-233.1,380.3-233.1,380.3-233,380.3z"/>
		</g>
		<g>
			<path class="st3" d="M-232.6,377.1c0.3,0,0.6,0.2,0.8,0.3v-1.4c-0.2,0.1-0.5,0.3-0.8,0.3c0-0.3,0.2-0.6,0.3-0.8h-1.3
				c0.1,0.2,0.3,0.5,0.3,0.8c-0.3,0-0.6-0.2-0.8-0.3v1.4c0.2-0.1,0.5-0.3,0.8-0.3c0,0.3-0.2,1.1-0.3,1.3h1.3
				C-232.5,378.2-232.6,377.4-232.6,377.1L-232.6,377.1z"/>
		</g>
		<g>
			<path d="M-232.2,378.5h-1.6l0.1-0.1c0.1-0.2,0.2-0.8,0.3-1.2c-0.3,0-0.5,0.2-0.7,0.3l-0.1,0.1V376l0.1,0.1
				c0.2,0.1,0.4,0.2,0.7,0.3c0-0.3-0.2-0.5-0.3-0.7l-0.1-0.1h1.6l-0.1,0.1c-0.1,0.2-0.2,0.4-0.3,0.7c0.3,0,0.5-0.2,0.7-0.3l0.1-0.1
				v1.6l-0.1-0.1c-0.2-0.1-0.4-0.2-0.7-0.3C-232.5,377.6-232.4,378.2-232.2,378.5L-232.2,378.5z M-233.6,378.3h1.1
				c-0.1-0.3-0.2-1-0.3-1.2l0-0.1l0.1,0c0.2,0,0.5,0.1,0.7,0.2v-1.1c-0.2,0.1-0.5,0.2-0.7,0.2l-0.1,0l0-0.1c0-0.2,0.1-0.5,0.2-0.7
				h-1.1c0.1,0.2,0.2,0.5,0.2,0.7l0,0.1l-0.1,0c-0.2,0-0.5-0.1-0.7-0.2v1.1c0.2-0.1,0.5-0.2,0.7-0.2l0.1,0l0,0.1
				C-233.3,377.4-233.4,378-233.6,378.3z"/>
		</g>
		<g>
			<path class="st3" d="M-233,381.1c0.3,0,0.7,0.4,0.4,1c1-0.4,0.8,1.2,0,0.7c-0.1,0.5,0.5,0.9,1.1,1c0.9,0.2,1.3-0.6,1.2-0.7
				c-0.8,0.2-0.6-1.2,0.2-0.8c-0.1-0.3,0.1-0.7,0.5-0.7c0.4,0.2,0.4,0.5,0.2,0.8c1-0.2,0.7,1.2,0,0.8c-0.1,0.1-0.1,0.7,0.6,0.9
				c0.5,0.2,1-0.1,1.1-0.5c-0.3-0.1-0.5-0.4-0.3-0.7c0.2-0.3,0.6-0.2,0.7,0c0-0.5-0.1-0.8,0-1.2c0.2,0.1,0.6,0.5,0.8,0.6
				c0.2,0.2,0.1,0.4-0.3,0.9c0.2,0.3-0.1,0.7-0.4,0.6c-0.1,0.4-0.2,0.9-0.4,0.9c0,0.4,0,1.2-0.3,1.6c0.6,0.3,0.1,1.2-0.3,1.1
				c-0.7-0.3-2.9-0.5-4.6-0.5c-1.8,0-3.9,0.2-4.6,0.5c-0.4,0.2-0.9-0.8-0.3-1.1c-0.3-0.5-0.3-1.3-0.3-1.6c-0.2,0-0.3-0.5-0.4-0.9
				c-0.3,0.1-0.6-0.3-0.4-0.6c-0.4-0.5-0.5-0.7-0.3-0.9c0.2-0.1,0.6-0.5,0.8-0.6c0.2,0.4,0,0.7,0,1.2c0.1-0.2,0.5-0.3,0.7,0
				c0.2,0.3,0,0.6-0.3,0.7c0,0.4,0.5,0.7,1.1,0.5c0.6-0.2,0.7-0.8,0.6-0.9c-0.7,0.5-1-1,0-0.8c-0.2-0.3-0.2-0.7,0.2-0.8
				c0.4,0,0.6,0.4,0.5,0.7c0.9-0.5,1.1,0.9,0.2,0.8c-0.1,0.2,0.4,0.9,1.2,0.7c0.6-0.1,1.2-0.5,1.1-1c-0.8,0.5-1-1.1,0-0.7
				C-233.7,381.5-233.3,381.1-233,381.1L-233,381.1z"/>
		</g>
		<g>
			<path d="M-228.3,387.6c0,0-0.1,0-0.1,0c-0.7-0.3-2.9-0.5-4.6-0.5c-1.8,0-3.9,0.2-4.6,0.5c-0.2,0.1-0.5-0.1-0.6-0.3
				c-0.1-0.3-0.1-0.6,0.2-0.8c-0.2-0.4-0.3-1.2-0.3-1.6c-0.2-0.1-0.3-0.4-0.4-0.7c0-0.1,0-0.1-0.1-0.2c-0.1,0-0.3,0-0.4-0.2
				c-0.1-0.1-0.2-0.3-0.1-0.5c-0.3-0.4-0.4-0.6-0.4-0.7c0-0.1,0-0.1,0.1-0.2c0.1-0.1,0.2-0.1,0.3-0.2c0.2-0.1,0.4-0.3,0.5-0.4l0.1,0
				l0,0.1c0.1,0.3,0.1,0.5,0.1,0.7c0,0.1,0,0.2,0,0.3c0.1-0.1,0.2-0.1,0.3-0.1c0,0,0,0,0,0c0.2,0,0.3,0.1,0.4,0.2
				c0.1,0.2,0.1,0.3,0,0.5c-0.1,0.1-0.2,0.2-0.3,0.3c0,0.1,0.1,0.3,0.3,0.4c0.2,0.1,0.5,0.2,0.7,0.1c0.4-0.2,0.5-0.4,0.6-0.6
				c0-0.1,0-0.2,0-0.2c-0.2,0.1-0.4,0.1-0.5,0c-0.2-0.1-0.2-0.4-0.1-0.6c0-0.1,0.2-0.3,0.5-0.3c0,0,0,0,0,0
				c-0.1-0.1-0.1-0.3-0.1-0.4c0-0.2,0.2-0.3,0.4-0.4l0,0l0,0c0.2,0,0.4,0.1,0.5,0.3c0.1,0.1,0.1,0.3,0.1,0.4
				c0.2-0.1,0.4-0.1,0.6,0.1c0.2,0.2,0.2,0.4,0.1,0.6c-0.1,0.2-0.3,0.2-0.5,0.2c0,0.1,0.1,0.1,0.1,0.2c0.1,0.1,0.4,0.5,1,0.3
				c0.5-0.1,1-0.5,1.1-0.9c-0.3,0.1-0.4,0-0.5-0.1c-0.2-0.2-0.2-0.5-0.1-0.7c0.1-0.1,0.2-0.2,0.5-0.2c-0.1-0.3-0.1-0.5,0.1-0.7
				c0.1-0.2,0.3-0.3,0.4-0.3s0.3,0.1,0.4,0.3c0.1,0.2,0.1,0.4,0.1,0.7c0.3-0.1,0.5,0.1,0.5,0.2c0.1,0.2,0.1,0.5-0.1,0.7
				c-0.1,0.1-0.2,0.2-0.5,0.1c0,0.4,0.5,0.8,1.1,0.9c0.6,0.1,0.9-0.2,1-0.3c0.1-0.1,0.1-0.2,0.1-0.2c-0.2,0-0.4,0-0.5-0.2
				c-0.1-0.2-0.1-0.5,0.1-0.6c0.1-0.1,0.4-0.2,0.6-0.1c0-0.1,0-0.3,0.1-0.4c0.1-0.1,0.3-0.2,0.5-0.3l0,0l0,0
				c0.2,0.1,0.3,0.2,0.4,0.4c0,0.1,0,0.3-0.1,0.4c0,0,0,0,0,0c0.3,0,0.5,0.2,0.5,0.3c0.1,0.2,0,0.5-0.1,0.6c-0.1,0.1-0.3,0.1-0.5,0
				c0,0,0,0.1,0,0.2c0,0.1,0.1,0.4,0.6,0.6c0.2,0.1,0.5,0.1,0.7-0.1c0.1-0.1,0.2-0.2,0.3-0.4c-0.2,0-0.3-0.1-0.3-0.3
				c-0.1-0.1-0.1-0.3,0-0.5c0.1-0.1,0.2-0.2,0.4-0.2c0,0,0,0,0,0c0.1,0,0.2,0,0.3,0.1c0-0.1,0-0.2,0-0.3c0-0.2-0.1-0.5,0.1-0.7
				l0-0.1l0.1,0c0.1,0.1,0.3,0.3,0.5,0.4c0.1,0.1,0.2,0.2,0.3,0.2c0.1,0.1,0.1,0.1,0.1,0.2c0,0.2-0.1,0.3-0.4,0.7
				c0.1,0.2,0,0.4-0.1,0.5c-0.1,0.1-0.2,0.2-0.4,0.2c0,0.1,0,0.1-0.1,0.2c-0.1,0.3-0.2,0.6-0.4,0.7c0,0.4-0.1,1.1-0.3,1.6
				c0.3,0.2,0.3,0.5,0.2,0.8C-227.9,387.5-228.1,387.6-228.3,387.6z M-238.7,383.8L-238.7,383.8c0,0.2,0.1,0.2,0.1,0.3
				c0.1,0.3,0.2,0.6,0.3,0.6l0.1,0l0,0.1c0,0.4,0,1.2,0.3,1.6l0,0.1l-0.1,0c-0.3,0.1-0.3,0.4-0.2,0.7c0.1,0.2,0.3,0.4,0.4,0.3
				c0.7-0.3,2.9-0.5,4.7-0.5c1.8,0,3.9,0.2,4.7,0.5c0.2,0.1,0.3-0.1,0.4-0.3c0.1-0.2,0.1-0.5-0.2-0.7l-0.1,0l0-0.1
				c0.3-0.4,0.3-1.2,0.3-1.6l0-0.1l0.1,0c0.1,0,0.2-0.3,0.3-0.6c0-0.1,0.1-0.2,0.1-0.3l0-0.1l0.1,0c0.1,0,0.2,0,0.3-0.1
				c0.1-0.1,0.1-0.3,0-0.4l0,0l0,0c0.2-0.3,0.4-0.5,0.4-0.7c0,0,0-0.1-0.1-0.1c-0.1-0.1-0.2-0.2-0.3-0.3c-0.1-0.1-0.3-0.3-0.4-0.3
				c-0.1,0.2,0,0.4,0,0.6c0,0.1,0,0.3,0,0.5l0,0.2l-0.1-0.2c0-0.1-0.2-0.1-0.3-0.1c0,0,0,0,0,0c-0.1,0-0.2,0-0.3,0.2
				c-0.1,0.1-0.1,0.3,0,0.4c0.1,0.1,0.2,0.2,0.3,0.2l0.1,0l0,0.1c0,0.2-0.1,0.4-0.3,0.5c-0.2,0.2-0.5,0.2-0.8,0.1
				c-0.5-0.2-0.6-0.5-0.6-0.6c0-0.2,0-0.3,0-0.4l0,0l0,0c0.2,0.1,0.3,0.1,0.4,0c0.1-0.1,0.2-0.3,0.1-0.5c-0.1-0.2-0.3-0.2-0.5-0.2
				l-0.2,0l0.1-0.1c0.1-0.1,0.1-0.3,0.1-0.4c0-0.1-0.1-0.2-0.3-0.3c-0.2,0-0.3,0.1-0.4,0.2c-0.1,0.1-0.1,0.3,0,0.4l0.1,0.2l-0.1-0.1
				c-0.2-0.1-0.4-0.1-0.6,0c-0.1,0.1-0.2,0.3-0.1,0.5c0.1,0.1,0.2,0.2,0.4,0.1l0.1,0l0,0c0,0.1,0,0.3-0.2,0.4
				c-0.1,0.1-0.5,0.5-1.1,0.4c-0.6-0.1-1.2-0.6-1.2-1.1l0-0.1l0.1,0.1c0.2,0.1,0.3,0.1,0.4,0c0.1-0.1,0.2-0.4,0.1-0.5
				c-0.1-0.1-0.3-0.2-0.5-0.1l-0.2,0.1l0.1-0.1c0.2-0.3,0.1-0.6,0-0.7c-0.1-0.1-0.2-0.2-0.3-0.2s-0.3,0.1-0.3,0.2
				c-0.1,0.1-0.2,0.4,0,0.7l0.1,0.1l-0.2-0.1c-0.2-0.1-0.4-0.1-0.5,0.1c-0.1,0.2-0.1,0.4,0.1,0.5c0.1,0.1,0.3,0.1,0.4,0l0.1-0.1
				l0,0.1c0.1,0.5-0.5,1-1.2,1.1c-0.7,0.1-1-0.3-1.1-0.4c-0.1-0.2-0.2-0.3-0.2-0.4l0,0l0.1,0c0.2,0,0.3,0,0.4-0.1
				c0.1-0.2,0-0.4-0.1-0.5c-0.1-0.1-0.3-0.1-0.6,0l-0.1,0.1l0.1-0.2c0.1-0.2,0-0.3,0-0.4c-0.1-0.1-0.2-0.2-0.4-0.2
				c-0.2,0.1-0.3,0.2-0.3,0.3c0,0.1,0,0.3,0.1,0.4l0.1,0.1l-0.2,0c-0.3,0-0.4,0-0.5,0.2c-0.1,0.2,0,0.4,0.1,0.5
				c0.1,0.1,0.3,0.1,0.4,0l0,0l0,0c0.1,0.1,0.1,0.2,0,0.4c0,0.1-0.2,0.5-0.6,0.6c-0.3,0.1-0.6,0.1-0.8-0.1c-0.2-0.1-0.3-0.3-0.3-0.5
				l0-0.1l0.1,0c0.1,0,0.3-0.1,0.3-0.2c0.1-0.1,0-0.2,0-0.4c-0.1-0.1-0.2-0.2-0.3-0.2c0,0,0,0,0,0c-0.1,0-0.2,0.1-0.3,0.1l-0.1,0.2
				l0-0.2c0-0.2,0-0.3,0-0.5c0-0.2,0-0.4,0-0.6c-0.1,0.1-0.3,0.2-0.4,0.3c-0.1,0.1-0.2,0.2-0.3,0.2c-0.1,0-0.1,0.1-0.1,0.1
				c0,0.1,0.2,0.4,0.4,0.7l0,0l0,0c-0.1,0.1-0.1,0.3,0,0.4C-238.9,383.8-238.8,383.9-238.7,383.8L-238.7,383.8z"/>
		</g>
		<g>
			<path class="st3" d="M-233,380.1c-0.9,0-0.9,1.2,0,1.2C-232.1,381.3-232.1,380.1-233,380.1L-233,380.1z"/>
		</g>
		<g>
			<path d="M-233,381.4c-0.5,0-0.7-0.3-0.7-0.7c0-0.2,0.1-0.3,0.2-0.4c0.1-0.1,0.3-0.2,0.5-0.2c0.5,0,0.7,0.3,0.7,0.7
				C-232.3,381.1-232.5,381.4-233,381.4z M-233,380.2c-0.2,0-0.3,0.1-0.4,0.2c-0.1,0.1-0.1,0.2-0.1,0.4c0,0.3,0.2,0.5,0.6,0.5
				c0.4,0,0.6-0.3,0.6-0.5C-232.4,380.5-232.6,380.2-233,380.2z"/>
		</g>
		<g>
			<path class="st3" d="M-233,378.9c2.6,0,5.6,1.6,6.8,2.8c0.3,0.3-0.1,1-0.5,0.7c-1.2-1.1-3.8-2.6-6.4-2.6c-2.5,0-5.2,1.5-6.4,2.6
				c-0.3,0.3-0.8-0.4-0.5-0.7C-238.6,380.6-235.6,378.9-233,378.9L-233,378.9z"/>
		</g>
		<g>
			<path d="M-226.5,382.6c-0.1,0-0.1,0-0.2-0.1c-1.1-1.1-3.7-2.6-6.3-2.6s-5.2,1.6-6.3,2.6c-0.1,0.1-0.3,0.1-0.5-0.1
				c-0.2-0.2-0.3-0.6,0-0.8c1.2-1.1,4.2-2.8,6.9-2.8s5.6,1.7,6.9,2.8c0.2,0.2,0.1,0.6,0,0.8C-226.3,382.5-226.4,382.6-226.5,382.6z
				 M-233,379.7c2.7,0,5.3,1.6,6.4,2.6c0.1,0.1,0.3,0,0.3-0.1c0.1-0.1,0.2-0.4,0.1-0.6c-1.2-1.1-4.2-2.8-6.8-2.8s-5.6,1.6-6.8,2.8
				c-0.2,0.2-0.1,0.5,0.1,0.6c0.1,0.1,0.2,0.2,0.3,0.1C-238.3,381.3-235.7,379.7-233,379.7z"/>
		</g>
		<g>
			<path class="st2" d="M-236.1,384.8c-0.9,0.2-0.7,1.1,0.2,0.9C-235,385.5-235.2,384.6-236.1,384.8L-236.1,384.8z"/>
		</g>
		<g>
			<path d="M-236.1,385.8c-0.4,0-0.6-0.2-0.6-0.4c0-0.3,0.1-0.6,0.6-0.7l0,0c0.5-0.1,0.8,0.1,0.8,0.4c0,0.3-0.2,0.6-0.6,0.7
				C-236,385.8-236,385.8-236.1,385.8z M-236.1,384.8L-236.1,384.8c-0.4,0.1-0.6,0.3-0.5,0.5c0,0.2,0.3,0.4,0.7,0.3
				c0.4-0.1,0.6-0.3,0.5-0.5C-235.4,384.9-235.6,384.8-236.1,384.8L-236.1,384.8z"/>
		</g>
		<g>
			<path class="st2" d="M-233,385.5c0.5,0,1,0.1,1-0.5c0-0.6-0.4-0.5-1-0.5s-1-0.1-1,0.5S-233.5,385.5-233,385.5L-233,385.5z"/>
		</g>
		<g>
			<path d="M-232.6,385.6c-0.1,0-0.1,0-0.2,0c-0.2,0-0.3,0-0.5,0c-0.3,0-0.5,0-0.7-0.1c-0.1-0.1-0.1-0.2-0.1-0.4
				c0-0.2,0-0.3,0.1-0.4c0.1-0.1,0.4-0.1,0.7-0.1c0.2,0,0.3,0,0.5,0c0.3,0,0.5,0,0.7,0.1c0.1,0.1,0.1,0.2,0.1,0.4
				c0,0.2,0,0.3-0.1,0.4C-232.2,385.6-232.4,385.6-232.6,385.6z M-233,385.4c0.1,0,0.2,0,0.2,0c0.2,0,0.5,0,0.6-0.1
				c0.1-0.1,0.1-0.2,0.1-0.3c0-0.1,0-0.3-0.1-0.3c-0.1-0.1-0.3-0.1-0.6-0.1c-0.2,0-0.3,0-0.5,0c-0.2,0-0.5,0-0.6,0.1
				c-0.1,0.1-0.1,0.2-0.1,0.3c0,0.1,0,0.3,0.1,0.3c0.1,0.1,0.3,0.1,0.6,0.1C-233.2,385.4-233.1,385.4-233,385.4z"/>
		</g>
		<g>
			<path class="st2" d="M-237.6,385.5c-0.5,0.5-0.7,0.9-0.8,0.2C-238.5,385-238.1,385.3-237.6,385.5L-237.6,385.5z"/>
		</g>
		<g>
			<path d="M-238.2,386.1C-238.2,386.1-238.2,386.1-238.2,386.1c-0.2,0-0.2-0.2-0.3-0.4c0-0.2,0-0.4,0.1-0.5c0.1-0.1,0.3,0,0.6,0.1
				c0.1,0,0.2,0.1,0.3,0.1l0.1,0l-0.1,0.1c0,0.1-0.1,0.1-0.1,0.1C-237.9,385.9-238.1,386.1-238.2,386.1z M-238.3,385.3
				C-238.3,385.3-238.3,385.3-238.3,385.3c-0.1,0-0.1,0.1-0.1,0.4c0,0.2,0.1,0.3,0.1,0.3c0.1,0,0.3-0.2,0.5-0.4c0,0,0,0,0.1-0.1
				c-0.1,0-0.1,0-0.2-0.1C-238,385.4-238.2,385.3-238.3,385.3z"/>
		</g>
		<g>
			<path class="st2" d="M-229.9,384.8c0.9,0.2,0.7,1.1-0.2,0.9C-231,385.5-230.8,384.6-229.9,384.8L-229.9,384.8z"/>
		</g>
		<g>
			<path d="M-229.9,385.8c-0.1,0-0.1,0-0.2,0c-0.5-0.1-0.7-0.4-0.6-0.7c0-0.3,0.3-0.5,0.8-0.4l0,0c0.5,0.1,0.7,0.4,0.6,0.7
				C-229.3,385.6-229.5,385.8-229.9,385.8z M-230.1,384.8c-0.3,0-0.5,0.2-0.5,0.3c0,0.2,0.1,0.4,0.5,0.5c0.4,0.1,0.6-0.1,0.7-0.3
				c0-0.2-0.1-0.4-0.5-0.5l0,0C-230,384.8-230.1,384.8-230.1,384.8z"/>
		</g>
		<g>
			<path class="st2" d="M-228.4,385.5c0.5,0.5,0.7,0.9,0.8,0.2C-227.5,385-227.9,385.3-228.4,385.5L-228.4,385.5z"/>
		</g>
		<g>
			<path d="M-228.1,386.5c-0.7-0.3-3.1-0.6-4.9-0.6c-1.8,0-4.3,0.2-4.9,0.6l-0.1-0.1c0.7-0.4,3.1-0.6,5-0.6s4.3,0.2,5,0.6
				L-228.1,386.5z M-227.8,386.1c-0.1,0-0.3-0.2-0.5-0.4c0,0-0.1-0.1-0.1-0.1l-0.1-0.1l0.1,0c0.1,0,0.2-0.1,0.3-0.1
				c0.3-0.1,0.5-0.2,0.6-0.1c0.1,0.1,0.1,0.2,0.1,0.5C-227.6,385.9-227.6,386.1-227.8,386.1C-227.8,386.1-227.8,386.1-227.8,386.1z
				 M-228.3,385.5C-228.3,385.5-228.3,385.6-228.3,385.5c0.3,0.3,0.4,0.5,0.5,0.5c0,0,0,0,0,0c0,0,0.1-0.1,0.1-0.3
				c0-0.2,0-0.3,0-0.3c-0.1-0.1-0.3,0-0.5,0.1C-228.2,385.5-228.3,385.5-228.3,385.5z M-227.8,384.9c-0.8-0.3-3.5-0.7-5.2-0.7
				c-1.7,0-4.5,0.4-5.2,0.7l0-0.1c0.8-0.3,3.5-0.7,5.3-0.7c1.8,0,4.5,0.4,5.3,0.7L-227.8,384.9z"/>
		</g>
		<g>
			<path class="st1" d="M-239.8,380.7c-0.9,0-0.9,1.4,0,1.4C-238.9,382.1-238.9,380.7-239.8,380.7L-239.8,380.7z"/>
		</g>
		<g>
			<path d="M-239.8,382.1C-239.8,382.1-239.8,382.1-239.8,382.1c-0.5,0-0.7-0.4-0.7-0.8c0-0.4,0.3-0.7,0.7-0.7c0,0,0,0,0,0
				c0.3,0,0.5,0.1,0.6,0.4c0.1,0.2,0.1,0.6,0,0.8C-239.3,382-239.5,382.1-239.8,382.1z M-239.8,380.8c-0.4,0-0.6,0.3-0.6,0.6
				c0,0.3,0.2,0.6,0.6,0.6c0,0,0,0,0,0c0.2,0,0.4-0.1,0.5-0.3c0.1-0.2,0.1-0.5,0-0.7C-239.4,380.9-239.6,380.8-239.8,380.8
				L-239.8,380.8C-239.8,380.8-239.8,380.8-239.8,380.8z"/>
		</g>
		<g>
			<path class="st1" d="M-238.6,379.8c-0.9,0-0.9,1.4,0,1.4C-237.7,381.2-237.7,379.8-238.6,379.8L-238.6,379.8z"/>
		</g>
		<g>
			<path d="M-238.6,381.3C-238.6,381.3-238.6,381.3-238.6,381.3c-0.2,0-0.4-0.1-0.6-0.2c-0.1-0.1-0.2-0.3-0.2-0.5
				c0-0.4,0.3-0.7,0.7-0.7c0,0,0,0,0,0c0.3,0,0.5,0.1,0.6,0.4c0.1,0.2,0.1,0.6,0,0.8C-238.1,381.1-238.3,381.3-238.6,381.3z
				 M-238.6,379.9c-0.2,0-0.3,0.1-0.5,0.2c-0.1,0.1-0.2,0.3-0.2,0.4c0,0.2,0.1,0.3,0.1,0.4c0.1,0.1,0.3,0.2,0.5,0.2c0,0,0,0,0,0
				c0.2,0,0.4-0.1,0.5-0.3c0.1-0.2,0.1-0.5,0-0.7C-238.2,380-238.4,379.9-238.6,379.9L-238.6,379.9
				C-238.6,379.9-238.6,379.9-238.6,379.9z"/>
		</g>
		<g>
			<path class="st1" d="M-237.3,379.2c-0.9,0-0.9,1.4,0,1.4S-236.4,379.2-237.3,379.2L-237.3,379.2z"/>
		</g>
		<g>
			<path d="M-237.3,380.6C-237.3,380.6-237.3,380.6-237.3,380.6c-0.3,0-0.5-0.1-0.6-0.4c-0.1-0.2-0.1-0.6,0-0.8
				c0.1-0.2,0.4-0.3,0.6-0.3c0,0,0,0,0,0l0,0c0.3,0,0.5,0.1,0.6,0.4c0.1,0.2,0.1,0.6,0,0.8C-236.8,380.5-237,380.6-237.3,380.6z
				 M-237.3,379.2c-0.2,0-0.3,0.1-0.5,0.2c-0.1,0.1-0.2,0.3-0.2,0.4c0,0.3,0.2,0.6,0.6,0.6c0,0,0,0,0,0c0.2,0,0.4-0.1,0.5-0.3
				c0.1-0.2,0.1-0.5,0-0.7C-236.9,379.3-237.1,379.2-237.3,379.2C-237.3,379.2-237.3,379.2-237.3,379.2z"/>
		</g>
		<g>
			<path class="st1" d="M-236,378.6c-0.9,0-0.9,1.4,0,1.4C-235.1,380-235,378.6-236,378.6L-236,378.6z"/>
		</g>
		<g>
			<path d="M-236,380.1C-236,380.1-236,380.1-236,380.1c-0.2,0-0.4-0.1-0.6-0.2c-0.1-0.1-0.2-0.3-0.2-0.5c0-0.4,0.3-0.7,0.7-0.7
				c0,0,0,0,0,0c0.5,0,0.7,0.4,0.7,0.7C-235.2,379.7-235.5,380.1-236,380.1z M-236,378.7c-0.2,0-0.3,0.1-0.5,0.2
				c-0.1,0.1-0.2,0.3-0.2,0.4c0,0.2,0.1,0.3,0.2,0.4c0.1,0.1,0.3,0.2,0.5,0.2c0,0,0,0,0,0c0.4,0,0.6-0.3,0.6-0.6
				C-235.3,379-235.5,378.7-236,378.7L-236,378.7C-236,378.7-236,378.7-236,378.7z"/>
		</g>
		<g>
			<path class="st1" d="M-234.6,378.2c-0.9,0-0.9,1.4,0,1.4C-233.7,379.6-233.7,378.2-234.6,378.2L-234.6,378.2z"/>
		</g>
		<g>
			<path d="M-234.6,379.6C-234.6,379.6-234.6,379.6-234.6,379.6c-0.2,0-0.4-0.1-0.6-0.2c-0.1-0.1-0.2-0.3-0.2-0.5
				c0-0.4,0.3-0.7,0.7-0.7c0,0,0,0,0,0c0.3,0,0.5,0.1,0.6,0.4c0.1,0.2,0.1,0.6,0,0.8C-234.1,379.5-234.3,379.6-234.6,379.6z
				 M-234.6,378.3c-0.2,0-0.3,0.1-0.5,0.2c-0.1,0.1-0.2,0.3-0.2,0.4c0,0.2,0.1,0.3,0.2,0.4c0.1,0.1,0.3,0.2,0.5,0.2c0,0,0,0,0,0
				c0.2,0,0.4-0.1,0.5-0.3c0.1-0.2,0.1-0.5,0-0.7C-234.2,378.4-234.4,378.3-234.6,378.3L-234.6,378.3
				C-234.6,378.3-234.6,378.3-234.6,378.3z"/>
		</g>
		<g>
			<path class="st1" d="M-233,377.9c-1.1,0-1.1,1.7,0,1.7C-231.9,379.5-231.9,377.9-233,377.9L-233,377.9z"/>
		</g>
		<g>
			<path d="M-233,379.6c-0.6,0-0.9-0.5-0.9-0.9c0-0.2,0.1-0.5,0.2-0.6c0.2-0.2,0.4-0.3,0.7-0.3c0.6,0,0.9,0.5,0.9,0.9
				c0,0.2-0.1,0.5-0.2,0.6C-232.5,379.5-232.7,379.6-233,379.6z M-233,377.9c-0.2,0-0.4,0.1-0.6,0.2c-0.1,0.1-0.2,0.3-0.2,0.5
				c0,0.4,0.2,0.8,0.8,0.8c0.2,0,0.4-0.1,0.6-0.2c0.1-0.1,0.2-0.3,0.2-0.5C-232.2,378.3-232.5,377.9-233,377.9z"/>
		</g>
		<g>
			<path class="st1" d="M-226.2,380.7c0.9,0,0.9,1.4,0,1.4C-227.1,382.1-227.1,380.7-226.2,380.7L-226.2,380.7z"/>
		</g>
		<g>
			<path d="M-226.2,382.1c-0.3,0-0.5-0.1-0.6-0.3c-0.1-0.2-0.1-0.6,0-0.8c0.1-0.2,0.4-0.4,0.6-0.4l0,0c0,0,0,0,0,0
				c0.3,0,0.5,0.1,0.6,0.3c0.1,0.2,0.1,0.6,0,0.8C-225.7,382-225.9,382.1-226.2,382.1C-226.2,382.1-226.2,382.1-226.2,382.1z
				 M-226.2,380.8c-0.2,0-0.4,0.1-0.5,0.3c-0.1,0.2-0.1,0.5,0,0.7c0.1,0.2,0.3,0.3,0.5,0.3c0,0,0,0,0,0c0.2,0,0.4-0.1,0.5-0.3
				c0.1-0.2,0.1-0.5,0-0.7C-225.8,380.9-226,380.8-226.2,380.8C-226.2,380.8-226.2,380.8-226.2,380.8L-226.2,380.8z"/>
		</g>
		<g>
			<path class="st1" d="M-227.4,379.8c0.9,0,0.9,1.4,0,1.4C-228.3,381.2-228.3,379.8-227.4,379.8L-227.4,379.8z"/>
		</g>
		<g>
			<path d="M-227.4,381.3c-0.3,0-0.5-0.1-0.6-0.3c-0.1-0.2-0.1-0.6,0-0.8c0.1-0.2,0.4-0.4,0.6-0.4v0.1v-0.1c0,0,0,0,0,0
				c0.2,0,0.4,0.1,0.5,0.2c0.1,0.1,0.2,0.3,0.2,0.5c0,0.2-0.1,0.4-0.2,0.5C-227,381.2-227.2,381.3-227.4,381.3
				C-227.4,381.3-227.4,381.3-227.4,381.3z M-227.4,379.9c-0.2,0-0.4,0.1-0.5,0.3c-0.1,0.2-0.1,0.5,0,0.7c0.1,0.2,0.3,0.3,0.5,0.3
				c0,0,0,0,0,0c0.2,0,0.3-0.1,0.5-0.2c0.1-0.1,0.2-0.3,0.2-0.4C-226.8,380.2-227,379.9-227.4,379.9
				C-227.4,379.9-227.4,379.9-227.4,379.9L-227.4,379.9z"/>
		</g>
		<g>
			<path class="st1" d="M-228.7,379.2c0.9,0,0.9,1.4,0,1.4C-229.6,380.6-229.6,379.2-228.7,379.2L-228.7,379.2z"/>
		</g>
		<g>
			<path d="M-228.7,380.6c-0.3,0-0.5-0.1-0.6-0.3c-0.1-0.2-0.1-0.6,0-0.8c0.1-0.2,0.4-0.4,0.6-0.4l0,0c0,0,0,0,0,0
				c0.5,0,0.7,0.4,0.7,0.7C-227.9,380.2-228.2,380.6-228.7,380.6C-228.7,380.6-228.7,380.6-228.7,380.6z M-228.7,379.2
				c-0.2,0-0.4,0.1-0.5,0.3c-0.1,0.2-0.1,0.5,0,0.7c0.1,0.2,0.3,0.3,0.5,0.3c0,0,0,0,0,0c0.4,0,0.6-0.3,0.6-0.6
				C-228.1,379.6-228.3,379.2-228.7,379.2C-228.7,379.2-228.7,379.2-228.7,379.2L-228.7,379.2z"/>
		</g>
		<g>
			<path class="st1" d="M-230,378.6c0.9,0,0.9,1.4,0,1.4S-231,378.6-230,378.6L-230,378.6z"/>
		</g>
		<g>
			<path d="M-230,380.1c-0.5,0-0.7-0.4-0.7-0.7c0-0.4,0.2-0.7,0.7-0.7l0,0c0,0,0,0,0,0c0.3,0,0.5,0.1,0.6,0.3c0.1,0.2,0.1,0.6,0,0.8
				C-229.5,379.9-229.7,380.1-230,380.1C-230,380.1-230,380.1-230,380.1z M-230,378.7c-0.4,0-0.6,0.3-0.6,0.6c0,0.3,0.2,0.6,0.6,0.6
				c0.2,0,0.3-0.1,0.5-0.2c0.1-0.1,0.2-0.3,0.1-0.4c0-0.2-0.1-0.3-0.2-0.4C-229.7,378.8-229.8,378.7-230,378.7
				C-230,378.7-230,378.7-230,378.7L-230,378.7z"/>
		</g>
		<g>
			<path class="st1" d="M-231.4,378.2c0.9,0,0.9,1.4,0,1.4S-232.3,378.2-231.4,378.2L-231.4,378.2z"/>
		</g>
		<g>
			<path d="M-231.4,379.6c-0.3,0-0.5-0.1-0.6-0.3c-0.1-0.2-0.1-0.6,0-0.8c0.1-0.2,0.4-0.4,0.6-0.4l0,0c0,0,0,0,0,0
				c0.3,0,0.5,0.1,0.6,0.3c0.1,0.2,0.1,0.6,0,0.8C-230.9,379.5-231.1,379.6-231.4,379.6C-231.4,379.6-231.4,379.6-231.4,379.6z
				 M-231.4,378.3c-0.2,0-0.4,0.1-0.5,0.3c-0.1,0.2-0.1,0.5,0,0.7c0.1,0.2,0.3,0.3,0.5,0.3c0,0,0,0,0,0c0.2,0,0.3-0.1,0.5-0.2
				c0.1-0.1,0.2-0.3,0.1-0.4c0-0.2-0.1-0.3-0.2-0.4C-231.1,378.3-231.2,378.3-231.4,378.3C-231.4,378.3-231.4,378.3-231.4,378.3
				L-231.4,378.3z"/>
		</g>
	</g>
</g>
</svg>
