<?xml version="1.0" encoding="utf-8"?>
<!-- Generator: Adobe Illustrator 19.0.0, SVG Export Plug-In . SVG Version: 6.00 Build 0)  -->
<svg version="1.1" id="Layer_1" xmlns="http://www.w3.org/2000/svg" xmlns:xlink="http://www.w3.org/1999/xlink" x="0px" y="0px"
	 viewBox="-269 374 72 46" style="enable-background:new -269 374 72 46;" xml:space="preserve">
<style type="text/css">
	.st0{clip-path:url(#SVGID_2_);}
	.st1{fill:#E40520;}
	.st2{fill:#FFED00;}
	.st3{fill:#FFFFFF;}
</style>
<g>
	<defs>
		<path id="SVGID_1_" d="M-204,420H-262c-3.8,0-7-3.1-7-7V381c0-3.8,3.1-7,7-7h58.1c3.8,0,7,3.1,7,7V413
			C-197,416.9-200.1,420-204,420z"/>
	</defs>
	<clipPath id="SVGID_2_">
		<use xlink:href="#SVGID_1_"  style="overflow:visible;"/>
	</clipPath>
	<g class="st0">
		<g>
			<polygon class="st1" points="-182.7,421.9 -182.7,371.6 -283.3,371.6 -283.3,421.9 			"/>
		</g>
		<g>
			<path d="M-182.6,422h-100.8v-50.5h100.8V422z M-283.1,421.8h100.3v-50h-100.3V421.8z"/>
		</g>
		<g>
			<path class="st2" d="M-233.3,396.3c2,0,3.6-1.6,3.6-3.6c0-2-1.6-3.6-3.6-3.6c-2,0-3.6,1.6-3.6,3.6
				C-236.9,394.7-235.3,396.3-233.3,396.3L-233.3,396.3z"/>
		</g>
		<g>
			<path d="M-233.3,396.4c-2,0-3.6-1.6-3.6-3.6s1.6-3.6,3.6-3.6s3.6,1.6,3.6,3.6S-231.3,396.4-233.3,396.4z M-233.3,389.2
				c-1.9,0-3.5,1.6-3.5,3.5s1.6,3.5,3.5,3.5c1.9,0,3.5-1.6,3.5-3.5S-231.4,389.2-233.3,389.2z"/>
		</g>
		<g>
			<path class="st3" d="M-236.6,391.3c1-0.3,2.3,0.1,3.2,0.9c0.9-0.2,1.8-1.3,2.1-2.4c-0.3-3.4-2.5-6-3.2-7.8
				c-0.2-0.6-1.2-1.4-2.2-1c-0.9,0.3-1.3,0.1-4.1,1.5c-1.5,0.8-2.9,1.6-3.5,1.7c-0.7,0.1-1.4,0.3-2-0.2c-0.8-0.6-1.6-0.8-2.1-1.2
				c-0.6-0.5-1-1-1.4-1.1c-0.4-0.2-1.1,0.2-0.8,1.1c0.7,2,2.2,2.3,2.9,4.2c0.3,0.9,0.8,1.5,1.8,0.9c1-0.7,2.4-1.6,4.9-1.7
				c1.6-0.1,3.3-0.7,4.1-1.7c0,0.9,0.3,1.6,0.2,2.7C-236.9,388.4-236.9,389.7-236.6,391.3L-236.6,391.3z"/>
		</g>
		<g>
			<path d="M-233.4,392.3L-233.4,392.3c-0.9-0.8-2.2-1.2-3.2-0.9l-0.1,0l0-0.1c-0.2-1.3-0.3-2.7-0.2-4.1c0-0.6,0-1.1-0.1-1.6
				c0-0.3-0.1-0.6-0.1-0.9c-0.8,0.9-2.4,1.5-4,1.5c-2.5,0.1-4,1.1-4.9,1.6c-0.4,0.3-0.7,0.3-1,0.2c-0.4-0.1-0.7-0.7-0.9-1.2
				c-0.3-0.9-0.8-1.4-1.4-2c-0.6-0.6-1.2-1.2-1.5-2.2c-0.2-0.6,0-0.9,0.2-1c0.2-0.2,0.5-0.3,0.7-0.2c0.3,0.1,0.7,0.4,1.1,0.8
				c0.1,0.1,0.2,0.2,0.3,0.3c0,0,0.1,0,0.1,0.1c0,0,0,0,0,0l0,0c0.2,0.1,0.4,0.3,0.7,0.4c0,0,0.1,0,0.1,0l0,0l0,0
				c0.2,0.1,0.3,0.2,0.5,0.2c0,0,0,0,0,0l0,0c0.2,0.1,0.4,0.2,0.6,0.4c0.5,0.4,1.2,0.3,1.9,0.2c0.5-0.1,1.2-0.5,2.1-1
				c0.4-0.2,0.9-0.5,1.4-0.7c2-1,2.8-1.2,3.4-1.3c0.3-0.1,0.5-0.1,0.7-0.2c0.4-0.2,0.8-0.1,1.3,0c0.6,0.2,0.9,0.7,1.1,1
				c0.2,0.6,0.6,1.2,1,1.9c0.9,1.6,2,3.5,2.3,5.9l0,0l0,0C-231.5,390.9-232.4,392.1-233.4,392.3L-233.4,392.3z M-235.8,391.1
				c0.8,0,1.8,0.4,2.4,1c0.9-0.2,1.8-1.3,2-2.3c-0.2-2.3-1.3-4.3-2.2-5.8c-0.4-0.7-0.8-1.4-1-1.9c-0.1-0.3-0.5-0.7-1-1
				c-0.3-0.1-0.7-0.2-1.2,0c-0.3,0.1-0.5,0.2-0.8,0.2c-0.6,0.1-1.4,0.3-3.4,1.3c-0.5,0.2-1,0.5-1.4,0.7c-0.9,0.5-1.7,0.9-2.2,1
				c-0.6,0.1-1.4,0.3-2-0.2c-0.2-0.2-0.4-0.3-0.7-0.4c-0.1,0-0.2,0-0.3,0c-0.3,0.1-0.6,0.6-0.7,1.3l-0.1,0c0.2-0.7,0.5-1.2,0.8-1.4
				c0,0,0.1,0,0.1,0c-0.1,0-0.2-0.1-0.2-0.1c0,0-0.1,0-0.1-0.1c-0.3-0.1-0.6,0-1,1l-0.1-0.1c0.3-0.7,0.6-1,0.9-1.1
				c-0.2-0.1-0.3-0.2-0.5-0.3c-0.1,0-0.2-0.1-0.2,0c-0.2,0.1-0.4,0.3-0.5,0.6l-0.1,0c0.1-0.4,0.4-0.6,0.6-0.7c0,0,0.1,0,0.1,0
				c-0.1-0.1-0.2-0.2-0.2-0.2c-0.4-0.4-0.7-0.7-1.1-0.8c-0.2-0.1-0.4,0-0.6,0.1c-0.1,0.1-0.3,0.4-0.1,0.9c0.3,1,0.9,1.6,1.5,2.2
				c0.5,0.5,1.1,1.1,1.4,2c0.2,0.6,0.5,1,0.8,1.1c0.3,0.1,0.6,0,0.9-0.2c0.9-0.6,2.4-1.6,4.9-1.7c1.7-0.1,3.3-0.7,4.1-1.6l0.1-0.1
				l0,0.2c0,0.4,0,0.7,0.1,1c0.1,0.5,0.2,1,0.1,1.6c-0.1,1.3,0,2.7,0.2,4C-236.3,391.2-236.1,391.1-235.8,391.1z"/>
		</g>
		<g>
			<path class="st2" d="M-234.7,391.4c-0.3-1.7,0.2-1.9-0.4-3.9c-0.4-1.2-0.6-2.7-0.6-3.4l-0.3,0.1c0,0.7,0.3,2.2,0.6,3.4
				c0.6,1.9,0.1,2.2,0.4,3.7C-234.9,391.3-234.7,391.4-234.7,391.4L-234.7,391.4z"/>
		</g>
		<g>
			<path d="M-234.6,391.5l-0.1,0c-0.1,0-0.2-0.1-0.3-0.1l0,0l0,0c-0.1-0.6-0.1-1-0.1-1.4c0-0.6,0.1-1.2-0.3-2.3
				c-0.4-1.2-0.6-2.7-0.7-3.4l0,0l0.4-0.1l0,0.1c0,0.7,0.3,2.2,0.6,3.3c0.4,1.2,0.4,1.7,0.3,2.3c0,0.4,0,0.9,0.1,1.6L-234.6,391.5z
				 M-234.9,391.3c0,0,0.1,0,0.2,0c-0.1-0.7-0.1-1.1-0.1-1.5c0-0.6,0.1-1.2-0.3-2.3c-0.4-1.1-0.6-2.6-0.6-3.3l-0.1,0
				c0,0.7,0.3,2.1,0.6,3.3c0.4,1.2,0.4,1.7,0.3,2.3C-235,390.3-235,390.7-234.9,391.3z"/>
		</g>
		<g>
			<path class="st2" d="M-236.2,391.2c0-0.2,0-0.4,0-0.6c0.5-0.1,1.2,0.3,1.2,0c0-0.1,0-0.4,0-0.6c0,0.3-1.1-0.2-1.3-0.1
				c-0.2-1,0-2-0.1-2.6c0.4-0.1,1,0.1,1-0.2c0-0.1-0.1-0.5-0.2-0.7c0.1,0.2-0.5,0-0.7,0.2c-0.1-0.5-0.2-1.5-0.2-2l-0.5,0
				c0,0.9,0.3,1.6,0.2,2.7c-0.1,1.1-0.1,2.5,0.2,4.1C-236.5,391.3-236.3,391.2-236.2,391.2L-236.2,391.2z"/>
		</g>
		<g>
			<path d="M-236.7,391.4L-236.7,391.4c-0.3-1.4-0.3-2.8-0.2-4.1c0-0.6,0-1.1-0.1-1.6c-0.1-0.4-0.1-0.7-0.1-1.1l0-0.1l0.6,0l0,0.1
				c0,0.4,0.1,1.3,0.2,1.9c0.1,0,0.2,0,0.3,0c0.1,0,0.2,0,0.2,0c0,0,0,0,0,0l0.1,0v0c0,0,0,0,0,0l0.1,0.2c0.1,0.2,0.1,0.4,0.1,0.5
				c0,0.1,0,0.1,0,0.2c-0.1,0.1-0.3,0.1-0.5,0.1c-0.1,0-0.3,0-0.4,0c0.1,0.3,0,0.6,0,1c0,0.4,0,1,0.1,1.4c0.1,0,0.3,0,0.6,0.1
				c0.2,0,0.5,0.1,0.6,0.1h0c0,0,0,0,0,0l0.1,0c0,0.2,0,0.5,0,0.6c0,0.1,0,0.1-0.1,0.1c-0.1,0.1-0.3,0-0.5,0c-0.2,0-0.4-0.1-0.6-0.1
				c0,0.2,0,0.4,0,0.6l0,0.1l0,0C-236.3,391.3-236.5,391.3-236.7,391.4L-236.7,391.4z M-237,384.6c0,0.3,0.1,0.7,0.1,1
				c0.1,0.5,0.2,1,0.1,1.6c-0.1,1.3,0,2.7,0.2,4c0.1,0,0.2,0,0.3-0.1c0-0.2,0-0.4,0-0.6l0-0.1l0.1,0c0.2-0.1,0.5,0,0.7,0.1
				c0.2,0,0.4,0.1,0.4,0c0,0,0,0,0,0c0-0.1,0-0.3,0-0.5c-0.1,0-0.3,0-0.6-0.1c-0.2,0-0.5-0.1-0.5-0.1l-0.1,0l0-0.1
				c-0.1-0.5-0.1-1.1-0.1-1.5c0-0.4,0-0.8,0-1.1l0-0.1l0.1,0c0.2,0,0.4,0,0.5,0c0.1,0,0.3,0,0.4,0c0,0,0,0,0,0
				c0-0.1-0.1-0.3-0.1-0.5l0-0.1c-0.1,0-0.2,0-0.3,0c-0.1,0-0.3,0-0.3,0l-0.1,0.1l0-0.1c-0.1-0.5-0.2-1.5-0.2-1.9L-237,384.6z
				 M-243.2,385.9l0-0.1c0.1,0,0.3-0.1,0.5-0.1l0,0.1C-242.9,385.9-243.1,385.9-243.2,385.9z M-239.7,385.3l0-0.1
				c0.2-0.1,0.4-0.1,0.6-0.2l0,0.1C-239.3,385.1-239.5,385.2-239.7,385.3z M-239.1,384.7c-0.3-0.6-1.1-2-0.9-2.5
				c0-0.1,0.1-0.2,0.2-0.2l0,0.1c-0.1,0-0.1,0.1-0.1,0.1c-0.1,0.3,0.2,1.3,0.9,2.4L-239.1,384.7z"/>
		</g>
		<g>
			<path class="st2" d="M-237.4,383.4c-0.7,1-2.4,1.7-4,1.9c-1.8,0.2-3.1,0.8-4,1.4c-0.1-0.1-0.2-0.2-0.3-0.3
				c-1.3-1-0.8-2.3-0.3-2.1c-0.2-0.1-0.3-0.2-0.4-0.2c-0.2-0.1-0.7,0.4-0.6,1.2c0,0.3,0.3,0.8,0.6,1.1c-0.4-0.1-0.6-0.2-0.9-0.5
				c0.1-0.1,0.3-0.1,0.5-0.2c-0.1-0.1-0.1-0.3-0.1-0.5c-0.2,0-0.5,0.1-0.7,0.2c-0.5-0.5-1.1-0.9-1.4-1.6c-0.5-1,0-1.6,0.7-1
				c-0.6-0.5-1-1-1.4-1.1c-0.4-0.2-1.1,0.2-0.8,1.1c0.7,2,2.2,2.3,2.9,4.2c0.3,0.9,0.8,1.6,1.8,0.9c0.1-0.1,0.2-0.1,0.3-0.2
				c0.3-0.2,0.8,0.1,0.8,0.8c0.3-0.6,0.1-0.8-0.1-1.2c-0.2,0.1-0.1-0.4-0.2-0.5c0.6-0.4,1.3-0.7,2.1-1c0,0.3,0.1,0.6,0.4,0.6
				c0.1,0,0.3-0.1,0.5-0.1c-0.3,0-0.4-0.3-0.4-0.6c0.4-0.1,0.9-0.2,1.4-0.2c0.6,0,1.2-0.2,1.7-0.3c0.1,0.3,0.3,0.8,0.5,0.7
				c0.3-0.1,0.5-0.2,0.7-0.3c-0.4,0.2-0.6-0.3-0.6-0.6c0.7-0.3,1.3-0.7,1.7-1.3L-237.4,383.4L-237.4,383.4z"/>
		</g>
		<g>
			<path d="M-244.9,388.5l-0.1,0c0-0.3-0.1-0.6-0.3-0.7c-0.1-0.1-0.3-0.1-0.4,0c-0.1,0-0.1,0.1-0.1,0.1l-0.1,0.1
				c-0.4,0.3-0.7,0.4-1,0.3c-0.5-0.1-0.7-0.7-0.9-1.2c-0.3-0.9-0.8-1.4-1.4-2c-0.6-0.6-1.2-1.2-1.5-2.2c-0.2-0.6,0-0.9,0.2-1
				c0.2-0.2,0.5-0.3,0.7-0.2c0.3,0.1,0.7,0.4,1.1,0.8c0.1,0.1,0.1,0.1,0.2,0.2c0,0,0.1,0.1,0.1,0.1l-0.1,0.1c0,0-0.1-0.1-0.1-0.1
				c-0.2-0.2-0.4-0.2-0.5-0.1c-0.2,0.1-0.2,0.6,0,1.1c0.2,0.5,0.6,0.8,1,1.2c0.1,0.1,0.2,0.2,0.3,0.3c0.2-0.1,0.4-0.2,0.6-0.2
				c0-0.6,0.3-1,0.5-1.1c0.1-0.1,0.2-0.1,0.2,0c0,0,0,0,0.1,0c0.1,0.1,0.2,0.1,0.3,0.2l0,0.1c0,0,0,0,0,0l0,0l0,0
				c-0.2-0.1-0.3,0.1-0.4,0.2c-0.2,0.4-0.2,1.2,0.7,1.8c0,0,0,0,0.1,0.1c0.1,0.1,0.2,0.1,0.3,0.2c0.8-0.5,2-1.2,4-1.4
				c1.7-0.2,3.3-0.9,4-1.9l0.1-0.1l0.1,0.5l0,0c-0.3,0.5-0.9,0.9-1.7,1.3c0.1,0.2,0.2,0.5,0.3,0.6c0.1,0,0.1,0,0.2,0c0,0,0,0,0,0
				l0.1,0.1c0,0,0,0,0,0c-0.2,0.1-0.5,0.2-0.7,0.3c-0.1,0-0.1,0-0.2,0c-0.1-0.1-0.3-0.3-0.4-0.6c-0.5,0.2-1.1,0.3-1.7,0.3
				c-0.4,0-0.9,0.1-1.3,0.2c0,0.1,0.1,0.4,0.2,0.5c0,0,0.1,0,0.1,0l0,0l0,0.1l0,0l0,0c-0.1,0-0.3,0.1-0.5,0.1c-0.1,0-0.2,0-0.2-0.1
				c-0.1-0.1-0.2-0.2-0.2-0.5c-0.7,0.2-1.3,0.5-2,0.9c0,0.1,0,0.1,0.1,0.2c0,0.1,0,0.2,0.1,0.2l0.1,0l0.1,0.1
				C-244.8,387.7-244.7,387.9-244.9,388.5z M-245.6,387.6c0.1,0,0.2,0,0.3,0.1c0.2,0.1,0.3,0.3,0.3,0.5c0.1-0.3,0-0.5-0.2-0.7l0,0
				c0,0,0,0-0.1,0c-0.1,0-0.1-0.2-0.1-0.3c0-0.1,0-0.2-0.1-0.2l-0.1-0.1l0.1-0.1c0.7-0.4,1.4-0.8,2.1-1l0.1,0l0,0.1
				c0,0.3,0.1,0.4,0.2,0.5c0,0,0.1,0,0.1,0c0.1,0,0.1,0,0.2,0c-0.1-0.1-0.2-0.4-0.2-0.6l0-0.1l0.1,0c0.4-0.1,0.9-0.2,1.4-0.2
				c0.6,0,1.2-0.2,1.7-0.3l0.1,0l0,0.1c0.1,0.4,0.3,0.6,0.3,0.6c0,0,0.1,0,0.1,0c0.2-0.1,0.3-0.1,0.4-0.2c-0.2-0.1-0.3-0.4-0.4-0.6
				l0-0.1l0.1,0c0.7-0.3,1.3-0.7,1.7-1.2l0-0.2c-0.8,1.1-2.6,1.7-4,1.8c-2,0.2-3.2,0.9-4,1.4l-0.1,0l0-0.1c-0.1-0.1-0.2-0.2-0.3-0.2
				c0,0-0.1,0-0.1-0.1c-1-0.7-1-1.6-0.7-2c0.1-0.1,0.2-0.2,0.3-0.3c-0.1,0-0.1-0.1-0.1-0.1c0,0,0,0-0.1,0c0,0-0.1,0-0.1,0
				c-0.2,0.1-0.5,0.5-0.4,1.1l0,0c0,0,0,0,0,0c0,0.3,0.3,0.8,0.5,1.1l0.1,0.1l-0.2,0c-0.5-0.1-0.7-0.2-0.9-0.5l0-0.1l0.1,0
				c0.1-0.1,0.3-0.1,0.4-0.1c0-0.1-0.1-0.2-0.1-0.3c-0.2,0-0.4,0.1-0.6,0.2l0,0l0,0c-0.1-0.1-0.2-0.2-0.4-0.3
				c-0.4-0.4-0.8-0.8-1-1.2c-0.3-0.6-0.2-1.1,0-1.3c0.1-0.1,0.2-0.1,0.3-0.1c-0.4-0.4-0.7-0.6-1-0.7c-0.2-0.1-0.4,0-0.6,0.1
				c-0.1,0.1-0.3,0.4-0.1,0.9c0.3,1,0.9,1.6,1.5,2.2c0.5,0.5,1.1,1.1,1.4,2c0.2,0.6,0.5,1,0.8,1.1c0.3,0.1,0.5,0,0.9-0.2l0.1-0.1
				c0,0,0.1-0.1,0.1-0.1C-245.7,387.6-245.6,387.6-245.6,387.6z M-247.3,385.8c0.2,0.2,0.4,0.3,0.6,0.4c-0.1-0.1-0.2-0.3-0.3-0.5
				C-247.1,385.7-247.2,385.7-247.3,385.8z"/>
		</g>
		<g>
			<path class="st2" d="M-237.2,385c0.9-0.1,2.4-1.1,3-1.6c0.3-0.3,0.6-0.4,0.3-1c-0.5-0.9-0.3-0.9-1.4-1.5c-1.1-0.6-1-0.7-2.4-0.1
				c-0.4,0.1-0.3,0.3-0.2,0.8C-237.8,382.6-237.4,384-237.2,385L-237.2,385z"/>
		</g>
		<g>
			<path d="M-237.2,385L-237.2,385c-0.4-1.5-0.6-2.7-0.7-3.5c0-0.1,0-0.1,0-0.2c0-0.4-0.1-0.5,0.3-0.6c1.3-0.5,1.4-0.5,2.2,0
				c0.1,0,0.2,0.1,0.3,0.1c0.9,0.5,1,0.6,1.2,1.2c0.1,0.1,0.1,0.2,0.2,0.4c0.3,0.6,0,0.7-0.3,1c0,0-0.1,0.1-0.1,0.1
				C-234.4,383.6-236.1,384.9-237.2,385L-237.2,385z M-236.4,380.4c-0.3,0-0.6,0.1-1.2,0.3c-0.3,0.1-0.3,0.2-0.2,0.5
				c0,0.1,0,0.1,0,0.2c0.1,0.8,0.3,2,0.7,3.4c1-0.2,2.7-1.4,2.9-1.6c0,0,0.1-0.1,0.1-0.1c0.3-0.2,0.5-0.3,0.2-0.8
				c-0.1-0.2-0.1-0.3-0.2-0.4c-0.3-0.6-0.3-0.6-1.2-1.1c-0.1-0.1-0.2-0.1-0.3-0.1C-236,380.5-236.2,380.4-236.4,380.4z"/>
		</g>
		<g>
			<path class="st2" d="M-237.2,385c-0.1-0.4-0.3-0.8-0.4-1.4c-0.2-0.5-0.1-0.5,0.6-0.3c0.2-0.7,0.6-1.8,0.8-2.4
				c0.2-0.7,0.3-0.8,0.5-0.6c0.4,0.2,0.8,0.4,1,0.6c0.5,0.2,0.4,0.3,0.2,0.7c-0.2,0.4-1,1.6-1.5,2.3c0.6,0.4,0.8,0.4,0.4,0.6
				C-236.1,384.7-236.9,385-237.2,385L-237.2,385z"/>
		</g>
		<g>
			<path d="M-237.3,385.1L-237.3,385.1c-0.1-0.3-0.2-0.7-0.3-1.1c0-0.1-0.1-0.2-0.1-0.3c-0.1-0.3-0.1-0.4-0.1-0.5
				c0.1-0.1,0.2,0,0.5,0c0,0,0.1,0,0.1,0c0.1-0.3,0.2-0.7,0.4-1.1c0.2-0.5,0.3-0.9,0.4-1.2c0.1-0.5,0.2-0.6,0.3-0.7
				c0.1,0,0.2,0,0.3,0.1c0.4,0.2,0.8,0.4,1,0.5c0.2,0.1,0.3,0.2,0.4,0.3c0,0.1,0,0.2-0.2,0.4l0,0c-0.1,0.1-0.2,0.3-0.4,0.6
				c-0.3,0.5-0.8,1.2-1,1.7c0.1,0.1,0.1,0.1,0.2,0.1c0.3,0.2,0.4,0.2,0.4,0.4c0,0.1-0.1,0.1-0.3,0.2
				C-236.1,384.8-236.9,385-237.3,385.1L-237.3,385.1z M-237.7,383.3C-237.7,383.3-237.7,383.3-237.7,383.3c0,0,0,0.2,0.1,0.3
				c0,0.1,0.1,0.2,0.1,0.3c0.1,0.4,0.3,0.7,0.3,1c0.4-0.1,1.1-0.3,1.5-0.5c0.2-0.1,0.2-0.1,0.2-0.1c0,0-0.2-0.1-0.3-0.2
				c-0.1,0-0.2-0.1-0.3-0.2l0,0l0,0c0.3-0.5,0.7-1.2,1.1-1.7c0.2-0.3,0.3-0.5,0.4-0.6l0,0c0.1-0.2,0.2-0.3,0.1-0.3
				c0-0.1-0.1-0.1-0.3-0.2c-0.2-0.1-0.6-0.3-1-0.6c-0.1,0-0.1-0.1-0.2-0.1c-0.1,0-0.2,0.3-0.3,0.6c-0.1,0.3-0.2,0.7-0.4,1.2
				c-0.1,0.4-0.3,0.8-0.4,1.2l0,0.1l-0.1,0c-0.1,0-0.1,0-0.2-0.1C-237.5,383.3-237.6,383.3-237.7,383.3z"/>
		</g>
		<g>
			<polygon class="st2" points="-244.6,388.8 -244.6,389.4 -245,389 -245.5,389.3 -245.5,388.7 -246,388.6 -245.5,388.2 
				-245.7,387.7 -245.2,387.9 -244.9,387.4 -244.7,387.9 -244.1,387.8 -244.4,388.3 -244,388.7 			"/>
		</g>
		<g>
			<path d="M-244.6,389.5l-0.5-0.4l-0.5,0.4l0-0.6l-0.6-0.2l0.5-0.4l-0.2-0.6l0.6,0.2l0.3-0.5l0.2,0.6l0.6-0.1l-0.3,0.6l0.5,0.4
				l-0.6,0.1L-244.6,389.5z M-245,388.9l0.4,0.3l0-0.5l0.5-0.1l-0.4-0.3l0.2-0.4l-0.5,0.1l-0.2-0.4l-0.2,0.4l-0.5-0.1l0.2,0.4
				l-0.4,0.3l0.5,0.1l0,0.5L-245,388.9z"/>
		</g>
		<g>
			<path class="st3" d="M-232.9,396.3c-0.8-0.7-1.1-2-0.8-3.2c-0.6-0.7-2.1-0.9-3.1-0.7c-2.8,2-3.9,5.2-5.1,6.7
				c-0.4,0.5-0.6,1.8,0.2,2.5c0.7,0.6,0.7,1.1,3.4,2.8c1.4,1,2.8,1.7,3.2,2.2c0.5,0.5,0.9,1.1,0.8,1.8c-0.1,1,0.1,1.8,0,2.4
				c-0.2,0.8-0.3,1.3-0.3,1.8c0.1,0.4,0.7,0.9,1.4,0.2c1.4-1.6,0.9-3.1,2.2-4.6c0.6-0.7,1-1.4-0.1-2c-1.1-0.5-2.6-1.3-3.9-3.4
				c-0.9-1.4-2.2-2.6-3.5-2.7c0.7-0.4,1.2-1,2.2-1.5C-235.3,398-234.1,397.3-232.9,396.3L-232.9,396.3z"/>
		</g>
		<g>
			<path d="M-233.9,413.2c-0.1,0-0.2,0-0.2,0c-0.3-0.1-0.5-0.3-0.5-0.6c-0.1-0.4,0-0.8,0.2-1.4c0-0.1,0.1-0.3,0.1-0.5
				c0,0,0-0.1,0-0.1c0,0,0,0,0,0h0c0-0.2,0-0.5,0-0.8c0,0,0-0.1,0-0.1l0,0c0-0.2,0-0.4,0-0.6c0,0,0,0,0-0.1l0,0c0-0.2,0-0.5,0-0.8
				c0.1-0.6-0.3-1.2-0.8-1.7c-0.3-0.4-1-0.8-1.9-1.4c-0.4-0.3-0.9-0.5-1.3-0.8c-1.9-1.2-2.4-1.9-2.8-2.3c-0.2-0.2-0.3-0.4-0.5-0.5
				c-0.3-0.3-0.5-0.7-0.6-1.1c-0.1-0.6,0.1-1.2,0.4-1.4c0.4-0.5,0.7-1.1,1.1-1.8c0.9-1.6,2.1-3.5,4-4.9l0,0c1-0.3,2.5-0.1,3.2,0.7
				l0,0l0,0c-0.3,1.2,0.1,2.5,0.8,3.2l0.1,0l-0.1,0c-1,0.9-2.2,1.6-3.4,2.2c-0.6,0.3-1,0.6-1.3,0.9c-0.2,0.2-0.5,0.4-0.7,0.5
				c1.2,0.2,2.5,1.3,3.4,2.7c1.3,2.1,2.9,2.9,3.8,3.4c0.4,0.2,0.7,0.5,0.7,0.8c0.1,0.5-0.3,0.9-0.6,1.3c-0.6,0.7-0.8,1.4-1,2.2
				c-0.2,0.8-0.4,1.6-1.2,2.4C-233.5,413.1-233.7,413.2-233.9,413.2z M-234.3,411c0,0.1,0,0.2-0.1,0.3c-0.1,0.6-0.2,1-0.2,1.3
				c0,0.2,0.2,0.4,0.4,0.5c0.2,0,0.5,0.1,0.8-0.3c0.7-0.8,0.9-1.6,1.1-2.4c0.2-0.7,0.4-1.5,1-2.2c0.4-0.5,0.6-0.9,0.5-1.2
				c-0.1-0.3-0.3-0.5-0.7-0.7c-0.9-0.5-2.5-1.3-3.9-3.4c-0.9-1.5-2.3-2.5-3.4-2.7l-0.2,0l0.2-0.1c0.3-0.2,0.6-0.4,0.9-0.6
				c0.4-0.3,0.8-0.6,1.4-0.9c1.2-0.6,2.3-1.3,3.3-2.2c-0.8-0.7-1.1-2-0.8-3.2c-0.6-0.7-2-0.9-3-0.6c-1.9,1.4-3,3.3-3.9,4.9
				c-0.4,0.7-0.8,1.3-1.2,1.8c-0.2,0.3-0.4,0.8-0.3,1.3c0,0.3,0.2,0.7,0.5,1c0.2,0.2,0.4,0.3,0.6,0.5c0.4,0.5,1,1.1,2.8,2.3
				c0.5,0.3,0.9,0.6,1.3,0.8c0.9,0.6,1.6,1,2,1.4c0.5,0.6,0.9,1.1,0.8,1.8c0,0.3,0,0.5,0,0.8c0,0.1,0.1,0.2,0.2,0.2
				c0.3,0.2,0.8,0.2,1.5,0l0,0.1c-0.7,0.2-1.3,0.2-1.6,0c0,0-0.1,0-0.1-0.1c0,0.1,0,0.2,0,0.3c0,0,0,0.1,0,0.1
				c0.1,0.3,0.3,0.5,1.4,0.4l0,0.1c-0.7,0.1-1.2,0-1.4-0.2c0,0.2,0,0.4,0,0.5c0,0.1,0,0.2,0.1,0.2c0.2,0.1,0.5,0.2,0.8,0.2l0,0.1
				C-233.7,411.3-234.1,411.2-234.3,411C-234.3,411-234.3,411-234.3,411z"/>
		</g>
		<g>
			<path class="st2" d="M-233.8,394.6c-1.3,1.1-1.8,0.8-3.2,2.3c-0.8,0.9-2,1.9-2.6,2.2l0.2,0.2c0.6-0.4,1.8-1.3,2.6-2.2
				c1.3-1.5,1.8-1.2,3-2.2C-233.8,394.8-233.8,394.6-233.8,394.6L-233.8,394.6z"/>
		</g>
		<g>
			<path d="M-239.4,399.4l-0.3-0.3l0.1,0c0.6-0.3,1.7-1.3,2.6-2.2c0.8-0.9,1.3-1.2,1.9-1.5c0.4-0.2,0.8-0.4,1.3-0.9l0.1-0.1l0,0.1
				c0,0.1,0,0.2,0.1,0.3l0,0l0,0c-0.5,0.4-0.9,0.6-1.2,0.8c-0.5,0.3-1,0.5-1.8,1.4C-237.6,398-238.8,399-239.4,399.4L-239.4,399.4z
				 M-239.5,399.1l0.1,0.1c0.6-0.4,1.7-1.3,2.5-2.2c0.8-0.9,1.3-1.2,1.9-1.5c0.3-0.2,0.7-0.4,1.2-0.7c0,0,0-0.1,0-0.2
				c-0.5,0.4-0.9,0.6-1.3,0.8c-0.5,0.3-1,0.5-1.8,1.4C-237.8,397.8-238.9,398.8-239.5,399.1z"/>
		</g>
		<g>
			<path class="st2" d="M-233.2,396c-0.2,0.1-0.4,0.2-0.5,0.4c-0.3-0.3-0.4-1.2-0.6-1.1c-0.1,0.1-0.4,0.2-0.5,0.3
				c0.2-0.1,0.4,1.1,0.6,1.2c-0.7,0.7-1.7,1-2.2,1.4c-0.3-0.3-0.4-1-0.6-0.7c-0.1,0.1-0.4,0.4-0.5,0.5c0.2-0.2,0.3,0.4,0.5,0.5
				c-0.4,0.3-1.2,1-1.6,1.2l0.2,0.4c0.7-0.4,1.2-1,2.2-1.5c1-0.5,2.2-1.2,3.4-2.2C-233,396.2-233.1,396.1-233.2,396L-233.2,396z"/>
		</g>
		<g>
			<path d="M-234.4,404.8c-0.1-0.1-0.2-0.2-0.3-0.3l0.1-0.1C-234.5,404.5-234.4,404.6-234.4,404.8L-234.4,404.8z M-239.2,403.8
				c-0.1,0-0.1,0-0.2-0.1l0.1-0.1c0,0,0.1,0,0.2,0c0.4-0.1,1-0.8,1.7-2l0.1,0.1C-237.7,402.4-238.6,403.7-239.2,403.8
				C-239.2,403.8-239.2,403.8-239.2,403.8z M-236.7,402.1c-0.2-0.1-0.3-0.3-0.5-0.4l0.1-0.1C-237,401.7-236.8,401.8-236.7,402.1
				L-236.7,402.1z M-238.6,400.1l-0.3-0.5l0.1,0c0.4-0.2,1.1-0.8,1.5-1.1c-0.1-0.1-0.1-0.2-0.2-0.3c0-0.1-0.1-0.2-0.1-0.2
				c0,0,0,0,0,0l-0.1-0.1l0.1-0.1c0.2-0.2,0.3-0.3,0.4-0.4c0.1-0.1,0.1-0.1,0.1-0.1c0.1,0,0.2,0.2,0.3,0.4c0.1,0.1,0.1,0.3,0.2,0.4
				c0.2-0.2,0.5-0.4,0.9-0.5c0.4-0.2,0.8-0.4,1.2-0.8c-0.1-0.1-0.1-0.3-0.2-0.5c-0.1-0.2-0.2-0.5-0.2-0.6l0,0c0,0,0,0,0,0l-0.1-0.1
				l0,0l0,0c0,0,0,0,0,0c0.2-0.1,0.4-0.2,0.5-0.3c0.1,0,0.1,0,0.1,0c0.1,0,0.2,0.2,0.3,0.5c0.1,0.2,0.1,0.4,0.3,0.6
				c0.1-0.1,0.3-0.2,0.5-0.3l0,0l0,0c0.1,0.1,0.2,0.2,0.3,0.3l0,0l-0.1,0c-1,0.9-2.2,1.6-3.4,2.2c-0.6,0.3-1,0.6-1.3,0.9
				C-237.9,399.7-238.2,399.9-238.6,400.1L-238.6,400.1z M-238.7,399.6l0.2,0.3c0.3-0.2,0.5-0.4,0.8-0.6c0.4-0.3,0.8-0.6,1.4-0.9
				c1.2-0.6,2.3-1.3,3.3-2.2c-0.1-0.1-0.1-0.1-0.2-0.2c-0.2,0.1-0.3,0.2-0.5,0.3l0,0l0,0c-0.2-0.2-0.2-0.4-0.3-0.7
				c-0.1-0.2-0.1-0.4-0.2-0.4c0,0,0,0,0,0c-0.1,0-0.3,0.2-0.4,0.2c0.1,0.1,0.2,0.3,0.3,0.6c0.1,0.2,0.1,0.5,0.2,0.5l0.1,0l-0.1,0.1
				c-0.4,0.4-0.9,0.6-1.3,0.8c-0.4,0.2-0.7,0.4-0.9,0.6l0,0l0,0c-0.1-0.1-0.2-0.3-0.3-0.4c-0.1-0.1-0.2-0.3-0.2-0.3c0,0,0,0,0,0
				c-0.1,0.1-0.3,0.3-0.4,0.4l0,0c0.1,0,0.1,0.1,0.2,0.2c0.1,0.1,0.1,0.2,0.2,0.3l0.1,0l-0.1,0.1
				C-237.5,398.8-238.3,399.4-238.7,399.6z"/>
		</g>
		<g>
			<path class="st2" d="M-239.4,401c1.3,0.1,2.7,1.2,3.6,2.5c1.1,1.5,2.2,2.3,3.2,2.8c-0.1,0.1-0.1,0.3-0.1,0.5
				c-0.2,1.7-1.6,1.8-1.7,1.3c0,0.2,0,0.3,0,0.5c0,0.2,0.7,0.4,1.3,0c0.3-0.2,0.6-0.7,0.7-1c0.1,0.4,0.2,0.6,0,1
				c-0.1-0.1-0.3-0.2-0.4-0.3c-0.1,0.1-0.2,0.2-0.3,0.3c0.1,0.2,0.3,0.4,0.5,0.5c-0.2,0.7-0.3,1.4-0.7,2c-0.6,0.9-1.4,0.8-1.2-0.1
				c-0.2,0.8-0.3,1.3-0.3,1.8c0.1,0.4,0.7,0.9,1.4,0.2c1.4-1.6,0.9-3.1,2.2-4.6c0.6-0.7,1-1.5-0.1-2c-0.1-0.1-0.2-0.1-0.3-0.1
				c-0.3-0.2-0.3-0.8,0.3-1.1c-0.7,0.1-0.7,0.3-0.9,0.7c0.2,0.1-0.3,0.3-0.3,0.5c-0.6-0.3-1.2-0.7-1.9-1.4c0.2-0.2,0.5-0.4,0.3-0.6
				c-0.1-0.1-0.2-0.2-0.3-0.3c0.2,0.2-0.1,0.5-0.3,0.6c-0.3-0.3-0.6-0.7-0.9-1.1c-0.3-0.5-0.7-0.9-1.2-1.3c0.2-0.2,0.5-0.6,0.3-0.8
				c-0.2-0.2-0.4-0.3-0.6-0.5c0.4,0.2,0,0.7-0.2,0.9c-0.6-0.5-1.3-0.8-1.9-0.8L-239.4,401L-239.4,401z"/>
		</g>
		<g>
			<path d="M-233.9,413.2c-0.1,0-0.2,0-0.2,0c-0.3-0.1-0.5-0.3-0.5-0.6c-0.1-0.4,0-0.8,0.2-1.4c0-0.1,0-0.2,0.1-0.3c0,0,0-0.1,0-0.2
				l0.1,0c0,0.1,0,0.1,0,0.2c0,0.3,0,0.4,0.2,0.5c0.2,0.1,0.6-0.1,0.9-0.6c0.3-0.4,0.4-1,0.5-1.5c0-0.1,0.1-0.3,0.1-0.4
				c-0.2-0.1-0.4-0.3-0.5-0.4c-0.5,0.3-1,0.3-1.2,0.2c-0.1-0.1-0.1-0.1-0.1-0.2c0,0,0-0.1,0-0.1c0-0.1,0-0.2,0-0.4l0,0l0,0l0.1,0
				c0,0.2,0.2,0.2,0.4,0.2c0.4,0,1.1-0.4,1.2-1.5c0,0,0-0.1,0-0.1c0-0.1,0-0.2,0.1-0.3c-0.8-0.4-2-1.2-3.2-2.8
				c-1-1.4-2.4-2.4-3.6-2.5l-0.2,0l0.4-0.3l0,0c0.6,0.1,1.3,0.3,1.9,0.8c0.1-0.2,0.3-0.4,0.3-0.6c0-0.1,0-0.1-0.1-0.2c0,0,0,0,0,0
				l0.1-0.1c0,0,0,0,0,0c0.2,0.1,0.4,0.3,0.6,0.5c0.1,0.1,0.1,0.1,0.1,0.2c0,0.2-0.1,0.4-0.4,0.6c0.4,0.4,0.8,0.8,1.1,1.3
				c0.3,0.4,0.5,0.7,0.8,1c0.1-0.1,0.3-0.2,0.3-0.4c0,0,0-0.1,0-0.1c0,0,0,0,0,0l0,0l0.1-0.1l0,0l0,0l0,0c0.1,0.1,0.2,0.2,0.3,0.3
				c0.1,0.1,0.1,0.2,0.1,0.2c0,0.1-0.1,0.3-0.3,0.4c0.5,0.5,1.1,0.9,1.8,1.3c0,0,0.1-0.1,0.1-0.1c0.1,0,0.1-0.1,0.2-0.2l-0.1,0
				l0.1-0.1c0.2-0.3,0.3-0.6,0.9-0.6l0,0.1c-0.3,0.1-0.5,0.4-0.5,0.6c0,0.2,0.1,0.3,0.2,0.3c0.1,0,0.1,0,0.1,0.1s0.1,0,0.2,0.1
				c0.4,0.2,0.7,0.4,0.7,0.7c0.1,0.5-0.3,1-0.6,1.3c-0.6,0.7-0.8,1.4-1,2.2c-0.2,0.8-0.4,1.6-1.2,2.4
				C-233.5,413.1-233.7,413.2-233.9,413.2z M-234.4,411.4c-0.1,0.5-0.2,0.9-0.1,1.2c0,0.2,0.2,0.4,0.4,0.5c0.2,0,0.5,0.1,0.8-0.3
				c0.7-0.8,0.9-1.6,1.1-2.4c0.2-0.7,0.4-1.5,1-2.2c0.4-0.5,0.6-0.9,0.5-1.2c-0.1-0.3-0.3-0.5-0.7-0.7c-0.1,0-0.1-0.1-0.2-0.1
				c0,0-0.1,0-0.1-0.1c-0.2-0.1-0.2-0.3-0.2-0.5c0-0.2,0.1-0.4,0.3-0.5c-0.3,0.1-0.4,0.3-0.5,0.5l0,0c0,0,0,0,0,0.1
				c0,0.1-0.1,0.2-0.2,0.3c0,0-0.1,0.1-0.1,0.1l0,0.1l-0.1,0c-0.7-0.4-1.4-0.8-1.9-1.4l-0.1-0.1l0.1,0c0.2-0.2,0.3-0.3,0.3-0.4
				c0,0,0-0.1,0-0.1c0-0.1-0.1-0.1-0.1-0.2c0,0.2-0.2,0.3-0.4,0.5l0,0l0,0c-0.3-0.3-0.6-0.7-0.9-1.1c-0.3-0.5-0.7-0.9-1.1-1.3l0,0
				l0,0c0.3-0.3,0.4-0.5,0.4-0.6c0,0,0-0.1-0.1-0.1c-0.1-0.1-0.2-0.2-0.4-0.3c0,0.2-0.2,0.5-0.4,0.6l-0.1,0.1l0,0
				c-0.7-0.5-1.3-0.8-1.9-0.8l-0.1,0.1c1.3,0.2,2.7,1.4,3.5,2.5c1.2,1.6,2.4,2.3,3.2,2.7l0.1,0l0,0.1c-0.1,0.1-0.1,0.2-0.1,0.3
				c0,0,0,0.1,0,0.1c-0.1,1.2-0.9,1.6-1.4,1.6c-0.1,0-0.3,0-0.3-0.1c0,0.1,0,0.1,0,0.2c0,0,0,0.1,0,0.1c0,0,0,0.1,0.1,0.1
				c0.2,0.1,0.7,0.1,1.2-0.2c0.1-0.1,0.2-0.2,0.3-0.3c0,0,0,0,0,0l0,0c0.2-0.2,0.3-0.5,0.4-0.7l0.1-0.2l0.1,0.2
				c0.2,0.4,0.2,0.7,0,1.1l0,0.1l-0.1,0c-0.1-0.1-0.2-0.2-0.3-0.3c-0.1,0.1-0.1,0.2-0.2,0.3c0.1,0.2,0.3,0.3,0.5,0.4l0,0l0,0
				c0,0.2-0.1,0.3-0.1,0.5c-0.1,0.5-0.3,1.1-0.6,1.5c-0.4,0.6-0.8,0.7-1.1,0.6C-234.3,411.5-234.3,411.5-234.4,411.4z M-232.6,408.1
				c0.1,0.1,0.2,0.2,0.3,0.2c0.1-0.3,0.1-0.5,0-0.7C-232.4,407.8-232.5,407.9-232.6,408.1z"/>
		</g>
		<g>
			<path class="st2" d="M-238.1,400c-0.6-0.7-2.2-1.5-2.9-1.8c-0.4-0.2-0.7-0.4-1,0.2c-0.6,0.9-0.6,0.8-0.6,2c0,1.3-0.1,1.2,1.1,2.2
				c0.3,0.2,0.4,0.1,0.8-0.2C-239.9,401.6-238.8,400.6-238.1,400L-238.1,400z"/>
		</g>
		<g>
			<path d="M-241.3,402.7c-0.1,0-0.2,0-0.3-0.1c-1.1-0.9-1.1-0.9-1.1-1.9c0-0.1,0-0.2,0-0.3c0-1,0-1.1,0.4-1.7
				c0.1-0.1,0.1-0.2,0.2-0.4c0.3-0.5,0.6-0.4,1-0.3c0,0,0.1,0,0.1,0.1c0.2,0.1,2.2,0.9,2.9,1.8l0,0l0,0c-1.1,1.1-2,1.8-2.7,2.4
				c-0.1,0-0.1,0.1-0.2,0.1C-241.1,402.6-241.2,402.7-241.3,402.7z M-241.6,398.1c-0.1,0-0.3,0.1-0.4,0.3c-0.1,0.1-0.2,0.3-0.2,0.4
				c-0.3,0.5-0.4,0.6-0.4,1.6c0,0.1,0,0.2,0,0.3c0,0.9,0,0.9,1.1,1.8c0.2,0.2,0.3,0.1,0.5-0.1c0,0,0.1-0.1,0.2-0.1
				c0.7-0.5,1.5-1.3,2.6-2.3c-0.7-0.8-2.6-1.6-2.8-1.7c0,0-0.1,0-0.1-0.1C-241.3,398.1-241.4,398.1-241.6,398.1z"/>
		</g>
		<g>
			<path class="st2" d="M-238.1,400c-0.3,0.2-0.6,0.6-1,1.1c-0.4,0.4-0.3,0.4-0.5-0.3c-0.7,0.2-1.9,0.4-2.5,0.5
				c-0.7,0.2-0.8,0.2-0.8-0.2c0-0.4,0-0.9,0-1.2c0-0.5,0.1-0.5,0.5-0.5c0.4,0,1.9,0.1,2.7,0.1c0.1-0.7,0-0.9,0.4-0.6
				C-238.9,399.2-238.3,399.7-238.1,400L-238.1,400z"/>
		</g>
		<g>
			<path d="M-242.6,401.4c-0.1,0-0.1,0-0.2-0.1c-0.1-0.1-0.1-0.2-0.1-0.3c0-0.4,0-0.9,0-1.2c0-0.2,0-0.4,0.1-0.5
				c0.1-0.1,0.2-0.1,0.4-0.1l0,0c0.1,0,0.4,0,0.7,0c0.6,0,1.4,0.1,2,0.1c0-0.1,0-0.2,0-0.2c0-0.3,0-0.4,0.1-0.5c0.1,0,0.2,0,0.3,0.1
				c0.4,0.3,1,0.8,1.2,1.1l0,0l0,0c-0.2,0.2-0.5,0.5-0.7,0.8c-0.1,0.1-0.1,0.2-0.2,0.3c-0.2,0.2-0.3,0.3-0.4,0.3
				c-0.1,0-0.1-0.1-0.2-0.4c0,0,0-0.1,0-0.1c-0.3,0.1-0.8,0.2-1.2,0.2c-0.5,0.1-0.9,0.2-1.2,0.3
				C-242.3,401.4-242.5,401.4-242.6,401.4z M-242.6,399.5c-0.1,0-0.2,0-0.2,0c0,0-0.1,0.2,0,0.4c0,0.3,0,0.7,0,1.2
				c0,0.1,0,0.2,0,0.2c0.1,0.1,0.3,0,0.7-0.1c0.3-0.1,0.8-0.2,1.2-0.3c0.4-0.1,0.9-0.2,1.2-0.2l0.1,0l0,0.1c0,0.1,0,0.1,0.1,0.2
				c0,0.2,0.1,0.3,0.1,0.4c0,0,0.2-0.2,0.2-0.3c0.1-0.1,0.2-0.2,0.2-0.3c0.2-0.3,0.5-0.6,0.7-0.8c-0.2-0.3-0.8-0.8-1.2-1
				c-0.1-0.1-0.2-0.1-0.2-0.1c0,0,0,0.2-0.1,0.4c0,0.1,0,0.2,0,0.3l0,0.1h-0.1c-0.6,0-1.4,0-2-0.1c-0.3,0-0.6,0-0.7,0l0,0
				C-242.5,399.5-242.5,399.5-242.6,399.5z"/>
		</g>
		<g>
			<polygon class="st2" points="-231.1,404.4 -230.6,404.2 -230.7,404.7 -230.2,405 -230.7,405.2 -230.6,405.8 -231.1,405.5 
				-231.5,406 -231.6,405.4 -232.2,405.4 -231.8,405 -232.2,404.6 -231.6,404.5 -231.5,404 			"/>
		</g>
		<g>
			<path d="M-231.5,406.1l-0.2-0.6l-0.6,0l0.4-0.5l-0.4-0.5l0.6,0l0.1-0.6l0.4,0.5l0.6-0.3l-0.1,0.6l0.6,0.3l-0.6,0.3l0.1,0.6
				l-0.6-0.3L-231.5,406.1z M-232,405.4l0.5,0l0.1,0.5l0.3-0.4l0.4,0.2l-0.1-0.5l0.4-0.2l-0.4-0.2l0,0l0.1-0.4l-0.4,0.2l-0.3-0.4
				l-0.1,0.5l-0.5,0l0.3,0.4L-232,405.4z"/>
		</g>
		<g>
			<path class="st3" d="M-230.5,390.6c-0.2,1-1.2,2-2.4,2.3c-0.3,0.9,0.2,2.3,1,3c3.1,1.4,6.5,0.8,8.4,1.1c0.6,0.1,1.9-0.3,2-1.4
				c0.1-0.9,0.6-1.1,0.8-4.3c0.1-1.7,0.1-3.3,0.3-3.9c0.2-0.7,0.5-1.4,1.1-1.6c0.9-0.4,1.5-1,2.1-1.2c0.8-0.3,1.3-0.4,1.7-0.7
				c0.4-0.3,0.4-1.1-0.5-1.3c-2.1-0.4-3.1,0.8-5.1,0.4c-0.9-0.2-1.7-0.1-1.7,1.1c0.1,1.2,0.1,2.9-1,5.1c-0.8,1.5-1.1,3.2-0.6,4.4
				c-0.7-0.4-1.5-0.5-2.4-1.1C-227.8,391.8-229,391.2-230.5,390.6L-230.5,390.6z"/>
		</g>
		<g>
			<path d="M-223.3,397.1c-0.1,0-0.1,0-0.2,0c-0.6-0.1-1.3-0.1-2.1-0.1c-1.8,0-4.1,0-6.2-1l0,0c-0.7-0.8-1.3-2.1-1-3.1l0,0l0,0
				c1.1-0.3,2.1-1.3,2.3-2.3l0-0.1l0.1,0c1.3,0.4,2.5,1.1,3.6,1.8c0.5,0.4,1,0.5,1.4,0.7c0.3,0.1,0.6,0.2,0.8,0.4
				c-0.4-1.1-0.1-2.8,0.7-4.3c1.2-2.2,1.1-4,1-5c0-0.5,0.1-0.8,0.3-1c0.3-0.3,0.9-0.3,1.4-0.2c0.9,0.2,1.7,0,2.4-0.2
				c0.8-0.2,1.6-0.4,2.7-0.2c0.6,0.1,0.7,0.5,0.8,0.6c0.1,0.3,0,0.6-0.2,0.7c-0.3,0.2-0.7,0.4-1.3,0.5c-0.1,0-0.3,0.1-0.4,0.1
				c0,0-0.1,0-0.1,0c0,0,0,0,0,0v0c-0.2,0.1-0.4,0.2-0.7,0.4c0,0-0.1,0.1-0.1,0.1l0,0c-0.1,0.1-0.3,0.2-0.5,0.3c0,0,0,0,0,0l0,0
				c-0.2,0.1-0.4,0.3-0.7,0.4c-0.6,0.2-0.8,0.9-1.1,1.6c-0.2,0.4-0.2,1.3-0.2,2.3c0,0.5,0,1-0.1,1.5c-0.1,2.2-0.4,3-0.6,3.6
				c-0.1,0.2-0.1,0.5-0.2,0.7c-0.1,0.4-0.3,0.8-0.7,1.1C-222.5,397-223,397.1-223.3,397.1z M-231.8,395.9c2.1,1,4.4,1,6.2,1
				c0.8,0,1.6,0,2.2,0.1c0.3,0.1,0.9-0.1,1.3-0.4c0.2-0.2,0.5-0.5,0.6-1c0-0.3,0.1-0.5,0.2-0.8c0.2-0.6,0.4-1.4,0.6-3.6
				c0-0.5,0.1-1.1,0.1-1.5c0-1.1,0.1-1.9,0.2-2.4c0.3-0.7,0.5-1.4,1.2-1.7c0.3-0.1,0.5-0.2,0.7-0.4c0.1-0.1,0.1-0.2,0.1-0.3
				c0-0.3-0.3-0.8-0.8-1.3l0.1-0.1c0.6,0.5,0.8,1,0.8,1.4c0,0,0,0.1,0,0.1c0.1-0.1,0.1-0.1,0.2-0.2c0,0,0.1,0,0.1-0.1
				c0.2-0.2,0.3-0.5-0.3-1.4l0.1-0.1c0.4,0.6,0.6,1,0.5,1.3c0.2-0.1,0.3-0.2,0.5-0.3c0.1,0,0.1-0.1,0.2-0.2c0.1-0.2-0.1-0.5-0.3-0.8
				l0.1-0.1c0.2,0.3,0.4,0.7,0.3,0.9c0,0,0,0.1,0,0.1c0.1,0,0.2-0.1,0.3-0.1c0.6-0.2,0.9-0.3,1.2-0.5c0.2-0.1,0.2-0.4,0.2-0.6
				c0-0.2-0.2-0.4-0.7-0.6c-1-0.2-1.8,0-2.6,0.2c-0.7,0.2-1.5,0.4-2.5,0.2c-0.7-0.1-1.1-0.1-1.3,0.1c-0.2,0.2-0.3,0.5-0.3,0.9
				c0.1,1.1,0.2,2.8-1,5.1c-0.8,1.5-1.1,3.2-0.6,4.3l0.1,0.2l-0.2-0.1c-0.3-0.2-0.6-0.3-1-0.4c-0.5-0.2-0.9-0.4-1.5-0.7
				c-1.1-0.8-2.3-1.4-3.5-1.8c-0.3,1-1.2,2-2.4,2.3C-233.1,393.9-232.5,395.2-231.8,395.9z"/>
		</g>
		<g>
			<path class="st2" d="M-231.5,392.2c1.6,0.6,1.5,1.2,3.6,1.6c1.2,0.3,2.6,0.8,3.2,1.1l0.1-0.3c-0.6-0.3-2-0.9-3.2-1.1
				c-2-0.4-2-1-3.4-1.5C-231.3,392.1-231.4,392.2-231.5,392.2L-231.5,392.2z"/>
		</g>
		<g>
			<path d="M-224.6,395.1L-224.6,395.1c-0.7-0.4-2.1-0.9-3.3-1.2c-1.2-0.2-1.7-0.6-2.2-0.9c-0.4-0.2-0.7-0.5-1.4-0.7l-0.1,0l0.1-0.1
				c0.1,0,0.2-0.1,0.2-0.2l0,0l0,0c0.6,0.2,0.9,0.5,1.3,0.7c0.5,0.3,1,0.6,2.1,0.9c1.2,0.3,2.6,0.8,3.3,1.1l0,0L-224.6,395.1z
				 M-231.4,392.2c0.6,0.2,1,0.5,1.3,0.7c0.5,0.3,1,0.6,2.1,0.9c1.2,0.2,2.5,0.7,3.2,1.1l0-0.1c-0.6-0.3-2-0.8-3.2-1.1
				c-1.2-0.2-1.7-0.6-2.2-0.9c-0.3-0.2-0.7-0.4-1.2-0.6C-231.3,392.1-231.3,392.2-231.4,392.2z"/>
		</g>
		<g>
			<path class="st2" d="M-230.6,391c0.2,0.1,0.4,0.2,0.6,0.3c-0.1,0.5-0.9,0.9-0.6,1.1c0.1,0,0.4,0.2,0.5,0.3
				c-0.2-0.1,0.7-0.9,0.7-1.1c0.9,0.3,1.7,1,2.3,1.2c-0.1,0.4-0.6,0.8-0.3,0.9c0.2,0,0.5,0.1,0.7,0.2c-0.2-0.1,0.2-0.4,0.2-0.7
				c0.5,0.2,1.4,0.6,1.8,0.8l0.2-0.4c-0.7-0.4-1.5-0.5-2.4-1.1c-0.9-0.6-2.1-1.3-3.6-1.8C-230.5,390.7-230.5,390.9-230.6,391
				L-230.6,391z"/>
		</g>
		<g>
			<path d="M-224.6,394.1L-224.6,394.1c-0.4-0.2-1.3-0.6-1.8-0.8c0,0.1-0.1,0.2-0.1,0.3c0,0.1-0.1,0.2-0.1,0.2c0,0,0,0,0,0l0,0.1
				l0,0l-0.2-0.1c-0.2-0.1-0.4-0.1-0.6-0.1c-0.1,0-0.1-0.1-0.1-0.1c0-0.1,0.1-0.3,0.2-0.5c0.1-0.1,0.2-0.3,0.2-0.4
				c-0.3-0.1-0.6-0.3-0.9-0.5c-0.4-0.2-0.8-0.5-1.3-0.7c0,0.1-0.2,0.2-0.4,0.4c-0.2,0.2-0.4,0.4-0.4,0.5l0,0c0,0,0,0,0,0l-0.1,0.1
				c-0.2-0.1-0.4-0.3-0.5-0.3c-0.1,0-0.1-0.1-0.1-0.1c0-0.1,0.1-0.3,0.3-0.5c0.1-0.2,0.3-0.3,0.4-0.5c-0.2-0.1-0.3-0.2-0.5-0.3l0,0
				l0,0c0-0.1,0.1-0.3,0.1-0.4l0-0.1l0.1,0c1.3,0.4,2.5,1.1,3.6,1.8c0.5,0.4,1,0.5,1.4,0.7c0.3,0.1,0.7,0.3,1,0.4l0.1,0
				L-224.6,394.1z M-226.6,393.1L-226.6,393.1c0.6,0.2,1.5,0.6,1.9,0.8l0.2-0.3c-0.3-0.2-0.6-0.3-0.9-0.4c-0.5-0.2-0.9-0.4-1.5-0.7
				c-1.1-0.8-2.3-1.4-3.5-1.8c0,0.1-0.1,0.2-0.1,0.3c0.2,0.1,0.4,0.2,0.5,0.2l0.1,0l0,0.1c-0.1,0.2-0.3,0.4-0.4,0.6
				c-0.1,0.1-0.3,0.3-0.2,0.3c0,0,0,0,0,0c0.1,0,0.3,0.2,0.4,0.2c0-0.1,0.2-0.3,0.4-0.5c0.1-0.2,0.3-0.4,0.3-0.4l0-0.1l0.1,0
				c0.5,0.2,1,0.5,1.4,0.7c0.4,0.2,0.7,0.4,0.9,0.5l0.1,0l0,0.1c0,0.2-0.1,0.3-0.2,0.5c-0.1,0.1-0.2,0.3-0.2,0.3c0,0,0,0,0,0
				c0.1,0,0.4,0.1,0.6,0.2l0,0c0-0.1,0.1-0.2,0.1-0.3c0.1-0.1,0.1-0.2,0.1-0.3L-226.6,393.1z M-220.7,392.5l-0.1,0
				c0-0.1,0-0.1-0.1-0.2c-0.2-0.3-1.2-0.4-2.6-0.5l0-0.1c0.7,0,2.3,0.1,2.6,0.5C-220.7,392.3-220.7,392.4-220.7,392.5z
				 M-223.7,391.7l-0.1,0c0-0.2,0.1-0.4,0.1-0.7l0.1,0C-223.6,391.2-223.6,391.4-223.7,391.7z M-222.5,388.1l-0.1,0
				c0.1-0.2,0.1-0.3,0.1-0.5l0.1,0C-222.4,387.8-222.5,387.9-222.5,388.1z"/>
		</g>
		<g>
			<path class="st2" d="M-223.2,393.9c-0.5-1.1-0.3-3,0.4-4.4c0.8-1.7,0.9-3.1,0.8-4.2c0.2,0,0.3-0.1,0.4-0.1c1.5-0.7,2.4,0.5,2,0.8
				c0.2-0.1,0.3-0.2,0.4-0.2c0.2-0.1,0-0.8-0.7-1.1c-0.3-0.1-0.9-0.1-1.2-0.1c0.3-0.3,0.5-0.5,0.9-0.5c0,0.2,0,0.4-0.1,0.5
				c0.1,0,0.3,0,0.5,0.1c0.1-0.2,0.2-0.4,0.2-0.7c0.7-0.2,1.4-0.5,2.1-0.4c1.1,0.1,1.4,0.8,0.5,1.1c0.8-0.3,1.3-0.4,1.7-0.7
				c0.4-0.3,0.4-1.1-0.5-1.3c-2.1-0.4-3.1,0.8-5.1,0.4c-0.9-0.2-1.8-0.1-1.7,1.1c0,0.2,0,0.2,0,0.3c0,0.4-0.5,0.6-1.1,0.3
				c0.4,0.5,0.6,0.5,1.1,0.5c0-0.2,0.4,0.1,0.5,0c0,0.7,0,1.4-0.2,2.3c-0.3-0.1-0.6-0.2-0.7,0.1c0,0.1-0.1,0.3-0.2,0.4
				c0.1-0.3,0.4-0.2,0.7,0c-0.1,0.4-0.3,0.8-0.5,1.3c-0.2,0.5-0.4,1.1-0.6,1.7c-0.3-0.1-0.8-0.2-0.9,0.1c-0.1,0.3-0.1,0.5-0.1,0.8
				c0-0.4,0.6-0.3,0.9-0.2c-0.1,0.8,0,1.5,0.2,2.1L-223.2,393.9L-223.2,393.9z"/>
		</g>
		<g>
			<path d="M-223.1,394l-0.5-0.2l0,0c-0.2-0.5-0.3-1.3-0.2-2.1c-0.2,0-0.5-0.1-0.6,0c-0.1,0-0.1,0.1-0.1,0.2c0,0,0,0,0,0l-0.1,0
				c0,0,0,0,0,0c0-0.2,0.1-0.5,0.1-0.8c0-0.1,0.1-0.1,0.1-0.2c0.1-0.1,0.4-0.1,0.7,0c0.1-0.5,0.3-1.1,0.6-1.6
				c0.2-0.4,0.4-0.8,0.5-1.2c-0.1-0.1-0.4-0.1-0.5-0.1c0,0-0.1,0.1-0.1,0.1l-0.1,0l0,0l0,0l0,0c0.1-0.2,0.1-0.3,0.1-0.4
				c0-0.1,0.1-0.2,0.2-0.2c0.1-0.1,0.3,0,0.5,0.1c0.2-0.7,0.2-1.4,0.2-2.2c-0.1,0-0.1,0-0.2,0c-0.1,0-0.2-0.1-0.2,0l0,0.1l-0.1,0
				c-0.4,0-0.6,0-1-0.5l0.1-0.1c0.3,0.2,0.5,0.2,0.8,0.1c0.1-0.1,0.2-0.2,0.2-0.3c0-0.1,0-0.1,0-0.2l0-0.2c0-0.5,0.1-0.8,0.3-1
				c0.4-0.3,1-0.3,1.4-0.2c0.9,0.2,1.7,0,2.4-0.2c0.8-0.2,1.6-0.4,2.7-0.2c0.6,0.1,0.7,0.5,0.8,0.6c0.1,0.3,0,0.6-0.2,0.7
				c-0.3,0.2-0.7,0.4-1.3,0.5c-0.1,0-0.2,0.1-0.3,0.1c0,0-0.1,0-0.2,0l0-0.1c0.1,0,0.1,0,0.1,0c0.2-0.1,0.4-0.2,0.3-0.4
				c0-0.2-0.4-0.5-1-0.5c-0.5,0-1,0.1-1.6,0.3c-0.1,0-0.3,0.1-0.4,0.1c0,0.2,0,0.5-0.1,0.6c0.6,0.3,0.8,0.8,0.8,1
				c0,0.1,0,0.2-0.1,0.2c0,0,0,0-0.1,0c-0.1,0-0.2,0.1-0.3,0.2l-0.1-0.1c0.1-0.1,0.1-0.3,0-0.4c-0.2-0.4-0.9-0.7-1.9-0.3
				c0,0-0.1,0-0.1,0c-0.1,0-0.2,0.1-0.3,0.1c0,0.9,0,2.3-0.8,4.1c-0.7,1.6-0.8,3.3-0.4,4.4L-223.1,394z M-223.5,393.7l0.1,0.1
				c-0.5-1.2-0.2-3.1,0.4-4.3c0.8-1.8,0.8-3.2,0.8-4.1l0-0.1l0.1,0c0,0,0,0,0,0c0.1,0,0.2,0,0.3-0.1c0,0,0.1,0,0.1,0
				c1.1-0.5,1.8,0,2.1,0.4c0.1,0.1,0.1,0.2,0.1,0.4c0.1,0,0.1-0.1,0.2-0.1c0,0,0,0,0.1,0c0,0,0,0,0-0.1c0-0.2-0.2-0.7-0.7-0.9l0,0
				c0,0,0,0,0,0c-0.1,0-0.2-0.1-0.4-0.1c0,0,0,0,0,0l0,0c-0.3,0-0.6,0-0.8,0l-0.2,0l0.1-0.1c0.3-0.3,0.5-0.5,0.9-0.5l0.1,0l0,0.1
				c0,0.1,0,0.3-0.1,0.4c0.1,0,0.2,0,0.3,0.1c0.1-0.2,0.1-0.4,0.1-0.6l0-0.1l0,0c0.2,0,0.3-0.1,0.5-0.1c0.5-0.2,1.1-0.3,1.6-0.3
				c0.7,0,1.1,0.3,1.1,0.6c0,0.1,0,0.2-0.1,0.3c0.5-0.2,0.9-0.3,1.1-0.5c0.2-0.1,0.2-0.4,0.2-0.6c0-0.2-0.2-0.4-0.7-0.6
				c-1-0.2-1.8,0-2.6,0.2c-0.7,0.2-1.5,0.4-2.5,0.2c-0.7-0.1-1.1-0.1-1.3,0.1c-0.2,0.2-0.3,0.5-0.2,0.9l0,0.2c0,0.1,0,0.1,0,0.2
				c0,0.2-0.1,0.3-0.3,0.4c-0.2,0.1-0.4,0.1-0.6,0c0.2,0.2,0.4,0.2,0.7,0.2l0,0c0,0,0,0,0,0c0.1-0.1,0.2,0,0.3,0
				c0.1,0,0.2,0.1,0.2,0l0.1,0l0,0.1c0,0.8-0.1,1.6-0.2,2.3l0,0.1l-0.1,0c-0.2-0.1-0.4-0.1-0.5-0.1c0,0-0.1,0.1-0.1,0.1
				c0,0.1,0,0.1-0.1,0.2c0.2,0,0.4,0,0.6,0.1l0.1,0l0,0.1c-0.1,0.4-0.3,0.9-0.5,1.3c-0.2,0.5-0.4,1.1-0.6,1.6l0,0.1l-0.1,0
				c-0.4-0.1-0.6-0.1-0.7,0c0,0-0.1,0.1-0.1,0.1c0,0.2-0.1,0.3-0.1,0.5c0.2-0.1,0.5-0.1,0.7,0l0.1,0l0,0.1
				C-223.8,392.5-223.7,393.2-223.5,393.7z M-220.3,384.1c-0.3,0.1-0.4,0.1-0.6,0.4c0.2,0,0.4,0,0.6,0
				C-220.4,384.3-220.3,384.2-220.3,384.1z"/>
		</g>
		<g>
			<path class="st2" d="M-224.7,393.3c-0.4,0.8-0.2,2.6-0.1,3.4c0.1,0.4,0,0.8,0.7,0.8c1.1,0,1,0.2,2-0.5c1.1-0.6,1-0.5,1.3-2
				c0.1-0.4-0.1-0.4-0.6-0.6C-222.3,394-223.8,393.5-224.7,393.3L-224.7,393.3z"/>
		</g>
		<g>
			<path d="M-223.3,397.6c-0.1,0-0.2,0-0.4,0c-0.1,0-0.3,0-0.4,0c-0.6,0-0.7-0.3-0.7-0.7c0,0,0-0.1,0-0.1c0-0.2-0.3-2.4,0.1-3.4
				l0-0.1l0.1,0c1.5,0.4,2.6,0.8,3.4,1.1c0.1,0,0.1,0.1,0.2,0.1c0.3,0.1,0.5,0.2,0.4,0.6c-0.3,1.4-0.3,1.4-1.1,1.9
				c-0.1,0-0.2,0.1-0.3,0.2C-222.7,397.5-223,397.6-223.3,397.6z M-224.6,393.4c-0.4,1-0.1,3.1-0.1,3.3c0,0,0,0.1,0,0.1
				c0,0.4,0.1,0.6,0.6,0.6c0.2,0,0.3,0,0.4,0c0.6,0,0.7,0,1.6-0.5c0.1-0.1,0.2-0.1,0.3-0.2c0.8-0.5,0.8-0.5,1-1.8
				c0.1-0.3,0-0.3-0.3-0.4c-0.1,0-0.1,0-0.2-0.1C-222.1,394.1-223.2,393.8-224.6,393.4z"/>
		</g>
		<g>
			<path class="st2" d="M-224.7,393.2c0.3,0.1,0.9,0.2,1.4,0.3c0.6,0.1,0.5,0.1,0,0.6c0.5,0.6,1.3,1.4,1.7,1.9
				c0.5,0.5,0.5,0.6,0.3,0.8c-0.4,0.2-0.8,0.5-1,0.6c-0.4,0.3-0.5,0.2-0.7-0.2c-0.2-0.4-0.8-1.7-1.3-2.4c-0.7,0.3-0.8,0.4-0.7,0
				C-225,394.3-224.8,393.5-224.7,393.2L-224.7,393.2z"/>
		</g>
		<g>
			<path d="M-222.7,397.7C-222.7,397.7-222.8,397.7-222.7,397.7c-0.2,0-0.2-0.2-0.3-0.3l0,0c-0.1-0.1-0.2-0.4-0.3-0.6
				c-0.3-0.5-0.6-1.2-0.9-1.7c-0.1,0-0.2,0.1-0.2,0.1c-0.3,0.1-0.4,0.2-0.5,0.1c-0.1-0.1-0.1-0.2-0.1-0.3c0.1-0.5,0.2-1.3,0.4-1.6
				l0-0.1l0.1,0c0.3,0.1,0.6,0.2,1,0.2c0.1,0,0.2,0,0.3,0.1c0.3,0.1,0.4,0.1,0.4,0.2c0,0.1-0.1,0.2-0.3,0.4c0,0-0.1,0.1-0.1,0.1
				c0.2,0.3,0.5,0.6,0.8,0.9c0.3,0.4,0.6,0.7,0.8,0.9c0.3,0.3,0.5,0.5,0.4,0.7c0,0.1-0.1,0.2-0.2,0.2c-0.4,0.2-0.8,0.5-1,0.6
				C-222.5,397.6-222.6,397.7-222.7,397.7z M-224.3,394.7L-224.3,394.7c0.3,0.6,0.7,1.3,1,1.9c0.1,0.3,0.3,0.5,0.3,0.6l0,0
				c0.1,0.2,0.1,0.3,0.2,0.3c0.1,0,0.2,0,0.3-0.2c0.2-0.2,0.6-0.4,1-0.6c0.1-0.1,0.1-0.1,0.1-0.1c0-0.1-0.2-0.3-0.4-0.5
				c-0.2-0.2-0.5-0.6-0.8-0.9c-0.3-0.3-0.6-0.7-0.8-0.9l0,0l0,0c0.1-0.1,0.1-0.1,0.1-0.2c0.1-0.1,0.2-0.2,0.2-0.3
				c0,0-0.2-0.1-0.3-0.1c-0.1,0-0.2,0-0.3-0.1c-0.4-0.1-0.7-0.1-1-0.2c-0.1,0.4-0.3,1.1-0.3,1.5c0,0.2,0,0.2,0,0.2c0,0,0,0,0,0
				c0,0,0.2-0.1,0.3-0.1C-224.5,394.9-224.4,394.8-224.3,394.7L-224.3,394.7z"/>
		</g>
		<g>
			<polygon class="st2" points="-224.3,385 -224.8,384.7 -224.2,384.5 -224.3,383.9 -223.8,384.2 -223.4,383.9 -223.3,384.4 
				-222.8,384.5 -223.2,384.9 -222.9,385.4 -223.5,385.3 -223.7,385.8 -224,385.3 -224.5,385.5 			"/>
		</g>
		<g>
			<path d="M-223.7,386l-0.3-0.5l-0.6,0.2l0.2-0.6l-0.5-0.4l0.6-0.2l0-0.6l0.5,0.3l0.5-0.4l0.1,0.6l0.6,0.1l-0.5,0.4l0.3,0.6
				l-0.6-0.1L-223.7,386z M-223.9,385.3l0.3,0.4l0.2-0.4l0.5,0.1l-0.2-0.4l0.3-0.3l-0.5-0.1l0-0.5l-0.4,0.3l-0.4-0.3l0,0.5l-0.5,0.1
				l0.4,0.3l-0.2,0.4L-223.9,385.3z"/>
		</g>
	</g>
</g>
</svg>
