<?xml version="1.0" encoding="utf-8"?>
<!-- Generator: Adobe Illustrator 19.0.0, SVG Export Plug-In . SVG Version: 6.00 Build 0)  -->
<svg version="1.1" id="Layer_1" xmlns="http://www.w3.org/2000/svg" xmlns:xlink="http://www.w3.org/1999/xlink" x="0px" y="0px"
	 viewBox="-269 374 72 46" style="enable-background:new -269 374 72 46;" xml:space="preserve">
<style type="text/css">
	.st0{clip-path:url(#SVGID_2_);}
	.st1{fill:#FFFFFF;}
	.st2{fill:#EF7D00;}
	.st3{fill:#007A4D;}
	.st4{fill:#002C51;}
</style>
<g>
	<defs>
		<path id="SVGID_1_" d="M-204,420H-262c-3.8,0-7-3.1-7-7V381c0-3.8,3.1-7,7-7h58.1c3.8,0,7,3.1,7,7V413
			C-197,416.9-200.1,420-204,420z"/>
	</defs>
	<clipPath id="SVGID_2_">
		<use xlink:href="#SVGID_1_"  style="overflow:visible;"/>
	</clipPath>
	<g class="st0">
		<g>
			<polygon class="st1" points="-195.9,405.1 -270.1,405.1 -270.1,388.6 -195.9,388.6 			"/>
		</g>
		<g>
			<path d="M-195.8,405.3h-74.5v-16.7h74.5V405.3z M-270,405h74v-16.2h-74V405z"/>
		</g>
		<g>
			<polygon class="st2" points="-195.9,388.6 -270.1,388.6 -270.1,372.1 -195.9,372.1 			"/>
		</g>
		<g>
			<path d="M-195.8,388.8h-74.5V372h74.5V388.8z M-270,388.5h74v-16.2h-74V388.5z"/>
		</g>
		<g>
			<polygon class="st3" points="-270.1,421.6 -195.9,421.6 -195.9,405.1 -270.1,405.1 			"/>
		</g>
		<g>
			<path d="M-195.8,421.7h-74.5V405h74.5V421.7z M-270,421.5h74v-16.2h-74V421.5z"/>
		</g>
		<g>
			<path class="st4" d="M-233,404.5c4.2,0,7.7-3.4,7.7-7.7c0-4.2-3.4-7.7-7.7-7.7c-4.2,0-7.7,3.4-7.7,7.7
				C-240.7,401.1-237.2,404.5-233,404.5L-233,404.5z"/>
		</g>
		<g>
			<path class="st4" d="M-233,396.9"/>
		</g>
		<g>
			<path class="st1" d="M-231.7,390.2c0,0.2-0.3,0.4-0.5,0.4c-0.2,0-0.4-0.3-0.4-0.5c-0.3,0-0.7,0-0.9,0c0,0.2-0.1,0.5-0.4,0.5
				c-0.2,0-0.5-0.1-0.5-0.4c-0.3,0-0.6,0.1-0.9,0.2c0.1,0.2,0,0.5-0.2,0.6c-0.2,0.1-0.5,0-0.6-0.2c-0.2,0.1-0.6,0.3-0.8,0.4
				c0.1,0.2,0.1,0.5-0.1,0.6c-0.2,0.1-0.5,0.1-0.6-0.1c-0.2,0.2-0.5,0.4-0.6,0.6c0.2,0.1,0.2,0.4,0.1,0.6c-0.1,0.2-0.4,0.2-0.6,0.1
				c-0.2,0.2-0.4,0.6-0.4,0.8c0.2,0.1,0.3,0.3,0.2,0.6c-0.1,0.2-0.4,0.3-0.6,0.2c-0.1,0.3-0.2,0.6-0.2,0.9c0.2,0,0.4,0.3,0.4,0.5
				c0,0.2-0.3,0.4-0.5,0.4c0,0.3,0,0.7,0,0.9c0.2,0,0.5,0.1,0.5,0.4c0,0.2-0.1,0.5-0.4,0.5c0,0.3,0.1,0.6,0.2,0.9
				c0.2-0.1,0.5,0,0.6,0.2c0.1,0.2,0,0.5-0.2,0.6c0.1,0.2,0.3,0.6,0.4,0.8c0.2-0.1,0.5-0.1,0.6,0.1c0.1,0.2,0.1,0.5-0.1,0.6
				c0.2,0.2,0.4,0.5,0.6,0.6c0.1-0.2,0.4-0.2,0.6-0.1c0.2,0.1,0.2,0.4,0.1,0.6c0.2,0.2,0.6,0.4,0.8,0.4c0.1-0.2,0.3-0.3,0.6-0.2
				c0.2,0.1,0.3,0.4,0.2,0.6c0.3,0.1,0.6,0.2,0.9,0.2c0-0.2,0.3-0.4,0.5-0.4c0.2,0,0.4,0.3,0.4,0.5c0.3,0,0.7,0,0.9,0
				c0-0.2,0.1-0.5,0.4-0.5c0.2,0,0.5,0.1,0.5,0.4c0.3,0,0.6-0.1,0.9-0.2c-0.1-0.2,0-0.5,0.2-0.6c0.2-0.1,0.5,0,0.6,0.2
				c0.2-0.1,0.6-0.3,0.8-0.4c-0.1-0.2-0.1-0.5,0.1-0.6c0.2-0.1,0.5-0.1,0.6,0.1c0.2-0.2,0.5-0.4,0.6-0.6c-0.2-0.1-0.2-0.4-0.1-0.6
				c0.1-0.2,0.4-0.2,0.6-0.1c0.2-0.2,0.4-0.6,0.4-0.8c-0.2-0.1-0.3-0.3-0.2-0.6c0.1-0.2,0.4-0.3,0.6-0.2c0.1-0.3,0.2-0.6,0.2-0.9
				c-0.2,0-0.4-0.3-0.4-0.5c0-0.2,0.3-0.4,0.5-0.4c0-0.3,0-0.7,0-0.9c-0.2,0-0.5-0.1-0.5-0.4c0-0.2,0.1-0.5,0.4-0.5
				c0-0.3-0.1-0.6-0.2-0.9c-0.2,0.1-0.5,0-0.6-0.2c-0.1-0.2,0-0.5,0.2-0.6c-0.1-0.2-0.3-0.6-0.4-0.8c-0.2,0.1-0.5,0.1-0.6-0.1
				c-0.1-0.2-0.1-0.5,0.1-0.6c-0.2-0.2-0.4-0.5-0.6-0.6c-0.1,0.2-0.4,0.2-0.6,0.1c-0.2-0.1-0.2-0.4-0.1-0.6
				c-0.2-0.2-0.6-0.4-0.8-0.4c-0.1,0.2-0.3,0.3-0.6,0.2c-0.2-0.1-0.3-0.4-0.2-0.6C-231.1,390.4-231.4,390.3-231.7,390.2
				L-231.7,390.2z"/>
		</g>
		<g>
			<path class="st4" d="M-233,396.9c0.1-1.3,0-2,0.2-2.9c-0.1-1.2-0.2-3.2-0.2-3.9c-0.1,0.7-0.1,2.8-0.2,3.9
				C-233,394.9-233.1,395.6-233,396.9L-233,396.9z"/>
		</g>
		<g>
			<path class="st4" d="M-233,396.9c-0.2-1.3-0.5-1.9-0.5-2.8c-0.4-1.1-1-3.1-1.3-3.7c0.1,0.7,0.6,2.7,0.8,3.9
				C-233.5,395-233.4,395.6-233,396.9L-233,396.9z"/>
		</g>
		<g>
			<path class="st4" d="M-233,396.9c-0.6-1.2-1-1.7-1.2-2.6c-0.7-0.9-1.8-2.7-2.2-3.3c0.3,0.6,1.3,2.5,1.8,3.5
				C-234,395.2-233.7,395.8-233,396.9L-233,396.9z"/>
		</g>
		<g>
			<path class="st4" d="M-233,396.9c-0.9-1-1.4-1.4-1.8-2.2c-0.9-0.7-2.4-2.2-3-2.6c0.4,0.5,1.9,2,2.6,3
				C-234.4,395.5-234,396-233,396.9L-233,396.9z"/>
		</g>
		<g>
			<path class="st4" d="M-233,396.9c-1.1-0.7-1.7-1-2.4-1.6c-1.1-0.5-2.9-1.5-3.5-1.8c0.6,0.4,2.4,1.5,3.3,2.2
				C-234.7,395.9-234.2,396.3-233,396.9L-233,396.9z"/>
		</g>
		<g>
			<path class="st4" d="M-233,396.9c-1.2-0.4-1.9-0.5-2.7-1c-1.2-0.2-3.2-0.7-3.9-0.8c0.6,0.2,2.7,0.8,3.7,1.3
				C-234.9,396.4-234.3,396.6-233,396.9L-233,396.9z"/>
		</g>
		<g>
			<path class="st4" d="M-233,396.9c-1.3-0.1-2,0-2.9-0.2c-1.2,0.1-3.2,0.2-3.9,0.2c0.7,0.1,2.8,0.1,3.9,0.2
				C-235,396.9-234.3,397-233,396.9L-233,396.9z"/>
		</g>
		<g>
			<path class="st4" d="M-233,396.9c-1.3,0.2-1.9,0.5-2.8,0.5c-1.1,0.4-3.1,1-3.7,1.3c0.7-0.1,2.7-0.6,3.9-0.8
				C-234.9,397.4-234.2,397.3-233,396.9L-233,396.9z"/>
		</g>
		<g>
			<path class="st4" d="M-233,396.9c-1.2,0.6-1.7,1-2.6,1.2c-0.9,0.7-2.7,1.8-3.3,2.2c0.6-0.3,2.5-1.3,3.5-1.8
				C-234.7,397.9-234.1,397.6-233,396.9L-233,396.9z"/>
		</g>
		<g>
			<path class="st4" d="M-233,396.9c-1,0.9-1.4,1.4-2.2,1.8c-0.7,0.9-2.2,2.4-2.6,3c0.5-0.4,2-1.9,3-2.6
				C-234.4,398.3-233.9,397.9-233,396.9L-233,396.9z"/>
		</g>
		<g>
			<path class="st4" d="M-233,396.9c-0.7,1.1-1,1.7-1.6,2.4c-0.5,1.1-1.5,2.9-1.8,3.5c0.4-0.6,1.5-2.4,2.2-3.3
				C-234,398.6-233.6,398.1-233,396.9L-233,396.9z"/>
		</g>
		<g>
			<path class="st4" d="M-233,396.9c-0.4,1.2-0.5,1.9-1,2.7c-0.2,1.2-0.7,3.2-0.8,3.9c0.2-0.6,0.8-2.7,1.3-3.7
				C-233.5,398.8-233.2,398.2-233,396.9L-233,396.9z"/>
		</g>
		<g>
			<path class="st4" d="M-233,396.9c-0.1,1.3,0,2-0.2,2.9c0.1,1.2,0.2,3.2,0.2,3.9c0.1-0.7,0.1-2.8,0.2-3.9
				C-233,398.9-232.9,398.2-233,396.9L-233,396.9z"/>
		</g>
		<g>
			<path class="st4" d="M-233,396.9c0.2,1.3,0.5,1.9,0.5,2.8c0.4,1.1,1,3.1,1.3,3.7c-0.1-0.7-0.6-2.7-0.8-3.9
				C-232.5,398.8-232.6,398.1-233,396.9L-233,396.9z"/>
		</g>
		<g>
			<path class="st4" d="M-233,396.9c0.6,1.2,1,1.7,1.2,2.6c0.7,0.9,1.8,2.7,2.2,3.3c-0.3-0.6-1.3-2.5-1.8-3.5
				C-232,398.6-232.3,398-233,396.9L-233,396.9z"/>
		</g>
		<g>
			<path class="st4" d="M-233,396.9c0.9,1,1.4,1.4,1.8,2.2c0.9,0.7,2.4,2.2,3,2.6c-0.4-0.5-1.9-2-2.6-3
				C-231.6,398.3-232,397.7-233,396.9L-233,396.9z"/>
		</g>
		<g>
			<path class="st4" d="M-233,396.9c1.1,0.7,1.7,1,2.4,1.6c1.1,0.5,2.9,1.5,3.5,1.8c-0.6-0.4-2.4-1.5-3.3-2.2
				C-231.3,397.9-231.8,397.5-233,396.9L-233,396.9z"/>
		</g>
		<g>
			<path class="st4" d="M-233,396.9c1.2,0.4,1.9,0.5,2.7,1c1.2,0.2,3.2,0.7,3.9,0.8c-0.6-0.2-2.7-0.8-3.7-1.3
				C-231.1,397.4-231.7,397.1-233,396.9L-233,396.9z"/>
		</g>
		<g>
			<path class="st4" d="M-233,396.9c1.3,0.1,2,0,2.9,0.2c1.2-0.1,3.2-0.2,3.9-0.2c-0.7-0.1-2.8-0.1-3.9-0.2
				C-231,396.9-231.7,396.8-233,396.9L-233,396.9z"/>
		</g>
		<g>
			<path class="st4" d="M-233,396.9c1.3-0.2,1.9-0.5,2.8-0.5c1.1-0.4,3.1-1,3.7-1.3c-0.7,0.1-2.7,0.6-3.9,0.8
				C-231.1,396.3-231.8,396.5-233,396.9L-233,396.9z"/>
		</g>
		<g>
			<path class="st4" d="M-233,396.9c1.2-0.6,1.7-1,2.6-1.2c0.9-0.7,2.7-1.8,3.3-2.2c-0.6,0.3-2.5,1.3-3.5,1.8
				C-231.3,395.9-231.9,396.1-233,396.9L-233,396.9z"/>
		</g>
		<g>
			<path class="st4" d="M-233,396.9c1-0.9,1.4-1.4,2.2-1.8c0.7-0.9,2.2-2.4,2.6-3c-0.5,0.4-2,1.9-3,2.6
				C-231.6,395.4-232.1,395.9-233,396.9L-233,396.9z"/>
		</g>
		<g>
			<path class="st4" d="M-233,396.9c0.7-1.1,1-1.7,1.6-2.4c0.5-1.1,1.5-2.9,1.8-3.5c-0.4,0.6-1.5,2.4-2.2,3.3
				C-232,395.1-232.4,395.7-233,396.9L-233,396.9z"/>
		</g>
		<g>
			<path class="st4" d="M-233,396.9c0.4-1.2,0.5-1.9,1-2.7c0.2-1.2,0.7-3.2,0.8-3.9c-0.2,0.6-0.8,2.7-1.3,3.7
				C-232.5,394.9-232.8,395.6-233,396.9L-233,396.9z"/>
		</g>
	</g>
</g>
</svg>
