<?xml version="1.0" encoding="utf-8"?>
<!-- Generator: Adobe Illustrator 19.0.0, SVG Export Plug-In . SVG Version: 6.00 Build 0)  -->
<svg version="1.1" id="Layer_1" xmlns="http://www.w3.org/2000/svg" xmlns:xlink="http://www.w3.org/1999/xlink" x="0px" y="0px"
	 viewBox="-269 374 72 46" style="enable-background:new -269 374 72 46;" xml:space="preserve">
<style type="text/css">
	.st0{clip-path:url(#SVGID_2_);}
	.st1{fill:#FFFFFF;}
	.st2{fill:none;stroke:#000000;stroke-width:0.25;}
	.st3{fill:#003671;}
	.st4{fill:#A19288;}
	.st5{fill:#31AA47;}
	.st6{fill:#A6CA56;}
	.st7{fill:#FFE000;}
	.st8{fill:none;stroke:#000000;stroke-width:0.125;}
	.st9{fill:#DC2F34;}
</style>
<g>
	<defs>
		<path id="SVGID_1_" d="M-204,420H-262c-3.8,0-7-3.1-7-7V381c0-3.8,3.1-7,7-7h58.1c3.8,0,7,3.1,7,7V413
			C-197,416.9-200.1,420-204,420z"/>
	</defs>
	<clipPath id="SVGID_2_">
		<use xlink:href="#SVGID_1_"  style="overflow:visible;"/>
	</clipPath>
	<g class="st0">
		<g>
			<polygon class="st1" points="-192.7,421.2 -192.7,372.8 -273.3,372.8 -273.3,421.2 			"/>
		</g>
		<g>
			<path d="M-192.5,421.3h-80.9v-48.7h80.9V421.3z M-273.2,421.1h80.4v-48.2h-80.4V421.1z"/>
		</g>
		<g>
			<path class="st1" d="M-233,397"/>
		</g>
		<g>
			<path class="st2" d="M-233,397"/>
		</g>
		<g>
			<path class="st3" d="M-192.7,419.2c-7,3.7-10.7-3.4-16.1,0c-6.7,4.2-10.7-3.4-16.1,0c-6.7,4.2-10.7-3.4-16.1,0
				c-6.7,4.2-10.7-3.4-16.1,0c-6.7,4.2-10.7-3.4-16.1,0v-4c5.4-3.4,9.4,4.2,16.1,0c5.4-3.4,9.4,4.2,16.1,0c5.4-3.4,9.4,4.2,16.1,0
				c5.4-3.4,9.4,4.2,16.1,0c5.4-3.4,9.2,3.7,16.1,0V419.2L-192.7,419.2z"/>
		</g>
		<g>
			<path d="M-229.1,420.6c-1.7,0-3.2-0.6-4.8-1.2c-2.3-0.9-4.6-1.7-7.1-0.2c-3.6,2.2-6.4,1.2-9.1,0.2c-2.3-0.9-4.6-1.7-7.1-0.2
				c-3.6,2.2-6.4,1.2-9,0.2c-2.3-0.9-4.6-1.7-7.1-0.2l-0.2,0.1v-4.3l0.1,0c2.6-1.6,4.9-0.8,7.3,0.1c2.6,1,5.3,2,8.8-0.1
				c2.6-1.6,4.9-0.8,7.3,0.1c2.6,1,5.3,2,8.8-0.1c2.6-1.6,4.9-0.8,7.3,0.1c2.6,1,5.3,2,8.8-0.1c2.6-1.6,4.9-0.8,7.3,0.1
				c2.6,1,5.3,2,8.8-0.1c2.7-1.7,4.9-0.9,7.3,0c2.6,0.9,5.3,1.9,8.8,0l0.2-0.1v4.3l-0.1,0c-3.7,2-6.5,0.9-9,0
				c-2.3-0.8-4.5-1.6-7.1,0c-3.6,2.2-6.4,1.2-9.1,0.2c-2.3-0.9-4.6-1.7-7.1-0.2C-226.4,420.3-227.8,420.6-229.1,420.6z M-238,418.2
				c1.4,0,2.8,0.5,4.2,1.1c2.6,1,5.3,2,8.8-0.1c2.6-1.6,4.9-0.8,7.3,0.1c2.6,1,5.3,2,8.8-0.1c2.7-1.7,4.9-0.9,7.3,0
				c2.6,0.9,5.2,1.9,8.7,0v-3.8c-3.6,1.8-6.4,0.8-8.8-0.1c-2.3-0.8-4.5-1.6-7.1,0c-3.6,2.2-6.4,1.2-9.1,0.2
				c-2.3-0.9-4.6-1.7-7.1-0.2c-3.6,2.2-6.4,1.2-9.1,0.2c-2.3-0.9-4.6-1.7-7.1-0.2c-3.6,2.2-6.4,1.2-9.1,0.2
				c-2.3-0.9-4.6-1.7-7.1-0.2c-3.6,2.2-6.4,1.2-9,0.2c-2.3-0.9-4.5-1.7-7-0.2v3.7c2.5-1.5,4.8-0.6,7.1,0.3c2.6,1,5.3,2,8.8-0.1
				c2.6-1.6,4.9-0.8,7.3,0.1c2.6,1,5.3,2,8.8-0.1C-240.1,418.4-239,418.2-238,418.2z"/>
		</g>
		<g>
			<path class="st3" d="M-192.7,411.1c-7,3.7-10.7-3.4-16.1,0c-6.7,4.2-10.7-3.4-16.1,0c-6.7,4.2-10.7-3.4-16.1,0
				c-6.7,4.2-10.7-3.4-16.1,0c-6.7,4.2-10.7-3.4-16.1,0v-4c5.4-3.4,9.4,4.2,16.1,0c5.4-3.4,9.4,4.2,16.1,0c5.4-3.4,9.4,4.2,16.1,0
				c5.4-3.4,9.4,4.2,16.1,0c5.4-3.4,9.2,3.7,16.1,0V411.1L-192.7,411.1z"/>
		</g>
		<g>
			<path d="M-229.1,412.5c-1.7,0-3.2-0.6-4.8-1.2c-2.3-0.9-4.6-1.7-7.1-0.2c-3.6,2.2-6.4,1.2-9.1,0.2c-2.3-0.9-4.6-1.7-7.1-0.2
				c-3.6,2.2-6.4,1.2-9,0.2c-2.3-0.9-4.6-1.7-7.1-0.2l-0.2,0.1V407l0.1,0c2.6-1.6,4.9-0.8,7.3,0.1c2.6,1,5.3,2,8.8-0.1
				c2.6-1.6,4.9-0.8,7.3,0.1c2.6,1,5.3,2,8.8-0.1c2.6-1.6,4.9-0.8,7.3,0.1c2.6,1,5.3,2,8.8-0.1c2.6-1.6,4.9-0.8,7.3,0.1
				c2.6,1,5.3,2,8.8-0.1c2.7-1.7,4.9-0.9,7.3,0c2.6,0.9,5.2,1.9,8.8,0l0.2-0.1v4.3l-0.1,0c-3.7,2-6.5,0.9-9,0
				c-2.3-0.8-4.5-1.6-7.1,0c-3.6,2.2-6.4,1.2-9.1,0.2c-2.3-0.9-4.6-1.7-7.1-0.2C-226.4,412.2-227.8,412.5-229.1,412.5z M-238,410.1
				c1.4,0,2.8,0.5,4.2,1.1c2.6,1,5.3,2,8.8-0.1c2.6-1.6,4.9-0.8,7.3,0.1c2.6,1,5.3,2,8.8-0.1c2.7-1.7,4.9-0.9,7.3,0
				c2.6,0.9,5.2,1.9,8.7,0v-3.8c-3.6,1.8-6.4,0.8-8.8-0.1c-2.3-0.8-4.5-1.6-7.1,0c-3.6,2.2-6.4,1.2-9,0.2c-2.3-0.9-4.6-1.7-7.1-0.2
				c-3.6,2.2-6.4,1.2-9.1,0.2c-2.3-0.9-4.6-1.7-7.1-0.2c-3.6,2.2-6.4,1.2-9.1,0.2c-2.3-0.9-4.6-1.7-7.1-0.2c-3.6,2.2-6.4,1.2-9,0.2
				c-2.3-0.9-4.5-1.7-7-0.2v3.7c2.5-1.5,4.8-0.6,7.1,0.3c2.6,1,5.3,2,8.8-0.1c2.6-1.6,4.9-0.8,7.3,0.1c2.6,1,5.3,2,8.8-0.1
				C-240.1,410.3-239,410.1-238,410.1z"/>
		</g>
		<g>
			<path class="st3" d="M-192.7,403c-7,3.7-10.7-3.4-16.1,0c-6.7,4.2-10.7-3.4-16.1,0c-6.7,4.2-10.7-3.4-16.1,0
				c-6.7,4.2-10.7-3.4-16.1,0c-6.7,4.2-10.7-3.4-16.1,0v-4c5.4-3.4,9.4,4.2,16.1,0c5.4-3.4,9.4,4.2,16.1,0c5.4-3.4,9.4,4.2,16.1,0
				c5.4-3.4,9.4,4.2,16.1,0c5.4-3.4,9.2,3.7,16.1,0V403L-192.7,403z"/>
		</g>
		<g>
			<path d="M-229.1,404.5c-1.7,0-3.2-0.6-4.8-1.2c-2.3-0.9-4.6-1.7-7.1-0.2c-3.6,2.2-6.4,1.2-9.1,0.2c-2.3-0.9-4.6-1.7-7.1-0.2
				c-3.6,2.2-6.4,1.2-9,0.2c-2.3-0.9-4.6-1.7-7.1-0.2l-0.2,0.1v-4.3l0.1,0c2.6-1.6,4.9-0.8,7.3,0.1c2.6,1,5.3,2,8.8-0.1
				c2.6-1.6,4.9-0.8,7.3,0.1c2.6,1,5.3,2,8.8-0.1c2.6-1.6,4.9-0.8,7.3,0.1c2.6,1,5.3,2,8.8-0.1c2.6-1.6,4.9-0.8,7.3,0.1
				c2.6,1,5.3,2,8.8-0.1c2.7-1.7,4.9-0.9,7.3,0c2.6,0.9,5.3,1.9,8.8,0l0.2-0.1v4.3l-0.1,0c-3.7,2-6.5,0.9-9,0
				c-2.3-0.8-4.5-1.6-7.1,0c-3.6,2.2-6.4,1.2-9.1,0.2c-2.3-0.9-4.6-1.7-7.1-0.2C-226.4,404.1-227.8,404.5-229.1,404.5z M-238,402
				c1.4,0,2.8,0.5,4.2,1.1c2.6,1,5.3,2,8.8-0.1c2.6-1.6,4.9-0.8,7.3,0.1c2.6,1,5.3,2,8.8-0.1c2.7-1.7,4.9-0.9,7.3,0
				c2.6,0.9,5.2,1.9,8.7,0v-3.8c-3.6,1.8-6.4,0.8-8.8-0.1c-2.3-0.8-4.5-1.6-7.1,0c-3.6,2.2-6.4,1.2-9.1,0.2
				c-2.3-0.9-4.6-1.7-7.1-0.2c-3.6,2.2-6.4,1.2-9.1,0.2c-2.3-0.9-4.6-1.7-7.1-0.2c-3.6,2.2-6.4,1.2-9.1,0.2
				c-2.3-0.9-4.6-1.7-7.1-0.2c-3.6,2.2-6.4,1.2-9,0.2c-2.3-0.9-4.5-1.7-7-0.2v3.7c2.5-1.5,4.8-0.6,7.1,0.3c2.6,1,5.3,2,8.8-0.1
				c2.6-1.6,4.9-0.8,7.3,0.1c2.6,1,5.3,2,8.8-0.1C-240.1,402.3-239,402-238,402z"/>
		</g>
		<g>
			<path class="st3" d="M-192.7,395c-7,3.7-10.7-3.4-16.1,0c-6.7,4.2-10.7-3.4-16.1,0c-6.7,4.2-10.7-3.4-16.1,0
				c-6.7,4.2-10.7-3.4-16.1,0c-6.7,4.2-10.7-3.4-16.1,0v-4c5.4-3.4,9.4,4.2,16.1,0c5.4-3.4,9.4,4.2,16.1,0c5.4-3.4,9.4,4.2,16.1,0
				c5.4-3.4,9.4,4.2,16.1,0c5.4-3.4,9.2,3.7,16.1,0V395L-192.7,395z"/>
		</g>
		<g>
			<path d="M-229.1,396.4c-1.7,0-3.2-0.6-4.8-1.2c-2.3-0.9-4.6-1.7-7.1-0.2c-3.6,2.2-6.4,1.2-9.1,0.2c-2.3-0.9-4.6-1.7-7.1-0.2
				c-3.6,2.2-6.4,1.2-9,0.2c-2.3-0.9-4.6-1.7-7.1-0.2l-0.2,0.1v-4.3l0.1,0c2.6-1.6,4.9-0.8,7.3,0.1c2.6,1,5.3,2,8.8-0.1
				c2.6-1.6,4.9-0.8,7.3,0.1c2.6,1,5.3,2,8.8-0.1c2.6-1.6,4.9-0.8,7.3,0.1c2.6,1,5.3,2,8.8-0.1c2.6-1.6,4.9-0.8,7.3,0.1
				c2.6,1,5.3,2,8.8-0.1c2.7-1.7,4.9-0.9,7.3,0c2.6,0.9,5.3,1.9,8.8,0l0.2-0.1v4.3l-0.1,0c-3.7,2-6.5,0.9-9,0
				c-2.3-0.8-4.5-1.6-7.1,0c-3.6,2.2-6.4,1.2-9.1,0.2c-2.3-0.9-4.6-1.7-7.1-0.2C-226.4,396.1-227.8,396.4-229.1,396.4z M-238,393.9
				c1.4,0,2.8,0.5,4.2,1.1c2.6,1,5.3,2,8.8-0.1c2.6-1.6,4.9-0.8,7.3,0.1c2.6,1,5.3,2,8.8-0.1c2.7-1.7,4.9-0.9,7.3,0
				c2.6,0.9,5.2,1.9,8.7,0v-3.8c-3.6,1.8-6.4,0.8-8.8-0.1c-2.3-0.8-4.5-1.6-7.1,0c-3.6,2.2-6.4,1.2-9.1,0.2
				c-2.3-0.9-4.6-1.7-7.1-0.2c-3.6,2.2-6.4,1.2-9.1,0.2c-2.3-0.9-4.6-1.7-7.1-0.2c-3.6,2.2-6.4,1.2-9.1,0.2
				c-2.3-0.9-4.6-1.7-7.1-0.2c-3.6,2.2-6.4,1.2-9,0.2c-2.3-0.9-4.5-1.7-7-0.2v3.7c2.5-1.5,4.8-0.6,7.1,0.3c2.6,1,5.3,2,8.8-0.1
				c2.6-1.6,4.9-0.8,7.3,0.1c2.6,1,5.3,2,8.8-0.1C-240.1,394.2-239,393.9-238,393.9z"/>
		</g>
		<g>
			<path class="st3" d="M-192.7,386.9c-7,3.7-10.7-3.4-16.1,0c-6.7,4.2-10.7-3.4-16.1,0c-6.7,4.2-10.7-3.4-16.1,0
				c-6.7,4.2-10.7-3.4-16.1,0c-6.7,4.2-10.7-3.4-16.1,0v-4c5.4-3.4,9.4,4.2,16.1,0c5.4-3.4,9.4,4.2,16.1,0c5.4-3.4,9.4,4.2,16.1,0
				c5.4-3.4,9.4,4.2,16.1,0c5.4-3.4,9.2,3.7,16.1,0V386.9L-192.7,386.9z"/>
		</g>
		<g>
			<path d="M-229.1,388.3c-1.7,0-3.2-0.6-4.8-1.2c-2.3-0.9-4.6-1.7-7.1-0.2c-3.6,2.2-6.4,1.2-9.1,0.2c-2.3-0.9-4.6-1.7-7.1-0.2
				c-3.6,2.2-6.4,1.2-9,0.2c-2.3-0.9-4.6-1.7-7.1-0.2l-0.2,0.1v-4.3l0.1,0c2.6-1.6,4.9-0.8,7.3,0.1c2.6,1,5.3,2,8.8-0.1
				c2.6-1.6,4.9-0.8,7.3,0.1c2.6,1,5.3,2,8.8-0.1c2.6-1.6,4.9-0.8,7.3,0.1c2.6,1,5.3,2,8.8-0.1c2.6-1.6,4.9-0.8,7.3,0.1
				c2.6,1,5.3,2,8.8-0.1c2.7-1.7,4.9-0.9,7.3,0c2.6,0.9,5.2,1.9,8.8,0l0.2-0.1v4.3l-0.1,0c-3.7,2-6.5,0.9-9,0
				c-2.3-0.8-4.5-1.6-7.1,0c-3.6,2.2-6.4,1.2-9.1,0.2c-2.3-0.9-4.6-1.7-7.1-0.2C-226.4,388-227.8,388.3-229.1,388.3z M-238,385.9
				c1.4,0,2.8,0.5,4.2,1.1c2.6,1,5.3,2,8.8-0.1c2.6-1.6,4.9-0.8,7.3,0.1c2.6,1,5.3,2,8.8-0.1c2.7-1.7,4.9-0.9,7.3,0
				c2.6,0.9,5.2,1.9,8.7,0v-3.8c-3.6,1.8-6.4,0.8-8.8-0.1c-2.3-0.8-4.5-1.6-7.1,0c-3.6,2.2-6.4,1.2-9,0.2c-2.3-0.9-4.6-1.7-7.1-0.2
				c-3.6,2.2-6.4,1.2-9.1,0.2c-2.3-0.9-4.6-1.7-7.1-0.2c-3.6,2.2-6.4,1.2-9.1,0.2c-2.3-0.9-4.6-1.7-7.1-0.2c-3.6,2.2-6.4,1.2-9,0.2
				c-2.3-0.9-4.5-1.7-7-0.2v3.7c2.5-1.5,4.8-0.6,7.1,0.3c2.6,1,5.3,2,8.8-0.1c2.6-1.6,4.9-0.8,7.3,0.1c2.6,1,5.3,2,8.8-0.1
				C-240.1,386.1-239,385.9-238,385.9z"/>
		</g>
		<g>
			<path class="st3" d="M-192.7,378.8c-7,3.7-10.7-3.4-16.1,0c-6.7,4.2-10.7-3.4-16.1,0c-6.7,4.2-10.7-3.4-16.1,0
				c-6.7,4.2-10.7-3.4-16.1,0c-6.7,4.2-10.7-3.4-16.1,0v-4c5.4-3.4,9.4,4.2,16.1,0c5.4-3.4,9.4,4.2,16.1,0c5.4-3.4,9.4,4.2,16.1,0
				c5.4-3.4,9.4,4.2,16.1,0c5.4-3.4,9.2,3.7,16.1,0V378.8L-192.7,378.8z"/>
		</g>
		<g>
			<path d="M-229.1,380.3c-1.7,0-3.2-0.6-4.8-1.2c-2.3-0.9-4.6-1.7-7.1-0.2c-3.6,2.2-6.4,1.2-9.1,0.2c-2.3-0.9-4.6-1.7-7.1-0.2
				c-3.6,2.2-6.4,1.2-9,0.2c-2.3-0.9-4.6-1.7-7.1-0.2l-0.2,0.1v-4.3l0.1,0c2.6-1.6,4.9-0.8,7.3,0.1c2.6,1,5.3,2,8.8-0.1
				c2.6-1.6,4.9-0.8,7.3,0.1c2.6,1,5.3,2,8.8-0.1c2.6-1.6,4.9-0.8,7.3,0.1c2.6,1,5.3,2,8.8-0.1c2.6-1.6,4.9-0.8,7.3,0.1
				c2.6,1,5.3,2,8.8-0.1c2.7-1.7,4.9-0.9,7.3,0c2.6,0.9,5.2,1.9,8.8,0l0.2-0.1v4.3l-0.1,0c-3.7,2-6.5,0.9-9,0
				c-2.3-0.8-4.5-1.6-7.1,0c-3.6,2.2-6.4,1.2-9.1,0.2c-2.3-0.9-4.6-1.7-7.1-0.2C-226.4,379.9-227.8,380.3-229.1,380.3z M-238,377.8
				c1.4,0,2.8,0.5,4.2,1.1c2.6,1,5.3,2,8.8-0.1c2.6-1.6,4.9-0.8,7.3,0.1c2.6,1,5.3,2,8.8-0.1c2.7-1.7,4.9-0.9,7.3,0
				c2.6,0.9,5.2,1.9,8.7,0V375c-3.6,1.8-6.4,0.8-8.8-0.1c-2.3-0.8-4.5-1.6-7.1,0c-3.6,2.2-6.4,1.2-9.1,0.2c-2.3-0.9-4.6-1.7-7.1-0.2
				c-3.6,2.2-6.4,1.2-9.1,0.2c-2.3-0.9-4.6-1.7-7.1-0.2c-3.6,2.2-6.4,1.2-9.1,0.2c-2.3-0.9-4.6-1.7-7.1-0.2c-3.6,2.2-6.4,1.2-9,0.2
				c-2.3-0.9-4.5-1.7-7-0.2v3.7c2.5-1.5,4.8-0.6,7.1,0.3c2.6,1,5.3,2,8.8-0.1c2.6-1.6,4.9-0.8,7.3,0.1c2.6,1,5.3,2,8.8-0.1
				C-240.1,378.1-239,377.8-238,377.8z"/>
		</g>
		<g>
			<path class="st4" d="M-211.2,385.9c-0.1,6.6-0.3,23.5-0.5,30.4c0,0.6,1.7,0.5,1.7,0c-0.1-6.9-0.4-23.8-0.5-30.4H-211.2
				L-211.2,385.9z"/>
		</g>
		<g>
			<path d="M-210.9,416.7c-0.2,0-0.5,0-0.6-0.1c-0.1-0.1-0.2-0.2-0.2-0.3c0.1-6.7,0.4-23.7,0.5-30.4l0-0.1h0.8l0,0.1
				c0.1,7.5,0.4,28,0.5,30.4c0,0.1,0,0.2-0.2,0.3C-210.4,416.7-210.6,416.7-210.9,416.7z M-211.2,386c-0.1,6.7-0.3,23.6-0.5,30.3
				c0,0.1,0.1,0.2,0.2,0.2c0.3,0.2,0.9,0.2,1.2,0c0.1-0.1,0.1-0.1,0.1-0.2c0-2.3-0.4-22.8-0.5-30.3H-211.2z"/>
		</g>
		<g>
			<path class="st5" d="M-213.1,375.6c0.4,0.4,1.1,1.4,1.3,2c0.1-0.2,0.5-0.6,0.6-1c0,0.4,0,1.3-0.2,1.7c0.2-0.1,0.5-0.4,0.6-0.5
				c-0.1,0.5-0.1,1.4-0.4,2c0.2-0.2,0.6-0.5,0.7-0.7c0,0.5-0.2,1.7-0.4,2.2c0.2-0.2,0.5-0.5,0.7-0.8c0,1.2-0.1,2.4-0.3,3.4
				c0.2-0.8,0.5-2.2,0.8-3c0.2,0.2,0.3,0.8,0.4,1.1c0.1-1.3,0.2-2.6,0.6-3.5c0,0.2,0.3,1,0.4,1.2c0-0.7,0.1-2,0.6-2.7
				c0,0.2,0,0.8,0.1,1.4c0.1-0.6,0.3-1.4,0.8-1.7c0,0.3,0,0.7,0,0.9c0.1-0.3,0.4-0.8,0.7-1c0,0.2,0,0.5,0,0.8c0.2-0.4,0.5-0.9,0.9-1
				c-0.1,0.1-0.2,0.5-0.3,0.7c0.3-0.1,0.6-0.3,1.1-0.3c-0.1,0.1-0.4,0.3-0.5,0.4c0.4,0,1,0.1,1.3,0.6c-1.2,0-2.9,0.3-3.5,1.2
				c0.2,0,0.6-0.2,0.9-0.2c-0.6,0.3-1.2,0.7-1.5,1.1c0.2-0.1,0.6-0.1,0.8-0.1c-0.1,0.1-0.6,0.5-0.8,0.9c0.5-0.2,1.1-0.4,1.7-0.4
				c-0.4,0.3-1.6,1.1-2.1,1.2c0.5,0.1,1.7-0.1,2-0.2c-0.7,0.5-2,1-2.5,1.2c0.3,0.1,1.2,0.2,1.6,0.1c-0.8,0.3-2.5,1.3-2.8,2
				c2-1.2,5.5-4.8,8.5-4c-0.3,0.3-1.3,0.6-2,0.5c0.2,0.1,0.3,0.4,0.5,0.6c-0.3,0-1.2-0.1-1.5-0.1c0.3,0.2,0.7,0.4,0.9,0.5
				c-0.4,0.1-1.2,0.2-1.6,0.2c0.2,0.2,0.5,0.6,0.7,0.7c-0.4,0.1-1.7,0.2-2.2,0.2c0.1,0.1,0.6,0.5,0.9,0.7c-0.5,0.1-1.5,0.2-2,0.1
				c0.1,0.2,0.4,0.6,0.6,0.7c-0.3,0-1.8,0.2-2.8,0.1c0.5,0.1,1.7,0.3,2.2,0.5c-0.3,0-1.1,0.2-1.3,0.2c0.3,0.1,1.3,0.2,1.6,0.3
				c-0.1,0.1-1,0.2-1.3,0.2c0.6,0.3,1.8,0.4,2.3,0.5c-0.1,0.1-1,0.3-1.4,0.3c0.3,0.2,1.6,0.2,2.4,0.3c-0.2,0.1-0.9,0.5-1.3,0.5
				c0.3,0.2,1.3,0.3,1.8,0.3c-0.1,0.1-0.5,0.4-0.9,0.5c0.3,0.1,1.1,0.4,1.6,0.6c-0.2,0-0.8,0.1-1.3-0.1c0.7,0.3,1.7,0.9,2,1.4
				c-0.3-0.1-1.4-0.7-1.7-0.9c0,0.2,0.2,0.6,0.2,1.1c-0.1-0.3-0.6-1.1-0.7-1.3c0,0.4-0.1,0.8-0.1,1.2c-0.2-0.5-0.7-1.4-0.7-1.8
				c-0.1,0.2-0.1,0.8-0.1,1.2c-0.3-0.5-1-1.6-1-2c0,0.2,0,1,0.1,1.4c-0.2-0.4-0.7-1.3-1-2c0,0.2,0,1.1,0.1,1.5
				c-0.4-0.5-1-1.3-1.2-1.8c0,0.4,0.3,1.3,0.4,1.6c-0.6-0.5-1.6-1.5-1.9-2.8c0.1,0.8,0.9,2.4,1.2,2.7c-0.1,0-0.5,0-0.7-0.1
				c0.3,0.3,0.9,1.1,1.2,1.4c-0.1,0-0.6-0.2-0.9-0.4c0.4,0.3,1,1.2,1.4,1.6c-0.3-0.1-0.7-0.3-0.8-0.3c0.5,0.5,0.5,1.2,0.6,1.8
				c-0.2-0.2-0.7-0.9-0.8-1.4c-0.1,0.2-0.3,0.6-0.3,0.7c-0.1-0.5-0.3-1.3-0.3-1.7c-0.1,0.2-0.4,0.5-0.4,0.9c0-0.3,0-1.3,0.1-1.7
				c-0.1,0.1-0.2,0.4-0.4,0.7c0-0.5,0.3-1.3,0.3-1.6l-0.3,0.5c0.1-0.5,0.3-1.8-0.4-2.5c0.2,0.4,0.4,0.9,0.5,1.3
				c-0.1-0.1-0.5-0.4-0.7-0.4c0.3,0.4,0.4,0.9,0.6,1.3c-0.1-0.2-0.6-0.4-0.7-0.5c0.2,0.4,0.4,1,0.5,1.5c-0.1-0.1-0.5-0.5-0.6-0.5
				c0.2,0.4,0.5,1.2,0.5,1.6c-0.2-0.3-0.7-0.8-1-1c0,0.3,0,1.3,0.1,1.6c-0.1-0.2-0.4-0.5-0.6-0.7c0,0.1-0.1,0.7-0.3,1.2
				c0-0.2-0.2-0.8-0.2-1c-0.1,0.2-0.3,0.6-0.5,0.7c0-0.9,1.4-3.2,1.4-4.2c-0.5,0.2-0.7,0.4-0.7,1c0,0.6-0.3,1.4-0.6,1.8
				c0-0.3,0-1.4,0-1.8c-0.1,0.5-0.5,1.6-0.9,2.1c0-0.3-0.1-1.3,0-1.7c-0.2,0.6-0.6,1.7-1,2.2c0-0.3,0-1,0-1.4
				c-0.2,0.4-0.7,1.5-0.8,1.8c0-0.2-0.1-0.8-0.1-1.2c-0.1,0.3-0.4,0.8-0.5,1.1c0-0.2,0-0.7,0-0.8c-0.2,0.2-0.6,0.8-0.8,1.1
				c0-0.2,0-0.7,0.1-0.9c-0.2,0.2-0.9,0.7-1.1,0.9c0.5-1,2.3-3,3.8-3.6c-0.1-0.1-0.8-0.3-1.2-0.3c0.5-0.1,1.4-0.3,1.9-0.3
				c-0.4-0.1-0.8-0.3-1.1-0.5c0.6-0.1,1.6,0,2.1,0c-0.2-0.1-0.8-0.4-1.1-0.7c0.9-0.3,2,0.5,2.5-0.1c-0.8-0.5-1.9-0.5-3,0.1
				c0-0.2,0.1-0.6,0.3-0.8c-0.4,0.1-1.2,0.4-1.4,0.6c0.1-0.2,0.2-0.6,0.4-0.8c-0.3,0.2-0.9,0.3-1.2,0.6c0.1-0.3,0.2-0.5,0.4-0.9
				c-0.5,0.1-1,0.6-1.1,1c-0.1-0.1-0.1-0.6-0.1-0.8c-0.2,0.3-0.6,0.8-0.7,1.2c-0.1-0.1-0.3-0.6-0.2-0.9c-0.2,0.2-0.7,0.7-0.9,1
				c0-0.2,0-0.6,0.2-0.9c-0.3,0.2-1,0.4-1.4,0.5c0.2-0.3,0.8-0.8,1.2-0.9c-0.2-0.1-0.9-0.1-1.2,0c0.4-0.2,1.3-0.5,2.1-0.5
				c-0.2,0-0.6-0.2-0.9-0.2c0.6-0.2,1.6-0.5,2.2-0.4c-0.2-0.2-0.7-0.6-1-0.8c0.8,0.2,1.6,0.6,1.9,1c-0.1-0.3,0.1-0.4-0.1-0.8
				c0.5,0.2,1.2,0.8,1.4,1.2c0-0.3,0-0.5-0.2-0.8c0.3,0.2,0.8,0.7,1,1.1c0-0.1,0-0.3,0-0.5c0.4,0.3,1.7,1.2,2.5,1.4
				c-0.3-0.3-1.7-1.4-2.7-1.6c0.2,0,0.5-0.1,0.8,0c-0.7-0.3-1.6-0.6-2.2-0.7c0.3-0.1,0.7-0.3,1-0.3c-0.8-0.2-1.6-0.5-2.2-0.9
				c0.3,0,0.7-0.1,1.1,0c-0.3-0.2-1.3-0.8-1.9-1c0.2-0.1,0.7-0.2,0.9-0.1c-0.8-0.4-1.8-0.8-2.3-1c0.4-0.1,1,0,1.5,0
				c-0.2-0.4-0.7-1-1.2-1.4c0.7,0.1,2,0.9,2.3,1.6c0-0.2-0.1-0.7-0.2-0.9c0.5,0.3,1.1,1.4,1.3,1.9c0-0.3,0-0.6,0-0.9
				c0.4,0.4,0.8,1.4,1,1.8c0.1-0.4,0.1-0.9,0-1.1c0.3,0.6,0.7,1.4,0.7,1.8c0.2-0.4,0.2-0.8,0.1-1.1c0.3,0.5,0.6,1.5,0.6,2
				c0.1-0.2,0.1-0.4,0.2-0.6c0,1.4,1.2,1.5,1.3,2c0-0.5-0.8-1.4-1-1.7c0.2,0.1,0.6,0.2,0.8,0.4c-0.2-0.4-0.4-0.9-1-1.3
				c0.3,0,0.8,0.1,1.1,0.2c-0.6-0.6-1.1-1.1-1.4-1.5c0.3,0.1,0.7,0.2,1,0.3c-0.4-0.4-1-1-1.3-1.6c0.3,0.1,1,0.4,1.3,0.7
				c-0.6-0.5-1.3-1.3-1.8-2c0.6,0.2,1.3,0.5,1.7,0.9c-0.4-0.6-1.1-1.5-1.6-2c0.4,0,0.9,0.1,1.2,0.4
				C-212.8,376.8-213,376.3-213.1,375.6L-213.1,375.6z"/>
		</g>
		<g>
			<path d="M-208.9,392.2l-0.1-0.1c-0.2-0.2-0.6-0.8-0.8-1.2c-0.1,0.2-0.2,0.4-0.2,0.5l-0.1,0l0-0.1c-0.1-0.4-0.2-1-0.2-1.4
				c-0.1,0.2-0.3,0.4-0.3,0.7l-0.1,0c0-0.1,0-0.2,0-0.4c0-0.3,0-0.7,0-1c0,0,0,0,0,0.1c-0.1,0.1-0.1,0.2-0.2,0.3l-0.1,0
				c0-0.3,0.1-0.7,0.2-1c0-0.1,0.1-0.2,0.1-0.3l-0.1,0.2l-0.1,0c0-0.1,0-0.2,0.1-0.3l-0.1,0.1c-0.1-0.1-0.4-0.3-0.5-0.4
				c0.2,0.4,0.3,0.9,0.4,1.3l-0.1,0c0-0.1-0.2-0.2-0.3-0.3c0.2,0.4,0.4,1,0.4,1.3l-0.1,0c-0.1-0.2-0.6-0.7-0.9-0.9
				c0,0.4,0,1.2,0.1,1.5l-0.1,0c-0.1-0.1-0.2-0.2-0.3-0.3c-0.1-0.1-0.2-0.2-0.2-0.3c0,0,0,0.1,0,0.1c0,0.2-0.1,0.6-0.2,0.9l-0.1,0
				l0-0.1c0-0.2-0.1-0.5-0.1-0.7c0,0.1-0.1,0.1-0.1,0.2c-0.1,0.2-0.2,0.3-0.2,0.4l-0.1,0.1l0-0.2c0-0.4,0.3-1.2,0.7-2
				c0.3-0.8,0.7-1.6,0.7-2.1c-0.4,0.2-0.6,0.4-0.6,0.9c0,0.6-0.3,1.4-0.7,1.8l-0.1,0.1l0-0.2c0-0.2,0-0.5,0-0.9c0-0.2,0-0.3,0-0.5
				c-0.2,0.6-0.4,1.3-0.8,1.7l-0.1,0.1l0-0.1c0-0.2-0.1-0.8-0.1-1.2c-0.2,0.6-0.6,1.4-0.8,1.8l-0.1,0.1l0-0.2c0-0.2,0-0.5,0-1.1
				c-0.2,0.5-0.6,1.3-0.7,1.5l-0.1,0c0-0.1,0-0.2,0-0.4c0-0.2,0-0.4-0.1-0.5c-0.1,0.3-0.3,0.7-0.4,0.9l-0.1,0.2l-0.1-0.2
				c0-0.1,0-0.4,0-0.6c-0.1,0.1-0.2,0.3-0.3,0.4c-0.1,0.2-0.3,0.4-0.4,0.5l-0.1-0.1c0-0.1,0-0.2,0-0.3c0-0.2,0-0.3,0-0.5
				c-0.3,0.2-0.8,0.6-1,0.8l-0.1-0.1c0.5-1,2.2-2.8,3.7-3.5c-0.2-0.1-0.8-0.3-1.1-0.3l0-0.1c0.3-0.1,1-0.2,1.6-0.3
				c-0.3-0.1-0.6-0.3-0.9-0.4l-0.2-0.1l0.2,0c0.4,0,1.2,0,1.8,0c-0.3-0.1-0.6-0.3-0.7-0.5l-0.1-0.1l0.1,0c0.4-0.2,0.9-0.1,1.3,0
				c0.4,0.1,0.8,0.2,1.1,0c-0.8-0.4-1.9-0.4-2.8,0.1l-0.1,0l0-0.1c0-0.2,0-0.5,0.2-0.7c-0.4,0.1-1,0.3-1.2,0.5l-0.1-0.1l0-0.1
				c0-0.2,0.1-0.4,0.2-0.6c0,0-0.1,0-0.1,0c-0.3,0.1-0.6,0.2-0.9,0.4l-0.2,0.1l0.1-0.2c0.1-0.3,0.2-0.5,0.4-0.7
				c-0.4,0.1-0.8,0.6-0.9,0.9l0,0.1l-0.1-0.1c-0.1-0.1-0.1-0.4-0.1-0.6c-0.2,0.3-0.5,0.7-0.5,1l0,0.1l-0.1-0.1
				c-0.1-0.1-0.2-0.5-0.2-0.8c-0.2,0.2-0.6,0.6-0.8,0.9l-0.1,0c0-0.1,0-0.1,0-0.2c0-0.1,0-0.3,0.1-0.5c-0.3,0.2-0.9,0.3-1.2,0.4
				l-0.2,0l0.1-0.1c0.2-0.2,0.7-0.7,1.1-0.9c-0.3,0-0.7-0.1-0.9,0l0-0.1c0.3-0.2,1.1-0.4,1.7-0.5c-0.2,0-0.4-0.1-0.5-0.1l0-0.1
				c0.4-0.1,1.3-0.4,2.1-0.4c-0.2-0.2-0.6-0.5-0.8-0.7l0-0.1c0.7,0.1,1.4,0.5,1.8,0.9c0,0,0-0.1,0-0.1c0-0.1,0-0.2-0.1-0.4l0.1-0.1
				c0.4,0.2,1,0.6,1.4,1c0-0.2-0.1-0.4-0.1-0.6l0.1-0.1c0.2,0.2,0.7,0.6,0.9,1c0-0.1,0-0.2,0-0.3l0-0.1c-0.1,0-0.1,0-0.2,0l0-0.1
				c0.1,0,0.3,0,0.5,0c-0.6-0.3-1.4-0.5-1.9-0.5l0-0.1c0,0,0.1,0,0.2-0.1c0.2-0.1,0.4-0.1,0.5-0.2c-0.7-0.2-1.4-0.5-2-0.9l-0.2-0.1
				l0.2,0c0,0,0.1,0,0.2,0c0.2,0,0.4,0,0.6,0c-0.4-0.3-1.2-0.7-1.7-0.8l-0.2,0l0.2-0.1c0.1-0.1,0.4-0.1,0.7-0.1
				c-0.1-0.1-0.3-0.1-0.5-0.2c-0.6-0.3-1.2-0.5-1.6-0.7l0-0.1c0.4-0.1,0.9,0,1.4,0c-0.2-0.4-0.6-1-1.1-1.3l-0.2-0.1l0.2,0
				c0.6,0,1.8,0.7,2.3,1.4c0-0.2-0.1-0.5-0.2-0.6l0.1-0.1c0.5,0.3,1,1.2,1.2,1.7c0-0.2,0-0.5-0.1-0.7l0-0.2l0.1,0.1
				c0.4,0.4,0.8,1.2,0.9,1.6c0-0.3,0-0.7,0-0.9l0.1,0c0.2,0.5,0.5,1.2,0.7,1.6c0.1-0.3,0.1-0.7,0.1-0.9l0.1,0
				c0.3,0.4,0.5,1.2,0.6,1.8c0-0.1,0-0.3,0.1-0.4l0.1,0c0,0.8,0.5,1.2,0.8,1.5c0.1,0.1,0.2,0.1,0.3,0.2c-0.1-0.3-0.3-0.5-0.5-0.8
				c-0.2-0.2-0.3-0.4-0.4-0.6l0-0.1l0.1,0c0.2,0.1,0.4,0.2,0.6,0.3c-0.2-0.4-0.4-0.8-0.9-1.1l-0.2-0.1l0.2,0c0.2,0,0.6,0.1,0.9,0.1
				c-0.6-0.6-1-1-1.2-1.3l-0.1-0.1l0.2,0.1c0.2,0.1,0.5,0.1,0.7,0.2c-0.4-0.4-0.8-0.9-1-1.4l-0.1-0.1l0.1,0.1
				c0.2,0.1,0.5,0.2,0.9,0.4c-0.5-0.5-1-1.1-1.4-1.6l-0.1-0.1l0.2,0c0.4,0.1,1,0.4,1.4,0.6c-0.4-0.6-0.9-1.3-1.4-1.7l-0.2-0.1l0.2,0
				c0.4,0,0.8,0.1,1,0.3c-0.2-0.5-0.4-1-0.5-1.6l0-0.2l0.1,0.1c0.4,0.4,1,1.3,1.2,1.9c0,0,0,0,0-0.1c0.2-0.2,0.4-0.5,0.4-0.8l0.1,0
				c0,0.4,0,1.1-0.2,1.5c0.2-0.1,0.4-0.3,0.5-0.4l0.1,0c0,0.1,0,0.3-0.1,0.4c0,0.4-0.1,1-0.3,1.4c0.2-0.2,0.4-0.4,0.6-0.5l0.1-0.2
				l0,0.2c0,0.1-0.1,1.3-0.3,2c0.2-0.2,0.4-0.4,0.5-0.6l0.1-0.2l0,0.2c0,0.6,0,1.3-0.1,1.9c0.1-0.6,0.3-1.1,0.4-1.5l0-0.1l0.1,0.1
				c0.1,0.2,0.2,0.5,0.3,0.7c0.1-1.3,0.3-2.4,0.6-3.1l0.1,0c0,0.1,0.2,0.6,0.3,1c0.1-0.8,0.2-1.9,0.6-2.5l0.1-0.2l0,0.2
				c0,0.2,0,0.6,0.1,1c0.1-0.5,0.3-1.1,0.8-1.4l0.1-0.1l0,0.1c0,0.2,0,0.5,0,0.7c0.2-0.3,0.4-0.7,0.6-0.8l0.1-0.1l0,0.2
				c0,0.1,0,0.4,0,0.6c0.2-0.4,0.5-0.8,0.9-0.9l0.2,0l-0.1,0.1c-0.1,0.1-0.2,0.3-0.2,0.5c0.2-0.1,0.6-0.3,0.9-0.3c0,0,0,0,0,0l0.2,0
				l-0.2,0.1c-0.1,0.1-0.3,0.2-0.4,0.3c0.4,0,0.9,0.2,1.2,0.6l0.1,0.1l-0.1,0c-0.1,0-0.1,0-0.2,0c-1,0-2.5,0.3-3.2,1.1c0,0,0,0,0,0
				c0.2-0.1,0.5-0.1,0.7-0.1l0,0.1c-0.6,0.3-1,0.6-1.3,0.9c0.2,0,0.5,0,0.6,0l0.2,0l-0.2,0.1c-0.1,0-0.4,0.4-0.7,0.7
				c0.4-0.1,1-0.3,1.5-0.4l0.2,0l-0.2,0.1c-0.3,0.2-1.3,0.8-1.8,1.1c0.6,0,1.5-0.1,1.7-0.3l0.1,0.1c-0.7,0.5-1.8,0.9-2.3,1.1
				c0.4,0.1,1,0.1,1.4,0.1l0,0c1.8-1.3,3.9-2.5,5.8-1.9l0.1,0l-0.1,0.1c-0.3,0.3-1.2,0.5-1.9,0.6c0.1,0.1,0.1,0.1,0.2,0.2
				c0.1,0.1,0.1,0.2,0.2,0.3l0.1,0.1l-0.2,0c-0.1,0-0.4,0-0.7-0.1c-0.2,0-0.3,0-0.5,0c0.1,0,0.1,0.1,0.2,0.1
				c0.2,0.1,0.4,0.2,0.5,0.3l0.1,0.1l-0.1,0c-0.4,0.1-1.1,0.2-1.5,0.2l0,0c0.2,0.2,0.4,0.5,0.6,0.6l0.2,0.1l-0.2,0
				c-0.3,0-1.4,0.2-2,0.2c0,0,0,0,0,0c0.2,0.2,0.5,0.4,0.7,0.5l0.2,0.1l-0.2,0c-0.5,0.1-1.4,0.2-1.9,0.1c0.1,0.2,0.3,0.5,0.5,0.6
				l0.1,0.1l-0.2,0c-0.2,0-1.1,0.1-1.8,0.1c0.5,0.1,1,0.2,1.2,0.4l0,0.1c-0.2,0-0.7,0.1-1,0.2c0.2,0,0.4,0.1,0.6,0.1
				c0.3,0,0.5,0.1,0.7,0.1l0.2,0l-0.2,0.1c-0.1,0.1-0.6,0.2-1,0.2c0.5,0.2,1.2,0.3,1.7,0.3c0.1,0,0.2,0,0.3,0l0.1,0l-0.1,0.1
				c-0.1,0.1-0.6,0.2-1,0.2c0.6,0.1,1.6,0.2,2.1,0.2l0.2,0l-0.2,0.1c-0.2,0.1-0.7,0.3-1.1,0.4c0.4,0.1,1.2,0.2,1.5,0.2l0.1,0
				l-0.1,0.1c-0.1,0.1-0.4,0.3-0.8,0.4c0,0,0.1,0,0.1,0c0.4,0.1,0.9,0.3,1.3,0.5l0.2,0.1l-0.2,0c-0.2,0-0.5,0-0.8,0
				c0.6,0.3,1.3,0.9,1.6,1.2l0.1,0.1l-0.2,0c-0.3-0.1-1.2-0.6-1.6-0.8c0,0,0,0,0,0.1c0.1,0.2,0.2,0.5,0.2,0.9l-0.1,0
				c-0.1-0.1-0.2-0.4-0.4-0.6c-0.1-0.2-0.2-0.3-0.3-0.5c0,0.1,0,0.3,0,0.4c0,0.2,0,0.4-0.1,0.6l-0.1,0l-0.1-0.2
				c-0.2-0.4-0.5-0.9-0.6-1.3c0,0.3-0.1,0.6-0.1,0.9l-0.1,0c-0.1-0.1-0.1-0.2-0.2-0.4c-0.2-0.4-0.5-0.8-0.6-1.2c0,0.3,0,0.7,0.1,1
				l-0.1,0c0-0.1-0.1-0.1-0.1-0.2c-0.2-0.4-0.5-1-0.8-1.5c0,0.3,0,0.9,0.1,1.1l0,0.2l-0.1-0.1c-0.3-0.3-0.7-0.9-1-1.4
				c0.1,0.4,0.2,0.9,0.3,1.1l-0.1,0.1c-0.5-0.4-0.9-0.9-1.2-1.3c0.2,0.5,0.5,1,0.6,1.2l0.1,0.1l-0.1,0c0,0,0,0,0,0
				c-0.1,0-0.3,0-0.5-0.1c0.1,0.1,0.2,0.2,0.3,0.3c0.3,0.3,0.6,0.7,0.8,0.9l0.1,0.1l-0.2,0c0,0,0,0,0,0c-0.1,0-0.3-0.1-0.5-0.2
				c0.2,0.2,0.4,0.4,0.5,0.7c0.2,0.2,0.4,0.5,0.5,0.6l0.2,0.2l-0.2-0.1c-0.2,0-0.4-0.1-0.6-0.2c0.3,0.4,0.4,1,0.4,1.4
				c0,0.1,0,0.1,0,0.2L-208.9,392.2z M-209.8,390.5l0,0.2c0.1,0.4,0.4,0.9,0.7,1.2c0,0,0,0,0,0c-0.1-0.5-0.1-1.2-0.6-1.6l0.1-0.1
				c0.1,0.1,0.4,0.2,0.6,0.3c-0.1-0.1-0.2-0.3-0.3-0.4c-0.3-0.4-0.6-0.8-0.9-1l0.1-0.1c0.2,0.1,0.5,0.3,0.7,0.4
				c-0.2-0.2-0.4-0.5-0.6-0.7c-0.2-0.2-0.3-0.4-0.4-0.5l0.1-0.1c0.1,0.1,0.4,0.1,0.5,0.1c-0.3-0.5-1-1.9-1.1-2.7l0.1,0
				c0.2,0.9,0.7,1.7,1.6,2.6c-0.1-0.4-0.3-1.1-0.3-1.3l0.1,0c0.2,0.4,0.6,1.1,1,1.6c-0.1-0.4-0.1-1.1-0.1-1.3l0-0.2l0.1,0.2
				c0.2,0.6,0.6,1.3,0.8,1.7c0-0.4,0-0.9,0-1.1l0.1,0c0,0.3,0.4,1,0.7,1.6c0,0.1,0.1,0.1,0.1,0.2c0-0.3,0.1-0.8,0.1-0.9l0.1,0
				c0,0.3,0.4,1.1,0.6,1.6c0-0.1,0-0.2,0-0.3c0-0.2,0.1-0.5,0.1-0.7l0.1,0c0,0.1,0.2,0.4,0.4,0.7c0.1,0.1,0.2,0.3,0.2,0.4
				c0-0.2-0.1-0.4-0.1-0.5c0-0.1-0.1-0.2-0.1-0.2l0-0.1l0.1,0.1c0.2,0.2,1,0.6,1.4,0.8c-0.4-0.4-1.2-1-1.9-1.2l0-0.1
				c0.3,0.1,0.7,0.1,1,0.1c-0.3-0.1-0.8-0.3-1.1-0.4c-0.1,0-0.2-0.1-0.3-0.1l-0.2-0.1l0.2,0c0.3-0.1,0.6-0.2,0.8-0.3
				c-0.5,0-1.3-0.1-1.7-0.3l-0.2-0.1l0.2,0c0.3,0,0.8-0.2,1.1-0.4c-1-0.1-2-0.1-2.2-0.3l0-0.1c0.3,0,0.8-0.1,1.1-0.2c0,0,0,0-0.1,0
				c-0.6-0.1-1.5-0.2-2.1-0.4l0-0.1c0.2,0,0.7-0.1,1-0.2c-0.1,0-0.3,0-0.4-0.1c-0.4-0.1-0.8-0.1-0.9-0.2l0-0.1c0.1,0,0.2,0,0.3-0.1
				c0.2,0,0.6-0.1,0.8-0.1c-0.5-0.2-1.4-0.4-1.9-0.4l0,0h0l0-0.1c0.8,0.1,2.1,0,2.6,0c-0.2-0.2-0.4-0.5-0.5-0.7l0-0.1l0.1,0
				c0.5,0,1.3,0,1.8-0.1c-0.2-0.1-0.4-0.3-0.5-0.4c-0.1-0.1-0.1-0.1-0.2-0.2l0-0.1c0.4,0.1,1.4-0.1,2-0.1c-0.2-0.1-0.4-0.3-0.5-0.5
				l-0.2-0.2l0.1,0c0.3,0,1-0.1,1.4-0.2c-0.1-0.1-0.2-0.1-0.3-0.2c-0.2-0.1-0.3-0.2-0.5-0.3l0-0.1c0.1,0,0.4,0,0.7,0.1
				c0.2,0,0.4,0,0.6,0c0-0.1-0.1-0.1-0.1-0.2c-0.1-0.1-0.2-0.2-0.2-0.3l-0.2-0.1l0.2,0c0.6,0,1.5-0.2,1.8-0.4
				c-2.2-0.5-4.8,1.4-6.7,2.8c-0.6,0.4-1.2,0.9-1.6,1.1l-0.1,0.1l0-0.2c0.2-0.7,1.6-1.5,2.5-1.9c-0.5,0-1.1-0.1-1.3-0.2l-0.2-0.1
				l0.2-0.1c0.1-0.1,1.3-0.5,2.1-0.9c-0.5,0.1-1.2,0.2-1.6,0.1l0-0.1c0.4-0.1,1.3-0.7,1.9-1.1c-0.5,0.1-1.1,0.3-1.4,0.4l-0.2,0.1
				l0.1-0.1c0.2-0.3,0.5-0.6,0.7-0.8c-0.2,0-0.5,0-0.6,0.1l-0.2,0.1l0.1-0.2c0.2-0.3,0.7-0.6,1.2-0.9c-0.1,0-0.2,0-0.3,0.1
				c-0.1,0-0.2,0-0.2,0.1l-0.2,0l0.1-0.1c0.6-0.9,2.3-1.3,3.4-1.3c0,0,0,0,0,0c-0.3-0.3-0.7-0.5-1.1-0.5c0,0-0.1,0-0.1,0l-0.2,0
				l0.1-0.1c0.1-0.1,0.2-0.2,0.4-0.3c-0.3,0-0.6,0.2-0.8,0.3l-0.2,0.1l0.1-0.1c0,0,0.1-0.3,0.2-0.5c-0.3,0.2-0.6,0.6-0.7,0.9l-0.1,0
				c0-0.2,0-0.5,0-0.7c-0.2,0.2-0.4,0.6-0.6,0.9l-0.1,0.2l0-0.2c0-0.2,0-0.5,0-0.8c-0.4,0.4-0.6,1.2-0.7,1.6l-0.1,0
				c-0.1-0.4-0.1-0.9-0.1-1.2c-0.4,0.8-0.5,2-0.5,2.5l0,0.2l-0.1-0.2c-0.1-0.2-0.3-0.7-0.4-1c-0.3,0.8-0.4,1.9-0.5,3.3l-0.1,0
				c-0.1-0.3-0.2-0.7-0.3-1c-0.2,0.6-0.4,1.4-0.5,2.1c-0.1,0.3-0.1,0.5-0.2,0.7l-0.1,0c0.2-1.1,0.3-2.2,0.3-3.2
				c-0.2,0.3-0.4,0.5-0.6,0.7l-0.1-0.1c0.2-0.4,0.3-1.4,0.4-2c-0.2,0.2-0.4,0.3-0.5,0.5l-0.1,0.1l-0.1-0.1c0.2-0.5,0.3-1.1,0.3-1.6
				c0-0.1,0-0.1,0-0.2c-0.1,0.2-0.4,0.3-0.5,0.4l-0.2,0.1l0.1-0.2c0.2-0.3,0.3-0.9,0.3-1.4c-0.1,0.2-0.2,0.4-0.4,0.5
				c0,0.1-0.1,0.1-0.1,0.2l-0.1,0.1l0-0.1c-0.2-0.6-0.7-1.4-1.1-1.9c0.1,0.6,0.3,1.1,0.5,1.6l-0.1,0.1c-0.2-0.2-0.5-0.3-1-0.4
				c0.5,0.5,1,1.2,1.5,1.9l-0.1,0.1c-0.3-0.3-0.9-0.6-1.5-0.8c0.4,0.6,1.1,1.3,1.7,1.8l-0.1,0.1c-0.3-0.2-0.8-0.5-1.2-0.6
				c0.3,0.5,0.8,1.1,1.2,1.5l-0.1,0.1c-0.2-0.1-0.5-0.2-0.8-0.3c0.2,0.3,0.7,0.7,1.3,1.3l-0.1,0.1c-0.2-0.1-0.6-0.1-0.9-0.2
				c0.5,0.4,0.7,0.8,0.8,1.2l0.1,0.2l-0.2-0.1c-0.2-0.1-0.4-0.2-0.6-0.3c0.1,0.1,0.2,0.3,0.3,0.4c0.3,0.4,0.6,0.9,0.6,1.2l-0.1,0
				c0-0.2-0.2-0.3-0.4-0.5c-0.3-0.2-0.7-0.5-0.8-1.2c0,0.1-0.1,0.2-0.1,0.2l-0.1,0.2l0-0.2c0-0.4-0.2-1.2-0.5-1.7
				c0,0.3,0,0.6-0.2,0.8l-0.1,0.2l0-0.2c-0.1-0.3-0.3-0.9-0.6-1.4c0,0.3,0,0.5,0,0.8l0,0.2l-0.1-0.2c-0.1-0.3-0.5-1.1-0.9-1.6
				c0,0.2,0,0.5,0,0.7l0,0.2l-0.1-0.2c-0.2-0.4-0.7-1.3-1.1-1.7c0.1,0.3,0.1,0.6,0.1,0.7l0,0.2l-0.1-0.2c-0.3-0.6-1.4-1.3-2.1-1.5
				c0.4,0.4,0.8,1,1,1.3l0.1,0.1l-0.1,0c-0.3-0.1-0.8-0.1-1.2-0.1c0.4,0.1,0.8,0.3,1.3,0.6c0.2,0.1,0.5,0.2,0.7,0.3l0,0.1
				c-0.2,0-0.5,0-0.7,0.1c0.6,0.2,1.5,0.7,1.8,0.9l0,0.1c-0.3-0.1-0.6,0-0.9,0c0.6,0.4,1.3,0.7,2.1,0.8l0,0.1
				c-0.2,0-0.5,0.1-0.7,0.2c0.6,0.1,1.4,0.4,2,0.7l0,0.1c-0.1,0-0.3,0-0.4,0c1,0.3,2.2,1.2,2.4,1.5l0.2,0.2l-0.2-0.1
				c-0.7-0.2-1.6-0.8-2.2-1.2c-0.1-0.1-0.2-0.1-0.2-0.1c0,0.1,0,0.2,0,0.2c0,0.1,0,0.1,0,0.1l-0.1,0.1c-0.2-0.3-0.6-0.7-0.9-0.9
				c0.1,0.2,0.1,0.4,0.1,0.6l-0.1,0c-0.2-0.3-0.7-0.8-1.2-1.1c0,0.1,0,0.2,0,0.3c0,0.1,0,0.2,0,0.3l-0.1,0.1
				c-0.3-0.4-0.9-0.7-1.5-0.9c0.3,0.2,0.5,0.4,0.7,0.6l0.1,0.1l-0.2,0c-0.6-0.1-1.4,0.1-1.9,0.3c0.1,0,0.3,0.1,0.4,0.1
				c0.1,0,0.1,0,0.2,0l0,0.1c-0.5,0-1.2,0.2-1.6,0.3c0.3,0,0.6,0,0.8,0.1l0.2,0.1l-0.2,0.1c-0.3,0.1-0.8,0.5-1.1,0.8
				c0.4-0.1,1-0.3,1.2-0.4l0.1,0.1c-0.1,0.2-0.1,0.4-0.1,0.6c0.2-0.3,0.6-0.7,0.8-0.8l0.2-0.1l-0.1,0.2c-0.1,0.2,0,0.5,0.1,0.7
				c0.1-0.4,0.5-0.9,0.6-1.1l0.1,0.1c0,0.2,0,0.5,0,0.7c0.2-0.4,0.6-0.8,1.1-0.9l0.1,0l-0.1,0.1c-0.2,0.3-0.3,0.4-0.4,0.7
				c0.2-0.1,0.5-0.2,0.7-0.3c0.1,0,0.3-0.1,0.4-0.1l0.1,0.1c-0.2,0.1-0.3,0.4-0.3,0.6c0.3-0.2,0.9-0.4,1.2-0.5l0.1,0.1
				c-0.2,0.1-0.2,0.4-0.3,0.6c1-0.5,2.1-0.5,2.9,0l0.1,0l0,0.1c-0.3,0.3-0.7,0.2-1.2,0.1c-0.4-0.1-0.8-0.2-1.2-0.1
				c0.3,0.3,0.8,0.5,1,0.6l0,0.1c-0.5,0-1.3-0.1-1.9,0c0.3,0.1,0.6,0.3,0.9,0.4l0,0.1c-0.4,0-1.1,0.1-1.5,0.2
				c0.4,0.1,0.8,0.2,0.9,0.3l0.1,0.1l-0.1,0c-1.3,0.5-2.9,2.1-3.5,3.1c0.3-0.2,0.6-0.5,0.8-0.6l0.1-0.1l0,0.2c0,0.1-0.1,0.4-0.1,0.6
				c0,0,0,0.1,0,0.1c0.1-0.1,0.1-0.2,0.2-0.3c0.2-0.2,0.3-0.5,0.4-0.6l0.1-0.2l0,0.2c0,0.1,0,0.3,0,0.5c0.1-0.3,0.3-0.6,0.4-0.8
				l0.1-0.1l0.1,0c0,0.2,0,0.5,0.1,0.8c0,0,0,0.1,0,0.1c0.2-0.5,0.5-1.2,0.7-1.6l0.1,0c0,0.6,0,1,0,1.2c0.3-0.5,0.7-1.5,0.9-2l0.1,0
				c0,0.3,0,1.1,0,1.5c0.4-0.5,0.7-1.4,0.8-2l0.1,0c0,0.2,0,0.6,0,0.9c0,0.3,0,0.5,0,0.7c0.3-0.4,0.5-1.1,0.5-1.6
				c0-0.6,0.3-0.8,0.8-1l0.1,0l0,0.1c0,0.5-0.4,1.4-0.7,2.2c-0.3,0.7-0.6,1.3-0.6,1.7c0,0,0.1-0.1,0.1-0.1c0.1-0.1,0.2-0.3,0.2-0.4
				l0.1-0.2l0,0.2c0,0.1,0.1,0.5,0.1,0.8c0.1-0.2,0.1-0.5,0.1-0.7c0-0.1,0-0.2,0.1-0.3l0-0.1l0.1,0.1c0.1,0.1,0.2,0.2,0.3,0.4
				c0.1,0.1,0.1,0.1,0.2,0.2c0-0.4-0.1-1.1-0.1-1.4l0-0.1l0.1,0.1c0.3,0.1,0.7,0.5,0.9,0.8c-0.1-0.4-0.3-1-0.5-1.3l0.1-0.1
				c0,0,0.1,0.1,0.1,0.1c0.1,0.1,0.2,0.2,0.3,0.3c-0.1-0.4-0.3-0.9-0.4-1.2l-0.1-0.2l0.2,0.1c0,0,0.1,0.1,0.2,0.1
				c0.1,0.1,0.3,0.2,0.4,0.3c-0.1-0.3-0.3-0.8-0.5-1l-0.1-0.1l0.2,0c0.1,0,0.4,0.2,0.5,0.3c-0.1-0.4-0.2-0.8-0.4-1.1l0.1-0.1
				c0.6,0.6,0.6,1.6,0.5,2.3l0.3-0.4l0,0.2c0,0.1-0.1,0.4-0.1,0.6c-0.1,0.2-0.1,0.5-0.2,0.7c0,0,0,0,0,0c0.1-0.1,0.1-0.3,0.2-0.3
				l0.1,0c-0.1,0.3-0.1,0.8-0.1,1.3c0.1-0.1,0.2-0.3,0.2-0.4c0,0,0.1-0.1,0.1-0.1l0.1-0.2l0,0.2c0,0.3,0.1,0.9,0.2,1.4
				c0-0.1,0.1-0.2,0.2-0.4c0,0,0-0.1,0-0.1L-209.8,390.5z M-211.5,386.9c0.2,0.3,0.3,0.7,0.4,1l0,0.1c0-0.2,0.1-0.5,0-0.8l0,0
				C-211.1,387.1-211.3,387-211.5,386.9z M-214,383.8c0.1,0,0.2,0.1,0.3,0.2c0.5,0.3,1.2,0.8,1.8,1.1
				C-212.3,384.7-213.2,384.1-214,383.8z M-207.7,382.8c-0.8,0.4-1.8,1-2.1,1.5c0.4-0.3,0.9-0.6,1.4-1
				C-208.2,383.1-207.9,382.9-207.7,382.8z"/>
		</g>
		<g>
			<path class="st6" d="M-209.7,390.5c-0.5-0.6-0.7-1.7-0.9-2.7c-0.1-0.8-0.3-1.5-0.5-2l0.1-0.1c0.2,0.5,0.4,1.3,0.5,2
				C-210.3,388.8-210.1,389.9-209.7,390.5L-209.7,390.5z M-218,390L-218,390c0.9-1,5-3.9,6.8-4.8l0.1,0.1
				C-213,386.2-217.1,389.1-218,390z M-205.7,388.8c-1-0.5-4-3-5.1-4.1l0.1-0.1c1,1.1,4.1,3.6,5,4.1L-205.7,388.8z M-211.8,385.4
				c-0.3-0.1-0.6-0.2-0.9-0.3c-2.3-0.7-4.6-1.5-6.1-0.7l-0.1-0.1c1.5-0.9,3.8-0.1,6.2,0.7c0.3,0.1,0.6,0.2,0.9,0.3L-211.8,385.4z
				 M-211.3,385c-0.6-0.2-2.4-1.8-4-3.3c-0.8-0.8-1.6-1.5-1.9-1.7l0.1-0.1c0.4,0.3,1.1,1,2,1.7c1.5,1.4,3.3,3.1,3.9,3.2L-211.3,385z
				 M-210.9,384.9c-0.2-1.5-0.8-6.1-1.3-7.3l0.1,0c0.5,1.3,1.2,6.1,1.3,7.3L-210.9,384.9z M-210.3,384.5l-0.1-0.1
				c0.4-0.5,0.8-1.4,1.2-2.3c0.8-1.8,1.7-3.8,3-4.6l0.1,0.1c-1.3,0.8-2.1,2.8-2.9,4.5C-209.6,383.1-209.9,384-210.3,384.5z"/>
		</g>
		<g>
			<path class="st7" d="M-210.9,405.7c2.5,0,4.5-0.5,4.5-1.2c0-1.1,0.4-2.7,0.5-3.8c-0.4,1.3-1.7,1.7-2.6,0.8
				c-0.6,0.6-1.7,0.9-2.5-0.2c-0.7,1.1-1.9,0.8-2.5,0.2c-0.8,0.9-2.2,0.5-2.6-0.8c0.1,1.1,0.5,2.7,0.5,3.8
				C-215.4,405.2-213.4,405.7-210.9,405.7L-210.9,405.7z"/>
		</g>
		<g>
			<path d="M-210.9,405.8c-2.6,0-4.6-0.5-4.6-1.3c0-0.7-0.2-1.7-0.3-2.5c-0.1-0.5-0.2-0.9-0.2-1.3l0.1,0c0.2,0.6,0.6,1.1,1.2,1.2
				c0.5,0.1,0.9,0,1.3-0.4l0,0l0,0c0.3,0.3,0.8,0.5,1.3,0.5c0.4,0,0.8-0.3,1.1-0.7l0.1-0.1l0.1,0.1c0.3,0.4,0.6,0.7,1.1,0.7
				c0.5,0.1,1-0.2,1.3-0.5l0,0l0,0c0.4,0.4,0.8,0.5,1.3,0.4c0.5-0.1,1-0.6,1.2-1.2l0.1,0c0,0.4-0.1,0.8-0.2,1.3
				c-0.1,0.9-0.3,1.8-0.3,2.5C-206.3,405.2-208.3,405.8-210.9,405.8z M-215.8,401.1c0,0.3,0.1,0.5,0.1,0.8c0.1,0.9,0.3,1.8,0.3,2.6
				c0,0.5,1.8,1.1,4.5,1.1s4.5-0.6,4.5-1.1c0-0.7,0.2-1.7,0.3-2.6c0-0.3,0.1-0.5,0.1-0.8c-0.2,0.4-0.6,0.7-1.1,0.8
				c-0.5,0.1-1,0-1.4-0.4c-0.4,0.3-0.9,0.5-1.4,0.5c-0.4,0-0.8-0.3-1.1-0.7c-0.3,0.4-0.7,0.6-1.1,0.7c-0.5,0-1-0.1-1.4-0.5
				c-0.4,0.4-0.9,0.5-1.4,0.4C-215.2,401.9-215.5,401.6-215.8,401.1z"/>
		</g>
		<g>
			<path class="st7" d="M-210.9,401.6c0.1,0.7,1.9,1.1,2.4,0.1c0.5,0.7,2.3,0.8,2.8-0.9l-0.4-0.1c-0.5,1.1-1.4,1.2-1.9,0.6
				c-0.5-0.6,0.4-0.8,0.7-0.4c0.5-0.6-0.1-1.3-0.7-1.1c0.2-0.4,0.1-1-0.3-1.3c-0.4,0.3-0.5,0.9-0.4,1.3c-0.6-0.3-1.2,0.4-0.8,1
				c0.3-0.4,1.2-0.3,0.7,0.3c-0.5,0.7-1.9,0.6-2.2-0.9c-0.2,1.5-1.6,1.5-2.2,0.9c-0.5-0.6,0.3-0.8,0.7-0.3c0.5-0.6-0.2-1.3-0.8-1
				c0.2-0.4,0.1-1-0.4-1.3c-0.4,0.3-0.5,0.9-0.3,1.3c-0.6-0.3-1.2,0.5-0.7,1.1c0.3-0.4,1.2-0.2,0.7,0.4c-0.5,0.6-1.4,0.4-1.9-0.6
				l-0.4,0.1c0.4,1.7,2.2,1.6,2.8,0.9C-212.8,402.6-211,402.3-210.9,401.6L-210.9,401.6z"/>
		</g>
		<g>
			<path d="M-209.6,402.3c-0.1,0-0.3,0-0.4,0c-0.4-0.1-0.8-0.3-0.9-0.5c-0.1,0.2-0.5,0.4-0.9,0.5c-0.5,0.1-1.2,0-1.5-0.5
				c-0.3,0.3-0.9,0.5-1.5,0.4c-0.7-0.1-1.2-0.6-1.3-1.4l0-0.1l0.5-0.1l0,0c0.2,0.5,0.6,0.9,1,0.9c0.3,0,0.6-0.1,0.8-0.3
				c0.1-0.1,0.2-0.3,0.1-0.4c0-0.1-0.1-0.1-0.3-0.1c0,0,0,0,0,0c-0.1,0-0.3,0.1-0.4,0.2l0,0.1l-0.1-0.1c-0.3-0.3-0.2-0.7-0.1-0.9
				c0.1-0.2,0.4-0.3,0.7-0.3c-0.1-0.4-0.1-1,0.4-1.2l0,0l0,0c0.4,0.2,0.5,0.8,0.4,1.2c0.3-0.1,0.6,0.1,0.7,0.2
				c0.2,0.3,0.2,0.6,0,0.9l-0.1,0.1l0-0.1c-0.1-0.2-0.3-0.2-0.5-0.2c-0.1,0-0.2,0.1-0.2,0.1c0,0.1,0,0.2,0.1,0.4
				c0.3,0.3,0.7,0.5,1.1,0.3c0.5-0.1,0.8-0.6,0.9-1.2h0.1c0.1,0.6,0.4,1,0.9,1.2c0.4,0.1,0.9,0,1.1-0.3c0.1-0.1,0.2-0.3,0.1-0.4
				c0-0.1-0.1-0.1-0.2-0.1c-0.1,0-0.4,0-0.5,0.2l0,0.1l-0.1-0.1c-0.2-0.3-0.2-0.7,0-0.9c0.2-0.2,0.4-0.3,0.7-0.2
				c-0.1-0.4,0-1,0.4-1.2l0,0l0,0c0.4,0.3,0.5,0.8,0.4,1.2c0.3-0.1,0.5,0.1,0.7,0.3c0.2,0.2,0.2,0.6-0.1,0.9l-0.1,0.1l0-0.1
				c-0.1-0.2-0.3-0.2-0.5-0.2c-0.1,0-0.2,0.1-0.3,0.1c0,0.1,0,0.2,0.1,0.4c0.2,0.2,0.5,0.4,0.8,0.3c0.4-0.1,0.8-0.4,1-0.9l0,0
				l0.5,0.1l0,0.1c-0.2,0.7-0.7,1.2-1.3,1.4c-0.6,0.1-1.2-0.1-1.5-0.4C-208.7,402.2-209.2,402.3-209.6,402.3z M-210.9,401.6h0.1
				c0,0.3,0.4,0.5,0.9,0.6c0.5,0.1,1.2,0,1.4-0.5l0-0.1l0.1,0.1c0.3,0.4,0.8,0.5,1.4,0.4c0.4-0.1,1-0.3,1.2-1.2l-0.2,0
				c-0.3,0.5-0.7,0.9-1.1,0.9c-0.3,0-0.7-0.1-0.9-0.4c-0.2-0.2-0.2-0.4-0.1-0.5c0.1-0.1,0.2-0.2,0.4-0.2c0.2,0,0.4,0.1,0.5,0.2
				c0.2-0.3,0.1-0.5,0-0.7c-0.1-0.2-0.4-0.3-0.7-0.2l-0.2,0.1l0.1-0.2c0.2-0.4,0.1-0.9-0.2-1.2c-0.4,0.2-0.5,0.8-0.3,1.2l0.1,0.2
				l-0.2-0.1c-0.3-0.1-0.5,0-0.7,0.2c-0.1,0.2-0.2,0.4-0.1,0.7c0.2-0.2,0.4-0.2,0.6-0.2c0.1,0,0.2,0.1,0.3,0.2c0,0.1,0,0.2-0.1,0.5
				c-0.3,0.4-0.8,0.5-1.3,0.4c-0.5-0.1-0.8-0.5-0.9-1c-0.2,0.5-0.5,0.9-0.9,1c-0.5,0.1-1,0-1.3-0.4c-0.2-0.2-0.2-0.4-0.1-0.5
				c0-0.1,0.1-0.2,0.3-0.2c0.2,0,0.4,0,0.6,0.2c0.2-0.3,0.1-0.5-0.1-0.7c-0.2-0.2-0.4-0.3-0.7-0.2l-0.2,0.1l0.1-0.2
				c0.2-0.4,0.1-0.9-0.3-1.2c-0.4,0.3-0.4,0.8-0.2,1.2l0.1,0.2l-0.2-0.1c-0.3-0.1-0.5,0-0.7,0.2c-0.1,0.2-0.2,0.4,0,0.7
				c0.1-0.1,0.3-0.2,0.5-0.2c0.2,0,0.3,0.1,0.4,0.2c0,0.1,0,0.3-0.1,0.5c-0.2,0.3-0.5,0.4-0.9,0.4c-0.4-0.1-0.8-0.4-1.1-0.9l-0.2,0
				c0.3,0.9,0.9,1.1,1.2,1.2c0.5,0.1,1.1-0.1,1.4-0.4l0.1-0.1l0,0.1c0.3,0.5,1,0.6,1.4,0.5C-211.3,402.1-211,401.8-210.9,401.6z"/>
		</g>
		<g>
			<path class="st7" d="M-210.9,397.7c1.1-0.9,2.5-2,3.8-1.4c1.5,0.6,1.3,1.6,0.9,3.2l0.6,0.1c0.4-1.8,0.3-3-1.2-3.6
				c-1.6-0.7-3,0.1-4.3,1.1c-1.2-1-2.6-1.8-4.3-1.1c-1.5,0.6-1.6,1.9-1.2,3.6l0.6-0.1c-0.4-1.6-0.5-2.6,0.9-3.2
				C-213.3,395.7-211.9,396.8-210.9,397.7L-210.9,397.7z"/>
		</g>
		<g>
			<path d="M-205.4,399.6l-0.8-0.1l0-0.1c0.4-1.6,0.5-2.5-0.9-3.1c-1.3-0.5-2.5,0.4-3.8,1.4l0,0l0,0c-1.2-1-2.5-1.9-3.8-1.4
				c-1.4,0.6-1.3,1.6-0.9,3.1l0,0.1l-0.8,0.1l0-0.1c-0.4-1.5-0.5-3,1.2-3.7c1.7-0.7,3.2,0.2,4.3,1.1c1.1-0.9,2.5-1.8,4.3-1.1
				C-204.9,396.6-205,398.1-205.4,399.6L-205.4,399.6z M-213.9,395.7c-0.4,0-0.8,0.1-1.2,0.3c-1.3,0.5-1.6,1.6-1.1,3.5l0.5-0.1
				c-0.4-1.5-0.5-2.6,1-3.2c1.5-0.6,3,0.6,3.8,1.4c0.8-0.7,2.4-2,3.8-1.4c1.5,0.6,1.4,1.7,1,3.2l0.5,0.1c0.5-2,0.1-3-1.1-3.5
				c-1.7-0.7-3.1,0.2-4.2,1.1l0,0l0,0C-211.7,396.4-212.7,395.7-213.9,395.7z"/>
		</g>
		<g>
			<polyline class="st7" points="-215.9,400.7 -215.5,399.4 -216.7,399.5 -215.9,400.7 			"/>
		</g>
		<g>
			<path d="M-215.9,400.8l-0.9-1.3l1.4-0.2L-215.9,400.8z M-216.6,399.6l0.6,1l0.3-1.1L-216.6,399.6z"/>
		</g>
		<g>
			<polyline class="st7" points="-215.9,400.7 -214.7,401.2 -214.9,399.9 -215.9,400.7 			"/>
		</g>
		<g>
			<path d="M-214.6,401.3l-1.4-0.6l1.2-0.9l0,0.1L-214.6,401.3z M-215.8,400.7l1,0.4l-0.2-1.1L-215.8,400.7z"/>
		</g>
		<g>
			<path class="st7" d="M-215.8,401.1c0.2,0,0.3-0.2,0.3-0.5c0-0.2-0.2-0.4-0.4-0.4c-0.2,0-0.3,0.2-0.3,0.5
				C-216.2,401-216,401.1-215.8,401.1L-215.8,401.1z"/>
		</g>
		<g>
			<path d="M-215.9,401.2c-0.1,0-0.2,0-0.3-0.1c-0.1-0.1-0.2-0.2-0.2-0.3c0-0.3,0.1-0.5,0.4-0.5c0.1,0,0.2,0,0.3,0.1
				c0.1,0.1,0.2,0.2,0.2,0.3c0,0.1,0,0.3-0.1,0.4C-215.6,401.1-215.7,401.1-215.9,401.2L-215.9,401.2
				C-215.9,401.2-215.9,401.2-215.9,401.2z M-215.9,400.3C-215.9,400.3-215.9,400.3-215.9,400.3c-0.2,0-0.3,0.2-0.3,0.4
				c0,0.1,0.1,0.2,0.1,0.2c0.1,0,0.1,0.1,0.2,0.1l0,0c0.1,0,0.1-0.1,0.2-0.1c0.1-0.1,0.1-0.2,0.1-0.3c0-0.1-0.1-0.2-0.1-0.2
				C-215.8,400.3-215.9,400.3-215.9,400.3z"/>
		</g>
		<g>
			<path class="st7" d="M-215.9,400.7"/>
		</g>
		<g>
			<path class="st8" d="M-215.9,400.7"/>
		</g>
		<g>
			<polygon class="st7" points="-215.5,403.7 -215,403.2 -215.6,403 -215.9,403.4 			"/>
		</g>
		<g>
			<path d="M-215.5,403.8l-0.5-0.3l0.4-0.5l0.7,0.3L-215.5,403.8z M-215.8,403.4l0.3,0.2l0.3-0.3l-0.4-0.2L-215.8,403.4z"/>
		</g>
		<g>
			<path class="st7" d="M-213.2,402.5c-0.7,0.1-0.6,0.7,0.1,0.6C-212.4,403-212.5,402.4-213.2,402.5L-213.2,402.5z"/>
		</g>
		<g>
			<path d="M-213.3,403.2c-0.3,0-0.5-0.1-0.5-0.3c0-0.1,0-0.2,0.1-0.3c0.1-0.1,0.2-0.1,0.4-0.2c0.4-0.1,0.6,0.1,0.7,0.3
				c0,0.2-0.1,0.4-0.5,0.4C-213.2,403.2-213.3,403.2-213.3,403.2z M-213.1,402.6c0,0-0.1,0-0.2,0c-0.2,0-0.3,0.1-0.4,0.1
				c-0.1,0-0.1,0.1-0.1,0.2c0,0.1,0.1,0.1,0.1,0.1c0.1,0,0.2,0.1,0.4,0c0.3,0,0.5-0.2,0.4-0.3C-212.7,402.7-212.9,402.6-213.1,402.6
				z"/>
		</g>
		<g>
			<path class="st7" d="M-211.9,395.6c-0.4,0-0.4,0.6,0,0.6C-211.4,396.2-211.4,395.6-211.9,395.6L-211.9,395.6z"/>
		</g>
		<g>
			<path d="M-211.9,396.3c-0.3,0-0.4-0.2-0.4-0.4c0-0.1,0-0.2,0.1-0.3c0.1-0.1,0.2-0.1,0.3-0.1c0.3,0,0.4,0.2,0.4,0.4
				c0,0.1,0,0.2-0.1,0.3C-211.6,396.3-211.7,396.3-211.9,396.3z M-211.9,395.7c-0.1,0-0.2,0-0.2,0.1c0,0-0.1,0.1-0.1,0.2
				c0,0.1,0.1,0.3,0.3,0.3c0.1,0,0.1,0,0.2-0.1c0,0,0.1-0.1,0.1-0.2C-211.6,395.8-211.7,395.7-211.9,395.7z"/>
		</g>
		<g>
			<path class="st7" d="M-213.7,394.9c-0.5,0-0.5,0.7,0,0.7S-213.3,394.9-213.7,394.9L-213.7,394.9z"/>
		</g>
		<g>
			<path d="M-213.7,395.7c-0.3,0-0.4-0.2-0.4-0.4s0.1-0.4,0.4-0.4c0.3,0,0.4,0.2,0.4,0.4S-213.5,395.7-213.7,395.7z M-213.7,395
				c-0.2,0-0.3,0.1-0.3,0.3s0.1,0.3,0.3,0.3s0.3-0.1,0.3-0.3S-213.5,395-213.7,395z"/>
		</g>
		<g>
			<path class="st7" d="M-215.8,395.5c-0.5,0-0.5,0.8,0,0.8C-215.3,396.2-215.3,395.5-215.8,395.5L-215.8,395.5z"/>
		</g>
		<g>
			<path d="M-215.8,396.3c-0.3,0-0.5-0.2-0.5-0.5c0-0.2,0.2-0.5,0.5-0.5s0.5,0.2,0.5,0.5C-215.4,396.1-215.5,396.3-215.8,396.3z
				 M-215.8,395.5c-0.2,0-0.3,0.2-0.3,0.3c0,0.2,0.1,0.3,0.3,0.3s0.3-0.2,0.3-0.3C-215.5,395.7-215.6,395.5-215.8,395.5z"/>
		</g>
		<g>
			<path class="st7" d="M-212.4,395.3c-0.4,0-0.4,0.6,0,0.6C-212,396-212,395.3-212.4,395.3L-212.4,395.3z"/>
		</g>
		<g>
			<path d="M-212.4,396c-0.3,0-0.4-0.2-0.4-0.4c0-0.1,0-0.2,0.1-0.3c0.1-0.1,0.2-0.1,0.3-0.1c0.3,0,0.4,0.2,0.4,0.4
				c0,0.1,0,0.2-0.1,0.3C-212.2,396-212.3,396-212.4,396z M-212.4,395.4c-0.1,0-0.1,0-0.2,0.1c0,0-0.1,0.1-0.1,0.2
				c0,0.1,0.1,0.3,0.3,0.3c0.1,0,0.1,0,0.2-0.1c0,0,0.1-0.1,0.1-0.2C-212.2,395.5-212.3,395.4-212.4,395.4z"/>
		</g>
		<g>
			<path class="st7" d="M-213.1,395.1c-0.4,0-0.4,0.6,0,0.6C-212.6,395.7-212.6,395.1-213.1,395.1L-213.1,395.1z"/>
		</g>
		<g>
			<path d="M-213.1,395.8c-0.3,0-0.4-0.2-0.4-0.4c0-0.1,0-0.2,0.1-0.3c0.1-0.1,0.2-0.1,0.3-0.1c0.3,0,0.4,0.2,0.4,0.4
				c0,0.1,0,0.2-0.1,0.3C-212.8,395.8-212.9,395.8-213.1,395.8z M-213.1,395.2c-0.1,0-0.2,0-0.2,0.1c0,0-0.1,0.1-0.1,0.2
				c0,0.1,0.1,0.3,0.3,0.3c0.1,0,0.1,0,0.2-0.1c0,0,0.1-0.1,0.1-0.2C-212.8,395.3-212.9,395.2-213.1,395.2z"/>
		</g>
		<g>
			<path class="st7" d="M-214.4,395c-0.5,0-0.5,0.7,0,0.7S-214,395-214.4,395L-214.4,395z"/>
		</g>
		<g>
			<path d="M-214.4,395.8c-0.3,0-0.4-0.2-0.4-0.4s0.1-0.4,0.4-0.4c0.3,0,0.4,0.2,0.4,0.4S-214.2,395.8-214.4,395.8z M-214.4,395.1
				c-0.2,0-0.3,0.1-0.3,0.3s0.1,0.3,0.3,0.3s0.3-0.1,0.3-0.3S-214.2,395.1-214.4,395.1z"/>
		</g>
		<g>
			<path class="st7" d="M-215.1,395.2c-0.5,0-0.5,0.7,0,0.7C-214.7,395.9-214.7,395.2-215.1,395.2L-215.1,395.2z"/>
		</g>
		<g>
			<path d="M-215.1,396c-0.3,0-0.4-0.2-0.4-0.4s0.1-0.4,0.4-0.4s0.4,0.2,0.4,0.4S-214.9,396-215.1,396z M-215.1,395.2
				c-0.2,0-0.3,0.1-0.3,0.3s0.1,0.3,0.3,0.3s0.3-0.1,0.3-0.3S-214.9,395.2-215.1,395.2z"/>
		</g>
		<g>
			<path class="st7" d="M-216.4,396c-0.5,0-0.5,0.8,0,0.8C-215.9,396.8-215.9,396-216.4,396L-216.4,396z"/>
		</g>
		<g>
			<path d="M-216.4,396.8c-0.3,0-0.5-0.2-0.5-0.5c0-0.2,0.2-0.5,0.5-0.5s0.5,0.2,0.5,0.5C-215.9,396.6-216.1,396.8-216.4,396.8z
				 M-216.4,396c-0.2,0-0.3,0.2-0.3,0.3c0,0.2,0.1,0.3,0.3,0.3s0.3-0.2,0.3-0.3C-216.1,396.2-216.2,396-216.4,396z"/>
		</g>
		<g>
			<path class="st7" d="M-216.7,396.7c-0.5,0-0.5,0.8,0,0.8S-216.2,396.7-216.7,396.7L-216.7,396.7z"/>
		</g>
		<g>
			<path d="M-216.7,397.5c-0.3,0-0.5-0.2-0.5-0.5c0-0.2,0.2-0.5,0.5-0.5s0.5,0.2,0.5,0.5C-216.3,397.3-216.4,397.5-216.7,397.5z
				 M-216.7,396.8c-0.2,0-0.3,0.2-0.3,0.3c0,0.2,0.1,0.3,0.3,0.3s0.3-0.2,0.3-0.3C-216.4,396.9-216.5,396.8-216.7,396.8z"/>
		</g>
		<g>
			<path class="st7" d="M-216.9,397.5c-0.5,0-0.5,0.8,0,0.8C-216.4,398.2-216.4,397.5-216.9,397.5L-216.9,397.5z"/>
		</g>
		<g>
			<path d="M-216.9,398.3c-0.3,0-0.5-0.2-0.5-0.5s0.2-0.5,0.5-0.5s0.5,0.2,0.5,0.5S-216.6,398.3-216.9,398.3z M-216.9,397.5
				c-0.2,0-0.3,0.2-0.3,0.3s0.1,0.3,0.3,0.3s0.3-0.2,0.3-0.3S-216.7,397.5-216.9,397.5z"/>
		</g>
		<g>
			<path class="st7" d="M-216.8,398.2c-0.5,0-0.5,0.8,0,0.8S-216.3,398.2-216.8,398.2L-216.8,398.2z"/>
		</g>
		<g>
			<path d="M-216.8,399.1c-0.3,0-0.5-0.2-0.5-0.5c0-0.2,0.2-0.5,0.5-0.5s0.5,0.2,0.5,0.5C-216.4,398.8-216.6,399.1-216.8,399.1z
				 M-216.8,398.3c-0.2,0-0.3,0.2-0.3,0.3c0,0.2,0.1,0.3,0.3,0.3s0.3-0.2,0.3-0.3C-216.5,398.5-216.6,398.3-216.8,398.3z"/>
		</g>
		<g>
			<path class="st7" d="M-216.7,399c-0.5,0-0.5,0.7,0,0.7C-216.2,399.7-216.2,399-216.7,399L-216.7,399z"/>
		</g>
		<g>
			<path d="M-216.7,399.7c-0.3,0-0.4-0.2-0.4-0.4c0-0.2,0.1-0.4,0.4-0.4s0.4,0.2,0.4,0.4C-216.3,399.5-216.4,399.7-216.7,399.7z
				 M-216.7,399.1c-0.2,0-0.3,0.1-0.3,0.3c0,0.1,0.1,0.3,0.3,0.3s0.3-0.1,0.3-0.3C-216.4,399.2-216.5,399.1-216.7,399.1z"/>
		</g>
		<g>
			<polyline class="st7" points="-205.8,400.7 -206.3,399.4 -205.1,399.5 -205.8,400.7 			"/>
		</g>
		<g>
			<path d="M-205.9,400.8l-0.5-1.5l0.1,0l1.3,0.2l-0.1,0.1L-205.9,400.8z M-206.2,399.4l0.3,1.1l0.6-1L-206.2,399.4z"/>
		</g>
		<g>
			<polyline class="st7" points="-205.8,400.7 -207,401.2 -206.9,399.9 -205.8,400.7 			"/>
		</g>
		<g>
			<path d="M-207.1,401.3l0.2-1.5l1.2,0.9L-207.1,401.3z M-206.8,400l-0.2,1.1l1-0.4L-206.8,400z"/>
		</g>
		<g>
			<path class="st7" d="M-205.9,401.1c-0.2,0-0.3-0.2-0.3-0.5c0-0.2,0.2-0.4,0.4-0.4c0.2,0,0.3,0.2,0.3,0.5
				C-205.5,401-205.7,401.1-205.9,401.1L-205.9,401.1z"/>
		</g>
		<g>
			<path d="M-205.9,401.2C-205.9,401.2-205.9,401.2-205.9,401.2L-205.9,401.2c-0.2,0-0.3-0.1-0.3-0.2c-0.1-0.1-0.1-0.2-0.1-0.4
				c0-0.1,0.1-0.3,0.2-0.3c0.1-0.1,0.2-0.1,0.3-0.1c0.2,0,0.4,0.3,0.4,0.5c0,0.1-0.1,0.3-0.2,0.3
				C-205.7,401.1-205.8,401.2-205.9,401.2z M-205.8,400.3c-0.1,0-0.1,0-0.2,0.1c-0.1,0.1-0.1,0.1-0.1,0.2c0,0.1,0,0.2,0.1,0.3
				c0,0.1,0.1,0.1,0.2,0.1l0,0c0.1,0,0.2,0,0.2-0.1c0.1-0.1,0.1-0.1,0.1-0.2C-205.5,400.5-205.6,400.4-205.8,400.3
				C-205.8,400.3-205.8,400.3-205.8,400.3z"/>
		</g>
		<g>
			<path class="st7" d="M-205.8,400.7"/>
		</g>
		<g>
			<path class="st8" d="M-205.8,400.7"/>
		</g>
		<g>
			<polygon class="st7" points="-206.3,403.7 -206.7,403.2 -206.2,403 -205.9,403.4 			"/>
		</g>
		<g>
			<path d="M-206.3,403.8l-0.5-0.5l0.7-0.3l0.4,0.5L-206.3,403.8z M-206.6,403.3l0.3,0.3l0.3-0.2l-0.2-0.3L-206.6,403.3z"/>
		</g>
		<g>
			<path class="st7" d="M-208.5,402.5c0.7,0.1,0.6,0.7-0.1,0.6C-209.3,403-209.2,402.4-208.5,402.5L-208.5,402.5z"/>
		</g>
		<g>
			<path d="M-208.4,403.2c-0.1,0-0.1,0-0.2,0c-0.4-0.1-0.6-0.3-0.5-0.4c0-0.2,0.2-0.3,0.7-0.3c0.3,0,0.5,0.2,0.5,0.3
				c0,0.1,0,0.2,0,0.2C-208.1,403.1-208.2,403.2-208.4,403.2z M-208.7,402.6c-0.2,0-0.3,0.1-0.4,0.2c0,0.1,0.1,0.2,0.4,0.3
				c0.3,0,0.4,0,0.5-0.1c0,0,0-0.1,0-0.1c0-0.1-0.2-0.2-0.4-0.2l0,0C-208.6,402.6-208.6,402.6-208.7,402.6z"/>
		</g>
		<g>
			<path class="st7" d="M-209.9,395.6c0.4,0,0.4,0.6,0,0.6C-210.3,396.2-210.3,395.6-209.9,395.6L-209.9,395.6z"/>
		</g>
		<g>
			<path d="M-209.9,396.3c-0.3,0-0.4-0.2-0.4-0.4c0-0.1,0-0.2,0.1-0.3c0.1-0.1,0.2-0.1,0.3-0.1c0.3,0,0.4,0.2,0.4,0.4
				c0,0.1,0,0.2-0.1,0.3C-209.7,396.3-209.8,396.3-209.9,396.3z M-209.9,395.7c-0.1,0-0.1,0-0.2,0.1c0,0-0.1,0.1-0.1,0.2
				c0,0.1,0.1,0.3,0.3,0.3c0.1,0,0.1,0,0.2-0.1c0,0,0.1-0.1,0.1-0.2C-209.6,395.8-209.7,395.7-209.9,395.7z"/>
		</g>
		<g>
			<path class="st7" d="M-208,394.9c0.5,0,0.5,0.7,0,0.7C-208.5,395.7-208.5,394.9-208,394.9L-208,394.9z"/>
		</g>
		<g>
			<path d="M-208,395.7c-0.3,0-0.4-0.2-0.4-0.4s0.1-0.4,0.4-0.4c0.3,0,0.4,0.2,0.4,0.4S-207.7,395.7-208,395.7z M-208,395
				c-0.2,0-0.3,0.1-0.3,0.3s0.1,0.3,0.3,0.3s0.3-0.1,0.3-0.3S-207.8,395-208,395z"/>
		</g>
		<g>
			<path class="st7" d="M-205.9,395.5c0.5,0,0.5,0.8,0,0.8C-206.5,396.2-206.5,395.5-205.9,395.5L-205.9,395.5z"/>
		</g>
		<g>
			<path d="M-205.9,396.3c-0.3,0-0.5-0.2-0.5-0.5c0-0.2,0.2-0.5,0.5-0.5s0.5,0.2,0.5,0.5C-205.5,396.1-205.6,396.3-205.9,396.3z
				 M-205.9,395.5c-0.2,0-0.3,0.2-0.3,0.3c0,0.2,0.1,0.3,0.3,0.3s0.3-0.2,0.3-0.3C-205.6,395.7-205.7,395.5-205.9,395.5z"/>
		</g>
		<g>
			<path class="st7" d="M-209.3,395.3c0.4,0,0.4,0.6,0,0.6C-209.7,396-209.7,395.3-209.3,395.3L-209.3,395.3z"/>
		</g>
		<g>
			<path d="M-209.3,396c-0.3,0-0.4-0.2-0.4-0.4c0-0.1,0-0.2,0.1-0.3c0.1-0.1,0.2-0.1,0.3-0.1c0.3,0,0.4,0.2,0.4,0.4
				c0,0.1,0,0.2-0.1,0.3C-209.1,396-209.2,396-209.3,396z M-209.3,395.4c-0.1,0-0.1,0-0.2,0.1c0,0-0.1,0.1-0.1,0.2
				c0,0.1,0.1,0.3,0.3,0.3c0.1,0,0.1,0,0.2-0.1c0,0,0.1-0.1,0.1-0.2C-209,395.5-209.1,395.4-209.3,395.4z"/>
		</g>
		<g>
			<path class="st7" d="M-208.7,395.1c0.4,0,0.4,0.6,0,0.6C-209.1,395.7-209.1,395.1-208.7,395.1L-208.7,395.1z"/>
		</g>
		<g>
			<path d="M-208.7,395.8c-0.3,0-0.4-0.2-0.4-0.4c0-0.1,0-0.2,0.1-0.3c0.1-0.1,0.2-0.1,0.3-0.1c0.3,0,0.4,0.2,0.4,0.4
				c0,0.1,0,0.2-0.1,0.3C-208.5,395.8-208.6,395.8-208.7,395.8z M-208.7,395.2c-0.1,0-0.1,0-0.2,0.1c0,0-0.1,0.1-0.1,0.2
				c0,0.1,0.1,0.3,0.3,0.3c0.1,0,0.1,0,0.2-0.1c0,0,0.1-0.1,0.1-0.2C-208.4,395.3-208.5,395.2-208.7,395.2z"/>
		</g>
		<g>
			<path class="st7" d="M-207.3,395c0.5,0,0.5,0.7,0,0.7C-207.8,395.7-207.8,395-207.3,395L-207.3,395z"/>
		</g>
		<g>
			<path d="M-207.3,395.8c-0.3,0-0.4-0.2-0.4-0.4s0.1-0.4,0.4-0.4c0.3,0,0.4,0.2,0.4,0.4S-207,395.8-207.3,395.8z M-207.3,395.1
				c-0.2,0-0.3,0.1-0.3,0.3s0.1,0.3,0.3,0.3s0.3-0.1,0.3-0.3S-207.1,395.1-207.3,395.1z"/>
		</g>
		<g>
			<path class="st7" d="M-206.6,395.2c0.5,0,0.5,0.7,0,0.7C-207.1,395.9-207.1,395.2-206.6,395.2L-206.6,395.2z"/>
		</g>
		<g>
			<path d="M-206.6,396c-0.3,0-0.4-0.2-0.4-0.4s0.1-0.4,0.4-0.4c0.3,0,0.4,0.2,0.4,0.4S-206.3,396-206.6,396z M-206.6,395.2
				c-0.2,0-0.3,0.1-0.3,0.3s0.1,0.3,0.3,0.3s0.3-0.1,0.3-0.3S-206.4,395.2-206.6,395.2z"/>
		</g>
		<g>
			<path class="st7" d="M-205.3,396c0.5,0,0.5,0.8,0,0.8C-205.9,396.8-205.9,396-205.3,396L-205.3,396z"/>
		</g>
		<g>
			<path d="M-205.3,396.8c-0.3,0-0.5-0.2-0.5-0.5c0-0.2,0.2-0.5,0.5-0.5s0.5,0.2,0.5,0.5C-204.9,396.6-205,396.8-205.3,396.8z
				 M-205.3,396c-0.2,0-0.3,0.2-0.3,0.3c0,0.2,0.1,0.3,0.3,0.3s0.3-0.2,0.3-0.3C-205,396.2-205.1,396-205.3,396z"/>
		</g>
		<g>
			<path class="st7" d="M-205,396.7c0.5,0,0.5,0.8,0,0.8S-205.5,396.7-205,396.7L-205,396.7z"/>
		</g>
		<g>
			<path d="M-205,397.5c-0.3,0-0.5-0.2-0.5-0.5c0-0.2,0.2-0.5,0.5-0.5s0.5,0.2,0.5,0.5C-204.5,397.3-204.7,397.5-205,397.5z
				 M-205,396.8c-0.2,0-0.3,0.2-0.3,0.3c0,0.2,0.1,0.3,0.3,0.3s0.3-0.2,0.3-0.3C-204.7,396.9-204.8,396.8-205,396.8z"/>
		</g>
		<g>
			<path class="st7" d="M-204.9,397.5c0.5,0,0.5,0.8,0,0.8C-205.4,398.2-205.4,397.5-204.9,397.5L-204.9,397.5z"/>
		</g>
		<g>
			<path d="M-204.9,398.3c-0.3,0-0.5-0.2-0.5-0.5s0.2-0.5,0.5-0.5s0.5,0.2,0.5,0.5S-204.6,398.3-204.9,398.3z M-204.9,397.5
				c-0.2,0-0.3,0.2-0.3,0.3s0.1,0.3,0.3,0.3s0.3-0.2,0.3-0.3S-204.6,397.5-204.9,397.5z"/>
		</g>
		<g>
			<path class="st7" d="M-204.9,398.2c0.5,0,0.5,0.8,0,0.8C-205.4,399-205.4,398.2-204.9,398.2L-204.9,398.2z"/>
		</g>
		<g>
			<path d="M-204.9,399.1c-0.3,0-0.5-0.2-0.5-0.5c0-0.2,0.2-0.5,0.5-0.5s0.5,0.2,0.5,0.5C-204.4,398.8-204.6,399.1-204.9,399.1z
				 M-204.9,398.3c-0.2,0-0.3,0.2-0.3,0.3c0,0.2,0.1,0.3,0.3,0.3s0.3-0.2,0.3-0.3C-204.6,398.5-204.7,398.3-204.9,398.3z"/>
		</g>
		<g>
			<path class="st7" d="M-205.1,399c0.5,0,0.5,0.7,0,0.7S-205.5,399-205.1,399L-205.1,399z"/>
		</g>
		<g>
			<path d="M-205.1,399.7c-0.3,0-0.4-0.2-0.4-0.4c0-0.2,0.1-0.4,0.4-0.4s0.4,0.2,0.4,0.4C-204.7,399.5-204.8,399.7-205.1,399.7z
				 M-205.1,399.1c-0.2,0-0.3,0.1-0.3,0.3c0,0.1,0.1,0.3,0.3,0.3s0.3-0.1,0.3-0.3C-204.8,399.2-204.9,399.1-205.1,399.1z"/>
		</g>
		<g>
			<path class="st7" d="M-206.4,404.5c0-0.7-2-1.2-4.5-1.2c-2.5,0-4.5,0.5-4.5,1.2"/>
		</g>
		<g>
			<path d="M-206.3,404.5h-0.1c0-0.5-1.8-1.1-4.5-1.1s-4.5,0.6-4.5,1.1h-0.1c0-0.7,2-1.3,4.6-1.3S-206.3,403.8-206.3,404.5z"/>
		</g>
		<g>
			<polygon class="st7" points="-210.2,394.9 -211.5,394.9 -211.5,399.2 -210.2,399.2 			"/>
		</g>
		<g>
			<path d="M-210.2,399.3h-1.4v-4.5h1.4V399.3z M-211.5,399.2h1.2V395h-1.2V399.2z"/>
		</g>
		<g>
			<polyline class="st7" points="-210.9,400.5 -210.2,399.2 -211.5,399.2 -210.9,400.5 			"/>
		</g>
		<g>
			<path d="M-210.9,400.6l-0.8-1.4h1.5l0,0.1L-210.9,400.6z M-211.4,399.3l0.6,1l0.6-1H-211.4z"/>
		</g>
		<g>
			<polyline class="st7" points="-210.9,400.5 -212.1,399.8 -212.1,401.1 -210.9,400.5 			"/>
		</g>
		<g>
			<path d="M-212.2,401.2v-1.5l0.1,0l1.3,0.7L-212.2,401.2z M-212,399.9v1.1l1-0.6L-212,399.9z"/>
		</g>
		<g>
			<polyline class="st7" points="-210.9,400.5 -209.6,401.1 -209.6,399.8 -210.9,400.5 			"/>
		</g>
		<g>
			<path d="M-209.6,401.2L-209.6,401.2l-1.4-0.8l1.4-0.8V401.2z M-210.7,400.5l1,0.6v-1.1L-210.7,400.5z"/>
		</g>
		<g>
			<path class="st7" d="M-210.9,400.9c0.2,0,0.4-0.2,0.4-0.4s-0.2-0.4-0.4-0.4c-0.2,0-0.4,0.2-0.4,0.4
				C-211.3,400.7-211.1,400.9-210.9,400.9L-210.9,400.9z"/>
		</g>
		<g>
			<path d="M-210.9,400.9c-0.3,0-0.5-0.2-0.5-0.5s0.2-0.5,0.5-0.5s0.5,0.2,0.5,0.5S-210.6,400.9-210.9,400.9z M-210.9,400.1
				c-0.2,0-0.4,0.2-0.4,0.4c0,0.2,0.2,0.4,0.4,0.4s0.4-0.2,0.4-0.4C-210.5,400.3-210.7,400.1-210.9,400.1z"/>
		</g>
		<g>
			<path class="st7" d="M-210.9,400.5"/>
		</g>
		<g>
			<path class="st8" d="M-210.9,400.5"/>
		</g>
		<g>
			<polygon class="st7" points="-210.9,403.1 -210.2,402.7 -210.9,402.3 -211.5,402.7 			"/>
		</g>
		<g>
			<path d="M-210.9,403.1l-0.8-0.4l0.8-0.4l0.8,0.4L-210.9,403.1z M-211.4,402.7l0.5,0.3l0.5-0.3l-0.5-0.3L-211.4,402.7z"/>
		</g>
		<g>
			<polyline class="st7" points="-210.9,393.2 -210.2,392 -211.5,392 -210.9,393.2 			"/>
		</g>
		<g>
			<path d="M-210.9,393.4l-0.8-1.4h1.5l0,0.1L-210.9,393.4z M-211.4,392.1l0.6,1l0.6-1H-211.4z"/>
		</g>
		<g>
			<polyline class="st7" points="-210.9,393.2 -212.1,392.6 -212.1,393.9 -210.9,393.2 			"/>
		</g>
		<g>
			<path d="M-212.2,394v-1.5l1.4,0.8L-212.2,394z M-212,392.7v1.1l1-0.6L-212,392.7z"/>
		</g>
		<g>
			<polyline class="st7" points="-210.9,393.2 -209.6,393.9 -209.6,392.6 -210.9,393.2 			"/>
		</g>
		<g>
			<path d="M-209.6,394l-1.4-0.8l1.4-0.8V394z M-210.7,393.2l1,0.6v-1.1L-210.7,393.2z"/>
		</g>
		<g>
			<polyline class="st7" points="-210.9,393.2 -211.5,394.5 -210.2,394.5 -210.9,393.2 			"/>
		</g>
		<g>
			<path d="M-210.1,394.5h-1.5l0-0.1l0.7-1.3L-210.1,394.5z M-211.4,394.4h1.1l-0.6-1L-211.4,394.4z"/>
		</g>
		<g>
			<path class="st7" d="M-210.9,393.7c0.2,0,0.4-0.2,0.4-0.4c0-0.2-0.2-0.4-0.4-0.4c-0.2,0-0.4,0.2-0.4,0.4
				C-211.3,393.5-211.1,393.7-210.9,393.7L-210.9,393.7z"/>
		</g>
		<g>
			<path d="M-210.9,393.7c-0.3,0-0.5-0.2-0.5-0.5s0.2-0.5,0.5-0.5s0.5,0.2,0.5,0.5S-210.6,393.7-210.9,393.7z M-210.9,392.9
				c-0.2,0-0.4,0.2-0.4,0.4s0.2,0.4,0.4,0.4s0.4-0.2,0.4-0.4S-210.7,392.9-210.9,392.9z"/>
		</g>
		<g>
			<path class="st7" d="M-210.9,393.2"/>
		</g>
		<g>
			<path class="st8" d="M-210.9,393.2"/>
		</g>
		<g>
			<path class="st7" d="M-210.9,394.1c-1.2,0-1.2,1.8,0,1.8C-209.6,396-209.6,394.1-210.9,394.1L-210.9,394.1z"/>
		</g>
		<g>
			<path d="M-210.9,396c-0.6,0-1-0.5-1-1c0-0.3,0.1-0.5,0.2-0.7c0.2-0.2,0.4-0.3,0.7-0.3c0.6,0,1,0.5,1,1c0,0.3-0.1,0.5-0.2,0.7
				C-210.3,395.9-210.6,396-210.9,396z M-210.9,394.2c-0.3,0-0.5,0.1-0.6,0.3c-0.1,0.2-0.2,0.4-0.2,0.6c0,0.4,0.3,0.8,0.9,0.8
				c0.3,0,0.5-0.1,0.6-0.3c0.1-0.2,0.2-0.4,0.2-0.6C-210,394.6-210.3,394.2-210.9,394.2z"/>
		</g>
		<g>
			<path class="st7" d="M-210.9,398.5c-0.4,0-0.4,0.6,0,0.6C-210.4,399.1-210.4,398.5-210.9,398.5L-210.9,398.5z"/>
		</g>
		<g>
			<path d="M-210.9,399.2c-0.3,0-0.4-0.2-0.4-0.4c0-0.1,0-0.2,0.1-0.3c0.1-0.1,0.2-0.1,0.3-0.1c0.3,0,0.4,0.2,0.4,0.4
				c0,0.1,0,0.2-0.1,0.3C-210.7,399.2-210.8,399.2-210.9,399.2z M-210.9,398.6c-0.1,0-0.1,0-0.2,0.1c0,0-0.1,0.1-0.1,0.2
				c0,0.1,0.1,0.3,0.3,0.3c0.1,0,0.1,0,0.2-0.1c0,0,0.1-0.1,0.1-0.2C-210.6,398.7-210.7,398.6-210.9,398.6z"/>
		</g>
		<g>
			<path class="st7" d="M-210.9,398.4c-0.4,0-0.4-0.6,0-0.6C-210.4,397.8-210.4,398.4-210.9,398.4L-210.9,398.4z"/>
		</g>
		<g>
			<path d="M-210.9,398.5c-0.3,0-0.4-0.2-0.4-0.4c0-0.1,0-0.2,0.1-0.3c0.1-0.1,0.2-0.1,0.3-0.1c0.3,0,0.4,0.2,0.4,0.4
				c0,0.1,0,0.2-0.1,0.3C-210.7,398.5-210.8,398.5-210.9,398.5z M-210.9,397.9c-0.1,0-0.1,0-0.2,0.1c0,0-0.1,0.1-0.1,0.2
				c0,0.1,0.1,0.3,0.3,0.3c0.1,0,0.1,0,0.2-0.1c0,0,0.1-0.1,0.1-0.2C-210.6,398-210.7,397.9-210.9,397.9z"/>
		</g>
		<g>
			<path class="st7" d="M-210.9,397.7c-0.4,0-0.4-0.6,0-0.6C-210.4,397.1-210.4,397.7-210.9,397.7L-210.9,397.7z"/>
		</g>
		<g>
			<path d="M-210.9,397.8c-0.3,0-0.4-0.2-0.4-0.4c0-0.1,0-0.2,0.1-0.3c0.1-0.1,0.2-0.1,0.3-0.1c0.3,0,0.4,0.2,0.4,0.4
				c0,0.1,0,0.2-0.1,0.3C-210.7,397.8-210.8,397.8-210.9,397.8z M-210.9,397.1c-0.1,0-0.1,0-0.2,0.1c0,0-0.1,0.1-0.1,0.2
				c0,0.1,0.1,0.3,0.3,0.3c0.1,0,0.1,0,0.2-0.1c0,0,0.1-0.1,0.1-0.2C-210.6,397.3-210.7,397.1-210.9,397.1z"/>
		</g>
		<g>
			<path class="st7" d="M-210.9,397c-0.4,0-0.4-0.6,0-0.6C-210.4,396.4-210.4,397-210.9,397L-210.9,397z"/>
		</g>
		<g>
			<path d="M-210.9,397.1c-0.3,0-0.4-0.2-0.4-0.4c0-0.1,0-0.2,0.1-0.3c0.1-0.1,0.2-0.1,0.3-0.1c0.3,0,0.4,0.2,0.4,0.4
				c0,0.1,0,0.2-0.1,0.3C-210.7,397-210.8,397.1-210.9,397.1z M-210.9,396.4c-0.1,0-0.1,0-0.2,0.1c0,0-0.1,0.1-0.1,0.2
				c0,0.1,0.1,0.3,0.3,0.3c0.1,0,0.1,0,0.2-0.1c0,0,0.1-0.1,0.1-0.2C-210.6,396.6-210.7,396.4-210.9,396.4z"/>
		</g>
		<g>
			<path class="st7" d="M-210.9,395.7c-0.4,0-0.4,0.6,0,0.6C-210.4,396.3-210.4,395.7-210.9,395.7L-210.9,395.7z"/>
		</g>
		<g>
			<path d="M-210.9,396.4c-0.3,0-0.4-0.2-0.4-0.4c0-0.1,0-0.2,0.1-0.3c0.1-0.1,0.2-0.1,0.3-0.1c0.3,0,0.4,0.2,0.4,0.4
				c0,0.1,0,0.2-0.1,0.3C-210.7,396.3-210.8,396.4-210.9,396.4z M-210.9,395.7c-0.1,0-0.1,0-0.2,0.1c0,0-0.1,0.1-0.1,0.2
				c0,0.1,0.1,0.3,0.3,0.3c0.1,0,0.1,0,0.2-0.1c0,0,0.1-0.1,0.1-0.2C-210.6,395.9-210.7,395.7-210.9,395.7z"/>
		</g>
		<g>
			<path class="st7" d="M-210.9,395c0.3,0,0.9,0.1,0.9,0.3c0-0.1,0-0.2,0-0.3c0-0.2-0.6-0.3-0.9-0.3c-0.3,0-0.9,0.1-0.9,0.3
				c0,0.1,0,0.2,0,0.3C-211.8,395.1-211.1,395-210.9,395L-210.9,395z"/>
		</g>
		<g>
			<path d="M-209.9,395.3l-0.1,0c0-0.1-0.5-0.2-0.8-0.2s-0.8,0.1-0.8,0.2l-0.1,0c0-0.1,0-0.3,0-0.3c0-0.3,1-0.3,1-0.3s1,0,1,0.3
				C-209.9,395.1-209.9,395.2-209.9,395.3z M-210.9,395c0.1,0,0.6,0,0.8,0.2c0-0.1,0-0.1,0-0.2c0-0.1-0.5-0.2-0.9-0.2
				c-0.3,0-0.8,0.1-0.9,0.2c0,0,0,0.1,0,0.2C-211.5,395-211,395-210.9,395z"/>
		</g>
		<g>
			<path class="st7" d="M-210.9,405.3c1.9,0,3.5-0.3,3.5-0.6c0-0.4-1.6-0.6-3.5-0.6c-1.9,0-3.5,0.3-3.5,0.6
				C-214.4,405-212.8,405.3-210.9,405.3L-210.9,405.3z"/>
		</g>
		<g>
			<path d="M-210.9,405.4c-1.7,0-3.6-0.2-3.6-0.7s1.8-0.7,3.6-0.7c1.7,0,3.6,0.2,3.6,0.7S-209.1,405.4-210.9,405.4z M-210.9,404.1
				c-2.1,0-3.4,0.3-3.4,0.6s1.3,0.6,3.4,0.6c2.1,0,3.4-0.3,3.4-0.6S-208.7,404.1-210.9,404.1z"/>
		</g>
		<g>
			<polygon class="st3" points="-233,397 -233,372.8 -273.3,372.8 -273.3,397 			"/>
		</g>
		<g>
			<path d="M-232.9,397.1h-40.6v-24.5l40.6,0V397.1z M-273.2,396.9h40.1v-24l-40.1,0V396.9z"/>
		</g>
		<g>
			<polygon class="st1" points="-257.2,372.8 -257.2,379.6 -268.5,372.8 -273.3,372.8 -273.3,375.7 -264.8,380.9 -273.3,380.9 
				-273.3,388.9 -264.8,388.9 -273.3,394.1 -273.3,397 -268.5,397 -257.2,390.3 -257.2,397 -249.1,397 -249.1,390.3 -237.9,397 
				-233,397 -233,394.1 -241.6,388.9 -233,388.9 -233,380.9 -241.6,380.9 -233,375.7 -233,372.8 -237.9,372.8 -249.1,379.6 
				-249.1,372.8 			"/>
		</g>
		<g>
			<path d="M-232.9,397.1h-5l0,0l-11.1-6.6v6.7h-8.3v-6.7l-11.1,6.7h-5V394l8.2-4.9h-8.2v-8.3h8.2l-8.2-4.9v-3.1l5,0l0,0l11.1,6.7
				v-6.7h8.3v6.7l11.1-6.7h5v3.1l-0.1,0l-8.2,4.9h8.2v8.3h-8.2l8.2,4.9V397.1z M-237.8,396.9h4.7v-2.7l-8.9-5.3h8.9V381h-8.9
				l8.9-5.3v-2.8h-4.7l-11.4,6.9v-6.9h-7.8v6.9l-11.4-6.9l-4.7,0v2.8l8.9,5.3h-8.9v7.8h8.9l-8.9,5.3v2.7h4.7l11.4-6.8v6.8h7.8V390
				l0.2,0.1L-237.8,396.9z"/>
		</g>
		<g>
			<path class="st1" d="M-253.2,384.9"/>
		</g>
		<g>
			<path class="st2" d="M-253.2,384.9"/>
		</g>
		<g>
			<polygon class="st9" points="-249.1,380.9 -246.4,380.9 -233,372.8 -236.2,372.8 -249.1,380.5 			"/>
		</g>
		<g>
			<path d="M-246.4,381h-2.7l-0.1-0.1v-0.3l0.1-0.1l12.9-7.7l0.1,0h3.2l0.1,0.2L-246.4,381L-246.4,381z M-249,380.7h2.5l13-7.8h-2.7
				l-12.8,7.7V380.7z"/>
		</g>
		<g>
			<polygon class="st9" points="-233,397 -246.5,388.9 -243.2,388.9 -233,395.1 			"/>
		</g>
		<g>
			<path d="M-233.1,397.1l-13.5-8.1l0.1-0.2h3.2l0.1,0l10.2,6.1l0.1,0.1v1.9L-233.1,397.1z M-246,389.1l12.9,7.7v-1.6l-10.1-6.1
				H-246z"/>
		</g>
		<g>
			<polygon class="st9" points="-259.9,380.9 -273.3,372.8 -273.3,374.7 -263.1,380.9 			"/>
		</g>
		<g>
			<path d="M-259.9,381h-3.2l-0.1,0l-10.2-6.1l-0.1-0.1v-1.9l0.2-0.1l13.5,8.1L-259.9,381z M-263.1,380.7h2.8l-12.9-7.7v1.6
				L-263.1,380.7z"/>
		</g>
		<g>
			<polygon class="st9" points="-257.2,388.9 -259.9,388.9 -273.3,397 -270.1,397 -257.2,389.2 			"/>
		</g>
		<g>
			<path d="M-270.1,397.1h-3.2l-0.1-0.2l13.4-8.1l0.1,0h2.7l0.1,0.1v0.3l-0.1,0.1L-270.1,397.1L-270.1,397.1z M-272.9,396.9h2.7
				l12.8-7.7v-0.1h-2.5L-272.9,396.9z"/>
		</g>
		<g>
			<polygon class="st9" points="-273.3,382.5 -255.5,382.5 -255.5,372.8 -250.8,372.8 -250.8,382.5 -233,382.5 -233,387.2 
				-250.8,387.2 -250.8,397 -255.5,397 -255.5,387.2 -273.3,387.2 			"/>
		</g>
		<g>
			<path d="M-250.6,397.1h-5v-9.8h-17.8v-5h17.8v-9.7h5v9.7h17.8v5h-17.8V397.1z M-255.4,396.9h4.5v-9.8h17.8v-4.5h-17.8v-9.7h-4.5
				v9.7h-17.8v4.5h17.8V396.9z"/>
		</g>
	</g>
</g>
</svg>
