<?xml version="1.0" encoding="utf-8"?>
<!-- Generator: Adobe Illustrator 19.0.0, SVG Export Plug-In . SVG Version: 6.00 Build 0)  -->
<svg version="1.1" id="Layer_1" xmlns="http://www.w3.org/2000/svg" xmlns:xlink="http://www.w3.org/1999/xlink" x="0px" y="0px"
	 viewBox="-269 374 72 46" style="enable-background:new -269 374 72 46;" xml:space="preserve">
<style type="text/css">
	.st0{clip-path:url(#SVGID_2_);}
	.st1{fill:#FFFFFF;}
	.st2{fill:#E40520;}
	.st3{fill:#008E5B;}
</style>
<g>
	<defs>
		<path id="SVGID_1_" d="M-204,420H-262c-3.8,0-7-3.1-7-7V381c0-3.8,3.1-7,7-7h58.1c3.8,0,7,3.1,7,7V413
			C-197,416.9-200.1,420-204,420z"/>
	</defs>
	<clipPath id="SVGID_2_">
		<use xlink:href="#SVGID_1_"  style="overflow:visible;"/>
	</clipPath>
	<g class="st0">
		<g>
			<polygon class="st1" points="-196.8,404 -269.2,404 -269.2,387.9 -196.8,387.9 			"/>
		</g>
		<g>
			<path d="M-196.6,404.1h-72.7v-16.4h72.7V404.1z M-269.1,403.9h72.2V388h-72.2V403.9z"/>
		</g>
		<g>
			<polygon class="st2" points="-196.8,387.9 -269.2,387.9 -269.2,371.8 -196.8,371.8 			"/>
		</g>
		<g>
			<path d="M-196.6,388h-72.7v-16.4h72.7V388z M-269.1,387.8h72.2v-15.9h-72.2V387.8z"/>
		</g>
		<g>
			<polygon points="-196.8,420.1 -269.2,420.1 -269.2,404 -196.8,404 			"/>
		</g>
		<g>
			<path d="M-196.6,420.2h-72.7v-16.4h72.7V420.2z M-269.1,420h72.2v-15.9h-72.2V420z"/>
		</g>
		<g>
			<polygon class="st3" points="-233,391.9 -234.1,395.2 -237.6,395.2 -234.7,397.3 -235.8,400.6 -233,398.6 -230.2,400.6 
				-231.2,397.3 -228.4,395.2 -231.9,395.2 			"/>
		</g>
		<g>
			<polygon class="st3" points="-251.1,391.9 -252.2,395.2 -255.7,395.2 -252.9,397.3 -254,400.6 -251.1,398.6 -248.3,400.6 
				-249.4,397.3 -246.5,395.2 -250,395.2 			"/>
		</g>
		<g>
			<polygon class="st3" points="-214.9,391.9 -216,395.2 -219.5,395.2 -216.6,397.3 -217.7,400.6 -214.9,398.6 -212,400.6 
				-213.1,397.3 -210.3,395.2 -213.8,395.2 			"/>
		</g>
		<g>
			<path class="st3" d="M-246.9,398.3c0.4,0.2,0.7,0.2,1-0.2s0.4-0.6,0.4-0.7c0-0.2,0.1-0.4,0.4-0.4c0.3,0,0.5-0.2,0.6-0.3
				c0.2-0.1,0.5-0.1,0.5,0.2c0,0.5,0,0.7,0.3,0.9c0.3,0.1,0.7-0.1,0.8-0.8c0.2-0.9,0.2-1.3,0.6-1.2c0.2,0.1,0,0.5-0.1,0.8
				c-0.1,0.4-0.1,0.7-0.3,1.2c-0.2,0.5-0.4,0.8-0.8,0.8c-0.4,0-0.9-0.2-0.9-0.6c0-0.4-0.3-0.3-0.6-0.2c-0.4,0.2-0.4,0.4-0.4,0.7
				s-0.1,0.7-0.7,0.7s-0.8-0.2-1.1-0.4C-247.5,398.6-247.2,398.1-246.9,398.3L-246.9,398.3z"/>
		</g>
		<g>
			<path class="st3" d="M-244.5,399.1c0.1,0.2-0.3,0.3-0.1,0.5c0.1,0.2,0.5,0.1,0.4-0.2C-244.2,399.3-244.3,399.2-244.5,399.1
				L-244.5,399.1z"/>
		</g>
		<g>
			<path class="st3" d="M-242.1,395.5c-0.1-0.4,0-0.5,0.4-0.8c0.9-0.6,2.4-1.8,2.9-2.2c0.4-0.4,0.8-0.2,0.2,0.3
				c-1.3,1.1-2.5,2-2.9,2.3c-0.3,0.2-0.4,0.4-0.5,0.4C-241.9,395.6-242.1,395.5-242.1,395.5L-242.1,395.5z"/>
		</g>
		<g>
			<path class="st3" d="M-240.2,394.9c0.2-0.1,0.4-0.1,0.7-0.1c0.1,0,0.2-0.1,0.2-0.2c0-0.2-0.1-0.3,0.3-0.4c0.4-0.1,0.9,0,1.1-0.1
				c0.2,0,0.2,0.2,0,0.3c-0.2,0.1-0.7,0.1-0.8,0.1c0,0.4-0.1,0.6-0.4,0.6c-0.3,0-0.8,0-0.9,0C-240.3,395.2-240.4,395-240.2,394.9
				L-240.2,394.9z"/>
		</g>
		<g>
			<path class="st3" d="M-239.8,399.3c0.1-0.8,0.5-2.5,0.4-3.3c0-0.2,0-0.4,0.3-0.3c0.3,0.1,0.2,0.3,0.2,0.4
				c-0.1,1.2-0.3,2.7-0.6,3.2C-239.7,399.6-239.8,399.6-239.8,399.3L-239.8,399.3z"/>
		</g>
		<g>
			<path class="st3" d="M-226.6,396.8c0-0.5-0.4-0.5-0.8-0.3c-0.4,0.2-1.2,0.7-1.5,0.9c-0.3,0.2-0.4,1.1,0.1,1.3
				c0.5,0.2,1,0.1,1.2,0.1c0.2-0.1,0.2-0.4,0-0.4c-0.8-0.2-0.7-0.3-0.3-0.6c0.7-0.4,1.1-0.1,1,0.4c-0.1,0.6-0.4,1.1-0.1,1.3
				c0.6,0.3,1.3-0.9,2-0.4c0.7,0.4,2.2,0.1,2.2-1.1c0-0.4,0.1-1.2,0.2-1.4c0.1-0.2,0.2-0.3,0.2-0.5c0-0.2-0.1-0.1-0.2,0
				c-0.1,0.1-0.6,0.2-0.7,0.5c-0.1,1.2,0,1.5-0.7,1.6c-0.7,0.1-0.7,0-0.6-0.4c0.1-0.4,0.2-1,0.2-1.2c0-0.3-0.1-0.5-0.3-0.6
				c-0.2-0.1-0.7,0-0.5,0.3c0.2,0.2,0.2,1.1,0.1,1.6c0,0.1-0.1,0.2-0.4,0.4c-0.3,0.2-0.9,0.4-0.9-0.1
				C-226.6,397.5-226.6,397.1-226.6,396.8L-226.6,396.8z"/>
		</g>
		<g>
			<path class="st3" d="M-224.6,394.2c-0.1,0.1-0.2,0.5-0.2,0.7c0,0.3,0.2,0.4,0.4,0.2c0.1-0.1,0.1-0.1,0.2,0c0.3,0.3,1,0.1,1-0.3
				c0-0.3-0.1-0.2-0.2-0.1c-0.2,0.2-0.6,0.2-0.5-0.2c0.1-0.4-0.1-0.3-0.2-0.1c-0.2,0.2-0.5,0.3-0.4,0
				C-224.5,394.2-224.5,394-224.6,394.2L-224.6,394.2z"/>
		</g>
		<g>
			<path class="st3" d="M-224.7,393.3c0.2-0.6,0.3-1.4,0.4-1.9c0-0.4,0.1-0.4,0.2-0.4c0.2-0.1,0.2,0,0.2,0.2
				c-0.1,0.7-0.4,1.7-0.6,2.1C-224.7,393.7-224.8,393.6-224.7,393.3L-224.7,393.3z"/>
		</g>
		<g>
			<path class="st3" d="M-221.2,398.8c0.1-0.6,0.3-2,0.3-2.9c0-0.2,0.1-0.2,0.2-0.3c0.2-0.1,0.3-0.1,0.3,0.2
				c-0.1,1.1-0.4,2.4-0.6,3.1C-221.1,399.2-221.3,399.1-221.2,398.8L-221.2,398.8z"/>
		</g>
		<g>
			<path class="st3" d="M-221.2,395c-0.3,0.1-0.4,0.4,0,0.3c0.5-0.1,0.8-0.2,1.1-0.3c0.2-0.1,0.1-0.2,0-0.4c0-0.1,0-0.1,0.2-0.2
				c0.4-0.1,0.7-0.3,0.8-0.4c0.2-0.1,0.2-0.3-0.1-0.2c-0.3,0.1-1.1,0.2-1.2,0.3c-0.2,0.1-0.2,0.1-0.2,0.3c0,0.1,0,0.2,0,0.3
				c0,0.1,0,0.1-0.1,0.1C-220.8,394.9-221,394.9-221.2,395L-221.2,395z"/>
		</g>
	</g>
</g>
</svg>
