<?xml version="1.0" encoding="utf-8"?>
<!-- Generator: Adobe Illustrator 19.0.0, SVG Export Plug-In . SVG Version: 6.00 Build 0)  -->
<svg version="1.1" id="Layer_1" xmlns="http://www.w3.org/2000/svg" xmlns:xlink="http://www.w3.org/1999/xlink" x="0px" y="0px"
	 viewBox="-269 374 72 46" style="enable-background:new -269 374 72 46;" xml:space="preserve">
<style type="text/css">
	.st0{clip-path:url(#SVGID_2_);}
	.st1{fill:#FFFFFF;}
	.st2{fill:#E40520;}
	.st3{fill:#FFED00;}
	.st4{fill:#0062AE;}
	.st5{fill:none;}
</style>
<g>
	<defs>
		<path id="SVGID_1_" d="M-204,420H-262c-3.8,0-7-3.1-7-7V381c0-3.8,3.1-7,7-7h58.1c3.8,0,7,3.1,7,7V413
			C-197,416.9-200.1,420-204,420z"/>
	</defs>
	<clipPath id="SVGID_2_">
		<use xlink:href="#SVGID_1_"  style="overflow:visible;"/>
	</clipPath>
	<g class="st0">
		<g>
			<polygon class="st1" points="-192.4,421.6 -192.4,372.4 -273.4,372.4 -273.4,421.6 			"/>
		</g>
		<g>
			<path d="M-192.3,421.7h-81.2v-49.5h81.2V421.7z M-273.3,421.5h80.7v-49h-80.7V421.5z"/>
		</g>
		<g>
			<polygon class="st2" points="-227.6,397 -192.4,418.4 -192.4,421.6 -197.7,421.6 -232.9,400.2 -268.1,421.6 -273.4,421.6 
				-273.4,418.4 -238.2,397 -273.4,375.6 -273.4,372.4 -268.1,372.4 -232.9,393.8 -197.7,372.4 -192.4,372.4 -192.4,375.6 			"/>
		</g>
		<g>
			<path d="M-192.4,421.7h-5.3l-0.1,0l-35.1-21.3l-35.1,21.3l-0.1,0h-5.3l-0.1-0.1v-3.2l0.1-0.1l35-21.3l-35-21.3l-0.1-0.1v-3.2
				l0.1-0.1h5.3l0.1,0l35.1,21.3l35.1-21.3l0.1,0h5.3l0.1,0.1v3.2l-0.1,0.1l-35,21.3l35,21.3l0.1,0.1v3.2L-192.4,421.7z
				 M-197.7,421.5h5.1v-3l-35.1-21.3v-0.2l35.1-21.3v-3h-5.1l-35.2,21.4h-0.1l-35.2-21.4h-5.1v3l35.1,21.3v0.2l-35.1,21.3v3h5.1
				l35.2-21.4h0.1L-197.7,421.5z"/>
		</g>
		<g>
			<path class="st2" d="M-228.5,379.5c1.1,4.4,0.5,9.8-4.4,12.8c-4.9-3-5.5-8.4-4.4-12.8C-236.1,378.5-230.9,377.9-228.5,379.5
				L-228.5,379.5z"/>
		</g>
		<g>
			<path d="M-232.9,392.4L-232.9,392.4c-4.2-2.6-5.8-7.3-4.4-12.8l0,0l0,0c1.2-1.1,6.4-1.7,8.8,0l0,0l0,0
				C-227.1,385-228.7,389.8-232.9,392.4L-232.9,392.4z M-237.2,379.6c-0.5,2.1-1.6,8.9,4.3,12.6c6-3.7,4.8-10.6,4.3-12.6
				C-230.9,378-236.1,378.6-237.2,379.6z"/>
		</g>
		<g>
			<path class="st3" d="M-232.9,378.7c1.8,0,3.4,0.5,4.4,1.1c0.2-1.5,0.9-3,1.7-4.1c-0.8,0-1.2,0.4-1.2,0.9c-0.2-0.6-1-0.6-1.3-0.2
				c0.9,0.6,0.2,1.7-0.6,1.5c-0.4-0.1-0.6-0.4-0.7-0.8c0.1,0,0.2,0,0.3-0.1c0.2-0.2,0.2-0.4,0.1-0.6c-0.2-0.2-0.4-0.2-0.6-0.1
				c-0.2,0.2-0.2,0.4-0.1,0.6c0.1,0.1,0.1,0.1,0.2,0.1c-0.3,0.4-0.7,0.6-1.1,0.5c-0.4-0.1-0.6-0.5-0.6-0.9c0-0.9,0.9-1.1,1.1-0.9
				c0-0.6-1-1.1-1.3-0.6c0.3-0.6,0.3-1.4-0.3-2c-0.6,0.6-0.6,1.4-0.3,2c-0.3-0.5-1.3,0-1.3,0.6c0.3-0.2,1.1,0,1.1,0.9
				c0,0.4-0.2,0.7-0.6,0.9c-0.3,0.1-0.8,0-1.1-0.5c0.1,0,0.1-0.1,0.2-0.1c0.2-0.2,0.1-0.5-0.1-0.6c-0.2-0.2-0.5-0.1-0.6,0.1
				c-0.2,0.2-0.1,0.5,0.1,0.6c0.1,0.1,0.2,0.1,0.3,0.1c-0.1,0.4-0.3,0.7-0.7,0.8c-0.8,0.2-1.5-0.9-0.6-1.5c-0.3-0.3-1.1-0.4-1.3,0.2
				c0-0.5-0.4-0.9-1.2-0.9c0.8,1.1,1.5,2.6,1.7,4.1C-236.3,379.1-234.7,378.7-232.9,378.7L-232.9,378.7z"/>
		</g>
		<g>
			<path d="M-228.4,379.9L-228.4,379.9c-1.1-0.7-2.8-1.1-4.5-1.1s-3.3,0.4-4.4,1.1l-0.1,0.1l0-0.1c-0.2-1.4-0.8-2.9-1.7-4.1
				l-0.1-0.1l0.1,0c0,0,0,0,0,0c0.4,0,0.7,0.1,1,0.3c0.1,0.1,0.2,0.3,0.2,0.4c0.1-0.2,0.3-0.3,0.5-0.3c0.3,0,0.6,0,0.8,0.2l0,0.1
				l-0.1,0c-0.4,0.3-0.5,0.7-0.3,1c0.1,0.3,0.5,0.5,0.9,0.4c0.3-0.1,0.5-0.3,0.6-0.7c-0.1,0-0.2-0.1-0.2-0.1
				c-0.2-0.2-0.3-0.5-0.1-0.7c0.2-0.2,0.5-0.3,0.7-0.1c0.2,0.2,0.3,0.5,0.1,0.7c0,0.1-0.1,0.1-0.1,0.1c0.3,0.4,0.7,0.5,1,0.4
				c0.4-0.1,0.6-0.5,0.6-0.8c0-0.5-0.2-0.7-0.4-0.8c-0.2-0.1-0.5-0.1-0.6-0.1l-0.1,0.1l0-0.1c0-0.4,0.4-0.7,0.8-0.8
				c0.2,0,0.3,0,0.4,0c-0.2-0.6-0.1-1.3,0.4-1.8l0,0l0,0c0.6,0.5,0.6,1.3,0.4,1.8c0.1,0,0.3-0.1,0.4,0c0.4,0.1,0.7,0.4,0.8,0.8
				l0,0.1l-0.1-0.1c-0.1-0.1-0.4-0.1-0.6,0.1c-0.2,0.1-0.4,0.3-0.4,0.8c0,0.3,0.2,0.7,0.6,0.8c0.3,0.1,0.7,0,1-0.4
				c-0.1,0-0.1-0.1-0.1-0.1c-0.1-0.1-0.1-0.2-0.1-0.4c0-0.1,0.1-0.3,0.2-0.3c0.1-0.1,0.2-0.1,0.4-0.1c0.1,0,0.3,0.1,0.3,0.2
				c0.1,0.1,0.1,0.2,0.1,0.4c0,0.1-0.1,0.3-0.2,0.3c-0.1,0.1-0.1,0.1-0.2,0.1c0.1,0.4,0.3,0.6,0.6,0.7c0.4,0.1,0.8-0.1,0.9-0.4
				c0.1-0.3,0.1-0.7-0.3-1l-0.1,0l0-0.1c0.2-0.2,0.5-0.3,0.8-0.2c0.2,0,0.4,0.1,0.5,0.3c0-0.2,0.1-0.3,0.2-0.4
				c0.2-0.2,0.6-0.3,1-0.3c0,0,0,0,0,0l0.1,0l-0.1,0.1C-227.6,376.9-228.2,378.4-228.4,379.9L-228.4,379.9z M-238.9,375.7
				c0.8,1.2,1.4,2.7,1.6,4c1.1-0.6,2.8-1,4.4-1c1.6,0,3.3,0.4,4.4,1c0.2-1.3,0.8-2.8,1.6-4c-0.3,0-0.6,0.1-0.8,0.3
				c-0.1,0.1-0.2,0.3-0.2,0.5l-0.1,0c-0.1-0.3-0.4-0.4-0.5-0.4c-0.2,0-0.5,0-0.6,0.1c0.4,0.3,0.5,0.8,0.3,1.1
				c-0.2,0.3-0.6,0.6-1.1,0.5c-0.4-0.1-0.6-0.4-0.7-0.8l0-0.1l0.1,0c0.1,0,0.2,0,0.2-0.1c0.1-0.1,0.1-0.2,0.1-0.3
				c0-0.1,0-0.2-0.1-0.3c-0.1-0.1-0.2-0.1-0.3-0.1c-0.1,0-0.2,0-0.3,0.1s-0.1,0.2-0.1,0.3c0,0.1,0,0.2,0.1,0.3
				c0,0.1,0.1,0.1,0.2,0.1l0.1,0l0,0.1c-0.3,0.5-0.8,0.6-1.1,0.5c-0.5-0.1-0.7-0.6-0.7-0.9c0-0.4,0.2-0.7,0.5-0.9
				c0.2-0.1,0.5-0.1,0.7-0.1c-0.1-0.3-0.4-0.6-0.7-0.6c-0.1,0-0.4-0.1-0.5,0.2l-0.1-0.1c0.3-0.5,0.3-1.3-0.2-1.9
				c-0.6,0.6-0.5,1.4-0.2,1.9l-0.1,0.1c-0.1-0.2-0.4-0.2-0.5-0.2c-0.3,0.1-0.6,0.3-0.7,0.6c0.2,0,0.4,0,0.7,0.1
				c0.3,0.2,0.5,0.5,0.5,0.9c0,0.3-0.2,0.8-0.7,0.9c-0.4,0.1-0.9,0-1.1-0.5l0-0.1l0.1,0c0.1,0,0.1-0.1,0.2-0.1
				c0.1-0.1,0.1-0.2,0.1-0.3c0-0.1-0.1-0.2-0.1-0.3c-0.2-0.1-0.4-0.1-0.5,0.1c-0.1,0.2-0.1,0.4,0.1,0.5c0.1,0.1,0.1,0.1,0.2,0.1
				l0.1,0l0,0.1c-0.1,0.4-0.3,0.7-0.7,0.8c-0.5,0.1-0.9-0.1-1.1-0.5c-0.1-0.3-0.1-0.7,0.3-1.1c-0.1-0.1-0.4-0.2-0.6-0.1
				c-0.1,0-0.4,0.1-0.5,0.4l-0.1,0c0-0.2-0.1-0.4-0.2-0.5C-238.3,375.8-238.5,375.7-238.9,375.7z"/>
		</g>
		<g>
			<path class="st3" d="M-236.5,381.3c-0.1-0.1-0.2,0-0.3,0c0.2,0,0.2,0.3,0.6,0.4c-0.1,0-0.1,0-0.2,0c0.2,0.1,0.4,0.3,0.8,0.3
				c0.2,0,0.1,0.1-0.1,0.1c0.2,0.2,0.5,0,0.6,0.3c0-0.2-0.4-0.6-0.2-0.8c-0.6,0-0.6-0.3-0.9-0.6c-0.3-0.2-0.3-0.4-0.4-0.8
				c-0.1-0.2-0.3-0.3-0.4-0.2c-0.1,0-0.1,0.1,0,0.2c0.1,0.1,0.2,0.1,0.2,0.2c-0.1-0.1-0.3-0.2-0.3-0.1c0,0,0,0.2,0.1,0.2
				c0.2,0,0,0.2,0.2,0.3c-0.2-0.2-0.3-0.2-0.4-0.1c-0.1,0.1,0,0.2,0.1,0.2C-236.9,380.8-236.7,381.2-236.5,381.3L-236.5,381.3z"/>
		</g>
		<g>
			<path d="M-235,382.5l-0.1-0.1c-0.1-0.1-0.2-0.2-0.4-0.2c-0.1,0-0.2,0-0.3-0.1l0,0c-0.4,0-0.5-0.2-0.7-0.3l0-0.1
				c-0.1-0.1-0.2-0.1-0.2-0.2c0-0.1-0.1-0.1-0.1-0.1l-0.2-0.1l0.2-0.1c0,0,0,0,0,0c0,0,0,0,0,0c-0.1-0.1-0.1-0.1-0.1-0.2
				c-0.1-0.1-0.2-0.2-0.2-0.2c0,0,0,0,0,0c-0.1,0-0.1,0-0.2-0.1c0-0.1,0-0.1,0-0.2c0-0.1,0.1-0.1,0.2-0.1c0,0,0,0,0,0
				c0,0,0.1,0,0.1,0c0-0.1,0-0.1-0.1-0.1c-0.1,0-0.1,0-0.1-0.1c0-0.1,0-0.1,0-0.2c0,0,0.1-0.1,0.1-0.1c0,0-0.1-0.1-0.1-0.1
				c0-0.1,0.1-0.1,0.1-0.1c0.1,0,0.1,0,0.2,0c0.1,0.1,0.2,0.1,0.2,0.3c0,0.1,0,0.1,0,0.2c0.1,0.3,0.1,0.4,0.3,0.6
				c0.1,0.1,0.2,0.2,0.2,0.2c0.2,0.2,0.3,0.3,0.6,0.3l0.1,0l-0.1,0.1c-0.1,0.1,0,0.3,0.1,0.4c0.1,0.1,0.1,0.2,0.1,0.4L-235,382.5z
				 M-235.5,382.1C-235.5,382.1-235.5,382.1-235.5,382.1c0.1,0,0.2,0,0.3,0.1c0,0,0-0.1-0.1-0.1c-0.1-0.2-0.2-0.3-0.1-0.5
				c-0.3,0-0.5-0.2-0.6-0.4c-0.1-0.1-0.1-0.2-0.2-0.2c-0.2-0.2-0.3-0.4-0.4-0.7c0,0,0-0.1,0-0.2c0-0.1-0.1-0.1-0.2-0.2
				c0,0-0.1,0-0.1,0c0,0-0.1,0-0.1,0c0,0,0,0,0,0c0,0,0,0,0.1,0c0.1,0,0.2,0.1,0.2,0.2l0,0.2l-0.1-0.2c-0.1-0.1-0.1-0.1-0.2-0.1
				c0,0,0,0-0.1,0c0,0,0,0,0,0c0,0,0,0,0,0c0.1,0,0.1,0.1,0.2,0.2c0,0,0,0.1,0.1,0.1c0,0,0,0,0.1,0.1l-0.1,0.1c0,0,0,0-0.1-0.1
				c-0.1-0.1-0.1-0.1-0.2-0.1h0c0,0-0.1,0-0.1,0c0,0,0,0,0,0c0,0,0,0,0.1,0c0.1,0,0.2,0.1,0.3,0.2c0.1,0.1,0.2,0.2,0.3,0.3
				c0,0,0,0,0,0l-0.1,0.1c0,0,0,0,0,0c0,0,0,0,0,0c0,0,0,0,0,0.1c0.1,0.1,0.2,0.2,0.4,0.2c0,0,0,0,0,0l0,0.1
				c0.1,0.1,0.3,0.1,0.5,0.1C-235.6,381.9-235.5,381.9-235.5,382.1C-235.4,382-235.4,382.1-235.5,382.1z"/>
		</g>
		<g>
			<path class="st3" d="M-232,382.9c-0.1,0-0.1,0.2-0.2,0.2c0.3,0,0.4-0.1,0.6-0.2c-0.1,0-0.1,0.1-0.1,0.2c0.1-0.1,0.5-0.1,0.7-0.1
				c0.2,0,0.2-0.1,0.3-0.2c0.1-0.1,0-0.2-0.1-0.3c-0.1-0.1-0.1-0.2-0.1-0.4c-0.5-0.7-1.4-0.3-1.4-0.1c0.3,0.4,0.4,0.3,0.6,0.4
				c0.3,0.1,0.4,0.1,0.3,0.2c-0.1,0.1-0.3,0-0.5,0c-0.4,0-0.7-0.3-0.8-0.1c-0.1,0.1,0,0.2,0.2,0.2c-0.2,0-0.4,0-0.3,0.1
				c0.1,0.2,0.3,0,0.4,0.1c-0.1,0-0.2,0-0.2,0.1s0.2,0.2,0.4,0C-232.2,383-232.1,382.9-232,382.9L-232,382.9z"/>
		</g>
		<g>
			<path d="M-231.8,383.3l0-0.2c0,0,0,0,0,0c-0.1,0-0.2,0.1-0.4,0.1l0-0.1c0,0,0,0,0,0c0,0-0.1,0-0.1,0.1c-0.1,0.1-0.3,0.1-0.4,0.1
				c-0.1,0-0.1-0.1-0.1-0.1c0,0-0.1,0-0.1,0c0,0-0.1-0.1-0.1-0.1c0-0.1,0-0.1,0-0.1c0,0,0,0,0.1,0c0,0,0,0,0,0c0,0,0-0.1,0-0.2
				c0.1-0.1,0.2-0.1,0.4,0c0.1,0.1,0.3,0.1,0.5,0.1c0.1,0,0.1,0,0.2,0c0.1,0,0.3,0,0.3,0c0,0,0,0,0,0c0,0-0.1,0-0.2,0
				c0,0-0.1,0-0.1,0c0,0-0.1,0-0.1,0c-0.2,0-0.3-0.1-0.6-0.4l0,0l0,0c0-0.1,0.2-0.3,0.4-0.3c0.3-0.1,0.8-0.1,1.1,0.4l0,0l0,0
				c0,0.2,0,0.3,0.1,0.4l0,0c0.1,0.1,0.2,0.2,0.1,0.3l0,0c-0.1,0.1-0.1,0.2-0.3,0.2c-0.2,0-0.5,0-0.6,0.1L-231.8,383.3z M-232,382.9
				l0,0.1c0,0,0,0,0,0c0.1,0,0.2-0.1,0.3-0.1c0,0,0,0,0,0l0.1,0.1c0.2-0.1,0.4-0.1,0.6,0c0.1,0,0.1,0,0.2-0.1l0,0
				c0-0.1,0-0.1-0.1-0.2l0,0c-0.1-0.1-0.1-0.3-0.1-0.5c-0.3-0.4-0.7-0.4-1-0.3c-0.2,0.1-0.3,0.1-0.3,0.2c0.2,0.3,0.3,0.3,0.5,0.3
				c0,0,0.1,0,0.1,0c0,0,0.1,0,0.1,0c0.2,0,0.2,0,0.3,0.1c0,0.1,0,0.1-0.1,0.2c-0.1,0-0.2,0-0.4,0c-0.1,0-0.1,0-0.2,0
				c-0.2,0-0.4-0.1-0.5-0.1c-0.1-0.1-0.2-0.1-0.2,0c0,0,0,0.1,0,0.1c0,0,0,0,0.1,0c0,0,0,0,0,0h0l0,0.1c0,0,0,0-0.1,0
				c-0.1,0-0.2,0-0.2,0c0,0,0,0,0,0c0,0,0,0,0,0.1c0,0,0.1,0,0.1,0c0.1,0,0.2-0.1,0.2,0l0.1,0.1C-232.2,382.9-232.1,382.9-232,382.9
				z"/>
		</g>
		<g>
			<path class="st3" d="M-229.2,383c-0.1,0-0.1,0.2-0.2,0.2c0.3,0,0.4-0.1,0.5-0.2c-0.1,0.1,0,0.2,0,0.2c0.2-0.1,0.3-0.2,0.2-0.4
				c0,0.1,0.2,0.1,0.2,0.1c-0.1-0.1,0-0.4-0.3-0.5c0.1,0,0.2,0.1,0.3,0.2c0-0.2-0.1-0.4-0.3-0.5c0,0,0.1,0,0.2,0
				c-0.1-0.1-0.2-0.2-0.1-0.3c0-0.1-0.1-0.1-0.2-0.1c-0.1,0-0.4,0.1-0.6,0.1c-0.4,0-0.7,0-1-0.2c0.4,0.2,1-0.2,1-0.5
				c0-0.4-0.4-0.7-1.3-0.5c-0.9,0.2-2,0.1-2-0.2c0-0.3,0.8-0.3,1.2-0.3c0.4,0.1,0.7,0.1,1.4-0.2c-0.2,0.1-0.8,0.1-1.3,0
				c-0.5-0.1-1.6-0.1-1.6,0.5c0,0.6,1.2,0.6,2.3,0.4c0.6-0.1,1,0,1,0.2c0,0.2-0.6,0.3-1,0.2c-0.4-0.1-0.9,0-1.4,0.1
				c-0.4,0.1-0.7,0-1.2,0.1c-0.2,0-0.8,0-1.1-0.5c-0.2,0.1-0.7,0.4-0.8,0.6c-0.1,0.2,0,0.5,0.1,0.7c0.2,0.3-0.1,0.2-0.3,0.3
				c-0.3,0-0.7,0-0.9-0.3c-0.2-0.2-0.4-0.4-0.6-0.2c-0.1,0.1,0,0.2,0.1,0.2c0.1,0,0.2,0,0.3,0.1c-0.1-0.1-0.3,0-0.3,0
				c-0.1,0.1,0,0.2,0.1,0.2c0.1,0,0.2-0.1,0.3,0c-0.1,0-0.2,0-0.3,0c-0.1,0.1,0,0.1,0.1,0.1c0.2,0,0.2,0.1,0.4,0.1
				c-0.1,0-0.2,0.1-0.2,0.1c0.2-0.1,0.4,0.1,0.6,0.1c-0.1,0-0.2,0.1-0.2,0.2c0.1-0.2,1.1,0.1,1.1-0.2c0,0.1,0,0.2-0.1,0.3
				c0.1-0.1,0.5-0.1,0.6-0.4c0,0.1,0,0.2-0.1,0.2c0.1,0,0.3-0.1,0.5-0.3c0.1-0.1,0.1-0.2,0.1-0.2c0.2,0,0.3,0,0.4-0.1
				c0.1-0.1,0.3,0.1,0.5-0.1c0.2-0.1,0.4,0,0.5-0.1c0.1-0.1,0.3,0,0.4-0.1c0.1-0.1,0.3,0,0.6-0.1c0.3,0.1,0.8,0.4,1.7,0.2
				c0.6-0.1,0.7,0.1,0.7,0.3c0,0.2-0.1,0.2-0.2,0.2c-0.3,0-0.5-0.1-0.6-0.1c-0.1,0-0.1,0.2,0,0.2c-0.1,0.1-0.1,0.1,0,0.2
				c0.1,0,0.2,0,0.3,0c-0.1,0.1-0.2,0.1-0.2,0.2c0,0.1,0.1,0.1,0.2,0C-229.5,383-229.3,382.9-229.2,383L-229.2,383z"/>
		</g>
		<g>
			<path d="M-229.7,383.3C-229.7,383.3-229.7,383.3-229.7,383.3c-0.1,0-0.1,0-0.2-0.1c0,0,0-0.1,0-0.1c0,0,0,0,0,0c0,0-0.1,0-0.1,0
				c0,0-0.1-0.1-0.1-0.1c0,0,0-0.1,0-0.1c0,0,0-0.1,0-0.1c0-0.1,0.1-0.2,0.1-0.2c0.1,0,0.1,0,0.2,0c0.1,0,0.2,0.1,0.4,0.1
				c0.1,0,0.1,0,0.1-0.1c0-0.1,0-0.2-0.1-0.2c-0.1-0.1-0.3-0.1-0.6-0.1c-0.9,0.2-1.3,0-1.7-0.1c0,0-0.1,0-0.1,0
				c-0.1,0.1-0.3,0.1-0.4,0.1c-0.1,0-0.1,0-0.2,0c-0.1,0.1-0.2,0-0.3,0c-0.1,0-0.1,0-0.2,0c-0.1,0-0.1,0-0.2,0c-0.1,0-0.2,0-0.3,0.1
				c-0.1,0.1-0.3,0.1-0.4,0c-0.1,0-0.1,0-0.1,0c-0.1,0.1-0.2,0.2-0.4,0.2c0,0.1,0,0.1-0.1,0.2c-0.2,0.4-0.4,0.4-0.5,0.3l-0.1,0
				c-0.1,0.1-0.2,0.1-0.3,0.1c-0.1,0-0.1,0-0.1,0l-0.1-0.1c0,0,0,0,0,0c-0.1,0.1-0.4,0.1-0.6,0c-0.2,0-0.4,0-0.4,0l-0.1,0.1l0-0.2
				c0-0.1,0-0.1,0.1-0.1c0,0-0.1,0-0.1,0c-0.1,0-0.2-0.1-0.2,0l-0.2,0.1l0.1-0.2c0,0,0,0,0.1-0.1c0,0,0,0,0,0c-0.1,0-0.1-0.1-0.2,0
				c0,0,0,0,0,0c-0.1,0-0.1,0-0.2-0.1c0,0,0-0.1,0-0.1c-0.1,0-0.1,0-0.2-0.1c0-0.1,0-0.2,0-0.2c0,0,0,0,0,0c0,0,0,0-0.1-0.1
				c0,0,0-0.1,0-0.2c0.2-0.2,0.5-0.1,0.7,0.2c0.2,0.3,0.7,0.3,0.9,0.3c0,0,0.1,0,0.1,0c0.1,0,0.2,0,0.2,0c0,0,0,0-0.1-0.1
				c-0.2-0.3-0.2-0.5-0.1-0.8c0.1-0.2,0.4-0.4,0.6-0.6c0.1,0,0.1-0.1,0.2-0.1l0.1,0l0,0.1c0.3,0.5,0.8,0.5,1,0.4c0.2,0,0.4,0,0.6,0
				c0.2,0,0.4,0,0.6-0.1c0.5-0.1,0.9-0.2,1.4-0.1c0.4,0,0.8,0,0.9-0.1c0,0,0,0,0,0c0,0,0-0.1,0-0.1c-0.1-0.1-0.2-0.1-0.8,0
				c-1.2,0.2-1.9,0.1-2.2-0.1c-0.1-0.1-0.2-0.2-0.2-0.3c0-0.2,0.1-0.3,0.2-0.4c0.4-0.3,1.1-0.3,1.5-0.1c0.5,0.1,1,0.1,1.2,0
				c0,0,0,0,0,0l0,0.1c0,0,0,0,0,0c-0.8,0.3-1.1,0.2-1.5,0.2c-0.3,0-0.9,0-1.1,0.1c0,0,0,0.1,0,0.1c0,0,0,0,0,0.1
				c0.2,0.2,1.1,0.2,1.9,0.1c0.5-0.1,1-0.1,1.2,0.1c0.1,0.1,0.2,0.2,0.2,0.4c0,0.2-0.1,0.3-0.3,0.5c-0.1,0.1-0.2,0.1-0.4,0.2
				c0.2,0,0.4,0,0.6,0c0.2,0,0.5,0,0.6,0c0.1,0,0.2,0,0.2,0c0,0,0.1,0.1,0,0.2c0,0,0,0.2,0.1,0.2l0.1,0l-0.1,0.1c0,0,0,0,0,0
				c0.1,0.1,0.1,0.3,0.1,0.4l-0.1,0c0,0,0,0.1,0,0.1c0,0.1,0,0.1,0.1,0.2l0.2,0.1l-0.2,0c0,0-0.1,0-0.1,0c0,0,0,0,0,0
				c0,0.1-0.1,0.2-0.3,0.3l-0.2,0.1l0.1-0.1c-0.1,0.1-0.2,0.1-0.4,0.1c0,0,0,0,0,0l0-0.1c-0.1,0-0.1,0.1-0.2,0.2
				C-229.6,383.3-229.7,383.3-229.7,383.3z M-229.6,383c-0.1,0-0.1,0.1-0.1,0.1c0,0,0,0,0,0c0,0,0,0,0.1,0h0c0,0,0.1,0,0.1-0.1
				c0.1-0.1,0.3-0.3,0.5-0.2l0,0.1c0,0,0,0,0,0c0.2,0,0.2-0.1,0.3-0.1c0,0,0,0,0-0.1l0.1,0.1c0,0,0,0,0,0c0,0,0,0,0,0
				c0.1,0,0.1-0.1,0.1-0.1c0,0,0-0.1,0-0.1l0.1-0.1c0,0,0,0,0,0c0,0,0-0.1,0-0.1c0-0.1,0-0.2-0.1-0.3l-0.2-0.1l0.2,0
				c0.1,0,0.1,0,0.2,0.1c0-0.1-0.1-0.2-0.2-0.2c0,0,0,0,0,0l0.1-0.1c-0.1-0.1-0.1-0.2-0.1-0.2c0,0,0,0,0,0c0,0,0,0-0.1,0
				c-0.1,0-0.5,0.1-0.6,0.1c-0.4,0-0.7,0-1-0.2l0.1-0.1c0.2,0.1,0.5,0,0.7-0.1c0.2-0.1,0.3-0.3,0.3-0.4c0-0.1-0.1-0.2-0.1-0.3
				c-0.2-0.2-0.6-0.2-1.1-0.1c-0.8,0.2-1.7,0.1-2-0.1c-0.1-0.1-0.1-0.1-0.1-0.2c0-0.1,0-0.1,0.1-0.2c0.2-0.2,0.8-0.2,1.2-0.2
				c0.3,0,0.5,0.1,0.8,0c-0.2,0-0.4,0-0.6-0.1c-0.4-0.1-1.1-0.1-1.4,0.1c-0.1,0.1-0.2,0.2-0.2,0.3c0,0.1,0,0.2,0.1,0.2
				c0.2,0.2,0.7,0.3,2.1,0.1c0.5-0.1,0.8-0.1,0.9,0.1c0.1,0,0.1,0.1,0.1,0.2c0,0,0,0.1-0.1,0.1c-0.2,0.1-0.7,0.2-1,0.2
				c-0.5-0.1-0.9,0-1.4,0.1c-0.2,0.1-0.5,0.1-0.7,0.1c-0.2,0-0.3,0-0.6,0c-0.2,0-0.8,0-1.1-0.4c0,0-0.1,0-0.1,0.1
				c-0.2,0.1-0.5,0.3-0.6,0.5c-0.1,0.2-0.1,0.4,0.1,0.6c0,0.1,0.1,0.2,0.1,0.2c0,0.1-0.2,0.1-0.3,0.1c0,0-0.1,0-0.1,0
				c-0.3,0-0.7,0-1-0.3c-0.1-0.1-0.4-0.4-0.6-0.2c0,0,0,0,0,0c0,0,0,0,0,0c0.1,0,0.2,0,0.3,0l0,0l0,0.1c-0.1-0.1-0.2,0-0.3,0
				c0,0,0,0,0,0c0,0,0,0,0,0c0.1,0,0.3-0.1,0.4,0l0.2,0.1l-0.2,0c-0.1,0-0.2,0-0.2,0c0,0,0,0,0,0c0,0,0,0,0.1,0c0.1,0,0.2,0,0.2,0.1
				c0.1,0,0.1,0.1,0.2,0c0,0,0,0,0,0l0,0.1c0,0,0,0,0,0c0,0,0.1,0,0.1,0c0.1,0,0.2,0.1,0.3,0.1l0,0.1c0,0,0,0,0,0c0.1,0,0.2,0,0.2,0
				c0.3,0,0.6,0,0.6-0.1l0.1,0c0,0,0,0.1,0,0.2c0,0,0,0,0,0c0.2,0,0.4-0.1,0.4-0.3l0.1-0.2l0,0.2c0,0,0,0.1,0,0.2
				c0.1,0,0.2-0.1,0.3-0.3c0.1-0.1,0.1-0.1,0.1-0.2l0-0.1l0.1,0c0.1,0,0.3,0,0.4-0.1c0.1-0.1,0.2-0.1,0.3,0c0.1,0,0.2,0,0.3,0
				c0.1-0.1,0.3-0.1,0.4-0.1c0.1,0,0.1,0,0.2,0c0.1,0,0.2,0,0.2,0c0.1,0,0.1,0,0.2,0c0.1,0,0.1,0,0.2,0c0.1,0,0.2,0,0.3-0.1l0,0l0,0
				c0,0,0.1,0,0.1,0c0.3,0.1,0.7,0.3,1.6,0.1c0.3-0.1,0.5,0,0.7,0.1c0.1,0.1,0.1,0.2,0.1,0.3c0,0.2-0.2,0.3-0.2,0.3
				c-0.2,0-0.3,0-0.4-0.1c-0.1,0-0.1,0-0.2,0c0,0,0,0,0,0.1c0,0,0,0,0,0l0.1,0.1l-0.1,0.1c0,0,0,0,0,0c0,0,0,0,0,0c0,0,0.1,0,0.2,0
				c0,0,0,0,0,0L-229.6,383C-229.6,383-229.6,383-229.6,383L-229.6,383L-229.6,383C-229.6,383-229.6,383-229.6,383z"/>
		</g>
		<g>
			<path class="st3" d="M-235.5,380.2c-0.3-0.1-0.4-0.1-0.3,0.1c0,0.1,0.1,0.2,0.2,0.3C-235.7,380.6-235.6,380.3-235.5,380.2
				L-235.5,380.2z"/>
		</g>
		<g>
			<path d="M-235.6,380.8l-0.1-0.1c-0.1-0.1-0.2-0.2-0.2-0.3c0-0.1,0-0.2,0-0.2c0.1-0.1,0.2,0,0.4,0.1l0.1,0.1l-0.1,0.1
				c-0.1,0-0.1,0.2-0.1,0.4L-235.6,380.8z"/>
		</g>
		<g>
			<path class="st3" d="M-234.6,380.2c0.3-0.1,0.4-0.1,0.3,0.1c0,0.1-0.1,0.2-0.2,0.3C-234.5,380.6-234.5,380.3-234.6,380.2
				L-234.6,380.2z"/>
		</g>
		<g>
			<path d="M-234.5,380.8l0-0.1c0-0.1,0-0.3-0.1-0.4l-0.1-0.1l0.1-0.1c0.2-0.1,0.3-0.1,0.4-0.1c0.1,0.1,0,0.2,0,0.2
				c0,0.1-0.1,0.3-0.2,0.3L-234.5,380.8z"/>
		</g>
		<g>
			<path class="st3" d="M-235.1,380.1c0.5,0,0.6,0.3,0.6,0.6c0,0.3-0.2,0.2-0.3,0.7c0,0.2-0.2,0.2-0.3,0.2c-0.1,0-0.3,0-0.3-0.2
				c-0.1-0.4-0.3-0.3-0.3-0.7C-235.7,380.3-235.6,380.1-235.1,380.1L-235.1,380.1z"/>
		</g>
		<g>
			<path d="M-235.1,381.6c-0.1,0-0.3,0-0.4-0.2c0-0.2-0.1-0.3-0.2-0.3c-0.1-0.1-0.1-0.1-0.1-0.3c0-0.2,0-0.3,0.1-0.5
				c0.1-0.1,0.3-0.2,0.5-0.2s0.4,0.1,0.5,0.2c0.1,0.1,0.1,0.3,0.1,0.5c0,0.2-0.1,0.3-0.1,0.3c-0.1,0.1-0.1,0.1-0.2,0.3
				C-234.7,381.6-234.9,381.6-235.1,381.6z M-235.1,380.1c-0.2,0-0.4,0-0.4,0.1c-0.1,0.1-0.1,0.2-0.1,0.4c0,0.2,0,0.2,0.1,0.3
				c0.1,0.1,0.1,0.2,0.2,0.4c0,0.1,0.1,0.1,0.3,0.1c0.2,0,0.2,0,0.3-0.1c0.1-0.2,0.1-0.3,0.2-0.4c0.1-0.1,0.1-0.1,0.1-0.3
				c0-0.1,0-0.3-0.1-0.4C-234.7,380.2-234.8,380.1-235.1,380.1z"/>
		</g>
		<g>
			<path class="st3" d="M-236.2,385.1c-0.1-0.1-0.2,0-0.3,0c0.2,0,0.2,0.2,0.5,0.3c-0.1,0-0.1,0-0.2,0c0.2,0.1,0.3,0.3,0.7,0.3
				c0.2,0,0.1,0.1-0.1,0c0.1,0.1,0.4,0,0.6,0.3c0-0.2-0.3-0.5-0.2-0.7c-0.5,0-0.5-0.3-0.8-0.5c-0.2-0.2-0.3-0.4-0.4-0.7
				c0-0.2-0.2-0.3-0.3-0.2c-0.1,0-0.1,0.1,0,0.2c0.1,0.1,0.2,0.1,0.2,0.2c-0.1-0.1-0.2-0.2-0.3-0.1c0,0,0,0.1,0.1,0.2
				c0.1,0,0,0.2,0.2,0.3c-0.2-0.2-0.3-0.2-0.4-0.1c0,0.1,0,0.2,0.1,0.1C-236.6,384.6-236.4,385-236.2,385.1L-236.2,385.1z"/>
		</g>
		<g>
			<path d="M-234.9,386.2l-0.1-0.1c-0.1-0.1-0.2-0.1-0.3-0.2c-0.1,0-0.2,0-0.3-0.1l0,0c-0.3,0-0.5-0.2-0.6-0.3l0-0.1
				c-0.1-0.1-0.2-0.1-0.2-0.2c0,0-0.1-0.1-0.1-0.1l-0.2-0.1l0.2-0.1c0,0,0,0,0,0c0,0,0,0,0,0c0,0-0.1-0.1-0.1-0.1
				c-0.1-0.1-0.2-0.2-0.2-0.2c-0.1,0-0.1,0-0.2-0.1c0-0.1,0-0.1,0-0.2c0-0.1,0.1-0.1,0.2-0.1c0,0,0,0,0,0c0,0,0,0,0.1,0c0,0,0,0,0,0
				c-0.1,0-0.1,0-0.1-0.1c0-0.1,0-0.1,0-0.2c0,0,0.1,0,0.1-0.1c0,0,0-0.1,0-0.1c0-0.1,0.1-0.1,0.1-0.1c0.1,0,0.1,0,0.2,0
				c0.1,0,0.2,0.1,0.2,0.2c0,0.1,0,0.1,0,0.1c0.1,0.3,0.1,0.4,0.3,0.5c0.1,0.1,0.2,0.1,0.2,0.2c0.1,0.2,0.2,0.3,0.6,0.3l0.1,0
				l-0.1,0.1c-0.1,0.1,0,0.2,0.1,0.4c0.1,0.1,0.1,0.2,0.1,0.3L-234.9,386.2z M-235.3,385.8C-235.3,385.8-235.3,385.8-235.3,385.8
				c0.1,0,0.2,0,0.2,0.1c0,0,0,0,0-0.1c-0.1-0.1-0.1-0.3-0.1-0.4c-0.3,0-0.4-0.2-0.6-0.3c-0.1-0.1-0.1-0.1-0.2-0.2
				c-0.2-0.2-0.3-0.3-0.3-0.6c0,0,0-0.1,0-0.1c0-0.1-0.1-0.1-0.1-0.2c0,0-0.1,0-0.1,0c0,0,0,0,0,0c0,0,0,0,0,0c0,0,0,0,0.1,0
				c0.1,0,0.1,0.1,0.2,0.2l0,0.2l-0.1-0.2c0-0.1-0.1-0.1-0.2-0.1c0,0,0,0-0.1,0c0,0,0,0,0,0c0,0,0,0,0,0c0.1,0,0.1,0.1,0.2,0.2
				c0,0,0,0.1,0,0.1c0,0,0,0,0.1,0.1l-0.1,0.1c0,0,0,0-0.1-0.1c-0.1-0.1-0.1-0.1-0.1-0.1h0c0,0,0,0-0.1,0c0,0,0,0,0,0c0,0,0,0,0.1,0
				c0.1,0,0.2,0.1,0.3,0.2c0.1,0.1,0.2,0.2,0.2,0.2c0,0,0,0,0,0l-0.1,0.1c0,0,0,0,0,0c0,0,0,0,0,0c0,0,0,0,0,0
				c0.1,0.1,0.1,0.2,0.4,0.2c0,0,0,0,0,0c0,0,0,0,0,0c0,0,0,0,0,0l0,0.1c0.1,0.1,0.3,0.1,0.5,0.1
				C-235.4,385.6-235.3,385.6-235.3,385.8C-235.3,385.7-235.3,385.7-235.3,385.8z"/>
		</g>
		<g>
			<path class="st3" d="M-232.2,386.5c-0.1,0-0.1,0.1-0.2,0.2c0.3,0,0.4-0.1,0.5-0.2c-0.1,0-0.1,0.1-0.1,0.2
				c0.1-0.1,0.5-0.1,0.6-0.1c0.2,0,0.2,0,0.3-0.2c0.1-0.1,0-0.2-0.1-0.2c-0.1-0.1-0.1-0.2-0.1-0.4c-0.4-0.6-1.2-0.3-1.2,0
				c0.3,0.3,0.3,0.3,0.6,0.3c0.2,0,0.4,0,0.2,0.2c-0.1,0-0.3,0-0.5,0c-0.4,0-0.6-0.3-0.7-0.1c-0.1,0.1,0,0.2,0.2,0.2
				c-0.1,0-0.3,0-0.3,0.1c0.1,0.2,0.3,0,0.3,0c-0.1,0-0.2,0-0.2,0.1c0,0.1,0.2,0.1,0.3,0C-232.4,386.6-232.3,386.5-232.2,386.5
				L-232.2,386.5z"/>
		</g>
		<g>
			<path d="M-232,386.8l0-0.2c-0.1,0-0.2,0.1-0.4,0.1l0-0.1c0,0-0.1,0-0.1,0.1c-0.1,0.1-0.3,0.1-0.3,0.1c0,0-0.1-0.1-0.1-0.1
				c0,0-0.1,0-0.1,0c0,0-0.1-0.1-0.1-0.1c0-0.1,0-0.1,0-0.1c0,0,0,0,0,0c0,0,0,0,0,0c0,0,0-0.1,0-0.2c0.1-0.1,0.2-0.1,0.3,0
				c0.1,0.1,0.2,0.1,0.4,0.1c0.1,0,0.1,0,0.2,0c0.1,0,0.2,0,0.3,0c0,0,0,0,0,0c0,0-0.1,0-0.1,0c0,0-0.1,0-0.1,0c0,0-0.1,0-0.1,0
				c-0.2,0-0.3-0.1-0.5-0.3l0,0l0,0c0-0.1,0.1-0.3,0.3-0.3c0.3-0.1,0.7-0.1,1,0.3l0,0l0,0c0,0.2,0,0.3,0.1,0.3l0,0
				c0.1,0.1,0.2,0.2,0.1,0.3l0,0c-0.1,0.1-0.1,0.2-0.3,0.2c-0.2,0-0.5,0-0.6,0.1L-232,386.8z M-232.2,386.5L-232.2,386.5
				C-232.2,386.6-232.2,386.6-232.2,386.5c0.1,0.1,0.2,0,0.3,0c0,0,0,0,0,0l0.1,0.1c0.2-0.1,0.4-0.1,0.5,0c0.1,0,0.1,0,0.2-0.1l0,0
				c0,0,0-0.1-0.1-0.1l0,0c-0.1-0.1-0.1-0.2-0.1-0.4c-0.3-0.3-0.6-0.3-0.9-0.3c-0.1,0-0.2,0.1-0.3,0.2c0.2,0.3,0.3,0.3,0.4,0.3
				c0,0,0.1,0,0.1,0l0.1,0c0.1,0,0.2,0,0.3,0.1c0,0.1,0,0.1-0.1,0.2c-0.1,0-0.2,0.1-0.3,0c-0.1,0-0.1,0-0.2,0
				c-0.2,0-0.4-0.1-0.5-0.1c-0.1-0.1-0.1-0.1-0.2,0c0,0,0,0,0,0l0,0c0,0,0,0,0.1,0c0,0,0,0,0,0h0l0,0.1c0,0,0,0-0.1,0
				c-0.1,0-0.2,0-0.2,0c0,0,0,0,0,0c0,0,0,0,0,0c0,0,0.1,0,0.1,0c0.1,0,0.2-0.1,0.2,0l0.1,0.1C-232.4,386.5-232.3,386.5-232.2,386.5
				L-232.2,386.5L-232.2,386.5z"/>
		</g>
		<g>
			<path class="st3" d="M-229.7,386.5c-0.1,0-0.1,0.1-0.1,0.1c0.3,0,0.4-0.1,0.5-0.2c-0.1,0.1,0,0.1,0,0.2c0.2-0.1,0.3-0.2,0.2-0.3
				c0,0.1,0.2,0.1,0.2,0.1c-0.1-0.1,0-0.3-0.2-0.5c0.1,0,0.2,0.1,0.2,0.2c0-0.2-0.1-0.3-0.2-0.5c0,0,0.1,0,0.2,0
				c-0.1-0.1-0.1-0.2-0.1-0.3c0-0.1-0.1-0.1-0.2-0.1c-0.1,0-0.4,0-0.5,0c-0.3,0-0.6,0-0.9-0.2c0.4,0.2,0.9-0.2,0.9-0.5
				c0-0.3-0.4-0.6-1.2-0.4c-0.8,0.2-1.8,0.1-1.8-0.2s0.7-0.3,1.1-0.2c0.4,0.1,0.6,0.1,1.3-0.1c-0.2,0.1-0.7,0.1-1.1,0
				c-0.4-0.1-1.5-0.1-1.5,0.4c0,0.6,1.1,0.5,2.1,0.4c0.6-0.1,0.9,0,0.9,0.2c0,0.2-0.5,0.2-0.9,0.2c-0.4,0-0.8,0-1.3,0.1
				c-0.4,0.1-0.7,0-1.1,0.1c-0.2,0-0.7,0-1-0.4c-0.2,0.1-0.6,0.3-0.7,0.6c-0.1,0.2,0,0.4,0.1,0.6c0.2,0.3-0.1,0.2-0.3,0.2
				c-0.3,0-0.6,0-0.8-0.2c-0.2-0.2-0.4-0.3-0.6-0.2c-0.1,0.1,0,0.2,0.1,0.1c0.1,0,0.2,0,0.2,0.1c-0.1-0.1-0.3,0-0.3,0
				c-0.1,0.1,0,0.2,0.1,0.1c0.1,0,0.2-0.1,0.3,0c-0.1,0-0.2,0-0.3,0c0,0.1,0,0.1,0.1,0.1c0.2,0,0.2,0.1,0.4,0.1
				c-0.1,0-0.2,0.1-0.2,0.1c0.2-0.1,0.3,0.1,0.6,0.1c-0.1,0-0.2,0.1-0.2,0.2c0.1-0.1,1,0.1,1-0.2c0,0.1,0,0.2,0,0.2
				c0.1-0.1,0.5-0.1,0.6-0.3c0,0.1,0,0.2-0.1,0.2c0.1,0,0.3,0,0.4-0.3c0.1-0.1,0.1-0.1,0.1-0.2c0.1,0,0.3,0,0.4-0.1
				c0.1-0.1,0.2,0.1,0.5,0c0.2-0.1,0.4,0,0.5-0.1c0.1-0.1,0.3,0,0.4-0.1c0.1-0.1,0.3,0,0.5-0.1c0.3,0.1,0.7,0.3,1.6,0.2
				c0.5-0.1,0.7,0.1,0.7,0.3c0,0.2-0.1,0.2-0.2,0.2c-0.3,0-0.4-0.1-0.5-0.1c-0.1,0-0.1,0.1,0,0.2c-0.1,0-0.1,0.1,0,0.2
				c0,0,0.2,0,0.2,0c-0.1,0-0.2,0.1-0.1,0.2c0,0.1,0.1,0.1,0.2,0C-229.9,386.6-229.8,386.5-229.7,386.5L-229.7,386.5z"/>
		</g>
		<g>
			<path d="M-230.1,386.9C-230.1,386.9-230.1,386.9-230.1,386.9c-0.1,0-0.1,0-0.2-0.1c0,0,0-0.1,0-0.1c0,0,0,0,0,0c0,0,0,0-0.1,0
				c0,0-0.1-0.1-0.1-0.1c0,0,0-0.1,0-0.1c0,0,0-0.1,0-0.1c0-0.1,0.1-0.1,0.1-0.2c0.1,0,0.1,0,0.2,0c0.1,0,0.2,0.1,0.3,0
				c0.1,0,0.1,0,0.1-0.1c0-0.1,0-0.2-0.1-0.2c-0.1-0.1-0.3-0.1-0.5,0c-0.8,0.1-1.2,0-1.5-0.1c0,0-0.1,0-0.1,0
				c-0.1,0.1-0.2,0.1-0.3,0.1c-0.1,0-0.1,0-0.1,0c-0.1,0-0.2,0-0.2,0c-0.1,0-0.1,0-0.1,0c-0.1,0-0.1,0-0.2,0c-0.1,0-0.2,0-0.3,0.1
				c-0.1,0.1-0.2,0.1-0.3,0c-0.1,0-0.1,0-0.1,0c-0.1,0.1-0.2,0.1-0.3,0.1c0,0.1,0,0.1-0.1,0.2c-0.2,0.3-0.4,0.3-0.5,0.3l0,0
				c-0.1,0.1-0.2,0.1-0.3,0.1c0,0-0.1,0-0.1,0l-0.1-0.1c0,0,0,0,0,0c-0.1,0-0.3,0-0.5,0c-0.1,0-0.3,0-0.4,0l-0.1,0.1l0-0.2
				c0,0,0-0.1,0.1-0.1c0,0-0.1,0-0.1,0c-0.1,0-0.2-0.1-0.2,0l-0.2,0.1l0.1-0.2c0,0,0,0,0,0c0,0,0,0,0,0c0,0-0.1,0-0.2,0c0,0,0,0,0,0
				c-0.1,0-0.1,0-0.2-0.1c0,0,0-0.1,0-0.1c0,0-0.1,0-0.1-0.1c0-0.1,0-0.1,0-0.2c0,0,0,0,0,0c0,0,0,0,0,0c0,0,0-0.1,0-0.2
				c0.2-0.1,0.4-0.1,0.7,0.2c0.2,0.2,0.6,0.2,0.8,0.2c0,0,0.1,0,0.1,0c0.1,0,0.2,0,0.2,0l0,0c0,0,0,0,0-0.1
				c-0.2-0.3-0.2-0.5-0.1-0.7c0.1-0.2,0.4-0.4,0.6-0.5c0.1,0,0.1-0.1,0.1-0.1l0.1,0l0,0.1c0.2,0.4,0.7,0.4,0.9,0.4
				c0.2,0,0.4,0,0.5,0c0.2,0,0.4,0,0.6,0c0.4-0.1,0.8-0.2,1.3-0.1c0.3,0,0.7,0,0.8-0.1c0,0,0,0,0,0c0,0,0,0,0-0.1
				c-0.1,0-0.2-0.1-0.8,0c-1.1,0.2-1.7,0.1-2-0.1c-0.1-0.1-0.1-0.2-0.1-0.3c0-0.2,0.1-0.3,0.2-0.4c0.3-0.2,1-0.2,1.4-0.1
				c0.4,0.1,0.9,0.1,1.1,0c0,0,0,0,0,0l0,0.1c0,0,0,0,0,0c-0.7,0.2-1,0.2-1.3,0.1c-0.3,0-0.8,0-0.9,0.1c0,0,0,0.1,0,0.1
				c0,0,0,0,0,0.1c0.2,0.2,1,0.2,1.7,0c0.5-0.1,0.9-0.1,1.1,0.1c0.1,0.1,0.2,0.2,0.2,0.4c0,0.1-0.1,0.3-0.3,0.4
				c-0.1,0.1-0.2,0.1-0.3,0.1c0.2,0,0.3,0,0.5,0c0.2,0,0.4,0,0.5,0c0.1,0,0.2,0,0.2,0c0,0,0,0.1,0,0.1c0,0,0,0.1,0.1,0.2l0.1,0
				l-0.1,0.1c0,0,0,0,0,0c0.1,0.1,0.1,0.2,0.1,0.4l-0.1,0c0,0,0,0,0,0.1c0,0.1,0,0.1,0.1,0.1l0.2,0.1l-0.2,0c0,0-0.1,0-0.1,0
				c0,0,0,0,0,0c0,0.1-0.1,0.2-0.3,0.2l-0.2,0.1l0.1-0.1c-0.1,0-0.2,0.1-0.3,0.1c0,0,0,0,0,0l0-0.1c-0.1,0-0.1,0.1-0.2,0.1
				C-230,386.9-230.1,386.9-230.1,386.9z M-230.1,386.6c-0.1,0-0.1,0.1-0.1,0.1c0,0,0,0,0,0c0,0,0,0,0,0c0,0,0,0,0,0
				c0,0,0.1,0,0.1,0c0.1-0.1,0.2-0.2,0.4-0.2c0,0,0,0,0,0l0,0.1c0,0,0,0,0,0c0.1,0,0.2-0.1,0.2-0.1c0,0,0,0,0,0l0.1,0.1c0,0,0,0,0,0
				c0,0,0,0,0,0c0,0,0.1-0.1,0.1-0.1c0,0,0-0.1,0-0.1l0.1-0.1c0,0,0,0,0,0c0,0,0,0,0-0.1c0-0.1,0-0.2-0.1-0.2l-0.2-0.1l0.2,0
				c0,0,0.1,0,0.1,0c0-0.1-0.1-0.1-0.2-0.2c0,0,0,0,0,0l0.1-0.1c-0.1-0.1-0.1-0.2-0.1-0.2c0,0,0,0,0,0l0,0c0,0,0,0-0.1,0
				c-0.1,0-0.4,0-0.6,0c-0.3,0-0.6,0-0.9-0.2l0.1-0.1c0.2,0.1,0.4,0,0.6-0.1c0.1-0.1,0.2-0.2,0.2-0.3c0-0.1,0-0.2-0.1-0.3
				c-0.2-0.2-0.6-0.2-1-0.1c-0.7,0.2-1.5,0.1-1.8-0.1c-0.1-0.1-0.1-0.1-0.1-0.2c0-0.1,0-0.1,0.1-0.2c0.2-0.2,0.7-0.2,1.1-0.1
				c0.2,0,0.4,0.1,0.6,0c-0.2,0-0.3,0-0.5-0.1c-0.3-0.1-1-0.1-1.3,0.1c-0.1,0.1-0.1,0.2-0.1,0.3c0,0.1,0,0.2,0.1,0.2
				c0.2,0.1,0.6,0.3,1.9,0.1c0.5-0.1,0.7,0,0.9,0.1c0,0,0.1,0.1,0.1,0.2c0,0,0,0.1-0.1,0.1c-0.2,0.1-0.6,0.2-0.9,0.1
				c-0.5-0.1-0.8,0-1.3,0.1c-0.2,0.1-0.4,0.1-0.6,0.1c-0.2,0-0.3,0-0.5,0c-0.2,0-0.7,0-1-0.4c0,0-0.1,0-0.1,0.1
				c-0.2,0.1-0.5,0.3-0.5,0.4c-0.1,0.2-0.1,0.3,0.1,0.6c0,0.1,0.1,0.2,0.1,0.2c0,0.1-0.2,0.1-0.3,0.1c0,0-0.1,0-0.1,0
				c-0.2,0-0.7,0-0.9-0.3c-0.1-0.1-0.3-0.3-0.5-0.2c0,0,0,0,0,0c0,0,0,0,0,0c0.1,0,0.2,0,0.2,0l0,0l0,0.1c-0.1,0-0.2,0-0.2,0
				c0,0,0,0,0,0c0,0,0,0,0,0c0.1,0,0.3-0.1,0.4,0l0.2,0.1l-0.2,0c-0.1,0-0.2,0-0.2,0c0,0,0,0,0,0c0,0,0,0,0,0c0.1,0,0.1,0,0.2,0.1
				s0.1,0,0.2,0c0,0,0,0,0,0h0h0l0,0.1c0,0,0.1,0,0.1,0c0.1,0,0.2,0.1,0.3,0l0,0.1c0,0,0,0,0,0h0c0.1,0,0.1,0,0.2,0
				c0.2,0,0.5,0,0.5-0.1l0.1,0c0,0,0,0.1,0,0.2c0.1,0,0.3-0.1,0.4-0.3l0.1-0.2l0,0.2c0,0,0,0.1,0,0.1c0.1,0,0.2-0.1,0.2-0.2
				c0.1-0.1,0.1-0.1,0.1-0.2l0-0.1l0.1,0c0.1,0,0.2,0,0.3-0.1c0.1-0.1,0.2,0,0.2,0c0.1,0,0.1,0,0.2,0c0.1-0.1,0.3-0.1,0.4-0.1
				c0.1,0,0.1,0,0.1,0c0.1,0,0.1,0,0.2,0c0.1,0,0.1,0,0.2,0c0.1,0,0.1,0,0.2,0c0.1,0,0.2,0,0.3-0.1l0,0l0,0c0,0,0.1,0,0.1,0
				c0.3,0.1,0.7,0.3,1.4,0.1c0.3-0.1,0.5,0,0.6,0.1c0.1,0.1,0.1,0.2,0.1,0.3c0,0.2-0.2,0.2-0.2,0.2c-0.2,0-0.3,0-0.4-0.1
				c-0.1,0-0.1,0-0.1,0c0,0,0,0,0,0c0,0,0,0,0,0l0.1,0.1l-0.1,0.1c0,0,0,0,0,0c0,0,0,0,0,0c0,0,0.1,0,0.2,0c0,0,0,0,0,0
				L-230.1,386.6C-230.1,386.6-230.1,386.6-230.1,386.6z"/>
		</g>
		<g>
			<path class="st3" d="M-235.4,384.1c-0.3-0.1-0.3-0.1-0.3,0.1c0,0.1,0.1,0.2,0.2,0.3C-235.5,384.4-235.5,384.2-235.4,384.1
				L-235.4,384.1z"/>
		</g>
		<g>
			<path d="M-235.4,384.6l-0.1-0.1c-0.1-0.1-0.1-0.2-0.2-0.3c0-0.1,0-0.2,0-0.2c0.1-0.1,0.2,0,0.4,0l0.1,0.1l-0.1,0.1
				c-0.1,0-0.1,0.2-0.1,0.3L-235.4,384.6z"/>
		</g>
		<g>
			<path class="st3" d="M-234.6,384.1c0.3-0.1,0.3-0.1,0.3,0.1c0,0.1-0.1,0.2-0.2,0.3C-234.4,384.4-234.5,384.2-234.6,384.1
				L-234.6,384.1z"/>
		</g>
		<g>
			<path d="M-234.5,384.6l0-0.1c0-0.1,0-0.3-0.1-0.3l-0.1-0.1l0.1-0.1c0.2-0.1,0.3-0.1,0.4,0c0.1,0.1,0,0.1,0,0.2
				c0,0.1-0.1,0.2-0.2,0.3L-234.5,384.6z"/>
		</g>
		<g>
			<path class="st3" d="M-235,384c0.5,0,0.6,0.2,0.5,0.5c0,0.3-0.2,0.2-0.3,0.6c0,0.2-0.2,0.2-0.3,0.2c-0.1,0-0.2,0-0.3-0.2
				c-0.1-0.4-0.3-0.3-0.3-0.6C-235.5,384.2-235.4,384-235,384L-235,384z"/>
		</g>
		<g>
			<path d="M-235,385.3c-0.1,0-0.3,0-0.3-0.2c0-0.2-0.1-0.2-0.1-0.3c-0.1-0.1-0.1-0.1-0.1-0.3c0-0.1,0-0.3,0.1-0.4
				c0.1-0.1,0.3-0.1,0.5-0.1s0.4,0,0.5,0.1c0.1,0.1,0.1,0.3,0.1,0.4c0,0.2-0.1,0.2-0.1,0.3c-0.1,0.1-0.1,0.1-0.1,0.3
				C-234.7,385.3-234.8,385.3-235,385.3z M-235,384c-0.2,0-0.3,0-0.4,0.1c-0.1,0.1-0.1,0.2-0.1,0.3c0,0.1,0,0.2,0.1,0.2
				c0.1,0.1,0.1,0.1,0.2,0.4c0,0.1,0.1,0.1,0.2,0.1c0.1,0,0.2,0,0.2-0.1c0-0.2,0.1-0.3,0.2-0.4c0.1-0.1,0.1-0.1,0.1-0.2
				c0-0.1,0-0.3-0.1-0.3C-234.6,384.1-234.8,384-235,384z"/>
		</g>
		<g>
			<path class="st3" d="M-235.4,388.4c-0.1-0.1-0.2,0-0.2,0c0.1,0,0.1,0.2,0.4,0.3c-0.1,0-0.1,0-0.2,0c0.1,0.1,0.2,0.2,0.5,0.2
				c0.1,0,0,0.1-0.1,0c0.1,0.1,0.3,0,0.4,0.2c0-0.2-0.2-0.4-0.1-0.6c-0.4,0-0.4-0.2-0.6-0.4c-0.2-0.1-0.2-0.3-0.3-0.6
				c0-0.1-0.2-0.2-0.2-0.2c-0.1,0-0.1,0.1,0,0.1c0.1,0,0.1,0.1,0.1,0.2c-0.1-0.1-0.2-0.1-0.2-0.1c0,0,0,0.1,0,0.1
				c0.1,0,0,0.1,0.2,0.2c-0.1-0.1-0.2-0.2-0.3-0.1c0,0,0,0.1,0.1,0.1C-235.7,388-235.5,388.3-235.4,388.4L-235.4,388.4z"/>
		</g>
		<g>
			<path d="M-234.4,389.3l-0.1-0.1c-0.1-0.1-0.1-0.1-0.2-0.1c-0.1,0-0.1,0-0.2-0.1l0,0c-0.2,0-0.4-0.1-0.5-0.2l0,0
				c-0.1,0-0.1-0.1-0.2-0.1c0,0-0.1-0.1-0.1-0.1l-0.2-0.1l0.2-0.1c0,0,0,0,0,0c0,0-0.1-0.1-0.1-0.1c0-0.1-0.1-0.1-0.1-0.1
				c-0.1,0-0.1,0-0.1-0.1c0,0,0-0.1,0-0.1c0,0,0.1-0.1,0.1-0.1h0c0,0,0,0,0,0c0,0,0,0,0,0c-0.1,0-0.1,0-0.1-0.1c0,0,0-0.1,0-0.1
				c0,0,0,0,0.1,0c0,0,0-0.1,0-0.1c0,0,0-0.1,0.1-0.1c0,0,0.1,0,0.2,0c0.1,0,0.1,0.1,0.2,0.2c0,0,0,0.1,0,0.1
				c0.1,0.2,0.1,0.3,0.2,0.4c0.1,0.1,0.1,0.1,0.2,0.2c0.1,0.1,0.2,0.2,0.4,0.2l0.1,0l-0.1,0.1c-0.1,0.1,0,0.2,0.1,0.3
				c0,0.1,0.1,0.2,0.1,0.3L-234.4,389.3z M-234.7,388.9c0,0,0.1,0,0.1,0c0,0,0,0,0,0c0-0.1-0.1-0.2-0.1-0.3c-0.2,0-0.3-0.2-0.4-0.3
				c0-0.1-0.1-0.1-0.1-0.2c-0.2-0.1-0.2-0.3-0.3-0.5l0-0.1c0-0.1-0.1-0.1-0.1-0.1c0,0,0,0-0.1,0c0,0,0,0,0,0c0,0,0,0,0,0
				c0,0,0.1,0.1,0.1,0.2l0,0.2l-0.1-0.2c0,0-0.1-0.1-0.1-0.1c0,0,0,0,0,0c0,0,0,0,0,0c0,0,0,0,0,0c0.1,0,0.1,0.1,0.1,0.1
				c0,0,0,0.1,0,0.1c0,0,0,0,0,0l-0.1,0.1c0,0,0,0,0,0c-0.1-0.1-0.1-0.1-0.1-0.1l0,0c0,0,0,0,0,0c0,0,0,0,0,0c0.1,0,0.2,0.1,0.2,0.2
				c0.1,0.1,0.1,0.1,0.2,0.2c0,0,0,0,0,0l-0.1,0.1c0,0.1,0.1,0.1,0.2,0.2c0,0,0,0,0,0l0,0.1c0.1,0.1,0.2,0.1,0.4,0.1
				C-234.8,388.8-234.7,388.8-234.7,388.9C-234.7,388.9-234.7,388.9-234.7,388.9z"/>
		</g>
		<g>
			<path class="st3" d="M-232.4,389.6c-0.1,0,0,0.1-0.1,0.1c0.2,0,0.3,0,0.4-0.1c0,0-0.1,0.1-0.1,0.1c0.1-0.1,0.3-0.1,0.5-0.1
				c0.1,0,0.1,0,0.2-0.1c0-0.1,0-0.1-0.1-0.2c-0.1-0.1-0.1-0.2-0.1-0.3c-0.3-0.5-0.9-0.2-0.9,0c0.2,0.3,0.2,0.2,0.4,0.3
				c0.2,0,0.3,0,0.2,0.1c0,0-0.2,0-0.3,0c-0.3,0-0.4-0.2-0.5-0.1c-0.1,0.1,0,0.1,0.2,0.1c-0.1,0-0.2,0-0.2,0.1c0,0.2,0.2,0,0.3,0
				c-0.1,0-0.1,0-0.1,0.1s0.1,0.1,0.2,0C-232.5,389.6-232.4,389.6-232.4,389.6L-232.4,389.6z"/>
		</g>
		<g>
			<path d="M-232.3,389.8l0-0.1c-0.1,0-0.1,0-0.2,0l0-0.1c0,0,0,0,0,0c-0.1,0.1-0.2,0.1-0.3,0.1c0,0-0.1-0.1-0.1-0.1c0,0,0,0,0,0
				c0,0-0.1-0.1-0.1-0.1c0-0.1,0-0.1,0-0.1c0,0,0,0,0,0c0,0,0-0.1,0-0.2c0.1-0.1,0.2-0.1,0.3,0c0.1,0,0.2,0.1,0.3,0.1c0,0,0,0,0,0
				c0,0,0.1,0,0.1,0c0.1,0,0.2,0,0.2,0c0,0,0,0,0,0c0,0-0.1,0-0.1,0l-0.1,0c0,0,0,0-0.1,0c-0.1,0-0.2,0-0.4-0.3l0,0l0,0
				c0-0.1,0.1-0.2,0.3-0.3c0.2-0.1,0.5,0,0.7,0.3l0,0l0,0c0,0.1,0,0.2,0,0.3l0,0c0.1,0.1,0.1,0.1,0.1,0.3l0,0c0,0.1-0.1,0.2-0.2,0.1
				c-0.1,0-0.3,0-0.4,0.1L-232.3,389.8z M-232.4,389.5l0,0.1c0.1,0,0.1,0,0.2-0.1c0,0,0,0,0,0l0.1,0.1c0.1,0,0.3,0,0.4,0
				c0.1,0,0.1,0,0.1-0.1l0,0c0,0,0,0,0-0.1l0,0c-0.1-0.1-0.1-0.2-0.1-0.3c-0.2-0.2-0.4-0.3-0.6-0.2c-0.1,0-0.2,0.1-0.2,0.1
				c0.2,0.2,0.2,0.2,0.3,0.2c0,0,0,0,0.1,0l0.1,0c0.1,0,0.2,0,0.2,0.1c0,0.1,0,0.1-0.1,0.1c0,0-0.1,0-0.3,0
				C-232.3,389.4-232.3,389.4-232.4,389.5c-0.1,0-0.3-0.1-0.4-0.2c-0.1,0-0.1,0-0.1,0c0,0,0,0,0,0h0c0,0,0,0,0.1,0c0,0,0,0,0,0h0
				l0,0.1c0,0,0.1,0,0.1,0l0,0.1C-232.5,389.5-232.4,389.5-232.4,389.5z"/>
		</g>
		<g>
			<path class="st3" d="M-230.5,389.6c-0.1,0-0.1,0.1-0.1,0.1c0.2,0,0.3-0.1,0.3-0.2c0,0,0,0.1,0,0.1c0.1-0.1,0.2-0.2,0.2-0.3
				c0,0,0.1,0.1,0.1,0.1c-0.1-0.1,0-0.3-0.2-0.4c0.1,0,0.2,0.1,0.2,0.1c0-0.2,0-0.3-0.2-0.4c0,0,0.1,0,0.1,0
				c-0.1-0.1-0.1-0.2-0.1-0.2c0-0.1,0-0.1-0.1-0.1c-0.1,0-0.3,0-0.4,0c-0.2,0-0.4,0-0.6-0.2c0.3,0.1,0.7-0.2,0.7-0.4
				c0-0.3-0.3-0.5-0.9-0.3c-0.6,0.1-1.3,0.1-1.3-0.1c0-0.2,0.5-0.2,0.8-0.2c0.3,0,0.5,0.1,1-0.1c-0.1,0.1-0.5,0.1-0.8,0
				c-0.3-0.1-1.1-0.1-1.1,0.4s0.8,0.4,1.5,0.3c0.4-0.1,0.6,0,0.6,0.1c0,0.1-0.4,0.2-0.7,0.2c-0.3,0-0.6,0-0.9,0.1
				c-0.3,0.1-0.5,0-0.8,0.1c-0.2,0-0.5,0-0.7-0.3c-0.1,0.1-0.5,0.3-0.5,0.5c-0.1,0.2,0,0.3,0.1,0.5c0.1,0.2-0.1,0.2-0.2,0.2
				c-0.2,0-0.5,0-0.6-0.2c-0.1-0.2-0.3-0.3-0.4-0.2c-0.1,0.1,0,0.1,0.1,0.1c0.1,0,0.1,0,0.2,0c-0.1,0-0.2,0-0.2,0
				c-0.1,0.1,0,0.2,0.1,0.1c0.1,0,0.2,0,0.2,0c-0.1,0-0.2,0-0.2,0c0,0,0,0.1,0.1,0.1c0.1,0,0.2,0.1,0.3,0.1c-0.1,0-0.1,0.1-0.1,0.1
				c0.1-0.1,0.3,0.1,0.4,0.1c-0.1,0-0.2,0.1-0.2,0.1c0.1-0.1,0.7,0.1,0.7-0.2c0,0.1,0,0.1,0,0.2c0.1-0.1,0.3-0.1,0.4-0.3
				c0,0.1,0,0.1-0.1,0.2c0.1,0,0.2,0,0.3-0.2c0-0.1,0.1-0.1,0-0.2c0.1,0,0.2,0,0.3-0.1c0.1-0.1,0.2,0.1,0.3,0c0.2-0.1,0.3,0,0.4-0.1
				c0.1-0.1,0.2,0,0.3,0c0.1-0.1,0.2,0,0.4-0.1c0.2,0.1,0.5,0.3,1.2,0.1c0.4-0.1,0.5,0.1,0.5,0.3c0,0.1-0.1,0.1-0.1,0.1
				c-0.2,0-0.3-0.1-0.4-0.1c-0.1,0-0.1,0.1,0,0.2c-0.1,0-0.1,0.1,0,0.1c0,0,0.1,0,0.2,0c-0.1,0-0.2,0.1-0.1,0.2c0,0,0.1,0.1,0.2,0
				C-230.7,389.6-230.6,389.6-230.5,389.6L-230.5,389.6z"/>
		</g>
		<g>
			<path d="M-230.9,389.9C-230.9,389.9-230.9,389.9-230.9,389.9c-0.1,0-0.1,0-0.1-0.1c0,0,0-0.1,0-0.1c0,0,0,0,0,0c0,0,0,0,0,0
				c0,0-0.1-0.1-0.1-0.1c0,0,0,0,0-0.1c0,0,0,0,0-0.1c0-0.1,0-0.1,0.1-0.1c0.1,0,0.1,0,0.2,0c0.1,0,0.1,0,0.2,0c0,0,0.1,0,0.1-0.1
				c0-0.1,0-0.1-0.1-0.2c-0.1-0.1-0.2-0.1-0.4,0c-0.6,0.1-0.9,0-1.1-0.1c0,0,0,0,0,0c-0.1,0.1-0.2,0.1-0.3,0.1c0,0-0.1,0-0.1,0
				c-0.1,0-0.1,0-0.2,0c0,0-0.1,0-0.1,0c-0.1,0-0.1,0-0.2,0c-0.1,0-0.1,0-0.2,0c-0.1,0.1-0.2,0-0.3,0c-0.1,0-0.1,0-0.1,0
				c-0.1,0.1-0.2,0.1-0.3,0.1c0,0,0,0.1-0.1,0.1c-0.2,0.3-0.3,0.3-0.4,0.2l0,0c-0.1,0-0.1,0.1-0.2,0.1c0,0-0.1,0-0.1,0l-0.1-0.1
				c-0.1,0-0.2,0-0.4,0c-0.1,0-0.2,0-0.2,0l-0.1,0.1l0-0.2c0,0,0-0.1,0-0.1c0,0,0,0-0.1,0c-0.1,0-0.1,0-0.1,0l-0.2,0.1l0.1-0.2
				c0,0,0,0,0,0c0,0,0,0,0,0c0,0-0.1,0-0.1,0c0,0,0,0,0,0c-0.1,0-0.1,0-0.1-0.1c0,0,0-0.1,0-0.1c0,0-0.1,0-0.1-0.1
				c0-0.1,0-0.1,0-0.2c0,0,0,0,0,0c0,0,0-0.1,0-0.2c0.1,0,0.1-0.1,0.2-0.1c0.1,0,0.3,0.1,0.3,0.2c0.1,0.2,0.4,0.2,0.6,0.2
				c0,0,0,0,0.1,0c0,0,0.1,0,0.1,0c0,0,0,0,0-0.1c-0.1-0.2-0.2-0.4-0.1-0.6c0-0.2,0.3-0.3,0.4-0.4c0,0,0.1-0.1,0.1-0.1l0.1,0l0,0.1
				c0.2,0.3,0.5,0.3,0.7,0.3c0.2,0,0.3,0,0.4,0c0.1,0,0.3,0,0.4,0c0.3-0.1,0.6-0.1,1-0.1c0.2,0,0.5,0,0.6-0.1c0,0,0,0,0,0
				c0,0,0,0,0,0c0,0-0.2-0.1-0.5,0c-0.8,0.1-1.3,0.1-1.5-0.1c-0.1-0.1-0.1-0.2-0.1-0.3c0-0.1,0.1-0.2,0.2-0.3c0.3-0.2,0.7-0.2,1-0.1
				c0.3,0.1,0.7,0.1,0.8,0c0,0,0,0,0,0l0,0.1c0,0,0,0,0,0c-0.5,0.2-0.7,0.2-1,0.1c-0.2,0-0.6,0-0.7,0.1c0,0,0,0,0,0.1c0,0,0,0,0,0
				c0.1,0.1,0.7,0.2,1.2,0c0.3-0.1,0.6-0.1,0.8,0.1c0.1,0.1,0.2,0.2,0.2,0.3c0,0.1-0.1,0.3-0.3,0.4c-0.1,0-0.1,0.1-0.2,0.1
				c0.1,0,0.2,0,0.3,0c0.1,0,0.3,0,0.4,0c0.1,0,0.1,0,0.2,0c0,0,0,0.1,0,0.1c0,0,0,0.1,0.1,0.2l0.1,0l-0.1,0.1c0,0,0,0,0,0
				c0.1,0.1,0.1,0.2,0.1,0.3l-0.1,0c0,0,0,0,0,0.1c0,0.1,0,0.1,0,0.1l0.2,0.1l-0.2,0c0,0,0,0-0.1,0c0,0,0,0,0,0
				c0,0.1-0.1,0.2-0.2,0.2l-0.2,0.1l0.1-0.1c-0.1,0-0.1,0-0.2,0c0,0,0,0,0,0l0-0.1c0,0-0.1,0.1-0.1,0.1
				C-230.8,389.8-230.8,389.9-230.9,389.9z M-230.8,389.6C-230.8,389.6-230.9,389.7-230.8,389.6c-0.1,0.1-0.1,0.1-0.1,0.1l0,0
				C-230.9,389.7-230.8,389.7-230.8,389.6c0,0,0.2-0.1,0.3-0.1l0,0.1c0.1,0,0.1,0,0.1-0.1c0,0,0,0,0,0l0.1,0.1c0,0,0,0,0-0.1
				c0,0,0,0,0-0.1l0.1-0.1c0,0,0,0,0,0c0-0.1,0-0.1-0.1-0.2l-0.2-0.1l0.2,0c0,0,0.1,0,0.1,0c0-0.1,0-0.1-0.1-0.1c0,0,0,0,0,0
				l0.1-0.1c0-0.1-0.1-0.1-0.1-0.2c0,0,0,0,0,0c0,0,0,0-0.1,0c-0.1,0-0.3,0-0.4,0c-0.2,0-0.5,0-0.7-0.2l0.1-0.1
				c0.1,0.1,0.3,0,0.4-0.1c0.1-0.1,0.2-0.2,0.2-0.3c0-0.1,0-0.2-0.1-0.2c-0.1-0.1-0.3-0.2-0.7-0.1c-0.5,0.1-1.1,0.1-1.3-0.1
				c-0.1,0-0.1-0.1-0.1-0.1c0-0.1,0-0.1,0.1-0.2c0.2-0.1,0.6-0.1,0.8-0.1c0.1,0,0.2,0,0.4,0c-0.1,0-0.2,0-0.3-0.1
				c-0.2-0.1-0.7-0.1-0.9,0.1c-0.1,0.1-0.1,0.1-0.1,0.2c0,0.1,0,0.1,0.1,0.2c0.1,0.1,0.5,0.2,1.4,0.1c0.3-0.1,0.5,0,0.6,0
				c0,0,0.1,0.1,0.1,0.1c0,0,0,0.1-0.1,0.1c-0.1,0.1-0.5,0.1-0.7,0.1c-0.3,0-0.6,0-0.9,0.1c-0.2,0.1-0.3,0-0.5,0c-0.1,0-0.2,0-0.4,0
				c-0.2,0-0.6,0-0.7-0.3c0,0,0,0-0.1,0c-0.1,0.1-0.3,0.2-0.4,0.4c-0.1,0.1,0,0.3,0.1,0.4c0,0.1,0.1,0.1,0,0.2
				c0,0.1-0.1,0.1-0.2,0.1c0,0-0.1,0-0.1,0c-0.2,0-0.4,0-0.6-0.2c-0.1-0.1-0.2-0.2-0.2-0.2c0,0-0.1,0-0.1,0l0,0c0.1,0,0.1,0,0.2,0
				l0,0l-0.1,0.1c-0.1,0-0.1,0-0.2,0c0,0,0,0,0,0c0.1,0,0.2-0.1,0.3,0l0.1,0.1l-0.2,0c-0.1,0-0.1,0-0.1,0h0c0,0,0,0,0,0
				c0.1,0,0.1,0,0.2,0c0,0,0.1,0,0.1,0c0,0,0,0,0,0l0,0.1c0,0,0,0,0.1,0c0.1,0,0.1,0,0.2,0l0,0.1c0,0,0.1,0,0.1,0
				c0.2,0,0.4,0,0.4-0.1l0.1,0c0,0,0,0.1,0,0.1c0.1,0,0.2-0.1,0.3-0.2l0.1,0c0,0,0,0,0,0.1c0,0,0.1-0.1,0.1-0.2c0-0.1,0-0.1,0-0.1
				l0-0.1l0.1,0c0.1,0,0.2,0,0.2-0.1c0.1-0.1,0.1,0,0.2,0c0.1,0,0.1,0,0.2,0c0.1-0.1,0.2-0.1,0.3-0.1c0,0,0.1,0,0.1,0
				c0.1,0,0.1,0,0.2,0c0,0,0.1,0,0.1,0c0.1,0,0.1,0,0.2,0c0.1,0,0.1,0,0.2-0.1l0,0l0,0c0,0,0.1,0,0.1,0c0.2,0.1,0.5,0.2,1,0.1
				c0.2,0,0.4,0,0.5,0.1c0.1,0.1,0.1,0.1,0.1,0.3c0,0.2-0.1,0.2-0.2,0.2c0,0,0,0,0,0c-0.1,0-0.2,0-0.2,0c0,0-0.1,0-0.1,0
				c0,0,0,0,0,0l0.1,0l-0.1,0.1c0,0,0,0,0,0c0,0,0.1,0,0.1,0l0,0l0,0L-230.8,389.6C-230.8,389.6-230.8,389.6-230.8,389.6z"/>
		</g>
		<g>
			<path class="st3" d="M-234.7,387.6c-0.2-0.1-0.3-0.1-0.2,0.1c0,0.1,0.1,0.2,0.1,0.2C-234.8,387.8-234.8,387.6-234.7,387.6
				L-234.7,387.6z"/>
		</g>
		<g>
			<path d="M-234.8,388l-0.1-0.1c-0.1-0.1-0.1-0.2-0.1-0.3c0-0.1,0-0.1,0-0.2c0.1-0.1,0.2,0,0.3,0l0.1,0.1l-0.1,0.1
				c0,0-0.1,0.1-0.1,0.3L-234.8,388z"/>
		</g>
		<g>
			<path class="st3" d="M-234.1,387.6c0.2-0.1,0.3-0.1,0.2,0.1c0,0.1-0.1,0.2-0.1,0.2C-234,387.8-234,387.6-234.1,387.6
				L-234.1,387.6z"/>
		</g>
		<g>
			<path d="M-234.1,388l0-0.1c0-0.1,0-0.2-0.1-0.3l-0.1-0.1l0.1-0.1c0.1-0.1,0.2-0.1,0.3,0c0.1,0,0,0.1,0,0.2c0,0.1-0.1,0.2-0.1,0.3
				L-234.1,388z"/>
		</g>
		<g>
			<path class="st3" d="M-234.4,387.5c0.4,0,0.4,0.2,0.4,0.4c0,0.3-0.1,0.2-0.2,0.5c0,0.1-0.1,0.1-0.2,0.1c-0.1,0-0.2,0-0.2-0.1
				c-0.1-0.3-0.2-0.2-0.2-0.5C-234.8,387.7-234.8,387.5-234.4,387.5L-234.4,387.5z"/>
		</g>
		<g>
			<path d="M-234.4,388.6c-0.1,0-0.2,0-0.3-0.2c0-0.1-0.1-0.2-0.1-0.2c0-0.1-0.1-0.1-0.1-0.3c0-0.1,0-0.3,0.1-0.4
				c0.1-0.1,0.2-0.1,0.4-0.1s0.3,0,0.4,0.1c0.1,0.1,0.1,0.2,0.1,0.4c0,0.1,0,0.2-0.1,0.3c0,0-0.1,0.1-0.1,0.2
				C-234.2,388.6-234.3,388.6-234.4,388.6z M-234.4,387.5c-0.1,0-0.2,0-0.3,0.1c-0.1,0.1-0.1,0.1-0.1,0.3c0,0.1,0,0.1,0.1,0.2
				c0,0.1,0.1,0.1,0.1,0.3c0,0.1,0,0.1,0.2,0.1s0.1,0,0.1-0.1c0-0.2,0.1-0.2,0.1-0.3c0,0,0.1-0.1,0.1-0.2c0-0.1,0-0.2-0.1-0.3
				C-234.2,387.6-234.3,387.5-234.4,387.5z M-234.1,382.4C-234.1,382.4-234.1,382.4-234.1,382.4c0-0.2-0.1-0.3,0-0.6l0.1,0.1
				c-0.1,0.2-0.1,0.3,0,0.4c0,0,0,0.1,0,0.1L-234.1,382.4z M-231.6,382c-0.2-0.1-0.3-0.1-0.5-0.1l0-0.1c0.2,0,0.4,0,0.5,0.1
				L-231.6,382z M-235.1,381.1c0,0-0.1,0-0.2-0.1c0-0.1,0-0.1,0-0.3c0,0,0-0.1,0-0.1l0,0c0,0-0.1,0-0.2,0l0,0c0,0-0.1,0-0.1,0
				l0.1-0.1c0,0,0,0,0,0c0.1,0,0.1,0,0.2,0.1c0.1,0,0,0.1,0,0.1l0,0c0,0,0,0.1,0,0.1c0,0.1,0,0.1,0,0.1l0,0c0,0,0,0,0.1,0
				c0.1,0,0.1,0,0.1,0c0,0,0-0.1,0-0.2c0,0,0-0.1,0-0.1l0,0c0,0,0-0.1,0-0.1c0.1-0.1,0.2-0.1,0.2-0.1c0,0,0,0,0,0l0.1,0.1
				c0,0-0.1,0-0.1,0l0,0c-0.1,0.1-0.1,0.1-0.2,0l0,0c0,0,0,0.1,0,0.1c0,0.1,0,0.2,0,0.3C-234.9,381-235,381.1-235.1,381.1z"/>
		</g>
		<g>
			<path class="st2" d="M-235.1,381.4c0.1,0,0.2,0,0.2-0.2c0-0.1,0.1-0.1,0.1-0.2c0,0.2-0.3,0.1-0.3,0.1c0,0.1-0.3,0.1-0.3-0.1
				c0,0.1,0.1,0.2,0.1,0.2C-235.3,381.4-235.2,381.4-235.1,381.4L-235.1,381.4z"/>
		</g>
		<g>
			<path d="M-235.1,381.4c-0.1,0-0.2,0-0.2-0.1c0,0,0-0.1,0-0.2c0,0,0,0,0-0.1c0,0,0,0,0,0l-0.2,0l0-0.1l0.2,0c0,0,0,0,0,0l-0.2,0
				V381l0.2,0c0,0,0,0,0,0l-0.2-0.1l0-0.1l0.4,0.1l0,0v0l0,0c0,0,0.1,0,0.1,0l0.1,0c0,0,0,0,0.1,0c0,0,0,0,0,0l0,0v0l0,0l0.4-0.1
				l0,0.1l-0.2,0.1c0,0,0,0,0,0l0.2,0v0.1l-0.2,0c0,0,0,0,0,0l0.2,0l0,0.1l-0.2,0c0,0,0,0,0,0c0,0,0,0,0,0.1c0,0.1,0,0.2,0,0.2
				C-234.9,381.4-235,381.4-235.1,381.4z M-235.3,381.1c0,0,0,0.1,0,0.1c0,0.1,0,0.1,0,0.1c0,0,0.1,0,0.2,0c0.1,0,0.1,0,0.2,0
				c0,0,0-0.1,0-0.1c0,0,0-0.1,0-0.1c-0.1,0-0.1,0-0.2,0c0,0,0,0,0,0c0,0,0,0,0,0C-235.1,381.1-235.2,381.1-235.3,381.1z"/>
		</g>
		<g>
			<path d="M-234.1,386.1C-234.1,386-234.1,386-234.1,386.1c0-0.2-0.1-0.3,0-0.5l0.1,0.1c-0.1,0.2-0.1,0.3,0,0.4c0,0,0,0.1,0,0.1
				L-234.1,386.1z M-231.9,385.7c-0.1-0.1-0.3-0.1-0.4,0l0-0.1c0.2,0,0.3,0,0.5,0.1L-231.9,385.7z M-235,384.8c0,0-0.1,0-0.1-0.1
				c0-0.1,0-0.1,0-0.2c0,0,0,0,0-0.1c0,0-0.1,0-0.2,0l0,0c0,0-0.1,0-0.1,0l0.1-0.1c0,0,0,0,0,0c0,0,0.1,0,0.2,0.1c0.1,0,0,0.1,0,0.1
				l0,0c0,0,0,0.1,0,0.1c0,0.1,0,0.1,0,0.1l0,0c0,0,0,0,0.1,0c0,0,0.1,0,0.1,0c0,0,0-0.1,0-0.1c0,0,0-0.1,0-0.1l0,0c0,0,0-0.1,0-0.1
				c0.1-0.1,0.2-0.1,0.2-0.1c0,0,0,0,0,0l0.1,0.1c0,0-0.1,0-0.1,0l0,0c-0.1,0.1-0.1,0.1-0.2,0c0,0,0,0,0,0.1c0,0.1,0,0.2,0,0.2
				C-234.9,384.8-234.9,384.8-235,384.8z"/>
		</g>
		<g>
			<path class="st2" d="M-235,385.2c0.1,0,0.2,0,0.2-0.2c0-0.1,0.1-0.1,0.1-0.2c0,0.1-0.2,0.1-0.2,0.1c0,0.1-0.3,0.1-0.2-0.1
				c0,0.1,0.1,0.1,0.1,0.2C-235.2,385.2-235.1,385.2-235,385.2L-235,385.2z"/>
		</g>
		<g>
			<path d="M-235,385.2c-0.1,0-0.1,0-0.2,0c0,0,0-0.1,0-0.2c0,0,0,0,0-0.1c0,0,0,0,0,0l-0.2,0l0-0.1l0.1,0l-0.2,0l0-0.1l0.2,0
				l-0.1,0l0-0.1l0.3,0.1l0,0v0l0,0l0,0c0,0,0.1,0,0.1,0l0.1,0c0,0,0,0,0.1,0c0,0,0,0,0,0l0,0v0l0,0l0.3-0.1l0,0.1l-0.1,0l0.2,0
				l0,0.1l-0.2,0l0.1,0l0,0.1l-0.2,0c0,0,0,0,0,0c0,0,0,0,0,0.1c0,0.1,0,0.1,0,0.2C-234.8,385.2-234.9,385.2-235,385.2z
				 M-235.1,384.9C-235.1,384.9-235.1,384.9-235.1,384.9c0,0.2,0,0.2,0,0.2c0,0,0.1,0,0.1,0s0.1,0,0.1,0c0,0,0-0.1,0-0.1
				c0,0,0-0.1,0-0.1c-0.1,0-0.1,0-0.2,0c0,0,0,0,0,0c0,0,0,0,0,0C-235,384.9-235.1,384.9-235.1,384.9z"/>
		</g>
		<g>
			<path d="M-234.4,388.2c0,0-0.1,0-0.1,0c0,0,0-0.1,0-0.2c0,0,0,0,0,0c0,0-0.1,0-0.1,0l0,0c0,0,0,0-0.1,0l0.1-0.1l0,0.1l0-0.1
				c0,0,0,0,0,0c0,0,0.1,0,0.2,0.1c0,0,0,0,0,0c0,0,0,0,0,0l0,0c0.1-0.1,0.1,0,0.2,0c0,0,0,0,0,0l0.1,0.1c0,0-0.1,0-0.1,0l0,0
				c0,0-0.1,0-0.1,0l0,0c0,0.1,0,0.2,0,0.2C-234.3,388.2-234.4,388.2-234.4,388.2z"/>
		</g>
		<g>
			<path class="st2" d="M-234.4,388.5c0.1,0,0.2,0,0.1-0.2c0-0.1,0.1-0.1,0-0.2c0,0.1-0.2,0.1-0.2,0.1c0,0.1-0.2,0.1-0.2-0.1
				c0,0.1,0,0.1,0,0.2C-234.6,388.4-234.5,388.5-234.4,388.5L-234.4,388.5z"/>
		</g>
		<g>
			<path d="M-234.4,388.5c-0.1,0-0.1,0-0.1,0c0,0,0-0.1,0-0.1c0,0,0,0,0,0c0,0,0,0,0,0l-0.1,0l0-0.1l0.1,0l-0.1,0l0-0.1l0.1,0
				l-0.1,0l0-0.1l0.2,0.1l0,0l0,0c0,0,0,0,0.1,0l0.1,0c0,0,0,0,0.1,0l0,0v0l0,0l0.2-0.1l0,0.1l-0.1,0l0.1,0l0,0.1l-0.1,0l0.1,0
				l0,0.1l-0.1,0c0,0,0,0,0,0c0,0,0,0,0,0c0,0.1,0,0.1,0,0.1C-234.3,388.5-234.4,388.5-234.4,388.5z"/>
		</g>
		<g>
			<path class="st4" d="M-236.9,380c-0.1-0.1-0.4,0-0.4,0.1c0.1-0.1,0.2,0,0.3,0C-236.9,380.1-236.8,380-236.9,380L-236.9,380z"/>
		</g>
		<g>
			<path d="M-237,380.1C-237,380.1-237,380.1-237,380.1c-0.2-0.1-0.2-0.1-0.3,0l0,0l0,0c0-0.1,0.1-0.2,0.2-0.2c0.1,0,0.2,0,0.2,0
				l0,0c0,0,0,0,0,0.1C-236.9,380.1-236.9,380.1-237,380.1C-236.9,380.1-237,380.1-237,380.1z"/>
		</g>
		<g>
			<path class="st4" d="M-237,380.3c-0.1-0.1-0.4,0-0.4,0.1c0.1-0.1,0.2,0,0.3,0C-237,380.4-237,380.3-237,380.3L-237,380.3z"/>
		</g>
		<g>
			<path d="M-237.1,380.4C-237.1,380.4-237.2,380.4-237.1,380.4c-0.2-0.1-0.2-0.1-0.3,0l0,0l0,0c0-0.1,0.1-0.2,0.2-0.2
				c0.1,0,0.2,0,0.2,0l0,0c0,0,0,0,0,0.1C-237,380.4-237,380.4-237.1,380.4C-237.1,380.4-237.1,380.4-237.1,380.4z"/>
		</g>
		<g>
			<path class="st4" d="M-237.1,380.7c-0.1-0.1-0.4,0-0.3,0.2c0.1-0.1,0.2,0,0.3,0C-237.1,380.8-237,380.7-237.1,380.7L-237.1,380.7
				z"/>
		</g>
		<g>
			<path d="M-237.4,380.9L-237.4,380.9c0-0.1,0.1-0.2,0.1-0.2c0.1,0,0.2,0,0.2,0l0,0c0,0,0,0,0,0.1c0,0,0,0.1-0.1,0.1
				c0,0-0.1,0-0.1,0C-237.3,380.8-237.4,380.8-237.4,380.9L-237.4,380.9z"/>
		</g>
		<g>
			<path class="st4" d="M-237,381.9c-0.1-0.1-0.4,0.1-0.3,0.2c0.1-0.1,0.2,0,0.3-0.1C-236.9,382-236.9,382-237,381.9L-237,381.9z"/>
		</g>
		<g>
			<path d="M-237.3,382.1L-237.3,382.1c0-0.1,0-0.2,0.1-0.2c0.1,0,0.2,0,0.2,0l0,0c0,0,0,0,0,0.1c0,0,0,0.1-0.1,0.1c0,0-0.1,0-0.1,0
				C-237.2,382.1-237.2,382.1-237.3,382.1L-237.3,382.1z"/>
		</g>
		<g>
			<path class="st4" d="M-237,382.2c-0.2-0.1-0.3,0.2-0.2,0.3c0-0.1,0.2-0.1,0.3-0.1C-236.9,382.3-236.9,382.2-237,382.2L-237,382.2
				z"/>
		</g>
		<g>
			<path d="M-237.2,382.5L-237.2,382.5c-0.1-0.1,0-0.2,0-0.3c0.1-0.1,0.1-0.1,0.2-0.1l0,0c0,0,0,0,0.1,0.1c0,0,0,0.1,0,0.1
				c0,0-0.1,0-0.1,0C-237.1,382.4-237.2,382.4-237.2,382.5L-237.2,382.5z"/>
		</g>
		<g>
			<path class="st4" d="M-236.8,382.4c-0.2-0.1-0.3,0.2-0.2,0.3c0-0.1,0.2-0.1,0.3-0.1C-236.7,382.5-236.7,382.4-236.8,382.4
				L-236.8,382.4z"/>
		</g>
		<g>
			<path d="M-237,382.7L-237,382.7c-0.1-0.1,0-0.2,0-0.3c0.1-0.1,0.1-0.1,0.2-0.1v0c0,0,0,0,0.1,0.1c0,0,0,0.1,0,0.1
				c0,0-0.1,0-0.1,0C-236.9,382.6-237,382.6-237,382.7L-237,382.7z"/>
		</g>
		<g>
			<path class="st4" d="M-232.8,382.8c-0.2-0.1-0.3,0.2-0.2,0.3c0-0.1,0.2-0.1,0.3-0.1C-232.7,382.9-232.7,382.8-232.8,382.8
				L-232.8,382.8z"/>
		</g>
		<g>
			<path d="M-233,383.1L-233,383.1c-0.1-0.1,0-0.2,0-0.3c0.1-0.1,0.1-0.1,0.2-0.1l0,0c0,0,0,0,0.1,0.1c0,0,0,0.1,0,0.1
				c0,0-0.1,0-0.1,0C-232.9,383-233,383-233,383.1L-233,383.1z"/>
		</g>
		<g>
			<path class="st4" d="M-232.6,383c-0.2,0-0.3,0.2-0.2,0.3c0-0.1,0.2-0.1,0.3-0.2C-232.5,383.1-232.5,383-232.6,383L-232.6,383z"/>
		</g>
		<g>
			<path d="M-232.8,383.3L-232.8,383.3c-0.1-0.1,0-0.2,0-0.3c0.1-0.1,0.1-0.1,0.2-0.1l0,0c0,0,0,0,0.1,0.1c0,0,0,0.1,0,0.1
				c0,0-0.1,0-0.1,0.1C-232.7,383.2-232.7,383.2-232.8,383.3L-232.8,383.3z"/>
		</g>
		<g>
			<path class="st4" d="M-232.7,382.5c-0.1-0.1-0.3,0.1-0.3,0.3c0-0.1,0.2,0,0.3-0.1C-232.7,382.6-232.6,382.6-232.7,382.5
				L-232.7,382.5z"/>
		</g>
		<g>
			<path d="M-233,382.8L-233,382.8c0-0.1,0-0.2,0.1-0.3c0.1-0.1,0.2-0.1,0.2,0v0c0,0,0,0,0,0.1c0,0,0,0.1,0,0.1c0,0-0.1,0-0.1,0
				C-232.9,382.7-233,382.7-233,382.8L-233,382.8z"/>
		</g>
		<g>
			<path class="st4" d="M-229.8,382.8c-0.2,0-0.3,0.2-0.2,0.3c0-0.1,0.2-0.1,0.3-0.2C-229.8,383-229.8,382.9-229.8,382.8
				L-229.8,382.8z"/>
		</g>
		<g>
			<path d="M-230,383.2L-230,383.2c-0.1-0.1,0-0.2,0-0.3c0.1-0.1,0.1-0.1,0.2-0.1c0,0,0,0,0.1,0.1c0,0,0,0.1,0,0.1
				c0,0-0.1,0-0.1,0.1C-230,383.1-230,383.1-230,383.2L-230,383.2z"/>
		</g>
		<g>
			<path class="st4" d="M-229.8,382.6c-0.1-0.1-0.3,0.1-0.3,0.3c0-0.1,0.2,0,0.3-0.1C-229.8,382.7-229.8,382.6-229.8,382.6
				L-229.8,382.6z"/>
		</g>
		<g>
			<path d="M-230.1,382.9L-230.1,382.9c0-0.1,0-0.2,0.1-0.3c0.1-0.1,0.1-0.1,0.2,0l0,0c0,0,0,0,0,0.1c0,0,0,0.1,0,0.1
				c0,0-0.1,0-0.1,0C-230,382.8-230.1,382.8-230.1,382.9L-230.1,382.9z"/>
		</g>
		<g>
			<path class="st4" d="M-229.7,383.1c-0.2,0-0.3,0.2-0.2,0.3c0-0.1,0.2-0.1,0.2-0.2C-229.6,383.2-229.7,383.1-229.7,383.1
				L-229.7,383.1z"/>
		</g>
		<g>
			<path d="M-229.9,383.4L-229.9,383.4c-0.1-0.1-0.1-0.2,0-0.3c0-0.1,0.1-0.1,0.2-0.1l0,0c0,0,0,0,0.1,0c0,0,0,0.1,0,0.1
				c0,0-0.1,0-0.1,0.1C-229.8,383.3-229.9,383.3-229.9,383.4L-229.9,383.4z"/>
		</g>
		<g>
			<path class="st4" d="M-235.1,381.3c0.1,0,0.1,0,0.1,0.2c0,0.4,0,0.5-0.1,0.5s-0.1-0.2-0.1-0.4c0-0.1,0-0.2,0-0.2
				C-235.2,381.3-235.1,381.3-235.1,381.3L-235.1,381.3z"/>
		</g>
		<g>
			<path d="M-235,382.1C-235.1,382.1-235.1,382.1-235,382.1c-0.1-0.1-0.1-0.2-0.1-0.4v-0.1c0-0.1,0-0.2,0-0.2c0,0,0,0,0,0l0,0v0
				c0-0.1,0-0.1,0.1-0.1c0.1,0,0.1,0,0.1,0.2C-234.9,381.9-234.9,382.1-235,382.1z M-235.2,381.4
				C-235.2,381.4-235.2,381.4-235.2,381.4c0,0,0,0.1,0,0.2v0.1c0,0.2,0,0.3,0,0.4c0,0,0,0,0.1,0c0.1,0,0.1-0.2,0.1-0.5
				c0-0.2,0-0.2-0.1-0.2C-235.1,381.3-235.2,381.3-235.2,381.4z"/>
		</g>
		<g>
			<path class="st4" d="M-236.6,383.8c-0.1-0.1-0.3,0-0.3,0.1c0.1-0.1,0.2,0,0.3,0C-236.6,384-236.6,383.9-236.6,383.8L-236.6,383.8
				z"/>
		</g>
		<g>
			<path class="st5" d="M-236.6,383.8c-0.1-0.1-0.3,0-0.3,0.1c0.1-0.1,0.2,0,0.3,0C-236.6,384-236.6,383.9-236.6,383.8L-236.6,383.8
				z"/>
		</g>
		<g>
			<path class="st4" d="M-236.7,384.1c-0.1-0.1-0.3,0-0.3,0.1c0.1-0.1,0.2,0,0.3,0C-236.7,384.2-236.7,384.2-236.7,384.1
				L-236.7,384.1z"/>
		</g>
		<g>
			<path class="st5" d="M-236.7,384.1c-0.1-0.1-0.3,0-0.3,0.1c0.1-0.1,0.2,0,0.3,0C-236.7,384.2-236.7,384.2-236.7,384.1
				L-236.7,384.1z"/>
		</g>
		<g>
			<path class="st4" d="M-236.8,384.5c-0.1-0.1-0.3,0-0.3,0.2c0.1-0.1,0.2,0,0.3,0C-236.8,384.6-236.7,384.5-236.8,384.5
				L-236.8,384.5z"/>
		</g>
		<g>
			<path class="st5" d="M-236.8,384.5c-0.1-0.1-0.3,0-0.3,0.2c0.1-0.1,0.2,0,0.3,0C-236.8,384.6-236.7,384.5-236.8,384.5
				L-236.8,384.5z"/>
		</g>
		<g>
			<path class="st4" d="M-236.7,385.6c-0.1-0.1-0.3,0.1-0.3,0.2c0.1-0.1,0.2,0,0.3,0C-236.6,385.7-236.6,385.6-236.7,385.6
				L-236.7,385.6z"/>
		</g>
		<g>
			<path class="st5" d="M-236.7,385.6c-0.1-0.1-0.3,0.1-0.3,0.2c0.1-0.1,0.2,0,0.3,0C-236.6,385.7-236.6,385.6-236.7,385.6
				L-236.7,385.6z"/>
		</g>
		<g>
			<path class="st4" d="M-236.7,385.9c-0.1-0.1-0.3,0.2-0.2,0.3c0-0.1,0.2-0.1,0.2-0.1C-236.6,386-236.6,385.9-236.7,385.9
				L-236.7,385.9z"/>
		</g>
		<g>
			<path class="st5" d="M-236.7,385.9c-0.1-0.1-0.3,0.2-0.2,0.3c0-0.1,0.2-0.1,0.2-0.1C-236.6,386-236.6,385.9-236.7,385.9
				L-236.7,385.9z"/>
		</g>
		<g>
			<path class="st4" d="M-236.5,386c-0.1-0.1-0.3,0.2-0.2,0.3c0-0.1,0.2-0.1,0.2-0.1C-236.4,386.1-236.4,386.1-236.5,386L-236.5,386
				z"/>
		</g>
		<g>
			<path class="st5" d="M-236.5,386c-0.1-0.1-0.3,0.2-0.2,0.3c0-0.1,0.2-0.1,0.2-0.1C-236.4,386.1-236.4,386.1-236.5,386L-236.5,386
				z"/>
		</g>
		<g>
			<path class="st4" d="M-232.9,386.4c-0.1-0.1-0.3,0.2-0.2,0.3c0-0.1,0.2-0.1,0.2-0.1C-232.8,386.5-232.8,386.4-232.9,386.4
				L-232.9,386.4z"/>
		</g>
		<g>
			<path class="st5" d="M-232.9,386.4c-0.1-0.1-0.3,0.2-0.2,0.3c0-0.1,0.2-0.1,0.2-0.1C-232.8,386.5-232.8,386.4-232.9,386.4
				L-232.9,386.4z"/>
		</g>
		<g>
			<path class="st4" d="M-232.7,386.6c-0.1,0-0.3,0.2-0.2,0.3c0-0.1,0.2-0.1,0.2-0.2C-232.6,386.7-232.6,386.6-232.7,386.6
				L-232.7,386.6z"/>
		</g>
		<g>
			<path class="st5" d="M-232.7,386.6c-0.1,0-0.3,0.2-0.2,0.3c0-0.1,0.2-0.1,0.2-0.2C-232.6,386.7-232.6,386.6-232.7,386.6
				L-232.7,386.6z"/>
		</g>
		<g>
			<path class="st4" d="M-232.8,386.2c-0.1-0.1-0.3,0.1-0.3,0.2c0-0.1,0.2,0,0.3-0.1C-232.8,386.3-232.8,386.2-232.8,386.2
				L-232.8,386.2z"/>
		</g>
		<g>
			<path class="st5" d="M-232.8,386.2c-0.1-0.1-0.3,0.1-0.3,0.2c0-0.1,0.2,0,0.3-0.1C-232.8,386.3-232.8,386.2-232.8,386.2
				L-232.8,386.2z"/>
		</g>
		<g>
			<path class="st4" d="M-230.3,386.5c-0.1,0-0.3,0.2-0.2,0.3c0-0.1,0.2-0.1,0.2-0.2C-230.2,386.5-230.2,386.5-230.3,386.5
				L-230.3,386.5z"/>
		</g>
		<g>
			<path class="st5" d="M-230.3,386.5c-0.1,0-0.3,0.2-0.2,0.3c0-0.1,0.2-0.1,0.2-0.2C-230.2,386.5-230.2,386.5-230.3,386.5
				L-230.3,386.5z"/>
		</g>
		<g>
			<path class="st4" d="M-230.3,386.2c-0.1-0.1-0.3,0.1-0.3,0.2c0-0.1,0.2,0,0.3-0.1C-230.2,386.3-230.2,386.3-230.3,386.2
				L-230.3,386.2z"/>
		</g>
		<g>
			<path class="st5" d="M-230.3,386.2c-0.1-0.1-0.3,0.1-0.3,0.2c0-0.1,0.2,0,0.3-0.1C-230.2,386.3-230.2,386.3-230.3,386.2
				L-230.3,386.2z"/>
		</g>
		<g>
			<path class="st4" d="M-230.2,386.7c-0.1,0-0.3,0.2-0.2,0.3c0-0.1,0.2-0.1,0.2-0.2C-230.1,386.7-230.1,386.7-230.2,386.7
				L-230.2,386.7z"/>
		</g>
		<g>
			<path class="st5" d="M-230.2,386.7c-0.1,0-0.3,0.2-0.2,0.3c0-0.1,0.2-0.1,0.2-0.2C-230.1,386.7-230.1,386.7-230.2,386.7
				L-230.2,386.7z"/>
		</g>
		<g>
			<path class="st4" d="M-234.9,385.1c0.1,0,0.1,0,0.1,0.2c0,0.3,0,0.5-0.1,0.5c-0.1,0-0.1-0.1-0.1-0.4c0-0.1,0-0.2,0-0.2
				C-235.1,385.1-235,385.1-234.9,385.1L-234.9,385.1z"/>
		</g>
		<g>
			<path d="M-234.9,385.7C-235,385.7-235,385.7-234.9,385.7c-0.1-0.1-0.1-0.2-0.1-0.4v0c0-0.1,0-0.2,0-0.2l0,0l0,0
				c0-0.1,0-0.1,0.1-0.1c0.1,0,0.1,0,0.1,0.2C-234.8,385.6-234.8,385.7-234.9,385.7z M-235.1,385.1
				C-235.1,385.1-235.1,385.2-235.1,385.1c0,0,0,0.1,0,0.2v0c0,0.2,0,0.3,0,0.3c0,0,0,0,0.1,0c0.1,0,0.1-0.1,0.1-0.5
				c0-0.2,0-0.2-0.1-0.2C-235,385.1-235.1,385.1-235.1,385.1z"/>
		</g>
		<g>
			<path class="st4" d="M-235.6,387.4c-0.1-0.1-0.2,0-0.2,0.1c0.1-0.1,0.2,0,0.2,0C-235.6,387.5-235.6,387.4-235.6,387.4
				L-235.6,387.4z"/>
		</g>
		<g>
			<path class="st5" d="M-235.6,387.4c-0.1-0.1-0.2,0-0.2,0.1c0.1-0.1,0.2,0,0.2,0C-235.6,387.5-235.6,387.4-235.6,387.4
				L-235.6,387.4z"/>
		</g>
		<g>
			<path class="st4" d="M-235.7,387.6c-0.1-0.1-0.2,0-0.2,0.1c0.1-0.1,0.2,0,0.2,0C-235.7,387.7-235.7,387.6-235.7,387.6
				L-235.7,387.6z"/>
		</g>
		<g>
			<path class="st5" d="M-235.7,387.6c-0.1-0.1-0.2,0-0.2,0.1c0.1-0.1,0.2,0,0.2,0C-235.7,387.7-235.7,387.6-235.7,387.6
				L-235.7,387.6z"/>
		</g>
		<g>
			<path class="st4" d="M-235.8,387.9c-0.1-0.1-0.2,0-0.2,0.1c0-0.1,0.2,0,0.2,0C-235.8,388-235.7,387.9-235.8,387.9L-235.8,387.9z"
				/>
		</g>
		<g>
			<path class="st5" d="M-235.8,387.9c-0.1-0.1-0.2,0-0.2,0.1c0-0.1,0.2,0,0.2,0C-235.8,388-235.7,387.9-235.8,387.9L-235.8,387.9z"
				/>
		</g>
		<g>
			<path class="st4" d="M-235.7,388.8c-0.1-0.1-0.2,0-0.2,0.2c0-0.1,0.2,0,0.2,0C-235.7,388.9-235.7,388.8-235.7,388.8L-235.7,388.8
				z"/>
		</g>
		<g>
			<path class="st5" d="M-235.7,388.8c-0.1-0.1-0.2,0-0.2,0.2c0-0.1,0.2,0,0.2,0C-235.7,388.9-235.7,388.8-235.7,388.8L-235.7,388.8
				z"/>
		</g>
		<g>
			<path class="st4" d="M-235.7,389c-0.1,0-0.2,0.1-0.2,0.2c0-0.1,0.1-0.1,0.2-0.1C-235.6,389.1-235.6,389-235.7,389L-235.7,389z"/>
		</g>
		<g>
			<path class="st5" d="M-235.7,389c-0.1,0-0.2,0.1-0.2,0.2c0-0.1,0.1-0.1,0.2-0.1C-235.6,389.1-235.6,389-235.7,389L-235.7,389z"/>
		</g>
		<g>
			<path class="st4" d="M-235.6,389.2c-0.1,0-0.2,0.1-0.2,0.2c0-0.1,0.1-0.1,0.2-0.1C-235.5,389.2-235.5,389.2-235.6,389.2
				L-235.6,389.2z"/>
		</g>
		<g>
			<path class="st5" d="M-235.6,389.2c-0.1,0-0.2,0.1-0.2,0.2c0-0.1,0.1-0.1,0.2-0.1C-235.5,389.2-235.5,389.2-235.6,389.2
				L-235.6,389.2z"/>
		</g>
		<g>
			<path class="st4" d="M-232.9,389.5c-0.1,0-0.2,0.1-0.2,0.2c0-0.1,0.1-0.1,0.2-0.1C-232.8,389.5-232.8,389.5-232.9,389.5
				L-232.9,389.5z"/>
		</g>
		<g>
			<path class="st5" d="M-232.9,389.5c-0.1,0-0.2,0.1-0.2,0.2c0-0.1,0.1-0.1,0.2-0.1C-232.8,389.5-232.8,389.5-232.9,389.5
				L-232.9,389.5z"/>
		</g>
		<g>
			<path class="st4" d="M-232.8,389.6c-0.1,0-0.2,0.1-0.1,0.2c0-0.1,0.1-0.1,0.2-0.1C-232.7,389.7-232.7,389.6-232.8,389.6
				L-232.8,389.6z"/>
		</g>
		<g>
			<path class="st5" d="M-232.8,389.6c-0.1,0-0.2,0.1-0.1,0.2c0-0.1,0.1-0.1,0.2-0.1C-232.7,389.7-232.7,389.6-232.8,389.6
				L-232.8,389.6z"/>
		</g>
		<g>
			<path class="st4" d="M-232.8,389.3c-0.1-0.1-0.2,0.1-0.2,0.2c0-0.1,0.2,0,0.2-0.1C-232.8,389.3-232.8,389.3-232.8,389.3
				L-232.8,389.3z"/>
		</g>
		<g>
			<path class="st5" d="M-232.8,389.3c-0.1-0.1-0.2,0.1-0.2,0.2c0-0.1,0.2,0,0.2-0.1C-232.8,389.3-232.8,389.3-232.8,389.3
				L-232.8,389.3z"/>
		</g>
		<g>
			<path class="st4" d="M-230.9,389.5c-0.1,0-0.2,0.1-0.1,0.2c0-0.1,0.1-0.1,0.2-0.1C-230.9,389.6-230.9,389.5-230.9,389.5
				L-230.9,389.5z"/>
		</g>
		<g>
			<path class="st5" d="M-230.9,389.5c-0.1,0-0.2,0.1-0.1,0.2c0-0.1,0.1-0.1,0.2-0.1C-230.9,389.6-230.9,389.5-230.9,389.5
				L-230.9,389.5z"/>
		</g>
		<g>
			<path class="st4" d="M-230.9,389.3c-0.1-0.1-0.2,0.1-0.2,0.2c0-0.1,0.2,0,0.2-0.1C-230.9,389.4-230.9,389.3-230.9,389.3
				L-230.9,389.3z"/>
		</g>
		<g>
			<path class="st5" d="M-230.9,389.3c-0.1-0.1-0.2,0.1-0.2,0.2c0-0.1,0.2,0,0.2-0.1C-230.9,389.4-230.9,389.3-230.9,389.3
				L-230.9,389.3z"/>
		</g>
		<g>
			<path class="st4" d="M-230.9,389.7c-0.1,0-0.2,0.2-0.1,0.2c0-0.1,0.1-0.1,0.2-0.1C-230.8,389.7-230.8,389.7-230.9,389.7
				L-230.9,389.7z"/>
		</g>
		<g>
			<path class="st5" d="M-230.9,389.7c-0.1,0-0.2,0.2-0.1,0.2c0-0.1,0.1-0.1,0.2-0.1C-230.8,389.7-230.8,389.7-230.9,389.7
				L-230.9,389.7z"/>
		</g>
		<g>
			<path class="st4" d="M-234.4,388.4c0.1,0,0.1,0,0.1,0.2c0,0.3,0,0.4-0.1,0.4c-0.1,0-0.1-0.1-0.1-0.3
				C-234.5,388.5-234.5,388.4-234.4,388.4C-234.5,388.4-234.5,388.4-234.4,388.4L-234.4,388.4z"/>
		</g>
		<g>
			<path d="M-234.4,388.9C-234.4,388.9-234.4,388.9-234.4,388.9c-0.1-0.1-0.1-0.1-0.1-0.3v0c0-0.1,0-0.1,0-0.1l0,0l0,0
				c0-0.1,0-0.1,0.1-0.1c0.1,0,0.1,0,0.1,0.2C-234.3,388.8-234.3,388.9-234.4,388.9z M-234.5,388.4
				C-234.5,388.4-234.5,388.4-234.5,388.4c0,0,0,0,0,0.2v0c0,0.1,0,0.2,0,0.3c0,0,0,0,0,0c0.1,0,0.1-0.1,0.1-0.4
				C-234.3,388.4-234.4,388.4-234.5,388.4C-234.5,388.4-234.5,388.4-234.5,388.4z"/>
		</g>
	</g>
</g>
</svg>
