<?xml version="1.0" encoding="utf-8"?>
<!-- Generator: Adobe Illustrator 19.0.0, SVG Export Plug-In . SVG Version: 6.00 Build 0)  -->
<svg version="1.1" id="Layer_1" xmlns="http://www.w3.org/2000/svg" xmlns:xlink="http://www.w3.org/1999/xlink" x="0px" y="0px"
	 viewBox="-269 374 72 46" style="enable-background:new -269 374 72 46;" xml:space="preserve">
<style type="text/css">
	.st0{clip-path:url(#SVGID_2_);}
	.st1{fill:#FFFFFF;}
	.st2{fill:#00793E;}
	.st3{fill:#E40520;}
</style>
<g>
	<defs>
		<path id="SVGID_1_" d="M-204,420H-262c-3.8,0-7-3.1-7-7V381c0-3.8,3.1-7,7-7h58.1c3.8,0,7,3.1,7,7V413
			C-197,416.9-200.1,420-204,420z"/>
	</defs>
	<clipPath id="SVGID_2_">
		<use xlink:href="#SVGID_1_"  style="overflow:visible;"/>
	</clipPath>
	<g class="st0">
		<g>
			<polygon class="st1" points="-182.8,404.5 -279.2,404.5 -279.2,388.5 -182.8,388.5 			"/>
		</g>
		<g>
			<path d="M-182.7,404.6h-96.6v-16.3h96.6V404.6z M-279,404.4h96.1v-15.8H-279V404.4z"/>
		</g>
		<g>
			<polygon points="-182.8,388.5 -279.2,388.5 -279.2,372.4 -182.8,372.4 			"/>
		</g>
		<g>
			<path d="M-182.7,388.6h-96.6v-16.3h96.6V388.6z M-279,388.3h96.1v-15.8H-279V388.3z"/>
		</g>
		<g>
			<polygon class="st2" points="-182.8,420.6 -279.2,420.6 -279.2,404.5 -182.8,404.5 			"/>
		</g>
		<g>
			<path d="M-182.7,420.7h-96.6v-16.3h96.6V420.7z M-279,420.5h96.1v-15.8H-279V420.5z"/>
		</g>
		<g>
			<polygon class="st3" points="-232.8,396.5 -279.2,420.6 -279.2,372.4 			"/>
		</g>
		<g>
			<path d="M-279.3,420.8v-48.6l0.2,0.1l46.5,24.2l-0.2,0.1L-279.3,420.8z M-279,372.6v47.7l45.9-23.9L-279,372.6z"/>
		</g>
		<g>
			<polygon class="st1" points="-260.8,394.8 -259,394.4 -259.8,396.1 -258.3,397.3 -260.1,397.8 -260.2,399.7 -261.7,398.5 
				-263.2,399.7 -263.2,397.8 -265,397.3 -263.6,396.1 -264.4,394.4 -262.5,394.8 -261.7,393.1 			"/>
		</g>
	</g>
</g>
</svg>
