<?xml version="1.0" encoding="utf-8"?>
<!-- Generator: Adobe Illustrator 19.0.0, SVG Export Plug-In . SVG Version: 6.00 Build 0)  -->
<svg version="1.1" id="Layer_1" xmlns="http://www.w3.org/2000/svg" xmlns:xlink="http://www.w3.org/1999/xlink" x="0px" y="0px"
	 viewBox="-269 374 72 46" style="enable-background:new -269 374 72 46;" xml:space="preserve">
<style type="text/css">
	.st0{clip-path:url(#SVGID_2_);}
	.st1{fill:#D6532D;}
	.st2{fill:#00684E;}
	.st3{fill:#FFFFFF;}
</style>
<g>
	<defs>
		<path id="SVGID_1_" d="M-204,420H-262c-3.8,0-7-3.1-7-7V381c0-3.8,3.1-7,7-7h58.1c3.8,0,7,3.1,7,7V413
			C-197,416.9-200.1,420-204,420z"/>
	</defs>
	<clipPath id="SVGID_2_">
		<use xlink:href="#SVGID_1_"  style="overflow:visible;"/>
	</clipPath>
	<g class="st0">
		<g>
			<polygon class="st1" points="-195.4,405 -270.6,405 -270.6,390 -195.4,390 			"/>
		</g>
		<g>
			<path d="M-195.3,405.1h-75.4v-15.3h75.4V405.1z M-270.5,404.9h74.9v-14.8h-74.9V404.9z"/>
		</g>
		<g>
			<polygon points="-195.4,387.5 -270.6,387.5 -270.6,372.4 -195.4,372.4 			"/>
		</g>
		<g>
			<path d="M-195.3,387.6h-75.4v-15.3h75.4V387.6z M-270.5,387.4h74.9v-14.8h-74.9V387.4z"/>
		</g>
		<g>
			<polygon class="st2" points="-195.4,422.6 -270.6,422.6 -270.6,407.5 -195.4,407.5 			"/>
		</g>
		<g>
			<path d="M-195.3,422.7h-75.4v-15.3h75.4V422.7z M-270.5,422.4h74.9v-14.8h-74.9V422.4z"/>
		</g>
		<g>
			<polygon class="st3" points="-195.4,390 -270.6,390 -270.6,387.5 -195.4,387.5 			"/>
		</g>
		<g>
			<path d="M-195.3,390.1h-75.4v-2.8h75.4V390.1z M-270.5,389.9h74.9v-2.3h-74.9V389.9z"/>
		</g>
		<g>
			<polygon class="st3" points="-195.4,407.5 -270.6,407.5 -270.6,405 -195.4,405 			"/>
		</g>
		<g>
			<path d="M-195.3,407.6h-75.4v-2.8h75.4V407.6z M-270.5,407.4h74.9v-2.3h-74.9V407.4z"/>
		</g>
		<g>
			<path class="st3" d="M-242.3,413.9l16.1-27.1c1.2,0.3,2.1-1.2,2.9-3.5c0.9-2.8,1.7-4.6,1.5-4.7c-0.2-0.1-1.4,1.5-3.4,3.6
				c-1.7,1.8-2.6,3.3-1.7,4.2l-16.1,27.1C-243.2,413.7-242.5,414.1-242.3,413.9L-242.3,413.9z"/>
		</g>
		<g>
			<path d="M-242.5,414c-0.1,0-0.3-0.1-0.4-0.1c-0.2-0.1-0.4-0.3-0.3-0.5l16.1-27c-1-1,0.4-2.8,1.7-4.3c0.7-0.7,1.3-1.4,1.7-1.9
				c1.3-1.5,1.6-1.8,1.8-1.7c0.1,0.1,0,0.5-0.6,2.3c-0.2,0.7-0.5,1.5-0.8,2.4c-0.6,1.7-1.4,3.6-2.6,3.6c-0.1,0-0.2,0-0.3,0
				l-16.1,27.1C-242.3,414-242.4,414-242.5,414z M-221.9,378.6c-0.2,0.1-0.8,0.8-1.6,1.7c-0.5,0.5-1.1,1.2-1.7,1.9
				c-2,2.1-2.5,3.4-1.7,4.1l0,0l0,0l-16.1,27.1c0,0,0.1,0.2,0.3,0.3c0.2,0.1,0.3,0.1,0.4,0.1l16.1-27.1l0,0c1,0.3,1.9-0.8,2.8-3.5
				c0.3-0.9,0.6-1.8,0.8-2.4C-222.2,379.8-221.9,378.8-221.9,378.6z"/>
		</g>
		<g>
			<path class="st3" d="M-223.7,413.9l-16.1-27.1c-1.2,0.3-2.1-1.2-2.9-3.5c-0.9-2.8-1.7-4.6-1.5-4.7c0.2-0.1,1.4,1.5,3.4,3.6
				c1.7,1.8,2.6,3.3,1.7,4.2l16.1,27.1C-222.8,413.7-223.5,414.1-223.7,413.9L-223.7,413.9z"/>
		</g>
		<g>
			<path d="M-223.5,414c-0.1,0-0.1,0-0.2-0.1l-16.1-27.1c-1.4,0.3-2.3-1.7-2.9-3.6c-0.3-0.9-0.6-1.8-0.8-2.4
				c-0.7-1.9-0.8-2.3-0.6-2.3c0.1-0.1,0.4,0.2,1.8,1.7c0.5,0.5,1.1,1.2,1.7,1.9c1.3,1.4,2.8,3.2,1.7,4.3l16.1,27
				c0.1,0.2-0.1,0.3-0.3,0.5C-223.3,414-223.4,414-223.5,414z M-223.6,413.9c0,0,0.2,0,0.4-0.1s0.3-0.2,0.3-0.3l-16.1-27.1l0,0
				c0.8-0.8,0.3-2-1.7-4.1c-0.7-0.7-1.3-1.4-1.7-1.9c-0.8-0.8-1.4-1.6-1.6-1.7c0,0.2,0.3,1.1,0.7,2.2c0.2,0.7,0.5,1.5,0.8,2.4
				c0.9,2.7,1.8,3.8,2.8,3.5l0,0l0,0L-223.6,413.9z"/>
		</g>
		<g>
			<path class="st1" d="M-233,414.1c5.5-4.1,8.2-9.7,8.2-16.6s-2.7-12.5-8.2-16.6c-5.5,4.1-8.2,9.7-8.2,16.6S-238.5,410-233,414.1
				L-233,414.1z"/>
		</g>
		<g>
			<path d="M-233,414.2L-233,414.2c-5.6-4.2-8.2-9.6-8.2-16.7c0-7.1,2.7-12.5,8.2-16.7l0,0l0,0c5.5,4.1,8.2,9.6,8.2,16.7
				S-227.4,410-233,414.2L-233,414.2z M-233,381c-5.5,4.1-8.1,9.5-8.1,16.5c0,7,2.7,12.4,8.1,16.5c5.5-4.1,8.1-9.5,8.1-16.5
				C-224.9,390.5-227.5,385.1-233,381z"/>
		</g>
		<g>
			<path d="M-239.4,406.3c1.2-2.6,1.8-5.5,1.8-8.8c0-3.2-0.6-6.2-1.8-8.8c-1.2,2.6-1.8,5.5-1.8,8.8
				C-241.2,400.8-240.6,403.7-239.4,406.3L-239.4,406.3z"/>
			<path d="M-239.4,406.5l-0.1-0.1c-1.2-2.6-1.8-5.5-1.8-8.8s0.6-6.2,1.8-8.8l0.1-0.1l0.1,0.1c1.2,2.6,1.8,5.5,1.8,8.8
				c0,3.3-0.6,6.2-1.8,8.8L-239.4,406.5z M-239.4,388.9c-1.1,2.6-1.7,5.4-1.7,8.6c0,3.2,0.6,6,1.7,8.6c1.1-2.6,1.7-5.4,1.7-8.6
				C-237.7,394.3-238.3,391.5-239.4,388.9z"/>
		</g>
		<g>
			<path d="M-226.6,406.3c-1.2-2.6-1.8-5.5-1.8-8.8c0-3.2,0.6-6.2,1.8-8.8c1.2,2.6,1.8,5.5,1.8,8.8
				C-224.8,400.8-225.4,403.7-226.6,406.3L-226.6,406.3z"/>
			<path d="M-226.6,406.5l-0.1-0.1c-1.2-2.6-1.8-5.5-1.8-8.8s0.6-6.2,1.8-8.8l0.1-0.1l0.1,0.1c1.2,2.6,1.8,5.5,1.8,8.8
				s-0.6,6.2-1.8,8.8L-226.6,406.5z M-226.6,388.9c-1.1,2.6-1.7,5.4-1.7,8.6c0,3.2,0.6,6,1.7,8.6c1.1-2.6,1.7-5.4,1.7-8.6
				C-224.9,394.3-225.4,391.5-226.6,388.9z"/>
		</g>
		<g>
			<path class="st3" d="M-233,399.6c0.7,0,1.2-0.9,1.2-2.1c0-1.2-0.5-2.1-1.2-2.1s-1.2,0.9-1.2,2.1
				C-234.2,398.7-233.7,399.6-233,399.6L-233,399.6z"/>
		</g>
		<g>
			<path class="st3" d="M-233.5,394.1c-1.1-1.6-1.6-3.7-1.6-6.2c0-2.5,0.5-4.6,1.6-6.2V394.1L-233.5,394.1z"/>
		</g>
		<g>
			<path class="st3" d="M-232.5,394.1c1.1-1.6,1.6-3.7,1.6-6.2c0-2.5-0.5-4.6-1.6-6.2V394.1L-232.5,394.1z"/>
		</g>
		<g>
			<path class="st3" d="M-233.5,400.9c-1.1,1.6-1.6,3.7-1.6,6.2s0.5,4.6,1.6,6.2V400.9L-233.5,400.9z"/>
		</g>
		<g>
			<path class="st3" d="M-232.5,400.9c1.1,1.6,1.6,3.7,1.6,6.2s-0.5,4.6-1.6,6.2V400.9L-232.5,400.9z"/>
		</g>
	</g>
</g>
</svg>
