<?xml version="1.0" encoding="utf-8"?>
<!-- Generator: Adobe Illustrator 19.0.0, SVG Export Plug-In . SVG Version: 6.00 Build 0)  -->
<svg version="1.1" id="Layer_1" xmlns="http://www.w3.org/2000/svg" xmlns:xlink="http://www.w3.org/1999/xlink" x="0px" y="0px"
	 viewBox="-269 374 72 46" style="enable-background:new -269 374 72 46;" xml:space="preserve">
<style type="text/css">
	.st0{clip-path:url(#SVGID_2_);}
	.st1{fill:#E40520;}
	.st2{fill:#FFE000;}
</style>
<g>
	<defs>
		<path id="SVGID_1_" d="M-204,420H-262c-3.8,0-7-3.1-7-7V381c0-3.8,3.1-7,7-7h58.1c3.8,0,7,3.1,7,7V413
			C-197,416.9-200.1,420-204,420z"/>
	</defs>
	<clipPath id="SVGID_2_">
		<use xlink:href="#SVGID_1_"  style="overflow:visible;"/>
	</clipPath>
	<g class="st0">
		<g>
			<polygon class="st1" points="-193.9,421 -193.9,373.3 -272.1,373.3 -272.1,421 			"/>
		</g>
		<g>
			<path d="M-193.8,421.1h-78.4v-47.9h78.4V421.1z M-271.9,420.9h77.9v-47.4h-77.9V420.9z"/>
		</g>
		<g>
			<path class="st2" d="M-232.3,388c0-1.6,1.4-2.7,1.5-4.8c1,1.3-0.7,3.7-0.1,5.1c0.3-1.6,1.8-2.4,2.2-4.5c0.8,1.4-1.2,3.5-0.8,5
				c0.5-1.5,2.2-2.1,2.9-4.1c0.6,1.5-1.7,3.3-1.6,4.8c0.7-1.4,2.5-1.8,3.5-3.6c0.3,1.6-2.2,3-2.3,4.5c0.9-1.3,2.7-1.3,4-3
				c0.1,1.6-2.6,2.6-3,4.1c1.1-1.1,2.9-0.9,4.4-2.4c-0.2,1.6-3,2.1-3.6,3.5c1.3-0.9,3-0.4,4.7-1.6c-0.4,1.6-3.3,1.6-4.1,2.9
				c1.4-0.7,3,0.1,4.9-0.9c-0.7,1.5-3.5,1.1-4.5,2.2c1.5-0.5,3,0.5,5-0.1c-0.9,1.4-3.6,0.5-4.7,1.5c1.6-0.2,2.8,1,4.9,0.7
				c-1.1,1.2-3.7-0.1-4.9,0.7c1.6,0,2.7,1.4,4.7,1.5c-1.3,1-3.6-0.7-5-0.1c1.5,0.3,2.4,1.8,4.5,2.2c-1.4,0.8-3.5-1.2-4.9-0.9
				c1.5,0.5,2.1,2.2,4.1,2.9c-1.5,0.6-3.2-1.8-4.7-1.6c1.4,0.7,1.7,2.5,3.6,3.5c-1.6,0.3-2.9-2.3-4.4-2.4c1.3,1,1.3,2.7,3,4.1
				c-1.6,0.1-2.5-2.7-4-3c1.1,1.1,0.9,2.9,2.3,4.5c-1.6-0.2-2.1-3.1-3.5-3.6c0.9,1.3,0.4,3,1.6,4.8c-1.5-0.4-1.6-3.4-2.9-4.1
				c0.7,1.4-0.1,3.1,0.8,5c-1.5-0.7-1.1-3.6-2.2-4.5c0.5,1.5-0.5,3,0.1,5.1c-1.3-0.9-0.5-3.7-1.5-4.8c0.2,1.6-1,2.9-0.7,5
				c-1.2-1.1,0.1-3.7-0.7-5c0,1.6-1.4,2.7-1.5,4.8c-1-1.3,0.7-3.7,0.1-5.1c-0.3,1.6-1.8,2.4-2.2,4.5c-0.8-1.4,1.2-3.5,0.8-5
				c-0.5,1.5-2.2,2.1-2.9,4.1c-0.6-1.5,1.7-3.3,1.6-4.8c-0.7,1.4-2.5,1.8-3.5,3.6c-0.3-1.6,2.2-3,2.3-4.5c-0.9,1.3-2.7,1.3-4,3
				c-0.1-1.6,2.6-2.6,3-4.1c-1.1,1.1-2.9,0.9-4.4,2.4c0.2-1.6,3-2.1,3.6-3.5c-1.3,0.9-3,0.4-4.7,1.6c0.4-1.6,3.3-1.6,4.1-2.9
				c-1.4,0.7-3-0.1-4.9,0.9c0.7-1.5,3.5-1.1,4.5-2.2c-1.5,0.5-3-0.5-5,0.1c0.9-1.4,3.6-0.5,4.7-1.5c-1.6,0.2-2.8-1-4.9-0.7
				c1.1-1.2,3.7,0.1,4.9-0.7c-1.6,0-2.7-1.4-4.7-1.5c1.3-1,3.6,0.7,5,0.1c-1.5-0.3-2.4-1.8-4.5-2.2c1.4-0.8,3.5,1.2,4.9,0.9
				c-1.5-0.5-2.1-2.2-4.1-2.9c1.5-0.6,3.2,1.8,4.7,1.6c-1.4-0.7-1.7-2.5-3.6-3.5c1.6-0.3,2.9,2.3,4.4,2.4c-1.3-1-1.3-2.7-3-4.1
				c1.6-0.1,2.5,2.7,4,3c-1.1-1.1-0.9-2.9-2.3-4.5c1.6,0.2,2.1,3.1,3.5,3.6c-0.9-1.3-0.4-3-1.6-4.8c1.5,0.4,1.6,3.4,2.9,4.1
				c-0.7-1.4,0.1-3.1-0.8-5c1.5,0.7,1.1,3.6,2.2,4.5c-0.5-1.5,0.5-3-0.1-5.1c1.3,0.9,0.5,3.7,1.5,4.8c-0.2-1.6,1-2.9,0.7-5
				C-231.8,384.1-233.1,386.7-232.3,388L-232.3,388z"/>
		</g>
		<g>
			<path d="M-233,411.5L-233,411.5c-0.7-0.7-0.6-1.7-0.6-2.8c0.1-0.8,0.1-1.6-0.2-2.2c0,0.7-0.3,1.3-0.7,2c-0.4,0.8-0.8,1.6-0.8,2.7
				l0,0.1l-0.1-0.1c-0.6-0.7-0.3-1.8-0.1-2.8c0.2-0.8,0.4-1.6,0.2-2.2c-0.1,0.7-0.5,1.3-0.9,1.8c-0.5,0.7-1,1.5-1.2,2.6l0,0.1l0-0.1
				c-0.4-0.8,0-1.8,0.4-2.7c0.3-0.7,0.6-1.5,0.5-2.1c-0.3,0.7-0.7,1.2-1.2,1.7c-0.6,0.6-1.2,1.3-1.6,2.4l0,0.1l0-0.1
				c-0.3-0.8,0.2-1.8,0.8-2.6c0.4-0.7,0.8-1.4,0.8-2c-0.3,0.6-0.9,1-1.5,1.5c-0.7,0.5-1.4,1.1-2,2.1l0,0.1l0-0.1
				c-0.2-0.9,0.5-1.7,1.2-2.5c0.5-0.6,1-1.2,1.1-1.9c-0.4,0.5-1,0.9-1.7,1.2c-0.8,0.4-1.6,0.8-2.2,1.7l-0.1,0.1l0-0.1
				c0-0.9,0.8-1.6,1.5-2.3c0.6-0.5,1.2-1.1,1.4-1.7c-0.5,0.5-1.2,0.7-1.8,0.9c-0.8,0.3-1.7,0.6-2.5,1.4l-0.1,0.1l0-0.1
				c0.1-0.9,1-1.5,1.9-2c0.7-0.4,1.4-0.9,1.7-1.4c-0.6,0.4-1.3,0.5-2,0.6c-0.9,0.1-1.7,0.3-2.7,0.9l-0.1,0l0-0.1
				c0.2-0.9,1.2-1.3,2.2-1.7c0.7-0.3,1.5-0.6,1.9-1.2c-0.6,0.3-1.3,0.3-2,0.3c-0.9,0-1.8,0-2.8,0.5l-0.1,0l0-0.1
				c0.4-0.8,1.4-1.1,2.4-1.3c0.8-0.2,1.6-0.4,2-0.8c-0.7,0.2-1.3,0.1-2.1,0c-0.9-0.1-1.8-0.3-2.8,0.1l-0.1,0l0-0.1
				c0.5-0.8,1.5-0.8,2.6-0.9c0.8-0.1,1.6-0.1,2.1-0.5c-0.7,0.1-1.3-0.1-2-0.3c-0.8-0.3-1.7-0.5-2.8-0.4l-0.1,0l0.1-0.1
				c0.6-0.7,1.7-0.6,2.7-0.5c0.8,0.1,1.6,0.1,2.2-0.2c-0.7,0-1.3-0.3-1.9-0.7c-0.8-0.4-1.6-0.8-2.7-0.8l-0.1,0l0.1-0.1
				c0.7-0.6,1.7-0.3,2.7-0.1c0.8,0.2,1.6,0.4,2.2,0.2c-0.7-0.1-1.2-0.5-1.8-1c-0.7-0.5-1.4-1-2.5-1.2l-0.1,0l0.1,0
				c0.8-0.4,1.7,0,2.7,0.4c0.7,0.3,1.5,0.6,2.1,0.5c-0.7-0.3-1.1-0.7-1.6-1.2c-0.6-0.6-1.3-1.3-2.3-1.6l-0.1,0l0.1,0
				c0.8-0.3,1.7,0.2,2.6,0.8c0.7,0.4,1.4,0.8,2,0.8c0,0,0,0,0,0c-0.6-0.4-1-0.9-1.4-1.5c-0.5-0.7-1.1-1.4-2-2l-0.1,0l0.1,0
				c0.9-0.2,1.7,0.5,2.4,1.2c0.6,0.5,1.2,1.1,1.9,1.2c-0.5-0.4-0.9-1.1-1.2-1.7c-0.4-0.8-0.8-1.6-1.7-2.3l-0.1-0.1l0.1,0
				c0,0,0,0,0.1,0c0.9,0,1.5,0.8,2.2,1.6c0.5,0.6,1,1.2,1.7,1.4c-0.5-0.5-0.7-1.2-0.9-1.9c-0.3-0.8-0.6-1.7-1.3-2.5l-0.1-0.1l0.1,0
				c0.9,0.1,1.4,1,2,1.9c0.4,0.7,0.8,1.4,1.4,1.7c-0.4-0.6-0.5-1.3-0.6-2c-0.1-0.9-0.3-1.8-0.9-2.7l0-0.1l0.1,0
				c0.9,0.2,1.3,1.2,1.7,2.2c0.3,0.7,0.6,1.5,1.1,1.9c-0.3-0.6-0.3-1.3-0.3-2.1c0-0.9,0-1.8-0.5-2.8l0-0.1l0.1,0
				c0.8,0.4,1.1,1.4,1.3,2.4c0.2,0.8,0.4,1.6,0.8,2c-0.2-0.7-0.1-1.4,0-2.1c0.1-0.9,0.3-1.8-0.1-2.9l0-0.1l0.1,0
				c0.7,0.5,0.8,1.6,0.9,2.6c0.1,0.8,0.1,1.6,0.5,2.1c-0.1-0.7,0.1-1.4,0.3-2.1c0.3-0.8,0.5-1.7,0.4-2.8l0-0.1l0.1,0.1
				c0.7,0.6,0.6,1.7,0.5,2.7c-0.1,0.8-0.1,1.6,0.2,2.2c0-0.7,0.3-1.3,0.7-2c0.4-0.8,0.8-1.6,0.8-2.7l0-0.1l0.1,0.1
				c0.6,0.7,0.3,1.7,0.1,2.8c-0.2,0.8-0.4,1.6-0.2,2.2c0.1-0.7,0.5-1.3,0.9-1.8c0.5-0.7,1-1.5,1.2-2.6l0-0.1l0,0.1
				c0.4,0.8,0,1.8-0.4,2.7c-0.3,0.7-0.6,1.5-0.5,2.1c0.3-0.7,0.7-1.2,1.2-1.7c0.6-0.6,1.2-1.3,1.6-2.4l0-0.1l0,0.1
				c0.3,0.8-0.2,1.8-0.8,2.6c-0.4,0.7-0.8,1.4-0.8,2c0.3-0.6,0.9-1,1.5-1.5c0.7-0.5,1.4-1.1,2-2.1l0-0.1l0,0.1
				c0.2,0.9-0.5,1.7-1.2,2.5c-0.5,0.6-1,1.2-1.1,1.9c0.4-0.6,1-0.9,1.7-1.2c0.8-0.4,1.6-0.8,2.2-1.7l0.1-0.1l0,0.1
				c0,0.9-0.8,1.6-1.5,2.3c-0.6,0.5-1.2,1.1-1.4,1.7c0.5-0.5,1.2-0.7,1.8-0.9c0.8-0.3,1.7-0.6,2.5-1.4l0.1-0.1l0,0.1
				c-0.1,0.9-1,1.5-1.9,2c-0.7,0.4-1.4,0.9-1.7,1.4c0.6-0.4,1.3-0.5,2-0.6c0.9-0.1,1.7-0.3,2.7-0.9l0.1,0l0,0.1
				c-0.2,0.9-1.2,1.3-2.2,1.7c-0.7,0.3-1.5,0.6-1.9,1.2c0.6-0.3,1.3-0.3,2-0.3c0.9,0,1.8,0,2.8-0.5l0.1,0l0,0.1
				c-0.4,0.8-1.4,1.1-2.4,1.3c-0.8,0.2-1.6,0.4-2,0.8c0.7-0.2,1.3-0.1,2.1,0c0.9,0.1,1.8,0.3,2.8-0.1l0.1,0l0,0.1
				c-0.5,0.8-1.5,0.8-2.6,0.9c-0.8,0.1-1.6,0.1-2.1,0.5c0.7-0.1,1.3,0.1,2,0.3c0.8,0.3,1.7,0.5,2.8,0.4l0.1,0l-0.1,0.1
				c-0.6,0.7-1.7,0.6-2.7,0.5c-0.8-0.1-1.6-0.1-2.2,0.2c0.7,0,1.3,0.3,1.9,0.7c0.8,0.4,1.6,0.8,2.7,0.8l0.1,0l-0.1,0.1
				c-0.7,0.6-1.7,0.3-2.7,0.1c-0.8-0.2-1.6-0.4-2.2-0.2c0.7,0.1,1.2,0.5,1.8,1c0.7,0.5,1.4,1,2.5,1.2l0.1,0l-0.1,0
				c-0.8,0.4-1.7,0-2.7-0.4c-0.6-0.3-1.3-0.5-1.8-0.5c-0.1,0-0.2,0-0.3,0c0.7,0.3,1.1,0.7,1.6,1.2c0.6,0.6,1.3,1.3,2.3,1.6l0.1,0
				l-0.1,0c-0.8,0.3-1.7-0.2-2.6-0.8c-0.7-0.4-1.4-0.8-2-0.8c0,0,0,0,0,0c0.6,0.4,1,0.9,1.4,1.5c0.5,0.7,1.1,1.4,2,2l0.1,0l-0.1,0
				c-0.1,0-0.2,0-0.3,0c-0.8,0-1.5-0.6-2.2-1.2c-0.6-0.5-1.2-1.1-1.9-1.2c0.5,0.4,0.9,1.1,1.2,1.7c0.4,0.8,0.8,1.6,1.7,2.3l0.1,0.1
				l-0.1,0c0,0,0,0-0.1,0c-0.9,0-1.5-0.8-2.2-1.6c-0.5-0.6-1-1.2-1.7-1.4c0.5,0.5,0.7,1.2,0.9,1.9c0.3,0.8,0.6,1.7,1.3,2.5l0.1,0.1
				l-0.1,0c-0.9-0.1-1.4-1-2-1.9c-0.4-0.7-0.8-1.4-1.4-1.7c0.4,0.6,0.5,1.3,0.6,2c0.1,0.9,0.3,1.8,0.9,2.7l0,0.1l-0.1,0
				c-0.9-0.2-1.3-1.2-1.7-2.2c-0.3-0.7-0.6-1.5-1.1-1.9c0.3,0.6,0.3,1.3,0.3,2.1c0,0.9,0,1.8,0.5,2.8l0,0.1l-0.1,0
				c-0.8-0.4-1.1-1.4-1.3-2.4c-0.2-0.8-0.4-1.6-0.8-2c0.2,0.7,0.1,1.4,0,2.1c-0.1,0.9-0.3,1.8,0.1,2.9l0,0.1l-0.1,0
				c-0.7-0.5-0.8-1.6-0.9-2.6c-0.1-0.8-0.1-1.6-0.5-2.1c0.1,0.7-0.1,1.4-0.3,2.1C-232.8,409.4-233.1,410.3-233,411.5L-233,411.5z
				 M-233.7,406.3L-233.7,406.3c0.4,0.7,0.4,1.6,0.3,2.4c-0.1,1-0.2,2,0.4,2.6c-0.1-1.1,0.2-2,0.4-2.8c0.2-0.7,0.4-1.4,0.3-2.1
				l0-0.1l0.1,0.1c0.5,0.5,0.5,1.4,0.6,2.3c0.1,1,0.2,2,0.8,2.5c-0.3-1.1-0.2-2,0-2.8c0.1-0.7,0.2-1.5,0-2.2l0-0.1l0.1,0.1
				c0.5,0.4,0.7,1.3,0.9,2.1c0.2,1,0.5,2,1.2,2.3c-0.4-1-0.5-1.9-0.5-2.8c0-0.8,0-1.5-0.3-2.1l0-0.1l0.1,0.1c0.6,0.4,0.9,1.2,1.3,2
				c0.4,0.9,0.8,1.9,1.5,2.1c-0.6-0.9-0.7-1.8-0.9-2.7c-0.1-0.7-0.2-1.5-0.7-2.1l-0.1-0.1l0.1,0c0.6,0.3,1.1,1,1.5,1.8
				c0.5,0.8,1,1.7,1.8,1.9c-0.7-0.8-1-1.7-1.3-2.5c-0.2-0.7-0.5-1.4-1-1.9l-0.1-0.1l0.1,0c0.7,0.2,1.2,0.8,1.8,1.5
				c0.6,0.8,1.3,1.5,2.1,1.5c-0.8-0.7-1.3-1.5-1.6-2.3c-0.3-0.7-0.7-1.3-1.3-1.7l-0.1-0.1l0.1,0c0.7,0,1.4,0.6,2,1.2
				c0.7,0.6,1.4,1.2,2.1,1.2c0.1,0,0.1,0,0.2,0c-0.9-0.5-1.5-1.3-2-2c-0.4-0.6-0.9-1.2-1.5-1.5l-0.1,0l0.1,0c0,0,0.1,0,0.1,0
				c0.6,0,1.3,0.4,2,0.9c0.8,0.5,1.7,1,2.5,0.8c-1-0.4-1.7-1-2.3-1.6c-0.5-0.5-1-1-1.7-1.3l-0.1,0l0.1,0c0.7-0.2,1.5,0.2,2.3,0.5
				c0.9,0.4,1.8,0.8,2.6,0.4c-1.1-0.2-1.8-0.8-2.5-1.2c-0.6-0.4-1.2-0.9-1.9-1l-0.1,0l0.1,0c0.6-0.3,1.5-0.1,2.3,0.1
				c0.9,0.2,1.9,0.5,2.6,0c-1.1-0.1-1.9-0.5-2.6-0.8c-0.7-0.3-1.3-0.7-2-0.7l-0.1,0l0.1-0.1c0.6-0.4,1.5-0.3,2.3-0.2
				c1,0.1,2,0.2,2.6-0.4c-1.1,0.1-2-0.2-2.7-0.4c-0.7-0.2-1.4-0.4-2.1-0.3l-0.1,0l0.1-0.1c0.5-0.5,1.4-0.5,2.2-0.6
				c1-0.1,2-0.2,2.5-0.8c-1,0.3-1.9,0.2-2.8,0c-0.7-0.1-1.4-0.2-2.1,0l-0.1,0l0.1-0.1c0.4-0.5,1.3-0.7,2.1-0.9
				c0.9-0.2,1.9-0.5,2.3-1.2c-1,0.5-1.9,0.5-2.7,0.5c-0.7,0-1.4,0-2.1,0.3l-0.1,0l0.1-0.1c0.4-0.6,1.2-0.9,1.9-1.3
				c0.9-0.4,1.8-0.8,2.1-1.6c-0.9,0.6-1.8,0.8-2.6,0.9c-0.7,0.1-1.4,0.2-2,0.7l-0.1,0.1l0-0.1c0.3-0.6,1-1.1,1.7-1.6
				c0.8-0.5,1.7-1.1,1.8-1.9c-0.8,0.7-1.7,1-2.4,1.3c-0.7,0.2-1.4,0.5-1.9,1l-0.1,0.1l0-0.1c0.2-0.7,0.8-1.3,1.5-1.8
				c0.7-0.6,1.5-1.3,1.5-2.1c-0.7,0.9-1.5,1.3-2.2,1.7c-0.7,0.4-1.3,0.7-1.7,1.3l-0.1,0.1l0-0.1c0-0.7,0.6-1.4,1.2-2
				c0.6-0.8,1.3-1.5,1.2-2.4c-0.5,1-1.3,1.5-1.9,2c-0.6,0.5-1.2,0.9-1.5,1.5l0,0.1l0-0.1c-0.1-0.7,0.4-1.5,0.8-2.2
				c0.5-0.8,1-1.7,0.8-2.5c-0.4,1-1,1.7-1.6,2.3c-0.5,0.5-1,1.1-1.2,1.8l0,0.1l0-0.1c-0.2-0.7,0.2-1.5,0.5-2.3
				c0.4-0.9,0.8-1.9,0.4-2.6c-0.2,1.1-0.8,1.8-1.2,2.5c-0.4,0.6-0.8,1.2-1,1.9l0,0.1l0-0.1c-0.3-0.6-0.1-1.5,0.1-2.3
				c0.2-1,0.5-2,0-2.6c-0.1,1.1-0.5,1.9-0.8,2.7c-0.3,0.7-0.6,1.3-0.6,2.1l0,0.1l-0.1-0.1c-0.4-0.6-0.3-1.5-0.2-2.3
				c0.1-1,0.2-2-0.4-2.6c0.1,1.1-0.2,2-0.4,2.8c-0.2,0.7-0.4,1.4-0.3,2.1l0,0.1l-0.1-0.1c-0.5-0.5-0.5-1.4-0.6-2.3
				c-0.1-1-0.2-2-0.8-2.5c0.3,1.1,0.2,2,0,2.8c-0.1,0.7-0.2,1.5,0,2.2l0,0.1l-0.1-0.1c-0.5-0.4-0.7-1.3-0.9-2.1
				c-0.2-1-0.5-2-1.2-2.3c0.4,1,0.5,1.9,0.5,2.8c0,0.8,0,1.5,0.3,2.1l0,0.1l-0.1-0.1c-0.6-0.4-0.9-1.2-1.3-2
				c-0.4-0.9-0.8-1.9-1.5-2.1c0.6,0.9,0.7,1.8,0.9,2.7c0.1,0.7,0.2,1.5,0.7,2.1l0.1,0.1l-0.1,0c-0.6-0.3-1.1-1-1.5-1.7
				c-0.5-0.8-1-1.7-1.8-1.9c0.7,0.8,1,1.7,1.3,2.5c0.2,0.7,0.5,1.4,1,1.9l0.1,0.1l-0.1,0c-0.7-0.2-1.2-0.8-1.8-1.5
				c-0.6-0.8-1.3-1.5-2.1-1.5c0.8,0.7,1.3,1.5,1.6,2.2c0.3,0.7,0.7,1.3,1.3,1.7l0.1,0.1l-0.1,0c-0.7,0-1.4-0.6-2-1.2
				c-0.7-0.6-1.5-1.3-2.3-1.2c0.9,0.5,1.5,1.3,2,2c0.4,0.6,0.9,1.2,1.5,1.5l0.1,0l-0.1,0c-0.7,0.1-1.4-0.4-2.2-0.8
				c-0.8-0.5-1.7-1-2.5-0.8c1,0.4,1.7,1,2.3,1.6c0.5,0.5,1,1,1.7,1.3l0.1,0l-0.1,0c-0.7,0.2-1.5-0.2-2.3-0.5
				c-0.9-0.4-1.8-0.8-2.6-0.4c1.1,0.2,1.8,0.8,2.5,1.2c0.6,0.4,1.2,0.9,1.9,1l0.1,0l-0.1,0c-0.6,0.3-1.5,0.1-2.3-0.1
				c-0.9-0.2-1.9-0.5-2.6,0c1.1,0.1,1.9,0.5,2.6,0.8c0.7,0.3,1.3,0.7,2,0.7l0.1,0l-0.1,0.1c-0.6,0.4-1.5,0.3-2.3,0.2
				c-1-0.1-2-0.2-2.6,0.4c1.1-0.1,2,0.2,2.7,0.4c0.7,0.2,1.4,0.4,2.1,0.3l0.1,0l-0.1,0.1c-0.5,0.5-1.4,0.5-2.2,0.6
				c-1,0.1-2,0.2-2.5,0.8c1-0.3,2-0.2,2.8,0c0.7,0.1,1.4,0.2,2.1,0l0.1,0l-0.1,0.1c-0.4,0.5-1.3,0.7-2.1,0.9
				c-0.9,0.2-1.9,0.5-2.3,1.2c1-0.5,1.9-0.5,2.7-0.5c0.7,0,1.4,0,2.1-0.3l0.1,0l-0.1,0.1c-0.4,0.6-1.2,0.9-1.9,1.3
				c-0.9,0.4-1.8,0.8-2.1,1.6c0.9-0.6,1.8-0.8,2.6-0.9c0.7-0.1,1.4-0.2,2-0.7l0.1-0.1l0,0.1c-0.3,0.6-1,1.1-1.7,1.6
				c-0.8,0.5-1.7,1.1-1.8,1.9c0.8-0.7,1.7-1,2.4-1.3c0.7-0.2,1.4-0.5,1.9-1l0.1-0.1l0,0.1c-0.2,0.7-0.8,1.3-1.5,1.8
				c-0.7,0.6-1.5,1.3-1.5,2.1c0.7-0.9,1.5-1.3,2.2-1.7c0.7-0.4,1.3-0.7,1.7-1.3l0.1-0.1l0,0.1c0,0.7-0.6,1.4-1.2,2
				c-0.6,0.8-1.3,1.5-1.2,2.4c0.5-1,1.3-1.5,1.9-2c0.6-0.5,1.2-0.9,1.5-1.5l0-0.1l0,0.1c0.1,0.7-0.4,1.5-0.8,2.2
				c-0.5,0.8-1,1.7-0.8,2.5c0.4-1,1-1.7,1.6-2.3c0.5-0.5,1-1.1,1.2-1.8l0-0.1l0,0.1c0.2,0.7-0.2,1.5-0.5,2.3
				c-0.4,0.9-0.8,1.9-0.4,2.6c0.2-1.1,0.8-1.8,1.2-2.5c0.4-0.6,0.8-1.2,1-1.9l0-0.1l0,0.1c0.3,0.6,0.1,1.5-0.1,2.3
				c-0.2,1-0.5,2,0,2.6c0.1-1.1,0.5-1.9,0.8-2.7c0.3-0.7,0.6-1.3,0.7-2.1L-233.7,406.3z"/>
		</g>
		<g>
			<path class="st1" d="M-233,404.7c4.1,0,7.4-3.4,7.4-7.5s-3.3-7.5-7.4-7.5c-4.1,0-7.4,3.4-7.4,7.5S-237.1,404.7-233,404.7
				L-233,404.7z"/>
		</g>
		<g>
			<path class="st2" d="M-233,390.6c1.9,0,3.6,0.8,4.8,2.1c-1.8,0.2-3.4,0.6-4.8,1.3c-1.3-0.7-2.9-1.1-4.8-1.3
				C-236.6,391.4-234.9,390.6-233,390.6L-233,390.6z"/>
		</g>
		<g>
			<path class="st2" d="M-233.5,394.3c-0.1,0.1-0.3,0.2-0.4,0.3c-1.2-0.6-2.6-1.1-4.3-1.2c0.1-0.1,0.2-0.2,0.2-0.3
				C-236.2,393.2-234.8,393.7-233.5,394.3L-233.5,394.3z"/>
		</g>
		<g>
			<path class="st2" d="M-232.5,394.3c0.1,0.1,0.3,0.2,0.4,0.3c1.2-0.6,2.6-1.1,4.3-1.2c-0.1-0.1-0.2-0.2-0.2-0.3
				C-229.8,393.2-231.2,393.7-232.5,394.3L-232.5,394.3z"/>
		</g>
		<g>
			<path class="st2" d="M-238.5,393.7c-0.1,0.1-0.1,0.2-0.2,0.3c1.6,0,2.9,0.4,4,1c0.1-0.1,0.2-0.2,0.3-0.3
				C-235.5,394.2-236.8,393.8-238.5,393.7L-238.5,393.7z"/>
		</g>
		<g>
			<path class="st2" d="M-238.6,400.5c-0.6-1-0.9-2.1-0.9-3.3c0-1,0.2-1.9,0.6-2.7c1.5,0,2.8,0.3,3.9,0.9
				C-236.5,396.7-237.7,398.4-238.6,400.5L-238.6,400.5z"/>
		</g>
		<g>
			<path class="st2" d="M-235.3,403.3c-0.3-0.1-0.6-0.2-0.8-0.4c0.2-2.5,0.9-4.8,2.5-6.5c0.1,0.1,0.2,0.2,0.3,0.4
				C-234.8,398.5-235.4,400.9-235.3,403.3L-235.3,403.3z"/>
		</g>
		<g>
			<path class="st2" d="M-227.5,393.7c0.1,0.1,0.1,0.2,0.2,0.3c-1.6,0-2.9,0.4-4,1c-0.1-0.1-0.2-0.2-0.3-0.3
				C-230.5,394.2-229.2,393.8-227.5,393.7L-227.5,393.7z"/>
		</g>
		<g>
			<path class="st2" d="M-227.4,400.5c0.6-1,0.9-2.1,0.9-3.3c0-1-0.2-1.9-0.6-2.7c-1.5,0-2.8,0.3-3.9,0.9
				C-229.5,396.7-228.3,398.4-227.4,400.5L-227.4,400.5z"/>
		</g>
		<g>
			<path class="st2" d="M-233,397.1c1.3,1.7,1.8,4.1,1.6,6.4c-0.5,0.1-1,0.2-1.6,0.2c-0.5,0-1.1-0.1-1.6-0.2
				C-234.8,401.2-234.3,398.8-233,397.1L-233,397.1z"/>
		</g>
		<g>
			<path class="st2" d="M-230.7,403.3c0.3-0.1,0.6-0.2,0.8-0.4c-0.2-2.5-0.9-4.8-2.5-6.5c-0.1,0.1-0.2,0.2-0.3,0.4
				C-231.2,398.5-230.6,400.9-230.7,403.3L-230.7,403.3z"/>
		</g>
		<g>
			<path class="st2" d="M-234,396c-0.1-0.1-0.3-0.2-0.4-0.3c-1.6,1.5-2.7,3.5-3.4,5.8c0.3,0.3,0.5,0.6,0.8,0.8
				C-236.6,399.8-235.7,397.6-234,396L-234,396z"/>
		</g>
		<g>
			<path class="st2" d="M-232,396c0.1-0.1,0.3-0.2,0.4-0.3c1.6,1.5,2.7,3.5,3.4,5.8c-0.3,0.3-0.5,0.6-0.8,0.8
				C-229.4,399.8-230.3,397.6-232,396L-232,396z"/>
		</g>
		<g>
			<path class="st2" d="M-233,394.6c0.1,0,0.4,0.2,0.4,0.3c-0.1,0.1-0.4,0.2-0.4,0.3c-0.1,0-0.3-0.2-0.4-0.3
				C-233.4,394.8-233.1,394.7-233,394.6L-233,394.6z"/>
		</g>
		<g>
			<path class="st2" d="M-233.8,395.2c-0.1,0.1-0.3,0.2-0.3,0.3c0.2,0.1,0.4,0.3,0.4,0.3c0.1-0.1,0.2-0.2,0.3-0.3
				C-233.5,395.4-233.7,395.2-233.8,395.2L-233.8,395.2z"/>
		</g>
		<g>
			<path class="st2" d="M-232.2,395.2c0.1,0.1,0.3,0.2,0.3,0.3c-0.2,0.1-0.4,0.3-0.4,0.3c-0.1-0.1-0.2-0.2-0.3-0.3
				C-232.5,395.4-232.3,395.2-232.2,395.2L-232.2,395.2z"/>
		</g>
		<g>
			<path class="st2" d="M-233,395.8c0.1,0.1,0.3,0.2,0.3,0.3c-0.1,0.1-0.3,0.2-0.3,0.3c-0.1-0.1-0.2-0.2-0.3-0.3
				C-233.3,396-233.1,395.8-233,395.8L-233,395.8z"/>
		</g>
	</g>
</g>
</svg>
