<?xml version="1.0" encoding="utf-8"?>
<!-- Generator: Adobe Illustrator 19.0.0, SVG Export Plug-In . SVG Version: 6.00 Build 0)  -->
<svg version="1.1" id="Layer_1" xmlns="http://www.w3.org/2000/svg" xmlns:xlink="http://www.w3.org/1999/xlink" x="0px" y="0px"
	 viewBox="-269 374 72 46" style="enable-background:new -269 374 72 46;" xml:space="preserve">
<style type="text/css">
	.st0{clip-path:url(#SVGID_2_);}
	.st1{fill:#005497;}
	.st2{fill:none;stroke:#000000;stroke-width:0.25;}
	.st3{fill:#E50040;}
	.st4{fill:#FFFFFF;}
</style>
<g>
	<defs>
		<path id="SVGID_1_" d="M-204,420H-262c-3.8,0-7-3.1-7-7V381c0-3.8,3.1-7,7-7h58.1c3.8,0,7,3.1,7,7V413
			C-197,416.9-200.1,420-204,420z"/>
	</defs>
	<clipPath id="SVGID_2_">
		<use xlink:href="#SVGID_1_"  style="overflow:visible;"/>
	</clipPath>
	<g class="st0">
		<g>
			<polygon class="st1" points="-193.2,422.5 -193.2,368.9 -273.7,368.9 -273.7,422.5 			"/>
		</g>
		<g>
			<path d="M-193.1,422.7h-80.8v-53.9h80.8V422.7z M-273.6,422.4h80.3V369h-80.3V422.4z"/>
		</g>
		<g>
			<path class="st1" d="M-233.5,395.7"/>
		</g>
		<g>
			<path class="st2" d="M-233.5,395.7"/>
		</g>
		<g>
			<polygon class="st3" points="-273.7,382.3 -193.2,382.3 -193.2,409.1 -273.7,409.1 			"/>
		</g>
		<g>
			<path d="M-193.1,409.2h-80.8v-27.1h80.8V409.2z M-273.6,409h80.3v-26.6h-80.3V409z"/>
		</g>
		<g>
			<path class="st4" d="M-217.7,401.6c-0.2-0.1-0.6-0.5-0.7-0.8c0,0,0-2.1,0-2.8s0.3-1.1,0.7-1.2v-2.9c-0.1,0.2-0.6,0.1-0.6,0.6
				h-30.3c0-0.5-0.5-0.4-0.6-0.6v2.9c0.4,0.2,0.7,0.6,0.7,1.2s0,2.8,0,2.8c-0.1,0.3-0.5,0.7-0.7,0.8H-217.7L-217.7,401.6z"/>
			<path class="st3" d="M-217.7,401.7h-31.5c-0.1,0-0.1,0-0.1-0.1c0-0.1,0-0.1,0.1-0.1c0.2-0.1,0.5-0.5,0.6-0.8V398
				c0-0.8-0.4-1-0.6-1.1c0,0-0.1-0.1-0.1-0.1v-2.9c0-0.1,0-0.1,0.1-0.1c0.1,0,0.1,0,0.1,0.1c0,0,0.1,0.1,0.2,0.1
				c0.2,0.1,0.4,0.2,0.4,0.4h30c0.1-0.3,0.3-0.4,0.4-0.4c0.1,0,0.1-0.1,0.2-0.1c0-0.1,0.1-0.1,0.1-0.1c0.1,0,0.1,0.1,0.1,0.1v2.9
				c0,0,0,0.1-0.1,0.1c-0.2,0.1-0.6,0.4-0.6,1.1v2.7c0.1,0.3,0.4,0.7,0.6,0.8c0.1,0,0.1,0.1,0.1,0.1
				C-217.6,401.7-217.7,401.7-217.7,401.7z M-248.8,401.4h30.7c-0.2-0.2-0.4-0.5-0.5-0.7c0,0,0,0,0,0V398c0-0.6,0.3-1.1,0.7-1.3
				v-2.6c0,0,0,0-0.1,0c-0.2,0.1-0.3,0.1-0.3,0.3c0,0.1-0.1,0.1-0.1,0.1h-30.3c-0.1,0-0.1-0.1-0.1-0.1c0-0.2-0.1-0.3-0.3-0.3
				c0,0,0,0-0.1,0v2.6c0.4,0.2,0.7,0.7,0.7,1.3v2.8c0,0,0,0,0,0C-248.5,401-248.6,401.3-248.8,401.4z"/>
		</g>
		<g>
			<polygon class="st4" points="-217.1,401.6 -217.1,402.4 -249.8,402.4 -249.8,401.6 			"/>
			<path class="st3" d="M-217.1,402.5h-32.7c-0.1,0-0.1-0.1-0.1-0.1v-0.8c0-0.1,0.1-0.1,0.1-0.1h32.7c0.1,0,0.1,0.1,0.1,0.1v0.8
				C-217,402.4-217,402.5-217.1,402.5z M-249.7,402.2h32.5v-0.5h-32.5V402.2z"/>
		</g>
		<g>
			<polygon class="st4" points="-216.4,402.4 -216.4,403.5 -250.5,403.5 -250.5,402.4 			"/>
			<path class="st3" d="M-216.4,403.6h-34.1c-0.1,0-0.1-0.1-0.1-0.1v-1.1c0-0.1,0.1-0.1,0.1-0.1h34.1c0.1,0,0.1,0.1,0.1,0.1v1.1
				C-216.3,403.6-216.4,403.6-216.4,403.6z M-250.4,403.4h33.8v-0.9h-33.8V403.4z"/>
		</g>
		<g>
			<polygon class="st4" points="-215.5,403.5 -215.5,404.8 -251.4,404.8 -251.4,403.5 			"/>
			<path class="st3" d="M-215.5,405h-35.9c-0.1,0-0.1-0.1-0.1-0.1v-1.3c0-0.1,0.1-0.1,0.1-0.1h35.9c0.1,0,0.1,0.1,0.1,0.1v1.3
				C-215.4,404.9-215.4,405-215.5,405z M-251.3,404.7h35.7v-1.1h-35.7V404.7z"/>
		</g>
		<g>
			<polygon class="st4" points="-214.5,404.8 -214.5,406.4 -252.4,406.4 -252.4,404.8 			"/>
			<path class="st3" d="M-214.5,406.6h-37.9c-0.1,0-0.1-0.1-0.1-0.1v-1.6c0-0.1,0.1-0.1,0.1-0.1h37.9c0.1,0,0.1,0.1,0.1,0.1v1.6
				C-214.4,406.5-214.4,406.6-214.5,406.6z M-252.3,406.3h37.7V405h-37.7V406.3z"/>
		</g>
		<g>
			<polygon class="st4" points="-213.3,406.4 -213.3,408.1 -253.6,408.1 -253.6,406.4 			"/>
			<path class="st3" d="M-213.3,408.2h-40.3c-0.1,0-0.1-0.1-0.1-0.1v-1.7c0-0.1,0.1-0.1,0.1-0.1h40.3c0.1,0,0.1,0.1,0.1,0.1v1.7
				C-213.2,408.2-213.3,408.2-213.3,408.2z M-253.5,408h40v-1.4h-40V408z"/>
		</g>
		<g>
			<path class="st3" d="M-234.1,400.8h-14.4c-0.1,0-0.1-0.1-0.1-0.1s0.1-0.1,0.1-0.1h14.4c0.1,0,0.1,0.1,0.1,0.1
				S-234,400.8-234.1,400.8z"/>
		</g>
		<g>
			<path class="st4" d="M-242.7,396.5c0-0.4,0-4.2,0-4.4c0-0.2,0-0.3-0.2-0.2c-0.2,0.1-0.4,0.3-0.5,0.5c-0.1,0.2-0.4,0.1-0.4,0
				c0-0.6,0.4-0.4,0.4-1c0-0.2-0.2-0.1-0.3,0c-0.2,0.1-0.2-0.1-0.2-0.3c0-0.3,0.2-0.2,0.2-0.6c0-0.2-0.2-0.1-0.3,0
				c-0.1,0.1-0.2,0.1-0.2-0.2c0-0.3,0.3-0.3,0.3-0.6c0-0.2-0.1-0.1-0.2,0c-0.1,0.1-0.3,0.1-0.3,0c0.1-0.5-0.1-1-0.3-1.2
				c-0.2-0.2-0.2-0.3-0.2-0.4s0-0.2-0.1-0.2c-0.1,0-0.1,0.1-0.1,0.2s0,0.3-0.2,0.4c-0.2,0.2-0.5,0.7-0.3,1.2c0,0.1-0.2,0.2-0.3,0
				c-0.1-0.1-0.2-0.2-0.2,0c0,0.3,0.3,0.3,0.3,0.6c0,0.3-0.1,0.3-0.2,0.2c-0.1-0.1-0.3-0.2-0.3,0c0,0.4,0.2,0.3,0.2,0.6
				c0,0.2,0,0.4-0.2,0.3c-0.2-0.1-0.3-0.2-0.3,0c0,0.5,0.4,0.4,0.4,1c0,0.2-0.3,0.2-0.4,0c-0.1-0.2-0.3-0.4-0.5-0.5
				c-0.2-0.1-0.2,0-0.2,0.2c0,0.2,0,4,0,4.4H-242.7L-242.7,396.5z"/>
			<path class="st3" d="M-242.7,396.6h-4.9c-0.1,0-0.1-0.1-0.1-0.1v-4.4c0-0.1,0-0.2,0.1-0.3c0.1-0.1,0.2,0,0.3,0
				c0.3,0.1,0.4,0.4,0.5,0.6c0,0.1,0.1,0.1,0.1,0.1c0,0,0,0,0,0c0-0.3-0.1-0.4-0.2-0.4c-0.1-0.1-0.2-0.2-0.2-0.5
				c0-0.1,0.1-0.2,0.1-0.2c0.1-0.1,0.3,0,0.4,0.1c0,0,0-0.1,0-0.2c0-0.1,0-0.1-0.1-0.2c-0.1-0.1-0.2-0.2-0.2-0.4
				c0-0.2,0.1-0.2,0.1-0.2c0.1-0.1,0.3,0.1,0.4,0.2c0,0,0-0.1,0-0.1c0-0.1,0-0.1-0.1-0.2c-0.1-0.1-0.2-0.2-0.2-0.4
				c0-0.2,0.1-0.2,0.1-0.2c0.1,0,0.2,0,0.3,0.2c0,0,0,0,0.1,0c-0.1-0.5,0.2-1.1,0.4-1.3c0.2-0.1,0.2-0.2,0.2-0.3
				c0-0.1,0-0.4,0.2-0.4c0.2,0,0.2,0.3,0.2,0.4c0,0.1,0,0.2,0.2,0.3c0.2,0.2,0.5,0.7,0.4,1.3c0,0,0,0,0.1,0c0.1-0.1,0.2-0.2,0.3-0.2
				c0,0,0.1,0.1,0.1,0.2c0,0.2-0.1,0.3-0.2,0.4c-0.1,0.1-0.1,0.1-0.1,0.2c0,0,0,0.1,0,0.1c0.1-0.1,0.3-0.2,0.4-0.2
				c0,0,0.1,0.1,0.1,0.2c0,0.3-0.1,0.4-0.2,0.4c0,0.1-0.1,0.1-0.1,0.2c0,0,0,0.1,0,0.2c0.1-0.1,0.3-0.2,0.4-0.1
				c0.1,0,0.1,0.1,0.1,0.2c0,0.3-0.1,0.4-0.2,0.5c-0.1,0.1-0.2,0.2-0.2,0.4c0,0,0,0,0,0c0,0,0.1,0,0.1-0.1c0.1-0.2,0.3-0.5,0.5-0.6
				c0,0,0.2-0.1,0.3,0c0.1,0.1,0.1,0.2,0.1,0.3v4.4C-242.6,396.6-242.6,396.6-242.7,396.6z M-247.4,396.4h4.6v-4.2
				c0-0.1,0-0.1,0-0.1c0,0,0,0,0,0c-0.1,0-0.3,0.2-0.4,0.4c-0.1,0.2-0.2,0.2-0.4,0.2c-0.1,0-0.2-0.1-0.2-0.3c0-0.4,0.1-0.5,0.2-0.6
				c0.1-0.1,0.1-0.1,0.1-0.3c0,0-0.1,0-0.1,0.1c-0.1,0.1-0.2,0.1-0.2,0c-0.1-0.1-0.1-0.2-0.1-0.5c0-0.2,0.1-0.3,0.1-0.3
				c0.1-0.1,0.1-0.1,0.1-0.3c0,0-0.1,0-0.1,0.1c-0.1,0.1-0.2,0.1-0.3,0.1c-0.1-0.1-0.2-0.2-0.2-0.4c0-0.2,0.1-0.3,0.2-0.4
				c0,0,0.1-0.1,0.1-0.1c-0.1,0.1-0.3,0.1-0.4,0.1c-0.1,0-0.1-0.1-0.1-0.3c0.1-0.5-0.2-0.9-0.3-1c-0.2-0.1-0.2-0.3-0.3-0.4
				c0,0.1-0.1,0.3-0.3,0.4c-0.2,0.1-0.4,0.6-0.3,1c0,0.1,0,0.2-0.1,0.3c-0.1,0-0.3,0-0.4-0.1c0,0,0,0,0.1,0.1
				c0.1,0.1,0.2,0.2,0.2,0.4c0,0.1,0,0.3-0.2,0.4c-0.1,0-0.2,0-0.3-0.1c0,0-0.1-0.1-0.1-0.1c0,0.2,0,0.2,0.1,0.3
				c0.1,0.1,0.1,0.2,0.1,0.3c0,0.2,0,0.4-0.1,0.5c-0.1,0-0.1,0-0.2,0c-0.1,0-0.1-0.1-0.1-0.1c0,0.2,0.1,0.3,0.1,0.3
				c0.1,0.1,0.2,0.2,0.2,0.6c0,0.1-0.1,0.2-0.2,0.3c-0.2,0-0.3,0-0.4-0.2c-0.1-0.3-0.3-0.4-0.4-0.4c0,0,0,0,0,0c0,0,0,0,0,0.1V396.4
				z"/>
		</g>
		<g>
			<polygon class="st4" points="-244.4,396.9 -244.4,401.6 -245.8,401.6 -245.8,396.9 			"/>
			<path class="st3" d="M-244.4,401.7h-1.4c-0.1,0-0.1-0.1-0.1-0.1v-4.7c0-0.1,0.1-0.1,0.1-0.1h1.4c0.1,0,0.1,0.1,0.1,0.1v4.7
				C-244.3,401.6-244.4,401.7-244.4,401.7z M-245.7,401.4h1.1V397h-1.1V401.4z"/>
		</g>
		<g>
			<polygon class="st4" points="-243.9,408.1 -243.9,401.6 -246.4,401.6 -246.4,408.1 			"/>
			<path class="st3" d="M-243.9,408.2h-2.5c-0.1,0-0.1-0.1-0.1-0.1v-6.5c0-0.1,0.1-0.1,0.1-0.1h2.5c0.1,0,0.1,0.1,0.1,0.1v6.5
				C-243.8,408.2-243.8,408.2-243.9,408.2z M-246.2,408h2.2v-6.3h-2.2V408z"/>
		</g>
		<g>
			<polygon class="st4" points="-244.4,408.1 -244.4,401.6 -245.8,401.6 -245.8,408.1 			"/>
			<path class="st3" d="M-244.4,408.2h-1.4c-0.1,0-0.1-0.1-0.1-0.1v-6.5c0-0.1,0.1-0.1,0.1-0.1h1.4c0.1,0,0.1,0.1,0.1,0.1v6.5
				C-244.3,408.2-244.4,408.2-244.4,408.2z M-245.7,408h1.1v-6.3h-1.1V408z"/>
		</g>
		<g>
			<path class="st3" d="M-242.6,401.7c-0.7,0-0.9-0.5-0.9-1v-3.5c0-0.5,0.4-0.8,0.8-0.8c0.1,0,0.1,0,0.1,0.1c0,0.1,0,0.1-0.1,0.1
				c-0.2,0-0.6,0.2-0.6,0.6v3.5c0,0.3,0.1,0.7,0.7,0.7c0.1,0,0.1,0.1,0.1,0.1S-242.5,401.7-242.6,401.7z M-243.4,401.7
				c-0.6,0-0.8-0.7-0.8-1v-3c0-0.5,0.2-0.7,0.5-1c0.1,0,0.1,0,0.2,0c0,0.1,0,0.1,0,0.2c-0.3,0.2-0.4,0.4-0.4,0.8v3
				c0,0.1,0.2,0.7,0.6,0.7c0.1,0,0.1,0.1,0.1,0.1S-243.3,401.7-243.4,401.7z M-246.9,401.7c-0.1,0-0.1-0.1-0.1-0.1s0.1-0.1,0.1-0.1
				c0.4,0,0.6-0.6,0.6-0.7v-3c0-0.4-0.1-0.5-0.4-0.8c-0.1,0-0.1-0.1,0-0.2c0-0.1,0.1-0.1,0.2,0c0.3,0.3,0.5,0.5,0.5,1v3
				C-246,401-246.3,401.7-246.9,401.7z M-247.6,401.7c-0.1,0-0.1-0.1-0.1-0.1s0.1-0.1,0.1-0.1c0.6,0,0.7-0.5,0.7-0.7v-3.5
				c0-0.4-0.4-0.6-0.6-0.6l-0.6,0c0.1,0.1,0.1,0.3,0.1,0.6v3.6c0,0.4-0.3,1-0.8,1c-0.1,0-0.1-0.1-0.1-0.1s0.1-0.1,0.1-0.1
				c0.4,0,0.6-0.5,0.6-0.7v-3.6c0-0.4-0.1-0.6-0.3-0.6c-0.1,0-0.1-0.1-0.1-0.1v-2c0-0.1,0.1-0.1,0.1-0.1s0.1,0.1,0.1,0.1v1.9h0.9
				c0.4,0.1,0.8,0.4,0.8,0.8v3.5C-246.7,401.2-247,401.7-247.6,401.7z"/>
		</g>
		<g>
			<path class="st4" d="M-247.5,396.5c0-0.5-0.5-1.3-1.1-1.3v-2.3h0.4v2c0.1,0,0.1,0.1,0.1,0.1v-1.2h0.5V396.5L-247.5,396.5z"/>
			<path class="st3" d="M-247.5,396.6c-0.1,0-0.1-0.1-0.1-0.1c0-0.5-0.5-1.1-0.9-1.1c-0.1,0-0.1-0.1-0.1-0.1v-2.3
				c0-0.1,0.1-0.1,0.1-0.1h0.4c0.1,0,0.1,0.1,0.1,0.1v0.8c0,0,0,0,0,0h0.5c0.1,0,0.1,0.1,0.1,0.1v2.6
				C-247.4,396.6-247.5,396.6-247.5,396.6z M-248.5,395.1c0.3,0.1,0.6,0.3,0.8,0.6V394h-0.2v1c0,0.1,0,0.1-0.1,0.1
				c-0.1,0-0.1,0-0.1-0.1c0,0,0,0-0.1-0.1c-0.1,0-0.1-0.1-0.1-0.1v-1.9h-0.2V395.1z"/>
		</g>
		<g>
			<polygon class="st4" points="-247.5,393.3 -248,393.3 -248,393.7 -247.5,393.7 			"/>
			<path class="st3" d="M-247.5,393.8h-0.5c-0.1,0-0.1-0.1-0.1-0.1v-0.4c0-0.1,0.1-0.1,0.1-0.1h0.5c0.1,0,0.1,0.1,0.1,0.1v0.4
				C-247.4,393.8-247.5,393.8-247.5,393.8z"/>
		</g>
		<g>
			<path class="st3" d="M-241.6,396.6h-1.1c-0.1,0-0.1-0.1-0.1-0.1c0-0.9,0.6-1.3,1.1-1.4v-0.7c0-0.1,0.1-0.1,0.1-0.1
				s0.1,0.1,0.1,0.1v2C-241.5,396.6-241.6,396.6-241.6,396.6z M-242.6,396.4h0.8v-1C-242.1,395.4-242.5,395.7-242.6,396.4z"/>
		</g>
		<g>
			<path class="st4" d="M-241.9,394.1v1.1c0.1,0,0.2-0.1,0.3-0.1v-1.1H-241.9L-241.9,394.1z"/>
			<path class="st3" d="M-241.9,395.4C-241.9,395.4-242,395.4-241.9,395.4c-0.1,0-0.1-0.1-0.1-0.1v-1.1c0-0.1,0.1-0.1,0.1-0.1h0.3
				c0.1,0,0.1,0.1,0.1,0.1v1.1c0,0.1-0.1,0.1-0.1,0.1C-241.7,395.4-241.8,395.4-241.9,395.4C-241.9,395.4-241.9,395.4-241.9,395.4z
				 M-241.8,394.3v0.9c0,0,0,0,0,0L-241.8,394.3L-241.8,394.3z"/>
		</g>
		<g>
			<path class="st3" d="M-241.1,401.7c-0.6,0-0.9-0.6-0.9-1v-3.6c0-0.2,0-0.4,0.4-0.4h4.4c0.1,0,0.1,0.1,0.1,0.1s-0.1,0.1-0.1,0.1
				h-4.4c-0.2,0-0.2,0-0.2,0.1v0.5h4.6c0.1,0,0.1,0.1,0.1,0.1s-0.1,0.1-0.1,0.1h-4.6v0.3h0.2c0.1,0,0.2,0.1,0.2,0.2v2.4
				c0,0.1-0.1,0.1-0.1,0.1s-0.1-0.1-0.1-0.1v-2.4h-0.2v2.4c0,0.3,0.2,0.7,0.7,0.7c0.1,0,0.1,0.1,0.1,0.1S-241.1,401.7-241.1,401.7z
				 M-237.5,400.8c-0.1,0-0.1-0.1-0.1-0.1v-2.4c0-0.1,0.1-0.2,0.2-0.2h0.3c0.1,0,0.1,0.1,0.1,0.1s-0.1,0.1-0.1,0.1h-0.2v2.4
				C-237.4,400.8-237.5,400.8-237.5,400.8z M-238.2,400.8c-0.1,0-0.1-0.1-0.1-0.1v-2.4h-0.3v2.4c0,0.1-0.1,0.1-0.1,0.1
				s-0.1-0.1-0.1-0.1v-2.4c0-0.1,0.1-0.2,0.2-0.2h0.4c0.1,0,0.2,0.1,0.2,0.2v2.4C-238,400.8-238.1,400.8-238.2,400.8z M-239.3,400.8
				c-0.1,0-0.1-0.1-0.1-0.1v-2.4h-0.3v2.4c0,0.1-0.1,0.1-0.1,0.1s-0.1-0.1-0.1-0.1v-2.4c0-0.1,0.1-0.2,0.2-0.2h0.4
				c0.1,0,0.2,0.1,0.2,0.2v2.4C-239.1,400.8-239.2,400.8-239.3,400.8z M-240.4,400.8c-0.1,0-0.1-0.1-0.1-0.1v-2.4h-0.3v2.4
				c0,0.1-0.1,0.1-0.1,0.1s-0.1-0.1-0.1-0.1v-2.4c0-0.1,0.1-0.2,0.2-0.2h0.4c0.1,0,0.2,0.1,0.2,0.2v2.4
				C-240.3,400.8-240.3,400.8-240.4,400.8z M-242.4,400.8c-0.1,0-0.1-0.1-0.1-0.1v-2.4h-0.3v2.4c0,0.1-0.1,0.1-0.1,0.1
				s-0.1-0.1-0.1-0.1v-2.4c0-0.1,0.1-0.2,0.2-0.2h0.4c0.1,0,0.2,0.1,0.2,0.2v2.4C-242.3,400.8-242.3,400.8-242.4,400.8z
				 M-247.2,400.8c-0.1,0-0.1-0.1-0.1-0.1v-2.4h-0.3v2.4c0,0.1-0.1,0.1-0.1,0.1s-0.1-0.1-0.1-0.1v-2.4c0-0.1,0.1-0.2,0.2-0.2h0.4
				c0.1,0,0.2,0.1,0.2,0.2v2.4C-247,400.8-247.1,400.8-247.2,400.8z M-237.7,396.6h-3.9c-0.1,0-0.1-0.1-0.1-0.1s0.1-0.1,0.1-0.1h3.9
				c0.1,0,0.1,0.1,0.1,0.1S-237.6,396.6-237.7,396.6z M-238.7,396.2h-2.9c-0.1,0-0.1-0.1-0.1-0.1s0.1-0.1,0.1-0.1h2.9
				c0.1,0,0.1,0.1,0.1,0.1S-238.6,396.2-238.7,396.2z M-237.7,395.7h-3.9c-0.1,0-0.1-0.1-0.1-0.1s0.1-0.1,0.1-0.1h3.9
				c0.1,0,0.1,0.1,0.1,0.1S-237.6,395.7-237.7,395.7z M-237.7,394.8h-3.9c-0.1,0-0.1-0.1-0.1-0.1s0.1-0.1,0.1-0.1h3.9
				c0.1,0,0.1,0.1,0.1,0.1S-237.6,394.8-237.7,394.8z"/>
		</g>
		<g>
			<path class="st3" d="M-218.4,400.8h-14.4c-0.1,0-0.1-0.1-0.1-0.1s0.1-0.1,0.1-0.1h14.4c0.1,0,0.1,0.1,0.1,0.1
				S-218.4,400.8-218.4,400.8z"/>
		</g>
		<g>
			<path class="st4" d="M-224.3,396.5c0-0.4,0-4.2,0-4.4c0-0.2,0-0.3,0.2-0.2c0.2,0.1,0.4,0.3,0.5,0.5c0.1,0.2,0.4,0.1,0.4,0
				c0-0.6-0.4-0.4-0.4-1c0-0.2,0.2-0.1,0.3,0c0.2,0.1,0.2-0.1,0.2-0.3c0-0.3-0.2-0.2-0.2-0.6c0-0.2,0.2-0.1,0.3,0
				c0.1,0.1,0.2,0.1,0.2-0.2c0-0.3-0.3-0.3-0.3-0.6c0-0.2,0.1-0.1,0.2,0c0.1,0.1,0.3,0.1,0.3,0c-0.1-0.5,0.1-1,0.3-1.2
				s0.2-0.3,0.2-0.4s0-0.2,0.1-0.2c0.1,0,0.1,0.1,0.1,0.2s0,0.3,0.2,0.4c0.2,0.2,0.5,0.7,0.3,1.2c0,0.1,0.2,0.2,0.3,0s0.2-0.2,0.2,0
				c0,0.3-0.3,0.3-0.3,0.6c0,0.3,0.1,0.3,0.2,0.2c0.1-0.1,0.3-0.2,0.3,0c0,0.4-0.2,0.3-0.2,0.6c0,0.2,0,0.4,0.2,0.3
				c0.2-0.1,0.3-0.2,0.3,0c0,0.5-0.4,0.4-0.4,1c0,0.2,0.3,0.2,0.4,0c0.1-0.2,0.3-0.4,0.5-0.5c0.2-0.1,0.2,0,0.2,0.2c0,0.2,0,4,0,4.4
				H-224.3L-224.3,396.5z"/>
			<path class="st3" d="M-219.4,396.6h-4.9c-0.1,0-0.1-0.1-0.1-0.1v-4.4c0-0.1,0-0.2,0.1-0.3c0.1-0.1,0.2,0,0.3,0
				c0.3,0.1,0.4,0.4,0.5,0.6c0,0.1,0.1,0.1,0.1,0.1c0,0,0,0,0,0c0-0.3-0.1-0.4-0.2-0.4c-0.1-0.1-0.2-0.2-0.2-0.5
				c0-0.1,0.1-0.2,0.1-0.2c0.1-0.1,0.3,0,0.4,0.1c0,0,0-0.1,0-0.2c0-0.1,0-0.1-0.1-0.2c-0.1-0.1-0.2-0.2-0.2-0.4
				c0-0.2,0.1-0.2,0.1-0.2c0.2-0.1,0.3,0.1,0.4,0.2c0,0,0-0.1,0-0.1c0-0.1,0-0.1-0.1-0.2c-0.1-0.1-0.2-0.2-0.2-0.4
				c0-0.2,0.1-0.2,0.1-0.2c0.1,0,0.2,0,0.3,0.2c0,0,0,0,0.1,0c-0.1-0.5,0.2-1.1,0.4-1.3c0.2-0.1,0.2-0.2,0.2-0.3
				c0-0.1,0-0.4,0.2-0.4c0.2,0,0.2,0.3,0.2,0.4c0,0.1,0,0.2,0.2,0.3c0.2,0.2,0.5,0.7,0.4,1.3c0,0,0,0,0.1,0c0.1-0.1,0.2-0.2,0.3-0.2
				c0,0,0.1,0.1,0.1,0.2c0,0.2-0.1,0.3-0.2,0.4c-0.1,0.1-0.1,0.1-0.1,0.2c0,0,0,0.1,0,0.1c0.1-0.1,0.3-0.2,0.4-0.2
				c0,0,0.1,0.1,0.1,0.2c0,0.3-0.1,0.4-0.2,0.4c0,0.1-0.1,0.1-0.1,0.2c0,0.1,0,0.2,0,0.2c0.1-0.1,0.3-0.2,0.4-0.1
				c0.1,0,0.1,0.1,0.1,0.2c0,0.3-0.1,0.4-0.2,0.5c-0.1,0.1-0.2,0.2-0.2,0.4c0,0,0,0,0,0c0,0,0.1,0,0.1-0.1c0.1-0.2,0.3-0.5,0.5-0.6
				c0,0,0.2-0.1,0.3,0c0.1,0.1,0.1,0.2,0.1,0.3v4.4C-219.3,396.6-219.3,396.6-219.4,396.6z M-224.1,396.4h4.6v-4.2
				c0-0.1,0-0.1,0-0.1c0,0,0,0,0,0c-0.1,0-0.3,0.2-0.4,0.4c-0.1,0.2-0.2,0.2-0.4,0.2c-0.1,0-0.2-0.1-0.2-0.3c0-0.4,0.1-0.5,0.2-0.6
				c0.1-0.1,0.1-0.1,0.1-0.3c0,0-0.1,0-0.1,0.1c-0.1,0.1-0.2,0.1-0.2,0c-0.1-0.1-0.1-0.3-0.1-0.5c0-0.2,0.1-0.3,0.1-0.3
				c0.1-0.1,0.1-0.1,0.1-0.3c0,0-0.1,0-0.1,0.1c-0.1,0.1-0.2,0.1-0.3,0.1c-0.1-0.1-0.2-0.2-0.2-0.4c0-0.2,0.1-0.3,0.2-0.4
				c0,0,0.1-0.1,0.1-0.1c-0.1,0.1-0.3,0.1-0.4,0.1c-0.1,0-0.1-0.1-0.1-0.3c0.1-0.5-0.1-0.9-0.3-1c-0.2-0.1-0.2-0.3-0.3-0.4
				c0,0.1-0.1,0.3-0.3,0.4c-0.2,0.1-0.4,0.6-0.3,1c0,0.1,0,0.2-0.1,0.3c-0.1,0-0.3,0-0.4-0.1c0,0,0,0,0.1,0.1
				c0.1,0.1,0.2,0.2,0.2,0.4c0,0.1,0,0.3-0.2,0.4c-0.1,0-0.2,0-0.3-0.1c0,0-0.1-0.1-0.1-0.1c0,0.2,0,0.2,0.1,0.3
				c0.1,0.1,0.1,0.2,0.1,0.3c0,0.2,0,0.4-0.1,0.5c0,0-0.1,0-0.2,0c-0.1,0-0.1-0.1-0.1-0.1c0,0.2,0.1,0.3,0.1,0.3
				c0.1,0.1,0.2,0.2,0.2,0.6c0,0.1-0.1,0.2-0.2,0.3c-0.2,0-0.3,0-0.4-0.2c-0.1-0.3-0.3-0.4-0.4-0.4c0,0,0,0,0,0c0,0,0,0,0,0.1V396.4
				z"/>
		</g>
		<g>
			<polygon class="st4" points="-222.5,396.9 -222.5,401.6 -221.1,401.6 -221.1,396.9 			"/>
			<path class="st3" d="M-221.1,401.7h-1.4c-0.1,0-0.1-0.1-0.1-0.1v-4.7c0-0.1,0.1-0.1,0.1-0.1h1.4c0.1,0,0.1,0.1,0.1,0.1v4.7
				C-221,401.6-221.1,401.7-221.1,401.7z M-222.4,401.4h1.1V397h-1.1V401.4z"/>
		</g>
		<g>
			<polygon class="st4" points="-223.1,408.1 -223.1,401.6 -220.6,401.6 -220.6,408.1 			"/>
			<path class="st3" d="M-220.6,408.2h-2.5c-0.1,0-0.1-0.1-0.1-0.1v-6.5c0-0.1,0.1-0.1,0.1-0.1h2.5c0.1,0,0.1,0.1,0.1,0.1v6.5
				C-220.5,408.2-220.5,408.2-220.6,408.2z M-222.9,408h2.2v-6.3h-2.2V408z"/>
		</g>
		<g>
			<polygon class="st4" points="-222.5,408.1 -222.5,401.6 -221.1,401.6 -221.1,408.1 			"/>
			<path class="st3" d="M-221.1,408.2h-1.4c-0.1,0-0.1-0.1-0.1-0.1v-6.5c0-0.1,0.1-0.1,0.1-0.1h1.4c0.1,0,0.1,0.1,0.1,0.1v6.5
				C-221,408.2-221.1,408.2-221.1,408.2z M-222.4,408h1.1v-6.3h-1.1V408z"/>
		</g>
		<g>
			<path class="st3" d="M-218,401.7c-0.6,0-0.8-0.6-0.8-1v-3.6c0-0.2,0-0.4,0.1-0.6h-0.7c-0.2,0-0.6,0.2-0.6,0.6v3.5
				c0,0.3,0.1,0.7,0.7,0.7c0.1,0,0.1,0.1,0.1,0.1s-0.1,0.1-0.1,0.1c-0.7,0-0.9-0.5-0.9-1v-3.5c0-0.5,0.4-0.8,0.8-0.8l1,0v-1.9
				c0-0.1,0.1-0.1,0.1-0.1s0.1,0.1,0.1,0.1v2c0,0.1-0.1,0.1-0.1,0.1c-0.1,0-0.3,0.2-0.3,0.6v3.6c0,0.2,0.2,0.7,0.6,0.7
				c0.1,0,0.1,0.1,0.1,0.1S-218,401.7-218,401.7z M-220.1,401.7c-0.6,0-0.8-0.7-0.8-1v-3c0-0.5,0.2-0.7,0.5-1c0.1,0,0.1,0,0.2,0
				c0,0.1,0,0.1,0,0.2c-0.3,0.2-0.4,0.4-0.4,0.8v3c0,0.1,0.2,0.7,0.6,0.7c0.1,0,0.1,0.1,0.1,0.1S-220,401.7-220.1,401.7z
				 M-223.6,401.7c-0.1,0-0.1-0.1-0.1-0.1s0.1-0.1,0.1-0.1c0.4,0,0.6-0.6,0.6-0.7v-3c0-0.4-0.1-0.5-0.4-0.8c-0.1,0-0.1-0.1,0-0.2
				c0-0.1,0.1-0.1,0.2,0c0.3,0.3,0.5,0.5,0.5,1v3C-222.7,401-223,401.7-223.6,401.7z M-224.4,401.7c-0.1,0-0.1-0.1-0.1-0.1
				s0.1-0.1,0.1-0.1c0.6,0,0.7-0.5,0.7-0.7v-3.5c0-0.4-0.4-0.6-0.6-0.6c-0.1,0-0.1-0.1-0.1-0.1c0-0.1,0.1-0.1,0.1-0.1
				c0.4,0.1,0.8,0.4,0.8,0.8v3.5C-223.4,401.2-223.7,401.7-224.4,401.7z"/>
		</g>
		<g>
			<path class="st4" d="M-219.4,396.5c0-0.5,0.5-1.3,1.1-1.3v-2.3h-0.4v2c-0.1,0-0.1,0.1-0.1,0.1v-1.2h-0.5L-219.4,396.5
				L-219.4,396.5z"/>
			<path class="st3" d="M-219.4,396.6c-0.1,0-0.1-0.1-0.1-0.1v-2.6c0-0.1,0.1-0.1,0.1-0.1h0.5c0,0,0,0,0,0v-0.8
				c0-0.1,0.1-0.1,0.1-0.1h0.4c0.1,0,0.1,0.1,0.1,0.1v2.3c0,0.1-0.1,0.1-0.1,0.1c-0.5,0-0.9,0.7-0.9,1.1
				C-219.3,396.6-219.3,396.6-219.4,396.6z M-219.3,394v1.7c0.2-0.3,0.5-0.6,0.8-0.6v-2h-0.2v1.9c0,0.1,0,0.1-0.1,0.1
				c0,0,0,0-0.1,0.1c0,0-0.1,0.1-0.1,0.1c-0.1,0-0.1-0.1-0.1-0.1v-1H-219.3z"/>
		</g>
		<g>
			<polygon class="st4" points="-219.4,393.3 -218.9,393.3 -218.9,393.7 -219.4,393.7 			"/>
			<path class="st3" d="M-218.9,393.8h-0.5c-0.1,0-0.1-0.1-0.1-0.1v-0.4c0-0.1,0.1-0.1,0.1-0.1h0.5c0.1,0,0.1,0.1,0.1,0.1v0.4
				C-218.8,393.8-218.9,393.8-218.9,393.8z"/>
		</g>
		<g>
			<path class="st3" d="M-224.3,396.6h-1.1c-0.1,0-0.1-0.1-0.1-0.1v-2c0-0.1,0.1-0.1,0.1-0.1s0.1,0.1,0.1,0.1v0.7
				c0.4,0.1,1.1,0.5,1.1,1.4C-224.1,396.6-224.2,396.6-224.3,396.6z M-225.2,396.4h0.8c-0.1-0.6-0.5-0.9-0.8-1V396.4z"/>
		</g>
		<g>
			<path class="st4" d="M-225,394.1v1.1c-0.1,0-0.2-0.1-0.3-0.1v-1.1H-225L-225,394.1z"/>
			<path class="st3" d="M-225,395.4C-225,395.4-225.1,395.4-225,395.4c-0.1,0-0.2-0.1-0.3-0.1c-0.1,0-0.1-0.1-0.1-0.1v-1.1
				c0-0.1,0.1-0.1,0.1-0.1h0.3c0.1,0,0.1,0.1,0.1,0.1v1.1C-224.9,395.3-224.9,395.4-225,395.4C-225,395.4-225,395.4-225,395.4z"/>
		</g>
		<g>
			<path class="st3" d="M-225.8,401.7c-0.1,0-0.1-0.1-0.1-0.1s0.1-0.1,0.1-0.1c0.4,0,0.7-0.5,0.7-0.7v-2.4h-0.2v2.4
				c0,0.1-0.1,0.1-0.1,0.1s-0.1-0.1-0.1-0.1v-2.4c0-0.1,0.1-0.2,0.2-0.2h0.2v-0.3h-4.6c-0.1,0-0.1-0.1-0.1-0.1s0.1-0.1,0.1-0.1h4.6
				v-0.5c0-0.1,0-0.1-0.2-0.1h-4.4c-0.1,0-0.1-0.1-0.1-0.1s0.1-0.1,0.1-0.1h4.4c0.4,0,0.4,0.2,0.4,0.4v3.6
				C-224.9,401.1-225.2,401.7-225.8,401.7z M-219.3,400.8c-0.1,0-0.1-0.1-0.1-0.1v-2.4h-0.3v2.4c0,0.1-0.1,0.1-0.1,0.1
				s-0.1-0.1-0.1-0.1v-2.4c0-0.1,0.1-0.2,0.2-0.2h0.4c0.1,0,0.2,0.1,0.2,0.2v2.4C-219.1,400.8-219.2,400.8-219.3,400.8z M-224,400.8
				c-0.1,0-0.1-0.1-0.1-0.1v-2.4h-0.3v2.4c0,0.1-0.1,0.1-0.1,0.1s-0.1-0.1-0.1-0.1v-2.4c0-0.1,0.1-0.2,0.2-0.2h0.4
				c0.1,0,0.2,0.1,0.2,0.2v2.4C-223.9,400.8-223.9,400.8-224,400.8z M-226,400.8c-0.1,0-0.1-0.1-0.1-0.1v-2.4h-0.3v2.4
				c0,0.1-0.1,0.1-0.1,0.1s-0.1-0.1-0.1-0.1v-2.4c0-0.1,0.1-0.2,0.2-0.2h0.4c0.1,0,0.2,0.1,0.2,0.2v2.4
				C-225.9,400.8-226,400.8-226,400.8z M-227.2,400.8c-0.1,0-0.1-0.1-0.1-0.1v-2.4h-0.3v2.4c0,0.1-0.1,0.1-0.1,0.1s-0.1-0.1-0.1-0.1
				v-2.4c0-0.1,0.1-0.2,0.2-0.2h0.4c0.1,0,0.2,0.1,0.2,0.2v2.4C-227,400.8-227.1,400.8-227.2,400.8z M-228.3,400.8
				c-0.1,0-0.1-0.1-0.1-0.1v-2.4h-0.3v2.4c0,0.1-0.1,0.1-0.1,0.1s-0.1-0.1-0.1-0.1v-2.4c0-0.1,0.1-0.2,0.2-0.2h0.4
				c0.1,0,0.2,0.1,0.2,0.2v2.4C-228.2,400.8-228.2,400.8-228.3,400.8z M-229.4,400.8c-0.1,0-0.1-0.1-0.1-0.1v-2.4h-0.2
				c-0.1,0-0.1-0.1-0.1-0.1s0.1-0.1,0.1-0.1h0.3c0.1,0,0.2,0.1,0.2,0.2v2.4C-229.3,400.8-229.3,400.8-229.4,400.8z M-225.3,396.6
				h-3.9c-0.1,0-0.1-0.1-0.1-0.1s0.1-0.1,0.1-0.1h3.9c0.1,0,0.1,0.1,0.1,0.1S-225.2,396.6-225.3,396.6z M-226.3,396.2h-2.9
				c-0.1,0-0.1-0.1-0.1-0.1s0.1-0.1,0.1-0.1h2.9c0.1,0,0.1,0.1,0.1,0.1S-226.2,396.2-226.3,396.2z M-225.3,395.7h-3.9
				c-0.1,0-0.1-0.1-0.1-0.1s0.1-0.1,0.1-0.1h3.9c0.1,0,0.1,0.1,0.1,0.1S-225.2,395.7-225.3,395.7z M-225.3,394.8h-3.9
				c-0.1,0-0.1-0.1-0.1-0.1s0.1-0.1,0.1-0.1h3.9c0.1,0,0.1,0.1,0.1,0.1S-225.2,394.8-225.3,394.8z"/>
		</g>
		<g>
			<path class="st4" d="M-229.2,396.5v-4.1c0,0.1-0.5,0.3-0.5,0.5h-0.7c0-0.2,0-0.3,0-0.5c0.1,0,0.3-0.1,0.3-0.2c0-0.1,0-0.1-0.1,0
				c0,0-0.3,0.2-0.4,0.1c0,0,0,0,0.1-0.1c0.1-0.1,0.4-0.2,0.4-0.3c0.1-0.1-0.1-0.3-0.2-0.2c-0.1,0.1-0.2,0.2-0.3,0.2
				c-0.1,0.1-0.2,0.1-0.2,0c-0.1-0.1-0.2-0.3-0.4-0.3h-4.6c-0.2,0-0.3,0.1-0.4,0.3c0,0.1-0.1,0-0.2,0c-0.1-0.1-0.2-0.2-0.3-0.2
				c-0.1-0.1-0.2,0.2-0.2,0.2c0.1,0,0.3,0.2,0.4,0.3c0.1,0.1,0.1,0.1,0.1,0.1c0,0.1-0.3,0-0.4-0.1c0,0-0.1,0-0.1,0
				c0,0.1,0.2,0.2,0.3,0.2c0,0.2,0,0.3,0,0.5h-0.7c0-0.2-0.5-0.5-0.5-0.5v4.1H-229.2L-229.2,396.5z"/>
			<path class="st3" d="M-229.2,396.7h-8.5c-0.1,0-0.1-0.1-0.1-0.1v-4.1c0-0.1,0.1-0.1,0.1-0.1c0.1,0,0.1,0,0.1,0.1
				c0,0,0.1,0.1,0.1,0.1c0.1,0.1,0.3,0.2,0.3,0.4h0.5v-0.3c-0.2-0.1-0.3-0.2-0.3-0.3c0-0.1,0-0.1,0.1-0.2c0,0,0.1,0,0.1,0
				c-0.1,0-0.1-0.1-0.2-0.1c-0.1-0.1-0.1-0.2,0-0.3c0.1-0.1,0.2-0.2,0.3-0.1c0.1,0,0.1,0.1,0.2,0.1l0.1,0.1c0,0,0,0,0,0
				c0.1-0.2,0.3-0.3,0.5-0.3h4.6c0.2,0,0.4,0.1,0.5,0.3c0,0,0,0,0,0l0.3-0.2c0.1-0.1,0.2,0,0.3,0.1c0.1,0.1,0.1,0.3,0,0.3
				c0,0-0.1,0.1-0.2,0.1c0,0,0.1,0,0.1,0c0.1,0,0.1,0.1,0.1,0.2c0,0.1-0.2,0.3-0.3,0.3v0.3h0.5c0.1-0.1,0.2-0.3,0.4-0.4
				c0,0,0.1-0.1,0.1-0.1c0,0,0.1-0.1,0.1-0.1c0.1,0,0.1,0.1,0.1,0.1v4.1C-229.1,396.6-229.2,396.7-229.2,396.7z M-237.6,396.4h8.2
				v-3.7c-0.1,0.1-0.2,0.2-0.2,0.3c0,0.1-0.1,0.1-0.1,0.1h-0.7c-0.1,0-0.1-0.1-0.1-0.1v-0.5c0,0,0,0,0-0.1c0,0,0,0,0,0
				c-0.1,0-0.1,0-0.1-0.1c-0.1-0.1,0-0.2,0.1-0.3c0.1,0,0.3-0.2,0.4-0.3c0,0,0,0,0,0l-0.3,0.2c-0.1,0-0.2,0.1-0.3,0.1
				c0,0-0.1,0-0.1-0.1c0-0.1-0.1-0.2-0.3-0.2h-4.6c-0.1,0-0.2,0.1-0.3,0.2c0,0.1-0.1,0.1-0.1,0.1c-0.1,0-0.2,0-0.3-0.1l-0.1-0.1
				c-0.1,0-0.1-0.1-0.2-0.1c0,0,0,0,0,0c0.1,0.1,0.3,0.2,0.4,0.3c0.1,0.1,0.2,0.1,0.1,0.3c0,0-0.1,0.1-0.1,0.1c0,0,0,0,0,0
				c0,0,0,0,0,0.1v0.5c0,0.1-0.1,0.1-0.1,0.1h-0.7c-0.1,0-0.1-0.1-0.1-0.1c0-0.1-0.1-0.2-0.2-0.2V396.4z"/>
		</g>
		<g>
			<path class="st4" d="M-232.2,385.3c0,0.3-0.1,0.3-0.1,0.5c0,0.2,0.2,0.2,0.3,0c0-0.1,0.2-0.1,0.2,0.2c0,0.2-0.2,0.4-0.2,0.7
				c0,0.2,0.1,0.2,0.2,0c0.1-0.2,0.4-0.4,0.4,0c0,0.1,0.1,0.3-0.1,0.5c-0.2,0.2-0.2,0.3-0.2,0.5c0,0.2,0.1,0.3,0.3,0
				c0.1-0.1,0.4-0.3,0.4,0c0,0.1,0,0.3,0,0.4c0,0.2-0.3,0.3-0.3,0.5c0,0.1,0,0.3,0,0.4c0,0.1,0.1,0.2,0.2,0.1
				c0.1-0.2,0.5-0.4,0.5-0.1c0,0.1,0,0.3,0,0.3c0,0.1,0,0.2-0.2,0.3c-0.2,0.2-0.4,0.4-0.4,0.6s0,0.3,0,0.3c0,0.1,0.1,0.2,0.3-0.1
				c0.1-0.3,0.3-0.1,0.3,0.1s0,0.3-0.2,0.5c-0.2,0.2-0.2,0.3-0.2,0.5c0,0.2,0,0.8,0,1c0,0.2,0.1,0.2-0.1,0.2h-4.4
				c-0.2,0-0.1-0.1-0.1-0.2c0-0.2,0-0.8,0-1c0-0.2,0-0.3-0.2-0.5c-0.2-0.2-0.2-0.3-0.2-0.5s0.2-0.3,0.3-0.1c0.1,0.3,0.3,0.2,0.3,0.1
				c0-0.1,0-0.2,0-0.3s-0.2-0.4-0.4-0.6c-0.2-0.2-0.2-0.2-0.2-0.3c0-0.1,0-0.3,0-0.3c0-0.3,0.4-0.1,0.5,0.1c0.1,0.1,0.2,0,0.2-0.1
				s0-0.3,0-0.4c0-0.2-0.3-0.3-0.3-0.5c0-0.1,0-0.3,0-0.4c0-0.4,0.3-0.1,0.4,0c0.1,0.3,0.3,0.2,0.3,0c0-0.1,0-0.3-0.2-0.5
				c-0.2-0.2-0.1-0.4-0.1-0.5c0-0.4,0.3-0.1,0.4,0c0.1,0.2,0.2,0.2,0.2,0c0-0.3-0.2-0.4-0.2-0.7c0-0.2,0.2-0.2,0.2-0.2
				c0.1,0.1,0.3,0.2,0.3,0c0-0.2-0.1-0.2-0.1-0.5H-232.2L-232.2,385.3z"/>
			<path class="st3" d="M-231.3,392.8h-4.4c-0.1,0-0.2,0-0.2-0.1c-0.1-0.1,0-0.1,0-0.2c0,0,0,0,0-0.1l0-1c0-0.2,0-0.3-0.2-0.4
				c-0.3-0.2-0.2-0.4-0.2-0.5l0-0.1c0-0.2,0.1-0.3,0.2-0.3c0.1,0,0.2,0,0.3,0.2c0,0,0,0,0,0.1v-0.3c0-0.1-0.1-0.3-0.3-0.5
				c-0.2-0.2-0.2-0.3-0.2-0.4l0-0.4c0-0.2,0.1-0.3,0.2-0.3c0.1,0,0.3,0.1,0.4,0.2l0-0.3c0,0,0-0.1-0.1-0.2c-0.1-0.1-0.2-0.2-0.2-0.4
				v-0.4c0-0.2,0.1-0.3,0.2-0.3c0.2,0,0.4,0.1,0.4,0.2c0,0,0,0,0,0v0c0-0.1,0-0.2-0.1-0.3c-0.2-0.2-0.2-0.4-0.2-0.6c0,0,0,0,0-0.1
				c0-0.2,0.1-0.3,0.2-0.3c0.2,0,0.3,0.1,0.4,0.2c0-0.1-0.1-0.1-0.1-0.2c-0.1-0.1-0.1-0.2-0.1-0.3c0-0.3,0.2-0.3,0.2-0.3
				c0.1,0,0.2,0,0.2,0.1c0,0,0,0,0.1,0c0-0.1,0-0.1,0-0.2c0-0.1-0.1-0.2-0.1-0.3c0-0.1,0.1-0.1,0.1-0.1h2.5c0.1,0,0.1,0.1,0.1,0.1
				c0,0.2,0,0.2-0.1,0.3c0,0.1,0,0.1,0,0.2c0,0,0,0,0,0c0-0.1,0.1-0.1,0.2-0.1c0,0,0.2,0.1,0.2,0.3c0,0.1-0.1,0.2-0.1,0.3
				c0,0.1-0.1,0.1-0.1,0.2c0.1-0.1,0.3-0.2,0.4-0.2c0.1,0,0.2,0.1,0.2,0.3c0,0,0,0,0,0.1c0,0.1,0,0.4-0.2,0.5
				c-0.1,0.1-0.1,0.2-0.1,0.3v0c0,0,0,0,0,0c0.1-0.1,0.3-0.3,0.4-0.2c0.1,0,0.2,0.1,0.2,0.3v0.4c0,0.2-0.1,0.3-0.2,0.4
				c-0.1,0.1-0.1,0.1-0.1,0.2v0.3c0.1-0.1,0.3-0.3,0.4-0.2c0,0,0.2,0.1,0.2,0.3v0.3c0,0.1,0,0.2-0.2,0.4c-0.2,0.2-0.3,0.4-0.3,0.5
				v0.3c0,0,0,0,0-0.1c0.1-0.2,0.3-0.2,0.3-0.2c0.1,0,0.2,0.2,0.2,0.3l0,0.1c0,0.2,0,0.3-0.2,0.5c-0.2,0.1-0.2,0.2-0.2,0.4v1
				c0,0,0,0.1,0,0.1c0,0.1,0,0.1,0,0.2C-231.1,392.8-231.2,392.8-231.3,392.8z M-235.7,392.6C-235.7,392.6-235.7,392.6-235.7,392.6
				h4.4c0,0,0,0,0,0c0,0,0,0,0-0.1v-1c0-0.2,0-0.4,0.3-0.6c0.2-0.1,0.2-0.2,0.2-0.3l0-0.1c0,0,0,0,0-0.1c0,0,0,0,0,0.1
				c-0.1,0.2-0.3,0.2-0.3,0.2c-0.1,0-0.2-0.1-0.2-0.2v-0.3c0-0.2,0.2-0.5,0.4-0.7c0.1-0.1,0.1-0.2,0.1-0.2l0-0.4c0,0,0-0.1,0-0.1h0
				c0,0-0.2,0.1-0.2,0.2c-0.1,0.1-0.2,0.1-0.2,0.1c-0.1,0-0.2-0.1-0.2-0.3v-0.4c0-0.2,0.1-0.3,0.2-0.3c0.1-0.1,0.1-0.1,0.1-0.2v-0.4
				c0-0.1,0-0.1,0-0.1c0,0-0.1,0.1-0.1,0.1c-0.1,0.2-0.2,0.3-0.3,0.3c-0.1,0-0.2-0.1-0.2-0.3v0c0-0.1,0-0.3,0.2-0.5
				c0.1-0.1,0.1-0.2,0.1-0.4c0,0,0-0.1,0-0.1c0-0.1,0-0.1,0-0.1c0,0-0.1,0.1-0.2,0.2c-0.1,0.1-0.2,0.2-0.3,0.2
				c-0.1,0-0.2-0.1-0.2-0.3c0-0.2,0.1-0.3,0.2-0.4c0-0.1,0.1-0.2,0.1-0.2c0,0,0,0,0,0c-0.1,0.1-0.2,0.1-0.3,0.1
				c-0.1,0-0.2-0.1-0.2-0.3c0-0.1,0-0.2,0.1-0.3c0,0,0-0.1,0-0.1h-2.3c0,0,0,0.1,0,0.1c0,0.1,0.1,0.1,0.1,0.3c0,0.2-0.1,0.2-0.2,0.3
				c-0.1,0-0.2,0-0.3-0.1c0,0,0,0,0,0c0,0.1,0,0.1,0.1,0.2c0.1,0.1,0.2,0.3,0.2,0.4c0,0.2-0.1,0.3-0.2,0.3c-0.1,0-0.2,0-0.3-0.2
				c0-0.1-0.1-0.1-0.2-0.1c0,0,0,0,0,0.1c0,0,0,0,0,0.1c0,0.1,0,0.3,0.1,0.4c0.2,0.2,0.2,0.4,0.2,0.5v0c0,0.1-0.1,0.3-0.2,0.3
				c-0.1,0-0.2,0-0.3-0.3c0,0-0.1-0.1-0.1-0.1c0,0,0,0,0,0.1v0.4c0,0.1,0,0.1,0.1,0.2c0.1,0.1,0.2,0.2,0.2,0.3v0.4
				c0,0.1-0.1,0.2-0.2,0.3c-0.1,0-0.2,0-0.2-0.1c-0.1-0.1-0.2-0.2-0.2-0.2c0,0,0,0,0,0v0.3c0,0.1,0,0.1,0.1,0.2
				c0.2,0.2,0.4,0.5,0.4,0.7v0.3c0,0.1-0.1,0.2-0.2,0.2c-0.1,0-0.2,0-0.3-0.2c0,0,0-0.1,0-0.1c0,0,0,0,0,0.1l0,0.1
				c0,0.1,0,0.2,0.2,0.3c0.3,0.2,0.3,0.4,0.3,0.6L-235.7,392.6C-235.7,392.5-235.7,392.6-235.7,392.6z"/>
		</g>
		<g>
			<path class="st3" d="M-232.2,386.3h-2.6c-0.1,0-0.1-0.1-0.1-0.1s0.1-0.1,0.1-0.1h2.6c0.1,0,0.1,0.1,0.1,0.1
				S-232.1,386.3-232.2,386.3z"/>
		</g>
		<g>
			<path class="st3" d="M-231.8,387.1h-3.3c-0.1,0-0.1-0.1-0.1-0.1s0.1-0.1,0.1-0.1h3.3c0.1,0,0.1,0.1,0.1,0.1
				S-231.8,387.1-231.8,387.1z"/>
		</g>
		<g>
			<path class="st3" d="M-231.5,388.1h-4c-0.1,0-0.1-0.1-0.1-0.1s0.1-0.1,0.1-0.1h4c0.1,0,0.1,0.1,0.1,0.1S-231.4,388.1-231.5,388.1
				z"/>
		</g>
		<g>
			<path class="st3" d="M-231.3,389.6h-4.4c-0.1,0-0.1-0.1-0.1-0.1s0.1-0.1,0.1-0.1h4.4c0.1,0,0.1,0.1,0.1,0.1
				S-231.2,389.6-231.3,389.6z"/>
		</g>
		<g>
			<path class="st3" d="M-231.4,391.1h-4.2c-0.1,0-0.1-0.1-0.1-0.1s0.1-0.1,0.1-0.1h4.2c0.1,0,0.1,0.1,0.1,0.1
				S-231.3,391.1-231.4,391.1z"/>
		</g>
		<g>
			<polygon class="st4" points="-232.1,395.2 -232.1,396.8 -234.9,396.8 -234.9,395.2 			"/>
			<path class="st3" d="M-232.1,396.9h-2.8c-0.1,0-0.1-0.1-0.1-0.1v-1.6c0-0.1,0.1-0.1,0.1-0.1h2.8c0.1,0,0.1,0.1,0.1,0.1v1.6
				C-232,396.9-232,396.9-232.1,396.9z M-234.7,396.7h2.5v-1.3h-2.5V396.7z"/>
		</g>
		<g>
			<path class="st4" d="M-236.9,391.9c0.1,0.1,0.2-0.2,0.2-0.2S-237,391.8-236.9,391.9L-236.9,391.9z"/>
			<path class="st3" d="M-236.8,392c0,0-0.1,0-0.1,0c-0.1-0.1-0.1-0.2,0-0.3c0.1-0.1,0.2-0.2,0.3-0.1c0.1,0,0.1,0.1,0.1,0.2
				C-236.6,391.8-236.7,391.9-236.8,392C-236.8,392-236.8,392-236.8,392z"/>
		</g>
		<g>
			<path class="st4" d="M-230.1,391.9c-0.1,0.1-0.2-0.2-0.2-0.2S-230,391.8-230.1,391.9L-230.1,391.9z"/>
			<path class="st3" d="M-230.1,392C-230.1,392-230.2,392-230.1,392c-0.2-0.1-0.3-0.2-0.3-0.3c0-0.1,0-0.1,0.1-0.2
				c0.1-0.1,0.2,0,0.3,0.1c0.1,0.1,0.1,0.3,0,0.3C-230,392-230.1,392-230.1,392z"/>
		</g>
		<g>
			<path class="st3" d="M-234.9,396.2h-2.1c-0.1,0-0.1,0-0.1-0.1c0-0.1-0.1-0.6-0.6-0.6c-0.1,0-0.1-0.1-0.1-0.1s0.1-0.1,0.1-0.1
				c0.1,0,0.2,0,0.3,0.1V393c0-0.1,0.1-0.1,0.1-0.1s0.1,0.1,0.1,0.1v2.1h1.1c-0.1-0.1-0.2-0.1-0.2-0.2c0,0,0,0,0,0l0,0c0,0,0,0,0,0
				c0,0,0,0,0,0c0,0,0,0,0,0h0c0,0,0,0,0,0c0,0,0,0,0,0s0,0,0,0c0,0,0,0,0-0.1c0,0,0,0,0,0v0c0,0,0,0,0,0c0,0,0,0,0,0v-0.8
				c0,0,0,0,0,0v-2c0-0.1,0.1-0.1,0.1-0.1s0.1,0.1,0.1,0.1v1.9c0.4,0.1,0.6,0.4,0.7,0.7h0.2c0.1,0,0.1,0.1,0.1,0.1s-0.1,0.1-0.1,0.1
				h-0.3c0,0,0,0,0,0h-0.4c0,0,0.1,0.1,0.1,0.1h0.6c0.1,0,0.1,0.1,0.1,0.1s-0.1,0.1-0.1,0.1h-0.4c0,0.1,0.1,0.1,0.1,0.2l0,0
				c0.2,0,0.4,0,0.6,0.1c0.1,0,0.1,0.1,0.1,0.2s-0.1,0.1-0.2,0.1c-0.2-0.1-0.3-0.1-0.5-0.1l-0.1,0c-0.1,0-0.1-0.1-0.1-0.1
				c0-0.1-0.1-0.2-0.1-0.3h-1.3v0.1c0.1,0.1,0.2,0.3,0.2,0.4h2c0.1,0,0.1,0.1,0.1,0.1S-234.8,396.2-234.9,396.2z M-236.1,394.7h0.5
				c-0.1-0.2-0.2-0.4-0.5-0.5V394.7z M-236.8,394.7c-0.1,0-0.1-0.1-0.1-0.1V393c0-0.1,0.1-0.1,0.1-0.1s0.1,0.1,0.1,0.1v1.6
				C-236.7,394.7-236.8,394.7-236.8,394.7z"/>
		</g>
		<g>
			<polygon class="st4" points="-232.5,401.6 -232.5,408.1 -234.5,408.1 -234.5,401.6 			"/>
			<path class="st3" d="M-232.5,408.2h-2c-0.1,0-0.1-0.1-0.1-0.1v-6.5c0-0.1,0.1-0.1,0.1-0.1h2c0.1,0,0.1,0.1,0.1,0.1v6.5
				C-232.3,408.2-232.4,408.2-232.5,408.2z M-234.4,408h1.8v-6.3h-1.8V408z"/>
		</g>
		<g>
			<polygon class="st4" points="-232.8,401.6 -232.8,408.1 -234.1,408.1 -234.1,401.6 			"/>
			<path class="st3" d="M-232.8,408.2h-1.3c-0.1,0-0.1-0.1-0.1-0.1v-6.5c0-0.1,0.1-0.1,0.1-0.1h1.3c0.1,0,0.1,0.1,0.1,0.1v6.5
				C-232.7,408.2-232.8,408.2-232.8,408.2z M-234,408h1v-6.3h-1V408z"/>
		</g>
		<g>
			<polygon class="st4" points="-232.8,401.6 -232.8,396.8 -234.1,396.8 -234.1,401.6 			"/>
			<path class="st3" d="M-232.8,401.7h-1.3c-0.1,0-0.1-0.1-0.1-0.1v-4.8c0-0.1,0.1-0.1,0.1-0.1h1.3c0.1,0,0.1,0.1,0.1,0.1v4.8
				C-232.7,401.6-232.8,401.7-232.8,401.7z M-234,401.4h1v-4.5h-1V401.4z"/>
		</g>
		<g>
			<path class="st3" d="M-228.8,401.7c-0.7,0-1.1-0.6-1.1-1v-3.4c0-0.3,0-0.7,0.6-0.9c0.1,0,0.1,0,0.2,0.1c0,0.1,0,0.1-0.1,0.2
				c-0.4,0.1-0.4,0.4-0.4,0.7v3.4c0,0.3,0.2,0.7,0.8,0.7c0.1,0,0.1,0.1,0.1,0.1S-228.8,401.7-228.8,401.7z M-230.4,401.7
				c-0.5,0-1.1-0.5-1.1-1v-3.9c0-0.3,0.1-0.5,0.3-0.7h-0.9c-0.1,0-0.1-0.1-0.1-0.1s0.1-0.1,0.1-0.1h2c0-0.2,0.1-0.3,0.2-0.4V393
				c0-0.1,0.1-0.1,0.1-0.1s0.1,0.1,0.1,0.1v2.3c0.1,0,0.2-0.1,0.3-0.1c0.1,0,0.1,0.1,0.1,0.1s-0.1,0.1-0.1,0.1
				c-0.5,0-0.6,0.5-0.6,0.6c0,0.1-0.1,0.1-0.1,0.1h-0.7c-0.3,0-0.6,0.3-0.6,0.7v1.3h0.3c0.1,0,0.2,0.1,0.2,0.2v2.4
				c0,0.1-0.1,0.1-0.1,0.1s-0.1-0.1-0.1-0.1v-2.4h-0.3v2.4c0,0.3,0.4,0.7,0.9,0.7c0.1,0,0.1,0.1,0.1,0.1S-230.3,401.7-230.4,401.7z
				 M-231.7,401.7c-0.4,0-0.8-0.6-0.8-1v-3.2c0-0.4,0.1-0.7,0.3-0.9c0.1,0,0.1,0,0.2,0c0,0.1,0,0.1,0,0.2c-0.2,0.1-0.2,0.2-0.2,0.7
				v3.2c0,0.3,0.3,0.7,0.5,0.7c0.1,0,0.1,0.1,0.1,0.1S-231.7,401.7-231.7,401.7z M-235.2,401.7c-0.1,0-0.1-0.1-0.1-0.1
				s0.1-0.1,0.1-0.1c0.2,0,0.5-0.4,0.5-0.7v-3.2c0-0.5-0.1-0.6-0.2-0.7c-0.1,0-0.1-0.1,0-0.2c0-0.1,0.1-0.1,0.2,0
				c0.3,0.2,0.3,0.4,0.3,0.9v3.2C-234.5,401.1-234.8,401.7-235.2,401.7z M-236.6,401.7c-0.1,0-0.1-0.1-0.1-0.1s0.1-0.1,0.1-0.1
				c0.4,0,0.9-0.4,0.9-0.7v-2.4h-0.3v2.4c0,0.1-0.1,0.1-0.1,0.1s-0.1-0.1-0.1-0.1v-2.4c0-0.1,0.1-0.2,0.2-0.2h0.3v-1.3
				c0-0.4-0.4-0.7-0.6-0.7c-0.1,0-0.1-0.1-0.1-0.1s0.1-0.1,0.1-0.1c0.4,0,0.9,0.3,0.9,0.9v3.9C-235.5,401.2-236,401.7-236.6,401.7z
				 M-238.1,401.7c-0.1,0-0.1-0.1-0.1-0.1s0.1-0.1,0.1-0.1c0.6,0,0.8-0.5,0.8-0.7v-3.4c0-0.3,0-0.6-0.4-0.7c-0.1,0-0.1-0.1-0.1-0.2
				c0-0.1,0.1-0.1,0.2-0.1c0.6,0.2,0.6,0.7,0.6,0.9v3.4C-237.1,401.1-237.4,401.7-238.1,401.7z M-231.9,400.8
				c-0.1,0-0.1-0.1-0.1-0.1v-2.4h-0.1c-0.1,0-0.1-0.1-0.1-0.1s0.1-0.1,0.1-0.1h0.1c0.1,0,0.2,0.1,0.2,0.2v2.4
				C-231.7,400.8-231.8,400.8-231.9,400.8z M-235.1,400.8c-0.1,0-0.1-0.1-0.1-0.1v-2.4c0-0.1,0.1-0.2,0.2-0.2h0.1
				c0.1,0,0.1,0.1,0.1,0.1s-0.1,0.1-0.1,0.1h-0.1v2.4C-235,400.8-235,400.8-235.1,400.8z M-232.1,395.9c-0.1,0-0.1,0-0.1-0.1
				c0-0.1,0-0.1,0.1-0.2c0.2-0.1,0.4-0.1,0.6-0.1l0,0c0.1-0.2,0.2-0.4,0.4-0.6h-0.4c0,0,0,0,0,0h-0.3c-0.1,0-0.1-0.1-0.1-0.1
				s0.1-0.1,0.1-0.1h0.2c0.1-0.3,0.4-0.6,0.7-0.7v-1.9c0-0.1,0.1-0.1,0.1-0.1s0.1,0.1,0.1,0.1v2c0,0,0,0,0,0v0.8c0,0,0,0,0,0
				c0,0,0,0,0,0v0c0,0,0,0,0,0c0,0,0,0.1,0,0.1c0,0,0,0,0,0l0,0c0,0,0,0,0,0c0,0,0,0,0,0c0,0,0,0,0,0l0,0c0,0,0,0,0,0
				c-0.2,0.1-0.6,0.5-0.6,0.7c0,0.1-0.1,0.1-0.1,0.1l-0.1,0C-231.7,395.8-231.9,395.8-232.1,395.9
				C-232.1,395.9-232.1,395.9-232.1,395.9z M-231.3,394.7h0.5v-0.5C-231.1,394.4-231.3,394.5-231.3,394.7z M-230.1,394.7
				c-0.1,0-0.1-0.1-0.1-0.1V393c0-0.1,0.1-0.1,0.1-0.1s0.1,0.1,0.1,0.1v1.6C-230,394.7-230.1,394.7-230.1,394.7z"/>
		</g>
		<g>
			<path class="st4" d="M-232.2,385.3c0.2,0,0.2-0.5,0-0.5h-2.5c-0.2,0-0.2,0.5,0,0.5H-232.2L-232.2,385.3z"/>
			<path class="st3" d="M-232.2,385.4h-2.5c-0.2,0-0.3-0.2-0.3-0.4c0-0.2,0.1-0.4,0.3-0.4h2.5c0.2,0,0.3,0.2,0.3,0.4
				C-231.9,385.3-232,385.4-232.2,385.4z M-232.2,384.9h-2.5c0,0-0.1,0.1,0,0.2c0,0,0,0.1,0,0.1h2.5c0,0,0,0,0-0.1
				C-232.1,385-232.2,384.9-232.2,384.9z"/>
		</g>
		<g>
			<path class="st4" d="M-232.5,384.8c0.2,0,0.2-0.1,0-0.2c-0.1-0.1-0.1-0.2-0.3-0.2h-1.4c-0.2,0-0.2,0-0.3,0.2
				c-0.1,0.1-0.1,0.2,0,0.2H-232.5L-232.5,384.8z"/>
			<path class="st3" d="M-232.5,384.9h-1.9c0,0-0.2,0-0.2-0.1c-0.1-0.1,0-0.2,0.1-0.3l0,0c0.1-0.1,0.2-0.2,0.4-0.2h1.4
				c0.2,0,0.3,0,0.4,0.2l0,0c0.1,0.1,0.1,0.2,0.1,0.3C-232.3,384.9-232.5,384.9-232.5,384.9z M-234.4,384.6h1.8c0,0,0,0,0,0l0,0
				c-0.1-0.1-0.1-0.1-0.2-0.1h-1.4C-234.3,384.5-234.3,384.5-234.4,384.6L-234.4,384.6C-234.4,384.6-234.4,384.6-234.4,384.6z"/>
		</g>
		<g>
			<path class="st4" d="M-232.8,384.4c0.2,0,0.2-0.1,0-0.2c-0.1-0.1-0.1-0.2-0.3-0.2h-0.8c-0.2,0-0.2,0-0.3,0.2
				c-0.1,0.1-0.1,0.2,0,0.2H-232.8L-232.8,384.4z"/>
			<path class="st3" d="M-232.8,384.5h-1.4c0,0-0.2,0-0.2-0.1c-0.1-0.1,0-0.2,0.1-0.3l0,0c0.1-0.1,0.2-0.2,0.4-0.2h0.8
				c0.2,0,0.3,0,0.4,0.2l0,0c0.1,0.1,0.1,0.2,0.1,0.3C-232.6,384.5-232.7,384.5-232.8,384.5z M-234.1,384.3h1.3c0,0,0,0,0,0l0,0
				c-0.1-0.1-0.1-0.1-0.2-0.1h-0.8C-234,384.1-234,384.1-234.1,384.3L-234.1,384.3C-234.1,384.3-234.1,384.3-234.1,384.3z"/>
		</g>
		<g>
			<path class="st4" d="M-233.2,384c0-0.2,0.1-0.7-0.3-0.7c-0.4,0-0.3,0.5-0.3,0.7H-233.2L-233.2,384z"/>
			<path class="st3" d="M-233.2,384.1h-0.6c-0.1,0-0.1-0.1-0.1-0.1l0-0.1c0-0.2,0-0.5,0.2-0.7c0.1-0.1,0.4-0.1,0.6,0
				c0.2,0.2,0.2,0.5,0.2,0.7l0,0.1C-233,384.1-233.1,384.1-233.2,384.1z M-233.7,383.9h0.4c0-0.1,0-0.3-0.1-0.4c0,0,0,0-0.1,0
				s-0.1,0-0.1,0C-233.7,383.5-233.7,383.7-233.7,383.9z"/>
		</g>
		<g>
			<path class="st4" d="M-244.9,390.1c0.1-0.1,0.2-0.2,0.3-0.3v-0.4c-0.1,0-0.2,0.1-0.2,0.1h0c0-0.1-0.2-0.3-0.3-0.3
				c-0.1,0.1-0.2,0.3-0.3,0.3h0c0-0.1-0.1-0.1-0.2-0.1v0.4c0.1,0,0.3,0.1,0.3,0.3H-244.9L-244.9,390.1z"/>
			<path class="st3" d="M-244.9,390.2h-0.4c0,0-0.1,0-0.1-0.1c-0.1-0.1-0.2-0.2-0.3-0.2c-0.1,0-0.1-0.1-0.1-0.1v-0.4
				c0,0,0-0.1,0-0.1c0,0,0.1,0,0.1,0c0.1,0,0.1,0,0.2,0.1c0.1-0.1,0.2-0.2,0.3-0.3c0,0,0.1,0,0.1,0c0.1,0.1,0.2,0.2,0.3,0.3
				c0.1,0,0.1-0.1,0.2-0.1c0,0,0.1,0,0.1,0c0,0,0,0.1,0,0.1v0.4c0,0.1,0,0.1-0.1,0.1c-0.1,0-0.2,0.1-0.3,0.2
				C-244.8,390.2-244.9,390.2-244.9,390.2z M-245.2,390h0.3c0.1-0.1,0.2-0.2,0.3-0.2v-0.1c0,0-0.1,0-0.1,0h0c-0.1,0-0.1,0-0.1-0.1
				c0,0-0.1-0.2-0.2-0.2c-0.1,0.1-0.1,0.2-0.2,0.2c0,0.1-0.1,0.1-0.1,0.1h0c0,0-0.1,0-0.1,0v0.1C-245.4,389.8-245.3,389.9-245.2,390
				z"/>
		</g>
		<g>
			<path class="st4" d="M-244.8,390.9c0.1-0.2,0.2-0.3,0.3-0.4v-0.5c-0.1,0-0.2,0.1-0.2,0.2h0c0-0.3-0.2-0.4-0.3-0.5
				c-0.1,0.1-0.3,0.2-0.3,0.5h0c0-0.1-0.1-0.2-0.2-0.2v0.5c0.1,0.1,0.3,0.2,0.3,0.4H-244.8L-244.8,390.9z"/>
			<path class="st3" d="M-244.8,391.1h-0.6c-0.1,0-0.1,0-0.1-0.1c0-0.1-0.1-0.2-0.3-0.3c0,0-0.1-0.1-0.1-0.1v-0.5c0,0,0-0.1,0-0.1
				c0,0,0.1,0,0.1,0c0.1,0,0.2,0,0.2,0.1c0.1-0.2,0.2-0.3,0.3-0.4c0,0,0.1,0,0.2,0c0.1,0.1,0.2,0.2,0.3,0.4c0.1,0,0.1-0.1,0.2-0.1
				c0,0,0.1,0,0.1,0c0,0,0,0.1,0,0.1v0.5c0,0,0,0.1-0.1,0.1c-0.1,0.1-0.2,0.2-0.3,0.3C-244.7,391-244.7,391.1-244.8,391.1z
				 M-245.4,390.8h0.5c0.1-0.1,0.2-0.2,0.3-0.3v-0.2c0,0,0,0,0,0c0,0-0.1,0.1-0.1,0.1h0c-0.1,0-0.1,0-0.1-0.1c0-0.2-0.1-0.3-0.2-0.4
				c-0.1,0.1-0.2,0.2-0.2,0.4c0,0.1-0.1,0.1-0.1,0.1h0c-0.1,0-0.1,0-0.1-0.1c0,0,0,0,0,0v0.2C-245.5,390.6-245.4,390.7-245.4,390.8z
				"/>
		</g>
		<g>
			<path class="st4" d="M-244.7,391.7c0.1-0.2,0.3-0.4,0.5-0.5v-0.4c-0.1,0-0.3,0.1-0.3,0.2h0c-0.1-0.2-0.3-0.6-0.5-0.7
				c-0.2,0.1-0.5,0.5-0.5,0.7h0c-0.1-0.1-0.2-0.2-0.3-0.2v0.4c0.2,0.1,0.4,0.3,0.5,0.5H-244.7L-244.7,391.7z"/>
			<path class="st3" d="M-244.7,391.9h-0.9c-0.1,0-0.1,0-0.1-0.1c-0.1-0.1-0.2-0.3-0.4-0.4c0,0-0.1-0.1-0.1-0.1v-0.4
				c0,0,0-0.1,0-0.1c0,0,0.1,0,0.1,0c0.1,0,0.2,0.1,0.3,0.2c0.1-0.2,0.3-0.5,0.5-0.6c0,0,0.1,0,0.1,0c0.2,0.1,0.4,0.4,0.5,0.6
				c0.1-0.1,0.2-0.2,0.3-0.2c0,0,0.1,0,0.1,0c0,0,0,0.1,0,0.1v0.4c0,0,0,0.1-0.1,0.1c-0.2,0.1-0.4,0.3-0.4,0.4
				C-244.6,391.8-244.6,391.9-244.7,391.9z M-245.5,391.6h0.7c0.1-0.2,0.3-0.3,0.4-0.4V391c0,0-0.1,0.1-0.1,0.1c0,0-0.1,0.1-0.1,0.1
				h0c-0.1,0-0.1,0-0.1-0.1c0-0.1-0.2-0.5-0.4-0.6c-0.2,0.1-0.4,0.4-0.4,0.6c0,0.1-0.1,0.1-0.1,0.1h0c0,0-0.1,0-0.1-0.1
				c0,0-0.1-0.1-0.1-0.1v0.2C-245.7,391.3-245.6,391.4-245.5,391.6z"/>
		</g>
		<g>
			<path class="st4" d="M-244.5,392.9c0-0.2,0.2-0.6,0.4-0.7v-0.5c-0.1,0-0.4,0.1-0.4,0.3h-0.1c0-0.5-0.4-0.8-0.6-1
				c-0.2,0.2-0.6,0.5-0.6,1h-0.1c-0.1-0.1-0.3-0.2-0.4-0.3v0.5c0.2,0.2,0.4,0.5,0.4,0.7H-244.5L-244.5,392.9z"/>
			<path class="st3" d="M-244.5,393h-1.3c-0.1,0-0.1,0-0.1-0.1c0-0.2-0.2-0.5-0.4-0.7c0,0,0-0.1,0-0.1v-0.5c0,0,0-0.1,0-0.1
				c0,0,0.1,0,0.1,0c0.1,0,0.3,0.1,0.4,0.1c0.1-0.4,0.5-0.7,0.6-0.8c0,0,0.1,0,0.2,0c0.1,0.1,0.5,0.4,0.6,0.8
				c0.1-0.1,0.3-0.1,0.4-0.1c0,0,0.1,0,0.1,0s0,0.1,0,0.1v0.5c0,0,0,0.1,0,0.1c-0.2,0.2-0.4,0.5-0.4,0.7
				C-244.4,392.9-244.4,393-244.5,393z M-245.7,392.7h1.1c0.1-0.2,0.2-0.5,0.4-0.7v-0.3c-0.1,0-0.2,0.1-0.2,0.1c0,0-0.1,0.1-0.1,0.1
				h-0.1c-0.1,0-0.1-0.1-0.1-0.1c0-0.4-0.3-0.6-0.5-0.8c-0.2,0.2-0.5,0.5-0.5,0.8c0,0.1-0.1,0.1-0.1,0.1h-0.1c-0.1,0-0.1,0-0.1-0.1
				c0-0.1-0.1-0.1-0.2-0.1v0.3C-245.9,392.2-245.7,392.5-245.7,392.7z"/>
		</g>
		<g>
			<path class="st4" d="M-244.2,394.8c0-0.7,0.2-1,0.4-1.1v-0.9c-0.2,0-0.4,0.2-0.5,0.4h-0.1c0-0.7-0.5-1.3-0.9-1.6
				c-0.4,0.3-0.8,0.9-0.9,1.6h-0.1c-0.1-0.2-0.3-0.4-0.5-0.4v0.9c0.3,0.1,0.4,0.4,0.4,1.1H-244.2L-244.2,394.8z"/>
			<path class="st3" d="M-244.2,394.9h-1.9c-0.1,0-0.1-0.1-0.1-0.1c0-0.7-0.2-0.9-0.3-1c-0.1,0-0.1-0.1-0.1-0.1v-0.9
				c0,0,0-0.1,0-0.1c0,0,0.1,0,0.1,0c0.2,0,0.3,0.1,0.4,0.3c0.1-0.6,0.5-1.1,0.9-1.4c0,0,0.1,0,0.2,0c0.4,0.3,0.7,0.9,0.9,1.4
				c0.1-0.1,0.3-0.2,0.4-0.3c0,0,0.1,0,0.1,0c0,0,0,0.1,0,0.1v0.9c0,0.1,0,0.1-0.1,0.1c-0.2,0-0.3,0.3-0.3,1
				C-244,394.9-244.1,394.9-244.2,394.9z M-245.9,394.7h1.7c0-0.7,0.3-1,0.4-1V393c-0.1,0.1-0.2,0.2-0.2,0.3c0,0-0.1,0.1-0.1,0.1
				h-0.1c-0.1,0-0.1-0.1-0.1-0.1c0-0.6-0.4-1.1-0.7-1.4c-0.4,0.3-0.7,0.9-0.7,1.4c0,0.1-0.1,0.1-0.1,0.1h-0.1c-0.1,0-0.1,0-0.1-0.1
				c0-0.1-0.1-0.2-0.2-0.3v0.6C-246.2,393.7-246,394-245.9,394.7z"/>
		</g>
		<g>
			<path class="st4" d="M-244.2,395.9c0-0.3,0.2-0.8,0.6-0.9v-0.9c-0.3,0-0.6,0.2-0.6,0.6h-0.1c0-0.6-0.4-1.4-0.8-1.7
				c-0.5,0.3-0.8,1.1-0.8,1.7h-0.1c0-0.4-0.3-0.6-0.6-0.6v0.9c0.4,0.1,0.6,0.6,0.6,0.9H-244.2L-244.2,395.9z"/>
			<path class="st3" d="M-244.2,396h-1.8c-0.1,0-0.1-0.1-0.1-0.1c0-0.1,0-0.7-0.5-0.8c-0.1,0-0.1-0.1-0.1-0.1v-0.9c0,0,0-0.1,0-0.1
				c0,0,0.1,0,0.1,0c0.2,0,0.4,0.1,0.6,0.3c0.1-0.5,0.4-1.1,0.8-1.4c0,0,0.1,0,0.2,0c0.4,0.3,0.7,0.8,0.8,1.4
				c0.1-0.2,0.4-0.3,0.6-0.3c0,0,0.1,0,0.1,0c0,0,0,0.1,0,0.1v0.9c0,0.1,0,0.1-0.1,0.1c-0.5,0.1-0.5,0.7-0.5,0.8
				C-244.1,396-244.2,396-244.2,396z M-245.9,395.8h1.6c0-0.4,0.2-0.8,0.6-0.9v-0.6c-0.2,0.1-0.3,0.2-0.3,0.5c0,0.1-0.1,0.1-0.1,0.1
				h-0.1c-0.1,0-0.1-0.1-0.1-0.1c0-0.5-0.3-1.2-0.7-1.6c-0.4,0.3-0.7,1-0.7,1.6c0,0.1-0.1,0.1-0.1,0.1h-0.1c-0.1,0-0.1-0.1-0.1-0.1
				c0-0.3-0.2-0.4-0.3-0.5v0.6C-246.1,395-245.9,395.4-245.9,395.8z"/>
		</g>
		<g>
			<path class="st4" d="M-244,396.5c-0.1-1.1-0.7-1.8-1.2-2.1c-0.4,0.3-1.1,1-1.2,2.1H-244L-244,396.5z"/>
			<path class="st3" d="M-244,396.6h-2.3c0,0-0.1,0-0.1,0c0,0,0-0.1,0-0.1c0.1-1.2,0.9-2,1.2-2.2c0,0,0.1,0,0.1,0
				c0.3,0.2,1.1,1,1.2,2.2C-243.8,396.5-243.9,396.6-244,396.6C-243.9,396.6-243.9,396.6-244,396.6z M-246.1,396.4h2
				c-0.1-1-0.7-1.6-1-1.8C-245.4,394.8-246,395.4-246.1,396.4z"/>
		</g>
		<g>
			<path class="st4" d="M-243.6,396.9v-1c-0.5,0.1-0.6,0.4-0.7,0.6h-0.1c-0.1-0.4-0.4-1.2-0.7-1.4c-0.3,0.3-0.6,1-0.7,1.4h-0.1
				c-0.1-0.2-0.3-0.5-0.7-0.6v1H-243.6L-243.6,396.9z"/>
			<path class="st3" d="M-243.6,397h-2.9c-0.1,0-0.1-0.1-0.1-0.1v-1c0,0,0-0.1,0-0.1c0,0,0.1,0,0.1,0c0.3,0,0.6,0.2,0.7,0.5
				c0.1-0.4,0.4-1,0.7-1.2c0,0,0.1,0,0.2,0c0.3,0.2,0.5,0.8,0.7,1.2c0.2-0.3,0.4-0.4,0.7-0.5c0,0,0.1,0,0.1,0c0,0,0,0.1,0,0.1v1
				C-243.5,396.9-243.6,397-243.6,397z M-246.5,396.7h2.7V396c-0.2,0.1-0.4,0.2-0.5,0.5c0,0-0.1,0.1-0.1,0.1h-0.1
				c-0.1,0-0.1,0-0.1-0.1c0-0.4-0.3-0.9-0.5-1.2c-0.2,0.3-0.5,0.9-0.5,1.2c0,0.1-0.1,0.1-0.1,0.1h-0.1c-0.1,0-0.1,0-0.1-0.1
				c-0.1-0.3-0.2-0.4-0.5-0.5V396.7z"/>
		</g>
		<g>
			<path class="st4" d="M-221.6,390.1c0.1-0.1,0.2-0.2,0.3-0.3v-0.4c-0.1,0-0.2,0.1-0.2,0.1h0c0-0.1-0.2-0.3-0.3-0.3
				c-0.1,0.1-0.2,0.3-0.3,0.3h0c0-0.1-0.1-0.1-0.2-0.1v0.4c0.1,0,0.3,0.1,0.3,0.3H-221.6L-221.6,390.1z"/>
			<path class="st3" d="M-221.6,390.2h-0.4c0,0-0.1,0-0.1-0.1c-0.1-0.1-0.2-0.2-0.3-0.2c-0.1,0-0.1-0.1-0.1-0.1v-0.4
				c0,0,0-0.1,0-0.1s0.1,0,0.1,0c0.1,0,0.1,0,0.2,0.1c0.1-0.1,0.2-0.2,0.3-0.3c0,0,0.1,0,0.1,0c0.1,0.1,0.2,0.2,0.3,0.3
				c0.1,0,0.1-0.1,0.2-0.1c0,0,0.1,0,0.1,0s0,0.1,0,0.1v0.4c0,0.1,0,0.1-0.1,0.1c-0.1,0-0.2,0.1-0.3,0.2
				C-221.5,390.2-221.6,390.2-221.6,390.2z M-222,390h0.3c0.1-0.1,0.2-0.2,0.3-0.2v-0.1c0,0-0.1,0-0.1,0h0c-0.1,0-0.1,0-0.1-0.1
				c0,0-0.1-0.2-0.2-0.2c-0.1,0.1-0.1,0.2-0.2,0.2c0,0-0.1,0.1-0.1,0.1h0c0,0-0.1,0-0.1,0v0.1C-222.1,389.8-222,389.9-222,390z"/>
		</g>
		<g>
			<path class="st4" d="M-221.5,390.9c0.1-0.2,0.2-0.3,0.3-0.4v-0.5c-0.1,0-0.2,0.1-0.2,0.2h0c0-0.3-0.2-0.4-0.3-0.5
				c-0.1,0.1-0.3,0.2-0.3,0.5h0c0-0.1-0.1-0.2-0.2-0.2v0.5c0.1,0.1,0.3,0.2,0.3,0.4H-221.5L-221.5,390.9z"/>
			<path class="st3" d="M-221.5,391.1h-0.6c-0.1,0-0.1,0-0.1-0.1c0-0.1-0.1-0.2-0.3-0.3c0,0-0.1-0.1-0.1-0.1v-0.5c0,0,0-0.1,0-0.1
				c0,0,0.1,0,0.1,0c0.1,0,0.2,0,0.2,0.1c0.1-0.2,0.2-0.3,0.3-0.4c0,0,0.1,0,0.2,0c0.1,0.1,0.2,0.2,0.3,0.4c0.1,0,0.1-0.1,0.2-0.1
				c0,0,0.1,0,0.1,0c0,0,0,0.1,0,0.1v0.5c0,0,0,0.1-0.1,0.1c-0.1,0.1-0.2,0.2-0.3,0.3C-221.4,391-221.5,391.1-221.5,391.1z
				 M-222.1,390.8h0.5c0.1-0.1,0.2-0.2,0.3-0.3v-0.2c0,0,0,0,0,0c0,0-0.1,0.1-0.1,0.1h0c-0.1,0-0.1,0-0.1-0.1c0-0.2-0.1-0.3-0.2-0.4
				c-0.1,0.1-0.2,0.2-0.2,0.4c0,0.1-0.1,0.1-0.1,0.1h0c-0.1,0-0.1,0-0.1-0.1c0,0,0,0,0,0v0.2C-222.2,390.6-222.1,390.7-222.1,390.8z
				"/>
		</g>
		<g>
			<path class="st4" d="M-221.4,391.7c0.1-0.2,0.3-0.4,0.5-0.5v-0.4c-0.1,0-0.3,0.1-0.3,0.2h0c-0.1-0.2-0.3-0.6-0.5-0.7
				c-0.2,0.1-0.5,0.5-0.5,0.7h0c-0.1-0.1-0.2-0.2-0.3-0.2v0.4c0.2,0.1,0.4,0.3,0.5,0.5H-221.4L-221.4,391.7z"/>
			<path class="st3" d="M-221.4,391.9h-0.9c-0.1,0-0.1,0-0.1-0.1c-0.1-0.1-0.2-0.3-0.4-0.4c0,0-0.1-0.1-0.1-0.1v-0.4
				c0,0,0-0.1,0-0.1c0,0,0.1,0,0.1,0c0.1,0,0.2,0.1,0.3,0.2c0.1-0.2,0.3-0.5,0.5-0.6c0,0,0.1,0,0.1,0c0.2,0.1,0.4,0.4,0.5,0.6
				c0.1-0.1,0.2-0.2,0.3-0.2c0,0,0.1,0,0.1,0c0,0,0,0.1,0,0.1v0.4c0,0,0,0.1-0.1,0.1c-0.2,0.1-0.4,0.3-0.4,0.4
				C-221.3,391.8-221.3,391.9-221.4,391.9z M-222.2,391.6h0.7c0.1-0.2,0.3-0.3,0.4-0.4V391c0,0-0.1,0.1-0.1,0.1c0,0-0.1,0.1-0.1,0.1
				h0c-0.1,0-0.1,0-0.1-0.1c0-0.1-0.2-0.5-0.4-0.6c-0.2,0.1-0.4,0.4-0.4,0.6c0,0.1-0.1,0.1-0.1,0.1h0c0,0-0.1,0-0.1-0.1
				c0,0-0.1-0.1-0.1-0.1v0.2C-222.5,391.3-222.3,391.4-222.2,391.6z"/>
		</g>
		<g>
			<path class="st4" d="M-221.2,392.9c0-0.2,0.2-0.6,0.4-0.7v-0.5c-0.1,0-0.4,0.1-0.4,0.3h-0.1c0-0.5-0.4-0.8-0.6-1
				c-0.2,0.2-0.6,0.5-0.6,1h-0.1c-0.1-0.1-0.3-0.2-0.4-0.3v0.5c0.2,0.2,0.4,0.5,0.4,0.7H-221.2L-221.2,392.9z"/>
			<path class="st3" d="M-221.2,393h-1.3c-0.1,0-0.1,0-0.1-0.1c0-0.2-0.2-0.5-0.4-0.7c0,0,0-0.1,0-0.1v-0.5c0,0,0-0.1,0-0.1
				c0,0,0.1,0,0.1,0c0.1,0,0.3,0.1,0.4,0.1c0.1-0.4,0.5-0.7,0.6-0.8c0,0,0.1,0,0.2,0c0.1,0.1,0.5,0.4,0.6,0.8
				c0.1-0.1,0.3-0.1,0.4-0.1c0,0,0.1,0,0.1,0s0,0.1,0,0.1v0.5c0,0,0,0.1,0,0.1c-0.2,0.2-0.4,0.5-0.4,0.7
				C-221.1,392.9-221.1,393-221.2,393z M-222.4,392.7h1.1c0.1-0.2,0.2-0.5,0.4-0.7v-0.3c-0.1,0-0.2,0.1-0.2,0.1c0,0-0.1,0.1-0.1,0.1
				h-0.1c-0.1,0-0.1-0.1-0.1-0.1c0-0.4-0.3-0.7-0.5-0.8c-0.2,0.2-0.5,0.5-0.5,0.8c0,0.1-0.1,0.1-0.1,0.1h-0.1c-0.1,0-0.1,0-0.1-0.1
				c0-0.1-0.1-0.1-0.2-0.1v0.3C-222.6,392.2-222.4,392.5-222.4,392.7z"/>
		</g>
		<g>
			<path class="st4" d="M-220.9,394.8c0-0.7,0.2-1,0.4-1.1v-0.9c-0.2,0-0.4,0.2-0.5,0.4h-0.1c0-0.7-0.5-1.3-0.9-1.6
				c-0.4,0.3-0.8,0.9-0.9,1.6h-0.1c-0.1-0.2-0.3-0.4-0.5-0.4v0.9c0.3,0.1,0.4,0.4,0.4,1.1H-220.9L-220.9,394.8z"/>
			<path class="st3" d="M-220.9,394.9h-1.9c-0.1,0-0.1-0.1-0.1-0.1c0-0.7-0.2-0.9-0.3-1c-0.1,0-0.1-0.1-0.1-0.1v-0.9
				c0,0,0-0.1,0-0.1c0,0,0.1,0,0.1,0c0.2,0,0.3,0.1,0.4,0.3c0.1-0.6,0.5-1.1,0.9-1.4c0,0,0.1,0,0.2,0c0.4,0.3,0.7,0.9,0.9,1.4
				c0.1-0.1,0.3-0.2,0.4-0.3c0,0,0.1,0,0.1,0c0,0,0,0.1,0,0.1v0.9c0,0.1,0,0.1-0.1,0.1c-0.2,0-0.3,0.3-0.3,1
				C-220.7,394.9-220.8,394.9-220.9,394.9z M-222.7,394.7h1.7c0-0.7,0.3-1,0.4-1V393c-0.1,0.1-0.2,0.2-0.2,0.3c0,0-0.1,0.1-0.1,0.1
				h-0.1c-0.1,0-0.1-0.1-0.1-0.1c0-0.6-0.4-1.1-0.7-1.4c-0.4,0.3-0.7,0.9-0.7,1.4c0,0.1-0.1,0.1-0.1,0.1h-0.1c-0.1,0-0.1,0-0.1-0.1
				c0-0.1-0.1-0.2-0.2-0.3v0.6C-222.9,393.7-222.7,394-222.7,394.7z"/>
		</g>
		<g>
			<path class="st4" d="M-220.9,395.9c0-0.3,0.2-0.8,0.6-0.9v-0.9c-0.3,0-0.6,0.2-0.6,0.6h-0.1c0-0.6-0.4-1.4-0.8-1.7
				c-0.5,0.3-0.8,1.1-0.8,1.7h-0.1c0-0.4-0.3-0.6-0.6-0.6v0.9c0.4,0.1,0.6,0.6,0.6,0.9H-220.9L-220.9,395.9z"/>
			<path class="st3" d="M-220.9,396h-1.8c-0.1,0-0.1-0.1-0.1-0.1c0-0.1,0-0.7-0.5-0.8c-0.1,0-0.1-0.1-0.1-0.1v-0.9c0,0,0-0.1,0-0.1
				c0,0,0.1,0,0.1,0c0.2,0,0.4,0.1,0.6,0.3c0.1-0.5,0.4-1.1,0.8-1.4c0,0,0.1,0,0.2,0c0.4,0.3,0.7,0.8,0.8,1.4
				c0.1-0.2,0.4-0.3,0.6-0.3c0,0,0.1,0,0.1,0c0,0,0,0.1,0,0.1v0.9c0,0.1,0,0.1-0.1,0.1c-0.4,0.1-0.5,0.5-0.5,0.8
				C-220.8,396-220.9,396-220.9,396z M-222.6,395.8h1.6c0-0.4,0.2-0.8,0.6-0.9v-0.6c-0.2,0.1-0.3,0.2-0.3,0.5c0,0.1-0.1,0.1-0.1,0.1
				h-0.1c-0.1,0-0.1-0.1-0.1-0.1c0-0.5-0.3-1.2-0.7-1.6c-0.4,0.3-0.7,1-0.7,1.6c0,0.1-0.1,0.1-0.1,0.1h-0.1c-0.1,0-0.1-0.1-0.1-0.1
				c0-0.3-0.2-0.4-0.3-0.5v0.6C-222.8,395-222.6,395.4-222.6,395.8z"/>
		</g>
		<g>
			<path class="st4" d="M-220.7,396.5c-0.1-1.1-0.7-1.8-1.2-2.1c-0.4,0.3-1.1,1-1.2,2.1H-220.7L-220.7,396.5z"/>
			<path class="st3" d="M-220.7,396.6h-2.3c0,0-0.1,0-0.1,0c0,0,0-0.1,0-0.1c0.1-1.2,0.9-2,1.2-2.2c0,0,0.1,0,0.1,0
				c0.3,0.2,1.1,1,1.2,2.2C-220.6,396.5-220.6,396.6-220.7,396.6C-220.6,396.6-220.6,396.6-220.7,396.6z M-222.8,396.4h2
				c-0.1-1-0.7-1.6-1-1.8C-222.2,394.8-222.7,395.4-222.8,396.4z"/>
		</g>
		<g>
			<path class="st4" d="M-220.4,396.9v-1c-0.5,0.1-0.6,0.4-0.7,0.6h-0.1c-0.1-0.4-0.4-1.2-0.7-1.4c-0.3,0.3-0.6,1-0.7,1.4h-0.1
				c-0.1-0.2-0.3-0.5-0.7-0.6v1H-220.4L-220.4,396.9z"/>
			<path class="st3" d="M-220.4,397h-2.9c-0.1,0-0.1-0.1-0.1-0.1v-1c0,0,0-0.1,0-0.1c0,0,0.1,0,0.1,0c0.3,0,0.6,0.2,0.7,0.5
				c0.1-0.4,0.4-1,0.7-1.2c0,0,0.1,0,0.2,0c0.3,0.2,0.5,0.8,0.7,1.2c0.2-0.3,0.4-0.4,0.7-0.5c0,0,0.1,0,0.1,0c0,0,0,0.1,0,0.1v1
				C-220.2,396.9-220.3,397-220.4,397z M-223.2,396.7h2.7V396c-0.2,0.1-0.4,0.2-0.5,0.5c0,0-0.1,0.1-0.1,0.1h-0.1
				c-0.1,0-0.1,0-0.1-0.1c0-0.4-0.3-0.9-0.5-1.2c-0.2,0.3-0.5,0.9-0.5,1.2c0,0.1-0.1,0.1-0.1,0.1h-0.1c-0.1,0-0.1,0-0.1-0.1
				c-0.1-0.3-0.2-0.4-0.5-0.5V396.7z"/>
		</g>
		<g>
			<path class="st4" d="M-233.1,386.7c0-0.2,0.2-0.3,0.3-0.3v-0.5c-0.1,0-0.2,0.1-0.3,0.2h0c0-0.1-0.1-0.4-0.3-0.5
				c-0.2,0.1-0.3,0.4-0.3,0.5h0c-0.1-0.1-0.2-0.2-0.3-0.2v0.5c0.1,0.1,0.2,0.2,0.3,0.3H-233.1L-233.1,386.7z"/>
			<path class="st3" d="M-233.1,386.8h-0.7c-0.1,0-0.1,0-0.1-0.1c0-0.1-0.1-0.2-0.2-0.3c0,0-0.1-0.1-0.1-0.1v-0.5
				c0-0.1,0.1-0.1,0.1-0.1c0.1,0,0.2,0,0.3,0.1c0.1-0.2,0.2-0.4,0.3-0.4c0,0,0.1,0,0.1,0c0.2,0.1,0.3,0.2,0.3,0.4
				c0.1-0.1,0.2-0.1,0.3-0.1c0.1,0,0.1,0.1,0.1,0.1v0.5c0,0,0,0.1-0.1,0.1c-0.1,0-0.2,0.1-0.2,0.3
				C-233,386.8-233.1,386.8-233.1,386.8z M-233.7,386.6h0.5c0.1-0.1,0.2-0.2,0.3-0.3V386c0,0,0,0-0.1,0.1c0,0-0.1,0-0.1,0h0
				c-0.1,0-0.1,0-0.1-0.1c0-0.2-0.1-0.3-0.2-0.4c-0.1,0.1-0.1,0.2-0.2,0.4c0,0.1-0.1,0.1-0.1,0.1h0c0,0-0.1,0-0.1,0
				c0,0,0-0.1-0.1-0.1v0.3C-233.9,386.3-233.8,386.4-233.7,386.6z"/>
		</g>
		<g>
			<path class="st4" d="M-233.1,387.6c0.1-0.3,0.3-0.4,0.5-0.5v-0.6c-0.2,0-0.4,0.1-0.4,0.3h0c0-0.3-0.2-0.6-0.4-0.7
				c-0.2,0.1-0.4,0.4-0.4,0.7h0c-0.1-0.2-0.3-0.3-0.4-0.3v0.6c0.2,0,0.4,0.2,0.5,0.5H-233.1L-233.1,387.6z"/>
			<path class="st3" d="M-233.1,387.7h-0.7c-0.1,0-0.1,0-0.1-0.1c-0.1-0.2-0.2-0.4-0.4-0.4c-0.1,0-0.1-0.1-0.1-0.1v-0.6
				c0,0,0-0.1,0-0.1c0,0,0.1,0,0.1,0c0.1,0,0.3,0.1,0.4,0.2c0.1-0.3,0.2-0.5,0.4-0.6c0,0,0.1,0,0.1,0c0.2,0.1,0.4,0.3,0.4,0.6
				c0.1-0.1,0.2-0.1,0.4-0.2c0,0,0.1,0,0.1,0c0,0,0,0.1,0,0.1v0.6c0,0.1,0,0.1-0.1,0.1c-0.2,0-0.3,0.2-0.4,0.4
				C-233,387.7-233.1,387.7-233.1,387.7z M-233.7,387.5h0.5c0.1-0.2,0.3-0.4,0.5-0.4v-0.3c-0.1,0-0.2,0.1-0.2,0.2
				c0,0-0.1,0.1-0.1,0.1h0c0,0-0.1,0-0.1,0c0,0,0-0.1,0-0.1c0-0.2-0.1-0.5-0.3-0.6c-0.1,0.1-0.3,0.3-0.3,0.6c0,0,0,0.1,0,0.1
				s-0.1,0-0.1,0h0c0,0-0.1,0-0.1-0.1c0-0.1-0.1-0.1-0.2-0.2v0.3C-234,387.1-233.8,387.3-233.7,387.5z"/>
		</g>
		<g>
			<path class="st4" d="M-233,388.9c0.1-0.3,0.4-0.5,0.6-0.7v-0.8c-0.3,0-0.5,0.3-0.5,0.5h-0.1c0-0.3-0.1-0.8-0.5-1
				c-0.4,0.2-0.5,0.7-0.5,1h-0.1c0-0.2-0.2-0.5-0.5-0.5v0.8c0.2,0.1,0.5,0.4,0.6,0.7H-233L-233,388.9z"/>
			<path class="st3" d="M-233,389h-0.9c-0.1,0-0.1,0-0.1-0.1c-0.1-0.2-0.3-0.5-0.5-0.6c0,0-0.1-0.1-0.1-0.1v-0.8c0,0,0-0.1,0-0.1
				c0,0,0.1,0,0.1,0c0.2,0,0.3,0.1,0.4,0.2c0.1-0.3,0.2-0.6,0.5-0.7c0,0,0.1,0,0.1,0c0.3,0.2,0.4,0.5,0.5,0.7
				c0.1-0.1,0.2-0.2,0.4-0.2c0,0,0.1,0,0.1,0c0,0,0,0.1,0,0.1v0.8c0,0,0,0.1-0.1,0.1c-0.2,0.1-0.4,0.4-0.5,0.6
				C-232.9,389-233,389-233,389z M-233.8,388.8h0.7c0.1-0.2,0.3-0.5,0.5-0.6v-0.6c-0.2,0.1-0.2,0.2-0.2,0.4c0,0.1-0.1,0.1-0.1,0.1
				h-0.1c-0.1,0-0.1-0.1-0.1-0.1c0-0.1,0-0.6-0.3-0.9c-0.3,0.2-0.3,0.7-0.3,0.9c0,0.1-0.1,0.1-0.1,0.1h-0.1c-0.1,0-0.1-0.1-0.1-0.1
				c0-0.1-0.1-0.3-0.2-0.4v0.6C-234.2,388.3-233.9,388.5-233.8,388.8z"/>
		</g>
		<g>
			<path class="st4" d="M-232.1,389.7v-0.9c-0.2,0-0.5,0.2-0.6,0.5h-0.1c0-0.4-0.3-1.1-0.7-1.4c-0.4,0.3-0.7,0.9-0.7,1.4h-0.1
				c0-0.3-0.4-0.5-0.6-0.5v0.9H-232.1L-232.1,389.7z"/>
			<path class="st3" d="M-232.1,389.8h-2.7c-0.1,0-0.1-0.1-0.1-0.1v-0.9c0,0,0-0.1,0-0.1c0,0,0.1,0,0.1,0c0.1,0,0.4,0.1,0.5,0.3
				c0.1-0.4,0.4-0.9,0.7-1.1c0,0,0.1,0,0.2,0c0.3,0.2,0.6,0.7,0.7,1.1c0.2-0.2,0.4-0.3,0.5-0.3c0,0,0.1,0,0.1,0c0,0,0,0.1,0,0.1v0.9
				C-232,389.8-232.1,389.8-232.1,389.8z M-234.7,389.6h2.4V389c-0.1,0.1-0.3,0.2-0.3,0.4c0,0.1-0.1,0.1-0.1,0.1h-0.1
				c-0.1,0-0.1-0.1-0.1-0.1c0-0.4-0.2-0.9-0.6-1.2c-0.3,0.3-0.6,0.9-0.6,1.2c0,0.1-0.1,0.1-0.1,0.1h-0.1c-0.1,0-0.1,0-0.1-0.1
				c0-0.1-0.2-0.3-0.3-0.4V389.6z"/>
		</g>
		<g>
			<path class="st4" d="M-232.1,389.7c-0.1,0-0.7,0.1-0.7,0.8h-1.2c0-0.7-0.6-0.8-0.7-0.8H-232.1L-232.1,389.7z"/>
			<path class="st3" d="M-232.9,390.6h-1.2c-0.1,0-0.1-0.1-0.1-0.1c0-0.6-0.6-0.6-0.6-0.6c-0.1,0-0.1-0.1-0.1-0.1s0.1-0.1,0.1-0.1
				h2.7c0.1,0,0.1,0.1,0.1,0.1s-0.1,0.1-0.1,0.1c0,0-0.6,0-0.6,0.6C-232.8,390.5-232.8,390.6-232.9,390.6z M-234,390.3h1
				c0-0.2,0.1-0.4,0.2-0.5h-1.5C-234.1,389.9-234,390.1-234,390.3z"/>
		</g>
		<g>
			<path class="st4" d="M-232,391.2v-0.9c-0.2,0-0.5,0.3-0.5,0.6h-0.1c0-0.5-0.6-1.2-0.9-1.4c-0.3,0.2-0.9,0.9-0.9,1.4h-0.1
				c-0.1-0.3-0.3-0.6-0.5-0.6v0.9H-232L-232,391.2z"/>
			<path class="st3" d="M-232,391.3h-2.9c-0.1,0-0.1-0.1-0.1-0.1v-0.9c0,0,0-0.1,0-0.1c0,0,0.1,0,0.1,0c0.2,0,0.4,0.2,0.5,0.4
				c0.2-0.5,0.6-1,0.9-1.2c0,0,0.1,0,0.1,0c0.3,0.2,0.7,0.7,0.9,1.2c0.1-0.2,0.3-0.4,0.5-0.4c0,0,0.1,0,0.1,0c0,0,0,0.1,0,0.1v0.9
				C-231.9,391.3-231.9,391.3-232,391.3z M-234.8,391.1h2.7v-0.6c-0.1,0.1-0.2,0.2-0.3,0.4c0,0.1-0.1,0.1-0.1,0.1h-0.1
				c-0.1,0-0.1-0.1-0.1-0.1c0-0.4-0.5-1-0.8-1.3c-0.3,0.3-0.7,0.8-0.8,1.3c0,0.1-0.1,0.1-0.1,0.1h-0.1c-0.1,0-0.1,0-0.1-0.1
				c0-0.2-0.2-0.3-0.3-0.4V391.1z"/>
		</g>
		<g>
			<path class="st4" d="M-232,391.2c-0.3,0-0.5,0.3-0.5,0.9h-1.8c0-0.5-0.3-0.9-0.5-0.9H-232L-232,391.2z"/>
			<path class="st3" d="M-232.6,392.2h-1.8c-0.1,0-0.1-0.1-0.1-0.1c0-0.5-0.2-0.7-0.4-0.7c-0.1,0-0.1-0.1-0.1-0.1s0.1-0.1,0.1-0.1
				h2.9c0.1,0,0.1,0.1,0.1,0.1s-0.1,0.1-0.1,0.1c-0.2,0-0.4,0.3-0.4,0.7C-232.4,392.1-232.5,392.2-232.6,392.2z M-234.3,391.9h1.6
				c0-0.2,0.1-0.5,0.2-0.6h-2.1C-234.4,391.5-234.3,391.7-234.3,391.9z"/>
		</g>
		<g>
			<path class="st4" d="M-231.6,393v-1c-0.2,0.1-0.6,0.4-0.6,0.7h0c-0.1-0.6-0.7-1.5-1.2-1.8c-0.5,0.3-1.1,1.2-1.2,1.8h0
				c-0.1-0.3-0.4-0.6-0.6-0.7v1H-231.6L-231.6,393z"/>
			<path class="st3" d="M-231.6,393.1h-3.8c-0.1,0-0.1-0.1-0.1-0.1v-1c0,0,0-0.1,0.1-0.1c0,0,0.1,0,0.1,0c0.2,0.1,0.4,0.2,0.6,0.5
				c0.2-0.6,0.8-1.3,1.2-1.6c0,0,0.1,0,0.1,0c0.4,0.3,1,1,1.2,1.6c0.2-0.2,0.4-0.4,0.6-0.5c0,0,0.1,0,0.1,0c0,0,0.1,0.1,0.1,0.1v1
				C-231.5,393-231.5,393.1-231.6,393.1z M-235.2,392.8h3.5v-0.7c-0.2,0.1-0.3,0.3-0.4,0.5c0,0.1-0.1,0.1-0.1,0.1h0
				c-0.1,0-0.1,0-0.1-0.1c-0.1-0.5-0.6-1.4-1.1-1.7c-0.4,0.3-1,1.1-1.1,1.7c0,0.1-0.1,0.1-0.1,0.1h0c-0.1,0-0.1,0-0.1-0.1
				c0-0.2-0.2-0.4-0.4-0.5V392.8z"/>
		</g>
		<g>
			<path class="st4" d="M-231.6,393c-0.5,0.2-0.6,1-0.6,2h-2.5c-0.1-1-0.1-1.9-0.6-2H-231.6L-231.6,393z"/>
			<path class="st3" d="M-232.2,395.1h-2.5c-0.1,0-0.1-0.1-0.1-0.1c0-1-0.1-1.8-0.6-1.9c-0.1,0-0.1-0.1-0.1-0.1
				c0-0.1,0.1-0.1,0.1-0.1h3.8c0.1,0,0.1,0,0.1,0.1c0,0.1,0,0.1-0.1,0.1c-0.5,0.2-0.5,0.9-0.6,1.9
				C-232.1,395.1-232.2,395.1-232.2,395.1z M-234.6,394.9h2.2c0-0.8,0.1-1.4,0.4-1.8h-3C-234.7,393.5-234.6,394.1-234.6,394.9z"/>
		</g>
		<g>
			<path class="st4" d="M-231.8,395.2v-1.1c-0.4,0.1-0.6,0.6-0.6,0.9h-0.1c0-0.6-0.2-2-1-2.5c-0.8,0.5-1,2-1,2.5h-0.1
				c0-0.3-0.2-0.8-0.6-0.9v1.1H-231.8L-231.8,395.2z"/>
			<path class="st3" d="M-231.8,395.4h-3.3c-0.1,0-0.1-0.1-0.1-0.1v-1.1c0,0,0-0.1,0-0.1s0.1,0,0.1,0c0.3,0,0.4,0.3,0.6,0.5
				c0.1-0.7,0.4-1.7,1-2.1c0,0,0.1,0,0.1,0c0.6,0.4,0.9,1.4,1,2.1c0.1-0.2,0.3-0.5,0.6-0.5c0,0,0.1,0,0.1,0c0,0,0,0.1,0,0.1v1.1
				C-231.7,395.3-231.8,395.4-231.8,395.4z M-232.3,395.1h0.4v-0.8C-232.2,394.4-232.3,394.8-232.3,395.1
				C-232.3,395.1-232.3,395.1-232.3,395.1z M-234.4,395.1h1.8c0,0,0-0.1,0-0.1c0-0.7-0.2-1.9-0.8-2.4
				C-234.1,393.1-234.3,394.4-234.4,395.1C-234.3,395.1-234.3,395.1-234.4,395.1z M-235,395.1h0.4c0,0,0,0,0-0.1
				c0-0.2-0.1-0.6-0.4-0.7V395.1z"/>
		</g>
		<g>
			<path class="st4" d="M-232.1,396.8v-1c-0.2,0-0.4,0.3-0.6,0.6h-0.1c0.1-0.4,0-1.3-0.7-1.7c-0.7,0.4-0.8,1.3-0.7,1.7h-0.1
				c-0.1-0.2-0.3-0.6-0.6-0.6v1H-232.1L-232.1,396.8z"/>
			<path class="st3" d="M-232.1,396.9h-2.8c-0.1,0-0.1-0.1-0.1-0.1v-1c0,0,0-0.1,0-0.1c0,0,0.1,0,0.1,0c0.2,0,0.3,0.1,0.5,0.4
				c0-0.5,0.2-1.1,0.8-1.4c0,0,0.1,0,0.1,0c0.6,0.3,0.8,1,0.8,1.5c0.2-0.2,0.3-0.4,0.5-0.4c0,0,0.1,0,0.1,0c0,0,0,0.1,0,0.1v1
				C-232,396.9-232,396.9-232.1,396.9z M-234.7,396.7h2.5v-0.7c-0.1,0.1-0.2,0.2-0.3,0.5c0,0-0.1,0.1-0.1,0.1h-0.1c0,0-0.1,0-0.1,0
				s0-0.1,0-0.1c0-0.3,0-1.2-0.6-1.5c-0.6,0.3-0.7,1.2-0.6,1.5c0,0,0,0.1,0,0.1s-0.1,0-0.1,0h-0.1c0,0-0.1,0-0.1-0.1
				c-0.1-0.3-0.2-0.4-0.3-0.5V396.7z"/>
		</g>
	</g>
</g>
</svg>
