<?xml version="1.0" encoding="utf-8"?>
<!-- Generator: Adobe Illustrator 19.0.0, SVG Export Plug-In . SVG Version: 6.00 Build 0)  -->
<svg version="1.1" id="Layer_1" xmlns="http://www.w3.org/2000/svg" xmlns:xlink="http://www.w3.org/1999/xlink" x="0px" y="0px"
	 viewBox="-269 374 72 46" style="enable-background:new -269 374 72 46;" xml:space="preserve">
<style type="text/css">
	.st0{clip-path:url(#SVGID_2_);}
	.st1{fill:#E40520;}
	.st2{fill:#FFED00;}
	.st3{fill:#004288;}
	.st4{fill:#FFFFFF;}
</style>
<g>
	<defs>
		<path id="SVGID_1_" d="M-204,420H-262c-3.8,0-7-3.1-7-7V381c0-3.8,3.1-7,7-7h58.1c3.8,0,7,3.1,7,7V413
			C-197,416.9-200.1,420-204,420z"/>
	</defs>
	<clipPath id="SVGID_2_">
		<use xlink:href="#SVGID_1_"  style="overflow:visible;"/>
	</clipPath>
	<g class="st0">
		<g>
			<polygon class="st1" points="-181.6,423.1 -181.6,371.8 -284.4,371.8 -284.4,423.1 			"/>
		</g>
		<g>
			<path d="M-181.5,423.3h-103v-51.6h103V423.3z M-284.3,423h102.5v-51.1h-102.5V423z"/>
		</g>
		<g>
			<path class="st2" d="M-223.1,402c0.8-1.1,2-1.1,3.4-0.4c-0.2-1.8-2.4-3-3.4-3.2c0.4-1.4,1.7-2,3.2-1.8c-0.8-1.7-3.4-1.7-4.4-1.5
				c-0.1-1.4,0.9-2.5,2.4-2.8c-1.3-1.3-3.8-0.4-4.7,0.1c-0.5-1.3,0-2.7,1.3-3.5c-1.7-0.8-3.7,0.9-4.3,1.7c-1-1-0.9-2.5,0.1-3.8
				c-1.8-0.1-3.2,2.2-3.5,3.1c-1.2-0.6-1.7-2-1.2-3.5c-1.7,0.5-2.2,3.2-2.2,4.2c-1.4-0.2-2.3-1.3-2.3-2.9c-1.5,1.1-1.1,3.7-0.7,4.7
				c-1.4,0.3-2.6-0.5-3.2-1.9c-1,1.5,0.3,3.9,0.9,4.7c-1.2,0.8-2.6,0.4-3.6-0.7c-0.4,1.8,1.6,3.6,2.4,4c-0.8,1.1-1.3,2-2.7,1.3
				c0.2,1.8,1.7,2.1,2.7,2.3L-223.1,402L-223.1,402z"/>
		</g>
		<g>
			<path d="M-223.1,402L-223.1,402l-19.8,0c-0.8-0.1-2.6-0.4-2.8-2.4l0-0.1l0.1,0.1c1.3,0.7,1.8,0,2.5-1.1l0.1-0.1
				c-1-0.6-2.8-2.3-2.4-4.1l0-0.1l0.1,0.1c1,1.1,2.4,1.4,3.5,0.7c-0.7-0.9-1.9-3.2-0.9-4.7l0.1-0.1l0,0.1c0.6,1.4,1.8,2.2,3,1.9
				c-0.4-1.1-0.7-3.6,0.7-4.7l0.1-0.1l0,0.1c0.1,1.6,0.9,2.7,2.2,2.8c0-1.1,0.5-3.7,2.3-4.2l0.1,0l0,0.1c-0.4,1.5,0,2.8,1.1,3.4
				c0.4-1,1.7-3.1,3.4-3.1c0.1,0,0.1,0,0.2,0l0.1,0l-0.1,0.1c-0.9,1.2-1,2.7-0.1,3.6c0.7-0.9,2.7-2.4,4.4-1.7l0.1,0l-0.1,0.1
				c-1.3,0.8-1.8,2.2-1.3,3.4c1-0.6,3.4-1.3,4.7-0.1l0.1,0.1l-0.1,0c-1.5,0.3-2.4,1.4-2.4,2.7c1.1-0.2,3.6-0.1,4.4,1.6l0,0.1l-0.1,0
				c-1.5-0.2-2.7,0.5-3.2,1.7c1,0.2,3.2,1.3,3.4,3.2l0,0.1l-0.1-0.1C-221.2,400.9-222.3,401-223.1,402L-223.1,402z M-245.6,399.8
				c0.3,1.8,1.9,2,2.7,2.1l19.8,0c0.8-1,1.9-1.2,3.3-0.5c-0.3-1.8-2.4-2.8-3.3-3l-0.1,0l0-0.1c0.4-1.3,1.6-2,3.2-1.9
				c-0.8-1.5-3.4-1.6-4.3-1.4l-0.1,0l0-0.1c-0.1-1.4,0.9-2.5,2.4-2.9c-1.3-1.2-3.8-0.3-4.5,0.2l-0.1,0l0-0.1c-0.5-1.3,0-2.6,1.3-3.5
				c-1.6-0.6-3.6,1.1-4.2,1.8l0,0.1l0-0.1c-0.9-1-0.9-2.5,0-3.8c0,0,0,0,0,0c-1.7,0-3,2.3-3.3,3.1l0,0.1l-0.1,0
				c-1.2-0.6-1.7-2-1.3-3.5c-1.6,0.6-2.1,3.2-2.1,4.1l0,0.1l-0.1,0c-1.3-0.2-2.3-1.3-2.4-2.9c-1.3,1.1-0.9,3.7-0.6,4.5l0,0.1l-0.1,0
				c-1.3,0.3-2.6-0.4-3.2-1.9c-0.9,1.5,0.4,3.8,1,4.5l0,0.1l-0.1,0c-1.1,0.8-2.5,0.5-3.6-0.6c-0.3,1.7,1.7,3.4,2.4,3.9l0.1,0
				l-0.2,0.2C-243.7,399.6-244.3,400.4-245.6,399.8z"/>
		</g>
		<g>
			<polygon class="st2" points="-226,400.2 -219.2,397.7 -226.4,397.8 -220.8,393.1 -227.6,395.6 -224,389.3 -229.5,394 
				-228.2,386.8 -231.8,393.2 -233,385.9 -234.2,393.2 -237.8,386.8 -236.5,394 -242,389.3 -238.4,395.6 -245.2,393.1 -239.6,397.8 
				-246.8,397.7 -240,400.2 			"/>
		</g>
		<g>
			<path d="M-226,400.3l-14.1,0l-6.8-2.5l0-0.1l7.1,0l-5.4-4.6l0.1-0.1l6.6,2.5l-3.6-6.2l0.1-0.1l5.4,4.6l-1.3-7.1l0.1,0l3.5,6.2
				l1.2-7.1h0.1l1.2,7.1l3.5-6.2l0.1,0l-1.3,7.1l5.4-4.6l0.1,0.1l-3.6,6.2l6.6-2.5l0.1,0.1l-5.4,4.6l7.1,0l0,0.1L-226,400.3z
				 M-240,400.1h14l6.5-2.3l-7,0l5.4-4.6l-6.6,2.5l0.1-0.2l3.5-6l-5.4,4.6l0-0.2l1.2-6.9l-3.5,6.2l0-0.2l-1.2-6.9l-1.2,7l-0.1-0.2
				l-3.4-6.1l1.3,7l-5.4-4.6l3.5,6.2l-6.6-2.5l5.4,4.6l-7,0L-240,400.1z"/>
		</g>
		<g>
			<path class="st2" d="M-233,407.3c3.9,0,7-3.2,7-7.1s-3.1-7.1-7-7.1c-3.9,0-7,3.2-7,7.1S-236.9,407.3-233,407.3L-233,407.3z"/>
		</g>
		<g>
			<path d="M-233,407.4c-3.9,0-7.1-3.2-7.1-7.2c0-4,3.2-7.2,7.1-7.2c3.9,0,7.1,3.2,7.1,7.2C-225.9,404.2-229.1,407.4-233,407.4z
				 M-233,393.1c-3.8,0-7,3.2-7,7.1c0,3.9,3.1,7.1,7,7.1c3.8,0,7-3.2,7-7.1C-226,396.3-229.2,393.1-233,393.1z"/>
		</g>
		<g>
			<path class="st3" d="M-211.4,402.1c-3.2,0-6.8-1.8-10.2-1.7c-3.8,0.1-7.7,3.2-11.6,3.2c-3.8,0-7.3-3.7-11-3.7
				c-4,0-8.1,3.1-11.8,3.1c-3.5-0.1-7.5-2.9-10.6-3c-9.2-0.3-6.5,4.5-17.8,0.2v23.1h102.8v-23.2c-10.3,3.5-12-0.3-18.8-0.1
				C-203.8,399.9-207.3,402-211.4,402.1"/>
		</g>
		<g>
			<path d="M-181.6,423.3h-102.8l-0.1-0.1v-23.1l0.2-0.1c6.7,2.6,8.4,1.9,10.7,1c1.6-0.6,3.3-1.3,7-1.2c1.5,0,3.2,0.7,4.9,1.4
				c1.9,0.8,3.8,1.5,5.6,1.6c1.8,0,3.7-0.7,5.7-1.5c2-0.8,4.1-1.6,6.2-1.6c1.9,0,3.7,1,5.5,1.9c1.8,0.9,3.6,1.8,5.5,1.9c0,0,0,0,0,0
				c2,0,4-0.8,5.9-1.6c1.9-0.8,3.8-1.5,5.7-1.6c0.1,0,0.1,0,0.2,0c1.7,0,3.5,0.5,5.2,0.9c1.7,0.4,3.3,0.8,4.8,0.8c0,0,0.1,0,0.1,0
				l0,0c2.1,0,4.1-0.6,6-1.2c1.7-0.5,3.3-1,4.9-1.1c2.4-0.1,4.2,0.4,5.9,0.8c3.2,0.8,6.2,1.5,12.8-0.7l0.2,0.1v23.2L-181.6,423.3z
				 M-284.3,423h102.5v-22.9c-6.6,2.2-9.6,1.5-12.8,0.7c-1.7-0.4-3.5-0.9-5.8-0.8c-1.6,0.1-3.2,0.5-4.9,1.1
				c-1.9,0.6-3.9,1.2-6.1,1.2l0,0c-1.6,0-3.2-0.4-4.9-0.8c-1.7-0.4-3.4-0.9-5.1-0.9c-0.1,0-0.1,0-0.2,0c-1.9,0-3.8,0.8-5.6,1.6
				c-1.9,0.8-4,1.6-6,1.6c0,0,0,0,0,0c-1.9,0-3.8-1-5.6-1.9c-1.7-0.9-3.5-1.8-5.4-1.8c0,0-0.1,0-0.1,0c-2,0-4,0.8-6,1.6
				c-2,0.8-3.9,1.6-5.8,1.5c-1.9,0-3.8-0.8-5.7-1.6c-1.7-0.7-3.4-1.4-4.9-1.4c-3.6-0.1-5.4,0.6-6.9,1.2c-2.3,0.9-4.1,1.6-10.7-1V423
				z"/>
		</g>
		<g>
			<path class="st2" d="M-233.4,377.2c-0.6-0.8-1.3-1.6-2.1-2s-2.4-0.6-4-0.2c-1.8,0.5-4,1.2-5.7,0.7c-0.3-0.1-0.6,0.2,0.1,0.6
				c0.7,0.4,2.3,0.5,4,0.3c1.2-0.2,2.7-0.1,3.3,0.1c0.7,0.3,2,1.3,2.6,2.3L-233.4,377.2L-233.4,377.2z"/>
		</g>
		<g>
			<path d="M-235.2,379.2L-235.2,379.2c-0.6-1.1-1.9-2-2.6-2.3c-0.6-0.2-2.1-0.3-3.3-0.1c-1.7,0.2-3.4,0.1-4-0.3
				c-0.5-0.3-0.5-0.5-0.4-0.6c0.1-0.1,0.2-0.2,0.4-0.1c1.5,0.4,3.3-0.1,5-0.5c0.2-0.1,0.5-0.1,0.7-0.2c1.7-0.4,3.2-0.2,4,0.2
				c0.9,0.4,1.7,1.3,2.1,2l0,0l0,0L-235.2,379.2z M-239.8,376.6c0.8,0,1.6,0.1,1.9,0.2c0.7,0.3,2,1.2,2.6,2.2l1.7-1.8
				c-0.5-0.6-1.2-1.5-2.1-1.9c-0.8-0.4-2.3-0.6-3.9-0.2c-0.2,0.1-0.5,0.1-0.7,0.2c-1.6,0.4-3.5,1-5,0.5c-0.1,0-0.2,0-0.2,0.1
				c0,0.1,0.1,0.3,0.4,0.4c0.6,0.4,2.3,0.5,3.9,0.3C-240.7,376.6-240.2,376.6-239.8,376.6z"/>
		</g>
		<g>
			<path class="st2" d="M-229.7,381.4c0.5-0.2,1.7-0.3,2.1-0.2c0.6,0.1,1.5-0.2,1.7-0.3c0.5-0.2,0-0.6-2-0.5
				C-229.1,380.4-229.6,381-229.7,381.4L-229.7,381.4z"/>
		</g>
		<g>
			<path d="M-229.8,381.5l0-0.1c0.1-0.5,0.7-1,1.9-1.1c1.3-0.1,2.2,0.1,2.2,0.3c0,0.1,0,0.2-0.2,0.3c-0.4,0.2-1.2,0.4-1.8,0.3
				c-0.5-0.1-1.6,0-2.1,0.2L-229.8,381.5z M-227.2,380.4c-0.2,0-0.4,0-0.6,0c-1.1,0.1-1.6,0.5-1.8,0.9c0.6-0.2,1.6-0.3,2-0.2
				c0.6,0.1,1.4-0.2,1.7-0.3c0.1,0,0.2-0.1,0.1-0.1C-225.8,380.6-226.2,380.4-227.2,380.4z"/>
		</g>
		<g>
			<path class="st2" d="M-231,382.3c1.2-0.5,2.3-2,4.3-2c1.9,0,2.9-0.6,1.3-1c-1.7-0.4-2.9-0.3-4.1,0c-1.4,0.3-2.9-1.1-5.1-0.4
				c-0.9,0.3-2.1,0-2.6-0.6c-0.6-0.6-1.5-0.7-2.1-0.1c-0.1,0.1-0.3,0.3-0.6,0.3c-0.7,0-1.7,0-1.7,1.1c0.4-0.4,0.6-0.5,1.7-0.5
				c0.2,0,0.4,0.1,0.6,0.4c0.3,0.4,0.8,0.8,1.4,0.8c0.6,0,0.8,0.4,1.2,0.8C-235.8,382.4-233.3,383.1-231,382.3L-231,382.3z"/>
		</g>
		<g>
			<path d="M-233.1,382.7c-1.6,0-3-0.6-3.8-1.5c-0.1-0.1-0.1-0.1-0.2-0.2c-0.3-0.3-0.5-0.6-1-0.6c-0.6,0-1.2-0.4-1.5-0.8
				c-0.1-0.2-0.3-0.4-0.5-0.4c-1.1,0-1.3,0.1-1.7,0.5l-0.1,0.1l0-0.2c0-1.2,1.2-1.2,1.8-1.2c0.3,0,0.5-0.1,0.6-0.3l0,0
				c0.6-0.6,1.5-0.6,2.2,0.1c0.5,0.5,1.7,0.9,2.6,0.6c1.3-0.5,2.4-0.2,3.3,0.1c0.6,0.2,1.2,0.4,1.8,0.2c1.1-0.2,2.4-0.4,4.1,0
				c0.6,0.2,0.9,0.4,0.9,0.6c0,0.3-0.9,0.5-2,0.5c-0.1,0-0.1,0-0.2,0c0,0-0.1,0-0.1,0c-1.3,0-2.2,0.6-3,1.2
				c-0.4,0.3-0.8,0.6-1.2,0.7l0,0C-231.7,382.6-232.4,382.7-233.1,382.7z M-240,379.1c0.2,0,0.4,0.1,0.6,0.4
				c0.3,0.4,0.8,0.8,1.4,0.8c0.5,0,0.8,0.3,1.1,0.6c0.1,0.1,0.1,0.1,0.2,0.2c1.1,1.2,3.6,1.9,5.8,1.1l0,0c0.4-0.2,0.8-0.4,1.2-0.7
				c0.8-0.6,1.7-1.2,3-1.2c0,0,0.1,0,0.1,0c0.1,0,0.1,0,0.2,0c1.2,0,1.8-0.2,1.8-0.4c0-0.1-0.2-0.3-0.8-0.4c-1.7-0.4-3-0.3-4,0
				c-0.6,0.1-1.2-0.1-1.9-0.2c-0.9-0.3-2-0.6-3.2-0.1c-0.9,0.3-2.1-0.1-2.7-0.6c-0.6-0.6-1.4-0.6-2-0.1l0,0
				c-0.1,0.1-0.3,0.3-0.7,0.3c-0.6,0-1.5,0-1.7,0.9C-241.4,379.2-241.1,379.1-240,379.1z"/>
		</g>
		<g>
			<path class="st2" d="M-235.9,379.4c-0.1,0.6,1,1.2,1.4,1.3c0.4,0.2,0.8,0,0.9-0.4c0.3,0.3,0.9,0,0.9-0.3c0.3,0.1,0.7,0,0.8-0.5
				c0.4,0.1,0.7-0.1,0.7-0.4c0.4,0.2,0.7,0,0.8-0.2c0.3,0.1,0.7-0.1,0.8-0.4c0.3,0.1,0.7,0,0.8-0.3c0.4,0.1,0.8,0,1-0.3
				c0.3,0.2,0.7,0,0.8-0.4c0.3,0.2,0.7,0.1,0.7-0.2c0.3,0.2,0.7,0,0.7-0.3c0.2,0.1,0.5,0,0.5-0.2c0.6,0,1.4,0,1.4-0.5
				c0.5,0,1.2-0.2,1.2-0.8c0.4,0,0.8-0.3,0.9-0.7c0.1-0.3-0.3-0.5-0.9-0.6c-4.1-0.2-5.1,0.6-7,0.8c-1.8,0.2-2.9,0.7-3.8,1.8
				c-0.8,1-1.6,1.8-2.1,2.1C-235.7,379.1-235.9,379.3-235.9,379.4L-235.9,379.4z"/>
		</g>
		<g>
			<path d="M-234.1,380.9c-0.1,0-0.3,0-0.4-0.1c-0.4-0.1-1.5-0.8-1.4-1.4v0c0-0.2,0.2-0.4,0.5-0.5c0.5-0.3,1.4-1.3,2.1-2.1
				c0.9-1.1,2.1-1.6,3.9-1.8c0.7-0.1,1.2-0.2,1.8-0.3c1.2-0.3,2.5-0.6,5.2-0.5c0.5,0,0.8,0.1,0.9,0.3c0.1,0.1,0.1,0.2,0.1,0.3
				c-0.1,0.4-0.6,0.7-0.9,0.7c0,0.2-0.1,0.3-0.2,0.4c-0.3,0.2-0.7,0.3-1,0.3c0,0.1-0.1,0.2-0.1,0.2c-0.2,0.2-0.8,0.2-1.3,0.2
				c0,0.1-0.1,0.2-0.2,0.2c-0.1,0.1-0.2,0.1-0.3,0.1c0,0.2-0.1,0.3-0.2,0.4c-0.1,0.1-0.3,0.1-0.5,0c-0.1,0.2-0.2,0.2-0.3,0.3
				c-0.1,0.1-0.3,0-0.5,0c-0.1,0.1-0.2,0.3-0.3,0.3c-0.2,0.1-0.3,0.1-0.5,0c-0.2,0.3-0.6,0.4-1,0.3c-0.1,0.1-0.2,0.2-0.3,0.3
				c-0.2,0.1-0.3,0.1-0.5,0c-0.1,0.1-0.2,0.2-0.3,0.3c-0.2,0.1-0.4,0.1-0.5,0.1c0,0.1-0.1,0.2-0.2,0.2c-0.2,0.1-0.4,0.1-0.6,0
				c0,0.1-0.1,0.2-0.1,0.2c-0.1,0.1-0.4,0.2-0.6,0.1c0,0.2-0.2,0.3-0.3,0.4c-0.1,0.1-0.3,0.1-0.5,0.1c0,0.2-0.2,0.3-0.3,0.4
				c-0.2,0.1-0.4,0.1-0.6,0c-0.1,0.1-0.1,0.3-0.3,0.3C-233.9,380.8-234,380.9-234.1,380.9z M-235.8,379.4L-235.8,379.4
				c-0.1,0.6,1,1.2,1.3,1.3c0.2,0.1,0.5,0.1,0.6,0c0.1-0.1,0.2-0.2,0.2-0.3l0-0.1l0.1,0.1c0.2,0.1,0.4,0.1,0.5,0.1
				c0.2-0.1,0.3-0.2,0.3-0.3v-0.1l0.1,0c0.1,0.1,0.3,0.1,0.4,0c0.2-0.1,0.3-0.2,0.3-0.4l0-0.1l0.1,0c0.2,0.1,0.4,0,0.5-0.1
				c0,0,0.1-0.1,0.1-0.2l0-0.1l0.1,0c0.2,0.1,0.4,0.1,0.6,0c0.1,0,0.2-0.1,0.2-0.2l0-0.1l0.1,0c0.1,0,0.3,0,0.5,0
				c0.1-0.1,0.2-0.2,0.3-0.3l0-0.1l0.1,0c0.1,0.1,0.3,0,0.5,0c0.1-0.1,0.2-0.2,0.3-0.3l0-0.1l0.1,0c0.4,0.1,0.7,0,0.9-0.3l0-0.1
				l0.1,0c0.1,0.1,0.3,0.1,0.4,0c0.1-0.1,0.3-0.2,0.3-0.3l0-0.1l0.1,0.1c0.1,0.1,0.3,0.1,0.4,0.1c0.1,0,0.2-0.1,0.2-0.3l0-0.1
				l0.1,0.1c0.1,0.1,0.3,0.1,0.4,0c0.1-0.1,0.2-0.2,0.2-0.3l0-0.1l0.1,0c0.1,0,0.2,0,0.3,0c0,0,0.1-0.1,0.1-0.2l0-0.1l0.1,0
				c0.4,0,1,0,1.2-0.2c0.1-0.1,0.1-0.1,0.1-0.2v-0.1l0.1,0c0.3,0,0.8-0.1,1-0.3c0.1-0.1,0.2-0.2,0.2-0.4l0-0.1l0.1,0
				c0.3,0,0.8-0.3,0.9-0.7c0-0.1,0-0.2,0-0.2c-0.1-0.2-0.4-0.3-0.8-0.3c-2.7-0.1-4,0.2-5.2,0.5c-0.6,0.1-1.2,0.3-1.8,0.3
				c-1.7,0.1-2.9,0.7-3.8,1.7c-0.7,0.8-1.6,1.8-2.1,2.1C-235.6,379.1-235.8,379.3-235.8,379.4z"/>
		</g>
		<g>
			<path d="M-238.7,379c0.3,0,0.3-0.5,0-0.5C-239,378.5-239.1,379-238.7,379L-238.7,379z"/>
		</g>
		<g>
			<path class="st2" d="M-222.4,375.5c-0.8,0.1-1.5,0-2-0.1"/>
		</g>
		<g>
			<path d="M-223,375.6c-0.6,0-1.1-0.1-1.4-0.2c0,0-0.1,0,0-0.1s0-0.1,0.1,0c0.4,0.1,1.1,0.2,2,0.1c0,0,0,0,0,0c0,0,0.1,0,0.1,0.1
				c0,0,0,0.1-0.1,0.1C-222.6,375.6-222.9,375.6-223,375.6z"/>
		</g>
		<g>
			<path class="st2" d="M-223.7,376.2c-0.3,0-0.8-0.1-1.2-0.2"/>
		</g>
		<g>
			<path d="M-223.7,376.3c-0.4,0-0.8-0.1-1.2-0.2c0,0-0.1,0,0-0.1c0,0,0-0.1,0.1,0c0.4,0.1,0.8,0.2,1.1,0.2
				C-223.6,376.2-223.6,376.2-223.7,376.3C-223.6,376.3-223.6,376.3-223.7,376.3z"/>
		</g>
		<g>
			<path class="st2" d="M-225,376.7c-0.2,0-0.5-0.1-0.8-0.2"/>
		</g>
		<g>
			<path d="M-225,376.8C-225,376.8-225.1,376.8-225,376.8c-0.2,0-0.5-0.1-0.8-0.2c0,0-0.1,0,0-0.1c0,0,0-0.1,0.1,0
				c0.3,0.1,0.6,0.2,0.8,0.2C-225,376.6-225,376.7-225,376.8C-225,376.7-225,376.8-225,376.8z"/>
		</g>
		<g>
			<path class="st4" d="M-181.6,402.2c-1.2,0.1-3,0.9-5.1,1.6c-2,0.6-5.3,0.7-9-0.4c-4-1.2-5.6-1.1-10.2,0.4
				c-2.5,0.8-7.3,1.8-12.1-0.2c-3.4-1.4-5-1.4-9.7,0.6c-3.5,1.5-8.3,1.3-11.8-0.3c-3.6-1.7-5.2-1.9-11.4-0.1
				c-4.1,1.2-7.4,1.3-11.8-0.3c-3.4-1.3-5.1-1.1-9.4,0.3c-6.7,2.2-10.2-1.5-12.4-1.1v-3.8c2.1-0.3,5.7,3.4,12.4,1.1
				c4.2-1.4,6-1.6,9.4-0.3c4.3,1.6,7.6,1.6,11.8,0.3c6.1-1.8,7.7-1.6,11.4,0.1c3.5,1.6,8.3,1.8,11.8,0.3c4.7-2,6.3-2,9.7-0.6
				c4.8,2,9.6,1,12.1,0.2c4.6-1.5,6.2-1.6,10.2-0.4c3.7,1.1,7,1,9,0.4c2.1-0.7,3.9-1.5,5.1-1.6V402.2L-181.6,402.2z"/>
		</g>
		<g>
			<path d="M-233.2,405.4c-2.2,0-4.5-0.4-6.4-1.3c-3.6-1.6-5.2-1.9-11.3-0.1c-4.4,1.3-7.7,1.2-11.8-0.4c-3.4-1.3-5.1-1.1-9.3,0.3
				c-4.5,1.5-7.6,0.3-9.8-0.5c-1.1-0.4-1.9-0.7-2.6-0.6l-0.1-0.1v-3.8l0.1-0.1c0.7-0.1,1.6,0.2,2.7,0.6c2.2,0.8,5.2,2,9.7,0.5
				c4.1-1.4,6-1.6,9.4-0.3c4.1,1.5,7.3,1.6,11.7,0.3c6.2-1.8,7.8-1.6,11.4,0.1c3.6,1.6,8.3,1.8,11.7,0.3c4.7-2,6.4-1.9,9.8-0.6
				c4.8,2,9.6,1,12,0.2c4.5-1.4,6.2-1.6,10.3-0.4c3.2,1,6.5,1.1,8.9,0.4c0.8-0.2,1.5-0.5,2.2-0.8c1.2-0.4,2.2-0.8,3-0.9l0.1,0.1v3.8
				l-0.1,0.1c-0.8,0.1-1.7,0.4-2.9,0.8c-0.7,0.2-1.4,0.5-2.2,0.8c-2.4,0.8-5.8,0.6-9-0.4c-4.1-1.3-5.7-1-10.2,0.4
				c-2.5,0.8-7.3,1.8-12.2-0.2c-3.3-1.4-4.9-1.4-9.6,0.6C-229.3,405-231.2,405.4-233.2,405.4z M-244.5,402.5c1.7,0,3.1,0.5,5,1.4
				c3.6,1.6,8.3,1.8,11.7,0.3c4.7-2,6.4-1.9,9.8-0.6c4.8,2,9.6,1,12,0.2c4.5-1.4,6.2-1.6,10.3-0.4c3.2,1,6.5,1.1,8.9,0.4
				c0.8-0.2,1.5-0.5,2.2-0.8c1.1-0.4,2.1-0.8,2.8-0.8v-3.5c-0.7,0.1-1.7,0.4-2.8,0.8c-0.7,0.2-1.4,0.5-2.2,0.8
				c-2.4,0.8-5.8,0.6-9-0.4c-4.1-1.3-5.7-1-10.2,0.4c-2.5,0.8-7.3,1.8-12.2-0.2c-3.3-1.4-4.9-1.4-9.6,0.6c-3.5,1.5-8.3,1.4-11.9-0.3
				c-3.6-1.6-5.2-1.9-11.3-0.1c-4.4,1.3-7.7,1.2-11.8-0.4c-3.4-1.3-5.1-1.1-9.3,0.3c-4.5,1.5-7.6,0.3-9.8-0.5
				c-1-0.4-1.8-0.7-2.5-0.6v3.5c0.7,0,1.5,0.3,2.5,0.7c2.2,0.8,5.2,2,9.7,0.5c4.1-1.4,6-1.6,9.4-0.3c4.1,1.5,7.3,1.6,11.7,0.3
				C-248,402.9-246.1,402.5-244.5,402.5z"/>
		</g>
		<g>
			<path class="st4" d="M-181.6,409.7c-1.2,0.1-3,0.9-5.1,1.6c-2,0.6-5.3,0.7-9-0.4c-4-1.2-5.6-1.1-10.2,0.4
				c-2.5,0.8-7.3,1.8-12.1-0.2c-3.4-1.4-5-1.4-9.7,0.6c-3.5,1.5-8.3,1.3-11.8-0.3c-3.6-1.7-5.2-1.9-11.4-0.1
				c-4.1,1.2-7.4,1.3-11.8-0.3c-3.4-1.3-5.1-1.1-9.4,0.3c-6.7,2.2-10.2-1.5-12.4-1.1v-3.8c2.1-0.3,5.7,3.4,12.4,1.1
				c4.2-1.4,6-1.6,9.4-0.3c4.3,1.6,7.6,1.6,11.8,0.3c6.1-1.8,7.7-1.6,11.4,0.1c3.5,1.6,8.3,1.8,11.8,0.3c4.7-2,6.3-2,9.7-0.6
				c4.8,2,9.6,1,12.1,0.2c4.6-1.5,6.2-1.6,10.2-0.4c3.7,1.1,7,1,9,0.4c2.1-0.7,3.9-1.5,5.1-1.6V409.7L-181.6,409.7z"/>
		</g>
		<g>
			<path d="M-233.2,412.9c-2.2,0-4.5-0.4-6.4-1.3c-3.6-1.6-5.2-1.9-11.3-0.1c-4.4,1.3-7.7,1.2-11.8-0.4c-3.4-1.3-5.1-1.1-9.3,0.3
				c-4.5,1.5-7.6,0.3-9.8-0.5c-1.1-0.4-1.9-0.7-2.6-0.6l-0.1-0.1v-3.8l0.1-0.1c0.7-0.1,1.6,0.2,2.7,0.6c2.2,0.8,5.2,2,9.7,0.5
				c4.1-1.4,6-1.6,9.4-0.3c4.1,1.5,7.3,1.6,11.7,0.3c6.2-1.8,7.8-1.6,11.4,0.1c3.6,1.6,8.3,1.8,11.7,0.3c4.7-2,6.4-1.9,9.8-0.6
				c4.8,2,9.6,1,12,0.2c4.5-1.4,6.2-1.6,10.3-0.4c3.2,1,6.5,1.1,8.9,0.4c0.8-0.2,1.5-0.5,2.2-0.8c1.2-0.4,2.2-0.8,3-0.9l0.1,0.1v3.8
				l-0.1,0.1c-0.8,0.1-1.7,0.4-2.9,0.8c-0.7,0.2-1.4,0.5-2.2,0.8c-2.4,0.8-5.8,0.6-9-0.4c-4.1-1.3-5.7-1-10.2,0.4
				c-2.5,0.8-7.3,1.8-12.2-0.2c-3.3-1.4-4.9-1.4-9.6,0.6C-229.3,412.5-231.2,412.9-233.2,412.9z M-244.5,410c1.7,0,3.1,0.5,5,1.4
				c3.6,1.6,8.3,1.8,11.7,0.3c4.7-2,6.4-1.9,9.8-0.6c4.8,2,9.6,1,12,0.2c4.5-1.4,6.2-1.6,10.3-0.4c3.2,1,6.5,1.1,8.9,0.4
				c0.8-0.2,1.5-0.5,2.2-0.8c1.1-0.4,2.1-0.8,2.8-0.8v-3.5c-0.7,0.1-1.7,0.4-2.8,0.8c-0.7,0.2-1.4,0.5-2.2,0.8
				c-2.4,0.8-5.8,0.6-9-0.4c-4.1-1.3-5.7-1-10.2,0.4c-2.5,0.8-7.3,1.8-12.2-0.2c-3.3-1.4-4.9-1.4-9.6,0.6c-3.5,1.5-8.3,1.4-11.9-0.3
				c-3.6-1.6-5.2-1.9-11.3-0.1c-4.4,1.3-7.7,1.2-11.8-0.4c-3.4-1.3-5.1-1.1-9.3,0.3c-4.5,1.5-7.6,0.3-9.8-0.5
				c-1-0.4-1.8-0.7-2.5-0.6v3.5c0.7,0,1.5,0.3,2.5,0.7c2.2,0.8,5.2,2,9.7,0.5c4.1-1.4,6-1.6,9.4-0.3c4.1,1.5,7.3,1.6,11.7,0.3
				C-248,410.4-246.1,410-244.5,410z"/>
		</g>
		<g>
			<path class="st4" d="M-181.6,417.2c-1.2,0.1-3,0.9-5.1,1.6c-2,0.6-5.3,0.7-9-0.4c-4-1.2-5.6-1.1-10.2,0.4
				c-2.5,0.8-7.3,1.8-12.1-0.2c-3.4-1.4-5-1.4-9.7,0.6c-3.5,1.5-8.3,1.3-11.8-0.3c-3.6-1.7-5.2-1.9-11.4-0.1
				c-4.1,1.2-7.4,1.3-11.8-0.3c-3.4-1.3-5.1-1.1-9.4,0.3c-6.7,2.2-10.2-1.5-12.4-1.1v-3.8c2.1-0.3,5.7,3.4,12.4,1.1
				c4.2-1.4,6-1.6,9.4-0.3c4.3,1.6,7.6,1.6,11.8,0.3c6.1-1.8,7.7-1.6,11.4,0.1c3.5,1.6,8.3,1.8,11.8,0.3c4.7-2,6.3-2,9.7-0.6
				c4.8,2,9.6,1,12.1,0.2c4.6-1.5,6.2-1.6,10.2-0.4c3.7,1.1,7,1,9,0.4c2.1-0.7,3.9-1.5,5.1-1.6V417.2L-181.6,417.2z"/>
		</g>
		<g>
			<path d="M-233.2,420.4c-2.2,0-4.5-0.4-6.4-1.3c-3.6-1.6-5.2-1.9-11.3-0.1c-4.4,1.3-7.7,1.2-11.8-0.4c-3.4-1.3-5.1-1.1-9.3,0.3
				c-4.5,1.5-7.6,0.3-9.8-0.5c-1.1-0.4-1.9-0.7-2.6-0.6l-0.1-0.1v-3.8l0.1-0.1c0.7-0.1,1.6,0.2,2.7,0.6c2.2,0.8,5.2,2,9.7,0.5
				c4.1-1.4,6-1.6,9.4-0.3c4.1,1.5,7.3,1.6,11.7,0.3c6.2-1.8,7.8-1.6,11.4,0.1c3.6,1.6,8.3,1.8,11.7,0.3c4.7-2,6.4-1.9,9.8-0.6
				c4.8,2,9.6,1,12,0.2c4.5-1.4,6.2-1.6,10.3-0.4c3.2,1,6.5,1.1,8.9,0.4c0.8-0.2,1.5-0.5,2.2-0.8c1.2-0.4,2.2-0.8,3-0.9l0.1,0.1v3.8
				l-0.1,0.1c-0.8,0.1-1.7,0.4-2.9,0.8c-0.7,0.2-1.4,0.5-2.2,0.8c-2.4,0.8-5.8,0.6-9-0.4c-4.1-1.3-5.7-1-10.2,0.4
				c-2.5,0.8-7.3,1.8-12.2-0.2c-3.3-1.4-4.9-1.4-9.6,0.6C-229.3,420-231.2,420.4-233.2,420.4z M-244.5,417.5c1.7,0,3.1,0.5,5,1.4
				c3.6,1.6,8.3,1.8,11.7,0.3c4.7-2,6.4-1.9,9.8-0.6c4.8,2,9.6,1,12,0.2c4.5-1.4,6.2-1.6,10.3-0.4c3.2,1,6.5,1.1,8.9,0.4
				c0.8-0.2,1.5-0.5,2.2-0.8c1.1-0.4,2.1-0.8,2.8-0.8v-3.5c-0.7,0.1-1.7,0.4-2.8,0.8c-0.7,0.2-1.4,0.5-2.2,0.8
				c-2.4,0.8-5.8,0.6-9-0.4c-4.1-1.3-5.7-1-10.2,0.4c-2.5,0.8-7.3,1.8-12.2-0.2c-3.3-1.4-4.9-1.4-9.6,0.6c-3.5,1.5-8.3,1.4-11.9-0.3
				c-3.6-1.6-5.2-1.9-11.3-0.1c-4.4,1.3-7.7,1.2-11.8-0.4c-3.4-1.3-5.1-1.1-9.3,0.3c-4.5,1.5-7.6,0.3-9.8-0.5
				c-1-0.4-1.8-0.7-2.5-0.6v3.5c0.7,0,1.5,0.3,2.5,0.7c2.2,0.8,5.2,2,9.7,0.5c4.1-1.4,6-1.6,9.4-0.3c4.1,1.5,7.3,1.6,11.7,0.3
				C-248,417.9-246.1,417.5-244.5,417.5z"/>
		</g>
	</g>
</g>
</svg>
