<?xml version="1.0" encoding="utf-8"?>
<!-- Generator: Adobe Illustrator 19.0.0, SVG Export Plug-In . SVG Version: 6.00 Build 0)  -->
<svg version="1.1" id="Layer_1" xmlns="http://www.w3.org/2000/svg" xmlns:xlink="http://www.w3.org/1999/xlink" x="0px" y="0px"
	 viewBox="-269 374 72 46" style="enable-background:new -269 374 72 46;" xml:space="preserve">
<style type="text/css">
	.st0{clip-path:url(#SVGID_2_);}
	.st1{fill:#3A75C4;}
	.st2{fill:#CE1126;}
	.st3{fill:#FFFFFF;}
	.st4{fill:#FFC61E;}
	.st5{fill:#3D8E33;}
</style>
<g>
	<defs>
		<path id="SVGID_1_" d="M-204,420H-262c-3.8,0-7-3.1-7-7V381c0-3.8,3.1-7,7-7h58.1c3.8,0,7,3.1,7,7V413
			C-197,416.9-200.1,420-204,420z"/>
	</defs>
	<clipPath id="SVGID_2_">
		<use xlink:href="#SVGID_1_"  style="overflow:visible;"/>
	</clipPath>
	<g class="st0">
		<g>
			<rect x="-269.8" y="409" class="st1" width="82.4" height="12.1"/>
		</g>
		<g>
			<path d="M-187.3,421.3H-270v-12.5h82.8V421.3z M-269.6,420.9h82v-11.7h-82V420.9z"/>
		</g>
		<g>
			<rect x="-269.8" y="396.9" class="st2" width="82.4" height="12.1"/>
		</g>
		<g>
			<path d="M-187.3,409.2H-270v-12.5h82.8V409.2z M-269.6,408.8h82v-11.7h-82V408.8z"/>
		</g>
		<g>
			<rect x="-269.8" y="384.9" class="st3" width="82.4" height="12.1"/>
		</g>
		<g>
			<path d="M-187.3,397.2H-270v-12.5h82.8V397.2z M-269.6,396.8h82v-11.7h-82V396.8z"/>
		</g>
		<g>
			<rect x="-269.8" y="372.9" class="st4" width="82.4" height="12.1"/>
		</g>
		<g>
			<path d="M-187.3,385.2H-270v-12.5h82.8V385.2z M-269.6,384.8h82v-11.7h-82V384.8z"/>
		</g>
		<g>
			<polygon class="st5" points="-269.8,372.4 -228.2,396.5 -269.8,420.5 			"/>
		</g>
		<g>
			<path d="M-270,420.9l0-48.8l42.2,24.4l-0.3,0.2L-270,420.9z M-269.6,372.8l0,47.4l41-23.7L-269.6,372.8z"/>
		</g>
		<g>
			<polygon class="st3" points="-252.7,388 -253.1,389.2 -254.5,389.2 -253.4,390.1 -253.8,391.3 -252.7,390.5 -251.6,391.3 
				-252,390 -250.9,389.3 -252.3,389.3 			"/>
		</g>
		<g>
			<path d="M-254.2,391.9l0.6-1.7l-1.5-1.1h1.8l0.6-1.7l0.6,1.7h1.8l-1.5,1.1l0.6,1.7l-1.5-1.1L-254.2,391.9z M-252.7,390.3l0.7,0.5
				l-0.3-0.9l0.7-0.5h-0.9l-0.3-0.8l-0.3,0.8h-0.9l0.7,0.5l-0.3,0.8L-252.7,390.3z"/>
		</g>
		<g>
			<polygon class="st3" points="-252.7,392.6 -253.1,393.9 -254.5,393.9 -253.4,394.7 -253.8,396 -252.7,395.2 -251.6,396 
				-252,394.7 -250.9,393.9 -252.3,393.9 			"/>
		</g>
		<g>
			<path d="M-254.2,396.5l0.6-1.7l-1.5-1.1h1.8l0.6-1.7l0.6,1.7h1.8l-1.5,1.1l0.6,1.8l-1.5-1.1L-254.2,396.5z M-252.7,394.9l0.7,0.5
				l-0.3-0.9l0.7-0.5h-0.9l-0.3-0.8l-0.3,0.8h-0.9l0.7,0.5l-0.3,0.8L-252.7,394.9z"/>
		</g>
		<g>
			<polygon class="st3" points="-252.7,397.2 -253.1,398.5 -254.5,398.5 -253.4,399.3 -253.8,400.6 -252.7,399.8 -251.6,400.6 
				-252,399.3 -250.9,398.5 -252.3,398.5 			"/>
		</g>
		<g>
			<path d="M-254.2,401.1l0.6-1.7l-1.5-1.1h1.8l0.6-1.7l0.6,1.7h1.8l-1.5,1.1l0.6,1.8l-1.5-1.1L-254.2,401.1z M-252.7,399.6l0.7,0.5
				l-0.3-0.9l0.7-0.5h-0.9l-0.3-0.8l-0.3,0.8h-0.9l0.7,0.5l-0.3,0.8L-252.7,399.6z"/>
		</g>
		<g>
			<polygon class="st3" points="-252.7,401.9 -253.1,403.2 -254.5,403.2 -253.4,404 -253.8,405.2 -252.7,404.4 -251.6,405.2 
				-252,403.9 -250.9,403.2 -252.3,403.2 			"/>
		</g>
		<g>
			<path d="M-254.2,405.8l0.6-1.7l-1.5-1.1h1.8l0.6-1.7l0.6,1.7h1.8l-1.5,1.1l0.6,1.8l-1.5-1.1L-254.2,405.8z M-252.7,404.2l0.7,0.5
				l-0.3-0.9l0.7-0.5h-0.9l-0.3-0.8l-0.3,0.8h-0.9l0.7,0.5l-0.3,0.8L-252.7,404.2z"/>
		</g>
		<g>
			<g>
				<path class="st3" d="M-265.8,396.5c0,6,5.3,11.4,12.6,9.9c-4.9-1.3-7.8-5.5-7.8-9.9c0-4.4,3-8.7,7.8-9.9
					C-260.5,385.1-265.8,390.6-265.8,396.5"/>
			</g>
			<g>
				<path d="M-255.6,406.9c-2.4,0-4.7-0.8-6.6-2.3c-2.4-2-3.8-5-3.8-8.1s1.4-6.1,3.8-8.1c2.5-2,5.6-2.7,9-2.1l0,0.4
					c-4.5,1.2-7.7,5.2-7.7,9.7c0,4.6,3.2,8.6,7.7,9.7l0,0.4C-254,406.8-254.8,406.9-255.6,406.9z M-255.6,386.6
					c-2.4,0-4.5,0.8-6.3,2.2c-2.3,1.9-3.7,4.8-3.7,7.8c0,3,1.4,5.9,3.7,7.8c2.2,1.8,4.9,2.5,7.8,2.1c-4.3-1.5-7.2-5.4-7.2-9.9
					s2.9-8.4,7.2-9.9C-254.6,386.6-255.1,386.6-255.6,386.6z"/>
			</g>
		</g>
	</g>
</g>
</svg>
