<?xml version="1.0" encoding="utf-8"?>
<!-- Generator: Adobe Illustrator 19.0.0, SVG Export Plug-In . SVG Version: 6.00 Build 0)  -->
<svg version="1.1" id="Layer_1" xmlns="http://www.w3.org/2000/svg" xmlns:xlink="http://www.w3.org/1999/xlink" x="0px" y="0px"
	 viewBox="-269 374 72 46" style="enable-background:new -269 374 72 46;" xml:space="preserve">
<style type="text/css">
	.st0{clip-path:url(#SVGID_2_);}
	.st1{fill:#007A4D;}
	.st2{fill:#E40520;}
	.st3{fill:#FFED00;}
	.st4{fill:#FFFFFF;}
</style>
<g>
	<defs>
		<path id="SVGID_1_" d="M-204,420H-262c-3.8,0-7-3.1-7-7V381c0-3.8,3.1-7,7-7h58.1c3.8,0,7,3.1,7,7V413
			C-197,416.9-200.1,420-204,420z"/>
	</defs>
	<clipPath id="SVGID_2_">
		<use xlink:href="#SVGID_1_"  style="overflow:visible;"/>
	</clipPath>
	<g class="st0">
		<g>
			<path d="M-196.3,421h-73.3v-49h73.3V421z M-269.4,420.7h72.8v-48.5h-72.8V420.7z"/>
		</g>
		<g>
			<polygon class="st1" points="-196.5,372.1 -269.5,372.1 -269.5,420.9 			"/>
		</g>
		<g>
			<path d="M-269.5,421l-0.2-0.1v-48.7l0.1-0.1h73.1l0.1,0.2L-269.5,421z M-269.4,372.3v48.4l72.5-48.4H-269.4z"/>
		</g>
		<g>
			<polygon class="st2" points="-269.5,420.9 -196.5,420.9 -196.5,372.1 			"/>
		</g>
		<g>
			<path d="M-196.5,421h-73.1l-0.1-0.2l73.1-48.7l0.2,0.1v48.7L-196.5,421z M-269.1,420.7h72.5v-48.4L-269.1,420.7z"/>
		</g>
		<g>
			<polygon class="st3" points="-196.5,382.1 -254.5,420.9 -269.5,420.9 -269.5,410.8 -211.3,372.1 -196.5,372.1 			"/>
		</g>
		<g>
			<path d="M-254.5,421h-15.1l-0.1-0.1v-10l0.1-0.1l58.3-38.7l0.1,0h14.8l0.1,0.1v9.9l-0.1,0.1L-254.5,421L-254.5,421z
				 M-269.4,420.7h14.9l57.9-38.7v-9.7h-14.7l-58.2,38.6V420.7z"/>
		</g>
		<g>
			<polygon points="-196.5,379.8 -258,420.9 -269.5,420.9 -269.5,413.1 -207.9,372.1 -196.5,372.1 			"/>
		</g>
		<g>
			<path d="M-258,421h-11.6l-0.1-0.1v-7.7l0.1-0.1l61.7-41l0.1,0h11.4l0.1,0.1v7.6l-0.1,0.1L-258,421L-258,421z M-269.4,420.7h11.4
				l61.4-41v-7.4h-11.2l-61.6,40.9V420.7z"/>
		</g>
		<g>
			<polygon class="st4" points="-249.3,401.7 -248.2,405.5 -251.5,407.7 -247.5,407.9 -246.5,411.7 -245.1,408 -241.2,408.1 
				-244.3,405.7 -242.9,402 -246.2,404.2 			"/>
		</g>
		<g>
			<polygon class="st4" points="-221.4,383 -220.3,386.8 -223.6,389 -219.6,389.1 -218.5,392.9 -217.2,389.2 -213.2,389.4 
				-216.4,386.9 -215,383.2 -218.3,385.4 			"/>
		</g>
	</g>
</g>
</svg>
