<?xml version="1.0" encoding="utf-8"?>
<!-- Generator: Adobe Illustrator 19.0.0, SVG Export Plug-In . SVG Version: 6.00 Build 0)  -->
<svg version="1.1" id="Layer_1" xmlns="http://www.w3.org/2000/svg" xmlns:xlink="http://www.w3.org/1999/xlink" x="0px" y="0px"
	 viewBox="-269 374 72 46" style="enable-background:new -269 374 72 46;" xml:space="preserve">
<style type="text/css">
	.st0{clip-path:url(#SVGID_2_);}
	.st1{fill:#FFFFFF;}
	.st2{fill:#0058A2;}
	.st3{fill:#E40520;}
</style>
<g>
	<defs>
		<path id="SVGID_1_" d="M-204,420H-262c-3.8,0-7-3.1-7-7V381c0-3.8,3.1-7,7-7h58.1c3.8,0,7,3.1,7,7V413
			C-197,416.9-200.1,420-204,420z"/>
	</defs>
	<clipPath id="SVGID_2_">
		<use xlink:href="#SVGID_1_"  style="overflow:visible;"/>
	</clipPath>
	<g class="st0">
		<g>
			<polygon class="st1" points="-195.6,421.4 -195.6,371.6 -270.4,371.6 -270.4,421.4 			"/>
		</g>
		<g>
			<path d="M-195.5,421.5h-75v-50.1h75V421.5z M-270.2,421.3h74.5v-49.6h-74.5V421.3z"/>
		</g>
		<g>
			<path class="st2" d="M-222.6,403.3c-3.6,5.9-11.5,7.4-17.2,3.7c-5.8-3.8-7.4-11.5-3.6-17.2c-3.6,5.8,4.1,13.3,10.4,6.8
				C-226.7,390-219,397.5-222.6,403.3L-222.6,403.3z"/>
		</g>
		<g>
			<path d="M-232.9,409.1c-2.5,0-4.9-0.7-7-2.1c-2.8-1.8-4.7-4.7-5.4-7.9c-0.7-3.3-0.1-6.6,1.8-9.5l0.2,0.1c-1.8,3-0.6,6.2,1.5,7.8
				c2,1.6,5.5,2.2,8.8-1.2c3.4-3.5,7-2.8,9.1-1.2c2.2,1.7,3.5,5.1,1.6,8.2l-0.1-0.1l0.1,0.1c-1.7,2.8-4.4,4.7-7.7,5.4
				C-231.1,409-232,409.1-232.9,409.1z M-244.4,391.7c-1,2.3-1.2,4.8-0.7,7.3c0.7,3.2,2.6,6,5.3,7.8c2.8,1.8,6.3,2.4,9.5,1.7
				c3.2-0.7,5.8-2.6,7.5-5.3c1.8-3,0.6-6.2-1.5-7.8c-2-1.5-5.5-2.2-8.7,1.2c-3.4,3.5-7,2.8-9.1,1.2
				C-243.7,396.5-244.8,394.2-244.4,391.7z"/>
		</g>
		<g>
			<path class="st3" d="M-243.4,389.7c3.6-5.9,11.5-7.4,17.2-3.7c5.8,3.8,7.4,11.5,3.6,17.2c3.6-5.8-4.1-13.3-10.4-6.8
				C-239.3,403-247,395.5-243.4,389.7L-243.4,389.7z"/>
		</g>
		<g>
			<path d="M-222.5,403.4l-0.2-0.1c1.8-3,0.6-6.2-1.5-7.8c-2-1.5-5.5-2.2-8.7,1.2c-3.4,3.5-7,2.8-9.1,1.2c-2.2-1.7-3.5-5.1-1.6-8.2
				c1.7-2.8,4.4-4.7,7.7-5.4c3.3-0.7,6.9-0.1,9.7,1.8C-220.3,389.7-218.7,397.5-222.5,403.4z M-227.8,393.9c1.5,0,2.8,0.5,3.8,1.3
				c1.7,1.3,2.8,3.7,2.4,6.1c2.3-5.4,0.4-11.8-4.7-15.1c-2.8-1.8-6.3-2.4-9.5-1.7c-3.2,0.7-5.8,2.6-7.5,5.3l0,0
				c-1.8,3-0.6,6.2,1.5,7.8c2,1.5,5.5,2.2,8.7-1.2C-231.3,394.6-229.4,393.9-227.8,393.9z"/>
		</g>
		<g>
			<polygon points="-216,408.4 -217.8,407.3 -220.9,412 -219.2,413.2 			"/>
		</g>
		<g>
			<polygon points="-212.3,402.8 -214,401.7 -217.2,406.4 -215.5,407.6 			"/>
		</g>
		<g>
			<polygon points="-213.4,410.2 -215.2,409 -218.3,413.8 -216.6,414.9 			"/>
		</g>
		<g>
			<polygon points="-209.7,404.5 -211.4,403.4 -214.6,408.1 -212.9,409.3 			"/>
		</g>
		<g>
			<polygon points="-210.8,411.9 -212.6,410.7 -215.7,415.5 -214,416.6 			"/>
		</g>
		<g>
			<polygon points="-207.1,406.3 -208.8,405.1 -212,409.9 -210.3,411 			"/>
		</g>
		<g>
			<polygon points="-250.3,377.5 -252,376.4 -258.9,386.7 -257.2,387.9 			"/>
		</g>
		<g>
			<polygon points="-247.7,379.2 -249.4,378.1 -256.3,388.4 -254.6,389.6 			"/>
		</g>
		<g>
			<polygon points="-245.1,381 -246.8,379.8 -253.7,390.2 -252,391.3 			"/>
		</g>
		<g>
			<polygon points="-253.2,409.3 -251.4,408.1 -254.6,403.4 -256.3,404.5 			"/>
		</g>
		<g>
			<polygon points="-249.4,414.9 -247.7,413.8 -250.8,409 -252.6,410.2 			"/>
		</g>
		<g>
			<polygon points="-246.8,413.2 -245.1,412 -252,401.7 -253.7,402.8 			"/>
		</g>
		<g>
			<polygon points="-252,416.6 -250.3,415.5 -257.2,405.1 -258.9,406.3 			"/>
		</g>
		<g>
			<polygon points="-211.4,389.6 -209.7,388.4 -216.6,378.1 -218.3,379.2 			"/>
		</g>
		<g>
			<polygon points="-212.6,382.3 -210.8,381.1 -214,376.4 -215.7,377.5 			"/>
		</g>
		<g>
			<polygon points="-208.8,387.9 -207.1,386.7 -210.3,382 -212,383.1 			"/>
		</g>
		<g>
			<polygon points="-217.7,385.7 -216,384.6 -219.2,379.8 -220.9,381 			"/>
		</g>
		<g>
			<polygon points="-214,391.3 -212.3,390.2 -215.4,385.4 -217.2,386.6 			"/>
		</g>
	</g>
</g>
</svg>
