<?xml version="1.0" encoding="utf-8"?>
<!-- Generator: Adobe Illustrator 19.0.0, SVG Export Plug-In . SVG Version: 6.00 Build 0)  -->
<svg version="1.1" id="Layer_1" xmlns="http://www.w3.org/2000/svg" xmlns:xlink="http://www.w3.org/1999/xlink" x="0px" y="0px"
	 viewBox="-269 374 72 46" style="enable-background:new -269 374 72 46;" xml:space="preserve">
<style type="text/css">
	.st0{clip-path:url(#SVGID_2_);}
	.st1{fill:#FFFFFF;}
	.st2{fill:#E50040;}
	.st3{fill:#0062AE;}
</style>
<g>
	<defs>
		<path id="SVGID_1_" d="M-204,420H-262c-3.8,0-7-3.1-7-7V381c0-3.8,3.1-7,7-7h58.1c3.8,0,7,3.1,7,7V413
			C-197,416.9-200.1,420-204,420z"/>
	</defs>
	<clipPath id="SVGID_2_">
		<use xlink:href="#SVGID_1_"  style="overflow:visible;"/>
	</clipPath>
	<g class="st0">
		<g>
			<polygon class="st1" points="-184.1,384.9 -278.4,384.9 -278.4,382 -184.1,382 			"/>
		</g>
		<g>
			<path d="M-184,385h-94.5v-3.1h94.5V385z M-278.3,384.7h94v-2.6h-94V384.7z"/>
		</g>
		<g>
			<polygon class="st1" points="-184.1,412 -278.4,412 -278.4,409.1 -184.1,409.1 			"/>
		</g>
		<g>
			<path d="M-184,412.1h-94.5V409h94.5V412.1z M-278.3,411.9h94v-2.6h-94V411.9z"/>
		</g>
		<g>
			<polygon class="st2" points="-184.1,409.1 -278.4,409.1 -278.4,384.9 -184.1,384.9 			"/>
		</g>
		<g>
			<path d="M-184,409.3h-94.5v-24.5h94.5V409.3z M-278.3,409h94v-24h-94V409z"/>
		</g>
		<g>
			<polygon class="st3" points="-184.1,382 -278.4,382 -278.4,373.4 -184.1,373.4 			"/>
		</g>
		<g>
			<path d="M-184,382.1h-94.5v-8.8h94.5V382.1z M-278.3,381.9h94v-8.3h-94V381.9z"/>
		</g>
		<g>
			<polygon class="st3" points="-184.1,420.6 -278.4,420.6 -278.4,412 -184.1,412 			"/>
		</g>
		<g>
			<path d="M-184,420.7h-94.5v-8.8h94.5V420.7z M-278.3,420.4h94v-8.3h-94V420.4z"/>
		</g>
		<g>
			<path class="st1" d="M-250.3,407.2c5.6,0,10.2-4.5,10.2-10.2c0-5.6-4.5-10.2-10.2-10.2c-5.6,0-10.2,4.5-10.2,10.2
				C-260.4,402.6-255.9,407.2-250.3,407.2L-250.3,407.2z"/>
		</g>
		<g>
			<path d="M-250.3,407.3c-5.7,0-10.3-4.6-10.3-10.3c0-5.7,4.6-10.3,10.3-10.3s10.3,4.6,10.3,10.3
				C-240,402.7-244.6,407.3-250.3,407.3z M-250.3,387c-5.5,0-10,4.5-10,10s4.5,10,10,10c5.5,0,10-4.5,10-10S-244.7,387-250.3,387z"
				/>
		</g>
		<g>
			<polygon class="st2" points="-250.3,388.3 -252.2,394.3 -258.6,394.3 -253.4,398.1 -255.4,404.1 -250.3,400.4 -245.1,404.1 
				-247.1,398 -241.9,394.3 -248.3,394.3 			"/>
		</g>
		<g>
			<path d="M-255.7,404.4l2.1-6.3l-5.4-3.9h6.7l2-6.3l2.1,6.3h6.7l-5.4,3.9l2.1,6.4l-5.4-3.9L-255.7,404.4z M-250.3,400.2l4.9,3.6
				l-1.9-5.8l4.9-3.5h-6.1l-1.9-5.8l-1.9,5.8h-6.1l5,3.6l-1.9,5.8L-250.3,400.2z"/>
		</g>
	</g>
</g>
</svg>
