<?xml version="1.0" encoding="utf-8"?>
<!-- Generator: Adobe Illustrator 19.0.0, SVG Export Plug-In . SVG Version: 6.00 Build 0)  -->
<svg version="1.1" id="Layer_1" xmlns="http://www.w3.org/2000/svg" xmlns:xlink="http://www.w3.org/1999/xlink" x="0px" y="0px"
	 viewBox="-269 374 72 46" style="enable-background:new -269 374 72 46;" xml:space="preserve">
<style type="text/css">
	.st0{clip-path:url(#SVGID_2_);}
	.st1{fill:#FFFFFF;}
	.st2{fill:#31AA47;}
	.st3{fill:#DC2F34;}
</style>
<g>
	<defs>
		<path id="SVGID_1_" d="M-204,420H-262c-3.8,0-7-3.1-7-7V381c0-3.8,3.1-7,7-7h58.1c3.8,0,7,3.1,7,7V413
			C-197,416.9-200.1,420-204,420z"/>
	</defs>
	<clipPath id="SVGID_2_">
		<use xlink:href="#SVGID_1_"  style="overflow:visible;"/>
	</clipPath>
	<g class="st0">
		<g>
			<polygon class="st1" points="-173,405 -269,405 -269,389 -173,389 			"/>
		</g>
		<g>
			<path d="M-172.9,405.1h-96.2v-16.2h96.2V405.1z M-268.9,404.9h95.7v-15.7h-95.7V404.9z"/>
		</g>
		<g>
			<polygon class="st2" points="-173,389 -269,389 -269,373 -173,373 			"/>
		</g>
		<g>
			<path d="M-172.9,389.1h-96.2v-16.2h96.2V389.1z M-268.9,388.9h95.7v-15.7h-95.7V388.9z"/>
		</g>
		<g>
			<polygon class="st3" points="-173,421 -269,421 -269,405 -173,405 			"/>
		</g>
		<g>
			<path d="M-172.9,421.1h-96.2v-16.2h96.2V421.1z M-268.9,420.9h95.7v-15.7h-95.7V420.9z"/>
		</g>
		<g>
			<polygon points="-269,373 -250.2,389 -250.2,405 -269,421 			"/>
		</g>
		<g>
			<path d="M-268.9,421.1l-0.2-0.1v-48l0.2-0.1l18.8,16l0,0.1v16l0,0.1L-268.9,421.1z M-268.9,373.3v47.4l18.6-15.8v-15.9
				L-268.9,373.3z"/>
		</g>
	</g>
</g>
</svg>
