<?xml version="1.0" encoding="utf-8"?>
<!-- Generator: Adobe Illustrator 19.0.0, SVG Export Plug-In . SVG Version: 6.00 Build 0)  -->
<svg version="1.1" id="Layer_1" xmlns="http://www.w3.org/2000/svg" xmlns:xlink="http://www.w3.org/1999/xlink" x="0px" y="0px"
	 viewBox="-269 374 72 46" style="enable-background:new -269 374 72 46;" xml:space="preserve">
<style type="text/css">
	.st0{clip-path:url(#SVGID_2_);}
	.st1{fill:#003671;}
	.st2{fill:#003671;stroke:#000000;stroke-width:0.25;}
	.st3{clip-path:url(#SVGID_4_);}
	.st4{fill:#FFFFFF;}
	.st5{clip-path:url(#SVGID_6_);}
	.st6{fill:#DB2F34;}
	.st7{clip-path:url(#SVGID_8_);}
	.st8{fill:#FFFFFF;stroke:#000000;stroke-width:0.125;}
	.st9{clip-path:url(#SVGID_10_);}
	.st10{fill:#FFEB95;}
	.st11{clip-path:url(#SVGID_12_);}
	.st12{clip-path:url(#SVGID_14_);}
	.st13{clip-path:url(#SVGID_16_);}
	.st14{clip-path:url(#SVGID_18_);}
	.st15{clip-path:url(#SVGID_20_);}
	.st16{clip-path:url(#SVGID_22_);}
	.st17{fill:#76B1E0;}
	.st18{clip-path:url(#SVGID_24_);}
	.st19{clip-path:url(#SVGID_26_);}
	.st20{fill:#FFD750;}
	.st21{clip-path:url(#SVGID_28_);}
	.st22{fill:none;}
	.st23{clip-path:url(#SVGID_30_);}
	.st24{fill:#319B32;}
	.st25{fill:#00533D;}
	.st26{clip-path:url(#SVGID_32_);}
	.st27{clip-path:url(#SVGID_34_);}
	.st28{clip-path:url(#SVGID_36_);}
	.st29{clip-path:url(#SVGID_38_);}
</style>
<g>
	<defs>
		<path id="SVGID_1_" d="M-204,420H-262c-3.8,0-7-3.1-7-7V381c0-3.8,3.1-7,7-7h58.1c3.8,0,7,3.1,7,7V413
			C-197,416.9-200.1,420-204,420z"/>
	</defs>
	<clipPath id="SVGID_2_">
		<use xlink:href="#SVGID_1_"  style="overflow:visible;"/>
	</clipPath>
	<g class="st0">
		<g>
			<rect x="-281.5" y="373.2" class="st1" width="97" height="48.5"/>
			<path d="M-184.4,421.8h-97.3v-48.7h97.3V421.8z M-281.4,421.6h96.8v-48.2h-96.8V421.6z"/>
		</g>
		<g>
			<path class="st2" d="M-233,397.5"/>
		</g>
	</g>
</g>
<g>
	<defs>
		<path id="SVGID_3_" d="M-204,420H-262c-3.8,0-7-3.1-7-7V381c0-3.8,3.1-7,7-7h58.1c3.8,0,7,3.1,7,7V413
			C-197,416.9-200.1,420-204,420z"/>
	</defs>
	<clipPath id="SVGID_4_">
		<use xlink:href="#SVGID_3_"  style="overflow:visible;"/>
	</clipPath>
	<g class="st3">
		<polygon class="st4" points="-281.5,381.3 -271.3,381.3 -281.5,376.2 -281.5,373.2 -275.6,373.2 -261.3,380.3 -261.3,373.2 
			-253.3,373.2 -253.3,380.3 -239,373.2 -233.1,373.2 -233.1,376.2 -243.3,381.3 -233.1,381.3 -233.1,389.4 -243.3,389.4 
			-233.1,394.5 -233.1,397.5 -239,397.5 -253.3,390.3 -253.3,397.5 -261.3,397.5 -261.3,390.3 -275.6,397.5 -281.5,397.5 
			-281.5,394.5 -271.3,389.4 -281.5,389.4 		"/>
		<path d="M-232.9,397.6l-6.1,0l-14.1-7v7.1h-8.3v-7.1l-14.2,7.1h-6v-3.1l9.8-4.9h-9.8v-8.3h9.8l-9.8-4.9v-3.1l6,0l14.1,7v-7.1h8.3
			v7.1l14.2-7.1h6v3.1l-9.9,4.9h9.9v8.3h-9.9l9.9,4.9V397.6z M-238.9,397.3h5.7v-2.7l-10.2-5.1l0.1-0.2h10.2v-7.8h-10.2l-0.1-0.2
			l10.2-5.1v-2.7h-5.7l-14.5,7.2v-7.2h-7.8v7.2l-0.2-0.1l-14.3-7.1h-5.7v2.7l10.2,5.1l-0.1,0.2h-10.1v7.8h10.1l0.1,0.2l-10.2,5.1
			v2.7h5.7l14.5-7.2v7.2h7.8v-7.2l0.2,0.1L-238.9,397.3z"/>
	</g>
</g>
<g>
	<defs>
		<path id="SVGID_5_" d="M-204,420H-262c-3.8,0-7-3.1-7-7V381c0-3.8,3.1-7,7-7h58.1c3.8,0,7,3.1,7,7V413
			C-197,416.9-200.1,420-204,420z"/>
	</defs>
	<clipPath id="SVGID_6_">
		<use xlink:href="#SVGID_5_"  style="overflow:visible;"/>
	</clipPath>
	<g class="st5">
		<g>
			<polygon class="st6" points="-236.9,373.2 -253,381.3 -249.2,381.3 -233.1,373.2 			"/>
			<path d="M-249.2,381.4h-3.9l-0.1-0.2l16.2-8.1h3.8l0.1,0.2L-249.2,381.4z M-252.5,381.2h3.3l15.6-7.8h-3.3L-252.5,381.2z"/>
		</g>
		<g>
			<polygon class="st6" points="-233.1,397.5 -249.2,389.4 -245.3,389.4 -233.1,395.5 			"/>
			<path d="M-233.1,397.6l-16.1-8.1l0.1-0.2l3.9,0l12.2,6.2l0.1,0.1v1.9L-233.1,397.6z M-248.7,389.5l15.5,7.8v-1.6l-12.1-6.1
				H-248.7z"/>
		</g>
		<g>
			<polygon class="st6" points="-265.3,381.3 -281.5,373.2 -281.5,375.1 -269.2,381.3 			"/>
			<path d="M-265.3,381.4l-4,0l-12.3-6.2l-0.1-0.1v-1.9l0.2-0.1l16.2,8.1L-265.3,381.4z M-269.2,381.2h3.3l-15.5-7.8v1.7
				L-269.2,381.2z"/>
		</g>
		<g>
			<polygon class="st6" points="-265.3,389.4 -281.5,397.5 -277.6,397.5 -261.5,389.4 			"/>
			<path d="M-277.6,397.6h-3.9l-0.1-0.2l16.2-8.1h3.9l0.1,0.2L-277.6,397.6z M-281,397.3h3.3l15.7-7.8h-3.3L-281,397.3z"/>
		</g>
		<g>
			<polygon class="st6" points="-281.5,383 -259.6,383 -259.6,373.2 -254.9,373.2 -254.9,383 -233.1,383 -233.1,387.7 -254.9,387.7 
				-254.9,397.5 -259.6,397.5 -259.6,387.7 -281.5,387.7 			"/>
			<path d="M-254.8,397.6h-5v-9.8h-21.9v-5h21.9v-9.8h5v9.8h21.8v5h-21.8V397.6z M-259.5,397.3h4.5v-9.8h21.8v-4.5H-255v-9.8h-4.5
				v9.8h-21.9v4.5h21.9V397.3z"/>
		</g>
	</g>
</g>
<g>
	<defs>
		<path id="SVGID_7_" d="M-204,420H-262c-3.8,0-7-3.1-7-7V381c0-3.8,3.1-7,7-7h58.1c3.8,0,7,3.1,7,7V413
			C-197,416.9-200.1,420-204,420z"/>
	</defs>
	<clipPath id="SVGID_8_">
		<use xlink:href="#SVGID_7_"  style="overflow:visible;"/>
	</clipPath>
	<g class="st7">
		<g>
			<circle class="st4" cx="-208.7" cy="397.4" r="10.7"/>
			<path d="M-208.7,408.2c-5.9,0-10.8-4.8-10.8-10.8s4.8-10.8,10.8-10.8c5.9,0,10.8,4.8,10.8,10.8S-202.8,408.2-208.7,408.2z
				 M-208.7,386.8c-5.9,0-10.7,4.8-10.7,10.7c0,5.9,4.8,10.7,10.7,10.7c5.9,0,10.7-4.8,10.7-10.7
				C-198.1,391.5-202.9,386.8-208.7,386.8z"/>
		</g>
		<g>
			<path class="st8" d="M-208.7,397.4"/>
		</g>
	</g>
</g>
<g>
	<defs>
		<path id="SVGID_9_" d="M-204,420H-262c-3.8,0-7-3.1-7-7V381c0-3.8,3.1-7,7-7h58.1c3.8,0,7,3.1,7,7V413
			C-197,416.9-200.1,420-204,420z"/>
	</defs>
	<clipPath id="SVGID_10_">
		<use xlink:href="#SVGID_9_"  style="overflow:visible;"/>
	</clipPath>
	<g class="st9">
		<path class="st10" d="M-216.1,404.4c0.2,0.4,1.2,0.9,2.4,0.2c0.8-0.4,1.4-1.1,1.9-2.3c0.1-0.3,0.2-0.7-0.1-0.9
			c-0.3-0.2-0.7-0.4-0.9-0.6c-0.1-0.1-0.2-0.2-0.3-0.2c0.1,0,0.1,0.1,0.2,0.1c0.5,0.6,0,1.4-0.6,1.9c-0.4,0.4-1.1,1.3-2.1,0.4
			C-215.9,403-216.4,403.8-216.1,404.4z"/>
		<path d="M-214.9,405c-0.2,0-0.4,0-0.7-0.1c-0.3-0.1-0.5-0.3-0.6-0.5l0,0c-0.2-0.5,0-1.1,0.3-1.3c0.1-0.1,0.2-0.1,0.3,0
			c0.9,0.7,1.5,0.1,1.9-0.3c0,0,0.1-0.1,0.1-0.1c0.4-0.4,1-1.3,0.5-1.9c0-0.1-0.1-0.1-0.1-0.1c0,0,0,0,0,0l0.1-0.1c0,0,0,0,0,0l0,0
			l0,0c0,0,0,0,0,0c0.1,0.1,0.2,0.1,0.3,0.2c0.1,0.1,0.4,0.3,0.6,0.4c0.1,0.1,0.2,0.1,0.3,0.2c0.3,0.2,0.3,0.5,0.2,1
			c-0.5,1.2-1.1,1.8-1.9,2.3C-214.1,404.9-214.5,405-214.9,405z M-216.1,404.4c0,0.1,0.2,0.3,0.5,0.4c0.3,0.1,0.9,0.2,1.8-0.2
			c0.8-0.4,1.3-1.1,1.9-2.2c0.2-0.4,0.1-0.6-0.1-0.8c-0.1-0.1-0.2-0.1-0.3-0.2c-0.2-0.1-0.3-0.2-0.5-0.3c0.2,0.5-0.2,1.2-0.7,1.7
			c0,0-0.1,0.1-0.1,0.1c-0.4,0.4-1.1,1.1-2.1,0.3c0,0-0.1,0-0.1,0C-216,403.4-216.2,403.9-216.1,404.4z"/>
	</g>
</g>
<g>
	<defs>
		<path id="SVGID_11_" d="M-204,420H-262c-3.8,0-7-3.1-7-7V381c0-3.8,3.1-7,7-7h58.1c3.8,0,7,3.1,7,7V413
			C-197,416.9-200.1,420-204,420z"/>
	</defs>
	<clipPath id="SVGID_12_">
		<use xlink:href="#SVGID_11_"  style="overflow:visible;"/>
	</clipPath>
	<g class="st11">
		<path class="st10" d="M-201.4,404.4c-0.2,0.4-1.2,0.9-2.4,0.2c-0.8-0.4-1.4-1.1-1.9-2.3c-0.1-0.3-0.2-0.7,0.1-0.9
			c0.3-0.2,0.7-0.4,0.9-0.6c0.1-0.1,0.2-0.2,0.3-0.2c-0.1,0-0.1,0.1-0.2,0.1c-0.5,0.6,0,1.4,0.6,1.9c0.4,0.4,1.1,1.3,2.1,0.4
			C-201.6,403-201.1,403.8-201.4,404.4z"/>
		<path d="M-202.6,405c-0.4,0-0.8-0.1-1.2-0.3c-0.8-0.4-1.4-1.1-1.9-2.3c-0.2-0.4-0.1-0.8,0.2-1c0.1-0.1,0.2-0.1,0.3-0.2
			c0.2-0.1,0.5-0.3,0.6-0.4c0.1-0.1,0.2-0.2,0.3-0.2c0,0,0,0,0,0l0.1,0.1c0,0,0,0,0,0c0,0-0.1,0.1-0.1,0.1c-0.5,0.6,0.1,1.4,0.5,1.9
			c0,0,0.1,0.1,0.1,0.1c0.4,0.4,1.1,1,1.9,0.3c0.1-0.1,0.2-0.1,0.3,0c0.3,0.2,0.5,0.8,0.3,1.3l0,0c-0.1,0.2-0.3,0.4-0.6,0.5
			C-202.1,405-202.4,405-202.6,405z M-204.7,401c-0.1,0.1-0.3,0.2-0.5,0.3c-0.1,0.1-0.2,0.1-0.3,0.2c-0.2,0.2-0.3,0.4-0.1,0.8
			c0.5,1.2,1.1,1.8,1.9,2.2c0.8,0.5,1.5,0.3,1.8,0.2c0.3-0.1,0.5-0.3,0.5-0.4c0.2-0.5-0.1-1-0.3-1.2c0,0-0.1,0-0.1,0
			c-1,0.8-1.7,0.1-2.1-0.3c0,0-0.1-0.1-0.1-0.1C-204.5,402.3-204.9,401.6-204.7,401z"/>
	</g>
</g>
<g>
	<defs>
		<path id="SVGID_13_" d="M-204,420H-262c-3.8,0-7-3.1-7-7V381c0-3.8,3.1-7,7-7h58.1c3.8,0,7,3.1,7,7V413
			C-197,416.9-200.1,420-204,420z"/>
	</defs>
	<clipPath id="SVGID_14_">
		<use xlink:href="#SVGID_13_"  style="overflow:visible;"/>
	</clipPath>
	<g class="st12">
		<path class="st10" d="M-208.7,406.5c1.9,0,4.9-0.9,6.5-3.9c0.3-0.5,0-0.8-0.3-0.9c-0.3-0.2-0.8-0.5-1-0.7c0.4,0.4,0.3,0.7,0,1.1
			c-1.2,2.1-2.9,3.1-5.3,3.1c-2.4,0-4.1-1-5.3-3.1c-0.3-0.4-0.3-0.7,0-1.1c-0.2,0.2-0.6,0.6-1,0.7c-0.3,0.1-0.6,0.4-0.3,0.9
			C-213.7,405.6-210.7,406.5-208.7,406.5z"/>
		<path d="M-208.7,406.5c-2.2,0-5.1-1-6.6-4c-0.1-0.2-0.1-0.4-0.1-0.6c0.1-0.2,0.2-0.3,0.4-0.4c0.3-0.1,0.7-0.5,0.9-0.7c0,0,0,0,0,0
			l0.1,0.1c0,0,0,0,0,0c-0.3,0.3-0.3,0.6,0,1c1.2,2.1,3,3.1,5.2,3.1c2.3,0,4-1,5.2-3.1c0.2-0.4,0.3-0.7,0-1c0,0,0,0,0,0l0.1-0.1
			c0,0,0,0,0,0c0.2,0.2,0.6,0.5,0.9,0.7c0.2,0.1,0.4,0.2,0.4,0.4c0.1,0.2,0,0.4-0.1,0.6C-203.7,405.5-206.6,406.5-208.7,406.5z
			 M-214.3,401.3c-0.2,0.2-0.4,0.3-0.6,0.4c-0.2,0.1-0.3,0.2-0.4,0.4c0,0.1,0,0.3,0.1,0.5c1.5,2.9,4.3,3.9,6.5,3.9s5-1,6.5-3.9
			c0.1-0.2,0.1-0.4,0.1-0.5c0-0.1-0.2-0.3-0.4-0.4c-0.2-0.1-0.4-0.3-0.6-0.4c0.1,0.2,0,0.5-0.2,0.8c-1.3,2.1-3,3.1-5.3,3.1
			s-4.1-1-5.3-3.1C-214.3,401.8-214.4,401.5-214.3,401.3z"/>
	</g>
</g>
<g>
	<defs>
		<path id="SVGID_15_" d="M-204,420H-262c-3.8,0-7-3.1-7-7V381c0-3.8,3.1-7,7-7h58.1c3.8,0,7,3.1,7,7V413
			C-197,416.9-200.1,420-204,420z"/>
	</defs>
	<clipPath id="SVGID_16_">
		<use xlink:href="#SVGID_15_"  style="overflow:visible;"/>
	</clipPath>
	<g class="st13">
		<g>
			<path class="st6" d="M-213.2,402.4c0-0.2-0.4-0.2-0.5,0.2c-0.1-0.2-0.2-0.3-0.3-0.5c-0.3-0.5-0.3-0.7,0.1-1.2
				c0.2-0.2,0.6-0.4,0.8-0.2C-212.6,401.2-212.8,401.9-213.2,402.4z"/>
			<path d="M-213.7,402.7L-213.7,402.7c-0.2-0.3-0.3-0.5-0.4-0.6c-0.3-0.5-0.3-0.8,0.1-1.2c0.2-0.2,0.6-0.5,0.9-0.2
				c0.5,0.5,0.3,1.2-0.1,1.8l-0.1,0.1l0-0.1c0-0.1,0-0.1-0.1-0.1c0,0,0,0,0,0c-0.1,0-0.2,0.1-0.3,0.2L-213.7,402.7z M-213.4,400.7
				c-0.2,0-0.4,0.2-0.5,0.3c-0.4,0.4-0.3,0.6-0.1,1.1c0.1,0.1,0.2,0.3,0.3,0.4c0.1-0.1,0.2-0.2,0.3-0.2c0,0,0,0,0,0
				c0.1,0,0.1,0,0.1,0.1c0.3-0.4,0.6-1.1,0.1-1.5C-213.2,400.7-213.3,400.7-213.4,400.7z"/>
		</g>
		<g>
			<path class="st6" d="M-204.3,402.4c0-0.2,0.4-0.2,0.5,0.2c0.1-0.2,0.2-0.3,0.3-0.5c0.3-0.5,0.3-0.7-0.1-1.2
				c-0.2-0.2-0.6-0.4-0.8-0.2C-204.9,401.2-204.7,401.9-204.3,402.4z"/>
			<path d="M-203.8,402.7l0-0.1c-0.1-0.2-0.2-0.2-0.3-0.2c0,0,0,0,0,0c0,0-0.1,0-0.1,0.1l0,0.1l-0.1-0.1c-0.4-0.5-0.7-1.3-0.1-1.8
				c0.3-0.3,0.7,0,0.9,0.2c0.4,0.4,0.4,0.8,0.1,1.2C-203.5,402.3-203.6,402.4-203.8,402.7L-203.8,402.7z M-204.1,402.2
				c0.1,0,0.2,0.1,0.3,0.2c0.1-0.1,0.2-0.3,0.3-0.4c0.3-0.4,0.3-0.7-0.1-1.1c-0.2-0.2-0.5-0.4-0.8-0.2c-0.5,0.5-0.2,1.1,0.1,1.5
				C-204.2,402.2-204.2,402.2-204.1,402.2C-204.1,402.2-204.1,402.2-204.1,402.2z"/>
		</g>
		<g>
			<path class="st6" d="M-216.1,404.4c-0.2-0.4-0.4-1.3-0.5-1.6c-0.1-0.2-0.1-0.4,0.2-0.5c0.3-0.1,0.5,0.2,0.6,0.5
				c0.1,0.3,0.3,0.7,0.5,1.3C-215.8,403.8-216.2,404-216.1,404.4z"/>
			<path d="M-216.2,404.5c-0.2-0.3-0.4-1.1-0.5-1.4c0-0.1,0-0.1,0-0.1c-0.1-0.2-0.1-0.5,0.2-0.6c0,0,0.1,0,0.1,0
				c0.3,0,0.5,0.3,0.6,0.6c0.1,0.2,0.2,0.4,0.3,0.7c0.1,0.2,0.2,0.4,0.2,0.6l0.1,0.2l-0.2-0.1c-0.3-0.2-0.6-0.2-0.7-0.1
				c-0.1,0.1-0.1,0.2-0.1,0.3L-216.2,404.5z M-216.3,402.4C-216.4,402.4-216.4,402.4-216.3,402.4c-0.3,0.1-0.3,0.2-0.2,0.5
				c0,0,0,0.1,0,0.1c0.1,0.3,0.2,0.8,0.3,1.2c0-0.1,0.1-0.1,0.1-0.2c0.1-0.1,0.4-0.1,0.7,0c-0.1-0.1-0.1-0.3-0.2-0.4
				c-0.1-0.3-0.2-0.5-0.3-0.7C-215.9,402.7-216.1,402.4-216.3,402.4z"/>
		</g>
		<g>
			<path class="st6" d="M-201.4,404.4c0.2-0.4,0.4-1.3,0.5-1.6c0.1-0.2,0.1-0.4-0.2-0.5c-0.3-0.1-0.5,0.2-0.6,0.5
				c-0.1,0.3-0.3,0.7-0.5,1.3C-201.7,403.8-201.3,404-201.4,404.4z"/>
			<path d="M-201.3,404.5l-0.1,0c0-0.1,0-0.2-0.1-0.3c-0.1-0.1-0.4-0.1-0.7,0.1l-0.2,0.1l0.1-0.2c0.1-0.2,0.2-0.4,0.2-0.5
				c0.1-0.3,0.2-0.5,0.3-0.7c0.1-0.3,0.4-0.7,0.7-0.6c0.3,0.1,0.3,0.4,0.2,0.6c0,0,0,0.1,0,0.1
				C-200.9,403.4-201.1,404.1-201.3,404.5z M-201.7,403.9c0.1,0,0.2,0,0.3,0.1c0.1,0,0.1,0.1,0.1,0.1c0.1-0.4,0.3-0.9,0.3-1.2
				c0-0.1,0-0.1,0-0.1c0.1-0.3,0.1-0.4-0.1-0.4c-0.2-0.1-0.5,0.3-0.6,0.5c-0.1,0.2-0.2,0.5-0.3,0.7c0,0.1-0.1,0.2-0.2,0.4
				C-202,403.9-201.8,403.9-201.7,403.9z"/>
		</g>
	</g>
</g>
<g>
	<defs>
		<path id="SVGID_17_" d="M-204,420H-262c-3.8,0-7-3.1-7-7V381c0-3.8,3.1-7,7-7h58.1c3.8,0,7,3.1,7,7V413
			C-197,416.9-200.1,420-204,420z"/>
	</defs>
	<clipPath id="SVGID_18_">
		<use xlink:href="#SVGID_17_"  style="overflow:visible;"/>
	</clipPath>
	<g class="st14">
		<path class="st4" d="M-204.2,393.4c0,1,0,3.6,0,4.7c0,4.1-2,5.5-4.5,6.6c-2.6-1.1-4.5-2.5-4.5-6.6c0-1.1,0-3.7,0-4.7H-204.2z"/>
		<path d="M-208.7,404.9L-208.7,404.9c-2.3-1-4.6-2.3-4.6-6.7v-4.8h9.2v4.8C-204.1,402.5-206.4,403.9-208.7,404.9L-208.7,404.9z
			 M-213.2,393.5v4.7c0,4.3,2.2,5.6,4.5,6.5c2.3-1,4.5-2.3,4.5-6.5v-4.7H-213.2z"/>
	</g>
</g>
<g>
	<defs>
		<path id="SVGID_19_" d="M-204,420H-262c-3.8,0-7-3.1-7-7V381c0-3.8,3.1-7,7-7h58.1c3.8,0,7,3.1,7,7V413
			C-197,416.9-200.1,420-204,420z"/>
	</defs>
	<clipPath id="SVGID_20_">
		<use xlink:href="#SVGID_19_"  style="overflow:visible;"/>
	</clipPath>
	<g class="st15">
		<path class="st6" d="M-208.7,397.5c0.2,0,0.6-0.2,0.8-0.5c0.3-0.3,0.8-0.5,1.4,0c0.6,0.5,0.9,0.3,1.2,0c0.3-0.3,0.5-0.4,1.1-0.4
			c0-1.2,0-2.5,0-3.2h-9.1c0,0.7,0,2,0,3.2c0.6,0,0.8,0.1,1.1,0.4c0.3,0.3,0.6,0.5,1.2,0c0.6-0.5,1.1-0.3,1.4,0
			C-209.3,397.3-209,397.5-208.7,397.5z"/>
		<path d="M-208.7,397.5c-0.3,0-0.6-0.2-0.9-0.5c-0.4-0.4-0.9-0.4-1.3,0c-0.6,0.5-1,0.3-1.3,0c-0.3-0.3-0.5-0.3-1-0.3h-0.1v-3.3h9.2
			v3.3h-0.1c-0.5,0-0.8,0.1-1,0.3c-0.3,0.3-0.7,0.5-1.3,0c-0.5-0.4-1-0.4-1.3,0C-208.2,397.3-208.5,397.5-208.7,397.5z
			 M-210.3,396.6c0.3,0,0.5,0.1,0.7,0.3c0.3,0.3,0.6,0.5,0.8,0.5s0.5-0.2,0.8-0.5c0.3-0.3,0.9-0.5,1.5,0c0.5,0.4,0.8,0.3,1.1,0
			c0.3-0.3,0.6-0.4,1.1-0.4v-3h-9v3c0.5,0,0.8,0.1,1.1,0.4c0.3,0.2,0.6,0.4,1.1,0C-210.8,396.7-210.5,396.6-210.3,396.6z"/>
	</g>
</g>
<g>
	<defs>
		<path id="SVGID_21_" d="M-204,420H-262c-3.8,0-7-3.1-7-7V381c0-3.8,3.1-7,7-7h58.1c3.8,0,7,3.1,7,7V413
			C-197,416.9-200.1,420-204,420z"/>
	</defs>
	<clipPath id="SVGID_22_">
		<use xlink:href="#SVGID_21_"  style="overflow:visible;"/>
	</clipPath>
	<g class="st16">
		<g>
			<path class="st17" d="M-208.7,399.9c0.3,0,0.9-0.3,1-0.4c0.5-0.3,0.9,0,1.2,0.1c0.3,0.1,1,0.3,1.4,0c0.4-0.3,0.6-0.3,0.9-0.3
				c0-0.4,0.1-0.7,0.1-1.1c0-0.1,0-0.2,0-0.3c-0.3-0.1-0.5,0-0.9,0.3c-0.4,0.3-0.8,0.2-1.3,0c-0.5-0.2-1-0.6-1.5,0
				c-0.2,0.2-0.5,0.4-0.8,0.4c-0.4,0-0.7-0.3-0.8-0.4c-0.5-0.6-1-0.2-1.5,0c-0.5,0.2-1,0.3-1.3,0c-0.4-0.3-0.5-0.4-0.9-0.3
				c0,0.1,0,0.2,0,0.3c0,0.4,0,0.8,0.1,1.1c0.3,0,0.5,0,0.9,0.3c0.4,0.3,1,0.1,1.4,0c0.3-0.1,0.7-0.4,1.2-0.1
				C-209.6,399.6-209,399.9-208.7,399.9z"/>
			<path d="M-208.7,399.9c-0.3,0-0.8-0.3-1.1-0.4c-0.4-0.2-0.8-0.1-1,0.1c0,0-0.1,0-0.1,0.1c-0.1,0-0.9,0.4-1.4,0
				c-0.3-0.3-0.5-0.3-0.8-0.3c0,0,0,0,0,0h-0.1l0-0.1c0-0.4-0.1-0.7-0.1-1.1v-0.3l0,0c0.4-0.1,0.6,0,0.9,0.4c0.3,0.3,0.7,0.2,1.2,0
				c0.1,0,0.2-0.1,0.2-0.1c0.4-0.2,0.9-0.4,1.3,0.1c0.2,0.2,0.5,0.4,0.8,0.4c0.3,0,0.7-0.3,0.8-0.4c0.5-0.5,0.9-0.3,1.3-0.1
				c0.1,0,0.2,0.1,0.2,0.1c0.5,0.2,0.9,0.3,1.2,0c0.4-0.3,0.5-0.4,0.9-0.4l0,0v0.3c0,0.4,0,0.8-0.1,1.1l0,0.1h-0.1
				c-0.2,0-0.4,0-0.8,0.3c-0.4,0.3-1,0.2-1.4,0c0,0-0.1,0-0.1-0.1c-0.3-0.1-0.6-0.3-1-0.1C-207.9,399.7-208.4,399.9-208.7,399.9z
				 M-210.2,399.3c0.2,0,0.3,0,0.5,0.1c0.3,0.2,0.8,0.4,1,0.4c0.3,0,0.8-0.3,1-0.4c0.5-0.3,0.9-0.1,1.2,0.1c0,0,0.1,0,0.1,0.1
				c0.3,0.1,0.9,0.3,1.3,0c0.4-0.3,0.6-0.3,0.8-0.3c0,0,0,0,0,0c0-0.3,0-0.7,0-1.1v-0.2c-0.3-0.1-0.4,0-0.8,0.3
				c-0.4,0.4-0.9,0.2-1.4,0c-0.1,0-0.2-0.1-0.3-0.1c-0.4-0.2-0.8-0.4-1.2,0.1c-0.2,0.2-0.5,0.5-0.9,0.5c-0.4,0-0.7-0.2-0.9-0.5
				c-0.4-0.5-0.8-0.3-1.2-0.1c-0.1,0-0.2,0.1-0.3,0.1c-0.5,0.2-1,0.3-1.4,0c-0.3-0.3-0.5-0.4-0.8-0.3v0.2c0,0.4,0,0.7,0,1.1
				c0,0,0,0,0,0c0.2,0,0.5,0,0.8,0.3c0.4,0.3,1,0.1,1.3,0c0,0,0.1,0,0.1-0.1C-210.7,399.4-210.5,399.3-210.2,399.3z"/>
		</g>
		<g>
			<path class="st17" d="M-208.7,400.9c0.4,0,0.8-0.1,1.2-0.4c0.5-0.3,0.8-0.1,1.3,0.1c0.5,0.2,0.9,0.2,1.2,0
				c0.2-0.1,0.3-0.3,0.6-0.2c-0.2,0.6-0.4,1.1-0.6,1.6c-0.5,0.1-0.8,0.1-1.3-0.1c-0.5-0.2-1.1-0.4-1.5-0.2c-0.3,0.2-0.7,0.3-0.9,0.3
				c-0.3,0-0.6-0.1-0.9-0.3c-0.3-0.2-1-0.1-1.5,0.2c-0.5,0.2-0.8,0.2-1.3,0.1c-0.3-0.5-0.5-1-0.6-1.6c0.3-0.1,0.4,0.1,0.6,0.2
				c0.3,0.2,0.7,0.3,1.2,0c0.5-0.2,0.8-0.4,1.3-0.1C-209.5,400.8-209.1,400.9-208.7,400.9z"/>
			<path d="M-205.6,402.1c-0.2,0-0.5-0.1-0.8-0.2c-0.5-0.2-1.1-0.4-1.4-0.2c-0.3,0.2-0.7,0.3-1,0.3c-0.3,0-0.6-0.1-1-0.3
				s-1,0-1.4,0.2c-0.5,0.2-0.8,0.2-1.3,0.1l0,0l0,0c-0.3-0.5-0.5-1-0.6-1.6l0-0.1l0.1,0c0.3-0.1,0.4,0,0.6,0.1c0,0,0.1,0,0.1,0.1
				c0.1,0.1,0.6,0.3,1.1,0c0.5-0.2,0.9-0.4,1.4-0.1c0.4,0.2,0.8,0.4,1.2,0.4s0.8-0.1,1.2-0.4c0.5-0.3,0.9-0.1,1.4,0.1
				c0.6,0.3,1,0.1,1.1,0c0,0,0.1,0,0.1-0.1c0.1-0.1,0.3-0.2,0.6-0.1l0.1,0l0,0.1c-0.1,0.6-0.4,1.1-0.6,1.6l0,0l0,0
				C-205.3,402.1-205.4,402.1-205.6,402.1z M-207.4,401.6c0.3,0,0.7,0.1,1.1,0.3c0.5,0.2,0.7,0.2,1.2,0.1c0.3-0.4,0.5-0.9,0.6-1.5
				c-0.2,0-0.3,0-0.4,0.1c0,0-0.1,0.1-0.1,0.1c-0.2,0.1-0.6,0.3-1.3,0c-0.5-0.2-0.8-0.4-1.3-0.1c-0.4,0.2-0.9,0.4-1.2,0.4
				s-0.8-0.1-1.2-0.4c-0.5-0.3-0.8-0.1-1.3,0.1c-0.4,0.2-0.9,0.2-1.3,0c0,0-0.1,0-0.1-0.1c-0.1-0.1-0.2-0.2-0.4-0.1
				c0.1,0.5,0.3,1,0.6,1.5c0.5,0.1,0.7,0.1,1.2-0.1c0.5-0.2,1.2-0.4,1.5-0.2c0.3,0.2,0.6,0.3,0.9,0.3c0.3,0,0.6-0.1,0.9-0.3
				C-207.7,401.6-207.6,401.6-207.4,401.6z"/>
		</g>
		<g>
			<path class="st17" d="M-208.7,404.8c1-0.4,1.9-0.9,2.6-1.5c-0.2-0.1-0.3,0-0.5-0.1c-0.2-0.1-0.7-0.2-1.1,0.1
				c-0.4,0.2-0.6,0.3-1,0.3c-0.3,0-0.5,0-1-0.3c-0.4-0.2-0.9-0.2-1.1-0.1s-0.3,0.1-0.5,0.1C-210.6,403.9-209.7,404.4-208.7,404.8z"
				/>
			<path d="M-208.7,404.9L-208.7,404.9c-0.8-0.3-1.8-0.8-2.6-1.5l-0.1-0.1l0.1,0c0.1,0,0.1,0,0.2,0c0.1,0,0.2,0,0.3-0.1
				c0.2-0.2,0.7-0.2,1.2,0.1c0.4,0.2,0.6,0.3,1,0.3c0.3,0,0.5,0,1-0.3c0.4-0.2,1-0.2,1.2-0.1c0.1,0.1,0.2,0.1,0.3,0.1
				c0.1,0,0.1,0,0.2,0l0.1,0l-0.1,0.1C-206.9,404-207.9,404.5-208.7,404.9L-208.7,404.9z M-211.2,403.3c0.8,0.6,1.7,1.1,2.5,1.4
				c0.7-0.3,1.7-0.8,2.5-1.4c0,0,0,0-0.1,0c-0.1,0-0.2,0-0.3-0.1c-0.2-0.1-0.6-0.1-1.1,0.1c-0.5,0.2-0.7,0.3-1,0.3s-0.6,0-1-0.3
				c-0.4-0.2-0.9-0.2-1.1-0.1C-210.9,403.3-211,403.3-211.2,403.3C-211.2,403.3-211.2,403.3-211.2,403.3z"/>
		</g>
	</g>
</g>
<g>
	<defs>
		<path id="SVGID_23_" d="M-204,420H-262c-3.8,0-7-3.1-7-7V381c0-3.8,3.1-7,7-7h58.1c3.8,0,7,3.1,7,7V413
			C-197,416.9-200.1,420-204,420z"/>
	</defs>
	<clipPath id="SVGID_24_">
		<use xlink:href="#SVGID_23_"  style="overflow:visible;"/>
	</clipPath>
	<g class="st18">
		<g>
			<g>
				<path class="st4" d="M-210.6,393.4c-0.3,0.1-0.5,0.1-0.8-0.2c-0.2-0.2-0.1-0.5,0.1-0.7c0.2-0.1,0.4-0.2,0.7-0.2
					c0.3,0.1,1,0.7,0.8,0.7C-210.1,393.2-210.3,393.4-210.6,393.4z"/>
				<path d="M-210.9,393.5c-0.2,0-0.3-0.1-0.5-0.2c-0.1-0.1-0.2-0.3-0.1-0.4c0-0.2,0.1-0.3,0.2-0.4c0.2-0.1,0.4-0.3,0.7-0.2
					c0.2,0.1,0.9,0.6,0.9,0.8c0,0,0,0.1-0.1,0.1c-0.1,0-0.2,0.1-0.3,0.1c-0.1,0.1-0.2,0.1-0.4,0.1l0,0
					C-210.7,393.5-210.8,393.5-210.9,393.5z M-210.9,392.5c-0.2,0-0.3,0.1-0.5,0.2c-0.1,0.1-0.1,0.2-0.2,0.3c0,0.1,0,0.2,0.1,0.3
					c0.3,0.2,0.4,0.2,0.8,0.2l0,0c0.1,0,0.2-0.1,0.4-0.1c0.1-0.1,0.2-0.1,0.3-0.1c-0.1-0.1-0.5-0.6-0.8-0.6
					C-210.8,392.5-210.8,392.5-210.9,392.5z"/>
			</g>
			<g>
				<path class="st4" d="M-209.8,392.3c0.1-0.1,0.2-0.1,0.5-0.1c0.3,0,0.5,0,0.6,0.2c0.1,0.3,0.2,0.6,0.4,0.7
					c-0.1,0.1-0.7,0.2-0.9,0C-209.6,392.9-209.7,392.4-209.8,392.3z"/>
				<path d="M-208.9,393.2c-0.2,0-0.3,0-0.4-0.1c-0.2-0.1-0.3-0.3-0.4-0.5c-0.1-0.1-0.1-0.2-0.2-0.3l-0.1,0l0.1-0.1
					c0.1-0.1,0.3-0.1,0.6-0.2c0.3,0,0.6,0,0.7,0.2c0,0.1,0,0.1,0.1,0.2c0.1,0.2,0.1,0.4,0.3,0.5l0.1,0.1l-0.1,0
					C-208.4,393.1-208.7,393.2-208.9,393.2z M-209.7,392.3c0.1,0.1,0.1,0.2,0.1,0.3c0.1,0.2,0.2,0.4,0.3,0.5c0.2,0.1,0.6,0.1,0.8,0
					c-0.1-0.1-0.2-0.3-0.3-0.5c0-0.1,0-0.1-0.1-0.2c-0.1-0.2-0.2-0.2-0.5-0.1C-209.6,392.2-209.7,392.2-209.7,392.3z"/>
			</g>
			<g>
				<path class="st4" d="M-207.8,392.3c0.1-0.1,0.2-0.1,0.5-0.1c0.3,0,0.4,0.1,0.5,0.3c0.1,0.3,0,0.6,0.2,0.8
					c-0.1,0.1-0.6,0.1-0.8-0.1C-207.6,393-207.6,392.4-207.8,392.3z"/>
				<path d="M-206.8,393.4c-0.2,0-0.5,0-0.6-0.2c-0.2-0.1-0.2-0.4-0.3-0.6c0-0.1-0.1-0.3-0.1-0.3l-0.1-0.1l0.1,0
					c0.1-0.1,0.3-0.1,0.6-0.1c0.3,0,0.5,0.1,0.6,0.3c0,0.1,0,0.2,0,0.3c0,0.2,0,0.3,0.1,0.4l0,0.1l-0.1,0
					C-206.6,393.4-206.7,393.4-206.8,393.4z M-207.7,392.3c0,0.1,0.1,0.2,0.1,0.3c0,0.2,0.1,0.4,0.2,0.5c0.1,0.1,0.5,0.1,0.7,0.1
					c-0.1-0.1-0.1-0.3-0.1-0.4c0-0.1,0-0.2,0-0.3c0-0.2-0.1-0.2-0.4-0.2C-207.5,392.3-207.6,392.3-207.7,392.3z"/>
			</g>
		</g>
		<g>
			<g>
				<path class="st1" d="M-206.3,392.4c-0.2-0.1-0.4-0.1-0.5,0c0.1,0.1,0,0.7,0.3,0.9c0.2,0.1,0.6,0.1,0.7-0.1
					C-205.7,393-205.7,392.6-206.3,392.4z"/>
				<path d="M-206.2,393.5c-0.1,0-0.3,0-0.4-0.1c-0.2-0.1-0.2-0.4-0.2-0.6c0-0.1,0-0.3-0.1-0.3l-0.1-0.1l0.1,0
					c0.1-0.1,0.3-0.1,0.5,0l0,0c0.3,0.1,0.5,0.2,0.6,0.4c0.1,0.1,0.1,0.3,0,0.5c0,0.1-0.1,0.2-0.2,0.2
					C-206,393.5-206.1,393.5-206.2,393.5z M-206.7,392.5c0,0.1,0,0.2,0.1,0.3c0,0.2,0,0.4,0.2,0.5c0.1,0.1,0.3,0.1,0.5,0
					c0.1,0,0.1-0.1,0.2-0.1c0.1-0.2,0.1-0.3,0-0.4c-0.1-0.1-0.2-0.2-0.5-0.3l0,0C-206.5,392.4-206.6,392.4-206.7,392.5z"/>
			</g>
			<g>
				<path class="st1" d="M-208.8,392.2c0.1-0.1,0.2-0.1,0.5-0.1s0.5,0,0.6,0.2c0.1,0.2,0.1,0.6,0.3,0.8c-0.1,0.1-0.7,0.1-0.9-0.1
					C-208.6,392.9-208.7,392.3-208.8,392.2z"/>
				<path d="M-207.8,393.2c-0.2,0-0.5,0-0.6-0.1c-0.2-0.1-0.3-0.3-0.3-0.6c0-0.1-0.1-0.3-0.1-0.3l-0.1,0l0.1,0
					c0.1-0.1,0.3-0.1,0.6-0.1c0,0,0,0,0,0c0.3,0,0.5,0,0.6,0.3c0,0.1,0.1,0.2,0.1,0.3c0,0.2,0.1,0.3,0.2,0.4l0,0l0,0
					C-207.4,393.2-207.6,393.2-207.8,393.2z M-208.7,392.2c0,0.1,0.1,0.2,0.1,0.3c0.1,0.2,0.1,0.4,0.3,0.5c0.2,0.1,0.6,0.1,0.8,0.1
					c-0.1-0.1-0.1-0.3-0.1-0.4c0-0.1,0-0.2-0.1-0.3c-0.1-0.1-0.2-0.2-0.5-0.2c0,0,0,0,0,0C-208.5,392.2-208.6,392.2-208.7,392.2z"/>
			</g>
			<g>
				<path class="st1" d="M-210.9,392.4c0-0.1,0.2-0.1,0.6-0.2c0.4,0,0.5,0,0.6,0.3c0.1,0.2,0.2,0.5,0.4,0.5c-0.5,0.1-0.7,0.2-1,0
					c-0.2-0.1-0.5-0.4-0.5-0.5C-210.8,392.5-210.8,392.4-210.9,392.4z"/>
				<path d="M-210,393.3c-0.1,0-0.2,0-0.4-0.1c-0.2-0.1-0.5-0.4-0.5-0.6c0,0,0-0.1,0-0.1c0,0,0,0,0,0l0,0l0,0c0-0.2,0.2-0.2,0.7-0.2
					c0.4,0,0.5,0,0.7,0.3l0,0c0.1,0.1,0.2,0.4,0.3,0.5l0.2,0.1l-0.2,0c-0.1,0-0.1,0-0.2,0C-209.7,393.2-209.8,393.3-210,393.3z
					 M-210.8,392.4C-210.8,392.4-210.8,392.4-210.8,392.4c0,0.1,0,0.1,0.1,0.2c0,0.1,0.3,0.4,0.5,0.5c0.2,0.1,0.4,0.1,0.8,0
					c0,0,0,0,0.1,0c-0.1-0.1-0.2-0.3-0.3-0.5l0,0c-0.1-0.3-0.1-0.3-0.5-0.3C-210.5,392.3-210.7,392.3-210.8,392.4z"/>
			</g>
		</g>
	</g>
</g>
<g>
	<defs>
		<path id="SVGID_25_" d="M-204,420H-262c-3.8,0-7-3.1-7-7V381c0-3.8,3.1-7,7-7h58.1c3.8,0,7,3.1,7,7V413
			C-197,416.9-200.1,420-204,420z"/>
	</defs>
	<clipPath id="SVGID_26_">
		<use xlink:href="#SVGID_25_"  style="overflow:visible;"/>
	</clipPath>
	<g class="st19">
		<g>
			<g>
				<path class="st20" d="M-209.7,389.9c-0.5-0.4-1.1-0.7-1.7-0.8c0.4,0.2,1.4,1,1.6,1.3"/>
				<path d="M-209.8,390.4c-0.3-0.3-1.3-1.1-1.6-1.3l0-0.1c0.7,0.1,1.3,0.6,1.7,0.8l-0.1,0.1c-0.5-0.4-0.9-0.6-1.3-0.7
					C-210.6,389.6-209.9,390.1-209.8,390.4L-209.8,390.4z"/>
			</g>
			<g>
				<path class="st20" d="M-209.4,389.6c-0.6-0.4-1.3-0.9-2-0.9c0.5,0.3,1.3,0.9,1.7,1.4"/>
				<path d="M-209.8,390.1c-0.4-0.5-1.1-1.1-1.6-1.4l0-0.1c0.7,0,1.4,0.5,2,0.9l-0.1,0.1c-0.5-0.4-1.1-0.7-1.6-0.9
					C-210.6,389.1-210,389.6-209.8,390.1L-209.8,390.1z"/>
			</g>
			<g>
				<path class="st20" d="M-208.6,388.9c0.3-0.7,0.7-1.1,1.2-1.6c-0.3,0.5-0.5,1.5-0.6,2"/>
				<path d="M-208,389.3l-0.1,0l0-0.2c0.1-0.4,0.3-1,0.5-1.5c-0.4,0.4-0.7,0.8-0.9,1.4l-0.1-0.1c0.3-0.7,0.7-1.1,1.2-1.6l0.1,0.1
					c-0.2,0.4-0.5,1.3-0.6,1.8L-208,389.3z"/>
			</g>
			<g>
				<path class="st20" d="M-208.1,388.8c0.3-0.5,0.6-1,1.2-1.3c-0.3,0.3-0.8,1.3-0.9,1.8"/>
				<path d="M-207.7,389.3l-0.1,0c0.1-0.4,0.4-1.1,0.7-1.5c-0.4,0.2-0.7,0.6-0.9,1.1l-0.1-0.1c0.3-0.6,0.7-1.1,1.3-1.3l0.1,0.1
					C-207.1,387.8-207.6,388.8-207.7,389.3z"/>
			</g>
			<g>
				<path class="st20" d="M-207.9,389.2c0.3-0.4,0.9-1.2,1.9-1.6c-0.6,0.6-1.5,1.7-1.7,2.2"/>
				<path d="M-207.6,389.8l-0.1-0.1c0.2-0.4,0.9-1.3,1.5-2c-0.9,0.4-1.4,1.1-1.6,1.5l-0.1-0.1c0.3-0.4,0.8-1.2,2-1.6l0.1,0.1
					C-206.5,388.3-207.4,389.4-207.6,389.8z"/>
			</g>
			<g>
				<path class="st20" d="M-207.6,389.8c0.4-0.2,1.3-0.6,2-0.5c-0.4,0.1-1.6,0.7-2.1,1.2"/>
				<path d="M-207.6,390.5L-207.6,390.5c0.3-0.5,1.2-0.9,1.8-1.2c0,0,0,0,0,0c-0.5,0-1.2,0.3-1.7,0.5l-0.1-0.1
					c0.3-0.2,1.3-0.7,2-0.5l0.2,0l-0.2,0.1C-206,389.5-207.1,390-207.6,390.5z"/>
			</g>
			<g>
				<path class="st20" d="M-207.6,389.6c0.4-0.4,1.2-1.1,2-1.3c-0.6,0.6-1.8,1.8-2,2"/>
				<path d="M-207.6,390.3L-207.6,390.3c0.1-0.3,1.1-1.3,1.7-1.9c-0.6,0.3-1.3,0.8-1.6,1.2l-0.1-0.1c0.5-0.5,1.2-1.1,2-1.4l0.1,0.1
					C-206.2,388.9-207.4,390.1-207.6,390.3z"/>
			</g>
			<g>
				<path class="st20" d="M-208.8,389.4c-0.3-0.9-0.7-1.8-1.4-2c0.4,0.5,0.8,1.3,1.1,2.5"/>
				<path d="M-209.2,389.8c-0.2-1.1-0.7-1.9-1-2.4l-0.1-0.2l0.2,0.1c0.7,0.3,1.2,1.3,1.4,2.1l-0.1,0c-0.3-0.9-0.7-1.6-1.1-1.9
					c0.3,0.5,0.7,1.3,0.9,2.3L-209.2,389.8z"/>
			</g>
			<g>
				<path class="st20" d="M-209.4,389.3c-0.5-0.6-1.2-1.2-1.9-1.3c0.5,0.3,1.3,1.1,1.7,2"/>
				<path d="M-209.7,390c-0.3-0.8-1.2-1.6-1.6-2l0-0.1c0.6,0.1,1.3,0.6,1.9,1.3l-0.1,0.1c-0.5-0.6-1-1-1.5-1.2
					c0.5,0.4,1.1,1.1,1.4,1.8L-209.7,390z"/>
			</g>
			<g>
				<path class="st20" d="M-209.1,389.3c-0.6-1.1-1.1-1.3-1.3-1.5c0.2,0.4,0.7,1.5,1.1,2"/>
				<path d="M-209.4,389.8c-0.2-0.3-0.5-1-0.8-1.5c-0.1-0.2-0.2-0.4-0.3-0.5l0.1-0.1c0,0,0.1,0.1,0.2,0.1c0.3,0.2,0.7,0.5,1.2,1.4
					l-0.1,0.1c-0.5-0.8-0.8-1.1-1.1-1.3c0,0.1,0.1,0.2,0.1,0.3c0.3,0.5,0.6,1.1,0.8,1.5L-209.4,389.8z"/>
			</g>
		</g>
		<g>
			<g>
				<path d="M-209.5,390.1c-0.1-0.2-0.6-0.6-0.9-0.8l0.1-0.1c0.3,0.2,0.7,0.6,0.9,0.9L-209.5,390.1z"/>
			</g>
			<g>
				<path d="M-209.7,390.3c-0.2-0.1-0.3-0.2-0.4-0.3c-0.1-0.1-0.2-0.1-0.2-0.2l0.1-0.1c0.1,0,0.1,0.1,0.2,0.2
					C-209.9,389.9-209.8,390-209.7,390.3L-209.7,390.3z"/>
			</g>
			<g>
				<path d="M-207.4,390.2L-207.4,390.2c0.2-0.3,0.7-0.6,1-0.7l0,0.1C-206.6,389.6-207.2,390-207.4,390.2z"/>
			</g>
			<g>
				<path d="M-207.5,390L-207.5,390c0.2-0.4,0.6-0.8,0.8-1l0.1,0.1C-206.8,389.2-207.3,389.7-207.5,390z"/>
			</g>
			<g>
				<path d="M-207.8,389.6l-0.1-0.1c0.2-0.3,0.7-0.9,0.9-1.1l0.1,0.1C-207.1,388.7-207.6,389.3-207.8,389.6z"/>
			</g>
			<g>
				<path d="M-208.1,389.3l-0.1-0.1c0.1-0.2,0.4-0.8,0.6-1.1l0.1,0.1C-207.7,388.5-208,389.1-208.1,389.3z"/>
			</g>
			<g>
				<path d="M-209,389.6c-0.1-0.3-0.3-0.9-0.5-1.3l0.1,0c0.2,0.4,0.4,1,0.5,1.3L-209,389.6z"/>
			</g>
			<g>
				<path d="M-209.4,389.4c-0.1-0.2-0.3-0.6-0.4-0.7l0.1-0.1c0.1,0.1,0.3,0.5,0.4,0.7L-209.4,389.4z"/>
			</g>
		</g>
	</g>
</g>
<g>
	<defs>
		<path id="SVGID_27_" d="M-204,420H-262c-3.8,0-7-3.1-7-7V381c0-3.8,3.1-7,7-7h58.1c3.8,0,7,3.1,7,7V413
			C-197,416.9-200.1,420-204,420z"/>
	</defs>
	<clipPath id="SVGID_28_">
		<use xlink:href="#SVGID_27_"  style="overflow:visible;"/>
	</clipPath>
	<g class="st21">
		<g>
			<g>
				<path class="st20" d="M-208.9,388.5c0-0.2,0.2-0.5,0.3-0.5c0.2,0,0.3,0.3,0.3,0.5c0,0.2-0.1,0.4-0.3,0.4
					C-208.7,388.9-208.9,388.8-208.9,388.5z"/>
				<path d="M-208.6,389c-0.2,0-0.4-0.2-0.4-0.4c0-0.3,0.2-0.5,0.4-0.5c0.2,0,0.3,0.3,0.3,0.5C-208.2,388.8-208.4,389-208.6,389z
					 M-208.6,388.2c-0.1,0-0.2,0.2-0.2,0.4c0,0.2,0.1,0.3,0.2,0.3c0.1,0,0.2-0.1,0.2-0.3C-208.3,388.4-208.5,388.2-208.6,388.2z"/>
			</g>
			<g>
				<path class="st20" d="M-209.2,388.7c0-0.2,0.2-0.4,0.3-0.4c0.1,0,0.2,0.3,0.2,0.5c0,0.2-0.2,0.3-0.3,0.3
					C-209.1,389.1-209.2,389-209.2,388.7z"/>
				<path d="M-208.9,389.2C-208.9,389.2-208.9,389.2-208.9,389.2c-0.1,0-0.2-0.1-0.2-0.1c-0.1-0.1-0.1-0.2-0.1-0.3l0,0
					c0-0.2,0.1-0.3,0.2-0.4c0.1,0,0.1-0.1,0.2-0.1c0.2,0,0.3,0.4,0.3,0.6c0,0.1-0.1,0.2-0.2,0.3
					C-208.8,389.2-208.9,389.2-208.9,389.2z M-208.9,388.4C-208.9,388.4-208.9,388.4-208.9,388.4c-0.2,0.1-0.2,0.2-0.3,0.4l0,0
					c0,0.1,0,0.2,0.1,0.3c0,0,0.1,0.1,0.1,0.1c0,0,0.1,0,0.1,0c0.1-0.1,0.1-0.1,0.1-0.2C-208.7,388.6-208.8,388.4-208.9,388.4
					C-208.8,388.4-208.8,388.4-208.9,388.4z"/>
			</g>
			<g>
				<path class="st20" d="M-208.5,388.8c0-0.2,0.1-0.5,0.2-0.5c0.1,0,0.3,0.2,0.3,0.4c0,0.2-0.1,0.4-0.2,0.4
					C-208.3,389.2-208.5,389-208.5,388.8z"/>
				<path d="M-208.2,389.2c-0.2,0-0.3-0.1-0.4-0.4v0c0-0.3,0.1-0.5,0.3-0.6c0,0,0,0,0,0c0.2,0,0.3,0.3,0.4,0.5
					C-207.9,388.9-208,389.2-208.2,389.2C-208.2,389.2-208.2,389.2-208.2,389.2z M-208.5,388.8c0,0.2,0.2,0.3,0.3,0.3
					c0.1,0,0.2-0.2,0.2-0.3c0-0.2-0.2-0.4-0.2-0.4c0,0,0,0,0,0C-208.4,388.4-208.5,388.6-208.5,388.8L-208.5,388.8z"/>
			</g>
			<g>
				<path class="st20" d="M-208.9,389c0-0.2,0.2-0.5,0.3-0.5c0.2,0,0.3,0.3,0.3,0.5c0,0.2-0.1,0.4-0.3,0.4
					C-208.7,389.4-208.9,389.2-208.9,389z"/>
				<path d="M-208.6,389.4c-0.2,0-0.4-0.2-0.4-0.4c0-0.3,0.2-0.5,0.4-0.5c0.2,0,0.3,0.3,0.3,0.5
					C-208.2,389.2-208.4,389.4-208.6,389.4z M-208.6,388.6c-0.1,0-0.2,0.2-0.2,0.4c0,0.2,0.1,0.3,0.2,0.3c0.1,0,0.2-0.1,0.2-0.3
					C-208.4,388.8-208.5,388.6-208.6,388.6z"/>
			</g>
			<g>
				<path class="st20" d="M-209.3,389.1c0-0.2,0.2-0.5,0.3-0.5c0.2,0,0.3,0.3,0.3,0.5c0,0.2-0.1,0.4-0.3,0.4
					C-209.2,389.5-209.3,389.3-209.3,389.1z"/>
				<path d="M-209,389.6c-0.2,0-0.4-0.2-0.4-0.4c0-0.3,0.2-0.5,0.4-0.5c0.2,0,0.3,0.3,0.3,0.5C-208.7,389.4-208.8,389.6-209,389.6z
					 M-209,388.7c-0.1,0-0.2,0.2-0.2,0.4c0,0.2,0.1,0.3,0.2,0.3c0.1,0,0.2-0.1,0.2-0.3C-208.8,389-208.9,388.7-209,388.7z"/>
			</g>
			<g>
				<path class="st20" d="M-208.4,389c0-0.2,0.2-0.5,0.3-0.5c0.2,0,0.3,0.3,0.3,0.5c0,0.2-0.1,0.4-0.3,0.4
					C-208.3,389.4-208.4,389.2-208.4,389z"/>
				<path d="M-208.1,389.5c-0.2,0-0.4-0.2-0.4-0.4c0-0.3,0.2-0.5,0.4-0.5c0.2,0,0.3,0.3,0.3,0.5
					C-207.8,389.3-207.9,389.5-208.1,389.5z M-208.1,388.6c-0.1,0-0.2,0.2-0.2,0.4c0,0.2,0.1,0.3,0.2,0.3c0.1,0,0.2-0.1,0.2-0.3
					C-207.9,388.9-208,388.6-208.1,388.6z"/>
			</g>
			<g>
				<path class="st20" d="M-208.5,389.2c0-0.2,0.2-0.5,0.3-0.5c0.2,0,0.3,0.3,0.3,0.5c0,0.2-0.1,0.4-0.3,0.4
					C-208.3,389.6-208.5,389.4-208.5,389.2z"/>
				<path d="M-208.2,389.6c-0.2,0-0.4-0.2-0.4-0.4c0-0.3,0.2-0.5,0.4-0.5c0.2,0,0.3,0.3,0.3,0.5C-207.9,389.4-208,389.6-208.2,389.6
					z M-208.2,388.8c-0.1,0-0.2,0.2-0.2,0.4c0,0.2,0.1,0.3,0.2,0.3c0.1,0,0.2-0.1,0.2-0.3C-208,389.1-208.1,388.8-208.2,388.8z"/>
			</g>
			<g>
				<path class="st20" d="M-208.9,389.4c0-0.2,0.2-0.5,0.3-0.5c0.2,0,0.3,0.3,0.3,0.5c0,0.2-0.1,0.4-0.3,0.4
					C-208.8,389.8-208.9,389.7-208.9,389.4z"/>
				<path d="M-208.6,389.9c-0.2,0-0.4-0.2-0.4-0.4c0-0.3,0.2-0.5,0.4-0.5c0.2,0,0.3,0.3,0.3,0.5
					C-208.3,389.7-208.4,389.9-208.6,389.9z M-208.6,389.1c-0.1,0-0.2,0.2-0.2,0.4c0,0.2,0.1,0.3,0.2,0.3c0.1,0,0.2-0.1,0.2-0.3
					C-208.4,389.3-208.5,389.1-208.6,389.1z"/>
			</g>
			<g>
				<path class="st20" d="M-209.5,389.4c0-0.2,0.1-0.5,0.2-0.5c0.1,0,0.2,0.3,0.2,0.5c0,0.2-0.1,0.4-0.2,0.4
					C-209.4,389.8-209.5,389.7-209.5,389.4z"/>
				<path d="M-209.3,389.9c-0.1,0-0.3-0.2-0.3-0.4c0-0.2,0.1-0.5,0.3-0.5c0.2,0,0.3,0.3,0.3,0.5C-209,389.7-209.1,389.9-209.3,389.9
					z M-209.3,389.1c-0.1,0-0.2,0.2-0.2,0.4c0,0.2,0.1,0.3,0.2,0.3c0.1,0,0.2-0.1,0.2-0.3C-209.1,389.3-209.2,389.1-209.3,389.1z"/>
			</g>
			<g>
				<path class="st20" d="M-208.2,389.4c0-0.2,0.1-0.5,0.2-0.5c0.1,0,0.2,0.3,0.2,0.5c0,0.2-0.1,0.4-0.2,0.4
					C-208,389.8-208.2,389.6-208.2,389.4z"/>
				<path d="M-207.9,389.8c-0.1,0-0.3-0.2-0.3-0.4c0-0.2,0.1-0.5,0.3-0.5c0.2,0,0.3,0.3,0.3,0.5
					C-207.6,389.6-207.8,389.8-207.9,389.8z M-207.9,389c-0.1,0-0.2,0.2-0.2,0.4c0,0.2,0.1,0.3,0.2,0.3c0.1,0,0.2-0.1,0.2-0.3
					C-207.7,389.2-207.8,389-207.9,389z"/>
			</g>
			<g>
				<path class="st20" d="M-208,389.8c0.1-0.2,0.2-0.4,0.3-0.4c0.1,0,0.1,0.3,0.1,0.5c0,0.2-0.2,0.3-0.3,0.3
					C-208,390.2-208.1,390-208,389.8z"/>
				<path d="M-207.9,390.3C-207.9,390.3-207.9,390.3-207.9,390.3c-0.1,0-0.2-0.1-0.2-0.2c0-0.1,0-0.2,0-0.3l0,0
					c0-0.2,0.1-0.4,0.3-0.4c0.1,0,0.1,0,0.1,0c0,0,0.1,0,0.1,0.1c0.1,0.1,0.1,0.3,0,0.5c0,0.1-0.1,0.3-0.2,0.3
					C-207.8,390.3-207.9,390.3-207.9,390.3z M-208,389.8c0,0.1,0,0.2,0,0.2c0,0.1,0,0.1,0.1,0.1c0,0,0,0,0,0c0.1,0,0.1-0.1,0.2-0.3
					c0-0.2,0-0.4,0-0.4c0,0,0,0,0,0C-207.8,389.5-207.9,389.6-208,389.8L-208,389.8z"/>
			</g>
			<g>
				<path class="st20" d="M-208.5,389.7c0-0.2,0.2-0.4,0.3-0.4c0.1,0,0.2,0.3,0.2,0.5c0,0.2-0.2,0.4-0.3,0.3
					C-208.4,390.1-208.5,390-208.5,389.7z"/>
				<path d="M-208.2,390.2C-208.2,390.2-208.3,390.2-208.2,390.2c-0.1,0-0.2-0.1-0.2-0.1s-0.1-0.2-0.1-0.3l0,0
					c0-0.2,0.2-0.5,0.3-0.5c0,0,0,0,0,0c0,0,0.1,0,0.1,0.1c0.1,0.1,0.1,0.3,0.1,0.5C-207.9,390-208.1,390.2-208.2,390.2z
					 M-208.2,389.4c-0.1,0-0.2,0.2-0.2,0.4l0,0c0,0.1,0,0.2,0,0.2c0,0.1,0.1,0.1,0.1,0.1c0.1,0,0.2-0.1,0.2-0.3
					C-208,389.7-208.1,389.5-208.2,389.4C-208.1,389.4-208.2,389.4-208.2,389.4C-208.2,389.4-208.2,389.4-208.2,389.4z"/>
			</g>
			<g>
				<path class="st20" d="M-209.2,389.8c-0.1-0.2-0.2-0.4-0.3-0.4c-0.1,0-0.1,0.3-0.1,0.5c0.1,0.2,0.2,0.3,0.3,0.3
					C-209.2,390.2-209.1,390-209.2,389.8z"/>
				<path d="M-209.3,390.3C-209.3,390.3-209.3,390.3-209.3,390.3c-0.2-0.1-0.3-0.2-0.3-0.4c0-0.2-0.1-0.5,0.1-0.6
					c0.2,0,0.3,0.2,0.4,0.4v0C-209,390-209.1,390.2-209.3,390.3C-209.3,390.3-209.3,390.3-209.3,390.3z M-209.4,389.5
					C-209.4,389.5-209.4,389.5-209.4,389.5c0,0-0.1,0.2,0,0.4c0,0.1,0.1,0.2,0.2,0.2c0,0,0,0,0,0c0,0,0.1-0.1,0.1-0.3l0,0
					C-209.3,389.6-209.4,389.5-209.4,389.5z"/>
			</g>
			<g>
				<path class="st20" d="M-209.3,389.8c0-0.2,0.1-0.5,0.2-0.5c0.1,0,0.2,0.3,0.2,0.5c0,0.2-0.1,0.4-0.2,0.4
					C-209.2,390.1-209.3,390-209.3,389.8z"/>
				<path d="M-209.1,390.2c-0.1,0-0.3-0.2-0.3-0.4c0-0.2,0.1-0.5,0.3-0.5c0.2,0,0.3,0.3,0.3,0.5C-208.8,390-208.9,390.2-209.1,390.2
					z M-209.1,389.4c-0.1,0-0.2,0.2-0.2,0.4c0,0.2,0.1,0.3,0.2,0.3c0.1,0,0.2-0.1,0.2-0.3C-208.9,389.6-209,389.4-209.1,389.4z"/>
			</g>
			<g>
				<path class="st20" d="M-209,389.9c0-0.2,0.2-0.5,0.3-0.5c0.2,0,0.3,0.3,0.3,0.5c0,0.2-0.1,0.4-0.3,0.4
					C-208.8,390.2-209,390.1-209,389.9z"/>
				<path d="M-208.7,390.3c-0.2,0-0.4-0.2-0.4-0.4c0-0.3,0.2-0.5,0.4-0.5c0.2,0,0.3,0.3,0.3,0.5
					C-208.3,390.1-208.5,390.3-208.7,390.3z M-208.7,389.5c-0.1,0-0.2,0.2-0.2,0.4c0,0.2,0.1,0.3,0.2,0.3c0.1,0,0.2-0.1,0.2-0.3
					C-208.4,389.7-208.5,389.5-208.7,389.5z"/>
			</g>
		</g>
		<g>
			<path class="st20" d="M-208.8,387.2c-0.1,0.2-0.2,0.4-0.1,0.6c-0.2-0.1-0.4-0.1-0.6,0.1c0.2,0,0.4,0.1,0.5,0.2
				c-0.2,0-0.3,0.1-0.3,0.2c0.2,0,0.3-0.1,0.4-0.1c-0.1,0.1-0.2,0.2-0.2,0.3c0.1-0.1,0.3-0.1,0.4-0.2c-0.1,0.2,0.1,0.3,0.2,0.5
				c0-0.2,0.1-0.4,0-0.5c0.2,0.1,0.2,0.2,0.6,0.2c-0.1-0.1-0.2-0.3-0.3-0.3c0.1,0,0.4,0,0.4,0c0-0.1-0.2-0.2-0.3-0.2
				c0.1-0.1,0.3-0.3,0.4-0.4c-0.2,0-0.4,0.1-0.5,0.2c0.2-0.2,0.2-0.6,0.5-0.6c-0.1,0-0.4,0.1-0.5,0.2c0.1-0.1,0.1-0.3,0.2-0.4
				c-0.2,0.1-0.4,0.3-0.5,0.4C-208.7,387.5-208.8,387.3-208.8,387.2z"/>
			<path d="M-208.4,389.1l-0.1-0.2c-0.1-0.1-0.2-0.3-0.2-0.4c0,0,0,0-0.1,0c-0.1,0-0.1,0-0.2,0.1l-0.1,0.1l0-0.2
				c0-0.1,0.1-0.1,0.1-0.2c-0.1,0-0.1,0-0.2,0l-0.2,0l0.1-0.1c0.1-0.1,0.1-0.2,0.3-0.2c-0.1-0.1-0.2-0.1-0.4-0.1l-0.2,0l0.1-0.1
				c0.2-0.2,0.4-0.2,0.5-0.1c0-0.2,0-0.3,0.1-0.4c0,0,0-0.1,0.1-0.1l0-0.1l0.1,0.1c0,0.1,0.1,0.2,0.1,0.3c0.1-0.1,0.3-0.3,0.4-0.3
				l0.1,0.1c0,0-0.1,0.1-0.1,0.1c0.1-0.1,0.3-0.1,0.4-0.1l0,0.1c-0.1,0-0.1,0.1-0.2,0.2c0,0,0,0.1,0,0.1c0.1,0,0.1,0,0.2,0
				c0,0,0.1,0,0.1,0l0,0.1c-0.1,0-0.2,0.2-0.3,0.3c0.1,0,0.2,0.1,0.3,0.2l0.1,0.2l-0.2-0.1c0,0-0.1,0-0.2,0c0,0,0.1,0.1,0.1,0.1
				c0,0,0.1,0.1,0.1,0.1l0.2,0.1l-0.2,0c0,0,0,0,0,0c-0.2,0-0.3-0.1-0.4-0.1c0,0-0.1,0-0.1-0.1c0,0,0,0.1,0,0.1c0,0.1,0,0.2,0,0.3
				L-208.4,389.1z M-208.8,388.3l0.1,0.1c0,0.1,0,0.2,0.1,0.3c0-0.1,0-0.1,0-0.1c0-0.1,0-0.1,0-0.2l-0.1-0.1l0.1,0
				c0.1,0,0.2,0.1,0.2,0.1c0,0,0.1,0.1,0.1,0.1c0,0,0,0,0,0c-0.1-0.1-0.1-0.2-0.2-0.2l0-0.1c0,0,0.1,0,0.2,0c0,0,0,0,0,0
				c0,0-0.1,0-0.1,0c0,0,0,0,0,0l-0.2,0l0.1-0.1c0.1-0.1,0.1-0.1,0.2-0.2c-0.1,0-0.1,0-0.2,0.1c0,0,0,0-0.1,0.1l-0.1-0.1
				c0,0,0-0.1,0.1-0.1c0.1-0.1,0.1-0.2,0.1-0.2c0-0.1,0-0.1,0.1-0.2c-0.1,0-0.2,0.1-0.2,0.2l-0.1-0.1c0,0,0-0.1,0-0.1c0,0,0,0,0-0.1
				c-0.1,0.1-0.2,0.2-0.3,0.3l-0.1,0.2v-0.2c0-0.1,0-0.1-0.1-0.2c0,0,0,0,0,0c-0.1,0.1-0.1,0.3,0,0.4l0.1,0.1l-0.1,0
				c-0.1,0-0.3-0.1-0.4,0c0.2,0,0.3,0.1,0.4,0.2l0.1,0.1L-208.8,388.3l-0.1,0c0,0-0.1,0-0.1,0.1c0,0,0.1,0,0.1,0
				C-208.9,388.3-208.8,388.3-208.8,388.3z"/>
		</g>
		<g>
			<path class="st22" d="M-208.7,387.6c0,0.1,0,0.2,0,0.3"/>
		</g>
		<g>
			<path d="M-208.5,387.9l-0.1,0c0-0.2,0.1-0.3,0.2-0.4l0.1,0.1C-208.4,387.6-208.5,387.8-208.5,387.9z"/>
		</g>
		<g>
			<path class="st22" d="M-208.3,387.9c-0.1,0-0.1,0.1-0.2,0.2"/>
		</g>
	</g>
</g>
<g>
	<defs>
		<path id="SVGID_29_" d="M-204,420H-262c-3.8,0-7-3.1-7-7V381c0-3.8,3.1-7,7-7h58.1c3.8,0,7,3.1,7,7V413
			C-197,416.9-200.1,420-204,420z"/>
	</defs>
	<clipPath id="SVGID_30_">
		<use xlink:href="#SVGID_29_"  style="overflow:visible;"/>
	</clipPath>
	<g class="st23">
		<g>
			<path class="st24" d="M-210.8,390.3c-0.2,0-0.3-0.1-0.4-0.2c-0.2-0.2-0.6-0.3-0.8-0.1c-0.1,0.1-0.2,0.1-0.2,0.1
				c-0.1,0-0.3,0.1-0.2,0.4c0.1-0.1,0.1,0,0.2,0c0.1,0,0,0,0,0.1c0,0.1,0.3,0.4,0.5,0.4c0.3,0,0.4,0.1,0.4,0.1c0.1,0.1,0,0,0.1,0.2
				c0.1,0.1,0.1,0.1,0,0.2c-0.2,0.1-0.3,0.5,0,0.7c0.3,0.2,1.1,0.6,2-0.1c0.9-0.7,2.2-0.3,2.3-0.1c0.1,0.2,0.2,0.4,0.2,0.5
				c0,0.1,0.2,0.2,0.3,0.2c0.2,0,0.4,0.1,0.5,0.1c0.1,0.1,0.3,0.1,0.2-0.2c-0.1-0.7-0.5-0.8-0.6-1.1c0.2,0,0.4,0,0.5-0.1
				c0.1-0.1,0.2-0.3,0.3-0.3c0.1,0,0.1-0.1,0-0.1c-0.1,0-0.2,0.1-0.4,0.1C-207.1,390.9-210.2,390.1-210.8,390.3z"/>
			<path d="M-205.9,392.8c0,0-0.1,0-0.2,0c-0.1-0.1-0.3-0.1-0.4-0.1c0,0,0,0,0,0c-0.2,0-0.3-0.1-0.4-0.2c0-0.1-0.1-0.2-0.2-0.5
				c0,0-0.2-0.1-0.4-0.2c-0.5-0.1-1.3-0.1-1.8,0.3c-1.1,0.8-2,0.2-2.1,0.1c-0.2-0.1-0.2-0.3-0.2-0.4c0-0.2,0.1-0.3,0.2-0.4
				c0.1,0,0.1-0.1,0.1-0.1c0,0,0,0,0,0l0,0c0-0.1,0-0.1,0-0.1c0,0,0,0,0,0c0,0-0.2-0.1-0.4-0.1c0,0,0,0,0,0c-0.2,0-0.3-0.1-0.4-0.2
				c0,0-0.1-0.1-0.1-0.2c0,0,0,0,0,0c0,0,0,0,0,0c0,0,0,0-0.1,0l-0.1,0.1l0-0.1c0-0.2,0-0.3,0.1-0.3c0.1-0.1,0.1-0.1,0.2-0.1l0,0
				c0.1,0,0.1,0,0.2,0c0.1-0.1,0.2-0.1,0.4-0.1c0.2,0,0.4,0.1,0.6,0.3c0.1,0.1,0.2,0.2,0.3,0.2c0.4-0.1,1.8,0.2,3.1,0.5
				c0.7,0.2,1.4,0.3,1.8,0.3c0.2,0,0.2,0,0.3,0c0,0,0,0,0.1,0c0.1,0,0.1,0,0.2,0c0,0,0,0.1-0.1,0.1c0,0-0.1,0.1-0.1,0.2
				c0,0.1-0.1,0.1-0.1,0.2c-0.1,0.1-0.2,0.1-0.5,0.1c0,0.1,0.1,0.1,0.2,0.2c0.1,0.2,0.3,0.4,0.4,0.8c0,0.1,0,0.2-0.1,0.2
				C-205.8,392.8-205.8,392.8-205.9,392.8z M-206.4,392.5c0.2,0,0.4,0.1,0.5,0.2c0,0,0.1,0,0.1,0c0,0,0-0.1,0-0.1
				c-0.1-0.4-0.2-0.6-0.4-0.7c-0.1-0.1-0.2-0.2-0.2-0.3l0-0.1l0.1,0c0.2,0,0.4,0,0.5,0c0,0,0.1-0.1,0.1-0.1c0,0,0.1-0.1,0.1-0.1
				c-0.1,0-0.2,0-0.3,0c-0.4-0.1-1.1-0.2-1.8-0.3c-1.2-0.3-2.6-0.6-3-0.5l0,0c-0.2,0-0.4-0.1-0.4-0.2c-0.1-0.1-0.3-0.2-0.5-0.2
				c0,0,0,0,0,0c-0.1,0-0.2,0-0.2,0.1c-0.1,0.1-0.2,0.1-0.2,0.1l0,0c-0.1,0-0.1,0-0.1,0.1c0,0,0,0.1,0,0.1c0,0,0.1,0,0.1,0
				c0,0,0,0,0,0c0,0,0.1,0,0.1,0c0,0,0,0.1,0,0.1c0,0,0,0,0,0c0,0,0,0.1,0.1,0.1c0.1,0.1,0.2,0.2,0.4,0.2c0.3,0,0.4,0.1,0.5,0.2
				c0,0,0.1,0.1,0.1,0.1c0,0,0,0,0,0.1l0,0c0.1,0.1,0.1,0.2-0.1,0.3c-0.1,0.1-0.2,0.2-0.2,0.3c0,0.1,0.1,0.2,0.2,0.3
				c0.1,0.1,0.9,0.7,1.9-0.1c0.6-0.5,1.4-0.5,1.9-0.3c0.3,0.1,0.5,0.2,0.5,0.3c0.1,0.3,0.2,0.4,0.2,0.5
				C-206.7,392.5-206.6,392.5-206.4,392.5C-206.5,392.5-206.5,392.5-206.4,392.5z"/>
		</g>
		<g>
			<path d="M-205.9,391.1c-0.1,0.1-0.2,0.2-0.5,0.5c-0.2,0.3-1,0.6-1.8,0.6c-0.9,0-1.4-0.1-1.8-0.4c-0.2-0.2-0.4-0.3-0.5-0.3
				c-0.3-0.1-0.3-0.4-0.3-0.6c-0.1,0.1-0.1,0.2-0.3,0.2c-0.1,0-0.3,0-0.2,0.1c0-0.1,0-0.1-0.1-0.1c0,0-0.1,0-0.1-0.1
				c0.1,0.1,0.3-0.1,0.4-0.1c0.1,0,0.2-0.1,0.2-0.3c0-0.1,0-0.2-0.1-0.3c0.2-0.1,2.7,0.4,3.2,0.4
				C-207.1,390.7-205.7,390.9-205.9,391.1z"/>
			<path d="M-208.2,392.2c-0.9,0-1.4-0.1-1.9-0.5c-0.2-0.2-0.4-0.3-0.5-0.3c-0.2-0.1-0.3-0.3-0.3-0.4c0,0-0.1,0.1-0.2,0.1
				c-0.1,0-0.2,0-0.2,0c0,0,0,0,0,0l-0.1,0.1c0,0,0-0.1,0-0.1c0,0,0,0,0,0l0,0c0,0,0,0,0,0l0.1-0.1c0,0,0.1,0,0.1,0
				c0.1,0,0.1-0.1,0.2-0.1c0,0,0,0,0,0h0c0,0,0.1,0,0.1-0.1c0,0,0-0.1,0-0.1c0-0.1,0-0.2-0.1-0.3l0,0l0,0c0.1-0.1,0.7,0,2,0.2
				c0.5,0.1,1.1,0.2,1.3,0.2c0.1,0,1.8,0.2,1.8,0.4c0,0,0,0.1,0,0.1l0,0c-0.1,0.1-0.2,0.2-0.5,0.5
				C-206.6,391.9-207.3,392.2-208.2,392.2z M-210.8,390.8L-210.8,390.8c0.1,0.2,0,0.4,0.3,0.6c0.1,0.1,0.3,0.2,0.5,0.3
				c0.4,0.3,0.9,0.4,1.8,0.4c0.9,0,1.6-0.3,1.8-0.6c0.2-0.3,0.3-0.4,0.5-0.5c-0.2-0.1-1.2-0.3-1.7-0.3c-0.2,0-0.7-0.1-1.3-0.2
				c-0.7-0.1-1.6-0.2-1.9-0.2c0,0,0,0,0,0c0,0.1,0,0.2,0.1,0.2C-210.7,390.6-210.8,390.7-210.8,390.8z"/>
		</g>
		<g>
			<path class="st24" d="M-210.5,390.2c0.2-0.3,0.5-0.4,0.8-0.3h0.1c0.1-0.1,0.5-0.1,0.7,0l0.1,0c0.3-0.1,0.8,0,1,0.2l0.1,0
				c0.6,0,1,0.3,1.5,0.7c0.1,0.1,0.1,0.2,0.3,0.2c0.1,0,0.2,0.1,0,0.2c-0.1,0.1-0.3,0.2-0.5,0.5c-0.2,0.3-0.9,0.6-1.8,0.6
				c-0.9,0-1.4-0.1-1.8-0.4c-0.2-0.2-0.4-0.3-0.5-0.3c-0.1-0.1-0.3-0.2-0.3-0.4c0.1-0.2-0.1-0.4-0.2-0.7
				C-210.8,390.2-210.6,390.1-210.5,390.2L-210.5,390.2z"/>
			<path d="M-208.2,392.2c-0.9,0-1.4-0.1-1.8-0.4c-0.2-0.2-0.4-0.3-0.5-0.3c-0.2-0.1-0.4-0.3-0.3-0.5c0-0.2,0-0.4-0.1-0.5l-0.1-0.1
				l0,0c0.1-0.1,0.3-0.1,0.4-0.1l0,0c0.2-0.3,0.6-0.4,0.9-0.3l0,0c0.2-0.1,0.5-0.1,0.7,0l0.1,0c0.3-0.1,0.9,0,1.1,0.2l0,0
				c0,0,0.1,0,0.1,0c0.6,0,1,0.3,1.4,0.7c0,0,0,0,0,0c0,0.1,0.1,0.1,0.2,0.1c0.1,0,0.2,0.1,0.2,0.1c0,0.1-0.1,0.1-0.1,0.2
				c-0.1,0.1-0.2,0.2-0.5,0.5C-206.6,391.9-207.3,392.2-208.2,392.2z M-210.8,390.3L-210.8,390.3c0.1,0.3,0.2,0.5,0.1,0.7
				c0,0.2,0.1,0.3,0.2,0.4c0.1,0.1,0.3,0.2,0.5,0.3c0.4,0.3,0.9,0.4,1.7,0.4c0.9,0,1.5-0.3,1.7-0.5c0.2-0.3,0.4-0.4,0.5-0.5
				c0,0,0,0,0,0c0,0,0,0-0.1,0c-0.1,0-0.2-0.1-0.3-0.2c0,0,0,0,0,0c-0.5-0.5-0.8-0.7-1.4-0.7l0,0l-0.1-0.1c-0.2-0.2-0.7-0.3-1-0.2
				l0,0l-0.1,0c-0.2-0.1-0.5-0.1-0.6,0l0,0h-0.1c-0.3-0.1-0.6,0.1-0.8,0.3l0,0l-0.1,0l0,0C-210.6,390.2-210.7,390.2-210.8,390.3z"/>
		</g>
		<g>
			<g>
				<path class="st25" d="M-206.2,390.7c-0.4-0.4-0.8-0.8-1.5-0.7c0,0,0,0.1,0,0.2c0.4,0.2,0.9,0.6,1.2,0.9
					C-206.4,391-206.3,390.9-206.2,390.7z"/>
				<path d="M-206.5,391.2L-206.5,391.2c-0.3-0.4-0.8-0.8-1.2-0.9l-0.1,0l0-0.1c0,0,0-0.1,0-0.1c0,0,0-0.1,0-0.1l0,0l0,0
					c0.7,0,1.1,0.3,1.5,0.7l0,0l0,0c-0.1,0.1-0.2,0.2-0.3,0.3L-206.5,391.2z M-207.6,390.2c0.4,0.2,0.9,0.5,1.1,0.8l0,0
					c0.1-0.1,0.2-0.2,0.2-0.2C-206.7,390.3-207.1,390.1-207.6,390.2C-207.6,390.1-207.6,390.1-207.6,390.2
					C-207.6,390.1-207.6,390.1-207.6,390.2C-207.6,390.1-207.6,390.1-207.6,390.2z"/>
			</g>
			<g>
				<path class="st25" d="M-207.8,390c-0.2-0.2-0.8-0.3-1-0.2c0,0.1,0,0.2-0.1,0.3c0.2,0.1,0.3,0.2,0.5,0.4c0.1,0,0.3-0.1,0.5-0.1
					C-207.9,390.3-207.8,390.1-207.8,390z"/>
				<path d="M-208.4,390.6L-208.4,390.6c-0.2-0.2-0.3-0.4-0.5-0.4l-0.1,0l0-0.1c0-0.1,0.1-0.2,0-0.3l0,0l0,0c0.3-0.1,0.9,0,1.1,0.2
					l0,0l0,0c0,0.1-0.1,0.3-0.2,0.5l0,0l0,0C-208.1,390.5-208.3,390.6-208.4,390.6L-208.4,390.6z M-208.8,390.1
					c0.1,0.1,0.3,0.2,0.4,0.4c0.1,0,0.3-0.1,0.4-0.1c0.1-0.1,0.1-0.3,0.2-0.4c-0.2-0.2-0.6-0.2-0.9-0.2
					C-208.7,389.9-208.8,390-208.8,390.1z"/>
			</g>
			<g>
				<path class="st25" d="M-208.9,389.8c-0.2-0.1-0.5-0.1-0.7,0c0,0.1-0.1,0.3-0.1,0.4c0.1,0,0.2,0.1,0.3,0.1
					c0.1-0.1,0.3-0.2,0.4-0.2C-208.9,390.1-208.9,389.9-208.9,389.8z"/>
				<path d="M-209.4,390.5L-209.4,390.5c-0.1-0.1-0.2-0.1-0.3-0.1l-0.1,0l0-0.1c0-0.1,0-0.3,0.1-0.4l0,0c0.2-0.1,0.5-0.2,0.7-0.1
					l0,0l0,0c0,0.1,0,0.2,0,0.4l0,0C-209,390.3-209.2,390.4-209.4,390.5L-209.4,390.5z M-209.6,390.2c0.1,0,0.2,0.1,0.3,0.1
					c0.1-0.1,0.3-0.1,0.3-0.2c0-0.1,0-0.2,0-0.3c-0.2-0.1-0.4,0-0.6,0C-209.6,390-209.6,390.1-209.6,390.2z"/>
			</g>
			<g>
				<path class="st25" d="M-210.5,390.2c0.2-0.3,0.5-0.4,0.8-0.3c0,0.1-0.1,0.2-0.1,0.4c-0.2,0-0.6,0.1-0.7,0.1
					C-210.5,390.3-210.5,390.2-210.5,390.2z"/>
				<path d="M-210.5,390.5v-0.1c0,0,0-0.1,0-0.1c0,0,0-0.1,0-0.1v0l0,0c0.2-0.3,0.6-0.4,0.9-0.3l0.1,0l0,0.1c0,0.1-0.1,0.2-0.1,0.4
					l0,0.1l-0.1,0C-210,390.3-210.3,390.3-210.5,390.5L-210.5,390.5z M-210.4,390.2C-210.4,390.2-210.4,390.2-210.4,390.2
					C-210.4,390.3-210.4,390.3-210.4,390.2c0.2,0,0.4,0,0.6,0c0-0.1,0-0.2,0.1-0.3C-210,389.9-210.2,390-210.4,390.2z"/>
			</g>
			<g>
				<path class="st25" d="M-206.6,391.1c-0.2-0.3-0.8-0.7-1.1-0.9c0,0-0.1,0.1-0.1,0.2c0.1,0.2,0.4,0.7,0.6,1
					C-207.1,391.4-206.8,391.3-206.6,391.1z"/>
				<path d="M-207.3,391.5L-207.3,391.5c-0.2-0.3-0.4-0.8-0.6-1l0,0l0,0c0,0,0-0.1,0.1-0.1c0,0,0-0.1,0-0.1l0-0.1l0.1,0
					c0.4,0.2,0.9,0.6,1.1,0.9l0,0.1l-0.1,0c-0.2,0.1-0.4,0.2-0.6,0.3L-207.3,391.5z M-207.7,390.5c0.1,0.2,0.4,0.6,0.5,0.9l0,0
					c0.1-0.1,0.4-0.1,0.5-0.2c-0.2-0.3-0.7-0.6-1-0.8C-207.7,390.4-207.7,390.4-207.7,390.5C-207.7,390.4-207.7,390.4-207.7,390.5z"
					/>
			</g>
			<g>
				<path class="st25" d="M-208.5,391.7c0.1-0.3,0.1-0.8,0.1-1c0.1,0,0.4-0.1,0.5-0.1c0.1,0.2,0.4,0.7,0.5,0.9
					C-207.7,391.6-208.2,391.7-208.5,391.7z"/>
				<path d="M-208.4,391.7C-208.5,391.7-208.5,391.7-208.4,391.7l-0.1,0L-208.4,391.7c0-0.4,0-0.8,0-1l0-0.1l0,0
					c0.1,0,0.4-0.1,0.5-0.1l0,0l0,0c0.1,0.2,0.4,0.7,0.5,0.9l0,0.1l-0.1,0C-207.7,391.7-208.2,391.7-208.4,391.7z M-208.3,390.7
					c0,0.2,0,0.6-0.1,0.9c0.3,0,0.6-0.1,0.9-0.2c-0.1-0.2-0.4-0.6-0.5-0.8C-208.1,390.7-208.2,390.7-208.3,390.7z"/>
			</g>
			<g>
				<path class="st25" d="M-209.3,390.5c0.1-0.1,0.3-0.1,0.4-0.2c0.1,0.1,0.3,0.2,0.4,0.3c0,0.2-0.1,0.8-0.1,1.1
					c-0.2,0-0.5,0-0.7-0.1C-209.3,391.2-209.3,390.7-209.3,390.5z"/>
				<path d="M-208.6,391.7L-208.6,391.7c-0.2,0-0.6,0-0.8-0.1l0,0l0,0c0-0.3,0.1-0.8,0-1l0,0l0,0c0.1,0,0.3-0.1,0.4-0.2l0,0l0,0
					c0.1,0.1,0.3,0.2,0.4,0.4l0,0v0C-208.5,390.8-208.5,391.5-208.6,391.7L-208.6,391.7z M-209.3,391.5c0.1,0.1,0.4,0.1,0.6,0.1
					c0-0.2,0.1-0.8,0.1-1c-0.1-0.1-0.2-0.2-0.3-0.3c-0.1,0.1-0.2,0.1-0.3,0.2C-209.2,390.8-209.2,391.3-209.3,391.5z"/>
			</g>
			<g>
				<path class="st25" d="M-210.5,390.8c0-0.1,0-0.2,0-0.3c0.2-0.1,0.7-0.2,1-0.1c0,0.2,0,0.8,0,1
					C-209.8,391.2-210.3,390.9-210.5,390.8z"/>
				<path d="M-209.4,391.6L-209.4,391.6c-0.4-0.3-0.9-0.6-1.1-0.7l-0.1,0l0-0.1c0-0.1,0-0.2,0-0.3l0,0l0,0c0.2-0.1,0.7-0.2,1.1-0.1
					l0,0l0,0c0,0.3,0,0.9,0,1L-209.4,391.6z M-210.4,390.8c0.2,0.1,0.7,0.3,0.9,0.6c0-0.2,0-0.6,0-0.8c-0.3-0.2-0.7,0-0.9,0
					C-210.4,390.6-210.4,390.7-210.4,390.8z"/>
			</g>
		</g>
		<g>
			<path d="M-211.7,390.4c-0.1,0-0.1-0.1-0.2-0.1c0,0-0.1,0-0.1,0c0,0,0,0.1,0,0.1C-212,390.4-211.8,390.4-211.7,390.4z"/>
		</g>
		<g>
			<path d="M-211.7,390.8l0-0.1c0.2,0,0.2-0.1,0.3-0.2c0.1-0.1,0.1-0.1,0.2-0.2l0,0.1c0,0-0.1,0.1-0.1,0.1
				C-211.4,390.7-211.5,390.8-211.7,390.8z"/>
		</g>
		<g>
			<path d="M-211.5,390.9C-211.5,390.9-211.6,390.9-211.5,390.9l0-0.1c0.1,0,0.2-0.1,0.2-0.2c0.1-0.1,0.2-0.2,0.3-0.2l0,0.1
				c0,0,0,0,0,0c0,0-0.1,0.1-0.2,0.2C-211.3,390.8-211.4,390.9-211.5,390.9z"/>
		</g>
		<g>
			<path d="M-211.6,390.3L-211.6,390.3c-0.1,0-0.1,0-0.2-0.1c-0.1-0.1-0.1-0.1-0.1,0c0,0,0,0-0.1,0l0-0.1c0,0,0,0,0,0
				c0.1,0,0.1-0.1,0.3,0.1c0,0,0.1,0,0.1,0.1c0,0,0,0,0,0L-211.6,390.3z"/>
		</g>
		<g>
			<path d="M-212,390.8C-212,390.8-212,390.8-212,390.8l0-0.1c0,0,0.2,0,0.3-0.2l0.1,0.1C-211.7,390.7-211.8,390.8-212,390.8z"/>
		</g>
		<g>
			<path class="st22" d="M-212.1,389.9c-0.1,0.1-0.1,0.1-0.2,0.2"/>
		</g>
		<g>
			<path class="st22" d="M-212.3,390.3c0,0,0,0.1,0,0.1"/>
		</g>
	</g>
</g>
<g>
	<defs>
		<path id="SVGID_31_" d="M-204,420H-262c-3.8,0-7-3.1-7-7V381c0-3.8,3.1-7,7-7h58.1c3.8,0,7,3.1,7,7V413
			C-197,416.9-200.1,420-204,420z"/>
	</defs>
	<clipPath id="SVGID_32_">
		<use xlink:href="#SVGID_31_"  style="overflow:visible;"/>
	</clipPath>
	<g class="st26">
		<g>
			<path class="st20" d="M-209.4,394.6c0,0,0,0.2,0,0.2c0.1,0.1,0,0.1,0.1,0.2c0.1,0,0.1,0,0.2,0c0.5,0,1.2-0.2,1.7-0.2
				c0.5,0,0.8,0.2,1.1,0.2c0.2,0,0.3-0.1,0.3-0.2c0-0.1-0.2-0.2-0.6-0.2c-0.6,0-0.9,0.1-1.4,0.1c-0.7,0-0.8-0.3-0.8-0.4
				c0-0.1,0.1-0.3,0.5-0.3c0.1,0,0.2,0,0.2-0.1c0-0.1,0.1-0.1,0.3-0.2c0.1-0.1,0.5,0,0.7-0.1c0,0.1-0.1,0.2-0.3,0.3
				c0.2-0.1,0.5-0.1,0.6,0.1c-0.1-0.1-0.3,0-0.4,0c-0.1,0-0.2,0.1-0.2,0.1c0.1,0,0.2,0.2,0.3,0.2c-0.2,0.1-0.4,0.1-0.6,0
				c-0.1,0-0.2-0.1-0.4-0.1c-0.2,0-0.4,0-0.4,0.2c0,0.1,0.1,0.2,0.6,0.2c0.4,0,0.7-0.1,1.3-0.1c-0.1-0.1,0-0.2-0.1-0.2
				c0.2,0,0.5,0.1,0.6,0.2c0-0.2,0.1-0.3,0.1-0.5c0.1,0,0.3,0.2,0.3,0.3c0-0.1,0.1-0.1,0.1-0.1c0.2,0.1,0.2,0.2,0.2,0.4
				c0.1-0.1,0.1-0.1,0.2-0.2c0.1,0.1,0,0.4-0.1,0.5c0.1-0.1,0.4-0.1,0.5,0.1c-0.1,0-0.2,0-0.3,0.1c-0.3,0.2-0.8,0.3-1.2,0.2
				c-0.4,0-0.4-0.1-0.7-0.1c0.1,0,0.4,0.3,0.7,0.3c0.2,0,0.3,0,0.4,0c0.1,0,0.2,0,0.3,0.1c0.1,0.1,0.2,0.1,0.3,0.1
				c0,0.1-0.1,0.1-0.1,0.2c0.1,0.1,0.1,0.1,0.2,0.2c0,0-0.1,0.1-0.2,0c0.1,0.1,0.1,0.2,0.2,0.2c0,0-0.1,0-0.2,0
				c0.1,0.1,0,0.2,0.1,0.3c0.1,0.1-0.1,0.2-0.2,0.1c0,0.1-0.1,0.1-0.1,0.1c-0.1,0-0.1-0.1-0.1-0.1c0,0,0,0,0,0c0,0.1-0.1,0.1-0.2,0
				c0,0,0,0-0.1-0.1c-0.2,0-0.2-0.1-0.2-0.2c0-0.1,0.2-0.1,0.2-0.1c0,0,0.1,0,0.1,0c0.1,0,0.1-0.1,0.1-0.1c0-0.1-0.1-0.3-0.4-0.3
				c-0.4,0-0.9-0.1-1.2-0.2c0,0-0.1,0-0.1,0c0,0.1-0.1,0.1-0.1,0.2c0,0.1,0.1,0.2,0.2,0.3c-0.1,0.1-0.2,0.1-0.2,0
				c0,0.1-0.1,0.1-0.1,0.2c0,0-0.1-0.1-0.1-0.1c-0.1,0.2-0.3,0.3-0.4,0.2c-0.1,0.1-0.3,0.1-0.3,0c-0.1,0-0.2,0-0.2,0
				c0,0.1,0,0-0.1,0.1c0,0.1-0.1,0.1-0.2,0.1c0,0-0.1-0.1,0-0.2c-0.1,0-0.2,0-0.2,0c0,0,0-0.1,0-0.1c0,0,0,0,0,0c0,0-0.1,0-0.2,0
				c0,0,0-0.1,0-0.1c0,0,0.1-0.1,0.1,0c0,0,0,0,0,0c0,0,0-0.1,0-0.1c0,0,0.1,0,0.2,0.1c0.1,0.1,0.1,0.1,0.2,0.1
				c0.1,0,0.3-0.1,0.5-0.3c-0.4-0.1-0.2-0.3,0-0.4c-0.1,0-0.2,0-0.3,0c-0.5,0.3-1,0.6-1.4,0.5c0,0,0,0.1,0.1,0.1
				c-0.1,0-0.2,0-0.3-0.1c0,0-0.1,0.2,0,0.3c-0.1,0-0.2-0.1-0.3-0.1c0.1,0.1,0,0.2,0,0.2c-0.1-0.1-0.2-0.1-0.2-0.1
				c-0.1,0.1-0.1,0.1-0.2,0c0,0.1-0.1,0.1-0.2,0.2c0-0.1,0-0.1,0-0.2c0,0.1-0.1,0.2-0.2,0.2c0,0,0-0.1,0-0.2c0,0.1-0.2,0.1-0.2,0.2
				c0-0.1,0-0.1,0-0.2c0,0.1-0.1,0.2-0.2,0.2c0,0,0-0.1,0-0.1c0,0.1-0.2,0.1-0.3,0.1c0,0-0.1,0.1-0.2,0.1c-0.1,0-0.1-0.1-0.1-0.2
				c-0.1,0-0.2-0.1-0.1-0.2c0,0,0,0,0-0.1c-0.1-0.1-0.1-0.2,0-0.2c0,0,0.1,0,0.2,0c0-0.2,0.2-0.2,0.2-0.1c0,0.1,0.2,0.2,0.3,0.2
				c0,0,0.1,0,0.1,0c0.2-0.1,0.4-0.2,0.6-0.3c0-0.1,0-0.1,0-0.2c-0.1,0.1-0.2,0.1-0.3,0.2c0,0,0-0.1,0-0.1c-0.1,0-0.2,0-0.2,0
				c0,0,0.1-0.1,0.1-0.2c-0.1,0-0.2,0-0.3,0c0.1,0,0-0.1,0.1-0.2c-0.1,0-0.2,0-0.3,0c0-0.1,0-0.2,0.1-0.2c-0.1,0-0.2,0-0.3-0.1
				c0.1,0,0.1-0.1,0.2-0.1c-0.2,0-0.2-0.1-0.3-0.1c0.1,0,0.1-0.1,0.2-0.1c-0.1,0-0.2-0.1-0.1-0.2c0,0-0.1,0.1-0.1,0.1
				c-0.1,0-0.2,0-0.2-0.1c-0.1-0.1,0-0.2,0.1-0.2c-0.1,0-0.1-0.1-0.1-0.2c0,0,0.1-0.1,0.2,0c0,0,0,0.1,0.1,0.1c0-0.1,0-0.1,0-0.2
				c0-0.1,0.1-0.1,0.1-0.1c0.1,0,0.1,0.1,0.1,0.1c0,0.1,0,0.1,0,0.2c0,0,0-0.1,0-0.1c0-0.1,0.1-0.1,0.2-0.1c0.1,0,0.1,0.2,0,0.2
				c-0.1,0.1,0,0.1,0,0.2c0.2,0.3,0.5,0.5,0.7,0.5c0-0.1,0-0.2,0.1-0.3c0-0.1,0-0.1,0.1-0.2c0-0.1,0.1-0.2,0.2-0.2c0,0,0,0,0-0.1
				c-0.1-0.1-0.1-0.2-0.1-0.3c0.1-0.1,0.2-0.1,0.2,0c0-0.2,0.2-0.3,0.2-0.4c0,0.1,0.1,0.2,0,0.2c0-0.1,0.2-0.2,0.3-0.3
				c-0.1,0.1,0.1,0.2,0.1,0.3c0-0.1,0.2-0.2,0.4-0.2c0,0,0,0.1-0.1,0.2c0.1,0,0.2,0,0.2-0.1c0,0.1,0,0.2-0.1,0.2c0,0,0.1,0,0.2,0
				c-0.1,0.1,0,0.1-0.1,0.2c0.1-0.1,0.2-0.1,0.2,0c0,0.1,0,0.2-0.1,0.3C-209.3,394.6-209.3,394.6-209.4,394.6z"/>
			<path d="M-212.1,396.8c0,0-0.1,0-0.1,0c-0.1,0-0.1-0.1-0.1-0.2c0,0,0,0,0,0c0,0-0.1,0-0.1-0.1c0-0.1,0-0.1,0-0.2c0,0,0,0,0,0
				c0,0,0-0.1-0.1-0.1c0-0.1,0-0.1,0-0.2c0,0,0.1-0.1,0.2-0.1c0-0.1,0.1-0.1,0.1-0.1c0.1,0,0.2,0,0.2,0.1c0,0.1,0.2,0.2,0.3,0.1
				c0,0,0.1,0,0.1,0c0.1,0,0.2-0.1,0.3-0.1v-0.1c0,0,0,0,0,0c0,0-0.1,0-0.1,0c0,0,0,0-0.1,0l-0.2,0l0.1-0.1c0,0,0,0,0,0c0,0,0,0,0,0
				c-0.1,0-0.2,0-0.2,0l-0.1,0l0.1-0.1c0,0,0,0,0-0.1c0,0,0,0,0,0c0,0,0,0,0,0c0,0-0.1,0-0.1,0l-0.1,0l0-0.1c0,0,0-0.1,0-0.1
				c-0.1,0-0.1,0-0.2-0.1l0-0.1c0,0,0,0,0,0c-0.1,0-0.1,0-0.1-0.1c0,0,0,0-0.1,0l0-0.1c0,0,0,0,0,0c0,0,0,0,0.1,0c0,0,0,0-0.1-0.1
				c0,0,0,0,0,0c0,0-0.1,0-0.1,0c-0.1,0-0.1-0.1-0.2-0.1c0-0.1,0-0.1,0-0.2c0,0,0,0,0,0c0,0,0,0,0,0c0-0.1,0-0.1,0-0.2
				c0,0,0.1-0.1,0.2-0.1c0,0,0,0,0.1,0c0,0,0,0,0-0.1c0-0.1,0.1-0.1,0.2-0.1c0,0,0.1,0,0.1,0c0,0,0.1,0.1,0.1,0.2c0,0,0,0,0,0
				c0,0,0,0,0,0c0.1,0,0.2,0,0.2,0c0.1,0,0.1,0.1,0.1,0.1c0,0.1,0,0.2-0.1,0.2c0,0,0,0,0,0.1c0.1,0.2,0.4,0.4,0.6,0.5
				c0-0.1,0.1-0.2,0.1-0.2c0-0.1,0-0.1,0.1-0.2c0-0.1,0.1-0.2,0.1-0.2c0,0,0,0,0,0c-0.1-0.1-0.1-0.2-0.1-0.3c0-0.1,0.1-0.1,0.2-0.1
				c0,0,0.1,0,0.1,0c0-0.1,0.1-0.1,0.1-0.2c0,0,0-0.1,0-0.1h0.1c0,0,0,0.1,0,0.1c0,0,0,0,0,0c0.1-0.1,0.2-0.1,0.3-0.2l0.2-0.1
				l-0.1,0.2c0,0,0,0.1,0,0.1c0,0,0,0,0,0c0.1-0.1,0.2-0.1,0.4-0.1l0.1,0l-0.1,0.1c0,0,0,0,0,0.1c0.1,0,0.1,0,0.1-0.1l0.1-0.1l0,0.2
				c0,0.1,0,0.1,0,0.2c0,0,0.1,0,0.1,0l0.2,0l-0.2,0.1c0,0,0,0,0,0c0,0,0,0,0.1,0c0.1,0,0.1,0,0.1,0.1c0.1,0.1,0,0.3-0.1,0.3
				c0,0-0.1,0.1-0.1,0.1c0,0,0,0,0,0.1c0,0,0,0.1,0,0.1c0,0,0,0.1,0,0.1c0,0,0,0.1,0,0.1c0,0,0.1,0,0.1,0c0.3,0,0.5-0.1,0.8-0.1
				c0.3-0.1,0.6-0.1,0.9-0.1c0.3,0,0.5,0.1,0.7,0.1c0.1,0,0.3,0.1,0.4,0.1c0.1,0,0.2-0.1,0.2-0.2c0,0,0-0.1-0.5-0.1
				c-0.3,0-0.5,0-0.7,0.1c-0.2,0-0.4,0.1-0.6,0.1c-0.8,0-0.9-0.3-0.9-0.4c0-0.1,0.1-0.4,0.6-0.4c0.1,0,0.2,0,0.2,0
				c0-0.1,0.1-0.2,0.3-0.2c0.1-0.1,0.2-0.1,0.3-0.1c0.1,0,0.3,0,0.3,0l0.1,0l0,0.1c0,0.1,0,0.1-0.1,0.2c0.1,0,0.2,0,0.2,0
				c0.1,0,0.1,0.1,0.1,0.2l0,0.1c0,0,0,0,0,0c0.2,0,0.4,0.1,0.5,0.2c0,0,0-0.1,0-0.1c0-0.1,0.1-0.1,0-0.2l0-0.1l0.1,0
				c0.1,0,0.2,0.1,0.3,0.2c0,0,0,0,0,0V394l0.1,0c0.1,0,0.2,0.2,0.2,0.3c0,0,0,0,0.1-0.1l0-0.1l0.1,0.1c0,0.1,0.1,0.2,0,0.3
				c0,0,0,0.1,0,0.1c0.1,0,0.3,0,0.4,0.2l0.1,0.1l-0.2,0c-0.1,0-0.2,0-0.2,0.1l0,0c-0.3,0.2-0.8,0.3-1.2,0.2c-0.1,0-0.2,0-0.3,0
				c0.1,0.1,0.2,0.1,0.3,0.1c0.2,0,0.3,0,0.4,0c0.1,0,0.2,0,0.3,0.1c0.1,0.1,0.2,0.1,0.3,0.1l0.1,0l0,0.1c0,0.1,0,0.1-0.1,0.2
				c0,0,0,0,0,0.1c0,0,0,0.1,0.1,0.1l0.1,0.1l-0.1,0c0,0,0,0-0.1,0c0,0,0,0,0,0c0,0,0,0.1,0,0.1l0.1,0.1l-0.2,0c0,0,0,0,0,0
				c0,0,0,0,0,0c0,0,0,0.1,0,0.1c0,0,0,0.1,0,0.1c0.1,0.1,0.1,0.1,0,0.2c0,0-0.1,0.1-0.2,0c0,0,0,0,0,0c0,0-0.1,0.1-0.2,0
				c-0.1,0-0.1-0.1-0.1-0.1c-0.1,0-0.1,0-0.1,0c0,0,0,0-0.1-0.1c-0.1,0-0.2,0-0.2-0.1c0-0.1-0.1-0.1-0.1-0.2c0-0.1,0.1-0.1,0.1-0.1
				c0.1,0,0.1,0,0.2,0s0.1,0,0.1,0c0.1,0,0.1-0.1,0.1-0.1c0,0,0-0.1-0.1-0.1c-0.1,0-0.1-0.1-0.2-0.1c0,0,0,0,0,0
				c-0.4,0-1-0.1-1.2-0.2c0,0,0,0,0,0c0,0,0,0,0,0.1c0,0,0,0.1,0,0.1c0,0.1,0,0.2,0.2,0.2l0.1,0l0,0.1c0,0.1-0.1,0.1-0.2,0.1
				c0,0-0.1,0-0.1,0c0,0,0,0,0,0c0,0,0,0.1,0,0.1l0,0.2l-0.1-0.2c0,0,0,0,0,0c-0.1,0.1-0.2,0.2-0.4,0.2c-0.1,0-0.1,0.1-0.2,0
				c0,0-0.1,0-0.1-0.1c-0.1,0-0.1,0-0.2,0c0,0,0,0,0,0c0,0,0,0,0,0c0,0,0,0.1-0.1,0.1c0,0-0.1,0-0.2,0c0,0-0.1-0.1-0.1-0.1
				c0,0,0,0-0.1,0c0,0-0.1,0-0.1-0.1c0,0,0-0.1,0-0.1c0,0,0,0,0,0c0,0-0.1-0.1-0.1-0.1c0,0,0-0.1,0-0.1c0,0,0.1-0.1,0.1-0.1
				c0,0,0,0,0,0c0,0,0,0,0.1-0.1c0.1,0,0.2,0,0.3,0.1c0,0.1,0.1,0.1,0.2,0c0.1,0,0.2-0.1,0.3-0.2c-0.1,0-0.1-0.1-0.2-0.1
				c0-0.1,0-0.2,0.1-0.3c0,0,0,0,0,0c-0.1,0-0.1,0-0.2,0l-0.1,0.1c-0.4,0.2-0.8,0.4-1.1,0.4c0,0,0,0,0,0c0,0,0,0,0,0l0.1,0.1l-0.1,0
				c-0.1,0-0.2,0-0.3,0c0,0,0,0.1,0,0.1l0.1,0.2l-0.2-0.1c0,0-0.1,0-0.1-0.1c0,0,0,0,0,0c0,0,0,0.1,0,0.1l-0.1,0.1
				c-0.1-0.1-0.1-0.1-0.2-0.1c-0.1,0.1-0.2,0.1-0.2,0.1c0,0.1-0.1,0.1-0.2,0.1l-0.1,0l0-0.1c0,0-0.1,0.1-0.1,0.1l-0.1,0.1l0-0.1
				c0,0,0,0-0.1,0c0,0-0.1,0-0.1,0l-0.1,0c0,0-0.1,0.1-0.2,0.1l-0.1,0l0,0c-0.1,0-0.1,0-0.2,0C-212,396.7-212,396.7-212.1,396.8
				C-212,396.8-212.1,396.8-212.1,396.8z M-212.2,396.6C-212.2,396.6-212.2,396.6-212.2,396.6c0.1,0.1,0.1,0.1,0.2,0.1c0,0,0,0,0,0
				l0-0.1l0.1,0c0.1,0,0.2,0,0.2-0.1l0-0.2l0.1,0.2c0,0,0,0,0,0.1c0,0,0.1-0.1,0.1-0.1l0.1-0.1l0,0.2c0,0,0,0,0,0.1
				c0,0,0.1,0,0.1-0.1l0.1,0c0,0,0,0,0,0.1c0,0,0.1-0.1,0.1-0.1l0.1-0.2l0.1,0.2c0,0,0,0.1,0,0.1c0,0,0.1-0.1,0.1-0.1l0,0l0,0
				c0.1,0,0.1,0,0.2,0c0.1-0.1,0.1-0.1,0.2,0c0,0,0-0.1,0-0.1l-0.1-0.2l0.2,0.1c0,0,0.1,0,0.2,0.1c0-0.1,0-0.1,0.1-0.2l0-0.1l0,0.1
				c0,0,0.1,0,0.1,0c0,0,0,0,0-0.1l0-0.1l0.1,0c0.3,0.1,0.8-0.2,1.2-0.4l0.1-0.1c0.1-0.1,0.3-0.1,0.4,0l0.1,0l-0.1,0.1
				c-0.1,0.1-0.2,0.2-0.2,0.2c0,0,0.1,0.1,0.2,0.1l0.1,0l-0.1,0.1c-0.1,0.1-0.3,0.2-0.5,0.3c-0.2,0-0.2,0-0.3-0.1c0-0.1-0.1,0-0.1,0
				c0,0,0,0,0,0l0.1,0.2l-0.1-0.1c0,0,0,0,0,0c0,0,0,0,0,0c0,0,0,0,0,0c0,0,0,0,0,0c0,0,0,0,0.1,0c0,0,0.1,0,0.1,0l0.1,0.1l-0.1,0
				c0,0,0,0,0,0c0,0,0,0,0,0c0,0,0,0,0,0c0,0,0.1,0,0.1,0h0l0,0v0l0.1,0.1c0,0,0,0,0,0c0,0,0.1,0,0.1,0c0-0.1,0-0.1,0-0.1l0-0.1
				l0.1,0.1c0,0,0.1,0,0.2,0l0.1,0l0,0.1c0,0,0,0,0.1,0c0,0,0.1,0,0.1,0l0,0l0,0c0.1,0,0.2-0.1,0.3-0.2l0.1-0.2l0,0.2c0,0,0,0,0,0
				c0,0,0,0,0-0.1V396l0.1,0.2c0,0,0,0,0.1,0c0,0,0,0,0,0c-0.1-0.1-0.1-0.2-0.1-0.3c0-0.1,0-0.1,0.1-0.2c0,0,0,0,0-0.1l0-0.1l0.1,0
				c0,0,0,0,0.1,0c0.3,0.1,0.9,0.2,1.2,0.2c0.2,0,0.3,0,0.4,0.1c0.1,0.1,0.1,0.2,0.1,0.2c0,0.1-0.1,0.2-0.1,0.2
				c-0.1,0.1-0.2,0-0.2,0c0,0,0,0-0.1,0c0,0,0,0,0,0c0,0,0,0,0,0.1c0,0,0.1,0,0.1,0l0,0l0,0c0,0,0,0,0,0c0,0,0.1,0,0.1,0l0.1,0.1
				c0,0,0,0,0,0c0,0,0,0,0.1,0c0,0,0,0,0,0c0,0,0,0,0,0l0-0.2l0.1,0.1c0,0,0.1,0,0.1,0c0,0,0,0,0,0c0,0,0-0.1,0-0.2c0,0,0-0.1,0-0.1
				l0.1-0.1c0,0,0,0,0,0c0,0,0,0,0,0c0,0,0-0.1-0.1-0.1l0-0.1c0,0,0,0,0.1,0c0,0,0,0,0-0.1c0,0,0,0-0.1-0.1l-0.2-0.1l0.2,0
				c0,0,0.1,0,0.1-0.1c-0.1,0-0.2-0.1-0.3-0.1c-0.1-0.1-0.2-0.1-0.2-0.1c-0.1,0-0.2,0-0.4,0c-0.2,0-0.4-0.1-0.5-0.2
				c-0.1,0-0.1-0.1-0.2-0.1l0-0.1c0.1,0,0.2,0,0.3,0s0.2,0,0.4,0.1c0.3,0,0.8,0,1.1-0.2l0,0c0,0,0.1,0,0.1-0.1c-0.1,0-0.2,0-0.3,0
				c0,0,0,0,0,0l-0.1-0.1c0,0,0,0,0,0c0.1,0,0.1-0.1,0.1-0.2c0,0,0-0.1,0-0.1c0,0,0,0,0,0c0,0,0,0-0.1,0.1l-0.1,0
				c0-0.1,0-0.2-0.1-0.3c0,0,0,0,0,0c0,0,0,0,0,0l-0.1,0c0-0.1-0.1-0.2-0.2-0.2c0,0.1,0,0.1,0,0.2c0,0.1-0.1,0.1,0,0.2l-0.1,0
				c-0.1-0.1-0.2-0.2-0.4-0.2c0,0,0,0.1,0,0.1c0,0,0,0,0,0.1l0.1,0.1h-0.1c-0.4,0-0.6,0-0.8,0.1c-0.2,0-0.3,0.1-0.5,0.1
				c-0.3,0-0.6,0-0.6-0.3c0-0.2,0.3-0.2,0.4-0.2c0.2,0,0.4,0.1,0.4,0.1c0.2,0.1,0.3,0.1,0.5,0c0,0,0,0-0.1-0.1c0,0-0.1-0.1-0.1-0.1
				c0,0,0,0,0,0l0-0.1c0.1,0,0.1,0,0.2-0.1l0,0c0,0,0.1,0,0.2,0c-0.1,0-0.2,0-0.3,0l0-0.1c0.1,0,0.1-0.1,0.2-0.1c-0.1,0-0.2,0-0.2,0
				c-0.1,0-0.2,0-0.3,0c-0.1,0.1-0.2,0.2-0.2,0.2c-0.1,0.1-0.2,0.1-0.3,0.1c-0.4,0-0.4,0.2-0.4,0.2c0,0.2,0.2,0.3,0.8,0.3
				c0.2,0,0.4,0,0.6-0.1c0.2,0,0.5-0.1,0.8-0.1c0.3,0,0.7,0,0.7,0.3c0,0.2-0.2,0.3-0.4,0.3c-0.1,0-0.3,0-0.4-0.1
				c-0.2,0-0.4-0.1-0.7-0.1c-0.3,0-0.6,0.1-0.9,0.1c-0.3,0.1-0.6,0.1-0.9,0.1c-0.1,0-0.1,0-0.2,0l0,0l0,0c-0.1,0-0.1-0.1-0.1-0.1
				c0,0,0,0,0-0.1c0,0,0-0.1,0-0.2c0,0,0,0,0-0.1l-0.1-0.1l0.1,0c0,0,0,0,0.1-0.1c0.1-0.1,0.1-0.2,0.1-0.2c0,0,0,0,0,0
				c0,0-0.1,0-0.1,0c0,0,0,0,0,0l-0.1-0.1c0,0,0,0,0,0c0,0,0,0,0-0.1c0,0,0,0,0,0c0,0,0,0-0.1,0l-0.1-0.1c0,0,0,0,0-0.1
				c0,0-0.1,0-0.1,0h-0.1l0-0.1c0,0,0,0,0-0.1c-0.1,0-0.2,0.1-0.2,0.1l-0.1,0c0,0,0,0,0-0.1c0,0,0-0.1,0-0.1c-0.1,0-0.2,0.1-0.2,0.2
				c0,0,0,0,0,0l-0.1,0c0,0,0,0,0,0c0,0,0,0,0-0.1c0,0.1-0.1,0.1-0.1,0.2l0,0.2l-0.1-0.2c0,0,0,0-0.1,0c0,0,0,0,0,0
				c0,0.1,0,0.2,0.1,0.2l0,0c0,0,0,0,0,0l-0.1,0.1c0,0,0,0-0.1,0c0,0,0,0.1,0,0.1l0,0l0,0c0,0,0,0.1,0,0.1l0,0l0,0
				c-0.1,0-0.1,0.1-0.1,0.2l0,0.1l-0.1,0c-0.3,0-0.6-0.3-0.8-0.5c-0.1-0.1-0.1-0.2,0-0.3c0,0,0-0.1,0-0.1c0,0,0,0,0,0
				c0,0-0.1,0-0.1,0c0,0,0,0,0,0c0,0,0,0.1,0,0.1l-0.1,0.2l0-0.2c0,0,0-0.1,0-0.1c0-0.1,0-0.1,0-0.2c0,0,0,0,0-0.1c0,0,0,0,0,0
				c-0.1,0-0.1,0-0.1,0c0,0.1,0,0.1,0,0.2l0.1,0.2l-0.2-0.1c0,0-0.1-0.1-0.1-0.1c0,0-0.1,0-0.1,0c0,0,0,0.1,0,0.1c0,0,0,0,0,0l0,0.1
				c0,0,0,0,0,0c0,0,0,0.1,0,0.1c0,0,0.1,0.1,0.1,0.1c0,0,0,0,0,0c0,0,0,0,0,0c0,0,0,0,0,0l0.1,0.1c0,0,0.1,0.1,0.1,0.1l0,0.1
				c0,0,0,0,0,0c0,0,0.1,0.1,0.2,0l0,0.1c0,0,0,0-0.1,0c0,0,0,0,0,0c0.1,0,0.1,0,0.2,0l0,0.1c0,0,0,0-0.1,0.1c0,0,0,0,0.1,0
				c0,0,0.1,0,0.1,0l0.2-0.1l-0.1,0.2c0,0,0,0,0,0.1c0,0,0,0,0,0.1c0.1,0,0.1,0,0.2,0l0.1,0.1c0,0,0,0,0,0.1c0,0,0,0,0,0
				c0,0,0.1,0,0.1,0l0.1,0l0,0c0,0,0,0,0.1,0c0,0,0.1,0,0.1,0l0.1-0.1l0,0.1c0,0,0,0.1,0,0.2l0,0l0,0c-0.2,0.2-0.5,0.3-0.6,0.3
				c0,0-0.1,0-0.1,0c-0.2,0-0.3-0.1-0.4-0.2c0,0-0.1-0.1-0.1-0.1c0,0,0,0,0,0.1v0.1l-0.1,0c0,0-0.1,0-0.1,0c0,0,0,0,0,0.1
				c0,0,0,0.1,0,0.1l0.1,0l-0.1,0.1c0,0,0,0,0,0c0,0,0,0,0,0.1c0,0,0,0,0.1,0h0l0.1,0L-212.2,396.6L-212.2,396.6z M-208.2,394.3
				c-0.1,0-0.3,0-0.3,0.1c0,0.1,0.2,0.1,0.5,0.1c0.2,0,0.3,0,0.5-0.1c0.2,0,0.4-0.1,0.7-0.1c0,0,0,0,0,0c0,0,0-0.1,0-0.1l-0.2-0.1
				l0.1,0l-0.1,0c-0.1-0.1-0.3,0-0.3,0l0,0c0,0-0.1,0-0.1,0c0,0,0,0,0,0c0,0,0.1,0.1,0.1,0.1c0,0,0,0,0,0l0.2,0l-0.1,0.1
				c-0.2,0.1-0.4,0.1-0.7,0C-207.9,394.3-208,394.3-208.2,394.3z"/>
		</g>
		<g>
			<g>
				<path d="M-211.1,395.3l-0.1,0c0-0.1,0.1-0.3,0.3-0.4l0,0.1C-211,395-211,395.2-211.1,395.3z"/>
			</g>
			<g>
				<path d="M-211.3,395.7c-0.1-0.3,0.1-0.5,0.3-0.6l0.1,0.1c-0.2,0.1-0.3,0.2-0.3,0.5L-211.3,395.7z"/>
			</g>
			<g>
				<path d="M-210.8,395.9l0-0.1c0.1-0.1,0.2-0.1,0.3-0.3l0.1,0.1C-210.5,395.8-210.6,395.8-210.8,395.9z"/>
			</g>
			<g>
				<path d="M-210.5,396L-210.5,396c-0.1-0.1-0.1-0.2-0.1-0.2c0-0.1,0-0.1,0-0.2l0.1,0c0,0,0,0.1,0,0.1c0,0,0,0,0,0
					c0-0.1,0.1-0.1,0.1-0.2l0.1,0C-210.3,395.8-210.4,395.9-210.5,396z"/>
			</g>
			<g>
				<path d="M-210.4,395.9l0-0.1c0.1,0,0.2-0.2,0.3-0.3l0.1,0c0,0,0-0.1,0-0.1l0.1,0c0,0,0,0,0-0.1l0.1,0c0,0.1-0.1,0.2-0.1,0.2
					l-0.1,0.2l0,0c0,0-0.1,0.1-0.1,0.1l-0.1-0.1C-210.3,395.8-210.4,395.9-210.4,395.9z"/>
			</g>
			<g>
				<path d="M-210,395.7l0-0.1c0,0,0,0,0-0.1c0,0,0,0,0,0l0.1,0c0,0,0-0.1,0-0.2l0.1,0c0,0.1-0.1,0.3-0.2,0.3L-210,395.7z"/>
			</g>
			<g>
				<path d="M-209.7,395.5l-0.1-0.1c0.1-0.1,0.1-0.1,0.1-0.4l0.1,0C-209.5,395.2-209.5,395.4-209.7,395.5z"/>
			</g>
			<g>
				<path d="M-209.6,395.2l-0.1-0.1c0.1-0.1,0.1-0.1,0.1-0.3l0.1,0C-209.4,395.1-209.4,395.2-209.6,395.2z"/>
			</g>
			<g>
				<path d="M-210,394.7C-210.1,394.7-210.1,394.6-210,394.7c-0.2-0.1-0.2-0.1-0.2-0.2c0-0.1,0.1-0.1,0.1-0.2c0,0,0,0,0-0.1
					c0,0,0,0,0,0c0,0-0.1,0-0.1,0c-0.1,0-0.1-0.1-0.1-0.2l0.1,0c0,0.1,0.1,0.1,0.1,0.1c0,0,0.1,0,0.2,0c0,0,0,0,0,0l0.1,0.1
					c0,0,0,0,0,0c0,0,0,0,0,0.1c0,0.1,0,0.1-0.1,0.1c0,0-0.1,0.1-0.1,0.1c0,0,0,0,0,0l0,0c0,0,0,0,0,0c0,0,0,0,0,0c0,0,0,0,0-0.1
					c0,0,0-0.1,0.1-0.1c0,0,0-0.1,0-0.1c0-0.1,0.1-0.1,0.1-0.2l0,0.1c0,0,0,0,0,0.1c0,0,0,0.1,0,0.1c0,0,0,0.1,0,0.1
					C-209.9,394.6-209.9,394.6-210,394.7C-210,394.6-210,394.7-210,394.7z"/>
			</g>
			<g>
				<path class="st22" d="M-209.6,394.3c-0.1,0-0.1-0.1-0.2,0c0,0-0.1,0-0.1,0"/>
			</g>
			<g>
				<path d="M-209.7,394.5c-0.1,0-0.2,0-0.2-0.1l0.1-0.1c0,0,0,0,0,0c0-0.1,0-0.1,0.1-0.2l0.1,0.1c0,0,0,0,0,0c0,0,0,0,0,0
					c0,0,0,0,0,0l0,0.1C-209.7,394.5-209.7,394.5-209.7,394.5z"/>
			</g>
			<g>
				<path d="M-210.2,394.4C-210.2,394.4-210.2,394.4-210.2,394.4c-0.1,0-0.2-0.1-0.2-0.1c0,0,0-0.1,0-0.1c0-0.1,0.1-0.1,0.2-0.1
					l0,0.1c-0.1,0-0.1,0-0.1,0c0,0,0,0,0,0c0,0,0,0,0,0c0,0,0.1,0,0.1,0l0.1,0.1C-210.1,394.4-210.1,394.4-210.2,394.4z"/>
			</g>
			<g>
				<path d="M-210.3,395.4l-0.1-0.1L-210.3,395.4l-0.1-0.1c0,0,0,0,0-0.1l0-0.1l0.1,0c0,0,0,0,0.1,0l0,0l0,0c0,0,0,0,0,0
					c0.1,0,0.1,0,0.1-0.1l0,0l0,0c0,0,0-0.1,0-0.1l0-0.1l0.1,0c0,0,0,0,0,0c0,0,0,0,0.1-0.1l0-0.1l0.1,0c0,0,0,0,0,0c0,0,0,0,0,0
					l0.1,0c0,0-0.1,0.1-0.1,0.1c0,0,0,0-0.1,0c0,0-0.1,0.1-0.1,0.1c0,0,0,0.1-0.1,0.1c0,0.1-0.1,0.2-0.2,0.2
					C-210.1,395.3-210.1,395.3-210.3,395.4C-210.2,395.4-210.2,395.4-210.3,395.4z"/>
			</g>
			<g>
				<path d="M-210.7,395.2l-0.1,0c0,0,0-0.1,0-0.1l0,0l0,0c0,0,0-0.1,0-0.1l0-0.1l0,0c0,0,0-0.1,0-0.1l0-0.1l0.1,0c0,0,0,0,0,0
					l0.1,0c0,0.1,0,0.1-0.1,0.1c0,0.1,0,0.1-0.1,0.2c0,0,0,0.1,0,0.2C-210.7,395.1-210.7,395.1-210.7,395.2z"/>
			</g>
			<g>
				<path class="st22" d="M-210.5,394.1c-0.1,0.1,0,0.3,0.1,0.3"/>
			</g>
			<g>
				<path d="M-210.2,395.2c0,0-0.1,0-0.1,0c-0.1,0-0.2-0.1-0.2-0.1c0-0.1,0-0.2,0-0.2c0,0,0-0.2,0-0.3l0-0.1l0.1,0l0,0.1
					c0,0.1,0,0.3-0.1,0.3c0,0,0,0.1,0,0.1c0,0,0,0.1,0.1,0.1c0.2,0,0.3,0,0.4-0.3l0.1,0C-209.9,395.1-210.1,395.2-210.2,395.2z"/>
			</g>
			<g>
				<path class="st22" d="M-209.5,395.7C-209.5,395.7-209.6,395.8-209.5,395.7"/>
			</g>
			<g>
				<path class="st22" d="M-209.4,395.6c0,0,0,0.1-0.1,0.2"/>
			</g>
			<g>
				<path class="st22" d="M-209.2,395.6c0,0,0,0.1,0,0.1"/>
			</g>
			<g>
				<path class="st22" d="M-210.7,394.1C-210.6,394.1-210.6,394.1-210.7,394.1c0,0.1-0.1,0.2,0,0.3"/>
			</g>
			<g>
				<path class="st22" d="M-210.7,394.5C-210.8,394.5-210.8,394.6-210.7,394.5"/>
			</g>
			<g>
				<path class="st22" d="M-210.8,394.7C-210.8,394.7-210.9,394.7-210.8,394.7"/>
			</g>
			<g>
				<path class="st22" d="M-212,394.3C-212,394.3-212,394.3-212,394.3"/>
			</g>
			<g>
				<path class="st22" d="M-212.2,394.2C-212.2,394.2-212.2,394.2-212.2,394.2"/>
			</g>
			<g>
				<path class="st22" d="M-212.2,394.6C-212.2,394.6-212.1,394.6-212.2,394.6"/>
			</g>
			<g>
				<path class="st22" d="M-212.3,394.4c0,0-0.1-0.1-0.1-0.1"/>
			</g>
			<g>
				<path d="M-211.1,395.8l-0.1,0c0-0.2,0.1-0.3,0.3-0.5l0.1,0.1C-211.1,395.5-211.1,395.6-211.1,395.8z"/>
			</g>
			<g>
				<path class="st22" d="M-210.8,395.4c0,0.1-0.1,0.2-0.2,0.2"/>
			</g>
			<g>
				<path d="M-211.9,396.2c-0.1,0-0.2,0-0.3-0.1c0,0,0,0-0.1,0l0-0.1c0,0,0.1,0,0.1,0c0.1,0.1,0.3,0.1,0.4,0.1l0,0.1
					C-211.8,396.2-211.8,396.2-211.9,396.2z"/>
			</g>
			<g>
				<path d="M-211,396.1L-211,396.1c-0.1-0.1,0-0.2,0-0.3l0.1,0c0,0,0,0,0,0.1c0.1-0.1,0.2-0.2,0.2-0.3l0.1,0
					C-210.7,395.9-210.9,396-211,396.1z"/>
			</g>
			<g>
				<path class="st22" d="M-212.4,396.3c0.1,0,0.1,0,0.2,0"/>
			</g>
			<g>
				<path d="M-208,395.7L-208,395.7c-0.1-0.1-0.1-0.1-0.2-0.1l0-0.1c0,0,0.1,0,0.1,0c0.1-0.1,0.1-0.1,0.2-0.1l0.1,0.1
					C-207.9,395.5-208,395.6-208,395.7L-208,395.7z"/>
			</g>
			<g>
				<path class="st22" d="M-209.9,396c0-0.1,0-0.2,0.2-0.3"/>
			</g>
			<g>
				<path class="st22" d="M-210.9,396.4c0-0.1,0-0.1,0-0.2"/>
			</g>
			<g>
				<path class="st22" d="M-211.9,396.5c0,0-0.1,0.1-0.1,0.1"/>
			</g>
			<g>
				<path class="st22" d="M-212.3,396.5C-212.3,396.5-212.3,396.5-212.3,396.5c0.1,0,0.2-0.1,0.2-0.1"/>
			</g>
			<g>
				<path class="st22" d="M-209,396.2C-209,396.2-209,396.2-209,396.2"/>
			</g>
			<g>
				<path class="st22" d="M-209,396.3C-209,396.3-209,396.3-209,396.3"/>
			</g>
			<g>
				<path class="st22" d="M-208.9,396.4C-208.9,396.5-208.9,396.5-208.9,396.4"/>
			</g>
			<g>
				<path class="st22" d="M-208.2,396.5c0,0,0.1-0.1,0.1-0.2"/>
			</g>
			<g>
				<path class="st22" d="M-208.5,396.5c0.1,0,0.1-0.1,0.2-0.1"/>
			</g>
			<g>
				<path class="st22" d="M-207.8,396.3c0,0,0-0.1,0-0.1"/>
			</g>
			<g>
				<path class="st22" d="M-206,396.5c0-0.1,0-0.1,0-0.2c0,0,0.1,0,0.1-0.1"/>
			</g>
			<g>
				<path d="M-207.5,395.7c-0.2-0.1-0.3-0.2-0.4-0.2c-0.1-0.1-0.1-0.1-0.3-0.1c0,0,0,0,0,0l0-0.1c0.2,0,0.3,0.1,0.4,0.2
					c0.1,0.1,0.2,0.1,0.3,0.2L-207.5,395.7z"/>
			</g>
			<g>
				<path class="st22" d="M-205.8,396.4c0,0,0,0.1,0,0.1"/>
			</g>
			<g>
				<path class="st22" d="M-205.6,396.4c0,0.1,0,0.1,0,0.2"/>
			</g>
			<g>
				<path class="st22" d="M-207.4,394.1c-0.1,0-0.1,0-0.2,0"/>
			</g>
			<g>
				<path d="M-209.2,395.1c-0.2,0-0.3-0.1-0.3-0.2l0.1,0c0,0,0,0.1,0.2,0.1l0,0c0,0,0,0,0,0L-209.2,395.1
					C-209.2,395.1-209.2,395.1-209.2,395.1z"/>
			</g>
			<g>
				<path d="M-210,394.8C-210,394.8-210,394.8-210,394.8c-0.1,0-0.2-0.1-0.2-0.1c0,0-0.1,0-0.1,0c-0.1,0-0.2,0-0.2-0.1
					c-0.1-0.1,0-0.3,0-0.4l0.1,0c-0.1,0.1-0.1,0.2,0,0.3c0,0,0,0,0.1,0c0,0,0,0,0,0c0,0,0.1,0,0.1-0.1l0.1,0.1c0,0.1,0,0.1,0,0.1
					c0.1,0,0.1-0.1,0.2-0.1l0-0.1l0.1,0.1c0,0,0,0,0.1,0c0,0,0.1-0.1,0.1-0.1l0-0.1l0.1,0c0,0,0.1,0,0.1,0l0.1,0.1
					c0,0-0.1,0.1-0.1,0.1c0,0,0,0,0,0h0l0,0.1c0,0-0.1,0-0.1,0c0,0,0,0,0-0.1c0,0-0.1,0.1-0.1,0.1c0,0-0.1,0-0.1,0
					C-209.8,394.8-209.9,394.8-210,394.8z"/>
			</g>
		</g>
		<g>
			<path d="M-207.8,395.6c-0.1,0.1-0.2,0-0.2,0.1c-0.1,0.1,0,0.1,0.1,0.1c0,0.1,0,0.1,0.1,0.1c0,0.1,0.1,0.1,0.1,0.2
				c0.1-0.1,0.1-0.2,0.1-0.2C-207.8,395.7-207.9,395.6-207.8,395.6z"/>
		</g>
		<g>
			<g>
				<path class="st1" d="M-210,394.8c-0.1,0-0.1-0.1-0.1-0.2c0,0-0.1,0.1-0.1,0.1c-0.1,0.2-0.2,0.4-0.4,0.4c-0.2,0-0.1,0.2,0,0.2
					C-210.4,395.3-210.2,395.2-210,394.8z"/>
			</g>
			<g>
				<path class="st1" d="M-212.4,394.2c0.1-0.1,0-0.2,0-0.2c-0.1,0-0.2,0-0.3,0.1c0.1,0,0.2,0,0.2,0
					C-212.5,394.2-212.5,394.3-212.4,394.2z"/>
			</g>
			<g>
				<path class="st1" d="M-212.3,393.8c0.2,0,0.2,0,0.2,0.1c0,0.1,0,0.1-0.1,0.1c-0.1,0-0.1,0-0.1-0.1
					C-212.2,393.9-212.2,393.8-212.3,393.8z"/>
			</g>
			<g>
				<path class="st1" d="M-211.8,394.1c0.1,0,0.2-0.1,0.1-0.2c0-0.1-0.1-0.1-0.2-0.1C-211.8,394-211.9,394.1-211.8,394.1z"/>
			</g>
			<g>
				<path class="st1" d="M-212.7,394.6c0.1,0.1,0.2,0.1,0.2,0.1c0.1,0,0.1-0.1,0.1-0.1c0-0.1-0.1-0.1-0.1,0
					C-212.6,394.6-212.7,394.6-212.7,394.6z"/>
			</g>
			<g>
				<path class="st1" d="M-212.4,396.1c-0.1-0.1-0.2-0.1-0.3,0c0,0,0.2,0,0.2,0.1S-212.4,396.1-212.4,396.1
					C-212.4,396.1-212.3,396.1-212.4,396.1z"/>
			</g>
			<g>
				<path class="st1" d="M-212.1,395.9c0-0.1-0.2-0.1-0.3-0.1c0.1,0,0.1,0,0.1,0.1C-212.3,395.9-212.2,396-212.1,395.9
					C-212.1,395.9-212.1,395.9-212.1,395.9z"/>
			</g>
			<g>
				<path class="st1" d="M-212.4,396.3c-0.1,0-0.2,0.1-0.2,0.3c0-0.1,0.1-0.1,0.2-0.1C-212.4,396.5-212.3,396.5-212.4,396.3
					C-212.3,396.4-212.4,396.3-212.4,396.3z"/>
			</g>
			<g>
				<path class="st1" d="M-212.4,396.8c0.1,0,0.1,0,0.1-0.1c0-0.1,0.1-0.1,0.1,0c0,0,0,0.1,0,0.2
					C-212.2,396.8-212.3,396.8-212.4,396.8z"/>
			</g>
			<g>
				<path class="st1" d="M-209,396c0,0-0.2-0.1-0.2,0c0.1,0,0.1,0,0.1,0.1C-209.1,396.1-209,396.2-209,396
					C-209,396.1-209,396.1-209,396z"/>
			</g>
			<g>
				<path class="st1" d="M-209.2,396.2c-0.1,0-0.2,0.1-0.2,0.2c0,0,0.1-0.1,0.2-0.1C-209.3,396.3-209.2,396.3-209.2,396.2
					C-209.2,396.2-209.2,396.2-209.2,396.2z"/>
			</g>
			<g>
				<path class="st1" d="M-209.1,396.4c-0.1,0-0.2,0.1-0.2,0.2c0,0,0.1-0.1,0.1-0.1C-209.1,396.5-209,396.5-209.1,396.4
					C-209,396.4-209.1,396.4-209.1,396.4z"/>
			</g>
			<g>
				<path class="st1" d="M-208.9,396.6c0,0-0.1,0-0.1,0.1c0,0.1,0,0.1,0,0.2c0,0,0.1-0.1,0.1-0.1
					C-208.8,396.7-208.8,396.6-208.9,396.6z"/>
			</g>
			<g>
				<path class="st1" d="M-206.1,396.4c0-0.1-0.1,0-0.1,0c0,0-0.1,0.2,0,0.3c0-0.1,0-0.1,0.1-0.1
					C-206.1,396.5-206.1,396.4-206.1,396.4z"/>
			</g>
			<g>
				<path class="st1" d="M-206,396.5c-0.1,0.1-0.1,0.2,0,0.3c0,0,0-0.1,0.1-0.1c0.1,0,0.1-0.1,0.1-0.1
					C-205.9,396.4-206,396.4-206,396.5z"/>
			</g>
			<g>
				<path class="st1" d="M-205.7,396.6c0,0-0.1,0-0.1,0.1c0,0.1,0,0.2,0.1,0.2c0,0,0-0.1,0-0.1
					C-205.6,396.7-205.6,396.6-205.7,396.6z"/>
			</g>
			<g>
				<path class="st1" d="M-205.5,396.5c-0.1,0-0.1,0.1,0,0.1c0,0.1,0.1,0.1,0.2,0.1C-205.4,396.7-205.4,396.7-205.5,396.5
					C-205.4,396.6-205.4,396.5-205.5,396.5z"/>
			</g>
		</g>
	</g>
</g>
<g>
	<defs>
		<path id="SVGID_33_" d="M-204,420H-262c-3.8,0-7-3.1-7-7V381c0-3.8,3.1-7,7-7h58.1c3.8,0,7,3.1,7,7V413
			C-197,416.9-200.1,420-204,420z"/>
	</defs>
	<clipPath id="SVGID_34_">
		<use xlink:href="#SVGID_33_"  style="overflow:visible;"/>
	</clipPath>
	<g class="st27">
		<g>
			<polygon class="st20" points="-211,397.3 -211.5,398.8 -213,398.8 -211.8,399.6 -212.2,401.1 -211,400.2 -209.8,401.1 
				-210.3,399.6 -209.1,398.8 -210.6,398.8 			"/>
			<path d="M-212.3,401.1L-212.3,401.1l0.5-1.5l-1.3-0.9h1.6l0.5-1.5l0,0.1l0.5,1.4h1.6l-1.3,0.9l0.5,1.5l-0.1-0.1l-1.2-0.9
				L-212.3,401.1z M-211,400.1L-211,400.1l1.2,0.8l-0.4-1.4l0,0l1.1-0.8h-1.4l0,0l-0.4-1.3l-0.4,1.4h-1.4l1.2,0.8l0,0l-0.4,1.3
				L-211,400.1z"/>
		</g>
		<g>
			<polygon class="st20" points="-206.4,397.3 -206,398.8 -204.5,398.8 -205.7,399.6 -205.2,401.1 -206.4,400.2 -207.7,401.1 
				-207.2,399.6 -208.4,398.8 -206.9,398.8 			"/>
			<path d="M-205.2,401.1l-1.3-0.9l-1.3,0.9l0-0.1l0.5-1.4l-1.3-0.9h1.6l0.5-1.5l0.5,1.5h1.6l-1.3,0.9L-205.2,401.1z M-208.3,398.8
				l1.2,0.8l0,0l-0.4,1.3l1.2-0.8l0,0l1.1,0.8l-0.4-1.4l0,0l1.1-0.8h-1.4l0,0l-0.4-1.3l-0.4,1.4H-208.3z"/>
		</g>
		<g>
			<polygon class="st20" points="-208.7,400 -209.2,401.4 -210.7,401.4 -209.5,402.3 -209.9,403.7 -208.7,402.8 -207.5,403.7 
				-208,402.3 -206.8,401.4 -208.3,401.4 			"/>
			<path d="M-210,403.8L-210,403.8l0.5-1.5l-1.3-0.9h1.6l0.5-1.5l0,0.1l0.5,1.4h1.6l-1.3,0.9l0.5,1.5l-0.1-0.1l-1.2-0.9L-210,403.8z
				 M-208.7,402.8L-208.7,402.8l1.2,0.8l-0.4-1.4l0,0l1.1-0.8h-1.4l0,0l-0.4-1.3l-0.4,1.4h-1.4l1.2,0.8l0,0l-0.4,1.3L-208.7,402.8z"
				/>
		</g>
	</g>
</g>
<g>
	<defs>
		<path id="SVGID_35_" d="M-204,420H-262c-3.8,0-7-3.1-7-7V381c0-3.8,3.1-7,7-7h58.1c3.8,0,7,3.1,7,7V413
			C-197,416.9-200.1,420-204,420z"/>
	</defs>
	<clipPath id="SVGID_36_">
		<use xlink:href="#SVGID_35_"  style="overflow:visible;"/>
	</clipPath>
	<g class="st28">
		<g>
			<polygon class="st24" points="-211,397.8 -211.4,398.9 -212.6,398.9 -211.6,399.6 -212,400.7 -211,400 -210.1,400.7 
				-210.4,399.6 -209.5,398.9 -210.6,398.9 			"/>
		</g>
		<g>
			<polygon class="st24" points="-206.4,397.8 -206.1,398.9 -204.9,398.9 -205.9,399.6 -205.5,400.7 -206.4,400 -207.4,400.7 
				-207,399.6 -208,398.9 -206.8,398.9 			"/>
		</g>
		<g>
			<polygon class="st24" points="-208.7,400.4 -209.1,401.5 -210.3,401.5 -209.3,402.2 -209.7,403.4 -208.7,402.7 -207.8,403.4 
				-208.1,402.2 -207.2,401.5 -208.4,401.5 			"/>
		</g>
	</g>
</g>
<g>
	<defs>
		<path id="SVGID_37_" d="M-204,420H-262c-3.8,0-7-3.1-7-7V381c0-3.8,3.1-7,7-7h58.1c3.8,0,7,3.1,7,7V413
			C-197,416.9-200.1,420-204,420z"/>
	</defs>
	<clipPath id="SVGID_38_">
		<use xlink:href="#SVGID_37_"  style="overflow:visible;"/>
	</clipPath>
	<g class="st29">
		<g>
			<g>
				<path class="st25" d="M-214.7,402.2l-0.2,0.1c0,0,0,0.1,0,0.1l0,0l-0.1-0.2l0,0c0,0,0,0,0.1,0l0.4-0.2c0,0,0-0.1,0-0.1l0,0
					l0.1,0.2l0,0c0,0,0,0-0.1,0L-214.7,402.2l0.1,0.1l0.2-0.1c0,0,0-0.1,0-0.1l0,0l0.1,0.2l0,0c0,0,0,0-0.1,0l-0.4,0.2
					c0,0,0,0.1,0,0.1l0,0l-0.1-0.2l0,0c0,0,0,0,0.1,0l0.2-0.1L-214.7,402.2z"/>
			</g>
		</g>
		<g>
			<g>
				<path class="st25" d="M-214.3,402.5c0,0,0-0.1,0-0.1l0,0l0.2,0.4l-0.2,0.1l0,0c0.1-0.1,0.1-0.2,0.1-0.2c0,0,0,0,0-0.1
					c0,0,0,0-0.1,0c0,0-0.2,0.1-0.2,0.1c0,0,0,0.1,0.2,0l0,0l-0.3,0.2l0,0c0.1-0.1,0.1-0.2,0.1-0.2l-0.2,0.1c0,0,0,0,0,0.1
					c0,0,0,0,0,0.1c0,0,0.1,0.1,0.2,0l0,0l-0.2,0.1l-0.2-0.4l0,0c0,0,0.1,0.1,0.1,0L-214.3,402.5z"/>
			</g>
		</g>
		<g>
			<g>
				<path class="st25" d="M-213.9,403.5l-0.2,0.1c0,0,0,0.1,0,0.1l0,0l-0.2-0.2l0,0c0,0,0.1,0,0.1,0l0.3-0.3c0,0,0-0.1,0-0.1l0,0
					l0.2,0.2l0,0c0,0-0.1,0-0.1,0L-213.9,403.5l0.2,0.1l0.1-0.1c0,0,0-0.1,0-0.1l0,0l0.2,0.2l0,0c0,0-0.1,0-0.1,0l-0.3,0.3
					c0,0,0,0.1,0,0.1l0,0l-0.2-0.2l0,0c0,0,0.1,0,0.1,0l0.2-0.1L-213.9,403.5z"/>
			</g>
		</g>
		<g>
			<g>
				<path class="st25" d="M-213.5,404L-213.5,404c0.2-0.1,0.2-0.2,0.2-0.2S-213.4,403.9-213.5,404L-213.5,404L-213.5,404L-213.5,404
					c-0.1,0-0.1,0-0.2,0c-0.1,0,0,0.1,0,0.1l0,0l-0.1-0.1l0,0c0,0,0.1,0,0.1,0c0.5-0.3,0.5-0.3,0.5-0.3l0,0c0,0,0,0-0.2,0.5
					c0,0,0,0.1,0,0.1l0,0l-0.2-0.2l0,0c0,0,0.1,0,0.1,0c0,0,0-0.1,0-0.1L-213.5,404L-213.5,404z"/>
			</g>
		</g>
		<g>
			<g>
				<path class="st25" d="M-213.3,404.5L-213.3,404.5c0,0,0.1,0,0.1,0l0.3-0.4l0,0c0,0-0.1,0-0.2,0l0,0l0.1-0.1l0.3,0.3l-0.1,0.1
					l0,0c0.1-0.1,0-0.2,0-0.2l0,0l-0.3,0.4c0,0,0,0.1,0,0.1l0,0L-213.3,404.5z"/>
			</g>
		</g>
		<g>
			<g>
				<path class="st25" d="M-212.7,404.5l-0.1,0.2c0,0,0,0.1,0,0.1l0,0l-0.2-0.1l0,0c0,0,0.1,0,0.1,0l0.3-0.4c0,0,0-0.1,0-0.1l0,0
					l0.2,0.1l0,0c0,0-0.1,0-0.1,0L-212.7,404.5l0.2,0.1l0.1-0.2c0,0,0-0.1,0-0.1l0,0l0.2,0.1l0,0c0,0-0.1,0-0.1,0l-0.3,0.4
					c0,0,0,0.1,0,0.1l0,0l-0.2-0.1l0,0c0,0,0.1,0,0.1,0l0.1-0.2L-212.7,404.5z"/>
			</g>
		</g>
		<g>
			<g>
				<path class="st25" d="M-212.2,405.2L-212.2,405.2c0,0,0.1,0,0.1,0l0.2-0.4c0,0,0-0.1,0-0.1l0,0l0.4,0.2l-0.1,0.2l0,0
					c0.1-0.1,0-0.2,0-0.2c0,0,0,0-0.1,0c0,0,0,0-0.1,0c0,0-0.1,0.2-0.1,0.2c0,0,0.1,0.1,0.2-0.1l0,0l-0.1,0.3l0,0
					c0.1-0.1,0-0.2,0-0.2l-0.1,0.2c0,0,0,0.1,0,0.1l0,0L-212.2,405.2z"/>
			</g>
		</g>
		<g>
			<g>
				<path class="st25" d="M-211.5,405.6c-0.1,0-0.1-0.2,0-0.3c0.1-0.2,0.2-0.3,0.2-0.2c0.1,0,0.1,0.2,0,0.3
					C-211.4,405.5-211.5,405.6-211.5,405.6L-211.5,405.6c0.1,0.1,0.3,0,0.4-0.2c0.1-0.2,0-0.3-0.1-0.4c-0.1-0.1-0.3,0-0.4,0.2
					C-211.7,405.3-211.7,405.5-211.5,405.6L-211.5,405.6z"/>
			</g>
		</g>
		<g>
			<g>
				<path class="st25" d="M-210.8,405.6l0.1-0.3c0,0,0-0.1,0-0.1l0,0l0.1,0l0,0c0,0-0.1,0-0.1,0L-210.8,405.6c0,0.1-0.1,0.2-0.2,0.2
					c-0.1,0-0.2-0.1-0.1-0.3l0.1-0.3c0,0,0-0.1,0-0.1l0,0l0.2,0.1l0,0c0,0-0.1,0-0.1,0l-0.1,0.3c0,0.1,0,0.2,0,0.2
					C-210.9,405.8-210.8,405.7-210.8,405.6z"/>
			</g>
		</g>
		<g>
			<g>
				<path class="st25" d="M-210.6,405.3C-210.6,405.3-210.6,405.3-210.6,405.3L-210.6,405.3l0.1,0l0.2,0.5l0.1-0.3
					c0-0.1,0-0.1,0-0.1l0,0l0.1,0l0,0c0,0-0.1,0-0.1,0.1l-0.1,0.5l0,0l-0.2-0.6l-0.1,0.4c0,0.1,0,0.1,0,0.1l0,0l-0.1,0l0,0
					c0,0,0.1,0,0.1-0.1L-210.6,405.3L-210.6,405.3z"/>
			</g>
		</g>
		<g>
			<g>
				<path class="st25" d="M-209.7,405.8c0,0.2-0.1,0.3-0.2,0.3c0,0,0,0,0,0c0,0,0,0,0,0l0.1-0.5c0,0,0,0,0,0c0,0,0,0,0,0
					C-209.8,405.5-209.7,405.6-209.7,405.8L-209.7,405.8c0.1-0.2,0-0.3-0.1-0.3c-0.1,0-0.2,0-0.2,0l0,0c0,0,0.1,0,0,0.1l-0.1,0.5
					c0,0.1,0,0.1-0.1,0.1l0,0l0.2,0C-209.8,406.1-209.7,406.1-209.7,405.8L-209.7,405.8z"/>
			</g>
		</g>
		<g>
			<g>
				<path class="st25" d="M-209.5,405.6C-209.5,405.5-209.6,405.5-209.5,405.6L-209.5,405.6l0.4-0.1l0,0.2l0,0
					c0-0.1-0.1-0.2-0.1-0.2c0,0-0.1,0-0.1,0c0,0,0,0,0,0.1c0,0,0,0.2,0,0.2c0,0,0.1,0,0.1-0.1l0,0l0,0.3l0,0c0-0.2-0.1-0.2-0.1-0.2
					l0,0.2c0,0.1,0,0.1,0,0.1c0,0,0,0,0.1,0c0.1,0,0.1,0,0.2-0.2l0,0l-0.1,0.2l-0.4,0l0,0c0,0,0.1,0,0.1-0.1L-209.5,405.6z"/>
			</g>
		</g>
		<g>
			<g>
				<path class="st25" d="M-208,406.1C-208,406.1-208,406.1-208,406.1L-208,406.1l-0.2,0.1l0,0c0,0,0.1,0,0.1-0.1l0-0.5
					c0-0.1,0-0.1-0.1-0.1l0,0l0.3,0l0,0c0,0-0.1,0-0.1,0.1L-208,406.1z"/>
			</g>
		</g>
		<g>
			<g>
				<path class="st25" d="M-207.8,406.1L-207.8,406.1c0,0,0.1,0,0-0.1l-0.1-0.5l0,0c-0.1,0-0.1,0.1-0.1,0.2l0,0l0-0.2l0.4-0.1l0,0.2
					l0,0c0-0.1-0.1-0.1-0.1-0.1l0,0l0.1,0.5c0,0.1,0,0.1,0.1,0.1l0,0L-207.8,406.1z"/>
			</g>
		</g>
		<g>
			<g>
				<path class="st25" d="M-206.7,405.7l-0.1-0.3c0-0.1,0-0.1-0.1-0.1l0,0l0.1,0l0,0c0,0,0,0,0,0.1L-206.7,405.7
					c0.1,0.1,0.1,0.2-0.1,0.3c-0.1,0-0.2,0-0.3-0.2l-0.1-0.3c0-0.1,0-0.1-0.1-0.1l0,0l0.2-0.1l0,0c0,0-0.1,0,0,0.1l0.1,0.3
					c0,0.1,0.1,0.2,0.2,0.1C-206.7,405.9-206.7,405.8-206.7,405.7z"/>
			</g>
		</g>
		<g>
			<g>
				<path class="st25" d="M-206.4,405.5c0.1,0,0.1-0.1,0.1-0.2c0-0.1-0.1-0.1-0.1-0.1c0,0,0,0,0,0.1L-206.4,405.5L-206.4,405.5
					l0.1,0.2c0,0.1,0.1,0.1,0.1,0l0,0l-0.2,0.1l0,0c0,0,0.1,0,0-0.1l-0.2-0.4c0-0.1-0.1,0-0.1,0l0,0l0.2-0.1c0.1,0,0.2,0,0.2,0.1
					C-206.2,405.4-206.3,405.4-206.4,405.5C-206.4,405.5-206.4,405.5-206.4,405.5L-206.4,405.5z"/>
			</g>
		</g>
		<g>
			<g>
				<path class="st25" d="M-205.8,404.9C-205.8,404.9-205.8,404.9-205.8,404.9L-205.8,404.9l0.1-0.1l0.4,0.2l-0.1-0.3
					c0,0-0.1,0-0.1,0l0,0l0.1-0.1l0,0c0,0,0,0,0,0.1l0.3,0.5l0,0l-0.5-0.3l0.2,0.4c0,0,0.1,0,0.1,0l0,0l-0.1,0.1l0,0c0,0,0,0,0-0.1
					L-205.8,404.9L-205.8,404.9z"/>
			</g>
		</g>
		<g>
			<g>
				<path class="st25" d="M-204.7,404.9L-204.7,404.9c0,0,0-0.1,0-0.1l-0.3-0.4l0,0c0,0-0.1,0.1,0,0.2l0,0l-0.1-0.2l0.4-0.3l0.1,0.2
					l0,0c-0.1-0.1-0.1-0.1-0.2-0.1l0,0l0.3,0.4c0,0,0.1,0,0.1,0l0,0L-204.7,404.9z"/>
			</g>
		</g>
		<g>
			<g>
				<path class="st25" d="M-204.5,404.4l0.1,0.2c0,0,0.1,0,0.1,0l0,0l-0.2,0.2l0,0c0,0,0-0.1,0-0.1l-0.3-0.4c0,0-0.1,0-0.1,0l0,0
					l0.2-0.2l0,0c0,0,0,0.1,0,0.1L-204.5,404.4l0.1-0.1l-0.1-0.2c0,0-0.1,0-0.1,0l0,0l0.2-0.2l0,0c0,0,0,0.1,0,0.1l0.3,0.4
					c0,0,0.1,0,0.1,0l0,0l-0.2,0.2l0,0c0,0,0-0.1,0-0.1l-0.1-0.2L-204.5,404.4z"/>
			</g>
		</g>
		<g>
			<g>
				<path class="st25" d="M-204.2,403.9c0,0-0.1,0-0.1,0l0,0l0.3-0.3l0.1,0.1l0,0c-0.1-0.1-0.2-0.1-0.2,0c0,0,0,0-0.1,0.1
					C-204.2,403.7-204.2,403.7-204.2,403.9c0.1-0.1,0.2,0.1,0.2,0.1c0,0,0.1-0.1,0-0.2l0,0l0.2,0.2l0,0c-0.1-0.1-0.2,0-0.2,0
					l0.1,0.2c0,0,0,0,0.1,0c0,0,0,0,0.1-0.1c0,0,0.1-0.1,0-0.2l0,0l0.1,0.2l-0.3,0.3l0,0c0,0,0-0.1,0-0.1L-204.2,403.9z"/>
			</g>
		</g>
		<g>
			<g>
				<path class="st25" d="M-203.7,403.2c0,0,0,0.1,0,0.1c0.1,0,0.1,0,0.2,0c0.1,0,0.1,0,0.2,0c0.1,0.1,0.1,0.2,0,0.3
					c0,0-0.1,0.1-0.1,0.1c0,0,0,0,0,0l0,0l-0.2-0.1l0,0c0.1,0.1,0.2,0.1,0.2,0c0-0.1,0-0.1,0-0.1c0,0-0.1,0-0.2,0
					c-0.1,0-0.2,0-0.2,0C-203.7,403.3-203.7,403.2-203.7,403.2C-203.7,403.1-203.6,403.1-203.7,403.2c0.1-0.1,0.1-0.1,0.1-0.1l0,0
					l0.1,0.1l0,0C-203.6,403.1-203.6,403.1-203.7,403.2z"/>
			</g>
		</g>
		<g>
			<g>
				<path class="st25" d="M-203.4,403c0,0-0.1,0-0.1,0l0,0l0.3-0.4l0.2,0.1l0,0c-0.1-0.1-0.2,0-0.2,0c0,0,0,0,0,0.1c0,0,0,0,0,0.1
					c0,0,0.2,0.1,0.2,0.1c0,0,0.1-0.1,0-0.2l0,0l0.3,0.2l0,0c-0.1-0.1-0.2,0-0.2,0l0.2,0.1c0,0,0.1,0,0.1,0c0,0,0,0,0-0.1
					c0,0,0-0.1,0-0.2l0,0l0.1,0.1l-0.3,0.4l0,0c0,0,0-0.1,0-0.1L-203.4,403z"/>
			</g>
		</g>
		<g>
			<path class="st25" d="M-202.8,402.5l-0.1,0.1c-0.1-0.1-0.2-0.2-0.2-0.2S-203,402.5-202.8,402.5L-202.8,402.5c0.1,0,0.1,0,0.1,0
				c0.1,0,0.1,0,0,0.1l0,0l0.1-0.2l0,0c0,0-0.1,0-0.1,0c-0.5-0.1-0.6-0.1-0.6-0.1l0,0c0,0,0,0,0.4,0.4c0,0,0,0.1,0,0.1l0,0l0.1-0.1
				l0,0c0,0-0.1,0.1-0.1,0c0,0,0,0-0.1-0.1L-202.8,402.5L-202.8,402.5z"/>
		</g>
		<g>
			<g>
				<path class="st25" d="M-202.9,402C-203,402-203,402.1-202.9,402c0.1,0.1,0.2,0.1,0.2,0c0.1,0,0.1-0.1,0.2,0
					c0.1,0.1,0.1,0.2,0.1,0.2c0,0,0,0.1-0.1,0.1c0,0,0,0,0,0l0,0l-0.2-0.1l0,0c0.1,0,0.2,0,0.2-0.1c0-0.1,0-0.1-0.1-0.1
					c-0.1,0-0.1,0-0.2,0.1c-0.1,0.1-0.1,0.1-0.2,0C-203,402.2-203,402.1-202.9,402c0-0.1,0-0.1,0-0.1c0,0,0,0,0,0l0,0l0.2,0.1l0,0
					C-202.9,401.9-202.9,402-202.9,402z"/>
			</g>
		</g>
		<g>
			<g>
				<path class="st25" d="M-208.7,405.9c0,0.2-0.1,0.3-0.1,0.3c0,0,0,0,0,0c0,0,0,0,0,0l0-0.5c0,0,0,0,0,0c0,0,0,0,0,0
					C-208.8,405.6-208.7,405.7-208.7,405.9L-208.7,405.9c0.1-0.2,0-0.3-0.1-0.3c-0.1,0-0.2,0-0.2,0l0,0c0,0,0.1,0,0.1,0.1l0,0.5
					c0,0.1,0,0.1-0.1,0.1l0,0l0.2,0C-208.8,406.2-208.6,406.1-208.7,405.9L-208.7,405.9z"/>
			</g>
		</g>
		<g>
			<g>
				<path class="st25" d="M-205.9,405.5c-0.1,0-0.2-0.1-0.2-0.2c-0.1-0.2-0.1-0.3,0-0.3c0.1,0,0.2,0.1,0.2,0.2
					C-205.8,405.4-205.8,405.5-205.9,405.5L-205.9,405.5c0.2,0,0.2-0.2,0.1-0.4c-0.1-0.2-0.2-0.3-0.4-0.2c-0.2,0.1-0.2,0.2-0.1,0.4
					C-206.1,405.5-206,405.6-205.9,405.5L-205.9,405.5z"/>
			</g>
		</g>
	</g>
</g>
</svg>
