<?xml version="1.0" encoding="utf-8"?>
<!-- Generator: Adobe Illustrator 19.0.0, SVG Export Plug-In . SVG Version: 6.00 Build 0)  -->
<svg version="1.1" id="Layer_1" xmlns="http://www.w3.org/2000/svg" xmlns:xlink="http://www.w3.org/1999/xlink" x="0px" y="0px"
	 viewBox="-269 374 72 46" style="enable-background:new -269 374 72 46;" xml:space="preserve">
<style type="text/css">
	.st0{clip-path:url(#SVGID_2_);}
	.st1{fill:#0089BD;}
	.st2{fill:#FFED00;}
</style>
<g>
	<defs>
		<path id="SVGID_1_" d="M-204,420.5H-262c-3.8,0-7-3.1-7-7V381c0-3.8,3.1-7,7-7h58.1c3.8,0,7,3.1,7,7v32.6
			C-197,417.4-200.1,420.5-204,420.5z"/>
	</defs>
	<clipPath id="SVGID_2_">
		<use xlink:href="#SVGID_1_"  style="overflow:visible;"/>
	</clipPath>
	<g class="st0">
		<g>
			<polygon class="st1" points="-177,420.5 -177,374 -269,374 -269,420.5 			"/>
		</g>
		<g>
			<path d="M-176.9,420.6h-92.2v-46.7h92.2V420.6z M-268.9,420.4h91.7v-46.2h-91.7V420.4z"/>
		</g>
		<g>
			<path class="st2" d="M-223,381c-0.1,0.6-0.5,2-0.5,2.3c0,0.3,0.2,0.5,0.5,0.5c0.3,0,0.5-0.2,0.5-0.5
				C-222.5,383-222.9,381.6-223,381L-223,381z"/>
		</g>
		<g>
			<path class="st2" d="M-225,381.2c0,0.6-0.1,2.1,0,2.3c0,0.3,0.3,0.4,0.5,0.4c0.2,0,0.4-0.3,0.4-0.5
				C-224.2,383.1-224.8,381.8-225,381.2L-225,381.2z"/>
		</g>
		<g>
			<path class="st2" d="M-227,381.8c0.1,0.6,0.3,2,0.4,2.3c0.1,0.2,0.4,0.3,0.6,0.3c0.2-0.1,0.3-0.4,0.2-0.6
				C-225.8,383.5-226.7,382.3-227,381.8L-227,381.8z"/>
		</g>
		<g>
			<path class="st2" d="M-228.8,382.8c0.2,0.6,0.7,1.9,0.9,2.2c0.1,0.2,0.4,0.3,0.6,0.1c0.2-0.1,0.3-0.4,0.1-0.6
				C-227.3,384.2-228.4,383.2-228.8,382.8L-228.8,382.8z"/>
		</g>
		<g>
			<path class="st2" d="M-230.4,384.1c0.3,0.5,1.1,1.8,1.3,2c0.2,0.2,0.5,0.2,0.6,0c0.2-0.2,0.2-0.5,0-0.7
				C-228.6,385.2-229.9,384.4-230.4,384.1L-230.4,384.1z"/>
		</g>
		<g>
			<path class="st2" d="M-231.7,385.7c0.4,0.4,1.4,1.5,1.6,1.7c0.2,0.1,0.5,0.1,0.6-0.1s0.1-0.5-0.1-0.6
				C-229.7,386.4-231.1,385.9-231.7,385.7L-231.7,385.7z"/>
		</g>
		<g>
			<path class="st2" d="M-232.6,387.5c0.5,0.3,1.7,1.2,1.9,1.3c0.2,0.1,0.5,0,0.6-0.3s0-0.5-0.2-0.6
				C-230.6,387.8-232,387.6-232.6,387.5L-232.6,387.5z"/>
		</g>
		<g>
			<path class="st2" d="M-233.2,389.5c0.6,0.2,1.9,0.8,2.1,0.9c0.2,0,0.5-0.1,0.5-0.4c0-0.3-0.1-0.5-0.4-0.5
				C-231.1,389.4-232.6,389.5-233.2,389.5L-233.2,389.5z"/>
		</g>
		<g>
			<path class="st2" d="M-233.4,391.5c0.6,0.1,2,0.5,2.3,0.5c0.3,0,0.5-0.2,0.5-0.5c0-0.3-0.2-0.5-0.5-0.5
				C-231.4,391.1-232.8,391.4-233.4,391.5L-233.4,391.5z"/>
		</g>
		<g>
			<path class="st2" d="M-233.2,393.6c0.6,0,2.1,0.1,2.3,0c0.2,0,0.4-0.3,0.4-0.5c0-0.3-0.3-0.4-0.5-0.4
				C-231.3,392.7-232.7,393.3-233.2,393.6L-233.2,393.6z"/>
		</g>
		<g>
			<path class="st2" d="M-232.6,395.5c0.6-0.1,2-0.3,2.3-0.5c0.2-0.1,0.3-0.4,0.2-0.6s-0.4-0.3-0.6-0.3
				C-230.9,394.3-232.1,395.2-232.6,395.5L-232.6,395.5z"/>
		</g>
		<g>
			<path class="st2" d="M-231.7,397.4c0.6-0.2,1.9-0.7,2.1-0.9c0.2-0.1,0.3-0.4,0.1-0.6c-0.1-0.2-0.4-0.3-0.6-0.1
				C-230.2,395.8-231.2,396.9-231.7,397.4L-231.7,397.4z"/>
		</g>
		<g>
			<path class="st2" d="M-230.4,399c0.5-0.3,1.7-1.1,1.9-1.3c0.2-0.2,0.2-0.5,0-0.7c-0.2-0.2-0.5-0.2-0.6,0
				C-229.3,397.2-230,398.5-230.4,399L-230.4,399z"/>
		</g>
		<g>
			<path class="st2" d="M-228.8,400.3c0.4-0.4,1.5-1.4,1.6-1.7c0.1-0.2,0.1-0.5-0.1-0.6c-0.2-0.1-0.5-0.1-0.6,0.1
				C-228.1,398.3-228.6,399.7-228.8,400.3L-228.8,400.3z"/>
		</g>
		<g>
			<path class="st2" d="M-227,401.2c0.3-0.5,1.2-1.7,1.3-1.9c0.1-0.2,0-0.5-0.2-0.6c-0.2-0.1-0.5,0-0.6,0.3
				C-226.6,399.2-226.9,400.7-227,401.2L-227,401.2z"/>
		</g>
		<g>
			<path class="st2" d="M-225,401.8c0.2-0.6,0.8-1.9,0.9-2.2c0-0.3-0.1-0.5-0.4-0.5c-0.2,0-0.5,0.1-0.5,0.4
				C-225.1,399.7-225,401.2-225,401.8L-225,401.8z"/>
		</g>
		<g>
			<path class="st2" d="M-223,402c0.1-0.6,0.5-2,0.5-2.3c0-0.3-0.2-0.5-0.5-0.5s-0.5,0.2-0.5,0.5C-223.5,400-223.1,401.5-223,402
				L-223,402z"/>
		</g>
		<g>
			<path class="st2" d="M-221,401.8c0-0.6,0.1-2.1,0-2.3c0-0.3-0.3-0.4-0.5-0.4c-0.2,0-0.4,0.3-0.4,0.5
				C-221.8,399.9-221.2,401.3-221,401.8L-221,401.8z"/>
		</g>
		<g>
			<path class="st2" d="M-219,401.2c-0.1-0.6-0.3-2-0.4-2.3c-0.1-0.2-0.4-0.3-0.6-0.3c-0.2,0.1-0.3,0.4-0.2,0.6
				C-220.2,399.5-219.4,400.8-219,401.2L-219,401.2z"/>
		</g>
		<g>
			<path class="st2" d="M-217.2,400.3c-0.2-0.6-0.7-1.9-0.9-2.2c-0.1-0.2-0.4-0.3-0.6-0.1c-0.2,0.1-0.3,0.4-0.1,0.6
				C-218.7,398.8-217.7,399.9-217.2,400.3L-217.2,400.3z"/>
		</g>
		<g>
			<path class="st2" d="M-215.7,399c-0.3-0.5-1.1-1.8-1.3-2c-0.2-0.2-0.5-0.2-0.6,0c-0.2,0.2-0.2,0.5,0,0.7S-216.1,398.6-215.7,399
				L-215.7,399z"/>
		</g>
		<g>
			<path class="st2" d="M-214.4,397.4c-0.4-0.4-1.4-1.5-1.6-1.7c-0.2-0.1-0.5-0.1-0.6,0.1c-0.1,0.2-0.1,0.5,0.1,0.6
				C-216.3,396.6-214.9,397.1-214.4,397.4L-214.4,397.4z"/>
		</g>
		<g>
			<path class="st2" d="M-213.4,395.6c-0.5-0.3-1.7-1.2-1.9-1.3c-0.2-0.1-0.5,0-0.6,0.3c-0.1,0.2,0,0.5,0.2,0.6
				C-215.4,395.2-214,395.4-213.4,395.6L-213.4,395.6z"/>
		</g>
		<g>
			<path class="st2" d="M-212.8,393.6c-0.6-0.2-1.9-0.8-2.1-0.9c-0.2,0-0.5,0.1-0.5,0.4s0.1,0.5,0.4,0.5
				C-214.9,393.6-213.4,393.6-212.8,393.6L-212.8,393.6z"/>
		</g>
		<g>
			<path class="st2" d="M-212.6,391.5c-0.6-0.1-2-0.5-2.3-0.5c-0.3,0-0.5,0.2-0.5,0.5c0,0.3,0.2,0.5,0.5,0.5
				C-214.6,392-213.2,391.7-212.6,391.5L-212.6,391.5z"/>
		</g>
		<g>
			<path class="st2" d="M-212.8,389.5c-0.6,0-2.1-0.1-2.3,0c-0.2,0-0.4,0.3-0.4,0.5c0,0.3,0.3,0.4,0.5,0.4
				C-214.7,390.3-213.3,389.7-212.8,389.5L-212.8,389.5z"/>
		</g>
		<g>
			<path class="st2" d="M-213.4,387.5c-0.6,0.1-2,0.3-2.3,0.5c-0.2,0.1-0.3,0.4-0.2,0.6c0.1,0.2,0.4,0.3,0.6,0.3
				C-215.1,388.7-213.9,387.8-213.4,387.5L-213.4,387.5z"/>
		</g>
		<g>
			<path class="st2" d="M-214.4,385.7c-0.6,0.2-1.9,0.7-2.1,0.9c-0.2,0.1-0.3,0.4-0.1,0.6c0.1,0.2,0.4,0.3,0.6,0.1
				C-215.8,387.2-214.8,386.1-214.4,385.7L-214.4,385.7z"/>
		</g>
		<g>
			<path class="st2" d="M-215.6,384.1c-0.5,0.3-1.7,1.1-1.9,1.3c-0.2,0.2-0.2,0.5,0,0.7c0.2,0.2,0.5,0.2,0.6,0
				S-216,384.6-215.6,384.1L-215.6,384.1z"/>
		</g>
		<g>
			<path class="st2" d="M-217.2,382.8c-0.4,0.4-1.5,1.4-1.6,1.7c-0.1,0.2-0.1,0.5,0.1,0.6c0.2,0.1,0.5,0.1,0.6-0.1
				S-217.4,383.3-217.2,382.8L-217.2,382.8z"/>
		</g>
		<g>
			<path class="st2" d="M-219,381.8c-0.3,0.5-1.2,1.7-1.3,1.9c-0.1,0.2,0,0.5,0.2,0.6c0.2,0.1,0.5,0,0.6-0.3
				C-219.4,383.9-219.1,382.4-219,381.8L-219,381.8z"/>
		</g>
		<g>
			<path class="st2" d="M-221,381.2c-0.2,0.6-0.8,1.9-0.9,2.2c0,0.3,0.1,0.5,0.4,0.5c0.2,0,0.5-0.1,0.5-0.4
				C-220.9,383.3-221,381.8-221,381.2L-221,381.2z"/>
		</g>
		<g>
			<path class="st2" d="M-223,398.5c3.8,0,6.9-3.1,6.9-7c0-3.9-3.1-7-6.9-7c-3.8,0-6.9,3.1-6.9,7
				C-229.9,395.4-226.8,398.5-223,398.5L-223,398.5z"/>
		</g>
		<g>
			<path class="st2" d="M-223.3,403.2c-0.5,0.1-1.9-0.1-2.7-0.4c-1.3-0.5-2.6-0.9-3.3-1.5c-0.9-0.8-3.8-2.4-4.9-6.9
				c-0.2-0.9-0.2-1.2-0.4-1.2c-0.1,0-0.2,0.7-0.1,1.5c0.1,0.7-0.1,0.7-0.5-0.3c-0.4-0.9-0.6-1.7-0.7-2.4c-0.1-0.6-0.5,0-0.4,0.8
				c0.1,0.7,0.6,2.2,1.1,3c0.4,0.7,0.1,0.7-0.3,0.1c-0.5-0.6-1.1-1.5-1.4-2.5s-0.4,0.4-0.2,0.9c0.4,1.4,1.5,2.7,2,3.2
				c0.6,0.6,0.3,0.7-0.2,0.3c-0.5-0.4-0.7-0.5-1.3-1.1c-0.6-0.7-0.8-0.3-0.3,0.3c0.6,0.7,1.1,1.2,1.8,1.8c0.4,0.3,0.7,0.6,0.1,0.5
				c-0.3,0-0.9-0.4-1.1-0.7c-0.2-0.2-0.6-0.2-0.3,0.2c0.4,0.5,1.3,1.4,2.1,1.7c0.3,0.1,0,0.3-0.5,0.1c-0.6-0.1-0.2,0.3,0.1,0.4
				c0.3,0.1,0.7,0.3,1.1,0.4c0.3,0.1,0.2,0.2-0.1,0.2c-0.3,0-0.5,0-0.7-0.1c-0.2-0.1,0,0.2,0.1,0.3c0.2,0.1,0.5,0.2,0.7,0.2
				c0.2,0,0.2,0.3-0.1,0.2s-0.5-0.1-0.4,0.1c0.1,0.2,0.9,0.3,1.4,0.3c0.5,0,0.3,0.2,0.1,0.3c-0.3,0.1-0.5,0.1-0.7,0.1
				s-0.3,0.3,0.1,0.3c0.4,0,1,0.1,1.8,0.5c1.1,0.5,2.5,1.1,3.5,0.9c0.9-0.1,0.4-0.4,0-0.3c-0.7,0.1-1.3-0.4-1.8-0.4
				c-0.5,0-1.2-0.6-1.7-0.6c-0.2,0-0.4-0.2-0.1-0.3c0.3-0.1,0.4-0.3,0.4-0.4c0-0.2-0.6,0-0.9-0.2c-0.3-0.1-0.2-0.2,0-0.4
				c0.3-0.2,0.1-0.4-0.4-0.4c-0.4,0-0.5-0.2-0.3-0.4c0.2-0.2,0.1-0.3-0.1-0.3c-0.2,0-0.2-0.2,0-0.2c0.1,0,0.1-0.2-0.1-0.2
				c-0.4,0-0.7-0.4-1-0.6c-0.3-0.1-0.2-0.2-0.1-0.2c0.1,0,0.3-0.1,0.1-0.2c-0.3-0.2,0-0.3-0.4-0.6c-0.3-0.2-0.4-0.4-0.3-0.5
				c0.1-0.2,0.6-0.1,0.6-0.3c0-0.2-0.6-0.5-0.6-0.8c0-0.1,0.1-0.2,0.2-0.1c0.1,0.1,0.3,0.1,0.2-0.1c0-0.2,0-0.3,0.3-0.1
				c0.7,0.4,1.6,1.6,2.4,2.9c0.6,0.8,1.1,1.2,1.6,1.3c0.6,0.2,1.8,1,2.4,1.5c0.3,0.3,0.6,0.5,1.2,0.4c0.6-0.1,1.3,0,1.8,0.3
				c0.5,0.3,1,0.6,1.5-0.1C-223,403.1-223,403.1-223.3,403.2L-223.3,403.2z"/>
		</g>
		<g>
			<path class="st2" d="M-219.6,403.4c-1.4,0-2.3,0.2-2.6,0.5c-0.6,0.6-0.8,0.3-1.1,0.5c-0.3,0.2-0.6,0.2-0.7,0.1
				c-0.1-0.1-0.2-0.2,0.1-0.3c0.3-0.1,0.5-0.3,0.7-0.5c0.5-0.5,1.3-0.6,1.9-0.7c2.1-0.4,5.3-1.6,7.4-4.4c1.5-1.9,2-4,2.2-5.9
				c0.1-0.7,0.4-0.5,0.5-0.1c0,0.4-0.1,1.5-0.1,1.9c-0.1,0.3,0,0.6,0.3,0.1c0.5-0.8,1-2.4,1.1-3.2c0.1-0.8,0.4-0.7,0.4,0
				c0,1.1-0.5,2.8-1.5,4.3c-0.4,0.6-0.2,0.8,0.3,0.2c0.8-0.9,1.1-1.3,1.5-2.2c0.3-0.7,0.6-0.6,0.3,0.3c-0.4,1.4-1.2,2.3-1.8,3.1
				c-0.6,0.7-0.4,0.7,0,0.6c0.4-0.1,1-0.7,1.5-1.3c0.5-0.6,0.6-0.4,0.3,0.2c-0.3,0.6-1.1,1.5-1.6,2c-0.4,0.4,0,0.4,0.2,0.2
				c0.3-0.3,0.5-0.6,0.8-0.7c0.3-0.1,0.7-0.1-0.1,0.7c-0.3,0.4-1.4,1.1-1.9,1.4c-0.5,0.2-0.3,0.4,0.1,0.3c0.4-0.1,1-0.4,1-0.2
				c0,0.2-0.5,0.4-0.8,0.6c-0.4,0.2-0.6,0.5-0.1,0.5c0.2,0,0.2,0.2,0,0.2c-0.2,0-0.6,0.1-0.6,0.2c0,0.1,0.1,0.2,0.3,0.2
				c0.1,0,0.1,0.1,0,0.2c-0.6,0.4-1.3,0.2-1.6,0.4c-0.3,0.2,0,0.2,0.4,0.2c0.4,0,0.8,0.3,0.2,0.3c-0.9,0-1.9,0.3-2.9,0.7
				c-0.7,0.3-1.2,0-0.3-0.4c0.5-0.2,1.2-0.5,1.5-0.6c0.6-0.3-0.4-0.2,0.2-0.5c0.2-0.1,0.6-0.1,0.6-0.3c0-0.1-0.4-0.2-0.1-0.4
				c0.1-0.1,0.4-0.1,0.6-0.1c0.2,0,0.3-0.2,0.1-0.3c-0.3-0.1-0.3-0.2,0-0.3c0.3-0.1,0.6-0.2,0.8-0.2c0.2-0.1,0.1-0.2-0.2-0.2
				c-0.3,0-0.3-0.1-0.1-0.2c0.3-0.1,0.8-0.4,1-0.5c0.3-0.2,0.2-0.3,0-0.3c-0.3-0.1-0.3-0.1-0.1-0.3c0.3-0.1,0.5-0.3,0.5-0.5
				c0.1-0.2,0.1-0.3-0.2-0.3c-0.3,0-0.5,0-0.4-0.3c0-0.3,0.1-0.4,0.3-0.7c0.2-0.2,0-0.4-0.4-0.2c-0.8,0.3-1.1,0.4-1.4,1
				c-0.4,0.6-0.8,1.2-1.1,1.7c-0.3,0.5-0.8,1.1-1.4,1.3c-0.6,0.2-1.9,0.8-2.5,1.2C-218.9,403.2-218.7,403.4-219.6,403.4
				L-219.6,403.4z"/>
		</g>
		<g>
			<path class="st2" d="M-226.3,405.8c-0.3-0.1-0.3-0.4,0.1-0.5c0.4-0.1,0.4-0.1,0.6-0.2c0.2-0.1,0.9-0.5,1.3-0.5
				c0.3,0,0.3,0.2,0,0.3c-0.3,0-1,0.4-1.3,0.5c-0.3,0.2-0.4,0.2-0.5,0.2C-226.2,405.6-226.2,405.7-226.3,405.8L-226.3,405.8z"/>
		</g>
		<g>
			<path class="st2" d="M-227,406.9c-0.3-0.3,0-0.7,0.4-0.9c0.1-0.1,0.3,0.2,0.7,0.2c0.4,0,0.9-0.1,0.7-0.3c-0.1-0.1-0.2-0.3,0-0.3
				c0.1,0,0.1,0,0.2,0c0.1,0,0.2-0.1,0.2,0c0.1,0,0.2,0.1,0.3,0c0.1,0,0.2,0.1,0.1,0.2c-0.3,0.2-0.1,0.4,0.1,0.4c0.2,0,0.5,0,0.7,0
				s0.4,0.1,0.5,0c0.1,0,0.4,0,0.8,0.1c0.4,0.2,0.3,0.4,0,0.4c-0.8-0.1-1.4-0.2-1.8-0.1c-0.4,0.1-1.2,0-1.7-0.1
				C-226.1,406.4-226.6,406.3-227,406.9L-227,406.9z"/>
		</g>
		<g>
			<path class="st2" d="M-224,407c-0.2,0.4-0.6,0.6-1,0.7c-0.4,0.1-0.6,0.3-0.1,0.3c0.5,0.1,0.7,0,0.9-0.2c0.3-0.1,0.3-0.4,0.5,0
				c0.2,0.3,0.4,0.3,0.7,0c0.2-0.2,0.3-0.3,0.5-0.3c0.2,0,0.2,0,0.1,0.2c-0.1,0.2,0,0.5,0.3,0.2c0.3-0.3,0.4-0.4,0.6-0.4
				c0.2,0,0.2,0.1,0,0.3c-0.2,0.2-0.2,0.3,0.1,0.3c0.3,0,0.5-0.1,0.6-0.3c0.1-0.2,0.2-0.3,0.5-0.1c0.3,0.2,0.4,0.4,0.6,0.2
				c0.1-0.2,0.2-0.3,0.4-0.2c0.2,0.2,0.9,0,1-0.3c0-0.1,0-0.3,0.3-0.1c0.2,0.2,0.7,0.1,0.7-0.1c0-0.3,0.2-0.3,0.4-0.2
				c0.2,0.1,0.5,0.1,0.7,0c0.2-0.1,0.2-0.2,0.1-0.4c-0.1-0.2-0.1-0.4,0.2-0.3c0.5,0.2,1.1,0.4,1.5-0.1c0.4-0.5,0.5-0.6-0.1-0.6
				c-0.6,0-1.8-0.1-2.3-0.1c-0.5-0.1-1.2-0.2-1.4-0.2s-0.2,0-0.2,0.2c0,0.1-0.2,0.1-0.2,0.3c0,0.2-0.1,0.2-0.3,0.2
				c-0.2-0.1-0.2,0-0.1,0.1c0.1,0.2,0,0.3-0.2,0.3c-0.6-0.1-0.9,0.1-1.3,0.3c-0.9,0.4-1.5,0.5-2.2,0.4
				C-223.5,406.8-223.8,406.7-224,407L-224,407z"/>
		</g>
		<g>
			<path class="st2" d="M-263.6,407.9c0-0.6-1-2.1-2.3-1.4c-1.7,1,0.9,4.7,1.6,6.7c0.4,1.1-0.1,1.7-0.6,1.7
				c-0.6,0.1-0.8-0.3-0.8-0.6c-0.1-0.3,0.2-0.6,0.5-0.6c0.3,0,0.5,0.2,0.4,0.4c-0.6-0.2-0.7,0.6-0.2,0.6c0.7,0,0.8-0.8,0.5-1.1
				c-0.3-0.3-0.9-0.3-1.1,0c0.1-0.3,0.2-0.6,0.2-1c0-0.1,0.1-0.7,0.2-0.8c-0.1-0.1-0.4,0.1-0.3,0.2c-0.1-0.3-0.3-0.6-0.7-0.8
				c0.5,0.9,0.5,1.7,0.2,2.3c-0.4,0.8-0.1,2.1,1.3,1.9c1.3-0.2,1.6-1.4,0.7-3.2c-0.9-1.7-2.6-4.8-1.4-5.4c0.4-0.2,1,0.2,1.4,0.8
				c0.1,0.2,0,0.3-0.2,0.3c-0.1,0-0.2,0-0.4,0v-0.1c0-0.4-0.3-0.4-0.3,0v0.1c-0.1,0-0.2,0.1-0.2,0.2c0,0.1,0.1,0.2,0.2,0.2v0.1
				c0,0.4,0.3,0.4,0.3,0v-0.1c0.2,0,0.6,0,0.6,0c0.1,0,0.2,0.1,0.2,0.2c0,0.6,0,1.1,0,1.5c0,0.1-0.5,0.1-0.4-0.2
				c0-0.1-0.1-0.2-0.1-0.1c-0.5,0.5,0.4,0.8,0.6,0.7c0,0.4,0,0.7,0,0.9c0,0.6,0.7,0.6,0.7,0c0-0.2,0-0.5,0-0.9
				c0.2,0.2,1-0.2,0.6-0.7c-0.1-0.1-0.1,0-0.1,0.1c0,0.3-0.4,0.4-0.4,0.2c0-0.4,0-0.9,0-1.5c0-0.1,0.1-0.2,0.2-0.2
				c0.1,0,0.5,0,0.6,0v0.1c0,0.4,0.3,0.4,0.3,0v-0.1c0.1,0,0.2-0.1,0.2-0.2c0-0.1-0.1-0.2-0.2-0.2v-0.1c0-0.4-0.3-0.4-0.3,0v0.1
				c-0.2,0-0.4,0-0.4,0c-0.2,0-0.3-0.1-0.2-0.3c0.3-0.6,0.9-1,1.4-0.8c1.2,0.6-0.6,3.6-1.4,5.4c-0.9,1.7-0.6,3,0.7,3.2
				c1.4,0.2,1.7-1.1,1.3-1.9c-0.3-0.6-0.3-1.5,0.2-2.3c-0.4,0.2-0.6,0.5-0.7,0.8c0-0.1-0.2-0.2-0.3-0.2c0.2,0.1,0.2,0.6,0.2,0.8
				c0,0.4,0.1,0.8,0.2,1c-0.2-0.3-0.8-0.3-1.1,0c-0.3,0.3-0.2,1.1,0.5,1.1c0.5,0,0.4-0.8-0.2-0.6c-0.1-0.2,0.1-0.4,0.4-0.4
				c0.3,0,0.6,0.3,0.5,0.6c-0.1,0.4-0.3,0.7-0.8,0.6c-0.5,0-1-0.6-0.6-1.7c0.7-2,3.3-5.8,1.6-6.7
				C-262.6,405.8-263.6,407.4-263.6,407.9L-263.6,407.9z"/>
		</g>
		<g>
			<path class="st2" d="M-263.6,419.8c0.3,0.4,0.8,0.4,1.1,0.1c0.7-0.5-0.2-1.3-0.4-2.1c-0.4-1.1-0.1-1.7,0.6-1.8
				c0.6-0.1,0.8,0.3,0.8,0.6c0.1,0.3-0.2,0.6-0.5,0.6c-0.3,0-0.5-0.2-0.4-0.4c0.6,0.2,0.7-0.6,0.2-0.6c-0.7,0-0.8,0.8-0.5,1.1
				c0.3,0.3,0.9,0.3,1.1,0c-0.1,0.3-0.2,0.6-0.2,1c0,0.1-0.1,0.7-0.2,0.8c0.1,0.1,0.4-0.1,0.3-0.2c0.1,0.3,0.3,0.6,0.7,0.8
				c-0.5-0.9-0.5-1.7-0.2-2.3c0.4-0.8,0.1-2.1-1.3-1.9c-1.3,0.2-1.6,1.5-0.6,3.5c0.3,0.7-0.5,0.7-0.6,0.2c-0.1,0.5-1,0.5-0.6-0.2
				c1-1.9,0.8-3.3-0.6-3.5c-1.4-0.2-1.7,1.1-1.3,1.9c0.3,0.6,0.3,1.5-0.2,2.3c0.4-0.2,0.6-0.5,0.7-0.8c0,0.1,0.2,0.2,0.3,0.2
				c-0.2-0.1-0.2-0.6-0.2-0.8c0-0.4-0.1-0.8-0.2-1c0.2,0.3,0.8,0.3,1.1,0c0.3-0.3,0.2-1.1-0.5-1.1c-0.5,0-0.4,0.8,0.2,0.6
				c0.1,0.2-0.1,0.4-0.4,0.4c-0.3,0-0.6-0.3-0.5-0.6c0.1-0.4,0.3-0.7,0.8-0.6c0.7,0.1,0.9,0.7,0.6,1.8c-0.3,0.9-1.1,1.6-0.4,2.1
				C-264.4,420.2-263.9,420.1-263.6,419.8L-263.6,419.8z"/>
		</g>
		<g>
			<path class="st2" d="M-263.6,404.8c0,0.6-1,2.1-2.3,1.4c-1.7-1,0.9-4.7,1.6-6.7c0.4-1.1-0.1-1.7-0.6-1.7
				c-0.6-0.1-0.8,0.3-0.8,0.6c-0.1,0.3,0.2,0.6,0.5,0.6c0.3,0,0.5-0.2,0.4-0.4c-0.6,0.2-0.7-0.6-0.2-0.6c0.7,0,0.8,0.8,0.5,1.1
				c-0.3,0.3-0.9,0.3-1.1,0c0.1,0.3,0.2,0.6,0.2,1c0,0.1,0.1,0.7,0.2,0.8c-0.1,0.1-0.4-0.1-0.3-0.2c-0.1,0.3-0.3,0.6-0.7,0.8
				c0.5-0.9,0.5-1.7,0.2-2.3c-0.4-0.8-0.1-2.1,1.3-1.9c1.3,0.2,1.6,1.4,0.7,3.2c-0.9,1.7-2.6,4.8-1.4,5.4c0.4,0.2,1-0.2,1.4-0.8
				c0.1-0.2,0-0.3-0.2-0.3c-0.1,0-0.2,0-0.4,0v0.1c0,0.4-0.3,0.4-0.3,0v-0.1c-0.1,0-0.2-0.1-0.2-0.2c0-0.1,0.1-0.2,0.2-0.2v-0.1
				c0-0.4,0.3-0.4,0.3,0v0.1c0.2,0,0.6,0,0.6,0c0.1,0,0.2-0.1,0.2-0.2c0-0.6,0-1.1,0-1.5c0-0.1-0.5-0.1-0.4,0.2
				c0,0.1-0.1,0.2-0.1,0.1c-0.5-0.5,0.4-0.8,0.6-0.7c0-0.4,0-0.7,0-0.9c0-0.6,0.7-0.6,0.7,0c0,0.2,0,0.5,0,0.9
				c0.2-0.2,1,0.2,0.6,0.7c-0.1,0.1-0.1,0-0.1-0.1c0-0.3-0.4-0.4-0.4-0.2c0,0.4,0,0.9,0,1.5c0,0.1,0.1,0.2,0.2,0.2
				c0.1,0,0.5,0,0.6,0v-0.1c0-0.4,0.3-0.4,0.3,0v0.1c0.1,0,0.2,0.1,0.2,0.2c0,0.1-0.1,0.2-0.2,0.2v0.1c0,0.4-0.3,0.4-0.3,0v-0.1
				c-0.2,0-0.4,0-0.4,0c-0.2,0-0.3,0.1-0.2,0.3c0.3,0.6,0.9,1,1.4,0.8c1.2-0.6-0.6-3.6-1.4-5.4c-0.9-1.7-0.6-3,0.7-3.2
				c1.4-0.2,1.7,1.1,1.3,1.9c-0.3,0.6-0.3,1.5,0.2,2.3c-0.4-0.2-0.6-0.5-0.7-0.8c0,0.1-0.2,0.2-0.3,0.2c0.2-0.1,0.2-0.6,0.2-0.8
				c0-0.4,0.1-0.8,0.2-1c-0.2,0.3-0.8,0.3-1.1,0c-0.3-0.3-0.2-1.1,0.5-1.1c0.5,0,0.4,0.8-0.2,0.6c-0.1,0.2,0.1,0.4,0.4,0.4
				s0.6-0.3,0.5-0.6c-0.1-0.4-0.3-0.7-0.8-0.6c-0.5,0-1,0.6-0.6,1.7c0.7,2,3.3,5.8,1.6,6.7C-262.6,406.9-263.6,405.4-263.6,404.8
				L-263.6,404.8z"/>
		</g>
		<g>
			<path class="st2" d="M-263.6,386.6c0,0.6-1,2.1-2.3,1.4c-1.7-1,0.9-4.7,1.6-6.7c0.4-1.1-0.1-1.7-0.6-1.7
				c-0.6-0.1-0.8,0.3-0.8,0.6c-0.1,0.3,0.2,0.6,0.5,0.6c0.3,0,0.5-0.2,0.4-0.4c-0.6,0.2-0.7-0.6-0.2-0.6c0.7,0,0.8,0.8,0.5,1.1
				c-0.3,0.3-0.9,0.3-1.1,0c0.1,0.3,0.2,0.6,0.2,1c0,0.1,0.1,0.7,0.2,0.8c-0.1,0.1-0.4-0.1-0.3-0.2c-0.1,0.3-0.3,0.6-0.7,0.8
				c0.5-0.9,0.5-1.7,0.2-2.3c-0.4-0.8-0.1-2.1,1.3-1.9c1.3,0.2,1.6,1.4,0.7,3.2c-0.9,1.7-2.6,4.8-1.4,5.4c0.4,0.2,1-0.2,1.4-0.8
				c0.1-0.2,0-0.3-0.2-0.3c-0.1,0-0.2,0-0.4,0v0.1c0,0.4-0.3,0.4-0.3,0v-0.1c-0.1,0-0.2-0.1-0.2-0.2s0.1-0.2,0.2-0.2V386
				c0-0.4,0.3-0.4,0.3,0v0.1c0.2,0,0.6,0,0.6,0c0.1,0,0.2-0.1,0.2-0.2c0-0.6,0-1.1,0-1.5c0-0.1-0.5-0.1-0.4,0.2
				c0,0.1-0.1,0.2-0.1,0.1c-0.5-0.5,0.4-0.8,0.6-0.7c0-0.4,0-0.7,0-0.9c0-0.6,0.7-0.6,0.7,0c0,0.2,0,0.5,0,0.9
				c0.2-0.2,1,0.2,0.6,0.7c-0.1,0.1-0.1,0-0.1-0.1c0-0.3-0.4-0.4-0.4-0.2c0,0.4,0,0.9,0,1.5c0,0.1,0.1,0.2,0.2,0.2
				c0.1,0,0.5,0,0.6,0V386c0-0.4,0.3-0.4,0.3,0v0.1c0.1,0,0.2,0.1,0.2,0.2c0,0.1-0.1,0.2-0.2,0.2v0.1c0,0.4-0.3,0.4-0.3,0v-0.1
				c-0.2,0-0.4,0-0.4,0c-0.2,0-0.3,0.1-0.2,0.3c0.3,0.6,0.9,1,1.4,0.8c1.2-0.6-0.6-3.6-1.4-5.4c-0.9-1.7-0.6-3,0.7-3.2
				c1.4-0.2,1.7,1.1,1.3,1.9c-0.3,0.6-0.3,1.5,0.2,2.3c-0.4-0.2-0.6-0.5-0.7-0.8c0,0.1-0.2,0.2-0.3,0.2c0.2-0.1,0.2-0.6,0.2-0.8
				c0-0.4,0.1-0.8,0.2-1c-0.2,0.3-0.8,0.3-1.1,0c-0.3-0.3-0.2-1.1,0.5-1.1c0.5,0,0.4,0.8-0.2,0.6c-0.1,0.2,0.1,0.4,0.4,0.4
				c0.3,0,0.6-0.3,0.5-0.6c-0.1-0.4-0.3-0.7-0.8-0.6c-0.5,0-1,0.6-0.6,1.7c0.7,2,3.3,5.8,1.6,6.7
				C-262.6,388.7-263.6,387.2-263.6,386.6L-263.6,386.6z"/>
		</g>
		<g>
			<path class="st2" d="M-263.6,374.8c0.3-0.4,0.8-0.4,1.1-0.1c0.7,0.5-0.2,1.3-0.4,2.1c-0.4,1.1-0.1,1.7,0.6,1.8
				c0.6,0.1,0.8-0.3,0.8-0.6c0.1-0.3-0.2-0.6-0.5-0.6c-0.3,0-0.5,0.2-0.4,0.4c0.6-0.2,0.7,0.6,0.2,0.6c-0.7,0-0.8-0.8-0.5-1.1
				c0.3-0.3,0.9-0.3,1.1,0c-0.1-0.3-0.2-0.6-0.2-1c0-0.1-0.1-0.7-0.2-0.8c0.1-0.1,0.4,0.1,0.3,0.2c0.1-0.3,0.3-0.6,0.7-0.8
				c-0.5,0.9-0.5,1.7-0.2,2.3c0.4,0.8,0.1,2.1-1.3,1.9c-1.3-0.2-1.6-1.5-0.6-3.5c0.3-0.7-0.5-0.7-0.6-0.2c-0.1-0.5-1-0.5-0.6,0.2
				c1,1.9,0.8,3.3-0.6,3.5c-1.4,0.2-1.7-1.1-1.3-1.9c0.3-0.6,0.3-1.5-0.2-2.3c0.4,0.2,0.6,0.5,0.7,0.8c0-0.1,0.2-0.2,0.3-0.2
				c-0.2,0.1-0.2,0.6-0.2,0.8c0,0.4-0.1,0.8-0.2,1c0.2-0.3,0.8-0.3,1.1,0s0.2,1.1-0.5,1.1c-0.5,0-0.4-0.8,0.2-0.6
				c0.1-0.2-0.1-0.4-0.4-0.4c-0.3,0-0.6,0.3-0.5,0.6c0.1,0.4,0.3,0.7,0.8,0.6c0.7-0.1,0.9-0.7,0.6-1.8c-0.3-0.9-1.1-1.6-0.4-2.1
				C-264.4,374.4-263.9,374.4-263.6,374.8L-263.6,374.8z"/>
		</g>
		<g>
			<path class="st2" d="M-263.6,389.7c0-0.6-1-2.1-2.3-1.4c-1.7,1,0.9,4.7,1.6,6.7c0.4,1.1-0.1,1.7-0.6,1.7
				c-0.6,0.1-0.8-0.3-0.8-0.6c-0.1-0.3,0.2-0.6,0.5-0.6c0.3,0,0.5,0.2,0.4,0.4c-0.6-0.2-0.7,0.6-0.2,0.6c0.7,0,0.8-0.8,0.5-1.1
				c-0.3-0.3-0.9-0.3-1.1,0c0.1-0.3,0.2-0.6,0.2-1c0-0.1,0.1-0.7,0.2-0.8c-0.1-0.1-0.4,0.1-0.3,0.2c-0.1-0.3-0.3-0.6-0.7-0.8
				c0.5,0.9,0.5,1.7,0.2,2.3c-0.4,0.8-0.1,2.1,1.3,1.9c1.3-0.2,1.6-1.4,0.7-3.2c-0.9-1.7-2.6-4.8-1.4-5.4c0.4-0.2,1,0.2,1.4,0.8
				c0.1,0.2,0,0.3-0.2,0.3c-0.1,0-0.2,0-0.4,0v-0.1c0-0.4-0.3-0.4-0.3,0v0.1c-0.1,0-0.2,0.1-0.2,0.2s0.1,0.2,0.2,0.2v0.1
				c0,0.4,0.3,0.4,0.3,0v-0.1c0.2,0,0.6,0,0.6,0c0.1,0,0.2,0.1,0.2,0.2c0,0.6,0,1.1,0,1.5c0,0.1-0.5,0.1-0.4-0.2
				c0-0.1-0.1-0.2-0.1-0.1c-0.5,0.5,0.4,0.8,0.6,0.7c0,0.4,0,0.7,0,0.9c0,0.6,0.7,0.6,0.7,0c0-0.2,0-0.5,0-0.9
				c0.2,0.2,1-0.2,0.6-0.7c-0.1-0.1-0.1,0-0.1,0.1c0,0.3-0.4,0.4-0.4,0.2c0-0.4,0-0.9,0-1.5c0-0.1,0.1-0.2,0.2-0.2
				c0.1,0,0.5,0,0.6,0v0.1c0,0.4,0.3,0.4,0.3,0v-0.1c0.1,0,0.2-0.1,0.2-0.2s-0.1-0.2-0.2-0.2v-0.1c0-0.4-0.3-0.4-0.3,0v0.1
				c-0.2,0-0.4,0-0.4,0c-0.2,0-0.3-0.1-0.2-0.3c0.3-0.6,0.9-1,1.4-0.8c1.2,0.6-0.6,3.6-1.4,5.4c-0.9,1.7-0.6,3,0.7,3.2
				c1.4,0.2,1.7-1.1,1.3-1.9c-0.3-0.6-0.3-1.5,0.2-2.3c-0.4,0.2-0.6,0.5-0.7,0.8c0-0.1-0.2-0.2-0.3-0.2c0.2,0.1,0.2,0.6,0.2,0.8
				c0,0.4,0.1,0.8,0.2,1c-0.2-0.3-0.8-0.3-1.1,0c-0.3,0.3-0.2,1.1,0.5,1.1c0.5,0,0.4-0.8-0.2-0.6c-0.1-0.2,0.1-0.4,0.4-0.4
				c0.3,0,0.6,0.3,0.5,0.6c-0.1,0.4-0.3,0.7-0.8,0.6c-0.5,0-1-0.6-0.6-1.7c0.7-2,3.3-5.8,1.6-6.7
				C-262.6,387.6-263.6,389.1-263.6,389.7L-263.6,389.7z"/>
		</g>
	</g>
</g>
</svg>
