<?xml version="1.0" encoding="utf-8"?>
<!-- Generator: Adobe Illustrator 19.0.0, SVG Export Plug-In . SVG Version: 6.00 Build 0)  -->
<svg version="1.1" id="Layer_1" xmlns="http://www.w3.org/2000/svg" xmlns:xlink="http://www.w3.org/1999/xlink" x="0px" y="0px"
	 viewBox="-269 374 72 46" style="enable-background:new -269 374 72 46;" xml:space="preserve">
<style type="text/css">
	.st0{clip-path:url(#SVGID_2_);}
	.st1{fill:#E40520;}
	.st2{fill:#004996;}
	.st3{fill:#FFFFFF;}
</style>
<g>
	<defs>
		<path id="SVGID_1_" d="M-204,420H-262c-3.8,0-7-3.1-7-7V381c0-3.8,3.1-7,7-7h58.1c3.8,0,7,3.1,7,7V413
			C-197,416.9-200.1,420-204,420z"/>
	</defs>
	<clipPath id="SVGID_2_">
		<use xlink:href="#SVGID_1_"  style="overflow:visible;"/>
	</clipPath>
	<g class="st0">
		<g>
			<polygon class="st1" points="-196.8,409.8 -269.2,409.8 -269.2,422.2 -196.8,422.2 			"/>
		</g>
		<g>
			<path d="M-196.7,422.4h-72.6v-12.7h72.6V422.4z M-269.1,422.1h72.1v-12.2h-72.1V422.1z"/>
		</g>
		<g>
			<polygon class="st1" points="-269.2,384.9 -196.8,384.9 -196.8,372.5 -269.2,372.5 			"/>
		</g>
		<g>
			<path d="M-196.7,385.1h-72.6v-12.7h72.6V385.1z M-269.1,384.8h72.1v-12.2h-72.1V384.8z"/>
		</g>
		<g>
			<polygon class="st2" points="-196.8,409.8 -269.2,409.8 -269.2,384.9 -196.8,384.9 			"/>
		</g>
		<g>
			<path d="M-196.7,409.9h-72.6v-25.1h72.6V409.9z M-269.1,409.7h72.1v-24.6h-72.1V409.7z"/>
		</g>
		<g>
			<path class="st3" d="M-233,407.3c5.3,0,9.7-4.5,9.7-10c0-5.5-4.3-10-9.7-10c-5.3,0-9.7,4.5-9.7,10S-238.3,407.3-233,407.3
				L-233,407.3z"/>
		</g>
	</g>
</g>
</svg>
