<?xml version="1.0" encoding="utf-8"?>
<!-- Generator: Adobe Illustrator 19.0.0, SVG Export Plug-In . SVG Version: 6.00 Build 0)  -->
<svg version="1.1" id="Layer_1" xmlns="http://www.w3.org/2000/svg" xmlns:xlink="http://www.w3.org/1999/xlink" x="0px" y="0px"
	 viewBox="-269 374 72 46" style="enable-background:new -269 374 72 46;" xml:space="preserve">
<style type="text/css">
	.st0{clip-path:url(#SVGID_2_);}
	.st1{fill:#E95123;}
	.st2{fill:#FFFFFF;}
	.st3{fill:#00904A;}
</style>
<g>
	<defs>
		<path id="SVGID_1_" d="M-204,420H-262c-3.8,0-7-3.1-7-7V381c0-3.8,3.1-7,7-7h58.1c3.8,0,7,3.1,7,7V413
			C-197,416.9-200.1,420-204,420z"/>
	</defs>
	<clipPath id="SVGID_2_">
		<use xlink:href="#SVGID_1_"  style="overflow:visible;"/>
	</clipPath>
	<g class="st0">
		<g>
			<polygon class="st1" points="-195.7,372.2 -270.3,372.2 -270.3,421.9 -195.7,421.9 			"/>
		</g>
		<g>
			<path d="M-195.6,422h-74.8v-49.9h74.8V422z M-270.1,421.8h74.3v-49.4h-74.3V421.8z"/>
		</g>
		<g>
			<polygon class="st2" points="-195.7,384.6 -270.3,384.6 -270.3,409.5 -195.7,409.5 			"/>
		</g>
		<g>
			<path d="M-195.6,409.6h-74.8v-25.1h74.8V409.6z M-270.1,409.3h74.3v-24.6h-74.3V409.3z"/>
		</g>
		<g>
			<path class="st3" d="M-235.4,385.3c-0.5,0.5-1.5,1.2-1.8,1.7c-0.2,0.5-1,1-1.4,1.1c-0.4,0.2-0.1,0.5,0.4,0.2
				c0.5-0.3,0.8-0.3,1.1-0.5c0.3-0.3,0.6,0,0.3,0.2c-0.4,0.2-0.5,0.5-0.7,0.7c-0.2,0.2-0.2,0.3-0.6,0.3c-0.4,0-0.7,0.1-1,0.5
				c-0.3,0.4-0.6,0.8-0.7,1c-0.1,0.2,0,0.4,0.3,0.1c0.4-0.3,0.7-0.5,0.9-0.2c0.2,0.3,0.2,0.4-0.3,0.6c-1,0.4-1.3,0.6-1.5,1
				c-0.2,0.4-0.1,0.5-0.7,0.7c-0.6,0.2-1.6,0.9-2.3,1.4c-0.7,0.5-0.3,0.5,0.2,0.5c0.8,0,1.8-0.6,2.3-0.3c0.2,0.3,0.3,0.7,0.6,0.9
				c-0.8,1.1-0.9,1.6-1.8,1.6c-0.8,0-1.4,0.9-1.8,1.3c-0.4,0.4-0.7,0.8-1.1,1c-0.4,0.2-0.4,0.3-0.2,0.4c0.3,0.1,0.5-0.2,0.8-0.1
				c0.3,0.1,0.4,0.1,0.8-0.2s0.8-0.6,1.4-0.7c0.3,0.3,0.5,0.5,0.8,0.7c-0.6,0.8-1.5,1.4-2.2,1.7c-0.8,0.3-0.9,0.6-1.4,1.3
				c-0.5,0.7-0.5,0.9-1.1,0.9c-0.6,0-0.5,0.1-0.2,0.4c0.3,0.2,0.5,0.1,1,0.2c0.4,0.1,1,0.2,1.6-0.4c0.6-0.6,2-1.7,3.2-1.6
				c0.6,0.1,1,0.2,0.3,0.8c-0.7,0.6-1.7,1.1-2.3,1.3c-1.3,0.3-1.8,0.8-2.2,0.8c-0.4,0-0.7,0.2-0.2,0.6c0.6,0.3,0.8,0.4,1.4,0.1
				c0.6-0.3,1.7-0.8,2.1-0.9c0.4-0.1,0.7-0.3,1-0.2c0.3,0.1,0.5,0,0.9-0.2c0.3-0.2,0.8-0.2,1.2-0.6c0.5-0.4,1-0.1,1.3,0.2
				s0.9,1.3,0.4,2c-0.6,0.7-1.2,1.5-1.4,1.9c-0.2,0.4-0.3,0.4-0.6,0.5c-0.8,0.3-1.6,0.8-1.8,1c-0.2,0.2-0.1,0.3,0.2,0.3
				c0.3,0.1,0.4,0,0.6-0.2c0.3-0.2,0.6-0.6,1.3-0.6c0.4,0,0.7-0.2,1-0.5c0.3-0.3,1-0.7,1.4-0.6s0.5,0,0.7-0.2c0.2-0.2,0.4-0.2,0.7,0
				c0.3,0.3,0.6,0.2,0.9,0c0.3-0.2,0.7-0.1,0.8,0.1c0.1,0.2,0.1,0.4,0.4,0.6c0.3,0.2,1.4,0.8,1.7,1c0.3,0.2,0.6-0.2,0.3-0.4
				c-0.3-0.2-0.4-0.4-0.3-0.6c0-0.2,0.2-0.3,0.8-0.2c0.9,0.1,2.2,0.8,2.7,1.1c0.5,0.3,0.9,0.5,1.3,0.5c0.4,0,0.5-0.1,0.2-0.4
				c-0.3-0.3-0.8-0.3-0.9-0.6c-0.3-0.5-0.7-0.2-1-0.7c-0.2-0.4-0.4-0.4-0.7-0.4c-0.3,0-0.7-0.2-1-0.6c-1-1.4-1.2-2.7-0.9-3.7
				c0.3-1,1.2-1.3,1.8-0.9c0.5,0.4,1.2,0.7,1.4,0.6c0.3,0,0.5,0,0.9,0.2c0.4,0.2,1,0.3,1.7,0c0.7-0.3,1-0.1,1.5-0.1
				c0.4,0,0.9,0.1,1.2,0.4c0.3,0.3,0.8,0.4,1.5,0.6c0.7,0.1,1.2-0.1,0.6-0.4c-0.6-0.3-1.1-0.5-1.3-0.9c-0.2-0.3-0.5-0.4-0.8-0.4
				c-0.3,0-0.8-0.2-1.2-0.6c-0.4-0.4-0.8-0.5-1.1-0.5c-0.3,0-0.7,0-0.9-0.3c0.3-0.4,0.7-1.1,1-1.3c0.4,0,0.7,0.1,0.9,0.3
				c0.3,0.2,0.6,0.2,0.9,0.2c0.3,0,0.6,0.1,0.8,0.3c0.2,0.1,0.5,0.1,0.9,0c0.3-0.1,0.2-0.3-0.1-0.5c-0.4-0.2-0.6-0.4-0.7-0.6
				c-0.1-0.2-0.2-0.3-0.7-0.3c-0.5,0-0.7-0.2-1-0.6c-0.8-0.9-1.4-0.9-1.9-0.9c-0.5,0.1-1,0.2-1.5-0.4c0.5-0.3,1,0.3,1.7-0.2
				c0.4-0.3,0.6-0.3,1.1-0.2s1,0.1,1.2,0c0.1-0.1,0.3-0.3,0.6-0.3c0.2,0,0.2-0.3-0.1-0.3c-0.6,0.1-0.8-0.3-1.4-0.2
				c-0.6,0.1-0.9,0-1.3-0.3c-0.4-0.3-0.7-0.5-1.9-0.3c0.1-0.4,0-0.8,0.6-0.9c0.4,0.3,0.9,0.2,1.2,0.2c0.4,0,1.6,0,1.9,0
				c0.4,0.1,0.4-0.1-0.1-0.4c-0.5-0.3-1.3-0.4-1.6-0.4c-0.3,0-0.4-0.2-0.6-0.6c-0.2-0.4-0.7-0.6-1.5-0.6c-0.6,0-1.1-0.3-1.4-0.6
				c-0.3-0.3-0.6-0.5-1-0.6c-0.4-0.1-0.7-0.3-0.6-0.6s0.8-0.5,1.2-0.2c0.4,0.3,0.7,0.3,1,0.1c0.3-0.2,0.4-0.2,0.8-0.1
				c0.4,0.1,0.8,0.1,0.2-0.3c-0.9-0.7-1.8-0.4-2.1-0.8c-0.3-0.4-0.5-0.2-0.8-0.1c-0.2,0.1-0.6-0.1-0.1-0.4c0.3-0.2,0.7-0.3,1-0.1
				c0.3,0.1,0.7,0.1,0.9,0c0.2-0.1,0.5-0.3-0.2-0.5c-0.7-0.1-1.7-0.5-2.2-0.9c-0.4-0.4-0.8-0.4-1.2-0.4c-0.4,0.1-0.6,0.1-1.3-0.3
				c-0.6-0.4-1.4-0.8-2-1.5C-235,384.4-235.1,384.9-235.4,385.3L-235.4,385.3z"/>
		</g>
		<g>
			<path class="st2" d="M-237.5,389.7c-0.4,0-0.7,0.1-0.5,0.4c0.2,0.3,0.3,0.1,0.6,0C-237.2,390-236.9,389.8-237.5,389.7
				L-237.5,389.7z"/>
		</g>
		<g>
			<path class="st2" d="M-236.4,390.6c-0.4,0.2-0.7,0.4-0.8,0.8c-0.1,0.4-0.1,0.7,0.2,0.6c0.5-0.1,0.6-0.8,1-0.8
				C-236.1,391-236.2,390.7-236.4,390.6L-236.4,390.6z"/>
		</g>
		<g>
			<path class="st2" d="M-235.7,390.3c0,0.2,0.1,0.4,0.2,0.5c0.3-0.2,1.2-0.5,1.5-0.6c0-0.2,0-0.4-0.1-0.5
				C-234.5,389.8-235.2,389.9-235.7,390.3L-235.7,390.3z"/>
		</g>
		<g>
			<path class="st2" d="M-232.8,391.8c0,0.2,0.1,0.8,0.1,1c0.2,0.1,0.5,0.2,0.7,0.2c0.1-0.3,0.2-0.7,0.2-0.9
				C-232.2,391.9-232.5,391.6-232.8,391.8L-232.8,391.8z"/>
		</g>
		<g>
			<path class="st2" d="M-233.5,392.1c0,0.2,0,0.5,0.1,0.6c-0.3,0-0.7,0.2-1,0.3c-0.3,0.1-0.6-0.4-0.1-0.6
				C-234.1,392.2-233.8,392.1-233.5,392.1L-233.5,392.1z"/>
		</g>
		<g>
			<path class="st2" d="M-240.2,394c0.5-0.3,0.8-0.1,1.2-0.2c0.2,0.2,0.5,0.5,0.6,0.7c-0.3,0.4-1.1,0.1-1.3,0.3
				C-239.9,394.6-240.1,394.3-240.2,394L-240.2,394z"/>
		</g>
		<g>
			<path class="st2" d="M-238.2,393.5c0.1,0.3,0.3,0.5,0.4,0.6c0.4,0,0.5-0.2,0.7-0.4c0.2-0.3,0.2-0.6-0.3-0.5
				C-237.8,393.2-238.1,393.2-238.2,393.5L-238.2,393.5z"/>
		</g>
		<g>
			<path class="st2" d="M-241.5,398.3c0.1,0.3,0.4,0.4,0.5,0.6c0.4-0.2,0.5-0.2,0.8-0.1c0.3,0.1,1.1-0.2,1.5-0.7
				c0.5-0.5,0.2-0.4-0.4-0.3c-0.5,0.1-0.9,0.2-1.3,0.1C-240.6,397.7-241.1,397.9-241.5,398.3L-241.5,398.3z"/>
		</g>
		<g>
			<path class="st2" d="M-236.9,396.1c-0.2,0.2-0.4,0.3-0.2,0.5c0.2,0.2,0.3,0.1,0.5,0c0.2-0.1,0.3-0.3,0.2-0.5
				C-236.4,395.9-236.6,396-236.9,396.1L-236.9,396.1z"/>
		</g>
		<g>
			<path class="st2" d="M-235.6,395.7c-0.3,0-0.2,0.2-0.2,0.3c0,0.1,0.1,0.2,0.3,0.2c0.2,0,0.2-0.1,0.2-0.3
				C-235.5,395.7-235.5,395.7-235.6,395.7L-235.6,395.7z"/>
		</g>
		<g>
			<path class="st2" d="M-234.9,395.9c0,0.3,0,0.3,0.2,0.3c0.3,0,0.4,0,0.4-0.2c0-0.3,0-0.4-0.3-0.4
				C-234.9,395.6-234.9,395.7-234.9,395.9L-234.9,395.9z"/>
		</g>
		<g>
			<path class="st2" d="M-233.7,396.2c-0.1,0.2-0.2,0.4,0.2,0.5s0.4,0,0.5-0.3c0.1-0.3,0.1-0.4-0.2-0.5
				C-233.5,395.9-233.6,395.9-233.7,396.2L-233.7,396.2z"/>
		</g>
		<g>
			<path class="st2" d="M-232.5,396.2c0,0.1-0.1,0.5-0.2,0.6c0.1,0.1,0.3,0.1,0.5,0.2c0.1,0.1,0.3-0.2,0.3-0.4
				C-231.9,396.4-232.2,396.1-232.5,396.2L-232.5,396.2z"/>
		</g>
		<g>
			<path class="st2" d="M-231,392.5c0,0.2-0.2,0.7-0.2,0.8c0.4,0.1,0.7,0.2,1,0.1c0.3,0,0.7-0.1,1-0.1c0.2,0,0.3-0.2,0-0.5
				c-0.4-0.3-0.6-0.3-0.8-0.3C-230.4,392.6-230.8,392.3-231,392.5L-231,392.5z"/>
		</g>
		<g>
			<path class="st2" d="M-229.4,394.4c-0.3,0-0.4,0.2-0.2,0.3c0.2,0.2,0.4,0.1,0.5-0.1C-229.2,394.6-229.2,394.5-229.4,394.4
				L-229.4,394.4z"/>
		</g>
		<g>
			<path class="st2" d="M-228.8,394.4c0,0.1,0.1,0.4,0.1,0.5c0.2,0.2,0.4,0,0.6,0.2c0.2,0.2,0.4,0,0.4-0.2c0-0.2,0.1-0.3-0.1-0.3
				C-228.2,394.5-228.5,394.2-228.8,394.4L-228.8,394.4z"/>
		</g>
		<g>
			<path class="st2" d="M-233.3,389.5c0,0.1,0.2,0.4,0.2,0.5c0.2,0.1,0.6,0.3,0.8,0c0.1-0.2,0.2-0.3,0-0.4
				C-232.6,389.5-233,389.1-233.3,389.5L-233.3,389.5z"/>
		</g>
		<g>
			<path class="st2" d="M-231.6,389.9c-0.1,0.2,0,0.2,0.2,0.3c0.2,0.1,0.3-0.1,0.3-0.2C-231.1,389.9-231.4,389.7-231.6,389.9
				L-231.6,389.9z"/>
		</g>
		<g>
			<path class="st2" d="M-237.8,400.6c0.1,0.1,0.3,0.3,0.2,0.5c0,0.2,0.1,0.3,0.2,0.4s0.5,0.4,0.6,0c0.1-0.4-0.3-1-0.5-1.1
				c-0.2,0-0.3,0-0.4-0.2C-237.7,400.2-238,400.4-237.8,400.6L-237.8,400.6z"/>
		</g>
		<g>
			<path class="st2" d="M-224.9,398.9c-0.1,0.4-0.5,1.1-0.7,1.3c-0.4-0.2-1.1-0.3-1.1-0.5c0.1-0.4,0.3-0.7,0.4-0.9
				C-225.9,398.7-225.2,398.6-224.9,398.9L-224.9,398.9z"/>
		</g>
		<g>
			<path class="st2" d="M-227.2,398.4c0,0.3-0.2,0.9-0.2,1.1c-0.4,0.1-1.5-0.2-1.8,0c0-0.3,0-0.7,0.1-0.9
				C-228.6,398.6-227.9,398.2-227.2,398.4L-227.2,398.4z"/>
		</g>
	</g>
</g>
</svg>
