<?xml version="1.0" encoding="utf-8"?>
<!-- Generator: Adobe Illustrator 19.0.0, SVG Export Plug-In . SVG Version: 6.00 Build 0)  -->
<svg version="1.1" id="Layer_1" xmlns="http://www.w3.org/2000/svg" xmlns:xlink="http://www.w3.org/1999/xlink" x="0px" y="0px"
	 viewBox="-269 374 72 46" style="enable-background:new -269 374 72 46;" xml:space="preserve">
<style type="text/css">
	.st0{clip-path:url(#SVGID_2_);}
	.st1{fill:#004288;}
	.st2{fill:#FFFFFF;}
	.st3{fill:#FFED00;}
</style>
<g>
	<defs>
		<path id="SVGID_1_" d="M-204,420H-262c-3.8,0-7-3.1-7-7V381c0-3.8,3.1-7,7-7h58.1c3.8,0,7,3.1,7,7V413
			C-197,416.9-200.1,420-204,420z"/>
	</defs>
	<clipPath id="SVGID_2_">
		<use xlink:href="#SVGID_1_"  style="overflow:visible;"/>
	</clipPath>
	<g class="st0">
		<g>
			<polygon class="st1" points="-182.3,421.8 -182.3,371.2 -283.7,371.2 -283.7,421.8 			"/>
		</g>
		<g>
			<path d="M-182.2,422h-101.6V371h101.6V422z M-283.5,421.7h101.1v-50.4h-101.1V421.7z"/>
		</g>
		<g>
			<polygon class="st2" points="-233,375.9 -214.7,416.8 -251.4,416.8 			"/>
		</g>
		<g>
			<polygon points="-233,380.9 -217,416.8 -249,416.8 			"/>
		</g>
		<g>
			<polygon class="st3" points="-233,395.7 -214.7,416.8 -251.4,416.8 			"/>
		</g>
	</g>
</g>
</svg>
