<?xml version="1.0" encoding="utf-8"?>
<!-- Generator: Adobe Illustrator 19.0.0, SVG Export Plug-In . SVG Version: 6.00 Build 0)  -->
<svg version="1.1" id="Layer_1" xmlns="http://www.w3.org/2000/svg" xmlns:xlink="http://www.w3.org/1999/xlink" x="0px" y="0px"
	 viewBox="-269 374 72 46" style="enable-background:new -269 374 72 46;" xml:space="preserve">
<style type="text/css">
	.st0{clip-path:url(#SVGID_2_);}
	.st1{fill:#004288;}
	.st2{fill:#E50040;}
	.st3{fill:#FFD851;}
</style>
<g>
	<defs>
		<path id="SVGID_1_" d="M-204,420H-262c-3.8,0-7-3.1-7-7V381c0-3.8,3.1-7,7-7h58.1c3.8,0,7,3.1,7,7V413
			C-197,416.9-200.1,420-204,420z"/>
	</defs>
	<clipPath id="SVGID_2_">
		<use xlink:href="#SVGID_1_"  style="overflow:visible;"/>
	</clipPath>
	<g class="st0">
		<g>
			<polygon class="st1" points="-192.2,397.2 -269.9,397.2 -269.9,373.6 -192.2,373.6 			"/>
		</g>
		<g>
			<path d="M-192.1,397.3H-270v-23.9h77.9V397.3z M-269.7,397.1h77.4v-23.4h-77.4V397.1z"/>
		</g>
		<g>
			<polygon class="st2" points="-269.9,397.2 -192.2,397.2 -192.2,420.8 -269.9,420.8 			"/>
		</g>
		<g>
			<path d="M-192.1,421H-270v-23.9h77.9V421z M-269.7,420.7h77.4v-23.4h-77.4V420.7z"/>
		</g>
		<g>
			<path d="M-260,386.5c-0.2,0.1-0.6,0.3-0.8,0.4c0.9,0.5,1.4,3.1,2.1,3.9c2.8,0.1,7,0.1,11.4,0.2c0.5,0,0.7-0.5,0.9-0.9
				c0.4-0.9,1.1-2.5,1.7-2.7c0.3-0.1,0.1-0.3-0.1-0.4c-0.2-0.2-0.5-0.3-0.8-0.4c0.3-0.2,0.3-0.5,0.1-0.8c0.5-0.3,0.4-0.7,0.1-0.9
				c0.5-0.4,0.3-0.9-0.1-0.9c0.3-0.5,0.2-1-0.4-1c0.2-0.5-0.3-0.8-0.7-0.7c-0.1-0.4-0.4-0.8-0.8-0.4c-0.2-0.5-0.7-0.7-0.9-0.2
				c-0.3-0.4-0.7-0.4-0.9-0.1c-0.3-0.2-0.7-0.1-0.8,0.2c-0.2-0.2-0.7-0.3-0.9,0.1c-0.3-0.2-0.7-0.2-0.8,0.1
				c-0.1-0.1-0.2-0.1-0.3-0.1c0.3-0.5,0.2-1.2-0.3-1.3c0.1-0.1,0.1-0.2,0.1-0.3c0-0.1,0-0.1,0-0.2c0-0.1-0.1-0.2-0.2-0.3l0.2-0.2
				c0.2,0.1,0.3,0.2,0.4,0.2c0.1,0,0.1,0.1,0.2,0c0.1-0.1,0.3-0.2,0.4-0.3c0.1-0.1,0-0.1,0-0.2c-0.1-0.1-0.3-0.2-0.4-0.3
				c-0.1-0.1-0.1,0-0.2,0c-0.1,0.1-0.3,0.1-0.4,0.2c0-0.1-0.1-0.1-0.2-0.1c0.2-0.3,0.2-0.5,0.3-0.6c0-0.1,0.1-0.1,0-0.2
				c0-0.1-0.3-0.5-0.3-0.6c-0.1-0.1-0.1-0.1-0.2,0c-0.1,0.2-0.3,0.4-0.3,0.5c-0.1,0.1-0.1,0.1,0,0.3c0.1,0.2,0.2,0.4,0.2,0.6
				c0,0-0.1,0.1-0.2,0.2c-0.2-0.1-0.3-0.2-0.4-0.2s-0.1,0-0.2,0c-0.2,0.1-0.5,0.3-0.5,0.3c-0.1,0,0,0.1,0.1,0.2
				c0.1,0.1,0.3,0.2,0.4,0.3c0.1,0,0.1,0,0.2,0c0.1,0,0.3-0.1,0.4-0.2c0,0.1,0.1,0.1,0.2,0.2c-0.1,0.1-0.1,0.2-0.2,0.3
				c-0.1,0.1-0.1,0.1,0,0.2c0,0.1,0.1,0.1,0.1,0.2c-0.7,0.2-0.7,1-0.5,1.4c-0.1,0-0.2,0-0.3,0.1c-0.2-0.3-0.6-0.4-0.8-0.1
				c-0.2-0.3-0.6-0.4-0.9-0.2c-0.2-0.4-0.6-0.4-0.9-0.1c-0.1-0.3-0.7-0.4-0.9,0c-0.3-0.3-0.7-0.2-0.9,0.1c-0.3-0.3-0.8-0.2-0.9,0.4
				c-0.5-0.1-0.9,0.2-0.7,0.7c-0.6,0-0.7,0.5-0.3,0.9c-0.6,0.1-0.6,0.7-0.2,1c-0.5,0.2-0.3,0.7,0,0.9
				C-260.3,385.9-260.3,386.3-260,386.5L-260,386.5z"/>
		</g>
		<g>
			<path class="st3" d="M-259.9,384.9c-0.4,0-0.4,0.6,0,0.6C-259.4,385.5-259.4,384.9-259.9,384.9L-259.9,384.9z"/>
		</g>
		<g>
			<path class="st3" d="M-259.7,385.7c-0.4,0-0.4,0.6,0,0.6C-259.3,386.4-259.3,385.7-259.7,385.7L-259.7,385.7z"/>
		</g>
		<g>
			<path class="st3" d="M-259.9,384c-0.4,0-0.4,0.6,0,0.6S-259.4,384-259.9,384L-259.9,384z"/>
		</g>
		<g>
			<path class="st3" d="M-259.6,383.1c-0.4,0-0.4,0.6,0,0.6C-259.2,383.7-259.2,383.1-259.6,383.1L-259.6,383.1z"/>
		</g>
		<g>
			<path class="st3" d="M-259.1,382.3c-0.4,0-0.4,0.6,0,0.6C-258.7,383-258.7,382.3-259.1,382.3L-259.1,382.3z"/>
		</g>
		<g>
			<path class="st3" d="M-258.3,381.8c-0.4,0-0.4,0.7,0,0.7S-257.9,381.8-258.3,381.8L-258.3,381.8z"/>
		</g>
		<g>
			<path class="st3" d="M-257.5,381.6c-0.4,0-0.4,0.7,0,0.7C-257,382.3-257,381.6-257.5,381.6L-257.5,381.6z"/>
		</g>
		<g>
			<path class="st3" d="M-256.7,381.5c-0.4,0-0.4,0.7,0,0.7C-256.2,382.2-256.2,381.5-256.7,381.5L-256.7,381.5z"/>
		</g>
		<g>
			<path class="st3" d="M-255.8,381.7c-0.4,0-0.4,0.7,0,0.7C-255.3,382.3-255.3,381.7-255.8,381.7L-255.8,381.7z"/>
		</g>
		<g>
			<path class="st3" d="M-254.9,381.8c-0.4,0-0.4,0.7,0,0.7C-254.5,382.5-254.5,381.8-254.9,381.8L-254.9,381.8z"/>
		</g>
		<g>
			<path class="st3" d="M-254.1,382c-0.4,0-0.4,0.7,0,0.7C-253.7,382.7-253.7,382-254.1,382L-254.1,382z"/>
		</g>
		<g>
			<path class="st3" d="M-253.3,382.1c-0.4,0-0.4,0.7,0,0.7C-252.9,382.8-252.9,382.1-253.3,382.1L-253.3,382.1z"/>
		</g>
		<g>
			<path class="st3" d="M-251.9,382.1c-0.4,0-0.4,0.7,0,0.7C-251.5,382.7-251.5,382.1-251.9,382.1L-251.9,382.1z"/>
		</g>
		<g>
			<path class="st3" d="M-251.1,381.9c-0.4,0-0.4,0.7,0,0.7C-250.7,382.6-250.7,381.9-251.1,381.9L-251.1,381.9z"/>
		</g>
		<g>
			<path class="st3" d="M-250.3,381.8c-0.4,0-0.4,0.7,0,0.7S-249.9,381.8-250.3,381.8L-250.3,381.8z"/>
		</g>
		<g>
			<path class="st3" d="M-252.6,379.2c-0.3,0-0.3,0.5,0,0.5C-252.2,379.7-252.2,379.2-252.6,379.2L-252.6,379.2z"/>
		</g>
		<g>
			<path class="st3" d="M-249.5,381.7c-0.4,0-0.4,0.7,0,0.7C-249,382.3-249,381.7-249.5,381.7L-249.5,381.7z"/>
		</g>
		<g>
			<path class="st3" d="M-248.6,381.6c-0.4,0-0.4,0.7,0,0.7C-248.2,382.3-248.2,381.6-248.6,381.6L-248.6,381.6z"/>
		</g>
		<g>
			<path class="st3" d="M-247.8,381.7c-0.4,0-0.4,0.7,0,0.7C-247.3,382.3-247.3,381.7-247.8,381.7L-247.8,381.7z"/>
		</g>
		<g>
			<path class="st3" d="M-246.9,381.9c-0.4,0-0.4,0.7,0,0.7C-246.4,382.6-246.4,381.9-246.9,381.9L-246.9,381.9z"/>
		</g>
		<g>
			<path class="st3" d="M-246.2,382.5c-0.4,0-0.4,0.7,0,0.7C-245.7,383.2-245.7,382.5-246.2,382.5L-246.2,382.5z"/>
		</g>
		<g>
			<path class="st3" d="M-245.7,383.2c-0.4,0-0.4,0.7,0,0.7C-245.2,383.9-245.2,383.2-245.7,383.2L-245.7,383.2z"/>
		</g>
		<g>
			<path class="st3" d="M-245.4,384.1c-0.4,0-0.4,0.6,0,0.6S-245,384.1-245.4,384.1L-245.4,384.1z"/>
		</g>
		<g>
			<path class="st3" d="M-245.5,385c-0.4,0-0.4,0.6,0,0.6C-245.1,385.6-245.1,385-245.5,385L-245.5,385z"/>
		</g>
		<g>
			<path class="st3" d="M-245.7,385.9c-0.4,0-0.4,0.6,0,0.6C-245.2,386.5-245.2,385.9-245.7,385.9L-245.7,385.9z"/>
		</g>
		<g>
			<path class="st3" d="M-252.7,383c-0.3,0-0.3,0.4,0,0.4C-252.4,383.4-252.4,383-252.7,383L-252.7,383z"/>
		</g>
		<g>
			<path class="st3" d="M-252.6,382.4c-0.3,0-0.3,0.4,0,0.4C-252.4,382.8-252.4,382.4-252.6,382.4L-252.6,382.4z"/>
		</g>
		<g>
			<path class="st3" d="M-252.7,383.6c-0.3,0-0.3,0.5,0,0.5C-252.3,384.2-252.3,383.6-252.7,383.6L-252.7,383.6z"/>
		</g>
		<g>
			<path class="st3" d="M-252.7,384.3c-0.4,0-0.4,0.6,0,0.6C-252.3,384.9-252.3,384.3-252.7,384.3L-252.7,384.3z"/>
		</g>
		<g>
			<path class="st3" d="M-252.7,385.1c-0.4,0-0.4,0.6,0,0.6C-252.3,385.7-252.3,385.1-252.7,385.1L-252.7,385.1z"/>
		</g>
		<g>
			<path class="st3" d="M-258.4,390.7c0.1,0,0.2,0,0.1-0.2c0-0.2,0-0.3,0.1,0c0.1,0.2,0,0.1,0.1,0.1c0.1,0,0.1,0,0.1-0.1
				c0-0.1,0-0.2,0.1,0c0,0.1,0,0.1,0.1,0.1c0.1,0,0.1,0,0.1-0.1c0-0.2,0-0.2,0.1,0c0,0.1,0,0.1,0.1,0.1c0.1,0,0.1,0,0.1-0.1
				c0-0.2,0-0.2,0.1,0c0.1,0.2,0.1,0.1,0.2,0.1c0.1,0,0.2,0,0.1-0.2c0-0.1,0-0.3,0.1,0c0,0.1,0.1,0.1,0.2,0.1c0.1,0,0.2,0,0.2-0.1
				c0-0.1,0-0.2,0.1,0c0,0.1,0,0.1,0.2,0.1c0.1,0,0.2,0,0.1-0.2c0-0.2,0.1-0.3,0.1,0c0,0.2,0,0.1,0.2,0.1c0.1,0,0.2,0,0.2-0.1
				c0-0.1,0.1-0.2,0.1,0c0,0.2,0,0.1,0.1,0.1c0.1,0,0.2,0,0.1-0.1s0.1-0.2,0.1,0c0,0.2,0,0.1,0.1,0.1c0.1,0,0.1,0,0.1-0.1
				c0-0.2,0.1-0.2,0.1,0c0,0.2,0,0.1,0.1,0.1c0.1,0,0.2,0,0.2-0.1c0-0.1,0.1-0.2,0.1,0c0,0.1,0,0.1,0.1,0.1c0.1,0,0.1,0,0.1-0.2
				s0.1-0.2,0.1,0c0,0.2,0,0.1,0.1,0.1c0.2,0,0.2,0,0.2-0.1c0-0.2,0.1-0.2,0.1,0c0,0.1,0,0.1,0.2,0.1c0.2,0,0.2,0,0.2-0.1
				c0-0.2,0.1-0.2,0.1,0c0,0.2,0.1,0.2,0.1,0.2c0.1,0,0.2,0,0.2,0c0.1,0,0.1,0,0.1-0.1s0.1-0.2,0.1,0c0,0.1,0,0.1,0.1,0.1
				c0.2,0,0.1,0,0.1-0.1c0-0.2,0.1-0.2,0.1,0c0,0.2,0,0.1,0.1,0.1c0.1,0,0.1,0,0.1-0.1c0-0.2,0.1-0.3,0.1,0c0,0.1,0,0.1,0.1,0.1
				s0.1,0,0.1-0.1c0-0.2,0.1-0.3,0.1,0c0,0.1,0,0.1,0.1,0.1c0.1,0,0.2,0,0.2-0.1c0-0.2,0.1-0.2,0.1,0c0,0.2,0,0.2,0.1,0.2
				c0.2,0,0.2,0.1,0.2-0.1c0-0.2,0.1-0.2,0.1,0c0,0.2,0,0.2,0.1,0.2c0.1,0,0.1,0.1,0.1-0.1c0-0.2,0.1-0.2,0.1,0c0,0.1,0,0.1,0.1,0.2
				c0.1,0,0.1,0.1,0.2-0.1c0-0.2,0.1-0.2,0.1,0c0,0.2,0,0.1,0.1,0.2c0.1,0,0.1,0.1,0.2-0.1c0-0.2,0.1-0.2,0.1,0c0,0.1,0,0.1,0.1,0.1
				c0.1,0,0.1,0,0.2,0c0,0,0.1,0,0.1-0.1c0-0.2,0.1-0.2,0.1,0c0,0.2,0,0.2,0.1,0.2c0.1,0,0.1,0,0.1-0.1c0-0.2,0.1-0.2,0.1,0
				c0,0.2,0,0.1,0.1,0.2c0.1,0,0.1,0,0.1-0.1c0-0.1,0.2-0.2,0.1,0c0,0.2,0,0.1,0.1,0.2c0.1,0,0.1,0.1,0.2-0.1c0-0.1,0.1-0.2,0.1,0
				c0,0.2,0,0.1,0.1,0.2c0.1,0,0.1,0.1,0.2-0.1c0-0.2,0.2-0.2,0.1,0c-0.1,0.2-0.1,0.1,0.1,0.2c0.1,0,0.1,0.1,0.2-0.1
				c0-0.2,0.2-0.2,0.1,0c-0.1,0.2,0,0.1,0.1,0.2c0.1,0,0.1,0.1,0.2-0.1c0.1-0.2,0.1-0.2,0.1,0c0,0.1-0.1,0.1,0.1,0.1
				c0.2,0,0.3-0.1,0.5-0.4c0.6-0.9,0.9-2.5,1.9-3.1c0.2-0.1,0.1-0.2-0.3-0.4c-1.1-0.4-2.3-0.3-2.9,1.2c-0.1,0.2-0.2,0.2-0.1,0
				c0.2-0.8,0.1-1.9-0.6-2.1c-0.9-0.3-2,0.6-2.3,1.6c-0.1,0.2-0.1,0.1-0.2-0.1c-0.2-1.4-0.8-1.8-1.6-1.7c-0.8,0-1.6,0.3-1.7,1.6
				c0,0.2-0.1,0-0.2-0.1c-1.1-1.3-1.6-1.6-2.2-1.5c-0.6,0.2-1,1.1-0.9,1.8c0,0.1-0.1,0.2-0.1,0c-0.4-1.2-1.7-1.6-2.7-0.9
				c-0.1,0.1-0.2,0,0.1,0.3c0.7,0.6,0.9,2.3,1.8,3.5C-258.5,390.7-258.5,390.7-258.4,390.7L-258.4,390.7z"/>
		</g>
		<g>
			<path class="st3" d="M-258.5,383.7c-0.3,0.4-0.3,1.5,0,2.1V383.7L-258.5,383.7z"/>
		</g>
		<g>
			<path class="st3" d="M-258.4,386c0.1,0.1,0.2,0.2,0.3,0.3v-2.9c-0.1,0.1-0.2,0.2-0.3,0.3V386L-258.4,386z"/>
		</g>
		<g>
			<path class="st3" d="M-258,386.3c0.1,0,0.2,0,0.3,0v-3.2c-0.1,0-0.2,0.1-0.3,0.1V386.3L-258,386.3z"/>
		</g>
		<g>
			<path class="st3" d="M-257.6,386.3c0.1,0,0.2-0.1,0.3-0.2c0,0,0,0,0,0V383c-0.1,0-0.2,0-0.3,0.1V386.3L-257.6,386.3z"/>
		</g>
		<g>
			<path class="st3" d="M-257.2,385.9c0.1-0.1,0.2-0.1,0.3-0.2v-2.9c-0.1,0-0.2,0-0.3,0V385.9L-257.2,385.9z"/>
		</g>
		<g>
			<path class="st3" d="M-256.8,385.7c0.1,0,0.2,0,0.2,0v-2.8c-0.1,0-0.2,0-0.2,0V385.7L-256.8,385.7z"/>
		</g>
		<g>
			<path class="st3" d="M-256.4,385.7c0.1,0,0.2,0,0.2,0v-2.8c-0.1,0-0.2,0-0.2,0V385.7L-256.4,385.7z"/>
		</g>
		<g>
			<path class="st3" d="M-256.1,385.8c0.1,0,0.2,0.1,0.3,0.2V383c-0.1,0-0.2,0-0.3-0.1V385.8L-256.1,385.8z"/>
		</g>
		<g>
			<path class="st3" d="M-255.7,386c0.1,0.1,0.2,0.1,0.3,0.2v-3.1c-0.1,0-0.2-0.1-0.3-0.1V386L-255.7,386z"/>
		</g>
		<g>
			<path class="st3" d="M-255.3,386.3c0.1,0.1,0.2,0.2,0.3,0.2v-3.3c-0.1,0-0.2-0.1-0.3-0.1V386.3L-255.3,386.3z"/>
		</g>
		<g>
			<path class="st3" d="M-254.9,386.6c0.1,0,0.2,0,0.3,0v-3.1c-0.1-0.1-0.2-0.1-0.3-0.1V386.6L-254.9,386.6z"/>
		</g>
		<g>
			<path class="st3" d="M-254.5,386.4c0.1-0.1,0.2-0.2,0.3-0.3v-2.4c-0.1-0.1-0.2-0.1-0.3-0.2V386.4L-254.5,386.4z"/>
		</g>
		<g>
			<path class="st3" d="M-254.1,386c0.2-0.4,0.6-1.5,0-2.2V386L-254.1,386z"/>
		</g>
		<g>
			<path class="st3" d="M-251.3,383.7v2.5c0.1,0.1,0.2,0.2,0.3,0.3v-3C-251.1,383.6-251.2,383.7-251.3,383.7L-251.3,383.7z"/>
		</g>
		<g>
			<path class="st3" d="M-248.9,385.8c0.1,0,0.2,0,0.3,0.1V383c-0.1,0-0.2,0-0.3,0V385.8L-248.9,385.8z"/>
		</g>
		<g>
			<path class="st3" d="M-248.5,385.9c0.1,0,0.2,0.1,0.3,0.2v-3c-0.1,0-0.2,0-0.3,0V385.9L-248.5,385.9z"/>
		</g>
		<g>
			<path class="st3" d="M-247.8,383.1c-0.1,0-0.2-0.1-0.3-0.1v3.1c0.1,0.1,0.2,0.2,0.3,0.3V383.1L-247.8,383.1z"/>
		</g>
		<g>
			<path class="st3" d="M-247.7,386.5c0.1,0.1,0.2,0.1,0.3,0.1v-3.3c-0.1-0.1-0.2-0.1-0.3-0.1V386.5L-247.7,386.5z"/>
		</g>
		<g>
			<path class="st3" d="M-250.9,386.6c0.1,0,0.2,0,0.3,0v-3.2c-0.1,0-0.2,0.1-0.3,0.1V386.6L-250.9,386.6z"/>
		</g>
		<g>
			<path class="st3" d="M-250.2,383.3c-0.1,0-0.2,0-0.3,0.1v3.2c0.1-0.1,0.2-0.1,0.3-0.2V383.3L-250.2,383.3z"/>
		</g>
		<g>
			<path class="st3" d="M-250.1,386.3c0.1-0.1,0.2-0.1,0.3-0.2v-2.9c-0.1,0-0.2,0-0.3,0.1V386.3L-250.1,386.3z"/>
		</g>
		<g>
			<path class="st3" d="M-249.7,386c0.1-0.1,0.2-0.1,0.3-0.1v-2.8c-0.1,0-0.2,0-0.3,0.1V386L-249.7,386z"/>
		</g>
		<g>
			<path class="st3" d="M-249.3,385.9c0.1,0,0.2,0,0.3-0.1v-2.8c-0.1,0-0.2,0-0.3,0V385.9L-249.3,385.9z"/>
		</g>
		<g>
			<path class="st3" d="M-251.4,383.9c-0.1,0.2-0.2,0.4-0.2,0.8c0,0.6,0.1,1.1,0.2,1.4V383.9L-251.4,383.9z"/>
		</g>
		<g>
			<path class="st3" d="M-247.3,383.4v3.2c0.1-0.1,0.2-0.2,0.3-0.3v-2.6C-247.1,383.6-247.2,383.5-247.3,383.4L-247.3,383.4z"/>
		</g>
		<g>
			<path class="st3" d="M-246.9,386c0.3-0.6,0.4-1.6,0-2.2V386L-246.9,386z"/>
		</g>
		<g>
			<path class="st3" d="M-251.8,382.9c3.3-0.7,4.6-0.7,5.4,0.3c0.8,1,0.5,2.4,0.2,3.4c-0.2,0-0.5,0.1-0.7,0.2
				c0.7-1.7,0.8-2.5-0.1-3.4c-0.8-0.9-2.9-0.7-4.8,0C-251.8,383.2-251.8,383.1-251.8,382.9L-251.8,382.9z"/>
		</g>
		<g>
			<path class="st3" d="M-251.9,382.9c0,1,0,2.2,0.3,3c-0.2-0.1-0.3-0.1-0.4-0.2c-0.2-1.6-0.2-2.6-0.2-2.8
				C-252.2,382.9-252.1,382.9-251.9,382.9L-251.9,382.9z"/>
		</g>
		<g>
			<path class="st3" d="M-253.4,382.9c0,0.9-0.2,2.3-0.5,3c0.2-0.1,0.4-0.2,0.5-0.2c0.2-0.6,0.3-2.2,0.3-2.7
				C-253.1,382.9-253.2,382.9-253.4,382.9L-253.4,382.9z"/>
		</g>
		<g>
			<path class="st3" d="M-253.6,383c-3-1-4.6-0.7-5.2,0s-0.9,1.5-0.4,3.3c0.2,0,0.5,0.1,0.7,0.2c-0.9-2-0.6-2.8,0.2-3.4
				c1.1-0.7,3.1-0.2,4.6,0.2C-253.6,383.2-253.6,383.1-253.6,383L-253.6,383z"/>
		</g>
		<g>
			<path class="st3" d="M-252.9,380.7c-0.2,0-0.3,0.2-0.3,0.3c0,0,0,0,0.1,0c0.1,0,0.2,0,0.2,0c0.1,0,0.1,0,0.1-0.1
				S-252.9,380.8-252.9,380.7C-252.8,380.7-252.9,380.7-252.9,380.7L-252.9,380.7z"/>
		</g>
		<g>
			<path class="st3" d="M-252.7,380.7c0,0.2,0,0.4,0,0.5c0,0.1,0,0.1-0.1,0.1c-0.1,0-0.4,0-0.4,0c-0.1,0,0,0-0.1,0.1
				c0,0,0,0.1,0,0.2c0,0.1,0,0,0.1,0c0.4-0.1,0.8,0,1.2,0c0.1,0,0.1,0,0.1-0.1c0-0.1,0-0.1,0-0.2c0-0.1,0-0.1-0.1-0.1
				c-0.1,0-0.3,0-0.4,0c-0.1,0-0.1,0-0.1-0.1c0-0.1,0-0.3,0-0.3c0-0.1,0-0.1-0.1-0.1C-252.6,380.7-252.6,380.7-252.7,380.7
				C-252.7,380.7-252.7,380.7-252.7,380.7L-252.7,380.7z"/>
		</g>
		<g>
			<path class="st3" d="M-252.3,380.8c0,0,0,0.2,0,0.2s0,0.1,0.1,0.1c0.1,0,0.2,0,0.2,0c0.1,0,0.1,0,0-0.1
				C-252.1,380.9-252.2,380.8-252.3,380.8C-252.4,380.8-252.3,380.8-252.3,380.8L-252.3,380.8z"/>
		</g>
		<g>
			<path class="st3" d="M-253.2,381.7c-0.1,0-0.1,0,0,0.1c0.1,0.2,0.2,0.4,0.6,0.4s0.6-0.2,0.7-0.5c0-0.1,0-0.1-0.1-0.1
				C-252.4,381.7-252.9,381.6-253.2,381.7L-253.2,381.7z"/>
		</g>
		<g>
			<path class="st3" d="M-252.8,380.6c-0.1-0.1-0.1-0.2-0.1-0.2c0-0.1,0-0.1,0-0.2c0.1-0.1,0.1-0.2,0.1-0.2c0,0,0-0.1,0.1-0.1
				c0,0,0.1,0,0.1,0c0,0,0,0,0.1,0.1c0,0.1,0.1,0.2,0.2,0.3c0,0.1,0,0.1,0,0.1c0,0.1-0.1,0.1-0.1,0.2
				C-252.6,380.6-252.6,380.6-252.8,380.6L-252.8,380.6z"/>
		</g>
		<g>
			<path class="st3" d="M-253,379.5c-0.1,0-0.3,0.1-0.4,0.1c-0.1,0-0.1,0-0.2,0s-0.2-0.1-0.2-0.2c-0.1,0-0.1-0.1,0-0.1
				c0.1-0.1,0.2-0.1,0.3-0.2s0.1-0.1,0.2,0c0.1,0,0.2,0.1,0.3,0.1C-253,379.4-253,379.5-253,379.5L-253,379.5z"/>
		</g>
		<g>
			<path class="st3" d="M-252.6,379.1c-0.1-0.2-0.2-0.5-0.3-0.6c0-0.1-0.1-0.1,0-0.2c0.1-0.1,0.2-0.3,0.2-0.4c0-0.1,0.1-0.1,0.1,0
				c0.1,0.2,0.2,0.3,0.2,0.4c0.1,0.1,0.1,0.1,0,0.2C-252.3,378.7-252.5,379-252.6,379.1L-252.6,379.1L-252.6,379.1z"/>
		</g>
		<g>
			<path class="st3" d="M-252.2,379.4c0,0,0,0.1,0,0.2c0.1,0.1,0.3,0.1,0.4,0.2c0.1,0,0.1,0.1,0.2,0c0.1-0.1,0.3-0.2,0.3-0.2
				c0.1,0,0-0.1,0-0.1c-0.1-0.1-0.2-0.1-0.2-0.2c-0.1,0-0.1-0.1-0.2,0C-251.9,379.2-252.1,379.3-252.2,379.4L-252.2,379.4z"/>
		</g>
		<g>
			<path d="M-259.7,387.4c-0.1-0.1-0.2-0.1-0.2-0.2c-0.1-0.1,0-0.1,0.1-0.1C-259.7,387.2-259.6,387.3-259.7,387.4
				C-259.5,387.4-259.6,387.5-259.7,387.4L-259.7,387.4z"/>
		</g>
		<g>
			<path d="M-259.3,387.4c-0.1-0.1-0.1-0.1-0.2-0.2c-0.1-0.1,0-0.3,0.1-0.1C-259.4,387.2-259.3,387.3-259.3,387.4
				C-259.3,387.4-259.3,387.5-259.3,387.4L-259.3,387.4z"/>
		</g>
		<g>
			<path d="M-259.2,387.2c0,0.1,0.1,0.2,0.1,0.3c0,0.1,0.2,0.1,0.1,0c0-0.1-0.1-0.2-0.1-0.3C-259.1,387.1-259.2,387.1-259.2,387.2
				L-259.2,387.2z"/>
		</g>
		<g>
			<path d="M-258.8,387.3c0,0.1,0.1,0.2,0.1,0.3c0,0.1,0.1,0,0.1-0.1c0-0.1,0-0.1,0-0.2C-258.6,387.2-258.8,387.2-258.8,387.3
				L-258.8,387.3z"/>
		</g>
		<g>
			<path d="M-258.4,387.5c0,0.1,0,0.2,0.1,0.2c0,0.1,0.1,0.1,0.1,0c0-0.1,0-0.2,0-0.2C-258.3,387.4-258.4,387.4-258.4,387.5
				L-258.4,387.5z"/>
		</g>
		<g>
			<path d="M-257.1,388c-0.1-0.1-0.1-0.2-0.2-0.3s-0.2,0-0.1,0.1C-257.3,387.9-257.2,388-257.1,388
				C-257.1,388.1-257.1,388.1-257.1,388L-257.1,388z"/>
		</g>
		<g>
			<path d="M-257.1,387.7c-0.1-0.1-0.2-0.2-0.2-0.2c-0.1-0.1,0-0.3,0.1-0.1C-257.1,387.5-257,387.6-257.1,387.7
				C-257,387.7-257,387.8-257.1,387.7L-257.1,387.7z"/>
		</g>
		<g>
			<path d="M-257.1,387.1c0,0.1,0.1,0.2,0.2,0.3c0,0.1,0.1,0,0.1-0.1c0-0.1-0.1-0.2-0.1-0.3C-257,386.9-257.2,387-257.1,387.1
				L-257.1,387.1z"/>
		</g>
		<g>
			<path d="M-256.7,387.1c0-0.1-0.1-0.1-0.1-0.2c0-0.1,0.1-0.2,0.1,0C-256.7,386.9-256.7,387-256.7,387.1
				C-256.6,387.1-256.7,387.2-256.7,387.1L-256.7,387.1z"/>
		</g>
		<g>
			<path d="M-256.4,387c0-0.1-0.1-0.2-0.1-0.3c0-0.1,0.1-0.2,0.1,0C-256.4,386.8-256.4,386.9-256.4,387
				C-256.3,387-256.4,387.1-256.4,387L-256.4,387z"/>
		</g>
		<g>
			<path d="M-256.1,387c0-0.1-0.1-0.2-0.1-0.3s0.1-0.2,0.1,0S-256.1,386.9-256.1,387C-256,387.1-256.1,387.1-256.1,387L-256.1,387z"
				/>
		</g>
		<g>
			<path d="M-255.9,386.8c0-0.1,0.1-0.2,0.1,0c0.1,0.2,0.1,0.3,0.1,0.4c0,0.1-0.1,0.1-0.1,0C-255.8,387-255.8,386.9-255.9,386.8
				L-255.9,386.8z"/>
		</g>
		<g>
			<path d="M-255.5,387c0,0.1,0.1,0.2,0.1,0.3c0,0.1,0.1,0.1,0.1,0c0-0.1,0-0.1,0-0.2C-255.4,386.9-255.5,386.9-255.5,387
				L-255.5,387z"/>
		</g>
		<g>
			<path d="M-254,387.6c0-0.1,0-0.2-0.1-0.3c0-0.1,0.1-0.1,0.1,0c0,0.1,0,0.2,0.1,0.3C-253.9,387.7-254,387.7-254,387.6L-254,387.6z
				"/>
		</g>
		<g>
			<path d="M-253.8,387.2c0-0.1-0.1-0.2-0.1-0.3c0-0.1,0.1-0.2,0.1,0C-253.7,387-253.7,387.1-253.8,387.2
				C-253.7,387.2-253.8,387.3-253.8,387.2L-253.8,387.2z"/>
		</g>
		<g>
			<path d="M-253.5,386.8c0-0.1,0-0.2,0-0.3c0-0.1,0.1-0.2,0.1,0C-253.4,386.6-253.4,386.8-253.5,386.8
				C-253.4,386.9-253.5,386.9-253.5,386.8L-253.5,386.8z"/>
		</g>
		<g>
			<path d="M-253.2,386.6c0-0.1,0-0.2,0-0.3c0-0.1,0.1-0.1,0.1,0c0,0.1,0,0.2,0,0.3C-253.1,386.7-253.2,386.8-253.2,386.6
				L-253.2,386.6z"/>
		</g>
		<g>
			<path d="M-252.9,386.7c0-0.1,0-0.3,0-0.3c0-0.1,0.2-0.2,0.2,0c0,0.2,0,0.2,0,0.3C-252.8,386.8-252.9,386.8-252.9,386.7
				L-252.9,386.7z"/>
		</g>
		<g>
			<path d="M-252.6,386.7c0-0.1,0-0.3,0-0.3c0-0.1,0.2-0.1,0.1,0C-252.5,386.5-252.5,386.6-252.6,386.7
				C-252.5,386.8-252.6,386.8-252.6,386.7L-252.6,386.7z"/>
		</g>
		<g>
			<path d="M-252.3,386.7c0-0.1,0-0.2,0-0.3c0-0.1,0.1-0.1,0.1,0c0,0.1,0,0.2,0,0.3C-252.2,386.8-252.3,386.8-252.3,386.7
				L-252.3,386.7z"/>
		</g>
		<g>
			<path d="M-252,387c0-0.1,0-0.3,0.1-0.4c0-0.1,0.1-0.1,0.1,0c0,0.1-0.1,0.3-0.1,0.4C-251.9,387.1-252.1,387.2-252,387L-252,387z"
				/>
		</g>
		<g>
			<path d="M-251.8,387.2c0-0.1,0-0.1,0.1-0.2c0,0,0.1-0.1,0.1,0C-251.7,387.1-251.7,387.2-251.8,387.2
				C-251.7,387.3-251.8,387.2-251.8,387.2L-251.8,387.2z"/>
		</g>
		<g>
			<path d="M-250.5,387.7c0-0.1,0-0.1,0-0.2c0-0.1,0.1-0.2,0.1,0C-250.4,387.7-250.4,387.7-250.5,387.7
				C-250.4,387.8-250.5,387.8-250.5,387.7L-250.5,387.7z"/>
		</g>
		<g>
			<path d="M-250.1,387.4c0-0.1,0-0.2,0-0.3c0-0.1,0.2-0.1,0.1,0C-250,387.3-250,387.4-250.1,387.4
				C-250.1,387.5-250.2,387.6-250.1,387.4L-250.1,387.4z"/>
		</g>
		<g>
			<path d="M-249.8,387.3c0-0.1,0-0.2,0-0.3c0-0.1,0.2-0.2,0.2-0.1C-249.6,387-249.7,387.2-249.8,387.3
				C-249.7,387.3-249.8,387.4-249.8,387.3L-249.8,387.3z"/>
		</g>
		<g>
			<path d="M-249.5,387.1c0-0.1,0-0.2,0.1-0.3c0-0.1,0.2-0.1,0.2,0C-249.3,387-249.4,387.1-249.5,387.1
				C-249.4,387.2-249.5,387.3-249.5,387.1L-249.5,387.1z"/>
		</g>
		<g>
			<path d="M-249.1,387c0-0.1,0-0.2,0.1-0.3c0-0.1,0.2-0.1,0.1,0C-249,386.9-249,387-249.1,387C-249.1,387.1-249.1,387.1-249.1,387
				L-249.1,387z"/>
		</g>
		<g>
			<path d="M-248.8,387.2c0-0.1,0.1-0.3,0.1-0.4c0-0.1,0.2-0.1,0.1,0.1c-0.1,0.2-0.1,0.3-0.1,0.3
				C-248.8,387.3-248.9,387.3-248.8,387.2L-248.8,387.2z"/>
		</g>
		<g>
			<path d="M-248.6,387.5c0-0.1,0.1-0.2,0.1-0.3c0-0.1,0.2-0.1,0.1,0C-248.5,387.3-248.5,387.4-248.6,387.5
				C-248.6,387.6-248.7,387.6-248.6,387.5L-248.6,387.5z"/>
		</g>
		<g>
			<path d="M-248.5,387.7c0.1-0.1,0.1-0.2,0.1-0.2c0-0.1,0.2,0,0.1,0.1C-248.3,387.7-248.4,387.8-248.5,387.7
				C-248.5,387.9-248.6,387.8-248.5,387.7L-248.5,387.7z"/>
		</g>
		<g>
			<path d="M-247.1,387.8c0-0.1,0-0.2,0.1-0.2s0.2,0,0.1,0C-246.9,387.7-247,387.8-247.1,387.8C-247,387.9-247.1,387.9-247.1,387.8
				L-247.1,387.8z"/>
		</g>
		<g>
			<path d="M-246.8,387.7c0-0.1,0.1-0.3,0.1-0.4c0.1-0.1,0.2,0,0.1,0.1C-246.6,387.5-246.6,387.7-246.8,387.7
				C-246.7,387.8-246.8,387.8-246.8,387.7L-246.8,387.7z"/>
		</g>
		<g>
			<path d="M-246.4,387.6c0.1-0.1,0.1-0.3,0.2-0.3c0.1-0.1,0.2-0.1,0.1,0.1c-0.1,0.1-0.2,0.3-0.2,0.3
				C-246.3,387.7-246.4,387.7-246.4,387.6L-246.4,387.6z"/>
		</g>
		<g>
			<path d="M-246,387.5c0-0.1,0.1-0.2,0.1-0.3c0-0.1,0.2-0.1,0.1,0.1C-245.8,387.5-245.9,387.6-246,387.5
				C-246,387.7-246.1,387.7-246,387.5L-246,387.5z"/>
		</g>
		<g>
			<path d="M-245.7,387.5c0.1-0.1,0.1-0.1,0.2-0.2s0.2,0,0.1,0.1C-245.5,387.4-245.6,387.5-245.7,387.5
				C-245.7,387.6-245.8,387.6-245.7,387.5L-245.7,387.5z"/>
		</g>
		<g>
			<path d="M-247.4,390c0.3-0.5,0.6-1,1-1.2c0.2-0.1,0.2-0.2,0-0.1c-0.3,0.1-0.4,0.1-0.3-0.1c0.1-0.2,0.2-0.4,0.2-0.5
				c0.1-0.1,0-0.2-0.1,0c-0.2,0.3-0.4,0.5-0.5,0.6c-0.1,0.1-0.2,0.1-0.2,0c0-0.1-0.1-0.2-0.1-0.2c0-0.1-0.1-0.1-0.1,0.1
				c0,0.6,0,1.1-0.1,1.5C-247.6,390.1-247.5,390-247.4,390L-247.4,390z"/>
		</g>
		<g>
			<path d="M-249.7,389.5c0.2-0.6,0.4-0.9,0.6-1.2c0.1-0.1,0.2-0.2,0.3-0.3c0-0.1,0-0.1-0.1-0.1c-0.1,0-0.2,0.1-0.3,0.2
				c-0.1,0-0.2,0-0.1-0.2c0-0.2,0.1-0.4,0.1-0.5c0-0.1,0-0.1-0.1,0c-0.1,0.1-0.2,0.5-0.3,0.7c-0.1,0.1-0.2,0-0.2-0.1
				c0-0.1-0.1-0.2-0.1-0.3c-0.1-0.1-0.1,0-0.1,0.2c0.1,0.4,0.2,1,0.2,1.1C-249.8,389.2-249.8,389.4-249.7,389.5
				C-249.8,389.6-249.7,389.6-249.7,389.5L-249.7,389.5z"/>
		</g>
		<g>
			<path d="M-252.7,389.3c0.1-0.8,0.3-1.2,0.6-1.9c0.1-0.2,0-0.2-0.1-0.1c-0.2,0.2-0.3,0.3-0.4,0.1c-0.1-0.2-0.1-0.3-0.1-0.5
				s-0.1-0.2-0.1,0c0,0.2-0.1,0.4-0.2,0.5c-0.1,0.1-0.2,0.1-0.3,0c-0.1-0.1-0.2-0.1-0.3-0.2c-0.1-0.1-0.2,0-0.1,0.1
				c0.4,0.5,0.7,1,0.7,1.8C-252.8,389.5-252.7,389.5-252.7,389.3L-252.7,389.3z"/>
		</g>
		<g>
			<path d="M-255.6,389.5c-0.1-0.7-0.1-1.2,0-1.6c0.1-0.1,0-0.3-0.1,0c-0.1,0.1-0.2,0.2-0.3,0.1c-0.1-0.1-0.3-0.5-0.3-0.6
				s-0.1-0.1-0.1,0c0.1,0.4,0.1,0.6,0.1,0.7c0,0.1-0.1,0.1-0.1,0.1c-0.1,0-0.2-0.1-0.2-0.1c-0.1,0-0.1,0,0,0.1
				C-256.2,388.5-255.9,388.9-255.6,389.5C-255.7,389.6-255.6,389.6-255.6,389.5L-255.6,389.5z"/>
		</g>
		<g>
			<path d="M-257.9,389.7c-0.2-0.4-0.2-0.8-0.2-1c0-0.2,0.1-0.4,0.1-0.5c0-0.1-0.1-0.1-0.1,0c0,0.1-0.1,0.2-0.1,0.2
				c0,0-0.1,0.1-0.2-0.1s-0.3-0.4-0.4-0.5c-0.1-0.1-0.2-0.1-0.1,0.1c0.1,0.2,0.2,0.4,0.3,0.5c0,0.1,0,0.1-0.1,0.1
				c-0.1,0-0.2-0.1-0.3-0.1c-0.1,0-0.1,0-0.1,0.1c0.5,0.3,0.9,0.7,1.1,1.1C-258,389.8-257.9,389.8-257.9,389.7L-257.9,389.7z"/>
		</g>
	</g>
</g>
</svg>
