<?xml version="1.0" encoding="utf-8"?>
<!-- Generator: Adobe Illustrator 19.0.0, SVG Export Plug-In . SVG Version: 6.00 Build 0)  -->
<svg version="1.1" id="Layer_1" xmlns="http://www.w3.org/2000/svg" xmlns:xlink="http://www.w3.org/1999/xlink" x="0px" y="0px"
	 viewBox="-269 374 72 46" style="enable-background:new -269 374 72 46;" xml:space="preserve">
<style type="text/css">
	.st0{clip-path:url(#SVGID_2_);}
	.st1{fill:#FFE000;}
	.st2{fill:none;stroke:#000000;stroke-width:0.25;}
	.st3{fill:#00634E;}
	.st4{fill:#F07D1B;}
	.st5{fill:#AB273B;}
</style>
<g>
	<defs>
		<path id="SVGID_1_" d="M-204,420H-262c-3.8,0-7-3.1-7-7V381c0-3.8,3.1-7,7-7h58.1c3.8,0,7,3.1,7,7V413
			C-197,416.9-200.1,420-204,420z"/>
	</defs>
	<clipPath id="SVGID_2_">
		<use xlink:href="#SVGID_1_"  style="overflow:visible;"/>
	</clipPath>
	<g class="st0">
		<g>
			<polygon class="st1" points="-185.8,420.9 -185.8,373.1 -281.2,373.1 -281.2,420.9 			"/>
		</g>
		<g>
			<path d="M-185.6,421h-95.7v-48h95.7V421z M-281.1,420.7h95.2v-47.5h-95.2V420.7z"/>
		</g>
		<g>
			<path class="st1" d="M-233.5,397"/>
		</g>
		<g>
			<path class="st2" d="M-233.5,397"/>
		</g>
		<g>
			<polygon class="st3" points="-264.5,417.1 -264.5,376.9 -277.4,376.9 -277.4,417.1 			"/>
		</g>
		<g>
			<path d="M-264.4,417.2h-13.2v-40.4h13.2V417.2z M-277.3,416.9h12.7V377h-12.7V416.9z"/>
		</g>
		<g>
			<polygon class="st4" points="-264.5,417.1 -264.5,376.9 -251.6,376.9 -251.6,417.1 			"/>
		</g>
		<g>
			<path d="M-251.5,417.2h-13.2v-40.4h13.2V417.2z M-264.4,416.9h12.7V377h-12.7V416.9z"/>
		</g>
		<g>
			<polygon class="st5" points="-247.8,417.1 -247.8,376.9 -189.6,376.9 -189.6,417.1 			"/>
		</g>
		<g>
			<path d="M-189.5,417.2h-58.4v-40.4h58.4V417.2z M-247.6,416.9h57.9V377h-57.9V416.9z"/>
		</g>
		<g>
			<path class="st1" d="M-216.4,394.7c1.6-0.3,4.2,0.4,6.2-0.2c1.8-0.5,3.8,0.3,5.4-0.3c0.8-0.3,2.4-0.3,2.5-2.1
				c0.1-1.3-1.2-2.1-3.8-1.5c-2.6,0.6-5.2,0.6-6.7-0.3c-1.5-0.9-1.7,0.6-1.5,1.1c-1.4-1.1-1-2.1-0.4-2.7c-3-3.3,0.5-6,3.7-6
				c3.1,0,4.5,1,6.9,2.8c0.7,0.5,2.2,2.2,2.7,1.9c-0.5-1.1,1.2-1.8,1.5-0.4c0.3,1-0.5,1.9-1.7,1.7c-1.9-0.4-1.6-1.3-3.7-2.6
				c0.5,0.4-0.1,1.3,1,1.7c-1,0.1-2.1-0.6-2.5-1.6c-0.1,1.1-0.9,1.6-1.8,1.4c1.3-1.5,0.5-2.7-0.8-3.1c1.1,1.5-0.1,3.1-1.7,3.1
				c1.3-1.3,0.7-2.6-0.5-3.2c-0.4-0.2-1-0.2-0.7,0.1c0.3,0.3,0,1.2-0.5,1.4c0-1.1-1.5-0.8-1.8,0c-0.2,0.6-0.2,1.2,0.7,1.8
				c0.6-1.4,2.4-1.1,2.4-0.4c-1.5,0.3-1.2,1.5-0.6,2.1c0-0.6,0.7-1.1,1.1-0.9c-0.3,1.5,1.9,1.4,3.4,1.3c1.6-0.2,3.5-0.8,5.2,0.1
				c1.7,0.9,2.3,3.8-0.1,5.2c2.4,2.8,1.4,5.8,0.3,8.8c-1,2.9,0.1,4.7,0.7,4.7c0.4,0,0.7,0.1,0.5,0.6c-0.3,1-1.6,1-1.6,2.2
				c-0.1,1.2,1.4,1.8,0.8,2.4c-1,0-1.2-0.2-1.5-0.6c-0.2,0.4-0.3,0.6-0.8,0.6c-0.5,0-0.7-0.2-0.9-0.6c-0.3,0.4-0.5,0.6-0.9,0.6
				c-0.5,0-0.6-0.2-0.7-0.6c-0.3,0.4-0.6,0.6-1.1,0.6c0-1.5,1.7-1.8,2.3-1.9c0.6-0.1,0.8-0.5,0.8-0.8c0-0.4,0-1.2-0.1-1.9
				c-0.1-1.1-1.4-1.7-2.6-2.5c-0.3,0.6-1,0.9-0.5,1.7c0.4,0.6,1.2,0.4,1.3,0.1c0.5,1.4-1.9,1.8-1.2,3.7c0.3,0.7,0.2,1-0.1,1.7
				c-0.8,0-1.1-0.1-1.4-0.5c-0.2,0.4-0.2,0.6-0.9,0.6c-0.6,0-0.6-0.4-0.7-0.6c-0.2,0.3-0.2,0.6-0.8,0.6c-0.5,0-0.6-0.2-0.8-0.6
				c-0.3,0.4-0.8,0.6-1.2,0.6c0-1.1,0.8-1.7,1.8-1.6c0.9,0.1,1.4-0.2,1.5-0.7c0.2-0.5-0.1-1.1,0-2.1c0.3-2-2.9-3.5-2.3-5.9
				c-3.3,0-5.7,2.2-7.8,2.7c-0.4,0.7-0.8,1.4-1,1.7c-0.7,1.2,0.8,1.6,1.6,1.4c-0.2,1-1,1.6-1.8,1.7c-0.7,0.1-0.8,0.5-0.5,1
				c0.3,0.5,0.2,0.9-0.4,1.8c-1.2,0-1.3-0.3-1.4-0.5c-0.2,0.2-0.3,0.5-0.9,0.5c-0.7,0-0.7-0.1-1-0.5c-0.3,0.3-0.3,0.5-0.9,0.5
				c-0.5,0-0.6-0.1-0.8-0.5c-0.2,0.3-0.4,0.5-1,0.5c0.6-3.7,2.8-0.5,4.1-2.8c0.5-1-0.2-2.4-0.6-4c-0.9-0.4-1.7-0.8-2.3-1.3
				c-2.2,3-3.3,0.5-4-0.1c-0.8-0.7-1.1,0-0.9,0.4c-0.4-0.5-0.7-0.8-0.5-1.9c0.2-1.1-0.4-1.3-1.6-1.4c-1.2-0.1-1.2-1.6-1.2-3
				c-0.1-1.4,2.1-1,2.3-0.8c1.1,1.1,2.6,2.5,3.6,3.6c-0.8-2.9,0.8-6,3.5-7.5c0.9-0.5,1.1-1.1,0.6-1.4c-0.3-0.2-0.9,0.4-0.8,0.8
				c-0.9-0.4-0.6-1.1-1-1.4c0.1,0.3-0.2,0.8-0.1,1.1c-0.1-0.4-0.6-0.2-0.8-1c-0.5,0.4-1,0.5-1.5,0.4c0.6-0.3,0.3-0.7,0.6-0.8
				c-0.7,0.4-1.6,0.2-1.9,0.4c0.6-0.4,0.3-1.6,1-2.2c-0.3-0.2-0.5-0.4-0.6-0.6c-0.2-0.5,0-0.9,1-0.3c1,0.6,2.5,1.1,4.1,1.2
				c-0.5-0.8-1.2-1.2-1.3-2c-0.2,0.4-0.2,0.7-0.1,1.1c-0.2-0.4-0.8-0.3-1.2-1.1c0.1,0.3,0,0.6,0.2,0.9c-1.2-0.4-0.9-0.9-1.8-1.6
				c-1.1-0.9-0.7-1.3-1-1.8c-0.3-0.4-0.3-1.5,0.8-1.7c0.9-0.2,1.4,1,0.9,1.4c0.4-0.3,1.2-0.1,1.8-0.4c0.8-0.4,1.4,0.3,2.3-0.9
				c0.3-0.4-0.2-0.7,0-1c0.1,0.4,1.7-0.4,2.3,0.5c0.6,0.8,1-0.4,0.5-1.1c0.4,0.4,1.4,0,2.2,1.5c0-0.4,0.6-0.8,0.3-1.3
				c0.9,0.2,1.5,0.6,1.8,1c0.3,0.5,1.4,0.4,1.8-0.7c0.1,1-0.2,1.7-1,2.6c0.8,0.8,0.7,2.1,0.6,2.8c0,0,0,0,0,0
				c0.2,0.6-0.2,1.8-0.1,2.3c0-0.1-0.1-0.3-0.3-0.4c-0.1,1.1,0.6,1.5,0.3,2.3c0.1-0.2-0.3-0.5-0.7-0.8c-0.1,0.8,0.3,1.7,0.7,1.8
				c-0.1,0-0.2,0.1-0.3,0.1C-216.6,394.5-216.5,394.6-216.4,394.7L-216.4,394.7z"/>
		</g>
		<g>
			<path d="M-210.1,413.7c-0.5,0-0.6-0.3-0.7-0.6c0,0,0,0,0,0c-0.1,0.3-0.2,0.4-0.8,0.4c-0.5,0-0.6-0.2-0.8-0.5
				c-0.3,0.3-0.7,0.5-1.1,0.5c0,0,0,0-0.1,0l-0.1,0v-0.1c0-0.5,0.2-1,0.5-1.3c0.3-0.3,0.8-0.4,1.3-0.4c0.8,0.1,1.3-0.1,1.5-0.7
				c0.1-0.3,0-0.5,0-0.8c0-0.3-0.1-0.7,0-1.2c0.1-0.9-0.5-1.7-1.1-2.5c-0.7-1-1.5-2-1.2-3.3c-2,0-3.7,0.9-5.2,1.6
				c-0.9,0.4-1.7,0.9-2.5,1c-0.2,0.5-0.5,0.9-0.7,1.2c-0.1,0.2-0.2,0.4-0.3,0.5c-0.2,0.4-0.2,0.7,0,0.9c0.3,0.4,1,0.5,1.6,0.3l0.1,0
				l0,0.1c-0.3,1.1-1.1,1.7-1.8,1.8c-0.3,0.1-0.5,0.2-0.6,0.3c-0.1,0.1,0,0.4,0.1,0.6c0.3,0.5,0.2,0.9-0.5,1.8l0,0h0
				c-1.2,0-1.3-0.2-1.4-0.4c0,0,0,0.1-0.1,0.1c-0.1,0.2-0.3,0.4-0.8,0.4c-0.6,0-0.7-0.1-1-0.4l0,0c0,0,0,0-0.1,0.1
				c-0.2,0.2-0.3,0.4-0.8,0.4c-0.5,0-0.6-0.1-0.8-0.4c-0.2,0.3-0.4,0.4-1,0.4h-0.1l0-0.1c0.4-2.1,1.3-2,2.1-2
				c0.7,0.1,1.4,0.1,1.9-0.9c0.4-0.8,0.1-1.8-0.3-3c-0.1-0.3-0.2-0.6-0.3-0.9c-0.8-0.4-1.6-0.8-2.2-1.3c-0.7,0.9-1.3,1.4-1.9,1.4
				c0,0,0,0,0,0c-0.7,0-1.3-0.7-1.7-1.1c-0.1-0.2-0.3-0.3-0.4-0.4c-0.3-0.2-0.5-0.3-0.7-0.2c-0.2,0.1-0.2,0.4-0.2,0.6l-0.1,0.1
				c-0.5-0.5-0.7-0.9-0.5-1.9c0.1-0.4,0-0.7-0.1-0.9c-0.2-0.3-0.7-0.4-1.4-0.5c-1.2-0.1-1.2-1.6-1.3-3l0-0.1c0-0.4,0.2-0.8,0.6-0.9
				c0.7-0.3,1.7-0.1,1.9,0.1c0.3,0.3,0.6,0.6,0.9,0.9c0.8,0.8,1.7,1.7,2.5,2.5c-0.7-2.7,0.8-5.8,3.6-7.3c0.5-0.3,0.8-0.6,0.8-0.9
				c0-0.2-0.1-0.3-0.2-0.4c-0.1-0.1-0.2,0-0.4,0.1c-0.2,0.2-0.4,0.5-0.3,0.7l0.1,0.1l-0.1-0.1c-0.6-0.3-0.7-0.7-0.8-1
				c0-0.1-0.1-0.2-0.1-0.3c0,0.1,0,0.2-0.1,0.4c0,0.2-0.1,0.4,0,0.5l-0.1,0c0-0.1-0.1-0.2-0.2-0.3c-0.2-0.1-0.4-0.3-0.5-0.7
				c-0.4,0.3-0.9,0.4-1.5,0.4l-0.2,0l0.2-0.1c0.4-0.1,0.4-0.3,0.4-0.5c0,0,0-0.1,0-0.1c-0.4,0.2-0.8,0.2-1.1,0.2
				c-0.3,0-0.5,0-0.7,0.1l-0.1-0.1c0.2-0.2,0.3-0.5,0.4-0.9c0.1-0.4,0.2-0.9,0.5-1.2c-0.3-0.2-0.4-0.4-0.5-0.6
				c-0.1-0.3-0.1-0.5,0-0.6c0.2-0.1,0.5-0.1,1,0.2c1.1,0.7,2.6,1.1,4,1.2c-0.2-0.2-0.3-0.4-0.5-0.6c-0.3-0.3-0.6-0.7-0.7-1.1
				c-0.1,0.3-0.1,0.6,0,0.9l-0.1,0c-0.1-0.2-0.2-0.2-0.4-0.3c-0.2-0.1-0.4-0.2-0.6-0.5c0,0,0,0.1,0,0.1c0,0.2,0,0.3,0.1,0.4l0.1,0.2
				l-0.2-0.1c-0.7-0.3-0.9-0.5-1.2-0.9c-0.2-0.2-0.3-0.5-0.7-0.8c-0.8-0.6-0.8-1-0.9-1.4c0-0.1,0-0.3-0.1-0.4
				c-0.2-0.3-0.2-0.8,0-1.2c0.1-0.2,0.3-0.5,0.9-0.6c0.4-0.1,0.8,0.1,1,0.6c0.1,0.3,0.1,0.6,0,0.8c0.2-0.1,0.4-0.1,0.6-0.1
				c0.3,0,0.6,0,0.9-0.2c0.3-0.2,0.6-0.2,0.9-0.2c0.4,0,0.8,0,1.4-0.7c0.2-0.2,0.1-0.4,0-0.6c-0.1-0.1-0.1-0.3-0.1-0.4l0.1-0.2
				l0,0.2c0,0.1,0.3,0.1,0.6,0c0.6-0.1,1.3-0.1,1.8,0.4c0.1,0.1,0.3,0.3,0.4,0.2c0.2-0.2,0.3-0.8,0-1.3l0.1-0.1
				c0.1,0.1,0.3,0.2,0.6,0.2c0.5,0.1,1,0.2,1.6,1.1c0-0.1,0.1-0.2,0.2-0.3c0.1-0.2,0.3-0.5,0.1-0.8l-0.1-0.1l0.1,0
				c0.9,0.3,1.5,0.6,1.8,1c0.1,0.2,0.3,0.3,0.5,0.3c0,0,0,0,0.1,0c0.3,0,0.8-0.3,1.1-1l0.1-0.2l0,0.2c0.2,1.1-0.3,1.8-1,2.6
				c0.8,0.8,0.7,2,0.6,2.8l0,0l0,0c0.1,0.4,0,0.9,0,1.3c0,0.4-0.1,0.7,0,0.9c0,0,0,0,0,0l-0.1,0c0,0,0,0,0,0c0-0.1-0.1-0.2-0.2-0.3
				c0,0.5,0.1,0.8,0.2,1.1c0.1,0.3,0.3,0.7,0.1,1.1l-0.1,0c0-0.2-0.2-0.4-0.6-0.6c-0.1,0.5,0.1,1,0.3,1.3c0.1,0.2,0.2,0.2,0.3,0.3
				l0,0.1c-0.1,0-0.1,0-0.2,0.1c0,0.1,0.1,0.2,0.1,0.2c0.7-0.1,1.5-0.1,2.4,0c1.2,0.1,2.6,0.2,3.7-0.2c0.9-0.2,1.8-0.2,2.7-0.1
				c1,0.1,1.9,0.1,2.6-0.2c0.1-0.1,0.3-0.1,0.5-0.1c0.8-0.2,1.9-0.5,1.9-1.9c0-0.5-0.1-0.9-0.5-1.2c-0.6-0.5-1.8-0.6-3.3-0.3
				c-2.9,0.6-5.3,0.5-6.7-0.3c-0.5-0.3-0.9-0.4-1.2-0.1c-0.3,0.3-0.3,0.9-0.2,1.2l0.1,0.2l-0.2-0.1c-0.6-0.5-0.9-0.9-0.9-1.4
				c0-0.4,0.1-0.9,0.5-1.3c-1.4-1.5-1.2-2.8-0.9-3.6c0.6-1.4,2.6-2.5,4.7-2.5c3.2,0,4.6,1.1,7,2.8c0.2,0.1,0.5,0.4,0.7,0.6
				c0.6,0.5,1.4,1.3,1.8,1.3c0,0,0,0,0.1,0c-0.1-0.3-0.1-0.7,0.1-0.9c0.2-0.2,0.5-0.4,0.8-0.3c0.4,0.1,0.6,0.4,0.8,0.8
				c0.1,0.5,0,1-0.3,1.3c-0.4,0.4-0.9,0.5-1.5,0.4c-1.1-0.2-1.5-0.6-2-1.2c-0.3-0.4-0.8-0.8-1.5-1.3c0,0.1,0,0.2,0.1,0.4
				c0,0.4,0.1,0.8,0.8,1.1l0,0.1c-1,0.1-2-0.5-2.4-1.4c-0.1,0.4-0.3,0.8-0.6,1c-0.3,0.2-0.8,0.3-1.2,0.3l-0.1,0l0.1-0.1
				c0.5-0.6,0.7-1.3,0.6-1.8c-0.1-0.5-0.6-0.9-1.2-1.1c0.4,0.6,0.5,1.3,0.2,1.9c-0.3,0.7-1.1,1.1-2,1.1h-0.1l0.1-0.1
				c0.5-0.6,0.8-1.2,0.7-1.7c-0.1-0.6-0.5-1-1.2-1.4c-0.3-0.2-0.6-0.2-0.7-0.1l0,0c0,0,0,0,0.1,0.1c0.1,0.1,0.2,0.4,0.1,0.7
				c-0.1,0.3-0.3,0.7-0.6,0.8l-0.1,0l0-0.1c0-0.3-0.2-0.6-0.5-0.6c-0.4-0.1-1.1,0.2-1.2,0.6c-0.3,0.7-0.1,1.2,0.6,1.7
				c0.4-0.8,1.2-1,1.9-0.9c0.4,0.1,0.6,0.3,0.6,0.6l0,0.1l0,0c-0.6,0.1-0.9,0.3-1,0.7c-0.1,0.4,0.1,0.9,0.4,1.2
				c0.1-0.3,0.3-0.6,0.6-0.7c0.2-0.1,0.5-0.2,0.6-0.1l0,0l0,0c-0.1,0.3,0,0.6,0.2,0.8c0.4,0.5,1.4,0.6,3.2,0.4c0.3,0,0.7-0.1,1-0.2
				c1.3-0.2,2.8-0.5,4.2,0.2c0.9,0.5,1.5,1.4,1.5,2.5c0,1.1-0.5,2.1-1.6,2.7c2.4,2.9,1.3,5.9,0.3,8.8c-0.7,2-0.4,3.6,0.1,4.3
				c0.2,0.2,0.4,0.4,0.5,0.4c0.3,0,0.5,0.1,0.6,0.2c0.1,0.1,0.1,0.3,0,0.5c-0.2,0.5-0.5,0.7-0.8,1c-0.4,0.3-0.8,0.6-0.8,1.2
				c0,0.6,0.3,1,0.6,1.4c0.3,0.4,0.5,0.7,0.2,1.1l0,0h0c-1,0-1.2-0.1-1.5-0.5c0,0,0,0,0,0c-0.2,0.3-0.3,0.5-0.7,0.5
				c-0.5,0-0.7-0.1-0.9-0.5c-0.2,0.4-0.5,0.5-0.9,0.5c-0.5,0-0.6-0.2-0.7-0.5c-0.3,0.3-0.6,0.5-1.1,0.5h-0.1v-0.1c0,0,0,0,0,0
				c0,0,0,0,0,0l0,0h0c-0.8,0-1.1-0.1-1.4-0.4c0,0,0,0,0,0.1C-209.4,413.6-209.5,413.7-210.1,413.7z M-210.8,412.9l0,0.1
				c0,0,0,0.1,0,0.1c0.1,0.2,0.2,0.5,0.6,0.5c0.5,0,0.6-0.1,0.7-0.4c0,0,0-0.1,0.1-0.1l0-0.1l0.1,0.1c0.3,0.4,0.6,0.5,1.3,0.5
				c0.1-0.1,0.1-0.3,0.2-0.4c0-0.1,0-0.1,0.1-0.2c0.1-0.3,0.1-0.6-0.1-1c-0.4-1,0.1-1.7,0.6-2.2c0.4-0.4,0.7-0.8,0.6-1.3
				c-0.1,0.1-0.2,0.2-0.4,0.2c-0.3,0-0.7,0-0.9-0.4c-0.4-0.6-0.1-1,0.2-1.4c0.1-0.1,0.2-0.3,0.3-0.4l0-0.1l0.1,0
				c0.2,0.1,0.4,0.2,0.6,0.3c1.1,0.7,2,1.3,2.1,2.2c0.1,0.7,0.1,1.5,0.1,1.9c0,0.5-0.3,0.8-0.8,0.9l0,0c-0.5,0.1-1.8,0.3-2.1,1.3
				c0,0,0,0.1,0,0.1c0,0.1-0.1,0.3-0.1,0.4c0.4,0,0.7-0.2,1-0.5l0.1-0.1l0,0.1c0.1,0.3,0.2,0.5,0.6,0.5c0.4,0,0.6-0.1,0.8-0.5
				l0.1-0.1l0,0.1c0.2,0.4,0.4,0.5,0.9,0.5c0.4,0,0.5-0.1,0.6-0.4c0,0,0-0.1,0.1-0.1l0-0.1l0.1,0.1c0.3,0.4,0.4,0.5,1.4,0.5
				c0.2-0.3,0.1-0.5-0.2-0.9c-0.3-0.4-0.6-0.8-0.6-1.5c0-0.7,0.4-1,0.8-1.3c0.3-0.2,0.6-0.5,0.8-0.9c0.1-0.2,0.1-0.3,0-0.4
				c-0.1-0.1-0.2-0.1-0.5-0.1c-0.2,0-0.4-0.2-0.6-0.4c-0.5-0.7-0.9-2.3-0.1-4.4c1-2.9,2.1-5.9-0.3-8.7l0-0.1l0.1,0
				c1-0.6,1.6-1.6,1.6-2.6c0-1-0.6-2-1.5-2.4c-1.3-0.7-2.8-0.4-4.1-0.2c-0.4,0.1-0.7,0.1-1.1,0.2c-1.1,0.1-2.7,0.2-3.3-0.4
				c-0.2-0.2-0.3-0.5-0.2-0.9c-0.1,0-0.3,0-0.5,0.1c-0.2,0.1-0.5,0.4-0.5,0.8l0,0.1l-0.1-0.1c-0.3-0.3-0.6-0.9-0.5-1.4
				c0.1-0.3,0.3-0.6,1.1-0.8c0-0.2-0.2-0.3-0.5-0.4c-0.5-0.1-1.4,0-1.7,0.9l0,0.1l-0.1,0c-0.8-0.5-1-1.1-0.7-1.8
				c0.2-0.5,0.9-0.8,1.4-0.7c0.3,0.1,0.5,0.3,0.6,0.7c0.2-0.1,0.4-0.4,0.5-0.6c0.1-0.3,0.1-0.5,0-0.6c-0.1-0.1-0.1-0.2-0.1-0.2
				c0.1-0.2,0.6,0,0.8,0.1c0.7,0.3,1.1,0.9,1.2,1.4c0.1,0.6-0.1,1.2-0.6,1.7c0.8,0,1.4-0.5,1.7-1.1c0.3-0.6,0.2-1.3-0.3-1.9
				l-0.1-0.2l0.2,0.1c0.8,0.2,1.3,0.7,1.5,1.3c0.2,0.6,0,1.2-0.5,1.8c0.4,0,0.7,0,1-0.3c0.3-0.2,0.5-0.6,0.6-1.2l0.1,0
				c0.3,0.9,1.2,1.5,2.1,1.5c-0.5-0.3-0.6-0.7-0.6-1.1c0-0.2,0-0.4-0.2-0.5l0.1-0.1c0.9,0.6,1.4,1.1,1.7,1.5c0.5,0.5,0.9,0.9,2,1.1
				c0.6,0.1,1.1,0,1.4-0.4c0.3-0.3,0.4-0.8,0.2-1.2c-0.2-0.5-0.5-0.7-0.7-0.7c-0.3,0-0.6,0.1-0.7,0.3c-0.2,0.2-0.2,0.5-0.1,0.8
				l0,0.1l0,0c-0.4,0.2-1.3-0.6-2.1-1.3c-0.3-0.2-0.5-0.5-0.7-0.6c-2.4-1.7-3.8-2.8-6.9-2.8c-2,0-3.9,1.1-4.6,2.4
				c-0.5,1.1-0.2,2.3,0.9,3.5l0,0l0,0c-0.4,0.4-0.5,0.8-0.5,1.2c0,0.4,0.3,0.8,0.8,1.2c-0.1-0.4,0-0.9,0.3-1.1
				c0.2-0.2,0.6-0.3,1.3,0.1c1.4,0.8,3.8,0.9,6.6,0.3c1.5-0.3,2.7-0.2,3.4,0.3c0.4,0.3,0.5,0.7,0.5,1.3c-0.1,1.5-1.2,1.8-2,2
				c-0.2,0-0.3,0.1-0.5,0.1c-0.8,0.3-1.7,0.2-2.7,0.2c-0.9-0.1-1.8-0.1-2.7,0.1c-1.2,0.3-2.5,0.2-3.7,0.2c-0.9-0.1-1.8-0.1-2.4,0
				l0,0l0,0c-0.1-0.1-0.2-0.2-0.2-0.4l0-0.1l0.1,0c0,0,0.1,0,0.1,0c-0.1-0.1-0.2-0.1-0.2-0.2c-0.2-0.3-0.4-0.9-0.4-1.5l0-0.1
				l0.1,0.1c0.3,0.2,0.5,0.4,0.6,0.5c0-0.3-0.1-0.5-0.2-0.8c-0.1-0.3-0.3-0.7-0.2-1.3l0-0.1l0.1,0.1c0.1,0.1,0.1,0.1,0.2,0.2
				c0-0.2,0-0.4,0.1-0.7c0.1-0.5,0.1-1,0-1.3l0-0.1l0,0c0.2-0.9,0.2-2-0.6-2.7l0,0l0,0c0.7-0.7,1.1-1.4,1-2.3
				c-0.3,0.6-0.8,0.8-1.1,0.8c-0.3,0-0.6-0.1-0.7-0.3c-0.2-0.3-0.8-0.7-1.6-0.9c0.1,0.3-0.1,0.6-0.2,0.8c-0.1,0.1-0.2,0.3-0.2,0.4
				l-0.1,0c-0.5-1-1.1-1.1-1.6-1.2c-0.2,0-0.3-0.1-0.4-0.1c0.2,0.5,0.1,1-0.1,1.2c-0.1,0.1-0.3,0.2-0.6-0.2
				c-0.4-0.5-1.1-0.4-1.6-0.4c-0.3,0-0.5,0.1-0.6,0c0,0.1,0,0.1,0.1,0.2c0.1,0.2,0.2,0.4,0,0.7c-0.6,0.8-1,0.8-1.5,0.7
				c-0.3,0-0.5,0-0.8,0.1c-0.3,0.2-0.6,0.2-1,0.2c-0.3,0-0.6,0-0.8,0.2l-0.1-0.1c0.2-0.2,0.2-0.6,0.1-0.9c-0.1-0.3-0.5-0.6-0.9-0.5
				c-0.4,0.1-0.6,0.3-0.8,0.5c-0.2,0.4-0.1,0.8,0,1.1c0.1,0.2,0.1,0.3,0.1,0.5c0,0.3,0.1,0.7,0.8,1.3c0.4,0.3,0.6,0.6,0.7,0.8
				c0.2,0.3,0.4,0.6,1,0.8c0-0.1,0-0.2,0-0.4c0-0.1,0-0.3-0.1-0.4l0.1-0.1c0.2,0.4,0.5,0.6,0.7,0.7c0.1,0,0.2,0.1,0.2,0.1
				c-0.1-0.3,0-0.6,0.1-0.9l0.1-0.2l0,0.2c0.1,0.5,0.4,0.9,0.7,1.3c0.2,0.2,0.4,0.5,0.6,0.8l0.1,0.1l-0.1,0c-1.4-0.1-3-0.5-4.1-1.2
				c-0.6-0.4-0.8-0.3-0.9-0.3c-0.1,0.1-0.1,0.2,0,0.5c0.1,0.2,0.3,0.4,0.5,0.6l0.1,0l-0.1,0.1c-0.4,0.3-0.4,0.8-0.5,1.2
				c-0.1,0.3-0.1,0.6-0.3,0.8c0.1,0,0.3,0,0.5,0c0.4,0,0.8,0,1.2-0.3c0,0,0,0,0,0l0.1,0.1c0,0,0,0,0,0c-0.1,0-0.1,0.1-0.1,0.2
				c0,0.2-0.1,0.4-0.3,0.5c0.5,0,0.9-0.1,1.2-0.4l0.1-0.1l0,0.1c0.1,0.5,0.3,0.6,0.5,0.7c0.1,0,0.1,0.1,0.2,0.1c0-0.1,0-0.2,0.1-0.3
				c0-0.2,0.1-0.4,0.1-0.5l0-0.2l0.1,0.1c0.2,0.1,0.2,0.3,0.3,0.5c0.1,0.3,0.2,0.6,0.6,0.8c0-0.2,0.2-0.5,0.4-0.7
				c0.2-0.2,0.4-0.2,0.5-0.1c0.2,0.1,0.3,0.3,0.3,0.5c0,0.3-0.3,0.7-0.9,1c-2.8,1.5-4.2,4.7-3.5,7.4l-0.1,0.1
				c-0.7-0.8-1.7-1.8-2.6-2.7c-0.3-0.3-0.6-0.6-0.9-0.9c-0.1-0.1-1.1-0.3-1.7-0.1c-0.3,0.1-0.5,0.4-0.5,0.8l0,0.1
				c0.1,1.3,0.1,2.7,1.2,2.9c0.7,0.1,1.2,0.2,1.5,0.5c0.2,0.2,0.2,0.5,0.2,1c-0.1,0.9,0,1.3,0.3,1.7c0-0.2,0.1-0.4,0.2-0.5
				c0.1-0.1,0.4-0.1,0.8,0.2c0.1,0.1,0.3,0.3,0.4,0.5c0.4,0.5,0.9,1.1,1.6,1.1c0,0,0,0,0,0c0.6,0,1.2-0.5,1.9-1.4l0-0.1l0.1,0
				c0.6,0.5,1.4,0.9,2.3,1.3l0,0l0,0c0.1,0.3,0.2,0.7,0.3,1c0.4,1.2,0.8,2.3,0.3,3.1c-0.6,1.1-1.4,1-2.1,0.9c-0.9-0.1-1.6-0.1-2,1.8
				c0.6,0,0.7-0.2,0.9-0.4l0.1-0.1l0.1,0.1c0.2,0.3,0.2,0.4,0.7,0.4c0.4,0,0.5-0.1,0.7-0.3c0,0,0.1-0.1,0.1-0.1l0.1-0.1l0.1,0.1
				c0.2,0.3,0.3,0.4,0.9,0.4c0.4,0,0.5-0.2,0.7-0.3c0-0.1,0.1-0.1,0.1-0.1l0.1,0l0,0.1c0,0,0,0,0,0.1c0.1,0.2,0.2,0.4,1.3,0.4
				c0.6-0.8,0.7-1.2,0.4-1.7c-0.2-0.3-0.2-0.6-0.1-0.8c0.1-0.2,0.3-0.3,0.6-0.4c0.6-0.1,1.4-0.6,1.7-1.6c-0.5,0.1-1.3,0-1.6-0.4
				c-0.1-0.2-0.3-0.5,0-1.1c0.1-0.1,0.2-0.3,0.3-0.5c0.2-0.3,0.4-0.8,0.7-1.2l0,0l0,0c0.8-0.2,1.6-0.6,2.5-1
				c1.5-0.8,3.2-1.6,5.3-1.6h0.1l0,0.1c-0.3,1.3,0.5,2.3,1.2,3.3c0.7,0.9,1.3,1.7,1.1,2.6c-0.1,0.5,0,0.9,0,1.2c0,0.3,0.1,0.6,0,0.9
				c-0.2,0.6-0.7,0.9-1.6,0.8c-0.4-0.1-0.9,0.1-1.2,0.3c-0.3,0.3-0.5,0.7-0.5,1.2c0,0,0,0,0,0c0.5,0,0.8-0.2,1.1-0.5l0.1-0.1
				l0.1,0.2c0.2,0.3,0.2,0.5,0.7,0.5c0.4,0,0.5-0.1,0.7-0.4c0,0,0.1-0.1,0.1-0.2L-210.8,412.9z M-206.5,408l0.1,0.2
				c0.3,0.7-0.2,1.1-0.6,1.6c-0.5,0.5-1,1.1-0.6,2.1c0.1,0.3,0.2,0.5,0.2,0.8c0.5-0.7,1.6-0.9,2.1-1l0,0c0.5-0.1,0.7-0.3,0.7-0.8
				c0-0.4,0-1.2-0.1-1.9c-0.1-0.9-1-1.5-2.1-2.1c-0.2-0.1-0.3-0.2-0.5-0.3c-0.1,0.1-0.2,0.3-0.3,0.4c-0.3,0.4-0.5,0.7-0.2,1.2
				c0.2,0.3,0.5,0.4,0.8,0.3c0.2,0,0.3-0.1,0.4-0.2L-206.5,408z"/>
		</g>
		<g>
			<path class="st1" d="M-233.4,398.1c0-9.7,0.4-16.8,1.6-17.7c-4.5,2.3-4,8-4,17.7l0.6,0.5c0,0.3,0,4.4,0,4.6
				c-0.4,0.2-0.7-0.6-1.1,0.1c-0.3,0.4,0.5,0.9,1.1,0.5c0,0.4-0.3,0.9-0.7,1c0.7,0.5,0.8,1.8,0,2.1c0.2-0.2-0.5-0.7-0.8-0.2
				c-0.3,0.5,0.4,1.2,1.2,1.1c0,0.2-0.4,0.5-0.8,0.7c0.2,0.1,0.7,0.2,1,0.2c0,0.4,0.1,0.8,0.5,1.1c0.4-0.3,0.4-0.6,0.5-1.1
				c0.3,0,0.9-0.1,1-0.2c-0.4-0.2-0.7-0.5-0.8-0.7c0.8,0,1.5-0.7,1.2-1.1s-1,0-0.8,0.2c-0.8-0.3-0.7-1.6,0-2.1
				c-0.3-0.1-0.6-0.6-0.7-1c0.4-0.2,0.7,0.6,1.1-0.1c0.3-0.4-0.5-0.9-1.1-0.5c0-0.2,0-4.3,0-4.6L-233.4,398.1L-233.4,398.1z"/>
		</g>
		<g>
			<path d="M-234.8,409.9L-234.8,409.9c-0.4-0.3-0.5-0.7-0.5-1.1c-0.4,0-0.8-0.1-1-0.2l-0.1-0.1l0.1,0c0.3-0.1,0.6-0.4,0.7-0.6
				c-0.5,0-0.9-0.3-1.2-0.6c-0.1-0.2-0.1-0.4,0-0.6c0.1-0.2,0.2-0.2,0.4-0.2c0,0,0,0,0,0c0.2,0,0.4,0.1,0.5,0.3c0,0,0,0.1,0,0.1
				c0.2-0.1,0.4-0.3,0.4-0.6c0.1-0.5-0.1-1-0.5-1.3l-0.1-0.1l0.1,0c0.3-0.1,0.5-0.5,0.6-0.8c-0.4,0.2-0.8,0.1-1-0.1
				c-0.2-0.2-0.2-0.4-0.1-0.5c0.3-0.4,0.5-0.3,0.7-0.2c0.1,0.1,0.2,0.1,0.3,0.1v-4.5l-0.6-0.5v0c0-0.9,0-1.8,0-2.7
				c0-8-0.1-12.9,4-15l0.1,0.1c-0.7,0.5-1.5,4-1.5,17.6v0l-0.9,0.5v4.4c0.4-0.2,0.8-0.1,1,0.1c0.2,0.2,0.2,0.4,0.1,0.5
				c-0.3,0.4-0.5,0.3-0.7,0.2c-0.1-0.1-0.2-0.1-0.3-0.1c0,0.4,0.3,0.8,0.6,0.9l0.1,0l-0.1,0.1c-0.4,0.3-0.6,0.8-0.5,1.3
				c0,0.3,0.2,0.5,0.4,0.6c0,0,0-0.1,0-0.1c0.1-0.2,0.3-0.3,0.5-0.3c0,0,0,0,0,0c0.2,0,0.3,0.1,0.4,0.2c0.1,0.2,0.1,0.4,0,0.6
				c-0.2,0.4-0.7,0.6-1.2,0.6c0.1,0.2,0.4,0.4,0.7,0.6l0.1,0l-0.1,0.1c-0.2,0.1-0.6,0.2-1,0.2c0,0,0,0-0.1,0
				C-234.3,409.2-234.4,409.5-234.8,409.9L-234.8,409.9z M-235.2,408.6L-235.2,408.6c0,0.5,0.1,0.8,0.4,1.1c0.3-0.3,0.4-0.6,0.4-1
				l0-0.1l0.1,0c0.3,0,0.7-0.1,0.9-0.1c-0.3-0.2-0.7-0.4-0.7-0.7l0-0.1l0.1,0c0,0,0,0,0,0c0.5,0,0.9-0.3,1.1-0.6
				c0.1-0.1,0.1-0.3,0-0.5c-0.1-0.1-0.2-0.2-0.3-0.2c-0.2,0-0.3,0.1-0.4,0.2c0,0,0,0.1,0,0.1l0.1,0.2l-0.2-0.1
				c-0.3-0.1-0.6-0.4-0.6-0.8c-0.1-0.5,0.1-1,0.5-1.4c-0.3-0.2-0.6-0.6-0.6-1l0,0l0,0c0.2-0.1,0.3,0,0.5,0.1
				c0.2,0.1,0.4,0.2,0.6-0.1c0.1-0.2,0-0.3-0.1-0.4c-0.2-0.2-0.6-0.3-0.9-0.1l-0.1,0.1v-4.7l0.9-0.5c0-10.1,0.5-15.9,1.4-17.4
				c-3.7,2.2-3.7,6.9-3.7,14.7c0,0.9,0,1.8,0,2.7l0.6,0.5v4.6l0,0c-0.2,0.1-0.3,0-0.5-0.1c-0.2-0.1-0.4-0.2-0.6,0.1
				c-0.1,0.2,0,0.3,0.1,0.4c0.2,0.2,0.6,0.3,0.9,0.1l0.1-0.1l0,0.1c0,0.4-0.3,0.8-0.6,1c0.4,0.3,0.6,0.9,0.5,1.4
				c-0.1,0.4-0.3,0.7-0.6,0.8l-0.2,0.1l0.1-0.2c0,0,0-0.1,0-0.1c-0.1-0.1-0.2-0.2-0.4-0.2c-0.1,0-0.2,0.1-0.3,0.2
				c-0.1,0.2,0,0.4,0,0.5c0.2,0.3,0.6,0.6,1.1,0.6c0,0,0,0,0,0l0.1,0l0,0.1c0,0.2-0.3,0.5-0.7,0.7
				C-236,408.6-235.6,408.7-235.2,408.6L-235.2,408.6z"/>
		</g>
		<g>
			<path class="st1" d="M-234.7,399.1c3.2,0,2.9-2.1,1.8-2.5c-1.1-0.3-1.2,1-0.6,1c-0.1,0.4-0.8,0.5-1.2,0.5c-0.4,0-1.1,0-1.2-0.5
				c0.5,0,0.5-1.3-0.6-1C-237.6,396.9-237.9,399.1-234.7,399.1L-234.7,399.1z"/>
		</g>
		<g>
			<path d="M-234.7,399.1c-2.3,0-2.6-1-2.6-1.3c-0.1-0.5,0.3-1.1,0.8-1.2c0.5-0.1,0.8,0,0.9,0.2c0.2,0.2,0.2,0.5,0.1,0.7
				c-0.1,0.1-0.1,0.2-0.3,0.2c0.2,0.3,0.7,0.4,1.1,0.4s0.9,0,1.1-0.4c-0.1,0-0.2-0.1-0.3-0.2c-0.1-0.2,0-0.5,0.1-0.7
				c0.1-0.1,0.4-0.3,0.9-0.2c0.5,0.2,0.9,0.7,0.8,1.2C-232.1,398.1-232.4,399.1-234.7,399.1z M-236.2,396.6c-0.1,0-0.2,0-0.3,0
				c-0.5,0.1-0.8,0.6-0.7,1.1c0,0.3,0.3,1.2,2.5,1.2c2.2,0,2.5-0.9,2.5-1.2c0.1-0.5-0.2-1-0.7-1.1c-0.3-0.1-0.6,0-0.7,0.1
				c-0.2,0.2-0.2,0.4-0.1,0.6c0,0.1,0.1,0.2,0.2,0.2l0.1,0l0,0.1c-0.2,0.5-1,0.5-1.3,0.5s-1.1,0-1.3-0.5l0-0.1l0.1,0
				c0.1,0,0.2-0.1,0.2-0.2c0.1-0.2,0.1-0.4-0.1-0.6C-235.8,396.7-236,396.6-236.2,396.6z"/>
		</g>
		<g>
			<path class="st1" d="M-233.7,399.8c0.1-0.3,0.7-0.3,0.8-0.6c0.2,0.6-0.2,0.6-0.3,0.9c-0.1,0.1-0.5,0.5-0.8,0.1
				C-234.1,400.2-233.8,400-233.7,399.8L-233.7,399.8z"/>
		</g>
		<g>
			<path d="M-233.7,400.4c-0.1,0-0.2-0.1-0.3-0.1c-0.1-0.1,0-0.2,0.1-0.3c0.1-0.1,0.1-0.1,0.2-0.2c0.1-0.1,0.2-0.2,0.4-0.3
				c0.2-0.1,0.3-0.2,0.4-0.3l0.1-0.1l0.1,0.1c0.2,0.4,0,0.6-0.2,0.8c-0.1,0.1-0.1,0.1-0.2,0.2C-233.2,400.2-233.4,400.4-233.7,400.4
				C-233.7,400.4-233.7,400.4-233.7,400.4z M-234,400.2c0.1,0.1,0.2,0.1,0.3,0.1c0.2,0,0.4-0.2,0.4-0.2c0.1-0.1,0.1-0.2,0.2-0.2
				c0.1-0.1,0.2-0.2,0.2-0.5c-0.1,0.1-0.2,0.2-0.4,0.2c-0.2,0.1-0.3,0.2-0.4,0.3c0,0.1-0.1,0.2-0.2,0.3
				C-233.9,400.1-234,400.2-234,400.2z"/>
		</g>
		<g>
			<path class="st1" d="M-234.7,399.2c0.8,0.3,1.1,0.3,1,0.8c-0.1,0.5-0.8,0.3-1.1,0.1c-0.4-0.1-1.1-0.2-1-0.8
				C-235.9,399-235.2,399-234.7,399.2L-234.7,399.2z"/>
		</g>
		<g>
			<path d="M-234.2,400.4c-0.2,0-0.5-0.1-0.7-0.2c-0.1,0-0.1,0-0.2-0.1c-0.4-0.1-0.9-0.2-0.9-0.8c0-0.1,0.1-0.2,0.1-0.2
				c0.2-0.2,0.7-0.1,1.1,0l0.1,0c0.7,0.2,1,0.3,0.9,0.8c0,0.1-0.1,0.2-0.2,0.3C-234,400.3-234,400.4-234.2,400.4z M-235.4,399.2
				c-0.1,0-0.3,0-0.3,0.1c-0.1,0-0.1,0.1-0.1,0.1c0,0.4,0.4,0.5,0.8,0.6c0.1,0,0.2,0,0.2,0.1c0.3,0.1,0.7,0.2,0.9,0.1
				c0.1,0,0.1-0.1,0.1-0.2c0.1-0.3-0.1-0.4-0.8-0.7l-0.1,0C-235,399.2-235.2,399.2-235.4,399.2z"/>
		</g>
		<g>
			<path class="st1" d="M-233.7,400.6c0.1-0.3,0.7-0.3,0.8-0.6c0.2,0.6-0.2,0.6-0.3,0.9c-0.1,0.1-0.5,0.5-0.8,0.1
				C-234.1,401-233.8,400.9-233.7,400.6L-233.7,400.6z"/>
		</g>
		<g>
			<path d="M-233.7,401.3c-0.1,0-0.2-0.1-0.3-0.1c-0.1-0.1,0-0.2,0.1-0.3c0.1-0.1,0.1-0.1,0.2-0.2l0,0c0.1-0.1,0.2-0.2,0.4-0.3
				c0.2-0.1,0.3-0.2,0.4-0.3l0.1-0.1l0.1,0.1c0.2,0.4,0,0.6-0.2,0.8c-0.1,0.1-0.1,0.1-0.2,0.2C-233.2,401.1-233.4,401.2-233.7,401.3
				C-233.7,401.3-233.7,401.3-233.7,401.3z M-234,401c0.1,0.1,0.2,0.1,0.3,0.1c0.2,0,0.4-0.2,0.4-0.2c0.1-0.1,0.1-0.2,0.2-0.2
				c0.1-0.1,0.2-0.2,0.2-0.5c-0.1,0.1-0.2,0.2-0.4,0.2c-0.2,0.1-0.3,0.2-0.4,0.3h0c0,0.1-0.1,0.2-0.2,0.3
				C-233.9,401-234,401-234,401z"/>
		</g>
		<g>
			<path class="st1" d="M-234.7,400.1c0.8,0.3,1.1,0.3,1,0.8c-0.1,0.5-0.8,0.3-1.1,0.1c-0.4-0.1-1.3-0.1-1.3-0.9
				C-236.1,399.5-235.2,399.9-234.7,400.1L-234.7,400.1z"/>
		</g>
		<g>
			<path d="M-234.2,401.2c-0.2,0-0.5-0.1-0.7-0.2c-0.1,0-0.2,0-0.3-0.1c-0.4-0.1-1.1-0.2-1-0.9c0-0.1,0.1-0.2,0.1-0.3
				c0.2-0.2,0.8,0,1.2,0.2c0.1,0,0.1,0,0.2,0.1l0.1,0c0.7,0.2,1,0.3,0.9,0.8c0,0.1-0.1,0.2-0.2,0.3
				C-234,401.2-234,401.2-234.2,401.2z M-235.8,399.9c-0.1,0-0.1,0-0.2,0c-0.1,0-0.1,0.1-0.1,0.2c0,0.6,0.5,0.7,0.9,0.8
				c0.1,0,0.2,0,0.3,0.1c0.3,0.1,0.7,0.2,0.9,0.1c0.1,0,0.1-0.1,0.1-0.2c0.1-0.3-0.1-0.4-0.8-0.7l-0.1,0c-0.1,0-0.1,0-0.2-0.1
				C-235.2,400-235.5,399.9-235.8,399.9z"/>
		</g>
		<g>
			<path class="st1" d="M-233.7,401.5c0.1-0.3,0.7-0.3,0.8-0.6c0.2,0.6-0.2,0.6-0.3,0.9c-0.1,0.1-0.5,0.5-0.8,0.1
				C-234.1,401.9-233.8,401.7-233.7,401.5L-233.7,401.5z"/>
		</g>
		<g>
			<path d="M-233.7,402.1c-0.1,0-0.2-0.1-0.3-0.1c-0.1-0.1,0-0.2,0.1-0.3c0.1-0.1,0.1-0.1,0.2-0.2l0,0c0.1-0.1,0.2-0.2,0.4-0.3
				c0.2-0.1,0.3-0.2,0.4-0.3l0.1-0.1l0.1,0.1c0.2,0.4,0,0.6-0.2,0.8c-0.1,0.1-0.1,0.1-0.2,0.2C-233.2,401.9-233.4,402.1-233.7,402.1
				C-233.7,402.1-233.7,402.1-233.7,402.1z M-234,401.9c0.1,0.1,0.2,0.1,0.3,0.1c0.2,0,0.4-0.2,0.4-0.2c0.1-0.1,0.1-0.2,0.2-0.2
				c0.1-0.1,0.2-0.2,0.2-0.5c-0.1,0.1-0.2,0.2-0.4,0.2c-0.2,0.1-0.3,0.2-0.4,0.3l0,0c0,0.1-0.1,0.2-0.2,0.3
				C-233.9,401.8-234,401.9-234,401.9z"/>
		</g>
		<g>
			<path class="st1" d="M-234.7,400.9c0.8,0.3,1.1,0.3,1,0.8c-0.1,0.5-0.8,0.3-1.1,0.1c-0.4-0.1-1,0-1-0.8
				C-235.8,400.7-235.2,400.8-234.7,400.9L-234.7,400.9z"/>
		</g>
		<g>
			<path d="M-234.2,402.1c-0.2,0-0.5-0.1-0.7-0.2c-0.1,0-0.2,0-0.3-0.1c-0.3-0.1-0.8-0.1-0.7-0.8c0-0.1,0-0.2,0.1-0.2
				c0.2-0.2,0.7-0.1,1,0l0.1,0c0.7,0.2,1,0.3,0.9,0.8c0,0.1-0.1,0.2-0.2,0.3C-234,402-234.1,402.1-234.2,402.1z M-235.4,400.9
				c-0.1,0-0.2,0-0.3,0.1c-0.1,0-0.1,0.1-0.1,0.1c0,0.5,0.3,0.6,0.6,0.6c0.1,0,0.2,0,0.3,0.1c0.3,0.1,0.7,0.2,0.9,0.1
				c0.1,0,0.1-0.1,0.1-0.2c0.1-0.3-0.1-0.4-0.8-0.7l-0.1,0C-235,400.9-235.2,400.9-235.4,400.9z"/>
		</g>
		<g>
			<path class="st1" d="M-233.7,402.3c0.1-0.3,0.7-0.3,0.8-0.6c0.2,0.6-0.2,0.6-0.3,0.9c-0.1,0.1-0.5,0.5-0.8,0.1
				C-234.1,402.7-233.8,402.5-233.7,402.3L-233.7,402.3z"/>
		</g>
		<g>
			<path d="M-233.7,402.9c-0.1,0-0.2-0.1-0.3-0.1c-0.1-0.1,0-0.2,0.1-0.3c0.1-0.1,0.1-0.1,0.2-0.2l0,0c0.1-0.1,0.2-0.2,0.4-0.3
				c0.2-0.1,0.3-0.2,0.4-0.3l0.1-0.1l0.1,0.1c0.2,0.4,0,0.6-0.2,0.8c-0.1,0.1-0.1,0.1-0.2,0.2C-233.2,402.7-233.4,402.9-233.7,402.9
				C-233.7,402.9-233.7,402.9-233.7,402.9z M-234,402.7c0.1,0.1,0.2,0.1,0.3,0.1c0.2,0,0.4-0.2,0.4-0.2c0.1-0.1,0.1-0.2,0.2-0.2
				c0.1-0.1,0.2-0.2,0.2-0.5c-0.1,0.1-0.2,0.2-0.4,0.2c-0.2,0.1-0.3,0.2-0.4,0.3l0,0c0,0.1-0.1,0.2-0.2,0.3
				C-233.9,402.6-234,402.7-234,402.7z"/>
		</g>
		<g>
			<path class="st1" d="M-234.7,401.8c0.8,0.3,1.1,0.3,1,0.8c-0.1,0.5-0.8,0.3-1.1,0.1c-0.4-0.1-0.8-0.2-0.8-0.7
				C-235.7,401.6-235.2,401.6-234.7,401.8L-234.7,401.8z"/>
		</g>
		<g>
			<path d="M-234.2,402.9c-0.2,0-0.5-0.1-0.7-0.2c-0.1,0-0.1,0-0.1,0c-0.4-0.1-0.7-0.2-0.7-0.7c0-0.1,0-0.2,0.1-0.3
				c0.2-0.2,0.7-0.1,0.9,0l0.1,0c0.7,0.2,1,0.3,0.9,0.8c0,0.1-0.1,0.2-0.2,0.3C-234,402.9-234.1,402.9-234.2,402.9z M-235.3,401.7
				c-0.1,0-0.2,0-0.3,0.1c-0.1,0-0.1,0.1-0.1,0.2c0,0.4,0.3,0.5,0.6,0.6c0,0,0.1,0,0.1,0c0.3,0.1,0.7,0.2,0.9,0.1
				c0.1,0,0.1-0.1,0.1-0.2c0.1-0.3-0.1-0.4-0.8-0.7l-0.1,0C-235,401.8-235.1,401.7-235.3,401.7z"/>
		</g>
		<g>
			<path class="st1" d="M-246.4,379.9c0.1-0.5,0.2-1-0.2-1.1c-0.4-0.1-0.5-0.5-0.2-0.9c0.4-0.4,0.7-0.2,0.9,0.2
				c0.2,0.5,0.7,0.4,1.1,0.2c2.3-0.7,3.9,3,3.5,5.6C-241.2,382.2-247.3,383.9-246.4,379.9L-246.4,379.9z"/>
		</g>
		<g>
			<path d="M-241.2,383.9l-0.1,0c0-0.6-0.9-0.7-1.9-0.9c-1.1-0.2-2.4-0.4-3-1.2c-0.3-0.5-0.4-1.1-0.2-1.9l0-0.1
				c0.1-0.5,0.2-0.9-0.2-1c-0.2-0.1-0.4-0.2-0.4-0.4c0-0.1,0-0.3,0.2-0.6c0.2-0.2,0.4-0.3,0.6-0.2c0.2,0,0.3,0.2,0.4,0.4
				c0.1,0.3,0.4,0.4,1,0.2c0.7-0.2,1.3-0.1,1.9,0.4C-241.7,379.7-240.9,382.1-241.2,383.9z M-246.3,377.8c-0.1,0-0.3,0.1-0.4,0.2
				c-0.2,0.2-0.2,0.3-0.2,0.5c0,0.1,0.2,0.2,0.3,0.3c0.5,0.2,0.4,0.7,0.3,1.1l0,0.1c-0.2,0.7-0.1,1.3,0.2,1.8c0.5,0.8,1.8,1,2.9,1.2
				c0.9,0.1,1.7,0.3,2,0.7c0.1-1.8-0.6-3.8-1.7-4.8c-0.6-0.5-1.2-0.6-1.8-0.4c-0.3,0.1-1,0.3-1.2-0.2
				C-246,378-246.1,377.9-246.3,377.8C-246.3,377.8-246.3,377.8-246.3,377.8z"/>
		</g>
		<g>
			<path class="st1" d="M-192,379.9c-0.1-0.5-0.2-1,0.2-1.1c0.4-0.1,0.5-0.5,0.2-0.9s-0.7-0.2-0.9,0.2c-0.2,0.5-0.7,0.4-1.1,0.2
				c-2.3-0.7-3.9,3-3.5,5.6C-197.1,382.2-191.1,383.9-192,379.9L-192,379.9z"/>
		</g>
		<g>
			<path d="M-197.2,383.9c-0.3-1.9,0.5-4.2,1.7-5.2c0.6-0.5,1.3-0.6,1.9-0.4c0.6,0.2,0.9,0.2,1-0.2c0.1-0.2,0.2-0.4,0.4-0.4
				c0.1,0,0.3,0,0.6,0.2c0.2,0.2,0.3,0.4,0.2,0.6c0,0.2-0.2,0.3-0.4,0.4c-0.4,0.1-0.3,0.5-0.2,1l0,0.1c0.2,0.8,0.1,1.4-0.2,1.9
				c-0.6,0.8-1.9,1-3,1.2c-1,0.2-1.9,0.3-1.9,0.9L-197.2,383.9z M-194.2,378.3c-0.4,0-0.8,0.2-1.2,0.5c-1.1,0.9-1.8,3-1.7,4.8
				c0.3-0.4,1.1-0.6,2-0.7c1.1-0.2,2.3-0.4,2.9-1.2c0.3-0.4,0.4-1,0.2-1.8l0-0.1c-0.1-0.4-0.2-1,0.3-1.1c0.2-0.1,0.3-0.2,0.3-0.3
				c0-0.1,0-0.3-0.2-0.5c-0.2-0.2-0.3-0.2-0.5-0.2c-0.1,0-0.2,0.2-0.3,0.3c-0.2,0.6-0.9,0.3-1.2,0.2
				C-193.8,378.3-194,378.3-194.2,378.3z"/>
		</g>
		<g>
			<path class="st1" d="M-246.4,414.1c0.1,0.5,0.2,1-0.2,1.1c-0.4,0.1-0.5,0.5-0.2,0.9c0.4,0.4,0.7,0.2,0.9-0.2
				c0.2-0.5,0.7-0.4,1.1-0.2c2.3,0.7,3.9-3,3.5-5.6C-241.2,411.8-247.3,410.1-246.4,414.1L-246.4,414.1z"/>
		</g>
		<g>
			<path d="M-246.3,416.3c-0.1,0-0.3,0-0.5-0.2c-0.2-0.2-0.3-0.4-0.2-0.6c0-0.2,0.2-0.3,0.4-0.4c0.4-0.1,0.3-0.4,0.2-1l0-0.1
				c-0.2-0.8-0.1-1.4,0.2-1.9c0.6-0.8,1.9-1,3-1.2c1-0.2,1.9-0.3,1.9-0.9l0.1,0c0.3,1.9-0.5,4.2-1.7,5.2c-0.6,0.5-1.3,0.6-1.9,0.4
				c-0.6-0.2-0.9-0.2-1,0.2C-245.9,416.1-246.1,416.3-246.3,416.3C-246.3,416.3-246.3,416.3-246.3,416.3z M-241.3,410.4
				c-0.3,0.4-1.1,0.6-2,0.7c-1.1,0.2-2.3,0.4-2.9,1.2c-0.3,0.4-0.4,1-0.2,1.8l0,0.1c0.1,0.4,0.2,1-0.3,1.1c-0.2,0.1-0.3,0.2-0.3,0.3
				c0,0.1,0,0.3,0.2,0.5c0.2,0.2,0.3,0.2,0.5,0.2c0.1,0,0.2-0.2,0.3-0.3c0.2-0.6,0.9-0.3,1.2-0.2c0.6,0.2,1.3,0.1,1.8-0.4
				C-241.8,414.3-241.1,412.2-241.3,410.4z"/>
		</g>
		<g>
			<path class="st1" d="M-192,414.1c-0.1,0.5-0.2,1,0.2,1.1c0.4,0.1,0.5,0.5,0.2,0.9c-0.4,0.4-0.7,0.2-0.9-0.2
				c-0.2-0.5-0.7-0.4-1.1-0.2c-2.3,0.7-3.9-3-3.5-5.6C-197.1,411.8-191.1,410.1-192,414.1L-192,414.1z"/>
		</g>
		<g>
			<path d="M-192.1,416.3C-192.1,416.3-192.1,416.3-192.1,416.3c-0.3-0.1-0.4-0.2-0.5-0.4c-0.1-0.3-0.4-0.4-1-0.2
				c-0.7,0.2-1.3,0.1-1.9-0.4c-1.2-1-1.9-3.3-1.7-5.2l0.1,0c0,0.6,0.9,0.7,1.9,0.9c1.1,0.2,2.4,0.4,3,1.2c0.3,0.5,0.4,1.1,0.2,1.9
				l0,0.1c-0.1,0.5-0.2,0.9,0.2,1c0.2,0.1,0.4,0.2,0.4,0.4c0,0.1,0,0.3-0.2,0.6C-191.8,416.3-191.9,416.3-192.1,416.3z M-193,415.5
				c0.2,0,0.5,0.1,0.6,0.4c0.1,0.2,0.2,0.3,0.3,0.3c0.1,0,0.3,0,0.5-0.2c0.2-0.2,0.2-0.3,0.2-0.5c0-0.1-0.2-0.2-0.3-0.3
				c-0.5-0.2-0.4-0.7-0.3-1.1l0-0.1c0.2-0.7,0.1-1.3-0.2-1.8c-0.5-0.8-1.8-1-2.9-1.2c-0.9-0.1-1.7-0.3-2-0.7
				c-0.1,1.8,0.6,3.8,1.7,4.8c0.6,0.5,1.2,0.6,1.8,0.4C-193.5,415.6-193.2,415.5-193,415.5z M-225,406.8c-0.4-1.2-0.7-2.7-0.1-4.2
				l0.1,0c-0.6,1.5-0.3,2.9,0.1,4.1L-225,406.8z M-207.3,406.4c-0.6-0.4-1.3-0.9-1.7-1.5c-0.9-1.2-1.8-1.6-3.5-1.6v-0.1
				c1.7,0,2.7,0.4,3.6,1.6c0.5,0.6,1.1,1.1,1.7,1.4L-207.3,406.4z M-220.3,406l-0.1-0.1c1.3-2.4,1.7-4.1,1.3-5.1l0.1,0
				C-218.6,401.9-219,403.6-220.3,406z M-227.3,405.5c-1.2-0.9-2-2-2.3-3.3l0.1,0C-229.1,403.4-228.4,404.5-227.3,405.5
				L-227.3,405.5z M-224.6,397.4l-0.1,0c0.1-0.5,0-0.8-0.1-1.1c-0.1-0.2-0.1-0.3-0.1-0.4c-0.3,0.2-0.9,0.5-1.3,0.4l0-0.1
				c0.4-0.2,0.5-0.5,0.6-0.9c0.1-0.3,0.1-0.6,0.4-0.7l0,0.1c-0.2,0.1-0.3,0.3-0.3,0.6c-0.1,0.3-0.2,0.6-0.4,0.8
				c0.4-0.1,0.9-0.3,1.1-0.5l0.1,0.1c-0.1,0.2-0.1,0.3,0,0.5c0.1,0.2,0.2,0.5,0.1,0.9c0.1-0.1,0.2-0.1,0.3-0.1
				c0.3-0.1,0.7-0.3,0.8-1.3c0-0.1,0-0.2,0-0.3l0.1,0c0,0.1,0,0.2,0,0.2c0,0.1,0.1,0.2,0.1,0.3c0.1,0.2,0.2,0.5,0.1,0.9
				c0.4-0.3,0.7-0.8,0.9-1.5c0,0,0,0,0,0l0.1,0c0,0,0,0,0,0c0,0.2,0.1,0.4,0.3,0.6c0.1,0.2,0.3,0.4,0.3,0.5c0.2-0.2,0.3-0.6,0.4-0.9
				c0.1-0.4,0.2-0.8,0.5-0.8l0.1,0l0,0.1c-0.1,0.2,0.1,0.7,0.3,1.1c0.2,0.4,0.4,0.8,0.3,1.1c0.1-0.1,0.2-0.1,0.3-0.2
				c0.3-0.2,0.6-0.4,0.8-0.9l0.1-0.2l0.1,0.2c0.1,0.3,0.8,0.5,1.2,0.6c0.2,0,0.3,0.1,0.4,0.1c0-0.2,0-0.4,0-0.6
				c0-0.3,0.1-0.5-0.1-0.7l0.1-0.1c0.3,0.3,1.1,0.2,1.5,0c-0.4-0.2-0.7-0.4-0.8-0.7l0.1-0.1c0.2,0.3,0.5,0.5,0.9,0.7l0.1,0.1
				l-0.1,0.1c-0.3,0.1-1.1,0.3-1.6,0.1c0,0.2,0,0.4,0,0.6c0,0.3-0.1,0.5,0.1,0.7l-0.1,0.1c-0.1-0.1-0.3-0.1-0.6-0.2
				c-0.5-0.1-1-0.2-1.2-0.5c-0.2,0.4-0.5,0.7-0.8,0.9c-0.2,0.1-0.3,0.2-0.4,0.3l-0.1,0c0.1-0.3-0.1-0.8-0.3-1.3
				c-0.2-0.4-0.4-0.8-0.3-1.1c-0.2,0.1-0.2,0.4-0.3,0.7c-0.1,0.4-0.2,0.9-0.6,1.1l-0.1-0.1c0.1-0.1-0.1-0.4-0.2-0.6
				c-0.1-0.1-0.2-0.3-0.3-0.4c-0.2,0.6-0.5,1.1-1,1.4l-0.2,0.1l0.1-0.2c0.2-0.4,0.1-0.7-0.1-0.9c0,0,0,0,0-0.1
				c-0.2,0.9-0.6,1-0.9,1.1C-224.4,397.2-224.6,397.3-224.6,397.4z M-220.1,394.9l-0.1,0c0-0.6-0.4-0.8-0.8-1
				c-0.2-0.1-0.4-0.2-0.5-0.4c0,0.1,0,0.2,0,0.2c0,0.3,0,0.8-0.3,1l-0.1,0.1l0-0.2c0-0.5-0.5-1.1-0.7-1.4c-0.2,0.4-0.5,0.9-1,1.1
				l-0.2,0.1l0.1-0.2c0.1-0.2,0.1-0.5-0.1-1c-0.1,0.4-0.4,0.8-0.7,1l-0.2,0.1l0.1-0.1c0.1-0.1,0-0.4-0.1-0.6
				c-0.1-0.2-0.2-0.5-0.2-0.8l0.1,0c0,0.3,0.1,0.5,0.1,0.7c0.1,0.2,0.1,0.4,0.1,0.6c0.3-0.2,0.5-0.7,0.6-1l0-0.2l0.1,0.2
				c0.2,0.5,0.3,0.8,0.2,1.1c0.4-0.2,0.7-0.8,0.8-1l0-0.1l0.1,0.1c0.4,0.4,0.8,0.9,0.8,1.3c0.1-0.2,0.1-0.5,0.1-0.8
				c0-0.2,0-0.4,0.1-0.4l0.1-0.1l0,0.1c0.1,0.2,0.3,0.3,0.5,0.4c0.3,0.2,0.7,0.4,0.8,0.8c0.1-0.4,0.2-0.9,0.1-1.3
				c-0.2-0.2-0.5-0.3-0.6-0.6c-0.1,0.3-0.2,0.5-0.3,0.5l-0.1,0.1l0-0.2c0-0.6-0.4-1-0.8-1.3c0,0.2-0.2,0.4-0.3,0.6
				c-0.1,0.1-0.1,0.2-0.2,0.3l-0.1,0c0-0.1-0.2-0.3-0.3-0.4c-0.2-0.2-0.5-0.5-0.6-0.9l0.1,0c0,0.4,0.3,0.6,0.5,0.8
				c0.1,0.1,0.3,0.2,0.3,0.3c0-0.1,0.1-0.1,0.1-0.2c0.1-0.2,0.3-0.5,0.3-0.7l0-0.2l0.2,0.2c0.4,0.3,0.8,0.7,0.9,1.3
				c0.1-0.1,0.2-0.3,0.2-0.6l0.1,0c0.1,0.5,0.5,0.7,0.9,0.9c0.2,0.1,0.4,0.2,0.5,0.4c0.1-0.2,0.1-0.6,0.1-0.8l0.1,0
				c0.3,0.6,1.1,1.3,2,1.3c0.1,0,0.2,0,0.3,0l0,0.1c-1,0.2-1.9-0.5-2.3-1.1c0,0.3-0.1,0.6-0.2,0.7l-0.1,0.1l0-0.2
				c0-0.2-0.3-0.3-0.5-0.5c0,0-0.1-0.1-0.1-0.1C-219.8,393.9-219.9,394.5-220.1,394.9z M-217.1,392.6c-0.1,0-0.1-0.1-0.2-0.1
				c-0.5-0.4-1.1-0.8-1.3-1.3c0,0.1-0.1,0.2-0.2,0.3c-0.1,0.2-0.2,0.4-0.2,0.5l-0.1,0c0-0.1-0.2-0.2-0.3-0.4
				c-0.1-0.1-0.2-0.2-0.3-0.3c0,0.3-0.1,0.4-0.2,0.6c-0.1,0.1-0.1,0.2-0.1,0.3c0,0,0,0,0,0l-0.1,0c0,0,0,0,0,0c0-0.3-0.5-0.8-0.9-1
				l0.1-0.1c0.3,0.1,0.7,0.5,0.9,0.9c0-0.1,0.1-0.1,0.1-0.2c0.1-0.2,0.2-0.4,0.1-0.7c-0.1-0.1-0.1-0.2-0.1-0.3l0.1,0
				c0,0.1,0.1,0.2,0.1,0.3c0.1,0.1,0.3,0.3,0.4,0.4c0.1,0.1,0.2,0.2,0.3,0.3c0-0.1,0.1-0.2,0.2-0.3c0.1-0.2,0.2-0.4,0.2-0.5
				c0,0,0,0,0-0.1l0.1,0c0,0,0,0.1,0,0.1c0.1,0.5,0.8,1,1.4,1.4c0.1,0,0.1,0.1,0.2,0.1L-217.1,392.6z M-225.2,392.2
				c-0.2,0-0.4,0-0.6-0.1c-0.3-0.1-0.7-0.2-1.2,0l0-0.1c0.1-0.1,0.2-0.2,0.2-0.3c0-0.1,0.1-0.2,0.1-0.2c-1.5-0.1-2.7-0.4-3.3-0.8
				l0.1-0.1c0.7,0.4,1.9,0.7,3.4,0.8l0,0.1c-0.1,0-0.1,0.1-0.2,0.3c0,0.1-0.1,0.1-0.1,0.2c0.4-0.1,0.7,0,1,0.1
				c0.3,0.1,0.5,0.1,0.8,0.1c-0.1-0.4-0.3-0.8-0.5-1.1l0.1-0.1c0.2,0.4,0.4,0.8,0.5,1.2l0,0.1l-0.1,0
				C-225,392.2-225.1,392.2-225.2,392.2z M-216.8,391c-0.1-0.1-0.2-0.1-0.3-0.2c-0.4-0.3-0.8-0.7-0.9-1.1c-0.1-0.6-0.2-1.1-0.5-1.4
				c0.2,0.7,0.2,1.4-0.1,1.9l-0.1,0c0-0.3-0.2-0.5-0.5-0.7c-0.2-0.1-0.4-0.2-0.5-0.4c0,0.4-0.2,0.7-0.3,0.9c0,0.1-0.1,0.2-0.1,0.2
				l-0.1,0c0.1-0.4-0.1-0.5-0.3-0.7c0,0-0.1-0.1-0.1-0.1c0,0.2-0.1,0.4-0.2,0.6c-0.1,0.1-0.1,0.2-0.1,0.3l-0.1,0
				c0-0.2-0.2-0.4-0.3-0.6c0,0.2,0,0.4,0,0.6c0,0.2-0.1,0.3,0,0.5c0,0,0,0,0,0l0,0l0,0l-0.1,0l0,0l0,0v0c-0.1-0.3-0.3-0.4-0.5-0.5
				c-0.1-0.1-0.3-0.2-0.4-0.3c-0.1,0.1-0.1,0.2-0.2,0.3c-0.1,0.1-0.2,0.3-0.3,0.5c0,0,0,0,0,0.1l-0.1,0c0,0,0,0,0,0
				c0-0.1-0.1-0.2-0.3-0.2c-0.3-0.2-0.7-0.4-0.6-1.1l0.1,0c0,0.6,0.3,0.8,0.6,1c0.1,0.1,0.2,0.1,0.3,0.2c0.1-0.1,0.2-0.3,0.3-0.4
				c0.1-0.2,0.2-0.3,0.2-0.5l0.1,0c0,0.3,0.2,0.3,0.4,0.5c0.1,0.1,0.3,0.2,0.4,0.3c0-0.1,0-0.1,0-0.2c0-0.2,0.1-0.5-0.1-0.8
				c-0.1-0.1-0.1-0.2-0.1-0.2l0.1,0c0,0.1,0.1,0.1,0.1,0.2c0,0.1,0.1,0.1,0.2,0.2c0.1,0.1,0.2,0.3,0.3,0.5c0,0,0-0.1,0.1-0.1
				c0.1-0.2,0.2-0.4,0.2-0.7c0-0.1-0.1-0.2-0.1-0.3l0.1,0c0,0.1,0.1,0.2,0.1,0.2c0,0.1,0.1,0.1,0.2,0.2c0.1,0.1,0.3,0.3,0.4,0.5
				c0.1-0.2,0.3-0.5,0.2-1.1c0-0.1,0-0.1,0-0.2l0.1,0c0,0.1,0,0.1,0,0.2c0.1,0.3,0.3,0.4,0.6,0.6c0.2,0.2,0.5,0.3,0.6,0.6
				c0.2-0.5,0.1-1.2-0.1-1.9l-0.1-0.2l0.2,0.1c0.5,0.3,0.6,0.8,0.7,1.6c0.1,0.4,0.5,0.7,0.8,1C-216.9,390.8-216.8,390.8-216.8,391
				L-216.8,391z M-216.5,389.1c-0.1-0.2-0.2-0.3-0.4-0.5c-0.2-0.2-0.4-0.3-0.6-0.7l0.1-0.1c0.2,0.3,0.4,0.5,0.6,0.7
				c0.2,0.1,0.3,0.3,0.4,0.5L-216.5,389.1z M-224.5,387.8C-224.5,387.8-224.6,387.8-224.5,387.8c-0.2,0-0.4-0.1-0.5-0.2
				c-0.1-0.1-0.2-0.3-0.1-0.5c0-0.3,0.2-0.5,0.4-0.6c0.4-0.2,1,0.1,1.3,0.3c0.5,0.4,1.1,0.6,1.9,0.6c0,0,0,0,0.1,0
				c-0.2-0.1-0.2-0.3-0.3-0.4c0-0.1-0.1-0.2-0.2-0.3c-0.1-0.1-0.1-0.1-0.2-0.2l0.1-0.1c0.1,0.1,0.1,0.1,0.2,0.2
				c0.7,0.7,2,0.5,2.6,0.4c-0.2-0.1-0.3-0.3-0.4-0.4c-0.1-0.2-0.3-0.4-0.5-0.4l0-0.1c1.1,0.2,2.5-0.2,3.1-0.9l0.1,0.1
				c-0.5,0.6-1.6,1-2.6,1c-0.1,0-0.2,0-0.3,0c0.1,0.1,0.2,0.2,0.3,0.3c0.1,0.2,0.3,0.4,0.5,0.4l0.2,0.1l-0.2,0.1
				c-0.3,0.1-1.7,0.4-2.6-0.2c0,0,0,0.1,0,0.1c0.1,0.2,0.1,0.3,0.4,0.5l0.2,0.1l-0.2,0c-0.1,0-0.2,0-0.3,0c-0.8,0-1.5-0.2-1.9-0.6
				c-0.3-0.3-0.8-0.4-1.2-0.3c-0.2,0.1-0.3,0.2-0.4,0.5c0,0.2,0,0.4,0.1,0.4c0.1,0.1,0.2,0.2,0.4,0.2c0.1,0,0.2,0,0.3-0.1
				c0.1-0.1,0.1-0.2,0.1-0.2c0-0.3-0.1-0.4-0.3-0.4l0-0.1c0.3,0,0.4,0.2,0.4,0.5c0,0.1-0.1,0.2-0.2,0.3
				C-224.3,387.8-224.4,387.8-224.5,387.8z"/>
		</g>
	</g>
</g>
</svg>
