<?xml version="1.0" encoding="utf-8"?>
<!-- Generator: Adobe Illustrator 19.0.0, SVG Export Plug-In . SVG Version: 6.00 Build 0)  -->
<svg version="1.1" id="Layer_1" xmlns="http://www.w3.org/2000/svg" xmlns:xlink="http://www.w3.org/1999/xlink" x="0px" y="0px"
	 viewBox="-269 374 72 46" style="enable-background:new -269 374 72 46;" xml:space="preserve">
<style type="text/css">
	.st0{clip-path:url(#SVGID_2_);}
	.st1{fill:#E50040;}
	.st2{fill:#FFFFFF;}
	.st3{fill:#003361;}
</style>
<g>
	<defs>
		<path id="SVGID_1_" d="M-204,420H-262c-3.8,0-7-3.1-7-7V381c0-3.8,3.1-7,7-7h58.1c3.8,0,7,3.1,7,7V413
			C-197,416.9-200.1,420-204,420z"/>
	</defs>
	<clipPath id="SVGID_2_">
		<use xlink:href="#SVGID_1_"  style="overflow:visible;"/>
	</clipPath>
	<g class="st0">
		<g>
			<polygon class="st1" points="-181.4,420.4 -181.4,373.7 -270,373.7 -270,420.4 			"/>
		</g>
		<g>
			<path d="M-181.3,420.5h-88.8v-46.9h88.8V420.5z M-269.9,420.2h88.3v-46.4h-88.3V420.2z"/>
		</g>
		<g>
			<polygon class="st2" points="-181.4,382.2 -270,382.2 -270,378 -181.4,378 			"/>
		</g>
		<g>
			<path d="M-181.3,382.3h-88.8v-4.5h88.8V382.3z M-269.9,382.1h88.3v-4h-88.3V382.1z"/>
		</g>
		<g>
			<polygon class="st2" points="-181.4,390.7 -270,390.7 -270,386.4 -181.4,386.4 			"/>
		</g>
		<g>
			<path d="M-181.3,390.8h-88.8v-4.5h88.8V390.8z M-269.9,390.6h88.3v-4h-88.3V390.6z"/>
		</g>
		<g>
			<polygon class="st2" points="-181.4,399.2 -270,399.2 -270,394.9 -181.4,394.9 			"/>
		</g>
		<g>
			<path d="M-181.3,399.3h-88.8v-4.5h88.8V399.3z M-269.9,399h88.3v-4h-88.3V399z"/>
		</g>
		<g>
			<polygon class="st2" points="-181.4,407.6 -270,407.6 -270,403.4 -181.4,403.4 			"/>
		</g>
		<g>
			<path d="M-181.3,407.8h-88.8v-4.5h88.8V407.8z M-269.9,407.5h88.3v-4h-88.3V407.5z"/>
		</g>
		<g>
			<polygon class="st2" points="-181.4,416.1 -270,416.1 -270,411.9 -181.4,411.9 			"/>
		</g>
		<g>
			<path d="M-181.3,416.2h-88.8v-4.5h88.8V416.2z M-269.9,416h88.3v-4h-88.3V416z"/>
		</g>
		<g>
			<polygon class="st3" points="-248.8,394.9 -248.8,373.7 -270,373.7 -270,394.9 			"/>
		</g>
		<g>
			<path d="M-248.7,395.1h-21.4v-21.4h21.4V395.1z M-269.9,394.8h20.9v-20.9h-20.9V394.8z"/>
		</g>
		<g>
			<polygon class="st2" points="-259.4,376.2 -261.4,382.4 -268,382.4 -262.6,386.2 -264.7,392.4 -259.4,388.6 -254.1,392.4 
				-256.1,386.2 -250.8,382.4 -257.4,382.4 			"/>
		</g>
	</g>
</g>
</svg>
