<?xml version="1.0" encoding="utf-8"?>
<!-- Generator: Adobe Illustrator 19.0.0, SVG Export Plug-In . SVG Version: 6.00 Build 0)  -->
<svg version="1.1" id="Layer_1" xmlns="http://www.w3.org/2000/svg" xmlns:xlink="http://www.w3.org/1999/xlink" x="0px" y="0px"
	 viewBox="-269 374 72 46" style="enable-background:new -269 374 72 46;" xml:space="preserve">
<style type="text/css">
	.st0{clip-path:url(#SVGID_2_);}
	.st1{fill:#FFFFFF;}
	.st2{fill:#0058A2;}
	.st3{fill:#007A4D;}
	.st4{fill:#B16510;}
</style>
<g>
	<defs>
		<path id="SVGID_1_" d="M-204,420H-262c-3.8,0-7-3.1-7-7V381c0-3.8,3.1-7,7-7h58.1c3.8,0,7,3.1,7,7V413
			C-197,416.9-200.1,420-204,420z"/>
	</defs>
	<clipPath id="SVGID_2_">
		<use xlink:href="#SVGID_1_"  style="overflow:visible;"/>
	</clipPath>
	<g class="st0">
		<g>
			<polygon class="st1" points="-196.5,421.7 -196.5,372.3 -269.5,372.3 -269.5,421.7 			"/>
		</g>
		<g>
			<path d="M-196.3,421.9h-73.3v-49.7h73.3V421.9z M-269.4,421.6h72.8v-49.2h-72.8V421.6z"/>
		</g>
		<g>
			<polygon class="st2" points="-269.5,421.7 -196.5,421.7 -196.5,372.3 			"/>
		</g>
		<g>
			<path d="M-196.5,421.9h-73.1l-0.1-0.2l73.1-49.5l0.2,0.1v49.5L-196.5,421.9z M-269.1,421.6h72.5v-49.1L-269.1,421.6z"/>
		</g>
		<g>
			<polygon class="st3" points="-196.5,387.2 -247.5,421.7 -196.5,421.7 			"/>
		</g>
		<g>
			<path d="M-196.5,421.9h-51l-0.1-0.2l51-34.5l0.2,0.1v34.5L-196.5,421.9z M-247.1,421.6h50.5v-34.2L-247.1,421.6z"/>
		</g>
		<g>
			<path class="st4" d="M-250.6,399.9c0.8,0.4,1.5,0.7,2,0.3c0.8-0.6-0.3-2.7-1.3-4.1c-1-1.4-2.2-4.6-1-5.5c1.2-0.9,2.9,0.5,3.4,2.8
				c0.2,1,0.8,2.3,1.9,2c1.1-0.3,1.1-2,0.4-3.9c-0.5-1.5-2.4-4.9-5.9-6.6l0.9-1.8c1,0.3,2.1-0.2,2.6-1.1c0.6-1.1,0.2-2.5-0.9-3.1
				s-2.5-0.2-3.1,0.9c-0.5,1-0.3,2.1,0.5,2.8l-1,1.9c-0.5-0.2-1.1-0.3-1.7-0.4c0-0.3,0-0.6-0.1-0.6c-0.3,0,0-1.2-0.2-1.2
				c-0.2,0,0.1-1.2-0.2-1.2c-0.2,0,0.1-1.2-0.1-1.2c-0.2,0,0-1.3-0.2-1.3c-0.2,0-0.1-1.2-0.3-1.2c-0.2,0,0-0.9-0.6-0.9
				c-0.6,0-0.4,0.9-0.6,0.9c-0.2,0-0.1,1.2-0.3,1.2s0,1.3-0.2,1.3c-0.2,0,0.1,1.2-0.1,1.2c-0.2,0,0,1.2-0.2,1.2s0.1,1.2-0.2,1.2
				c-0.1,0-0.1,0.3-0.1,0.6c-0.6,0.1-1.2,0.2-1.8,0.3l-1.5-2.9l2.5,0.2l-5.2-4.2l0.5,6.8l1.3-2.3l1.4,2.7c-3.1,1.2-4.6,3.9-5.5,7.3
				c-0.2,0.9-0.3,2.4,0.6,2.6c0.9,0.2,1.5-0.5,1.9-1.5c0.9-2.4,2.3-3.6,3.5-2.9c1.2,0.7,0.7,3.3-0.7,5.1c-1.6,1.9-3.3,5.6,0.2,4
				l-2.8,5.4c-0.3,0.6,0.6,1.1,0.9,0.5l3.5-6.6c0.7-0.3,1.5-0.6,2.4-0.6l0,7c0,0.7,0.8,0.7,0.8,0l0-7c0.8,0.1,1.6,0.3,2.6,0.8
				l3.3,6.4c0.3,0.6,1.2,0.1,0.9-0.5L-250.6,399.9L-250.6,399.9z"/>
		</g>
	</g>
</g>
</svg>
