<?xml version="1.0" encoding="utf-8"?>
<!-- Generator: Adobe Illustrator 19.0.0, SVG Export Plug-In . SVG Version: 6.00 Build 0)  -->
<svg version="1.1" id="Layer_1" xmlns="http://www.w3.org/2000/svg" xmlns:xlink="http://www.w3.org/1999/xlink" x="0px" y="0px"
	 viewBox="-269 374 72 46" style="enable-background:new -269 374 72 46;" xml:space="preserve">
<style type="text/css">
	.st0{clip-path:url(#SVGID_2_);}
	.st1{fill:#FFE247;}
	.st2{fill:#DC2F34;}
	.st3{fill:#00633A;}
</style>
<g>
	<defs>
		<path id="SVGID_1_" d="M-204,420H-262c-3.8,0-7-3.1-7-7V381c0-3.8,3.1-7,7-7h58.1c3.8,0,7,3.1,7,7V413
			C-197,416.9-200.1,420-204,420z"/>
	</defs>
	<clipPath id="SVGID_2_">
		<use xlink:href="#SVGID_1_"  style="overflow:visible;"/>
	</clipPath>
	<g class="st0">
		<g>
			<polygon class="st1" points="-184.2,388.7 -281.8,388.7 -281.8,372.1 -184.2,372.1 			"/>
		</g>
		<g>
			<path d="M-184,388.8H-282V372h97.9V388.8z M-281.7,388.5h97.4v-16.3h-97.4V388.5z"/>
		</g>
		<g>
			<polygon class="st2" points="-184.2,421.8 -281.8,421.8 -281.8,405.2 -184.2,405.2 			"/>
		</g>
		<g>
			<path d="M-184,422H-282v-16.8h97.9V422z M-281.7,421.7h97.4v-16.3h-97.4V421.7z"/>
		</g>
		<g>
			<polygon class="st3" points="-184.2,405.2 -281.8,405.2 -281.8,388.7 -184.2,388.7 			"/>
		</g>
		<g>
			<path d="M-184,405.4H-282v-16.8h97.9V405.4z M-281.7,405.1h97.4v-16.3h-97.4V405.1z"/>
		</g>
	</g>
</g>
</svg>
