<?xml version="1.0" encoding="utf-8"?>
<!-- Generator: Adobe Illustrator 19.0.0, SVG Export Plug-In . SVG Version: 6.00 Build 0)  -->
<svg version="1.1" id="Layer_1" xmlns="http://www.w3.org/2000/svg" xmlns:xlink="http://www.w3.org/1999/xlink" x="0px" y="0px"
	 viewBox="-269 374 72 46" style="enable-background:new -269 374 72 46;" xml:space="preserve">
<style type="text/css">
	.st0{clip-path:url(#SVGID_2_);}
	.st1{fill:#00A1DF;}
	.st2{fill:#FFFFFE;}
	.st3{fill:#1D1D1B;}
	.st4{fill:#FFFFFF;}
	.st5{fill:#FFED00;}
	.st6{fill:#E30613;}
</style>
<g>
	<defs>
		<path id="SVGID_1_" d="M-204,420H-262c-3.8,0-7-3.1-7-7V381c0-3.8,3.1-7,7-7h58.1c3.8,0,7,3.1,7,7V413
			C-197,416.9-200.1,420-204,420z"/>
	</defs>
	<clipPath id="SVGID_2_">
		<use xlink:href="#SVGID_1_"  style="overflow:visible;"/>
	</clipPath>
	<g class="st0">
		<polygon class="st1" points="-197,420.1 -269,420.1 -269,415.4 -197,415.4 		"/>
		<polygon class="st2" points="-197,415.4 -269,415.4 -269,410.7 -197,410.7 		"/>
		<polygon class="st1" points="-197,410.7 -269,410.7 -269,406 -197,406 		"/>
		<polygon class="st1" points="-197,401.3 -269,401.3 -269,396.6 -197,396.6 		"/>
		<polygon class="st1" points="-197,391.8 -269,391.8 -269,387.1 -197,387.1 		"/>
		<polygon class="st2" points="-197,406 -269,406 -269,401.3 -197,401.3 		"/>
		<polygon class="st2" points="-197,396.6 -269,396.6 -269,391.8 -197,391.8 		"/>
		<polygon class="st2" points="-197,387.1 -269,387.1 -269,382.4 -197,382.4 		"/>
		<polygon class="st1" points="-197,382.4 -269,382.4 -269,377.7 -197,377.7 		"/>
		<polygon class="st2" points="-197,377.7 -269,377.7 -269,373 -197,373 		"/>
		<path class="st3" d="M-212.3,384.6c-0.4,0-0.7-1.1-0.9-1.6s-0.1-1.4-0.3-2c-0.3-0.6-0.8-0.9-0.8-0.9c-0.1,0-0.1-0.1,0-0.1
			c0.1,0,0.5-0.2,0.6-0.6c0.1-0.3,0-0.8-0.1-0.8c-0.1,0-0.8,0-1.4,0c-0.6,0-1.3-0.3-1.6-0.4c-0.3-0.1-2.4-1.1-4.1-0.2
			c-1.6,1-2.3,2.6-2.5,3.3c-0.2,0.7-0.2,1-0.2,1.5c0,0.6,0.4,2.3,1.1,3.8c0.5,1,2,3.1,2.1,3.3c0.2,0.1,0.1,0.2,0,0.3
			c-0.1,0.1-0.4,0.7-0.5,0.9c-0.1,0.2-0.3,0.1-0.3,0.2c0,0.1-0.3,0.2-0.3,1.6c0,1.4,0.7,2.8,0.8,3c0.2,0.2,0,0.6,0,0.8
			c0,0.2,0.3,0.3,0.6,0.6c0.4,0.3,0.8,1.5,0.8,1.8c0,0.4-0.1,1-0.7,1.2c-0.6,0.2-1-0.1-1.3-0.2c-0.3-0.2-0.8-0.7-1.2-0.8
			c-0.2,0-0.6,0-0.7,0c-0.1,0,0-0.2-0.3-0.5c0,0,0,0,0,0c-0.1-0.1-0.2-0.5-0.4-0.6c-0.4-0.3-1.8-1.4-2.4-1.8c-0.6-0.4-2.1-2.6-2.4-3
			c-0.3-0.4-0.7-0.9-0.9-1c-0.1,0-0.2-0.2,0.1-0.1c0.3,0,0.8-0.1,1-0.3c0.2-0.2,0.6-0.9,0.8-1.1c0.2-0.2,0.4-0.8,0.4-0.8
			s-0.6,0-0.9-0.4c-0.2-0.3-0.3-1-0.2-1.5c0-0.3,0-0.5-0.1-0.7c0,0,0,0,0.1,0c0.1,0,0.4,0.6,1.5,0.3c0.4-0.1,0.3-0.3,0.1-0.4
			c-0.1-0.1-0.1-0.9-0.1-1c0.1-0.1,0.4-0.8,0.4-1c0-0.2,0-0.6,0-0.7c0-0.1,0.3,0,0.4-0.1c0.1-0.1,0.6-0.4,0.6-1
			c0-0.6-0.2-0.2-0.3-0.2c-0.1,0-0.3,0-0.1-0.1s0.5-0.1,0.5-0.6c0,0,0-0.1,0-0.1c0.1-0.3,0.1-0.8,0.1-0.8c0-0.1-0.1-0.1-0.2-0.1
			c-0.1,0-0.8,0.1-0.8,0c-0.1-0.1-0.1-0.6-0.1-0.7c0-0.1-0.1-0.2-0.2-0.3c-0.1-0.1-0.1-0.3,0-0.3c0.1,0,0.4-0.3,0.4-0.4
			c0-0.2,0.2-0.2,0.2-0.3c0-0.1,0.1-0.2-0.2-0.4c-0.3-0.1-0.6-0.2-0.8-0.4c-0.1-0.1-0.3-0.6-0.4-0.9c0-0.3-0.2-0.4-0.3-0.5
			c-0.1-0.1-0.1-0.3-0.1-0.3c0-0.1,0.1-0.3,0.1-0.4c-0.1-0.1-0.3-0.2-0.3-0.3c0-0.1,0.3-0.5,0.4-0.5c0.1,0,0.3,0,0.4-0.1
			c0.1-0.1,0.2-0.3,0.2-0.4c0-0.1,0.1-0.2,0.2-0.3c0.1-0.1,0.2-0.3,0.3-0.3c0.1,0,0.2-0.2,0.1-0.3c-0.1-0.1-0.5-0.4-0.7-0.2
			c-0.3,0.2-0.3,0.3-0.4,0.3c-0.1,0-0.3-0.1-0.5-0.1c-0.2,0-0.4,0.2-0.4,0.4c0,0.2,0,0.6,0,0.7c0,0.1-0.2,0.2-0.4,0.2
			c-0.2,0-0.3-0.1-0.3-0.2c0-0.1,0.2-0.2,0.2-0.4c0-0.1,0.1-0.4-0.2-0.5c-0.3-0.1-0.5,0.1-0.5,0.2c0,0.1-0.1,0.4-0.1,0.5
			c-0.1,0.1-0.5,0.1-0.5,0c0-0.1,0.2-0.1,0.2-0.1c0.1,0,0.3-0.2,0.3-0.4c0-0.1,0.1-0.3-0.1-0.4c-0.1-0.1-0.4-0.3-0.4-0.4
			c0-0.1,0.1-0.2,0-0.4c-0.1-0.1-0.1-0.4-0.5-0.4c-0.4,0-0.6,0.2-0.6,0.4c0,0.1,0,0.2,0,0.4c0,0.1-0.2,0.2-0.3,0.2
			c-0.1,0-0.3,0.3-0.3,0.4c0,0.1,0.3,0.4,0.3,0.5c0,0.1-0.1,0.2-0.3,0.2c-0.2-0.1-0.3-0.2-0.3-0.3c0-0.1,0.1-0.1,0.1-0.4
			c0-0.2-0.1-0.3-0.3-0.3c-0.2,0-0.4,0.1-0.4,0.3c0,0.2,0,0.3,0,0.4c-0.1,0.1-0.3,0.2-0.4,0.2c-0.1,0-0.3,0-0.3-0.1
			c0-0.1,0.1-0.1,0.2-0.2c0.1-0.1,0.2-0.2,0.2-0.4c0-0.2-0.1-0.5-0.4-0.6c-0.3-0.2-0.4-0.1-0.4-0.1c0,0-0.1-0.5-0.3-0.5
			c-0.2,0-0.7,0.1-0.7,0.2c0,0.1,0,0.3,0.1,0.5c0.1,0.2,0.1,0.3,0.1,0.5c0,0.2,0,0.4,0.2,0.6c0.2,0.2,0.4,0.4,0.4,0.5
			c0.1,0,0.1,0.2,0,0.2c-0.1,0.1-0.2,0.4-0.2,0.5c0,0.1,0.1,0.2,0,0.2c-0.1,0-0.8,0.1-0.9,0.2c-0.1,0-0.1,0.2-0.1,0.3
			s-0.1,0.3-0.2,0.4c-0.1,0.1-0.3,0.2-0.5,0.2c-0.2,0-0.7,0.2-0.9,0.4c-0.1,0.2-0.2,0.3-0.5,0.3s-0.8,0-0.8,0.4
			c0.1,0.3,0.2,0.7,0.3,0.7c0.1,0,0.1,0.1,0.1,0.2c0,0.1,0.2,0.4,0.2,0.5c0.1,0.1,0.8,1.1,0.8,1.1c0.1,0,0.1,0.1,0,0.1
			c-0.1,0-0.9,0-1.3-0.1c-0.3-0.1-0.7-0.4-0.7-0.4s0.1,0,0.2-0.1c0.1-0.1,0.2-0.4,0.1-0.6c-0.1-0.3-0.4-0.7-0.9-0.6
			c-0.5,0.1-0.8,0.7-0.6,1c0.2,0.4,0.6,0.9,0.7,1c0.1,0.1,0.5,0.2,0.6,0.2c0.2,0,1.3,0.3,1.5,0.2c0.1,0,0.5,0.1,0.5,0.1
			c0,0,0.1,0.1,0.1,0.2c0,0,0,0,0,0c0,0,0,0,0,0c0,0,0,0,0,0c0,0.1,0,0.2-0.1,0.2c-0.1,0.1-0.3,0.3-0.3,0.4c0,0.1,0.1,0.3,0,0.4
			c-0.1,0.1-0.5,0.4-0.5,0.5c0,0.1,0,0.5,0,0.6c0,0.1-0.1,0.1-0.4-0.1c-0.2-0.2-1-0.3-1.5-0.2c-0.5,0-1.5,0.4-1.7,0.5
			c-0.2,0.1-0.3,0.2-0.5,0c-0.2-0.2-0.9-0.8-1.2-1c-0.2-0.2-0.8-0.8-1-0.9c-0.2-0.1-0.5-0.3-0.6-0.3c0-0.1-1-1.5-1.1-1.6
			c-0.1-0.1-0.2-0.3-0.2-0.5c-0.1-0.3-0.1-1.3-0.1-1.3c0-0.1,0-0.2,0.2-0.3c0.3-0.1,0.8-0.9,0.8-1.3c0-0.4,0.2-1.4-0.7-1.9
			c-0.3-0.1-0.3,0.1-0.2,0.2c0.1,0.1,0,0.6-0.3,0.7c-0.3,0.1-0.2,0.1-0.3,0.2c-0.1,0-0.1-0.2-0.2-0.3c-0.1-0.1-0.2-0.2-0.3-0.2
			c-0.1,0-0.1-0.6-0.4-0.6c-0.3-0.1-0.6-0.1-0.7-0.1s-0.1,0.1-0.1,0.2c0.1,0.1,0.1,0.5,0.1,0.7c0,0.2-0.2,0.2-0.2,0.3
			c0,0.1-0.1,0.1-0.2,0.1c-0.1,0-0.2-0.2-0.4-0.2c-0.2,0-0.1,0.2-0.2,0.2c-0.1,0-0.4-0.3-0.8-0.3c-0.4,0.1-0.6,0.3-0.7,0.4
			s-0.1,0.2,0,0.2c0.1,0,0.5,0.2,0.5,0.3c0.1,0.1,0.2,0.3,0.1,0.6c-0.1,0.3,0,0.5,0.2,0.5c0.2,0,0.3,0.2,0.4,0.2
			c0.1,0,0,0.1-0.1,0.1c-0.1,0-0.5,0.3-0.5,0.3c-0.1,0-0.1,0.2-0.3,0.2c-0.2,0-0.3-0.3-0.4-0.4c-0.1-0.1-0.2,0-0.2,0.1
			c0,0.1,0,0.8,0.2,1c0.2,0.2,0.7,0.5,0.8,0.5c0.1,0,0.1,0.3,0.3,0.3c0.2,0,0.7,0,0.7,0c0.1-0.1,0.3-0.1,0.3,0.1c0,0.2,0,0.4,0,0.4
			s0,0.2-0.1,0.3c0,0.1-0.2,0.1-0.3,0.1c-0.1,0,0,0.1,0,0.1s0.3,0.4,0.3,0.6c0.1,0.2,0.2,0.5-0.1,0.7c-0.3,0.2-0.2,0.4-0.1,0.6
			c0.1,0.2,0.2,0.4,0.3,0.4s0.3,0,0.3,0.1s0,0.9,0,1c0,0.1-0.2,0.3-0.2,0.3c0.1,0,0.2,0.1,0.3,0.1c0.1,0.1,0.7,0.9,0.8,1
			c0.1,0,0.8,1.2,1,1.4c0.2,0.2,0.1,0.5,0.7,0.6c0,0,0,0,0.1,0c0,0.1,0,0.1,0,0.2c0,0.1-0.8,0.3-0.8,0.4c0,0.1,0.3,0.6,0.7,0.7
			c0.4,0.1,0.5,0,0.3,0.2c-0.1,0.2-0.7,0.5-0.7,0.7c0,0.2,0,0.3,0.2,0.3c0.2,0,0.5-0.1,0.4,0.1c-0.1,0.2-0.3,0.6-0.3,0.7
			c0,0.1,0.7,0.7,0.9,0.8c0.2,0,0.5,0,0.2,0.2c-0.3,0.2-1.9,1.3-2.2,1.5c-0.3,0.2-1.6,1.1-1.6,1.2c-0.1,0.1-0.3,0.3-0.3,0.1
			c0-0.2-0.1-0.4-0.3-0.4c-0.2,0-0.3,0-0.4-0.2c0-0.2-0.1-0.6-0.5-0.7c-0.4-0.1-0.7,0-0.6,0.1c0.1,0.1,0.1,0.3,0.1,0.4
			c0,0.1,0,0.4-0.1,0.4c-0.2,0-0.4,0.1-0.4-0.1c0-0.2-0.1-0.4-0.3-0.5c-0.2-0.1-0.5-0.2-0.6-0.3c-0.1-0.1-0.3-0.4-1.1,0
			c-0.2,0.1-0.1,0.3,0,0.4c0.1,0.1,0.4,0.2,0.4,0.3c0,0.1-0.1,0.1-0.3,0.1c-0.1,0-0.3,0.3-0.3,0.4c0,0.1-0.2,0.1-0.3,0.3
			c-0.1,0.1-0.5,0.4-0.7,0.4c-0.3,0-0.5,0-0.6,0c-0.1,0,0,0.2,0.1,0.2c0.1,0,0.5,0.5,0.5,0.6c0.1,0.1,0.7,0.6,0.9,0.6
			s0.2,0.1,0.2,0.1c0,0.1-0.6,0.5-0.6,0.7c0,0.2-0.1,0.8,0.1,1.1c0.2,0.4,0,0.3,0.3,0c0.2-0.3,0.5-0.4,0.7-0.4
			c0.2,0.1,0.1,0.3,0.7,0.3c0.6,0,1.4-0.5,1.5-0.7c0.1-0.2,0.4-0.3,0.3-0.1c-0.1,0.2-0.4,0.5-0.2,0.5c0.2,0,1.1,0,1.5-0.5
			c0.4-0.4,0.8-1,0.9-1.1c0.1-0.1,0.2,0,0.2,0.1c0,0.1-0.3,0.6-0.3,0.7c0,0.3-0.1,0.4,0.3,0.2c0.4-0.2,1-0.5,1-0.7
			c0-0.2,0.3-0.2,0.3,0c0,0.3-0.3,0.3-0.3,0.5c0,0.2,0.2,0.2,0.8,0c0.5-0.3,1.2-0.7,1.5-1.1c0.3-0.4,0.2-0.3,0.2,0
			c0,0.2-0.1,0.6,0.3,0.5c0.4-0.1,1.3-0.7,1.3-1c0-0.3,0-0.6,0.2-0.8c0.1-0.2,0.2-0.4,0.2,0c0,0.4,0,0.8,0.1,0.9
			c0.1,0.1,0.5,0,0.7-0.3c0.2-0.3,0.5-0.6,0.6-0.6c0.1,0,0.1-0.4,0.1-0.5c0-0.1,0-0.3,0.2-0.1c0.2,0.2,0.3,0.6,0.4,0.8
			c0,0.2,0,0.7,0.2,0.1c0.2-0.6,0.5-0.5,0.5-0.7c0-0.2,0.2-0.6,0.2-0.7c0-0.1,0.1-0.2,0.2,0.1c0,0.3,0,1,0.1,1c0.1,0,0.5,0,0.7,0
			c0.2,0,0.3,0.1,0.5,0.2c0.1,0.1,1.8,1.1,2.2,1.2c0.5,0.2,2.6,0.7,2.9,0.9c0.3,0.1,1,0.7,1.1,0.8c0,0,0.1,0,0.2,0
			c-0.2,0.1-0.4,0.1-0.6,0.1c-0.2,0-1.7-0.2-2.5,0c-0.8,0.1-2.2,1-2.5,1.1c-0.2,0.1-0.7-0.1-1.7,0c-1,0.1-1.8,0.4-3.3,1
			c-1.4,0.6-1.7,1.1-1.9,1.2c-0.1,0,0.3-0.2-0.3-0.2c-0.7,0-0.9,0.5-1.1,0.8c-0.2,0.3,0,1.5,0,2.2c0,0.7-0.2,1.6-0.3,1.7
			c-0.1,0.1-0.3,0.1-0.1,0.4c0.3,0.3,1,0.1,1.1,0c0.1-0.1,0.2-0.2,0.2,0c0,0.2-0.8,2.2-0.9,2.3c-0.1,0.1-0.4,0-0.4,0.1c0,0,0,0,0,0
			c0,0,0,0.2-0.2,0.7c-0.4,1-2.2,2.2-2.5,2.2c-0.3,0-0.5-0.3-0.5-0.4c-0.1-0.1,0.1-0.4-0.1-0.7c-0.2-0.3-0.5-0.4-1.3-0.4
			c-0.8,0-1,0.3-1.2,0.5c-0.2,0.2,0,0.3,0.1,0.3c0.1,0,0.5,0.2,0.6,0.3c0.1,0.1-0.3,0-0.4,0c-0.1,0-0.1,0.1-0.1,0.1
			c0,0.1-0.2,0-0.6,0.1c-0.5,0.1-0.6,0.8-0.6,1.2c0,0.5,0.4,0.1,0.4,0c0.1-0.1,0.5,0,0.5,0c0.1,0-0.1,0.2-0.1,0.4
			c0,0.1,0.4,0.3,0.4,0.4c0,0.1,0.3,0-0.1,0.4c-0.4,0.4-0.1,1,0,1.2c0.1,0.2,0.5,0.2,0.5,0.1c0-0.1,0.4-0.5,0.5-0.5
			c0.1,0,0,0.1,0.3,0.4c0.3,0.2,1.6-0.2,1.7-0.3s0.2-0.2,0.3-0.2c0.1,0,0,0.5,0,0.6c0,0.2,0.2,0.2,0.5,0.1c0.3-0.1,0.8-0.7,0.8-0.8
			c0.1,0-0.1,0.1,0.2,0.5c0.2,0.3,0.6,0.2,0.7,0.2c0.2,0.1,0.1,0.6,0.1,0.7c0,0.1-0.4,0.2,0,0.2c0.4,0,0.5-0.2,0.7-0.4
			c0.2-0.2,0.3-0.7,0.3-0.8c0-0.1,0-0.1,0.1-0.1c0.1,0,0.2,0.1,0.4,0c0.2-0.1,0.5-0.6,0.5-0.7c0-0.1,0.1-0.3-0.1-0.4
			c-0.1-0.1-0.4-0.4-0.4-0.6c0-0.2,0.1-0.2,0.3-0.1c0.2,0.1,0.3,0.4,0.2,0.7c-0.1,0.3,0.1,0.2,0.3,0.1c0.2-0.1,0.5-0.5,0.6-0.6
			c0.1-0.1,0.1-0.6,0.1-0.8c0-0.2,0.1-0.2,0.1-0.2c0.1,0.1,0.1,0.4,0.1,0.5c0,0.4,0.2,0.3,0.4,0.2c0.2-0.1,0.5-0.7,0.5-1
			c0-0.3-0.5-0.8-0.5-0.8c0,0-0.2-0.1-0.1-0.2c0.1-0.1,0.5,0,0.8,0.2c0.3,0.2,0.4,0.6,0.5,0.6c0.5-0.3,0.5-0.8,0.5-1.1
			c0-0.4-0.4-0.9-0.5-1c-0.1-0.1,0-0.2,0.1-0.2c0.1,0,0.8,0.1,0.9,0.3c0.2,0.1,0.1,0.3,0.5,0.2c0.3-0.1,0.5-0.7,0.4-1
			c-0.2-0.3-0.8-0.9-0.8-1c-0.1-0.1-0.2-0.2-0.1-0.2c0.1,0,0.6,0,0.8,0.1c0.2,0,0.3,0.2,0.3,0.2s0.3-0.2,0.2-0.6
			c-0.1-0.4-0.3-0.6-0.4-0.7c0-0.1,0.2-0.3,0.2-0.4c0-0.1-0.1-0.4,0-0.5c0.2,0,0.2,0.1,0.3,0.3c0.1,0.2,0,0.4,0.2,0.5
			c0.2,0.1,0.3-0.1,0.4-0.3c0.1-0.1,0.1-0.8,0.1-1c0-0.2,0-0.3,0.1-0.2c0.1,0.1,0.3,0.3,0.5,0.5c0.2,0.2,0.2,0.9,0.2,1
			c0,0.1,0,0.1,0.2,0c0.2-0.1,0.4-0.6,0.4-0.7c0-0.1,0-0.4,0.2-0.2c0.2,0.2,1.2,0.2,1.3,0.2c0.1,0,0.1-0.2,0-0.4
			c-0.1-0.1-0.4-0.7-0.5-0.7c-0.1-0.1-0.1-0.1,0-0.2c0-0.1,0.5-0.3,1-0.5c0.5-0.2,1.4-0.3,2.1-0.3c0.7,0,2-0.6,2.2-0.7
			c0.2-0.1,0.2,0.1,0.1,0.1c0,0-0.2,0.3-0.4,0.7c-0.1,0.4-0.1,1.2,0.1,1.7c0.1,0.4,1.3,3.1,1.3,3.4s-0.3,0.8-0.4,1.1
			c-0.1,0.3,0.2,0.6,0.8,0.7c0.6,0.1,1-0.5,1-0.5c0-0.1,0.1-0.2,0.2-0.2c0.1,0,0.1,0.1,0.2,0.1c0,0.1,0.5,0,0.6,0
			c0.2,0,0.6-0.6,0.6-0.7c0-0.1,0.1-0.2,0.1-0.1c0,0,0.2,0.1,0.4,0.2c0.1,0.1,0.9,0,1,0s0.4,0.9,0.4,1.2c0,0.3-0.3,0.6-0.5,0.8
			c-0.1,0.2-0.1,0.5-0.1,0.8c0.1,0.3-0.1,1-0.2,1.2c-0.1,0.3-0.5,0.2-0.7,0.2c-0.2,0-0.3,0.1-0.5-0.1c-0.1-0.2-0.6-0.6-0.8-0.7
			c-0.2-0.1-0.3,0.1-0.5,0.3c-0.3,0.2-0.1,0.4,0,0.4c0.1,0.1,0.1,0.3,0.1,0.3c0,0-0.3,0.1-0.4,0.1c0,0.1-0.2,0-0.5,0
			c-0.2,0-0.2,0.2-0.3,0.2c-0.1,0-0.2-0.2-0.6-0.1c-0.5,0-0.7,0.5-0.7,0.7c0,0.2,0,0.2,0,0.2s0.1-0.1,0.3-0.2c0.2,0,0.5,0.2,0.5,0.3
			c0.1,0.1,0.1,0.3,0.1,0.3c0,0-0.3,0.1-0.5,0.3c-0.2,0.2-0.2,0.6-0.1,0.7c0,0.1,0.3,0.4,0.4,0.5c0.1,0.1,0.1,0.1,0.1,0
			c0-0.1,0.3-0.4,0.4-0.5c0.1-0.1,0.1,0,0.2,0.1c0,0.1-0.1,0.6,0,0.9c0.1,0.2,0.6,0.6,0.7,0.7c0.1,0.1,0.2,0.2,0.2,0.1
			c0-0.1,0-0.7,0.1-0.8c0.1-0.1,0.4,0,0.7,0.1c0.3,0.1,0.8,0.1,0.9,0c0.1-0.1,1.1-0.8,1.1-0.9c0.1-0.1,0.1,0,0.1,0.1
			c0,0.1-0.1,0.8,0,0.8c0.1,0,0.5,0.1,0.9-0.1s0.5-0.9,0.6-1c0-0.1-0.3-0.6,0.3-0.1c0.5,0.5,1.3,0.3,1.6,0.1
			c0.3-0.1,0.2-0.3,0.1-0.4c-0.1-0.1-0.7-0.6-0.8-0.7c-0.1-0.1,0.1-0.4,0.5-0.7c0.4-0.4,0.8-1.1,0.9-1.2c0.1-0.1,0.2-0.1,0.3-0.1
			c0.1,0.1,0.4,0.5,0.5,0.7c0.1,0.2,0.1,0.2,0.3,0.1c0.1-0.1,0.5-0.5,0.5-0.9c0-0.2-0.1-0.6-0.1-0.7c0,0,0-0.3,0.3,0.2
			c0.3,0.5,0.4,0,0.5-0.2c0.1-0.2,0.2-0.9,0.1-1.1c-0.1-0.1,0-0.3,0.1-0.3c0.1,0,0.4,0.3,0.6,0.4c0.2,0.1,0.2,0,0.3-0.1
			c0.1-0.1,0.1-0.7,0.1-1c0-0.3-0.3-0.7-0.4-0.8c0-0.1,0.1-0.2,0.2-0.3c0.1-0.1,0.1-0.5-0.3-1.2c-0.4-0.7-1.5-1.7-1.6-1.7
			c-0.1,0-0.2,0-0.1-0.1c0.1-0.1,0.1-0.1,0-0.4c-0.1-0.2-0.8-0.7-0.9-0.7c-0.1,0-0.1-0.1,0-0.1c0.1,0,0.2,0.1,0.4,0.2
			c0.3,0.1,0.3,0.1,0.3-0.2c0-0.1-0.4-0.5-0.5-0.6c-0.1-0.1-0.4,0-0.4-0.1c0-0.1,0-0.1,0.1-0.2c0.1-0.1,0-0.8,0-1.1
			c0-0.2-0.2-0.2-0.3-0.1c-0.1,0.2-1.2,0.5-1.4,0.5c-0.2,0-0.3-0.1-0.4-0.1c-0.1-0.1-0.1-0.2,0-0.1c0.1,0,0.5,0,0.6,0
			c0.1,0,0.2-0.1,0.1-0.1c-0.1,0-0.2-0.3-0.2-0.4c0-0.1,0-1.3,0-1.6c0-0.2,0-0.3-0.1-0.5c-0.1-0.2,0.1-0.2,0.1-0.2
			c0.1,0,0.3,0.1,1,0.4c0.7,0.3,2.3,0.4,2.9-0.1c0.6-0.5,1.3-1.1,1.6-1.2c0.3-0.1,0.1-0.3,0.8-3.1c0.4-1.5,0.3-2.8-0.7-4.4
			c-1-1.6-2.1-2.5-2.3-2.8c-0.1-0.2-0.2-0.2,0-0.3c0.6-0.6,2.1-2.2,2.5-2.9c0.5-0.7,0.6-1.4,0.5-1.8c0-0.4,0-1-0.1-1.2
			c-0.1-0.2,0.1-0.2,0.1-0.2c0.1,0.1,0.5,0.4,1.1,0.8c0.6,0.4,1.5,0,1.6-0.1C-212.2,384.9-211.9,384.6-212.3,384.6L-212.3,384.6z
			 M-234.1,375.6c-0.1,0-0.1-0.1-0.1-0.1c-0.1,0,0-0.1,0-0.2c0.1,0,0.1-0.1,0.1-0.1C-234,375.2-234,375.6-234.1,375.6L-234.1,375.6z
			 M-235.2,382.8c-0.1,0-0.3,0.1-0.4-0.2C-235.4,382.6-235.2,382.6-235.2,382.8C-235.1,382.8-235.1,382.8-235.2,382.8L-235.2,382.8z
			 M-234.9,380.9c0,0.1,0,0.6,0,0.7c0,0.1-0.2,0.3-0.3,0.3c-0.1,0-0.4,0.1-0.5,0c-0.1-0.1-0.1-0.2-0.1-0.2c0-0.3-0.1-0.9,0-0.9
			c0.1-0.1,0.2-0.3,0.4-0.3c0.1,0,0.5,0.1,0.5,0.2C-234.8,380.8-234.9,380.8-234.9,380.9L-234.9,380.9z M-218.1,393
			c0.2,0.3,1.4,1.8,1.3,3.8c0,2-1.1,2.9-1.2,3c-0.2,0.1-0.2,0-0.1-0.1c0.1-0.1,0.1-0.9-0.2-1.6c-0.3-0.7-1-2.3-1.4-3
			c-0.4-0.7-0.3-1.9-0.3-2.4c0-0.5,0.2-1,0.4-1.2c0.1-0.1,0.5,0,0.6,0C-218.9,391.8-218.3,392.8-218.1,393L-218.1,393z
			 M-216.9,386.9c-0.2,0.3-1.9,1.8-2.2,2.1c-0.1,0.1-0.1,0-0.2,0c-0.1-0.1-0.4-0.6-0.5-0.7c-0.1-0.1,0-0.2,0-0.2
			c0.1,0,0.2,0.2,0.3,0.3c0.2,0,0.1-0.1,0.1-0.3c0-0.2,0.2-0.6,0.3-0.8c0.1-0.2,0.3-0.7,0.3-0.8c0.1-0.1,0.5,0,0.7-0.1
			c0.1,0,0.5-0.4,0.5-0.6c0.1-0.2,0-0.4-0.2-0.4c-0.2,0-0.5-0.3-0.5-0.5c0-0.2,0.3-0.4,0.4-0.5c0.1-0.1,0.3-0.2,0.6-0.1
			c0.4,0.2,0.7,0.5,0.8,1C-216.4,385.8-216.7,386.6-216.9,386.9L-216.9,386.9z M-215.9,383.3c-0.1-0.2-0.9-0.6-1.7-0.6
			c-0.8,0-1.6,0.6-1.9,0.9c-0.3,0.3-0.7,0.4-0.9,0.4c-0.2,0-0.4-0.2-0.4-0.3c0-0.2-0.1-0.2-0.2-0.1c-0.1,0.1-0.7,0.6-0.5,1.4
			c0.2,0.9,0.8,0.7,0.9,0.7c0,0,0,0.5,0,0.6s0.2,0.2-0.1,0.2c-0.2,0-0.5-0.3-0.9-0.9c-0.4-0.7-0.6-1.9-0.7-2.5
			c-0.1-0.6,0.1-0.9,0.2-1c0.1-0.1,0.2-0.6,0.3-0.9c0.1-0.2,0.6-2.1,2.3-2.1c1.7,0,2.1,1.2,2.1,1.5c0.1,0.3,0,1.2,0,1.3
			c0,0.1,0,0.1,0.3,0.1c0.3,0,0.6-0.3,0.7-0.4c0.1-0.1,0.1,0,0.1,0.3c0,0.3,0.3,0.9,0.4,1.2C-215.7,383.5-215.8,383.5-215.9,383.3
			L-215.9,383.3z"/>
		<path class="st4" d="M-232.2,375c-0.1,0-0.2,0-0.2,0.1c0.1,0.1,0.3,0.2,0.4,0.1C-232,375.2-232.1,375-232.2,375L-232.2,375z
			 M-230.8,374.8c-0.1,0-0.2,0.1-0.2,0.2c0,0.1,0.2,0.3,0.2,0.3c0,0,0.1,0,0.2,0c0.1-0.1,0.2-0.2,0.1-0.3
			C-230.5,374.9-230.6,374.8-230.8,374.8L-230.8,374.8z M-229.1,375.3c-0.1,0-0.2,0-0.1,0.1c0,0.1,0.1,0.2,0.3,0.1
			C-228.9,375.5-228.9,375.3-229.1,375.3L-229.1,375.3z M-236.4,381.2c0.1,0.3,0.3,0.4,0.3,0.4l0-0.4H-236.4L-236.4,381.2z
			 M-236.1,382.9v0.1l0.4-0.1c0-0.1-0.1-0.3-0.1-0.3C-235.8,382.5-236.1,382.6-236.1,382.9L-236.1,382.9z M-234.5,378.2l0,0.6
			c0,0,0.6,0,0.7-0.3C-233.8,378.2-234.5,378.2-234.5,378.2L-234.5,378.2z"/>
		<path class="st5" d="M-250.4,414c0-0.1,0.1-0.1,0.1-0.4c0-0.3-0.2-0.6-0.4-0.7c-0.3,0-0.6,0.1-0.7,0.5c-0.1,0.3,0,0.4,0,0.4
			c0,0,0.1-0.1,0.2-0.2c0.1,0,0.6-0.1,0.6,0.2C-250.6,414.1-250.4,414.1-250.4,414L-250.4,414z M-249.6,415.2
			c-0.2-0.1-0.4-0.2-0.6-0.1c-0.2,0.1-0.4,0.6-0.3,0.8c0.1,0.2,0.1,0.3,0.2,0.3c0,0,0.1,0.1,0.1-0.1c0-0.1,0.4-0.3,0.5-0.4
			c0.2,0,0.4-0.1,0.3-0.3C-249.5,415.2-249.6,415.2-249.6,415.2L-249.6,415.2z M-249.3,394.6c-0.2,0-0.1,0.1-0.1,0.2
			c0,0,0,0.6,0,0.6c-0.1,0.1-0.2,0.2-0.1,0.3c0.1,0.1,0.4,0.1,0.5,0.1c0.1,0,0.2-0.3,0.2-0.3c0.1-0.1,0.1-0.3,0.1-0.4
			C-248.7,394.9-248.8,394.7-249.3,394.6L-249.3,394.6z M-249,377.1c-0.3,0-0.3,0.2-0.4,0.3c-0.1,0.1-0.1,0.1,0,0.1
			c0.1,0,0.6,0.3,0.6,0.5c0,0.1,0.1,0.2,0.2,0.1c0.1-0.1,0.3-0.4,0.4-0.5c0-0.1-0.1-0.2-0.1-0.2C-248.4,377.3-248.7,377.1-249,377.1
			L-249,377.1z M-252.4,397.4c0.1-0.2,0-0.4,0-0.4c0-0.2,0-0.5-0.2-0.6c-0.2-0.1-0.8,0.2-0.8,0.2c-0.1,0-0.1,0.1,0,0.2
			c0.1,0.1,0.6,0.6,0.7,0.6C-252.7,397.4-252.5,397.6-252.4,397.4L-252.4,397.4z M-251.8,394.7c0.1,0,0.3,0.4,0.3,0.5
			c0,0.1-0.2,0.2,0.1,0.3c0.5,0.1,0.5-0.1,0.5-0.1c0-0.3,0.1-0.6-0.2-0.7c-0.2-0.1-0.5-0.1-0.8,0
			C-252.1,394.6-251.9,394.6-251.8,394.7L-251.8,394.7z M-251.8,398.5C-251.8,398.4-251.9,398.4-251.8,398.5
			c-0.1-0.1-0.2-0.2-0.3-0.1c-0.1,0.1-0.5,0.2-0.5,0.6c0,0.4,0.1,0.5,0.1,0.5c0.1,0,0.2-0.3,0.4-0.3c0.1-0.1,0.4-0.1,0.5,0
			c0.1,0.1,0.2,0,0.1-0.2C-251.6,398.8-251.7,398.5-251.8,398.5L-251.8,398.5z M-249.2,380.7c0.4,0.1,0.5-0.2,0.5-0.2
			c0-0.3-0.1-0.5-0.4-0.5c-0.1,0-0.5-0.3-0.6-0.4c-0.1-0.1-0.1,0-0.1,0s-0.1,0.4,0.1,0.5C-249.6,380.4-249.3,380.6-249.2,380.7
			L-249.2,380.7z M-246.7,376.1c-0.2-0.1-0.4,0-0.3,0.1c0.1,0.1,0.1,0.7,0.1,0.9c-0.1,0.2,0.1,0.4,0.2,0.4c0.4,0,0.5-0.6,0.5-0.6
			C-246.2,376.6-246.3,376.3-246.7,376.1L-246.7,376.1z M-250.1,411.8c-0.2,0.1-0.2,0.2-0.3,0.3c0,0.1,0,0.1,0.1,0.1
			c0.2,0,0.3,0,0.4,0.1c0.1,0.1,0.2,0.3,0.3,0.4c0.1,0.1,0.2,0.1,0.3-0.1c0.1-0.1,0.2-0.4,0-0.6
			C-249.5,411.8-249.7,411.6-250.1,411.8L-250.1,411.8z M-228,415.5c-0.1,0-0.4-0.1-0.7,0.2c-0.3,0.2,0,0.1,0.1,0.1
			c0,0,0.4,0.3,0.4,0.4c0,0.1,0.1,0.1,0.2,0c0.1-0.1,0.2-0.2,0.2-0.2C-227.7,415.8-227.9,415.5-228,415.5L-228,415.5z M-227.1,417.8
			c-0.1-0.1-0.2-0.2-0.4-0.1c-0.2,0.2-0.1,0.6-0.1,0.6c0,0.1,0.2,0.3,0.3,0.3c0.1,0,0.1,0,0.1-0.1c0-0.1,0.1-0.3,0.2-0.3
			c0.1,0,0.2-0.2,0.1-0.3C-227,418-227.1,417.8-227.1,417.8L-227.1,417.8z M-228.2,416.9c-0.1,0-0.4,0.1-0.4,0.4
			c0,0.3,0.1,0.3,0.1,0.4c0.1,0.1,0.2,0,0.2,0c0-0.1,0.1-0.3,0.3-0.3c0.1,0,0.2-0.2,0.1-0.3C-228.1,417-228.2,416.9-228.2,416.9
			L-228.2,416.9z M-225.9,414.4c-0.1,0-0.5-0.1-0.6,0.1c-0.1,0.1,0,0.1,0.1,0.2c0.1,0,0.3,0.4,0.3,0.4c0,0.1,0,0.2,0.2,0.1
			c0.2,0,0.3-0.1,0.3-0.1c0.1-0.1,0.2-0.1,0.2-0.2C-225.5,414.9-225.8,414.5-225.9,414.4L-225.9,414.4z M-244.1,416.1
			c0-0.3-0.2-0.5-0.4-0.5c-0.2,0-0.4,0.2-0.4,0.4c0,0.2,0.1,0.3,0.2,0.5c0.1,0.2,0,0.6,0,0.6c0,0,0.1,0.1,0.1,0
			c0.1-0.1,0.5-0.4,0.5-0.9C-244.2,416.1-244.1,416.1-244.1,416.1L-244.1,416.1z M-244.4,377.1c0.2-0.3-0.2-0.9-0.4-0.9
			c0,0-0.1,0.4-0.2,0.6c-0.1,0.1-0.3,0.2-0.2,0.4c0,0.2,0.2,0.3,0.2,0.3C-244.8,377.5-244.5,377.4-244.4,377.1L-244.4,377.1z
			 M-237.6,381.8c-0.5-0.1-0.9-0.4-1-0.7c-0.1-0.2,0.1-0.2,0.2-0.1c0,0.1,0.3,0.1,0.2-0.1c0-0.2,0.1-0.4-0.4-0.6
			c-0.5-0.3-0.8,0-0.9,0.2c-0.1,0.2-0.2,0.7,0.4,1.2c0.6,0.5,1,0.4,1.6,0.5c0.1,0,0.8,0.1,1.2,0.1c0.3,0,0.6,0,0.7,0.1
			c0.1,0.1,0.5,0.2,0.5,0.2c-0.1-0.1-0.6-0.5-1-0.5C-236.5,382-237.1,381.9-237.6,381.8L-237.6,381.8z M-227.9,377.5
			c0.1-0.2,0.1-0.4,0-0.4c-0.2,0-1-0.2-1.2-0.3c-0.2,0-1.4-0.3-1.7-0.3c-0.7-0.1-2.6-0.1-2.6-0.1c-0.1,0-0.4,0.1-0.4,0.3
			s0.2,0.3,0.4,0.3c0.3,0,1.6,0.2,1.8,0.2c0.2,0,0.3,0.1,0.7,0.1c0.5,0,0.3-0.3,0.9-0.4c0.5-0.1,0.4-0.1,0.5,0.1
			c0.1,0.2,0,0.5,0.1,0.5c0.1,0,0.6,0.1,0.8,0.1C-228.3,377.7-227.9,377.7-227.9,377.5L-227.9,377.5z M-226.9,375
			c-0.2,0.1-0.3,0-0.3,0.1c0,0.1-0.2,0.1-0.2,0.2c-0.1,0.1-0.1,0.1-0.1,0c0-0.1,0-0.2,0-0.2c-0.1,0-0.5,0-0.5,0
			c0,0.1-0.1,0.2-0.1,0.3c0,0.1,0.1,0.2,0.1,0.3c0,0.1,0,0.2-0.1,0.2c0,0-0.1,0.3-0.5,0.3c-0.3,0-0.3-0.2-0.4-0.2
			c-0.1-0.1-0.1-0.2-0.3-0.2c-0.1,0-0.2,0.1-0.2,0.2c-0.1,0-0.5,0.1-0.6,0c-0.1-0.1-0.1-0.2-0.2-0.3c-0.1-0.1,0.1-0.2,0.1-0.2
			c0.1,0,0.5-0.1,0.5-0.3c0-0.1,0-0.3-0.4-0.3c-0.1,0-0.1-0.2-0.1-0.3c0-0.1,0.2-0.3,0.1-0.4c-0.1-0.1-0.2-0.2-0.4-0.2
			c-0.2,0-0.4,0.2-0.4,0.3c0,0.1-0.1,0.4,0.1,0.4s0.1-0.1,0.2-0.1c0.1,0,0.2,0.1,0.3,0.1s0.2,0.1,0.2,0.2c0,0.1-0.1,0.3-0.1,0.4
			c0,0.1-0.2,0.2-0.5,0.1c-0.3-0.1-0.1-0.4-0.2-0.5c-0.1-0.1-0.3,0-0.4,0.1c-0.1,0.1-0.2,0.2,0,0.3c0.2,0.2,0.3,0.2,0.3,0.3
			c0,0.1-0.2,0.3-0.4,0.2c-0.2,0-0.5-0.2-0.5-0.3c0-0.1-0.2-0.2-0.3-0.1c-0.1,0.1-0.4,0.4-0.5,0.4c-0.1,0-0.4-0.2-0.5-0.2
			c-0.1,0-0.1-0.2,0.1-0.3c0.2-0.1,0.3-0.2,0.4-0.4c0-0.1-0.1-0.4-0.3-0.4c-0.1,0-0.3,0-0.4-0.1c-0.1-0.1-0.1-0.2-0.1-0.2
			c-0.1-0.2-0.1-0.3-0.3-0.3c-0.1,0-0.3-0.1-0.4,0c0,0.1-0.2,0.1-0.1,0.2c0.1,0.1,0.1,0.2,0.2,0.3c0.1,0.1,0.3,0.3,0.4,0.4
			c0.1,0.1,0.2,0.2,0.2,0.3c0,0.1,0.1,0.4,0,0.4c0,0-0.1,0-0.1,0.2c0,0.2,0.3,0.4,0.4,0.4c0.1,0.1,0.2,0.1,0.5,0.1
			c0.3,0,0.1-0.1,0.2-0.2c0.1-0.1,0.2-0.2,0.3-0.2c0.1,0,0.2,0.1,0.2,0.1c0.1,0.1,0.1,0.2,0.3,0.2c0.2,0,0.4,0,0.5,0
			c0.1,0,0.1-0.1,0.2-0.2c0.1-0.1,0.3-0.2,0.3-0.2c0.1,0,0.3,0.3,0.3,0.4c0.1,0.1,0.1,0.2,0.2,0.2c0.2,0,0.5,0,0.6,0
			c0.1,0,0.3-0.2,0.3-0.2c0.1,0,0.1,0.1,0.2,0.1c0.1,0.1,0.4,0.3,0.6,0.2s0.2,0.1,0.3,0.1c0.1,0,0.3-0.2,0.3-0.3
			c0-0.1,0.1-0.1,0.2-0.4c0.1-0.3,0.4-0.3,0.4-0.3c0.1,0,0.4-0.4,0.5-0.5c0.1-0.1,0.2-0.1,0.2-0.2C-226.6,375-226.6,374.9-226.9,375
			L-226.9,375z"/>
		<path class="st6" d="M-249.1,396.2c0.5,0,0.9-0.3,0.9-0.3c0.1-0.1,0.1-0.4,0-0.4c-0.1-0.1-0.2,0-0.3,0.1c-0.2,0.1-0.2,0.3-0.3,0.3
			c-0.1,0.1-0.5,0.1-0.6,0c-0.1-0.1-0.4-0.3-0.4-0.3c-0.1,0-0.3,0.1-0.2,0.2C-250,395.9-249.3,396.2-249.1,396.2L-249.1,396.2z
			 M-248.2,397.2c0.2-0.1,0.3,0.1,0.4,0.2c0.1,0.1,0.1,0.3-0.1,0.2c-0.2-0.1-0.5,0.2-0.5,0.3s-0.1,0.4-0.2,0.6
			c-0.1,0.2-0.3,0.5-0.2,0.4c0.1,0,0.4-0.2,0.7-0.4c0.3-0.2,0.9-0.9,0.9-1c0-0.1,0.2-0.3,0.2,0c0,0.2,0.2,0,0.2-0.1
			c0-0.1,0.3-0.5,0.5-0.7c0.1-0.1,0.4-0.2,0.5-0.1c0.2,0.1,0.2,0.4,0,0.3c-0.2,0-0.5,0.1-0.5,0.3c0,0.2-0.3,1-0.1,0.9
			c0.2-0.1,0.8-0.9,0.9-1.2c0.1-0.3,0.5-0.3,0.7-0.4c0.2-0.1,0.2,0.1,0.1,0.2c-0.1,0.1-0.3,0.3-0.3,0.6c0,0.2-0.3,0.7-0.2,0.8
			c0.1,0.1,0.5-0.1,0.9-0.4c0.3-0.3,0.6-1,0.7-1.1c0.1-0.1,0.5-0.7,0.7-0.9c0.2-0.1,0.4,0.1,0.2,0.2c-0.1,0.1-0.4,0.5-0.4,0.6
			c0,0.1-0.1,0.9,0,0.9c0.1,0,0.5-0.3,0.7-0.6c0.2-0.3,0.2-0.5,0.2-0.7c0-0.1,0.1-0.4,0.3-0.7c0.2-0.3,0.4-0.2,0.4-0.5
			c0-0.3,0.4-0.6,0.5-0.4c0.1,0.1-0.2,0.4-0.2,0.7c0,0.3-0.1,1,0.1,1c0.2,0,0.5-0.5,0.6-0.7c0.1-0.2,0.4-1.2,0.5-1.3
			c0.1-0.2,0.3-0.2,0.3-0.1c0,0.1-0.3,0.5,0.1,1c0.3,0.4,0.4,0.8,0.4,0.6c0-0.2,0.1-0.7,0.2-1c0-0.2,0-1,0-1.2c0-0.2,0.3-0.1,0.3,0
			c0,0.1,0.3,0.7,0.5,1c0.2,0.2,0.3,0.8,0.3,0.8s0.2-0.2,0.3-0.4c0.1-0.2,0-0.6,0-0.7c0-0.1,0-0.4,0.1-0.2c0.1,0.1,1.6,0.5,1.1,0.1
			c-0.5-0.4-0.7-1.5-0.6-2.2c0.1-0.7,1.1-1.2,1.3-1.3c0,0,0-0.2-0.1-0.3c-0.1-0.1-0.2-0.7-0.2-0.8c0-0.1-0.2-0.2-0.2-0.1
			c-0.1,0.1-0.5,0.7-0.6,0.9c-0.1,0.2-0.3,0.2-0.3,0.1c-0.1-0.1-0.6-0.5-0.5-0.8c0-0.3-0.1-0.6-0.1-0.6s-0.3,0.5-1.2,0.7
			c-0.3,0-1.2,0-1.7,0.2c-0.5,0.2-1.7,1.8-1.9,2.1c-0.2,0.3-1.8,1.6-2.1,1.8c-0.3,0.2-2,1.1-2.4,1.5c-0.4,0.4-1,0.8-1.8,0.9
			c-0.8,0.1-1.1-0.2-1.3-0.4c-0.3-0.1-0.2-0.5-0.2-0.8c0-0.3-0.2-0.3-0.2-0.1c0,0.2-0.2,0.4-0.3,0.5c-0.1,0.1-0.7,0-0.9,0
			c-0.2-0.1-0.3,0.1-0.1,0.4c0.1,0.3,0.6,0.3,0.7,0.3c0.1,0,0,0.2-0.1,0.2c-0.1,0-0.5-0.1-0.6-0.1c-0.1,0-0.2,0-0.2,0.2
			c0,0.1,0,0.8,0,0.9c0.1,0.1,0.4,0,0.5-0.1c0.1-0.1,0.4,0,0.4,0c0.1,0.2-0.2,0.3-0.5,0.4c-0.2,0.1-0.2,0.3-0.1,0.4
			c0.1,0.1,0.3,0.4,0.4,0.5c0.1,0.2,0,0.4,0.4,0.5c0.4,0.1,1.3-0.6,1.6-0.9C-249.2,398-248.3,397.3-248.2,397.2L-248.2,397.2z
			 M-248.5,380.4c0,0.3-0.2,0.4-0.1,0.4c0.1,0,0.6,0,0.8-0.1c0.3-0.2,0.5-0.4,0.6-0.2c0.1,0.1,0,0.3-0.1,0.4c-0.1,0-0.3,0.4-0.3,0.6
			c0,0.3-0.1,0.5-0.1,0.5c-0.1,0.1-0.2,0.1-0.1,0.2c0.1,0,0.1,0.1,0.3,0c0.2-0.2,0.3-0.2,0.3-0.1s-0.2,0.4-0.2,0.6
			c0,0.1-0.2,0.5-0.2,0.7c0,0.1-0.3,0.3-0.2,0.4c0,0.1,0.3,0.2,0.5,0.1c0.2,0,0.6-0.2,0.4,0.1c-0.2,0.3-0.3,0.2-0.3,0.5
			c0,0.3,0,1,0,1.1c0,0.1,0.1,0,0.2,0.2c0.1,0.1,0.7,0.8,0.9,1.2c0.3,0.4,0.5,0.9,0.9,1.2c0.4,0.3,0.8,0.4,0.9,0.4
			c0.1,0,1.5-1.5,1.5-1.5s-0.5-0.5-0.6-0.6c-0.1,0-0.1-0.3,0.1-0.3c0.2,0,0.2,0,0.2,0l1.8-0.7c-0.2-0.2-2-1.8-2.3-2.1
			c-0.3-0.2-1.5-1.3-1.7-1.8c-0.3-0.6-0.2-1.5-0.1-1.8c0.1-0.2,0-0.5,0.1-0.6c0.1,0,0.9-0.8,1-1.1c0-0.2,0.1-0.3-0.1-0.3
			c-0.2,0-0.6,0.1-0.6,0c-0.1-0.1-0.1-0.3-0.2-0.3c-0.1,0-0.2,0-0.2,0.1c0,0.1,0,0.3-0.2,0.4c-0.1,0,0-0.7-0.1-0.8
			c-0.1-0.1-0.1-0.2-0.2,0c-0.1,0.2-0.3,0.5-0.5,0.5c-0.2,0-0.5-0.2-0.5-0.3c0-0.1-0.2-0.1-0.2,0c0,0.1,0,0.2,0.1,0.3
			c0.1,0.1,0.1,0.3,0,0.3c-0.1,0.1,0,0-0.2-0.2c-0.1-0.2-0.2-0.3-0.3-0.4c-0.1-0.1-0.3-0.1-0.3,0.1s-0.1,0.4-0.2,0.6
			c-0.1,0.2-0.4,0.4-0.5,0.5c-0.1,0.1-0.1,0.4,0,0.4c0.1,0,0.5,0.2,0.7,0.2c0.2,0,0.3,0.1,0.2,0.2c-0.1,0.1-0.7,0.4-0.9,0.4
			c-0.2,0-0.3,0.1-0.1,0.2C-248.7,379.9-248.5,380.1-248.5,380.4L-248.5,380.4z M-236.5,392.1c0,0.2,0.9-0.6,0.8-0.9
			C-235.9,391.3-236.5,391.9-236.5,392.1L-236.5,392.1z M-242.6,386.1c-0.2,0-0.7,0.1-0.1,0.2c0.6,0.1,0.9-0.1,1-0.1
			c0.2,0,0.3,0.2,0.2,0.3c-0.1,0.1-0.3,0.2-0.5,0.3c-0.2,0.1-1.3,1.1-1.5,1.4c-0.2,0.3-1.3,1.1-1.5,1.1c-0.2,0.1-0.3,0.1-0.2,0.2
			c0.1,0.1,0.7,0.1,0.8,0.1c0.2,0,0.5-0.6,1-0.6c0.5-0.1,0.2,0.3-0.1,0.4c-0.3,0.1-0.5,0.4-0.6,0.6c-0.1,0.2-0.3,0.5-0.6,0.6
			c-0.2,0.1-0.1,0.2,0,0.2c0.1,0,0.5,0.1,0.7,0.1c0.3,0,0.4-0.2,0.6-0.7c0.3-0.5,0.5-0.6,0.7-0.6c0.2,0,0.4,0.2,0.1,0.3
			c-0.3,0.1-0.3,0.5-0.5,0.8c-0.2,0.3-0.3,0.8-0.5,1c-0.2,0.2-0.8,0.3-0.9,0.3c-0.1,0-0.2,0.2-0.1,0.2c0.1,0,1,0.3,1.3,0.1
			c0.2-0.2,0.7-0.7,0.8-0.9c0.1-0.3,0.4-0.5,0.4-0.6c0.1-0.1,0-0.9,0-1.4c0.1-0.5,0.3-0.5,0.8-1.1c0.4-0.5,0.9-0.7,1.2-0.7
			c0.3,0,0.3,0.2-0.1,0.4c-0.9,0.4-1.3,1.1-1.4,1.4c-0.1,0.3,0,0.9,0,0.8c0-0.1,1-0.7,1.5-0.7c0.5,0,1.5-0.1,1.7-0.2
			c0.3-0.1,0.9-0.8,1.1-0.9c0.2-0.1,0.5,0.1,0.2,0.2c-0.3,0.1-0.5,0.5-0.5,0.9c0,0.5,0.3,0.9,0.3,0.6c0-0.3,0.3-0.4,0.8-0.8
			c0.4-0.3,0.5-0.3,0.7-0.2c0.1,0,0.1,0.1,0,0.2c-0.1,0.1-0.1,0-0.1,0.3c0,0.5,0.2,0.1,0.2,0.3s0.1,0.5,0.2,0.7
			c0.1,0.2,0,0.9-0.1,1.2c-0.2,0.2-0.1,0.6-0.1,0.6c1.1,0.1,1.4-0.4,1.8-1c0.4-0.6,0.3-1.6,0.3-1.8c0-0.2,0.1-0.3,0.3-0.2
			c0.2,0.1,0.2,0.8,0.2,1c0,0.1,0.1,0.3-0.1,0.6c-0.2,0.2,0,0.3,0,0.4c0.1,0.1,0.1,0.3,0.1,0.6c0,0.2,0,0.3,0.1,0.2
			c0.2-0.1,0.6-0.9,0.6-1.1c0-0.3,0.1-0.3,0.2-0.3c0.1,0,0.2,0.1,0.2,0.3c0,0.2,0.1,0.4,0.2,0.5c0.1,0.1-0.2,0.6,0,0.5
			c0.3-0.1,0.7-0.8,0.6-1.1c0-0.3-0.3-0.6-0.4-0.7c-0.1-0.1,0-0.4,0.1-0.8c0.2-0.4,0.4-0.3,0.4-0.2c0,0.2-0.1,0.4,0,0.5
			c0.1,0.2,0.2,0.3,0.4,0.4c0.2,0.1-0.1,0.2,0.1,0.5c0.2,0.3-0.1,0.3,0.4,0.9c0.4,0.6,1.2,0.3,1.3,0.3c0.2,0,0.4-0.1,0.1-0.2
			c-0.3-0.1-0.7-0.6-0.9-0.9c-0.2-0.3-0.1-0.7,0-0.8c0.1-0.1,0.2-0.2,0.3,0c0.3,0.6,1,0.6,1.2,0.5c0.2,0,0.2-0.2,0.1-0.2
			c-0.1,0-0.5-0.5-0.6-0.7c-0.1-0.2-0.1-1.1-0.1-1.4c0-0.3-0.2-0.7-0.3-0.9c-0.1-0.2-0.1-0.6,0-0.8c0.1-0.1,0.2-0.2,0.3,0.4
			c0.2,0.7,1.2,0.8,1.3,0.8c0.1,0,0.2,0.1,0.2-0.1c0-0.1-0.1-0.5,0.1-1.2c0.2-0.7,0.2-1.3,0.3-1.5c0-0.1-0.3-0.4-0.3-0.5
			c0-0.1,0-0.4,0.2-0.1c0.3,0.4,0.8,0.2,0.9,0.1c0.1-0.1,0.2-0.3,0.1-0.3c-0.1,0-0.3-0.1-0.5-0.2c-0.2-0.1-0.3-0.2-0.4-0.3
			c-0.1-0.1-0.2-0.3,0-0.2c0.7,0.1,0.8-0.3,0.9-0.4c0.1-0.1,0.1-0.2,0-0.2c-0.1,0-0.3-0.3-0.5-0.5c-0.2-0.2-0.1-0.6-0.3-1
			c-0.2-0.4-0.6-0.3-0.8-0.4c-0.2-0.1,0-0.4,0.2-0.4c0.8,0.2,1-0.2,1.1-0.3c0.1-0.1,0.2-0.2-0.2-0.3c-0.6-0.1-0.7-0.5-0.8-0.7
			c-0.2-0.2-0.1-0.9-0.3-1c-0.2-0.1-0.5,0-0.7,0c-0.3,0-0.6,0-0.7-0.1c-0.1-0.1-0.2,0.1-0.2,0.2l0,0c0,0,0,0.1,0,0.1
			c0,0.1-0.1,0.3-0.1,0.5c-0.1,0.2-0.3,0-0.3,0c0-0.1,0-0.4,0-0.5c0-0.1,0.2-0.3,0.2-0.4c0-0.1-0.2-0.3-0.2-0.4c0-0.1-0.1-0.1-0.1,0
			c-0.1,0.1-0.2,0.1-0.2,0.1c0,0,0.2,0,0.3,0c0.1,0,0.1,0.2,0.1,0.4c0,0.1-0.1,0.2-0.2,0.2c-0.1,0-0.6,0-0.7,0
			c-0.1-0.1-0.1-0.1-0.2-0.2c-0.1,0-0.1,0.2-0.3,0.4c-0.2,0.2,0.1,0.4,0.2,0.5c0.1,0.1,0.3,0.2,0.3,0.3c0,0.1-0.1,0.1-0.2,0.3
			c-0.1,0.1-0.2,0.2-0.1,0.3c0,0.1,0.1,0.4,0.1,0.8c0,0.4-0.2,0.9-0.3,1.1c-0.1,0.2-0.3,0-0.3,0c0-0.1,0.1-0.3,0.1-0.4
			c0-0.1,0.1-0.5,0.1-0.7c0-0.1-0.1-0.3-0.1-0.5c0-0.2,0.1-0.4,0.1-0.5c0.1-0.1,0.2-0.4,0.1-0.5c0-0.1-0.1-0.1-0.2-0.2
			c-0.1-0.1,0.1-0.3,0.1-0.4c0-0.1-0.3-0.1-0.5-0.1c-0.2,0-0.2-0.2-0.2-0.3c0-0.1,0.4-0.2,0.5-0.2c0.1,0-0.1-0.1-0.3-0.1
			c-0.3,0-0.8-0.1-0.8-0.1c0-0.1-1.3,0-1.4,0c-0.2,0-0.1,0.2-0.2,0.3c-0.1,0.1-0.3,0.1-0.3,0.2c0,0.1,0.4,0.1,0.5,0.1
			c0.2,0,0.4,0.3,0.4,0.4c0,0.1-0.2,0.2-0.4,0.3c-0.2,0.2-0.6,0.3-0.9,0.3c-0.3,0-0.3,0.2-0.3,0.3c0,0.1,0.2,0.3,0.2,0.4
			c0.1,0.1,0.4,0,0.6,0c0.1,0,0.1,0.1,0.2,0.2c0.1,0.1,0,0.5,0,0.6c0.1,0.1,0.5,0,0.7,0c0.2,0,0.1,0.1,0.2,0.3
			c0.1,0.2,0.3,0.3,0.3,0.5c0,0.2,0,0.3-0.2,0.3c-0.1,0-0.2-0.2-0.3-0.4c0-0.2-0.2-0.3-0.3-0.3c-0.2,0-0.8-0.1-0.8-0.2
			c-0.1,0,0-0.3-0.1-0.3c0-0.1-0.5-0.2-0.6-0.3c-0.1-0.1-0.2-0.3-0.3-0.7c0-0.4,0.3-0.5,0.3-0.6c0-0.1-0.2-0.2-0.2-0.3
			c0-0.1,0.2-0.4,0.3-0.4c0.1,0,0.3-0.5,0.3-0.5c0-0.1-0.3,0-0.3,0c-0.1,0-0.2,0.5-0.3,0.6c-0.1,0.1-0.4,0.1-0.6,0.1
			c-0.2,0.1-0.4,0-0.7,0.2c-0.3,0.2-0.2,0.3-0.2,0.3c-0.1,0.1-0.5,0-0.7,0c-0.2,0-0.2-0.1-0.3,0.2c0,0.3,0.2,0.2,0.3,0.2
			c0.1,0,0.1-0.1,0.2-0.1c0-0.1,0.3,0,0.4,0c0.1,0,0.1,0.1,0.1,0.1c0.1,0,0.1,0.2,0,0.2c-0.2,0-0.3,0-0.5,0.1
			c-0.2,0.2-0.1,0.3-0.1,0.4c0,0.1,0.5,0.6,0.5,0.7c0,0.1,0.5,0,0.6,0c0.1,0,0.1-0.2,0.1-0.3c0-0.1,0.4-0.4,0.5-0.4
			c0.1-0.1,0.3,0,0.3,0.1c0.1,0.1,0.6,0.5,0.7,0.6c0.1,0.1-0.1,0.3-0.1,0.3c0,0-0.1,0.3,0,0.6c0,0.4,0.1,0.2,0.1,0.3
			c0.1,0.1,0.1,0.5-0.1,0.7c-0.1,0.2-0.3,0.2-0.6,0.2c-0.3,0-0.9,0.1-1.1,0.3c-0.2,0.1,0,0.2,0,0.4s-0.3,0.4-0.4,0.5
			c-0.1,0.1-0.1,0.2,0,0.1c0.1-0.1,0.9-0.3,1.9-0.5c1.1-0.2,1.3-0.7,1.5-0.9c0.2-0.1,0.6-0.3,0.9-0.3c0.2,0,0.5-0.2,0.6-0.2
			c0.1,0.1,0,0.3-0.2,0.4c-0.2,0.1-0.7,0-0.9,0.2c-0.3,0.1-0.4,0.5-0.5,0.8c-0.2,0.2-0.4,0.4-0.7,0.4c-0.3,0-0.5,0.1-0.6,0.2
			c-0.1,0.1-0.6,0-1,0c-0.4,0-0.5,0.1-0.8,0.2c-0.3,0.1-0.5,0.3-0.4,0.3c0.1,0,0.2,0.1,0.5,0.1c0.3,0,0.6-0.2,0.9-0.3
			c0.3-0.1,1-0.1,1.4-0.2c0.5,0,0.7-0.5,0.9-0.7c0.2-0.2,0.7-0.4,1-0.4c0.4,0,0.5,0.1,0.5,0.2c0,0.1-0.2,0.1-0.5,0.1
			c-0.3,0-0.3,0.3-0.7,0.5c-0.4,0.2-0.8,0.4-1.1,0.4c-0.3,0-0.6,0-1.5,0.4c-1,0.4-1.6,0-1.9-0.1c-0.3-0.2-0.8-0.5-1.7-0.4
			c-0.9,0.1-2.1,0.8-2.5,1.1C-241.9,386-242.4,386.1-242.6,386.1L-242.6,386.1z M-229.3,403.7c-0.3,0-0.5-0.4-0.5-0.6
			c0-0.2,0.2-0.5,0.3-0.6c0.1-0.1,0.2-0.2,0-0.4c-0.2-0.1-0.4-1-0.5-1.2c-0.1-0.2,0-0.3,0.1-0.4c0.2-0.1,0.2,0,0.2,0
			c0,0-0.1-0.4-0.7-0.6c-0.5-0.2-2.3-0.3-3-0.2c-0.7,0.1-1.6,0.4-2.2,0.8c-0.5,0.4-0.5,0.2-0.8,0.2c-0.2,0.1,0,0.4-0.2,0.4
			c-0.7,0-1.2,0.5-2.4,0.6c-1.7,0.1-2.6,0.6-3.1,0.7c-0.4,0.2-0.6,0.6-0.7,0.7c-0.1,0,0-0.3-0.4-0.3c-0.2,0-0.5,0-0.7,0.7
			c-0.2,0.6,0,1.4,0.1,1.9c0.1,0.5,0.1,0.8-0.1,1.3c-0.2,0.6-0.2,0.5-0.2,0.6c-0.1,0.1,0.1,0.1,0.3,0.1c0.2,0,0.6-0.4,0.5-1.1
			c0-2.6,0.2-2.4,0.5-2.6c0.2-0.1,0.3,0,0.3,0.1c0,0.1-0.3,0.4-0.4,0.5c0,0.1,0,0.6,0.1,1.1c0.1,0.5-0.1,2.3-0.2,2.8
			c-0.4,1.2-1.4,3.2-3.3,4.5c-0.9,0.6-1.4,0.5-1.6,0.4c-0.2,0-0.5-0.4-0.5-0.8c0-0.4-0.3-0.4-0.4-0.4c-0.1,0-0.3-0.1-0.2,0
			c0.1,0.1,0,0.5,0,0.7c0,0.2,0,0.4-0.3,0.4c-0.3,0-0.2-0.2-0.5-0.2c-0.3,0-0.4,0-0.3,0.1c0.1,0,0.3,0.3,0.2,0.7
			c0,0.4-0.5,0.5-0.5,0.6c0,0,0.5-0.1,0.6-0.1c0.1,0,0.3-0.2,0.4-0.1c0.1,0.1,0.1,0.2,0,0.3c-0.1,0.1-0.6,0.3-0.6,0.4
			c0,0.1,0.6,0.2,0.7,0.3c0.2,0.1,0.2,0.1,0.2,0.4c0,0.3-0.4,0.5,0.7,0.4c1.1-0.1,1.3-0.9,1.4-1c0.1-0.1,0.2-0.1,0.3-0.1
			c0.1,0,0,0.2-0.1,0.3c-0.1,0.1-0.1,1.1,0.1,0.9c0.1-0.2,0.9-1,1-1.1c0-0.1,0.1-0.1,0.1,0c0,0.1-0.1,0.2,0,0.9
			c0.1,0.7,0.4,0.1,0.6-0.1c0.1-0.2,0.4-0.4,0.6-0.4c0.2,0,0.2,0.1,0.5,0.4c0.3,0.2,0.5-0.1,0.5-0.3c0.1-0.2-0.3-0.4-0.3-0.7
			c0-0.2,0-0.6,0.2-0.7c0.1-0.2,0-0.4,0-0.6s0.2-0.3,0.2-0.1s0.6,0.7,0.7,0.9c0.2,0.1,0,0.7,0.1,0.7c0.1,0,0.2-0.3,0.3-0.5
			c0.1-0.2,0-0.8,0-1c0-0.2-0.5-0.8-0.5-1.1c0-0.3,0.2-0.3,0.3-0.2c0.1,0,0,0.2,0.1,0.5c0.1,0.3,0.7,0.9,0.9,1.1
			c0.2,0.2,0.1,0.5,0.1,0.4c0.1,0,0.3-0.3,0.3-0.5c0-0.2-0.1-0.6-0.5-1c-0.4-0.4-0.2-0.7-0.3-0.9c0-0.2,0.2-0.6,0.2-0.1
			c0,0.5,0.4,0.4,0.8,0.4c0.4,0,0.7,0.7,0.8,0.7c0-0.1,0.2-0.6,0.1-1c0-0.4-0.8-1.1-0.9-1.1c-0.2,0-0.3-0.2-0.3-0.6
			c0-0.5,0.3-0.7,0.4-0.6c0.1,0,0.1,0.3,0.1,0.6c0,0.3,0.4,0.4,0.9,0.5c0.5,0,0.7,0.5,0.8,0.4c0.1-0.1,0.3-0.2,0.3-0.4
			s-0.3-0.7-0.8-1.2c-0.5-0.4-1-1.3-1-1.6c0-0.2,0.2-0.2,0.3-0.1c0,0.3,0.2,0.9,0.6,1c0.7,0.1,1.3,0.4,1.3,0.3c0-0.1,0-0.3-0.4-0.8
			c-0.8-0.9-0.8-1.5-0.8-1.8c0-0.3,0.1-0.4,0.2-0.4c0,0.1-0.1,0.3,0.1,0.7c0.2,0.6,0.9,1.1,0.9,1.1s0-0.2,0-0.4c0-0.1-0.4-0.6-0.4-1
			c0-0.4,0.2-0.6,0.5-0.6c0,0,0,0,0,0c-0.1,0.5-0.1,0.7,0.3,1c0.4,0.3,0.5,0.7,0.5,0.7c0.1-1.1-0.1-1.2-0.1-1.5
			c0-0.3,0.2-0.7,0.4-0.7c0,0.4-0.2,0.7,0.1,0.8c0.6,0.4,0.9,1.2,0.9,1.1c0-0.5-0.1-0.8-0.2-1c-0.1-0.1,0-0.2,0.1-0.3
			c0.8,1.1,1.6,1.2,1.6,1.1c0,0-0.2-0.5-0.5-0.8c-0.2-0.3-0.2-1.3,0-1.3c0.4,0,0.2,0.7,0.3,0.5c0.1-0.2,0.9-0.4,1.5-0.6
			c0.5-0.1,1.2-0.3,1.4-0.3c0.2-0.1,0.6-0.1,1.3,0c0.6,0,0.8-0.1,0.8-0.1c0.1,0,0.2-0.1,0.3-0.1C-229.3,403.9-229,403.7-229.3,403.7
			L-229.3,403.7z M-226,416c0.2,0,0.8-0.4,0.9-0.5c0-0.1,0.1-0.2,0.1-0.2c0-0.1-0.1-0.2-0.3,0c-0.2,0.2-0.3,0.4-0.5,0.3
			c-0.2-0.1-0.5-0.4-0.6-0.4c-0.2,0-0.4,0-0.3,0.2C-226.7,415.5-226.3,415.9-226,416L-226,416z M-213.1,384.5
			c-0.1,0-0.6-0.9-0.7-1.5c-0.2-0.6-0.1-2-0.2-2.2c-0.2-0.3-1-0.7-1-0.8c0,0,0.6-0.3,0.7-0.3c0.1-0.1,0.4-0.6,0-0.5
			c-0.3,0.1-1.6-0.1-2.5-0.5c0,0-0.7-0.4-1.2-0.5c-0.5,0-1.6-0.1-2.3,0.2c-0.7,0.3-2.7,1.3-3,3.9c-0.2,2.6,0.7,3.6,1.2,4.6
			c0.5,1,3.9,5.7,5,7.1c1.1,1.4,0.7,2.6,0.4,4c-0.3,1.4-0.8,2-1.5,2.5c-0.1,0.1-0.3,0.1-0.4,0.2c0.1-0.3,0.3-0.8,0.3-1.3
			c0-0.8-0.5-2-1.1-2.8c-0.6-0.9-1-2-1-2.9c0-1.7,0.9-2.4,0.9-2.4l-0.5-0.7c-0.6,0.7-1.1,1.6-1.1,2.7c0,1.1,0.3,2.5,1.2,3.8
			c0.9,1.3,1,2.1,1,2.6c0,0.4-0.1,0.9-0.9,1.4c-0.4,0-0.8,0-0.9-0.1c-0.4-0.1-1.6-1-1.9-1c-0.2,0-0.3,0-0.5,0.1c0,0,0,0,0,0
			c-0.1-0.2-0.2-1.4-1.4-1.8c-1.2-0.4-1.6-0.9-2.3-1.8c-0.7-0.8-3.1-4-3.2-4.1c-0.1-0.1-0.3-0.4-0.4-0.2c-0.1,0.2-1.4,0.8-1.3,0.4
			c0.1-0.6,0.1-0.4-0.4,0c-0.5,0.4-0.9,0.1-0.9-0.1c0-0.2,0.1-0.7,0-0.5c-0.1,0.2-0.4,0.8-1.2,1c-0.8,0.2-1.4-0.1-1.6-0.2
			c-0.2-0.1-0.3,0-0.3,0.1c0,1.3,1.2,2.4,1.2,2.4c-0.4,0.1-1.2,0.1-1.4,0c-0.2-0.1-0.3-0.2-0.3,0.1c0,0.3-1.2-0.3-0.2,0.9
			c1,1.2,2.9,1.4,4.5,1.8c1.6,0.4,3.5,2.4,3.6,3c0.1,0.6,0.5,1.9,0.5,2.2s-0.2,0.6-0.1,0.7c0.1,0.1,0.3,0.2,0.5,0.6
			c-0.6-0.1-1.1,0.3-1.2,1c0,1.5,1.1,3.2,1.4,4.3c0.4,1.2-0.2,1.7-0.4,1.7c-0.2,0.1,1.4,0.3,1.3-0.7c-0.1-0.7-1.7-3.3-1.6-4.3
			c0-0.8,0.4-0.9,0.7-0.9c0,0.4-0.2,0.5-0.2,0.6c0,0.1-0.2,0.7,0.2,1.5c0.4,0.7,1.1,2.2,1.4,2.7c0.2,0.3,0,0.6,0.2,0.8
			c0,0,0.8-0.1,0.7-0.7c0-0.6-1.1-1.1-1.3-2.5c-0.2-1.2,0.1-1.2,0.3-1.3c-0.2,0.4-0.2,0.9-0.1,1.2c0.1,0.4,0.8,2.2,1.9,2.4
			c0.6,0.1,1,0.1,1.3,0c0,0,0,0,0,0c0.2,0.2,0.6,1.3,0.6,1.6c0,0.4-0.5,1.1-0.7,1.7c-0.2,0.6,0,0.6-0.1,1.1
			c-0.1,0.5-1.2,1.1-1.7,1.4c-0.5,0.3-0.6,0.1-0.7,0.1c-0.1-0.1-0.6-0.6-0.7-0.7c-0.2-0.1-0.6,0-0.6,0.1c0,0.1,0.2,0.3,0.2,0.5
			c0,0.2-0.2,0.1-0.4,0.3c-0.2,0.2-0.1,0.6,0.1,0.7c0.2,0.1,0-0.1,0.4-0.3c0.4-0.2,0.6-0.1,0.7,0.1c0,0.2-0.4,0.2-0.5,0.4
			c-0.1,0.2,0,0.1,0.4,0.5c0.4,0.4,1,0.5,1.4,0.3c0.4-0.2,1.2-1.2,1.6-1.4c0.1,0.5-0.1,1.6-0.1,1.6c0.3,0,0.7-0.4,0.8-0.6
			c0.1-0.2,0-0.7,0-1c0.7,0.8,1.7,0.5,1.7,0.5c0-0.1-0.7-0.6-0.9-0.8c-0.1-0.1-0.2-0.5,0.1-0.7l0.2-0.1c0.2,0.1,0.1,0.4,0.1,0.4
			c0.5-0.4,1.3-1.4,1.4-1.8c0.1-0.3,0-0.7,0.3-1c0.3,0.4,0,0.7,0.2,0.9c0.8,0.6,0.9,0.8,0.9,0.8c0.3-0.4,0.2-1.1-0.1-1.5
			c-0.3-0.4-0.4-0.8-0.4-1.2c1.1,1.3,1.6,1.3,1.6,1.3c0-0.3,0.1-0.7,0.1-0.9c0-0.2-0.6-0.7-1-1.3c0.3,0.3,0.6,0.5,0.8,0.5
			c0.3,0.1,1.2,0.5,1.2,0.5c0-1-0.2-1.5-0.9-1.7c-0.7-0.2-0.9-0.3-1.2-0.9c0.8,0.6,2,0.7,2,0.7c-0.4-1.6-0.7-1.4-2.2-1.4
			c-1.3,0-1.9-0.5-2.2-1c0.6,0.3,1.2,0.3,1.7,0.4c0.7,0.1,1.4,0,1.4,0c-0.7-0.9-1.5-0.4-2.2-0.5c-0.7-0.1-1-0.5-1.3-1
			c1.1,0.6,2.7,0.4,2.7,0.4c-0.4-0.3-0.4-0.4-1.5-0.7c-1.1-0.3-1.3-0.4-1.6-0.9c1.7,0.7,2-0.8,2-0.8c-0.1,0.1-0.4,0.4-1.3,0.4
			c-0.7,0-1.2-0.9-1.4-1.5c0,0,0-0.1,0-0.1c0,0,0.1,0.1,0.1,0.1c0.8,0.7,1,0.4,1,0.4c-0.1-0.2,0.1-0.9,0-1.6
			c-0.1-0.7-0.8-1.5-1.2-1.7c0,0,0-0.1,0-0.1c0.1,0,0.2,0,0.3,0.1c0.3,0.2,0.9,0.7,3.1,1c2.1,0.3,3.2-1.5,3.5-2.2
			c0.3-0.6,0.7-2,0.7-3.8c0-1.4-0.9-3-1.2-3.3c-0.3-0.4-4.6-6.2-4.8-6.5c-0.2-0.3-1.2-1.1-1-3.7c0.2-2.6,2-3.4,2.8-3.4
			c1.1,0,1.7,0.3,2.5,1.2c0.3,0.4,0.2,1.8,0.2,1.8c0.4,0,0.8-0.7,0.8-0.8c0.1-0.1,0.3,0,0.3,0.1c-0.2,2.5,1.6,3.1,2,3.2
			C-213.6,384.6-213,384.5-213.1,384.5L-213.1,384.5z M-229.2,401.6c0-0.2-0.2-0.6-0.2-0.7c0-0.1-0.1-0.2-0.1-0.2
			c-0.1,0-0.2,0.1-0.2,0.2c0,0.1,0.2,0.6,0.4,1c0.2,0.4,0.1,0.6-0.1,0.9c-0.1,0.3,0,0.6,0.2,0.6c0.2,0,0.1-0.6,0.1-0.9
			C-228.9,402.3-229.1,401.8-229.2,401.6L-229.2,401.6z M-219,389.3c0,0,0.4,0.6,0.5,0.6c0.1-0.1,2.1-2,2.5-2.7
			c0.4-0.7,0.6-1.3,0.5-2.4c-0.1-1.1-1.1-1.9-2-1.8c-0.9,0.1-2,0.8-2.3,1.1c-0.2,0.2-0.4,0.3-0.8,0.2c-0.4-0.2-0.4-0.4-0.5,0
			c-0.1,0.4-0.1,1.2,0.4,1c0.5-0.1,0.7-0.5,0.8-0.5c0.1,0,0.1,0.3,0.1,0.3c-0.1,0.1-0.5,0.2-0.5,0.8c0,0.6-0.1,1.3,0.5,1.9
			c0.6,0.6-0.1-0.5,0.3-0.9c0.4-0.4,0.3-0.6,0.2-0.7c-0.2,0-0.2-0.2-0.2-0.5c0,0,0.2,0,0.2,0.1c0.1,0.1,0,0.5,0.5,0.4
			c0.5-0.1,0.8-0.3,0.8-0.4c0-0.1-0.5-0.1-0.7-0.5c-0.2-0.4,0.1-1,0.6-1.2c0.5-0.2,0.9,0.1,1.1,0.2c0.1,0.1,0.7,0.4,0.7,1.1
			c0,1-0.2,1.3-0.5,1.6C-217.2,387.6-219,389.3-219,389.3L-219,389.3z"/>
	</g>
</g>
</svg>
