<?xml version="1.0" encoding="utf-8"?>
<!-- Generator: Adobe Illustrator 19.0.0, SVG Export Plug-In . SVG Version: 6.00 Build 0)  -->
<svg version="1.1" id="Layer_1" xmlns="http://www.w3.org/2000/svg" xmlns:xlink="http://www.w3.org/1999/xlink" x="0px" y="0px"
	 viewBox="-269 374 72 46" style="enable-background:new -269 374 72 46;" xml:space="preserve">
<style type="text/css">
	.st0{clip-path:url(#SVGID_2_);}
	.st1{fill:#A90A2E;}
	.st2{fill:#FFFFFF;}
</style>
<g>
	<defs>
		<path id="SVGID_1_" d="M-204,420.4H-262c-3.8,0-7-3.1-7-7V381c0-3.8,3.1-7,7-7h58.1c3.8,0,7,3.1,7,7v32.5
			C-197,417.3-200.1,420.4-204,420.4z"/>
	</defs>
	<clipPath id="SVGID_2_">
		<use xlink:href="#SVGID_1_"  style="overflow:visible;"/>
	</clipPath>
	<g class="st0">
		<g>
			<polygon class="st1" points="-186,420.4 -186,373 -280,373 -280,420.4 			"/>
		</g>
		<g>
			<path d="M-185.9,420.5h-94.2v-47.7h94.2V420.5z M-279.8,420.3h93.7v-47.2h-93.7V420.3z"/>
		</g>
		<g>
			<polygon class="st2" points="-186,401.5 -280,401.5 -280,392 -186,392 			"/>
		</g>
		<g>
			<path d="M-185.9,401.6h-94.2v-9.7h94.2V401.6z M-279.8,401.3h93.7v-9.2h-93.7V401.3z"/>
		</g>
	</g>
</g>
</svg>
