<?xml version="1.0" encoding="utf-8"?>
<!-- Generator: Adobe Illustrator 19.0.0, SVG Export Plug-In . SVG Version: 6.00 Build 0)  -->
<svg version="1.1" id="Layer_1" xmlns="http://www.w3.org/2000/svg" xmlns:xlink="http://www.w3.org/1999/xlink" x="0px" y="0px"
	 viewBox="-269 374 72 46" style="enable-background:new -269 374 72 46;" xml:space="preserve">
<style type="text/css">
	.st0{clip-path:url(#SVGID_2_);}
	.st1{fill:#E40040;}
	.st2{fill:#E40040;stroke:#000000;stroke-width:0.125;}
	.st3{fill:#007A4D;}
</style>
<g>
	<defs>
		<path id="SVGID_1_" d="M-204,420H-262c-3.8,0-7-3.1-7-7V381c0-3.8,3.1-7,7-7h58.1c3.8,0,7,3.1,7,7V413
			C-197,416.9-200.1,420-204,420z"/>
	</defs>
	<clipPath id="SVGID_2_">
		<use xlink:href="#SVGID_1_"  style="overflow:visible;"/>
	</clipPath>
	<g class="st0">
		<g>
			<g>
				<rect x="-269.9" y="371.9" class="st1" width="73.8" height="49.2"/>
				<path d="M-196,421.2H-270v-49.5h74.1V421.2z M-269.8,421h73.6v-49h-73.6V421z"/>
			</g>
			<g>
				<path class="st2" d="M-233,396.5"/>
			</g>
		</g>
		<g>
			<polygon class="st3" points="-233,387.6 -235,393.8 -241.4,393.8 -236.2,397.5 -238.2,403.7 -233,399.9 -227.8,403.7 
				-229.8,397.5 -224.6,393.8 -231,393.8 			"/>
			<path d="M-227.7,403.8l-0.2-0.1l-5.2-3.8l-5.3,3.9l2-6.3l-5.3-3.9h6.6l2-6.3l2,6.3h6.6l-0.2,0.1l-5.2,3.8L-227.7,403.8z
				 M-241.2,393.8l5.1,3.7l-2,6l5.1-3.7l0,0l5.1,3.7l-1.9-6l0,0l5.1-3.7h-6.3l0,0l-1.9-5.9l-1.9,6H-241.2z"/>
		</g>
		<g>
			<polygon class="st1" points="-233.7,393.8 -232.3,393.8 -233,391.5 			"/>
			<path d="M-232.2,393.8h-1.6l0.8-2.5L-232.2,393.8z M-233.6,393.7h1.3l-0.6-2L-233.6,393.7z"/>
		</g>
		<g>
			<polygon class="st1" points="-235.4,395 -237.7,395 -235.8,396.3 			"/>
			<path d="M-235.8,396.4l-2.1-1.5h2.6L-235.8,396.4z M-237.5,395l1.7,1.2l0.4-1.2H-237.5z"/>
		</g>
		<g>
			<polygon class="st1" points="-235.2,398.3 -235.9,400.5 -234,399.1 			"/>
			<path d="M-236,400.7l0.8-2.5l1.3,1l-0.1,0.1L-236,400.7z M-235.2,398.4l-0.6,2l1.7-1.2L-235.2,398.4z"/>
		</g>
		<g>
			<polygon class="st1" points="-232,399.1 -230.1,400.5 -230.8,398.3 			"/>
			<path d="M-230,400.7l-0.2-0.1l-2-1.4l1.3-1L-230,400.7z M-231.9,399.1l1.7,1.2l-0.6-2L-231.9,399.1z"/>
		</g>
		<g>
			<polygon class="st1" points="-233,398.4 -231.2,397.1 -231.9,395 -234.1,395 -234.8,397.1 			"/>
			<path d="M-233,398.5L-233,398.5l-1.9-1.4l0,0l0.7-2.2h2.3l0,0l0.7,2.2l0,0L-233,398.5z M-234.7,397.1l1.7,1.3l1.7-1.3l-0.7-2
				h-2.1L-234.7,397.1z"/>
		</g>
		<g>
			<polygon class="st1" points="-230.6,395 -228.3,395 -230.2,396.3 			"/>
			<path d="M-230.2,396.4l-0.5-1.5h2.6L-230.2,396.4z M-230.5,395l0.4,1.2l1.7-1.2H-230.5z"/>
		</g>
	</g>
</g>
</svg>
