<?xml version="1.0" encoding="utf-8"?>
<!-- Generator: Adobe Illustrator 19.0.0, SVG Export Plug-In . SVG Version: 6.00 Build 0)  -->
<svg version="1.1" id="Layer_1" xmlns="http://www.w3.org/2000/svg" xmlns:xlink="http://www.w3.org/1999/xlink" x="0px" y="0px"
	 viewBox="-269 374 72 46" style="enable-background:new -269 374 72 46;" xml:space="preserve">
<style type="text/css">
	.st0{clip-path:url(#SVGID_2_);}
	.st1{fill:#F9DB4A;}
	.st2{fill:#575880;}
	.st3{fill:#C1352C;}
	.st4{fill:#E5A773;}
	.st5{fill:#CE382F;}
	.st6{fill:#F1E33A;}
	.st7{fill:#50938C;}
</style>
<g>
	<defs>
		<path id="SVGID_1_" d="M-204,420H-262c-3.8,0-7-3.1-7-7V381c0-3.8,3.1-7,7-7h58.1c3.8,0,7,3.1,7,7V413
			C-197,416.9-200.1,420-204,420z"/>
	</defs>
	<clipPath id="SVGID_2_">
		<use xlink:href="#SVGID_1_"  style="overflow:visible;"/>
	</clipPath>
	<g class="st0">
		<g>
			<path class="st1" d="M-252.2,373.5h39.3V421h-39.3V373.5z"/>
			<path d="M-212.9,421h-39.3l0,0v-47.4l0,0h39.3l0,0L-212.9,421L-212.9,421z M-252.2,421h39.3v-47.4h-39.3V421z"/>
		</g>
		<g>
			<path class="st2" d="M-280.5,373.5h30.8V421h-30.8C-280.5,421-280.5,373.5-280.5,373.5z"/>
			<path d="M-249.7,421h-30.8l0,0v-47.4l0,0h30.8l0,0L-249.7,421L-249.7,421z M-280.5,421h30.8v-47.4h-30.8V421z"/>
		</g>
		<g>
			<path class="st3" d="M-216.1,373.5h30.6V421h-30.6V373.5z"/>
			<path d="M-185.5,421h-30.6l0,0v-47.4l0,0h30.6l0,0L-185.5,421L-185.5,421z M-216.1,421h30.6v-47.4h-30.6V421z"/>
		</g>
		<g>
			<path d="M-235,384.1l0.5,0.2l0.3,0l0.2-0.1l0.1-0.1l-0.3,0l-0.2-0.1l0.1-0.2l0.2-0.1l0.2-0.2l-0.1-0.1l0-0.1l0.2-0.1l0.1-0.1
				l-0.3-0.1l-0.4,0l-0.4-0.1l-0.2,0l-0.3,0.2l0.1,0.3v0.2L-235,384.1L-235,384.1z"/>
			<path d="M-234.2,384.3l-0.3,0l-0.5-0.2l-0.2-0.4l0-0.2l-0.1-0.3l0.3-0.2l0.2,0l0.4,0.1l0.4,0l0.3,0.1l0,0l-0.1,0.1l-0.2,0.1
				l0,0.1l0.1,0.1v0l-0.2,0.2l-0.2,0.1l-0.1,0.2l0.2,0.1l0.3,0l0,0l-0.1,0.1L-234.2,384.3z M-235,384.1l0.5,0.2l0.3,0l0.2-0.1
				l0.1-0.1l-0.3,0l-0.2-0.1l0,0l0.1-0.2l0.2-0.1l0.2-0.2l-0.1-0.1l0-0.1l0.2-0.1l0.1-0.1l-0.3-0.1l-0.4,0l-0.4-0.1l-0.2,0l-0.3,0.2
				l0.1,0.3v0.2L-235,384.1z"/>
		</g>
		<g>
			<path class="st4" d="M-228.9,389.3l-0.9,0.3h-0.4l-0.3-0.1l-0.6-0.2l-1-1.6l0.2,1.3l-1-1.3l0.1,1l-0.1,0.6l-0.1,0.4l5.9,0.1
				l-0.3-0.6l-0.7-0.3L-228.9,389.3L-228.9,389.3z"/>
			<path d="M-227.2,389.9l-5.9-0.1l0,0l0.1-0.4l0.1-0.6l-0.1-1l0,0l1,1.3l-0.2-1.3l0,0l1,1.6l0.6,0.2l0.3,0.1l0.4,0l0.9-0.3l0.6-0.3
				h0l0.7,0.3l0,0L-227.2,389.9L-227.2,389.9z M-233.1,389.8l5.8,0.1l-0.3-0.5l-0.7-0.3l-0.6,0.3l-0.9,0.3l-0.4,0l-0.4-0.1l-0.6-0.2
				l0,0l-0.9-1.5l0.2,1.3l0,0l-1-1.3l0.1,1l-0.1,0.6L-233.1,389.8z"/>
		</g>
		<g>
			<path class="st5" d="M-229.9,403.4l1.4,1.6l0,0.7l0.3,0.4l0.7,0.3l0.5,0.1v-0.4h0.3V406l0.3-0.2l-0.1-0.3l0-0.3l-0.3-0.4
				l-0.2-0.2l-0.4-0.2l-0.5-0.3l-0.5-0.6l-0.3-0.5l-0.5-0.5l0.2,0.9l-0.8-0.5L-229.9,403.4L-229.9,403.4z"/>
			<path d="M-226.9,406.6l-0.5-0.1l-0.7-0.3l-0.3-0.4l0,0l0-0.7l-1.4-1.6l0,0l0.1-0.5l0,0l0.8,0.5l-0.2-0.9l0,0l0.5,0.5l0.4,0.5
				l0.5,0.6l0.5,0.3l0.4,0.2l0.2,0.2l0.3,0.5l0,0.3l0.1,0.3l0,0l-0.2,0.2v0.2l0,0h-0.3L-226.9,406.6L-226.9,406.6z M-228.1,406.2
				l0.7,0.3l0.5,0.1v-0.4l0,0h0.3V406l0,0l0.2-0.2l-0.1-0.3l0-0.3l-0.3-0.4l-0.2-0.2l-0.4-0.2l-0.5-0.3l-0.5-0.6l-0.3-0.5l-0.5-0.4
				l0.2,0.9l0,0l-0.8-0.5l-0.1,0.4l1.4,1.6l0,0l0,0.7L-228.1,406.2z"/>
		</g>
		<g>
			<path class="st4" d="M-233,389.9h6l0,9.9l-0.2,0.7l-0.6,0.5l-0.8,0.4l-1.1,0.5l-1.2,0.3l-1,0.3l-0.8,0.6l-0.4,0.3L-233,389.9
				L-233,389.9z"/>
			<path d="M-233,403.5L-233,403.5l0-13.6l0,0h6l0,0l0,9.9l-0.2,0.7l-0.6,0.5l-0.8,0.4l-1.1,0.5l-1.2,0.3l-1,0.3l-0.8,0.6
				L-233,403.5z M-233,389.9l0,13.5l0.4-0.3l0.8-0.6l1-0.3l1.2-0.3l1.1-0.5l0.8-0.4l0.6-0.5l0.2-0.7l0-9.9H-233z"/>
		</g>
		<g>
			<path class="st4" d="M-227.2,388.7v-0.4l-0.1-0.5l-0.2-0.4l-0.1-0.3l0.9-0.4l0.9-0.4l0.8-0.3l0.6,0l0.5,0.2l0.3,0.4l0.2,0.8v16.1
				l-0.6-0.4l-0.4-0.3l-0.2-0.5v0.6l0,0.3l-0.9-0.6l-0.5-0.5l-0.7-0.6l-0.3-0.8L-227.2,388.7L-227.2,388.7z"/>
			<path d="M-223.4,403.5l-0.6-0.4l-0.4-0.3l-0.2-0.4v0.6l0,0.3l0,0l-0.9-0.6l-0.5-0.5l-0.7-0.6l-0.3-0.8l-0.2-11.9v-0.4l-0.1-0.5
				l-0.2-0.4l-0.1-0.3l0,0l0.9-0.4l0.9-0.4l0.8-0.3l0.6,0l0,0l0.5,0.2l0.3,0.4l0.2,0.8L-223.4,403.5L-223.4,403.5z M-224.4,402.8
				l0.4,0.3l0.6,0.4v-16l-0.2-0.8l-0.3-0.4l-0.5-0.2l-0.6,0l-0.8,0.3l-0.9,0.4l-0.9,0.4l0.1,0.2l0.2,0.4l0.1,0.5v0.4l0.2,11.8
				l0.3,0.8l0.7,0.6l0.5,0.5l0.9,0.6l0-0.2v-0.6l0,0L-224.4,402.8z"/>
		</g>
		<g>
			<path class="st4" d="M-230.2,389.7l0.4,0l0.6-0.2l0.4-0.1l0.5-0.3l0.5-0.3l0.4-0.2l0.4,0l0,0.4l-0.1,0.5l-0.2,0.3l-0.3-0.3
				l-0.2-0.2l-0.5-0.2l0.2,0.3l-0.1,0.3l-0.5-0.3l-0.2-0.1l-0.4,0.2l-0.4,0.2h-0.3L-230.2,389.7L-230.2,389.7L-230.2,389.7z"/>
			<path d="M-227.3,389.8l-0.3-0.3l-0.2-0.2l-0.5-0.2l0.2,0.2l0,0l-0.1,0.3l0,0l-0.5-0.3l-0.2-0.1l-0.1,0l-0.4,0.2l-0.4,0.2l-0.3,0
				l-0.2-0.1l0,0h0.1l0.4,0l0.6-0.2l0.2-0.1l0.1,0l0,0l0,0l0,0l0.5-0.3l0.5-0.3l0.4-0.2l0.4,0l0,0l0,0.4l-0.1,0.5L-227.3,389.8
				L-227.3,389.8z M-228.3,389.2l0.5,0.2l0.2,0.2l0.3,0.2l0.2-0.3l0.1-0.5l0-0.4l-0.4,0l-0.4,0.2l-0.5,0.3l-0.5,0.3l0,0l0.2,0.1
				l0.5,0.3l0.1-0.3L-228.3,389.2L-228.3,389.2z M-230.1,389.7h0.3l0.4-0.2l0.2-0.1l-0.1,0l-0.6,0.2l-0.4,0L-230.1,389.7z"/>
		</g>
		<g>
			<path d="M-224.7,402.8l-0.1-13.1l0,0l-0.4,0.5l-0.1,0.2l0,0l-0.3-0.6l-0.3-0.3l0,0l0.3,0.3l0.3,0.6l0.1-0.2l0.4-0.5l0-0.1v0h0
				l0.1-0.3l-0.2-0.5l-0.9-0.7l0,0l0.9,0.7l0.2,0.5v0l-0.1,0.3L-224.7,402.8L-224.7,402.8z M-226.1,401.8L-226.1,401.8l0-12.1h0
				L-226.1,401.8z M-223.8,390.5L-223.8,390.5l0-0.5l-0.2-0.4l-0.4-0.3l-0.3-0.1l0,0l0.3-0.4l0.3-0.5l0.2-0.5l-0.1-0.4l-0.2-0.4
				l-0.3-0.4l-0.3-0.3l0.1,0.3v0.4l-0.1,0.6l-0.2,0.5l-0.3,0.4l0,0l0.2-0.6l0-0.3l-0.2-0.3l-0.4-0.3l-0.3-0.1v0.4l-0.1,0.5l0,0
				l0.1-0.5v-0.4l0,0l0.3,0.1l0.4,0.3l0.2,0.4l0,0l0,0.3l-0.2,0.5l0.3-0.3l0.2-0.5l0.1-0.6v-0.4l-0.2-0.3l0,0l0.3,0.3l0.3,0.4
				l0.2,0.4l0.1,0.4l0,0l0,0l0,0.1h0.1l0,0l0,0l0,0l0,0l0.2-0.4l0.2-0.3l0,0l-0.2,0.3l-0.2,0.4l0.2,0.2l0.3,0.4l0,0v1.5l-0.1,0.4
				l0,0L-223.8,390.5z M-224.7,389.1l0.3,0.1l0.4,0.4l0.2,0.4l0,0.4l0.3-0.3l0.1-0.4v-1.5l-0.3-0.4l-0.2-0.2l0,0l0,0h-0.1l-0.2,0.5
				l-0.3,0.5L-224.7,389.1z M-226.4,390.5l-0.3-0.5l-0.2-0.3l-0.3-0.1l0,0l0.3,0.1l0.2,0.3L-226.4,390.5l0.2-0.4l0.2-0.5v-0.4
				l-0.1-0.4l-0.1,0l-0.4-0.2l-0.4-0.2l0,0l0.3,0.1l0.5,0.3l0.1,0l0,0l0,0l0.1,0l0.1-0.4l0.1-0.4l-0.3-0.3l-0.6-0.3l-0.6-0.2l0,0
				l0.6,0.2l0.6,0.3l0.4,0.3l0,0l-0.1,0.4l-0.1,0.4l0,0l-0.1,0l0.1,0.3l0,0.4l-0.2,0.5L-226.4,390.5L-226.4,390.5z"/>
		</g>
		<g>
			<path class="st2" d="M-239,395.9h11.8l0.1,4.3l-0.3,0.4l-0.8,0.7l-1.5,0.6l-1.7,0.4l-0.7,0.2l-0.6,0.6l-0.4,0.2l-0.2,0l-0.4-0.3
				l-0.5-0.4l-0.5-0.2l-0.7-0.3l-1.4-0.3l-0.8-0.4l-0.7-0.4l-0.7-0.5l-0.2-0.4h0.1L-239,395.9L-239,395.9z"/>
			<path d="M-233.2,403.4L-233.2,403.4l-0.5-0.3l-0.5-0.4l-0.5-0.2l-0.7-0.3l-1.4-0.3l-0.8-0.4l-0.7-0.4l-0.7-0.5l-0.2-0.4l0,0h0
				l0.1-4.3l0,0h11.8l0,0l0.1,4.3l0,0l-0.3,0.4l-0.8,0.7l-1.5,0.6l-1.7,0.4l-0.7,0.2l-0.6,0.6l-0.4,0.2L-233.2,403.4z M-238.9,400.5
				l0.7,0.5l0.7,0.4l0.8,0.4l1.4,0.3l0.7,0.3l0.5,0.2l0.5,0.4l0.4,0.3l0.2,0l0.4-0.2l0.6-0.6l0.7-0.2l1.7-0.4l1.5-0.6l0.8-0.7
				l0.3-0.4l-0.1-4.3H-239l-0.1,4.3l0,0h0L-238.9,400.5z"/>
		</g>
		<g>
			<path class="st1" d="M-231,398.3l-0.9,0.1l-0.1,0.6l0.1,0.7l0.2,0.5l0.4,0.3v-0.7l0.1-0.5l0.1-0.5L-231,398.3L-231,398.3z
				 M-230.7,397.5l-0.3-0.2l-0.6,0.3l0.5,0.2l0.3-0.2L-230.7,397.5L-230.7,397.5z"/>
			<path d="M-231.3,400.4l-0.4-0.3l0,0l-0.2-0.5l-0.1-0.7l0.1-0.6l0,0l0.9-0.1l0,0l-0.2,0.5l-0.1,0.5l-0.1,0.5L-231.3,400.4
				L-231.3,400.4z M-231.7,400.1l0.4,0.3v-0.7l0.1-0.5l0.1-0.5l0.2-0.5l-0.9,0.1l-0.1,0.6l0.1,0.7L-231.7,400.1z M-231.1,397.9
				l-0.5-0.2l0,0l0.6-0.3l0,0l0.3,0.2l0,0l-0.1,0.2l0,0L-231.1,397.9L-231.1,397.9z M-231.5,397.6l0.4,0.2l0.3-0.2l0.1-0.2l-0.3-0.2
				L-231.5,397.6z"/>
		</g>
		<g>
			<path class="st5" d="M-233,390l5.9-0.1v6.1h-6L-233,390L-233,390z"/>
			<path d="M-227.1,395.9h-6l0,0l0.2-6l0,0l5.9-0.1l0,0L-227.1,395.9L-227.1,395.9z M-233.1,395.9h6v-6.1l-5.8,0.1L-233.1,395.9z"/>
		</g>
		<g>
			<path class="st1" d="M-228.3,398.1l-0.9-0.1l-0.7,0.2l-0.5,0.5l-0.2,0.7l0.2,0.5l0.4,0.4l0.6,0.3l0.4,0.1l-0.3-0.6l-0.1-0.6
				l0.2-0.5l0.3-0.5L-228.3,398.1z"/>
			<path d="M-229,400.7l-0.4-0.1l-0.6-0.3l-0.4-0.4l-0.2-0.5l0.2-0.7l0.5-0.5l0.7-0.2l0.9,0.1l0,0l-0.7,0.4l-0.3,0.5l-0.2,0.5
				l0.1,0.6L-229,400.7L-229,400.7z M-230,400.3l0.6,0.3l0.4,0.1l-0.3-0.6l-0.1-0.6l0,0l0.2-0.5l0.3-0.5l0.6-0.4l-0.8-0.1l-0.7,0.2
				l-0.5,0.5l-0.2,0.7l0.2,0.5L-230,400.3z"/>
		</g>
		<g>
			<path class="st4" d="M-233.1,412.1l1.9-1.6l-0.5-1.1l-0.4-1.3l-0.3-1.1l-0.2-0.9l0.8,2l0.8,1.3l0.5,0.6l1.6-1.5l-1.6-1.6
				l-0.8-1.3l-0.5-1.4l-0.3-0.9l-0.1-0.7l-0.4,0.4l-0.6,0.3V412.1L-233.1,412.1z M-230.8,402.3l1,1.5l0-1l0.7,0.6l-0.1-0.8l0.8,0.3
				l-0.8-1.1L-230.8,402.3L-230.8,402.3z"/>
			<path d="M-233.1,412.1L-233.1,412.1l0-8.7l0,0l0.6-0.3l0.4-0.4l0,0l0.1,0.7l0.3,0.9l0.5,1.4l0.8,1.3l1.6,1.5l0,0l-1.6,1.5h0
				l-0.5-0.6l-0.8-1.3l-0.7-1.9l0.2,0.8l0.3,1.1l0.4,1.3l0.5,1.1l0,0L-233.1,412.1z M-233,403.4v8.7l1.9-1.6l-0.5-1.1l-0.4-1.3
				l-0.3-1.1l-0.2-0.9l0,0l0.8,2l0.8,1.3l0.5,0.6l1.6-1.4l-1.6-1.5l-0.8-1.3l-0.5-1.4l-0.3-0.9l-0.1-0.7l-0.4,0.4L-233,403.4z
				 M-229.9,403.8l-1-1.5l0,0l1.7-0.5l0,0l0.8,1.1l0,0l-0.8-0.3l0.1,0.8l0,0l-0.7-0.6L-229.9,403.8L-229.9,403.8z M-230.8,402.3
				l0.9,1.4l0-1l0,0l0.7,0.6l-0.1-0.8l0,0l0.8,0.3l-0.8-1.1L-230.8,402.3z"/>
		</g>
		<g>
			<path d="M-226.9,406.5L-226.9,406.5l0-0.2l-0.1-0.2l-0.2-0.2l-0.2,0.1l0.1,0.1l0.2,0.3l0.2,0.1l0,0l-0.2-0.1l0,0l-0.2-0.3
				l-0.1-0.2l0,0l0.2-0.1l0,0l0.2,0.2l0.1,0.1l0.3,0.1l-0.1-0.2l-0.3-0.3l-0.3,0l0.1,0.2l0.2,0l0,0l-0.2,0l0,0l-0.2-0.2l0,0l0.3,0
				l0,0l0.3,0.4l0.1,0.2l0,0l-0.3-0.1l0,0.1l0,0L-226.9,406.5z M-226.4,405.5l-0.5-0.4l-0.4-0.2l-0.3,0h-0.3v0h0.3l0.3,0l0.4,0.2
				L-226.4,405.5L-226.4,405.5z"/>
		</g>
		<g>
			<path class="st6" d="M-227.8,406.5l-0.4,0.2l-0.1,0.2l0,0.4l-0.1,0.3l0.4-0.3l0.4-0.2v-0.3L-227.8,406.5h0.3l0.2-0.2l-0.1-0.2
				h-0.4l-0.1,0.2L-227.8,406.5L-227.8,406.5L-227.8,406.5z M-226.5,404.8l0.3-0.1l0.2-0.2l-0.1-0.3l0.2-0.2l0.3-0.2l0.3-0.5
				l0.2-0.7l0.3-0.7l0.2-0.7l0.3-0.3l0.4,0.1l-0.2-0.3l-0.4-0.3h-0.4l0.3,0.3l-0.2,0.3l-0.8,1.1l-0.4,0.7l-0.3,0.5l0,0.5l0.1,0.4
				h-0.2l-0.2,0.1l0,0.2v0.2L-226.5,404.8L-226.5,404.8L-226.5,404.8z M-224.9,400l0.7,0.5l0.4,0.2v-0.2l-0.4-0.4l-0.3-0.1l-0.3-0.1
				L-224.9,400L-224.9,400z"/>
			<path d="M-228.4,407.6L-228.4,407.6l0.1-0.3l0-0.4l0,0l0.1-0.2l0.4-0.2l0,0l-0.1-0.1l0,0l0.1-0.2l0,0h0.4l0,0l0.1,0.2l0,0
				l-0.2,0.2l0,0l-0.3,0l0.2,0.3v0.3l0,0l-0.4,0.2L-228.4,407.6z M-228.3,406.9l0,0.4l0,0l-0.1,0.3l0.3-0.3l0.4-0.2v-0.3l-0.2-0.3
				l0,0l0.3,0l0.1-0.1l-0.1-0.2h-0.4l-0.1,0.2l0.1,0.1l0,0l0,0l-0.4,0.2L-228.3,406.9z M-226.5,404.8l-0.1,0l-0.2-0.1l0,0v-0.2
				l0-0.2l0,0l0.2-0.1l0,0h0.2l-0.1-0.4l0-0.5l0.3-0.5l0.4-0.7l0.8-1.1l0.2-0.3l-0.3-0.3l0,0l0.4,0l-0.4-0.3l0,0l0-0.1l0,0l0.3,0.1
				l0.3,0.1l0.4,0.4l0,0v0.2l0,0l-0.4-0.2l-0.2-0.2l0.3,0.2l0.2,0.3l0,0l-0.4-0.1l-0.2,0.3l-0.2,0.7l-0.3,0.7l-0.2,0.7l-0.3,0.5
				l-0.3,0.2l-0.2,0.2l0.1,0.3l0,0l-0.2,0.2L-226.5,404.8z M-226.6,404.8L-226.6,404.8l0.4-0.1l0.2-0.2l-0.1-0.3l0,0l0.2-0.2
				l0.3-0.2l0.3-0.5l0.2-0.7l0.3-0.7l0.2-0.7l0.3-0.3l0,0l0.3,0.1l-0.2-0.3l-0.4-0.3h-0.4l0.3,0.3l0,0l-0.2,0.3l-0.8,1.1l-0.4,0.7
				l-0.3,0.5l0,0.5l0.1,0.4l0,0h-0.2l-0.2,0.1l0,0.2v0.2L-226.6,404.8z M-224.9,400l0.7,0.5l0.4,0.2v-0.2l-0.4-0.4l-0.3-0.1
				l-0.3-0.1L-224.9,400z"/>
		</g>
		<g>
			<path class="st6" d="M-224.1,399.7l-0.6-0.1l0.1,0.2l0.3,0.3l0.3,0.1l0.3,0.1l-0.1-0.2L-224.1,399.7L-224.1,399.7L-224.1,399.7z"
				/>
			<path d="M-223.6,400.3l-0.3-0.1l-0.4-0.1l-0.4-0.4l-0.1-0.2l0,0l0.6,0.1l0,0v0.1l0.4,0.3L-223.6,400.3L-223.6,400.3z
				 M-224.3,400.2l0.3,0.1l0.3,0.1l-0.1-0.1l-0.4-0.3l0,0v-0.1l-0.5-0.1l0.1,0.1L-224.3,400.2z"/>
		</g>
		<g>
			<path class="st6" d="M-224.2,399.8l0.2-0.6l0.2-0.7l0.2-0.6l0.4-0.5l0.5-0.6v-0.6l1,0.3l-0.8,0.3l-0.2,0.7l-0.2,0.8l-0.2,0.6
				l-0.3,0.6l-0.6,0.3L-224.2,399.8z"/>
			<path d="M-224,400L-224,400l-0.2-0.2l0,0l0.2-0.6l0.2-0.7l0.2-0.6l0.4-0.5l0.5-0.6v-0.6l0,0l1,0.3v0l-0.8,0.3l-0.2,0.7l-0.2,0.8
				l-0.2,0.6l-0.3,0.6l0,0L-224,400z M-224.2,399.8l0.2,0.1l0.6-0.3l0.3-0.6l0.2-0.6l0.2-0.8l0.2-0.7l0,0l0.8-0.3l-0.9-0.3v0.6l0,0
				l-0.5,0.6l-0.4,0.5l-0.2,0.6l-0.2,0.7L-224.2,399.8z"/>
		</g>
		<g>
			<path class="st6" d="M-221.8,396.5l0.3-0.4l0.1-0.3l0.3-0.3l0.4-0.1l0.4-0.1l-0.2-0.4l-0.3-0.3l-0.3-0.1l-0.5-0.1l-0.3,0
				l-0.3,0.1l-0.2,0.1l0.1,0.3l0,0.3l0,0.2l-0.2,0.2l-0.1,0.3l0,0.2l0.2,0.3L-221.8,396.5L-221.8,396.5z M-221.3,394.3l0.3,0.1
				l0.3,0.2l0.2,0.1l-0.2-0.3l0-0.3l0.1-0.3l-0.1,0.2l-0.4,0.2L-221.3,394.3L-221.3,394.3L-221.3,394.3z"/>
			<path d="M-221.8,396.5l-0.7,0l0,0l-0.2-0.3l0,0l0-0.2l0.1-0.3l0.2-0.2l0-0.2l0-0.3l-0.1-0.3l0,0l0.2-0.1l0.3-0.1l0.4,0l0.5,0.1
				l0.4,0.1l0.3,0.3l0.2,0.4l0,0l-0.4,0.1l-0.4,0.1l-0.3,0.2l-0.1,0.3L-221.8,396.5L-221.8,396.5z M-222.5,396.4l0.7,0l0.3-0.4
				l0.1-0.3l0.3-0.3l0.4-0.1l0.4-0.1l-0.2-0.4l-0.3-0.3l-0.3-0.1l-0.5-0.1l-0.3,0l-0.6,0.2l0.1,0.3l0,0.3l0,0.2l-0.2,0.2l-0.1,0.3
				l0,0.2L-222.5,396.4z M-220.5,394.7l-0.2-0.1l-0.3-0.2l-0.3-0.1l0,0l0.2-0.1l0.4-0.2l0.1-0.2l0,0l-0.1,0.3l0,0.2L-220.5,394.7
				L-220.5,394.7z M-221.3,394.3l0.3,0.1l0.3,0.2l0.1,0.1l-0.2-0.3l0,0l0-0.3l0.1-0.2l-0.1,0.1l-0.4,0.2L-221.3,394.3z"/>
		</g>
		<g>
			<path class="st5" d="M-226.5,405.9l0.1-0.2l-0.1-0.3l-0.2-0.2l-0.2,0l0,0.2l0.1,0.3l0.2,0.1L-226.5,405.9L-226.5,405.9
				L-226.5,405.9z M-226.9,405.3l-0.4-0.1l-0.1,0.2l0.3,0.2l0.1,0L-226.9,405.3z M-227.2,405.6l-0.4-0.1l-0.1,0.1l0.1,0.2l0.3,0
				L-227.2,405.6L-227.2,405.6z M-227.5,405.8l-0.3-0.1l-0.1,0.2l0.3,0.2l0.1,0L-227.5,405.8L-227.5,405.8z"/>
			<path d="M-227.5,406.1L-227.5,406.1l-0.3-0.2l0,0l0.1-0.2l0,0l0.3,0.1l0,0l0.1,0.2l0,0L-227.5,406.1z M-226.6,406L-226.6,406
				l-0.2-0.1l-0.1-0.3l0-0.2l0,0l0.2,0l0,0l0.2,0.2l0.1,0.3v0l-0.1,0.2l0,0v0L-226.6,406z M-226.7,405.8l0.1,0.1l0.1-0.1l0,0l0-0.1
				l-0.1-0.2l-0.2-0.2l-0.1,0l0,0.2L-226.7,405.8z M-227.2,405.8l-0.3,0l0,0l-0.1-0.2l0,0l0.1-0.1l0,0l0.4,0.1l0,0L-227.2,405.8
				L-227.2,405.8z M-227.1,405.5L-227.1,405.5l-0.3-0.2l0,0l0.1-0.2l0,0l0.4,0.1l0,0l-0.1,0.2l0,0L-227.1,405.5z"/>
		</g>
		<g>
			<path class="st6" d="M-222.6,396.2l0.4,0.2l0.3-0.1l0.3-0.3v-0.3l0.2-0.3l0.2-0.3l0.2-0.1l0.2-0.1l-0.4-0.3l-0.4,0h-0.3l0.2,0.3
				l-0.2,0.4l-0.4,0.2l-0.3,0.2l0,0.3L-222.6,396.2L-222.6,396.2z"/>
			<path d="M-222.2,396.5L-222.2,396.5l-0.4-0.2l0,0v-0.2l0-0.3l0,0l0.3-0.2l0.4-0.2l0.2-0.4l-0.2-0.3l0,0h0.3l0.4,0l0,0l0.4,0.3
				l0,0l-0.2,0.1l-0.2,0.1l-0.2,0.3l-0.2,0.3v0.3l0,0l-0.3,0.3L-222.2,396.5z M-222.6,396.2l0.4,0.2l0.3-0.1l0.2-0.3l0-0.4l0.2-0.3
				l0.2-0.3l0.2-0.1l0.2-0.1l-0.4-0.3l-0.4,0h-0.3l0.2,0.3v0l-0.2,0.4l-0.4,0.2l-0.3,0.2l0,0.3V396.2z"/>
		</g>
		<g>
			<path class="st4" d="M-237.2,389.3l0.9,0.3h0.4l0.3-0.2l0.6-0.4l0.7-1.6l0.8,1.1l0.1,0.2l0.2,0v0.7l0.2,0.3l-5.8,0.1l0.3-0.6
				l0.8-0.3L-237.2,389.3L-237.2,389.3z"/>
			<path d="M-238.9,389.9L-238.9,389.9l0.2-0.6l0,0l0.8-0.3l0,0l0.6,0.3l0.9,0.3l0.4,0l0.3-0.2l0.6-0.4l0.7-1.6l0,0l0.8,1.1l0.1,0.2
				l0.2,0l0,0v0.7l0.2,0.3l0,0L-238.9,389.9z M-238.6,389.4l-0.2,0.5l5.8-0.1l-0.2-0.3v-0.7l-0.2,0l0,0l-0.1-0.2l-0.8-1.1l-0.7,1.6
				l0,0l-0.6,0.4l-0.3,0.2h-0.4l-0.9-0.3l-0.6-0.3L-238.6,389.4z"/>
		</g>
		<g>
			<path class="st5" d="M-236.2,403.4l-1.4,1.6l-0.1,0.7l-0.4,0.4l-0.7,0.3l-0.5,0.1v-0.4h-0.3V406l-0.3-0.2l0.1-0.3l0-0.3l0.2-0.4
				l0.3-0.2l0.4-0.2l0.5-0.3l0.5-0.6l0.3-0.5l0.6-0.5l-0.1,0.9l0.8-0.5L-236.2,403.4L-236.2,403.4z"/>
			<path d="M-239.2,406.6L-239.2,406.6l0-0.4h-0.3l0,0V406l-0.2-0.2l0,0l0.1-0.3l0-0.3l0.2-0.5l0.3-0.2l0.4-0.2l0.5-0.3l0.5-0.6
				l0.3-0.5l0.6-0.5l0,0l-0.1,0.9l0.7-0.5l0,0l0.1,0.5l0,0l-1.4,1.6l-0.1,0.7l0,0l-0.4,0.4l-0.7,0.3L-239.2,406.6z M-239.5,406.2
				h0.3l0,0v0.4l0.5-0.1l0.7-0.3l0.4-0.4l0.1-0.7l1.4-1.6l-0.1-0.4l-0.7,0.5l0,0l0.1-0.9l-0.5,0.5l-0.3,0.5l-0.5,0.6l-0.5,0.4
				l-0.4,0.2l-0.2,0.2l-0.2,0.4l0,0.3l-0.1,0.3l0.2,0.2l0,0V406.2z"/>
		</g>
		<g>
			<path class="st4" d="M-233.1,389.9h-6l0,9.9l0.2,0.7l0.6,0.5l0.8,0.4l1.1,0.5l1.2,0.3l1,0.3l0.8,0.6l0.4,0.3L-233.1,389.9
				L-233.1,389.9z"/>
			<path d="M-233,403.5l-0.4-0.3l-0.8-0.6l-0.9-0.3l-1.2-0.3l-1.1-0.5l-0.8-0.4l-0.6-0.5l-0.2-0.7l0-9.9l0,0h6l0,0L-233,403.5
				L-233,403.5z M-238.9,400.5l0.6,0.5l0.8,0.4l1.1,0.5l1.2,0.3l1,0.3l0.8,0.6l0.4,0.3l0-13.5h-6l0,9.9L-238.9,400.5z"/>
		</g>
		<g>
			<path class="st2" d="M-239,396l6.1-0.1l-0.1,7.4l-0.7-0.3l-0.3-0.4l-1.5-0.4l-1.2-0.3l-1.1-0.5l-0.7-0.5l-0.4-0.4l-0.1-0.4
				L-239,396z"/>
			<path d="M-233,403.4l-0.7-0.4l-0.3-0.4l-1.5-0.4l-1.2-0.3l-1.1-0.5l-0.7-0.5l-0.4-0.4l-0.1-0.4l0-4l0,0l6.1-0.1l0,0L-233,403.4
				L-233,403.4z M-233.7,403l0.6,0.3l0.1-7.4l-6.1,0.1l0,4l0.1,0.4l0.4,0.4l0.7,0.5l1.1,0.5l1.2,0.3l1.5,0.4l0,0L-233.7,403z"/>
		</g>
		<g>
			<path class="st4" d="M-238.9,388.7v-0.4l0-0.5l0.2-0.4l0.1-0.3l-0.9-0.4l-0.8-0.4l-0.8-0.3l-0.6,0l-0.5,0.2l-0.3,0.4l-0.2,0.8
				v16.1l0.7-0.4l0.4-0.3l0.2-0.5v0.6l-0.1,0.3l0.9-0.6l0.5-0.5l0.7-0.6l0.3-0.8L-238.9,388.7z"/>
			<path d="M-242.7,403.5L-242.7,403.5l0-16.1l0.2-0.8l0.3-0.4l0.5-0.2l0.6,0l0.8,0.3l1.7,0.9l0,0l-0.1,0.3l-0.2,0.4l0,0.5v0.4
				l-0.1,11.9l-0.4,0.8l-0.7,0.6l-0.5,0.5l-0.9,0.6l0,0l0.1-0.3l0-0.6l-0.2,0.5l-0.4,0.3L-242.7,403.5z M-242.2,386.3l-0.3,0.4
				l-0.2,0.8l0,16l0.6-0.4l0.4-0.3l0.2-0.5l0,0v0.6l-0.1,0.2l0.9-0.6l0.5-0.5l0.7-0.6l0.3-0.8l0.1-11.8v-0.4l0-0.5l0.2-0.4l0.1-0.2
				l-1.7-0.9l-0.8-0.3l-0.6,0L-242.2,386.3z"/>
		</g>
		<g>
			<path class="st4" d="M-235.9,389.7l-0.4,0l-0.6-0.2l-0.4-0.1l-0.5-0.3l-0.5-0.3l-0.4-0.2l-0.4,0l0,0.4l0.1,0.4l0.2,0.3l0.3-0.3
				l0.2-0.2l0.5-0.2l-0.3,0.3l0.1,0.3l0.5-0.3l0.2-0.1l0.4,0.2l0.4,0.2L-235.9,389.7L-235.9,389.7L-235.9,389.7L-235.9,389.7z"/>
			<path d="M-238.9,389.9L-238.9,389.9l-0.2-0.4l-0.1-0.4l0-0.4l0,0l0.4,0l0,0l0.4,0.2l0.5,0.3l0.5,0.3l0,0l0,0l0,0l0.1,0l0.2,0.1
				l0.6,0.2l0.4,0h0.1l0,0l-0.2,0.1l-0.4,0l-0.7-0.3l-0.1,0l-0.2,0.1l-0.5,0.3l0,0l-0.1-0.3l0,0l0.2-0.2l-0.5,0.2l-0.2,0.2
				L-238.9,389.9z M-239.1,388.7l0,0.4l0.1,0.4l0.2,0.3l0.3-0.3l0.2-0.2l0.5-0.2l0,0l-0.3,0.3l0.1,0.3l0.5-0.3l0.2-0.1l0,0l-0.5-0.3
				l-0.5-0.3l-0.4-0.2L-239.1,388.7z M-236.4,389.7h0.4l0.1-0.1h0L-236.4,389.7l-0.6-0.3L-236.4,389.7z"/>
		</g>
		<g>
			<path d="M-241.3,402.8L-241.3,402.8l0-13.2l-0.1-0.3l0,0l0.2-0.5l0.9-0.7l0,0l-0.9,0.7l-0.2,0.5l0.1,0.3h0v0l0,0.1l0.4,0.5
				l0.1,0.2l0.3-0.6l0.4-0.4l0,0l-0.3,0.3l-0.3,0.6l0,0l-0.1-0.2l-0.4-0.5l0,0L-241.3,402.8z M-240,401.8l-0.1-12.1h0L-240,401.8
				L-240,401.8z M-242.2,390.5l-0.4-0.3l0,0l-0.1-0.4l0-1.5l0.3-0.4l0.2-0.2l-0.2-0.4l-0.2-0.3l0,0l0.2,0.3l0.2,0.4l0,0l0,0l0,0l0,0
				h0.1l0-0.1l0,0l0,0.1h0l0.1-0.4l0.2-0.4l0.3-0.4l0.3-0.3l0,0l-0.1,0.3l0,0.4l0.1,0.6l0.1,0.5l0.3,0.3l-0.2-0.5l-0.1-0.4l0,0
				l0.3-0.3l0.4-0.3l0.3-0.1l0,0v0.4l0.1,0.5l0,0l-0.1-0.5v-0.4l-0.3,0.1l-0.4,0.3l-0.2,0.3l0.1,0.3l0.2,0.6l0,0l-0.4-0.4l-0.1-0.5
				l-0.1-0.6v-0.4l0.1-0.3l-0.3,0.3l-0.3,0.4l-0.2,0.4l-0.1,0.4l0,0h0l0.2,0.5l0.3,0.5l0.3,0.4l0,0l-0.3,0.1l-0.4,0.3l-0.2,0.4
				L-242.2,390.5L-242.2,390.5z M-242.6,390.2l0.3,0.3l-0.1-0.4l0,0l0.2-0.4l0.4-0.4l0.3-0.1l-0.2-0.4l-0.3-0.5l-0.2-0.5h-0.1l0,0
				l0,0l-0.2,0.2l-0.3,0.4l0,1.5L-242.6,390.2z M-239.7,390.5L-239.7,390.5l-0.2-0.4l-0.2-0.5l0-0.4l0.1-0.3l-0.1,0l0,0l-0.3-0.9
				l0,0l0.4-0.3l0.6-0.3l0.6-0.2l0,0l-0.6,0.2l-0.6,0.3l-0.4,0.3l0.2,0.9l0.1,0l0,0l0,0l0.1,0l0.1-0.1l0.4-0.2l0.3-0.1l0,0l-0.8,0.3
				l-0.1,0l-0.1,0.4v0.4l0.2,0.5L-239.7,390.5l0.3-0.5l0.2-0.3l0.3-0.1l0,0l-0.3,0.1l-0.2,0.3L-239.7,390.5z"/>
		</g>
		<g>
			<path class="st5" d="M-233.1,390l-5.8-0.1l-0.1,6.1h6v-5.2L-233.1,390L-233.1,390z"/>
			<path d="M-233,396h-6l0,0l0.1-6.1l0,0l5.8,0.1l0,0l0.1,0.8L-233,396L-233,396z M-239,396h6v-5.2l-0.1-0.8l-5.8-0.1L-239,396z"/>
		</g>
		<g>
			<path class="st1" d="M-233,391.1l-0.4,0.7l-0.9-0.5l0.4,0.9l-0.8,0.2l0.8,0.4l-0.3,0.7l0.8-0.3l0.3,0.6L-233,391.1L-233,391.1z
				 M-235.1,398.3l0.9,0.1l0.1,0.6l-0.1,0.7l-0.2,0.5l-0.4,0.3v-0.7l-0.1-0.5l-0.1-0.5L-235.1,398.3L-235.1,398.3z M-235.6,397.5
				l0.5-0.3l0.5,0.3l-0.4,0.2l-0.3-0.2L-235.6,397.5L-235.6,397.5z M-235.2,395.9l-1-0.2l-0.6-0.3l-0.3-0.3l-0.3,0.3l-0.6,0.3
				l-1,0.3l1,0.3l0.7,0.2l0.4,0.2l0.4-0.3l0.6-0.3L-235.2,395.9L-235.2,395.9z"/>
			<path d="M-234.8,400.4L-234.8,400.4l0-0.7l-0.1-0.5l-0.1-0.5l-0.2-0.5l0,0l0.9,0.1l0,0l0.1,0.6l-0.1,0.7l-0.2,0.5l0,0
				L-234.8,400.4z M-235.1,398.3l0.2,0.5l0.1,0.5l0.1,0.5v0.7l0.4-0.3l0.2-0.5l0.1-0.7l-0.1-0.6L-235.1,398.3z M-235,397.9l-0.3-0.2
				l-0.3-0.2l0,0l0.5-0.3l0,0l0.5,0.3l0,0L-235,397.9L-235,397.9z M-235.6,397.5l0.3,0.1l0.3,0.2l0.4-0.2l-0.5-0.3L-235.6,397.5z
				 M-237,396.7l-0.4-0.2l-0.7-0.2l-0.9-0.3l0,0l1-0.3l0.6-0.3l0.3-0.3l0,0l0.3,0.3l0.6,0.3l1,0.2l0,0l-0.7,0.3l-0.6,0.3L-237,396.7
				L-237,396.7z M-238.9,396l0.9,0.3l0.7,0.2l0.4,0.2l0.4-0.3l0.6-0.3l0.7-0.2l-1-0.2l-0.6-0.3l-0.3-0.3l-0.3,0.3l-0.6,0.3
				L-238.9,396z M-233.1,393.8l-0.3-0.6l-0.7,0.3l0,0l0.3-0.7l-0.8-0.4l0,0l0.7-0.2l-0.4-0.8l0,0l0.8,0.5l0.4-0.7l0,0L-233.1,393.8
				L-233.1,393.8z M-233.4,393.2L-233.4,393.2l0.3,0.6l0-2.6l-0.4,0.7l0,0l-0.8-0.5l0.4,0.8l0,0l-0.7,0.2l0.8,0.4l0,0l-0.3,0.7
				L-233.4,393.2z"/>
		</g>
		<g>
			<path class="st4" d="M-233,412.1l-1.9-1.6l0.5-1.1l0.4-1.3l0.2-1.1l0.2-0.9l-0.8,2l-0.8,1.3l-0.5,0.6l-1.6-1.5l1.6-1.6l0.7-1.3
				l0.5-1.4l0.3-0.9l0.1-0.7l0.4,0.4l0.6,0.3L-233,412.1L-233,412.1z M-235.2,402.3l-1,1.5l0-1l-0.8,0.6l0.1-0.8l-0.8,0.3l0.8-1.1
				L-235.2,402.3L-235.2,402.3z"/>
			<path d="M-233,412.1l-1.9-1.6l0,0l0.5-1.1l0.4-1.3l0.4-1.8l-0.7,1.8l-0.8,1.3l-0.5,0.6l0,0l-1.6-1.5v0l1.6-1.6l0.7-1.3l0.5-1.4
				l0.3-0.9l0.1-0.7l0,0l0.4,0.4l0.6,0.3l0,0L-233,412.1L-233,412.1z M-234.9,410.5l1.9,1.6v-8.7l-0.6-0.3l-0.4-0.4l-0.1,0.7
				l-0.3,0.9l-0.5,1.4l-0.7,1.3l-1.6,1.5l1.6,1.4l0.5-0.6l0.8-1.3l0.8-2l0,0l-0.4,2l-0.4,1.3L-234.9,410.5z M-236.2,403.8
				L-236.2,403.8l-0.1-1l-0.7,0.6l0,0l0.1-0.8l-0.8,0.3l0,0l0.8-1.1l0,0l1.7,0.5l0,0L-236.2,403.8z M-236.2,402.8L-236.2,402.8
				l0.1,1l0.9-1.4l-1.7-0.5l-0.8,1.1l0.8-0.3l0,0l-0.1,0.8L-236.2,402.8z"/>
		</g>
		<g>
			<path d="M-239.2,406.5l-0.1-0.2l0,0l0.1-0.1l-0.3,0.1l0,0l0-0.2l0,0l0.3-0.3l0,0l0.3,0l0,0l-0.1,0.2l0,0l-0.2,0l0,0l0.2,0
				l0.1-0.2l-0.3,0l-0.3,0.3l0,0.2l0.3-0.1l0.1-0.1l0.2-0.2l0,0l0.2,0.1l0,0l-0.1,0.2l-0.1,0.3l0,0l-0.2,0.1l0,0l0.2-0.1l0.1-0.3
				l0.1-0.1l-0.2-0.1l-0.3,0.3l0,0l0,0l-0.1,0.1L-239.2,406.5L-239.2,406.5z M-239.7,405.5L-239.7,405.5l0.4-0.5l0.4-0.2l0.3,0h0.3
				v0h-0.3l-0.3,0l-0.4,0.2L-239.7,405.5z"/>
		</g>
		<g>
			<path class="st1" d="M-233,394.8l-0.3-0.1l-0.1-0.2l-0.2-0.1l-0.2,0.1l-0.3,0l-0.2-0.2l-0.2-0.2h-0.3l-0.7-0.6l-0.5-0.6l-0.2-0.7
				l0.1-0.7l0.3-0.5l0.4-0.5l-0.7,0.3l-0.6,0.6l-0.2,0.8v0.5l0.1,0.6l0.3,0.7l0.5,0.7l0.6,0.6l0.5,0.3l-0.4,0.3l-0.3,0.5l0.8,0.5
				l0.9,0.8l0.2,0.6l0,0.8l-0.1,0.5l-0.2,0.5l-0.5,0.5l-0.3,0.1l0,0.2l0.2,0.2v0.3h0.5l0.2,0.3l0.2,0.3l0.8,0.1L-233,394.8
				L-233,394.8z"/>
			<path d="M-233,402.2l-0.8-0.1l0,0l-0.2-0.3l-0.2-0.3h-0.5l0,0v-0.3l-0.2-0.2l0,0l0-0.2l0,0l0.3-0.1l0.5-0.5l0.2-0.5l0.1-0.5
				l0-0.8l-0.2-0.6l-0.9-0.8l-0.8-0.5l0,0l0.4-0.5l0.4-0.3l-0.5-0.2l-0.6-0.6l-0.5-0.7l-0.3-0.7l-0.1-0.6l0-0.5l0.2-0.8l0.6-0.6
				l0.7-0.4l0,0l-0.4,0.5l-0.3,0.5l-0.1,0.7l0.2,0.7l0.5,0.6l0.7,0.6h0.3l0,0l0.2,0.2l0.2,0.2l0.3,0l0.2-0.1h0l0.2,0.1l0.1,0.2
				l0.3,0.1l0,0L-233,402.2L-233,402.2z M-233.8,402l0.8,0.1v-7.3l-0.3-0.1l0,0l-0.1-0.2l-0.2-0.1l-0.2,0.1l-0.3,0l0,0l-0.2-0.2
				l-0.2-0.2h-0.3l0,0l-0.7-0.6l-0.5-0.6l-0.2-0.7l0.1-0.7l0.3-0.5l0.3-0.4l-0.7,0.3l-0.6,0.6l-0.2,0.8l0,0.5l0.1,0.6l0.3,0.7
				l0.5,0.7l0.6,0.6l0.5,0.3l0,0l-0.4,0.3l-0.3,0.5l0.8,0.5l0.9,0.8l0.2,0.6l0,0.8l-0.1,0.5l-0.2,0.5l-0.5,0.5l-0.3,0.1l0,0.1
				l0.2,0.2l0,0v0.3h0.5l0,0l0.2,0.3L-233.8,402z"/>
		</g>
		<g>
			<path class="st5" d="M-239.6,405.9l-0.1-0.2l0.1-0.3l0.2-0.2l0.2,0l0,0.2l-0.1,0.3l-0.2,0.1L-239.6,405.9L-239.6,405.9
				L-239.6,405.9z M-239.2,405.3l0.3-0.1l0.1,0.2l-0.2,0.2l-0.2,0L-239.2,405.3L-239.2,405.3z M-238.9,405.6l0.4-0.1l0.1,0.1
				l-0.1,0.2l-0.3,0L-238.9,405.6L-238.9,405.6z M-238.6,405.8l0.3-0.1l0.1,0.2l-0.3,0.2l-0.1,0L-238.6,405.8L-238.6,405.8z"/>
			<path d="M-238.6,406.1L-238.6,406.1l-0.1,0l0.1-0.2l0,0l0.3-0.1l0,0l0.1,0.2l0,0L-238.6,406.1L-238.6,406.1z M-239.5,406
				l-0.1-0.1v0l0,0l-0.1-0.2v0l0.1-0.3l0.2-0.2l0,0l0.2,0l0,0l0,0l0.3-0.1l0,0l0.1,0.2l0,0l-0.2,0.2l0,0l-0.2,0l0,0l0-0.1l0,0.1l0,0
				l-0.1,0.3L-239.5,406L-239.5,406z M-239.6,405.9l0.1,0.1l0.1-0.1l0.1-0.3l0-0.2l-0.1,0l-0.2,0.2l-0.1,0.2L-239.6,405.9
				L-239.6,405.9z M-238.9,405.8L-238.9,405.8l0-0.2l0,0l0.4-0.1l0,0l0.1,0.1l0,0l-0.1,0.2l0,0L-238.9,405.8z"/>
		</g>
		<g>
			<path d="M-233.3,401.3l-0.3-0.2l-0.5,0.1l0.1,0.1l0.3,0.1l0.3,0.1L-233.3,401.3L-233.3,401.3z"/>
			<path d="M-233.5,401.5l-0.3-0.1l-0.3-0.1l-0.1-0.1l0,0l0.5-0.1l0,0l0.3,0.2l0,0L-233.5,401.5L-233.5,401.5z M-234,401.3l0.3,0.1
				l0.2,0.1l0.2-0.1l-0.3-0.2L-234,401.3L-234,401.3z"/>
		</g>
		<g>
			<path class="st4" d="M-233.2,403.4h0.3l0,8.3l-0.2,0.3l-0.2-0.3L-233.2,403.4z"/>
		</g>
		<g>
			<path class="st4" d="M-235.1,383.2l0-0.3l0.3-0.2l0.3-0.1l0.5,0.1l0.7,0.2l1.9,0.6l0.3,0.1l-0.2,0.1l-0.2,0.1l0.2,0l0.3,0.1
				l0.2,0.2l0.1,0.1l0,0.1l-0.4-0.1l-0.1,0.1l0.3,0.2l0.3,0.3l0.1,0.2l0,0.4l-0.3-0.3l-0.2-0.1l-0.2,0v0.1l0.2,0.4l0,0.3l0.2,0.8
				l-0.1,0.4l-0.1-0.3l-0.1-0.3l-0.2-0.3l0.1,0.8l0,0.9l0.2,1l0.3,0.5l0.3,0.4l0.4,0.5l-0.7-0.2l-0.5-0.4l-0.2-0.4l-0.2-0.7
				l-0.2-0.9v-1v1.1l0.1,0.8l0.2,1.2l0.2,0.4l-0.5-0.2l-0.3-0.4l-0.2-0.6l-0.1-0.9l-0.1-1.3l0.1,0.9v2l-0.2,0.6l-0.1,0.1l-0.3-0.7
				l-0.2-0.8l-0.1-2.2l0.1,2.3l-0.4,0.7l-0.5,0.5l-0.3,0.3l0.2-0.8l0.2-1.1v-1.8l-0.1,1.8l-0.3,0.6l-0.4,0.5l-0.4,0.2l-0.3,0.2
				l0.5-0.9l0.3-1.3l0-0.9v-1.7l-0.2-0.3l-0.3-0.3l-0.2-0.2l0.3-0.3l0.3,0.1l0.4,0.2l0.4-0.1l0.1-0.2h-0.3l-0.3-0.1l-0.3-0.1
				l-0.2-0.2l0.3,0.2h0.3l0.3-0.1l0.2-0.1l-0.2-0.2h-0.1l0.3-0.2l0.3,0h0.2v-0.1l-0.3,0l-0.5-0.1l-0.3,0l-0.4-0.1L-235.1,383.2
				L-235.1,383.2z"/>
			<path d="M-234.6,390.2L-234.6,390.2l0.1-0.8l0.2-1.1l0-1l0,1.1l-0.3,0.6l-0.4,0.5l-0.4,0.2l-0.3,0.2l0,0l0.5-0.9l0.3-1.3l0-0.9
				v-1.7l-0.2-0.3l-0.5-0.5l0,0l0.3-0.3l0,0l0.3,0.1l0.4,0.2l0.4-0.1l0.1-0.2h-0.3l-0.3-0.1l-0.3-0.1l-0.2-0.2l0,0l0.3,0.2h0.3
				l0.3-0.1l0.2-0.1l-0.2-0.2h-0.1l0,0l0.3-0.2l0.3,0h0.2v-0.1l-0.3,0l-0.5-0.1l-0.3,0l-0.4-0.1l-0.3,0.2l0,0l0-0.3l0,0l0.3-0.2
				l0.3-0.1l0.5,0.1l0.7,0.2l1.9,0.6l0.3,0.1l0,0l-0.4,0.2l0.2,0l0.3,0.1l0.2,0.2l0.1,0.1l0,0.1l0,0l-0.4-0.1l-0.1,0l0.3,0.1
				l0.3,0.3l0.1,0.2l0,0.4l0,0l-0.3-0.3l-0.2-0.1l-0.1,0v0l0.2,0.4l0,0.3l0.2,0.8l-0.1,0.4l0,0l-0.1-0.3l-0.1-0.3l-0.2-0.2l0.1,0.8
				l0,0.9l0.2,1l0.3,0.5l0.3,0.4l0.4,0.5l0,0l-0.7-0.2l-0.5-0.4l-0.2-0.4l-0.2-0.7l-0.1-0.7l0.1,0.7l0.2,1.2l0.2,0.4l0,0l-0.5-0.2
				l-0.3-0.4l-0.2-0.6l-0.1-0.7v1.5l-0.2,0.6l-0.1,0.1l0,0l-0.3-0.7l-0.1-0.7l-0.4,0.6l-0.5,0.5L-234.6,390.2z M-233.4,388.8
				l0.1,0.7l0.3,0.6l0,0l0.2-0.6l0-1.6l-0.1-1.3l0,0l0.1,0.9v0.4l0.1,0.9l0.2,0.6l0.3,0.4l0.5,0.2l-0.1-0.3l-0.2-1.2l-0.1-0.8v-1.1
				h0v1l0.2,0.9l0.2,0.7l0.2,0.4l0.5,0.4l0.6,0.2l-0.4-0.5l-0.3-0.4l-0.3-0.5l-0.2-1l0-0.9l-0.1-0.8l0,0l0.2,0.3l0.1,0.3l0.1,0.3
				l0.1-0.3l-0.2-0.8l0-0.3l-0.2-0.4v-0.1l0,0l0.2,0l0.2,0.1l0.2,0.3l0-0.3l-0.1-0.2l-0.3-0.3l-0.3-0.2v0l0.1-0.1l0.4,0.1l0-0.1
				l-0.1-0.1l-0.2-0.2l-0.3-0.1l-0.2,0l0,0l0.4-0.2l-0.3-0.1l-1.9-0.6l-0.7-0.2l-0.5-0.1l-0.3,0.1l-0.2,0.2l0,0.2l0.3-0.1l0,0
				l0.4,0.1l0.3,0l0.8,0.1l0,0v0.1l0,0h-0.2l-0.3,0l-0.2,0.2h0.1l0,0l0.2,0.2l0,0l-0.2,0.1l-0.3,0.1l-0.4,0l-0.2-0.1l0.1,0.1
				l0.3,0.1l0.3,0.1l0.3,0l0,0l-0.1,0.2l0,0l-0.4,0.1l0,0l-0.4-0.2l-0.3-0.1l-0.3,0.3l0.5,0.5l0.2,0.3v1.7l0,0.9l-0.3,1.3l-0.5,0.9
				l0.2-0.2l0.4-0.2l0.4-0.5l0.3-0.6l0.1-1.8l0,0v1.8l-0.2,1.1l-0.2,0.7l0.3-0.2l0.5-0.5L-233.4,388.8L-233.4,388.8l-0.1-2.3l0,0
				L-233.4,388.8L-233.4,388.8L-233.4,388.8z"/>
		</g>
		<g>
			<path class="st4" d="M-234.9,383.7l0.1-0.2l0.3-0.2l-0.2-0.1l-0.2,0l-0.4,0.2l0.3,0.1L-234.9,383.7z"/>
			<path d="M-234.9,383.7l-0.2-0.1l-0.3-0.1l0,0l0.4-0.2l0.2,0l0,0l0.2,0.1l0,0l-0.3,0.2L-234.9,383.7L-234.9,383.7z M-235.4,383.5
				l0.3,0.1l0.2,0.1l0.1-0.2l0.2-0.2l-0.2-0.1l-0.2,0L-235.4,383.5z"/>
		</g>
		<g>
			<path class="st6" d="M-234.2,383.8l-0.2-0.2l0.1-0.2l-0.4,0.1l-0.1,0.2l0.3,0.1L-234.2,383.8L-234.2,383.8z"/>
			<path d="M-234.4,383.8L-234.4,383.8l-0.3-0.1l0,0l0.1-0.2l0,0l0.4-0.1l0,0l-0.1,0.2l0.2,0.2l0,0L-234.4,383.8z M-234.7,383.7
				l0.3,0.1l0.2,0l-0.1-0.1l0,0l0.1-0.2l-0.3,0.1L-234.7,383.7z"/>
		</g>
		<g>
			<path d="M-234.7,384.3l-0.4-0.2l-0.2-0.1l-0.1,0.1l0,0l0.1-0.1l-0.2-0.1l-0.4-0.1l0,0l0.4,0.1l0.2,0.1l0.2-0.2l0-0.1l-0.2-0.1
				l0,0l0.2,0.1l0,0l0,0l0,0l0,0l-0.1,0l0,0.1l0.3,0.1l0,0l-0.3-0.1l0,0l0,0l-0.2,0.1l0.2,0.1L-234.7,384.3L-234.7,384.3z
				 M-234,383.3l-0.5,0l-0.2-0.1l-0.3,0.1l0,0l0.3-0.1l0,0l0.2,0.1L-234,383.3L-234,383.3z"/>
		</g>
		<g>
			<path class="st2" d="M-233.3,402.3h0.3l-0.1,1h-0.2L-233.3,402.3z"/>
		</g>
		<g>
			<path class="st5" d="M-233.3,393.7l0.3,0.3l0.2-0.3l-0.1,1h-0.3L-233.3,393.7z M-233.2,390.1l0.2,0.3l0.2-0.3l0,1.1l-0.2-0.3
				l-0.2,0.3C-233.2,391.1-233.2,390.1-233.2,390.1z"/>
		</g>
		<g>
			<path class="st7" d="M-238.1,406.1l1.2,0.7l-0.3,0.8l-0.6-0.3l-0.5-1L-238.1,406.1z M-239.2,404.6l-0.2-0.4l0.3,0.2l0.3-0.2
				l-0.1-0.3l-0.3-0.1l-0.2,0.2l-0.1,0.2l-0.3-0.5l-0.2,0.3l0.2,0.3l-0.2,0l-0.1,0l-0.1,0.2l0.2,0.4l0.2,0l0.3-0.3l0.3,0.3
				L-239.2,404.6z M-239.9,403.5l0.3-0.3l0.1-0.5l-0.1-0.4l-0.2-0.5l-0.1-0.3l-0.3,0.6l-0.2,0.4l0.1,0.5l0.3,0.4l0.2-0.4
				L-239.9,403.5L-239.9,403.5z"/>
			<path d="M-237.1,407.6l-0.6-0.3l0,0l-0.5-1l0,0l0.1-0.2l0,0l1.2,0.7l0,0L-237.1,407.6L-237.1,407.6z M-237.7,407.3l0.6,0.3
				l0.2-0.8l-1.2-0.7l-0.1,0.2L-237.7,407.3z M-239.3,404.7L-239.3,404.7l-0.3-0.3l-0.3,0.3l0,0l-0.2,0l0,0l-0.2-0.4l0,0l0.1-0.2
				l0,0l0.1,0l0.2,0l-0.2-0.2l0,0l0.2-0.3h0l0.3,0.5l0.1-0.2l0.2-0.2l0,0l0.3,0.1l0,0l0.1,0.3l0,0l-0.3,0.2l0,0l-0.2-0.2l0.1,0.4
				l0,0L-239.3,404.7z M-239.6,404.3L-239.6,404.3l0.3,0.3l0.1-0.1l-0.2-0.4l0,0l0.3,0.2l0.2-0.2l-0.1-0.3l-0.3-0.1l-0.2,0.2
				l-0.1,0.2l0,0l-0.3-0.5l-0.2,0.3l0.2,0.2l0,0l-0.2,0l-0.1,0l-0.1,0.2l0.2,0.4l0.1,0L-239.6,404.3z M-239.9,403.5L-239.9,403.5
				l0.1-0.4l-0.1,0.3l0,0l-0.3-0.4l-0.1-0.5l0,0l0.2-0.4l0.3-0.6l0,0l0.1,0.3l0.2,0.5l0.1,0.4l-0.1,0.5L-239.9,403.5z M-239.8,403
				L-239.8,403l-0.1,0.5l0.2-0.3l0.1-0.5l-0.1-0.4l-0.2-0.5l-0.1-0.3l-0.3,0.6l-0.2,0.4l0.1,0.5l0.2,0.4L-239.8,403z"/>
		</g>
		<g>
			<path class="st7" d="M-239.8,403.1l-0.1-0.6v0.8L-239.8,403.1L-239.8,403.1z M-240.3,402.6l-0.1-1.3l-0.3,0.9l-0.1-0.5l-0.3-0.5
				l-0.8-0.7l0.7,1.5l0.3,0.5l-0.8-0.3l-0.5-0.1l0.5,0.5l0.6,0.2l0.2,0.1l-0.7,0h-0.4l0.5,0.3l0.5,0.1l0.7,0.3L-240.3,402.6
				L-240.3,402.6z"/>
			<path d="M-240.1,403.4l-0.7-0.3l-0.5-0.1l-0.5-0.3l0,0h0.4l0.6,0l-0.1,0l-0.6-0.2l-0.5-0.5l0,0l0.5,0.1l0.8,0.3l-0.3-0.5
				l-0.7-1.5l0,0l0.8,0.7l0.4,0.5l0.1,0.5l0.2-0.8l0,0l0.1,1.3L-240.1,403.4L-240.1,403.4z M-241.7,402.7l0.4,0.3l0.5,0.1l0.7,0.3
				l-0.2-0.8l-0.1-1.3l-0.2,0.8l0,0l-0.1-0.5l-0.3-0.5l-0.7-0.6l0.7,1.4l0.3,0.5l0,0l-0.8-0.3l-0.5-0.1l0.5,0.5l0.6,0.2l0.2,0.1l0,0
				l-0.7,0H-241.7z M-239.8,403.2L-239.8,403.2l0-0.8l0,0l0.1,0.6l0,0L-239.8,403.2z"/>
		</g>
		<g>
			<path class="st7" d="M-241.6,400.3l0.1,0.1l0.2-0.1l-0.1-0.2l-0.2-0.2l-0.3,0.1v0.2l-0.2-0.2l0.2-1.3l-0.3-1.3l0,0.8l-0.1,0.7
				l0.1,0.6l0-1l-0.3-0.4l0,1.1l0.2,0.4l-0.9-0.3l-1.1,0.2l0.7,0.3l0.9,0.1l0.3-0.2l-0.5,0.2l-0.8-0.1l0.6,0.4l0.8,0.1l0.1-0.3
				l-0.2,0.3l-0.1,0.2l0.3,0.2l0.2-0.2l-0.1-0.2l0.3,0.3L-241.6,400.3L-241.6,400.3z"/>
			<path d="M-242.3,400.5l-0.3-0.2l0,0l0.1-0.2l-0.7-0.1l-0.6-0.4l0,0l0.6,0l-0.5-0.1l-0.7-0.3l0,0l1.1-0.2l0,0l0.8,0.3l-0.2-0.4
				l0-1.1l0,0l0.3,0.4l0-0.2l0-0.8l0,0l0.3,1.3l-0.2,1.3l0.2,0.1V400l0,0l0.3-0.1l0,0l0.2,0.2l0.1,0.2l0,0l-0.2,0.1h0l-0.1-0.1
				l-0.2,0.1l0,0l-0.2-0.3l0,0.1l0,0L-242.3,400.5L-242.3,400.5z M-242.5,400.3l0.3,0.1l0.2-0.2l-0.1-0.2l0,0l0.2,0.3l0.2-0.1h0
				l0.1,0.1l0.2-0.1l-0.1-0.2l-0.2-0.2l-0.3,0.1v0.1l0,0l-0.2-0.2l0,0l0.2-1.3l-0.3-1.2l0,0.7l0,0.3l0,1l0,0l-0.1-0.6l0-0.4l0-0.1
				l-0.3-0.4l0,1l0.2,0.4l0,0l-0.9-0.3l-1.1,0.2l0.6,0.2l0.8,0.1l0.5-0.1l0,0l-0.3,0.2l0,0l-0.2,0l-0.1,0l-0.8-0.1l0.6,0.3l0.7,0.1
				l0,0l0.2-0.3l0,0l-0.1,0.3l0,0l0,0L-242.5,400.3z"/>
		</g>
		<g>
			<path class="st7" d="M-242.7,398.6l-0.6-1.2l0.3,0l0.2-0.2v-0.1l-0.4-0.1l-0.1,0.1l0.3-0.1l0.1-0.5l-0.1-0.7l-0.1-0.2l-0.3,0.6
				l0.1,0.7l0-0.3l0-0.7l-0.3-0.6l-0.3,0.7l0.2,0.5l0,0.2l-0.4-0.2l-0.5,0l-0.5,0.2l0.3,0.2l0.5,0.1l0.3-0.1h-0.3l-0.6,0.1l0.4,0.2
				l0.5,0.2l0.3-0.1l0.1-0.1l-0.4,0.2l0,0.3l0.3,0l0.3-0.1l0.6,1.6L-242.7,398.6z"/>
			<path d="M-242.7,399.2l-0.6-1.5l-0.2,0.1l-0.3,0l0,0l0-0.2l-0.5-0.2l-0.4-0.2l0,0l0.3,0l-0.2,0l-0.4-0.2l0,0l0.5-0.2l0.5,0l0,0
				l0.4,0.2l0-0.1l-0.2-0.5l0,0l0.3-0.7l0,0l0.3,0.6l0.1-0.3l0,0l0.1,0.2l0.1,0.7l-0.1,0.5l0.2,0l0,0v0.1l0,0l-0.2,0.2l0,0l-0.2,0
				l0.6,1.2L-242.7,399.2L-242.7,399.2z M-243.3,397.6L-243.3,397.6l0.6,1.5l0-0.5l-0.6-1.2l0,0l0.2,0l0.1-0.1v-0.1l-0.2,0l0,0
				l-0.3,0.1l0,0l0.1-0.1l0,0l0.1,0l0.1-0.5l-0.1-0.7l0-0.1l-0.1,0.3l0,0l0,0.7l0,0.3l0,0l-0.1-0.7l0,0l0.1-0.3l-0.3-0.6l-0.2,0.7
				l0.2,0.5l0,0.2l0,0l-0.4-0.2l-0.5,0l-0.5,0.1l0.3,0.1l0.3,0.1l0.2,0h0.3l0,0l-0.3,0.1l-0.2,0l-0.3,0l0.4,0.2l0.5,0.2l0,0l0,0
				l0.4-0.2l0,0l-0.1,0.1l-0.3,0.1l0,0.2l0.3,0L-243.3,397.6z M-243.4,396.3l0.1,0.6l0-0.1l0-0.7l0,0L-243.4,396.3z"/>
		</g>
		<g>
			<path class="st7" d="M-243.8,396.3l-0.6-1.5l0.4-0.1l-0.1-0.3l-0.3,0.1l0-0.6l-0.2-0.5l-0.6-0.4l-0.2-0.1l0.5,1.1v0.3l-0.4-0.9
				l-0.2-0.3l-0.1,0.6l0.2,0.4l0.4,0.3l-0.3,0.2l0.2,0.3l0.2-0.1l0.6,1.7l0.3,0L-243.8,396.3L-243.8,396.3z"/>
			<path d="M-243.7,396.7l-0.3,0l0,0l-0.6-1.7l-0.2,0.1l0,0l-0.2-0.3l0,0l0.2-0.1l-0.4-0.3l-0.2-0.4l0,0l0.1-0.6l0,0l0.2,0.3
				l0.4,0.9v-0.3l-0.5-1.1l0,0l0.2,0.1l0.6,0.5l0.2,0.5l0,0.6l0.3-0.1l0,0l0.1,0.3l0,0l-0.4,0.1l0.6,1.4L-243.7,396.7L-243.7,396.7z
				 M-243.9,396.7l0.3,0l-0.1-0.4l-0.6-1.5l0,0l0.4-0.1l-0.1-0.2l-0.3,0.1l0,0l0-0.6l-0.2-0.5l-0.6-0.4l-0.1-0.1l0.5,1v0.3l0,0
				l-0.4-0.9l-0.1-0.2l-0.1,0.6l0.2,0.4l0.4,0.3l0,0l-0.2,0.2l0.2,0.3l0.2-0.1l0,0L-243.9,396.7z"/>
		</g>
		<g>
			<path class="st1" d="M-233,391.1l0.4,0.7l0.8-0.5l-0.4,0.9l0.8,0.2l-0.8,0.4l0.3,0.7l-0.8-0.3l-0.3,0.6L-233,391.1L-233,391.1z"
				/>
			<path d="M-233,393.8L-233,393.8l-0.1-2.7l0,0l0.4,0.7l0.8-0.5l0,0l-0.4,0.8l0.7,0.2l0,0l-0.8,0.4l0.3,0.7l0,0l-0.7-0.3
				L-233,393.8z M-233,391.1l0,2.6l0.3-0.5l0,0l0.7,0.3l-0.3-0.7l0,0l0.8-0.4l-0.7-0.2l0,0l0.4-0.8l-0.8,0.5l0,0L-233,391.1z"/>
		</g>
		<g>
			<path class="st1" d="M-233,394.8l0.3-0.1l0.1-0.2l0.2-0.1l0.2,0.1l0.3,0l0.1-0.2l0.2-0.2h0.3l0.8-0.6l0.5-0.6l0.2-0.7l-0.1-0.7
				l-0.2-0.5l-0.3-0.5l0.7,0.3l0.6,0.6l0.3,0.8v0.5l-0.2,0.6l-0.3,0.7l-0.5,0.7l-0.6,0.6l-0.5,0.3l0.4,0.3l0.3,0.5l-0.8,0.5
				l-0.9,0.8l-0.2,0.6l0,0.8l0.1,0.5l0.2,0.5l0.5,0.5l0.3,0.1l0,0.2l-0.2,0.2v0.3h-0.5l-0.2,0.3l-0.2,0.3l-0.8,0.1L-233,394.8
				L-233,394.8z"/>
			<path d="M-233,402.2L-233,402.2l0-7.4l0,0l0.3-0.1l0.1-0.2l0.2-0.1h0l0.2,0.1l0.3,0l0.1-0.2l0.2-0.2l0,0h0.3l0.8-0.6l0.5-0.6
				l0.2-0.7l-0.1-0.7l-0.2-0.5l-0.3-0.5l0,0l0.7,0.4l0.6,0.6l0.3,0.8l0,0.5l-0.2,0.6l-0.3,0.7l-0.5,0.7l-0.6,0.6l-0.5,0.2l0.4,0.3
				l0.3,0.5l0,0l-0.8,0.5l-0.8,0.8l-0.2,0.6l0,0.8l0.1,0.5l0.2,0.5l0.5,0.5l0.3,0.1l0,0l0,0.2l0,0l-0.2,0.2v0.3l0,0h-0.5l-0.2,0.3
				l-0.2,0.3l0,0L-233,402.2z M-233,394.8v7.3l0.8-0.1l0.2-0.2l0.2-0.3l0,0h0.5v-0.3l0,0l0.2-0.2l0-0.1l-0.3-0.1l-0.5-0.5l-0.2-0.5
				l-0.1-0.5l0-0.8l0.2-0.6l0.9-0.8l0.8-0.5l-0.3-0.5l-0.4-0.3l0,0l0.5-0.3l0.6-0.6l0.5-0.7l0.3-0.7l0.2-0.6v-0.5l-0.3-0.8l-0.6-0.6
				l-0.6-0.3l0.3,0.4l0.2,0.5l0.1,0.7l-0.2,0.7l-0.5,0.6l-0.8,0.6l0,0h-0.3l-0.2,0.2l-0.1,0.2l0,0l-0.3,0l-0.2-0.1l-0.2,0.1
				l-0.1,0.2l0,0L-233,394.8z"/>
		</g>
		<g>
			<path class="st1" d="M-233.2,391.3l0.1-0.2l0.2,0.3v1.9l-0.1,0.3l-0.2-0.3L-233.2,391.3z"/>
		</g>
		<g>
			<path class="st1" d="M-230.8,395.8l1-0.2l0.5-0.3l0.3-0.3l0.3,0.3l0.5,0.3l0.9,0.3l-0.9,0.3l-0.6,0.3l-0.3,0.2l-0.4-0.3l-0.6-0.3
				L-230.8,395.8z"/>
			<path d="M-229.1,396.7L-229.1,396.7l-0.5-0.3l-0.6-0.3l-0.7-0.3l0,0l1-0.2l0.5-0.3l0.3-0.3h0l0.3,0.3l0.5,0.3l0.9,0.3v0l-0.9,0.3
				l-0.6,0.3L-229.1,396.7z M-230.8,395.8l0.6,0.2l0.6,0.3l0.4,0.3l0.3-0.2l0.6-0.3l0.9-0.2l-0.8-0.3l-0.5-0.3l-0.3-0.3l-0.3,0.3
				l-0.5,0.3L-230.8,395.8z"/>
		</g>
		<g>
			<path class="st1" d="M-233.2,394.9h0.4l0,7.3l-0.3,0L-233.2,394.9L-233.2,394.9z"/>
		</g>
		<g>
			<path d="M-232.7,401.3l0.3-0.2l0.5,0.1l-0.1,0.1l-0.3,0.1l-0.3,0.1L-232.7,401.3L-232.7,401.3z"/>
			<path d="M-232.6,401.5L-232.6,401.5l-0.2-0.1l0,0l0.3-0.2l0,0l0.5,0.1l0,0l-0.1,0.1l-0.3,0.1L-232.6,401.5z M-232.7,401.3
				l0.2,0.1l0.2-0.1l0.3-0.1l0.1-0.1l-0.5-0.1L-232.7,401.3z"/>
		</g>
		<g>
			<path class="st1" d="M-236.3,398.5l-0.1-0.4l-0.3-0.2l-0.4,0l-0.2,0.2l0,0.2l0,0.2l-0.2-0.1l-0.3,0.1l-0.2,0.1l-0.1,0.3v0.3
				l0.3,0.2l0.3,0.1h0.1l-0.2,0.1l-0.1,0.3l0.1,0.2l0.4,0.2h0.3l0.3-0.1l0.1-0.2l0-0.1l0.2,0.1l0.3,0.1h0.3l0.2-0.1l0.1-0.3
				l-0.1-0.3l-0.2-0.1l0.1-0.1l0.2-0.2l0.1-0.2l-0.1-0.3l-0.2-0.2h-0.3l-0.1-0.1L-236.3,398.5L-236.3,398.5z"/>
			<path d="M-237.1,400.4h-0.3l0,0l-0.4-0.2l0,0l-0.1-0.2l0,0l0.1-0.3l0,0l0.1-0.1l-0.2-0.1l-0.3-0.2l0,0l0-0.3l0.1-0.3l0,0l0.2-0.1
				l0.3-0.1l0,0l0.1,0l0-0.2l0-0.2l0,0l0.2-0.2l0,0l0.4,0l0,0l0.3,0.2l0,0l0.1,0.3l0.1-0.1l0,0l0.1,0.1h0.3l0,0l0.2,0.2l0,0l0.1,0.3
				l0,0l-0.1,0.2l-0.2,0.2l-0.1,0l0.1,0.1l0,0l0.1,0.3l0,0l-0.1,0.3l0,0l-0.2,0.1h-0.3l-0.3-0.1l-0.2-0.1l0,0.1l-0.1,0.2l0,0
				L-237.1,400.4z M-237.3,400.3h0.2l0.3-0.1l0.1-0.2l0-0.1l0,0l0.2,0.1l0.3,0.1l0.3,0l0.2-0.1l0.1-0.3l-0.1-0.3l-0.2-0.1l0,0
				l0.1-0.1l0.2-0.1l0.1-0.2l-0.1-0.3l-0.2-0.2h-0.3l0,0l0,0l-0.1,0.2l0,0l-0.1-0.4l-0.3-0.1l-0.4,0l-0.2,0.1l0,0.2l0,0.2l0,0
				l-0.2-0.1l-0.3,0.1l-0.2,0.1l-0.1,0.2v0.3l0.2,0.2l0.2,0.1h0.1l0,0l-0.2,0.1l-0.1,0.3l0.1,0.2L-237.3,400.3z"/>
		</g>
		<g>
			<path d="M-236.2,385.1l-0.1-0.1l-0.3-0.3l0,0l0.1-0.1l0.1-0.2v-1.6l-0.1-0.1h-0.2l-0.2,0.1l-0.1,0.2l0,0l-0.1-0.2l0,0l0-0.4
				l0.1-0.2l0,0l0.2,0.2l0.2,0l0.2,0l0.1-0.1l0-0.6l-0.1-0.1l-0.2,0.1l0,0l0.1-0.2l0,0l0.2-0.1l0.2,0l0.2,0.1l0.2,0.2l0,0l-0.1,0
				l-0.2,0l0,0v0.6l0.2,0l0.3,0l0.2-0.2l0,0l0,0.1l0,0.2l0,0.5l0,0l-0.3-0.3l-0.3-0.1l-0.2,0v1.7l0,0l0.2,0.2v0l-0.2,0.2
				L-236.2,385.1L-236.2,385.1z M-236.4,384.7l0.2,0.2l0,0.1l0-0.2l0,0l0.2-0.1l-0.2-0.1l0,0l0,0v-1.7l0,0h0.2l0.3,0.1l0,0l0.2,0.2
				v-0.4l0-0.2l0-0.1l-0.2,0.2l0,0l-0.3,0l0,0l-0.2,0l0,0v-0.7l0,0h0.1l0.1,0l-0.1-0.1l-0.2-0.1h-0.2l-0.2,0.1l-0.1,0.1l0.2-0.1l0,0
				l0.1,0.1l0,0l0,0.6l0,0l-0.2,0.1l0,0l-0.3,0l-0.2,0l0,0l-0.1-0.2l-0.1,0.2v0.3l0.1,0.1l0.1-0.2l0,0l0.2-0.1l0.2,0l0.2,0.1l0,0
				l0,1.6L-236.4,384.7L-236.4,384.7z"/>
		</g>
		<g>
			<path class="st5" d="M-236,384.1l0.5,0.4l0.3-0.4l-0.4-0.2l-0.4,0.1L-236,384.1L-236,384.1z"/>
			<path d="M-235.5,384.5l-0.5-0.4l0,0V384l0,0l0.4-0.1l0,0l0.4,0.2l0,0L-235.5,384.5L-235.5,384.5z M-236,384.1l0.5,0.4l0.3-0.4
				l-0.4-0.1L-236,384.1L-236,384.1z"/>
		</g>
		<g>
			<path class="st5" d="M-235.2,383.7l-0.3-0.2l-0.5-0.1l-0.3,0.1l-0.2,0.3l0.7-0.1l0.8,0.2L-235.2,383.7z"/>
			<path d="M-235,384l-0.8-0.2l-0.7,0.1l0,0l0.2-0.3l0,0l0.3-0.1l0.5,0.1l0.3,0.2L-235,384L-235,384z M-235.8,383.8l0.8,0.2
				l-0.2-0.3l-0.3-0.2l-0.5-0.1l-0.3,0.1l-0.2,0.3L-235.8,383.8z"/>
		</g>
	</g>
</g>
</svg>
