<?xml version="1.0" encoding="utf-8"?>
<!-- Generator: Adobe Illustrator 19.0.0, SVG Export Plug-In . SVG Version: 6.00 Build 0)  -->
<svg version="1.1" id="Layer_1" xmlns="http://www.w3.org/2000/svg" xmlns:xlink="http://www.w3.org/1999/xlink" x="0px" y="0px"
	 viewBox="-269 374 72 46" style="enable-background:new -269 374 72 46;" xml:space="preserve">
<style type="text/css">
	.st0{clip-path:url(#SVGID_2_);}
	.st1{fill:#E40520;}
	.st2{fill:#FFFFFF;}
	.st3{fill:#0058A2;}
</style>
<g>
	<defs>
		<path id="SVGID_1_" d="M-204,420H-262c-3.8,0-7-3.1-7-7V381c0-3.8,3.1-7,7-7h58.1c3.8,0,7,3.1,7,7V413
			C-197,416.9-200.1,420-204,420z"/>
	</defs>
	<clipPath id="SVGID_2_">
		<use xlink:href="#SVGID_1_"  style="overflow:visible;"/>
	</clipPath>
	<g class="st0">
		<g>
			<polygon class="st1" points="-184.3,388.5 -281.7,388.5 -281.7,372.3 -184.3,372.3 			"/>
		</g>
		<g>
			<path d="M-184.2,388.7h-97.6v-16.5h97.6V388.7z M-281.6,388.4h97.1v-16h-97.1V388.4z"/>
		</g>
		<g>
			<polygon class="st2" points="-281.7,421 -184.3,421 -184.3,404.8 -281.7,404.8 			"/>
		</g>
		<g>
			<path d="M-184.2,421.1h-97.6v-16.5h97.6V421.1z M-281.6,420.9h97.1v-16h-97.1V420.9z"/>
		</g>
		<g>
			<polygon class="st3" points="-184.3,404.8 -281.7,404.8 -281.7,388.5 -184.3,388.5 			"/>
		</g>
		<g>
			<path d="M-184.2,404.9h-97.6v-16.5h97.6V404.9z M-281.6,404.6h97.1v-16h-97.1V404.6z"/>
		</g>
	</g>
</g>
</svg>
