<?xml version="1.0" encoding="utf-8"?>
<!-- Generator: Adobe Illustrator 19.0.0, SVG Export Plug-In . SVG Version: 6.00 Build 0)  -->
<svg version="1.1" id="Layer_1" xmlns="http://www.w3.org/2000/svg" xmlns:xlink="http://www.w3.org/1999/xlink" x="0px" y="0px"
	 viewBox="-269 374 72 46" style="enable-background:new -269 374 72 46;" xml:space="preserve">
<style type="text/css">
	.st0{clip-path:url(#SVGID_2_);}
	.st1{clip-path:url(#SVGID_4_);}
	.st2{fill:#ED2939;}
	.st3{fill:#002395;}
	.st4{fill:#FFFFFF;}
	.st5{fill:#FFFF00;}
	.st6{fill:#FF0000;}
	.st7{fill:#80CFE1;}
	.st8{fill:#7E7E7E;}
	.st9{fill:#009FC5;}
	.st10{fill:#BC715F;}
	.st11{fill:#008737;}
</style>
<g>
	<defs>
		<path id="SVGID_1_" d="M-204,420H-262c-3.8,0-7-3.1-7-7V381c0-3.8,3.1-7,7-7h58.1c3.8,0,7,3.1,7,7V413
			C-197,416.9-200.1,420-204,420z"/>
	</defs>
	<clipPath id="SVGID_2_">
		<use xlink:href="#SVGID_1_"  style="overflow:visible;"/>
	</clipPath>
	<g class="st0">
		<g>
			<defs>
				<rect id="SVGID_3_" x="-269.9" y="369.1" width="69.4" height="52"/>
			</defs>
			<clipPath id="SVGID_4_">
				<use xlink:href="#SVGID_3_"  style="overflow:visible;"/>
			</clipPath>
			<g transform="scale(.9375)" class="st1">
				<g>
					<path class="st2" d="M-288,393.3h88.8v29.6h-49.3L-288,393.3z"/>
				</g>
				<g>
					<path class="st3" d="M-288,452.5h88.8v-29.6h-49.3L-288,452.5z"/>
				</g>
				<g>
					<path class="st4" d="M-288,393.3l39.5,29.6l-39.5,29.6V393.3z"/>
				</g>
				<g>
					<path class="st5" d="M-268.1,415.7l0-0.5c0,0-0.2-0.4,0-0.8c0,0-0.6-0.3-0.5-0.8c0,0-0.5-0.1-0.5-0.7c0,0-0.6,0-0.7-0.5
						c0,0-0.6,0.1-0.9-0.4c0,0-0.6,0.1-0.7-0.3c0,0-0.6,0.2-0.9-0.3c0,0-0.6,0.2-0.8-0.2c-0.2,0.4-0.8,0.2-0.8,0.2
						c-0.3,0.5-0.9,0.3-0.9,0.3c-0.2,0.4-0.7,0.3-0.7,0.3c-0.3,0.5-0.9,0.4-0.9,0.4c-0.1,0.5-0.6,0.5-0.6,0.5c0,0.6-0.5,0.7-0.5,0.7
						c0.1,0.5-0.5,0.8-0.5,0.8c0.3,0.4,0,0.8,0,0.8l0,0.4L-268.1,415.7"/>
				</g>
				<g>
					<path d="M-268.1,415.8l-0.1,0l-9.8,0l0-0.6l0,0c0,0,0.2-0.3,0-0.7l-0.1-0.1l0.1-0.1c0,0,0.5-0.3,0.4-0.7l0-0.1l0.1,0
						c0,0,0.4-0.1,0.4-0.6l0-0.1l0.1,0c0,0,0.5,0,0.5-0.4l0-0.1l0.1,0c0,0,0.5,0.1,0.7-0.3l0.1-0.1l0.1,0c0,0,0.5,0.1,0.6-0.2
						l0.1-0.1l0.1,0c0,0,0.5,0.2,0.7-0.2l0.1-0.1l0.1,0c0,0,0.5,0.2,0.7-0.1l0.1-0.2l0.1,0.2c0.2,0.3,0.7,0.1,0.7,0.1l0.1,0l0.1,0.1
						c0.3,0.4,0.7,0.2,0.7,0.2l0.1,0l0.1,0.1c0.1,0.3,0.6,0.2,0.6,0.2l0.1,0l0,0.1c0.2,0.4,0.7,0.3,0.7,0.3l0.1,0l0,0.1
						c0,0.4,0.5,0.4,0.5,0.4l0.1,0l0,0.1c0,0.5,0.4,0.6,0.4,0.6l0.1,0l0,0.1c-0.1,0.4,0.4,0.7,0.4,0.7l0.1,0.1l-0.1,0.1
						c-0.2,0.3,0,0.6,0,0.7l0,0l0,0.5l-0.1,0L-268.1,415.8z M-277.7,415.5l9.5,0l0-0.3c-0.1-0.1-0.2-0.4,0-0.8
						c-0.2-0.1-0.5-0.4-0.4-0.8c-0.2-0.1-0.5-0.3-0.5-0.7c-0.2-0.1-0.5-0.2-0.6-0.5c-0.2,0-0.6,0-0.8-0.4c-0.2,0-0.5,0-0.7-0.3
						c-0.2,0-0.6,0-0.9-0.3c-0.2,0.1-0.6,0.1-0.8-0.1c-0.2,0.2-0.6,0.2-0.8,0.1c-0.3,0.3-0.6,0.3-0.9,0.3c-0.2,0.3-0.5,0.3-0.7,0.3
						c-0.2,0.3-0.6,0.4-0.8,0.4c0,0,0,0,0,0c-0.1,0.3-0.4,0.5-0.6,0.5c0,0.4-0.3,0.6-0.5,0.7c0,0.4-0.3,0.6-0.4,0.8
						c0.2,0.4,0.1,0.7,0,0.8L-277.7,415.5z"/>
				</g>
				<g>
					<path class="st6" d="M-268.3,415.1c-1.5-0.2-3.3-0.5-4.7,0.3c-0.9-0.5-2.2-0.5-3.3-0.4c-0.6,0.1-1.3,0.1-1.9,0.2l-0.1,0
						c-1.1,0.1-2.1-0.3-3.1-0.7c0.3,1.8,0.7,3.6,0.8,5.4c0.4,2.7-1.3,5-0.6,7.7c0.4,1.3,1.8,2,3.1,2.2c1.3,0.1,2.6,0.3,3.7,0.5
						c0.2,0,0.5,0.1,0.6,0.2c0.3,0.1,0.6,0.3,0.8,0.5c0.7-0.7,1.7-0.9,2.7-1c1.8-0.2,4.1-0.1,5.2-1.8v-0.1c0.6-0.9,0.5-2.3,0.3-3.4
						c0-0.4-0.1-0.7-0.2-1c-1.1-3-0.2-6.3,0.3-9.2c-0.6,0.3-1.2,0.5-1.9,0.6c-0.5,0.1-1.1,0-1.6,0L-268.3,415.1"/>
				</g>
				<g>
					<path class="st7" d="M-266,423.6c0,0.2,0.1,0.3,0.1,0.5c0.2,1.3,0.4,3-0.9,3.8c-1.5,0.9-3.4,0.5-5.1,1c-0.3,0.1-0.8,0.4-1,0.6
						c-0.2-0.1-0.3-0.3-0.5-0.3c-1.4-0.7-3.2-0.5-4.8-0.9c-0.8-0.3-1.6-0.9-1.8-1.7c-0.5-2.1,0.7-3.9,0.6-6.1
						c-0.1-1.6-0.4-3.2-0.7-4.7c1.2,0.6,2.7,0.7,4.1,0.4c1-0.1,2.2-0.1,3.2,0.3c0.5-0.2,1.2-0.3,1.7-0.4c1.1,0.1,2.3,0.3,3.4,0.3
						c0.7,0,1.4-0.3,2.1-0.5C-266.2,418.4-266.9,421.1-266,423.6"/>
				</g>
				<g>
					<path class="st4" d="M-268.2,424.1l0-2.4h0.3l-3.6-2.3l0-1.2h0.3l-1.8-1.3l-1.8,1.3h0.3l0,1.2l-3.6,2.3l0.3,0l0,2.3
						L-268.2,424.1"/>
				</g>
				<g>
					<path d="M-267.6,424.7l-10.7,0l0-2.4l-1.7,0l5-3.3l0-0.2h-1.7l3.7-2.7l3.7,2.7h-1.7l0,0.2l5.1,3.3h-1.8L-267.6,424.7z
						 M-277.1,423.4l8.2,0l0-1.6l-3.3-2.1l0-1.5l-0.8-0.6l-0.8,0.6l0,1.5l-3.3,2.1L-277.1,423.4z"/>
				</g>
				<g>
					<path class="st4" d="M-267.1,427.2l0,0.7l-11.6,0l0-0.7L-267.1,427.2"/>
				</g>
				<g>
					<polygon points="-266.5,428.5 -279.3,428.5 -279.3,426.5 -266.5,426.5 					"/>
				</g>
				<g>
					<path class="st4" d="M-277.9,427.1l0-2.5l0.5,0l0,2.5l0-2.5l-0.7,0v-0.5l10.3,0l0,0.5h-0.6l0,2.5l0-2.5h0.5l0,2.5"/>
				</g>
				<g>
					<polygon points="-269,427.2 -269,424.7 -276.8,424.7 -276.9,427.1 -278.1,427.1 -278.1,427.1 -278.5,427.1 -278.5,425.2 
						-278.8,425.2 -278.8,423.5 -267.2,423.5 -267.2,425.2 -267.3,425.2 -267.3,427.1 					"/>
				</g>
				<g>
					<polygon points="-275.1,427.1 -277.7,427.1 -277.7,424.1 -275.1,424.1 					"/>
				</g>
				<g>
					<path d="M-268.3,427.1h-2.6l0-3l2.6,0L-268.3,427.1z M-275.5,426.7h-1.9l0-2.3h1.9L-275.5,426.7z"/>
				</g>
				<g>
					<path d="M-268.7,426.8h-1.9l0-2.2h1.9L-268.7,426.8z M-268.3,424.3h-2.6l0-3h2.6L-268.3,424.3z"/>
				</g>
				<g>
					<path d="M-275.1,424.3l-2.6,0l0-3l2.6,0L-275.1,424.3z M-268.7,423.9h-1.9l0-2.2h1.9L-268.7,423.9z"/>
				</g>
				<g>
					<path d="M-273.2,424.3h-2l0-3l2.6,0l0,2.4l-0.6,0V424.3z M-275.5,423.9l-1.9,0l0-2.2h1.9L-275.5,423.9z"/>
				</g>
				<g>
					<polygon points="-270.6,424.3 -273.3,424.3 -273.3,423.9 -274.8,423.9 -274.8,421.7 -273.3,421.7 -273.3,421.3 -270.6,421.3 
											"/>
				</g>
				<g>
					<polygon points="-271,423.9 -272.9,423.9 -272.9,421.7 -271,421.7 					"/>
				</g>
				<g>
					<path class="st4" d="M-270.9,423.1l0,4l-4,0l0-4L-270.9,423.1"/>
				</g>
				<g>
					<path d="M-270.3,427.8l-5.3,0l0-5.2l5.3,0L-270.3,427.8z M-273.8,426.5l1.8,0l0-1.6l-1.8,0L-273.8,426.5z M-267.5,422.1
						l-10.9,0l3.7-2.7l0-1.5l3.4,0l0,1.5L-267.5,422.1z M-274.6,420.8l3.3,0l-0.6-0.4l-2.1,0L-274.6,420.8z"/>
				</g>
				<g>
					<polygon points="-271.9,419.8 -274.1,419.8 -274.1,418.7 -276.1,418.7 -273,416.5 -269.8,418.7 -271.9,418.7 					"/>
				</g>
				<g>
					<path class="st4" d="M-268.2,416.7c0.3,0,0.4,1.4,0.4,2.1c0.3,0.1,0.9,0.5,1.2,0.9l-3.3,0c0.3-0.4,0.9-0.8,1.2-0.8
						C-268.6,418.1-268.5,416.7-268.2,416.7"/>
				</g>
				<g>
					<path d="M-272.2,424.6l-1.6,0l0,0h-2l0.5-0.8c0-0.1,0-0.2,0-0.3l-0.5-0.8h3.6l0,0l2,0l-0.5,0.8c0,0.1,0,0.2,0,0.3l0.4,0.8
						L-272.2,424.6L-272.2,424.6z M-265.3,420.3l-5.8,0l0.8-1c0.3-0.3,0.7-0.7,1.1-0.9c0-1.6,0.4-2,0.5-2.1c0.2-0.1,0.3-0.2,0.6-0.2
						v0c0.2,0,0.4,0.1,0.5,0.2c0.3,0.3,0.5,1,0.5,2.1c0.4,0.2,0.8,0.5,1.1,0.9L-265.3,420.3z"/>
				</g>
				<g>
					<path class="st5" d="M-272.9,432.3c1.5,0,3.4-0.3,4.2-0.8l1.9-0.2l0,2.3c-1.6,0.9-5.3,1.1-6.2,1.1c-0.8,0-4.6-0.2-6.2-1.1
						l0-2.3l1.9,0.2C-276.3,432-274.4,432.3-272.9,432.3L-272.9,432.3"/>
				</g>
				<g>
					<path d="M-272.9,434.9c-0.8,0-4.6-0.2-6.3-1.1l-0.1,0l0-2.6l2.1,0.2c0.8,0.4,2.7,0.7,4.2,0.7l0,0c0,0,0,0,0,0
						c1.5,0,3.3-0.3,4.1-0.7l0.1,0l2.1-0.2l0,2.6l-0.1,0C-268.3,434.7-272.1,434.9-272.9,434.9
						C-272.9,434.9-272.9,434.9-272.9,434.9z M-279,433.6c1.5,0.8,4.9,1,6,1c0,0,0.1,0,0.1,0c0.7,0,4.3-0.2,6-1l0-2.1l-1.7,0.2
						c-0.9,0.4-2.7,0.8-4.2,0.8c0,0,0,0,0,0c-1.6,0-3.5-0.3-4.3-0.8l-1.7-0.2L-279,433.6z"/>
				</g>
				<g>
					<path class="st5" d="M-284,422.4l1.7,0.5l-0.5,2.7l-1.6,0.2C-284.4,425.9-284.7,424.4-284,422.4"/>
				</g>
				<g>
					<path d="M-284.5,426l0-0.1c0-0.1-0.3-1.5,0.4-3.6l0.1,0l0-0.1l1.8,0.6l-0.5,2.9L-284.5,426z M-283.9,422.5
						c-0.5,1.6-0.4,2.8-0.4,3.2l1.3-0.2l0.5-2.5L-283.9,422.5z"/>
				</g>
				<g>
					<path class="st8" d="M-282.8,425.6l-1.6,0.3l1-1.4L-282.8,425.6"/>
				</g>
				<g>
					<path d="M-284.7,426.1l1.3-1.9l0.8,1.5L-284.7,426.1z M-283.4,424.7l-0.7,0.9l1.1-0.2L-283.4,424.7z"/>
				</g>
				<g>
					<path class="st5" d="M-285,424.3l1.6,0.1c0,1.4,0.2,6.6,6.4,6.9l-0.2,1.9C-284.7,433.3-285.3,426.8-285,424.3"/>
				</g>
				<g>
					<path d="M-279,433.8l-0.1-0.3l0.7-0.2c-2.1-0.2-3.7-1-4.9-2.3c-1.8-2-2.1-4.9-1.9-6.7l0-0.1l1.9,0.1l0,0.1
						c0.1,5.3,3.5,6.6,6.3,6.7l0.2,0l-0.2,2.2l-0.1,0c0,0-0.1,0-0.1,0L-279,433.8z M-284.9,424.5c-0.2,1.8,0.2,4.5,1.8,6.4
						c1.3,1.5,3.3,2.2,5.8,2.2l0,0l0.2-1.6c-2.9-0.2-6.2-1.5-6.4-6.9L-284.9,424.5z"/>
				</g>
				<g>
					<path class="st5" d="M-261.9,422.4l-1.7,0.5l0.5,2.7l1.6,0.3C-261.5,425.9-261.2,424.4-261.9,422.4"/>
				</g>
				<g>
					<path d="M-261.4,426l-1.8-0.3l-0.6-2.9l1.8-0.6l0,0.1l0.1,0c0.7,2.1,0.5,3.5,0.5,3.6L-261.4,426z M-262.9,425.5l1.3,0.2
						c0-0.4,0.1-1.6-0.4-3.2l-1.4,0.4L-262.9,425.5z"/>
				</g>
				<g>
					<path class="st8" d="M-263.1,425.6l1.6,0.3l-1-1.4L-263.1,425.6"/>
				</g>
				<g>
					<path d="M-261.1,426.1l-2.1-0.4l0.8-1.5L-261.1,426.1z M-262.8,425.5l1.1,0.2l-0.7-0.9L-262.8,425.5z"/>
				</g>
				<g>
					<path class="st5" d="M-260.9,424.3l-1.6,0.1c0,1.4-0.1,6.6-6.4,6.9l0.2,1.9C-261.1,433.3-260.6,426.8-260.9,424.3"/>
				</g>
				<g>
					<path d="M-266.8,433.8l-1.8-0.4c0,0-0.1,0-0.1,0l-0.1,0l-0.2-2.2l0.2,0c2.8-0.1,6.2-1.4,6.3-6.7l0-0.1l1.9-0.1l0,0.1
						c0.2,1.9-0.1,4.8-1.8,6.7c-1.2,1.3-2.8,2.1-4.9,2.3l0.7,0.2L-266.8,433.8z M-268.6,433.1L-268.6,433.1c2.6,0,4.5-0.7,5.8-2.2
						c1.6-1.8,2-4.6,1.8-6.4l-1.4,0.1c-0.1,5.4-3.5,6.7-6.4,6.9L-268.6,433.1z"/>
				</g>
				<g>
					<path class="st9" d="M-273.9,433.4c0,0-0.1,0-0.2,0l-0.3,0l0-0.4l0.3,0c0.1,0,0.1,0,0.1,0c0.1,0,0.1,0.1,0.1,0.2
						C-273.8,433.3-273.9,433.4-273.9,433.4 M-274.4,434l0-0.5l0.4,0c0.1,0,0.2,0,0.3-0.1c0.1-0.1,0.1-0.1,0.1-0.2
						c0-0.1,0-0.2-0.1-0.2c-0.1-0.1-0.1-0.1-0.2-0.1l-0.5,0l-0.1,1.1L-274.4,434 M-273.3,433.1l0.4,0c0.1,0,0.1,0,0.1,0
						c0.1,0,0.1,0.1,0.1,0.2c0,0.1,0,0.1-0.1,0.2c0,0-0.1,0-0.2,0l-0.4,0L-273.3,433.1 M-273.3,434.1l0-0.5l0.3,0c0.1,0,0.1,0,0.1,0
						c0.1,0,0.1,0.1,0.1,0.1l0,0.2c0,0,0,0.1,0,0.1c0,0,0,0,0,0h0.2l0,0c0,0,0,0,0-0.1c0,0,0-0.1,0-0.1l0-0.1c0-0.1,0-0.1,0-0.1
						c0,0-0.1-0.1-0.1-0.1c0.1,0,0.1-0.1,0.1-0.1c0,0,0-0.1,0-0.2c0-0.1-0.1-0.2-0.2-0.3c-0.1,0-0.1,0-0.2,0l-0.5,0l0,1.1
						L-273.3,434.1 M-272.2,433.8c-0.1-0.1-0.1-0.2-0.1-0.3c0-0.2,0-0.3,0.1-0.3c0.1-0.1,0.2-0.1,0.3-0.1c0.1,0,0.2,0,0.3,0.1
						c0.1,0.1,0.1,0.2,0.1,0.3c0,0.1,0,0.2-0.1,0.3c-0.1,0.1-0.1,0.2-0.3,0.2C-272,434-272.1,433.9-272.2,433.8 M-272.4,433.2
						c-0.1,0.1-0.1,0.2-0.1,0.4c0,0.2,0.1,0.3,0.2,0.4c0.1,0.1,0.2,0.2,0.4,0.1c0.2,0,0.3-0.1,0.4-0.2c0.1-0.1,0.1-0.2,0.1-0.4
						c0-0.1-0.1-0.3-0.1-0.4c-0.1-0.1-0.2-0.2-0.4-0.2C-272.1,432.9-272.3,433-272.4,433.2 M-267.3,431.6c0.1,0,0.2,0,0.3,0
						c0.1,0,0.2,0.1,0.3,0.3l-0.1,0c0-0.1-0.1-0.1-0.1-0.2c-0.1,0-0.1,0-0.2,0c-0.1,0-0.2,0.1-0.2,0.1c-0.1,0.1-0.1,0.2,0,0.4
						c0,0.1,0.1,0.2,0.1,0.3c0.1,0.1,0.2,0.1,0.3,0.1c0.1,0,0.2-0.1,0.2-0.1c0.1-0.1,0.1-0.2,0.1-0.3l-0.3,0.1l0-0.1l0.5-0.1
						l0.1,0.6l-0.1,0l-0.1-0.1c0,0.1-0.1,0.1-0.1,0.1c-0.1,0-0.1,0.1-0.2,0.1c-0.1,0-0.3,0-0.4-0.1c-0.1-0.1-0.2-0.2-0.2-0.4
						c0-0.2,0-0.3,0.1-0.5C-267.5,431.7-267.4,431.6-267.3,431.6 M-266.2,431.5l0.3-0.1c0,0,0.1,0,0.1,0c0.1,0,0.1,0,0.1,0.1
						c0,0.1,0,0.1,0,0.2c0,0-0.1,0.1-0.1,0.1l-0.3,0.1L-266.2,431.5 M-265.8,432.4l-0.2-0.4l0.3-0.1c0.1,0,0.1,0,0.1,0
						c0.1,0,0.1,0,0.1,0.1l0.1,0.2c0,0,0,0.1,0,0.1c0,0,0,0,0,0l0.2-0.1l0,0c0,0-0.1,0-0.1,0c0,0,0,0,0-0.1l-0.1-0.1
						c0-0.1-0.1-0.1-0.1-0.1c0,0-0.1,0-0.1,0c0,0,0.1-0.1,0.1-0.1c0,0,0-0.1,0-0.2c0-0.1-0.1-0.2-0.2-0.2c-0.1,0-0.1,0-0.2,0
						l-0.5,0.2l0.4,1L-265.8,432.4 M-264.6,431.9l-0.6-0.9l0.7-0.4l0.1,0.1l-0.6,0.4l0.2,0.3l0.5-0.3l0.1,0.1l-0.5,0.3l0.2,0.3
						l0.6-0.4l0.1,0.1L-264.6,431.9 M-264,430.3l0.2-0.2c0.1-0.1,0.2-0.1,0.3-0.1c0.1,0,0.2,0.1,0.3,0.1c0,0,0.1,0,0.1,0.1
						c0,0.1,0.1,0.1,0.1,0.2c0,0.1,0,0.1,0,0.2c0,0,0,0.1-0.1,0.1l-0.2,0.2L-264,430.3 M-263.1,430.7c0.1-0.1,0.2-0.3,0.1-0.5
						c0-0.1-0.1-0.2-0.2-0.3c-0.1-0.1-0.2-0.2-0.4-0.2c-0.1,0-0.3,0-0.4,0.2l-0.3,0.3l0.8,0.7L-263.1,430.7 M-262.4,429.9l-1-0.6
						l0.1-0.1l1,0.6L-262.4,429.9 M-262,429.2l-1-0.4l0.3-0.7l0.1,0l-0.2,0.6l0.3,0.1l0.2-0.6l0.1,0l-0.2,0.6l0.3,0.1l0.3-0.6l0.1,0
						L-262,429.2 M-261.6,427.9l-1.1-0.2l0-0.2l1-0.3l-0.9-0.2l0-0.1l1.1,0.2l0,0.2l-1,0.3l0.9,0.2L-261.6,427.9 M-261.7,426.5
						l0-0.1c0.1,0,0.1,0,0.2,0c0.1,0,0.1-0.1,0.1-0.2c0-0.1,0-0.1,0-0.2c0-0.1-0.1-0.1-0.2-0.1c-0.1,0-0.1,0-0.1,0
						c0,0-0.1,0.1-0.1,0.2l-0.1,0.1c0,0.1-0.1,0.2-0.1,0.2c-0.1,0.1-0.1,0.1-0.2,0.1c-0.1,0-0.2,0-0.2-0.1c-0.1-0.1-0.1-0.2-0.1-0.3
						c0-0.1,0-0.2,0.1-0.3c0.1-0.1,0.2-0.1,0.3-0.1l0,0.1c-0.1,0-0.1,0-0.1,0c-0.1,0-0.1,0.1-0.1,0.2c0,0.1,0,0.1,0,0.2
						c0,0,0.1,0.1,0.1,0.1c0.1,0,0.1,0,0.1-0.1c0,0,0-0.1,0.1-0.2l0-0.2c0-0.1,0.1-0.1,0.1-0.2c0.1-0.1,0.1-0.1,0.2-0.1
						c0.1,0,0.2,0.1,0.3,0.2c0,0.1,0.1,0.2,0.1,0.3c0,0.1-0.1,0.2-0.1,0.3C-261.4,426.5-261.5,426.6-261.7,426.5 M-284.3,426.5
						l0,0.1c-0.1,0-0.1,0-0.1,0.1c-0.1,0.1-0.1,0.1-0.1,0.3c0,0.1,0,0.1,0.1,0.1c0,0.1,0.1,0.1,0.2,0.1c0.1,0,0.1,0,0.1-0.1
						c0,0,0-0.1,0-0.2l0-0.2c0-0.1,0-0.2,0-0.2c0-0.1,0.1-0.1,0.2-0.1c0.1,0,0.2,0,0.3,0.1c0.1,0.1,0.1,0.1,0.1,0.3
						c0,0.1,0,0.2,0,0.3c0,0.1-0.1,0.1-0.2,0.2l0-0.1c0.1,0,0.1,0,0.1-0.1c0-0.1,0.1-0.1,0-0.2c0-0.1,0-0.1-0.1-0.2c0,0-0.1,0-0.1,0
						c-0.1,0-0.1,0-0.1,0.1c0,0,0,0.1,0,0.2l0,0.2c0,0.1,0,0.1,0,0.2c0,0.1-0.1,0.1-0.2,0.1c-0.1,0-0.2,0-0.3-0.1
						c-0.1-0.1-0.1-0.2-0.1-0.3c0-0.1,0-0.2,0-0.3C-284.5,426.5-284.4,426.5-284.3,426.5 M-284.3,427.9l1.1-0.3l0.2,0.8l-0.1,0
						l-0.2-0.6l-0.3,0.1l0.2,0.6l-0.1,0l-0.2-0.6l-0.4,0.1l0.2,0.6l-0.1,0L-284.3,427.9 M-283.9,429.2l1-0.5l0.1,0.2l-0.7,0.7l1-0.2
						l0.1,0.2l-1,0.5l-0.1-0.1l0.6-0.3c0,0,0.1,0,0.1-0.1c0,0,0.1,0,0.1-0.1l-1,0.2l-0.1-0.1l0.7-0.7l0,0c0,0-0.1,0-0.1,0.1
						c0,0-0.1,0-0.1,0.1l-0.6,0.3L-283.9,429.2 M-282,430.7c0,0-0.1,0-0.1-0.1l-0.2-0.2l0.3-0.3l0.2,0.2c0,0,0.1,0.1,0.1,0.1
						c0,0.1,0,0.1-0.1,0.2C-281.9,430.6-282,430.7-282,430.7 M-282.8,430.8l0.3-0.3l0.2,0.2c0.1,0.1,0.2,0.1,0.2,0.1
						c0.1,0,0.2,0,0.2-0.1c0.1-0.1,0.1-0.1,0.1-0.2c0-0.1,0-0.2-0.1-0.2l-0.3-0.4l-0.8,0.7L-282.8,430.8 M-281.9,431.6l0.6-0.9
						l0.7,0.4l-0.1,0.1l-0.6-0.3l-0.2,0.3l0.5,0.3l-0.1,0.1l-0.5-0.3l-0.2,0.3l0.6,0.3l-0.1,0.1L-281.9,431.6 M-280.1,431.4l0.4,0.1
						c0.1,0,0.1,0,0.1,0.1c0,0,0.1,0.1,0,0.2c0,0.1-0.1,0.1-0.1,0.1c0,0-0.1,0-0.2,0l-0.3-0.1L-280.1,431.4 M-280.4,432.4l0.1-0.4
						l0.3,0.1c0.1,0,0.1,0,0.1,0.1c0,0,0.1,0.1,0,0.2l0,0.2c0,0,0,0.1,0,0.1c0,0,0,0,0,0l0.2,0.1l0,0c0,0,0,0,0-0.1c0,0,0-0.1,0-0.1
						l0-0.1c0-0.1,0-0.1,0-0.1c0,0,0-0.1-0.1-0.1c0.1,0,0.1,0,0.1-0.1c0,0,0.1-0.1,0.1-0.1c0-0.1,0-0.2-0.1-0.3c0,0-0.1-0.1-0.2-0.1
						l-0.5-0.2l-0.3,1L-280.4,432.4"/>
				</g>
				<g>
					<path class="st10" d="M-278.9,413.6c0.1-0.3,1.3-1.1,5.2-0.8c0,0,0.7,0.4,1,0.3c0.2,0-0.1,0-0.4-0.2c-0.3-0.2-0.4-0.7,0.3-0.7
						c0.7,0,3.2,0.2,3.2,0.4c0,0.2-1.3,0.3-1.8,0.3c-0.5,0-0.4,0.2,0.1,0.2c1.6-0.1,3.3-0.6,5.1,0.7c0.2,0.2-0.5,0.2-1.1-0.1
						c0,0-1.6,0.1-2.3,0c0,0-0.5,0.4-1.2,0.4c0.1,0.2-0.3,1.1-2.4,0.4c-0.4,0.1-1.7,0.3-1.5-0.1c-0.3,0-1,0.1-1-0.1
						c-0.1-0.2,1.1-0.5,1.3-0.7c0,0-2.4,0-2.9-0.1C-277.6,413.6-279,413.9-278.9,413.6"/>
				</g>
				<g>
					<path class="st11" d="M-278.1,417.1c0.1-0.1,0.1-0.2,0.2-0.2c0.2,0.1,0.4,0.5,0.7,0.2c0.1,0,0.1,0.1,0.2,0.1
						c0.1,0.2,0.3-0.1,0.4,0c0.3-0.1,0.7-0.2,1.1-0.1c0,0.2-0.2,0.5-0.4,0.6c0,0.2,0.2,0.4,0.2,0.6c0,0.1,0,0.2-0.1,0.3
						c-0.2,0-0.3,0-0.5-0.1c0,0,0-0.1-0.1,0c0,0.1,0.1,0.2,0.2,0.2c-0.1,0.2-0.2,0-0.4,0c0,0.1,0,0.2-0.1,0.3
						c-0.2,0-0.2-0.2-0.3-0.3c-0.1,0.1,0.1,0.2,0.1,0.3c-0.1,0.3-0.1,0.6-0.4,0.8l-0.2,0.1c-0.1-0.2,0-0.4-0.1-0.6
						c-0.1,0.2-0.2,0.4-0.4,0.6c-0.2-0.1-0.3-0.3-0.4-0.5c-0.1-0.2,0-0.5,0.2-0.7c-0.1-0.1-0.3-0.1-0.3-0.3
						c-0.3-0.2-0.5,0.4-0.7,0.1c-0.1-0.3,0-0.7,0.2-0.9c0-0.1-0.2-0.1-0.3-0.2c-0.2-0.2-0.5-0.4-0.5-0.7
						C-279.3,416.4-278.6,416.6-278.1,417.1"/>
				</g>
				<g>
					<path class="st5" d="M-277.8,417c0,0.3,0.2,0.1,0.3,0.2c-0.1,0-0.2,0.2-0.3,0.1l-0.1,0.1c0,0.1,0.1,0.1,0,0.2
						c-0.1,0-0.1-0.1-0.2-0.2c0,0,0-0.1,0-0.1c-0.1,0.1-0.1,0.1-0.2,0.1c0-0.1-0.1-0.1,0-0.2c0.1-0.1,0.2,0,0.3,0
						c0-0.1-0.1-0.2,0-0.2C-277.9,417-277.9,416.9-277.8,417 M-277.1,417.2c0,0.1,0,0.1,0,0.2c0.1,0,0.2,0,0.2,0.1c0,0,0,0.1,0,0.1
						l-0.1,0c0,0,0,0-0.1-0.1c-0.1,0-0.1,0-0.1,0.1c0,0.1,0.1,0.1,0.1,0.1c-0.1,0.1-0.1-0.1-0.2,0c-0.1,0,0-0.1-0.1-0.2
						c-0.1,0,0,0.2-0.2,0.1c-0.1-0.1-0.1-0.1,0-0.2c0.1,0,0.2,0,0.2,0C-277.3,417.3-277.3,417-277.1,417.2 M-278,417.6
						c0.1,0.1,0,0.2,0.1,0.3c0.1-0.2,0.2,0,0.4,0c0,0.1,0,0.1,0,0.2c-0.2,0-0.4,0.1-0.5,0l0,0c0.1,0.1,0.2,0.2,0.1,0.3
						c-0.1,0-0.3,0-0.4-0.1c0-0.1,0.1-0.2,0-0.3c-0.1,0.1-0.1,0.3-0.3,0.2c-0.1-0.1-0.1-0.2-0.1-0.3c0.1-0.2,0.3,0,0.4-0.1
						c0-0.2,0-0.3,0.1-0.4C-278.1,417.5-278.1,417.6-278,417.6"/>
				</g>
				<g>
					<path class="st4" d="M-277.5,417.7c-0.1,0.3-0.3,0-0.4,0C-277.7,417.5-277.7,417.8-277.5,417.7 M-276.9,418
						c-0.1,0-0.1-0.1-0.2-0.2l0.1,0C-277,417.8-276.9,417.9-276.9,418"/>
				</g>
				<g>
					<path class="st5" d="M-277.1,418c0,0.1-0.1,0.2,0,0.2c0,0,0.1-0.1,0.1-0.1c0.1,0,0.2,0,0.3,0.1c0.1,0.2-0.1,0.2-0.2,0.2l-0.1,0
						c0-0.1,0-0.1-0.1-0.1c-0.1,0-0.1,0-0.1,0c0,0.1,0.2,0.2,0,0.3c-0.1,0-0.3,0-0.3-0.1c-0.1-0.1,0.1-0.3-0.1-0.3
						c-0.1,0.1-0.1,0.3-0.3,0.1l0-0.2c0.2,0,0.4,0,0.4-0.1c0-0.1-0.1-0.3,0-0.4C-277.3,417.7-277.2,417.9-277.1,418"/>
				</g>
				<g>
					<path d="M-277.2,418.3c0,0.1-0.1,0.1-0.1,0.2c-0.1,0-0.1,0-0.2-0.1c0-0.1,0.1-0.1,0.1-0.2
						C-277.3,418.1-277.2,418.2-277.2,418.3"/>
				</g>
				<g>
					<path class="st4" d="M-277.3,418.3C-277.3,418.4-277.3,418.3-277.3,418.3L-277.3,418.3C-277.3,418.2-277.3,418.3-277.3,418.3"
						/>
				</g>
			</g>
		</g>
	</g>
</g>
</svg>
