<?xml version="1.0" encoding="utf-8"?>
<!-- Generator: Adobe Illustrator 19.0.0, SVG Export Plug-In . SVG Version: 6.00 Build 0)  -->
<svg version="1.1" id="Layer_1" xmlns="http://www.w3.org/2000/svg" xmlns:xlink="http://www.w3.org/1999/xlink" x="0px" y="0px"
	 viewBox="-269 374 72 46" style="enable-background:new -269 374 72 46;" xml:space="preserve">
<style type="text/css">
	.st0{clip-path:url(#SVGID_2_);}
	.st1{fill:#009E59;}
	.st2{fill:#E40520;}
	.st3{fill:#FFFFFF;}
</style>
<g>
	<defs>
		<path id="SVGID_1_" d="M-204,420H-262c-3.8,0-7-3.1-7-7V381c0-3.8,3.1-7,7-7h58.1c3.8,0,7,3.1,7,7V413
			C-197,416.9-200.1,420-204,420z"/>
	</defs>
	<clipPath id="SVGID_2_">
		<use xlink:href="#SVGID_1_"  style="overflow:visible;"/>
	</clipPath>
	<g class="st0">
		<g>
			<polygon class="st1" points="-193.1,397 -246.3,397 -246.3,423.6 -193.1,423.6 			"/>
		</g>
		<g>
			<path d="M-193,423.7h-53.5v-26.9h53.5V423.7z M-246.2,423.5h53v-26.4h-53V423.5z"/>
		</g>
		<g>
			<polygon class="st2" points="-193.1,397 -246.3,397 -246.3,370.4 -193.1,370.4 			"/>
		</g>
		<g>
			<path d="M-193,397.1h-53.5v-26.9h53.5V397.1z M-246.2,396.9h53v-26.4h-53V396.9z"/>
		</g>
		<g>
			<polygon class="st3" points="-272.9,423.6 -272.9,370.4 -246.3,370.4 -246.3,423.6 			"/>
		</g>
		<g>
			<path d="M-246.2,423.7H-273v-53.5h26.9V423.7z M-272.8,423.5h26.4v-53h-26.4V423.5z"/>
		</g>
	</g>
</g>
</svg>
