<?xml version="1.0" encoding="utf-8"?>
<!-- Generator: Adobe Illustrator 19.0.0, SVG Export Plug-In . SVG Version: 6.00 Build 0)  -->
<svg version="1.1" id="Layer_1" xmlns="http://www.w3.org/2000/svg" xmlns:xlink="http://www.w3.org/1999/xlink" x="0px" y="0px"
	 viewBox="-269 374 72 46" style="enable-background:new -269 374 72 46;" xml:space="preserve">
<style type="text/css">
	.st0{clip-path:url(#SVGID_2_);}
	.st1{fill:#002A5A;}
	.st2{fill:#F49800;}
	.st3{fill:#FFFFFF;}
</style>
<g>
	<defs>
		<path id="SVGID_1_" d="M-204,420H-262c-3.8,0-7-3.1-7-7V381c0-3.8,3.1-7,7-7h58.1c3.8,0,7,3.1,7,7V413
			C-197,416.9-200.1,420-204,420z"/>
	</defs>
	<clipPath id="SVGID_2_">
		<use xlink:href="#SVGID_1_"  style="overflow:visible;"/>
	</clipPath>
	<g class="st0">
		<g>
			<polygon class="st1" points="-179.6,421 -179.6,373.3 -270.4,373.3 -270.4,421 			"/>
		</g>
		<g>
			<path d="M-179.5,421.1h-91v-48h91V421.1z M-270.2,420.9h90.5v-47.5h-90.5V420.9z"/>
		</g>
		<g>
			<polygon class="st2" points="-179.6,385.1 -270.4,417.3 -270.4,415.6 -179.6,375.3 			"/>
		</g>
		<g>
			<path d="M-270.3,417.4l-0.2-0.1v-1.7l0.1-0.1l90.7-40.3l0.2,0.1v9.7l-0.1,0.1L-270.3,417.4z M-270.2,415.7v1.4l90.5-32.1v-9.4
				L-270.2,415.7z"/>
		</g>
		<g>
			<polygon class="st3" points="-270.4,418.9 -179.6,394.8 -179.6,385.1 -270.4,417.3 			"/>
		</g>
		<g>
			<path d="M-270.3,419l-0.2-0.1v-1.7l0.1-0.1l90.7-32.2l0.2,0.1v9.7l-0.1,0.1L-270.3,419z M-270.2,417.4v1.4l90.5-24.1v-9.5
				L-270.2,417.4z"/>
		</g>
		<g>
			<polygon class="st3" points="-252.7,405.9 -252,396.4 -249.7,402.1 -250.6,396 -246.8,400.9 -249.2,395.2 -244.4,399.1 
				-248.2,394.2 -242.5,396.6 -247.4,392.9 -241.3,393.8 -247.1,391.4 -237.6,390.7 -247.1,390 -241.3,387.7 -247.4,388.5 
				-242.5,384.8 -248.2,387.2 -244.4,382.4 -249.2,386.2 -246.8,380.5 -250.6,385.4 -249.7,379.3 -252,385 -252.7,375.6 -253.5,385 
				-255.8,379.3 -254.9,385.4 -258.7,380.5 -256.2,386.2 -261.1,382.4 -257.2,387.2 -262.9,384.8 -258,388.5 -264.1,387.7 
				-258.4,390 -267.9,390.7 -258.4,391.4 -264.1,393.8 -258,392.9 -262.9,396.6 -257.2,394.2 -261.1,399.1 -256.2,395.2 
				-258.7,400.9 -254.9,396 -255.8,402.1 -253.5,396.4 			"/>
		</g>
	</g>
</g>
</svg>
