<?xml version="1.0" encoding="utf-8"?>
<!-- Generator: Adobe Illustrator 19.0.0, SVG Export Plug-In . SVG Version: 6.00 Build 0)  -->
<svg version="1.1" id="Layer_1" xmlns="http://www.w3.org/2000/svg" xmlns:xlink="http://www.w3.org/1999/xlink" x="0px" y="0px"
	 viewBox="-269 374 72 46" style="enable-background:new -269 374 72 46;" xml:space="preserve">
<style type="text/css">
	.st0{clip-path:url(#SVGID_2_);}
	.st1{fill:#FFFFFF;}
	.st2{fill:#0058A2;}
	.st3{fill:#E40520;}
</style>
<g>
	<defs>
		<path id="SVGID_1_" d="M-204,420H-262c-3.8,0-7-3.1-7-7V381c0-3.8,3.1-7,7-7h58.1c3.8,0,7,3.1,7,7V413
			C-197,416.9-200.1,420-204,420z"/>
	</defs>
	<clipPath id="SVGID_2_">
		<use xlink:href="#SVGID_1_"  style="overflow:visible;"/>
	</clipPath>
	<g class="st0">
		<g>
			<polygon class="st1" points="-174.2,405.1 -270.4,405.1 -270.4,389.1 -174.2,389.1 			"/>
		</g>
		<g>
			<path d="M-174,405.3h-96.5V389h96.5V405.3z M-270.3,405h96v-15.8h-96V405z"/>
		</g>
		<g>
			<polygon class="st2" points="-174.2,389.1 -270.4,389.1 -270.4,373.1 -174.2,373.1 			"/>
		</g>
		<g>
			<path d="M-174,389.2h-96.5v-16.3h96.5V389.2z M-270.3,389h96v-15.8h-96V389z"/>
		</g>
		<g>
			<polygon class="st3" points="-270.4,421.2 -174.2,421.2 -174.2,405.1 -270.4,405.1 			"/>
		</g>
		<g>
			<path d="M-174,421.3h-96.5V405h96.5V421.3z M-270.3,421h96v-15.8h-96V421z"/>
		</g>
	</g>
</g>
</svg>
