<?xml version="1.0" encoding="utf-8"?>
<!-- Generator: Adobe Illustrator 19.0.0, SVG Export Plug-In . SVG Version: 6.00 Build 0)  -->
<svg version="1.1" id="Layer_1" xmlns="http://www.w3.org/2000/svg" xmlns:xlink="http://www.w3.org/1999/xlink" x="0px" y="0px"
	 viewBox="-269 374 72 46" style="enable-background:new -269 374 72 46;" xml:space="preserve">
<style type="text/css">
	.st0{clip-path:url(#SVGID_2_);}
	.st1{fill:#E40520;}
	.st2{fill:#004A93;}
	.st3{fill:none;stroke:#000000;stroke-width:0.25;}
	.st4{fill:#FFFFFF;}
</style>
<g>
	<defs>
		<path id="SVGID_1_" d="M-204,420H-262c-3.8,0-7-3.1-7-7V381c0-3.8,3.1-7,7-7h58.1c3.8,0,7,3.1,7,7V413
			C-197,416.9-200.1,420-204,420z"/>
	</defs>
	<clipPath id="SVGID_2_">
		<use xlink:href="#SVGID_1_"  style="overflow:visible;"/>
	</clipPath>
	<g class="st0">
		<g>
			<polygon class="st1" points="-186.5,420.7 -186.5,373.3 -272,373.3 -272,420.7 			"/>
		</g>
		<g>
			<path d="M-186.4,420.9h-85.7v-47.7h85.7V420.9z M-271.9,420.6h85.2v-47.2h-85.2V420.6z"/>
		</g>
		<g>
			<polygon class="st2" points="-232.7,397 -232.7,373.3 -272,373.3 -272,397 			"/>
		</g>
		<g>
			<path d="M-232.6,397.1h-39.6v-24h39.6V397.1z M-271.9,396.9h39.1v-23.5h-39.1V396.9z"/>
		</g>
		<g>
			<path class="st2" d="M-252.3,385.1"/>
		</g>
		<g>
			<path class="st3" d="M-252.3,385.1"/>
		</g>
		<g>
			<path class="st4" d="M-252.3,388.5c1.9,0,3.4-1.6,3.4-3.5c0-1.9-1.5-3.4-3.4-3.4c-1.9,0-3.4,1.5-3.4,3.4
				C-255.7,386.9-254.2,388.5-252.3,388.5v3.5c-0.2,0-0.4,0-0.6,0l0-1.1c-0.5,0-0.9-0.2-1.4-0.3l-0.5,1c-0.4-0.2-0.8-0.3-1.1-0.5
				l0.5-1c-0.4-0.2-0.7-0.5-1.1-0.9l-0.9,0.7c-0.3-0.3-0.5-0.6-0.8-1l0.9-0.7c-0.2-0.4-0.4-0.8-0.6-1.3l-1.1,0.3
				c-0.1-0.4-0.2-0.8-0.3-1.2l1.1-0.3c-0.1-0.5-0.1-0.9,0-1.4l-1.1-0.3c0.1-0.4,0.2-0.8,0.3-1.2l1.1,0.3c0.1-0.4,0.4-0.8,0.6-1.2
				l-0.9-0.7c0.2-0.4,0.5-0.7,0.8-1l0.9,0.7c0.3-0.3,0.7-0.6,1.1-0.9l-0.5-1c0.4-0.2,0.7-0.4,1.1-0.5l0.5,1c0.4-0.2,0.9-0.3,1.4-0.3
				l0-1.2c0.4,0,0.8,0,1.2,0l0,1.1c0.5,0,0.9,0.2,1.4,0.3l0.5-1c0.4,0.2,0.8,0.3,1.1,0.5l-0.5,1c0.4,0.2,0.7,0.5,1.1,0.9l0.9-0.7
				c0.3,0.3,0.5,0.6,0.8,1l-0.9,0.7c0.2,0.4,0.4,0.8,0.6,1.3l1.1-0.3c0.1,0.4,0.2,0.8,0.3,1.2l-1.1,0.3c0.1,0.5,0.1,0.9,0,1.4
				l1.1,0.3c-0.1,0.4-0.2,0.8-0.3,1.2l-1.1-0.3c-0.1,0.4-0.4,0.8-0.6,1.2l0.9,0.7c-0.2,0.4-0.5,0.7-0.8,1l-0.9-0.7
				c-0.3,0.3-0.7,0.6-1.1,0.9l0.5,1c-0.4,0.2-0.7,0.4-1.1,0.5l-0.5-1c-0.4,0.2-0.9,0.3-1.4,0.3l0,1.2c-0.2,0-0.4,0-0.6,0
				L-252.3,388.5L-252.3,388.5z"/>
		</g>
		<g>
			<path class="st4" d="M-252.3,385"/>
		</g>
		<g>
			<path class="st4" d="M-252.3,385"/>
		</g>
		<g>
			<path class="st4" d="M-252.3,385"/>
		</g>
		<g>
			<polygon class="st4" points="-252.3,374.6 -252.7,375.6 -253.7,375.6 -252.9,376.2 -253.2,377.2 -252.3,376.6 -251.5,377.2 
				-251.8,376.2 -251,375.6 -252,375.6 			"/>
		</g>
		<g>
			<polygon class="st4" points="-256.3,375.5 -256.6,376.5 -257.6,376.5 -256.8,377.1 -257.1,378.1 -256.3,377.5 -255.4,378.1 
				-255.7,377.1 -254.9,376.5 -255.9,376.5 			"/>
		</g>
		<g>
			<polygon class="st4" points="-259.4,378 -259.7,379 -260.8,379 -259.9,379.6 -260.2,380.6 -259.4,380 -258.5,380.6 -258.9,379.6 
				-258,379 -259.1,379 			"/>
		</g>
		<g>
			<polygon class="st4" points="-261.1,381.6 -261.4,382.6 -262.5,382.6 -261.6,383.2 -262,384.2 -261.1,383.6 -260.3,384.2 
				-260.6,383.2 -259.7,382.6 -260.8,382.6 			"/>
		</g>
		<g>
			<polygon class="st4" points="-261.1,385.6 -261.4,386.6 -262.5,386.6 -261.6,387.2 -262,388.2 -261.1,387.6 -260.3,388.2 
				-260.6,387.2 -259.7,386.6 -260.8,386.6 			"/>
		</g>
		<g>
			<polygon class="st4" points="-259.4,389.2 -259.7,390.2 -260.7,390.2 -259.9,390.8 -260.2,391.8 -259.4,391.2 -258.5,391.8 
				-258.8,390.8 -258,390.2 -259,390.2 			"/>
		</g>
		<g>
			<polygon class="st4" points="-256.2,391.7 -256.6,392.7 -257.6,392.7 -256.8,393.3 -257.1,394.3 -256.2,393.7 -255.4,394.3 
				-255.7,393.3 -254.9,392.7 -255.9,392.7 			"/>
		</g>
		<g>
			<polygon class="st4" points="-252.3,392.6 -252.7,393.6 -253.7,393.6 -252.9,394.2 -253.2,395.2 -252.3,394.6 -251.5,395.2 
				-251.8,394.2 -251,393.6 -252,393.6 			"/>
		</g>
		<g>
			<polygon class="st4" points="-248.4,391.7 -248.8,392.7 -249.8,392.7 -249,393.3 -249.3,394.3 -248.4,393.7 -247.6,394.3 
				-247.9,393.3 -247.1,392.7 -248.1,392.7 			"/>
		</g>
		<g>
			<polygon class="st4" points="-245.3,389.2 -245.6,390.2 -246.7,390.2 -245.8,390.8 -246.2,391.8 -245.3,391.2 -244.5,391.8 
				-244.8,390.8 -243.9,390.2 -245,390.2 			"/>
		</g>
		<g>
			<polygon class="st4" points="-243.6,385.6 -243.9,386.6 -245,386.6 -244.1,387.2 -244.4,388.2 -243.6,387.6 -242.7,388.2 
				-243.1,387.2 -242.2,386.6 -243.3,386.6 			"/>
		</g>
		<g>
			<polygon class="st4" points="-243.6,381.6 -243.9,382.6 -245,382.6 -244.1,383.2 -244.4,384.2 -243.6,383.6 -242.7,384.2 
				-243.1,383.2 -242.2,382.6 -243.3,382.6 			"/>
		</g>
		<g>
			<polygon class="st4" points="-245.3,378 -245.6,379 -246.7,379 -245.8,379.6 -246.2,380.6 -245.3,380 -244.5,380.6 -244.8,379.6 
				-243.9,379 -245,379 			"/>
		</g>
		<g>
			<polygon class="st4" points="-248.4,375.5 -248.8,376.5 -249.8,376.5 -249,377.1 -249.3,378.1 -248.4,377.5 -247.6,378.1 
				-247.9,377.1 -247.1,376.5 -248.1,376.5 			"/>
		</g>
		<g>
			<path class="st4" d="M-251.1,389.1c0.4-0.7,1.6-2.3,2.2-2.9c0.2,0.4,0.6,0.9,0.5,1.5c0,0.2-0.1,0.6-0.1,0.8
				c-0.1,0.3,0.1,0.4,0.2,0.2c0.3-0.6,0.5-1.2,0.4-1.7c-0.1-0.6-0.3-1.5-0.5-1.8c-0.4-0.6-0.7-0.3-1.2,0.2c-0.6,0.5-1.3,1.5-1.7,2.5
				c0.2-0.6,0.9-2.5,1.1-3.1c0.2-0.7,0.9-2.1,1.1-2.4c0.9,0.1,1.2,1.7,1.2,2.2c0,0.4,0,0.7,0.1,0.4c0.1-0.2,0.3-1.2,0.1-1.8
				c-0.2-0.6-0.3-1.1-0.8-1.6c-0.5-0.6-1-0.2-1.2,0.1s-0.8,1-1.2,2.1c-0.3,0.8-2,3.6-2.6,1.5c-0.3-0.8-0.7-1.9-1.1-2.7
				c-0.4-0.8-1.5-0.8-2-0.5c-1.2,0.9-1.5,2.2-1.7,3.7c0,0.2,0.1,0.2,0.3-0.3c0.3-0.8,1.1-1.9,1.9-2.5c0.8,0.1,1.3,2.1,2.2,3.3
				l-0.1,0c-0.4-0.8-0.8-1.1-1.4-1.1c-0.4,0-0.7,0-1.1,0.2c-0.4,0.2-0.4,0.4-0.5,0.9c-0.1,0.6-0.3,1.9-0.2,3.2
				c0,0.3,0.2,0.2,0.2-0.3c0.1-0.9,0.4-2.3,1.3-3.2c0.3,0.2,0.8,0.5,1.6,1.4c0.2,0.3,0.3,1.3,0.5,2.2c0.1,1,0.4,2.4,0.5,2.6
				c0.2,0.2,0.1,0.7,0.2,0.3c0-0.3,0.2-0.4,0.3-0.2c0.1,0.2,0.4-0.3,0.4,0c0,0.3,0-0.3,0-0.1c0,0.2,0.1-0.2,0.2-0.7
				C-251.7,390.8-251.4,389.6-251.1,389.1L-251.1,389.1z"/>
			<path class="st2" d="M-252.7,392.5L-252.7,392.5c-0.1,0-0.1-0.1-0.1-0.2c0-0.1,0-0.2-0.1-0.3c-0.2-0.4-0.5-2.6-0.6-2.7
				c0-0.2,0-0.4-0.1-0.5c-0.1-0.7-0.2-1.4-0.4-1.6c-0.8-0.9-1.2-1.2-1.5-1.4c-0.9,0.9-1.1,2.2-1.2,3.1c-0.1,0.4-0.1,0.6-0.3,0.6
				c0,0,0,0,0,0c-0.1,0-0.2,0-0.2-0.3c-0.2-1.3,0.1-2.7,0.2-3.2c0-0.1,0-0.1,0-0.2c0.1-0.4,0.1-0.6,0.5-0.8c0.4-0.2,0.8-0.2,1.2-0.2
				c0.3,0,0.6,0.1,0.8,0.2c-0.1-0.2-0.2-0.4-0.3-0.6c-0.4-0.8-0.7-1.5-1.2-1.6c-0.8,0.6-1.5,1.6-1.9,2.4c-0.1,0.4-0.3,0.5-0.4,0.5
				c0,0-0.2-0.1-0.1-0.3c0.2-1.4,0.5-2.8,1.8-3.7c0.3-0.2,0.8-0.3,1.3-0.2c0.4,0.1,0.7,0.4,0.9,0.7c0.4,0.8,0.8,1.9,1.1,2.7
				c0.1,0.5,0.3,0.7,0.6,0.7c0,0,0,0,0,0c0.7,0,1.6-1.5,1.8-2.2c0.4-1,0.9-1.6,1.1-2l0.1-0.1c0.2-0.2,0.4-0.5,0.7-0.5c0,0,0,0,0,0
				c0.2,0,0.4,0.1,0.6,0.4c0.5,0.5,0.6,1,0.8,1.7c0.2,0.7,0,1.7-0.1,1.9c0,0.1-0.1,0.2-0.2,0.2c-0.1,0-0.1-0.2-0.1-0.7
				c0-0.5-0.3-1.9-1-2.1c-0.3,0.4-0.9,1.7-1.1,2.3c-0.1,0.3-0.3,0.7-0.4,1.2c-0.1,0.2-0.2,0.4-0.2,0.6c0.4-0.5,0.8-1,1.1-1.3
				l0.1-0.1c0.3-0.3,0.6-0.5,0.9-0.4c0.2,0,0.3,0.2,0.5,0.4c0.2,0.3,0.4,1.2,0.5,1.8c0.1,0.6-0.1,1.2-0.4,1.8
				c-0.1,0.2-0.3,0.2-0.3,0.2c-0.1,0-0.2-0.2-0.1-0.5c0-0.2,0.1-0.6,0.1-0.8c0-0.4-0.2-0.9-0.4-1.2c0,0,0,0,0-0.1
				c-0.7,0.7-1.7,2.2-2.1,2.8c-0.3,0.5-0.6,1.7-0.7,2.1c-0.1,0.4-0.1,0.6-0.2,0.7c0,0.1,0,0.2-0.1,0.2c-0.1,0-0.1,0-0.1-0.1
				c-0.1,0-0.1,0.1-0.2,0.1c0,0-0.1,0-0.1-0.1c0,0,0,0,0,0c0,0-0.1,0.1-0.1,0.2C-252.6,392.4-252.6,392.5-252.7,392.5z
				 M-252.5,391.8c0.1,0,0.2,0,0.2,0.1c0,0,0,0,0.1,0c0,0,0.1-0.1,0.1-0.1c0,0,0,0,0.1-0.1c0-0.1,0.1-0.3,0.1-0.5
				c0.1-0.4,0.4-1.6,0.7-2.2l0,0c0.4-0.7,1.6-2.3,2.3-2.9l0.1-0.1l0.1,0.1c0,0.1,0.1,0.1,0.1,0.2c0.2,0.4,0.5,0.8,0.4,1.3
				c0,0.2-0.1,0.6-0.1,0.8c0,0,0,0.1,0,0.1c0,0,0,0,0,0c0.3-0.6,0.5-1.1,0.4-1.7c-0.1-0.6-0.3-1.5-0.5-1.8c-0.1-0.2-0.2-0.3-0.3-0.3
				c-0.2,0-0.4,0.2-0.6,0.4l-0.1,0.1c-0.5,0.4-1.3,1.5-1.7,2.4l-0.2-0.1c0.1-0.4,0.4-1.2,0.7-2c0.2-0.5,0.4-0.9,0.4-1.2
				c0.2-0.6,0.9-2.1,1.2-2.5l0-0.1l0.1,0c0.9,0.1,1.3,1.7,1.3,2.3c0.1-0.4,0.1-0.9,0-1.3c-0.2-0.6-0.3-1.1-0.8-1.6
				c-0.1-0.2-0.3-0.3-0.4-0.3c0,0,0,0,0,0c-0.2,0-0.4,0.2-0.5,0.4l-0.1,0.1c-0.3,0.3-0.7,0.9-1.1,1.9c-0.2,0.5-1.2,2.3-2,2.3
				c0,0,0,0,0,0c-0.4,0-0.6-0.3-0.8-0.9c-0.3-0.8-0.7-1.9-1.1-2.7c-0.2-0.3-0.5-0.5-0.7-0.6c-0.4-0.1-0.8-0.1-1.1,0.1
				c-1.2,0.8-1.5,2-1.6,3.4c0,0,0-0.1,0.1-0.1c0.3-0.8,1.1-2,2-2.6l0,0l0,0c0.6,0.1,1,0.9,1.4,1.8c0.3,0.5,0.5,1.1,0.9,1.6l0.1,0.1
				l-0.3,0.2l-0.1-0.1c-0.4-0.9-0.8-1-1.3-1c-0.4,0-0.7,0-1.1,0.2c-0.3,0.1-0.3,0.3-0.4,0.6c0,0.1,0,0.1,0,0.2
				c-0.1,0.5-0.3,1.6-0.2,2.9c0,0,0,0,0,0c0.1-0.9,0.4-2.3,1.4-3.3l0.1-0.1l0.1,0.1c0.3,0.2,0.8,0.5,1.6,1.4
				c0.2,0.3,0.3,0.9,0.4,1.8c0,0.2,0,0.4,0.1,0.5c0.2,1.1,0.4,2.4,0.5,2.6c0,0,0,0,0,0.1C-252.6,391.9-252.6,391.8-252.5,391.8
				C-252.5,391.8-252.5,391.8-252.5,391.8z"/>
		</g>
		<g>
			<path class="st2" d="M-251.1,389c-0.3,0.5-0.7,1.7-0.7,2.1c-0.1,0.6-0.1,0.8-0.1,0.6c0-0.2,0,0.4,0,0.2c0-0.2-0.3,0.2-0.4,0
				c-0.1-0.2-0.4-0.1-0.4,0.2c0,0.3,0-0.3-0.1-0.4c-0.1-0.2-0.4-1.5-0.4-2.3c-0.1-0.9-0.2-2.1-0.4-2.4c-0.6-0.7-1.4-1.4-2-1.7
				c-0.7-0.4-0.9,0.1-1,0.3c0,0.1-0.1,0.3-0.1,0.7c0.1-0.6,0.3-1.1,1-0.8c0.6,0.2,1.5,1.1,2,1.7c0.2,0.3,0.3,1.3,0.5,2.2
				c0.1,1,0.4,2.4,0.5,2.6c0.2,0.2,0.1,0.7,0.2,0.3c0-0.3,0.2-0.4,0.3-0.2c0.1,0.2,0.4-0.3,0.4,0c0,0.3,0-0.3,0-0.1
				c0,0.2,0.1-0.2,0.2-0.7c0.1-0.4,0.4-1.6,0.7-2.1c0.5-0.9,1.6-2.3,2.2-2.9c0.6-0.6,0.8-0.6,0.9-0.2c-0.1-0.5-0.3-0.5-0.9,0
				C-249.4,386.6-250.6,388.1-251.1,389L-251.1,389z"/>
			<path class="st2" d="M-252.7,392.4C-252.7,392.4-252.7,392.4-252.7,392.4c-0.1,0-0.1-0.1-0.1-0.1c0-0.1,0-0.3-0.1-0.4
				c-0.2-0.3-0.4-1.9-0.5-2.6c0-0.2-0.1-0.4-0.1-0.6c-0.1-0.7-0.2-1.4-0.4-1.6c-0.5-0.6-1.5-1.4-2-1.7c-0.2-0.1-0.4-0.1-0.6,0
				c-0.2,0.1-0.3,0.4-0.3,0.7c0,0,0,0.1,0,0.1c0,0,0,0,0,0l0,0l0,0l-0.1,0c0,0,0-0.1,0-0.1c0-0.2,0.1-0.4,0.1-0.5c0,0,0-0.1,0-0.1
				c0-0.1,0.1-0.3,0.3-0.4c0.2-0.1,0.4-0.1,0.8,0.1c0.6,0.3,1.4,0.9,2,1.7c0.2,0.3,0.3,1.3,0.4,2.4c0.1,0.9,0.3,2.1,0.4,2.3
				c0,0.1,0.1,0.2,0.1,0.3c0.1-0.1,0.1-0.1,0.2-0.1c0.1,0,0.2,0,0.3,0.1c0,0,0.1,0,0.1,0c0,0,0.1,0,0.1-0.1c0,0,0-0.1,0-0.1
				c0,0,0-0.1,0-0.1c0-0.1,0-0.3,0.1-0.6c0-0.4,0.4-1.7,0.7-2.1l0.1,0l-0.1,0c0.6-0.9,1.7-2.4,2.3-2.9c0.4-0.3,0.6-0.4,0.7-0.4
				c0.1,0,0.2,0.2,0.2,0.4l-0.1,0c0-0.1-0.1-0.2-0.1-0.2c-0.1,0-0.3,0.1-0.7,0.4c-0.6,0.5-1.7,2-2.2,2.9c-0.3,0.5-0.7,1.7-0.7,2.1
				c0,0.2-0.1,0.5-0.1,0.6c0,0,0,0,0,0c0,0.1,0,0.1,0,0.1c0,0.1,0,0.1-0.1,0.1c0,0,0,0,0,0c-0.1,0-0.1,0-0.1-0.1c0,0,0,0,0,0
				c0,0,0,0-0.1,0c-0.1,0-0.1,0.1-0.2,0.1c0,0-0.1,0-0.1-0.1c0,0,0-0.1-0.1-0.1c-0.1,0-0.1,0.1-0.1,0.3
				C-252.6,392.4-252.6,392.4-252.7,392.4z M-256.2,385.2c0.1,0,0.3,0,0.4,0.1c0.6,0.2,1.5,1.1,2,1.7c0.1,0.1,0.2,0.3,0.2,0.5
				c-0.1-0.3-0.1-0.5-0.2-0.6c-0.6-0.7-1.4-1.3-2-1.7c-0.3-0.1-0.5-0.2-0.6-0.1c0,0-0.1,0-0.1,0.1c0,0,0,0,0,0
				C-256.4,385.3-256.3,385.2-256.2,385.2z"/>
		</g>
		<g>
			<path class="st2" d="M-250,384.1c0.2-0.6,0.5-1.3,1-2c0.5-0.7,0.8-0.7,1-0.2c-0.3-0.6-0.9,0.1-1,0.3c-0.3,0.3-1,1.9-1.1,2.4
				c-0.2,0.7-1.1,2.9-1.1,3.1C-250.8,386.4-250.6,385.7-250,384.1L-250,384.1z"/>
			<path class="st2" d="M-251.1,387.8l-0.1,0c0-0.1,0.1-0.2,0.1-0.4c0-0.1,0.1-0.2,0.1-0.3c0.3-0.9,0.5-1.7,1-3c0.2-0.6,0.5-1.3,1-2
				c0.3-0.4,0.5-0.6,0.7-0.6c0.1,0,0.2,0.1,0.3,0.2c0,0,0.1,0.1,0.1,0.2l-0.1,0.1c0-0.1-0.1-0.1-0.1-0.1c0,0-0.1-0.1-0.1-0.1
				c0,0,0,0,0,0c-0.2,0-0.5,0.3-0.6,0.5c-0.3,0.3-1,1.9-1.1,2.4c-0.1,0.3-0.3,0.8-0.5,1.4c-0.2,0.5-0.4,1-0.5,1.4
				C-251.1,387.5-251.1,387.6-251.1,387.8z M-249.4,383c-0.1,0.1-0.1,0.3-0.2,0.4C-249.6,383.2-249.5,383.1-249.4,383z"/>
		</g>
		<g>
			<path class="st2" d="M-253.4,385c-0.8-2.1-1.1-3-2.2-2.6c-0.8,0.4-1.6,1.6-2.2,2.5c0.7-1.4,1.5-2.4,2.5-2.7c1-0.3,1.2,1,1.9,2.6
				c0.1,0.3,0.3,0.9,0.8,0.9C-252.9,385.8-253.2,385.6-253.4,385L-253.4,385z"/>
			<path class="st2" d="M-252.6,385.9C-252.6,385.9-252.7,385.9-252.6,385.9c-0.4,0-0.7-0.3-0.9-0.8l-0.1-0.1
				c-0.5-1.3-0.8-2.2-1.3-2.4c-0.2-0.1-0.4-0.1-0.7,0.1c-0.8,0.4-1.7,1.7-2.1,2.4l-0.2-0.1c0.8-1.6,1.6-2.5,2.5-2.8
				c0.9-0.3,1.3,0.7,1.7,1.9c0.1,0.2,0.2,0.5,0.3,0.8c0,0,0,0.1,0.1,0.1c0.1,0.4,0.3,0.7,0.5,0.7c0,0,0,0,0,0L-252.6,385.9
				C-252.6,385.9-252.6,385.9-252.6,385.9z"/>
		</g>
		<g>
			<path class="st4" d="M-253.5,389.4c0.3,1.1,1.1,0.8,0.8-0.2C-253,388.1-253.8,388.5-253.5,389.4L-253.5,389.4z"/>
			<path class="st2" d="M-253,390.2c-0.2,0-0.5-0.2-0.7-0.8v0c-0.2-0.5,0-0.9,0.3-1c0.3-0.1,0.6,0.1,0.8,0.7c0.2,0.6,0,1-0.3,1
				C-252.9,390.2-252.9,390.2-253,390.2z M-253.4,389.3c0.1,0.5,0.4,0.6,0.5,0.6c0.1,0,0.2-0.3,0.1-0.7c-0.1-0.4-0.3-0.6-0.4-0.5
				C-253.4,388.7-253.5,388.9-253.4,389.3L-253.4,389.3z"/>
		</g>
		<g>
			<path class="st4" d="M-253.3,380.9c0.3,1.3,1.3,1.1,1-0.2C-252.6,379.3-253.6,379.7-253.3,380.9L-253.3,380.9z"/>
			<path class="st2" d="M-252.6,381.9c0,0-0.1,0-0.1,0c-0.3-0.1-0.5-0.4-0.7-1c-0.1-0.4,0-0.8,0.2-1.1c0.1-0.1,0.3-0.2,0.5-0.1
				c0.3,0.1,0.5,0.4,0.6,0.9c0.1,0.5,0.1,0.9-0.2,1.1C-252.4,381.8-252.5,381.9-252.6,381.9z M-252.9,379.9c-0.1,0-0.1,0-0.2,0.1
				c-0.1,0.1-0.2,0.4-0.1,0.8c0.1,0.5,0.3,0.7,0.5,0.8c0.1,0,0.1,0,0.2,0c0.1-0.1,0.2-0.4,0.1-0.9
				C-252.5,380.3-252.6,380-252.9,379.9C-252.8,379.9-252.9,379.9-252.9,379.9z"/>
		</g>
		<g>
			<path class="st4" d="M-252.9,382.9c0.1,1.1,0.9,1,0.8-0.1C-252.2,381.8-253,382-252.9,382.9L-252.9,382.9z"/>
			<path class="st2" d="M-252.4,383.8c-0.3,0-0.5-0.3-0.6-0.9l0,0c-0.1-0.6,0.2-0.9,0.5-0.9c0.3,0,0.6,0.2,0.6,0.8
				C-251.9,383.5-252.1,383.8-252.4,383.8C-252.4,383.8-252.4,383.8-252.4,383.8z M-252.5,382.2
				C-252.5,382.2-252.5,382.2-252.5,382.2c-0.1,0-0.3,0.2-0.3,0.6l0,0c0,0.5,0.2,0.7,0.4,0.7c0.1,0,0.3-0.2,0.2-0.7
				C-252.2,382.4-252.4,382.2-252.5,382.2z"/>
		</g>
		<g>
			<path class="st4" d="M-253.6,381.8c0.2,1.1,0.9,0.9,0.7-0.1C-253.1,380.7-253.8,380.9-253.6,381.8L-253.6,381.8z"/>
			<path class="st2" d="M-253.2,382.7c0,0-0.1,0-0.1,0c-0.2-0.1-0.4-0.4-0.5-0.8l0,0c-0.1-0.4,0-0.7,0.2-0.9
				c0.1-0.1,0.2-0.1,0.4-0.1c0.2,0.1,0.4,0.3,0.5,0.7c0.1,0.4,0,0.8-0.2,0.9C-253,382.6-253.1,382.7-253.2,382.7z M-253.4,381.1
				C-253.4,381.1-253.4,381.2-253.4,381.1c-0.2,0.1-0.2,0.3-0.2,0.6l0,0c0.1,0.4,0.2,0.6,0.3,0.6c0,0,0.1,0,0.1,0
				c0.1-0.1,0.2-0.3,0.1-0.7C-253.1,381.4-253.2,381.2-253.4,381.1C-253.3,381.1-253.4,381.1-253.4,381.1z"/>
		</g>
		<g>
			<path class="st4" d="M-252.3,382.8c-0.1,1.2,0.7,1.3,0.8,0.1C-251.4,381.8-252.2,381.8-252.3,382.8L-252.3,382.8z"/>
			<path class="st2" d="M-252,383.9c-0.1,0-0.1,0-0.2-0.1c-0.2-0.2-0.3-0.5-0.2-1l0,0c0.1-0.6,0.4-0.9,0.7-0.8c0.2,0,0.5,0.3,0.4,1
				c-0.1,0.5-0.2,0.8-0.5,0.9C-251.9,383.9-252,383.9-252,383.9z M-252.2,382.8c-0.1,0.4,0,0.7,0.1,0.8c0,0,0.1,0,0.1,0
				c0.1,0,0.3-0.3,0.3-0.7c0.1-0.5-0.1-0.7-0.2-0.7C-252,382.2-252.2,382.4-252.2,382.8L-252.2,382.8z"/>
		</g>
		<g>
			<path class="st4" d="M-253,382.1c0.1,1.1,0.9,1,0.8-0.1C-252.2,381-253.1,381.2-253,382.1L-253,382.1z"/>
			<path class="st2" d="M-252.5,383c-0.1,0-0.1,0-0.2,0c-0.2-0.1-0.4-0.4-0.4-0.9l0,0c-0.1-0.6,0.2-0.9,0.5-0.9
				c0.3,0,0.6,0.2,0.6,0.8c0,0.4-0.1,0.8-0.3,0.9C-252.3,383-252.4,383-252.5,383z M-252.8,382.1c0,0.4,0.2,0.6,0.3,0.6
				c0,0,0.1,0,0.1,0c0.1-0.1,0.2-0.3,0.2-0.7c0-0.4-0.2-0.6-0.3-0.6C-252.7,381.5-252.9,381.7-252.8,382.1L-252.8,382.1z"/>
		</g>
		<g>
			<path class="st4" d="M-253.6,384.4c0.1,1.1,0.9,1,0.8-0.1C-252.8,383.3-253.7,383.5-253.6,384.4L-253.6,384.4z"/>
			<path class="st2" d="M-253.1,385.3c-0.1,0-0.1,0-0.2,0c-0.2-0.1-0.4-0.4-0.4-0.9l0,0c0-0.4,0.1-0.7,0.3-0.8
				c0.1-0.1,0.3-0.1,0.4,0c0.2,0.1,0.4,0.4,0.4,0.8c0,0.4-0.1,0.8-0.3,0.9C-252.9,385.3-253,385.3-253.1,385.3z M-253.2,383.8
				C-253.2,383.8-253.2,383.8-253.2,383.8c-0.2,0.1-0.3,0.3-0.3,0.6l0,0c0,0.4,0.2,0.6,0.3,0.6c0,0,0.1,0,0.1,0
				c0.1-0.1,0.2-0.3,0.2-0.7C-252.9,384-253,383.8-253.2,383.8C-253.1,383.8-253.2,383.8-253.2,383.8z"/>
		</g>
		<g>
			<path class="st4" d="M-254,379c0.6,0.9,1.2,0.5,0.6-0.4C-254,377.7-254.6,378.2-254,379L-254,379z"/>
			<path class="st2" d="M-253.4,379.6c-0.2,0-0.5-0.2-0.7-0.6c-0.2-0.3-0.3-0.6-0.2-0.9c0.1-0.1,0.2-0.2,0.3-0.2
				c0.2,0,0.5,0.2,0.7,0.5c0.2,0.4,0.3,0.7,0.2,0.9C-253.2,379.6-253.3,379.6-253.4,379.6C-253.4,379.6-253.4,379.6-253.4,379.6z
				 M-254,378.3C-254,378.3-254,378.3-254,378.3c0,0-0.1,0-0.1,0.1c0,0.1,0,0.3,0.1,0.6l0,0c0.2,0.3,0.4,0.5,0.5,0.5c0,0,0,0,0,0
				c0,0,0.1,0,0.1-0.1c0-0.1,0-0.3-0.2-0.7C-253.7,378.4-253.9,378.3-254,378.3z"/>
		</g>
		<g>
			<path class="st4" d="M-254,380.1c0.5,1,1.2,0.6,0.8-0.4C-253.7,378.8-254.4,379.2-254,380.1L-254,380.1z"/>
			<path class="st2" d="M-253.4,380.8c-0.2,0-0.5-0.2-0.7-0.6l0,0c-0.2-0.5-0.1-0.9,0.1-1c0.2-0.1,0.6,0,0.9,0.6
				c0.3,0.6,0.2,1-0.1,1.1C-253.2,380.8-253.3,380.8-253.4,380.8z M-253.9,380c0.2,0.5,0.5,0.5,0.6,0.5c0.1-0.1,0.2-0.3,0-0.7
				c-0.2-0.4-0.4-0.5-0.5-0.4C-254,379.4-254,379.6-253.9,380L-253.9,380z"/>
		</g>
		<g>
			<path class="st4" d="M-253.3,379.4c0.3,1.2,1.1,0.9,0.8-0.2C-252.7,378.2-253.5,378.4-253.3,379.4L-253.3,379.4z"/>
			<path class="st2" d="M-252.7,380.3c0,0-0.1,0-0.1,0c-0.2-0.1-0.5-0.4-0.6-0.9l0,0c-0.1-0.4,0-0.7,0.1-0.9
				c0.1-0.1,0.2-0.1,0.4-0.1c0.2,0.1,0.4,0.4,0.5,0.8c0.1,0.5,0.1,0.8-0.1,1C-252.6,380.3-252.6,380.3-252.7,380.3z M-253,378.7
				C-253,378.7-253.1,378.7-253,378.7c-0.2,0.1-0.2,0.3-0.2,0.7l0,0c0.1,0.4,0.3,0.6,0.4,0.7c0,0,0.1,0,0.1,0
				c0.1-0.1,0.2-0.3,0.1-0.8C-252.7,378.9-252.9,378.7-253,378.7C-253,378.7-253,378.7-253,378.7z"/>
		</g>
		<g>
			<path class="st4" d="M-253.5,381.1c0.3,1.1,1.1,0.8,0.8-0.2C-252.9,379.9-253.7,380.1-253.5,381.1L-253.5,381.1z"/>
			<path class="st2" d="M-253,381.9c0,0-0.1,0-0.1,0c-0.2-0.1-0.4-0.4-0.6-0.8l0,0c-0.1-0.5,0.1-0.9,0.3-1c0.3-0.1,0.6,0.1,0.7,0.7
				c0.1,0.4,0.1,0.8-0.1,0.9C-252.8,381.9-252.9,381.9-253,381.9z M-253.2,380.4C-253.2,380.4-253.2,380.4-253.2,380.4
				c-0.2,0-0.3,0.3-0.2,0.7l0,0c0.1,0.4,0.3,0.6,0.4,0.6c0.1,0,0.1,0,0.1,0c0.1-0.1,0.2-0.3,0.1-0.7
				C-252.9,380.5-253.1,380.4-253.2,380.4z"/>
		</g>
		<g>
			<path class="st4" d="M-252.8,380.5c0,1.1,0.9,1.1,0.8,0C-252,379.4-252.8,379.5-252.8,380.5L-252.8,380.5z"/>
			<path class="st2" d="M-252.4,381.4c-0.3,0-0.5-0.3-0.6-0.9l0,0c0-0.6,0.3-0.9,0.5-0.9c0,0,0,0,0,0c0.3,0,0.5,0.3,0.5,0.9
				C-251.8,381.1-252.1,381.4-252.4,381.4C-252.4,381.4-252.4,381.4-252.4,381.4z M-252.7,380.5c0,0.5,0.2,0.7,0.3,0.7
				c0.1,0,0.3-0.2,0.3-0.7c0-0.4-0.2-0.6-0.3-0.6c0,0,0,0,0,0C-252.5,379.9-252.7,380-252.7,380.5L-252.7,380.5z"/>
		</g>
		<g>
			<path class="st4" d="M-252.4,381.3c-0.2,1.1,0.7,1.2,0.8,0.1C-251.4,380.4-252.2,380.4-252.4,381.3L-252.4,381.3z"/>
			<path class="st2" d="M-252,382.3C-252.1,382.3-252.1,382.3-252,382.3c-0.3,0-0.5-0.4-0.4-1l0,0c0.1-0.6,0.4-0.8,0.7-0.8
				c0.3,0,0.5,0.4,0.4,1C-251.5,382-251.8,382.3-252,382.3z M-252.2,381.3c-0.1,0.5,0.1,0.7,0.2,0.7c0.1,0,0.3-0.2,0.4-0.6
				c0.1-0.4,0-0.6-0.2-0.7C-252,380.7-252.2,380.9-252.2,381.3L-252.2,381.3z"/>
		</g>
		<g>
			<path class="st4" d="M-253.4,383.1c0.2,1.1,1,0.9,0.8-0.1C-252.8,381.9-253.6,382.2-253.4,383.1L-253.4,383.1z"/>
			<path class="st2" d="M-252.9,384c-0.3,0-0.5-0.2-0.6-0.8l0,0c-0.1-0.6,0.1-0.9,0.4-1c0.3-0.1,0.6,0.2,0.7,0.8
				C-252.4,383.6-252.6,383.9-252.9,384C-252.9,384-252.9,384-252.9,384z M-253.3,383.1c0.1,0.5,0.3,0.6,0.4,0.6
				c0.1,0,0.2-0.3,0.2-0.7c-0.1-0.4-0.3-0.6-0.4-0.6C-253.3,382.5-253.4,382.7-253.3,383.1L-253.3,383.1z"/>
		</g>
		<g>
			<path class="st4" d="M-252.9,384.1c0,1.2,0.8,1.2,0.8,0.1C-252,383-252.8,383.1-252.9,384.1L-252.9,384.1z"/>
			<path class="st2" d="M-252.5,385.1C-252.5,385.1-252.5,385.1-252.5,385.1c-0.3,0-0.5-0.3-0.5-1c0-0.6,0.3-0.9,0.6-0.9
				c0,0,0,0,0,0c0.2,0,0.5,0.3,0.5,1C-251.9,384.8-252.2,385.1-252.5,385.1z M-252.4,383.5c-0.1,0-0.3,0.2-0.3,0.7v0
				c0,0.5,0.1,0.8,0.3,0.8c0,0,0,0,0,0c0.1,0,0.3-0.2,0.3-0.7C-252.1,383.7-252.3,383.5-252.4,383.5
				C-252.4,383.5-252.4,383.5-252.4,383.5z"/>
		</g>
		<g>
			<path class="st4" d="M-252.3,384.2c-0.3,1.1,0.5,1.3,0.8,0.2C-251.2,383.4-252,383.3-252.3,384.2L-252.3,384.2z"/>
			<path class="st2" d="M-252.1,385.3C-252.1,385.3-252.2,385.3-252.1,385.3c-0.3-0.1-0.5-0.5-0.3-1.1l0,0c0.2-0.6,0.5-0.8,0.8-0.7
				c0.2,0.1,0.4,0.4,0.2,1C-251.6,385.1-251.9,385.3-252.1,385.3z M-252.2,384.3c-0.1,0.5,0,0.8,0.1,0.8c0.1,0,0.3-0.2,0.5-0.6
				c0.1-0.5,0-0.7-0.1-0.7C-251.8,383.7-252.1,383.8-252.2,384.3L-252.2,384.3z"/>
		</g>
		<g>
			<path class="st4" d="M-253.8,385.6c0.2,1.1,1.1,0.9,0.8-0.2C-253.2,384.5-254,384.7-253.8,385.6L-253.8,385.6z"/>
			<path class="st2" d="M-253.2,386.5c-0.2,0-0.5-0.2-0.7-0.8l0,0c-0.1-0.4,0-0.7,0.2-0.9c0.1-0.1,0.3-0.1,0.4-0.1
				c0.2,0.1,0.4,0.3,0.5,0.7C-252.7,386.1-252.9,386.4-253.2,386.5C-253.2,386.5-253.2,386.5-253.2,386.5z M-253.6,385.6
				c0.1,0.5,0.3,0.6,0.4,0.6c0.1,0,0.2-0.3,0.1-0.7c-0.1-0.4-0.2-0.5-0.3-0.5c-0.1,0-0.1,0-0.2,0
				C-253.6,385.1-253.7,385.3-253.6,385.6L-253.6,385.6z"/>
		</g>
		<g>
			<path class="st4" d="M-253.1,385.7c-0.1,1.2,0.9,1.2,0.9,0.1C-252.1,384.6-253.1,384.6-253.1,385.7L-253.1,385.7z"/>
			<path class="st2" d="M-252.7,386.7C-252.7,386.7-252.7,386.7-252.7,386.7c-0.3,0-0.6-0.4-0.6-1.1l0,0c0-0.6,0.3-0.9,0.6-0.9
				c0,0,0,0,0,0c0.3,0,0.6,0.3,0.5,1C-252.1,386.4-252.4,386.7-252.7,386.7z M-252.6,385c-0.2,0-0.4,0.2-0.4,0.7l0,0
				c0,0.5,0.1,0.8,0.3,0.8c0,0,0,0,0,0c0.2,0,0.3-0.3,0.4-0.7C-252.3,385.3-252.4,385-252.6,385C-252.6,385-252.6,385-252.6,385z"/>
		</g>
		<g>
			<path class="st4" d="M-252.4,385.6c-0.2,1.2,0.6,1.3,0.8,0.1C-251.4,384.7-252.2,384.6-252.4,385.6L-252.4,385.6z"/>
			<path class="st2" d="M-252.1,386.7C-252.1,386.7-252.1,386.7-252.1,386.7c-0.3,0-0.5-0.4-0.4-1.1l0,0c0.1-0.4,0.2-0.7,0.5-0.8
				c0.1,0,0.3,0,0.4,0.1c0.2,0.2,0.3,0.5,0.2,0.9C-251.6,386.4-251.8,386.7-252.1,386.7z M-251.9,385
				C-251.9,385-251.9,385-251.9,385c-0.2,0.1-0.3,0.2-0.4,0.6l0,0c-0.1,0.5,0,0.8,0.2,0.8c0.1,0,0.3-0.2,0.4-0.7
				C-251.7,385.4-251.7,385.1-251.9,385C-251.8,385-251.9,385-251.9,385z"/>
		</g>
		<g>
			<path class="st4" d="M-252.6,387.3c-0.2,1.2,0.6,1.3,0.8,0.2C-251.6,386.3-252.5,386.3-252.6,387.3L-252.6,387.3z"/>
			<path class="st2" d="M-252.3,388.4C-252.4,388.4-252.4,388.4-252.3,388.4c-0.3,0-0.5-0.4-0.4-1.1c0.1-0.4,0.3-0.7,0.5-0.8
				c0.1,0,0.3,0,0.4,0.1c0.2,0.2,0.3,0.5,0.2,0.9C-251.8,388.1-252.1,388.4-252.3,388.4z M-252.1,386.7
				C-252.1,386.7-252.2,386.7-252.1,386.7c-0.2,0.1-0.3,0.2-0.4,0.6l0,0c-0.1,0.5,0,0.8,0.2,0.8c0.1,0,0.3-0.2,0.4-0.7
				C-251.9,387-252,386.8-252.1,386.7C-252.1,386.7-252.1,386.7-252.1,386.7z"/>
		</g>
		<g>
			<path class="st4" d="M-253.6,386.9c0.1,1.1,0.9,1,0.8,0C-252.9,385.8-253.7,385.9-253.6,386.9L-253.6,386.9z"/>
			<path class="st2" d="M-253.2,387.8c-0.3,0-0.5-0.3-0.6-0.9l0,0c0-0.4,0.1-0.7,0.3-0.8c0.1-0.1,0.3-0.1,0.4,0
				c0.2,0.1,0.4,0.4,0.4,0.8C-252.7,387.5-252.9,387.8-253.2,387.8C-253.2,387.8-253.2,387.8-253.2,387.8z M-253.2,386.2
				C-253.3,386.2-253.3,386.2-253.2,386.2c-0.2,0.1-0.3,0.3-0.3,0.6l0,0c0,0.5,0.2,0.7,0.3,0.7c0.1,0,0.3-0.2,0.3-0.7
				C-253,386.5-253.1,386.3-253.2,386.2C-253.2,386.2-253.2,386.2-253.2,386.2z"/>
		</g>
		<g>
			<path class="st4" d="M-252.9,387c-0.1,1.2,0.7,1.2,0.8,0.1C-252,385.9-252.8,386-252.9,387L-252.9,387z"/>
			<path class="st2" d="M-252.5,388C-252.5,388-252.5,388-252.5,388c-0.3,0-0.5-0.3-0.5-1v0c0-0.6,0.3-0.9,0.6-0.9c0,0,0,0,0,0
				c0.2,0,0.5,0.3,0.5,1C-252,387.7-252.3,388-252.5,388z M-252.8,387L-252.8,387c0,0.5,0.1,0.8,0.2,0.8c0,0,0,0,0,0
				c0.1,0,0.3-0.2,0.3-0.7c0-0.5-0.1-0.7-0.2-0.7c0,0,0,0,0,0C-252.6,386.3-252.7,386.5-252.8,387z"/>
		</g>
		<g>
			<path class="st4" d="M-253.8,388c0.2,0.9,0.9,0.8,0.7-0.1C-253.4,387-254,387.2-253.8,388L-253.8,388z"/>
			<path class="st2" d="M-253.4,388.8C-253.4,388.8-253.4,388.8-253.4,388.8c-0.3-0.1-0.5-0.3-0.6-0.7c-0.1-0.3,0-0.6,0.1-0.8
				c0.1-0.1,0.2-0.1,0.3-0.1c0.2,0.1,0.4,0.3,0.4,0.7c0.1,0.4,0,0.7-0.1,0.8C-253.2,388.7-253.3,388.8-253.4,388.8z M-253.6,387.4
				C-253.6,387.4-253.6,387.4-253.6,387.4c-0.1,0.1-0.2,0.3-0.1,0.6l0,0c0.1,0.3,0.2,0.5,0.3,0.5c0,0,0,0,0.1,0
				c0.1-0.1,0.1-0.3,0-0.6C-253.3,387.6-253.5,387.5-253.6,387.4C-253.6,387.4-253.6,387.4-253.6,387.4z"/>
		</g>
		<g>
			<path class="st4" d="M-252,387.2c-0.4,0.9,0.3,1.1,0.6,0.3C-251,386.6-251.7,386.5-252,387.2L-252,387.2z"/>
			<path class="st2" d="M-251.9,388.1c-0.1,0-0.2,0-0.3-0.1c-0.1-0.2-0.1-0.5,0-0.9l0,0c0.1-0.3,0.3-0.5,0.6-0.6
				c0.1,0,0.2,0,0.3,0.1c0.1,0.2,0.1,0.5,0,0.8C-251.4,387.9-251.6,388.1-251.9,388.1C-251.9,388.1-251.9,388.1-251.9,388.1z
				 M-251.5,386.9C-251.5,386.9-251.5,386.9-251.5,386.9c-0.1,0-0.3,0.1-0.4,0.4l0,0c-0.1,0.3-0.1,0.5-0.1,0.6c0,0,0,0,0.1,0
				c0.1,0,0.3-0.2,0.4-0.5C-251.4,387.1-251.4,387-251.5,386.9C-251.5,386.9-251.5,386.9-251.5,386.9z"/>
		</g>
		<g>
			<path class="st4" d="M-253.3,388.3c0.2,1.1,1,0.9,0.8-0.1C-252.6,387.2-253.4,387.4-253.3,388.3L-253.3,388.3z"/>
			<path class="st2" d="M-252.8,389.2c-0.3,0-0.5-0.3-0.6-0.9l0,0c-0.1-0.6,0.1-0.9,0.4-0.9c0.3,0,0.6,0.2,0.7,0.8
				C-252.2,388.8-252.5,389.2-252.8,389.2C-252.7,389.2-252.8,389.2-252.8,389.2z M-253.2,388.3c0.1,0.5,0.3,0.7,0.4,0.6
				c0.1,0,0.3-0.3,0.2-0.7c-0.1-0.4-0.2-0.6-0.4-0.6C-253.1,387.7-253.2,387.9-253.2,388.3L-253.2,388.3z"/>
		</g>
		<g>
			<path class="st4" d="M-252.6,388.7c0,1.2,0.8,1.2,0.8,0C-251.8,387.6-252.6,387.7-252.6,388.7L-252.6,388.7z"/>
			<path class="st2" d="M-252.2,389.8c-0.1,0-0.3,0-0.4-0.3c-0.1-0.2-0.1-0.4-0.1-0.7c0-0.6,0.3-0.9,0.5-0.9c0.2,0,0.3,0.1,0.4,0.3
				c0.1,0.2,0.1,0.4,0.1,0.7C-251.6,389.4-251.9,389.8-252.2,389.8z M-252.2,388.1c-0.1,0-0.3,0.2-0.3,0.7c0,0.5,0.2,0.8,0.3,0.8
				c0.1,0,0.3-0.2,0.3-0.7c0-0.3-0.1-0.5-0.1-0.6C-252,388.1-252.1,388.1-252.2,388.1z"/>
		</g>
		<g>
			<path class="st4" d="M-252.8,390.2c0.4,1.2,1.1,0.9,0.7-0.2C-252.4,388.8-253.1,389.2-252.8,390.2L-252.8,390.2z"/>
			<path class="st2" d="M-252.2,391.1c-0.2,0-0.5-0.2-0.7-0.9l0,0c-0.2-0.6,0-1,0.2-1.1c0.2-0.1,0.6,0.1,0.8,0.8
				C-251.7,390.6-251.9,391-252.2,391.1C-252.1,391.1-252.2,391.1-252.2,391.1z M-252.7,390.1c0.2,0.5,0.4,0.7,0.5,0.7
				c0.1,0,0.2-0.3,0-0.8c-0.2-0.5-0.4-0.7-0.5-0.6C-252.7,389.4-252.8,389.7-252.7,390.1L-252.7,390.1z"/>
		</g>
		<g>
			<path class="st4" d="M-253,390.9c0.3,1,1.1,0.8,0.7-0.2C-252.6,389.7-253.3,390-253,390.9L-253,390.9z"/>
			<path class="st2" d="M-252.4,391.7c-0.2,0-0.5-0.2-0.7-0.8v0c-0.1-0.4-0.1-0.7,0.1-0.9c0.1-0.1,0.2-0.1,0.3-0.1
				c0.2,0,0.4,0.3,0.6,0.7c0.2,0.6,0.1,1-0.2,1C-252.4,391.7-252.4,391.7-252.4,391.7z M-252.9,390.8c0.2,0.5,0.4,0.6,0.5,0.6
				c0.1,0,0.2-0.3,0-0.7c-0.1-0.4-0.3-0.5-0.4-0.5c0,0-0.1,0-0.1,0C-252.9,390.3-253,390.5-252.9,390.8L-252.9,390.8z"/>
		</g>
		<g>
			<path class="st4" d="M-250.6,381.2c0.1,1.1,0.9,1,0.8-0.1C-249.9,380-250.7,380.2-250.6,381.2L-250.6,381.2z"/>
			<path class="st2" d="M-250.1,382c-0.2,0-0.5-0.3-0.6-0.9l0,0c-0.1-0.6,0.1-0.9,0.4-0.9c0.2,0,0.5,0.2,0.6,0.8
				C-249.6,381.7-249.8,382-250.1,382C-250.1,382-250.1,382-250.1,382z M-250.4,381.1c0.1,0.5,0.3,0.7,0.3,0.7
				c0.1,0,0.2-0.2,0.2-0.7c-0.1-0.5-0.2-0.6-0.3-0.6C-250.4,380.5-250.5,380.7-250.4,381.1L-250.4,381.1z"/>
		</g>
		<g>
			<path class="st4" d="M-250.9,381.8c0.3,1.1,1,0.8,0.7-0.2C-250.4,380.6-251.1,380.9-250.9,381.8L-250.9,381.8z"/>
			<path class="st2" d="M-250.4,382.6c-0.2,0-0.5-0.2-0.7-0.8l0,0c-0.2-0.5,0-0.9,0.3-1c0.2-0.1,0.5,0.1,0.7,0.7
				C-249.9,382.2-250,382.5-250.4,382.6C-250.3,382.6-250.3,382.6-250.4,382.6z M-250.8,381.8c0.1,0.5,0.3,0.6,0.4,0.6
				c0.1,0,0.2-0.3,0.1-0.7c-0.1-0.4-0.3-0.6-0.4-0.5C-250.8,381.1-250.9,381.4-250.8,381.8L-250.8,381.8z"/>
		</g>
		<g>
			<path class="st4" d="M-250.2,381.9c-0.3,1.1,0.5,1.2,0.7,0.2C-249.2,381.1-250,381-250.2,381.9L-250.2,381.9z"/>
			<path class="st2" d="M-250,383c-0.1,0-0.2,0-0.2-0.1c-0.2-0.2-0.2-0.5-0.1-0.9l0,0c0.1-0.4,0.3-0.6,0.5-0.7c0.1,0,0.3,0,0.4,0.1
				c0.2,0.2,0.2,0.5,0.1,0.9c-0.1,0.4-0.3,0.7-0.5,0.8C-249.9,383-249.9,383-250,383z M-249.7,381.4
				C-249.7,381.4-249.7,381.4-249.7,381.4c-0.1,0-0.3,0.2-0.4,0.5l0,0c-0.1,0.4,0,0.6,0,0.7c0,0,0.1,0,0.1,0c0.1,0,0.3-0.2,0.4-0.6
				C-249.5,381.7-249.6,381.5-249.7,381.4C-249.7,381.4-249.7,381.4-249.7,381.4z"/>
		</g>
		<g>
			<path class="st4" d="M-250.9,383c-0.1,1.1,0.7,1.2,0.8,0.1C-250.1,382-250.8,382-250.9,383L-250.9,383z"/>
			<path class="st2" d="M-250.6,383.9c-0.1,0-0.1,0-0.2-0.1c-0.2-0.1-0.3-0.5-0.2-0.9l0,0c0-0.4,0.2-0.7,0.4-0.8
				c0.1-0.1,0.3,0,0.4,0c0.2,0.1,0.3,0.4,0.2,0.9c0,0.4-0.2,0.7-0.4,0.8C-250.5,383.9-250.5,383.9-250.6,383.9z M-250.5,382.4
				C-250.5,382.4-250.5,382.4-250.5,382.4c-0.2,0.1-0.3,0.2-0.3,0.6l0,0c0,0.4,0.1,0.6,0.1,0.7c0,0,0.1,0,0.1,0
				c0.1,0,0.2-0.2,0.3-0.6C-250.2,382.7-250.3,382.5-250.5,382.4C-250.4,382.4-250.5,382.4-250.5,382.4z"/>
		</g>
		<g>
			<path class="st4" d="M-250.3,383.3c-0.1,1.1,0.7,1.2,0.8,0.1C-249.3,382.4-250.2,382.4-250.3,383.3L-250.3,383.3z"/>
			<path class="st2" d="M-250,384.3c-0.1,0-0.2,0-0.2-0.1c-0.2-0.2-0.3-0.5-0.2-0.9l0,0c0-0.4,0.2-0.7,0.4-0.8c0.1-0.1,0.3,0,0.4,0
				c0.2,0.1,0.3,0.5,0.2,0.9c-0.1,0.4-0.2,0.7-0.5,0.8C-249.8,384.3-249.9,384.3-250,384.3z M-249.8,382.8
				C-249.8,382.8-249.9,382.8-249.8,382.8c-0.2,0.1-0.3,0.2-0.4,0.6v0c0,0.4,0,0.6,0.1,0.7c0,0,0.1,0,0.1,0c0.1,0,0.3-0.2,0.3-0.6
				C-249.6,383.1-249.6,382.9-249.8,382.8C-249.8,382.8-249.8,382.8-249.8,382.8z"/>
		</g>
		<g>
			<path class="st4" d="M-250.4,385.4c-0.2,1.1,0.6,1.2,0.8,0.2C-249.3,384.6-250.2,384.5-250.4,385.4L-250.4,385.4z"/>
			<path class="st2" d="M-250.1,386.5C-250.1,386.5-250.2,386.5-250.1,386.5c-0.3-0.1-0.5-0.4-0.4-1l0,0c0.1-0.6,0.5-0.8,0.7-0.7
				c0.3,0.1,0.5,0.4,0.3,1C-249.6,386.2-249.9,386.5-250.1,386.5z M-250.3,385.5c-0.1,0.5,0,0.7,0.1,0.7c0.1,0,0.3-0.1,0.4-0.6
				c0.1-0.4,0-0.6-0.1-0.7C-250,384.9-250.2,385.1-250.3,385.5L-250.3,385.5z"/>
		</g>
		<g>
			<path class="st4" d="M-251,384.3c-0.3,1.1,0.5,1.3,0.8,0.2C-249.9,383.5-250.8,383.4-251,384.3L-251,384.3z"/>
			<path class="st2" d="M-250.8,385.3c-0.1,0-0.2,0-0.3-0.1c-0.2-0.2-0.2-0.5-0.1-1c0.2-0.5,0.5-0.8,0.8-0.7c0.3,0.1,0.4,0.4,0.3,1
				C-250.2,385-250.4,385.3-250.8,385.3C-250.7,385.3-250.8,385.3-250.8,385.3z M-250.5,383.8c-0.1,0-0.3,0.1-0.4,0.5l0,0
				c-0.1,0.4-0.1,0.6,0,0.7c0,0,0.1,0.1,0.1,0c0.1,0,0.3-0.2,0.4-0.6C-250.2,384.1-250.3,383.9-250.5,383.8
				C-250.5,383.8-250.5,383.8-250.5,383.8z"/>
		</g>
		<g>
			<path class="st4" d="M-250.3,384.5c-0.2,1.1,0.7,1.2,0.8,0.2C-249.3,383.7-250.2,383.6-250.3,384.5L-250.3,384.5z"/>
			<path class="st2" d="M-250,385.6c-0.1,0-0.2,0-0.2-0.1c-0.2-0.2-0.3-0.5-0.2-0.9l0.1,0l-0.1,0c0.1-0.6,0.4-0.8,0.7-0.8
				c0.3,0,0.5,0.4,0.4,1c-0.1,0.4-0.2,0.7-0.5,0.8C-249.9,385.5-250,385.6-250,385.6z M-249.8,384c-0.1,0-0.3,0.2-0.4,0.6l0,0
				c-0.1,0.4,0,0.6,0.1,0.7c0,0,0.1,0,0.1,0c0.1,0,0.3-0.2,0.3-0.6C-249.6,384.3-249.7,384-249.8,384
				C-249.8,384-249.8,384-249.8,384z"/>
		</g>
		<g>
			<path class="st4" d="M-251.4,385.6c-0.2,1.1,0.6,1.2,0.8,0.2C-250.4,384.7-251.2,384.7-251.4,385.6L-251.4,385.6z"/>
			<path class="st2" d="M-251.1,386.6C-251.1,386.6-251.1,386.6-251.1,386.6c-0.3-0.1-0.5-0.4-0.4-1l0,0c0.1-0.6,0.4-0.8,0.7-0.7
				c0.3,0,0.5,0.4,0.4,1C-250.5,386.4-250.8,386.6-251.1,386.6z M-251.3,385.6c-0.1,0.5,0.1,0.7,0.2,0.7c0.1,0,0.3-0.2,0.4-0.6
				c0.1-0.4,0-0.6-0.2-0.7C-251,385-251.2,385.2-251.3,385.6L-251.3,385.6z"/>
		</g>
		<g>
			<path class="st4" d="M-250.8,385.5c-0.4,1,0.4,1.3,0.8,0.3C-249.6,384.8-250.4,384.6-250.8,385.5L-250.8,385.5z"/>
			<path class="st2" d="M-250.6,386.5c0,0-0.1,0-0.1,0c-0.3-0.1-0.4-0.5-0.2-1.1h0c0.2-0.5,0.6-0.7,0.8-0.6c0.2,0.1,0.4,0.5,0.2,1
				C-250.1,386.3-250.4,386.5-250.6,386.5z M-250.7,385.5c-0.2,0.5-0.1,0.7,0,0.8c0.1,0,0.4-0.1,0.5-0.5c0.2-0.4,0.1-0.6,0-0.7
				C-250.3,385-250.5,385.1-250.7,385.5L-250.7,385.5z"/>
		</g>
		<g>
			<path class="st4" d="M-251,387.4c-0.4,1,0.3,1.3,0.7,0.3C-249.9,386.8-250.6,386.6-251,387.4L-251,387.4z"/>
			<path class="st2" d="M-250.8,388.5c0,0-0.1,0-0.1,0c-0.2-0.1-0.4-0.5-0.1-1.1l0,0c0.2-0.5,0.6-0.7,0.8-0.6c0.2,0.1,0.4,0.4,0.1,1
				C-250.3,388.3-250.6,388.5-250.8,388.5z M-250.8,387.5c-0.2,0.4-0.1,0.7,0,0.7c0.1,0,0.3-0.1,0.5-0.5c0.2-0.4,0.1-0.6,0-0.7
				C-250.5,387-250.7,387.1-250.8,387.5L-250.8,387.5z"/>
		</g>
		<g>
			<path class="st4" d="M-250.5,386.2c-0.5,1,0.2,1.3,0.7,0.4C-249.3,385.7-250.1,385.4-250.5,386.2L-250.5,386.2z"/>
			<path class="st2" d="M-250.4,387.3c-0.1,0-0.1,0-0.2,0c-0.2-0.1-0.3-0.5-0.1-1.1c0.3-0.5,0.6-0.6,0.9-0.5c0.2,0.1,0.3,0.5,0.1,1
				C-249.9,387.1-250.2,387.3-250.4,387.3z M-249.9,385.9c-0.1,0-0.3,0.1-0.5,0.4l0,0c-0.2,0.5-0.2,0.7-0.1,0.8
				c0.1,0.1,0.4-0.1,0.6-0.5C-249.7,386.2-249.7,386-249.9,385.9C-249.9,385.9-249.9,385.9-249.9,385.9z"/>
		</g>
		<g>
			<path class="st4" d="M-251.5,386.3c-0.4,1,0.4,1.3,0.8,0.3C-250.4,385.6-251.2,385.4-251.5,386.3L-251.5,386.3z"/>
			<path class="st2" d="M-251.3,387.4c-0.1,0-0.2,0-0.3-0.1c-0.2-0.2-0.2-0.5,0-1l0,0c0.1-0.4,0.4-0.6,0.6-0.6c0.1,0,0.3,0,0.4,0.1
				c0.2,0.2,0.2,0.5,0,0.9C-250.7,387.1-251,387.3-251.3,387.4C-251.2,387.4-251.3,387.4-251.3,387.4z M-250.9,385.9
				C-250.9,385.9-251,385.9-250.9,385.9c-0.2,0-0.3,0.2-0.4,0.5l0,0c-0.1,0.4-0.1,0.6,0,0.7c0,0,0.1,0.1,0.1,0
				c0.1,0,0.3-0.2,0.4-0.5c0.1-0.3,0.1-0.6,0-0.6C-250.8,385.9-250.9,385.9-250.9,385.9z"/>
		</g>
		<g>
			<path class="st4" d="M-251.3,387.2c-0.4,1,0.3,1.3,0.7,0.3C-250.2,386.5-251,386.3-251.3,387.2L-251.3,387.2z"/>
			<path class="st2" d="M-251.2,388.2c-0.1,0-0.2,0-0.3-0.1c-0.2-0.2-0.1-0.5,0-1l0,0c0.1-0.4,0.4-0.6,0.6-0.6c0.1,0,0.3,0,0.3,0.1
				c0.1,0.2,0.1,0.5,0,0.9C-250.6,387.9-250.9,388.2-251.2,388.2C-251.1,388.2-251.1,388.2-251.2,388.2z M-250.8,386.8
				C-250.8,386.8-250.8,386.8-250.8,386.8c-0.1,0-0.3,0.2-0.4,0.5l0,0c-0.2,0.4-0.1,0.6-0.1,0.7c0,0,0.1,0,0.1,0
				c0.1,0,0.3-0.2,0.4-0.5C-250.6,387.1-250.6,386.9-250.8,386.8C-250.7,386.8-250.7,386.8-250.8,386.8z"/>
		</g>
		<g>
			<path class="st4" d="M-251.9,388c-0.2,1,0.5,1.1,0.7,0.2C-250.9,387.2-251.7,387.2-251.9,388L-251.9,388z"/>
			<path class="st2" d="M-251.6,389c-0.1,0-0.2,0-0.2-0.1c-0.2-0.2-0.2-0.5-0.1-0.9l0,0c0.1-0.4,0.3-0.6,0.5-0.7
				c0.1,0,0.2,0,0.3,0.1c0.2,0.2,0.2,0.5,0.1,0.8c-0.1,0.4-0.3,0.7-0.5,0.7C-251.6,389-251.6,389-251.6,389z M-251.4,387.5
				C-251.4,387.5-251.4,387.6-251.4,387.5c-0.1,0-0.3,0.2-0.3,0.5l0,0c-0.1,0.4,0,0.6,0,0.7c0,0,0,0,0.1,0c0.1,0,0.2-0.2,0.3-0.6
				C-251.2,387.8-251.3,387.6-251.4,387.5C-251.3,387.6-251.4,387.5-251.4,387.5z"/>
		</g>
		<g>
			<path class="st4" d="M-251.2,388.4c-0.4,0.9,0.3,1.1,0.6,0.3C-250.3,387.8-250.9,387.6-251.2,388.4L-251.2,388.4z"/>
			<path class="st2" d="M-251.1,389.3c0,0-0.1,0-0.1,0c-0.2-0.1-0.3-0.4-0.1-1l0,0c0.1-0.3,0.3-0.5,0.6-0.6c0.1,0,0.2,0,0.3,0.1
				c0.1,0.2,0.1,0.5,0,0.8C-250.7,389.1-250.9,389.3-251.1,389.3z M-250.8,388C-250.8,388-250.8,388-250.8,388
				c-0.1,0-0.3,0.1-0.4,0.4l0,0c-0.2,0.4-0.1,0.6,0,0.6c0.1,0,0.3-0.1,0.4-0.5C-250.6,388.3-250.6,388.1-250.8,388
				C-250.7,388-250.7,388-250.8,388z"/>
		</g>
		<g>
			<path class="st4" d="M-252,389.3c-0.3,1.1,0.5,1.3,0.8,0.2C-250.9,388.5-251.7,388.4-252,389.3L-252,389.3z"/>
			<path class="st2" d="M-251.7,390.4c-0.1,0-0.2,0-0.3-0.1c-0.2-0.2-0.2-0.6-0.1-1l0.1,0l-0.1,0c0.1-0.4,0.3-0.7,0.6-0.7
				c0.1,0,0.3,0,0.4,0.1c0.2,0.2,0.2,0.5,0.1,0.9C-251.2,390.1-251.4,390.4-251.7,390.4C-251.7,390.4-251.7,390.4-251.7,390.4z
				 M-251.4,388.8C-251.4,388.8-251.4,388.8-251.4,388.8c-0.2,0-0.3,0.2-0.4,0.6c-0.1,0.4-0.1,0.7,0,0.8c0,0,0.1,0,0.1,0
				c0.1,0,0.3-0.2,0.4-0.6C-251.2,389.2-251.2,388.9-251.4,388.8C-251.3,388.8-251.4,388.8-251.4,388.8z"/>
		</g>
		<g>
			<path class="st4" d="M-252.3,390.7c-0.2,1.1,0.6,1.2,0.7,0.1C-251.4,389.8-252.2,389.8-252.3,390.7L-252.3,390.7z"/>
			<path class="st2" d="M-252.1,391.7C-252.1,391.7-252.1,391.7-252.1,391.7c-0.3,0-0.5-0.4-0.4-1l0,0c0.1-0.6,0.4-0.8,0.6-0.8
				c0.2,0,0.5,0.3,0.3,0.9C-251.6,391.5-251.8,391.7-252.1,391.7z M-251.9,390.2c-0.1,0-0.3,0.2-0.3,0.6l0,0c-0.1,0.5,0,0.7,0.1,0.7
				c0.1,0,0.3-0.2,0.4-0.6C-251.6,390.4-251.8,390.2-251.9,390.2C-251.9,390.2-251.9,390.2-251.9,390.2z"/>
		</g>
		<g>
			<path class="st4" d="M-252.8,389.7c0.3,1.1,1.1,0.8,0.8-0.2C-252.3,388.4-253.1,388.8-252.8,389.7L-252.8,389.7z"/>
			<path class="st2" d="M-252.2,390.5C-252.3,390.5-252.3,390.5-252.2,390.5c-0.3-0.1-0.6-0.3-0.7-0.8l0,0c-0.2-0.5,0-0.9,0.3-1
				c0.3-0.1,0.6,0.1,0.8,0.7c0.1,0.4,0.1,0.8-0.1,0.9C-252,390.4-252.1,390.5-252.2,390.5z M-252.5,389
				C-252.5,389-252.5,389-252.5,389c-0.2,0-0.3,0.3-0.2,0.7l0,0c0.1,0.4,0.3,0.6,0.4,0.6c0,0,0.1,0,0.1,0c0.1-0.1,0.1-0.3,0-0.7
				C-252.2,389.1-252.4,389-252.5,389z"/>
		</g>
		<g>
			<path class="st4" d="M-254.2,386.7c0.1,1.1,0.9,1,0.8,0C-253.4,385.6-254.3,385.7-254.2,386.7L-254.2,386.7z"/>
			<path class="st2" d="M-253.8,387.6c-0.1,0-0.1,0-0.2,0c-0.2-0.1-0.4-0.4-0.4-0.9l0,0c0-0.4,0.1-0.7,0.3-0.8
				c0.1-0.1,0.3-0.1,0.4,0c0.2,0.1,0.4,0.4,0.4,0.8c0,0.4-0.1,0.8-0.3,0.9C-253.6,387.6-253.7,387.6-253.8,387.6z M-253.8,386
				C-253.8,386-253.9,386-253.8,386c-0.2,0.1-0.3,0.3-0.3,0.6l0,0c0,0.4,0.1,0.6,0.3,0.7c0,0,0.1,0,0.1,0c0.1-0.1,0.2-0.3,0.2-0.7
				C-253.5,386.3-253.6,386.1-253.8,386C-253.8,386-253.8,386-253.8,386z"/>
		</g>
	</g>
</g>
</svg>
