<?xml version="1.0" encoding="utf-8"?>
<!-- Generator: Adobe Illustrator 19.0.0, SVG Export Plug-In . SVG Version: 6.00 Build 0)  -->
<svg version="1.1" id="Layer_1" xmlns="http://www.w3.org/2000/svg" xmlns:xlink="http://www.w3.org/1999/xlink" x="0px" y="0px"
	 viewBox="-269 374 72 46" style="enable-background:new -269 374 72 46;" xml:space="preserve">
<style type="text/css">
	.st0{clip-path:url(#SVGID_2_);}
	.st1{fill:#EE7335;}
	.st2{fill:#FFFFFF;}
	.st3{fill:none;stroke:#000000;stroke-width:0.25;}
	.st4{fill:#3973B9;}
	.st5{fill:#FFD239;}
</style>
<g>
	<defs>
		<path id="SVGID_1_" d="M-204,420H-262c-3.8,0-7-3.1-7-7V381c0-3.8,3.1-7,7-7h58.1c3.8,0,7,3.1,7,7V413
			C-197,416.9-200.1,420-204,420z"/>
	</defs>
	<clipPath id="SVGID_2_">
		<use xlink:href="#SVGID_1_"  style="overflow:visible;"/>
	</clipPath>
	<g class="st0">
		<g>
			<polygon class="st1" points="-177.6,420.7 -177.6,373.3 -272.4,373.3 -272.4,420.7 			"/>
		</g>
		<g>
			<path d="M-177.5,420.8h-95.1v-47.7h95.1V420.8z M-272.3,420.6h94.6v-47.2h-94.6V420.6z"/>
		</g>
		<g>
			<path class="st2" d="M-225,397"/>
		</g>
		<g>
			<path class="st3" d="M-225,397"/>
		</g>
		<g>
			<polygon class="st4" points="-240.8,373.3 -240.8,420.7 -209.2,420.7 -209.2,373.3 			"/>
		</g>
		<g>
			<path d="M-209.1,420.8h-31.9v-47.7h31.9V420.8z M-240.7,420.6h31.4v-47.2h-31.4V420.6z"/>
		</g>
		<g>
			<path class="st5" d="M-254.5,401.8c0.7,2-0.5,2.7-1.8,3.1c-1.2,0.3-2.8,1.4-1.4,3.1C-256.3,409.8-250.3,406.1-254.5,401.8
				L-254.5,401.8z"/>
		</g>
		<g>
			<path class="st5" d="M-258.6,407.7c-0.7-2,0.6-2.9,1.8-3.2c1.2-0.3,2.8-1.2,1.4-2.9C-257.2,399.6-263.4,403.4-258.6,407.7
				L-258.6,407.7z"/>
		</g>
		<g>
			<polygon class="st5" points="-261.2,395.7 -264.7,395.7 -264.7,413.4 -261.2,413.4 			"/>
		</g>
		<g>
			<path class="st5" d="M-256.6,393.4c-1.3,0-2.8-0.3-3.9-2c0.5,2.1,2,3.5,3.9,3.5"/>
		</g>
		<g>
			<polygon class="st5" points="-253.2,411.4 -256.6,413.6 -260,411.4 			"/>
		</g>
		<g>
			<polygon class="st5" points="-253,409.1 -253,410.5 -260.2,410.5 -260.2,409.1 			"/>
		</g>
		<g>
			<polygon class="st5" points="-253,398.7 -253,400 -260.2,400 -260.2,398.7 			"/>
		</g>
		<g>
			<polygon class="st5" points="-252,395.7 -248.5,395.7 -248.5,413.4 -252,413.4 			"/>
		</g>
		<g>
			<polygon class="st5" points="-253.4,395.7 -256.6,397.8 -259.8,395.7 			"/>
		</g>
		<g>
			<path class="st5" d="M-256.6,393.4c1.3,0,2.8-0.3,3.9-2c-0.5,2.1-2,3.5-3.9,3.5"/>
		</g>
		<g>
			<path class="st5" d="M-256.6,392.6c1.6,0,2.8-1.3,2.8-2.8s-1.3-2.8-2.8-2.8c-1.6,0-2.8,1.3-2.8,2.8S-258.2,392.6-256.6,392.6
				L-256.6,392.6z"/>
		</g>
		<g>
			<path class="st5" d="M-256.5,380.3c-0.3,0.4-0.2,0.9-0.2,1.2s0.1,0.4-0.2,0.8c-0.3,0.4-0.4,0.8-0.1,1.1c0.3,0.3,0.2,0.9-0.1,0.9
				c-0.3,0-0.7-0.3-0.5-0.8c0.1-0.2,0.1-0.6,0-0.7c-0.1-0.1,0-0.3,0.1-0.5c0.1-0.1,0.1-0.3,0-0.4c0-0.1-0.1-0.1-0.2,0
				c-0.2,0.3-0.2,0.4-0.2,0.6c0.1,0.2,0,0.3-0.2,0.6c-0.6,0.9-0.2,2.5,1.4,2.5c1.6,0,2.1-1.4,1.8-1.9c-0.2-0.4-0.3-0.8-0.3-1.1
				c0-0.3-0.2-0.6-0.3-0.8c-0.1-0.2-0.2-0.1-0.1,0.2c0.1,0.3,0.1,0.5,0,0.6c-0.1,0.2-0.1,0.4,0.1,0.6c0.2,0.2,0,0.7-0.4,0.7
				c-0.4,0-0.7-0.4-0.4-1c0.2-0.6,0.3-1.4,0.1-1.7s-0.3-0.7-0.3-0.9C-256.4,380.3-256.5,380.2-256.5,380.3L-256.5,380.3z"/>
		</g>
		<g>
			<path class="st1" d="M-256.6,402.1c-1,0-1,1.4,0,1.4C-255.6,403.5-255.6,402.1-256.6,402.1L-256.6,402.1z"/>
		</g>
		<g>
			<path class="st1" d="M-256.6,405.9c-1,0-1,1.4,0,1.4C-255.6,407.3-255.6,405.9-256.6,405.9L-256.6,405.9z"/>
		</g>
	</g>
</g>
</svg>
