<?xml version="1.0" encoding="utf-8"?>
<!-- Generator: Adobe Illustrator 19.0.0, SVG Export Plug-In . SVG Version: 6.00 Build 0)  -->
<svg version="1.1" id="Layer_1" xmlns="http://www.w3.org/2000/svg" xmlns:xlink="http://www.w3.org/1999/xlink" x="0px" y="0px"
	 viewBox="-269 374 72 46" style="enable-background:new -269 374 72 46;" xml:space="preserve">
<style type="text/css">
	.st0{clip-path:url(#SVGID_2_);}
	.st1{fill:#009E59;}
	.st2{fill:#FFE247;}
</style>
<g>
	<defs>
		<path id="SVGID_1_" d="M-204,420H-262c-3.8,0-7-3.1-7-7V381c0-3.8,3.1-7,7-7h58.1c3.8,0,7,3.1,7,7V413
			C-197,416.9-200.1,420-204,420z"/>
	</defs>
	<clipPath id="SVGID_2_">
		<use xlink:href="#SVGID_1_"  style="overflow:visible;"/>
	</clipPath>
	<g class="st0">
		<g>
			<polygon class="st1" points="-196.5,421.3 -196.5,372.7 -269.5,372.7 -269.5,421.3 			"/>
		</g>
		<g>
			<path d="M-196.4,421.5h-73.3v-48.9h73.3V421.5z M-269.4,421.2h72.8v-48.4h-72.8V421.2z"/>
		</g>
		<g>
			<path class="st2" d="M-221.2,384.4c1.7,2.4,2.8,5.4,2.8,8.6c0,8.1-6.5,14.6-14.6,14.6c-8.1,0-14.6-6.5-14.6-14.6
				c0-3.2,1-6.1,2.8-8.5c-0.7,1.6-1.1,3.4-1.1,5.3c0,7.1,5.8,12.9,12.9,12.9c7.1,0,12.9-5.8,12.9-12.9
				C-220.1,387.8-220.5,386-221.2,384.4L-221.2,384.4z"/>
		</g>
		<g>
			<path d="M-233,407.6c-8.1,0-14.6-6.6-14.6-14.6c0-3.1,1-6.1,2.8-8.6l0.1,0c-0.7,1.6-1.1,3.4-1.1,5.3c0,7.1,5.8,12.9,12.9,12.9
				s12.9-5.8,12.9-12.9c0-1.8-0.4-3.6-1.1-5.3l0.1,0c1.8,2.5,2.8,5.5,2.8,8.6C-218.4,401.1-224.9,407.6-233,407.6z M-245,384.7
				c-1.7,2.5-2.6,5.3-2.6,8.3c0,8,6.5,14.6,14.6,14.6s14.6-6.5,14.6-14.6c0-3-0.9-5.8-2.6-8.3c0.7,1.6,1,3.3,1,5c0,7.1-5.8,13-13,13
				c-7.1,0-13-5.8-13-13C-246,388-245.6,386.3-245,384.7z"/>
		</g>
		<g>
			<polygon class="st2" points="-233.1,378 -234.3,381.8 -238.4,381.8 -235.1,384.2 -236.3,388 -233.1,385.7 -229.8,388 -231,384.2 
				-227.8,381.8 -231.8,381.8 			"/>
		</g>
		<g>
			<path d="M-236.4,388.1L-236.4,388.1l1.3-3.9l-3.4-2.4h4.1l1.3-3.9l1.3,3.9h4.1l-0.1,0.1l-3.3,2.3l1.3,3.9l-0.1-0.1l-3.2-2.4
				L-236.4,388.1z M-233.1,385.6L-233.1,385.6l3.2,2.3l-1.2-3.8l0,0l3.2-2.3h-4l0,0l-1.2-3.8l-1.2,3.8h-4l3.2,2.3l0,0l-1.2,3.7
				L-233.1,385.6z"/>
		</g>
	</g>
</g>
</svg>
