<?xml version="1.0" encoding="utf-8"?>
<!-- Generator: Adobe Illustrator 19.0.0, SVG Export Plug-In . SVG Version: 6.00 Build 0)  -->
<svg version="1.1" id="Layer_1" xmlns="http://www.w3.org/2000/svg" xmlns:xlink="http://www.w3.org/1999/xlink" x="0px" y="0px"
	 viewBox="-269 374 72 46" style="enable-background:new -269 374 72 46;" xml:space="preserve">
<style type="text/css">
	.st0{clip-path:url(#SVGID_2_);}
	.st1{fill:#003671;}
	.st2{fill:#FFFFFF;}
	.st3{fill:#DC2F34;}
	.st4{fill:#9A630B;}
	.st5{fill:#AFD398;}
	.st6{fill:#FFD139;}
	.st7{fill:#FEE8D5;}
</style>
<g>
	<defs>
		<path id="SVGID_1_" d="M-204,420H-262c-3.8,0-7-3.1-7-7V381c0-3.8,3.1-7,7-7h58.1c3.8,0,7,3.1,7,7V413
			C-197,416.9-200.1,420-204,420z"/>
	</defs>
	<clipPath id="SVGID_2_">
		<use xlink:href="#SVGID_1_"  style="overflow:visible;"/>
	</clipPath>
	<g class="st0">
		<g>
			<polygon class="st1" points="-185.6,421.2 -185.6,372.8 -280.4,372.8 -280.4,421.2 			"/>
		</g>
		<g>
			<path d="M-185.5,421.3h-95.1v-48.6h95.1V421.3z M-280.3,421h94.6V373h-94.6V421z"/>
		</g>
		<g>
			<polygon class="st2" points="-280.4,380.9 -270.4,380.9 -280.4,375.8 -280.4,372.8 -274.7,372.8 -260.7,380 -260.7,372.8 
				-252.8,372.8 -252.8,380 -238.8,372.8 -233.1,372.8 -233.1,375.8 -243.1,380.9 -233.1,380.9 -233.1,389 -243.1,389 -233.1,394.1 
				-233.1,397 -238.8,397 -252.8,389.9 -252.8,397 -260.7,397 -260.7,389.9 -274.7,397 -280.4,397 -280.4,394.1 -270.4,389 
				-280.4,389 			"/>
		</g>
		<g>
			<path d="M-232.9,397.1l-6,0l-13.8-7v7h-8.1v-7l-13.9,7h-5.8V394l9.6-4.9h-9.6v-8.3h9.6l-9.6-4.9v-3.1l5.9,0l13.8,7v-7h8.1v7
				l13.9-7h5.9v3.1l-9.7,4.9h9.7v8.3h-9.7l9.7,4.9V397.1z M-238.8,396.9h5.6v-2.7l-10-5.1l0.1-0.2h9.9V381h-9.9l-0.1-0.2l10-5.1V373
				h-5.6l-14.1,7.2V373h-7.6v7.2l-14.1-7.2h-5.6v2.7l9.9,5.1l-0.1,0.2h-9.9v7.8h9.9l0.1,0.2l-9.9,5.1v2.7h5.6l14.1-7.2v7.2h7.6v-7.2
				L-238.8,396.9z"/>
		</g>
		<g>
			<polygon class="st3" points="-236.8,372.8 -252.6,380.9 -248.8,380.9 -233.1,372.8 			"/>
		</g>
		<g>
			<path d="M-248.8,381h-3.8l-0.1-0.2l15.9-8.1h3.7l0.1,0.2L-248.8,381z M-252.1,380.8h3.2l15.3-7.8h-3.2L-252.1,380.8z"/>
		</g>
		<g>
			<polygon class="st3" points="-233.1,397 -248.8,389 -245,389 -233.1,395.1 			"/>
		</g>
		<g>
			<path d="M-233.1,397.1l-15.8-8.1l0.1-0.2l3.9,0l12,6.1l0.1,0.1v1.9L-233.1,397.1z M-248.3,389.1l15.1,7.7v-1.6l-11.9-6.1H-248.3z
				"/>
		</g>
		<g>
			<polygon class="st3" points="-264.6,380.9 -280.4,372.8 -280.4,374.8 -268.4,380.9 			"/>
		</g>
		<g>
			<path d="M-264.6,381l-3.9,0l-12-6.1l-0.1-0.1v-1.9l0.2-0.1l15.8,8.1L-264.6,381z M-268.4,380.8h3.3l-15.2-7.7v1.6L-268.4,380.8z"
				/>
		</g>
		<g>
			<polygon class="st3" points="-264.6,389 -280.4,397 -276.6,397 -260.8,389 			"/>
		</g>
		<g>
			<path d="M-276.6,397.1h-3.8l-0.1-0.2l15.9-8.1h3.8l0.1,0.2L-276.6,397.1z M-279.9,396.9h3.2l15.3-7.8h-3.2L-279.9,396.9z"/>
		</g>
		<g>
			<polygon class="st3" points="-280.4,382.6 -259,382.6 -259,372.8 -254.4,372.8 -254.4,382.6 -233.1,382.6 -233.1,387.3 
				-254.4,387.3 -254.4,397 -259,397 -259,387.3 -280.4,387.3 			"/>
		</g>
		<g>
			<path d="M-254.3,397.1h-4.9v-9.7h-21.4v-5h21.4v-9.7h4.9v9.7h21.3v5h-21.3V397.1z M-258.9,396.9h4.4v-9.7h21.3v-4.5h-21.3V373
				h-4.4v9.7h-21.4v4.5h21.4V396.9z"/>
		</g>
		<g>
			<path class="st2" d="M-209.3,407.7c5.8,0,10.5-4.8,10.5-10.7c0-5.9-4.7-10.7-10.5-10.7c-5.8,0-10.5,4.8-10.5,10.7
				C-219.8,402.9-215.1,407.7-209.3,407.7L-209.3,407.7z"/>
		</g>
		<g>
			<path d="M-209.3,407.7c-5.8,0-10.5-4.8-10.5-10.7s4.7-10.7,10.5-10.7s10.5,4.8,10.5,10.7S-203.5,407.7-209.3,407.7z
				 M-209.3,386.4c-5.7,0-10.4,4.8-10.4,10.6c0,5.9,4.7,10.6,10.4,10.6s10.4-4.8,10.4-10.6C-198.9,391.2-203.6,386.4-209.3,386.4z"
				/>
		</g>
		<g>
			<path class="st1" d="M-202.4,400.6c0-0.3,0.1-0.7,0.1-1c0-3.7,0-9.9,0-9.9h-13.8c0,0,0,6.2,0,9.9c0,0.4,0,0.7,0.1,1H-202.4
				L-202.4,400.6z"/>
		</g>
		<g>
			<path d="M-202.4,400.6h-13.8l0-0.1c0-0.3-0.1-0.7-0.1-1v-10h14v10C-202.3,399.9-202.3,400.2-202.4,400.6L-202.4,400.6z
				 M-216.1,400.5h13.6c0-0.3,0-0.6,0-1v-9.9h-13.7v9.9C-216.1,399.9-216.1,400.2-216.1,400.5z"/>
		</g>
		<g>
			<path class="st4" d="M-202.4,400.6c-0.2,1.7-0.9,3-2,4.1c-2,1.8-4.8,2.2-4.8,2.6c0-0.4-2.8-0.8-4.8-2.6c-1.1-1-1.9-2.3-2-4.1
				H-202.4L-202.4,400.6z"/>
		</g>
		<g>
			<path d="M-209.2,407.2h-0.1c0-0.1-0.5-0.3-1-0.5c-1-0.4-2.5-1-3.8-2.1c-1.2-1.1-1.9-2.4-2.1-4.1l0-0.1h13.9l0,0.1
				c-0.2,1.7-0.8,3-2.1,4.1c-1.2,1.1-2.8,1.7-3.8,2.1C-208.7,406.9-209.2,407.1-209.2,407.2z M-216.1,400.6c0.2,1.6,0.8,2.9,2,3.9
				c1.2,1.1,2.7,1.7,3.7,2c0.5,0.2,0.9,0.3,1,0.5c0.1-0.1,0.5-0.3,1-0.5c1-0.4,2.5-1,3.7-2c1.2-1.1,1.8-2.3,2-3.9H-216.1z"/>
		</g>
		<g>
			<polygon points="-208.8,392.8 -206.2,392.8 -206.2,391.9 -208.8,391.9 -208.8,390.7 -209.7,390.7 -209.7,391.9 -212.4,391.9 
				-212.4,392.8 -209.7,392.8 -209.7,404 -208.8,404 			"/>
		</g>
		<g>
			<path d="M-208.8,404h-1v-11.2h-2.7v-0.9h2.7v-1.2h1v1.2h2.6v0.9h-2.6V404z M-209.7,404h0.9v-11.2h2.6v-0.8h-2.6v-1.2h-0.9v1.2
				h-2.7v0.8h2.7V404z"/>
		</g>
		<g>
			<path class="st5" d="M-208.8,394.1c0.2-0.1,0.2-0.2,0.3-0.2c0.1,0,0.2,0,0.3,0c0.1,0,0.6-0.1,0.8,0c0.1,0,0.2,0,0.3,0.2
				c0.1,0.1,0.3,0.3,0.3,0.9c-0.1,0.6,0,0.8-0.1,1.1c-0.1,0.6-0.2,1-0.4,1c0.3,0.5,0.3,1,0.5,1.4c0.2,0.4,0.3,1.1,0.2,1.9
				c-0.1,0.8-0.3,2.6,0.3,3.9c-0.1,0.1-0.4,0-0.6-0.2s-0.3-0.2-0.5-0.1c-0.6,0.4-1.1,1-1.9,0.4c-0.2-0.1-0.2-0.3-0.1-0.6
				c0.3-0.9,0.5-2.2,0.4-2.8L-208.8,394.1L-208.8,394.1z"/>
		</g>
		<g>
			<path d="M-208.5,404.5c-0.2,0-0.4-0.1-0.7-0.2c-0.2-0.1-0.2-0.3-0.1-0.7c0.3-0.9,0.5-2.2,0.4-2.8v-6.8l0.1,0
				c0.1-0.1,0.2-0.2,0.3-0.2c0.1,0,0.2,0,0.3,0c0.1,0,0.6-0.1,0.8,0c0.1,0,0.2,0.1,0.3,0.2c0.2,0.2,0.3,0.4,0.3,0.9
				c0,0.3,0,0.6-0.1,0.8c0,0.1,0,0.2,0,0.4c0,0.4-0.1,0.8-0.3,1c0,0-0.1,0-0.1,0c0.2,0.3,0.2,0.6,0.3,0.8c0.1,0.2,0.1,0.4,0.2,0.5
				c0.2,0.4,0.3,1.2,0.2,1.9l0,0.1c-0.1,0.8-0.2,2.6,0.4,3.7l0,0l0,0c-0.1,0.1-0.4,0-0.6-0.2c-0.2-0.2-0.3-0.2-0.5-0.1
				c0,0-0.1,0.1-0.1,0.1C-207.7,404.3-208.1,404.5-208.5,404.5z M-208.8,394.1v6.7c0.1,0.6-0.1,1.9-0.4,2.8
				c-0.1,0.4-0.1,0.5,0.1,0.6c0.7,0.5,1.2,0.1,1.7-0.3c0,0,0.1-0.1,0.1-0.1c0.2-0.2,0.3-0.1,0.6,0.1c0.2,0.2,0.4,0.3,0.5,0.3
				c-0.6-1.2-0.4-2.9-0.3-3.7l0-0.1c0.1-0.9-0.1-1.6-0.2-1.9c-0.1-0.2-0.1-0.3-0.2-0.5c-0.1-0.2-0.2-0.5-0.3-0.8l0-0.1l0.1,0
				c0,0,0.1,0,0.1,0c0.1-0.1,0.2-0.4,0.3-0.9c0-0.1,0-0.2,0-0.4c0-0.2,0-0.4,0.1-0.8c0.1-0.6-0.2-0.8-0.3-0.9
				c-0.1-0.1-0.2-0.1-0.3-0.2c-0.2-0.1-0.7,0-0.8,0c-0.1,0-0.2,0-0.3,0C-208.5,393.9-208.6,394-208.8,394.1L-208.8,394.1z"/>
		</g>
		<g>
			<path class="st6" d="M-212,401c0.5,0.5,2,2.1,2.2,2.3c0.2,0.2,0.3,0.2,0.4,0c0.5-1.3,0.4-3-0.9-4.7c-0.2,0.8-0.8,1.4-1.7,1.5
				c-0.4,0.1-0.5,0.4-0.4,0.5c0.1-0.2,0.4-0.2,0.5,0c0.1,0.2,0,0.5-0.3,0.5c-0.2,0.1-0.6,0.1-0.7-0.2c-0.1-0.2-0.2-0.8,0.4-1.1
				c0.6-0.3,1.3-0.6,1.4-1.1c0.1-0.6,0.3-0.8,0.7-0.9c2.1,1.9,2.3,4.1,1.5,6.1c-0.2,0.5-0.5,0.6-0.8,0.3c-0.2-0.3-1.8-2.2-2.6-3.1
				C-212.2,401.2-212.1,401.1-212,401L-212,401z"/>
		</g>
		<g>
			<path d="M-209.5,404.6c-0.1,0-0.2-0.1-0.3-0.2c-0.2-0.3-1.7-2.1-2.6-3.1c-0.2,0-0.5,0-0.6-0.2c-0.1-0.2-0.2-0.4-0.1-0.6
				c0.1-0.2,0.2-0.4,0.5-0.5l0,0c0.6-0.3,1.2-0.5,1.4-1.1c0.1-0.5,0.3-0.9,0.7-0.9l0,0l0,0c1.9,1.8,2.4,4,1.5,6.1
				C-209.1,404.4-209.3,404.5-209.5,404.6C-209.5,404.6-209.5,404.6-209.5,404.6z M-212.3,401.3c0.8,0.9,2.3,2.8,2.6,3.1
				c0.1,0.1,0.2,0.1,0.3,0.1c0,0,0,0,0,0c0.2,0,0.3-0.2,0.4-0.4c0.9-2.1,0.4-4.3-1.5-6c-0.3,0-0.5,0.3-0.6,0.9
				c-0.1,0.6-0.8,0.9-1.4,1.1l0,0c-0.2,0.1-0.4,0.2-0.4,0.4c-0.1,0.2,0,0.5,0.1,0.6c0.1,0.1,0.2,0.2,0.4,0.2c0,0,0,0,0.1,0l0,0
				L-212.3,401.3C-212.4,401.2-212.3,401.2-212.3,401.3C-212.3,401.2-212.3,401.2-212.3,401.3c0.1-0.1,0.1-0.1,0.2-0.2
				c0,0,0.1-0.1,0.1-0.1l0,0l0,0c0-0.1,0-0.2,0-0.3c-0.1-0.1-0.1-0.2-0.2-0.2c0,0,0,0,0,0c-0.1,0-0.2,0.1-0.2,0.1l0,0l0,0
				c0-0.1,0-0.1,0-0.2c0-0.1,0.1-0.3,0.5-0.3c0.9-0.2,1.4-0.7,1.6-1.5l0-0.1l0,0c1.7,2.1,1.3,3.8,0.9,4.7c0,0.1-0.1,0.1-0.1,0.2
				c-0.1,0-0.2,0-0.3-0.1c-0.1-0.1-0.2-0.2-0.5-0.5v0.3h-0.1v-0.4c-0.1-0.1-0.1-0.1-0.2-0.2v0.3h-0.1v-0.4c-0.1-0.1-0.1-0.1-0.2-0.2
				v0.3h-0.1v-0.4c-0.1-0.1-0.1-0.1-0.2-0.2v0.3h-0.1V402c0,0-0.1-0.1-0.1-0.1c0,0-0.1-0.1-0.1-0.1v0.3h-0.1v-0.4
				c-0.1-0.1-0.1-0.1-0.2-0.2v0.3h-0.1v-0.4c-0.1-0.1-0.1-0.1-0.2-0.2v0.3h-0.1v-0.4c0,0-0.1-0.1-0.1-0.1c0,0-0.1,0.1-0.1,0.1
				C-212.2,401.2-212.2,401.3-212.3,401.3z M-210.3,402.8c0.2,0.3,0.4,0.5,0.5,0.5c0.1,0.1,0.2,0.1,0.2,0.1c0,0,0,0,0,0
				c0,0,0.1,0,0.1-0.1c0.3-0.8,0.7-2.5-0.8-4.5V402.8z M-210.6,402.5c0.1,0.1,0.1,0.1,0.2,0.2v-4c0,0,0,0,0,0c0,0.1-0.1,0.3-0.2,0.4
				V402.5z M-210.8,402.2c0.1,0.1,0.1,0.1,0.2,0.2v-3.2c-0.1,0.1-0.1,0.2-0.2,0.3V402.2z M-211.1,402c0.1,0.1,0.1,0.1,0.2,0.2v-2.6
				c-0.1,0.1-0.1,0.1-0.2,0.2V402z M-211.3,401.7c0,0.1,0.1,0.1,0.2,0.2c0,0,0,0,0,0v-2.1c-0.1,0-0.1,0.1-0.2,0.1V401.7z
				 M-211.6,401.4c0.1,0.1,0.1,0.1,0.2,0.2v-1.7c-0.1,0-0.1,0.1-0.2,0.1V401.4z M-211.8,401.2c0.1,0.1,0.1,0.1,0.2,0.2v-1.3
				c-0.1,0-0.1,0-0.2,0.1V401.2z M-212,401C-212,401-211.9,401.1-212,401l0.1-0.9c-0.1,0-0.1,0-0.2,0c-0.3,0.1-0.4,0.2-0.4,0.3
				c0,0,0,0.1,0,0.1c0.1-0.1,0.2-0.1,0.2-0.1c0,0,0,0,0,0c0.1,0,0.2,0.1,0.3,0.2C-211.9,400.8-211.9,400.9-212,401
				C-212,401-212,401-212,401z"/>
		</g>
		<g>
			<path class="st7" d="M-208.3,393.5c0,0.1,0.1,0.3,0,0.5c-0.1,0.2-0.1,0.3,0,0.6c0.2-0.3,0.4-0.2,0.6-0.4c0.2-0.2,0.2-0.3,0.3-0.3
				c-0.1-0.1-0.3-0.2-0.2-0.5c0-0.3,0.4-0.5,0.1-1c-0.2-0.3-0.6-0.2-0.7-0.1c-0.1,0.1-0.1,0.1-0.2,0.2c0,0,0,0.2,0,0.2
				c0,0-0.1,0.1-0.1,0.1c0,0-0.1,0.1,0,0.1c0,0,0,0,0.1,0c0,0,0,0.1-0.1,0.1c0,0,0,0,0,0.1c0,0.1,0,0.1,0,0.2c0,0.1-0.1,0.1,0,0.2
				C-208.5,393.5-208.4,393.5-208.3,393.5L-208.3,393.5z"/>
		</g>
		<g>
			<path d="M-208.2,394.6L-208.2,394.6c-0.1-0.3-0.1-0.4-0.1-0.6c0.1-0.1,0-0.3,0-0.4c0,0,0,0,0,0c-0.1,0-0.2,0-0.3-0.1
				c-0.1-0.1-0.1-0.2-0.1-0.2c0,0,0,0,0-0.1c0,0,0,0,0-0.1c0,0,0-0.1,0-0.1c0,0,0,0,0-0.1c0,0,0,0,0,0c0,0,0-0.1,0-0.1
				c0,0,0-0.1,0-0.1c0,0,0.1-0.1,0.1-0.1c0,0,0-0.1,0-0.1c0,0,0-0.1,0-0.1c0-0.1,0.1-0.1,0.2-0.2c0.2-0.1,0.5-0.2,0.8,0.1
				c0.3,0.3,0.1,0.5,0,0.7c0,0.1-0.1,0.2-0.1,0.3c0,0.2,0.1,0.3,0.2,0.4c0,0,0,0,0,0l0,0l-0.1,0c-0.1,0-0.1,0.1-0.1,0.1
				c0,0.1-0.1,0.1-0.1,0.2c-0.1,0.1-0.2,0.1-0.2,0.1C-208,394.4-208.1,394.4-208.2,394.6L-208.2,394.6z M-208.2,393.5L-208.2,393.5
				c0,0.1,0.1,0.3,0,0.5c-0.1,0.2-0.1,0.3,0,0.5c0.1-0.1,0.2-0.2,0.3-0.2c0.1,0,0.2-0.1,0.2-0.1c0.1-0.1,0.1-0.1,0.1-0.2
				c0-0.1,0.1-0.1,0.1-0.1c-0.1-0.1-0.3-0.2-0.2-0.5c0-0.1,0.1-0.2,0.1-0.3c0.1-0.2,0.2-0.4,0-0.7c-0.2-0.3-0.6-0.2-0.7-0.1
				c-0.1,0.1-0.1,0.1-0.1,0.2c0,0,0,0,0,0.1c0,0.1,0,0.1,0,0.2c0,0.1-0.1,0.1-0.1,0.1c0,0,0,0,0,0c0,0,0,0,0,0c0,0,0,0,0,0
				c0,0,0,0,0,0l0,0l0,0c0,0,0,0.1-0.1,0.1c0,0,0,0,0,0l0,0l0,0c0,0,0,0.1,0,0.1c0,0,0,0.1,0,0.1c0,0.1-0.1,0.1,0,0.2
				C-208.5,393.5-208.3,393.5-208.2,393.5L-208.2,393.5z"/>
		</g>
		<g>
			<path class="st7" d="M-209.7,395c-0.2,0.1-0.5,0-0.8,0c-0.1,0-0.2,0-0.2-0.2c0-0.1,0-0.3,0-0.5c0-0.3,0.1-0.6,0.2-1
				c0.2-0.4,0.2-0.6,0.2-0.8c0-0.1,0-0.3,0.1-0.3c0.1-0.1,0.1-0.1,0.1-0.1c0.1-0.1,0.1-0.1,0.1-0.1c0,0,0,0.1,0,0.1
				c0.1-0.1,0.2-0.1,0.2-0.1s0.2-0.1,0.2,0c0.1,0,0.1,0,0.1,0c0,0,0,0,0,0.1c0,0,0.1,0.1,0,0.1c0,0,0.1,0.1,0,0.1
				c-0.1,0.1-0.2,0.1-0.2,0.2c0,0-0.2,0.2-0.3,0.2c-0.1,0-0.1,0.1-0.1,0.2c0,1.2-0.1,1.1-0.1,1.4c0,0.1,0,0.1,0.1,0.1
				c0.1,0,0.2-0.1,0.3-0.1L-209.7,395L-209.7,395z"/>
		</g>
		<g>
			<path d="M-209.9,395.1c-0.1,0-0.2,0-0.3,0c-0.1,0-0.3,0-0.4,0c-0.1,0-0.1,0-0.2-0.1c0,0-0.1-0.1,0-0.1c0-0.2,0-0.3,0-0.4
				c0-0.3,0.1-0.7,0.3-1c0.2-0.4,0.2-0.6,0.2-0.8c0-0.1,0-0.3,0.1-0.3c0.1,0,0.1-0.1,0.1-0.1c0,0,0,0,0,0c0,0,0.1-0.1,0.1-0.1
				c0,0,0,0,0,0c0,0,0,0,0,0.1c0,0,0,0,0,0c0,0,0.1,0,0.1,0c0,0,0,0,0,0c0.1-0.1,0.2-0.1,0.2-0.1c0,0,0,0,0,0c0,0,0.1,0,0.1,0
				c0,0,0,0,0,0c0,0,0,0.1,0,0.1c0,0,0,0,0,0c0,0,0,0.1,0,0.1c0,0,0,0,0,0c0,0,0,0.1,0,0.1c0,0-0.1,0-0.1,0.1c0,0-0.1,0.1-0.1,0.1
				c0,0.1-0.2,0.2-0.3,0.2c0,0-0.1,0-0.1,0.2c0,0.8-0.1,1-0.1,1.2c0,0.1,0,0.1,0,0.2c0,0,0,0,0,0c0,0,0,0.1,0,0.1c0,0,0,0,0,0l0,0
				c0.1,0,0.2-0.1,0.3-0.1h0v0.7l0,0C-209.8,395.1-209.8,395.1-209.9,395.1z M-210.4,395c0.1,0,0.2,0,0.3,0c0.1,0,0.3,0,0.4,0v-0.6
				c-0.1,0-0.2,0-0.2,0.1l0,0c0,0,0,0-0.1,0c0,0,0-0.1,0-0.1c0,0,0,0,0,0c0-0.1,0-0.2,0-0.2c0-0.1,0.1-0.4,0.1-1.1
				c0-0.1,0-0.2,0.1-0.2c0.1,0,0.2-0.2,0.3-0.2c0,0,0.1-0.1,0.1-0.1c0,0,0.1,0,0.1-0.1c0,0,0,0,0-0.1s0,0,0,0l0-0.1c0,0,0,0,0-0.1
				c0,0,0,0,0,0l-0.1,0l0.1-0.1c0,0,0,0,0,0c0,0,0,0-0.1,0l0,0l0,0c0,0,0,0,0,0c0,0,0,0,0,0c0,0,0,0-0.1,0.1c0,0,0,0,0,0
				c0,0-0.1,0.1-0.2,0.1l0,0c0,0,0-0.1,0-0.1c0,0,0,0-0.1,0.1c0,0,0,0,0,0c0,0,0,0.1-0.1,0.1c-0.1,0.1-0.1,0.2-0.1,0.3
				c0,0.2-0.1,0.4-0.2,0.8c-0.1,0.3-0.3,0.7-0.2,1c0,0.1,0,0.3,0,0.5c0,0,0,0.1,0,0.1c0,0,0.1,0,0.1,0
				C-210.5,395-210.5,395-210.4,395z"/>
		</g>
		<g>
			<path class="st7" d="M-209.7,397.6c0.3-0.2,0.7-0.2,0.9-0.3c0.2-0.1,0.5-0.2,0.7-0.3c0.2-0.1,0.3-0.2,0.4-0.2
				c0.1,0,0.2-0.1,0.2-0.2c0.3-0.6,0.5-1,0.5-1.5c0-0.3-0.1-0.6-0.3-0.4c-0.2,0.2-0.5,0.6-0.6,0.9c-0.1,0.4-0.2,0.5-0.2,0.6
				c0,0.1-0.1,0.1-0.2,0.1c-0.4,0.1-0.5,0.2-0.9,0.4c-0.3,0.3-0.7,0.5-0.9,0.6c-0.2,0.1-0.3,0.2-0.3,0.3c-0.1,0.1-0.1,0.2-0.1,0.2
				c0,0-0.1,0.1,0,0.2c0,0,0,0.3,0,0.4c0,0.1,0,0.1,0,0.1c0,0,0.1,0,0.1-0.1c0,0.1,0.1,0.1,0.1,0c0,0.1,0.1,0,0.1,0
				c0,0.1,0.1,0,0.1,0c0-0.1,0-0.2,0.1-0.2c0-0.1,0.1-0.2,0.2-0.3C-209.8,397.8-209.9,397.7-209.7,397.6L-209.7,397.6z"/>
		</g>
		<g>
			<path d="M-210.6,398.5C-210.6,398.5-210.6,398.5-210.6,398.5c-0.1,0-0.1-0.1-0.1-0.1c0,0,0-0.1,0-0.1c0-0.1,0-0.2,0-0.3
				c0-0.1,0-0.1,0.1-0.2c0,0,0.1-0.1,0.1-0.2c0-0.1,0.1-0.1,0.3-0.2l0.1,0c0.2-0.1,0.6-0.3,0.9-0.6c0.3-0.3,0.4-0.3,0.9-0.4
				c0,0,0,0,0.1,0c0.1,0,0.1,0,0.1-0.1c0,0,0-0.1,0-0.1c0-0.1,0.1-0.2,0.2-0.5c0.1-0.3,0.3-0.7,0.6-0.9c0.1-0.1,0.2-0.1,0.2-0.1
				c0.1,0.1,0.1,0.3,0.1,0.4c0,0.4-0.1,0.8-0.5,1.5c-0.1,0.1-0.2,0.2-0.3,0.2c0,0-0.1,0.1-0.2,0.1c-0.1,0-0.1,0.1-0.2,0.1
				c0,0-0.4,0.2-0.7,0.3c0,0-0.1,0-0.2,0c-0.2,0-0.5,0.1-0.8,0.3v0c-0.1,0.1-0.1,0.1-0.2,0.2c0,0,0,0.1-0.1,0.1
				c-0.1,0.1-0.1,0.1-0.2,0.2l0,0c0,0,0,0.1-0.1,0.2c0,0,0,0,0,0.1c0,0-0.1,0.1-0.1,0.1c0,0,0,0,0,0c0,0-0.1,0.1-0.1,0.1
				c0,0,0,0,0,0c0,0,0,0,0,0C-210.5,398.5-210.5,398.5-210.6,398.5C-210.6,398.5-210.6,398.5-210.6,398.5z M-207.2,394.7
				c0,0-0.1,0-0.1,0.1c-0.2,0.2-0.5,0.6-0.6,0.9c-0.1,0.3-0.1,0.4-0.2,0.5c0,0,0,0.1,0,0.1c0,0.1-0.1,0.1-0.2,0.1c0,0,0,0,0,0
				c-0.4,0.1-0.5,0.2-0.9,0.4c-0.4,0.3-0.7,0.5-0.9,0.6l-0.1,0c-0.2,0.1-0.2,0.1-0.3,0.2c-0.1,0.1-0.1,0.2-0.2,0.3c0,0,0,0.1,0,0.1
				c0,0,0,0.1,0,0.3c0,0,0,0.1,0,0.1c0,0.1,0,0.1,0,0.1c0,0,0,0,0-0.1l0.1,0c0,0,0,0,0,0c0,0,0,0,0,0c0,0,0,0,0,0l0.1,0c0,0,0,0,0,0
				c0,0,0.1,0,0.1-0.1l0.1,0c0,0,0,0,0,0c0,0,0,0,0,0c0,0,0,0,0-0.1c0-0.1,0-0.1,0.1-0.2l0,0c0-0.1,0.1-0.2,0.2-0.3c0,0,0,0,0.1-0.1
				c0-0.1,0.1-0.1,0.2-0.2l0,0c0.3-0.1,0.6-0.2,0.8-0.3c0.1,0,0.1,0,0.1,0c0.2-0.1,0.5-0.2,0.7-0.3c0.1,0,0.1-0.1,0.2-0.1
				c0.1,0,0.1-0.1,0.2-0.1c0.1,0,0.2-0.1,0.2-0.2c0.3-0.6,0.4-1.1,0.4-1.4C-207,394.9-207.1,394.8-207.2,394.7
				C-207.1,394.7-207.2,394.7-207.2,394.7z"/>
		</g>
		<g>
			<path class="st7" d="M-207.3,403.8c0,0.1,0.1,0.2,0.1,0.2c0,0.1,0,0.1,0,0.1c-0.1,0.2-0.2,0.4-0.2,0.6c0,0.1-0.1,0.2-0.1,0.2
				c0,0.1,0,0.1,0,0.1c0,0,0.1,0,0.1-0.1c0,0,0.1,0,0.1,0c0,0,0.1,0,0.1,0c0,0,0.1,0,0.1-0.1c0.1,0,0.1,0,0.1-0.1c0,0,0-0.1,0-0.1
				c0,0,0-0.1,0-0.1c0,0,0-0.1,0.1-0.2c0-0.1,0.1-0.2,0.1-0.3c0-0.1-0.1-0.1-0.1-0.2c-0.1-0.1-0.2-0.2-0.3-0.2
				C-207.1,403.7-207.2,403.8-207.3,403.8L-207.3,403.8z"/>
		</g>
		<g>
			<path d="M-207.4,405.2C-207.4,405.2-207.4,405.2-207.4,405.2c-0.1-0.1-0.2-0.1-0.1-0.2c0,0,0,0,0,0c0,0,0.1-0.1,0.1-0.2
				c0-0.2,0.1-0.4,0.2-0.6c0,0,0,0,0,0c0,0,0,0,0-0.1c0,0,0-0.1,0-0.1c0,0,0-0.1,0-0.1l0,0l0,0c0,0,0,0,0,0c0,0,0.1-0.1,0.2-0.1
				c0,0,0,0,0,0c0.1,0,0.2,0.1,0.3,0.2l0,0c0,0.1,0,0.1,0.1,0.1c0,0,0,0,0,0.1c0,0.1,0,0.2-0.1,0.3c0,0.1-0.1,0.1-0.1,0.2
				c0,0,0,0.1,0,0.1c0,0,0,0.1,0,0.1c0,0.1,0,0.1-0.1,0.1c0,0,0,0-0.1,0c0,0,0,0-0.1,0.1c0,0,0,0,0,0c0,0-0.1,0.1-0.1,0.1
				c0,0,0,0,0,0c0,0,0,0-0.1,0c0,0,0,0-0.1,0C-207.3,405.1-207.3,405.2-207.4,405.2C-207.3,405.2-207.4,405.2-207.4,405.2z
				 M-207.2,403.9c0,0,0,0.1,0,0.1c0,0,0,0.1,0,0.1c0,0.1,0,0.1,0,0.1c0,0,0,0,0,0c-0.1,0.2-0.2,0.4-0.2,0.6c0,0.1,0,0.1-0.1,0.2
				c0,0,0,0,0,0c0,0,0,0.1,0,0.1c0,0,0,0,0.1,0c0,0,0,0,0,0l0-0.1l0,0c0,0,0,0,0,0c0,0,0,0,0,0l0,0l0,0c0,0,0,0,0,0c0,0,0,0,0.1,0
				l0,0l0,0c0,0,0,0,0.1,0l0,0l0,0c0,0,0,0,0,0c0,0,0,0,0-0.1c0,0,0-0.1,0-0.1c0,0,0-0.1,0-0.1c0,0,0-0.1,0.1-0.2
				c0-0.1,0.1-0.2,0.1-0.2c0,0,0-0.1,0-0.1c0,0,0-0.1-0.1-0.1l0,0c-0.1-0.1-0.2-0.2-0.3-0.2c0,0,0,0,0,0
				C-207.1,403.8-207.2,403.8-207.2,403.9C-207.2,403.9-207.2,403.9-207.2,403.9z"/>
		</g>
		<g>
			<path class="st7" d="M-209.4,404.5c0.1,0.1,0.3,0.1,0.5-0.1c-0.1,0-0.2-0.1-0.3-0.1C-209.2,404.4-209.3,404.5-209.4,404.5
				L-209.4,404.5z"/>
		</g>
		<g>
			<path d="M-209.2,404.6c-0.1,0-0.2,0-0.2-0.1l0,0l0,0c0.1,0,0.2-0.1,0.2-0.2l0,0l0,0c0,0,0.2,0.1,0.2,0.1l0,0l0,0
				C-208.9,404.6-209.1,404.6-209.2,404.6C-209.2,404.6-209.2,404.6-209.2,404.6z M-209.3,404.5c0,0,0.1,0,0.1,0c0,0,0,0,0,0
				c0.1,0,0.2,0,0.2-0.1c-0.1,0-0.1-0.1-0.2-0.1C-209.2,404.4-209.3,404.5-209.3,404.5z"/>
		</g>
		<g>
			<path class="st4" d="M-208.3,392.4c0-0.3,0.2-0.3,0.3-0.2c0,0,0.2,0,0.3,0c0.2-0.1,0.4,0,0.4,0.2c0.1,0,0.1,0.2,0.1,0.2
				c0,0.1,0,0.1,0.1,0.1c0.1,0,0.3,0.1,0.1,0.3c0.1,0.1,0.2,0.2,0.1,0.4c-0.1,0.1-0.2,0.1-0.3,0c-0.1,0-0.2,0-0.3,0
				c-0.1,0.1-0.2,0.1-0.2,0c0-0.1-0.1-0.1-0.1-0.1c-0.1,0-0.1-0.2,0-0.2c0,0,0-0.1,0-0.1c0,0,0-0.1,0-0.1c-0.1,0-0.1-0.2,0-0.3
				c-0.1,0-0.3-0.1-0.3-0.1C-208.2,392.3-208.3,392.3-208.3,392.4L-208.3,392.4z"/>
		</g>
		<g>
			<path d="M-208.6,404.5C-208.6,404.5-208.6,404.5-208.6,404.5L-208.6,404.5c0-0.1,0.1-0.1,0.1-0.2c0.1-0.1,0.2-0.9,0.2-1.5l0.1,0
				c0.1,0.6-0.1,1.4-0.2,1.5C-208.5,404.5-208.6,404.5-208.6,404.5z M-208.1,404.5L-208.1,404.5c0-0.1,0-0.3,0-0.5c0,0,0-0.1,0-0.1
				l0.1,0c0,0,0,0.1,0,0.1C-208,404.2-208,404.4-208.1,404.5z M-207.8,404.3L-207.8,404.3c0.1-0.1,0.1-0.3,0.1-0.5c0,0,0-0.1,0-0.1
				c0-0.8-0.2-1.4-0.7-2.3c0-0.1,0-0.1-0.1-0.1c-0.1-0.2-0.2-0.3-0.1-0.5c0-0.1,0-0.3,0-0.5c0-0.1,0-0.3,0-0.4h0.1
				c0,0.1,0,0.2,0,0.4c0,0.2,0,0.3,0,0.5c0,0.2,0,0.3,0.1,0.5c0,0,0,0.1,0.1,0.1c0.5,0.9,0.7,1.5,0.7,2.4c0,0,0,0.1,0,0.1
				C-207.7,404-207.7,404.2-207.8,404.3z M-208.3,404.3L-208.3,404.3c0.1-0.3,0-0.7,0-0.8l0.1,0C-208.2,403.6-208.2,404-208.3,404.3
				z M-206.8,403.9c-0.1-0.1-0.2-0.5-0.4-0.9c-0.1-0.3-0.2-0.7-0.4-0.9l0.1,0c0.1,0.2,0.3,0.6,0.4,0.9
				C-207,403.4-206.9,403.7-206.8,403.9L-206.8,403.9z M-207.9,403.9L-207.9,403.9c0-0.3,0-0.6-0.1-0.9l0.1,0
				C-207.9,403.3-207.9,403.6-207.9,403.9z M-206.9,402.8c0-0.2-0.2-0.5-0.3-0.9c-0.1-0.3-0.2-0.6-0.4-1l0,0l0,0
				c0.5-1.5,0.3-2.5,0-3.3l0.1,0c0.3,0.8,0.5,1.7,0,3.3c0.1,0.4,0.3,0.7,0.4,0.9C-207,402.2-206.9,402.5-206.9,402.8L-206.9,402.8z
				 M-206.7,401.4c-0.1-0.2-0.1-0.6-0.1-1c0-0.6,0-1.3-0.2-1.8c0-0.1-0.1-0.2-0.1-0.2c-0.1-0.2-0.1-0.4-0.2-0.7c0-0.2,0-0.4-0.1-0.4
				c0,0.1,0,0.2,0,0.3l-0.1,0c0-0.2,0-0.4-0.1-0.4c0,0,0,0-0.1,0c0,0,0,0,0,0v0c0,0-0.1,0-0.1,0v0c-0.1,0-0.2,0.1-0.2,0.4
				c0,0.1,0,0.2,0,0.3c0,0.2,0,0.5,0,0.8l-0.1,0c0-0.3,0-0.6,0-0.8c0-0.1,0-0.2,0-0.3c0-0.1,0-0.2,0-0.3c0,0,0,0-0.1,0l0,0
				c0,0,0,0-0.1,0c-0.1,0-0.1,0.1-0.1,0.2l-0.1,0c0-0.1,0-0.2,0-0.2c0,0,0,0,0,0c-0.1,0-0.1,0-0.2,0c0,0,0,0,0,0c0,0,0,0,0,0
				c0,0-0.1,0.1-0.1,0.3l-0.1,0c0-0.1,0-0.2,0.1-0.3l0-0.1c0,0,0,0,0.1,0c0,0,0,0,0,0l0,0c0.1,0,0.2,0,0.2,0c0,0,0,0,0.1,0l0,0
				c0,0,0.1,0,0.1,0c0.1-0.1,0.4-0.1,0.6-0.1l0,0.1c0,0,0,0,0,0c0.1,0.1,0.1,0.2,0.1,0.6c0,0.3,0.1,0.5,0.2,0.7
				c0,0.1,0.1,0.2,0.1,0.2c0.2,0.5,0.2,1.2,0.2,1.8C-206.7,400.8-206.7,401.2-206.7,401.4L-206.7,401.4z M-208.3,399.8L-208.3,399.8
				c0-0.2,0-0.5-0.1-0.8c0-0.1,0-0.2,0-0.2c-0.1,0.4,0,0.5,0,0.6c0,0.1,0,0.1,0,0.2l-0.1,0c0-0.1,0-0.1,0-0.2c0-0.1-0.1-0.3,0-0.7
				c0.1-0.3,0.1-0.5,0-0.5l0.1,0c0,0.1,0,0.2,0,0.4h0c0,0.1,0,0.3,0,0.5C-208.2,399.3-208.2,399.6-208.3,399.8z M-210.5,398.4
				L-210.5,398.4c-0.1,0-0.1-0.1-0.1-0.1c0-0.1,0-0.2,0.1-0.3l0.1,0c-0.1,0.1-0.1,0.2-0.1,0.3C-210.5,398.3-210.5,398.4-210.5,398.4
				z M-208.5,396.4L-208.5,396.4c0.2-0.3,0.1-0.7,0-1.1l0,0c-0.1-0.3,0-0.6,0.2-0.8l0.1,0c-0.1,0.2-0.2,0.5-0.1,0.7l0,0
				C-208.3,395.7-208.2,396.2-208.5,396.4z M-207,393.5c-0.1,0-0.1,0-0.2-0.1c-0.1,0-0.2,0-0.3,0c0,0-0.1,0-0.2,0
				c-0.1,0-0.1,0-0.1-0.1c0,0-0.1-0.1-0.1-0.1c0,0-0.1-0.1-0.1-0.1c0-0.1,0-0.1,0.1-0.1c0,0,0-0.1,0-0.1c0,0,0,0,0,0c0,0,0,0,0-0.1
				c-0.1,0-0.1-0.2-0.1-0.3c-0.1,0-0.3-0.1-0.3-0.1c0,0,0,0,0,0l0,0c0,0,0,0,0,0l-0.1,0c0-0.1,0.1-0.2,0.1-0.2s0.2-0.1,0.3,0
				c0.1,0,0.2,0,0.3,0c0.1,0,0.3,0,0.3,0c0,0,0.1,0.1,0.1,0.2c0.1,0.1,0.1,0.2,0.1,0.3c0,0.1,0,0.1,0.1,0.1c0.1,0,0.2,0.1,0.2,0.1
				c0,0,0,0.1,0,0.1c0.1,0.1,0.2,0.3,0.1,0.4C-206.8,393.4-206.9,393.5-207,393.5C-207,393.5-207,393.5-207,393.5z M-207.1,393.4
				L-207.1,393.4c0,0,0.1,0.1,0.1,0.1c0,0,0,0,0,0c0.1,0,0.1,0,0.1-0.1c0-0.1,0-0.2-0.1-0.3c0,0-0.1,0-0.1,0c-0.1,0-0.2-0.1-0.2-0.3
				c0-0.1-0.1-0.1-0.1-0.1c0,0-0.1,0-0.1-0.1c0-0.1-0.2-0.1-0.3-0.1c0,0.1,0,0.2,0,0.2c0,0,0.1,0.1,0.1,0.1c0,0,0,0,0,0.1
				c0,0,0,0.1,0,0.1l0,0c0,0,0.1,0.1,0.1,0.1l0,0.1c-0.1,0-0.1-0.1-0.2-0.1c0,0,0,0,0,0.1c0,0,0,0.1,0,0.1c0.1,0,0.1,0.1,0.1,0.1
				c0,0,0,0,0.1,0c0,0,0.1,0,0.1,0c0-0.1,0-0.1,0-0.2c0-0.1,0-0.1,0-0.2c0,0-0.1-0.1-0.1-0.1c-0.1,0-0.1-0.1-0.1-0.2l0.1,0
				c0,0.1,0,0.1,0.1,0.2l0,0l0,0c0,0,0.1,0.1,0.2,0.1c0,0,0,0,0,0l0,0.1c0,0-0.1,0-0.1,0c0,0,0,0.1,0,0.1l0,0l0,0c0,0.1,0,0.1,0,0.2
				C-207.4,393.4-207.3,393.4-207.1,393.4c-0.1-0.1-0.1-0.1-0.1-0.2l0.1,0C-207.2,393.3-207.2,393.3-207.1,393.4z M-207.7,392.4
				c0.1,0,0.2,0,0.2,0.1c0,0,0,0.1,0.1,0.1c0,0,0.1,0,0.1,0.1c0.1,0.1,0.1,0.2,0.2,0.2c0,0,0,0,0.1,0c0,0,0-0.1,0-0.1
				c0-0.1-0.1-0.1-0.1-0.1c-0.1,0-0.1-0.1-0.1-0.2c0-0.1,0-0.2-0.1-0.2l0,0c-0.1-0.1-0.2-0.1-0.3-0.1l0-0.1c0.1,0,0.2,0.1,0.3,0.1
				c0-0.1,0-0.1-0.1-0.1c-0.1,0-0.2-0.1-0.3,0c-0.1,0-0.2,0-0.3,0c-0.1,0-0.2,0-0.2,0c0,0-0.1,0.1-0.1,0.1c0,0,0,0,0,0c0,0,0,0,0,0
				c0,0,0.1-0.1,0.1-0.1c0,0,0.2,0,0.3,0.1c0,0,0.1,0,0.2,0l0,0.1C-207.6,392.4-207.8,392.4-207.7,392.4c-0.2-0.2-0.3-0.2-0.4-0.2
				c0,0-0.1,0-0.1,0.1c0,0,0,0,0,0h0c0,0,0,0,0,0c0,0,0.2,0.1,0.3,0.1L-207.7,392.4L-207.7,392.4
				C-207.8,392.4-207.8,392.4-207.7,392.4z"/>
		</g>
		<g>
			<path d="M-208.4,392.6c0.1,0.1,0.1,0.1,0.1,0.1c0,0,0,0.1,0,0.1c0,0,0,0,0,0c0,0-0.1,0-0.1,0c0,0-0.1,0,0,0c0,0,0,0,0,0
				C-208.4,392.7-208.4,392.7-208.4,392.6C-208.4,392.7-208.4,392.7-208.4,392.6C-208.4,392.6-208.4,392.6-208.4,392.6L-208.4,392.6
				z"/>
		</g>
		<g>
			<path d="M-208.3,392.5c0.1,0,0.2,0,0.2,0.1c0,0.1,0,0,0,0c0,0-0.1,0-0.1,0C-208.3,392.6-208.3,392.6-208.3,392.5
				C-208.4,392.5-208.4,392.5-208.3,392.5L-208.3,392.5z"/>
		</g>
	</g>
</g>
</svg>
