<?xml version="1.0" encoding="utf-8"?>
<!-- Generator: Adobe Illustrator 19.0.0, SVG Export Plug-In . SVG Version: 6.00 Build 0)  -->
<svg version="1.1" id="Layer_1" xmlns="http://www.w3.org/2000/svg" xmlns:xlink="http://www.w3.org/1999/xlink" x="0px" y="0px"
	 viewBox="-269 374 72 46" style="enable-background:new -269 374 72 46;" xml:space="preserve">
<style type="text/css">
	.st0{clip-path:url(#SVGID_2_);}
	.st1{fill:#FFFFFF;}
	.st2{fill:#E40520;}
	.st3{fill:#B6BBBE;}
	.st4{fill:#EAEAEA;}
	.st5{fill:#B6BBBE;stroke:#B6BBBE;stroke-width:0.263;}
	.st6{fill:#EAEAEA;stroke:#B6BBBE;stroke-width:0.263;}
</style>
<g>
	<defs>
		<path id="SVGID_1_" d="M-204,420H-262c-3.8,0-7-3.1-7-7V381c0-3.8,3.1-7,7-7h58.1c3.8,0,7,3.1,7,7V413
			C-197,416.9-200.1,420-204,420z"/>
	</defs>
	<clipPath id="SVGID_2_">
		<use xlink:href="#SVGID_1_"  style="overflow:visible;"/>
	</clipPath>
	<g class="st0">
		<g>
			<polygon class="st1" points="-231.9,373 -231.9,422.6 -269.1,422.6 -269.1,373 			"/>
		</g>
		<g>
			<path d="M-231.8,422.7h-37.4v-49.8h37.4V422.7z M-269,422.4h36.9v-49.3H-269V422.4z"/>
		</g>
		<g>
			<polygon class="st2" points="-231.9,422.6 -231.9,373 -194.8,373 -194.8,422.6 			"/>
		</g>
		<g>
			<path d="M-194.6,422.7h-37.4v-49.8h37.4V422.7z M-231.8,422.4h36.9v-49.3h-36.9V422.4z"/>
		</g>
		<g>
			<path class="st2" d="M-257.6,374.5v3.8c0.2,0.1,0.4,0.2,0.6,0.4c0.2,0.2,0.3,0.4,0.4,0.6h3.8v5.2h-3.8c-0.1,0.2-0.2,0.4-0.4,0.6
				c-0.2,0.2-0.4,0.3-0.6,0.4v3.8h-5.2v-3.8c-0.2-0.1-0.4-0.2-0.6-0.4c-0.2-0.2-0.3-0.4-0.4-0.6h-3.8v-5.2h3.8
				c0.1-0.2,0.2-0.4,0.4-0.6c0.2-0.2,0.4-0.3,0.6-0.4v-3.8H-257.6L-257.6,374.5z"/>
		</g>
		<g>
			<polygon class="st3" points="-258,378.7 -258,374.9 -258,374.9 -258,378.7 			"/>
			<rect x="-258.2" y="374.7" class="st3" width="0.3" height="4.1"/>
		</g>
		<g>
			<polygon class="st3" points="-258,385.2 -258,388.9 -258,388.9 -258,385.2 			"/>
			<rect x="-258.2" y="385.1" class="st3" width="0.3" height="4"/>
		</g>
		<g>
			<polygon class="st3" points="-256.9,384.1 -253.1,384.1 -253.1,384.1 -256.9,384.1 			"/>
			<rect x="-257.1" y="383.9" class="st3" width="4.1" height="0.3"/>
		</g>
		<g>
			<polygon class="st3" points="-263.5,384.1 -267.2,384.1 -267.2,384.1 -263.5,384.1 			"/>
			<rect x="-267.4" y="383.9" class="st3" width="4" height="0.3"/>
		</g>
		<g>
			<polygon class="st3" points="-253.1,384.1 -253.1,379.7 -253.2,379.7 -253.2,384.1 			"/>
			<rect x="-253.3" y="379.6" class="st3" width="0.3" height="4.6"/>
		</g>
		<g>
			<polygon class="st3" points="-262.4,389 -258,389 -258,388.9 -262.4,388.9 			"/>
			<rect x="-262.5" y="388.8" class="st3" width="4.7" height="0.3"/>
		</g>
		<g>
			<path class="st4" d="M-253.2,379.7h-3.7c0-0.2-0.1-0.5-0.3-0.8c-0.2-0.2-0.6-0.3-0.8-0.3v-3.7h-4.4v3.7c-0.2,0-0.5,0.1-0.8,0.3
				c-0.2,0.2-0.4,0.6-0.3,0.8h-3.7v4.4h3.7c0,0.2,0.1,0.5,0.3,0.8c0.2,0.2,0.6,0.4,0.8,0.3v3.7h4.4v-3.7c0.2,0,0.5-0.1,0.8-0.3
				c0.2-0.2,0.3-0.6,0.3-0.8h3.7L-253.2,379.7L-253.2,379.7z"/>
			<path class="st3" d="M-257.9,389h-4.6v-3.7c-0.2,0-0.5-0.1-0.7-0.4c-0.2-0.2-0.3-0.5-0.4-0.7h-3.7v-4.6h3.7
				c0-0.2,0.1-0.5,0.4-0.7c0.2-0.2,0.5-0.3,0.7-0.4v-3.7h4.6v3.7c0.2,0,0.5,0.1,0.7,0.4c0.2,0.2,0.3,0.5,0.4,0.8h3.7v4.6h-3.7
				c0,0.2-0.1,0.5-0.4,0.7c-0.2,0.2-0.5,0.3-0.8,0.4V389z M-262.2,388.8h4.1v-3.7l0.1,0c0.2,0,0.5-0.1,0.7-0.3
				c0.2-0.2,0.3-0.5,0.3-0.7l0-0.1h3.7v-4.1h-3.7l0-0.1c0-0.2-0.1-0.5-0.3-0.7c-0.2-0.2-0.5-0.3-0.7-0.3l-0.1,0V375h-4.1v3.7l-0.1,0
				c-0.2,0-0.5,0.1-0.7,0.3c-0.2,0.2-0.3,0.5-0.3,0.7l0,0.1h-3.7v4.1h3.7l0,0.1c0,0.2,0.1,0.5,0.3,0.7c0.2,0.2,0.5,0.3,0.7,0.3
				l0.1,0V388.8z"/>
		</g>
		<g>
			<path d="M-262.8,379.3"/>
		</g>
		<g>
			<path class="st4" d="M-262.8,378.8c0.1,0.2,0.4,0.5,0.6,0.5c0,0.1-0.1,0.2-0.2,0.3c0-0.2-0.4-0.6-0.6-0.7
				c0.1,0.1,0.4,0.6,0.4,0.8c-0.2-0.1-0.6-0.2-0.7-0.3c0-0.1,0-0.2,0-0.2c0.1,0.1,0.2,0.2,0.4,0.2c0-0.1-0.2-0.4-0.3-0.4
				C-263.2,378.9-263,378.8-262.8,378.8L-262.8,378.8z"/>
			<path class="st3" d="M-262.6,379.8c-0.1-0.1-0.6-0.2-0.7-0.3l-0.1-0.1c0-0.1,0-0.2,0-0.2l0.2,0l-0.1-0.2c0.1-0.1,0.3-0.3,0.5-0.4
				l0.1,0.1c0,0.1,0.4,0.4,0.5,0.4l0.1,0.2c0,0.1-0.1,0.2-0.2,0.3l-0.1,0l0,0L-262.6,379.8z"/>
		</g>
		<g>
			<path class="st4" d="M-262.6,378.8c-0.1,0-0.4,0-0.6,0.2c-0.2,0.2-0.2,0.6-0.1,0.7s0.6,0.1,0.7-0.1c0.2-0.2,0.4-0.5,0.2-0.7
				c0,0-0.1-0.1-0.1,0l0.2-0.2c0.2,0.2,0,0.7-0.3,0.9c-0.2,0.2-0.6,0.4-1,0.3c-0.3-0.2,0-0.8,0.2-1c0.2-0.2,0.4-0.3,0.8-0.3v0
				L-262.6,378.8L-262.6,378.8z"/>
			<path class="st3" d="M-263.2,380.1c-0.1,0-0.2,0-0.3,0l0,0c-0.1-0.1-0.1-0.2-0.1-0.3c0-0.3,0.2-0.7,0.4-0.9
				c0.1-0.1,0.4-0.4,0.9-0.4h0.1v0.1l0.1-0.1l0.1,0.1c0.1,0.1,0.2,0.4,0.1,0.6c-0.1,0.2-0.2,0.4-0.4,0.5
				C-262.6,379.9-262.9,380.1-263.2,380.1z M-262.7,378.9c-0.1,0-0.2,0-0.3,0.2c-0.1,0.1-0.1,0.2-0.1,0.4c0,0.1,0,0.1,0.1,0.2
				c0,0,0.1,0.1,0.2,0.1l0,0c0.1,0,0.3-0.1,0.4-0.1c0.1-0.1,0.2-0.3,0.2-0.4c0,0,0-0.1,0-0.1l-0.4,0.1l0.2-0.2L-262.7,378.9
				C-262.6,378.9-262.7,378.9-262.7,378.9z"/>
		</g>
		<g>
			<path class="st3" d="M-263.2,378.9c0.2-0.2,0.4-0.3,0.8-0.3v0l-0.2,0.2C-262.7,378.7-262.9,378.7-263.2,378.9L-263.2,378.9
				L-263.2,378.9z"/>
		</g>
		<g>
			<path d="M-262.8,384.5"/>
		</g>
		<g>
			<path class="st4" d="M-263.3,384.5c0.2-0.1,0.5-0.4,0.5-0.6c0.1,0,0.2,0.1,0.3,0.2c-0.2,0-0.6,0.4-0.7,0.6
				c0.1-0.1,0.6-0.4,0.8-0.4c-0.1,0.2-0.2,0.6-0.3,0.7c-0.1,0-0.2,0-0.2,0c0.1-0.1,0.2-0.2,0.2-0.4c-0.1,0-0.4,0.2-0.4,0.3
				C-263.2,384.9-263.3,384.7-263.3,384.5L-263.3,384.5z"/>
			<path class="st3" d="M-262.7,385.1c-0.1,0-0.2,0-0.2,0l0-0.2l-0.2,0.1c-0.1-0.1-0.3-0.3-0.4-0.5l0.1-0.1c0.1,0,0.4-0.4,0.4-0.5
				l0.2-0.1c0.1,0,0.2,0.1,0.3,0.2l0,0.1l0,0l0.2,0.2c-0.1,0.2-0.2,0.6-0.3,0.7L-262.7,385.1C-262.7,385.1-262.7,385.1-262.7,385.1z
				"/>
		</g>
		<g>
			<path class="st4" d="M-263.3,384.3c0,0.1,0,0.4,0.2,0.6c0.2,0.2,0.6,0.2,0.7,0.1s0.1-0.6-0.1-0.7c-0.2-0.2-0.5-0.4-0.7-0.2
				c0,0-0.1,0.1,0,0.1l-0.2-0.2c0.2-0.2,0.7,0,0.9,0.3c0.2,0.2,0.4,0.6,0.3,1c-0.2,0.3-0.8,0-1-0.2c-0.2-0.2-0.3-0.4-0.3-0.8h0
				L-263.3,384.3L-263.3,384.3z"/>
			<path class="st3" d="M-262.4,385.3c-0.3,0-0.7-0.2-0.8-0.4c-0.1-0.1-0.4-0.4-0.4-0.9v-0.1h0.1l-0.1-0.1l0.1-0.1
				c0.3-0.3,0.7-0.2,1.1,0.3c0.2,0.2,0.4,0.7,0.3,1.1l0,0C-262.2,385.3-262.3,385.3-262.4,385.3
				C-262.4,385.3-262.4,385.3-262.4,385.3z M-263.2,384.3L-263.2,384.3c0,0.1-0.1,0.3,0.1,0.5c0.1,0.1,0.4,0.2,0.6,0.1
				c0.1-0.1,0.1-0.4-0.1-0.6c-0.1-0.1-0.4-0.3-0.5-0.2l0.1,0.4L-263.2,384.3z"/>
		</g>
		<g>
			<path class="st3" d="M-263.2,384.9c-0.2-0.2-0.3-0.4-0.3-0.8h0l0.2,0.2C-263.4,384.4-263.3,384.6-263.2,384.9L-263.2,384.9
				L-263.2,384.9z"/>
		</g>
		<g>
			<path d="M-257.6,384.5"/>
		</g>
		<g>
			<path class="st4" d="M-257.6,385c-0.1-0.2-0.4-0.5-0.6-0.5c0-0.1,0.1-0.2,0.2-0.3c0,0.2,0.4,0.6,0.6,0.7
				c-0.1-0.1-0.4-0.6-0.4-0.8c0.2,0.1,0.6,0.2,0.7,0.3c0,0.1,0,0.2,0,0.2c-0.1-0.1-0.2-0.2-0.4-0.2c0,0.1,0.2,0.4,0.3,0.4
				C-257.2,384.9-257.4,385-257.6,385L-257.6,385z"/>
			<path class="st3" d="M-257.6,385.2l-0.1-0.1c0-0.1-0.4-0.4-0.5-0.4l-0.1-0.2c0-0.1,0.1-0.2,0.2-0.3l0.1,0l0,0l0.2-0.2
				c0.1,0.1,0.6,0.2,0.7,0.3l0.1,0.1c0,0.1,0,0.2,0,0.2l-0.2,0l0.1,0.2C-257.1,384.9-257.3,385.1-257.6,385.2z"/>
		</g>
		<g>
			<path class="st4" d="M-257.8,385c0.1,0,0.4,0,0.6-0.2c0.2-0.2,0.2-0.6,0.1-0.7c-0.2-0.2-0.6-0.1-0.7,0.1
				c-0.2,0.2-0.4,0.5-0.2,0.7c0,0,0.1,0.1,0.1,0l-0.2,0.2c-0.2-0.2,0-0.7,0.3-0.9c0.2-0.2,0.6-0.4,1-0.3c0.3,0.2,0,0.8-0.2,1
				c-0.2,0.2-0.4,0.3-0.8,0.3v0L-257.8,385L-257.8,385z"/>
			<path class="st3" d="M-258,385.3h-0.1v-0.1l-0.1,0.1l-0.1-0.1c-0.1-0.1-0.2-0.4-0.1-0.6c0.1-0.2,0.2-0.4,0.4-0.5
				c0.2-0.2,0.7-0.4,1.1-0.3l0,0c0.1,0.1,0.1,0.2,0.1,0.3c0,0.3-0.2,0.7-0.4,0.9C-257.2,385.1-257.6,385.3-258,385.3z M-257.8,384.9
				L-257.8,384.9c0.1,0,0.3,0,0.5-0.1c0.1-0.1,0.2-0.4,0.1-0.6c-0.1-0.1-0.4-0.1-0.6,0.1c-0.1,0.1-0.2,0.3-0.2,0.4c0,0,0,0.1,0,0.1
				l0.4-0.1L-257.8,384.9z"/>
		</g>
		<g>
			<path class="st3" d="M-257.2,384.9c-0.2,0.2-0.4,0.3-0.8,0.3v0l0.2-0.2C-257.7,385.1-257.5,385-257.2,384.9L-257.2,384.9
				L-257.2,384.9z"/>
		</g>
		<g>
			<path d="M-257.6,379.3"/>
		</g>
		<g>
			<path class="st4" d="M-257.1,379.3c-0.2,0.1-0.5,0.4-0.5,0.6c-0.1,0-0.2-0.1-0.3-0.2c0.2,0,0.6-0.4,0.7-0.6
				c-0.1,0.1-0.6,0.4-0.8,0.4c0.1-0.2,0.2-0.6,0.3-0.7c0.1,0,0.2,0,0.2,0c-0.1,0.1-0.2,0.2-0.2,0.4c0.1,0,0.4-0.2,0.4-0.3
				C-257.2,378.9-257.1,379.1-257.1,379.3L-257.1,379.3z"/>
			<path class="st3" d="M-257.6,380c-0.1,0-0.3-0.2-0.3-0.2l0-0.1l0,0l-0.2-0.2c0.1-0.2,0.2-0.6,0.3-0.7l0.1-0.1c0.1,0,0.2,0,0.2,0
				l0,0.2l0.2-0.1c0.1,0.1,0.3,0.3,0.4,0.5l-0.1,0.1c-0.1,0-0.4,0.4-0.4,0.5L-257.6,380z"/>
		</g>
		<g>
			<path class="st4" d="M-257.1,379.5c0-0.1,0-0.4-0.2-0.6c-0.2-0.2-0.6-0.2-0.7-0.1c-0.2,0.2-0.1,0.6,0.1,0.7
				c0.2,0.2,0.5,0.4,0.7,0.2c0,0,0.1-0.1,0-0.1l0.2,0.2c-0.2,0.2-0.7,0-0.9-0.3c-0.2-0.2-0.4-0.6-0.3-1c0.2-0.3,0.8,0,1,0.2
				c0.2,0.2,0.3,0.4,0.3,0.8h0L-257.1,379.5L-257.1,379.5z"/>
			<path class="st3" d="M-257.3,380.1c-0.1,0-0.2,0-0.2,0c-0.2-0.1-0.4-0.2-0.5-0.4c-0.2-0.2-0.4-0.7-0.3-1.1l0,0
				c0.1-0.1,0.2-0.1,0.3-0.1c0.3,0,0.7,0.2,0.9,0.4c0.1,0.1,0.4,0.4,0.4,0.9v0.1h-0.1l0.1,0.1l-0.1,0.1
				C-257,380.1-257.1,380.1-257.3,380.1z M-257.7,378.9C-257.7,378.9-257.7,378.9-257.7,378.9c-0.1,0-0.1,0-0.2,0.1
				c0,0-0.1,0.1-0.1,0.2c0,0.1,0.1,0.3,0.1,0.4c0.1,0.1,0.4,0.3,0.5,0.2l-0.1-0.4l0.2,0.2l0,0c0,0,0.1-0.2-0.1-0.4
				C-257.4,379-257.6,378.9-257.7,378.9z"/>
		</g>
		<g>
			<path class="st3" d="M-257.2,378.9c0.2,0.2,0.3,0.4,0.3,0.8h0l-0.2-0.2C-257,379.4-257,379.2-257.2,378.9L-257.2,378.9
				L-257.2,378.9z"/>
		</g>
		<g>
			<polygon class="st3" points="-258.2,380 -258.2,375.2 -258.3,375.2 -258.3,380 			"/>
			<rect x="-258.4" y="375" class="st3" width="0.3" height="5.1"/>
		</g>
		<g>
			<polygon class="st3" points="-262.1,383.8 -266.9,383.8 -266.9,383.8 -262.1,383.8 			"/>
			<rect x="-267.1" y="383.7" class="st3" width="5.1" height="0.3"/>
		</g>
		<g>
			<polygon class="st3" points="-253.4,383.8 -253.4,380 -253.5,380 -253.5,383.8 			"/>
			<rect x="-253.6" y="379.9" class="st3" width="0.3" height="4"/>
		</g>
		<g>
			<polygon class="st3" points="-258.2,383.8 -258.2,388.6 -258.3,388.6 -258.3,383.8 			"/>
			<rect x="-258.4" y="383.7" class="st3" width="0.3" height="5.1"/>
		</g>
		<g>
			<polygon class="st3" points="-258.2,383.8 -253.4,383.8 -253.4,383.8 -258.2,383.8 			"/>
			<rect x="-258.4" y="383.7" class="st3" width="5.1" height="0.3"/>
		</g>
		<g>
			<polygon class="st3" points="-262.1,388.7 -258.2,388.7 -258.2,388.6 -262.1,388.6 			"/>
			<rect x="-262.2" y="388.5" class="st3" width="4.1" height="0.3"/>
		</g>
		<g>
			<polygon class="st4" points="-262.1,383.8 -266.9,383.8 -266.9,380 -262.1,380 -262.1,375.2 -258.3,375.2 -258.3,380 -253.5,380 
				-253.5,383.8 -258.3,383.8 -258.3,388.6 -262.1,388.6 			"/>
			<path class="st3" d="M-258.2,388.8h-4v-4.8h-4.8v-4h4.8V375h4v4.8h4.8v4h-4.8V388.8z M-262,388.5h3.5v-4.8h4.8v-3.5h-4.8v-4.8
				h-3.5v4.8h-4.8v3.5h4.8V388.5z"/>
		</g>
		<g>
			<path class="st3" d="M-260.2,385.1c1.8,0,3.2-1.4,3.2-3.2c0-1.8-1.4-3.2-3.2-3.2s-3.2,1.4-3.2,3.2
				C-263.4,383.7-261.9,385.1-260.2,385.1L-260.2,385.1z"/>
			<path class="st3" d="M-260.2,385.3c-1.8,0-3.3-1.5-3.3-3.3c0-1.8,1.5-3.3,3.3-3.3c1.8,0,3.3,1.5,3.3,3.3
				C-256.8,383.8-258.3,385.3-260.2,385.3z M-260.2,378.9c-1.7,0-3.1,1.4-3.1,3.1c0,1.7,1.4,3.1,3.1,3.1c1.7,0,3.1-1.4,3.1-3.1
				C-257.1,380.2-258.5,378.9-260.2,378.9z"/>
		</g>
		<g>
			<path class="st5" d="M-260.2,381.9"/>
		</g>
		<g>
			<path class="st4" d="M-260.2,385.1c1.8,0,3.2-1.4,3.2-3.2c0-1.8-1.4-3.2-3.2-3.2s-3.2,1.4-3.2,3.2
				C-263.4,383.7-262,385.1-260.2,385.1L-260.2,385.1z"/>
			<path class="st3" d="M-260.2,385.2c-1.8,0-3.3-1.5-3.3-3.3c0-1.8,1.5-3.3,3.3-3.3c1.8,0,3.3,1.5,3.3,3.3
				C-256.9,383.7-258.4,385.2-260.2,385.2z M-260.2,378.8c-1.7,0-3.1,1.4-3.1,3.1c0,1.7,1.4,3.1,3.1,3.1c1.7,0,3.1-1.4,3.1-3.1
				C-257.1,380.2-258.5,378.8-260.2,378.8z"/>
		</g>
		<g>
			<path class="st6" d="M-260.2,381.9"/>
		</g>
		<g>
			<path class="st4" d="M-260.2,384.1c1.2,0,2.2-1,2.2-2.2c0-1.2-1-2.2-2.2-2.2s-2.2,1-2.2,2.2
				C-262.4,383.1-261.4,384.1-260.2,384.1L-260.2,384.1z"/>
			<path class="st3" d="M-260.2,384.3c-1.3,0-2.4-1.1-2.4-2.4c0-1.3,1.1-2.4,2.4-2.4s2.4,1.1,2.4,2.4
				C-257.8,383.2-258.9,384.3-260.2,384.3z M-260.2,379.8c-1.2,0-2.1,0.9-2.1,2.1c0,1.2,0.9,2.1,2.1,2.1s2.1-0.9,2.1-2.1
				C-258.1,380.7-259,379.8-260.2,379.8z"/>
		</g>
		<g>
			<path class="st6" d="M-260.2,381.9"/>
		</g>
		<g>
			<path class="st3" d="M-262,383.4L-262,383.4c0,0-0.1-0.1-0.1,0l-0.4,0.3c-0.1,0,0,0.1,0,0.1l0,0l-0.3-0.5l0.2-0.1l0,0
				c-0.1,0.1-0.1,0.2-0.1,0.3c0,0,0,0.1,0.1,0.1c0,0,0,0,0.1,0c0,0,0.2-0.1,0.2-0.1c0,0-0.1-0.1-0.2-0.1l0,0l0.3-0.2l0,0
				c-0.1,0.1-0.1,0.2-0.1,0.2l0.2-0.1c0.1,0,0-0.1,0-0.1l0,0L-262,383.4L-262,383.4z"/>
		</g>
		<g>
			<path class="st3" d="M-262.5,382.3c0-0.1-0.2-0.2-0.4-0.1c-0.2,0-0.3,0.1-0.3,0.2c0,0.1,0.2,0.2,0.4,0.1
				C-262.6,382.5-262.5,382.5-262.5,382.3L-262.5,382.3c0.1,0.2-0.1,0.4-0.3,0.4c-0.2,0-0.4-0.1-0.4-0.3c0-0.2,0.1-0.4,0.3-0.4
				C-262.7,382-262.5,382.1-262.5,382.3L-262.5,382.3L-262.5,382.3z"/>
		</g>
		<g>
			<path class="st3" d="M-262.9,381.5c0-0.2,0-0.2-0.1-0.2c-0.1,0-0.2,0-0.2,0.1c0,0,0,0.1,0,0.1L-262.9,381.5L-262.9,381.5l0.3,0.1
				c0.1,0,0.1,0,0.1-0.1l0,0l-0.1,0.3l0,0c0,0,0-0.1-0.1-0.1l-0.5-0.1c-0.1,0-0.1,0-0.1,0.1l0,0l0.1-0.3c0-0.2,0.1-0.3,0.2-0.3
				c0.1,0,0.1,0.1,0.1,0.2l0.4-0.1c0,0,0,0,0,0l0,0l0,0.2L-262.9,381.5C-262.8,381.5-262.8,381.5-262.9,381.5L-262.9,381.5
				L-262.9,381.5z"/>
		</g>
		<g>
			<path class="st3" d="M-261.9,380.3c-0.1,0.2-0.3,0.2-0.5,0c-0.2-0.2-0.1-0.4,0-0.5c0.1-0.1,0.1-0.1,0.2-0.1c0,0,0-0.1,0-0.1l0,0
				l0.2,0.2l0,0c-0.2-0.1-0.3,0-0.3,0.1c0,0-0.1,0.2,0.1,0.3C-262.1,380.4-262,380.4-261.9,380.3c0-0.1,0-0.1,0-0.1
				s-0.1-0.1-0.1-0.1c0,0-0.1,0-0.1,0l0,0l0.2-0.2l0,0c0,0,0,0.1,0,0.1c0,0,0.1,0.1,0.1,0.1C-261.8,380.2-261.9,380.3-261.9,380.3
				L-261.9,380.3z"/>
		</g>
		<g>
			<path class="st3" d="M-261.4,379.6l0.1-0.1c-0.2-0.2-0.2-0.2-0.2-0.2S-261.5,379.5-261.4,379.6L-261.4,379.6L-261.4,379.6
				L-261.4,379.6c-0.1,0.1-0.1,0.2-0.1,0.2c0,0.1,0.1,0.1,0.1,0.1l0,0l-0.2,0.1l0,0c0,0,0-0.1,0-0.1c0-0.6,0-0.7,0-0.7l0,0
				c0,0,0,0,0.5,0.4c0,0,0.1,0.1,0.1,0l0,0l-0.3,0.2l0,0c0.1,0,0.1-0.1,0-0.1c0,0-0.1-0.1-0.1-0.1L-261.4,379.6L-261.4,379.6
				L-261.4,379.6z"/>
		</g>
		<g>
			<path class="st3" d="M-260.5,378.9L-260.5,378.9c0,0-0.1,0.1-0.1,0.1l0.1,0.5c0,0.1,0,0.1,0.1,0.1c0,0,0.1,0,0.1,0
				c0.1,0,0.2-0.1,0.2-0.2l0,0l0,0.2l-0.6,0.1l0,0c0,0,0.1,0,0.1-0.1l-0.1-0.5c0-0.1-0.1-0.1-0.1-0.1l0,0L-260.5,378.9L-260.5,378.9
				z"/>
		</g>
		<g>
			<path class="st3" d="M-259.5,378.9L-259.5,378.9c-0.1,0-0.1,0-0.1,0.1l-0.1,0.5c0,0.1,0,0.1,0,0.1c0,0,0.1,0,0.1,0
				c0.1,0,0.2,0,0.3-0.1l0,0l-0.1,0.2l-0.6-0.1l0,0c0,0,0.1,0,0.1-0.1l0.1-0.5c0-0.1,0-0.1-0.1-0.1l0,0L-259.5,378.9L-259.5,378.9z"
				/>
		</g>
		<g>
			<path class="st3" d="M-258.8,379.7L-258.8,379.7c0.1-0.2,0.1-0.2,0.1-0.2S-258.7,379.6-258.8,379.7L-258.8,379.7L-258.8,379.7
				l-0.1,0c0,0-0.1,0-0.1,0.1c-0.1,0,0,0.1,0,0.1l0,0l-0.2-0.1l0,0c0,0,0.1,0,0.1,0c0.5-0.4,0.5-0.4,0.5-0.4l0,0c0,0,0,0-0.1,0.6
				c0,0,0,0.1,0,0.1l0,0l-0.3-0.2l0,0c0.1,0,0.1,0,0.1,0c0,0,0-0.1,0-0.1L-258.8,379.7L-258.8,379.7L-258.8,379.7z"/>
		</g>
		<g>
			<path class="st3" d="M-257.9,379.9C-257.9,379.9-257.9,379.9-257.9,379.9L-257.9,379.9l0.1,0.1l-0.1,0.6l0.3-0.2c0,0,0-0.1,0-0.1
				l0,0l0.1,0.2l0,0c0,0-0.1-0.1-0.1,0l-0.5,0.4l0,0l0.2-0.7l-0.4,0.3c0,0,0,0.1,0,0.1l0,0l-0.1-0.2l0,0c0,0,0.1,0.1,0.1,0
				L-257.9,379.9L-257.9,379.9L-257.9,379.9z"/>
		</g>
		<g>
			<path class="st3" d="M-258,381.1L-258,381.1c0,0,0.1,0.1,0.1,0.1l0.5-0.2l0,0c0-0.1-0.1-0.1-0.2-0.1l0,0l0.2-0.1l0.2,0.6
				l-0.2,0.1l0,0c0.1,0,0.1-0.1,0.1-0.2l0,0l-0.5,0.2c-0.1,0-0.1,0.1-0.1,0.1l0,0L-258,381.1L-258,381.1z"/>
		</g>
		<g>
			<path class="st3" d="M-257.5,382c0,0.2,0.1,0.2,0.2,0.2s0.2,0,0.2-0.1c0,0,0-0.1,0-0.1L-257.5,382L-257.5,382l-0.3,0
				c-0.1,0-0.1,0-0.1,0.1l0,0l0-0.3l0,0c0,0,0,0.1,0.1,0.1l0.5,0c0.1,0,0.1,0,0.1-0.1l0,0l0,0.3c0,0.2-0.1,0.3-0.2,0.3
				c-0.1,0-0.1-0.1-0.2-0.2l-0.3,0.2c0,0,0,0,0,0l0,0l0-0.2L-257.5,382C-257.5,382-257.5,382-257.5,382L-257.5,382L-257.5,382z"/>
		</g>
		<g>
			<path class="st3" d="M-258,383c-0.1,0-0.1,0-0.1,0.1l0,0l0.2-0.3l0,0c0,0,0,0.1,0,0.1c0,0,0.2,0.1,0.2,0.1s0.2,0,0.4,0
				c0.1,0,0.1,0,0.1,0l0,0l-0.1,0.3l0,0c0-0.1,0-0.1,0-0.1c-0.1,0-0.3,0-0.3,0l0.1,0.2c0.1,0.1,0.1,0,0.1,0l0,0l-0.1,0.2l0,0
				c0,0,0-0.1,0-0.1l-0.2-0.3C-257.8,383.1-258,383-258,383L-258,383z"/>
		</g>
		<g>
			<path class="st3" d="M-260.4,379.9c0.1-0.1,0.2,0,0.2-0.1c0,0,0.1,0,0.2,0.1c0.1,0,0.2,0,0.2,0c0,0,0.1,0,0.1,0
				c0.1,0.1,0.3,0.2,0.5,0.3c0.2,0.1,0.3,0.3-0.2,0.5c0.2,0.2,0.3,0.4,0.3,0.5c0.2-0.2,0.3-0.2,0.4-0.2c0.1,0.1,0.3,0.2,0.4,0.2
				c0.1,0,0.2,0.1,0.2,0.2s-0.1,0.2-0.2,0.2c-0.1,0-0.1,0-0.1-0.1c0-0.1-0.1-0.1-0.3-0.2c-0.2-0.1-0.2-0.1-0.3,0
				c-0.1,0-0.1,0.1-0.1,0.1c0,0.1,0,0,0.1,0c0.1,0,0.2,0,0.3,0.1s0.2,0.3,0.3,0.4c0.1,0,0.1,0.1,0.1,0.2c-0.1,0.1-0.1,0.1,0,0.2
				c0.1,0.1,0.1,0.1,0,0.2c-0.1,0.1-0.2,0.3-0.3,0.4c0,0.1,0.1,0.1,0,0.2s-0.1,0.2-0.4,0.2c-0.3,0-0.4,0-0.6,0
				c-0.2,0.1-0.6,0-0.8,0.1c-0.1,0.1-0.1-0.1-0.1-0.1c0-0.1-0.1-0.1-0.1-0.1c-0.1,0.1-0.1,0-0.2,0s-0.2,0-0.2,0
				c-0.1,0.1-0.1,0.2,0,0.2c0.4,0.2,0.9,0.3,1.1,0.4c0.1,0,0.1,0.2-0.1,0.1c-0.4-0.1-0.7-0.2-0.9-0.3c-0.1,0-0.2,0.1-0.4,0.1
				c-0.1,0-0.2-0.1,0-0.1c0.2,0,0.3-0.1,0.1-0.1c-0.2-0.1-0.4-0.1-0.7-0.2c-0.1,0,0-0.2,0.1-0.1c0.1,0,0.2,0.1,0.3,0.1
				c0.1,0,0.1,0,0.1-0.1c0-0.1,0.1-0.2,0.2-0.2c0-0.1-0.1-0.2-0.2-0.2c-0.1,0-0.1-0.1-0.1-0.2c0.1-0.2,0.1-0.3,0-0.3
				c-0.1,0-0.3-0.1-0.3-0.3c-0.2-0.2-0.3-0.2-0.3-0.1c0,0.1,0,0.1,0,0.1c0.1,0.1,0.1,0.2,0.1,0.6c0,0.1,0,0.1,0.1,0.1
				c0,0,0,0.2-0.1,0.3c-0.1,0.1-0.1,0-0.1-0.1c0,0,0-0.1-0.1-0.1c-0.1,0-0.1-0.1,0-0.1c0-0.1,0.1-0.1,0-0.2c-0.1,0-0.2-0.1-0.1-0.2
				c0-0.1,0-0.2-0.1-0.3c-0.1-0.1,0-0.2,0-0.3c0.1-0.1,0.3-0.2,0.5,0.2c0.1-0.1,0.2-0.2,0.3-0.3v-0.1c-0.1,0-0.1-0.1-0.2-0.2
				c0-0.1-0.1-0.1-0.2,0c-0.1,0.1-0.2,0.2-0.2,0.2c-0.1,0-0.1-0.1-0.1-0.2c0-0.1-0.1-0.2,0-0.3c0-0.1,0-0.2,0.2-0.3
				c0-0.1,0-0.3,0.2-0.3c0,0,0-0.1,0-0.1c0.1-0.2,0.5-0.4,0.7-0.4c0.1,0,0.1,0.1,0.2,0.1c0.1,0,0.2-0.1,0.3,0
				C-260.5,379.9-260.5,379.9-260.4,379.9L-260.4,379.9z"/>
		</g>
		<g>
			<path class="st4" d="M-261.6,381c0,0,0-0.1,0.1-0.1c0,0,0-0.1-0.1,0c-0.1,0.1-0.2,0.1-0.3,0.2c-0.1,0-0.1,0.1,0,0.1
				C-261.9,381.1-261.8,381-261.6,381C-261.7,381-261.7,381-261.6,381C-261.7,381.1-261.6,381.1-261.6,381L-261.6,381z"/>
		</g>
		<g>
			<path class="st4" d="M-261.7,381.1c-0.1,0.1-0.1,0.1-0.2,0.1s-0.1,0.1-0.1,0.2c0,0.1,0,0.1,0.1,0
				C-261.9,381.3-261.8,381.2-261.7,381.1C-261.6,381.2-261.6,381.1-261.7,381.1L-261.7,381.1z"/>
		</g>
		<g>
			<path class="st4" d="M-261.9,380.8c0.1-0.1,0.3-0.1,0.4-0.2c0.1,0,0.2,0,0,0.1c-0.1,0-0.4,0.2-0.5,0.2
				C-262.1,381-262.1,380.9-261.9,380.8L-261.9,380.8z"/>
		</g>
		<g>
			<path class="st4" d="M-261.9,380.7c0-0.1,0-0.3,0.3-0.3c0.1,0,0.3,0,0.4,0s0,0.1-0.1,0.1C-261.4,380.5-261.8,380.7-261.9,380.7
				L-261.9,380.7z"/>
		</g>
		<g>
			<path class="st4" d="M-261,380.2c0,0-0.1,0.1-0.1,0.1c-0.1,0-0.2,0-0.3,0s-0.2,0-0.3,0c0.1-0.1,0.1-0.1,0.2-0.1
				c0.1,0,0.1,0,0.2,0C-261.1,380.2-261.1,380.1-261,380.2L-261,380.2z"/>
		</g>
		<g>
			<path class="st4" d="M-261.5,380.2c0.2-0.1,0.3-0.2,0.4-0.1c0.1,0.1,0.3,0.1,0.3,0s0.1,0,0.1,0s0.1,0.1-0.1,0c-0.1,0-0.3,0-0.4,0
				s-0.2,0-0.2,0S-261.5,380.2-261.5,380.2L-261.5,380.2z"/>
		</g>
		<g>
			<path class="st4" d="M-261.1,379.9c0.1,0.1,0.3,0.1,0.4,0s0.2,0,0.3,0l-0.1,0.1c-0.1-0.1-0.2-0.1-0.2,0
				C-260.8,380-261,380-261.1,379.9C-261.1,380-261.2,380-261.1,379.9C-261.2,380-261.2,379.9-261.1,379.9L-261.1,379.9z"/>
		</g>
		<g>
			<path class="st4" d="M-261.8,381.8c-0.1-0.2-0.2-0.1-0.3,0s0,0,0,0.1c0,0.1,0,0,0.1,0.1c0,0,0.1,0,0.1,0
				C-261.9,381.9-261.9,381.8-261.8,381.8C-261.8,381.9-261.8,381.8-261.8,381.8L-261.8,381.8z"/>
		</g>
		<g>
			<path class="st4" d="M-262,382C-262,382.1-262,382.1-262,382c-0.1,0.1-0.1,0.1-0.1,0.1s0,0.1,0,0.1s0,0.1,0,0.2
				c0.1,0,0.1,0,0.1,0c0,0,0.1,0,0.1-0.1c0-0.1,0-0.1-0.1-0.1c0,0-0.1,0-0.1,0c0,0,0-0.1,0.1-0.1c0.1,0,0.1,0,0.1-0.1
				C-262,382-262,382-262,382L-262,382z"/>
		</g>
		<g>
			<path class="st4" d="M-260.4,380c0,0,0,0.2,0,0.2c0,0,0,0,0.1,0c0-0.1,0.1,0,0.1-0.1c0,0,0,0,0,0c0,0-0.1,0-0.1,0
				C-260.3,380-260.3,379.9-260.4,380L-260.4,380z"/>
		</g>
		<g>
			<path class="st4" d="M-259.5,380.2C-259.6,380.2-259.6,380.2-259.5,380.2c-0.1,0.1-0.1,0.1-0.1,0.1c0,0,0,0.1,0,0.1
				c0.1,0,0,0,0.1,0c0.1,0,0.2,0,0.2,0c0,0,0,0,0-0.1C-259.4,380.2-259.5,380.2-259.5,380.2L-259.5,380.2z"/>
		</g>
		<g>
			<path class="st4" d="M-260,380.1c0,0.1,0,0.2-0.1,0.3c0,0.1,0,0.3-0.1,0.3c0,0.1-0.1,0.2,0.1,0.2c0.1-0.1,0.3-0.1,0.3-0.1
				c0.1,0,0.1-0.1,0.1-0.2c-0.1,0-0.2-0.1-0.2-0.2c0-0.1,0-0.2,0-0.1c0,0,0.1,0,0.1,0c0-0.1,0-0.1,0.1-0.1c0,0,0-0.1,0-0.1
				c0,0,0,0-0.1,0c0,0-0.1,0-0.1,0C-259.9,380-259.9,380-260,380.1C-259.9,380-260,380-260,380.1L-260,380.1z"/>
		</g>
		<g>
			<path class="st4" d="M-260.5,380.2c0,0-0.2,0.1-0.3,0c-0.1,0-0.1,0-0.2,0.1c0,0.1-0.2,0.3-0.3,0.3c-0.1,0.1-0.2,0.3-0.3,0.4
				c0,0.1,0,0.1,0,0.2c0,0.1,0.1,0.1,0.1,0c0,0,0-0.1,0-0.1c0-0.1,0-0.1,0-0.2c0.1-0.1,0.2-0.2,0.2-0.3c0-0.1,0.1-0.1,0.1-0.1
				c0.1,0,0.1,0,0.1-0.1c0,0,0.1-0.1,0.1,0c0,0,0.1,0.1,0,0.1c0,0,0,0,0,0c0,0-0.1,0-0.1,0.1c0,0,0,0,0,0c0,0,0,0,0.1,0
				c0,0,0,0.1,0,0.1c-0.1,0-0.1,0,0,0.1c0,0,0.1,0.1,0.1,0c0,0,0.1,0,0.1-0.1s0.1,0,0.1,0c0,0,0,0.1,0,0.1c0,0,0,0,0,0
				c0,0-0.1,0-0.1,0c0,0,0,0-0.1,0c0,0,0,0,0,0.1c0,0,0,0,0,0c0,0,0,0,0,0c0,0,0,0,0,0c0,0,0,0,0,0s0,0,0,0c0,0-0.1,0-0.1,0.1
				c0,0.1,0,0.1,0,0.1c0,0,0.1,0,0.1,0c0.1,0,0.2,0,0.3,0c0.1,0,0.1,0.1,0.3,0.1c0.1,0,0.2,0,0.2,0.2c0,0.1,0,0.1,0.1,0.2
				c0.1,0.1,0.1,0.2,0.1,0.2c0,0,0,0.1,0.1,0.1c0,0,0.1,0,0.1,0c0,0,0.1,0,0,0c-0.1-0.1-0.1-0.1-0.2-0.2c0-0.1-0.1-0.2-0.1-0.2
				c0,0,0-0.1,0-0.1c0,0,0,0,0-0.1c0,0,0-0.1-0.1-0.1c-0.1,0-0.2-0.1-0.3-0.1c-0.1,0-0.1,0-0.1-0.1c0,0,0,0,0,0c0,0,0,0,0,0
				c0,0,0,0-0.1,0c0,0-0.1,0-0.1-0.1c0-0.1,0-0.1,0-0.1c-0.1,0-0.1-0.1,0-0.1c0,0,0-0.1,0.1-0.1c0.1,0,0,0,0.1-0.1c0,0,0,0,0,0
				c0,0,0-0.1,0-0.1c0,0,0-0.1,0-0.1c0,0,0-0.1,0-0.1c0,0,0,0,0,0c0,0,0,0,0,0c0,0-0.1,0.1-0.1,0
				C-260.5,380.3-260.5,380.3-260.5,380.2C-260.4,380.3-260.4,380.2-260.5,380.2C-260.4,380.2-260.5,380.2-260.5,380.2L-260.5,380.2
				z"/>
		</g>
		<g>
			<path class="st4" d="M-259.6,381.1c-0.1,0-0.1,0-0.2,0c0,0-0.1-0.1-0.1-0.1c0,0-0.1,0-0.1,0c0-0.1-0.1-0.1-0.1,0
				s-0.1,0.1-0.1,0.1c0,0-0.1,0.1,0,0.1c0.1,0,0.2,0.1,0.2,0.1c0,0,0.1,0,0.1,0c0,0,0-0.1-0.1-0.1c0,0,0-0.1,0,0c0,0,0.1,0,0.1,0
				c0,0,0.2,0,0.3,0.1c0.1,0.1,0.1,0.1,0,0.2c-0.1,0.1-0.2,0.1-0.1,0.2s0.1,0,0.2,0.1c0.1,0.1,0.2,0,0.3,0c0.1,0,0.2,0,0.2,0
				c0.1,0,0.1,0,0.2,0c0.1,0.1,0.1,0.1,0.2,0.1c0.1,0,0.1,0.1,0.1,0.1s0-0.1-0.1-0.1c0,0-0.1-0.1-0.1-0.2c-0.1,0-0.1-0.1-0.2,0
				c-0.1,0-0.2,0-0.3,0c-0.1,0-0.1,0-0.1,0c0,0-0.1,0,0-0.1c0.1-0.1,0.1-0.1,0.1-0.2c0-0.1-0.1-0.4-0.3-0.5c0,0-0.1,0-0.1,0
				c0,0-0.1,0-0.1,0.1c-0.1,0-0.1,0,0,0c0.1,0,0,0,0.1,0.1C-259.6,381-259.5,381-259.6,381.1C-259.5,381.1-259.5,381.1-259.6,381.1
				L-259.6,381.1z"/>
		</g>
		<g>
			<path class="st4" d="M-259.7,381.3c0.1,0,0.1,0,0.1,0c0.1,0,0.1,0.1,0,0.1S-259.6,381.3-259.7,381.3
				C-259.7,381.3-259.8,381.3-259.7,381.3L-259.7,381.3z"/>
		</g>
		<g>
			<path class="st4" d="M-259.1,381.3c0,0,0,0.1,0,0.2c0.2-0.2,0.2-0.2,0.3-0.2c0,0,0.1,0,0.2,0c0.1,0.1,0.2,0.2,0.3,0.2
				c0,0,0.1,0,0.1,0.1c0,0,0.1,0,0.1,0c0-0.1,0-0.1-0.1-0.1c-0.1,0-0.3-0.1-0.4-0.2c-0.1-0.1-0.2-0.2-0.3-0.1
				S-259,381.2-259.1,381.3L-259.1,381.3z"/>
		</g>
		<g>
			<path class="st4" d="M-261.1,380.8c-0.1,0.1-0.2,0.2-0.2,0.2c-0.1,0-0.1,0.1,0,0.2c0,0,0,0.1,0.1,0.1s0,0,0,0.1c0,0,0,0.1,0,0.1
				c0.1,0,0.1-0.1,0.2-0.1c0,0,0.1,0,0.1,0c0,0,0,0,0-0.1s0-0.1,0-0.2c0,0,0-0.1,0-0.2C-261,380.7-261,380.7-261.1,380.8
				L-261.1,380.8z"/>
		</g>
		<g>
			<path class="st4" d="M-261.4,381.4C-261.4,381.4-261.4,381.4-261.4,381.4C-261.3,381.4-261.3,381.3-261.4,381.4
				C-261.3,381.3-261.4,381.4-261.4,381.4L-261.4,381.4z"/>
		</g>
		<g>
			<path class="st4" d="M-261.3,381.4c0,0,0,0.1,0,0.1c0,0,0.1,0.1,0.1,0.1c0.1,0,0.1,0,0.2,0.1s0.1,0,0-0.1
				C-261,381.6-261.2,381.5-261.3,381.4C-261.3,381.4-261.3,381.4-261.3,381.4L-261.3,381.4z"/>
		</g>
		<g>
			<path class="st4" d="M-261,381.4c0.1-0.1,0.1-0.1,0.2,0c0.1,0,0.4,0.1,0.5,0.1c0.1,0,0.2,0,0.3,0.1c0,0.1,0.1,0.2,0.1,0.2
				c0,0,0,0.1,0,0.1c0,0,0,0.1-0.1,0c-0.1,0-0.3,0-0.3,0c-0.1,0-0.1,0-0.2,0s-0.1-0.1-0.1,0c0,0.1,0,0.1,0.1,0.2
				c0.1,0,0.1,0.1,0,0.2c-0.1,0.1-0.2,0.3-0.3,0.3c-0.1,0.1-0.1,0.2,0,0.3c0.1,0.1,0.3,0.2,0.3,0.3c0,0,0.1,0,0.1,0.1
				c0,0,0,0.1,0,0.1s-0.1,0-0.1,0c0,0-0.1,0-0.1,0c0,0-0.1,0-0.1-0.1c0,0-0.2-0.2-0.3-0.3c-0.1,0-0.2-0.1-0.1-0.2
				c0.1-0.1,0.1-0.2,0.1-0.2c0,0,0-0.1,0-0.1c0,0,0-0.1-0.1-0.1c-0.1,0-0.2,0-0.2-0.1c0-0.1-0.1-0.1-0.2-0.1c0-0.1,0.1-0.3,0.2-0.4
				c0.1,0.1,0.2,0.2,0.4,0.2c0.1,0.1,0.2,0,0.1-0.1C-260.9,381.6-261,381.5-261,381.4L-261,381.4z"/>
		</g>
		<g>
			<path class="st4" d="M-260.6,382.7c0,0-0.1,0-0.1,0c0,0-0.1-0.1-0.1-0.1c0,0-0.1,0,0,0.1c0.1,0,0.1,0.1,0.1,0.1
				C-260.7,382.8-260.6,382.7-260.6,382.7L-260.6,382.7z"/>
		</g>
		<g>
			<path class="st4" d="M-260.5,382.2c0,0-0.1,0.1-0.1,0.1s-0.1,0.1-0.1,0.2c0,0.1,0,0.1,0.1,0.1c0.2,0,0.5,0,0.5,0s0.2,0,0.1,0
				c-0.1-0.1-0.3-0.1-0.4-0.1s-0.1,0-0.1,0s0-0.1,0-0.1C-260.4,382.3-260.4,382.3-260.5,382.2C-260.4,382.2-260.5,382.2-260.5,382.2
				L-260.5,382.2z"/>
		</g>
		<g>
			<path class="st4" d="M-260.9,383.1c-0.2,0-0.2,0.1-0.2,0.2l0.1,0C-261,383.3-261,383.2-260.9,383.1
				C-260.8,383.1-260.9,383.1-260.9,383.1L-260.9,383.1z"/>
		</g>
		<g>
			<path class="st4" d="M-258.8,381.9c-0.1-0.1-0.1-0.1-0.2-0.1c-0.1,0-0.2,0-0.2,0c0,0-0.1,0.1-0.2,0.1c-0.1,0-0.1,0,0,0.1
				c0.1,0.1,0.2,0.1,0,0.2c0.1,0,0.1,0.1,0.2,0.2c0.1-0.1,0.2-0.2,0.1-0.3c0-0.1-0.1-0.1-0.1-0.1c0,0,0-0.1,0,0
				C-259,382-258.9,382-258.8,381.9C-258.8,382-258.8,381.9-258.8,381.9L-258.8,381.9z"/>
		</g>
		<g>
			<path class="st4" d="M-258.7,382c0,0,0,0.1,0,0.1c0,0,0,0,0,0.1c0,0,0.1,0,0.1,0C-258.6,382-258.6,382-258.7,382L-258.7,382z"/>
		</g>
		<g>
			<path class="st4" d="M-258.4,382.1c0.1,0.1,0.1,0.2,0.1,0.2c0,0.1,0,0-0.1,0c-0.1,0-0.2,0-0.2,0.1c0,0.1-0.1,0.1-0.1,0
				c0,0-0.1,0-0.1,0c0,0-0.1,0-0.1,0c0,0.1,0,0.1,0.1,0.1c0,0,0.1,0,0.1,0c0,0,0.1,0,0.1,0.1c0,0.1,0,0.1,0,0.2c0,0,0.1,0,0.1,0
				c0,0,0.1-0.1,0.1-0.1c0,0,0-0.1,0-0.1c0,0-0.1,0-0.1,0c0,0,0,0,0-0.1c0-0.1,0.1-0.1,0.1-0.1c0,0,0.1,0,0.1,0c0,0,0,0,0,0
				c0,0,0,0.1,0.1,0.1c0,0,0.1-0.1,0.1-0.1c0,0,0,0,0.1,0s0,0.1-0.1,0.2c-0.1,0.1-0.2,0.2-0.3,0.3c-0.1,0-0.1,0-0.1,0
				c0,0-0.1,0-0.1,0c0,0,0,0.1,0,0.1c-0.2,0-0.5,0.1-0.6,0c-0.1,0-0.4,0-0.4,0c0-0.1,0-0.1,0-0.2c0,0-0.1,0-0.1,0.1
				c0,0,0,0.1-0.1,0.1c-0.1,0-0.2,0-0.2,0.1c0,0.1,0,0,0,0c0,0,0.1,0,0.2,0c0.1,0,0.3,0.1,0.1,0.1c-0.2,0-0.3,0-0.4,0.1
				c-0.1,0-0.1,0-0.1,0c0-0.1,0-0.1,0.1-0.1c0,0,0-0.1,0-0.1c0,0,0,0-0.1,0c-0.1,0-0.2,0-0.2-0.2c0,0-0.1,0-0.1,0s-0.1,0-0.1-0.1
				c0.1-0.1,0.3-0.2,0.4-0.1c0.2,0.1,0.2,0,0.4,0.1c0.1,0.1,0.4,0.1,0.5,0.1c0.1,0,0.2-0.1,0-0.2c0,0-0.1,0-0.2-0.1c0,0,0-0.1,0-0.1
				c0.1,0,0.2,0.1,0.2,0.1c0-0.1,0-0.1,0.1,0c0,0,0.1,0,0.1,0c0-0.1-0.1-0.2,0-0.2c0.1,0,0.1-0.1,0.2-0.1s0.2,0.1,0.2,0
				c0-0.1,0-0.2,0.1-0.2C-258.5,382.2-258.5,382.1-258.4,382.1C-258.5,382.1-258.5,382.1-258.4,382.1L-258.4,382.1z"/>
		</g>
		<g>
			<path class="st4" d="M-259.2,382.4c0-0.1-0.3-0.2-0.6-0.2c-0.2,0-0.2,0-0.2,0c0,0,0,0.1,0,0.1c0,0,0,0,0.1,0c0.1,0,0.2,0,0.3,0
				c0.1,0,0.1,0,0.1,0c0,0,0.1,0,0.1,0.1s0,0,0,0.1C-259.4,382.4-259.2,382.5-259.2,382.4L-259.2,382.4z"/>
		</g>
		<g>
			<path class="st4" d="M-259.7,382.4C-259.7,382.4-259.8,382.4-259.7,382.4C-259.7,382.4-259.7,382.4-259.7,382.4
				C-259.6,382.4-259.6,382.4-259.7,382.4L-259.7,382.4z"/>
		</g>
		<g>
			<path class="st4" d="M-259.5,382.5c0,0,0.2,0,0.2,0.1c0.1,0,0,0.1,0,0C-259.4,382.6-259.5,382.5-259.5,382.5
				C-259.6,382.5-259.6,382.5-259.5,382.5C-259.6,382.5-259.5,382.5-259.5,382.5L-259.5,382.5z"/>
		</g>
		<g>
			<path class="st4" d="M-260.4,382.4c0-0.1,0.1-0.2,0.1-0.3c0.1,0,0.4-0.1,0.5-0.1c0,0,0,0.1,0,0.1c-0.3,0-0.4,0-0.5,0.1
				c0,0.1,0,0.1,0,0.1c0.1,0,0.1,0,0.1,0.1c0,0.1,0.1,0.1,0.2,0c0,0,0.1,0.1,0.1,0.1c0,0,0.1,0,0.1,0c0.1,0,0.1,0.1,0.1,0.1
				c0,0,0,0.1,0,0s0.1,0,0,0c0,0-0.1,0.1-0.2,0c-0.1-0.1-0.3-0.2-0.5-0.2C-260.3,382.5-260.4,382.5-260.4,382.4L-260.4,382.4z"/>
		</g>
		<g>
			<path class="st4" d="M-258.5,383.1c-0.1,0-0.1,0-0.2,0c0,0,0,0.1-0.1,0.1c0,0,0,0,0.1,0C-258.6,383.2-258.6,383.2-258.5,383.1
				C-258.5,383.1-258.5,383.1-258.5,383.1L-258.5,383.1z"/>
		</g>
		<g>
			<path class="st4" d="M-261.9,382.8c0,0.1,0,0.1,0,0.1c0,0,0,0.1,0.1,0.1c0,0,0-0.1,0-0.1C-261.8,382.8-261.8,382.8-261.9,382.8
				C-261.9,382.7-261.9,382.7-261.9,382.8L-261.9,382.8z"/>
		</g>
		<g>
			<path class="st3" d="M-260,380.5c0,0,0,0.2,0,0.2c0,0,0.1,0,0.1,0C-259.9,380.6-259.9,380.6-260,380.5
				C-260,380.5-260,380.5-260,380.5L-260,380.5z"/>
		</g>
		<g>
			<path class="st3" d="M-261,382.3c0,0,0,0.1,0,0.1c0,0,0.1,0,0.1,0C-260.9,382.4-260.9,382.4-261,382.3
				C-260.9,382.3-260.9,382.3-261,382.3L-261,382.3z"/>
		</g>
		<g>
			<path class="st3" d="M-260.6,382.2c0-0.1,0-0.2-0.1-0.2c-0.1,0-0.1,0-0.1,0.1C-260.7,382.1-260.7,382.1-260.6,382.2
				C-260.7,382.2-260.6,382.2-260.6,382.2L-260.6,382.2z"/>
		</g>
		<g>
			<path class="st6" d="M-260.2,384.6"/>
		</g>
		<g>
			<path class="st4" d="M-258.8,384c-0.3,0-0.3,0.4,0,0.4C-258.5,384.4-258.5,384-258.8,384L-258.8,384z"/>
			<path class="st3" d="M-258.8,384.5c-0.2,0-0.3-0.1-0.3-0.3s0.1-0.3,0.3-0.3c0.2,0,0.3,0.2,0.3,0.3c0,0.1,0,0.2-0.1,0.2
				C-258.6,384.5-258.7,384.5-258.8,384.5z"/>
		</g>
		<g>
			<path class="st4" d="M-261.6,384c0.3,0,0.3,0.4,0,0.4C-261.9,384.4-261.9,384-261.6,384L-261.6,384z"/>
			<path class="st3" d="M-261.6,384.5c-0.2,0-0.3-0.2-0.3-0.3c0-0.1,0-0.2,0.1-0.2c0.1-0.1,0.1-0.1,0.2-0.1c0.2,0,0.3,0.1,0.3,0.3
				S-261.4,384.5-261.6,384.5z"/>
		</g>
		<g>
			<path class="st4" d="M-260.4,384.5c-0.1-0.3,0.4-0.3,0.3,0c0.3-0.1,0.3,0.4,0,0.3c0.1,0.3-0.4,0.3-0.3,0
				C-260.7,384.9-260.7,384.3-260.4,384.5L-260.4,384.5z"/>
			<path class="st3" d="M-260.2,385.1c-0.1,0-0.1,0-0.2-0.1c-0.1,0-0.1-0.1-0.1-0.2c-0.1,0-0.1,0-0.2-0.1c-0.1-0.1-0.1-0.3,0-0.4
				c0-0.1,0.1-0.1,0.2-0.1c0-0.1,0-0.1,0.1-0.2c0.1-0.1,0.3-0.1,0.4,0c0.1,0,0.1,0.1,0.1,0.2c0.1,0,0.1,0,0.2,0.1
				c0.1,0.1,0.1,0.3,0,0.4c0,0.1-0.1,0.1-0.2,0.1c0,0.1,0,0.1-0.1,0.2C-260.1,385.1-260.1,385.1-260.2,385.1z"/>
		</g>
	</g>
</g>
</svg>
