<?xml version="1.0" encoding="utf-8"?>
<!-- Generator: Adobe Illustrator 19.0.0, SVG Export Plug-In . SVG Version: 6.00 Build 0)  -->
<svg version="1.1" id="Layer_1" xmlns="http://www.w3.org/2000/svg" xmlns:xlink="http://www.w3.org/1999/xlink" x="0px" y="0px"
	 viewBox="-269 374 72 46" style="enable-background:new -269 374 72 46;" xml:space="preserve">
<style type="text/css">
	.st0{clip-path:url(#SVGID_2_);}
	.st1{fill:#E95123;}
	.st2{fill:#FFED00;}
	.st3{fill:#0072BB;}
	.st4{fill:#009E59;}
</style>
<g>
	<defs>
		<path id="SVGID_1_" d="M-204,420H-262c-3.8,0-7-3.1-7-7V381c0-3.8,3.1-7,7-7h58.1c3.8,0,7,3.1,7,7V413
			C-197,416.9-200.1,420-204,420z"/>
	</defs>
	<clipPath id="SVGID_2_">
		<use xlink:href="#SVGID_1_"  style="overflow:visible;"/>
	</clipPath>
	<g class="st0">
		<g>
			<polygon class="st1" points="-195.1,383.3 -270.9,383.3 -270.9,370 -195.1,370 			"/>
		</g>
		<g>
			<path d="M-195,383.4H-271v-13.5h76.1V383.4z M-270.8,383.1h75.6v-13h-75.6V383.1z"/>
		</g>
		<g>
			<polygon class="st2" points="-195.1,409.7 -270.9,409.7 -270.9,396.5 -195.1,396.5 			"/>
		</g>
		<g>
			<path d="M-195,409.9H-271v-13.5h76.1V409.9z M-270.8,409.6h75.6v-13h-75.6V409.6z"/>
		</g>
		<g>
			<polygon class="st3" points="-195.1,396.5 -270.9,396.5 -270.9,383.3 -195.1,383.3 			"/>
		</g>
		<g>
			<path d="M-195,396.6H-271v-13.5h76.1V396.6z M-270.8,396.4h75.6v-13h-75.6V396.4z"/>
		</g>
		<g>
			<polygon class="st4" points="-195.1,409.7 -270.9,409.7 -270.9,423 -195.1,423 			"/>
		</g>
		<g>
			<path d="M-195,423.1H-271v-13.5h76.1V423.1z M-270.8,422.9h75.6v-13h-75.6V422.9z"/>
		</g>
	</g>
</g>
</svg>
