<?xml version="1.0" encoding="utf-8"?>
<!-- Generator: Adobe Illustrator 19.0.0, SVG Export Plug-In . SVG Version: 6.00 Build 0)  -->
<svg version="1.1" id="Layer_1" xmlns="http://www.w3.org/2000/svg" xmlns:xlink="http://www.w3.org/1999/xlink" x="0px" y="0px"
	 viewBox="-269 374 72 46" style="enable-background:new -269 374 72 46;" xml:space="preserve">
<style type="text/css">
	.st0{clip-path:url(#SVGID_2_);}
	.st1{fill:#D32E3F;}
	.st2{fill:#007876;}
	.st3{fill:#FFFFFF;}
</style>
<g>
	<defs>
		<path id="SVGID_1_" d="M-204,420H-262c-3.8,0-7-3.1-7-7V381c0-3.8,3.1-7,7-7h58.1c3.8,0,7,3.1,7,7V413
			C-197,416.9-200.1,420-204,420z"/>
	</defs>
	<clipPath id="SVGID_2_">
		<use xlink:href="#SVGID_1_"  style="overflow:visible;"/>
	</clipPath>
	<g class="st0">
		<g>
			<polygon class="st1" points="-195.1,421.8 -195.1,371.2 -270.9,371.2 -270.9,421.8 			"/>
		</g>
		<g>
			<path d="M-194.9,421.9h-76.1v-50.8h76.1V421.9z M-270.8,421.7h75.6v-50.3h-75.6V421.7z"/>
		</g>
		<g>
			<polygon class="st2" points="-207.7,409.1 -207.7,383.9 -258.3,383.9 -258.3,409.1 			"/>
		</g>
		<g>
			<path d="M-207.6,409.2h-50.7v-25.4h50.7V409.2z M-258.2,409.1h50.5v-25.2h-50.5V409.1z"/>
		</g>
		<g>
			<path class="st3" d="M-235.1,396.5c0,4.1,2.9,7.5,6.8,8.3c-0.5,0.1-1,0.1-1.6,0.1c-4.7,0-8.4-3.8-8.4-8.4c0-4.7,3.8-8.4,8.4-8.4
				c0.5,0,1.1,0.1,1.6,0.1C-232.2,389-235.1,392.4-235.1,396.5L-235.1,396.5z"/>
		</g>
	</g>
</g>
</svg>
