<?xml version="1.0" encoding="utf-8"?>
<!-- Generator: Adobe Illustrator 19.0.0, SVG Export Plug-In . SVG Version: 6.00 Build 0)  -->
<svg version="1.1" id="Layer_1" xmlns="http://www.w3.org/2000/svg" xmlns:xlink="http://www.w3.org/1999/xlink" x="0px" y="0px"
	 viewBox="-269 374 72 46" style="enable-background:new -269 374 72 46;" xml:space="preserve">
<style type="text/css">
	.st0{clip-path:url(#SVGID_2_);}
	.st1{fill:#E40520;}
	.st2{fill:#00904A;}
</style>
<g>
	<defs>
		<path id="SVGID_1_" d="M-204,420H-262c-3.8,0-7-3.1-7-7V381c0-3.8,3.1-7,7-7h58.1c3.8,0,7,3.1,7,7V413
			C-197,416.9-200.1,420-204,420z"/>
	</defs>
	<clipPath id="SVGID_2_">
		<use xlink:href="#SVGID_1_"  style="overflow:visible;"/>
	</clipPath>
	<g class="st0">
		<g>
			<polygon class="st1" points="-196.1,405.8 -269.9,405.8 -269.9,389.4 -196.1,389.4 			"/>
		</g>
		<g>
			<path d="M-196,405.9H-270v-16.7h74.1V405.9z M-269.8,405.7h73.6v-16.2h-73.6V405.7z"/>
		</g>
		<g>
			<polygon points="-269.9,389.4 -196.1,389.4 -196.1,373 -269.9,373 			"/>
		</g>
		<g>
			<path d="M-196,389.5H-270v-16.7h74.1V389.5z M-269.8,389.3h73.6v-16.2h-73.6V389.3z"/>
		</g>
		<g>
			<polygon class="st2" points="-196.1,422.2 -269.9,422.2 -269.9,405.8 -196.1,405.8 			"/>
		</g>
		<g>
			<path d="M-196,422.3H-270v-16.7h74.1V422.3z M-269.8,422.1h73.6v-16.2h-73.6V422.1z"/>
		</g>
		<g>
			<path class="st1" d="M-233,379.8c0-1-1-5.4,0-5.4S-233,378.9-233,379.8L-233,379.8z"/>
		</g>
		<g>
			<path class="st1" d="M-234,379.9c-0.1-1-1.5-5.3-0.5-5.4C-233.5,374.4-234.1,378.9-234,379.9L-234,379.9z"/>
		</g>
		<g>
			<path class="st1" d="M-235,380c-0.2-1-2-5.2-0.9-5.4C-234.9,374.5-235.2,379.1-235,380L-235,380z"/>
		</g>
		<g>
			<path class="st1" d="M-236,380.2c-0.3-0.9-2.4-5-1.4-5.3C-236.4,374.7-236.2,379.3-236,380.2L-236,380.2z"/>
		</g>
		<g>
			<path class="st1" d="M-236.9,380.5c-0.3-0.9-2.8-4.8-1.9-5.1C-237.8,375.1-237.3,379.6-236.9,380.5L-236.9,380.5z"/>
		</g>
		<g>
			<path class="st1" d="M-237.9,380.9c-0.4-0.9-3.2-4.5-2.3-4.9C-239.2,375.6-238.3,380-237.9,380.9L-237.9,380.9z"/>
		</g>
		<g>
			<path class="st1" d="M-238.7,381.4c-0.5-0.9-3.6-4.2-2.7-4.7C-240.6,376.2-239.2,380.5-238.7,381.4L-238.7,381.4z"/>
		</g>
		<g>
			<path class="st1" d="M-239.6,381.9c-0.6-0.8-4-3.9-3.1-4.5C-241.9,376.9-240.2,381.1-239.6,381.9L-239.6,381.9z"/>
		</g>
		<g>
			<path class="st1" d="M-240.4,382.5c-0.6-0.8-4.3-3.5-3.5-4.2S-241,381.8-240.4,382.5L-240.4,382.5z"/>
		</g>
		<g>
			<path class="st1" d="M-241.1,383.2c-0.7-0.7-4.6-3.1-3.8-3.9C-244.2,378.6-241.8,382.5-241.1,383.2L-241.1,383.2z"/>
		</g>
		<g>
			<path class="st1" d="M-241.8,384c-0.8-0.6-4.8-2.7-4.2-3.5C-245.3,379.7-242.5,383.3-241.8,384L-241.8,384z"/>
		</g>
		<g>
			<path class="st1" d="M-242.4,384.7c-0.8-0.6-5-2.3-4.5-3.1C-246.3,380.8-243.2,384.2-242.4,384.7L-242.4,384.7z"/>
		</g>
		<g>
			<path class="st1" d="M-242.9,385.6c-0.9-0.5-5.2-1.8-4.7-2.7C-247.1,382-243.8,385.1-242.9,385.6L-242.9,385.6z"/>
		</g>
		<g>
			<path class="st1" d="M-243.4,386.5c-0.9-0.4-5.4-1.4-4.9-2.3C-247.9,383.2-244.3,386.1-243.4,386.5L-243.4,386.5z"/>
		</g>
		<g>
			<path class="st1" d="M-243.8,387.4c-0.9-0.3-5.5-0.9-5.1-1.9C-248.5,384.6-244.7,387.1-243.8,387.4L-243.8,387.4z"/>
		</g>
		<g>
			<path class="st1" d="M-246.6,388c-1.4-0.2-2.9-0.5-2.8-1.1c0.2-0.8,2.8,0.4,4.3,1.1H-246.6L-246.6,388z"/>
		</g>
		<g>
			<path class="st1" d="M-222.2,387.4c0.9-0.3,4.8-2.8,5.1-1.9C-216.8,386.5-221.3,387-222.2,387.4L-222.2,387.4z"/>
		</g>
		<g>
			<path class="st1" d="M-222.6,386.4c0.9-0.4,4.5-3.2,4.9-2.3C-217.3,385.1-221.7,386-222.6,386.4L-222.6,386.4z"/>
		</g>
		<g>
			<path class="st1" d="M-223.1,385.6c0.9-0.5,4.2-3.6,4.7-2.7C-217.9,383.7-222.2,385.1-223.1,385.6L-223.1,385.6z"/>
		</g>
		<g>
			<path class="st1" d="M-223.6,384.7c0.8-0.6,3.9-4,4.5-3.1C-218.6,382.4-222.8,384.1-223.6,384.7L-223.6,384.7z"/>
		</g>
		<g>
			<path class="st1" d="M-224.2,383.9c0.8-0.6,3.5-4.3,4.2-3.5C-219.4,381.2-223.5,383.3-224.2,383.9L-224.2,383.9z"/>
		</g>
		<g>
			<path class="st1" d="M-224.9,383.2c0.7-0.7,3.1-4.6,3.9-3.8C-220.3,380.1-224.2,382.5-224.9,383.2L-224.9,383.2z"/>
		</g>
		<g>
			<path class="st1" d="M-225.7,382.5c0.6-0.8,2.7-4.8,3.5-4.2C-221.4,379-225,381.8-225.7,382.5L-225.7,382.5z"/>
		</g>
		<g>
			<path class="st1" d="M-226.4,381.9c0.6-0.8,2.3-5,3.1-4.5C-222.5,378-225.9,381.1-226.4,381.9L-226.4,381.9z"/>
		</g>
		<g>
			<path class="st1" d="M-227.3,381.4c0.5-0.9,1.8-5.2,2.7-4.7C-223.7,377.2-226.8,380.5-227.3,381.4L-227.3,381.4z"/>
		</g>
		<g>
			<path class="st1" d="M-228.2,380.9c0.4-0.9,1.4-5.4,2.3-4.9C-224.9,376.4-227.8,380-228.2,380.9L-228.2,380.9z"/>
		</g>
		<g>
			<path class="st1" d="M-229.1,380.5c0.3-0.9,0.9-5.5,1.9-5.1C-226.3,375.8-228.8,379.6-229.1,380.5L-229.1,380.5z"/>
		</g>
		<g>
			<path class="st1" d="M-230.1,380.2c0.3-0.9,0.4-5.5,1.4-5.3C-227.7,375.2-229.8,379.3-230.1,380.2L-230.1,380.2z"/>
		</g>
		<g>
			<path class="st1" d="M-231,380c0.2-1-0.1-5.5,0.9-5.4C-229.1,374.8-230.9,379-231,380L-231,380z"/>
		</g>
		<g>
			<path class="st1" d="M-232,379.9c0.1-1-0.5-5.5,0.5-5.4C-230.5,374.5-231.9,378.9-232,379.9L-232,379.9z"/>
		</g>
		<g>
			<path class="st1" d="M-219.4,388c1.4-0.2,2.9-0.5,2.8-1.1c-0.2-0.8-2.8,0.4-4.3,1.1H-219.4L-219.4,388z"/>
		</g>
		<g>
			<path class="st1" d="M-222.5,388c-1.4-4.5-5.6-7.7-10.6-7.7c-4.9,0-9.1,3.2-10.6,7.7H-222.5L-222.5,388z"/>
		</g>
	</g>
</g>
</svg>
