<?xml version="1.0" encoding="utf-8"?>
<!-- Generator: Adobe Illustrator 19.0.0, SVG Export Plug-In . SVG Version: 6.00 Build 0)  -->
<svg version="1.1" id="Layer_1" xmlns="http://www.w3.org/2000/svg" xmlns:xlink="http://www.w3.org/1999/xlink" x="0px" y="0px"
	 viewBox="-269 374 72 46" style="enable-background:new -269 374 72 46;" xml:space="preserve">
<style type="text/css">
	.st0{clip-path:url(#SVGID_2_);}
	.st1{fill:#FFFFFF;}
	.st2{fill:#E9511D;}
	.st3{fill:#002A5A;}
	.st4{fill:#FFE000;}
</style>
<g>
	<defs>
		<path id="SVGID_1_" d="M-204,420H-262c-3.8,0-7-3.1-7-7V381c0-3.8,3.1-7,7-7h58.1c3.8,0,7,3.1,7,7V413
			C-197,416.9-200.1,420-204,420z"/>
	</defs>
	<clipPath id="SVGID_2_">
		<use xlink:href="#SVGID_1_"  style="overflow:visible;"/>
	</clipPath>
	<g class="st0">
		<g>
			<polygon class="st1" points="-177.6,421.7 -177.6,373.3 -274.4,373.3 -274.4,421.7 			"/>
		</g>
		<g>
			<path d="M-177.5,421.8h-97v-48.6h97V421.8z M-274.3,421.6h96.5v-48.1h-96.5V421.6z"/>
		</g>
		<g>
			<polygon class="st2" points="-177.6,376.8 -274.4,376.8 -274.4,373.3 -177.6,373.3 			"/>
		</g>
		<g>
			<path d="M-177.5,376.9h-97v-3.7h97V376.9z M-274.3,376.6h96.5v-3.2h-96.5V376.6z"/>
		</g>
		<g>
			<polygon class="st2" points="-177.6,383.7 -274.4,383.7 -274.4,380.2 -177.6,380.2 			"/>
		</g>
		<g>
			<path d="M-177.5,383.8h-97v-3.7h97V383.8z M-274.3,383.6h96.5v-3.2h-96.5V383.6z"/>
		</g>
		<g>
			<polygon class="st2" points="-177.6,390.6 -274.4,390.6 -274.4,387.1 -177.6,387.1 			"/>
		</g>
		<g>
			<path d="M-177.5,390.7h-97V387h97V390.7z M-274.3,390.5h96.5v-3.2h-96.5V390.5z"/>
		</g>
		<g>
			<polygon class="st2" points="-177.6,397.5 -274.4,397.5 -274.4,394 -177.6,394 			"/>
		</g>
		<g>
			<path d="M-177.5,397.6h-97v-3.7h97V397.6z M-274.3,397.4h96.5v-3.2h-96.5V397.4z"/>
		</g>
		<g>
			<polygon class="st2" points="-177.6,404.4 -274.4,404.4 -274.4,401 -177.6,401 			"/>
		</g>
		<g>
			<path d="M-177.5,404.5h-97v-3.7h97V404.5z M-274.3,404.3h96.5v-3.2h-96.5V404.3z"/>
		</g>
		<g>
			<polygon class="st2" points="-177.6,411.3 -274.4,411.3 -274.4,407.9 -177.6,407.9 			"/>
		</g>
		<g>
			<path d="M-177.5,411.4h-97v-3.7h97V411.4z M-274.3,411.2h96.5V408h-96.5V411.2z"/>
		</g>
		<g>
			<polygon class="st2" points="-177.6,418.2 -274.4,418.2 -274.4,414.8 -177.6,414.8 			"/>
		</g>
		<g>
			<path d="M-177.5,418.4h-97v-3.7h97V418.4z M-274.3,418.1h96.5v-3.2h-96.5V418.1z"/>
		</g>
		<g>
			<polygon class="st3" points="-226.2,401 -226.2,373.3 -274.4,373.3 -274.4,401 			"/>
		</g>
		<g>
			<path d="M-226,401.1h-48.5v-27.9h48.5V401.1z M-274.3,400.9h48v-27.4h-48V400.9z"/>
		</g>
		<g>
			<polygon class="st4" points="-243.2,395.9 -242.4,390.5 -239.4,395.1 -241,389.9 -236.3,392.6 -240.1,388.7 -234.6,389.1 
				-239.7,387.2 -234.7,385.2 -240.1,385.7 -236.3,381.7 -241,384.5 -239.4,379.3 -242.4,383.8 -243.2,378.4 -244,383.8 -247,379.3 
				-245.3,384.5 -250,381.7 -246.3,385.7 -251.7,385.2 -246.6,387.2 -251.7,389.1 -246.3,388.7 -250,392.6 -245.3,389.9 -247,395.1 
				-244,390.5 			"/>
		</g>
		<g>
			<path class="st4" d="M-248.7,378.6c-1-0.4-2.2-0.6-3.3-0.6c-5.1,0-9.2,4.1-9.2,9.2c0,5.1,4.1,9.2,9.2,9.2c1.1,0,2.3-0.2,3.3-0.6
				c-1.7,1.2-3.7,1.8-5.9,1.8c-5.7,0-10.4-4.7-10.4-10.4c0-5.7,4.7-10.4,10.4-10.4C-252.4,376.8-250.4,377.4-248.7,378.6
				L-248.7,378.6z"/>
		</g>
	</g>
</g>
</svg>
