<?xml version="1.0" encoding="utf-8"?>
<!-- Generator: Adobe Illustrator 19.0.0, SVG Export Plug-In . SVG Version: 6.00 Build 0)  -->
<svg version="1.1" id="Layer_1" xmlns="http://www.w3.org/2000/svg" xmlns:xlink="http://www.w3.org/1999/xlink" x="0px" y="0px"
	 viewBox="-269 374 72 46" style="enable-background:new -269 374 72 46;" xml:space="preserve">
<style type="text/css">
	.st0{clip-path:url(#SVGID_2_);}
	.st1{fill:#FFFFFF;}
	.st2{fill:#007876;}
	.st3{fill:#FFED00;}
	.st4{fill:#E40520;}
</style>
<g>
	<defs>
		<path id="SVGID_1_" d="M-204,420H-262c-3.8,0-7-3.1-7-7V381c0-3.8,3.1-7,7-7h58.1c3.8,0,7,3.1,7,7V413
			C-197,416.9-200.1,420-204,420z"/>
	</defs>
	<clipPath id="SVGID_2_">
		<use xlink:href="#SVGID_1_"  style="overflow:visible;"/>
	</clipPath>
	<g class="st0">
		<g>
			<polygon class="st1" points="-195,390.4 -271,390.4 -271,387 -195,387 			"/>
		</g>
		<g>
			<path d="M-194.9,390.5h-76.3v-3.6h76.3V390.5z M-270.9,390.2h75.8v-3.1h-75.8V390.2z"/>
		</g>
		<g>
			<polygon class="st1" points="-271,407.3 -195,407.3 -195,403.9 -271,403.9 			"/>
		</g>
		<g>
			<path d="M-194.9,407.5h-76.3v-3.6h76.3V407.5z M-270.9,407.2h75.8v-3.1h-75.8V407.2z"/>
		</g>
		<g>
			<polygon class="st2" points="-195,387 -271,387 -271,373.4 -195,373.4 			"/>
		</g>
		<g>
			<path d="M-194.9,387.1h-76.3v-13.8h76.3V387.1z M-270.9,386.9h75.8v-13.3h-75.8V386.9z"/>
		</g>
		<g>
			<polygon points="-271,403.9 -195,403.9 -195,390.4 -271,390.4 			"/>
		</g>
		<g>
			<path d="M-194.9,404.1h-76.3v-13.8h76.3V404.1z M-270.9,403.8h75.8v-13.3h-75.8V403.8z"/>
		</g>
		<g>
			<polygon class="st3" points="-271,420.9 -195,420.9 -195,407.3 -271,407.3 			"/>
		</g>
		<g>
			<path d="M-194.9,421h-76.3v-13.8h76.3V421z M-270.9,420.8h75.8v-13.3h-75.8V420.8z"/>
		</g>
		<g>
			<polygon class="st4" points="-237,397.2 -271,373.4 -271,420.9 			"/>
		</g>
		<g>
			<path d="M-270.9,421l-0.2-0.1v-47.5l0.2-0.1l34.1,23.9l-0.1,0.1L-270.9,421z M-270.9,373.6v47l33.6-23.5L-270.9,373.6z"/>
		</g>
		<g>
			<polygon class="st3" points="-258.5,388.6 -260.6,395 -267.3,395 -261.8,399 -264,405.4 -258.5,401.4 -253,405.4 -255.1,398.9 
				-249.7,395 -256.4,395 			"/>
		</g>
		<g>
			<path d="M-264.1,405.6l2.2-6.5l-5.6-4.1h6.9l2.1-6.5l0.1,0.2l2.1,6.4h6.9l-5.6,4l2.1,6.6l-5.6-4.1L-264.1,405.6z M-258.5,401.4
				L-258.5,401.4l5.3,3.9l-2-6.3l0,0l5.3-3.8h-6.6l0,0l-2-6.3l-2,6.3h-6.6l5.4,3.9l-2.1,6.3L-258.5,401.4z"/>
		</g>
		<g>
			<path class="st1" d="M-258.5,396c-1.1-0.2-2.1-0.3-3.3,0.2l-0.4,0.5l-1.3,4.3h4.2c0.1,0.2,0.6,0.4,0.9,0.4c0.3,0,0.7-0.1,0.9-0.4
				h4.2l-1.3-4.3l-0.4-0.5C-256.3,395.7-257.4,395.8-258.5,396L-258.5,396z"/>
		</g>
		<g>
			<path d="M-258.5,401.4c-0.3,0-0.7-0.1-0.9-0.4h-4.3l0-0.1l1.3-4.3l0.5-0.5c1-0.4,2.1-0.4,3.3-0.2c1.2-0.3,2.3-0.2,3.3,0.2l0,0
				l0.4,0.5l1.3,4.3h-4.3C-257.7,401.2-258.2,401.4-258.5,401.4z M-259.3,400.9c0.1,0.2,0.5,0.3,0.8,0.3c0.3,0,0.7-0.1,0.8-0.3
				c-0.2-0.2-0.5-0.5-0.8-0.5C-258.7,400.4-259.1,400.7-259.3,400.9z M-257.6,400.8h3.9c-0.3-0.2-0.6-0.6-0.7-0.8
				c-1.1-0.3-3.1-0.1-3.9,0.3C-258,400.4-257.7,400.6-257.6,400.8z M-263.3,400.8h3.9c0.1-0.2,0.4-0.4,0.7-0.5
				c-0.8-0.4-2.8-0.6-3.9-0.3C-262.7,400.3-263,400.6-263.3,400.8z M-254.3,400c0.1,0.2,0.4,0.6,0.8,0.8l-1.3-4.1l-0.3-0.3
				L-254.3,400z M-262.2,396.7l-1.3,4.1c0.3-0.2,0.7-0.6,0.8-0.8l0.8-3.6L-262.2,396.7z M-258.4,396.1v4.2c0.8-0.4,2.8-0.6,4-0.3
				l-0.8-3.7C-256.2,395.9-257.2,395.8-258.4,396.1z M-261.2,399.8c1,0,2.2,0.2,2.7,0.5v-4.2c-1.2-0.3-2.2-0.2-3.2,0.2l-0.8,3.7
				C-262.2,399.8-261.7,399.8-261.2,399.8z"/>
		</g>
		<g>
			<path d="M-256.1,394.8l-0.4-0.4l-0.7,0.6c0.1,0.2-0.2,0.4-0.4,0.6c-0.2,0.2-1.5,1.3-1.5,1.3c-0.2-0.2-0.4-0.5-0.4-0.6l-0.1,0.1
				c0,0.1,0.1,0.2,0.3,0.5l-0.6,0.5c0.5,0.5,1.5,0.8,2.5,0.8l0,1c-1.4,0-2.5-0.4-3.1-1.1l-0.2,0.2c0,0.1,0.2,0.3,0.3,0.5l-0.7,0.7
				c0,0.2,0.1,0.5,0.2,0.8c0.1,0.3,0.1,0.3-0.1,0.5c-0.2,0.2-0.3,0.1-0.4-0.1c-0.1-0.2-0.1-0.3-0.1-0.6c0-0.3-0.4-0.3-0.5-0.5
				l0.6-0.5l0.4,0l0.4-0.3l-0.2-0.3l-0.3,0.3c0.1,0.1,0.2,0.2,0.2,0.2c-0.1,0-0.3,0-0.3-0.1l-1,0.9c0,0-0.1,0.2-0.2,0.4
				c-0.4,0.5-1.2,1.6-1.9,2.3c-0.1,0.1-0.2,0.1-0.2,0c-0.3-0.3-0.6-0.6-0.8-0.9c-0.1-0.1-0.1-0.2-0.1-0.2c0.8-0.7,1-0.9,1.2-1.1
				c0.2-0.2,0.4-0.2,0.7-0.3c0.5-0.4,0.5-0.5,0.8-0.8c0,0,0.1,0,0.1,0l1.5-1.4l0.2,0.1l0.2-0.3l1.1-1l-0.1-0.1l-1.2,1l-0.2-0.1
				l-0.1,0.1l0.1,0.1l-1.5,1.4c-0.1,0.1-0.1-0.1-0.1-0.2c0-0.1,0-0.3,0-0.4c0.1,0,0.1,0,0.2-0.1l2.4-2c0,0,0-0.1,0.1-0.2
				c0.1-0.1,0.7-0.6,0.8-0.7c0,0,0,0.2,0.1,0.4c0.1,0.1,0.3,0.2,0.3,0.2l1.2-1.1l-0.1-0.1l-1.1,1c0,0-0.2,0-0.3-0.1
				c-0.1-0.1-0.1-0.2-0.1-0.2l1.3-1.2c0,0.1,0.1,0.2,0.2,0.4l0.1,0c-0.1-0.1-0.2-0.2-0.1-0.3l1-0.8l0.6,0l0.8-0.7c0-0.1,0-0.3,0-0.4
				c0-0.1,0-0.3,0.1-0.1c0.1,0.1,0.2,0.2,0.2,0.2l0.1,0l0.1,0.1c0,0,0.2-0.2,0.3-0.2c0.1-0.1,0.3,0.2,0.2,0.2
				c-0.1,0.1-0.1,0.1-0.1,0.1l0.1,0.1l2.9-2.1c0.2-0.1,0.4-0.2,0.1,0.1l-2.7,2.5c-0.1,0.1-0.2,0.1-0.3,0L-256.1,394.8L-256.1,394.8z
				"/>
		</g>
		<g>
			<path d="M-260.9,393.5c0.1,0.1,0.2,0.1,0.5,0c0.9,1,2.9,3.3,7.6,8.6c0.2,0.2,0.5-0.2,0.4-0.4c-4.7-5.3-6.7-7.6-7.6-8.6
				c0.1-0.1,0.1-0.3,0-0.4c-0.2-0.2-0.3-0.4-0.5-0.6c-0.2-0.2-0.2-0.3-0.5-0.4c-0.3-0.1-0.4,0-0.5,0.1s-0.2,0.3-0.2,0.4
				c0,0.1-0.1,0.2-0.1,0.2c-0.1,0.1-0.2,0.1-0.5,0c-0.3-0.1-0.4-0.2-0.8,0.4c-0.8,1.1-1.1,1.6-1.9,2.7l1.3,1.4
				c1.1-1.4,1.4-1.9,2.3-3c0.1-0.2,0.1-0.3,0.1-0.4c0-0.1,0-0.2,0-0.3c0-0.2,0-0.2,0.1-0.3c0.2,0,0.6-0.2,0.6-0.4
				c0,0.2-0.3,0.5-0.6,0.5C-261.2,393.2-261,393.4-260.9,393.5L-260.9,393.5z"/>
		</g>
	</g>
</g>
</svg>
