<?xml version="1.0" encoding="utf-8"?>
<!-- Generator: Adobe Illustrator 19.0.0, SVG Export Plug-In . SVG Version: 6.00 Build 0)  -->
<svg version="1.1" id="Layer_1" xmlns="http://www.w3.org/2000/svg" xmlns:xlink="http://www.w3.org/1999/xlink" x="0px" y="0px"
	 viewBox="-269 374 72 46" style="enable-background:new -269 374 72 46;" xml:space="preserve">
<style type="text/css">
	.st0{clip-path:url(#SVGID_2_);}
	.st1{fill:#008E5B;}
	.st2{fill:#0062AE;}
	.st3{fill:#FBB907;}
	.st4{fill:#FFFFFF;}
	.st5{fill:#CA0538;}
</style>
<g>
	<defs>
		<path id="SVGID_1_" d="M-204,420H-262c-3.8,0-7-3.1-7-7V381c0-3.8,3.1-7,7-7h58.1c3.8,0,7,3.1,7,7V413
			C-197,416.9-200.1,420-204,420z"/>
	</defs>
	<clipPath id="SVGID_2_">
		<use xlink:href="#SVGID_1_"  style="overflow:visible;"/>
	</clipPath>
	<g class="st0">
		<g>
			<polygon class="st1" points="-272.9,424 -193.1,424 -193.1,370.8 			"/>
		</g>
		<g>
			<path d="M-193.1,424.1h-79.8l-0.1-0.2l79.8-53.2l0.2,0.1V424L-193.1,424.1z M-272.5,423.9h79.3V371L-272.5,423.9z"/>
		</g>
		<g>
			<polygon class="st2" points="-193.1,370.8 -272.9,370.8 -272.9,424 			"/>
		</g>
		<g>
			<path d="M-272.8,424.1l-0.2-0.1v-53.2l0.1-0.1h79.8l0.1,0.2L-272.8,424.1z M-272.8,370.9v52.9l79.3-52.9H-272.8z"/>
		</g>
		<g>
			<polygon class="st3" points="-257.2,396 -255.7,392.4 -252.7,394.7 -253.2,390.9 -249.4,391.5 -251.7,388.4 -248.2,387 
				-251.7,385.5 -249.4,382.5 -253.2,383 -252.7,379.2 -255.7,381.5 -257.2,378 -258.6,381.5 -261.6,379.2 -261.1,383 -264.9,382.5 
				-262.6,385.5 -266.2,387 -262.6,388.4 -264.9,391.5 -261.1,390.9 -261.6,394.7 -258.6,392.4 			"/>
			<path class="st2" d="M-257.2,396L-257.2,396l-1.4-3.6l-3.1,2.4l0-0.1l0.5-3.8l-3.8,0.5l2.4-3.1l-3.6-1.5l0.1,0l3.5-1.4l-2.4-3.1
				l0.1,0l3.8,0.5l-0.5-3.8l0.1,0l3,2.4l1.4-3.6l0,0.1l1.4,3.6l3.1-2.4l0,0.1l-0.5,3.8l3.8-0.5l-2.4,3.1l3.6,1.5l-0.1,0l-3.5,1.4
				l2.4,3.1l-0.1,0l-3.8-0.5l0.5,3.8l-0.1,0l-3-2.4L-257.2,396z M-258.6,392.3L-258.6,392.3l1.4,3.6l1.4-3.6l0,0l3,2.3l-0.5-3.8l0,0
				l3.7,0.5l-2.3-3l0,0l3.5-1.4l-3.5-1.4l0,0l2.3-3l-3.8,0.5l0,0l0.5-3.7l-3,2.4l0,0l-1.4-3.5l-1.4,3.6l-3-2.4l0.5,3.8l0,0l-3.7-0.5
				l2.3,3l0,0l-3.5,1.4l3.5,1.4l0,0l-2.3,3l3.8-0.5l0,0l-0.5,3.7L-258.6,392.3z"/>
		</g>
		<g>
			<path class="st2" d="M-257.2,393.2c-3.4,0-6.2-2.8-6.2-6.2s2.8-6.2,6.2-6.2s6.2,2.8,6.2,6.2S-253.7,393.2-257.2,393.2z
				 M-257.2,383.2c-2.1,0-3.7,1.7-3.7,3.7s1.7,3.7,3.7,3.7c2.1,0,3.7-1.7,3.7-3.7S-255.1,383.2-257.2,383.2z"/>
		</g>
		<g>
			<polygon class="st4" points="-193.1,381.4 -257,424 -272.9,424 -272.9,413.4 -209,370.8 -193.1,370.8 			"/>
		</g>
		<g>
			<path d="M-256.9,424.1H-273v-10.8l64-42.7h16.1v10.8L-256.9,424.1z M-272.8,423.9h15.8l63.8-42.5v-10.4H-209l-63.8,42.5V423.9z"
				/>
		</g>
		<g>
			<polygon class="st5" points="-193.1,377.9 -262.2,424 -272.9,424 -272.9,416.9 -203.8,370.8 -193.1,370.8 			"/>
		</g>
		<g>
			<path d="M-262.2,424.1H-273v-7.3l69.2-46.1h10.9v7.3L-262.2,424.1z M-272.8,423.9h10.5l69.1-46v-6.9h-10.5l-69,46V423.9z"/>
		</g>
	</g>
</g>
</svg>
