<?xml version="1.0" encoding="utf-8"?>
<!-- Generator: Adobe Illustrator 19.0.0, SVG Export Plug-In . SVG Version: 6.00 Build 0)  -->
<svg version="1.1" id="Layer_1" xmlns="http://www.w3.org/2000/svg" xmlns:xlink="http://www.w3.org/1999/xlink" x="0px" y="0px"
	 viewBox="-269 374 72 46" style="enable-background:new -269 374 72 46;" xml:space="preserve">
<style type="text/css">
	.st0{clip-path:url(#SVGID_2_);}
	.st1{fill:#0033A0;}
	.st2{fill:#F7323F;}
	.st3{fill:#009944;}
	.st4{fill:#F9DE0B;}
	.st5{fill:#1D1D1B;}
</style>
<g>
	<defs>
		<path id="SVGID_1_" d="M-204,420H-262c-3.8,0-7-3.1-7-7V381c0-3.8,3.1-7,7-7h58.1c3.8,0,7,3.1,7,7V413
			C-197,416.9-200.1,420-204,420z"/>
	</defs>
	<clipPath id="SVGID_2_">
		<use xlink:href="#SVGID_1_"  style="overflow:visible;"/>
	</clipPath>
	<g class="st0">
		<polygon class="st1" points="-269.4,373.5 -176.1,373.5 -176.1,389.1 -269.4,389.1 		"/>
		<polygon class="st2" points="-269.4,389.1 -176.1,389.1 -176.1,404.7 -269.4,404.7 		"/>
		<polygon class="st3" points="-269.4,404.7 -176.1,404.7 -176.1,420.3 -269.4,420.3 		"/>
		<path class="st4" d="M-238.2,381.3c8.6,0,15.6,7,15.6,15.6c0,8.6-7,15.6-15.6,15.6c-8.6,0-15.6-7-15.6-15.6
			C-253.8,388.3-246.8,381.3-238.2,381.3L-238.2,381.3z"/>
		<path class="st5" d="M-241.6,406c0.3-2.5,1.3-4.1,3.5-4c1.6,0.1,2.6,1.7,3.1,3.6c0.1-1.4-0.2-4.5-2.2-4.5h-2.2
			C-241.4,401.1-241.7,404.6-241.6,406L-241.6,406L-241.6,406z M-239.3,397.4h2c0.8,0,1.4,0.6,1.4,1.4l0,0c0,0.8-0.6,1.4-1.4,1.4h-2
			c-0.8,0-1.4-0.6-1.4-1.4l0,0C-240.7,398-240.1,397.4-239.3,397.4L-239.3,397.4z M-233,411.6c-1.6,0.6-3.3,0.9-5.1,0.9
			c-1.8,0-3.6-0.3-5.2-0.9c0.7-2.2,2.8-3.7,5.2-3.7C-235.8,407.9-233.8,409.5-233,411.6L-233,411.6z M-237.3,407.5l-1.8-0.1
			c0,0,0-0.2-0.2-0.6c-0.1-0.2-0.3-0.6-0.6-0.9c-0.5-0.6-0.7-2.3-0.1-3.1c1.1-1.3,4.1-0.7,3.9,1.3c0,0.5-0.2,1.4-1.1,2.4
			C-237.4,406.9-237.3,407.1-237.3,407.5L-237.3,407.5z M-241.5,391.6c0.3,0.2,0.7,1.1,1.3,2.8c0.5,1.4,2.4,1.2,3.1,1
			c0.4-0.1,0.5-0.3,0.7-0.7c0.2-0.4,0.3-0.8,0.5-1.7c0.3-1.3,0.8-1.5,1.1-1.5c0.2,0,0.1,0.1,0,0.2c-0.1,0-0.1,0.1-0.2,0.2
			c-0.2,0.3-0.5,1.3-0.6,2.7c0,1.6-1.1,1.6-1.3,1.6c-0.2,0-2,0-2.8,0c-0.3,0-0.4-0.1-0.6-0.2c-0.3-0.2-0.7-0.8-0.8-1.8
			c-0.1-1.2-0.4-2.1-0.6-2.4C-241.7,391.7-241.7,391.5-241.5,391.6L-241.5,391.6z M-241.1,396.8h0.5v-0.2h4.7v0.2h0.5v0.2h-0.5v0.2
			h-4.7V397h-0.5V396.8L-241.1,396.8z M-240.6,400.4h4.7v0.4h-4.7V400.4L-240.6,400.4z M-238.4,381.7h0.4v3.5
			c0.6-0.2,1.1-0.5,1.4-0.8c0,0.8-0.6,1.7-1.4,2.4v3.6c1.5,0.7,2.2,2.9,1,4.2c-0.7,0.7-2,0.7-2.6-0.3c-0.6-1-0.6-2.8,1.2-3.8v-3.3
			c-0.6,0.5-1.3,0.9-1.9,1.1l0-1.4c0,0,0-0.8,1.1-1.2c0.3-0.1,0.6-0.2,0.8-0.3L-238.4,381.7L-238.4,381.7z"/>
	</g>
</g>
</svg>
