<?xml version="1.0" encoding="utf-8"?>
<!-- Generator: Adobe Illustrator 19.0.0, SVG Export Plug-In . SVG Version: 6.00 Build 0)  -->
<svg version="1.1" id="Layer_1" xmlns="http://www.w3.org/2000/svg" xmlns:xlink="http://www.w3.org/1999/xlink" x="0px" y="0px"
	 viewBox="-269 374 72 46" style="enable-background:new -269 374 72 46;" xml:space="preserve">
<style type="text/css">
	.st0{clip-path:url(#SVGID_2_);}
	.st1{fill:#007A4D;}
	.st2{fill:#FFFFFF;}
</style>
<g>
	<defs>
		<path id="SVGID_1_" d="M-204,420H-262c-3.8,0-7-3.1-7-7V381c0-3.8,3.1-7,7-7h58.1c3.8,0,7,3.1,7,7V413
			C-197,416.9-200.1,420-204,420z"/>
	</defs>
	<clipPath id="SVGID_2_">
		<use xlink:href="#SVGID_1_"  style="overflow:visible;"/>
	</clipPath>
	<g class="st0">
		<g>
			<polygon class="st1" points="-280.3,420.1 -280.3,372.9 -185.7,372.9 -185.7,420.1 			"/>
		</g>
		<g>
			<path d="M-185.6,420.3h-94.8v-47.5h94.8V420.3z M-280.1,420h94.3v-47h-94.3V420z"/>
		</g>
		<g>
			<polygon class="st2" points="-251.5,420.1 -251.5,372.9 -214.5,372.9 -214.5,420.1 			"/>
		</g>
		<g>
			<path d="M-214.4,420.3h-37.2v-47.5h37.2V420.3z M-251.4,420h36.7v-47h-36.7V420z"/>
		</g>
		<g>
			<path class="st1" d="M-233.1,375.3c0,0.4,0,1.8-0.1,2.4c0,0.2-0.2,0.3-0.3,0.1c-0.2-0.1-0.8,0-0.4,0.1c0.4,0.2,0.6,0.2,0.7,0.5
				c0,0.3-0.2,0.3-0.5,0.2c-0.3-0.2-0.8-0.1-0.2,0.3c0.6,0.4,0.6,0.4,0.6,0.8c0,0.4-0.2,0.4-0.6,0.2c-0.5-0.2-0.8,0-0.3,0.2
				c0.5,0.3,0.9,0.6,0.9,0.9c0,0.3-0.3,0.5-0.7,0c-0.4-0.5-1.1-0.8-1.5-0.7c-0.5,0.1-0.2,0.3,0.3,0.5c0.6,0.2,1.5,0.6,1.7,0.9
				c0.2,0.2,0.1,0.4-0.4,0.2s-1.6-0.6-2-0.5c-0.4,0.1-0.5,0.3,0.1,0.4c0.6,0,1.7,0.2,2.1,0.4c0.6,0.2,0.6,0.7,0.1,0.5
				c-0.5-0.2-2-0.5-2.5-0.2c-0.4,0.3-0.6,0.5,0.2,0.4c0.8-0.1,1.7-0.1,2.1,0.1c0.2,0.1,0.4,0.1,0.4,0.4c0,0.3-0.3,0.3-0.7,0.1
				c-0.5-0.2-1.9-0.6-2.3-0.2c-0.4,0.3-0.3,0.4,0.3,0.3c0.6-0.1,1.5,0,2,0.1c0.9,0.2,0.8,0.3,0.3,0.3c-0.6,0-2.3,0.1-2.7-0.1
				c-0.4-0.2-1-0.3-1.2-0.2c-0.2,0.1,0,0.2,0.2,0.2c0.2,0,0.3,0.2,0.2,0.3c-0.1,0.1-0.2,0.4,0.3,0.3c0.5-0.1,1.3-0.1,1.7,0.1
				c0.4,0.2,1,0.3,1.5,0.4c0.5,0.1,0.6,0.1,0.5,0.5c0,0.3-0.6,0.1-1.2-0.3c-0.6-0.4-1.8-0.6-2.3-0.2c-0.5,0.4-0.2,0.4,0.3,0.3
				c0.5-0.1,1.9,0.2,2.4,0.3c0.5,0.2,0.8,0.1,0.8,0.5c0,0.3-0.3,0.1-0.8,0c-1.4-0.5-3-0.6-3.5-0.5c-0.4,0-0.4,0.1-0.3,0.2
				c0.1,0.1,0,0.2-0.2,0.3c-0.2,0.1-0.5,0.2-0.7,0.3c-0.1,0.1-0.1,0.2,0.3,0.2c0.4,0,0.8,0,0.6,0.2c-0.2,0.2-0.5,0.4-0.1,0.4
				c1.2,0.1,3,0.9,3.6,1.2s0.8,0.4,0.8,0.7c0,0.3-0.3,0.3-0.7,0.1c-1.1-0.6-2.2-0.5-2.8-0.9c-0.6-0.4-1.4-0.8-2-0.5
				c-0.5,0.3-0.4,0.6,0,0.5c0.5-0.1,1,0,0.8,0.3c-0.2,0.3-0.3,0.4,0.5,0.5c1.1,0.2,2.9,0.8,3.5,1.1c0.6,0.3,0.8,0.4,0.3,0.5
				c-0.5,0.1-0.5-0.3-1.3-0.3c-0.5,0-1.1-0.3-1.5-0.6c-0.3-0.3-0.6-0.4-1.2-0.3c-0.6,0.1-1.4,0.2-1.7,0.3c-0.3,0.2-0.4,0.4,0.1,0.4
				c0.5,0,0.7,0.3,0.3,0.5c-0.4,0.1-0.8,0.2-0.9,0.4c-0.1,0.2,0.1,0.3,0.6,0.3c0.5,0,1.3,0.2,2,0.5c0.7,0.3,2.8,1.4,3.3,1.4
				c0.6,0,0.6,0.1,0.6,0.4c0,0.3-0.2,0.2-0.7,0.1c-0.5-0.1-1.8-0.5-2.2-0.9c-0.4-0.4-0.9-0.7-1.2-0.7c-0.4,0-0.3,0.1-0.1,0.3
				s0.1,0.5-0.1,0.3c-0.4-0.4-0.7-0.8-1.3-0.8c-0.6,0-1.1,0-1.4,0.2c-0.3,0.2-0.2,0.4,0.3,0.5c0.6,0.1,1.3,0.3,1.6,0.5
				c0.3,0.2,0.2,0.4-0.1,0.3c-0.3,0-0.2,0.1,0.1,0.3c0.3,0.2,0.5,0.5,0.3,0.5c-0.3,0.1-1-0.6-1.2-0.6c-0.2,0,0,0.2,0.1,0.3
				c0.2,0.1,0.2,0.5-0.1,0.3c-0.4-0.3-0.9-0.6-1.4-0.4c-0.6,0.2-0.8,0.4-0.4,0.6c0.5,0.2,0.8,0.4,0.6,0.7c-0.1,0.1-0.2,0.3,0.5,0.4
				c0.4,0,0.9,0.2,1.1,0.4c0.2,0.2-0.1,0.3-0.3,0.2s-0.8-0.2-1.1,0.1c-0.3,0.3,0,0.4,0.6,0.5c1.5,0.2,3.2,0.7,4.1,0.8
				c0.9,0.1,1.7,0.3,2,0.4c0.5,0.2,0.2,0.8-0.1,0.6c-0.5-0.3-0.9-0.4-1.1-0.5c-0.2,0-0.2,0-0.2,0.2c0,0.2-0.2,0.3-0.4,0.1
				s-0.9-0.6-1.3-0.7s-0.4,0-0.3,0.1c0.1,0.1,0,0.4-0.2,0.1c-0.3-0.3-1.1-0.7-1.6-0.6c-0.3,0-0.3,0.1-0.2,0.3
				c0.1,0.1-0.1,0.4-0.3,0.1c-0.2-0.3-0.6-0.7-1.1-0.4c-0.2,0.1-0.4,0.3-0.7,0.4c-0.3,0.1-0.2,0.2,0.2,0.3c1.1,0.2,1.5-0.1,2.3,0.2
				c0.6,0.2,1.1,0.3,1.3,0.3s0.4,0.1,0.1,0.2c-0.2,0.1-0.2,0.3,0,0.5c0.3,0.2,0.1,0.6-0.2,0.3c-0.4-0.5-1-0.3-1.2-0.6
				c-0.2-0.2-0.3-0.2-0.3,0s-0.1,0.2-0.3,0.1c-0.7-0.6-1.7-0.5-2.1-0.2c-0.4,0.3-0.3,0.4,0.4,0.5c2,0.3,4.5,0.7,6.7,1.7
				c1.2,0.5,1.1,0.6,1,0.7c-0.1,0.1-0.3,0.2-0.8-0.1c-0.5-0.4-2-0.6-2.6-1c-0.6-0.4-0.8-0.2-0.6,0.1s0.1,0.5-0.3,0.2
				c-0.4-0.3-1.1-0.7-1.5-0.7c-0.4,0-0.1,0.2,0.1,0.3c0.2,0.1,0.3,0.6-0.1,0.4c-0.4-0.2-1.5-0.8-2.3-0.6c-0.8,0.2-0.7,0.3-0.3,0.6
				c0.4,0.3,0.8,0.5,1.8,0.5c0.9,0,1.8,0.1,2.2,0.4c0.4,0.3,0,0.3-0.3,0.2c-0.3-0.2-1-0.3-1.3-0.3c-0.3,0-0.2,0.2,0,0.3
				c0.1,0.1,0,0.6-0.3,0.3c-0.3-0.3-0.9-0.6-1.4-0.7c-0.9-0.2-1.3,0.2-0.9,0.3c0.2,0.1,0.4,0.2,0.2,0.4c-0.1,0.2-0.2,0.4,0.3,0.3
				c1.1-0.2,3.3-0.1,4.4,0.2c1,0.3,0.8,0.5,0.5,0.5c-0.3,0-0.5-0.2-0.4,0.1c0.1,0.3,0.1,0.5-0.2,0.2c-0.7-0.5-1.7-0.7-2.1-0.6
				c-0.2,0-0.1,0.1,0,0.3c0.1,0.1,0,0.4-0.3,0.2c-0.3-0.2-0.7-0.5-1.1-0.5c-0.3,0-0.3,0.1-0.2,0.2c0.1,0.1,0.1,0.4-0.2,0.2
				c-0.4-0.3-1.1-0.7-1.7-0.6c-0.5,0-0.3,0.3,0.2,0.5c0.9,0.4,1.8,0.6,2.5,0.7c0.7,0.1,1.2,0.2,1.5,0.3c0.3,0,0.4,0.2,0,0.2
				c-0.5,0.1-1.3-0.3-1.7-0.1c-0.2,0.1,0.1,0.2,0.1,0.3c0.1,0.1,0,0.5-0.2,0.3c-0.8-0.6-1.3-0.6-1.6-0.8c-0.3-0.2-0.6-0.1-0.4,0.1
				c0.2,0.2-0.2,0.2-0.5,0c-0.3-0.2-0.8-0.3-1.1-0.2c-0.3,0.1-0.5,0.2,0.2,0.6c0.7,0.3,1.2,0.6,1.9,0.7c0.7,0.1,0.8,0.5,0.4,0.5
				c-0.4,0-0.4,0.2-0.2,0.3c0.1,0.1,0.2,0.3,0.2,0.5c0,0.1-0.2,0.1-0.5-0.2c-0.7-0.8-2.2-0.8-3-0.6c-0.8,0.2-0.4,0.6,0.1,1.1
				c0.6,0.5,1.1,1.1,2.5,0.9c1.4-0.2,4-0.7,5.1-0.4c1.2,0.3,1,0.8,0.7,0.9c-0.6,0.1-0.6-0.5-1.3-0.6c-0.7,0-0.9,0.3-1.1,0.5
				s-0.4,0.4-1,0.1c-0.8-0.4-1.5,0.2-1.9,0.1c0.3,0.2,0.9,0.6,0.8,0.8c-0.2,0.2-0.4-0.2-0.9-0.4c-0.5-0.2-1.3-0.2-1.9,0.1
				c-0.6,0.3,0,0.7,0.7,0.8c0.6,0.2,2,0.2,3.2-0.2c1.1-0.3,2.5-0.5,3.1-0.5c0.4,0,0.6,0.2,0.3,0.4c0.4,0.1,0.9,0,1.1-0.2
				c0.6-0.4,0.6,0,0.4,0.3c0.4,0,1.1-0.5,1.4-0.3c0.1,1.7,0,5.3,0,6.5c0,0.2,0.2,0.2,1.2,0.2c1.3,0,1.4,0.1,1.3-0.5
				c0-0.6-0.4-4.2-0.3-5.5c0.1-1.3,0.5-1.2,0.9-1.1c0.5,0.1,1.6,0.4,2.1,0.4c-0.3-0.4-0.4-0.6-0.1-0.5c0.3,0.1,0.8-0.1,1-0.3
				c-0.3,0-0.4-0.3,0-0.4c0.4-0.1,0.6,0.2,1.4,0.4c0.8,0.3,3.7,0.8,5.3-0.2c0.5-0.3,0.1-0.4-0.5-0.4c-0.6,0-0.9,0.1-1.2,0.3
				s-0.6,0.2-0.5,0c0.1-0.2-0.5-0.3-0.9-0.1c-0.5,0.2-0.9,0.3-0.7,0.1c0.1-0.3-0.1-0.3-0.7-0.3c-0.5,0-2.1-0.1-2.1-0.4
				c0-0.2,0.3-0.2,0.9-0.1c1.3,0.3,4.1,0.3,4.9,0.3c1.4-0.1,1-0.5,0.5-0.7c-0.5-0.2-1.1,0-1.3,0.1c-0.1,0.2-0.6,0.3-0.5,0
				c0.2-0.4-0.6-0.5-1.3-0.1c-0.5,0.3-0.6,0.1-0.4-0.1c0.2-0.2-0.1-0.3-0.6-0.3c-0.7,0.1-2.1,0.1-2.6-0.1c-0.6-0.2-0.4-0.3,0.6-0.4
				c1.5-0.1,3.8,0.5,5.5,0.4s1.4-0.3,0.9-0.7c-0.6-0.4-1-0.1-1.3,0.2c-0.3,0.3-0.8,0.3-0.6,0c0.2-0.3,0-0.4-0.5-0.4
				c-0.6,0-1,0.2-1.3,0.3c-0.4,0.1-0.8-0.2-0.5-0.3c0.3-0.1,0.3-0.3,0-0.3c-0.2,0-0.3-0.2,0.4-0.3c0.6-0.1,1.1,0.1,1.4,0.2
				c0.4,0.1,0.8,0,1.1-0.2c0.3-0.2,0.4-0.4,0.8-0.4c0.3,0,0.5-0.2,0.1-0.4c-0.4-0.3-1-0.3-1.4-0.1c-0.4,0.2-0.5,0.1-0.7-0.1
				c-0.1-0.2-0.7-0.2-1.2,0.1c-0.5,0.2-0.9,0.5-1.2,0.1c-0.2-0.2-1.2,0-1.9,0.2c-0.7,0.2-0.8,0-0.2-0.3c0.7-0.3,1.2-0.1,2.2-0.5
				c0.7-0.3,1.7,0.2,3.4-0.8c0.4-0.2,0.8-0.5-0.3-0.5c-0.6,0-0.8,0-1,0.3c-0.2,0.3-0.4,0.2-0.4,0c0-0.2-0.5-0.3-0.9,0
				c-0.4,0.3-0.8,0.5-1,0.6c-0.2,0.1-0.3,0-0.2-0.2c0-0.2-0.1-0.1-0.3,0c-0.2,0.1-0.5,0.3-0.7,0.3c-0.2,0-0.4-0.2,0.2-0.5
				c0.6-0.3,1.2-0.7,2.1-0.6c1.2,0.1,1.5-0.4,2-0.4c0.6,0,0.9-0.4,0.1-0.4c-0.8,0-1,0.2-1.2,0.3c-0.2,0.1-0.5,0.2-0.5,0
				c0.1-0.3-0.1-0.3-0.4-0.1c-0.3,0.1-1,0.2-1.3,0.1c-0.3-0.1-0.6-0.3,0.1-0.3c0.8,0,1.3-0.4,2-0.2c0.6,0.2,0.9-0.2,1.1-0.1
				c0.2,0,0.5-0.2,0.1-0.5c-0.4-0.3-1.4-0.3-1.7-0.3c-0.3,0.1-0.5,0-0.5-0.1c0.1-0.1,0-0.2-0.3-0.2c-0.3,0-1.1,0.2-1.5,0.4
				c-0.5,0.2-0.8-0.1-0.4-0.4c0.3-0.2,0.9-0.4,1.3-0.3c0.4,0,0.5,0.1,0.4-0.2c0-0.1-0.1-0.3,0.3-0.2c0.4,0.1,1.2,0.1,1.6-0.1
				c0.4-0.3,0.1-0.5-0.6-0.5c-0.7,0-2.3,0.2-2.9,0.6c-0.6,0.4-0.7,0-0.5-0.2c0.3-0.1,0.3-0.2,0.2-0.3c-0.1-0.1-0.1-0.2,0.2-0.3
				c0.7-0.3,1.5-0.2,2.4-0.6c0.7-0.3,1.4-0.7,1.6-1.2c0.2-0.5-0.1-0.3-0.5-0.2c-0.4,0.2-0.6,0.3-0.6,0.5c0,0.3-0.3,0.3-0.3-0.1
				c0-0.3-0.2-0.5-0.7-0.3c-0.5,0.2-1.8,0.7-2.3,0.6c-0.5-0.1-0.7-0.3-0.2-0.4c0.5,0,1.1-0.2,1.5-0.3c0.4-0.1,0.6-0.3,0.3-0.5
				c-0.3-0.2-0.1-0.3,0.3-0.3c0.3,0,0.7-0.3,1.1-0.2c0.4,0.1,0.9-0.1,0.3-0.4c-0.2-0.1-0.4-0.3-0.2-0.5c0.3-0.2,0.1-0.6-0.3-0.6
				c-0.4-0.1-0.8,0-1.1,0.1c-0.2,0.1-0.4,0.1-0.5-0.1c-0.1-0.2-0.8-0.2-1.1-0.1c-0.3,0.1-0.9,0-0.5-0.2c0.4-0.2,1.4-0.3,1.9-0.3
				c0.5,0,0.9-0.1,1.2-0.2c0.3-0.1,0.3-0.6-0.3-0.6c-0.6,0-1.3,0-1.2-0.2c0.1-0.2-0.3-0.3-0.9-0.2c-0.5,0.1-1.3,0.2-0.8-0.1
				c0.4-0.3,1.3-0.6,1.7-0.6c0.4,0,0.7-0.1,0.4-0.4c-0.3-0.3-0.1-0.4,0.2-0.5c0.3,0,0.3-0.4-0.1-0.4c-0.4-0.1-1.4-0.3-1.9,0
				c-0.7,0.4-1.2,0.3-0.9,0.1c0.2-0.2,0.1-0.2-0.3-0.1c-0.8,0.2-2.4,0.7-2.9,0.7c-0.2,0-0.5,0-0.5-0.3c0-0.3,0.2-0.3,0.9-0.4
				c1.4-0.2,2.8-0.6,3.5-0.6c0.6,0.1,0.9,0,0.7-0.3c-0.2-0.3-0.7-0.1-0.5-0.4c0.2-0.3-0.2-0.3-0.5-0.3c-0.3,0-0.6-0.1-0.8-0.3
				c-0.2-0.2-1-0.1-1.4,0.1c-0.4,0.2-1.3,0.4-1.7,0.3c-0.4,0-0.4,0-0.5-0.3c0-0.2,0-0.2,0.2-0.3c0.4-0.2,2.2-0.2,2.8-0.1
				c1.1,0.2,1.1-0.2,0.9-0.4c-0.3-0.3-1.3-0.1-1.9,0c-0.6,0.1-1.2,0.2-1.4,0.1c-0.2-0.1,0-0.3,0.4-0.4c0.5-0.1,1.7,0,1.9-0.1
				c0.2-0.1,0.4-0.4,0-0.5c-0.4-0.1-1.4,0-1.8,0.2c-0.4,0.2-0.9,0.1-1,0c-0.1-0.2-0.1-0.5,0.7-0.5c0.7,0.1,2.1,0,2.3,0
				c0.2,0,0.3-0.2,0.1-0.4c-0.1-0.2-0.3-0.3-0.1-0.5c0.1-0.1,0.1-0.2,0-0.3c-0.1-0.1,0-0.2,0.1-0.3c0.1-0.1,0.2-0.2-0.1-0.2
				c-0.5,0.1-1.2-0.2-1.6,0c-0.4,0.1-1.2,0.2-1.5,0.2c-0.1,0-0.2-0.3,0-0.3c0.4-0.1,1.2-0.2,1.5-0.3c0.3-0.2,0.6-0.3,1-0.3
				c0.4,0,0.6-0.1,0.3-0.3c-0.4-0.2-1-0.1-1.3,0s-1,0.5-1.3,0.4c-0.3,0-0.4-0.2-0.2-0.7c0.1-0.2,0.5-0.2,0.8-0.2
				c0.3,0.1,1.2-0.2,1.6-0.1c0.3,0.1,0.7-0.1,0.3-0.3c-0.4-0.3-0.7-0.2-1.1,0c-0.4,0.2-1.2,0.4-1.5,0.2c-0.2-0.2-0.3-0.8,0.1-0.6
				c0.5,0.2,1.7-0.2,2,0c0.3,0.2,0.5-0.1,0.2-0.3c-0.3-0.1-1.2,0-1.5,0.1c-0.5,0.1-0.7,0.2-0.7-0.1c0-0.2,0.6-0.2,0.8-0.1
				c0.4,0.1,1.1-0.4,1.4-0.3c0.4,0.1,0.3-0.1,0.1-0.3c-0.2-0.2-1-0.1-1.2,0.1c-0.3,0.2-0.7,0.3-0.9,0.3c-0.2,0-0.3-0.1-0.3-0.4
				c0-0.3,0.2-0.4,0.4-0.5c0.4-0.2,0.4-0.5,0.2-0.4c-0.4,0.1-0.6,0.3-0.6-0.3c0-0.3,0-0.5,0.4-0.6c0.4-0.1,0.4-0.3,0.3-0.4
				c-0.1-0.1-0.3,0.1-0.4,0.2c-0.2,0.1-0.3,0.1-0.3-0.3c0-0.3,0.2-0.4,0.3-0.4c0.2,0,0.3-0.1,0.4-0.2c0.1-0.1,0-0.3-0.3-0.1
				c-0.3,0.1-0.5,0.1-0.5-0.1c0-0.6-0.1-2.1-0.1-2.4C-232.9,375-233.1,374.9-233.1,375.3L-233.1,375.3z"/>
		</g>
		<g>
			<path d="M-232.2,416c-0.1,0-0.2,0-0.3,0c-0.1,0-0.3,0-0.5,0c-0.3,0-0.5,0-0.7,0c-0.3,0-0.5,0-0.5-0.1c0,0,0-0.1,0-0.1
				c0-0.4,0-1,0-1.6c0-1.5,0.1-3.6,0-4.9c-0.2-0.1-0.4,0-0.7,0.1c-0.2,0.1-0.5,0.2-0.6,0.2c0,0,0,0,0,0l0,0l0,0
				c0.1-0.2,0.1-0.3,0.1-0.4c0,0-0.1-0.1-0.4,0.1c-0.3,0.2-0.7,0.3-1.1,0.2l-0.1,0l0,0c0.1-0.1,0.1-0.2,0.1-0.2
				c0-0.1-0.2-0.1-0.4-0.1c0,0,0,0,0,0c-0.5,0-1.9,0.2-3.1,0.5c-1.1,0.3-2.5,0.3-3.2,0.2c-0.4-0.1-0.9-0.3-0.9-0.6
				c0-0.1,0.1-0.2,0.2-0.4c0.6-0.4,1.4-0.3,1.9-0.1c0.2,0.1,0.4,0.2,0.5,0.3c0.2,0.1,0.3,0.2,0.4,0.1c0,0,0,0,0-0.1
				c0-0.2-0.5-0.5-0.8-0.7l0-0.1c0.1,0,0.3,0,0.5-0.1c0.4-0.1,0.8-0.3,1.4,0c0.6,0.3,0.8,0.1,1-0.1l0,0c0,0,0,0,0.1-0.1
				c0.2-0.2,0.4-0.5,0.9-0.5c0,0,0.1,0,0.1,0c0.3,0,0.5,0.2,0.6,0.3c0.2,0.2,0.3,0.3,0.6,0.2c0.1,0,0.2-0.1,0.2-0.2
				c0-0.2-0.2-0.4-0.9-0.6c-0.9-0.2-2.6,0-3.9,0.2c-0.4,0.1-0.8,0.1-1.2,0.2c-1.4,0.2-1.9-0.3-2.5-0.8l-0.1-0.1
				c-0.4-0.3-0.6-0.6-0.6-0.8c0-0.1,0.2-0.2,0.5-0.3c0.8-0.2,2.3-0.1,3,0.6c0.2,0.2,0.3,0.3,0.4,0.3c0,0,0,0,0,0c0,0,0,0,0-0.1
				c0-0.1-0.1-0.4-0.2-0.4c-0.1-0.1-0.2-0.2-0.1-0.3c0-0.1,0.2-0.1,0.4-0.1c0.1,0,0.2,0,0.2-0.1c0-0.1-0.1-0.3-0.6-0.4
				c-0.7-0.1-1.2-0.4-1.9-0.7c-0.3-0.2-0.5-0.3-0.5-0.4c0-0.1,0.1-0.2,0.3-0.2c0.3-0.1,0.8,0,1.1,0.2c0.2,0.1,0.5,0.2,0.5,0.2
				c0,0,0,0,0-0.1c-0.1-0.1-0.1-0.2,0-0.2c0.1-0.1,0.3-0.1,0.5,0.1c0.1,0.1,0.2,0.1,0.4,0.1c0.3,0.1,0.7,0.2,1.2,0.6
				c0,0,0.1,0.1,0.2,0c0.1,0,0.1-0.2,0-0.3c0,0,0,0-0.1-0.1c-0.1-0.1-0.1-0.1-0.1-0.2c0,0,0-0.1,0.1-0.1c0.2-0.1,0.6,0,1,0
				c0.3,0.1,0.5,0.1,0.8,0.1c0.2,0,0.2-0.1,0.2-0.1c0,0-0.1-0.1-0.2-0.1c-0.1,0-0.3,0-0.5-0.1c-0.3-0.1-0.6-0.1-1-0.2
				c-0.7-0.1-1.6-0.3-2.5-0.7c-0.2-0.1-0.5-0.2-0.5-0.4c0-0.1,0.1-0.1,0.3-0.1c0,0,0.1,0,0.1,0c0.5,0,1.2,0.3,1.6,0.6
				c0.1,0.1,0.2,0.1,0.2,0.1c0,0,0-0.1-0.1-0.2c-0.1-0.1-0.1-0.2-0.1-0.2c0-0.1,0.1-0.1,0.2-0.1c0,0,0,0,0,0c0.3,0,0.9,0.3,1.1,0.5
				c0.1,0.1,0.2,0.1,0.3,0c0,0,0-0.1,0-0.2l0,0c-0.1-0.1-0.1-0.2-0.1-0.2c0,0,0.1-0.1,0.2-0.1c0,0,0,0,0.1,0c0.5,0,1.4,0.2,2.1,0.7
				c0.1,0.1,0.2,0.1,0.2,0.1c0,0,0-0.1-0.1-0.3c0-0.1-0.1-0.1,0-0.2c0-0.1,0.1,0,0.3,0c0.1,0,0.1,0,0.2,0c0,0,0,0,0,0
				c0.1,0,0.2,0,0.2-0.1c0,0,0-0.2-0.7-0.4c-1.1-0.4-3.2-0.4-4.4-0.2c-0.2,0-0.4,0-0.4-0.1c0-0.1,0-0.2,0.1-0.3c0-0.1,0.1-0.1,0-0.2
				c0-0.1-0.1-0.1-0.3-0.2c-0.1,0-0.2-0.1-0.2-0.2c0-0.2,0.4-0.3,1.1-0.2c0.4,0.1,1.1,0.4,1.4,0.7c0.1,0.1,0.1,0.1,0.2,0.1
				c0.1-0.1,0.1-0.3,0-0.3l0,0c-0.1-0.1-0.2-0.2-0.1-0.3c0-0.1,0.1-0.1,0.2-0.1c0.3,0,1.1,0.1,1.4,0.3c0.2,0.1,0.4,0.1,0.4,0.1
				c0,0,0-0.1-0.2-0.2c-0.4-0.3-1.3-0.4-2.2-0.4c-0.1,0-0.1,0-0.2,0c-0.8,0-1.2-0.2-1.6-0.5c-0.2-0.1-0.4-0.2-0.4-0.4
				c0-0.1,0.2-0.2,0.7-0.3c0.9-0.2,2,0.4,2.3,0.6c0.1,0.1,0.2,0.1,0.2,0c0-0.1,0-0.3-0.1-0.3l-0.1,0c-0.2-0.1-0.3-0.2-0.3-0.3
				c0,0,0.1-0.1,0.2-0.1c0,0,0,0,0,0c0.5,0,1.2,0.4,1.5,0.7c0.2,0.1,0.2,0.2,0.3,0.1c0,0,0-0.1-0.1-0.3c-0.1-0.1-0.1-0.2,0-0.3
				c0.1-0.1,0.4,0,0.7,0.2c0.3,0.2,0.8,0.3,1.3,0.5c0.5,0.1,1,0.3,1.3,0.5c0.4,0.3,0.5,0.2,0.6,0.2c0,0,0.1,0,0.1-0.1l0,0
				c0-0.1,0.1-0.2-1-0.7c-2.1-0.9-4.4-1.3-6.7-1.6c-0.5-0.1-0.6-0.1-0.7-0.2c0-0.1,0.1-0.2,0.2-0.3c0.4-0.3,1.3-0.4,2.1,0.2
				c0.1,0.1,0.2,0.1,0.2,0.1c0,0,0-0.1,0-0.1c0-0.1,0-0.2,0.1-0.2c0.1,0,0.2,0,0.3,0.2c0.1,0.1,0.2,0.1,0.4,0.2
				c0.3,0,0.6,0.1,0.8,0.4c0.1,0.1,0.1,0.1,0.2,0.1c0,0,0.1,0,0.1-0.1c0-0.1,0-0.2-0.1-0.3c-0.2-0.1-0.2-0.3-0.2-0.4
				c0-0.1,0.1-0.1,0.2-0.2c0.1,0,0.1-0.1,0.1-0.1c0,0-0.1-0.1-0.2-0.1c-0.2,0-0.7-0.1-1.3-0.3c-0.4-0.1-0.7-0.1-1-0.1
				c-0.3,0-0.7,0-1.3-0.1c-0.3-0.1-0.4-0.1-0.4-0.2c0,0,0-0.1,0.2-0.1c0.2,0,0.4-0.2,0.6-0.3c0,0,0.1-0.1,0.1-0.1
				c0.6-0.4,1.1,0.2,1.2,0.4c0.1,0.1,0.1,0.1,0.2,0.1c0.1,0,0.1-0.1,0.1-0.2l0,0c0-0.1-0.1-0.1,0-0.2c0-0.1,0.1-0.1,0.3-0.1
				c0,0,0,0,0.1,0c0.5,0,1.3,0.4,1.6,0.6c0.1,0.1,0.2,0.1,0.2,0.1c0,0,0-0.1,0-0.2l0,0c0-0.1-0.1-0.1,0-0.2c0,0,0.1-0.1,0.4,0
				c0.4,0.1,1.1,0.5,1.3,0.7c0.1,0.1,0.2,0.1,0.3,0.1c0,0,0.1-0.1,0.1-0.1c0-0.1,0-0.2,0-0.2c0,0,0.1,0,0.2,0c0.2,0,0.5,0.2,1.1,0.5
				c0.1,0,0.2,0,0.3,0c0.1-0.1,0.1-0.1,0.1-0.2c0-0.1-0.1-0.2-0.3-0.3c-0.4-0.2-1.2-0.4-2-0.4c-0.4,0-1-0.2-1.7-0.3
				c-0.7-0.2-1.6-0.4-2.4-0.4c-0.3,0-0.6-0.1-0.7-0.3c0-0.1,0-0.2,0.1-0.3c0.3-0.3,0.9-0.2,1.1-0.1c0.2,0.1,0.3,0,0.3,0
				c0,0,0-0.1-0.1-0.2c-0.2-0.2-0.6-0.4-1.1-0.4c-0.3,0-0.5-0.1-0.6-0.2c0-0.1,0-0.2,0.1-0.2c0.1-0.1,0.1-0.1,0.1-0.2
				c0-0.2-0.4-0.3-0.6-0.4c-0.2-0.1-0.3-0.2-0.3-0.3c0-0.1,0.2-0.3,0.6-0.4c0.6-0.2,1.1,0.2,1.4,0.4c0.1,0.1,0.1,0.1,0.1,0.1
				c0,0,0,0,0-0.1c0-0.1,0-0.2-0.1-0.2c-0.2-0.1-0.2-0.2-0.2-0.3c0-0.1,0.1-0.1,0.1-0.1c0,0,0,0,0,0c0.1,0,0.3,0.1,0.5,0.3
				c0.2,0.1,0.4,0.3,0.6,0.3c0,0,0,0,0.1,0c0.1,0,0.1,0,0.1-0.1c0-0.1-0.1-0.3-0.4-0.4c-0.1-0.1-0.3-0.2-0.3-0.3
				c0-0.1,0.1-0.1,0.2-0.1c0.1,0,0.2,0,0.3-0.1c0-0.1,0-0.1-0.2-0.2c-0.3-0.2-1-0.4-1.6-0.5c-0.3,0-0.5-0.1-0.5-0.3
				c0-0.1,0-0.2,0.2-0.3c0.3-0.2,0.9-0.2,1.4-0.2c0.5,0,0.8,0.3,1.1,0.6c0.1,0.1,0.1,0.1,0.2,0.2c0.1,0.1,0.1,0.1,0.1,0.1
				c0,0,0-0.2-0.1-0.3c-0.1-0.1-0.2-0.2-0.1-0.2c0-0.1,0.1-0.1,0.3-0.1c0.4,0,0.8,0.4,1.3,0.7c0.4,0.4,1.8,0.8,2.2,0.9l0,0
				c0.3,0.1,0.5,0.1,0.6,0.1c0,0,0.1-0.1,0.1-0.2c0-0.3,0-0.3-0.6-0.4c-0.5,0-2.2-0.9-3.1-1.3c-0.1,0-0.2-0.1-0.3-0.1
				c-0.7-0.4-1.6-0.5-2-0.5c-0.4,0-0.6-0.1-0.6-0.2c0,0,0-0.1,0-0.2c0.1-0.1,0.3-0.2,0.6-0.3c0.1,0,0.2-0.1,0.3-0.1
				c0.1,0,0.2-0.1,0.2-0.2c0-0.1-0.2-0.2-0.5-0.2c-0.2,0-0.3-0.1-0.4-0.2c0-0.1,0.1-0.2,0.3-0.3c0.3-0.2,1.1-0.3,1.7-0.3
				c0.6-0.1,0.8,0.1,1.2,0.4c0.3,0.3,1,0.5,1.5,0.6c0.4,0,0.6,0.1,0.8,0.2c0.2,0.1,0.3,0.1,0.5,0.1c0.2,0,0.2-0.1,0.2-0.1
				c0,0-0.1-0.1-0.6-0.3c-0.8-0.3-2.5-1-3.5-1.1c-0.4-0.1-0.6-0.1-0.6-0.2c0-0.1,0-0.2,0.1-0.3l0,0c0.1-0.1,0-0.1,0-0.1
				c-0.1-0.1-0.4-0.2-0.8-0.1c-0.2,0-0.4,0-0.4-0.1c0-0.1,0.1-0.3,0.4-0.5c0.6-0.4,1.5,0.2,2,0.5c0.3,0.2,0.7,0.3,1.1,0.3
				c0.5,0.1,1.1,0.2,1.7,0.5c0.3,0.1,0.5,0.2,0.6,0.1c0.1,0,0.1-0.1,0.1-0.2c0-0.2-0.1-0.3-0.5-0.5c-0.1,0-0.2-0.1-0.3-0.1
				c-0.6-0.4-2.4-1.1-3.6-1.2c-0.2,0-0.3-0.1-0.3-0.1c0-0.1,0.1-0.2,0.3-0.4c0,0,0.1-0.1,0.1-0.1c0-0.1-0.3-0.1-0.6-0.1
				c-0.2,0-0.4,0-0.4-0.1c0,0,0-0.1,0.1-0.2c0.2-0.1,0.5-0.2,0.7-0.3c0.1,0,0.2-0.1,0.2-0.2c0,0,0-0.1,0-0.1c0,0-0.1-0.1-0.1-0.1
				c0-0.1,0.1-0.1,0.4-0.1c0.6-0.1,2.2,0,3.5,0.5c0,0,0.1,0,0.1,0c0.3,0.1,0.5,0.2,0.5,0.1c0,0,0-0.1,0-0.1c0-0.3-0.1-0.4-0.4-0.4
				c-0.1,0-0.2,0-0.4-0.1c-0.5-0.2-1.9-0.4-2.4-0.3c-0.2,0-0.5,0.1-0.6,0c0-0.1,0.1-0.2,0.3-0.4c0.5-0.4,1.7-0.2,2.3,0.2
				c0.5,0.3,1,0.5,1.1,0.4c0,0,0.1-0.1,0.1-0.1c0-0.4,0-0.4-0.5-0.5c-0.5-0.1-1.2-0.2-1.5-0.4c-0.4-0.2-1.2-0.1-1.7-0.1
				c-0.2,0-0.4,0-0.4-0.1c0-0.1,0-0.2,0.1-0.3c0,0,0.1-0.1,0-0.1c0-0.1-0.1-0.1-0.2-0.1c-0.1,0-0.3,0-0.3-0.1c0-0.1,0-0.1,0.1-0.1
				c0.2-0.1,0.8,0,1.3,0.2c0.3,0.1,1.4,0.1,2.2,0.1c0.2,0,0.4,0,0.5,0c0.3,0,0.4,0,0.4-0.1l0,0c0,0,0-0.1-0.7-0.2
				c-0.5-0.1-1.4-0.2-1.9-0.1c-0.4,0.1-0.5,0.1-0.6,0c0-0.1,0-0.2,0.3-0.3c0.5-0.4,1.9,0.1,2.3,0.2c0.3,0.1,0.5,0.2,0.6,0.1
				c0.1,0,0.1-0.1,0.1-0.2c0-0.3-0.1-0.3-0.3-0.4c0,0-0.1,0-0.1,0c-0.4-0.2-1.4-0.2-2.1-0.1c-0.3,0.1-0.5,0-0.6-0.1
				c0-0.1,0.2-0.3,0.4-0.4c0.4-0.3,1.9,0,2.5,0.2c0.2,0.1,0.3,0,0.3,0c0-0.1-0.1-0.3-0.4-0.4c-0.4-0.2-1.5-0.3-2.1-0.4
				c-0.3,0-0.4-0.1-0.4-0.2c0-0.1,0.2-0.2,0.3-0.3c0.4-0.2,1.7,0.4,2,0.5c0.3,0.1,0.4,0.1,0.5,0.1c0,0,0-0.1-0.1-0.2
				c-0.2-0.2-1.1-0.7-1.7-0.9c-0.2-0.1-0.6-0.3-0.6-0.4c0-0.1,0.1-0.1,0.3-0.1c0,0,0.1,0,0.1,0c0.4,0,1,0.2,1.4,0.7
				c0.2,0.2,0.3,0.3,0.5,0.3c0.1,0,0.1-0.1,0.2-0.3c0-0.3-0.3-0.6-0.9-0.9c-0.3-0.1-0.3-0.2-0.3-0.3c0.1-0.1,0.3-0.1,0.6,0
				c0.2,0.1,0.4,0.2,0.5,0.1c0.1,0,0.1-0.1,0.1-0.3c0-0.4,0-0.4-0.6-0.7l0,0c-0.3-0.2-0.4-0.3-0.3-0.3c0.1-0.1,0.3-0.1,0.5,0
				c0.2,0.1,0.3,0.1,0.4,0.1c0,0,0.1-0.1,0.1-0.2c0-0.2-0.2-0.3-0.5-0.4c0,0-0.1,0-0.2-0.1c-0.1,0-0.1-0.1-0.2-0.1c0,0,0,0,0-0.1
				c0.1-0.1,0.4-0.1,0.5,0c0.1,0.1,0.2,0.1,0.2,0.1c0,0,0.1-0.1,0.1-0.2c0.1-0.6,0.1-2,0.1-2.4c0-0.3,0.1-0.3,0.1-0.3c0,0,0,0,0,0
				c0.1,0,0.2,0.1,0.2,0.3c0,0.3,0.1,1.8,0.1,2.4c0,0.1,0,0.1,0.1,0.2c0.1,0,0.2,0,0.4,0c0.2-0.1,0.3,0,0.3,0c0,0,0,0.1,0,0.2
				c-0.1,0.1-0.3,0.2-0.4,0.2c-0.1,0-0.3,0.1-0.3,0.3c0,0.2,0,0.3,0.1,0.4c0,0,0.1,0,0.2,0l0,0c0.1,0,0.1-0.1,0.2-0.1
				c0.1-0.1,0.2-0.1,0.3-0.1c0,0,0.1,0.1,0.1,0.1c0,0.1-0.1,0.2-0.4,0.3c-0.3,0.1-0.4,0.3-0.4,0.6c0,0.2,0,0.4,0.1,0.4
				c0.1,0,0.2,0,0.3,0c0.1,0,0.1,0,0.2,0c0.2,0,0.2,0,0.2,0.1c0,0.1-0.1,0.3-0.3,0.4c-0.2,0.1-0.4,0.2-0.4,0.5
				c0,0.3,0.1,0.3,0.2,0.3c0,0,0,0,0,0c0.2,0,0.6-0.1,0.9-0.3c0.3-0.2,1.1-0.3,1.3-0.1c0.1,0.1,0.2,0.2,0.2,0.3c0,0.1-0.1,0.1-0.3,0
				c-0.2,0-0.4,0.1-0.7,0.2c-0.3,0.1-0.5,0.2-0.8,0.2c-0.1,0-0.6-0.1-0.7,0c0,0,0,0,0,0.1c0,0.1,0,0.1,0.1,0.2
				c0.1,0.1,0.3,0,0.6-0.1c0.2,0,1.2-0.2,1.5-0.1c0.1,0.1,0.2,0.1,0.2,0.2c0,0.1,0,0.1-0.1,0.1c-0.1,0.1-0.2,0-0.3,0
				c-0.1-0.1-0.5,0-0.8,0c-0.4,0.1-0.9,0.1-1.1,0c-0.1,0-0.2-0.1-0.3,0c-0.1,0.1,0,0.4,0.1,0.5c0.2,0.2,1.1,0,1.4-0.2
				c0.4-0.2,0.7-0.3,1.2,0c0.2,0.1,0.2,0.3,0.2,0.3c-0.1,0.1-0.3,0.1-0.5,0.1c-0.2,0-0.5,0-0.8,0c-0.3,0-0.6,0.1-0.7,0
				c-0.3-0.1-0.7,0-0.8,0.2c-0.1,0.3-0.1,0.4,0,0.5c0,0.1,0.1,0.1,0.2,0.1c0.3,0,0.8-0.2,1.2-0.4l0.1,0c0.3-0.2,1-0.2,1.3,0
				c0.1,0.1,0.2,0.1,0.2,0.2c0,0.1-0.2,0.2-0.4,0.2c0,0-0.1,0-0.1,0c-0.4,0-0.7,0.1-0.9,0.3c-0.3,0.1-1,0.3-1.5,0.3
				c-0.1,0-0.1,0.1-0.1,0.1c0,0.1,0,0.1,0.1,0.1c0.3,0,1.1-0.1,1.5-0.2c0.2-0.1,0.5,0,0.8,0c0.3,0,0.5,0.1,0.8,0c0.1,0,0.2,0,0.2,0
				c0,0.1,0,0.2-0.1,0.2c-0.1,0.1-0.1,0.2-0.1,0.2c0.1,0.1,0.2,0.2,0,0.4c-0.1,0.1,0,0.2,0.1,0.4l0,0c0.1,0.1,0.1,0.2,0.1,0.3
				c0,0.1-0.1,0.1-0.2,0.1c-0.2,0-1.6,0.1-2.4,0c-0.5,0-0.6,0.1-0.7,0.2c-0.1,0.1,0,0.2,0,0.2c0.1,0.1,0.6,0.2,1,0
				c0.5-0.2,1.4-0.3,1.8-0.2c0.2,0.1,0.3,0.1,0.3,0.2c0,0.1-0.1,0.2-0.2,0.3c-0.1,0-0.4,0.1-0.8,0.1c-0.4,0-0.8,0-1.1,0.1
				c-0.3,0.1-0.4,0.1-0.5,0.2c0,0,0,0.1,0,0.1c0.1,0.1,0.8,0,1.3-0.1l0,0c0.6-0.1,1.6-0.2,1.9,0c0.1,0.1,0.1,0.2,0.1,0.3
				c-0.1,0.1-0.3,0.3-1,0.1c-0.5-0.1-2.3,0-2.8,0.1c-0.2,0.1-0.2,0.1-0.2,0.3c0,0.3,0,0.3,0.4,0.3c0,0,0,0,0.1,0
				c0.4,0,1.2-0.2,1.6-0.3c0.4-0.1,1.2-0.3,1.5-0.1c0.2,0.1,0.5,0.3,0.7,0.3c0,0,0.1,0,0.1,0c0.2,0,0.4,0,0.4,0.1c0,0.1,0,0.1,0,0.3
				c0,0.1-0.1,0.1,0,0.1c0,0,0.1,0,0.2,0.1c0.1,0,0.3,0,0.4,0.2c0.1,0.1,0.1,0.2,0,0.2c-0.1,0.1-0.3,0.2-0.8,0.1
				c-0.4-0.1-1.1,0.1-2,0.3c-0.5,0.1-1,0.2-1.5,0.3l-0.1,0c-0.6,0.1-0.8,0.1-0.8,0.3c0,0.2,0.1,0.2,0.3,0.2c0,0,0.1,0,0.1,0
				c0,0,0,0,0.1,0c0.5,0,1.8-0.4,2.5-0.6c0.1,0,0.2-0.1,0.3-0.1c0.3-0.1,0.4-0.1,0.4,0c0,0,0,0.1-0.1,0.2c0,0,0,0.1,0,0.1
				c0,0.1,0.4,0,0.9-0.3c0.5-0.3,1.4-0.1,1.8,0l0.1,0c0.2,0,0.3,0.2,0.3,0.3c0,0.1-0.1,0.2-0.2,0.2c-0.2,0-0.3,0.1-0.3,0.1
				c0,0.1,0,0.2,0.1,0.3c0.1,0.1,0.1,0.2,0.1,0.3c0,0.1-0.2,0.1-0.4,0.1c0,0-0.1,0-0.1,0c0,0,0,0,0,0c-0.4,0-1.2,0.3-1.6,0.6
				c-0.1,0.1-0.1,0.1-0.1,0.1c0,0,0.2,0,0.9-0.1c0.4-0.1,0.8,0,0.9,0.1c0,0.1,0,0.1,0,0.2c0,0,0,0,0,0c0.1,0.1,0.5,0.1,0.9,0.1
				c0.1,0,0.2,0,0.2,0c0.3,0,0.4,0.1,0.5,0.3c0,0.2-0.1,0.3-0.2,0.4c-0.3,0.1-0.8,0.2-1.2,0.2c-0.5,0-1.4,0.1-1.8,0.3
				c-0.1,0.1-0.1,0.1-0.1,0.1c0,0,0.3,0.1,0.6,0c0.3-0.1,1.1-0.1,1.2,0.1c0,0.1,0,0.1,0.1,0.1c0.1,0,0.2,0,0.3,0
				c0.2-0.1,0.6-0.2,1.1-0.1c0.3,0,0.5,0.2,0.5,0.4c0,0.1,0,0.2-0.2,0.3c-0.1,0-0.1,0.1-0.1,0.1c0,0.1,0.2,0.2,0.3,0.3
				c0.2,0.1,0.3,0.2,0.3,0.3c0,0.1-0.4,0.2-0.6,0.1c-0.2,0-0.5,0-0.7,0.1c-0.2,0.1-0.3,0.1-0.5,0.1c-0.2,0-0.3,0.1-0.4,0.1
				c0,0,0,0.1,0.1,0.1c0.1,0.1,0.2,0.1,0.1,0.2c0,0.2-0.3,0.3-0.5,0.4c-0.2,0.1-1,0.3-1.5,0.3c-0.2,0-0.2,0.1-0.3,0.1
				c0,0.1,0.2,0.2,0.4,0.2c0,0,0.1,0,0.1,0c0.5,0,1.6-0.4,2.2-0.6c0.3-0.1,0.5-0.1,0.6,0c0.1,0.1,0.1,0.2,0.1,0.3
				c0,0.1,0,0.2,0.1,0.2c0,0,0.1,0,0.1,0c0,0,0.1-0.1,0.1-0.2c0-0.3,0.3-0.4,0.6-0.6l0.1,0c0.2-0.1,0.4-0.2,0.5-0.1
				c0.1,0.1,0,0.2,0,0.4c-0.2,0.5-0.9,0.9-1.6,1.2c-0.5,0.2-1,0.3-1.4,0.4c-0.3,0.1-0.6,0.1-0.9,0.2c-0.3,0.1-0.3,0.1-0.3,0.2
				c0,0,0,0,0.1,0.1c0.1,0,0.1,0.1,0.1,0.1c0,0.1-0.1,0.1-0.2,0.2c-0.1,0-0.1,0.1-0.1,0.2c0,0,0,0.1,0,0.1c0,0,0.2,0.1,0.5-0.1
				c0.6-0.4,2.2-0.6,2.9-0.6c0,0,0,0,0.1,0c0.4,0,0.7,0.1,0.8,0.3c0,0.1,0,0.2-0.2,0.3c-0.5,0.3-1.3,0.2-1.7,0.1
				c-0.2-0.1-0.3,0-0.3,0s0,0.1,0,0.1c0,0.1,0,0.2,0,0.2c0,0.1-0.2,0-0.4,0l-0.1,0c0,0-0.1,0-0.1,0c-0.4,0-0.9,0.2-1.1,0.3
				c-0.1,0.1-0.2,0.2-0.1,0.3c0.1,0.1,0.3,0.2,0.5,0c0.4-0.2,1.2-0.4,1.5-0.4c0.2,0,0.3,0,0.4,0.1c0,0,0,0.1,0,0.1c0,0,0,0.1,0,0.1
				c0,0,0.2,0.1,0.4,0c0.3-0.1,1.3,0,1.8,0.3c0.2,0.2,0.2,0.3,0.2,0.4c0,0.1-0.2,0.2-0.3,0.1c-0.1,0-0.2,0-0.3,0.1
				c-0.2,0.1-0.5,0.2-0.9,0.1c-0.4-0.1-0.7,0-1.1,0.1c-0.3,0.1-0.5,0.1-0.9,0.2c-0.4,0-0.5,0.1-0.5,0.1c0,0,0.1,0.1,0.3,0.2
				c0.3,0.1,1,0,1.3-0.1c0.2-0.1,0.3-0.1,0.4-0.1c0,0,0.1,0.1,0,0.2c0,0.1,0,0.1,0,0.1c0.1,0,0.3,0,0.4-0.1l0,0
				c0.2-0.1,0.4-0.3,1.1-0.3c0,0,0,0,0.1,0c0.3,0,0.4,0.1,0.5,0.1c0,0,0,0.1,0,0.1c-0.1,0.1-0.3,0.2-0.5,0.2c0,0,0,0-0.1,0
				c-0.2,0-0.4,0.1-0.6,0.1c-0.3,0.1-0.7,0.3-1.4,0.2c-0.1,0-0.1,0-0.2,0c-0.7,0-1.2,0.3-1.6,0.5c-0.1,0-0.1,0.1-0.2,0.1
				c-0.4,0.2-0.4,0.3-0.4,0.3c0,0.1,0.1,0.1,0.2,0.1c0,0,0,0,0,0c0.2,0,0.5-0.1,0.7-0.3c0.1-0.1,0.2-0.1,0.3-0.1c0,0,0,0.1,0,0.1
				c0,0.1,0,0.1,0,0.1c0,0,0.1,0,0.2,0c0.2,0,0.4-0.2,0.7-0.4c0.1-0.1,0.2-0.1,0.3-0.2c0.3-0.2,0.7-0.2,0.9-0.1
				c0.1,0,0.1,0.1,0.1,0.2s0,0.1,0.1,0.1c0.1,0,0.2,0,0.3-0.1c0.2-0.3,0.5-0.3,1-0.3c0.6,0,0.7,0.1,0.8,0.2c0,0.1-0.1,0.2-0.4,0.4
				c-1.1,0.6-1.9,0.7-2.6,0.7c-0.3,0-0.6,0-0.8,0.1c-0.6,0.2-0.9,0.3-1.3,0.3c-0.3,0-0.6,0.1-0.9,0.2c-0.3,0.1-0.3,0.2-0.3,0.2
				c0,0,0.2,0.1,0.5,0c0.5-0.2,1.7-0.5,1.9-0.2c0.2,0.3,0.5,0.2,0.9,0c0.1,0,0.2-0.1,0.3-0.1c0.5-0.2,1.1-0.3,1.2-0.1
				c0.1,0.2,0.3,0.3,0.6,0.1c0.4-0.2,1-0.2,1.4,0.1c0.3,0.2,0.3,0.3,0.3,0.4c0,0.1-0.2,0.2-0.4,0.1c0,0,0,0,0,0
				c-0.2,0-0.3,0.1-0.5,0.2c-0.1,0-0.1,0.1-0.2,0.1c-0.3,0.2-0.7,0.3-1.1,0.2l0,0c-0.4-0.1-0.8-0.3-1.4-0.2
				c-0.5,0.1-0.5,0.2-0.5,0.2c0,0,0,0,0.1,0c0.2,0,0.2,0.1,0.2,0.1c0,0.1-0.1,0.1-0.2,0.2c0,0-0.1,0.1-0.1,0.1
				c0,0.1,0.3,0.2,0.5,0.1c0.1,0,0.2-0.1,0.3-0.1c0.3-0.1,0.6-0.2,1-0.2c0.1,0,0.1,0,0.2,0c0.3,0,0.4,0.1,0.5,0.1
				c0,0.1,0,0.2-0.1,0.3c0,0-0.1,0.1,0,0.1c0.1,0.1,0.4,0,0.5-0.2c0.5-0.5,0.9-0.5,1.4-0.2c0,0,0.1,0.1,0.1,0.1
				c0.2,0.2,0.4,0.3,0.3,0.4c0,0.1-0.4,0.2-1.3,0.3c-0.9,0.1-2-0.1-3-0.2c-0.9-0.1-1.8-0.2-2.5-0.2c-0.2,0-0.8,0.1-0.9,0.1
				c0,0,0,0.1,0.3,0.2c0.5,0.2,1.8,0.2,2.6,0.1c0.4,0,0.6,0,0.7,0.2c0,0,0,0.1,0,0.2c-0.1,0.1-0.1,0.1-0.1,0.2c0,0,0.1,0,0.4-0.1
				c0.5-0.3,1.1-0.3,1.3-0.1c0.1,0.1,0.1,0.2,0,0.3c0,0.1,0,0.1,0,0.1c0.1,0,0.3,0,0.4-0.1c0.2-0.2,0.8-0.3,1.3-0.1
				c0.3,0.1,0.5,0.2,0.5,0.4c0,0.2-0.3,0.3-1,0.3c-0.8,0.1-3.6,0-4.9-0.3c-0.5-0.1-0.8,0-0.8,0.1c0,0,0,0,0,0c0.2,0.2,1.5,0.4,2,0.3
				c0.5,0,0.7,0,0.7,0.1c0,0.1,0,0.1,0,0.2c0,0,0,0.1,0,0.1c0,0,0.3,0,0.7-0.2c0.4-0.2,0.8-0.1,0.9,0c0.1,0,0.1,0.1,0.1,0.2
				c0,0,0,0.1,0,0.1c0.1,0.1,0.3-0.1,0.4-0.1l0,0c0.3-0.1,0.6-0.2,1.2-0.2c0.3,0,0.7,0,0.7,0.2c0,0.1,0,0.2-0.2,0.3
				c-1.7,1.1-4.7,0.5-5.4,0.2c-0.3-0.1-0.5-0.2-0.7-0.3c-0.2-0.1-0.4-0.2-0.5-0.2c0,0-0.1,0-0.2,0c-0.2,0-0.3,0.1-0.2,0.2
				c0,0.1,0.1,0.2,0.2,0.2l0.1,0l-0.1,0c-0.3,0.3-0.7,0.4-1.1,0.3c-0.1,0-0.2,0-0.2,0c0,0.1,0,0.2,0.3,0.5l0,0l-0.1,0c0,0,0,0,0,0
				c-0.4,0-1-0.2-1.6-0.3c-0.2-0.1-0.4-0.1-0.5-0.1l0,0c-0.2,0-0.4-0.1-0.6,0c-0.2,0.1-0.3,0.5-0.3,1.1c-0.1,1,0.1,3.6,0.2,4.8
				c0,0.3,0,0.6,0.1,0.7c0,0.2,0,0.4-0.1,0.5C-231.7,416-231.9,416-232.2,416z M-232.9,416c0.2,0,0.3,0,0.5,0c0.5,0,0.7,0,0.8-0.1
				c0.1-0.1,0.1-0.2,0-0.4c0-0.1,0-0.4-0.1-0.7c-0.1-1.2-0.3-3.8-0.2-4.9c0.1-0.6,0.2-1,0.4-1.1c0.2-0.1,0.4-0.1,0.6,0l0,0
				c0.1,0,0.3,0.1,0.5,0.1c0.5,0.1,1.1,0.3,1.5,0.3c-0.2-0.2-0.3-0.4-0.2-0.5c0-0.1,0.1-0.1,0.2,0c0.3,0.1,0.7,0,1-0.3
				c-0.1,0-0.2-0.1-0.2-0.2c0-0.1,0-0.2,0.3-0.2c0.3,0,0.5,0,0.7,0.2c0.2,0.1,0.4,0.2,0.6,0.3c0.7,0.2,3.6,0.8,5.3-0.2
				c0.1-0.1,0.2-0.2,0.2-0.2c0-0.1-0.2-0.2-0.7-0.2c-0.6,0-0.9,0.1-1.1,0.2l0,0c-0.3,0.1-0.4,0.2-0.5,0.1c0,0,0-0.1,0-0.2
				c0,0,0-0.1,0-0.1c-0.1-0.1-0.5-0.1-0.8,0c-0.2,0.1-0.7,0.3-0.8,0.2c0,0,0-0.1,0-0.2c0-0.1,0-0.1,0-0.2c-0.1-0.1-0.4-0.1-0.7-0.1
				c-0.5,0-1.9-0.1-2.1-0.4c0,0,0-0.1,0-0.1c0-0.2,0.4-0.2,0.9-0.1c1.3,0.3,4.1,0.3,4.9,0.3c0.8-0.1,0.9-0.2,0.9-0.3
				c0-0.1-0.2-0.3-0.5-0.3c-0.5-0.2-1.1,0-1.2,0.1c-0.1,0.1-0.3,0.2-0.4,0.2c0,0-0.1,0-0.1,0c0,0-0.1-0.1,0-0.2c0-0.1,0-0.1,0-0.2
				c-0.2-0.2-0.7-0.1-1.2,0.1c-0.2,0.1-0.4,0.2-0.5,0.1c0,0,0-0.1,0.1-0.2c0,0,0.1-0.1,0-0.1c0-0.1-0.2-0.2-0.6-0.1
				c-0.7,0.1-2.1,0.1-2.6-0.1c-0.3-0.1-0.4-0.2-0.4-0.3c0-0.1,0.2-0.1,0.9-0.2c0.7-0.1,1.6,0.1,2.5,0.2c1,0.1,2.1,0.3,3,0.2
				c0.6-0.1,1.2-0.1,1.3-0.3c0-0.1-0.1-0.2-0.3-0.3c0,0-0.1,0-0.1-0.1c-0.4-0.3-0.8-0.3-1.3,0.2c-0.2,0.2-0.5,0.3-0.6,0.2
				c0,0-0.1-0.1,0-0.2c0.1-0.1,0.1-0.2,0.1-0.2c0,0-0.1-0.1-0.4-0.1c-0.1,0-0.1,0-0.2,0c-0.4,0-0.7,0.1-1,0.2
				c-0.1,0-0.2,0.1-0.3,0.1c-0.3,0.1-0.6,0-0.6-0.2c0,0,0-0.1,0.1-0.2c0.2-0.1,0.2-0.1,0.2-0.2c0,0-0.1-0.1-0.2-0.1
				c-0.1,0-0.2,0-0.2-0.1c0-0.1,0.3-0.2,0.6-0.2c0.6-0.1,1.1,0.1,1.4,0.2l0,0c0.4,0.1,0.8,0,1-0.2c0.1,0,0.1-0.1,0.2-0.1
				c0.2-0.1,0.3-0.3,0.6-0.3c0,0,0.1,0,0.1,0c0.1,0,0.2,0,0.3-0.1c0-0.1-0.1-0.2-0.2-0.3c-0.4-0.3-1-0.3-1.4-0.1
				c-0.4,0.2-0.6,0-0.7-0.1c-0.1-0.2-0.6-0.2-1.1,0.1c-0.1,0-0.2,0.1-0.3,0.1c-0.4,0.2-0.7,0.3-1,0c-0.1-0.2-1,0-1.8,0.2
				c-0.3,0.1-0.6,0.1-0.6,0c0-0.1,0.2-0.3,0.4-0.3c0.3-0.2,0.6-0.2,1-0.2c0.3,0,0.7-0.1,1.3-0.3c0.2-0.1,0.5-0.1,0.9-0.1
				c0.6,0,1.4,0,2.5-0.7c0.2-0.1,0.4-0.2,0.4-0.3c0,0-0.1-0.1-0.7-0.1c-0.1,0-0.1,0-0.2,0c-0.5,0-0.7,0.1-0.8,0.3
				c-0.1,0.2-0.3,0.2-0.4,0.2c-0.1,0-0.1-0.1-0.1-0.2c0,0,0-0.1-0.1-0.1c-0.1-0.1-0.5-0.1-0.8,0.1c-0.1,0.1-0.2,0.1-0.3,0.2
				c-0.3,0.2-0.5,0.3-0.7,0.4c-0.1,0-0.2,0-0.2,0c0,0,0-0.1,0-0.2c0,0,0-0.1,0-0.1c0,0-0.1,0-0.3,0.1c-0.2,0.1-0.5,0.3-0.7,0.3
				c0,0,0,0,0,0c-0.1,0-0.2-0.1-0.3-0.2c0-0.1,0.1-0.3,0.4-0.4c0.1,0,0.1-0.1,0.2-0.1c0.5-0.3,1-0.5,1.6-0.5c0.1,0,0.1,0,0.2,0
				c0.7,0.1,1.1-0.1,1.4-0.2c0.2-0.1,0.4-0.2,0.6-0.2c0,0,0,0,0,0c0.2,0,0.4-0.1,0.5-0.2c0,0,0-0.1,0-0.1c0,0-0.1-0.1-0.4-0.1
				c0,0,0,0-0.1,0c-0.7,0-0.9,0.2-1.1,0.3l0,0c-0.1,0.1-0.4,0.2-0.5,0.1c0,0-0.1-0.1-0.1-0.2c0-0.1,0-0.1,0-0.2
				c-0.1,0-0.2,0-0.3,0.1c-0.3,0.1-1,0.2-1.3,0.1c-0.3-0.1-0.4-0.2-0.4-0.2c0-0.1,0.1-0.1,0.5-0.1c0.3,0,0.6-0.1,0.9-0.2
				c0.4-0.1,0.7-0.2,1.1-0.1c0.4,0.1,0.6,0,0.8-0.1c0.1,0,0.2-0.1,0.3-0.1c0.1,0,0.2,0,0.3-0.1c0-0.1,0-0.2-0.2-0.3
				c-0.4-0.3-1.4-0.3-1.7-0.3c-0.2,0-0.4,0.1-0.5-0.1c0,0,0-0.1,0-0.1c0,0,0-0.1,0-0.1c0,0-0.1-0.1-0.3-0.1c0,0,0,0-0.1,0
				c-0.3,0-1.1,0.2-1.5,0.4c-0.3,0.1-0.5,0.1-0.6-0.1c-0.1-0.1,0-0.2,0.2-0.3c0.2-0.1,0.8-0.3,1.2-0.3c0,0,0.1,0,0.1,0l0.1,0
				c0.2,0,0.3,0,0.3,0c0,0,0,0,0-0.1c0-0.1,0-0.1,0-0.2c0.1-0.1,0.2-0.1,0.4,0c0.4,0.1,1.2,0.1,1.6-0.1c0.1-0.1,0.2-0.2,0.2-0.2
				c0-0.1-0.3-0.2-0.7-0.2c0,0,0,0-0.1,0c-0.7,0-2.2,0.2-2.9,0.6c-0.3,0.2-0.5,0.2-0.6,0.1c-0.1,0-0.1-0.1-0.1-0.1
				c0-0.1,0.1-0.2,0.1-0.2c0.2-0.1,0.2-0.2,0.2-0.2c0,0,0-0.1-0.1-0.1c0,0-0.1-0.1-0.1-0.1c0-0.1,0.1-0.1,0.3-0.2
				c0.3-0.1,0.6-0.2,1-0.2c0.4-0.1,0.9-0.1,1.4-0.4c0.6-0.3,1.3-0.6,1.5-1.2c0.1-0.2,0.1-0.3,0-0.3c-0.1,0-0.2,0-0.4,0.1l-0.1,0
				c-0.4,0.1-0.6,0.3-0.6,0.5c0,0.1,0,0.2-0.1,0.2c-0.1,0-0.1,0-0.2,0c-0.1,0-0.1-0.1-0.1-0.3c0-0.1,0-0.2-0.1-0.3
				c-0.1-0.1-0.3-0.1-0.6,0c-0.1,0-1.6,0.6-2.2,0.6c0,0-0.1,0-0.1,0c-0.3,0-0.5-0.2-0.5-0.3c0-0.1,0-0.1,0.3-0.2
				c0.6,0,1.3-0.3,1.5-0.3c0.3-0.1,0.4-0.2,0.4-0.3c0,0,0-0.1-0.1-0.1c-0.2-0.1-0.2-0.2-0.1-0.2c0-0.1,0.2-0.2,0.4-0.2
				c0.1,0,0.3-0.1,0.4-0.1c0.2-0.1,0.5-0.2,0.7-0.1c0.3,0,0.5,0,0.6-0.1c0-0.1-0.1-0.1-0.2-0.2c-0.2-0.1-0.3-0.2-0.3-0.3
				c0-0.1,0.1-0.1,0.2-0.2c0.1-0.1,0.1-0.1,0.1-0.2c0-0.1-0.2-0.3-0.4-0.3c-0.5-0.1-0.9,0-1.1,0.1c-0.2,0.1-0.3,0.1-0.4,0
				c-0.1,0-0.1-0.1-0.1-0.2c0-0.2-0.7-0.2-1.1-0.1c-0.2,0.1-0.6,0.1-0.7-0.1c0-0.1,0.1-0.1,0.2-0.2c0.4-0.2,1.4-0.4,1.9-0.4
				c0.4,0,0.9-0.1,1.2-0.2c0.1,0,0.2-0.2,0.2-0.3c0-0.1-0.2-0.2-0.4-0.2c-0.1,0-0.3,0-0.5,0c-0.4,0-0.7,0-0.7-0.1c0,0,0-0.1,0-0.1
				c0,0,0-0.1,0-0.1c-0.1-0.1-0.4-0.2-0.9-0.1c-1,0.2-1,0.1-1,0.1c0,0,0-0.1,0.1-0.2c0.4-0.3,1.2-0.6,1.7-0.6c0,0,0,0,0,0
				c0.3,0,0.4,0,0.5-0.1c0-0.1,0-0.2-0.1-0.2c-0.1-0.2-0.2-0.3-0.1-0.4c0-0.1,0.1-0.1,0.3-0.2c0.1,0,0.2-0.1,0.2-0.2
				c0-0.1-0.1-0.2-0.2-0.2l-0.1,0c-0.4-0.1-1.3-0.3-1.7,0c-0.5,0.3-0.9,0.4-1,0.2c0,0,0-0.1,0-0.2c0.1-0.1,0.1-0.1,0.1-0.1
				c0,0-0.1,0-0.3,0.1c-0.1,0-0.2,0.1-0.3,0.1c-0.8,0.2-2.1,0.6-2.6,0.6c0,0,0,0-0.1,0c0,0-0.1,0-0.1,0c-0.2,0-0.4,0-0.4-0.3
				c0-0.3,0.2-0.3,0.8-0.4l0.1,0c0.5-0.1,1-0.2,1.5-0.3c0.9-0.2,1.6-0.3,2-0.3c0.6,0.1,0.7,0,0.7-0.1c0,0,0-0.1,0-0.2
				c-0.1-0.1-0.2-0.1-0.3-0.2c-0.1,0-0.2,0-0.2-0.1c0,0,0-0.1,0-0.2c0.1-0.1,0.1-0.1,0-0.2c0-0.1-0.2-0.1-0.4-0.1c0,0-0.1,0-0.1,0
				c-0.3,0-0.6-0.1-0.8-0.3c-0.2-0.2-1-0.1-1.4,0.1c-0.4,0.1-1.2,0.3-1.6,0.3c0,0,0,0-0.1,0c-0.4,0-0.5,0-0.5-0.4
				c0-0.2,0-0.2,0.3-0.3c0.5-0.2,2.3-0.2,2.8-0.1c0.8,0.2,0.9,0,1-0.1c0-0.1,0-0.2-0.1-0.2c-0.3-0.3-1.3-0.1-1.8,0l0,0
				c-0.6,0.1-1.2,0.2-1.4,0.1c-0.1-0.1-0.1-0.1-0.1-0.2c0-0.1,0.2-0.2,0.5-0.3c0.3,0,0.7-0.1,1.1-0.1c0.4,0,0.7,0,0.8-0.1
				c0.1,0,0.2-0.1,0.2-0.2c0-0.1-0.1-0.1-0.2-0.2c-0.4-0.1-1.3,0-1.8,0.2c-0.4,0.1-1,0.1-1.1-0.1c-0.1-0.1-0.1-0.2,0-0.3
				c0.1-0.1,0.2-0.3,0.7-0.2c0.8,0.1,2.1,0,2.3,0c0.1,0,0.2-0.1,0.2-0.1c0-0.1,0-0.1-0.1-0.2l0,0c-0.1-0.2-0.3-0.3-0.1-0.5
				c0.1-0.1,0.1-0.2,0-0.3c-0.1-0.1,0-0.3,0.1-0.3c0,0,0.1-0.1,0.1-0.1c0,0,0,0-0.1,0c-0.2,0-0.5,0-0.8,0c-0.3,0-0.6-0.1-0.8,0
				c-0.4,0.1-1.2,0.2-1.5,0.2c-0.1,0-0.1-0.1-0.1-0.2c0-0.1,0.1-0.2,0.2-0.2c0.4-0.1,1.2-0.2,1.5-0.3c0.3-0.1,0.6-0.3,1-0.3
				c0,0,0.1,0,0.1,0c0.2,0,0.4-0.1,0.4-0.1c0,0,0-0.1-0.2-0.1c-0.4-0.2-1-0.1-1.3,0l-0.1,0c-0.3,0.2-0.8,0.4-1.2,0.4
				c0,0-0.1,0-0.1,0c-0.1,0-0.2-0.1-0.3-0.1c-0.1-0.1-0.1-0.3,0-0.6c0.1-0.3,0.6-0.3,0.9-0.2c0.1,0,0.4,0,0.7,0c0.3,0,0.7-0.1,0.9,0
				c0.2,0,0.4,0,0.4-0.1c0-0.1,0-0.1-0.2-0.2c-0.4-0.3-0.7-0.2-1.1,0c-0.4,0.2-1.3,0.4-1.5,0.1c-0.2-0.1-0.2-0.4-0.1-0.6
				c0-0.1,0.1-0.1,0.3,0c0.2,0.1,0.7,0.1,1.1,0c0.4,0,0.7-0.1,0.9,0c0.1,0.1,0.2,0.1,0.2,0c0,0,0-0.1,0-0.1c0-0.1-0.1-0.1-0.1-0.2
				c-0.3-0.1-1.2,0-1.5,0.1c-0.4,0.1-0.6,0.1-0.7,0c-0.1,0-0.1-0.1-0.1-0.2c0,0,0-0.1,0.1-0.1c0.2-0.1,0.6-0.1,0.7,0
				c0.2,0.1,0.5-0.1,0.7-0.2c0.3-0.1,0.5-0.2,0.7-0.2c0.2,0,0.2,0,0.2,0c0,0,0-0.1-0.1-0.2c-0.2-0.1-0.9-0.1-1.2,0.1
				c-0.3,0.2-0.7,0.3-0.9,0.3c0,0,0,0,0,0c-0.2,0-0.3-0.1-0.3-0.4c0-0.3,0.2-0.4,0.4-0.5c0.2-0.1,0.3-0.3,0.3-0.3c0,0-0.1,0-0.1,0
				c-0.1,0-0.1,0-0.2,0c-0.2,0-0.3,0.1-0.4,0c-0.1-0.1-0.1-0.2-0.1-0.4c0-0.3,0-0.5,0.4-0.6c0.2,0,0.3-0.2,0.3-0.2c0,0,0-0.1,0-0.1
				c-0.1,0-0.1,0-0.2,0.1c-0.1,0-0.1,0.1-0.2,0.1l0,0c-0.1,0-0.2,0.1-0.2,0c-0.1,0-0.1-0.2-0.1-0.4c0-0.3,0.2-0.4,0.3-0.4
				c0.2,0,0.3-0.1,0.4-0.2c0,0,0-0.1,0-0.1c0,0-0.1,0-0.2,0c-0.2,0.1-0.4,0.1-0.4,0c-0.1,0-0.1-0.1-0.1-0.2c0-0.6-0.1-2.1-0.1-2.4
				c0-0.2-0.1-0.3-0.1-0.3c0,0,0,0,0,0c0,0-0.1,0.1-0.1,0.2c0,0.4,0,1.8-0.1,2.4c0,0.1,0,0.2-0.1,0.2c-0.1,0-0.2,0-0.3-0.1
				c-0.1-0.1-0.4-0.1-0.4,0c0,0,0,0,0,0c0,0,0,0,0.1,0.1c0.1,0,0.1,0,0.2,0.1c0.3,0.1,0.5,0.2,0.5,0.5c0,0.1,0,0.2-0.1,0.3
				c-0.1,0.1-0.2,0-0.4-0.1c-0.2-0.1-0.4-0.1-0.4,0c0,0,0,0.1,0.3,0.3l0,0c0.6,0.4,0.6,0.4,0.6,0.8c0,0.2,0,0.3-0.1,0.3
				c-0.1,0.1-0.3,0-0.5-0.1c-0.3-0.1-0.5-0.1-0.5,0c0,0,0,0.1,0.2,0.2c0.6,0.3,0.9,0.6,0.9,1c0,0.2-0.1,0.3-0.2,0.4
				c-0.1,0-0.3,0-0.5-0.3c-0.4-0.5-1.1-0.7-1.5-0.7c-0.2,0-0.2,0.1-0.2,0.1c0,0.1,0.2,0.2,0.6,0.4c0.6,0.2,1.5,0.6,1.7,0.9
				c0.1,0.1,0.1,0.2,0.1,0.3c-0.1,0.1-0.3,0.1-0.5,0c-0.7-0.3-1.7-0.6-2-0.5c-0.2,0.1-0.3,0.2-0.3,0.2c0,0,0,0.1,0.4,0.1
				c0.6,0,1.7,0.2,2.2,0.4c0.4,0.1,0.5,0.4,0.5,0.5c0,0.1-0.1,0.2-0.4,0.1c-0.7-0.2-2.1-0.4-2.5-0.2c-0.3,0.2-0.4,0.3-0.3,0.3
				c0,0,0.1,0.1,0.5,0c0.7-0.1,1.7-0.1,2.1,0.1c0,0,0.1,0,0.1,0c0.2,0.1,0.3,0.1,0.3,0.4c0,0.1,0,0.2-0.1,0.3
				c-0.1,0.1-0.3,0-0.7-0.1c-0.5-0.2-1.8-0.6-2.2-0.2c-0.3,0.2-0.3,0.3-0.2,0.3c0,0,0.1,0,0.5,0c0.6-0.1,1.5,0,2,0.1
				c0.7,0.1,0.7,0.2,0.7,0.3c0,0,0,0.1-0.5,0.1c-0.1,0-0.3,0-0.5,0c-0.8,0-1.9,0-2.2-0.1c-0.4-0.1-1-0.2-1.2-0.2
				c-0.1,0-0.1,0.1-0.1,0.1c0,0,0.1,0.1,0.2,0.1c0.1,0,0.2,0.1,0.3,0.2c0,0.1,0,0.1,0,0.2c-0.1,0.1-0.1,0.1-0.1,0.2
				c0,0,0.1,0.1,0.4,0c0.5-0.1,1.3-0.1,1.7,0.1c0.4,0.1,1,0.3,1.5,0.4c0.6,0.1,0.6,0.1,0.6,0.5c0,0.1,0,0.1-0.1,0.1
				c-0.2,0.1-0.8-0.1-1.2-0.4c-0.6-0.4-1.7-0.6-2.3-0.2c-0.3,0.2-0.3,0.3-0.3,0.3c0,0,0.2,0.1,0.5,0c0.5-0.1,1.9,0.2,2.4,0.3
				c0.1,0,0.3,0.1,0.4,0.1c0.3,0.1,0.5,0.1,0.5,0.5c0,0.1,0,0.1-0.1,0.2c-0.1,0.1-0.3,0-0.6-0.1c0,0-0.1,0-0.1,0
				c-1.3-0.5-2.9-0.6-3.5-0.5c-0.3,0-0.3,0.1-0.3,0.1c0,0,0,0,0,0.1c0,0,0.1,0.1,0,0.1c0,0.1-0.1,0.2-0.3,0.2
				c-0.1,0-0.5,0.1-0.7,0.3c-0.1,0-0.1,0.1-0.1,0.1c0,0,0,0.1,0.3,0c0.2,0,0.6,0,0.7,0.1c0,0,0,0.1-0.1,0.1
				c-0.1,0.1-0.3,0.2-0.3,0.3c0,0,0,0.1,0.2,0.1c1.2,0.1,3,0.9,3.7,1.2c0.1,0.1,0.2,0.1,0.3,0.1c0.4,0.2,0.5,0.3,0.5,0.6
				c0,0.1,0,0.2-0.1,0.2c-0.2,0.1-0.5,0-0.6-0.1c-0.6-0.3-1.2-0.4-1.7-0.5c-0.5-0.1-0.8-0.2-1.1-0.3c-0.5-0.3-1.4-0.9-1.9-0.5
				c-0.3,0.2-0.4,0.3-0.3,0.4c0,0,0.1,0.1,0.4,0.1c0.4,0,0.8,0,0.9,0.1c0,0,0,0.1,0,0.2l0,0c-0.1,0.1-0.2,0.2-0.1,0.3
				c0,0.1,0.2,0.1,0.6,0.2c1,0.1,2.7,0.8,3.5,1.1c0.5,0.2,0.6,0.3,0.6,0.4c0,0.1-0.1,0.1-0.3,0.1c-0.3,0-0.4,0-0.6-0.1
				c-0.2-0.1-0.4-0.2-0.8-0.2c-0.5,0-1.2-0.3-1.5-0.6c-0.4-0.3-0.6-0.4-1.1-0.3c-0.6,0.1-1.4,0.2-1.7,0.3c-0.2,0.1-0.3,0.2-0.2,0.3
				c0,0.1,0.1,0.1,0.3,0.1c0.3,0,0.5,0.1,0.6,0.3c0,0,0,0.2-0.2,0.2c-0.1,0-0.2,0.1-0.3,0.1c-0.3,0.1-0.5,0.1-0.6,0.3
				c0,0,0,0.1,0,0.1c0,0.1,0.2,0.1,0.6,0.1c0.5,0,1.3,0.1,2.1,0.5c0.1,0,0.2,0.1,0.3,0.1c0.8,0.4,2.6,1.3,3.1,1.3
				c0.5,0,0.6,0.1,0.6,0.4c0,0.1,0,0.2-0.1,0.2c-0.1,0.1-0.3,0-0.6-0.1l0,0c-0.4-0.1-1.8-0.5-2.2-0.9c-0.4-0.4-0.8-0.7-1.2-0.7
				c-0.2,0-0.2,0-0.2,0c0,0,0.1,0.1,0.1,0.2c0.1,0.1,0.1,0.3,0.1,0.4c0,0-0.1,0.1-0.2-0.1c-0.1-0.1-0.1-0.1-0.2-0.2
				c-0.3-0.3-0.6-0.6-1-0.6c-0.5,0-1.1,0-1.3,0.2c-0.1,0.1-0.2,0.1-0.2,0.2c0,0.1,0.2,0.2,0.4,0.2c0.6,0.1,1.3,0.3,1.6,0.5
				c0.2,0.1,0.2,0.2,0.2,0.3c0,0.1-0.1,0.1-0.3,0.1c0,0-0.1,0-0.1,0c-0.1,0-0.1,0-0.1,0c0,0,0.1,0.1,0.3,0.3
				c0.2,0.1,0.4,0.3,0.4,0.5c0,0,0,0.1-0.1,0.1c-0.2,0-0.5-0.1-0.7-0.3c-0.2-0.1-0.4-0.3-0.5-0.3c0,0,0,0,0,0c0,0-0.1,0-0.1,0
				c0,0,0,0.1,0.2,0.2c0.1,0.1,0.1,0.2,0.1,0.3c0,0.1,0,0.1-0.1,0.1c0,0-0.1,0-0.2-0.1c-0.4-0.3-0.8-0.6-1.4-0.4
				c-0.5,0.2-0.6,0.3-0.6,0.4c0,0.1,0.1,0.2,0.2,0.2c0.4,0.2,0.6,0.3,0.7,0.5c0,0.1,0,0.2-0.1,0.2c-0.1,0.1-0.1,0.1-0.1,0.2
				c0,0.1,0.1,0.1,0.5,0.2c0.4,0,0.9,0.2,1.1,0.4c0.1,0.1,0.1,0.2,0.1,0.2c-0.1,0.1-0.2,0.1-0.4,0c-0.2-0.1-0.8-0.2-1,0.1
				c-0.1,0.1-0.1,0.1-0.1,0.2c0,0.1,0.3,0.2,0.6,0.2c0.8,0.1,1.7,0.3,2.4,0.5c0.7,0.1,1.2,0.3,1.7,0.3c0.9,0.1,1.6,0.3,2.1,0.4
				c0.2,0.1,0.3,0.2,0.3,0.3c0,0.1,0,0.2-0.1,0.3c-0.1,0.1-0.2,0.1-0.3,0c-0.6-0.3-0.9-0.4-1.1-0.5c-0.1,0-0.1,0-0.1,0
				c0,0,0,0.1,0,0.2c0,0.1,0,0.2-0.1,0.2c-0.1,0-0.2,0-0.4-0.1c-0.2-0.2-0.9-0.6-1.3-0.7c-0.2,0-0.3,0-0.3,0c0,0,0,0.1,0,0.1l0,0
				c0,0.1,0.1,0.2,0,0.3c-0.1,0-0.2,0-0.3-0.1c-0.3-0.3-1-0.6-1.5-0.6c0,0,0,0-0.1,0c-0.2,0-0.2,0-0.2,0.1c0,0,0,0.1,0,0.1l0,0
				c0,0.1,0,0.2-0.1,0.3c0,0-0.1,0.1-0.3-0.1c-0.1-0.2-0.6-0.7-1.1-0.4c0,0-0.1,0.1-0.1,0.1c-0.2,0.1-0.4,0.2-0.6,0.3
				c-0.1,0-0.2,0.1-0.2,0.1c0,0,0.1,0.1,0.4,0.2c0.5,0.1,0.9,0.1,1.2,0.1c0.4,0,0.7,0,1,0.1c0.6,0.2,1.1,0.3,1.3,0.3
				c0.1,0,0.3,0.1,0.3,0.2c0,0,0,0.1-0.1,0.1c-0.1,0-0.1,0.1-0.1,0.1c0,0.1,0.1,0.2,0.2,0.3c0.1,0.1,0.1,0.2,0.1,0.3
				c0,0.1-0.1,0.1-0.1,0.1c0,0-0.1,0-0.2-0.1c-0.2-0.3-0.5-0.3-0.8-0.4c-0.2,0-0.3-0.1-0.4-0.2c-0.2-0.2-0.2-0.2-0.2-0.2
				c0,0,0,0.1,0,0.1c0,0.1,0,0.2-0.1,0.2c-0.1,0-0.2,0-0.3-0.1c-0.7-0.6-1.6-0.5-2-0.2c-0.1,0-0.2,0.2-0.2,0.2
				c0,0.1,0.3,0.1,0.6,0.2c2.2,0.4,4.6,0.8,6.7,1.7c1.1,0.5,1.1,0.6,1.1,0.8l0,0c0,0.1-0.1,0.1-0.1,0.1c-0.1,0-0.4,0-0.7-0.2
				c-0.3-0.2-0.7-0.3-1.2-0.5c-0.5-0.1-1-0.3-1.3-0.5c-0.4-0.2-0.6-0.2-0.6-0.2c0,0,0,0.1,0,0.2c0.1,0.1,0.1,0.3,0.1,0.3
				c0,0-0.1,0.1-0.4-0.1c-0.4-0.3-1.1-0.7-1.5-0.7c0,0,0,0,0,0c-0.1,0-0.1,0-0.1,0c0,0,0.2,0.1,0.2,0.2l0.1,0
				c0.1,0.1,0.2,0.3,0.2,0.4c0,0-0.1,0.1-0.3,0c-0.2-0.1-1.1-0.7-1.9-0.7c-0.1,0-0.3,0-0.4,0c-0.3,0.1-0.6,0.2-0.6,0.3
				c0,0.1,0.1,0.2,0.3,0.3c0.4,0.3,0.8,0.5,1.7,0.4c0.9,0,1.8,0.1,2.2,0.4c0.2,0.1,0.2,0.2,0.2,0.3c-0.1,0.1-0.3,0.1-0.5,0
				c-0.3-0.2-1-0.3-1.3-0.2c-0.1,0-0.1,0-0.2,0.1c0,0,0.1,0.1,0.1,0.2l0,0c0.1,0.1,0.1,0.3,0,0.4c0,0-0.1,0.1-0.3-0.1
				c-0.2-0.3-0.9-0.6-1.3-0.7c-0.6-0.1-1,0-1,0.1c0,0.1,0,0.1,0.1,0.1c0.2,0.1,0.3,0.1,0.3,0.2c0,0.1,0,0.1-0.1,0.2
				c-0.1,0.1-0.1,0.2-0.1,0.3c0,0,0.1,0.1,0.3,0c1.2-0.2,3.3-0.1,4.4,0.2c0.5,0.2,0.8,0.3,0.8,0.5c0,0.1-0.1,0.1-0.2,0.1
				c0,0,0,0,0,0c-0.1,0-0.1,0-0.2,0c-0.1,0-0.2,0-0.2,0c0,0,0,0,0,0.1c0,0.1,0.1,0.3,0,0.4c-0.1,0-0.2,0-0.3-0.1
				c-0.7-0.5-1.5-0.6-2-0.6c0,0,0,0-0.1,0c-0.1,0-0.1,0-0.1,0c0,0,0,0.1,0.1,0.2l0,0c0.1,0.1,0.1,0.2,0,0.2c-0.1,0.1-0.2,0.1-0.3,0
				c-0.2-0.2-0.7-0.5-1-0.5c-0.2,0-0.2,0-0.2,0c0,0,0,0.1,0.1,0.1c0.1,0.1,0.1,0.2,0.1,0.3c0,0-0.1,0.1-0.3-0.1
				c-0.4-0.3-1.1-0.6-1.6-0.6c0,0-0.1,0-0.1,0c-0.2,0-0.3,0.1-0.3,0.1c0,0.1,0.1,0.2,0.5,0.3c0.8,0.3,1.8,0.6,2.5,0.7
				c0.4,0,0.8,0.1,1,0.2c0.2,0,0.4,0.1,0.5,0.1c0.2,0,0.3,0.1,0.3,0.1c0,0,0,0.1-0.3,0.1c-0.2,0-0.5,0-0.8-0.1
				c-0.3-0.1-0.7-0.1-0.9,0c0,0-0.1,0-0.1,0.1c0,0,0.1,0.1,0.1,0.1c0,0,0.1,0.1,0.1,0.1c0,0.1,0.1,0.3,0,0.4c0,0-0.1,0.1-0.2,0
				c-0.5-0.4-0.9-0.5-1.2-0.6c-0.2,0-0.3-0.1-0.4-0.2c-0.2-0.1-0.3-0.1-0.4-0.1c0,0,0,0.1,0,0.2c0.1,0.1,0.1,0.1,0,0.2
				c-0.1,0.1-0.4,0-0.6-0.1c-0.3-0.2-0.8-0.3-1.1-0.2c-0.1,0-0.2,0.1-0.2,0.1c0,0.1,0.1,0.2,0.4,0.4c0.6,0.3,1.2,0.6,1.8,0.7
				c0.4,0.1,0.6,0.3,0.6,0.4c0,0.1-0.1,0.1-0.2,0.1c-0.2,0-0.3,0-0.3,0.1c0,0.1,0,0.1,0.1,0.2c0.1,0.1,0.2,0.3,0.2,0.5
				c0,0.1,0,0.1-0.1,0.1c-0.1,0-0.3-0.1-0.5-0.3c-0.7-0.7-2.2-0.8-3-0.6c-0.3,0.1-0.4,0.2-0.4,0.3c0,0.2,0.2,0.5,0.5,0.8l0.1,0.1
				c0.5,0.5,1,1,2.4,0.8c0.3,0,0.7-0.1,1.2-0.2c1.4-0.2,3.1-0.5,4-0.2c0.9,0.2,1,0.6,0.9,0.7c0,0.1-0.1,0.2-0.3,0.3
				c-0.3,0-0.5-0.1-0.7-0.3c-0.1-0.1-0.3-0.3-0.6-0.3c0,0-0.1,0-0.1,0c-0.5,0-0.7,0.2-0.9,0.4c0,0,0,0-0.1,0.1l0,0
				c-0.2,0.2-0.4,0.4-1.1,0.1c-0.5-0.3-1-0.1-1.4,0c-0.1,0-0.3,0.1-0.4,0.1c0.3,0.2,0.7,0.5,0.7,0.7c0,0,0,0.1,0,0.1
				c-0.1,0.1-0.3,0-0.4-0.1c-0.1-0.1-0.3-0.2-0.5-0.3c-0.5-0.2-1.3-0.2-1.8,0.1c-0.2,0.1-0.2,0.2-0.2,0.3c0,0.2,0.4,0.4,0.9,0.5
				c0.7,0.2,2,0.1,3.2-0.2c1.2-0.3,2.6-0.5,3.1-0.5c0,0,0,0,0,0c0.2,0,0.4,0.1,0.4,0.2c0,0.1,0,0.2-0.1,0.3c0.4,0.1,0.8,0,1-0.2
				c0.3-0.2,0.4-0.2,0.5-0.1c0.1,0.1,0,0.3,0,0.4c0.2,0,0.4-0.1,0.6-0.2c0.3-0.1,0.6-0.2,0.8-0.1l0,0l0,0c0.1,1.2,0,3.3,0,4.9
				c0,0.7,0,1.3,0,1.6c0,0,0,0.1,0,0.1c0.1,0.1,0.3,0.1,0.7,0.1C-233.2,416-233.1,416-232.9,416z"/>
		</g>
		<g>
			<path class="st2" d="M-233.5,384.6c0-0.3-0.3-0.4-0.5-0.3c-0.2,0.1-0.3,0.2,0.1,0.3C-233.7,384.7-233.5,384.8-233.5,384.6
				L-233.5,384.6z"/>
		</g>
		<g>
			<path d="M-233.6,384.8c-0.1,0-0.2,0-0.3-0.1c-0.2-0.1-0.2-0.1-0.2-0.2c0-0.1,0.1-0.1,0.2-0.2c0.1,0,0.3,0,0.4,0
				c0.1,0,0.1,0.1,0.1,0.3l0,0C-233.5,384.7-233.5,384.7-233.6,384.8C-233.5,384.8-233.6,384.8-233.6,384.8z M-233.8,384.3
				c0,0-0.1,0-0.1,0c-0.1,0-0.1,0.1-0.1,0.1c0,0.1,0.1,0.1,0.2,0.2c0.1,0,0.3,0.1,0.3,0.1c0,0,0,0,0-0.1c0-0.1,0-0.2-0.1-0.2
				C-233.7,384.3-233.7,384.3-233.8,384.3z"/>
		</g>
		<g>
			<path class="st2" d="M-232.6,385c0-0.2,0.2-0.2,0.4-0.2c0.1,0,0.5,0.1,0.7,0c0.2,0,0.4,0.1,0.1,0.2
				C-232,385.2-232.6,385.3-232.6,385L-232.6,385z"/>
		</g>
		<g>
			<path d="M-232.3,385.2c-0.1,0-0.2,0-0.3-0.1c-0.1,0-0.1-0.1-0.1-0.2l0,0c0-0.1,0-0.1,0.1-0.2c0.1-0.1,0.3,0,0.3,0
				c0.1,0,0.5,0.1,0.6,0c0.1,0,0.3,0,0.3,0.1c0,0,0,0.1-0.2,0.2C-231.8,385.2-232.1,385.2-232.3,385.2z M-232.6,385
				c0,0.1,0,0.1,0.1,0.1c0.2,0.1,0.6,0,1.1-0.1c0.1,0,0.1-0.1,0.1-0.1c0,0-0.1-0.1-0.2-0.1c-0.2,0.1-0.5,0-0.7,0c-0.1,0-0.2,0-0.3,0
				C-232.6,384.9-232.6,384.9-232.6,385L-232.6,385z"/>
		</g>
		<g>
			<path class="st2" d="M-232.6,385.7c0-0.2,0.2-0.1,0.4-0.1c0.1,0,0.3,0.1,0,0.2C-232.4,385.8-232.6,385.9-232.6,385.7
				L-232.6,385.7z"/>
		</g>
		<g>
			<path d="M-232.5,385.8C-232.5,385.8-232.5,385.8-232.5,385.8c-0.1-0.1-0.1-0.1-0.1-0.2c0-0.1,0-0.1,0.1-0.1c0.1-0.1,0.2,0,0.3,0
				c0,0,0.1,0,0.1,0c0.1,0,0.2,0,0.2,0.1c0,0.1-0.1,0.1-0.2,0.1c0,0,0,0-0.1,0C-232.3,385.8-232.4,385.8-232.5,385.8z M-232.4,385.6
				C-232.5,385.6-232.5,385.6-232.4,385.6c-0.1,0-0.1,0.1-0.1,0.1s0,0.1,0,0.1c0,0,0.1,0,0.2,0c0,0,0,0,0.1,0c0.2,0,0.2-0.1,0.2-0.1
				c0,0-0.1,0-0.2,0c0,0-0.1,0-0.1,0C-232.4,385.6-232.4,385.6-232.4,385.6z"/>
		</g>
		<g>
			<path class="st2" d="M-233.8,387.2c-0.7-0.5-1.9-0.4-2.4-0.6c-0.4-0.2-0.8,0,0,0.3c0.9,0.3,1.4,0.2,1.9,0.4
				C-233.9,387.4-233.5,387.4-233.8,387.2L-233.8,387.2z"/>
		</g>
		<g>
			<path d="M-233.9,387.4c-0.1,0-0.3,0-0.5-0.1c-0.2-0.1-0.4-0.1-0.6-0.1c-0.3,0-0.7-0.1-1.2-0.3c-0.2-0.1-0.4-0.2-0.5-0.3
				c0,0,0-0.1,0-0.1c0.1-0.1,0.3,0,0.5,0c0.2,0.1,0.5,0.1,0.8,0.2c0.5,0.1,1.1,0.1,1.6,0.4l0,0c0,0,0.1,0.1,0.1,0.2
				C-233.7,387.3-233.8,387.4-233.9,387.4z M-236.6,386.5c-0.1,0-0.1,0-0.1,0c0,0,0,0,0,0c0,0,0.1,0.1,0.4,0.2
				c0.5,0.2,0.9,0.2,1.2,0.3c0.2,0,0.5,0.1,0.7,0.1c0.3,0.1,0.6,0.1,0.6,0.1c0,0,0,0-0.1-0.1l0,0c-0.4-0.3-1-0.3-1.6-0.4
				c-0.3,0-0.6-0.1-0.9-0.2C-236.4,386.6-236.5,386.5-236.6,386.5z"/>
		</g>
		<g>
			<path class="st2" d="M-233.6,387.9c-0.4,0.1-0.9,0-1.3-0.2c-0.4-0.2-0.5,0.1-0.1,0.3c0.5,0.1,0.9,0.3,1.1,0.4
				c0.2,0.2,0.3,0.1,0.4-0.2C-233.5,388-233.4,387.9-233.6,387.9L-233.6,387.9z"/>
		</g>
		<g>
			<path d="M-233.7,388.5c-0.1,0-0.1,0-0.2-0.1c-0.2-0.2-0.6-0.3-1-0.4l0,0c-0.2-0.1-0.3-0.1-0.3-0.2c0,0,0-0.1,0-0.1
				c0.1,0,0.2-0.1,0.4,0c0.4,0.2,0.8,0.3,1.2,0.2l0,0c0.1,0,0.1,0,0.1,0c0,0,0,0.1,0,0.2c0,0,0,0.1,0,0.1
				C-233.5,388.4-233.5,388.5-233.7,388.5C-233.6,388.5-233.6,388.5-233.7,388.5z M-235.1,387.7
				C-235.1,387.7-235.2,387.7-235.1,387.7c-0.1,0-0.1,0.1-0.1,0.1c0,0,0.1,0.1,0.3,0.2l0,0c0.5,0.1,0.9,0.3,1.1,0.4
				c0.1,0.1,0.2,0.1,0.2,0.1c0.1,0,0.1-0.1,0.1-0.2c0,0,0-0.1,0-0.1c0-0.1,0-0.1,0-0.2c0,0,0,0-0.1,0l0,0c-0.4,0.1-0.9,0-1.3-0.2
				C-235,387.7-235,387.7-235.1,387.7z"/>
		</g>
		<g>
			<path class="st2" d="M-233.7,390.1c0-0.3-0.1-0.4-0.9-0.6c-0.4-0.1-1.1-0.3-1.1-0.2c0,0.1,0.2,0.3,0.9,0.6
				C-234.1,390.1-233.7,390.4-233.7,390.1L-233.7,390.1z"/>
		</g>
		<g>
			<path d="M-233.8,390.2c-0.1,0-0.3-0.1-0.5-0.2c-0.1-0.1-0.3-0.1-0.5-0.2c-0.5-0.2-0.8-0.4-0.9-0.5c0,0,0-0.1,0-0.1
				c0.1-0.2,1,0.1,1.1,0.2l0.2,0.1c0.6,0.2,0.8,0.2,0.7,0.6l0,0C-233.6,390.2-233.7,390.2-233.8,390.2
				C-233.7,390.2-233.7,390.2-233.8,390.2z M-235.6,389.3C-235.6,389.3-235.6,389.3-235.6,389.3
				C-235.6,389.3-235.6,389.3-235.6,389.3c-0.1,0.1,0.1,0.3,0.8,0.5c0.2,0.1,0.3,0.1,0.5,0.2c0.3,0.1,0.5,0.2,0.6,0.2c0,0,0,0,0-0.1
				l0,0c0-0.3-0.1-0.3-0.7-0.5l-0.2-0.1C-235.1,389.4-235.4,389.3-235.6,389.3z"/>
		</g>
		<g>
			<path class="st2" d="M-232.3,388.8c0.3,0.1,1.3,0,1.7,0c0.4,0,0.7,0.1,0,0.2c-0.7,0.1-1.1,0.3-1.4,0.4c-0.3,0.1-0.6,0.3-0.6-0.2
				C-232.6,388.8-232.6,388.7-232.3,388.8L-232.3,388.8z"/>
		</g>
		<g>
			<path d="M-232.4,389.5c-0.1,0-0.1,0-0.2,0c-0.1-0.1-0.1-0.2-0.1-0.3c0-0.3,0-0.4,0.1-0.4c0.1,0,0.1,0,0.3,0l0,0
				c0.3,0.1,1.3,0,1.7,0c0.2,0,0.4,0,0.5,0.1c0,0,0,0.1-0.4,0.2c-0.6,0.1-1.1,0.3-1.4,0.4C-232.2,389.5-232.3,389.5-232.4,389.5z
				 M-232.5,388.8C-232.5,388.8-232.5,388.8-232.5,388.8c-0.1,0.1-0.1,0.2-0.1,0.4c0,0.1,0,0.2,0.1,0.2c0.1,0.1,0.3,0,0.5-0.1
				c0.3-0.1,0.8-0.3,1.4-0.4c0.3-0.1,0.4-0.1,0.4-0.1c0,0-0.2-0.1-0.4,0c-0.4,0-1.4,0.1-1.7,0l0,0
				C-232.4,388.8-232.4,388.8-232.5,388.8z"/>
		</g>
		<g>
			<path class="st2" d="M-232.4,391.7c0,0.3,0.2,0.2,0.6,0.1c0.3-0.1,0.9-0.3,1.1-0.4c0.2-0.1,0.2-0.2-0.1-0.1
				c-0.3,0.1-0.9,0.2-1.1,0.2C-232.4,391.5-232.4,391.5-232.4,391.7L-232.4,391.7z"/>
		</g>
		<g>
			<path d="M-232.2,391.9c0,0-0.1,0-0.1,0c0,0-0.1-0.1-0.1-0.2l0,0c0-0.1,0-0.1,0-0.2c0,0,0.1,0,0.3,0c0,0,0.1,0,0.1,0c0,0,0,0,0,0
				c0.2,0,0.8-0.1,1.1-0.2c0.2-0.1,0.3-0.1,0.3,0c0,0.1-0.1,0.1-0.1,0.2c-0.2,0.1-1,0.4-1.1,0.4C-232,391.9-232.1,391.9-232.2,391.9
				z M-232.2,391.6c-0.1,0-0.1,0-0.1,0c0,0,0,0.1,0,0.1l0,0c0,0.1,0,0.1,0,0.1c0.1,0.1,0.3,0,0.5-0.1c0.1,0,0.8-0.3,1.1-0.4
				c0.1,0,0.1-0.1,0.1-0.1c0,0-0.1,0-0.2,0.1c-0.3,0.1-0.9,0.2-1.1,0.2c0,0-0.1,0-0.1,0C-232.2,391.6-232.2,391.6-232.2,391.6z"/>
		</g>
		<g>
			<path class="st2" d="M-233.7,391.8c0-0.3-0.2-0.3-0.6-0.5c-0.6-0.3-1.4-0.7-2.1-0.7s-0.6,0.1,0,0.3c0.7,0.3,2,0.7,2.2,0.8
				C-233.9,391.9-233.7,392-233.7,391.8L-233.7,391.8z"/>
		</g>
		<g>
			<path d="M-233.8,392c-0.1,0-0.3-0.1-0.3-0.1c-0.1-0.1-0.6-0.2-1.1-0.4c-0.4-0.1-0.9-0.3-1.2-0.4c-0.5-0.2-0.5-0.3-0.5-0.3
				c0-0.1,0.1-0.1,0.5-0.1c0.7,0,1.6,0.4,2.1,0.7c0,0,0.1,0,0.1,0.1c0.3,0.1,0.5,0.2,0.5,0.5l0,0
				C-233.6,391.9-233.7,391.9-233.8,392C-233.7,392-233.8,392-233.8,392z M-236.8,390.7c0,0.1,0.4,0.2,0.5,0.2
				c0.3,0.1,0.7,0.3,1.1,0.4c0.5,0.2,1,0.3,1.1,0.4c0.2,0.1,0.3,0.2,0.4,0.1c0,0,0,0,0-0.1l0,0c0-0.2-0.1-0.3-0.5-0.4
				c0,0-0.1,0-0.1-0.1c-0.5-0.2-1.4-0.7-2.1-0.7C-236.7,390.7-236.8,390.7-236.8,390.7z"/>
		</g>
		<g>
			<path class="st2" d="M-233.6,392.8c0-0.4-0.5-0.4-0.7-0.5c-0.4-0.2-1.5-0.7-2-0.8s-0.8-0.2-0.9-0.3c-0.3-0.2-0.7,0.1-0.2,0.2
				c0.5,0.2,1.1,0.6,1.5,0.6c0.9,0.2,1.7,0.7,1.9,0.7C-233.8,392.9-233.6,393-233.6,392.8L-233.6,392.8z"/>
		</g>
		<g>
			<path d="M-233.7,393c0,0-0.1,0-0.1,0c0,0-0.1,0-0.1,0c-0.1,0-0.3-0.1-0.5-0.2c-0.4-0.2-0.8-0.4-1.4-0.5c-0.3,0-0.6-0.2-0.9-0.3
				c-0.2-0.1-0.5-0.2-0.7-0.3c-0.2-0.1-0.3-0.1-0.3-0.2c0,0,0-0.1,0.1-0.1c0.1-0.1,0.3-0.1,0.4,0c0.2,0.1,0.4,0.2,0.9,0.3
				c0.5,0.1,1.6,0.5,2,0.8c0,0,0.1,0.1,0.2,0.1c0.2,0.1,0.5,0.1,0.5,0.4l0,0C-233.6,392.9-233.6,392.9-233.7,393
				C-233.6,392.9-233.7,393-233.7,393z M-237.4,391.3c-0.1,0-0.1,0-0.1,0c0,0,0,0,0,0c0,0,0,0.1,0.2,0.1c0.2,0.1,0.5,0.2,0.7,0.3
				c0.3,0.2,0.6,0.3,0.8,0.3c0.6,0.1,1.1,0.3,1.4,0.5c0.2,0.1,0.4,0.2,0.5,0.2c0.1,0,0.1,0,0.1,0c0.1,0,0.1,0,0.1,0c0,0,0,0,0-0.1
				l0,0c0-0.3-0.2-0.3-0.5-0.4c-0.1,0-0.2,0-0.2-0.1c-0.3-0.2-1.4-0.6-2-0.7c-0.5-0.1-0.8-0.2-0.9-0.3
				C-237.3,391.3-237.4,391.3-237.4,391.3z"/>
		</g>
		<g>
			<path class="st2" d="M-233.6,395.2c0-0.4-0.2-0.4-0.4-0.4s-0.7-0.2-1-0.4c-0.5-0.3-1.1-0.4-1.5-0.3c-0.4,0.1-0.2,0.2,0.3,0.3
				c0.4,0.1,1.6,0.5,2,0.7C-233.9,395.3-233.6,395.6-233.6,395.2L-233.6,395.2z"/>
		</g>
		<g>
			<path d="M-233.7,395.4c-0.1,0-0.2-0.1-0.4-0.2c0,0-0.1-0.1-0.1-0.1c-0.3-0.2-1.5-0.6-1.9-0.7c-0.2,0-0.5-0.1-0.5-0.2
				c0-0.1,0.1-0.1,0.2-0.1c0.4-0.1,1,0.1,1.5,0.3c0.3,0.2,0.8,0.4,1,0.4h0c0.1,0,0.2,0,0.3,0.1c0.1,0.1,0.1,0.2,0.1,0.4
				C-233.6,395.3-233.6,395.4-233.7,395.4C-233.7,395.4-233.7,395.4-233.7,395.4z M-236.2,394.1c-0.1,0-0.1,0-0.2,0
				c-0.2,0-0.2,0.1-0.2,0.1c0,0,0.1,0.1,0.5,0.2c0.4,0.1,1.6,0.4,2,0.7c0,0,0.1,0.1,0.1,0.1c0.2,0.1,0.3,0.2,0.4,0.2
				c0,0,0.1-0.1,0.1-0.2c0-0.2,0-0.3-0.1-0.3c0,0-0.1,0-0.2,0c0,0,0,0,0,0h0c-0.2,0-0.7-0.2-1-0.4
				C-235.4,394.2-235.9,394.1-236.2,394.1z"/>
		</g>
		<g>
			<path class="st2" d="M-232.4,393.6c0-0.3,0.1-0.4,0.5-0.4c0.4,0,1.2,0,1.5-0.2s0.6-0.1,0.8-0.1s0.1,0.1-0.2,0.3
				c-0.3,0.2-1.1,0.2-1.4,0.3c-0.3,0.2-0.7,0.2-0.9,0.2C-232.4,393.9-232.4,393.9-232.4,393.6L-232.4,393.6z"/>
		</g>
		<g>
			<path d="M-232.3,393.9c-0.1,0-0.1,0-0.1,0c0,0,0-0.1,0-0.2c0-0.2,0-0.3,0.1-0.3c0.1-0.1,0.2-0.1,0.4-0.1c0.4,0,1.2,0,1.5-0.2
				c0.3-0.2,0.7-0.1,0.8-0.1c0.1,0,0.1,0,0.1,0.1c0,0,0,0.1-0.3,0.3c-0.1,0.1-0.4,0.1-0.7,0.2c-0.3,0-0.6,0.1-0.8,0.2
				C-231.6,393.8-232,393.9-232.3,393.9C-232.3,393.9-232.3,393.9-232.3,393.9z M-232.1,393.3c-0.1,0-0.2,0-0.2,0.1
				c0,0-0.1,0.1-0.1,0.3c0,0.1,0,0.1,0,0.2c0,0,0.1,0,0.2,0c0.2,0,0.6-0.1,0.9-0.2c0.2-0.1,0.5-0.1,0.8-0.2c0.3,0,0.5-0.1,0.6-0.2
				c0.2-0.1,0.2-0.2,0.2-0.2c0,0,0,0-0.1,0c0,0-0.4-0.1-0.7,0.1c-0.3,0.2-1.2,0.2-1.5,0.2C-232,393.3-232.1,393.3-232.1,393.3z"/>
		</g>
		<g>
			<path class="st2" d="M-232.2,394.5c0.5,0,1.4-0.4,1.8-0.4c0.4,0,0.5,0.2,0.1,0.3c-0.4,0.1-1.4,0.3-1.6,0.4
				c-0.2,0.1-0.6,0.3-0.6,0C-232.4,394.5-232.4,394.5-232.2,394.5L-232.2,394.5z"/>
		</g>
		<g>
			<path d="M-232.3,394.9c0,0-0.1,0-0.1,0c0,0-0.1-0.1-0.1-0.1c0-0.2,0-0.3,0.3-0.3c0.3,0,0.7-0.1,1.1-0.3c0.3-0.1,0.6-0.2,0.7-0.2
				c0,0,0,0,0,0c0.2,0,0.4,0.1,0.4,0.2c0,0.1,0,0.1-0.3,0.2c-0.5,0.1-1.4,0.3-1.5,0.4C-231.9,394.8-232.1,394.9-232.3,394.9z
				 M-230.4,394.1C-230.4,394.1-230.4,394.1-230.4,394.1c-0.2,0-0.4,0.1-0.7,0.2c-0.4,0.1-0.8,0.3-1.1,0.3c-0.2,0-0.2,0-0.2,0.3
				c0,0,0,0.1,0,0.1c0.1,0,0.3,0,0.5-0.1c0.2-0.1,1.2-0.4,1.6-0.4c0.2,0,0.2-0.1,0.2-0.1C-230.1,394.1-230.2,394.1-230.4,394.1z"/>
		</g>
		<g>
			<path class="st2" d="M-232.2,395.7c0.6,0,1.1-0.4,1.4-0.4c0.5,0,0.7-0.1,0.5,0.1c-0.3,0.2-1.1,0.3-1.3,0.5s-0.7,0.2-0.7,0
				C-232.3,395.7-232.3,395.8-232.2,395.7L-232.2,395.7z"/>
		</g>
		<g>
			<path d="M-232.1,396.1c-0.1,0-0.1,0-0.2,0c0,0-0.1-0.1-0.1-0.1l0,0c0-0.1,0-0.2,0.1-0.2l0,0c0.3,0,0.6-0.1,0.9-0.2
				c0.2-0.1,0.3-0.1,0.5-0.1l0.1,0c0.3,0,0.5,0,0.5,0c0,0,0,0.1-0.1,0.2c-0.2,0.1-0.5,0.2-0.8,0.3c-0.2,0.1-0.4,0.1-0.5,0.2
				C-231.7,396-231.9,396.1-232.1,396.1z M-232.2,395.8L-232.2,395.8c-0.1,0-0.1,0-0.1,0.1l0,0c0,0,0,0.1,0,0.1
				c0.1,0.1,0.4,0,0.6-0.1c0.1-0.1,0.3-0.1,0.5-0.2c0.3-0.1,0.6-0.2,0.7-0.3c0.1-0.1,0.1-0.1,0.1-0.1c0,0-0.2,0-0.4,0l-0.1,0
				c-0.1,0-0.3,0.1-0.5,0.1C-231.5,395.6-231.8,395.7-232.2,395.8L-232.2,395.8z"/>
		</g>
		<g>
			<path class="st2" d="M-233.7,396.9c0-0.4-0.4-0.5-0.7-0.5c-1.4-0.2-2.7-0.8-3.1-0.8c-0.4,0-0.6,0.1,0,0.2c1.5,0.3,2,0.8,2.6,0.8
				C-234.3,396.7-233.7,397.3-233.7,396.9L-233.7,396.9z"/>
		</g>
		<g>
			<path d="M-233.8,397.1c-0.1,0-0.2-0.1-0.4-0.2c-0.2-0.1-0.4-0.2-0.6-0.2c-0.2,0-0.5-0.1-0.8-0.3c-0.4-0.2-0.9-0.4-1.8-0.6
				c-0.4-0.1-0.5-0.2-0.4-0.2c0,0,0-0.1,0.4-0.1c0.2,0,0.6,0.1,1,0.3c0.6,0.2,1.3,0.4,2.1,0.5c0.3,0,0.7,0.1,0.7,0.6l0,0
				C-233.6,397-233.7,397-233.8,397.1C-233.7,397.1-233.8,397.1-233.8,397.1z M-237.8,395.6c0,0,0.1,0.1,0.4,0.1
				c0.9,0.2,1.4,0.4,1.8,0.6c0.3,0.1,0.5,0.2,0.8,0.3c0.2,0,0.5,0.1,0.7,0.3c0.2,0.1,0.3,0.2,0.4,0.1c0,0,0-0.1,0-0.1l0,0
				c0-0.4-0.3-0.5-0.6-0.5c-0.8-0.1-1.5-0.3-2.1-0.5c-0.5-0.1-0.8-0.3-1-0.3C-237.7,395.6-237.8,395.6-237.8,395.6z"/>
		</g>
		<g>
			<path class="st2" d="M-232.3,396.8c0,0.3,0.2,0.3,0.5,0.2c0.7-0.1,0.7-0.3,0.1-0.4C-232.2,396.5-232.3,396.6-232.3,396.8
				L-232.3,396.8z"/>
		</g>
		<g>
			<path d="M-232.1,397.1c-0.1,0-0.1,0-0.2,0c-0.1,0-0.1-0.1-0.1-0.3l0,0c0-0.1,0-0.1,0-0.2c0.1-0.1,0.2-0.1,0.6,0
				c0.2,0,0.4,0.1,0.4,0.2c0,0.1-0.2,0.2-0.6,0.2C-231.9,397-232,397.1-232.1,397.1z M-232.1,396.6c-0.1,0-0.1,0-0.2,0
				c0,0,0,0.1,0,0.1l0,0c0,0.1,0,0.2,0.1,0.2c0.1,0,0.2,0,0.4,0c0.4-0.1,0.5-0.1,0.5-0.2c0,0-0.1-0.1-0.4-0.1
				C-231.8,396.6-232,396.6-232.1,396.6z"/>
		</g>
		<g>
			<path class="st2" d="M-230.3,397.7c-0.2,0.1-1,0.1-1.4,0c-0.4,0-0.6-0.1-0.6,0.2s0.3,0.3,0.8,0.2
				C-230.9,398-230.4,397.8-230.3,397.7L-230.3,397.7z"/>
		</g>
		<g>
			<path d="M-231.9,398.2c-0.1,0-0.2,0-0.3-0.1c-0.1-0.1-0.1-0.1-0.1-0.3c0-0.1,0-0.2,0.1-0.2c0.1-0.1,0.2,0,0.3,0
				c0.1,0,0.1,0,0.2,0c0.4,0,1.2,0.1,1.4,0l0,0c-0.2,0.2-0.7,0.4-1.1,0.5C-231.6,398.2-231.8,398.2-231.9,398.2z M-232.1,397.7
				c0,0-0.1,0-0.1,0c0,0,0,0.1,0,0.2c0,0.1,0,0.2,0.1,0.2c0.1,0.1,0.3,0.1,0.7,0c0.4-0.1,0.8-0.2,1-0.3c-0.3,0-0.9,0-1.2,0
				c-0.1,0-0.1,0-0.2,0C-231.9,397.7-232,397.7-232.1,397.7z"/>
		</g>
		<g>
			<path class="st2" d="M-232.2,399c0,0.4,0.1,0.5,0.8,0.2c0.9-0.4,2.3-0.7,2.6-0.9c0.3-0.3,0-0.5-0.4-0.2c-0.5,0.3-2,0.4-2.2,0.6
				C-231.7,398.8-232.2,398.5-232.2,399L-232.2,399z"/>
		</g>
		<g>
			<path d="M-232,399.4c-0.1,0-0.1,0-0.1,0c-0.1-0.1-0.1-0.2-0.1-0.4c0-0.1,0-0.2,0.1-0.2c0.1-0.1,0.2-0.1,0.3-0.1c0,0,0,0,0,0
				c0.1,0,0.2,0,0.3-0.1c0.1-0.1,0.5-0.2,1-0.2c0.5-0.1,1-0.2,1.3-0.3c0.3-0.1,0.5-0.2,0.6-0.1c0.1,0.1,0,0.2-0.1,0.3
				c-0.2,0.2-0.7,0.3-1.2,0.5c-0.5,0.1-1,0.3-1.3,0.5C-231.7,399.4-231.9,399.4-232,399.4z M-231.9,398.7c-0.1,0-0.2,0-0.3,0.1
				c0,0-0.1,0.1-0.1,0.2c0,0.2,0,0.3,0.1,0.3c0.1,0.1,0.3,0,0.7-0.2c0.4-0.2,0.9-0.3,1.4-0.5c0.5-0.2,1.1-0.3,1.2-0.5
				c0.1-0.1,0.1-0.2,0.1-0.2c0-0.1-0.2-0.1-0.5,0.1c-0.3,0.1-0.8,0.2-1.3,0.3c-0.4,0.1-0.8,0.2-0.9,0.2
				C-231.6,398.7-231.7,398.7-231.9,398.7C-231.8,398.7-231.8,398.7-231.9,398.7z"/>
		</g>
		<g>
			<path class="st2" d="M-230.9,399.8c-0.2,0.1-0.8,0.2-1.1,0.2c-0.4,0-0.5,0.3-0.1,0.3c0.4,0,1-0.2,1.2-0.3
				C-230.6,399.9-230.5,399.7-230.9,399.8L-230.9,399.8z"/>
		</g>
		<g>
			<path d="M-231.9,400.4c0,0-0.1,0-0.1,0c-0.3,0-0.3-0.2-0.3-0.2c0-0.1,0.1-0.2,0.4-0.2c0,0,0.1,0,0.1,0c0.3,0,0.8-0.1,1-0.2l0,0
				l0,0c0.2-0.1,0.3,0,0.3,0c0,0.1-0.1,0.2-0.2,0.2C-231,400.1-231.5,400.4-231.9,400.4z M-232,400c-0.2,0-0.3,0.1-0.3,0.1
				c0,0,0.1,0.1,0.2,0.1c0,0,0.1,0,0.1,0c0.4,0,0.9-0.2,1.1-0.3c0.1-0.1,0.2-0.1,0.2-0.1l0,0c0,0,0,0-0.2,0
				C-231.1,399.9-231.6,400-232,400C-231.9,400-231.9,400-232,400z"/>
		</g>
		<g>
			<path class="st2" d="M-232,400.8c-0.3,0.2-0.4,0.6,0.3,0.3c0.7-0.3,1.2-0.5,1.6-0.6c0.5-0.1,0.5-0.3-0.1-0.2
				C-230.6,400.4-231.6,400.7-232,400.8L-232,400.8z"/>
		</g>
		<g>
			<path d="M-232,401.3c-0.1,0-0.2,0-0.2-0.1c-0.1-0.1,0.1-0.3,0.2-0.4l0,0c0.3-0.2,1.3-0.4,1.9-0.5c0.3,0,0.4,0,0.5,0.1
				c0,0.1-0.1,0.2-0.4,0.2c-0.3,0-0.6,0.1-0.9,0.3c-0.2,0.1-0.4,0.2-0.7,0.3C-231.8,401.3-231.9,401.3-232,401.3z M-230,400.4
				c0,0-0.1,0-0.1,0c-0.6,0-1.6,0.3-1.9,0.5l0,0c-0.1,0.1-0.2,0.2-0.2,0.3c0,0.1,0.2,0.1,0.5,0c0.3-0.1,0.5-0.2,0.7-0.3
				c0.3-0.1,0.6-0.3,0.9-0.3c0.2,0,0.3-0.1,0.3-0.1C-229.7,400.5-229.8,400.4-230,400.4z"/>
		</g>
		<g>
			<path class="st2" d="M-231.9,401.8c-0.4,0.2-0.6,0.7,0.2,0.3c0.8-0.3,1.6-0.7,2.1-0.7s0.8,0.1,1.2-0.2c0.3-0.4,0.3-0.4-0.1-0.4
				c-0.4,0.1-0.9,0.1-1.5,0.3C-230.7,401.4-231.7,401.7-231.9,401.8L-231.9,401.8z"/>
		</g>
		<g>
			<path d="M-232.2,402.3c-0.1,0-0.1,0-0.1-0.1c-0.1-0.1,0.1-0.3,0.4-0.4l0,0c0.1-0.1,0.4-0.2,0.8-0.3c0.3-0.1,0.7-0.3,1-0.4
				c0.5-0.2,0.8-0.2,1.2-0.3c0.1,0,0.2,0,0.3,0c0.2,0,0.3,0,0.4,0c0,0.1,0,0.2-0.2,0.4c-0.3,0.3-0.6,0.3-0.9,0.3c-0.1,0-0.2,0-0.3,0
				c0,0,0,0,0,0c-0.5,0-1.3,0.3-2.1,0.7C-232,402.2-232.1,402.3-232.2,402.3z M-228.4,400.8c-0.1,0-0.1,0-0.2,0c-0.1,0-0.2,0-0.3,0
				c-0.4,0-0.7,0.1-1.2,0.3c-0.3,0.1-0.7,0.2-1,0.4c-0.4,0.1-0.7,0.3-0.8,0.3l0,0c-0.2,0.1-0.3,0.3-0.3,0.4c0,0,0.2,0.1,0.4-0.1
				c0.8-0.3,1.6-0.7,2.1-0.7c0,0,0,0,0,0c0.1,0,0.2,0,0.3,0c0.4,0,0.6,0.1,0.9-0.2c0.1-0.1,0.2-0.3,0.2-0.3
				C-228.3,400.9-228.3,400.8-228.4,400.8z"/>
		</g>
		<g>
			<path class="st2" d="M-229.3,402.5c-0.3,0.1-0.3,0.3,0.2,0.2c0.5,0,0.6-0.2,0.5-0.3C-228.8,402.4-229.1,402.4-229.3,402.5
				L-229.3,402.5z"/>
		</g>
		<g>
			<path d="M-229.2,402.8c-0.2,0-0.3,0-0.4-0.1c0-0.1,0.1-0.1,0.2-0.2l0,0c0.2-0.1,0.5-0.1,0.7,0c0.1,0.1,0.1,0.1,0.1,0.1
				C-228.6,402.7-228.8,402.7-229.2,402.8C-229.1,402.8-229.2,402.8-229.2,402.8z M-228.9,402.5c-0.1,0-0.3,0-0.4,0.1l0,0
				c-0.1,0-0.2,0.1-0.2,0.1s0.1,0.1,0.4,0.1c0.4,0,0.5-0.1,0.5-0.1c0,0,0,0,0-0.1C-228.7,402.5-228.8,402.5-228.9,402.5z"/>
		</g>
		<g>
			<path class="st2" d="M-233.9,403.1c0-0.4-1-0.4-1.4-0.6c-0.3-0.2-0.6-0.1-0.3,0.2c0.3,0.3,0.9,0.5,1.1,0.5
				C-234.1,403.2-233.9,403.3-233.9,403.1L-233.9,403.1z"/>
		</g>
		<g>
			<path d="M-234,403.3c0,0-0.1,0-0.1,0c-0.1,0-0.1,0-0.2,0c-0.3,0-0.8-0.2-1.2-0.5c-0.2-0.2-0.2-0.3-0.2-0.3c0.1-0.1,0.2,0,0.4,0.1
				c0.1,0.1,0.3,0.1,0.5,0.2c0.4,0.1,0.8,0.2,0.8,0.5c0,0.1,0,0.1,0,0.1C-233.9,403.2-234,403.3-234,403.3z M-235.6,402.4
				C-235.6,402.4-235.6,402.4-235.6,402.4c-0.1,0-0.1,0.1,0.1,0.2c0.3,0.3,0.9,0.5,1.1,0.5c0.1,0,0.2,0,0.2,0c0.1,0,0.2,0,0.2,0
				c0,0,0,0,0-0.1c0-0.2-0.4-0.3-0.8-0.4c-0.2,0-0.4-0.1-0.6-0.2C-235.4,402.4-235.5,402.4-235.6,402.4z"/>
		</g>
		<g>
			<path class="st2" d="M-231.9,403.8c-0.2,0-0.3,0.2,0,0.3c0.3,0.1,0.5-0.1,0.7-0.2s0.2-0.3,0-0.2
				C-231.5,403.8-231.7,403.8-231.9,403.8L-231.9,403.8z"/>
		</g>
		<g>
			<path d="M-231.8,404.1c0,0-0.1,0-0.1,0c-0.2,0-0.2-0.1-0.2-0.2c0-0.1,0.1-0.1,0.2-0.1c0.2,0,0.4,0,0.6-0.1c0.2-0.1,0.2,0,0.2,0
				c0,0.1,0,0.1-0.1,0.2c0,0,0,0-0.1,0C-231.5,404-231.6,404.1-231.8,404.1z M-231.2,403.7C-231.2,403.7-231.3,403.7-231.2,403.7
				c-0.3,0.1-0.5,0.1-0.7,0.1c-0.1,0-0.1,0-0.2,0.1c0,0.1,0,0.1,0.1,0.1c0.2,0.1,0.4-0.1,0.6-0.2c0,0,0,0,0.1,0
				C-231.2,403.8-231.2,403.7-231.2,403.7C-231.2,403.7-231.2,403.7-231.2,403.7z"/>
		</g>
		<g>
			<path class="st2" d="M-234.2,404.9c-0.4,0-1.1,0-1.4-0.2c-0.4-0.2-1,0-0.3,0.3c0.7,0.3,1.4,0.6,1.8,0.6
				C-233.7,405.5-233.8,404.9-234.2,404.9L-234.2,404.9z"/>
		</g>
		<g>
			<path d="M-234.3,405.6c-0.4,0-1.1-0.3-1.8-0.6c-0.2-0.1-0.3-0.2-0.3-0.3c0.1-0.1,0.4-0.1,0.7,0c0.4,0.2,1.2,0.2,1.4,0.2
				c0.3,0,0.4,0.2,0.4,0.4c0,0.1,0,0.2-0.1,0.2C-234,405.5-234.1,405.6-234.3,405.6z M-236,404.7c-0.1,0-0.2,0-0.3,0.1
				c0,0,0,0.1,0.3,0.2c0.6,0.3,1.4,0.6,1.7,0.6c0.1,0,0.2,0,0.3-0.1c0.1,0,0.1-0.1,0.1-0.2c0-0.1-0.1-0.3-0.3-0.3
				c-0.2,0-1,0-1.5-0.2C-235.8,404.7-235.9,404.7-236,404.7z"/>
		</g>
		<g>
			<path class="st2" d="M-231.9,405.1c-0.4-0.1-0.4,0.3,0,0.3c0.4,0.1,0.8-0.2,1.1-0.2c0.3,0,0.3-0.4-0.1-0.3
				C-231.3,405.1-231.5,405.2-231.9,405.1L-231.9,405.1z"/>
		</g>
		<g>
			<path d="M-231.8,405.5c0,0-0.1,0-0.1,0c-0.1,0-0.3-0.1-0.3-0.2c0-0.1,0-0.1,0-0.2c0.1-0.1,0.2-0.1,0.3,0c0.2,0.1,0.4,0,0.6-0.1
				c0.1,0,0.2-0.1,0.3-0.1c0.2,0,0.3,0,0.3,0.1c0,0,0,0.1,0,0.2c0,0.1-0.1,0.1-0.2,0.1c-0.1,0-0.3,0.1-0.4,0.1
				C-231.4,405.4-231.6,405.5-231.8,405.5z M-232,405.1c-0.1,0-0.1,0-0.1,0c0,0,0,0.1,0,0.1c0,0.1,0.1,0.1,0.2,0.2
				c0.2,0,0.5,0,0.7-0.1c0.2-0.1,0.3-0.1,0.4-0.1c0.1,0,0.2,0,0.2-0.1c0,0,0-0.1,0-0.1c0,0-0.1-0.1-0.3,0c-0.1,0-0.2,0.1-0.3,0.1
				c-0.2,0.1-0.4,0.1-0.7,0.1C-231.9,405.1-231.9,405.1-232,405.1z"/>
		</g>
		<g>
			<path class="st2" d="M-234.2,406.2c-0.3,0.1-0.5,0.1-0.7,0c-0.2-0.1-0.7,0.1-0.3,0.3c0.5,0.3,1.1,0.5,1.2,0.2
				C-233.9,406.2-233.9,406.1-234.2,406.2L-234.2,406.2z"/>
		</g>
		<g>
			<path d="M-234.2,406.9c-0.3,0-0.6-0.2-0.9-0.4c-0.2-0.1-0.2-0.2-0.2-0.3c0.1-0.1,0.3-0.2,0.5-0.1c0.2,0.1,0.4,0.1,0.7,0l0,0
				c0.1,0,0.2,0,0.2,0c0.1,0.1,0.1,0.2,0,0.5c0,0.1-0.1,0.2-0.1,0.2C-234.1,406.9-234.1,406.9-234.2,406.9z M-235,406.2
				c-0.1,0-0.3,0-0.3,0.1c0,0,0,0.1,0.2,0.2c0.5,0.3,0.9,0.4,1,0.3c0.1,0,0.1-0.1,0.1-0.1c0-0.3,0-0.4,0-0.4c0,0-0.1,0-0.2,0h0
				c-0.3,0.1-0.5,0.1-0.7,0C-234.9,406.2-235,406.2-235,406.2z"/>
		</g>
		<g>
			<path class="st2" d="M-232.1,406.3c0,0.3,0.2,0.5,0.4,0.4c0.3-0.1,0.4,0,0.7,0c0.3,0.1,0.6-0.1,0.3-0.3
				C-231.3,406.2-231.9,406.5-232.1,406.3L-232.1,406.3z"/>
		</g>
		<g>
			<path d="M-230.9,406.8c0,0-0.1,0-0.1,0c-0.2-0.1-0.4-0.1-0.7,0c-0.1,0-0.2,0-0.3-0.1c-0.1-0.1-0.2-0.2-0.2-0.4v-0.1l0.1,0
				c0.1,0.1,0.3,0.1,0.5,0.1c0.3,0,0.6,0,0.9,0.1c0.1,0.1,0.1,0.2,0.1,0.2C-230.7,406.7-230.8,406.8-230.9,406.8z M-231.5,406.7
				c0.1,0,0.3,0,0.4,0.1c0.2,0.1,0.3,0,0.4-0.1c0,0,0-0.1-0.1-0.1c-0.3-0.2-0.6-0.1-0.9-0.1c-0.2,0-0.4,0-0.5,0
				c0,0.1,0.1,0.2,0.1,0.3c0.1,0.1,0.2,0.1,0.2,0.1C-231.6,406.7-231.5,406.7-231.5,406.7z"/>
		</g>
		<g>
			<path class="st2" d="M-238.4,406.8c0-0.2-0.2-0.3-0.4-0.4c-0.3-0.1-0.6-0.3-0.4,0C-239,406.6-238.4,407-238.4,406.8L-238.4,406.8
				z"/>
		</g>
		<g>
			<path d="M-238.5,406.9c-0.2,0-0.6-0.3-0.7-0.5c-0.1-0.1-0.1-0.1-0.1-0.2c0,0,0.1,0,0.2,0c0.1,0,0.2,0.1,0.3,0.1
				c0.2,0.1,0.4,0.2,0.4,0.4l0,0C-238.3,406.8-238.4,406.9-238.5,406.9C-238.4,406.9-238.4,406.9-238.5,406.9z M-239.1,406.3
				C-239.1,406.3-239.1,406.3-239.1,406.3c0.2,0.3,0.5,0.5,0.7,0.5c0,0,0,0,0,0c0,0,0,0,0-0.1l0,0c0-0.1-0.2-0.3-0.4-0.3
				c-0.1,0-0.2-0.1-0.3-0.1C-239.1,406.3-239.1,406.3-239.1,406.3z"/>
		</g>
	</g>
</g>
</svg>
