<?xml version="1.0" encoding="utf-8"?>
<!-- Generator: Adobe Illustrator 19.0.0, SVG Export Plug-In . SVG Version: 6.00 Build 0)  -->
<svg version="1.1" id="Layer_1" xmlns="http://www.w3.org/2000/svg" xmlns:xlink="http://www.w3.org/1999/xlink" x="0px" y="0px"
	 viewBox="-269 374 72 46" style="enable-background:new -269 374 72 46;" xml:space="preserve">
<style type="text/css">
	.st0{clip-path:url(#SVGID_2_);}
	.st1{fill:#003671;}
	.st2{fill:none;stroke:#000000;stroke-width:6.250000e-002;}
	.st3{fill:#FFFFFF;}
	.st4{fill:#FFD139;}
	.st5{fill:#E73137;}
	.st6{fill:#C3D9F2;}
	.st7{fill:#4E2583;}
	.st8{fill:#0097D8;}
	.st9{fill:#00A083;}
	.st10{fill:#FFED00;}
	.st11{fill:#F8AE4C;}
	.st12{fill:#E40520;}
	.st13{fill:#FFE000;}
</style>
<g>
	<defs>
		<path id="SVGID_1_" d="M-204,420H-262c-3.8,0-7-3.1-7-7V381c0-3.8,3.1-7,7-7h58.1c3.8,0,7,3.1,7,7V413
			C-197,416.9-200.1,420-204,420z"/>
	</defs>
	<clipPath id="SVGID_2_">
		<use xlink:href="#SVGID_1_"  style="overflow:visible;"/>
	</clipPath>
	<g class="st0">
		<g>
			<polygon class="st1" points="-191.7,421.6 -191.7,372.7 -274.3,372.7 -274.3,421.6 			"/>
		</g>
		<g>
			<path d="M-191.6,421.7h-82.8v-49.2h82.8V421.7z M-274.1,421.5h82.3v-48.7h-82.3V421.5z"/>
		</g>
		<g>
			<path class="st1" d="M-233,397.1"/>
		</g>
		<g>
			<path class="st2" d="M-233,397.1"/>
		</g>
		<g>
			<polygon class="st3" points="-191.7,405.3 -274.3,405.3 -274.3,389 -191.7,389 			"/>
		</g>
		<g>
			<path d="M-191.6,405.4h-82.8v-16.6h82.8V405.4z M-274.1,405.2h82.3v-16.1h-82.3V405.2z"/>
		</g>
		<g>
			<polygon class="st1" points="-227.8,400 -233,391.3 -238.1,400 			"/>
		</g>
		<g>
			<polygon class="st4" points="-238,399.9 -233,391.5 -228,399.9 			"/>
		</g>
		<g>
			<polygon class="st1" points="-237.8,399.8 -233,391.7 -228.1,399.8 			"/>
		</g>
		<g>
			<polygon class="st3" points="-228.3,399.7 -233,391.9 -237.6,399.7 			"/>
		</g>
		<g>
			<path d="M-228.3,399.7h-9.4l0,0l4.7-7.8l0,0L-228.3,399.7z M-237.6,399.7h9.2l-4.6-7.7L-237.6,399.7z"/>
		</g>
		<g>
			<path class="st5" d="M-233.3,396.2C-233.3,396.2-233.3,396.2-233.3,396.2C-233.3,396.2-233.3,396.2-233.3,396.2
				c-0.1-0.2-0.1-0.4,0-0.5c0.1-0.1,0.1-0.1,0.2-0.1c0.1,0,0.1-0.1,0-0.1c-0.1,0-0.1,0-0.2,0c0-0.1,0-0.2,0.2-0.2c0.1,0,0.1,0,0.2,0
				c0.1,0,0.2,0.2,0.2,0.3c0,0.2,0,0.4,0,0.5c0,0.1,0,0.1-0.1,0.1c-0.1,0-0.1,0-0.1,0c0,0-0.1,0-0.1,0.1s0,0.1,0,0.2
				c0,0.1-0.1,0.1-0.1,0.1C-233.2,396.5-233.2,396.4-233.3,396.2L-233.3,396.2z"/>
		</g>
		<g>
			<polygon class="st4" points="-240,395.8 -240.1,396.3 -239.9,396.3 -239.8,395.9 -239.6,395.9 -239.7,396.4 -239.4,396.4 
				-239.4,395.9 -239.2,396 -239.3,396.6 -240.3,396.5 -240.2,395.8 			"/>
		</g>
		<g>
			<path class="st4" d="M-239.7,395.3c0.1,0,0.2,0.1,0.2,0.1c0,0,0-0.1,0.1-0.2c0-0.1,0-0.2-0.1-0.2c-0.1,0-0.2,0-0.2,0.1
				c0,0.1-0.1,0.2-0.1,0.2C-239.9,395.2-239.8,395.3-239.7,395.3l0,0.2l-0.3-0.1c0,0,0.1-0.2,0.1-0.4c0-0.2,0.2-0.2,0.4-0.2
				c0.1,0,0.3,0.2,0.2,0.4c0,0.1-0.1,0.2-0.1,0.2l0.3,0.1l-0.1,0.2l-0.6-0.2L-239.7,395.3L-239.7,395.3z"/>
		</g>
		<g>
			<path class="st4" d="M-238.8,394.4c0.1-0.1,0-0.2-0.1-0.2c-0.1,0-0.6-0.3-0.6-0.3l0.1-0.2c0,0,0.5,0.2,0.6,0.3
				c0.1,0.1,0.3,0.2,0.1,0.5c-0.1,0.2-0.3,0.2-0.5,0.2c-0.1-0.1-0.6-0.3-0.6-0.3l0.1-0.2c0,0,0.5,0.2,0.6,0.3
				C-239,394.5-238.9,394.5-238.8,394.4L-238.8,394.4z"/>
		</g>
		<g>
			<path class="st4" d="M-238.5,393.5c0.1,0,0.1,0.1,0.1,0.1s0.1-0.2,0.1-0.2c0-0.1,0-0.1,0-0.2c-0.1,0-0.1,0-0.2,0
				C-238.5,393.3-238.6,393.5-238.5,393.5C-238.6,393.5-238.6,393.5-238.5,393.5l-0.1,0.2c-0.1-0.1-0.2-0.2-0.3-0.2l0.1-0.2
				c0,0,0.1,0.1,0.1,0.1s0.1-0.1,0.1-0.2c0.1-0.1,0-0.1,0-0.1c0,0-0.1,0-0.2,0c0,0.1-0.1,0.2-0.1,0.2c0,0,0,0,0.1,0.1l-0.1,0.2
				c-0.1-0.1-0.2-0.2-0.2-0.2s0.1-0.1,0.2-0.3c0.1-0.1,0.3-0.2,0.4-0.1c0.1,0,0.1,0.1,0.1,0.2c0.1,0,0.2,0,0.3,0
				c0.1,0.1,0.2,0.2,0.1,0.4c-0.1,0.1-0.2,0.3-0.2,0.3c0,0-0.1-0.1-0.3-0.2L-238.5,393.5L-238.5,393.5z"/>
		</g>
		<g>
			<polygon class="st4" points="-238.3,392.2 -237.7,392.8 -237.4,392.4 -237.3,392.6 -237.8,393 -238.4,392.3 			"/>
		</g>
		<g>
			<polygon class="st4" points="-237.1,392.4 -237.7,391.6 -237.6,391.5 -237,392.3 			"/>
		</g>
		<g>
			<path class="st4" d="M-236.5,391.2c0,0-0.1-0.1-0.3,0c-0.1,0.1-0.1,0.2,0,0.4c0.1,0.2,0.2,0.2,0.4,0.2s0.1-0.2,0.1-0.3l0.1-0.1
				c0.1,0.2,0,0.4-0.1,0.5c-0.2,0.1-0.4,0-0.6-0.2c-0.2-0.2-0.1-0.5,0.1-0.6c0.2-0.1,0.4,0,0.5,0.1L-236.5,391.2L-236.5,391.2z"/>
		</g>
		<g>
			<path class="st4" d="M-234,390.4c0,0.2,0,0.3,0,0.3c0,0,0.1,0,0.2,0c0.1,0,0.2-0.1,0.2-0.4c0-0.3-0.2-0.3-0.3-0.3
				c0,0-0.2,0-0.2,0S-234,390.3-234,390.4l-0.2,0c0-0.2-0.1-0.5-0.1-0.5c0.1,0,0.2,0,0.4,0c0.1,0,0.4,0,0.4,0.4
				c0,0.3-0.1,0.5-0.3,0.5c-0.2,0-0.4,0-0.4,0s0-0.2-0.1-0.5L-234,390.4L-234,390.4z"/>
		</g>
		<g>
			<polygon class="st4" points="-232.3,390.1 -232.8,390.1 -232.8,390.3 -232.4,390.3 -232.4,390.5 -232.8,390.5 -232.8,390.7 
				-232.4,390.7 -232.4,390.9 -233,390.9 -233,389.9 -232.3,389.9 			"/>
		</g>
		<g>
			<polygon class="st4" points="-230.9,390.2 -230.8,390.8 -230.6,390.3 -230.4,390.3 -230.7,391.3 -230.9,391.2 -231.1,390.5 
				-231.2,391.1 -231.4,391 -231.1,390.1 			"/>
		</g>
		<g>
			<polygon class="st4" points="-230.4,391.4 -230,390.5 -229.8,390.6 -230.2,391.5 			"/>
		</g>
		<g>
			<path class="st4" d="M-229.1,391.4c0,0,0-0.2-0.1-0.2c-0.1-0.1-0.3,0-0.4,0.1c-0.1,0.2-0.1,0.3,0,0.4c0.1,0.1,0.2,0,0.3,0
				l0.1,0.1c-0.1,0.2-0.3,0.2-0.5,0.1c-0.2-0.1-0.2-0.4-0.1-0.6c0.2-0.2,0.4-0.3,0.6-0.2c0.2,0.1,0.2,0.3,0.1,0.5L-229.1,391.4
				L-229.1,391.4z"/>
		</g>
		<g>
			<path class="st4" d="M-226.3,395c0.1-0.1,0.1-0.2,0.1-0.2c0-0.1-0.2-0.2-0.4-0.1c-0.2,0.1-0.3,0.2-0.2,0.3c0,0.1,0.1,0.2,0.3,0.1
				l-0.1-0.2l0.1,0l0.1,0.3l-0.5,0.2l0-0.1c0,0,0.1,0,0.1,0c-0.1,0-0.2-0.1-0.2-0.2c-0.1-0.2,0.1-0.5,0.3-0.5c0.3-0.1,0.5,0,0.6,0.2
				c0.1,0.2,0,0.4-0.2,0.4L-226.3,395L-226.3,395z"/>
		</g>
		<g>
			<path class="st4" d="M-226.5,396c0,0.1,0.1,0.1,0.2,0.1c0.1,0,0.6-0.1,0.6-0.1l0,0.2c0,0-0.5,0.1-0.6,0.1c-0.2,0-0.3,0-0.4-0.3
				c0-0.3,0.1-0.4,0.3-0.4c0.1,0,0.6-0.1,0.6-0.1l0,0.2c0,0-0.6,0.1-0.6,0.1C-226.5,395.9-226.5,395.9-226.5,396L-226.5,396z"/>
		</g>
		<g>
			<path class="st4" d="M-239,400.7c0,0.1,0.1,0.1,0.1,0.1l0.3-0.3L-239,400.7C-239,400.6-239,400.7-239,400.7l-0.1,0.1
				c0-0.1-0.1-0.1-0.1-0.1l-0.2,0.1l-0.1-0.2l1-0.2l0.1,0.2l-0.7,0.8l-0.1-0.2l0.1-0.2c0,0-0.1-0.1-0.1-0.2L-239,400.7L-239,400.7z"
				/>
		</g>
		<g>
			<polygon class="st4" points="-238.6,401.9 -238.1,401.3 -238.7,401.7 -238.8,401.6 -238.1,401 -237.9,401.2 -238.3,401.8 
				-237.7,401.4 -237.5,401.6 -238.2,402.3 -238.3,402.1 -237.8,401.6 -238.4,402 			"/>
		</g>
		<g>
			<polygon class="st4" points="-236.8,402.4 -237.2,402.1 -237.3,402.3 -236.9,402.5 -237.1,402.7 -237.4,402.4 -237.6,402.6 
				-237.2,402.9 -237.3,403 -237.8,402.6 -237.2,401.9 -236.7,402.3 			"/>
		</g>
		<g>
			<path class="st4" d="M-236.4,402.9c0.1,0,0.1,0.1,0.2,0.1c0.1,0,0.1,0,0.2-0.1c0-0.1,0-0.1,0-0.2c-0.1,0-0.2-0.1-0.2-0.1
				L-236.4,402.9C-236.5,402.9-236.5,402.9-236.4,402.9l-0.1,0.2c0,0-0.1,0-0.1,0l-0.2,0.3l-0.2-0.1c0,0,0.5-0.8,0.5-0.8
				c0,0,0.3,0.2,0.5,0.3c0.1,0.1,0.1,0.2,0.1,0.3c-0.1,0.1-0.2,0.1-0.3,0.1c0.1,0,0.1,0.1,0,0.2c0,0.1-0.1,0.2-0.1,0.2l-0.2-0.1
				c0,0,0.1-0.1,0.1-0.2c0.1-0.1,0-0.2-0.1-0.2c0,0-0.1,0-0.1,0L-236.4,402.9L-236.4,402.9z"/>
		</g>
		<g>
			<polygon class="st4" points="-235.9,403.8 -235.6,402.9 -235.4,403 -235.7,403.9 			"/>
		</g>
		<g>
			<path class="st4" d="M-234.6,403.6c0-0.1,0-0.2-0.1-0.2s-0.2,0.1-0.3,0.2c0,0.2,0,0.3,0.1,0.4c0.1,0,0.2,0,0.2-0.1l0.2,0
				c-0.1,0.2-0.2,0.3-0.5,0.2c-0.2-0.1-0.3-0.3-0.2-0.6c0.1-0.3,0.3-0.4,0.5-0.4c0.2,0.1,0.3,0.3,0.3,0.4L-234.6,403.6L-234.6,403.6
				z"/>
		</g>
		<g>
			<path class="st4" d="M-231.8,403.7c0-0.1-0.1-0.2-0.2-0.1c-0.1,0-0.2,0.2-0.2,0.3c0,0.2,0.1,0.3,0.3,0.3c0.1,0,0.2-0.1,0.2-0.2
				l0.2,0c0,0.2-0.1,0.4-0.3,0.4c-0.2,0-0.4-0.1-0.4-0.4c0-0.3,0.1-0.5,0.3-0.5c0.2,0,0.4,0.1,0.4,0.3L-231.8,403.7L-231.8,403.7z"
				/>
		</g>
		<g>
			<polygon class="st4" points="-230.7,403.2 -231.2,403.4 -231.1,403.6 -230.7,403.4 -230.6,403.6 -231,403.7 -231,404 
				-230.5,403.8 -230.5,404 -231.1,404.2 -231.4,403.3 -230.8,403.1 			"/>
		</g>
		<g>
			<polygon class="st4" points="-230.3,402.9 -229.7,403.2 -230,402.7 -229.8,402.6 -229.4,403.5 -229.5,403.6 -230.2,403.2 
				-229.9,403.7 -230,403.8 -230.5,403 			"/>
		</g>
		<g>
			<polygon class="st4" points="-228.8,403.1 -229.2,402.5 -229.5,402.6 -229.6,402.5 -229,402.1 -228.9,402.2 -229.1,402.4 
				-228.6,403 			"/>
		</g>
		<g>
			<polygon class="st4" points="-227.3,400.1 -226.6,400.5 -226.4,400.1 -226.3,400.2 -226.6,400.8 -227.4,400.3 			"/>
		</g>
		<g>
			<path class="st4" d="M-233.8,404c0.1,0,0.1,0,0.1,0l-0.1-0.4l-0.2,0.4C-233.9,404-233.8,404-233.8,404l0,0.2c-0.1,0-0.2,0-0.2,0
				l-0.1,0.2l-0.2,0l0.4-0.9l0.2,0l0.2,1l-0.2,0l0-0.2c0,0-0.1,0-0.2,0L-233.8,404L-233.8,404z"/>
		</g>
		<g>
			<path class="st4" d="M-227.3,401.2c0-0.1,0.1-0.1,0.1-0.1l-0.4-0.1L-227.3,401.2C-227.4,401.3-227.3,401.3-227.3,401.2l0.1,0.1
				c0,0.1-0.1,0.1-0.1,0.1l0.1,0.2l-0.1,0.1l-0.6-0.8l0.1-0.2l1,0.3l-0.1,0.1l-0.2-0.1c0,0-0.1,0.1-0.1,0.2L-227.3,401.2
				L-227.3,401.2z"/>
		</g>
		<g>
			<path class="st4" d="M-228.3,402c0,0,0.1-0.1,0.1-0.1c0,0,0-0.1,0-0.2c-0.1-0.1-0.1,0-0.2,0c0,0-0.2,0.2-0.2,0.2L-228.3,402
				C-228.3,402.1-228.3,402-228.3,402l0.1,0.1c0,0-0.1,0.1-0.1,0.1l0.3,0.3l-0.1,0.1c0,0-0.7-0.7-0.7-0.7c0,0,0.3-0.3,0.4-0.4
				c0.1-0.1,0.2-0.1,0.3,0c0.1,0.1,0.1,0.2,0.1,0.3c0,0,0.1,0,0.2,0c0,0,0.2,0.2,0.2,0.2l-0.1,0.1c0,0-0.1-0.1-0.2-0.2
				c-0.1-0.1-0.1-0.1-0.2,0c0,0-0.1,0-0.1,0.1L-228.3,402L-228.3,402z"/>
		</g>
		<g>
			<path class="st4" d="M-226.2,397.1c0,0.1,0,0.1,0,0.1l0.4-0.1l-0.4-0.1C-226.2,397-226.2,397.1-226.2,397.1l-0.2,0
				c0-0.1,0-0.2,0-0.2l-0.2-0.1l0-0.2l1,0.3l0,0.2l-1,0.3l0-0.2l0.2-0.1c0,0,0-0.1,0-0.2L-226.2,397.1L-226.2,397.1z"/>
		</g>
		<g>
			<path class="st4" d="M-227.1,393.9c0,0.1,0.1,0.1,0.1,0.1l0.3-0.3L-227.1,393.9C-227.1,393.8-227.1,393.8-227.1,393.9l-0.1,0.1
				c0-0.1-0.1-0.1-0.1-0.1l-0.2,0l-0.1-0.2l1-0.2l0.1,0.2l-0.7,0.7l-0.1-0.2l0.1-0.1c0,0,0-0.1-0.1-0.2L-227.1,393.9L-227.1,393.9z"
				/>
		</g>
		<g>
			<path class="st4" d="M-228.5,392.2C-228.5,392.2-228.4,392.2-228.5,392.2l0.3-0.3L-228.5,392.2
				C-228.6,392.1-228.6,392.1-228.5,392.2l-0.1,0.1c-0.1-0.1-0.1-0.1-0.1-0.1l-0.2,0.1l-0.1-0.1l0.9-0.5l0.2,0.1l-0.4,0.9l-0.1-0.1
				l0.1-0.2c0,0-0.1-0.1-0.1-0.1L-228.5,392.2L-228.5,392.2z"/>
		</g>
		<g>
			<path class="st4" d="M-235.6,391c0.1,0,0.1,0,0.1,0l-0.3-0.3l0,0.4C-235.7,391.1-235.6,391.1-235.6,391l0.1,0.2
				c-0.1,0-0.1,0.1-0.1,0.1l0,0.2l-0.2,0.1l-0.1-1l0.2-0.1l0.7,0.8l-0.2,0.1l-0.1-0.2c0,0-0.1,0-0.2,0.1L-235.6,391L-235.6,391z"/>
		</g>
		<g>
			<path class="st4" d="M-239.9,397.4c0-0.1,0-0.2,0-0.2c0-0.1-0.1-0.1-0.1-0.1c-0.1,0-0.1,0.1-0.1,0.1c0,0.1,0,0.2,0,0.2
				L-239.9,397.4C-239.9,397.4-239.9,397.4-239.9,397.4l0.2,0c0,0.1,0,0.1,0,0.1l0.4,0l0,0.2c0,0-1,0-1,0c0,0,0-0.4,0-0.5
				c0-0.1,0.1-0.2,0.3-0.2c0.1,0,0.2,0.1,0.2,0.2c0-0.1,0.1-0.1,0.2-0.1c0.1,0,0.3,0,0.3,0l0,0.2c0,0-0.1,0-0.2,0
				c-0.1,0-0.1,0.1-0.1,0.1c0,0,0,0.1,0,0.1L-239.9,397.4L-239.9,397.4z"/>
		</g>
		<g>
			<path class="st4" d="M-227.6,392.8c0,0,0.1,0.1,0.1,0.1c0,0,0.1,0.1,0.2,0c0.1,0,0.1-0.1,0-0.2c0-0.1-0.2-0.2-0.2-0.2
				L-227.6,392.8C-227.7,392.7-227.7,392.7-227.6,392.8l-0.1,0.1c0,0-0.1-0.1-0.1-0.1l-0.3,0.2l-0.1-0.1c0,0,0.8-0.6,0.8-0.6
				c0,0,0.2,0.3,0.3,0.4c0.1,0.1,0,0.2-0.1,0.3c-0.1,0.1-0.2,0.1-0.3,0c0,0.1,0,0.1-0.1,0.2c0,0-0.2,0.2-0.2,0.2l-0.1-0.1
				c0,0,0.1-0.1,0.2-0.1c0.1-0.1,0.1-0.1,0-0.2c0,0,0-0.1-0.1-0.1L-227.6,392.8L-227.6,392.8z"/>
		</g>
		<g>
			<path class="st4" d="M-239.5,399.1c0.1,0,0.2-0.1,0.2-0.2c0-0.1-0.1-0.2-0.2-0.2c-0.1,0-0.2,0.1-0.2,0.2
				C-239.7,399-239.6,399.1-239.5,399.1L-239.5,399.1z"/>
		</g>
		<g>
			<path class="st4" d="M-226.4,399.1c-0.1,0-0.2-0.1-0.2-0.2c0-0.1,0.1-0.2,0.2-0.2c0.1,0,0.2,0.1,0.2,0.2
				C-226.2,399-226.3,399.1-226.4,399.1L-226.4,399.1z"/>
		</g>
		<g>
			<path class="st6" d="M-235.1,395.4l-0.2,0.3l1.5,0.3c0,0,0-0.1,0-0.1L-235.1,395.4L-235.1,395.4z"/>
		</g>
		<g>
			<path class="st6" d="M-234.6,394.6l-0.2,0.3l1.1,0.5c0,0,0,0,0-0.1L-234.6,394.6L-234.6,394.6z"/>
		</g>
		<g>
			<path class="st6" d="M-234.8,395l-0.2,0.3l1.2,0.5c0,0,0-0.1,0-0.1L-234.8,395L-234.8,395z"/>
		</g>
		<g>
			<path class="st6" d="M-232.3,396.5l1.7,1.2c0.2,0,0.6,0,0.7,0L-232.3,396.5C-232.3,396.4-232.3,396.5-232.3,396.5L-232.3,396.5z"
				/>
		</g>
		<g>
			<path class="st6" d="M-233,396.9l-0.1,0.8c0,0,0.1,0,0.2,0L-233,396.9C-233,396.9-233,396.9-233,396.9
				C-233,396.9-233,396.9-233,396.9L-233,396.9z"/>
		</g>
		<g>
			<path class="st6" d="M-232.9,394.9l0.2-2.6l-0.2-0.4l-0.1,0.2L-232.9,394.9C-233,394.9-233,394.9-232.9,394.9
				C-233,394.9-232.9,394.9-232.9,394.9L-232.9,394.9z"/>
		</g>
		<g>
			<path class="st6" d="M-229.7,397.3l-0.4-0.7l-2.1-0.4c0,0,0,0.1,0,0.1L-229.7,397.3L-229.7,397.3z"/>
		</g>
		<g>
			<path class="st6" d="M-230.4,396.2l-0.2-0.4l-1.5,0.2c0,0,0,0.1,0,0.1L-230.4,396.2L-230.4,396.2z"/>
		</g>
		<g>
			<path class="st6" d="M-230.8,395.6l-0.2-0.3l-1.3,0.5c0,0,0,0.1,0,0.1L-230.8,395.6L-230.8,395.6z"/>
		</g>
		<g>
			<path class="st6" d="M-231.1,395l-0.1-0.2l-1,0.7c0,0,0,0.1,0,0.1L-231.1,395L-231.1,395z"/>
		</g>
		<g>
			<path class="st6" d="M-231.3,394.7l-0.2-0.3l-0.8,0.9c0,0,0,0.1,0,0.1L-231.3,394.7L-231.3,394.7z"/>
		</g>
		<g>
			<path class="st6" d="M-231.5,394.3l-0.1-0.2l-0.8,1c0,0,0,0,0.1,0.1L-231.5,394.3L-231.5,394.3z"/>
		</g>
		<g>
			<path class="st6" d="M-231.7,394l-0.1-0.2l-0.8,1.2c0,0,0,0,0.1,0.1L-231.7,394L-231.7,394z"/>
		</g>
		<g>
			<path class="st6" d="M-232,393.6l-0.1-0.2l-0.6,1.6c0,0,0,0,0.1,0L-232,393.6L-232,393.6z"/>
		</g>
		<g>
			<path class="st6" d="M-232.3,393.1l-0.2-0.3l-0.4,2.2c0,0,0,0,0.1,0L-232.3,393.1L-232.3,393.1z"/>
		</g>
		<g>
			<path class="st6" d="M-233.3,392.5l-0.2,0.3l0.4,2c0,0,0,0,0.1,0L-233.3,392.5L-233.3,392.5z"/>
		</g>
		<g>
			<path class="st6" d="M-233.7,393.2l-0.2,0.3l0.6,1.5c0,0,0,0,0,0L-233.7,393.2L-233.7,393.2z"/>
		</g>
		<g>
			<path class="st6" d="M-234,393.7l-0.1,0.2l0.8,1.2c0,0,0,0,0,0L-234,393.7L-234,393.7z"/>
		</g>
		<g>
			<path class="st6" d="M-234.3,394.1l-0.2,0.3l1,0.8c0,0,0,0,0,0L-234.3,394.1L-234.3,394.1z"/>
		</g>
		<g>
			<path class="st6" d="M-235.6,396.2l-0.3,0.5l2.1-0.4c0,0,0,0,0-0.1L-235.6,396.2L-235.6,396.2z"/>
		</g>
		<g>
			<path class="st6" d="M-236.1,397.2l-0.3,0.5l2.8-1.3c0,0,0,0,0-0.1L-236.1,397.2L-236.1,397.2z"/>
		</g>
		<g>
			<path class="st6" d="M-235,397.4l0.1,0.2l1.3-1c0,0,0,0,0,0L-235,397.4L-235,397.4z"/>
		</g>
		<g>
			<path class="st6" d="M-234.8,397.7L-234.8,397.7c0.1,0,0.3,0,0.3,0l1-1.1c0,0,0,0,0,0L-234.8,397.7L-234.8,397.7z"/>
		</g>
		<g>
			<path class="st6" d="M-233.8,397.3c0.1,0,0.2,0,0.2,0l0.2-0.5c0,0,0,0-0.1-0.1L-233.8,397.3L-233.8,397.3z"/>
		</g>
		<g>
			<path class="st6" d="M-233.5,397.4c0,0.1,0.1,0.2,0.1,0.2l0.2-0.7c0,0-0.1,0-0.1,0L-233.5,397.4L-233.5,397.4z"/>
		</g>
		<g>
			<path class="st6" d="M-232.8,397.7c0.1,0,0.2,0,0.2,0l-0.2-0.8c0,0,0,0-0.1,0L-232.8,397.7L-232.8,397.7z"/>
		</g>
		<g>
			<path class="st6" d="M-232.3,397.7c0,0,0.2,0,0.3,0l-0.6-0.9c0,0-0.1,0-0.1,0L-232.3,397.7L-232.3,397.7z"/>
		</g>
		<g>
			<path class="st6" d="M-231.9,397.7c0.1,0,0.3,0,0.4,0l-1-1c0,0,0,0,0,0L-231.9,397.7L-231.9,397.7z"/>
		</g>
		<g>
			<path class="st6" d="M-231.4,397.7c0.1,0,0.3,0,0.4,0l-1.5-1.1c0,0,0,0.1-0.1,0.1L-231.4,397.7L-231.4,397.7z"/>
		</g>
		<g>
			<path class="st7" d="M-230.1,396.7c0,0.2,0.1,0.4,0.1,0.6c0,0.1,0,0.2,0,0.4l0.1,0c0-0.1,0-0.2,0-0.4c0-0.2,0-0.3,0-0.5
				L-230.1,396.7L-230.1,396.7z"/>
		</g>
		<g>
			<path class="st7" d="M-231.1,395c-0.5-0.4-1.1-0.6-1.8-0.6c-0.7,0-1.3,0.2-1.8,0.6l-0.1,0.1c0.5-0.4,1.2-0.7,1.9-0.7
				c0.7,0,1.4,0.3,1.9,0.7L-231.1,395L-231.1,395z"/>
		</g>
		<g>
			<path class="st7" d="M-235.8,396.7l-0.1,0.1c0,0.2,0,0.3,0,0.5c0,0.1,0,0.3,0,0.4l0.1,0c0-0.1,0-0.3,0-0.4
				C-235.9,397.1-235.9,396.9-235.8,396.7L-235.8,396.7z"/>
		</g>
		<g>
			<path class="st1" d="M-230,396.9c0,0.2,0,0.3,0,0.5c0,0.1,0,0.2,0,0.4l0.1,0c0-0.1,0-0.2,0-0.4c0-0.1,0-0.2,0-0.3L-230,396.9
				L-230,396.9z"/>
		</g>
		<g>
			<path class="st1" d="M-231.2,394.9c-0.5-0.3-1.1-0.5-1.8-0.5c-0.7,0-1.3,0.2-1.8,0.5l-0.1,0.1c0.5-0.4,1.1-0.6,1.8-0.6
				c0.7,0,1.3,0.2,1.8,0.6L-231.2,394.9L-231.2,394.9z"/>
		</g>
		<g>
			<path class="st1" d="M-235.9,396.9l-0.1,0.1c0,0.1,0,0.2,0,0.3c0,0.1,0,0.3,0,0.4l0.1,0c0-0.1,0-0.3,0-0.4
				C-236,397.2-236,397-235.9,396.9L-235.9,396.9z"/>
		</g>
		<g>
			<path class="st8" d="M-229.9,397c0,0.1,0,0.2,0,0.3c0,0.1,0,0.2,0,0.4l0.1,0c0-0.1,0-0.2,0-0.4c0-0.1,0-0.1,0-0.2L-229.9,397
				L-229.9,397z"/>
		</g>
		<g>
			<path class="st8" d="M-231.3,394.7c-0.5-0.3-1.1-0.5-1.7-0.5c-0.6,0-1.2,0.2-1.7,0.5l-0.1,0.1c0.5-0.3,1.1-0.5,1.8-0.5
				c0.7,0,1.3,0.2,1.8,0.5L-231.3,394.7L-231.3,394.7z"/>
		</g>
		<g>
			<path class="st8" d="M-236,397l-0.1,0.1c0,0.1,0,0.1,0,0.2c0,0.1,0,0.3,0,0.4l0.1,0c0-0.1,0-0.3,0-0.4
				C-236,397.2-236,397.1-236,397L-236,397z"/>
		</g>
		<g>
			<path class="st9" d="M-229.9,397.1c0,0.1,0,0.1,0,0.2c0,0.1,0,0.2,0,0.4l0.1,0c0-0.1,0-0.2,0-0.4c0,0,0-0.1,0-0.1L-229.9,397.1
				L-229.9,397.1z"/>
		</g>
		<g>
			<path class="st9" d="M-231.4,394.6c-0.5-0.3-1-0.4-1.6-0.4c-0.6,0-1.1,0.2-1.6,0.4l-0.1,0.1c0.5-0.3,1.1-0.5,1.7-0.5
				c0.6,0,1.2,0.2,1.7,0.5L-231.4,394.6L-231.4,394.6z"/>
		</g>
		<g>
			<path class="st9" d="M-236.1,397.1l-0.1,0.1c0,0,0,0.1,0,0.1c0,0.1,0,0.3,0,0.4l0.1,0c0-0.1,0-0.3,0-0.4
				C-236.1,397.3-236.1,397.2-236.1,397.1L-236.1,397.1z"/>
		</g>
		<g>
			<path class="st10" d="M-229.8,397.2c0,0,0,0.1,0,0.1c0,0.1,0,0.2,0,0.4l0.1,0c0-0.1,0-0.2,0-0.4c0,0,0,0,0,0L-229.8,397.2
				L-229.8,397.2z"/>
		</g>
		<g>
			<path class="st10" d="M-231.4,394.5c-0.5-0.3-1-0.4-1.6-0.4c-0.6,0-1.1,0.1-1.6,0.4l-0.1,0.1c0.5-0.3,1-0.4,1.6-0.4
				c0.6,0,1.1,0.2,1.6,0.4L-231.4,394.5L-231.4,394.5z"/>
		</g>
		<g>
			<path class="st10" d="M-236.1,397.2l-0.1,0.1c0,0,0,0,0,0c0,0.1,0,0.3,0,0.4l0.1,0c0-0.1,0-0.3,0-0.4
				C-236.1,397.3-236.1,397.3-236.1,397.2L-236.1,397.2z"/>
		</g>
		<g>
			<path class="st11" d="M-229.7,397.3C-229.7,397.3-229.7,397.3-229.7,397.3c0,0.1,0,0.3,0,0.4l0.1,0
				C-229.7,397.6-229.7,397.5-229.7,397.3L-229.7,397.3L-229.7,397.3z"/>
		</g>
		<g>
			<path class="st11" d="M-231.5,394.4c-0.4-0.2-1-0.4-1.5-0.4c-0.5,0-1,0.1-1.5,0.4l-0.1,0.1c0.5-0.3,1-0.4,1.6-0.4
				C-232.4,394.1-231.9,394.3-231.5,394.4L-231.5,394.4L-231.5,394.4z"/>
		</g>
		<g>
			<path class="st11" d="M-236.2,397.3L-236.2,397.3c-0.1,0.2,0,0.3,0,0.4l0.1,0C-236.2,397.6-236.2,397.5-236.2,397.3
				C-236.2,397.3-236.2,397.3-236.2,397.3L-236.2,397.3z"/>
		</g>
		<g>
			<path class="st12" d="M-229.7,397.4c0,0.1,0,0.2,0,0.3l0.1,0C-229.6,397.6-229.6,397.6-229.7,397.4L-229.7,397.4L-229.7,397.4z"
				/>
		</g>
		<g>
			<path class="st12" d="M-231.5,394.3c-0.4-0.2-0.9-0.3-1.4-0.3c-0.5,0-1,0.1-1.4,0.3l-0.1,0.1c0.4-0.2,1-0.4,1.5-0.4
				C-232.4,394.1-231.9,394.2-231.5,394.3L-231.5,394.3L-231.5,394.3z"/>
		</g>
		<g>
			<path class="st12" d="M-236.3,397.5c0,0.1,0,0.2,0,0.2l0.1,0C-236.3,397.6-236.3,397.5-236.3,397.5L-236.3,397.5L-236.3,397.5z"
				/>
		</g>
		<g>
			<path class="st1" d="M-234.7,397.9c0.1,0,0.3,0,0.3,0c0,0,0.1,0.1,0,0.1S-234.6,398-234.7,397.9L-234.7,397.9L-234.7,397.9z"/>
		</g>
		<g>
			<path class="st1" d="M-234.5,398c0,0,0.1,0,0.2,0c0,0,0,0,0,0C-234.4,398.1-234.5,398.1-234.5,398L-234.5,398L-234.5,398z"/>
		</g>
		<g>
			<path class="st1" d="M-233.2,397.9c0,0,0.3,0,0.4,0v0C-233,397.9-233.1,397.9-233.2,397.9L-233.2,397.9L-233.2,397.9z"/>
		</g>
		<g>
			<path class="st1" d="M-231.9,397.8c0.1,0,0.2,0,0.2,0l0,0C-231.7,397.9-231.9,397.9-231.9,397.8L-231.9,397.8L-231.9,397.8z"/>
		</g>
		<g>
			<path class="st1" d="M-231,397.8c0.1,0,0.2,0,0.3,0l0,0C-230.8,397.9-230.9,397.9-231,397.8L-231,397.8L-231,397.8z"/>
		</g>
		<g>
			<path class="st1" d="M-229.2,398.2c-0.1,0-0.3,0-0.3,0c0,0-0.1,0.1,0,0C-229.5,398.2-229.3,398.2-229.2,398.2L-229.2,398.2
				L-229.2,398.2z"/>
		</g>
		<g>
			<path class="st1" d="M-236.7,398.2c0.1,0,0.3,0,0.5,0l0.1-0.1C-236.2,398.2-236.5,398.1-236.7,398.2L-236.7,398.2L-236.7,398.2z"
				/>
		</g>
		<g>
			<path class="st1" d="M-236.6,398L-236.6,398c0.1,0,0.4,0,0.6,0.1l0.1-0.1C-236.1,398-236.5,398-236.6,398L-236.6,398z"/>
		</g>
		<g>
			<path class="st1" d="M-236.5,397.9L-236.5,397.9c0.1,0.1,0.5,0,0.7,0.1l0.1,0C-236,397.8-236.4,397.8-236.5,397.9L-236.5,397.9z"
				/>
		</g>
		<g>
			<path class="st1" d="M-235.6,399.5C-235.6,399.5-235.6,399.5-235.6,399.5c0.3-0.2,0.6-0.1,0.7-0.1c0.1,0,0.1,0.1,0.1,0.1
				c0.2,0,0.3,0,0.4,0c-0.1,0-0.2,0-0.4-0.1c-0.3-0.1-0.7,0-0.8,0c-0.1,0-0.2,0.1-0.4,0C-235.9,399.5-235.7,399.5-235.6,399.5
				L-235.6,399.5z"/>
		</g>
		<g>
			<path class="st1" d="M-229.5,397.6c-0.2,0-0.8,0-1,0c-0.2,0-1.3,0-1.5,0c-0.3,0-1.5,0-1.9,0c-0.4,0-2.1,0-2.4,0l-0.1,0.1
				c0.2,0,1.2,0,1.5,0c0.3,0,1.2,0,1.5,0s1,0,1.2,0c0.1,0,1.2,0,1.4,0C-230.7,397.7-230,397.7-229.5,397.6L-229.5,397.6
				L-229.5,397.6z"/>
		</g>
		<g>
			<path class="st1" d="M-229.5,397.8c-0.2,0-0.5,0-0.5,0c0,0-0.1,0.1,0,0C-229.9,397.8-229.6,397.8-229.5,397.8L-229.5,397.8
				L-229.5,397.8z"/>
		</g>
		<g>
			<path class="st1" d="M-229.4,397.9c-0.1,0-0.4,0-0.5,0c0,0-0.1,0.1,0,0.1C-229.8,398-229.5,398-229.4,397.9L-229.4,397.9
				L-229.4,397.9z"/>
		</g>
		<g>
			<path class="st1" d="M-229.3,398c-0.1,0-0.3,0-0.4,0c0,0-0.1,0.1,0,0C-229.6,398.1-229.4,398.1-229.3,398L-229.3,398L-229.3,398z
				"/>
		</g>
		<g>
			<path class="st1" d="M-228.7,399c-0.1,0-0.3,0-0.4,0c-0.1,0-0.1,0,0,0C-229,399.1-228.8,399.1-228.7,399L-228.7,399L-228.7,399z"
				/>
		</g>
		<g>
			<path class="st1" d="M-228.6,399.2c-0.1,0-0.4,0-0.6-0.1c-0.2-0.1-0.5-0.1-0.8,0c-0.5,0.1-0.7,0-1.1-0.1c-0.4-0.1-0.9-0.1-1.1,0
				c-0.2,0.1-0.1,0.1,0,0.1c0.2,0,0.6-0.1,1,0c0.4,0.1,0.7,0.1,1,0.1c0.2,0,0.4,0,0.5,0c0.1,0,0.1,0,0,0c-0.7,0.1-1,0.1-1.4,0
				c-0.4-0.1-0.8-0.1-1.1,0c-0.3,0-0.5,0-0.8-0.1c-0.3-0.1-0.5-0.1-0.6-0.1c-0.1,0-0.1,0,0,0c0.1,0,0.4,0,0.6,0.1
				c0.2,0.1,0.6,0.1,0.9,0.1c0.3,0,0.7-0.1,1,0c0.3,0.1,0.7,0.1,1,0.1s0.5-0.1,0.8,0C-229,399.3-228.7,399.3-228.6,399.2
				L-228.6,399.2L-228.6,399.2z"/>
		</g>
		<g>
			<path class="st1" d="M-228.5,399.3c-0.1,0-0.5,0-0.7,0c-0.2,0-0.5,0-0.9,0.1c-0.4,0.1-0.9-0.1-1.1-0.1c-0.2-0.1-0.5-0.1-0.7,0
				c-0.2,0-0.5,0.1-1-0.1c-0.6-0.2-0.9-0.1-1-0.1c-0.1,0-0.5,0-0.8,0c-0.3-0.1-0.6-0.1-0.8,0c-0.2,0.1-0.5,0.1-0.8,0
				c-0.3-0.1-0.6-0.1-0.8-0.1l0,0.1c0.2,0,0.6,0,0.8,0.1c0.3,0.1,0.7,0.1,0.8,0c0.3-0.1,0.5-0.1,0.8,0c0.2,0.1,0.6,0.1,0.9,0
				c0.4-0.1,0.6,0,1,0.1c0.3,0.1,0.8,0.1,1.1,0.1c0.3,0,0.5-0.1,0.8,0s0.7,0.2,1.1,0.1c0.4-0.1,0.7-0.1,0.8-0.1
				C-229,399.4-228.7,399.4-228.5,399.3L-228.5,399.3L-228.5,399.3z"/>
		</g>
		<g>
			<path class="st1" d="M-228.5,399.5c-0.1,0-0.4,0-0.6,0c-0.4-0.1-0.7,0-0.9,0c-0.4,0.1-0.6,0.1-0.9,0c-0.3-0.1-0.6-0.1-0.9-0.1
				c-0.3,0-0.9,0-1.3-0.1c-0.4-0.1-0.7-0.1-1,0c-0.3,0.1-0.7,0-0.9-0.1c-0.1-0.1-0.4-0.1-0.6,0c-0.3,0.1-0.5,0-0.8,0
				c-0.3-0.1-0.6-0.1-0.9-0.1l0,0c0.2,0,0.6,0,0.9,0.1c0.3,0.1,0.7,0.1,0.8,0c0.2,0,0.5,0,0.6,0c0.3,0.1,0.7,0.1,0.9,0.1
				c0.4-0.1,0.7-0.1,1,0c0.3,0.1,0.9,0.2,1.3,0.1c0.2,0,0.6,0,0.9,0.1c0.3,0.1,0.6,0.1,0.9,0c0.3-0.1,0.7-0.1,0.9,0
				C-228.8,399.5-228.7,399.5-228.5,399.5L-228.5,399.5L-228.5,399.5z"/>
		</g>
		<g>
			<path class="st1" d="M-228.4,399.6c-0.1,0-0.5,0-0.7,0c-0.2,0-0.5-0.1-0.8,0c-0.3,0.1-0.8,0.1-1,0c-0.3-0.1-0.6-0.1-0.9-0.1
				c-0.3,0-0.7,0.1-1.1-0.1c-0.5-0.1-0.6-0.2-1.1,0c-0.2,0.1-1.2,0-1.5,0.1c-0.3,0-0.6-0.1-0.8-0.2c-0.2-0.1-0.7-0.1-1.1-0.1l0,0.1
				c0.4-0.1,0.8,0,1,0.1c-0.2-0.1-0.8,0-1.1,0l-0.1,0.1c0.5-0.1,1.1-0.1,1.4,0c0.3,0.1,0.7,0.1,1,0c0.3-0.1,0.7,0,1,0.1h1.3
				c-0.2-0.1-0.4-0.1-0.6,0c-0.2,0-0.4,0-0.5-0.1c-0.1-0.1,0,0,0.1-0.1c0.4-0.1,0.8,0,1,0.2h1c0.3-0.2,0.5-0.1,0.7,0
				c0,0,0.1,0,0.2,0h1.1c0.3-0.1,0.6-0.1,0.8,0C-228.9,399.7-228.6,399.7-228.4,399.6L-228.4,399.6L-228.4,399.6z"/>
		</g>
		<g>
			<path class="st9" d="M-229.1,398.4c-0.7,0-0.9-0.4-1.2-0.8c-0.1,0-0.3,0-0.4,0c0,0.1-0.1,0.3-0.1,0.4c-0.1-0.1-0.3-0.4-0.4-0.6
				c-0.1,0-0.2,0-0.3,0c0,0.1-0.2,0.4-0.2,0.5c-0.1-0.1-0.4-0.5-0.5-0.6c-0.1,0-0.3,0-0.4,0c-0.1,0.2-0.2,0.5-0.4,0.7
				c-0.1-0.1-0.4-0.6-0.5-0.8c-0.1,0-0.3,0-0.4,0c-0.1,0.2-0.3,0.7-0.5,0.9c-0.2-0.3-0.6-0.8-0.8-1.1l-0.3,0c-0.4,1-1,1.2-1.4,1.2
				l-0.3,0.5c0.1,0,0.4,0,0.6,0.1c0.2,0.1,0.6,0.1,0.9,0s0.6-0.1,0.9,0c0.3,0.1,0.8,0.1,1.3-0.1c0.6,0.3,1,0.1,1.3,0.1
				c0.3-0.1,0.7-0.1,1,0c0.4,0.1,0.9,0.1,1.3,0c0.5-0.1,0.7,0.1,1.1,0.1L-229.1,398.4L-229.1,398.4z"/>
		</g>
		<g>
			<path class="st13" d="M-235.4,397.1c0,0.5,0.3,1.1,1.1,1.8c0,0,0.1,0,0.2,0c-0.2-0.2-0.7-0.7-0.8-1c0,0,0-0.1,0-0.1
				c0.4,0.5,0.8,0.9,1.2,1c0.1,0,0.2,0,0.2-0.1c-0.7-0.3-1.1-0.9-1.6-1.7C-235.2,397.1-235.4,397.1-235.4,397.1L-235.4,397.1z"/>
		</g>
		<g>
			<path class="st13" d="M-232.5,397.4c-0.1,0.4-0.3,0.7-0.5,0.9c0,0,0.1,0.1,0.1,0.1c0.1-0.1,0.2-0.2,0.2-0.2
				c0.1,0,0.1,0.1-0.1,0.4c0.2,0.1,0.5,0.3,0.7,0.4c-0.2,0-0.4,0.1-0.5,0.1c-0.4-0.3-0.7-0.5-1-1c0,0.2,0,0.3,0.1,0.4
				c0.1,0.1,0.3,0.4,0.7,0.6c-0.2,0-0.5,0-0.7-0.2c-0.1-0.2-0.4-0.8-0.5-1.5c0.1,0,0.3,0,0.4,0c0.1,0.2,0.3,0.6,0.5,0.8
				c0.1-0.1,0.3-0.4,0.4-0.7C-232.6,397.4-232.5,397.4-232.5,397.4L-232.5,397.4z"/>
		</g>
		<g>
			<path class="st13" d="M-231.4,397.5c0,0.2-0.2,0.4-0.2,0.6c0,0-0.1-0.1-0.1-0.1l0.2-0.5C-231.5,397.5-231.5,397.5-231.4,397.5
				L-231.4,397.5z"/>
		</g>
		<g>
			<path class="st13" d="M-231.6,398.2c0,0,0.1,0.1,0.1,0.1c0.1-0.1,0.1-0.2,0.1-0.4C-231.5,398-231.6,398.1-231.6,398.2
				L-231.6,398.2z"/>
		</g>
		<g>
			<path class="st13" d="M-230.8,398c0,0,0.1,0.1,0.1,0.1c0.1-0.2,0.1-0.4,0.2-0.5c0,0-0.1,0-0.1,0
				C-230.8,397.8-230.8,398-230.8,398L-230.8,398z"/>
		</g>
		<g>
			<path d="M-228.2,399.7h-9.5l0-0.1l4.7-7.8l0,0.1L-228.2,399.7z M-237.5,399.6h9.1l-4.6-7.6L-237.5,399.6z"/>
		</g>
	</g>
</g>
</svg>
