<?xml version="1.0" encoding="utf-8"?>
<!-- Generator: Adobe Illustrator 19.0.0, SVG Export Plug-In . SVG Version: 6.00 Build 0)  -->
<svg version="1.1" id="Layer_1" xmlns="http://www.w3.org/2000/svg" xmlns:xlink="http://www.w3.org/1999/xlink" x="0px" y="0px"
	 viewBox="-269 374 72 46" style="enable-background:new -269 374 72 46;" xml:space="preserve">
<style type="text/css">
	.st0{clip-path:url(#SVGID_2_);}
	.st1{fill:#E73137;}
	.st2{fill:#0062AE;}
	.st3{fill:#FFFFFF;}
</style>
<g>
	<defs>
		<path id="SVGID_1_" d="M-204,420H-262c-3.8,0-7-3.1-7-7V381c0-3.8,3.1-7,7-7h58.1c3.8,0,7,3.1,7,7V413
			C-197,416.9-200.1,420-204,420z"/>
	</defs>
	<clipPath id="SVGID_2_">
		<use xlink:href="#SVGID_1_"  style="overflow:visible;"/>
	</clipPath>
	<g class="st0">
		<g>
			<polygon class="st1" points="-196.1,389.2 -269.9,389.2 -269.9,372.7 -196.1,372.7 			"/>
		</g>
		<g>
			<path d="M-195.9,389.3h-74.1v-16.7h74.1V389.3z M-269.8,389h73.6v-16.2h-73.6V389z"/>
		</g>
		<g>
			<polygon class="st2" points="-196.1,422 -269.9,422 -269.9,405.6 -196.1,405.6 			"/>
		</g>
		<g>
			<path d="M-195.9,422.1h-74.1v-16.7h74.1V422.1z M-269.8,421.9h73.6v-16.2h-73.6V421.9z"/>
		</g>
		<g>
			<polygon class="st3" points="-196.1,405.6 -269.9,405.6 -269.9,389.2 -196.1,389.2 			"/>
		</g>
		<g>
			<path d="M-195.9,405.7h-74.1V389h74.1V405.7z M-269.8,405.5h73.6v-16.2h-73.6V405.5z"/>
		</g>
	</g>
</g>
</svg>
