<?xml version="1.0" encoding="utf-8"?>
<!-- Generator: Adobe Illustrator 19.0.0, SVG Export Plug-In . SVG Version: 6.00 Build 0)  -->
<svg version="1.1" id="Layer_1" xmlns="http://www.w3.org/2000/svg" xmlns:xlink="http://www.w3.org/1999/xlink" x="0px" y="0px"
	 viewBox="-269 374 72 46" style="enable-background:new -269 374 72 46;" xml:space="preserve">
<style type="text/css">
	.st0{fill:#FFFFFF;}
	.st1{fill:#003361;}
	.st2{fill:#DC2F34;}
</style>
<g>
	<path class="st0" d="M-204,420H-262c-3.8,0-7-3.1-7-7V381c0-3.8,3.1-7,7-7h58.1c3.8,0,7,3.1,7,7V413C-197,416.9-200.1,420-204,420z
		"/>
</g>
<g>
	<g>
		<polygon class="st1" points="-216.5,396.6 -236.2,396.6 -216.5,416.7 -249.5,416.7 -249.5,377.3 		"/>
	</g>
	<g>
		<path d="M-216.2,416.8h-33.4v-39.8l0.2,0.1l33.4,19.6h-19.9L-216.2,416.8z M-249.4,416.6h32.6l-19.7-20.1h19.5l-32.4-19V416.6z"/>
	</g>
	<g>
		<polygon class="st2" points="-222.2,395.1 -239.9,395.1 -220.2,415.2 -247.9,415.2 -247.9,380 		"/>
	</g>
	<g>
		<path d="M-219.9,415.3h-28.2v-35.5l0.2,0.1l26.1,15.3h-17.9L-219.9,415.3z M-247.8,415h27.3l-19.7-20.1h17.5l-25.1-14.7V415z"/>
	</g>
	<g>
		<polygon class="st0" points="-241,411.1 -240,408.8 -238,410.3 -238.2,407.9 -235.9,408.1 -237.3,406.1 -235.1,405.1 
			-237.3,404.1 -235.9,402.2 -238.2,402.4 -238,400 -240,401.4 -241,399.2 -242,401.4 -243.9,400 -243.7,402.4 -246.1,402.2 
			-244.7,404.1 -246.9,405.1 -244.7,406.1 -246.1,408.1 -243.7,407.9 -243.9,410.3 -242,408.8 		"/>
	</g>
	<g>
		<path class="st0" d="M-243.5,391.7l0.2-0.5l-1.4-0.6l1.5-0.3l-1-1.1l1.5,0.3l-0.4-1.4l1.2,0.8l0.2-1.4l0.8,1.2l0.8-1.2l0.2,1.4
			l1.2-0.8l-0.4,1.4l1.5-0.3l-1,1.1l1.5,0.3l-1.4,0.6l0.2,0.5c1.5-0.7,2.6-2,3.1-3.6c0,0.2,0,0.3,0,0.5c0,3.1-2.5,5.7-5.7,5.7
			c-3.1,0-5.7-2.5-5.7-5.7c0-0.2,0-0.3,0-0.5C-246.1,389.7-245,391-243.5,391.7L-243.5,391.7z"/>
	</g>
</g>
</svg>
