<?xml version="1.0" encoding="utf-8"?>
<!-- Generator: Adobe Illustrator 19.0.0, SVG Export Plug-In . SVG Version: 6.00 Build 0)  -->
<svg version="1.1" id="Layer_1" xmlns="http://www.w3.org/2000/svg" xmlns:xlink="http://www.w3.org/1999/xlink" x="0px" y="0px"
	 viewBox="-269 374 72 46" style="enable-background:new -269 374 72 46;" xml:space="preserve">
<style type="text/css">
	.st0{clip-path:url(#SVGID_2_);}
	.st1{fill:#004982;}
	.st2{fill:#FFED00;}
	.st3{fill:#FFFFFF;}
</style>
<g>
	<defs>
		<path id="SVGID_1_" d="M-204,420H-262c-3.8,0-7-3.1-7-7V381c0-3.8,3.1-7,7-7h58.1c3.8,0,7,3.1,7,7V413
			C-197,416.9-200.1,420-204,420z"/>
	</defs>
	<clipPath id="SVGID_2_">
		<use xlink:href="#SVGID_1_"  style="overflow:visible;"/>
	</clipPath>
	<g class="st0">
		<g>
			<polygon class="st1" points="-279.8,373.3 -186.2,373.3 -186.2,420.9 -279.8,420.9 			"/>
		</g>
		<g>
			<path d="M-186.1,421h-93.8v-47.8h93.8V421z M-279.6,420.8h93.3v-47.3h-93.3V420.8z"/>
		</g>
		<g>
			<polygon class="st2" points="-186.2,399.1 -279.8,399.1 -279.8,395.1 -186.2,395.1 			"/>
		</g>
		<g>
			<path d="M-186.1,399.2h-93.8V395h93.8V399.2z M-279.6,399h93.3v-3.7h-93.3V399z"/>
		</g>
		<g>
			<polygon class="st3" points="-256.4,415.5 -255.4,411.4 -252.5,414.4 -253.6,410.4 -249.6,411.5 -252.6,408.6 -248.6,407.6 
				-252.6,406.5 -249.6,403.6 -253.6,404.7 -252.5,400.7 -255.4,403.7 -256.4,399.6 -257.4,403.7 -260.3,400.7 -259.2,404.7 
				-263.2,403.6 -260.2,406.5 -264.2,407.6 -260.2,408.6 -263.2,411.5 -259.2,410.4 -260.3,414.4 -257.4,411.4 			"/>
		</g>
	</g>
</g>
</svg>
