<?xml version="1.0" encoding="utf-8"?>
<!-- Generator: Adobe Illustrator 19.0.0, SVG Export Plug-In . SVG Version: 6.00 Build 0)  -->
<svg version="1.1" id="Layer_1" xmlns="http://www.w3.org/2000/svg" xmlns:xlink="http://www.w3.org/1999/xlink" x="0px" y="0px"
	 viewBox="-269 374 72 46" style="enable-background:new -269 374 72 46;" xml:space="preserve">
<style type="text/css">
	.st0{clip-path:url(#SVGID_2_);}
	.st1{fill:#FFED00;}
	.st2{fill:#005497;}
	.st3{fill:#FFFFFF;}
	.st4{fill:#E40520;}
</style>
<g>
	<defs>
		<path id="SVGID_1_" d="M-204,420H-262c-3.8,0-7-3.1-7-7V381c0-3.8,3.1-7,7-7h58.1c3.8,0,7,3.1,7,7V413
			C-197,416.9-200.1,420-204,420z"/>
	</defs>
	<clipPath id="SVGID_2_">
		<use xlink:href="#SVGID_1_"  style="overflow:visible;"/>
	</clipPath>
	<g class="st0">
		<g>
			<polygon class="st1" points="-177.2,420.3 -177.2,373.7 -270.5,373.7 -270.5,420.3 			"/>
		</g>
		<g>
			<path d="M-177.1,420.4h-93.5v-46.9h93.5V420.4z M-270.4,420.2h93v-46.4h-93V420.2z"/>
		</g>
		<g>
			<polygon class="st2" points="-223.9,397 -223.9,373.7 -270.5,373.7 -270.5,397 			"/>
		</g>
		<g>
			<path d="M-223.8,397.1h-46.8v-23.6h46.8V397.1z M-270.4,396.9h46.3v-23.1h-46.3V396.9z"/>
		</g>
		<g>
			<polygon class="st3" points="-270.5,381.5 -260.7,381.5 -270.5,376.5 -270.5,373.7 -264.9,373.7 -251.1,380.5 -251.1,373.7 
				-243.4,373.7 -243.4,380.5 -229.6,373.7 -223.9,373.7 -223.9,376.5 -233.8,381.5 -223.9,381.5 -223.9,389.2 -233.8,389.2 
				-223.9,394.2 -223.9,397 -229.6,397 -243.4,390.1 -243.4,397 -251.1,397 -251.1,390.1 -264.9,397 -270.5,397 -270.5,394.2 
				-260.7,389.2 -270.5,389.2 			"/>
		</g>
		<g>
			<path d="M-223.8,397.1l-5.9,0l-13.6-6.8v6.8h-8v-6.8l-13.6,6.8h-5.8v-3l9.4-4.7h-9.4v-8h9.4l-9.4-4.7v-3l5.8,0l13.6,6.8v-6.8h8
				v6.8l13.6-6.8h5.8v3l-0.1,0l-9.4,4.7h9.5v8h-9.5l9.5,4.7V397.1z M-229.6,396.9h5.6v-2.6l-9.8-4.9l0.1-0.2h9.8v-7.5h-9.8l-0.1-0.2
				l9.8-4.9v-2.6h-5.6l-13.9,6.9v-6.9h-7.5v6.9l-0.2-0.1l-13.7-6.8h-5.5v2.6l9.8,4.9l-0.1,0.2h-9.7v7.5h9.7l0.1,0.2l-9.8,4.9v2.6
				h5.5l13.9-6.9v6.9h7.5v-6.9l0.2,0.1L-229.6,396.9z"/>
		</g>
		<g>
			<polygon class="st4" points="-227.6,373.7 -243.1,381.5 -239.4,381.5 -223.9,373.7 			"/>
		</g>
		<g>
			<path d="M-239.4,381.6h-3.7l-0.1-0.2l15.6-7.8h3.7l0.1,0.2L-239.4,381.6z M-242.6,381.3h3.2l15-7.5h-3.1L-242.6,381.3z"/>
		</g>
		<g>
			<polygon class="st4" points="-223.9,397 -239.4,389.2 -235.7,389.2 -223.9,395.1 			"/>
		</g>
		<g>
			<path d="M-224,397.1l-15.5-7.8l0.1-0.2l3.8,0l11.8,5.9l0.1,0.1v1.9L-224,397.1z M-238.9,389.4l14.9,7.4v-1.6l-11.7-5.9H-238.9z"
				/>
		</g>
		<g>
			<polygon class="st4" points="-254.9,381.5 -270.5,373.7 -270.5,375.5 -258.7,381.5 			"/>
		</g>
		<g>
			<path d="M-254.9,381.6l-3.8,0l-11.8-5.9l-0.1-0.1v-1.9l0.2-0.1l15.6,7.8L-254.9,381.6z M-258.7,381.3h3.2l-14.9-7.4v1.6
				L-258.7,381.3z"/>
		</g>
		<g>
			<polygon class="st4" points="-255,389.2 -270.5,397 -266.8,397 -251.2,389.2 			"/>
		</g>
		<g>
			<path d="M-266.8,397.1h-3.7l-0.1-0.2l15.6-7.8h3.7l0.1,0.2L-266.8,397.1z M-270,396.9h3.2l15-7.5h-3.2L-270,396.9z"/>
		</g>
		<g>
			<polygon class="st4" points="-270.5,383.1 -249.5,383.1 -249.5,373.7 -244.9,373.7 -244.9,383.1 -223.9,383.1 -223.9,387.6 
				-244.9,387.6 -244.9,397 -249.5,397 -249.5,387.6 -270.5,387.6 			"/>
		</g>
		<g>
			<path d="M-244.8,397.1h-4.8v-9.4h-21v-4.8h21v-9.4h4.8v9.4h21v4.8h-21V397.1z M-249.3,396.9h4.3v-9.4h21v-4.3h-21v-9.4h-4.3v9.4
				h-21v4.3h21V396.9z"/>
		</g>
		<g>
			<path class="st2" d="M-247.2,389.2c2.2,0,3.9-1.8,3.9-3.9c0-2.2-1.8-3.9-3.9-3.9c-2.2,0-3.9,1.8-3.9,3.9
				C-251.1,387.5-249.4,389.2-247.2,389.2L-247.2,389.2z"/>
		</g>
		<g>
			<path d="M-247.2,389.4c-2.2,0-4-1.8-4-4s1.8-4,4-4c2.2,0,4,1.8,4,4S-245,389.4-247.2,389.4z M-247.2,381.5
				c-2.1,0-3.8,1.7-3.8,3.8s1.7,3.8,3.8,3.8s3.8-1.7,3.8-3.8S-245.1,381.5-247.2,381.5z"/>
		</g>
		<g>
			<polygon class="st1" points="-260.8,383.8 -261.2,385 -262.4,385 -261.4,385.7 -261.8,386.9 -260.8,386.2 -259.8,386.9 
				-260.2,385.7 -259.2,385 -260.4,385 			"/>
		</g>
		<g>
			<path d="M-261.9,387l0.4-1.3l-1.1-0.8h1.4l0.4-1.3l0.4,1.3h1.4l-1.1,0.8l0.4,1.3l-1.1-0.8L-261.9,387z M-260.8,386.1l0.9,0.6
				l-0.3-1l0,0l0.8-0.6h-1.1l-0.3-1l-0.3,1h-1.1l0.9,0.6l-0.3,1L-260.8,386.1z"/>
		</g>
		<g>
			<polygon class="st1" points="-247.2,375.9 -246.8,377.1 -245.6,377.1 -246.6,377.9 -246.2,379 -247.2,378.3 -248.2,379 
				-247.8,377.8 -248.8,377.1 -247.6,377.1 			"/>
		</g>
		<g>
			<path d="M-246.1,379.2l-1.1-0.8l-1.1,0.8l0.4-1.3l-1.1-0.8h1.4l0.4-1.3l0.4,1.3h1.4l-1.1,0.8L-246.1,379.2z M-248.6,377.2
				l0.9,0.6l-0.3,1l0.9-0.6l0.9,0.6l-0.3-1l0.9-0.6h-1.1l-0.3-1l-0.3,1H-248.6z"/>
		</g>
		<g>
			<polygon class="st1" points="-247.2,391.5 -246.8,392.7 -245.6,392.7 -246.6,393.4 -246.2,394.6 -247.2,393.9 -248.2,394.6 
				-247.8,393.4 -248.8,392.7 -247.6,392.7 			"/>
		</g>
		<g>
			<path d="M-246.1,394.8l-1.1-0.8l-1.1,0.8l0.4-1.3l-1.1-0.8h1.4l0.4-1.3l0.4,1.3h1.4l-1.1,0.8L-246.1,394.8z M-248.6,392.8
				l0.9,0.6l-0.3,1l0.9-0.6l0.9,0.6l-0.3-1l0.9-0.6h-1.1l-0.3-1l-0.3,1H-248.6z"/>
		</g>
		<g>
			<polygon class="st1" points="-247.2,381.8 -248,384.2 -250.6,384.2 -248.5,385.8 -249.3,388.2 -247.2,386.7 -245.1,388.2 
				-245.9,385.7 -243.8,384.2 -246.4,384.2 			"/>
		</g>
		<g>
			<path d="M-249.4,388.4l0.9-2.6l-2.2-1.6h2.7l0.8-2.6l0.8,2.6h2.7l-2.2,1.6l0.8,2.6l-2.2-1.6L-249.4,388.4z M-247.2,386.6l2,1.4
				l-0.7-2.3l0,0l1.9-1.4h-2.4l0,0l-0.7-2.3l-0.7,2.3h-2.4l2,1.4l0,0l-0.7,2.2L-247.2,386.6z"/>
		</g>
		<g>
			<polygon class="st1" points="-233.6,383.8 -233.2,385 -232,385 -233,385.7 -232.6,386.9 -233.6,386.2 -234.6,386.9 -234.2,385.7 
				-235.2,385 -234,385 			"/>
		</g>
		<g>
			<path d="M-232.5,387l-1.1-0.8l-1.1,0.8l0.4-1.3l-1.1-0.8h1.4l0.4-1.3l0.4,1.3h1.4l-1.1,0.8L-232.5,387z M-235,385l0.9,0.6l-0.3,1
				l0.9-0.6l0.9,0.6l-0.3-1l0.9-0.6h-1.1l-0.3-1l-0.3,1H-235z"/>
		</g>
	</g>
</g>
</svg>
