<?xml version="1.0" encoding="utf-8"?>
<!-- Generator: Adobe Illustrator 19.0.0, SVG Export Plug-In . SVG Version: 6.00 Build 0)  -->
<svg version="1.1" id="Layer_1" xmlns="http://www.w3.org/2000/svg" xmlns:xlink="http://www.w3.org/1999/xlink" x="0px" y="0px"
	 viewBox="-269 374 72 46" style="enable-background:new -269 374 72 46;" xml:space="preserve">
<style type="text/css">
	.st0{clip-path:url(#SVGID_2_);}
	.st1{fill:#004288;}
	.st2{fill:#FFFFFF;}
	.st3{fill:#E40520;}
</style>
<g>
	<defs>
		<path id="SVGID_1_" d="M-204,420H-262c-3.8,0-7-3.1-7-7V381c0-3.8,3.1-7,7-7h58.1c3.8,0,7,3.1,7,7V413
			C-197,416.9-200.1,420-204,420z"/>
	</defs>
	<clipPath id="SVGID_2_">
		<use xlink:href="#SVGID_1_"  style="overflow:visible;"/>
	</clipPath>
	<g class="st0">
		<g>
			<polygon class="st1" points="-185.7,422.4 -185.7,372.8 -284.8,372.8 -284.8,422.4 			"/>
		</g>
		<g>
			<path d="M-185.5,422.5h-99.3v-49.8h99.3V422.5z M-284.6,422.3h98.8V373h-98.8V422.3z"/>
		</g>
		<g>
			<polygon class="st2" points="-284.8,381.1 -274.3,381.1 -284.8,375.9 -284.8,372.8 -278.8,372.8 -264.2,380.1 -264.2,372.8 
				-255.9,372.8 -255.9,380.1 -241.3,372.8 -235.3,372.8 -235.3,375.9 -245.8,381.1 -235.3,381.1 -235.3,389.4 -245.8,389.4 
				-235.3,394.6 -235.3,397.6 -241.3,397.6 -255.9,390.3 -255.9,397.6 -264.2,397.6 -264.2,390.3 -278.8,397.6 -284.8,397.6 
				-284.8,394.6 -274.3,389.4 -284.8,389.4 			"/>
		</g>
		<g>
			<path d="M-235.1,397.7l-6.2,0l-14.4-7.2v7.2h-8.5v-7.2l-14.5,7.2h-6.1v-3.2l0.1,0l10-5h-10V381h10l-10-5v-3.2l6.2,0l14.4,7.2
				v-7.2h8.5v7.2l14.5-7.2h6.2v3.2l-10.1,5h10.1v8.5h-10.1l10.1,5V397.7z M-241.3,397.5h5.9v-2.8l-10.4-5.2l0.1-0.2h10.4v-8h-10.4
				l-0.1-0.2l10.4-5.2V373h-5.9l-14.8,7.4V373h-8v7.4l-0.2-0.1l-14.6-7.3h-5.8v2.8l10.4,5.2l-0.1,0.2h-10.3v8h10.3l0.1,0.2
				l-10.4,5.2v2.8h5.8l14.8-7.4v7.4h8v-7.4l0.2,0.1L-241.3,397.5z"/>
		</g>
		<g>
			<polygon class="st3" points="-239.2,372.8 -255.7,381.1 -251.7,381.1 -235.3,372.8 			"/>
		</g>
		<g>
			<path d="M-251.7,381.2h-4l-0.1-0.2l16.6-8.3h3.9l0.1,0.2L-251.7,381.2z M-255.1,381h3.4l16-8h-3.3L-255.1,381z"/>
		</g>
		<g>
			<polygon class="st3" points="-235.3,397.6 -251.7,389.4 -247.8,389.4 -235.3,395.6 			"/>
		</g>
		<g>
			<path d="M-235.3,397.7l-16.5-8.3l0.1-0.2l4,0l12.5,6.3l0.1,0.1v2L-235.3,397.7z M-251.2,389.5l15.8,7.9v-1.7l-12.4-6.2H-251.2z"
				/>
		</g>
		<g>
			<polygon class="st3" points="-268.2,381.1 -284.8,372.8 -284.8,374.8 -272.2,381.1 			"/>
		</g>
		<g>
			<path d="M-268.2,381.2l-4,0l-12.6-6.3l-0.1-0.1v-2l0.2-0.1l16.5,8.3L-268.2,381.2z M-272.2,381h3.4l-15.9-7.9v1.7L-272.2,381z"/>
		</g>
		<g>
			<polygon class="st3" points="-268.2,389.4 -284.8,397.6 -280.8,397.6 -264.3,389.4 			"/>
		</g>
		<g>
			<path d="M-280.8,397.7h-4l-0.1-0.2l16.6-8.3h4l0.1,0.2L-280.8,397.7z M-284.2,397.5h3.4l16-8h-3.4L-284.2,397.5z"/>
		</g>
		<g>
			<polygon class="st3" points="-284.8,382.8 -262.4,382.8 -262.4,372.8 -257.6,372.8 -257.6,382.8 -235.3,382.8 -235.3,387.6 
				-257.6,387.6 -257.6,397.6 -262.4,397.6 -262.4,387.6 -284.8,387.6 			"/>
		</g>
		<g>
			<path d="M-257.4,397.7h-5.1v-10h-22.4v-5.1h22.4v-10h5.1v10h22.3v5.1h-22.3V397.7z M-262.3,397.5h4.6v-10h22.3v-4.6h-22.3v-10
				h-4.6v10h-22.4v4.6h22.4V397.5z"/>
		</g>
		<g>
			<polygon class="st2" points="-210.4,379.1 -211.3,381.9 -214.3,381.9 -211.9,383.6 -212.8,386.3 -210.4,384.6 -208.1,386.3 
				-209,383.6 -206.6,381.9 -209.5,381.9 			"/>
		</g>
		<g>
			<polygon class="st2" points="-221.9,390.6 -222.8,393.4 -225.7,393.4 -223.3,395.1 -224.2,397.9 -221.9,396.1 -219.5,397.9 
				-220.4,395.1 -218.1,393.4 -221,393.4 			"/>
		</g>
		<g>
			<polygon class="st2" points="-200.6,387.9 -201.4,390.5 -204.1,390.5 -201.9,392 -202.7,394.6 -200.6,393 -198.4,394.6 
				-199.3,392 -197.1,390.5 -199.8,390.5 			"/>
		</g>
		<g>
			<polygon class="st2" points="-210.4,408.4 -211.4,411.5 -214.7,411.5 -212.1,413.4 -213.1,416.5 -210.4,414.6 -207.8,416.5 
				-208.8,413.4 -206.2,411.5 -209.4,411.5 			"/>
		</g>
		<g>
			<polygon class="st3" points="-210.4,380.4 -211,382.2 -212.9,382.2 -211.4,383.3 -212,385.1 -210.4,384 -208.9,385.1 
				-209.5,383.3 -208,382.2 -209.9,382.2 			"/>
		</g>
		<g>
			<polygon class="st3" points="-221.9,391.9 -222.5,393.7 -224.4,393.7 -222.8,394.8 -223.4,396.6 -221.9,395.5 -220.4,396.6 
				-221,394.8 -219.4,393.7 -221.3,393.7 			"/>
		</g>
		<g>
			<polygon class="st3" points="-200.6,389.4 -201.1,390.9 -202.7,390.9 -201.4,391.9 -201.9,393.4 -200.6,392.4 -199.3,393.4 
				-199.8,391.9 -198.5,390.9 -200.1,390.9 			"/>
		</g>
		<g>
			<polygon class="st3" points="-210.4,409.9 -211.1,412 -213.3,412 -211.5,413.3 -212.2,415.3 -210.4,414 -208.7,415.3 
				-209.3,413.2 -207.6,412 -209.8,412 			"/>
		</g>
	</g>
</g>
</svg>
