<?xml version="1.0" encoding="utf-8"?>
<!-- Generator: Adobe Illustrator 19.0.0, SVG Export Plug-In . SVG Version: 6.00 Build 0)  -->
<svg version="1.1" id="Layer_1" xmlns="http://www.w3.org/2000/svg" xmlns:xlink="http://www.w3.org/1999/xlink" x="0px" y="0px"
	 viewBox="-269 374 72 46" style="enable-background:new -269 374 72 46;" xml:space="preserve">
<style type="text/css">
	.st0{clip-path:url(#SVGID_2_);}
	.st1{fill:#FFFFFF;stroke:#000000;stroke-width:2.5;}
	.st2{fill:#E95123;}
	.st3{fill:#FFFFFF;}
	.st4{fill:#008E5B;}
	.st5{fill:#FFFFFF;stroke:#E95123;stroke-width:0.125;}
	.st6{fill:#FFFFFF;stroke:#E95123;stroke-width:0.125;stroke-linecap:round;stroke-linejoin:round;}
</style>
<g>
	<defs>
		<path id="SVGID_1_" d="M-204,420H-262c-3.8,0-7-3.1-7-7V381c0-3.8,3.1-7,7-7h58.1c3.8,0,7,3.1,7,7V413
			C-197,416.9-200.1,420-204,420z"/>
	</defs>
	<clipPath id="SVGID_2_">
		<use xlink:href="#SVGID_1_"  style="overflow:visible;"/>
	</clipPath>
	<g class="st0">
		<g>
			<path class="st1" d="M-222.8,398.5"/>
		</g>
		<g>
			<polygon class="st2" points="-186.5,423 -186.5,374 -271.2,374 -271.2,423 			"/>
		</g>
		<g>
			<path d="M-186.4,423.1h-84.9v-49.2h84.9V423.1z M-271,422.8h84.4v-48.7H-271V422.8z"/>
		</g>
		<g>
			<polygon class="st3" points="-186.5,390.4 -243.1,390.4 -243.1,374 -186.5,374 			"/>
		</g>
		<g>
			<path d="M-186.4,390.5h-56.8v-16.6h56.8V390.5z M-242.9,390.3h56.3v-16.1h-56.3V390.3z"/>
		</g>
		<g>
			<polygon class="st4" points="-186.5,406.5 -243.1,406.5 -243.1,423 -186.5,423 			"/>
		</g>
		<g>
			<path d="M-186.4,423.1h-56.8v-16.7h56.8V423.1z M-242.9,422.8h56.3v-16.2h-56.3V422.8z"/>
		</g>
		<g>
			<path class="st3" d="M-248.8,394.4c-0.2,0-0.3,0-0.5,0c-1-0.2-1.8-0.7-2.5-1.2l-0.3-0.2c-0.1-0.1-0.3-0.2-0.5-0.4
				c-1.7-1.2-3.3-2.6-4.8-4.1c-1.5,1.6-3.1,3-4.8,4.1c-0.2,0.2-0.4,0.3-0.5,0.4l-0.3,0.2c-0.7,0.5-1.4,1-2.5,1.2
				c-1.2,0.2-1.9-0.3-2.1-0.9c-0.3-0.7,0-1.6,0.7-2c0.3-0.2,0.9-0.6,1.3-0.9c0.2-0.1,0.4-0.3,0.6-0.3c1.7-1.2,3.3-2.8,5-4.7
				c-0.3-0.4-0.6-0.8-0.8-1.2l-0.1,0l-0.3-0.5c-2.1-3.3-3.2-5.2-3.8-6.2c-0.5-0.9-1.2-2.1-0.1-2.9c1.1-0.8,2,0.3,2.7,1.1
				c0.8,0.9,2.1,2.6,4.5,5.7c0.1,0.1,0.2,0.3,0.2,0.5c0.1,0.1,0.2,0.2,0.2,0.3c0.1-0.1,0.2-0.2,0.2-0.3c0-0.2,0.1-0.3,0.2-0.5
				c2.4-3.2,3.8-4.9,4.5-5.8c0.7-0.8,1.6-1.9,2.7-1.1c1.1,0.8,0.4,2-0.1,2.9c-0.6,1-1.7,2.9-3.8,6.2l-0.3,0.5l-0.1,0
				c-0.3,0.4-0.5,0.8-0.8,1.2c1.6,1.9,3.3,3.5,5,4.7c0.2,0.1,0.4,0.2,0.6,0.3c0.4,0.3,1,0.7,1.3,0.9c0.7,0.5,1,1.3,0.7,2
				C-247.4,393.9-247.9,394.4-248.8,394.4z"/>
		</g>
		<g>
			<path class="st3" d="M-258.2,388.9c-0.7,0-1.2-0.6-1.3-1.2l0-7.1c0-0.4,0.2-0.8,0.5-1c0.1,0,0.1-0.1,0.2-0.1l0,0c0,0,0-0.2,0-0.6
				c-0.4-0.4-0.7-0.9-0.7-1.4c0-1.1,1-2,2.3-2c1.2,0,2.3,0.9,2.3,2c0,0.6-0.3,1.1-0.7,1.5c0,0.5,0,0.6,0.1,0.6c0,0,0.1,0,0.1,0.1
				c0.3,0.2,0.5,0.6,0.5,1v4.9C-254.8,388.5-257.2,388.9-258.2,388.9z"/>
		</g>
		<g>
			<path class="st3" d="M-258.3,388.9c-1.3,0-2.9-0.5-3.9-1c-1.1-0.6-1.3-1.3-1.3-1.8c-0.7-0.1-1.2-0.7-1.2-1.4v-1.5
				c0-0.8,0.6-1.4,1.4-1.4h2.6c0.2,0,0.4,0.1,0.6,0.1c0.1,0,0.3,0,0.4,0c0.2,0,0.6,0,1,0.3c0.6,0.1,1.2,0.4,1.4,1
				c0.1-0.1,0.1-0.2,0.2-0.3c0.3-0.3,0.6-0.4,0.9-0.4c0.4-0.5,1.1-0.6,1.3-0.6c0.1,0,0.2,0,0.4,0c0.2-0.1,0.4-0.1,0.6-0.1h2.6
				c0.8,0,1.4,0.6,1.4,1.4v1.5c0,0.8-0.6,1.4-1.4,1.4h-2.6c-0.2,0-0.4-0.1-0.6-0.1c-0.1,0-0.3,0-0.4,0c-0.3,0-0.9-0.1-1.3-0.6
				c-0.2,0-0.4,0-0.6-0.1c0,0.2-0.1,0.4-0.1,0.5c0,0.1,0,0.3,0,0.5l1.8,0.7c-0.1,0.4-0.4,0.7-0.9,1.1l-0.1,0.1l-0.8-0.7l-0.8-0.3
				l0.2,1.6C-257.7,388.9-258,388.9-258.3,388.9z M-256.2,378.8c-0.4,0-0.7-0.1-0.9-0.3c-0.3,0.2-0.6,0.3-0.9,0.3
				c-0.8,0-1.5-0.7-1.5-1.5c0-0.4,0.1-0.7,0.4-1c0.2-0.2,0.4-0.3,0.7-0.4c0.1-0.2,0.2-0.3,0.3-0.5c0.3-0.3,0.7-0.4,1.1-0.4
				c0.6,0,1.2,0.4,1.4,0.9c0.6,0.2,1,0.7,1,1.4c0,0.4-0.1,0.7-0.4,1C-255.4,378.7-255.8,378.8-256.2,378.8z M-256.8,378.2
				c0.2,0.1,0.4,0.2,0.6,0.2c0.6,0,1-0.5,1-1c0-0.3-0.2-0.7-0.5-0.8c0,0.6-0.4,1.2-1,1.4C-256.7,378-256.8,378.1-256.8,378.2z
				 M-258.6,376.5c-0.1,0-0.1,0.1-0.2,0.2c-0.2,0.2-0.3,0.4-0.3,0.7c0,0.6,0.5,1,1,1c0.2,0,0.4-0.1,0.6-0.2
				c-0.1-0.1-0.1-0.2-0.1-0.3C-258.2,377.7-258.6,377.1-258.6,376.5z M-257.2,377.5c0,0,0.1,0,0.1,0c0-0.1,0-0.1,0-0.2
				c0-0.1,0-0.3-0.1-0.4c-0.1,0.1-0.1,0.3-0.1,0.4C-257.2,377.4-257.2,377.5-257.2,377.5z M-256.8,376.5c0.1,0.2,0.2,0.5,0.2,0.8
				c0.1,0,0.1-0.1,0.2-0.1c0.2-0.2,0.3-0.5,0.3-0.7c0,0,0-0.1,0-0.1C-256.4,376.3-256.6,376.4-256.8,376.5z M-258.1,376.3
				c0,0,0,0.1,0,0.1c0,0.4,0.2,0.7,0.5,0.9c0-0.3,0.1-0.6,0.2-0.8C-257.6,376.4-257.9,376.3-258.1,376.3z M-258,375.9
				c0.3,0,0.6,0.1,0.8,0.3c0.2-0.2,0.5-0.3,0.8-0.3C-256.7,375.3-257.6,375.3-258,375.9z"/>
		</g>
		<g>
			<path class="st3" d="M-255.7,382.2c-2.8,4-6,7.5-9.5,9.8c-0.6,0.4-1.1,0.7-0.9,0.9c0.1,0.3,0.9,0.1,1.5-0.2
				c4.1-2.3,7.8-6.2,10-9.7"/>
			<path class="st2" d="M-265.8,393.1c-0.1,0-0.1,0-0.2,0c-0.1,0-0.2-0.1-0.2-0.1c-0.2-0.3,0.4-0.6,1-1c3.2-2.1,6.4-5.4,9.5-9.8
				l0.1,0.1c-3.1,4.4-6.3,7.7-9.5,9.8c-0.5,0.3-1,0.7-0.9,0.9c0,0,0.1,0.1,0.1,0.1c0.3,0.1,0.8-0.1,1.3-0.3c3.7-2.1,7.5-5.8,10-9.7
				l0.1,0.1c-2.5,3.9-6.3,7.6-10,9.7C-265,392.9-265.4,393.1-265.8,393.1z"/>
		</g>
		<g>
			<path class="st3" d="M-254.6,383.1c0,0.1-0.4-0.1-0.7-0.3c-0.3-0.2-0.6-0.5-0.5-0.5c4.8-6.3,5.3-6.7,5.5-6.6
				C-250.1,375.8-250.4,376.4-254.6,383.1L-254.6,383.1z"/>
			<path class="st2" d="M-254.6,383.2c-0.1,0-0.4-0.2-0.7-0.3c-0.1-0.1-0.7-0.5-0.5-0.6c5.2-6.8,5.3-6.8,5.6-6.6
				C-250.1,375.8-250,375.8-254.6,383.2L-254.6,383.2C-254.6,383.1-254.6,383.1-254.6,383.2C-254.6,383.2-254.6,383.2-254.6,383.2z
				 M-255.8,382.2c0,0.1,0.2,0.2,0.5,0.5c0.3,0.2,0.5,0.3,0.6,0.3c3.5-5.6,4.5-7.2,4.3-7.3C-250.6,375.6-251.8,377-255.8,382.2z"/>
		</g>
		<g>
			<path class="st3" d="M-250.9,376c0,0,0.1,0.1,0.2,0.2c0.1,0.1,0.2,0.1,0.2,0.1"/>
			<path class="st2" d="M-250.5,376.3c-0.1,0-0.2-0.1-0.3-0.1c-0.2-0.2-0.2-0.2-0.2-0.3l0.1,0.1c0,0,0,0,0,0c0,0,0.1,0.1,0.1,0.1
				c0.1,0.1,0.2,0.1,0.2,0.1c0,0,0,0,0,0L-250.5,376.3L-250.5,376.3C-250.5,376.3-250.5,376.3-250.5,376.3z"/>
		</g>
		<g>
			<path class="st3" d="M-251.3,376.5c0,0,0.1,0.1,0.2,0.2c0.1,0.1,0.3,0.2,0.3,0.1"/>
			<path class="st2" d="M-250.8,376.9c-0.1,0-0.3-0.1-0.3-0.2c-0.2-0.1-0.3-0.3-0.2-0.3l0.1,0.1c0,0,0,0,0,0c0,0,0.1,0.1,0.2,0.2
				c0.1,0.1,0.2,0.1,0.2,0.1l0,0c0,0,0,0,0,0L-250.8,376.9L-250.8,376.9C-250.8,376.9-250.8,376.9-250.8,376.9z"/>
		</g>
		<g>
			
				<rect x="-251.7" y="376.9" transform="matrix(0.1564 0.9877 -0.9877 0.1564 160.4109 566.2009)" class="st2" width="1" height="0.1"/>
		</g>
		<g>
			
				<rect x="-252.2" y="377.4" transform="matrix(0.1566 0.9877 -0.9877 0.1566 160.6473 566.8608)" class="st2" width="1.1" height="0.1"/>
		</g>
		<g>
			
				<rect x="-252.5" y="377.9" transform="matrix(0.1562 0.9877 -0.9877 0.1562 160.7766 567.7588)" class="st2" width="1.3" height="0.1"/>
		</g>
		<g>
			
				<rect x="-252.9" y="378.4" transform="matrix(0.1563 0.9877 -0.9877 0.1563 160.9869 568.4979)" class="st2" width="1.4" height="0.1"/>
		</g>
		<g>
			
				<rect x="-253.3" y="378.9" transform="matrix(0.1561 0.9877 -0.9877 0.1561 161.1602 569.2999)" class="st2" width="1.5" height="0.1"/>
		</g>
		<g>
			
				<rect x="-253.7" y="379.4" transform="matrix(0.1563 0.9877 -0.9877 0.1563 161.3811 569.9649)" class="st2" width="1.5" height="0.1"/>
		</g>
		<g>
			
				<rect x="-254.1" y="379.9" transform="matrix(0.1565 0.9877 -0.9877 0.1565 161.6163 570.6522)" class="st2" width="1.7" height="0.1"/>
		</g>
		<g>
			
				<rect x="-254.5" y="380.4" transform="matrix(0.1564 0.9877 -0.9877 0.1564 161.7898 571.4459)" class="st2" width="1.7" height="0.1"/>
		</g>
		<g>
			
				<rect x="-254.9" y="380.9" transform="matrix(0.1565 0.9877 -0.9877 0.1565 162.0159 572.1364)" class="st2" width="1.8" height="0.1"/>
		</g>
		<g>
			
				<rect x="-251.4" y="376.5" transform="matrix(0.1871 0.9823 -0.9823 0.1871 166.0252 553.2849)" class="st2" width="0.1" height="1"/>
		</g>
		<g>
			
				<rect x="-251.7" y="376.9" transform="matrix(0.1871 0.9823 -0.9823 0.1871 166.2305 554.0168)" class="st2" width="0.1" height="1.1"/>
		</g>
		<g>
			
				<rect x="-252" y="377.3" transform="matrix(0.1871 0.9823 -0.9823 0.1871 166.4357 554.7498)" class="st2" width="0.1" height="1.2"/>
		</g>
		<g>
			
				<rect x="-252.4" y="377.8" transform="matrix(0.1871 0.9823 -0.9823 0.1871 166.6367 555.4899)" class="st2" width="0.1" height="1.3"/>
		</g>
		<g>
			
				<rect x="-252.7" y="378.2" transform="matrix(0.1871 0.9823 -0.9823 0.1871 166.8412 556.2232)" class="st2" width="0.1" height="1.5"/>
		</g>
		<g>
			
				<rect x="-253.1" y="378.6" transform="matrix(0.1871 0.9823 -0.9823 0.1871 167.0523 556.9442)" class="st2" width="0.1" height="1.5"/>
		</g>
		<g>
			
				<rect x="-253.4" y="379.1" transform="matrix(0.1871 0.9823 -0.9823 0.1871 167.2529 557.6847)" class="st2" width="0.1" height="1.6"/>
		</g>
		<g>
			
				<rect x="-253.7" y="379.5" transform="matrix(0.1871 0.9823 -0.9823 0.1871 167.4593 558.4152)" class="st2" width="0.1" height="1.7"/>
		</g>
		<g>
			
				<rect x="-254.1" y="380" transform="matrix(0.1871 0.9823 -0.9823 0.1871 167.6684 559.1405)" class="st2" width="0.1" height="1.8"/>
		</g>
		<g>
			
				<rect x="-253.9" y="380.8" transform="matrix(0.1871 0.9823 -0.9823 0.1871 168.168 559.3365)" class="st2" width="0.1" height="0.9"/>
		</g>
		<g>
			
				<rect x="-254.8" y="380.9" transform="matrix(0.1696 0.9855 -0.9855 0.1696 164.1714 567.0034)" class="st2" width="0.9" height="0.1"/>
		</g>
		<g>
			<path class="st3" d="M-254.5,383c0,0.1-0.3-0.1-0.7-0.3c-0.3-0.2-0.6-0.5-0.5-0.5l1-1.2c0,0,0.2,0.3,0.5,0.5
				c0.3,0.2,0.6,0.3,0.6,0.3L-254.5,383L-254.5,383z"/>
			<path class="st2" d="M-254.6,383.1c-0.1,0-0.4-0.2-0.7-0.3c-0.2-0.1-0.6-0.5-0.5-0.6l1-1.2l0.1,0.1c0,0,0,0,0,0
				c0,0,0.2,0.2,0.5,0.4c0.3,0.2,0.5,0.3,0.5,0.3c0,0,0,0,0,0l0.1,0.1L-254.6,383.1C-254.5,383-254.5,383-254.6,383.1
				C-254.6,383.1-254.6,383.1-254.6,383.1z M-255.7,382.1c0,0.1,0.2,0.2,0.5,0.5c0.3,0.2,0.5,0.3,0.6,0.3l0.8-1.2
				c-0.2-0.1-0.5-0.3-0.5-0.3c-0.2-0.1-0.4-0.3-0.5-0.4L-255.7,382.1z"/>
		</g>
		<g>
			<path class="st3" d="M-254.6,382.8c0,0-0.3-0.1-0.5-0.3c-0.3-0.2-0.5-0.4-0.4-0.4l0.8-1c0,0,0.2,0.2,0.4,0.4
				c0.3,0.2,0.5,0.3,0.5,0.3L-254.6,382.8L-254.6,382.8z"/>
			<path class="st2" d="M-254.6,382.9c-0.1,0-0.5-0.2-0.6-0.3c-0.4-0.3-0.5-0.4-0.5-0.5l0.8-1l0.1,0.1c0,0,0,0,0,0
				c0,0,0.1,0.2,0.4,0.3c0.3,0.2,0.4,0.3,0.4,0.3c0,0,0,0,0,0l0.1,0.1L-254.6,382.9C-254.5,382.8-254.6,382.9-254.6,382.9
				C-254.6,382.9-254.6,382.9-254.6,382.9z M-255.5,382.1c0,0,0.1,0.2,0.4,0.4c0.3,0.2,0.4,0.3,0.5,0.3l0.6-1
				c-0.1-0.1-0.3-0.2-0.4-0.3c-0.2-0.1-0.3-0.2-0.4-0.3L-255.5,382.1z"/>
		</g>
		<g>
			<polygon class="st3" points="-254.8,382.5 -254.2,381.7 -254.7,381.4 -255.3,382.2 			"/>
			<path class="st2" d="M-254.8,382.6l-0.6-0.4l0.6-0.9l0.6,0.4L-254.8,382.6z M-255.2,382.2l0.4,0.3l0.5-0.7l-0.4-0.3L-255.2,382.2
				z"/>
		</g>
		<g>
			<path class="st5" d="M-254.7,382"/>
		</g>
		<g>
			
				<rect x="-254.8" y="381.4" transform="matrix(0.997 7.788767e-002 -7.788767e-002 0.997 28.9775 21.0021)" class="st2" width="0.1" height="1.1"/>
		</g>
		<g>
			
				<rect x="-254.8" y="381.4" transform="matrix(0.422 0.9066 -0.9066 0.422 199.0584 451.7213)" class="st2" width="0.1" height="1.1"/>
		</g>
		<g>
			<path class="st3" d="M-263.3,391.6c-0.2-0.1-0.6-0.2-0.8-0.2c-0.2,0-0.3,0-0.5,0.1c-0.4,0.3-1,0.7-1.4,0.9
				c-0.4,0.3-0.4,0.8,0.5,0.7c0.9-0.2,1.5-0.7,2.3-1.2C-263,391.7-262.9,391.7-263.3,391.6L-263.3,391.6z"/>
			<path class="st2" d="M-265.8,393.2c-0.3,0-0.4-0.1-0.5-0.2c-0.1-0.2,0-0.4,0.3-0.6c0.3-0.2,0.7-0.5,1.4-0.9
				c0.2-0.2,0.3-0.2,0.6-0.2c0.2,0,0.5,0.1,0.8,0.2l0,0c0.2,0.1,0.3,0.1,0.3,0.2c0,0.1-0.1,0.1-0.2,0.2l0,0
				c-0.1,0.1-0.2,0.1-0.3,0.2c-0.7,0.5-1.2,0.9-2,1C-265.6,393.2-265.7,393.2-265.8,393.2z M-264.3,391.4c-0.1,0-0.2,0-0.3,0.1
				c-0.7,0.5-1.1,0.8-1.4,0.9c-0.2,0.1-0.3,0.3-0.2,0.4c0.1,0.1,0.3,0.2,0.6,0.1c0.8-0.1,1.3-0.5,2-1c0.1-0.1,0.2-0.1,0.3-0.2l0,0
				c0.1,0,0.1-0.1,0.2-0.1c0,0-0.1,0-0.2-0.1l0,0c-0.4-0.1-0.6-0.2-0.8-0.2C-264.2,391.4-264.2,391.4-264.3,391.4z"/>
		</g>
		<g>
			<path class="st3" d="M-264.5,391.5c-0.3,0.2-1.1,0.8-1.3,1c-0.3,0.2-0.4,0.4,0,0.5c0.4,0,1-0.2,2.2-1c0.2-0.1,0.4-0.2,0.1-0.3
				c-0.3-0.1-0.5-0.1-0.6-0.2C-264.3,391.5-264.4,391.5-264.5,391.5L-264.5,391.5z"/>
			<path class="st2" d="M-265.8,393c0,0-0.1,0-0.1,0c-0.2,0-0.3-0.1-0.3-0.2c0-0.2,0.1-0.3,0.3-0.4c0.1-0.1,0.5-0.3,1.3-1l0,0
				c0.1-0.1,0.2-0.1,0.4,0c0,0,0.1,0,0.2,0.1l0.3,0.1c0.1,0,0.2,0.1,0.2,0.2c0,0.1-0.1,0.1-0.2,0.2c0,0,0,0-0.1,0
				C-264.6,392.7-265.3,393-265.8,393z M-264.4,391.6c-0.7,0.5-1.1,0.9-1.3,1c-0.2,0.1-0.2,0.2-0.2,0.3c0,0,0.1,0.1,0.2,0.1
				c0.4,0,1.1-0.3,2.2-1c0,0,0,0,0.1,0c0,0,0.1-0.1,0.1-0.1c0,0,0,0,0,0c0,0,0,0-0.1,0l-0.3-0.1c-0.1,0-0.2-0.1-0.2-0.1
				C-264.3,391.5-264.4,391.6-264.4,391.6L-264.4,391.6z"/>
		</g>
		<g>
			<path class="st2" d="M-265.7,392.9C-265.7,392.9-265.8,392.9-265.7,392.9c-0.2,0-0.2-0.1-0.2-0.2c0-0.1,0-0.1,0.1-0.2
				c0,0,0.1,0,0.1,0c0,0,0,0.1,0,0.1c0,0,0,0,0,0.1c0,0,0,0,0,0c0.1,0,0.1,0,0.2,0c0,0,0-0.1,0-0.1c0-0.1,0-0.2,0-0.2
				c0.1-0.1,0.1-0.1,0.2-0.1c0.1,0,0.1,0,0.2,0c0,0,0,0,0,0c0-0.1,0-0.1,0.1-0.2l0,0c0,0,0,0,0,0c0,0,0,0,0,0
				c0.1-0.1,0.1-0.1,0.1-0.1c0,0,0-0.1,0-0.1c0,0,0.1,0,0.1,0c0,0,0.1,0.1,0.1,0.1c0,0,0,0.1,0,0.1c0,0,0,0,0,0c0,0,0,0,0.1,0
				c0,0,0,0,0,0c0-0.1,0-0.1,0-0.1c0,0,0-0.1,0-0.1c0,0,0.1,0,0.1,0c0.1,0.1,0.2,0.2,0.2,0.3c0,0,0,0,0,0c0,0,0,0,0,0
				c0,0,0,0,0.1-0.1c0,0,0,0,0-0.1c0-0.1,0-0.2,0.1-0.2c0.1,0,0.2,0,0.2,0c0.1,0,0.2,0,0.2,0c0,0,0,0,0-0.1c0,0-0.1,0-0.1,0
				c0,0-0.1,0-0.2,0.1c-0.1,0.1-0.2,0.1-0.3,0c0,0,0-0.1,0-0.1c0,0,0.1,0,0.1,0c0,0,0.1,0,0.2,0c0.1,0,0.1-0.1,0.2-0.1c0,0,0,0,0,0
				c0.1,0,0.2,0,0.2,0.1c0,0.1,0,0.1,0,0.2c-0.1,0.1-0.2,0.1-0.3,0.1c-0.1,0-0.1,0-0.2,0c-0.1,0-0.1,0.1-0.1,0.1c0,0,0,0,0,0
				c0,0,0,0,0,0c0,0,0,0,0,0.1c0,0,0,0-0.1,0c0,0,0,0,0,0c0,0,0,0-0.1,0.1c-0.1,0.1-0.1,0.1-0.2,0.1c0,0,0,0-0.1,0c0,0,0,0,0-0.1
				c0,0,0-0.1,0-0.1c0,0,0-0.1,0-0.1c0,0,0,0,0,0c0,0,0,0.1,0,0.1c0,0,0,0.1,0,0.1c0,0-0.1,0-0.1,0c0,0,0,0-0.1-0.1
				c-0.1,0-0.1,0-0.1,0c0,0,0,0,0,0c0,0-0.1,0.1,0,0.1c0,0,0,0,0.1,0.1c0,0,0,0,0,0c0,0,0.1,0.1,0.1,0.1c0,0,0,0.1,0,0.1
				c0,0-0.1,0-0.1,0c0,0,0-0.1,0-0.1c0,0,0,0,0,0c0,0,0,0,0,0c0,0,0,0,0,0c0,0-0.1,0.1-0.1,0.1c0,0,0,0,0,0c0,0-0.1,0-0.1,0
				c0,0,0-0.1,0-0.1l0,0c0,0,0-0.1,0-0.1c0,0,0,0,0-0.1c0,0-0.1,0-0.1,0c0,0-0.1,0-0.1,0.1c0,0,0,0,0,0.1c0,0,0,0,0,0c0,0,0,0,0,0
				c0,0,0,0,0,0c0,0,0,0.1,0,0.1c0,0,0,0-0.1,0c0,0,0,0,0,0.1C-265.6,392.9-265.6,392.9-265.7,392.9z M-263.4,391.6
				C-263.4,391.6-263.4,391.6-263.4,391.6c-0.1-0.1-0.1-0.2-0.1-0.2c0-0.1,0-0.3,0.1-0.4c0,0,0.1,0,0.1,0c0,0,0,0.1,0,0.1
				c0,0,0,0,0,0c0,0,0,0.1,0.1,0.1c0.1,0,0.2,0,0.2-0.1c0.1-0.1,0.1-0.2,0.1-0.3c0,0,0-0.1-0.1,0c0,0-0.1,0-0.1,0c0,0,0-0.1,0-0.1
				c0.1,0,0.2,0,0.2,0.1c0.1,0.1,0,0.3-0.1,0.4c-0.1,0.1-0.3,0.1-0.3,0.1c0,0-0.1,0-0.1,0c0,0,0,0,0,0.1
				C-263.3,391.4-263.3,391.5-263.4,391.6C-263.3,391.6-263.3,391.6-263.4,391.6z M-262.3,390.6c-0.1,0-0.2,0-0.2-0.1c0,0,0,0,0-0.1
				c0,0,0,0,0,0c-0.1,0-0.1,0-0.1,0.1c0,0,0,0-0.1,0c0,0,0,0,0-0.1c0-0.1,0.1-0.1,0.2-0.1c0,0,0.1,0,0.1,0c0,0,0.1,0,0.1,0
				c0,0,0,0.1,0,0.1c0,0,0,0.1,0,0.1c0.1,0,0.2,0.1,0.3,0c0,0,0,0,0,0c0,0,0,0,0,0c0,0,0,0,0,0c0,0,0.1-0.1,0.1-0.1
				c0,0,0-0.1-0.1-0.1c0,0,0-0.1,0-0.1c0,0,0.1,0,0.1,0c0.1,0,0.1,0.1,0.1,0.2c0,0,0,0.1,0,0.1c0,0,0,0,0.1,0c0.1,0,0.1,0,0.1,0
				c0,0,0.1,0,0.1,0c0,0,0,0.1,0,0.1c-0.1,0.1-0.2,0.1-0.2,0.1c0,0-0.1,0-0.1,0c0,0-0.1,0-0.1,0.1
				C-262.1,390.5-262.2,390.6-262.3,390.6z M-261.6,390.1C-261.6,390.1-261.6,390.1-261.6,390.1c-0.1,0-0.1-0.1-0.2-0.2c0,0,0,0,0,0
				c-0.1,0-0.1,0-0.2,0c0,0,0,0,0-0.1c0,0,0,0,0.1,0c0.1,0,0.1,0,0.1,0c0,0,0,0,0-0.1c0,0,0,0,0,0c0-0.1,0.1-0.2,0.2-0.2
				c0.1-0.1,0.3-0.1,0.4-0.1c0.1,0,0.2,0.1,0.3,0.2c0,0,0,0.1,0,0.1c0,0-0.1,0-0.1,0c0-0.1-0.1-0.1-0.2-0.1c-0.1,0-0.2,0-0.3,0.1
				c-0.1,0.1-0.2,0.2-0.1,0.3c0,0.1,0,0.1,0.1,0.1C-261.6,390-261.6,390-261.6,390.1C-261.6,390.1-261.6,390.1-261.6,390.1z
				 M-260.9,389.5c0,0-0.1,0-0.1,0c0,0,0-0.1,0-0.1c0,0,0.1,0,0.1,0c0,0,0,0,0.1,0c0,0,0,0-0.1-0.1c0-0.1-0.1-0.2,0-0.3
				c0-0.2,0.2-0.3,0.4-0.4c0.1,0,0.1-0.1,0.1-0.1c0,0,0,0,0,0c0,0,0-0.1,0-0.1c0,0,0.1,0,0.1,0c0,0,0.1,0.1,0.1,0.1
				c0,0,0,0.1-0.1,0.1c0.1,0,0.2,0.1,0.2,0.2c0,0,0,0,0,0c0,0,0-0.1,0-0.2c0-0.1-0.1-0.2,0-0.3c0,0,0.1,0,0.1,0c0,0,0,0.1,0,0.1
				c0,0,0,0.1,0,0.1c0,0,0,0,0.1,0c0.2,0,0.3-0.1,0.3-0.3c0,0,0-0.1,0-0.1c0,0-0.1,0-0.1-0.1c0,0-0.1,0-0.1-0.1c0,0,0-0.1,0.1-0.1
				c0.1,0,0.2,0,0.2,0.1c0,0.1,0.1,0.1,0.1,0.2c0,0.2-0.2,0.4-0.4,0.4c0,0-0.1,0-0.1,0c0,0.1,0,0.1-0.1,0.2c0,0-0.1,0-0.1,0
				c0,0,0,0,0,0c0,0,0,0.1-0.1,0.1c0,0-0.1,0-0.1-0.1c0-0.1-0.1-0.1-0.2-0.1c0,0,0,0,0,0c0,0,0,0,0,0c0,0,0,0,0,0
				c-0.1,0-0.2,0.2-0.2,0.3c0,0.1,0,0.1,0,0.2c0,0,0,0.1,0.1,0.1c0,0,0,0,0,0c0,0,0.1,0,0.1,0.1c0,0,0,0.1-0.1,0.1c0,0,0,0,0,0
				c0,0,0,0-0.1,0C-260.8,389.4-260.9,389.5-260.9,389.5z M-259.5,388C-259.6,388-259.6,388-259.5,388c-0.1-0.2,0-0.2,0-0.3
				c0,0,0-0.1,0.1-0.1c0,0,0,0,0,0c0,0,0-0.1,0.1,0c0,0,0.1,0,0,0.1c0,0,0,0,0,0c0,0.1,0,0.1,0,0.1c0,0,0.1,0,0.1,0
				c0.1,0,0.3-0.3,0.3-0.4c0,0,0-0.1,0.1-0.1c0,0,0.1,0,0.1,0.1c0,0.2-0.2,0.4-0.3,0.5c-0.1,0-0.2,0-0.3,0c0,0,0,0,0,0
				C-259.4,387.8-259.5,387.9-259.5,388C-259.5,388-259.5,388-259.5,388z"/>
		</g>
		<g>
			<path class="st2" d="M-250.8,376.3c-0.1-0.1-0.2,0.1-0.1,0.2C-250.8,376.5-250.7,376.3-250.8,376.3L-250.8,376.3z"/>
			<path class="st2" d="M-250.8,376.7c-0.1,0-0.1,0-0.2-0.1c-0.2-0.1-0.2-0.3-0.1-0.5c0-0.1,0.1-0.1,0.2-0.1c0.1,0,0.2,0,0.3,0.1
				c0.2,0.1,0.2,0.3,0.1,0.5C-250.6,376.6-250.7,376.7-250.8,376.7z M-250.9,376.5c0,0,0.1,0,0.1,0c0,0,0.1,0,0.1-0.1
				c0.1-0.1,0-0.2,0-0.2c0,0,0,0,0,0l0,0l0,0c-0.1,0-0.2,0-0.2,0S-251,376.4-250.9,376.5L-250.9,376.5z"/>
		</g>
		<g>
			<path class="st3" d="M-258.9,382.2c2.8,4,6,7.5,9.5,9.8c0.6,0.4,1.1,0.7,0.9,0.9c-0.1,0.3-0.9,0.1-1.5-0.2
				c-4.1-2.3-7.8-6.2-10-9.7"/>
			<path class="st2" d="M-248.8,393.1c-0.3,0-0.8-0.2-1.2-0.4c-3.7-2.1-7.6-5.8-10-9.7l0.1-0.1c2.5,3.9,6.3,7.6,10,9.7
				c0.5,0.3,1,0.4,1.3,0.3c0.1,0,0.1,0,0.1-0.1c0.1-0.2-0.4-0.6-0.9-0.9c-3.3-2.1-6.5-5.4-9.5-9.8l0.1-0.1c3.1,4.4,6.3,7.7,9.5,9.8
				c0.6,0.4,1.1,0.7,1,1c0,0.1-0.1,0.1-0.2,0.1C-248.6,393.1-248.7,393.1-248.8,393.1z"/>
		</g>
		<g>
			<path class="st3" d="M-260,383.1c0,0.1,0.4-0.1,0.7-0.3c0.3-0.2,0.6-0.5,0.5-0.5c-4.8-6.3-5.3-6.7-5.5-6.6
				C-264.4,375.8-264.2,376.4-260,383.1L-260,383.1z"/>
			<path class="st2" d="M-259.9,383.2C-259.9,383.2-259.9,383.2-259.9,383.2C-260,383.1-260,383.1-259.9,383.2L-259.9,383.2
				c-4.7-7.3-4.6-7.4-4.3-7.6c0.2-0.2,0.3-0.2,5.6,6.6c0.1,0.2-0.4,0.6-0.5,0.6C-259.5,383-259.8,383.2-259.9,383.2z M-264.2,375.7
				C-264.2,375.7-264.2,375.7-264.2,375.7c-0.2,0.1,0.7,1.8,4.2,7.3c0.1,0,0.3-0.1,0.6-0.3c0.3-0.2,0.5-0.4,0.5-0.5
				C-262.6,377.2-263.9,375.7-264.2,375.7z"/>
		</g>
		<g>
			<path class="st3" d="M-263.7,376c0,0-0.1,0.1-0.2,0.2c-0.1,0.1-0.2,0.1-0.2,0.1"/>
			<path class="st2" d="M-264.1,376.3C-264.1,376.3-264.1,376.3-264.1,376.3L-264.1,376.3L-264.1,376.3L-264.1,376.3l0-0.1
				c0,0,0.1,0,0.2-0.1c0.1-0.1,0.1-0.1,0.1-0.1c0,0,0,0,0,0l0.1-0.1c0,0,0.1,0.1-0.2,0.3C-263.9,376.3-264,376.3-264.1,376.3z"/>
		</g>
		<g>
			<path class="st3" d="M-263.3,376.5c0,0-0.1,0.1-0.2,0.2c-0.1,0.1-0.3,0.2-0.3,0.1"/>
			<path class="st2" d="M-263.8,376.9C-263.8,376.9-263.8,376.9-263.8,376.9L-263.8,376.9L-263.8,376.9l0-0.1L-263.8,376.9l0-0.1
				c0,0,0.1,0,0.2-0.1c0.1-0.1,0.2-0.2,0.2-0.2c0,0,0,0,0,0l0.1-0.1c0,0.1,0,0.2-0.2,0.3C-263.5,376.8-263.7,376.9-263.8,376.9z"/>
		</g>
		<g>
			
				<rect x="-263.4" y="376.5" transform="matrix(0.9876 0.1568 -0.1568 0.9876 55.8458 45.942)" class="st2" width="0.1" height="1"/>
		</g>
		<g>
			
				<rect x="-263" y="376.9" transform="matrix(0.9876 0.1568 -0.1568 0.9876 55.9267 45.8946)" class="st2" width="0.1" height="1.1"/>
		</g>
		<g>
			
				<rect x="-262.7" y="377.4" transform="matrix(0.9876 0.1568 -0.1568 0.9876 56.0078 45.8473)" class="st2" width="0.1" height="1.3"/>
		</g>
		<g>
			
				<rect x="-262.4" y="377.8" transform="matrix(0.9876 0.1568 -0.1568 0.9876 56.0898 45.8002)" class="st2" width="0.1" height="1.4"/>
		</g>
		<g>
			
				<rect x="-262" y="378.2" transform="matrix(0.9876 0.1568 -0.1568 0.9876 56.1709 45.7529)" class="st2" width="0.1" height="1.5"/>
		</g>
		<g>
			
				<rect x="-261.7" y="378.7" transform="matrix(0.9876 0.1568 -0.1568 0.9876 56.2503 45.7051)" class="st2" width="0.1" height="1.5"/>
		</g>
		<g>
			
				<rect x="-261.3" y="379.1" transform="matrix(0.9876 0.1568 -0.1568 0.9876 56.3324 45.6581)" class="st2" width="0.1" height="1.7"/>
		</g>
		<g>
			
				<rect x="-261" y="379.6" transform="matrix(0.9876 0.1568 -0.1568 0.9876 56.4131 45.6107)" class="st2" width="0.1" height="1.7"/>
		</g>
		<g>
			
				<rect x="-260.7" y="380" transform="matrix(0.9876 0.1568 -0.1568 0.9876 56.4944 45.5634)" class="st2" width="0.1" height="1.8"/>
		</g>
		<g>
			
				<rect x="-263.8" y="376.9" transform="matrix(0.9822 0.1876 -0.1876 0.9822 66.0463 56.0839)" class="st2" width="1" height="0.1"/>
		</g>
		<g>
			
				<rect x="-263.5" y="377.4" transform="matrix(0.9822 0.1877 -0.1877 0.9822 66.1829 56.0685)" class="st2" width="1.1" height="0.1"/>
		</g>
		<g>
			
				<rect x="-263.2" y="377.9" transform="matrix(0.9823 0.1874 -0.1874 0.9823 66.1859 55.9161)" class="st2" width="1.2" height="0.1"/>
		</g>
		<g>
			
				<rect x="-262.9" y="378.4" transform="matrix(0.9823 0.1874 -0.1874 0.9823 66.2706 55.8461)" class="st2" width="1.3" height="0.1"/>
		</g>
		<g>
			
				<rect x="-262.6" y="378.9" transform="matrix(0.9823 0.1876 -0.1876 0.9823 66.423 55.8463)" class="st2" width="1.5" height="0.1"/>
		</g>
		<g>
			
				<rect x="-262.3" y="379.3" transform="matrix(0.9823 0.1875 -0.1875 0.9823 66.4884 55.7605)" class="st2" width="1.5" height="0.1"/>
		</g>
		<g>
			
				<rect x="-262" y="379.8" transform="matrix(0.9822 0.1876 -0.1876 0.9822 66.6294 55.7474)" class="st2" width="1.6" height="0.1"/>
		</g>
		<g>
			
				<rect x="-261.7" y="380.3" transform="matrix(0.9823 0.1875 -0.1875 0.9823 66.6906 55.6556)" class="st2" width="1.7" height="0.1"/>
		</g>
		<g>
			
				<rect x="-261.4" y="380.8" transform="matrix(0.9822 0.1877 -0.1877 0.9822 66.8533 55.6672)" class="st2" width="1.8" height="0.1"/>
		</g>
		<g>
			
				<rect x="-261.1" y="381.2" transform="matrix(0.9822 0.1878 -0.1878 0.9822 66.9633 55.7366)" class="st2" width="0.9" height="0.1"/>
		</g>
		<g>
			
				<rect x="-260.2" y="380.5" transform="matrix(0.9851 0.172 -0.172 0.9851 61.642 50.4274)" class="st2" width="0.1" height="0.9"/>
		</g>
		<g>
			<path class="st3" d="M-260,383c0,0.1,0.3-0.1,0.7-0.3c0.3-0.2,0.6-0.5,0.5-0.5l-1-1.2c0,0-0.2,0.3-0.5,0.5
				c-0.3,0.2-0.6,0.3-0.6,0.3L-260,383L-260,383z"/>
			<path class="st2" d="M-260,383.1C-260,383.1-260,383.1-260,383.1C-260,383-260.1,383-260,383.1L-260,383.1l-0.9-1.4l0.1-0.1
				c0,0,0,0,0,0c0,0,0,0,0,0c0,0,0.2-0.1,0.5-0.3c0.3-0.2,0.4-0.4,0.5-0.4c0,0,0,0,0,0l0.1-0.1l1,1.2c0.1,0.1-0.3,0.5-0.5,0.6
				C-259.5,382.9-259.8,383.1-260,383.1z M-260.7,381.7l0.8,1.2c0.1,0,0.3-0.1,0.6-0.3c0.3-0.2,0.5-0.4,0.5-0.5l-0.9-1.1
				c-0.1,0.1-0.3,0.3-0.5,0.4C-260.3,381.5-260.6,381.6-260.7,381.7z"/>
		</g>
		<g>
			<path class="st3" d="M-260,382.8c0,0,0.3-0.1,0.5-0.3c0.3-0.2,0.5-0.4,0.4-0.4l-0.8-1c0,0-0.2,0.2-0.4,0.4
				c-0.3,0.2-0.5,0.3-0.5,0.3L-260,382.8L-260,382.8z"/>
			<path class="st2" d="M-260,382.9C-260,382.9-260,382.9-260,382.9C-260,382.9-260,382.8-260,382.9L-260,382.9l-0.8-1.1l0.1-0.1
				c0,0,0,0,0,0c0,0,0.2-0.1,0.4-0.3c0.3-0.2,0.4-0.3,0.4-0.3c0,0,0,0,0,0l0.1-0.1l0.8,1c0.1,0.1-0.1,0.3-0.4,0.5
				C-259.5,382.6-259.8,382.9-260,382.9z M-260.6,381.8l0.6,1c0.1,0,0.2-0.1,0.5-0.3c0.3-0.2,0.4-0.3,0.4-0.4l-0.7-0.9
				c-0.1,0.1-0.2,0.2-0.4,0.3C-260.2,381.6-260.4,381.7-260.6,381.8z"/>
		</g>
		<g>
			<polygon class="st3" points="-259.8,382.5 -260.3,381.7 -259.9,381.4 -259.3,382.2 			"/>
			<path class="st2" d="M-259.8,382.6l-0.6-0.9l0.6-0.4l0.6,0.9L-259.8,382.6z M-260.2,381.8l0.5,0.7l0.4-0.3l-0.5-0.7L-260.2,381.8
				z"/>
		</g>
		<g>
			<path class="st5" d="M-259.8,382"/>
		</g>
		<g>
			
				<rect x="-260.4" y="381.9" transform="matrix(8.026535e-002 0.9968 -0.9968 8.026535e-002 141.7859 610.2943)" class="st2" width="1.1" height="0.1"/>
		</g>
		<g>
			
				<rect x="-260.4" y="381.9" transform="matrix(0.9084 0.4181 -0.4181 0.9084 135.9012 143.6084)" class="st2" width="1.1" height="0.1"/>
		</g>
		<g>
			<path class="st3" d="M-251.3,391.6c0.2-0.1,0.6-0.2,0.8-0.2c0.2,0,0.3,0,0.5,0.1c0.4,0.3,1,0.7,1.4,0.9c0.4,0.3,0.4,0.8-0.5,0.7
				c-0.9-0.2-1.5-0.7-2.3-1.2C-251.6,391.7-251.7,391.7-251.3,391.6L-251.3,391.6z"/>
			<path class="st2" d="M-248.7,393.2c-0.1,0-0.2,0-0.3,0c-0.8-0.1-1.4-0.5-2-1c-0.1-0.1-0.2-0.1-0.3-0.2l0,0
				c-0.1-0.1-0.2-0.1-0.2-0.2c0-0.1,0.1-0.1,0.3-0.2l0,0c0.4-0.1,0.6-0.2,0.8-0.2c0.3,0,0.3,0,0.6,0.2c0.6,0.5,1.1,0.8,1.4,0.9
				c0.2,0.1,0.3,0.4,0.3,0.6C-248.3,393-248.4,393.2-248.7,393.2z M-250.3,391.4c0,0-0.1,0-0.1,0c-0.2,0-0.5,0.1-0.8,0.2l0,0
				c-0.2,0.1-0.2,0.1-0.2,0.1c0,0,0.1,0.1,0.2,0.1l0,0c0.1,0.1,0.2,0.1,0.3,0.2c0.7,0.4,1.2,0.8,2,1c0.3,0.1,0.6,0,0.6-0.1
				c0.1-0.1,0-0.3-0.2-0.4c-0.3-0.2-0.7-0.5-1.4-0.9C-250.1,391.4-250.2,391.4-250.3,391.4z"/>
		</g>
		<g>
			<path class="st3" d="M-250.1,391.5c0.3,0.2,1.1,0.8,1.3,1c0.3,0.2,0.4,0.4,0,0.5c-0.4,0-1-0.2-2.2-1c-0.2-0.1-0.4-0.2-0.1-0.3
				c0.3-0.1,0.5-0.1,0.6-0.2C-250.2,391.5-250.2,391.5-250.1,391.5L-250.1,391.5z"/>
			<path class="st2" d="M-248.8,393c-0.5,0-1.1-0.3-2.2-1c0,0,0,0-0.1,0c-0.1-0.1-0.2-0.1-0.2-0.2c0-0.1,0.1-0.1,0.2-0.2l0.3-0.1
				c0.1,0,0.2-0.1,0.2-0.1c0.2,0,0.3,0,0.4,0l0,0c0.7,0.5,1.1,0.8,1.3,1c0.2,0.1,0.3,0.3,0.3,0.4c0,0.1-0.1,0.2-0.3,0.2
				C-248.7,393-248.8,393-248.8,393z M-250.3,391.6c0,0-0.1,0-0.1,0c0,0-0.1,0-0.2,0.1l-0.3,0.1c-0.1,0-0.1,0.1-0.1,0.1
				c0,0,0.1,0.1,0.1,0.1c0,0,0,0,0.1,0c1.1,0.7,1.8,1,2.2,1c0.1,0,0.2,0,0.2-0.1c0-0.1-0.1-0.2-0.2-0.3c-0.2-0.1-0.7-0.5-1.3-1l0,0
				C-250.2,391.6-250.2,391.6-250.3,391.6z"/>
		</g>
		<g>
			<path class="st2" d="M-248.9,392.9c-0.1,0-0.1,0-0.2-0.1c0,0,0,0,0-0.1c0,0-0.1,0-0.1,0c0,0,0-0.1,0-0.1c0,0,0,0,0,0c0,0,0,0,0,0
				c0,0,0,0,0,0c0,0,0-0.1,0-0.1c0,0-0.1-0.1-0.1-0.1c0,0-0.1,0-0.1,0c0,0,0,0,0,0.1c0,0,0,0.1,0,0.1l0,0c0,0,0,0.1,0,0.1
				c0,0-0.1,0-0.1,0c0,0,0,0,0,0c0,0-0.1-0.1-0.1-0.1c0,0,0,0,0,0c0,0,0,0,0,0c0,0,0,0,0,0c0,0,0,0.1,0,0.1c0,0-0.1,0-0.1,0
				c0,0,0-0.1,0-0.1c0,0,0-0.1,0.1-0.1c0,0,0,0,0,0c0,0,0,0,0.1-0.1c0,0,0-0.1,0-0.1c0,0,0,0,0,0c0,0-0.1,0-0.1,0c0,0-0.1,0-0.1,0.1
				c0,0,0,0-0.1,0c0,0,0,0,0-0.1c0,0,0,0,0-0.1c0,0,0,0,0,0c0,0,0,0.1,0,0.1c0,0,0,0.1,0,0.1c0,0,0,0,0,0.1c0,0,0,0-0.1,0
				c-0.1,0-0.1-0.1-0.2-0.1c0,0-0.1-0.1-0.1-0.1c0,0-0.1,0-0.1,0c0,0,0-0.1,0-0.1c0,0,0,0,0,0c0,0,0,0,0,0c0,0,0-0.1-0.1-0.1
				c0,0-0.1,0-0.2,0c-0.1,0-0.3,0-0.3-0.1c0,0,0-0.1,0-0.2c0-0.1,0.1-0.1,0.2-0.1c0,0,0,0,0,0c0.1,0,0.2,0,0.2,0.1
				c0.1,0.1,0.2,0.1,0.2,0c0,0,0.1,0,0.1,0c0,0,0,0.1,0,0.1c-0.1,0.1-0.2,0-0.3,0c-0.1,0-0.1-0.1-0.2-0.1c0,0-0.1,0-0.1,0
				c0,0,0,0.1,0,0.1c0,0,0.1,0,0.2,0c0.1,0,0.2,0,0.2,0c0.1,0,0.1,0.1,0.1,0.2c0,0,0,0.1,0,0.1c0,0,0,0,0.1,0.1c0,0,0,0,0,0
				c0,0,0,0,0,0c0-0.1,0.1-0.3,0.2-0.3c0,0,0.1,0,0.1,0c0,0,0,0.1,0,0.1c0,0,0,0.1,0,0.1c0,0,0,0,0,0c0,0,0,0,0.1,0c0,0,0,0,0,0
				c0,0,0-0.1,0-0.1c0,0,0-0.1,0.1-0.1c0,0,0.1,0,0.1,0c0,0,0,0.1,0,0.1c0,0,0,0.1,0.1,0.1c0,0,0,0,0,0c0.1,0.1,0.1,0.1,0.1,0.2
				c0,0,0,0,0,0c0,0,0.1-0.1,0.2,0c0,0,0.1,0,0.2,0.1c0,0,0.1,0.1,0,0.2c0,0,0,0.1,0,0.1c0,0,0.1,0,0.2,0c0,0,0,0,0,0c0,0,0,0,0-0.1
				c0,0,0-0.1,0-0.1c0,0,0.1,0,0.1,0c0.1,0,0.1,0.1,0.1,0.2C-248.6,392.8-248.7,392.9-248.9,392.9
				C-248.8,392.9-248.8,392.9-248.9,392.9z M-251.2,391.6C-251.2,391.6-251.2,391.6-251.2,391.6
				C-251.2,391.6-251.3,391.6-251.2,391.6c-0.1-0.1-0.1-0.2,0-0.2c0,0,0,0,0-0.1c0,0-0.1,0-0.1,0c-0.1,0-0.2,0-0.3-0.1
				c-0.2-0.2-0.2-0.3-0.1-0.4c0-0.1,0.1-0.1,0.2-0.1c0,0,0.1,0,0,0.1c0,0,0,0.1-0.1,0c-0.1,0-0.1,0-0.1,0c0,0.1,0,0.2,0.1,0.3
				c0.1,0.1,0.2,0.1,0.2,0.1c0.1,0,0.1-0.1,0.1-0.1c0,0,0,0,0,0c0,0,0-0.1,0-0.1c0,0,0.1,0,0.1,0c0.1,0.1,0.1,0.2,0.1,0.4
				C-251.1,391.4-251.1,391.5-251.2,391.6C-251.1,391.6-251.2,391.6-251.2,391.6z M-252.3,390.6c-0.1,0-0.2,0-0.3-0.1
				c0,0-0.1,0-0.1-0.1c0,0,0,0-0.1,0c-0.1,0-0.2,0.1-0.2-0.1c0,0,0-0.1,0-0.1c0,0,0.1,0,0.1,0c0,0,0,0,0.1,0c0,0,0,0,0.1,0
				c0,0,0-0.1,0-0.1c0-0.1,0-0.1,0.1-0.2c0,0,0.1,0,0.1,0c0,0,0,0.1,0,0.1c0,0-0.1,0-0.1,0.1c0,0,0,0.1,0.1,0.1c0,0,0,0,0,0
				c0,0,0,0,0,0c0,0,0,0,0,0c0.1,0.1,0.3,0.1,0.3,0c0,0,0,0,0-0.1c0,0,0-0.1,0-0.1c0,0,0.1,0,0.1,0c0,0,0,0,0.1,0
				c0.1,0,0.1,0,0.2,0.1c0,0,0,0.1,0,0.1c0,0-0.1,0-0.1,0c0,0,0-0.1-0.1-0.1c0,0,0,0,0,0c0,0,0,0,0,0.1
				C-252.1,390.5-252.2,390.6-252.3,390.6z M-252.9,390.1C-253,390.1-253,390.1-252.9,390.1c-0.1-0.1,0-0.1,0-0.1c0,0,0,0,0.1-0.1
				c0-0.1,0-0.2-0.1-0.3c-0.1-0.1-0.2-0.1-0.3-0.1c-0.1,0-0.2,0.1-0.2,0.1c0,0-0.1,0-0.1,0c0,0,0-0.1,0-0.1c0-0.1,0.1-0.2,0.3-0.2
				c0.2,0,0.3,0,0.4,0.1c0.1,0.1,0.1,0.1,0.2,0.2c0,0,0,0,0,0c0,0,0,0.1,0,0.1c0,0,0.1,0,0.1,0c0,0,0.1,0,0.1,0c0,0,0,0.1,0,0.1
				c-0.1,0-0.1,0-0.2,0c0,0,0,0,0,0C-252.8,390.1-252.8,390.1-252.9,390.1C-252.9,390.1-252.9,390.1-252.9,390.1z M-253.6,389.5
				c-0.1,0-0.1,0-0.1-0.1c0,0,0,0-0.1,0c0,0,0,0,0,0c0,0-0.1,0-0.1-0.1c0,0,0-0.1,0.1-0.1c0,0,0,0,0,0c0.1,0,0.1,0,0.1-0.1
				c0,0,0-0.1,0-0.2c0-0.1-0.1-0.2-0.2-0.3c0,0,0,0,0,0c0,0,0,0,0,0c0,0,0,0,0,0c-0.1,0-0.2,0.1-0.2,0.1c0,0,0,0.1-0.1,0.1
				c0,0-0.1,0-0.1-0.1c0,0,0,0,0,0c0,0-0.1,0-0.1,0c-0.1-0.1-0.1-0.1-0.1-0.2c0,0-0.1,0-0.1,0c-0.2,0-0.4-0.2-0.4-0.4
				c0-0.1,0-0.1,0.1-0.2c0-0.1,0.1-0.1,0.2-0.1c0,0,0.1,0,0.1,0.1c0,0,0,0.1-0.1,0.1c-0.1,0-0.1,0-0.1,0.1c0,0,0,0.1,0,0.1
				c0,0.2,0.1,0.3,0.3,0.3c0.1,0,0.1,0,0.1,0c0,0,0-0.1,0-0.1c0,0,0-0.1,0-0.1c0,0,0.1,0,0.1,0c0.1,0.1,0,0.2,0,0.3
				c0,0.1,0,0.2,0,0.2c0,0,0,0,0,0c0-0.1,0.1-0.2,0.2-0.2c0,0,0-0.1-0.1-0.1c0-0.1,0-0.1,0.1-0.1c0,0,0.1,0,0.1,0c0,0,0,0.1,0,0.1
				c0,0,0,0,0,0c0,0,0.1,0.1,0.1,0.1c0.2,0,0.3,0.2,0.4,0.4c0,0.1,0,0.2,0,0.3c0,0,0,0-0.1,0.1c0,0,0,0,0.1,0c0,0,0.1,0,0.1,0
				c0,0,0,0.1,0,0.1C-253.6,389.5-253.6,389.5-253.6,389.5z"/>
		</g>
		<g>
			<path class="st2" d="M-263.8,376.3c0.1-0.1,0.2,0.1,0.1,0.2C-263.8,376.5-263.9,376.3-263.8,376.3L-263.8,376.3z"/>
			<path class="st2" d="M-263.7,376.7c-0.1,0-0.2-0.1-0.3-0.2c-0.1-0.2-0.1-0.4,0.1-0.5c0.1-0.1,0.2-0.1,0.3,0
				c0.1,0.1,0.2,0.2,0.2,0.3c0,0.1,0,0.2-0.2,0.3C-263.6,376.7-263.7,376.7-263.7,376.7z M-263.8,376.2
				C-263.8,376.2-263.8,376.2-263.8,376.2c0,0-0.1,0.1-0.1,0.1c0,0.1,0,0.1,0.1,0.1c0.1,0,0.1,0,0.2,0c0.1,0,0.1-0.1,0-0.2
				C-263.7,376.2-263.8,376.2-263.8,376.2L-263.8,376.2L-263.8,376.2z"/>
		</g>
		<g>
			<path class="st2" d="M-255,388C-255.1,388-255.1,388-255,388c-0.1-0.1,0-0.1,0-0.1c0,0,0,0,0.1-0.1c0-0.1,0-0.2-0.1-0.3
				c-0.1-0.1-0.2-0.1-0.3-0.1c-0.1,0-0.2,0.1-0.2,0.1c0,0,0,0-0.1,0c0,0,0-0.1,0-0.1c0-0.1,0.1-0.2,0.3-0.2c0.2,0,0.3,0,0.4,0.1
				c0.1,0.1,0.1,0.1,0.2,0.2c0,0,0,0,0,0c0,0,0,0.1,0,0.1c0,0,0.1,0,0.1,0c0,0,0.1,0,0.1,0c0,0,0,0.1,0,0.1c-0.1,0-0.2,0-0.2,0
				c0,0,0,0,0,0C-254.9,387.9-255,388-255,388C-255,388-255,388-255,388z M-255.8,387.4C-255.8,387.4-255.9,387.4-255.8,387.4
				c-0.1-0.1-0.1-0.1-0.1-0.2c0,0-0.1,0-0.1,0c-0.2,0-0.4-0.2-0.4-0.4c0-0.1,0-0.1,0.1-0.2c0-0.1,0.1-0.1,0.2-0.1c0,0,0.1,0,0.1,0.1
				c0,0,0,0.1-0.1,0.1c-0.1,0-0.1,0-0.1,0.1c0,0,0,0.1,0,0.1c0,0.2,0.1,0.3,0.3,0.3c0,0,0.1,0,0.1,0c0,0,0-0.1,0-0.1
				c0,0,0-0.1,0-0.1c0,0,0.1,0,0.1,0c0.1,0.1,0,0.2,0,0.3c0,0.1,0,0.2,0,0.2C-255.8,387.3-255.8,387.3-255.8,387.4
				C-255.8,387.4-255.8,387.4-255.8,387.4z"/>
		</g>
		<g>
			<path class="st3" d="M-258.2,387.6l0-7.1c0.5-0.3,0.7-0.5,0.7-1.7c0-0.4,0-0.6-0.1-0.8l0.8,0c-0.1,0.2-0.1,0.5-0.1,0.8
				c0,1.2,0.2,1.4,0.7,1.7v4.9C-256.1,386.5-256.4,387.6-258.2,387.6L-258.2,387.6z"/>
			<path class="st2" d="M-258.2,387.7C-258.2,387.7-258.2,387.6-258.2,387.7l-0.1-7.2c0,0,0,0,0-0.1c0.4-0.3,0.7-0.5,0.7-1.7
				c0-0.4,0-0.6-0.1-0.8c0,0,0,0,0-0.1s0,0,0,0l0.8,0h0c0,0,0,0,0,0c0,0,0,0,0,0.1c-0.1,0.2-0.1,0.4-0.1,0.8c0,1.2,0.2,1.4,0.7,1.7
				c0,0,0,0,0,0.1v4.9C-256,386.5-256.3,387.7-258.2,387.7z M-258.1,380.5l0,7c1.7,0,2-1.1,2-2.1v-4.9c-0.5-0.3-0.7-0.6-0.7-1.8
				c0-0.3,0-0.6,0.1-0.8l-0.7,0c0,0.2,0.1,0.4,0.1,0.8C-257.4,380-257.6,380.2-258.1,380.5z"/>
		</g>
		<g>
			<path class="st2" d="M-257.1,380.7C-257.2,380.7-257.2,380.7-257.1,380.7c-0.3-0.3-0.5-0.8-0.5-1l0,0v0c0,0,0-0.1,0.1-0.1
				c0,0,0,0,0,0c0,0,0,0,0.1,0c0.1,0,0.6,0,0.7,0c0,0,0,0,0.1,0c0,0,0.1,0,0.1,0.1c0,0,0,0,0,0C-256.7,380-256.8,380.4-257.1,380.7
				C-257.1,380.7-257.1,380.7-257.1,380.7z M-257.5,379.8c0,0.2,0.1,0.5,0.3,0.8c0.2-0.2,0.3-0.5,0.3-0.8c-0.1,0-0.2,0-0.3,0
				C-257.3,379.8-257.4,379.8-257.5,379.8C-257.4,379.8-257.5,379.8-257.5,379.8z M-257.1,379.5c-0.1,0-0.2,0-0.2,0
				c-0.1,0-0.2,0-0.2-0.1c0-0.1,0.1-0.1,0.1,0c0.1,0,0.5,0,0.6,0c0,0,0.1,0,0.1,0C-256.7,379.4-256.7,379.5-257.1,379.5z
				 M-257.1,379.1c-0.1,0-0.2,0-0.2,0c-0.1,0-0.2,0-0.2-0.1c0,0,0-0.1,0.1-0.1c0,0,0,0,0,0c0.1,0,0.5,0,0.6,0c0,0,0.1,0,0.1,0
				C-256.7,379.1-256.7,379.1-257.1,379.1z M-257.1,378.8c-0.1,0-0.2,0-0.2,0c-0.1,0-0.2,0-0.2-0.1c0-0.1,0.1-0.1,0.1,0
				c0.1,0,0.5,0,0.6,0c0,0,0.1,0,0.1,0C-256.7,378.7-256.7,378.8-257.1,378.8z M-257.1,378.4c-0.1,0-0.2,0-0.2,0
				c-0.1,0-0.2,0-0.2-0.1c0,0,0-0.1,0.1-0.1c0,0,0,0,0,0c0.1,0,0.5,0,0.6,0c0,0,0.1,0,0.1,0C-256.7,378.4-256.7,378.4-257.1,378.4z"
				/>
		</g>
		<g>
			<path class="st3" d="M-257.1,378.1c0.6,0,1-0.3,1-0.8s-0.5-0.8-1-0.8c-0.6,0-1,0.3-1,0.8S-257.7,378.1-257.1,378.1L-257.1,378.1z
				"/>
			<path class="st2" d="M-257.1,378.2c-0.6,0-1.1-0.4-1.1-0.8s0.5-0.8,1.1-0.8c0.6,0,1.1,0.4,1.1,0.8S-256.5,378.2-257.1,378.2z
				 M-257.1,376.6c-0.5,0-0.9,0.3-0.9,0.7s0.4,0.7,0.9,0.7c0.5,0,0.9-0.3,0.9-0.7S-256.6,376.6-257.1,376.6z"/>
		</g>
		<g>
			<path class="st6" d="M-257.1,377.4"/>
		</g>
		<g>
			<path class="st3" d="M-257.1,376.3c-0.3,0-0.3,0.4,0,0.4C-256.8,376.7-256.8,376.3-257.1,376.3L-257.1,376.3z"/>
			<path class="st2" d="M-257.1,376.7c-0.2,0-0.3-0.1-0.3-0.3c0-0.1,0-0.1,0.1-0.2c0,0,0.1-0.1,0.2-0.1c0.2,0,0.3,0.1,0.3,0.3
				C-256.8,376.6-256.9,376.7-257.1,376.7z M-257.1,376.3c-0.1,0-0.1,0-0.1,0c0,0,0,0.1,0,0.1c0,0.1,0.1,0.1,0.2,0.1
				c0.1,0,0.2-0.1,0.2-0.1C-257,376.4-257,376.3-257.1,376.3z"/>
		</g>
		<g>
			<path class="st3" d="M-258.1,377.1c-0.3,0-0.3,0.5,0,0.5C-257.8,377.6-257.8,377.1-258.1,377.1L-258.1,377.1z"/>
			<path class="st2" d="M-258.1,377.6c-0.2,0-0.3-0.1-0.3-0.3c0-0.1,0-0.1,0.1-0.2c0,0,0.1-0.1,0.2-0.1l0,0c0.2,0,0.3,0.1,0.3,0.3
				c0,0.1,0,0.1-0.1,0.2C-257.9,377.6-258,377.6-258.1,377.6z M-258.1,377.2c-0.1,0-0.1,0-0.1,0.1c0,0,0,0.1,0,0.1
				c0,0.1,0.1,0.2,0.2,0.2c0.1,0,0.1,0,0.1-0.1c0,0,0-0.1,0-0.1C-257.9,377.3-257.9,377.2-258.1,377.2z"/>
		</g>
		<g>
			<path class="st3" d="M-256.2,377.1c0.3,0,0.3,0.5,0,0.5C-256.5,377.6-256.5,377.1-256.2,377.1L-256.2,377.1z"/>
			<path class="st2" d="M-256.2,377.6c-0.2,0-0.3-0.1-0.3-0.3c0-0.1,0-0.1,0.1-0.2c0,0,0.1-0.1,0.2-0.1c0.2,0,0.3,0.1,0.3,0.3
				c0,0.1,0,0.1-0.1,0.2C-256,377.6-256.1,377.6-256.2,377.6z M-256.2,377.2c-0.1,0-0.2,0.1-0.2,0.2c0,0.1,0.1,0.2,0.2,0.2
				c0.1,0,0.1,0,0.1-0.1c0,0,0-0.1,0-0.1C-256,377.3-256.1,377.2-256.2,377.2z"/>
		</g>
		<g>
			<path class="st3" d="M-257.1,377.1c-0.3,0-0.3,0.5,0,0.5C-256.8,377.6-256.8,377.1-257.1,377.1L-257.1,377.1z"/>
			<path class="st2" d="M-257.1,377.6c-0.2,0-0.3-0.1-0.3-0.3c0-0.1,0-0.1,0.1-0.2c0,0,0.1-0.1,0.2-0.1c0.2,0,0.3,0.1,0.3,0.3
				C-256.8,377.5-256.9,377.6-257.1,377.6z M-257.1,377.2c-0.1,0-0.1,0-0.1,0.1c0,0,0,0.1,0,0.1c0,0.1,0.1,0.2,0.2,0.2
				c0.1,0,0.2-0.1,0.2-0.2C-257,377.3-257,377.2-257.1,377.2z"/>
		</g>
		<g>
			<path class="st2" d="M-256.6,378c-0.1-0.2-0.2-0.4-0.2-0.7c0-0.3,0.1-0.5,0.2-0.7l0.1,0.1c-0.1,0.2-0.2,0.4-0.2,0.6
				C-256.7,377.6-256.7,377.8-256.6,378L-256.6,378z M-257.6,378L-257.6,378c0-0.2,0.1-0.5,0.1-0.7c0-0.2-0.1-0.5-0.2-0.6l0.1-0.1
				c0.1,0.2,0.2,0.4,0.2,0.7C-257.4,377.6-257.5,377.9-257.6,378z M-256.5,377.9c-0.1-0.1-0.2-0.4-0.2-0.6c0-0.2,0.1-0.4,0.2-0.6
				l0.1,0.1c-0.1,0.1-0.2,0.3-0.2,0.5C-256.5,377.6-256.5,377.7-256.5,377.9L-256.5,377.9z M-257.8,377.9L-257.8,377.9
				c0-0.2,0.1-0.4,0.1-0.6c0-0.2-0.1-0.4-0.2-0.5l0.1-0.1c0.1,0.1,0.2,0.3,0.2,0.6C-257.6,377.6-257.7,377.8-257.8,377.9z"/>
		</g>
		<g>
			<path class="st3" d="M-257.1,380.2c-0.5,0-0.5,0.7,0,0.7C-256.7,380.9-256.6,380.2-257.1,380.2L-257.1,380.2z"/>
			<path class="st2" d="M-257.1,381c-0.3,0-0.4-0.2-0.4-0.4c0-0.2,0.1-0.4,0.4-0.4c0.1,0,0.2,0,0.3,0.1c0.1,0.1,0.1,0.2,0.1,0.3
				C-256.7,380.8-256.9,381-257.1,381z M-257.1,380.3c-0.2,0-0.3,0.2-0.3,0.3c0,0.1,0.1,0.3,0.3,0.3c0.2,0,0.3-0.2,0.3-0.3
				C-256.8,380.4-256.9,380.3-257.1,380.3z"/>
		</g>
		<g>
			<path class="st3" d="M-257.8,380.4c-0.3,0-0.3,0.4,0,0.4S-257.5,380.4-257.8,380.4L-257.8,380.4z"/>
			<path class="st2" d="M-257.8,380.8c-0.2,0-0.3-0.1-0.3-0.3c0-0.1,0-0.1,0.1-0.2c0,0,0.1-0.1,0.2-0.1c0.2,0,0.3,0.1,0.3,0.3
				c0,0.1,0,0.1-0.1,0.2C-257.6,380.8-257.7,380.8-257.8,380.8z M-257.8,380.4c0,0-0.1,0-0.1,0c0,0,0,0.1,0,0.1c0,0.1,0,0.1,0.1,0.1
				c0.1,0,0.1-0.1,0.1-0.1C-257.7,380.5-257.7,380.4-257.8,380.4z"/>
		</g>
		<g>
			<path class="st3" d="M-256.5,380.4c0.3,0,0.3,0.4,0,0.4C-256.7,380.8-256.8,380.4-256.5,380.4L-256.5,380.4z"/>
			<path class="st2" d="M-256.5,380.8c-0.2,0-0.3-0.1-0.3-0.3c0-0.1,0-0.1,0.1-0.2c0,0,0.1-0.1,0.2-0.1c0.2,0,0.3,0.1,0.3,0.3
				c0,0.1,0,0.1-0.1,0.2C-256.3,380.8-256.4,380.8-256.5,380.8z M-256.5,380.4c0,0-0.1,0-0.1,0c0,0,0,0.1,0,0.1c0,0.1,0,0.1,0.1,0.1
				c0,0,0.1,0,0.1,0c0,0,0-0.1,0-0.1C-256.3,380.5-256.4,380.4-256.5,380.4z"/>
		</g>
		<g>
			<path class="st2" d="M-257.1,382.3c-0.2,0-1.1,0-1.1-0.2h0.1c0,0,0,0,0,0c0,0,0.4,0.1,1,0.1s0.9-0.1,1-0.1c0,0,0,0,0,0h0.1
				C-256,382.2-257,382.3-257.1,382.3z M-257.1,381.9c-0.2,0-1.1,0-1.1-0.2h0.1c0,0,0,0,0,0c0,0,0.4,0.1,1,0.1s0.9-0.1,1-0.1
				c0,0,0,0,0,0h0.1C-256,381.9-257,381.9-257.1,381.9z M-257.1,381.4c-0.2,0-1.1,0-1.1-0.2h0.1c0,0,0,0,0,0c0,0,0.4,0.1,1,0.1
				s0.9-0.1,1-0.1c0,0,0,0,0,0h0.1C-256,381.4-257,381.4-257.1,381.4z M-257.1,381.1c-0.2,0-1.1,0-1.1-0.2h0.1c0,0,0,0,0,0
				c0,0,0.4,0.1,1,0.1s0.9-0.1,1-0.1c0,0,0,0,0,0h0.1C-256,381.1-257,381.1-257.1,381.1z"/>
		</g>
		<g>
			<path class="st2" d="M-256.9,381.9C-256.9,381.9-256.9,381.9-256.9,381.9C-256.9,381.9-256.9,381.8-256.9,381.9
				c-0.1,0-0.1,0-0.2,0c0,0-0.1,0-0.1,0c0,0-0.1,0-0.1,0c0,0-0.1,0-0.1,0c0,0,0,0.1,0,0.1c0,0-0.1,0-0.1,0c0,0,0,0,0,0
				c0,0,0,0-0.1,0c-0.1,0-0.1,0-0.2,0c0,0,0,0,0-0.1c0,0,0,0,0,0c0,0-0.1,0-0.1,0c-0.1,0-0.1-0.1-0.2-0.3c0,0,0,0,0,0
				c0,0-0.1,0-0.1-0.1c0-0.1,0-0.1,0.1-0.1c0,0,0.1,0,0.1,0.2c0,0.1,0,0.1,0,0.1c0,0,0-0.1,0-0.1c0-0.1,0.1-0.1,0.2-0.1
				c0,0,0.1,0.1,0.1,0.2c0,0,0,0,0,0.1c0,0,0,0,0,0c0-0.1,0-0.1,0-0.2c0,0,0.1-0.1,0.1-0.1c0.1,0,0.1,0,0.2,0.1c0,0.1,0,0.1,0,0.2
				c0,0,0,0,0,0c0,0,0,0,0,0c0,0,0,0,0,0c0,0,0,0,0,0c0,0,0,0,0-0.1c0,0,0-0.1,0-0.1c0,0,0,0-0.1-0.1c0,0-0.1,0-0.1-0.1
				c0,0,0-0.1,0.1-0.1c0,0,0.1,0,0.1,0.1c0,0,0.1-0.1,0.1-0.1c0,0,0.1,0,0.1,0.1c0,0,0,0.1-0.1,0.1c0,0,0,0-0.1,0.1c0,0,0,0.1,0,0.1
				c0,0,0,0,0,0.1c0,0,0,0,0,0c0,0,0,0,0,0c0,0,0,0,0,0c0,0,0,0,0,0c0-0.1-0.1-0.1,0-0.2c0-0.1,0.1-0.1,0.2-0.1
				c0.1,0,0.1,0.1,0.1,0.1c0,0.1,0,0.1,0,0.2c0,0,0,0,0,0c0,0,0,0,0-0.1c0-0.1,0.1-0.2,0.1-0.2c0.1,0,0.2,0,0.2,0.1c0,0,0,0.1,0,0.1
				c0,0,0-0.1,0-0.1c0-0.2,0.1-0.2,0.1-0.2c0.1,0,0.1,0.1,0.1,0.1c0,0-0.1,0.1-0.1,0.1c0,0,0,0,0,0c0,0.2-0.1,0.2-0.2,0.3
				c0,0-0.1,0-0.1,0c0,0,0,0,0,0c0,0,0,0.1,0,0.1c-0.1,0-0.1,0-0.2,0C-256.8,381.8-256.8,381.8-256.9,381.9
				C-256.8,381.8-256.8,381.8-256.9,381.9C-256.8,381.9-256.8,381.9-256.9,381.9z"/>
		</g>
		<g>
			<path class="st2" d="M-257.1,382.7c-0.2,0-1.1,0-1.1-0.2h0.1c0,0,0,0,0,0c0,0,0.4,0.1,1,0.1s0.9-0.1,1-0.1c0,0,0,0,0,0h0.1
				C-256,382.7-257,382.7-257.1,382.7z"/>
		</g>
		<g>
			<path class="st2" d="M-257.7,387.6c0,0-0.1,0-0.1-0.1c0,0,0,0,0,0.1h-0.1c0,0,0-0.1,0-0.2c0,0-0.1-0.1-0.1-0.1
				c0,0.1-0.1,0.1-0.1,0.1h-0.1c0-0.1,0-0.1,0.1-0.2l0,0l0.1-0.1l0,0c0,0,0.1-0.1,0.1-0.1c0,0,0,0-0.1-0.1l0,0c0,0,0,0.1,0,0.1h-0.1
				c0-0.1,0-0.1,0.1-0.2l0,0l0.1-0.1l0,0c0,0,0.1-0.1,0.1-0.1c0,0-0.1-0.1-0.1-0.1c0,0,0,0.1,0,0.1h-0.1c0,0,0-0.1,0.1-0.2
				c0,0,0,0,0,0l0.1-0.1c0,0,0,0,0,0c0,0,0.1-0.1,0.1-0.1c0,0-0.1-0.1-0.1-0.1c0,0,0,0,0,0h-0.1c0-0.1,0.1-0.2,0.2-0.4
				c0,0,0,0-0.1-0.1v0h-0.1c0,0,0-0.1,0-0.1c0-0.1,0-0.1,0-0.2h0.1c0,0,0,0,0,0c0,0,0-0.1,0.1-0.1c0,0,0-0.1-0.1-0.1c0,0,0,0,0,0
				h-0.1c0,0,0-0.1,0-0.1c0-0.1,0-0.1,0-0.2h0.1c0,0,0,0,0,0c0,0,0,0,0.1-0.1c0,0,0-0.1-0.1-0.1c0,0,0,0,0,0h-0.1c0,0,0-0.1,0-0.1
				c0-0.1,0-0.1,0-0.2h0.1c0,0,0,0,0,0c0,0,0,0,0.1-0.1c0,0,0-0.1-0.1-0.1c0,0,0,0,0,0h-0.1c0,0,0-0.1,0-0.2c0-0.1,0-0.1,0-0.2h0.1
				c0,0,0,0,0,0c0,0,0-0.1,0.1-0.1c0,0,0-0.1-0.1-0.1c0,0,0,0,0,0h-0.1c0,0,0-0.1,0.1-0.2c0-0.1-0.1-0.1-0.1-0.2h0.1c0,0,0,0,0,0.1
				c0,0,0-0.1,0.1-0.1c0,0,0-0.1-0.1-0.1c0,0,0,0,0,0h-0.1c0,0,0-0.1,0.1-0.2c0-0.1-0.1-0.1-0.1-0.2h0.1c0,0,0,0,0,0.1
				c0,0,0-0.1,0.1-0.1c0,0,0-0.1-0.1-0.1c0,0,0,0,0,0.1h-0.1c0,0,0-0.1,0.1-0.2c0-0.1-0.1-0.1-0.1-0.2h0.1c0,0,0,0.1,0,0.1
				c0,0,0-0.1,0.1-0.1c0,0,0-0.1-0.1-0.1c0,0,0,0.1,0,0.1h-0.1c0-0.1,0-0.1,0.1-0.2c0-0.1-0.1-0.1-0.1-0.2h0.1l0-0.1
				c0,0,0.1-0.1,0.1-0.1c0,0,0-0.1-0.1-0.1l0-0.1c0.1,0,0.1,0.1,0.2,0.2c0,0,0.1,0,0.1,0c0.1,0,0.2,0.1,0.2,0.1
				c0-0.1,0.1-0.1,0.2-0.1c0.1,0,0.2,0.1,0.2,0.2c0,0,0-0.1,0-0.1c0,0,0.1-0.1,0.2-0.1c0.1,0,0.2,0.1,0.2,0.1c0,0,0-0.1,0-0.1
				c0,0,0.1-0.1,0.2-0.1c0.1,0,0.1,0,0.2,0.1c0-0.1,0.1-0.1,0.2-0.1c0.1,0,0.1,0,0.1,0c0-0.1,0.1-0.1,0.2-0.2l0,0.1
				c0,0-0.1,0.1-0.1,0.1c0,0,0,0.1,0.1,0.1l0,0.1h0.1c0,0.1,0,0.1-0.1,0.2c0,0.1,0.1,0.1,0.1,0.2h-0.1c0,0,0,0,0-0.1
				c0,0,0,0.1-0.1,0.1c0,0,0,0.1,0.1,0.1c0,0,0-0.1,0-0.1h0.1c0,0.1,0,0.1-0.1,0.2c0.1,0.1,0.1,0.2,0.1,0.2h-0.1c0,0,0,0,0-0.1
				c0,0,0,0.1-0.1,0.1c0,0,0,0.1,0.1,0.1c0,0,0,0,0-0.1h0.1c0,0.1,0,0.1-0.1,0.2c0,0.1,0.1,0.1,0.1,0.2h-0.1c0,0,0,0,0,0
				c0,0,0,0.1-0.1,0.1c0,0,0,0.1,0.1,0.1c0,0,0,0,0-0.1h0.1c0,0.1,0,0.1-0.1,0.2c0,0.1,0.1,0.1,0.1,0.2h-0.1c0,0,0,0,0,0
				c0,0,0,0.1-0.1,0.1c0,0,0,0.1,0.1,0.1c0,0,0,0,0,0h0.1c0,0.1,0,0.1,0,0.2c0,0.1,0,0.1,0,0.2h-0.1c0,0,0,0,0,0c0,0,0,0.1-0.1,0.1
				c0,0,0,0.1,0.1,0.1c0,0,0,0,0,0h0.1c0,0.1,0,0.1,0,0.2c0,0.1,0,0.1,0,0.1h-0.1c0,0,0,0,0,0c0,0,0,0.1-0.1,0.1c0,0,0,0,0.1,0.1
				c0,0,0,0,0,0h0.1c0,0.1,0,0.1,0,0.2c0,0,0,0.1,0,0.1h-0.1c0,0,0,0.1-0.1,0.1c0,0,0,0,0.1,0.1c0,0,0,0,0,0h0.1c0,0.1,0,0.1,0,0.2
				c0,0,0,0.1,0,0.1h-0.1c0,0,0,0.1-0.1,0.1c0,0,0,0.1,0.1,0.1l0.1,0c0,0,0,0.1,0,0.1c0,0,0,0.1,0,0.1l-0.1,0c0,0-0.1,0.1-0.1,0.1
				c0.1,0.1,0.1,0.2,0.1,0.2l-0.1,0c0,0,0-0.1,0-0.1c0,0-0.1,0.1-0.1,0.1c0,0,0.1,0.1,0.1,0.1c0,0,0,0,0-0.1l0.1,0
				c0,0.1-0.1,0.2-0.2,0.3l0,0.1c0,0,0,0-0.1,0c0,0-0.1,0.1-0.1,0.1l0,0.1c0,0-0.1,0-0.1,0c0,0,0,0-0.1,0.1c0,0-0.1,0.1-0.1,0.1
				l0,0.1c0,0-0.1,0-0.1,0c0,0-0.1,0.1-0.1,0.1l-0.1,0l0,0.1c0,0-0.1,0-0.2-0.1c0,0-0.1,0.1-0.1,0.1c0,0,0,0,0,0l0,0.1
				c0,0-0.1,0-0.1,0h-0.1c0,0,0,0,0-0.1c0,0-0.1-0.1-0.1-0.1c0,0-0.1,0.1-0.1,0.1c0,0,0.1,0.1,0.1,0.1L-257.7,387.6L-257.7,387.6
				C-257.7,387.6-257.7,387.6-257.7,387.6z M-257.7,382.6c0,0,0.1,0.1,0.1,0.1c0,0,0.1-0.1,0.1-0.1l0.1-0.1l0,0l0,0
				c0.1,0.1,0.1,0.1,0.2,0.2c0.1-0.1,0.1-0.1,0.2-0.2l0,0l0,0l0,0c0,0,0.1,0.1,0.1,0.1c0,0,0.1-0.1,0.1-0.1c0,0,0,0,0,0l0.1-0.1
				c0,0,0,0,0,0l0.1,0.1c0,0,0,0,0,0c0,0,0.1,0.1,0.1,0.1c0,0,0.1-0.1,0.1-0.1c0,0,0,0,0-0.1l0.1-0.1c0,0,0,0,0,0c0,0,0-0.1,0-0.1h0
				c0,0,0,0,0,0c0,0.1-0.1,0.2-0.2,0.2c-0.1,0-0.1,0-0.2-0.1c0,0,0,0,0,0.1c0,0-0.1,0.1-0.2,0.1c-0.1,0-0.2-0.1-0.2-0.1
				c0,0,0,0.1,0,0.1c0,0-0.1,0.1-0.2,0.1c-0.1,0-0.2-0.1-0.2-0.2c0,0,0,0.1,0,0.1c0,0-0.1,0.1-0.2,0.1c-0.1,0-0.2-0.1-0.2-0.1
				c0,0,0,0,0,0c0,0-0.1,0.1-0.2,0.1c-0.1,0-0.2-0.1-0.2-0.2c0,0,0,0,0,0h0c0,0,0,0.1,0,0.1c0,0,0,0,0,0l0.1,0.1c0,0,0,0,0,0.1
				c0,0,0.1,0.1,0.1,0.1c0,0,0.1-0.1,0.1-0.1c0,0,0,0,0,0l0.1-0.1C-257.8,382.5-257.8,382.6-257.7,382.6L-257.7,382.6
				C-257.7,382.6-257.7,382.6-257.7,382.6z"/>
		</g>
		<g>
			<path class="st2" d="M-258,385.2c-0.1,0.2-0.3,2.3,0,2.5c0.2,0,0.5-0.1,0.6-0.1c-0.5,0.1-0.6-0.5-0.6-0.9
				C-258.1,385.7-257.9,385.2-258,385.2L-258,385.2z"/>
		</g>
		<g>
			<path class="st2" d="M-258.1,387.7L-258.1,387.7c-0.4-0.2-0.1-2.5-0.1-2.6l0-0.1l0.1,0l0,0c0.1,0.1,0,0.1,0,0.3
				c0,0.2-0.1,0.7,0,1.2c0,0.1,0,0.6,0.2,0.7c0.1,0.1,0.1,0.1,0.2,0.1l0,0.2C-257.5,387.7-257.8,387.7-258.1,387.7L-258.1,387.7z"/>
		</g>
		<g>
			<path class="st3" d="M-257.7,387.6c-0.3,0-0.4-0.5-0.4-0.8c0-0.4,0-1.1,0.1-1.3c0.1-0.4,0-0.3-0.2-0.2c-0.3,0.2-1.9,0.4-2.8,0.4
				c-0.9,0-1.9,0.4-0.6,1.1C-260.4,387.4-258.6,387.8-257.7,387.6L-257.7,387.6z"/>
			<path class="st2" d="M-258.3,387.7c-1,0-2.3-0.3-3.4-0.9c-0.5-0.2-0.7-0.5-0.6-0.7c0.1-0.3,0.7-0.5,1.2-0.5
				c0.9,0,2.5-0.2,2.8-0.4c0,0,0.1,0,0.1-0.1c0.1-0.1,0.2-0.1,0.2-0.1c0.1,0,0,0.1,0,0.4c-0.1,0.2-0.1,0.9-0.1,1.3
				c0,0.2,0,0.5,0.2,0.7c0,0,0.1,0.1,0.2,0.1l0,0.1C-257.9,387.7-258.1,387.7-258.3,387.7z M-258.1,385.2
				C-258.1,385.2-258.1,385.3-258.1,385.2c-0.1,0.1-0.2,0.1-0.2,0.1c-0.3,0.2-1.9,0.4-2.8,0.4c-0.6,0-1.1,0.2-1.1,0.4
				c0,0.2,0.2,0.3,0.6,0.6c1.1,0.6,2.8,1,3.7,0.8c0,0,0,0,0,0c-0.2-0.2-0.2-0.6-0.2-0.8c0-0.4,0-1.1,0.1-1.3
				C-258.1,385.3-258.1,385.3-258.1,385.2z"/>
		</g>
		<g>
			<path class="st3" d="M-260.5,387.3c0,0.1-0.8-0.3-1.2-0.5c-1.3-0.7-0.3-1.1,0.6-1.1c0.5,0,0.7-0.1,0.7,0c-0.1,0-0.2,0.1-0.2,0.8
				C-260.6,387-260.6,387.2-260.5,387.3L-260.5,387.3z"/>
			<path class="st2" d="M-260.5,387.3c-0.2,0-1.2-0.5-1.2-0.5c-0.5-0.2-0.7-0.5-0.6-0.7c0.1-0.3,0.7-0.5,1.2-0.5
				c0.2,0,0.4,0,0.5-0.1c0.1,0,0.2,0,0.2,0l0,0.1l-0.1,0c0,0-0.1,0-0.2,0.7c0,0.7,0,0.8,0.1,0.8l0.1,0L-260.5,387.3L-260.5,387.3
				C-260.5,387.3-260.5,387.3-260.5,387.3z M-260.6,385.7c-0.1,0-0.3,0.1-0.5,0.1c-0.6,0-1.1,0.2-1.1,0.4c0,0.2,0.2,0.4,0.6,0.6
				c0.3,0.2,0.8,0.4,1,0.5c0-0.1,0-0.4,0-0.7C-260.6,386-260.6,385.8-260.6,385.7z"/>
		</g>
		<g>
			<path class="st2" d="M-258.1,387.7c-0.1,0-0.1,0-0.2-0.1c0,0-0.1,0.1-0.1,0.1v-0.1c0,0,0,0,0,0c0,0,0,0,0-0.1
				c-0.1,0.1-0.2,0.2-0.4,0.2l0-0.1c0.1,0,0.2-0.1,0.3-0.2c0,0,0-0.1,0-0.1c-0.2,0.3-0.5,0.4-0.8,0.3l0-0.1c0.2,0,0.5-0.1,0.7-0.4
				c0-0.1,0-0.1,0-0.2c-0.6,0.6-0.9,0.6-1.2,0.6l0-0.1c-0.1,0-0.2,0-0.3,0l0-0.1c-0.1,0-0.2,0-0.3,0l0-0.1c0.3,0.1,0.7-0.3,1.3-0.8
				c0.1-0.1,0.3-0.3,0.5-0.4c0-0.1,0-0.1,0-0.2c0,0-0.1,0.1-0.1,0.1c-1,0.9-1.7,1.4-1.9,1.4l0-0.1c0,0,0,0,0,0c0.2,0,1.3-1,1.7-1.3
				c0.1-0.1,0.2-0.2,0.3-0.2c0,0,0-0.1,0-0.1c-0.2,0.1-0.5,0.4-0.8,0.6c-0.5,0.4-1,0.9-1.3,1l0-0.1c0.3-0.1,0.8-0.6,1.3-1
				c0.5-0.4,0.8-0.7,1-0.8c0,0,0.1,0,0.1,0l0,0.1c-0.2,0.1-0.2,0.9-0.2,1.2c0,0.5,0.1,0.8,0.2,0.9c0,0,0.1,0.1,0.1,0.1c0,0,0,0,0,0
				L-258.1,387.7C-258.1,387.7-258.1,387.7-258.1,387.7z M-259.7,387.4c0.2,0,0.5,0,1.1-0.6c0-0.1,0-0.1,0-0.2
				C-259.1,387.1-259.5,387.3-259.7,387.4z M-260,387.3c0.2,0,0.5-0.1,1.4-0.9c0-0.1,0-0.2,0-0.2c-0.1,0.1-0.2,0.2-0.4,0.3
				C-259.4,386.9-259.7,387.2-260,387.3z M-260.8,387.2c0,0-0.1,0-0.1-0.1l0,0c-0.1-0.1-0.3-0.3-0.4-0.6c0-0.1-0.1-0.1-0.1-0.2
				c-0.2,0.2-0.5,0.4-0.6,0.3l0.1-0.1c0.1,0.1,0.3-0.1,0.4-0.3c-0.1-0.2-0.2-0.4-0.3-0.3l0-0.1c0.2-0.1,0.3,0.1,0.5,0.4
				c0,0,0,0,0.1-0.1c0.3-0.2,0.5-0.5,0.6-0.5l0,0c0,0,0.1,0,0.1,0l0,0.1c0,0-0.1,0-0.2,0.7c0,0.6,0,0.7,0,0.7L-260.8,387.2z
				 M-261.4,386.2c0,0.1,0.1,0.2,0.1,0.3c0.1,0.2,0.2,0.4,0.3,0.5c0-0.1,0-0.3,0-0.6c0-0.3,0-0.5,0.1-0.6
				C-261,385.9-261.1,386-261.4,386.2C-261.3,386.2-261.3,386.2-261.4,386.2z M-260.6,386.9l-0.1-0.1c0.2-0.1,0.5-0.4,0.8-0.7
				c0.4-0.4,0.8-0.7,1-0.8l0,0.1c-0.2,0-0.6,0.4-1,0.8C-260,386.5-260.4,386.8-260.6,386.9z M-260.6,386.6L-260.6,386.6
				c0.1-0.2,0.3-0.4,0.4-0.5c0.2-0.2,0.4-0.4,0.6-0.5c-0.2,0.1-0.5,0.3-0.7,0.5c-0.1,0.1-0.2,0.2-0.3,0.3l-0.1-0.1
				c0.1,0,0.2-0.1,0.3-0.2c0.1-0.1,0.3-0.3,0.4-0.4c-0.2,0.1-0.3,0.2-0.5,0.3c-0.1,0.1-0.1,0.1-0.2,0.1l-0.1-0.1
				c0,0,0.1-0.1,0.1-0.1c0.2-0.1,0.3-0.3,0.6-0.4l0,0.1c0.1-0.1,0.2-0.1,0.4-0.1l0,0.1c0.1-0.1,0.2-0.1,0.3-0.1l0,0.1
				c-0.2,0-0.5,0.4-0.9,0.6C-260.2,386.4-260.4,386.5-260.6,386.6z"/>
		</g>
		<g>
			<path class="st3" d="M-260.7,384.9c0.1,0,0.2-0.1,0.2-0.2v-1.5c0-0.1-0.1-0.2-0.2-0.2h-2.6c-0.1,0-0.2,0.1-0.2,0.2v1.5
				c0,0.1,0.1,0.2,0.2,0.2H-260.7L-260.7,384.9z"/>
			<path class="st2" d="M-260.7,384.9h-2.6c-0.1,0-0.2-0.1-0.2-0.2v-1.5c0-0.1,0.1-0.2,0.2-0.2h2.6c0.1,0,0.2,0.1,0.2,0.2v1.5
				C-260.5,384.8-260.6,384.9-260.7,384.9z M-263.3,383.1c-0.1,0-0.1,0-0.1,0.1v1.5c0,0.1,0,0.1,0.1,0.1h2.6c0.1,0,0.1,0,0.1-0.1
				v-1.5c0-0.1,0-0.1-0.1-0.1H-263.3z"/>
		</g>
		<g>
			<path class="st2" d="M-262,384.9L-262,384.9L-262,384.9l-0.2-0.1l-0.1,0.1l0,0l0,0l-0.1-0.1l-0.1,0.1l0,0l0,0l-0.1-0.1l-0.1,0.1
				l0,0l0,0l-0.1-0.1l-0.1,0.1l0,0l0,0l-0.1-0.1l-0.1,0.1l0,0l0,0l-0.1-0.1l0,0l0,0l-0.1,0.1l-0.1-0.1l0.1-0.1l-0.2-0.2l0,0v-0.1
				h1.4c-0.1,0-0.1-0.1-0.1-0.2c0,0,0,0,0,0c0,0,0,0-0.1,0.1c-0.1,0.1-0.1,0.1-0.2,0.1c0,0-0.1-0.1-0.1-0.1c0-0.1,0-0.1,0-0.2
				c0,0,0,0-0.1,0c-0.2,0-0.2-0.1-0.2-0.1s0.1-0.1,0.2-0.1c0,0,0,0,0.1,0c0,0-0.1-0.1-0.1-0.2c0,0,0.1-0.1,0.1-0.1
				c0.1,0,0.1,0,0.2,0.1c0,0,0,0,0.1,0.1c0,0,0,0,0,0c0,0,0-0.1,0.1-0.1h-1.4v-0.1l0,0l0.2-0.2l-0.1-0.1l0.1-0.1l0.1,0.1l0,0l0,0
				l0.1-0.1l0,0l0,0l0.1,0.1l0.1-0.1l0,0l0,0l0.1,0.1l0.1-0.1l0,0l0,0l0.1,0.1l0.1-0.1l0,0l0,0l0.1,0.1l0.1-0.1l0,0l0,0l0.1,0.1
				l0.1-0.1l0,0l0,0l0.1,0.1l0.1-0.1l0,0l0,0l0.1,0.1l0.1-0.1l0,0l0,0l0.1,0.1l0.1-0.1l0,0l0,0l0.1,0.1l0.1-0.1l0,0l0,0l0.1,0.1
				l0.1-0.1l0,0l0,0l0.1,0.1l0,0l0,0l0.1-0.1l0.1,0.1l-0.1,0.1l0.2,0.2l0,0v0.1h-1.4c0,0,0,0.1,0.1,0.1c0,0,0,0,0,0c0,0,0,0,0.1-0.1
				c0.1-0.1,0.1-0.1,0.2-0.1c0,0,0.1,0.1,0.1,0.1c0,0.1,0,0.1-0.1,0.2c0,0,0,0,0.1,0c0.2,0,0.2,0.1,0.2,0.1s-0.1,0.1-0.2,0.1
				c0,0,0,0-0.1,0c0,0,0.1,0.1,0,0.2c0,0-0.1,0.1-0.1,0.1c-0.1,0-0.1,0-0.2-0.1c0,0,0,0-0.1-0.1c0,0,0,0,0,0c0,0,0,0.1-0.1,0.2h1.4
				v0.1l0,0l-0.2,0.2l0.1,0.1l-0.1,0.1l-0.1-0.1l0,0l0,0l-0.1,0.1l0,0l0,0l-0.1-0.1l-0.1,0.1l0,0l0,0l-0.1-0.1l-0.1,0.1l0,0l0,0
				l-0.1-0.1l-0.1,0.1l0,0l0,0l-0.1-0.1l-0.1,0.1l0,0l0,0H-262L-262,384.9z M-262.2,384.1C-262.1,384.1-262.1,384.1-262.2,384.1
				c0.1,0.1,0.1,0.1,0.1,0.1c0,0,0,0.1,0,0.1c0,0,0,0,0-0.1c0,0,0-0.1,0-0.1c0,0,0,0,0.1,0c0.1,0,0.1,0.1,0.2,0.1c0,0,0,0,0.1,0
				c0,0,0,0,0,0c0,0,0,0,0,0c0,0-0.1-0.1-0.1-0.1c0-0.1,0.1-0.1,0.2-0.1c0.1,0,0.1,0,0.1,0c0,0,0,0-0.1,0c-0.1,0-0.2,0-0.2-0.1
				c0-0.1,0-0.1,0.1-0.1c0,0,0,0,0,0c0,0,0,0,0,0c0,0,0,0-0.1,0c-0.1,0.1-0.1,0.1-0.2,0.1c0,0,0,0-0.1,0c0,0,0-0.1,0-0.1
				c0,0,0-0.1,0-0.1c0,0,0,0,0,0.1c0,0,0,0.1,0,0.1c0,0,0,0-0.1,0c-0.1,0-0.1-0.1-0.2-0.1c0,0-0.1,0-0.1,0c0,0,0,0,0,0c0,0,0,0,0,0
				c0,0,0.1,0.1,0.1,0.1c0,0.1-0.1,0.1-0.2,0.1c-0.1,0-0.1,0-0.1,0c0,0,0,0,0.1,0c0.1,0,0.2,0,0.2,0.1c0,0.1,0,0.1-0.1,0.1
				c0,0,0,0,0,0c0,0,0,0,0,0c0,0,0,0,0.1,0C-262.3,384.1-262.2,384.1-262.2,384.1z M-262,384.1c-0.1,0-0.2-0.1-0.2-0.2
				s0.1-0.2,0.2-0.2c0.1,0,0.2,0.1,0.2,0.2S-261.9,384.1-262,384.1z"/>
		</g>
		<g>
			<path class="st3" d="M-253.9,384.9c-0.1,0-0.2-0.1-0.2-0.2v-1.5c0-0.1,0.1-0.2,0.2-0.2h2.6c0.1,0,0.2,0.1,0.2,0.2v1.5
				c0,0.1-0.1,0.2-0.2,0.2H-253.9L-253.9,384.9z"/>
			<path class="st2" d="M-251.3,384.9h-2.6c-0.1,0-0.2-0.1-0.2-0.2v-1.5c0-0.1,0.1-0.2,0.2-0.2h2.6c0.1,0,0.2,0.1,0.2,0.2v1.5
				C-251,384.8-251.1,384.9-251.3,384.9z M-253.9,383.1c-0.1,0-0.1,0-0.1,0.1v1.5c0,0.1,0,0.1,0.1,0.1h2.6c0.1,0,0.1,0,0.1-0.1v-1.5
				c0-0.1,0-0.1-0.1-0.1H-253.9z"/>
		</g>
		<g>
			<path class="st2" d="M-253.2,384.9L-253.2,384.9L-253.2,384.9l-0.2-0.1l-0.1,0.1l0,0l0,0l-0.1-0.1l-0.1,0.1l0,0l0,0l-0.1-0.1l0,0
				l0,0l-0.1,0.1l-0.1-0.1l0.1-0.1l-0.2-0.2l0,0v-0.1h1.4c-0.1,0-0.1-0.1-0.1-0.2c0,0,0,0,0,0c0,0,0,0-0.1,0.1
				c-0.1,0.1-0.2,0.1-0.2,0c-0.1-0.1-0.1-0.1,0-0.2c0,0,0,0-0.1,0c-0.2,0-0.2-0.1-0.2-0.1s0.1-0.1,0.2-0.1c0,0,0,0,0.1,0
				c0,0-0.1-0.1-0.1-0.2c0,0,0.1-0.1,0.1-0.1c0.1,0,0.1,0,0.2,0.1c0,0,0,0,0.1,0.1c0,0,0,0,0,0c0,0,0-0.1,0.1-0.1h-1.4v-0.1l0,0
				l0.2-0.2l-0.1-0.1l0.1-0.1l0.1,0.1l0,0l0,0l0.1-0.1l0,0l0,0l0.1,0.1l0.1-0.1l0,0l0,0l0.1,0.1l0.1-0.1l0,0l0,0l0.1,0.1l0.1-0.1
				l0,0l0,0l0.1,0.1l0.1-0.1l0,0l0,0l0.1,0.1l0.1-0.1l0,0l0,0l0.1,0.1l0.1-0.1l0,0l0,0l0.1,0.1l0.1-0.1l0,0l0,0l0.1,0.1l0.1-0.1l0,0
				l0,0l0.1,0.1l0.1-0.1l0,0l0,0l0.1,0.1l0.1-0.1l0,0l0,0l0.1,0.1l0,0l0,0l0.1-0.1l0.1,0.1l-0.1,0.1l0.2,0.2l0,0v0.1h-1.4
				c0,0,0,0.1,0.1,0.1c0,0,0,0,0,0c0,0,0,0,0.1-0.1c0.1-0.1,0.1-0.1,0.2-0.1c0,0,0.1,0.1,0.1,0.1c0,0.1,0,0.1-0.1,0.2c0,0,0,0,0.1,0
				c0.2,0,0.2,0.1,0.2,0.1s-0.1,0.1-0.2,0.1c0,0,0,0-0.1,0c0.1,0.1,0.1,0.2,0,0.2c-0.1,0.1-0.2,0.1-0.2,0c0,0,0,0-0.1-0.1
				c0,0,0,0,0,0c0,0,0,0.1-0.1,0.2h1.4v0.1l0,0l-0.2,0.2l0.1,0.1l-0.1,0.1l-0.1-0.1l0,0l0,0l-0.1,0.1l0,0l0,0l-0.1-0.1l-0.1,0.1l0,0
				l0,0l-0.1-0.1l-0.1,0.1l0,0l0,0l-0.1-0.1l-0.1,0.1l0,0l0,0l-0.1-0.1l-0.1,0.1l0,0l0,0l-0.1-0.1l-0.1,0.1l0,0l0,0l-0.1-0.1
				l-0.1,0.1l0,0l0,0l-0.1-0.1l-0.1,0.1l0,0l0,0H-253.2L-253.2,384.9z M-252.7,384.1L-252.7,384.1
				C-252.7,384.1-252.6,384.1-252.7,384.1c0.1,0.1,0.1,0.1,0.1,0.1c0,0,0,0.1,0,0.1c0,0,0,0,0-0.1c0,0,0-0.1,0-0.1c0,0,0,0,0.1,0h0
				c0.1,0,0.1,0.1,0.2,0.1c0,0,0.1,0,0.1,0c0,0,0,0,0-0.1c0,0-0.1-0.1-0.1-0.1c0-0.1,0.1-0.1,0.2-0.1c0.1,0,0.1,0,0.1,0
				c0,0,0,0-0.1,0c-0.1,0-0.2,0-0.2-0.1c0-0.1,0-0.1,0.1-0.1c0,0,0,0,0,0c0,0,0,0,0,0c0,0,0,0-0.1,0c-0.1,0.1-0.1,0.1-0.2,0.1h0
				c0,0,0,0-0.1,0c0,0,0-0.1,0-0.1c0,0,0-0.1,0-0.1c0,0,0,0,0,0.1c0,0,0,0.1,0,0.1c0,0,0,0-0.1,0h0c-0.1,0-0.1-0.1-0.2-0.1
				c0,0,0,0-0.1,0c0,0,0,0,0,0c0,0,0,0,0,0c0,0,0.1,0.1,0.1,0.1c0,0.1-0.1,0.1-0.2,0.1c-0.1,0-0.1,0-0.1,0c0,0,0,0,0.1,0
				c0.1,0,0.2,0,0.2,0.1c0,0.1,0,0.1-0.1,0.1c0,0,0,0,0,0.1c0,0,0,0,0.1,0C-252.8,384.1-252.8,384.1-252.7,384.1z M-252.6,384.1
				c-0.1,0-0.2-0.1-0.2-0.2c0,0,0-0.1,0-0.1c0,0,0.1-0.1,0.1-0.1c0.1,0,0.2,0.1,0.2,0.2S-252.5,384.1-252.6,384.1z"/>
		</g>
		<g>
			<path class="st3" d="M-259.1,384.2c0.7-0.1,1.6-0.1,2,0v-0.4c-0.4,0-1.3,0-2,0V384.2L-259.1,384.2z"/>
			<path class="st2" d="M-259.1,384.3v-0.6l0.1,0c0.7,0.1,1.6,0.1,2,0l0.1,0v0.6l-0.1,0C-257.5,384.2-258.4,384.2-259.1,384.3
				L-259.1,384.3z M-259,383.8v0.4c0.6-0.1,1.4-0.1,1.9,0v-0.3C-257.6,383.8-258.4,383.8-259,383.8z"/>
		</g>
		<g>
			<path class="st3" d="M-258.5,383.9c0,0.3,0,0.5,0.3,0.5c0.3,0,0.3-0.2,0.3-0.5c0-0.3,0-0.5-0.3-0.5
				C-258.5,383.4-258.5,383.7-258.5,383.9h-0.2c0-0.4,0-0.8,0.5-0.8c0.5,0,0.5,0.4,0.5,0.8c0,0.4,0,0.8-0.5,0.8
				c-0.5,0-0.5-0.4-0.5-0.8H-258.5L-258.5,383.9z"/>
			<path class="st2" d="M-258.2,384.8c-0.5,0-0.6-0.4-0.6-0.8v-0.1c0-0.4,0-0.8,0.6-0.8c0.6,0,0.6,0.5,0.6,0.9
				C-257.7,384.3-257.7,384.8-258.2,384.8z M-258.7,384c0,0.5,0.1,0.7,0.4,0.7c0.4,0,0.4-0.2,0.4-0.7c0-0.5-0.1-0.7-0.4-0.7
				c-0.4,0-0.4,0.2-0.4,0.7h0.1c0-0.2,0-0.4,0.1-0.5c0.1-0.1,0.1-0.1,0.2-0.1s0.2,0,0.2,0.1c0.1,0.1,0.1,0.3,0.1,0.5v0.1
				c0,0.2,0,0.4-0.1,0.5c-0.1,0.1-0.1,0.1-0.2,0.1s-0.2,0-0.2-0.1c-0.1-0.1-0.1-0.3-0.1-0.5H-258.7z M-258.4,384
				c0,0.2,0,0.3,0.1,0.4c0,0,0.1,0,0.1,0s0.1,0,0.1,0c0.1-0.1,0.1-0.2,0.1-0.4v-0.1c0-0.2,0-0.3-0.1-0.4c0,0-0.1,0-0.1,0
				s-0.1,0-0.1,0c-0.1,0.1-0.1,0.2-0.1,0.4V384z"/>
		</g>
		<g>
			<path class="st3" d="M-259.2,383.9c0,0.1,0.1,0.3,0.3,0.3c0.1,0,0.3-0.1,0.3-0.3c0-0.1-0.1-0.3-0.3-0.3
				C-259.1,383.7-259.2,383.8-259.2,383.9h-0.3c0-0.3,0.2-0.6,0.6-0.6c0.3,0,0.6,0.3,0.6,0.6c0,0.3-0.2,0.6-0.6,0.6
				c-0.3,0-0.6-0.3-0.6-0.6H-259.2L-259.2,383.9z"/>
			<path class="st2" d="M-259,384.6c-0.3,0-0.6-0.2-0.6-0.6h0l0-0.1c0-0.3,0.3-0.6,0.6-0.6c0.3,0,0.6,0.3,0.6,0.6
				C-258.3,384.3-258.6,384.6-259,384.6z M-259.4,384c0,0.2,0.2,0.4,0.5,0.4c0.3,0,0.5-0.2,0.5-0.5c0-0.3-0.2-0.5-0.5-0.5
				c-0.3,0-0.5,0.2-0.5,0.4h0.1c0-0.2,0.2-0.3,0.3-0.3c0.2,0,0.3,0.1,0.3,0.3s-0.1,0.3-0.3,0.3c-0.2,0-0.3-0.1-0.3-0.3H-259.4z
				 M-259.2,383.9c0,0.1,0.1,0.2,0.2,0.2s0.2-0.1,0.2-0.2c0-0.1-0.1-0.2-0.2-0.2S-259.2,383.8-259.2,383.9z"/>
		</g>
		<g>
			<path class="st3" d="M-259.2,383.9c0,0.4,0,0.8-0.5,0.8s-0.5-0.4-0.5-0.8c0-0.4,0-0.8,0.5-0.8S-259.2,383.5-259.2,383.9h-0.3
				c0-0.3,0-0.5-0.3-0.5s-0.3,0.2-0.3,0.5c0,0.3,0,0.5,0.3,0.5s0.3-0.2,0.3-0.5H-259.2L-259.2,383.9z"/>
			<path class="st2" d="M-259.7,384.8c-0.6,0-0.6-0.5-0.6-0.9s0-0.9,0.6-0.9c0.6,0,0.6,0.4,0.6,0.8v0.1
				C-259.1,384.4-259.2,384.8-259.7,384.8z M-259.7,383.2c-0.4,0-0.5,0.3-0.5,0.7s0,0.7,0.5,0.7c0.4,0,0.5-0.2,0.5-0.7h-0.1v0
				c0,0.2,0,0.4-0.1,0.4c-0.1,0.1-0.1,0.1-0.2,0.1s-0.2,0-0.2-0.1c-0.1-0.1-0.1-0.3-0.1-0.4l0-0.1l0-0.1c0-0.2,0-0.4,0.1-0.4
				c0.1-0.1,0.1-0.1,0.2-0.1s0.2,0,0.2,0.1c0.1,0.1,0.1,0.3,0.1,0.4v0h0.1C-259.3,383.5-259.3,383.2-259.7,383.2z M-259.7,383.5
				c-0.1,0-0.1,0-0.2,0c-0.1,0.1-0.1,0.2-0.1,0.4l0,0.1l0,0.1c0,0.2,0,0.3,0.1,0.4c0,0,0.1,0,0.2,0s0.1,0,0.2,0
				c0.1-0.1,0.1-0.2,0.1-0.4v-0.1c0-0.2,0-0.3-0.1-0.4C-259.6,383.5-259.7,383.5-259.7,383.5z"/>
		</g>
		<g>
			<path class="st3" d="M-260.8,383.9c0,0.4-0.2,0.4,0.5,0.4c0.5,0,0.4,0,0.4-0.4s0.1-0.3-0.4-0.4
				C-261,383.6-260.8,383.5-260.8,383.9L-260.8,383.9z"/>
			<path class="st2" d="M-260.6,384.4c-0.1,0-0.2,0-0.2,0c0,0,0-0.1,0-0.2c0,0,0-0.1,0-0.2s0-0.1,0-0.2c0-0.1,0-0.1,0-0.2
				c0.1-0.1,0.1-0.1,0.4,0l0.1,0c0.3,0,0.4,0,0.4,0.1c0,0,0,0.1,0,0.2c0,0,0,0.1,0,0.2s0,0.1,0,0.2c0,0.1,0,0.1,0,0.2
				c-0.1,0.1-0.1,0.1-0.4,0.1l-0.1,0C-260.5,384.4-260.6,384.4-260.6,384.4z M-260.7,383.6C-260.7,383.6-260.7,383.6-260.7,383.6
				c-0.1,0-0.1,0.1-0.1,0.1c0,0.1,0,0.1,0,0.2s0,0.1,0,0.2c0,0,0,0.1,0,0.1c0,0,0.2,0,0.3,0l0.1,0c0.1,0,0.3,0,0.3,0c0,0,0,0,0-0.1
				c0,0,0-0.1,0-0.2s0-0.1,0-0.2c0,0,0-0.1,0-0.1c0,0-0.2,0-0.3,0l-0.1,0C-260.5,383.6-260.6,383.6-260.7,383.6z"/>
		</g>
		<g>
			<path class="st3" d="M-259.7,383.9c0,0.4-0.1,0.3,0.3,0.3c0.5,0,0.3-0.1,0.3-0.3c0-0.3,0.2-0.3-0.3-0.3
				C-259.8,383.6-259.7,383.6-259.7,383.9L-259.7,383.9z"/>
			<path class="st2" d="M-259.6,384.3c-0.1,0-0.1,0-0.1,0c0,0,0-0.1,0-0.2c0,0,0-0.1,0-0.2c0-0.1,0-0.1,0-0.2c0-0.1,0-0.1,0-0.2
				c0,0,0.1,0,0.3,0l0.1,0c0.2,0,0.3,0,0.4,0.1c0,0,0,0.1,0,0.1c0,0,0,0.1,0,0.1c0,0.1,0,0.1,0,0.1c0,0.1,0,0.1,0,0.1
				c0,0.1-0.1,0.1-0.4,0.1l-0.1,0C-259.5,384.3-259.5,384.3-259.6,384.3z M-259.6,383.7C-259.6,383.7-259.6,383.7-259.6,383.7
				c0,0.1,0,0.2,0,0.3c0,0.1,0,0.1,0,0.2c0,0,0,0.1,0,0.1c0,0,0.1,0,0.2,0l0.1,0c0.1,0,0.2,0,0.3,0c0,0,0,0,0,0c0,0,0,0,0,0
				c0,0,0-0.1,0-0.2s0-0.1,0-0.2c0,0,0,0,0-0.1c0,0-0.2,0-0.3,0l-0.1,0C-259.5,383.7-259.6,383.7-259.6,383.7
				C-259.6,383.7-259.6,383.7-259.6,383.7z"/>
		</g>
		<g>
			<path class="st3" d="M-255.4,383.9c0,0.4,0,0.8,0.5,0.8c0.5,0,0.5-0.4,0.5-0.8c0-0.4,0-0.8-0.5-0.8
				C-255.4,383.1-255.4,383.5-255.4,383.9h0.3c0-0.3,0-0.5,0.3-0.5c0.3,0,0.3,0.2,0.3,0.5c0,0.3,0,0.5-0.3,0.5
				c-0.3,0-0.3-0.2-0.3-0.5H-255.4L-255.4,383.9z"/>
			<path class="st2" d="M-254.9,384.8c-0.6,0-0.6-0.4-0.6-0.8v-0.1c0-0.4,0-0.8,0.6-0.8c0.6,0,0.6,0.5,0.6,0.9
				S-254.3,384.8-254.9,384.8z M-255.4,384c0,0.5,0.1,0.7,0.5,0.7c0.4,0,0.5-0.2,0.5-0.7c0-0.4,0-0.7-0.5-0.7
				c-0.4,0-0.5,0.3-0.5,0.7h0.1v0c0-0.2,0-0.3,0.1-0.4c0.1-0.1,0.1-0.1,0.2-0.1s0.2,0,0.2,0.1c0.1,0.1,0.1,0.3,0.1,0.4l0,0.1l0,0.1
				c0,0.2,0,0.3-0.1,0.4c-0.1,0.1-0.1,0.1-0.2,0.1s-0.2,0-0.2-0.1c-0.1-0.1-0.1-0.3-0.1-0.4v0H-255.4z M-255.1,384L-255.1,384
				c0,0.2,0,0.3,0.1,0.4c0,0,0.1,0,0.2,0s0.1,0,0.2,0c0.1-0.1,0.1-0.2,0.1-0.4l0-0.1l0-0.1c0-0.2,0-0.3-0.1-0.4c0,0-0.1,0-0.2,0
				s-0.1,0-0.2,0c-0.1,0.1-0.1,0.2-0.1,0.4V384z"/>
		</g>
		<g>
			<path class="st3" d="M-253.8,383.9c0,0.4,0.2,0.4-0.5,0.4c-0.5,0-0.4,0-0.4-0.4s-0.1-0.3,0.4-0.4
				C-253.7,383.6-253.8,383.5-253.8,383.9L-253.8,383.9z"/>
			<path class="st2" d="M-254,384.4c-0.1,0-0.1,0-0.2,0l-0.1,0c-0.3,0-0.4,0-0.4-0.1c0,0,0-0.1,0-0.2c0,0,0-0.1,0-0.2s0-0.1,0-0.2
				c0-0.1,0-0.1,0-0.2c0.1-0.1,0.2-0.1,0.4-0.1l0.1,0c0.3,0,0.4,0,0.4,0c0,0,0,0.1,0,0.2c0,0,0,0.1,0,0.2c0,0.1,0,0.1,0,0.2
				c0,0.1,0,0.1,0,0.2C-253.8,384.4-253.9,384.4-254,384.4z M-253.9,383.6c-0.1,0-0.1,0-0.2,0l-0.1,0c-0.1,0-0.3,0-0.3,0
				c0,0,0,0,0,0.1c0,0,0,0.1,0,0.2s0,0.1,0,0.2c0,0,0,0.1,0,0.1c0,0,0.2,0,0.3,0l0.1,0c0.2,0,0.3,0,0.3,0c0,0,0-0.1,0-0.1
				c0-0.1,0-0.1,0-0.2c0-0.1,0-0.1,0-0.2C-253.9,383.7-253.9,383.7-253.9,383.6C-253.9,383.6-253.9,383.6-253.9,383.6z"/>
		</g>
		<g>
			<path class="st3" d="M-256.6,383.9c0,0.2,0,0.4,0.2,0.4s0.2-0.2,0.2-0.4c0-0.2,0-0.4-0.2-0.4S-256.6,383.7-256.6,383.9h-0.2
				c0-0.4,0-0.7,0.5-0.7c0.4,0,0.5,0.3,0.5,0.7c0,0.4,0,0.7-0.5,0.7c-0.4,0-0.5-0.3-0.5-0.7H-256.6L-256.6,383.9z"/>
			<path class="st2" d="M-256.4,384.7c-0.5,0-0.5-0.4-0.5-0.7v-0.1c0-0.3,0-0.7,0.5-0.7c0.5,0,0.5,0.4,0.5,0.7
				S-255.9,384.7-256.4,384.7z M-256.8,384c0,0.4,0.1,0.5,0.4,0.5c0.3,0,0.4-0.2,0.4-0.6s-0.1-0.6-0.4-0.6c-0.3,0-0.4,0.2-0.4,0.5
				h0.1c0-0.1,0-0.2,0.1-0.3c0,0,0.1-0.1,0.2-0.1s0.2,0,0.2,0.1c0.1,0.1,0.1,0.2,0.1,0.3v0.1c0,0.1,0,0.3-0.1,0.3
				c0,0-0.1,0.1-0.2,0.1s-0.2,0-0.2-0.1c-0.1-0.1-0.1-0.2-0.1-0.3H-256.8z M-256.6,384c0,0.1,0,0.2,0,0.2c0,0,0.1,0,0.1,0
				s0.1,0,0.1,0c0,0,0-0.1,0-0.2v-0.1c0-0.1,0-0.2,0-0.2c0,0-0.1,0-0.1,0s-0.1,0-0.1,0c0,0,0,0.1,0,0.2h0L-256.6,384z"/>
		</g>
		<g>
			<path class="st3" d="M-256.5,383.9c0,0.4,0.1,0.3-0.3,0.3c-0.5,0-0.3-0.1-0.3-0.3c0-0.3-0.2-0.3,0.3-0.3
				C-256.4,383.6-256.5,383.6-256.5,383.9L-256.5,383.9z"/>
			<path class="st2" d="M-256.6,384.3c0,0-0.1,0-0.1,0l-0.1,0c-0.2,0-0.3,0-0.4-0.1c0,0,0-0.1,0-0.1c0,0,0-0.1,0-0.1s0-0.1,0-0.1
				c0-0.1,0-0.1,0-0.1c0-0.1,0.1-0.1,0.4-0.1l0.1,0c0.2,0,0.2,0,0.3,0c0,0,0,0.1,0,0.2c0,0,0,0.1,0,0.2s0,0.1,0,0.2
				c0,0.1,0,0.1,0,0.2C-256.5,384.3-256.6,384.3-256.6,384.3z M-257.1,383.7C-257.1,383.7-257.1,383.7-257.1,383.7
				c0,0.1,0,0.1,0,0.2s0,0.1,0,0.2c0,0,0,0,0,0.1c0,0,0.2,0,0.3,0l0.1,0c0.1,0,0.2,0,0.2,0c0,0,0,0,0,0c0,0,0,0,0-0.1
				c0,0,0-0.1,0-0.2s0-0.1,0-0.2c0,0,0-0.1,0-0.1c0,0-0.1,0-0.2,0l-0.1,0C-256.9,383.7-257.1,383.7-257.1,383.7L-257.1,383.7z"/>
		</g>
		<g>
			<path class="st3" d="M-255,383.9c0,0.3,0.1,0.2-0.6,0.2c-0.7,0-0.6,0-0.6-0.2c0-0.3-0.1-0.2,0.6-0.2
				C-254.9,383.7-255,383.7-255,383.9L-255,383.9z"/>
			<path class="st2" d="M-255.3,384.3c-0.1,0-0.2,0-0.4,0c-0.2,0-0.3,0-0.3,0c-0.2,0-0.2,0-0.3-0.1c0,0,0-0.1,0-0.2l0-0.1l0-0.1
				c0-0.1,0-0.2,0-0.2c0.1-0.1,0.2-0.1,0.4-0.1c0.1,0,0.1,0,0.2,0c0.2,0,0.3,0,0.4,0c0.2,0,0.2,0,0.3,0.1c0,0,0,0.1,0,0.2
				c0,0,0,0.1,0,0.1s0,0.1,0,0.1c0,0.1,0,0.1,0,0.2C-255.1,384.2-255.1,384.3-255.3,384.3z M-255.7,384.1c0.2,0,0.3,0,0.4,0
				c0.1,0,0.2,0,0.2,0c0,0,0,0,0-0.1c0,0,0-0.1,0-0.1s0-0.1,0-0.1c0,0,0-0.1,0-0.1c0,0-0.1,0-0.3,0c-0.1,0-0.2,0-0.3,0
				c-0.1,0-0.3,0-0.3,0c-0.1,0-0.2,0-0.2,0c0,0,0,0.1,0,0.1l0,0.1l0,0.1c0,0,0,0.1,0,0.1c0,0,0.1,0,0.3,0
				C-255.8,384.1-255.7,384.1-255.7,384.1z"/>
		</g>
	</g>
</g>
</svg>
