<?xml version="1.0" encoding="utf-8"?>
<!-- Generator: Adobe Illustrator 19.0.0, SVG Export Plug-In . SVG Version: 6.00 Build 0)  -->
<svg version="1.1" id="Layer_1" xmlns="http://www.w3.org/2000/svg" xmlns:xlink="http://www.w3.org/1999/xlink" x="0px" y="0px"
	 viewBox="-269 374 72 46" style="enable-background:new -269 374 72 46;" xml:space="preserve">
<style type="text/css">
	.st0{clip-path:url(#SVGID_2_);}
	.st1{fill:#E40520;}
	.st2{fill:#FFFFFF;}
</style>
<g>
	<defs>
		<path id="SVGID_1_" d="M-204,420H-262c-3.8,0-7-3.1-7-7V381c0-3.8,3.1-7,7-7h58.1c3.8,0,7,3.1,7,7V413
			C-197,416.9-200.1,420-204,420z"/>
	</defs>
	<clipPath id="SVGID_2_">
		<use xlink:href="#SVGID_1_"  style="overflow:visible;"/>
	</clipPath>
	<g class="st0">
		<g>
			<polygon class="st1" points="-193.8,422.1 -193.8,369.9 -272.2,369.9 -272.2,422.1 			"/>
		</g>
		<g>
			<path d="M-193.7,422.3h-78.6v-52.5h78.6V422.3z M-272.1,422h78.1v-52h-78.1V422z"/>
		</g>
		<g>
			<polygon class="st2" points="-246.1,422.1 -246.1,369.9 -219.9,369.9 -219.9,422.1 			"/>
		</g>
		<g>
			<path d="M-219.8,422.3h-26.4v-52.5h26.4V422.3z M-245.9,422h25.9v-52h-25.9V422z"/>
		</g>
	</g>
</g>
</svg>
