<?xml version="1.0" encoding="utf-8"?>
<!-- Generator: Adobe Illustrator 19.0.0, SVG Export Plug-In . SVG Version: 6.00 Build 0)  -->
<svg version="1.1" id="Layer_1" xmlns="http://www.w3.org/2000/svg" xmlns:xlink="http://www.w3.org/1999/xlink" x="0px" y="0px"
	 viewBox="-269 374 72 46" style="enable-background:new -269 374 72 46;" xml:space="preserve">
<style type="text/css">
	.st0{clip-path:url(#SVGID_2_);}
	.st1{fill:#FFFFFF;}
	.st2{fill:#E30520;}
	.st3{fill:#004995;}
	.st4{fill:#5A4330;}
	.st5{fill:#F7AA0F;stroke:#000000;stroke-width:0.125;}
	.st6{fill:#F7AA0F;}
</style>
<g>
	<defs>
		<path id="SVGID_1_" d="M-204,420H-262c-3.8,0-7-3.1-7-7V381c0-3.8,3.1-7,7-7h58.1c3.8,0,7,3.1,7,7V413
			C-197,416.9-200.1,420-204,420z"/>
	</defs>
	<clipPath id="SVGID_2_">
		<use xlink:href="#SVGID_1_"  style="overflow:visible;"/>
	</clipPath>
	<g class="st0">
		<g>
			<rect x="-269.6" y="384.9" class="st1" width="73.3" height="24.4"/>
			<path d="M-196.3,409.4h-73.5v-24.7h73.5V409.4z M-269.5,409.1h73V385h-73V409.1z"/>
		</g>
		<g>
			<g>
				<rect x="-269.6" y="372.6" class="st2" width="73.3" height="12.2"/>
				<path d="M-196.3,385h-73.5v-12.5h73.5V385z M-269.5,384.7h73v-12h-73V384.7z"/>
			</g>
			<g>
				<rect x="-269.6" y="409.3" class="st2" width="73.3" height="12.2"/>
				<path d="M-196.3,421.6h-73.5v-12.5h73.5V421.6z M-269.5,421.4h73v-12h-73V421.4z"/>
			</g>
		</g>
		<g>
			<g>
				<g>
					<path class="st3" d="M-235.6,399.4l-0.9,0.8c0.8,0.2,2,0,2.4-0.8H-235.6z"/>
				</g>
				<g>
					<path class="st3" d="M-243.1,399.9c0.6,0.6,1.6,0.5,2.3,0.2c0.6-0.4,1.1-0.4,1.5-0.4c0,0.3,0.1,0.8,0.3,1.2h-3.7
						C-242.9,400.7-243.1,400.2-243.1,399.9z"/>
				</g>
				<g>
					<path class="st3" d="M-242.5,401.6c0.7-0.3,1.5-0.1,1.8,0.2c0.6,0.4,1.6,0.3,2,0.1c0.2,0.3,0.4,0.6,0.7,0.8h-3.9
						C-242.1,402.3-242.5,401.7-242.5,401.6z"/>
				</g>
				<g>
					<path class="st3" d="M-225.3,404.2c0.2-0.2,0.4-0.5,0.6-0.7c-0.3,0-0.5-0.2-0.9-0.4c-0.6-0.3-1.1-0.3-1.6,0.1
						c-0.7,0.5-1.6,0.6-2.3,0.1c-0.8-0.5-1.5-0.4-2.1-0.1c-0.6,0.3-1,0.4-1.4,0.4s-0.7,0-1.4-0.4c-0.6-0.3-1.3-0.5-2.1,0.1
						c-0.7,0.5-1.6,0.4-2.3-0.1c-0.5-0.3-1-0.3-1.6-0.1c-0.3,0.2-0.6,0.3-0.9,0.4c0.2,0.2,0.4,0.5,0.6,0.7H-225.3z"/>
				</g>
				<g>
					<path class="st3" d="M-227.2,405.8c0.2-0.1,0.6-0.4,0.8-0.6c-0.2,0.1-0.8-0.1-1.1-0.3c-0.8-0.4-1.4-0.4-2-0.1
						c-0.6,0.3-1.5,0.5-2.1,0.2c-0.6-0.3-1.1-0.4-1.4-0.4s-0.8,0.1-1.4,0.4c-0.6,0.3-1.5,0.2-2.1-0.2c-0.6-0.3-1.2-0.4-2,0.1
						c-0.3,0.1-0.8,0.3-1.1,0.3c0.2,0.2,0.7,0.5,0.8,0.6H-227.2z"/>
				</g>
				<g>
					<path class="st3" d="M-231,402.6c-0.2-0.1-0.4-0.3-0.6-0.6c-0.3-0.4-0.8-0.7-1.5-0.7s-1.2,0.2-1.5,0.7
						c-0.2,0.3-0.4,0.5-0.6,0.6C-235,402.6-231,402.6-231,402.6z"/>
				</g>
				<g>
					<path class="st3" d="M-232.1,401c-0.1-0.1-0.2-0.5-0.3-0.7c-0.2,0.1-0.5,0.1-0.7,0.1s-0.5,0-0.7-0.1c-0.1,0.2-0.2,0.6-0.3,0.7
						H-232.1L-232.1,401z"/>
				</g>
				<g>
					<path class="st3" d="M-230.4,399.4l0.9,0.8c-0.8,0.2-2,0-2.4-0.8H-230.4z"/>
				</g>
				<g>
					<path class="st3" d="M-222.9,399.9c-0.6,0.6-1.6,0.5-2.3,0.2c-0.6-0.4-1.1-0.4-1.5-0.4c0,0.3-0.1,0.8-0.3,1.2h3.7
						C-223.1,400.7-222.9,400.2-222.9,399.9z"/>
				</g>
				<g>
					<path class="st3" d="M-223.5,401.6c-0.7-0.3-1.5-0.1-1.8,0.2c-0.6,0.4-1.6,0.3-2,0.1c-0.2,0.3-0.4,0.6-0.7,0.8h3.9
						C-223.9,402.3-223.5,401.7-223.5,401.6z"/>
				</g>
				<g>
					<path class="st3" d="M-229,406.8c-1.2,0.5-2.6,0.8-4,0.8c-1.4,0-2.7-0.3-4-0.8c0.3,0,0.6-0.2,0.9-0.3c0.5-0.3,1.3-0.3,1.7-0.1
						c0.4,0.3,0.9,0.5,1.4,0.5s1-0.3,1.4-0.5c0.4-0.3,1.2-0.2,1.7,0.1C-229.6,406.7-229.3,406.8-229,406.8"/>
				</g>
			</g>
			<g>
				<g>
					<path class="st4" d="M-230.9,386.7c-2.2-0.5-4.2-0.2-4.2,1.9c0,2,0,5.1,0,5.7c0,0.6,0,0.7,0.8,0.9c1.6,0.4,1.8,0.4,3.5,0.8
						v-5.9c-1.4-0.2-1.9-0.9-1.9-1.8C-232.8,387.5-232.2,386.9-230.9,386.7z"/>
				</g>
				<g>
					<path class="st4" d="M-236.4,402.7c-1.2,0-2.5-1.1-2.5-3.1s0-4.6,0-5.1c0-0.5,0.1-0.5-0.1-0.6c-0.1-0.1,0.1-0.2,0.2-0.2
						c0.1-0.1,0.2-0.3,0-0.4s-0.1-0.2,0-0.3c0.1-0.1,0.2-0.2,0.1-0.3c-0.1-0.1-0.1-0.1,0-0.3c0.1-0.1,0.1-0.2,0-0.3
						c-0.1-0.1-0.1-0.2,0-0.3c0.1-0.1,0.1-0.1,0.3-0.1s0.5,0,0.6,0c0.1,0,0.1,0,0,0.2c-0.2,0.2-0.2,0.2,0,0.4
						c0.2,0.2,0.2,0.2,0.1,0.3c-0.2,0.2-0.2,0.3-0.1,0.5c0.2,0.2,0.2,0.2,0.1,0.4c-0.1,0.1-0.1,0.2,0,0.4c0.1,0.1,0.1,0.2,0.1,0.4
						c0,1.2,0,4.3,0,5.2c0,0.9,0.6,1.4,1.8,1.4c1.2,0,1.6-0.5,1.9-0.8C-234.2,401.3-234.9,402.7-236.4,402.7z"/>
				</g>
				<g>
					<path class="st4" d="M-233,397.7c0.2,0.1,0.3,0.3,0.3,0.6h0.3c0-0.2-0.1-0.6-0.3-0.8c0-0.1,0-0.1,0-0.2
						c0.1-0.2,0.3-0.4,0.3-0.6c0-0.1-0.2-0.1-0.2,0c0,0.1-0.1,0.2-0.2,0.3c0-0.2-0.1-0.4-0.3-0.4s-0.3,0.2-0.3,0.4
						c-0.1-0.1-0.2-0.2-0.2-0.3c0-0.1-0.2-0.1-0.2,0c0,0.2,0.2,0.5,0.3,0.6c0,0,0,0.1,0,0.2c-0.2,0.2-0.3,0.6-0.3,0.8h0.3
						C-233.3,398-233.2,397.8-233,397.7z"/>
				</g>
				<g>
					<path class="st4" d="M-234.7,397.7c0.2,0.1,0.3,0.3,0.3,0.6h0.3c0-0.2-0.1-0.6-0.3-0.8c0-0.1,0-0.1,0-0.2
						c0.1-0.2,0.3-0.4,0.3-0.6c0-0.1-0.2-0.1-0.2,0c0,0.1-0.1,0.2-0.2,0.3c0-0.2-0.1-0.4-0.3-0.4c-0.2,0-0.3,0.2-0.3,0.4
						c-0.1-0.1-0.2-0.2-0.2-0.3c0-0.1-0.2-0.1-0.2,0c0,0.2,0.2,0.5,0.3,0.6c0,0,0,0.1,0,0.2c-0.2,0.2-0.3,0.6-0.3,0.8h0.3
						C-235,398-234.9,397.8-234.7,397.7z"/>
				</g>
				<g>
					<path class="st4" d="M-236.4,397.7c0.2,0.1,0.3,0.3,0.3,0.6h0.3c0-0.2-0.1-0.6-0.3-0.8c0-0.1,0-0.1,0-0.2
						c0.1-0.2,0.3-0.4,0.3-0.6c0-0.1-0.2-0.1-0.2,0c0,0.1-0.1,0.2-0.2,0.3c0-0.2-0.1-0.4-0.3-0.4c-0.2,0-0.3,0.2-0.3,0.4
						c-0.1-0.1-0.2-0.2-0.2-0.3c0-0.1-0.2-0.1-0.2,0c0,0.2,0.2,0.5,0.3,0.6c0,0,0,0.1,0,0.2c-0.2,0.2-0.3,0.6-0.3,0.8h0.3
						C-236.7,398-236.6,397.8-236.4,397.7z"/>
				</g>
				<g>
					<path class="st4" d="M-231.3,397.7c-0.2,0.1-0.3,0.3-0.3,0.6h-0.3c0-0.2,0.1-0.6,0.3-0.8c0-0.1,0-0.1,0-0.2
						c-0.1-0.2-0.3-0.4-0.3-0.6c0-0.1,0.2-0.1,0.2,0c0,0.1,0.1,0.2,0.2,0.3c0-0.2,0.1-0.4,0.3-0.4c0.2,0,0.3,0.2,0.3,0.4
						c0.1-0.1,0.2-0.2,0.2-0.3c0-0.1,0.2-0.1,0.2,0c0,0.2-0.2,0.5-0.3,0.6c0,0,0,0.1,0,0.2c0.2,0.2,0.3,0.6,0.3,0.8h-0.3
						C-231,398-231.1,397.8-231.3,397.7z"/>
				</g>
				<g>
					<path class="st4" d="M-229.6,397.7c-0.2,0.1-0.3,0.3-0.3,0.6h-0.3c0-0.2,0.1-0.6,0.3-0.8c0-0.1,0-0.1,0-0.2
						c-0.1-0.2-0.3-0.4-0.3-0.6c0-0.1,0.2-0.1,0.2,0c0,0.1,0.1,0.2,0.2,0.3c0-0.2,0.1-0.4,0.3-0.4c0.2,0,0.3,0.2,0.3,0.4
						c0.1-0.1,0.2-0.2,0.2-0.3c0-0.1,0.2-0.1,0.2,0c0,0.2-0.2,0.5-0.3,0.6c0,0,0,0.1,0,0.2c0.2,0.2,0.3,0.6,0.3,0.8h-0.3
						C-229.3,398-229.4,397.8-229.6,397.7z"/>
				</g>
				<g>
					<rect x="-237.5" y="398.7" class="st4" width="8.9" height="0.4"/>
				</g>
				<g>
					<path class="st4" d="M-229.6,402.7c1.2,0,2.5-1.1,2.5-3.1s0-4.6,0-5.1c0-0.5-0.1-0.5,0.1-0.6c0.1-0.1-0.1-0.2-0.2-0.2
						c-0.1-0.1-0.2-0.3,0-0.4s0.1-0.2,0-0.3c-0.1-0.1-0.2-0.2-0.1-0.3c0.1-0.1,0.1-0.1,0-0.3c-0.1-0.1-0.1-0.2,0-0.3
						c0.1-0.1,0.1-0.2,0-0.3c-0.1-0.1-0.1-0.1-0.3-0.1c-0.1,0-0.5,0-0.6,0c-0.1,0-0.1,0,0,0.2c0.2,0.2,0.2,0.2,0,0.4
						c-0.2,0.2-0.2,0.2-0.1,0.3c0.2,0.2,0.2,0.3,0.1,0.5c-0.2,0.2-0.2,0.2-0.1,0.4c0.1,0.1,0.1,0.2,0,0.4c-0.1,0.1-0.1,0.2-0.1,0.4
						c0,1.2,0,4.3,0,5.2c0,0.9-0.6,1.4-1.8,1.4s-1.6-0.5-1.9-0.8C-231.8,401.3-231.1,402.7-229.6,402.7z"/>
				</g>
			</g>
			<g>
				<g>
					<path class="st5" d="M-233,397.1"/>
				</g>
				<g>
					<path class="st6" d="M-237.4,396c0,0,0-0.3,0-0.7l1.8,0.7L-237.4,396"/>
					<path d="M-235.6,396.1l-1.8,0l0-0.8l1.9,0.7L-235.6,396.1z M-237.3,395.9l1.4,0l-1.4-0.5L-237.3,395.9z"/>
				</g>
				<g>
					<path class="st6" d="M-239.5,396.2l-4-0.5c0.1-0.9,0.3-1.7,0.6-2.5l3.3,1.3C-239.5,394.5-239.5,396.2-239.5,396.2z"/>
					<path d="M-239.4,396.3L-239.4,396.3l-4.1-0.6l0-0.1c0.1-0.9,0.3-1.7,0.7-2.5l0-0.1l3.4,1.4V396.3z M-243.4,395.6l3.8,0.5v-1.6
						l-3.2-1.3C-243,394-243.3,394.8-243.4,395.6z"/>
				</g>
				<g>
					<path class="st6" d="M-231.2,389.7l0.7-2.9c0.8,0.2,1.6,0.5,2.4,0.9l-2.3,4.4l0-2.2C-230.7,389.9-231.1,389.9-231.2,389.7z"/>
					<path d="M-230.3,392.1l-0.1,0l0-2.1c-0.3,0-0.6-0.1-0.8-0.2l0,0l0,0l0.7-3l0.1,0c0.8,0.2,1.6,0.5,2.4,0.9l0.1,0l0,0.1
						L-230.3,392.1z M-230.3,389.8l0,2l2.1-4.1c-0.7-0.4-1.5-0.7-2.3-0.9l-0.7,2.8C-231,389.8-230.7,389.8-230.3,389.8
						C-230.4,389.8-230.4,389.8-230.3,389.8L-230.3,389.8z"/>
				</g>
				<g>
					<path class="st6" d="M-239.5,396.7l-4.1-0.2c-0.1,0.9,0,1.7,0.2,2.6c0,0,3.9,0,3.9,0C-239.5,399-239.5,396.7-239.5,396.7z"/>
					<path d="M-240.6,399.1c-0.6,0-1.5,0-2.8,0h-0.1l0-0.1c-0.2-0.8-0.2-1.7-0.2-2.6l0-0.1l4.2,0.3v2.4l0,0
						C-239.4,399-239.4,399.1-240.6,399.1z M-243.3,398.9c1.4,0,3.4,0,3.8,0v-2.2l-3.9-0.2C-243.5,397.3-243.4,398.1-243.3,398.9z"
						/>
				</g>
				<g>
					<path class="st6" d="M-239.5,393.9c-0.1-0.2-0.1-0.3,0.1-0.4c0.1-0.1,0.1-0.2,0.1-0.3c-0.1-0.1-0.1-0.3,0-0.4
						c0.1-0.1,0.1-0.2,0-0.3c-0.1-0.1-0.1-0.2,0-0.3c0.1-0.1,0.1-0.1,0-0.2c-0.1-0.1-0.2-0.2-0.1-0.4l-1.7-1.4
						c-0.5,0.7-1,1.4-1.4,2.1L-239.5,393.9z"/>
					<path d="M-239.5,394l-3.1-1.5l0-0.1c0.4-0.8,0.8-1.5,1.4-2.2l0,0l1.8,1.5l0,0c-0.1,0.1,0,0.2,0.1,0.3c0.1,0.1,0.1,0.2,0,0.3
						c0,0,0,0.1,0,0.1c0,0,0,0.1,0.1,0.1c0.1,0.1,0.2,0.2,0,0.4c-0.1,0.1-0.1,0.2,0,0.3c0.1,0.1,0.1,0.3-0.1,0.4
						c-0.1,0.1-0.1,0.1-0.1,0.1C-239.5,393.8-239.4,393.8-239.5,394L-239.5,394z M-242.4,392.4l2.8,1.4c0,0,0,0,0-0.1
						c0-0.1,0.1-0.2,0.2-0.2c0.1-0.1,0.1-0.1,0-0.2c-0.1-0.1-0.2-0.3,0-0.5c0.1-0.1,0.1-0.1,0-0.2c-0.1-0.1-0.1-0.1-0.1-0.2
						c0-0.1,0-0.1,0.1-0.2c0.1,0,0.1-0.1,0-0.1c-0.1-0.1-0.2-0.2-0.1-0.4l-1.6-1.3C-241.6,391-242,391.7-242.4,392.4z"/>
				</g>
				<g>
					<path class="st6" d="M-235.6,394.5l-2-1.9c0.3-0.3,0.3-0.3,0.1-0.5c-0.2-0.2-0.2-0.2,0.2-0.7c0.1-0.1,0.1-0.3-0.1-0.3
						c-0.2,0-1.2,0-1.3,0c-0.1,0-0.2,0-0.3,0.1l-1.6-1.5c0.6-0.6,1.3-1.2,2-1.6l3,4.7C-235.6,392.9-235.6,394.5-235.6,394.5z"/>
					<path d="M-235.5,394.7l-2.1-2.1l0,0c0.3-0.3,0.3-0.3,0.1-0.4c-0.1-0.1-0.2-0.2-0.2-0.3c0-0.1,0.1-0.2,0.4-0.4
						c0,0,0.1-0.1,0.1-0.1c0,0,0,0-0.2,0h-1.3c-0.1,0-0.2,0-0.2,0.1l0,0l0,0l-1.6-1.6l0,0c0.6-0.6,1.3-1.2,2-1.6l0.1,0l0,0.1l3,4.8
						V394.7z M-237.5,392.6l1.8,1.8v-1.5l-2.9-4.7c-0.7,0.4-1.3,0.9-1.9,1.5l1.5,1.4c0.1-0.1,0.2-0.1,0.3-0.1h1.3
						c0.1,0,0.2,0,0.3,0.1c0,0,0,0.1-0.1,0.2c-0.4,0.4-0.4,0.4-0.2,0.6c0.1,0.1,0.2,0.2,0.1,0.3
						C-237.3,392.4-237.4,392.5-237.5,392.6z"/>
				</g>
				<g>
					<path class="st6" d="M-237.4,394.9c0-0.5,0-0.9,0-1c0-0.1,0-0.2-0.1-0.3c-0.1-0.1-0.1-0.2,0-0.3l1.9,1.6v0.9L-237.4,394.9z"/>
					<path d="M-235.5,395.9l-1.9-0.9v-1.1c0-0.1,0-0.2-0.1-0.3c-0.1-0.1-0.1-0.2,0-0.3l0.1-0.1l1.9,1.6V395.9z M-237.3,394.9
						l1.7,0.8v-0.8l-1.8-1.5c-0.1,0.1-0.1,0.1,0,0.2c0.1,0.1,0.1,0.2,0.1,0.4V394.9z"/>
				</g>
				<g>
					<path class="st6" d="M-235.6,392.1c0-0.9,0-1.8,0-2.2c0-1.5,0.1-2.2,0.3-2.3l-0.2-0.7c-0.8,0.2-1.6,0.5-2.4,0.9L-235.6,392.1z"
						/>
					<path d="M-235.7,392.1l-2.3-4.4l0.1,0c0.7-0.4,1.5-0.7,2.4-0.9l0.1,0l0.2,0.8l0,0c-0.2,0.2-0.3,1.4-0.3,2.3v2.2L-235.7,392.1z
						 M-237.8,387.8l2.1,4.1v-2c0-1.5,0.1-2.2,0.3-2.4l-0.1-0.6C-236.3,387.1-237.1,387.4-237.8,387.8z"/>
				</g>
				<g>
					<path class="st6" d="M-228.6,396c0,0,0-0.3,0-0.7l-1.8,0.7L-228.6,396"/>
					<path d="M-230.4,396.1l0-0.1l1.9-0.7v0.8L-230.4,396.1z M-228.7,395.4l-1.4,0.5l1.4,0V395.4z"/>
				</g>
				<g>
					<path class="st6" d="M-226.5,396.2l4-0.5c-0.1-0.9-0.3-1.7-0.6-2.5l-3.3,1.3C-226.5,394.5-226.5,396.2-226.5,396.2z"/>
					<path d="M-226.6,396.3v-1.8l0,0l3.4-1.3l0,0.1c0.3,0.8,0.5,1.6,0.7,2.5l0,0.1L-226.6,396.3z M-226.5,394.5v1.6l3.8-0.5
						c-0.1-0.8-0.3-1.6-0.6-2.3L-226.5,394.5z"/>
				</g>
				<g>
					<path class="st6" d="M-226.5,396.7l4.1-0.2c0.1,0.9,0,1.7-0.2,2.6c0,0-3.9,0-3.9,0V396.7z"/>
					<path d="M-225.4,399.1c-1.1,0-1.2,0-1.2,0l0,0v-2.4l0.1,0l4.1-0.3l0,0.1c0.1,0.9,0,1.7-0.2,2.6l0,0.1h-0.1
						C-224,399-224.8,399.1-225.4,399.1z M-226.5,398.9c0.4,0,2.4,0,3.8,0c0.1-0.8,0.2-1.6,0.1-2.4l-3.9,0.2V398.9z"/>
				</g>
				<g>
					<path class="st6" d="M-226.5,393.9c0.1-0.2,0.1-0.3-0.1-0.4c-0.1-0.1-0.1-0.2-0.1-0.3c0.1-0.1,0.1-0.3,0-0.4
						c-0.1-0.1-0.1-0.2,0-0.3c0.1-0.1,0.1-0.2,0-0.3c-0.1-0.1-0.1-0.1,0-0.2c0.1-0.1,0.2-0.2,0.1-0.4l1.7-1.4c0.5,0.7,1,1.4,1.4,2.1
						L-226.5,393.9z"/>
					<path d="M-226.5,394L-226.5,394c0-0.1,0-0.2,0-0.2c0,0,0-0.1-0.1-0.1c-0.2-0.1-0.1-0.2-0.1-0.4c0.1-0.1,0.1-0.2,0-0.3
						c-0.2-0.2-0.1-0.3,0-0.4c0,0,0.1-0.1,0.1-0.1c0,0,0-0.1,0-0.1c-0.1-0.1-0.1-0.2,0-0.3c0.1-0.1,0.1-0.2,0.1-0.3l0,0l1.8-1.5l0,0
						c0.6,0.7,1,1.4,1.4,2.2l0,0.1L-226.5,394z M-226.5,391.7c0.1,0.1-0.1,0.3-0.1,0.4c-0.1,0.1-0.1,0.1,0,0.1
						c0.1,0,0.1,0.1,0.1,0.2c0,0.1,0,0.1-0.1,0.2c-0.1,0.1-0.1,0.1,0,0.2c0.2,0.2,0.1,0.4,0,0.5c-0.1,0.1-0.1,0.1,0,0.2
						c0.1,0.1,0.2,0.1,0.2,0.2c0,0,0,0,0,0.1l2.8-1.4c-0.4-0.7-0.8-1.4-1.3-2L-226.5,391.7z"/>
				</g>
				<g>
					<path class="st6" d="M-230.4,394.5l2-1.9c-0.3-0.3-0.3-0.3-0.1-0.5c0.2-0.2,0.2-0.2-0.2-0.7c-0.1-0.1-0.1-0.3,0.1-0.3
						c0.2,0,1.2,0,1.3,0c0.1,0,0.2,0,0.3,0.1l1.6-1.5c-0.6-0.6-1.3-1.2-2-1.6l-3,4.7C-230.4,392.9-230.4,394.5-230.4,394.5z"/>
					<path d="M-230.5,394.7v-1.8l0,0l3-4.8l0.1,0c0.7,0.5,1.4,1,2,1.6l0,0l-1.7,1.6l0,0c-0.1-0.1-0.1-0.1-0.2-0.1h-1.3
						c-0.1,0-0.2,0-0.2,0c0,0,0,0.1,0.1,0.1c0.4,0.4,0.5,0.5,0.2,0.8c-0.1,0.1-0.1,0.1-0.1,0.2c0,0.1,0.1,0.1,0.2,0.3l0,0l0,0
						L-230.5,394.7z M-230.3,392.9v1.5l1.8-1.8c-0.1-0.1-0.2-0.2-0.2-0.3c0-0.1,0-0.2,0.1-0.3c0.2-0.2,0.2-0.2-0.2-0.6
						c-0.1-0.1-0.1-0.2-0.1-0.2c0-0.1,0.1-0.1,0.3-0.1h1.3c0.1,0,0.2,0,0.3,0.1l1.5-1.4c-0.6-0.6-1.2-1.1-1.9-1.5L-230.3,392.9z"/>
				</g>
				<g>
					<path class="st6" d="M-228.6,394.9c0-0.5,0-0.9,0-1c0-0.1,0-0.2,0.1-0.3c0.1-0.1,0.1-0.2,0-0.3l-1.9,1.6v0.9L-228.6,394.9z"/>
					<path d="M-230.5,395.9v-1l0,0l1.9-1.6l0.1,0.1c0.1,0.1,0.1,0.2,0,0.3c-0.1,0.1-0.1,0.1-0.1,0.3l0,1.1L-230.5,395.9z
						 M-230.3,394.9v0.8l1.7-0.8l0-1c0-0.2,0-0.2,0.1-0.4c0.1-0.1,0.1-0.1,0-0.2L-230.3,394.9z"/>
				</g>
			</g>
			<g>
				<g>
					<path class="st2" d="M-238.7,393.9c0.1,0.1,0.1,0.1,0.1,0.3c0,0.2,0,3.9,0,5.4c0,1.8,1.1,2.8,2.2,2.8c1,0,1.7-0.9,2.1-2
						c-0.5,0.4-1.1,0.5-1.8,0.5c-0.7,0-1.9-0.5-1.9-1.6c0-1,0-4.7,0-5.2C-238,393.9-238.2,393.9-238.7,393.9z"/>
				</g>
				<g>
					<path class="st2" d="M-232.1,386.8c-1.4-0.1-2.7,0.2-2.7,2.1c0,2,0,4.5,0,5.1c0,0.9-0.1,0.8,0.7,0.9c1.3,0.3,1.5,0.4,3.1,0.7
						v-5.2c-1.4-0.1-1.9-1-1.9-2C-233.1,387.7-232.7,386.9-232.1,386.8z"/>
				</g>
				<g>
					<path class="st2" d="M-227.3,393.9c-0.1,0.1-0.1,0.1-0.1,0.3c0,0.2,0,3.9,0,5.4c0,1.8-1.1,2.8-2.2,2.8c-1,0-1.7-0.9-2.1-2
						c0.5,0.4,1.1,0.5,1.8,0.5c0.7,0,1.9-0.5,1.9-1.6c0-1,0-4.7,0-5.2C-228,393.9-227.8,393.9-227.3,393.9z"/>
				</g>
			</g>
		</g>
	</g>
</g>
</svg>
