<?xml version="1.0" encoding="utf-8"?>
<!-- Generator: Adobe Illustrator 19.0.0, SVG Export Plug-In . SVG Version: 6.00 Build 0)  -->
<svg version="1.1" id="Layer_1" xmlns="http://www.w3.org/2000/svg" xmlns:xlink="http://www.w3.org/1999/xlink" x="0px" y="0px"
	 viewBox="-269 374 72 46" style="enable-background:new -269 374 72 46;" xml:space="preserve">
<style type="text/css">
	.st0{clip-path:url(#SVGID_2_);}
	.st1{fill:#CE1126;}
	.st2{fill:#FCD116;}
	.st3{fill:#FFFFFF;}
</style>
<g>
	<defs>
		<path id="SVGID_1_" d="M-204,420H-262c-3.8,0-7-3.1-7-7V381c0-3.8,3.1-7,7-7h58.1c3.8,0,7,3.1,7,7V413
			C-197,416.9-200.1,420-204,420z"/>
	</defs>
	<clipPath id="SVGID_2_">
		<use xlink:href="#SVGID_1_"  style="overflow:visible;"/>
	</clipPath>
	<g class="st0">
		<rect id="rect3372" x="-269.4" y="369.7" width="72.9" height="54.7"/>
		<path id="path4249" class="st1" d="M-269.4,369.7h72.9v54.7L-269.4,369.7z"/>
		<path id="path3348" class="st2" d="M-224.3,385.5c-0.5,0.7-1.8-0.7-3.3-0.7c-1.5,0-2.6,1.5-3.1,2c-0.4,0.5-1.9,3.2-1.8,3.5
			c0,0.3,0.9-0.8,1.2-1c0,0.4-0.3,0.8-0.3,1s1.1-0.8,1.5-0.8c0.1,0.3-0.2,0.5-0.1,0.9c0.1,0.1,0.7-0.6,1.1-0.8
			c0.1,0.3-0.3,0.8-0.1,1.2c0.2,0,1.1-1.1,1.4-1.2c0.3-0.1-0.2,1,0,1.1c0.3-0.2,1.2-1.2,1.5-1.3c0.3-0.1,0,1.3,0.1,1.3
			c0.3-0.3,1.2-1.5,1.3-1.7c0.1-0.2-0.1,1.8,0.9,2.9c1,1.1,2.5,2.3,2.6,2.3c0.2-0.3-0.1-1.1,0.1-1c0.4,0.5,1.3,1.2,1.5,1.2
			c0.2,0-0.1-0.8,0.1-0.8c0.5,0.5,2,2.4,4.8,3.2c-0.2-0.5-0.6-1-0.6-1.3c0.2,0,0.9,0.3,1,0.3c0.1,0-1.4-1.9-1.3-2.2
			c0.3,0,0.5,0.2,0.6,0c-0.2-0.3-1.5-1.7-1.5-2.1c0-0.3,0.4,0.1,0.5,0c0.1-0.1-0.5-1.4-0.4-1.6c0.1-0.2,1.5,0.9,1.9,0.9
			c0.3,0,0.1-1.2,0.3-1.3c0.2-0.1,1.3,0.7,1.6,0.7c0.3,0,0.2-0.5,0.3-0.5c0.1,0.1,2.9,2.8,1.9,6.1c-1,2.3-2.9,3.6-5.7,2.5
			c0.2,0.3,1.7,1.5,3.3,1c1.6-0.4,3.6-1.7,3.4-4.9c-0.2-3.2-1.3-3.6-1.4-4.1c-0.2-0.5,0.3,0.1,0.6,0.3c0.3,0.1-0.1-0.7-0.2-1
			s1,0.7,1.3,0.8c0.3,0.1-0.7-2.6-1-2.8c-0.3-0.2,0.3,0.1,0.5,0.1c0.2,0.1-1.7-3-2.2-3c-0.4,0,0.3-0.2,0.6-0.2c0.2,0-2.2-2-2.6-2
			c-0.4,0,0.9-0.5,1-0.5c0.2,0-2.8-1.6-5.6,0c-0.2-0.1,1.3-1.1,1.3-1.6c0-0.1-0.5-0.3-0.5-0.5c0-0.1,0.8-0.5,0.8-0.8
			c-0.2-0.3-0.5-0.2-0.7-0.2c0-0.2,0.7-0.8,0.6-1.1c0-0.1-0.6-0.2-0.7-0.1c-0.1,0.1,0.3-0.7,0.3-0.9c-0.1-0.1-0.3,0-0.6,0
			c-0.2,0,0.8-1.4,0.6-1.6c-0.2-0.2-2.9,1.4-3.8,3.2c-1,1.8-0.2,3.2-0.3,3.8c-0.1,0.6-0.3,1.2-0.7,1.2c-0.4,0-1.4-0.6-1.7-1
			c-0.3-0.3-0.4-0.5-0.8-0.7c-0.4-0.1-1.5,0.3-1.8,0.3c-0.4,0-1.9-0.3-2-0.2c-0.1,0.1,1.5,0.7,1.8,0.9c0.3,0.2,0.4,0.4,0.6,0.6
			C-225.9,383.9-223.6,384.6-224.3,385.5z M-215,390c0.8,0.8,5.9,4.2,5.9,8.4s-3.8,4.1-4.8,3.9c1.2,1,5.8,0.8,5.8-3.9
			c0-4.2-5.9-8.4-6.7-8.8C-215.6,389.3-215.8,389.3-215,390z"/>
		<g id="use2390" transform="translate(87.582,-160)">
			<polygon id="polygon5131" class="st3" points="-242.9,396.5 -242.1,399.3 -239.3,399.3 -241.5,400.9 -240.7,403.6 -242.9,401.9 
				-245,403.5 -244.2,400.9 -246.4,399.3 -243.7,399.3 			"/>
		</g>
		<polygon id="polygon5131_1_" class="st3" points="-251.2,411.7 -250.4,414.4 -247.6,414.4 -249.8,416.1 -249,418.8 -251.2,417.1 
			-253.4,418.7 -252.6,416.1 -254.7,414.4 -252.1,414.4 		"/>
		<polygon id="polygon5133" class="st3" points="-247.5,405.9 -247.1,407.3 -245.7,407.3 -246.8,408.1 -246.4,409.4 -247.5,408.6 
			-248.5,409.4 -248.1,408.1 -249.2,407.3 -247.9,407.3 		"/>
		<g>
			<g id="use2392" transform="translate(-87.582,-104.504)">
				<polygon id="polygon5131_2_" class="st3" points="-251.2,386.6 -250.4,389.3 -247.6,389.3 -249.8,391 -249,393.7 -251.2,392 
					-253.4,393.6 -252.6,391 -254.7,389.3 -252.1,389.3 				"/>
			</g>
			<g>
				<g>
					<g id="use2394" transform="translate(-88,112.504)">
						<polygon id="polygon5131_3_" class="st3" points="-259.5,397.3 -258.7,400 -256,400 -258.2,401.7 -257.4,404.4 -259.5,402.7 
							-261.7,404.3 -260.9,401.7 -263.1,400 -260.4,400 						"/>
					</g>
				</g>
			</g>
		</g>
	</g>
</g>
</svg>
