<?xml version="1.0" encoding="utf-8"?>
<!-- Generator: Adobe Illustrator 19.0.0, SVG Export Plug-In . SVG Version: 6.00 Build 0)  -->
<svg version="1.1" id="Layer_1" xmlns="http://www.w3.org/2000/svg" xmlns:xlink="http://www.w3.org/1999/xlink" x="0px" y="0px"
	 viewBox="-269 374 72 46" style="enable-background:new -269 374 72 46;" xml:space="preserve">
<style type="text/css">
	.st0{clip-path:url(#SVGID_2_);}
	.st1{fill:#003361;}
	.st2{fill:#D32E3F;}
	.st3{fill:#FFFFFF;}
	.st4{fill:#FFD139;}
</style>
<g>
	<defs>
		<path id="SVGID_1_" d="M-204,420H-262c-3.8,0-7-3.1-7-7V381c0-3.8,3.1-7,7-7h58.1c3.8,0,7,3.1,7,7V413
			C-197,416.9-200.1,420-204,420z"/>
	</defs>
	<clipPath id="SVGID_2_">
		<use xlink:href="#SVGID_1_"  style="overflow:visible;"/>
	</clipPath>
	<g class="st0">
		<g>
			<polygon class="st1" points="-177.7,397 -270,397 -270,373.9 -177.7,373.9 			"/>
		</g>
		<g>
			<path d="M-177.5,397.1h-92.6v-23.3h92.6V397.1z M-269.9,396.9h92.1V374h-92.1V396.9z"/>
		</g>
		<g>
			<polygon class="st2" points="-177.7,420.1 -270,420.1 -270,397 -177.7,397 			"/>
		</g>
		<g>
			<path d="M-177.5,420.2h-92.6v-23.3h92.6V420.2z M-269.9,420h92.1v-22.8h-92.1V420z"/>
		</g>
		<g>
			<polygon class="st3" points="-270,373.9 -230.8,397 -270,420.1 			"/>
		</g>
		<g>
			<path d="M-269.9,420.2l-0.2-0.1v-46.2l0.2-0.1l39.2,23.1v0.2L-269.9,420.2z M-269.9,374.1v45.7L-231,397L-269.9,374.1z"/>
		</g>
		<g>
			<path class="st4" d="M-254.5,392.5c0.4,0.1,0.9,0.3,1.3,0.5l2.4-3l0.7,0.1l-2.7,3.2c0.1,0,0.2,0.2,0.3,0.2l3.3-3.5l0.6,0.1
				l0.1,0.6l-3.5,3.3c0.1,0.1,0.2,0.2,0.2,0.3l3.2-2.7l0.1,0.7l-3,2.4c0.2,0.4,0.4,0.8,0.5,1.3l3.8-0.5l0.4,0.6l-4.1,0.3
				c0,0.1,0,0.3,0,0.4l4.8-0.2l0.3,0.5l-0.3,0.5l-4.8-0.2c0,0.1,0,0.3,0,0.4l4.1,0.3l-0.4,0.6l-3.8-0.5c-0.1,0.4-0.3,0.9-0.5,1.2
				l3,2.4l-0.1,0.7l-3.2-2.7c0,0.1-0.2,0.2-0.2,0.3l3.5,3.3l-0.1,0.6l-0.6,0.1l-3.3-3.5c-0.1,0.1-0.2,0.2-0.3,0.2l2.7,3.2l-0.7,0.1
				l-2.4-3c-0.4,0.2-0.8,0.4-1.3,0.5l0.5,3.8l-0.6,0.4l-0.3-4.1c-0.1,0-0.3,0-0.4,0l0.2,4.8l-0.5,0.3l-0.5-0.3l0.2-4.8
				c-0.1,0-0.3,0-0.4,0l-0.3,4.1l-0.6-0.4l0.5-3.8c-0.4-0.1-0.9-0.3-1.3-0.5l-2.4,3l-0.7-0.1l2.7-3.2c-0.1,0-0.2-0.2-0.3-0.2
				l-3.3,3.5l-0.6-0.1l-0.1-0.6l3.5-3.3c-0.1-0.1-0.2-0.2-0.2-0.3l-3.2,2.7l-0.1-0.7l3-2.4c-0.2-0.4-0.4-0.8-0.5-1.3l-3.8,0.5
				l-0.4-0.6l4.1-0.3c0-0.1,0-0.3,0-0.4l-4.8,0.2l-0.3-0.5l0.3-0.5l4.8,0.2c0-0.1,0-0.3,0-0.4l-4.1-0.3l0.4-0.6l3.8,0.5
				c0.1-0.4,0.3-0.9,0.5-1.2l-3-2.4l0.1-0.7l3.2,2.7c0-0.1,0.2-0.2,0.2-0.3l-3.5-3.3l0.1-0.6l0.6-0.1l3.3,3.5
				c0.1-0.1,0.2-0.2,0.3-0.2l-2.7-3.2l0.7-0.1l2.4,3c0.4-0.2,0.8-0.4,1.3-0.5l-0.5-3.8l0.6-0.4l0.3,4.1c0.1,0,0.3,0,0.4,0l-0.2-4.8
				l0.5-0.3l0.5,0.3l-0.2,4.8c0.1,0,0.3,0,0.4,0l0.3-4.1l0.6,0.4L-254.5,392.5L-254.5,392.5z"/>
		</g>
		<g>
			<path d="M-255.7,406.8L-255.7,406.8l-0.5-0.3l0,0l0.2-4.8c-0.1,0-0.2,0-0.3,0l-0.3,4.2l-0.6-0.4l0,0l0.5-3.8
				c-0.4-0.1-0.8-0.3-1.2-0.5l-2.4,3l-0.8-0.2l0,0l2.7-3.1c-0.1,0-0.2-0.1-0.2-0.2l-3.3,3.5l0,0l-0.6-0.1l-0.1-0.6l0,0l3.5-3.3
				c-0.1-0.1-0.1-0.2-0.2-0.2l-3.2,2.7l-0.2-0.8l0,0l3-2.4c-0.2-0.4-0.4-0.8-0.5-1.2l-3.8,0.5l0,0l-0.4-0.6l0.1,0l4.1-0.3
				c0-0.1,0-0.2,0-0.3l-4.8,0.2l0,0l-0.3-0.5l0,0l0.3-0.5l0,0l4.8,0.2c0-0.1,0-0.2,0-0.3l-4.2-0.3l0.4-0.6l0,0l3.8,0.5
				c0.1-0.4,0.3-0.8,0.5-1.2l-3-2.4l0,0l0.1-0.7l3.2,2.7c0-0.1,0.1-0.2,0.2-0.2l-3.5-3.3l0,0l0.1-0.6l0.6-0.1l0,0l3.3,3.5
				c0.1-0.1,0.2-0.1,0.2-0.2l-2.7-3.2l0.8-0.2l0,0l2.4,3c0.4-0.2,0.8-0.4,1.2-0.5l-0.5-3.8l0.6-0.4l0,0.1l0.3,4.1c0.1,0,0.2,0,0.3,0
				l-0.2-4.8l0,0l0.5-0.3l0,0l0.5,0.3l0,0l-0.2,4.8c0.1,0,0.2,0,0.3,0l0.3-4.2l0,0l0.6,0.4l0,0l-0.5,3.8c0.4,0.1,0.8,0.3,1.2,0.5
				l2.4-3l0,0l0.7,0.1l-2.7,3.2c0.1,0,0.2,0.1,0.2,0.2l3.3-3.5l0,0l0.6,0.1l0.1,0.6l0,0l-3.5,3.3c0.1,0.1,0.1,0.2,0.2,0.2l3.2-2.7
				l0.2,0.8l0,0l-3,2.4c0.2,0.4,0.4,0.8,0.5,1.2l3.8-0.5l0,0l0.4,0.6l-0.1,0l-4.1,0.3c0,0.1,0,0.2,0,0.3l4.8-0.2l0,0l0.3,0.5l0,0
				l-0.3,0.5l0,0l-4.8-0.2c0,0.1,0,0.2,0,0.3l4.2,0.3l-0.4,0.6l0,0l-3.8-0.5c-0.1,0.4-0.3,0.8-0.5,1.2l3,2.4l0,0l-0.1,0.7l0,0
				l-3.1-2.7c0,0.1-0.1,0.2-0.2,0.2l3.5,3.3l0,0l-0.1,0.6l-0.6,0.1l0,0l-3.3-3.5c-0.1,0.1-0.2,0.1-0.2,0.2l2.7,3.2l-0.1,0l-0.7,0.1
				l0,0l-2.4-3c-0.4,0.2-0.8,0.4-1.2,0.5l0.5,3.8l-0.6,0.4l0-0.1l-0.3-4.1c-0.1,0-0.2,0-0.3,0l0.2,4.8l0,0L-255.7,406.8z
				 M-256.1,406.4l0.4,0.3l0.4-0.3l-0.2-4.8l0,0c0.1,0,0.3,0,0.4,0l0,0l0,0l0.3,4.1l0.5-0.3l-0.5-3.8l0,0c0.4-0.1,0.8-0.3,1.2-0.5
				l0,0l0,0l2.4,3l0.6-0.1l-2.7-3.1l0,0c0.1,0,0.2-0.2,0.3-0.2l0,0l0,0l3.3,3.5l0.5-0.1l0.1-0.5l-3.5-3.3l0,0
				c0.1-0.1,0.2-0.2,0.2-0.3l0,0l0,0l3.1,2.7l0.1-0.6l-3-2.4l0,0c0.2-0.4,0.4-0.8,0.5-1.2l0,0l0,0l3.8,0.5l0.3-0.5l-4.1-0.3l0,0
				c0-0.1,0-0.3,0-0.4l0,0l4.8,0.2l0.3-0.4l-0.3-0.4l-4.8,0.2l0,0c0-0.1,0-0.3,0-0.4l0,0l0,0l4.1-0.3l-0.3-0.5l-3.8,0.5l0,0
				c-0.1-0.4-0.3-0.8-0.5-1.2l0,0l0,0l3-2.4l-0.1-0.6l-3.1,2.7l0,0c0-0.1-0.2-0.2-0.2-0.3l0,0l0,0l3.5-3.3l-0.1-0.5l-0.5-0.1
				l-3.3,3.5l0,0c-0.1-0.1-0.2-0.2-0.3-0.2l0,0l0,0l2.7-3.1l-0.6-0.1l-2.4,3l0,0c-0.4-0.2-0.8-0.4-1.2-0.5l0,0l0,0l0.5-3.8l-0.5-0.3
				l-0.3,4.1l0,0c-0.1,0-0.3,0-0.4,0l0,0l0.2-4.8l-0.4-0.3l-0.4,0.3l0.2,4.8l0,0c-0.1,0-0.3,0-0.4,0l0,0l0,0l-0.3-4.1l-0.5,0.3
				l0.5,3.8l0,0c-0.4,0.1-0.8,0.3-1.2,0.5l0,0l0,0l-2.4-3l-0.6,0.1l2.7,3.1l0,0c-0.1,0-0.2,0.2-0.3,0.2l0,0l0,0l-3.3-3.5l-0.5,0.1
				l-0.1,0.5l3.5,3.3l0,0c-0.1,0.1-0.2,0.2-0.2,0.3l0,0l0,0l-3.1-2.7l-0.1,0.6l3,2.4l0,0c-0.2,0.4-0.4,0.8-0.5,1.2l0,0l0,0l-3.8-0.5
				l-0.3,0.5l4.1,0.3l0,0c0,0.1,0,0.3,0,0.4l0,0l-4.8-0.2l-0.3,0.4l0.3,0.4l4.8-0.2l0,0c0,0.1,0,0.3,0,0.4l0,0l0,0l-4.1,0.3l0.3,0.5
				l3.8-0.5l0,0c0.1,0.4,0.3,0.8,0.5,1.2l0,0l0,0l-3,2.4l0.1,0.6l3.1-2.7l0,0c0,0.1,0.2,0.2,0.2,0.3l0,0l0,0l-3.5,3.3l0.1,0.5
				l0.5,0.1l3.3-3.5l0,0c0.1,0.1,0.2,0.2,0.3,0.2l0,0l0,0l-2.7,3.1l0.6,0.1l2.4-3l0,0c0.4,0.2,0.8,0.4,1.2,0.5l0,0l0,0l-0.5,3.8
				l0.5,0.3l0.3-4.1l0,0c0.1,0,0.3,0,0.4,0l0,0L-256.1,406.4z"/>
		</g>
		<g>
			<polygon class="st4" points="-235.4,397 -237.1,396.4 -237.1,394.6 -238.2,396.1 -240,395.5 -238.9,397 -240,398.5 -238.2,397.9 
				-237.1,399.4 -237.1,397.6 			"/>
		</g>
		<g>
			<path d="M-237.1,399.5L-237.1,399.5l-1.1-1.6l-1.8,0.6l0.1-0.1l1.1-1.5l-1.1-1.6l0.1,0l1.7,0.6l1.1-1.6v1.9l1.8,0.6l-1.8,0.6
				V399.5z M-238.2,397.9l1,1.4v-1.8l0,0l1.7-0.5l-1.7-0.5v-1.8l-1.1,1.5l0,0l-1.7-0.6l1.1,1.4l0,0l-1,1.4L-238.2,397.9z"/>
		</g>
		<g>
			<polygon class="st4" points="-267.7,377.9 -267.3,379.7 -268.9,380.7 -267,380.8 -266.7,382.7 -265.9,381 -264.1,381.2 
				-265.4,379.9 -264.7,378.2 -266.3,379.1 			"/>
		</g>
		<g>
			<path d="M-266.7,382.8l-0.4-1.9l-1.9-0.2l1.7-1l-0.4-1.9l0.1,0.1l1.4,1.2l1.7-1l0,0.1l-0.8,1.7l1.4,1.3l-0.1,0l-1.8-0.2
				L-266.7,382.8z M-268.8,380.6l1.8,0.2l0,0l0.4,1.7l0.7-1.6l1.8,0.2l-1.3-1.2l0,0l0.7-1.6l-1.5,0.9l0,0l-1.3-1.2l0.4,1.7l0,0
				L-268.8,380.6z"/>
		</g>
		<g>
			<polygon class="st4" points="-267.7,416.1 -267.3,414.3 -268.9,413.3 -267,413.2 -266.7,411.3 -265.9,413 -264.1,412.8 
				-265.4,414.1 -264.7,415.8 -266.3,414.9 			"/>
		</g>
		<g>
			<path d="M-267.7,416.2l0.4-1.9l-1.7-1l1.9-0.2l0.4-1.9l0,0.1l0.7,1.7l1.9-0.2l-1.4,1.3l0.8,1.8l-0.1,0l-1.6-0.9L-267.7,416.2z
				 M-268.8,413.4l1.6,0.9l0,0l-0.4,1.7l1.3-1.2l0,0l1.5,0.9l-0.7-1.6l0,0l1.3-1.2l-1.8,0.2l0,0l-0.7-1.6l-0.4,1.7l0,0L-268.8,413.4
				z"/>
		</g>
	</g>
</g>
</svg>
