<?xml version="1.0" encoding="utf-8"?>
<!-- Generator: Adobe Illustrator 19.0.0, SVG Export Plug-In . SVG Version: 6.00 Build 0)  -->
<svg version="1.1" id="Layer_1" xmlns="http://www.w3.org/2000/svg" xmlns:xlink="http://www.w3.org/1999/xlink" x="0px" y="0px"
	 viewBox="-269 374 72 46" style="enable-background:new -269 374 72 46;" xml:space="preserve">
<style type="text/css">
	.st0{clip-path:url(#SVGID_2_);}
	.st1{fill:#FFFFFF;}
	.st2{fill:#005351;}
</style>
<g>
	<defs>
		<path id="SVGID_1_" d="M-204,420H-262c-3.8,0-7-3.1-7-7V381c0-3.8,3.1-7,7-7h58.1c3.8,0,7,3.1,7,7V413
			C-197,416.9-200.1,420-204,420z"/>
	</defs>
	<clipPath id="SVGID_2_">
		<use xlink:href="#SVGID_1_"  style="overflow:visible;"/>
	</clipPath>
	<g class="st0">
		<g>
			<rect x="-269.8" y="371.9" class="st1" width="18.4" height="49.1"/>
			<path d="M-251.3,421.2H-270v-49.4h18.7V421.2z M-269.7,420.9h18.2v-48.9h-18.2V420.9z"/>
		</g>
		<g>
			<rect x="-251.4" y="371.9" class="st2" width="55.2" height="49.1"/>
			<path d="M-196,421.2h-55.5v-49.4h55.5V421.2z M-251.3,420.9h55v-48.9h-55V420.9z"/>
		</g>
		<g>
			<g>
				<path class="st1" d="M-210.4,402.8c-2.4,5-7.5,8.5-13.4,8.5c-8.1,0-14.8-6.6-14.8-14.8c0-6.6,4.4-12.2,10.4-14.1
					c-3.3,2.5-5.4,6.4-5.4,10.8c0,7.5,6.1,13.5,13.5,13.5C-216.2,406.7-212.9,405.2-210.4,402.8z"/>
			</g>
			<g>
				<polygon class="st1" points="-212.8,386.7 -216.1,388.1 -218.4,385.4 -218.1,389 -221.4,390.4 -217.9,391.1 -217.6,394.7 
					-215.7,391.6 -212.2,392.4 -214.6,389.7 				"/>
			</g>
		</g>
	</g>
</g>
</svg>
