<?xml version="1.0" encoding="utf-8"?>
<!-- Generator: Adobe Illustrator 19.0.0, SVG Export Plug-In . SVG Version: 6.00 Build 0)  -->
<svg version="1.1" id="Layer_1" xmlns="http://www.w3.org/2000/svg" xmlns:xlink="http://www.w3.org/1999/xlink" x="0px" y="0px"
	 viewBox="-269 374 72 46" style="enable-background:new -269 374 72 46;" xml:space="preserve">
<style type="text/css">
	.st0{clip-path:url(#SVGID_2_);}
	.st1{fill:#FFFFFF;}
	.st2{fill:#E30520;}
	.st3{fill:#FFEC00;}
	.st4{fill:#F3F3F3;}
	.st5{fill:none;}
	.st6{fill:#DCDCDC;}
</style>
<g>
	<defs>
		<path id="SVGID_1_" d="M-204,420H-262c-3.8,0-7-3.1-7-7V381c0-3.8,3.1-7,7-7h58.1c3.8,0,7,3.1,7,7V413
			C-197,416.9-200.1,420-204,420z"/>
	</defs>
	<clipPath id="SVGID_2_">
		<use xlink:href="#SVGID_1_"  style="overflow:visible;"/>
	</clipPath>
	<g class="st0">
		<g>
			<rect x="-271.2" y="373.4" class="st1" width="76.2" height="23.8"/>
			<path d="M-194.8,397.3h-76.5v-24.1h76.5V397.3z M-271,397.1h76v-23.6h-76V397.1z"/>
		</g>
		<g>
			<rect x="-271.2" y="397.2" class="st2" width="76.2" height="23.8"/>
			<path d="M-194.8,421.1h-76.5v-24.1h76.5V421.1z M-271,420.9h76v-23.6h-76V420.9z"/>
		</g>
		<g>
			<g>
				<path class="st2" d="M-224.3,375.8c0,0,0,12.9,0,15.8c0,1.9-1.6,3.2-3.8,3.2c-3.3,0-4.3-0.2-5,1.3c-0.7-1.4-1.7-1.3-5-1.3
					c-2.2,0-3.8-1.3-3.8-3.2c0-2.9,0-15.8,0-15.8S-224.3,375.8-224.3,375.8z"/>
				<path d="M-233,396.3l-0.1-0.1c-0.6-1.3-1.5-1.3-4.1-1.2c-0.3,0-0.5,0-0.8,0c-2.2,0-3.8-1.3-3.8-3.2v-15.9h17.6v15.9
					c0,1.9-1.6,3.2-3.8,3.2c-0.6,0-1.1,0-1.5,0c-2.1,0-2.9,0.1-3.4,1.2L-233,396.3z M-236.5,394.8c2,0,2.9,0.1,3.5,1.2
					c0.6-1.2,1.6-1.2,4.1-1.2c0.3,0,0.5,0,0.8,0c2.2,0,3.7-1.3,3.7-3.1v-15.8h-17.3v15.8c0,1.8,1.5,3.1,3.7,3.1
					C-237.4,394.8-236.9,394.8-236.5,394.8z"/>
			</g>
			<g>
				<path class="st3" d="M-233.8,378.3c-0.1-0.4-0.3-1-0.4-1.3c-0.1-0.1-0.1-0.2,0-0.1c0.2,0,0.3,0.2,0.4,0.4c0-0.3,0.2-0.3,0.3,0
					c0-0.3,0.1-0.3,0.2-0.3c0-0.2,0.1-0.3,0.2-0.2c0-0.2,0.1-0.2,0.1-0.2c0,0,0.1,0,0.1,0.2c0.1-0.1,0.2,0,0.2,0.2
					c0.1-0.1,0.2-0.1,0.2,0.3c0.1-0.2,0.3-0.3,0.3,0c0-0.1,0.2-0.3,0.4-0.4c0.2,0,0.1,0.1,0,0.1c-0.2,0.2-0.4,0.9-0.4,1.3
					C-232.5,378.5-233.7,378-233.8,378.3z"/>
				<path d="M-233.8,378.5l0-0.2c-0.1-0.4-0.3-1-0.4-1.2l0,0c0-0.1-0.1-0.1,0-0.2c0-0.1,0.1,0,0.2,0c0.1,0,0.2,0.1,0.3,0.2
					c0-0.1,0.1-0.1,0.1-0.1c0.1,0,0.1,0,0.2,0.1c0-0.1,0.1-0.2,0.1-0.2c0,0,0,0,0.1,0c0-0.1,0.1-0.2,0.1-0.2c0,0,0,0,0.1,0h0
					c0-0.2,0.1-0.2,0.2-0.2s0.1,0,0.2,0.2h0c0,0,0,0,0.1,0c0.1,0,0.1,0.1,0.1,0.2c0,0,0,0,0.1,0c0.1,0,0.1,0.1,0.1,0.2
					c0.1-0.1,0.1-0.1,0.2-0.1c0,0,0.1,0,0.1,0.1c0.1-0.1,0.2-0.2,0.3-0.2c0,0,0.1,0,0.2,0s0,0.1,0,0.2l0,0c-0.1,0.2-0.4,0.9-0.4,1.2
					l0,0l0,0c-0.1,0.1-0.5,0-0.8,0c-0.3,0-0.7-0.1-0.8,0L-233.8,378.5z M-233.5,378.1c0.2,0,0.4,0,0.6,0.1c0.3,0,0.6,0.1,0.7,0
					c0.1-0.4,0.3-1,0.4-1.3l0,0c0,0,0,0,0,0c-0.1,0-0.3,0.2-0.3,0.3l-0.1,0c0-0.1,0-0.2-0.1-0.2c0,0-0.1,0-0.2,0.1l-0.1,0
					c0-0.2,0-0.2,0-0.2h0c0,0,0,0,0,0l-0.1,0.1v-0.2c0-0.1,0-0.2-0.1-0.2c0,0,0,0,0,0l-0.1,0.1v-0.2c0-0.1,0-0.2,0-0.2
					c0,0,0,0,0,0.2v0.2l-0.1-0.1c0,0,0,0,0,0c0,0-0.1,0.1-0.1,0.2v0.2l-0.1-0.1c0,0,0,0,0,0l0,0c0,0,0,0.1,0,0.2l-0.1,0
					c0-0.1-0.1-0.2-0.2-0.1c0,0-0.1,0.1-0.1,0.2l-0.1,0c0-0.1-0.2-0.3-0.3-0.3c0,0,0,0,0,0l0,0c0.1,0.2,0.3,0.8,0.4,1.2
					C-233.7,378.2-233.6,378.1-233.5,378.1z"/>
			</g>
			<g>
				<g>
					<path class="st4" d="M-233.5,387.5c-0.5,0.4-0.6,1.2-0.6,1.7c-0.1,0-0.1-0.1-0.2-0.1c-0.1,0.2,0,0.4,0.1,0.5
						c-0.3-0.1-0.5-0.2-0.7-0.3c-0.4,0.3-1.3,1.3-1.5,1.7c-0.1,0.2-0.1,0.3,0.2,0.2c0.2,0,0.4,0.1,0.5,0.3c0.1,0.2-0.2,0.5-0.4,0.5
						c-0.3,0-0.3-0.2-0.3-0.4c0-0.1-0.1-0.1-0.2-0.1c-0.1,0-0.2,0.1-0.3,0c-0.1,0.2-0.2,0.2-0.4,0.4c-0.2,0.2,0,0.6-0.4,0.6
						c-0.3,0-0.5-0.1-0.5-0.4c0-0.3,0.5-0.2,0.6-0.7c-0.1,0.2-0.5,0.1-0.6,0.4c-0.1,0.2-0.4,0.3-0.6,0.1c-0.2-0.2,0-0.5,0.3-0.6
						c0.2,0,0.5-0.1,0.7-0.3c-0.1,0-0.4-0.1-0.6,0c-0.2,0.1-0.5,0.1-0.5-0.3c0-0.3,0.5-0.5,0.7-0.3c0.2,0.2,0.6,0,0.8,0.1
						c0.2,0.1,0.4,0,0.6-0.1c-0.1,0-0.1-0.1-0.2-0.1c0.2,0,0.6-0.1,0.7-0.2c-0.2,0-0.3,0-0.4-0.1c0.2,0,0.5-0.1,0.6-0.3
						c-0.1,0-0.2,0-0.3-0.1c0.2,0,0.5-0.2,0.6-0.4c-0.1,0-0.2,0-0.2,0c0.2-0.1,0.4-0.3,0.5-0.6c-0.2,0-0.5,0-0.7-0.1
						c0.2,0,0.3-0.1,0.5-0.3c-0.1,0-0.1-0.1-0.1-0.1c0.2-0.1,0.3-0.3,0.4-0.4c0,0-0.1,0-0.1,0c0.1,0,0.3-0.2,0.3-0.4
						c-0.1,0-0.1,0-0.2,0c0.4-0.2,0.6-0.9,0.7-1.4c0.1-0.5,0.7-0.9,1.1-0.4C-233.5,385.9-233.2,387.3-233.5,387.5z"/>
					<path d="M-237.8,392.6c-0.1,0-0.2,0-0.3-0.1c-0.1-0.1-0.1-0.2-0.1-0.3c0-0.2,0.1-0.2,0.3-0.3c0.1-0.1,0.2-0.1,0.3-0.2
						c0,0-0.1,0-0.1,0c-0.1,0-0.3,0.1-0.4,0.2c-0.1,0.1-0.2,0.2-0.4,0.3c-0.1,0-0.3,0-0.3-0.1c-0.1-0.1-0.1-0.3,0-0.4
						c0.1-0.1,0.2-0.2,0.4-0.2c0.2,0,0.3-0.1,0.6-0.2c0,0,0,0,0,0c-0.1,0-0.3,0-0.4,0c-0.2,0.1-0.3,0.1-0.5,0
						c-0.1,0-0.1-0.1-0.2-0.3c0-0.2,0.1-0.3,0.3-0.4c0.2-0.1,0.4-0.1,0.5,0c0.1,0.1,0.3,0.1,0.4,0.1c0.1,0,0.3,0,0.4,0
						c0.1,0.1,0.3,0,0.4-0.1c-0.1,0-0.1-0.1-0.1-0.1l-0.1-0.1l0.1,0c0.1,0,0.3,0,0.5-0.1c-0.1,0-0.2-0.1-0.2-0.1l-0.1-0.1l0.1,0
						c0.2,0,0.4-0.1,0.5-0.2c-0.1,0-0.1,0-0.2-0.1l-0.2-0.1l0.2,0c0.2,0,0.3-0.1,0.5-0.3c0,0-0.1,0-0.1,0l-0.1,0l0.1-0.1
						c0.2-0.1,0.4-0.3,0.4-0.5c-0.2,0-0.5,0-0.7-0.2l-0.2-0.1h0.2c0.1,0,0.3-0.1,0.4-0.2c0,0-0.1,0-0.1-0.1l-0.1-0.1l0.1,0
						c0.1,0,0.3-0.2,0.3-0.3c0,0-0.1,0-0.1,0l-0.1-0.1l0.1,0c0.1,0,0.2-0.1,0.3-0.2c0,0-0.1,0-0.1,0l-0.2,0l0.2-0.1
						c0.4-0.2,0.6-0.9,0.7-1.3c0.1-0.3,0.3-0.6,0.6-0.6c0.2-0.1,0.5,0,0.6,0.2c0.2,0.2,0.4,1.1,0.4,1.6c0,0.2-0.1,0.3-0.1,0.3
						c-0.6,0.4-0.6,1.3-0.6,1.6l0,0.1l-0.1,0c0,0-0.1,0-0.1-0.1c0,0.1,0.1,0.3,0.1,0.4l0.1,0.1l-0.2,0c-0.3,0-0.5-0.2-0.7-0.3
						c-0.4,0.4-1.2,1.3-1.4,1.6c-0.1,0.1-0.1,0.1,0,0.1c0,0,0,0,0.1,0c0.2,0,0.5,0.1,0.5,0.3c0,0.1,0,0.2-0.1,0.4
						c-0.1,0.1-0.2,0.2-0.4,0.2c0,0,0,0,0,0c-0.2,0-0.3-0.1-0.3-0.1c-0.1-0.1-0.1-0.2-0.1-0.3c0,0,0,0,0,0c0,0,0,0-0.1,0
						c-0.1,0-0.2,0.1-0.3,0c-0.1,0.1-0.1,0.1-0.2,0.2c-0.1,0.1-0.1,0.1-0.2,0.2c-0.1,0.1-0.1,0.2-0.1,0.3c0,0.1,0,0.3-0.3,0.4
						C-237.7,392.6-237.7,392.6-237.8,392.6z M-237.6,391.5l0.1,0.1c-0.1,0.3-0.2,0.4-0.4,0.5c-0.1,0.1-0.2,0.1-0.2,0.2
						c0,0.1,0,0.2,0.1,0.3c0.1,0.1,0.2,0.1,0.3,0.1c0.2,0,0.2-0.1,0.2-0.2c0-0.1,0-0.3,0.1-0.4c0.1-0.1,0.2-0.2,0.2-0.2
						c0.1-0.1,0.1-0.1,0.2-0.2l0,0l0,0c0.1,0.1,0.1,0,0.2,0c0,0,0.1-0.1,0.2,0c0,0,0.1,0.1,0,0.1c0,0.1,0,0.1,0,0.2
						c0,0.1,0.1,0.1,0.2,0.1c0,0,0,0,0,0c0.1,0,0.2-0.1,0.3-0.1c0.1-0.1,0.1-0.2,0.1-0.2c0-0.1-0.2-0.3-0.4-0.2
						c-0.1,0-0.2,0-0.3-0.1c0-0.1,0-0.2,0-0.3c0.2-0.4,1.1-1.4,1.5-1.7l0.1,0l0,0.1c0.1,0.1,0.3,0.2,0.5,0.3c-0.1-0.1-0.1-0.3,0-0.4
						l0-0.1l0.1,0c0,0,0.1,0,0.1,0.1c0-0.4,0-1.2,0.6-1.6l0,0c0,0,0.1-0.1,0.1-0.2c0.1-0.5-0.2-1.3-0.3-1.5
						c-0.2-0.2-0.4-0.2-0.5-0.2c-0.2,0.1-0.4,0.3-0.5,0.5c-0.1,0.5-0.3,1-0.6,1.3l0,0l0,0.1c0,0.1-0.1,0.3-0.2,0.3l0,0l0,0.1
						c0,0.2-0.1,0.3-0.3,0.4c0,0,0,0,0,0l0.1,0l0,0.1c-0.1,0.1-0.2,0.2-0.3,0.3c0.2,0.1,0.3,0.1,0.5,0.1l0.1,0l0,0.1
						c0,0.2-0.2,0.4-0.4,0.5c0,0,0,0,0.1,0h0.1l-0.1,0.1c-0.1,0.1-0.2,0.3-0.4,0.3c0,0,0.1,0,0.1,0l0.1,0l-0.1,0.1
						c-0.1,0.1-0.3,0.2-0.5,0.3c0.1,0,0.1,0,0.2,0l0.2,0l-0.1,0.1c-0.1,0.1-0.3,0.2-0.5,0.2c0,0,0,0,0,0l0.1,0l-0.1,0.1
						c-0.1,0.2-0.4,0.3-0.7,0.1c-0.1,0-0.2,0-0.3,0c-0.2,0-0.4,0-0.5-0.1c-0.1-0.1-0.2-0.1-0.4,0c-0.1,0.1-0.2,0.2-0.2,0.3
						c0,0.1,0,0.2,0.1,0.2c0.1,0.1,0.2,0.1,0.3,0c0.1-0.1,0.3,0,0.4,0c0.1,0,0.2,0,0.2,0l0.1,0.1c-0.3,0.2-0.5,0.3-0.8,0.4
						c-0.1,0-0.2,0.1-0.3,0.2c0,0.1,0,0.2,0,0.3c0.1,0.1,0.2,0.1,0.2,0.1c0.1,0,0.2-0.1,0.3-0.2c0.1-0.2,0.3-0.3,0.4-0.3
						C-237.7,391.5-237.6,391.5-237.6,391.5z"/>
				</g>
				<g>
					<path class="st4" d="M-232.6,387.5c0.5,0.4,0.6,1.2,0.6,1.7c0.1,0,0.1-0.1,0.2-0.1c0.1,0.2,0,0.4-0.1,0.5
						c0.3-0.1,0.5-0.2,0.7-0.3c0.4,0.3,1.3,1.3,1.5,1.7c0.1,0.2,0.1,0.3-0.2,0.2c-0.2,0-0.4,0.1-0.5,0.3c-0.1,0.2,0.2,0.5,0.4,0.5
						c0.3,0,0.3-0.2,0.3-0.4c0-0.1,0.1-0.1,0.2-0.1c0.1,0,0.2,0.1,0.3,0c0.1,0.2,0.2,0.2,0.4,0.4c0.2,0.2,0,0.6,0.4,0.6
						c0.3,0,0.5-0.1,0.5-0.4c0-0.3-0.5-0.2-0.6-0.7c0.1,0.2,0.5,0.1,0.6,0.4c0.1,0.2,0.4,0.3,0.6,0.1c0.2-0.2,0-0.5-0.3-0.6
						c-0.2,0-0.5-0.1-0.7-0.3c0.1,0,0.4-0.1,0.6,0c0.2,0.1,0.5,0.1,0.5-0.3s-0.5-0.5-0.7-0.3c-0.2,0.2-0.6,0-0.8,0.1s-0.4,0-0.6-0.1
						c0.1,0,0.1-0.1,0.2-0.1c-0.2,0-0.6-0.1-0.7-0.2c0.2,0,0.3,0,0.4-0.1c-0.2,0-0.5-0.1-0.6-0.3c0.1,0,0.2,0,0.3-0.1
						c-0.2,0-0.5-0.2-0.6-0.4c0.1,0,0.2,0,0.2,0c-0.2-0.1-0.4-0.3-0.5-0.6c0.2,0,0.5,0,0.7-0.1c-0.2,0-0.3-0.1-0.5-0.3
						c0.1,0,0.1-0.1,0.1-0.1c-0.2-0.1-0.3-0.3-0.4-0.4c0,0,0.1,0,0.1,0c-0.1,0-0.3-0.2-0.3-0.4c0.1,0,0.1,0,0.2,0
						c-0.4-0.2-0.6-0.9-0.7-1.4c-0.1-0.5-0.7-0.8-1.1-0.4C-232.5,385.8-232.8,387.2-232.6,387.5z"/>
					<path d="M-228.3,392.6c0,0-0.1,0-0.1,0c-0.3,0-0.3-0.2-0.3-0.4c0-0.1,0-0.2-0.1-0.3c-0.1-0.1-0.2-0.2-0.2-0.2
						c-0.1-0.1-0.1-0.1-0.2-0.2c-0.1,0.1-0.2,0-0.3,0c0,0-0.1,0-0.1,0c0,0,0,0,0,0c0,0.1,0,0.2-0.1,0.3c0,0.1-0.1,0.1-0.3,0.1
						c-0.2,0-0.3-0.1-0.4-0.2c-0.1-0.1-0.1-0.2-0.1-0.4c0.1-0.2,0.3-0.3,0.5-0.3c0.1,0,0.1,0,0.1,0c0,0,0-0.1,0-0.1
						c-0.2-0.3-1-1.3-1.4-1.6c-0.1,0.2-0.4,0.3-0.7,0.3l-0.2,0l0.1-0.1c0.1-0.1,0.1-0.2,0.1-0.4c0,0-0.1,0-0.1,0.1l-0.1,0l0-0.1
						c0-0.4,0-1.2-0.6-1.6l0,0c-0.1-0.1-0.1-0.3-0.1-0.7c0-0.5,0.2-1.1,0.3-1.2c0.2-0.2,0.4-0.3,0.7-0.2c0.3,0.1,0.5,0.3,0.6,0.6
						c0.1,0.4,0.3,1.1,0.7,1.3l0.2,0.1l-0.2,0c0,0-0.1,0-0.1,0c0.1,0.1,0.2,0.2,0.3,0.2l0.1,0l-0.1,0.1c0,0,0,0-0.1,0
						c0,0.1,0.2,0.3,0.3,0.3l0.1,0l-0.1,0.1c0,0-0.1,0-0.1,0.1c0.1,0.1,0.2,0.2,0.4,0.2h0.2l-0.2,0.1c-0.2,0.1-0.4,0.2-0.7,0.2
						c0,0.2,0.2,0.4,0.4,0.5l0.1,0.1l-0.1,0c0,0-0.1,0-0.1,0c0.1,0.1,0.3,0.2,0.5,0.3l0.2,0l-0.2,0.1c-0.1,0-0.1,0.1-0.2,0.1
						c0.1,0.1,0.3,0.2,0.5,0.2l0.1,0l-0.1,0.1c-0.1,0.1-0.1,0.1-0.2,0.1c0.1,0.1,0.3,0.1,0.5,0.1l0.1,0l-0.1,0.1
						c0,0-0.1,0.1-0.1,0.1c0.1,0.1,0.3,0.1,0.4,0.1c0.1-0.1,0.2-0.1,0.4,0c0.2,0,0.3,0,0.4-0.1c0.1-0.1,0.3-0.1,0.5,0
						c0.2,0.1,0.3,0.2,0.3,0.4c0,0.2-0.1,0.3-0.2,0.3c-0.1,0.1-0.3,0.1-0.5,0c-0.1,0-0.3,0-0.4,0c0,0,0,0,0,0
						c0.2,0.1,0.4,0.2,0.6,0.2c0.2,0,0.3,0.1,0.4,0.2c0.1,0.1,0.1,0.3,0,0.4c-0.1,0.1-0.2,0.2-0.3,0.1c-0.2,0-0.3-0.1-0.4-0.3
						c-0.1-0.2-0.2-0.2-0.4-0.2c0,0-0.1,0-0.1,0c0.1,0.1,0.2,0.1,0.3,0.2c0.1,0.1,0.3,0.2,0.3,0.3c0,0.2,0,0.3-0.1,0.3
						C-228.1,392.6-228.2,392.6-228.3,392.6z M-229.2,391.4L-229.2,391.4c0.1,0.1,0.2,0.2,0.3,0.3c0.1,0.1,0.1,0.1,0.2,0.2
						c0.1,0.1,0.1,0.3,0.1,0.4c0,0.1,0,0.2,0.2,0.2c0.1,0,0.2,0,0.3-0.1c0.1-0.1,0.1-0.1,0.1-0.3c0-0.1-0.1-0.1-0.2-0.2
						c-0.1-0.1-0.3-0.2-0.4-0.5l0.1-0.1c0,0.1,0.1,0.1,0.2,0.1c0.2,0,0.3,0.1,0.4,0.3c0,0.1,0.2,0.2,0.3,0.2c0.1,0,0.2,0,0.2-0.1
						c0.1-0.1,0.1-0.2,0-0.3c-0.1-0.1-0.2-0.2-0.3-0.2c-0.2,0-0.5-0.1-0.8-0.4l0.1-0.1c0,0,0.1,0,0.2,0c0.1,0,0.3,0,0.4,0
						c0.1,0.1,0.3,0.1,0.3,0c0.1,0,0.1-0.1,0.1-0.2c0-0.1-0.1-0.2-0.2-0.3c-0.1-0.1-0.3-0.1-0.4,0c-0.1,0.1-0.3,0.1-0.5,0.1
						c-0.1,0-0.2,0-0.3,0c-0.2,0.1-0.5,0-0.7-0.1l-0.1-0.1l0.1,0c0,0,0,0,0,0c-0.2,0-0.4-0.1-0.5-0.2l-0.1-0.1l0.2,0
						c0.1,0,0.1,0,0.2,0c-0.2,0-0.4-0.1-0.5-0.3l-0.1-0.1l0.1,0c0,0,0.1,0,0.1,0c-0.2-0.1-0.3-0.2-0.4-0.3l-0.1-0.1h0.1
						c0,0,0,0,0.1,0c-0.2-0.1-0.3-0.3-0.4-0.5l0-0.1l0.1,0c0.2,0,0.4,0,0.5-0.1c-0.1,0-0.2-0.1-0.3-0.3l0-0.1l0.1,0c0,0,0,0,0,0
						c-0.1-0.1-0.3-0.3-0.3-0.4l0-0.1l0,0c-0.1-0.1-0.2-0.2-0.2-0.3l0-0.1l0,0c-0.3-0.3-0.5-0.8-0.6-1.3c-0.1-0.2-0.3-0.5-0.5-0.5
						c-0.2-0.1-0.4,0-0.5,0.2c-0.1,0.1-0.2,0.6-0.3,1.1c0,0.3,0,0.5,0.1,0.6c0.6,0.4,0.6,1.2,0.6,1.6c0,0,0.1,0,0.1-0.1l0.1,0l0,0.1
						c0.1,0.1,0,0.3,0,0.4c0.2-0.1,0.4-0.2,0.5-0.3l0-0.1l0.1,0c0.4,0.3,1.3,1.4,1.5,1.7c0.1,0.1,0.1,0.2,0,0.3
						c0,0.1-0.1,0.1-0.3,0.1c-0.2,0-0.4,0.1-0.4,0.2c0,0.1,0,0.2,0.1,0.2c0.1,0.1,0.2,0.2,0.3,0.1c0.1,0,0.2,0,0.2-0.1
						c0,0,0.1-0.1,0-0.2c0-0.1,0-0.1,0-0.1c0.1,0,0.2,0,0.2,0C-229.4,391.4-229.4,391.5-229.2,391.4L-229.2,391.4z"/>
				</g>
				<g>
					<path class="st4" d="M-234.6,383.2c-0.7,0-1.1-0.4-0.9-0.8c0.5,0,0.8-0.4,0.8-0.9c0-0.7-0.8-2.7-4.1-3.3c0,0.4,0.4,0.9,0.8,1.2
						c-0.5-0.2-1.1-0.4-1.6-0.4c0.2,0.5,0.5,1.1,1,1.4c-0.3-0.1-1.2-0.6-1.4-0.9c-0.1,0.3,0.1,0.8,0.5,0.9c-0.4,0-0.9,0-1.3,0.1
						c0.5,0.6,0.9,1,1.7,1.2c-0.7-0.2-1.4-0.3-1.8-0.8c0,0.5,0.3,0.8,0.6,0.9c-0.4,0.1-0.7,0.2-0.9,0.4c0.3,0.4,1.1,0.8,1.6,0.8
						c-0.6,0-1.3,0-1.4-0.2c-0.1,0.3,0.4,0.7,1.3,0.6c-0.7,0.4-1.3,0.8-1.5,1.3c0.4,0.1,1.3,0.1,1.9-0.1c-0.3,0.3-1.3,0.8-1.9,1
						c0.5,0.5,1.3,0.2,1.9-0.3c-0.6,0.8-1,1.7-1,2.6c0.9-0.1,1.8-1.2,2.3-2.1c-0.4,0.7-0.9,2.5-1.6,2.7c0.4,0.3,1.1-0.4,1.8-1.7
						c-0.1,0.8-0.2,1.6,0,2.4c0.9-0.7,1.3-1.7,1.6-2.9c0,0.4-0.2,1.5-0.4,2c0.3-0.2,0.6-0.7,0.8-1.3c0,0,0,0.1,0.1,0.1
						c0.4-0.4,0.8-1,0.8-1.7c0.3,0.1,0.7,0,0.9-0.2c0,0,0,0,0,0c0,0,0,0,0.1,0c0.1,0.1,0.1,0.2,0.1,0.3c0,0,0,0,0,0
						c0.4,1.2,0.4,2.9-0.2,3.9c0.2,0,0.3-0.2,0.4-0.4c0,0.7-0.4,1.2-0.9,1c-0.3,0.5,0.3,0.7,0.8,0.5c-0.2,1.1-1.5,0.9-1.2,0.2
						c-0.5,0.1-0.9,0.6-0.4,1.1c0.4,0.3,1.1,0.2,1.6-0.2c-0.1,0.5-1.3,1.5-1.4,0.4c-0.3,0-0.8,0.6-0.3,1c0.5,0.5,1.9-0.3,2.1-1
						c-0.2,0.7-0.2,1.6,0.3,2.2c0.3-0.4,0.5-1.1,0.4-1.7c0.3,0.5,1.2,0.8,1.6,0.6c0.5-0.2,0.6-1-0.1-1.1c-0.4,0.7-1.2,0.3-1.5-0.6
						c0.2,0.4,1.2,0.7,1.6,0.4c0.4-0.3,0.5-0.9-0.2-1.1c0,0.7-0.9,0.8-1.2-0.1c0.4,0.2,0.8,0,0.7-0.7c-0.3,0.4-0.9,0.2-0.9-0.8
						c0.1,0.2,0.3,0.3,0.5,0.3c-0.8-1.3-0.6-3-0.3-3.9c0,0,0,0,0.1,0c0-0.1,0-0.2,0-0.3c0,0,0,0,0.1,0c0,0,0,0,0,0
						c0.3,0.2,0.6,0.3,0.9,0.2c0,0.7,0.4,1.2,0.8,1.7c0,0,0-0.1,0.1-0.1c0.1,0.6,0.4,1.1,0.8,1.3c-0.1-0.5-0.4-1.6-0.4-2
						c0.3,1.1,0.7,2.2,1.6,2.9c0.1-0.7,0.1-1.5,0-2.4c0.7,1.3,1.4,1.9,1.8,1.7c-0.7-0.3-1.2-2-1.6-2.7c0.5,0.8,1.4,1.9,2.3,2.1
						c0-0.9-0.5-1.9-1-2.6c0.6,0.5,1.5,0.8,1.9,0.3c-0.6-0.1-1.5-0.7-1.9-1c0.7,0.2,1.5,0.2,1.9,0.1c-0.2-0.4-0.8-0.9-1.5-1.3
						c0.9,0.1,1.4-0.3,1.3-0.6c-0.1,0.1-0.8,0.2-1.4,0.2c0.4-0.1,1.3-0.4,1.6-0.8c-0.2-0.1-0.5-0.3-0.9-0.4c0.3-0.2,0.6-0.5,0.6-0.9
						c-0.4,0.5-1.2,0.6-1.8,0.8c0.7-0.2,1.2-0.6,1.7-1.2c-0.4-0.1-0.8-0.1-1.3-0.1c0.4-0.1,0.6-0.6,0.5-0.9
						c-0.2,0.3-1.1,0.8-1.4,0.9c0.5-0.3,0.9-0.9,1-1.4c-0.4,0-1,0.1-1.6,0.4c0.4-0.3,0.8-0.8,0.8-1.2c-3.3,0.6-4.1,2.6-4.1,3.3
						c0,0.6,0.3,0.9,0.8,0.9c0.1,0.4-0.2,0.7-0.8,0.8c0-0.3,0-0.6-0.1-0.7c0.1,0,0.1,0,0.2-0.1c-0.4-0.2-0.4-0.7-0.3-1.2
						c0,0,0.1,0,0.1,0c-0.4-0.7,0.3-2.1-0.4-2.5c0.3,0.1,0.4-0.1,0.4-0.3c-0.1,0.1-0.3,0.1-0.4,0c0.2-0.1,0.2-0.4,0-0.5
						c-0.2,0.5-0.9,0.3-1.4,0.2c-0.5-0.1-0.9,0-0.9,0.4c0,0.2,0.2,0.6,0.4,0.7c0.2,0.1,0.2,0.3,0,0.5c1-0.3,0.9,1.1,0.1,1.4
						c0,0.1,0.1,0.1,0.2,0.2c-0.1,0.4-0.6,0.9-1,0.8c0,0.1,0.1,0.2,0.2,0.3C-234.6,382.6-234.6,382.9-234.6,383.2"/>
					<path d="M-232.9,394.4L-232.9,394.4c-0.5-0.5-0.5-1.3-0.4-1.9c-0.3,0.4-0.8,0.7-1.2,0.8c-0.3,0.1-0.6,0.1-0.8-0.1
						c-0.2-0.2-0.3-0.5-0.2-0.8c0.1-0.2,0.2-0.3,0.4-0.3c0,0-0.1,0-0.1-0.1c-0.2-0.2-0.3-0.4-0.2-0.7c0.1-0.3,0.3-0.5,0.6-0.5l0.1,0
						l0,0.1c-0.1,0.1-0.1,0.3,0,0.3c0.1,0.1,0.3,0.1,0.4,0.1c0.3-0.1,0.5-0.3,0.6-0.6c-0.3,0.1-0.6,0.1-0.7-0.1
						c-0.1-0.1-0.2-0.3-0.1-0.6l0-0.1l0.1,0c0.2,0.1,0.3,0,0.4,0c0.2-0.1,0.3-0.4,0.4-0.7c-0.1,0.1-0.2,0.2-0.3,0.2l-0.2,0l0.1-0.1
						c0.6-1,0.6-2.6,0.2-3.8l-0.1,0l0-0.1c0-0.1,0-0.2,0-0.2c0,0,0,0,0,0l-0.1,0.1v0c-0.3,0.1-0.5,0.2-0.8,0.1
						c0,0.7-0.4,1.2-0.8,1.6l-0.1,0.1l0-0.1c-0.1,0.6-0.4,1-0.8,1.2l-0.1,0.1l0-0.1c0-0.1,0.1-0.2,0.1-0.4c0.1-0.3,0.2-0.7,0.2-1.1
						c-0.3,0.9-0.7,1.7-1.5,2.4l-0.1,0.1l0-0.1c-0.1-0.6-0.1-1.3,0-2c-0.4,0.8-0.9,1.3-1.3,1.4c-0.1,0-0.3,0-0.4-0.1l-0.1-0.1l0.1,0
						c0.4-0.2,0.8-1.1,1.1-1.8c0-0.1,0.1-0.1,0.1-0.2c-0.5,0.6-1.2,1.3-1.9,1.4l-0.1,0l0-0.1c0-0.7,0.3-1.6,0.8-2.4
						c-0.8,0.5-1.4,0.5-1.7,0.1l-0.1-0.1l0.1,0c0.4-0.1,1.1-0.5,1.6-0.8c-0.6,0.1-1.3,0.1-1.6,0.1l-0.1,0l0-0.1
						c0.2-0.4,0.6-0.8,1.3-1.2c-0.5,0-0.9-0.1-1.1-0.4c-0.1-0.1-0.1-0.2,0-0.3l0-0.1l0.1,0.1c0.1,0.1,0.4,0.1,0.9,0.1
						c-0.4-0.2-0.9-0.4-1.1-0.7l0,0l0,0c0.2-0.1,0.4-0.3,0.8-0.3c-0.2-0.1-0.5-0.5-0.5-0.9l0-0.2l0.1,0.1c0.2,0.3,0.6,0.4,0.9,0.5
						c-0.3-0.2-0.6-0.5-0.9-0.8l-0.1-0.1l0.1,0c0.3-0.1,0.6-0.1,1-0.1c-0.2-0.2-0.4-0.5-0.3-0.8l0-0.2l0.1,0.1
						c0.1,0.2,0.5,0.5,0.9,0.7c-0.3-0.3-0.5-0.7-0.6-1.1l0-0.1l0.1,0c0.4,0,0.8,0.1,1.3,0.2c-0.3-0.3-0.6-0.7-0.6-1l0-0.1l0.1,0
						c3.4,0.6,4.1,2.7,4.1,3.4c0,0.6-0.3,1-0.8,1c0,0.1,0,0.2,0.1,0.3c0.1,0.2,0.4,0.3,0.8,0.4c0,0,0,0,0,0c0-0.2,0-0.5,0.2-0.7
						c-0.1-0.1-0.1-0.2-0.1-0.3l0-0.1l0.1,0c0.3,0.1,0.8-0.3,0.9-0.7c-0.1,0-0.1-0.1-0.1-0.2l0-0.1l0.1,0c0.5-0.2,0.7-0.7,0.6-1.1
						c-0.1-0.2-0.3-0.3-0.6-0.3l-0.2,0.1l0.2-0.2c0.1-0.1,0.1-0.1,0.1-0.2c0-0.1-0.1-0.1-0.1-0.1c-0.3-0.1-0.5-0.6-0.5-0.8
						c0-0.2,0.1-0.3,0.2-0.4c0.2-0.1,0.4-0.1,0.8-0.1c0.1,0,0.1,0,0.2,0c0.5,0.1,1,0.2,1.2-0.2l0-0.1l0.1,0c0.1,0,0.1,0.1,0.2,0.2
						c0,0.1,0,0.2-0.1,0.3c0.1,0,0.2,0,0.3,0l0.1-0.1l0,0.1c0,0.1,0,0.2-0.1,0.3c0,0-0.1,0-0.1,0.1c0.2,0.3,0.2,0.7,0.2,1.2
						c0,0.4-0.1,0.9,0.1,1.2l0,0c0.1-0.8,1-2.6,4.1-3.2l0.1,0l0,0.1c0,0.3-0.3,0.7-0.6,1c0.4-0.2,0.9-0.2,1.3-0.2l0.1,0l0,0.1
						c-0.1,0.4-0.4,0.8-0.6,1.1c0.4-0.2,0.8-0.5,0.9-0.7l0.1-0.1l0,0.2c0,0.3-0.1,0.6-0.3,0.8c0,0,0.1,0,0.1,0c0.3,0,0.6,0,0.9,0.1
						l0.1,0l-0.1,0.1c-0.3,0.4-0.6,0.6-0.9,0.8c0.4-0.1,0.7-0.3,0.9-0.5l0.1-0.1l0,0.2c0,0.5-0.3,0.8-0.5,0.9
						c0.3,0.1,0.6,0.2,0.8,0.3l0,0l0,0c-0.2,0.3-0.7,0.6-1.1,0.7c0.5,0,0.9-0.1,0.9-0.1l0.1-0.1l0,0.1c0,0.1,0,0.2,0,0.3
						c-0.2,0.2-0.6,0.4-1.1,0.4c0.7,0.4,1.1,0.8,1.3,1.2l0,0.1l-0.1,0c-0.3,0-1,0.1-1.6-0.1c0.4,0.3,1.1,0.6,1.6,0.8l0.1,0l-0.1,0.1
						c-0.4,0.4-1,0.4-1.7-0.1c0.6,0.8,0.9,1.6,0.8,2.4l0,0.1l-0.1,0c-0.7-0.1-1.4-0.8-1.9-1.4c0,0.1,0.1,0.1,0.1,0.2
						c0.3,0.7,0.7,1.6,1.1,1.8l0.1,0l-0.1,0.1c-0.1,0.1-0.2,0.1-0.4,0.1c-0.4-0.1-0.9-0.6-1.3-1.4c0.1,0.8,0.1,1.4,0,2l0,0.1
						l-0.1-0.1c-0.8-0.6-1.2-1.5-1.5-2.4c0.1,0.3,0.2,0.7,0.2,1.1c0,0.1,0.1,0.3,0.1,0.4l0,0.1l-0.1-0.1c-0.3-0.2-0.6-0.6-0.8-1.2
						l0,0.1l-0.1-0.1c-0.4-0.4-0.8-1-0.8-1.6c-0.3,0.1-0.6,0-0.8-0.1v0l-0.1-0.1c0,0,0,0,0,0c0,0.1,0,0.1,0,0.2l0,0.1l-0.1,0
						c-0.2,0.6-0.5,2.4,0.3,3.8l0.1,0.1l-0.1,0c-0.1,0-0.3,0-0.4-0.2c0,0.5,0.2,0.7,0.4,0.8c0.1,0.1,0.3,0,0.4-0.2l0.1-0.1l0,0.1
						c0.1,0.4-0.1,0.6-0.2,0.7c-0.1,0.1-0.3,0.1-0.5,0.1c0.2,0.4,0.5,0.5,0.7,0.5c0.2,0,0.3-0.2,0.3-0.5l0-0.1l0.1,0
						c0.4,0.1,0.5,0.4,0.5,0.5c0,0.3-0.1,0.5-0.3,0.7c0,0-0.1,0-0.1,0.1l0,0c0.3,0.1,0.5,0.3,0.5,0.6c0,0.3-0.2,0.6-0.4,0.7
						c-0.4,0.2-1.2,0-1.6-0.4C-232.4,393.3-232.6,393.9-232.9,394.4L-232.9,394.4z M-233.3,392.1l0.1,0c-0.2,0.7-0.2,1.6,0.2,2.1
						c0.3-0.4,0.4-1,0.3-1.6l0.1,0c0.3,0.5,1.1,0.7,1.6,0.6c0.2-0.1,0.3-0.3,0.3-0.6c0-0.2-0.1-0.4-0.3-0.5
						c-0.1,0.2-0.3,0.4-0.6,0.4c0,0,0,0-0.1,0c-0.4,0-0.8-0.4-1-1l0.1-0.1c0.1,0.2,0.4,0.4,0.7,0.4c0.3,0.1,0.6,0.1,0.8-0.1
						c0.2-0.1,0.3-0.4,0.3-0.6c0-0.2-0.1-0.3-0.4-0.4c0,0.3-0.2,0.5-0.4,0.5c-0.3,0.1-0.7-0.1-0.9-0.7l0-0.1l0.1,0.1
						c0.2,0.1,0.4,0.1,0.5,0c0.1-0.1,0.2-0.2,0.1-0.4c-0.1,0.1-0.3,0.1-0.5,0.1c-0.3-0.1-0.5-0.5-0.5-1.1V389l0.1,0.1
						c0.1,0.1,0.2,0.2,0.3,0.2c-0.8-1.4-0.4-3.3-0.3-3.8l0-0.1l0,0c0-0.1,0-0.2,0.1-0.3l0-0.1l0,0l0,0l0.1,0.1
						c0.3,0.2,0.6,0.2,0.9,0.2l0.1,0l0,0.1c0,0.6,0.3,1.1,0.7,1.6c0,0,0,0,0,0l0.1-0.2l0,0.2c0.1,0.5,0.3,0.9,0.6,1.2
						c0-0.1,0-0.1,0-0.2c-0.1-0.6-0.3-1.3-0.3-1.7l0.1,0c0.3,1,0.7,2,1.5,2.8c0.1-0.6,0.1-1.4,0-2.2l0.1,0c0.5,0.9,1,1.6,1.4,1.7
						c0.1,0,0.1,0,0.2,0c-0.4-0.3-0.8-1.1-1.1-1.8c-0.1-0.3-0.3-0.7-0.4-0.9l0.1-0.1c0.3,0.4,1.2,1.8,2.2,2c0-0.8-0.4-1.7-1-2.5
						l0.1-0.1c0.4,0.3,1.3,0.8,1.8,0.4c-0.6-0.2-1.5-0.7-1.8-0.9l0.1-0.1c0.6,0.2,1.4,0.2,1.8,0.2c-0.2-0.4-0.7-0.8-1.4-1.2l0-0.1
						c0.6,0.1,1.1-0.1,1.2-0.3c0,0,0-0.1,0-0.1c-0.3,0.2-1.2,0.1-1.4,0.1l0-0.1c0.4-0.1,1.2-0.4,1.5-0.8c-0.2-0.1-0.4-0.2-0.8-0.3
						l-0.1,0l0.1-0.1c0.1-0.1,0.4-0.3,0.5-0.7c-0.4,0.3-0.9,0.5-1.4,0.6c-0.1,0-0.1,0-0.2,0.1c0,0-0.1,0-0.1,0l0-0.1
						c0,0,0.1,0,0.1,0c0.5-0.2,1-0.5,1.4-1.1c-0.3-0.1-0.7-0.1-1.1-0.1l0-0.1c0.3-0.1,0.5-0.4,0.5-0.7c-0.3,0.3-1,0.7-1.3,0.8
						l-0.1-0.1c0.4-0.3,0.8-0.8,1-1.3c-0.4,0-1,0.2-1.5,0.4l-0.1-0.1c0.3-0.3,0.7-0.7,0.8-1c-3.2,0.6-3.9,2.6-3.9,3.2
						c0,0.5,0.3,0.9,0.7,0.9h0l0,0c0.1,0.2,0,0.3,0,0.5c-0.1,0.2-0.5,0.4-0.9,0.4l-0.1,0l0-0.1c0-0.3,0-0.5-0.1-0.6l-0.1-0.1l0.1,0
						c0,0,0,0,0.1,0c-0.3-0.2-0.4-0.6-0.2-1.2l0-0.1l0.1,0c0,0,0,0,0,0c-0.1-0.3-0.1-0.7-0.1-1.1c0-0.5,0.1-1-0.3-1.2l0.1-0.1
						c0.1,0,0.2,0,0.2,0c0,0,0-0.1,0.1-0.1c-0.1,0-0.3,0-0.4-0.1l-0.1-0.1l0.1-0.1c0.1-0.1,0.1-0.2,0.1-0.3c0,0,0-0.1,0-0.1
						c-0.3,0.4-0.8,0.3-1.3,0.2c-0.1,0-0.1,0-0.2,0c-0.3-0.1-0.6-0.1-0.7,0c-0.1,0.1-0.1,0.1-0.1,0.3c0,0.1,0.2,0.6,0.4,0.7
						c0.1,0.1,0.2,0.1,0.2,0.2c0,0.1,0,0.1,0,0.2c0.3,0,0.5,0.1,0.6,0.4c0.1,0.4-0.1,1-0.6,1.2c0,0,0.1,0.1,0.1,0.1l0.1,0l0,0.1
						c-0.1,0.4-0.5,0.8-0.9,0.8c0,0,0,0,0,0c0,0.1,0.1,0.1,0.1,0.2l0.1,0.1l-0.1,0c-0.2,0.1-0.2,0.4-0.2,0.6c0,0,0,0.1,0,0.1h-0.1
						l0,0.1c-0.4,0-0.8-0.2-1-0.4c-0.1-0.1-0.1-0.3-0.1-0.5l0,0h0c0.4,0,0.7-0.4,0.7-0.9c0-0.6-0.7-2.6-3.9-3.2
						c0.1,0.3,0.4,0.8,0.8,1l-0.1,0.1c-0.5-0.2-1-0.3-1.5-0.4c0.2,0.5,0.5,1,1,1.3l-0.1,0.1c-0.3-0.1-1-0.5-1.3-0.8
						c0,0.3,0.2,0.6,0.5,0.7l0,0.1c-0.4,0-0.8,0-1.1,0.1c0.5,0.6,0.9,0.9,1.4,1.1c0,0,0.1,0,0.1,0l0,0.1c-0.1,0-0.1,0-0.1,0
						c-0.1,0-0.1,0-0.2-0.1c-0.5-0.1-1-0.3-1.4-0.6c0.1,0.4,0.4,0.7,0.5,0.7l0.1,0.1l-0.1,0c-0.3,0.1-0.6,0.2-0.8,0.3
						c0.3,0.4,1.1,0.7,1.5,0.8l0,0.1c-0.2,0-1.1,0-1.4-0.1c0,0,0,0.1,0,0.1c0.1,0.2,0.6,0.4,1.2,0.3l0,0.1c-0.7,0.4-1.2,0.8-1.4,1.2
						c0.4,0,1.2,0,1.8-0.2l0.1,0.1c-0.3,0.2-1.2,0.8-1.8,0.9c0.5,0.5,1.4-0.1,1.8-0.4l0.1,0.1c-0.7,0.8-1,1.7-1,2.5
						c1-0.2,1.9-1.6,2.2-2l0.1,0.1c-0.1,0.2-0.3,0.5-0.4,0.9c-0.3,0.7-0.7,1.5-1.1,1.8c0.1,0,0.1,0,0.2,0c0.4-0.1,0.9-0.7,1.4-1.7
						l0.1,0c-0.1,0.8-0.1,1.6,0,2.2c0.8-0.7,1.2-1.8,1.5-2.8l0.1,0c0,0.4-0.1,1.1-0.3,1.7c0,0.1,0,0.1,0,0.2
						c0.3-0.2,0.5-0.7,0.6-1.2l0-0.2l0.1,0.2c0,0,0,0,0,0c0.4-0.4,0.7-0.9,0.7-1.6l0-0.1l0.1,0c0.3,0.1,0.6,0,0.9-0.2l0.1-0.1l0,0
						l0,0l0,0.1c0.1,0.1,0.1,0.2,0.1,0.3l0,0c0.3,1.1,0.4,2.7-0.1,3.8c0.1-0.1,0.2-0.1,0.2-0.3l0.1-0.2l0,0.2c0,0.5-0.2,0.9-0.4,1
						c-0.2,0.1-0.3,0.1-0.5,0.1c-0.1,0.1,0,0.3,0,0.4c0.1,0.1,0.4,0.1,0.7,0l0.1-0.1l0,0.1c-0.1,0.4-0.3,0.7-0.7,0.8
						c-0.2,0.1-0.5,0-0.6-0.1c-0.1-0.1-0.1-0.2-0.1-0.4c-0.2,0.1-0.4,0.2-0.4,0.4c-0.1,0.2,0,0.4,0.2,0.5c0.4,0.3,1.1,0.1,1.5-0.2
						l0.1-0.1l0,0.2c0,0.4-0.6,0.9-1.1,0.9c0,0,0,0,0,0c-0.1,0-0.4-0.1-0.4-0.5c-0.1,0-0.2,0.1-0.3,0.3c-0.1,0.2-0.1,0.5,0.2,0.7
						c0.1,0.1,0.4,0.2,0.7,0.1C-234,393-233.4,392.5-233.3,392.1z M-235,392.1c0,0.3,0.1,0.4,0.3,0.4c0,0,0,0,0,0
						c0.3,0,0.7-0.4,0.9-0.7C-234.2,392.1-234.7,392.2-235,392.1z M-232.3,391.7c0.2,0.3,0.5,0.6,0.7,0.6c0,0,0,0,0,0
						c0.2,0,0.3-0.1,0.5-0.3l0,0c-0.2,0.1-0.4,0.1-0.7,0C-232,391.9-232.1,391.8-232.3,391.7z M-231.4,382.5
						c0.1,0.2,0.1,0.4,0.1,0.6c0.3,0,0.6-0.2,0.7-0.4c0.1-0.1,0.1-0.2,0-0.3c-0.5,0-0.8-0.4-0.8-1c0,0,0,0,0-0.1l-0.1,0
						c0,0-0.1,0-0.1,0c-0.1,0.5-0.1,0.9,0.3,1l0.1,0.1l-0.1,0.1C-231.3,382.5-231.4,382.5-231.4,382.5z"/>
				</g>
			</g>
			<g>
				<path d="M-233.4,378.5c-0.1,0-0.1,0-0.2,0c0.1-0.2,0.4-0.1,0.6,0c0.2,0.1,0.7,0.2,0.9,0.1c-0.1,0-0.2,0.1-0.3,0.1
					c-0.1,0.1-0.3,0.3-0.5,0.2c0.1,0,0.3-0.1,0.3-0.2c0,0-0.1,0-0.1,0c-0.1,0.2-0.2,0.2-0.3,0.1c-0.1,0-0.1-0.2-0.1-0.3
					C-233.2,378.5-233.3,378.5-233.4,378.5c0,0.1,0.1,0.3,0.2,0.4C-233.4,378.8-233.5,378.7-233.4,378.5z"/>
			</g>
			<g>
				<path class="st3" d="M-234.6,379.3c-0.4-0.4,0.3-1.3,1.1-0.3c0.7,0.1,1.2,0.5,1,0.7c-0.2,0.3-0.5-0.3-1.2,0
					c0.2-0.3-0.1-0.2-0.2-0.4C-234.1,379.2-234.4,379-234.6,379.3z"/>
				<path d="M-232.7,379.9c-0.1,0-0.2,0-0.2-0.1c-0.2-0.1-0.4-0.2-0.8,0l-0.2,0.1l0.1-0.2c0.1-0.1,0-0.1,0-0.1c0,0,0,0-0.1,0
					c0,0-0.1,0-0.1-0.1c-0.1-0.1-0.2-0.2-0.4-0.2c0,0,0,0,0,0c-0.1,0-0.2,0.1-0.2,0.1l0,0.1l-0.1-0.1c-0.1-0.1-0.2-0.3-0.1-0.5
					c0.1-0.2,0.2-0.3,0.4-0.4c0.2,0,0.5,0,0.8,0.5c0.5,0,0.9,0.3,1,0.5c0.1,0.1,0,0.2,0,0.3C-232.6,379.9-232.6,379.9-232.7,379.9z
					 M-233.4,379.6c0.2,0,0.4,0.1,0.5,0.1c0.2,0.1,0.2,0.1,0.3,0c0-0.1,0-0.1,0-0.2c-0.1-0.2-0.4-0.4-0.9-0.4l0,0l0,0
					c-0.3-0.4-0.6-0.5-0.7-0.5c-0.2,0-0.3,0.1-0.3,0.3c0,0.1,0,0.2,0,0.3c0.1-0.1,0.2-0.1,0.3-0.1c0,0,0,0,0,0
					c0.2,0,0.4,0.1,0.5,0.3c0,0,0.1,0,0.1,0.1c0.1,0,0.1,0.1,0.1,0.1c0,0,0,0.1,0,0.1C-233.5,379.6-233.4,379.6-233.4,379.6z"/>
			</g>
			<g>
				<path class="st4" d="M-233,379.6c0.1,0,0.2-0.2,0-0.3c-0.7-0.4-1.5,0.5-1.8,0.1c0,0.2,0.5,0.4,1,0.2
					C-233.6,379.5-233.1,379.3-233,379.6z"/>
				<path d="M-234.4,379.8c-0.2,0-0.3,0-0.5-0.1c-0.1-0.1-0.1-0.1-0.1-0.2l0-0.2l0.1,0.1c0.1,0.1,0.3,0.1,0.6-0.1
					c0.4-0.1,0.8-0.3,1.2-0.1c0.2,0.1,0.2,0.2,0.2,0.3c0,0.1-0.1,0.1-0.2,0.1l-0.1,0l0-0.1c0,0,0-0.1-0.1-0.1
					c-0.2-0.1-0.5,0.1-0.8,0.2C-234.1,379.8-234.2,379.8-234.4,379.8z M-234.7,379.6c0.2,0.1,0.5,0.1,0.7,0c0.3-0.1,0.7-0.3,0.9-0.2
					c0,0,0.1,0.1,0.1,0.1c0,0,0,0,0,0c0,0,0-0.1-0.1-0.1c-0.3-0.2-0.7,0-1.1,0.1C-234.3,379.6-234.5,379.6-234.7,379.6
					C-234.7,379.6-234.7,379.6-234.7,379.6z"/>
			</g>
			<g>
				<g>
					<path class="st3" d="M-239,391.4c-0.3-0.3-0.1-0.6,0.1-0.6c0.2,0,0.3,0.3,0.1,0.3C-238.9,391.2-239,391.3-239,391.4z"/>
					<path d="M-239,391.4c-0.2-0.2-0.2-0.4-0.1-0.5c0-0.1,0.2-0.2,0.3-0.2c0.1,0,0.2,0,0.3,0.2c0,0.1,0,0.3-0.1,0.3
						c-0.1,0-0.2,0.1-0.2,0.2L-239,391.4z M-238.8,390.8C-238.8,390.8-238.8,390.8-238.8,390.8c-0.1,0-0.2,0.1-0.2,0.2
						c0,0.1,0,0.2,0,0.3c0-0.1,0.1-0.1,0.2-0.2c0,0,0.1-0.1,0-0.2C-238.7,390.9-238.8,390.8-238.8,390.8z"/>
				</g>
				<g>
					<path class="st3" d="M-238.6,392.4c-0.4-0.2-0.3-0.5-0.1-0.6c0.2-0.1,0.3,0.2,0.2,0.3C-238.6,392.2-238.7,392.3-238.6,392.4z"
						/>
					<path d="M-238.6,392.5c-0.2-0.2-0.3-0.3-0.3-0.4c0-0.1,0.1-0.3,0.2-0.3c0.1-0.1,0.2,0,0.3,0.1c0.1,0.1,0.1,0.2,0,0.3
						C-238.5,392.2-238.6,392.3-238.6,392.5L-238.6,392.5z M-238.6,391.8C-238.6,391.8-238.6,391.8-238.6,391.8
						c-0.1,0-0.2,0.1-0.2,0.2c0,0.1,0,0.2,0.1,0.2c0-0.1,0.1-0.2,0.2-0.2C-238.5,392-238.5,391.9-238.6,391.8
						C-238.5,391.8-238.5,391.8-238.6,391.8z"/>
				</g>
				<g>
					<path class="st3" d="M-237.7,392.9c-0.4-0.1-0.5-0.5-0.3-0.6c0.2-0.2,0.5,0.1,0.4,0.2C-237.7,392.7-237.8,392.8-237.7,392.9z"
						/>
					<path d="M-237.7,392.9c-0.2-0.1-0.4-0.2-0.4-0.4c0-0.1,0-0.2,0.1-0.3c0.1-0.1,0.3-0.1,0.4,0c0.1,0.1,0.1,0.2,0.1,0.3
						c-0.1,0.1-0.1,0.2,0,0.3L-237.7,392.9z M-237.9,392.3C-237.9,392.3-237.9,392.3-237.9,392.3c-0.1,0.1-0.1,0.2-0.1,0.2
						c0,0.1,0.1,0.2,0.2,0.2c0-0.1,0-0.2,0.1-0.3c0-0.1,0-0.1-0.1-0.2C-237.8,392.3-237.8,392.3-237.9,392.3z"/>
				</g>
				<g>
					<path class="st3" d="M-236.3,392.1c0.4,0.1,0.5-0.3,0.5-0.4c-0.1-0.2-0.4-0.1-0.4,0.1C-236.2,391.9-236.2,392.1-236.3,392.1z"
						/>
					<path d="M-236.2,392.2c0,0-0.1,0-0.1,0l0-0.1c0.1,0,0.1-0.1,0.1-0.3c0-0.1,0.1-0.2,0.2-0.3c0.1,0,0.2,0,0.3,0.1
						c0,0.1,0,0.2-0.1,0.3C-235.9,392.1-236,392.2-236.2,392.2z M-236,391.7C-236,391.7-236,391.7-236,391.7c-0.1,0-0.2,0.1-0.1,0.1
						c0,0.1,0,0.2,0,0.3c0.1,0,0.2,0,0.2-0.1C-235.9,391.9-235.9,391.8-236,391.7C-235.9,391.7-235.9,391.7-236,391.7z"/>
				</g>
				<g>
					<path class="st3" d="M-227.1,391.4c0.3-0.3,0.1-0.6-0.1-0.6c-0.2,0-0.3,0.3-0.1,0.3C-227.2,391.2-227.1,391.3-227.1,391.4z"/>
					<path d="M-227.1,391.4l-0.1-0.1c0-0.1-0.1-0.2-0.2-0.2c-0.1,0-0.1-0.2-0.1-0.3c0-0.1,0.1-0.2,0.3-0.2c0.1,0,0.2,0.1,0.3,0.2
						C-226.9,391-226.9,391.2-227.1,391.4z M-227.3,390.8c-0.1,0-0.1,0-0.1,0.1c0,0.1,0,0.1,0,0.2c0.1,0,0.2,0.1,0.2,0.2
						c0-0.1,0-0.2,0-0.2C-227.1,390.9-227.2,390.8-227.3,390.8C-227.3,390.8-227.3,390.8-227.3,390.8z"/>
				</g>
				<g>
					<path class="st3" d="M-227.5,392.4c0.4-0.2,0.3-0.5,0.1-0.6c-0.2-0.1-0.3,0.2-0.2,0.3C-227.5,392.2-227.4,392.3-227.5,392.4z"
						/>
					<path d="M-227.5,392.5L-227.5,392.5c0-0.1-0.1-0.3-0.2-0.3c-0.1-0.1-0.1-0.2,0-0.3c0.1-0.1,0.2-0.1,0.3-0.1
						c0.1,0.1,0.2,0.2,0.2,0.3C-227.2,392.1-227.2,392.3-227.5,392.5z M-227.5,391.8C-227.5,391.8-227.6,391.8-227.5,391.8
						c-0.1,0.1-0.1,0.2-0.1,0.2c0.1,0.1,0.1,0.2,0.2,0.2c0.1-0.1,0.1-0.1,0.1-0.2C-227.3,391.9-227.4,391.9-227.5,391.8
						C-227.5,391.8-227.5,391.8-227.5,391.8z"/>
				</g>
				<g>
					<path class="st3" d="M-228.4,392.9c0.4-0.1,0.5-0.5,0.3-0.6c-0.2-0.2-0.5,0.1-0.4,0.2C-228.4,392.7-228.3,392.8-228.4,392.9z"
						/>
					<path d="M-228.4,392.9l0-0.1c0.1,0,0-0.2,0-0.3c-0.1-0.1,0-0.2,0.1-0.3c0.1-0.1,0.3-0.1,0.4,0c0.1,0.1,0.1,0.2,0.1,0.3
						C-228,392.7-228.1,392.9-228.4,392.9z M-228.2,392.3c0,0-0.1,0-0.1,0c0,0-0.1,0.1-0.1,0.2c0.1,0.1,0.1,0.2,0.1,0.3
						c0.1-0.1,0.2-0.2,0.2-0.2C-228.1,392.5-228.1,392.4-228.2,392.3C-228.1,392.3-228.2,392.3-228.2,392.3z"/>
				</g>
				<g>
					<path class="st3" d="M-229.8,392.1c-0.4,0.1-0.5-0.3-0.5-0.4c0.1-0.2,0.4-0.1,0.4,0.1C-229.9,391.9-229.9,392.1-229.8,392.1z"
						/>
					<path d="M-229.9,392.2c-0.2,0-0.3-0.1-0.4-0.2c-0.1-0.1-0.1-0.2-0.1-0.3c0-0.1,0.2-0.2,0.3-0.1c0.1,0,0.2,0.1,0.2,0.3
						c0,0.1,0,0.3,0.1,0.3l0,0.1C-229.8,392.2-229.9,392.2-229.9,392.2z M-230.1,391.7C-230.1,391.7-230.2,391.7-230.1,391.7
						c-0.1,0.1-0.1,0.2-0.1,0.3c0.1,0.1,0.1,0.1,0.2,0.1c0-0.1,0-0.2,0-0.3C-230,391.7-230,391.7-230.1,391.7
						C-230.1,391.7-230.1,391.7-230.1,391.7z"/>
				</g>
			</g>
			<g>
				<g>
					<path d="M-236.6,390.7c-0.1,0-0.2,0-0.3,0l0-0.1c0.1,0,0.3,0,0.5,0l0,0.1C-236.4,390.7-236.5,390.7-236.6,390.7z"/>
				</g>
				<g>
					<path class="st5" d="M-236.3,390.2c0.1,0,0.2,0,0.3,0"/>
				</g>
				<g>
					<path d="M-235.8,389.4v-0.1c0.2,0,0.4-0.1,0.5-0.1l0.1,0.1C-235.4,389.4-235.6,389.4-235.8,389.4z"/>
				</g>
				<g>
					<path d="M-234.9,389.2c-0.1-0.2-0.2-0.4-0.1-0.6c-0.2,0.1-0.4,0.2-0.6,0.2l0-0.1c0.3,0,0.5-0.2,0.7-0.3l0.1,0.1
						c-0.1,0.2-0.1,0.5,0.1,0.7L-234.9,389.2z"/>
				</g>
				<g>
					<path d="M-235.6,388.5c-0.1,0-0.2,0-0.3,0l0-0.1c0.4,0.2,0.9-0.2,1.1-0.5l0,0l0,0c0,0,0,0,0,0c0.3,0,0.8-0.2,1.1-0.7l0.1,0.1
						c-0.3,0.5-0.8,0.7-1.2,0.7C-234.8,388.2-235.2,388.5-235.6,388.5z"/>
				</g>
				<g>
					<path d="M-235.5,387.9c-0.1,0-0.1,0-0.2,0l0-0.1c0.3,0.1,0.7-0.1,0.9-0.4l0,0l0,0c0.4,0,0.9-0.3,1-0.6l0.1,0.1
						c-0.2,0.3-0.7,0.7-1.1,0.7C-234.8,387.8-235.2,387.9-235.5,387.9z"/>
				</g>
				<g>
					<path d="M-235.4,387.5l0-0.1c0.4,0,0.7-0.4,0.7-0.5l0,0h0c0.6,0,0.9-0.4,0.9-0.7l0.1,0c-0.1,0.3-0.4,0.7-1,0.7
						C-234.7,387.2-235,387.5-235.4,387.5z"/>
				</g>
				<g>
					<path d="M-234.3,389.1c-0.2-0.1-0.3-0.3-0.3-0.6c0-0.3,0-0.5,0.2-0.7l0.1,0.1c-0.2,0.2-0.2,0.4-0.2,0.6c0,0.2,0.1,0.4,0.3,0.5
						L-234.3,389.1z"/>
				</g>
				<g>
					<path d="M-236.5,390.9l-0.1,0c0.1-0.3,0.6-0.8,1-1.4c0.2-0.3,0.5-0.6,0.6-0.7l0.1,0.1c-0.1,0.2-0.3,0.4-0.6,0.7
						C-235.9,390.1-236.4,390.7-236.5,390.9z"/>
				</g>
				<g>
					<path d="M-236.1,389.9C-236.1,389.9-236.1,389.9-236.1,389.9l0-0.1c0,0,0,0,0,0c0.1,0,0.2,0,0.4-0.1l0,0.1
						C-235.8,389.9-236,389.9-236.1,389.9z"/>
				</g>
				<g>
					<path class="st5" d="M-235.8,382.3c0.1,0,0.2,0,0.2,0"/>
				</g>
				<g>
					<path d="M-237,380c-0.3-0.3-0.6-0.5-1.1-0.7l0-0.1C-237.5,379.4-237.1,379.7-237,380L-237,380z"/>
				</g>
				<g>
					<path d="M-238.1,380.6c-0.2,0-0.4-0.1-0.5-0.2l0.1-0.1c0.1,0.1,0.3,0.2,0.5,0.2L-238.1,380.6z"/>
				</g>
				<g>
					<path d="M-238,380.7c-0.5-0.1-0.9-0.2-1.3-0.3l0-0.1c0.4,0,0.8,0.1,1.4,0.3L-238,380.7z"/>
				</g>
				<g>
					<path d="M-240.2,381.8l0-0.1c0.5-0.1,1.1-0.2,1.6-0.1l0,0.1C-239.2,381.6-239.8,381.7-240.2,381.8z"/>
				</g>
				<g>
					<path d="M-239.6,383l0-0.1c0.2,0,0.5,0,0.6-0.1l0,0.1C-239.1,383-239.3,383-239.6,383z"/>
				</g>
				<g>
					<path d="M-239.7,383.4l-0.1-0.1c0.2-0.1,0.4-0.2,0.6-0.3l0.1,0.1C-239.3,383.2-239.5,383.3-239.7,383.4z"/>
				</g>
				<g>
					<path d="M-239.2,384.6l0-0.1c0.2-0.1,0.3-0.1,0.5-0.2l0.1,0.1C-238.9,384.4-239,384.5-239.2,384.6z"/>
				</g>
				<g>
					<path d="M-239.1,385.2L-239.1,385.2c0.1-0.4,0.4-0.6,0.6-0.9l0.1,0.1C-238.7,384.6-238.9,384.9-239.1,385.2z"/>
				</g>
				<g>
					<path d="M-237.9,385.8l-0.1-0.1c0.1-0.2,0.2-0.4,0.3-0.5l0.1,0.1C-237.6,385.4-237.7,385.6-237.9,385.8z"/>
				</g>
				<g>
					<path d="M-234.9,385.5c-0.3-0.1-0.5-0.3-0.6-0.5c-0.4,0.1-0.7,0-0.9-0.3c-0.2,0-0.4-0.1-0.6-0.2c-0.1-0.1-0.2-0.3-0.2-0.5
						c-0.2-0.1-0.4-0.3-0.4-0.6c-0.1,0-0.2,0.1-0.3,0.1c-0.4,0.2-0.8,0.5-0.9,0.8c0.4,0.1,0.9,0,1.3-0.2l0.1,0.1
						c-0.5,0.2-1,0.3-1.5,0.2l-0.1,0l0-0.1c0.1-0.3,0.3-0.6,0.7-0.8c-0.3,0-0.5-0.1-0.6-0.2c-0.1-0.1-0.2-0.1-0.3-0.1l-0.1,0l0-0.1
						c0.2-0.4,0.6-0.8,1.1-0.8c-0.3-0.1-0.5-0.3-0.6-0.5l0,0l0,0c0.2-0.1,0.5-0.2,0.9-0.2c-0.2-0.2-0.3-0.6-0.3-0.9l0-0.2l0.1,0.1
						c0,0.1,0.2,0,0.3,0c0.2,0,0.5,0,0.8,0.1c0-0.1-0.1-0.3-0.1-0.4c0-0.1,0-0.3-0.1-0.4l0.1-0.1c0.1,0.1,0.2,0.1,0.4,0.2
						c0.2,0.1,0.6,0.1,1,0.5c0.3,0.2,0.5,0.7,0.5,1.1c0,0.3-0.1,0.5-0.4,0.7l-0.2,0.1l0.1-0.2c0-0.1,0-0.3-0.1-0.4
						c0-0.1-0.1-0.1-0.2-0.1l-0.1,0l0-0.1c0-0.3-0.2-0.5-0.4-0.5c-0.2,0-0.5,0-0.6,0.4l0,0.1l-0.1,0c-0.3-0.1-0.5-0.1-0.6,0.1
						c-0.1,0.2-0.1,0.4,0.1,0.6l0,0.1l-0.1,0c-0.1,0.1-0.2,0.2-0.3,0.4c0,0.2,0.1,0.4,0.3,0.6l0,0l0,0c-0.1,0.3,0,0.5,0.3,0.7l0,0
						l0,0c0,0.2,0.1,0.4,0.2,0.5c0.1,0.1,0.3,0.2,0.5,0.2l0,0l0,0c0.2,0.4,0.6,0.3,0.9,0.3l0.1,0l0,0.1c0.1,0.3,0.3,0.4,0.5,0.5
						L-234.9,385.5z M-239,383c0.1,0,0.2,0.1,0.3,0.1c0.2,0.1,0.4,0.2,0.9,0.1c0.1,0,0.2-0.1,0.3-0.1c0,0,0,0,0-0.1
						c-0.2-0.2-0.3-0.4-0.3-0.7c0,0,0-0.1,0-0.1c0,0-0.1,0-0.1,0C-238.4,382.3-238.8,382.7-239,383z M-238.6,381.6
						c0.2,0.2,0.4,0.4,0.8,0.5c0-0.1,0.1-0.2,0.2-0.2c-0.1-0.2-0.1-0.3-0.1-0.5C-238,381.5-238.4,381.5-238.6,381.6z M-235.7,381.3
						c0.1,0,0.2,0.1,0.3,0.2c0.1,0.1,0.1,0.2,0.1,0.3c0.1-0.1,0.2-0.3,0.2-0.5c0-0.4-0.2-0.8-0.5-1c-0.4-0.3-0.7-0.4-0.9-0.4
						c-0.1,0-0.2,0-0.3-0.1c0,0.1,0,0.2,0,0.3c0,0.2,0,0.4,0.2,0.5c0,0,0.1,0.1,0.1,0.1c0.1,0,0.2,0,0.3,0
						C-236,380.8-235.7,381-235.7,381.3z M-238,380.5c0,0.4,0.1,0.7,0.3,0.8c0,0,0,0,0-0.1c0.1-0.2,0.4-0.2,0.7-0.2
						c0.1-0.1,0.2-0.2,0.3-0.3c0,0,0,0,0,0c-0.3-0.2-0.6-0.2-0.9-0.2C-237.8,380.5-237.9,380.5-238,380.5z"/>
				</g>
				<g>
					<path d="M-237.5,385.6L-237.5,385.6c-0.3-0.6-0.2-1.3,0.3-1.8l0.1,0.1c-0.4,0.4-0.6,1.1-0.3,1.6c0.3,0,0.6-0.3,0.8-0.5l0,0
						l0.1,0.1l0,0C-236.8,385.3-237.1,385.6-237.5,385.6L-237.5,385.6z"/>
				</g>
				<g>
					<path d="M-236.1,386.4L-236.1,386.4c-0.5-0.6-0.7-1.2-0.4-1.8l0.1,0.1c-0.3,0.7,0,1.2,0.3,1.6c0.3-0.3,0.6-0.7,0.7-1.2l0.1,0
						C-235.4,385.6-235.8,386-236.1,386.4L-236.1,386.4z"/>
				</g>
				<g>
					<path d="M-237.7,386.8l-0.1,0c0.1-0.4,0.1-0.8,0.3-1.3l0.1,0C-237.5,386-237.6,386.4-237.7,386.8z"/>
				</g>
				<g>
					<path d="M-235.8,387c-0.1-0.2-0.2-0.6-0.2-0.9l0.1,0c0,0.3,0.1,0.6,0.2,0.9L-235.8,387z"/>
				</g>
				<g>
					<path d="M-235.3,384c-0.1,0-0.3,0-0.5-0.1c-0.4-0.2-0.7-0.5-0.7-1l0.1,0c0,0.5,0.2,0.8,0.6,0.9c0.3,0.1,0.6,0.1,0.7,0
						c0.1,0,0.2-0.1,0.4,0l0,0.1c-0.1,0-0.2,0-0.3,0C-235.1,384-235.2,384-235.3,384z"/>
				</g>
				<g>
					<path d="M-234.5,384.3c0,0-0.2,0-0.4,0c-0.3,0-0.8,0.1-1.2-0.2c-0.5-0.3-0.8-0.9-0.7-1.5l0.1,0c0,0.6,0.2,1.1,0.7,1.4
						c0.4,0.2,0.8,0.2,1.1,0.2C-234.6,384.2-234.5,384.2-234.5,384.3L-234.5,384.3z"/>
				</g>
				<g>
					<path d="M-235.4,386.4l-0.1,0c0.1-0.3,0.2-1,0.2-1.2l0.1,0C-235.2,385.4-235.4,386.1-235.4,386.4z"/>
				</g>
				<g>
					<path d="M-236.1,385.9l-0.1,0c0.1-0.2,0.2-0.8,0.2-1l0.1,0C-235.9,385.1-236,385.7-236.1,385.9z"/>
				</g>
				<g>
					<path d="M-237.3,385.2l-0.1-0.1c0.1-0.2,0.3-0.7,0.4-0.8l0.1,0C-236.9,384.6-237.2,385-237.3,385.2z"/>
				</g>
				<g>
					<path d="M-238.4,384.1l-0.1-0.1c0.1,0,0.1-0.1,0.2-0.1c0.2-0.1,0.5-0.3,0.7-0.4l0,0.1c-0.2,0.1-0.5,0.2-0.7,0.4
						C-238.2,384-238.3,384.1-238.4,384.1z"/>
				</g>
				<g>
					<path d="M-238.7,383l-0.1-0.1c0.1,0,0.3-0.1,0.5-0.1c0.2,0,0.4,0,0.5-0.1l0.1,0.1c-0.1,0.1-0.3,0.1-0.5,0.1
						C-238.4,382.9-238.6,383-238.7,383z"/>
				</g>
				<g>
					<path d="M-237.6,381.9c-0.1,0-0.2,0-0.3-0.1c-0.1,0-0.2-0.1-0.4-0.1l0-0.1c0.2,0,0.4,0.1,0.5,0.1c0.1,0,0.2,0.1,0.3,0.1
						c0,0,0,0,0,0L-237.6,381.9C-237.6,381.9-237.6,381.9-237.6,381.9z"/>
				</g>
				<g>
					<path d="M-237,381.2c-0.2-0.2-0.6-0.5-0.9-0.5l0-0.1C-237.6,380.6-237.1,380.9-237,381.2L-237,381.2z"/>
				</g>
				<g>
					<path d="M-236.1,380.8c0-0.3-0.3-0.6-0.7-0.9l0.1-0.1c0.3,0.2,0.8,0.6,0.8,1L-236.1,380.8z"/>
				</g>
				<g>
					<path d="M-236.6,379.9c-0.5-0.4-1.6-1.2-2-1.6l0.1-0.1C-238.1,378.6-237,379.4-236.6,379.9L-236.6,379.9z"/>
				</g>
				<g>
					<path d="M-237.1,380.6c-0.3-0.1-1.2-0.7-1.9-1.2l-0.3-0.2l0.1-0.1l0.3,0.2c0.7,0.4,1.6,1,1.9,1.2L-237.1,380.6z"/>
				</g>
				<g>
					<path d="M-237.7,381.4c-0.5-0.1-1-0.3-1.4-0.5c-0.4-0.2-0.8-0.4-1.2-0.4l0-0.1c0.5,0.1,0.9,0.2,1.3,0.4
						c0.4,0.2,0.9,0.4,1.4,0.4L-237.7,381.4z"/>
				</g>
				<g>
					<path d="M-238.5,382.5c-0.4,0-2-0.2-2.4-0.3l0-0.1c0.4,0.1,2.1,0.3,2.5,0.2L-238.5,382.5C-238.4,382.5-238.4,382.5-238.5,382.5
						z"/>
				</g>
				<g>
					<path d="M-240.8,384.5l0-0.1c0.2-0.1,0.7-0.3,1.2-0.5c0.6-0.2,1.3-0.5,1.6-0.7l0,0.1c-0.3,0.1-1,0.4-1.7,0.7
						C-240.1,384.3-240.6,384.5-240.8,384.5z"/>
				</g>
				<g>
					<path d="M-239.2,386.6l-0.1-0.1c0.3-0.6,1.1-1.8,1.8-2.5l0.1,0.1C-238,384.8-238.8,386-239.2,386.6z"/>
				</g>
				<g>
					<path d="M-237.5,388.5l-0.1,0c0-0.2,0.2-0.7,0.4-1.2c0.2-0.7,0.5-1.4,0.6-1.9l0.1,0c-0.1,0.5-0.4,1.2-0.6,1.9
						C-237.3,387.9-237.5,388.3-237.5,388.5z"/>
				</g>
				<g>
					<path d="M-231.2,385.5l0-0.1c0.2-0.1,0.4-0.3,0.5-0.5l0-0.1l0.1,0c0.2,0.1,0.6,0.1,0.9-0.3l0,0l0,0c0.2,0,0.4,0,0.5-0.2
						c0.1-0.1,0.2-0.2,0.2-0.5l0,0l0,0c0.3-0.2,0.4-0.4,0.3-0.7l0,0l0,0c0.2-0.1,0.3-0.4,0.3-0.6c0-0.2-0.1-0.3-0.3-0.4l-0.1,0
						l0-0.1c0.2-0.2,0.2-0.4,0.1-0.6c-0.1-0.2-0.3-0.2-0.6-0.1l-0.1,0l0-0.1c-0.1-0.3-0.4-0.4-0.6-0.4c-0.2,0-0.4,0.2-0.4,0.5l0,0.1
						l-0.1,0c-0.1,0-0.2,0.1-0.2,0.1c-0.1,0.1-0.1,0.3-0.1,0.4l0.1,0.2l-0.2-0.1c-0.2-0.2-0.4-0.4-0.4-0.7c0-0.4,0.2-0.9,0.5-1.1
						c0.4-0.4,0.7-0.4,1-0.5c0.2,0,0.3-0.1,0.4-0.2l0.1,0.1c-0.1,0.1-0.1,0.3-0.1,0.4c0,0.1,0,0.3-0.1,0.4c0.3-0.1,0.6-0.1,0.8-0.1
						c0.2,0,0.3,0,0.3,0l0.1-0.1l0,0.2c0,0.3-0.1,0.7-0.3,0.9c0.3,0,0.7,0.1,0.9,0.2l0,0l0,0c-0.2,0.2-0.4,0.4-0.6,0.5
						c0.5,0.1,0.9,0.5,1.1,0.8l0,0.1l-0.1,0c-0.1,0-0.2,0.1-0.3,0.1c-0.2,0.1-0.3,0.2-0.6,0.2c0.3,0.2,0.6,0.5,0.7,0.8l0,0.1l-0.1,0
						c-0.5,0.1-1,0.1-1.5-0.2l0.1-0.1c0.5,0.2,0.9,0.3,1.3,0.2c-0.1-0.3-0.5-0.6-0.9-0.8c-0.1,0-0.2-0.1-0.3-0.1
						c0,0.2-0.1,0.4-0.4,0.6c0,0.2-0.1,0.4-0.2,0.5c-0.2,0.1-0.4,0.2-0.6,0.2c-0.2,0.3-0.5,0.4-0.9,0.3
						C-230.7,385.2-230.9,385.4-231.2,385.5z M-228.2,383.3c0.4,0.1,0.7,0,0.9-0.1c0.1,0,0.2-0.1,0.3-0.1c-0.2-0.4-0.6-0.7-1.1-0.7
						c0,0-0.1,0-0.1,0c0,0,0,0.1,0,0.1c0,0.2-0.1,0.5-0.3,0.7c0,0,0,0,0,0.1C-228.4,383.2-228.3,383.2-228.2,383.3z M-228.5,381.9
						c0.1,0.1,0.2,0.1,0.2,0.2c0.4-0.1,0.6-0.3,0.8-0.5c-0.2-0.1-0.5-0.2-0.8-0.2c0,0-0.1,0-0.1,0
						C-228.4,381.6-228.4,381.8-228.5,381.9z M-229.2,379.8c-0.1,0-0.2,0.1-0.3,0.1c-0.2,0.1-0.5,0.1-0.9,0.4
						c-0.2,0.2-0.5,0.6-0.5,1c0,0.2,0.1,0.3,0.2,0.5c0-0.1,0-0.2,0.1-0.3c0.1-0.1,0.2-0.2,0.3-0.2c0-0.3,0.3-0.5,0.5-0.6
						c0.1,0,0.2,0,0.3,0c0,0,0.1-0.1,0.1-0.1c0.1-0.2,0.2-0.3,0.2-0.5C-229.3,380-229.3,379.9-229.2,379.8z M-228.9,381.1
						c0.2,0,0.3,0.1,0.4,0.2c0,0,0,0,0,0.1c0.2-0.2,0.3-0.4,0.3-0.8c-0.1,0-0.2,0-0.3,0c-0.3,0-0.6,0-0.9,0.2c0,0,0,0,0,0
						c0.1,0.1,0.2,0.2,0.3,0.3C-229.1,381.1-229,381.1-228.9,381.1z"/>
				</g>
				<g>
					<path d="M-234,385.2c0-0.1-0.1-0.2-0.1-0.3c0,0-0.1,0.1-0.1,0.1l-0.2,0.1l0.1-0.2c0-0.1,0-0.3,0-0.4c0,0,0,0,0,0l-0.1-0.1
						c0-0.1,0-0.2-0.1-0.3c-0.1-0.2-0.3-0.4-0.1-0.6l-0.2,0l0.2-0.1c0,0,0.1-0.1,0.1-0.2h0.1c0,0.1,0,0.2,0,0.2l0.1,0l-0.1,0.1
						c-0.2,0.2-0.1,0.4,0.1,0.6c0.1,0.1,0.1,0.2,0.1,0.2c0,0,0,0,0,0l0.1-0.1l0,0.1c0,0.1,0.1,0.3,0,0.4c0,0,0,0,0,0l0.1-0.1
						l0.1,0.1c0.1,0.1,0.1,0.2,0.2,0.4L-234,385.2z"/>
				</g>
				<g>
					<path d="M-232.1,385.2l-0.1,0c0-0.2,0.1-0.4,0.2-0.5l0.1-0.1l0.1,0c0,0,0.1,0,0.1,0.1c0-0.2,0-0.4,0-0.5l0.1-0.1l0,0.1
						c0.1-0.2,0.2-0.4,0.1-0.6l0,0l0,0c0.1-0.1,0.1-0.3,0.1-0.5l0.1,0c0,0.2-0.1,0.4-0.1,0.5c0.1,0.2,0,0.5-0.2,0.8l-0.1,0.1
						c0,0.1,0,0.1,0,0.2l0,0.2l-0.1,0c0,0-0.1,0-0.1-0.1C-232,384.9-232.1,385.1-232.1,385.2z"/>
				</g>
				<g>
					<g>
						<path d="M-233.6,391.7L-233.6,391.7c0-0.2,0.1-0.3,0.2-0.4l0.1,0.1C-233.4,391.5-233.5,391.6-233.6,391.7z"/>
					</g>
					<g>
						<path d="M-233.7,390.6l-0.1-0.1c0.1-0.1,0.4-0.3,0.5-0.6l0.1,0C-233.3,390.4-233.5,390.5-233.7,390.6z"/>
					</g>
					<g>
						<path d="M-233.5,389.1l-0.1-0.1c0.3-0.5,0.4-1.5,0.4-3h0.1C-233.1,387.6-233.2,388.6-233.5,389.1z"/>
					</g>
					<g>
						<path d="M-234.1,384.9L-234.1,384.9c0.1-0.3,0.3-0.6,0.3-0.9l0.1,0C-233.6,384.3-233.9,384.7-234.1,384.9z"/>
					</g>
					<g>
						<path d="M-234.2,384.4L-234.2,384.4c0.2-0.4,0.4-0.7,0.1-1l0.1-0.1C-233.7,383.7-233.9,384.1-234.2,384.4z"/>
					</g>
					<g>
						<path d="M-234.6,383.5l0-0.1c0.5,0,0.6-0.2,0.7-0.5c0.1-0.2,0.1-0.5,0.4-0.7l0.1,0.1c-0.2,0.2-0.3,0.4-0.4,0.6
							C-233.9,383.2-234,383.5-234.6,383.5z"/>
					</g>
					<g>
						<path d="M-234.1,382.6c-0.1,0-0.2,0-0.3-0.1l0.1-0.1c0.1,0.1,0.2,0.1,0.3,0.1c0.2,0,0.5-0.2,0.8-0.5l0.1,0.1
							C-233.4,382.4-233.7,382.5-234.1,382.6C-234,382.6-234,382.6-234.1,382.6z"/>
					</g>
					<g>
						<path d="M-233.4,381.4c0,0-0.1,0-0.1,0l0-0.1c0.1,0,0.2,0,0.3,0c0.2-0.1,0.4-0.3,0.4-0.6l0.1,0c-0.1,0.3-0.3,0.5-0.5,0.7
							C-233.2,381.4-233.3,381.4-233.4,381.4z"/>
					</g>
					<g>
						<path d="M-232.5,383.8l0-0.1c0-0.2,0-0.3-0.1-0.5c-0.1-0.2-0.1-0.3-0.1-0.5l0.1,0c0,0.1,0,0.3,0.1,0.4
							c0.1,0.1,0.1,0.3,0.1,0.4c0.3-0.2,0.3-0.5,0.3-0.8c0-0.2,0-0.4,0.1-0.5l0.1,0.1c-0.1,0.1-0.1,0.2-0.1,0.4c0,0.3,0,0.7-0.5,1
							L-232.5,383.8z"/>
					</g>
					<g>
						<path d="M-233.1,382.9C-233.1,382.9-233.1,382.9-233.1,382.9l-0.2,0l0.2-0.1c0.1-0.1,0.2-0.3,0.2-0.5c0-0.3,0.1-0.5,0.3-0.8
							l0.1-0.1c0.2-0.3,0.5-0.6,0.4-1.3l0.1,0c0.1,0.8-0.2,1.2-0.5,1.4l-0.1,0.1c-0.2,0.2-0.2,0.5-0.3,0.7c0,0.2-0.1,0.3-0.1,0.4
							c0.3-0.1,0.8-0.3,0.9-0.8l0.1,0C-232,382.7-232.9,382.9-233.1,382.9z"/>
					</g>
					<g>
						<path d="M-233.4,383.8l-0.1,0c0-0.1-0.1-0.1-0.1-0.2c-0.1-0.1-0.3-0.3-0.3-0.6l0.1,0c0,0.2,0.1,0.4,0.3,0.5
							c0,0,0.1,0.1,0.1,0.1c0-0.1,0.1-0.1,0.1-0.2c0.1-0.1,0.3-0.3,0.3-0.7h0.1c0,0.4-0.2,0.6-0.3,0.7
							C-233.3,383.7-233.4,383.7-233.4,383.8z"/>
					</g>
					<g>
						<path d="M-232.6,384c-0.1,0-0.1,0-0.2,0c-0.1,0-0.2-0.1-0.3-0.2c-0.1,0.1-0.2,0.2-0.3,0.2c-0.2,0-0.5-0.1-0.6-0.2l0.1-0.1
							c0.1,0.1,0.3,0.2,0.5,0.2c0.1,0,0.2-0.1,0.3-0.2l0.1-0.1l0.1,0.1c0,0.1,0.1,0.2,0.2,0.2c0.2,0.1,0.5,0,0.6-0.1l0.1,0.1
							C-232.2,384-232.4,384-232.6,384z"/>
					</g>
					<g>
						<path d="M-233.4,383.8l-0.1,0c0-0.1,0-0.2,0-0.4c0-0.3-0.1-0.6,0.1-0.9l0.1,0.1c-0.2,0.3-0.1,0.6-0.1,0.8
							C-233.4,383.5-233.4,383.7-233.4,383.8z"/>
					</g>
					<g>
						<path d="M-234.7,383.5l0-0.1c0.3-0.1,0.3-0.3,0.4-0.5c0.1-0.2,0.1-0.4,0.3-0.5l0,0.1c-0.2,0.1-0.2,0.2-0.3,0.4
							C-234.3,383.2-234.3,383.4-234.7,383.5z"/>
					</g>
					<g>
						<path d="M-231.7,384.5l-0.1,0c0.1-0.3,0-0.5-0.1-0.7l0.1-0.1C-231.6,383.9-231.6,384.2-231.7,384.5z"/>
					</g>
					<g>
						<path d="M-231.5,383.5h-0.1c0-0.4,0-0.6-0.1-0.8l0.1-0.1C-231.6,382.8-231.5,383.1-231.5,383.5z"/>
					</g>
					<g>
						<path d="M-234.3,384.5l-0.1-0.1c0-0.1,0-0.2,0-0.3c0-0.1,0-0.3,0-0.5l0.1,0.1c-0.1,0.1,0,0.3,0,0.4
							C-234.3,384.2-234.3,384.4-234.3,384.5z"/>
					</g>
					<g>
						<path d="M-233,390.5l-0.1,0c0-0.2-0.1-0.4-0.2-0.6c-0.1-0.3-0.3-0.6-0.2-1.1l0.1,0c0,0.5,0.1,0.7,0.2,1
							c0.1,0.1,0.1,0.2,0.1,0.4c0-0.1,0.1-0.3,0.2-0.4c0.1-0.3,0.2-0.5,0.2-0.8h0.1c0,0.3-0.1,0.6-0.2,0.8
							C-232.8,390-232.9,390.2-233,390.5z"/>
					</g>
					<g>
						<path d="M-233,393l0-0.2c0-0.2-0.1-0.4-0.2-0.5c-0.1-0.1-0.1-0.3-0.2-0.5c-0.1-0.7,0-1,0.1-1.3c0.1-0.1,0.1-0.2,0.1-0.4l0.1,0
							c0,0.1,0,0.3-0.1,0.4c-0.1,0.3-0.2,0.6-0.1,1.2c0,0.2,0.1,0.3,0.2,0.5c0,0.1,0.1,0.2,0.1,0.4c0.1-0.1,0.1-0.2,0.2-0.3
							c0.1-0.2,0.3-0.5,0.3-0.8c0-0.5-0.1-1-0.4-1.4l0.1-0.1c0.2,0.4,0.4,0.9,0.4,1.5c0,0.3-0.1,0.6-0.3,0.8
							c-0.1,0.2-0.2,0.3-0.3,0.5L-233,393z"/>
					</g>
					<g>
						<path d="M-232.9,393.6l-0.1,0c0-0.2,0-0.7,0-0.8l0.1,0C-232.9,392.9-232.9,393.4-232.9,393.6z"/>
					</g>
					<g>
						<path d="M-232.9,391.9l-0.1,0c0-0.3,0-0.9,0-1.3c0-0.1,0-0.1,0-0.2l0.1,0l0,0.2C-232.9,390.9-232.9,391.6-232.9,391.9z"/>
					</g>
					<g>
						<path d="M-233,390.4l-0.1,0c0-0.5,0.1-1.7,0.1-2.1l0.1,0C-232.9,388.7-232.9,390-233,390.4z"/>
					</g>
					<g>
						<path d="M-232.3,378.6C-232.3,378.6-232.3,378.6-232.3,378.6l0-0.1c0.1,0,0.3,0,0.3-0.1l0.1,0.1
							C-231.9,378.6-232.1,378.6-232.3,378.6z"/>
					</g>
					<g>
						<path d="M-234.5,379.3l-0.1,0c0-0.2,0.1-0.3,0.3-0.3c0.2-0.1,0.5,0,0.7,0.3l-0.1,0.1c-0.2-0.3-0.4-0.3-0.5-0.2
							C-234.5,379.1-234.5,379.2-234.5,379.3z"/>
					</g>
					<g>
						<path d="M-232.9,383.8L-232.9,383.8c0-0.2,0-0.2-0.1-0.3c0-0.1-0.1-0.2-0.1-0.3l0.1,0c0,0.1,0,0.2,0.1,0.2
							c0,0,0.1,0.1,0.1,0.2c0.1-0.1,0.3-0.2,0.3-0.4l0.1,0C-232.4,383.5-232.7,383.7-232.9,383.8L-232.9,383.8z"/>
					</g>
					<g>
						<path d="M-232.8,383.8l-0.1,0c0.1-0.2,0.2-0.5,0.1-0.8l0.1,0C-232.7,383.2-232.8,383.6-232.8,383.8z"/>
					</g>
					<g>
						<path d="M-233.4,384.6C-233.4,384.6-233.5,384.6-233.4,384.6c-0.2,0-0.4-0.1-0.4-0.3l0.1,0c0,0.1,0.1,0.1,0.2,0.2
							c0.1,0,0.3,0,0.4-0.2l0.1-0.1l0.1,0.1c0.1,0.1,0.2,0.2,0.3,0.2c0.1,0,0.3-0.1,0.3-0.2l0.1,0c0,0.1-0.2,0.2-0.4,0.2
							c-0.2,0-0.3-0.1-0.4-0.2C-233.1,384.5-233.3,384.6-233.4,384.6z"/>
					</g>
					<g>
						<path d="M-233,386.1c-0.2,0-0.4-0.1-0.5-0.2l0.1-0.1c0.1,0.1,0.4,0.2,0.6,0.1l0.1,0.1C-232.8,386.1-232.9,386.1-233,386.1z"/>
					</g>
					<g>
						<path d="M-232.3,383.8L-232.3,383.8c0.1-0.3,0.1-0.9,0-1.2l0.1,0C-232.1,382.8-232.1,383.5-232.3,383.8z"/>
					</g>
					<g>
						<path d="M-232.6,392.6c0-0.1-0.1-0.3-0.1-0.4l0.1,0c0.1,0.1,0.1,0.3,0.1,0.4L-232.6,392.6z"/>
					</g>
					<g>
						<path d="M-232.3,390.7c-0.2-0.1-0.3-0.2-0.4-0.3l0.1-0.1c0.1,0.1,0.2,0.2,0.4,0.3L-232.3,390.7z"/>
					</g>
					<g>
						<path d="M-232.5,389.2c-0.2-0.3-0.4-0.7-0.4-1c0-0.2,0-0.8,0-1.3c0-0.4,0-0.8,0-0.9h0.1c0,0.1,0,0.5,0,0.9c0,0.5,0,1,0,1.3
							C-232.8,388.5-232.6,388.9-232.5,389.2L-232.5,389.2z"/>
					</g>
					<g>
						<path d="M-233,385.6c-0.2,0-0.4-0.1-0.5-0.2c-0.1,0.1-0.1,0.1-0.3,0.2l0-0.1c0.1-0.1,0.2-0.1,0.3-0.2l0.1-0.2l0,0.2
							c0,0.1,0.2,0.2,0.4,0.2c0.2,0,0.4-0.1,0.4-0.2l0-0.2l0.1,0.2c0,0.1,0.1,0.1,0.2,0.2l0,0.1c-0.1,0-0.2-0.1-0.2-0.2
							C-232.7,385.5-232.9,385.6-233,385.6z"/>
					</g>
					<g>
						<path d="M-233.8,385.3L-233.8,385.3c0.1-0.2,0.1-0.4,0.1-0.6l0.1,0c0.1,0.3,0.4,0.4,0.5,0.4s0.4,0,0.5-0.4l0.1,0
							c0,0.1,0.1,0.3,0.2,0.5l-0.1,0.1c-0.1-0.1-0.2-0.2-0.2-0.4c-0.1,0.2-0.3,0.3-0.6,0.3c-0.3,0-0.5-0.1-0.6-0.3
							C-233.7,385-233.7,385.2-233.8,385.3z"/>
					</g>
					<g>
						<path d="M-232,384.8c-0.3-0.2-0.4-0.5-0.4-0.9l0.1,0c0,0.3,0.1,0.6,0.4,0.8L-232,384.8z"/>
					</g>
					<g>
						<path d="M-231.6,383.7c0-0.1-0.1-0.3-0.2-0.4c-0.1-0.1-0.2-0.2-0.2-0.3l0.1,0c0,0.1,0.1,0.2,0.2,0.3c0.1,0.1,0.2,0.2,0.3,0.4
							L-231.6,383.7z"/>
					</g>
					<g>
						<path d="M-231.8,384.3c0-0.2-0.1-0.2-0.2-0.3c-0.1-0.1-0.2-0.2-0.2-0.5l0.1,0c0,0.2,0.1,0.3,0.2,0.4c0.1,0.1,0.2,0.2,0.2,0.4
							L-231.8,384.3z"/>
					</g>
					<g>
						<path d="M-231.6,381.3c-0.2-0.1-0.3-0.5-0.3-1l0.1,0c-0.1,0.5,0,0.8,0.2,0.9L-231.6,381.3z"/>
					</g>
					<g>
						<path d="M-231.6,382.5c-0.1,0-0.2,0-0.3-0.1c-0.1-0.1-0.2-0.3-0.2-0.5c0-0.3,0-0.8,0.2-1l0.1,0.1c-0.1,0.2-0.2,0.6-0.2,0.9
							c0,0.2,0.1,0.3,0.2,0.4c0.1,0.1,0.2,0.1,0.2,0.1L-231.6,382.5C-231.5,382.5-231.6,382.5-231.6,382.5z"/>
					</g>
				</g>
				<g>
					<path d="M-229.5,390.7c-0.1,0-0.2,0-0.3,0l0-0.1c0.2,0,0.3,0,0.5,0l0,0.1C-229.3,390.6-229.4,390.7-229.5,390.7z"/>
				</g>
				<g>
					<path class="st5" d="M-229.7,390.2c-0.1,0-0.2,0-0.3,0"/>
				</g>
				<g>
					<path d="M-230.3,389.4c-0.2,0-0.4,0-0.5-0.1l0.1-0.1c0.1,0.1,0.3,0.1,0.5,0.1V389.4z"/>
				</g>
				<g>
					<path d="M-231.2,389.2l-0.1-0.1c0.2-0.2,0.1-0.5,0.1-0.7l0.1-0.1c0.1,0.2,0.4,0.3,0.7,0.3l0,0.1c-0.2,0-0.4-0.1-0.6-0.2
						C-231,388.8-231.1,389-231.2,389.2z"/>
				</g>
				<g>
					<path d="M-230.5,388.5c-0.4,0-0.8-0.3-1-0.5c-0.4,0-0.9-0.3-1.2-0.7l0.1-0.1c0.3,0.5,0.8,0.7,1.1,0.7c0,0,0,0,0,0l0,0l0,0
						c0.2,0.3,0.7,0.6,1.1,0.5l0,0.1C-230.3,388.4-230.4,388.5-230.5,388.5z"/>
				</g>
				<g>
					<path d="M-230.6,387.9c-0.3,0-0.7-0.2-0.8-0.5c-0.4,0-0.9-0.4-1.1-0.7l0.1-0.1c0.2,0.3,0.6,0.6,1,0.6l0,0l0,0
						c0.2,0.3,0.6,0.5,0.9,0.4l0,0.1C-230.5,387.9-230.6,387.9-230.6,387.9z"/>
				</g>
				<g>
					<path d="M-230.7,387.5c-0.5,0-0.7-0.4-0.8-0.5c-0.6,0-0.9-0.5-1-0.7l0.1,0c0.1,0.2,0.3,0.7,0.9,0.7h0l0,0
						c0.1,0.1,0.3,0.5,0.8,0.5L-230.7,387.5z"/>
				</g>
				<g>
					<path d="M-231.8,389.1l-0.1-0.1c0.2-0.1,0.3-0.3,0.3-0.5c0-0.2,0-0.4-0.2-0.6l0.1-0.1c0.2,0.2,0.3,0.5,0.2,0.7
						C-231.4,388.8-231.6,389-231.8,389.1z"/>
				</g>
				<g>
					<path d="M-229.6,390.9c-0.1-0.2-0.6-0.8-1-1.3c-0.2-0.3-0.5-0.6-0.6-0.7l0.1-0.1c0.1,0.2,0.3,0.4,0.6,0.7
						c0.4,0.5,0.9,1.1,1,1.4L-229.6,390.9z"/>
				</g>
				<g>
					<path d="M-230,389.9c-0.1,0-0.3,0-0.4-0.1l0-0.1c0.1,0.1,0.3,0.1,0.4,0.1L-230,389.9C-230,389.9-230,389.9-230,389.9z"/>
				</g>
				<g>
					<path class="st5" d="M-230.3,382.3c-0.1,0-0.2,0-0.2,0"/>
				</g>
				<g>
					<path d="M-229.1,380L-229.1,380c0.2-0.4,0.6-0.6,1-0.8l0,0.1C-228.5,379.5-228.9,379.8-229.1,380z"/>
				</g>
				<g>
					<path d="M-228,380.6l0-0.1c0.2,0,0.3-0.1,0.5-0.2l0.1,0.1C-227.7,380.5-227.9,380.6-228,380.6z"/>
				</g>
				<g>
					<path d="M-228,380.7l0-0.1c0.5-0.1,0.9-0.2,1.4-0.3l0,0.1C-227.1,380.4-227.5,380.5-228,380.7z"/>
				</g>
				<g>
					<path d="M-225.8,381.8c-0.5-0.1-1.1-0.2-1.6-0.1l0-0.1c0.5,0,1.1,0,1.6,0.1L-225.8,381.8z"/>
				</g>
				<g>
					<path d="M-226.5,383c-0.2,0-0.5,0-0.6-0.1l0-0.1c0.2,0,0.4,0,0.6,0.1L-226.5,383z"/>
				</g>
				<g>
					<path d="M-226.4,383.4c-0.2-0.1-0.4-0.2-0.6-0.3l0.1-0.1c0.2,0.1,0.4,0.2,0.6,0.3L-226.4,383.4z"/>
				</g>
				<g>
					<path d="M-226.9,384.6c-0.2-0.1-0.4-0.1-0.5-0.2l0.1-0.1c0.1,0.1,0.3,0.1,0.5,0.2L-226.9,384.6z"/>
				</g>
				<g>
					<path d="M-227,385.2c-0.2-0.3-0.5-0.6-0.7-0.8l0.1-0.1C-227.3,384.6-227.1,384.8-227,385.2L-227,385.2z"/>
				</g>
				<g>
					<path d="M-228.2,385.8c-0.1-0.2-0.2-0.4-0.3-0.5l0.1-0.1c0.1,0.2,0.2,0.3,0.3,0.5L-228.2,385.8z"/>
				</g>
				<g>
					<path d="M-228.6,385.6L-228.6,385.6c-0.4,0-0.7-0.3-0.9-0.6l0,0l0.1-0.1l0,0c0.2,0.2,0.4,0.5,0.8,0.5c0.3-0.5,0.1-1.2-0.3-1.6
						l0.1-0.1C-228.4,384.3-228.3,385.1-228.6,385.6L-228.6,385.6z"/>
				</g>
				<g>
					<path d="M-229.9,386.4L-229.9,386.4c-0.4-0.4-0.8-0.8-0.8-1.3l0.1,0c0.1,0.5,0.4,0.9,0.7,1.2c0.3-0.4,0.6-0.9,0.3-1.6l0.1-0.1
						C-229.2,385.3-229.5,385.9-229.9,386.4L-229.9,386.4z"/>
				</g>
				<g>
					<path d="M-228.4,386.8c-0.1-0.4-0.1-0.8-0.3-1.2l0.1,0c0.1,0.4,0.2,0.8,0.3,1.3L-228.4,386.8z"/>
				</g>
				<g>
					<path d="M-230.3,387l-0.1-0.1c0.1-0.2,0.2-0.5,0.2-0.9l0.1,0C-230.1,386.4-230.2,386.7-230.3,387z"/>
				</g>
				<g>
					<path d="M-230.8,384.1c-0.1,0-0.3,0-0.4,0c-0.1,0-0.2,0-0.3,0l0-0.1c0.1,0,0.3,0,0.4,0c0.2,0,0.4,0.1,0.8-0.1
						c0.4-0.2,0.6-0.5,0.6-0.9l0.1,0c0,0.5-0.3,0.8-0.7,1C-230.5,384-230.6,384.1-230.8,384.1z"/>
				</g>
				<g>
					<path d="M-230.9,384.3c-0.1,0-0.2,0-0.3,0c-0.1,0-0.3,0-0.3,0l0-0.1c0.1,0,0.2,0,0.4,0c0.3,0,0.7,0,1.1-0.2
						c0.4-0.3,0.7-0.8,0.7-1.4l0.1,0c0,0.6-0.2,1.2-0.7,1.5C-230.3,384.3-230.7,384.3-230.9,384.3z"/>
				</g>
				<g>
					<path d="M-230.6,386.4c-0.1-0.3-0.2-1-0.2-1.3l0.1,0c0,0.2,0.1,1,0.2,1.2L-230.6,386.4z"/>
				</g>
				<g>
					<path d="M-230,385.9c-0.1-0.2-0.2-0.8-0.2-1.1l0.1,0c0,0.2,0.1,0.8,0.2,1L-230,385.9z"/>
				</g>
				<g>
					<path d="M-228.8,385.2c-0.1-0.2-0.3-0.7-0.4-0.9l0.1,0c0,0.2,0.3,0.6,0.4,0.8L-228.8,385.2z"/>
				</g>
				<g>
					<path d="M-227.7,384.1c-0.1,0-0.1-0.1-0.2-0.1c-0.2-0.1-0.5-0.3-0.7-0.4l0-0.1c0.2,0.1,0.5,0.2,0.7,0.4
						c0.1,0.1,0.2,0.1,0.2,0.1L-227.7,384.1z"/>
				</g>
				<g>
					<path d="M-227.4,383c-0.1,0-0.3-0.1-0.4-0.1c-0.2,0-0.4,0-0.5-0.1l0.1-0.1c0.1,0.1,0.3,0.1,0.5,0.1c0.2,0,0.4,0,0.5,0.1
						L-227.4,383z"/>
				</g>
				<g>
					<path d="M-228.5,381.9C-228.5,381.9-228.5,381.9-228.5,381.9l0-0.1c0,0,0,0,0,0c0.1,0,0.2,0,0.3-0.1c0.1,0,0.3-0.1,0.5-0.1
						l0,0.1c-0.2,0-0.3,0.1-0.4,0.1C-228.3,381.9-228.4,381.9-228.5,381.9z"/>
				</g>
				<g>
					<path d="M-229.1,381.2L-229.1,381.2c0.1-0.3,0.6-0.6,0.8-0.7l0,0.1C-228.5,380.8-228.9,381-229.1,381.2z"/>
				</g>
				<g>
					<path d="M-229.9,380.8l-0.1,0c0-0.4,0.5-0.8,0.8-1l0.1,0.1C-229.7,380.2-229.9,380.6-229.9,380.8z"/>
				</g>
				<g>
					<path d="M-229.5,379.9L-229.5,379.9c0.4-0.5,1.5-1.3,2-1.7l0.1,0.1C-227.9,378.7-229,379.5-229.5,379.9z"/>
				</g>
				<g>
					<path d="M-229,380.6l-0.1-0.1c0.3-0.1,1.2-0.7,1.9-1.2l0.4-0.2l0.1,0.1l-0.4,0.2C-227.8,379.8-228.7,380.4-229,380.6z"/>
				</g>
				<g>
					<path d="M-228.4,381.4l0-0.1c0.5,0,1-0.2,1.4-0.4c0.4-0.2,0.8-0.4,1.3-0.4l0,0.1c-0.4,0.1-0.8,0.2-1.2,0.4
						C-227.4,381.2-227.8,381.4-228.4,381.4z"/>
				</g>
				<g>
					<path d="M-227.6,382.5C-227.6,382.5-227.7,382.5-227.6,382.5l0-0.1c0,0,0,0,0,0c0.4,0,2-0.2,2.4-0.2l0,0.1
						C-225.6,382.3-227.2,382.5-227.6,382.5z"/>
				</g>
				<g>
					<path d="M-225.3,384.5c-0.2-0.1-0.7-0.3-1.2-0.5c-0.6-0.2-1.3-0.5-1.7-0.7l0-0.1c0.3,0.1,1,0.4,1.6,0.7c0.5,0.2,1,0.4,1.2,0.5
						L-225.3,384.5z"/>
				</g>
				<g>
					<path d="M-226.9,386.6c-0.3-0.5-1.1-1.8-1.8-2.4l0.1-0.1c0.7,0.7,1.5,1.9,1.8,2.5L-226.9,386.6z"/>
				</g>
				<g>
					<path d="M-228.6,388.5c0-0.2-0.2-0.6-0.4-1.2c-0.2-0.7-0.5-1.4-0.6-1.9l0.1,0c0.1,0.5,0.4,1.2,0.6,1.9c0.2,0.6,0.3,1,0.4,1.2
						L-228.6,388.5z"/>
				</g>
			</g>
			<g>
				<g>
					<path class="st6" d="M-236.6,381.9l0.4-0.3c0.1-0.3,0-0.5,0-0.8L-236.6,381.9z"/>
					<path d="M-236.6,382L-236.6,382l0.3-1.1l0.1,0c0.1,0.3,0.2,0.5,0,0.8l0,0L-236.6,382z M-236.2,381.1l-0.2,0.7l0.2-0.2
						C-236.2,381.4-236.2,381.2-236.2,381.1z"/>
				</g>
				<g>
					<path class="st6" d="M-236.6,381.9l-0.1-0.5c0.1-0.3,0.3-0.4,0.5-0.6L-236.6,381.9z"/>
					<path d="M-236.5,382l-0.1,0l-0.1-0.5l0,0c0.1-0.3,0.3-0.5,0.5-0.6l0.1,0.1L-236.5,382z M-236.7,381.5l0.1,0.3l0.2-0.7
						C-236.5,381.1-236.6,381.3-236.7,381.5z"/>
				</g>
				<g>
					<path class="st6" d="M-236.6,381.9l-0.1-0.5c-0.2-0.2-0.5-0.2-0.8-0.2L-236.6,381.9z"/>
					<path d="M-236.6,382l-0.9-0.7l0-0.1c0.3,0,0.5,0,0.8,0.2l0,0L-236.6,382L-236.6,382z M-237.3,381.3l0.6,0.5l-0.1-0.3
						C-237,381.4-237.1,381.3-237.3,381.3z"/>
				</g>
				<g>
					<path class="st6" d="M-236.6,381.9l-0.5,0c-0.3-0.2-0.3-0.4-0.4-0.7L-236.6,381.9z"/>
					<path d="M-236.6,382l-0.5,0l0,0c-0.3-0.2-0.3-0.4-0.4-0.7l0.1-0.1l0.9,0.7L-236.6,382z M-237.1,381.9l0.3,0l-0.6-0.5
						C-237.3,381.6-237.3,381.7-237.1,381.9z"/>
				</g>
				<g>
					<path class="st6" d="M-236.6,381.9l-0.5,0c-0.3,0.2-0.3,0.4-0.4,0.7L-236.6,381.9z"/>
					<path d="M-237.5,382.6L-237.5,382.6c0-0.3,0.1-0.6,0.4-0.8l0,0l0.5,0l0,0.1L-237.5,382.6z M-237.1,382
						c-0.2,0.1-0.3,0.3-0.3,0.4l0.6-0.4L-237.1,382z"/>
				</g>
				<g>
					<path class="st6" d="M-236.6,381.9l-0.2,0.5c-0.3,0.2-0.5,0.2-0.8,0.2L-236.6,381.9z"/>
					<path d="M-237.3,382.7c-0.1,0-0.1,0-0.2,0l0-0.1l0.9-0.6l0.1,0.1l-0.2,0.5l0,0C-236.9,382.6-237.1,382.7-237.3,382.7z"/>
				</g>
				<g>
					<path class="st6" d="M-236.6,381.9l-0.2,0.5c0.1,0.3,0.3,0.4,0.5,0.6L-236.6,381.9z"/>
					<path d="M-236.3,383.1c-0.2-0.2-0.4-0.3-0.5-0.6l0,0l0,0l0.2-0.5l0.1,0L-236.3,383.1L-236.3,383.1z M-236.7,382.4
						c0.1,0.2,0.2,0.3,0.3,0.4l-0.2-0.7L-236.7,382.4z"/>
				</g>
				<g>
					<path class="st6" d="M-236.6,381.9l0.4,0.3c0.1,0.3,0,0.5-0.1,0.8L-236.6,381.9z"/>
					<path d="M-236.3,383l-0.3-1.1l0.1-0.1l0.4,0.3l0,0c0.1,0.3,0,0.6-0.1,0.8L-236.3,383z M-236.5,382.1l0.2,0.7
						c0.1-0.2,0.1-0.3,0-0.5L-236.5,382.1z"/>
				</g>
				<g>
					<path class="st6" d="M-236.6,381.9l0.4,0.3c0.3,0,0.5-0.1,0.7-0.3L-236.6,381.9z"/>
					<path d="M-236.1,382.3C-236.1,382.3-236.2,382.3-236.1,382.3L-236.1,382.3l-0.1,0l-0.4-0.3l0-0.1l1.1,0l0,0.1
						C-235.6,382.2-235.8,382.3-236.1,382.3z M-236.2,382.2c0.2,0,0.4-0.1,0.5-0.2l-0.8,0L-236.2,382.2z"/>
				</g>
				<g>
					<path class="st6" d="M-236.6,381.9l0.4-0.3c0.3,0,0.5,0.1,0.7,0.3L-236.6,381.9z"/>
					<path d="M-235.5,382l-1.1,0l0-0.1l0.4-0.3l0,0c0,0,0,0,0,0c0.3,0,0.5,0.2,0.7,0.3L-235.5,382z M-236.4,381.9l0.8,0
						c-0.1-0.1-0.3-0.2-0.5-0.2c0,0,0,0,0,0L-236.4,381.9z"/>
				</g>
			</g>
			<g>
				<g>
					<path class="st6" d="M-229.5,381.9l-0.4-0.3c-0.1-0.3,0-0.5,0-0.8L-229.5,381.9z"/>
					<path d="M-229.5,382l-0.4-0.3l0,0c-0.1-0.3,0-0.6,0-0.8l0.1,0L-229.5,382L-229.5,382z M-229.9,381.6l0.2,0.2l-0.3-0.7
						C-229.9,381.3-229.9,381.4-229.9,381.6z"/>
				</g>
				<g>
					<path class="st6" d="M-229.5,381.9l0.1-0.5c-0.1-0.3-0.3-0.4-0.5-0.6L-229.5,381.9z"/>
					<path d="M-229.6,382l-0.4-1.1l0.1-0.1c0.2,0.2,0.5,0.3,0.5,0.6l0,0l0,0l-0.1,0.5L-229.6,382z M-229.7,381l0.3,0.7l0.1-0.3
						C-229.5,381.3-229.6,381.1-229.7,381z"/>
				</g>
				<g>
					<path class="st6" d="M-229.5,381.9l0.1-0.5c0.2-0.2,0.5-0.2,0.8-0.2L-229.5,381.9z"/>
					<path d="M-229.5,382L-229.5,382l0.1-0.6l0,0c0.3-0.2,0.5-0.2,0.8-0.2l0,0.1L-229.5,382z M-229.3,381.5l-0.1,0.3l0.6-0.5
						C-229,381.3-229.1,381.4-229.3,381.5z"/>
				</g>
				<g>
					<path class="st6" d="M-229.5,381.9l0.5,0c0.3-0.2,0.3-0.4,0.4-0.7L-229.5,381.9z"/>
					<path d="M-229.5,382l0-0.1l0.9-0.7l0.1,0.1c-0.1,0.3-0.1,0.5-0.4,0.7l0,0L-229.5,382z M-228.7,381.4l-0.6,0.5l0.3,0
						C-228.8,381.7-228.8,381.6-228.7,381.4z"/>
				</g>
				<g>
					<path class="st6" d="M-229.5,381.9l0.5,0c0.3,0.2,0.3,0.4,0.4,0.7L-229.5,381.9z"/>
					<path d="M-228.6,382.6l-0.9-0.6l0-0.1l0.5,0l0,0C-228.7,382.1-228.6,382.3-228.6,382.6L-228.6,382.6z M-229.3,382l0.6,0.4
						c-0.1-0.2-0.1-0.3-0.3-0.4L-229.3,382z"/>
				</g>
				<g>
					<path class="st6" d="M-229.5,381.9l0.2,0.5c0.3,0.2,0.5,0.2,0.8,0.2L-229.5,381.9z"/>
					<path d="M-228.8,382.7c-0.2,0-0.4,0-0.6-0.2l0,0l-0.2-0.5l0.1-0.1l0.9,0.6l0,0.1C-228.6,382.6-228.7,382.7-228.8,382.7z
						 M-229.3,382.4c0.2,0.1,0.3,0.1,0.5,0.1c0,0,0,0,0,0l-0.6-0.4L-229.3,382.4z"/>
				</g>
				<g>
					<path class="st6" d="M-229.5,381.9l0.2,0.5c-0.1,0.3-0.3,0.4-0.5,0.6L-229.5,381.9z"/>
					<path d="M-229.8,383.1l-0.1-0.1l0.3-1.1l0.1,0l0.2,0.5l0,0C-229.3,382.8-229.6,382.9-229.8,383.1z M-229.5,382.1l-0.2,0.7
						c0.1-0.1,0.3-0.2,0.3-0.4L-229.5,382.1z"/>
				</g>
				<g>
					<path class="st6" d="M-229.5,381.9l-0.4,0.3c-0.1,0.3,0,0.5,0.1,0.8L-229.5,381.9z"/>
					<path d="M-229.9,383c-0.1-0.3-0.2-0.5-0.1-0.8l0,0l0.4-0.3l0.1,0.1l-0.3,1.1L-229.9,383z M-229.8,382.3c-0.1,0.2,0,0.4,0,0.5
						l0.2-0.7L-229.8,382.3z"/>
				</g>
				<g>
					<path class="st6" d="M-229.5,381.9l-0.4,0.3c-0.3,0-0.5-0.1-0.7-0.3L-229.5,381.9z"/>
					<path d="M-230,382.3c-0.3,0-0.5-0.1-0.7-0.3l0-0.1l1.1,0l0,0.1L-230,382.3L-230,382.3C-229.9,382.3-229.9,382.3-230,382.3z"/>
				</g>
				<g>
					<path class="st6" d="M-229.5,381.9l-0.4-0.3c-0.3,0-0.5,0.1-0.7,0.3L-229.5,381.9z"/>
					<path d="M-230.6,382l0-0.1c0.2-0.2,0.4-0.3,0.8-0.3l0,0l0,0l0.4,0.3l0,0.1L-230.6,382z M-229.9,381.7c-0.2,0-0.4,0.1-0.5,0.2
						l0.8,0L-229.9,381.7C-229.9,381.7-229.9,381.7-229.9,381.7z"/>
				</g>
			</g>
		</g>
	</g>
</g>
</svg>
