<?xml version="1.0" encoding="utf-8"?>
<!-- Generator: Adobe Illustrator 19.0.0, SVG Export Plug-In . SVG Version: 6.00 Build 0)  -->
<svg version="1.1" id="Layer_1" xmlns="http://www.w3.org/2000/svg" xmlns:xlink="http://www.w3.org/1999/xlink" x="0px" y="0px"
	 viewBox="-269 374 72 46" style="enable-background:new -269 374 72 46;" xml:space="preserve">
<style type="text/css">
	.st0{clip-path:url(#SVGID_2_);}
	.st1{fill:#003671;}
	.st2{fill:#FFFFFF;}
	.st3{fill:#DC2F34;}
	.st4{fill:#FFED00;}
	.st5{fill:#008E5B;}
	.st6{fill:#DDDDDD;}
	.st7{fill:#5291CE;}
	.st8{fill:#E6E6E6;}
	.st9{fill:#00A083;}
</style>
<g>
	<defs>
		<path id="SVGID_1_" d="M-204,420.3H-262c-3.8,0-7-3.1-7-7V381c0-3.8,3.1-7,7-7h58.1c3.8,0,7,3.1,7,7v32.3
			C-197,417.1-200.1,420.3-204,420.3z"/>
	</defs>
	<clipPath id="SVGID_2_">
		<use xlink:href="#SVGID_1_"  style="overflow:visible;"/>
	</clipPath>
	<g class="st0">
		<g>
			<polygon class="st1" points="-190.6,420.3 -190.6,374 -282.6,374 -282.6,420.3 			"/>
		</g>
		<g>
			<path d="M-190.5,420.4h-92.3v-46.5h92.3V420.4z M-282.5,420.1h91.8v-46h-91.8V420.1z"/>
		</g>
		<g>
			<polygon class="st2" points="-282.6,381.7 -272.9,381.7 -282.6,376.8 -282.6,374 -277.1,374 -263.5,380.8 -263.5,374 -255.9,374 
				-255.9,380.8 -242.3,374 -236.7,374 -236.7,376.8 -246.5,381.7 -236.7,381.7 -236.7,389.4 -246.5,389.4 -236.7,394.3 
				-236.7,397.1 -242.3,397.1 -255.9,390.3 -255.9,397.1 -263.5,397.1 -263.5,390.3 -277.1,397.1 -282.6,397.1 -282.6,394.3 
				-272.9,389.4 -282.6,389.4 			"/>
		</g>
		<g>
			<path d="M-236.6,397.2l-5.8,0l-13.4-6.7v6.7h-7.9v-6.7l-13.4,6.7h-5.7v-3l9.3-4.7h-9.3v-8h9.3l-9.3-4.7v-3l5.7,0l13.4,6.7v-6.7
				h7.9v6.7l13.4-6.7h5.7v3l-9.3,4.7h9.3v8h-9.3l9.3,4.7V397.2z M-242.3,397h5.4v-2.6l-9.7-4.9l0.1-0.2h9.6v-7.5h-9.6l-0.1-0.2
				l9.7-4.9v-2.6h-5.4L-256,381v-6.9h-7.4v6.9l-13.7-6.9h-5.4v2.6l9.6,4.9l-0.1,0.2h-9.6v7.5h9.6l0.1,0.2l-9.6,4.9v2.6h5.4l13.7-6.9
				v6.9h7.4v-6.9L-242.3,397z"/>
		</g>
		<g>
			<polygon class="st3" points="-240.3,374 -255.7,381.7 -252,381.7 -236.7,374 			"/>
		</g>
		<g>
			<path d="M-252,381.8h-3.7l-0.1-0.2l15.4-7.7h3.6l0.1,0.2L-252,381.8z M-255.1,381.6h3.1l14.8-7.5h-3.1L-255.1,381.6z"/>
		</g>
		<g>
			<polygon class="st3" points="-236.7,397.1 -252,389.4 -248.3,389.4 -236.7,395.3 			"/>
		</g>
		<g>
			<path d="M-236.8,397.2l-15.3-7.7l0.1-0.2l3.7,0l11.6,5.9l0.1,0.1v1.8L-236.8,397.2z M-251.5,389.5l14.6,7.4v-1.6l-11.5-5.8
				H-251.5z"/>
		</g>
		<g>
			<polygon class="st3" points="-267.3,381.7 -282.6,374 -282.6,375.8 -271,381.7 			"/>
		</g>
		<g>
			<path d="M-267.3,381.8l-3.8,0l-11.7-5.9l-0.1-0.1V374l0.2-0.1l15.4,7.7L-267.3,381.8z M-271,381.6h3.1l-14.7-7.4v1.6L-271,381.6z
				"/>
		</g>
		<g>
			<polygon class="st3" points="-267.3,389.4 -282.6,397.1 -279,397.1 -263.6,389.4 			"/>
		</g>
		<g>
			<path d="M-279,397.2h-3.7l-0.1-0.2l15.4-7.7h3.7l0.1,0.2L-279,397.2z M-282.1,397h3.1l14.8-7.5h-3.1L-282.1,397z"/>
		</g>
		<g>
			<polygon class="st3" points="-282.6,383.3 -261.9,383.3 -261.9,374 -257.4,374 -257.4,383.3 -236.7,383.3 -236.7,387.8 
				-257.4,387.8 -257.4,397.1 -261.9,397.1 -261.9,387.8 -282.6,387.8 			"/>
		</g>
		<g>
			<path d="M-257.3,397.2h-4.7v-9.3h-20.8v-4.8h20.8v-9.3h4.7v9.3h20.7v4.8h-20.7V397.2z M-261.8,397h4.2v-9.3h20.7v-4.3h-20.7v-9.3
				h-4.2v9.3h-20.8v4.3h20.8V397z"/>
		</g>
		<g>
			<path class="st4" d="M-219.9,398.4c-0.9,0.7-1.7,1.8-1.9,2.8c-0.6,2.7-1.3,3.3-2.5,2.8c0,1.5,1.3,1.6,1.8,0.7
				c0,1.4,0.5,2.6,1.6,3.6c0.5,0.4,0.6,0.1,0.3-0.3c-0.2-0.5-0.2-2-0.7-2.9c0.7,0.5,1.8,0.2,1.7-1.2c-0.9,0.5-1.8,0.5-1.9-0.8
				C-221.5,401.5-220.9,399.3-219.9,398.4L-219.9,398.4z"/>
		</g>
		<g>
			<path d="M-220.4,408.5c-0.1,0-0.2-0.1-0.4-0.2c-1.1-1-1.6-2.1-1.6-3.5c-0.3,0.3-0.7,0.5-1.1,0.4c-0.5-0.1-0.7-0.6-0.7-1.3v-0.1
				l0.1,0c0.4,0.2,0.8,0.3,1.1,0.1c0.6-0.3,1-1.2,1.3-2.8c0.2-1.1,1.1-2.2,1.9-2.8l0.1,0.1c-1,0.9-1.6,3.1-1.5,4.6
				c0,0.5,0.2,0.8,0.5,1c0.3,0.2,0.8,0.1,1.4-0.2l0.1-0.1l0,0.1c0.1,0.9-0.3,1.3-0.6,1.4c-0.3,0.2-0.7,0.2-1,0
				c0.2,0.5,0.3,1.2,0.4,1.7c0.1,0.4,0.1,0.8,0.2,1C-220.3,408-220.2,408.4-220.4,408.5C-220.4,408.5-220.4,408.5-220.4,408.5z
				 M-222.3,404.4v0.2c0,1.4,0.5,2.6,1.6,3.5c0.2,0.2,0.3,0.2,0.3,0.2c0,0,0-0.2-0.1-0.5c-0.1-0.2-0.2-0.6-0.2-1
				c-0.1-0.6-0.2-1.4-0.5-1.9l0.1-0.1c0.3,0.3,0.8,0.3,1.1,0.1c0.3-0.2,0.5-0.6,0.5-1.2c-0.6,0.3-1,0.4-1.4,0.2
				c-0.3-0.2-0.5-0.5-0.5-1.1c-0.1-1.2,0.2-2.8,0.9-3.9c-0.5,0.6-1,1.3-1.2,2.1c-0.4,1.7-0.8,2.6-1.4,2.9c-0.3,0.2-0.7,0.1-1.1-0.1
				c0,0.6,0.3,1,0.6,1.1c0.4,0.1,0.8-0.1,1.1-0.5L-222.3,404.4z"/>
		</g>
		<g>
			<path class="st4" d="M-221,387.5c0.1-0.5-0.1-1.1-0.4-1.4c-0.8-0.7-1.5-0.5-2.1,0.1c-0.8-0.5-1.3,1.2-2.2,0.9
				c0.2,0.5,0.4,0.7,0.9,0.6c-0.5,0.5,0,1-0.6,1.5c1.1,0.3,1.6-0.2,1.6-1.3c0.4,0.4,1,0.3,1.4-0.1c-0.6-0.2-0.6-0.7-0.3-1.1
				C-222.4,386-220.9,386-221,387.5L-221,387.5z"/>
		</g>
		<g>
			<path d="M-224.8,389.3c-0.2,0-0.4,0-0.6-0.1l-0.1,0l0.1-0.1c0.3-0.3,0.3-0.5,0.3-0.8c0-0.2,0-0.4,0.1-0.6c-0.1,0-0.2,0-0.3,0
				c-0.2-0.1-0.3-0.3-0.4-0.6l0-0.1l0.1,0c0.4,0.1,0.8-0.2,1.1-0.5c0.3-0.3,0.7-0.6,1.1-0.4c0.7-0.6,1.4-0.7,2.1-0.1
				c0.4,0.3,0.5,0.9,0.5,1.5l-0.1,0c0.1-0.9-0.5-1.1-0.7-1.2c-0.4-0.1-0.9,0.1-1,0.4c-0.1,0.3-0.2,0.5-0.1,0.7
				c0.1,0.1,0.2,0.3,0.4,0.3l0.1,0l-0.1,0.1c-0.2,0.2-0.4,0.3-0.7,0.3c0,0-0.1,0-0.1,0c-0.2,0-0.4-0.1-0.6-0.2
				c0,0.5-0.2,0.9-0.4,1.1C-224.4,389.2-224.6,389.3-224.8,389.3z M-225.3,389.1c0.4,0.1,0.8,0.1,1-0.1c0.3-0.2,0.4-0.6,0.4-1.1
				l0-0.1l0.1,0.1c0.2,0.2,0.5,0.3,0.7,0.2c0.2,0,0.4-0.1,0.5-0.2c-0.2-0.1-0.3-0.2-0.4-0.4c-0.1-0.2-0.1-0.5,0.1-0.8
				c0.2-0.4,0.7-0.5,1.2-0.4c0.2,0.1,0.4,0.2,0.6,0.4c-0.1-0.2-0.2-0.4-0.3-0.5c-0.9-0.8-1.6-0.3-2,0.1l0,0l0,0
				c-0.4-0.2-0.7,0.1-1,0.4c-0.3,0.3-0.6,0.6-1.1,0.5c0.1,0.2,0.2,0.4,0.3,0.4c0.1,0.1,0.3,0.1,0.4,0l0.1,0.1
				c-0.2,0.2-0.2,0.4-0.2,0.7C-225,388.6-225,388.8-225.3,389.1z"/>
		</g>
		<g>
			<path class="st5" d="M-218.5,395.4c-1.2,0.6-3.4,0.4-3.6-1.2c-0.2-1.6,1.3-2.3,1.7-2.5c0.6-0.3,1.1,0.2,0.9,0.9
				c0.7-0.2,0.9-1.1,0.5-1.5c0.9,0.1,1.8-0.6,2.1-1.6c-0.3,0.3-1.2,0.1-1.9,0.1c0.2-0.2,0.2-0.7,0.2-1c-0.8,0.8-1.9,0.4-3.3,2.7
				c0.2-0.8,0.7-2.4,0.9-3.4c0-0.1,0-0.2,0.1-0.3c0.1-1.5-1.5-1.5-1.8-0.8c0.4,0.4,0.2,0.9,0,1.6c-0.2,0.9-0.5,2.9-0.8,3.6
				c-0.1-1.1-0.8-1.1-0.9-1.6c-0.2,0.1-0.3,0.5-0.3,0.7c-0.2-0.3-1.1,0.1-1.4-0.3c-0.3,0.7,0.2,1.4,0.8,1.6c-0.3,0-0.4,0.4-0.8,0.4
				c0.5,0.6,1,0.8,1.5,0.8c0.6,0,1,0.3,1.3,1C-222.7,395.7-220.5,396.4-218.5,395.4L-218.5,395.4z"/>
		</g>
		<g>
			<path d="M-220.5,395.9c-0.4,0-0.9-0.1-1.2-0.2c-0.7-0.2-1.3-0.7-1.5-1.2c-0.4-0.7-0.8-0.9-1.3-0.9c-0.6-0.1-1.1-0.3-1.6-0.9
				l-0.1-0.1h0.1c0.2,0,0.3-0.1,0.4-0.2c0.1-0.1,0.1-0.1,0.2-0.2c-0.6-0.4-1-1-0.7-1.7l0-0.1l0.1,0.1c0.1,0.2,0.4,0.2,0.7,0.2
				c0.1,0,0.1,0,0.2,0c0.2,0,0.3,0,0.4,0.1c0-0.2,0.1-0.5,0.3-0.7l0.1,0l0,0.1c0,0.2,0.2,0.3,0.3,0.5c0.2,0.2,0.5,0.5,0.6,1
				c0.2-0.7,0.5-2.1,0.6-3l0.1-0.3c0-0.1,0-0.2,0.1-0.4c0.1-0.5,0.2-0.9-0.1-1.2l0,0l0,0c0.2-0.4,0.7-0.5,1.2-0.4
				c0.5,0.1,0.8,0.6,0.8,1.3c0,0.1,0,0.2-0.1,0.3c-0.2,0.9-0.6,2.2-0.8,3c0.9-1.2,1.6-1.6,2.2-1.8c0.3-0.2,0.6-0.3,0.9-0.5l0.1-0.1
				l0,0.1c0.1,0.2,0.1,0.7-0.1,0.9c0.1,0,0.3,0,0.4,0c0.5,0.1,1.1,0.1,1.3-0.1l0.1,0.1c-0.4,1-1.2,1.7-2.1,1.7c0,0,0,0,0,0
				c0.1,0.2,0.2,0.6,0.1,0.8c-0.1,0.3-0.3,0.6-0.7,0.7l-0.1,0l0-0.1c0.1-0.3,0-0.6-0.2-0.8c-0.2-0.1-0.4-0.2-0.7,0l0,0
				c-0.5,0.2-1.8,0.9-1.6,2.4c0.1,0.6,0.5,1,0.9,1.2c0.7,0.4,1.7,0.4,2.5,0c0,0,0.1,0,0.1-0.1l0.1,0.1c0,0-0.1,0-0.1,0.1
				C-219.2,395.8-219.9,395.9-220.5,395.9z M-226,392.8c0.4,0.5,0.9,0.7,1.4,0.7c0.7,0.1,1.1,0.3,1.4,1c0.2,0.5,0.8,0.9,1.4,1.1
				c0.6,0.2,1.2,0.2,1.8,0.1c-0.5,0-0.9-0.1-1.3-0.3c-0.5-0.3-0.9-0.7-0.9-1.3c-0.2-1.6,1.2-2.3,1.7-2.5l0,0
				c0.3-0.1,0.6-0.1,0.8,0.1c0.2,0.2,0.3,0.5,0.2,0.8c0.2-0.1,0.4-0.3,0.5-0.6c0.1-0.3,0-0.6-0.1-0.8l-0.1-0.1l0.1,0
				c0.8,0.1,1.6-0.5,2-1.4c-0.3,0.1-0.8,0.1-1.3,0c-0.2,0-0.4,0-0.5-0.1l-0.1,0l0.1-0.1c0.2-0.2,0.2-0.6,0.2-0.8
				c-0.3,0.2-0.5,0.4-0.8,0.5c-0.6,0.3-1.4,0.6-2.4,2.1l-0.1-0.1c0.2-0.8,0.6-2.4,0.9-3.4c0-0.1,0-0.2,0.1-0.3
				c0.1-0.9-0.5-1.1-0.7-1.2c-0.4-0.1-0.8,0-1,0.3c0.3,0.4,0.2,0.8,0.1,1.3c0,0.1,0,0.2-0.1,0.4l-0.1,0.3c-0.2,1-0.5,2.7-0.7,3.3
				l-0.1,0c-0.1-0.6-0.3-0.9-0.6-1.1c-0.1-0.1-0.3-0.3-0.3-0.4c-0.1,0.2-0.2,0.4-0.2,0.6l0,0.2l-0.1-0.2c-0.1-0.1-0.3-0.1-0.5-0.1
				c-0.1,0-0.1,0-0.2,0c-0.3,0-0.5,0-0.7-0.2c-0.2,0.6,0.2,1.2,0.8,1.5l0.2,0.1l-0.2,0c-0.1,0-0.2,0.1-0.3,0.2
				C-225.8,392.7-225.9,392.8-226,392.8z"/>
		</g>
		<g>
			<path class="st4" d="M-215.6,394c-0.7,1.9-2.5,3.2-3.3,3.4c-1.4,0.3-4.3,1.8-5.1,2.5c-0.1,0-0.2-0.1-0.3-0.1
				c-0.4-0.3-0.7-1.2,0-1.9c2.1-2,4.4-1.1,5.8-2.5c-1.2,0.6-3.4,0.4-3.6-1.2c1.3,0.3,3.6,0.4,5.4-1.6
				C-216.4,392.8-215.7,393.7-215.6,394L-215.6,394z"/>
		</g>
		<g>
			<path d="M-224,400L-224,400c-0.1,0-0.3-0.1-0.4-0.1c-0.2-0.2-0.4-0.5-0.4-0.8c0-0.3,0-0.7,0.4-1.2c1.2-1.1,2.4-1.3,3.5-1.6
				c0.8-0.1,1.4-0.3,2-0.7c-0.7,0.2-1.7,0.2-2.3-0.1c-0.5-0.3-0.9-0.7-0.9-1.3l0-0.1l0.1,0c0.7,0.2,3.3,0.6,5.4-1.6l0,0l0,0.1
				c0.3,0.3,1,1.1,1.1,1.5l0,0l0,0c-0.7,1.9-2.5,3.2-3.4,3.4C-220.3,397.8-223.2,399.2-224,400L-224,400z M-218.5,395.3l0.1,0.1
				c-0.7,0.6-1.5,0.8-2.4,1c-1.1,0.2-2.3,0.4-3.4,1.5c-0.4,0.4-0.4,0.8-0.4,1.1c0,0.3,0.2,0.6,0.4,0.7c0.1,0,0.2,0.1,0.3,0.1
				c0.8-0.7,3.7-2.1,5.1-2.5c0.8-0.2,2.6-1.5,3.3-3.3c-0.1-0.3-0.8-1-1-1.4c-2.1,2.2-4.5,1.8-5.4,1.6c0.1,0.6,0.5,0.9,0.8,1.1
				C-220.4,395.7-219.3,395.7-218.5,395.3z"/>
		</g>
		<g>
			<path class="st5" d="M-219.9,398.4c-1.1,0.9-1.6,3.1-1.5,4.7c0,0.4,0.1,0.7,0.3,0.9c0.1-0.9,0.7-3.1,2.2-4.1
				c1.3-0.8,3.3-2.7,4-4.9c-0.1-0.4-0.4-0.7-0.8-0.9C-216.4,396.1-218.3,397.1-219.9,398.4L-219.9,398.4z"/>
		</g>
		<g>
			<path d="M-221,404.1L-221,404.1c-0.3-0.3-0.4-0.6-0.4-1c-0.1-1.5,0.4-3.8,1.5-4.7l0,0c0.4-0.3,0.8-0.6,1.2-0.9
				c1.2-0.9,2.5-1.8,3-3.3l0-0.1l0.1,0c0.4,0.3,0.7,0.6,0.8,1l0,0l0,0c-0.8,2.3-2.9,4.1-4,4.9c-1.6,1-2.1,3.3-2.2,4L-221,404.1z
				 M-219.8,398.4c-1,0.9-1.6,3.1-1.5,4.6c0,0.3,0.1,0.6,0.2,0.7c0.1-0.9,0.7-3,2.2-4c1.1-0.7,3.2-2.6,4-4.8
				c-0.1-0.3-0.3-0.6-0.7-0.8c-0.6,1.5-1.8,2.4-3,3.3C-219,397.8-219.4,398.1-219.8,398.4L-219.8,398.4z"/>
		</g>
		<g>
			<path class="st5" d="M-216.2,393.1c-0.4,0.6-1.2,1.4-2.1,1.7c0.2-0.2,0.2-0.5,0.2-0.7c-1.1,0.4-3.2,0.4-4,0
				c1.3,0.3,3.6,0.4,5.4-1.6C-216.5,392.8-216.3,392.9-216.2,393.1L-216.2,393.1z"/>
		</g>
		<g>
			<path d="M-218.3,394.9l-0.1-0.1c0.1-0.1,0.2-0.3,0.2-0.5c-1.1,0.4-3.1,0.3-4,0l0-0.1c0.7,0.2,3.3,0.6,5.4-1.6l0-0.1l0,0.1
				c0.2,0.2,0.3,0.4,0.4,0.6l0,0l0,0C-216.6,393.7-217.4,394.5-218.3,394.9z M-218,394L-218,394c0,0.3-0.1,0.5-0.1,0.6
				c0.7-0.3,1.5-1,1.8-1.5c-0.1-0.2-0.2-0.3-0.3-0.5c-1.1,1.1-2.3,1.6-3.3,1.7C-219.2,394.3-218.6,394.3-218,394L-218,394z"/>
		</g>
		<g>
			<path class="st5" d="M-224.3,397.9c-1.7,1.6-0.6,3,0.1,3.3c-0.2,1.1,0.9,1,0.9,1.9c0.4-0.2,0.5-0.9,0.5-1.4
				c0.5,0.6,1.9-0.1,2.2,1c0.2-1.2-0.7-2.4-1.9-2.3c0.5-0.4,0.2-1.1-0.2-1.3c-0.1,0.9-1.1,0.9-1.5,0.6
				C-224.7,399.5-225,398.6-224.3,397.9L-224.3,397.9z"/>
		</g>
		<g>
			<path d="M-223.4,403.3l0-0.1c0-0.4-0.2-0.6-0.4-0.8c-0.3-0.2-0.5-0.5-0.4-1.1c-0.4-0.2-0.9-0.7-1-1.4c-0.1-0.5,0-1.2,0.9-2.1
				l0.1,0.1c-0.4,0.4-0.4,0.8-0.4,1.1c0,0.3,0.2,0.6,0.4,0.7c0.2,0.1,0.6,0.2,0.9,0.1c0.2-0.1,0.4-0.3,0.4-0.6l0-0.1l0.1,0
				c0.3,0.1,0.5,0.4,0.5,0.7c0,0.2,0,0.4-0.1,0.6c0,0,0,0,0,0c0.5,0,0.9,0.2,1.2,0.6c0.5,0.5,0.7,1.2,0.6,1.8l-0.1,0
				c-0.2-0.6-0.7-0.6-1.2-0.7c-0.3,0-0.6,0-0.9-0.2C-222.8,402.4-222.9,403-223.4,403.3L-223.4,403.3z M-224.7,398.4
				c-0.4,0.5-0.5,1-0.4,1.5c0.1,0.7,0.6,1.1,0.9,1.3l0,0l0,0c-0.1,0.6,0.1,0.8,0.4,1c0.2,0.2,0.4,0.4,0.5,0.8
				c0.3-0.3,0.4-0.8,0.4-1.3l0-0.2l0.1,0.1c0.2,0.2,0.6,0.3,0.9,0.3c0.4,0,0.9,0.1,1.2,0.5c0-0.5-0.2-1.1-0.6-1.4
				c-0.4-0.4-0.8-0.6-1.3-0.5l-0.2,0l0.1-0.1c0.2-0.2,0.3-0.4,0.2-0.6c0-0.2-0.2-0.4-0.4-0.5c-0.1,0.4-0.3,0.6-0.5,0.6
				c-0.4,0.2-0.8,0.1-1.1-0.1c-0.2-0.2-0.4-0.5-0.4-0.8C-224.8,398.8-224.8,398.6-224.7,398.4z"/>
		</g>
		<g>
			<path class="st4" d="M-220.6,408.1c-0.2,0.1-0.2,0.4-0.1,0.5c0.2,0.3-0.2,1,0.6,1.2c0.2,0,0.4-0.1,0.5-0.4
				c0.2-0.7-0.5-0.8-0.6-1.1C-220.2,408-220.4,408-220.6,408.1L-220.6,408.1z"/>
		</g>
		<g>
			<path d="M-220,409.9C-220,409.9-220,409.9-220,409.9c-0.6-0.1-0.6-0.5-0.6-0.8c0-0.2,0-0.3-0.1-0.4c-0.1-0.1-0.1-0.2-0.1-0.4
				c0-0.1,0.1-0.2,0.2-0.2l0,0c0.1-0.1,0.2-0.1,0.3,0c0.1,0,0.2,0.1,0.2,0.3c0,0.1,0.1,0.2,0.2,0.3c0.2,0.2,0.5,0.4,0.3,0.9
				C-219.6,409.8-219.8,409.9-220,409.9z M-220.6,408.2c-0.1,0-0.1,0.1-0.1,0.1c0,0.1,0,0.2,0.1,0.3c0.1,0.1,0.1,0.3,0.1,0.5
				c0,0.3,0,0.6,0.5,0.7c0.2,0,0.3-0.1,0.4-0.3c0.1-0.4-0.1-0.6-0.3-0.8c-0.1-0.1-0.3-0.2-0.3-0.3c0-0.1-0.1-0.2-0.1-0.2
				C-220.4,408.1-220.5,408.2-220.6,408.2L-220.6,408.2z"/>
		</g>
		<g>
			<path class="st4" d="M-220,409.5c-0.3,0.1-0.5,0.3-0.4,1.1c0,0.3,0,1.2-0.3,1.2c0.2,0.1,0.6,0.2,0.7,0c0.2,0.3,0.5,0.2,0.6-0.1
				c0.2,0.1,0.4-0.1,0.4-0.3c0.2,0.1,0.5,0,0.4-0.5c0.2,0.1,0.4-0.1,0.5-0.2c-0.3-0.1-1-0.4-1.2-0.7
				C-219.2,409.5-219.7,409.3-220,409.5L-220,409.5z"/>
		</g>
		<g>
			<path d="M-219.6,411.9c-0.1,0-0.2,0-0.3-0.1c-0.2,0.2-0.5,0.1-0.7,0l0-0.1c0,0,0.1,0,0.1,0c0.2-0.2,0.2-0.8,0.1-1
				c-0.1-0.8,0.1-1,0.4-1.2c0.3-0.2,0.8,0,1,0.3c0.2,0.3,0.9,0.7,1.1,0.7l0.1,0l-0.1,0.1c-0.1,0.1-0.3,0.2-0.5,0.2
				c0,0.3-0.1,0.4-0.2,0.5c-0.1,0-0.2,0.1-0.2,0c0,0.1-0.1,0.3-0.2,0.3c-0.1,0-0.1,0-0.2,0C-219.3,411.8-219.4,411.9-219.6,411.9
				C-219.6,411.9-219.6,411.9-219.6,411.9z M-219.8,411.7L-219.8,411.7c0.1,0.1,0.1,0.1,0.2,0.1c0,0,0,0,0,0c0.1,0,0.2-0.1,0.3-0.2
				c-0.1-0.1-0.3-0.4-0.4-0.7l0.1,0c0,0.3,0.3,0.6,0.4,0.7l0,0c0,0,0.1,0,0.1,0c0.1,0,0.2-0.1,0.2-0.2c-0.2-0.1-0.5-0.6-0.6-0.9
				l0.1,0c0.1,0.3,0.4,0.7,0.5,0.8l0,0c0,0,0,0,0,0l0,0c0,0,0.1,0,0.2,0c0.1-0.1,0.2-0.2,0.1-0.4c-0.2-0.1-0.8-0.4-1-0.8l0.1-0.1
				c0.2,0.3,0.6,0.6,0.9,0.7l0.1,0c0.1,0,0.3,0,0.4-0.1c-0.3-0.1-0.9-0.5-1.1-0.7c-0.2-0.3-0.6-0.4-0.8-0.3l0,0
				c-0.2,0.1-0.4,0.2-0.3,1c0,0.3,0,0.9-0.2,1.1c0,0,0,0,0,0c0.2,0.1,0.4,0.1,0.5,0c-0.1-0.2-0.1-0.6,0-0.9l0.1,0
				C-219.9,411.1-219.9,411.5-219.8,411.7z M-219.5,389.7l-0.1-0.1c0.2-0.1,0.5-0.1,0.9-0.1l0,0.1
				C-219,389.6-219.3,389.6-219.5,389.7z M-223.8,386.7l-0.1-0.1c0.1-0.2,0.3-0.3,0.4-0.5l0.1,0.1
				C-223.5,386.3-223.7,386.5-223.8,386.7z"/>
		</g>
		<g>
			<path class="st3" d="M-210.3,396.6c0.2-0.5,0.1-1.1-0.7-1.1c-0.6-0.1-1.2,0.5-2,1.1H-210.3L-210.3,396.6z"/>
		</g>
		<g>
			<path d="M-210.3,396.6h-2.9l0.1-0.1c0.1-0.1,0.2-0.1,0.2-0.2c0.6-0.5,1.2-1,1.7-1c0,0,0.1,0,0.1,0c0.3,0,0.6,0.1,0.7,0.4
				C-210.2,395.9-210.1,396.2-210.3,396.6L-210.3,396.6z M-212.8,396.5h2.5c0.1-0.2,0.1-0.5,0-0.7c-0.1-0.2-0.3-0.3-0.6-0.3
				c0,0,0,0-0.1,0c-0.5,0-1,0.4-1.6,0.9C-212.8,396.5-212.8,396.5-212.8,396.5z"/>
		</g>
		<g>
			<path class="st6" d="M-210.1,395.4c0.3,0.3,0.4,0.8,0.2,1.2h-0.4c0.2-0.5,0.1-1.1-0.7-1.1c-1.1-0.1-2.5,2.1-4.5,2.4
				c-0.6-0.7-0.6-2,0.2-2.7c-0.4-1.1-1.2-2.3-1.8-2.9c-0.4-0.1-0.8-0.1-1.1-0.1c0.3-0.6,1.1-1.3,1.8-1.6c0.1-0.2,0.2-0.3,0.3-0.5
				c0.1-0.9,4.2-0.5,5.1,0.1C-210.9,391.3-210.5,394.5-210.1,395.4L-210.1,395.4z"/>
		</g>
		<g>
			<path d="M-215.5,397.9L-215.5,397.9c-0.6-0.8-0.6-2.1,0.1-2.8c-0.4-1.1-1.2-2.3-1.7-2.8c-0.4-0.1-0.8-0.1-1-0.1l-0.1,0l0-0.1
				c0.3-0.7,1.2-1.3,1.8-1.6c0.1-0.1,0.2-0.3,0.3-0.4c0-0.1,0.1-0.2,0.3-0.3c1-0.5,4.1-0.1,4.9,0.4l0,0v0c0,1,0.4,4.2,0.8,5.1
				c0.3,0.3,0.4,0.8,0.2,1.2l0,0h-0.6l0-0.1c0.1-0.2,0.1-0.5,0-0.8c-0.1-0.2-0.3-0.3-0.6-0.3c0,0,0,0-0.1,0c-0.5,0-1,0.4-1.7,0.9
				C-213.5,397.1-214.4,397.8-215.5,397.9L-215.5,397.9z M-218,392.2c0.3,0,0.6,0,0.9,0.1l0,0l0,0c0.6,0.5,1.4,1.8,1.8,2.9l0,0l0,0
				c-0.7,0.6-0.8,1.8-0.2,2.6c1-0.2,1.9-0.8,2.6-1.4c0.7-0.5,1.3-1,1.8-1c0.3,0,0.6,0.1,0.7,0.4c0.1,0.2,0.2,0.5,0.1,0.8h0.3
				c0.1-0.4,0-0.8-0.2-1.1l0,0c-0.4-0.9-0.8-4.1-0.8-5.1c-0.8-0.4-3.8-0.8-4.7-0.4c-0.1,0.1-0.2,0.1-0.2,0.2l0,0l0,0
				c-0.1,0.2-0.2,0.3-0.3,0.4l0,0l0,0C-216.9,391-217.7,391.6-218,392.2C-218,392.2-218,392.2-218,392.2z"/>
		</g>
		<g>
			<path d="M-215.1,396c-0.1-1.5-0.7-2.7-1.6-3.6c0.4,0.1,1.2,0.1,1.8-0.3c0.7-0.5,2.7-1.4,3.4-1c0.1,0.1,0.1,0.4,0,0.6
				c-0.2-0.5-2,0.2-2.6,0.5c-0.5,0.2-0.7,0.6-0.6,1.3c-0.3-0.2-0.2-0.5-0.5-0.7c0.1,0.3,0.2,0.8,0.3,1.3c-0.1-0.3-0.3-1-0.8-1.3
				c0.4,0.7,0.7,2.5,0.6,3.5c0.3,0,1-0.3,1.2-0.5c-0.2,0.3-0.9,0.6-1.4,0.7c-0.2,0.2-0.3,0.8-0.3,1.2
				C-215.4,397.1-215.3,396.1-215.1,396L-215.1,396z"/>
		</g>
		<g>
			<path d="M-210.1,395.4c-0.4-0.4-1.1-0.6-2-0.4c0.1-0.1,0.4-0.2,0.7-0.2c0-0.2-0.2-1.3-0.3-1.5l0.2-0.1c0.1,0.6,0.3,1.3,0.4,1.6
				c0.1,0,0.3,0.1,0.4,0.1c-0.1-0.2-0.4-1.9-0.4-2.1l0.3-0.2C-210.6,393.5-210.4,394.9-210.1,395.4L-210.1,395.4z"/>
		</g>
		<g>
			<path class="st3" d="M-215.3,391.7c-0.3,0-1.1,0-1.5-0.1c0-0.1,0.1-0.2,0.1-0.3c-0.2,0.2-0.7,0.5-0.9,0.7
				C-217,392-215.8,392.1-215.3,391.7L-215.3,391.7z"/>
		</g>
		<g>
			<path d="M-215.1,396.2c0-0.3-0.1-0.6-0.2-1l0.1,0c0.1,0.4,0.2,0.7,0.2,1L-215.1,396.2z M-216.1,392.5c-0.2,0-0.4,0-0.6-0.1
				c-0.1,0-0.2-0.1-0.4-0.1l0-0.1c0.1,0,0.3,0.1,0.4,0.1c0.4,0.1,1.2,0.1,1.7-0.3c0.1,0,0.1-0.1,0.2-0.1c0.6-0.5,1.8-1.4,3.2-1.6
				c-1.2,0.1-2.4,0.5-3.8,1.5l0,0c-0.6,0.4-1.7,0.3-2.3,0.2l-0.1,0l0.1-0.1c0.1-0.2,0.4-0.4,0.8-0.7c0.1-0.2,0.2-0.4,0.3-0.6
				l0.1,0.1c-0.1,0.2-0.2,0.3-0.3,0.5l0,0.1c0,0.1-0.1,0.2-0.1,0.2c0,0,0,0,0,0c0.4,0.1,1.1,0.2,1.4,0.1c1.4-0.9,2.6-1.4,3.8-1.5
				l0,0.1c0.1,0,0.3,0,0.4-0.1l0,0.1c-1.5,0.1-2.9,1.2-3.6,1.7c-0.1,0.1-0.1,0.1-0.2,0.1C-215.2,392.4-215.7,392.5-216.1,392.5z
				 M-217.4,391.9c0.5,0.1,1.3,0.1,1.8-0.1c-0.4,0-0.9-0.1-1.2-0.2l-0.1,0l0-0.1c0,0,0,0,0,0c0,0,0-0.1,0-0.1c0,0,0,0,0,0
				C-217.1,391.6-217.3,391.8-217.4,391.9z"/>
		</g>
		<g>
			<path class="st5" d="M-208.1,397.9c1.9,1.3,3.3,2.6,3.7,4.6c0.4,2,1.2,2.6,2.1,2c-0.2,1.2-1.4,1.3-2.4,0.4c0.1,1.4-0.4,3-1.8,3.6
				c-0.1-0.8,0.4-1.5,0.3-2.1c-0.1-0.3-0.1-1,0.3-1.3c-0.7,0.2-1.9-0.2-2-1.3c0.9,0.4,2,0.5,2.4-0.6
				C-205.1,402.1-205.3,400.2-208.1,397.9L-208.1,397.9z"/>
		</g>
		<g>
			<path d="M-206.6,408.6L-206.6,408.6c-0.1-0.5,0.1-0.9,0.2-1.2c0.1-0.3,0.2-0.7,0.1-1c-0.1-0.2-0.1-0.8,0.2-1.2
				c-0.4,0.1-0.8,0-1.2-0.3c-0.4-0.3-0.7-0.7-0.7-1.2l0-0.1l0.1,0c0.6,0.3,1.2,0.3,1.6,0.2c0.3-0.1,0.6-0.4,0.7-0.8
				c0.3-0.9,0.5-2.7-2.5-5.2l0.1-0.1c2,1.4,3.3,2.6,3.7,4.6c0.2,1.2,0.6,1.9,1.1,2.1c0.3,0.1,0.6,0.1,0.9-0.1l0.1-0.1l0,0.1
				c-0.1,0.5-0.4,0.9-0.8,1c-0.5,0.2-1.1,0-1.6-0.5C-204.5,406.4-205.1,408-206.6,408.6L-206.6,408.6z M-205.9,405l0.1,0.1
				c-0.3,0.3-0.3,0.9-0.3,1.2c0.1,0.4,0,0.7-0.1,1.1c-0.1,0.3-0.2,0.6-0.2,1c1.3-0.6,1.8-2.2,1.7-3.5l0-0.2l0.1,0.1
				c0.5,0.5,1.1,0.7,1.6,0.5c0.3-0.1,0.6-0.4,0.7-0.8c-0.3,0.2-0.7,0.2-0.9,0.1c-0.5-0.2-0.9-1-1.1-2.2c-0.3-1.6-1.3-2.8-2.7-3.9
				c2.2,2.2,2,3.8,1.7,4.6c-0.2,0.4-0.4,0.7-0.8,0.8c-0.4,0.2-1,0.1-1.6-0.1c0.1,0.4,0.3,0.7,0.6,1
				C-206.8,405.1-206.3,405.2-205.9,405z"/>
		</g>
		<g>
			<path class="st4" d="M-208.1,397.9c2.8,2.3,2.9,4.2,2.5,5.3c-0.2-1-1.4-2.6-2.6-3L-208.1,397.9L-208.1,397.9z"/>
		</g>
		<g>
			<path d="M-205.6,403.4l0-0.2c-0.2-1-1.4-2.6-2.5-3l0,0l0-2.4l0.1,0.1c3,2.5,2.9,4.4,2.5,5.3L-205.6,403.4z M-208.1,400.1
				c1.1,0.4,2.2,1.8,2.5,2.8c0.3-0.9,0.2-2.6-2.5-4.9L-208.1,400.1z"/>
		</g>
		<g>
			<path class="st5" d="M-213,396.6h5.1c0,0,0,1.4,0,6.1c0,5.2-2.9,8.3-5.8,9.9c-2.9-1.6-5.8-4.7-5.8-9.9c0-4.7,0-6.1,0-6.1h3.6
				c0,0.3,0,0.8,0.4,1.3C-214.6,397.8-213.7,397.1-213,396.6L-213,396.6z"/>
		</g>
		<g>
			<path d="M-213.7,412.6L-213.7,412.6c-2.2-1.2-5.9-4.1-5.9-10v-6.2h3.7l0,0.1c0,0.4,0.1,0.8,0.4,1.2c0.9-0.1,1.9-0.8,2.4-1.2l0,0
				h5.2v6.2C-207.8,408.5-211.5,411.4-213.7,412.6L-213.7,412.6z M-219.4,396.6v6c0,5.7,3.6,8.6,5.7,9.8c2.2-1.2,5.7-4.1,5.7-9.8v-6
				h-5c-0.5,0.4-1.6,1.2-2.5,1.3l0,0l0,0c-0.4-0.5-0.4-1-0.4-1.2H-219.4z"/>
		</g>
		<g>
			<path class="st7" d="M-213,396.6h5.1c0,0,0,1.4,0,6.1c0,1.6-0.3,2.9-0.7,4.1l-5.1-9.4l-5.1,9.4c-0.4-1.2-0.7-2.6-0.7-4.1
				c0-4.7,0-6.1,0-6.1h3.6c0,0.6,0.2,1,0.4,1.3C-214.8,397.8-213.8,397.2-213,396.6L-213,396.6z"/>
		</g>
		<g>
			<path d="M-208.6,407l-0.1-0.1l-5-9.3l-5.1,9.4l0-0.1c-0.5-1.3-0.7-2.7-0.7-4.2v-6.2h3.7l0,0.1c0,0.6,0.2,0.9,0.4,1.2
				c0.8-0.1,1.7-0.7,2.4-1.2l0,0h5.2v6.2c0,1.5-0.2,2.9-0.7,4.2L-208.6,407z M-213.7,397.3l0.1,0.1l5,9.3c0.4-1.2,0.7-2.6,0.7-4v-6
				h-5c-0.7,0.6-1.7,1.2-2.5,1.3l0,0l0,0c-0.2-0.3-0.4-0.6-0.4-1.2h-3.5v6c0,1.4,0.2,2.8,0.7,4L-213.7,397.3z"/>
		</g>
		<g>
			<path class="st4" d="M-213.5,396.9l5,9.4c-0.1,0.3-0.3,0.7-0.4,1l-4.9-9.1l-4.9,9.1c-0.1-0.3-0.3-0.7-0.4-1l4.8-9
				C-213.9,397.2-213.6,397-213.5,396.9L-213.5,396.9z"/>
		</g>
		<g>
			<path d="M-208.8,407.5l-4.9-9.1l-4.9,9.1l-0.1-0.1c-0.1-0.3-0.3-0.7-0.4-1l0,0l0,0l4.8-9l0,0c0.2-0.1,0.4-0.3,0.6-0.4l0.1,0
				l0,0.1l5.1,9.5l0,0c-0.1,0.3-0.3,0.7-0.4,1L-208.8,407.5z M-218.9,406.4c0.1,0.3,0.2,0.6,0.3,0.9l4.9-9.1l0.1,0.1l4.8,9
				c0.1-0.3,0.2-0.6,0.3-0.9l-5-9.3c-0.2,0.1-0.4,0.3-0.5,0.4L-218.9,406.4z"/>
		</g>
		<g>
			<path class="st4" d="M-211.4,409.7c0.1,0.1,0.4,0.2,0.5,0.2c0.3-0.5,0.3-1.3,0.2-2c-0.3,0.7-1.3,0.7-1.5,1.2
				c0.2,0.1,0.3,0.2,0.5,0.3c-0.3,0.3-1.1,0.9-1.6,1v-4.8c0-0.3-0.1-0.6-0.1-0.9c0,0,0-0.8,0-1c0-0.2,0-0.6-0.2-0.6
				s-0.2,0.3-0.2,0.6c0,0.2,0,1,0,1c0,0.3-0.1,0.6-0.1,0.9v4.8c-0.2-0.7-1.2-0.5-1.7-1.2c0.2,0,0.4-0.1,0.5,0
				c-0.3-1.2-1.3-1.2-1.4-1.6c0,0.5-0.2,1.6,0.1,2.1c0.1-0.1,0.2-0.2,0.3-0.3c0.4,0.8,2.1,0.8,2.5,2.2
				C-213.4,411.2-212.2,410.6-211.4,409.7L-211.4,409.7z"/>
		</g>
		<g>
			<path d="M-213.7,411.8l0-0.1c-0.2-0.8-0.9-1.1-1.5-1.4c-0.4-0.2-0.8-0.4-1-0.8c-0.1,0.1-0.2,0.1-0.2,0.2l-0.1,0.1l0-0.1
				c-0.2-0.4-0.2-1.1-0.1-1.6c0-0.2,0-0.3,0-0.4l0.1,0c0.1,0.1,0.2,0.2,0.3,0.3c0.4,0.2,0.9,0.5,1.1,1.3l0,0.1l-0.1,0
				c-0.1,0-0.3,0-0.4,0c0.2,0.3,0.5,0.4,0.8,0.5c0.3,0.1,0.5,0.2,0.7,0.4v-4.6c0-0.2,0-0.3,0.1-0.5c0-0.2,0.1-0.3,0.1-0.4v-1
				c0-0.4,0.1-0.6,0.3-0.6s0.3,0.2,0.3,0.6v1c0,0.1,0,0.3,0.1,0.4c0,0.2,0.1,0.3,0.1,0.5v4.8c0.4-0.2,1.1-0.6,1.4-1
				c-0.1-0.1-0.2-0.2-0.4-0.2l-0.1,0l0-0.1c0.1-0.2,0.4-0.3,0.7-0.4c0.4-0.2,0.7-0.3,0.9-0.7l0.1,0c0.1,0.8,0,1.5-0.2,2l0,0.1
				l-0.1,0c-0.1,0-0.3-0.1-0.5-0.2c-0.4,0.4-0.9,0.8-1.3,1.1c-0.4,0.3-0.8,0.6-0.9,0.8L-213.7,411.8z M-216.2,409.4L-216.2,409.4
				c0.2,0.4,0.6,0.6,1,0.8c0.6,0.3,1.2,0.6,1.5,1.4c0.2-0.2,0.5-0.5,0.9-0.8c0.4-0.3,0.9-0.7,1.3-1.1l0,0l0,0c0.1,0,0.3,0.2,0.4,0.2
				c0.2-0.4,0.3-1,0.2-1.7c-0.2,0.3-0.6,0.5-0.9,0.6c-0.2,0.1-0.4,0.2-0.6,0.3c0.1,0.1,0.3,0.2,0.4,0.3l0.1,0l-0.1,0.1
				c-0.3,0.3-1.1,0.9-1.6,1.1l-0.1,0v-4.9c0-0.2,0-0.3-0.1-0.5c0-0.1-0.1-0.3-0.1-0.4v-1c0-0.2,0-0.5-0.2-0.5s-0.2,0.3-0.2,0.5v1
				c0,0.1,0,0.3-0.1,0.5c0,0.2-0.1,0.3-0.1,0.4v4.8l-0.1,0c-0.1-0.3-0.4-0.4-0.7-0.6c-0.3-0.1-0.7-0.2-0.9-0.6l0-0.1l0.1,0
				c0.2,0,0.3-0.1,0.5,0c-0.2-0.7-0.7-0.9-1-1.1c-0.1-0.1-0.2-0.1-0.3-0.2c0,0.1,0,0.2,0,0.3c0,0.5-0.1,1.1,0.1,1.5
				C-216.4,409.5-216.3,409.5-216.2,409.4L-216.2,409.4z"/>
		</g>
		<g>
			<path class="st4" d="M-213.7,405.7c0.4,0,1.6-0.1,2-0.1c0.1,0,0.2-0.2,0.2-0.4s-0.1-0.4-0.2-0.4c-0.4,0-1.7-0.1-2-0.1
				c-0.4,0-1.6,0.1-2,0.1c-0.1,0-0.2,0.2-0.2,0.4s0.1,0.4,0.2,0.4C-215.3,405.5-214.1,405.7-213.7,405.7L-213.7,405.7z"/>
		</g>
		<g>
			<path d="M-213.7,405.7c-0.2,0-0.6,0-1-0.1c-0.4,0-0.8-0.1-1.1-0.1c-0.2,0-0.3-0.2-0.3-0.4s0.1-0.4,0.3-0.4c0.2,0,0.7,0,1.1-0.1
				c0.4,0,0.8-0.1,1-0.1s0.6,0,1,0.1c0.4,0,0.9,0.1,1.1,0.1c0.2,0,0.3,0.2,0.3,0.4s-0.1,0.4-0.3,0.4c-0.2,0-0.7,0-1.1,0.1
				C-213.1,405.7-213.5,405.7-213.7,405.7z M-213.7,404.7c-0.2,0-0.6,0-0.9,0.1c-0.4,0-0.9,0.1-1.1,0.1c-0.1,0-0.1,0.1-0.1,0.3
				s0.1,0.3,0.1,0.3c0.2,0,0.7,0,1.1,0.1c0.4,0,0.8,0.1,0.9,0.1s0.6,0,0.9-0.1c0.4,0,0.9-0.1,1.1-0.1c0.1,0,0.1-0.1,0.1-0.3
				s-0.1-0.3-0.1-0.3c-0.2,0-0.7,0-1.1-0.1C-213.1,404.7-213.5,404.7-213.7,404.7z"/>
		</g>
		<g>
			<path class="st4" d="M-213.9,403.7c-0.1-0.1-0.2-0.1-0.3-0.1c-0.3,0-0.5,0.2-0.5,0.4c0,0.2,0.2,0.4,0.5,0.4
				c0.3,0,0.5-0.2,0.5-0.4c0-0.2,0.3-0.2,0.3,0c0,0.4-0.3,0.7-0.7,0.7c-0.4,0-0.7-0.3-0.7-0.7c0-0.4,0.3-0.7,0.7-0.7
				c0.1,0,0.2,0,0.3,0.1C-213.9,403.5-213.9,403.6-213.9,403.7L-213.9,403.7z"/>
		</g>
		<g>
			<path d="M-211.3,409.7L-211.3,409.7c0.3-0.5,0.5-0.8,0.6-1.2l0.1,0C-210.7,409-211,409.4-211.3,409.7z M-216.2,409.5l-0.1-0.1
				c0.2-0.1,0.3-0.2,0.5-0.2l0,0.1C-215.9,409.4-216,409.4-216.2,409.5z M-213.3,405.7v-0.1c0.1,0,0.2-0.2,0.2-0.4s-0.1-0.4-0.2-0.4
				v-0.1c0.2,0,0.3,0.2,0.3,0.6S-213.1,405.7-213.3,405.7z M-214.2,405.7v-0.1c0.1,0,0.2-0.2,0.2-0.4s-0.1-0.4-0.2-0.4v0
				c0,0-0.1,0-0.1,0c0.1,0.1,0.1,0.3,0.1,0.4c0,0.3-0.1,0.5-0.3,0.5v-0.1c0.1,0,0.2-0.2,0.2-0.4s-0.1-0.4-0.2-0.4v-0.1
				c-0.3-0.1-0.6-0.4-0.6-0.7c0-0.4,0.4-0.7,0.8-0.7c0.1,0,0.3,0,0.4,0.1l0,0l0,0c0,0.1,0,0.2,0,0.3v0.1l-0.1-0.1
				c-0.1-0.1-0.2-0.1-0.3-0.1c-0.2,0-0.4,0.2-0.4,0.4s0.2,0.4,0.4,0.4s0.4-0.2,0.4-0.4c0-0.3,0.4-0.3,0.4,0c0,0.3-0.2,0.6-0.6,0.7
				c0.1,0.1,0.2,0.3,0.2,0.5C-213.9,405.5-214,405.7-214.2,405.7z M-214.2,403.4c-0.4,0-0.7,0.3-0.7,0.6s0.3,0.6,0.7,0.6
				s0.7-0.3,0.7-0.6c0-0.1-0.1-0.1-0.1-0.1c0,0-0.1,0-0.1,0.1c0,0.3-0.2,0.5-0.5,0.5s-0.5-0.2-0.5-0.5s0.2-0.5,0.5-0.5
				c0.1,0,0.2,0,0.2,0.1c0,0,0-0.1,0-0.1C-214.1,403.4-214.1,403.4-214.2,403.4z M-213,405.7v-0.1c0.1,0,0.2-0.2,0.2-0.4
				s-0.1-0.4-0.2-0.4v-0.1c0.2,0,0.3,0.2,0.3,0.5S-212.9,405.7-213,405.7z M-211.8,405.6v-0.1c0.1,0,0.1-0.1,0.1-0.3
				s-0.1-0.3-0.1-0.3v-0.1c0.2,0,0.3,0.2,0.3,0.5S-211.7,405.6-211.8,405.6z M-215.6,405.6L-215.6,405.6c0,0-0.1,0-0.2,0v-0.1
				c0.1,0,0.1-0.1,0.1-0.3s-0.1-0.3-0.1-0.3v-0.1c0.1,0,0.1,0,0.2,0.1v-0.1c0.2,0,0.3,0.2,0.3,0.4S-215.4,405.6-215.6,405.6z
				 M-215.5,404.8c0,0.1,0.1,0.2,0.1,0.3s0,0.2-0.1,0.3c0.1,0,0.1-0.2,0.1-0.3S-215.5,404.9-215.5,404.8z"/>
		</g>
		<g>
			<path class="st2" d="M-214.7,400.9c0-0.1,0.1-0.2,0.2-0.2c0.1-0.1,0.2-0.1,0.3-0.1h1.5c0.1,0,0.1,0,0.1,0.1v2
				c0,0.1,0,0.1-0.1,0.1h-2L-214.7,400.9"/>
		</g>
		<g>
			<path d="M-212.8,402.8h-2l0-2c0-0.1,0.1-0.2,0.2-0.2l0.1-0.1c0.1-0.1,0.2-0.1,0.3-0.1h1.5c0.1,0,0.2,0.1,0.2,0.2v2
				C-212.6,402.8-212.6,402.8-212.8,402.8z M-214.7,402.7h1.9c0.1,0,0.1,0,0.1-0.1v-2c0-0.1,0-0.1-0.1-0.1h-1.5
				c-0.1,0-0.1,0-0.2,0.1l-0.1,0.1c-0.1,0.1-0.1,0.1-0.1,0.2V402.7z"/>
		</g>
		<g>
			<path class="st8" d="M-213.1,403c0.2,0,0.2,0,0.3-0.1c0.1-0.1,0.1-0.1,0.1-0.3v-1.8c0-0.1,0-0.1-0.1-0.1h-1.4
				c-0.1,0-0.2,0-0.3,0.1c-0.1,0.1-0.2,0.1-0.2,0.2v2H-213.1L-213.1,403z"/>
		</g>
		<g>
			<path d="M-213.1,403h-1.6v-2.1c0-0.1,0.1-0.2,0.2-0.2l0.1,0c0.1-0.1,0.2-0.1,0.3-0.1h1.4c0.1,0,0.2,0.1,0.2,0.2v1.9
				c0,0.1,0,0.1-0.1,0.3c0,0,0,0-0.1,0.1C-212.9,403-212.9,403-213.1,403z M-214.6,402.9h1.5c0.1,0,0.1,0,0.2-0.1c0,0,0,0,0.1-0.1
				c0.1-0.1,0.1-0.1,0.1-0.2v-1.9c0,0,0-0.1,0-0.1c0,0,0,0-0.1,0h-1.4c-0.1,0-0.1,0-0.2,0.1l-0.1,0c-0.1,0.1-0.1,0.1-0.1,0.1V402.9z
				"/>
		</g>
		<g>
			<path class="st2" d="M-213,402.9c0,0.1,0,0.1-0.1,0.1h-1.5c-0.1,0-0.1,0-0.1-0.1v-2c0-0.1,0-0.1,0.1-0.1h1.5c0.1,0,0.1,0,0.1,0.1
				V402.9L-213,402.9z"/>
		</g>
		<g>
			<path d="M-213.1,403.1h-1.5c-0.1,0-0.2-0.1-0.2-0.2v-2c0-0.1,0.1-0.2,0.2-0.2h1.5c0.1,0,0.2,0.1,0.2,0.2v2
				C-212.9,403.1-213,403.1-213.1,403.1z M-214.6,400.8C-214.6,400.8-214.6,400.8-214.6,400.8C-214.6,400.8-214.7,400.8-214.6,400.8
				l-0.1,2.1c0,0,0,0.1,0,0.1c0,0,0,0,0.1,0h1.5c0.1,0,0.1,0,0.1-0.1v-2c0-0.1,0-0.1-0.1-0.1H-214.6z"/>
		</g>
		<g>
			<path class="st5" d="M-205.7,387.3c0.6-1.5,2.1-1.4,2.6-0.7c1.5-0.9,1.7,1.1,3,0.7c0,0.4-0.4,0.7-0.9,0.7
				c0.5,0.5-0.2,1.1,0.9,1.5c-0.9,0.5-2.2,0-2.5-1.3c-0.3,0.6-1.3,0.6-1.8,0.1c0.9-0.2,0.9-1.1,0.3-1.4
				C-204.6,386.6-205.5,386.7-205.7,387.3L-205.7,387.3z"/>
		</g>
		<g>
			<path d="M-200.9,389.7c-0.2,0-0.5-0.1-0.7-0.2c-0.5-0.2-0.9-0.6-1.1-1.2c-0.1,0.2-0.4,0.3-0.7,0.4c-0.4,0.1-0.9-0.1-1.1-0.4
				l-0.1-0.1l0.1,0c0.4-0.1,0.6-0.3,0.7-0.6c0-0.3-0.1-0.6-0.3-0.7c-0.3-0.2-0.7-0.2-1-0.1c-0.2,0.1-0.3,0.2-0.4,0.3
				c0,0,0,0.1-0.1,0.1l-0.1,0c0-0.1,0-0.1,0.1-0.1c0.4-0.8,1-1,1.3-1.1c0.5-0.1,1,0.1,1.3,0.4c0.8-0.5,1.3-0.1,1.7,0.3
				c0.4,0.3,0.7,0.6,1.2,0.4l0.1,0l0,0.1c0,0.4-0.4,0.7-0.8,0.7c0.1,0.2,0.1,0.4,0.1,0.6c0,0.3,0,0.6,0.6,0.9l0.1,0.1l-0.1,0.1
				C-200.3,389.7-200.6,389.7-200.9,389.7z M-202.6,388.1l0,0.2c0.2,0.6,0.5,1,1,1.2c0.4,0.2,0.9,0.2,1.3,0
				c-0.5-0.3-0.5-0.6-0.5-0.9c0-0.2,0-0.4-0.2-0.6l-0.1-0.1l0.2,0c0.4,0,0.8-0.2,0.8-0.5c-0.6,0.1-0.9-0.2-1.3-0.5
				c-0.4-0.4-0.8-0.7-1.6-0.3l0,0l0,0c-0.3-0.3-0.8-0.5-1.3-0.4c-0.4,0.1-0.7,0.3-1,0.6c0.1,0,0.1-0.1,0.2-0.1
				c0.4-0.1,0.8-0.1,1.2,0.1c0.3,0.2,0.4,0.5,0.4,0.8c0,0.3-0.3,0.6-0.6,0.7c0.2,0.2,0.6,0.3,0.9,0.2c0.3,0,0.5-0.2,0.7-0.4
				L-202.6,388.1z"/>
		</g>
		<g>
			<path class="st5" d="M-210.2,390.7c0.4,1.4,1.3,2.6,2.2,3.5c1.1,1,2.7,0.7,3.6-0.2c0,1.9-1.9,2-3,1.4c-0.5-0.3-0.9-0.1-0.4,0.3
				c0.7,0.6,2.2,1.1,4,1.5c3.1,0.7,2,3.2,1.1,3.2c0.3,0,0.5-0.3,0.1-0.6c-2.7-2.5-8.3-1.5-8.2-7c-0.6,1.4-3,0.9-1.9-0.8
				c0.4,0.3,1,0.3,1.2-0.1c0.1-0.4,0-1-0.6-1.5c0.1,0,0.3,0,0.3-0.3c0,0.2,0.2,0.4,0.5,0.3c0.1,0.2,0.2,0.3,0.4,0.2
				c0,0,0.1-0.1,0.1-0.2C-210.8,390.6-210.4,390.7-210.2,390.7L-210.2,390.7z"/>
		</g>
		<g>
			<path d="M-202.7,400.4C-202.7,400.4-202.7,400.4-202.7,400.4l0-0.1c0.1,0,0.2-0.1,0.2-0.1c0-0.1,0-0.2-0.2-0.4
				c-0.9-0.8-2.2-1.3-3.4-1.7c-2.3-0.8-4.7-1.6-4.8-5.1c-0.2,0.4-0.6,0.6-1,0.6c-0.4,0-0.8-0.1-1-0.5c-0.2-0.3-0.1-0.8,0.2-1.3
				l0-0.1l0.1,0c0.2,0.2,0.5,0.2,0.7,0.2c0.1,0,0.3-0.1,0.3-0.3c0.1-0.4,0-0.9-0.6-1.4l-0.1-0.1l0.2,0c0.1,0,0.1,0,0.2-0.1
				c0,0,0-0.1,0-0.1l0.1,0c0,0,0,0.1,0.1,0.2c0.1,0.1,0.2,0.1,0.3,0l0,0l0,0c0.1,0.2,0.2,0.2,0.3,0.2c0,0,0.1,0,0-0.1c0,0,0,0,0,0
				l0.1,0c0,0,0,0,0,0c0,0.1,0.1,0.1,0.1,0.2c0.1,0.1,0.3,0.1,0.4,0.1l0.1,0l0,0c0.4,1.2,1.2,2.5,2.2,3.5c1.1,1,2.7,0.7,3.5-0.2
				l0.1-0.1l0,0.2c0,0.9-0.4,1.3-0.8,1.5c-0.7,0.4-1.7,0.3-2.3,0c-0.3-0.2-0.5-0.1-0.5-0.1c0,0,0,0.1,0.2,0.3c0.6,0.5,1.9,1,4,1.5
				c2.1,0.5,2.2,1.7,2.1,2.1C-201.8,399.9-202.2,400.4-202.7,400.4z M-210.8,392.7l0.1,0c-0.1,3.6,2.2,4.4,4.7,5.2
				c1.3,0.4,2.5,0.9,3.5,1.7c0.2,0.2,0.2,0.4,0.2,0.5c0.3-0.2,0.5-0.6,0.5-1c0.1-0.9-0.6-1.7-2-1.9c-2.1-0.5-3.4-0.9-4-1.5
				c-0.3-0.2-0.3-0.4-0.2-0.5c0.1-0.1,0.4-0.1,0.7,0.1c0.6,0.3,1.5,0.4,2.2,0c0.4-0.3,0.7-0.7,0.7-1.3c-0.9,0.8-2.5,1.1-3.6,0.1
				c-1-0.9-1.8-2.2-2.2-3.5c-0.1,0-0.3,0-0.4-0.1c0,0-0.1-0.1-0.1-0.1c0,0-0.1,0-0.1,0.1c-0.2,0.1-0.3-0.1-0.4-0.2
				c-0.1,0-0.3,0-0.4-0.1c0,0-0.1-0.1-0.1-0.1c0,0,0,0,0,0c0,0.1-0.1,0.1-0.2,0.1c0.5,0.5,0.6,1.1,0.5,1.5c-0.1,0.2-0.2,0.3-0.4,0.4
				c-0.3,0.1-0.6,0-0.8-0.2c-0.3,0.4-0.3,0.8-0.2,1.1c0.2,0.3,0.5,0.4,0.9,0.4C-211.4,393.5-211,393.2-210.8,392.7z"/>
		</g>
		<g>
			<path class="st4" d="M-207.4,395.4c1.3,0.9,2.8,0.9,4.1-0.7c0.4-0.5,1.1-0.9,1.6-1c0.5,0,0.4-0.5,0.8-0.6
				c-0.2-0.1-0.3-0.3-0.7-0.3c0.8-0.3,0.6-1,1-1.3c-0.3,0.1-0.9-0.4-1.3,0.3c0.1-0.3,0-0.6-0.2-0.8c0,0.3-0.7,0.4-0.8,1.3
				c-0.1,0.5-0.3,0.5-0.4-0.3c0-0.5-0.3-2.1-0.6-2.8s-0.4-1.8,0-2c-0.1-0.1-0.2-0.2-0.3-0.3c-0.5-0.3-1.4-0.2-1.6,0.4
				c-0.6,1.5,1.1,2.4,0.9,4.1c-0.2-1.2-2.2-1.6-2.2-2.8c-0.7,0.3-0.6,0.8-0.3,1.3c-0.4-0.6-1.3,0.4-2.1-0.5
				c-0.1,1.1,0.9,1.6,1.7,1.6c-0.4,0.7,0.1,1.3,0.7,1.5c0-1.3,2.6-0.7,2.6,1.4C-204.4,395.8-206.4,396-207.4,395.4L-207.4,395.4z"/>
		</g>
		<g>
			<path d="M-205.7,396.1c-0.7,0-1.3-0.3-1.8-0.6l0.1-0.1c0.6,0.3,1.5,0.4,2.2,0c0.5-0.3,0.7-0.8,0.7-1.4c0-1.4-1.1-2-1.8-2
				c0,0,0,0,0,0c-0.4,0-0.7,0.2-0.7,0.6l0,0.1l-0.1,0c-0.3-0.1-0.7-0.4-0.8-0.8c-0.1-0.3-0.1-0.5,0-0.8c-0.3,0-1-0.1-1.4-0.6
				c-0.2-0.3-0.4-0.6-0.3-1.1l0-0.1l0.1,0.1c0.4,0.4,0.8,0.4,1.2,0.3c0.2,0,0.5-0.1,0.6,0c-0.1-0.2-0.1-0.4,0-0.6
				c0.1-0.2,0.2-0.4,0.5-0.5l0.1,0l0,0.1c0,0.6,0.5,1,1,1.4c0.4,0.3,0.8,0.6,1.1,1c0-0.6-0.3-1.1-0.5-1.6c-0.4-0.7-0.7-1.3-0.4-2.2
				c0.1-0.2,0.3-0.4,0.6-0.6c0.4-0.1,0.8-0.1,1.2,0.1c0.1,0.1,0.2,0.2,0.3,0.3l0,0.1l-0.1,0c-0.1,0-0.1,0.1-0.2,0.2
				c-0.2,0.4-0.1,1.1,0.2,1.7c0.3,0.8,0.6,2.3,0.6,2.8c0,0.5,0.1,0.6,0.1,0.6h0c0,0,0.1-0.1,0.1-0.3c0.1-0.5,0.4-0.8,0.6-0.9
				c0.2-0.1,0.2-0.2,0.2-0.3l0-0.2l0.1,0.1c0.1,0.1,0.2,0.4,0.2,0.6c0.3-0.3,0.6-0.2,0.9-0.1c0.1,0,0.3,0.1,0.4,0l0.1,0.1
				c-0.1,0.1-0.2,0.3-0.3,0.5c-0.1,0.3-0.2,0.5-0.5,0.7c0.1,0,0.2,0.1,0.2,0.2c0.1,0.1,0.1,0.1,0.2,0.1l0.2,0.1l-0.2,0.1
				c-0.1,0-0.2,0.1-0.3,0.2c-0.1,0.1-0.2,0.3-0.5,0.3c-0.4,0-1.1,0.5-1.5,0.9C-204.1,395.7-204.9,396.1-205.7,396.1z M-206.7,395.7
				c0.9,0.4,2.1,0.3,3.3-1.1c0.4-0.5,1.1-0.9,1.6-1c0.2,0,0.3-0.2,0.4-0.3c0.1-0.1,0.1-0.2,0.2-0.2c0,0-0.1-0.1-0.1-0.1
				c-0.1-0.1-0.2-0.2-0.4-0.2l0-0.1c0.5-0.2,0.6-0.5,0.7-0.8c0-0.1,0.1-0.3,0.2-0.4c-0.1,0-0.2,0-0.3,0c-0.3-0.1-0.6-0.1-0.9,0.3
				l-0.1-0.1c0.1-0.2,0-0.4-0.1-0.6c0,0.1-0.1,0.2-0.2,0.2c-0.2,0.2-0.5,0.4-0.5,0.9c0,0.2-0.1,0.4-0.2,0.4c0,0,0,0,0,0
				c-0.1,0-0.2-0.2-0.3-0.7c0-0.5-0.3-2-0.6-2.8c-0.2-0.6-0.4-1.4-0.2-1.8c0-0.1,0.1-0.2,0.2-0.2c-0.1-0.1-0.1-0.1-0.2-0.2
				c-0.3-0.2-0.7-0.2-1-0.1c-0.2,0.1-0.4,0.3-0.5,0.5c-0.3,0.8,0,1.4,0.4,2.1c0.3,0.6,0.6,1.2,0.6,2l-0.1,0c-0.1-0.6-0.6-1-1.1-1.3
				c-0.5-0.4-1.1-0.8-1.1-1.4c-0.2,0.1-0.3,0.2-0.3,0.4c-0.1,0.3,0,0.6,0.1,0.8l-0.1,0.1c-0.2-0.3-0.4-0.2-0.7-0.1
				c-0.4,0.1-0.8,0.2-1.3-0.2c0,0.3,0.1,0.6,0.3,0.8c0.4,0.5,1.1,0.6,1.4,0.6l0.1,0l0,0.1c-0.1,0.3-0.2,0.5-0.1,0.8
				c0.1,0.3,0.4,0.5,0.6,0.7c0-0.4,0.4-0.6,0.8-0.6c0,0,0,0,0,0c0.8,0,1.9,0.7,1.9,2.2c0,0.9-0.4,1.3-0.8,1.5
				C-205.6,395.8-206.1,395.8-206.7,395.7z"/>
		</g>
		<g>
			<path class="st4" d="M-203.8,397.2c3.1,0.7,2,3.2,1.1,3.2c-0.6,0-1.1-0.5-1.2-0.9c-0.7,0.4-0.5,1.1,0,1.4c-1.4-0.2-2,0.8-2,1.8
				c0.3-0.5,1-0.5,1.3-0.4c0.3,0.1,1,0.2,1.3-0.2c-0.2,0.2,0.2,0.7-0.2,1.1c1.2,0,1.7-1.2,1.5-1.6
				C-200.4,400-200.7,397.8-203.8,397.2L-203.8,397.2z"/>
		</g>
		<g>
			<path d="M-203.6,403.2l0.1-0.1c0.2-0.2,0.1-0.4,0.1-0.6c0-0.1,0-0.2,0-0.2c-0.4,0.2-1,0.1-1.2,0.1c-0.3-0.1-1-0.1-1.3,0.4l-0.1,0
				c0-0.6,0.2-1.2,0.6-1.5c0.3-0.3,0.7-0.4,1.3-0.4c-0.2-0.2-0.3-0.4-0.3-0.6c0-0.3,0.2-0.5,0.5-0.7l0.1,0l0,0.1
				c0,0.4,0.6,0.9,1.1,0.9c0,0,0,0,0,0c0.4,0,0.8-0.5,0.9-1.1c0.1-0.9-0.6-1.7-2-1.9l0-0.1c1.5,0.3,2.5,1,2.8,1.9
				c0.2,0.8-0.1,1.7-0.8,2.4c0.1,0.2,0,0.6-0.2,0.9c-0.3,0.5-0.8,0.7-1.4,0.8L-203.6,403.2z M-203.2,402.1c-0.1,0.1,0,0.2,0,0.3
				c0,0.2,0.1,0.4-0.1,0.6c0.5-0.1,0.9-0.3,1.1-0.7c0.2-0.3,0.3-0.6,0.2-0.8l0,0l0,0c0.7-0.7,1-1.5,0.8-2.3c-0.2-0.6-0.6-1-1.2-1.4
				c0.7,0.5,0.7,1.2,0.7,1.5c-0.1,0.6-0.5,1.2-1,1.2c0,0,0,0,0,0c-0.5,0-1.1-0.4-1.2-0.9c-0.2,0.1-0.3,0.3-0.3,0.5
				c0,0.3,0.2,0.5,0.4,0.7l0,0.1c-0.6-0.1-1,0-1.4,0.3c-0.3,0.3-0.5,0.7-0.6,1.2c0.4-0.3,1-0.4,1.3-0.3
				C-204.3,402.2-203.6,402.3-203.2,402.1c-0.1-0.1-0.1-0.1-0.1-0.1L-203.2,402.1C-203.2,402-203.2,402.1-203.2,402.1z"/>
		</g>
		<g>
			<path class="st4" d="M-206.2,407.9c0.2,0.1,0.2,0.4,0,0.6c-0.3,0.3,0.1,1.2-0.7,1.3c-0.3,0-0.4-0.1-0.5-0.4
				c-0.2-0.8,0.6-0.9,0.7-1.2C-206.6,407.8-206.4,407.8-206.2,407.9L-206.2,407.9z"/>
		</g>
		<g>
			<path d="M-206.9,409.9c-0.2,0-0.4-0.2-0.5-0.5c-0.2-0.6,0.2-0.8,0.4-1c0.1-0.1,0.3-0.2,0.3-0.3c0-0.2,0.1-0.3,0.2-0.3
				c0.1,0,0.2,0,0.4,0.1l0,0c0.1,0.1,0.2,0.1,0.2,0.3c0,0.1,0,0.3-0.1,0.4c-0.1,0.1-0.1,0.3-0.1,0.5
				C-206.2,409.3-206.3,409.8-206.9,409.9C-206.9,409.9-206.9,409.9-206.9,409.9z M-206.4,407.9
				C-206.4,407.9-206.5,407.9-206.4,407.9c-0.1,0-0.2,0.1-0.2,0.2c0,0.2-0.2,0.3-0.3,0.4c-0.2,0.2-0.5,0.4-0.4,0.8
				c0,0.2,0.2,0.4,0.5,0.4c0.5-0.1,0.5-0.4,0.5-0.7c0-0.2,0-0.4,0.1-0.5c0.1-0.1,0.1-0.2,0.1-0.3c0-0.1-0.1-0.1-0.1-0.2l0,0
				C-206.3,408-206.4,407.9-206.4,407.9z"/>
		</g>
		<g>
			<path class="st4" d="M-207,409.4c0.3,0.1,0.5,0.3,0.4,1.2c-0.1,0.4-0.1,1.3,0.3,1.3c-0.2,0.1-0.6,0.2-0.8-0.1
				c-0.2,0.3-0.6,0.2-0.7-0.2c-0.2,0.2-0.5-0.1-0.5-0.4c-0.2,0.1-0.5-0.1-0.4-0.6c-0.2,0.1-0.5-0.1-0.6-0.2c0.3-0.1,1.1-0.4,1.3-0.8
				C-207.8,409.4-207.3,409.2-207,409.4L-207,409.4z"/>
		</g>
		<g>
			<path d="M-207.4,412.1C-207.4,412.1-207.5,412.1-207.4,412.1c-0.2,0-0.4-0.1-0.4-0.3c-0.1,0-0.2,0-0.2,0
				c-0.1-0.1-0.2-0.2-0.3-0.4c-0.1,0-0.2,0-0.3-0.1c-0.1-0.1-0.2-0.2-0.2-0.6c0,0,0,0,0,0c-0.2,0-0.4-0.1-0.5-0.3l-0.1-0.1l0.1,0
				c0.3,0,1.1-0.4,1.3-0.8c0.2-0.4,0.7-0.5,1.1-0.3c0.3,0.2,0.6,0.4,0.4,1.3c-0.1,0.4-0.1,1,0.1,1.2c0,0,0.1,0.1,0.1,0.1l0,0.1
				c-0.2,0.1-0.6,0.2-0.8,0C-207.2,412.1-207.3,412.1-207.4,412.1z M-207.8,411.7c0.1,0.1,0.2,0.2,0.3,0.3c0,0,0,0,0,0
				c0.1,0,0.2,0,0.2-0.1l0,0c0.1-0.1,0.1-0.6,0.1-0.9l0.1,0c0,0.3,0,0.8-0.1,1c0.1,0.1,0.4,0.1,0.6,0.1c0,0,0,0,0,0
				c-0.2-0.3-0.2-1-0.1-1.3c0.2-0.9-0.1-1.1-0.3-1.2l0,0c-0.3-0.2-0.8,0-0.9,0.3c-0.2,0.3-0.9,0.7-1.3,0.8c0.1,0.1,0.3,0.2,0.4,0.1
				l0.1,0c0.3-0.1,0.8-0.4,1-0.8l0.1,0.1c-0.3,0.4-0.9,0.8-1.1,0.9c-0.1,0.3,0.1,0.4,0.1,0.5c0.1,0,0.1,0.1,0.2,0l0.1,0
				c0.2-0.1,0.6-0.6,0.6-0.9l0.1,0c-0.1,0.3-0.5,0.9-0.7,1c0,0.1,0.1,0.2,0.2,0.3c0.1,0,0.1,0,0.2,0L-207.8,411.7
				c0-0.2,0.3-0.5,0.3-0.8l0.1,0C-207.4,411.3-207.6,411.6-207.8,411.7z"/>
		</g>
		<g>
			<path class="st4" d="M-210.8,392.7c0,2.3,0.9,3.5,2.2,4.2c-0.5-0.3-0.3-1.3-0.9-1.6c0.2,0,0.4,0.2,0.8,0.1
				c-0.2-0.4-0.5-1.1-1.2-1.2c0.2,0,0.6,0,0.9-0.1C-209.4,393.6-210.4,393.9-210.8,392.7L-210.8,392.7z"/>
		</g>
		<g>
			<path d="M-208.6,397c-1.6-0.9-2.3-2.3-2.3-4.3l0.1,0c0.2,0.7,0.6,0.9,1,1c0.3,0.1,0.5,0.2,0.7,0.5l0,0.1l-0.1,0
				c-0.1,0.1-0.3,0.1-0.5,0.1c0,0,0,0,0,0c0.5,0.2,0.7,0.8,0.9,1.1l0,0.1l-0.1,0c-0.2,0-0.4,0-0.5,0c0.2,0.2,0.3,0.5,0.3,0.7
				c0.1,0.3,0.2,0.6,0.4,0.7L-208.6,397z M-210.7,393.1c0,1.7,0.6,2.8,1.9,3.7c-0.1-0.1-0.1-0.3-0.2-0.5c-0.1-0.3-0.2-0.7-0.5-0.9
				l-0.2-0.1l0.2,0c0.1,0,0.1,0,0.2,0.1c0.1,0,0.3,0.1,0.5,0.1c-0.2-0.4-0.5-1-1.2-1.1l0-0.1c0.1,0,0.2,0,0.3,0c0.2,0,0.4,0,0.5,0
				c-0.1-0.2-0.3-0.2-0.6-0.3C-210.1,393.7-210.5,393.6-210.7,393.1z"/>
		</g>
		<g>
			<path class="st4" d="M-211,390.5c-0.1,0-0.1-0.1-0.2-0.2c-0.4,0.1-0.5-0.1-0.5-0.3c0,0.3-0.2,0.2-0.3,0.3
				c0.6,0.5,0.7,1.1,0.6,1.5c-0.2,0.5-0.8,0.4-1.2,0.1c0,1,1.2,1.3,1.6,0.1c0,0.2,0.3,0.2,0.3,0.5
				C-210.4,391.9-210.6,391.2-211,390.5L-211,390.5z"/>
		</g>
		<g>
			<path d="M-211.9,392.8c-0.1,0-0.1,0-0.2,0c-0.3-0.1-0.7-0.4-0.6-0.9l0-0.1l0.1,0.1c0.2,0.2,0.5,0.2,0.7,0.2
				c0.1,0,0.3-0.1,0.3-0.3c0.1-0.4,0-0.9-0.6-1.4l-0.1-0.1l0.2,0c0.1,0,0.1,0,0.2-0.1c0,0,0-0.1,0-0.1l0.1,0c0,0,0,0.1,0.1,0.2
				c0.1,0.1,0.2,0.1,0.3,0l0,0l0,0c0.1,0.1,0.1,0.2,0.2,0.2l0,0l0,0c0.5,0.8,0.6,1.5,0.3,2l-0.1,0.1l0-0.1c0-0.1-0.1-0.2-0.2-0.2
				c0,0-0.1-0.1-0.1-0.1C-211.3,392.6-211.6,392.8-211.9,392.8z M-212.6,392c0,0.4,0.3,0.6,0.5,0.7c0.3,0.1,0.7-0.1,1-0.7l0.1,0
				c0,0.1,0,0.1,0.1,0.1c0.1,0,0.1,0.1,0.2,0.2c0.2-0.4,0-1-0.4-1.7c-0.1,0-0.2-0.1-0.2-0.2c-0.1,0-0.3,0-0.4-0.1
				c0,0-0.1-0.1-0.1-0.1c0,0,0,0,0,0c0,0.1-0.1,0.1-0.2,0.1c0.5,0.5,0.6,1.1,0.5,1.5c-0.1,0.2-0.2,0.3-0.4,0.4
				C-212.1,392.2-212.4,392.2-212.6,392z"/>
		</g>
		<g>
			<path class="st9" d="M-213,385.9c-0.6-0.5-0.8-1.4-0.8-1.9c0-0.5,0.2-1,0.9-0.8c-0.2,0-0.1,0.5-0.3,0.5c0.2,0.1,0.4-0.1,0.5-0.2
				c0,0.2,0.3,0.1,0.4,0.3c0.1-0.1,0-0.5-0.2-0.6c0.1-0.1,0.2-0.4,0.1-0.6c-0.1,0-0.3,0.2-0.3,0.4c0.1-0.2,0-0.6-0.3-0.7
				c-0.1,0.1-0.1,0.4,0,0.6c-0.3-0.1-0.7,0.1-0.8,0.4c0-0.3,0.1-0.7,0.2-1c0.1-0.1-0.1-0.2-0.2,0c-0.2-0.4-0.8-0.7-1.1-0.4
				c-0.3,0.2-0.6-0.1-0.8,0.2c-0.2,0.3-0.9,0.4-0.9,0.7c0,0.2,0,0.5-0.1,0.7c-0.3,0.3,0.1,0.5,0.2,0.8c0-0.9,1.3-2.5,2.7-1.9
				c-0.1,0.2-0.2,0.6-0.3,1.2c-0.1,0.8,0.1,1.9,0.8,2.5L-213,385.9L-213,385.9z"/>
		</g>
		<g>
			<path d="M-213.3,386.1L-213.3,386.1c-0.8-0.7-0.9-1.9-0.8-2.6c0-0.5,0.1-0.9,0.2-1.1c-0.6-0.3-1.1,0-1.5,0.2
				c-0.7,0.4-1.1,1.2-1,1.7l-0.1,0c0-0.1-0.1-0.1-0.1-0.2c-0.1-0.2-0.3-0.4,0-0.6c0.1-0.1,0.1-0.4,0.1-0.6c0-0.2,0.2-0.4,0.5-0.5
				c0.2-0.1,0.4-0.2,0.4-0.3c0.1-0.2,0.3-0.2,0.5-0.2c0.1,0,0.2,0,0.3-0.1c0.1-0.1,0.3-0.1,0.4-0.1c0.3,0.1,0.5,0.2,0.7,0.5
				c0,0,0.1-0.1,0.1-0.1h0c0.1,0,0.1,0,0.1,0.1c0,0.1,0,0.1,0,0.2c-0.1,0.2-0.2,0.5-0.2,0.7c0.2-0.1,0.4-0.2,0.6-0.2c0,0,0,0,0,0
				c-0.1-0.2,0-0.4,0-0.6l0,0l0,0c0.1,0,0.2,0.1,0.3,0.2c0,0.1,0.1,0.2,0.1,0.2c0.1-0.1,0.2-0.2,0.2-0.2l0.1,0l0,0.1
				c0,0.2,0,0.5-0.1,0.6c0.1,0.1,0.2,0.3,0.2,0.4c0,0.1,0,0.2-0.1,0.2l-0.1,0.1l0-0.1c0-0.1-0.1-0.1-0.1-0.1c-0.1,0-0.1,0-0.2-0.1
				c0,0-0.1,0.1-0.1,0.1c-0.1,0.1-0.3,0.1-0.4,0l-0.2-0.1l0.2,0c0.1,0,0.1-0.1,0.1-0.2c0-0.1,0-0.1,0.1-0.2c-0.2,0-0.3,0-0.4,0.1
				c-0.2,0.2-0.3,0.5-0.3,0.7c0,0.4,0.2,1.3,0.8,1.8l0.1,0.1L-213.3,386.1z M-213.8,382.4c-0.1,0.2-0.2,0.7-0.3,1.1
				c0,0.5,0,1.7,0.8,2.4l0.2,0c-0.5-0.5-0.8-1.3-0.7-1.9c0-0.3,0.1-0.6,0.3-0.8c0.2-0.1,0.4-0.1,0.7-0.1l0,0.1c0,0-0.1,0-0.1,0.2
				c0,0.1,0,0.1-0.1,0.2c0,0,0.1,0,0.1,0c0.1,0,0.1-0.1,0.1-0.1l0.1-0.2l0.1,0.2c0,0,0.1,0.1,0.1,0.1c0,0,0.1,0,0.1,0.1c0,0,0,0,0,0
				c0-0.2-0.1-0.3-0.2-0.4l-0.1-0.1l0.1-0.1c0.1,0,0.1-0.3,0.1-0.4c-0.1,0-0.2,0.1-0.2,0.3c0,0,0,0,0,0.1l-0.1,0c0,0,0,0,0-0.1
				c0-0.1,0-0.3-0.1-0.4c0-0.1-0.1-0.1-0.2-0.2c-0.1,0.1-0.1,0.4,0,0.5l0.1,0.1l-0.2,0c-0.3-0.1-0.7,0.1-0.7,0.3l-0.1,0
				c0-0.4,0.1-0.8,0.3-1c0,0,0,0,0,0c0,0,0,0,0,0l0,0c0,0,0,0-0.1,0.1L-213.8,382.4L-213.8,382.4L-213.8,382.4L-213.8,382.4z
				 M-215.3,382c-0.1,0-0.2,0-0.3,0.1c-0.1,0.2-0.3,0.3-0.5,0.4c-0.3,0.1-0.4,0.2-0.4,0.3c0,0.2,0,0.6-0.2,0.7
				c-0.1,0.2-0.1,0.3,0.1,0.4c0,0,0,0,0,0.1c0.1-0.5,0.5-1.2,1.1-1.5c0.5-0.4,1.1-0.4,1.6-0.2c-0.1-0.2-0.4-0.4-0.6-0.5
				c-0.1,0-0.3,0-0.3,0.1c-0.1,0.1-0.3,0.1-0.4,0.1C-215.3,382-215.3,382-215.3,382z"/>
		</g>
		<g>
			<path class="st3" d="M-212.6,383.3c0-0.2,0.3-0.5,0.8-0.5c0.6,0,1,0.5,1.5,0.5c0.5-0.1,0.2,0.2,0.1,0.3s-0.2,0.2-0.1,0.3
				c0,0.1,0,0.2-0.2,0.1c-0.4-0.3-0.8,0.1-1.3-0.1C-212.3,383.7-212.6,383.6-212.6,383.3L-212.6,383.3z"/>
		</g>
		<g>
			<path d="M-210.4,384c0,0-0.1,0-0.2-0.1c-0.2-0.1-0.4-0.1-0.6-0.1c-0.2,0-0.5,0.1-0.7,0l0,0c-0.5-0.2-0.7-0.3-0.8-0.6l0,0
				c0-0.1,0-0.2,0.1-0.3c0.1-0.1,0.4-0.3,0.7-0.3c0,0,0,0,0,0c0.3,0,0.6,0.1,0.8,0.3c0.2,0.1,0.4,0.2,0.7,0.2c0.1,0,0.3,0,0.3,0.1
				c0,0.1-0.1,0.2-0.2,0.3c-0.1,0-0.1,0.1-0.1,0.2C-210.2,383.9-210.2,384-210.4,384C-210.3,384-210.3,384-210.4,384z M-210.9,383.8
				c0.1,0,0.3,0,0.4,0.1c0.1,0.1,0.1,0,0.1,0c0,0,0,0,0-0.1c0-0.1,0-0.3,0.1-0.4c0.1,0,0.1-0.1,0.1-0.1l0,0c0,0,0,0-0.2,0
				c-0.2,0-0.5-0.1-0.7-0.2c-0.2-0.1-0.5-0.2-0.7-0.3c0,0,0,0,0,0c-0.3,0-0.6,0.1-0.7,0.2c-0.1,0.1-0.1,0.1-0.1,0.2l0,0
				c0,0.2,0.2,0.3,0.7,0.5l0,0c0.2,0.1,0.5,0.1,0.7,0C-211.1,383.8-211,383.8-210.9,383.8z"/>
		</g>
		<g>
			<path class="st6" d="M-214.9,388.6c-0.2-0.7-1.1-1.5-1.5-1.7l0-0.4c0.2-0.1,0.8-0.5,1-0.8c1.7,0.8,4-0.3,5-1.5l0.4,0.2l-0.2,0.3
				l-0.2-0.1c-0.3,0.3-1.2,1.2-1.5,1.4c0.4,0.1,0.9,0.2,1.1,0.2c0.9-0.7,1.7-1.3,2-1.3l0.3,0.4l-0.3,0.2l-0.2-0.1
				c-1,0.8-2.2,2.7-2.6,3.9C-212.2,389.1-214.5,389.2-214.9,388.6L-214.9,388.6z"/>
		</g>
		<g>
			<path d="M-211.5,389.3L-211.5,389.3c-0.2,0-0.5-0.1-0.9-0.1c-0.9-0.1-2.2-0.1-2.5-0.6l0,0c-0.2-0.7-1.1-1.5-1.5-1.6l0,0l0-0.5
				l0,0c0.2-0.1,0.7-0.5,1-0.7l0,0l0,0c1.7,0.8,3.9-0.4,5-1.5l0,0l0.5,0.3l-0.3,0.4l-0.2-0.1c-0.3,0.3-1,1-1.4,1.3
				c0.3,0.1,0.8,0.1,0.9,0.1c0,0,0,0,0,0c0.2-0.1,0.4-0.3,0.6-0.4c0.7-0.5,1.2-0.9,1.5-0.9l0,0l0.4,0.5l-0.4,0.3l-0.2-0.1
				c-0.8,0.7-1.7,1.9-2.2,3c0,0,0,0,0,0l0,0C-211.3,388.8-211.4,389-211.5,389.3L-211.5,389.3z M-214.9,388.6
				c0.3,0.4,1.5,0.5,2.4,0.6c0.3,0,0.6,0,0.8,0.1c0.1-0.2,0.2-0.5,0.3-0.8c0,0,0,0,0,0c-0.1-0.1-0.4-0.2-0.9-0.3
				c-0.3-0.1-1.7-0.2-2.5-0.2c-0.1,0-0.1,0-0.2,0c0,0.1,0,0.2,0,0.4l-0.1,0c-0.2-0.9,0.1-1.8,0.5-2.1l0,0l0,0c0.9,0.6,2.3,0.6,3.2,0
				c-0.2,0-0.6-0.1-0.9-0.2l0,0l0,0l-0.1,0l0,0c-0.1,0-0.1,0-0.2-0.1c-0.2,0.2-0.7,0.3-1.2,0.3l0-0.1c0.6,0,1-0.2,1.2-0.3l0,0l0,0
				c0.1,0,0.2,0.1,0.3,0.1c0.3-0.2,1.2-1.1,1.5-1.4l0,0l0.2,0.1l0.1-0.2l-0.3-0.2c-1,1.1-3.3,2.3-5,1.5c-0.2,0.2-0.7,0.6-1,0.7
				l0,0.3C-215.9,387.1-215.1,387.8-214.9,388.6z M-214.5,387.8c0.8,0,2,0.1,2.3,0.2c0.1,0,0.7,0.1,0.9,0.3c0.6-1.1,1.4-2.3,2.2-3
				l0,0l0.2,0.1l0.2-0.1l-0.2-0.3c-0.3,0.1-0.8,0.4-1.4,0.9c-0.2,0.1-0.4,0.3-0.6,0.4l0,0c0,0,0,0,0,0l0,0c-0.9,0.7-2.5,0.7-3.5,0.1
				c-0.3,0.2-0.5,0.8-0.5,1.5C-214.7,387.8-214.6,387.8-214.5,387.8L-214.5,387.8l-0.3-0.3l0.3-0.3l0.3,0.3L-214.5,387.8z"/>
		</g>
		<g>
			<path class="st9" d="M-214,383.6c-0.3-0.4-1-0.5-1.1,0c-0.1,0.2-0.2,0.4-0.3,0.5c-0.2,0.1-0.1,0.4-0.1,0.5c0.2,0.3,0,0.6,0.4,0.9
				c0-0.3,0.4-0.5,0.7-0.6c0.3-0.1,0.8-0.4,0.9-0.7C-213.5,383.9-213.4,383.6-214,383.6L-214,383.6z"/>
		</g>
		<g>
			<path d="M-215.1,385.6L-215.1,385.6c-0.3-0.2-0.4-0.4-0.4-0.6c0-0.1,0-0.2-0.1-0.4c-0.1-0.2-0.1-0.5,0.1-0.6
				c0.1-0.1,0.2-0.2,0.3-0.5c0.1-0.2,0.2-0.3,0.4-0.4c0.3,0,0.6,0.1,0.8,0.3c0.2,0,0.4,0.1,0.5,0.2c0.1,0.1,0.1,0.3,0,0.5l0,0.1
				c-0.1,0.4-0.6,0.7-0.9,0.7c-0.3,0.1-0.7,0.3-0.7,0.5V385.6z M-214.6,383.3C-214.7,383.3-214.7,383.3-214.6,383.3
				c-0.2,0-0.4,0.1-0.4,0.3c-0.1,0.3-0.2,0.5-0.4,0.6c-0.1,0.1-0.1,0.3,0,0.5c0.1,0.1,0.1,0.3,0.1,0.4c0,0.2,0,0.3,0.2,0.4
				c0.1-0.3,0.4-0.5,0.7-0.5c0.3-0.1,0.8-0.3,0.8-0.6l0-0.1c0-0.2,0.1-0.3,0-0.4c-0.1-0.1-0.2-0.1-0.4-0.2l0,0l0,0
				C-214.2,383.4-214.4,383.3-214.6,383.3z"/>
		</g>
		<g>
			<path class="st6" d="M-215.6,386.8L-215.6,386.8l0.1,0.6c0,0,0,0,0.1,0l0.5-0.3l0,0.1l-0.5,0.3c0,0,0,0,0,0.1l0.5,0.3l0,0.1
				l-0.5-0.3c0,0,0,0-0.1,0l0,0.6h-0.1l0-0.6c0,0,0,0-0.1,0l-0.5,0.3l0-0.1l0.5-0.3c0,0,0,0,0-0.1l-0.5-0.3l0-0.1l0.5,0.3
				c0,0,0,0,0.1,0L-215.6,386.8L-215.6,386.8L-215.6,386.8z"/>
		</g>
		<g>
			<polygon points="-215.5,388.4 -215.7,388.4 -215.7,387.8 -216.2,388.1 -216.3,387.9 -215.8,387.6 -216.3,387.3 -216.2,387.1 
				-215.7,387.4 -215.7,386.8 -215.5,386.8 -215.5,387.4 -214.9,387.1 -214.8,387.3 -215.4,387.6 -214.8,387.9 -214.9,388.1 
				-215.5,387.8 			"/>
		</g>
		<g>
			<path class="st6" d="M-214.8,388.3c-0.2,0.2-0.5,0.3-0.8,0.3c-0.6,0-1.1-0.5-1.1-1.1c0-0.6,0.5-1.1,1.1-1.1
				c0.3,0,0.7,0.2,0.8,0.4c-0.1,0.1-0.1,0.4-0.1,0.6c0-0.4-0.3-0.7-0.7-0.7c-0.4,0-0.7,0.3-0.7,0.7c0,0.4,0.3,0.7,0.7,0.7
				c0.3,0,0.6-0.2,0.7-0.5C-214.9,387.9-214.9,388.2-214.8,388.3L-214.8,388.3z"/>
		</g>
		<g>
			<path d="M-215.6,388.7c-0.6,0-1.1-0.5-1.1-1.1s0.5-1.1,1.1-1.1c0.4,0,0.7,0.2,0.9,0.4l0,0l0,0c-0.1,0.1-0.1,0.4-0.1,0.6l-0.1,0
				c0-0.3-0.3-0.6-0.7-0.6c-0.4,0-0.7,0.3-0.7,0.7s0.3,0.7,0.7,0.7c0.3,0,0.6-0.2,0.7-0.5l0.1,0c0,0.2,0,0.5,0,0.5l0,0l0,0
				C-215,388.6-215.3,388.7-215.6,388.7z M-215.6,386.6c-0.6,0-1,0.5-1,1s0.4,1,1,1c0.3,0,0.5-0.1,0.7-0.3c0-0.1,0-0.2,0-0.3
				c-0.1,0.2-0.4,0.3-0.7,0.3c-0.4,0-0.8-0.4-0.8-0.8c0-0.4,0.4-0.8,0.8-0.8c0.3,0,0.6,0.2,0.7,0.4c0-0.1,0-0.2,0.1-0.3
				C-215,386.7-215.3,386.6-215.6,386.6z"/>
		</g>
		<g>
			<path class="st9" d="M-216,389.4c-0.1-0.1-0.2-0.3-0.2-0.5c0.1,0,0.3,0.1,0.4,0.1c0-0.1-0.1-0.4,0-0.5c0.1,0,0.4,0.2,0.5,0.4
				c0-0.1-0.1-0.4,0-0.6c0.1,0.1,0.4,0.3,0.4,0.4c0-0.2,0.1-0.6,0.2-0.7c0.1,0.1,0.3,0.2,0.4,0.3c0-0.2,0.1-0.4,0.2-0.5
				c0.1,0.1,0.3,0.4,0.3,0.7c0.1,0,0.2-0.2,0.3-0.3c0.1,0.1,0.1,0.2,0.1,0.4c0.1-0.1,0.3-0.3,0.3-0.4c0.1,0.1,0.3,0.2,0.3,0.4
				c0-0.1,0-0.4-0.1-0.6c0.2,0.1,0.3,0.2,0.3,0.4c0-0.2,0.1-0.4,0.2-0.5c0.1,0.2,0.2,0.4,0.2,0.6c0.1-0.1,0.1-0.3,0.2-0.4
				c0.1,0.1,0.1,0.4,0,0.5c0.1-0.1,0.2-0.2,0.3-0.3c0,0.1,0,0.2,0,0.3c0.1-0.1,0.3-0.4,0.3-0.5c0.2,0.1,0.3,0.4,0.3,0.5
				c0.1,0,0.3-0.2,0.4-0.4c0,0.1,0,0.3,0,0.5c0.1-0.1,0.1-0.2,0.2-0.3c0,0.1,0,0.4,0,0.5c0.1-0.1,0.2-0.1,0.3-0.1
				c0,0.2-0.1,0.5-0.2,0.8C-211.5,389.6-213.8,389.5-216,389.4L-216,389.4z"/>
		</g>
		<g>
			<path d="M-210.4,390L-210.4,390c-1.1-0.3-3.2-0.4-5.4-0.5l-0.3,0l0,0c-0.1-0.1-0.2-0.3-0.2-0.5l0-0.1l0.1,0c0.1,0,0.2,0,0.3,0.1
				c0-0.1,0-0.3,0-0.4l0-0.1l0.1,0c0.1,0,0.2,0.1,0.4,0.2c0-0.1,0-0.3,0-0.4l0-0.1l0.1,0c0.1,0.1,0.2,0.2,0.3,0.3
				c0-0.2,0.1-0.4,0.2-0.5l0-0.1l0.1,0.1c0,0,0.1,0.1,0.1,0.1s0.1,0.1,0.1,0.1c0-0.2,0.1-0.3,0.3-0.4l0,0l0,0
				c0.1,0.1,0.2,0.3,0.3,0.6c0.1-0.1,0.1-0.2,0.2-0.2l0.1-0.1l0.1,0.1c0,0,0.1,0.2,0.1,0.3c0.1-0.1,0.2-0.2,0.2-0.3l0-0.1l0.1,0.1
				c0,0,0.1,0.1,0.2,0.2c0-0.1,0-0.2,0-0.2l0-0.1l0.1,0.1c0.1,0.1,0.2,0.2,0.3,0.3c0-0.1,0.1-0.3,0.2-0.4l0.1,0l0,0.1
				c0.1,0.1,0.1,0.3,0.2,0.4c0.1-0.1,0.1-0.2,0.2-0.2l0.1,0l0,0c0.1,0.1,0.1,0.3,0.1,0.4c0.1-0.1,0.1-0.1,0.2-0.2l0.1,0l0,0.1
				c0,0,0,0.1,0,0.1c0.1-0.1,0.2-0.3,0.2-0.4l0-0.1l0.1,0c0.1,0.1,0.3,0.3,0.3,0.4c0.1-0.1,0.3-0.2,0.3-0.3l0.1-0.2v0.2
				c0,0,0,0,0,0.1c0,0,0,0.1,0,0.1c0,0,0,0,0,0l0.1-0.2l0,0.1c0,0.1,0,0.3,0,0.4c0.1,0,0.2-0.1,0.2-0.1h0.1l0,0.1
				C-210.1,389.4-210.3,389.8-210.4,390L-210.4,390z M-216,389.3l0.3,0c2.2,0.1,4.2,0.2,5.3,0.5c0.1-0.2,0.2-0.5,0.2-0.6
				c-0.1,0-0.2,0.1-0.2,0.1l-0.2,0.2l0.1-0.2c0-0.1,0-0.2,0.1-0.3c0,0-0.1,0.1-0.1,0.1l-0.2,0.2l0.1-0.2c0-0.1,0-0.2,0-0.3
				c-0.1,0.1-0.2,0.2-0.3,0.3l-0.1,0l0-0.1c0-0.1-0.1-0.3-0.2-0.4c-0.1,0.2-0.2,0.4-0.3,0.5l-0.1,0.1l0-0.1c0-0.1,0-0.1,0-0.2
				c-0.1,0.1-0.2,0.1-0.2,0.2l-0.1,0c0-0.1,0-0.3,0-0.4c0,0.1-0.1,0.2-0.1,0.2l0,0l-0.1,0c0-0.1-0.1-0.3-0.1-0.5
				c-0.1,0.1-0.1,0.3-0.2,0.4l-0.1,0c0-0.1-0.1-0.2-0.2-0.3c0,0.1,0,0.1,0,0.2c0,0.1,0,0.1,0,0.2l-0.1,0c0-0.1-0.1-0.2-0.2-0.3
				c-0.1,0.1-0.2,0.3-0.3,0.3l-0.1,0.1l0-0.2c0-0.1,0-0.2,0-0.3c-0.1,0.1-0.2,0.2-0.3,0.2l-0.1,0l0-0.1c0-0.3-0.2-0.5-0.2-0.6
				c-0.1,0.1-0.2,0.2-0.2,0.4l0,0.2l-0.1-0.1c-0.1-0.1-0.1-0.1-0.2-0.2c0,0-0.1,0-0.1-0.1c0,0.1-0.1,0.4-0.1,0.6l-0.1,0
				c0-0.1-0.2-0.3-0.3-0.4c0,0.2,0,0.4,0,0.5l-0.1,0c-0.1-0.1-0.2-0.2-0.4-0.3c0,0.1,0,0.2,0,0.3c0,0,0,0.1,0,0.1l0,0.2l-0.1-0.1
				c-0.1-0.1-0.2-0.1-0.3-0.1C-216.1,389.1-216,389.2-216,389.3z"/>
		</g>
		<g>
			<path class="st4" d="M-212.3,383.4c0-0.1,0.2-0.3,0.5-0.3c0.4,0,0.8,0.3,1.1,0.3c0.3,0,0.2,0.1,0.1,0.1c-0.1,0-0.1,0.1-0.1,0.1
				c0,0.1,0,0.1-0.1,0c-0.3-0.1-0.6,0-0.9,0C-212.1,383.5-212.3,383.5-212.3,383.4L-212.3,383.4z"/>
		</g>
		<g>
			<path class="st4" d="M-215.7,390c-0.3,0.4-0.7,0.3-0.7,0.1c-0.1-0.3,0.2-0.4,0.1-0.6c-0.1-0.2,0.1-0.3,0.3-0.2s0.5-0.2,0.6,0.1
				c0.2,0.3,0.3,0.6,0.2,0.7C-215.3,390.2-215.6,390.2-215.7,390L-215.7,390z"/>
		</g>
		<g>
			<path d="M-216.1,390.4C-216.2,390.4-216.2,390.4-216.1,390.4c-0.2,0-0.3-0.1-0.3-0.3c0-0.2,0-0.3,0.1-0.4c0-0.1,0.1-0.2,0-0.2
				c-0.1-0.1,0-0.3,0.1-0.3c0.1-0.1,0.2-0.1,0.3,0c0,0,0.1,0,0.1,0c0.2,0,0.4-0.1,0.5,0.2l0,0.1c0.1,0.3,0.3,0.5,0.2,0.7
				c0,0.1-0.1,0.1-0.2,0.1c-0.1,0-0.2,0-0.2-0.1C-215.8,390.3-216,390.4-216.1,390.4z M-216.2,389.3
				C-216.2,389.3-216.2,389.3-216.2,389.3c-0.1,0.1-0.1,0.1-0.1,0.2c0.1,0.1,0,0.2,0,0.3c0,0.1-0.1,0.2,0,0.3c0,0.1,0.1,0.1,0.2,0.2
				c0.1,0,0.3-0.1,0.5-0.3l0.1-0.1l0,0.1c0,0.1,0.1,0.1,0.2,0.1c0,0,0.1,0,0.1,0c0.1-0.1,0-0.3-0.2-0.6l0-0.1
				c-0.1-0.2-0.2-0.1-0.4-0.1C-215.9,389.4-216,389.4-216.2,389.3C-216.1,389.3-216.2,389.3-216.2,389.3z"/>
		</g>
		<g>
			<path class="st4" d="M-214.2,389.4c-0.1-0.1,0.3-0.4,0.5-0.2c0.2,0.2,0.5-0.2,0.6,0.1c0.2,0.3,0.2,0.5,0.3,0.7
				c0.1,0.2-0.4,0.3-0.6,0.1c0,0.1-0.4,0.2-0.6-0.1C-214.1,389.8-214.1,389.6-214.2,389.4L-214.2,389.4z"/>
		</g>
		<g>
			<path d="M-213.7,390.2c-0.2,0-0.3-0.1-0.4-0.2l-0.1-0.2c0-0.1-0.1-0.2-0.2-0.4c0-0.1,0-0.2,0.2-0.3c0.1-0.1,0.3-0.1,0.4,0
				c0,0.1,0.1,0,0.2,0c0.1,0,0.3-0.1,0.4,0.1c0.1,0.2,0.2,0.4,0.2,0.5c0,0.1,0,0.1,0.1,0.2c0,0.1,0,0.2-0.1,0.2
				c-0.1,0.1-0.4,0.1-0.5,0c0,0-0.1,0-0.1,0S-213.6,390.2-213.7,390.2z M-213.9,389.2c-0.1,0-0.1,0-0.1,0c-0.1,0.1-0.1,0.1-0.1,0.2
				l0,0c0.1,0.1,0.1,0.3,0.2,0.4l0.1,0.2c0.1,0.1,0.2,0.2,0.2,0.2c0.1,0,0.2,0,0.2,0l0-0.2l0.1,0.1c0.1,0.1,0.3,0.1,0.5,0
				c0,0,0,0,0-0.1c0-0.1,0-0.1-0.1-0.2c0-0.1-0.1-0.3-0.2-0.5c-0.1-0.1-0.1-0.1-0.3-0.1c-0.1,0-0.2,0.1-0.4,0
				C-213.8,389.2-213.9,389.2-213.9,389.2z"/>
		</g>
		<g>
			<path class="st4" d="M-211.9,389.6c-0.1-0.2,0.3-0.4,0.5-0.1c0.1-0.1,0.5-0.1,0.5,0.2c0,0.3,0,0.5,0.1,0.7c0,0.1-0.2,0.3-0.4-0.1
				c-0.3,0.1-0.5-0.1-0.5-0.3C-211.8,389.8-211.8,389.7-211.9,389.6L-211.9,389.6z"/>
		</g>
		<g>
			<path d="M-211,390.6c-0.1,0-0.2-0.1-0.3-0.2c-0.1,0-0.3,0-0.4-0.1c-0.1-0.1-0.2-0.2-0.2-0.3c0-0.2-0.1-0.3-0.1-0.4
				c0-0.1,0-0.2,0.1-0.3c0.1-0.1,0.3-0.1,0.5,0c0.1,0,0.2-0.1,0.3,0c0.2,0,0.3,0.2,0.3,0.3c0,0.2,0,0.4,0,0.5c0,0.1,0,0.1,0,0.2
				C-210.7,390.5-210.8,390.6-211,390.6C-210.9,390.6-210.9,390.6-211,390.6z M-211.2,390.2L-211.2,390.2c0.1,0.2,0.2,0.2,0.3,0.2
				c0,0,0.1,0,0.1-0.1c0-0.1,0-0.1,0-0.2c0-0.1,0-0.3,0-0.5c0-0.2-0.1-0.2-0.2-0.2c-0.1,0-0.2,0-0.2,0l0,0.1l-0.1-0.1
				c-0.1-0.2-0.3-0.1-0.4-0.1c0,0-0.1,0.1-0.1,0.1l0,0c0,0.1,0.1,0.2,0.1,0.4c0,0.1,0.1,0.2,0.1,0.2
				C-211.5,390.3-211.4,390.3-211.2,390.2L-211.2,390.2z"/>
		</g>
		<g>
			<path class="st5" d="M-215.5,389.4c-0.1-0.1,0.3-0.3,0.5-0.2c0.2,0.2,0.5-0.1,0.7,0.2c0.3,0.6,0.3,0.7,0.2,0.8
				c-0.1,0.1-0.4,0.1-0.5-0.1c0,0.1-0.3,0.1-0.5,0C-215.3,390-215.4,389.6-215.5,389.4L-215.5,389.4z"/>
		</g>
		<g>
			<path d="M-214.2,390.3C-214.2,390.3-214.3,390.3-214.2,390.3c-0.1,0-0.3,0-0.3-0.1c0,0,0,0,0,0c-0.1,0.1-0.4,0-0.5-0.1
				c-0.2-0.1-0.3-0.5-0.4-0.7l0,0c0-0.1,0-0.1,0.1-0.2c0.1-0.1,0.4-0.2,0.5,0c0.1,0.1,0.2,0,0.3,0c0.1,0,0.3-0.1,0.4,0.2
				c0.3,0.6,0.3,0.7,0.2,0.8C-214,390.2-214.1,390.3-214.2,390.3z M-214.6,389.9l0.1,0.2c0,0.1,0.1,0.1,0.3,0.1c0.1,0,0.1,0,0.2,0
				c0.1-0.1,0.1-0.1-0.2-0.7c-0.1-0.1-0.1-0.1-0.3-0.1c-0.1,0-0.3,0-0.4,0c-0.1-0.1-0.2-0.1-0.3,0c-0.1,0-0.1,0.1-0.1,0.1l0,0
				c0.1,0.2,0.2,0.5,0.3,0.6c0.1,0.1,0.4,0.1,0.4,0L-214.6,389.9z"/>
		</g>
		<g>
			<path class="st5" d="M-213.1,389.4c-0.1-0.2,0.4-0.3,0.7,0c0.1-0.1,0.4-0.1,0.5,0.2c0.1,0.3,0.2,0.5,0.1,0.6
				c-0.1,0.1-0.3,0.1-0.4,0c-0.1,0.1-0.5,0-0.6-0.2C-212.9,389.8-213,389.6-213.1,389.4L-213.1,389.4z"/>
		</g>
		<g>
			<path d="M-212,390.3C-212.1,390.3-212.1,390.3-212,390.3c-0.1,0-0.2,0-0.2-0.1c-0.1,0-0.2,0-0.3,0c-0.1,0-0.3-0.1-0.3-0.2
				c-0.1-0.2-0.2-0.4-0.2-0.5l0,0c0-0.1,0-0.2,0.1-0.2c0.2-0.1,0.5-0.1,0.7,0.1c0.1,0,0.2-0.1,0.2,0c0.1,0,0.3,0.1,0.3,0.3
				c0.1,0.3,0.2,0.5,0,0.7C-211.8,390.3-211.9,390.3-212,390.3z M-212.2,390.1L-212.2,390.1c0.1,0.1,0.1,0.1,0.1,0.1
				c0.1,0,0.2,0,0.2,0c0.1-0.1,0.1-0.2-0.1-0.5c-0.1-0.1-0.1-0.2-0.2-0.2c-0.1,0-0.1,0-0.2,0l-0.1,0l0-0.1c-0.1-0.2-0.4-0.2-0.5-0.1
				c0,0-0.1,0,0,0.1c0.1,0.2,0.2,0.4,0.2,0.6c0,0.1,0.1,0.1,0.2,0.2C-212.5,390.1-212.3,390.1-212.2,390.1L-212.2,390.1z"/>
		</g>
		<g>
			<path class="st5" d="M-210.9,389.7c0-0.2,0.3-0.2,0.4,0c0.1,0.2,0.4,0,0.5,0.4c0,0.1,0,0.4-0.1,0.5c-0.1,0.1-0.6,0-0.7-0.3
				C-210.8,390.1-210.9,389.9-210.9,389.7L-210.9,389.7z"/>
		</g>
		<g>
			<path d="M-210.3,390.8c-0.1,0-0.1,0-0.2,0c-0.2,0-0.4-0.2-0.4-0.4c0,0,0,0,0-0.1h0c0-0.1-0.1-0.1-0.2-0.2
				c-0.1-0.1-0.3-0.2-0.3-0.4l0.1,0c0,0.1,0.1,0.2,0.2,0.3c0,0,0.1,0,0.1,0.1c0-0.1,0-0.2,0-0.3c0-0.1,0.1-0.2,0.2-0.2
				c0.1,0,0.3,0,0.3,0.2c0,0,0,0,0,0c0,0.1,0.1,0.1,0.2,0.1c0.1,0,0.3,0.1,0.3,0.3c0,0.1,0,0.4-0.2,0.5
				C-210.1,390.7-210.2,390.8-210.3,390.8z M-210.7,389.7C-210.7,389.7-210.7,389.7-210.7,389.7c-0.1,0-0.1,0-0.1,0.1v0
				c0,0.1,0,0.3,0.1,0.6c0,0.1,0.2,0.2,0.3,0.3c0.1,0,0.2,0,0.2,0c0.1-0.1,0.1-0.4,0.1-0.4c0-0.2-0.1-0.2-0.2-0.2c0,0-0.1,0-0.1,0
				c0,0,0,0.1,0,0.1l-0.1,0c0-0.1,0-0.2-0.1-0.3c0,0,0,0,0,0C-210.6,389.7-210.6,389.7-210.7,389.7z M-211.3,390.3
				c-0.1-0.2-0.2-0.3-0.3-0.4l0.1-0.1c0.1,0.1,0.3,0.3,0.4,0.4L-211.3,390.3z M-212.9,390.1c-0.1,0-0.3-0.2-0.3-0.3
				c-0.1-0.1-0.2-0.2-0.3-0.3l0-0.1c0.2,0,0.4,0.2,0.4,0.3c0.1,0.1,0.2,0.2,0.3,0.2L-212.9,390.1z M-215.7,390.1L-215.7,390.1
				c-0.1-0.1-0.2-0.3-0.3-0.3l0,0c0,0-0.1,0-0.1,0.1l-0.1-0.1c0.1-0.1,0.2-0.2,0.2-0.2h0c0.1,0,0.3,0.2,0.3,0.3l0,0L-215.7,390.1z"
				/>
		</g>
	</g>
</g>
</svg>
