<?xml version="1.0" encoding="utf-8"?>
<!-- Generator: Adobe Illustrator 19.0.0, SVG Export Plug-In . SVG Version: 6.00 Build 0)  -->
<svg version="1.1" id="Layer_1" xmlns="http://www.w3.org/2000/svg" xmlns:xlink="http://www.w3.org/1999/xlink" x="0px" y="0px"
	 viewBox="-269 374 72 46" style="enable-background:new -269 374 72 46;" xml:space="preserve">
<style type="text/css">
	.st0{clip-path:url(#SVGID_2_);}
	.st1{fill:#D32E3F;}
	.st2{fill:#FFFFFF;}
	.st3{fill:#003671;}
</style>
<g>
	<defs>
		<path id="SVGID_1_" d="M-204,420H-262c-3.8,0-7-3.1-7-7V381c0-3.8,3.1-7,7-7h58.1c3.8,0,7,3.1,7,7V413
			C-197,416.9-200.1,420-204,420z"/>
	</defs>
	<clipPath id="SVGID_2_">
		<use xlink:href="#SVGID_1_"  style="overflow:visible;"/>
	</clipPath>
	<g class="st0">
		<g>
			<polygon class="st1" points="-193.6,422.2 -193.6,370.8 -270.6,370.8 -270.6,422.2 			"/>
		</g>
		<g>
			<path d="M-193.4,422.3h-77.3v-51.6h77.3V422.3z M-270.5,422.1h76.8v-51.1h-76.8V422.1z"/>
		</g>
		<g>
			<polygon class="st2" points="-193.6,391.4 -270.6,391.4 -270.6,381.1 -193.6,381.1 			"/>
		</g>
		<g>
			<path d="M-193.4,391.5h-77.3V381h77.3V391.5z M-270.5,391.2h76.8v-10h-76.8V391.2z"/>
		</g>
		<g>
			<polygon class="st2" points="-193.6,411.9 -270.6,411.9 -270.6,401.6 -193.6,401.6 			"/>
		</g>
		<g>
			<path d="M-193.4,412h-77.3v-10.5h77.3V412z M-270.5,411.8h76.8v-10h-76.8V411.8z"/>
		</g>
		<g>
			<polygon class="st3" points="-239.8,396.5 -270.6,422.2 -270.6,370.8 			"/>
		</g>
		<g>
			<path d="M-270.5,422.3l-0.2-0.1v-51.4l0.2-0.1l31,25.8l-0.1,0.1L-270.5,422.3z M-270.5,371.1v50.8l30.5-25.4L-270.5,371.1z"/>
		</g>
		<g>
			<polygon class="st2" points="-258.3,388.2 -260.1,393.9 -266.2,393.9 -261.2,397.5 -263.1,403.2 -258.3,399.7 -253.4,403.2 
				-255.2,397.5 -250.3,394 -256.4,394 			"/>
		</g>
	</g>
</g>
</svg>
