<?xml version="1.0" encoding="utf-8"?>
<!-- Generator: Adobe Illustrator 19.0.0, SVG Export Plug-In . SVG Version: 6.00 Build 0)  -->
<svg version="1.1" id="Layer_1" xmlns="http://www.w3.org/2000/svg" xmlns:xlink="http://www.w3.org/1999/xlink" x="0px" y="0px"
	 viewBox="-269 374 72 46" style="enable-background:new -269 374 72 46;" xml:space="preserve">
<style type="text/css">
	.st0{clip-path:url(#SVGID_2_);}
	.st1{fill:#E40520;}
	.st2{fill:#2D8D2D;}
	.st3{fill:#FFED00;}
	.st4{fill:none;stroke:#000000;stroke-width:0.125;}
	.st5{fill:none;stroke:#000000;stroke-width:0.75;}
	.st6{fill:#FFFFFF;}
	.st7{fill:#E40520;stroke:#FFFFFF;stroke-width:0.25;}
	.st8{fill:none;stroke:#000000;stroke-width:6.300000e-002;}
	.st9{fill:none;stroke:#000000;stroke-width:6.250000e-002;}
	.st10{fill:#0072BB;}
</style>
<g>
	<defs>
		<path id="SVGID_1_" d="M-204,420H-262c-3.8,0-7-3.1-7-7V381c0-3.8,3.1-7,7-7h58.1c3.8,0,7,3.1,7,7V413
			C-197,416.9-200.1,420-204,420z"/>
	</defs>
	<clipPath id="SVGID_2_">
		<use xlink:href="#SVGID_1_"  style="overflow:visible;"/>
	</clipPath>
	<g class="st0">
		<g>
			<polygon class="st1" points="-240.8,421.6 -240.8,371.5 -194.5,371.5 -194.5,421.6 			"/>
		</g>
		<g>
			<path d="M-194.4,421.7h-46.5v-50.4h46.5V421.7z M-240.7,421.5h46v-49.9h-46V421.5z"/>
		</g>
		<g>
			<polygon class="st2" points="-269.7,421.6 -269.7,371.5 -240.8,371.5 -240.8,421.6 			"/>
		</g>
		<g>
			<path d="M-240.7,421.7h-29.2v-50.4h29.2V421.7z M-269.6,421.5h28.7v-49.9h-28.7V421.5z"/>
		</g>
		<g>
			<path class="st3" d="M-246.6,396.5l-4.9-4c0.2-0.3,0.6-0.7,0.8-1l4.9,4L-246.6,396.5L-246.6,396.5z"/>
		</g>
		<g>
			<path d="M-246.6,396.6l-5-4.1l0,0c0.2-0.3,0.6-0.7,0.8-1l0,0l0,0l4.9,4L-246.6,396.6z M-251.4,392.5l4.8,3.9l0.7-0.9l-4.8-3.9
				C-250.9,391.9-251.2,392.2-251.4,392.5z"/>
		</g>
		<g>
			<path class="st3" d="M-246.5,396.3c0,0-4.8-3.9-4.9-4l-0.3,0.4c0.2,0.1,4.9,4,4.9,4L-246.5,396.3L-246.5,396.3z"/>
		</g>
		<g>
			<path d="M-246.8,396.8L-246.8,396.8c0,0-4.8-3.9-4.9-4l0,0l0.4-0.5l0,0c0.1,0.1,4.9,4,4.9,4l0,0L-246.8,396.8z M-251.6,392.7
				c0.5,0.4,4.3,3.5,4.8,3.9l0.3-0.3c-0.5-0.4-4.3-3.5-4.8-3.9L-251.6,392.7z"/>
		</g>
		<g>
			<path class="st3" d="M-245.6,395.3c0,0-4.8-3.9-4.9-4l-0.3,0.4c0.2,0.1,4.9,4,4.9,4L-245.6,395.3L-245.6,395.3z"/>
		</g>
		<g>
			<path d="M-246,395.8L-246,395.8c0,0-4.8-3.9-4.9-4l0,0l0.4-0.5l0,0c0.1,0.1,4.9,4,4.9,4l0,0L-246,395.8z M-250.8,391.7
				c0.5,0.4,4.3,3.5,4.8,3.9l0.3-0.3c-0.5-0.4-4.3-3.5-4.8-3.9L-250.8,391.7z"/>
		</g>
		<g>
			<path class="st3" d="M-230.1,392.1l-6.7,3c-0.1-0.3-0.3-0.7-0.4-1l6.7-3L-230.1,392.1L-230.1,392.1z"/>
		</g>
		<g>
			<path d="M-236.8,395.2L-236.8,395.2c-0.2-0.3-0.4-0.8-0.5-1l0-0.1l0.1,0l6.8-3.1l0.5,1.1l-0.1,0L-236.8,395.2z M-237.2,394.2
				c0.1,0.2,0.3,0.6,0.4,0.9l6.6-3l-0.4-0.9L-237.2,394.2z"/>
		</g>
		<g>
			<path class="st3" d="M-230.2,391.9c0,0-6.6,3-6.7,3l0.2,0.4c0.2-0.1,6.7-3,6.7-3L-230.2,391.9L-230.2,391.9z"/>
		</g>
		<g>
			<path d="M-236.7,395.4l-0.2-0.5l0.1,0c0.1-0.1,6.7-3,6.7-3l0.1,0l0.2,0.5l-0.1,0C-230,392.3-236.4,395.3-236.7,395.4
				L-236.7,395.4z M-236.8,395l0.1,0.3c0.6-0.3,6-2.7,6.6-3l-0.1-0.3C-230.8,392.2-236.2,394.7-236.8,395z"/>
		</g>
		<g>
			<path class="st3" d="M-230.6,390.8c0,0-6.6,3-6.7,3l0.2,0.4c0.2-0.1,6.7-3,6.7-3L-230.6,390.8L-230.6,390.8z"/>
		</g>
		<g>
			<path d="M-237.2,394.4l-0.2-0.5l0.1,0c0.1-0.1,6.7-3,6.7-3l0.1,0l0.2,0.5l-0.1,0C-230.4,391.3-236.9,394.3-237.2,394.4
				L-237.2,394.4z M-237.3,393.9l0.1,0.3c0.6-0.3,6-2.7,6.6-3l-0.1-0.3C-231.3,391.2-236.7,393.6-237.3,393.9z"/>
		</g>
		<g>
			<path class="st3" d="M-229.3,397.8l-7.1,2c-0.1-0.3-0.2-0.8-0.3-1l7.1-2L-229.3,397.8L-229.3,397.8z"/>
		</g>
		<g>
			<path d="M-236.4,400L-236.4,400c-0.1-0.3-0.3-0.8-0.3-1.1l0-0.1l7.2-2.1l0.3,1.2L-236.4,400z M-236.6,398.9
				c0.1,0.3,0.2,0.6,0.3,0.9l7-2l-0.3-0.9L-236.6,398.9z"/>
		</g>
		<g>
			<path class="st3" d="M-229.4,397.6c0,0-7,2-7.1,2l0.1,0.4c0.3-0.1,7.1-2,7.1-2L-229.4,397.6L-229.4,397.6z"/>
		</g>
		<g>
			<path d="M-236.4,400.2l-0.2-0.6l0.1,0c0.1,0,7.1-2,7.1-2l0.1,0l0.2,0.6l-0.1,0C-229.2,398.1-236.1,400.1-236.4,400.2
				L-236.4,400.2z M-236.4,399.7l0.1,0.3c0.7-0.2,6.3-1.8,7-2l-0.1-0.3C-230,397.9-235.7,399.5-236.4,399.7z"/>
		</g>
		<g>
			<path class="st3" d="M-229.7,396.5c0,0-7,2-7.1,2l0.1,0.4c0.3-0.1,7.1-2,7.1-2L-229.7,396.5L-229.7,396.5z"/>
		</g>
		<g>
			<path d="M-236.7,399.1l-0.2-0.6l0.1,0c0.1,0,7.1-2,7.1-2l0.1,0l0.2,0.6L-236.7,399.1z M-236.7,398.6l0.1,0.3l7-2l-0.1-0.3
				C-230.4,396.8-236,398.4-236.7,398.6z"/>
		</g>
		<g>
			<path class="st3" d="M-245.6,400.8l-6.7-3.2c0.1-0.3,0.3-0.7,0.5-1l6.7,3.2L-245.6,400.8L-245.6,400.8z"/>
		</g>
		<g>
			<path d="M-245.6,400.9L-245.6,400.9l-6.8-3.2l0-0.1c0.1-0.3,0.3-0.7,0.5-1l0-0.1l0.1,0l6.7,3.2L-245.6,400.9z M-252.2,397.6
				l6.6,3.1l0.4-0.9l-6.6-3.1C-252,397-252.1,397.4-252.2,397.6z"/>
		</g>
		<g>
			<path class="st3" d="M-245.5,400.6c0,0-6.6-3.1-6.7-3.2l-0.2,0.4c0.2,0.1,6.7,3.2,6.7,3.2L-245.5,400.6L-245.5,400.6z"/>
		</g>
		<g>
			<path d="M-245.7,401.1L-245.7,401.1c-0.1,0-6.5-3.1-6.7-3.2l-0.1,0l0.2-0.5l0.1,0c0.1,0.1,6.6,3.1,6.7,3.2l0.1,0L-245.7,401.1z
				 M-252.3,397.8c0.6,0.3,6,2.8,6.6,3.1l0.1-0.3c-0.6-0.3-5.9-2.8-6.6-3.1L-252.3,397.8z"/>
		</g>
		<g>
			<path class="st3" d="M-245.1,399.6c0,0-6.6-3.1-6.7-3.2l-0.2,0.4c0.2,0.1,6.7,3.2,6.7,3.2L-245.1,399.6L-245.1,399.6z"/>
		</g>
		<g>
			<path d="M-245.2,400.1L-245.2,400.1c-0.1,0-6.5-3.1-6.7-3.2l-0.1,0l0.2-0.5l0.1,0c0.1,0.1,6.7,3.2,6.7,3.2l0.1,0L-245.2,400.1z
				 M-251.9,396.8c0.6,0.3,6,2.8,6.6,3.1l0.1-0.3c-0.6-0.3-6-2.8-6.6-3.1L-251.9,396.8z"/>
		</g>
		<g>
			<path class="st3" d="M-232.1,404.2h-17.7c0-0.4,0-1,0-1.3h17.7V404.2L-232.1,404.2z"/>
		</g>
		<g>
			<path d="M-232,404.3h-17.8l0-0.1c0-0.4,0-1,0-1.4l0-0.1h17.8V404.3z M-249.7,404.2h17.5v-1.2h-17.5
				C-249.7,403.3-249.7,403.8-249.7,404.2z"/>
		</g>
		<g>
			<path class="st3" d="M-232.1,404c0,0-17.3,0-17.7,0v0.6c0.6,0,17.7,0,17.7,0V404L-232.1,404z"/>
		</g>
		<g>
			<path d="M-232,404.7h-17.8V404h17.8V404.7z M-249.7,404.5h17.5v-0.5h-17.5V404.5z"/>
		</g>
		<g>
			<path class="st3" d="M-232.1,402.5c0,0-17.3,0-17.7,0v0.6c0.6,0,17.7,0,17.7,0V402.5L-232.1,402.5z"/>
		</g>
		<g>
			<path d="M-232,403.2h-17.8v-0.7h17.8V403.2z M-249.7,403h17.5v-0.5h-17.5V403z"/>
		</g>
		<g>
			<path class="st3" d="M-240.8,396.6"/>
		</g>
		<g>
			<path class="st4" d="M-240.8,396.6"/>
		</g>
		<g>
			<path class="st3" d="M-240.8,396.6"/>
		</g>
		<g>
			<path class="st4" d="M-240.8,396.6"/>
		</g>
		<g>
			<path class="st3" d="M-240.8,407c-5.7,0-10.4-4.7-10.4-10.4c0-5.7,4.7-10.4,10.4-10.4c5.7,0,10.4,4.7,10.4,10.4
				C-230.4,402.3-235,407-240.8,407v1.8c6.7,0,12.2-5.5,12.2-12.2c0-6.7-5.5-12.2-12.2-12.2c-6.7,0-12.2,5.5-12.2,12.2
				c0,6.7,5.5,12.2,12.2,12.2L-240.8,407L-240.8,407z"/>
		</g>
		<g>
			<path d="M-240.7,408.8h-0.1c-6.7,0-12.2-5.5-12.2-12.2c0-6.8,5.5-12.2,12.2-12.2s12.2,5.5,12.2,12.2
				C-228.5,403.3-234,408.8-240.7,408.8L-240.7,408.8z M-240.7,408.4v0.3c6.7,0,12.1-5.5,12.1-12.1c0-6.7-5.4-12.1-12.1-12.1
				s-12.1,5.4-12.1,12.1c0,6.7,5.4,12.1,12.1,12.1v-0.3c-6.5,0-11.8-5.3-11.8-11.8c0-6.5,5.3-11.8,11.8-11.8s11.8,5.3,11.8,11.8
				C-228.9,403.1-234.2,408.4-240.7,408.4z M-240.7,407.5v0.8c6.4,0,11.7-5.3,11.7-11.7c0-6.5-5.3-11.7-11.7-11.7
				s-11.7,5.3-11.7,11.7c0,6.4,5.2,11.7,11.7,11.7v-0.8c-6,0-10.8-4.9-10.8-10.9c0-6,4.9-10.9,10.9-10.9s10.9,4.9,10.9,10.9
				C-229.9,402.6-234.7,407.4-240.7,407.5z M-240.7,407.1v0.3c5.9,0,10.7-4.8,10.7-10.8c0-5.9-4.8-10.8-10.8-10.8
				s-10.8,4.8-10.8,10.8c0,5.9,4.8,10.7,10.7,10.8v-0.3c-5.7,0-10.4-4.7-10.4-10.5c0-5.8,4.7-10.5,10.5-10.5s10.5,4.7,10.5,10.5
				C-230.3,402.3-235,407-240.7,407.1z M-240.8,406.9c5.7,0,10.3-4.6,10.3-10.3s-4.6-10.3-10.3-10.3s-10.3,4.6-10.3,10.3
				S-246.5,406.9-240.8,406.9z"/>
		</g>
		<g>
			<path class="st3" d="M-241.7,390.8v-6.6c0.4,0,1.1,0,1.4,0v6.6"/>
		</g>
		<g>
			<path d="M-240.2,390.8h-0.1v-6.6c-0.4,0-0.9,0-1.3,0v6.5h-0.1v-6.6l0.1,0c0.4,0,1,0,1.4,0l0.1,0V390.8z"/>
		</g>
		<g>
			<path class="st3" d="M-242.1,390.8c0,0,0-5.8,0-6.4c0-0.5,0.6-0.5,0.6,0c0,0.4,0,6.4,0,6.4"/>
		</g>
		<g>
			<path d="M-242,390.8h-0.1v-6.4c0-0.3,0.2-0.4,0.4-0.4c0.2,0,0.4,0.1,0.4,0.4v6.4h-0.1v-6.4c0-0.2-0.1-0.3-0.2-0.3
				c-0.1,0-0.2,0.1-0.2,0.3V390.8z"/>
		</g>
		<g>
			<path class="st3" d="M-240.5,390.8c0,0,0-5.8,0-6.4c0-0.5,0.6-0.5,0.6,0c0,0.4,0,6.4,0,6.4"/>
		</g>
		<g>
			<path d="M-240.4,390.8h-0.1v-6.4c0-0.3,0.2-0.4,0.4-0.4c0.2,0,0.4,0.1,0.4,0.4v6.4h-0.1v-6.4c0-0.2-0.1-0.3-0.2-0.3
				c-0.1,0-0.2,0.1-0.2,0.3V390.8z"/>
		</g>
		<g>
			<path class="st3" d="M-245,392.3c0,0-5.4-2-6-2.2c-0.5-0.2-0.2-0.7,0.2-0.6c0.3,0.1,6,2.2,6,2.2"/>
		</g>
		<g>
			<path d="M-245,392.4l-6-2.2c-0.3-0.1-0.3-0.3-0.3-0.5c0.1-0.2,0.3-0.3,0.5-0.2l6,2.2l0,0.1l-6-2.2c-0.2-0.1-0.3,0-0.4,0.1
				c0,0.1,0,0.3,0.2,0.3l6,2.2L-245,392.4z"/>
		</g>
		<g>
			<path class="st3" d="M-244.9,392l-6.2-2.2c-0.4,0.5-0.9,1.5-1.1,2l6.1,2.3"/>
		</g>
		<g>
			<path d="M-246.1,394.1l-6.2-2.3l0-0.1c0.2-0.5,0.7-1.5,1.1-2l0,0l0,0l6.2,2.2l0,0.1l-6.2-2.2c-0.4,0.5-0.8,1.4-1,1.9l6.1,2.3
				L-246.1,394.1z"/>
		</g>
		<g>
			<path class="st3" d="M-246.1,394.3c0,0-5.4-2-6-2.2c-0.5-0.2-0.2-0.7,0.2-0.6c0.3,0.1,6,2.2,6,2.2"/>
		</g>
		<g>
			<path d="M-246.1,394.4l-6-2.2c-0.3-0.1-0.3-0.3-0.3-0.5c0.1-0.2,0.3-0.3,0.5-0.2l6,2.2l0,0.1l-6-2.2c-0.2-0.1-0.3,0-0.4,0.1
				c0,0.1,0,0.3,0.2,0.3l6,2.2L-246.1,394.4z"/>
		</g>
		<g>
			<path class="st3" d="M-247,394.2l-6.2,2c0,0.4,0,1,0,1.5l6.4-2.1"/>
		</g>
		<g>
			<path d="M-253.2,397.8L-253.2,397.8c0-0.6-0.1-1.2,0-1.6l0,0l0,0l6.2-2l0,0.1l-6.1,2c0,0.4,0,0.9,0,1.4l6.3-2.1l0,0.1
				L-253.2,397.8z"/>
		</g>
		<g>
			<path class="st3" d="M-246.9,394.4c0,0-5.5,1.8-6.1,2c-0.5,0.2-0.6-0.4-0.2-0.6c0.3-0.1,6.1-2,6.1-2"/>
		</g>
		<g>
			<path d="M-253.2,396.5c-0.2,0-0.3-0.1-0.3-0.2c-0.1-0.2,0-0.4,0.3-0.5c0.3-0.1,6.1-2,6.1-2l0,0.1c0,0-5.7,1.9-6.1,2
				c-0.2,0.1-0.2,0.2-0.2,0.3c0,0.1,0.2,0.2,0.4,0.1l6.1-2l0,0.1l-6.1,2C-253.1,396.5-253.1,396.5-253.2,396.5z"/>
		</g>
		<g>
			<path class="st3" d="M-246.8,395.9c0,0-5.5,1.8-6.1,2c-0.5,0.2-0.6-0.4-0.2-0.6c0.3-0.1,6.1-2,6.1-2"/>
		</g>
		<g>
			<path d="M-253,398c-0.1,0-0.2,0-0.2-0.1c-0.1-0.1-0.1-0.2-0.1-0.3c0-0.1,0.1-0.2,0.3-0.3c0.3-0.1,6.1-2,6.1-2l0,0.1
				c0,0-5.7,1.9-6.1,2c-0.1,0-0.2,0.1-0.2,0.2c0,0.1,0,0.2,0.1,0.2c0.1,0.1,0.2,0.1,0.3,0l6.1-2l0,0.1l-6.1,2
				C-252.9,398-253,398-253,398z"/>
		</g>
		<g>
			<path class="st3" d="M-241.7,402.4v6.6c0.4,0,1.1,0,1.4,0v-6.6"/>
		</g>
		<g>
			<path d="M-240.8,409.1c-0.3,0-0.6,0-0.8,0l-0.1,0v-6.6h0.1v6.5c0.4,0,0.9,0,1.3,0v-6.6h0.1v6.7l-0.1,0
				C-240.4,409.1-240.6,409.1-240.8,409.1z"/>
		</g>
		<g>
			<path class="st3" d="M-242.1,402.4c0,0,0,5.8,0,6.4c0,0.5,0.6,0.5,0.6,0c0-0.4,0-6.4,0-6.4"/>
		</g>
		<g>
			<path d="M-241.8,409.2c-0.2,0-0.4-0.1-0.4-0.4v-6.4h0.1v6.4c0,0.2,0.1,0.3,0.2,0.3c0.1,0,0.2-0.1,0.2-0.3v-6.4h0.1v6.4
				C-241.4,409.1-241.6,409.2-241.8,409.2z"/>
		</g>
		<g>
			<path class="st3" d="M-240.5,402.4c0,0,0,5.8,0,6.4c0,0.5,0.6,0.5,0.6,0c0-0.4,0-6.4,0-6.4"/>
		</g>
		<g>
			<path d="M-240.2,409.2c-0.2,0-0.4-0.1-0.4-0.4v-6.4h0.1v6.4c0,0.2,0.1,0.3,0.2,0.3c0.1,0,0.2-0.1,0.2-0.3v-6.4h0.1v6.4
				C-239.8,409.1-240,409.2-240.2,409.2z"/>
		</g>
		<g>
			<path class="st3" d="M-234.8,397.8l5.1,4.3c-0.3,0.6-0.9,1.5-1.2,1.9l-5.1-4.1"/>
		</g>
		<g>
			<path d="M-230.8,404.1L-230.8,404.1l-5.1-4.2l0.1-0.1l5,4.1c0.3-0.4,0.8-1.3,1.1-1.8l-5-4.2l0.1-0.1l5.1,4.3l0,0
				C-229.9,402.7-230.5,403.7-230.8,404.1L-230.8,404.1z"/>
		</g>
		<g>
			<path class="st3" d="M-234.9,398.1c0,0,4.4,3.7,4.9,4.1c0.4,0.3,0.7-0.2,0.4-0.5c-0.3-0.2-4.9-4.1-4.9-4.1"/>
		</g>
		<g>
			<path d="M-229.7,402.4c-0.1,0-0.2,0-0.3-0.1c-0.5-0.4-4.9-4.1-4.9-4.1l0.1-0.1c0,0,4.4,3.7,4.9,4.1c0.2,0.1,0.3,0.1,0.4,0
				c0.1-0.1,0.1-0.2-0.1-0.4l-4.9-4.1l0.1-0.1l4.9,4.1c0.2,0.2,0.2,0.4,0.1,0.6C-229.5,402.3-229.6,402.4-229.7,402.4z"/>
		</g>
		<g>
			<path class="st3" d="M-236.1,400.1c0,0,4.4,3.7,4.9,4.1c0.4,0.3,0.7-0.2,0.4-0.5c-0.3-0.2-4.9-4.1-4.9-4.1"/>
		</g>
		<g>
			<path d="M-230.9,404.3c-0.1,0-0.2,0-0.3-0.1c-0.5-0.4-4.9-4.1-4.9-4.1l0.1-0.1c0,0,4.4,3.7,4.9,4.1c0.2,0.1,0.3,0.1,0.4,0
				c0.1-0.1,0.1-0.2-0.1-0.4l-4.9-4.1l0.1-0.1l4.9,4.1c0.2,0.2,0.2,0.4,0.1,0.6C-230.7,404.3-230.8,404.3-230.9,404.3z"/>
		</g>
		<g>
			<path class="st3" d="M-234.6,394.2l6.2,2c0,0.4,0,1,0,1.5l-6.4-2.1"/>
		</g>
		<g>
			<path d="M-228.4,397.8l-6.5-2.2l0-0.1l6.3,2.1c0-0.5,0-1,0-1.4l-6.1-2l0-0.1l6.2,2.1l0,0C-228.3,396.6-228.3,397.2-228.4,397.8
				L-228.4,397.8z"/>
		</g>
		<g>
			<path class="st3" d="M-234.6,394.4c0,0,5.5,1.8,6.1,2c0.5,0.2,0.6-0.4,0.2-0.6c-0.3-0.1-6.1-2-6.1-2"/>
		</g>
		<g>
			<path d="M-228.4,396.5c-0.1,0-0.1,0-0.2,0l-6.1-2l0-0.1l6.1,2c0.2,0.1,0.3,0,0.4-0.1c0-0.1,0-0.3-0.2-0.3l-6.1-2l0-0.1l6.1,2
				c0.3,0.1,0.3,0.3,0.3,0.5C-228.1,396.4-228.2,396.5-228.4,396.5z"/>
		</g>
		<g>
			<path class="st3" d="M-234.8,395.9c0,0,5.5,1.8,6.1,2c0.5,0.2,0.6-0.4,0.2-0.6c-0.3-0.1-6.1-2-6.1-2"/>
		</g>
		<g>
			<path d="M-228.5,398c-0.1,0-0.1,0-0.2,0c-0.6-0.2-6.1-2-6.1-2l0-0.1c0,0,5.5,1.8,6.1,2c0.2,0.1,0.3,0,0.4-0.1
				c0-0.1,0-0.3-0.2-0.3c-0.3-0.1-6.1-2-6.1-2l0-0.1c0,0,5.7,1.9,6.1,2c0.3,0.1,0.3,0.3,0.3,0.5C-228.2,397.9-228.4,398-228.5,398z"
				/>
		</g>
		<g>
			<path class="st3" d="M-245,400.9l-6.1,2.7c-0.2-0.3-0.5-0.8-0.7-1.1l6-2.6"/>
		</g>
		<g>
			<path d="M-251,403.7L-251,403.7c-0.2-0.3-0.6-0.9-0.7-1.2l0-0.1l0.1,0l6-2.6l0.1,0.1l-5.9,2.6c0.2,0.3,0.4,0.7,0.6,1l6-2.6l0,0.1
				L-251,403.7z"/>
		</g>
		<g>
			<path class="st3" d="M-245.6,400.1c0,0-5.3,2.2-5.9,2.5c-0.5,0.2-0.7-0.3-0.2-0.5c0.3-0.1,5.9-2.4,5.9-2.4"/>
		</g>
		<g>
			<path d="M-251.7,402.6c-0.1,0-0.2,0-0.2-0.1c-0.1-0.1-0.1-0.2-0.1-0.3c0-0.1,0.1-0.3,0.3-0.3c0.3-0.1,5.9-2.4,5.9-2.4l0,0.1
				c0,0-5.6,2.3-5.9,2.4c-0.1,0-0.2,0.1-0.2,0.2c0,0.1,0,0.1,0.1,0.2c0.1,0.1,0.2,0.1,0.3,0c0.6-0.2,5.9-2.5,5.9-2.5l0,0.1
				c0,0-5.3,2.2-5.9,2.5C-251.5,402.6-251.6,402.6-251.7,402.6z"/>
		</g>
		<g>
			<path class="st3" d="M-244.9,401.3c0,0-5.3,2.2-5.9,2.5c-0.5,0.2-0.7-0.3-0.2-0.5c0.3-0.1,5.9-2.4,5.9-2.4"/>
		</g>
		<g>
			<path d="M-251,403.8c-0.1,0-0.2,0-0.2-0.1c-0.1-0.1-0.1-0.2-0.1-0.3c0-0.1,0.1-0.3,0.3-0.3c0.3-0.1,5.9-2.4,5.9-2.4l0,0.1
				c0,0-5.6,2.3-5.9,2.4c-0.1,0-0.2,0.1-0.2,0.2c0,0.1,0,0.1,0.1,0.2c0.1,0.1,0.2,0.1,0.3,0c0.6-0.2,5.9-2.5,5.9-2.5l0,0.1
				c0,0-5.3,2.2-5.9,2.5C-250.9,403.8-250.9,403.8-251,403.8z"/>
		</g>
		<g>
			<path class="st3" d="M-234.2,389.2l4,1.1c0.2,0.3,0.5,0.9,0.6,1.2l-4.7-1.2"/>
		</g>
		<g>
			<path d="M-229.4,391.5l-0.1,0l-4.7-1.2l0-0.1l4.6,1.2c-0.1-0.3-0.4-0.8-0.6-1l-4-1.1l0-0.1l4.1,1.1l0,0c0.2,0.3,0.5,0.9,0.6,1.2
				L-229.4,391.5z"/>
		</g>
		<g>
			<path class="st3" d="M-234.2,388.8c1.6,0.4,3.5,0.9,3.9,1c0.5,0.1,0.3,0.6-0.1,0.5c-0.2,0-2.1-0.5-3.8-0.9"/>
		</g>
		<g>
			<path d="M-230.3,390.4c0,0-0.1,0-0.1,0l-3.8-0.9l0-0.1l3.8,0.9c0.2,0,0.3,0,0.3-0.1c0-0.1,0-0.2-0.2-0.3l-3.9-1l0-0.1l3.9,1
				c0.3,0.1,0.4,0.3,0.3,0.4C-230,390.3-230.1,390.4-230.3,390.4z"/>
		</g>
		<g>
			<path class="st3" d="M-234.2,390.1c1.7,0.4,4.2,1.1,4.6,1.2c0.5,0.1,0.3,0.6-0.1,0.5c-0.2-0.1-2.7-0.7-4.5-1.1"/>
		</g>
		<g>
			<path d="M-229.6,391.8c0,0-0.1,0-0.1,0l-4.5-1.1l0-0.1l4.5,1.1c0.1,0,0.2,0,0.3-0.1c0,0,0.1-0.1,0-0.2c0-0.1-0.1-0.2-0.2-0.2
				l-4.6-1.2l0-0.1l4.6,1.2c0.2,0,0.3,0.1,0.3,0.3c0,0.1,0,0.2-0.1,0.3C-229.4,391.8-229.5,391.8-229.6,391.8z"/>
		</g>
		<g>
			<path class="st1" d="M-248.2,398c0,4.1,3.3,7.4,7.4,7.4c4.1,0,7.4-3.3,7.4-7.4v-9.6h-14.8V398L-248.2,398z"/>
		</g>
		<g>
			<path d="M-240.8,405.8c-4.3,0-7.8-3.5-7.8-7.8v-9.9h15.5v9.9C-233,402.3-236.5,405.8-240.8,405.8z M-247.8,388.9v9.2
				c0,3.9,3.2,7,7,7c3.9,0,7-3.1,7-7v-9.2H-247.8z"/>
		</g>
		<g>
			<path class="st1" d="M-240.8,397"/>
		</g>
		<g>
			<path class="st5" d="M-240.8,397"/>
		</g>
		<g>
			<path class="st1" d="M-248.2,398c0,4.1,3.3,7.4,7.4,7.4c4.1,0,7.4-3.3,7.4-7.4v-9.6h-14.8V398L-248.2,398z"/>
			<path class="st6" d="M-240.8,405.5c-4.2,0-7.5-3.4-7.5-7.5v-9.7h15v9.7C-233.3,402.2-236.6,405.5-240.8,405.5z M-248.1,388.6v9.4
				c0,4,3.3,7.3,7.3,7.3c4,0,7.3-3.3,7.3-7.3v-9.4H-248.1z"/>
		</g>
		<g>
			<path class="st7" d="M-240.8,397"/>
		</g>
		<g>
			<path class="st6" d="M-244.7,397.6c0,2.4,1.8,4.4,4,4.4s4-2,4-4.4V392h-7.9V397.6L-244.7,397.6z"/>
		</g>
		<g>
			<path d="M-240.8,402c-2.2,0-4-2-4-4.4v-5.7h8.1v5.7C-236.7,400-238.5,402-240.8,402z M-244.7,392v5.6c0,2.4,1.8,4.3,3.9,4.3
				c2.1,0,3.9-1.9,3.9-4.3V392H-244.7z"/>
		</g>
		<g>
			<path class="st6" d="M-240.8,397"/>
		</g>
		<g>
			<path class="st4" d="M-240.8,397"/>
		</g>
		<g>
			<polygon class="st3" points="-245.8,390.1 -245.8,389.1 -245.4,389.1 -245.4,390.1 			"/>
		</g>
		<g>
			<path d="M-245.4,390.2h-0.5V389h0.5V390.2z M-245.8,390.1h0.4v-1h-0.4V390.1z"/>
		</g>
		<g>
			<polygon class="st3" points="-246.7,390.1 -246.7,389.1 -246.3,389.1 -246.3,390.1 			"/>
		</g>
		<g>
			<path d="M-246.2,390.2h-0.5V389h0.5V390.2z M-246.7,390.1h0.4v-1h-0.4V390.1z"/>
		</g>
		<g>
			<polygon class="st3" points="-247.6,390.1 -247.6,389.1 -247.1,389.1 -247.1,390.1 			"/>
		</g>
		<g>
			<path d="M-247.1,390.2h-0.5V389h0.5V390.2z M-247.5,390.1h0.4v-1h-0.4V390.1z"/>
		</g>
		<g>
			<polygon class="st3" points="-246.2,389.2 -246.2,389 -246.8,389 -246.8,389.2 			"/>
		</g>
		<g>
			<path d="M-246.1,389.2h-0.7v-0.3h0.7V389.2z M-246.8,389.2h0.6V389h-0.6V389.2z"/>
		</g>
		<g>
			<polygon class="st3" points="-245.4,391.3 -245.4,389.6 -247.6,389.6 -247.6,391.3 			"/>
		</g>
		<g>
			<path d="M-245.4,391.4h-2.2v-1.8h2.2V391.4z M-247.5,391.3h2.1v-1.7h-2.1V391.3z"/>
		</g>
		<g>
			<polygon class="st3" points="-245.3,390.2 -245.3,389.9 -247.7,389.9 -247.7,390.2 			"/>
		</g>
		<g>
			<path d="M-245.3,390.2h-2.4v-0.3h2.4V390.2z M-247.6,390.2h2.3V390h-2.3V390.2z"/>
		</g>
		<g>
			<polygon class="st3" points="-245.3,391.6 -245.3,391.3 -247.7,391.3 -247.7,391.6 			"/>
		</g>
		<g>
			<path d="M-245.3,391.6h-2.4v-0.3h2.4V391.6z M-247.6,391.5h2.3v-0.2h-2.3V391.5z"/>
		</g>
		<g>
			<path class="st3" d="M-247,391.3c0,0,0-0.2,0-0.4c0-0.3,0.2-0.5,0.6-0.5c0.3,0,0.6,0.2,0.6,0.5c0,0.2,0,0.4,0,0.4H-247
				L-247,391.3z"/>
		</g>
		<g>
			<path d="M-245.9,391.4h-1.2v-0.5c0-0.3,0.3-0.6,0.6-0.6s0.6,0.3,0.6,0.6V391.4z M-247,391.3h1v-0.4c0-0.3-0.2-0.5-0.5-0.5
				s-0.5,0.2-0.5,0.5V391.3z"/>
		</g>
		<g>
			<path class="st3" d="M-246.8,391.3c0,0,0-0.2,0-0.3c0-0.2,0.1-0.4,0.3-0.4c0.2,0,0.3,0.2,0.3,0.4c0,0.1,0,0.3,0,0.3H-246.8
				L-246.8,391.3z"/>
		</g>
		<g>
			<path d="M-246.1,391.4h-0.7V391c0-0.2,0.2-0.4,0.4-0.4s0.4,0.2,0.4,0.4V391.4z M-246.8,391.3h0.6V391c0-0.2-0.1-0.4-0.3-0.4
				s-0.3,0.2-0.3,0.4V391.3z"/>
		</g>
		<g>
			<polygon class="st3" points="-245.3,389.2 -245.3,389 -245.9,389 -245.9,389.2 			"/>
		</g>
		<g>
			<path d="M-245.3,389.2h-0.7v-0.3h0.7V389.2z M-245.9,389.2h0.6V389h-0.6V389.2z"/>
		</g>
		<g>
			<polygon class="st3" points="-247.7,389.2 -247.7,389 -247,389 -247,389.2 			"/>
		</g>
		<g>
			<path d="M-247,389.2h-0.7v-0.3h0.7V389.2z M-247.6,389.2h0.6V389h-0.6V389.2z"/>
		</g>
		<g>
			<path class="st3" d="M-246.5,390.3"/>
		</g>
		<g>
			<path class="st8" d="M-246.5,390.3"/>
		</g>
		<g>
			<polygon class="st3" points="-234.5,390.1 -234.5,389.1 -234,389.1 -234,390.1 			"/>
		</g>
		<g>
			<path d="M-234,390.1h-0.5V389h0.5V390.1z M-234.4,390.1h0.4v-1h-0.4V390.1z"/>
		</g>
		<g>
			<polygon class="st3" points="-235.3,390.1 -235.3,389.1 -234.9,389.1 -234.9,390.1 			"/>
		</g>
		<g>
			<path d="M-234.9,390.1h-0.5V389h0.5V390.1z M-235.3,390.1h0.4v-1h-0.4V390.1z"/>
		</g>
		<g>
			<polygon class="st3" points="-236.2,390.1 -236.2,389.1 -235.8,389.1 -235.8,390.1 			"/>
		</g>
		<g>
			<path d="M-235.7,390.1h-0.5V389h0.5V390.1z M-236.2,390.1h0.4v-1h-0.4V390.1z"/>
		</g>
		<g>
			<polygon class="st3" points="-234.8,389.2 -234.8,388.9 -235.4,388.9 -235.4,389.2 			"/>
		</g>
		<g>
			<path d="M-234.8,389.2h-0.7v-0.3h0.7V389.2z M-235.4,389.2h0.6V389h-0.6V389.2z"/>
		</g>
		<g>
			<polygon class="st3" points="-234,391.3 -234,389.5 -236.2,389.5 -236.2,391.3 			"/>
		</g>
		<g>
			<path d="M-234,391.4h-2.2v-1.8h2.2V391.4z M-236.2,391.3h2.1v-1.7h-2.1V391.3z"/>
		</g>
		<g>
			<polygon class="st3" points="-233.9,390.2 -233.9,389.9 -236.3,389.9 -236.3,390.2 			"/>
		</g>
		<g>
			<path d="M-233.9,390.2h-2.4v-0.3h2.4V390.2z M-236.3,390.1h2.3V390h-2.3V390.1z"/>
		</g>
		<g>
			<polygon class="st3" points="-233.9,391.6 -233.9,391.3 -236.3,391.3 -236.3,391.6 			"/>
		</g>
		<g>
			<path d="M-233.9,391.6h-2.4v-0.3h2.4V391.6z M-236.3,391.5h2.3v-0.2h-2.3V391.5z"/>
		</g>
		<g>
			<path class="st3" d="M-235.7,391.3c0,0,0-0.2,0-0.4c0-0.3,0.2-0.5,0.6-0.5c0.3,0,0.6,0.2,0.6,0.5c0,0.2,0,0.4,0,0.4H-235.7
				L-235.7,391.3z"/>
		</g>
		<g>
			<path d="M-234.5,391.4h-1.2v-0.5c0-0.3,0.3-0.6,0.6-0.6s0.6,0.3,0.6,0.6V391.4z M-235.6,391.3h1v-0.4c0-0.3-0.2-0.5-0.5-0.5
				s-0.5,0.2-0.5,0.5V391.3z"/>
		</g>
		<g>
			<path class="st3" d="M-235.4,391.3c0,0,0-0.2,0-0.3c0-0.2,0.1-0.4,0.3-0.4c0.2,0,0.3,0.2,0.3,0.4c0,0.1,0,0.3,0,0.3H-235.4
				L-235.4,391.3z"/>
		</g>
		<g>
			<path d="M-234.7,391.4h-0.7V391c0-0.2,0.2-0.4,0.4-0.4s0.4,0.2,0.4,0.4V391.4z M-235.4,391.3h0.6V391c0-0.2-0.1-0.4-0.3-0.4
				s-0.3,0.2-0.3,0.4V391.3z"/>
		</g>
		<g>
			<polygon class="st3" points="-233.9,389.2 -233.9,388.9 -234.6,388.9 -234.6,389.2 			"/>
		</g>
		<g>
			<path d="M-233.9,389.2h-0.7v-0.3h0.7V389.2z M-234.5,389.2h0.6V389h-0.6V389.2z"/>
		</g>
		<g>
			<polygon class="st3" points="-236.3,389.2 -236.3,388.9 -235.7,388.9 -235.7,389.2 			"/>
		</g>
		<g>
			<path d="M-235.6,389.2h-0.7v-0.3h0.7V389.2z M-236.3,389.2h0.6V389h-0.6V389.2z"/>
		</g>
		<g>
			<path class="st3" d="M-235.1,390.3"/>
		</g>
		<g>
			<path class="st9" d="M-235.1,390.3"/>
		</g>
		<g>
			<polygon class="st3" points="-240.1,390.1 -240.1,389.1 -239.7,389.1 -239.7,390.1 			"/>
		</g>
		<g>
			<path d="M-239.7,390.2h-0.5V389h0.5V390.2z M-240.1,390.1h0.4v-1h-0.4V390.1z"/>
		</g>
		<g>
			<polygon class="st3" points="-241,390.1 -241,389.1 -240.6,389.1 -240.6,390.1 			"/>
		</g>
		<g>
			<path d="M-240.5,390.2h-0.5V389h0.5V390.2z M-241,390.1h0.4v-1h-0.4V390.1z"/>
		</g>
		<g>
			<polygon class="st3" points="-241.9,390.1 -241.9,389.1 -241.4,389.1 -241.4,390.1 			"/>
		</g>
		<g>
			<path d="M-241.4,390.2h-0.5V389h0.5V390.2z M-241.8,390.1h0.4v-1h-0.4V390.1z"/>
		</g>
		<g>
			<polygon class="st3" points="-240.5,389.2 -240.5,389 -241.1,389 -241.1,389.2 			"/>
		</g>
		<g>
			<path d="M-240.4,389.2h-0.7v-0.3h0.7V389.2z M-241.1,389.2h0.6V389h-0.6V389.2z"/>
		</g>
		<g>
			<polygon class="st3" points="-239.7,391.3 -239.7,389.6 -241.9,389.6 -241.9,391.3 			"/>
		</g>
		<g>
			<path d="M-239.7,391.4h-2.2v-1.8h2.2V391.4z M-241.8,391.3h2.1v-1.7h-2.1V391.3z"/>
		</g>
		<g>
			<polygon class="st3" points="-239.6,390.2 -239.6,389.9 -242,389.9 -242,390.2 			"/>
		</g>
		<g>
			<path d="M-239.6,390.2h-2.4v-0.3h2.4V390.2z M-241.9,390.2h2.3V390h-2.3V390.2z"/>
		</g>
		<g>
			<polygon class="st3" points="-239.6,391.6 -239.6,391.3 -242,391.3 -242,391.6 			"/>
		</g>
		<g>
			<path d="M-239.6,391.6h-2.4v-0.3h2.4V391.6z M-241.9,391.5h2.3v-0.2h-2.3V391.5z"/>
		</g>
		<g>
			<path class="st3" d="M-241.3,391.3c0,0,0-0.2,0-0.4c0-0.3,0.2-0.5,0.6-0.5c0.3,0,0.6,0.2,0.6,0.5c0,0.2,0,0.4,0,0.4H-241.3
				L-241.3,391.3z"/>
		</g>
		<g>
			<path d="M-240.2,391.4h-1.2v-0.5c0-0.3,0.3-0.6,0.6-0.6c0.3,0,0.6,0.3,0.6,0.6V391.4z M-241.3,391.3h1v-0.4
				c0-0.3-0.2-0.5-0.5-0.5s-0.5,0.2-0.5,0.5V391.3z"/>
		</g>
		<g>
			<path class="st3" d="M-241.1,391.3c0,0,0-0.2,0-0.3c0-0.2,0.1-0.4,0.3-0.4c0.2,0,0.3,0.2,0.3,0.4c0,0.1,0,0.3,0,0.3H-241.1
				L-241.1,391.3z"/>
		</g>
		<g>
			<path d="M-240.4,391.4h-0.7V391c0-0.2,0.2-0.4,0.4-0.4s0.4,0.2,0.4,0.4V391.4z M-241.1,391.3h0.6V391c0-0.2-0.1-0.4-0.3-0.4
				c-0.2,0-0.3,0.2-0.3,0.4V391.3z"/>
		</g>
		<g>
			<polygon class="st3" points="-239.6,389.2 -239.6,389 -240.2,389 -240.2,389.2 			"/>
		</g>
		<g>
			<path d="M-239.6,389.2h-0.7v-0.3h0.7V389.2z M-240.2,389.2h0.6V389h-0.6V389.2z"/>
		</g>
		<g>
			<polygon class="st3" points="-242,389.2 -242,389 -241.3,389 -241.3,389.2 			"/>
		</g>
		<g>
			<path d="M-241.3,389.2h-0.7v-0.3h0.7V389.2z M-241.9,389.2h0.6V389h-0.6V389.2z"/>
		</g>
		<g>
			<path class="st3" d="M-240.8,390.3"/>
		</g>
		<g>
			<path class="st9" d="M-240.8,390.3"/>
		</g>
		<g>
			<polygon class="st3" points="-245.8,396.8 -245.8,395.8 -245.4,395.8 -245.4,396.8 			"/>
		</g>
		<g>
			<path d="M-245.4,396.9h-0.5v-1.1h0.5V396.9z M-245.8,396.8h0.4v-1h-0.4V396.8z"/>
		</g>
		<g>
			<polygon class="st3" points="-246.7,396.8 -246.7,395.8 -246.3,395.8 -246.3,396.8 			"/>
		</g>
		<g>
			<path d="M-246.2,396.9h-0.5v-1.1h0.5V396.9z M-246.7,396.8h0.4v-1h-0.4V396.8z"/>
		</g>
		<g>
			<polygon class="st3" points="-247.6,396.8 -247.6,395.8 -247.1,395.8 -247.1,396.8 			"/>
		</g>
		<g>
			<path d="M-247.1,396.9h-0.5v-1.1h0.5V396.9z M-247.5,396.8h0.4v-1h-0.4V396.8z"/>
		</g>
		<g>
			<polygon class="st3" points="-246.2,395.9 -246.2,395.7 -246.8,395.7 -246.8,395.9 			"/>
		</g>
		<g>
			<path d="M-246.1,395.9h-0.7v-0.3h0.7V395.9z M-246.8,395.9h0.6v-0.2h-0.6V395.9z"/>
		</g>
		<g>
			<polygon class="st3" points="-245.4,398 -245.4,396.3 -247.6,396.3 -247.6,398 			"/>
		</g>
		<g>
			<path d="M-245.4,398.1h-2.2v-1.8h2.2V398.1z M-247.5,398h2.1v-1.7h-2.1V398z"/>
		</g>
		<g>
			<polygon class="st3" points="-245.3,396.9 -245.3,396.6 -247.7,396.6 -247.7,396.9 			"/>
		</g>
		<g>
			<path d="M-245.3,396.9h-2.4v-0.3h2.4V396.9z M-247.6,396.9h2.3v-0.2h-2.3V396.9z"/>
		</g>
		<g>
			<polygon class="st3" points="-245.3,398.3 -245.3,398 -247.7,398 -247.7,398.3 			"/>
		</g>
		<g>
			<path d="M-245.3,398.3h-2.4V398h2.4V398.3z M-247.6,398.2h2.3v-0.2h-2.3V398.2z"/>
		</g>
		<g>
			<path class="st3" d="M-247,398c0,0,0-0.2,0-0.4c0-0.3,0.2-0.5,0.6-0.5c0.3,0,0.6,0.2,0.6,0.5c0,0.2,0,0.4,0,0.4H-247L-247,398z"
				/>
		</g>
		<g>
			<path d="M-245.9,398.1h-1.2v-0.5c0-0.3,0.3-0.6,0.6-0.6s0.6,0.3,0.6,0.6V398.1z M-247,398h1v-0.4c0-0.3-0.2-0.5-0.5-0.5
				s-0.5,0.2-0.5,0.5V398z"/>
		</g>
		<g>
			<path class="st3" d="M-246.8,398c0,0,0-0.2,0-0.3c0-0.2,0.1-0.4,0.3-0.4c0.2,0,0.3,0.2,0.3,0.4c0,0.1,0,0.3,0,0.3H-246.8
				L-246.8,398z"/>
		</g>
		<g>
			<path d="M-246.1,398.1h-0.7v-0.4c0-0.2,0.2-0.4,0.4-0.4s0.4,0.2,0.4,0.4V398.1z M-246.8,398h0.6v-0.3c0-0.2-0.1-0.4-0.3-0.4
				s-0.3,0.2-0.3,0.4V398z"/>
		</g>
		<g>
			<polygon class="st3" points="-245.3,395.9 -245.3,395.7 -245.9,395.7 -245.9,395.9 			"/>
		</g>
		<g>
			<path d="M-245.3,395.9h-0.7v-0.3h0.7V395.9z M-245.9,395.9h0.6v-0.2h-0.6V395.9z"/>
		</g>
		<g>
			<polygon class="st3" points="-247.7,395.9 -247.7,395.7 -247,395.7 -247,395.9 			"/>
		</g>
		<g>
			<path d="M-247,395.9h-0.7v-0.3h0.7V395.9z M-247.6,395.9h0.6v-0.2h-0.6V395.9z"/>
		</g>
		<g>
			<path class="st3" d="M-246.5,397"/>
		</g>
		<g>
			<path class="st9" d="M-246.5,397"/>
		</g>
		<g>
			<polygon class="st3" points="-235.7,396.8 -235.7,395.8 -236.2,395.8 -236.2,396.8 			"/>
		</g>
		<g>
			<path d="M-235.7,396.9h-0.5v-1.1h0.5V396.9z M-236.1,396.8h0.4v-1h-0.4V396.8z"/>
		</g>
		<g>
			<polygon class="st3" points="-234.9,396.8 -234.9,395.8 -235.3,395.8 -235.3,396.8 			"/>
		</g>
		<g>
			<path d="M-234.8,396.9h-0.5v-1.1h0.5V396.9z M-235.3,396.8h0.4v-1h-0.4V396.8z"/>
		</g>
		<g>
			<polygon class="st3" points="-234,396.8 -234,395.8 -234.4,395.8 -234.4,396.8 			"/>
		</g>
		<g>
			<path d="M-234,396.9h-0.5v-1.1h0.5V396.9z M-234.4,396.8h0.4v-1h-0.4V396.8z"/>
		</g>
		<g>
			<polygon class="st3" points="-235.4,395.9 -235.4,395.7 -234.8,395.7 -234.8,395.9 			"/>
		</g>
		<g>
			<path d="M-234.7,395.9h-0.7v-0.3h0.7V395.9z M-235.4,395.9h0.6v-0.2h-0.6V395.9z"/>
		</g>
		<g>
			<polygon class="st3" points="-236.2,398 -236.2,396.3 -234,396.3 -234,398 			"/>
		</g>
		<g>
			<path d="M-234,398.1h-2.2v-1.8h2.2V398.1z M-236.1,398h2.1v-1.7h-2.1V398z"/>
		</g>
		<g>
			<polygon class="st3" points="-236.3,396.9 -236.3,396.6 -233.9,396.6 -233.9,396.9 			"/>
		</g>
		<g>
			<path d="M-233.9,396.9h-2.4v-0.3h2.4V396.9z M-236.2,396.9h2.3v-0.2h-2.3V396.9z"/>
		</g>
		<g>
			<polygon class="st3" points="-236.3,398.3 -236.3,398 -233.9,398 -233.9,398.3 			"/>
		</g>
		<g>
			<path d="M-233.9,398.3h-2.4V398h2.4V398.3z M-236.2,398.2h2.3v-0.2h-2.3V398.2z"/>
		</g>
		<g>
			<path class="st3" d="M-234.5,398c0,0,0-0.2,0-0.4c0-0.3-0.2-0.5-0.6-0.5c-0.3,0-0.6,0.2-0.6,0.5c0,0.2,0,0.4,0,0.4H-234.5
				L-234.5,398z"/>
		</g>
		<g>
			<path d="M-234.5,398.1h-1.2v-0.5c0-0.3,0.3-0.6,0.6-0.6c0.3,0,0.6,0.3,0.6,0.6V398.1z M-235.6,398h1v-0.4c0-0.3-0.2-0.5-0.5-0.5
				s-0.5,0.2-0.5,0.5V398z"/>
		</g>
		<g>
			<path class="st3" d="M-234.7,398c0,0,0-0.2,0-0.3c0-0.2-0.1-0.4-0.3-0.4c-0.2,0-0.3,0.2-0.3,0.4c0,0.1,0,0.3,0,0.3H-234.7
				L-234.7,398z"/>
		</g>
		<g>
			<path d="M-234.7,398.1h-0.7v-0.4c0-0.2,0.2-0.4,0.4-0.4s0.4,0.2,0.4,0.4V398.1z M-235.4,398h0.6v-0.3c0-0.2-0.1-0.4-0.3-0.4
				c-0.2,0-0.3,0.2-0.3,0.4V398z"/>
		</g>
		<g>
			<polygon class="st3" points="-236.2,395.9 -236.2,395.7 -235.6,395.7 -235.6,395.9 			"/>
		</g>
		<g>
			<path d="M-235.6,395.9h-0.7v-0.3h0.7V395.9z M-236.2,395.9h0.6v-0.2h-0.6V395.9z"/>
		</g>
		<g>
			<polygon class="st3" points="-233.9,395.9 -233.9,395.7 -234.5,395.7 -234.5,395.9 			"/>
		</g>
		<g>
			<path d="M-233.9,395.9h-0.7v-0.3h0.7V395.9z M-234.5,395.9h0.6v-0.2h-0.6V395.9z"/>
		</g>
		<g>
			<path class="st3" d="M-235.1,397"/>
		</g>
		<g>
			<path class="st9" d="M-235.1,397"/>
		</g>
		<g>
			<polygon class="st3" points="-243.6,402.1 -244.4,401.5 -244.2,401.2 -243.3,401.7 			"/>
		</g>
		<g>
			<path d="M-243.5,402.1L-243.5,402.1l-0.9-0.6l0.3-0.4l0,0l0.9,0.6L-243.5,402.1z M-244.4,401.5l0.8,0.5l0.2-0.3l-0.8-0.5
				L-244.4,401.5z"/>
		</g>
		<g>
			<polygon class="st3" points="-244,402.8 -244.9,402.2 -244.7,401.9 -243.8,402.5 			"/>
		</g>
		<g>
			<path d="M-244,402.9L-244,402.9l-0.9-0.6l0.3-0.4l0,0l0.9,0.6L-244,402.9z M-244.9,402.2l0.8,0.5l0.2-0.3l-0.8-0.5L-244.9,402.2z
				"/>
		</g>
		<g>
			<polygon class="st3" points="-244.5,403.5 -245.4,403 -245.1,402.6 -244.3,403.2 			"/>
		</g>
		<g>
			<path d="M-244.5,403.6L-244.5,403.6l-0.9-0.6l0.3-0.4l0,0l0.9,0.6L-244.5,403.6z M-245.3,403l0.8,0.5l0.2-0.3l-0.8-0.5
				L-245.3,403z"/>
		</g>
		<g>
			<polygon class="st3" points="-244.5,401.9 -244.7,401.7 -245.1,402.3 -244.9,402.4 			"/>
		</g>
		<g>
			<polygon points="-244.8,402.4 -244.9,402.4 -245.1,402.3 -244.7,401.7 -244.5,401.9 			"/>
		</g>
		<g>
			<polygon class="st3" points="-242.3,402.4 -243.8,401.4 -245,403.2 -243.5,404.2 			"/>
		</g>
		<g>
			<path d="M-243.5,404.3L-243.5,404.3l-1.5-1l0,0l1.2-1.8l0,0l1.5,1l0,0L-243.5,404.3z M-244.9,403.2l1.4,1l1.2-1.8l-1.4-0.9
				L-244.9,403.2z"/>
		</g>
		<g>
			<polygon class="st3" points="-243.2,401.7 -243.4,401.5 -244.7,403.5 -244.5,403.7 			"/>
		</g>
		<g>
			<path d="M-244.5,403.7l-0.3-0.2l0,0l1.3-2l0.3,0.2l0,0L-244.5,403.7z M-244.7,403.5l0.1,0.1l1.3-1.9l-0.1-0.1L-244.7,403.5z"/>
		</g>
		<g>
			<polygon class="st3" points="-242,402.4 -242.2,402.3 -243.6,404.3 -243.4,404.4 			"/>
		</g>
		<g>
			<path d="M-243.4,404.5l-0.3-0.2l0,0l1.3-2l0,0l0.2,0.1l0,0L-243.4,404.5z M-243.5,404.3l0.1,0.1l1.3-1.9l-0.1-0.1L-243.5,404.3z"
				/>
		</g>
		<g>
			<path class="st3" d="M-243.2,403.8c0,0-0.2-0.1-0.3-0.2c-0.2-0.2-0.3-0.5-0.1-0.8c0.2-0.3,0.5-0.3,0.8-0.2
				c0.2,0.1,0.3,0.2,0.3,0.2L-243.2,403.8L-243.2,403.8z"/>
		</g>
		<g>
			<path d="M-243.2,403.8L-243.2,403.8l-0.4-0.2c-0.1-0.1-0.2-0.2-0.2-0.4c0-0.2,0-0.3,0.1-0.4c0.1-0.1,0.2-0.2,0.4-0.3
				c0.1,0,0.3,0,0.4,0.1l0.4,0.2L-243.2,403.8z M-243.2,402.6c0,0-0.1,0-0.1,0c-0.1,0-0.3,0.1-0.3,0.2c-0.1,0.1-0.1,0.3-0.1,0.4
				c0,0.1,0.1,0.2,0.2,0.3l0.3,0.2l0.6-0.9l-0.3-0.2C-243,402.6-243.1,402.6-243.2,402.6z"/>
		</g>
		<g>
			<path class="st3" d="M-243.1,403.6c0,0-0.2-0.1-0.3-0.2c-0.2-0.1-0.3-0.4-0.2-0.5c0.1-0.2,0.3-0.2,0.5,0c0.1,0.1,0.3,0.2,0.3,0.2
				L-243.1,403.6L-243.1,403.6z"/>
		</g>
		<g>
			<path d="M-243.1,403.6L-243.1,403.6l-0.3-0.2c-0.2-0.1-0.3-0.4-0.2-0.5c0.1-0.1,0.1-0.1,0.3-0.1c0.1,0,0.2,0,0.3,0.1
				c0.1,0.1,0.3,0.2,0.3,0.2l0,0L-243.1,403.6z M-243.3,402.8C-243.3,402.8-243.3,402.8-243.3,402.8c-0.1,0-0.2,0.1-0.2,0.1
				c-0.1,0.1,0,0.3,0.2,0.5l0.2,0.2l0.3-0.5c0,0-0.2-0.1-0.2-0.2C-243.1,402.8-243.2,402.8-243.3,402.8z"/>
		</g>
		<g>
			<polygon class="st3" points="-244,401.2 -244.2,401 -244.6,401.5 -244.4,401.7 			"/>
		</g>
		<g>
			<polygon points="-244.4,401.7 -244.6,401.6 -244.2,401 -244.2,401 -244,401.1 			"/>
		</g>
		<g>
			<polygon class="st3" points="-245.3,403.1 -245.5,403 -245.2,402.4 -245,402.6 			"/>
		</g>
		<g>
			<rect x="-245.4" y="402.4" transform="matrix(0.834 0.5518 -0.5518 0.834 181.5247 202.1795)" width="0.3" height="0.7"/>
		</g>
		<g>
			<path class="st3" d="M-243.8,402.7"/>
		</g>
		<g>
			<path class="st9" d="M-243.8,402.7"/>
		</g>
		<g>
			<polygon class="st3" points="-238,402.1 -237.1,401.5 -237.4,401.2 -238.2,401.7 			"/>
		</g>
		<g>
			<path d="M-238,402.1l-0.3-0.4l0.9-0.6l0.3,0.4L-238,402.1z M-238.2,401.7l0.2,0.3l0.8-0.5l-0.2-0.3L-238.2,401.7z"/>
		</g>
		<g>
			<polygon class="st3" points="-237.5,402.8 -236.7,402.2 -236.9,401.9 -237.8,402.5 			"/>
		</g>
		<g>
			<path d="M-237.5,402.9l-0.3-0.4l0.9-0.6l0.3,0.4L-237.5,402.9z M-237.7,402.5l0.2,0.3l0.8-0.5l-0.2-0.3L-237.7,402.5z"/>
		</g>
		<g>
			<polygon class="st3" points="-237.1,403.5 -236.2,403 -236.4,402.6 -237.3,403.2 			"/>
		</g>
		<g>
			<path d="M-237.1,403.6l-0.3-0.4l0.9-0.6l0.3,0.4L-237.1,403.6z M-237.2,403.2l0.2,0.3l0.8-0.5l-0.2-0.3L-237.2,403.2z"/>
		</g>
		<g>
			<polygon class="st3" points="-237.1,401.9 -236.9,401.7 -236.5,402.3 -236.7,402.4 			"/>
		</g>
		<g>
			<path d="M-236.7,402.4L-236.7,402.4l-0.4-0.6l0.3-0.2l0,0l0.4,0.6L-236.7,402.4z M-237,401.9l0.3,0.5l0.2-0.1l-0.3-0.5
				L-237,401.9z"/>
		</g>
		<g>
			<polygon class="st3" points="-239.3,402.4 -237.8,401.4 -236.6,403.2 -238.1,404.2 			"/>
		</g>
		<g>
			<path d="M-238.1,404.3L-238.1,404.3l-1.2-1.9l0,0l1.5-1l0,0l1.2,1.8l0,0L-238.1,404.3z M-239.2,402.4l1.2,1.8l1.4-1l-1.2-1.8
				L-239.2,402.4z"/>
		</g>
		<g>
			<polygon class="st3" points="-238.4,401.7 -238.2,401.5 -236.8,403.5 -237,403.7 			"/>
		</g>
		<g>
			<path d="M-237,403.7L-237,403.7l-1.3-2l0.3-0.2l0,0l1.3,2L-237,403.7z M-238.3,401.7l1.3,1.9l0.1-0.1l-1.3-1.9L-238.3,401.7z"/>
		</g>
		<g>
			<polygon class="st3" points="-239.5,402.4 -239.3,402.3 -238,404.3 -238.2,404.4 			"/>
		</g>
		<g>
			<path d="M-238.2,404.5L-238.2,404.5l-1.3-2l0.3-0.2l0,0l1.3,2L-238.2,404.5z M-239.5,402.5l1.3,1.9l0.1-0.1l-1.3-1.9
				L-239.5,402.5z"/>
		</g>
		<g>
			<path class="st3" d="M-238.4,403.8c0,0,0.2-0.1,0.3-0.2c0.2-0.2,0.3-0.5,0.1-0.8c-0.2-0.3-0.5-0.3-0.8-0.2
				c-0.2,0.1-0.3,0.2-0.3,0.2L-238.4,403.8L-238.4,403.8z"/>
		</g>
		<g>
			<path d="M-238.4,403.8L-238.4,403.8l-0.6-1l0.4-0.2c0.1-0.1,0.3-0.1,0.4-0.1c0.2,0,0.3,0.1,0.4,0.3c0.1,0.1,0.1,0.3,0.1,0.4
				c0,0.1-0.1,0.3-0.2,0.4L-238.4,403.8z M-238.9,402.9l0.6,0.9l0.3-0.2c0.1-0.1,0.2-0.2,0.2-0.3c0-0.1,0-0.3-0.1-0.4
				c-0.1-0.1-0.2-0.2-0.3-0.2c-0.1,0-0.3,0-0.4,0.1L-238.9,402.9z"/>
		</g>
		<g>
			<path class="st3" d="M-238.5,403.6c0,0,0.2-0.1,0.3-0.2c0.2-0.1,0.3-0.4,0.2-0.5s-0.3-0.2-0.5,0c-0.1,0.1-0.3,0.2-0.3,0.2
				L-238.5,403.6L-238.5,403.6z"/>
		</g>
		<g>
			<path d="M-238.5,403.6L-238.5,403.6l-0.4-0.6l0.3-0.2c0.1-0.1,0.2-0.1,0.3-0.1c0.1,0,0.2,0.1,0.3,0.1c0.1,0.2,0,0.4-0.2,0.5
				L-238.5,403.6z M-238.8,403l0.3,0.5l0.2-0.2c0.2-0.1,0.2-0.3,0.2-0.5c0-0.1-0.1-0.1-0.2-0.1c-0.1,0-0.2,0-0.3,0.1L-238.8,403z"/>
		</g>
		<g>
			<polygon class="st3" points="-237.5,401.2 -237.3,401 -237,401.5 -237.2,401.7 			"/>
		</g>
		<g>
			<path d="M-237.2,401.7L-237.2,401.7l-0.4-0.6l0.3-0.2l0,0l0.4,0.6L-237.2,401.7z M-237.5,401.2l0.3,0.5l0.2-0.1l-0.3-0.5
				L-237.5,401.2z"/>
		</g>
		<g>
			<polygon class="st3" points="-236.2,403.1 -236,403 -236.4,402.4 -236.6,402.6 			"/>
		</g>
		<g>
			<path d="M-236.2,403.2L-236.2,403.2l-0.4-0.6l0.3-0.2l0,0l0.4,0.6L-236.2,403.2z M-236.5,402.6l0.3,0.5l0.2-0.1l-0.3-0.5
				L-236.5,402.6z"/>
		</g>
		<g>
			<path class="st3" d="M-237.8,402.7"/>
		</g>
		<g>
			<path class="st9" d="M-237.8,402.7"/>
		</g>
		<g>
			<path class="st10" d="M-241.7,394c0,0.6,0.4,1,1,1c0.5,0,1-0.5,1-1v-1.3h-1.9V394L-241.7,394z"/>
		</g>
		<g>
			<path d="M-240.8,395.1c-0.5,0-1-0.5-1-1.1v-1.4h2v1.4C-239.8,394.6-240.2,395.1-240.8,395.1z M-241.7,392.7v1.3
				c0,0.5,0.4,1,0.9,1c0.5,0,0.9-0.4,0.9-1v-1.3H-241.7z"/>
		</g>
		<g>
			<path class="st10" d="M-241.7,397.1c0,0.6,0.4,1,1,1c0.5,0,1-0.5,1-1v-1.3h-1.9V397.1L-241.7,397.1z"/>
		</g>
		<g>
			<path d="M-240.8,398.1c-0.5,0-1-0.5-1-1.1v-1.4h2v1.4C-239.8,397.7-240.2,398.1-240.8,398.1z M-241.7,395.8v1.3
				c0,0.5,0.4,1,0.9,1c0.5,0,0.9-0.4,0.9-1v-1.3H-241.7z"/>
		</g>
		<g>
			<path class="st10" d="M-241.7,400.1c0,0.6,0.4,1,1,1c0.5,0,1-0.5,1-1v-1.3h-1.9V400.1L-241.7,400.1z"/>
		</g>
		<g>
			<path d="M-240.8,401.2c-0.5,0-1-0.5-1-1.1v-1.4h2v1.4C-239.8,400.7-240.2,401.2-240.8,401.2z M-241.7,398.8v1.3
				c0,0.5,0.4,1,0.9,1c0.5,0,0.9-0.4,0.9-1v-1.3H-241.7z"/>
		</g>
		<g>
			<path class="st10" d="M-244.2,397.1c0,0.6,0.4,1,1,1s1-0.5,1-1v-1.3h-1.9V397.1L-244.2,397.1z"/>
		</g>
		<g>
			<path d="M-243.3,398.1c-0.5,0-1-0.5-1-1.1v-1.4h2v1.4C-242.3,397.7-242.7,398.1-243.3,398.1z M-244.2,395.8v1.3
				c0,0.5,0.4,1,0.9,1c0.5,0,0.9-0.4,0.9-1v-1.3H-244.2z"/>
		</g>
		<g>
			<path class="st10" d="M-237.3,397.1c0,0.6-0.4,1-1,1c-0.5,0-1-0.5-1-1v-1.3h1.9V397.1L-237.3,397.1z"/>
		</g>
		<g>
			<path d="M-238.3,398.1c-0.5,0-1-0.5-1-1.1v-1.4h2v1.4C-237.3,397.7-237.8,398.1-238.3,398.1z M-239.2,395.8v1.3
				c0,0.5,0.4,1,0.9,1c0.5,0,0.9-0.4,0.9-1v-1.3H-239.2z"/>
		</g>
		<g>
			<path class="st6" d="M-240.8,393.9c0.1,0,0.2-0.1,0.2-0.2s-0.1-0.2-0.2-0.2s-0.2,0.1-0.2,0.2C-241,393.8-240.9,393.9-240.8,393.9
				L-240.8,393.9z"/>
		</g>
		<g>
			<path class="st6" d="M-241.2,393.3c0.1,0,0.2-0.1,0.2-0.2c0-0.1-0.1-0.2-0.2-0.2c-0.1,0-0.2,0.1-0.2,0.2
				C-241.4,393.2-241.3,393.3-241.2,393.3L-241.2,393.3z"/>
		</g>
		<g>
			<path class="st6" d="M-240.3,393.3c-0.1,0-0.2-0.1-0.2-0.2c0-0.1,0.1-0.2,0.2-0.2c0.1,0,0.2,0.1,0.2,0.2
				C-240.1,393.2-240.2,393.3-240.3,393.3L-240.3,393.3z"/>
		</g>
		<g>
			<path class="st6" d="M-241.2,394.1c0.1,0,0.2,0.1,0.2,0.2s-0.1,0.2-0.2,0.2c-0.1,0-0.2-0.1-0.2-0.2S-241.3,394.1-241.2,394.1
				L-241.2,394.1z"/>
		</g>
		<g>
			<path class="st6" d="M-240.3,394.1c-0.1,0-0.2,0.1-0.2,0.2s0.1,0.2,0.2,0.2c0.1,0,0.2-0.1,0.2-0.2S-240.2,394.1-240.3,394.1
				L-240.3,394.1z"/>
		</g>
		<g>
			<path class="st6" d="M-240.8,396.9c0.1,0,0.2-0.1,0.2-0.2s-0.1-0.2-0.2-0.2s-0.2,0.1-0.2,0.2C-241,396.9-240.9,396.9-240.8,396.9
				L-240.8,396.9z"/>
		</g>
		<g>
			<path class="st6" d="M-241.2,396.3c0.1,0,0.2-0.1,0.2-0.2s-0.1-0.2-0.2-0.2c-0.1,0-0.2,0.1-0.2,0.2S-241.3,396.3-241.2,396.3
				L-241.2,396.3z"/>
		</g>
		<g>
			<path class="st6" d="M-240.3,396.3c-0.1,0-0.2-0.1-0.2-0.2s0.1-0.2,0.2-0.2c0.1,0,0.2,0.1,0.2,0.2S-240.2,396.3-240.3,396.3
				L-240.3,396.3z"/>
		</g>
		<g>
			<path class="st6" d="M-241.2,397.2c0.1,0,0.2,0.1,0.2,0.2s-0.1,0.2-0.2,0.2c-0.1,0-0.2-0.1-0.2-0.2
				C-241.4,397.2-241.3,397.2-241.2,397.2L-241.2,397.2z"/>
		</g>
		<g>
			<path class="st6" d="M-240.3,397.2c-0.1,0-0.2,0.1-0.2,0.2s0.1,0.2,0.2,0.2c0.1,0,0.2-0.1,0.2-0.2
				C-240.1,397.2-240.2,397.2-240.3,397.2L-240.3,397.2z"/>
		</g>
		<g>
			<path class="st6" d="M-240.8,400c0.1,0,0.2-0.1,0.2-0.2s-0.1-0.2-0.2-0.2s-0.2,0.1-0.2,0.2S-240.9,400-240.8,400L-240.8,400z"/>
		</g>
		<g>
			<path class="st6" d="M-241.2,399.4c0.1,0,0.2-0.1,0.2-0.2c0-0.1-0.1-0.2-0.2-0.2c-0.1,0-0.2,0.1-0.2,0.2
				S-241.3,399.4-241.2,399.4L-241.2,399.4z"/>
		</g>
		<g>
			<path class="st6" d="M-240.3,399.4c-0.1,0-0.2-0.1-0.2-0.2c0-0.1,0.1-0.2,0.2-0.2c0.1,0,0.2,0.1,0.2,0.2
				S-240.2,399.4-240.3,399.4L-240.3,399.4z"/>
		</g>
		<g>
			<path class="st6" d="M-241.2,400.2c0.1,0,0.2,0.1,0.2,0.2c0,0.1-0.1,0.2-0.2,0.2c-0.1,0-0.2-0.1-0.2-0.2
				C-241.4,400.3-241.3,400.2-241.2,400.2L-241.2,400.2z"/>
		</g>
		<g>
			<path class="st6" d="M-240.3,400.2c-0.1,0-0.2,0.1-0.2,0.2c0,0.1,0.1,0.2,0.2,0.2c0.1,0,0.2-0.1,0.2-0.2
				C-240.1,400.3-240.2,400.2-240.3,400.2L-240.3,400.2z"/>
		</g>
		<g>
			<path class="st6" d="M-243.3,396.9c0.1,0,0.2-0.1,0.2-0.2s-0.1-0.2-0.2-0.2c-0.1,0-0.2,0.1-0.2,0.2
				C-243.4,396.9-243.4,396.9-243.3,396.9L-243.3,396.9z"/>
		</g>
		<g>
			<path class="st6" d="M-243.7,396.3c0.1,0,0.2-0.1,0.2-0.2s-0.1-0.2-0.2-0.2c-0.1,0-0.2,0.1-0.2,0.2S-243.8,396.3-243.7,396.3
				L-243.7,396.3z"/>
		</g>
		<g>
			<path class="st6" d="M-242.8,396.3c-0.1,0-0.2-0.1-0.2-0.2s0.1-0.2,0.2-0.2s0.2,0.1,0.2,0.2S-242.7,396.3-242.8,396.3
				L-242.8,396.3z"/>
		</g>
		<g>
			<path class="st6" d="M-243.7,397.2c0.1,0,0.2,0.1,0.2,0.2s-0.1,0.2-0.2,0.2c-0.1,0-0.2-0.1-0.2-0.2
				C-243.9,397.2-243.8,397.2-243.7,397.2L-243.7,397.2z"/>
		</g>
		<g>
			<path class="st6" d="M-242.8,397.2c-0.1,0-0.2,0.1-0.2,0.2s0.1,0.2,0.2,0.2s0.2-0.1,0.2-0.2
				C-242.6,397.2-242.7,397.2-242.8,397.2L-242.8,397.2z"/>
		</g>
		<g>
			<path class="st6" d="M-238.3,396.9c-0.1,0-0.2-0.1-0.2-0.2s0.1-0.2,0.2-0.2s0.2,0.1,0.2,0.2
				C-238.1,396.9-238.2,396.9-238.3,396.9L-238.3,396.9z"/>
		</g>
		<g>
			<path class="st6" d="M-237.8,396.3c-0.1,0-0.2-0.1-0.2-0.2s0.1-0.2,0.2-0.2c0.1,0,0.2,0.1,0.2,0.2S-237.7,396.3-237.8,396.3
				L-237.8,396.3z"/>
		</g>
		<g>
			<path class="st6" d="M-238.8,396.3c0.1,0,0.2-0.1,0.2-0.2s-0.1-0.2-0.2-0.2c-0.1,0-0.2,0.1-0.2,0.2S-238.9,396.3-238.8,396.3
				L-238.8,396.3z"/>
		</g>
		<g>
			<path class="st6" d="M-237.8,397.2c-0.1,0-0.2,0.1-0.2,0.2s0.1,0.2,0.2,0.2c0.1,0,0.2-0.1,0.2-0.2
				C-237.7,397.2-237.7,397.2-237.8,397.2L-237.8,397.2z"/>
		</g>
		<g>
			<path class="st6" d="M-238.8,397.2c0.1,0,0.2,0.1,0.2,0.2s-0.1,0.2-0.2,0.2c-0.1,0-0.2-0.1-0.2-0.2
				C-238.9,397.2-238.9,397.2-238.8,397.2L-238.8,397.2z"/>
		</g>
	</g>
</g>
</svg>
