<?xml version="1.0" encoding="utf-8"?>
<!-- Generator: Adobe Illustrator 19.0.0, SVG Export Plug-In . SVG Version: 6.00 Build 0)  -->
<svg version="1.1" id="Layer_1" xmlns="http://www.w3.org/2000/svg" xmlns:xlink="http://www.w3.org/1999/xlink" x="0px" y="0px"
	 viewBox="-269 374 72 46" style="enable-background:new -269 374 72 46;" xml:space="preserve">
<style type="text/css">
	.st0{clip-path:url(#SVGID_2_);}
	.st1{fill:#5291CE;}
	.st2{fill:#FFFFFF;stroke:#000000;stroke-width:0.25;}
	.st3{fill:#FFF046;}
</style>
<g>
	<defs>
		<path id="SVGID_1_" d="M-204,420H-262c-3.8,0-7-3.1-7-7V381c0-3.8,3.1-7,7-7h58.1c3.8,0,7,3.1,7,7V413
			C-197,416.9-200.1,420-204,420z"/>
	</defs>
	<clipPath id="SVGID_2_">
		<use xlink:href="#SVGID_1_"  style="overflow:visible;"/>
	</clipPath>
	<g class="st0">
		<g>
			<polygon class="st1" points="-195.2,420.9 -195.2,372.8 -270.8,372.8 -270.8,420.9 			"/>
		</g>
		<g>
			<path d="M-195.1,421h-75.8v-48.4h75.8V421z M-270.7,420.8h75.3v-47.9h-75.3V420.8z"/>
		</g>
		<g>
			<path class="st2" d="M-233,396.8"/>
		</g>
		<g>
			<path class="st3" d="M-237.7,411.3c7.8,0,14.2-6.5,14.2-14.4s-6.3-14.4-14.2-14.4c-7.8,0-14.2,6.5-14.2,14.4
				S-245.5,411.3-237.7,411.3L-237.7,411.3z"/>
		</g>
	</g>
</g>
</svg>
