<?xml version="1.0" encoding="utf-8"?>
<!-- Generator: Adobe Illustrator 19.0.0, SVG Export Plug-In . SVG Version: 6.00 Build 0)  -->
<svg version="1.1" id="Layer_1" xmlns="http://www.w3.org/2000/svg" xmlns:xlink="http://www.w3.org/1999/xlink" x="0px" y="0px"
	 viewBox="-269 374 72 46" style="enable-background:new -269 374 72 46;" xml:space="preserve">
<style type="text/css">
	.st0{clip-path:url(#SVGID_2_);}
	.st1{fill:#DC2F34;}
	.st2{fill:#0058A2;}
	.st3{fill:#FFFFFF;}
	.st4{fill:#E40520;}
	.st5{fill:#FFED00;}
	.st6{fill:#0077BE;}
	.st7{fill:#00885B;}
	.st8{fill:none;}
</style>
<g>
	<defs>
		<path id="SVGID_1_" d="M-204,420H-262c-3.8,0-7-3.1-7-7V381c0-3.8,3.1-7,7-7h58.1c3.8,0,7,3.1,7,7V413
			C-197,416.9-200.1,420-204,420z"/>
	</defs>
	<clipPath id="SVGID_2_">
		<use xlink:href="#SVGID_1_"  style="overflow:visible;"/>
	</clipPath>
	<g class="st0">
		<g>
			<polygon class="st1" points="-193.6,389.1 -272.4,389.1 -272.4,373.3 -193.6,373.3 			"/>
		</g>
		<g>
			<path d="M-193.4,389.2h-79.1v-16h79.1V389.2z M-272.3,388.9h78.6v-15.5h-78.6V388.9z"/>
		</g>
		<g>
			<polygon class="st2" points="-193.6,420.6 -272.4,420.6 -272.4,404.8 -193.6,404.8 			"/>
		</g>
		<g>
			<path d="M-193.4,420.7h-79.1v-16h79.1V420.7z M-272.3,420.5h78.6V405h-78.6V420.5z"/>
		</g>
		<g>
			<polygon class="st3" points="-193.6,404.8 -272.4,404.8 -272.4,389.1 -193.6,389.1 			"/>
		</g>
		<g>
			<path d="M-193.4,405h-79.1v-16h79.1V405z M-272.3,404.7h78.6v-15.5h-78.6V404.7z"/>
		</g>
		<g>
			<path class="st3" d="M-233,402.1c2.9,0,5.2-2.3,5.2-5.2s-2.3-5.2-5.2-5.2c-2.9,0-5.2,2.3-5.2,5.2S-235.9,402.1-233,402.1
				L-233,402.1z"/>
		</g>
		<g>
			<path d="M-233,402.3c-2.9,0-5.3-2.4-5.3-5.3s2.4-5.3,5.3-5.3s5.3,2.4,5.3,5.3S-230.1,402.3-233,402.3z M-233,391.9
				c-2.8,0-5.1,2.3-5.1,5.1s2.3,5.1,5.1,5.1s5.1-2.3,5.1-5.1S-230.2,391.9-233,391.9z"/>
		</g>
		<g>
			<path class="st4" d="M-233,401.6c2.6,0,4.7-2.1,4.7-4.7c0-2.6-2.1-4.7-4.7-4.7s-4.7,2.1-4.7,4.7
				C-237.7,399.5-235.6,401.6-233,401.6L-233,401.6z"/>
		</g>
		<g>
			<path class="st5" d="M-236,399.7c0,0-0.1-0.1-0.1-0.2c0,0-0.1,0-0.2,0c-0.1,0-0.1,0.1,0,0.2c0,0,0.1,0.2,0.1,0.2L-236,399.7
				l0.1-0.1l0.3-0.2l0.1,0.1c0,0-0.7,0.6-0.7,0.6c0,0-0.2-0.3-0.3-0.3c-0.1-0.1,0-0.2,0.1-0.3c0.1-0.1,0.2-0.1,0.3,0
				c0,0,0-0.1,0.1-0.2c0,0,0.2-0.2,0.2-0.2l0.1,0.1c0,0-0.1,0.1-0.2,0.1c-0.1,0.1-0.1,0.1,0,0.2c0.1,0.1,0.1,0.1,0.1,0.1L-236,399.7
				L-236,399.7z"/>
		</g>
		<g>
			<path class="st5" d="M-229.6,394.8c0,0,0.1,0.1,0.1,0.2c0,0,0.1,0.1,0.2,0c0.1,0,0.1-0.1,0-0.2c0-0.1-0.1-0.2-0.1-0.2
				L-229.6,394.8l-0.1,0.1l-0.3,0.2l-0.1-0.1c0,0,0.8-0.5,0.8-0.5c0,0,0.2,0.3,0.2,0.4c0.1,0.1,0,0.2-0.1,0.3c-0.1,0.1-0.2,0-0.3,0
				c0,0,0,0.1-0.1,0.2c0,0-0.2,0.1-0.2,0.1l-0.1-0.1c0,0,0.1-0.1,0.2-0.1c0.1-0.1,0.1-0.1,0.1-0.2c0-0.1-0.1-0.1-0.1-0.1
				L-229.6,394.8L-229.6,394.8z"/>
		</g>
		<g>
			<polygon class="st5" points="-237,398.7 -236.8,399 -236.6,399 -236.8,398.6 -236.6,398.6 -236.4,398.9 -236.2,398.8 
				-236.4,398.4 -236.3,398.3 -236,398.9 -236.8,399.3 -237.1,398.7 			"/>
		</g>
		<g>
			<path class="st5" d="M-236.8,398.1c0,0-0.3,0.1-0.3,0.1c0,0,0-0.1,0-0.2c0-0.1,0-0.1,0.1-0.2c0.1,0,0.2,0,0.2,0.1
				C-236.9,398.1-236.8,398.1-236.8,398.1l0.1,0c0,0,0-0.1,0-0.2c0-0.1-0.2-0.2-0.3-0.2c-0.2,0-0.3,0.2-0.2,0.3
				c0,0.2,0.1,0.3,0.1,0.3l0.9-0.2l0-0.1l-0.3,0.1L-236.8,398.1L-236.8,398.1z"/>
		</g>
		<g>
			<path class="st5" d="M-231,393.5c0,0,0.2-0.2,0.2-0.2c0,0,0.1,0.1,0.1,0.1c0.1,0,0.1,0.1,0,0.2c0,0.1-0.1,0.1-0.2,0.1
				C-230.9,393.6-231,393.5-231,393.5l-0.1,0.1c0,0,0.1,0.1,0.2,0.1c0.1,0.1,0.3,0,0.4-0.1c0.1-0.1,0.1-0.3,0-0.4
				c-0.2-0.1-0.3-0.2-0.3-0.2l-0.5,0.8l0.1,0.1l0.2-0.3L-231,393.5L-231,393.5z"/>
		</g>
		<g>
			<path class="st5" d="M-236.7,397.1c0-0.1-0.1-0.1-0.2-0.1c-0.1,0-0.6,0-0.6,0l0-0.2c0,0,0.5,0,0.6,0c0.1,0,0.3,0.1,0.3,0.3
				c0,0.2-0.2,0.3-0.3,0.3c-0.1,0-0.6,0-0.6,0l0-0.2c0,0,0.5,0,0.6,0C-236.8,397.3-236.7,397.2-236.7,397.1L-236.7,397.1z"/>
		</g>
		<g>
			<path class="st5" d="M-237.2,396.5c0.1,0,0.2,0.1,0.4,0.1l0-0.2c-0.1,0-0.1,0-0.1,0c0,0,0-0.2,0-0.2c0-0.1,0.1-0.1,0.1-0.1
				c0.1,0,0.1,0.1,0.1,0.1c0,0.1,0,0.2,0,0.2s-0.1,0-0.1,0l0,0.2c0.2,0,0.3,0.1,0.3,0.1c0,0,0-0.2,0.1-0.4c0-0.2-0.1-0.3-0.2-0.3
				c-0.1,0-0.2,0-0.2,0c0-0.1-0.1-0.1-0.2-0.1c-0.2,0-0.3,0.1-0.3,0.2c0,0.2-0.1,0.3-0.1,0.3S-237.3,396.5-237.2,396.5l0-0.2
				c0,0-0.1,0-0.1,0c0,0,0-0.1,0-0.2c0-0.1,0.1-0.1,0.1-0.1c0,0,0.1,0,0.1,0.1c0,0.1,0,0.2,0,0.2s0,0-0.1,0L-237.2,396.5
				L-237.2,396.5z"/>
		</g>
		<g>
			<polygon class="st5" points="-237.1,395.3 -236.4,395.6 -236.3,395.3 -236.1,395.3 -236.4,395.8 -237.2,395.4 			"/>
		</g>
		<g>
			<polygon class="st5" points="-236,395.2 -236.8,394.7 -236.7,394.5 -236,395 			"/>
		</g>
		<g>
			<path class="st5" d="M-235.9,394.1c0,0-0.1-0.1-0.2,0c-0.1,0.1,0,0.2,0.1,0.3c0.1,0.1,0.3,0.1,0.3,0.1c0.1-0.1,0-0.2,0-0.2
				l0.1-0.1c0.1,0.1,0.1,0.3,0,0.5c-0.1,0.1-0.4,0.1-0.6-0.1c-0.2-0.2-0.2-0.4-0.1-0.6c0.1-0.1,0.3-0.1,0.4,0L-235.9,394.1
				L-235.9,394.1z"/>
		</g>
		<g>
			<path class="st5" d="M-235.2,393.8C-235.2,393.8-235.3,393.8-235.2,393.8l-0.2-0.3L-235.2,393.8
				C-235.1,393.7-235.1,393.8-235.2,393.8l0.1,0.1c0.1,0,0.1-0.1,0.1-0.1l0.1,0.1l0.1-0.1l-0.7-0.6l-0.2,0.1l0.3,0.9l0.1-0.1
				l-0.1-0.2c0,0,0.1,0,0.1-0.1L-235.2,393.8L-235.2,393.8z"/>
		</g>
		<g>
			<path class="st5" d="M-230.3,394.3C-230.3,394.2-230.3,394.2-230.3,394.3l0.3-0.2L-230.3,394.3
				C-230.2,394.3-230.2,394.3-230.3,394.3l-0.1,0.1c0.1,0.1,0.1,0.1,0.1,0.1l-0.1,0.2l0.1,0.1l0.5-0.8l-0.1-0.1l-0.8,0.4l0.1,0.1
				l0.2-0.1c0,0,0,0,0.1,0.1L-230.3,394.3L-230.3,394.3z"/>
		</g>
		<g>
			<path class="st5" d="M-229.3,395.8C-229.3,395.8-229.3,395.7-229.3,395.8l0.4-0.1l-0.3,0.2C-229.3,395.9-229.3,395.9-229.3,395.8
				l-0.1,0c0,0.1,0,0.2,0,0.2l-0.2,0.1l0,0.1l0.8-0.5l-0.1-0.2l-0.9,0l0,0.1l0.2,0c0,0,0,0.1,0,0.1L-229.3,395.8L-229.3,395.8z"/>
		</g>
		<g>
			<path class="st5" d="M-229.4,398.5C-229.4,398.5-229.4,398.5-229.4,398.5l0.3,0.2l-0.4-0.1C-229.5,398.6-229.5,398.6-229.4,398.5
				l-0.1-0.1c0,0.1-0.1,0.1-0.1,0.1l-0.2,0l-0.1,0.1l0.9,0.1l0.1-0.2l-0.7-0.6l-0.1,0.1l0.1,0.1c0,0,0,0.1-0.1,0.1L-229.4,398.5
				L-229.4,398.5z"/>
		</g>
		<g>
			<path class="st5" d="M-233.9,393.4c0,0,0.2-0.1,0.1-0.3c-0.1-0.3-0.2-0.3-0.2-0.2c0,0-0.1,0-0.1,0c0,0,0.1,0.6,0.1,0.6
				C-234,393.4-233.9,393.4-233.9,393.4l0.1,0.1c-0.2,0-0.3,0.1-0.3,0.1s-0.2-0.9-0.2-0.9c0.1,0,0.2,0,0.3-0.1c0.1,0,0.3,0,0.4,0.4
				c0,0.2,0,0.5-0.2,0.5L-233.9,393.4L-233.9,393.4z"/>
		</g>
		<g>
			<polygon class="st5" points="-232.6,392.7 -233.1,392.7 -233.1,392.9 -232.7,392.9 -232.7,393.1 -233.1,393.1 -233.1,393.3 
				-232.7,393.3 -232.7,393.5 -233.2,393.4 -233.2,392.5 -232.6,392.6 			"/>
		</g>
		<g>
			<polygon class="st5" points="-232.1,392.6 -232.3,393.4 -231.9,393.4 -232,393.6 -232.5,393.5 -232.3,392.6 			"/>
		</g>
		<g>
			<path class="st5" d="M-228.8,396.9c0.1,0,0.1-0.1,0.1-0.2c0-0.1-0.1-0.2-0.3-0.2c-0.2,0-0.3,0.1-0.3,0.2c0,0.1,0.1,0.2,0.2,0.2
				l0-0.2l0.1,0l0,0.3l-0.5,0l0-0.1c0,0,0.1,0,0.1,0c-0.1,0-0.1-0.1-0.1-0.2c0-0.2,0.2-0.4,0.4-0.4c0.3,0,0.5,0.1,0.5,0.3
				c0,0.2-0.1,0.3-0.3,0.3L-228.8,396.9L-228.8,396.9z"/>
		</g>
		<g>
			<path class="st5" d="M-229.4,397.6c0,0.1,0.1,0.2,0.1,0.2c0.1,0,0.6,0.1,0.6,0.1l0,0.2c0,0-0.5-0.1-0.6-0.1
				c-0.1,0-0.3-0.1-0.2-0.4c0-0.2,0.2-0.3,0.4-0.2c0.1,0,0.6,0.1,0.6,0.1l0,0.2c0,0-0.5-0.1-0.6-0.1
				C-229.3,397.5-229.3,397.5-229.4,397.6L-229.4,397.6z"/>
		</g>
		<g>
			<polygon class="st5" points="-230.1,399.1 -229.9,399.3 -229.3,399.4 -229.4,399.6 -229.8,399.5 -229.6,399.8 -229.7,400 
				-230,399.4 -230.2,399.2 			"/>
		</g>
		<g>
			<path class="st3" d="M-233,400.3c1.8,0,3.3-1.5,3.3-3.3s-1.5-3.3-3.3-3.3c-1.8,0-3.3,1.5-3.3,3.3S-234.8,400.3-233,400.3
				L-233,400.3z"/>
		</g>
		<g>
			<path class="st6" d="M-233,398.5c0.9,0,1.6-0.7,1.6-1.6c0-0.9-0.7-1.6-1.6-1.6c-0.9,0-1.6,0.7-1.6,1.6
				C-234.6,397.8-233.9,398.5-233,398.5L-233,398.5z"/>
		</g>
		<g>
			<path class="st7" d="M-231.6,394.9c0.1,0.1,0.1,0.2,0.2,0.4c0,0,0.1,0.1,0.1,0.1c-0.1-0.1-0.2-0.3-0.2-0.5
				c-0.1-0.2-0.2-0.2-0.3-0.3c-0.1-0.2-0.1-0.1-0.1,0c0,0.1,0,0.2,0,0.2C-231.7,394.8-231.6,394.8-231.6,394.9L-231.6,394.9z"/>
		</g>
		<g>
			<path d="M-231.2,395.3C-231.2,395.3-231.2,395.3-231.2,395.3c0,0-0.1,0-0.2-0.1c0,0,0,0,0,0c0,0-0.1-0.1-0.1-0.1
				c0-0.1-0.1-0.1-0.1-0.2l0,0c-0.1-0.1-0.1-0.1-0.2-0.1c0,0,0,0,0,0c0-0.1,0-0.2,0-0.3c0,0,0,0,0,0c0,0,0-0.1,0.1-0.1c0,0,0,0,0,0
				c0,0,0.1,0,0.1,0.1c0,0.1,0.1,0.1,0.1,0.1c0.1,0,0.1,0.1,0.2,0.2C-231.3,395-231.3,395.2-231.2,395.3
				C-231.2,395.3-231.2,395.3-231.2,395.3C-231.2,395.3-231.2,395.3-231.2,395.3z M-231.3,395.2
				C-231.3,395.2-231.3,395.2-231.3,395.2c-0.1-0.1-0.1-0.2-0.1-0.4c0-0.1-0.1-0.1-0.1-0.2c-0.1,0-0.1-0.1-0.1-0.1c0,0,0,0,0-0.1
				c0,0,0,0,0,0c0,0,0,0,0,0c0,0,0,0.1,0,0.2c0.1,0,0.2,0.1,0.2,0.1l0,0c0.1,0.1,0.1,0.2,0.2,0.2
				C-231.4,395.1-231.3,395.2-231.3,395.2z"/>
		</g>
		<g>
			<path class="st7" d="M-233,399.3c-0.1,0-0.2,0-0.3,0c0.2,0.2,0.5,0.3,0.7,0.2C-232.8,399.4-232.9,399.3-233,399.3L-233,399.3z"/>
		</g>
		<g>
			<path d="M-232.8,399.6c-0.2,0-0.4-0.1-0.6-0.3c0,0,0,0,0,0c0,0,0,0,0,0c0.1,0,0.2,0,0.3,0c0,0,0,0,0,0c0.1,0,0.3,0.1,0.4,0.2
				c0,0,0,0,0,0c0,0,0,0,0,0C-232.6,399.6-232.7,399.6-232.8,399.6z M-233.2,399.3c0.2,0.1,0.4,0.3,0.6,0.2
				c-0.2-0.1-0.3-0.2-0.4-0.2C-233.1,399.3-233.2,399.3-233.2,399.3z"/>
		</g>
		<g>
			<path class="st7" d="M-233,399.3c0.3,0.1,0.6,0.3,0.7,0.5c0.1,0.1,0.4,0.1,0.3,0C-232.2,399.4-232.7,399.1-233,399.3L-233,399.3z
				"/>
		</g>
		<g>
			<path d="M-232.2,399.9L-232.2,399.9c-0.1,0-0.2,0-0.2-0.1c-0.1-0.2-0.4-0.4-0.7-0.5c0,0,0,0,0,0c0,0,0,0,0,0
				c0.3-0.2,0.8,0.1,1,0.5c0,0,0,0.1,0,0.1C-232,399.8-232.1,399.9-232.2,399.9z M-232.9,399.3c0.3,0.1,0.5,0.3,0.6,0.5
				c0,0,0.1,0.1,0.2,0.1l0,0c0.1,0,0.1,0,0.1,0c0,0,0,0,0,0C-232.2,399.5-232.7,399.2-232.9,399.3z"/>
		</g>
		<g>
			<path class="st7" d="M-232,399.7c0.1,0.1-0.3,0.2-0.3,0C-232.4,399.7-232.1,399.6-232,399.7L-232,399.7z"/>
		</g>
		<g>
			<path d="M-232.2,399.9L-232.2,399.9c-0.1,0-0.2,0-0.2-0.1c0,0,0-0.1,0-0.1c0.1,0,0.2-0.1,0.3,0l0,0c0,0,0,0.1,0,0.1
				C-232,399.8-232.1,399.9-232.2,399.9z"/>
		</g>
		<g>
			<path class="st7" d="M-233.3,399.3c-0.4-0.1-1-0.3-1.6-0.3c-0.1,0,0,0.1,0,0.1c0,0,0,0,0,0.1c0,0.1,0.1,0.1,0.2,0.1
				c0.3,0.1,1,0.1,1.6,0.1c0,0,0,0,0,0C-233.2,399.4-233.2,399.3-233.3,399.3L-233.3,399.3z"/>
		</g>
		<g>
			<path d="M-233.2,399.5c-0.6,0-1.3-0.1-1.5-0.1c-0.1,0-0.2,0-0.2-0.1c0,0,0-0.1,0-0.1c0,0,0-0.1,0-0.1c0,0,0,0,0.1,0
				c0,0,0.1,0,0.1,0c0.5,0,1.1,0.1,1.5,0.3c0,0,0,0,0,0c0.1,0.1,0.1,0.1,0.2,0.1c0,0,0,0,0,0s0,0,0,0
				C-233.1,399.5-233.2,399.5-233.2,399.5z M-234.8,399C-234.8,399-234.9,399-234.8,399C-234.9,399-234.9,399-234.8,399
				C-234.9,399.1-234.9,399.1-234.8,399c0,0.1,0,0.1,0,0.2c0,0,0,0,0.2,0.1c0.1,0,0.8,0.1,1.4,0.1c0,0,0,0,0.1,0
				c0,0-0.1-0.1-0.1-0.1C-233.8,399.2-234.3,399-234.8,399z"/>
		</g>
		<g>
			<path class="st7" d="M-233.4,399.4c-0.2,0.1-0.3,0.2-0.4,0.2c-0.2,0.1,0.4,0.2,0.4,0.1c0,0,0.1-0.3,0.3-0.4
				C-233.3,399.4-233.4,399.4-233.4,399.4L-233.4,399.4z"/>
		</g>
		<g>
			<path d="M-233.6,399.8c-0.1,0-0.1,0-0.2,0c-0.1,0-0.2,0-0.2-0.1c0,0,0-0.1,0-0.1c0.1-0.1,0.3-0.2,0.4-0.2c0,0,0,0,0,0
				c0.1,0,0.2,0,0.3,0c0,0,0,0,0,0c0,0,0,0,0,0c0,0,0,0,0,0c-0.1,0-0.2,0.2-0.3,0.3c0,0,0,0,0,0
				C-233.5,399.8-233.5,399.8-233.6,399.8z M-233.4,399.5c-0.2,0.1-0.3,0.2-0.4,0.2c0,0,0,0,0,0c0,0,0,0,0.1,0c0.1,0,0.3,0,0.3,0
				c0,0,0,0,0,0c0-0.1,0.1-0.2,0.2-0.3C-233.3,399.5-233.4,399.5-233.4,399.5z"/>
		</g>
		<g>
			<path class="st7" d="M-233.5,399.8c-0.1,0.1-0.6,0-0.4-0.1C-233.8,399.6-233.4,399.7-233.5,399.8L-233.5,399.8z"/>
		</g>
		<g>
			<path d="M-233.6,399.8c-0.1,0-0.1,0-0.2,0c-0.1,0-0.2,0-0.2-0.1c0,0,0-0.1,0-0.1c0.1,0,0.3,0,0.4,0.1c0,0,0,0.1,0,0.1
				c0,0,0,0,0,0C-233.5,399.8-233.5,399.8-233.6,399.8z M-233.8,399.7C-233.8,399.7-233.8,399.7-233.8,399.7
				C-233.9,399.7-233.9,399.7-233.8,399.7C-233.9,399.7-233.9,399.7-233.8,399.7c0.1,0.1,0.3,0.1,0.3,0.1c0,0,0,0,0,0
				C-233.6,399.7-233.7,399.7-233.8,399.7z"/>
		</g>
		<g>
			<path class="st7" d="M-233.3,399.3c-0.4-0.2-0.9-0.5-1.2-1c0-0.1-0.1-0.2-0.1,0.1c0,0.2,0.1,0.5,0.3,0.8
				C-233.9,399.1-233.6,399.2-233.3,399.3L-233.3,399.3z"/>
		</g>
		<g>
			<path d="M-233.3,399.3C-233.3,399.3-233.3,399.3-233.3,399.3c-0.3-0.1-0.6-0.2-1-0.2c0,0,0,0,0,0c-0.2-0.2-0.4-0.6-0.4-0.8
				c0-0.1,0-0.2,0.1-0.2c0,0,0,0,0,0c0,0,0.1,0,0.1,0.1C-234.2,398.7-233.7,399.1-233.3,399.3C-233.3,399.3-233.3,399.3-233.3,399.3
				C-233.3,399.3-233.3,399.3-233.3,399.3z M-234.3,399c0.3,0,0.5,0.1,0.7,0.2c-0.3-0.2-0.7-0.5-1-0.9c0,0,0-0.1,0-0.1
				c0,0,0,0,0,0.1C-234.6,398.5-234.5,398.8-234.3,399z"/>
		</g>
		<g>
			<path class="st7" d="M-234.5,398.2c0.1,0.1,0.1,0.2,0.2,0.3c0.1,0.1,0.3,0.1,0.4,0.1c0.1,0,0.1,0,0-0.1c-0.1,0-0.3-0.2-0.5-0.4
				C-234.5,398.1-234.6,398.1-234.5,398.2C-234.6,398.1-234.5,398.2-234.5,398.2L-234.5,398.2z"/>
		</g>
		<g>
			<path d="M-233.8,398.7C-233.9,398.7-233.9,398.7-233.8,398.7c-0.2,0-0.4-0.1-0.5-0.1c0,0,0,0,0,0c-0.1-0.1-0.2-0.2-0.2-0.3l0,0
				c0,0,0-0.1,0-0.1c0,0,0,0,0,0c0,0,0,0,0,0c0,0,0,0,0.1,0c0,0,0,0,0,0c0,0,0.1,0,0.2,0.1c0.2,0.1,0.4,0.3,0.5,0.4
				C-233.8,398.6-233.8,398.6-233.8,398.7C-233.8,398.7-233.8,398.7-233.8,398.7z M-234.3,398.5c0.1,0,0.2,0.1,0.4,0.1c0,0,0,0,0,0
				c-0.1,0-0.3-0.2-0.5-0.4c0,0-0.1-0.1-0.1-0.1c0,0,0,0,0,0l0,0C-234.4,398.3-234.3,398.4-234.3,398.5z"/>
		</g>
		<g>
			<path class="st7" d="M-234.4,399.3c-0.1,0-0.2,0-0.3,0c-0.1,0-0.2,0-0.2-0.1c0,0.1,0.1,0.1,0.2,0.1c0.1,0.1,0.3,0.1,0.4,0.2
				c0.1,0.1,0.2,0,0.1-0.1C-234.3,399.4-234.3,399.4-234.4,399.3L-234.4,399.3z"/>
		</g>
		<g>
			<path d="M-234.3,399.6c0,0-0.1,0-0.1,0c-0.1,0-0.2-0.1-0.4-0.2c-0.1,0-0.2-0.1-0.2-0.2c0,0,0,0,0,0c0,0,0,0,0,0c0,0,0.1,0,0.2,0
				c0.1,0,0.2,0,0.3,0c0,0,0,0,0,0c0,0,0.1,0.1,0.1,0.2C-234.2,399.6-234.2,399.6-234.3,399.6C-234.2,399.6-234.2,399.6-234.3,399.6
				z M-234.8,399.3C-234.7,399.3-234.7,399.3-234.8,399.3c0.2,0.1,0.4,0.2,0.4,0.2c0,0,0.1,0,0.1,0c0,0,0,0,0,0c0,0,0,0,0,0
				c0-0.1-0.1-0.1-0.1-0.1C-234.5,399.4-234.6,399.3-234.8,399.3C-234.7,399.3-234.7,399.3-234.8,399.3z"/>
		</g>
		<g>
			<polygon class="st7" points="-234.9,399.2 -234.9,399.2 -234.9,399.2 			"/>
		</g>
		<g>
			<polygon class="st8" points="-234.9,399.2 -234.9,399.2 -234.9,399.2 			"/>
		</g>
		<g>
			<path class="st7" d="M-234.2,399.1C-234.2,399.1-234.2,399.1-234.2,399.1C-234.2,399.1-234.2,399.1-234.2,399.1L-234.2,399.1z"/>
		</g>
		<g>
			<path class="st8" d="M-234.2,399.1C-234.2,399.1-234.2,399.1-234.2,399.1C-234.2,399.1-234.2,399.1-234.2,399.1L-234.2,399.1z"/>
		</g>
		<g>
			<path class="st7" d="M-234.3,399.1c-0.1-0.1-0.1-0.1-0.2-0.2c-0.3-0.3-0.8-0.6-1-0.6c-0.1,0-0.1,0-0.1,0.1c0,0.1-0.1,0.2,0.1,0.3
				c0.2,0.1,0.5,0.2,0.7,0.4C-234.6,399-234.4,399-234.3,399.1C-234.3,399.1-234.3,399.1-234.3,399.1L-234.3,399.1z"/>
		</g>
		<g>
			<path d="M-234.3,399.1C-234.3,399.1-234.3,399.1-234.3,399.1L-234.3,399.1L-234.3,399.1c-0.2,0-0.3,0-0.5,0c0,0,0,0,0,0
				c-0.2-0.2-0.6-0.3-0.7-0.4c-0.2-0.1-0.2-0.2-0.2-0.3c0,0,0,0,0-0.1l0,0c0-0.1,0-0.1,0-0.1c0,0,0.1,0,0.1,0c0.2,0.1,0.7,0.4,1,0.6
				c0,0,0,0,0,0C-234.4,398.9-234.3,399-234.3,399.1L-234.3,399.1L-234.3,399.1L-234.3,399.1C-234.2,399-234.2,399-234.3,399.1
				C-234.2,399.1-234.2,399.1-234.3,399.1z M-234.7,399c0.1,0,0.2,0,0.4,0c0,0-0.1-0.1-0.1-0.2c-0.3-0.3-0.8-0.6-1-0.6
				c0,0-0.1,0-0.1,0c0,0,0,0,0,0.1l0,0c0,0,0,0.1,0,0.1c0,0.1,0,0.1,0.1,0.2C-235.3,398.6-235,398.8-234.7,399z"/>
		</g>
		<g>
			<path class="st7" d="M-235.4,398.6c-0.2-0.1-0.2-0.2-0.2-0.2l0,0C-235.6,398.5-235.6,398.5-235.4,398.6c0,0.1,0.1,0.3,0.1,0.4
				c0,0.1,0.1,0.1,0.1,0c0-0.1,0-0.2,0-0.3C-235.3,398.7-235.3,398.6-235.4,398.6L-235.4,398.6z"/>
		</g>
		<g>
			<path d="M-235.2,399.1C-235.3,399.1-235.3,399.1-235.2,399.1c-0.1-0.2-0.2-0.4-0.3-0.5c-0.1-0.1-0.1-0.2-0.1-0.3l0,0c0,0,0,0,0,0
				c0,0,0,0,0,0c0,0,0,0,0,0c0,0.1,0,0.1,0.1,0.2c0.1,0,0.1,0.1,0.2,0.1c0,0,0,0,0,0c0,0.1,0,0.2,0,0.3
				C-235.2,399.1-235.2,399.1-235.2,399.1C-235.2,399.1-235.2,399.1-235.2,399.1z M-235.5,398.6c0.1,0.1,0.2,0.3,0.2,0.4
				c0,0,0,0,0,0c0,0,0,0,0,0c0-0.1,0-0.2,0-0.3C-235.3,398.7-235.4,398.7-235.5,398.6C-235.4,398.6-235.4,398.6-235.5,398.6z"/>
		</g>
		<g>
			<path class="st7" d="M-234.4,398.9L-234.4,398.9L-234.4,398.9z"/>
		</g>
		<g>
			<path class="st8" d="M-234.4,398.9L-234.4,398.9L-234.4,398.9z"/>
		</g>
		<g>
			<path class="st7" d="M-234.4,398.9L-234.4,398.9L-234.4,398.9z"/>
		</g>
		<g>
			<path class="st8" d="M-234.4,398.9L-234.4,398.9L-234.4,398.9z"/>
		</g>
		<g>
			<path class="st7" d="M-234.3,399L-234.3,399L-234.3,399z"/>
		</g>
		<g>
			<path class="st8" d="M-234.3,399L-234.3,399L-234.3,399z"/>
		</g>
		<g>
			<path class="st7" d="M-234.4,398.8c-0.1-0.2-0.2-0.4-0.2-0.5c0,0,0-0.1,0-0.1c-0.1-0.2-0.3-0.6-0.2-1.1c0-0.1,0-0.2-0.2,0.1
				c-0.1,0.2-0.1,0.7,0,1.2C-234.8,398.5-234.6,398.7-234.4,398.8L-234.4,398.8L-234.4,398.8z"/>
		</g>
		<g>
			<path d="M-234.4,398.9C-234.4,398.9-234.4,398.9-234.4,398.9c-0.2-0.2-0.4-0.3-0.6-0.4c0,0,0,0,0,0c-0.1-0.5-0.1-1,0-1.2
				c0.1-0.2,0.1-0.2,0.2-0.2c0,0,0.1,0.1,0,0.1c0,0.5,0.1,0.9,0.2,1.1c0,0,0,0,0,0c0,0,0,0,0,0.1
				C-234.6,398.4-234.5,398.6-234.4,398.9C-234.4,398.8-234.4,398.8-234.4,398.9C-234.4,398.9-234.4,398.9-234.4,398.9z M-235,398.4
				c0.1,0.1,0.3,0.2,0.5,0.3c-0.1-0.2-0.1-0.3-0.1-0.4c0,0,0-0.1,0-0.1c-0.1-0.2-0.3-0.6-0.2-1.1c0,0,0,0,0,0c0,0,0,0.1-0.1,0.2
				C-235.1,397.5-235.1,397.9-235,398.4z"/>
		</g>
		<g>
			<path class="st7" d="M-234.9,398.5L-234.9,398.5L-234.9,398.5z"/>
		</g>
		<g>
			<path class="st8" d="M-234.9,398.5L-234.9,398.5L-234.9,398.5z"/>
		</g>
		<g>
			<path class="st7" d="M-235,398.4c0-0.1,0-0.2-0.1-0.3c-0.2-0.4-0.8-0.8-0.9-1.1c0-0.1-0.1-0.2-0.1,0c0,0.5,0.4,0.8,0.6,1.1
				c0,0,0,0,0,0C-235.3,398.2-235.2,398.3-235,398.4C-235,398.4-235,398.4-235,398.4L-235,398.4z"/>
		</g>
		<g>
			<path d="M-235,398.4C-235,398.4-235,398.4-235,398.4c-0.2-0.1-0.3-0.2-0.4-0.2l0,0c0,0,0,0,0,0c0-0.1-0.1-0.1-0.2-0.2
				c-0.2-0.2-0.4-0.5-0.4-0.9c0-0.1,0-0.2,0-0.2c0,0,0,0,0,0c0,0,0.1,0,0.1,0.1c0,0.1,0.2,0.3,0.3,0.4c0.2,0.2,0.4,0.4,0.5,0.6
				c0,0,0,0,0,0C-235,398.2-235,398.3-235,398.4C-235,398.4-235,398.4-235,398.4C-235,398.4-235,398.4-235,398.4z M-235.4,398.2
				c0.1,0,0.2,0.1,0.4,0.2c0-0.1,0-0.2,0-0.2c-0.1-0.2-0.3-0.4-0.5-0.6c-0.2-0.2-0.3-0.3-0.4-0.4c0,0,0,0,0-0.1c0,0,0,0,0,0.1
				c0,0.4,0.2,0.7,0.4,0.9C-235.5,398-235.5,398.1-235.4,398.2z"/>
		</g>
		<g>
			<path class="st7" d="M-235.4,397.7c0.1-0.8-0.2-1.7-0.2-1.9c-0.1-0.2-0.1-0.1-0.1,0c-0.1,0.5-0.2,0.9,0.1,1.6
				C-235.5,397.5-235.5,397.6-235.4,397.7L-235.4,397.7z"/>
		</g>
		<g>
			<path d="M-235.4,397.7C-235.4,397.7-235.4,397.7-235.4,397.7c-0.1-0.1-0.1-0.1-0.2-0.2l0,0c0,0,0,0,0,0c-0.3-0.7-0.2-1.2-0.1-1.6
				l0,0c0-0.1,0-0.2,0.1-0.2c0,0,0,0,0,0c0,0,0.1,0,0.1,0.1C-235.5,396.1-235.3,396.9-235.4,397.7
				C-235.4,397.7-235.4,397.7-235.4,397.7C-235.4,397.7-235.4,397.7-235.4,397.7z M-235.6,397.4L-235.6,397.4
				c0.1,0.1,0.1,0.1,0.2,0.2c0.1-0.7-0.1-1.5-0.2-1.8c0,0,0-0.1,0-0.1c0,0,0,0.1,0,0.1l0,0C-235.8,396.3-235.9,396.8-235.6,397.4z"
				/>
		</g>
		<g>
			<path class="st7" d="M-235.1,398.2L-235.1,398.2L-235.1,398.2z"/>
		</g>
		<g>
			<path class="st8" d="M-235.1,398.2L-235.1,398.2L-235.1,398.2z"/>
		</g>
		<g>
			<path class="st7" d="M-235,398.2C-235,398.2-235,398.3-235,398.2C-235,398.3-235,398.2-235,398.2L-235,398.2z"/>
		</g>
		<g>
			<path class="st8" d="M-235,398.2C-235,398.2-235,398.3-235,398.2C-235,398.3-235,398.2-235,398.2L-235,398.2z"/>
		</g>
		<g>
			<path class="st7" d="M-235.4,397.7c0-0.2,0-0.4,0-0.6c0.1-0.5,0.5-0.7,0.6-0.8c0.1-0.2,0.1,0,0.1,0c-0.1,0.5-0.4,0.9-0.4,1.3
				c0,0.2,0,0.4,0,0.6C-235.2,397.9-235.3,397.8-235.4,397.7L-235.4,397.7z"/>
		</g>
		<g>
			<path d="M-235.1,398.1C-235.1,398.1-235.1,398.1-235.1,398.1c-0.1-0.1-0.2-0.3-0.4-0.5c0,0,0,0,0,0c0-0.2,0-0.4,0-0.6
				c0,0,0,0,0,0c0.1-0.3,0.3-0.5,0.4-0.6c0.1-0.1,0.1-0.1,0.2-0.2c0-0.1,0.1-0.1,0.1-0.1c0,0,0,0.1,0,0.2c0,0.2-0.1,0.4-0.2,0.5
				c-0.1,0.3-0.2,0.5-0.2,0.7C-235.1,397.7-235.1,397.9-235.1,398.1C-235,398.1-235,398.1-235.1,398.1
				C-235.1,398.1-235.1,398.1-235.1,398.1z M-235.4,397.6c0.1,0.1,0.2,0.2,0.3,0.3c0-0.1,0-0.3,0-0.4c0-0.2,0.1-0.5,0.2-0.7
				c0.1-0.2,0.1-0.3,0.2-0.5c0,0,0,0,0,0c0,0,0,0,0,0c0,0.1-0.1,0.1-0.2,0.2c-0.2,0.1-0.3,0.3-0.4,0.6
				C-235.3,397.3-235.4,397.5-235.4,397.6z"/>
		</g>
		<g>
			<path class="st7" d="M-235.2,395c-0.2,0.2-0.3,0.6-0.4,1c0,0.1,0.1,0.3,0.1,0.5C-235.2,396.3-235.1,395.6-235.2,395
				C-235.1,394.9-235.1,394.9-235.2,395L-235.2,395z"/>
		</g>
		<g>
			<path d="M-235.5,396.6C-235.5,396.6-235.5,396.6-235.5,396.6C-235.5,396.6-235.5,396.6-235.5,396.6c-0.1-0.2-0.1-0.4-0.1-0.5
				c0,0,0,0,0,0c0.1-0.5,0.2-0.8,0.4-1c0,0,0.1-0.1,0.1-0.1c0,0,0,0.1,0,0.1C-235.1,395.6-235.2,396.3-235.5,396.6
				C-235.4,396.6-235.4,396.6-235.5,396.6z M-235.5,396c0,0.1,0.1,0.3,0.1,0.4c0.2-0.3,0.3-0.9,0.3-1.4c0,0,0,0,0-0.1c0,0,0,0,0,0
				l0,0l0,0C-235.3,395.2-235.5,395.5-235.5,396z"/>
		</g>
		<g>
			<path class="st7" d="M-235.5,396.5C-235.5,396.5-235.5,396.5-235.5,396.5C-235.5,396.5-235.5,396.5-235.5,396.5L-235.5,396.5z"/>
		</g>
		<g>
			<path class="st8" d="M-235.5,396.5C-235.5,396.5-235.5,396.5-235.5,396.5C-235.5,396.5-235.5,396.5-235.5,396.5L-235.5,396.5z"/>
		</g>
		<g>
			<path class="st7" d="M-235.4,397c0.1-0.6,0.7-0.9,0.9-1.3c0.1-0.1,0-0.2-0.1-0.1c-0.1,0.1-0.5,0.2-0.7,0.4
				c-0.1,0.2-0.1,0.4-0.2,0.5C-235.4,396.7-235.4,396.8-235.4,397L-235.4,397z"/>
		</g>
		<g>
			<path d="M-235.4,397C-235.4,397-235.4,397-235.4,397C-235.4,397-235.4,397-235.4,397c0-0.2-0.1-0.4-0.1-0.5c0,0,0,0,0,0
				c0.1-0.1,0.2-0.3,0.2-0.5c0,0,0,0,0,0c0.1-0.1,0.3-0.2,0.5-0.3c0.1,0,0.2-0.1,0.2-0.1c0.1-0.1,0.1-0.1,0.1,0c0,0,0,0.1,0,0.2
				c-0.1,0.1-0.2,0.2-0.3,0.3C-235,396.3-235.3,396.6-235.4,397C-235.4,397-235.4,397-235.4,397z M-235.4,396.6c0,0.1,0,0.2,0,0.3
				c0.1-0.3,0.3-0.5,0.5-0.7c0.1-0.1,0.2-0.2,0.3-0.3c0,0,0-0.1,0-0.1c0,0,0,0-0.1,0c0,0-0.1,0.1-0.2,0.1c-0.1,0.1-0.3,0.2-0.5,0.3
				C-235.3,396.3-235.3,396.4-235.4,396.6z"/>
		</g>
		<g>
			<path class="st7" d="M-234.4,394.4c-0.2,0.1-0.5,0.5-0.7,0.8c0,0.1,0,0.3,0,0.5c0.5-0.4,0.6-0.8,0.8-1.2
				C-234.3,394.3-234.4,394.3-234.4,394.4L-234.4,394.4z"/>
		</g>
		<g>
			<path d="M-235.2,395.7C-235.2,395.7-235.2,395.7-235.2,395.7C-235.2,395.7-235.2,395.7-235.2,395.7c0-0.2,0-0.3,0-0.5
				c0,0,0,0,0,0c0.2-0.3,0.5-0.7,0.7-0.9l0,0c0,0,0.1,0,0.1,0c0,0,0,0.1,0,0.2C-234.5,394.9-234.6,395.3-235.2,395.7
				C-235.1,395.7-235.1,395.7-235.2,395.7z M-235.1,395.2c0,0.1,0,0.3,0,0.4c0.5-0.4,0.6-0.7,0.7-1.1c0,0,0-0.1,0-0.1c0,0,0,0,0,0
				l0,0C-234.6,394.5-234.9,394.9-235.1,395.2z"/>
		</g>
		<g>
			<path class="st7" d="M-235.2,395c-0.2,0.2-0.3,0.6-0.4,1c0,0.1,0.1,0.3,0.1,0.5C-235.2,396.3-235.1,395.6-235.2,395
				C-235.1,394.9-235.1,394.9-235.2,395L-235.2,395z"/>
		</g>
		<g>
			<path d="M-235.5,396.6C-235.5,396.6-235.5,396.6-235.5,396.6C-235.5,396.6-235.5,396.6-235.5,396.6c-0.1-0.2-0.1-0.4-0.1-0.5
				c0,0,0,0,0,0c0.1-0.5,0.2-0.8,0.4-1c0,0,0.1-0.1,0.1-0.1c0,0,0,0.1,0,0.1C-235.1,395.6-235.2,396.3-235.5,396.6
				C-235.4,396.6-235.4,396.6-235.5,396.6z M-235.5,396c0,0.1,0.1,0.3,0.1,0.4c0.2-0.3,0.3-0.9,0.3-1.4c0,0,0,0,0-0.1c0,0,0,0,0,0
				l0,0l0,0C-235.3,395.2-235.5,395.5-235.5,396z"/>
		</g>
		<g>
			<path class="st7" d="M-234.4,394.4c-0.2,0.1-0.5,0.5-0.7,0.8c0,0.1,0,0.3,0,0.5c0.5-0.4,0.6-0.8,0.8-1.2
				C-234.3,394.3-234.4,394.3-234.4,394.4L-234.4,394.4z"/>
		</g>
		<g>
			<path d="M-235.2,395.7C-235.2,395.7-235.2,395.7-235.2,395.7C-235.2,395.7-235.2,395.7-235.2,395.7c0-0.2,0-0.3,0-0.5
				c0,0,0,0,0,0c0.2-0.3,0.5-0.7,0.7-0.9l0,0c0,0,0.1,0,0.1,0c0,0,0,0.1,0,0.2C-234.5,394.9-234.6,395.3-235.2,395.7
				C-235.1,395.7-235.1,395.7-235.2,395.7z M-235.1,395.2c0,0.1,0,0.3,0,0.4c0.5-0.4,0.6-0.7,0.7-1.1c0,0,0-0.1,0-0.1c0,0,0,0,0,0
				l0,0C-234.6,394.5-234.9,394.9-235.1,395.2z"/>
		</g>
		<g>
			<path class="st7" d="M-235,395.9c0.2-0.3,0.8-0.4,1-0.7c0.1-0.1,0.1-0.2-0.1-0.1c-0.2,0.1-0.3,0-0.6,0.1
				c-0.1,0.1-0.3,0.3-0.4,0.4c0,0.1,0,0.3-0.1,0.4C-235.1,396-235.1,395.9-235,395.9L-235,395.9z"/>
		</g>
		<g>
			<path d="M-235.2,396.1C-235.2,396.1-235.2,396.1-235.2,396.1C-235.3,396.1-235.3,396.1-235.2,396.1c0-0.2,0-0.3,0.1-0.4
				c0,0,0,0,0,0c0.1-0.1,0.3-0.3,0.4-0.4c0,0,0,0,0,0c0.1,0,0.3,0,0.4-0.1c0.1,0,0.2,0,0.3-0.1c0.1-0.1,0.2-0.1,0.2-0.1
				c0,0.1,0,0.2-0.1,0.2c-0.1,0.1-0.3,0.2-0.4,0.3c-0.2,0.1-0.4,0.2-0.5,0.4c0,0,0,0,0,0C-235,396-235.1,396-235.2,396.1
				C-235.2,396.1-235.2,396.1-235.2,396.1z M-235.1,395.7c0,0.1,0,0.2-0.1,0.3c0.1-0.1,0.1-0.1,0.2-0.1c0.1-0.2,0.4-0.3,0.6-0.4
				c0.2-0.1,0.3-0.2,0.4-0.3c0,0,0.1-0.1,0.1-0.1c0,0,0,0-0.1,0.1c-0.1,0.1-0.2,0.1-0.3,0.1c-0.1,0-0.2,0-0.3,0
				C-234.8,395.4-235,395.6-235.1,395.7z"/>
		</g>
		<g>
			<path class="st7" d="M-234.4,395.2c0.3-0.4,0.4-0.3,0.6-0.6c0,0,0.1-0.1,0,0c-0.1,0-0.5,0-0.6,0.2c-0.1,0.1-0.2,0.4-0.3,0.5
				C-234.6,395.2-234.6,395.2-234.4,395.2L-234.4,395.2z"/>
		</g>
		<g>
			<path d="M-234.7,395.3C-234.8,395.3-234.8,395.3-234.7,395.3C-234.8,395.3-234.8,395.2-234.7,395.3c0.1-0.2,0.2-0.4,0.2-0.5
				c0,0,0,0,0,0c0.1-0.1,0.3-0.1,0.4-0.1c0.1,0,0.1,0,0.2,0c0,0,0.1,0,0.1,0c0,0,0,0.1,0,0.1c-0.1,0.1-0.2,0.1-0.2,0.2
				c-0.1,0.1-0.2,0.1-0.4,0.4c0,0,0,0,0,0h0C-234.5,395.2-234.6,395.2-234.7,395.3C-234.7,395.3-234.7,395.3-234.7,395.3z
				 M-234.5,394.8c0,0.1-0.1,0.3-0.2,0.4c0.1,0,0.1,0,0.2,0c0,0,0,0,0,0c0.2-0.2,0.3-0.3,0.4-0.4c0.1,0,0.1-0.1,0.2-0.2c0,0,0,0,0,0
				c0,0,0,0,0,0c0,0-0.1,0-0.2,0C-234.2,394.7-234.4,394.7-234.5,394.8z"/>
		</g>
		<g>
			<path class="st7" d="M-231.8,398.9c0-0.2,0.1-0.3,0.2-0.4c0.1-0.1,0-0.1,0,0c-0.1,0-0.2,0-0.4,0.2c-0.2,0.1-0.3,0.5-0.4,0.7
				C-232.3,399.1-232.1,398.9-231.8,398.9C-231.8,398.9-231.8,398.9-231.8,398.9L-231.8,398.9z"/>
		</g>
		<g>
			<path d="M-232.6,399.3C-232.6,399.3-232.6,399.3-232.6,399.3C-232.6,399.3-232.6,399.3-232.6,399.3c0-0.1,0.1-0.2,0.1-0.3
				c0.1-0.2,0.2-0.4,0.3-0.5c0.1-0.1,0.3-0.1,0.4-0.1c0,0,0.1,0,0.1,0c0,0,0.1,0,0.1,0c0,0,0,0.1,0,0.1c-0.1,0.1-0.1,0.2-0.1,0.4
				c0,0,0,0,0,0h0C-232.1,398.9-232.3,399.1-232.6,399.3C-232.6,399.3-232.6,399.3-232.6,399.3z M-231.7,398.5
				C-231.7,398.5-231.7,398.5-231.7,398.5c-0.1,0-0.3,0.1-0.4,0.2c-0.1,0.1-0.2,0.3-0.3,0.4c0,0,0,0.1-0.1,0.1
				c0.2-0.2,0.4-0.3,0.6-0.3C-231.8,398.7-231.8,398.5-231.7,398.5z"/>
		</g>
		<g>
			<path class="st7" d="M-232.2,399.5c0.2,0,0.4,0,0.6-0.1c0.1-0.1,0.3-0.1,0.3-0.1c0.1,0,0.1,0,0-0.1c0-0.1-0.2-0.2-0.4-0.2
				c-0.2,0.1-0.4,0.3-0.7,0.3C-232.3,399.5-232.2,399.5-232.2,399.5L-232.2,399.5z"/>
		</g>
		<g>
			<path d="M-232,399.6c-0.1,0-0.2,0-0.2,0c0,0,0,0,0,0c0,0-0.1-0.1-0.2-0.1c0,0,0,0,0,0s0,0,0,0c0.3,0,0.5-0.1,0.6-0.3c0,0,0,0,0,0
				c0.2,0,0.4,0.1,0.4,0.2c0,0,0.1,0.1,0,0.1c0,0-0.1,0-0.1,0c0,0,0,0,0,0c-0.1,0-0.2,0-0.3,0.1C-231.7,399.6-231.8,399.6-232,399.6
				z M-232.2,399.5c0.2,0,0.4,0,0.5-0.1c0.1-0.1,0.2-0.1,0.3-0.1c0,0,0,0,0,0c0,0,0,0,0,0c0-0.1-0.2-0.1-0.4-0.1
				c-0.2,0.1-0.3,0.3-0.6,0.3C-232.2,399.5-232.2,399.5-232.2,399.5z"/>
		</g>
		<g>
			<path class="st7" d="M-231.5,398.8c0.1-0.2,0-0.3,0-0.4c0-0.1,0-0.2,0.1-0.3c0.1-0.1,0.1-0.2,0.1-0.2c0-0.1,0.1-0.1,0.1,0
				c0.1,0.1,0.1,0.3,0,0.5C-231.3,398.6-231.3,398.7-231.5,398.8L-231.5,398.8L-231.5,398.8z"/>
		</g>
		<g>
			<path d="M-231.5,398.9C-231.5,398.9-231.5,398.8-231.5,398.9C-231.5,398.8-231.5,398.8-231.5,398.9c0-0.2,0-0.4,0-0.4
				c0-0.1,0-0.2,0.1-0.4c0-0.1,0.1-0.1,0.1-0.2c0,0,0,0,0-0.1c0-0.1,0.1-0.1,0.1-0.1c0,0,0,0,0,0c0,0,0.1,0.1,0.1,0.1
				c0.1,0.2,0.1,0.4,0,0.5C-231.2,398.6-231.3,398.7-231.5,398.9C-231.4,398.8-231.4,398.8-231.5,398.9L-231.5,398.9
				C-231.5,398.9-231.5,398.9-231.5,398.9z M-231.3,397.8C-231.3,397.8-231.3,397.8-231.3,397.8
				C-231.3,397.9-231.3,397.9-231.3,397.8c0,0.1-0.1,0.2-0.1,0.3c0,0-0.1,0.2-0.1,0.3c0,0.1,0.1,0.2,0,0.4c0.1-0.1,0.1-0.2,0.2-0.4
				C-231.2,398.2-231.2,398-231.3,397.8C-231.3,397.8-231.3,397.8-231.3,397.8z"/>
		</g>
		<g>
			<path class="st7" d="M-231.6,398.9c0.1,0,0.3-0.1,0.4-0.3c0.1-0.1,0.4-0.3,0.7-0.3c0.2,0,0.2,0,0.1,0.1c-0.1,0.1-0.3,0.4-0.5,0.4
				S-231.4,398.8-231.6,398.9L-231.6,398.9L-231.6,398.9z"/>
		</g>
		<g>
			<path d="M-231.5,398.9C-231.5,398.9-231.6,398.9-231.5,398.9L-231.5,398.9C-231.6,398.9-231.6,398.8-231.5,398.9
				c-0.1-0.1,0-0.1,0-0.1c0.1,0,0.3-0.1,0.4-0.3c0.1-0.1,0.5-0.3,0.7-0.3l0,0c0.1,0,0.1,0,0.1,0c0,0,0,0.1-0.1,0.1l-0.1,0.1
				c-0.1,0.1-0.3,0.3-0.5,0.3l-0.1,0C-231.2,398.8-231.4,398.8-231.5,398.9C-231.5,398.9-231.5,398.9-231.5,398.9z M-230.3,398.3
				C-230.4,398.3-230.4,398.3-230.3,398.3L-230.3,398.3c-0.3,0-0.7,0.2-0.8,0.3c-0.1,0.1-0.1,0.1-0.2,0.2c0.1,0,0.2,0,0.3,0l0.1,0
				c0.2,0,0.3-0.2,0.4-0.3L-230.3,398.3C-230.4,398.3-230.4,398.3-230.3,398.3z"/>
		</g>
		<g>
			<path class="st7" d="M-232.6,399.3c0.3-0.3,0.6-0.4,1-0.5c0.1,0,0.2,0,0.1,0.1c-0.2,0.3-0.5,0.5-0.8,0.5
				C-232.4,399.4-232.5,399.3-232.6,399.3L-232.6,399.3z"/>
		</g>
		<g>
			<path d="M-232.4,399.4C-232.4,399.4-232.4,399.4-232.4,399.4L-232.4,399.4c-0.1-0.1-0.2-0.1-0.2-0.1c0,0,0,0,0,0s0,0,0,0
				c0.3-0.3,0.6-0.4,1-0.5c0.1,0,0.1,0,0.1,0c0,0,0,0.1-0.1,0.1C-231.8,399.2-232,399.4-232.4,399.4L-232.4,399.4z M-232.5,399.3
				c0,0,0.1,0.1,0.1,0.1l0,0c0.3,0,0.6-0.2,0.8-0.5c0,0,0-0.1,0-0.1c0,0,0,0,0,0c0,0,0,0,0,0C-231.9,398.9-232.2,399-232.5,399.3z"
				/>
		</g>
		<g>
			<path class="st7" d="M-231.2,398.1c0.1-0.1,0.2-0.1,0.2-0.1c0.1,0,0.1,0,0,0c0,0.1,0,0.2,0,0.2c-0.1,0.1-0.3,0.2-0.3,0.3
				C-231.2,398.4-231.2,398.3-231.2,398.1L-231.2,398.1z"/>
		</g>
		<g>
			<path d="M-231.3,398.5C-231.3,398.5-231.3,398.5-231.3,398.5C-231.3,398.5-231.3,398.5-231.3,398.5L-231.3,398.5
				c0-0.2,0.1-0.3,0.1-0.4c0,0,0,0,0,0c0.1-0.1,0.2-0.1,0.2-0.1c0,0,0.1,0,0.1,0c0,0,0,0.1,0,0.1c0,0,0,0.1,0,0.1c0,0,0,0.1,0,0.1
				c0,0,0,0,0,0C-231,398.3-231.2,398.4-231.3,398.5C-231.2,398.5-231.2,398.5-231.3,398.5z M-231.1,398.1c0,0.1,0,0.2,0,0.2
				c0.1-0.1,0.1-0.1,0.2-0.2c0,0,0,0,0-0.1c0,0,0-0.1,0-0.1c0,0,0,0,0,0C-230.9,398-231.1,398.1-231.1,398.1z"/>
		</g>
		<g>
			<path class="st7" d="M-230.8,397.7c0-0.2,0-0.4,0-0.5c-0.1-0.1-0.1-0.2-0.2-0.2c-0.1-0.1-0.1,0-0.1,0c0,0.1,0,0.2,0,0.4
				c0,0.3,0.2,0.4,0.3,0.6C-230.8,397.9-230.8,397.8-230.8,397.7L-230.8,397.7z"/>
		</g>
		<g>
			<path d="M-230.8,398C-230.8,398-230.8,398-230.8,398c-0.1-0.1-0.1-0.2-0.2-0.2c-0.1-0.1-0.2-0.2-0.2-0.4c0-0.2,0-0.3,0-0.3
				c0-0.1,0-0.1,0-0.1c0,0,0.1,0,0.1,0.1c0.1,0.1,0.1,0.2,0.2,0.2c0,0,0,0,0,0c0,0.1-0.1,0.2,0,0.5l0,0
				C-230.8,397.8-230.8,397.9-230.8,398C-230.8,398-230.8,398-230.8,398C-230.8,398-230.8,398-230.8,398z M-231,396.9
				C-231,396.9-231,397-231,396.9c0,0.2,0,0.2,0,0.4c0,0.2,0,0.3,0.1,0.4c0,0,0.1,0.1,0.1,0.1c0,0,0-0.1,0-0.1l0,0
				c0-0.2,0-0.4,0-0.5C-230.9,397.1-230.9,397-231,396.9C-231,396.9-231,396.9-231,396.9z"/>
		</g>
		<g>
			<path class="st7" d="M-230.1,397.1c-0.1,0.2-0.3,0.2-0.4,0.3c0,0.2-0.1,0.3-0.1,0.4c0,0.1-0.1,0.1-0.1,0.2
				c0.1-0.1,0.3-0.2,0.4-0.2c0.1-0.1,0.2-0.2,0.3-0.5C-230.1,397.2-230.1,397.2-230.1,397.1C-230,397-230.1,397-230.1,397.1
				L-230.1,397.1z"/>
		</g>
		<g>
			<path d="M-230.7,398C-230.7,398-230.7,398-230.7,398C-230.8,398-230.8,398-230.7,398c0-0.1,0-0.1,0.1-0.2
				c0.1-0.1,0.1-0.2,0.1-0.4c0,0,0,0,0,0c0-0.1,0.1-0.1,0.2-0.1c0.1,0,0.2-0.1,0.2-0.2l0,0c0,0,0-0.1,0.1-0.1c0,0,0,0,0,0.1l0,0
				c0,0.1,0,0.1,0,0.2c0,0.3-0.2,0.4-0.3,0.5c0,0,0,0-0.1,0C-230.5,397.9-230.6,397.9-230.7,398C-230.7,398-230.7,398-230.7,398z
				 M-230.5,397.4c0,0.1-0.1,0.3-0.1,0.4c0,0,0,0,0,0c0.1,0,0.1-0.1,0.2-0.1c0,0,0,0,0.1,0c0.1,0,0.2-0.1,0.3-0.4c0-0.1,0-0.1,0-0.2
				c-0.1,0.1-0.1,0.2-0.2,0.2C-230.4,397.4-230.4,397.4-230.5,397.4z"/>
		</g>
		<g>
			<path class="st7" d="M-230.5,397.2c0-0.1,0.1-0.2,0.2-0.3c0.1,0,0.1-0.1,0.1,0c0,0.1,0,0.2,0,0.3c-0.1,0-0.2,0.1-0.2,0.2
				C-230.5,397.3-230.5,397.2-230.5,397.2L-230.5,397.2z"/>
		</g>
		<g>
			<path d="M-230.5,397.5C-230.5,397.5-230.5,397.5-230.5,397.5C-230.5,397.4-230.5,397.4-230.5,397.5c0-0.1,0-0.2,0-0.2
				c0,0,0,0,0,0c0-0.1,0.1-0.2,0.2-0.3c0,0,0,0,0,0c0,0,0.1,0,0.1,0c0,0,0,0.1,0,0.1c0,0,0,0.1,0,0.1c0,0.1,0,0.1,0,0.2c0,0,0,0,0,0
				l0,0C-230.4,397.3-230.4,397.4-230.5,397.5C-230.5,397.4-230.5,397.5-230.5,397.5z M-230.5,397.2c0,0,0,0.1,0,0.1
				c0,0,0.1-0.1,0.1-0.1l0,0c0,0,0-0.1,0-0.1c0-0.1,0-0.1,0-0.1c0,0,0,0,0,0C-230.4,397-230.4,397.1-230.5,397.2z"/>
		</g>
		<g>
			<path class="st7" d="M-230.2,396.3c0-0.1-0.1-0.1-0.1-0.3c0-0.2,0-0.2-0.1-0.1c-0.1,0.1-0.2,0.2-0.2,0.4c0.1,0.2,0,0.3,0,0.5
				c0,0,0,0,0,0.1c0,0,0,0.1,0,0.1c0-0.1,0.1-0.3,0.2-0.4C-230.2,396.5-230.2,396.4-230.2,396.3L-230.2,396.3z"/>
		</g>
		<g>
			<path d="M-230.5,397L-230.5,397C-230.6,397-230.6,397-230.5,397c0-0.1,0-0.1-0.1-0.1c0,0,0,0,0-0.1c0,0,0,0,0,0
				c0-0.1,0-0.1,0-0.2c0-0.1,0-0.2,0-0.3c0,0,0,0,0,0c0-0.2,0.1-0.3,0.2-0.4c0,0,0.1-0.1,0.1,0c0,0,0,0.1,0,0.2c0,0.1,0,0.2,0,0.2
				c0,0,0,0,0,0l0,0c0,0.1,0,0.2-0.1,0.3C-230.4,396.7-230.5,396.9-230.5,397C-230.5,397-230.5,397-230.5,397z M-230.6,396.8
				C-230.6,396.8-230.6,396.9-230.6,396.8C-230.6,396.9-230.5,396.9-230.6,396.8c0.1,0,0.2-0.2,0.2-0.2c0.1-0.1,0.1-0.2,0.1-0.3l0,0
				c0,0,0,0,0,0c0-0.1-0.1-0.1,0-0.3c0-0.1,0-0.1,0-0.1c0,0,0,0,0,0c-0.1,0.1-0.2,0.2-0.2,0.3c0,0.1,0,0.3,0,0.4
				C-230.6,396.7-230.6,396.8-230.6,396.8z"/>
		</g>
		<g>
			<path class="st7" d="M-230.9,396.2c-0.1,0-0.2,0-0.3-0.1c-0.1-0.1-0.1-0.1-0.1,0c0,0.1,0,0.1,0.1,0.3c0,0.2,0.2,0.4,0.4,0.4
				C-230.8,396.6-230.9,396.4-230.9,396.2L-230.9,396.2z"/>
		</g>
		<g>
			<path d="M-230.7,396.8c-0.3,0-0.4-0.2-0.4-0.4c0,0,0,0,0-0.1c0-0.1,0-0.1,0-0.2c0,0,0-0.1,0-0.1c0,0,0.1,0,0.1,0.1
				c0.1,0.1,0.2,0.1,0.2,0.1c0,0,0,0,0,0C-230.9,396.4-230.8,396.6-230.7,396.8C-230.7,396.8-230.7,396.8-230.7,396.8
				C-230.7,396.8-230.7,396.8-230.7,396.8z M-231.2,396.1c0,0.1,0,0.1,0,0.2c0,0,0,0,0,0.1c0,0.1,0.1,0.3,0.3,0.4
				c-0.1-0.2-0.1-0.3-0.1-0.5C-231,396.2-231.1,396.2-231.2,396.1z"/>
		</g>
		<g>
			<path class="st7" d="M-231.2,395.3c-0.2-0.1-0.1-0.3-0.3-0.4c-0.2-0.1-0.4-0.2-0.5-0.2c-0.1,0-0.2,0-0.1,0.1
				c0.2,0.2,0.1,0.3,0.3,0.4C-231.6,395.2-231.4,395.3-231.2,395.3L-231.2,395.3L-231.2,395.3z"/>
		</g>
		<g>
			<path d="M-231.3,395.4C-231.3,395.4-231.3,395.4-231.3,395.4c-0.1-0.1-0.2-0.1-0.3-0.2c-0.1,0-0.1-0.1-0.2-0.1
				c-0.1-0.1-0.2-0.1-0.2-0.2c0-0.1-0.1-0.1-0.1-0.2c0,0-0.1-0.1,0-0.1c0,0,0.1,0,0.1,0c0.1,0,0.3,0.1,0.5,0.2
				c0.1,0.1,0.1,0.2,0.2,0.2c0,0.1,0.1,0.1,0.2,0.2C-231.2,395.3-231.2,395.3-231.3,395.4L-231.3,395.4
				C-231.2,395.4-231.2,395.4-231.3,395.4C-231.3,395.4-231.3,395.4-231.3,395.4z M-232.1,394.7
				C-232.1,394.7-232.1,394.7-232.1,394.7c0.1,0.1,0.1,0.2,0.2,0.2c0,0.1,0.1,0.1,0.2,0.2c0.1,0,0.1,0.1,0.2,0.1
				c0.1,0,0.1,0,0.2,0.1c0,0-0.1-0.1-0.1-0.1c0-0.1-0.1-0.1-0.1-0.2C-231.8,394.8-232,394.7-232.1,394.7
				C-232,394.7-232.1,394.7-232.1,394.7z"/>
		</g>
		<g>
			<path class="st7" d="M-230.9,396c0-0.1,0-0.1,0-0.1c0,0,0-0.1,0-0.2c0-0.2-0.2-0.3-0.4-0.4c-0.1-0.1-0.1,0-0.1,0
				c0,0.1,0.1,0.1,0.1,0.2C-231.2,395.7-231.2,395.8-230.9,396C-230.9,396-230.9,396-230.9,396L-230.9,396z"/>
		</g>
		<g>
			<path d="M-230.9,396C-230.9,396-230.9,396-230.9,396c-0.2-0.1-0.4-0.3-0.4-0.5c0-0.1,0-0.2-0.1-0.2l0,0c0,0,0-0.1,0-0.1
				c0,0,0.1,0,0.1,0c0.2,0.1,0.3,0.3,0.4,0.4c0,0.1,0,0.1,0,0.2c0,0,0,0,0,0c0,0,0,0,0,0C-230.8,395.9-230.8,395.9-230.9,396
				C-230.8,396-230.8,396-230.9,396C-230.8,396-230.8,396-230.9,396C-230.8,396-230.9,396-230.9,396C-230.9,396-230.9,396-230.9,396
				z M-231.3,395.3C-231.3,395.3-231.3,395.3-231.3,395.3L-231.3,395.3c0,0.1,0.1,0.1,0.1,0.3c0,0.2,0.1,0.3,0.3,0.4
				c0-0.1,0-0.1,0-0.1c0,0,0-0.1,0-0.1C-230.9,395.6-231.1,395.4-231.3,395.3C-231.3,395.3-231.3,395.3-231.3,395.3z"/>
		</g>
		<g>
			<path class="st7" d="M-230.8,395.9C-230.8,395.9-230.8,396-230.8,395.9c0,0,0.1-0.1,0.1-0.3c0-0.3-0.2-0.3-0.2-0.5
				c0-0.1-0.1-0.1-0.1,0c0,0.1-0.1,0.2,0,0.3c0.1,0.1,0.2,0.2,0.2,0.3C-230.9,395.8-230.8,395.8-230.8,395.9
				C-230.8,395.9-230.8,395.9-230.8,395.9L-230.8,395.9z"/>
		</g>
		<g>
			<path d="M-230.8,396C-230.8,396-230.8,396-230.8,396C-230.8,396-230.8,396-230.8,396C-230.8,395.9-230.8,395.9-230.8,396
				c-0.1-0.1-0.1-0.1-0.1-0.1c0,0,0,0,0,0c0,0,0-0.1,0-0.2c0-0.1-0.1-0.2-0.2-0.3c0,0,0,0,0,0c0-0.1,0-0.3,0-0.3
				c0,0,0.1-0.1,0.1-0.1c0,0,0.1,0.1,0.1,0.1c0,0.1,0,0.1,0.1,0.2c0.1,0.1,0.1,0.2,0.1,0.3C-230.7,395.8-230.7,395.9-230.8,396
				C-230.7,396-230.7,396-230.8,396C-230.7,396-230.7,396-230.8,396z M-230.8,395.8C-230.8,395.9-230.8,395.9-230.8,395.8
				c0,0,0-0.1,0.1-0.2c0-0.2,0-0.2-0.1-0.3c0-0.1-0.1-0.1-0.1-0.2c0-0.1,0-0.1,0-0.1c0,0,0,0,0,0.1c0,0-0.1,0.1,0,0.3
				c0.1,0.1,0.2,0.2,0.2,0.3C-230.8,395.7-230.8,395.8-230.8,395.8z"/>
		</g>
		<g>
			<path class="st7" d="M-230.6,396.9c0-0.3,0.1-0.4,0-0.7c-0.1-0.1-0.2-0.2-0.2-0.3c0-0.1,0-0.1-0.1,0.1
				C-230.9,396.4-230.9,396.6-230.6,396.9L-230.6,396.9L-230.6,396.9z"/>
		</g>
		<g>
			<path d="M-230.6,397C-230.6,397-230.6,397-230.6,397L-230.6,397c-0.3-0.4-0.4-0.6-0.3-1c0-0.1,0-0.1,0.1-0.1c0,0,0,0,0,0
				c0,0,0,0,0.1,0.1c0,0,0,0.1,0.1,0.1c0,0,0.1,0.1,0.1,0.2c0.1,0.2,0.1,0.3,0,0.5C-230.6,396.7-230.6,396.8-230.6,397
				C-230.6,397-230.6,397-230.6,397C-230.6,397-230.6,397-230.6,397z M-230.8,395.9C-230.8,395.9-230.8,396-230.8,395.9
				c-0.1,0.4,0,0.6,0.2,0.9c0-0.1,0-0.1,0-0.2c0-0.1,0.1-0.2,0-0.4c0-0.1-0.1-0.1-0.1-0.2C-230.8,396-230.8,396-230.8,395.9z"/>
		</g>
		<g>
			<path class="st7" d="M-230.9,398.2c0.1-0.1,0.1-0.3,0-0.5c0-0.2,0-0.4,0-0.5c0.1-0.1,0.1-0.2,0.1-0.3c0-0.1,0-0.2,0.1,0
				c0.2,0.4,0.1,0.7,0,0.9C-230.7,398-230.8,398-230.9,398.2L-230.9,398.2L-230.9,398.2z"/>
		</g>
		<g>
			<path d="M-230.9,398.2C-230.9,398.2-230.9,398.2-230.9,398.2C-230.9,398.2-230.9,398.2-230.9,398.2c0-0.2,0-0.4,0-0.5
				c0-0.2,0-0.4,0-0.5c0.1-0.1,0.1-0.2,0.1-0.3l0,0c0-0.1,0-0.1,0-0.1c0,0,0.1,0,0.1,0.1c0.2,0.4,0.1,0.7,0,0.9
				c0,0.1-0.1,0.1-0.1,0.2C-230.7,398.1-230.7,398.1-230.9,398.2C-230.8,398.2-230.8,398.2-230.9,398.2L-230.9,398.2
				C-230.9,398.2-230.9,398.2-230.9,398.2z M-230.6,396.9C-230.6,396.9-230.6,396.9-230.6,396.9L-230.6,396.9c0,0.1-0.1,0.2-0.1,0.3
				c-0.1,0.1,0,0.4,0,0.5c0,0.1,0,0.2,0,0.3c0,0,0-0.1,0-0.1c0,0,0.1-0.1,0.1-0.2C-230.5,397.6-230.5,397.3-230.6,396.9
				C-230.6,396.9-230.6,396.9-230.6,396.9z"/>
		</g>
		<g>
			<path class="st7" d="M-231.1,398.6c0.1-0.1,0.3-0.2,0.5-0.3c0-0.1,0-0.2,0.1-0.3c0-0.1,0-0.1-0.1,0c-0.1,0-0.2,0.1-0.2,0.1
				c-0.2,0.1-0.5,0.4-0.6,0.6C-231.3,398.7-231.2,398.7-231.1,398.6L-231.1,398.6z"/>
		</g>
		<g>
			<path d="M-231.4,398.8C-231.4,398.8-231.4,398.8-231.4,398.8C-231.5,398.8-231.5,398.8-231.4,398.8c0.1-0.3,0.3-0.6,0.6-0.7
				c0.1,0,0.1-0.1,0.2-0.1c0.1,0,0.1-0.1,0.1,0c0,0,0,0.1,0,0.1c0,0.1-0.1,0.2-0.1,0.3c0,0,0,0,0,0c-0.2,0.1-0.4,0.2-0.5,0.3l0,0
				C-231.2,398.7-231.3,398.8-231.4,398.8C-231.4,398.8-231.4,398.8-231.4,398.8z M-230.6,398C-230.6,398-230.6,398-230.6,398
				c-0.1,0.1-0.2,0.1-0.2,0.1c-0.2,0.1-0.4,0.3-0.5,0.5c0.1,0,0.1-0.1,0.2-0.2l0,0c0.1-0.1,0.3-0.2,0.5-0.3
				C-230.6,398.2-230.6,398.1-230.6,398z"/>
		</g>
		<g>
			<path class="st7" d="M-231.2,395.5C-231.2,395.5-231.2,395.5-231.2,395.5c-0.1,0-0.3,0-0.4,0c-0.1,0-0.1,0,0,0.1
				c0.1,0.1,0.2,0.3,0.4,0.4c0.1,0,0.1,0,0.2,0C-231.2,395.8-231.2,395.6-231.2,395.5L-231.2,395.5z"/>
		</g>
		<g>
			<path d="M-231.1,396c0,0-0.1,0-0.1,0c-0.1,0-0.2-0.2-0.3-0.2c0,0-0.1-0.1-0.1-0.1c0,0-0.1-0.1-0.1-0.1c0,0,0.1,0,0.1,0
				c0,0,0.1,0,0.1,0c0.1,0,0.2,0,0.3,0c0,0,0,0,0,0c0,0.1,0.1,0.2,0.2,0.4c0,0,0,0,0,0c0,0,0,0,0,0C-231,396-231.1,396-231.1,396z
				 M-231.6,395.5c0,0,0.1,0.1,0.1,0.1c0.1,0.1,0.2,0.2,0.3,0.2c0,0,0.1,0,0.1,0c-0.1-0.1-0.2-0.2-0.2-0.3
				C-231.3,395.5-231.4,395.5-231.6,395.5C-231.5,395.5-231.6,395.5-231.6,395.5z"/>
		</g>
		<g>
			<path class="st7" d="M-231.8,395.1c-0.1-0.1-0.1-0.1-0.2-0.2c-0.1,0-0.2,0-0.2,0c-0.1,0-0.1,0,0,0.1c0.1,0.2,0.3,0.2,0.5,0.3
				c0.1,0,0.1,0,0.2,0C-231.6,395.2-231.7,395.2-231.8,395.1L-231.8,395.1z"/>
		</g>
		<g>
			<path d="M-232.1,399.5c-0.1,0-0.1,0-0.1,0c0,0,0,0,0,0c0,0,0,0,0,0c0.1,0,0.3,0,0.5-0.1c0.2-0.1,0.4-0.1,0.5,0c0,0,0,0,0,0
				c0,0,0,0,0,0c-0.1,0-0.2,0-0.4,0.1C-231.9,399.4-232,399.5-232.1,399.5z M-232.4,399.3C-232.5,399.3-232.5,399.3-232.4,399.3
				C-232.5,399.3-232.5,399.3-232.4,399.3c0.3-0.1,0.6-0.2,0.8-0.5c0,0,0,0,0,0c0,0,0,0,0,0C-231.8,399.2-232.2,399.3-232.4,399.3
				C-232.4,399.3-232.4,399.3-232.4,399.3z M-232.3,399.1C-232.3,399.1-232.3,399.1-232.3,399.1C-232.3,399-232.3,399-232.3,399.1
				c0.1-0.1,0.1-0.2,0.2-0.3c0.1-0.1,0.1-0.2,0.3-0.3c0,0,0,0,0,0s0,0,0,0c-0.1,0.1-0.2,0.2-0.2,0.3
				C-232.1,398.9-232.1,399-232.3,399.1C-232.2,399.1-232.3,399.1-232.3,399.1z M-231.5,398.9C-231.5,398.9-231.5,398.8-231.5,398.9
				C-231.5,398.8-231.5,398.8-231.5,398.9C-231.5,398.8-231.5,398.8-231.5,398.9C-231.5,398.8-231.5,398.8-231.5,398.9
				c0.2-0.4,0.2-0.8,0.2-1c0,0,0,0,0,0c0,0,0,0,0,0c0,0,0,0,0,0c0,0.1,0,0.5-0.1,0.8c0.2-0.1,0.7-0.3,0.9-0.4c0,0,0,0,0,0
				c0,0,0,0,0,0C-230.6,398.5-231.3,398.8-231.5,398.9C-231.4,398.9-231.5,398.9-231.5,398.9z M-231.2,398.5
				C-231.3,398.5-231.3,398.5-231.2,398.5C-231.3,398.5-231.3,398.5-231.2,398.5c0.1-0.1,0.2-0.4,0.3-0.5c0,0,0,0,0,0c0,0,0,0,0,0
				C-231,398.1-231.1,398.4-231.2,398.5C-231.2,398.5-231.2,398.5-231.2,398.5z M-231,398.5C-231,398.5-231,398.5-231,398.5
				C-231,398.5-231,398.4-231,398.5c0.1-0.2,0.3-0.3,0.3-0.4c0,0,0,0,0,0c0,0,0,0,0,0C-230.7,398.2-230.9,398.4-231,398.5
				C-231,398.5-231,398.5-231,398.5z M-230.8,398.1C-230.8,398.1-230.8,398.1-230.8,398.1C-230.8,398-230.8,398-230.8,398.1
				c0.2-0.4,0.2-0.7,0.1-1.1c0,0,0,0,0,0c0,0,0,0,0,0c0.1,0.3,0,0.7-0.1,1c0.4-0.2,0.4-0.4,0.5-0.7c0,0,0,0,0,0c0,0,0,0,0,0
				c-0.1,0.3-0.2,0.5-0.6,0.8c0,0,0,0,0,0C-230.7,398-230.7,398-230.8,398.1C-230.8,398-230.8,398.1-230.8,398.1z M-230.8,397.4
				C-230.9,397.4-230.9,397.4-230.8,397.4c-0.1-0.2-0.2-0.3-0.2-0.4c0,0,0,0,0,0c0,0,0,0,0,0C-230.9,397.1-230.8,397.2-230.8,397.4
				C-230.8,397.4-230.8,397.4-230.8,397.4C-230.8,397.4-230.8,397.4-230.8,397.4z M-230.5,397.2
				C-230.5,397.2-230.5,397.2-230.5,397.2C-230.5,397.2-230.6,397.1-230.5,397.2c0-0.2,0.1-0.4,0.2-0.4c0,0,0,0,0,0c0,0,0,0,0,0
				C-230.4,396.9-230.5,397-230.5,397.2C-230.5,397.2-230.5,397.2-230.5,397.2z M-230.5,396.9C-230.6,396.9-230.6,396.9-230.5,396.9
				C-230.6,396.9-230.6,396.8-230.5,396.9c0-0.2,0.1-0.4,0.1-0.5c0-0.2,0.1-0.3,0.1-0.4c0,0,0,0,0,0c0,0,0,0,0,0
				c0,0.1-0.1,0.2-0.1,0.4C-230.4,396.5-230.5,396.7-230.5,396.9C-230.5,396.9-230.5,396.9-230.5,396.9z M-230.6,396.8
				C-230.7,396.8-230.7,396.8-230.6,396.8c0-0.2-0.1-0.4-0.1-0.5c0-0.1-0.1-0.2-0.1-0.3c0,0,0,0,0,0h0c0,0,0,0,0,0
				c0,0.1,0,0.2,0.1,0.3C-230.7,396.4-230.6,396.6-230.6,396.8C-230.6,396.8-230.6,396.8-230.6,396.8L-230.6,396.8z M-230.8,396.7
				C-230.8,396.7-230.8,396.7-230.8,396.7c-0.1-0.1-0.3-0.3-0.3-0.4l0,0c0,0,0,0,0,0c0,0,0,0,0,0l0,0
				C-231,396.3-230.9,396.5-230.8,396.7C-230.8,396.6-230.8,396.6-230.8,396.7C-230.8,396.7-230.8,396.7-230.8,396.7z M-230.9,396
				C-230.9,396-230.9,395.9-230.9,396c0,0-0.1-0.1-0.1-0.1c-0.1-0.1-0.2-0.3-0.3-0.5c0,0,0,0,0,0c0,0,0,0,0,0
				c0.2,0.2,0.3,0.4,0.3,0.5C-230.9,395.8-230.9,395.9-230.9,396C-230.8,395.9-230.8,395.9-230.9,396
				C-230.9,395.9-230.9,396-230.9,396z M-230.8,395.9L-230.8,395.9C-230.8,395.9-230.8,395.9-230.8,395.9c0-0.1-0.1-0.3-0.1-0.4
				c0-0.2-0.1-0.3-0.1-0.4c0,0,0,0,0,0c0,0,0,0,0,0c0,0.1,0,0.2,0.1,0.4C-230.8,395.6-230.8,395.7-230.8,395.9
				C-230.8,395.9-230.8,395.9-230.8,395.9z M-231.1,395.8C-231.1,395.8-231.1,395.8-231.1,395.8c-0.1-0.1-0.3-0.2-0.4-0.3
				c0,0,0,0,0,0c0,0,0,0,0,0C-231.4,395.6-231.2,395.7-231.1,395.8C-231.1,395.8-231.1,395.8-231.1,395.8
				C-231.1,395.8-231.1,395.8-231.1,395.8z M-231.3,395.3C-231.3,395.3-231.3,395.3-231.3,395.3c-0.2-0.2-0.5-0.5-0.7-0.6
				c0,0,0,0,0,0c0,0,0,0,0,0C-231.8,394.8-231.5,395.1-231.3,395.3C-231.3,395.3-231.3,395.3-231.3,395.3
				C-231.3,395.3-231.3,395.3-231.3,395.3z M-231.7,395.3C-231.7,395.3-231.7,395.3-231.7,395.3c-0.2,0-0.3-0.1-0.5-0.3
				c0,0-0.1-0.1,0-0.1c0,0,0,0,0.1,0c0,0,0.1,0,0.1,0c0,0,0.1,0,0.1,0c0,0,0,0,0,0c0,0,0,0,0,0c0,0.1,0.1,0.1,0.2,0.2l0,0
				c0.1,0,0.1,0.1,0.2,0.1c0,0,0,0,0.1,0c0,0,0,0,0,0c0,0,0,0,0,0c0,0-0.1,0-0.1,0C-231.6,395.3-231.7,395.3-231.7,395.3z
				 M-232.1,395.1c0.1,0.1,0.3,0.2,0.4,0.2c0,0,0.1,0,0.1,0C-231.8,395.2-232,395.2-232.1,395.1z M-231.6,394.9
				C-231.6,394.9-231.6,394.9-231.6,394.9c-0.1-0.1-0.2-0.3-0.2-0.4c0,0,0,0,0,0c0,0,0,0,0,0c0,0,0,0,0,0
				C-231.7,394.5-231.7,394.7-231.6,394.9C-231.6,394.8-231.6,394.9-231.6,394.9C-231.6,394.9-231.6,394.9-231.6,394.9z"/>
		</g>
		<g>
			<path class="st7" d="M-231.2,394.9c-0.1,0-0.1,0.2,0,0.2C-231.1,395.1-231.1,394.9-231.2,394.9L-231.2,394.9z"/>
		</g>
		<g>
			<path class="st8" d="M-231.2,394.9c-0.1,0-0.1,0.2,0,0.2C-231.1,395.1-231.1,394.9-231.2,394.9L-231.2,394.9z"/>
		</g>
		<g>
			<path class="st7" d="M-231.4,395.4c0-0.1-0.2-0.2-0.2-0.1S-231.4,395.5-231.4,395.4L-231.4,395.4z"/>
		</g>
		<g>
			<path class="st8" d="M-231.4,395.4c0-0.1-0.2-0.2-0.2-0.1S-231.4,395.5-231.4,395.4L-231.4,395.4z"/>
		</g>
		<g>
			<path class="st7" d="M-231,396.1c0.1-0.1-0.1-0.2-0.2-0.1C-231.2,396-231.1,396.2-231,396.1L-231,396.1z"/>
		</g>
		<g>
			<path class="st8" d="M-231,396.1c0.1-0.1-0.1-0.2-0.2-0.1C-231.2,396-231.1,396.2-231,396.1L-231,396.1z"/>
		</g>
		<g>
			<path class="st7" d="M-230.5,395.7c-0.1-0.1-0.2,0.1-0.1,0.2C-230.5,396-230.4,395.8-230.5,395.7L-230.5,395.7z"/>
		</g>
		<g>
			<path class="st8" d="M-230.5,395.7c-0.1-0.1-0.2,0.1-0.1,0.2C-230.5,396-230.4,395.8-230.5,395.7L-230.5,395.7z"/>
		</g>
		<g>
			<path class="st7" d="M-230.4,396.8c0.1,0.1,0.2-0.1,0.2-0.1C-230.2,396.6-230.4,396.7-230.4,396.8L-230.4,396.8z"/>
		</g>
		<g>
			<path class="st8" d="M-230.4,396.8c0.1,0.1,0.2-0.1,0.2-0.1C-230.2,396.6-230.4,396.7-230.4,396.8L-230.4,396.8z"/>
		</g>
		<g>
			<path class="st7" d="M-230.8,396.9c0.1,0-0.1-0.2-0.1-0.1C-231,396.9-230.9,397-230.8,396.9L-230.8,396.9z"/>
		</g>
		<g>
			<path class="st8" d="M-230.8,396.9c0.1,0-0.1-0.2-0.1-0.1C-231,396.9-230.9,397-230.8,396.9L-230.8,396.9z"/>
		</g>
		<g>
			<path class="st7" d="M-231.1,397.9c0.1,0,0-0.2-0.1-0.2C-231.2,397.7-231.1,397.9-231.1,397.9L-231.1,397.9z"/>
		</g>
		<g>
			<path class="st8" d="M-231.1,397.9c0.1,0,0-0.2-0.1-0.2C-231.2,397.7-231.1,397.9-231.1,397.9L-231.1,397.9z"/>
		</g>
		<g>
			<path class="st7" d="M-230.4,398c0,0.1,0.2,0.1,0.2,0C-230.2,397.9-230.4,397.9-230.4,398L-230.4,398z"/>
		</g>
		<g>
			<path class="st8" d="M-230.4,398c0,0.1,0.2,0.1,0.2,0C-230.2,397.9-230.4,397.9-230.4,398L-230.4,398z"/>
		</g>
		<g>
			<path class="st7" d="M-231.6,398.6c0.1,0,0.2-0.1,0.1-0.2C-231.6,398.4-231.7,398.6-231.6,398.6L-231.6,398.6z"/>
		</g>
		<g>
			<path class="st8" d="M-231.6,398.6c0.1,0,0.2-0.1,0.1-0.2C-231.6,398.4-231.7,398.6-231.6,398.6L-231.6,398.6z"/>
		</g>
		<g>
			<path class="st7" d="M-231.3,399c0,0.1,0.2,0.1,0.2,0C-231.2,399-231.3,399-231.3,399L-231.3,399z"/>
		</g>
		<g>
			<path class="st8" d="M-231.3,399c0,0.1,0.2,0.1,0.2,0C-231.2,399-231.3,399-231.3,399L-231.3,399z"/>
		</g>
		<g>
			<polygon class="st5" points="-233,395.7 -232.7,396.6 -231.8,396.6 -232.5,397.1 -232.2,398 -233,397.5 -233.8,398 -233.5,397.1 
				-234.2,396.6 -233.3,396.6 			"/>
		</g>
	</g>
</g>
</svg>
