<?xml version="1.0" encoding="utf-8"?>
<!-- Generator: Adobe Illustrator 19.0.0, SVG Export Plug-In . SVG Version: 6.00 Build 0)  -->
<svg version="1.1" id="Layer_1" xmlns="http://www.w3.org/2000/svg" xmlns:xlink="http://www.w3.org/1999/xlink" x="0px" y="0px"
	 viewBox="-269 374 72 46" style="enable-background:new -269 374 72 46;" xml:space="preserve">
<style type="text/css">
	.st0{clip-path:url(#SVGID_2_);}
	.st1{fill:#721C3C;}
	.st2{fill:#FFFFFF;}
</style>
<g>
	<defs>
		<path id="SVGID_1_" d="M-203.1,420H-262c-3.8,0-7-3.1-7-7v-32.6c0-3.8,3.1-7,7-7h58.9c3.8,0,7,3.1,7,7V413
			C-196.1,416.9-199.2,420-203.1,420z"/>
	</defs>
	<clipPath id="SVGID_2_">
		<use xlink:href="#SVGID_1_"  style="overflow:visible;"/>
	</clipPath>
	<g class="st0">
		<g>
			<polygon class="st1" points="-154.1,420.7 -154.1,373.7 -273.8,373.7 -273.8,420.7 			"/>
		</g>
		<g>
			<path d="M-154,420.8h-119.9v-47.2H-154V420.8z M-273.6,420.5h119.4v-46.7h-119.4V420.5z"/>
		</g>
		<g>
			<polygon class="st2" points="-239.9,373.7 -231.9,376.3 -239.9,378.9 -231.9,381.5 -239.9,384.1 -231.9,386.7 -239.9,389.3 
				-231.9,391.9 -239.9,394.6 -231.9,397.2 -239.9,399.8 -231.9,402.4 -239.9,405 -231.9,407.6 -239.9,410.2 -231.9,412.8 
				-239.9,415.4 -231.9,418.1 -239.9,420.7 -273.8,420.7 -273.8,373.7 			"/>
		</g>
		<g>
			<path d="M-239.9,420.8h-34v-47.2l34,0l8.4,2.7l-8,2.6l8,2.6l-8,2.6l8,2.6l-8,2.6l8,2.6l-8,2.6l8,2.6l-8,2.6l8,2.6l-8,2.6l8,2.6
				l-8,2.6l8,2.6l-8,2.6l8,2.6L-239.9,420.8z M-273.6,420.5h33.7l7.6-2.5l-8-2.6l8-2.6l-8-2.6l8-2.6l-8-2.6l8-2.6l-8-2.6l8-2.6
				l-8-2.6l8-2.6l-8-2.6l8-2.6l-8-2.6l8-2.6l-8-2.6l8-2.6l-7.6-2.5h-33.7V420.5z"/>
		</g>
	</g>
</g>
</svg>
