<?xml version="1.0" encoding="utf-8"?>
<!-- Generator: Adobe Illustrator 19.0.0, SVG Export Plug-In . SVG Version: 6.00 Build 0)  -->
<svg version="1.1" id="Layer_1" xmlns="http://www.w3.org/2000/svg" xmlns:xlink="http://www.w3.org/1999/xlink" x="0px" y="0px"
	 viewBox="-269 374 72 46" style="enable-background:new -269 374 72 46;" xml:space="preserve">
<style type="text/css">
	.st0{clip-path:url(#SVGID_2_);}
	.st1{fill:#082984;}
	.st2{fill:#DE1818;}
	.st3{fill:#18945A;}
	.st4{fill:#EF7321;}
	.st5{fill:#FCFCFC;}
</style>
<g>
	<defs>
		<path id="SVGID_1_" d="M-204,420H-262c-3.8,0-7-3.1-7-7V381c0-3.8,3.1-7,7-7h58.1c3.8,0,7,3.1,7,7V413
			C-197,416.9-200.1,420-204,420z"/>
	</defs>
	<clipPath id="SVGID_2_">
		<use xlink:href="#SVGID_1_"  style="overflow:visible;"/>
	</clipPath>
	<g class="st0">
		<rect x="-269.7" y="373.2" class="st1" width="5.4" height="47.6"/>
		<rect x="-259.1" y="373.3" class="st2" width="5.4" height="47.6"/>
		<polygon class="st1" points="-222,397.1 -253.7,420.9 -253.7,373.3 		"/>
		<polyline class="st2" points="-190.9,373.2 -222,397.1 -190.9,420.8 		"/>
		<polyline class="st3" points="-253.7,420.9 -222,397.1 -190.9,420.8 		"/>
		<polyline class="st4" points="-190.9,373.2 -222,397.1 -253.7,373.3 		"/>
		<ellipse class="st5" cx="-222" cy="397.1" rx="11.5" ry="11.5"/>
		<rect x="-264.2" y="373.3" class="st5" width="5.4" height="47.6"/>
	</g>
</g>
</svg>
