<?xml version="1.0" encoding="utf-8"?>
<!-- Generator: Adobe Illustrator 19.0.0, SVG Export Plug-In . SVG Version: 6.00 Build 0)  -->
<svg version="1.1" id="Layer_1" xmlns="http://www.w3.org/2000/svg" xmlns:xlink="http://www.w3.org/1999/xlink" x="0px" y="0px"
	 viewBox="-269 374 72 46" style="enable-background:new -269 374 72 46;" xml:space="preserve">
<style type="text/css">
	.st0{clip-path:url(#SVGID_2_);}
	.st1{fill:#FFE247;}
	.st2{fill:#009E59;}
	.st3{fill:#E40520;}
</style>
<g>
	<defs>
		<path id="SVGID_1_" d="M-204,420H-262c-3.8,0-7-3.1-7-7V381c0-3.8,3.1-7,7-7h58.1c3.8,0,7,3.1,7,7V413
			C-197,416.9-200.1,420-204,420z"/>
	</defs>
	<clipPath id="SVGID_2_">
		<use xlink:href="#SVGID_1_"  style="overflow:visible;"/>
	</clipPath>
	<g class="st0">
		<g>
			<polygon class="st1" points="-245.2,420.8 -245.2,372.2 -220.8,372.2 -220.8,420.8 			"/>
		</g>
		<g>
			<path d="M-220.7,421h-24.6V372h24.6V421z M-245,420.7h24.1v-48.4H-245V420.7z"/>
		</g>
		<g>
			<polygon class="st2" points="-220.8,420.8 -220.8,372.2 -196.5,372.2 -196.5,420.8 			"/>
		</g>
		<g>
			<path d="M-196.4,421H-221V372h24.6V421z M-220.7,420.7h24.1v-48.4h-24.1V420.7z"/>
		</g>
		<g>
			<polygon class="st3" points="-269.5,420.8 -269.5,372.2 -245.2,372.2 -245.2,420.8 			"/>
		</g>
		<g>
			<path d="M-245,421h-24.6V372h24.6V421z M-269.4,420.7h24.1v-48.4h-24.1V420.7z"/>
		</g>
		<g>
			<path d="M-232.2,397.9c2.4-0.5,5.5-2.6,5.5-6.8c0-4.6-3-6.9-6.4-6.9s-7.7,0-7.7,0v6h3.2v-2.7c0,0,2.1,0,3.7,0
				c1.6,0,3.9,0.8,3.9,3.6c0,2.9-2.6,3.6-3.9,3.6c-1.4,0-3.7,0-3.7,0v-4.5h-3.2v18.5h3.2V398c0,0,0.6,0,1.6,0l7,10.7h3.9
				L-232.2,397.9L-232.2,397.9z"/>
		</g>
	</g>
</g>
</svg>
