<?xml version="1.0" encoding="utf-8"?>
<!-- Generator: Adobe Illustrator 19.0.0, SVG Export Plug-In . SVG Version: 6.00 Build 0)  -->
<svg version="1.1" id="Layer_1" xmlns="http://www.w3.org/2000/svg" xmlns:xlink="http://www.w3.org/1999/xlink" x="0px" y="0px"
	 viewBox="-269 374 72 46" style="enable-background:new -269 374 72 46;" xml:space="preserve">
<style type="text/css">
	.st0{clip-path:url(#SVGID_2_);}
	.st1{fill:#008E5A;}
	.st2{fill:none;stroke:#000000;stroke-width:0.25;}
	.st3{fill:#FFFFFF;}
</style>
<g>
	<defs>
		<path id="SVGID_1_" d="M-204,420H-262c-3.8,0-7-3.1-7-7V381c0-3.8,3.1-7,7-7h58.1c3.8,0,7,3.1,7,7V413
			C-197,416.9-200.1,420-204,420z"/>
	</defs>
	<clipPath id="SVGID_2_">
		<use xlink:href="#SVGID_1_"  style="overflow:visible;"/>
	</clipPath>
	<g class="st0">
		<g>
			<polygon class="st1" points="-195.7,421.4 -195.7,371.6 -270.3,371.6 -270.3,421.4 			"/>
		</g>
		<g>
			<path d="M-195.6,421.5h-74.8v-50h74.8V421.5z M-270.2,421.2h74.3v-49.5h-74.3V421.2z"/>
		</g>
		<g>
			<path class="st1" d="M-233,396.5"/>
		</g>
		<g>
			<path class="st2" d="M-233,396.5"/>
		</g>
		<g>
			<path class="st3" d="M-250.4,385.6c0.3-0.7,0.3-1.3,0-1.1c-0.2,0.2-0.4,0-0.2-0.2c0.2-0.3,0.6-0.4,0.6,0.1
				C-249.9,384.8-250.2,385.4-250.4,385.6L-250.4,385.6z"/>
		</g>
		<g>
			<path class="st3" d="M-248.3,389.5c0.1,0.9,0.3,2.6,0.3,3.1c0,0.6,0.1,0.4,0.2,0.1c0.2-0.3,0.1-0.7,0.1-1.1
				c0-0.5-0.1-1.3-0.2-2.4c0.2-0.2,0.4-0.4,0.5-0.6c0.2-0.4,0.2-0.3,0.3,0c0.2,0.6,0.8,1,1.5,0.4c0.7-0.5,0.4-1.6,0.1-2.8
				c0.3,0.1,0.4-0.2,0.2-0.5c-0.1-0.2-0.2-0.3-0.3-0.5c-0.1-0.1-0.3-0.3-0.4-0.1c-0.1,0.2-0.2,0.3-0.3,0.4c-0.1,0.1-0.1,0.2,0,0.4
				c0.3,0.7,0.5,1.4,0.5,1.9c0.1,0.4-0.1,0.5-0.4,0.5c-0.3,0-0.7-0.1-0.8-0.7c-0.1-0.6-0.2-0.9-0.2-1.3c0-0.4,0.1-0.7-0.2-1.1
				c-0.3-0.4-0.3-0.3-0.4-0.1c-0.1,0.2-0.2,0.5-0.1,0.9c0.1,0.5,0.2,1,0.3,1.3c0,0.2-0.2,0.7-0.5,0.9c-0.1-0.7-0.2-1.7-0.3-2.5
				c0.4-0.1,0.2-0.7-0.1-1.3c-0.3-0.5-0.4-0.3-0.5,0c-0.2,0.3,0,0.4,0.1,0.7c-0.1,0.2,0.1,0.5,0.1,1c0,0.4,0.1,1.4,0.2,2.2
				c-0.3,0-0.5-0.2-0.7-0.5c-0.3-0.6-0.2-1.2-0.1-1.6c0.1-0.4,0.2-0.9,0-1.1c-0.2-0.1-0.5,0-0.6,0.3c-0.3,0.5-0.6,1.1-0.6,1.8
				c0,0.3-0.1,0.8-0.2,1c-0.1,0.2-0.3,0.2-0.5-0.1c-0.3-0.5-0.4-1.7-0.4-2.3c0-0.3-0.1-0.4-0.2,0c-0.3,1.2,0.1,2.5,0.3,3
				c0.3,0.5,0.6,0.4,0.9,0c0.4-0.7,0.2-1.3,0.6-2.2c0.2-0.6,0.3-0.2,0.2,0.2C-249.7,387.9-249.7,389.5-248.3,389.5L-248.3,389.5z"/>
		</g>
		<g>
			<path class="st3" d="M-247.2,384.3c-0.1,0.2,0,0.5,0.1,0.6c0.1,0.2,0.4,0.2,0.5,0c0.1-0.1,0.1-0.2,0.2,0c0.1,0.2,0.3,0.1,0.4,0
				c0.1-0.1,0.1-0.3,0.1-0.4c-0.1-0.2-0.1-0.1-0.1,0.1c-0.1,0.3-0.4,0.2-0.4-0.2c0-0.4-0.1-0.2-0.2,0.1c-0.2,0.4-0.4,0.3-0.4,0
				C-247,384.2-247.1,384-247.2,384.3L-247.2,384.3z"/>
		</g>
		<g>
			<path class="st3" d="M-251.2,391.8c0.7-0.9,1.6-1.3,2.1-1.5c0.3-0.1,0.5-0.2,0.5,0.1c0,0.3,0,0.3-0.3,0.4
				c-0.6,0.2-1.8,0.8-2.2,1.1C-251.3,392-251.5,392.1-251.2,391.8L-251.2,391.8z"/>
		</g>
		<g>
			<path class="st3" d="M-250.7,393.4c0,0.2,0,0.4,0,0.5c0,0.2-0.1,0.3-0.2,0.6c-0.3,1.1,0.2,1.6,0.4,1.2c0.2-0.4,0.4-0.3,0.3,0
				c0,1.1-1.1,1.1-1.1,0.3c-0.1-1.4,0.2-1.6,0.3-2.1C-250.9,393.4-250.8,393.2-250.7,393.4L-250.7,393.4z"/>
		</g>
		<g>
			<path class="st3" d="M-245.5,391.2c-0.1,0-0.2,0.1-0.3,0.1c-0.4,0.1-0.5,0-0.5-0.3s0.1-0.4,0.4-0.2
				C-245.8,390.8-245.6,391-245.5,391.2l0.7-0.3c-0.1-0.3-0.3-0.5-0.6-0.8c-0.4-0.4-0.8-0.5-1.2,0.1c-0.4,0.5-0.3,0.6-0.3,1.1
				c0,0.5-0.1,0.6,0.3,0.8c0.4,0.1,0.5,0.1,0.7,0c0.2-0.1,0.4-0.1,0.7-0.2c0,0.3,0,0.5-0.1,0.7c-0.9,1.1-2.3,1.9-3,1.2
				c-0.3-0.4-0.5-1-0.4-1.8c0.1-0.6-0.1-0.3-0.2-0.1c-0.2,0.7-0.3,1.8,0,2.3c0.4,0.7,1.1,1.1,2.2,0.6c1.1-0.5,2.1-1.3,2.1-2.5
				c0-0.2,0-0.4,0-0.6c0.1,0,0.3-0.2,0.4-0.2c0,0.4,0,0.9,0,1.3c0,1.3-0.4,1.6-0.9,2c-0.6,0.5-1.5,0.8-2.2,0.9
				c-1.7,0.2-2.1-0.8-2.1-2.3c0-0.2,0.1-0.4,0.1-0.7c0-0.6-0.1-0.5-0.3,0.1c-0.2,0.6-0.4,2,0.2,3.1c0.6,1.1,2.6,0.8,4.2,0.1
				c1.6-0.7,1.7-2.2,1.7-3.6c0-0.4,0-0.8-0.1-1.2c0,0,0.1-0.1,0.1-0.1c0.2,0.7,1.3,0.5,1.6,0.1c0.2-0.2,0.2-0.2,0.3,0
				c0.2,0.3,1,0.4,1.2,0c0.2-0.5,0.2-0.9,0.1-1.3c0-0.4-0.1-0.3-0.4-0.1c-0.2,0.2,0,0.2,0,0.5c0.1,0.9-0.7,0.9-0.8-0.1
				c-0.1-0.6-0.2-0.4-0.2-0.1c-0.4,1.2-1.4,1.4-1.3,0c0-0.4-0.2-0.3-0.4-0.1c-0.1,0.1-0.2,0.2-0.3,0.3c-0.1-1.1-0.2-2.3-0.3-3.8
				c0.3,0.4,0.6-0.1,0.4-0.5c-0.2-0.3-0.4-1.1-0.5-1.5c-0.1-0.4-0.2-0.3-0.5,0.1c-0.3,0.3-0.2,0.4-0.1,0.8c0,0.4,0,0.9,0.1,1.7
				c0.1,0.6,0.3,1.9,0.4,3.5c-0.2,0.1-0.4,0.2-0.5,0.3L-245.5,391.2L-245.5,391.2z"/>
		</g>
		<g>
			<path class="st3" d="M-241.9,392.9c0.1,0.2,0,0.6,0,0.8c-0.1,0.2,0,0.3,0.2,0c0.2-0.3,0.2-0.6,0.2-1c0-0.3,0-0.3-0.3-0.4
				c-0.2-0.1-0.3,0.1-0.4,0.3C-242.4,392.8-242.3,393.1-241.9,392.9L-241.9,392.9z"/>
		</g>
		<g>
			<path class="st3" d="M-241.3,387.5c-0.3,0.4-0.5,0.9-0.1,1.3c0.2,0.2,0.7,0,0.9-0.4c0.2-0.4,0.1-0.4-0.2-0.1
				c-0.4,0.5-0.8,0-0.4-0.6C-240.8,387.2-240.9,387.1-241.3,387.5L-241.3,387.5z"/>
		</g>
		<g>
			<path class="st3" d="M-240.6,385.3c0.1-0.1,0.1-0.2,0.1-0.3c0-0.1-0.1-0.3-0.2-0.1C-240.7,385-240.8,385.2-240.6,385.3l-0.3,0.5
				c-0.3-0.3-0.3-0.7-0.2-1c0.3-0.8,1.3-0.7,1,0.3c0,0.2-0.1,0.3-0.2,0.5c0.1,0.2,0.1,0.5-0.2,0.4c-0.3,0.5-0.9,1.1-2,1.6
				c-0.5,0.2-0.6,0-0.2-0.2c0.7-0.5,1.4-1,1.8-1.6L-240.6,385.3L-240.6,385.3z"/>
		</g>
		<g>
			<path class="st3" d="M-239.5,385.4c-0.4,1.1-0.4,2.2,0.4,3.1c0.5,0.5,0.8,0.3,1-0.3c0.2-0.6,0.3-1.1,0.5-1.5
				c0.2-0.4,0.3-0.3,0.2,0.1c-0.1,0.7-0.1,1.8,0.6,2.2s1.8-0.3,2.1-1c1.1,1.5,2.1,0.8,2.2-0.6c0-0.4-0.2-1.4-0.3-1.7
				c-0.1-0.3,0-0.3,0.1-0.1c0.2,0.2,0.5,0.3,0.3-0.2c-0.2-0.5-0.4-0.8-0.6-1c-0.3-0.2-0.3-0.1-0.4,0.1c-0.1,0.2-0.1,0.2-0.2,0.4
				c-0.1,0.1-0.1,0.2,0,0.5c0.4,1.1,0.8,2.7,0.2,2.8c-0.6,0.1-1-1.2-1-1.8c0-0.8-0.1-1.5-0.3-1.9c-0.2-0.4-0.2-0.5-0.3-0.3
				c-0.1,0.2-0.1,0.3-0.2,0.5c-0.1,0.2,0,0.2,0.1,0.6c0.4,1.8,0.3,2.5-0.5,3c-0.8,0.5-1.2,0-1.2-0.5c0-0.6,0-1.2,0-1.7
				c0.1-0.5,0.2-0.6,0-0.8c-0.2-0.3-0.3-0.2-0.5,0.2c-0.5,0.7-1,1.9-1.2,2.4c-0.2,0.6-0.5,0.4-0.8-0.1c-0.3-0.6-0.2-1.6-0.2-2
				C-239.2,385.1-239.3,384.9-239.5,385.4L-239.5,385.4z"/>
		</g>
		<g>
			<path class="st3" d="M-236.1,384.4c-0.2,0.2-0.2,0.2,0,0.4c0.1,0.2,0.4,0.7,0.3,1.3c0,0.3,0,0.5,0.1,0.1c0.1-0.5,0.1-1.1,0-1.4
				C-235.8,384.3-236,384.3-236.1,384.4L-236.1,384.4z"/>
		</g>
		<g>
			<path class="st3" d="M-232.5,390.8c0.2,0,0.4-0.1,0.5-0.1c0.5-0.1,0.2-0.2-0.1-0.4c-0.4-0.2-0.5-0.2-0.5,0
				C-232.5,390.5-232.5,390.6-232.5,390.8l-0.7,0.2c-0.4-0.6-0.1-1.1,0.2-1.5c0.4-0.6,1-0.4,1.8,0.1c0.7,0.5,0.4,1.3-0.3,1.8
				c-0.2,0.1-0.4,0.2-0.7,0.3c0.1,0.2,0,0.2-0.3,0.1c-0.6,0.2-1.5,0.5-2.1,0.9c0.7,0.1,3.7,0,4.3-0.1c0.6-0.1,0.5,0,0.3,0.6
				c-0.2,0.5-0.4,0.5-0.9,0.5c-0.8,0.1-1.9,0.5-2.8,0.8c-0.8,0.4-0.6,1,0.3,1.3c0.7,0.2,0.6,0.3,0.5,0.6c-0.1,0.4-0.1,0.5-0.9,0.3
				c-2-0.3-2.7-1.4-3.1-2.3c-1.3,1.8-2.5,2.7-3.6,2.4c-0.6-0.1-0.9-0.7-0.9-1.3c-0.8,0.4-1.7,0.7-2.9,1.1c-0.3,0.1-0.5,0-0.1-0.2
				c0.8-0.4,2.1-1.1,3.1-1.8c0.1-0.5,0.3-1.1,0.5-1.5c0.1-0.3,0.2-0.2,0.2,0.1c0,0.2-0.1,0.6,0,1c0.2-0.1,0.4-0.3,0.6-0.4
				c0.7-0.6,1.5-1,0.9-2c-0.2-0.4-0.4-0.7-0.5-1c-0.4-0.2-0.3-0.4-0.1-0.8s0.3-0.5,0.7-0.1c0.6,0.7,0.6,1,0.2,0.9
				c0.6,1.6,0.5,2.4-0.5,3.4c-0.5,0.5-0.9,0.8-1.5,1.1c-0.1,0.4,0.1,0.8,0.9,0.7c1-0.2,2.2-1.5,2.7-2.6c-0.2-0.9-0.7-2.4-1-3.2
				c-0.2-0.4,0-0.6,0.1-0.9c0.1-0.3,0.2-0.5,0.4-0.1c0.2,0.4,0.7,1.5,1,2.8c0.3,1.3,0.2,2.4,0.9,3c0.3,0.3,0.7,0.4,1.1,0.5
				c-0.3-0.9,0.3-1.5,1.2-1.8c-0.5-0.5-1.3-0.4-2.1-0.4c-0.7,0-0.6-0.1-0.4-0.7c0.2-0.6,0.4-0.7,0.9-0.8c0.6-0.3,1.3-0.5,1.9-0.7
				L-232.5,390.8L-232.5,390.8z"/>
		</g>
		<g>
			<path class="st3" d="M-235.4,389.8c-0.1,0.3,0,0.6,0.2,0.7c0.1,0.2,0.4,0.1,0.4,0c0.1-0.2,0.1-0.3,0.3-0.1c0.2,0.2,0.7,0,0.5-0.8
				c-0.1-0.4-0.2-0.3-0.2,0.1c0,0.6-0.2,0.6-0.4,0c-0.1-0.2-0.2-0.2-0.2,0.1c0,0.6-0.3,0.6-0.4,0.1
				C-235.3,389.6-235.3,389.5-235.4,389.8L-235.4,389.8z"/>
		</g>
		<g>
			<path class="st3" d="M-228,384.4c-0.1,0.2-0.2,0.3,0,0.5c0.2,0.1,0.5,0.5,0.4,1c-0.1,0.3,0,0.6,0.2,0.1c0.2-0.5,0-1.1-0.2-1.5
				C-227.8,384.1-227.9,384.2-228,384.4L-228,384.4z"/>
		</g>
		<g>
			<path class="st3" d="M-226.1,393.5c-0.2-1.1-1.2-2.9-2.7-5.2c0-0.6-0.1-1.2-0.1-1.7c0.2,0.2,0.4,0.1,0.3-0.2
				c-0.2-0.6-0.4-1.1-0.6-1.7c-0.1-0.3-0.4-0.3-0.5,0.1c-0.2,0.5-0.2,0.6,0,0.9c0,0.4,0.1,1,0.1,1.5c-0.3-0.4-0.6-0.9-0.9-1.3
				c0.4,0.2,0.7,0,0.3-0.4c-0.4-0.4-0.9-0.8-1.2-1.1c-0.3-0.3-0.5-0.1-0.4,0.2c0,0.3,0,0.5,0,0.7c0,0.2,0,0.4,0.4,0.5
				c0.6,0.9,1.3,1.7,1.9,2.6c0.1,0.8,0.2,1.6,0.3,2.2c0.2,1.6,0.5,3.7,0.2,4.6c-0.2,0.7,0,1,0.3-0.1c0.3-1,0.3-2,0.1-3.5
				c-0.1-0.6-0.1-1.3-0.2-2c1,1.6,2,3.2,2.4,4.2C-226.2,394.2-226,394.3-226.1,393.5L-226.1,393.5z"/>
		</g>
		<g>
			<path class="st3" d="M-227.8,387.2c0.1,0.3,0.2,0.4,0.3,0.1c0.1-0.3,0.2-0.4,0.2-0.1c0.1,0.3,0.3,0.3,0.3,0s0.2-0.5,0.2-0.1
				s0,0.5,0,0.6c0,0.1-0.2,0.2-0.4,0.1c-0.2-0.2-0.2-0.2-0.3,0c-0.3,0.3-0.4,0.1-0.4-0.3C-228,387.1-227.9,387-227.8,387.2
				L-227.8,387.2z"/>
		</g>
		<g>
			<path class="st3" d="M-231.8,395.7c0.3-0.2,0.4-0.3,0.6-0.4c0.2-0.1,0.3-0.1,0.2,0.4c-0.2,0.5-0.1,0.6,0.2,0.5
				c0.3-0.1,0.5-0.2,0.7-0.3c0.2-0.1,0.5-0.1,0.1,0.2c-0.3,0.2-0.7,0.5-0.9,0.6c-0.5,0.1-0.7-0.1-0.7-0.5c0.1-0.4,0.2-0.5-0.1-0.4
				C-232,395.9-231.9,395.7-231.8,395.7L-231.8,395.7z"/>
		</g>
		<g>
			<path class="st3" d="M-225.6,386.2c0.2,0.2,0.4,0.2,0.3-0.2c-0.1-0.4-0.2-0.8-0.3-1.2c-0.1-0.4-0.2-0.5-0.4-0.3
				c-0.2,0.2-0.3,0.3-0.4,0.4c-0.1,0.1-0.1,0.4,0,0.6c0.5,3.8,0.6,5.4,0.6,6.8c0.1,1.4,0.3,2-0.6,3c-0.9,1-1.5,1.3-1.9,1.4
				c-0.5,0.1-0.7,0.4,0.1,0.3c1.2-0.1,1.3-0.1,2.3-1.2c0.5-0.6,0.8-1.4,0.8-3.2C-225.2,389.3-225.6,387.9-225.6,386.2L-225.6,386.2z
				"/>
		</g>
		<g>
			<path class="st3" d="M-223.8,386.3c0.3,0.2,0.7,0.3,0.4-0.1c-0.3-0.4-0.5-1.1-0.7-1.6c-0.2-0.5-0.2-0.5-0.5,0
				c-0.4,0.6-0.1,1.3,0,2c0.4,2.7,0.7,5.4,0.8,6.1c0.1,0.8,0.2,1.3,0,2.2c-0.1,0.3,0,0.3,0.2,0c0.7-1.3,0.2-2.5,0.1-3.2
				C-223.4,390.5-223.8,387.4-223.8,386.3"/>
		</g>
		<g>
			<path class="st3" d="M-222.1,388.3c-0.1,0.2-0.4,0.2-0.3,0c0-0.2,0-0.2,0-0.4c0-0.2,0.2-0.3,0.4-0.1c0.1,0.2,0.4,0.7,0.5,0.9
				c0.1,0.2,0.1,0.2,0.1-0.1c0-0.3-0.1-0.6,0-0.8c0-0.1,0.1-0.3,0.3-0.4c0.2-0.1,0.3-0.2,0.3,0.1c0.1,0.2,0.2,0.2,0.1,0.4
				c-0.1,0.2-0.3-0.3-0.5,0.1c-0.1,0.3,0,1,0,1.2c0,0.2-0.1,0.6-0.3,0.2C-221.7,389-221.9,388.5-222.1,388.3L-222.1,388.3z"/>
		</g>
		<g>
			<path class="st3" d="M-222.2,391.3c0-0.2,0.1-0.2,0.4-0.5c0.2-0.2,0.9-0.7,1.2-0.9c0.2-0.2,0.4-0.4,0.4-0.1
				c0,0.3,0.1,0.4-0.2,0.5c-0.3,0.1-1,0.6-1.2,0.8C-221.9,391.3-222.2,391.5-222.2,391.3L-222.2,391.3z"/>
		</g>
		<g>
			<path class="st3" d="M-215.4,393.3c0-0.4-0.1-0.7-0.6-1.4c-0.4-0.6-0.8-1.3-1.2-1.8c-0.1-1.5-0.3-3.1-0.3-3.9
				c0.2,0.2,0.4,0,0.3-0.3c-0.1-0.3-0.3-1.2-0.4-1.6c-0.1-0.4-0.3-0.3-0.5,0c-0.2,0.3-0.3,0.5-0.2,0.7c0.1,1.4,0.3,2.8,0.5,4.1
				c-0.4-0.6-0.8-1.1-1.1-1.6c0-0.6-0.1-1.1-0.1-1.7c0.2,0.2,0.3,0.1,0.2-0.2c-0.1-0.3-0.4-1.1-0.5-1.4c-0.1-0.3-0.2-0.3-0.4-0.1
				c-0.3,0.4-0.3,0.7-0.1,1.1c0,0.4,0.1,0.7,0.1,1.1c-0.2-0.3-0.4-0.6-0.6-0.9c0.2,0.1,0.4-0.1,0.2-0.3c-0.2-0.2-0.7-0.6-0.9-0.9
				c-0.2-0.3-0.4-0.3-0.4,0c0,0.2,0,0.5,0,0.7c0,0.2,0,0.4,0.3,0.8c0.6,0.7,1.1,1.4,1.6,2.1c0.2,2.5,0.3,4.1,0.3,5.1
				c0,0.6-0.2,0.9-0.6,1c-0.3,0.1-0.6-0.1-0.9-0.6c-0.5-0.8-0.7-0.6-1.2,0c-0.4,0.7-0.7,1.2-0.9,1.7s-0.6,0.8-0.9,0.3
				c-0.3-0.6-0.3-1.3-0.3-1.7c0-0.5-0.1-0.9-0.2-0.1c-0.4,1.8-0.2,2.2,0.3,2.6c0.6,0.5,0.8,0.6,1.2,0.1c0.6-0.9,0.8-1.7,1.2-2.1
				c0.3-0.3,0.3-0.1,0.4,0.1c0.4,0.5,0.7,0.6,1.2,0.7c0.5,0.1,1.5-0.3,1.4-2.1c0-1-0.1-2.5-0.2-4c0.5,0.7,0.9,1.3,1.3,1.8
				c0.2,1,0.3,1.9,0.2,2.6c-0.1,0.8,0.1,0.8,0.3,0c0.1-0.3,0-1.1,0-1.9c0.7,0.9,1.1,1.5,1.3,1.9
				C-215.5,393.9-215.3,394.4-215.4,393.3L-215.4,393.3z"/>
		</g>
		<g>
			<path class="st3" d="M-216.8,385.1c-0.1,0.2-0.1,0.3,0,0.6c0.2,0.3,0.3,0.8,0.3,1.3c0,0.4,0.1,0.4,0.2,0c0.1-0.4,0.1-1.1-0.2-1.7
				C-216.6,384.7-216.7,384.9-216.8,385.1L-216.8,385.1z"/>
		</g>
		<g>
			<path class="st3" d="M-214.8,385.9c0.3,0.3,0.4,0.2,0.2-0.2c-0.2-0.4-0.4-0.9-0.6-1.3c-0.2-0.4-0.2-0.3-0.5,0
				c-0.2,0.3-0.3,0.5-0.2,0.7c0.5,4,0.7,6,0.8,7.2c0.1,1.7-0.3,2.7-2,3.8c-0.6,0.4-1.2,0.8,0.1,0.5c1.3-0.3,2.7-1.2,2.6-4.8
				C-214.5,388.5-214.9,387.1-214.8,385.9L-214.8,385.9z"/>
		</g>
		<g>
			<path class="st3" d="M-218.3,395.3c-0.1,0.3-0.6,0.1-0.4-0.2c0.2-0.2,0.5-0.2,0.7-0.1c0.4,0.5-0.2,1.1-0.5,1.3
				c-0.3,0.2-0.5,0.2-0.1-0.2C-218.3,396-218.2,395.6-218.3,395.3L-218.3,395.3z"/>
		</g>
		<g>
			<path class="st3" d="M-246.9,406.6c8.3,0.1,18.1,0.2,26.5,0c0.9,0,1.3,0.1,1.4,0.9c0.1,0.7-0.1,1.2-0.6,1.2
				c-0.4,0-0.8-0.4-0.6-1.2c-10.6,0.3-18.4,0.3-20.9,0.3C-243.6,407.8-246.1,407.9-246.9,406.6L-246.9,406.6z"/>
		</g>
		<g>
			<path class="st3" d="M-221.4,408.2c0-0.1-0.2-0.2-0.3-0.2c-0.1,0-0.3,0.1-0.3,0.2l-1.1,0c0-0.1-0.1-0.2-0.2-0.3l0-1.6
				c0.3-0.4,0.3-0.4,0-0.7c-0.1-0.2-0.2-0.3-0.4,0c-0.2,0.3-0.3,0.4,0.1,0.7l0,1.6c-0.3,0.4-0.3,0.4,0,0.7c0.2,0.3,0.3,0.2,0.4,0
				c0-0.1,0.1-0.1,0.1-0.2l1.2,0c0,0.1,0.2,0.2,0.3,0.2c0.1,0,0.3-0.1,0.3-0.2l1.7,0l0-0.3L-221.4,408.2L-221.4,408.2z"/>
		</g>
	</g>
</g>
</svg>
