<?xml version="1.0" encoding="utf-8"?>
<!-- Generator: Adobe Illustrator 19.0.0, SVG Export Plug-In . SVG Version: 6.00 Build 0)  -->
<svg version="1.1" id="Layer_1" xmlns="http://www.w3.org/2000/svg" xmlns:xlink="http://www.w3.org/1999/xlink" x="0px" y="0px"
	 viewBox="-269 374 72 46" style="enable-background:new -269 374 72 46;" xml:space="preserve">
<style type="text/css">
	.st0{clip-path:url(#SVGID_2_);}
	.st1{fill:#0072BB;}
	.st2{fill:#00684E;}
	.st3{fill:#FFE247;}
	.st4{fill:#FFFFFF;}
</style>
<g>
	<defs>
		<path id="SVGID_1_" d="M-204,420H-262c-3.8,0-7-3.1-7-7V381c0-3.8,3.1-7,7-7h58.1c3.8,0,7,3.1,7,7V413
			C-197,416.9-200.1,420-204,420z"/>
	</defs>
	<clipPath id="SVGID_2_">
		<use xlink:href="#SVGID_1_"  style="overflow:visible;"/>
	</clipPath>
	<g class="st0">
		<g>
			<polygon class="st1" points="-172.4,421.5 -172.4,372.8 -269.8,372.8 -269.8,421.5 			"/>
		</g>
		<g>
			<path d="M-172.2,421.6H-270v-49h97.7V421.6z M-269.7,421.4h97.2v-48.5h-97.2V421.4z"/>
		</g>
		<g>
			<polygon class="st1" points="-172.4,372.8 -269.8,372.8 -269.8,421.5 			"/>
		</g>
		<g>
			<path d="M-269.8,421.6l-0.2-0.1v-48.7l0.1-0.1h97.5l0.1,0.2L-269.8,421.6z M-269.7,372.9v48.4l96.8-48.4H-269.7z"/>
		</g>
		<g>
			<polygon class="st2" points="-269.8,421.5 -172.4,421.5 -172.4,372.8 			"/>
		</g>
		<g>
			<path d="M-172.4,421.6h-97.5l-0.1-0.2l97.5-48.7l0.2,0.1v48.7L-172.4,421.6z M-269.3,421.4h96.8V373L-269.3,421.4z"/>
		</g>
		<g>
			<polygon class="st3" points="-172.4,375.2 -264.9,421.5 -269.8,421.5 -269.8,419 -177.4,372.8 -172.4,372.8 			"/>
		</g>
		<g>
			<path d="M-264.9,421.6h-5l-0.1-0.1V419l0.1-0.1l92.5-46.3l0.1,0h5l0.1,0.1v2.4l-0.1,0.1L-264.9,421.6L-264.9,421.6z
				 M-269.7,421.4h4.8l92.4-46.2v-2.2h-4.8l-92.4,46.2V421.4z"/>
		</g>
		<g>
			<polygon class="st4" points="-252.9,383.2 -254,386.5 -257.5,386.5 -254.6,388.5 -255.7,391.9 -252.9,389.8 -250.1,391.9 
				-251.1,388.5 -248.3,386.5 -251.8,386.5 			"/>
		</g>
		<g>
			<path d="M-255.8,392l1.1-3.5l-3-2.2h3.7l1.1-3.5l0.1,0.2l1.1,3.3h3.7l-3,2.1l1.1,3.5l-2.9-2.2L-255.8,392z M-252.9,389.7
				L-252.9,389.7l2.7,2l-1-3.2l0,0l2.7-1.9h-3.4l0,0l-1-3.2l-1,3.2h-3.4l2.7,2l0,0l-1,3.1L-252.9,389.7z"/>
		</g>
		<g>
			<polygon class="st4" points="-263.1,390.5 -264.1,393.9 -267.7,393.9 -264.8,395.9 -265.9,399.2 -263.1,397.2 -260.2,399.2 
				-261.3,395.9 -258.5,393.9 -262,393.9 			"/>
		</g>
		<g>
			<path d="M-266,399.4l1.1-3.5l-3-2.2h3.7l1.1-3.5l0.1,0.2l1.1,3.3h3.7l-3,2.1l1.1,3.5l-2.9-2.2L-266,399.4z M-263.1,397.1
				L-263.1,397.1l2.7,2l-1-3.2l0,0l2.7-1.9h-3.4l0,0l-1-3.2l-1,3.2h-3.4l2.7,2l0,0l-1,3.1L-263.1,397.1z"/>
		</g>
		<g>
			<polygon class="st4" points="-263.1,375.7 -264.1,379 -267.7,379 -264.8,381.1 -265.9,384.4 -263.1,382.3 -260.2,384.4 
				-261.3,381 -258.5,379 -262,379 			"/>
		</g>
		<g>
			<path d="M-266,384.5l1.1-3.5l-3-2.2h3.7l1.1-3.5l0.1,0.2l1.1,3.3h3.7l-3,2.1l1.1,3.5l-2.9-2.2L-266,384.5z M-263.1,382.2
				L-263.1,382.2l2.7,2l-1-3.2l0,0l2.7-1.9h-3.4l0,0l-1-3.2l-1,3.2h-3.4l2.7,2l0,0l-1,3.1L-263.1,382.2z"/>
		</g>
		<g>
			<polygon class="st4" points="-242.7,390.5 -241.6,393.9 -238.1,393.9 -241,395.9 -239.9,399.2 -242.7,397.2 -245.5,399.2 
				-244.5,395.9 -247.3,393.9 -243.8,393.9 			"/>
		</g>
		<g>
			<path d="M-239.8,399.4l-2.9-2.2l-2.9,2.2l1.1-3.5l-3-2.1h3.7l1.1-3.5l1.1,3.5h3.7l-3,2.2L-239.8,399.4z M-247.1,393.9l2.7,1.9
				l-1,3.2l2.7-2l2.7,2l-1.1-3.2l2.7-2h-3.4l0,0l-1-3.1l-1,3.2H-247.1z"/>
		</g>
		<g>
			<polygon class="st4" points="-242.7,375.7 -241.6,379 -238.1,379 -241,381.1 -239.9,384.4 -242.7,382.3 -245.5,384.4 -244.5,381 
				-247.3,379 -243.8,379 			"/>
		</g>
		<g>
			<path d="M-239.8,384.5l-2.9-2.2l-2.9,2.2l1.1-3.5l-3-2.1h3.7l1.1-3.5l1.1,3.5h3.7l-3,2.2L-239.8,384.5z M-247.1,379.1l2.7,1.9
				l-1,3.2l2.7-2l2.7,2l-1.1-3.2l2.7-2h-3.4l0,0l-1-3.1l-1,3.2H-247.1z"/>
		</g>
	</g>
</g>
</svg>
