<?xml version="1.0" encoding="utf-8"?>
<!-- Generator: Adobe Illustrator 19.0.0, SVG Export Plug-In . SVG Version: 6.00 Build 0)  -->
<svg version="1.1" id="Layer_1" xmlns="http://www.w3.org/2000/svg" xmlns:xlink="http://www.w3.org/1999/xlink" x="0px" y="0px"
	 viewBox="-269 374 72 46" style="enable-background:new -269 374 72 46;" xml:space="preserve">
<style type="text/css">
	.st0{clip-path:url(#SVGID_2_);}
	.st1{fill:#FFD239;}
	.st2{fill:#FFFFFF;}
	.st3{fill:#E52713;}
	.st4{fill:#005597;}
	.st5{fill:#007A3E;}
</style>
<g>
	<defs>
		<path id="SVGID_1_" d="M-204,420H-262c-3.8,0-7-3.1-7-7V381c0-3.8,3.1-7,7-7h58.1c3.8,0,7,3.1,7,7V413
			C-197,416.9-200.1,420-204,420z"/>
	</defs>
	<clipPath id="SVGID_2_">
		<use xlink:href="#SVGID_1_"  style="overflow:visible;"/>
	</clipPath>
	<g class="st0">
		<g>
			<polygon class="st1" points="-270.1,421.2 -205.6,372.8 -237.8,372.8 			"/>
		</g>
		<g>
			<path d="M-269.9,421.4l-0.4-0.3l32.3-48.4l0.2-0.1h32.3l0.2,0.5L-269.9,421.4z M-237.7,373.1l-31.4,47.1l62.7-47.1H-237.7z"/>
		</g>
		<g>
			<polygon class="st2" points="-270.1,421.2 -173.3,405.1 -173.3,388.9 			"/>
		</g>
		<g>
			<path d="M-270,421.4l-0.1-0.5l96.8-32.3l0.3,0.2v16.1l-0.2,0.2L-270,421.4z M-173.6,389.3l-93.4,31.1l93.4-15.6V389.3z"/>
		</g>
		<g>
			<polygon class="st3" points="-173.3,388.9 -270.1,421.2 -205.6,372.8 -173.3,372.8 			"/>
		</g>
		<g>
			<path d="M-270,421.4l-0.2-0.4l64.5-48.4l0.2,0h32.3l0.3,0.3v16.1l-0.2,0.2L-270,421.4z M-205.5,373.1l-63.2,47.4l95.1-31.7v-15.7
				H-205.5z"/>
		</g>
		<g>
			<polygon class="st4" points="-237.8,372.8 -270.1,421.2 -270.1,372.8 			"/>
		</g>
		<g>
			<path d="M-269.9,421.3l-0.5-0.1v-48.4l0.3-0.3h32.3l0.2,0.4L-269.9,421.3z M-269.8,373.1v47.3l31.5-47.3H-269.8z"/>
		</g>
		<g>
			<polygon class="st5" points="-270.1,421.2 -173.3,405.1 -173.3,421.2 			"/>
		</g>
		<g>
			<path d="M-173.3,421.4h-96.8l0-0.5l96.8-16.1l0.3,0.2v16.1L-173.3,421.4z M-267.1,420.9h93.5v-15.6L-267.1,420.9z"/>
		</g>
		<g>
			<path d="M-173.1,421.4h-97.3v-48.9h97.3V421.4z M-269.8,420.9h96.3v-47.9h-96.3V420.9z"/>
		</g>
	</g>
</g>
</svg>
