<?xml version="1.0" encoding="utf-8"?>
<!-- Generator: Adobe Illustrator 19.0.0, SVG Export Plug-In . SVG Version: 6.00 Build 0)  -->
<svg version="1.1" id="Layer_1" xmlns="http://www.w3.org/2000/svg" xmlns:xlink="http://www.w3.org/1999/xlink" x="0px" y="0px"
	 viewBox="-269 374 72 46" style="enable-background:new -269 374 72 46;" xml:space="preserve">
<style type="text/css">
	.st0{clip-path:url(#SVGID_2_);}
	.st1{fill:#0069A8;}
	.st2{fill:#FFCB00;}
</style>
<g>
	<defs>
		<path id="SVGID_1_" d="M-204,420H-262c-3.8,0-7-3.1-7-7V381c0-3.8,3.1-7,7-7h58.1c3.8,0,7,3.1,7,7V413
			C-197,416.9-200.1,420-204,420z"/>
	</defs>
	<clipPath id="SVGID_2_">
		<use xlink:href="#SVGID_1_"  style="overflow:visible;"/>
	</clipPath>
	<g class="st0">
		<rect x="-270.8" y="373.4" class="st1" width="75.7" height="47.3"/>
		<polygon class="st2" points="-247.2,373.4 -247.2,392.3 -270.8,392.3 -270.8,401.7 -247.2,401.7 -247.2,420.6 -237.7,420.6 
			-237.7,401.7 -195.2,401.7 -195.2,392.3 -237.7,392.3 -237.7,373.4 		"/>
	</g>
</g>
</svg>
