<?xml version="1.0" encoding="utf-8"?>
<!-- Generator: Adobe Illustrator 19.0.0, SVG Export Plug-In . SVG Version: 6.00 Build 0)  -->
<svg version="1.1" id="Layer_1" xmlns="http://www.w3.org/2000/svg" xmlns:xlink="http://www.w3.org/1999/xlink" x="0px" y="0px"
	 viewBox="-269 374 72 46" style="enable-background:new -269 374 72 46;" xml:space="preserve">
<style type="text/css">
	.st0{clip-path:url(#SVGID_2_);}
	.st1{clip-path:url(#SVGID_6_);}
	.st2{clip-path:url(#SVGID_7_);}
	.st3{clip-path:url(#SVGID_8_);fill:#ED2939;}
	.st4{clip-path:url(#SVGID_8_);fill:#FFFFFF;}
	.st5{clip-path:url(#SVGID_8_);}
	.st6{clip-path:url(#SVGID_16_);}
	.st7{clip-path:url(#SVGID_17_);}
	.st8{clip-path:url(#SVGID_18_);}
	.st9{clip-path:url(#SVGID_19_);}
	.st10{clip-path:url(#SVGID_20_);}
	.st11{clip-path:url(#SVGID_21_);}
	.st12{clip-path:url(#SVGID_22_);fill:#FFFFFF;}
	.st13{clip-path:url(#SVGID_22_);fill:#ED2939;}
</style>
<g>
	<defs>
		<path id="SVGID_1_" d="M-204,420H-262c-3.8,0-7-3.1-7-7V381c0-3.8,3.1-7,7-7h58.1c3.8,0,7,3.1,7,7V413
			C-197,416.9-200.1,420-204,420z"/>
	</defs>
	<clipPath id="SVGID_2_">
		<use xlink:href="#SVGID_1_"  style="overflow:visible;"/>
	</clipPath>
	<g class="st0">
		<g>
			<g>
				<defs>
					<rect id="SVGID_3_" x="-270.1" y="372.2" width="73.2" height="48.8"/>
				</defs>
				<defs>
					<rect id="SVGID_4_" x="-270.1" y="372.2" width="73.2" height="48.8"/>
				</defs>
				<defs>
					<rect id="SVGID_5_" x="-270.1" y="372.2" width="73.2" height="48.8"/>
				</defs>
				<clipPath id="SVGID_6_">
					<use xlink:href="#SVGID_3_"  style="overflow:visible;"/>
				</clipPath>
				<clipPath id="SVGID_7_" class="st1">
					<use xlink:href="#SVGID_4_"  style="overflow:visible;"/>
				</clipPath>
				<clipPath id="SVGID_8_" class="st2">
					<use xlink:href="#SVGID_5_"  style="overflow:visible;"/>
				</clipPath>
				<rect x="-270.1" y="372.2" class="st3" width="73.2" height="24.4"/>
				<rect x="-270.1" y="396.6" class="st4" width="73.2" height="24.4"/>
				<g class="st5">
					<g>
						<defs>
							<rect id="SVGID_9_" x="-270.1" y="372.2" width="73.2" height="48.8"/>
						</defs>
						<defs>
							<rect id="SVGID_10_" x="-270.1" y="372.2" width="73.2" height="48.8"/>
						</defs>
						<defs>
							<rect id="SVGID_11_" x="-270.1" y="372.2" width="73.2" height="48.8"/>
						</defs>
						<defs>
							<rect id="SVGID_12_" x="-270.1" y="372.2" width="73.2" height="48.8"/>
						</defs>
						<defs>
							<rect id="SVGID_13_" x="-270.1" y="372.2" width="73.2" height="48.8"/>
						</defs>
						<defs>
							<rect id="SVGID_14_" x="-270.1" y="372.2" width="73.2" height="48.8"/>
						</defs>
						<defs>
							<rect id="SVGID_15_" x="-270.1" y="372.2" width="73.2" height="48.8"/>
						</defs>
						<clipPath id="SVGID_16_">
							<use xlink:href="#SVGID_9_"  style="overflow:visible;"/>
						</clipPath>
						<clipPath id="SVGID_17_" class="st6">
							<use xlink:href="#SVGID_10_"  style="overflow:visible;"/>
						</clipPath>
						<clipPath id="SVGID_18_" class="st7">
							<use xlink:href="#SVGID_11_"  style="overflow:visible;"/>
						</clipPath>
						<clipPath id="SVGID_19_" class="st8">
							<use xlink:href="#SVGID_12_"  style="overflow:visible;"/>
						</clipPath>
						<clipPath id="SVGID_20_" class="st9">
							<use xlink:href="#SVGID_13_"  style="overflow:visible;"/>
						</clipPath>
						<clipPath id="SVGID_21_" class="st10">
							<use xlink:href="#SVGID_14_"  style="overflow:visible;"/>
						</clipPath>
						<clipPath id="SVGID_22_" class="st11">
							<use xlink:href="#SVGID_15_"  style="overflow:visible;"/>
						</clipPath>
						<path class="st12" d="M-245,384.4c0,5.1-4.1,9.2-9.2,9.2s-9.2-4.1-9.2-9.2s4.1-9.2,9.2-9.2S-245,379.4-245,384.4"/>
						<path class="st13" d="M-242.1,384.4c0,4.8-3.9,8.7-8.7,8.7c-4.8,0-8.7-3.9-8.7-8.7s3.9-8.7,8.7-8.7
							C-246,375.8-242.1,379.6-242.1,384.4"/>
						<polygon class="st12" points="-253,384.6 -254.3,383.7 -255.5,384.6 -255,383.1 -256.3,382.2 -254.7,382.2 -254.3,380.6 
							-253.8,382.2 -252.3,382.2 -253.5,383.1 						"/>
						<polygon class="st12" points="-243.2,384.6 -244.5,383.7 -245.7,384.6 -245.3,383.1 -246.5,382.2 -245,382.2 -244.5,380.6 
							-244,382.2 -242.5,382.2 -243.7,383.1 						"/>
						<polygon class="st12" points="-248.1,381 -249.4,380.1 -250.6,381 -250.1,379.5 -251.4,378.5 -249.8,378.5 -249.4,377 
							-248.9,378.5 -247.4,378.5 -248.6,379.5 						"/>
						<polygon class="st12" points="-251.2,390.4 -252.4,389.5 -253.7,390.5 -253.2,388.9 -254.5,388 -252.9,388 -252.4,386.4 
							-252,388 -250.4,388 -251.7,388.9 						"/>
						<polygon class="st12" points="-245.1,390.4 -246.3,389.5 -247.6,390.5 -247.1,388.9 -248.3,388 -246.8,388 -246.3,386.4 
							-245.8,388 -244.3,388 -245.6,388.9 						"/>
					</g>
				</g>
			</g>
		</g>
	</g>
</g>
</svg>
