<?xml version="1.0" encoding="utf-8"?>
<!-- Generator: Adobe Illustrator 19.0.0, SVG Export Plug-In . SVG Version: 6.00 Build 0)  -->
<svg version="1.1" id="Layer_1" xmlns="http://www.w3.org/2000/svg" xmlns:xlink="http://www.w3.org/1999/xlink" x="0px" y="0px"
	 viewBox="-269 374 72 46" style="enable-background:new -269 374 72 46;" xml:space="preserve">
<style type="text/css">
	.st0{clip-path:url(#SVGID_2_);}
	.st1{fill:#003671;}
	.st2{fill:none;stroke:#000000;stroke-width:0.25;}
	.st3{fill:#FFFFFF;}
	.st4{fill:#DC2F34;}
	.st5{fill:#5291CE;}
	.st6{fill:#FFED00;}
	.st7{fill:#D38B00;}
	.st8{fill:#007A4D;}
	.st9{fill:#008A88;}
</style>
<g>
	<defs>
		<path id="SVGID_1_" d="M-204,420H-262c-3.8,0-7-3.1-7-7V381c0-3.8,3.1-7,7-7h58.1c3.8,0,7,3.1,7,7V413
			C-197,416.9-200.1,420-204,420z"/>
	</defs>
	<clipPath id="SVGID_2_">
		<use xlink:href="#SVGID_1_"  style="overflow:visible;"/>
	</clipPath>
	<g class="st0">
		<g>
			<polygon class="st1" points="-186.1,420.7 -186.1,373.7 -279.9,373.7 -279.9,420.7 			"/>
		</g>
		<g>
			<path d="M-185.9,420.8h-94.1v-47.2h94.1V420.8z M-279.8,420.5h93.6v-46.7h-93.6V420.5z"/>
		</g>
		<g>
			<path class="st1" d="M-233,397.2"/>
		</g>
		<g>
			<path class="st2" d="M-233,397.2"/>
		</g>
		<g>
			<polygon class="st3" points="-279.9,381.6 -270,381.6 -279.9,376.6 -279.9,373.7 -274.3,373.7 -260.4,380.6 -260.4,373.7 
				-252.6,373.7 -252.6,380.6 -238.8,373.7 -233.1,373.7 -233.1,376.6 -243,381.6 -233.1,381.6 -233.1,389.4 -243,389.4 
				-233.1,394.4 -233.1,397.2 -238.8,397.2 -252.6,390.3 -252.6,397.2 -260.4,397.2 -260.4,390.3 -274.3,397.2 -279.9,397.2 
				-279.9,394.4 -270,389.4 -279.9,389.4 			"/>
		</g>
		<g>
			<path d="M-232.9,397.3l-5.9,0l-13.7-6.8v6.8h-8v-6.8l-13.7,6.8h-5.8v-3.1l9.5-4.8h-9.5v-8.1h9.5l-9.5-4.8v-3.1l5.8,0l13.7,6.8
				v-6.8h8v6.8l13.7-6.8h5.8v3.1l-9.5,4.8h9.5v8.1h-9.5l9.5,4.8V397.3z M-238.7,397.1h5.6v-2.6l-9.9-4.9l0.1-0.2h9.8v-7.6h-9.8
				l-0.1-0.2l9.9-4.9v-2.6h-5.6l-14,7v-7h-7.5v7l-0.2-0.1l-13.8-6.9h-5.5v2.6l9.8,4.9l-0.1,0.2h-9.8v7.6h9.8l0.1,0.2l-9.8,4.9v2.6
				h5.5l14-7v7h7.5v-7l0.2,0.1L-238.7,397.1z"/>
		</g>
		<g>
			<polygon class="st4" points="-236.7,373.7 -252.4,381.6 -248.6,381.6 -233.1,373.7 			"/>
		</g>
		<g>
			<path d="M-248.6,381.7h-3.7l-0.1-0.2l15.7-7.8h3.7l0.1,0.2L-248.6,381.7z M-251.9,381.4h3.2l15.1-7.6h-3.1L-251.9,381.4z"/>
		</g>
		<g>
			<polygon class="st4" points="-233.1,397.2 -248.7,389.4 -244.9,389.4 -233.1,395.3 			"/>
		</g>
		<g>
			<path d="M-233.1,397.3l-15.6-7.8l0.1-0.2l3.8,0l11.8,6l0.1,0.1v1.9L-233.1,397.3z M-248.1,389.5l14.9,7.5v-1.6l-11.7-5.9H-248.1z
				"/>
		</g>
		<g>
			<polygon class="st4" points="-264.3,381.6 -279.9,373.7 -279.9,375.6 -268,381.6 			"/>
		</g>
		<g>
			<path d="M-264.3,381.7l-3.8,0l-11.9-6l-0.1-0.1v-1.9l0.2-0.1l15.7,7.8L-264.3,381.7z M-268,381.4h3.2l-15-7.5v1.6L-268,381.4z"/>
		</g>
		<g>
			<polygon class="st4" points="-264.3,389.4 -279.9,397.2 -276.2,397.2 -260.5,389.4 			"/>
		</g>
		<g>
			<path d="M-276.2,397.3h-3.7l-0.1-0.2l15.7-7.8h3.7l0.1,0.2L-276.2,397.3z M-279.4,397.1h3.2l15.1-7.6h-3.2L-279.4,397.1z"/>
		</g>
		<g>
			<polygon class="st4" points="-279.9,383.2 -258.8,383.2 -258.8,373.7 -254.2,373.7 -254.2,383.2 -233.1,383.2 -233.1,387.8 
				-254.2,387.8 -254.2,397.2 -258.8,397.2 -258.8,387.8 -279.9,387.8 			"/>
		</g>
		<g>
			<path d="M-254.1,397.3h-4.8v-9.4h-21.2v-4.8h21.2v-9.4h4.8v9.4h21.1v4.8h-21.1V397.3z M-258.6,397.1h4.3v-9.4h21.1v-4.3h-21.1
				v-9.4h-4.3v9.4h-21.2v4.3h21.2V397.1z"/>
		</g>
		<g>
			<path class="st5" d="M-201.8,393.8c0,5.3-0.9,11.1-7.7,13.8c-6.9-2.7-7.7-8.5-7.7-13.8H-201.8L-201.8,393.8z"/>
		</g>
		<g>
			<path d="M-209.6,407.7C-209.6,407.7-209.6,407.7-209.6,407.7c-6.9-2.7-7.9-8.3-7.9-13.9c0,0,0-0.1,0-0.1s0.1,0,0.1,0h15.5
				c0,0,0.1,0,0.1,0s0,0.1,0,0.1C-201.7,399.4-202.7,404.9-209.6,407.7C-209.5,407.7-209.6,407.7-209.6,407.7z M-217.2,393.9
				c0,5.5,1,10.9,7.6,13.5c6.6-2.6,7.6-8.1,7.6-13.5H-217.2z"/>
		</g>
		<g>
			<path class="st3" d="M-209.6,407.5c3.1-1.2,5-3.1,6.1-5.2c-0.2,0-0.5,0-0.7,0c-0.2,0-6.6-0.7-7.4-0.9c-0.7-0.2-3.2,0.2-4.4,0.6
				C-214.8,404.3-212.8,406.2-209.6,407.5L-209.6,407.5z"/>
		</g>
		<g>
			<path d="M-209.6,407.7L-209.6,407.7c-3.1-1.2-5.2-3.1-6.4-5.7l-0.1-0.1l0.1,0c1.2-0.4,3.8-0.9,4.5-0.6c0.7,0.3,7,0.9,7.3,0.9
				c0.1,0,0.5,0,0.7,0l0.2,0l-0.1,0.2C-204.6,404.8-206.6,406.5-209.6,407.7L-209.6,407.7z M-215.7,402c1.2,2.5,3.2,4.2,6.1,5.4
				c2.7-1.1,4.7-2.7,5.9-5c-0.2,0-0.4,0-0.5,0c-0.1,0-6.6-0.6-7.4-0.9C-212.1,401.3-214.4,401.6-215.7,402z"/>
		</g>
		<g>
			<path d="M-214.4,404.2c0.1,0,0.3,0,0.4,0c0.1,0,0.1,0,0.1-0.1c0-0.1,0.1-0.1,0.2,0c0.1,0.1,0.2,0,0.3-0.1c0.1-0.1,0.1-0.1,0.1,0
				c0.1,0.1,0.1,0,0.1,0c0.1,0,0.2-0.1,0.2-0.2c0.1-0.1,0.1-0.1,0.2-0.1c0,0.1,0.1,0.1,0.1,0.1c0.1,0,0.1,0.1,0.1,0.1
				c0,0.1,0,0.1,0.2,0c0.1,0.1,0.2,0.1,0.2-0.1c0-0.1,0-0.6-0.1-0.7c-0.1-0.1-0.1-0.3-0.1-0.4c0-0.3,0-0.3-0.4-0.5
				c0-0.1,0-0.1-0.3-0.1c0,0,0-0.1-0.1-0.2c-0.1,0-0.1-0.1,0-0.2c0.1,0,0.2,0,0.3-0.1c0.1-0.1,0.3-0.1,0.4,0c0.1,0.1,0.3,0.1,0.5,0
				c0.1-0.1,0.2-0.1,0.4-0.2c0.2-0.1,0.2-0.1,0.2-0.2c0-0.3-0.1-0.7-0.2-0.8c-0.1-0.2-0.1-0.4-0.2-0.6c-0.1-0.3-0.1-0.3-0.3-0.5
				c0,0-0.1-0.1-0.1-0.2s0-0.2-0.1-0.3c-0.3-0.2-0.4-1-0.5-1.5c-0.1-0.3,0-1.1-0.2-1.2c-0.2-0.2-0.3-0.2-0.5-0.2
				c-0.1-0.2-0.2-0.5-0.3-0.7c-0.2,0-0.3,0.2-0.4,0.3c-0.1,0.1-0.1,0.1-0.1,0.2c0,0.2-0.1,0.4-0.2,0.6c-0.2,0.2-0.4,0.2-0.6,0.5
				c-0.5-0.6-0.5-0.7-0.5-0.9c0-0.2-0.1-0.2-0.4-0.4c0-0.1,0-0.3,0-0.5c-0.2-0.2-0.3-0.1-0.4,0c-0.1,0.1-0.2,0.3-0.3,0.4
				c-0.1,0.1-0.3,0.4-0.6,0.7C-217,399-216.4,401.9-214.4,404.2L-214.4,404.2z"/>
		</g>
		<g>
			<path d="M-214.4,404.3L-214.4,404.3c-1.8-2-2.7-4.7-2.9-8.3l0,0l0,0c0.2-0.3,0.3-0.5,0.5-0.6c0,0,0.1-0.1,0.1-0.1l0,0
				c0.1,0,0.1-0.1,0.2-0.2c0,0,0.1-0.1,0.1-0.1c0.1-0.1,0.1-0.1,0.2-0.1c0.1,0,0.2,0,0.3,0.1l0,0l0,0c0,0.1,0,0.3,0,0.4
				c0,0,0,0,0,0.1c0,0,0.1,0.1,0.1,0.1c0.2,0.1,0.2,0.2,0.3,0.3l0,0c0,0.1,0.1,0.3,0.4,0.8c0.1-0.2,0.2-0.2,0.3-0.3
				c0.1,0,0.2-0.1,0.2-0.2c0.1-0.2,0.2-0.4,0.2-0.6c0-0.2,0-0.2,0.1-0.3l0,0c0,0,0.1-0.1,0.1-0.1c0.1-0.1,0.2-0.2,0.3-0.2l0.1,0l0,0
				c0,0.1,0.1,0.2,0.1,0.3c0,0.2,0.1,0.3,0.1,0.4c0,0,0.1,0,0.1,0c0.1,0,0.2,0,0.4,0.2c0.1,0.1,0.1,0.3,0.1,0.8c0,0.2,0,0.4,0,0.5
				c0,0.1,0,0.1,0,0.2c0.1,0.5,0.2,1.1,0.4,1.3c0.1,0.1,0.2,0.3,0.2,0.4c0,0.1,0,0.1,0.1,0.1l0,0c0.1,0.1,0.1,0.2,0.2,0.3
				c0,0.1,0,0.1,0.1,0.2c0.1,0.1,0.1,0.3,0.1,0.4c0,0.1,0.1,0.2,0.1,0.3c0.1,0.2,0.2,0.5,0.2,0.8c0,0.2-0.1,0.2-0.2,0.3l-0.1,0
				c-0.1,0.1-0.2,0.1-0.3,0.2l0,0l0,0c-0.2,0-0.4,0-0.5,0c-0.1,0-0.3,0-0.3,0c-0.1,0.1-0.1,0.1-0.3,0.1c0,0,0,0,0,0.1
				c0,0,0.1,0.1,0.1,0.2c0,0,0,0,0,0c0.1,0,0.2,0,0.2,0.1c0,0,0,0.1,0,0.1c0.3,0.2,0.3,0.2,0.4,0.5c0,0.2,0.1,0.3,0.1,0.4
				c0.1,0.1,0.1,0.7,0.1,0.7c0,0.1,0,0.2-0.1,0.2c-0.1,0-0.1,0-0.2,0c-0.1,0.1-0.1,0.1-0.2,0.1c0,0-0.1-0.1,0-0.1c0,0,0-0.1,0-0.1
				c-0.1,0-0.2,0-0.2-0.1h0c0,0,0,0-0.1,0.1c-0.1,0.1-0.2,0.2-0.2,0.2l0,0c-0.1,0-0.1,0-0.2,0c0,0,0,0,0,0c0,0,0,0,0,0
				c0,0.1-0.1,0.1-0.2,0.1c-0.1,0-0.1,0-0.2,0c0,0,0,0-0.1,0l0,0c0,0,0,0,0,0c0,0.1-0.1,0.1-0.2,0.1
				C-214.1,404.3-214.3,404.3-214.4,404.3L-214.4,404.3z M-214.2,404.2c0.1,0,0.1,0,0.2,0c0,0,0,0,0.1,0c0,0,0,0,0,0
				c0-0.1,0.1-0.1,0.1-0.1c0.1,0,0.1,0,0.2,0.1c0,0,0,0,0.1,0c0,0,0.1,0,0.1-0.1c0,0,0.1-0.1,0.1-0.1c0.1,0,0.1,0,0.1,0.1
				c0,0,0,0,0.1,0l0,0c0,0,0.1-0.1,0.2-0.1c0-0.1,0.1-0.1,0.2-0.1c0,0,0,0,0,0c0,0,0.1,0,0.1,0c0,0,0.1,0,0.1,0c0,0,0.1,0,0.1,0
				c0,0,0,0.1,0,0.1c0,0,0,0,0.1,0l0,0l0,0c0,0,0,0,0.1,0c0,0,0,0,0-0.1c0-0.2,0-0.6-0.1-0.7c-0.1-0.1-0.1-0.3-0.1-0.4
				c0-0.3,0-0.3-0.3-0.4l0,0v0c0,0,0,0,0-0.1c0,0,0,0-0.2,0l-0.1,0l0-0.1c0,0,0-0.1-0.1-0.1c-0.1-0.1-0.1-0.1-0.1-0.2l0-0.1l0.1,0
				c0.1,0,0.2,0,0.2-0.1c0.1-0.1,0.3-0.1,0.4,0c0.1,0,0.2,0.1,0.4,0c0.1-0.1,0.2-0.1,0.3-0.2l0.1,0c0.2-0.1,0.2-0.1,0.2-0.2
				c0-0.3-0.1-0.6-0.2-0.8c0-0.1-0.1-0.2-0.1-0.3c0-0.1-0.1-0.2-0.1-0.3c0-0.1-0.1-0.1-0.1-0.2c-0.1-0.1-0.1-0.2-0.2-0.3l0,0
				c0,0-0.1-0.1-0.1-0.2c0-0.1,0-0.2-0.1-0.3c-0.2-0.2-0.3-0.8-0.4-1.4c0-0.1,0-0.2,0-0.2c0-0.1,0-0.3,0-0.5c0-0.2,0-0.6-0.1-0.7
				c-0.1-0.1-0.2-0.1-0.3-0.2c0,0-0.1,0-0.1,0l0,0l0,0c-0.1-0.1-0.1-0.3-0.2-0.4c0-0.1,0-0.2-0.1-0.2c-0.1,0-0.1,0.1-0.2,0.1
				c0,0-0.1,0.1-0.1,0.1l0,0c-0.1,0-0.1,0-0.1,0.1c0,0.2-0.1,0.4-0.2,0.6c-0.1,0.1-0.2,0.2-0.3,0.2c-0.1,0.1-0.2,0.1-0.3,0.3l0,0.1
				l-0.1-0.1c-0.4-0.5-0.5-0.7-0.5-0.9l0,0c0-0.1-0.1-0.1-0.2-0.3c0,0-0.1-0.1-0.1-0.1l0,0v0c0,0,0,0,0-0.1c0-0.1,0-0.3,0-0.4
				c-0.1-0.1-0.1-0.1-0.2-0.1c0,0-0.1,0-0.1,0.1c0,0-0.1,0.1-0.1,0.1c-0.1,0.1-0.1,0.2-0.2,0.3c0,0-0.1,0.1-0.1,0.1
				c-0.1,0.1-0.3,0.3-0.4,0.6c0.2,3.6,1.1,6.1,2.8,8.1C-214.3,404.2-214.2,404.2-214.2,404.2z"/>
		</g>
		<g>
			<path class="st6" d="M-201.8,393.8c0-2-0.1-4-0.1-5.7c-2.6-1.2-6-1.4-7.7-1.4c-1.7,0-5.1,0.2-7.7,1.4c0.1,1.7-0.1,3.7-0.1,5.7
				H-201.8L-201.8,393.8z"/>
		</g>
		<g>
			<path d="M-201.8,393.9h-15.5c-0.1,0-0.1-0.1-0.1-0.1c0-0.9,0-1.7,0-2.5c0-1.1,0-2.1,0-3.1c0-0.1,0-0.1,0.1-0.1
				c2.9-1.3,6.7-1.4,7.7-1.4s4.8,0.1,7.7,1.4c0,0,0.1,0.1,0.1,0.1c0,1,0,2,0,3.1c0,0.8,0,1.7,0,2.5
				C-201.7,393.8-201.8,393.9-201.8,393.9z M-217.2,393.6h15.2c0-0.8,0-1.6,0-2.4c0-1.1,0-2.1,0-3.1c-2.8-1.2-6.5-1.3-7.6-1.3
				s-4.7,0.1-7.6,1.3c0,1,0,2,0,3C-217.2,392-217.2,392.8-217.2,393.6z"/>
		</g>
		<g>
			<path class="st7" d="M-216.9,396.1c0.1,0.1,0.2,0.4,0.3,0.5c0.1-0.1,0.1-0.2,0.1-0.3c0-0.1,0.1-0.2,0.1-0.3c0-0.1-0.1-0.1,0-0.1
				c0.1,0.1,0.1,0.2,0.1,0.3c-0.1,0.4-0.2,0.5-0.3,0.8c0.2,0.6,0.1,0.8,0.3,1.4c0,0,0.2,0,0.2,0c0.1-0.1,0.3-0.1,0.5,0
				c0.2,0,0.3,0.2,0.3,0.3c0,0.1,0,0.2,0,0.2c0,0.1,0.1,0.2,0.1,0.3c0,0.1,0,0.1,0,0.2c0,0,0,0.1,0,0.2c0,0.1,0,0.1,0.1,0.3
				c0.1,0.1,0.3,0.7,0.3,1c0,0.3,0,0.5,0.1,0.5c0.1,0.1,0.2,0.1,0.2,0.2s0.1,0.8,0.1,0.9c0,0.1,0.1,0.1,0.1,0.1
				c0.1,0.1,0.1,0.1,0.3,0.1c0.2,0,0.3,0,0.4,0c0.2,0.2,0.2,0.5,0.3,0.7c0,0.2,0,0.4,0.1,0.4s0.1,0,0.1-0.2c0-0.2,0-0.3-0.1-0.4
				c-0.1-0.1-0.1-0.2-0.1-0.2c0-0.1,0.1-0.2,0-0.3c0-0.1,0-0.2,0.1,0c0.1,0.2,0.2,0.2,0.2,0.3c0,0.1,0.1,0.2,0.1,0.3
				c0,0.1,0,0.1,0.1,0.1c0.1-0.1,0.1,0,0.1,0.1c0,0.1,0,0.2,0.1,0.2c0.1,0,0.1,0.1,0.2,0.1c0,0.1,0.1,0.1,0.1,0s-0.1-0.5-0.1-0.6
				c0-0.1-0.1-0.3-0.1-0.4c0-0.1,0-0.2-0.1-0.2c-0.1,0-0.1-0.1-0.1-0.1c0-0.1-0.1-0.1-0.1-0.1s-0.1,0-0.1-0.1c0,0,0,0-0.1-0.1
				c0,0-0.1,0-0.1,0c0-0.1-0.1-0.2-0.1-0.2c0-0.1-0.1-0.1-0.1-0.3c0-0.2,0-0.2-0.1-0.3c-0.1-0.1-0.2-0.2-0.2-0.3
				c0-0.1-0.1-0.2-0.1,0c0,0.2,0,0.2,0.1,0.3c0.1,0.1,0.1,0.1,0.1,0.1c0,0.1,0,0.1,0,0.2c0,0.1,0.1,0.1,0,0.2
				c-0.1,0.1-0.1,0-0.1-0.1c0-0.1,0-0.2-0.1-0.3c0-0.1-0.1-0.1-0.1-0.1c-0.1,0-0.1,0-0.1,0c0,0,0-0.1,0-0.1c0,0,0-0.1,0-0.1
				c0-0.1,0-0.1,0-0.2c0-0.1-0.2-0.7-0.3-0.8c-0.1-0.1-0.1-0.2,0-0.1c0.1,0.1,0.2,0.3,0.2,0.4c0,0.1,0,0.2,0.1,0.2
				c0,0,0.1,0,0.1-0.1c0-0.1,0.1-0.1,0-0.2c-0.1-0.2-0.3-0.5-0.4-1c-0.1-0.5-0.1-0.9-0.2-1c-0.1-0.1-0.1-0.2-0.1-0.3
				c0-0.1,0-0.3-0.1-0.4c-0.1-0.1-0.1-0.1-0.1,0c0,0.2,0,0.5,0.1,0.6c0,0.1,0,0.2,0,0.3c0,0.1-0.1,0.2,0.1,0.3
				c0.1,0.1,0.1,0.2,0.1,0.2c0,0.1,0,0.1-0.1,0c-0.1-0.1-0.1-0.2-0.2-0.2c-0.1-0.1-0.1-0.1-0.1-0.2c0-0.1,0-0.2,0-0.2
				c0,0-0.1,0-0.1,0.1c0,0.1,0,0.3-0.1,0.3c0,0.1-0.1,0-0.1-0.1c0-0.1,0-0.3,0.1-0.5s0.1-0.4,0-0.7c-0.1-0.3,0-0.3-0.2-0.5
				c-0.2-0.2-0.4-0.4-0.5-0.7c-0.1-0.3-0.1-0.5-0.2-0.6c-0.1-0.1-0.2-0.3-0.3-0.3c0-0.2,0-0.3,0-0.4c0-0.1,0-0.2-0.2-0.1
				c-0.1,0-0.2,0.1-0.2,0.2c-0.1,0.1-0.1,0.1-0.2,0.3S-216.9,395.8-216.9,396.1L-216.9,396.1z"/>
		</g>
		<g>
			<path class="st7" d="M-216.3,398.6c0.1,0,0.1,0.1,0.2,0c0.1-0.1,0.2-0.2,0.4-0.1c0.1,0.1,0.2,0.4,0.2,0.6s0,0.5,0.2,0.7
				c0.2,0.2,0.3,0.4,0.3,0.7c0,0.3,0.1,0.6,0.1,0.7c0,0.1,0.1,0.2,0.2,0.3c0.1,0.1,0.1,0.3,0.1,0.5c0,0.2,0,0.3,0,0.4
				c0,0.1,0,0.2-0.1,0.1c-0.1-0.1-0.1-0.1-0.1-0.2c0-0.1-0.1-0.1-0.1,0.1c0,0.1,0.2,0.2,0.3,0.2c0.1,0,0.1,0,0.2,0.1
				c0.1,0.1,0.1,0.1,0.2,0.1c0.1,0,0.1,0,0.2,0c0.1,0,0.1,0,0.2,0c0.1,0,0.1,0,0.2,0.1c0,0.1,0.1,0.4,0.1,0.5c0,0.1,0,0.2,0.1,0.3
				c0.1,0.1,0,0.2,0,0.1c-0.1-0.1-0.1,0-0.1,0c-0.1,0-0.1,0-0.2-0.1c-0.1,0,0,0-0.1-0.1c-0.1-0.1-0.1-0.1-0.1-0.1s0,0.2-0.1,0.1
				c-0.1,0-0.1,0-0.1,0c0,0-0.1,0.1-0.1,0c-0.1-0.1-0.1-0.1-0.2-0.1c-0.1,0-0.1,0-0.1-0.1c0-0.1-0.1-0.1-0.2-0.1
				c-0.1,0-0.1,0-0.1-0.1c0-0.1-0.1-0.1-0.1-0.1c0,0,0-0.1,0-0.1c0-0.1-0.1,0-0.1-0.1c0,0-0.1,0-0.1-0.1s0-0.1-0.1-0.2
				c0-0.1,0-0.1,0-0.2c0-0.1,0-0.1,0-0.2c-0.1-0.1,0-0.1-0.1-0.2c-0.1-0.1-0.2,0-0.2-0.3c0-0.3-0.1-0.9-0.2-0.9
				c-0.1-0.1-0.1-0.2-0.2-0.2c-0.1,0-0.1,0-0.1-0.2c0-0.2-0.1-0.4-0.2-0.5c-0.1-0.1-0.1-0.1-0.2-0.2c-0.1,0-0.1-0.1,0-0.3
				c0.1-0.1,0-0.3,0-0.4c0-0.1,0-0.2,0-0.3c0-0.1,0-0.2,0-0.3C-216.3,398.6-216.3,398.6-216.3,398.6L-216.3,398.6z"/>
		</g>
		<g>
			<path class="st7" d="M-214.2,396.1c-0.1,0.1-0.2,0.3-0.4,0.4c-0.2,0.1-0.4,0.2-0.2,0.4c0.1,0.2,0.2,0.2,0.2,0.4
				c0,0.1,0.1,0.3,0.2,0.3c0.1,0,0.2,0,0.2,0.2s0,0.3,0.1,0.4c0.1,0.1,0.1,0.2,0.1,0.4s0,0.7,0.2,1c0.1,0.3,0.4,0.9,0.4,1
				c0,0.1-0.1,0.2,0.1,0.4c0.1,0.1,0.2,0.4,0.2,0.5c0,0.1,0,0.2,0.2,0.1c0.1,0,0.2-0.1,0.2-0.1c0-0.1,0.1,0,0.3,0
				c0.1,0.1,0.3,0.1,0.4,0.1c0.1-0.1,0.2-0.2,0.3-0.2c0.2-0.1,0.2-0.4,0.2-0.4c0-0.1,0-0.1-0.1-0.1c-0.1-0.1,0-0.2,0-0.3
				c0-0.1-0.1-0.3-0.2-0.5c-0.1-0.2-0.2-0.6-0.3-0.6c-0.1-0.1-0.1-0.3-0.1-0.4s-0.1-0.2-0.2-0.2s-0.1-0.2-0.2-0.6
				c-0.1-0.4-0.1-0.7-0.1-0.7s0-0.1-0.1-0.1c-0.1,0-0.1-0.1-0.1-0.2c0-0.1,0-0.1,0-0.2c0-0.1,0-0.2,0-0.3c0-0.1,0-0.3,0-0.4
				s-0.1-0.3-0.3-0.3c-0.2,0-0.2-0.1-0.3-0.2c-0.1-0.1-0.1-0.4-0.2-0.5c0-0.1-0.1-0.1-0.2,0c-0.1,0.1-0.2,0.2-0.2,0.4
				c0,0.1,0,0.2,0.1,0.3c0,0.1,0.1,0.1,0.1,0.3c0,0.2,0.2,0.6,0,0.7c-0.2,0.2-0.2,0.2-0.2,0.4c0,0.1-0.1,0.2-0.1,0
				c0-0.2,0-0.3,0.1-0.4c0.1-0.1,0.3-0.2,0.2-0.3c-0.1-0.1-0.1-0.4-0.1-0.6C-214.1,396.1-214.2,396-214.2,396.1L-214.2,396.1z"/>
		</g>
		<g>
			<path class="st8" d="M-216.3,399c0,0.1,0,0.2,0,0.3c0,0.1,0,0.3,0,0.4c-0.1,0.1-0.1,0.2,0,0.3c0,0,0,0,0,0c0.1,0,0.2-0.2,0.1-0.3
				c0-0.1,0-0.2,0-0.3s0-0.1,0-0.2c0-0.1,0-0.1,0-0.2C-216.1,398.9-216.2,398.9-216.3,399L-216.3,399z"/>
		</g>
		<g>
			<path class="st8" d="M-214.8,401.2c0-0.1-0.1-0.5-0.1-0.7s-0.1-0.5-0.3-0.7c-0.2-0.2-0.2-0.4-0.2-0.6c-0.1-0.1-0.2,0-0.2,0.1
				c0,0.2,0.2,0.2,0.1,0.4c0,0.2,0,0.2,0.1,0.3c0.1,0.1,0.1,0.2,0.1,0.3s-0.1,0.1,0,0.2c0.1,0,0.1,0.1,0.1,0.2
				c0,0.1,0.1,0.1,0.1,0.2c0,0.1,0.1,0.2,0,0.3c0,0.1-0.1,0.2,0,0.1c0.1-0.1,0.1,0,0.2,0.1c0.1,0.1,0.1,0.1,0.2,0
				C-214.8,401.3-214.8,401.3-214.8,401.2L-214.8,401.2z"/>
		</g>
		<g>
			<path class="st8" d="M-213.7,403.2c-0.1,0.1-0.1,0.1-0.2,0c-0.1-0.1-0.1-0.1-0.1-0.1c0-0.1,0-0.1-0.1-0.2c0,0,0,0,0,0
				c0,0,0,0-0.1,0c-0.1,0-0.1,0-0.2-0.1c0,0,0,0,0,0c0,0,0,0,0,0.1c0,0.1,0,0.1-0.1,0.1c-0.1,0-0.1-0.1-0.1-0.2c0,0,0,0,0,0
				c-0.1,0-0.2-0.1-0.2-0.2c0-0.1,0-0.1,0.1-0.1c0,0.1,0.1,0.1,0.1,0.2c0.1,0.1,0.1,0,0.1-0.1c0,0,0-0.1,0-0.1c0,0,0-0.1-0.1-0.1
				c-0.1-0.1-0.1-0.1-0.1-0.2c0-0.1,0-0.1-0.1-0.1c-0.1,0.1-0.1,0-0.1-0.2c0-0.2-0.1-0.2-0.1-0.1c0,0.1-0.1,0-0.1-0.1
				c-0.1-0.2-0.1-0.2-0.1-0.1c0,0.1,0,0.2-0.1,0.1c0,0.1,0,0.2,0,0.3c0,0.3,0.1,0.2,0.2,0.3c0.1,0.1,0.1,0.2,0.1,0.2
				c0.1,0.1,0.1,0.1,0,0.2c0,0.1,0,0.1,0,0.2c0,0.1,0.1,0.1,0.1,0.2c0,0.1,0,0.1,0.1,0.1c0,0,0,0,0.1,0c0,0,0-0.1,0.1-0.1
				c0.1-0.1,0.3,0,0.3,0.1c0.1,0.1,0.1,0.2,0.2,0.1c0.1-0.1,0.1-0.1,0.1,0c0.1,0.1,0.1,0.1,0.1,0.1s0.1,0,0.1,0
				c0.1,0.1,0.1,0,0.2-0.1C-213.5,403-213.7,403.1-213.7,403.2L-213.7,403.2z"/>
		</g>
		<g>
			<path class="st8" d="M-213.4,398.5c0-0.2,0-0.5,0.1-0.6c0.1-0.1,0.2-0.3,0.2,0.1c0,0.4,0,0.4-0.1,0.5c-0.1,0.1-0.1,0.1-0.1,0.3
				c0.1,0.1,0.1,0.2,0.1,0.4c0,0.2,0,0.3,0.1,0.4c0.1,0.1,0.1,0.1,0.1,0.2c0,0.1,0.1,0.3,0.2,0.4c0.1,0.1,0.2,0.4,0.2,0.5
				c0,0.2,0.2,0.2,0.3,0.4c0.1,0.1,0,0.2-0.1,0.2c-0.1-0.1-0.1,0-0.1,0.1c-0.1,0.1-0.1,0.1-0.1,0c-0.1-0.1-0.2-0.2-0.3-0.3
				c-0.1,0-0.2-0.2-0.2-0.3c-0.1-0.1-0.2-0.2-0.3-0.2c0,0.1,0.1,0.2,0,0.2c0,0.1-0.1,0.2,0.1,0.4c0.1,0.1,0.2,0.4,0.2,0.5
				c0,0.1,0,0.2,0.2,0.1c0.1,0,0.2-0.1,0.2-0.1c0-0.1,0.1,0,0.3,0c0.1,0.1,0.3,0.1,0.4,0.1c0.1-0.1,0.2-0.2,0.3-0.2
				c0.2-0.1,0.2-0.4,0.2-0.4c0-0.1,0-0.1-0.1-0.1c-0.1-0.1,0-0.2,0-0.3c0-0.1-0.1-0.3-0.2-0.5c-0.1-0.2-0.2-0.6-0.3-0.6
				c-0.1-0.1-0.1-0.3-0.1-0.4c0-0.1-0.1-0.2-0.2-0.2s-0.1-0.2-0.2-0.6c-0.1-0.3-0.1-0.5-0.1-0.7c-0.1,0.1-0.1,0.2-0.2,0.1
				c0-0.1-0.1-0.2-0.1-0.1c0,0.1-0.1-0.1-0.1-0.1s0-0.1-0.1-0.1c-0.1,0,0-0.1,0-0.3c0-0.2-0.1-0.2-0.1,0c0,0.2-0.1,0.3-0.1,0.4
				c0,0,0,0.1,0,0.3c0,0.1,0,0.2,0,0.3c0,0.1,0,0.3,0,0.4C-213.6,398.6-213.4,398.8-213.4,398.5L-213.4,398.5z"/>
		</g>
		<g>
			<path class="st8" d="M-215.5,396.5c-0.1,0-0.1,0.1-0.1,0.3c0,0.2-0.1,0.1-0.1,0c0-0.1-0.1-0.2-0.2-0.4c-0.1-0.1,0,0.1-0.1,0.2
				c0,0.1,0.1,0.1,0.2,0.2c0.1,0.1,0,0.2-0.1,0.2c-0.1,0,0,0.2,0,0.3c0,0.1,0,0.1-0.1,0c-0.1-0.1,0-0.3,0-0.5c0-0.2,0-0.1-0.1-0.2
				c-0.1,0-0.1-0.1-0.1-0.2c0-0.1,0.1-0.2,0-0.2c-0.1-0.1,0-0.1,0-0.1c0.1,0,0.1-0.1,0.1-0.1c0.1,0,0.1,0,0.1-0.1
				c0-0.1,0.1-0.2,0.1-0.2C-215.6,396.1-215.5,396.4-215.5,396.5L-215.5,396.5z"/>
		</g>
		<g>
			<path class="st8" d="M-214.3,397.8c0,0.2,0,0.3,0.1,0.4c0.1,0.1,0.1,0.2,0.1,0.4s0,0.7,0.2,1c0,0.1,0.1,0.2,0.2,0.3
				c0.1-0.1,0.1-0.2,0.2-0.2c0-0.1-0.1-0.2-0.1-0.4c-0.1-0.1,0-0.2,0.1-0.4c0.1-0.2,0-0.2-0.1-0.2c-0.1,0-0.1-0.2-0.2-0.3
				c-0.1-0.2-0.1-0.3,0-0.4c0-0.1,0-0.2-0.1-0.2c-0.1,0-0.1-0.1,0-0.2c0-0.1,0.1-0.1-0.1-0.1c-0.1,0-0.1,0-0.2,0.1
				C-214.3,397.7-214.3,397.8-214.3,397.8L-214.3,397.8z"/>
		</g>
		<g>
			<path d="M-213,398.3c0,0.1,0,0.2,0,0.2c0,0,0,0.1,0,0.2c0,0.1,0.1,0.2,0,0.3c0,0.1,0,0.2,0.1,0.3c0.1,0,0.1,0,0.1,0.2
				c0,0.2,0.1,0.3,0.1,0.4c0.1,0.1,0.1,0.2,0.1,0.2c0,0.1,0.1,0.1,0.1,0.2c0.1,0,0.1,0,0.1,0.1c0,0,0,0,0.1,0.1
				c0.1,0,0.2,0.1,0.3,0.2c0.1,0.1,0.2,0.2,0.2,0.1c0-0.1,0-0.2-0.1-0.3c-0.1-0.1-0.2-0.4-0.3-0.6c-0.1-0.2-0.2-0.5-0.3-0.6
				c0-0.2,0-0.2-0.1-0.3c-0.1-0.1-0.1-0.2-0.1-0.3c0-0.1-0.1-0.2-0.1-0.2S-212.9,398.3-213,398.3C-212.9,398.2-213,398.2-213,398.3
				L-213,398.3z"/>
		</g>
		<g>
			<path class="st9" d="M-213.6,404.4c0.2,0,0.8-0.2,0.8-0.2c0.1,0.1,0.4,0.2,0.5,0.2c-0.2,0-0.3,0-0.4,0c0,0.1,0.1,0.2,0.1,0.2
				c-0.2,0-0.4-0.1-0.5-0.1C-213.2,404.5-213.5,404.5-213.6,404.4L-213.6,404.4z"/>
		</g>
		<g>
			<path class="st9" d="M-213.3,404.6c0.1,0,0.4,0.1,0.5,0.1c-0.1,0.1,0,0.2,0.2,0.2c-0.1,0-0.2,0-0.1,0.1c0.2,0,0.6-0.1,0.7-0.1
				C-212.2,405-212.9,405.2-213.3,404.6L-213.3,404.6z"/>
		</g>
		<g>
			<path class="st9" d="M-212.9,405.1c0.1-0.1,0.3,0,0.5,0C-212.6,405.2-212.9,405.2-212.9,405.1L-212.9,405.1z"/>
		</g>
		<g>
			<path d="M-212.6,405.1c0.2,0,0.7,0.1,0.8,0c-0.1,0.2-0.4,0.2-0.5,0.1C-212.3,405.2-212.4,405.2-212.6,405.1
				C-212.5,405.2-212.5,405.2-212.6,405.1L-212.6,405.1z"/>
		</g>
		<g>
			<path class="st9" d="M-212.4,405.4c0.1,0,0.6,0,0.7-0.1c0.2,0.1,0.5,0.1,0.5,0.1c-0.1,0.1-0.4,0-0.5,0
				C-211.9,405.5-212.1,405.5-212.4,405.4L-212.4,405.4z"/>
		</g>
		<g>
			<path class="st9" d="M-212.2,405.5c0.2,0,0.3,0,0.5,0c0.1,0,0.2,0.1,0.3,0c0.1,0,0.2,0.1,0.3,0.1c-0.1,0-0.5,0-0.6,0
				c-0.2,0-0.6,0.1-0.7,0.1C-212.3,405.6-212.3,405.5-212.2,405.5L-212.2,405.5z"/>
		</g>
		<g>
			<path d="M-212.4,404.5c0.1,0,0.7,0,0.9-0.1c0.1-0.1,0.2,0,0.1,0.1C-211.8,404.6-212.2,404.7-212.4,404.5
				C-212.5,404.5-212.6,404.5-212.4,404.5L-212.4,404.5z"/>
		</g>
		<g>
			<path class="st9" d="M-209.8,403.8c-0.7,0.3-1.1,0.4-2,0.1c-0.1,0-0.1,0-0.1,0.1c0.1,0.1,0.6,0.2,0.7,0.2c0.1,0,0.1,0.1,0,0.1
				c-0.1,0-0.1,0.1,0,0c0.1,0,0.6-0.1,0.9,0.1c0.1,0.1,0.1,0,0.1,0c0,0,0-0.1,0.1-0.1c0.1,0,0.1,0,0.1-0.1c-0.1,0-0.1,0,0-0.1
				c0,0,0,0,0-0.1c-0.1,0-0.1,0,0-0.1c0.1,0,0.1-0.1,0.2-0.1C-209.8,403.9-209.9,403.8-209.8,403.8L-209.8,403.8z"/>
		</g>
		<g>
			<path d="M-210.9,403.9c0.4,0,1.1-0.1,1.4-0.5c0.1,0.1,0.3,0.2,0.4,0.2c0.1,0,0.2,0.1,0,0.1c-0.1,0-0.3-0.1-0.4-0.1
				C-210,403.8-210.5,403.9-210.9,403.9C-211,403.9-211,403.8-210.9,403.9L-210.9,403.9z"/>
		</g>
		<g>
			<path class="st9" d="M-212,401.8c0.1,0.1,0.4,0.2,0.6,0.2c0.1,0.1,0.4,0.2,0.5,0.2c-0.2,0.1-0.4,0.1-0.5,0.2
				c-0.1-0.1-0.2-0.1-0.2-0.1c-0.1,0.1-0.1,0.1,0,0.1c0.1,0,0.5,0.1,0.6,0.1c0.1,0,0.1,0.1,0,0.1c-0.2,0.1-0.7,0-0.8-0.2
				c-0.2-0.2-0.3-0.3-0.7-0.1c0-0.1,0-0.1-0.1-0.1c-0.1,0-0.2-0.1-0.1-0.1S-212.3,402-212,401.8L-212,401.8z"/>
		</g>
		<g>
			<path class="st9" d="M-211.9,402.4c-0.1,0-0.3,0.1-0.3,0.1c-0.1,0-0.2,0.1-0.1,0.1S-212,402.5-211.9,402.4
				C-211.8,402.5-211.8,402.4-211.9,402.4L-211.9,402.4z"/>
		</g>
		<g>
			<path class="st9" d="M-211.5,402.8c-0.1,0-0.3,0.1-0.3,0.1c-0.1,0-0.1,0-0.1,0.1c0,0,0,0.1-0.1,0.1c-0.1,0-0.2,0-0.2,0.1
				c0,0,0,0.1,0.1,0.1c0.1,0,0.1,0,0.2,0c0.1,0,0.2-0.1,0.3-0.1C-211.5,402.9-211.4,402.8-211.5,402.8L-211.5,402.8z"/>
		</g>
		<g>
			<path d="M-211.8,403.1c0.1,0.1,0.6,0.2,0.7,0.2c0.2,0,0.1,0.1,0,0.1C-211.3,403.4-211.6,403.3-211.8,403.1
				C-212,403-211.9,403-211.8,403.1L-211.8,403.1z"/>
		</g>
		<g>
			<path class="st9" d="M-209.6,403.3c-0.4,0.1-0.7,0.1-0.9,0c-0.1,0-0.3,0-0.2,0c0.1,0.1,0.4,0.2,0.6,0.1c-0.6,0.1-0.8,0.1-1,0.1
				c-0.2,0-0.5,0-0.6,0c-0.1,0-0.2,0-0.3,0c-0.1,0-0.1-0.1,0.1-0.1s0.2,0,0,0c-0.1,0-0.3,0-0.1,0.2c0.2,0.1,0.6,0,0.9,0.1
				C-210.7,403.7-210.1,403.8-209.6,403.3C-209.6,403.3-209.5,403.3-209.6,403.3L-209.6,403.3z"/>
		</g>
		<g>
			<path class="st9" d="M-211.3,402.8c0,0,0,0.1,0,0.1c0,0,0,0.1,0,0c0.1,0,0.1-0.1,0.1-0.1c0.1,0,0.2,0,0.3,0c0.1,0,0.1,0,0-0.1
				c-0.1,0-0.2-0.1-0.2,0C-211.2,402.8-211.2,402.8-211.3,402.8C-211.3,402.7-211.3,402.7-211.3,402.8L-211.3,402.8z"/>
		</g>
		<g>
			<path class="st9" d="M-210.4,402.9c-0.1,0-0.2,0-0.3-0.1c-0.1,0-0.2,0-0.1,0.1c0.1,0.1,0.4,0.2,0.5,0.1c0.1,0,0.1-0.1,0.2,0
				c0.1,0.1,0.2,0.1,0.3,0.1s0.1,0,0-0.1c-0.1-0.1-0.1-0.1-0.1-0.1c0,0,0-0.1,0.1,0c0.1,0,0.2,0.1,0.2,0c0.1,0,0.2-0.1,0.3-0.1
				l0-0.1c-0.2,0-0.2,0-0.3,0.1c0,0-0.1,0-0.2,0c-0.1,0-0.2,0-0.2,0c0,0,0,0,0-0.1c0.1,0,0.1-0.1,0,0c-0.1,0-0.3,0-0.5,0
				c-0.1,0-0.2,0-0.2,0c-0.1,0,0,0.1,0,0.1c0.1,0,0.3,0,0.3,0.1C-210.3,402.9-210.3,402.9-210.4,402.9
				C-210.4,402.8-210.6,402.8-210.4,402.9L-210.4,402.9z"/>
		</g>
		<g>
			<path class="st9" d="M-209.3,402.8L-209.3,402.8c0.1,0.1,0.5,0.1,0.6,0.2c0.1-0.1,0.1-0.1,0.2-0.1c0.1,0,0.2,0,0.2,0
				c0,0,0.1,0,0.1,0c0.1,0,0.2,0,0.2-0.1c0.1,0,0.2-0.1,0.3-0.1s0.2,0,0,0c-0.1,0-0.4,0-0.4,0c-0.1,0-0.3,0-0.4,0
				c-0.1,0-0.3,0.1-0.4,0S-209.2,402.8-209.3,402.8L-209.3,402.8z"/>
		</g>
		<g>
			<path d="M-207.4,402.7c-0.3,0.2-0.6,0.2-0.9,0.3c-0.1,0-0.1,0,0,0C-207.9,403-207.5,402.9-207.4,402.7
				C-207.3,402.7-207.3,402.6-207.4,402.7L-207.4,402.7z"/>
		</g>
		<g>
			<path class="st9" d="M-209.1,403.1c0.1,0,0.5,0.1,0.6,0.1c0.1,0,0.1,0,0.1-0.1c0,0,0-0.1,0.1-0.1c0.2,0,0.6,0,0.6,0
				c0.1,0,0.2-0.1,0.2-0.1c-0.2,0-0.8,0-0.9,0c-0.1,0-0.1,0-0.2,0c-0.1,0-0.1,0-0.1,0c-0.1,0-0.2-0.1-0.2,0
				C-208.9,403.1-209,403.1-209.1,403.1L-209.1,403.1z"/>
		</g>
		<g>
			<path class="st9" d="M-207.6,403.2c0.1,0,0.2-0.1,0.2-0.1c0.1,0,0.2,0,0.3,0c0.1,0,0.1,0,0.1-0.1c0,0,0-0.1,0.2-0.1
				c0.2,0,0.3,0.1,0.4,0c0.2,0,0.2,0.1,0.6,0c0,0.1,0,0.1,0.1,0.1c0.1,0,0.1,0,0.2,0.1c0.1,0.1,0.7,0.1,0.9,0.1
				c0.1,0,0.2,0.1,0.1,0.1c-0.1,0-0.1,0.1-0.1,0.1c0,0,0.1,0.1-0.1,0.1c-0.1,0-0.2,0-0.2,0.1c-0.1,0.1-0.1,0.1-0.3,0
				c-0.2,0-0.2,0-0.3,0c-0.1,0-0.1,0-0.2,0c-0.1,0-0.3-0.1-0.5,0c-0.1,0-0.2,0.1-0.4,0.1c-0.1,0-0.1,0-0.1-0.1
				c0.1-0.1,0.1-0.1,0.2-0.1c0.1,0,0.3-0.1,0.2-0.1c-0.1-0.1-0.1-0.1-0.3,0c-0.1,0.1-0.2,0.1-0.4,0c-0.2-0.1-0.2-0.1-0.3,0
				C-207.3,403.3-207.5,403.2-207.6,403.2L-207.6,403.2z"/>
		</g>
		<g>
			<path class="st9" d="M-207.1,403.4c-0.2,0-0.2-0.1-0.4-0.1c-0.1,0-0.2,0.1,0,0.1C-207.4,403.4-207.3,403.5-207.1,403.4
				C-206.9,403.5-207,403.4-207.1,403.4L-207.1,403.4z"/>
		</g>
		<g>
			<path class="st9" d="M-207.3,403.6c0.1,0,0.3,0,0.4,0c0.1,0,0.2,0,0.1,0.1C-206.9,403.7-207.2,403.6-207.3,403.6
				C-207.4,403.7-207.5,403.6-207.3,403.6L-207.3,403.6z"/>
		</g>
		<g>
			<path class="st9" d="M-209.4,404.1c0.1,0,0.6,0,0.8-0.4c0,0,0,0,0.1,0c0.1,0,0.3,0.2,0.7,0.2c0.1,0,0.3,0.1,0,0.1
				c-0.2,0-0.6-0.1-0.8-0.2C-208.7,404.1-209.1,404.2-209.4,404.1C-209.5,404.2-209.5,404.1-209.4,404.1L-209.4,404.1z"/>
		</g>
		<g>
			<path class="st9" d="M-208.3,403.5c-0.1,0.1-0.3,0.3-0.4,0.3c-0.1,0-0.4,0-0.5-0.1c-0.1,0-0.2,0-0.1,0.1c0.1,0.1,0.4,0.1,0.5,0.1
				s0.2-0.1,0.3,0c0.1,0.1,0.3,0.2,0.4,0.1c0.1,0,0.3,0,0.4,0c0.1,0,0.2,0.1,0,0.1c-0.2-0.1-0.3,0-0.4,0c0.1,0.1,0.3,0.3,0.4,0.3
				c0,0,0.1,0.1,0,0.1c0.1,0,0.3,0.1,0.4,0c0,0,0,0.1,0,0.1c0,0,0.1,0.1,0,0.1c-0.1,0-0.2,0-0.3,0c0.2,0.1,0.6,0.3,1,0.2
				c0.1,0,0.1-0.1,0,0c-0.3,0-0.3,0-0.3,0c-0.1,0,0-0.1,0-0.1c0.1,0,0.3-0.1,0.4-0.1c0.1,0,0.2,0,0,0c-0.2,0-0.4,0-0.5,0
				c-0.1,0-0.1-0.1-0.1-0.1c0.1-0.1,0.2,0,0.2-0.1c-0.3,0-0.6-0.2-0.4-0.3c0,0,0,0,0,0c-0.1,0-0.3-0.1-0.4-0.1c-0.1-0.1,0-0.1,0-0.1
				C-207.7,403.8-208,403.7-208.3,403.5L-208.3,403.5z"/>
		</g>
		<g>
			<path class="st9" d="M-205.8,403.5c-0.2,0.1-0.4,0.2-0.6,0.2c-0.1,0-0.1,0,0,0.1c0.1,0,0.2,0,0.2,0c0,0,0.1,0,0.1,0
				c0.1,0,0.2,0,0.3,0c0.1,0,0.3-0.1,0.4-0.1c0.1,0,0.2,0,0,0c-0.2,0-0.4,0-0.5,0c-0.1,0-0.2,0-0.1,0
				C-205.8,403.6-205.7,403.6-205.8,403.5C-205.7,403.5-205.8,403.5-205.8,403.5L-205.8,403.5z"/>
		</g>
		<g>
			<path class="st9" d="M-205.9,403.9c-0.1,0.1-0.3,0.2-0.5,0.2c0.2,0.1,0.3,0.2,0.4,0.2c-0.1,0-0.1,0.1-0.2,0.1
				c0.1,0,0.3,0,0.4-0.1c0.3,0.1,0.6,0,0.7-0.1c-0.2,0-0.4-0.1-0.5-0.1c0.1,0,0.2-0.1,0.2-0.1C-205.4,404-205.8,403.9-205.9,403.9
				L-205.9,403.9z"/>
		</g>
		<g>
			<path class="st9" d="M-206.1,404.4c0.1,0,0.1-0.1,0.2-0.1c-0.1,0-0.7-0.1-0.9-0.2c-0.2-0.2-0.2,0-0.1,0.1
				C-206.8,404.3-206.6,404.4-206.1,404.4L-206.1,404.4z"/>
		</g>
		<g>
			<path class="st9" d="M-205.7,404.8c-0.1,0-0.4,0.1-0.6,0c-0.1,0-0.2,0-0.1,0c0,0,0,0.1-0.1,0.1c-0.1,0-0.3,0-0.3,0
				c-0.1,0-0.2,0.1,0,0.1c0.2,0,0.3-0.1,0.4,0c0.1,0,0.5,0,0.6,0c0.1,0,0,0,0,0c0,0-0.1,0,0-0.1
				C-205.7,404.9-205.7,404.8-205.7,404.8L-205.7,404.8z"/>
		</g>
		<g>
			<path class="st9" d="M-209.2,404.3c-0.2,0.1-0.7,0.2-0.8,0.2c-0.2,0.1-0.3,0.1-0.4,0.1c0.1,0.1,0.3,0.1,0.4,0.1
				c-0.1,0.1-0.2,0.1-0.2,0.1c0.1,0,0.3,0,0.4,0c-0.2,0.1-0.4,0.1-0.6,0.1c0,0.1,0.1,0.1,0.2,0.1c-0.2,0-0.4,0-0.5,0
				c0,0.1,0.1,0.1,0.1,0.1c-0.1,0-0.3,0-0.4,0c0.1,0.1,0.4,0.2,0.7,0.2c0.4,0,0.7-0.2,0.8-0.3c-0.2,0-0.4,0-0.5,0
				c0.2-0.1,0.6-0.2,0.7-0.3c-0.1,0-0.2,0-0.2-0.1c0.1,0,0.5,0,0.7-0.1c-0.2,0-0.2-0.1-0.3-0.2c0.5,0.2,1.1,0.1,1.4,0
				c0.1,0,0.1-0.1-0.1-0.1c-0.2,0-0.7-0.1-0.8-0.1c0.1,0.1,0.2,0.1,0.3,0.2C-208.4,404.5-208.8,404.5-209.2,404.3L-209.2,404.3z"/>
		</g>
		<g>
			<path class="st9" d="M-210.2,404.8c0,0,0.2-0.1,0.2-0.1c-0.1,0-0.3,0-0.4-0.1c0.1,0,0.2,0,0.4-0.1c-0.3,0-0.5,0-0.6-0.1
				c-0.1-0.1-0.3,0-0.4,0c-0.1,0-0.1,0.1,0.3,0.1c-0.1,0.1-0.5,0.1-0.6,0.1c0,0.1,0.1,0.2,0,0.3c0.2,0.1,0.6,0.2,0.9,0.2
				c-0.2-0.1-0.3-0.2-0.1-0.2C-210.5,404.9-210.4,404.9-210.2,404.8L-210.2,404.8z"/>
		</g>
		<g>
			<path d="M-210.7,405.4c0.4,0,0.9,0,1.4-0.4c0.1-0.1,0.2-0.1,0.1,0c-0.2,0.2-0.8,0.5-1.3,0.5
				C-210.8,405.5-210.9,405.4-210.7,405.4L-210.7,405.4z"/>
		</g>
		<g>
			<path class="st9" d="M-207.7,404.7c-0.1,0-0.4,0.1-0.5,0.1c-0.1,0-0.2,0-0.3,0c-0.1,0-0.1,0.1,0,0.1s0.2,0,0.3,0
				c-0.1,0-0.1,0.1-0.1,0.1c0.1,0,0.4,0,0.5,0.1c-0.1,0-0.1,0-0.2,0c0.2,0.2,0.9,0.2,1,0.2c-0.1,0-0.1,0.1-0.1,0.1
				c0.2,0,0.4,0,0.6-0.1c-0.1,0-0.3,0-0.3,0c0,0,0.1-0.1,0.2-0.1c-0.1,0-0.4,0-0.4,0c0-0.1,0.1-0.1,0.1-0.1c-0.3,0-0.7,0-0.9-0.1
				c0.2,0,0.5-0.1,0.6-0.1C-207.5,404.8-207.7,404.8-207.7,404.7L-207.7,404.7z"/>
		</g>
		<g>
			<path class="st9" d="M-208.6,404.9c-0.2,0-0.4,0.1-0.5,0.1c-0.1,0-0.1,0.1,0,0.1c0.1,0,0.6,0,0.6,0c-0.2,0-0.5,0-0.6,0
				s-0.1,0,0,0C-208.9,405-208.7,404.9-208.6,404.9L-208.6,404.9z"/>
		</g>
		<g>
			<path class="st9" d="M-208.9,405.3c0.1,0,0.3,0,0.4-0.1c0.1,0.1,0.3,0.2,0.4,0.2c0.1,0,0.1,0,0,0c-0.1,0-0.3-0.1-0.5-0.1
				C-208.6,405.4-208.8,405.3-208.9,405.3L-208.9,405.3z"/>
		</g>
		<g>
			<path class="st9" d="M-210.9,406.4c0.3,0.1,0.6,0.2,0.9,0.1c0.1,0.1,0.4,0.1,0.6,0.1c0.2,0,0.3-0.1,0.5,0s0.5,0.1,0.6,0.1
				c-0.1,0-0.3,0-0.3,0c0,0,0,0,0.1,0.1c-0.3,0-0.8,0.1-0.9,0.2c0.1-0.1,0.2-0.3,0.5-0.3c-0.2-0.1-0.6-0.1-0.8,0
				c0-0.1-0.1-0.1-0.1-0.2C-210.1,406.8-210.7,406.6-210.9,406.4L-210.9,406.4z"/>
		</g>
		<g>
			<path class="st9" d="M-211.5,406c0.3,0,0.5-0.1,0.6-0.2c0.1,0.1,0.3,0.1,0.5,0c-0.1,0-0.1,0.1,0,0.1c-0.2,0-0.5,0.1-0.6,0.1
				c-0.1,0.1-0.4,0.1-0.5,0C-211.6,406-211.6,406-211.5,406L-211.5,406z"/>
		</g>
		<g>
			<path class="st9" d="M-210.4,405.9c-0.2,0-0.5,0.1-0.6,0.1c0,0,0,0.1,0,0.2c0.3-0.1,1-0.2,1.3-0.1c-0.1,0-0.4,0.1-0.5,0.2
				c0.3,0,0.7,0,0.7,0.1c0.1,0,0.1,0.1,0,0.1c-0.1,0.1-0.1,0.1,0,0.1c0.1,0,0.4,0,0.5-0.1c-0.1-0.1-0.2,0-0.2-0.1
				c0.1,0,0.2-0.1,0.2-0.1c-0.2,0-0.3,0-0.4,0c-0.1,0-0.1,0,0-0.1c0.1-0.1,0.1-0.1,0.2-0.1c-0.2,0-0.4,0.1-0.6-0.1
				c0.1,0,0.3,0,0.3,0c-0.1,0-0.1-0.1-0.2-0.1c0.2-0.1,0.5-0.2,0.9,0c0.2,0,0.4,0,0.6,0c0.1-0.1,0.2-0.2,0.3-0.3
				c-0.5,0-1.4-0.1-1.4-0.3c-0.2,0.2-0.5,0.3-0.7,0.3c0,0.1,0.1,0.2,0.1,0.2c-0.2,0-0.5,0.1-0.6,0c0.1,0.1,0.2,0.1,0.3,0.1
				C-210.2,405.9-210.3,405.9-210.4,405.9L-210.4,405.9z"/>
		</g>
		<g>
			<path class="st9" d="M-209.4,406.5c0.1,0,0.4,0,0.5-0.1c-0.1-0.1-0.2,0-0.2-0.1c0.1,0,0.2-0.1,0.2-0.1c0.4,0,0.7,0,0.8-0.1
				c0.2,0,0.5,0,0.6,0c-0.3,0.1-0.4,0.1-0.4,0.1c0,0.1,0.1,0.1,0.2,0.1c-0.2,0-0.3,0.2-0.4,0.2c-0.2-0.1-0.3,0-0.3,0.1
				c-0.1,0-0.4,0-0.5,0.1c-0.2-0.1-0.3-0.1-0.5-0.1C-209.2,406.6-209.2,406.5-209.4,406.5L-209.4,406.5z"/>
		</g>
		<g>
			<path class="st9" d="M-207.7,405.5c0.1,0,0.4,0,0.5,0c-0.1,0-0.1,0.1-0.2,0.1c0.3,0,0.7-0.1,0.8,0c-0.1,0-0.3,0.1-0.4,0.1
				c-0.1,0,0,0.1,0.1,0.1c0.1,0,0.2,0.1,0.1,0.1c-0.2,0-0.5,0-0.6,0c-0.1,0-0.1,0,0,0c0.1,0,0.2-0.1,0.3-0.1c-0.1,0-0.3,0-0.4,0
				c-0.1,0-0.1-0.1,0-0.1C-207.6,405.6-207.6,405.6-207.7,405.5c0,0.1-0.2,0.2-0.3,0.3C-207.9,405.6-207.8,405.5-207.7,405.5
				L-207.7,405.5z"/>
		</g>
		<g>
			<path d="M-209,405.7c0.1,0.2,0.3,0.2,0.6,0.3c0.1,0,0.2,0.1,0,0.1C-208.8,406-209,405.9-209,405.7
				C-209.2,405.7-209.1,405.6-209,405.7L-209,405.7z"/>
		</g>
		<g>
			<path d="M-206.9,402.7c0.2,0.1,0.6,0.2,0.9,0.2c0.1,0,0.2,0.1,0,0.1C-206.4,403-206.7,402.9-206.9,402.7
				C-207,402.7-207,402.7-206.9,402.7L-206.9,402.7z"/>
		</g>
		<g>
			<path class="st9" d="M-206.7,402.7c0.3,0,0.5,0,0.6,0.1c0.2-0.1,0.5-0.1,0.5-0.1c0.1,0,0.1,0,0-0.1c-0.2,0-0.5-0.1-0.6,0
				c-0.1,0-0.5,0-0.6,0C-206.8,402.7-206.8,402.7-206.7,402.7L-206.7,402.7z"/>
		</g>
		<g>
			<path class="st9" d="M-205.6,402.8c0.1-0.1,0.5,0,0.6-0.1c-0.1,0.1,0.3,0.1,0.6,0c-0.1,0.1-0.4,0.1-0.5,0.1c-0.1,0-0.2,0-0.3,0
				C-205.2,402.9-205.4,402.8-205.6,402.8L-205.6,402.8z"/>
		</g>
		<g>
			<path class="st9" d="M-204.4,402.8c-0.3,0.1-0.7,0.1-0.6,0c-0.1,0.1-0.5,0-0.6,0.1c0.1-0.1,0.2,0,0.3-0.2c0.1,0,0.2,0,0.3,0
				c0.1,0,0.2,0.1,0.3,0.1s0.1,0,0.1-0.1c0.1-0.1,0.1,0.1,0.4,0c0.1,0,0.2,0,0.3-0.1C-204.1,402.6-204.2,402.7-204.4,402.8
				L-204.4,402.8z"/>
		</g>
		<g>
			<path class="st6" d="M-210.4,401.4c0-0.6-0.1-6-0.1-7.2c0-0.3-0.2-0.2-0.2,0c0,0.2,0,6.5,0,7.2
				C-210.5,401.4-210.5,401.4-210.4,401.4L-210.4,401.4z"/>
		</g>
		<g>
			<path d="M-210.4,401.5C-210.4,401.5-210.4,401.5-210.4,401.5L-210.4,401.5c-0.1,0-0.2,0-0.2,0c0,0-0.1,0-0.1-0.1v-7.2
				c0-0.2,0.1-0.3,0.1-0.3c0,0,0.1,0,0.1,0.3c0,1,0,4.4,0.1,6.2C-210.3,400.9-210.3,401.2-210.4,401.5
				C-210.3,401.4-210.3,401.4-210.4,401.5C-210.4,401.4-210.4,401.5-210.4,401.5z M-210.6,401.3
				C-210.5,401.3-210.5,401.3-210.6,401.3c0.1-0.2,0.1-0.5,0.1-0.9c0-1.8-0.1-5.3-0.1-6.2c0-0.1,0-0.1,0-0.1c0,0,0,0.1,0,0.1V401.3z
				"/>
		</g>
		<g>
			<polygon class="st6" points="-208,393.8 -207.8,401.4 -207.8,401.5 -208,401.5 -208.1,393.8 			"/>
		</g>
		<g>
			<path d="M-208,401.5C-208,401.5-208,401.5-208,401.5l-0.2-7.8c0,0,0,0,0,0c0,0,0,0,0,0h0.1c0,0,0.1,0,0.1,0.1l0.3,7.6
				c0,0,0,0,0,0l0,0.1c0,0,0,0,0,0L-208,401.5L-208,401.5z M-208,395.5l0.1,5.9l0.1,0l0,0L-208,395.5z"/>
		</g>
		<g>
			<path class="st6" d="M-205.8,400.2c0-0.8-0.1-4.4-0.2-6.2c0-0.2-0.1-0.2-0.1,0c0,1.4,0.1,5.4,0.1,6.2
				C-205.9,400.2-205.8,400.2-205.8,400.2L-205.8,400.2z"/>
		</g>
		<g>
			<path d="M-206,400.3C-206,400.3-206.1,400.3-206,400.3c-0.1-1.3-0.2-4.9-0.2-6.2c0-0.1,0.1-0.2,0.1-0.2c0,0,0,0,0,0
				c0,0,0.1,0,0.1,0.2c0,1.5,0.1,4.3,0.1,5.6l0,0.6c0,0,0,0,0,0c0,0,0,0,0,0c0,0,0,0-0.1,0C-205.9,400.3-206,400.3-206,400.3z
				 M-206,394C-206,394-206,394-206,394c0,1.4,0.1,4.9,0.1,6.2c0,0,0,0,0.1,0l0-0.5C-205.9,398.3-206,395.5-206,394
				C-206,394-206,394-206,394z"/>
		</g>
		<g>
			<path class="st6" d="M-209.3,395l-2.3,0c-0.1,0.5,0.4,0.4,0.7,0.3c0.2,0.2,0.4,0.2,0.6,0c0.2,0.2,0.4,0.1,0.5,0
				C-209.6,395.6-209.3,395.4-209.3,395L-209.3,395z"/>
		</g>
		<g>
			<path d="M-210.6,395.5c-0.1,0-0.2,0-0.3-0.1c-0.2,0.1-0.5,0.1-0.6,0c-0.1-0.1-0.2-0.2-0.1-0.4c0,0,0,0,0.1,0h0l2.3,0
				c0,0,0.1,0,0.1,0.1c0,0.2,0,0.4-0.2,0.4c-0.1,0.1-0.3,0.1-0.4,0c-0.1,0.1-0.3,0.1-0.5,0C-210.4,395.5-210.5,395.5-210.6,395.5z
				 M-210.9,395.3C-210.9,395.3-210.9,395.3-210.9,395.3c0.3,0.2,0.4,0.1,0.5,0c0,0,0.1,0,0.1,0c0.2,0.1,0.4,0.1,0.5,0
				c0,0,0.1,0,0.1,0c0.1,0.1,0.2,0.1,0.3,0c0.1,0,0.1-0.1,0.1-0.3l-2.1,0c0,0.1,0,0.2,0.1,0.2C-211.4,395.4-211.1,395.3-210.9,395.3
				C-211,395.3-211,395.3-210.9,395.3z"/>
		</g>
		<g>
			<path class="st6" d="M-209.2,396.2l-2.3,0c-0.4,0.4,0.1,0.6,0.6,0.3c0.1,0.1,0.3,0.2,0.5,0.1c0.2,0.2,0.4,0,0.6-0.1
				C-209.6,396.6-209.3,396.6-209.2,396.2L-209.2,396.2z"/>
		</g>
		<g>
			<path d="M-210.2,396.7c-0.1,0-0.2,0-0.2-0.1c-0.1,0-0.3,0.1-0.4,0c-0.1,0-0.1-0.1-0.2-0.1c-0.3,0.1-0.6,0.1-0.7,0
				c0-0.1-0.1-0.2,0.1-0.4c0,0,0,0,0,0l0,0l2.3,0c0,0,0,0,0,0s0,0,0,0.1c-0.1,0.2-0.1,0.3-0.3,0.4c-0.1,0.1-0.3,0-0.4,0
				C-209.9,396.6-210,396.7-210.2,396.7z M-210.4,396.5C-210.4,396.5-210.3,396.5-210.4,396.5c0.2,0.1,0.4,0,0.5-0.1c0,0,0,0,0.1,0
				c0.1,0.1,0.3,0.1,0.3,0c0.1,0,0.1-0.1,0.2-0.2l-2.2,0c-0.1,0.1-0.1,0.2-0.1,0.2c0.1,0.1,0.3,0.1,0.6,0c0,0,0,0,0.1,0c0,0,0,0,0,0
				c0,0,0.1,0.1,0.1,0.1C-210.7,396.5-210.5,396.6-210.4,396.5C-210.4,396.5-210.4,396.5-210.4,396.5z"/>
		</g>
		<g>
			<path class="st6" d="M-209.2,397.6l-2.2,0c0,0.4,0.4,0.3,0.6,0.2c0.2,0.3,0.5,0.2,0.7,0.1c0.2,0.1,0.4,0.1,0.5,0
				C-209.4,398.1-209.2,397.8-209.2,397.6L-209.2,397.6z"/>
		</g>
		<g>
			<path d="M-210.5,398.1C-210.5,398.1-210.6,398.1-210.5,398.1c-0.2,0-0.3-0.1-0.4-0.2c-0.1,0.1-0.4,0.1-0.5,0
				c-0.1,0-0.1-0.1-0.1-0.3c0,0,0-0.1,0.1-0.1l0,0l2.2,0c0,0,0.1,0,0.1,0.1c0,0.1-0.1,0.3-0.2,0.4c-0.1,0-0.2,0.1-0.3,0
				c-0.1,0.1-0.3,0.1-0.5,0C-210.3,398-210.4,398.1-210.5,398.1z M-210.9,397.8C-210.9,397.8-210.8,397.8-210.9,397.8
				c0.1,0.1,0.2,0.2,0.3,0.2c0.1,0,0.3,0,0.3-0.1c0,0,0.1,0,0.1,0c0.2,0.1,0.3,0.1,0.4,0c0,0,0,0,0,0c0,0,0,0,0,0
				c0.1,0.1,0.1,0.1,0.2,0c0.1,0,0.1-0.1,0.1-0.2l-2.1,0c0,0.1,0,0.1,0.1,0.2C-211.2,397.9-211,397.8-210.9,397.8
				C-210.9,397.8-210.9,397.8-210.9,397.8z"/>
		</g>
		<g>
			<path class="st6" d="M-209.1,399l-2.5,0c-0.1,0.4,0.2,0.5,0.4,0.4c0.1,0.2,0.4,0.2,0.5,0c0.1,0.1,0.3,0.1,0.4,0
				c0,0.2,0.3,0.2,0.5,0C-209.4,399.7-208.9,399.3-209.1,399L-209.1,399z"/>
		</g>
		<g>
			<path d="M-211,399.6C-211,399.6-211,399.6-211,399.6c-0.1,0-0.2-0.1-0.2-0.1c-0.1,0-0.3,0-0.4-0.1c-0.1-0.1-0.2-0.2-0.1-0.4
				c0,0,0,0,0.1,0h0l2.5,0c0,0,0,0,0.1,0c0.1,0.1,0.1,0.3-0.1,0.4c-0.1,0.1-0.4,0.2-0.7,0c-0.1,0.1-0.3,0.2-0.4,0.1
				c-0.1,0-0.1-0.1-0.1-0.1c0,0-0.1,0.1-0.2,0.1c0,0,0,0,0,0c-0.1,0-0.1,0-0.1,0C-210.8,399.6-210.9,399.6-211,399.6z M-211.2,399.3
				C-211.2,399.3-211.2,399.3-211.2,399.3C-211.1,399.3-211.1,399.4-211.2,399.3c0.1,0.1,0.1,0.1,0.2,0.2c0.1,0,0.2-0.1,0.2-0.1
				c0,0,0,0,0,0c0,0,0,0,0.1,0c0,0,0.1,0.1,0.1,0.1c0,0,0,0,0,0c0.1,0,0.1,0,0.2-0.1c0,0,0,0,0.1,0c0,0,0,0,0,0.1
				c0,0.1,0,0.1,0.1,0.1c0.1,0,0.2,0,0.4-0.1c0,0,0.1,0,0.1,0c0.2,0.2,0.4,0.1,0.6,0c0.1-0.1,0.1-0.2,0.1-0.3l-2.4,0
				c0,0.1,0,0.2,0.1,0.3C-211.4,399.4-211.3,399.4-211.2,399.3C-211.2,399.3-211.2,399.3-211.2,399.3z"/>
		</g>
		<g>
			<path class="st6" d="M-206.9,398.4l-2.1,0c0.1,0.4,0.3,0.5,0.6,0.3c0.2,0.3,0.7,0.2,0.8,0C-207.2,399.1-206.9,398.7-206.9,398.4
				L-206.9,398.4z"/>
		</g>
		<g>
			<path d="M-207.3,399c-0.1,0-0.2,0-0.3-0.1c-0.1,0.1-0.2,0.1-0.3,0.1c-0.2,0-0.3,0-0.4-0.1c-0.2,0.1-0.3,0.1-0.4,0.1
				c-0.1,0-0.2-0.2-0.3-0.4c0,0,0,0,0-0.1s0,0,0,0c0,0,0,0,0,0l2.1,0c0,0,0.1,0,0.1,0.1c0,0.2-0.1,0.4-0.3,0.5
				C-207.2,398.9-207.2,399-207.3,399z M-207.6,398.7C-207.6,398.7-207.6,398.7-207.6,398.7c0.1,0.1,0.3,0.2,0.4,0.1
				c0.1-0.1,0.2-0.2,0.2-0.3l-1.9,0c0,0.2,0.1,0.3,0.2,0.3c0.1,0,0.2,0,0.3-0.1c0,0,0.1,0,0.1,0c0.1,0.1,0.3,0.1,0.4,0.1
				C-207.8,398.8-207.7,398.8-207.6,398.7C-207.6,398.7-207.6,398.7-207.6,398.7C-207.6,398.7-207.6,398.7-207.6,398.7z"/>
		</g>
		<g>
			<path class="st6" d="M-207.1,397l-2-0.1c0,0.5,0.5,0.5,0.8,0.3c0.2,0.2,0.5,0.2,0.6,0C-207.5,397.5-207.1,397.3-207.1,397
				L-207.1,397z"/>
		</g>
		<g>
			<path d="M-208.1,397.5c-0.1,0-0.2,0-0.3-0.1c-0.2,0.1-0.4,0.2-0.5,0.1c-0.2-0.1-0.3-0.2-0.3-0.4c0,0,0,0,0,0s0,0,0,0l2,0.1
				c0,0,0.1,0,0.1,0c0,0.2,0,0.3-0.2,0.4c-0.1,0.1-0.3,0.1-0.5-0.1C-207.8,397.4-207.9,397.5-208.1,397.5
				C-208.1,397.5-208.1,397.5-208.1,397.5z M-208.4,397.2C-208.4,397.2-208.4,397.2-208.4,397.2
				C-208.4,397.2-208.3,397.2-208.4,397.2c0.1,0.1,0.2,0.2,0.3,0.2c0,0,0,0,0,0c0.1,0,0.2-0.1,0.3-0.1c0,0,0,0,0,0c0,0,0,0,0,0
				c0.1,0.1,0.3,0.1,0.4,0.1c0.1,0,0.1-0.1,0.1-0.2l-1.9-0.1c0,0.1,0.1,0.2,0.2,0.3C-208.7,397.4-208.5,397.3-208.4,397.2
				C-208.4,397.2-208.4,397.2-208.4,397.2z"/>
		</g>
		<g>
			<path class="st6" d="M-206.9,395.4h-2.2c0,0.4,0.5,0.6,0.9,0.2c0.1,0.4,0.5,0.3,0.7,0.1C-207.3,396.1-206.7,395.7-206.9,395.4
				L-206.9,395.4z"/>
		</g>
		<g>
			<path d="M-207.9,396c0,0-0.1,0-0.1,0c-0.1,0-0.2-0.1-0.2-0.2c-0.2,0.1-0.4,0.2-0.6,0.1c-0.2-0.1-0.3-0.2-0.3-0.4c0,0,0,0,0,0
				s0,0,0,0h2.2c0,0,0,0,0.1,0c0.1,0.2,0,0.3-0.1,0.5c-0.2,0.1-0.4,0.1-0.6,0C-207.6,395.9-207.7,396-207.9,396z M-208.2,395.6
				C-208.2,395.6-208.1,395.6-208.2,395.6C-208.1,395.6-208.1,395.6-208.2,395.6c0.1,0.2,0.1,0.2,0.2,0.3c0.1,0,0.3,0,0.4-0.1
				c0,0,0,0,0,0s0,0,0,0c0.1,0.1,0.3,0.1,0.4,0c0.1-0.1,0.2-0.2,0.1-0.3h-2c0,0.1,0.1,0.2,0.2,0.2
				C-208.6,395.8-208.4,395.8-208.2,395.6C-208.2,395.6-208.2,395.6-208.2,395.6z"/>
		</g>
		<g>
			<path class="st6" d="M-207,394.4l-1.9,0c0,0.3,0.4,0.4,0.6,0.2c0.1,0.2,0.4,0.1,0.5,0c0.2,0.2,0.3,0.1,0.4,0
				C-207.2,394.7-207,394.7-207,394.4L-207,394.4z"/>
		</g>
		<g>
			<path d="M-208.6,394.8c0,0-0.1,0-0.1,0c-0.2-0.1-0.3-0.2-0.2-0.4c0,0,0-0.1,0.1-0.1l1.9,0h0c0,0,0.1,0,0.1,0.1
				c0,0.2,0,0.3-0.1,0.3c-0.1,0.1-0.2,0-0.3,0c0,0-0.1,0.1-0.2,0.1c-0.1,0-0.1,0-0.2-0.1c-0.1,0.1-0.2,0.1-0.3,0.1
				c-0.1,0-0.2,0-0.2-0.1C-208.4,394.7-208.5,394.8-208.6,394.8z M-208.9,394.4c0,0.1,0.1,0.2,0.2,0.2c0.1,0,0.2,0,0.3-0.1
				c0,0,0,0,0.1,0c0,0,0,0,0.1,0c0,0.1,0.1,0.1,0.2,0.1c0,0,0,0,0,0c0.1,0,0.2,0,0.2-0.1c0,0,0,0,0.1,0c0,0,0,0,0,0c0,0,0,0,0.1,0
				c0,0.1,0.1,0.1,0.1,0.1c0,0,0,0,0,0c0.1,0,0.1-0.1,0.2-0.1c0,0,0.1,0,0.1,0c0.1,0.1,0.2,0.1,0.3,0.1c0,0,0.1-0.1,0.1-0.2
				L-208.9,394.4z"/>
		</g>
		<g>
			<path class="st6" d="M-204.7,395.1l-2.4,0c0,0.2,0.2,0.3,0.4,0.2c0,0.2,0.3,0.3,0.5,0.1c0.1,0.2,0.6,0.3,0.7,0
				C-205.1,395.7-204.7,395.5-204.7,395.1L-204.7,395.1z"/>
		</g>
		<g>
			<path d="M-205.8,395.6c-0.1,0-0.3-0.1-0.4-0.1c-0.1,0.1-0.3,0.1-0.4,0c-0.1,0-0.1-0.1-0.2-0.2c-0.1,0-0.2,0-0.2,0
				c-0.1-0.1-0.2-0.2-0.2-0.3c0,0,0-0.1,0.1-0.1c0,0,0,0,0,0l2.4,0c0,0,0.1,0,0.1,0.1c0,0.2-0.1,0.4-0.2,0.5
				c-0.1,0.1-0.3,0.1-0.5-0.1C-205.5,395.6-205.6,395.6-205.8,395.6C-205.8,395.6-205.8,395.6-205.8,395.6z M-206.2,395.3
				C-206.2,395.3-206.2,395.3-206.2,395.3C-206.1,395.3-206.1,395.4-206.2,395.3c0.1,0.1,0.2,0.2,0.4,0.2c0,0,0,0,0,0
				c0.1,0,0.2,0,0.3-0.2c0,0,0,0,0,0s0,0,0.1,0c0.1,0.1,0.3,0.2,0.4,0.1c0.1-0.1,0.2-0.2,0.2-0.3l-2.2,0c0,0.1,0,0.1,0.1,0.1
				c0.1,0,0.1,0,0.2,0c0,0,0,0,0.1,0c0,0,0,0,0,0.1c0,0.1,0.1,0.1,0.1,0.1C-206.5,395.5-206.3,395.5-206.2,395.3
				C-206.2,395.3-206.2,395.3-206.2,395.3z"/>
		</g>
		<g>
			<path class="st6" d="M-204.8,397l-2.3,0c0,0.3,0.4,0.4,0.6,0.3c0.1,0.3,0.3,0.3,0.5,0.2c0.2,0.2,0.5,0.2,0.7,0
				C-205,397.5-204.8,397.3-204.8,397L-204.8,397z"/>
		</g>
		<g>
			<path d="M-205.6,397.6c-0.1,0-0.3-0.1-0.4-0.2c-0.1,0.1-0.2,0.1-0.4,0c-0.1,0-0.1-0.1-0.2-0.2c-0.1,0.1-0.3,0.1-0.4,0
				c-0.1-0.1-0.2-0.2-0.2-0.4c0,0,0,0,0,0c0,0,0,0,0,0l0,0l2.3,0c0,0,0.1,0,0.1,0.1c0,0.2,0,0.3-0.2,0.4c-0.1,0.1-0.2,0.1-0.3,0.1
				C-205.3,397.6-205.4,397.6-205.6,397.6C-205.6,397.6-205.6,397.6-205.6,397.6z M-206,397.3C-206,397.3-205.9,397.3-206,397.3
				c0.1,0.1,0.3,0.2,0.4,0.2c0.1,0,0.2-0.1,0.3-0.2c0,0,0,0,0.1,0c0.1,0,0.2,0,0.3,0c0.1-0.1,0.1-0.1,0.1-0.2l-2.2,0
				c0,0.1,0.1,0.2,0.2,0.2c0.1,0,0.2,0,0.3,0c0,0,0,0,0.1,0c0,0,0,0,0,0c0,0.1,0.1,0.1,0.1,0.2C-206.2,397.4-206.1,397.4-206,397.3
				C-206,397.3-206,397.3-206,397.3z"/>
		</g>
		<g>
			<path class="st6" d="M-204.9,398.7l-1.8,0c0,0.3,0.4,0.4,0.6,0.2c0.2,0.2,0.4,0.2,0.6,0C-205.3,399.1-205,399.1-204.9,398.7
				L-204.9,398.7z"/>
		</g>
		<g>
			<path d="M-205.3,399.1c-0.1,0-0.2,0-0.3-0.1c-0.1,0.1-0.2,0.1-0.3,0.1c0,0,0,0,0,0c-0.1,0-0.2-0.1-0.3-0.1
				c-0.1,0.1-0.3,0.1-0.4,0c-0.1-0.1-0.2-0.2-0.2-0.3c0,0,0,0,0,0c0,0,0,0,0,0h0l1.8,0c0,0,0,0,0,0s0,0,0,0c0,0.2-0.1,0.3-0.3,0.4
				C-205.2,399.1-205.2,399.1-205.3,399.1z M-206.2,398.8C-206.2,398.8-206.1,398.8-206.2,398.8c0.1,0.1,0.2,0.2,0.3,0.2
				c0.1,0,0.2,0,0.2-0.1c0,0,0.1,0,0.1,0c0.1,0.1,0.3,0.1,0.4,0.1c0.1,0,0.1-0.1,0.2-0.2l-1.7,0c0,0.1,0.1,0.1,0.1,0.1
				C-206.4,399-206.3,398.9-206.2,398.8C-206.2,398.8-206.2,398.8-206.2,398.8z"/>
		</g>
		<g>
			<path d="M-207.8,401.5c-1,0-2,0-2.7-0.1c-0.7-0.1-0.9-0.2-1.4-0.5c-0.7-0.4-0.9-0.5-1.8-1.1c-0.2-0.1-0.3,0-0.1,0.2
				c1,0.7,1.4,0.9,1.8,1.2c0.5,0.3,0.8,0.6,1.1,0.9c0.4,0.4,0.7,0.4,0.9,0.4c0.2-0.1,0.5-0.2,0.7-0.1c0.3,0.1,0.7,0.1,0.8,0
				c0.2,0.2,0.6,0.1,0.8,0.1c0.2-0.1,0.4-0.1,0.6,0c0.2,0,0.4,0,0.6,0c0.2,0,0.6-0.1,0.9,0c0.3,0,0.6,0,0.8,0c0.2-0.1,0.6,0,0.7,0
				c0.2-0.1,0.3-0.3,0.3-0.5c0.2,0,0.3,0,0.3-0.2c0.1-0.2,0.2-0.4,0.2-0.5h0.1l0-0.2l-0.2-0.2l0.1-0.4l0.2,0c0-0.1,0-0.3-0.1-0.3
				c-1.1,0-2.1,0.1-2.9,0.1c-0.1,0.1-0.2,0.2-0.2,0.4c-0.5,0.1-0.7,0.1-0.8,0.1c-0.1,0-0.2,0-0.3,0.2
				C-207.6,401.1-207.7,401.3-207.8,401.5L-207.8,401.5z"/>
		</g>
		<g>
			<path d="M-208,402.6c-0.2,0-0.3,0-0.5-0.1c-0.2,0-0.6,0-0.8,0c-0.3-0.1-0.5,0-0.7,0.1c-0.2,0.1-0.5,0.1-0.9-0.4
				c-0.3-0.4-0.6-0.6-1.1-0.9l-0.4-0.3c-0.3-0.2-0.7-0.5-1.4-0.9c-0.2-0.1-0.1-0.2-0.1-0.2c0-0.1,0.2-0.1,0.3,0
				c1,0.6,1.2,0.7,1.8,1.1c0.5,0.3,0.7,0.4,1.3,0.5c0.7,0.1,1.7,0.1,2.6,0.1c0.1-0.1,0.1-0.2,0.2-0.2c0.1-0.1,0.1-0.2,0.2-0.3
				c0.1-0.1,0.2-0.2,0.3-0.2c0.1,0,0.2,0,0.3-0.1c0.1,0,0.3,0,0.5-0.1c0-0.1,0.1-0.3,0.2-0.3c0,0,0,0,0,0c0.7,0,1.8,0,2.9-0.1
				c0,0,0,0,0.1,0c0,0.1,0.1,0.2,0.1,0.4c0,0,0,0,0,0.1l-0.1,0l0,0.3l0.1,0.2c0,0,0,0,0,0l0,0.2c0,0,0,0.1-0.1,0.1h0
				c0,0.1-0.1,0.3-0.2,0.5c-0.1,0.1-0.1,0.2-0.3,0.2c-0.1,0.2-0.2,0.3-0.3,0.5c0,0,0,0-0.1,0c-0.1,0-0.5,0-0.6,0
				c-0.2,0.1-0.5,0.1-0.8,0c-0.3,0-0.7,0-0.9,0c-0.1,0-0.4,0.1-0.6,0c-0.1,0-0.3,0-0.5,0C-207.6,402.6-207.8,402.6-208,402.6z
				 M-208.4,402.4C-208.4,402.4-208.4,402.4-208.4,402.4c0.2,0.1,0.5,0.1,0.8,0.1c0.2-0.1,0.4-0.1,0.6,0c0.2,0,0.4,0,0.5,0
				c0.1,0,0.6-0.1,0.9,0c0.3,0,0.6,0,0.8,0c0.2-0.1,0.5,0,0.7,0c0.1-0.1,0.2-0.2,0.3-0.4c0,0,0,0,0.1,0c0.2,0,0.2,0,0.3-0.1
				c0.1-0.3,0.2-0.4,0.2-0.5c0,0,0,0,0.1,0h0l0-0.1l-0.1-0.2c0,0,0,0,0-0.1l0.1-0.4c0,0,0,0,0-0.1l0.1,0c0-0.1,0-0.2-0.1-0.2
				c-1.1,0-2.1,0.1-2.8,0.1c-0.1,0.1-0.1,0.2-0.2,0.3c0,0,0,0-0.1,0.1c-0.2,0-0.4,0.1-0.5,0.1c-0.1,0-0.2,0-0.3,0
				c-0.1,0-0.2,0-0.2,0.1c-0.1,0.1-0.2,0.2-0.2,0.3c-0.1,0.1-0.1,0.2-0.2,0.3c0,0,0,0,0,0c-1,0-2,0-2.7-0.1
				c-0.7-0.1-0.9-0.2-1.4-0.5c-0.7-0.4-0.9-0.5-1.8-1.1c-0.1,0-0.1,0-0.1,0c0,0,0,0,0.1,0.1c0.7,0.5,1.1,0.7,1.4,0.9l0.4,0.3
				c0.5,0.3,0.8,0.6,1.1,1c0.3,0.3,0.6,0.4,0.8,0.4c0.2-0.1,0.5-0.2,0.8-0.1C-209,402.4-208.6,402.4-208.4,402.4
				C-208.4,402.4-208.4,402.4-208.4,402.4z"/>
		</g>
		<g>
			<path d="M-204.4,400.2c0.1-0.2,0.2-0.7,0.4-1.6c0-0.2-0.1-0.2-0.2,0c-0.3,1.1-0.4,1.5-0.4,1.6
				C-204.5,400.2-204.4,400.2-204.4,400.2L-204.4,400.2z"/>
		</g>
		<g>
			<path d="M-204.6,400.2C-204.6,400.2-204.6,400.2-204.6,400.2C-204.6,400.2-204.6,400.2-204.6,400.2c0-0.2,0.1-0.6,0.4-1.7
				c0-0.1,0.1-0.2,0.2-0.2c0.1,0,0.1,0.1,0.1,0.2c-0.3,0.9-0.4,1.4-0.4,1.6c0,0,0,0-0.1,0c0,0,0,0,0,0
				C-204.4,400.2-204.4,400.2-204.6,400.2C-204.5,400.2-204.5,400.2-204.6,400.2L-204.6,400.2z M-204,398.5
				C-204,398.5-204,398.5-204,398.5c-0.3,1-0.4,1.4-0.5,1.6c0,0,0,0,0,0C-204.4,399.9-204.2,399.4-204,398.5
				C-204,398.5-204,398.5-204,398.5z"/>
		</g>
		<g>
			<path class="st3" d="M-202.7,398.4c-0.4,0.2-0.5,0.3-0.7,0.2c-0.2-0.1-0.4-0.1-0.5,0c0,0,0,0,0,0c-0.2,0.6-0.3,1-0.3,1.2
				c0.3,0.1,0.7,0.1,0.8,0c0.1-0.1,0.4-0.1,0.6-0.1c0.1-0.1,0.1-0.3,0.1-0.4c0-0.1,0-0.2,0-0.3
				C-202.7,398.9-202.7,398.6-202.7,398.4L-202.7,398.4z"/>
		</g>
		<g>
			<path d="M-203.8,400c-0.2,0-0.4,0-0.5-0.1c0,0,0,0,0-0.1c0.1-0.3,0.2-0.7,0.3-1.2c0,0,0,0,0,0c0,0,0,0,0-0.1c0.1-0.1,0.4,0,0.6,0
				c0.1,0.1,0.3,0,0.6-0.2c0,0,0,0,0.1,0c0,0,0,0,0,0c0.1,0.2,0,0.6,0,0.7c0,0.1,0,0.2,0,0.3c0,0.1,0,0.3-0.1,0.4c0,0,0,0,0,0
				c0,0,0,0,0,0l0,0c-0.1,0-0.4,0-0.5,0.1C-203.5,399.9-203.6,400-203.8,400z M-204.2,399.8c0.3,0.1,0.6,0.1,0.7,0
				c0.1-0.1,0.4-0.1,0.6-0.1c0.1-0.1,0.1-0.2,0.1-0.3c0-0.1,0-0.2,0-0.4c0-0.1,0.1-0.4,0-0.6c-0.3,0.2-0.5,0.2-0.7,0.2
				c-0.1-0.1-0.3-0.1-0.4,0c0,0,0,0,0,0C-204,399.1-204.1,399.5-204.2,399.8z"/>
		</g>
		<g>
			<path d="M-211.9,400.8l-0.1,0c0-0.1,0-0.2,0-0.3c-0.1,0.1-0.1,0.1-0.2,0.2l-0.1-0.1c0.1-0.1,0.2-0.2,0.3-0.3
				c0.1-0.4,0.1-0.7,0.2-1c-0.4,0.4-0.8,0.8-1.1,1l-0.1-0.1c0.3-0.2,0.7-0.6,1.2-1.1c0.1-0.7,0.2-1.2,0.2-1.6l0.1,0
				c0,0.3-0.1,0.8-0.2,1.4c0.5-0.5,1.1-1.1,1.5-1.6c-0.2-0.1-0.4-0.2-0.4-0.3l0.1-0.1c0,0,0.2,0.2,0.4,0.3c0.4-0.4,0.7-0.9,0.8-1.1
				l0.1,0c-0.1,0.3-0.4,0.7-0.8,1.2c0.2,0.1,0.4,0.2,0.5,0.2l0,0.1c-0.1,0-0.4-0.1-0.6-0.2c-0.5,0.6-1.1,1.2-1.7,1.8
				c0,0.3-0.1,0.6-0.2,1c0.1-0.1,0.1-0.1,0.2-0.2c0.2-0.2,0.3-0.3,0.5-0.5l0.1,0.1c-0.1,0.1-0.3,0.3-0.5,0.5
				c-0.1,0.1-0.2,0.2-0.3,0.3C-211.8,400.5-211.9,400.7-211.9,400.8z M-205.7,400.3l-0.1-0.1c0.3-0.2,0.5-0.4,0.8-0.6
				c-0.4-0.3-0.8-0.7-1.1-1.1c-0.2,0.2-0.4,0.3-0.5,0.3l0-0.1c0.1,0,0.3-0.1,0.5-0.3c-0.4-0.4-0.7-0.9-1.1-1.3l0,0.1
				c-0.2-0.1-0.4-0.3-0.5-0.4c-0.1-0.1-0.1-0.1-0.2-0.2l0.1-0.1c0.1,0,0.1,0.1,0.2,0.2c0.1,0.1,0.3,0.3,0.4,0.3
				c-0.4-0.6-0.8-1.2-1.1-1.6c-0.2,0.1-0.4,0.2-0.5,0.2l0-0.1c0.1,0,0.3-0.1,0.5-0.2c-0.1-0.2-0.2-0.4-0.3-0.5l0.1-0.1
				c0.1,0.2,0.2,0.3,0.3,0.5c0.1-0.1,0.2-0.1,0.3-0.2l0.1,0.1c-0.1,0.1-0.2,0.2-0.3,0.2c0.6,0.9,1.4,2.1,2.3,3c0,0,0,0,0,0l0.1,0.1
				c0,0,0,0,0,0.1c0.4,0.4,0.8,0.8,1.1,1.1c0.2-0.2,0.3-0.3,0.5-0.5c-0.8-0.5-1.5-1.3-2.1-2.1c-0.2,0.1-0.3,0.2-0.5,0.2l0-0.1
				c0.1,0,0.3-0.1,0.4-0.2c-0.2-0.3-0.4-0.6-0.5-0.8l0.1-0.1c0.1,0.3,0.3,0.5,0.5,0.8c0.1-0.1,0.3-0.2,0.3-0.3l0.1,0.1
				c-0.1,0.1-0.2,0.2-0.4,0.3c0.5,0.7,1.2,1.4,1.9,1.9c-0.4-0.8-0.6-1.7-1-2.8l-0.1-0.4l0.1,0l0.1,0.4c0.3,1.2,0.6,2.2,1.1,3
				c0-0.1,0.1-0.1,0.1-0.2l0.1,0.1c0,0.1-0.1,0.1-0.1,0.2c0,0,0,0,0,0l0,0.1c0,0,0,0,0,0l-0.1,0.1c0,0,0,0,0,0
				c-0.1,0.2-0.3,0.3-0.4,0.5c0.1,0.1,0.2,0.2,0.3,0.2l-0.1,0.1c-0.1-0.1-0.2-0.2-0.4-0.3C-205.1,399.9-205.4,400.1-205.7,400.3z
				 M-213.5,399.9L-213.5,399.9c0.6-0.7,1.6-2.5,2.1-3.7c0,0,0,0,0,0l0-0.1c0,0,0.1,0,0.2-0.1c0.1-0.3,0.2-0.5,0.3-0.7l0.1,0
				c-0.1,0.2-0.1,0.4-0.2,0.6c0.2-0.1,0.4-0.2,0.5-0.3l0.1,0.1c-0.1,0.1-0.4,0.3-0.6,0.4C-211.8,397.4-212.8,399.2-213.5,399.9z
				 M-209.4,399.1c-0.3,0-0.6-0.2-1-0.5c-0.3,0.2-0.7,0.4-0.9,0.5l0-0.1c0.2-0.1,0.6-0.3,0.9-0.5l0,0c0,0,0,0,0,0
				c0.3-0.2,0.5-0.4,0.7-0.6l0.1,0.1c-0.2,0.2-0.4,0.4-0.7,0.6c0.4,0.3,0.7,0.4,0.9,0.5L-209.4,399.1z M-205.2,398.8
				c-0.2-0.1-0.6-0.4-0.7-0.6l0.1-0.1c0.1,0.2,0.5,0.5,0.7,0.5L-205.2,398.8z M-207.1,398.5c-0.4-0.1-0.8-0.5-0.9-0.6l0.1-0.1
				c0.3,0.3,0.6,0.5,0.8,0.6L-207.1,398.5z M-208.9,398.5l0-0.1c0.2-0.1,0.5-0.4,0.8-0.6l0,0l0.1,0.1l0,0
				C-208.3,398.1-208.6,398.4-208.9,398.5z M-211.4,397.6l0-0.1c0.2-0.1,0.5-0.2,0.7-0.5l0.1,0.1
				C-210.8,397.4-211.2,397.6-211.4,397.6z M-205.3,397c-0.2-0.1-0.5-0.5-0.6-0.6l0.1-0.1c0.1,0.2,0.4,0.5,0.6,0.6L-205.3,397z
				 M-209,397l0-0.1c0.4-0.1,0.8-0.4,0.9-0.5l0.1,0.1C-208.2,396.6-208.6,396.9-209,397z M-209.4,396.2c-0.4,0-0.9-0.3-1.1-0.5
				l0.1-0.1c0.1,0.1,0.7,0.4,1,0.4V396.2z M-207.1,395.5c-0.2-0.1-0.7-0.3-0.9-0.6l0.1-0.1c0.2,0.2,0.6,0.5,0.9,0.5L-207.1,395.5z
				 M-205.4,395.1c-0.2,0-0.5-0.3-0.6-0.5l0.1-0.1c0.1,0.2,0.4,0.4,0.5,0.4L-205.4,395.1z M-206.8,395.1
				C-206.8,395.1-206.8,395.1-206.8,395.1l0-0.1c0,0,0,0,0,0c0.2,0,0.5-0.2,0.7-0.4l0.1,0.1C-206.2,394.8-206.6,395.1-206.8,395.1z
				 M-209.7,395.1c-0.3,0-0.7-0.4-0.8-0.6l0.1-0.1c0.1,0.2,0.5,0.5,0.8,0.6L-209.7,395.1z M-211.4,395.1l0-0.1
				c0.2-0.1,0.4-0.3,0.8-0.6l0.1,0.1C-210.9,394.8-211.2,395-211.4,395.1z M-208.9,394.4l0-0.1c0.3-0.1,0.6-0.2,0.7-0.4l0.1,0.1
				C-208.3,394.3-208.7,394.4-208.9,394.4z M-207.2,394.4c-0.3,0-0.7-0.3-0.9-0.5l0.1-0.1c0.3,0.2,0.6,0.5,0.9,0.5L-207.2,394.4z"/>
		</g>
		<g>
			<path d="M-209.4,401.5C-209.5,401.5-209.5,401.5-209.4,401.5l-0.6-1.6l0.5,1.5c0,0,0,0.1,0,0.1c0,0-0.1,0-0.1,0l-0.4-1.3l0.4,1.3
				c0,0,0,0.1,0,0.1c0,0-0.1,0-0.1,0l-0.3-1l0.2,0.9c0,0,0,0.1,0,0.1c0,0-0.1,0-0.1,0l-0.4-2c0,0,0-0.1,0-0.1c0,0,0,0,0,0
				c0,0,0,0,0,0c0,0,0.1,0,0.1,0l0,0.1c0,0,0,0,0,0c0,0,0.1,0,0.1,0l0,0c0,0,0,0,0,0c0,0,0.1,0,0.1,0L-209.4,401.5
				C-209.4,401.5-209.4,401.5-209.4,401.5C-209.4,401.5-209.4,401.5-209.4,401.5z"/>
		</g>
		<g>
			<path d="M-209.5,401.4h-0.6v-0.1h0.6V401.4z M-209.6,401.2h-0.5v-0.1h0.5V401.2z M-209.6,401h-0.5v-0.1h0.5V401z M-209.7,400.9
				h-0.5v-0.1h0.5V400.9z M-209.7,400.7h-0.5v-0.1h0.5V400.7z M-210.1,399.8h-0.3v-0.1h0v-0.1h0v-0.1h0.3v0.1h0v0.1h0V399.8z"/>
		</g>
		<g>
			<path d="M-210.9,401.4C-210.9,401.4-210.9,401.4-210.9,401.4C-210.9,401.4-210.9,401.3-210.9,401.4l0.1-1.6l-0.2,1.5
				c0,0,0,0.1-0.1,0.1c0,0,0,0,0,0c0,0-0.1,0-0.1-0.1l0.1-0.8l-0.2,0.8c0,0,0,0.1-0.1,0c0,0-0.1,0,0-0.1l0.3-1.3l-0.3,1.2
				c0,0,0,0.1-0.1,0c0,0-0.1,0,0-0.1l0.4-1.6c0,0,0,0,0.1,0c0,0,0,0,0,0l0,0c0,0,0-0.1,0.1,0c0,0,0,0,0,0l0,0c0,0,0-0.1,0.1-0.1
				c0,0,0,0,0,0l0,0c0,0,0-0.1,0.1-0.1c0,0,0,0,0,0c0,0,0.1,0,0.1,0.1L-210.9,401.4C-210.8,401.4-210.8,401.4-210.9,401.4z"/>
		</g>
		<g>
			<polygon points="-210.6,401.4 -210.7,401.4 -210.7,401.3 -211.2,401.3 -211.2,401.1 -210.7,401.1 -210.7,401.1 -211.3,401.1 
				-211.3,401 -210.7,401 -210.7,400.9 -211.3,400.9 -211.3,400.8 -210.7,400.8 -210.7,400.7 -211.3,400.7 -211.3,400.6 
				-210.7,400.6 -210.7,400.6 -211.2,400.6 -211.2,400.4 -210.7,400.4 -210.7,400.4 -211.2,400.4 -211.2,400.3 -210.7,400.3 
				-210.7,400.2 -211.1,400.2 -211.1,400.1 -210.7,400.1 -210.7,400 -211.1,400 -211.1,399.9 -210.7,399.9 -210.7,399.9 -211,399.9 
				-211,399.8 -210.7,399.8 -210.7,399.7 -211,399.7 -211,399.6 -211,399.6 -211,399.5 -210.7,399.5 -210.7,399.4 -210.6,399.4 			
				"/>
		</g>
		<g>
			<path d="M-209.2,401.5C-209.2,401.5-209.2,401.5-209.2,401.5C-209.3,401.5-209.3,401.5-209.2,401.5l0.6-2.1l-0.8,2c0,0,0,0-0.1,0
				c0,0,0,0,0-0.1l0.7-1.7l-0.9,1.8c0,0-0.1,0-0.1,0c0,0,0-0.1,0-0.1l1.3-2.6c0,0,0,0,0.1,0l0,0c0,0,0,0,0.1,0c0,0,0,0,0,0
				c0,0,0,0,0.1,0c0,0,0,0,0,0c0,0,0,0,0,0c0,0,0.1,0,0,0.1l-0.7,2.7c0,0,0,0.1-0.1,0c0,0-0.1,0,0-0.1l0.5-1.8L-209.2,401.5
				C-209.2,401.5-209.2,401.5-209.2,401.5z"/>
		</g>
		<g>
			<path d="M-208.9,401.4h-0.8v-0.1h0.8V401.4z M-208.9,401.2h-0.8V401h0.8V401.2z M-208.8,401h-0.7v-0.1h0.7V401z M-208.8,400.8
				h-0.7v-0.1h0.7V400.8z M-208.7,400.6h-0.6v-0.1h0.6V400.6z M-208.7,400.4h-0.6v-0.1h0.6V400.4z M-208.6,400.2h-0.5V400h0.5V400.2
				z M-208.6,400h-0.5v-0.1h0.5V400z M-208.5,399.8h-0.4v-0.1h0.4V399.8z M-208.4,399.4h-0.3v-0.1h0.1v-0.1h0.1V399h0.1v-0.1h0.1
				v-0.1h0.2v0.1h0v0.1h0v0.1h0v0.1h0V399.4z"/>
		</g>
		<g>
			<path d="M-206.9,400.7C-206.9,400.7-206.9,400.7-206.9,400.7l-0.6-1.9c0,0,0-0.1,0-0.1s0.1,0,0.1,0l0,0c0,0,0,0,0,0
				c0,0,0.1,0,0.1,0c0,0,0,0,0,0c0,0,0.1,0,0.1,0c0,0,0,0,0-0.1c0,0,0.1,0,0.1,0l0.9,1.6c0,0,0,0.1,0,0.1c0,0-0.1,0-0.1,0l-0.8-1.5
				l0.7,1.6c0,0,0,0.1,0,0.1c0,0-0.1,0-0.1,0l-0.6-1.2l0.5,1.2c0,0,0,0.1,0,0.1c0,0-0.1,0-0.1,0l-0.5-1.3L-206.9,400.7
				C-206.8,400.7-206.8,400.7-206.9,400.7C-206.9,400.7-206.9,400.7-206.9,400.7z"/>
		</g>
		<g>
			<path d="M-206.2,400.5h-0.7v-0.1h0.7V400.5z M-206.4,400.3h-0.7v-0.1h0.7V400.3z M-206.5,400.1h-0.6V400h0.6V400.1z
				 M-206.6,399.9h-0.5v-0.1h0.5V399.9z M-206.7,399.6h-0.5v-0.1h0.5V399.6z M-206.9,399.4h-0.4v-0.1h0.4V399.4z"/>
		</g>
		<g>
			<path d="M-206.9,400.7C-206.9,400.7-206.9,400.7-206.9,400.7C-207,400.7-207,400.7-206.9,400.7l0.5-1.8c0,0,0,0,0.1,0
				c0,0,0.1,0,0,0.1L-206.9,400.7C-206.9,400.7-206.9,400.7-206.9,400.7z M-206.7,400.7C-206.7,400.7-206.7,400.7-206.7,400.7
				C-206.8,400.7-206.8,400.7-206.7,400.7l0.5-1.8c0,0,0-0.1,0.1,0c0,0,0.1,0,0,0.1c0,0,0,0,0.1,0c0,0,0,0,0,0.1c0,0,0,0,0,0
				c0,0,0.1,0,0,0.1l-0.3,1.5c0,0,0,0.1-0.1,0c0,0-0.1,0,0-0.1l0.2-0.9l-0.2,1c0,0,0,0.1-0.1,0c0,0-0.1,0,0-0.1l0.4-1.5
				L-206.7,400.7C-206.7,400.7-206.7,400.7-206.7,400.7z"/>
		</g>
		<g>
			<path d="M-206.3,400.5h-0.6v-0.1h0.6V400.5z M-206.2,400.3h-0.5v-0.1h0.5V400.3z M-206.2,400.1h-0.5V400h0.5V400.1z
				 M-206.2,399.9h-0.5v-0.1h0.5V399.9z M-206.1,399.7h-0.5v-0.1h0.5V399.7z"/>
		</g>
		<g>
			<path d="M-205.5,400.3C-205.5,400.3-205.5,400.2-205.5,400.3l-0.3-1.2c0,0,0-0.1,0-0.1c0,0,0,0,0.1,0c0,0,0-0.1,0-0.1
				c0,0,0.1,0,0.1,0l0.4,1.2c0,0,0,0.1,0,0.1c0,0-0.1,0-0.1,0l-0.3-1L-205.5,400.3C-205.4,400.2-205.4,400.3-205.5,400.3
				C-205.4,400.3-205.5,400.3-205.5,400.3z M-205.1,400.3C-205.1,400.3-205.1,400.2-205.1,400.3l-0.5-1.2c0,0,0-0.1,0-0.1
				c0,0,0.1,0,0.1,0L-205.1,400.3C-205,400.2-205,400.2-205.1,400.3C-205.1,400.3-205.1,400.3-205.1,400.3z M-204.9,400.3
				C-204.9,400.3-205,400.2-204.9,400.3l-0.5-1.2c0,0,0-0.1,0-0.1c0,0,0.1,0,0.1,0L-204.9,400.3
				C-204.8,400.2-204.9,400.2-204.9,400.3C-204.9,400.2-204.9,400.3-204.9,400.3z"/>
		</g>
		<g>
			<path d="M-205,400.2h-0.5V400h0.5V400.2z M-205,400h-0.5v-0.1h0.5V400z M-205.1,399.8h-0.5v-0.1h0.5V399.8z M-205.1,399.6h-0.5
				v-0.1h0.5V399.6z M-205.2,399.5h-0.4v-0.1h0.4V399.5z"/>
		</g>
		<g>
			<path class="st8" d="M-210.7,402.1c0.3-0.2,0.7-0.1,0.9,0c0.3-0.2,0.8-0.1,1,0.1c0.3-0.2,0.6-0.3,1,0c0.3-0.2,0.7-0.2,1,0
				c0.3-0.1,0.6-0.3,0.9,0.1c-0.2-0.1-0.6-0.2-0.9,0.1c-0.3-0.3-0.8-0.2-1,0c-0.2-0.3-0.7-0.3-1,0c-0.3-0.3-0.8-0.3-1-0.1
				C-210,402.1-210.3,402-210.7,402.1L-210.7,402.1z"/>
		</g>
		<g>
			<path class="st7" d="M-206.1,401.7c-1.3,0.2-4.3,0.1-4.9-0.1c-0.2-0.1-0.2-0.1,0-0.1c0.7,0.2,2.3,0.2,3.2,0.1
				c0.2-0.2,0.4-0.6,0.5-0.7c0.1-0.1,0.1-0.1,0.3-0.1c0.3-0.1,0.5-0.1,0.7-0.1c0,0,0,0.1,0,0.1c0,0,0,0-0.1,0.1c0,0.2,0,0.6,0.1,0.7
				c0,0,0.1,0,0.1,0C-206.1,401.5-206,401.7-206.1,401.7L-206.1,401.7z"/>
		</g>
		<g>
			<path class="st7" d="M-203.9,401.8c0,0,0.1,0,0.2,0c0.1,0,0.1,0,0.2-0.1c0-0.1,0.1-0.4,0.2-0.5l-0.1-0.2c0-0.2,0.1-0.4,0.1-0.4
				c0.1,0,0.1-0.1,0.2-0.1c0,0,0-0.1,0-0.2c-0.6,0-2.3,0.1-2.6,0.1c-0.1,0-0.1,0-0.1,0.1c-0.2,0.6,0.1,1.4,0.7,1.9c0,0,0.1,0,0-0.1
				c-0.1-0.1-0.3-0.3-0.4-0.5c0.1,0,0.4,0,0.4,0c0,0.1,0.1,0.4,0.2,0.5s0.1,0.1,0,0c-0.1-0.2-0.1-0.4-0.1-0.5c0.1,0,0.3,0,0.4,0
				c0,0.2,0,0.4,0,0.4c0,0.1,0.1,0.1,0.1,0c0-0.1,0-0.4,0-0.4c0.1,0,0.3,0,0.4,0c0,0.1,0,0.4,0,0.4c0,0.1,0,0.1,0,0
				c0-0.1,0.1-0.3,0.1-0.4C-204.2,401.8-204,401.8-203.9,401.8c-0.1,0.1-0.2,0.4-0.2,0.4c0,0.1,0,0.1,0,0
				C-204,402.1-203.9,401.9-203.9,401.8L-203.9,401.8z"/>
		</g>
		<g>
			<path d="M-205.8,401.7c0-0.1-0.2-0.4-0.2-0.7c0.1,0,0.4,0,0.6,0c0,0.2,0.1,0.6,0.1,0.7C-205.5,401.7-205.7,401.7-205.8,401.7
				L-205.8,401.7z"/>
		</g>
		<g>
			<path d="M-205.3,401c0,0.1,0.1,0.6,0.1,0.7c0.1,0,0.4,0,0.5,0c0-0.1,0-0.6,0-0.7C-204.9,401-205.3,401-205.3,401L-205.3,401z"/>
		</g>
		<g>
			<path d="M-206,400.4c0,0.1,0,0.4,0,0.5c0.1,0,0.5,0,0.6,0c0-0.1,0-0.4,0-0.5C-205.6,400.4-205.9,400.4-206,400.4L-206,400.4z"/>
		</g>
		<g>
			<path d="M-205.4,400.4c0,0.1,0,0.4,0,0.5c0.1,0,0.4,0,0.5,0c0-0.1,0-0.5,0-0.5C-205,400.4-205.3,400.4-205.4,400.4L-205.4,400.4z
				"/>
		</g>
		<g>
			<path d="M-204.7,400.4c0,0.1,0,0.4,0,0.5c0.1,0,0.4,0,0.5,0c0-0.1,0-0.4,0-0.5C-204.4,400.4-204.6,400.4-204.7,400.4
				L-204.7,400.4z"/>
		</g>
		<g>
			<path d="M-204.1,400.4c0,0.1,0,0.4,0,0.5c0.1,0,0.4,0,0.5,0c0-0.1,0.1-0.4,0.1-0.5C-203.7,400.4-204,400.4-204.1,400.4
				L-204.1,400.4z"/>
		</g>
		<g>
			<path d="M-203.6,401c-0.2,0-0.5,0-0.5,0c0,0.2,0,0.6-0.1,0.7c0.2,0,0.5,0,0.5,0c0.1-0.1,0.2-0.4,0.2-0.5
				C-203.5,401.1-203.5,401-203.6,401L-203.6,401z"/>
		</g>
		<g>
			<path d="M-204.7,401c0,0.1,0,0.6,0,0.7c0.1,0,0.4,0,0.4,0c0-0.2,0-0.6,0.1-0.7C-204.4,401-204.6,401-204.7,401L-204.7,401z"/>
		</g>
		<g>
			<path d="M-206.9,400.9l-0.2,0c-0.1,0.2-0.5,0.7-0.5,0.7c0.3,0,0.7,0,0.8,0C-206.9,401.5-206.9,400.9-206.9,400.9L-206.9,400.9z"
				/>
		</g>
		<g>
			<path d="M-206.8,400.9c0,0.2,0,0.6,0,0.8c0.1,0,0.4,0,0.5,0c0-0.2-0.1-0.7-0.1-0.8C-206.5,400.8-206.7,400.8-206.8,400.9
				L-206.8,400.9z"/>
		</g>
		<g>
			<path d="M-209.1,399C-209.1,399-209.1,399-209.1,399l-2.5,0c0,0,0,0,0,0L-209.1,399L-209.1,399z"/>
		</g>
		<g>
			<path d="M-209.1,399.1C-209.1,399.1-209.1,399.1-209.1,399.1l-2.5,0l-0.1,0l0,0c0,0,0-0.1,0.1-0.1l2.5,0
				C-209.1,399-209,399-209.1,399.1C-209,399.1-209.1,399.1-209.1,399.1z"/>
		</g>
		<g>
			<path d="M-207.1,397C-207.1,397-207.1,397-207.1,397l-2,0c0,0,0,0,0,0L-207.1,397L-207.1,397z"/>
		</g>
		<g>
			<path d="M-207.1,397.1C-207.1,397.1-207.1,397.1-207.1,397.1l-2-0.1c0,0-0.1,0-0.1,0l0,0l0,0c0,0,0,0,0.1,0c0,0,0,0,0,0l2,0.1
				c0,0,0.1,0,0.1,0L-207.1,397.1L-207.1,397.1C-207.1,397.1-207.1,397.1-207.1,397.1z"/>
		</g>
		<g>
			<path d="M-209.2,397.6C-209.2,397.6-209.2,397.6-209.2,397.6l-2.2,0c0,0,0,0,0,0L-209.2,397.6L-209.2,397.6z"/>
		</g>
		<g>
			<path d="M-209.2,397.7C-209.2,397.7-209.2,397.7-209.2,397.7l-2.2,0c0,0-0.1,0-0.1,0l0,0l0,0c0,0,0,0,0.1,0l2.2,0
				C-209.2,397.5-209.2,397.6-209.2,397.7C-209.2,397.6-209.2,397.7-209.2,397.7z"/>
		</g>
		<g>
			<path d="M-209.2,396.1C-209.1,396.1-209.1,396.2-209.2,396.1l-2.3,0c0,0,0,0,0,0L-209.2,396.1L-209.2,396.1z"/>
		</g>
		<g>
			<path d="M-209.2,396.2C-209.2,396.2-209.2,396.2-209.2,396.2l-2.3,0l-0.1,0l0,0c0,0,0-0.1,0.1-0.1l2.3,0
				C-209.1,396.1-209.1,396.1-209.2,396.2C-209.1,396.2-209.1,396.2-209.2,396.2z"/>
		</g>
		<g>
			<path d="M-209.3,395C-209.3,395-209.3,395-209.3,395l-2.3,0c0,0,0,0,0,0L-209.3,395L-209.3,395z"/>
		</g>
		<g>
			<path d="M-209.3,395.1C-209.3,395.1-209.3,395.1-209.3,395.1l-2.3,0c0,0-0.1,0-0.1,0l0,0l0,0c0,0,0,0,0.1,0c0,0,0,0,0,0l2.3,0
				C-209.3,395-209.2,395-209.3,395.1C-209.2,395.1-209.3,395.1-209.3,395.1z"/>
		</g>
		<g>
			<path d="M-207,394.3C-207,394.3-207,394.4-207,394.3l-1.9,0c0,0,0,0,0,0L-207,394.3L-207,394.3z"/>
		</g>
		<g>
			<path d="M-208.9,394.5C-209,394.5-209,394.4-208.9,394.5L-208.9,394.5l-0.1-0.1c0,0,0,0,0.1,0l1.9,0c0,0,0.1,0,0.1,0.1
				c0,0,0,0,0,0.1c0,0,0,0,0,0L-208.9,394.5C-208.9,394.5-208.9,394.5-208.9,394.5z"/>
		</g>
		<g>
			<path d="M-206.9,395.4C-206.9,395.4-206.8,395.5-206.9,395.4l-2.1,0c0,0,0,0,0,0H-206.9L-206.9,395.4z"/>
		</g>
		<g>
			<path d="M-206.9,395.5h-2.2l-0.1,0l0,0c0,0,0-0.1,0.1-0.1h2.1C-206.8,395.4-206.8,395.4-206.9,395.5
				C-206.8,395.5-206.8,395.5-206.9,395.5C-206.8,395.5-206.9,395.5-206.9,395.5z"/>
		</g>
		<g>
			<path d="M-204.8,397C-204.8,397-204.7,397-204.8,397l-2.3,0c0,0,0,0,0,0H-204.8L-204.8,397z"/>
		</g>
		<g>
			<path d="M-204.8,397.1h-2.3l-0.1,0l0,0c0,0,0-0.1,0.1-0.1h2.3C-204.7,396.9-204.7,396.9-204.8,397.1
				C-204.7,397-204.7,397-204.8,397.1C-204.7,397.1-204.8,397.1-204.8,397.1z"/>
		</g>
		<g>
			<path d="M-204.7,395C-204.7,395-204.7,395.1-204.7,395l-2.4,0c0,0,0,0,0,0L-204.7,395L-204.7,395z"/>
		</g>
		<g>
			<path d="M-204.7,395.1l-2.4,0l-0.1,0l0,0c0,0,0-0.1,0.1-0.1l2.4,0C-204.7,395-204.7,395-204.7,395.1
				C-204.7,395.1-204.7,395.1-204.7,395.1C-204.7,395.1-204.7,395.1-204.7,395.1z"/>
		</g>
		<g>
			<path d="M-206.9,398.4C-206.9,398.4-206.9,398.5-206.9,398.4l-2.1,0c0,0,0,0,0,0L-206.9,398.4L-206.9,398.4z"/>
		</g>
		<g>
			<path d="M-206.9,398.5l-2.1,0l-0.1,0l0,0c0,0,0-0.1,0.1-0.1l2.1,0C-206.9,398.4-206.8,398.4-206.9,398.5
				C-206.8,398.5-206.9,398.5-206.9,398.5C-206.9,398.5-206.9,398.5-206.9,398.5z"/>
		</g>
		<g>
			<path d="M-204.9,398.7C-204.9,398.7-204.9,398.7-204.9,398.7l-1.8,0c0,0,0,0,0,0L-204.9,398.7L-204.9,398.7z"/>
		</g>
		<g>
			<path d="M-204.9,398.8C-204.9,398.8-204.9,398.8-204.9,398.8l-1.8,0c0,0-0.1,0-0.1,0l0,0l0,0c0,0,0,0,0.1,0c0,0,0,0,0,0l1.8,0
				C-204.8,398.7-204.8,398.7-204.9,398.8C-204.8,398.8-204.8,398.8-204.9,398.8z"/>
		</g>
		<g>
			<path class="st4" d="M-203.3,399.1c0.1-0.1,0.1-0.4,0-0.5c-0.1,0-0.1,0-0.2,0c0,0-0.1,0-0.1,0c0,0.1-0.1,0.5-0.1,0.6
				c-0.1,0-0.3,0-0.4,0c0,0.1-0.1,0.2-0.1,0.3c0.1,0,0.3,0,0.5,0c0,0.2,0,0.4-0.1,0.5c0.2,0,0.3,0,0.4-0.1c0,0,0,0,0,0
				c0.1-0.1,0.1-0.3,0.1-0.4c0.1,0,0.1,0,0.2,0c0,0,0.1-0.1,0.1,0c0,0,0.1,0,0.2,0c0-0.1,0-0.1,0-0.2c0,0,0-0.1,0-0.1
				C-202.9,399-203.1,399.1-203.3,399.1L-203.3,399.1z"/>
		</g>
		<g>
			<path d="M-203.8,400C-203.9,400-203.9,400-203.8,400c-0.1-0.1-0.1-0.1-0.1-0.1c0.1-0.1,0.1-0.2,0.1-0.4c-0.1,0-0.3,0-0.4,0
				c0,0,0,0,0,0s0,0,0,0c0-0.1,0.1-0.2,0.1-0.3c0,0,0,0,0,0c0,0,0,0,0,0c0.1,0,0.3,0.1,0.4,0c0-0.1,0.1-0.4,0.1-0.5c0,0,0,0,0,0
				c0,0,0,0,0.1,0c0,0,0.1,0,0.1,0c0.1,0,0.1,0,0.2,0c0,0,0.1,0,0.1,0c0,0.1,0,0.3,0,0.4c0.1,0,0.3-0.1,0.4-0.1c0,0,0,0,0.1,0
				c0,0,0,0,0,0.1c0,0.1,0,0.1,0,0.2c0,0,0,0.1,0,0.2c0,0,0,0,0,0.1c-0.1,0-0.2,0.1-0.2,0.1c0,0,0,0,0,0c0,0-0.1,0-0.1,0
				c0,0-0.1,0.1-0.2,0.1c0,0,0,0,0,0c0,0.1,0,0.3-0.1,0.4c0,0,0,0,0,0C-203.5,399.9-203.7,400-203.8,400z M-203.7,399.3
				C-203.7,399.3-203.7,399.3-203.7,399.3C-203.6,399.4-203.6,399.4-203.7,399.3c0.1,0.2,0,0.4,0,0.5c0.1,0,0.2,0,0.2-0.1
				c0,0,0,0,0,0c0.1-0.1,0.1-0.2,0.1-0.3c0,0,0-0.1,0-0.1c0,0,0,0,0.1-0.1c0.1,0,0.1,0,0.1,0c0,0,0.1-0.1,0.2-0.1c0,0,0,0,0,0
				c0,0,0.1,0,0.1,0c0-0.1,0-0.1,0-0.2c0,0,0,0,0,0c-0.1,0.1-0.3,0.1-0.4,0.1c0,0,0,0-0.1,0c0,0,0,0,0-0.1c0-0.1,0-0.3,0-0.4
				c-0.1,0-0.1,0-0.2,0c0,0,0,0,0,0c0,0.2-0.1,0.4-0.1,0.5c0,0,0,0,0,0c-0.1,0-0.3,0-0.4,0c0,0.1,0,0.1,0,0.2
				C-204,399.4-203.8,399.4-203.7,399.3C-203.7,399.3-203.7,399.3-203.7,399.3z"/>
		</g>
		<g>
			<path d="M-211.3,388c-0.3,0-0.8,0-0.9,0.1c-0.1,0.1-0.2,0.1,0,0.1c0.2,0,0.6,0.1,0.7,0.3c0.2,0.1,0.4,0.3,0.3,0.6
				c-0.2,0.9,0.3,1.8,1,2.1c0.1,0,0.1,0.1,0.1,0.2c0,0.1-0.1,0.3-0.1,0.4c0,0.1-0.1,0.1,0.1,0.1c-0.1,0.2-0.3,0.5-0.3,0.5
				c-0.5-0.1-1,0-1,0.6c0,0.1,0,0.1,0.1,0c0.1-0.1,0.2-0.3,0.4-0.3c-0.1,0.2-0.2,0.4-0.2,0.5c0,0.1,0.1,0.2,0.1,0
				c0.1-0.2,0.2-0.3,0.3-0.4c0,0,0.1,0,0,0.1c0,0.1,0,0.3,0.1,0.4c0.1,0.1,0.1,0,0.1-0.1c0-0.1,0-0.4,0.2-0.4
				c0.2-0.1,0.4-0.1,0.5,0.1c0.1,0.1,0.2,0,0.1-0.2c-0.1-0.2-0.2-0.3-0.3-0.3c0.1-0.2,0.3-0.5,0.3-0.6c0-0.1,0.1-0.1,0.1,0
				c0,0,0.1,0,0.1-0.1c0-0.1,0.1-0.4,0.2-0.5c0.1,0,0.1,0,0.2-0.1c0.1,0.2,0.3,0.4,0.3,0.5c0,0.1,0.1,0.1,0,0.2
				c0,0.1-0.1,0.4-0.2,0.5c-0.4,0-0.6,0-0.7,0.2c-0.1,0.1,0,0.1,0.1,0.1c0.1-0.1,0.2-0.1,0.3-0.1c0.1,0,0.1,0,0,0.1
				c-0.2,0.1-0.4,0.3-0.4,0.5c0,0.1,0,0.1,0.1,0c0.1-0.1,0.2-0.3,0.4-0.3c0,0.2,0,0.4,0.1,0.5c0.1,0.1,0.1,0,0.1-0.1
				c-0.1-0.2,0-0.3,0.1-0.4c0.2-0.2,0.6,0.1,0.6,0.1c0.1,0.1,0.1,0.1,0.1-0.1c-0.1-0.2-0.4-0.4-0.7-0.4c0.1-0.4,0.3-1.1,0.4-1.4
				c0.2,0.1,0.3-0.1,0.6,0c0.5,0.2,1.1,0.6,1.3,0.7c0.1,0.1,0.2,0.1,0.2,0c0.1-0.1,0.2,0,0.2,0c0.1,0,0.2,0,0.1-0.2
				c-0.1-0.2-0.4-0.6-0.8-0.8c0.3,0,0.6,0,0.6,0c0-0.1-0.4-0.2-0.6-0.2c0.2,0,0.4-0.1,0.5-0.3c0.1-0.1,0-0.1-0.2-0.1
				c-0.7,0-1.1,0-1.4-0.2c-0.6-0.3-0.9-0.7-1.2-0.8c-0.2-0.1-0.2-0.3-0.3-0.4c-0.2-0.5-0.2-0.7-0.6-0.9
				C-210.6,387.6-211.1,387.8-211.3,388L-211.3,388z"/>
		</g>
		<g>
			<path d="M-209,393.5C-209,393.5-209.1,393.4-209,393.5c-0.2-0.1-0.3-0.3-0.3-0.5c-0.1,0.1-0.2,0.2-0.3,0.3c0,0-0.1,0.1-0.1,0.1
				c0,0-0.1,0-0.1-0.1c0-0.2,0.1-0.4,0.3-0.5c-0.1,0-0.1,0-0.2,0.1c-0.1,0-0.1,0-0.2,0c0,0.1,0,0.1-0.1,0.1c0,0-0.1,0-0.2-0.1
				c-0.1-0.1-0.2-0.1-0.4-0.1c-0.1,0.1-0.1,0.3-0.1,0.4c0,0,0,0.1,0,0.2c0,0-0.1,0-0.1,0c-0.1-0.1-0.1-0.2-0.1-0.4
				c-0.1,0.1-0.2,0.2-0.2,0.3c0,0,0,0.1-0.1,0.1c0,0,0,0,0,0c-0.1,0-0.1-0.1-0.1-0.2c0-0.1,0-0.3,0.1-0.4c-0.1,0.1-0.2,0.1-0.2,0.2
				c0,0-0.1,0.1-0.2,0.1c0,0-0.1-0.1-0.1-0.1c0-0.2,0.1-0.4,0.2-0.5c0.2-0.1,0.4-0.2,0.8-0.1c0.1-0.1,0.2-0.3,0.2-0.4c0,0,0,0,0,0
				c0-0.1,0-0.1,0-0.2c0,0,0.1-0.2,0.1-0.3c0-0.1,0-0.1,0-0.1c-0.7-0.4-1.2-1.3-1-2.1c0.1-0.3-0.1-0.5-0.3-0.6
				c-0.2-0.1-0.5-0.2-0.7-0.2c-0.1,0-0.2,0-0.2-0.1c0-0.1,0-0.1,0.1-0.1c0.1-0.1,0.5-0.1,0.9-0.1l0.1,0c0.2-0.2,0.8-0.4,1.2-0.2
				c0.4,0.1,0.5,0.4,0.6,0.7c0,0.1,0.1,0.2,0.1,0.3c0.1,0.2,0.2,0.3,0.3,0.4c0.1,0.1,0.3,0.2,0.4,0.3c0.2,0.2,0.5,0.4,0.8,0.5
				c0.3,0.2,0.6,0.2,1.3,0.2l0.1,0c0.2,0,0.3,0,0.3,0.1c0,0,0,0.1,0,0.1c-0.1,0.1-0.2,0.2-0.3,0.2c0.2,0,0.4,0.1,0.4,0.2
				c0,0,0,0,0,0.1c-0.1,0.1-0.3,0.1-0.4,0.1c0.4,0.3,0.6,0.6,0.6,0.7c0.1,0.1,0.1,0.2,0,0.2c0,0-0.1,0-0.1,0c0,0-0.1,0-0.1,0
				c0,0-0.1,0-0.1,0c-0.1,0.1-0.2,0.1-0.3,0c-0.1-0.1-0.8-0.5-1.2-0.7c-0.1,0-0.2,0-0.3,0c-0.1,0-0.1,0.1-0.2,0
				c-0.1,0.3-0.3,0.9-0.4,1.3c0.3,0,0.6,0.2,0.6,0.4c0,0.1,0,0.2,0,0.2c-0.1,0-0.1,0-0.2-0.1c-0.1-0.1-0.4-0.3-0.6-0.1
				c-0.1,0.1-0.1,0.2-0.1,0.4C-208.9,393.3-208.9,393.4-209,393.5C-208.9,393.5-209,393.5-209,393.5z M-209.2,392.8
				C-209.2,392.8-209.2,392.8-209.2,392.8C-209.1,392.8-209.1,392.9-209.2,392.8c0,0.3,0.1,0.5,0.2,0.5c0,0,0,0,0,0c0,0,0,0,0,0
				c-0.1-0.2,0-0.4,0.1-0.5c0.2-0.2,0.7,0.1,0.7,0.1c0,0,0,0,0,0c0-0.2-0.3-0.3-0.6-0.4c0,0,0,0,0,0c0,0,0,0,0,0
				c0.1-0.4,0.3-1.1,0.4-1.4c0,0,0,0,0,0c0,0,0,0,0.1,0c0,0,0.1,0,0.2,0c0.1,0,0.2-0.1,0.4,0c0.5,0.2,1.1,0.6,1.3,0.7
				c0.1,0.1,0.1,0.1,0.1,0c0.1-0.1,0.2,0,0.2,0c0,0,0,0,0.1,0c0,0,0,0,0,0c0,0,0,0,0-0.1c-0.1-0.1-0.3-0.5-0.8-0.8c0,0,0,0,0-0.1
				c0,0,0,0,0.1,0c0.2,0,0.4,0,0.5,0c-0.1-0.1-0.3-0.1-0.4-0.1c0,0-0.1,0-0.1-0.1c0,0,0-0.1,0-0.1c0.2,0,0.4-0.1,0.5-0.2
				c0,0-0.1,0-0.2,0l-0.1,0c-0.6,0-1,0-1.3-0.2c-0.3-0.2-0.6-0.4-0.8-0.6c-0.2-0.1-0.3-0.2-0.4-0.3c-0.1-0.1-0.3-0.2-0.3-0.5
				c0-0.1-0.1-0.2-0.1-0.3c-0.1-0.3-0.2-0.5-0.5-0.6c-0.4-0.2-0.9,0-1.1,0.2c0,0,0,0,0,0l-0.1,0c-0.2,0-0.7,0-0.8,0.1c0,0,0,0,0,0
				c0,0,0,0,0,0c0.2,0,0.6,0.1,0.8,0.3c0.3,0.2,0.4,0.4,0.3,0.7c-0.1,0.8,0.3,1.7,1,2c0.1,0.1,0.1,0.1,0.1,0.2
				c0,0.1-0.1,0.3-0.1,0.4c0,0,0,0,0.1,0c0,0,0,0,0,0.1c-0.1,0.1-0.3,0.5-0.3,0.5c0,0,0,0-0.1,0c-0.4,0-0.6,0-0.8,0.1
				c-0.1,0.1-0.1,0.2-0.2,0.3c0.1-0.1,0.2-0.3,0.4-0.3c0,0,0,0,0.1,0c0,0,0,0,0,0.1c-0.1,0.2-0.2,0.4-0.1,0.5c0,0,0,0,0,0
				c0.1-0.2,0.2-0.3,0.3-0.4c0,0,0.1-0.1,0.1,0c0.1,0,0,0.1,0,0.1c0,0.1,0,0.2,0,0.3c0-0.1,0-0.4,0.2-0.5c0.2-0.1,0.4-0.1,0.5,0.1
				c0,0,0,0,0-0.1c-0.1-0.2-0.2-0.2-0.3-0.2c0,0,0,0,0,0c0,0,0,0,0-0.1c0.1-0.1,0.1-0.2,0.2-0.3c0.1-0.1,0.1-0.2,0.1-0.2
				c0,0,0.1-0.1,0.1-0.1c0,0,0.1,0,0.1,0c0,0,0,0,0,0c0,0,0,0,0,0c0,0,0-0.1,0-0.1c0-0.1,0.1-0.3,0.2-0.4c0,0,0,0,0,0
				c0,0,0.1,0,0.2-0.1c0,0,0,0,0,0c0,0,0,0,0,0c0.1,0.2,0.2,0.3,0.3,0.4c0,0,0,0.1,0,0.1l0,0c0,0.1,0.1,0.1,0,0.2c0,0,0,0.1-0.1,0.2
				c0,0.1-0.1,0.3-0.1,0.3c0,0,0,0-0.1,0c-0.4,0-0.6,0-0.7,0.2c0,0,0,0,0,0c0,0,0,0,0.1,0c0.1-0.1,0.2-0.1,0.3-0.1
				c0.1,0,0.1,0.1,0.1,0.1c0,0,0,0.1-0.1,0.1c-0.2,0.1-0.3,0.2-0.4,0.4C-209.5,393-209.4,392.8-209.2,392.8
				C-209.2,392.8-209.2,392.8-209.2,392.8z M-210.1,392.4c0.1,0,0.2,0.1,0.3,0.3c0,0,0,0,0,0c0.1-0.2,0.3-0.3,0.7-0.3
				c0-0.1,0.1-0.2,0.1-0.3c0-0.1,0-0.1,0.1-0.2c0-0.1,0-0.1,0-0.1c0,0,0,0,0,0c0,0,0,0,0-0.1c-0.1-0.1-0.1-0.2-0.2-0.4
				c0,0-0.1,0-0.1,0c-0.1,0.1-0.1,0.2-0.2,0.3c0,0,0,0.1,0,0.1c0,0-0.1,0.1-0.1,0.1c0,0-0.1,0-0.1,0c0,0,0,0,0,0c0,0,0,0,0,0
				c0,0-0.1,0.1-0.1,0.2C-210,392.2-210.1,392.3-210.1,392.4z"/>
		</g>
		<g>
			<path class="st3" d="M-211.3,388.1c-0.1,0-0.3,0-0.5,0c0,0-0.1,0,0,0s0.4,0.1,0.5,0.1c0.1,0,0.1,0.1,0,0.1c-0.1,0-0.1,0,0,0.1
				c0.4,0.3,0.4,0.4,0.3,1.2c0.1,0,0.1,0.1,0.2,0.1c0.1,0,0,0.1,0,0.1c-0.1,0-0.1,0,0,0c0.1,0,0.1,0.1,0.1,0.1c-0.1,0-0.2,0.1,0,0.1
				c0.2,0,0.3,0.1,0,0.1c-0.2,0-0.1,0.1,0,0.1c0.2,0,0.1,0.1,0.1,0.1c-0.1,0-0.1,0.1,0.1,0.1c0.1,0,0.2,0,0.2,0c0.1,0,0.1,0.1,0,0.1
				s-0.1,0.1,0,0.1c0.1,0,0.2,0,0.1,0.1c0,0-0.1,0,0,0c0.2,0,0.2,0.1,0.2,0.1c-0.1,0-0.1,0,0,0.1c0.1,0,0.2,0,0.1,0.1
				c-0.1,0-0.1,0.1,0,0.1c0.1,0,0.2,0,0.1,0.1c-0.1,0-0.1,0.1,0,0.1c0.1,0,0.1,0.1,0.1,0.1c-0.1,0-0.1,0.1-0.2,0
				c0-0.1-0.1-0.1-0.1,0c0,0.1,0,0-0.1-0.1c0-0.1-0.1-0.1-0.1,0c0,0.1-0.1,0.1-0.1,0c0.3,0.3,0.7,0.5,1.3,0.3c0.1,0,0.1,0,0.1,0.1
				c0,0.1,0.2,0.3,0.2,0.4c0,0.1,0.1,0,0.1-0.1c0.1-0.3,0.1-0.5,0.2-0.6c0-0.1,0.1-0.2,0.1,0.1c0.1-0.1,0.5-0.1,0.8,0
				c0.4,0.1,0.7,0.3,0.9,0.5c0,0,0.1,0.1,0.2,0c0.1,0,0.1,0-0.1-0.2c-0.2-0.1-0.1-0.2,0-0.1c0.1,0.1,0.2,0,0.1-0.1
				c-0.1-0.1-0.3-0.3-0.3-0.3c-0.1,0-0.1-0.1-0.2-0.1c-0.1,0-0.4,0-0.5,0s-0.1,0,0.1,0.1c0.2,0.1,0.6,0.3,0.7,0.4
				c0.1,0.1,0.1,0.2,0,0.1c-0.2-0.1-0.8-0.5-1.2-0.6c-0.9,0.1-1.6,0.2-2.1-0.4c-0.3-0.3-0.3-0.9,0.2-1.2c-0.1-0.1-0.1-0.1,0-0.1
				c0,0,0,0,0-0.1c0,0,0-0.1,0-0.1c-0.1-0.1-0.1-0.1-0.1-0.2c-0.1,0-0.2-0.2-0.3-0.1c-0.2,0-0.2,0-0.3,0c0,0-0.1-0.1-0.2,0
				c-0.1,0-0.2,0-0.2-0.1c0,0,0.1-0.1,0.2,0c0.2,0.1,0.4,0.2,0.6,0c0.1-0.2,0-0.4-0.3-0.4C-211,387.8-211.2,388-211.3,388.1
				L-211.3,388.1z"/>
		</g>
		<g>
			<path d="M-208.9,391.6C-208.9,391.6-208.9,391.6-208.9,391.6l-0.1-0.1c-0.1-0.1-0.1-0.2-0.2-0.3c0,0,0,0,0-0.1
				c-0.5,0.2-1,0.1-1.4-0.3l0.1-0.1c0,0,0,0,0,0c0,0,0-0.1,0-0.1c0,0,0.1,0,0.1,0.1c0,0,0,0,0,0c0,0,0,0,0,0c0,0,0,0,0,0
				c0,0,0,0,0,0c0,0,0,0,0,0c-0.1,0-0.1,0-0.1-0.1c0,0,0,0,0-0.1c-0.1,0-0.1-0.1-0.1-0.1c0,0,0,0,0,0c0,0,0,0-0.1,0
				c0,0-0.1,0-0.1-0.1c0,0,0,0,0,0c-0.1,0-0.1-0.1-0.1-0.1c0,0,0,0,0,0c0,0-0.1,0-0.1,0c-0.1,0-0.1,0-0.2,0c0,0,0,0,0-0.1
				c-0.1,0-0.2,0-0.2-0.1c0,0,0,0,0-0.1c0,0,0,0,0,0l0,0l0,0c0,0,0,0,0,0c0,0,0,0,0,0l0,0l0,0c0,0,0,0,0,0c0,0-0.1,0-0.1-0.1l0,0
				l0,0c0.1-0.9,0.1-0.9-0.3-1.2c-0.1-0.1-0.1-0.1-0.1-0.1c0,0,0,0,0,0c-0.1,0-0.3-0.1-0.3-0.1c0,0-0.1,0-0.1-0.1c0,0,0-0.1,0.1-0.1
				c0.1,0,0.3,0,0.4,0c0,0,0.1,0,0.1,0c0.1-0.1,0.3-0.3,0.6-0.2c0.2,0,0.4,0.1,0.4,0.3c0,0.1,0,0.2,0,0.3c0,0-0.1,0.1-0.1,0.1
				c0.1,0,0.1,0,0.1,0.1c0,0,0.1,0,0.1,0.1l0.1,0l0,0.1c0,0,0.1,0.1,0.1,0.1l0.1,0.1l-0.1,0.1c0,0,0,0,0,0c0,0,0,0.1,0,0.1
				c0,0,0,0.1-0.1,0.1c0,0,0,0,0,0l0.1,0.1l-0.1,0c-0.2,0.1-0.3,0.3-0.3,0.5c0,0.2,0,0.5,0.2,0.6c0.5,0.5,1.1,0.5,1.8,0.4
				c0.1,0,0.2,0,0.3,0l0,0l0,0c0.1,0,0.2,0.1,0.3,0.1c0-0.1,0.1-0.1,0.1-0.1c0.2,0,0.4,0,0.5,0c0.1,0,0.2,0,0.2,0.1l0,0
				c0.1,0,0.3,0.2,0.3,0.3c0.1,0.1,0,0.2,0,0.2c0,0-0.1,0.1-0.1,0c0,0,0,0,0,0c0.1,0.1,0.2,0.2,0.1,0.2c0,0.1-0.1,0.1-0.1,0.1
				c0,0,0,0,0,0c-0.1,0-0.1,0-0.2-0.1c-0.2-0.1-0.5-0.3-0.9-0.5c-0.3-0.1-0.7-0.1-0.8,0l-0.1,0.1l0-0.1c0,0,0,0,0-0.1
				c0,0.1-0.1,0.3-0.2,0.5C-208.8,391.6-208.8,391.6-208.9,391.6C-208.9,391.6-208.9,391.6-208.9,391.6z M-209.2,391
				c0.1,0,0.1,0.1,0.1,0.1c0,0.1,0.1,0.2,0.2,0.3v0c0,0,0,0,0,0c0.1-0.3,0.1-0.5,0.2-0.6c0,0,0.1-0.1,0.1-0.1c-0.7,0-1.2,0-1.7-0.5
				c-0.1-0.2-0.2-0.4-0.2-0.7c0-0.2,0.1-0.4,0.3-0.5c0,0,0-0.1,0-0.1c0,0,0-0.1,0-0.1c0,0,0-0.1,0-0.1l0,0c-0.1,0-0.1-0.1-0.1-0.1
				c0,0-0.1,0-0.1-0.1c-0.1,0-0.1-0.1-0.2,0c-0.1,0-0.2,0-0.3,0c0,0-0.1,0-0.1,0c-0.1,0-0.1,0-0.2,0c0,0,0,0,0-0.1c0,0,0-0.1,0-0.1
				c0,0,0.1,0,0.2,0c0.2,0.1,0.4,0.1,0.5,0c0-0.1,0-0.1,0-0.1c0-0.1-0.2-0.2-0.3-0.2c-0.2,0-0.4,0.1-0.5,0.2l0,0l0,0
				c0,0-0.1,0-0.1,0c0,0,0.1,0,0.1,0c0.1,0,0.1,0.1,0.1,0.1c0,0,0,0.1-0.1,0.1c0.3,0.2,0.3,0.4,0.3,1.2c0,0,0.1,0.1,0.1,0.1
				c0.1,0,0.1,0.1,0.1,0.1c0,0,0,0,0,0c0,0,0,0,0,0.1c0,0,0,0,0,0c0,0,0.1,0,0.1,0.1l0,0l0,0c0,0,0,0,0,0c0,0,0,0.1,0,0.1
				c0,0,0,0,0,0c0.1,0,0.2,0,0.2,0c0.1,0,0.1,0.1,0.1,0.1c0,0,0,0,0,0c0.1,0,0.1,0,0.1,0.1c0,0,0,0,0,0c0.1,0,0.2,0.1,0.2,0.1
				c0,0,0,0,0,0c0.1,0,0.1,0.1,0.1,0.1c0,0,0,0,0,0.1c0.1,0,0.1,0,0.1,0.1c0,0,0,0,0,0c0,0,0.1,0,0.1,0.1c0,0,0,0.1-0.1,0.1
				c-0.1,0-0.2,0.1-0.2,0c0,0,0,0,0,0c0,0,0,0,0,0C-210,391.1-209.7,391.2-209.2,391C-209.2,391-209.2,391-209.2,391z M-207.5,390.9
				c0.2,0.1,0.5,0.3,0.6,0.3c0,0,0,0,0,0c0,0,0,0,0,0c0,0,0.1,0,0.1,0c-0.1-0.1-0.2-0.2-0.2-0.2l0,0c0,0-0.1,0-0.2,0
				C-207.2,390.9-207.3,390.9-207.5,390.9z M-208.1,390.9c0.1,0,0.3,0,0.4,0.1c0,0,0,0,0,0c-0.2-0.1-0.3-0.2-0.5-0.2
				c-0.1,0-0.2,0-0.2,0c-0.1,0-0.1,0-0.2,0c0.1,0,0.1,0.1,0.1,0.2C-208.4,390.9-208.3,390.9-208.1,390.9z"/>
		</g>
		<g>
			<path class="st3" d="M-209.9,388.1c-0.1-0.1-0.2-0.2-0.3-0.2c-0.1,0-0.1,0.1,0,0.1c0,0.1,0,0.2,0,0.2c0.1,0,0.1,0.1,0,0.1
				c-0.1,0-0.1,0.3,0.1,0.2c0,0,0.1,0,0.1,0c0,0,0,0.1,0,0.1c0,0,0,0.1,0,0.1c0,0,0,0,0,0c0,0,0,0.1,0,0.1c0.1,0,0.1,0,0.1,0.1
				c0,0.1,0.1,0.1,0.1,0.2c0,0.1,0,0.1-0.1,0.1c-0.1,0-0.2,0-0.2,0.1c0,0,0,0.1,0,0.1c0.1,0,0.1,0,0,0.1c-0.1,0-0.2,0-0.2,0.1
				c0,0.1,0,0.1,0.1,0.1c0.1,0,0.2-0.1,0.2-0.1c0.1,0,0.1,0,0.1,0s0,0.1-0.1,0.1c-0.1-0.1-0.1,0-0.1,0c0,0-0.1,0.1-0.2,0.1
				c-0.1,0-0.1,0-0.1,0.2c0,0.5,0.4,0.8,1,0.8c0.7,0,1,0,1.1,0c-0.2-0.1-0.4-0.2-0.4-0.2c-0.1,0-0.1,0-0.1,0c0-0.1,0-0.1,0-0.1
				c0,0-0.1-0.1-0.1,0c-0.1,0.1-0.2,0.2-0.3,0.2c-0.1,0-0.2,0-0.1-0.1c0.1-0.1,0.2-0.1,0.3-0.1c0.1,0,0.1-0.1,0.1-0.1
				c0,0,0-0.1,0.1,0c0.2,0.1,0.5,0.3,0.6,0.3c0.1,0,0.1,0,0.1-0.1c-0.1,0-0.1-0.1-0.1-0.1c0,0,0-0.1,0.2,0c0.1,0.1,0.3,0.2,0.4,0.2
				c0.1,0,0.2,0,0-0.1c-0.2-0.1-0.6-0.4-0.8-0.5c-0.1-0.1-0.1,0-0.1,0.1c0,0-0.1,0.1-0.1,0c-0.1,0-0.1-0.1,0-0.1c0.1,0,0.1,0,0-0.1
				c-0.1-0.1-0.1-0.1-0.1,0c0,0.1,0,0.2-0.1,0.1c-0.1,0-0.2-0.1-0.1-0.1c0.1,0,0.2-0.1,0-0.2c-0.1-0.1-0.1,0-0.1,0.1
				c0,0.1-0.1,0.1-0.2,0c-0.1,0-0.1-0.1,0-0.1c0,0,0-0.1,0.1,0c0.1,0,0.1,0,0-0.1c-0.1-0.1-0.1-0.1-0.1,0c0,0.1-0.1,0.1-0.2,0
				c-0.1-0.1-0.1-0.1,0-0.1c0.1,0,0.1,0,0-0.1C-209.7,388.7-209.6,388.4-209.9,388.1L-209.9,388.1z"/>
		</g>
		<g>
			<path d="M-209.3,390.7c-0.6,0-1-0.3-1.1-0.8c0-0.1,0-0.1,0-0.2c0,0,0,0,0,0c0,0,0-0.1,0-0.2c0-0.1,0.1-0.1,0.2-0.1c0,0,0,0,0,0
				c0,0,0,0,0,0c0,0,0-0.1,0-0.1c0-0.1,0.1-0.1,0.2-0.1c0,0,0.1,0,0.1,0c0,0,0,0,0,0c0,0,0,0,0-0.1c0,0-0.1-0.1-0.1-0.1c0,0,0,0,0,0
				c0,0,0,0,0,0c0,0,0,0,0,0l0-0.1c0,0,0,0,0,0c0,0,0,0-0.1,0c0,0,0,0,0-0.1l0,0c0,0,0,0-0.1-0.1c0,0,0,0,0,0c-0.1,0-0.1,0-0.1,0
				c-0.1,0-0.1-0.1-0.1-0.2c0-0.1,0-0.1,0.1-0.1c0,0,0,0,0,0c0,0-0.1-0.1-0.1-0.1c0,0,0-0.1,0-0.2c0,0,0-0.1,0-0.1
				c0,0,0.1-0.1,0.1,0c0.1,0,0.2,0.1,0.3,0.2l0,0c0.1,0.2,0.2,0.3,0.2,0.5c0,0.2,0.1,0.3,0.2,0.5c0,0,0.1,0.1,0,0.1
				c0,0,0,0.1-0.1,0.1c0,0,0,0,0,0c0,0,0.1,0,0.1,0c0,0,0-0.1,0-0.1c0,0,0.1,0,0.2,0.1c0,0,0.1,0.1,0.1,0.1c0.1,0,0.1,0,0.1,0.1
				c0,0,0.1,0.1,0.1,0.1c0,0,0.1,0,0.2,0.1s0.1,0.1,0.1,0.1c0.1,0,0.1,0,0.1,0c0.1,0.1,0.2,0.2,0.4,0.3c0.2,0.1,0.3,0.2,0.4,0.3
				c0,0,0.1,0.1,0.1,0.2c0,0.1-0.1,0.1-0.2,0c-0.1,0-0.3-0.1-0.4-0.2c0,0-0.1,0-0.1,0c0,0,0,0,0,0c0.1,0,0.1,0.1,0.1,0.1
				c0,0,0,0.1-0.1,0.1c0,0,0.1,0,0.1,0.1l0,0.1c-0.1,0-0.3,0-0.7,0L-209.3,390.7C-209.2,390.7-209.3,390.7-209.3,390.7z
				 M-208.8,390.4C-208.8,390.4-208.8,390.4-208.8,390.4c-0.1,0.1-0.3,0.2-0.3,0.2l0.3,0c0.2,0,0.3,0,0.4,0c-0.1,0-0.1,0-0.1,0l0,0
				c-0.1,0-0.1,0-0.2,0C-208.8,390.5-208.8,390.4-208.8,390.4C-208.8,390.4-208.8,390.4-208.8,390.4
				C-208.8,390.4-208.8,390.4-208.8,390.4z M-210.2,389.7C-210.2,389.7-210.2,389.8-210.2,389.7c0,0.5,0.3,0.8,0.9,0.8c0,0,0,0,0,0
				c0,0,0-0.1,0-0.1c0.1-0.1,0.2-0.1,0.2-0.1c0,0,0.1,0,0.1,0c0,0,0,0,0,0c0,0,0-0.1,0-0.1c0,0,0.1,0,0.1,0c0.4,0.2,0.5,0.3,0.5,0.3
				c0,0-0.1-0.1-0.1-0.1c0,0,0-0.1,0-0.1c0.1-0.1,0.1-0.1,0.2,0c0.1,0,0.2,0.1,0.2,0.1c-0.1,0-0.2-0.1-0.2-0.2
				c-0.1-0.1-0.3-0.2-0.4-0.3c0,0,0,0.1,0,0.1c-0.1,0-0.1,0-0.2,0c0,0-0.1-0.1-0.1-0.1c0,0,0,0,0,0c0,0,0,0,0,0c0,0-0.1,0-0.2,0
				c-0.1,0-0.2-0.1-0.2-0.2c0,0,0-0.1,0.1-0.1c0,0,0,0,0,0c0,0,0,0,0,0c0,0,0,0,0,0c0,0,0,0,0,0c0,0,0,0,0,0c0,0-0.1,0.1-0.1,0.1
				c-0.1,0-0.1,0-0.2,0c-0.1,0-0.1-0.1-0.1-0.1c0,0,0,0,0,0c0,0-0.1,0-0.1-0.1c-0.1,0-0.1-0.1-0.1-0.2c0,0,0-0.1,0.1-0.1
				c0,0,0,0,0,0c-0.1-0.2-0.2-0.4-0.2-0.5c0-0.2-0.1-0.3-0.2-0.4l0,0c-0.1-0.1-0.2-0.1-0.3-0.2l0,0l0,0c0,0,0,0.1,0,0.1
				c0,0,0.1,0.1,0.1,0.1c0,0,0,0.1-0.1,0.1c0,0,0,0,0,0c0,0,0,0.1,0,0.1v0l0,0c0,0,0.1,0,0.1,0c0,0,0,0.1,0,0.1c0,0,0.1,0,0.1,0.1
				c0,0,0,0,0,0.1c0,0,0.1,0,0.1,0.1c0,0,0,0,0,0.1c0,0,0.1,0,0.1,0.1c0,0,0,0,0,0c0,0,0.1,0.1,0.1,0.2c0,0,0,0.1,0,0.1
				c0,0-0.1,0-0.2,0c-0.1,0-0.1,0-0.1,0c0.1,0,0.1,0.1,0.1,0.1c0,0,0,0,0,0c0.1,0,0.1,0,0.1,0.1c0,0.1,0,0.1,0,0.2c0,0-0.1,0-0.1,0
				c0,0,0,0,0,0c0,0,0,0,0,0c0,0,0,0,0,0C-210,389.7-210.1,389.7-210.2,389.7C-210.2,389.7-210.2,389.7-210.2,389.7L-210.2,389.7z"
				/>
		</g>
		<g>
			<path class="st7" d="M-209.8,388.1C-209.9,388.2-209.9,388.2-209.8,388.1c-0.1,0.1-0.1,0.2,0,0.2c0.1,0,0.1,0,0.1-0.1
				C-209.8,388.2-209.8,388.2-209.8,388.1L-209.8,388.1z"/>
		</g>
		<g>
			<path class="st7" d="M-210.1,387.9C-210.2,388-210.2,388-210.1,387.9c0,0.1,0,0.1,0,0.1s0.1,0.1,0.1,0c0,0,0,0,0.1,0
				c0,0,0.1,0,0.1,0C-210,388-210,387.9-210.1,387.9L-210.1,387.9z"/>
		</g>
		<g>
			<path class="st7" d="M-210.2,388.3c-0.1,0-0.1,0.3,0.1,0.2c0,0,0.1,0,0.1,0c0,0,0,0,0,0.1c0.1,0,0.1-0.1,0.1-0.1
				c0.1-0.1,0-0.1-0.1-0.1c-0.1,0-0.2,0,0-0.1C-210,388.2-210.1,388.2-210.2,388.3C-210.2,388.2-210.2,388.3-210.2,388.3
				L-210.2,388.3z"/>
		</g>
		<g>
			<path class="st7" d="M-209.7,388.8c-0.1-0.1,0-0.1,0-0.1c0,0,0,0,0,0c0-0.1,0-0.1-0.1-0.2c0,0-0.1,0.1-0.1,0.1
				c0,0.1,0,0.1-0.1,0.1c-0.1,0-0.1,0-0.1,0.1c0,0,0,0,0,0c0,0,0,0,0,0.1c0.2,0,0.2,0.1,0.2,0.2c0,0.1,0.1,0.1,0.1,0
				C-209.6,388.9-209.7,388.8-209.7,388.8L-209.7,388.8z"/>
		</g>
		<g>
			<path class="st6" d="M-209.7,389.7c0,0.1,0,0.1-0.1,0.1c-0.1,0-0.2,0-0.3,0.1c0,0-0.2,0-0.2,0.1c0,0.1,0,0.1,0.1,0.1
				c0.1,0,0.1,0,0.1,0.1c0,0.1,0,0.1,0.1,0.1c0.1,0,0.2,0,0.2,0c0,0.1,0,0.2,0,0.2c0,0,0.1,0.1,0.2,0.1c0.1,0,0.4,0,0.5,0
				c0.1,0,0.1-0.1,0-0.1c-0.1,0-0.2,0-0.2-0.1c0-0.1,0-0.1,0-0.2c0.1-0.1,0.1-0.1,0.1-0.2c0-0.1-0.1-0.2-0.2-0.2
				C-209.5,389.8-209.5,389.7-209.7,389.7C-209.6,389.6-209.7,389.6-209.7,389.7L-209.7,389.7z"/>
		</g>
		<g>
			<path class="st7" d="M-210.2,390.6c0.1,0,0.2,0,0.1,0.1c-0.1,0-0.1,0.1,0,0.1c0.1,0,0.2,0,0.1,0.1c-0.1,0-0.1,0.1,0,0.1
				c0.1,0,0.1,0.1,0.1,0.1c-0.1,0-0.1,0.1-0.2,0c0-0.1-0.1-0.1-0.1,0c0,0.1,0,0-0.1-0.1c0-0.1-0.1-0.1-0.1,0c0,0.1-0.1,0.1-0.1,0
				c0.1,0.1,0.2,0.1,0.2,0.2c0.1,0,0.2,0,0.3,0c0,0,0.2,0,0.2,0.1c0.1,0,0.1,0,0.1-0.1c0-0.1,0-0.1-0.1,0c0,0,0,0,0-0.1
				c0-0.1,0-0.1-0.1,0s-0.1,0,0-0.1c0,0,0-0.1,0-0.1c0,0,0,0,0-0.1c0-0.1,0-0.1-0.1,0c0,0,0,0-0.1-0.1
				C-210.2,390.5-210.2,390.5-210.2,390.6C-210.3,390.6-210.3,390.6-210.2,390.6L-210.2,390.6z"/>
		</g>
		<g>
			<path class="st6" d="M-209.2,391.1c-0.5,0.2-0.8,0.1-1-0.1c0.1,0,0.2,0,0.3,0c0,0,0.2,0,0.2,0.1c0.1,0,0.1,0,0.1-0.1
				c0.1,0.1,0.1,0.1,0.2,0.1C-209.4,391.1-209.3,391.1-209.2,391.1L-209.2,391.1z"/>
		</g>
		<g>
			<path class="st6" d="M-210.2,389c0-0.1-0.1-0.1-0.1-0.1c-0.1,0-0.1,0-0.1,0c-0.1,0-0.1,0-0.1,0.1c0,0.1-0.1,0.2-0.2,0.2
				c-0.1,0.1-0.1,0.1-0.1,0.2c0,0.1,0,0.1-0.1,0.2c0,0-0.1,0.1-0.1,0.1c0,0,0.1,0,0.1,0.1c0.1,0,0,0.1,0,0.1c-0.1,0-0.1,0,0,0
				c0.1,0,0.1,0.1,0.1,0.1c-0.1,0-0.2,0.1,0,0.1c0.2,0,0.3,0.1,0,0.1c-0.2,0-0.1,0.1,0,0.1c0.2,0,0.1,0.1,0.1,0.1
				c-0.1,0-0.1,0.1,0.1,0.1c0,0,0,0,0,0c0,0,0,0,0-0.1c0-0.1,0-0.3,0.1-0.3c0.1-0.1,0.1-0.1,0.1-0.2c0-0.1,0.1-0.3,0.2-0.4
				C-210.2,389.2-210.2,389.1-210.2,389L-210.2,389z"/>
		</g>
		<g>
			<path class="st7" d="M-210.4,389c-0.1-0.1-0.2,0-0.2,0.1c0,0.1-0.1,0.1-0.1,0.2c-0.1,0-0.1,0.1-0.1,0.2c0,0.1,0,0.1,0,0.2
				c-0.1,0.1-0.1,0.1,0,0.1c0,0,0,0,0.1,0.1c0,0.1,0.1,0,0.1-0.1c0-0.1,0-0.1,0.1-0.1c0.1,0,0.2-0.2,0.1-0.2c0,0-0.1-0.1,0-0.1
				c0.1-0.1,0.2-0.1,0.2-0.1s0-0.1,0-0.1C-210.2,389-210.3,389-210.4,389L-210.4,389z"/>
		</g>
		<g>
			<path d="M-210.4,388.9c-0.1,0-0.1,0.1,0,0.1S-210.3,388.9-210.4,388.9L-210.4,388.9z"/>
		</g>
		<g>
			<path d="M-210.4,389C-210.4,389-210.5,389.1-210.4,389C-210.3,389.1-210.3,389-210.4,389L-210.4,389z"/>
		</g>
		<g>
			<path d="M-210.5,389.2C-210.6,389.2-210.5,389.3-210.5,389.2C-210.4,389.2-210.4,389.1-210.5,389.2L-210.5,389.2z"/>
		</g>
		<g>
			<path d="M-210.6,389.3C-210.6,389.3-210.6,389.4-210.6,389.3C-210.5,389.3-210.4,389.2-210.6,389.3L-210.6,389.3z"/>
		</g>
		<g>
			<path d="M-210.7,389.3C-210.8,389.4-210.7,389.5-210.7,389.3C-210.6,389.3-210.6,389.3-210.7,389.3L-210.7,389.3z"/>
		</g>
		<g>
			<path d="M-210.6,389.4C-210.7,389.4-210.7,389.5-210.6,389.4C-210.5,389.4-210.5,389.3-210.6,389.4L-210.6,389.4z"/>
		</g>
		<g>
			<path d="M-210.7,389.4C-210.8,389.5-210.8,389.6-210.7,389.4C-210.6,389.4-210.6,389.4-210.7,389.4L-210.7,389.4z"/>
		</g>
		<g>
			<path d="M-210.7,389.5C-210.7,389.6-210.7,389.6-210.7,389.5C-210.5,389.5-210.5,389.5-210.7,389.5L-210.7,389.5z"/>
		</g>
		<g>
			<path d="M-210.8,389.6C-210.8,389.6-210.8,389.7-210.8,389.6C-210.6,389.6-210.6,389.5-210.8,389.6L-210.8,389.6z"/>
		</g>
		<g>
			<path d="M-210.8,389.7C-210.8,389.7-210.8,389.8-210.8,389.7C-210.6,389.7-210.6,389.6-210.8,389.7L-210.8,389.7z"/>
		</g>
		<g>
			<path class="st7" d="M-210.8,390.4c-0.1,0-0.1,0.1,0,0.1c0.1,0,0.1,0,0.1,0.1c0,0.1,0,0.1,0.1,0.1c0.1,0,0.1-0.1,0.1-0.1
				c-0.1,0-0.1-0.1-0.1-0.1C-210.7,390.4-210.8,390.4-210.8,390.4L-210.8,390.4z"/>
		</g>
		<g>
			<path class="st6" d="M-208.7,389.9C-208.7,389.9-208.7,389.9-208.7,389.9c0.1,0.1,0.2,0,0.2,0c0,0-0.1-0.2,0.1-0.1
				c0.1,0.1,0.6,0.4,0.8,0.5c0.2,0.1,0.1,0.1,0,0.1c-0.1,0-0.3-0.1-0.4-0.2c-0.1-0.1-0.1,0-0.2,0c0,0,0,0.1,0,0.1
				c-0.1,0-0.2,0-0.2-0.1C-208.5,390.2-208.6,390-208.7,389.9C-208.7,389.9-208.7,389.9-208.7,389.9L-208.7,389.9z"/>
		</g>
		<g>
			<path class="st9" d="M-204.5,403.8c-0.1,0.1-0.2,0.2-0.2,0.4c0,0,0,0,0,0c0.4-0.5,0.8-1,1.1-1.6c0,0,0,0,0-0.1
				c-0.1,0.1-0.3,0.2-0.4,0.2c0.1,0.1-0.2,0.3-0.3,0.4c0.1,0.1,0,0.2-0.1,0.2c0,0.1-0.1,0.1-0.2,0.1c-0.1,0-0.2,0.1-0.2,0.1
				c0.1,0,0.1-0.1,0.2,0c0,0,0.1,0.1,0,0.1s-0.1,0.1-0.2,0.1C-204.6,403.7-204.4,403.7-204.5,403.8L-204.5,403.8z"/>
		</g>
		<g>
			<path d="M-209.5,389.7c-0.1-0.1-0.2,0-0.1,0c0.1,0.1,0,0.1-0.1,0.1c-0.1,0-0.3,0-0.3,0c-0.1,0-0.1,0.1,0,0.1
				c0.2,0,0.4-0.1,0.5-0.1C-209.5,389.9-209.4,389.8-209.5,389.7L-209.5,389.7z"/>
		</g>
		<g>
			<path d="M-210.1,390.1c0,0-0.1,0-0.1,0c0,0,0-0.1,0-0.1c0,0,0.1-0.1,0.1-0.1c0.1,0,0.2,0,0.3,0c0,0,0,0,0.1,0c0,0,0,0,0,0
				c0-0.1,0-0.1,0-0.2c0,0,0.1,0,0.2,0.1l0,0c0.1,0.1,0.1,0.1,0.1,0.2s0,0.1-0.1,0.1C-209.6,390-209.9,390-210.1,390.1
				C-210.1,390.1-210.1,390.1-210.1,390.1z"/>
		</g>
		<g>
			<path d="M-209.3,389.9c-0.1-0.1-0.1-0.1-0.1,0c0,0.1,0,0.1-0.1,0.1c-0.1,0-0.3,0.1-0.4,0.1c-0.1,0-0.1,0.1,0,0.1
				c0.2,0,0.5-0.1,0.5-0.2C-209.4,390-209.3,390-209.3,389.9C-209.3,390-209.2,390-209.3,389.9L-209.3,389.9z"/>
		</g>
		<g>
			<path d="M-209.9,390.3c-0.1,0-0.2-0.1-0.2-0.1c0-0.1,0.1-0.1,0.1-0.1c0.1,0,0.3-0.1,0.4-0.1l0,0c0,0,0.1,0,0.1,0
				c0-0.1,0-0.1,0-0.1c0.1,0,0.2,0,0.2,0.1l0,0c0.1,0.1,0.1,0.1,0.1,0.2c0,0-0.1,0-0.1,0v0c0,0,0,0,0,0
				C-209.4,390.1-209.7,390.3-209.9,390.3C-209.9,390.3-209.9,390.3-209.9,390.3z"/>
		</g>
		<g>
			<path d="M-209.2,390.2c-0.1,0-0.3,0.1-0.3,0.1c-0.1,0-0.1,0.1,0,0.1C-209.4,390.4-209.2,390.3-209.2,390.2c0.1,0,0.2,0,0.2,0
				c0,0,0.1-0.1,0-0.1c-0.1-0.1-0.2,0-0.2,0C-209.1,390.1-209.2,390.2-209.2,390.2L-209.2,390.2z"/>
		</g>
		<g>
			<path d="M-209.6,390.5c-0.1,0-0.1,0-0.1-0.1c0-0.1,0.1-0.1,0.1-0.1c0.1,0,0.3-0.1,0.3-0.1l0,0c0,0,0,0,0,0c-0.1,0,0-0.1,0-0.1
				c0-0.1,0.1-0.1,0.3,0c0.1,0.1,0.1,0.1,0.1,0.2c0,0.1-0.1,0.1-0.1,0.1c0,0,0,0-0.1,0l0,0c0,0,0,0,0,0
				C-209.2,390.4-209.4,390.5-209.6,390.5C-209.5,390.5-209.6,390.5-209.6,390.5z"/>
		</g>
		<g>
			<path d="M-210.5,388.1c-0.2-0.1-0.4,0.1-0.2,0.3C-210.6,388.5-210.3,388.2-210.5,388.1L-210.5,388.1z"/>
		</g>
		<g>
			<path class="st3" d="M-210.8,388.2L-210.8,388.2c0,0.1,0.1,0.2,0.2,0.1C-210.7,388.4-210.8,388.3-210.8,388.2L-210.8,388.2z"/>
		</g>
		<g>
			<path class="st3" d="M-210,391.3c0.1,0,0.3,0,0.4,0c0,0.1-0.1,0.1-0.1,0.2c0,0.1,0,0.1,0,0c0-0.1-0.1-0.1-0.1-0.1
				c0,0.1-0.1,0.1-0.1,0.2c0,0-0.1,0.1,0,0C-210,391.4-210,391.3-210,391.3L-210,391.3z"/>
		</g>
		<g>
			<path d="M-209.6,407.7C-209.6,407.7-209.6,407.7-209.6,407.7c-6.9-2.7-7.9-8.3-7.9-13.9c0,0,0-0.1,0-0.1s0.1,0,0.1,0h15.5
				c0,0,0.1,0,0.1,0s0,0.1,0,0.1C-201.7,399.4-202.7,404.9-209.6,407.7C-209.5,407.7-209.6,407.7-209.6,407.7z M-217.2,393.9
				c0,5.5,1,10.9,7.6,13.5c6.6-2.6,7.6-8.1,7.6-13.5H-217.2z"/>
		</g>
	</g>
</g>
</svg>
