<?xml version="1.0" encoding="utf-8"?>
<!-- Generator: Adobe Illustrator 19.0.0, SVG Export Plug-In . SVG Version: 6.00 Build 0)  -->
<svg version="1.1" id="Layer_1" xmlns="http://www.w3.org/2000/svg" xmlns:xlink="http://www.w3.org/1999/xlink" x="0px" y="0px"
	 viewBox="-269 374 72 46" style="enable-background:new -269 374 72 46;" xml:space="preserve">
<style type="text/css">
	.st0{clip-path:url(#SVGID_2_);}
	.st1{fill:#FFFFFF;}
	.st2{fill:#E30520;}
	.st3{fill:#0061AC;}
	.st4{fill:#FFEC00;}
</style>
<g>
	<defs>
		<path id="SVGID_1_" d="M-204,420H-262c-3.8,0-7-3.1-7-7V381c0-3.8,3.1-7,7-7h58.1c3.8,0,7,3.1,7,7V413
			C-197,416.9-200.1,420-204,420z"/>
	</defs>
	<clipPath id="SVGID_2_">
		<use xlink:href="#SVGID_1_"  style="overflow:visible;"/>
	</clipPath>
	<g class="st0">
		<rect x="-269.4" y="373.4" class="st1" width="94.6" height="15.8"/>
		<rect x="-269.4" y="404.9" class="st2" width="94.6" height="15.8"/>
		<rect x="-269.4" y="389.1" class="st3" width="94.6" height="15.8"/>
		<path class="st2" d="M-250.5,378.1c2.3,0,5.6,0.6,8,1.8c0,0,0,0-0.5,7.6c-0.3,4.3-2,7.9-7.6,9.6c-5.5-1.7-7.3-5.3-7.6-9.6
			c-0.5-7.6-0.5-7.6-0.5-7.6C-256.2,378.7-252.8,378.1-250.5,378.1z"/>
		<path class="st3" d="M-250.5,378.1c2.1,0,5.1,0.5,7.4,1.5c0,0,0-0.1-0.5,7.7c-0.3,4.2-1.9,7.4-6.9,9c-5-1.6-6.7-4.8-6.9-9
			c-0.5-7.8-0.5-7.7-0.5-7.7C-255.6,378.6-252.6,378.1-250.5,378.1z"/>
		<g>
			<path class="st1" d="M-250.5,392.6c1,0,1-0.5,2-0.5c1,0,1,0.5,2,0.5c0.4,0,0.6-0.1,0.8-0.2c0.2-0.2,0.3-0.5,0.5-0.7
				c-0.4,0.1-0.6,0.4-1.3,0.4c-1,0-1-0.5-2-0.5c-1,0-1,0.5-2,0.5c-1,0-1-0.5-2-0.5c-1,0-1,0.5-2,0.5c-0.7,0-0.9-0.2-1.3-0.4
				c0.1,0.3,0.3,0.5,0.5,0.7c0.2,0.1,0.4,0.2,0.8,0.2c1,0,1-0.5,2-0.5C-251.5,392.1-251.5,392.6-250.5,392.6z"/>
			<path class="st1" d="M-250.5,395.7c1.9-0.6,3.2-1.5,4.2-2.6c-0.1,0-0.2,0-0.3,0c-1,0-1-0.5-2-0.5c-1,0-1,0.5-2,0.5
				c-1,0-1-0.5-2-0.5c-1,0-1,0.5-2,0.5c-0.1,0-0.2,0-0.3,0C-253.8,394.2-252.4,395.1-250.5,395.7z"/>
			<path class="st1" d="M-250.5,391.5c1,0,1-0.5,2-0.5c1,0,1,0.5,2,0.5c0.5,0,1.1-0.2,1.4-0.5c0.5-0.5,0.6-0.9,0.7-1.4l-3-3.6
				l-1.2,1.5l-1.8-3.4l-1.8,3.4l-1.2-1.5l-3,3.6c0.1,0.6,0.2,1,0.7,1.4c0.3,0.3,0.8,0.5,1.4,0.5c1,0,1-0.5,2-0.5
				C-251.5,391-251.5,391.5-250.5,391.5z"/>
		</g>
		<g>
			<polygon class="st4" points="-248.4,380.6 -248.2,380.1 -247.6,380.2 -247.9,379.7 -247.6,379.3 -248.2,379.3 -248.4,378.9 
				-248.6,379.3 -249.1,379.3 -248.8,379.7 -249.1,380.2 -248.6,380.1 			"/>
			<polygon class="st4" points="-252.6,380.6 -252.9,380.1 -253.4,380.2 -253.1,379.7 -253.4,379.3 -252.9,379.3 -252.6,378.9 
				-252.4,379.3 -251.9,379.3 -252.2,379.7 -251.9,380.2 -252.4,380.1 			"/>
			<polygon class="st4" points="-250.5,383.2 -250.7,382.7 -251.2,382.7 -251,382.3 -251.2,381.9 -250.7,381.9 -250.5,381.5 
				-250.3,381.9 -249.8,381.9 -250.1,382.3 -249.8,382.7 -250.3,382.7 			"/>
		</g>
	</g>
</g>
</svg>
