<?xml version="1.0" encoding="utf-8"?>
<!-- Generator: Adobe Illustrator 19.0.0, SVG Export Plug-In . SVG Version: 6.00 Build 0)  -->
<svg version="1.1" id="Layer_1" xmlns="http://www.w3.org/2000/svg" xmlns:xlink="http://www.w3.org/1999/xlink" x="0px" y="0px"
	 viewBox="-269 374 72 46" style="enable-background:new -269 374 72 46;" xml:space="preserve">
<style type="text/css">
	.st0{clip-path:url(#SVGID_2_);}
	.st1{fill:#0058A2;}
	.st2{fill:#E40520;}
	.st3{fill:#FFFFFF;}
</style>
<g>
	<defs>
		<path id="SVGID_1_" d="M-204,420H-262c-3.8,0-7-3.1-7-7V381c0-3.8,3.1-7,7-7h58.1c3.8,0,7,3.1,7,7V413
			C-197,416.9-200.1,420-204,420z"/>
	</defs>
	<clipPath id="SVGID_2_">
		<use xlink:href="#SVGID_1_"  style="overflow:visible;"/>
	</clipPath>
	<g class="st0">
		<g>
			<polygon class="st1" points="-196.4,405.1 -269.6,405.1 -269.6,388.9 -196.4,388.9 			"/>
		</g>
		<g>
			<path d="M-196.3,405.3h-73.5v-16.5h73.5V405.3z M-269.5,405h73v-16h-73V405z"/>
		</g>
		<g>
			<polygon class="st2" points="-269.6,421.4 -196.4,421.4 -196.4,405.1 -269.6,405.1 			"/>
		</g>
		<g>
			<path d="M-196.3,421.5h-73.5V405h73.5V421.5z M-269.5,421.3h73v-16h-73V421.3z"/>
		</g>
		<g>
			<path class="st3" d="M-230.2,388.9c0.1,1.9,0.7,7.8-0.6,11.1c-1.7,4.7-4.8,8-9.9,9.9c-5.1-1.9-8.2-5.3-9.9-9.9
				c-1.2-3.3-0.7-9.3-0.6-11.1h-18.5v-16.3h73.2v16.3H-230.2L-230.2,388.9z"/>
		</g>
		<g>
			<path d="M-240.6,410.1L-240.6,410.1c-5-1.9-8.2-5.1-10-10c-1.1-3-0.8-8.1-0.6-10.5c0-0.2,0-0.4,0-0.5h-18.5v-16.5h73.5V389H-230
				c0,0.2,0,0.3,0,0.5c0.2,2.4,0.5,7.5-0.6,10.5C-232.4,404.9-235.7,408.2-240.6,410.1L-240.6,410.1z M-269.5,388.7h18.5l0,0.1
				c0,0.2,0,0.4,0,0.6c-0.1,2.2-0.5,7.4,0.6,10.4c1.8,4.8,5,8,9.8,9.9c4.8-1.8,8-5,9.8-9.9c1.1-3,0.8-8,0.6-10.4c0-0.3,0-0.5,0-0.7
				l0-0.1h33.8v-16h-73V388.7z"/>
		</g>
		<g>
			<path class="st2" d="M-231.1,384.8c0.2,3.6,0.5,9.1,0.4,11.8c-0.1,2-1.4,9.2-9.9,12.6c-8.5-3.4-9.8-10.6-9.9-12.6
				c-0.1-2.7,0.2-8.2,0.4-11.8H-231.1L-231.1,384.8z"/>
		</g>
		<g>
			<path d="M-240.6,409.3L-240.6,409.3c-9.3-3.7-9.9-11.8-10-12.7c-0.1-2.4,0.1-7.2,0.3-10.6l0.1-1.3h19.2l0.1,1.3
				c0.2,3.4,0.4,8.2,0.3,10.6C-230.7,397.5-231.4,405.5-240.6,409.3L-240.6,409.3z M-250.1,384.8l-0.1,1.2
				c-0.2,3.4-0.4,8.2-0.3,10.6c0,0.9,0.7,8.9,9.8,12.6c9.1-3.7,9.8-11.7,9.8-12.6c0.1-2.4-0.1-7.2-0.3-10.6l-0.1-1.1H-250.1z"/>
		</g>
		<g>
			<path class="st3" d="M-240.6,385.8c0.3,0,1.1,0,1.4-0.1c-0.3,0.9-0.5,2.5-0.5,3.7c1,0.3,3.4-0.2,4.1-0.5
				c-0.1,0.8-0.2,2.4,0.1,3.1c-0.9-0.4-2.3-0.6-4.2-0.6c0,0.4,0,2.2,0,2.5c1.6,0.2,4.5-0.3,5.3-0.5c-0.2,0.9-0.2,2.3-0.1,3
				c-1.2-0.5-3.5-0.7-5.2-0.7c0,0.5,0,4,0,4c-0.2-0.1-0.6-0.2-0.9-0.2c-0.3,0-0.7,0.1-0.9,0.2c0,0,0-3.5,0-4c-1.6,0-4,0.2-5.2,0.7
				c0.1-0.7,0.1-2.1-0.1-3c0.8,0.3,3.6,0.7,5.3,0.5c0-0.4,0-2.1,0-2.5c-2,0-3.3,0.2-4.2,0.6c0.3-0.7,0.2-2.2,0.1-3.1
				c0.7,0.3,3.1,0.8,4.1,0.5c0-1.2-0.2-2.8-0.5-3.7C-241.7,385.8-241,385.8-240.6,385.8L-240.6,385.8z"/>
		</g>
		<g>
			<path d="M-239.7,399.8L-239.7,399.8c-0.3-0.1-0.6-0.2-1-0.2s-0.7,0.1-0.9,0.2l-0.1,0v-4c-1.6,0-3.9,0.2-5.1,0.7l-0.1,0l0-0.1
				c0.1-0.7,0.1-2.1-0.1-3l0-0.1l0.1,0c0.8,0.3,3.6,0.7,5.2,0.6v-2.4c-1.8,0-3.1,0.2-4.2,0.6l-0.1,0.1l0.1-0.1
				c0.3-0.7,0.2-2.2,0.1-3l0-0.1l0.1,0c0.7,0.3,3,0.8,4,0.6c0-1.2-0.2-2.8-0.5-3.6l0-0.1l0.1,0c0.2,0.1,0.9,0.1,1.3,0.1l0.1,0l0.1,0
				c0.4,0,1,0,1.3-0.1l0.1,0l0,0.1c-0.3,0.9-0.5,2.4-0.5,3.6c1,0.2,3.3-0.2,4-0.6l0.1,0l0,0.1c-0.1,0.8-0.2,2.4,0.1,3l0.1,0.1
				l-0.1-0.1c-1-0.4-2.4-0.6-4.2-0.6v2.4c1.6,0.2,4.4-0.3,5.2-0.6l0.1,0l0,0.1c-0.2,0.9-0.2,2.3-0.1,3l0,0.1l-0.1,0
				c-1.2-0.5-3.5-0.7-5.1-0.7V399.8z M-241.5,395.6L-241.5,395.6l0.1,4c0.2-0.1,0.5-0.2,0.8-0.2s0.6,0.1,0.8,0.2v-4h0.1
				c1.6,0,3.9,0.2,5.1,0.6c-0.1-0.7-0.1-2,0.1-2.8c-0.9,0.3-3.6,0.7-5.2,0.5l-0.1,0v-2.6h0.1c1.8,0,3.1,0.2,4.1,0.5
				c-0.3-0.8-0.1-2.4-0.1-2.9c-0.8,0.3-3.1,0.8-4.1,0.5l0,0v0c0-1.2,0.2-2.7,0.5-3.6c-0.3,0-0.8,0-1.2,0l-0.1,0l-0.1,0
				c-0.3,0-0.9,0-1.2,0c0.3,0.9,0.5,2.5,0.5,3.6v0l0,0c-1,0.3-3.2-0.2-4.1-0.5c0,0.5,0.2,2-0.1,2.9c1-0.4,2.4-0.5,4.1-0.5h0.1v2.6
				l-0.1,0c-1.6,0.2-4.3-0.2-5.2-0.5c0.2,0.8,0.2,2.1,0.1,2.8C-245.4,395.8-243.2,395.6-241.5,395.6z"/>
		</g>
		<g>
			<path class="st1" d="M-240.6,409.2c4-1.6,6.4-4,7.8-6.3c-0.4-1.1-1.3-1.9-2.5-1.9c-1.2,0-1.9,0.9-2.3,1.4
				c-0.6-1.7-1.8-2.9-3.1-2.9c-1.3,0-2.5,1.2-3.1,2.9c-0.4-0.5-1.1-1.4-2.3-1.4s-2,0.9-2.5,1.9C-247,405.2-244.6,407.6-240.6,409.2
				L-240.6,409.2z"/>
		</g>
		<g>
			<path d="M-240.6,409.3L-240.6,409.3c-3.5-1.4-6.1-3.5-7.8-6.4l0,0l0,0c0.5-1.2,1.4-2,2.5-2c1.1,0,1.8,0.8,2.2,1.3
				c0.6-1.7,1.8-2.8,3.1-2.8c1.3,0,2.5,1.1,3.1,2.8c0.4-0.5,1.1-1.3,2.2-1.3c1.1,0,2,0.7,2.5,2l0,0l0,0
				C-234.6,405.8-237.2,407.9-240.6,409.3L-240.6,409.3z M-248.4,402.9c1.7,2.8,4.3,4.9,7.7,6.3c3.4-1.4,6-3.5,7.7-6.3
				c-0.5-1.2-1.4-1.8-2.4-1.8c-1.1,0-1.8,0.8-2.2,1.4l-0.1,0.1l0-0.1c-0.6-1.7-1.8-2.8-3-2.8c-1.2,0-2.4,1.1-3,2.8l0,0.1l-0.1-0.1
				c-0.4-0.5-1.1-1.4-2.2-1.4C-247,401-247.9,401.7-248.4,402.9z"/>
		</g>
	</g>
</g>
</svg>
