<?xml version="1.0" encoding="utf-8"?>
<!-- Generator: Adobe Illustrator 19.0.0, SVG Export Plug-In . SVG Version: 6.00 Build 0)  -->
<svg version="1.1" id="Layer_1" xmlns="http://www.w3.org/2000/svg" xmlns:xlink="http://www.w3.org/1999/xlink" x="0px" y="0px"
	 viewBox="-269 374 72 46" style="enable-background:new -269 374 72 46;" xml:space="preserve">
<style type="text/css">
	.st0{clip-path:url(#SVGID_2_);}
	.st1{fill:#8AA512;}
	.st2{fill:#5291CE;}
	.st3{fill:#FFFFFF;}
</style>
<g>
	<defs>
		<path id="SVGID_1_" d="M-204,420H-262c-3.8,0-7-3.1-7-7V381c0-3.8,3.1-7,7-7h58.1c3.8,0,7,3.1,7,7V413
			C-197,416.9-200.1,420-204,420z"/>
	</defs>
	<clipPath id="SVGID_2_">
		<use xlink:href="#SVGID_1_"  style="overflow:visible;"/>
	</clipPath>
	<g class="st0">
		<g>
			<polygon class="st1" points="-194.7,388 -271.3,388 -271.3,371 -194.7,371 			"/>
		</g>
		<g>
			<path d="M-194.6,388.1h-76.8v-17.3h76.8V388.1z M-271.2,387.9h76.3v-16.8h-76.3V387.9z"/>
		</g>
		<g>
			<polygon class="st2" points="-194.7,422 -271.3,422 -271.3,405 -194.7,405 			"/>
		</g>
		<g>
			<path d="M-194.6,422.2h-76.8v-17.3h76.8V422.2z M-271.2,421.9h76.3v-16.8h-76.3V421.9z"/>
		</g>
		<g>
			<polygon class="st3" points="-194.7,405 -271.3,405 -271.3,388 -194.7,388 			"/>
		</g>
		<g>
			<path d="M-194.6,405.1h-76.8v-17.3h76.8V405.1z M-271.2,404.9h76.3v-16.8h-76.3V404.9z"/>
		</g>
	</g>
</g>
</svg>
