<?xml version="1.0" encoding="utf-8"?>
<!-- Generator: Adobe Illustrator 19.0.0, SVG Export Plug-In . SVG Version: 6.00 Build 0)  -->
<svg version="1.1" id="Layer_1" xmlns="http://www.w3.org/2000/svg" xmlns:xlink="http://www.w3.org/1999/xlink" x="0px" y="0px"
	 viewBox="-269 374 72 46" style="enable-background:new -269 374 72 46;" xml:space="preserve">
<style type="text/css">
	.st0{clip-path:url(#SVGID_2_);}
	.st1{fill:#90C3EB;}
	.st2{fill:#FFFFFF;}
</style>
<g>
	<defs>
		<path id="SVGID_1_" d="M-204,420H-262c-3.8,0-7-3.1-7-7V381c0-3.8,3.1-7,7-7h58.1c3.8,0,7,3.1,7,7V413
			C-197,416.9-200.1,420-204,420z"/>
	</defs>
	<clipPath id="SVGID_2_">
		<use xlink:href="#SVGID_1_"  style="overflow:visible;"/>
	</clipPath>
	<g class="st0">
		<g>
			<polygon class="st1" points="-193.5,420.4 -269,420.4 -269,396.5 -193.5,396.5 			"/>
		</g>
		<g>
			<path d="M-193.4,420.6h-75.8v-24.2h75.8V420.6z M-268.9,420.3h75.3v-23.7h-75.3V420.3z"/>
		</g>
		<g>
			<polygon class="st2" points="-193.5,396.5 -269,396.5 -269,372.6 -193.5,372.6 			"/>
		</g>
		<g>
			<path d="M-193.4,396.6h-75.8v-24.2h75.8V396.6z M-268.9,396.4h75.3v-23.7h-75.3V396.4z"/>
		</g>
	</g>
</g>
</svg>
