<?xml version="1.0" encoding="utf-8"?>
<!-- Generator: Adobe Illustrator 19.0.0, SVG Export Plug-In . SVG Version: 6.00 Build 0)  -->
<svg version="1.1" id="Layer_1" xmlns="http://www.w3.org/2000/svg" xmlns:xlink="http://www.w3.org/1999/xlink" x="0px" y="0px"
	 viewBox="-269 374 72 46" style="enable-background:new -269 374 72 46;" xml:space="preserve">
<style type="text/css">
	.st0{clip-path:url(#SVGID_2_);}
	.st1{fill:#FFE247;}
	.st2{fill:#E40520;}
	.st3{fill:#009E59;}
</style>
<g>
	<defs>
		<path id="SVGID_1_" d="M-204,420H-262c-3.8,0-7-3.1-7-7V381c0-3.8,3.1-7,7-7h58.1c3.8,0,7,3.1,7,7V413
			C-197,416.9-200.1,420-204,420z"/>
	</defs>
	<clipPath id="SVGID_2_">
		<use xlink:href="#SVGID_1_"  style="overflow:visible;"/>
	</clipPath>
	<g class="st0">
		<g>
			<polygon class="st1" points="-244.8,372.8 -244.8,421.2 -220.7,421.2 -220.7,372.8 			"/>
		</g>
		<g>
			<path d="M-220.5,421.3H-245v-48.6h24.4V421.3z M-244.7,421.1h23.9v-48.1h-23.9V421.1z"/>
		</g>
		<g>
			<polygon class="st2" points="-220.7,421.2 -220.7,372.8 -196.5,372.8 -196.5,421.2 			"/>
		</g>
		<g>
			<path d="M-196.3,421.3h-24.4v-48.6h24.4V421.3z M-220.5,421.1h23.9v-48.1h-23.9V421.1z"/>
		</g>
		<g>
			<polygon class="st3" points="-269,421.2 -269,372.8 -244.8,372.8 -244.8,421.2 			"/>
		</g>
		<g>
			<path d="M-244.7,421.3h-24.4v-48.6h24.4V421.3z M-268.9,421.1h23.9v-48.1h-23.9V421.1z"/>
		</g>
		<g>
			<polygon class="st3" points="-232.8,389.2 -234.5,394.6 -240.2,394.6 -235.6,398 -237.4,403.4 -232.8,400 -228.1,403.4 
				-229.9,397.9 -225.3,394.6 -231,394.6 			"/>
		</g>
		<g>
			<path d="M-237.5,403.5l1.8-5.6l-4.8-3.5h5.9l1.8-5.6l0.1,0.2l1.8,5.4h5.9l-4.8,3.4l1.8,5.6l-0.2-0.1l-4.6-3.3L-237.5,403.5z
				 M-232.8,399.9L-232.8,399.9l4.5,3.3l-1.7-5.3l0,0l4.5-3.2h-5.6l0,0l-1.7-5.3l-1.7,5.3h-5.6l4.5,3.3l0,0l-1.7,5.2L-232.8,399.9z"
				/>
		</g>
	</g>
</g>
</svg>
