<?xml version="1.0" encoding="utf-8"?>
<!-- Generator: Adobe Illustrator 19.0.0, SVG Export Plug-In . SVG Version: 6.00 Build 0)  -->
<svg version="1.1" id="Layer_1" xmlns="http://www.w3.org/2000/svg" xmlns:xlink="http://www.w3.org/1999/xlink" x="0px" y="0px"
	 viewBox="-269 374 72 46" style="enable-background:new -269 374 72 46;" xml:space="preserve">
<style type="text/css">
	.st0{clip-path:url(#SVGID_2_);}
	.st1{fill:#A7CBDF;}
	.st2{fill:#FFFFFF;}
</style>
<g>
	<defs>
		<path id="SVGID_1_" d="M-204,420H-262c-3.8,0-7-3.1-7-7V381c0-3.8,3.1-7,7-7h58.1c3.8,0,7,3.1,7,7V413
			C-197,416.9-200.1,420-204,420z"/>
	</defs>
	<clipPath id="SVGID_2_">
		<use xlink:href="#SVGID_1_"  style="overflow:visible;"/>
	</clipPath>
	<g class="st0">
		<g>
			<polygon class="st1" points="-194.7,422.5 -194.7,371.5 -271.3,371.5 -271.3,422.5 			"/>
		</g>
		<g>
			<path d="M-194.6,422.6h-76.8v-51.3h76.8V422.6z M-271.1,422.4h76.3v-50.8h-76.3V422.4z"/>
		</g>
		<g>
			<polygon class="st2" points="-233,384.3 -236.1,394 -246.3,394 -238,400 -241.2,409.7 -233,403.7 -224.8,409.7 -227.9,399.9 
				-219.7,394 -229.8,394 			"/>
		</g>
		<g>
			<path d="M-241.3,409.8l3.2-9.8l-8.4-6.1h10.4l3.2-9.8l0.1,0.2l3.1,9.7h10.3l-0.2,0.1l-8.2,5.9l3.2,9.9l-0.2-0.1l-8.2-6
				L-241.3,409.8z M-233,403.6L-233,403.6l8.1,5.9l-3.1-9.6l0,0l8.1-5.8h-10l0,0l-3.1-9.5l-3.1,9.5h-10.1l8.2,5.9l0,0l-3.1,9.5
				L-233,403.6z"/>
		</g>
	</g>
</g>
</svg>
