<?xml version="1.0" encoding="utf-8"?>
<!-- Generator: Adobe Illustrator 19.0.0, SVG Export Plug-In . SVG Version: 6.00 Build 0)  -->
<svg version="1.1" id="Layer_1" xmlns="http://www.w3.org/2000/svg" xmlns:xlink="http://www.w3.org/1999/xlink" x="0px" y="0px"
	 viewBox="-269 374 72 46" style="enable-background:new -269 374 72 46;" xml:space="preserve">
<style type="text/css">
	.st0{clip-path:url(#SVGID_2_);}
	.st1{fill:#E40520;}
	.st2{fill:#FFFFFF;}
	.st3{fill:#00793E;}
</style>
<g>
	<defs>
		<path id="SVGID_1_" d="M-204,420H-262c-3.8,0-7-3.1-7-7V381c0-3.8,3.1-7,7-7h58.1c3.8,0,7,3.1,7,7V413
			C-197,416.9-200.1,420-204,420z"/>
	</defs>
	<clipPath id="SVGID_2_">
		<use xlink:href="#SVGID_1_"  style="overflow:visible;"/>
	</clipPath>
	<g class="st0">
		<g>
			<polygon class="st1" points="-172.7,389.7 -271.2,389.7 -271.2,373.2 -172.7,373.2 			"/>
		</g>
		<g>
			<path d="M-172.5,389.8h-98.8v-16.7h98.8V389.8z M-271.1,389.5h98.3v-16.2h-98.3V389.5z"/>
		</g>
		<g>
			<polygon points="-271.2,422.5 -172.7,422.5 -172.7,406.1 -271.2,406.1 			"/>
		</g>
		<g>
			<path d="M-172.5,422.6h-98.8V406h98.8V422.6z M-271.1,422.4h98.3v-16.2h-98.3V422.4z"/>
		</g>
		<g>
			<polygon class="st2" points="-172.7,406.1 -271.2,406.1 -271.2,389.7 -172.7,389.7 			"/>
		</g>
		<g>
			<path d="M-172.5,406.2h-98.8v-16.7h98.8V406.2z M-271.1,406h98.3v-16.2h-98.3V406z"/>
		</g>
		<g>
			<polygon class="st3" points="-238.4,397.9 -271.2,373.2 -271.2,422.5 			"/>
		</g>
		<g>
			<path d="M-271.1,422.6l-0.2-0.1v-49.3l0.2-0.1l32.8,24.6v0.2L-271.1,422.6z M-271.1,373.5v48.8l32.5-24.4L-271.1,373.5z"/>
		</g>
	</g>
</g>
</svg>
