<?xml version="1.0" encoding="utf-8"?>
<!-- Generator: Adobe Illustrator 19.0.0, SVG Export Plug-In . SVG Version: 6.00 Build 0)  -->
<svg version="1.1" id="Layer_1" xmlns="http://www.w3.org/2000/svg" xmlns:xlink="http://www.w3.org/1999/xlink" x="0px" y="0px"
	 viewBox="-269 374 72 46" style="enable-background:new -269 374 72 46;" xml:space="preserve">
<style type="text/css">
	.st0{clip-path:url(#SVGID_2_);}
	.st1{fill:#006189;}
	.st2{fill:#FFFFFF;}
</style>
<g>
	<defs>
		<path id="SVGID_1_" d="M-204,420H-262c-3.8,0-7-3.1-7-7V381c0-3.8,3.1-7,7-7h58.1c3.8,0,7,3.1,7,7V413
			C-197,416.9-200.1,420-204,420z"/>
	</defs>
	<clipPath id="SVGID_2_">
		<use xlink:href="#SVGID_1_"  style="overflow:visible;"/>
	</clipPath>
	<g class="st0">
		<g>
			<polygon class="st1" points="-273.3,404.6 -192.7,404.6 -192.7,420.7 -273.3,420.7 			"/>
			<path d="M-192.6,420.8h-80.9v-16.4h80.9V420.8z M-273.2,420.6h80.4v-15.9h-80.4V420.6z"/>
		</g>
		<g>
			<polygon class="st1" points="-192.7,372.3 -273.3,372.3 -273.3,388.4 -192.7,388.4 			"/>
			<path d="M-192.6,388.6h-80.9v-16.4h80.9V388.6z M-273.2,388.3h80.4v-15.9h-80.4V388.3z"/>
		</g>
		<g>
			<polygon class="st2" points="-192.7,388.4 -273.3,388.4 -273.3,404.6 -192.7,404.6 			"/>
			<path d="M-192.6,404.7h-80.9v-16.4h80.9V404.7z M-273.2,404.4h80.4v-15.9h-80.4V404.4z"/>
		</g>
	</g>
</g>
</svg>
