<?xml version="1.0" encoding="utf-8"?>
<!-- Generator: Adobe Illustrator 19.0.0, SVG Export Plug-In . SVG Version: 6.00 Build 0)  -->
<svg version="1.1" id="Layer_1" xmlns="http://www.w3.org/2000/svg" xmlns:xlink="http://www.w3.org/1999/xlink" x="0px" y="0px"
	 viewBox="-269 374 72 46" style="enable-background:new -269 374 72 46;" xml:space="preserve">
<style type="text/css">
	.st0{clip-path:url(#SVGID_2_);}
	.st1{clip-path:url(#SVGID_4_);}
	.st2{fill:#ED2939;}
	.st3{fill:#002395;}
	.st4{fill:#FFFFFF;}
	.st5{fill:#FFFF00;}
	.st6{fill:#FF0000;}
	.st7{fill:#80CFE1;}
	.st8{fill:#7E7E7E;}
	.st9{fill:#009FC5;}
	.st10{fill:#BC715F;}
	.st11{fill:#008737;}
</style>
<g>
	<defs>
		<path id="SVGID_1_" d="M-204,420H-262c-3.8,0-7-3.1-7-7V381c0-3.8,3.1-7,7-7h58.1c3.8,0,7,3.1,7,7V413
			C-197,416.9-200.1,420-204,420z"/>
	</defs>
	<clipPath id="SVGID_2_">
		<use xlink:href="#SVGID_1_"  style="overflow:visible;"/>
	</clipPath>
	<g class="st0">
		<g>
			<defs>
				<rect id="SVGID_3_" x="-269.6" y="364.9" width="69.1" height="60.6"/>
			</defs>
			<clipPath id="SVGID_4_">
				<use xlink:href="#SVGID_3_"  style="overflow:visible;"/>
			</clipPath>
			<g transform="scale(.9375)" class="st1">
				<g>
					<path class="st2" d="M-287.6,388.5h88.4V423h-49.1L-287.6,388.5z"/>
				</g>
				<g>
					<path class="st3" d="M-287.6,457.5h88.4V423h-49.1L-287.6,457.5z"/>
				</g>
				<g>
					<path class="st4" d="M-287.6,388.5l39.3,34.5l-39.3,34.5V388.5z"/>
				</g>
				<g>
					<path class="st5" d="M-267.8,414.5l0-0.5c0,0-0.2-0.5,0-0.9c0,0-0.6-0.4-0.5-1c0,0-0.5-0.2-0.5-0.9c0,0-0.6,0-0.7-0.6
						c0,0-0.6,0.1-0.8-0.5c0,0-0.6,0.1-0.7-0.3c0,0-0.6,0.2-0.9-0.3c0,0-0.6,0.3-0.8-0.2c-0.2,0.5-0.8,0.2-0.8,0.2
						c-0.3,0.6-0.9,0.3-0.9,0.3c-0.2,0.5-0.7,0.3-0.7,0.3c-0.3,0.6-0.8,0.5-0.8,0.5c-0.1,0.6-0.6,0.6-0.6,0.6c0,0.7-0.5,0.9-0.5,0.9
						c0.1,0.6-0.5,1-0.5,1c0.3,0.5,0,0.9,0,0.9l0,0.5L-267.8,414.5"/>
				</g>
				<g>
					<path d="M-267.8,414.7l-0.2,0l-9.8-0.1l0-0.7c0,0,0.2-0.4,0-0.8l-0.1-0.1l0.1-0.1c0,0,0.5-0.3,0.4-0.8l0-0.1l0.1,0
						c0,0,0.4-0.1,0.4-0.7l0-0.2l0.2,0c0,0,0.5-0.1,0.5-0.5l0-0.2l0.2,0c0,0,0.5,0.1,0.7-0.4l0.1-0.1l0.1,0c0,0,0.4,0.1,0.5-0.2
						l0.1-0.2l0.2,0.1c0,0,0.4,0.2,0.7-0.3l0.1-0.1l0.1,0.1c0,0,0.5,0.2,0.6-0.2l0.1-0.3l0.1,0.3c0.2,0.4,0.6,0.2,0.6,0.2l0.1-0.1
						l0.1,0.1c0.3,0.4,0.7,0.3,0.7,0.3l0.2-0.1l0.1,0.2c0.1,0.3,0.5,0.2,0.6,0.2l0.1,0l0.1,0.1c0.2,0.5,0.7,0.4,0.7,0.4l0.2,0l0,0.2
						c0,0.5,0.5,0.5,0.5,0.5l0.1,0l0,0.2c0,0.6,0.4,0.7,0.4,0.7l0.1,0l0,0.1c-0.1,0.5,0.4,0.8,0.4,0.8l0.1,0.1l-0.1,0.1
						c-0.2,0.4,0,0.8,0,0.8l0,0l0,0.6l-0.2,0L-267.8,414.7z M-277.4,414.3l9.4,0.1l0-0.3c-0.1-0.1-0.2-0.5,0-0.9
						c-0.2-0.1-0.5-0.5-0.4-0.9c-0.2-0.1-0.5-0.4-0.5-0.8c-0.2-0.1-0.5-0.2-0.6-0.6c-0.2,0-0.6-0.1-0.8-0.5c-0.2,0-0.6,0-0.7-0.3
						c-0.2,0-0.6,0-0.9-0.3c-0.2,0.1-0.6,0.1-0.8-0.2c-0.1,0.1-0.3,0.2-0.5,0.2c-0.1,0-0.2,0-0.3,0c-0.3,0.3-0.6,0.4-0.9,0.3
						c-0.2,0.3-0.5,0.3-0.7,0.3c-0.2,0.4-0.6,0.5-0.8,0.5c-0.1,0.4-0.4,0.5-0.6,0.6c0,0.5-0.3,0.7-0.5,0.8c0,0.4-0.3,0.8-0.4,0.9
						c0.2,0.4,0.1,0.8,0,0.9L-277.4,414.3z"/>
				</g>
				<g>
					<path class="st6" d="M-268,413.9c-1.5-0.2-3.3-0.6-4.7,0.3c-0.9-0.6-2.2-0.6-3.3-0.5c-0.6,0.1-1.3,0.1-1.9,0.2l-0.1,0
						c-1.1,0.1-2.1-0.3-3.1-0.8c0.3,2,0.6,4.1,0.8,6.3c0.4,3.2-1.3,5.8-0.6,9c0.4,1.5,1.8,2.4,3.1,2.5c1.3,0.1,2.5,0.3,3.7,0.6
						c0.2,0.1,0.5,0.2,0.6,0.2c0.3,0.2,0.6,0.4,0.8,0.6c0.7-0.9,1.7-1.1,2.7-1.2c1.8-0.2,4.1-0.1,5.2-2v-0.1
						c0.6-1.1,0.5-2.7,0.3-3.9c0-0.4-0.1-0.8-0.2-1.2c-1.1-3.4-0.2-7.3,0.3-10.8c-0.6,0.4-1.2,0.6-1.9,0.7c-0.5,0.1-1.1,0-1.6,0
						L-268,413.9"/>
				</g>
				<g>
					<path class="st7" d="M-265.7,423.7c0,0.2,0.1,0.4,0.1,0.6c0.2,1.5,0.4,3.5-0.9,4.4c-1.5,1.1-3.4,0.6-5.1,1.2
						c-0.3,0.1-0.8,0.5-1,0.7c-0.2-0.1-0.3-0.3-0.5-0.4c-1.4-0.9-3.2-0.6-4.8-1c-0.8-0.3-1.6-1-1.8-2c-0.5-2.5,0.7-4.6,0.6-7.1
						c-0.1-1.9-0.4-3.7-0.7-5.4c1.2,0.7,2.7,0.8,4,0.5c1-0.2,2.2-0.2,3.2,0.3c0.5-0.3,1.1-0.4,1.7-0.5c1.1,0.1,2.2,0.4,3.4,0.3
						c0.7,0,1.4-0.3,2.1-0.6C-265.9,417.8-266.6,420.8-265.7,423.7"/>
				</g>
				<g>
					<path class="st4" d="M-267.9,424.3l0-2.7h0.3l-3.6-2.7l0-1.4h0.3l-1.8-1.5l-1.8,1.5h0.3l0,1.4l-3.6,2.7l0.3,0l0,2.7
						L-267.9,424.3"/>
				</g>
				<g>
					<path d="M-267.5,425l-10.5,0l0-2.7l-1.6,0l4.9-3.7l0-0.4h-1.5l3.6-3l3.6,3h-1.5l0,0.4l4.9,3.7h-1.6l0,2.2L-267.5,425z
						 M-276.7,423.6l8.1,0l0-2l-3.3-2.5l0-1.7l-0.8-0.7l-0.8,0.7l0,1.7l-3.3,2.5L-276.7,423.6z"/>
				</g>
				<g>
					<path class="st4" d="M-266.8,427.9l0,0.9l-11.5,0l0-0.9L-266.8,427.9"/>
				</g>
				<g>
					<polygon points="-266.1,429.4 -279,429.4 -279,427.2 -266.2,427.3 					"/>
				</g>
				<g>
					<path class="st4" d="M-277.6,427.9l0-2.9l0.5,0l0,2.9l0-2.9l-0.7,0v-0.6l10.3,0l0,0.6h-0.6l0,2.9l0-2.9h0.5l0,2.9"/>
				</g>
				<g>
					<polygon points="-268.8,427.9 -268.8,425 -276.5,425 -276.5,427.9 -277.8,427.9 -277.8,427.9 -278.2,427.9 -278.2,425.6 
						-278.4,425.6 -278.4,423.7 -266.8,423.7 -266.8,425.6 -267,425.6 -267,427.9 					"/>
				</g>
				<g>
					<polygon points="-274.7,427.8 -277.4,427.8 -277.4,424.5 -274.7,424.5 					"/>
				</g>
				<g>
					<path d="M-267.9,427.8h-2.7l0-3.3l2.7,0L-267.9,427.8z M-275.1,427.4h-2l0-2.5h2L-275.1,427.4z"/>
				</g>
				<g>
					<path d="M-268.3,427.4h-2l0-2.5h2L-268.3,427.4z M-267.9,424.5h-2.7l0-3.3h2.7L-267.9,424.5z"/>
				</g>
				<g>
					<path d="M-274.7,424.5l-2.7,0l0-3.3l2.7,0L-274.7,424.5z M-268.3,424.1h-2l0-2.5h2L-268.3,424.1z"/>
				</g>
				<g>
					<path d="M-272.9,424.5h-2l0-3.3l2.7,0l0,2.7l-0.7,0V424.5z M-275.1,424.1l-2,0l0-2.5h2L-275.1,424.1z"/>
				</g>
				<g>
					<polygon points="-270.9,424.5 -273,424.5 -273,424.1 -274.5,424.1 -274.5,421.6 -273,421.6 -273,421.2 -270.3,421.2 
						-270.3,423.9 -270.9,423.9 					"/>
				</g>
				<g>
					<polygon points="-270.6,424.1 -272.6,424.1 -272.6,421.6 -270.7,421.6 					"/>
				</g>
				<g>
					<path class="st4" d="M-270.6,423.2l0,4.7l-4,0l0-4.7L-270.6,423.2"/>
				</g>
				<g>
					<path d="M-269.9,428.6l-5.3,0l0-6l5.3,0L-269.9,428.6z M-273.5,427.2l1.7,0l0-2l-1.7,0L-273.5,427.2z M-273.9,423.9l2.7,0v0
						L-273.9,423.9L-273.9,423.9z M-269.1,421.9l-8.8,0l3.6-3.1l0-1.8l3.5,0l0,1.8l2.2,1.9l-0.4,0.5L-269.1,421.9z M-274.4,420.6
						l3.4,0l-0.7-0.6l-2,0L-274.4,420.6z"/>
				</g>
				<g>
					<polygon points="-271.5,419.3 -273.8,419.3 -273.8,418 -275.7,418 -272.7,415.5 -269.6,418 -271.5,418 					"/>
				</g>
				<g>
					<path class="st4" d="M-267.9,415.7c0.3,0,0.4,1.6,0.4,2.4c0.3,0.1,0.9,0.6,1.2,1l-3.3,0c0.3-0.4,0.9-0.9,1.2-1
						C-268.3,417.4-268.2,415.7-267.9,415.7"/>
				</g>
				<g>
					<path d="M-271.9,424.9l-1.6,0l0,0h-2l0.4-0.9c0-0.1,0-0.2,0-0.4l-0.4-0.9h3.6l0,0l2,0l-0.4,0.9c0,0.1,0,0.2,0,0.4l0.4,0.9h-0.6
						l0,0L-271.9,424.9L-271.9,424.9z M-265,419.8l-5.7,0l0.7-1c0.3-0.4,0.7-0.8,1.1-1c0-2,0.4-2.3,0.5-2.5l0.2-0.2l0.3,0l0,0l0,0
						l0,0l0.5,0.2c0.1,0.1,0.5,0.5,0.5,2.5c0.4,0.3,0.9,0.6,1.1,1L-265,419.8z"/>
				</g>
				<g>
					<path class="st5" d="M-272.6,433.9c1.5,0,3.3-0.4,4.2-0.9l1.9-0.2l0,2.7c-1.6,1-5.3,1.3-6.1,1.3c-0.8,0-4.6-0.2-6.2-1.3l0-2.7
						l1.9,0.2C-276,433.5-274.1,433.9-272.6,433.9L-272.6,433.9"/>
				</g>
				<g>
					<path d="M-272.6,436.9c-0.8,0-4.6-0.2-6.2-1.3l-0.1,0l0-3l2.1,0.2c0.8,0.5,2.6,0.9,4.2,0.9l0,0c0,0,0,0,0,0
						c1.5,0,3.3-0.4,4.1-0.9l0.1,0l2.1-0.2l0,3l-0.1,0C-268,436.7-271.8,436.9-272.6,436.9C-272.6,436.9-272.6,436.9-272.6,436.9z
						 M-278.6,435.4c1.5,0.9,4.9,1.2,6,1.2c0,0,0.1,0,0.1,0c0.7,0,4.3-0.2,5.9-1.2l0-2.5l-1.7,0.2c-0.9,0.5-2.7,0.9-4.2,0.9
						c0,0,0,0,0,0c-1.6,0-3.4-0.4-4.3-0.9l-1.7-0.2L-278.6,435.4z"/>
				</g>
				<g>
					<path class="st5" d="M-283.6,422.3l1.7,0.6l-0.5,3.2l-1.6,0.3C-284.1,426.4-284.3,424.7-283.6,422.3"/>
				</g>
				<g>
					<path d="M-284.2,426.6l0-0.2c0-0.1-0.3-1.7,0.4-4.1l0.2,0l0-0.1l1.8,0.7l-0.5,3.4L-284.2,426.6z M-283.5,422.5
						c-0.5,1.8-0.4,3.2-0.4,3.7l1.3-0.2l0.5-2.9L-283.5,422.5z"/>
				</g>
				<g>
					<path class="st8" d="M-282.5,426.1l-1.6,0.3l1-1.7L-282.5,426.1"/>
				</g>
				<g>
					<path d="M-284.4,426.6l1.3-2.2l0.8,1.8L-284.4,426.6z M-283.1,425.1l-0.7,1.1l1.1-0.2L-283.1,425.1z"/>
				</g>
				<g>
					<path class="st5" d="M-284.6,424.6l1.6,0.1c0,1.6,0.2,7.7,6.4,8l-0.2,2.2C-284.4,435.1-284.9,427.5-284.6,424.6"/>
				</g>
				<g>
					<path d="M-278.7,435.6l-0.1-0.3l0.8-0.2c-1.9-0.2-3.4-0.9-4.6-2.2c-2.1-2.3-2.5-5.9-2.2-8.3l0-0.1l1.9,0.2l0,0.1
						c0.1,6.2,3.5,7.7,6.3,7.9l0.2,0l-0.2,2.5l-0.1,0c0,0-0.1,0-0.1,0L-278.7,435.6z M-284.5,424.8c-0.1,1-0.3,5.2,2.2,7.9
						c1.3,1.4,3.1,2.1,5.4,2.1l0,0l0.2-1.9c-2.9-0.2-6.2-1.8-6.4-8L-284.5,424.8z"/>
				</g>
				<g>
					<path class="st5" d="M-261.6,422.4l-1.7,0.6l0.5,3.2l1.6,0.3C-261.2,426.4-260.9,424.8-261.6,422.4"/>
				</g>
				<g>
					<path d="M-261.1,426.6l-1.8-0.3l-0.6-3.4l1.8-0.7l0,0.1l0.2,0c0.7,2.4,0.5,4.1,0.5,4.1L-261.1,426.6z M-262.7,426l1.3,0.2
						c0-0.5,0.1-1.8-0.4-3.7l-1.4,0.5L-262.7,426z"/>
				</g>
				<g>
					<path class="st8" d="M-262.8,426.1l1.6,0.3l-1-1.7L-262.8,426.1"/>
				</g>
				<g>
					<path d="M-260.9,426.7l-2.1-0.4l0.8-1.8L-260.9,426.7z M-262.6,426l1.1,0.2l-0.7-1.1L-262.6,426z"/>
				</g>
				<g>
					<path class="st5" d="M-260.6,424.6l-1.6,0.1c0,1.6-0.1,7.7-6.4,8l0.2,2.2C-260.8,435.1-260.3,427.5-260.6,424.6"/>
				</g>
				<g>
					<path d="M-266.5,435.6l-1.8-0.5c0,0-0.1,0-0.1,0l-0.1,0l-0.2-2.5l0.2,0c2.8-0.1,6.1-1.6,6.2-7.9l0-0.1l1.9-0.2l0,0.1
						c0.3,2.4-0.1,6-2.2,8.3c-1.1,1.3-2.7,2-4.6,2.2l0.8,0.2L-266.5,435.6z M-268.3,434.8L-268.3,434.8c2.3,0,4.1-0.7,5.4-2.1
						c2.4-2.7,2.2-6.9,2.1-7.9l-1.3,0.1c-0.1,6.2-3.5,7.8-6.3,8L-268.3,434.8z"/>
				</g>
				<g>
					<path class="st9" d="M-273.6,435.2c0,0-0.1,0-0.2,0l-0.3,0l0-0.4l0.3,0c0.1,0,0.1,0,0.1,0c0.1,0,0.1,0.1,0.1,0.2
						C-273.5,435.1-273.5,435.2-273.6,435.2 M-274.1,435.9l0-0.5l0.4,0c0.1,0,0.2,0,0.3-0.1c0.1-0.1,0.1-0.2,0.1-0.2
						c0-0.1,0-0.2-0.1-0.3c-0.1-0.1-0.1-0.1-0.2-0.1l-0.5,0l-0.1,1.3L-274.1,435.9 M-273,434.8l0.4,0c0.1,0,0.1,0,0.1,0
						c0.1,0,0.1,0.1,0.1,0.2c0,0.1,0,0.1-0.1,0.2c0,0-0.1,0-0.2,0l-0.4,0L-273,434.8 M-273,436l0-0.5l0.3,0c0.1,0,0.1,0,0.1,0
						c0.1,0,0.1,0.1,0.1,0.2l0,0.2c0,0.1,0,0.1,0,0.1c0,0,0,0,0,0h0.2l0,0c0,0,0,0,0-0.1c0,0,0-0.1,0-0.1l0-0.2c0-0.1,0-0.1,0-0.2
						c0,0-0.1-0.1-0.1-0.1c0.1,0,0.1-0.1,0.1-0.1c0,0,0-0.1,0-0.2c0-0.1-0.1-0.2-0.2-0.3c-0.1,0-0.1,0-0.2,0l-0.5,0l0,1.3L-273,436
						 M-271.9,435.7c-0.1-0.1-0.1-0.2-0.1-0.4c0-0.2,0-0.3,0.1-0.4c0.1-0.1,0.2-0.1,0.3-0.2c0.1,0,0.2,0,0.3,0.1
						c0.1,0.1,0.1,0.2,0.1,0.3c0,0.1,0,0.3-0.1,0.4c-0.1,0.1-0.1,0.2-0.3,0.2C-271.7,435.8-271.8,435.8-271.9,435.7 M-272,434.9
						c-0.1,0.1-0.1,0.3-0.1,0.4c0,0.2,0.1,0.3,0.2,0.5c0.1,0.1,0.2,0.2,0.4,0.2c0.2,0,0.3-0.1,0.4-0.2c0.1-0.1,0.1-0.3,0.1-0.5
						c0-0.2-0.1-0.3-0.1-0.4c-0.1-0.1-0.2-0.2-0.4-0.2C-271.8,434.7-271.9,434.7-272,434.9 M-267,433.1c0.1,0,0.2,0,0.3,0
						c0.1,0,0.2,0.1,0.3,0.3l-0.1,0c0-0.1-0.1-0.1-0.1-0.2c-0.1,0-0.1,0-0.2,0c-0.1,0-0.2,0.1-0.2,0.2c-0.1,0.1-0.1,0.2,0,0.4
						c0,0.1,0.1,0.3,0.1,0.3c0.1,0.1,0.2,0.1,0.3,0.1c0.1,0,0.2-0.1,0.2-0.1c0.1-0.1,0.1-0.2,0.1-0.3l-0.3,0.1l0-0.1l0.5-0.1
						l0.1,0.7l-0.1,0l-0.1-0.2c0,0.1-0.1,0.1-0.1,0.2c-0.1,0.1-0.1,0.1-0.2,0.1c-0.1,0-0.2,0-0.4-0.1c-0.1-0.1-0.2-0.3-0.2-0.5
						c0-0.2,0-0.4,0.1-0.5C-267.2,433.2-267.1,433.1-267,433.1 M-265.9,433l0.3-0.1c0,0,0.1,0,0.1,0c0.1,0,0.1,0,0.1,0.1
						c0,0.1,0,0.1,0,0.2c0,0-0.1,0.1-0.1,0.1l-0.3,0.1L-265.9,433 M-265.5,434l-0.2-0.5l0.3-0.1c0.1,0,0.1,0,0.1,0
						c0.1,0,0.1,0,0.1,0.1l0.1,0.2c0,0,0,0.1,0,0.1c0,0,0,0,0,0l0.2-0.1l0,0c0,0-0.1,0-0.1,0c0,0,0-0.1,0-0.1l-0.1-0.2
						c0-0.1-0.1-0.1-0.1-0.1c0,0-0.1,0-0.1,0c0,0,0.1-0.1,0.1-0.2c0-0.1,0-0.1,0-0.2c0-0.1-0.1-0.2-0.2-0.2c-0.1,0-0.1,0-0.2,0
						l-0.5,0.2l0.4,1.2L-265.5,434 M-264.3,433.4l-0.6-1.1l0.7-0.5l0.1,0.1l-0.6,0.4l0.2,0.3l0.5-0.4l0.1,0.1l-0.5,0.4l0.2,0.4
						l0.6-0.4l0.1,0.1L-264.3,433.4 M-263.7,431.5l0.2-0.2c0.1-0.1,0.2-0.1,0.3-0.1c0.1,0,0.2,0.1,0.3,0.2c0,0,0.1,0.1,0.1,0.1
						c0,0.1,0.1,0.1,0.1,0.2c0,0.1,0,0.1,0,0.2c0,0,0,0.1-0.1,0.1l-0.2,0.2L-263.7,431.5 M-262.8,432c0.1-0.2,0.2-0.3,0.1-0.5
						c0-0.1-0.1-0.2-0.2-0.3c-0.1-0.1-0.2-0.2-0.4-0.2c-0.1,0-0.3,0-0.4,0.2l-0.3,0.4l0.8,0.8L-262.8,432 M-262.1,431.1l-1-0.7
						l0.1-0.1l1,0.7L-262.1,431.1 M-261.8,430.3l-1-0.5l0.3-0.8l0.1,0.1l-0.2,0.7l0.3,0.1l0.2-0.6l0.1,0.1l-0.2,0.6l0.3,0.2l0.3-0.7
						l0.1,0.1L-261.8,430.3 M-261.3,428.8l-1.1-0.3l0-0.2l1-0.4l-0.9-0.2l0-0.2l1.1,0.3l0,0.2l-1,0.4l0.9,0.2L-261.3,428.8
						 M-261.4,427.2l0-0.2c0.1,0,0.1,0,0.2,0c0.1,0,0.1-0.1,0.1-0.3c0-0.1,0-0.1,0-0.2c0-0.1-0.1-0.2-0.2-0.2c-0.1,0-0.1,0-0.1,0
						c0,0-0.1,0.1-0.1,0.2l0,0.2c0,0.1-0.1,0.2-0.1,0.2c-0.1,0.1-0.1,0.1-0.2,0.1c-0.1,0-0.2-0.1-0.2-0.1c-0.1-0.1-0.1-0.2-0.1-0.3
						c0-0.1,0-0.2,0.1-0.3c0.1-0.1,0.2-0.1,0.3-0.1l0,0.2c-0.1,0-0.1,0-0.1,0c-0.1,0-0.1,0.1-0.1,0.3c0,0.1,0,0.2,0,0.2
						c0,0,0.1,0.1,0.1,0.1c0.1,0,0.1,0,0.1-0.1c0,0,0-0.1,0.1-0.2l0-0.2c0-0.1,0.1-0.1,0.1-0.2c0.1-0.1,0.1-0.1,0.2-0.1
						c0.1,0,0.2,0.1,0.3,0.2c0,0.1,0.1,0.2,0,0.4c0,0.2-0.1,0.3-0.1,0.4C-261.2,427.2-261.3,427.2-261.4,427.2 M-283.9,427.1l0,0.2
						c-0.1,0-0.1,0-0.1,0.1c-0.1,0.1-0.1,0.2-0.1,0.3c0,0.1,0,0.1,0.1,0.2c0,0.1,0.1,0.1,0.2,0.1c0.1,0,0.1,0,0.1-0.1
						c0,0,0-0.1,0-0.2l0-0.2c0-0.1,0-0.2,0-0.2c0-0.1,0.1-0.1,0.2-0.2c0.1,0,0.2,0,0.3,0.1c0.1,0.1,0.1,0.2,0.1,0.3
						c0,0.1,0,0.2,0,0.3c0,0.1-0.1,0.2-0.2,0.2l0-0.2c0.1,0,0.1,0,0.1-0.1c0-0.1,0.1-0.2,0-0.3c0-0.1,0-0.2-0.1-0.2
						c0,0-0.1-0.1-0.1,0c-0.1,0-0.1,0-0.1,0.1c0,0,0,0.1,0,0.2l0,0.2c0,0.1,0,0.2,0,0.2c0,0.1-0.1,0.1-0.2,0.2c-0.1,0-0.2,0-0.3-0.1
						c-0.1-0.1-0.1-0.2-0.1-0.3c0-0.2,0-0.3,0-0.4C-284.1,427.2-284,427.1-283.9,427.1 M-284,428.8l1.1-0.4l0.2,0.9l-0.1,0l-0.2-0.7
						l-0.3,0.1l0.2,0.7l-0.1,0l-0.2-0.7l-0.4,0.1l0.2,0.7l-0.1,0L-284,428.8 M-283.5,430.3l1-0.6l0.1,0.2l-0.7,0.8l1-0.2l0.1,0.2
						l-1,0.6l-0.1-0.1l0.6-0.4c0,0,0.1,0,0.1-0.1c0,0,0.1-0.1,0.1-0.1l-1,0.2l-0.1-0.1l0.7-0.8l0,0c0,0-0.1,0-0.1,0.1
						c0,0-0.1,0-0.1,0.1l-0.6,0.4L-283.5,430.3 M-281.7,432c0,0-0.1,0-0.1-0.1l-0.2-0.2l0.3-0.3l0.2,0.2c0,0,0.1,0.1,0.1,0.1
						c0,0.1,0,0.1-0.1,0.2C-281.6,432-281.6,432-281.7,432 M-282.5,432.1l0.3-0.4l0.2,0.3c0.1,0.1,0.2,0.1,0.2,0.1
						c0.1,0,0.2,0,0.2-0.1c0.1-0.1,0.1-0.2,0.1-0.3c0-0.1,0-0.2-0.1-0.3l-0.3-0.4l-0.8,0.9L-282.5,432.1 M-281.5,433.1l0.6-1.1
						l0.7,0.5l-0.1,0.1l-0.6-0.4l-0.2,0.3l0.5,0.4l-0.1,0.1l-0.5-0.4l-0.2,0.4l0.6,0.4l-0.1,0.1L-281.5,433.1 M-279.8,432.9l0.4,0.1
						c0,0,0.1,0,0.1,0.1c0,0,0.1,0.1,0,0.2c0,0.1-0.1,0.1-0.1,0.1c0,0-0.1,0-0.2,0l-0.3-0.1L-279.8,432.9 M-280.1,434l0.1-0.5
						l0.3,0.1c0.1,0,0.1,0,0.1,0.1c0,0,0.1,0.1,0,0.2l0,0.2c0,0,0,0.1,0,0.1c0,0,0,0,0,0l0.2,0.1l0,0c0,0,0,0,0-0.1c0,0,0-0.1,0-0.1
						l0-0.2c0-0.1,0-0.1,0-0.2c0,0,0-0.1-0.1-0.1c0.1,0,0.1,0,0.1-0.1c0,0,0.1-0.1,0.1-0.2c0-0.1,0-0.3-0.1-0.3c0,0-0.1-0.1-0.2-0.1
						l-0.5-0.2l-0.3,1.2L-280.1,434"/>
				</g>
				<g>
					<path class="st10" d="M-278.6,412.2c0.1-0.4,1.3-1.3,5.2-0.9c0,0,0.7,0.5,1,0.4c0.2,0-0.1,0-0.4-0.3c-0.3-0.3-0.4-0.8,0.3-0.8
						c0.7,0,3.1,0.2,3.2,0.4c0,0.3-1.3,0.4-1.8,0.4c-0.5,0-0.4,0.3,0.1,0.3c1.6-0.1,3.3-0.7,5.1,0.8c0.2,0.2-0.5,0.2-1.1-0.1
						c0,0-1.6,0.1-2.3,0c0,0-0.5,0.5-1.2,0.5c0.1,0.3-0.3,1.2-2.4,0.5c-0.4,0.1-1.7,0.4-1.5-0.1c-0.3,0-0.9,0.1-1-0.1
						c-0.1-0.2,1.1-0.6,1.3-0.8c0,0-2.4,0-2.9-0.2C-277.2,412.1-278.7,412.5-278.6,412.2"/>
				</g>
				<g>
					<path class="st11" d="M-277.8,416.2c0.1-0.1,0.1-0.2,0.2-0.2c0.2,0.1,0.4,0.6,0.7,0.3c0.1,0,0.1,0.1,0.2,0.2
						c0.1,0.3,0.3-0.1,0.4,0c0.3-0.2,0.7-0.2,1.1-0.1c0,0.3-0.2,0.6-0.4,0.8c0,0.3,0.2,0.5,0.2,0.7c0,0.1,0,0.3-0.1,0.3
						c-0.2,0-0.3-0.1-0.5-0.2c0,0,0-0.1-0.1,0c0,0.1,0.1,0.2,0.2,0.3c-0.1,0.2-0.2,0-0.4,0c0,0.1,0,0.2-0.1,0.3
						c-0.2,0-0.2-0.2-0.3-0.3c-0.1,0.1,0.1,0.2,0.1,0.3c-0.1,0.4-0.1,0.7-0.4,1l-0.2,0.1c-0.1-0.2,0-0.5-0.1-0.7
						c-0.1,0.2-0.2,0.4-0.4,0.6c-0.2-0.1-0.3-0.4-0.4-0.6c-0.1-0.3,0-0.6,0.2-0.8c-0.1-0.2-0.3-0.1-0.3-0.3
						c-0.3-0.3-0.5,0.5-0.7,0.1c-0.1-0.3,0-0.8,0.2-1c0-0.1-0.2-0.1-0.3-0.2c-0.2-0.2-0.5-0.4-0.5-0.8
						C-278.9,415.5-278.2,415.6-277.8,416.2"/>
				</g>
				<g>
					<path class="st5" d="M-277.5,416.1c0,0.3,0.2,0.1,0.3,0.3c-0.1-0.1-0.2,0.2-0.3,0.1l-0.1,0.1c0,0.1,0.1,0.1,0,0.2
						c-0.1,0.1-0.1-0.1-0.2-0.2c0,0,0-0.1,0-0.1c-0.1,0.1-0.1,0.1-0.2,0.1c0-0.1-0.1-0.1,0-0.2c0.1-0.1,0.2,0.1,0.3,0
						c0-0.1-0.1-0.2,0-0.3C-277.6,416.1-277.5,416-277.5,416.1 M-276.8,416.4c0,0.1,0,0.1,0,0.2c0.1-0.1,0.2,0,0.2,0.1
						c0,0.1,0,0.1,0,0.2l-0.1,0c0,0,0-0.1-0.1-0.1c-0.1,0-0.1,0-0.1,0.1c0,0.1,0.1,0.1,0.1,0.2c-0.1,0.1-0.1-0.1-0.2,0
						c-0.1,0,0-0.2-0.1-0.2c-0.1,0,0,0.2-0.2,0.1c-0.1-0.1-0.1-0.2,0-0.2c0.1,0,0.2,0,0.2,0C-277,416.5-277,416-276.8,416.4
						 M-277.7,416.8c0.1,0.1,0,0.2,0.1,0.3c0.1-0.3,0.2,0.1,0.4,0c0,0.1,0,0.1,0,0.2c-0.2,0.1-0.4,0.1-0.5,0l0,0.1
						c0.1,0.1,0.2,0.2,0.1,0.4c-0.1,0-0.3,0-0.4-0.1c0-0.1,0.1-0.2,0-0.3c-0.1,0.1-0.1,0.3-0.3,0.2c-0.1-0.1-0.1-0.2-0.1-0.3
						c0.1-0.2,0.3,0,0.4-0.1c0-0.2,0-0.3,0.1-0.4C-277.8,416.6-277.7,416.7-277.7,416.8"/>
				</g>
				<g>
					<path class="st4" d="M-277.2,416.9c-0.1,0.3-0.3,0-0.4,0C-277.4,416.6-277.3,417-277.2,416.9 M-276.5,417.3
						c-0.1,0-0.1-0.2-0.2-0.2l0.1-0.1C-276.6,417.1-276.6,417.2-276.5,417.3"/>
				</g>
				<g>
					<path class="st5" d="M-276.7,417.2c0,0.1-0.1,0.2,0,0.3c0,0,0.1-0.1,0.1-0.1c0.1,0,0.2,0.1,0.3,0.2c0.1,0.2-0.1,0.2-0.2,0.3
						l-0.1,0c0-0.1,0-0.1-0.1-0.1c-0.1,0-0.1,0-0.1,0.1c0,0.1,0.2,0.3,0,0.4c-0.1,0-0.3,0-0.3-0.2c0-0.1,0.1-0.3-0.1-0.3
						c-0.1,0.2-0.1,0.3-0.3,0.2l0-0.2c0.2,0,0.4,0,0.4-0.2c0-0.2-0.1-0.3,0-0.4C-276.9,417-276.8,417.1-276.7,417.2"/>
				</g>
				<g>
					<path d="M-276.9,417.6c0,0.1-0.1,0.1-0.1,0.2c-0.1,0-0.1,0-0.2-0.1c0-0.1,0.1-0.2,0.1-0.2
						C-276.9,417.4-276.9,417.5-276.9,417.6"/>
				</g>
				<g>
					<path class="st4" d="M-277,417.6C-277,417.7-277,417.7-277,417.6l-0.1-0.1C-277,417.5-276.9,417.6-277,417.6"/>
				</g>
			</g>
		</g>
	</g>
</g>
</svg>
