<?xml version="1.0" encoding="utf-8"?>
<!-- Generator: Adobe Illustrator 19.0.0, SVG Export Plug-In . SVG Version: 6.00 Build 0)  -->
<svg version="1.1" id="Layer_1" xmlns="http://www.w3.org/2000/svg" xmlns:xlink="http://www.w3.org/1999/xlink" x="0px" y="0px"
	 viewBox="-269 374 72 46" style="enable-background:new -269 374 72 46;" xml:space="preserve">
<style type="text/css">
	.st0{clip-path:url(#SVGID_2_);}
	.st1{fill:#FFFFFF;}
	.st2{fill:#DC2F34;}
	.st3{fill:#009E59;}
</style>
<g>
	<defs>
		<path id="SVGID_1_" d="M-204,420H-262c-3.8,0-7-3.1-7-7V381c0-3.8,3.1-7,7-7h58.1c3.8,0,7,3.1,7,7V413
			C-197,416.9-200.1,420-204,420z"/>
	</defs>
	<clipPath id="SVGID_2_">
		<use xlink:href="#SVGID_1_"  style="overflow:visible;"/>
	</clipPath>
	<g class="st0">
		<g>
			<polygon class="st1" points="-270.2,405.9 -195.8,405.9 -195.8,387.1 -270.2,387.1 			"/>
		</g>
		<g>
			<path d="M-195.7,406h-74.7V387h74.7V406z M-270.1,405.8h74.2v-18.6h-74.2V405.8z"/>
		</g>
		<g>
			<polygon class="st2" points="-195.8,387.1 -270.2,387.1 -270.2,368.3 -195.8,368.3 			"/>
		</g>
		<g>
			<path d="M-195.7,387.2h-74.7v-19.1h74.7V387.2z M-270.1,387h74.2v-18.6h-74.2V387z"/>
		</g>
		<g>
			<polygon points="-195.8,424.7 -270.2,424.7 -270.2,405.9 -195.8,405.9 			"/>
		</g>
		<g>
			<path d="M-195.7,424.9h-74.7v-19.1h74.7V424.9z M-270.1,424.6h74.2V406h-74.2V424.6z"/>
		</g>
		<g>
			<polygon class="st3" points="-245.4,389.7 -246.9,395 -251.9,395 -247.8,398.3 -249.4,403.6 -245.4,400.3 -241.4,403.6 
				-242.9,398.3 -238.9,395 -243.9,395 			"/>
		</g>
		<g>
			<path d="M-249.5,403.8l0.1-0.2l1.5-5.3l-4.1-3.4h5.1l1.6-5.5l1.6,5.5h5.1l-4.1,3.3l1.6,5.5l-4.1-3.4L-249.5,403.8z M-245.4,400.3
				l3.9,3.2l-1.5-5.2l0,0l3.9-3.1h-4.8l0,0l-1.5-5.1l-1.5,5.2h-4.8l3.9,3.2l0,0l-1.5,5.1L-245.4,400.3z"/>
		</g>
		<g>
			<polygon class="st3" points="-220.6,389.7 -222.1,395 -227,395 -223,398.3 -224.5,403.6 -220.6,400.3 -216.6,403.6 -218.1,398.3 
				-214.1,395 -219,395 			"/>
		</g>
		<g>
			<path d="M-224.7,403.8l0.1-0.2l1.5-5.3l-4.1-3.4h5.1l1.6-5.5l1.6,5.5h5.1l-4.1,3.3l1.6,5.5l-4.1-3.4L-224.7,403.8z M-220.6,400.3
				l3.9,3.2l-1.5-5.2l0,0l3.9-3.1h-4.8l0,0l-1.5-5.1l-1.5,5.2h-4.8l3.9,3.2l0,0l-1.5,5.1L-220.6,400.3z"/>
		</g>
	</g>
</g>
</svg>
