<?xml version="1.0" encoding="utf-8"?>
<!-- Generator: Adobe Illustrator 19.0.0, SVG Export Plug-In . SVG Version: 6.00 Build 0)  -->
<svg version="1.1" id="Layer_1" xmlns="http://www.w3.org/2000/svg" xmlns:xlink="http://www.w3.org/1999/xlink" x="0px" y="0px"
	 viewBox="-269 374 72 46" style="enable-background:new -269 374 72 46;" xml:space="preserve">
<style type="text/css">
	.st0{clip-path:url(#SVGID_2_);}
	.st1{fill:#5291CE;}
	.st2{fill:#FFD139;}
	.st3{fill:#B61F51;}
	.st4{fill:#DFE4E0;}
	.st5{fill:#FFFFFF;}
</style>
<g>
	<defs>
		<path id="SVGID_1_" d="M-204,420H-262c-3.8,0-7-3.1-7-7V381c0-3.8,3.1-7,7-7h58.1c3.8,0,7,3.1,7,7V413
			C-197,416.9-200.1,420-204,420z"/>
	</defs>
	<clipPath id="SVGID_2_">
		<use xlink:href="#SVGID_1_"  style="overflow:visible;"/>
	</clipPath>
	<g class="st0">
		<g>
			<polygon class="st1" points="-270,371.9 -196,371.9 -196,421.3 -270,421.3 			"/>
		</g>
		<g>
			<path d="M-195.9,421.4h-74.3v-49.6h74.3V421.4z M-269.9,421.1h73.8v-49.1h-73.8V421.1z"/>
		</g>
		<g>
			<polygon class="st2" points="-270,381.2 -196,381.2 -196,412 -270,412 			"/>
		</g>
		<g>
			<path d="M-195.9,412.1h-74.3v-31.1h74.3V412.1z M-269.9,411.9h73.8v-30.6h-73.8V411.9z"/>
		</g>
		<g>
			<polygon class="st3" points="-270,408.9 -196,408.9 -196,384.3 -270,384.3 			"/>
		</g>
		<g>
			<path d="M-195.9,409.1h-74.3v-24.9h74.3V409.1z M-269.9,408.8h73.8v-24.4h-73.8V408.8z"/>
		</g>
		<g>
			<polygon class="st4" points="-211.8,393 -209.9,393.9 -207,392.5 -209.9,391.1 -211.8,392 			"/>
		</g>
		<g>
			<path d="M-209.9,393.9L-209.9,393.9l-2-0.9v-1.1l2-0.9l3,1.5L-209.9,393.9z M-211.7,392.9l1.8,0.9l2.8-1.3l-2.8-1.3l-1.8,0.9
				V392.9z"/>
		</g>
		<g>
			<polygon class="st4" points="-214.3,395.6 -212.4,396.5 -209.5,395.1 -212.4,393.7 -214.3,394.6 			"/>
		</g>
		<g>
			<path d="M-212.4,396.6L-212.4,396.6l-2-0.9v-1.1l2-0.9l3,1.5L-212.4,396.6z M-214.3,395.6l1.8,0.9l2.8-1.3l-2.8-1.3l-1.8,0.9
				V395.6z"/>
		</g>
		<g>
			<path class="st2" d="M-262.5,398.3c-0.2,0-0.3-0.2-0.3-0.6c0-0.4,0.2-0.6,0.3-0.6h59.1c0.1,0,0.3,0.2,0.3,0.6
				c0,0.4-0.2,0.6-0.3,0.6H-262.5L-262.5,398.3z"/>
		</g>
		<g>
			<path d="M-203.5,398.3h-59.1c-0.1,0-0.1,0-0.2-0.1c-0.1-0.1-0.2-0.3-0.2-0.6c0-0.4,0.2-0.7,0.4-0.7h59.1c0.2,0,0.4,0.3,0.4,0.7
				c0,0.2-0.1,0.5-0.2,0.6C-203.3,398.3-203.4,398.3-203.5,398.3z M-262.5,397.1c-0.1,0-0.3,0.2-0.3,0.6c0,0.2,0.1,0.4,0.2,0.5
				c0,0,0.1,0.1,0.1,0.1h59.1c0,0,0.1,0,0.1-0.1c0.1-0.1,0.2-0.3,0.2-0.5c0-0.4-0.2-0.6-0.3-0.6H-262.5z"/>
		</g>
		<g>
			<path class="st2" d="M-254.8,393c-0.1,0-0.2-0.2-0.2-0.5c0-0.3,0.1-0.5,0.2-0.5h43c0.1,0,0.2,0.2,0.2,0.5c0,0.3-0.1,0.5-0.2,0.5
				H-254.8L-254.8,393z"/>
		</g>
		<g>
			<path d="M-211.8,393h-43c-0.1,0-0.1,0-0.2-0.1c-0.1-0.1-0.2-0.3-0.2-0.5c0-0.3,0.2-0.6,0.3-0.6h43c0.1,0,0.3,0.2,0.3,0.6
				c0,0.2-0.1,0.4-0.2,0.5C-211.7,393-211.7,393-211.8,393z M-254.8,392c0,0-0.2,0.2-0.2,0.4c0,0.2,0.1,0.3,0.1,0.4c0,0,0,0,0.1,0
				h43c0,0,0,0,0.1,0c0.1-0.1,0.1-0.2,0.1-0.4c0-0.3-0.1-0.4-0.2-0.4H-254.8z"/>
		</g>
		<g>
			<path class="st2" d="M-257.3,395.6c-0.1,0-0.2-0.2-0.2-0.5c0-0.3,0.1-0.5,0.2-0.5h43c0.1,0,0.2,0.2,0.2,0.5
				c0,0.3-0.1,0.5-0.2,0.5H-257.3L-257.3,395.6z"/>
		</g>
		<g>
			<path d="M-214.3,395.7h-43c-0.1,0-0.1,0-0.2-0.1c-0.1-0.1-0.2-0.3-0.2-0.5c0-0.3,0.2-0.6,0.3-0.6h43c0.1,0,0.3,0.2,0.3,0.6
				c0,0.2-0.1,0.4-0.1,0.5C-214.2,395.6-214.3,395.7-214.3,395.7z M-214.6,395.5h0.3c0,0,0,0,0.1,0c0.1-0.1,0.1-0.2,0.1-0.4
				c0-0.3-0.1-0.4-0.2-0.4h-0.3c0.1,0.1,0.1,0.3,0.1,0.4C-214.5,395.3-214.5,395.4-214.6,395.5z M-215.1,395.5h0.3c0,0,0,0,0.1,0
				c0.1-0.1,0.1-0.2,0.1-0.4c0-0.3-0.1-0.4-0.2-0.4h-0.3c0.1,0.1,0.1,0.3,0.1,0.4C-215,395.3-215,395.4-215.1,395.5z M-215.6,395.5
				h0.3c0,0,0,0,0.1,0c0.1-0.1,0.1-0.2,0.1-0.4c0-0.3-0.1-0.4-0.2-0.4h-0.3c0.1,0.1,0.1,0.3,0.1,0.4
				C-215.5,395.3-215.6,395.4-215.6,395.5z M-257.3,394.7c0,0-0.2,0.2-0.2,0.4c0,0.2,0.1,0.3,0.1,0.4c0,0,0,0,0.1,0h41.5
				c0,0,0,0,0.1,0c0.1-0.1,0.1-0.2,0.1-0.4c0-0.3-0.1-0.4-0.2-0.4H-257.3z M-212.3,393v-0.1c0,0,0,0,0.1,0c0.1-0.1,0.1-0.2,0.1-0.4
				c0-0.3-0.1-0.4-0.2-0.4v-0.1c0.1,0,0.3,0.2,0.3,0.6c0,0.2-0.1,0.4-0.2,0.5C-212.2,393-212.2,393-212.3,393z M-212.8,393v-0.1
				c0,0,0,0,0.1,0c0.1-0.1,0.1-0.2,0.1-0.4c0-0.3-0.1-0.4-0.2-0.4v-0.1c0.1,0,0.3,0.2,0.3,0.6c0,0.2-0.1,0.4-0.1,0.5
				C-212.7,393-212.7,393-212.8,393z M-213.3,393v-0.1c0,0,0,0,0.1,0c0.1-0.1,0.1-0.2,0.1-0.4c0-0.3-0.1-0.4-0.2-0.4v-0.1
				c0.1,0,0.3,0.2,0.3,0.6c0,0.2-0.1,0.4-0.1,0.5C-213.2,393-213.3,393-213.3,393z"/>
		</g>
		<g>
			<path class="st5" d="M-215.6,396.6c-0.9,0.8-1.9,2.1-3.5,3.8c-3.5,4-8.5,7.4-14.3,7.4c-5.8,0-10.7-3.5-14.3-7.4
				c-1.5-1.7-2.6-3-3.5-3.8c0.9-0.8,1.9-2.1,3.5-3.8c3.5-4,8.5-7.4,14.3-7.4c5.8,0,10.7,3.5,14.3,7.4
				C-217.5,394.5-216.5,395.8-215.6,396.6L-215.6,396.6z"/>
		</g>
		<g>
			<path d="M-233.3,407.9c-6.3,0-11.3-4.1-14.3-7.5c-0.4-0.5-0.8-0.9-1.2-1.3c-0.9-1.1-1.7-1.9-2.3-2.5l-0.1,0l0.1,0
				c0.7-0.6,1.4-1.4,2.3-2.5c0.4-0.4,0.7-0.9,1.2-1.3c3-3.4,8-7.5,14.3-7.5c6.3,0,11.3,4.1,14.3,7.5c0.4,0.5,0.8,0.9,1.2,1.3
				c0.9,1.1,1.7,1.9,2.3,2.5l0.1,0l-0.1,0c-0.7,0.6-1.4,1.4-2.3,2.5c-0.4,0.4-0.7,0.9-1.2,1.3C-222,403.9-227,407.9-233.3,407.9z
				 M-251,396.6c0.6,0.6,1.4,1.4,2.3,2.4c0.4,0.4,0.7,0.9,1.2,1.3c3,3.4,7.9,7.4,14.2,7.4c6.3,0,11.2-4,14.2-7.4
				c0.4-0.5,0.8-0.9,1.2-1.3c0.9-1,1.6-1.9,2.3-2.4c-0.6-0.6-1.4-1.4-2.3-2.4c-0.4-0.4-0.7-0.9-1.2-1.3c-3-3.4-7.9-7.4-14.2-7.4
				c-6.3,0-11.2,4-14.2,7.4c-0.4,0.5-0.8,0.9-1.2,1.3C-249.6,395.2-250.3,396-251,396.6z"/>
		</g>
		<g>
			<path d="M-231.4,407.7c-0.6,0.1-1.3,0.1-1.9,0.1c-5.8,0-10.7-3.5-14.3-7.4c-1.5-1.7-2.6-3-3.5-3.8c0.9-0.8,1.9-2.1,3.5-3.8
				c3.5-4,8.5-7.4,14.3-7.4c0.2,0,0.4,0,0.6,0c-0.9,0.7-2,1.7-1.4,2.8c0.3,0.5,0.6,0.7,0.6,1.6c0,0.7,0.1,0.9,0.3,0.9
				s0.3,0.1,0.3,0.4c0,0.3,0.2,0.4,0.5,0.4c0.2,0,0.5,0,0.5,0.8c-0.1,1.3-0.3,2.7,0.8,3.4c0.7,0.4,0.8,0.9,0.3,1.5
				c-0.5,0.6-1.6,0.9-1.6,2c0,0.9-0.2,1.4-0.7,1.7c-0.5,0.3-0.9,0.7-0.9,1c0,0.4,0.1,0.6,0.6,0.9c0.5,0.3,0.7,1,0,1
				c-1.1,0-2.1,0.5-1.3,1.1C-234.1,405.5-231.9,406.4-231.4,407.7L-231.4,407.7z"/>
		</g>
		<g>
			<polygon class="st5" points="-243.4,401.2 -243.4,398.1 -244.2,398.1 -244.2,401.2 			"/>
		</g>
		<g>
			<polygon class="st5" points="-241.7,401.2 -241.7,398.1 -242.5,398.1 -242.5,401.2 			"/>
		</g>
		<g>
			<polygon class="st5" points="-240,401.2 -240,398.1 -240.8,398.1 -240.8,401.2 			"/>
		</g>
		<g>
			<polygon class="st5" points="-238.3,401.2 -238.3,398.1 -239.1,398.1 -239.1,401.2 			"/>
		</g>
		<g>
			<polygon class="st5" points="-236.6,401.2 -236.6,398.1 -237.4,398.1 -237.4,401.2 			"/>
		</g>
		<g>
			<polygon class="st5" points="-234.9,401.2 -234.9,398.1 -235.7,398.1 -235.7,401.2 			"/>
		</g>
		<g>
			<polygon class="st5" points="-243.4,392.1 -243.4,395.1 -244.2,395.1 -244.2,392.1 			"/>
		</g>
		<g>
			<polygon class="st5" points="-241.7,392.1 -241.7,395.1 -242.5,395.1 -242.5,392.1 			"/>
		</g>
		<g>
			<polygon class="st5" points="-240,392.1 -240,395.1 -240.8,395.1 -240.8,392.1 			"/>
		</g>
		<g>
			<polygon class="st5" points="-238.3,392.1 -238.3,395.1 -239.1,395.1 -239.1,392.1 			"/>
		</g>
		<g>
			<polygon class="st5" points="-236.6,392.1 -236.6,395.1 -237.4,395.1 -237.4,392.1 			"/>
		</g>
		<g>
			<polygon class="st5" points="-234.9,392.1 -234.9,395.1 -235.7,395.1 -235.7,392.1 			"/>
		</g>
		<g>
			<polygon points="-223.2,401.2 -223.2,398.1 -222.4,398.1 -222.4,401.2 			"/>
		</g>
		<g>
			<polygon points="-224.9,401.2 -224.9,398.1 -224.1,398.1 -224.1,401.2 			"/>
		</g>
		<g>
			<polygon points="-226.7,401.2 -226.7,398.1 -225.9,398.1 -225.9,401.2 			"/>
		</g>
		<g>
			<polygon points="-228.4,401.2 -228.4,398.1 -227.6,398.1 -227.6,401.2 			"/>
		</g>
		<g>
			<polygon points="-230.1,401.2 -230.1,398.1 -229.3,398.1 -229.3,401.2 			"/>
		</g>
		<g>
			<polygon points="-231.8,401.2 -231.8,398.1 -231,398.1 -231,401.2 			"/>
		</g>
		<g>
			<polygon points="-223.2,392.1 -223.2,395.1 -222.4,395.1 -222.4,392.1 			"/>
		</g>
		<g>
			<polygon points="-224.9,392.1 -224.9,395.1 -224.1,395.1 -224.1,392.1 			"/>
		</g>
		<g>
			<polygon points="-226.7,392.1 -226.7,395.1 -225.9,395.1 -225.9,392.1 			"/>
		</g>
		<g>
			<polygon points="-228.4,392.1 -228.4,395.1 -227.6,395.1 -227.6,392.1 			"/>
		</g>
		<g>
			<polygon points="-230.1,392.1 -230.1,395.1 -229.3,395.1 -229.3,392.1 			"/>
		</g>
		<g>
			<polygon points="-231.8,392.1 -231.8,395.1 -231,395.1 -231,392.1 			"/>
		</g>
		<g>
			<path class="st1" d="M-239.3,388.2c-1.1,0.6-2.2,1.6-2.3,3.1c0.2-0.1,0.4-0.3,0.5-0.5c-0.2,1,0.4,2.2,0.2,2.6
				c0.3-0.2,0.5-0.6,0.5-0.9c0.1,0.6,1,0.8,1.1,1.4c0.1-0.1,0.2-0.4,0.2-0.6c0.1,0.5,0.9,1,1.1,1.5c0.1-0.2,0.1-0.5,0.1-0.7
				c0.2,0.6,1,0.9,1.8,1.1c-0.7-0.9,0.1-1.8-0.2-2.3c0.2,0.4,0.5,0.6,0.8,0.6c-0.2-0.1-0.1-1.2-0.5-1.7c0.3,0.1,0.4,0.4,1,0.5
				c-0.3-0.5-0.1-1.2-0.5-1.8c0.1,0.1,0.4,0,0.6,0c-0.4-0.3-0.2-1-1.2-1.7c-0.5-0.3-1.3-0.5-2-0.5c0.1-0.1,0.4-0.2,0.6-0.2
				C-238,387.8-238.8,387.9-239.3,388.2L-239.3,388.2z"/>
		</g>
		<g>
			<path d="M-235.9,395.3l-0.2,0c-0.6-0.2-1.4-0.4-1.7-0.9c0,0.2-0.1,0.4-0.1,0.5l-0.1,0.2l-0.1-0.2c-0.1-0.2-0.3-0.4-0.5-0.6
				c-0.2-0.2-0.4-0.4-0.5-0.6c0,0.2-0.1,0.3-0.2,0.4l-0.1,0.1l0-0.1c0-0.3-0.3-0.5-0.5-0.7c-0.2-0.2-0.4-0.3-0.5-0.5
				c-0.1,0.3-0.2,0.6-0.5,0.7l-0.2,0.1l0.1-0.2c0.1-0.1,0-0.5-0.1-0.8c-0.1-0.5-0.2-1.1-0.2-1.6c-0.1,0.1-0.3,0.3-0.4,0.3l-0.1,0
				l0-0.1c0.1-1.6,1.5-2.7,2.3-3.1l0,0c0.5-0.3,1.3-0.4,1.8-0.3l0,0.1c-0.1,0-0.2,0-0.3,0.1c0.7,0.1,1.4,0.3,1.8,0.5
				c0.7,0.5,0.8,0.9,1,1.2c0.1,0.2,0.1,0.3,0.2,0.4l0.1,0.1l-0.1,0c-0.1,0-0.3,0.1-0.5,0.1c0.2,0.3,0.2,0.6,0.2,0.9
				c0,0.3,0.1,0.5,0.2,0.8l0.1,0.1l-0.1,0c-0.4,0-0.6-0.2-0.7-0.3c0,0,0,0-0.1,0c0.1,0.3,0.2,0.6,0.2,0.9c0,0.3,0.1,0.6,0.2,0.6
				l0,0.1c-0.3,0-0.5-0.2-0.7-0.4c0,0.2,0,0.3-0.1,0.5c-0.1,0.5-0.2,1,0.2,1.5L-235.9,395.3z M-237.8,394.1c0.2,0.5,1,0.8,1.6,1
				c-0.3-0.5-0.2-1-0.1-1.4c0.1-0.3,0.1-0.5,0-0.7c0,0,0,0,0,0l0.1-0.1c0,0,0,0,0,0c0.2,0.3,0.4,0.4,0.6,0.5c0-0.1-0.1-0.3-0.1-0.5
				c0-0.4-0.1-0.8-0.3-1l-0.1-0.2l0.2,0.1c0.1,0,0.2,0.1,0.3,0.2c0.1,0.1,0.3,0.2,0.5,0.3c-0.1-0.2-0.1-0.4-0.1-0.7
				c0-0.3-0.1-0.7-0.3-1l0.1-0.1c0.1,0.1,0.3,0,0.4,0c-0.1-0.1-0.1-0.3-0.2-0.4c-0.1-0.3-0.3-0.8-0.9-1.2c-0.5-0.3-1.2-0.5-1.9-0.5
				l-0.2,0l0.2-0.1c0.1,0,0.1-0.1,0.2-0.1c-0.5,0-1.1,0.1-1.4,0.3l0,0c-0.8,0.4-2.1,1.4-2.2,2.9c0.1-0.1,0.3-0.3,0.4-0.4l0.2-0.2
				l0,0.2c-0.1,0.6,0,1.2,0.1,1.7c0.1,0.3,0.1,0.5,0.1,0.7c0.2-0.2,0.3-0.5,0.3-0.7l0.1,0c0,0.3,0.3,0.5,0.5,0.7
				c0.2,0.2,0.5,0.4,0.5,0.7c0.1-0.1,0.1-0.3,0.1-0.5l0.1,0c0.1,0.3,0.3,0.5,0.6,0.8c0.2,0.2,0.4,0.3,0.5,0.5c0-0.2,0.1-0.4,0.1-0.5
				L-237.8,394.1z"/>
		</g>
		<g>
			<path class="st1" d="M-257.5,397c0.9,0.3,0.2,0.8-0.6,0.4c0,0.1,0,0.6,0.1,0.8c-0.4-0.5-1.4-0.3-2.1,0.9c-0.9,1.8,0,2.6-0.2,3.2
				c0.2-0.1,0.4-0.3,0.4-0.5c-0.1,0.5,0.4,1.2,0.5,1.7c0.1-0.2,0.3-0.6,0.3-0.9c0.1,0.7,0.8,0.9,1,1.5c0.1-0.2,0.1-0.7,0-1
				c0.2,0.7,0.9,1.6,1.9,1.8c-0.2-0.1-0.2-0.5-0.3-0.7c0.2,0.5,1.1,0.3,1.1,0.5c0.7-0.4,0.4-1.2,0.7-1.5c-0.1,0.1,0.1,0.5,0.2,0.6
				c0.1-0.7,1-1.5,0.9-2.1c0.1,0.2,0.3,0.4,0.5,0.5c-0.2-1.1,0.5-1.8,0.1-2.7c0.2,0.1,0.5,0.1,0.8,0.1c-0.2-0.8-0.8-0.8-1.1-1.6
				c-0.3-0.8-1.5-1-2.1-0.8C-256,397.6-256.4,397-257.5,397L-257.5,397z"/>
		</g>
		<g>
			<path d="M-256.2,405c-0.8-0.2-1.4-0.8-1.7-1.5c0,0.2,0,0.4-0.1,0.5l-0.1,0.1l-0.1-0.1c-0.1-0.3-0.3-0.5-0.5-0.6
				c-0.2-0.2-0.3-0.3-0.4-0.6c-0.1,0.2-0.2,0.5-0.3,0.6l-0.1,0.2l0-0.2c0-0.2-0.1-0.4-0.2-0.6c-0.1-0.3-0.2-0.5-0.3-0.8
				c-0.1,0.1-0.2,0.2-0.3,0.3l-0.1,0l0-0.1c0.1-0.2,0-0.4-0.1-0.6c-0.1-0.5-0.3-1.4,0.3-2.5c0.4-0.8,1-1.1,1.4-1.2
				c0.2,0,0.4,0,0.5,0.1c0-0.2,0-0.5,0-0.6l0-0.1l0.1,0c0.4,0.2,0.7,0.1,0.9,0c0,0,0.1-0.1,0.1-0.1c0,0-0.1-0.1-0.4-0.2l0-0.1
				c0,0,0.1,0,0.1,0c0.5,0,0.9,0.1,1.2,0.3c0.3,0.1,0.6,0.2,0.9,0.1c0.6-0.2,1.8,0,2.1,0.8c0.2,0.3,0.4,0.5,0.6,0.7
				c0.2,0.2,0.5,0.4,0.6,0.9l0,0.1l-0.1,0c-0.3,0-0.5,0-0.7,0c0.1,0.4,0,0.8-0.1,1.2s-0.2,0.8-0.1,1.3l0,0.1l-0.1-0.1
				c-0.1-0.1-0.3-0.2-0.4-0.4c0,0.3-0.2,0.6-0.5,0.9c-0.2,0.3-0.4,0.7-0.5,1l0,0.1l-0.1-0.1c-0.1-0.1-0.2-0.3-0.2-0.4
				c0,0.1,0,0.2-0.1,0.3c0,0.3-0.1,0.7-0.5,1l-0.1,0.1v-0.1c0-0.1-0.2-0.1-0.3-0.1c-0.2,0-0.4-0.1-0.6-0.2c0,0.2,0.1,0.3,0.2,0.4
				L-256.2,405z M-258,403.1c0.2,0.6,0.8,1.4,1.6,1.7c-0.1-0.1-0.1-0.3-0.1-0.4c0-0.1,0-0.1,0-0.1l0.1,0c0.1,0.2,0.4,0.3,0.7,0.3
				c0.2,0,0.3,0,0.4,0.1c0.3-0.2,0.4-0.6,0.4-0.9c0-0.2,0.1-0.4,0.2-0.5l0.1,0.1c0,0.1,0,0.3,0.1,0.4c0.1-0.3,0.3-0.6,0.4-0.9
				c0.2-0.4,0.5-0.8,0.4-1.1l0.1,0c0.1,0.1,0.3,0.3,0.4,0.4c-0.1-0.5,0-0.9,0.1-1.3c0.1-0.4,0.2-0.8,0-1.3l-0.1-0.2l0.1,0.1
				c0.2,0.1,0.4,0.1,0.7,0.1c-0.1-0.4-0.3-0.5-0.5-0.7c-0.2-0.2-0.4-0.4-0.6-0.8c-0.3-0.7-1.4-0.9-2-0.8c-0.4,0.1-0.6,0-1-0.1
				c-0.2-0.1-0.5-0.2-0.9-0.2c0.1,0.1,0.1,0.1,0.2,0.2c0,0.1,0,0.2-0.1,0.2c-0.2,0.1-0.5,0.2-0.9,0c0,0.2,0,0.5,0.1,0.7l-0.1,0.1
				c-0.1-0.2-0.3-0.2-0.6-0.2c-0.4,0-1,0.4-1.3,1.1c-0.6,1.2-0.4,1.9-0.3,2.5c0.1,0.2,0.1,0.4,0.1,0.6c0.1-0.1,0.2-0.2,0.3-0.4
				c0,0,0,0,0,0l0.1,0c0,0,0,0,0,0c-0.1,0.3,0.1,0.6,0.3,1c0.1,0.2,0.2,0.3,0.2,0.5c0.1-0.2,0.2-0.5,0.2-0.7l0.1,0
				c0,0.4,0.3,0.6,0.5,0.8c0.2,0.2,0.3,0.3,0.4,0.5c0-0.2,0-0.6,0-0.8l0,0l0,0l0,0L-258,403.1L-258,403.1L-258,403.1
				C-258,403.1-258,403.1-258,403.1z"/>
		</g>
		<g>
			<path class="st1" d="M-208.5,397c0.2,0,0.3,0.4-0.2,0.6c-0.6,0.2-1.6,0.9-1.6,1.6c-1.1,1.1-0.4,1.8-0.8,2.5
				c0.2-0.1,0.5-0.3,0.7-0.6c-0.4,1.6,0.9,2.2,0.8,2.9c0.1-0.3,0.6-0.6,0.6-0.9c0.3,1.4,1.3,1.3,1.5,2.1c0.1-0.2,0.5-0.6,0.5-0.8
				c0.1,0.1,0.2,0.6,0.2,0.8c0.1-0.2,0.4-0.6,0.5-0.8c0.1,0.2,0.1,0.3,0.1,0.5c0.5-0.3,0.5-1.3,0.8-1.7c0,0.4,0.1,0.6,0.2,0.8
				c0.1-0.5,0.8-1.3,0.6-2c0.2,0.2,0.3,0.5,0.3,0.8c0.3-0.5,0-1.4,0.2-1.9c0.1,0.2,0.2,0.5,0.4,0.7c-0.2-0.2,0-1.2-0.4-1.9
				c0.1,0.1,0.5,0.3,0.6,0.5c-0.1-1.1-0.5-2.4-1.6-2.6c-1.1-0.2-2,0.1-2.3-0.5C-207.7,396.4-208.2,396.1-208.5,397L-208.5,397z"/>
		</g>
		<g>
			<path d="M-207.6,405.3l0-0.2c-0.1-0.4-0.3-0.5-0.6-0.7c-0.3-0.3-0.7-0.6-0.9-1.2c-0.1,0.1-0.1,0.2-0.2,0.3
				c-0.1,0.1-0.3,0.3-0.3,0.4l-0.1,0c0-0.3-0.1-0.5-0.3-0.8c-0.3-0.4-0.6-1-0.5-1.8c-0.2,0.2-0.4,0.3-0.5,0.4l-0.2,0.1l0.1-0.2
				c0.1-0.2,0.1-0.5,0.1-0.7c0-0.5,0-1.1,0.7-1.8c0.1-0.7,1-1.4,1.7-1.6c0.3-0.1,0.4-0.3,0.3-0.4c0,0,0-0.1-0.1-0.1h-0.1l0-0.1
				c0.1-0.4,0.3-0.6,0.5-0.6c0,0,0,0,0,0c0.3,0,0.6,0.4,0.7,0.6c0.2,0.4,0.6,0.4,1.2,0.4c0.3,0,0.7,0,1.1,0.1
				c1.2,0.2,1.5,1.6,1.6,2.7l-0.1,0c-0.1-0.1-0.2-0.3-0.4-0.4c0.1,0.4,0.2,0.8,0.2,1.1c0,0.3,0,0.5,0.1,0.6l-0.1,0.1
				c-0.2-0.1-0.3-0.4-0.4-0.5c0,0.2,0,0.4,0,0.6c0,0.4,0,0.8-0.2,1.1l-0.1,0.2l0-0.2c0-0.3-0.1-0.5-0.2-0.6c0,0.4-0.2,0.8-0.4,1.1
				c-0.1,0.3-0.2,0.5-0.3,0.7l0,0.2l-0.1-0.2c-0.1-0.2-0.2-0.4-0.2-0.7c-0.1,0.1-0.1,0.3-0.2,0.5c-0.1,0.4-0.3,0.8-0.6,1l-0.1,0.1
				l0-0.1c0-0.1,0-0.2,0-0.3c-0.1,0.2-0.3,0.5-0.4,0.7l-0.1,0.2l0-0.2c0-0.1,0-0.4-0.1-0.6c-0.1,0.2-0.2,0.3-0.3,0.5
				c-0.1,0.1-0.1,0.2-0.2,0.2L-207.6,405.3z M-209,403c0.2,0.8,0.5,1.1,0.9,1.3c0.2,0.2,0.4,0.4,0.6,0.7c0,0,0.1-0.1,0.1-0.1
				c0.1-0.2,0.3-0.4,0.3-0.6l0-0.2l0.1,0.1c0.1,0.1,0.2,0.4,0.2,0.6c0.1-0.2,0.3-0.5,0.4-0.7l0-0.2l0.1,0.2c0.1,0.2,0.1,0.3,0.1,0.4
				c0.2-0.2,0.3-0.6,0.4-0.9c0.1-0.3,0.2-0.6,0.3-0.7l0.1-0.1v0.2c0,0.2,0,0.4,0.1,0.6c0.1-0.2,0.1-0.4,0.2-0.5
				c0.2-0.4,0.4-0.8,0.3-1.2l0-0.2l0.1,0.1c0.2,0.2,0.3,0.4,0.3,0.7c0.1-0.2,0.1-0.5,0-0.8c0-0.3,0-0.6,0.1-0.8l0.1-0.2l0.1,0.2
				c0,0.1,0.1,0.3,0.2,0.5c0-0.1,0-0.2,0-0.4c0-0.4,0-0.9-0.2-1.3l-0.1-0.2l0.2,0.1c0.1,0,0.3,0.2,0.5,0.3c-0.2-1-0.5-2.1-1.5-2.3
				c-0.4-0.1-0.8-0.1-1.1-0.1c-0.6,0-1,0-1.3-0.4c-0.2-0.4-0.4-0.6-0.6-0.6c0,0,0,0,0,0c-0.1,0-0.3,0.2-0.4,0.4
				c0.1,0,0.1,0.1,0.1,0.2c0,0.1-0.1,0.4-0.4,0.5c-0.6,0.2-1.5,0.9-1.6,1.5l0,0l0,0c-0.7,0.7-0.7,1.2-0.7,1.7c0,0.2,0,0.4,0,0.6
				c0.2-0.1,0.4-0.3,0.5-0.5l0.1,0c-0.2,0.9,0.1,1.5,0.5,2c0.2,0.2,0.3,0.5,0.3,0.7c0.1-0.1,0.2-0.2,0.2-0.3
				c0.1-0.1,0.3-0.3,0.3-0.4L-209,403z"/>
		</g>
		<g>
			<path class="st3" d="M-239.9,389.6c-0.7,0.4-0.1,1.3-0.4,1.6C-239.8,391-239.3,389.9-239.9,389.6L-239.9,389.6z"/>
		</g>
		<g>
			<path class="st3" d="M-239.2,391.2c-0.3,0.6,0.4,1.2,0.3,1.7C-238.6,392.3-238.6,391.3-239.2,391.2L-239.2,391.2z"/>
		</g>
		<g>
			<path class="st3" d="M-238.7,389c0.4-0.3,1.3,0.3,2,0.1C-237.1,389.4-238.1,389.6-238.7,389L-238.7,389z"/>
		</g>
		<g>
			<path class="st3" d="M-237.7,390.2c0.6,0.3,0.7,0.8,1.1,1.1C-237,391.3-237.7,390.8-237.7,390.2L-237.7,390.2z"/>
		</g>
		<g>
			<path class="st3" d="M-237.7,392c-0.1,0.5,0.6,0.8,0.5,1.5C-237.1,393.1-237.1,391.8-237.7,392L-237.7,392z"/>
		</g>
		<g>
			<path class="st3" d="M-258.5,399.2c-0.9,0.1-0.6,1.3-1,1.7C-258.8,400.7-258.1,399.6-258.5,399.2L-258.5,399.2z"/>
		</g>
		<g>
			<path class="st3" d="M-257.4,399.6c-0.3,0.5,0,1.4-0.2,1.8C-257.3,401-256.8,399.8-257.4,399.6L-257.4,399.6z"/>
		</g>
		<g>
			<path class="st3" d="M-257.4,402.1c-0.1,0.7,0.8,1.2,0.8,1.8C-256.3,403.3-256.8,402.2-257.4,402.1L-257.4,402.1z"/>
		</g>
		<g>
			<path class="st3" d="M-255.4,403.4c-0.2-1,0.6-1.3,0.4-1.9C-254.2,401.8-255,402.6-255.4,403.4L-255.4,403.4z"/>
		</g>
		<g>
			<path class="st3" d="M-256.1,398.4c0.9-0.1,1.7,0.9,2.4,0.9C-254.4,399.4-256.3,398.9-256.1,398.4L-256.1,398.4z"/>
		</g>
		<g>
			<path class="st3" d="M-255.5,399.6c0.2,0.6,1.1,0.5,1.3,1.4C-254.4,400.8-256.1,400.2-255.5,399.6L-255.5,399.6z"/>
		</g>
		<g>
			<path class="st3" d="M-208.9,398.5c-0.6,0-0.9,1.4-1.3,1.6C-209.6,400-208.6,399-208.9,398.5L-208.9,398.5z"/>
		</g>
		<g>
			<path class="st3" d="M-207.9,400.9c-0.5,0.3-0.2,1.4-0.6,1.8C-208.1,402.3-207.5,401.2-207.9,400.9L-207.9,400.9z"/>
		</g>
		<g>
			<path class="st3" d="M-206.9,401.7c-0.5,0.9,0.4,1.4,0.3,1.9C-206.5,403-206.5,402.2-206.9,401.7L-206.9,401.7z"/>
		</g>
		<g>
			<path class="st3" d="M-206.9,398.2c0.7-0.1,1,0.8,1.7,0.8C-206,399.1-207,398.8-206.9,398.2L-206.9,398.2z"/>
		</g>
		<g>
			<path class="st3" d="M-206.4,399.6c0.8,0.3,0.5,1.5,1.1,1.8C-206,401.3-207,400.2-206.4,399.6L-206.4,399.6z"/>
		</g>
		<g>
			<path class="st3" d="M-207.9,399.2c-0.6,0.1-0.7,1.8-1.4,1.9C-208.6,401.1-207.5,399.7-207.9,399.2L-207.9,399.2z"/>
		</g>
	</g>
</g>
</svg>
