<?xml version="1.0" encoding="utf-8"?>
<!-- Generator: Adobe Illustrator 19.0.0, SVG Export Plug-In . SVG Version: 6.00 Build 0)  -->
<svg version="1.1" id="Layer_1" xmlns="http://www.w3.org/2000/svg" xmlns:xlink="http://www.w3.org/1999/xlink" x="0px" y="0px"
	 viewBox="-269 374 72 46" style="enable-background:new -269 374 72 46;" xml:space="preserve">
<style type="text/css">
	.st0{clip-path:url(#SVGID_2_);}
	.st1{fill:#003671;}
	.st2{fill:#FFE000;}
	.st3{fill:#F8AE4C;}
	.st4{fill:#F6B7C4;}
	.st5{fill:#008866;}
	.st6{fill:#DC2F34;}
	.st7{fill:#FFFFFF;}
</style>
<g>
	<defs>
		<path id="SVGID_1_" d="M-204,420H-262c-3.8,0-7-3.1-7-7V381c0-3.8,3.1-7,7-7h58.1c3.8,0,7,3.1,7,7V413
			C-197,416.9-200.1,420-204,420z"/>
	</defs>
	<clipPath id="SVGID_2_">
		<use xlink:href="#SVGID_1_"  style="overflow:visible;"/>
	</clipPath>
	<g class="st0">
		<g>
			<polygon class="st1" points="-186.1,420.6 -186.1,373.4 -280.6,373.4 -280.6,420.6 			"/>
		</g>
		<g>
			<path d="M-186,420.8h-94.8v-47.5h94.8V420.8z M-280.5,420.5h94.3v-47h-94.3V420.5z"/>
		</g>
		<g>
			<path class="st2" d="M-201.7,387.6c0,0,0,4.7,0,6.3c0,5.1-2,9.8-8,12.7c-6-2.9-8-7.6-8-12.7c0-1.5,0-6.3,0-6.3H-201.7
				L-201.7,387.6z"/>
		</g>
		<g>
			<path d="M-209.8,406.6L-209.8,406.6c-5.4-2.6-8.1-6.8-8.1-12.8v-6.3h16.1v6.3C-201.7,399.7-204.4,404-209.8,406.6L-209.8,406.6z
				 M-217.7,387.6v6.2c0,5.9,2.7,10.1,7.9,12.6c5.3-2.5,7.9-6.8,7.9-12.6v-6.2H-217.7z"/>
		</g>
		<g>
			<path class="st3" d="M-213.5,390.3c-0.1-0.1-0.2-0.1-0.4-0.1c0-0.4-0.3-0.6-0.5-0.7c-0.2-0.1-0.3-0.2-0.3-0.3
				c0-0.2-0.2-0.3-0.4-0.3c-0.2-0.1-0.4-0.3-0.5-0.4c-0.1-0.1-0.1-0.1-0.2,0.1c-0.1,0.2-0.3,0.5-0.1,0.5c-0.2,0.1-0.2,0.3-0.1,0.5
				c-0.1,0.1-0.2,0.2,0,0.3c0.1,0,0.2,0.1,0.2,0.1c-0.1,0-0.2,0.3,0.1,0.3c-0.1,0-0.1,0.2,0,0.2c-0.2,0-0.3,0.3-0.5,0.3
				c-0.2,0-0.3,0-0.3,0.1c0,0.1-0.1,0.2-0.2,0.3c0.2,0,0.3,0,0.4-0.1c0.1-0.1,0.2-0.1,0.3,0s0.3,0.1,0.4,0.1
				c-0.2,0.1-0.4,0.3-0.4,0.5c0,0.2-0.1,0.4-0.3,0.5c-0.1,0.1-0.3,0.2-0.4,0.4c0.2,0.5,0.4,0.6,0.7,0.7c0.5,0.2,0.8,0.4,0.9,0.6
				s0.3,0.1,0.6,0.4c0.3,0.4,0.6,1.1,0.8,1.2c0.3,0.1,0.7,0,0.9-0.3C-212.5,394.6-212.4,390.9-213.5,390.3L-213.5,390.3z"/>
		</g>
		<g>
			<path d="M-213.3,395.4c-0.1,0-0.2,0-0.3-0.1c-0.2-0.1-0.4-0.4-0.5-0.7c-0.1-0.2-0.2-0.4-0.3-0.5c-0.2-0.2-0.3-0.2-0.3-0.3
				c-0.1,0-0.1-0.1-0.2-0.1c-0.2-0.2-0.5-0.4-0.9-0.6l0,0c-0.3-0.1-0.5-0.2-0.7-0.7l0,0l0,0c0.1-0.2,0.3-0.4,0.4-0.4
				c0.1-0.1,0.3-0.2,0.3-0.4c0-0.2,0.1-0.3,0.3-0.5c-0.1,0-0.2,0-0.3-0.1c-0.1-0.1-0.2,0-0.3,0c-0.1,0.1-0.2,0.1-0.4,0.1l-0.1,0
				l0.1,0c0.1-0.1,0.2-0.2,0.2-0.2c0-0.1,0.1-0.2,0.4-0.2c0.1,0,0.2-0.1,0.3-0.1c0.1,0,0.1-0.1,0.2-0.1c0,0,0,0,0-0.1
				c0,0,0-0.1,0-0.1c-0.2,0-0.2-0.2-0.2-0.2c0-0.1,0-0.1,0.1-0.1c0,0-0.1,0-0.2-0.1c-0.1,0-0.1-0.1-0.1-0.1c0-0.1,0.1-0.2,0.1-0.2
				c-0.1-0.2,0-0.3,0.1-0.4c0,0,0,0,0,0c0-0.1,0-0.2,0.1-0.3c0-0.1,0.1-0.1,0.1-0.1c0-0.1,0.1-0.2,0.1-0.2c0,0,0.1,0,0.1,0.1
				c0.2,0.2,0.3,0.3,0.4,0.3c0.2,0.1,0.3,0.2,0.4,0.4c0,0.2,0.1,0.2,0.3,0.3c0.2,0.1,0.5,0.3,0.5,0.7c0.2,0,0.3,0.1,0.4,0.1
				c0.3,0.2,0.5,0.5,0.7,1.1c0.4,1.3,0.3,3.3,0.1,3.6C-212.9,395.3-213.1,395.4-213.3,395.4z M-216.6,392.5c0.2,0.4,0.4,0.5,0.7,0.7
				l0,0c0.5,0.2,0.8,0.4,1,0.6c0.1,0.1,0.1,0.1,0.2,0.1c0.1,0,0.2,0.1,0.4,0.3c0.1,0.1,0.2,0.3,0.3,0.5c0.2,0.3,0.3,0.6,0.5,0.7
				c0.3,0.1,0.6,0,0.8-0.3c0.1-0.2,0.3-2.2-0.1-3.6c-0.2-0.6-0.4-0.9-0.6-1.1l0,0c-0.1-0.1-0.2-0.1-0.4-0.1l0,0l0,0
				c0-0.4-0.2-0.6-0.5-0.7c-0.2-0.1-0.3-0.2-0.4-0.4c0-0.2-0.1-0.3-0.3-0.3c-0.2,0-0.3-0.2-0.5-0.4c0,0,0,0,0,0c0,0,0,0-0.1,0.1
				c0,0,0,0.1-0.1,0.2c0,0.1-0.1,0.2-0.1,0.3c0,0,0,0,0.1,0l0.1,0l-0.1,0.1c-0.2,0.1-0.2,0.3-0.1,0.4l0,0l0,0
				c-0.1,0.1-0.1,0.1-0.1,0.2c0,0,0,0,0.1,0c0.1,0,0.2,0.1,0.2,0.1l0,0h0c0,0-0.1,0-0.1,0.1c0,0.1,0.1,0.2,0.2,0.2l0,0.1
				c0,0,0,0,0,0.1c0,0,0,0.1,0.1,0.1v0.1c-0.1,0-0.1,0.1-0.2,0.1c-0.1,0.1-0.2,0.1-0.3,0.1c-0.2,0-0.3,0-0.3,0.1
				c0,0.1-0.1,0.2-0.1,0.2c0.1,0,0.2,0,0.3-0.1c0.1-0.1,0.3-0.1,0.4,0c0.1,0.1,0.3,0.1,0.4,0.1l0,0.1c-0.2,0.1-0.4,0.3-0.4,0.5
				c0,0.2-0.2,0.4-0.3,0.5C-216.4,392.2-216.6,392.3-216.6,392.5z"/>
		</g>
		<g>
			<path class="st3" d="M-213,388.8c-0.3,0.3-0.6,0.6-0.6,1.1c0.1,0.5,0.1,1.4-0.4,1.7c-0.5,0.3-0.7,1-0.1,1.4
				c0.6,0.4,0.6,0.9,0.7,1.4c0.1,0.5,0.3,0.9,0.7,0.5c0.4,0.1,0.6-0.1,0.6-0.4c0-0.3,0-0.5,0.3-0.6c0.3-0.1,0.4-0.2,0.5-0.5
				c0.1-0.3,0.2-0.4,0.1-0.5c-0.1-0.2-0.1-0.5,0-0.7c0.1-0.2-0.1-0.4-0.2-0.5c-0.1-0.1-0.1-0.3-0.1-0.5c0-0.2-0.1-0.3-0.2-0.4
				c-0.1-0.1-0.2-0.2-0.2-0.3c0-0.2-0.1-0.3-0.2-0.4c-0.1-0.1-0.3-0.3-0.3-0.5C-212.2,389.4-212.6,388.9-213,388.8L-213,388.8z"/>
		</g>
		<g>
			<path d="M-212.9,395.1C-212.9,395.1-213,395.1-212.9,395.1c-0.3-0.1-0.4-0.3-0.5-0.7c0-0.1,0-0.1,0-0.2c-0.1-0.4-0.2-0.9-0.6-1.2
				c-0.2-0.2-0.4-0.4-0.4-0.7c0-0.3,0.2-0.6,0.5-0.8c0.4-0.3,0.4-1.1,0.4-1.6c-0.1-0.5,0.2-0.8,0.5-1c0,0,0.1-0.1,0.1-0.1l0,0l0,0
				c0.4,0.1,0.8,0.7,0.8,0.9c0,0.2,0.1,0.3,0.2,0.5l0,0c0.1,0.1,0.3,0.2,0.2,0.4c0,0.1,0,0.2,0.2,0.3c0.1,0.1,0.3,0.2,0.2,0.4
				c0,0.2,0,0.3,0.1,0.4c0,0,0,0.1,0.1,0.1c0.1,0.1,0.2,0.2,0.1,0.4c-0.1,0.2,0,0.5,0,0.7c0.1,0.2,0,0.3-0.1,0.5l0,0.1
				c-0.1,0.3-0.2,0.4-0.5,0.5c-0.3,0.1-0.3,0.2-0.3,0.5c0,0.1,0,0.3-0.1,0.3c-0.1,0.1-0.3,0.1-0.5,0.1
				C-212.7,395.1-212.8,395.1-212.9,395.1z M-213,388.8C-213,388.8-213,388.9-213,388.8c-0.3,0.3-0.6,0.6-0.5,1.1
				c0.1,0.6,0.1,1.4-0.4,1.7c-0.3,0.2-0.4,0.5-0.5,0.7c0,0.2,0,0.4,0.3,0.6c0.5,0.4,0.6,0.8,0.7,1.3c0,0.1,0,0.1,0,0.2
				c0.1,0.3,0.2,0.6,0.4,0.6c0.1,0,0.2,0,0.3-0.1l0,0l0,0c0.2,0,0.4,0,0.4-0.1c0.1-0.1,0.1-0.2,0.1-0.3c0-0.3,0-0.5,0.3-0.6
				c0.3-0.1,0.4-0.2,0.5-0.4l0-0.1c0.1-0.2,0.2-0.3,0.1-0.4c-0.1-0.2-0.1-0.5,0-0.7c0-0.2,0-0.3-0.1-0.4c0,0,0-0.1-0.1-0.1
				c-0.1-0.1-0.1-0.3-0.1-0.5c0-0.2,0-0.3-0.2-0.4c-0.2-0.1-0.2-0.2-0.2-0.4c0-0.1-0.1-0.2-0.2-0.3l0,0c-0.2-0.1-0.3-0.3-0.3-0.5
				C-212.2,389.5-212.6,388.9-213,388.8z"/>
		</g>
		<g>
			<path class="st4" d="M-212.9,395.1c0.6-0.2,0.6-1.2,0.5-1.7c-0.1-0.4-0.3-1.1-0.2-1.6c0.3-0.7-0.3-1.4-0.2-1.7
				c0.2-0.3,0.1-0.4,0.1-0.5c0-0.1-0.2-0.2-0.2,0c0,0.2-0.1,0.3-0.2,0.4c-0.1,0.1-0.1,0.4,0,0.6c0.1,0.3,0.3,0.7,0,1.3
				c-0.3,0.6-0.2,0.8-0.1,1.1C-212.9,393.4-212.4,394.8-212.9,395.1L-212.9,395.1z"/>
		</g>
		<g>
			<path d="M-212.9,395.1L-212.9,395.1c0.4-0.3,0-1.6-0.2-2.1l0,0c-0.1-0.3-0.2-0.5,0.1-1.1c0.3-0.5,0.1-0.9,0-1.2c0,0,0-0.1,0-0.1
				c-0.1-0.3-0.1-0.6,0-0.7c0.1-0.1,0.2-0.2,0.2-0.3c0-0.1,0.1-0.1,0.1-0.1c0,0,0,0,0,0c0.1,0,0.1,0,0.1,0.1c0,0.1,0,0.3-0.1,0.5
				c-0.1,0.1,0,0.3,0.1,0.5c0.1,0.3,0.3,0.7,0.1,1.2c-0.1,0.4,0,0.9,0.1,1.3c0,0.1,0.1,0.2,0.1,0.3
				C-212.3,393.8-212.2,394.9-212.9,395.1z M-212.7,389.6C-212.7,389.6-212.7,389.6-212.7,389.6
				C-212.7,389.6-212.7,389.6-212.7,389.6c-0.1,0.3-0.1,0.4-0.2,0.5c-0.1,0.1-0.1,0.3,0,0.6c0,0,0,0,0,0.1c0.1,0.3,0.2,0.7,0,1.2
				c-0.3,0.5-0.2,0.8-0.1,1l0,0c0.1,0.3,0.5,1.5,0.3,2c0.5-0.3,0.4-1.2,0.3-1.6c0-0.1,0-0.2-0.1-0.3c-0.1-0.4-0.2-0.9-0.1-1.3
				c0.2-0.4,0-0.8-0.1-1.1c-0.1-0.2-0.1-0.4-0.1-0.5C-212.6,389.9-212.6,389.7-212.7,389.6C-212.6,389.6-212.7,389.6-212.7,389.6z
				 M-215.9,393C-215.9,393-215.9,393-215.9,393L-215.9,393c0-0.1,0.1-0.1,0.1-0.2l0,0c0-0.1,0.1-0.1,0.2-0.1c0.1,0,0.2,0,0.3-0.1
				c0,0,0.1-0.1,0.1-0.1c0,0,0.1,0,0.2-0.1c0,0,0-0.1,0-0.1c0.1-0.2,0.2-0.4,0.4-0.4l0,0.1c-0.2,0.1-0.3,0.2-0.4,0.4
				c0,0,0,0.1,0,0.1c-0.1,0.1-0.2,0.2-0.2,0.2c0,0,0,0-0.1,0c0,0.1-0.3,0.1-0.3,0.1c-0.1,0-0.1,0-0.1,0.1l0,0
				C-215.8,392.9-215.8,393-215.9,393z M-215.6,391.1L-215.6,391.1c0-0.1,0.1-0.2,0.2-0.2c0.1-0.1,0.2-0.1,0.3-0.2l0.1,0
				c0,0.1-0.2,0.2-0.3,0.2C-215.4,391-215.5,391.1-215.6,391.1z M-215.2,390.5c0,0-0.1,0-0.2,0c-0.1,0-0.2,0-0.3,0l0-0.1
				c0.1,0,0.2,0,0.3,0C-215.2,390.4-215.1,390.4-215.2,390.5l0.1,0C-215.1,390.5-215.1,390.5-215.2,390.5z M-214.4,390.4
				L-214.4,390.4c0-0.2,0.1-0.3,0.5-0.3v0.1C-214.1,390.2-214.3,390.3-214.4,390.4z M-214.5,390.3L-214.5,390.3c0-0.1,0-0.1-0.1-0.2
				c0-0.1-0.1-0.1-0.1-0.3c0-0.2,0-0.2-0.1-0.2c-0.1,0-0.1-0.1-0.1-0.2c0-0.1,0-0.2-0.1-0.2c-0.1,0-0.1-0.1-0.1-0.1
				c0-0.1,0-0.1-0.2-0.2l0-0.1c0.2,0.1,0.2,0.1,0.2,0.2c0,0,0,0.1,0.1,0.1c0.1,0.1,0.1,0.2,0.1,0.3c0,0.1,0,0.1,0.1,0.1
				c0.2,0.1,0.2,0.1,0.1,0.3c0,0.1,0,0.2,0.1,0.2C-214.5,390.2-214.5,390.2-214.5,390.3z M-215.6,390.2L-215.6,390.2
				c0.1-0.1,0.3-0.1,0.3-0.2l0.1,0C-215.3,390.2-215.5,390.2-215.6,390.2z M-215.8,389.9L-215.8,389.9c0.1-0.1,0.3-0.1,0.4-0.2l0,0
				C-215.5,389.9-215.7,389.9-215.8,389.9z"/>
		</g>
		<g>
			<path class="st1" d="M-206.5,394.8c-0.6,0.3-1.1,0.6-0.8,0.9c0.3,0.3,0.7-0.4,0.9-0.8L-206.5,394.8L-206.5,394.8z"/>
		</g>
		<g>
			<path d="M-207.2,395.8c-0.1,0-0.1,0-0.2-0.1c-0.1-0.1-0.1-0.2-0.1-0.3c0.1-0.3,0.5-0.5,0.9-0.7l0,0l0.2,0.2l0,0
				c0,0-0.1,0.1-0.1,0.1C-206.7,395.4-206.9,395.8-207.2,395.8C-207.1,395.8-207.2,395.8-207.2,395.8z M-206.6,394.8
				c-0.5,0.2-0.8,0.4-0.8,0.6c0,0.1,0,0.1,0.1,0.2c0.1,0.1,0.1,0.1,0.2,0.1c0.2,0,0.4-0.4,0.6-0.7c0,0,0-0.1,0.1-0.1L-206.6,394.8z"
				/>
		</g>
		<g>
			<path class="st1" d="M-205.3,394.8c0.6,0.3,1.1,0.6,0.8,0.9c-0.3,0.3-0.7-0.4-0.9-0.8L-205.3,394.8L-205.3,394.8z"/>
		</g>
		<g>
			<path d="M-204.7,395.8C-204.7,395.8-204.7,395.8-204.7,395.8c-0.3,0-0.5-0.4-0.7-0.7c0,0-0.1-0.1-0.1-0.1l0,0l0.2-0.2l0,0
				c0.4,0.2,0.8,0.4,0.9,0.7c0,0.1,0,0.2-0.1,0.3C-204.6,395.8-204.6,395.8-204.7,395.8z M-205.4,394.9c0,0,0,0.1,0.1,0.1
				c0.2,0.3,0.4,0.7,0.6,0.7c0.1,0,0.1,0,0.2-0.1c0.1-0.1,0.1-0.1,0.1-0.2c0-0.2-0.3-0.4-0.8-0.6L-205.4,394.9z"/>
		</g>
		<g>
			<path class="st1" d="M-206.4,394.9c-0.4,0.5-0.8,1-0.4,1.2c0.4,0.2,0.5-0.6,0.6-1.1L-206.4,394.9L-206.4,394.9z"/>
		</g>
		<g>
			<path d="M-206.7,396.1c0,0-0.1,0-0.1,0c-0.1,0-0.2-0.1-0.2-0.2c0-0.3,0.3-0.7,0.6-1l0,0l0.3,0.1l0,0.1c-0.1,0.4-0.2,0.9-0.4,1.1
				C-206.6,396.1-206.7,396.1-206.7,396.1z M-206.4,395c-0.4,0.4-0.6,0.7-0.5,0.9c0,0.1,0.1,0.1,0.1,0.2c0.1,0,0.1,0,0.2,0
				c0.2-0.1,0.3-0.7,0.4-1l0,0L-206.4,395z"/>
		</g>
		<g>
			<path class="st1" d="M-205.5,394.9c0.4,0.5,0.8,1,0.4,1.2c-0.4,0.2-0.5-0.6-0.6-1.1L-205.5,394.9L-205.5,394.9z"/>
		</g>
		<g>
			<path d="M-205.2,396.1c0,0-0.1,0-0.1,0c-0.2-0.1-0.4-0.7-0.4-1.1l0-0.1l0.3-0.1l0,0c0.3,0.3,0.6,0.7,0.6,1c0,0.1-0.1,0.2-0.2,0.2
				C-205.1,396.1-205.1,396.1-205.2,396.1z M-205.7,395L-205.7,395c0.1,0.4,0.2,0.9,0.4,1c0.1,0,0.1,0,0.2,0c0.1,0,0.1-0.1,0.1-0.2
				c0-0.2-0.2-0.5-0.5-0.9L-205.7,395z"/>
		</g>
		<g>
			<path class="st1" d="M-205.9,395c0,0.5,0.1,1.3-0.3,1.2c-0.4-0.1-0.2-0.7,0.1-1.2L-205.9,395L-205.9,395z"/>
		</g>
		<g>
			<path d="M-206.2,396.3c0,0-0.1,0-0.1,0c-0.1,0-0.2-0.1-0.2-0.2c-0.1-0.3,0.1-0.8,0.3-1.1l0,0l0.3,0v0c0,0.1,0,0.2,0,0.3
				c0,0.4,0,0.7-0.1,0.9C-206.1,396.2-206.1,396.3-206.2,396.3z M-206.2,395c-0.3,0.4-0.4,0.8-0.3,1c0,0.1,0.1,0.1,0.2,0.2
				c0.1,0,0.1,0,0.2,0c0.1-0.1,0.1-0.5,0.1-0.8c0-0.1,0-0.2,0-0.3L-206.2,395z"/>
		</g>
		<g>
			<path class="st1" d="M-205.9,395c0,0.5-0.1,1.3,0.3,1.2c0.4-0.1,0.2-0.7-0.1-1.2L-205.9,395L-205.9,395z"/>
		</g>
		<g>
			<path d="M-205.7,396.3c-0.1,0-0.1,0-0.1,0c-0.2-0.1-0.2-0.5-0.1-0.9c0-0.1,0-0.2,0-0.3v0l0.3,0l0,0c0.2,0.3,0.4,0.8,0.3,1.1
				c0,0.1-0.1,0.2-0.2,0.2C-205.6,396.3-205.7,396.3-205.7,396.3z M-205.9,395.1c0,0.1,0,0.2,0,0.3c0,0.3,0,0.7,0.1,0.8
				c0,0,0.1,0,0.2,0c0.1,0,0.2-0.1,0.2-0.2c0.1-0.2,0-0.5-0.3-1L-205.9,395.1z"/>
		</g>
		<g>
			<path class="st1" d="M-205.9,390.2c-0.4-0.6-1.3-0.7-1.7-0.3c-0.5,0.6-0.5,1.5-0.3,2.6c0.2,1.4,0.4,3.3,0.2,4.4
				c0,0.2-0.1,0.6,0.1,0.1c0.3-0.8,0.2-2.6,0.1-4.2c-0.1-1.7-0.1-2.2,0.2-2.5c0.2-0.2,0.7-0.2,1,0.2c0.1,0,0.6,0.1,0.7,0
				c0.4-0.4,0.8-0.4,1-0.2c0.3,0.3,0.3,0.8,0.2,2.5c-0.1,1.7-0.1,3.5,0.1,4.2c0.2,0.5,0.2,0.1,0.1-0.1c-0.2-1,0-2.9,0.2-4.4
				c0.1-1.1,0.2-2-0.3-2.6C-204.6,389.5-205.5,389.6-205.9,390.2L-205.9,390.2z"/>
		</g>
		<g>
			<path d="M-204.1,397.2c0,0-0.1,0-0.2-0.3c-0.2-0.6-0.3-2-0.1-4.2c0.1-1.7,0.1-2.2-0.2-2.4c-0.3-0.2-0.6-0.2-1,0.2
				c-0.1,0.1-0.6,0-0.7,0l0,0c-0.3-0.3-0.8-0.3-1-0.2c-0.3,0.3-0.3,0.8-0.2,2.4c0.1,2.2,0.1,3.6-0.1,4.2c-0.1,0.3-0.1,0.3-0.2,0.3
				c0,0-0.1,0,0-0.4c0.2-1,0-3-0.2-4.4c-0.1-1.1-0.2-2,0.3-2.6c0.2-0.2,0.4-0.3,0.7-0.2c0.4,0,0.8,0.2,1,0.5c0.2-0.3,0.6-0.5,1-0.5
				c0,0,0.1,0,0.1,0c0.3,0,0.5,0.1,0.6,0.2c0.5,0.6,0.5,1.5,0.3,2.6c-0.2,1.4-0.4,3.3-0.2,4.4C-204,397.2-204.1,397.2-204.1,397.2
				C-204.1,397.2-204.1,397.2-204.1,397.2z M-205,390c0.2,0,0.3,0.1,0.4,0.2c0.3,0.3,0.3,0.8,0.2,2.5c-0.1,2.2-0.1,3.6,0.1,4.2
				c0,0.1,0.1,0.2,0.1,0.2c0-0.1,0-0.2,0-0.3c-0.2-1.1,0-3,0.2-4.4c0.1-1.1,0.2-2-0.3-2.6c-0.1-0.1-0.3-0.2-0.6-0.2c0,0-0.1,0-0.1,0
				c-0.4,0-0.8,0.2-1,0.5l0,0l0,0c-0.2-0.3-0.6-0.5-1-0.5c0,0-0.1,0-0.1,0c-0.2,0-0.5,0.1-0.6,0.2c-0.5,0.6-0.5,1.5-0.3,2.6
				c0.2,1.4,0.4,3.3,0.2,4.4c0,0.1,0,0.2,0,0.3c0,0,0-0.1,0.1-0.2c0.2-0.6,0.3-2,0.1-4.2c-0.1-1.7-0.1-2.2,0.2-2.5
				c0.2-0.2,0.7-0.2,1.1,0.2c0.1,0,0.5,0.1,0.6,0C-205.4,390.1-205.1,390-205,390z"/>
		</g>
		<g>
			<path class="st1" d="M-208.1,392.3c-0.5,0-1.1,0.1-1.4,0.2c0.1-0.2,0.1-0.4,0.3-0.5c0.1-0.1,0.3-0.2,1.1-0.2
				C-208.1,392-208.1,392.2-208.1,392.3L-208.1,392.3z"/>
		</g>
		<g>
			<path d="M-209.6,392.6L-209.6,392.6c0.1-0.1,0.1-0.1,0.1-0.2c0.1-0.2,0.1-0.3,0.3-0.4l0,0c0.1-0.1,0.3-0.2,0.8-0.2
				c0.1,0,0.2,0,0.2,0l0,0v0c0,0.1,0,0.2,0,0.3c0,0.1,0,0.1,0,0.2l0,0l0,0C-208.5,392.3-209.2,392.4-209.6,392.6L-209.6,392.6z
				 M-208.4,391.9c-0.5,0-0.7,0.1-0.8,0.2l0,0c-0.1,0.1-0.2,0.2-0.3,0.4c0.3-0.2,0.9-0.2,1.3-0.2c0,0,0-0.1,0-0.1c0-0.1,0-0.2,0-0.2
				C-208.2,391.9-208.3,391.9-208.4,391.9z"/>
		</g>
		<g>
			<path class="st1" d="M-207.4,392.5c0.2,0.1,0.4,0.2,0.6,0.3l-0.1-0.5c-0.2-0.1-0.3-0.2-0.5-0.3
				C-207.4,392.2-207.4,392.4-207.4,392.5L-207.4,392.5z"/>
		</g>
		<g>
			<path d="M-206.8,392.9L-206.8,392.9c-0.2-0.1-0.5-0.2-0.7-0.3l0,0v0c0,0,0-0.1,0-0.1c0-0.1,0-0.2,0-0.3l0,0l0,0
				c0.1,0.1,0.2,0.1,0.3,0.2c0.1,0,0.1,0.1,0.2,0.1l0,0l0,0L-206.8,392.9z M-207.4,392.5c0.2,0.1,0.4,0.2,0.5,0.3l-0.1-0.4
				c-0.1,0-0.1-0.1-0.2-0.1c-0.1,0-0.2-0.1-0.3-0.1c0,0.1,0,0.2,0,0.3C-207.4,392.4-207.4,392.5-207.4,392.5z"/>
		</g>
		<g>
			<path class="st1" d="M-208.2,391.4c-0.5-0.1-1.3-0.3-1.7-0.3c0.1,0,0.2-0.1,0.4-0.1c0.2-0.1,0.4-0.1,1.3,0
				C-208.2,391.1-208.2,391.3-208.2,391.4L-208.2,391.4z"/>
		</g>
		<g>
			<path d="M-208.1,391.5L-208.1,391.5c-0.2,0-0.3-0.1-0.5-0.1c-0.5-0.1-0.9-0.2-1.2-0.2l0-0.1c0,0,0.1,0,0.1,0
				c0.1,0,0.2-0.1,0.3-0.1c0.2-0.1,0.4-0.1,1.3,0l0,0l0,0c0,0.1,0,0.2,0,0.3C-208.1,391.3-208.1,391.4-208.1,391.5L-208.1,391.5z
				 M-209.7,391.1c0.3,0,0.7,0.1,1.1,0.2c0.1,0,0.3,0.1,0.4,0.1c0,0,0-0.1,0-0.1c0-0.1,0-0.2,0-0.2c-0.8-0.1-1.1-0.1-1.3,0
				C-209.5,391-209.6,391.1-209.7,391.1z"/>
		</g>
		<g>
			<path class="st1" d="M-207.5,391.8c0.2,0.1,0.4,0.2,0.5,0.3l0-0.4c0,0-0.3-0.2-0.5-0.3C-207.5,391.4-207.5,391.7-207.5,391.8
				L-207.5,391.8z"/>
		</g>
		<g>
			<path d="M-206.9,392.1L-206.9,392.1c-0.2-0.1-0.3-0.2-0.5-0.3l-0.1-0.1l0,0c0-0.1,0-0.2,0-0.3c0-0.1,0-0.1,0-0.1l0-0.1l0,0
				c0.3,0.2,0.5,0.3,0.5,0.3l0,0L-206.9,392.1z M-207.4,391.7L-207.4,391.7c0.2,0.1,0.4,0.2,0.5,0.3l0-0.3c-0.1,0-0.3-0.2-0.5-0.3
				c0,0,0,0,0,0.1C-207.4,391.6-207.4,391.7-207.4,391.7z"/>
		</g>
		<g>
			<path class="st1" d="M-208.1,390.6c-0.5-0.2-1-0.4-1.3-0.5c0.1,0,0.3,0,0.4-0.1c0.2,0,0.3-0.1,1.1,0.2
				C-208.1,390.3-208.1,390.5-208.1,390.6L-208.1,390.6z"/>
		</g>
		<g>
			<path d="M-208.1,390.7L-208.1,390.7c-0.5-0.2-1-0.4-1.4-0.5l0-0.1c0,0,0.1,0,0.1,0c0.1,0,0.2,0,0.3,0c0,0,0.1,0,0.1,0
				c0.2,0,0.4,0,1,0.2l0,0l0,0C-208,390.4-208.1,390.5-208.1,390.7L-208.1,390.7z M-209.3,390.2c0.3,0.1,0.8,0.3,1.2,0.4
				c0-0.1,0.1-0.2,0.1-0.3c-0.6-0.2-0.8-0.2-0.9-0.2c0,0-0.1,0-0.1,0C-209.2,390.1-209.3,390.1-209.3,390.2z"/>
		</g>
		<g>
			<path class="st1" d="M-207.5,391.1c0.2,0.2,0.4,0.4,0.5,0.5l0.1-0.4c0,0-0.3-0.3-0.6-0.6C-207.4,390.7-207.5,391-207.5,391.1
				L-207.5,391.1z"/>
		</g>
		<g>
			<path d="M-206.9,391.6L-206.9,391.6c-0.1-0.1-0.3-0.2-0.4-0.4l-0.2-0.2l0,0c0-0.1,0-0.4,0.1-0.5l0-0.1l0,0
				c0.2,0.2,0.6,0.6,0.6,0.6l0,0l0,0L-206.9,391.6z M-207.4,391.1l0.1,0.1c0.1,0.1,0.2,0.2,0.3,0.3l0.1-0.3
				c-0.1-0.1-0.3-0.3-0.5-0.5C-207.4,390.8-207.4,391-207.4,391.1z"/>
		</g>
		<g>
			<path class="st1" d="M-207.5,389.6c-0.2-0.3-0.5-0.7-0.7-0.9c-0.2-0.2-0.5-0.4-0.6-0.4c0,0.2,0.2,0.4,0.4,0.7
				c0.1,0.2,0.4,0.5,0.6,0.8C-207.7,389.8-207.6,389.7-207.5,389.6L-207.5,389.6z"/>
		</g>
		<g>
			<path d="M-207.8,389.9l-0.2-0.2c-0.2-0.2-0.4-0.5-0.5-0.6l-0.1-0.1c-0.2-0.3-0.4-0.5-0.4-0.7l0,0l0,0c0.2,0.1,0.4,0.2,0.7,0.5
				c0.1,0.1,0.3,0.3,0.4,0.5c0.1,0.1,0.2,0.2,0.3,0.4l0,0l0,0C-207.6,389.7-207.7,389.8-207.8,389.9L-207.8,389.9z M-208.8,388.4
				c0,0.2,0.2,0.4,0.4,0.6l0.1,0.1c0.1,0.2,0.3,0.4,0.5,0.6l0.1,0.1c0.1-0.1,0.2-0.1,0.3-0.2c-0.1-0.1-0.2-0.2-0.3-0.3
				c-0.2-0.2-0.3-0.4-0.4-0.5C-208.4,388.6-208.6,388.4-208.8,388.4z"/>
		</g>
		<g>
			<path class="st1" d="M-207,390.2c0.1,0.2,0.3,0.5,0.4,0.6c0,0.1-0.1,0.2-0.1,0.3l-0.5-0.7C-207.3,390.3-207.2,390.2-207,390.2
				L-207,390.2z"/>
		</g>
		<g>
			<path d="M-206.8,391.3L-206.8,391.3l-0.6-0.8l0,0c0-0.1,0.2-0.3,0.3-0.3l0,0l0,0c0.2,0.3,0.3,0.6,0.4,0.6l0,0l0,0
				c0,0,0,0.1,0,0.1C-206.7,391-206.8,391.1-206.8,391.3L-206.8,391.3z M-207.3,390.4l0.5,0.7c0-0.1,0.1-0.1,0.1-0.2c0,0,0,0,0-0.1
				c0-0.1-0.2-0.4-0.3-0.6C-207.1,390.2-207.3,390.4-207.3,390.4z"/>
		</g>
		<g>
			<path class="st1" d="M-206.6,389.6c0-0.3,0-0.7,0-0.9c-0.3,0.4-0.4,0.6-0.4,0.9C-207,389.5-206.7,389.5-206.6,389.6L-206.6,389.6
				z"/>
		</g>
		<g>
			<path d="M-206.6,389.6L-206.6,389.6c-0.1,0-0.3-0.1-0.5-0.1l0,0l0,0c0-0.3,0.2-0.5,0.5-0.9l0,0l0,0.1
				C-206.6,388.8-206.6,389.3-206.6,389.6L-206.6,389.6z M-207,389.5c0.1,0,0.2,0,0.3,0c0-0.3,0-0.6,0-0.8
				C-206.9,389-207,389.3-207,389.5C-207,389.5-207,389.5-207,389.5z"/>
		</g>
		<g>
			<path class="st1" d="M-206.1,389.9c0-0.1,0-0.2,0-0.2c-0.2-1.1-0.3-1.3-0.7-1.5c0.1,0.2,0.2,0.8,0.2,1.5
				C-206.4,389.7-206.1,389.8-206.1,389.9L-206.1,389.9z"/>
		</g>
		<g>
			<path d="M-206,389.9L-206,389.9c-0.1-0.1-0.3-0.3-0.5-0.3l0,0l0,0c0-0.7-0.1-1.3-0.2-1.4l0-0.1l0.1,0c0.4,0.2,0.5,0.4,0.7,1.5
				C-206,389.7-206,389.8-206,389.9L-206,389.9z M-206.5,389.6c0.1,0,0.3,0.1,0.4,0.2c0-0.1,0-0.1,0-0.2c-0.2-1.1-0.2-1.3-0.6-1.5
				C-206.5,388.5-206.5,389.2-206.5,389.6z"/>
		</g>
		<g>
			<path class="st1" d="M-206.3,390.5c-0.1,0.1-0.3,0.2-0.4,0.4c-0.1-0.1-0.2-0.4-0.3-0.7c0.1,0,0.3,0,0.4,0.1l0.1,0.3
				c0-0.1,0-0.2,0-0.2C-206.4,390.4-206.4,390.4-206.3,390.5L-206.3,390.5z"/>
		</g>
		<g>
			<path d="M-206.7,390.9L-206.7,390.9c-0.1-0.2-0.2-0.5-0.3-0.7l0,0l0,0c0.1,0,0.3,0,0.4,0.1l0,0l0,0.1c0,0,0,0,0,0v-0.1l0,0
				c0.1,0.1,0.1,0.1,0.2,0.1l0,0l0,0C-206.5,390.6-206.6,390.7-206.7,390.9L-206.7,390.9z M-206.9,390.2c0.1,0.2,0.2,0.4,0.2,0.6
				c0-0.1,0.1-0.1,0.2-0.2l0,0l-0.1-0.3C-206.7,390.2-206.8,390.2-206.9,390.2z"/>
		</g>
		<g>
			<path class="st1" d="M-203.8,392.3c0.5,0,1.1,0.1,1.4,0.2c-0.1-0.2-0.1-0.4-0.3-0.5c-0.1-0.1-0.3-0.2-1.1-0.2
				C-203.7,392-203.8,392.2-203.8,392.3L-203.8,392.3z"/>
		</g>
		<g>
			<path d="M-202.3,392.6L-202.3,392.6c-0.4-0.2-1.1-0.3-1.5-0.3l0,0l0,0c0,0,0-0.1,0-0.2c0-0.1,0-0.2,0-0.3v0l0,0
				c0.8,0,0.9,0.1,1.1,0.2l0,0c0.1,0.1,0.2,0.3,0.3,0.4C-202.4,392.5-202.4,392.5-202.3,392.6L-202.3,392.6z M-203.8,392.3
				c0.4,0,1,0,1.3,0.2c-0.1-0.2-0.1-0.3-0.3-0.4l0,0c-0.1-0.1-0.3-0.2-0.8-0.2c-0.1,0-0.1,0-0.2,0c0,0.1,0,0.2,0,0.2
				C-203.7,392.2-203.7,392.2-203.8,392.3z"/>
		</g>
		<g>
			<path class="st1" d="M-204.5,392.5c-0.2,0.1-0.4,0.2-0.6,0.3l0.1-0.5c0.2-0.1,0.3-0.2,0.5-0.3
				C-204.4,392.2-204.5,392.4-204.5,392.5L-204.5,392.5z"/>
		</g>
		<g>
			<path d="M-205.1,392.9l0.1-0.6l0,0c0.1,0,0.1-0.1,0.2-0.1c0.1-0.1,0.2-0.1,0.3-0.2l0,0l0,0c0,0.1,0,0.2,0,0.3c0,0,0,0.1,0,0.1v0
				l0,0C-204.6,392.6-204.9,392.7-205.1,392.9L-205.1,392.9z M-204.9,392.4l-0.1,0.4c0.2-0.1,0.4-0.2,0.5-0.3c0,0,0-0.1,0-0.1
				c0-0.1,0-0.2,0-0.3c-0.1,0-0.2,0.1-0.3,0.1C-204.8,392.3-204.9,392.3-204.9,392.4z"/>
		</g>
		<g>
			<path class="st1" d="M-203.7,391.4c0.5-0.1,1.3-0.3,1.7-0.3c-0.1,0-0.2-0.1-0.4-0.1c-0.2-0.1-0.4-0.1-1.3,0
				C-203.7,391.1-203.7,391.3-203.7,391.4L-203.7,391.4z"/>
		</g>
		<g>
			<path d="M-203.7,391.5L-203.7,391.5c0-0.1,0-0.1,0-0.2c0-0.1,0-0.2,0-0.3l0,0l0,0c0.9-0.1,1.1-0.1,1.3,0c0.1,0,0.2,0.1,0.3,0.1
				c0,0,0.1,0,0.1,0l0,0.1c-0.3,0-0.7,0.1-1.2,0.2C-203.4,391.4-203.6,391.4-203.7,391.5L-203.7,391.5z M-203.7,391
				c0,0.1,0,0.2,0,0.2c0,0,0,0.1,0,0.1c0.1,0,0.3-0.1,0.4-0.1c0.4-0.1,0.8-0.2,1.1-0.2c-0.1,0-0.2-0.1-0.2-0.1
				C-202.6,390.9-202.8,390.9-203.7,391z"/>
		</g>
		<g>
			<path class="st1" d="M-204.4,391.8c-0.2,0.1-0.4,0.2-0.5,0.3l0-0.4c0,0,0.3-0.2,0.5-0.3C-204.4,391.4-204.4,391.7-204.4,391.8
				L-204.4,391.8z"/>
		</g>
		<g>
			<path d="M-205,392.1l0-0.5l0,0c0,0,0.3-0.2,0.5-0.3l0,0v0.1c0,0,0,0.1,0,0.1c0,0.1,0,0.2,0,0.3l0,0l-0.1,0
				C-204.6,391.9-204.8,392-205,392.1L-205,392.1z M-204.9,391.7l0,0.3c0.1-0.1,0.3-0.2,0.4-0.2l0,0c0-0.1,0-0.2,0-0.3c0,0,0,0,0,0
				C-204.7,391.5-204.9,391.7-204.9,391.7z"/>
		</g>
		<g>
			<path class="st1" d="M-203.7,390.6c0.5-0.2,1-0.4,1.3-0.5c-0.1,0-0.3,0-0.4-0.1c-0.2,0-0.3-0.1-1.1,0.2
				C-203.8,390.3-203.8,390.5-203.7,390.6L-203.7,390.6z"/>
		</g>
		<g>
			<path d="M-203.8,390.7L-203.8,390.7c0-0.2-0.1-0.3-0.1-0.4l0,0l0,0c0.6-0.2,0.8-0.2,1-0.2c0,0,0.1,0,0.1,0c0.1,0,0.2,0,0.3,0
				c0,0,0.1,0,0.1,0l0,0.1C-202.7,390.3-203.3,390.5-203.8,390.7L-203.8,390.7z M-203.8,390.3c0,0.1,0.1,0.2,0.1,0.3
				c0.4-0.2,0.9-0.3,1.2-0.4c-0.1,0-0.2,0-0.3,0c0,0-0.1,0-0.1,0C-203,390.1-203.2,390.1-203.8,390.3z"/>
		</g>
		<g>
			<path class="st1" d="M-204.4,391.1c-0.2,0.2-0.4,0.4-0.5,0.5l-0.1-0.4c0,0,0.3-0.3,0.6-0.6C-204.5,390.7-204.4,391-204.4,391.1
				L-204.4,391.1z"/>
		</g>
		<g>
			<path d="M-205,391.6l-0.1-0.4l0,0c0,0,0.3-0.3,0.6-0.6l0,0l0,0.1c0,0.1,0.1,0.4,0.1,0.5l0,0l-0.2,0.1
				C-204.7,391.4-204.8,391.5-205,391.6L-205,391.6z M-205,391.2l0.1,0.3c0.1-0.1,0.2-0.2,0.3-0.3l0.1-0.1c0-0.1,0-0.3,0-0.4
				C-204.7,390.9-205,391.1-205,391.2z"/>
		</g>
		<g>
			<path class="st1" d="M-204.4,389.6c0.2-0.3,0.5-0.7,0.7-0.9c0.2-0.2,0.5-0.4,0.6-0.4c0,0.2-0.2,0.4-0.4,0.7
				c-0.1,0.2-0.4,0.5-0.6,0.8C-204.2,389.8-204.3,389.7-204.4,389.6L-204.4,389.6z"/>
		</g>
		<g>
			<path d="M-204.1,389.9L-204.1,389.9c-0.1-0.1-0.2-0.2-0.3-0.2l0,0l0,0c0.1-0.1,0.2-0.2,0.3-0.4c0.2-0.2,0.3-0.4,0.4-0.5
				c0.2-0.2,0.5-0.4,0.7-0.5l0,0l0,0c0,0.2-0.2,0.4-0.4,0.7l0,0.1c-0.1,0.2-0.3,0.4-0.5,0.6L-204.1,389.9z M-204.4,389.6
				c0.1,0,0.2,0.1,0.3,0.2l0.1-0.1c0.2-0.2,0.4-0.5,0.5-0.6l0-0.1c0.2-0.2,0.3-0.4,0.4-0.6c-0.2,0.1-0.4,0.2-0.6,0.4
				c-0.1,0.1-0.3,0.3-0.4,0.5C-204.2,389.4-204.3,389.5-204.4,389.6z"/>
		</g>
		<g>
			<path class="st1" d="M-204.8,390.2c-0.1,0.2-0.3,0.5-0.4,0.6c0,0.1,0.1,0.2,0.1,0.3l0.5-0.7
				C-204.6,390.3-204.7,390.2-204.8,390.2L-204.8,390.2z"/>
		</g>
		<g>
			<path d="M-205.1,391.3L-205.1,391.3c0-0.2-0.1-0.3-0.1-0.3c0,0,0-0.1,0-0.1l0,0l0,0c0-0.1,0.2-0.4,0.4-0.6l0,0l0,0
				c0.1,0,0.3,0.2,0.3,0.3l0,0l0,0L-205.1,391.3z M-205.2,390.8C-205.1,390.9-205.1,390.9-205.2,390.8c0.1,0.1,0.1,0.2,0.1,0.3
				l0.5-0.7c0-0.1-0.1-0.2-0.2-0.2C-205,390.5-205.1,390.7-205.2,390.8z"/>
		</g>
		<g>
			<path class="st1" d="M-205.2,389.6c0-0.3,0-0.7,0-0.9c0.3,0.4,0.4,0.6,0.4,0.9C-204.9,389.5-205.2,389.5-205.2,389.6
				L-205.2,389.6z"/>
		</g>
		<g>
			<path d="M-205.3,389.6L-205.3,389.6c0-0.3-0.1-0.8,0-1l0-0.1l0,0c0.3,0.3,0.4,0.6,0.5,0.9l0,0l0,0
				C-204.9,389.5-205.1,389.6-205.3,389.6L-205.3,389.6z M-205.2,388.7c0,0.2,0,0.5,0,0.8c0.1,0,0.3,0,0.4,0
				C-204.9,389.3-205,389-205.2,388.7z"/>
		</g>
		<g>
			<path class="st1" d="M-205.8,389.9c0-0.1,0-0.2,0-0.2c0.2-1.1,0.3-1.3,0.7-1.5c-0.1,0.2-0.2,0.8-0.2,1.5
				C-205.5,389.7-205.7,389.8-205.8,389.9L-205.8,389.9z"/>
		</g>
		<g>
			<path d="M-205.8,389.9L-205.8,389.9c-0.1-0.1-0.1-0.2-0.1-0.3c0.2-1.2,0.3-1.3,0.7-1.5l0.1,0l0,0.1c-0.1,0.2-0.2,0.7-0.2,1.4l0,0
				l0,0C-205.5,389.7-205.7,389.8-205.8,389.9L-205.8,389.9z M-205.2,388.2c-0.3,0.2-0.4,0.4-0.6,1.5c0,0,0,0.1,0,0.2
				c0.1-0.1,0.3-0.2,0.4-0.2C-205.4,389.3-205.4,388.6-205.2,388.2z"/>
		</g>
		<g>
			<path class="st1" d="M-205.6,390.5c0.1,0.1,0.3,0.2,0.4,0.4c0.1-0.1,0.2-0.4,0.3-0.7c-0.1,0-0.3,0-0.4,0.1l-0.1,0.3
				c0-0.1,0-0.2,0-0.2C-205.5,390.4-205.5,390.4-205.6,390.5L-205.6,390.5z"/>
		</g>
		<g>
			<path d="M-205.2,390.9L-205.2,390.9c-0.1-0.2-0.2-0.3-0.4-0.4l0,0l0,0c0,0,0.1-0.1,0.2-0.1l0,0l0,0.1c0,0,0,0,0,0l0-0.1l0,0
				c0.1-0.1,0.3-0.1,0.4-0.1c0,0,0,0,0,0l0,0l0,0C-205,390.4-205.1,390.7-205.2,390.9L-205.2,390.9z M-205.4,390.6
				c0.1,0.1,0.1,0.1,0.2,0.2c0.1-0.1,0.2-0.3,0.2-0.6c-0.1,0-0.3,0-0.3,0.1L-205.4,390.6L-205.4,390.6z"/>
		</g>
		<g>
			<path class="st1" d="M-205.9,395c0.4,0,0.6-0.2,0.6-0.3c0-0.6,0.2-1.4,0.4-2.5c0.2-1.1-0.3-2-1-2c-0.7,0-1.2,0.9-1,2
				c0.2,1.1,0.4,1.9,0.4,2.5C-206.6,394.9-206.3,395-205.9,395"/>
		</g>
		<g>
			<path d="M-205.9,395.1c-0.4,0-0.7-0.2-0.7-0.3c0-0.4-0.1-0.9-0.2-1.6c0-0.3-0.1-0.6-0.2-0.9c-0.1-0.7,0-1.3,0.4-1.7
				c0.2-0.2,0.4-0.3,0.7-0.3s0.5,0.1,0.7,0.3c0.3,0.4,0.5,1,0.4,1.7c-0.1,0.3-0.1,0.6-0.2,0.9c-0.1,0.6-0.2,1.1-0.2,1.6
				C-205.3,394.9-205.5,395.1-205.9,395.1z M-205.9,390.3c-0.2,0-0.5,0.1-0.6,0.3c-0.3,0.4-0.4,1-0.3,1.6c0.1,0.3,0.1,0.6,0.2,0.9
				c0.1,0.6,0.2,1.1,0.2,1.6c0,0.1,0.2,0.3,0.6,0.3c0.4,0,0.6-0.2,0.6-0.3c0-0.4,0.1-0.9,0.2-1.6c0-0.3,0.1-0.6,0.2-0.9
				c0.1-0.6,0-1.2-0.3-1.6C-205.5,390.4-205.7,390.3-205.9,390.3z"/>
		</g>
		<g>
			<path d="M-205.9,395L-205.9,395l-0.1-0.2c-0.6,0-0.6-0.2-0.7-0.4l0.1,0c0,0.2,0,0.3,0.6,0.3v-0.3c-0.6,0-0.7-0.2-0.7-0.4l0.1,0
				c0,0.1,0,0.3,0.6,0.3V394c-0.6,0-0.7-0.2-0.8-0.4l0.1,0c0,0.2,0.1,0.3,0.7,0.3v-0.3c-0.6,0-0.8-0.2-0.8-0.4l0.1,0
				c0,0.2,0.3,0.3,0.8,0.3v-0.4c-0.8,0-0.9-0.3-0.9-0.4l0.1,0c0,0.2,0.3,0.3,0.8,0.3v-0.4c-0.6,0-0.9-0.2-1-0.4l0.1,0
				c0,0.2,0.3,0.3,0.9,0.3v-0.4c-0.6,0-1-0.1-1-0.4l0.1,0c0,0.2,0.4,0.3,1,0.3v-0.4c-0.5,0-0.8-0.1-1-0.2c0,0-0.1-0.1-0.1-0.2l0.1,0
				c0,0,0,0.1,0,0.1c0.1,0.1,0.5,0.2,0.9,0.2v-0.4c-0.5,0-0.8-0.1-0.9-0.2c0,0,0-0.1,0-0.1l0.1,0c0,0,0,0.1,0,0.1
				c0.1,0.1,0.3,0.2,0.8,0.2v-0.4c-0.4,0-0.6-0.1-0.7-0.2c0-0.1,0-0.1,0-0.2l0.1,0c0,0,0,0.1,0,0.1c0,0.1,0.2,0.2,0.7,0.2v-0.8h0.1
				v0.8c0.4,0,0.6-0.1,0.7-0.2c0,0,0-0.1,0-0.1l0.1,0c0,0.1,0,0.1,0,0.2c-0.1,0.1-0.3,0.2-0.7,0.2v0.4c0.5,0,0.8-0.1,0.8-0.2
				c0,0,0-0.1,0-0.1l0.1,0c0,0,0,0.1,0,0.1c-0.1,0.1-0.4,0.2-0.9,0.2v0.4c0.5,0,0.8-0.1,0.9-0.2c0,0,0-0.1,0-0.1l0.1,0
				c0,0.1,0,0.1-0.1,0.2c-0.1,0.1-0.5,0.2-1,0.2v0.4c0.6,0,0.9-0.1,1-0.3l0.1,0c0,0.2-0.4,0.4-1,0.4v0.4c0.6,0,0.9-0.2,0.9-0.3
				l0.1,0c0,0.2-0.3,0.4-1,0.4v0.4c0.6,0,0.8-0.2,0.8-0.3l0.1,0c0,0.1-0.1,0.4-0.9,0.4v0.4c0.5,0,0.7-0.1,0.8-0.3l0.1,0
				c0,0.2-0.2,0.4-0.8,0.4v0.3c0.6,0,0.7-0.2,0.7-0.3l0.1,0c0,0.2-0.1,0.4-0.8,0.4v0.3c0.6,0,0.6-0.2,0.6-0.3l0.1,0
				c0,0.2-0.1,0.4-0.7,0.4v0.3c0.6,0,0.6-0.2,0.6-0.3l0.1,0c0,0.2-0.1,0.4-0.7,0.4V395z"/>
		</g>
		<g>
			<path class="st5" d="M-208.3,397.2c0.1,0.2,0,0.3,0.2,0.4c0.2,0.1,0,0.4,0.3,0.5c0.2,0.1,0,0.4,0.2,0.5c0.2,0.1,0,0.4,0.3,0.5
				c0.3,0.1-0.1,0.5,0.2,0.6c0.2,0.1-0.1,0.5,0.2,0.6c0.3,0.1-0.1,0.4,0.1,0.6c0.2,0.2-0.1,0.5,0.2,0.6c0.2,0.2-0.1,0.4,0.1,0.6
				c0.2,0.2-0.1,0.4,0.1,0.6c0.1,0.2-0.1,0.9-0.6,0.8c-0.2,0.3-0.9,0.6-1.2,0.5c-0.3,0.2-1.1,0.4-1.5,0c-0.4,0.4-1.2,0.1-1.5,0
				c-0.3,0.1-1-0.2-1.2-0.5c-0.5,0.1-0.7-0.7-0.6-0.8c0.1-0.3-0.1-0.5,0.1-0.6c0.2-0.2-0.1-0.5,0.1-0.6c0.2-0.2-0.1-0.4,0.2-0.6
				c0.2-0.2-0.1-0.4,0.1-0.6c0.3-0.1,0-0.5,0.2-0.6c0.2-0.1-0.1-0.5,0.2-0.6c0.3-0.1,0-0.4,0.3-0.5c0.2-0.1,0-0.4,0.2-0.5
				c0.3-0.1,0.1-0.4,0.3-0.5c0.2-0.1,0.1-0.2,0.2-0.4C-210.7,397.4-209,397.5-208.3,397.2L-208.3,397.2z"/>
		</g>
		<g>
			<path d="M-210.4,404.3c-0.4,0-0.7-0.1-0.9-0.2c-0.3,0.1-1-0.2-1.2-0.5c0,0,0,0-0.1,0c-0.2,0-0.3-0.1-0.4-0.2
				c-0.2-0.2-0.2-0.5-0.1-0.7c0.1-0.1,0-0.2,0-0.3c0-0.1,0-0.2,0.1-0.3c0.1-0.1,0.1-0.2,0-0.3c0-0.1-0.1-0.2,0.1-0.3
				c0.1-0.1,0.1-0.2,0.1-0.3c0-0.1,0-0.2,0.1-0.3c0.1-0.1,0.1-0.2,0-0.3c0-0.1-0.1-0.2,0.1-0.3c0.1-0.1,0.1-0.2,0.1-0.3
				c0-0.1,0-0.2,0.1-0.3c0.1,0,0.1-0.1,0-0.2c0-0.1-0.1-0.3,0.1-0.4c0.1-0.1,0.1-0.2,0.1-0.3c0-0.1,0-0.2,0.1-0.3
				c0.1-0.1,0.1-0.1,0.1-0.2c0-0.1,0-0.2,0.1-0.3c0.1,0,0.1-0.1,0.1-0.2c0-0.1,0-0.2,0.1-0.2c0.1,0,0.1-0.1,0.1-0.2
				c0-0.1,0-0.1,0.1-0.2l0,0l0,0c0.6,0.2,2.2,0.4,2.9,0l0,0l0,0c0.1,0.1,0.1,0.1,0.1,0.2c0,0.1,0,0.1,0.1,0.2c0.1,0,0.1,0.1,0.1,0.2
				c0,0.1,0,0.2,0.1,0.2c0.1,0.1,0.1,0.2,0.1,0.3c0,0.1,0,0.2,0.1,0.2c0.1,0.1,0.1,0.2,0.1,0.3c0,0.1,0,0.2,0.1,0.3
				c0.2,0.1,0.1,0.2,0.1,0.4c0,0.1,0,0.2,0,0.2c0.1,0.1,0.1,0.2,0.1,0.3c0,0.1,0,0.2,0.1,0.3c0.2,0.1,0.1,0.2,0.1,0.3
				c0,0.1-0.1,0.2,0,0.3c0.1,0.1,0.1,0.2,0.1,0.3c0,0.1,0,0.2,0.1,0.3c0.1,0.1,0.1,0.2,0.1,0.3c0,0.1-0.1,0.2,0,0.3
				c0.1,0.1,0.1,0.2,0.1,0.3c0,0.1,0,0.2,0,0.3c0.1,0.1,0,0.4-0.1,0.7c-0.1,0.1-0.2,0.2-0.4,0.2c0,0,0,0-0.1,0
				c-0.2,0.3-0.9,0.6-1.2,0.5c-0.3,0.2-1.1,0.4-1.5,0C-209.9,404.2-210.2,404.3-210.4,404.3z M-209.8,404L-209.8,404
				c0.4,0.4,1.2,0.1,1.5,0l0,0l0,0c0,0,0.1,0,0.1,0c0.3,0,0.8-0.2,1-0.5l0,0l0,0c0,0,0,0,0.1,0c0.2,0,0.3-0.1,0.4-0.2
				c0.1-0.2,0.2-0.5,0.1-0.6c-0.1-0.1,0-0.3,0-0.4c0-0.1,0-0.2,0-0.3c-0.1-0.1-0.1-0.3-0.1-0.4c0-0.1,0.1-0.2,0-0.2
				c-0.1-0.1-0.1-0.2-0.1-0.3s0-0.2-0.1-0.3c-0.1-0.1-0.1-0.2-0.1-0.3c0-0.1,0-0.2-0.1-0.2c-0.2-0.1-0.1-0.2-0.1-0.3
				c0-0.1,0-0.2-0.1-0.2c-0.1-0.1-0.1-0.2-0.1-0.3c0-0.1,0-0.2-0.1-0.3c-0.2-0.1-0.2-0.2-0.2-0.3c0-0.1,0-0.2-0.1-0.2
				c-0.1-0.1-0.1-0.2-0.1-0.3c0-0.1,0-0.2-0.1-0.2c-0.2-0.1-0.2-0.2-0.2-0.3s0-0.2-0.1-0.2c-0.1,0-0.1-0.1-0.1-0.2
				c0-0.1,0-0.1,0-0.2c-0.7,0.3-2.3,0.2-2.9,0c0,0.1,0,0.1,0,0.2c0,0.1,0,0.2-0.1,0.2c-0.1,0-0.1,0.1-0.1,0.2c0,0.1,0,0.2-0.2,0.3
				c-0.1,0-0.1,0.1-0.1,0.2c0,0.1,0,0.2-0.1,0.3c-0.1,0-0.1,0.1-0.1,0.2c0,0.1,0,0.2-0.2,0.3c-0.1,0.1-0.1,0.2-0.1,0.3
				c0,0.1,0,0.2-0.1,0.3c-0.1,0.1-0.1,0.1-0.1,0.2c0,0.1,0,0.3-0.1,0.3c-0.1,0-0.1,0.1-0.1,0.2c0,0.1,0.1,0.2-0.1,0.3
				c-0.1,0.1-0.1,0.2-0.1,0.3s0,0.2-0.1,0.3c-0.1,0.1-0.1,0.1,0,0.2c0,0.1,0.1,0.2,0,0.4c-0.1,0.1-0.1,0.2,0,0.3c0,0.1,0,0.2,0,0.4
				c0,0.1,0,0.4,0.1,0.6c0.1,0.1,0.2,0.2,0.4,0.2c0,0,0,0,0.1,0l0,0l0,0c0.2,0.3,0.7,0.5,1,0.5c0,0,0.1,0,0.1,0l0,0l0,0
				C-211,404.2-210.2,404.4-209.8,404L-209.8,404z"/>
		</g>
		<g>
			<path class="st2" d="M-211,398.1c0,0.1,0,0.2-0.1,0.3c-0.2,0.2,0.1,0.3-0.1,0.6c-0.2,0.2,0,0.4-0.2,0.6c-0.2,0.2,0,0.4-0.2,0.6
				s0,0.4-0.2,0.6c-0.2,0.2,0,0.4-0.2,0.6c-0.2,0.2,0,0.5-0.2,0.7c-0.2,0.2,0,0.4-0.1,0.6c-0.2,0.2,0,0.4-0.1,0.5
				c0.2-0.2,0.2-0.4,0.4-0.5c0.2-0.1-0.1-0.3,0-0.4s0-0.5,0.2-0.7c0.2-0.2,0-0.5,0.2-0.7c0.1-0.1,0-0.5,0.2-0.6
				c0.2-0.1,0-0.4,0.1-0.6c0.1-0.2,0-0.4,0.1-0.6c0.1-0.2,0-0.4,0.1-0.5C-210.9,398.4-210.9,397.8-211,398.1L-211,398.1z"/>
		</g>
		<g>
			<path d="M-212.3,403.2L-212.3,403.2c0-0.1,0-0.2,0-0.2c0-0.1,0-0.2,0.1-0.3c0.1-0.1,0.1-0.1,0.1-0.2c0-0.1,0-0.2,0.1-0.4
				c0.1-0.1,0.1-0.2,0.1-0.3c0-0.1,0-0.2,0.1-0.3c0.1-0.1,0.1-0.2,0.1-0.3c0-0.1,0-0.2,0.1-0.3c0.1-0.1,0.1-0.2,0.1-0.3
				c0-0.1,0-0.2,0.1-0.3c0.1-0.1,0.1-0.2,0.1-0.3c0-0.1,0-0.2,0.1-0.3c0.1-0.1,0.1-0.2,0.1-0.3c0-0.1,0-0.2,0.1-0.3
				c0.1-0.1,0.1-0.2,0.1-0.3c0-0.1,0-0.2,0.1-0.3c0.1-0.1,0.1-0.2,0.1-0.2l0,0c0-0.1,0.1-0.1,0.1-0.1c0,0,0,0,0,0c0,0.1,0,0.4,0,0.4
				c0,0.1,0,0.1,0,0.2c0,0.1,0,0.2-0.1,0.3c-0.1,0.1-0.1,0.2-0.1,0.3c0,0.1,0,0.2-0.1,0.3c-0.1,0.1-0.1,0.2-0.1,0.3
				c0,0.1,0,0.3-0.1,0.3c-0.1,0.1-0.1,0.2-0.1,0.3c0,0.1,0,0.2-0.1,0.3c-0.1,0.1-0.1,0.2-0.1,0.3c0,0.1,0,0.3-0.1,0.4
				c-0.1,0.1-0.1,0.3-0.1,0.4c0,0.1,0,0.2-0.1,0.3c0,0,0,0.1,0,0.1c0,0.1,0.1,0.2,0,0.3c-0.1,0.1-0.1,0.1-0.2,0.2
				C-212.1,402.9-212.2,403.1-212.3,403.2z M-211,398.1c0,0.1,0,0.2-0.1,0.3c-0.1,0.1-0.1,0.2,0,0.2c0,0.1,0,0.2-0.1,0.3
				c-0.1,0.1-0.1,0.2-0.1,0.3c0,0.1,0,0.2-0.1,0.3c-0.1,0.1-0.1,0.2-0.1,0.3c0,0.1,0,0.2-0.1,0.3c-0.1,0.1-0.1,0.2-0.1,0.3
				c0,0.1,0,0.2-0.1,0.3c-0.1,0.1-0.1,0.2-0.1,0.3c0,0.1,0,0.2-0.1,0.3c-0.1,0.1-0.1,0.2-0.1,0.3c0,0.1,0,0.3-0.1,0.4
				c-0.1,0.1-0.1,0.2-0.1,0.3c0,0.1,0,0.2-0.1,0.3c-0.1,0.1-0.1,0.2-0.1,0.3c0,0,0,0.1,0,0.1c0-0.1,0.1-0.1,0.1-0.2
				c0-0.1,0.1-0.2,0.2-0.2c0.1-0.1,0.1-0.1,0-0.2c0-0.1,0-0.1,0-0.2c0,0,0-0.1,0-0.2c0-0.1,0-0.3,0.1-0.4c0.1-0.1,0.1-0.2,0.1-0.4
				c0-0.1,0-0.3,0.1-0.3c0.1-0.1,0.1-0.2,0.1-0.3c0-0.1,0-0.3,0.1-0.4c0.1-0.1,0.1-0.2,0.1-0.3c0-0.1,0-0.2,0.1-0.3
				c0.1-0.1,0.1-0.2,0.1-0.3c0-0.1,0-0.2,0.1-0.3c0.1-0.1,0.1-0.2,0.1-0.3c0-0.1,0-0.2,0-0.3C-210.9,398.4-210.9,398.2-211,398.1
				C-211,398.1-211,398.1-211,398.1z"/>
		</g>
		<g>
			<path class="st2" d="M-210.5,398.4c-0.1,0.2,0.1,0.3-0.1,0.5c-0.2,0.2,0.1,0.4-0.1,0.7c-0.2,0.2,0.1,0.4-0.1,0.6
				c-0.2,0.2,0.1,0.4-0.1,0.5c-0.1,0.2,0.1,0.4-0.1,0.6c-0.2,0.2,0.1,0.4-0.1,0.6c-0.1,0.2,0.1,0.4-0.1,0.6
				c-0.1,0.2,0.1,0.4-0.1,0.6c-0.2,0.2,0,0.4-0.1,0.5c0.2-0.1,0.1-0.4,0.2-0.4c0.1-0.1,0-0.5,0.1-0.6c0.1-0.1-0.1-0.4,0-0.6
				c0.2-0.2,0-0.4,0.1-0.6c0.1-0.2,0-0.4,0-0.6c0.2-0.2-0.1-0.4,0-0.6c0.2-0.2,0-0.4,0.1-0.6c0.2-0.2,0-0.5,0.1-0.6
				C-210.4,399-210.2,398.4-210.5,398.4L-210.5,398.4z"/>
		</g>
		<g>
			<path d="M-211.3,403.7L-211.3,403.7c0.1-0.1,0.1-0.2,0.1-0.3c0-0.1,0-0.2,0.1-0.3c0.1-0.1,0.1-0.2,0.1-0.3c0-0.1,0-0.2,0-0.3
				c0.1-0.1,0-0.1,0-0.2c0-0.1,0-0.2,0-0.3c0.1-0.1,0-0.2,0-0.2c0-0.1-0.1-0.2,0.1-0.3c0.1-0.1,0.1-0.2,0-0.3c0-0.1,0-0.2,0-0.3
				c0.1-0.1,0-0.1,0-0.2c0-0.1,0-0.2,0-0.3c0.1-0.1,0.1-0.2,0-0.3c0-0.1-0.1-0.2,0-0.3c0.1-0.1,0.1-0.2,0-0.3c0-0.1,0-0.2,0-0.3
				c0.1-0.1,0.1-0.2,0-0.3c0-0.1,0-0.2,0-0.3l0,0l0,0c0.1,0,0.1,0.1,0.1,0.1c0.1,0.2,0,0.5-0.1,0.6c0,0,0,0.1,0,0.2
				c0,0.1,0.1,0.3-0.1,0.4c0,0.1,0,0.1,0,0.2c0,0.1,0,0.2-0.1,0.4c0,0.1,0,0.1,0,0.2c0,0.1,0.1,0.2,0,0.4c0,0,0,0.1,0,0.2
				c0,0.1,0,0.2,0,0.4c0,0.1,0,0.1,0,0.2c0,0.1,0,0.2-0.1,0.4c-0.1,0.1,0,0.2,0,0.3c0,0.1,0,0.2,0,0.3c-0.1,0.1-0.1,0.2-0.1,0.3
				c0,0.1,0,0.2,0,0.3c0,0,0,0.1,0,0.1C-211,403.4-211,403.6-211.3,403.7L-211.3,403.7z M-210.5,398.4c0,0.1,0,0.1,0,0.2
				c0,0.1,0,0.2-0.1,0.3c-0.1,0.1-0.1,0.2,0,0.3c0,0.1,0,0.2-0.1,0.4c-0.1,0.1-0.1,0.2,0,0.3c0,0.1,0.1,0.2,0,0.3
				c-0.1,0.1-0.1,0.2,0,0.3c0,0.1,0,0.2,0,0.3c-0.1,0.1,0,0.1,0,0.2c0,0.1,0.1,0.2-0.1,0.4c-0.1,0.1-0.1,0.2,0,0.3
				c0,0.1,0,0.2,0,0.3c-0.1,0.1-0.1,0.2,0,0.3c0,0.1,0,0.2,0,0.3c0,0.1,0,0.1,0,0.2c0,0.1,0,0.3-0.1,0.4c-0.1,0.1-0.1,0.2-0.1,0.3
				c0,0,0,0.1,0,0.1c0.1-0.1,0.1-0.1,0.1-0.2c0-0.1,0-0.1,0.1-0.2c0,0,0-0.1,0-0.2c0-0.1,0-0.3,0.1-0.4c0.1,0,0-0.1,0-0.3
				c0-0.1,0-0.3,0-0.3c0.1-0.1,0.1-0.2,0.1-0.3c0-0.1,0-0.2,0-0.3c0.1-0.1,0-0.2,0-0.3c0-0.1,0-0.2,0-0.3c0.1-0.1,0.1-0.2,0-0.3
				c0-0.1,0-0.2,0-0.3c0.1-0.1,0.1-0.2,0-0.3c0-0.1,0-0.2,0-0.3c0.1-0.1,0.1-0.3,0-0.4c0-0.1,0-0.2,0-0.2
				C-210.4,399-210.3,398.7-210.5,398.4C-210.4,398.4-210.4,398.4-210.5,398.4z"/>
		</g>
		<g>
			<path class="st2" d="M-209.8,398.6c-0.1,0.3,0.1,0.4,0,0.7c-0.1,0.3,0.1,0.4,0,0.7c-0.1,0.3,0.1,0.5,0,0.9s0.1,0.5,0,0.8
				c-0.1,0.4,0.2,0.6,0,0.9c-0.2,0.3,0.2,0.4,0,0.7c-0.1,0.1,0,0.5,0.2,0.1c0.1-0.4-0.1-0.5,0-0.7c0.1-0.2,0-0.7,0-0.9
				c0.1-0.3-0.1-0.6,0-0.9c0.1-0.3-0.2-0.6-0.1-0.8c0.1-0.2-0.1-0.5,0.1-0.7c0.1-0.2-0.1-0.4,0-0.6
				C-209.6,398.6-209.7,398.2-209.8,398.6L-209.8,398.6z"/>
		</g>
		<g>
			<path d="M-209.7,403.6C-209.7,403.6-209.8,403.6-209.7,403.6c-0.1-0.1-0.1-0.2-0.1-0.3c0.1-0.1,0-0.2,0-0.3
				c-0.1-0.1-0.1-0.2,0-0.4c0.1-0.1,0.1-0.3,0-0.4c0-0.1-0.1-0.3,0-0.5c0-0.2,0-0.3,0-0.4c0-0.1-0.1-0.2,0-0.4c0.1-0.2,0-0.3,0-0.5
				c0-0.1-0.1-0.2,0-0.4c0.1-0.1,0-0.3,0-0.4c0-0.1,0-0.2,0-0.3c0-0.1,0-0.2,0-0.3c0-0.1-0.1-0.2,0-0.4c0-0.1,0.1-0.1,0.1-0.1
				c0,0,0,0,0.1,0c0.1,0.1,0.1,0.3,0,0.3c0,0,0,0.1,0,0.2c0,0.1,0.1,0.3,0,0.4c0,0.1,0,0.2,0,0.3c0,0.1,0,0.3,0,0.4
				c-0.1,0.1,0,0.2,0,0.4c0,0.1,0.1,0.3,0,0.4c-0.1,0.1,0,0.3,0,0.5c0,0.1,0,0.3,0,0.4c0,0.1,0,0.3,0,0.4c0,0.2,0.1,0.4,0,0.5
				c0,0.1,0,0.1,0,0.2c0,0.1,0.1,0.2,0,0.5C-209.6,403.5-209.7,403.6-209.7,403.6C-209.7,403.6-209.7,403.6-209.7,403.6z
				 M-209.7,398.5C-209.7,398.5-209.7,398.5-209.7,398.5L-209.7,398.5c-0.1,0.3-0.1,0.4,0,0.5c0,0.1,0.1,0.2,0,0.3
				c0,0.1,0,0.2,0,0.3c0,0.1,0,0.3,0,0.4c0,0.1,0,0.2,0,0.3c0,0.1,0.1,0.3,0,0.5c-0.1,0.2,0,0.3,0,0.4c0,0.1,0.1,0.2,0,0.4
				c-0.1,0.2,0,0.3,0,0.5c0,0.2,0.1,0.3,0,0.5c-0.1,0.1,0,0.2,0,0.3c0.1,0.1,0.1,0.2,0,0.4c0,0.1,0,0.2,0,0.2c0,0,0,0,0,0
				c0,0,0,0,0.1-0.2c0.1-0.2,0-0.4,0-0.5c0-0.1,0-0.1,0-0.2c0.1-0.1,0-0.3,0-0.5c0-0.2,0-0.3,0-0.4c0-0.1,0-0.2,0-0.4
				c0-0.2-0.1-0.4,0-0.5c0.1-0.1,0-0.3,0-0.4c0-0.1-0.1-0.3,0-0.4c0.1-0.1,0-0.2,0-0.4c0-0.1,0-0.3,0-0.4c0.1-0.1,0-0.2,0-0.3
				c0-0.1,0-0.2,0-0.2C-209.6,398.7-209.7,398.5-209.7,398.5z"/>
		</g>
		<g>
			<path class="st6" d="M-208.4,397.4c0-2.1-0.3-2.8-1.4-2.8c-1.1,0-1.4,0.7-1.4,2.8H-208.4L-208.4,397.4z"/>
		</g>
		<g>
			<path d="M-209.7,404.1L-209.7,404.1c0-0.2,0-0.3-0.1-0.4c0-0.1-0.1-0.2,0-0.4c0.1-0.1,0-0.2,0-0.3c0-0.1-0.1-0.2,0-0.4
				c0.1-0.1,0.1-0.3,0-0.4c0-0.1-0.1-0.3,0-0.5c0-0.2,0-0.3,0-0.4c0-0.1-0.1-0.2,0-0.4c0.1-0.2,0-0.3,0-0.5c0-0.1-0.1-0.2,0-0.4
				c0.1-0.1,0-0.3,0-0.4c0-0.1,0-0.2,0-0.3c0-0.1,0-0.2,0-0.3c0-0.1-0.1-0.2,0-0.4c0.1-0.2,0-0.3,0-0.5c0-0.2-0.1-0.3,0-0.5l0.1,0
				c0,0.2,0,0.3,0,0.5c0,0.2,0.1,0.4,0,0.5c-0.1,0.2,0,0.3,0,0.4c0,0.1,0.1,0.2,0,0.3c0,0.1,0,0.2,0,0.3c0,0.1,0,0.3,0,0.4
				c0,0.1,0,0.2,0,0.3c0,0.1,0.1,0.3,0,0.5c-0.1,0.2,0,0.3,0,0.4c0,0.1,0.1,0.2,0,0.4c-0.1,0.2,0,0.3,0,0.5c0,0.2,0.1,0.3,0,0.5
				c-0.1,0.1,0,0.2,0,0.3s0.1,0.2,0,0.4c-0.1,0.2,0,0.3,0,0.4C-209.7,403.8-209.7,403.9-209.7,404.1z M-211.3,404
				C-211.3,404-211.3,404-211.3,404c-0.1-0.2,0-0.4,0.1-0.5c0-0.1,0-0.1,0-0.2c0-0.1,0-0.2,0.1-0.3c0.1-0.1,0.1-0.2,0.1-0.3
				c0-0.1,0-0.2,0-0.3c0.1-0.1,0-0.1,0-0.2c0-0.1,0-0.2,0-0.3c0.1-0.1,0-0.2,0-0.2c0-0.1-0.1-0.2,0.1-0.3c0.1-0.1,0.1-0.2,0-0.3
				c0-0.1,0-0.2,0-0.3c0.1-0.1,0-0.1,0-0.2c0-0.1,0-0.2,0-0.3c0.1-0.1,0.1-0.2,0-0.3c0-0.1-0.1-0.2,0-0.3c0.1-0.1,0.1-0.2,0-0.3
				c0-0.1,0-0.2,0-0.3c0.1-0.1,0.1-0.2,0-0.3c0-0.1,0-0.2,0-0.3c0.1-0.1,0-0.2,0-0.2c0-0.1-0.1-0.2,0-0.3c0.1-0.1,0.1-0.1,0-0.2
				c0-0.1,0-0.1,0-0.2h-0.3c0,0,0,0.1,0,0.1c0,0.1,0,0.2-0.1,0.3c-0.1,0.1-0.1,0.2-0.1,0.3c0,0.1,0,0.2-0.1,0.3
				c-0.1,0.1-0.1,0.2,0,0.2c0,0.1,0,0.2-0.1,0.3c-0.1,0.1-0.1,0.2-0.1,0.3c0,0.1,0,0.2-0.1,0.3c-0.1,0.1-0.1,0.2-0.1,0.3
				c0,0.1,0,0.2-0.1,0.3c-0.1,0.1-0.1,0.2-0.1,0.3c0,0.1,0,0.2-0.1,0.3c-0.1,0.1-0.1,0.2-0.1,0.3c0,0.1,0,0.2-0.1,0.3
				c-0.1,0.1-0.1,0.2-0.1,0.3c0,0.1,0,0.3-0.1,0.4c-0.1,0.1-0.1,0.2-0.1,0.3c0,0.1,0,0.2-0.1,0.3c-0.1,0.1-0.1,0.2-0.1,0.3
				c0,0.1,0,0.2-0.1,0.2c-0.1,0.1-0.1,0.3-0.1,0.3l-0.1,0c-0.1-0.1,0-0.3,0.1-0.4c0,0,0-0.1,0-0.2c0-0.1,0-0.2,0.1-0.3
				c0.1-0.1,0.1-0.1,0.1-0.2c0-0.1,0-0.2,0.1-0.4c0.1-0.1,0.1-0.2,0.1-0.3c0-0.1,0-0.2,0.1-0.3c0.1-0.1,0.1-0.2,0.1-0.3
				c0-0.1,0-0.2,0.1-0.3c0.1-0.1,0.1-0.2,0.1-0.3c0-0.1,0-0.2,0.1-0.3c0.1-0.1,0.1-0.2,0.1-0.3c0-0.1,0-0.2,0.1-0.3
				c0.1-0.1,0.1-0.2,0.1-0.3c0-0.1,0-0.2,0.1-0.3c0.1-0.1,0.1-0.2,0.1-0.3c0-0.1,0-0.2,0.1-0.3c0.1-0.1,0.1-0.2,0.1-0.3
				c0-0.1,0-0.2,0.1-0.3c0.1-0.1,0.1-0.2,0.1-0.3c0,0,0-0.1,0-0.1h-0.3v0c0-2.2,0.3-2.8,1.4-2.8c1.1,0,1.4,0.7,1.4,2.8v0h-0.3
				c0,0,0,0.1,0,0.1c0,0.1,0,0.2,0.1,0.3c0.1,0.1,0.1,0.2,0.1,0.3c0,0.1,0,0.2,0.1,0.3c0.1,0.1,0.1,0.2,0.1,0.3s0,0.2,0.1,0.3
				c0.1,0.1,0.1,0.2,0.1,0.3c0,0.1,0,0.2,0.1,0.3c0.1,0.1,0.1,0.2,0.1,0.3c0,0.1,0,0.2,0.1,0.3c0.1,0.1,0.1,0.2,0.1,0.3
				c0,0.1,0,0.2,0.1,0.3c0.1,0.1,0.1,0.2,0.1,0.3c0,0.1,0,0.2,0.1,0.3c0.1,0.1,0.1,0.2,0.1,0.4c0,0.1,0,0.2,0.1,0.3
				c0.1,0.1,0.1,0.3,0.1,0.4c0,0.1,0,0.2,0.1,0.2c0.1,0.1,0.1,0.2,0.1,0.3c0,0.1,0,0.1,0,0.2c0.1,0.1,0.2,0.3,0.1,0.4l-0.1,0
				c0-0.1,0-0.2-0.1-0.3c-0.1-0.1-0.1-0.2-0.1-0.2c0-0.1,0-0.2-0.1-0.3c-0.1-0.1-0.1-0.2-0.1-0.3c0-0.1,0-0.2-0.1-0.3
				c-0.1-0.1-0.1-0.3-0.1-0.4c0-0.1,0-0.2-0.1-0.3c-0.1-0.1-0.1-0.2-0.1-0.3c0-0.1,0-0.2-0.1-0.3c-0.1-0.1-0.1-0.2-0.1-0.3
				c0-0.1,0-0.2-0.1-0.3c-0.1-0.1-0.1-0.2-0.1-0.3c0-0.1,0-0.2-0.1-0.3c-0.1-0.1-0.1-0.2-0.1-0.3c0-0.1,0-0.2-0.1-0.3
				c-0.1-0.1-0.1-0.2-0.1-0.3c0-0.1,0-0.1,0-0.2c-0.1-0.1-0.1-0.2-0.1-0.3c0-0.1,0-0.2-0.1-0.3c-0.1-0.1-0.1-0.2-0.1-0.3
				c0,0,0-0.1,0-0.1h-0.3c0,0.1,0,0.1,0,0.2c0,0.1,0,0.1,0,0.2c0.1,0.1,0.1,0.2,0,0.3c0,0.1,0,0.1,0,0.2c0.1,0.1,0,0.2,0,0.3
				c0,0.1,0,0.1,0,0.3c0.1,0.1,0.1,0.2,0,0.3c0,0.1,0,0.2,0,0.3c0.1,0.1,0.1,0.2,0,0.3c0,0.1,0,0.2,0,0.3c0.1,0.1,0.1,0.2,0,0.3
				c0,0.1,0,0.1,0,0.2c0.1,0.1,0.1,0.2,0,0.3c0,0.1,0,0.2,0,0.3c0.1,0.1,0.1,0.2,0.1,0.3c0,0.1,0,0.2,0,0.2c0.1,0.1,0.1,0.2,0,0.3
				c0,0.1,0,0.2,0,0.2c0.1,0.1,0.1,0.2,0,0.3c0,0.1,0,0.2,0.1,0.3c0.1,0.1,0.1,0.2,0.1,0.3c0,0.1,0,0.1,0,0.2
				c0.1,0.1,0.2,0.3,0.1,0.4c0,0,0,0.1-0.1,0.1l0-0.1c0,0,0,0,0,0c0-0.1,0-0.2-0.1-0.3c-0.1-0.1,0-0.2,0-0.2c0-0.1,0-0.2-0.1-0.3
				c-0.1-0.1-0.1-0.3-0.1-0.4c0-0.1,0-0.2,0-0.2c-0.1-0.1-0.1-0.2,0-0.3c0-0.1,0-0.2,0-0.3c-0.1-0.1-0.1-0.2,0-0.3
				c0-0.1,0-0.2,0-0.3c-0.1-0.1-0.1-0.2-0.1-0.3c0-0.1,0-0.2,0-0.2c-0.1-0.1-0.1-0.2,0-0.3c0-0.1,0-0.2,0-0.3
				c-0.1-0.1-0.1-0.2,0-0.3c0-0.1,0-0.2,0-0.3c-0.1-0.1-0.1-0.3-0.1-0.4c0-0.1,0-0.2,0-0.3c-0.1-0.1-0.1-0.2-0.1-0.3
				c0-0.1,0-0.1,0-0.2c-0.1-0.1,0-0.2,0-0.3c0-0.1,0-0.1,0-0.2c-0.1-0.1-0.1-0.2,0-0.3c0-0.1,0-0.1,0-0.2h-1.2c0,0.1,0,0.1,0,0.2
				c0,0.1,0.1,0.2,0,0.3c-0.1,0.1-0.1,0.1,0,0.2c0,0.1,0.1,0.2,0,0.3c-0.1,0.1,0,0.2,0,0.2c0,0.1,0,0.2-0.1,0.3
				c-0.1,0.1-0.1,0.2,0,0.3c0,0.1,0,0.2-0.1,0.4c-0.1,0.1-0.1,0.2,0,0.3c0,0.1,0.1,0.2,0,0.3c-0.1,0.1-0.1,0.2,0,0.3
				c0,0.1,0,0.2,0,0.3c-0.1,0.1,0,0.1,0,0.2c0,0.1,0.1,0.2-0.1,0.4c-0.1,0.1-0.1,0.2,0,0.3c0,0.1,0,0.2,0,0.3
				c-0.1,0.1-0.1,0.2,0,0.3c0,0.1,0,0.2,0,0.3c0,0.1,0,0.1,0,0.2c0,0.1,0,0.3-0.1,0.4c-0.1,0.1-0.1,0.2-0.1,0.3c0,0.1,0,0.1,0,0.2
				C-211.2,403.7-211.3,403.9-211.3,404C-211.3,404-211.3,404-211.3,404L-211.3,404z M-208.7,397.4h0.3c0-2.1-0.3-2.7-1.3-2.7
				c-1,0-1.3,0.6-1.3,2.7h0.3c0,0,0-0.1,0.1-0.2l0,0c0,0-0.1,0.1-0.1,0.1h0.4c0,0,0-0.1,0-0.1l0,0c0,0,0,0,0,0h1.2c0,0,0,0,0,0l0,0
				c0,0,0,0.1,0,0.1H-208.7c-0.1,0-0.1-0.1-0.1-0.1l0,0C-208.7,397.3-208.7,397.3-208.7,397.4z"/>
		</g>
		<g>
			<path d="M-211.1,397.4c0-2.1,0.3-2.8,1.4-2.8c-0.5,0-0.8,0.4-0.9,0.6c-0.1,0.3,0,0.2,0.1,0.1s0.1,0.1,0,0.2
				c-0.1,0.1-0.2,0.5-0.1,0.3c0.1-0.1,0.2,0,0.1,0.2c-0.1,0.2-0.3,0.6-0.1,0.5c0.1-0.2,0.2,0.1,0.1,0.2c-0.1,0.1-0.1,0.2,0,0.2
				c0.1-0.1,0.1,0.2,0,0.3H-211.1L-211.1,397.4z"/>
		</g>
		<g>
			<path d="M-210.6,397.4h-0.6v0c0-2.2,0.3-2.8,1.4-2.8v0.1c-0.5,0-0.8,0.4-0.8,0.6c0,0.1,0,0.1,0,0.2c0,0,0,0,0.1-0.1
				c0,0,0.1,0,0.1,0c0.1,0,0,0.2-0.1,0.3c-0.1,0.1-0.1,0.3-0.1,0.3c0,0,0,0,0,0c0.1-0.1,0.1-0.1,0.2,0c0,0,0.1,0.1,0,0.3
				c-0.1,0.1-0.2,0.4-0.2,0.5c0,0,0,0,0,0c0.1-0.1,0.1-0.1,0.1,0c0.1,0.1,0.1,0.2,0,0.3c0,0.1-0.1,0.1-0.1,0.1c0,0,0,0,0,0
				c0,0,0.1,0,0.1,0C-210.5,397.1-210.5,397.3-210.6,397.4L-210.6,397.4z M-211.1,397.4h0.5c0-0.1,0.1-0.2,0-0.3c0,0-0.1,0-0.1,0
				c0,0,0-0.1,0-0.2s0-0.2,0-0.2c0,0,0,0,0,0c0,0,0,0-0.1,0c0,0-0.1,0.1-0.1,0c-0.1-0.1,0.1-0.4,0.2-0.6c0.1-0.1,0.1-0.2,0-0.2
				c0,0-0.1,0-0.1,0c0,0-0.1,0-0.1,0c-0.1-0.1,0-0.3,0.1-0.4c0.1-0.1,0.1-0.2,0.1-0.2c0,0,0,0,0,0c-0.1,0.1-0.1,0.1-0.1,0.1
				s0-0.1,0-0.2c0.1-0.2,0.2-0.4,0.5-0.5C-210.9,394.9-211.1,395.6-211.1,397.4z"/>
		</g>
		<g>
			<path d="M-208.6,397.3c0-1.6-0.2-2.1-0.6-2.3c-0.2-0.1-0.2-0.1-0.1,0.1c0.1,0.1,0.1,0.4,0,0.2c-0.1-0.1-0.1-0.2-0.2-0.1
				c0,0.1,0.1,0.4,0.2,0.6c0.1,0.2,0,0.3-0.1,0.1c-0.1-0.2-0.1,0,0,0.2c0.2,0.2,0.2,1,0.2,1.3L-208.6,397.3L-208.6,397.3z"/>
		</g>
		<g>
			<path d="M-209.3,397.4L-209.3,397.4c0-0.4,0-1.1-0.2-1.3c-0.1-0.1-0.1-0.2-0.1-0.3c0,0,0,0,0,0c0,0,0,0,0,0c0,0,0.1,0,0.1,0.1
				c0.1,0.1,0.1,0.1,0.1,0.1c0,0,0-0.1,0-0.2c0-0.1-0.1-0.1-0.1-0.2c-0.1-0.3-0.2-0.4-0.1-0.5c0,0,0,0,0.1,0h0c0,0,0.1,0,0.2,0.2
				c0,0,0,0,0,0c0,0,0-0.1-0.1-0.2c-0.1-0.1-0.1-0.1-0.1-0.2s0.1,0,0.2,0c0.4,0.2,0.6,0.6,0.6,2.3v0L-209.3,397.4z M-209.5,395.9
				c0,0,0,0.1,0.1,0.2c0.2,0.2,0.2,0.9,0.2,1.2l0.6-0.1c0-1.6-0.2-2.1-0.6-2.2c-0.1,0-0.1,0-0.1-0.1c0,0,0,0,0.1,0.1
				c0.1,0.1,0.1,0.2,0.1,0.3c0,0,0,0,0,0c0,0,0,0,0,0c0,0-0.1,0-0.1-0.1c0,0-0.1-0.1-0.1-0.1c0,0,0,0,0,0c0,0,0.1,0.3,0.2,0.4
				c0,0.1,0.1,0.1,0.1,0.2c0,0.1,0.1,0.2,0,0.3C-209.3,396.1-209.3,396-209.5,395.9C-209.4,395.9-209.5,395.9-209.5,395.9z"/>
		</g>
		<g>
			<path class="st6" d="M-209.8,397.7c0.4,0,0.9-0.1,1.2-0.2c0.4-0.1,0.4-0.3,0.3-0.4c-0.1-0.1-0.3,0-0.5,0c-0.2,0.1-0.7,0.1-1,0.1
				s-0.8-0.1-1-0.1c-0.2-0.1-0.4-0.2-0.5,0c-0.1,0.2-0.1,0.3,0.3,0.4C-210.7,397.6-210.2,397.7-209.8,397.7L-209.8,397.7z"/>
		</g>
		<g>
			<path d="M-209.8,397.7c-0.4,0-0.9-0.1-1.2-0.2c-0.2-0.1-0.3-0.2-0.4-0.3c0-0.1,0-0.2,0.1-0.2c0.1-0.1,0.3-0.1,0.5,0
				c0.2,0.1,0.7,0.1,1,0.1c0.3,0,0.8-0.1,1-0.1c0.2-0.1,0.4-0.2,0.5,0c0,0.1,0.1,0.1,0.1,0.2c0,0.1-0.1,0.2-0.4,0.3
				C-208.9,397.6-209.3,397.7-209.8,397.7z M-211.1,397c-0.1,0-0.1,0-0.1,0c-0.1,0.1-0.1,0.1-0.1,0.2c0,0.1,0.1,0.1,0.3,0.2
				c0.3,0.1,0.8,0.2,1.2,0.2c0.4,0,0.9-0.1,1.2-0.2c0.2-0.1,0.3-0.1,0.3-0.2c0,0,0-0.1-0.1-0.2c-0.1-0.1-0.3,0-0.4,0
				c-0.2,0.1-0.7,0.1-1,0.1s-0.8-0.1-1-0.1C-210.9,397.1-211,397-211.1,397z"/>
		</g>
		<g>
			<polygon class="st7" points="-280.6,381.3 -270.7,381.3 -280.6,376.3 -280.6,373.4 -274.9,373.4 -261,380.4 -261,373.4 
				-253.1,373.4 -253.1,380.4 -239.2,373.4 -233.4,373.4 -233.4,376.3 -243.5,381.3 -233.4,381.3 -233.4,389.2 -243.5,389.2 
				-233.4,394.2 -233.4,397 -239.2,397 -253.1,390.1 -253.1,397 -261,397 -261,390.1 -274.9,397 -280.6,397 -280.6,394.2 
				-270.7,389.2 -280.6,389.2 			"/>
		</g>
		<g>
			<path d="M-233.3,397.1l-5.9,0l-13.8-6.9v6.9h-8.1v-6.9l-13.8,6.9h-5.8v-3.1l9.6-4.8h-9.6v-8.1h9.6l-9.6-4.8v-3.1l5.9,0l13.8,6.9
				v-6.9h8.1v6.9l13.8-6.9h5.9v3.1l-9.6,4.8h9.6v8.1h-9.6l9.6,4.8V397.1z M-239.2,396.9h5.6v-2.7l-9.9-5l0.1-0.2h9.9v-7.6h-9.9
				l-0.1-0.2l9.9-5v-2.7h-5.6l-14.1,7v-7h-7.6v7l-0.2-0.1l-13.9-6.9h-5.5v2.7l9.9,5l-0.1,0.2h-9.8v7.6h9.8l0.1,0.2l-9.9,5v2.7h5.5
				l14.1-7v7h7.6v-7l0.2,0.1L-239.2,396.9z"/>
		</g>
		<g>
			<polygon class="st6" points="-237.2,373.4 -252.9,381.3 -249.1,381.3 -233.4,373.4 			"/>
		</g>
		<g>
			<path d="M-249.1,381.4h-3.8l-0.1-0.2l15.8-7.9h3.7l0.1,0.2L-249.1,381.4z M-252.4,381.2h3.2l15.2-7.6h-3.2L-252.4,381.2z"/>
		</g>
		<g>
			<polygon class="st6" points="-233.4,397 -249.1,389.2 -245.4,389.2 -233.4,395.1 			"/>
		</g>
		<g>
			<path d="M-233.5,397.1l-15.7-7.9l0.1-0.2l3.8,0l11.9,6l0.1,0.1v1.9L-233.5,397.1z M-248.6,389.3l15.1,7.5v-1.6l-11.8-5.9H-248.6z
				"/>
		</g>
		<g>
			<polygon class="st6" points="-264.8,381.3 -280.6,373.4 -280.6,375.3 -268.6,381.3 			"/>
		</g>
		<g>
			<path d="M-264.8,381.4l-3.9,0l-12-6l-0.1-0.1v-1.9l0.2-0.1l15.8,7.9L-264.8,381.4z M-268.6,381.2h3.2l-15.1-7.5v1.6L-268.6,381.2
				z"/>
		</g>
		<g>
			<polygon class="st6" points="-264.9,389.2 -280.6,397 -276.9,397 -261.1,389.2 			"/>
		</g>
		<g>
			<path d="M-276.9,397.1h-3.8l-0.1-0.2l15.8-7.9h3.8l0.1,0.2L-276.9,397.1z M-280.1,396.9h3.2l15.2-7.6h-3.2L-280.1,396.9z"/>
		</g>
		<g>
			<polygon class="st6" points="-280.6,382.9 -259.3,382.9 -259.3,373.4 -254.7,373.4 -254.7,382.9 -233.4,382.9 -233.4,387.5 
				-254.7,387.5 -254.7,397 -259.3,397 -259.3,387.5 -280.6,387.5 			"/>
		</g>
		<g>
			<path d="M-254.6,397.1h-4.9v-9.5h-21.3v-4.9h21.3v-9.5h4.9v9.5h21.3v4.9h-21.3V397.1z M-259.2,396.9h4.4v-9.5h21.3V383h-21.3
				v-9.5h-4.4v9.5h-21.3v4.4h21.3V396.9z"/>
		</g>
	</g>
</g>
</svg>
