<?xml version="1.0" encoding="utf-8"?>
<!-- Generator: Adobe Illustrator 19.0.0, SVG Export Plug-In . SVG Version: 6.00 Build 0)  -->
<svg version="1.1" id="Layer_1" xmlns="http://www.w3.org/2000/svg" xmlns:xlink="http://www.w3.org/1999/xlink" x="0px" y="0px"
	 viewBox="-269 374 72 46" style="enable-background:new -269 374 72 46;" xml:space="preserve">
<style type="text/css">
	.st0{clip-path:url(#SVGID_2_);}
	.st1{fill:#01327A;}
	.st2{clip-path:url(#SVGID_4_);fill:#01327A;}
	.st3{clip-path:url(#SVGID_6_);fill:#FFFFFF;}
	.st4{clip-path:url(#SVGID_8_);fill:#CF142B;}
	.st5{clip-path:url(#SVGID_10_);fill:#FFFFFF;}
	.st6{clip-path:url(#SVGID_12_);fill:#FFFFFF;}
	.st7{clip-path:url(#SVGID_14_);fill:#FFFFFF;}
	.st8{clip-path:url(#SVGID_16_);fill:#FFFFFF;}
	.st9{clip-path:url(#SVGID_18_);fill:#FFFFFF;}
	.st10{clip-path:url(#SVGID_20_);fill:#FFFFFF;}
</style>
<g>
	<defs>
		<path id="SVGID_1_" d="M-204,420H-262c-3.8,0-7-3.1-7-7V381c0-3.8,3.1-7,7-7h58.1c3.8,0,7,3.1,7,7V413
			C-197,416.9-200.1,420-204,420z"/>
	</defs>
	<clipPath id="SVGID_2_">
		<use xlink:href="#SVGID_1_"  style="overflow:visible;"/>
	</clipPath>
	<g class="st0">
		<rect x="-269.8" y="372.5" class="st1" width="73.6" height="49"/>
	</g>
</g>
<g>
	<defs>
		<path id="SVGID_3_" d="M-204,420H-262c-3.8,0-7-3.1-7-7V381c0-3.8,3.1-7,7-7h58.1c3.8,0,7,3.1,7,7V413
			C-197,416.9-200.1,420-204,420z"/>
	</defs>
	<clipPath id="SVGID_4_">
		<use xlink:href="#SVGID_3_"  style="overflow:visible;"/>
	</clipPath>
	<path class="st2" d="M-260,372.5c0,6.4,0,12.9,0,19.3c-3.3,0-6.5,0-9.8,0c0-6.4,0-12.9,0-19.3C-266.5,372.5-263.3,372.5-260,372.5z
		"/>
</g>
<g>
	<defs>
		<path id="SVGID_5_" d="M-204,420H-262c-3.8,0-7-3.1-7-7V381c0-3.8,3.1-7,7-7h58.1c3.8,0,7,3.1,7,7V413
			C-197,416.9-200.1,420-204,420z"/>
	</defs>
	<clipPath id="SVGID_6_">
		<use xlink:href="#SVGID_5_"  style="overflow:visible;"/>
	</clipPath>
	<path class="st3" d="M-260,372.5c3.3,0,6.5,0,9.8,0c0,6.4,0,12.9,0,19.3c3.1,0.1,6.4,0,9.6,0c0-6.5,0-12.9,0-19.4
		c0.2,0,0.3,0,0.5,0c0,6.6,0,13.2,0,19.8c-9.9,0-19.8,0-29.7,0c0-0.2,0-0.3,0-0.5c3.3,0,6.6,0,9.8,0C-260,385.4-260,379-260,372.5z"
		/>
</g>
<g>
	<defs>
		<path id="SVGID_7_" d="M-204,420H-262c-3.8,0-7-3.1-7-7V381c0-3.8,3.1-7,7-7h58.1c3.8,0,7,3.1,7,7V413
			C-197,416.9-200.1,420-204,420z"/>
	</defs>
	<clipPath id="SVGID_8_">
		<use xlink:href="#SVGID_7_"  style="overflow:visible;"/>
	</clipPath>
	<path class="st4" d="M-250.2,372.5c3.2,0,6.3,0,9.5,0c0,5.9,0,12.2,0,18.1c0,0.4,0,1.1,0,1.2c-0.1,0.1-0.8,0-1.2,0
		c-2.8,0-5.7,0-8.3,0C-250.2,385.4-250.2,378.9-250.2,372.5z"/>
</g>
<g>
	<defs>
		<path id="SVGID_9_" d="M-204,420H-262c-3.8,0-7-3.1-7-7V381c0-3.8,3.1-7,7-7h58.1c3.8,0,7,3.1,7,7V413
			C-197,416.9-200.1,420-204,420z"/>
	</defs>
	<clipPath id="SVGID_10_">
		<use xlink:href="#SVGID_9_"  style="overflow:visible;"/>
	</clipPath>
	<path class="st5" d="M-211.3,394.9c-0.5,0.8-1,1.7-1.6,2.5c-1.5,0-3,0-4.5,0c0,0.5,0,1,0,1.5c1.1,0.1,2.4,0,3.5,0.1
		c-0.5,0.8-1,1.5-1.4,2.3c-0.6,0.1-1.5,0-2.1,0.1c0,1.6,0,3.2,0,4.8c0.6-0.8,1.1-1.7,1.7-2.6c0.6-0.9,1.1-1.8,1.7-2.6
		c1.4,2.4,3,4.8,4.5,7.1c0,0,0,0,0,0c-0.9,0-1.9,0-2.8,0c-0.1-0.3-0.3-0.5-0.4-0.8c-0.9,0-1.8,0-2.8,0c-1.2,1.6-2.2,3.5-3.3,5.2
		c-1.1-1.7-2.2-3.5-3.3-5.2c-0.9,0-1.9,0-2.8,0c-0.2,0.2-0.3,0.5-0.4,0.7c-0.8,0-2.1,0.1-2.8,0c1.5-2.4,2.9-4.8,4.5-7.1
		c1,1.7,2.2,3.4,3.2,5.1c0,0,0,0,0,0.1c0,0,0,0,0.1,0c0-2.9,0-5.9,0-8.8c-1.1,0-2.2,0-3.3,0c-0.3,0-0.9,0.1-1.1,0
		c-0.3-0.1-0.7-1-0.8-1.2c-0.3-0.5-0.5-0.9-0.8-1.3C-221.3,394.8-216.2,394.8-211.3,394.9z M-224,405.6c0.5,0,1.1,0,1.5,0
		c-0.4-0.5-0.7-1.1-1.1-1.7c-0.3,0.6-0.6,1.1-0.8,1.7C-224.4,405.6-224,405.7-224,405.6z M-213.2,405.6c-0.3-0.5-0.6-1-0.8-1.5
		c-0.4,0.4-0.6,1-0.9,1.5C-214.4,405.6-213.7,405.6-213.2,405.6z"/>
</g>
<g>
	<defs>
		<path id="SVGID_11_" d="M-204,420H-262c-3.8,0-7-3.1-7-7V381c0-3.8,3.1-7,7-7h58.1c3.8,0,7,3.1,7,7V413
			C-197,416.9-200.1,420-204,420z"/>
	</defs>
	<clipPath id="SVGID_12_">
		<use xlink:href="#SVGID_11_"  style="overflow:visible;"/>
	</clipPath>
	<path class="st6" d="M-227.9,399.5c-0.1,0-0.2,0-0.3,0c-0.2-0.6-0.4-1.1-0.6-1.8c-0.3,0.5-0.4,1.3-0.7,1.8c-0.1,0-0.2,0-0.3,0
		c-0.4,0-1.2-0.1-1.6,0c0,0,0,0,0.1,0c0.5,0.3,1,0.7,1.4,1.1c-0.1,0.6-0.5,1.2-0.5,1.7c0.5-0.4,1-0.8,1.5-1.1c0.5,0.4,1,0.7,1.5,1.1
		c-0.2-0.6-0.4-1.1-0.6-1.8c0.5-0.4,0.9-0.7,1.4-1c0,0,0,0,0.1,0C-226.7,399.4-227.5,399.5-227.9,399.5z"/>
</g>
<g>
	<defs>
		<path id="SVGID_13_" d="M-204,420H-262c-3.8,0-7-3.1-7-7V381c0-3.8,3.1-7,7-7h58.1c3.8,0,7,3.1,7,7V413
			C-197,416.9-200.1,420-204,420z"/>
	</defs>
	<clipPath id="SVGID_14_">
		<use xlink:href="#SVGID_13_"  style="overflow:visible;"/>
	</clipPath>
	<path class="st7" d="M-207.9,399.6c-0.1,0-0.1,0-0.2,0c-0.2-0.6-0.3-1.2-0.6-1.8c-0.2,0.6-0.3,1.3-0.6,1.8c0,0-0.1,0-0.1,0
		c-0.5-0.1-1.4-0.1-1.7,0c0.5,0.4,1.1,0.7,1.5,1.1c-0.2,0.6-0.5,1.2-0.6,1.8c0.5-0.4,1-0.8,1.5-1.1c0.5,0.3,1,0.7,1.5,1.1
		c-0.2-0.6-0.4-1.1-0.6-1.8c0.5-0.4,1-0.7,1.5-1.1c0,0,0.1-0.1,0-0.1C-206.6,399.4-207.5,399.6-207.9,399.6z"/>
</g>
<g>
	<defs>
		<path id="SVGID_15_" d="M-204,420H-262c-3.8,0-7-3.1-7-7V381c0-3.8,3.1-7,7-7h58.1c3.8,0,7,3.1,7,7V413
			C-197,416.9-200.1,420-204,420z"/>
	</defs>
	<clipPath id="SVGID_16_">
		<use xlink:href="#SVGID_15_"  style="overflow:visible;"/>
	</clipPath>
	<path class="st8" d="M-222.8,412c-0.3,0-0.6,0-0.9,0c-0.2-0.6-0.3-1.2-0.6-1.8c-0.2,0.6-0.3,1.2-0.6,1.8c-0.3,0-0.5,0-0.8,0
		c-0.2-0.1-0.9-0.1-1,0c0.5,0.4,1.1,0.7,1.5,1.1c-0.2,0.6-0.4,1.2-0.6,1.8c0.5-0.3,1-0.8,1.5-1.1c0.5,0.3,1,0.7,1.5,1.1
		c-0.2-0.6-0.4-1.1-0.6-1.7c0.4-0.4,0.9-0.7,1.4-1.1c0,0,0,0,0.1,0C-221.9,411.9-222.5,411.9-222.8,412z"/>
</g>
<g>
	<defs>
		<path id="SVGID_17_" d="M-204,420H-262c-3.8,0-7-3.1-7-7V381c0-3.8,3.1-7,7-7h58.1c3.8,0,7,3.1,7,7V413
			C-197,416.9-200.1,420-204,420z"/>
	</defs>
	<clipPath id="SVGID_18_">
		<use xlink:href="#SVGID_17_"  style="overflow:visible;"/>
	</clipPath>
	<path class="st9" d="M-212.7,411.9c-0.2-0.6-0.4-1.2-0.6-1.8c-0.2,0.6-0.4,1.2-0.6,1.8c-0.6,0-1.3,0-1.9,0c0,0,0,0.1,0,0.1
		c0.5,0.4,1,0.7,1.5,1.1c-0.2,0.6-0.4,1.1-0.6,1.7c0.6-0.3,1-0.8,1.5-1.1c0.5,0.3,1,0.8,1.5,1c-0.2-0.6-0.4-1.1-0.6-1.7
		c0.5-0.4,1-0.7,1.5-1.1C-211.2,411.9-212.1,411.9-212.7,411.9z"/>
</g>
<g>
	<defs>
		<path id="SVGID_19_" d="M-204,420H-262c-3.8,0-7-3.1-7-7V381c0-3.8,3.1-7,7-7h58.1c3.8,0,7,3.1,7,7V413
			C-197,416.9-200.1,420-204,420z"/>
	</defs>
	<clipPath id="SVGID_20_">
		<use xlink:href="#SVGID_19_"  style="overflow:visible;"/>
	</clipPath>
	<path class="st10" d="M-218.3,416.1c-0.2-0.6-0.3-1.2-0.6-1.7c-0.1,0.6-0.3,1.1-0.5,1.7c-0.2,0.2-0.6,0-0.9,0.1c-0.3,0-0.8,0-1.1,0
		c0.1,0,0.1,0.1,0.1,0.1c0.5,0.4,1,0.6,1.4,1.1c-0.1,0.6-0.5,1.2-0.5,1.7c0.5-0.4,0.9-0.8,1.5-1.1c0.5,0.3,1,0.7,1.5,1.1
		c-0.2-0.6-0.4-1.1-0.6-1.8c0.4-0.4,0.9-0.7,1.4-1c0,0,0.1,0,0.1,0c-0.1-0.2-0.7,0-1-0.1C-217.7,416.1-218.1,416.2-218.3,416.1z"/>
</g>
</svg>
