<?xml version="1.0" encoding="utf-8"?>
<!-- Generator: Adobe Illustrator 19.0.0, SVG Export Plug-In . SVG Version: 6.00 Build 0)  -->
<svg version="1.1" id="Layer_1" xmlns="http://www.w3.org/2000/svg" xmlns:xlink="http://www.w3.org/1999/xlink" x="0px" y="0px"
	 viewBox="-269 374 72 46" style="enable-background:new -269 374 72 46;" xml:space="preserve">
<style type="text/css">
	.st0{clip-path:url(#SVGID_2_);}
	.st1{fill:#009E59;}
	.st2{fill:#FFE247;}
	.st3{fill:#E40520;}
	.st4{fill:#FFFFFF;}
</style>
<g>
	<defs>
		<path id="SVGID_1_" d="M-204,420H-262c-3.8,0-7-3.1-7-7V381c0-3.8,3.1-7,7-7h58.1c3.8,0,7,3.1,7,7V413
			C-197,416.9-200.1,420-204,420z"/>
	</defs>
	<clipPath id="SVGID_2_">
		<use xlink:href="#SVGID_1_"  style="overflow:visible;"/>
	</clipPath>
	<g class="st0">
		<g>
			<polygon class="st1" points="-270,373.6 -190.8,373.6 -190.8,421.1 -270,421.1 			"/>
		</g>
		<g>
			<path d="M-190.6,421.3h-79.5v-47.8h79.5V421.3z M-269.9,421h79v-47.3h-79V421z"/>
		</g>
		<g>
			<polygon class="st2" points="-190.8,392.6 -241.5,392.6 -241.5,383.1 -190.8,383.1 			"/>
		</g>
		<g>
			<path d="M-190.6,392.7h-51V383h51V392.7z M-241.3,392.5h50.5v-9.3h-50.5V392.5z"/>
		</g>
		<g>
			<polygon class="st2" points="-190.8,411.6 -270,411.6 -270,402.1 -190.8,402.1 			"/>
		</g>
		<g>
			<path d="M-190.6,411.8h-79.5V402h79.5V411.8z M-269.9,411.5h79v-9.3h-79V411.5z"/>
		</g>
		<g>
			<polygon class="st3" points="-241.5,402.1 -241.5,373.6 -270,373.6 -270,402.1 			"/>
		</g>
		<g>
			<path d="M-241.3,402.3h-28.8v-28.8h28.8V402.3z M-269.9,402h28.3v-28.3h-28.3V402z"/>
		</g>
		<g>
			<polygon class="st4" points="-255.7,379.1 -257.7,385.2 -264.1,385.2 -258.9,388.9 -260.9,395 -255.7,391.2 -250.6,395 
				-252.6,388.9 -247.4,385.2 -253.8,385.2 			"/>
		</g>
		<g>
			<path d="M-261,395.2l2-6.2l-5.3-3.9h6.6l2-6.2l0.1,0.2l2,6h6.5l-5.3,3.8l2,6.2l-0.2-0.1l-5.1-3.7L-261,395.2z M-255.7,391.1
				L-255.7,391.1l5,3.7l-1.9-6l0,0l5-3.6h-6.2l0,0l-1.9-5.9l-1.9,5.9h-6.3l5.1,3.7l0,0l-1.9,5.9L-255.7,391.1z"/>
		</g>
	</g>
</g>
</svg>
