<?xml version="1.0" encoding="utf-8"?>
<!-- Generator: Adobe Illustrator 19.0.0, SVG Export Plug-In . SVG Version: 6.00 Build 0)  -->
<svg version="1.1" id="Layer_1" xmlns="http://www.w3.org/2000/svg" xmlns:xlink="http://www.w3.org/1999/xlink" x="0px" y="0px"
	 viewBox="-269 374 72 46" style="enable-background:new -269 374 72 46;" xml:space="preserve">
<style type="text/css">
	.st0{clip-path:url(#SVGID_2_);}
	.st1{fill:#E62644;}
	.st2{fill:#65B32E;}
	.st3{fill:#FFFFFF;}
	.st4{fill:#F6D200;}
</style>
<g>
	<defs>
		<path id="SVGID_1_" d="M-204,420H-262c-3.8,0-7-3.1-7-7V381c0-3.8,3.1-7,7-7h58.1c3.8,0,7,3.1,7,7V413
			C-197,416.9-200.1,420-204,420z"/>
	</defs>
	<clipPath id="SVGID_2_">
		<use xlink:href="#SVGID_1_"  style="overflow:visible;"/>
	</clipPath>
	<g class="st0">
		<g>
			<polygon class="st1" points="-184.8,386.5 -281.3,386.5 -281.3,372.7 -184.8,372.7 			"/>
		</g>
		<g>
			<path d="M-184.6,386.6h-96.8v-14h96.8V386.6z M-281.1,386.4h96.3v-13.5h-96.3V386.4z"/>
		</g>
		<g>
			<polygon class="st2" points="-184.8,421 -281.3,421 -281.3,407.2 -184.8,407.2 			"/>
		</g>
		<g>
			<path d="M-184.6,421.1h-96.8v-14h96.8V421.1z M-281.1,420.9h96.3v-13.5h-96.3V420.9z"/>
		</g>
		<g>
			<polygon class="st3" points="-281.3,407.2 -184.8,407.2 -184.8,386.5 -281.3,386.5 			"/>
		</g>
		<g>
			<path d="M-184.6,407.3h-96.8v-20.9h96.8V407.3z M-281.1,407.1h96.3v-20.4h-96.3V407.1z"/>
		</g>
		<g>
			<polygon class="st4" points="-233,388 -233.3,388.9 -234.3,388.9 -233.4,389.5 -233.8,390.4 -233,389.8 -232.2,390.4 
				-232.6,389.5 -231.7,388.9 -232.7,388.9 			"/>
		</g>
		<g>
			<path d="M-233.9,390.5l0.4-1l-0.9-0.6h1.1l0.3-1l0.3,1h1.1l-0.9,0.6l0.4,1l-0.9-0.7L-233.9,390.5z M-233,389.8l0.7,0.6l-0.3-0.9
				l0,0l0.8-0.5h-0.9l0,0l-0.2-0.8l-0.2,0.9h-0.9l0.8,0.5l0,0l-0.3,0.8L-233,389.8z"/>
		</g>
		<g>
			<polygon class="st4" points="-237.6,389.3 -237.9,390.2 -238.9,390.2 -238.1,390.8 -238.4,391.7 -237.6,391.1 -236.8,391.7 
				-237.2,390.8 -236.3,390.2 -237.4,390.2 			"/>
		</g>
		<g>
			<path d="M-238.5,391.8l0.4-1l-0.9-0.6h1.1l0.3-1l0.3,1h1.1l-0.9,0.6l0.4,1l-0.9-0.7L-238.5,391.8z M-237.6,391l0.7,0.6l-0.3-0.9
				l0,0l0.8-0.5h-0.9l0,0l-0.2-0.8l-0.2,0.9h-0.9l0.8,0.5l0,0l-0.3,0.8L-237.6,391z"/>
		</g>
		<g>
			<polygon class="st4" points="-240.9,392.8 -241.2,393.7 -242.2,393.7 -241.4,394.2 -241.7,395.2 -240.9,394.6 -240.1,395.2 
				-240.5,394.2 -239.7,393.7 -240.7,393.7 			"/>
		</g>
		<g>
			<path d="M-241.8,395.3l0.4-1l-0.9-0.6h1.1l0.3-1l0.3,1h1.1l-0.9,0.6l0.4,1l-0.9-0.7L-241.8,395.3z M-240.9,394.5l0.7,0.6
				l-0.3-0.9l0,0l0.8-0.5h-0.9l0,0l-0.2-0.8l-0.2,0.9h-0.9l0.8,0.5l0,0l-0.3,0.8L-240.9,394.5z"/>
		</g>
		<g>
			<polygon class="st4" points="-242,397.5 -242.2,398.4 -243.2,398.4 -242.4,398.9 -242.8,399.9 -242,399.2 -241.2,399.9 
				-241.5,398.9 -240.7,398.4 -241.7,398.4 			"/>
		</g>
		<g>
			<path d="M-242.8,400l0.4-1l-0.9-0.6h1.1l0.3-1l0.3,1h1.1l-0.9,0.6l0.4,1l-0.9-0.7L-242.8,400z M-242,399.2l0.7,0.6l-0.3-0.9l0,0
				l0.8-0.5h-0.9l0,0l-0.2-0.8l-0.2,0.9h-0.9l0.8,0.5l0,0l-0.3,0.8L-242,399.2z"/>
		</g>
		<g>
			<path class="st4" d="M-233,403.4c0.5,0,0.8-0.4,1-0.5c0.2-0.1,0.2-0.1,0-0.2c-0.1,0-0.4-0.1-0.6,0c0-0.2-0.2-0.8-0.4-1
				c-0.2,0.2-0.4,0.8-0.4,1c-0.2-0.1-0.5,0-0.6,0c-0.2,0.1-0.2,0.1,0,0.2C-233.8,403-233.5,403.4-233,403.4L-233,403.4z"/>
		</g>
		<g>
			<path d="M-233,403.4c-0.4,0-0.6-0.2-0.8-0.4c-0.1-0.1-0.1-0.1-0.2-0.1c-0.1,0-0.1-0.1-0.1-0.1c0-0.1,0.1-0.1,0.2-0.1
				c0.1,0,0.4-0.1,0.6,0c0-0.2,0.2-0.7,0.4-1l0,0l0,0c0.1,0.2,0.4,0.7,0.4,1c0.2,0,0.5,0,0.6,0c0.1,0,0.2,0.1,0.2,0.1
				c0,0.1,0,0.1-0.1,0.1c0,0-0.1,0.1-0.2,0.1C-232.3,403.2-232.6,403.4-233,403.4z M-233.7,402.8c-0.1,0-0.3,0-0.3,0
				c-0.1,0-0.1,0.1-0.1,0.1c0,0,0,0,0.1,0.1c0.1,0,0.1,0.1,0.2,0.1c0.2,0.1,0.5,0.3,0.8,0.3c0.3,0,0.6-0.2,0.8-0.3
				c0.1-0.1,0.1-0.1,0.2-0.1c0.1,0,0.1-0.1,0.1-0.1c0,0,0,0-0.1-0.1c-0.1,0-0.4-0.1-0.6,0l0,0l0,0c0-0.2-0.2-0.7-0.3-0.9
				c-0.1,0.3-0.3,0.7-0.3,0.9l0,0l0,0C-233.4,402.8-233.6,402.8-233.7,402.8z"/>
		</g>
		<g>
			<path class="st4" d="M-236.9,403.9c0.5-0.1,0.8-0.5,0.9-0.6c0.1-0.1,0.2-0.2,0-0.2c-0.1,0-0.5,0-0.6,0.1c0-0.2-0.3-0.7-0.5-0.9
				c-0.1,0.3-0.3,0.8-0.2,1c-0.2,0-0.5,0-0.6,0.1c-0.2,0.1-0.1,0.2,0,0.2C-237.8,403.6-237.4,404-236.9,403.9L-236.9,403.9z"/>
		</g>
		<g>
			<path d="M-237.1,403.9c-0.3,0-0.6-0.1-0.7-0.2c-0.1,0-0.2-0.1-0.2-0.1c-0.1,0-0.2-0.1-0.2-0.1c0-0.1,0-0.1,0.1-0.1
				c0.1,0,0.4-0.1,0.6-0.1c0-0.2,0.1-0.8,0.2-1l0,0l0,0c0.2,0.2,0.5,0.7,0.5,0.9c0.2-0.1,0.5-0.1,0.6-0.1c0.1,0,0.2,0.1,0.2,0.1
				s0,0.1-0.1,0.1c0,0-0.1,0.1-0.2,0.1c-0.2,0.2-0.4,0.4-0.8,0.5C-237,403.9-237,403.9-237.1,403.9z M-237.5,403.3
				c-0.2,0-0.4,0.1-0.5,0.1c-0.1,0-0.1,0.1-0.1,0.1s0,0,0.1,0c0.1,0,0.1,0,0.2,0.1c0.2,0.1,0.4,0.2,0.7,0.2c0,0,0.1,0,0.1,0l0,0
				c0.3-0.1,0.6-0.3,0.7-0.5c0.1-0.1,0.1-0.1,0.2-0.2c0.1,0,0.1-0.1,0.1-0.1c0,0,0,0-0.1,0c-0.1,0-0.4,0-0.6,0.1l0,0l0,0
				c0-0.2-0.3-0.6-0.5-0.9c-0.1,0.3-0.2,0.8-0.2,1l0,0L-237.5,403.3C-237.4,403.3-237.4,403.3-237.5,403.3z"/>
		</g>
		<g>
			<path class="st4" d="M-233,399.3c0.5,2.3,2.6,3.9,4.4,1.4c0.5,2.8,3.1,2.7,3.9,1c-1.4,0.8-3.1,0.4-3.9-1.3
				c-1.1,1.2-3.1,0.6-3.8-0.6c-0.7-1.1-0.5-3.4-0.2-3.9c0.3-0.5,1.1-0.5,1.4,0c0.2-1.3-0.7-2.2-1.9-2.2c-1.2,0-2,0.9-1.9,2.2
				c0.4-0.5,1.1-0.5,1.4,0c0.3,0.5,0.4,2.7-0.2,3.9c-0.7,1.1-2.7,1.8-3.8,0.6c-0.8,1.7-2.5,2.1-3.9,1.3c0.8,1.7,3.4,1.7,3.9-1
				C-235.6,403.2-233.5,401.6-233,399.3L-233,399.3z"/>
		</g>
		<g>
			<path d="M-239.5,402.9c-0.8,0-1.5-0.5-1.8-1.2l0-0.1l0.1,0c0.7,0.4,1.5,0.5,2.2,0.3c0.7-0.2,1.3-0.8,1.7-1.5l0,0l0,0
				c0.4,0.4,0.9,0.7,1.5,0.7c0.1,0,0.2,0,0.3,0c0.8-0.1,1.6-0.6,2-1.2c0.7-1.2,0.5-3.4,0.2-3.9c-0.1-0.2-0.3-0.3-0.6-0.4
				c-0.3,0-0.6,0.1-0.8,0.3l0,0.1l0-0.1c-0.1-0.6,0.1-1.2,0.4-1.6c0.3-0.4,0.9-0.6,1.5-0.6c0.6,0,1.1,0.2,1.5,0.6
				c0.4,0.4,0.5,1,0.4,1.6l0,0.1l0-0.1c-0.2-0.2-0.4-0.3-0.7-0.3c0,0,0,0-0.1,0c-0.3,0-0.5,0.2-0.6,0.4c-0.3,0.5-0.4,2.7,0.2,3.9
				c0.4,0.6,1.2,1.1,2,1.2c0.1,0,0.2,0,0.3,0c0.6,0,1.1-0.2,1.5-0.7l0,0l0,0c0.4,0.8,1,1.3,1.7,1.5c0.7,0.2,1.5,0.1,2.2-0.3l0.1,0
				l0,0.1c-0.4,0.7-1.1,1.2-1.8,1.2c-0.1,0-0.2,0-0.3,0c-0.9-0.1-1.6-0.9-1.9-2.1c-0.9,1.2-1.8,1.4-2.3,1.2c-0.9-0.2-1.7-1.2-2-2.5
				c-0.3,1.3-1.1,2.3-2,2.5c-0.6,0.1-1.4,0-2.3-1.2c-0.2,1.2-0.9,2-1.9,2.1C-239.4,402.9-239.4,402.9-239.5,402.9z M-241.3,401.7
				c0.4,0.7,1.2,1.2,2,1.1c0.9-0.1,1.6-0.9,1.8-2.2l0-0.1l0,0.1c0.9,1.3,1.8,1.4,2.3,1.3c0.9-0.2,1.7-1.3,2-2.6h0.1
				c0.3,1.4,1.1,2.4,2,2.6c0.6,0.1,1.4,0,2.3-1.3l0-0.1l0,0.1c0.2,1.2,0.9,2,1.8,2.2c0.8,0.1,1.6-0.3,2-1.1
				c-0.7,0.4-1.4,0.4-2.1,0.2c-0.7-0.2-1.3-0.8-1.7-1.5c-0.5,0.5-1.1,0.7-1.8,0.6c-0.8-0.1-1.6-0.6-2-1.2c-0.7-1.1-0.6-3.4-0.2-3.9
				c0.1-0.2,0.4-0.4,0.7-0.4c0.3,0,0.6,0.1,0.8,0.3c0.1-0.6-0.1-1.1-0.4-1.5c-0.3-0.4-0.8-0.6-1.4-0.6s-1.1,0.2-1.4,0.6
				c-0.3,0.4-0.5,0.9-0.4,1.5c0.2-0.2,0.4-0.3,0.7-0.3c0,0,0,0,0.1,0c0.3,0,0.5,0.2,0.7,0.4c0.3,0.5,0.4,2.8-0.2,3.9
				c-0.4,0.6-1.2,1.1-2,1.2c-0.7,0.1-1.3-0.1-1.8-0.6c-0.4,0.8-1,1.3-1.7,1.5C-239.8,402.1-240.6,402.1-241.3,401.7z"/>
		</g>
		<g>
			<path class="st4" d="M-233,404.1c2,0,5.1,0.5,6.3,0.9l-0.2,0.8c-1.3-0.4-4.3-0.8-6.2-0.8c-1.9,0-4.8,0.5-6.2,0.8l-0.2-0.8
				C-238.1,404.6-235,404.1-233,404.1L-233,404.1z"/>
		</g>
		<g>
			<path d="M-226.8,405.8L-226.8,405.8c-1.4-0.4-4.3-0.9-6.2-0.9c-1.9,0-4.8,0.5-6.1,0.8l0,0l-0.2-0.8l0,0c1.2-0.4,4.4-0.9,6.3-0.9
				c1.9,0,5.1,0.5,6.3,0.9l0,0l0,0L-226.8,405.8z M-233,404.9c1.8,0,4.8,0.4,6.1,0.8l0.2-0.7c-1.2-0.4-4.4-0.9-6.3-0.9
				c-1.9,0-5,0.5-6.3,0.9l0.2,0.7C-237.8,405.3-234.9,404.9-233,404.9z"/>
		</g>
		<g>
			<polygon class="st4" points="-228.4,389.3 -228.1,390.2 -227.1,390.2 -227.9,390.8 -227.6,391.7 -228.4,391.1 -229.2,391.7 
				-228.8,390.8 -229.6,390.2 -228.6,390.2 			"/>
		</g>
		<g>
			<path d="M-227.5,391.8l-0.9-0.7l-0.9,0.7l0.4-1l-0.9-0.6h1.1l0.3-1l0.3,1h1.1l-0.9,0.6L-227.5,391.8z M-229.5,390.3l0.8,0.5l0,0
				l-0.3,0.8l0.7-0.6l0.7,0.6l-0.3-0.9l0,0l0.8-0.5h-0.9l0,0l-0.2-0.8l-0.2,0.9H-229.5z"/>
		</g>
		<g>
			<polygon class="st4" points="-225.1,392.8 -224.8,393.7 -223.8,393.7 -224.6,394.2 -224.3,395.2 -225.1,394.6 -225.8,395.2 
				-225.5,394.2 -226.3,393.7 -225.3,393.7 			"/>
		</g>
		<g>
			<path d="M-224.2,395.3l-0.9-0.7l-0.9,0.7l0.4-1l-0.9-0.6h1.1l0.3-1l0,0.1l0.3,0.9h1.1l-0.9,0.6L-224.2,395.3z M-226.2,393.7
				l0.8,0.5l0,0l-0.3,0.8l0.7-0.6l0.7,0.6l-0.3-0.9l0,0l0.8-0.5h-0.9l0,0l-0.2-0.8l-0.2,0.9H-226.2z"/>
		</g>
		<g>
			<polygon class="st4" points="-224,397.5 -223.8,398.4 -222.7,398.4 -223.6,398.9 -223.2,399.9 -224,399.2 -224.8,399.9 
				-224.5,398.9 -225.3,398.4 -224.3,398.4 			"/>
		</g>
		<g>
			<path d="M-223.2,400l-0.9-0.7l-0.9,0.7l0.4-1l-0.9-0.6h1.1l0.3-1l0.3,1h1.1l-0.9,0.6L-223.2,400z M-225.2,398.4l0.8,0.5l-0.3,0.9
				l0.7-0.6l0.7,0.6l-0.3-0.9l0,0l0.8-0.5h-0.9l0,0l-0.2-0.8l-0.2,0.9H-225.2z"/>
		</g>
		<g>
			<path class="st4" d="M-229.1,403.9c-0.5-0.1-0.8-0.5-0.9-0.6c-0.1-0.1-0.2-0.2,0-0.2c0.1,0,0.5,0,0.6,0.1c0-0.2,0.3-0.7,0.5-0.9
				c0.1,0.3,0.3,0.8,0.2,1c0.2,0,0.5,0,0.6,0.1c0.2,0.1,0.1,0.2,0,0.2C-228.2,403.6-228.6,404-229.1,403.9L-229.1,403.9z"/>
		</g>
		<g>
			<path d="M-228.9,403.9c0,0-0.1,0-0.1,0l0,0c-0.4-0.1-0.6-0.3-0.8-0.5c-0.1-0.1-0.1-0.1-0.2-0.1c-0.1,0-0.1-0.1-0.1-0.1
				s0.1-0.1,0.2-0.1c0.1,0,0.4,0,0.6,0.1c0.1-0.2,0.3-0.7,0.5-0.9l0,0l0,0c0.1,0.3,0.2,0.8,0.2,1c0.2,0,0.5,0.1,0.6,0.1
				c0.1,0,0.1,0.1,0.1,0.1c0,0.1-0.1,0.1-0.2,0.1c0,0-0.1,0-0.2,0.1C-228.4,403.8-228.6,403.9-228.9,403.9z M-229.9,403.1
				C-229.9,403.1-229.9,403.1-229.9,403.1c-0.2,0-0.2,0-0.2,0.1c0,0,0,0,0.1,0.1c0,0,0.1,0.1,0.2,0.2c0.2,0.2,0.4,0.4,0.7,0.5l0,0
				c0.3,0.1,0.6-0.1,0.8-0.2c0.1,0,0.2-0.1,0.2-0.1c0.1,0,0.1,0,0.1,0c0,0,0,0-0.1-0.1c-0.1,0-0.4-0.1-0.6-0.1l0,0l0,0
				c0-0.2-0.1-0.7-0.2-1c-0.2,0.2-0.5,0.7-0.5,0.9l0,0l0,0C-229.5,403.1-229.7,403.1-229.9,403.1z"/>
		</g>
		<g>
			<path class="st3" d="M-233,395.9c0.1-0.6,1.1-0.9,1.5-0.6c-0.1-0.6-0.5-1.3-1.5-1.3c-1,0-1.4,0.6-1.5,1.3
				C-234.1,395-233.1,395.3-233,395.9L-233,395.9z"/>
		</g>
		<g>
			<path d="M-233,395.9L-233,395.9c-0.1-0.2-0.4-0.5-0.7-0.6c-0.3-0.1-0.7-0.1-0.9,0l-0.1,0l0-0.1c0.1-0.4,0.4-1.3,1.6-1.3
				c1.2,0,1.5,0.9,1.5,1.3l0,0.1l-0.1,0c-0.2-0.1-0.5-0.2-0.9,0C-232.7,395.4-232.9,395.6-233,395.9z M-234.1,395.1
				c0.1,0,0.3,0,0.5,0.1c0.3,0.1,0.5,0.3,0.6,0.5c0.1-0.2,0.3-0.4,0.6-0.5c0.3-0.1,0.6-0.1,0.9,0c-0.1-0.4-0.4-1.2-1.5-1.2
				c-1.1,0-1.4,0.8-1.5,1.2C-234.4,395.2-234.2,395.1-234.1,395.1z"/>
		</g>
	</g>
</g>
</svg>
