<?xml version="1.0" encoding="utf-8"?>
<!-- Generator: Adobe Illustrator 19.0.0, SVG Export Plug-In . SVG Version: 6.00 Build 0)  -->
<svg version="1.1" id="Layer_1" xmlns="http://www.w3.org/2000/svg" xmlns:xlink="http://www.w3.org/1999/xlink" x="0px" y="0px"
	 viewBox="-269 374 72 46" style="enable-background:new -269 374 72 46;" xml:space="preserve">
<style type="text/css">
	.st0{clip-path:url(#SVGID_2_);fill:#020266;}
	.st1{clip-path:url(#SVGID_4_);}
	.st2{fill:#FFFFFF;}
	.st3{clip-path:url(#SVGID_6_);fill:#FFCC01;}
</style>
<g>
	<defs>
		<path id="SVGID_1_" d="M-204,420H-262c-3.8,0-7-3.1-7-7V381c0-3.8,3.1-7,7-7h58.1c3.8,0,7,3.1,7,7V413
			C-197,416.9-200.1,420-204,420z"/>
	</defs>
	<clipPath id="SVGID_2_">
		<use xlink:href="#SVGID_1_"  style="overflow:visible;"/>
	</clipPath>
	<rect id="rect8" x="-269.6" y="371.9" class="st0" width="73.3" height="48.9"/>
</g>
<g>
	<defs>
		<path id="SVGID_3_" d="M-250.2,404.1H-281c-2,0-3.7-2.2-3.7-4.9v-22.7c0-2.7,1.7-4.9,3.7-4.9h30.9c2,0,3.7,2.2,3.7,4.9v22.7
			C-246.5,401.9-248.1,404.1-250.2,404.1z"/>
	</defs>
	<clipPath id="SVGID_4_">
		<use xlink:href="#SVGID_3_"  style="overflow:visible;"/>
	</clipPath>
	<g id="g3240" transform="matrix(0.53117512,0,0,0.7082335,-15.714152,-2.4349284)" class="st1">
		<path id="path11001" class="st2" d="M-461.6,536h2.8l0.9-2.7l0.9,2.7h2.8l-2.3,1.7l0.9,2.7l-2.3-1.7l-2.3,1.7l0.9-2.7L-461.6,536z
			"/>
		<path id="path2185" class="st2" d="M-472.9,547.4h2.8l0.9-2.7l0.9,2.7h2.8l-2.3,1.7l0.9,2.7l-2.3-1.7l-2.3,1.7l0.9-2.7
			L-472.9,547.4z"/>
		<path id="path2191" class="st2" d="M-451.5,544.5h2.5l0.8-2.4l0.8,2.4h2.5l-2,1.5l0.8,2.4l-2-1.5l-2,1.5l0.8-2.4L-451.5,544.5
			L-451.5,544.5z"/>
		<path id="path2197" class="st2" d="M-462,565.2h3.1l1-3l1,3h3.1l-2.5,1.8l1,3l-2.5-1.8l-2.5,1.8l1-3L-462,565.2z"/>
	</g>
</g>
<g>
	<defs>
		<path id="SVGID_5_" d="M-204,420H-262c-3.8,0-7-3.1-7-7V381c0-3.8,3.1-7,7-7h58.1c3.8,0,7,3.1,7,7V413
			C-197,416.9-200.1,420-204,420z"/>
	</defs>
	<clipPath id="SVGID_6_">
		<use xlink:href="#SVGID_5_"  style="overflow:visible;"/>
	</clipPath>
	<path id="path3248" class="st3" d="M-269.6,420.8c23.5-15.7,33.4-35.1,58.7-48.9l0,0c-6.9,11.6-5.5,37.9,14.6,48.7L-269.6,420.8z"
		/>
</g>
</svg>
