<?xml version="1.0" encoding="utf-8"?>
<!-- Generator: Adobe Illustrator 19.0.0, SVG Export Plug-In . SVG Version: 6.00 Build 0)  -->
<svg version="1.1" id="Layer_1" xmlns="http://www.w3.org/2000/svg" xmlns:xlink="http://www.w3.org/1999/xlink" x="0px" y="0px"
	 viewBox="-269 374 72 46" style="enable-background:new -269 374 72 46;" xml:space="preserve">
<style type="text/css">
	.st0{clip-path:url(#SVGID_2_);}
	.st1{clip-path:url(#SVGID_7_);}
	.st2{clip-path:url(#SVGID_8_);}
	.st3{clip-path:url(#SVGID_9_);}
	.st4{clip-path:url(#SVGID_10_);fill:#D51C17;}
	.st5{clip-path:url(#SVGID_10_);fill:#FEC800;}
	.st6{clip-path:url(#SVGID_10_);fill:#1D1D1B;}
	.st7{clip-path:url(#SVGID_10_);fill:#FFFFFF;}
</style>
<g>
	<defs>
		<path id="SVGID_1_" d="M-204,420H-262c-3.8,0-7-3.1-7-7V381c0-3.8,3.1-7,7-7h58.1c3.8,0,7,3.1,7,7V413
			C-197,416.9-200.1,420-204,420z"/>
	</defs>
	<clipPath id="SVGID_2_">
		<use xlink:href="#SVGID_1_"  style="overflow:visible;"/>
	</clipPath>
	<g class="st0">
		<g>
			<g>
				<defs>
					<rect id="SVGID_3_" x="-269.4" y="373.1" width="92.4" height="46.9"/>
				</defs>
				<defs>
					<rect id="SVGID_4_" x="-269.4" y="373.1" width="92.4" height="46.9"/>
				</defs>
				<defs>
					<rect id="SVGID_5_" x="-269.4" y="373.1" width="92.4" height="46.9"/>
				</defs>
				<defs>
					<rect id="SVGID_6_" x="-269.4" y="373.1" width="92.4" height="46.9"/>
				</defs>
				<clipPath id="SVGID_7_">
					<use xlink:href="#SVGID_3_"  style="overflow:visible;"/>
				</clipPath>
				<clipPath id="SVGID_8_" class="st1">
					<use xlink:href="#SVGID_4_"  style="overflow:visible;"/>
				</clipPath>
				<clipPath id="SVGID_9_" class="st2">
					<use xlink:href="#SVGID_5_"  style="overflow:visible;"/>
				</clipPath>
				<clipPath id="SVGID_10_" class="st3">
					<use xlink:href="#SVGID_6_"  style="overflow:visible;"/>
				</clipPath>
				<rect x="-269.4" y="373.1" class="st4" width="92.4" height="46.9"/>
				<polygon class="st5" points="-269.4,373.1 -269.4,420 -223.2,396.6 				"/>
				<polygon class="st6" points="-269.4,373.1 -269.4,420 -246.4,396.6 				"/>
				<polygon class="st7" points="-259.1,393.7 -254.2,391.7 -256.9,396.3 -253.5,400.4 -258.7,399.1 -261.5,403.8 -262,398.3 
					-267.1,397.1 -262.2,395.1 -262.7,389.7 				"/>
			</g>
		</g>
	</g>
</g>
</svg>
