<?xml version="1.0" encoding="utf-8"?>
<!-- Generator: Adobe Illustrator 19.0.0, SVG Export Plug-In . SVG Version: 6.00 Build 0)  -->
<svg version="1.1" id="Layer_1" xmlns="http://www.w3.org/2000/svg" xmlns:xlink="http://www.w3.org/1999/xlink" x="0px" y="0px"
	 viewBox="-269 374 72 46" style="enable-background:new -269 374 72 46;" xml:space="preserve">
<style type="text/css">
	.st0{clip-path:url(#SVGID_2_);}
	.st1{fill:#008E5B;}
	.st2{fill:#90185A;}
	.st3{fill:#F49800;}
	.st4{fill:#FFFFFF;}
	.st5{fill:none;}
</style>
<g>
	<defs>
		<path id="SVGID_1_" d="M-204,420H-262c-3.8,0-7-3.1-7-7V381c0-3.8,3.1-7,7-7h58.1c3.8,0,7,3.1,7,7V413
			C-197,416.9-200.1,420-204,420z"/>
	</defs>
	<clipPath id="SVGID_2_">
		<use xlink:href="#SVGID_1_"  style="overflow:visible;"/>
	</clipPath>
	<g class="st0">
		<g>
			<polygon class="st1" points="-173.6,421 -173.6,372.9 -269.9,372.9 -269.9,421 			"/>
		</g>
		<g>
			<path d="M-173.5,421.1H-270v-48.4h96.5V421.1z M-269.8,420.9h96V373h-96V420.9z"/>
		</g>
		<g>
			<polygon class="st2" points="-248.5,421 -248.5,372.9 -264.5,372.9 -264.5,421 			"/>
		</g>
		<g>
			<path d="M-248.4,421.1h-16.3v-48.4h16.3V421.1z M-264.4,420.9h15.8V373h-15.8V420.9z"/>
		</g>
		<g>
			<polygon class="st3" points="-256.5,383.8 -256.1,384.2 -255.6,383.9 -255.6,385.7 -255.5,385.7 -255.5,384.9 -254.3,384.9 
				-254.3,386.1 -254.2,386.2 -254.2,385.5 -253,385.5 -253,386.5 -252.8,386.5 -252.8,386.1 -251.5,386.1 -251.5,386.7 -251,386.7 
				-251.4,387.3 -251,387.9 -251.5,387.9 -251.5,388.6 -252.8,388.6 -252.8,388.1 -253,388.1 -253,389.2 -254.2,389.2 -254.2,388.5 
				-254.3,388.6 -254.3,389.7 -255.5,389.7 -255.5,389 -255.6,389 -255.6,390.7 -256.1,390.5 -256.5,390.9 -256.9,390.5 
				-257.4,390.7 -257.4,389 -257.5,389 -257.5,389.7 -258.7,389.7 -258.7,388.6 -258.8,388.5 -258.8,389.2 -260.1,389.2 
				-260.1,388.1 -260.2,388.1 -260.2,388.6 -261.5,388.6 -261.5,387.9 -262,387.9 -261.7,387.3 -262,386.7 -261.5,386.7 
				-261.5,386.1 -260.2,386.1 -260.2,386.5 -260.1,386.5 -260.1,385.5 -258.8,385.5 -258.8,386.2 -258.7,386.1 -258.7,384.9 
				-257.5,384.9 -257.5,385.7 -257.4,385.7 -257.4,383.9 -256.9,384.2 			"/>
		</g>
		<g>
			<polygon class="st4" points="-261.3,387.7 -261.6,387.7 -261.4,387.3 -261.6,387 -261.3,387 			"/>
		</g>
		<g>
			<polygon class="st4" points="-251.7,387.7 -251.4,387.7 -251.6,387.3 -251.4,387 -251.7,387 			"/>
		</g>
		<g>
			<polygon points="-261.3,388.4 -260.4,388.4 -260.4,387.9 -259.9,387.9 -259.9,389 -259.1,389 -259.1,387.9 -258.5,388.5 
				-258.5,389.5 -257.8,389.5 -257.8,388.7 -257.2,388.7 -257.2,390.4 -256.8,390.2 -256.5,390.5 -256.2,390.2 -255.9,390.4 
				-255.9,388.7 -255.3,388.7 -255.3,389.5 -254.5,389.5 -254.5,388.5 -254,387.9 -254,389 -253.2,389 -253.2,387.9 -252.6,387.9 
				-252.6,388.4 -251.7,388.4 -251.7,386.3 -252.6,386.3 -252.6,386.8 -253.2,386.8 -253.2,385.7 -254,385.7 -254,386.7 
				-254.5,386.2 -254.5,385.1 -255.3,385.1 -255.3,385.9 -255.9,385.9 -255.9,384.3 -256.2,384.4 -256.5,384.1 -256.8,384.4 
				-257.2,384.3 -257.2,385.9 -257.8,385.9 -257.8,385.1 -258.5,385.1 -258.5,386.2 -259.1,386.7 -259.1,385.7 -259.9,385.7 
				-259.9,386.8 -260.4,386.8 -260.4,386.3 -261.3,386.3 			"/>
		</g>
		<g>
			<polygon class="st3" points="-258.1,385.8 -257.9,385.5 -258.4,385.5 			"/>
		</g>
		<g>
			<polygon class="st3" points="-258.1,388.9 -257.9,389.2 -258.4,389.2 			"/>
		</g>
		<g>
			<polygon class="st3" points="-254.9,385.8 -255.1,385.5 -254.7,385.5 			"/>
		</g>
		<g>
			<polygon class="st3" points="-254.9,388.9 -255.1,389.2 -254.7,389.2 			"/>
		</g>
		<g>
			<polygon class="st4" points="-260.8,387.9 -259.9,387.9 -259.9,389 -259.1,389 -259.1,387.9 -259.2,387.8 -259.6,387.8 
				-259.6,387.6 -260.5,387.6 -260.5,387.1 -259.6,387.1 -259.6,386.9 -259.2,386.9 -259.1,386.7 -259.1,385.7 -259.9,385.7 
				-259.9,386.8 -260.8,386.8 			"/>
		</g>
		<g>
			<polygon class="st4" points="-252.2,387.9 -253.2,387.9 -253.2,389 -254,389 -254,387.9 -253.8,387.8 -253.4,387.8 -253.4,387.6 
				-252.6,387.6 -252.6,387.1 -253.4,387.1 -253.4,386.9 -253.8,386.9 -254,386.7 -254,385.7 -253.2,385.7 -253.2,386.8 
				-252.2,386.8 			"/>
		</g>
		<g>
			<polygon class="st4" points="-256.2,386.1 -256.2,385.6 -256,385.7 -256,384.6 -256.2,384.7 -256.5,384.4 -256.8,384.7 
				-257,384.6 -257,385.7 -256.8,385.6 -256.8,386.1 			"/>
		</g>
		<g>
			<polygon class="st4" points="-256.2,388.5 -256.2,389 -256,388.9 -256,390 -256.2,389.9 -256.5,390.3 -256.8,389.9 -257,390 
				-257,388.9 -256.8,389 -256.8,388.5 			"/>
		</g>
		<g>
			<polygon class="st2" points="-259.5,386.3 -259.2,386 -259.7,386 			"/>
		</g>
		<g>
			<polygon class="st2" points="-259.5,388.3 -259.2,388.7 -259.7,388.7 			"/>
		</g>
		<g>
			<polygon class="st2" points="-253.6,386.3 -253.8,386 -253.4,386 			"/>
		</g>
		<g>
			<polygon class="st2" points="-253.6,388.3 -253.8,388.7 -253.4,388.7 			"/>
		</g>
		<g>
			<polygon class="st2" points="-256.5,385.2 -256.7,384.9 -256.3,384.9 			"/>
		</g>
		<g>
			<polygon class="st2" points="-256.5,389.4 -256.7,389.7 -256.3,389.7 			"/>
		</g>
		<g>
			<polygon class="st3" points="-253.6,387.5 -254.2,387.5 -254.2,387.8 -254.9,388.5 -258.1,388.5 -258.9,387.8 -258.9,387.5 
				-259.4,387.5 -259.4,387.2 -258.9,387.2 -258.9,386.8 -258.1,386.1 -254.9,386.1 -254.2,386.8 -254.2,387.2 -253.6,387.2 			"/>
		</g>
		<g>
			<polygon class="st2" points="-254.4,387.7 -255,388.3 -258,388.3 -258.6,387.7 -258.6,386.9 -258,386.3 -255,386.3 -254.4,386.9 
							"/>
		</g>
		<g>
			<polygon class="st3" points="-257.8,386.6 -257.2,387.3 -257.8,388.1 -257.5,388.1 -257.1,387.5 -256.9,387.8 -257.1,388.1 
				-256.7,388.1 -256.5,387.8 -256.9,387.3 -256.5,386.8 -256.7,386.6 -257.1,386.6 -256.9,386.8 -257.1,387 -257.4,386.6 			"/>
		</g>
		<g>
			<polygon class="st3" points="-255.3,386.6 -255.8,387.3 -255.2,388.1 -255.6,388.1 -256,387.5 -256.2,387.8 -256,388.1 
				-256.3,388.1 -256.5,387.8 -256.2,387.3 -256.5,386.8 -256.3,386.6 -256,386.6 -256.1,386.8 -256,387 -255.6,386.6 			"/>
		</g>
		<g>
			<polygon class="st4" points="-257.6,387.3 -258,386.8 -258,387.8 			"/>
		</g>
		<g>
			<polygon class="st4" points="-255.4,387.3 -255,386.8 -255,387.8 			"/>
		</g>
		<g>
			<polygon class="st4" points="-256.5,387.8 -256.2,387.3 -256.5,386.8 -256.9,387.3 			"/>
		</g>
		<g>
			<polygon class="st3" points="-255.3,398.1 -253.8,397.4 -253.8,397.2 -252.6,397.2 -252.6,396.3 -251.6,396.3 -251.6,393.9 
				-252.6,393.9 -252.6,393 -253.8,393 -253.8,392.8 -255.3,392.1 -257.8,392.1 -259.3,392.8 -259.3,393 -260.5,393 -260.5,393.9 
				-261.4,393.9 -261.4,396.3 -260.5,396.3 -260.5,397.2 -259.3,397.2 -259.3,397.4 -257.8,398.1 			"/>
		</g>
		<g>
			<polygon points="-255.3,397.8 -254,397.2 -254,396.9 -252.8,396.9 -252.8,396.1 -251.8,396.1 -251.8,394.1 -252.8,394.1 
				-252.8,393.3 -254,393.3 -254,393 -255.3,392.3 -257.7,392.3 -259.1,393 -259.1,393.3 -260.2,393.3 -260.2,394.1 -261.2,394.1 
				-261.2,396.1 -260.2,396.1 -260.2,396.9 -259.1,396.9 -259.1,397.2 -257.7,397.8 			"/>
		</g>
		<g>
			<polygon class="st2" points="-255.4,397.6 -254.2,397.1 -254.2,396.8 -253,396.8 -253,395.8 -252.1,395.8 -252.1,394.4 
				-253,394.4 -253,393.4 -254.2,393.4 -254.2,393.1 -255.4,392.6 -257.7,392.6 -258.8,393.1 -258.8,393.4 -260,393.4 -260,394.4 
				-261,394.4 -261,395.8 -260,395.8 -260,396.8 -258.8,396.8 -258.8,397.1 -257.7,397.6 			"/>
		</g>
		<g>
			<polygon points="-256.5,397.1 -254.8,396.3 -253.4,396.3 -253.4,393.9 -254.8,393.9 -256.5,393.1 -258.2,393.9 -259.6,393.9 
				-259.6,396.3 -258.2,396.3 			"/>
		</g>
		<g>
			<polygon class="st3" points="-261,395.1 -261,394.4 -260,394.4 -260,393.9 -259.6,393.9 -259.6,395 -260.4,395 -260.2,394.9 
				-260.2,394.6 			"/>
		</g>
		<g>
			<polygon class="st3" points="-259.1,393.8 -259.8,393.8 -259.8,393.6 -259.1,393.6 			"/>
		</g>
		<g>
			<polygon class="st3" points="-256.5,393.3 -256.5,395.1 -253.9,395.1 -253.9,394.1 -254.8,394.1 			"/>
		</g>
		<g>
			<polygon class="st3" points="-256.5,396.9 -256.5,395.1 -259.1,395.1 -259.1,396.1 -258.2,396.1 			"/>
		</g>
		<g>
			<polygon class="st2" points="-256.5,393.3 -256.5,395.1 -259.1,395.1 -259.1,394.1 -258.2,394.1 			"/>
		</g>
		<g>
			<polygon class="st2" points="-256.5,396.9 -256.5,395.1 -253.9,395.1 -253.9,396.1 -254.8,396.1 			"/>
		</g>
		<g>
			<polygon class="st4" points="-255.1,395.1 -254.6,395.4 -255,395.6 -255.3,395.5 -255,395.4 -255.4,395.2 -256.3,395.6 
				-255.9,395.8 -255.7,395.7 -255.5,395.8 -255.9,396.1 -256.5,395.8 -257.1,396.1 -257.6,395.8 -257.3,395.7 -257.1,395.8 
				-256.8,395.6 -257.7,395.2 -258,395.4 -257.8,395.5 -258,395.6 -258.5,395.4 -257.9,395.1 -258.5,394.8 -258,394.6 -257.8,394.7 
				-258,394.8 -257.7,395 -256.8,394.5 -257.1,394.4 -257.3,394.5 -257.6,394.4 -257.1,394.1 -256.5,394.4 -255.9,394.1 
				-255.5,394.4 -255.7,394.5 -255.9,394.4 -256.3,394.5 -255.4,395 -255,394.8 -255.3,394.7 -255,394.6 -254.6,394.8 			"/>
		</g>
		<g>
			<polygon class="st3" points="-256.5,395.6 -255.6,395.1 -256.5,395.1 			"/>
		</g>
		<g>
			<polygon class="st3" points="-256.5,394.7 -257.4,395.1 -256.5,395.1 			"/>
		</g>
		<g>
			<polygon points="-256.5,395.6 -257.4,395.1 -256.5,395.1 			"/>
		</g>
		<g>
			<polygon points="-256.5,394.7 -255.6,395.1 -256.5,395.1 			"/>
		</g>
		<g>
			<polygon class="st4" points="-258.3,393.1 -258.3,393.9 -258.2,393.9 -256.5,393.1 -256.5,392.6 -257.7,392.6 -257.7,392.9 
				-257.5,392.9 -257.5,392.7 -256.7,392.7 -256.7,392.9 -257.7,393.4 			"/>
		</g>
		<g>
			<polygon class="st3" points="-258.2,393.3 -258.2,393.6 -257.9,393.5 			"/>
		</g>
		<g>
			<polygon class="st3" points="-258.3,393.9 -258.3,393.1 -257.7,393.4 -256.7,392.9 -256.7,392.7 -257.5,392.7 -257.5,392.9 
				-257.7,392.9 -257.7,392.6 -258.8,393.1 -258.8,393.9 			"/>
		</g>
		<g>
			<polygon class="st4" points="-254.7,397.1 -254.7,396.3 -254.8,396.3 -256.5,397.1 -256.5,397.6 -255.4,397.6 -255.4,397.3 
				-255.6,397.3 -255.6,397.5 -256.3,397.5 -256.3,397.2 -255.4,396.8 			"/>
		</g>
		<g>
			<polygon class="st3" points="-254.9,396.8 -254.9,396.6 -255.1,396.7 			"/>
		</g>
		<g>
			<polygon class="st3" points="-254.7,396.3 -254.7,397.1 -255.4,396.8 -256.3,397.2 -256.3,397.5 -255.6,397.5 -255.6,397.3 
				-255.4,397.3 -255.4,397.6 -254.2,397.1 -254.2,396.3 			"/>
		</g>
		<g>
			<polygon class="st2" points="-254.7,393.1 -254.7,393.9 -254.8,393.9 -256.5,393.1 -256.5,392.6 -255.4,392.6 -255.4,392.9 
				-255.6,392.9 -255.6,392.7 -256.3,392.7 -256.3,392.9 -255.4,393.4 			"/>
		</g>
		<g>
			<polygon class="st4" points="-254.9,393.3 -254.9,393.6 -255.1,393.5 			"/>
		</g>
		<g>
			<polygon class="st4" points="-254.7,393.9 -254.7,393.1 -255.4,393.4 -256.3,392.9 -256.3,392.7 -255.6,392.7 -255.6,392.9 
				-255.4,392.9 -255.4,392.6 -254.2,393.1 -254.2,393.9 			"/>
		</g>
		<g>
			<polygon class="st2" points="-258.3,397.1 -258.3,396.3 -258.2,396.3 -256.5,397.1 -256.5,397.6 -257.7,397.6 -257.7,397.3 
				-257.5,397.3 -257.5,397.5 -256.7,397.5 -256.7,397.2 -257.7,396.8 			"/>
		</g>
		<g>
			<polygon class="st4" points="-258.2,396.8 -258.2,396.6 -257.9,396.7 			"/>
		</g>
		<g>
			<polygon class="st4" points="-258.3,396.3 -258.3,397.1 -257.7,396.8 -256.7,397.2 -256.7,397.5 -257.5,397.5 -257.5,397.3 
				-257.7,397.3 -257.7,397.6 -258.8,397.1 -258.8,396.3 			"/>
		</g>
		<g>
			<polygon class="st4" points="-261,395.1 -261,395.8 -260,395.8 -260,396.3 -259.6,396.3 -259.6,395.2 -260.4,395.2 -260.2,395.3 
				-260.2,395.6 			"/>
		</g>
		<g>
			<polygon class="st4" points="-259.1,396.4 -259.8,396.4 -259.8,396.6 -259.1,396.6 			"/>
		</g>
		<g>
			<polygon class="st3" points="-252.1,395.1 -252.1,395.8 -253,395.8 -253,396.3 -253.4,396.3 -253.4,395.2 -252.6,395.2 
				-252.8,395.3 -252.8,395.6 			"/>
		</g>
		<g>
			<polygon class="st3" points="-254,396.4 -253.2,396.4 -253.2,396.6 -254,396.6 			"/>
		</g>
		<g>
			<polygon class="st4" points="-252.1,395.1 -252.1,394.4 -253,394.4 -253,393.9 -253.4,393.9 -253.4,395 -252.6,395 -252.8,394.9 
				-252.8,394.6 			"/>
		</g>
		<g>
			<polygon class="st4" points="-254,393.8 -253.2,393.8 -253.2,393.6 -254,393.6 			"/>
		</g>
		<g>
			<polygon class="st3" points="-256.5,406.5 -256.1,406.1 -255.7,406.3 -255.7,405.8 -255.2,406 -255.2,405.3 -253.2,405.3 
				-253.1,405.2 -252.9,405.5 -252.8,405.2 -252.4,405.2 -252.4,404.9 -252.1,404.7 -252.4,404.5 -252.2,404.3 -252.2,403.7 
				-251.7,403.7 -251.9,403.5 -251.3,403.5 -251.5,403.2 -251,402.9 -251.5,402.5 -251.3,402.2 -251.9,402.2 -251.7,402 -252.2,402 
				-252.2,401.5 -252.4,401.3 -252.1,401 -252.4,400.9 -252.4,400.5 -252.8,400.5 -252.9,400.2 -253.1,400.5 -253.2,400.4 
				-255.2,400.4 -255.2,399.7 -255.7,399.9 -255.7,399.4 -256.1,399.7 -256.5,399.2 -256.9,399.7 -257.4,399.4 -257.4,399.9 
				-257.8,399.7 -257.8,400.4 -259.8,400.4 -259.9,400.5 -260.2,400.2 -260.3,400.5 -260.7,400.5 -260.7,400.9 -260.9,401 
				-260.7,401.3 -260.9,401.5 -260.9,402 -261.4,402 -261.2,402.2 -261.8,402.2 -261.5,402.5 -262,402.9 -261.5,403.2 -261.8,403.5 
				-261.2,403.5 -261.4,403.7 -260.9,403.7 -260.9,404.3 -260.7,404.5 -260.9,404.7 -260.7,404.9 -260.7,405.2 -260.3,405.2 
				-260.2,405.5 -259.9,405.2 -259.8,405.3 -257.8,405.3 -257.8,406 -257.4,405.8 -257.4,406.3 -256.9,406.1 			"/>
		</g>
		<g>
			<polygon points="-256.5,399.5 -256.2,399.9 -255.9,399.8 -255.9,400.3 -255.5,400.1 -255.5,400.6 -253.3,400.6 -252.4,401.6 
				-252.4,404.2 -253.3,405.1 -255.5,405.1 -255.5,405.7 -255.9,405.4 -255.9,405.9 -256.2,405.8 -256.5,406.2 -256.9,405.8 
				-257.1,405.9 -257.1,405.4 -257.6,405.7 -257.6,405.1 -259.7,405.1 -260.7,404.2 -260.7,401.6 -259.7,400.6 -257.6,400.6 
				-257.6,400.1 -257.1,400.3 -257.1,399.8 -256.9,399.9 			"/>
		</g>
		<g>
			<polygon class="st3" points="-253.4,400.8 -252.6,401.7 -252.6,404.1 -253.4,404.9 -259.6,404.9 -260.4,404.1 -260.4,401.7 
				-259.6,400.8 			"/>
		</g>
		<g>
			<polygon points="-253.6,404.5 -253.1,403.9 -253.1,401.8 -253.6,401.3 -259.4,401.3 -260,401.8 -260,403.9 -259.4,404.5 			"/>
		</g>
		<g>
			<line class="st5" x1="-253.6" y1="404.5" x2="-253.1" y2="403.9"/>
		</g>
		<g>
			<line class="st5" x1="-253.1" y1="401.8" x2="-253.6" y2="401.3"/>
		</g>
		<g>
			<polygon class="st2" points="-258.9,401.1 -258.3,401.1 -258.3,401 -258.9,401 			"/>
		</g>
		<g>
			<polygon class="st2" points="-256.8,401.1 -256.2,401.1 -256.2,401 -256.8,401 			"/>
		</g>
		<g>
			<polygon class="st2" points="-260.1,403.2 -260.1,402.6 -260.3,402.6 -260.3,403.2 			"/>
		</g>
		<g>
			<polygon class="st2" points="-258.9,404.6 -258.3,404.6 -258.3,404.8 -258.9,404.8 			"/>
		</g>
		<g>
			<polygon class="st2" points="-256.8,404.6 -256.2,404.6 -256.2,404.8 -256.8,404.8 			"/>
		</g>
		<g>
			<polygon class="st2" points="-254.1,401.1 -254.7,401.1 -254.7,401 -254.1,401 			"/>
		</g>
		<g>
			<polygon class="st2" points="-252.9,403.2 -252.9,402.6 -252.8,402.6 -252.8,403.2 			"/>
		</g>
		<g>
			<polygon class="st2" points="-254.1,404.6 -254.7,404.6 -254.7,404.8 -254.1,404.8 			"/>
		</g>
		<g>
			<polygon class="st4" points="-257.3,401 -257.3,401.1 -257.9,401.1 -257.9,401 			"/>
		</g>
		<g>
			<polygon class="st4" points="-260,401.6 -259.6,401.2 -259.7,401.1 -260.1,401.5 			"/>
		</g>
		<g>
			<polygon class="st4" points="-257.3,404.8 -257.3,404.6 -257.9,404.6 -257.9,404.8 			"/>
		</g>
		<g>
			<polygon class="st4" points="-260,404.1 -259.6,404.5 -259.7,404.6 -260.1,404.2 			"/>
		</g>
		<g>
			<polygon class="st4" points="-255.8,401 -255.8,401.1 -255.2,401.1 -255.2,401 			"/>
		</g>
		<g>
			<polygon class="st4" points="-253.1,401.6 -253.5,401.2 -253.4,401.1 -252.9,401.5 			"/>
		</g>
		<g>
			<polygon class="st4" points="-255.8,404.8 -255.8,404.6 -255.2,404.6 -255.2,404.8 			"/>
		</g>
		<g>
			<polygon class="st4" points="-253.1,404.1 -253.5,404.5 -253.4,404.6 -252.9,404.2 			"/>
		</g>
		<g>
			<polygon class="st3" points="-256.5,401.9 -254.1,401.9 -253.8,402.3 -253.8,402.9 -256.5,402.9 			"/>
		</g>
		<g>
			<polygon class="st2" points="-256.5,401.9 -258.9,401.9 -259.3,402.3 -259.3,402.9 -256.5,402.9 			"/>
		</g>
		<g>
			<polygon class="st3" points="-257.6,401.8 -257.9,401.5 -257.3,401.5 			"/>
		</g>
		<g>
			<polygon class="st3" points="-259.3,401.5 -259.2,401.9 -259.7,401.9 			"/>
		</g>
		<g>
			<polygon class="st3" points="-257.6,404 -257.9,404.3 -257.3,404.3 			"/>
		</g>
		<g>
			<polygon class="st3" points="-259.3,404.2 -259.2,403.8 -259.7,403.8 			"/>
		</g>
		<g>
			<polygon class="st3" points="-255.5,401.8 -255.2,401.5 -255.8,401.5 			"/>
		</g>
		<g>
			<polygon class="st3" points="-253.8,401.5 -253.8,401.9 -253.4,401.9 			"/>
		</g>
		<g>
			<polygon class="st3" points="-255.5,404 -255.2,404.3 -255.8,404.3 			"/>
		</g>
		<g>
			<polygon class="st3" points="-253.8,404.2 -253.8,403.8 -253.4,403.8 			"/>
		</g>
		<g>
			<polygon class="st4" points="-258.3,401.5 -258.6,401.8 -258.9,401.5 			"/>
		</g>
		<g>
			<polygon class="st4" points="-256.2,401.5 -256.5,401.8 -256.8,401.5 			"/>
		</g>
		<g>
			<polygon class="st4" points="-259.8,402.6 -259.5,402.9 -259.8,403.2 			"/>
		</g>
		<g>
			<polygon class="st4" points="-258.3,404.3 -258.6,404 -258.9,404.3 			"/>
		</g>
		<g>
			<polygon class="st4" points="-256.2,404.3 -256.5,404 -256.8,404.3 			"/>
		</g>
		<g>
			<polygon class="st4" points="-254.7,401.5 -254.4,401.8 -254.1,401.5 			"/>
		</g>
		<g>
			<polygon class="st4" points="-253.3,402.6 -253.6,402.9 -253.3,403.2 			"/>
		</g>
		<g>
			<polygon class="st4" points="-254.7,404.3 -254.4,404 -254.1,404.3 			"/>
		</g>
		<g>
			<polygon class="st4" points="-260.7,402.2 -260.9,402.2 -260.7,402.4 -261.3,402.4 -261.1,402.6 -261.4,402.6 -261.6,402.9 
				-261.4,403.1 -261.1,403.1 -261.3,403.3 -260.7,403.3 -260.9,403.5 -260.7,403.5 			"/>
		</g>
		<g>
			<polygon class="st4" points="-259.9,400.8 -260.1,400.6 -260.2,400.7 -260.4,400.7 -260.4,401 -260.6,401.1 -260.4,401.3 			"/>
		</g>
		<g>
			<polygon class="st4" points="-259.9,404.9 -260.1,405.1 -260.2,405 -260.4,405 -260.4,404.7 -260.6,404.7 -260.4,404.5 			"/>
		</g>
		<g>
			<polygon class="st4" points="-252.4,402.2 -252.2,402.2 -252.3,402.4 -251.7,402.4 -252,402.6 -251.7,402.6 -251.4,402.9 
				-251.7,403.1 -252,403.1 -251.7,403.3 -252.3,403.3 -252.2,403.5 -252.4,403.5 			"/>
		</g>
		<g>
			<polygon class="st4" points="-253.1,400.8 -252.9,400.6 -252.9,400.7 -252.6,400.7 -252.6,401 -252.5,401.1 -252.7,401.3 			"/>
		</g>
		<g>
			<polygon class="st4" points="-253.1,404.9 -252.9,405.1 -252.9,405 -252.6,405 -252.6,404.7 -252.5,404.7 -252.7,404.5 			"/>
		</g>
		<g>
			<polygon class="st4" points="-255.6,400.6 -255.6,400.3 -256.1,400.6 -256.1,400.1 -256.3,400.2 -256.3,400 -256.5,399.8 
				-256.7,400 -256.7,400.2 -257,400.1 -257,400.6 -257.4,400.3 -257.4,400.6 			"/>
		</g>
		<g>
			<polygon class="st4" points="-255.6,405.1 -255.6,405.4 -256.1,405.2 -256.1,405.7 -256.3,405.5 -256.3,405.7 -256.5,405.9 
				-256.7,405.7 -256.7,405.5 -257,405.7 -257,405.2 -257.4,405.4 -257.4,405.1 			"/>
		</g>
		<g>
			<polygon class="st3" points="-256.5,403.8 -258.9,403.8 -259.3,403.5 -259.3,402.9 -256.5,402.9 			"/>
		</g>
		<g>
			<polygon class="st2" points="-256.5,403.8 -254.1,403.8 -253.8,403.5 -253.8,402.9 -256.5,402.9 			"/>
		</g>
		<g>
			<polygon class="st4" points="-254.6,402.9 -254.2,403.2 -254.6,403.6 -254.9,403.6 -254.5,403.2 -254.7,403 -256.4,403 
				-256.4,403.2 -256.1,403.4 -256,403.2 -255.7,403.2 -256.1,403.6 -256.5,403.3 -256.9,403.6 -257.3,403.2 -257.1,403.2 
				-256.9,403.4 -256.6,403.2 -256.6,403 -258.4,403 -258.6,403.2 -258.1,403.6 -258.4,403.6 -258.8,403.2 -258.5,402.9 
				-258.8,402.5 -258.4,402.2 -258.1,402.2 -258.6,402.5 -258.4,402.8 -256.6,402.8 -256.6,402.5 -256.9,402.4 -257.1,402.5 
				-257.3,402.5 -256.9,402.2 -256.5,402.4 -256.1,402.2 -255.7,402.5 -256,402.5 -256.1,402.4 -256.4,402.5 -256.4,402.8 
				-254.7,402.8 -254.5,402.5 -254.9,402.2 -254.6,402.2 -254.2,402.5 			"/>
		</g>
		<g>
			<polygon points="-262.8,386.2 -262.3,385.9 -262.6,385.9 -262.6,385.4 -261.4,384.7 -261.9,384.3 -262,384.4 -262,384.8 
				-262.1,384.9 -262.1,384.3 -261.3,383.8 -260.4,383.8 -260.6,383.9 -261.2,383.9 -260.8,384.3 -259.5,383.4 -260.8,382.6 
				-261.2,382.9 -260.6,382.9 -260.4,383.1 -261.3,383.1 -262.1,382.6 -262.1,382 -262,382.1 -262,382.5 -261.9,382.6 -261.4,382.2 
				-262.6,381.4 -262.6,381 -262.3,381 -262.8,380.6 			"/>
		</g>
		<g>
			<polygon class="st3" points="-259.5,383.4 -260.8,384.3 -261.2,383.9 -260.6,383.9 -260.4,383.8 -261.3,383.8 -262.1,384.3 
				-262.1,384.9 -262,384.8 -262,384.4 -261.9,384.3 -261.4,384.7 -262.6,385.4 -262.6,385.9 -262.3,385.9 -262.8,386.2 
				-262.8,386.5 -261.7,385.7 -262.4,385.7 -262.4,385.5 -261.1,384.7 -261.8,384.2 -261.4,384 -260.8,384.5 -259.2,383.4 
				-260.8,382.4 -261.4,382.9 -261.8,382.6 -261.1,382.2 -262.4,381.4 -262.4,381.2 -261.7,381.2 -262.8,380.4 -262.8,380.6 
				-262.3,381 -262.6,381 -262.6,381.4 -261.4,382.2 -261.9,382.6 -262,382.5 -262,382.1 -262.1,382 -262.1,382.6 -261.3,383.1 
				-260.4,383.1 -260.6,382.9 -261.2,382.9 -260.8,382.6 			"/>
		</g>
		<g>
			<polygon class="st3" points="-262.6,382.1 -262.6,381.7 -262.3,381.9 -262.3,382.1 			"/>
		</g>
		<g>
			<polygon class="st2" points="-262.6,382.7 -262.3,382.7 -262.3,382.2 -262.6,382.2 			"/>
		</g>
		<g>
			<polygon class="st3" points="-262.6,384.8 -262.6,385.2 -262.3,385 -262.3,384.8 			"/>
		</g>
		<g>
			<polygon class="st2" points="-262.6,384.2 -262.3,384.2 -262.3,384.6 -262.6,384.6 			"/>
		</g>
		<g>
			<polygon class="st3" points="-262.7,384 -262.1,384 -261.5,383.6 -261.5,383.3 -262.1,382.9 -262.7,382.9 			"/>
		</g>
		<g>
			<polygon class="st3" points="-260.2,383.7 -259.9,383.4 -260.2,383.2 			"/>
		</g>
		<g>
			<polygon class="st2" points="-261.3,383.6 -260.4,383.6 -260.4,383.3 -261.3,383.3 			"/>
		</g>
		<g>
			<polygon points="-262.8,375.5 -262.8,378.5 -262.3,378.2 -262.6,378.2 -262.6,377.7 -261.4,377 -261.9,376.6 -262,376.6 
				-262,377 -262.1,377.1 -262.1,376.5 -261.3,376 -260.4,376 -260.6,376.2 -261.2,376.2 -260.8,376.5 -259.2,375.5 			"/>
		</g>
		<g>
			<polygon class="st3" points="-259.2,375.5 -260.8,376.5 -261.2,376.2 -260.6,376.2 -260.4,376 -261.3,376 -262.1,376.5 
				-262.1,377.1 -262,377 -262,376.6 -261.9,376.6 -261.4,377 -262.6,377.7 -262.6,378.2 -262.3,378.2 -262.8,378.5 -262.8,378.7 
				-261.7,378 -262.4,378 -262.4,377.8 -261.1,377 -261.8,376.5 -261.4,376.3 -260.8,376.7 -258.9,375.5 			"/>
		</g>
		<g>
			<polygon class="st3" points="-262.6,377 -262.6,377.4 -262.3,377.3 -262.3,377 			"/>
		</g>
		<g>
			<polygon class="st2" points="-262.6,376.5 -262.3,376.5 -262.3,376.9 -262.6,376.9 			"/>
		</g>
		<g>
			<polygon class="st3" points="-262.7,375.7 -262.7,376.3 -262.1,376.3 -261.5,375.9 -261.5,375.7 			"/>
		</g>
		<g>
			<polygon class="st3" points="-260.2,375.7 -260.2,376 -259.9,375.7 			"/>
		</g>
		<g>
			<polygon class="st2" points="-261.3,375.7 -261.3,375.9 -260.4,375.9 -260.4,375.7 			"/>
		</g>
		<g>
			<polygon points="-250.3,386.2 -250.8,385.9 -250.4,385.9 -250.4,385.4 -251.6,384.7 -251.1,384.3 -251.1,384.4 -251.1,384.8 
				-250.9,384.9 -250.9,384.3 -251.7,383.8 -252.7,383.8 -252.4,383.9 -251.8,383.9 -252.3,384.3 -253.6,383.4 -252.3,382.6 
				-251.8,382.9 -252.4,382.9 -252.7,383.1 -251.7,383.1 -250.9,382.6 -250.9,382 -251.1,382.1 -251.1,382.5 -251.1,382.6 
				-251.6,382.2 -250.4,381.4 -250.4,381 -250.8,381 -250.3,380.6 			"/>
		</g>
		<g>
			<polygon class="st3" points="-253.6,383.4 -252.3,384.3 -251.8,383.9 -252.4,383.9 -252.7,383.8 -251.7,383.8 -250.9,384.3 
				-250.9,384.9 -251.1,384.8 -251.1,384.4 -251.1,384.3 -251.6,384.7 -250.4,385.4 -250.4,385.9 -250.8,385.9 -250.3,386.2 
				-250.3,386.5 -251.3,385.7 -250.6,385.7 -250.6,385.5 -251.9,384.7 -251.3,384.2 -251.6,384 -252.3,384.5 -253.9,383.4 
				-252.3,382.4 -251.6,382.9 -251.3,382.6 -251.9,382.2 -250.6,381.4 -250.6,381.2 -251.3,381.2 -250.3,380.4 -250.3,380.6 
				-250.8,381 -250.4,381 -250.4,381.4 -251.6,382.2 -251.1,382.6 -251.1,382.5 -251.1,382.1 -250.9,382 -250.9,382.6 -251.7,383.1 
				-252.7,383.1 -252.4,382.9 -251.8,382.9 -252.3,382.6 			"/>
		</g>
		<g>
			<polygon class="st3" points="-250.4,382.1 -250.4,381.7 -250.7,381.9 -250.7,382.1 			"/>
		</g>
		<g>
			<polygon class="st2" points="-250.4,382.7 -250.7,382.7 -250.7,382.2 -250.4,382.2 			"/>
		</g>
		<g>
			<polygon class="st3" points="-250.4,384.8 -250.4,385.2 -250.7,385 -250.7,384.8 			"/>
		</g>
		<g>
			<polygon class="st2" points="-250.4,384.2 -250.7,384.2 -250.7,384.6 -250.4,384.6 			"/>
		</g>
		<g>
			<polygon class="st3" points="-250.4,384 -250.9,384 -251.5,383.6 -251.5,383.3 -250.9,382.9 -250.4,382.9 			"/>
		</g>
		<g>
			<polygon class="st3" points="-252.8,383.7 -253.2,383.4 -252.8,383.2 			"/>
		</g>
		<g>
			<polygon class="st2" points="-251.7,383.6 -252.6,383.6 -252.6,383.3 -251.7,383.3 			"/>
		</g>
		<g>
			<polygon points="-250.3,375.5 -250.3,378.5 -250.8,378.2 -250.4,378.2 -250.4,377.7 -251.6,377 -251.1,376.6 -251.1,376.6 
				-251.1,377 -250.9,377.1 -250.9,376.5 -251.7,376 -252.7,376 -252.4,376.2 -251.8,376.2 -252.3,376.5 -253.8,375.5 			"/>
		</g>
		<g>
			<polygon class="st3" points="-253.8,375.5 -252.3,376.5 -251.8,376.2 -252.4,376.2 -252.7,376 -251.7,376 -250.9,376.5 
				-250.9,377.1 -251.1,377 -251.1,376.6 -251.1,376.6 -251.6,377 -250.4,377.7 -250.4,378.2 -250.8,378.2 -250.3,378.5 
				-250.3,378.7 -251.3,378 -250.6,378 -250.6,377.8 -251.9,377 -251.3,376.5 -251.6,376.3 -252.3,376.7 -254.1,375.5 			"/>
		</g>
		<g>
			<polygon class="st3" points="-250.4,377 -250.4,377.4 -250.7,377.3 -250.7,377 			"/>
		</g>
		<g>
			<polygon class="st2" points="-250.4,376.5 -250.7,376.5 -250.7,376.9 -250.4,376.9 			"/>
		</g>
		<g>
			<polygon class="st3" points="-250.4,375.7 -250.4,376.3 -250.9,376.3 -251.5,375.9 -251.5,375.7 			"/>
		</g>
		<g>
			<polygon class="st3" points="-252.8,375.7 -252.8,376 -253.2,375.7 			"/>
		</g>
		<g>
			<polygon class="st2" points="-251.7,375.7 -251.7,375.9 -252.6,375.9 -252.6,375.7 			"/>
		</g>
		<g>
			<polygon points="-262.8,404 -262.3,404.3 -262.6,404.3 -262.6,404.8 -261.4,405.5 -261.9,405.9 -262,405.8 -262,405.4 
				-262.1,405.3 -262.1,405.9 -261.3,406.4 -260.4,406.4 -260.6,406.3 -261.2,406.3 -260.8,405.9 -259.5,406.8 -260.8,407.6 
				-261.2,407.2 -260.6,407.2 -260.4,407.1 -261.3,407.1 -262.1,407.6 -262.1,408.2 -262,408.1 -262,407.7 -261.9,407.6 -261.4,408 
				-262.6,408.7 -262.6,409.2 -262.3,409.2 -262.8,409.5 			"/>
		</g>
		<g>
			<polygon class="st3" points="-259.5,406.8 -260.8,405.9 -261.2,406.3 -260.6,406.3 -260.4,406.4 -261.3,406.4 -262.1,405.9 
				-262.1,405.3 -262,405.4 -262,405.8 -261.9,405.9 -261.4,405.5 -262.6,404.8 -262.6,404.3 -262.3,404.3 -262.8,404 -262.8,403.7 
				-261.7,404.5 -262.4,404.5 -262.4,404.7 -261.1,405.5 -261.8,406 -261.4,406.2 -260.8,405.7 -259.2,406.8 -260.8,407.8 
				-261.4,407.3 -261.8,407.5 -261.1,408 -262.4,408.8 -262.4,409 -261.7,409 -262.8,409.8 -262.8,409.5 -262.3,409.2 -262.6,409.2 
				-262.6,408.7 -261.4,408 -261.9,407.6 -262,407.7 -262,408.1 -262.1,408.2 -262.1,407.6 -261.3,407.1 -260.4,407.1 -260.6,407.2 
				-261.2,407.2 -260.8,407.6 			"/>
		</g>
		<g>
			<polygon class="st3" points="-262.6,408.1 -262.6,408.5 -262.3,408.3 -262.3,408.1 			"/>
		</g>
		<g>
			<polygon class="st2" points="-262.6,407.5 -262.3,407.5 -262.3,407.9 -262.6,407.9 			"/>
		</g>
		<g>
			<polygon class="st3" points="-262.6,405.4 -262.6,405 -262.3,405.2 -262.3,405.4 			"/>
		</g>
		<g>
			<polygon class="st2" points="-262.6,406 -262.3,406 -262.3,405.6 -262.6,405.6 			"/>
		</g>
		<g>
			<polygon class="st3" points="-262.7,406.2 -262.1,406.2 -261.5,406.6 -261.5,406.9 -262.1,407.3 -262.7,407.3 			"/>
		</g>
		<g>
			<polygon class="st3" points="-260.2,406.5 -259.9,406.8 -260.2,407 			"/>
		</g>
		<g>
			<polygon class="st2" points="-261.3,406.6 -260.4,406.6 -260.4,406.9 -261.3,406.9 			"/>
		</g>
		<g>
			<polygon points="-250.3,404 -250.8,404.3 -250.4,404.3 -250.4,404.8 -251.6,405.5 -251.1,405.9 -251.1,405.8 -251.1,405.4 
				-250.9,405.3 -250.9,405.9 -251.7,406.4 -252.7,406.4 -252.4,406.3 -251.8,406.3 -252.3,405.9 -253.6,406.8 -252.3,407.6 
				-251.8,407.2 -252.4,407.2 -252.7,407.1 -251.7,407.1 -250.9,407.6 -250.9,408.2 -251.1,408.1 -251.1,407.7 -251.1,407.6 
				-251.6,408 -250.4,408.7 -250.4,409.2 -250.8,409.2 -250.3,409.5 			"/>
		</g>
		<g>
			<polygon class="st3" points="-253.6,406.8 -252.3,405.9 -251.8,406.3 -252.4,406.3 -252.7,406.4 -251.7,406.4 -250.9,405.9 
				-250.9,405.3 -251.1,405.4 -251.1,405.8 -251.1,405.9 -251.6,405.5 -250.4,404.8 -250.4,404.3 -250.8,404.3 -250.3,404 
				-250.3,403.7 -251.3,404.5 -250.6,404.5 -250.6,404.7 -251.9,405.5 -251.3,406 -251.6,406.2 -252.3,405.7 -253.9,406.8 
				-252.3,407.8 -251.6,407.3 -251.3,407.5 -251.9,408 -250.6,408.8 -250.6,409 -251.3,409 -250.3,409.8 -250.3,409.5 -250.8,409.2 
				-250.4,409.2 -250.4,408.7 -251.6,408 -251.1,407.6 -251.1,407.7 -251.1,408.1 -250.9,408.2 -250.9,407.6 -251.7,407.1 
				-252.7,407.1 -252.4,407.2 -251.8,407.2 -252.3,407.6 			"/>
		</g>
		<g>
			<polygon class="st3" points="-250.4,408.1 -250.4,408.5 -250.7,408.3 -250.7,408.1 			"/>
		</g>
		<g>
			<polygon class="st2" points="-250.4,407.5 -250.7,407.5 -250.7,407.9 -250.4,407.9 			"/>
		</g>
		<g>
			<polygon class="st3" points="-250.4,405.4 -250.4,405 -250.7,405.2 -250.7,405.4 			"/>
		</g>
		<g>
			<polygon class="st2" points="-250.4,406 -250.7,406 -250.7,405.6 -250.4,405.6 			"/>
		</g>
		<g>
			<polygon class="st3" points="-250.4,406.2 -250.9,406.2 -251.5,406.6 -251.5,406.9 -250.9,407.3 -250.4,407.3 			"/>
		</g>
		<g>
			<polygon class="st3" points="-252.8,406.5 -253.2,406.8 -252.8,407 			"/>
		</g>
		<g>
			<polygon class="st2" points="-251.7,406.6 -252.6,406.6 -252.6,406.9 -251.7,406.9 			"/>
		</g>
		<g>
			<polygon points="-262.8,394 -262.3,393.7 -262.6,393.7 -262.6,393.2 -261.4,392.5 -261.9,392.1 -262,392.1 -262,392.5 
				-262.1,392.6 -262.1,392 -261.3,391.5 -260.4,391.5 -260.6,391.7 -261.2,391.7 -260.8,392 -259.5,391.2 -260.8,390.4 
				-261.2,390.7 -260.6,390.7 -260.4,390.9 -261.3,390.9 -262.1,390.4 -262.1,389.8 -262,389.9 -262,390.3 -261.9,390.3 -261.4,390 
				-262.6,389.2 -262.6,388.7 -262.3,388.7 -262.8,388.4 			"/>
		</g>
		<g>
			<polygon class="st3" points="-259.5,391.2 -260.8,392 -261.2,391.7 -260.6,391.7 -260.4,391.5 -261.3,391.5 -262.1,392 
				-262.1,392.6 -262,392.5 -262,392.1 -261.9,392.1 -261.4,392.5 -262.6,393.2 -262.6,393.7 -262.3,393.7 -262.8,394 -262.8,394.3 
				-261.7,393.5 -262.4,393.5 -262.4,393.3 -261.1,392.5 -261.8,392 -261.4,391.8 -260.8,392.2 -259.2,391.2 -260.8,390.2 
				-261.4,390.6 -261.8,390.4 -261.1,389.9 -262.4,389.1 -262.4,388.9 -261.7,388.9 -262.8,388.2 -262.8,388.4 -262.3,388.7 
				-262.6,388.7 -262.6,389.2 -261.4,390 -261.9,390.3 -262,390.3 -262,389.9 -262.1,389.8 -262.1,390.4 -261.3,390.9 -260.4,390.9 
				-260.6,390.7 -261.2,390.7 -260.8,390.4 			"/>
		</g>
		<g>
			<polygon class="st3" points="-262.6,389.9 -262.6,389.5 -262.3,389.6 -262.3,389.9 			"/>
		</g>
		<g>
			<polygon class="st2" points="-262.6,390.4 -262.3,390.4 -262.3,390 -262.6,390 			"/>
		</g>
		<g>
			<polygon class="st3" points="-262.6,392.5 -262.6,392.9 -262.3,392.8 -262.3,392.5 			"/>
		</g>
		<g>
			<polygon class="st2" points="-262.6,392 -262.3,392 -262.3,392.4 -262.6,392.4 			"/>
		</g>
		<g>
			<polygon class="st3" points="-262.7,391.8 -262.1,391.8 -261.5,391.4 -261.5,391 -262.1,390.7 -262.7,390.7 			"/>
		</g>
		<g>
			<polygon class="st3" points="-260.2,391.5 -259.9,391.2 -260.2,391 			"/>
		</g>
		<g>
			<polygon class="st2" points="-261.3,391.4 -260.4,391.4 -260.4,391 -261.3,391 			"/>
		</g>
		<g>
			<polygon points="-250.3,394 -250.8,393.7 -250.4,393.7 -250.4,393.2 -251.6,392.5 -251.1,392.1 -251.1,392.1 -251.1,392.5 
				-250.9,392.6 -250.9,392 -251.7,391.5 -252.7,391.5 -252.4,391.7 -251.8,391.7 -252.3,392 -253.6,391.2 -252.3,390.4 
				-251.8,390.7 -252.4,390.7 -252.7,390.9 -251.7,390.9 -250.9,390.4 -250.9,389.8 -251.1,389.9 -251.1,390.3 -251.1,390.3 
				-251.6,390 -250.4,389.2 -250.4,388.7 -250.8,388.7 -250.3,388.4 			"/>
		</g>
		<g>
			<polygon class="st3" points="-253.6,391.2 -252.3,392 -251.8,391.7 -252.4,391.7 -252.7,391.5 -251.7,391.5 -250.9,392 
				-250.9,392.6 -251.1,392.5 -251.1,392.1 -251.1,392.1 -251.6,392.5 -250.4,393.2 -250.4,393.7 -250.8,393.7 -250.3,394 
				-250.3,394.3 -251.3,393.5 -250.6,393.5 -250.6,393.3 -251.9,392.5 -251.3,392 -251.6,391.8 -252.3,392.2 -253.9,391.2 
				-252.3,390.2 -251.6,390.6 -251.3,390.4 -251.9,389.9 -250.6,389.1 -250.6,388.9 -251.3,388.9 -250.3,388.2 -250.3,388.4 
				-250.8,388.7 -250.4,388.7 -250.4,389.2 -251.6,390 -251.1,390.3 -251.1,390.3 -251.1,389.9 -250.9,389.8 -250.9,390.4 
				-251.7,390.9 -252.7,390.9 -252.4,390.7 -251.8,390.7 -252.3,390.4 			"/>
		</g>
		<g>
			<polygon class="st3" points="-250.4,389.9 -250.4,389.5 -250.7,389.6 -250.7,389.9 			"/>
		</g>
		<g>
			<polygon class="st2" points="-250.4,390.4 -250.7,390.4 -250.7,390 -250.4,390 			"/>
		</g>
		<g>
			<polygon class="st3" points="-250.4,392.5 -250.4,392.9 -250.7,392.8 -250.7,392.5 			"/>
		</g>
		<g>
			<polygon class="st2" points="-250.4,392 -250.7,392 -250.7,392.4 -250.4,392.4 			"/>
		</g>
		<g>
			<polygon class="st3" points="-250.4,391.8 -250.9,391.8 -251.5,391.4 -251.5,391 -250.9,390.7 -250.4,390.7 			"/>
		</g>
		<g>
			<polygon class="st3" points="-252.8,391.5 -253.2,391.2 -252.8,391 			"/>
		</g>
		<g>
			<polygon class="st2" points="-251.7,391.4 -252.6,391.4 -252.6,391 -251.7,391 			"/>
		</g>
		<g>
			<polygon points="-262.8,401.8 -262.3,401.4 -262.6,401.4 -262.6,401 -261.4,400.2 -261.9,399.9 -262,399.9 -262,400.3 
				-262.1,400.4 -262.1,399.8 -261.3,399.3 -260.4,399.3 -260.6,399.5 -261.2,399.5 -260.8,399.8 -259.5,399 -260.8,398.1 
				-261.2,398.5 -260.6,398.5 -260.4,398.7 -261.3,398.7 -262.1,398.2 -262.1,397.5 -262,397.6 -262,398.1 -261.9,398.1 
				-261.4,397.7 -262.6,397 -262.6,396.5 -262.3,396.5 -262.8,396.2 			"/>
		</g>
		<g>
			<polygon class="st3" points="-259.5,399 -260.8,399.8 -261.2,399.5 -260.6,399.5 -260.4,399.3 -261.3,399.3 -262.1,399.8 
				-262.1,400.4 -262,400.3 -262,399.9 -261.9,399.9 -261.4,400.2 -262.6,401 -262.6,401.4 -262.3,401.4 -262.8,401.8 -262.8,402 
				-261.7,401.3 -262.4,401.3 -262.4,401.1 -261.1,400.2 -261.8,399.8 -261.4,399.5 -260.8,400 -259.2,399 -260.8,398 -261.4,398.4 
				-261.8,398.2 -261.1,397.7 -262.4,396.9 -262.4,396.7 -261.7,396.7 -262.8,395.9 -262.8,396.2 -262.3,396.5 -262.6,396.5 
				-262.6,397 -261.4,397.7 -261.9,398.1 -262,398.1 -262,397.6 -262.1,397.5 -262.1,398.2 -261.3,398.7 -260.4,398.7 -260.6,398.5 
				-261.2,398.5 -260.8,398.1 			"/>
		</g>
		<g>
			<polygon class="st3" points="-262.6,397.6 -262.6,397.2 -262.3,397.4 -262.3,397.6 			"/>
		</g>
		<g>
			<polygon class="st2" points="-262.6,398.2 -262.3,398.2 -262.3,397.8 -262.6,397.8 			"/>
		</g>
		<g>
			<polygon class="st3" points="-262.6,400.3 -262.6,400.7 -262.3,400.6 -262.3,400.3 			"/>
		</g>
		<g>
			<polygon class="st2" points="-262.6,399.8 -262.3,399.8 -262.3,400.2 -262.6,400.2 			"/>
		</g>
		<g>
			<polygon class="st3" points="-262.7,399.5 -262.1,399.5 -261.5,399.2 -261.5,398.8 -262.1,398.4 -262.7,398.4 			"/>
		</g>
		<g>
			<polygon class="st3" points="-260.2,399.2 -259.9,399 -260.2,398.7 			"/>
		</g>
		<g>
			<polygon class="st2" points="-261.3,399.2 -260.4,399.2 -260.4,398.8 -261.3,398.8 			"/>
		</g>
		<g>
			<polygon points="-250.3,401.8 -250.8,401.4 -250.4,401.4 -250.4,401 -251.6,400.2 -251.1,399.9 -251.1,399.9 -251.1,400.3 
				-250.9,400.4 -250.9,399.8 -251.7,399.3 -252.7,399.3 -252.4,399.5 -251.8,399.5 -252.3,399.8 -253.6,399 -252.3,398.1 
				-251.8,398.5 -252.4,398.5 -252.7,398.7 -251.7,398.7 -250.9,398.2 -250.9,397.5 -251.1,397.6 -251.1,398.1 -251.1,398.1 
				-251.6,397.7 -250.4,397 -250.4,396.5 -250.8,396.5 -250.3,396.2 			"/>
		</g>
		<g>
			<polygon class="st3" points="-253.6,399 -252.3,399.8 -251.8,399.5 -252.4,399.5 -252.7,399.3 -251.7,399.3 -250.9,399.8 
				-250.9,400.4 -251.1,400.3 -251.1,399.9 -251.1,399.9 -251.6,400.2 -250.4,401 -250.4,401.4 -250.8,401.4 -250.3,401.8 
				-250.3,402 -251.3,401.3 -250.6,401.3 -250.6,401.1 -251.9,400.2 -251.3,399.8 -251.6,399.5 -252.3,400 -253.9,399 -252.3,398 
				-251.6,398.4 -251.3,398.2 -251.9,397.7 -250.6,396.9 -250.6,396.7 -251.3,396.7 -250.3,395.9 -250.3,396.2 -250.8,396.5 
				-250.4,396.5 -250.4,397 -251.6,397.7 -251.1,398.1 -251.1,398.1 -251.1,397.6 -250.9,397.5 -250.9,398.2 -251.7,398.7 
				-252.7,398.7 -252.4,398.5 -251.8,398.5 -252.3,398.1 			"/>
		</g>
		<g>
			<polygon class="st3" points="-250.4,397.6 -250.4,397.2 -250.7,397.4 -250.7,397.6 			"/>
		</g>
		<g>
			<polygon class="st2" points="-250.4,398.2 -250.7,398.2 -250.7,397.8 -250.4,397.8 			"/>
		</g>
		<g>
			<polygon class="st3" points="-250.4,400.3 -250.4,400.7 -250.7,400.6 -250.7,400.3 			"/>
		</g>
		<g>
			<polygon class="st2" points="-250.4,399.8 -250.7,399.8 -250.7,400.2 -250.4,400.2 			"/>
		</g>
		<g>
			<polygon class="st3" points="-250.4,399.5 -250.9,399.5 -251.5,399.2 -251.5,398.8 -250.9,398.4 -250.4,398.4 			"/>
		</g>
		<g>
			<polygon class="st3" points="-252.8,399.2 -253.2,399 -252.8,398.7 			"/>
		</g>
		<g>
			<polygon class="st2" points="-251.7,399.2 -252.6,399.2 -252.6,398.8 -251.7,398.8 			"/>
		</g>
		<g>
			<polygon class="st3" points="-253.2,413.6 -251.6,412.1 -251.6,409.2 -253.2,407.6 -259.8,407.6 -261.4,409.2 -261.4,412.1 
				-259.8,413.6 			"/>
		</g>
		<g>
			<polygon points="-253.3,413.4 -251.8,412 -251.8,409.3 -253.3,407.9 -259.7,407.9 -261.2,409.3 -261.2,412 -259.7,413.4 			"/>
		</g>
		<g>
			<path class="st4" d="M-257.9,413.2h-1.8l-1.3-1.3v-1.2h1.9v1.3h1.6l0.5,0.4v0.6h-0.3c0,0,0-0.3,0-0.3
				C-257.1,412.7-257.9,413.2-257.9,413.2L-257.9,413.2z"/>
		</g>
		<g>
			<path class="st4" d="M-255.1,408.1h1.8l1.3,1.3v1.2h-1.9v-1.3h-1.6l-0.5-0.4v-0.6h0.3c0,0,0,0.3,0,0.3
				C-255.9,408.6-255.1,408.1-255.1,408.1L-255.1,408.1z"/>
		</g>
		<g>
			<path class="st3" d="M-257.9,408.1h-1.8l-1.3,1.3v1.2h1.9v-1.3h1.6l0.5-0.4v-0.6h-0.3c0,0,0,0.3,0,0.3
				C-257.1,408.6-257.9,408.1-257.9,408.1L-257.9,408.1z"/>
		</g>
		<g>
			<path class="st3" d="M-255.1,413.2h1.8l1.3-1.3v-1.2h-1.9v1.3h-1.6l-0.5,0.4v0.6h0.3c0,0,0-0.3,0-0.3
				C-255.9,412.7-255.1,413.2-255.1,413.2L-255.1,413.2z"/>
		</g>
		<g>
			<path class="st4" d="M-259,410.6v-1.3h1.6l0.5-0.4v-0.6h-0.3c0,0,0,0.3,0,0.3c0,0-0.8-0.5-0.7-0.5h1.4v0.9l-0.8,0.6h-1.5v1.1
				H-259L-259,410.6z"/>
		</g>
		<g>
			<path class="st4" d="M-254,410.6v1.3h-1.6l-0.5,0.4v0.6h0.3c0,0,0-0.3,0-0.3c0,0,0.8,0.5,0.7,0.5h-1.4v-0.9l0.8-0.6h1.5v-1.1
				H-254L-254,410.6z"/>
		</g>
		<g>
			<polygon class="st3" points="-256.5,409 -257.3,409.6 -258.8,409.6 -258.8,410.6 -258.5,410.6 -258.5,410.3 -257.5,409.8 
				-256.5,409.8 			"/>
		</g>
		<g>
			<polygon class="st3" points="-256.5,412.3 -255.7,411.7 -254.2,411.7 -254.2,410.6 -254.6,410.6 -254.6,411 -255.6,411.5 
				-256.5,411.5 			"/>
		</g>
		<g>
			<polygon class="st2" points="-259.8,410 -259.8,410.4 -259.4,410.4 -259.4,409.4 -259.8,409.4 -259.8,409.8 -260.2,409.8 
				-260.2,409.4 -260.6,409.4 -260.6,410.4 -260.2,410.4 -260.2,410 			"/>
		</g>
		<g>
			<polygon class="st2" points="-258.5,408.8 -258.5,409.2 -258.1,409.2 -258.1,408.2 -258.5,408.2 -258.5,408.5 -258.9,408.5 
				-258.9,408.2 -259.3,408.2 -259.3,409.2 -258.9,409.2 -258.9,408.8 			"/>
		</g>
		<g>
			<polygon class="st2" points="-259.8,411.3 -259.8,410.9 -259.4,410.9 -259.4,411.9 -259.8,411.9 -259.8,411.5 -260.2,411.5 
				-260.2,411.9 -260.6,411.9 -260.6,410.9 -260.2,410.9 -260.2,411.3 			"/>
		</g>
		<g>
			<polygon class="st2" points="-258.5,412.5 -258.5,412.1 -258.1,412.1 -258.1,413.1 -258.5,413.1 -258.5,412.7 -258.9,412.7 
				-258.9,413.1 -259.3,413.1 -259.3,412.1 -258.9,412.1 -258.9,412.5 			"/>
		</g>
		<g>
			<polygon class="st2" points="-253.2,410 -253.2,410.4 -253.6,410.4 -253.6,409.4 -253.2,409.4 -253.2,409.8 -252.9,409.8 
				-252.9,409.4 -252.5,409.4 -252.5,410.4 -252.9,410.4 -252.9,410 			"/>
		</g>
		<g>
			<polygon class="st2" points="-254.5,408.8 -254.5,409.2 -254.9,409.2 -254.9,408.2 -254.5,408.2 -254.5,408.5 -254.1,408.5 
				-254.1,408.2 -253.7,408.2 -253.7,409.2 -254.1,409.2 -254.1,408.8 			"/>
		</g>
		<g>
			<polygon class="st2" points="-253.2,411.3 -253.2,410.9 -253.6,410.9 -253.6,411.9 -253.2,411.9 -253.2,411.5 -252.9,411.5 
				-252.9,411.9 -252.5,411.9 -252.5,410.9 -252.9,410.9 -252.9,411.3 			"/>
		</g>
		<g>
			<polygon class="st2" points="-254.5,412.5 -254.5,412.1 -254.9,412.1 -254.9,413.1 -254.5,413.1 -254.5,412.7 -254.1,412.7 
				-254.1,413.1 -253.7,413.1 -253.7,412.1 -254.1,412.1 -254.1,412.5 			"/>
		</g>
		<g>
			<polygon class="st4" points="-260.3,409.2 -259.7,409.2 -259.7,408.5 			"/>
		</g>
		<g>
			<polygon class="st4" points="-252.7,412.1 -253.3,412.1 -253.3,412.7 			"/>
		</g>
		<g>
			<polygon class="st3" points="-260.3,412.1 -259.7,412.1 -259.7,412.7 			"/>
		</g>
		<g>
			<polygon class="st3" points="-252.7,409.2 -253.3,409.2 -253.3,408.5 			"/>
		</g>
		<g>
			<polygon class="st2" points="-256.5,409 -255.7,409.6 -254.2,409.6 -254.2,410.6 -254.6,410.6 -254.6,410.3 -255.6,409.8 
				-256.5,409.8 			"/>
		</g>
		<g>
			<polygon class="st2" points="-256.5,412.3 -257.3,411.7 -258.8,411.7 -258.8,410.6 -258.5,410.6 -258.5,411 -257.5,411.5 
				-256.5,411.5 			"/>
		</g>
		<g>
			<polygon class="st3" points="-254.7,410.9 -255.6,411.4 -256.3,411.4 -256.3,411.1 -256,410.9 -256,411.2 -255.6,411 -256,410.7 
				-256.5,411.1 -257,410.7 -257.4,411 -257,411.2 -257,410.9 -256.8,411.1 -256.8,411.4 -257.4,411.4 -258.3,410.9 -258.3,410.3 
				-257.4,409.9 -256.8,409.9 -256.8,410.1 -257,410.3 -257,410.1 -257.4,410.3 -257,410.6 -256.5,410.2 -256,410.6 -255.6,410.3 
				-256,410.1 -256,410.3 -256.3,410.1 -256.3,409.9 -255.6,409.9 -254.7,410.3 			"/>
		</g>
		<g>
			<polygon class="st4" points="-256.2,410.6 -256.5,410.4 -256.9,410.6 -256.5,410.9 			"/>
		</g>
		<g>
			<polygon class="st4" points="-257.7,410.9 -257.3,410.6 -257.7,410.4 			"/>
		</g>
		<g>
			<polygon class="st4" points="-255.3,410.9 -255.7,410.6 -255.3,410.4 			"/>
		</g>
		<g>
			<polygon class="st3" points="-251.6,380.6 -252.4,381.1 -252.4,381.4 -253.6,382.2 -253.9,382.1 -254.7,382.6 -258.3,382.6 
				-259.1,382.1 -259.4,382.2 -260.7,381.4 -260.7,381.1 -261.4,380.6 -261.4,378.5 -260.7,378 -260.7,377.7 -259.4,376.9 
				-259.1,377 -258.3,376.5 -254.7,376.5 -253.9,377 -253.6,376.9 -252.4,377.7 -252.4,378 -251.6,378.5 			"/>
		</g>
		<g>
			<polygon points="-251.9,380.5 -252.6,380.9 -252.6,381.3 -253.6,382 -254,381.9 -254.7,382.3 -258.4,382.3 -259.1,381.9 
				-259.4,382 -260.5,381.3 -260.5,380.9 -261.2,380.5 -261.2,378.6 -260.5,378.1 -260.5,377.8 -259.4,377.1 -259.1,377.2 
				-258.4,376.8 -254.7,376.8 -254,377.2 -253.6,377.1 -252.6,377.8 -252.6,378.1 -251.9,378.6 			"/>
		</g>
		<g>
			<polygon class="st2" points="-252,380.4 -252.7,380.9 -252.7,381.2 -253.6,381.9 -254,381.8 -254.7,382.2 -258.3,382.2 
				-259.1,381.8 -259.4,381.9 -260.4,381.2 -260.4,380.9 -261.1,380.4 -261.1,378.7 -260.4,378.2 -260.4,377.8 -259.4,377.2 
				-259.1,377.3 -258.3,376.9 -254.7,376.9 -254,377.3 -253.6,377.2 -252.7,377.8 -252.7,378.2 -252,378.7 			"/>
		</g>
		<g>
			<polygon points="-252.1,380.3 -252.9,380.8 -252.9,381.1 -253.7,381.7 -254,381.5 -254.7,382 -258.3,382 -259,381.5 
				-259.4,381.7 -260.2,381.1 -260.2,380.8 -260.9,380.3 -260.9,378.8 -260.2,378.3 -260.2,378 -259.4,377.4 -259,377.6 
				-258.3,377.1 -254.7,377.1 -254,377.6 -253.7,377.4 -252.9,378 -252.9,378.3 -252.1,378.8 			"/>
		</g>
		<g>
			<polygon class="st2" points="-252.2,380.2 -253,380.7 -253,381.1 -253.7,381.6 -254,381.4 -254.8,381.9 -258.3,381.9 -259,381.4 
				-259.4,381.6 -260.1,381.1 -260.1,380.7 -260.8,380.2 -260.8,378.9 -260.1,378.4 -260.1,378 -259.4,377.5 -259,377.7 
				-258.3,377.2 -254.8,377.2 -254,377.7 -253.7,377.5 -253,378 -253,378.4 -252.2,378.9 			"/>
		</g>
		<g>
			<polygon points="-256.7,379.2 -257,379.6 -258.3,379.6 -257.8,379.1 -257.8,378.6 -257,378.6 -256.7,378.4 			"/>
		</g>
		<g>
			<polygon class="st4" points="-256.5,379.1 -256.9,379.6 -256.5,379.6 			"/>
		</g>
		<g>
			<path class="st2" d="M-257,379.3L-257,379.3l-0.3-0.1l0.1-0.1l0-0.2l0.2,0l0.1-0.1v0.2l0.1,0.1l0.1-0.1v-0.6l-0.2,0.2h-0.8v0.5
				l-0.3,0.3c0,0,0.6,0,1,0L-257,379.3L-257,379.3z"/>
		</g>
		<g>
			<polygon points="-256.3,379.2 -256,379.6 -254.7,379.6 -255.2,379.1 -255.2,378.6 -256,378.6 -256.3,378.4 			"/>
		</g>
		<g>
			<polygon class="st2" points="-256.2,379.2 -256.1,379.1 -256.1,378.9 -256,379 -255.8,379 -255.9,379.1 -255.7,379.2 -256,379.2 
				-256.1,379.3 			"/>
		</g>
		<g>
			<polygon points="-256.3,379.9 -256,379.6 -254.7,379.6 -255.2,380 -255.2,380.5 -256,380.5 -256.3,380.7 			"/>
		</g>
		<g>
			<polygon class="st4" points="-256.5,380 -256.1,379.6 -256.5,379.6 			"/>
		</g>
		<g>
			<path class="st2" d="M-256.1,379.8L-256.1,379.8l0.3,0.1l-0.1,0.1l0,0.2l-0.2,0l-0.1,0.1V380l-0.1-0.1l-0.1,0.1v0.6l0.2-0.2h0.8
				V380l0.3-0.3c0,0-0.6,0-1,0L-256.1,379.8L-256.1,379.8z"/>
		</g>
		<g>
			<polygon points="-256.7,379.9 -257,379.6 -258.3,379.6 -257.8,380 -257.8,380.5 -257,380.5 -256.7,380.7 			"/>
		</g>
		<g>
			<polygon class="st2" points="-256.9,379.9 -256.9,380 -256.9,380.2 -257.1,380.1 -257.2,380.1 -257.2,380 -257.3,379.9 
				-257.1,379.9 -257,379.8 			"/>
		</g>
		<g>
			<polygon class="st4" points="-257.6,378.3 -257.2,378.5 -257.7,378.5 -258.5,378.1 -258.6,377.8 -258.7,377.9 -258.8,377.8 
				-259.2,377.8 -258.8,378.1 -259,378.2 -258.6,378.2 -257.9,378.6 -257.9,379 -258.3,378.8 -258.4,378.6 -258.5,378.7 
				-258.6,378.6 -259,378.6 -258.6,378.8 -258.8,378.9 -258.4,378.9 -258,379.2 -258.3,379.4 -260.1,379.4 -260.2,379.3 
				-260.1,379.2 -259.7,379.2 -259.7,378.9 -260.3,378.9 -260.8,379.4 -260.8,378.9 -260.1,378.4 -260.1,378 -259.4,377.5 
				-259,377.7 -258.3,377.2 -256.7,377.2 -256.8,377.4 -257.7,377.4 -257.1,378 -257.1,377.7 -256.7,377.7 -256.7,378.2 
				-256.9,378.5 -257.5,378.1 -257.5,377.9 -257.7,378 -257.8,377.9 -258.2,377.9 -257.8,378.1 -258,378.3 			"/>
		</g>
		<g>
			<polygon class="st3" points="-253.8,377.8 -254.2,378.1 -254,378.2 -254.4,378.2 -255.1,378.6 -255.1,379 -254.8,378.8 
				-254.7,378.6 -254.6,378.7 -254.4,378.6 -254,378.6 -254.4,378.8 -254.2,378.9 -254.6,378.9 -255,379.2 -254.7,379.4 
				-252.9,379.4 -252.8,379.3 -252.9,379.2 -253.3,379.2 -253.3,378.9 -252.7,378.9 -252.2,379.4 -252.2,378.9 -253,378.4 -253,378 
				-253.7,377.5 -254,377.7 -254.8,377.2 -256.3,377.2 -256.2,377.4 -255.3,377.4 -255.9,378 -255.9,377.7 -256.3,377.7 
				-256.3,378.2 -256.1,378.5 -255.6,378.1 -255.5,377.9 -255.4,378 -255.2,377.9 -254.8,377.9 -255.2,378.1 -255,378.3 
				-255.4,378.3 -255.8,378.5 -255.3,378.5 -254.6,378.1 -254.5,377.8 -254.4,377.9 -254.2,377.8 			"/>
		</g>
		<g>
			<polygon class="st4" points="-253.8,381.3 -254.2,381 -254,380.9 -254.4,380.9 -255.1,380.5 -255.1,380.1 -254.8,380.3 
				-254.7,380.5 -254.6,380.4 -254.4,380.5 -254,380.5 -254.4,380.3 -254.2,380.2 -254.6,380.2 -255,379.9 -254.7,379.7 
				-252.9,379.7 -252.8,379.8 -252.9,379.9 -253.3,379.9 -253.3,380.2 -252.7,380.2 -252.2,379.7 -252.2,380.2 -253,380.7 
				-253,381.1 -253.7,381.6 -254,381.4 -254.8,381.9 -256.3,381.9 -256.2,381.7 -255.3,381.7 -255.9,381.1 -255.9,381.4 
				-256.3,381.4 -256.3,380.9 -256.1,380.6 -255.6,381 -255.5,381.2 -255.4,381.1 -255.2,381.2 -254.8,381.2 -255.2,381 -255,380.8 
				-255.4,380.8 -255.8,380.6 -255.3,380.6 -254.6,381 -254.5,381.3 -254.4,381.2 -254.2,381.3 			"/>
		</g>
		<g>
			<polygon class="st4" points="-252.2,379.6 -252.7,379 -253.2,379 -253.2,379.1 -252.9,379.1 -252.7,379.3 -252.9,379.5 
				-254.8,379.5 -255.2,379.1 -255.2,378.6 -256,378.6 -256.4,378.3 -256.4,377.6 -255.8,377.6 -255.8,377.8 -255.5,377.5 
				-256.2,377.5 -256.5,377.1 -256.3,377 -256.1,377.3 -255,377.3 -256,378.2 -256,377.8 -256.2,377.8 -256.2,378.2 -256,378.4 
				-255,378.4 -255,379 -254.7,379.3 -253,379.3 -252.9,379.3 -253,379.3 -253.4,379.3 -253.4,378.8 -252.7,378.8 -252,379.4 			"/>
		</g>
		<g>
			<polygon class="st3" points="-259.2,381.3 -258.8,381 -259,380.9 -258.6,380.9 -257.9,380.5 -257.9,380.1 -258.3,380.3 
				-258.4,380.5 -258.5,380.4 -258.6,380.5 -259,380.5 -258.6,380.3 -258.8,380.2 -258.4,380.2 -258,379.9 -258.3,379.7 
				-260.1,379.7 -260.2,379.8 -260.1,379.9 -259.7,379.9 -259.7,380.2 -260.3,380.2 -260.8,379.7 -260.8,380.2 -260.1,380.7 
				-260.1,381.1 -259.4,381.6 -259,381.4 -258.3,381.9 -256.7,381.9 -256.8,381.7 -257.7,381.7 -257.1,381.1 -257.1,381.4 
				-256.7,381.4 -256.7,380.9 -256.9,380.6 -257.5,381 -257.5,381.2 -257.7,381.1 -257.8,381.2 -258.2,381.2 -257.8,381 -258,380.8 
				-257.6,380.8 -257.2,380.6 -257.7,380.6 -258.5,381 -258.6,381.3 -258.7,381.2 -258.8,381.3 			"/>
		</g>
		<g>
			<polygon class="st4" points="-256.7,382.1 -256.9,381.8 -258,381.8 -257,380.9 -257,381.3 -256.8,381.3 -256.8,380.9 
				-257.1,380.6 -258,380.6 -258,380.1 -258.3,379.8 -260.1,379.8 -260.1,379.8 -260.1,379.8 -259.6,379.8 -259.6,380.2 
				-260.4,380.2 -261,379.7 -260.9,379.5 -260.3,380.1 -259.8,380.1 -259.8,380 -260.1,380 -260.4,379.8 -260.1,379.6 -258.2,379.6 
				-257.9,380 -257.9,380.5 -257,380.5 -256.6,380.8 -256.6,381.5 -257.2,381.5 -257.2,381.3 -257.5,381.6 -256.8,381.6 -256.6,382 
							"/>
		</g>
		<g>
			<polygon points="-256.5,381.9 -254.8,381.9 -254,381.4 -253.7,381.6 -253,381.1 -253,380.7 -252.2,380.2 -252.2,378.9 
				-253,378.4 -253,378 -253.7,377.5 -254,377.7 -254.8,377.2 -258.3,377.2 -259,377.7 -259.4,377.5 -260.1,378 -260.1,378.4 
				-260.8,378.9 -260.8,380.2 -260.1,380.7 -260.1,381.1 -259.4,381.6 -259,381.4 -258.3,381.9 -256.5,381.9 -256.5,382 -258.3,382 
				-259,381.5 -259.4,381.7 -260.2,381.1 -260.2,380.8 -260.9,380.3 -260.9,378.8 -260.2,378.3 -260.2,378 -259.4,377.4 -259,377.6 
				-258.3,377.1 -254.7,377.1 -254,377.6 -253.7,377.4 -252.9,378 -252.9,378.3 -252.1,378.8 -252.1,380.3 -252.9,380.8 
				-252.9,381.1 -253.7,381.7 -254,381.5 -254.7,382 -256.5,382 			"/>
		</g>
		<g>
			<path class="st3" d="M-254.2,417.6c0.4-0.2,0.5-0.5,0.6-1c0.1-0.4,0.4-0.8,0.8-1.2c0.1-0.1,0.2-0.1,0.2,0.1
				c-0.1,0.6-0.3,1.4-0.8,1.8c0.6-0.3,1.4-0.3,2.1-0.8c0.1-0.1,0.2-0.1,0.1,0.1c-0.6,1.2-2,1.6-2.9,1
				C-254.3,417.6-254.3,417.6-254.2,417.6L-254.2,417.6z"/>
		</g>
		<g>
			<path d="M-253.2,418c-0.4,0-0.7-0.1-1-0.3c-0.1,0-0.1-0.1-0.1-0.1c0,0,0,0,0.1-0.1l0,0c0.3-0.2,0.5-0.5,0.6-0.9
				c0.1-0.4,0.4-0.9,0.8-1.2c0.1,0,0.1-0.1,0.2-0.1c0,0,0,0.1,0,0.2c-0.1,0.7-0.3,1.4-0.7,1.8c0.2-0.1,0.4-0.1,0.6-0.2
				c0.4-0.1,1-0.2,1.4-0.6c0.1-0.1,0.1-0.1,0.2-0.1c0,0,0,0.1,0,0.2c-0.3,0.6-0.8,1-1.4,1.2C-252.8,417.9-253,418-253.2,418z
				 M-252.7,415.4c0,0,0,0-0.1,0.1c-0.4,0.3-0.7,0.8-0.8,1.2c-0.1,0.5-0.3,0.8-0.6,1l0,0c0,0,0,0,0,0c0,0,0,0,0,0
				c0.4,0.3,1,0.3,1.5,0.2c0.6-0.2,1.1-0.6,1.4-1.2c0.1-0.1,0.1-0.1,0.1-0.1c0,0,0,0-0.1,0.1c-0.4,0.3-1,0.5-1.4,0.6
				c-0.3,0.1-0.5,0.1-0.7,0.2l0,0c0.5-0.4,0.7-1.1,0.8-1.8C-252.6,415.4-252.7,415.4-252.7,415.4
				C-252.7,415.4-252.7,415.4-252.7,415.4z"/>
		</g>
		<g>
			<path class="st3" d="M-252.6,416.9c0-1,0.1-1.9,0.6-2.7c0.1-0.1,0.1-0.1,0.1,0.1c0,0.8-0.1,1.5-0.4,2c-0.1,0.1-0.1,0.2-0.2,0.3
				c0.1,0,0.2-0.1,0.3-0.2c0.5-0.9,1.4-1.4,1.5-1.6c0-0.1,0.1-0.1,0.1,0c-0.1,1.1-1.2,2.2-2.1,2.2
				C-252.6,417-252.6,416.9-252.6,416.9L-252.6,416.9z"/>
		</g>
		<g>
			<path d="M-252.6,417C-252.6,417-252.6,417-252.6,417c-0.1,0-0.1-0.1-0.1-0.1l0,0c0-0.8,0.1-1.8,0.6-2.7c0-0.1,0.1-0.1,0.1-0.1
				c0,0,0.1,0.1,0.1,0.2c0,0.8-0.1,1.5-0.4,2l0,0c0,0.1-0.1,0.1-0.1,0.2c0.1,0,0.2-0.1,0.2-0.2c0.3-0.6,0.8-1,1.1-1.3
				c0.2-0.2,0.3-0.3,0.4-0.4c0,0,0.1-0.1,0.1-0.1c0,0,0.1,0.1,0.1,0.1C-250.5,415.9-251.7,417-252.6,417
				C-252.6,417-252.6,417-252.6,417z M-251.9,414.2C-251.9,414.2-252,414.2-251.9,414.2c-0.6,0.9-0.7,1.9-0.7,2.7l0,0c0,0,0,0,0,0
				c0,0,0,0,0.1,0c0,0,0,0,0,0c0.8,0,2-1.1,2.1-2.2c0-0.1,0-0.1,0-0.1c0,0,0,0,0,0c0,0,0,0-0.1,0.1c-0.1,0.1-0.2,0.2-0.4,0.4
				c-0.3,0.3-0.8,0.7-1.1,1.3c-0.1,0.3-0.3,0.3-0.3,0.2l-0.1,0l0.1,0c0.1,0,0.1-0.1,0.2-0.2l0,0c0.3-0.5,0.4-1.2,0.4-2
				C-251.9,414.2-251.9,414.2-251.9,414.2C-251.9,414.2-251.9,414.2-251.9,414.2z"/>
		</g>
		<g>
			<path class="st3" d="M-251.6,415.2c0.1-0.4,0-0.7-0.1-0.9c-0.1-0.6-0.1-1.2,0.1-1.7c0-0.1,0.1-0.1,0.1,0c0.2,0.8,0.4,1.6,0.1,1.9
				c0.1,0,0.3-0.2,0.3-0.4c0.1-0.2,0.3-0.6,0.5-0.8c0.2-0.2,0.4-0.4,0.4-0.5c0-0.1,0.1-0.1,0.1,0.1
				C-250,413.8-250.8,414.9-251.6,415.2C-251.6,415.3-251.6,415.3-251.6,415.2L-251.6,415.2z"/>
		</g>
		<g>
			<path d="M-251.6,415.3C-251.6,415.3-251.6,415.3-251.6,415.3C-251.7,415.3-251.7,415.3-251.6,415.3L-251.6,415.3
				c0-0.5-0.1-0.7-0.1-0.9c0,0,0,0,0-0.1c-0.1-0.6-0.1-1.2,0.1-1.7c0,0,0-0.1,0.1-0.1c0,0,0,0,0,0c0,0,0.1,0.1,0.1,0.1l0,0.1
				c0.2,0.7,0.3,1.4,0.1,1.7c0.1-0.1,0.2-0.2,0.2-0.4c0.1-0.3,0.3-0.7,0.5-0.8c0.2-0.2,0.4-0.4,0.4-0.5c0-0.1,0-0.1,0.1-0.1
				c0,0,0,0,0,0c0,0,0.1,0.1,0.1,0.1C-250,413.8-250.7,414.9-251.6,415.3C-251.6,415.3-251.6,415.3-251.6,415.3z M-251.6,415.2
				C-251.6,415.3-251.6,415.3-251.6,415.2C-251.6,415.3-251.6,415.3-251.6,415.2c0.8-0.4,1.6-1.5,1.5-2.2c0-0.1,0-0.1,0-0.1
				c0,0,0,0,0,0c0,0.1-0.2,0.3-0.4,0.5c-0.2,0.1-0.4,0.5-0.5,0.8c-0.1,0.2-0.2,0.4-0.3,0.4l-0.1,0l0-0.1c0.3-0.3,0.1-1,0-1.8l0-0.1
				c0,0,0,0,0,0c0,0,0,0,0,0c-0.2,0.4-0.3,1.1-0.1,1.7c0,0,0,0,0,0.1C-251.6,414.6-251.6,414.8-251.6,415.2L-251.6,415.2z"/>
		</g>
		<g>
			<path class="st3" d="M-251.2,413.8c0-0.2,0-0.6-0.1-0.9s0-0.7,0-0.9c0.1-0.2,0.1-0.4,0.1-0.5c0-0.1,0.1-0.1,0.1,0
				c0.2,0.5,0.2,1.4,0.1,1.7c0,0.1-0.1,0.2,0,0.2c0.1,0,0.1,0,0.1-0.1c0-0.2,0.2-0.5,0.3-0.7c0.2-0.2,0.2-0.4,0.3-0.6
				c0-0.1,0.2-0.3,0.2-0.4c0-0.1,0.1,0,0.1,0.1c0,1-0.5,1.5-0.8,1.8c-0.1,0.1-0.2,0.3-0.2,0.3C-251.1,413.9-251.2,413.9-251.2,413.8
				L-251.2,413.8z"/>
		</g>
		<g>
			<path d="M-251.1,413.9C-251.1,413.9-251.1,413.9-251.1,413.9c0,0-0.1,0-0.1-0.1l0,0c0-0.2,0-0.6-0.1-0.9c-0.1-0.3,0-0.7,0-0.9
				c0.1-0.2,0.1-0.4,0.1-0.5c0-0.1,0-0.1,0-0.1c0,0,0.1,0,0.1,0.1c0.2,0.5,0.2,1.5,0.1,1.7c0,0-0.1,0.1,0,0.1c0,0,0,0,0,0
				c0,0,0-0.1,0-0.1c0-0.2,0.1-0.4,0.3-0.7c0.2-0.2,0.2-0.5,0.3-0.6c0-0.1,0.1-0.2,0.2-0.3c0,0,0-0.1,0.1-0.1c0,0,0.1,0,0.1,0
				c0.1,0,0.1,0.1,0.1,0.2c0,0.7-0.3,1.4-0.8,1.8c0,0-0.1,0.1-0.2,0.3C-251,413.9-251.1,413.9-251.1,413.9z M-251.1,411.4
				C-251.1,411.4-251.1,411.4-251.1,411.4c0,0.2,0,0.3-0.1,0.5c-0.1,0.2-0.1,0.6,0,0.9c0.1,0.3,0.1,0.7,0.1,0.9l0,0c0,0,0,0.1,0,0.1
				c0,0,0,0,0,0c0,0,0.1,0,0.1-0.1c0.1-0.2,0.2-0.3,0.3-0.3c0.5-0.4,0.8-1,0.8-1.8c0-0.1,0-0.1,0-0.1c0,0,0,0,0,0c0,0,0,0.1-0.1,0.1
				c-0.1,0.1-0.1,0.2-0.2,0.3c0,0.2-0.1,0.4-0.3,0.6c-0.2,0.2-0.3,0.4-0.3,0.7c0,0,0,0.1-0.1,0.1c0,0,0,0-0.1,0
				c-0.1,0-0.1-0.1,0-0.2C-250.9,412.9-250.9,412-251.1,411.4C-251.1,411.5-251.1,411.4-251.1,411.4z"/>
		</g>
		<g>
			<path class="st3" d="M-250.7,412.5c0-0.7-0.1-1.5,0.3-2c0.1-0.1,0.1-0.2,0.1,0c0.1,0.7,0.1,1.4-0.3,2
				C-250.7,412.6-250.7,412.6-250.7,412.5L-250.7,412.5z"/>
		</g>
		<g>
			<path d="M-250.7,412.6C-250.7,412.6-250.7,412.6-250.7,412.6C-250.7,412.6-250.8,412.5-250.7,412.6l-0.1-0.2c0-0.7,0-1.4,0.3-1.9
				l0,0c0-0.1,0.1-0.1,0.1-0.1c0,0,0,0,0,0c0,0,0,0,0.1,0.1c0.1,0.8,0,1.5-0.3,2C-250.6,412.5-250.7,412.6-250.7,412.6z
				 M-250.4,410.4C-250.4,410.4-250.4,410.4-250.4,410.4L-250.4,410.4c-0.4,0.6-0.3,1.3-0.3,2l0,0.1c0,0,0,0,0,0c0,0,0,0,0.1-0.1
				C-250.3,411.9-250.2,411.3-250.4,410.4C-250.4,410.4-250.4,410.4-250.4,410.4z"/>
		</g>
		<g>
			<path class="st3" d="M-252.5,418.2c-0.5,0.1-1.2-0.2-1.6-0.4c-0.7-0.3-1.6-0.2-2.4,0.2c-0.9-0.4-1.7-0.5-2.4-0.2
				c-0.4,0.2-1.1,0.5-1.6,0.4c-0.3-0.1-0.2,0.1-0.2,0.2c1,0.8,2.1,0.5,2.8,0.1c0.3-0.2,0.6-0.4,1.1-0.3c-0.5,0.3-1,0.6-1.5,1
				c0,0,0,0,0,0.1c0,0.1,0,0.1,0.1,0.2c0,0.1,0,0.1,0.1,0c0.4-0.4,1-1,1.5-1.2c0,0,0.1,0,0.1,0c0,0,0.1,0,0.1,0
				c0.5,0.2,1.1,0.8,1.5,1.2c0,0,0.1,0.1,0.1,0c0-0.1,0-0.1,0.1-0.2c0-0.1,0-0.1,0-0.1c-0.5-0.4-1-0.8-1.5-1
				c0.5-0.1,0.8,0.1,1.1,0.3c0.7,0.4,1.8,0.7,2.8-0.1C-252.3,418.3-252.2,418.2-252.5,418.2L-252.5,418.2z"/>
		</g>
		<g>
			<path d="M-254.9,419.5C-254.9,419.5-254.9,419.5-254.9,419.5c-0.5-0.5-1.1-1-1.5-1.2c0,0,0,0,0,0c0,0,0,0,0,0c0,0,0,0,0,0
				c0,0,0,0,0,0c-0.4,0.2-1.1,0.7-1.5,1.2c0,0,0,0-0.1,0c0,0,0,0,0,0c0,0,0,0-0.1-0.1c0,0,0-0.1,0-0.1c0,0,0-0.1,0-0.1l0,0
				c0,0,0-0.1,0-0.1c0.5-0.4,0.9-0.7,1.4-1c-0.4-0.1-0.7,0.1-1,0.3l0,0c-0.3,0.2-1.6,0.8-2.8-0.1c-0.1,0-0.1-0.1-0.1-0.2
				c0-0.1,0.1-0.1,0.2,0c0.1,0,0.1,0,0.2,0c0.5,0,1.1-0.2,1.4-0.4c0.7-0.3,1.5-0.2,2.4,0.2c0.9-0.4,1.7-0.5,2.4-0.2
				c0.3,0.1,0.9,0.4,1.4,0.4c0.1,0,0.1,0,0.2,0l0,0c0.1,0,0.2,0,0.2,0c0,0.1,0,0.1-0.1,0.2c-1.2,0.9-2.4,0.3-2.8,0.1l0,0
				c-0.2-0.2-0.5-0.3-0.8-0.3c-0.1,0-0.1,0-0.2,0c0.5,0.3,0.9,0.6,1.4,1c0,0,0,0.1,0,0.1l0,0c0,0,0,0.1,0,0.1
				C-254.8,419.4-254.8,419.5-254.9,419.5C-254.9,419.5-254.9,419.5-254.9,419.5C-254.9,419.5-254.9,419.5-254.9,419.5z
				 M-257.1,418.1c0.1,0,0.2,0,0.3,0l0.1,0l-0.1,0c-0.5,0.3-1,0.6-1.5,1c0,0,0,0,0,0c0,0,0,0,0,0l0,0c0,0,0,0.1,0,0.1c0,0,0,0,0,0.1
				c0,0,0,0,0,0c0,0,0,0,0,0c0.4-0.4,1.1-1,1.5-1.2c0,0,0,0,0,0c0,0,0,0,0,0l0,0l0,0c0,0,0,0,0,0c0,0,0,0,0,0
				c0.5,0.2,1.2,0.9,1.5,1.2c0,0,0,0,0,0c0,0,0,0,0,0c0,0,0-0.1,0-0.1c0,0,0-0.1,0-0.1l0,0c0,0,0,0,0,0c0,0,0,0,0,0c0,0,0,0,0,0
				c-0.5-0.4-1-0.8-1.5-1l-0.1,0l0.1,0c0.5-0.1,0.8,0.1,1.1,0.3l0,0c0.3,0.2,1.5,0.8,2.7-0.1c0,0,0.1-0.1,0.1-0.1c0,0,0,0-0.2,0l0,0
				c-0.1,0-0.1,0-0.2,0c-0.5,0-1.1-0.2-1.4-0.4c-0.7-0.3-1.5-0.2-2.4,0.2l0,0l0,0c-0.9-0.4-1.7-0.5-2.4-0.2
				c-0.4,0.1-1.1,0.5-1.6,0.4c-0.2,0-0.2,0-0.2,0c0,0,0,0.1,0.1,0.1c1.2,0.9,2.4,0.3,2.7,0.1l0,0
				C-257.7,418.3-257.4,418.1-257.1,418.1z"/>
		</g>
		<g>
			<path class="st3" d="M-258.8,417.6c-0.4-0.2-0.5-0.5-0.6-1c-0.1-0.4-0.4-0.8-0.8-1.2c-0.1-0.1-0.2-0.1-0.2,0.1
				c0.1,0.6,0.3,1.4,0.8,1.8c-0.6-0.3-1.4-0.3-2.1-0.8c-0.1-0.1-0.2-0.1-0.1,0.1c0.6,1.2,2,1.6,2.9,1
				C-258.8,417.6-258.8,417.6-258.8,417.6L-258.8,417.6z"/>
		</g>
		<g>
			<path d="M-259.8,418c-0.2,0-0.4,0-0.6-0.1c-0.6-0.2-1.1-0.6-1.4-1.2c-0.1-0.1-0.1-0.2,0-0.2c0,0,0.1,0,0.2,0.1
				c0.4,0.3,0.9,0.5,1.4,0.6c0.2,0.1,0.4,0.1,0.6,0.2c-0.5-0.5-0.6-1.3-0.7-1.8c0-0.1,0-0.2,0-0.2c0,0,0.1,0,0.2,0.1
				c0.5,0.3,0.8,0.8,0.8,1.2c0.1,0.5,0.3,0.7,0.6,0.9l0,0c0,0,0.1,0,0.1,0.1c0,0,0,0-0.1,0.1C-259.1,417.9-259.5,418-259.8,418z
				 M-261.8,416.5c0,0,0,0,0.1,0.1c0.3,0.6,0.8,1,1.4,1.2c0.5,0.2,1.1,0.1,1.5-0.2c0,0,0,0,0,0c0,0,0,0,0,0l0,0
				c-0.3-0.2-0.5-0.5-0.6-1c-0.1-0.4-0.4-0.8-0.8-1.2c-0.1-0.1-0.1-0.1-0.1-0.1c0,0,0,0,0,0.1c0.1,0.5,0.2,1.4,0.8,1.8l0,0
				c-0.2-0.1-0.5-0.2-0.7-0.2c-0.5-0.1-1-0.2-1.4-0.6C-261.8,416.5-261.8,416.5-261.8,416.5L-261.8,416.5z"/>
		</g>
		<g>
			<path class="st3" d="M-260.4,416.9c0-1-0.1-1.9-0.6-2.7c-0.1-0.1-0.1-0.1-0.1,0.1c0,0.8,0.1,1.5,0.4,2c0.1,0.1,0.1,0.2,0.2,0.3
				c-0.1,0-0.2-0.1-0.3-0.2c-0.5-0.9-1.4-1.4-1.5-1.6c0-0.1-0.1-0.1-0.1,0c0.1,1.1,1.2,2.2,2.1,2.2
				C-260.4,417-260.4,416.9-260.4,416.9L-260.4,416.9z"/>
		</g>
		<g>
			<path d="M-260.5,417C-260.5,417-260.5,417-260.5,417c-0.9,0-2-1.1-2.1-2.3c0-0.1,0-0.1,0.1-0.1c0,0,0.1,0,0.1,0.1
				c0.1,0.1,0.2,0.2,0.4,0.4c0.3,0.3,0.8,0.7,1.1,1.3c0,0.1,0.1,0.2,0.2,0.2c-0.1,0-0.1-0.1-0.1-0.2l0,0c-0.3-0.5-0.4-1.2-0.4-2
				c0-0.1,0-0.2,0.1-0.2c0,0,0,0,0,0c0,0,0.1,0,0.1,0.1c0.6,0.8,0.7,1.9,0.6,2.7C-260.4,416.9-260.4,416.9-260.5,417
				C-260.4,417-260.4,417-260.5,417z M-262.5,414.6C-262.5,414.6-262.5,414.6-262.5,414.6C-262.5,414.6-262.5,414.7-262.5,414.6
				c0.1,1.2,1.2,2.3,2,2.3c0,0,0,0,0,0c0,0,0,0,0.1,0c0,0,0,0,0,0l0,0c0-1.2-0.2-2-0.6-2.6c0,0,0-0.1-0.1-0.1c0,0,0,0,0,0
				c0,0,0,0,0,0.1c0,0.8,0.1,1.5,0.4,2l0,0c0.1,0.1,0.1,0.2,0.2,0.2l0.1,0l-0.1,0c-0.1,0-0.2,0-0.3-0.2c-0.3-0.6-0.8-1-1.1-1.3
				C-262.2,414.9-262.4,414.8-262.5,414.6C-262.5,414.7-262.5,414.6-262.5,414.6z"/>
		</g>
		<g>
			<path class="st3" d="M-261.4,415.2c-0.1-0.4,0-0.7,0.1-0.9c0.1-0.6,0.1-1.2-0.1-1.7c0-0.1-0.1-0.1-0.1,0
				c-0.2,0.8-0.4,1.6-0.1,1.9c-0.1,0-0.3-0.2-0.3-0.4c-0.1-0.2-0.3-0.6-0.5-0.8c-0.2-0.2-0.4-0.4-0.4-0.5c0-0.1-0.1-0.1-0.1,0.1
				C-263,413.8-262.3,414.9-261.4,415.2C-261.4,415.3-261.4,415.3-261.4,415.2L-261.4,415.2z"/>
		</g>
		<g>
			<path d="M-261.4,415.3C-261.4,415.3-261.5,415.3-261.4,415.3c-0.9-0.4-1.6-1.5-1.5-2.3c0-0.1,0-0.1,0.1-0.1c0,0,0,0,0.1,0.1
				c0,0.1,0.2,0.3,0.4,0.5c0.2,0.2,0.5,0.5,0.5,0.8c0,0.2,0.1,0.3,0.2,0.4c-0.2-0.4-0.1-1,0.1-1.7l0-0.1c0,0,0-0.1,0.1-0.1
				c0,0,0,0,0,0c0,0,0.1,0.1,0.1,0.1c0.2,0.5,0.3,1.1,0.1,1.7c0,0,0,0,0,0.1C-261.4,414.6-261.4,414.9-261.4,415.3L-261.4,415.3
				C-261.4,415.3-261.4,415.3-261.4,415.3C-261.4,415.3-261.4,415.3-261.4,415.3z M-262.9,412.9c0,0,0,0,0,0.1
				c-0.1,0.7,0.6,1.9,1.4,2.2c0,0,0.1,0,0.1,0l0,0l0,0c-0.1-0.4,0-0.6,0.1-0.8c0,0,0,0,0-0.1c0.1-0.6,0.1-1.2-0.1-1.7c0,0,0,0,0,0
				c0,0,0,0,0,0l0,0.1c-0.2,0.8-0.3,1.4,0,1.8l0,0.1l-0.1,0c-0.1,0-0.3-0.2-0.3-0.4c-0.1-0.2-0.3-0.6-0.5-0.8
				C-262.6,413.3-262.8,413-262.9,412.9C-262.9,412.9-262.9,412.9-262.9,412.9z"/>
		</g>
		<g>
			<path class="st3" d="M-261.9,413.8c0-0.2,0-0.6,0.1-0.9c0.1-0.3,0-0.7,0-0.9c-0.1-0.2-0.1-0.4-0.1-0.5c0-0.1-0.1-0.1-0.1,0
				c-0.2,0.5-0.2,1.4-0.1,1.7c0,0.1,0.1,0.2,0,0.2c-0.1,0-0.1,0-0.1-0.1c0-0.2-0.2-0.5-0.3-0.7c-0.2-0.2-0.2-0.4-0.3-0.6
				c0-0.1-0.2-0.3-0.2-0.4c0-0.1-0.1,0-0.1,0.1c0,1,0.5,1.5,0.8,1.8c0.1,0.1,0.2,0.3,0.2,0.3C-262,413.9-261.8,413.9-261.9,413.8
				L-261.9,413.8z"/>
		</g>
		<g>
			<path d="M-261.9,413.9c0,0-0.1,0-0.1-0.1c-0.1-0.2-0.2-0.3-0.2-0.3c-0.5-0.5-0.8-1.1-0.8-1.8c0,0,0-0.1,0.1-0.2c0,0,0,0,0.1,0
				c0,0,0,0,0.1,0.1c0.1,0.1,0.1,0.2,0.2,0.3c0,0.2,0.1,0.4,0.3,0.6c0.2,0.2,0.3,0.5,0.3,0.7c0,0,0,0.1,0,0.1c0,0,0,0,0,0
				c0,0,0-0.1,0-0.1c-0.1-0.2-0.1-1.2,0.1-1.7c0-0.1,0.1-0.1,0.1-0.1c0,0,0,0,0,0c0,0,0.1,0,0,0.1c0,0.1,0,0.3,0.1,0.5
				c0.1,0.2,0.1,0.6,0,0.9c-0.1,0.3-0.1,0.7-0.1,0.9l0,0C-261.8,413.9-261.9,413.9-261.9,413.9
				C-261.9,413.9-261.9,413.9-261.9,413.9z M-263,411.6c0,0,0,0.1,0,0.1c0,0.7,0.3,1.3,0.8,1.8c0.1,0.1,0.1,0.2,0.3,0.3
				c0,0,0.1,0.1,0.1,0.1c0,0,0,0,0,0c0,0,0,0,0-0.1l0,0c0-0.2,0-0.6,0.1-0.9c0.1-0.3,0-0.7,0-0.9c-0.1-0.2-0.1-0.4-0.1-0.5
				c0,0,0,0,0,0c0,0,0,0-0.1,0.1c-0.2,0.5-0.2,1.4-0.1,1.6c0.1,0.1,0.1,0.2,0,0.2c0,0,0,0-0.1,0c0,0-0.1-0.1-0.1-0.1
				c0-0.2-0.1-0.4-0.3-0.7c-0.2-0.2-0.2-0.5-0.3-0.6c0-0.1-0.1-0.2-0.2-0.3C-263,411.6-263,411.6-263,411.6
				C-263,411.6-263,411.6-263,411.6z"/>
		</g>
		<g>
			<path class="st3" d="M-262.3,412.5c0-0.7,0.1-1.5-0.3-2c-0.1-0.1-0.1-0.2-0.1,0c-0.1,0.7-0.1,1.4,0.3,2
				C-262.3,412.6-262.3,412.6-262.3,412.5L-262.3,412.5z"/>
		</g>
		<g>
			<path d="M-262.3,412.6c0,0-0.1,0-0.1-0.1c-0.3-0.5-0.4-1.2-0.3-2c0-0.1,0-0.1,0.1-0.1c0,0,0,0,0,0c0,0,0.1,0,0.1,0.1l0,0
				c0.3,0.5,0.3,1.2,0.3,1.9L-262.3,412.6L-262.3,412.6L-262.3,412.6C-262.3,412.5-262.3,412.6-262.3,412.6
				C-262.3,412.6-262.3,412.6-262.3,412.6z M-262.6,410.4C-262.6,410.4-262.6,410.4-262.6,410.4c-0.2,0.9-0.1,1.6,0.2,2.1
				c0,0.1,0.1,0.1,0.1,0.1c0,0,0,0,0,0l0-0.1C-262.3,411.6-262.3,411-262.6,410.4L-262.6,410.4
				C-262.6,410.4-262.6,410.4-262.6,410.4z"/>
		</g>
		<g>
			<path class="st4" d="M-228.2,385.4c0.9-2.7-0.6-7.5-5.6-7.5c5.6-1.8,10.2,3.5,8.6,8.4c-1.6,5-8.4,6.6-11.9,1.8
				C-233,391.2-229.1,388.2-228.2,385.4L-228.2,385.4z"/>
		</g>
		<g>
			<polygon class="st4" points="-239.1,377 -239.5,378.2 -240.7,378.2 -239.7,379 -240.1,380.2 -239.1,379.4 -238.1,380.2 
				-238.5,379 -237.4,378.2 -238.7,378.2 			"/>
		</g>
		<g>
			<polygon class="st4" points="-234.5,378.5 -234.9,379.7 -236.2,379.7 -235.2,380.4 -235.6,381.6 -234.5,380.9 -233.5,381.6 
				-233.9,380.4 -232.9,379.7 -234.2,379.7 			"/>
		</g>
		<g>
			<polygon class="st4" points="-241.9,385.9 -241.6,384.7 -242.6,384 -241.3,384 -240.9,382.8 -240.5,384 -239.3,383.9 
				-240.3,384.7 -239.9,385.9 -240.9,385.2 			"/>
		</g>
		<g>
			<polygon class="st4" points="-237.3,381.8 -236.1,381.8 -237.1,382.6 -236.7,383.8 -237.7,383 -238.8,383.8 -238.4,382.6 
				-239.4,381.8 -238.1,381.8 -237.7,380.6 			"/>
		</g>
		<g>
			<polygon class="st4" points="-237.4,387.4 -237,386.2 -238,385.4 -236.8,385.4 -236.4,384.2 -236,385.4 -234.7,385.4 
				-235.8,386.2 -235.4,387.4 -236.4,386.6 			"/>
		</g>
	</g>
</g>
</svg>
