<?xml version="1.0" encoding="utf-8"?>
<!-- Generator: Adobe Illustrator 19.0.0, SVG Export Plug-In . SVG Version: 6.00 Build 0)  -->
<svg version="1.1" id="Layer_1" xmlns="http://www.w3.org/2000/svg" xmlns:xlink="http://www.w3.org/1999/xlink" x="0px" y="0px"
	 viewBox="-269 374 72 46" style="enable-background:new -269 374 72 46;" xml:space="preserve">
<style type="text/css">
	.st0{clip-path:url(#SVGID_2_);}
	.st1{fill:#E40520;}
	.st2{fill:#FFFFFF;}
</style>
<g>
	<defs>
		<path id="SVGID_1_" d="M-204,420H-262c-3.8,0-7-3.1-7-7V381c0-3.8,3.1-7,7-7h58.1c3.8,0,7,3.1,7,7V413
			C-197,416.9-200.1,420-204,420z"/>
	</defs>
	<clipPath id="SVGID_2_">
		<use xlink:href="#SVGID_1_"  style="overflow:visible;"/>
	</clipPath>
	<g class="st0">
		<g>
			<polygon class="st1" points="-195.7,421.4 -195.7,371.6 -270.5,371.6 -270.5,421.4 			"/>
		</g>
		<g>
			<path d="M-195.6,421.5h-75v-50.1h75V421.5z M-270.4,421.3h74.5v-49.6h-74.5V421.3z"/>
		</g>
		<g>
			<path class="st2" d="M-233.1,409c6.9,0,12.5-5.6,12.5-12.5s-5.6-12.5-12.5-12.5c-6.9,0-12.5,5.6-12.5,12.5S-240,409-233.1,409
				L-233.1,409z"/>
		</g>
		<g>
			<path d="M-233.1,409.1c-6.9,0-12.6-5.7-12.6-12.6c0-6.9,5.7-12.6,12.6-12.6c6.9,0,12.6,5.7,12.6,12.6
				C-220.5,403.4-226.2,409.1-233.1,409.1z M-233.1,384.1c-6.8,0-12.4,5.5-12.4,12.4c0,6.8,5.5,12.4,12.4,12.4
				c6.8,0,12.4-5.5,12.4-12.4C-220.8,389.7-226.3,384.1-233.1,384.1z"/>
		</g>
		<g>
			<polygon class="st1" points="-231.5,391.2 -231.6,395.2 -235.5,396.3 -231.7,397.7 -231.9,401.6 -229.4,398.5 -225.7,399.9 
				-227.9,396.6 -225.4,393.5 -229.3,394.6 			"/>
		</g>
		<g>
			<path d="M-232,401.8l0.2-4.1l-3.9-1.4l4-1.1l0.2-4.1l0.1,0.2l2.2,3.3l4-1.1l-0.1,0.2l-2.5,3.1l2.3,3.5l-3.9-1.4L-232,401.8z
				 M-235.3,396.3l3.6,1.3l0,0l-0.2,3.8l2.4-3l3.6,1.3l-2.1-3.2l0,0l2.4-2.9l-3.7,1l0,0l-2.1-3.2l-0.1,3.8L-235.3,396.3z"/>
		</g>
		<g>
			<path class="st1" d="M-229.4,403.9c-0.2,0-0.4,0-0.6,0c-4.1,0-7.5-3.3-7.5-7.5c0-4.1,3.3-7.5,7.5-7.5c0.2,0,0.4,0,0.5,0
				c-1.1-0.5-2.3-0.8-3.7-0.8c-4.6,0-8.3,3.7-8.3,8.3s3.7,8.3,8.3,8.3C-231.8,404.8-230.6,404.5-229.4,403.9L-229.4,403.9z"/>
		</g>
		<g>
			<path d="M-233.1,404.8c-4.6,0-8.3-3.7-8.3-8.3c0-4.6,3.7-8.3,8.3-8.3c1.3,0,2.5,0.3,3.7,0.9l0,0.1c-0.2,0-0.3,0-0.5,0
				c-4.1,0-7.4,3.3-7.4,7.4c0,4.1,3.3,7.4,7.4,7.4c0.2,0,0.3,0,0.5,0l0,0.1C-230.6,404.6-231.8,404.8-233.1,404.8z M-233.1,388.3
				c-4.5,0-8.2,3.7-8.2,8.2c0,4.5,3.7,8.2,8.2,8.2c1.2,0,2.3-0.2,3.3-0.7c-0.1,0-0.2,0-0.2,0c-4.1,0-7.5-3.4-7.5-7.5
				s3.4-7.5,7.5-7.5c0.1,0,0.2,0,0.2,0C-230.8,388.5-232,388.3-233.1,388.3z"/>
		</g>
	</g>
</g>
</svg>
