<?xml version="1.0" encoding="utf-8"?>
<!-- Generator: Adobe Illustrator 19.0.0, SVG Export Plug-In . SVG Version: 6.00 Build 0)  -->
<svg version="1.1" id="Layer_1" xmlns="http://www.w3.org/2000/svg" xmlns:xlink="http://www.w3.org/1999/xlink" x="0px" y="0px"
	 viewBox="-269 374 72 46" style="enable-background:new -269 374 72 46;" xml:space="preserve">
<style type="text/css">
	.st0{clip-path:url(#SVGID_2_);}
	.st1{fill:#E40520;}
	.st2{fill:#FFFFFF;}
</style>
<g>
	<defs>
		<path id="SVGID_1_" d="M-204,420H-262c-3.8,0-7-3.1-7-7V381c0-3.8,3.1-7,7-7h58.1c3.8,0,7,3.1,7,7V413
			C-197,416.9-200.1,420-204,420z"/>
	</defs>
	<clipPath id="SVGID_2_">
		<use xlink:href="#SVGID_1_"  style="overflow:visible;"/>
	</clipPath>
	<g class="st0">
		<g>
			<polygon class="st1" points="-174.9,420.7 -174.9,373.3 -269.7,373.3 -269.7,420.7 			"/>
		</g>
		<g>
			<path d="M-174.8,420.8h-95v-47.6h95V420.8z M-269.5,420.6h94.5v-47.1h-94.5V420.6z"/>
		</g>
		<g>
			<polygon class="st2" points="-230.2,396.8 -230.2,373.3 -269.7,373.3 -269.7,396.8 			"/>
		</g>
		<g>
			<path d="M-230.1,396.9h-39.7v-23.7h39.7V396.9z M-269.5,396.6h39.2v-23.2h-39.2V396.6z"/>
		</g>
		<g>
			<polygon class="st1" points="-253.2,375.2 -253.2,381.7 -259.8,381.7 -259.8,388.3 -253.2,388.3 -253.2,394.9 -246.7,394.9 
				-246.7,388.3 -240.1,388.3 -240.1,381.7 -246.7,381.7 -246.7,375.2 			"/>
		</g>
		<g>
			<path d="M-246.5,395h-6.8v-6.6h-6.6v-6.8h6.6V375h6.8v6.6h6.6v6.8h-6.6V395z M-253.1,394.8h6.3v-6.6h6.6v-6.3h-6.6v-6.6h-6.3v6.6
				h-6.6v6.3h6.6V394.8z"/>
		</g>
	</g>
</g>
</svg>
