<?xml version="1.0" encoding="utf-8"?>
<!-- Generator: Adobe Illustrator 19.0.0, SVG Export Plug-In . SVG Version: 6.00 Build 0)  -->
<svg version="1.1" id="Layer_1" xmlns="http://www.w3.org/2000/svg" xmlns:xlink="http://www.w3.org/1999/xlink" x="0px" y="0px"
	 viewBox="-269 374 72 46" style="enable-background:new -269 374 72 46;" xml:space="preserve">
<style type="text/css">
	.st0{clip-path:url(#SVGID_2_);}
	.st1{fill:#DD322F;}
	.st2{fill:#FFFFFF;}
</style>
<g>
	<defs>
		<path id="SVGID_1_" d="M-204,420H-262c-3.8,0-7-3.1-7-7V381c0-3.8,3.1-7,7-7h58.1c3.8,0,7,3.1,7,7V413
			C-197,416.9-200.1,420-204,420z"/>
	</defs>
	<clipPath id="SVGID_2_">
		<use xlink:href="#SVGID_1_"  style="overflow:visible;"/>
	</clipPath>
	<g class="st0">
		<rect x="-269.5" y="371.7" class="st1" width="73.1" height="48.7"/>
		<polygon class="st2" points="-230.9,390.2 -228.2,393.8 -224,392.4 -226.6,396.1 -223.9,399.7 -228.2,398.3 -230.9,402 
			-230.9,397.5 -235.2,396.1 -230.9,394.7 		"/>
		<path class="st2" d="M-242.2,405.9c-5.3,0-9.6-4.4-9.6-9.9c0-5.4,4.3-9.9,9.6-9.9c3.3,0,6.2,1.7,7.9,4.3c-2-4-6.1-6.7-10.8-6.7
			c-6.7,0-12.2,5.5-12.2,12.3c0,6.8,5.5,12.3,12.2,12.3c5,0,9.3-3,11.2-7.4C-235.6,404-238.7,405.9-242.2,405.9z"/>
	</g>
</g>
</svg>
