<?xml version="1.0" encoding="utf-8"?>
<!-- Generator: Adobe Illustrator 19.0.0, SVG Export Plug-In . SVG Version: 6.00 Build 0)  -->
<svg version="1.1" id="Layer_1" xmlns="http://www.w3.org/2000/svg" xmlns:xlink="http://www.w3.org/1999/xlink" x="0px" y="0px"
	 viewBox="-269 374 72 46" style="enable-background:new -269 374 72 46;" xml:space="preserve">
<style type="text/css">
	.st0{clip-path:url(#SVGID_2_);}
	.st1{fill:#E40520;}
	.st2{fill:#FFFFFF;}
</style>
<g>
	<defs>
		<path id="SVGID_1_" d="M-204,420H-262c-3.8,0-7-3.1-7-7V381c0-3.8,3.1-7,7-7h58.1c3.8,0,7,3.1,7,7V413
			C-197,416.9-200.1,420-204,420z"/>
	</defs>
	<clipPath id="SVGID_2_">
		<use xlink:href="#SVGID_1_"  style="overflow:visible;"/>
	</clipPath>
	<g class="st0">
		<g>
			<polygon class="st1" points="-193.5,420.2 -193.5,372.8 -272.5,372.8 -272.5,420.2 			"/>
		</g>
		<g>
			<path d="M-193.4,420.3h-79.3v-47.7h79.3V420.3z M-272.4,420.1h78.8v-47.2h-78.8V420.1z"/>
		</g>
		<g>
			<polygon class="st2" points="-193.5,420.2 -248.3,372.8 -272.5,372.8 -217.7,420.2 			"/>
		</g>
		<g>
			<path d="M-193.5,420.3h-24.2l-0.1,0l-54.8-47.4l0.1-0.2h24.2l0.1,0l54.8,47.4L-193.5,420.3z M-217.6,420.1h23.8l-54.5-47.2h-23.8
				L-217.6,420.1z"/>
		</g>
		<g>
			<polygon points="-197.5,420.2 -252.4,372.8 -268.5,372.8 -213.6,420.2 			"/>
		</g>
		<g>
			<path d="M-197.5,420.3h-16.1l-0.1,0l-54.8-47.4l0.1-0.2h16.1l0.1,0l54.8,47.4L-197.5,420.3z M-213.6,420.1h15.7l-54.6-47.2h-15.7
				L-213.6,420.1z"/>
		</g>
	</g>
</g>
</svg>
