<?xml version="1.0" encoding="utf-8"?>
<!-- Generator: Adobe Illustrator 19.0.0, SVG Export Plug-In . SVG Version: 6.00 Build 0)  -->
<svg version="1.1" id="Layer_1" xmlns="http://www.w3.org/2000/svg" xmlns:xlink="http://www.w3.org/1999/xlink" x="0px" y="0px"
	 viewBox="-269 374 72 46" style="enable-background:new -269 374 72 46;" xml:space="preserve">
<style type="text/css">
	.st0{clip-path:url(#SVGID_2_);}
	.st1{fill:#FFFFFF;}
	.st2{fill:#FFFFFF;stroke:#000000;stroke-width:0.25;}
	.st3{fill:#E40520;}
	.st4{fill:#B2D7F3;}
	.st5{fill:#FBBA07;}
	.st6{fill:#00684E;}
	.st7{fill:#A64C01;}
	.st8{fill:#0097D9;}
</style>
<g>
	<defs>
		<path id="SVGID_1_" d="M-204,420H-262c-3.8,0-7-3.1-7-7V381c0-3.8,3.1-7,7-7h58.1c3.8,0,7,3.1,7,7V413
			C-197,416.9-200.1,420-204,420z"/>
	</defs>
	<clipPath id="SVGID_2_">
		<use xlink:href="#SVGID_1_"  style="overflow:visible;"/>
	</clipPath>
	<g class="st0">
		<g>
			<polygon class="st1" points="-174.2,420.6 -174.2,372.2 -271.1,372.2 -271.1,420.6 			"/>
			<path d="M-174.1,420.8h-97.1v-48.7h97.1V420.8z M-270.9,420.5h96.6v-48.2h-96.6V420.5z"/>
		</g>
		<g>
			<path class="st2" d="M-222.6,396.4"/>
		</g>
		<g>
			<polygon class="st3" points="-174.2,372.2 -271.1,372.2 -271.1,381.9 -174.2,381.9 			"/>
			<path d="M-174.1,382h-97.1v-9.9h97.1V382z M-270.9,381.8h96.6v-9.4h-96.6V381.8z"/>
		</g>
		<g>
			<polygon class="st3" points="-174.2,420.6 -271.1,420.6 -271.1,410.9 -174.2,410.9 			"/>
			<path d="M-174.1,420.8h-97.1v-9.9l97.1,0V420.8z M-270.9,420.5h96.6v-9.4l-96.6,0V420.5z"/>
		</g>
		<g>
			<polygon class="st4" points="-266.2,409 -174.2,409 -174.2,383.8 -266.2,383.8 -234.8,396.4 			"/>
			<path d="M-266.2,409.1l0-0.2l31.2-12.5l-31.2-12.5l0-0.2h92.1v25.4L-266.2,409.1z M-265.6,383.9l31.2,12.5l-0.3,0.1l-30.9,12.3
				l91.2,0v-24.9H-265.6z"/>
		</g>
		<g>
			<polygon class="st1" points="-186.6,372.6 -187.4,374.9 -189.8,374.9 -187.8,376.4 -188.6,378.7 -186.6,377.3 -184.6,378.7 
				-185.4,376.4 -183.4,374.9 -185.8,374.9 			"/>
			<path d="M-188.8,379l0.9-2.6l-2.2-1.6h2.8l0.8-2.6l0.9,2.6h2.8l-2.2,1.6l0.8,2.6l-2.2-1.6L-188.8,379z M-186.6,377.1l1.7,1.3
				l-0.7-2.1l0.1-0.1l1.7-1.2h-2.2l-0.7-2.1l-0.7,2h-2.2l1.8,1.3l-0.7,2L-186.6,377.1z"/>
		</g>
		<g>
			<path class="st2" d="M-186.6,376"/>
		</g>
		<g>
			<polygon class="st1" points="-196.5,375.3 -197.3,377.6 -199.7,377.6 -197.7,379.1 -198.5,381.4 -196.5,379.9 -194.5,381.4 
				-195.3,379 -193.3,377.6 -195.8,377.6 			"/>
			<path d="M-198.7,381.7l0.9-2.6l-2.2-1.6h2.8l0.8-2.6l0.9,2.6h2.8l-2.2,1.6l0.8,2.6l-2.2-1.6L-198.7,381.7z M-196.5,379.8l1.7,1.3
				l-0.7-2.1l0.1-0.1l1.7-1.2h-2.2l-0.7-2.1l-0.7,2h-2.2l1.8,1.3l-0.7,2L-196.5,379.8z"/>
		</g>
		<g>
			<path class="st2" d="M-196.5,378.7"/>
		</g>
		<g>
			<polygon class="st1" points="-191.8,385.9 -192.5,388.2 -195,388.2 -193,389.6 -193.7,392 -191.8,390.5 -189.8,392 -190.5,389.6 
				-188.5,388.2 -191,388.2 			"/>
			<path d="M-194,392.3l0.9-2.6l-2.2-1.6h2.8l0.8-2.6l0.9,2.6h2.8l-2.2,1.6l0.8,2.6l-2.2-1.6L-194,392.3z M-191.8,390.4l1.7,1.3
				l-0.7-2.1l0.1-0.1l1.7-1.2h-2.2l-0.7-2.1l-0.7,2h-2.2l1.8,1.3l-0.7,2L-191.8,390.4z"/>
		</g>
		<g>
			<path class="st2" d="M-191.8,389.2"/>
		</g>
		<g>
			<polygon class="st1" points="-191.4,395.2 -192.1,397.5 -194.6,397.5 -192.6,399 -193.3,401.3 -191.4,399.8 -189.4,401.3 
				-190.1,398.9 -188.2,397.5 -190.6,397.5 			"/>
			<path d="M-193.6,401.6l0.9-2.6l-2.2-1.6h2.8l0.8-2.6l0.9,2.6h2.8l-2.2,1.6l0.8,2.6l-2.2-1.6L-193.6,401.6z M-191.4,399.7l1.7,1.3
				l-0.7-2.1l0.1-0.1l1.7-1.2h-2.2l-0.7-2.1l-0.7,2h-2.2l1.8,1.3l-0.7,2L-191.4,399.7z"/>
		</g>
		<g>
			<path class="st2" d="M-191.4,398.5"/>
		</g>
		<g>
			<polygon class="st1" points="-201.1,401.3 -201.8,403.6 -204.3,403.6 -202.3,405.1 -203.1,407.4 -201.1,406 -199.1,407.4 
				-199.9,405.1 -197.9,403.7 -200.3,403.7 			"/>
			<path d="M-203.3,407.8l0.9-2.6l-2.2-1.6h2.8l0.8-2.6l0.9,2.6h2.8l-2.2,1.6l0.8,2.6l-2.2-1.6L-203.3,407.8z M-201.1,405.8l1.7,1.3
				l-0.7-2.1l0.1-0.1l1.7-1.2h-2.2l-0.7-2.1l-0.7,2h-2.2l1.8,1.3l-0.7,2L-201.1,405.8z"/>
		</g>
		<g>
			<path class="st2" d="M-201.1,404.7"/>
		</g>
		<g>
			<polygon class="st1" points="-209,395.5 -209.8,397.9 -212.2,397.9 -210.2,399.3 -211,401.6 -209,400.2 -207,401.6 -207.8,399.3 
				-205.8,397.9 -208.3,397.9 			"/>
			<path d="M-211.2,402l0.9-2.6l-2.2-1.6h2.8l0.8-2.6l0.9,2.6h2.8l-2.2,1.6l0.8,2.6l-2.2-1.6L-211.2,402z M-209,400l1.7,1.3
				l-0.7-2.1l0.1-0.1l1.7-1.2h-2.2l-0.7-2.1l-0.7,2h-2.2l1.8,1.3l-0.7,2L-209,400z"/>
		</g>
		<g>
			<path class="st2" d="M-209,398.9"/>
		</g>
		<g>
			<polygon class="st1" points="-211.5,412.1 -212.3,414.5 -214.8,414.5 -212.8,415.9 -213.5,418.2 -211.5,416.8 -209.6,418.2 
				-210.3,415.9 -208.3,414.5 -210.8,414.5 			"/>
			<path d="M-213.8,418.6l0.9-2.6l-2.2-1.6h2.8l0.8-2.6l0.9,2.6h2.8l-2.2,1.6l0.8,2.6l-2.2-1.6L-213.8,418.6z M-211.5,416.6l1.7,1.3
				l-0.7-2.1l0.1-0.1l1.7-1.2h-2.2l-0.7-2.1l-0.7,2h-2.2l1.8,1.3l-0.7,2L-211.5,416.6z"/>
		</g>
		<g>
			<path class="st2" d="M-211.5,415.5"/>
		</g>
		<g>
			<polygon class="st1" points="-219.8,413.1 -220.5,415.5 -223,415.5 -221,416.9 -221.7,419.2 -219.8,417.8 -217.8,419.2 
				-218.5,416.9 -216.6,415.5 -219,415.5 			"/>
			<path d="M-222,419.6l0.9-2.6l-2.2-1.6h2.8l0.8-2.6l0.9,2.6h2.8l-2.2,1.6l0.8,2.6l-2.2-1.6L-222,419.6z M-219.8,417.6l1.7,1.3
				l-0.7-2.1l1.7-1.2h-2.2l-0.7-2.1l-0.7,2h-2.2l1.8,1.3l-0.7,2L-219.8,417.6z"/>
		</g>
		<g>
			<path class="st2" d="M-219.8,416.5"/>
		</g>
		<g>
			<path class="st5" d="M-257.5,389.1c0,1.6,0,2.5,0,5.2c0,3.1-1.7,5.8-5.3,7.6c-3.6-1.8-5.3-4.5-5.3-7.6c0-2.8,0-3.6,0-5.2H-257.5
				L-257.5,389.1z"/>
			<path d="M-262.7,402.1L-262.7,402.1c-3.6-1.8-5.4-4.5-5.4-7.8V389h10.8v5.4C-257.3,397.6-259.2,400.3-262.7,402.1L-262.7,402.1z
				 M-267.9,389.3v5.1c0,3.2,1.8,5.7,5.2,7.5c3.4-1.8,5.2-4.3,5.2-7.5v-5.1H-267.9z"/>
		</g>
		<g>
			<path class="st4" d="M-259.3,394.3c0-1.6,0-2.5,0-3.5h-6.9c0,1,0,1.9,0,3.5H-259.3L-259.3,394.3z"/>
			<path d="M-259.1,394.4h-7.2v-3.7h7.2V394.4z M-266.1,394.2h6.7v-3.2h-6.7V394.2z"/>
		</g>
		<g>
			<path class="st5" d="M-262.7,399.6c2.3-1.2,3.4-2.9,3.5-4.9h-6.9C-266.1,396.7-265,398.4-262.7,399.6"/>
			<path d="M-262.7,399.8L-262.7,399.8c-2.3-1.2-3.5-2.9-3.6-5l0-0.1h7.2l0,0.1C-259.2,396.9-260.4,398.6-262.7,399.8L-262.7,399.8z
				 M-266.1,394.9c0.1,1.9,1.3,3.5,3.3,4.6c2.1-1.1,3.2-2.7,3.3-4.6H-266.1z"/>
		</g>
		<g>
			<path class="st6" d="M-259.3,394.8c0-0.1,0-0.1,0-0.2c0-0.1,0-0.2,0-0.3h-6.9c0,0.1,0,0.2,0,0.3c0,0.1,0,0.1,0,0.2H-259.3
				L-259.3,394.8z"/>
			<path d="M-259.2,394.9h-7.2l0-0.1c0-0.1,0-0.1,0-0.2v-0.4h7.2v0.4c0,0.1,0,0.1,0,0.2L-259.2,394.9z M-266.1,394.6h6.7
				c0,0,0,0,0,0v-0.2h-6.7V394.6C-266.1,394.6-266.1,394.6-266.1,394.6z"/>
		</g>
		<g>
			<polygon class="st5" points="-265.6,393.5 -264.2,392.2 -262.8,393.5 			"/>
			<path d="M-262.7,393.5h-3l1.5-1.3L-262.7,393.5z M-265.5,393.5h2.7l-1.3-1.2L-265.5,393.5z"/>
		</g>
		<g>
			<polygon class="st5" points="-262.8,393.5 -264.2,392.2 -260.9,392.4 -259.6,393.5 			"/>
			<path d="M-259.6,393.5h-3.3l-1.5-1.3l3.4,0.2l0,0L-259.6,393.5z M-262.8,393.5h3.1l-1.2-1l-3.2-0.2L-262.8,393.5z"/>
		</g>
		<g>
			<polygon class="st7" points="-262.8,393.5 -265.4,393.5 -265.4,394.3 -262.8,394.3 			"/>
			<path d="M-262.8,394.3h-2.7v-0.9h2.7V394.3z M-265.4,394.3h2.6v-0.7h-2.6V394.3z"/>
		</g>
		<g>
			<polygon class="st7" points="-262.8,394.3 -259.9,394.3 -259.9,393.5 -262.8,393.5 			"/>
			<path d="M-259.9,394.3h-3v-0.9h3V394.3z M-262.8,394.3h2.8v-0.7h-2.8V394.3z"/>
		</g>
		<g>
			<polygon points="-265.1,393.5 -265.1,394.3 -265.3,394.3 -265.3,393.5 			"/>
			<path d="M-265,394.3h-0.3v-0.9h0.3V394.3z M-265.3,394.3h0.2v-0.7h-0.2V394.3z"/>
		</g>
		<g>
			<polygon points="-264.3,393.5 -264.3,394.3 -264.5,394.3 -264.5,393.5 			"/>
			<path d="M-264.2,394.3l-0.3,0v-0.9l0.3,0V394.3z M-264.4,394.3l0.1,0v-0.7l-0.1,0V394.3z"/>
		</g>
		<g>
			<polygon points="-263.3,393.5 -263.3,394.3 -263.5,394.3 -263.5,393.5 			"/>
			<path d="M-263.2,394.3h-0.3v-0.9h0.3V394.3z M-263.5,394.3h0.2v-0.7h-0.2V394.3z"/>
		</g>
		<g>
			<polygon points="-261.8,393.5 -261.8,394.3 -262,394.3 -262,393.5 			"/>
			<path d="M-261.7,394.3h-0.3v-0.9h0.3V394.3z M-262,394.3h0.2v-0.7h-0.2V394.3z"/>
		</g>
		<g>
			<polygon points="-260.8,393.5 -260.8,394.3 -261,394.3 -261,393.5 			"/>
			<path d="M-260.7,394.3h-0.3v-0.9h0.3V394.3z M-260.9,394.3h0.2v-0.7h-0.2V394.3z"/>
		</g>
		<g>
			<polygon points="-259.9,393.5 -259.9,394.3 -260.1,394.3 -260.1,393.5 			"/>
			<rect x="-260.1" y="393.5" width="0.3" height="0.9"/>
		</g>
		<g>
			<polygon points="-263.7,393.5 -263.7,393.9 -264,393.9 -264,393.5 			"/>
			<rect x="-264.1" y="393.5" width="0.4" height="0.5"/>
		</g>
		<g>
			<polygon points="-262.2,393.5 -262.2,393.9 -262.6,393.9 -262.6,393.5 			"/>
			<rect x="-262.6" y="393.5" width="0.4" height="0.5"/>
		</g>
		<g>
			<polygon points="-261.2,393.5 -261.2,393.9 -261.5,393.9 -261.5,393.5 			"/>
			<rect x="-261.5" y="393.5" width="0.4" height="0.5"/>
		</g>
		<g>
			<polygon points="-260.3,393.5 -260.3,394 -260.6,394 -260.6,393.5 			"/>
			<rect x="-260.6" y="393.5" width="0.4" height="0.5"/>
		</g>
		<g>
			<polygon points="-264.6,393.5 -264.6,393.9 -264.9,393.9 -264.9,393.5 			"/>
			<rect x="-264.9" y="393.5" width="0.3" height="0.5"/>
		</g>
		<g>
			<polygon class="st1" points="-259.9,394.3 -265.4,394.3 -265.6,394.5 -259.6,394.5 			"/>
			<path d="M-259.5,394.5h-6.2l0.3-0.2h5.6l0,0L-259.5,394.5z M-265.6,394.4h5.8l-0.2-0.1h-5.5L-265.6,394.4z"/>
		</g>
		<g>
			<path class="st8" d="M-260.3,395.3c-0.4-0.1-1.1-0.2-1.6,0.1c-0.5,0.3-1,0.3-1.5,0c-0.5-0.2-1.1-0.2-1.5-0.1
				c-0.4,0.1-0.8,0.2-1.3,0c0,0.2,0.1,0.4,0.1,0.6c0.3,0,0.6,0,0.9-0.1c0.5-0.2,1.1-0.1,1.6,0.1c0.5,0.3,1.1,0.3,1.6,0
				c0.6-0.3,1.2-0.2,1.6-0.1c0.4,0.1,0.6,0.2,0.8,0.2c0.1-0.2,0.1-0.4,0.1-0.7C-259.6,395.5-260,395.4-260.3,395.3L-260.3,395.3z"/>
			<path d="M-262.7,396.3c-0.3,0-0.6-0.1-0.9-0.2c-0.5-0.3-1.1-0.3-1.5-0.1c-0.4,0.1-0.6,0.2-1,0.1l-0.1,0l0-0.1
				c-0.1-0.2-0.1-0.4-0.1-0.7l0-0.2l0.2,0c0.4,0.1,0.8,0.1,1.2,0c0.6-0.2,1.1-0.1,1.6,0.1c0.6,0.3,0.9,0.2,1.4,0
				c0.6-0.3,1.3-0.2,1.7-0.1l0,0c0.3,0.1,0.7,0.2,0.9,0.1l0.2-0.1l0,0.2c0,0.2-0.1,0.5-0.1,0.7l0,0.1l-0.1,0c-0.2,0-0.4,0-0.7-0.1
				l-0.2,0c-0.3-0.1-0.9-0.2-1.5,0.1C-262.1,396.2-262.4,396.3-262.7,396.3z M-264.5,395.6c0.3,0,0.7,0.1,1.1,0.3
				c0.5,0.3,1,0.3,1.5,0c0.7-0.3,1.4-0.2,1.7-0.1l0.2,0c0.2,0.1,0.4,0.1,0.5,0.1c0-0.1,0.1-0.3,0.1-0.4c-0.3,0-0.6,0-0.9-0.1
				c-0.3-0.1-1-0.2-1.5,0.1c-0.6,0.3-1.1,0.3-1.6,0c-0.4-0.2-0.9-0.2-1.4-0.1c-0.4,0.1-0.8,0.1-1.2,0.1c0,0.1,0,0.2,0.1,0.4
				c0.3,0,0.5,0,0.8-0.1C-265,395.6-264.7,395.6-264.5,395.6z"/>
		</g>
		<g>
			<path class="st8" d="M-259.7,396.7c-0.3,0-0.7-0.2-0.9-0.2c-0.3-0.1-0.7-0.2-1.3,0.1c-0.6,0.3-1.1,0.2-1.7,0
				c-0.6-0.3-1-0.3-1.3-0.1c-0.3,0.1-0.5,0.2-0.9,0.2c0.1,0.2,0.2,0.4,0.3,0.6c0.2,0,0.4,0,0.6-0.1c0.3-0.1,0.8-0.2,1.3,0
				c0.6,0.2,0.9,0.3,1.5,0.1c0.6-0.2,0.9-0.3,1.2-0.2c0.3,0.2,0.6,0.3,0.8,0.3C-259.9,397.1-259.8,396.9-259.7,396.7L-259.7,396.7z"
				/>
			<path d="M-262.7,397.4c-0.3,0-0.6-0.1-0.9-0.2c-0.4-0.2-0.9-0.1-1.2,0c-0.2,0.1-0.4,0.1-0.7,0.1l-0.1,0l0-0.1
				c-0.1-0.2-0.2-0.4-0.3-0.6l-0.1-0.2l0.2,0c0.3,0,0.5,0,0.8-0.2c0.4-0.2,0.9-0.2,1.5,0.1c0.5,0.2,1,0.3,1.6,0
				c0.6-0.3,1-0.3,1.4-0.1l0.1,0c0.2,0.1,0.6,0.2,0.8,0.2l0.2,0l-0.1,0.2c-0.1,0.2-0.2,0.4-0.3,0.6l0,0.1l-0.1,0
				c-0.2,0-0.5-0.1-0.9-0.3c-0.2-0.1-0.5-0.1-1.1,0.2C-262.3,397.4-262.5,397.4-262.7,397.4z M-264.2,396.9c0.2,0,0.5,0,0.7,0.1
				c0.6,0.2,0.8,0.3,1.4,0.1c0.7-0.3,1-0.3,1.3-0.2c0.3,0.1,0.5,0.2,0.7,0.2c0.1-0.1,0.1-0.2,0.2-0.3c-0.2,0-0.5-0.1-0.7-0.2l-0.1,0
				c-0.3-0.1-0.6-0.2-1.2,0.1c-0.6,0.3-1.1,0.3-1.8,0c-0.5-0.2-0.9-0.3-1.2-0.1c-0.2,0.1-0.5,0.2-0.7,0.2c0.1,0.1,0.1,0.2,0.2,0.3
				c0.2,0,0.3,0,0.5-0.1C-264.7,396.9-264.5,396.9-264.2,396.9z"/>
		</g>
		<g>
			<path class="st8" d="M-260.5,397.9c-0.2,0-0.5-0.1-0.7-0.2c-0.2-0.1-0.6-0.1-1,0.1c-0.4,0.2-0.8,0.1-1.1,0
				c-0.4-0.2-0.7-0.2-1-0.1c-0.3,0.1-0.4,0.1-0.7,0.1c0.2,0.2,0.4,0.4,0.6,0.6c0.1,0,0.3-0.1,0.4-0.1c0.3-0.1,0.6-0.1,0.8,0
				c0.3,0.1,0.5,0.2,0.8,0c0.4-0.2,0.6-0.1,0.9-0.1c0.2,0.1,0.3,0.1,0.5,0.1C-260.8,398.3-260.6,398.1-260.5,397.9L-260.5,397.9z"/>
			<path d="M-262.8,398.6c-0.2,0-0.4-0.1-0.5-0.2c-0.2-0.1-0.5-0.1-0.7,0c-0.1,0.1-0.3,0.1-0.4,0.1l-0.1,0l0,0
				c-0.2-0.2-0.4-0.4-0.6-0.6l-0.1-0.2l0.2,0c0.2,0,0.3,0,0.5-0.1c0.1,0,0.1,0,0.2,0c0.4-0.1,0.7-0.1,1.1,0.1c0.4,0.2,0.7,0.2,1.1,0
				c0.4-0.2,0.8-0.2,1.1-0.1c0.3,0.1,0.5,0.1,0.6,0.1l0.3,0l-0.2,0.2c-0.2,0.2-0.3,0.4-0.5,0.6l0,0l-0.1,0c-0.2,0-0.3-0.1-0.6-0.1
				c-0.2-0.1-0.4-0.1-0.8,0C-262.5,398.6-262.6,398.6-262.8,398.6z M-263.7,398.1c0.2,0,0.3,0,0.5,0.1c0.2,0.1,0.4,0.2,0.7,0
				c0.4-0.2,0.8-0.1,1-0.1c0.2,0.1,0.3,0.1,0.4,0.1c0.1-0.1,0.2-0.2,0.3-0.3c-0.1,0-0.3-0.1-0.5-0.1c-0.2-0.1-0.5-0.1-0.9,0.1
				c-0.4,0.2-0.8,0.2-1.2,0c-0.4-0.2-0.6-0.1-1-0.1c-0.1,0-0.2,0-0.2,0c-0.1,0-0.2,0-0.3,0.1c0.1,0.1,0.2,0.3,0.4,0.4
				c0.1,0,0.2-0.1,0.3-0.1C-264,398.1-263.8,398.1-263.7,398.1z"/>
		</g>
		<g>
			<path class="st8" d="M-262.3,398.9c-0.2,0.1-0.4,0.1-0.6,0c-0.2-0.1-0.5,0-0.9,0.1c0.2,0.2,0.5,0.3,0.8,0.5
				c0.2-0.2,0.4-0.2,0.7-0.1c0.2-0.1,0.5-0.3,0.7-0.4C-261.9,398.8-262.1,398.8-262.3,398.9L-262.3,398.9z"/>
			<path d="M-263,399.6L-263,399.6c-0.3-0.2-0.6-0.4-0.8-0.5l-0.2-0.1l0.2-0.1c0.4-0.1,0.7-0.2,1-0.1c0.2,0.1,0.3,0.1,0.5,0l0,0
				c0.2-0.1,0.5,0,0.7,0.1l0.2,0.1l-0.2,0.1c-0.2,0.2-0.4,0.3-0.7,0.5l-0.1,0l-0.1,0C-262.7,399.4-262.8,399.4-263,399.6L-263,399.6
				z M-263.5,399c0.1,0.1,0.3,0.2,0.5,0.3c0.2-0.2,0.4-0.2,0.7,0c0.1-0.1,0.3-0.2,0.4-0.3c-0.1,0-0.2,0-0.3,0l0,0
				c-0.2,0.1-0.4,0.1-0.7,0C-263.1,398.9-263.3,398.9-263.5,399z"/>
		</g>
		<g>
			<path class="st6" d="M-266.3,389.6l0-0.1c-0.1,0-0.2,0-0.3,0.1c0,0-0.1,0.1-0.1,0.1c0,0,0,0,0,0l0,0c-0.1,0-0.2,0.1-0.2,0.1
				c0,0,0,0.1-0.1,0.2c0,0,0,0-0.1-0.1c-0.1,0.1-0.2,0.2-0.2,0.3c0,0,0,0.1,0,0.2c0,0,0-0.1-0.1-0.1c-0.2,0.2-0.3,0.4-0.3,0.6
				c0,0.1,0.1,0.2,0.1,0.3c0.1,0,0.3,0,0.4,0c0,0,0.1,0,0.1-0.1c0-0.1,0-0.2,0.1-0.3c0,0,0.1,0,0.1,0c0.1-0.1,0.2-0.2,0.2-0.3
				c0,0,0-0.1,0-0.1c0,0,0.1,0,0.1,0c0.1-0.1,0.2-0.2,0.2-0.3c0,0,0-0.1-0.1-0.1c0,0,0.1,0,0.1,0c0.1-0.1,0.2-0.2,0.3-0.3
				C-266.2,389.6-266.2,389.6-266.3,389.6L-266.3,389.6z"/>
			<path d="M-267.1,391.1L-267.1,391.1c-0.1,0-0.3,0-0.3,0l0,0l0,0c0-0.1-0.1-0.2-0.1-0.3c0,0,0,0,0-0.1l0,0l0,0
				c0-0.1,0.1-0.4,0.3-0.6l0,0l0,0c0,0,0-0.1,0-0.1l0,0c0,0,0.1-0.2,0.2-0.3l0,0l0,0c0,0,0,0,0,0c0,0,0-0.1,0-0.1l0,0l0,0
				c0,0,0.1-0.1,0.2-0.1l0,0l0,0c0,0,0.1-0.1,0.1-0.1l0,0c0.1,0,0.2,0,0.3-0.1l0,0l0,0.2l0,0c0,0,0.1,0.1,0.1,0.1l0,0l0,0
				c0,0-0.1,0.1-0.1,0.2c0,0.1-0.1,0.1-0.1,0.2l0,0l0,0c0,0,0,0,0,0c0,0,0,0,0,0.1l0,0l0,0c0,0.1-0.1,0.2-0.2,0.3l0,0l0,0
				c0,0,0,0,0,0c0,0,0,0,0,0c0,0,0,0,0,0l0,0l0,0c-0.1,0-0.2,0.2-0.2,0.3l0,0l0,0c0,0,0,0,0,0c0,0.1,0,0.2,0,0.3l0,0l0,0
				C-267,391-267.1,391.1-267.1,391.1L-267.1,391.1z M-267.3,391c0.1,0,0.1,0,0.2,0c0,0,0.1,0,0.1,0c0-0.1,0-0.2,0.1-0.3l0,0l0,0
				c0,0,0,0,0,0c0.1-0.1,0.2-0.2,0.2-0.2c0,0,0,0,0,0c0,0,0,0,0-0.1l0,0h0.1c0,0,0,0,0.1,0c0,0,0,0,0,0c0.1-0.1,0.1-0.2,0.2-0.2
				c0,0,0-0.1,0-0.1l0,0l0,0c0,0,0.1,0,0.1,0c0,0,0.1-0.1,0.1-0.1c0,0,0.1-0.1,0.1-0.1c0,0-0.1,0-0.1-0.1l0,0l0-0.1
				c-0.1,0-0.2,0-0.2,0c0,0-0.1,0.1-0.1,0.1c0,0,0,0,0,0c0,0,0,0,0,0l0,0c-0.1,0-0.1,0.1-0.2,0.1c0,0,0,0.1-0.1,0.2l0,0l0,0
				c0,0,0,0-0.1,0c-0.1,0.1-0.2,0.2-0.2,0.2c0,0,0,0.1,0,0.2l0,0.1l-0.1-0.1c0,0,0,0,0-0.1c-0.2,0.2-0.2,0.4-0.2,0.5c0,0,0,0,0,0
				c0,0.1,0.1,0.2,0.1,0.2C-267.4,391-267.4,391-267.3,391z"/>
		</g>
		<g>
			<path d="M-267.6,391.5c0-0.5,0.7-1.5,1.3-1.9C-266.6,389.8-267.5,390.7-267.6,391.5C-267.6,391.5-267.6,391.5-267.6,391.5
				L-267.6,391.5z"/>
			<path d="M-267.6,391.5L-267.6,391.5C-267.6,391.5-267.6,391.5-267.6,391.5C-267.6,391.5-267.6,391.5-267.6,391.5l-0.1,0
				L-267.6,391.5c0-0.9,0.9-1.8,1.3-2l0,0.1C-266.8,390-267.5,391-267.6,391.5L-267.6,391.5z"/>
		</g>
		<g>
			<path class="st1" d="M-265.7,389.9c-0.2,0.1-0.3,0.2-0.4,0.3c0.1,0.3,0.5,0.4,0.6,0.4c0.1,0,0.2,0,0.3,0c0.1,0,0.2,0,0.3-0.2
				c0.3,0.1,0.4-0.1,0.6-0.2c0.2,0,0.2,0,0.3,0c0.1,0,0.1,0,0.2,0c0.1,0,0.2,0,0.3-0.1c0-0.1-0.1-0.3-0.3-0.3c-0.1,0-0.2,0-0.2-0.1
				s-0.2-0.1-0.3-0.1c-0.2-0.2-0.3-0.1-0.4-0.1c-0.1-0.1-0.3-0.1-0.4,0c-0.1,0-0.1,0.1-0.2,0.1
				C-265.6,389.6-265.7,389.7-265.7,389.9L-265.7,389.9z"/>
			<path d="M-265.5,390.6c-0.2,0-0.5-0.1-0.6-0.4l0,0l0,0c0.1-0.1,0.2-0.2,0.4-0.3c0-0.2,0.2-0.3,0.2-0.3c0,0,0,0,0.1,0
				c0,0,0,0,0.1-0.1c0.1,0,0.3-0.1,0.4,0c0.1-0.1,0.3-0.1,0.4,0.1c0.1,0,0.3,0,0.4,0.1c0.1,0,0.1,0.1,0.2,0.1c0.1,0,0.2,0.1,0.3,0.2
				c0,0,0,0.1,0,0.1c0,0.1-0.2,0.2-0.3,0.2c-0.1,0-0.1,0-0.2,0c-0.1,0-0.1,0-0.3,0c-0.1,0.1-0.3,0.2-0.6,0.2
				c-0.1,0.1-0.2,0.2-0.3,0.2c-0.1,0-0.1,0-0.2,0C-265.4,390.6-265.5,390.6-265.5,390.6C-265.5,390.6-265.5,390.6-265.5,390.6z
				 M-266.1,390.2c0.1,0.3,0.5,0.4,0.6,0.3c0,0,0,0,0.1,0c0.1,0,0.1,0,0.2,0c0,0,0,0,0,0c0.1,0,0.1-0.1,0.2-0.2l0,0l0,0
				c0.2,0.1,0.4-0.1,0.5-0.1l0,0l0,0c0.1,0,0.2,0,0.3,0c0.1,0,0.2-0.1,0.2,0c0,0,0.2,0,0.2-0.1c0,0,0-0.1,0-0.1
				c-0.1-0.1-0.1-0.1-0.2-0.1c-0.1,0-0.2,0-0.3-0.1c-0.1,0-0.2-0.1-0.3-0.1l0,0l0,0c-0.2-0.2-0.3-0.1-0.3-0.1l0,0l0,0
				c-0.1-0.1-0.3-0.1-0.4,0c0,0-0.1,0-0.1,0.1c0,0,0,0-0.1,0.1c-0.1,0-0.2,0.1-0.2,0.3v0l0,0C-265.9,390-266,390.1-266.1,390.2z"/>
		</g>
		<g>
			<path class="st7" d="M-264.4,390.2c-0.1,0.1-0.3,0.2-0.6,0.2c0-0.1,0-0.3-0.2-0.3c0.1,0,0.2,0.1,0.2,0.2c0-0.1,0-0.2-0.1-0.2
				c0.1,0.1,0.1,0.2,0.2,0.2c0-0.1,0-0.2-0.1-0.3c0.1,0.1,0.1,0.1,0.2,0.2c0,0,0,0,0,0c0,0,0-0.1,0-0.1s0-0.1,0,0
				c0,0,0.1,0.1,0.1,0.1c0,0,0.1-0.1,0-0.1s0-0.1,0,0C-264.5,390.1-264.5,390.2-264.4,390.2L-264.4,390.2z"/>
			<path d="M-264.8,390.4c-0.1,0-0.1,0-0.2,0l0,0l0,0c0-0.1,0-0.2-0.2-0.3l0-0.1c0,0,0.1,0.1,0.2,0.1c0,0,0,0,0-0.1l0,0l0,0l0.1,0
				l0,0l0,0c0,0.1,0.1,0.1,0.1,0.2c0-0.1,0-0.1-0.1-0.2l0,0c0.1,0.1,0.1,0.1,0.1,0.1c0,0,0,0,0,0c0,0,0-0.1,0-0.1c0,0,0.1,0,0.1,0
				c0,0,0.1,0.1,0.1,0.1c0,0,0,0,0,0c0,0,0-0.1,0-0.1c0,0,0.1,0,0.1,0.1c0,0.1,0.1,0.1,0.1,0.1l0.1,0l0,0l0,0l0,0
				C-264.5,390.3-264.6,390.4-264.8,390.4z M-264.9,390.4c0.2,0.1,0.4,0,0.5-0.1c0,0-0.1,0-0.1-0.1c0,0,0,0,0,0c0,0,0,0-0.1,0.1l0,0
				l0,0c0,0,0,0,0,0c0,0,0,0,0,0c0,0,0,0.1,0,0.1c0,0,0,0,0,0c0,0-0.1,0-0.1-0.1c0,0,0,0,0,0c0,0,0,0.1,0,0.1l0,0l0,0
				c0,0,0,0-0.1-0.1c0,0,0,0,0,0l-0.1,0C-264.9,390.3-264.9,390.3-264.9,390.4z"/>
		</g>
		<g>
			<path class="st7" d="M-264.9,389.5c-0.1-0.1-0.3-0.1-0.4,0c-0.1,0-0.1,0.1-0.2,0.1c-0.1,0-0.2,0.1-0.2,0.3c0.1,0,0.1,0,0.2,0
				c0,0,0.1,0,0.1,0c0,0,0-0.1-0.1-0.1c0,0,0,0,0.1,0c0,0,0.1,0.1,0.1,0c0-0.1,0-0.1,0-0.1c0.1,0,0.1,0,0.2,0.1c0-0.1,0-0.1,0-0.2
				c0.1,0,0.2,0,0.2,0.2s0,0.1,0,0c0-0.1,0-0.1,0-0.2c0,0,0.1,0.1,0.1,0.2C-264.9,389.7-264.9,389.6-264.9,389.5L-264.9,389.5z"/>
			<path d="M-265.5,390C-265.5,390-265.5,389.9-265.5,390c-0.1-0.1-0.2,0-0.2,0l0,0l0,0c0-0.2,0.2-0.3,0.2-0.3c0,0,0,0,0.1,0
				c0,0,0,0,0.1-0.1c0.1,0,0.3-0.1,0.5,0l0,0c0,0.1,0,0.2,0,0.2l-0.1,0c0,0,0-0.1-0.1-0.1c0,0.1,0,0.1,0,0.2c0,0,0,0.1-0.1,0.1
				c0,0,0,0,0,0c0,0,0-0.1,0-0.1c0,0,0-0.1,0-0.1s-0.1,0-0.1,0c0,0,0,0.1,0,0.1c0,0,0,0,0,0.1l-0.1,0c0,0-0.1-0.1-0.1-0.1
				c0,0,0,0,0,0.1l0,0c0,0,0,0,0,0c0,0,0,0-0.1,0c0,0,0,0,0,0C-265.4,389.9-265.4,389.9-265.5,390
				C-265.4,389.9-265.4,389.9-265.5,390C-265.4,390-265.5,390-265.5,390z M-265.6,389.9C-265.5,389.9-265.5,389.9-265.6,389.9
				C-265.5,389.9-265.5,389.9-265.6,389.9C-265.5,389.9-265.5,389.9-265.6,389.9C-265.5,389.9-265.5,389.8-265.6,389.9L-265.6,389.9
				L-265.6,389.9C-265.6,389.8-265.6,389.8-265.6,389.9c0.1-0.1,0.1-0.1,0.1-0.1c0,0,0,0,0,0c0,0,0,0,0,0c0,0,0,0,0,0
				c0-0.1,0-0.1,0-0.1l0-0.1c0,0,0.1,0,0.2,0c0,0,0-0.1,0-0.1v0l0,0c0,0,0.1,0,0.2,0.1c0,0,0,0.1,0,0.1c0-0.1,0-0.1,0-0.2l0-0.1
				c-0.1,0-0.2,0-0.2,0c0,0-0.1,0-0.1,0.1c0,0,0,0-0.1,0.1C-265.5,389.6-265.7,389.7-265.6,389.9
				C-265.6,389.9-265.6,389.9-265.6,389.9z"/>
		</g>
		<g>
			<path class="st6" d="M-263.5,390.5L-263.5,390.5c-0.1-0.2,0-0.3,0.1-0.3c0,0,0.1,0,0.1,0c0,0,0-0.1,0-0.1c0,0,0.1-0.1,0.2-0.2
				c0,0,0.1,0,0.1,0c0,0,0-0.1,0-0.1c0.1-0.1,0.2-0.1,0.4-0.1c0,0,0-0.1,0-0.1c0.1-0.1,0.3-0.1,0.4-0.1c0.1,0.1,0.2,0.2,0.2,0.3
				c-0.1,0.2-0.1,0.3-0.2,0.4c-0.1,0-0.1-0.1-0.2-0.1c0,0,0,0.1,0,0.1c-0.1,0.1-0.2,0.1-0.2,0.1c0,0,0,0-0.1-0.1
				c0,0-0.1,0.1-0.1,0.1c-0.1,0-0.2,0.1-0.2,0.1c0,0,0-0.1-0.1-0.1c0,0.1-0.2,0.2-0.3,0.2C-263.5,390.6-263.5,390.5-263.5,390.5
				L-263.5,390.5z"/>
			<path d="M-263.6,390.7L-263.6,390.7c0-0.1,0-0.2,0-0.2l0,0l-0.1-0.1l0,0c0-0.1,0.1-0.2,0.2-0.3l0,0l0,0c0,0,0,0,0.1,0
				c0,0,0,0,0,0l0,0l0,0c0,0,0.1-0.1,0.1-0.1c0,0,0,0,0.1-0.1l0,0l0,0c0,0,0,0,0.1,0c0,0,0,0,0,0c0,0,0,0,0-0.1l0,0l0,0
				c0.1-0.1,0.2-0.1,0.3-0.1c0,0,0,0,0,0l0,0l0,0c0.1-0.1,0.3-0.1,0.5-0.1l0,0l0,0c0.1,0.1,0.2,0.2,0.2,0.3l0,0l0,0
				c-0.1,0.1-0.1,0.1-0.1,0.2c0,0.1,0,0.2-0.1,0.2l0,0l0,0c-0.1,0-0.1,0-0.1,0c0,0-0.1,0-0.1,0c0,0,0,0.1,0,0.1l0,0l0,0
				c-0.1,0-0.2,0.1-0.2,0.1l0,0l0,0c0,0,0,0,0,0c0,0,0,0,0,0.1l0,0h0c0,0-0.1,0-0.1,0.1c0,0-0.1,0-0.1,0.1l0,0l0,0c0,0,0,0,0-0.1
				C-263.3,390.6-263.4,390.6-263.6,390.7L-263.6,390.7z M-263.6,390.4L-263.6,390.4l0.1,0.1c0,0,0,0.1,0,0.1
				c0.1-0.1,0.2-0.1,0.3-0.2l0-0.1l0,0.1c0,0,0,0,0,0.1c0,0,0,0,0.1,0c0,0,0.1-0.1,0.1-0.1c0,0,0-0.1,0.1-0.1l0,0l0,0c0,0,0,0,0,0
				c0,0,0.1-0.1,0.2-0.1c0,0,0-0.1,0-0.1l0,0l0,0c0,0,0,0,0,0c0.1,0,0.1,0,0.1,0c0,0,0,0,0.1,0c0.1,0,0.1-0.1,0.1-0.2
				c0-0.1,0-0.1,0.1-0.2c0-0.1-0.1-0.2-0.2-0.2c-0.1,0-0.3,0-0.4,0.1c0,0,0,0,0,0c0,0,0,0,0,0l0,0l0,0c-0.1,0-0.2,0-0.3,0.1
				c0,0,0,0,0,0l0,0.1l0,0c0,0,0,0-0.1,0c0,0,0,0,0,0c0,0,0,0,0,0c0,0-0.1,0.1-0.1,0.1c0,0,0,0,0,0.1l0,0l0,0c0,0-0.1,0-0.1,0
				C-263.5,390.2-263.6,390.3-263.6,390.4z"/>
		</g>
		<g>
			<path d="M-261.7,389.8c-0.6-0.1-1.4,0.3-1.8,0.7C-263.2,390.2-262.3,389.7-261.7,389.8C-261.7,389.9-261.7,389.8-261.7,389.8
				L-261.7,389.8z"/>
			<path d="M-263.5,390.5L-263.5,390.5c0.3-0.4,1.2-0.8,1.8-0.7l0,0l0,0c0,0,0,0.1,0,0.1l0,0l0,0
				C-262.3,389.7-263.1,390.2-263.5,390.5z"/>
		</g>
		<g>
			<path class="st1" d="M-261.6,390c-0.2,0-0.4,0.2-0.4,0.3c0.1,0.3,0.3,0.4,0.4,0.4c0.2,0,0.3,0,0.3,0c0.1,0,0.2,0,0.3-0.2
				c0.2,0,0.4,0,0.5-0.2c0.1,0,0.2,0,0.3,0c0.1,0,0.2-0.1,0.2-0.1c0.1,0,0.3-0.1,0.3-0.2c0-0.1-0.2-0.3-0.4-0.2
				c-0.1-0.1-0.3-0.2-0.4-0.2c-0.1-0.2-0.3-0.2-0.4-0.1c-0.2-0.1-0.4,0-0.5,0c-0.1,0-0.1,0.1-0.2,0.1
				C-261.5,389.7-261.6,389.8-261.6,390L-261.6,390z"/>
			<path d="M-261.2,390.7C-261.2,390.7-261.2,390.7-261.2,390.7c-0.1,0-0.2,0-0.4,0c0,0,0,0,0,0c-0.2,0-0.3-0.1-0.4-0.4l0,0l0,0
				c0-0.1,0.2-0.2,0.4-0.3c0-0.2,0.1-0.3,0.2-0.3c0,0,0.1,0,0.1,0c0,0,0,0,0.1,0l0,0c0.1,0,0.2-0.1,0.5,0c0,0,0.1,0,0.2,0
				c0.1,0,0.2,0.1,0.2,0.1c0.1,0,0.3,0,0.4,0.2c0.2,0,0.3,0,0.3,0.1c0.1,0.1,0.1,0.1,0.1,0.2c0,0,0,0.1,0,0.1
				c-0.1,0.1-0.2,0.1-0.2,0.1c0,0,0,0,0,0c-0.1,0-0.1,0-0.2,0l0,0c-0.1,0-0.1,0-0.2,0c-0.1,0.1-0.3,0.2-0.5,0.2
				C-261,390.7-261.1,390.7-261.2,390.7z M-261.4,390.6c0.1,0,0.1,0,0.1,0c0.1,0,0.2,0,0.3-0.1l0,0l0,0c0.2,0,0.4,0,0.5-0.2l0,0l0,0
				c0.1,0,0.2,0,0.2,0l0,0c0.1,0,0.1,0,0.2,0c0,0,0,0,0,0c0.1,0,0.1,0,0.2-0.1c0,0,0,0,0-0.1c0,0,0-0.1-0.1-0.1c0,0-0.1-0.1-0.3-0.1
				l0,0l0,0c-0.1-0.1-0.2-0.2-0.4-0.1l0,0l0,0c-0.1-0.1-0.1-0.1-0.2-0.1c0,0-0.1,0-0.1,0l0,0l0,0c-0.2-0.1-0.3,0-0.4,0l0,0
				c0,0,0,0-0.1,0c0,0-0.1,0-0.1,0.1c-0.1,0-0.1,0.1-0.1,0.3l0,0l0,0c-0.2,0-0.3,0.2-0.4,0.2c0.1,0.3,0.2,0.3,0.4,0.3c0,0,0,0,0,0
				C-261.5,390.6-261.4,390.6-261.4,390.6z"/>
		</g>
		<g>
			<path class="st7" d="M-260.3,390.3c-0.1,0.1-0.3,0.2-0.5,0.2c0.1-0.2,0-0.2-0.1-0.3c0,0,0.1,0.1,0.1,0.1c0-0.1-0.1-0.1-0.1-0.2
				c0-0.1,0-0.1,0,0c0.1,0.1,0.1,0.1,0.1,0.2c0,0,0.1,0,0.1,0c0-0.1,0-0.1,0-0.2c0.1,0,0.1,0.1,0.1,0.1c0,0,0.1,0,0,0
				c0-0.1-0.1-0.1,0-0.1c0,0,0.1,0.1,0.1,0.1c0,0,0.1,0,0-0.1c0-0.1-0.1-0.1,0-0.1C-260.4,390.2-260.4,390.2-260.3,390.3
				L-260.3,390.3z"/>
			<path d="M-260.8,390.5c0,0-0.1,0-0.1,0l0,0l0,0c0.1-0.1,0-0.2,0-0.3l0,0c0,0,0,0,0,0c0,0-0.1-0.1,0-0.1c0,0,0.1,0,0.1,0
				c0,0,0.1,0.1,0.1,0.1c0,0,0,0.1,0.1,0.1c0,0,0,0,0,0c0-0.1,0-0.1,0-0.1l-0.1-0.1l0.1,0.1c0.1,0,0.1,0.1,0.1,0.1c0,0,0,0,0,0
				c0,0,0,0,0,0c0,0,0,0,0,0c0-0.1-0.1-0.1,0-0.1c0,0,0.1,0,0.1,0c0,0,0,0,0.1,0.1c0,0,0,0,0,0c0,0,0-0.1,0-0.1s0,0,0.1,0l0,0
				c0,0,0.1,0.1,0.1,0.2l0,0l0,0C-260.4,390.5-260.6,390.5-260.8,390.5z M-260.8,390.5c0.2,0,0.3,0,0.5-0.1c0,0,0-0.1,0-0.1
				c0,0,0,0.1,0,0.1c0,0,0,0-0.1,0c0,0,0,0,0,0c0,0,0,0,0,0c0,0-0.1,0-0.1,0c0,0,0,0,0,0c0,0,0,0,0,0c0,0,0,0,0,0c0,0,0,0.1,0,0.1
				c0,0-0.1,0-0.1,0c0,0,0,0,0,0l0,0C-260.8,390.4-260.8,390.4-260.8,390.5z"/>
		</g>
		<g>
			<path class="st7" d="M-260.8,389.6c-0.2-0.1-0.4,0-0.5,0c-0.1,0-0.1,0.1-0.2,0.1c-0.1,0-0.2,0.1-0.2,0.3c0.1,0,0.1-0.1,0.2,0
				s0.1,0,0.1-0.1s-0.1-0.1,0,0c0.1,0,0.1,0,0-0.1c0-0.1,0-0.1,0-0.1c0.1,0,0.1,0,0.1,0.1c0,0,0-0.1,0-0.2c0.1,0,0.2,0,0.2,0.1
				c0,0.1,0,0.1,0.1,0C-260.9,389.7-260.9,389.6-260.8,389.6c0,0.1,0,0.1,0,0.2C-260.8,389.8-260.7,389.7-260.8,389.6L-260.8,389.6z
				"/>
			<path d="M-261.6,390.1L-261.6,390.1c0-0.3,0.1-0.4,0.2-0.4c0,0,0.1,0,0.1,0c0,0,0,0,0.1,0l0,0c0.1,0,0.2-0.1,0.5,0l0,0
				c0.1,0.1,0.1,0.2,0,0.2l0,0.1l0-0.1c0,0,0,0,0-0.1c0,0,0,0,0,0c0,0,0,0.1,0,0.1c0,0.1,0,0.1-0.1,0.1c0,0,0,0,0,0c0,0-0.1,0,0-0.1
				c0,0,0,0,0-0.1c0,0-0.1,0-0.1,0c0,0,0,0,0,0c0,0,0,0.1,0,0.1l0,0.1l0-0.1c0,0,0,0-0.1-0.1c0,0,0,0,0,0c0,0,0,0,0,0
				c0,0.1,0,0.1,0,0.1c0,0,0,0-0.1,0c0,0,0,0.1,0,0.1c0,0-0.1,0-0.1,0C-261.5,390-261.5,390-261.6,390.1L-261.6,390.1z
				 M-261.5,389.9C-261.4,389.9-261.4,390-261.5,389.9c0.1,0,0.1,0,0.1,0C-261.4,390-261.4,390-261.5,389.9
				C-261.4,389.9-261.4,389.9-261.5,389.9c0.1-0.1,0.1-0.1,0.2-0.1c0,0,0,0,0,0c0,0,0,0,0,0c0,0,0-0.1,0-0.1c0,0,0.1,0,0.1,0
				c0,0,0,0,0.1,0c0,0,0,0,0,0c0,0,0-0.1,0-0.1l0,0h0c0,0,0.1,0,0.2,0.1c0,0,0,0,0,0.1c0-0.1,0-0.1,0.1-0.1c0,0,0,0,0.1,0
				c0,0,0,0,0,0c0,0,0,0,0,0c0,0,0-0.1,0-0.1c-0.2-0.1-0.3,0-0.4,0l0,0c0,0,0,0-0.1,0c0,0-0.1,0-0.1,0.1
				C-261.5,389.7-261.5,389.8-261.5,389.9C-261.5,390-261.5,389.9-261.5,389.9z"/>
		</g>
		<g>
			<path class="st1" d="M-266.7,392.6c0-0.2-0.1-0.5-0.2-0.6c0-0.2-0.1-0.3-0.1-0.5c-0.1-0.2-0.1-0.4-0.2-0.2
				c-0.1,0.1-0.1,0.3-0.1,0.4c-0.1,0.1-0.1,0.3-0.1,0.4c-0.2,0.2-0.1,0.4-0.1,0.4c-0.1,0.2,0,0.3,0,0.4c0,0.1,0.1,0.1,0.1,0.2
				c0,0.1,0.2,0.1,0.3,0.1c0.1,0.2,0.2,0.3,0.3,0.4c0.4-0.2,0.3-0.5,0.3-0.6c0-0.1-0.1-0.1,0-0.2
				C-266.5,392.8-266.6,392.7-266.7,392.6L-266.7,392.6z"/>
			<path d="M-266.8,393.7L-266.8,393.7c-0.1,0-0.3-0.2-0.3-0.4c-0.1,0-0.3-0.1-0.3-0.2c0-0.1,0-0.1-0.1-0.1c0,0,0,0,0-0.1
				c0-0.1-0.1-0.2,0-0.4c-0.1-0.1-0.1-0.3,0.1-0.5c0-0.1,0-0.3,0.1-0.4c0-0.1,0-0.3,0.1-0.4c0.1-0.1,0.1-0.1,0.1-0.1c0,0,0,0,0,0
				c0.1,0,0.1,0.1,0.1,0.2l0,0c0,0.1,0,0.1,0.1,0.2c0,0.1,0.1,0.2,0.1,0.3c0.1,0.1,0.2,0.3,0.2,0.6c0.1,0.1,0.2,0.2,0.2,0.3
				c0,0.1,0,0.1,0,0.2l0,0C-266.4,393.1-266.4,393.5-266.8,393.7L-266.8,393.7z M-267.1,391.3C-267.2,391.3-267.2,391.3-267.1,391.3
				c-0.2,0.2-0.2,0.3-0.2,0.4v0l0,0c-0.1,0.1-0.1,0.3-0.1,0.4l0,0l0,0c-0.2,0.2-0.1,0.3-0.1,0.4l0,0l0,0c-0.1,0.2,0,0.3,0,0.4
				c0,0,0,0,0,0.1c0,0,0.1,0.1,0.1,0.2c0,0.1,0.1,0.1,0.3,0.1h0l0,0c0.1,0.2,0.2,0.3,0.3,0.4c0.3-0.2,0.3-0.5,0.3-0.6l0,0
				c0-0.1,0-0.1,0-0.2c0,0,0-0.2-0.2-0.2l0,0l0,0c0-0.2-0.1-0.4-0.2-0.5l0,0l0,0c0-0.1,0-0.2-0.1-0.3c0-0.1-0.1-0.1-0.1-0.2l0,0
				C-267.1,391.4-267.1,391.3-267.1,391.3C-267.1,391.3-267.1,391.3-267.1,391.3z"/>
		</g>
		<g>
			<path class="st7" d="M-266.7,392.6c0-0.2-0.1-0.5-0.2-0.6c-0.1,0.1-0.2,0.2-0.1,0.1s0.2,0,0.1,0s-0.1,0.2,0,0.1
				c0.1-0.1,0.1,0,0,0c-0.1,0.1-0.2,0.2,0,0.1c0.1-0.1,0.2,0,0.1,0.1s-0.1,0.1,0,0.1c0.1-0.1,0.1,0,0.1,0
				C-266.8,392.6-266.7,392.5-266.7,392.6L-266.7,392.6z"/>
			<path d="M-266.7,392.6L-266.7,392.6C-266.7,392.6-266.7,392.6-266.7,392.6c-0.1-0.1-0.1-0.1-0.2-0.1c0,0,0,0,0,0c0,0,0,0,0,0
				c0,0-0.1,0.1-0.1,0.1c0,0,0,0,0,0c0,0,0-0.1,0.1-0.1c0,0,0,0,0,0c0,0,0,0-0.1,0c-0.1,0-0.1,0.1-0.1,0c0,0,0,0,0.1-0.1
				c0,0-0.1,0-0.1,0c0,0,0,0,0.1-0.2c0,0,0,0,0,0c0,0,0,0,0,0c0,0-0.1,0-0.1,0c0,0,0-0.1,0.2-0.2l0,0l0,0
				C-266.8,392.1-266.6,392.4-266.7,392.6L-266.7,392.6z M-266.8,392.5C-266.7,392.5-266.7,392.5-266.8,392.5
				c0.1-0.2-0.1-0.4-0.1-0.4c0,0-0.1,0.1-0.1,0.1c0.1,0,0.1,0,0.1,0c0,0,0,0.1-0.1,0.1c0,0,0,0,0,0c0.1,0,0.1,0,0.1,0
				c0,0,0,0.1-0.1,0.1c0,0,0,0,0,0c0,0,0.1,0,0.1,0C-266.8,392.4-266.8,392.4-266.8,392.5C-266.8,392.5-266.8,392.5-266.8,392.5
				C-266.8,392.5-266.8,392.5-266.8,392.5C-266.8,392.5-266.8,392.5-266.8,392.5z"/>
		</g>
		<g>
			<path class="st7" d="M-267.6,392.6c-0.1,0.2,0,0.3,0,0.4c0,0.1,0.1,0.1,0.1,0.2c0,0.1,0.2,0.1,0.3,0.1c0-0.1,0-0.1,0-0.2
				c0-0.1,0-0.1,0-0.1c-0.1,0.1-0.1,0.1-0.1,0c0-0.1,0.1-0.1,0-0.1c-0.1,0-0.1,0.1-0.1,0c0-0.1,0-0.1,0.1-0.2c-0.1,0-0.1,0-0.1,0.1
				c0,0-0.1,0,0-0.1c0-0.1,0-0.1,0.1-0.1c0.1,0,0.1,0,0,0C-267.5,392.7-267.6,392.6-267.6,392.6c0.2-0.1,0.3-0.1,0.2-0.1
				C-267.5,392.5-267.5,392.5-267.6,392.6L-267.6,392.6z"/>
			<path d="M-267.1,393.4L-267.1,393.4c-0.2,0-0.3,0-0.4-0.2c0-0.1,0-0.1-0.1-0.1c0,0,0,0,0-0.1c0-0.1-0.1-0.2,0-0.4l0,0
				c0-0.1,0.1-0.1,0.2-0.1c0,0,0,0,0,0c0,0,0.1,0,0.1,0c0,0,0,0-0.1,0.1l0,0c0,0,0,0,0,0c0,0,0.1,0,0.1,0c0,0,0.1,0,0.1,0
				c0,0,0,0-0.1,0.1c0,0,0,0-0.1,0c0,0,0,0,0,0c0,0,0,0,0,0.1c0,0,0,0,0.1,0c0,0,0,0,0.1,0l0,0.1c0,0,0,0.1,0,0.1c0,0,0,0,0,0
				c0,0,0,0,0,0l0,0c0,0,0.1,0,0.1,0c0,0,0,0.1,0,0.1c0,0,0,0,0,0c0,0,0,0,0.1,0c0,0,0,0.1,0,0.1
				C-267.1,393.2-267.1,393.2-267.1,393.4L-267.1,393.4z M-267.5,392.6c-0.1,0.2,0,0.3,0,0.3c0,0,0,0,0,0.1c0,0,0.1,0.1,0.1,0.2
				c0,0.1,0.1,0.1,0.2,0.1c0-0.1,0-0.1,0-0.2c0,0,0,0,0,0c0,0-0.1,0.1-0.1,0c0,0,0,0,0-0.1c0,0,0,0,0,0l0,0c-0.1,0-0.1,0.1-0.1,0
				c0,0,0-0.1,0-0.1c0,0,0,0,0,0c0,0,0,0,0-0.1c0,0,0,0,0,0c0,0-0.1,0-0.1,0c0,0,0-0.1,0-0.1c0,0,0,0,0,0c0,0,0,0,0-0.1
				C-267.5,392.7-267.5,392.7-267.5,392.6C-267.5,392.6-267.5,392.6-267.5,392.6z"/>
		</g>
		<g>
			<path class="st6" d="M-267.6,393.5c-0.1,0.1-0.1,0.2-0.2,0.3c0.1,0.2,0.2,0.4,0.3,0.5c0,0,0.1-0.1,0.1-0.1c0,0.1,0,0.2,0,0.2
				c0,0.1,0.1,0.2,0.2,0.3c0,0,0.1,0,0.1-0.1c0,0,0,0.1,0,0.2c0.1,0,0.2,0.1,0.2,0.1c0,0,0-0.1,0-0.1c0,0,0,0.1,0.1,0.1
				c0.1,0.1,0.2,0.1,0.3,0.1c0,0,0-0.1,0-0.1c0.1,0,0.1-0.1,0.2-0.1c-0.1-0.1-0.2-0.2-0.2-0.3c0,0-0.1,0-0.1,0c0,0,0.1-0.1,0.1-0.1
				c-0.1-0.1-0.2-0.2-0.2-0.3c-0.1,0-0.1,0-0.1,0c0,0,0-0.1,0.1-0.1c-0.1-0.1-0.2-0.2-0.2-0.2c0,0-0.1,0-0.1,0c0-0.1,0-0.2,0-0.3
				C-267.3,393.5-267.5,393.5-267.6,393.5L-267.6,393.5z"/>
			<path d="M-266.5,395.1L-266.5,395.1C-266.5,395.1-266.6,395.1-266.5,395.1c-0.1,0-0.2-0.1-0.3-0.1l0,0l0,0c0,0,0,0,0-0.1
				c0,0,0,0,0,0c0,0,0,0,0,0l0,0l0,0c0,0,0,0-0.1,0c-0.1,0-0.1-0.1-0.2-0.1l0,0l0,0c0,0,0-0.1,0-0.1c0,0,0,0-0.1,0l0,0l0,0
				c-0.1-0.1-0.2-0.2-0.2-0.3l0,0l0,0c0,0,0,0,0,0c0,0,0,0,0,0c0,0,0,0,0,0l0,0l0,0c-0.1-0.1-0.2-0.3-0.3-0.5l0,0l0,0
				c0-0.1,0.1-0.2,0.2-0.3l0,0l0,0c0.1,0,0.3,0,0.5,0.1l0,0v0c0,0.1,0,0.1,0,0.2c0,0,0,0.1,0,0.1c0,0,0,0,0.1,0l0,0l0,0
				c0,0.1,0.1,0.2,0.2,0.2l0,0l0,0c0,0,0,0,0,0c0,0,0,0,0,0c0,0,0,0,0.1,0l0,0l0,0c0,0,0.1,0.1,0.1,0.2c0,0,0,0,0.1,0.1l0,0l0,0
				c0,0,0,0,0,0c0,0,0,0,0,0l0,0c0.1,0.1,0.2,0.2,0.2,0.3l0,0l0,0c0,0,0,0,0,0c0,0-0.1,0-0.1,0C-266.5,395-266.5,395.1-266.5,395.1
				L-266.5,395.1z M-266.8,394.9c0.1,0,0.2,0.1,0.2,0.1c0,0,0,0,0,0c0,0,0-0.1,0-0.1l0,0l0,0c0,0,0.1,0,0.1,0c0,0,0,0,0,0
				c-0.1-0.1-0.1-0.2-0.2-0.2c0,0-0.1,0-0.1,0l-0.1,0l0.1-0.1c0,0,0.1-0.1,0.1-0.1c0,0,0,0,0,0c-0.1-0.1-0.1-0.1-0.1-0.2
				c0,0-0.1,0-0.1,0h-0.1l0,0c0,0,0,0,0-0.1c-0.1-0.1-0.1-0.2-0.2-0.2c0,0,0,0-0.1,0h0v0c0,0,0-0.1,0-0.1c0,0,0-0.1,0-0.1
				c-0.2-0.1-0.3-0.1-0.5-0.1c-0.1,0.1-0.1,0.2-0.2,0.3c0,0.2,0.1,0.4,0.2,0.4c0,0,0,0,0.1-0.1l0.1,0c0,0.1,0,0.1,0,0.1c0,0,0,0,0,0
				c0,0.1,0.1,0.2,0.2,0.2c0,0,0.1,0,0.1,0l0,0l0,0c0,0,0,0.1,0,0.2c0,0,0.1,0.1,0.1,0.1c0,0,0,0,0,0c0,0,0,0,0,0l0-0.1l0,0.1
				C-266.9,394.8-266.8,394.9-266.8,394.9C-266.8,394.9-266.8,394.9-266.8,394.9z"/>
		</g>
		<g>
			<path d="M-267.7,393.1c0,0.3,0.4,1.1,1.2,1.8C-267.2,394.3-267.7,393.5-267.7,393.1C-267.7,393.1-267.7,393.1-267.7,393.1
				L-267.7,393.1z"/>
			<path d="M-266.5,395c-0.8-0.7-1.3-1.5-1.3-1.9l0,0l0,0c0,0,0,0,0.1,0l0,0l0,0C-267.7,393.5-267.2,394.3-266.5,395L-266.5,395z"/>
		</g>
		<g>
			<path class="st1" d="M-266.5,395.9c0.2,0,0.3,0.2,0.3,0.2c0,0.1,0,0.1,0.1,0.2s0.1,0.6-0.1,0.7c-0.2-0.1-0.3-0.2-0.4-0.3
				c-0.2,0-0.3,0-0.4-0.1c-0.1-0.1-0.1-0.1-0.2-0.1c-0.1,0-0.1-0.2-0.1-0.4c-0.2-0.2-0.1-0.3-0.1-0.4c-0.1-0.1-0.1-0.3,0-0.4
				c-0.1-0.2,0-0.4,0-0.5c0.1-0.1,0.1-0.1,0.2,0c0.1,0.1,0.2,0.2,0.2,0.3c0.1,0.1,0.2,0.2,0.2,0.3c0,0,0.1,0.1,0.2,0.2
				C-266.6,395.7-266.5,395.8-266.5,395.9L-266.5,395.9z"/>
			<path d="M-266.3,397L-266.3,397c-0.2-0.1-0.3-0.2-0.4-0.3l0,0c-0.2,0-0.3,0-0.4-0.1c0-0.1-0.1-0.1-0.2-0.1
				c-0.1,0-0.2-0.2-0.2-0.4c-0.2-0.2-0.1-0.3-0.1-0.4c-0.1-0.1-0.1-0.3,0-0.4c-0.1-0.2,0-0.4,0-0.5c0,0,0.1-0.1,0.1-0.1c0,0,0,0,0,0
				c0,0,0.1,0,0.1,0.1c0.1,0.1,0.2,0.2,0.2,0.3c0.1,0.1,0.2,0.2,0.2,0.3c0.1,0,0.1,0.1,0.2,0.2c0.1,0.1,0.2,0.2,0.2,0.3
				c0.2,0,0.3,0.2,0.3,0.2c0,0.1,0,0.1,0.1,0.2c0.1,0.1,0.1,0.3,0.1,0.5C-266.1,396.9-266.2,397-266.3,397L-266.3,397z
				 M-266.7,396.7L-266.7,396.7c0.1,0.1,0.2,0.2,0.3,0.3c0.1-0.1,0.1-0.2,0.2-0.2c0-0.2,0-0.4,0-0.4c-0.1-0.1-0.1-0.1-0.1-0.2
				c0,0-0.1-0.1-0.3-0.2l0,0l0,0c0-0.1,0-0.1-0.1-0.3c-0.1-0.1-0.2-0.2-0.2-0.2h0l0,0c0-0.1-0.1-0.2-0.2-0.2l0,0l0,0
				c0,0-0.1-0.2-0.2-0.3c0,0,0,0-0.1,0c0,0,0,0,0,0c0,0,0,0-0.1,0c0,0.1-0.1,0.3,0,0.4l0,0l0,0c0,0.1,0,0.3,0,0.4l0,0l0,0
				c-0.1,0.1-0.1,0.2,0.1,0.3l0,0l0,0c0,0.2,0.1,0.3,0.1,0.4c0.1,0,0.1,0.1,0.2,0.2C-267,396.7-266.8,396.7-266.7,396.7
				L-266.7,396.7z"/>
		</g>
		<g>
			<path class="st7" d="M-266.5,395.9c0-0.1,0-0.2-0.1-0.3c-0.1-0.1-0.2-0.2-0.2-0.2c-0.1,0.2-0.1,0.2,0,0.2c0.1-0.1,0.2-0.1,0.1,0
				s-0.1,0.2,0,0.1c0.1-0.1,0.1-0.1,0,0.1c-0.1,0.1,0,0.2,0.1,0.1c0.1-0.1,0.2-0.1,0,0c-0.1,0.1-0.1,0.2,0,0.1s0.1-0.1,0.1,0
				c0,0.1,0,0.1,0,0C-266.6,395.9-266.6,395.9-266.5,395.9L-266.5,395.9z"/>
			<path d="M-266.7,396C-266.7,396-266.8,396-266.7,396C-266.8,396-266.8,396-266.7,396c-0.1,0-0.1,0-0.1,0c0,0,0,0,0.1-0.2
				c0,0,0,0,0,0c0,0,0,0,0,0c-0.1,0.1-0.1,0.1-0.1,0.1c0,0,0-0.1,0-0.2c0,0-0.1,0-0.1,0c0,0,0,0,0.1-0.2c0,0,0,0,0,0
				c0,0-0.1,0.1-0.1,0c0,0,0-0.1,0.1-0.2l0,0h0c0.1,0,0.1,0.1,0.2,0.2c0.1,0.1,0.2,0.2,0.2,0.3l0,0h0
				C-266.6,395.9-266.6,395.9-266.7,396C-266.7,396-266.7,396-266.7,396z M-266.7,395.8C-266.7,395.8-266.7,395.8-266.7,395.8
				C-266.7,395.9-266.7,395.9-266.7,395.8c0.1,0,0.1,0,0.1,0c0-0.1,0-0.1-0.1-0.2c-0.1-0.1-0.1-0.2-0.2-0.2c0,0,0,0.1-0.1,0.1
				c0.1-0.1,0.1-0.1,0.1,0c0,0,0,0.1,0,0.1c0,0,0,0,0,0c0.1,0,0.1-0.1,0.1,0c0,0,0,0.1-0.1,0.1c0,0,0,0,0,0.1c0,0,0,0,0,0
				c0-0.1,0.1-0.1,0.2-0.1C-266.6,395.7-266.6,395.8-266.7,395.8C-266.7,395.8-266.7,395.8-266.7,395.8z"/>
		</g>
		<g>
			<path class="st7" d="M-266.7,396.7c-0.2,0-0.3,0-0.4-0.1c-0.1-0.1-0.1-0.1-0.2-0.1c-0.1,0-0.1-0.2-0.1-0.4
				c0.1-0.1,0.1-0.1,0.2-0.1c-0.1,0.1-0.2,0.2,0,0.2c-0.1,0.2-0.1,0.3,0.1,0.1c0,0.1,0,0.2,0.1,0.2c0.1-0.1,0.1,0,0.1,0
				c0,0,0,0.1,0,0c0.1-0.1,0.1-0.1,0.1,0C-266.8,396.5-266.8,396.7-266.7,396.7L-266.7,396.7z"/>
			<path d="M-266.8,396.8c-0.1,0-0.3,0-0.3-0.1c0-0.1-0.1-0.1-0.2-0.1c-0.1,0-0.2-0.2-0.2-0.4l0,0l0,0c0.1-0.1,0.1-0.1,0.2-0.1
				c0,0,0,0,0,0l0.1,0l-0.1,0.1c0,0-0.1,0.1-0.1,0.1c0,0,0,0,0.1,0l0.1,0l0,0c0,0.1,0,0.2,0,0.2c0,0,0,0,0.1-0.1l0.1-0.1l0,0.1
				c0,0.1,0,0.1,0,0.1c0,0,0,0,0,0c0.1-0.1,0.1-0.1,0.1,0c0,0,0,0,0,0c0,0,0.1-0.1,0.1,0c0,0,0,0,0,0.1c0,0,0,0.2,0.1,0.2l0.1,0
				L-266.8,396.8C-266.7,396.7-266.7,396.8-266.8,396.8z M-267.3,396.1c0,0.2,0.1,0.3,0.1,0.3c0.1,0,0.1,0.1,0.2,0.2
				c0,0,0.1,0.1,0.3,0.1c0,0,0,0,0,0c0-0.1-0.1-0.1-0.1-0.2c0,0,0,0,0,0c0,0,0,0-0.1,0c0,0,0,0,0,0c0,0,0,0,0-0.1l0,0c0,0,0,0,0,0
				c0,0-0.1,0-0.1,0c0,0,0-0.1,0-0.1c0,0-0.1,0.1-0.1,0c-0.1,0,0-0.1,0-0.2C-267.3,396.2-267.3,396.2-267.3,396.1
				C-267.3,396.2-267.3,396.1-267.3,396.1C-267.3,396.1-267.3,396.1-267.3,396.1z"/>
		</g>
		<g>
			<path class="st6" d="M-266.7,397.4c0.1-0.1,0.2-0.2,0.3-0.2c0.2,0,0.4,0.1,0.6,0.2c0,0.1-0.1,0.1-0.1,0.1c0.1,0,0.2,0,0.2,0
				c0.1,0.1,0.2,0.1,0.3,0.2c0,0,0,0.1-0.1,0.1c0.1,0,0.1,0,0.2,0c0.1,0.1,0.1,0.2,0.2,0.2c0,0-0.1,0-0.1,0c0,0,0.1,0,0.2,0
				c0.1,0.1,0.1,0.3,0.1,0.3c0,0-0.1,0-0.2,0.1c0,0.1,0,0.2-0.1,0.2c-0.2-0.1-0.2-0.2-0.3-0.2c0-0.1,0-0.1-0.1-0.1
				c0,0-0.1,0.1-0.1,0.1c-0.2,0-0.3-0.1-0.3-0.2c0,0,0-0.1,0-0.1c0,0-0.1,0-0.1,0.1c-0.2-0.1-0.2-0.1-0.3-0.2c0,0,0-0.1,0-0.1
				c-0.1,0-0.2,0-0.3,0C-266.7,397.8-266.8,397.6-266.7,397.4L-266.7,397.4z"/>
			<path d="M-265.1,398.8L-265.1,398.8c-0.1-0.1-0.2-0.1-0.3-0.2c0,0-0.1,0-0.1-0.1l0,0l0,0c0,0,0-0.1,0-0.1c0,0,0,0,0,0
				c0,0,0,0-0.1,0.1l0,0l0,0c-0.2,0-0.3-0.1-0.3-0.2l0,0l0,0c0,0,0,0,0,0c0,0,0,0,0,0c0,0,0,0,0,0l0,0l0,0c-0.2-0.1-0.2-0.1-0.3-0.2
				l0,0l0,0c0,0,0,0,0,0c0,0,0,0,0,0c-0.1,0-0.2,0-0.3,0h0l0,0c-0.2-0.2-0.2-0.4-0.2-0.6l0,0l0,0c0.1-0.1,0.2-0.2,0.3-0.2l0,0l0,0
				c0.2,0,0.4,0.1,0.6,0.2l0,0l0,0c0,0,0,0,0,0.1c0,0,0,0,0,0c0.1,0,0.1,0,0.2,0l0,0c0.1,0.1,0.2,0.1,0.3,0.2l0,0l0,0c0,0,0,0,0,0
				c0,0,0,0,0,0c0,0,0.1,0,0.1,0l0,0c0.1,0.1,0.2,0.2,0.2,0.3l0,0l0,0c0,0,0.1,0,0.1,0l0,0l0,0c0.1,0.1,0.1,0.3,0.1,0.3l0,0l0,0
				c0,0-0.1,0-0.1,0C-265,398.7-265,398.7-265.1,398.8L-265.1,398.8z M-265.4,398.5C-265.3,398.5-265.3,398.6-265.4,398.5
				c0.1,0.1,0.2,0.1,0.3,0.2c0,0,0-0.1,0-0.2l0,0l0,0c0,0,0.1,0,0.1,0c0-0.1-0.1-0.2-0.1-0.3c0,0-0.1,0-0.1,0c0,0,0,0-0.1,0l-0.1,0
				l0.1,0c0,0,0,0,0.1,0c0,0,0,0,0,0c0,0-0.1-0.1-0.1-0.2c0,0-0.1,0-0.1,0c0,0,0,0-0.1,0l-0.1,0l0,0c0,0,0,0,0,0c0,0,0,0,0,0
				c-0.1-0.1-0.1-0.1-0.3-0.2c0,0-0.1,0-0.2,0l0-0.1c0,0,0,0,0-0.1c0,0,0,0,0,0c-0.1-0.1-0.4-0.2-0.5-0.2c-0.1,0-0.2,0.1-0.3,0.2
				c0,0.2,0,0.3,0.1,0.5c0.1,0,0.2,0,0.3,0l0,0v0c0,0,0,0,0,0c0,0,0,0,0,0l0,0c0.1,0.1,0.1,0.1,0.2,0.2c0,0,0,0,0.1,0l0,0l0,0
				c0,0,0,0,0,0.1c0,0,0,0,0,0c0.1,0,0.2,0.1,0.3,0.1c0,0,0-0.1,0.1-0.1l0,0l0,0C-265.4,398.4-265.4,398.4-265.4,398.5
				C-265.4,398.5-265.4,398.5-265.4,398.5z"/>
		</g>
		<g>
			<path d="M-267.3,397.4c0.4-0.2,1.9,0.8,2.2,1.2C-265.4,398.1-266.7,397.3-267.3,397.4C-267.3,397.4-267.3,397.4-267.3,397.4
				L-267.3,397.4z"/>
			<path d="M-265.1,398.6c-0.4-0.4-1.5-1.1-2.1-1.1c0,0-0.1,0-0.1,0l0,0l0,0c0,0,0-0.1,0-0.1l0,0l0,0c0,0,0.1,0,0.1,0
				C-266.5,397.3-265.3,398.2-265.1,398.6L-265.1,398.6z M-267.1,397.4c0.2,0,0.4,0.1,0.7,0.2C-266.8,397.4-267.1,397.3-267.1,397.4
				C-267.2,397.4-267.2,397.4-267.1,397.4C-267.2,397.4-267.2,397.4-267.1,397.4z"/>
		</g>
		<g>
			<path class="st1" d="M-264.5,399.2c-0.2-0.2-0.4-0.2-0.5-0.1c-0.2-0.1-0.2-0.1-0.3-0.1c0,0-0.1,0-0.2-0.1
				c-0.1-0.1-0.3-0.1-0.3,0.1c0,0.2,0.1,0.3,0.2,0.3c0.1,0,0.1,0.1,0.1,0.2c0,0.1,0.1,0.2,0.2,0.2c0,0.1,0.1,0.3,0.3,0.3
				c0.1,0.2,0.3,0.2,0.4,0.2c0.1,0,0.1,0,0.2,0c0.1,0,0.2,0,0.4-0.2c0.3,0,0.5,0,0.5-0.1c0-0.1,0-0.4-0.3-0.5c-0.1,0-0.2,0-0.2-0.1
				C-264.2,399.1-264.4,399.2-264.5,399.2L-264.5,399.2z"/>
			<path d="M-264.4,400.2C-264.4,400.2-264.4,400.2-264.4,400.2c-0.1,0-0.2,0-0.2,0c-0.1,0-0.3,0-0.4-0.2c0,0,0,0,0,0
				c-0.1,0-0.3-0.1-0.3-0.3c-0.1,0-0.2-0.2-0.2-0.3c0-0.1,0-0.1-0.1-0.1c-0.1,0-0.2-0.1-0.2-0.3c0-0.1,0-0.1,0.1-0.1
				c0.1-0.1,0.2,0,0.3,0l0,0c0.1,0,0.1,0.1,0.1,0.1c0.1,0,0.2,0,0.3,0.1c0.1,0,0.3,0,0.5,0.1c0.1,0,0.3-0.1,0.4,0
				c0.1,0.1,0.1,0.1,0.2,0.1c0,0,0,0,0.1,0c0.3,0.1,0.3,0.4,0.3,0.5c0,0,0,0,0,0.1c0,0,0,0.1,0,0.1c-0.1,0.1-0.2,0.1-0.4,0
				C-264.2,400.2-264.3,400.2-264.4,400.2z M-265,399.9L-265,399.9c0.1,0.2,0.3,0.2,0.4,0.2c0.1,0,0.1,0,0.2,0c0,0,0.2,0,0.3-0.2
				l0,0l0,0c0.2,0,0.4,0,0.4,0c0,0,0,0,0,0c0,0,0,0,0-0.1c0-0.1,0-0.3-0.3-0.5c0,0,0,0,0,0c-0.1,0-0.1,0-0.2-0.1
				c-0.1-0.1-0.2-0.1-0.3,0l0,0l0,0c-0.2-0.2-0.4-0.2-0.5-0.1l0,0l0,0c-0.1-0.1-0.2-0.1-0.3-0.1c-0.1,0-0.1,0-0.2-0.1l0,0
				c-0.1,0-0.2-0.1-0.2,0c0,0,0,0,0,0.1c0,0.1,0.1,0.2,0.1,0.3c0.1,0,0.1,0.1,0.1,0.2c0,0,0.1,0.2,0.2,0.2l0,0l0,0
				C-265.2,399.7-265.1,399.9-265,399.9C-265,399.9-265,399.9-265,399.9L-265,399.9z"/>
		</g>
		<g>
			<path class="st7" d="M-264.5,399.2c-0.2-0.2-0.4-0.2-0.5-0.1c0,0.1,0,0.2,0,0.2c0-0.1,0-0.1,0-0.1s0.1,0,0.1,0c0,0.1,0,0.1,0,0.2
				c0-0.1,0-0.1,0-0.1c0,0,0.1,0,0.1,0.2c0.1-0.2,0.1-0.3,0.1,0.1c0-0.2,0.1-0.2,0.1,0C-264.5,399.3-264.6,399.3-264.5,399.2
				L-264.5,399.2z"/>
			<path d="M-264.6,399.5L-264.6,399.5c-0.1-0.2-0.1-0.2-0.1-0.3c0,0,0,0.1-0.1,0.1l-0.1,0c0-0.1,0-0.2,0-0.2c0,0,0,0.1,0,0.1l0,0.1
				l0-0.1c0,0,0-0.1,0-0.2c0,0,0,0,0,0c0,0,0,0,0,0.1l-0.1,0c0,0-0.1-0.1,0-0.3l0,0l0,0c0.1,0,0.3,0,0.5,0.1l0,0l0,0
				c0,0,0,0.1,0,0.2c0,0,0,0.1,0,0.1L-264.6,399.5c0-0.1,0-0.1,0-0.1C-264.6,399.4-264.6,399.5-264.6,399.5z M-264.7,399.2
				C-264.7,399.2-264.7,399.2-264.7,399.2c0,0,0.1,0,0.1,0.2c0,0,0,0,0,0c0,0,0,0,0,0c0,0,0-0.1,0-0.1c-0.2-0.1-0.3-0.1-0.4-0.1
				c0,0,0,0,0,0.1c0,0,0,0,0,0c0,0,0.1,0,0.1,0c0,0,0,0,0,0c0,0,0,0,0,0c0,0,0.1,0,0.1,0C-264.8,399.2-264.8,399.2-264.7,399.2
				C-264.7,399.2-264.7,399.2-264.7,399.2z"/>
		</g>
		<g>
			<path class="st7" d="M-264.1,400c-0.2,0.2-0.3,0.2-0.4,0.2s-0.1,0-0.2,0c-0.1,0-0.2,0-0.4-0.2c0-0.1,0-0.1,0.1-0.2
				c0,0.1,0,0.2,0.1,0.1c0,0.1,0.1,0.1,0.1,0.2c0,0,0,0,0.1,0c0-0.1,0-0.1,0-0.1c0,0.1,0.1,0.1,0.1,0.1c0,0,0,0,0.1,0
				c0-0.1,0-0.1,0.1,0c0,0,0.1,0.1,0.1,0c0-0.1,0-0.1,0-0.1S-264.2,400-264.1,400L-264.1,400z"/>
			<path d="M-264.4,400.2C-264.4,400.2-264.4,400.2-264.4,400.2c-0.1,0-0.2,0-0.2,0c-0.1,0-0.3,0-0.4-0.2l0,0l0,0
				c0-0.1,0-0.1,0.1-0.2l0.1-0.1l0,0.1c0,0.1,0,0.1,0,0.1c0,0,0,0,0,0c0,0,0,0,0,0l0-0.1l0,0.1c0,0.1,0,0.1,0.1,0.1c0,0,0,0,0,0
				c0,0,0,0,0,0c0,0,0-0.1,0-0.1l0.1,0c0,0.1,0,0.1,0.1,0.1c0,0,0,0,0,0c0,0,0,0,0,0c0-0.1,0-0.1,0.1-0.1c0,0,0,0,0.1,0
				c0,0,0-0.1,0-0.1c0,0,0,0,0.1,0l0,0c0,0,0.1,0.1,0.2,0.1l0.1,0l0,0C-264.2,400.1-264.3,400.2-264.4,400.2z M-264.9,399.9
				c0.1,0.2,0.3,0.2,0.3,0.2c0.1,0,0.1,0,0.2,0c0,0,0.1,0,0.3-0.1c-0.1,0-0.2-0.1-0.2-0.1c0,0,0,0,0,0c0,0.1,0,0.1,0,0.1
				c0,0-0.1,0-0.1-0.1c0,0,0,0,0,0c0,0,0,0.1,0,0.1c0,0-0.1,0-0.1,0c0,0,0,0-0.1-0.1c0,0,0,0,0,0c0,0,0,0.1-0.1,0.1c0,0,0,0,0,0
				c0,0,0,0-0.1,0c0,0,0,0,0,0c0,0,0,0-0.1-0.1C-264.8,399.9-264.9,399.9-264.9,399.9C-264.9,399.9-264.9,399.9-264.9,399.9
				C-264.9,399.9-264.9,399.9-264.9,399.9z"/>
		</g>
		<g>
			<path class="st6" d="M-263.4,400.9c0.1-0.3,0.2-0.4,0.3-0.5c0.1,0,0.3,0,0.3,0.1c0,0,0-0.1,0-0.1c0.1-0.1,0.3-0.1,0.3-0.2
				c0.1,0,0.1,0.1,0.1,0.1c0,0,0.1-0.1,0.1-0.2c0.1,0,0.3-0.1,0.4-0.1c0,0,0.1,0.1,0.1,0.1c0,0,0.1-0.1,0.1-0.1c0,0,0.1,0,0.1,0
				c0,0,0-0.1,0-0.1c0.1,0,0.2-0.1,0.3-0.1c0,0.1,0,0.2,0,0.2c0,0,0.1,0.1,0.1,0.1c-0.1,0.1-0.2,0.3-0.2,0.4c-0.1,0-0.1,0-0.1,0
				c0,0,0,0.1,0.1,0.1c-0.1,0.1-0.2,0.2-0.2,0.2c-0.1,0-0.1,0-0.2,0c0,0,0,0.1,0,0.1c-0.1,0.1-0.3,0.1-0.4,0.2
				c-0.1,0-0.2-0.1-0.2-0.1c0,0,0,0.1,0.1,0.1c-0.2,0.1-0.4,0.1-0.6,0.1C-263.3,401.1-263.4,401-263.4,400.9L-263.4,400.9z"/>
			<path d="M-263.1,401.3L-263.1,401.3c-0.2-0.1-0.3-0.3-0.3-0.4l0,0l0,0c0.1-0.3,0.2-0.5,0.3-0.5l0,0l0,0c0.1,0,0.2,0,0.3,0.1l0,0
				c0,0,0,0,0-0.1v0l0,0c0.1,0,0.1-0.1,0.2-0.1c0.1,0,0.1-0.1,0.2-0.1l0,0l0,0c0,0,0.1,0,0.1,0.1l0,0c0,0,0-0.1,0-0.1l0,0l0,0
				c0,0,0.1,0,0.2,0c0.1,0,0.2,0,0.2-0.1l0,0l0,0c0,0,0,0.1,0.1,0.1c0,0,0,0,0,0c0,0,0-0.1,0-0.1l0,0l0,0c0,0,0.1,0,0.1,0
				c0,0,0,0,0,0c0,0,0,0,0,0l0,0l0,0c0,0,0.1,0,0.1,0c0.1,0,0.1-0.1,0.2-0.1l0,0l0,0c0,0,0,0.1,0,0.1c0,0,0,0.1,0,0.1c0,0,0,0,0.1,0
				c0,0,0,0,0,0l0,0l0,0.1c-0.1,0.1-0.1,0.3-0.2,0.3l0,0l0,0c0,0-0.1,0-0.1,0c0,0,0,0,0,0.1l0,0l0,0c0,0-0.1,0.1-0.1,0.1
				c0,0-0.1,0.1-0.1,0.1l0,0l0,0c-0.1,0-0.1,0-0.1,0c0,0,0,0.1,0,0.1l0,0l0,0c-0.2,0.1-0.3,0.2-0.4,0.2l0,0l0,0c0,0-0.1,0-0.2-0.1
				c0,0,0,0,0,0.1l0,0l0,0C-262.7,401.2-262.9,401.2-263.1,401.3L-263.1,401.3z M-263.4,400.9c0.1,0.1,0.2,0.2,0.3,0.3
				c0.2,0,0.4,0,0.6-0.1c0,0,0-0.1,0-0.1l0,0l0,0c0,0,0.1,0,0.2,0.1c0,0,0.2-0.1,0.3-0.1c0,0,0-0.1,0-0.1v0l0.1,0c0,0,0.1,0,0.1,0
				c0,0,0.1-0.1,0.1-0.1c0,0,0.1-0.1,0.1-0.1c0,0,0-0.1,0-0.1l0-0.1l0.1,0c0,0,0,0,0.1,0c0,0,0,0,0.1,0c0-0.1,0.1-0.2,0.2-0.3l0,0
				c0,0,0,0,0,0c0,0,0,0-0.1-0.1l0,0v0c0,0,0-0.1,0-0.1c0,0,0-0.1,0-0.1c0,0-0.1,0-0.1,0c0,0,0,0-0.1,0c0,0,0,0,0,0c0,0,0,0,0,0.1
				l0,0l0,0c0,0,0,0,0,0c0,0,0,0.1,0,0.1c0,0,0,0,0,0l0,0.1l0-0.1c0,0,0-0.1-0.1-0.1c0,0-0.1,0-0.2,0.1c0,0-0.1,0-0.1,0
				c0,0,0,0.1,0,0.1c0,0,0,0,0,0l0,0l0,0c0,0,0,0-0.1-0.1c0,0-0.1,0.1-0.1,0.1c0,0-0.1,0-0.1,0.1c0,0,0,0.1,0,0.1l0,0l-0.1,0
				c-0.1,0-0.2,0-0.3-0.1C-263.2,400.4-263.3,400.6-263.4,400.9z"/>
		</g>
		<g>
			<path d="M-263.9,400.8c0.6,0.2,1.8-0.3,2.5-0.8C-262,400.5-263,401.1-263.9,400.8C-263.9,400.9-263.9,400.8-263.9,400.8
				L-263.9,400.8z"/>
			<path d="M-263.6,401c-0.1,0-0.2,0-0.3,0l0,0l0,0c0,0,0-0.1,0-0.1l0,0l0,0c0.6,0.2,1.8-0.3,2.5-0.8l0,0
				C-261.8,400.4-262.7,401-263.6,401z M-263.9,400.9c0.4,0.1,0.9,0,1.3-0.2C-263.1,400.9-263.6,400.9-263.9,400.9
				C-263.9,400.9-263.9,400.9-263.9,400.9z"/>
		</g>
		<g>
			<path class="st1" d="M-260.6,398.7c-0.2,0-0.4,0.1-0.5,0.3c-0.1,0-0.2,0.1-0.3,0.1c0,0-0.1,0.1-0.2,0.1c-0.1,0-0.2,0.1-0.2,0.2
				c0,0,0,0.1,0.1,0.1s0.2,0.1,0.3,0.1c0.1,0,0.1,0,0.2,0c0.1,0,0.2,0,0.3,0c0.1,0,0.1,0,0.2,0c0,0,0.1,0,0.2,0.1
				c0.1,0,0.1-0.1,0.2-0.1c0.2,0,0.3,0,0.4-0.1c0.1-0.1,0.1-0.1,0.2-0.1c0.1,0,0.1-0.2,0.1-0.3c0.2-0.2,0.3-0.3,0.3-0.4
				c-0.1-0.2-0.5-0.4-0.8-0.2C-260.4,398.4-260.5,398.5-260.6,398.7L-260.6,398.7z"/>
			<path d="M-260.5,399.7L-260.5,399.7c-0.1,0-0.2,0-0.2-0.1c0,0-0.1,0-0.1,0c-0.1,0-0.2,0-0.3,0c0,0-0.1,0-0.2,0c0,0,0,0-0.1,0
				c-0.1,0-0.2-0.1-0.3-0.1c-0.1,0-0.1-0.1-0.1-0.1c0,0,0,0,0-0.1c0,0,0.1-0.2,0.2-0.2c0.1,0,0.1,0,0.1-0.1c0,0,0.2-0.1,0.3-0.1
				c0.1-0.2,0.3-0.3,0.4-0.3c0.1-0.2,0.2-0.3,0.4-0.3c0.1-0.1,0.2-0.1,0.4-0.1c0.2,0,0.4,0.2,0.5,0.3l0,0l0,0c0,0.1-0.1,0.2-0.3,0.4
				c0,0.1,0,0.3-0.1,0.4c-0.1,0-0.1,0.1-0.2,0.1c-0.1,0.1-0.2,0.1-0.4,0.1C-260.4,399.6-260.4,399.7-260.5,399.7L-260.5,399.7z
				 M-260.8,399.6c0,0,0.1,0,0.1,0c0,0,0.1,0,0.1,0c0.1,0,0.1-0.1,0.2-0.1l0,0l0,0c0.2,0,0.3,0,0.3-0.1c0.1-0.1,0.1-0.1,0.2-0.2
				c0,0,0.1-0.2,0.1-0.3l0,0l0,0c0.2-0.2,0.3-0.3,0.3-0.4c-0.1-0.1-0.2-0.2-0.4-0.2c-0.1,0-0.2,0-0.3,0.1l0,0l0,0
				c-0.1,0-0.3,0.1-0.3,0.3l0,0l0,0c-0.2,0-0.3,0.1-0.4,0.3l0,0l0,0c0,0,0,0,0,0c-0.1,0-0.2,0.1-0.2,0.1c0,0-0.1,0.1-0.2,0.1
				c-0.1,0-0.2,0.1-0.2,0.2c0,0,0,0,0,0c0,0,0,0,0.1,0.1c0.1,0.1,0.2,0.1,0.3,0.1c0.1,0,0.1,0,0.2,0c0,0,0.2,0,0.2,0
				C-260.8,399.6-260.8,399.6-260.8,399.6z"/>
		</g>
		<g>
			<path class="st7" d="M-259.7,399c0,0.1,0,0.3-0.1,0.3c-0.1,0-0.1,0.1-0.2,0.1c-0.1,0.1-0.2,0.1-0.4,0.1c-0.1-0.1-0.1-0.1-0.1-0.2
				c0.1,0.1,0.2,0.1,0.2,0c0-0.1,0-0.1,0.1-0.1c0.1,0,0.2,0.1,0.2,0c-0.1-0.1-0.1-0.2,0-0.1c0.1,0,0.2,0,0.1,0
				c-0.1-0.1-0.1-0.1,0-0.1c0.1,0,0.1,0,0.1,0c-0.1-0.1-0.1-0.1,0-0.1C-259.9,399-259.8,399-259.7,399L-259.7,399z"/>
			<path d="M-260.3,399.6C-260.3,399.6-260.3,399.6-260.3,399.6L-260.3,399.6l-0.1,0c-0.1-0.1-0.1-0.1-0.1-0.2l0-0.1l0.1,0.1
				c0.1,0.1,0.1,0.1,0.1,0.1c0,0,0,0,0,0l0,0c0,0,0-0.1,0-0.1c0,0,0.1,0,0.1,0s0.1,0,0.1,0c0,0,0,0,0,0c0,0,0,0,0,0
				c-0.1-0.1-0.1-0.1-0.1-0.2c0,0,0.1,0,0.1,0c0,0,0.1,0,0.1,0c-0.1-0.1-0.1-0.1-0.1-0.1c0,0,0,0,0.1,0c0,0,0,0,0,0
				c0,0-0.1-0.1-0.1-0.1c0,0,0.1,0,0.1,0c0.1,0,0.1,0,0.2,0l0,0l0,0c0,0.2,0,0.3-0.1,0.4c-0.1,0-0.1,0.1-0.2,0.1
				C-260,399.5-260.1,399.6-260.3,399.6z M-260.3,399.5c0.1,0,0.3,0,0.3-0.1c0.1-0.1,0.1-0.1,0.2-0.2c0,0,0.1-0.1,0.1-0.3
				c-0.1,0-0.1,0-0.2,0c0,0,0,0,0,0c0,0,0.1,0,0,0.1c0,0,0,0-0.1,0c0,0,0,0,0,0c0,0,0,0.1,0,0.1c0,0-0.1,0-0.2,0c0,0,0,0,0.1,0.1
				c0,0,0,0.1,0,0.1c0,0-0.2,0-0.2,0c0,0,0,0,0,0c0,0,0,0,0,0l0,0C-260.2,399.5-260.3,399.5-260.3,399.5
				C-260.3,399.5-260.3,399.5-260.3,399.5C-260.4,399.5-260.3,399.5-260.3,399.5z"/>
		</g>
		<g>
			<path class="st7" d="M-260.6,398.7c-0.2,0-0.4,0.1-0.5,0.3c0.1,0.1,0.2,0.1,0.2,0.1c-0.1-0.1,0-0.1,0-0.1c0.1,0.1,0.1,0.1,0.1,0
				c-0.1-0.1,0-0.1,0,0c0.1,0.1,0.2,0.1,0.1,0c-0.1-0.1-0.1-0.2,0-0.1c0.1,0.1,0.2,0.1,0.1,0.1c-0.1-0.1-0.1-0.1,0-0.1
				c0.1,0.1,0.2,0,0.1,0C-260.5,398.8-260.6,398.8-260.6,398.7L-260.6,398.7z"/>
			<path d="M-260.9,399.1c0,0-0.1,0-0.2-0.1l0,0l0,0c0.1-0.2,0.3-0.3,0.5-0.3l0,0l0,0c0,0.1,0.1,0.1,0.1,0.2c0.1,0,0.1,0.1,0.1,0.1
				l0,0l0,0c0,0,0,0-0.1,0c0,0,0,0.1,0,0.1c0,0,0,0-0.2-0.1c0,0,0,0-0.1,0c0,0,0,0,0,0.1c0,0,0.1,0.1,0,0.1c0,0-0.1,0-0.2-0.1l0,0
				c0,0,0.1,0.1,0,0.1c0,0,0,0-0.1-0.1c0,0,0,0,0,0C-260.9,399-260.9,399-260.9,399.1C-260.8,399.1-260.8,399.1-260.9,399.1
				C-260.8,399.1-260.8,399.1-260.9,399.1z M-261,399C-261,399-260.9,399-261,399C-260.9,399-260.9,399-261,399
				c0.1-0.1,0.1-0.1,0.2,0c0,0,0,0,0-0.1c0,0,0.1,0,0.1,0c0,0,0,0,0,0c0,0,0-0.1,0-0.1c0,0,0,0,0,0c0,0,0.1,0,0.1,0c0,0,0,0,0,0
				c0,0,0,0,0,0c0,0,0-0.1,0-0.1C-260.8,398.8-260.9,398.9-261,399z"/>
		</g>
		<g>
			<path class="st6" d="M-260.2,398c0-0.2,0-0.3,0-0.4c0.1-0.1,0.4-0.3,0.5-0.4c0,0,0,0.1,0,0.2c0.1-0.1,0.1-0.2,0.1-0.3
				c0.1-0.1,0.2-0.1,0.3-0.2c0,0,0,0.1,0.1,0.1c0.1-0.1,0.1-0.1,0.1-0.2c0.1,0,0.2,0,0.2,0c0,0,0,0,0,0.1c0.1,0,0.1-0.1,0.1-0.1
				c0.1,0,0.3,0.1,0.4,0.1c0,0.1,0,0.1,0,0.2c0.1,0.1,0.1,0.1,0.1,0.2c-0.1,0-0.3,0.1-0.3,0.2c-0.1,0-0.1,0-0.1,0c0,0.1,0,0.1,0,0.1
				c-0.1,0.1-0.2,0.1-0.3,0.2c-0.1,0-0.1,0-0.1,0c0,0,0,0.1,0,0.1c-0.1,0.1-0.2,0.1-0.3,0.1c0,0-0.1-0.1-0.1-0.1
				c-0.1,0.2-0.2,0.3-0.2,0.3C-259.9,398.2-260.1,398.1-260.2,398L-260.2,398z"/>
			<path d="M-259.6,398.2L-259.6,398.2c-0.2,0-0.5-0.1-0.5-0.2l0,0l0,0c0-0.2,0-0.3,0-0.4v0l0,0c0.1-0.1,0.3-0.3,0.5-0.4l0,0l0,0
				c0,0,0,0,0,0.1c0,0,0,0,0-0.1s0,0,0-0.1l0,0l0,0c0.1-0.1,0.2-0.1,0.3-0.2l0,0l0,0c0,0,0,0.1,0,0.1c0,0,0-0.1,0.1-0.1
				c0,0,0,0,0.1-0.1l0,0l0,0c0.1,0,0.2,0,0.2,0l0,0l0,0c0,0,0,0,0,0.1c0,0,0,0,0,0c0,0,0,0,0.1-0.1l0,0l0,0c0.1,0,0.3,0.1,0.3,0.1h0
				l0,0c0,0,0,0.1,0,0.1c0,0,0,0,0,0c0,0.1,0.1,0.1,0.1,0.2l0,0l0,0c-0.2,0-0.3,0.1-0.3,0.2l0,0l0,0c0,0-0.1,0-0.1,0
				c0,0,0,0.1,0,0.1l0,0l0,0c-0.1,0.1-0.2,0.1-0.2,0.1c0,0-0.1,0-0.1,0l0,0l0,0c0,0-0.1,0-0.1,0c0,0,0,0,0,0v0l-0.1,0
				c-0.1,0-0.2,0.1-0.3,0.1l0,0l0,0c0,0,0,0,0,0c0,0,0,0,0,0C-259.5,398-259.5,398.1-259.6,398.2
				C-259.6,398.2-259.6,398.2-259.6,398.2L-259.6,398.2z M-260.1,398c0.1,0.1,0.3,0.1,0.5,0.1c0,0,0,0,0-0.1c0-0.1,0.1-0.1,0.1-0.2
				l0,0l0,0c0,0,0,0,0,0c0,0,0,0,0,0c0.1,0,0.2-0.1,0.3-0.1l0,0c0,0,0,0,0,0l0-0.1l0.1,0c0,0,0.1,0,0.1,0c0,0,0,0,0.1,0
				c0,0,0,0,0.1,0c0.1,0,0.1-0.1,0.2-0.1c0,0,0-0.1,0-0.1l0-0.1l0.1,0c0,0,0.1,0,0.1,0c0.1,0,0.2-0.1,0.3-0.1c0,0-0.1-0.1-0.1-0.1
				l0,0l0,0c0,0,0,0,0-0.1c0,0,0,0,0-0.1c-0.1,0-0.2,0-0.3-0.1v0c0,0-0.1,0.1-0.1,0.1l0,0l0,0c0,0,0,0,0,0c0,0,0,0,0,0
				c-0.1,0-0.1,0-0.2,0c0,0,0,0,0,0.1c0,0-0.1,0.1-0.1,0.1l0,0l0-0.1c0,0,0-0.1,0-0.1c-0.1,0-0.2,0.1-0.3,0.1c0,0,0,0,0,0.1
				c0,0,0,0.1-0.1,0.2l-0.1,0c0,0,0-0.1,0-0.1c-0.1,0-0.3,0.2-0.4,0.3C-260.2,397.8-260.1,397.9-260.1,398z"/>
		</g>
		<g>
			<path d="M-260.5,398.4c0.5-0.7,1.7-1.2,2.2-1.2C-258.9,397.2-260,397.7-260.5,398.4C-260.5,398.4-260.5,398.4-260.5,398.4
				L-260.5,398.4z"/>
			<path d="M-260.4,398.4L-260.4,398.4C-260.5,398.4-260.5,398.4-260.4,398.4l-0.1-0.1L-260.4,398.4c0.4-0.8,1.6-1.3,2.1-1.3l0,0.1
				C-258.8,397.2-260,397.8-260.4,398.4L-260.4,398.4z"/>
		</g>
		<g>
			<path class="st1" d="M-258.5,394.5c-0.3,0.1-0.5,0.3-0.5,0.5c0,0.1,0,0.3,0,0.3c0,0.1,0.1,0.1,0.1,0.2c-0.1,0.2,0,0.4,0.1,0.6
				c-0.1,0.1,0,0.3,0,0.4c0,0.1,0,0.3,0.1,0.3c0,0.1,0.1,0.1,0.2,0c0.1-0.1,0.2-0.3,0.2-0.4c0.1-0.1,0.2-0.2,0.2-0.4
				c0.1-0.1,0.2-0.2,0.1-0.4c0.1-0.2,0.1-0.4,0.1-0.4c0-0.1-0.1-0.1-0.1-0.2c0-0.1-0.1-0.2-0.3-0.2
				C-258.4,394.7-258.4,394.6-258.5,394.5L-258.5,394.5z"/>
			<path d="M-258.7,397C-258.7,397-258.7,397-258.7,397c-0.1,0-0.1,0-0.1-0.1c-0.1-0.1-0.1-0.2-0.1-0.3c0,0,0-0.1,0-0.1
				c0-0.1,0-0.2,0-0.2c-0.1-0.2-0.1-0.4-0.1-0.6c0,0-0.1-0.1-0.1-0.2c0,0,0-0.1,0-0.2c0-0.1,0-0.1,0-0.2c0-0.2,0.2-0.5,0.5-0.6l0,0
				l0,0c0.1,0.1,0.2,0.2,0.2,0.4c0.1,0,0.3,0.1,0.3,0.2c0,0.1,0,0.1,0.1,0.2l0,0c0.1,0.1,0,0.3-0.1,0.4c0,0.1,0,0.1,0,0.2
				c0,0.1-0.1,0.2-0.2,0.2c0,0.1-0.1,0.3-0.2,0.4c0,0.1-0.1,0.3-0.2,0.4C-258.6,396.9-258.6,397-258.7,397z M-258.5,394.5
				c-0.3,0.1-0.4,0.3-0.4,0.5c0,0.1,0,0.1,0,0.2c0,0.1,0,0.1,0,0.2c0,0.1,0.1,0.1,0.1,0.2l0,0l0,0c-0.1,0.2,0,0.4,0.1,0.5l0,0l0,0
				c0,0.1,0,0.2,0,0.2c0,0.1,0,0.1,0,0.2c0,0.1,0,0.2,0.1,0.3c0,0,0,0,0.1,0c0,0,0,0,0,0c0,0,0,0,0.1,0c0.1-0.1,0.2-0.2,0.2-0.3l0,0
				l0,0c0.1-0.1,0.2-0.2,0.2-0.3l0,0l0,0c0.1,0,0.1-0.1,0.1-0.2c0-0.1,0-0.1,0-0.2l0,0l0,0c0.1-0.2,0.1-0.3,0.1-0.4l0,0
				c0-0.1-0.1-0.1-0.1-0.2c0-0.1-0.1-0.2-0.3-0.2l0,0l0,0C-258.4,394.8-258.4,394.6-258.5,394.5z"/>
		</g>
		<g>
			<path class="st7" d="M-258.8,396.2c-0.1-0.2-0.2-0.4-0.1-0.6c0.1,0,0.1,0,0.2,0c0.1,0,0.1,0,0,0s-0.1,0.1,0,0c0.1,0,0.1,0,0,0
				c-0.1,0-0.2,0.2,0,0.1c0.2-0.1,0.1,0,0,0c-0.1,0-0.2,0.1-0.1,0.1s0.2,0,0.1,0c-0.1,0-0.2,0.1,0,0.1c0.1,0,0.1,0,0.1,0
				C-258.7,396.1-258.7,396.1-258.8,396.2L-258.8,396.2z"/>
			<path d="M-258.8,396.2L-258.8,396.2c-0.1-0.2-0.2-0.4-0.1-0.6l0,0l0,0c0,0,0.1,0,0.2,0c0,0,0.1,0,0.1,0l0,0l0,0c0,0,0,0,0,0
				c0,0,0.1,0,0.1,0l0,0l0,0c0,0,0,0-0.1,0.1c0,0-0.1,0-0.1,0c0,0,0,0,0,0c0.1-0.1,0.1,0,0.1,0l0,0l0,0c0,0-0.1,0.1-0.1,0.1
				c0,0,0,0,0,0c0.1,0,0.1,0,0.1,0c0,0,0,0.1-0.1,0.1c0,0,0,0,0,0c0,0,0,0,0.1,0c0,0,0,0.1,0,0.1c0,0,0,0-0.1,0.1
				C-258.7,396.1-258.7,396.2-258.8,396.2L-258.8,396.2z M-258.9,395.6c-0.1,0.2,0,0.3,0.1,0.5c0,0,0,0,0,0c0,0,0,0,0-0.1
				c0,0,0,0,0,0c0,0-0.1,0-0.1,0c0,0,0-0.1,0.1-0.1c0,0-0.1,0-0.1,0c0,0,0,0,0,0c0,0,0,0,0-0.1c0,0,0,0,0,0c0,0,0,0,0,0
				c0,0,0-0.1,0.1-0.1C-258.7,395.7-258.7,395.7-258.9,395.6C-258.8,395.6-258.8,395.6-258.9,395.6
				C-258.8,395.6-258.8,395.6-258.9,395.6z"/>
		</g>
		<g>
			<path class="st7" d="M-258,395.8c0.1-0.2,0.1-0.4,0.1-0.4c0-0.1-0.1-0.1-0.1-0.2c0-0.1-0.1-0.2-0.3-0.2c0,0.1,0,0.2,0,0.2
				c0,0-0.1,0.1,0,0.1c0,0,0.1,0,0.1,0c0,0,0,0,0,0c0,0-0.1,0.1,0,0.1s0.1,0,0.1,0c0,0.1-0.1,0.1-0.1,0.2c0.1,0,0.1,0,0.1,0
				c0,0,0.1,0,0,0c0,0.1-0.1,0.1-0.1,0.1c0,0-0.1,0,0,0.1C-258.1,395.6-258.1,395.7-258,395.8c-0.1,0-0.1,0-0.2,0
				C-258.2,395.8-258.1,395.8-258,395.8L-258,395.8z"/>
			<path d="M-258.1,395.8c0,0-0.1,0-0.1,0l0-0.1c0,0,0.1,0,0.1,0c0,0,0,0,0,0c0,0,0,0,0,0c0,0-0.1,0-0.1,0c0,0,0-0.1,0.1-0.1
				c0,0,0.1,0,0.1-0.1c0,0,0,0,0,0c0,0-0.1,0-0.1,0l0-0.1c0,0,0.1-0.1,0.1-0.1c0,0,0,0,0,0c0,0-0.1,0-0.1,0c0,0,0,0,0,0
				c0,0,0,0,0-0.1c0,0,0,0-0.1,0c0,0,0,0-0.1,0c0,0,0-0.1,0-0.1c0,0,0-0.1,0-0.2l0-0.1l0.1,0c0.2,0,0.3,0.1,0.3,0.3
				c0,0.1,0,0.1,0.1,0.2l0,0C-257.9,395.4-257.9,395.6-258.1,395.8L-258.1,395.8L-258.1,395.8C-258.1,395.8-258.1,395.8-258.1,395.8
				z M-258.1,395.6C-258.1,395.6-258.1,395.6-258.1,395.6c0.1,0.1,0.1,0.1,0,0.1c0,0,0,0,0,0c0,0,0,0,0,0c0.1-0.2,0.1-0.3,0.1-0.4
				l0,0c0-0.1-0.1-0.1-0.1-0.2c0-0.1-0.1-0.1-0.2-0.2c0,0.1,0,0.1,0,0.2c0,0,0,0,0,0c0,0,0,0,0.1,0c0,0,0.1,0,0.1,0c0,0,0,0,0,0.1
				l0,0c0,0,0,0,0,0c0,0,0.1,0,0.1,0l0,0l0,0c0,0,0,0.1-0.1,0.1c0,0,0,0,0,0c0,0,0.1,0,0.1,0c0,0,0,0.1,0,0.1
				C-258.1,395.5-258.1,395.6-258.1,395.6C-258.1,395.6-258.1,395.6-258.1,395.6z"/>
		</g>
		<g>
			<path class="st6" d="M-259.2,393.3c0,0,0.1-0.1,0.2-0.1c0,0,0-0.1,0-0.1c0.2,0,0.3,0.1,0.3,0.1c0,0,0,0.1,0.1,0.1c0,0,0,0,0,0
				c0.1,0,0.2,0.1,0.2,0.1c0,0.1,0.1,0.1,0.1,0.2c0,0,0.1,0,0.1-0.1c0.1,0.1,0.2,0.2,0.2,0.3c0,0.1,0,0.2,0,0.2c0,0,0.1-0.1,0.1-0.1
				c0.1,0.1,0.2,0.4,0.3,0.5c-0.1,0.1-0.2,0.2-0.2,0.3c-0.2,0-0.3,0-0.4,0c-0.1-0.1-0.1-0.1-0.2-0.2c0-0.1,0-0.1,0-0.2
				c0,0-0.1,0-0.1,0c-0.1-0.1-0.2-0.2-0.2-0.2c0,0,0-0.1,0-0.1c0,0-0.1,0-0.1,0c-0.1-0.1-0.1-0.2-0.2-0.3c0,0,0.1-0.1,0.1-0.1
				c0,0-0.1,0-0.1,0C-259.1,393.4-259.2,393.4-259.2,393.3L-259.2,393.3z"/>
			<path d="M-257.8,394.7L-257.8,394.7c-0.2,0-0.3,0-0.4,0l0,0l0,0c-0.1-0.1-0.1-0.1-0.1-0.2l0,0l0,0c0,0,0-0.1,0-0.1c0,0,0,0,0,0
				c0,0,0,0,0,0l0,0l0,0c-0.1-0.1-0.2-0.2-0.2-0.2l0,0l0,0c0,0,0,0,0,0c0,0-0.1,0-0.1,0h0l0,0c0,0-0.1-0.1-0.1-0.1
				c0-0.1-0.1-0.1-0.1-0.1l0,0l0,0c0,0,0,0,0.1-0.1c0,0,0,0-0.1,0l0,0l0,0c-0.1-0.1-0.1-0.1-0.1-0.2c0,0-0.1-0.1-0.1-0.1l0,0l0,0
				c0,0,0.1-0.1,0.1-0.1c0,0,0-0.1,0-0.1l0,0l0,0c0.1,0,0.3,0.1,0.4,0.1l0,0l0,0c0,0,0,0,0,0c0,0,0,0,0,0l0,0l0,0
				c0.1,0,0.2,0.1,0.2,0.1l0,0l0,0c0,0,0,0.1,0,0.1c0,0,0,0,0,0l0,0l0,0c0.1,0.1,0.2,0.2,0.2,0.3l0,0v0c0,0,0,0,0,0.1c0,0,0,0,0,0
				c0,0,0,0,0,0l0,0l0,0c0.1,0.1,0.2,0.4,0.3,0.5l0,0l0,0c0,0-0.1,0.1-0.1,0.1C-257.8,394.6-257.8,394.6-257.8,394.7L-257.8,394.7z
				 M-258.2,394.6c0.1,0,0.2,0,0.3,0c0-0.1,0.1-0.1,0.1-0.2c0,0,0.1-0.1,0.1-0.1c0-0.1-0.1-0.3-0.3-0.4c0,0,0,0-0.1,0.1l-0.1,0.1
				l0-0.1c0,0,0-0.1,0-0.1c0,0,0,0,0-0.1c0-0.1-0.1-0.2-0.2-0.2c0,0,0,0-0.1,0l0,0v-0.1c0,0,0-0.1,0-0.1l0,0c0,0-0.1-0.1-0.2-0.1
				c0,0,0,0,0,0l0,0l0,0c0,0,0-0.1,0-0.1l0,0c-0.1,0-0.2-0.1-0.3-0.1c0,0,0,0.1,0,0.1l0,0l0,0c0,0-0.1,0-0.1,0c0,0,0,0,0.1,0.1
				c0,0,0.1,0.1,0.1,0.1c0,0,0.1,0,0.1,0l0,0l0,0c0,0,0,0-0.1,0.1c0,0,0.1,0.1,0.1,0.1c0,0,0,0.1,0.1,0.1c0,0,0.1,0,0.1,0l0,0l0,0
				c0,0,0,0,0,0.1l0,0c0,0,0.1,0.1,0.2,0.2c0,0,0,0,0,0c0,0,0,0,0,0l0,0v0.1c0,0.1,0,0.1,0,0.2
				C-258.3,394.5-258.3,394.5-258.2,394.6L-258.2,394.6C-258.2,394.6-258.2,394.6-258.2,394.6z"/>
		</g>
		<g>
			<path d="M-257.8,395.1c0-0.5-0.8-1.5-1.3-1.8C-258.6,393.5-257.8,394.4-257.8,395.1C-257.7,395.1-257.8,395.1-257.8,395.1
				L-257.8,395.1z"/>
			<path d="M-257.7,395.1C-257.8,395.1-257.8,395.1-257.7,395.1L-257.7,395.1L-257.7,395.1c-0.1-0.6-0.8-1.5-1.4-1.8l0-0.1
				C-258.6,393.5-257.7,394.4-257.7,395.1L-257.7,395.1L-257.7,395.1C-257.7,395.1-257.7,395.1-257.7,395.1z"/>
		</g>
		<g>
			<path class="st1" d="M-258.9,391c-0.3,0.2-0.3,0.6-0.2,0.8c0,0.2,0.1,0.3,0.2,0.3c0,0.2,0.1,0.4,0.3,0.5c0,0.1,0.1,0.2,0.1,0.3
				s0.1,0.2,0.1,0.3c0,0.1,0.1,0.1,0.2,0c0.1-0.1,0.1-0.2,0.1-0.4c0.1-0.1,0.1-0.3,0.1-0.5c0.1-0.1,0.1-0.3,0-0.4
				c0-0.2,0-0.4-0.2-0.5c-0.1-0.2-0.3-0.2-0.4-0.2C-258.7,391.1-258.7,391.1-258.9,391L-258.9,391z"/>
			<path d="M-258.2,393.4c0,0-0.1,0-0.1-0.1c-0.1-0.1-0.1-0.2-0.2-0.3c0,0,0-0.1,0-0.1c0-0.1-0.1-0.1-0.1-0.2
				c-0.1-0.1-0.3-0.3-0.3-0.5c-0.1-0.1-0.3-0.2-0.2-0.4c-0.1-0.2-0.1-0.6,0.2-0.8l0,0l0,0c0.2,0,0.2,0.1,0.4,0.3
				c0.1,0,0.3,0,0.4,0.2c0.2,0.1,0.2,0.3,0.2,0.5c0.1,0.1,0.1,0.3,0,0.4c0,0.1,0,0.3-0.1,0.5c0.1,0.2,0,0.3-0.1,0.4
				C-258.1,393.4-258.1,393.4-258.2,393.4C-258.2,393.4-258.2,393.4-258.2,393.4z M-258.9,391.1c-0.3,0.2-0.2,0.6-0.2,0.7l0,0l0,0
				c0,0.1,0.1,0.3,0.2,0.3l0,0l0,0c0,0.1,0.1,0.4,0.3,0.5l0,0l0,0c0,0.1,0,0.1,0.1,0.2c0,0,0,0.1,0.1,0.1c0,0.1,0.1,0.2,0.1,0.3
				c0,0,0,0,0.1,0c0,0,0,0,0,0c0,0,0,0,0.1,0c0.1-0.1,0.1-0.2,0.1-0.4l0,0l0,0c0.1-0.1,0.1-0.3,0.1-0.4l0,0l0,0
				c0.1-0.1,0.1-0.3,0-0.4l0,0l0,0c0-0.3,0-0.4-0.1-0.4l0,0l0,0c-0.1-0.2-0.3-0.2-0.4-0.2h0l0,0
				C-258.7,391.2-258.7,391.1-258.9,391.1z"/>
		</g>
		<g>
			<path class="st7" d="M-258.5,392.7c-0.1-0.1-0.3-0.4-0.3-0.5c0.1,0,0.2-0.1,0.2-0.1c0,0-0.1,0.1-0.1,0.1c0.1,0,0.1-0.1,0.1-0.1
				c0,0.1-0.1,0.2-0.2,0.2c0,0,0,0.1,0,0c0.1,0,0.1-0.1,0.2-0.1c-0.1,0.1-0.1,0.1-0.1,0.2c0,0,0,0.1,0.1,0c0.1-0.1,0.2-0.1,0.1,0
				c-0.1,0.1-0.1,0.2,0,0.1c0.1-0.1,0.2-0.2,0.1,0C-258.5,392.6-258.5,392.6-258.5,392.7L-258.5,392.7z"/>
			<path d="M-258.5,392.7L-258.5,392.7c-0.2-0.1-0.4-0.4-0.3-0.6l0,0l0,0c0.1,0,0.1-0.1,0.2-0.1l0.1,0c0,0,0,0,0,0c0,0,0,0,0,0
				l0.1,0c0,0.1-0.1,0.1-0.1,0.2c0,0,0.1,0,0.1-0.1c0,0,0,0,0,0l0,0c0,0,0,0,0,0c0,0-0.1,0.1-0.1,0.1c0,0,0,0,0,0c0,0,0.1-0.1,0.1,0
				c0,0,0,0,0,0c0,0,0,0,0,0c0,0,0,0,0.1,0c0,0,0,0.1,0,0.1l0,0C-258.5,392.6-258.5,392.6-258.5,392.7L-258.5,392.7z M-258.8,392.2
				c0,0.1,0.1,0.3,0.2,0.4c0,0,0,0,0-0.1c0,0,0,0,0,0l0,0l0,0c0,0,0-0.1,0-0.1c0,0-0.1,0-0.1,0c0,0,0-0.1,0-0.1c0,0,0,0,0,0
				c0,0,0,0,0,0c0,0,0,0,0,0c0,0-0.1,0-0.1,0c0,0,0-0.1,0-0.1c0,0,0,0,0,0l0,0C-258.7,392.1-258.7,392.2-258.8,392.2L-258.8,392.2z"
				/>
		</g>
		<g>
			<path class="st7" d="M-258,392c0-0.2,0-0.4-0.2-0.5c-0.1-0.2-0.3-0.2-0.4-0.2c0,0.1,0.1,0.1,0.1,0.2s0,0.1,0,0.1
				c0.1-0.1,0.1-0.1,0.1,0c0,0.1,0,0.1,0.1,0c0-0.1,0.1,0,0.1,0.1c0,0.1,0,0.1,0,0.1s0.1,0,0.1,0c0,0.1,0,0.1-0.1,0.1
				c-0.1,0-0.1,0.1,0,0.1c0.1,0,0.2,0,0.1,0.1c-0.1,0-0.1,0.1,0,0.1C-258,392-258,392-258,392L-258,392z"/>
			<path d="M-258.1,392.1C-258.1,392.1-258.1,392.1-258.1,392.1C-258.2,392.1-258.2,392.1-258.1,392.1c0-0.1,0-0.1,0-0.1
				c0,0,0,0,0,0c0,0,0,0-0.1,0c-0.1,0-0.1,0-0.1,0c0,0,0-0.1,0.1-0.1c0.1,0,0.1,0,0.1-0.1l0,0c0,0,0,0,0,0c0,0,0,0-0.1,0
				c0,0-0.1,0-0.1,0c0,0,0-0.1,0-0.1c0,0,0-0.1,0-0.1c0,0,0,0,0,0c0,0-0.1,0.1-0.1,0c0,0,0,0,0-0.1c0,0,0,0,0,0c0,0.1-0.1,0-0.1,0
				c0,0,0-0.1,0-0.1c0,0,0-0.1,0-0.1l0-0.1h0.1c0.1,0,0.3,0,0.4,0.2c0.2,0.1,0.2,0.3,0.2,0.5l0,0l0,0c0,0,0,0,0,0
				C-258,392.1-258,392.1-258.1,392.1C-258.1,392.1-258.1,392.1-258.1,392.1z M-258.1,391.9c0,0,0.1,0,0.1,0.1c0,0,0,0,0,0.1
				c0,0,0,0,0,0c0,0,0,0,0,0c0-0.2,0-0.4-0.1-0.4l0,0l0,0c0-0.1-0.2-0.2-0.3-0.2c0,0,0,0.1,0,0.2c0,0,0,0,0,0c0,0,0,0,0,0
				c0,0,0.1-0.1,0.1-0.1c0,0,0,0.1,0,0.1c0,0,0,0,0,0c0,0,0,0,0,0c0,0,0.1,0,0.1,0c0,0,0,0.1,0,0.1c0,0,0,0,0,0c0,0,0.1,0,0.1,0
				c0,0,0,0,0,0.1l0,0C-258,391.8-258,391.9-258.1,391.9C-258.1,391.9-258.1,391.9-258.1,391.9z"/>
		</g>
		<g>
			<path class="st6" d="M-259.5,389.5l0,0.1c-0.1,0-0.2,0.1-0.2,0.1c0.1,0.1,0.3,0.2,0.3,0.3c0,0,0.1,0,0.1,0c0,0-0.1,0.1-0.1,0.1
				c0.1,0.1,0.2,0.3,0.3,0.3c0,0,0.1,0,0.1,0c0,0,0,0.1,0,0.1c0.1,0.1,0.2,0.2,0.3,0.3c0,0,0.1,0,0.1-0.1c0.1,0.1,0.1,0.2,0.1,0.3
				c0.2,0.1,0.4,0,0.5,0.1c0.1-0.1,0.1-0.3,0.2-0.3c-0.1-0.2-0.2-0.5-0.3-0.5c0,0-0.1,0.1-0.1,0.1c0-0.1,0-0.2,0-0.2
				c-0.1-0.1-0.2-0.2-0.3-0.3c0,0-0.1,0.1-0.1,0.1c0-0.1-0.1-0.2-0.1-0.2c-0.1,0-0.2-0.1-0.2-0.1c0,0,0,0.1,0,0.1
				c0-0.1-0.1-0.1-0.1-0.2C-259.3,389.5-259.4,389.5-259.5,389.5L-259.5,389.5z"/>
			<path d="M-258,391.1L-258,391.1c-0.1,0-0.1,0-0.2,0c-0.1,0-0.2,0-0.4-0.1l0,0l0,0c0-0.1,0-0.2-0.1-0.3c0,0,0,0,0,0l0,0l0,0
				c0,0-0.1-0.1-0.2-0.2l-0.1-0.1l0,0c0,0,0,0,0-0.1l-0.1,0l0,0c0,0-0.2-0.2-0.3-0.3l0,0l0,0c0,0,0,0,0-0.1c0,0-0.1,0-0.1,0l0,0l0,0
				c0,0-0.1-0.1-0.1-0.1c-0.1-0.1-0.1-0.1-0.2-0.2l0,0l0.1,0c0,0,0.1,0,0.2-0.1l0-0.2l0,0c0.1,0,0.2,0,0.4,0.1l0,0l0,0
				c0,0,0,0,0,0.1c0,0,0,0,0,0c0,0,0,0,0,0l0,0l0,0c0,0,0.1,0,0.1,0c0,0,0.1,0,0.1,0l0,0c0,0,0.1,0.1,0.1,0.2l0,0c0,0,0,0,0,0l0,0
				l0,0c0.1,0,0.2,0.1,0.3,0.3l0,0l0,0c0,0,0,0.1,0,0.1c0,0,0,0,0,0l0,0l0,0c0.1,0.1,0.3,0.3,0.4,0.6l0,0l0,0
				C-257.9,390.8-258,391-258,391.1L-258,391.1z M-258.5,391c0.1,0.1,0.2,0,0.3,0c0.1,0,0.1,0,0.2,0c0-0.1,0.1-0.2,0.2-0.3
				c-0.1-0.2-0.2-0.4-0.3-0.5c0,0,0,0-0.1,0.1l0,0l0-0.1c0-0.1,0-0.2,0-0.2c-0.1-0.1-0.2-0.2-0.2-0.2c0,0,0,0,0,0c0,0,0,0,0,0l0,0.1
				l0-0.1c0-0.1-0.1-0.2-0.1-0.2c0,0-0.1,0-0.1,0c0,0-0.1,0-0.1,0c0,0,0,0,0,0c0,0,0,0,0,0l0,0.1l0-0.1c0,0,0-0.1,0-0.1c0,0,0,0,0,0
				c-0.1,0-0.2,0-0.3,0l0,0.1l0,0c0,0-0.1,0.1-0.2,0.1c0,0,0.1,0.1,0.1,0.1c0.1,0,0.1,0.1,0.1,0.1c0,0,0.1,0,0.1,0c0,0,0,0,0,0
				l0.1,0l-0.1,0c0,0,0,0-0.1,0.1c0.1,0.1,0.2,0.2,0.2,0.3l0.2,0l0,0c0,0,0,0,0,0c0,0,0,0,0,0.1l0,0c0.1,0.1,0.2,0.1,0.2,0.2
				c0,0,0,0,0.1,0l0,0l0,0C-258.6,390.8-258.6,390.9-258.5,391z"/>
		</g>
		<g>
			<path d="M-257.9,391.6c0-0.7-1.2-1.7-1.6-1.9C-259,389.8-257.9,390.8-257.9,391.6C-257.9,391.6-257.9,391.6-257.9,391.6
				L-257.9,391.6z"/>
			<path d="M-257.9,391.6L-257.9,391.6c0-0.7-1.2-1.7-1.6-1.9l0-0.1c0.5,0.2,1.6,1.2,1.6,1.9l0,0l0,0
				C-257.8,391.6-257.9,391.6-257.9,391.6L-257.9,391.6z"/>
		</g>
		<g>
			<path class="st7" d="M-267.9,399.3c0.2,0.4,0.5,0.8,0.7,1.1c0.3-0.4,0.5-0.5,0.7-0.6c0.1-0.1,0.2-0.4-0.3-1c-0.6-0.7-1-0.4-1.2,0
				C-268,398.9-267.9,399.2-267.9,399.3L-267.9,399.3z"/>
			<path d="M-267.1,400.6l-0.1-0.1c-0.3-0.3-0.6-0.7-0.8-1.2l0,0c-0.1-0.2-0.1-0.4,0-0.6c0.1-0.3,0.3-0.4,0.5-0.5
				c0.3,0,0.6,0.1,0.9,0.5c0.3,0.3,0.4,0.6,0.4,0.8c0,0.1-0.1,0.3-0.2,0.3c0,0-0.1,0.1-0.1,0.1c-0.1,0.1-0.3,0.2-0.5,0.5
				L-267.1,400.6z M-267.8,399.3c0.2,0.4,0.4,0.7,0.6,1c0.2-0.2,0.4-0.3,0.5-0.4c0,0,0.1-0.1,0.1-0.1c0,0,0.1-0.1,0.1-0.2
				c0-0.1-0.1-0.3-0.4-0.6c-0.3-0.3-0.5-0.4-0.7-0.4c-0.1,0-0.2,0.1-0.3,0.3C-267.8,398.9-267.8,399.1-267.8,399.3L-267.8,399.3z"/>
		</g>
		<g>
			<path class="st7" d="M-257.6,399.3c-0.2,0.4-0.5,0.8-0.7,1.1c-0.3-0.4-0.5-0.5-0.7-0.6c-0.1-0.1-0.2-0.4,0.3-1
				c0.6-0.7,1-0.4,1.2,0C-257.5,398.9-257.5,399.2-257.6,399.3L-257.6,399.3z"/>
			<path d="M-258.3,400.6l-0.1-0.1c-0.2-0.3-0.4-0.4-0.5-0.5c-0.1,0-0.1-0.1-0.1-0.1c-0.1-0.1-0.2-0.2-0.2-0.3
				c0-0.2,0.1-0.5,0.4-0.8c0.3-0.3,0.6-0.5,0.9-0.5c0.2,0,0.4,0.2,0.5,0.5c0.1,0.2,0,0.4,0,0.6l0,0c-0.2,0.4-0.5,0.8-0.8,1.2
				L-258.3,400.6z M-258,398.5c-0.2,0-0.4,0.1-0.6,0.4c-0.3,0.3-0.4,0.5-0.4,0.6c0,0.1,0,0.1,0.1,0.2c0,0,0.1,0.1,0.1,0.1
				c0.1,0.1,0.3,0.2,0.5,0.4c0.3-0.3,0.5-0.6,0.6-1v0c0.1-0.1,0.1-0.3,0-0.4C-257.8,398.7-257.9,398.6-258,398.5
				C-258,398.5-258,398.5-258,398.5z"/>
		</g>
		<g>
			<path class="st5" d="M-266.5,399.8C-266.4,399.8-266.4,399.8-266.5,399.8c-0.2,0.1-0.7-0.3-1-0.6c0,0.2-0.1,0.4-0.2,0.5
				c0.1,0.1,0.2,0.2,0.2,0.4c0.1,0.1,0.2,0.2,0.3,0.3C-266.8,400.1-266.6,399.9-266.5,399.8L-266.5,399.8z"/>
			<path d="M-267.1,400.6l-0.1-0.1c-0.1-0.1-0.2-0.2-0.3-0.3c-0.1-0.1-0.2-0.2-0.2-0.4l0-0.1l0-0.1c0.1-0.2,0.1-0.3,0.2-0.5l0.1-0.3
				l0.2,0.2c0.2,0.3,0.6,0.5,0.8,0.6c0,0,0.1,0,0.1,0l0.2,0.2c0,0,0,0,0,0c0,0-0.1,0.1-0.1,0.1c-0.1,0.1-0.3,0.2-0.5,0.5
				L-267.1,400.6z M-267.5,399.8c0.1,0.1,0.1,0.2,0.2,0.3c0.1,0.1,0.1,0.1,0.2,0.2c0.1-0.2,0.3-0.3,0.4-0.3
				c-0.2-0.1-0.4-0.2-0.6-0.4C-267.4,399.6-267.4,399.7-267.5,399.8z"/>
		</g>
		<g>
			<path class="st5" d="M-259,399.8C-259,399.8-259,399.8-259,399.8c0.2,0.1,0.7-0.3,1-0.6c0,0.2,0.1,0.4,0.2,0.5
				c-0.1,0.1-0.2,0.2-0.2,0.4c-0.1,0.1-0.2,0.2-0.3,0.3C-258.7,400.1-258.9,399.9-259,399.8L-259,399.8z"/>
			<path d="M-258.3,400.6l-0.1-0.1c-0.2-0.3-0.4-0.4-0.5-0.5c-0.1,0-0.1-0.1-0.1-0.1c0,0,0,0,0,0l0.2-0.2c0,0,0,0,0.1,0
				c0.2,0,0.6-0.3,0.8-0.6l0.2-0.2l0.1,0.3c0,0.2,0.1,0.3,0.2,0.5l0,0.1l0,0.1c-0.1,0.1-0.2,0.2-0.2,0.4c-0.1,0.1-0.2,0.2-0.3,0.3
				L-258.3,400.6z M-258.7,399.9c0.1,0.1,0.2,0.2,0.4,0.3c0.1-0.1,0.1-0.1,0.2-0.2c0.1-0.1,0.1-0.2,0.2-0.3c0-0.1-0.1-0.2-0.1-0.3
				C-258.3,399.7-258.5,399.8-258.7,399.9z"/>
		</g>
		<g>
			<path class="st5" d="M-262.7,402.1c1,0,3-0.2,4.3-1.6c0,0,0.1-0.1,0.1-0.1c0.3-0.3,0.5-0.7,0.7-1.1c0.1-0.1,0.1-0.4,0-0.5
				c0.2,0.4,0.4,1,0.7,1.3c0.2,0.2,0.1,0.4-0.1,0.6c-0.9,1.2-2.3,2.9-5.8,2.9c-3.5,0-5-1.7-5.8-2.9c-0.2-0.2-0.3-0.4-0.1-0.6
				c0.3-0.3,0.6-0.9,0.7-1.3c0,0.1,0,0.4,0,0.5c0.2,0.4,0.5,0.8,0.7,1.1c0,0,0.1,0.1,0.1,0.1C-265.7,401.9-263.8,402.1-262.7,402.1
				L-262.7,402.1z"/>
			<path d="M-262.7,403.8c-3.7,0-5.2-2-5.9-2.9c-0.2-0.2-0.4-0.5-0.1-0.8c0.3-0.3,0.5-0.8,0.6-1.2l0.1-0.1l0.2,0.1
				c0,0.1,0,0.3,0,0.4c0.2,0.4,0.4,0.8,0.7,1.1c0,0,0.1,0.1,0.1,0.1c1.4,1.4,3.4,1.6,4.2,1.6s2.8-0.2,4.2-1.6c0,0,0.1-0.1,0.1-0.1
				c0.3-0.3,0.5-0.7,0.7-1.1c0.1-0.1,0.1-0.3,0-0.4l0.2-0.1l0.1,0.1c0.2,0.4,0.4,0.9,0.6,1.2c0.3,0.3,0.1,0.6-0.1,0.8
				C-257.5,401.8-259,403.8-262.7,403.8z M-268,399.3c-0.1,0.3-0.3,0.7-0.6,0.9c-0.1,0.1-0.1,0.2,0.1,0.5c0.7,0.9,2.1,2.8,5.7,2.8
				s5-1.9,5.7-2.8c0.2-0.3,0.2-0.4,0.1-0.5c-0.2-0.2-0.4-0.6-0.6-0.9c0,0,0,0,0,0c-0.2,0.4-0.5,0.8-0.8,1.2c0,0-0.1,0.1-0.1,0.1
				c-1.4,1.5-3.5,1.6-4.4,1.6s-3-0.2-4.4-1.6c0,0-0.1-0.1-0.1-0.1C-267.5,400.2-267.8,399.8-268,399.3
				C-268,399.4-268,399.3-268,399.3z"/>
		</g>
		<g>
			<path d="M-268.3,400.7L-268.3,400.7L-268.3,400.7l-0.2-0.2l0,0l0,0.1c0,0,0,0,0.1,0l0.5-0.3c0,0,0,0,0-0.1
				c-0.1-0.1-0.2-0.1-0.3,0l0,0l0.3-0.2l0.4,0.5l-0.2,0.2l0,0c0.1-0.1,0.2-0.2,0.1-0.3c0,0-0.1,0-0.1,0L-268.3,400.7
				C-268.3,400.6-268.3,400.6-268.3,400.7L-268.3,400.7z"/>
		</g>
		<g>
			<path d="M-267.2,401.1c0.1-0.1,0.1-0.1,0-0.2l0,0l0.2,0.2l0,0C-267,401-267.1,401-267.2,401.1l-0.2,0.2c-0.1,0.1-0.3,0.1-0.4,0
				c-0.1-0.1-0.1-0.3,0-0.4l0.3-0.3c0,0,0-0.1,0-0.1l0,0l0,0l0.2,0.3l0,0l0,0c0,0,0,0-0.1,0l-0.3,0.3c-0.1,0.1-0.1,0.2,0,0.3
				c0.1,0.1,0.2,0.1,0.3,0L-267.2,401.1L-267.2,401.1z"/>
		</g>
		<g>
			<path d="M-266.5,401.4l0.2,0.2l0,0c-0.1,0-0.1,0-0.1,0l-0.6,0.4l0,0l0.2-0.7c0,0,0,0,0-0.1l0,0l0.3,0.2l0,0l0,0c0,0-0.1,0-0.1,0
				c0,0,0,0,0,0c0,0,0,0,0,0l-0.2,0.5l0.4-0.3c0,0,0,0,0,0c0,0,0,0,0,0C-266.5,401.5-266.5,401.4-266.5,401.4L-266.5,401.4
				L-266.5,401.4z"/>
		</g>
		<g>
			<path d="M-265.9,402.6C-265.9,402.6-265.9,402.6-265.9,402.6L-265.9,402.6c0.3,0.2,0.3,0.1,0.4,0l0,0l-0.1,0.3l-0.6-0.3l0,0
				l0.1,0C-266,402.6-266,402.5-265.9,402.6l0.1-0.6c0,0,0-0.1,0-0.1l-0.1,0l0,0l0.3,0.1l0,0l-0.1,0c0,0-0.1,0-0.1,0L-265.9,402.6
				L-265.9,402.6z"/>
		</g>
		<g>
			<path d="M-264.6,402.5c0-0.1,0-0.1-0.1-0.2l0,0l0.3,0.1l0,0C-264.5,402.4-264.5,402.4-264.6,402.5l0,0.3
				c-0.1,0.2-0.2,0.3-0.4,0.2c-0.2-0.1-0.3-0.2-0.2-0.3l0.1-0.4c0,0,0-0.1,0-0.1l-0.1,0l0,0l0.3,0.1l0,0l-0.1,0c0,0-0.1,0-0.1,0
				l-0.1,0.4c0,0.1,0,0.2,0.1,0.3c0.1,0,0.2,0,0.3-0.1L-264.6,402.5L-264.6,402.5z"/>
		</g>
		<g>
			<path d="M-262.9,402.6L-262.9,402.6L-262.9,402.6c-0.1,0-0.1,0.1-0.1,0.1l-0.1,0.6c0,0,0,0.1,0,0.1l0.1,0l0,0l-0.3,0l0,0l0.1,0
				c0,0,0.1,0,0.1-0.1l0.1-0.6l-0.3,0.7l0,0l-0.2-0.8l-0.1,0.5c0,0.1,0,0.1,0.1,0.2l0,0l-0.3,0l0,0c0.1,0,0.1,0,0.1-0.1l0-0.5
				c0,0,0-0.1-0.1-0.1l-0.1,0l0,0l0.3,0l0.1,0.6l0.2-0.6l0.1,0L-262.9,402.6L-262.9,402.6z"/>
		</g>
		<g>
			<path d="M-262.5,403.3c0.1,0,0.2-0.1,0.2-0.4c0-0.2-0.1-0.4-0.2-0.4c-0.1,0-0.2,0.1-0.2,0.4
				C-262.7,403.2-262.7,403.3-262.5,403.3L-262.5,403.3c-0.2,0.1-0.4-0.1-0.4-0.4c0-0.2,0.1-0.4,0.3-0.4c0.2,0,0.4,0.2,0.4,0.4
				C-262.2,403.2-262.3,403.3-262.5,403.3L-262.5,403.3L-262.5,403.3z"/>
		</g>
		<g>
			<path d="M-261,403.1L-261,403.1L-261,403.1l-0.3,0.1l0,0l0.1,0c0,0,0.1,0,0-0.1l-0.1-0.6c0,0,0-0.1-0.1,0c-0.1,0-0.1,0.1-0.1,0.3
				l0,0l0-0.3l0.6-0.1l0.1,0.3l0,0c-0.1-0.2-0.1-0.2-0.2-0.2c0,0,0,0,0,0.1L-261,403.1C-261,403.1-261,403.1-261,403.1L-261,403.1z"
				/>
		</g>
		<g>
			<path d="M-260.7,403.1L-260.7,403.1L-260.7,403.1c0.1-0.1,0.1-0.1,0.1-0.1l-0.2-0.5c0,0,0,0-0.1,0l-0.1,0l0,0l0.6-0.2l0.1,0.3
				l0,0c-0.1-0.1-0.1-0.2-0.3-0.1l-0.1,0c-0.1,0-0.1,0,0,0.1l0.1,0.2l0,0c0.1,0,0.1-0.1,0.1-0.2l0,0l0.1,0.3l0,0
				c0-0.1-0.1-0.1-0.2-0.1l0,0l0.1,0.3c0,0,0,0,0.1,0l0,0c0.2-0.1,0.2-0.1,0.2-0.3l0,0l0.1,0.3l-0.4,0.1L-260.7,403.1L-260.7,403.1z
				"/>
		</g>
		<g>
			<path d="M-258.3,401.8L-258.3,401.8L-258.3,401.8l-0.2,0.2l0,0l0.1,0c0,0,0,0,0-0.1l-0.4-0.5c0,0,0,0-0.1,0
				c-0.1,0.1-0.1,0.2,0,0.3l0,0l-0.2-0.3l0.5-0.4l0.2,0.2l0,0c-0.1-0.1-0.2-0.2-0.3-0.1c0,0,0,0.1,0,0.1L-258.3,401.8
				C-258.4,401.8-258.3,401.8-258.3,401.8L-258.3,401.8z"/>
		</g>
		<g>
			<path d="M-258,400.7c-0.1-0.1-0.1-0.1-0.2,0l0,0l0.2-0.2l0,0C-258,400.6-258,400.6-258,400.7l0.3,0.2c0.1,0.1,0.2,0.3,0,0.4
				c-0.1,0.1-0.3,0.2-0.4,0.1l-0.3-0.3c0,0-0.1,0-0.1,0l0,0l0,0l0.2-0.3l0,0l0,0c0,0,0,0,0,0.1l0.3,0.3c0.1,0.1,0.2,0.1,0.3,0
				c0.1-0.1,0.1-0.2,0-0.3L-258,400.7L-258,400.7z"/>
		</g>
		<g>
			<path d="M-266.2,402.4l0.1-0.7l0,0l-0.5,0.4c-0.1,0.1-0.1,0.1-0.2,0l0,0l0.2,0.1l0,0l0,0c0,0,0,0-0.1-0.1c0,0,0,0,0,0
				c0,0,0,0,0,0l0.1-0.1l0.1,0.1l0,0l-0.1-0.1l0.3-0.2l-0.1,0.3l-0.1-0.1l0,0l0.1,0.1l0,0.2c0,0,0,0,0,0c0,0,0,0,0,0c0,0,0,0-0.1,0
				l0,0l0.3,0.2L-266.2,402.4C-266.2,402.5-266.2,402.4-266.2,402.4L-266.2,402.4z"/>
		</g>
		<g>
			<path d="M-258.7,402.1c0,0-0.1,0-0.1,0l-0.6-0.5l0,0l0.1,0.7c0,0.1,0,0.1,0,0.2l0,0l0.2-0.1l0,0l0,0c0,0,0,0-0.1,0c0,0,0,0,0,0
				c0,0,0,0,0,0l0-0.1l0.1-0.1l0,0l-0.1,0.1l-0.1-0.3l0.3,0.2l-0.1,0.1l0,0l0.1-0.1l0.1,0.1c0,0,0,0,0,0c0,0,0,0,0,0
				c0,0,0,0-0.1,0.1l0,0L-258.7,402.1L-258.7,402.1L-258.7,402.1z"/>
		</g>
		<g>
			<path d="M-257,400.4C-257,400.4-257,400.4-257,400.4l-0.8-0.2l0,0l0.4,0.6c0.1,0.1,0.1,0.1,0,0.2l0,0l0.2-0.2l0,0l0,0
				c0,0,0,0-0.1,0c0,0,0,0,0,0c0,0,0,0,0,0l-0.1-0.1l0.1-0.1l0,0l-0.1,0.1l-0.2-0.3l0.3,0.1l-0.1,0.1l0,0l0.1-0.1l0.1,0c0,0,0,0,0,0
				c0,0,0,0,0,0c0,0,0,0,0,0.1l0,0L-257,400.4L-257,400.4L-257,400.4z"/>
		</g>
		<g>
			<path d="M-264.4,402.9C-264.3,402.9-264.3,402.9-264.4,402.9c0.1-0.1,0-0.1,0-0.1C-264.4,402.8-264.4,402.8-264.4,402.9
				C-264.4,402.9-264.4,402.9-264.4,402.9L-264.4,402.9z"/>
		</g>
		<g>
			<path d="M-261.8,403C-261.8,403-261.7,403-261.8,403c0.1-0.1,0-0.1,0-0.1C-261.8,402.9-261.9,402.9-261.8,403
				C-261.9,403-261.8,403-261.8,403L-261.8,403z"/>
		</g>
		<g>
			<path d="M-259.7,402.4C-259.7,402.4-259.7,402.4-259.7,402.4c0.1-0.1,0-0.1,0-0.1C-259.8,402.3-259.8,402.3-259.7,402.4
				C-259.8,402.4-259.8,402.4-259.7,402.4L-259.7,402.4z"/>
		</g>
		<g>
			<path class="st7" d="M-264.5,399.4c0.1,0.1,0.3,0.4,0.5,0.4c0.1,0,0.1,0.1,0.2,0.1s0.1,0.1,0-0.1c0-0.1-0.2-0.4-0.4-0.5
				C-264.4,399.2-264.5,399.3-264.5,399.4L-264.5,399.4z"/>
			<path d="M-263.7,400C-263.8,400-263.8,399.9-263.7,400c-0.1-0.1-0.2-0.2-0.2-0.2c-0.2,0-0.5-0.3-0.5-0.4v0c0,0,0-0.1,0-0.1
				c0,0,0.2-0.1,0.3,0c0.2,0.1,0.4,0.4,0.4,0.6C-263.7,399.9-263.7,399.9-263.7,400C-263.7,400-263.7,400-263.7,400z M-264.4,399.3
				c0,0.1,0.3,0.4,0.5,0.4c0.1,0,0.1,0.1,0.2,0.1c0,0,0,0,0,0c0,0,0,0,0,0c-0.1-0.2-0.2-0.4-0.4-0.5
				C-264.3,399.3-264.4,399.3-264.4,399.3C-264.4,399.3-264.4,399.3-264.4,399.3z"/>
		</g>
		<g>
			<path d="M-264,399.7c-0.1-0.2-0.3-0.4-0.4-0.4c-0.1,0-0.1,0,0,0.1C-264.2,399.5-264.1,399.6-264,399.7L-264,399.7z"/>
			<path d="M-263.9,399.7L-263.9,399.7c-0.2,0-0.3-0.1-0.5-0.3c0,0-0.1-0.1-0.1-0.1c0,0,0.1,0,0.1,0
				C-264.3,399.3-264.1,399.4-263.9,399.7L-263.9,399.7z"/>
		</g>
		<g>
			<path class="st7" d="M-265.2,399.2C-265.2,399.3-265.2,399.3-265.2,399.2C-265.2,399.2-265.2,399.2-265.2,399.2L-265.2,399.2z"/>
		</g>
		<g>
			<path class="st7" d="M-265.3,399.1C-265.3,399-265.4,399-265.3,399.1C-265.4,399.2-265.4,399.2-265.3,399.1L-265.3,399.1z"/>
		</g>
		<g>
			<path class="st7" d="M-265.5,399.1C-265.5,399-265.6,399-265.5,399.1C-265.6,399.1-265.5,399.1-265.5,399.1L-265.5,399.1z"/>
		</g>
		<g>
			<path class="st7" d="M-265.4,399.4C-265.4,399.4-265.4,399.5-265.4,399.4C-265.3,399.3-265.4,399.3-265.4,399.4L-265.4,399.4z"/>
		</g>
		<g>
			<path class="st7" d="M-265.2,399.4C-265.3,399.5-265.2,399.5-265.2,399.4C-265.2,399.4-265.2,399.4-265.2,399.4L-265.2,399.4z"/>
		</g>
		<g>
			<path class="st7" d="M-265,399.6C-265.1,399.6-265.1,399.6-265,399.6C-265,399.7-265,399.7-265,399.6L-265,399.6z"/>
		</g>
		<g>
			<path class="st7" d="M-264.9,399.6C-264.9,399.7-264.9,399.7-264.9,399.6C-264.9,399.5-264.9,399.5-264.9,399.6L-264.9,399.6z"/>
		</g>
		<g>
			<path class="st7" d="M-264.7,399.8C-264.8,399.8-264.8,399.9-264.7,399.8C-264.7,399.8-264.7,399.7-264.7,399.8L-264.7,399.8z"/>
		</g>
		<g>
			<path class="st7" d="M-267.3,395.1C-267.4,395.1-267.3,395.2-267.3,395.1C-267.2,395.1-267.3,395-267.3,395.1L-267.3,395.1z"/>
		</g>
		<g>
			<path class="st7" d="M-267.2,395.2C-267.3,395.3-267.2,395.3-267.2,395.2C-267.1,395.2-267.2,395.2-267.2,395.2L-267.2,395.2z"/>
		</g>
		<g>
			<path class="st7" d="M-267.4,395.4C-267.4,395.5-267.4,395.5-267.4,395.4C-267.3,395.4-267.3,395.4-267.4,395.4L-267.4,395.4z"/>
		</g>
		<g>
			<path class="st7" d="M-267.2,395.4C-267.2,395.5-267.2,395.5-267.2,395.4C-267.1,395.4-267.1,395.4-267.2,395.4L-267.2,395.4z"/>
		</g>
		<g>
			<path class="st7" d="M-267.3,395.6C-267.3,395.6-267.3,395.7-267.3,395.6C-267.2,395.6-267.2,395.5-267.3,395.6L-267.3,395.6z"/>
		</g>
		<g>
			<path class="st7" d="M-267.3,395.8C-267.3,395.9-267.3,396-267.3,395.8C-267.2,395.9-267.2,395.8-267.3,395.8L-267.3,395.8z"/>
		</g>
		<g>
			<path class="st7" d="M-267.1,395.9C-267.2,396-267.1,396-267.1,395.9C-267,395.9-267.1,395.8-267.1,395.9L-267.1,395.9z"/>
		</g>
		<g>
			<path class="st7" d="M-267.1,396.2C-267.2,396.2-267.1,396.3-267.1,396.2C-267,396.2-267,396.1-267.1,396.2L-267.1,396.2z"/>
		</g>
		<g>
			<path class="st7" d="M-266.6,395.9c-0.1,0.1,0,0.4,0.1,0.5c0.1,0.1,0.1,0.2,0.1,0.2s0,0.1,0,0.2c0,0,0,0.1,0.1,0
				c0.1-0.3,0.1-0.6-0.1-0.8C-266.5,395.9-266.6,395.9-266.6,395.9L-266.6,395.9z"/>
			<path d="M-266.4,396.9C-266.4,396.9-266.4,396.9-266.4,396.9C-266.4,396.9-266.4,396.9-266.4,396.9c-0.1-0.1-0.1-0.1-0.1-0.2
				c0,0,0-0.1,0-0.1c0,0,0-0.1-0.1-0.2c-0.1-0.2-0.2-0.4-0.1-0.6l0,0c0,0,0.1,0,0.1,0c0.1,0,0.1,0,0.1,0.1c0.1,0.2,0.2,0.5,0.1,0.9
				C-266.3,396.9-266.3,396.9-266.4,396.9z M-266.5,395.9C-266.6,395.9-266.6,396-266.5,395.9L-266.5,395.9c-0.1,0.1-0.1,0.4,0,0.5
				c0.1,0.1,0.1,0.2,0.1,0.3c0,0,0,0.1,0,0.1c0,0,0,0,0,0.1c0,0,0,0,0,0c0.1-0.3,0.1-0.6-0.1-0.8
				C-266.5,396-266.5,395.9-266.5,395.9C-266.5,395.9-266.5,395.9-266.5,395.9z"/>
		</g>
		<g>
			<path d="M-266.4,396.5c0-0.3,0-0.5-0.1-0.5C-266.7,396-266.5,396.3-266.4,396.5L-266.4,396.5z"/>
			<path d="M-266.4,396.6L-266.4,396.6c-0.1-0.2-0.3-0.5-0.2-0.6l0,0l0,0C-266.4,396-266.4,396.3-266.4,396.6L-266.4,396.6z"/>
		</g>
		<g>
			<path class="st7" d="M-267.2,391.6C-267.3,391.6-267.2,391.7-267.2,391.6C-267.1,391.6-267.1,391.5-267.2,391.6L-267.2,391.6z"/>
		</g>
		<g>
			<path class="st7" d="M-267.3,391.9C-267.4,391.9-267.4,392-267.3,391.9C-267.3,391.9-267.3,391.9-267.3,391.9L-267.3,391.9z"/>
		</g>
		<g>
			<path class="st7" d="M-267.1,391.7C-267.2,391.8-267.2,391.8-267.1,391.7C-267,391.8-267.1,391.7-267.1,391.7L-267.1,391.7z"/>
		</g>
		<g>
			<path class="st7" d="M-267.3,392C-267.4,392.1-267.4,392.1-267.3,392C-267.3,392.1-267.3,392-267.3,392L-267.3,392z"/>
		</g>
		<g>
			<path class="st7" d="M-267.2,391.9C-267.2,392-267.2,392-267.2,391.9C-267.1,392-267.1,391.9-267.2,391.9L-267.2,391.9z"/>
		</g>
		<g>
			<path class="st7" d="M-267.4,392.3C-267.5,392.3-267.4,392.4-267.4,392.3C-267.3,392.3-267.4,392.3-267.4,392.3L-267.4,392.3z"/>
		</g>
		<g>
			<path class="st7" d="M-267.3,392.4C-267.3,392.4-267.3,392.5-267.3,392.4C-267.2,392.4-267.2,392.4-267.3,392.4L-267.3,392.4z"/>
		</g>
		<g>
			<path class="st7" d="M-266.8,392.6c-0.1,0.1-0.1,0.4-0.1,0.6s0.1,0.2,0,0.3c0,0.1-0.1,0.2,0.1,0c0.1-0.1,0.3-0.5,0.2-0.8
				C-266.7,392.6-266.7,392.6-266.8,392.6L-266.8,392.6z"/>
			<path d="M-266.9,393.6C-266.9,393.6-266.9,393.6-266.9,393.6c-0.1,0,0-0.1,0-0.2c0,0,0-0.1,0-0.3c0-0.1,0-0.5,0.1-0.6l0,0
				c0,0,0.1,0,0.1,0c0,0,0.1,0.1,0.1,0.1c0.2,0.4-0.1,0.8-0.2,0.8C-266.8,393.6-266.8,393.6-266.9,393.6z M-266.7,392.6
				C-266.7,392.6-266.8,392.6-266.7,392.6L-266.7,392.6c-0.1,0.1-0.1,0.4-0.1,0.5c0,0.1,0.1,0.2,0,0.3c0,0,0,0,0,0c0,0,0,0,0,0
				c0.1-0.1,0.3-0.4,0.2-0.8C-266.7,392.7-266.7,392.6-266.7,392.6C-266.7,392.6-266.7,392.6-266.7,392.6z"/>
		</g>
		<g>
			<path d="M-266.8,393.2c0-0.2,0-0.4,0-0.5c0-0.1,0-0.1,0.1,0C-266.7,392.8-266.7,393.1-266.8,393.2L-266.8,393.2z"/>
			<path d="M-266.8,393.3L-266.8,393.3c0-0.2,0-0.5,0-0.5c0,0,0-0.1,0.1-0.1c0,0,0,0,0,0c0,0,0.1,0,0.1,0.1
				C-266.6,392.8-266.6,393.1-266.8,393.3L-266.8,393.3z"/>
		</g>
		<g>
			<path class="st7" d="M-264.9,389.8C-264.8,389.9-264.8,389.9-264.9,389.8C-264.9,389.7-264.9,389.8-264.9,389.8L-264.9,389.8z"/>
		</g>
		<g>
			<path class="st7" d="M-264.8,389.7C-264.7,389.8-264.6,389.7-264.8,389.7C-264.7,389.7-264.8,389.7-264.8,389.7L-264.8,389.7z"/>
		</g>
		<g>
			<path class="st7" d="M-264.5,389.8C-264.5,389.9-264.4,389.8-264.5,389.8C-264.5,389.7-264.5,389.7-264.5,389.8L-264.5,389.8z"/>
		</g>
		<g>
			<path class="st7" d="M-264.3,389.8C-264.3,389.8-264.3,389.8-264.3,389.8C-264.3,389.7-264.3,389.7-264.3,389.8L-264.3,389.8z"/>
		</g>
		<g>
			<path class="st7" d="M-264.4,390C-264.4,390-264.3,390-264.4,390C-264.4,389.9-264.4,389.9-264.4,390L-264.4,390z"/>
		</g>
		<g>
			<path class="st7" d="M-264.2,390C-264.2,390-264.1,390.1-264.2,390C-264.2,389.9-264.2,389.9-264.2,390L-264.2,390z"/>
		</g>
		<g>
			<path class="st7" d="M-264,390C-264,390-263.9,390-264,390C-264,389.9-264,389.9-264,390L-264,390z"/>
		</g>
		<g>
			<path class="st7" d="M-265.9,390.2c0.1,0,0.3,0,0.4,0c0.1,0,0.4,0,0.5,0.1c0.1,0.1,0.2,0.1,0,0.2c-0.2,0.1-0.4,0-0.6,0
				C-265.8,390.3-265.9,390.3-265.9,390.2C-266,390.2-266,390.2-265.9,390.2L-265.9,390.2z"/>
			<path d="M-265.3,390.5c-0.1,0-0.3,0-0.4-0.1c-0.2-0.1-0.2-0.1-0.3-0.2c0,0-0.1-0.1,0-0.1c0,0,0.1,0,0.1,0l0,0c0.1,0,0.2,0,0.3,0
				c0,0,0.1,0,0.1,0c0.1,0,0.4,0,0.5,0.1c0.1,0,0.1,0.1,0.1,0.1c0,0,0,0.1-0.1,0.1C-265.2,390.5-265.3,390.5-265.3,390.5z
				 M-265.9,390.2c0,0,0.1,0.1,0.2,0.2c0.1,0.1,0.4,0.1,0.6,0c0.1,0,0.1-0.1,0.1-0.1c0,0-0.1,0-0.1-0.1c-0.1,0-0.3-0.1-0.4-0.1
				c0,0,0,0-0.1,0C-265.7,390.2-265.8,390.2-265.9,390.2z"/>
		</g>
		<g>
			<path d="M-265.6,390.2c0.2,0.1,0.5,0.3,0.5,0.1C-265.2,390.2-265.4,390.2-265.6,390.2L-265.6,390.2z"/>
			<path d="M-265.2,390.4c-0.1,0-0.2-0.1-0.4-0.2l-0.1,0l0.1,0c0.2,0,0.4,0,0.6,0.1l0,0l0,0C-265,390.4-265.1,390.4-265.2,390.4
				C-265.1,390.4-265.2,390.4-265.2,390.4z"/>
		</g>
		<g>
			<path class="st7" d="M-260.7,389.9C-260.7,389.9-260.7,389.9-260.7,389.9C-260.7,389.8-260.8,389.8-260.7,389.9L-260.7,389.9z"/>
		</g>
		<g>
			<path class="st7" d="M-260.6,389.8C-260.6,389.8-260.5,389.9-260.6,389.8C-260.6,389.7-260.6,389.8-260.6,389.8L-260.6,389.8z"/>
		</g>
		<g>
			<path class="st7" d="M-260.4,389.9C-260.4,389.9-260.3,389.9-260.4,389.9C-260.3,389.8-260.4,389.8-260.4,389.9L-260.4,389.9z"/>
		</g>
		<g>
			<path class="st7" d="M-260.2,389.9C-260.2,389.9-260.1,389.9-260.2,389.9C-260.2,389.8-260.2,389.8-260.2,389.9L-260.2,389.9z"/>
		</g>
		<g>
			<path class="st7" d="M-260.3,390C-260.3,390.1-260.2,390.1-260.3,390C-260.3,390-260.3,390-260.3,390L-260.3,390z"/>
		</g>
		<g>
			<path class="st7" d="M-260.1,390.1C-260.1,390.1-260,390.1-260.1,390.1C-260,390-260.1,390-260.1,390.1L-260.1,390.1z"/>
		</g>
		<g>
			<path class="st7" d="M-259.9,390C-259.9,390.1-259.8,390.1-259.9,390C-259.9,390-259.9,390-259.9,390L-259.9,390z"/>
		</g>
		<g>
			<path class="st7" d="M-261.8,390.2c0.1,0,0.1,0,0.3,0c0.1,0,0.4,0,0.5,0.1s0.2,0.1,0,0.2c-0.1,0.1-0.3,0.1-0.6,0
				S-261.8,390.3-261.8,390.2C-261.9,390.2-261.9,390.2-261.8,390.2L-261.8,390.2z"/>
			<path d="M-261.2,390.6c-0.1,0-0.2,0-0.3-0.1c-0.2-0.1-0.3-0.2-0.3-0.2l0,0c0,0,0-0.1,0-0.1c0,0,0.1,0,0.1,0l0,0
				c0.1,0,0.1,0,0.2,0l0.1,0c0.1,0,0.4,0,0.5,0.1c0.1,0,0.1,0.1,0.1,0.1c0,0,0,0.1-0.1,0.1C-261,390.6-261.1,390.6-261.2,390.6z
				 M-261.8,390.3c0,0,0.1,0.1,0.3,0.2c0.2,0.1,0.4,0.1,0.5,0c0.1,0,0.1,0,0.1,0c0,0,0,0-0.1-0.1c-0.1,0-0.3-0.1-0.5-0.1l-0.1,0
				C-261.7,390.3-261.7,390.3-261.8,390.3z"/>
		</g>
		<g>
			<path d="M-261.5,390.3c0.1,0,0.2,0.1,0.2,0.1c0.1,0,0.3,0.1,0.3,0c0-0.1,0-0.1-0.1-0.1C-261.2,390.3-261.4,390.3-261.5,390.3
				L-261.5,390.3z"/>
			<path d="M-261.1,390.5c-0.1,0-0.1,0-0.2,0c0,0-0.1,0-0.1-0.1c0,0-0.1-0.1-0.1-0.1l-0.1,0l0.1,0c0.2,0,0.3,0,0.4,0
				c0.1,0,0.1,0,0.2,0.1c0,0,0,0.1,0,0.1C-261,390.5-261,390.5-261.1,390.5z"/>
		</g>
		<g>
			<path class="st7" d="M-258.2,392.1C-258.3,392.2-258.2,392.2-258.2,392.1C-258.2,392.1-258.2,392.1-258.2,392.1L-258.2,392.1z"/>
		</g>
		<g>
			<path class="st7" d="M-258.1,392.2C-258.2,392.2-258.1,392.3-258.1,392.2C-258,392.3-258.1,392.2-258.1,392.2L-258.1,392.2z"/>
		</g>
		<g>
			<path class="st7" d="M-258.1,392.5C-258.2,392.5-258.2,392.6-258.1,392.5C-258.1,392.5-258.1,392.5-258.1,392.5L-258.1,392.5z"/>
		</g>
		<g>
			<path class="st7" d="M-258.1,392.6C-258.1,392.7-258.1,392.7-258.1,392.6C-258,392.7-258,392.6-258.1,392.6L-258.1,392.6z"/>
		</g>
		<g>
			<path class="st7" d="M-258.3,392.6C-258.3,392.6-258.3,392.7-258.3,392.6C-258.2,392.6-258.2,392.6-258.3,392.6L-258.3,392.6z"/>
		</g>
		<g>
			<path class="st7" d="M-258.3,392.8C-258.3,392.8-258.3,392.9-258.3,392.8C-258.2,392.8-258.2,392.8-258.3,392.8L-258.3,392.8z"/>
		</g>
		<g>
			<path class="st7" d="M-258.2,393C-258.2,393-258.2,393.1-258.2,393C-258.1,393-258.1,393-258.2,393L-258.2,393z"/>
		</g>
		<g>
			<path class="st7" d="M-258.9,391.2c-0.1,0.2-0.2,0.6,0,0.8c0.2,0.2,0.2,0.2,0.2,0c0-0.1,0-0.4-0.1-0.5
				C-258.8,391.4-258.8,391.3-258.9,391.2C-258.8,391.2-258.8,391.1-258.9,391.2L-258.9,391.2z"/>
			<path d="M-258.7,392.1c0,0-0.1,0-0.2-0.1c-0.2-0.2-0.1-0.7,0-0.8l0,0c0,0,0.1,0,0.1,0c0.1,0,0,0.1,0,0.2c0,0.1,0,0.1,0,0.2
				c0.1,0.1,0.1,0.3,0.1,0.5C-258.7,392-258.7,392.1-258.7,392.1C-258.7,392.1-258.7,392.1-258.7,392.1z M-258.8,391.2
				c-0.1,0.2-0.2,0.6,0,0.7c0.1,0.1,0.1,0.1,0.1,0.1c0,0,0-0.1,0-0.1c0-0.1,0-0.4-0.1-0.5C-258.8,391.4-258.8,391.3-258.8,391.2
				C-258.8,391.2-258.8,391.2-258.8,391.2z"/>
		</g>
		<g>
			<path d="M-258.8,391.5c0,0.1-0.1,0.3,0,0.5c0,0.1,0.1,0.1,0.1-0.1C-258.7,391.8-258.7,391.6-258.8,391.5L-258.8,391.5z"/>
			<path d="M-258.8,392.1C-258.8,392.1-258.8,392.1-258.8,392.1c-0.2-0.2-0.1-0.3-0.1-0.5c0-0.1,0-0.1,0-0.1l0.1,0
				c0,0.1,0.1,0.3,0.1,0.5C-258.7,392-258.7,392.1-258.8,392.1C-258.7,392.1-258.7,392.1-258.8,392.1z"/>
		</g>
		<g>
			<path class="st7" d="M-258.5,394.6c-0.2,0.1-0.3,0.4-0.4,0.5c0,0.1-0.1,0.2,0,0.4c0.1,0.1,0.1,0.1,0.1,0c0.1-0.1,0.2-0.3,0.1-0.5
				C-258.6,394.8-258.6,394.7-258.5,394.6C-258.5,394.6-258.5,394.6-258.5,394.6L-258.5,394.6z"/>
			<path d="M-258.8,395.6C-258.8,395.6-258.9,395.5-258.8,395.6C-258.9,395.5-258.9,395.5-258.8,395.6c-0.2-0.2-0.2-0.4-0.1-0.5l0,0
				c0.1-0.1,0.2-0.4,0.4-0.5l0,0c0.1,0,0.1,0,0.1,0c0,0,0,0.1,0,0.1c0,0-0.1,0.1,0,0.2C-258.5,395.1-258.6,395.4-258.8,395.6
				C-258.7,395.5-258.8,395.6-258.8,395.6C-258.8,395.6-258.8,395.6-258.8,395.6z M-258.5,394.7c-0.1,0.1-0.3,0.3-0.3,0.4l0,0
				c0,0.1-0.1,0.2,0,0.3c0,0,0,0,0,0c0,0,0,0,0,0c0,0,0,0,0-0.1c0.1-0.1,0.2-0.3,0.1-0.5C-258.6,394.8-258.6,394.7-258.5,394.7
				C-258.5,394.7-258.5,394.7-258.5,394.7z"/>
		</g>
		<g>
			<path d="M-258.6,395c-0.1,0.2-0.3,0.3-0.2,0.5C-258.7,395.4-258.6,395.3-258.6,395L-258.6,395z"/>
			<path d="M-258.8,395.6L-258.8,395.6c-0.1-0.3,0-0.4,0.1-0.5c0,0,0.1-0.1,0.1-0.1l0.1-0.1l0,0.1
				C-258.6,395.3-258.7,395.5-258.8,395.6L-258.8,395.6z M-258.7,395.1C-258.7,395.1-258.7,395.1-258.7,395.1
				c-0.1,0.1-0.2,0.2-0.1,0.3C-258.7,395.4-258.7,395.3-258.7,395.1z"/>
		</g>
		<g>
			<path class="st7" d="M-258.3,395.6C-258.3,395.5-258.3,395.6-258.3,395.6C-258.2,395.6-258.2,395.6-258.3,395.6L-258.3,395.6z"/>
		</g>
		<g>
			<path class="st7" d="M-258.3,395.8C-258.4,395.8-258.4,395.8-258.3,395.8C-258.3,395.8-258.3,395.8-258.3,395.8L-258.3,395.8z"/>
		</g>
		<g>
			<path class="st7" d="M-258.3,395.9C-258.3,395.9-258.3,396-258.3,395.9C-258.2,395.9-258.2,395.9-258.3,395.9L-258.3,395.9z"/>
		</g>
		<g>
			<path class="st7" d="M-258.4,396.1C-258.5,396.1-258.4,396.2-258.4,396.1C-258.3,396.2-258.3,396.1-258.4,396.1L-258.4,396.1z"/>
		</g>
		<g>
			<path class="st7" d="M-258.6,396.2C-258.6,396.2-258.7,396.3-258.6,396.2C-258.5,396.3-258.5,396.2-258.6,396.2L-258.6,396.2z"/>
		</g>
		<g>
			<path class="st7" d="M-258.6,396.4C-258.7,396.4-258.7,396.5-258.6,396.4C-258.6,396.4-258.6,396.4-258.6,396.4L-258.6,396.4z"/>
		</g>
		<g>
			<path class="st7" d="M-258.4,396.3C-258.3,396.3-258.3,396.3-258.4,396.3C-258.5,396.3-258.5,396.4-258.4,396.3L-258.4,396.3z"/>
		</g>
		<g>
			<path class="st7" d="M-258.7,396.6C-258.7,396.7-258.6,396.8-258.7,396.6C-258.6,396.5-258.7,396.5-258.7,396.6L-258.7,396.6z"/>
		</g>
		<g>
			<path class="st7" d="M-260.7,399.4C-260.6,399.5-260.6,399.4-260.7,399.4C-260.6,399.3-260.7,399.3-260.7,399.4L-260.7,399.4z"/>
		</g>
		<g>
			<path class="st7" d="M-260.9,399.4C-260.9,399.5-260.8,399.5-260.9,399.4C-260.9,399.3-261,399.4-260.9,399.4L-260.9,399.4z"/>
		</g>
		<g>
			<path class="st7" d="M-261,399.3C-261,399.3-260.9,399.3-261,399.3C-261,399.2-261.1,399.2-261,399.3L-261,399.3z"/>
		</g>
		<g>
			<path class="st7" d="M-261.2,399.3C-261.2,399.4-261.1,399.4-261.2,399.3C-261.2,399.2-261.3,399.2-261.2,399.3L-261.2,399.3z"/>
		</g>
		<g>
			<path class="st7" d="M-261.4,399.4C-261.4,399.4-261.3,399.4-261.4,399.4C-261.4,399.3-261.5,399.3-261.4,399.4L-261.4,399.4z"/>
		</g>
		<g>
			<path class="st7" d="M-261.1,399.5C-261,399.5-261,399.6-261.1,399.5C-261.1,399.4-261.1,399.4-261.1,399.5L-261.1,399.5z"/>
		</g>
		<g>
			<path class="st7" d="M-260.6,399.3C-260.5,399.3-260.4,399.3-260.6,399.3C-260.6,399.2-260.6,399.2-260.6,399.3L-260.6,399.3z"/>
		</g>
		<g>
			<path class="st7" d="M-260.3,399.2C-260.3,399.3-260.2,399.3-260.3,399.2C-260.3,399.1-260.4,399.2-260.3,399.2L-260.3,399.2z"/>
		</g>
		<g>
			<path class="st7" d="M-259.6,398.5c-0.2-0.1-0.7,0-0.8,0.1c-0.1,0.1-0.1,0.2,0,0.2c0.1,0,0.4,0,0.5-0.1
				C-259.8,398.6-259.7,398.6-259.6,398.5C-259.6,398.6-259.5,398.6-259.6,398.5L-259.6,398.5z"/>
			<path d="M-260.3,398.8C-260.3,398.8-260.4,398.8-260.3,398.8c-0.1,0-0.2-0.1-0.2-0.1c0-0.1,0-0.1,0.1-0.2
				c0.1-0.1,0.6-0.1,0.8-0.1l0,0c0,0,0.1,0,0.1,0.1c0,0-0.1,0-0.1,0c-0.1,0-0.1,0-0.3,0.1C-260,398.8-260.2,398.8-260.3,398.8z
				 M-259.9,398.5c-0.2,0-0.4,0-0.5,0.1c-0.1,0.1-0.1,0.1-0.1,0.1c0,0,0,0,0.1,0c0.1,0,0.3,0,0.5-0.1c0.1-0.1,0.2-0.1,0.3-0.1
				c0,0,0,0,0,0c0,0,0,0,0,0C-259.7,398.5-259.8,398.5-259.9,398.5z"/>
		</g>
		<g>
			<path d="M-260.5,398.7c0.1-0.1,0.3-0.2,0.6-0.1C-260.2,398.8-260.4,398.8-260.5,398.7L-260.5,398.7z"/>
			<path d="M-260.3,398.8c-0.1,0-0.1,0-0.2-0.1l0,0l0,0c0.1-0.1,0.3-0.2,0.6-0.1l0.1,0l-0.1,0C-260.1,398.8-260.2,398.8-260.3,398.8
				z"/>
		</g>
		<g>
			<path class="st7" d="M-261.5,392.4l-2.5-0.1c0.5,0.4,1,0.9,1.2,1.1c-0.2-0.2-0.4-0.4-0.5-0.5c0.3,0.2,0.5,0.4,0.6,0.5
				c-0.2-0.2-0.4-0.5-0.5-0.5c0.2,0.2,0.3,0.3,0.4,0.4c-0.1-0.2-0.2-0.3-0.3-0.4c0.2,0.2,0.4,0.3,0.6,0.5c-0.2-0.2-0.3-0.4-0.4-0.5
				c0.2,0.2,0.4,0.3,0.6,0.5c-0.2-0.2-0.3-0.4-0.4-0.5c0.1,0.1,0.3,0.1,0.4,0.2c-0.1-0.1-0.1-0.2-0.2-0.2c0.1,0.1,0.3,0.2,0.4,0.3
				c-0.1-0.1-0.1-0.2-0.2-0.3c0.1,0,0.3,0.1,0.4,0.2c-0.1-0.1-0.1-0.2-0.1-0.2c0.1,0,0.2,0,0.2,0.1c0-0.2,0-0.2,0.2,0
				c0-0.1-0.1-0.2,0-0.1c0.1,0.1,0.3,0.1,0.2,0C-261.4,392.5-261.4,392.5-261.5,392.4L-261.5,392.4z"/>
			<path d="M-262.8,393.4c-0.2-0.2-0.8-0.7-1.2-1.1l-0.1-0.1l2.6,0.1l0,0c0,0.1,0.1,0.1,0.1,0.1c0,0,0,0,0,0.1c0,0.1,0,0.1,0,0.1
				c0,0-0.2,0-0.2,0c0,0,0,0,0,0.1l0,0.1l-0.1-0.1c-0.1-0.1-0.1-0.1-0.1-0.1h0c0,0,0,0,0,0.1l-0.1,0c0,0-0.1-0.1-0.2-0.1
				c0,0,0,0,0,0.1c0,0,0,0.1,0.1,0.1l0,0c-0.1-0.1-0.2-0.1-0.3-0.2c0,0,0,0,0,0.1c0,0.1,0.1,0.1,0.1,0.2l0,0l-0.1-0.1
				c-0.1,0-0.1-0.1-0.2-0.1c0,0,0,0.1,0.1,0.1l0,0c-0.1,0-0.1-0.1-0.2-0.1c0,0,0,0,0,0c0,0,0.1,0.1,0.1,0.1c0.1,0.1,0.1,0.1,0.2,0.2
				l0,0c-0.1-0.1-0.3-0.2-0.4-0.3c0.1,0.1,0.1,0.2,0.2,0.3l0,0c-0.1-0.1-0.1-0.1-0.2-0.2c0,0-0.1-0.1-0.1-0.1c0,0,0.1,0.1,0.1,0.1
				l0,0c0,0,0,0-0.1-0.1c0.1,0.1,0.1,0.1,0.2,0.2l0,0c0,0-0.1,0-0.1-0.1c0,0-0.1-0.1-0.2-0.1C-262.9,393.2-262.8,393.2-262.8,393.4
				L-262.8,393.4z M-263.2,392.8c0.1,0.1,0.2,0.2,0.3,0.2C-263,392.9-263.1,392.8-263.2,392.8C-263.2,392.8-263.2,392.8-263.2,392.8
				l0.1-0.1c0,0,0,0,0,0c0.1,0.1,0.1,0.1,0.2,0.2c0,0,0,0,0,0c0-0.1-0.1-0.1-0.1-0.1l0,0c0.1,0.1,0.2,0.2,0.3,0.2c0,0,0,0,0-0.1
				c0-0.1-0.1-0.1-0.1-0.1l0,0c0.1,0.1,0.2,0.2,0.3,0.2c-0.1-0.1-0.1-0.1-0.2-0.2l0,0c0.1,0,0.1,0.1,0.2,0.1c0,0,0.1,0,0.1,0
				c0,0,0,0,0,0c0,0-0.1-0.1-0.1-0.1l0,0c0.1,0.1,0.2,0.1,0.3,0.2c0,0,0,0,0,0c0,0-0.1-0.1-0.1-0.1l0,0c0,0,0,0,0.1,0
				c0.1,0,0.1,0,0.2,0.1c0,0,0-0.1-0.1-0.1l0,0l0,0c0.1,0,0.1,0,0.2,0c0-0.1,0-0.1,0-0.1c0,0,0.1,0,0.1,0c0,0,0,0,0,0
				c0,0,0.1,0,0.1,0c0.1,0,0.1,0,0.2,0c0,0,0,0,0,0c0,0,0-0.1,0-0.1c0,0,0-0.1-0.1-0.1l-2.4-0.1
				C-263.7,392.5-263.5,392.7-263.2,392.8L-263.2,392.8z"/>
		</g>
	</g>
</g>
</svg>
