<?xml version="1.0" encoding="utf-8"?>
<!-- Generator: Adobe Illustrator 19.0.0, SVG Export Plug-In . SVG Version: 6.00 Build 0)  -->
<svg version="1.1" id="Layer_1" xmlns="http://www.w3.org/2000/svg" xmlns:xlink="http://www.w3.org/1999/xlink" x="0px" y="0px"
	 viewBox="-269 374 72 46" style="enable-background:new -269 374 72 46;" xml:space="preserve">
<style type="text/css">
	.st0{clip-path:url(#SVGID_2_);}
	.st1{clip-path:url(#SVGID_6_);}
	.st2{clip-path:url(#SVGID_7_);}
	.st3{clip-path:url(#SVGID_8_);fill:#E30A13;}
	.st4{clip-path:url(#SVGID_8_);fill:#2D287A;}
	.st5{clip-path:url(#SVGID_8_);}
	.st6{clip-path:url(#SVGID_22_);}
	.st7{clip-path:url(#SVGID_23_);}
	.st8{clip-path:url(#SVGID_24_);}
	.st9{clip-path:url(#SVGID_25_);}
	.st10{clip-path:url(#SVGID_26_);}
	.st11{clip-path:url(#SVGID_27_);}
	.st12{clip-path:url(#SVGID_28_);}
	.st13{clip-path:url(#SVGID_29_);}
	.st14{clip-path:url(#SVGID_30_);}
	.st15{clip-path:url(#SVGID_31_);}
	.st16{clip-path:url(#SVGID_32_);}
	.st17{clip-path:url(#SVGID_33_);}
	.st18{clip-path:url(#SVGID_34_);fill:#FFFFFF;}
</style>
<g>
	<defs>
		<path id="SVGID_1_" d="M-204,420H-262c-3.8,0-7-3.1-7-7V381c0-3.8,3.1-7,7-7h58.1c3.8,0,7,3.1,7,7V413
			C-197,416.9-200.1,420-204,420z"/>
	</defs>
	<clipPath id="SVGID_2_">
		<use xlink:href="#SVGID_1_"  style="overflow:visible;"/>
	</clipPath>
	<g class="st0">
		<g>
			<g>
				<defs>
					<rect id="SVGID_3_" x="-269.4" y="372.2" width="73" height="48.7"/>
				</defs>
				<defs>
					<rect id="SVGID_4_" x="-269.4" y="372.2" width="73" height="48.7"/>
				</defs>
				<defs>
					<rect id="SVGID_5_" x="-269.4" y="372.2" width="73" height="48.7"/>
				</defs>
				<clipPath id="SVGID_6_">
					<use xlink:href="#SVGID_3_"  style="overflow:visible;"/>
				</clipPath>
				<clipPath id="SVGID_7_" class="st1">
					<use xlink:href="#SVGID_4_"  style="overflow:visible;"/>
				</clipPath>
				<clipPath id="SVGID_8_" class="st2">
					<use xlink:href="#SVGID_5_"  style="overflow:visible;"/>
				</clipPath>
				<rect x="-269.4" y="372.2" class="st3" width="73" height="48.7"/>
				<rect x="-269.4" y="372.2" class="st4" width="36.5" height="24.3"/>
				<g class="st5">
					<g>
						<defs>
							<rect id="SVGID_9_" x="-269.4" y="372.2" width="73" height="48.7"/>
						</defs>
						<defs>
							<rect id="SVGID_10_" x="-269.4" y="372.2" width="73" height="48.7"/>
						</defs>
						<defs>
							<rect id="SVGID_11_" x="-269.4" y="372.2" width="73" height="48.7"/>
						</defs>
						<defs>
							<rect id="SVGID_12_" x="-269.4" y="372.2" width="73" height="48.7"/>
						</defs>
						<defs>
							<rect id="SVGID_13_" x="-269.4" y="372.2" width="73" height="48.7"/>
						</defs>
						<defs>
							<rect id="SVGID_14_" x="-269.4" y="372.2" width="73" height="48.7"/>
						</defs>
						<defs>
							<rect id="SVGID_15_" x="-269.4" y="372.2" width="73" height="48.7"/>
						</defs>
						<defs>
							<rect id="SVGID_16_" x="-269.4" y="372.2" width="73" height="48.7"/>
						</defs>
						<defs>
							<rect id="SVGID_17_" x="-269.4" y="372.2" width="73" height="48.7"/>
						</defs>
						<defs>
							<rect id="SVGID_18_" x="-269.4" y="372.2" width="73" height="48.7"/>
						</defs>
						<defs>
							<rect id="SVGID_19_" x="-269.4" y="372.2" width="73" height="48.7"/>
						</defs>
						<defs>
							<rect id="SVGID_20_" x="-269.4" y="372.2" width="73" height="48.7"/>
						</defs>
						<defs>
							<rect id="SVGID_21_" x="-269.4" y="372.2" width="73" height="48.7"/>
						</defs>
						<clipPath id="SVGID_22_">
							<use xlink:href="#SVGID_9_"  style="overflow:visible;"/>
						</clipPath>
						<clipPath id="SVGID_23_" class="st6">
							<use xlink:href="#SVGID_10_"  style="overflow:visible;"/>
						</clipPath>
						<clipPath id="SVGID_24_" class="st7">
							<use xlink:href="#SVGID_11_"  style="overflow:visible;"/>
						</clipPath>
						<clipPath id="SVGID_25_" class="st8">
							<use xlink:href="#SVGID_12_"  style="overflow:visible;"/>
						</clipPath>
						<clipPath id="SVGID_26_" class="st9">
							<use xlink:href="#SVGID_13_"  style="overflow:visible;"/>
						</clipPath>
						<clipPath id="SVGID_27_" class="st10">
							<use xlink:href="#SVGID_14_"  style="overflow:visible;"/>
						</clipPath>
						<clipPath id="SVGID_28_" class="st11">
							<use xlink:href="#SVGID_15_"  style="overflow:visible;"/>
						</clipPath>
						<clipPath id="SVGID_29_" class="st12">
							<use xlink:href="#SVGID_16_"  style="overflow:visible;"/>
						</clipPath>
						<clipPath id="SVGID_30_" class="st13">
							<use xlink:href="#SVGID_17_"  style="overflow:visible;"/>
						</clipPath>
						<clipPath id="SVGID_31_" class="st14">
							<use xlink:href="#SVGID_18_"  style="overflow:visible;"/>
						</clipPath>
						<clipPath id="SVGID_32_" class="st15">
							<use xlink:href="#SVGID_19_"  style="overflow:visible;"/>
						</clipPath>
						<clipPath id="SVGID_33_" class="st16">
							<use xlink:href="#SVGID_20_"  style="overflow:visible;"/>
						</clipPath>
						<clipPath id="SVGID_34_" class="st17">
							<use xlink:href="#SVGID_21_"  style="overflow:visible;"/>
						</clipPath>
						<path class="st18" d="M-251.2,388.9c2.5,0,4.6-2,4.6-4.6c0-2.5-2-4.6-4.6-4.6c-2.5,0-4.6,2-4.6,4.6
							C-255.7,386.8-253.7,388.9-251.2,388.9"/>
						<path class="st18" d="M-250.1,379.2l-1.1-4l-1.1,4C-251.7,379.1-250.8,379-250.1,379.2"/>
						<path class="st18" d="M-252.8,379.4l-2.9-2.9l1.1,4C-254.2,380-253.5,379.6-252.8,379.4"/>
						<path class="st18" d="M-255.1,380.8l-4-1.1l2.9,2.9C-256,382.1-255.6,381.4-255.1,380.8"/>
						<path class="st18" d="M-256.3,383.3l-4,1.1l4,1.1C-256.4,384.8-256.4,384-256.3,383.3"/>
						<path class="st18" d="M-256.1,386l-2.9,2.9l4-1.1C-255.5,387.4-255.9,386.7-256.1,386"/>
						<path class="st18" d="M-254.6,388.2l-1.1,4l2.9-2.9C-253.3,389.1-254.1,388.7-254.6,388.2"/>
						<path class="st18" d="M-252.2,389.4l1.1,4l1.1-4C-250.7,389.6-251.5,389.6-252.2,389.4"/>
						<path class="st18" d="M-249.5,389.3l2.9,2.9l-1.1-4C-248.1,388.6-248.8,389.1-249.5,389.3"/>
						<path class="st18" d="M-247.3,387.8l4,1.1l-2.9-2.9C-246.4,386.5-246.8,387.3-247.3,387.8"/>
						<path class="st18" d="M-246,385.4l4-1.1l-4-1.1C-245.9,383.8-245.9,384.7-246,385.4"/>
						<path class="st18" d="M-246.2,382.7l2.9-2.9l-4,1.1C-246.9,381.3-246.4,382-246.2,382.7"/>
						<path class="st18" d="M-247.7,380.4l1.1-4l-2.9,2.9C-249,379.5-248.2,379.9-247.7,380.4"/>
					</g>
				</g>
			</g>
		</g>
	</g>
</g>
</svg>
