<?xml version="1.0" encoding="utf-8"?>
<!-- Generator: Adobe Illustrator 19.0.0, SVG Export Plug-In . SVG Version: 6.00 Build 0)  -->
<svg version="1.1" id="Layer_1" xmlns="http://www.w3.org/2000/svg" xmlns:xlink="http://www.w3.org/1999/xlink" x="0px" y="0px"
	 viewBox="-269 374 72 46" style="enable-background:new -269 374 72 46;" xml:space="preserve">
<style type="text/css">
	.st0{clip-path:url(#SVGID_2_);}
	.st1{fill:#0072BB;}
	.st2{fill:#00904A;}
	.st3{fill:#FFED00;}
</style>
<g>
	<defs>
		<path id="SVGID_1_" d="M-204,420H-262c-3.8,0-7-3.1-7-7V381c0-3.8,3.1-7,7-7h58.1c3.8,0,7,3.1,7,7V413
			C-197,416.9-200.1,420-204,420z"/>
	</defs>
	<clipPath id="SVGID_2_">
		<use xlink:href="#SVGID_1_"  style="overflow:visible;"/>
	</clipPath>
	<g class="st0">
		<g>
			<path d="M-196.5,421.3h-72.8v-48.6h72.8V421.3z M-269.1,421.1h72.3v-48.1h-72.3V421.1z"/>
		</g>
		<g>
			<polygon class="st1" points="-269.2,421.2 -196.6,421.2 -196.6,372.8 			"/>
		</g>
		<g>
			<path d="M-196.6,421.3h-72.6l-0.1-0.2l72.6-48.4l0.2,0.1v48.4L-196.6,421.3z M-268.8,421.1h72v-48L-268.8,421.1z"/>
		</g>
		<g>
			<polygon class="st2" points="-196.6,372.8 -269.2,372.8 -269.2,421.2 			"/>
		</g>
		<g>
			<path d="M-269.1,421.3l-0.2-0.1v-48.4l0.1-0.1h72.6l0.1,0.2L-269.1,421.3z M-269.1,372.9v48l72-48H-269.1z"/>
		</g>
		<g>
			<polygon class="st3" points="-196.6,384.3 -251.9,421.2 -269.2,421.2 -269.2,409.7 -213.9,372.8 -196.6,372.8 			"/>
		</g>
		<g>
			<path d="M-251.9,421.3h-17.4v-11.7l55.4-36.9h17.4v11.7L-251.9,421.3z M-269.1,421.1h17.1l55.2-36.8v-11.3h-17.1l-55.2,36.8
				V421.1z"/>
		</g>
		<g>
			<polygon points="-257.4,421.2 -196.6,380.7 -196.6,372.8 -208.4,372.8 -269.2,413.3 -269.2,421.2 			"/>
		</g>
		<g>
			<path d="M-257.3,421.3h-12v-8.1l60.9-40.6h12v8.1L-257.3,421.3z M-269.1,421.1h11.7l60.7-40.4v-7.7h-11.6l-60.7,40.4V421.1z"/>
		</g>
	</g>
</g>
</svg>
