<?xml version="1.0" encoding="utf-8"?>
<!-- Generator: Adobe Illustrator 19.0.0, SVG Export Plug-In . SVG Version: 6.00 Build 0)  -->
<svg version="1.1" id="Layer_1" xmlns="http://www.w3.org/2000/svg" xmlns:xlink="http://www.w3.org/1999/xlink" x="0px" y="0px"
	 viewBox="-269 374 72 46" style="enable-background:new -269 374 72 46;" xml:space="preserve">
<style type="text/css">
	.st0{clip-path:url(#SVGID_2_);}
	.st1{fill:#FFED00;}
	.st2{fill:#0077BE;}
</style>
<g>
	<defs>
		<path id="SVGID_1_" d="M-204,420H-262c-3.8,0-7-3.1-7-7V381c0-3.8,3.1-7,7-7h58.1c3.8,0,7,3.1,7,7V413
			C-197,416.9-200.1,420-204,420z"/>
	</defs>
	<clipPath id="SVGID_2_">
		<use xlink:href="#SVGID_1_"  style="overflow:visible;"/>
	</clipPath>
	<g class="st0">
		<g>
			<polygon class="st1" points="-196.8,420.7 -269.2,420.7 -269.2,396.9 -196.8,396.9 			"/>
		</g>
		<g>
			<path d="M-196.6,420.8h-72.7v-24h72.7V420.8z M-269.1,420.5h72.2V397h-72.2V420.5z"/>
		</g>
		<g>
			<polygon class="st2" points="-269.2,396.9 -196.8,396.9 -196.8,373.2 -269.2,373.2 			"/>
		</g>
		<g>
			<path d="M-196.6,397h-72.7v-24h72.7V397z M-269.1,396.8h72.2v-23.5h-72.2V396.8z"/>
		</g>
	</g>
</g>
</svg>
