<?xml version="1.0" encoding="utf-8"?>
<!-- Generator: Adobe Illustrator 19.0.0, SVG Export Plug-In . SVG Version: 6.00 Build 0)  -->
<svg version="1.1" id="Layer_1" xmlns="http://www.w3.org/2000/svg" xmlns:xlink="http://www.w3.org/1999/xlink" x="0px" y="0px"
	 viewBox="-269 374 72 46" style="enable-background:new -269 374 72 46;" xml:space="preserve">
<style type="text/css">
	.st0{clip-path:url(#SVGID_2_);}
	.st1{fill:#FFE000;}
	.st2{fill:#E95123;}
	.st3{fill:#FFFFFF;}
	.st4{fill:#C9CECB;}
</style>
<g>
	<defs>
		<path id="SVGID_1_" d="M-204,420H-262c-3.8,0-7-3.1-7-7V381c0-3.8,3.1-7,7-7h58.1c3.8,0,7,3.1,7,7V413
			C-197,416.9-200.1,420-204,420z"/>
	</defs>
	<clipPath id="SVGID_2_">
		<use xlink:href="#SVGID_1_"  style="overflow:visible;"/>
	</clipPath>
	<g class="st0">
		<g>
			<polygon class="st1" points="-195.7,412.6 -269.7,412.6 -269.7,404.4 -195.7,404.4 			"/>
		</g>
		<g>
			<path d="M-195.6,412.8h-74.2v-8.5h74.2V412.8z M-269.6,412.5h73.7v-8h-73.7V412.5z"/>
		</g>
		<g>
			<polygon class="st1" points="-195.7,388 -269.7,388 -269.7,379.7 -195.7,379.7 			"/>
		</g>
		<g>
			<path d="M-195.6,388.1h-74.2v-8.5h74.2V388.1z M-269.6,387.8h73.7v-8h-73.7V387.8z"/>
		</g>
		<g>
			<polygon points="-195.7,379.7 -269.7,379.7 -269.7,371.5 -195.7,371.5 			"/>
		</g>
		<g>
			<path d="M-195.6,379.9h-74.2v-8.5h74.2V379.9z M-269.6,379.6h73.7v-8h-73.7V379.6z"/>
		</g>
		<g>
			<polygon points="-269.7,404.4 -195.7,404.4 -195.7,396.2 -269.7,396.2 			"/>
		</g>
		<g>
			<path d="M-195.6,404.5h-74.2v-8.5h74.2V404.5z M-269.6,404.3h73.7v-8h-73.7V404.3z"/>
		</g>
		<g>
			<polygon class="st2" points="-269.7,396.2 -195.7,396.2 -195.7,388 -269.7,388 			"/>
		</g>
		<g>
			<path d="M-195.6,396.3h-74.2v-8.5h74.2V396.3z M-269.6,396.1h73.7v-8h-73.7V396.1z"/>
		</g>
		<g>
			<polygon class="st2" points="-195.7,420.8 -269.7,420.8 -269.7,412.6 -195.7,412.6 			"/>
		</g>
		<g>
			<path d="M-195.6,421h-74.2v-8.5h74.2V421z M-269.6,420.7h73.7v-8h-73.7V420.7z"/>
		</g>
		<g>
			<path class="st3" d="M-232.7,403.8c4.2,0,7.7-3.4,7.7-7.7c0-4.2-3.4-7.7-7.7-7.7c-4.2,0-7.7,3.4-7.7,7.7
				C-240.4,400.4-237,403.8-232.7,403.8L-232.7,403.8z"/>
		</g>
		<g>
			<path d="M-232.7,403.9c-4.3,0-7.7-3.5-7.7-7.7c0-4.3,3.5-7.7,7.7-7.7c4.3,0,7.7,3.5,7.7,7.7C-225,400.4-228.5,403.9-232.7,403.9z
				 M-232.7,388.6c-4.2,0-7.6,3.4-7.6,7.6c0,4.2,3.4,7.6,7.6,7.6s7.6-3.4,7.6-7.6C-225.1,392-228.5,388.6-232.7,388.6z"/>
		</g>
		<g>
			<path class="st2" d="M-234,390.4l-0.5-1c0.9-0.7,2.8-0.3,3.2,1.3l-0.9,0.2L-234,390.4L-234,390.4z"/>
		</g>
		<g>
			<path d="M-232.3,390.9L-232.3,390.9l-1.8-0.5l0,0l-0.5-1l0,0c0.5-0.4,1.3-0.4,2-0.2c0.6,0.3,1.1,0.8,1.2,1.5l0,0l0,0
				L-232.3,390.9z M-234,390.4l1.7,0.5l0.9-0.2c-0.1-0.7-0.6-1.1-1.2-1.4c-0.6-0.3-1.4-0.2-1.9,0.1L-234,390.4z"/>
		</g>
		<g>
			<path class="st1" d="M-232.7,390.8l-1-0.3l0.1-1.4c0.6,0,1.2,0.2,1.6,0.6L-232.7,390.8L-232.7,390.8z"/>
		</g>
		<g>
			<path d="M-232.6,390.8L-232.6,390.8l-1-0.3l0.1-1.5l0,0c0,0,0.1,0,0.1,0c0.6,0,1.1,0.2,1.5,0.6l0,0l0,0L-232.6,390.8z
				 M-233.6,390.5l0.9,0.2l0.7-1.1c-0.4-0.4-0.9-0.6-1.5-0.6c0,0-0.1,0-0.1,0L-233.6,390.5z"/>
		</g>
		<g>
			<path d="M-232.9,397.8c0.4,1.3,0,1.7,0.2,2.5c0.1,0.6,0.1,1.5,0.1,2c-0.7-0.1-1.5,0-1.9,0.3c0.4-0.1,0.9-0.1,1.2,0
				c-0.3,0.1-0.6,0.4-0.6,0.8c0.5-0.5,1.6-1,2.9-0.8c-0.1-0.2-0.7-0.4-1.2-0.4c0-0.3-0.2-1.4-0.1-1.8c0.1-0.7-0.1-1.7,0.1-2
				c0.1-0.4,0.3-0.6,0.3-0.9"/>
		</g>
		<g>
			<path d="M-233.8,403.5L-233.8,403.5c-0.1-0.4,0.2-0.7,0.4-0.8c-0.3,0-0.7-0.1-1.1,0l0-0.1c0.4-0.4,1.2-0.4,1.9-0.4l0-0.1
				c0-0.5,0-1.3-0.1-1.9c-0.1-0.3-0.1-0.6,0-0.9c0-0.4,0.1-0.8-0.2-1.6l0.1,0c0.2,0.8,0.2,1.2,0.2,1.6c0,0.3,0,0.5,0,0.9
				c0.1,0.6,0.1,1.4,0.1,1.9l0,0.2l0,0c-0.7-0.1-1.4,0-1.7,0.3c0.4-0.1,0.8,0,1.1,0l0,0.1c-0.2,0.1-0.5,0.3-0.5,0.7
				c0.5-0.4,1.3-0.8,2.3-0.8c0.2,0,0.3,0,0.5,0c-0.1-0.1-0.5-0.3-0.9-0.3c-0.1,0-0.2,0-0.2,0l0,0l0,0c0-0.1,0-0.2,0-0.3
				c-0.1-0.4-0.2-1.2-0.1-1.6c0.1-0.3,0.1-0.8,0-1.2c0-0.4,0-0.7,0-0.9c0-0.1,0.1-0.2,0.1-0.3c0.1-0.2,0.2-0.4,0.2-0.6l0.1,0
				c0,0.2-0.1,0.4-0.2,0.6c-0.1,0.1-0.1,0.2-0.1,0.3c-0.1,0.2,0,0.5,0,0.8c0,0.4,0,0.8,0,1.2c-0.1,0.4,0,1.1,0.1,1.6
				c0,0.1,0,0.2,0,0.2c0.5-0.1,1.1,0.2,1.2,0.4l0,0C-232.1,402.5-233.3,402.9-233.8,403.5z"/>
		</g>
		<g>
			<path d="M-229.9,395.9c2,0.7,1.6,2,1.1,2.2c-1.3,0.5-3.2,0.2-4.8-0.5c-0.7-0.3-1.6-1.1-1.4-1.9c0.2-0.7,1.7-1.4,2.6-0.9
				C-231.5,395.3-230.3,395.8-229.9,395.9L-229.9,395.9z"/>
		</g>
		<g>
			<path d="M-230.2,398.4c-1.1,0-2.4-0.3-3.3-0.7c-0.7-0.3-1.6-1.1-1.4-1.9c0.1-0.3,0.5-0.7,1-0.9c0.6-0.3,1.2-0.3,1.7-0.1
				c0.9,0.5,2.1,0.9,2.5,1.1l0,0c1.4,0.5,1.5,1.2,1.6,1.5c0,0.4-0.2,0.7-0.4,0.8C-229.2,398.3-229.7,398.4-230.2,398.4z
				 M-233.1,394.7c-0.3,0-0.6,0.1-1,0.2c-0.5,0.2-0.8,0.5-0.9,0.9c-0.2,0.7,0.7,1.5,1.4,1.8c1.4,0.6,3.4,1,4.8,0.5
				c0.2-0.1,0.4-0.4,0.4-0.7c0-0.3-0.2-1-1.5-1.4l0,0c-0.4-0.1-1.6-0.6-2.5-1.1C-232.6,394.8-232.8,394.7-233.1,394.7z"/>
		</g>
		<g>
			<path d="M-233.3,396.3c-0.3,0.5-0.2,1.6,0.4,1.9c0.5,0.3,0.8,0.5,1,0.9c0.2,0.4,0.3,0.7-0.2,0.6c-1.4-0.1-2.9-0.3-3.4,0.2
				c-0.3,0.3-0.3,0.7-0.2,1.2c0.2-0.2,0.1-0.7,0.3-0.8c-0.1,0.2-0.1,0.6,0.1,0.8c0-0.2,0.1-0.9,0.2-0.9c0.2,0.1,0,0.5,0.2,0.7
				c0.1-0.2,0-0.4,0.2-0.6c0.2-0.2,0.5-0.3,1.2-0.3c0.7,0.1,1.2,0.1,1.5,0.1c0.3,0,0.4-0.1,0.6,0c0.2,0.1,0.3,0,0.4-0.1
				c0.1-0.1,0.2-0.3,0-0.5c-0.2-0.2-0.6-0.8-0.3-1.3c0.2-0.3,0.1-0.8,0-1"/>
		</g>
		<g>
			<path d="M-235.7,401.1L-235.7,401.1c-0.1-0.4-0.2-0.9,0.2-1.2c0.5-0.5,2.1-0.3,3.4-0.2c0.2,0,0.3,0,0.4-0.1
				c0.1-0.1,0-0.3-0.2-0.5c-0.2-0.4-0.5-0.6-1-0.9c-0.3-0.1-0.4-0.4-0.5-0.8c-0.1-0.4,0-0.9,0.1-1.2l0,0c-0.2,0.2-0.2,0.7-0.1,1.1
				c0.1,0.4,0.3,0.6,0.5,0.8c0.6,0.3,0.8,0.5,1.1,0.9c0.1,0.2,0.2,0.4,0.2,0.6c-0.1,0.1-0.2,0.1-0.4,0.1c-1.3-0.1-2.9-0.3-3.4,0.2
				c-0.3,0.3-0.3,0.6-0.2,1.1c0-0.1,0.1-0.2,0.1-0.3c0-0.2,0.1-0.4,0.2-0.5l0,0c-0.1,0.1-0.1,0.5,0.1,0.7c0-0.3,0.1-0.8,0.2-0.9l0,0
				l0,0c0.1,0.1,0.1,0.2,0.1,0.3c0,0.1,0,0.2,0.1,0.3c0-0.1,0-0.1,0-0.2c0-0.1,0-0.3,0.2-0.4c0.2-0.2,0.5-0.3,0.9-0.3
				c0.1,0,0.2,0,0.3,0l0.1,0c0.6,0,1,0.1,1.3,0.1c0.1,0,0.2,0,0.3,0c0.1,0,0.2,0,0.3,0c0.1,0.1,0.3,0,0.3-0.1l0,0
				c0.1-0.1,0.1-0.3,0-0.4c-0.2-0.2-0.6-0.8-0.3-1.3c0.2-0.3,0.1-0.7,0-0.9l0.1,0c0.1,0.2,0.2,0.7,0,1c-0.3,0.4,0.1,1,0.3,1.2
				c0.2,0.2,0.1,0.4,0.1,0.5l0,0c-0.1,0.1-0.2,0.2-0.4,0.1c-0.1,0-0.2,0-0.3,0c-0.1,0-0.2,0-0.3,0c0,0-0.1,0-0.1,0
				c-0.3,0-0.7,0-1.2-0.1l-0.1,0c-0.6,0-1,0-1.2,0.3c-0.1,0.1-0.1,0.2-0.2,0.4c0,0.1,0,0.2-0.1,0.3l0,0l0,0
				c-0.1-0.1-0.1-0.3-0.1-0.4c0-0.1,0-0.2-0.1-0.3c-0.1,0.1-0.2,0.6-0.2,0.9l-0.1,0c-0.2-0.2-0.2-0.5-0.2-0.7
				c-0.1,0.1-0.1,0.2-0.1,0.4C-235.6,400.9-235.6,401-235.7,401.1z"/>
		</g>
		<g>
			<path d="M-235.2,391.7c0.1,0.1,0.4,0.1,1.1,0c0,0.1,0.3,0.3,0.2,0.4c-0.6,0.7-1.3,1.5-1.6,2.7c-0.1,0.6,0.1,1.5,0.7,2
				c0-0.2,0-0.4,0-0.6c0.1,0.1,0.1,0.2,0.2,0.2c0-0.1,0.1-0.3,0.1-0.4c0.1,0.1,0.2,0.1,0.4,0.1c0-0.1-0.1-0.4-0.1-0.4
				c0.1,0.1,0.3,0.1,0.3,0.2c0-0.1-0.2-0.4-0.2-0.5c0.1,0.1,0.2,0.2,0.3,0.2c-0.1-0.1-0.1-0.4-0.1-0.5c0,0,0.2,0.1,0.4,0.2
				c-0.1-0.1-0.1-0.4-0.1-0.5c0.1,0.1,0.3,0.1,0.4,0.2c-0.1-0.1,0-0.3-0.1-0.3c0.1,0,0.4-0.1,0.6,0c-0.2-0.2-0.4-0.3-0.5-0.6
				c-0.2-0.8,0.1-1.8,0.5-2.1c0.7-0.5,0.9-1.7-0.2-2.1c-0.6-0.2-1.5,0.3-1.2,1.2c-0.8,0.1-1.2,0.2-1.1,0.5
				C-235.3,391.8-235.2,391.7-235.2,391.7L-235.2,391.7z"/>
		</g>
		<g>
			<path d="M-234.8,396.9c-0.6-0.6-0.8-1.5-0.7-2.1c0.2-1,0.8-1.8,1.3-2.4c0.1-0.1,0.2-0.2,0.2-0.3c0.1-0.1,0-0.2-0.1-0.3
				c0,0-0.1-0.1-0.1-0.1c-0.7,0.1-1,0.2-1.1,0c0,0-0.1,0-0.1,0c0,0,0,0,0,0l0,0l0,0c0-0.3,0.4-0.4,1.1-0.5c-0.1-0.4,0-0.8,0.2-1
				c0.3-0.2,0.7-0.3,1-0.2c0.5,0.2,0.8,0.5,0.8,0.9c0.1,0.4-0.2,0.9-0.6,1.2c-0.4,0.3-0.6,1.3-0.5,2c0,0.2,0.1,0.3,0.3,0.4
				c0.1,0.1,0.1,0.1,0.2,0.2l0,0c-0.1-0.1-0.2,0-0.4,0c-0.1,0-0.1,0-0.1,0c0,0,0,0.1,0,0.1c0,0.1,0,0.1,0,0.2l0,0
				c0,0-0.1-0.1-0.2-0.1c0,0-0.1,0-0.1-0.1c0,0,0,0,0,0.1c0,0.1,0,0.2,0.1,0.3l0,0c-0.1,0-0.2-0.1-0.3-0.1c0,0-0.1,0-0.1,0
				c0,0,0,0,0,0.1c0,0.1,0,0.2,0.1,0.3l0,0c0,0,0,0-0.1-0.1c0,0,0,0-0.1,0c0,0.1,0.1,0.2,0.1,0.2c0,0,0,0.1,0,0.1l-0.1,0
				c0,0-0.1-0.1-0.2-0.1c0,0,0,0-0.1,0c0,0.1,0.1,0.3,0.1,0.4v0l0,0c-0.1,0-0.1,0-0.2-0.1s-0.1,0-0.2-0.1c0,0.1,0,0.2,0,0.3
				c0,0,0,0.1,0,0.1l0,0l0,0c-0.1,0-0.1-0.1-0.2-0.2c0,0.1,0,0.2,0,0.2C-234.8,396.7-234.8,396.8-234.8,396.9L-234.8,396.9z
				 M-234,391.6L-234,391.6c0,0.1,0.1,0.1,0.1,0.2c0.1,0.1,0.2,0.2,0.1,0.3c-0.1,0.1-0.2,0.2-0.2,0.3c-0.5,0.7-1.1,1.4-1.3,2.4
				c-0.1,0.6,0,1.4,0.6,1.9c0-0.1,0-0.1,0-0.2c0-0.1,0-0.2,0-0.3l0.1,0c0,0,0,0,0,0.1c0,0,0.1,0.1,0.1,0.1c0,0,0,0,0,0
				c0-0.1,0-0.3,0-0.3V396l0,0c0.1,0,0.1,0.1,0.2,0.1c0,0,0.1,0,0.1,0c0-0.1-0.1-0.3-0.1-0.4l0,0c0,0,0.1,0,0.1,0.1c0,0,0.1,0,0.1,0
				c0,0,0,0,0,0c-0.1-0.1-0.1-0.3-0.2-0.4l0.1,0c0,0,0.1,0.1,0.2,0.1c0,0,0,0,0,0c0-0.1,0-0.2,0-0.2c0-0.1,0-0.1,0-0.1l0,0
				c0,0,0.1,0,0.1,0.1c0.1,0,0.1,0.1,0.2,0.1c0-0.1,0-0.2-0.1-0.2c0-0.1,0-0.1,0-0.1l0,0c0,0,0.1,0.1,0.2,0.1c0,0,0.1,0,0.1,0.1
				c0,0,0-0.1,0-0.1c0,0,0-0.1,0-0.1l0-0.1c0,0,0.1,0,0.2,0c0.1,0,0.2,0,0.3,0c0,0-0.1-0.1-0.1-0.1c-0.1-0.1-0.3-0.2-0.3-0.4
				c-0.2-0.8,0.1-1.8,0.5-2.1c0.4-0.3,0.6-0.7,0.6-1.2c-0.1-0.4-0.3-0.7-0.8-0.8c-0.3-0.1-0.7,0-0.9,0.2c-0.2,0.2-0.3,0.6-0.2,1l0,0
				l0,0c-0.7,0.1-1.1,0.2-1.1,0.4c0,0,0.1,0,0.1,0l0,0l0,0C-235.1,391.8-234.6,391.7-234,391.6L-234,391.6z"/>
		</g>
		<g>
			<path class="st4" d="M-233.3,394.7c-0.2,0.7,0.1,1.8,1.5,2.3c1.3,0.5,2.3,1.5,2,2.4c0.2-0.1,0.7-0.7,0.4-1.2
				c0.4,0.6,0,1.5-0.6,1.9c-0.2,0.1,0,0.2,0.2,0.2c-0.2,0.1-0.3,0.2-0.1,0.2c0.1,0,0.5-0.2,0.7-0.3c-0.1,0.1-0.4,0.2-0.2,0.3
				c0.1,0.1,0.4-0.1,0.6-0.3c-0.1,0.2-0.3,0.4-0.5,0.5c-0.1,0.1-0.1,0.4,0.1,0.2c0.6-0.4,1.3-1,1.5-1.7c0.1-0.7,0.4-2.2-1.3-3
				c-1.7-0.8-2.5-1-3-1.3C-232.6,394.5-233.2,394.2-233.3,394.7L-233.3,394.7z"/>
		</g>
		<g>
			<path d="M-229.5,401C-229.5,401-229.6,400.9-229.5,401c-0.1-0.1-0.1-0.3,0-0.3c0.1,0,0.1-0.1,0.2-0.2c-0.1,0.1-0.3,0.1-0.3,0
				c0,0,0-0.1,0-0.1c0,0,0,0,0,0c-0.1,0.1-0.3,0.1-0.4,0.1c-0.1,0-0.1,0-0.1-0.1c0,0,0-0.1,0.1-0.2c-0.1,0-0.1,0-0.1-0.1
				c0,0,0-0.1,0.1-0.2c0.4-0.2,0.7-0.7,0.7-1.1c0-0.1,0-0.3,0-0.4c0,0.1,0,0.2-0.1,0.3c-0.1,0.3-0.3,0.5-0.4,0.6l0,0
				c0.3-0.8-0.6-1.8-2-2.3c-1.3-0.5-1.7-1.5-1.5-2.3l0,0l0,0c0-0.1,0.1-0.2,0.2-0.3c0.3-0.1,0.7,0.2,1,0.4c0.3,0.2,0.6,0.3,1.1,0.5
				c0.5,0.2,1.1,0.4,1.9,0.8c1.7,0.8,1.4,2.4,1.3,3c-0.1,0.6-0.6,1.2-1.5,1.8C-229.4,400.9-229.5,401-229.5,401z M-229,400.1
				L-229,400.1l0,0.1c-0.1,0.2-0.3,0.4-0.4,0.4c-0.1,0.1-0.1,0.2-0.1,0.2c0,0,0.1,0,0.1,0c0.8-0.6,1.3-1.2,1.5-1.7
				c0.1-0.6,0.4-2.2-1.2-2.9c-0.8-0.4-1.4-0.6-1.9-0.8c-0.5-0.2-0.9-0.4-1.1-0.5c-0.3-0.2-0.7-0.5-1-0.4c-0.1,0-0.1,0.1-0.2,0.2
				c-0.2,0.7,0.2,1.7,1.4,2.2c1.4,0.5,2.3,1.5,2.1,2.3c0.1-0.1,0.3-0.3,0.3-0.5c0.1-0.2,0.1-0.4,0-0.6l0.1,0
				c0.2,0.2,0.2,0.5,0.1,0.8c-0.1,0.4-0.4,0.9-0.8,1.1c-0.1,0-0.1,0.1-0.1,0.1c0,0,0.1,0.1,0.2,0l0,0.1c-0.1,0-0.2,0.1-0.2,0.2
				c0,0,0,0,0,0l0,0c0,0,0,0,0,0c0.1,0,0.4-0.1,0.6-0.2c0,0,0,0,0,0c0,0,0,0,0,0l0,0c0,0,0,0,0,0c0,0,0,0,0,0s0,0-0.1,0
				c-0.1,0.1-0.1,0.1-0.1,0.2c0,0,0,0,0,0C-229.5,400.5-229.3,400.4-229,400.1z"/>
		</g>
		<g>
			<path class="st3" d="M-230,396.1c-0.4-0.1-1.4-0.4-1.8-0.7c-0.4-0.3-1-0.2-0.9,0.2c0,0.4,1,0.6,1.3,1c0.2,0.4,1.2,0.5,1.5,0.5
				C-229.6,397.2-228.5,396.8-230,396.1L-230,396.1z"/>
		</g>
		<g>
			<path d="M-229.9,397.2C-229.9,397.2-229.9,397.2-229.9,397.2c-0.1,0-0.2,0-0.3,0c-0.4-0.1-1.2-0.1-1.4-0.5
				c-0.1-0.2-0.4-0.3-0.6-0.5c-0.3-0.2-0.6-0.3-0.6-0.6c0-0.2,0.1-0.3,0.2-0.4c0.2-0.1,0.5-0.1,0.8,0.1c0.4,0.3,1.5,0.6,1.8,0.7l0,0
				c0.6,0.3,0.8,0.5,0.8,0.8C-229.3,397.1-229.6,397.2-229.9,397.2z M-232.4,395.3c-0.1,0-0.2,0-0.2,0.1c-0.1,0.1-0.1,0.2-0.1,0.3
				c0,0.2,0.3,0.4,0.6,0.5c0.3,0.1,0.6,0.3,0.7,0.5c0.2,0.4,0.9,0.4,1.3,0.5c0.1,0,0.1,0,0.2,0c0,0,0,0,0.1,0c0.2,0,0.5-0.1,0.6-0.3
				c0.1-0.2-0.2-0.5-0.7-0.7c-0.3-0.1-1.4-0.4-1.8-0.7C-232,395.3-232.2,395.3-232.4,395.3z"/>
		</g>
		<g>
			<path class="st2" d="M-231.2,397c0.4,0.2,0.7,0.3,1.1,0.9c0.3,0.4,0.4,1,0.3,1.4c0.2-0.1,0.7-0.7,0.4-1.2c0.4,0.6,0,1.5-0.6,1.9
				c-0.2,0.1,0,0.2,0.2,0.2c-0.2,0.1-0.3,0.2-0.1,0.2c0.1,0,0.5-0.2,0.7-0.3c-0.1,0.1-0.4,0.2-0.2,0.3c0.1,0.1,0.4-0.1,0.6-0.3
				c-0.1,0.2-0.3,0.4-0.5,0.5c-0.1,0.1-0.1,0.4,0.1,0.2c0.6-0.4,1.3-1,1.5-1.7c0.1-0.7,0.4-2.1-1.3-3c-0.3-0.1-1.1-0.3-1.3-0.4
				c0.4,0.1,0.8,0.8,0.9,0.9c-0.2-0.1-1-0.5-1.2-0.5c0.2,0.2,0.3,0.3,0.5,0.6c-0.3-0.1-0.9-0.2-1-0.2c0.2,0.1,0.4,0.3,0.5,0.4
				C-231,396.7-231.5,396.8-231.2,397L-231.2,397z"/>
		</g>
		<g>
			<path d="M-229.5,401C-229.5,401-229.6,400.9-229.5,401c-0.1-0.1-0.1-0.3,0-0.3c0.1,0,0.1-0.1,0.2-0.2c-0.1,0.1-0.3,0.1-0.3,0
				c0,0,0-0.1,0-0.1c0,0,0,0,0,0c-0.1,0.1-0.3,0.1-0.4,0.1c-0.1,0-0.1,0-0.1-0.1c0,0,0-0.1,0.1-0.2c-0.1,0-0.1,0-0.1-0.1
				c0,0,0-0.1,0.1-0.2c0.4-0.2,0.7-0.7,0.7-1.1c0-0.1,0-0.3,0-0.4c0,0.1,0,0.2-0.1,0.3c-0.1,0.3-0.3,0.5-0.4,0.6l0,0
				c0.1-0.4,0-1-0.3-1.4c-0.3-0.4-0.6-0.6-0.9-0.7c-0.1,0-0.2-0.1-0.2-0.1l0,0c-0.1-0.1-0.1-0.1-0.1-0.2c0,0,0-0.1,0.1-0.1
				c0.1,0,0.3,0,0.4,0c-0.1-0.1-0.2-0.2-0.4-0.3l0-0.1c0.1,0,0.6,0.1,0.9,0.2c-0.1-0.2-0.2-0.3-0.4-0.4c0,0-0.1-0.1-0.1-0.1l0-0.1
				c0.2,0,0.8,0.3,1.1,0.5c0,0,0,0,0,0c-0.2-0.2-0.5-0.6-0.8-0.7l0-0.1l0,0c0.6,0.1,1.1,0.3,1.3,0.4c1.7,0.9,1.4,2.4,1.3,3l0,0
				c-0.1,0.6-0.6,1.2-1.5,1.8C-229.4,400.9-229.5,401-229.5,401z M-229,400.1L-229,400.1l0,0.1c-0.1,0.2-0.3,0.4-0.4,0.4
				c-0.1,0.1-0.1,0.2-0.1,0.2c0,0,0.1,0,0.1,0c0.8-0.6,1.3-1.2,1.5-1.7l0,0c0.1-0.7,0.4-2.1-1.2-2.9c-0.1-0.1-0.4-0.2-1.1-0.3
				c0.2,0.2,0.5,0.5,0.6,0.6c0.1,0.1,0.1,0.1,0.1,0.2l0,0c-0.2-0.1-0.8-0.4-1.1-0.5c0.1,0.1,0.3,0.2,0.4,0.5l0,0
				c-0.2-0.1-0.6-0.2-0.8-0.2c0.1,0.1,0.2,0.2,0.3,0.3c0,0,0,0,0.1,0.1l0,0c-0.2-0.1-0.4-0.1-0.5-0.1c0,0,0,0,0,0c0,0,0,0,0.1,0.1
				l0,0c0.1,0,0.2,0.1,0.2,0.1c0.3,0.2,0.6,0.3,0.9,0.7c0.3,0.4,0.4,1,0.3,1.4c0.1-0.1,0.3-0.3,0.3-0.5c0.1-0.2,0.1-0.4,0-0.6l0.1,0
				c0.2,0.2,0.2,0.5,0.1,0.8c-0.1,0.4-0.4,0.9-0.8,1.1c-0.1,0-0.1,0.1-0.1,0.1c0,0,0.1,0.1,0.2,0l0,0.1c-0.1,0-0.2,0.1-0.2,0.2
				c0,0,0,0,0,0l0,0c0,0,0,0,0,0c0.1,0,0.4-0.1,0.6-0.2c0,0,0,0,0,0c0,0,0,0,0,0l0,0c0,0,0,0,0,0c0,0,0,0,0,0c0,0,0,0-0.1,0
				c-0.1,0.1-0.1,0.1-0.1,0.2c0,0,0,0,0,0C-229.5,400.5-229.3,400.4-229,400.1z"/>
		</g>
		<g>
			<path class="st2" d="M-234.1,391.7c-0.3,0.2-0.5,0.5-0.3,0.7c0.2,0.2,0.6,0,0.7-0.2C-233.6,391.8-234.1,391.8-234.1,391.7
				L-234.1,391.7z"/>
		</g>
		<g>
			<path d="M-234.2,392.5c-0.1,0-0.2,0-0.2-0.1c-0.2-0.3,0-0.6,0.3-0.8l0,0c0,0.1,0.1,0.1,0.1,0.1c0.1,0.1,0.3,0.2,0.2,0.4
				C-233.7,392.4-234,392.5-234.2,392.5C-234.2,392.5-234.2,392.5-234.2,392.5z M-234.1,391.7c-0.3,0.2-0.4,0.5-0.3,0.7
				c0,0.1,0.1,0.1,0.2,0.1c0.2,0,0.4-0.2,0.4-0.3c0.1-0.2,0-0.3-0.2-0.4C-234,391.8-234.1,391.8-234.1,391.7z"/>
		</g>
		<g>
			<path class="st4" d="M-233.6,392.3c-0.8,1-1.1,2.1-1.2,2.9c0,0.4,0.2,0.6,0.3,0.7c0-0.1,0-0.4-0.1-0.4c0.1,0.1,0.2,0.1,0.3,0.2
				c0-0.1-0.1-0.3-0.1-0.4c0.1,0.1,0.2,0,0.3,0c0-0.1-0.1-0.2-0.1-0.3c0,0,0.3,0,0.4,0.1c0-0.1-0.2-0.3-0.2-0.3c0,0,0.3,0,0.4,0.1
				c-0.2-0.2-0.6-0.6,0.1-2.3C-233.4,392.2-233.4,392.1-233.6,392.3L-233.6,392.3z"/>
		</g>
		<g>
			<path d="M-234.5,396L-234.5,396c-0.2-0.2-0.4-0.4-0.4-0.8c0-0.8,0.3-1.9,1.2-2.9l0,0c0.1-0.1,0.1-0.1,0.2-0.1c0,0,0.1,0,0,0.3
				c-0.7,1.7-0.2,2.2-0.1,2.3l0,0.1c0,0-0.2,0-0.2,0c0,0-0.1,0-0.1,0c0,0.1,0.1,0.2,0.1,0.2l0,0c0,0-0.1,0-0.2,0c-0.1,0-0.1,0-0.1,0
				c0,0.1,0.1,0.1,0.1,0.2l-0.1,0c0,0,0,0,0,0c0,0,0,0-0.1,0c0,0-0.1,0-0.1,0c0,0.1,0.1,0.2,0.1,0.3l-0.1,0c0,0-0.1-0.1-0.1-0.1
				c0,0,0,0-0.1,0C-234.4,395.7-234.4,395.8-234.5,396L-234.5,396z M-233.6,392.3L-233.6,392.3c-0.8,0.9-1.1,2.1-1.2,2.8
				c0,0.3,0.1,0.5,0.3,0.7c0-0.1,0-0.3-0.1-0.4l0.1,0c0,0,0.1,0.1,0.1,0.1c0,0,0.1,0,0.1,0c0-0.1-0.1-0.3-0.1-0.3l0.1,0
				c0,0,0.1,0,0.1,0c0,0,0,0,0.1,0c0-0.1-0.1-0.2-0.1-0.2l0,0c0,0,0.1,0,0.2,0c0.1,0,0.1,0,0.1,0c-0.1-0.1-0.1-0.2-0.1-0.2l0,0
				c0,0,0.1,0,0.1,0c0.1,0,0.1,0,0.2,0c-0.2-0.2-0.5-0.8,0.1-2.3C-233.5,392.3-233.5,392.3-233.6,392.3
				C-233.5,392.3-233.5,392.3-233.6,392.3z"/>
		</g>
		<g>
			<path class="st4" d="M-233,396.5c-0.2,0.4-0.1,1,0,1.1c-0.1-0.2,0.5-0.4,1,0C-232.2,397.4-233,396.9-233,396.5L-233,396.5z"/>
		</g>
		<g>
			<path d="M-232,397.7c-0.3-0.3-0.8-0.3-0.9-0.2c0,0-0.1,0.1,0,0.1l-0.1,0c-0.1-0.2-0.2-0.7,0-1.2l0.1,0c0,0.2,0.4,0.5,0.7,0.8
				C-232.2,397.5-232,397.6-232,397.7L-232,397.7z M-233,396.6c-0.1,0.4-0.1,0.7,0,0.9c0,0,0,0,0.1-0.1c0.1-0.1,0.5-0.1,0.8,0
				c-0.1,0-0.1-0.1-0.2-0.2C-232.6,397.1-232.9,396.8-233,396.6z"/>
		</g>
		<g>
			<path class="st3" d="M-233.7,391c-0.2,0-0.2,0.3,0,0.3C-233.5,391.3-233.5,391-233.7,391L-233.7,391z"/>
		</g>
		<g>
			<path d="M-233.7,391.3c-0.1,0-0.2-0.1-0.2-0.2c0-0.1,0.1-0.2,0.2-0.2c0.1,0,0.2,0.1,0.2,0.2c0,0,0,0.1,0,0.1
				C-233.6,391.3-233.6,391.3-233.7,391.3z"/>
		</g>
		<g>
			<path class="st3" d="M-235.1,391.8L-235.1,391.8c0.1-0.2,0.3-0.2,0.5-0.2c0.2,0,0.3,0,0.4-0.1c0,0,0-0.1,0-0.1l0.1,0
				c0,0.1,0,0.1,0.1,0.1l0,0l-0.1,0c-0.2,0.1-0.3,0.1-0.5,0.1C-234.8,391.7-235,391.7-235.1,391.8z"/>
		</g>
		<g>
			<path class="st4" d="M-232.9,390.7c0.1,0.4-0.1,0.7-0.3,0.7c-0.3,0.1-0.3,0.5,0.1,0.4c0.7-0.1,0.7-0.7,0.4-1.3
				C-232.8,390.4-233,390.5-232.9,390.7L-232.9,390.7z"/>
		</g>
		<g>
			<path d="M-233.2,391.9c-0.2,0-0.2-0.1-0.3-0.2c0-0.1,0-0.2,0.2-0.3c0.1,0,0.4-0.2,0.3-0.7l0,0c0-0.1,0-0.2,0.1-0.2
				c0.1,0,0.1,0,0.2,0.1c0.2,0.3,0.3,0.7,0.1,0.9C-232.7,391.7-232.8,391.8-233.2,391.9C-233.1,391.9-233.2,391.9-233.2,391.9z
				 M-232.9,390.5C-232.9,390.5-232.9,390.5-232.9,390.5c0,0-0.1,0.1,0,0.2l0,0c0.1,0.6-0.2,0.7-0.3,0.8c-0.1,0-0.2,0.1-0.2,0.2
				c0,0.1,0.1,0.1,0.3,0.1c0.2,0,0.4-0.2,0.5-0.3C-232.5,391.2-232.6,390.9-232.9,390.5C-232.8,390.6-232.8,390.5-232.9,390.5z"/>
		</g>
	</g>
</g>
</svg>
