<?xml version="1.0" encoding="utf-8"?>
<!-- Generator: Adobe Illustrator 19.0.0, SVG Export Plug-In . SVG Version: 6.00 Build 0)  -->
<svg version="1.1" id="Layer_1" xmlns="http://www.w3.org/2000/svg" xmlns:xlink="http://www.w3.org/1999/xlink" x="0px" y="0px"
	 viewBox="-269 374 72 46" style="enable-background:new -269 374 72 46;" xml:space="preserve">
<style type="text/css">
	.st0{clip-path:url(#SVGID_2_);}
	.st1{fill:none;stroke:#000000;stroke-width:0.3914;}
	.st2{fill:#E20613;}
	.st3{fill:#FFFFFF;}
	.st4{fill:#0064A2;}
	.st5{fill:none;}
</style>
<g>
	<defs>
		<path id="SVGID_1_" d="M-204,420H-262c-3.8,0-7-3.1-7-7V381c0-3.8,3.1-7,7-7h58.1c3.8,0,7,3.1,7,7V413
			C-197,416.9-200.1,420-204,420z"/>
	</defs>
	<clipPath id="SVGID_2_">
		<use xlink:href="#SVGID_1_"  style="overflow:visible;"/>
	</clipPath>
	<g class="st0">
		<g>
			<path class="st1" d="M-233,396.3"/>
		</g>
		<g>
			<g>
				<rect x="-270" y="417.4" class="st2" width="74" height="3.1"/>
			</g>
			<g>
				<path class="st2" d="M-233,418.9"/>
			</g>
		</g>
		<g>
			<g>
				<rect x="-270" y="414.2" class="st3" width="74" height="3.1"/>
			</g>
			<g>
				<path class="st3" d="M-233,415.8"/>
			</g>
		</g>
		<g>
			<g>
				<rect x="-270" y="411.1" class="st2" width="74" height="3.1"/>
			</g>
			<g>
				<path class="st2" d="M-233,412.7"/>
			</g>
		</g>
		<g>
			<g>
				<rect x="-270" y="408" class="st3" width="74" height="3.1"/>
			</g>
			<g>
				<path class="st3" d="M-233,409.5"/>
			</g>
		</g>
		<g>
			<g>
				<rect x="-270" y="404.8" class="st2" width="74" height="3.1"/>
			</g>
			<g>
				<path class="st2" d="M-233,406.4"/>
			</g>
		</g>
		<g>
			<g>
				<rect x="-270" y="401.7" class="st3" width="74" height="3.1"/>
			</g>
			<g>
				<path class="st3" d="M-233,403.3"/>
			</g>
		</g>
		<g>
			<g>
				<rect x="-270" y="398.6" class="st2" width="74" height="3.1"/>
			</g>
			<g>
				<path class="st2" d="M-233,400.1"/>
			</g>
		</g>
		<g>
			<g>
				<rect x="-270" y="395.4" class="st3" width="74" height="3.1"/>
			</g>
			<g>
				<path class="st3" d="M-233,397"/>
			</g>
		</g>
		<g>
			<g>
				<rect x="-270" y="392.3" class="st2" width="74" height="3.1"/>
			</g>
			<g>
				<path class="st2" d="M-233,393.9"/>
			</g>
		</g>
		<g>
			<g>
				<rect x="-270" y="389.2" class="st3" width="74" height="3.1"/>
			</g>
			<g>
				<path class="st3" d="M-233,390.7"/>
			</g>
		</g>
		<g>
			<g>
				<rect x="-270" y="386" class="st2" width="74" height="3.1"/>
			</g>
			<g>
				<path class="st2" d="M-233,387.6"/>
			</g>
		</g>
		<g>
			<g>
				<rect x="-270" y="382.9" class="st3" width="74" height="3.1"/>
			</g>
			<g>
				<path class="st3" d="M-233,384.5"/>
			</g>
		</g>
		<g>
			<g>
				<rect x="-270" y="379.8" class="st2" width="74" height="3.1"/>
			</g>
			<g>
				<path class="st2" d="M-233,381.3"/>
			</g>
		</g>
		<g>
			<g>
				<rect x="-270" y="376.6" class="st3" width="74" height="3.1"/>
			</g>
			<g>
				<path class="st3" d="M-233,378.2"/>
			</g>
		</g>
		<g>
			<g>
				<rect x="-270" y="373.5" class="st2" width="74" height="3.1"/>
			</g>
			<g>
				<path class="st2" d="M-233,375.1"/>
			</g>
		</g>
		<g>
			<rect x="-270" y="373.6" class="st4" width="31.6" height="25"/>
		</g>
		<g>
			<rect x="-270" y="373.6" class="st5" width="74" height="46.9"/>
		</g>
		<g>
			<g>
				<g>
					<polygon class="st3" points="-258.7,389.8 -259.9,389.8 -260.3,388.7 -260.7,389.8 -261.9,389.8 -260.9,390.5 -261.3,391.7 
						-260.3,391 -259.3,391.7 -259.7,390.5 					"/>
				</g>
			</g>
			<g>
				<g>
					<polygon class="st3" points="-250.7,389.8 -251.9,389.8 -252.3,388.7 -252.6,389.8 -253.9,389.8 -252.9,390.5 -253.3,391.7 
						-252.3,391 -251.3,391.7 -251.7,390.5 					"/>
				</g>
			</g>
			<g>
				<g>
					<polygon class="st3" points="-242.6,389.8 -243.9,389.8 -244.2,388.7 -244.6,389.8 -245.8,389.8 -244.9,390.5 -245.3,391.7 
						-244.2,391 -243.2,391.7 -243.6,390.5 					"/>
				</g>
			</g>
		</g>
		<g>
			<g>
				<g>
					<polygon class="st3" points="-246.4,385.5 -247.6,385.5 -248,384.4 -248.3,385.5 -249.6,385.5 -248.6,386.2 -249,387.4 
						-248,386.7 -247,387.4 -247.4,386.2 					"/>
				</g>
			</g>
			<g>
				<g>
					<polygon class="st3" points="-263,385.5 -264.2,385.5 -264.6,384.4 -265,385.5 -266.2,385.5 -265.2,386.2 -265.6,387.4 
						-264.6,386.7 -263.6,387.4 -264,386.2 					"/>
				</g>
			</g>
			<g>
				<g>
					<polygon class="st3" points="-255,385.5 -256.2,385.5 -256.6,384.4 -256.9,385.5 -258.2,385.5 -257.2,386.2 -257.6,387.4 
						-256.6,386.7 -255.6,387.4 -256,386.2 					"/>
				</g>
			</g>
		</g>
		<g>
			<g>
				<g>
					<polygon class="st3" points="-258.7,381.2 -259.9,381.2 -260.3,380.1 -260.7,381.2 -261.9,381.2 -260.9,381.9 -261.3,383.1 
						-260.3,382.4 -259.3,383.1 -259.7,381.9 					"/>
				</g>
			</g>
			<g>
				<g>
					<polygon class="st3" points="-250.7,381.2 -251.9,381.2 -252.3,380.1 -252.6,381.2 -253.9,381.2 -252.9,381.9 -253.3,383.1 
						-252.3,382.4 -251.3,383.1 -251.7,381.9 					"/>
				</g>
			</g>
			<g>
				<g>
					<polygon class="st3" points="-242.6,381.2 -243.9,381.2 -244.2,380.1 -244.6,381.2 -245.8,381.2 -244.9,381.9 -245.3,383.1 
						-244.2,382.4 -243.2,383.1 -243.6,381.9 					"/>
				</g>
			</g>
		</g>
		<g>
			<g>
				<g>
					<polygon class="st3" points="-246.4,394.1 -247.6,394.1 -248,393 -248.3,394.1 -249.6,394.1 -248.6,394.8 -249,396 -248,395.3 
						-247,396 -247.4,394.8 					"/>
				</g>
			</g>
			<g>
				<g>
					<polygon class="st3" points="-263,394.1 -264.2,394.1 -264.6,393 -265,394.1 -266.2,394.1 -265.2,394.8 -265.6,396 
						-264.6,395.3 -263.6,396 -264,394.8 					"/>
				</g>
			</g>
			<g>
				<g>
					<polygon class="st3" points="-255,394.1 -256.2,394.1 -256.6,393 -256.9,394.1 -258.2,394.1 -257.2,394.8 -257.6,396 
						-256.6,395.3 -255.6,396 -256,394.8 					"/>
				</g>
			</g>
		</g>
		<g>
			<g>
				<polygon class="st3" points="-263,376.9 -264.2,376.9 -264.6,375.8 -265,376.9 -266.2,376.9 -265.2,377.6 -265.6,378.8 
					-264.6,378.1 -263.6,378.8 -264,377.6 				"/>
			</g>
		</g>
		<g>
			<g>
				<polygon class="st3" points="-255,376.9 -256.2,376.9 -256.6,375.8 -256.9,376.9 -258.2,376.9 -257.2,377.6 -257.6,378.8 
					-256.6,378.1 -255.6,378.8 -256,377.6 				"/>
			</g>
		</g>
		<g>
			<g>
				<polygon class="st3" points="-246.9,376.9 -248.2,376.9 -248.5,375.8 -248.9,376.9 -250.2,376.9 -249.2,377.6 -249.6,378.8 
					-248.5,378.1 -247.5,378.8 -247.9,377.6 				"/>
			</g>
		</g>
	</g>
</g>
</svg>
