<?xml version="1.0" encoding="utf-8"?>
<!-- Generator: Adobe Illustrator 19.0.0, SVG Export Plug-In . SVG Version: 6.00 Build 0)  -->
<svg version="1.1" id="Layer_1" xmlns="http://www.w3.org/2000/svg" xmlns:xlink="http://www.w3.org/1999/xlink" x="0px" y="0px"
	 viewBox="-269 374 72 46" style="enable-background:new -269 374 72 46;" xml:space="preserve">
<style type="text/css">
	.st0{clip-path:url(#SVGID_2_);}
	.st1{fill:#FFFFFF;}
	.st2{fill:#0038A8;}
	.st3{fill:#FCD116;}
</style>
<g>
	<defs>
		<path id="SVGID_1_" d="M-204,420H-262c-3.8,0-7-3.1-7-7V381c0-3.8,3.1-7,7-7h58.1c3.8,0,7,3.1,7,7V413
			C-197,416.9-200.1,420-204,420z"/>
	</defs>
	<clipPath id="SVGID_2_">
		<use xlink:href="#SVGID_1_"  style="overflow:visible;"/>
	</clipPath>
	<g class="st0">
		<g>
			<rect x="-269.7" y="372.6" class="st1" width="73.3" height="48.9"/>
		</g>
		<g>
			<g>
				<rect x="-242.5" y="378" class="st2" width="46.2" height="5.4"/>
			</g>
			<g>
				<rect x="-242.5" y="388.9" class="st2" width="46.2" height="5.4"/>
			</g>
			<g>
				<rect x="-269.7" y="399.7" class="st2" width="73.3" height="5.4"/>
			</g>
			<g>
				<rect x="-269.7" y="410.6" class="st2" width="73.3" height="5.4"/>
			</g>
		</g>
		<g>
			<g>
				<g id="t">
					<g id="s">
						<g transform="rotate(22.5)">
							<g>
								<path class="st3" d="M49.4,529.9l12.2,8.1c-21.7,35.3,2.7,40.7-16.3,57c8.1-19-8.1-13.6-8.1-46.2"/>
								<path d="M44.5,596.2L45,595c4-9.4,2-12.7-1-17.7c-3-5-7.2-12-7.2-28.3l0-0.3l0.6,0l0,0.3c0,16.2,4.1,23,7.1,28
									c3,5,5,8.3,1.5,17.1c7.8-7.1,7.2-12.1,6.2-19c-1.1-8.2-2.5-18.3,8.9-36.9L48.9,530l0.3-0.5L62,538l-0.2,0.2
									c-11.4,18.5-10,28.6-9,36.7c1,7.3,1.7,12.6-7.4,20.4L44.5,596.2z"/>
							</g>
							<g>
								<path d="M45.5,595.3l-0.4-0.4c6.1-6.8,4.6-12.9,2.3-22.1c-2.1-8.5-5.1-20.2-2.4-37.5l0.6,0.1c-2.6,17.2,0.1,28.3,2.4,37.3
									C50.2,581.7,51.9,588.2,45.5,595.3z"/>
							</g>
						</g>
						<g>
							<path class="st3" d="M-151.6,484.3h16.3l-16.3,89.6l-16.3-89.6H-151.6V574"/>
							<path d="M-151.6,575.6l-16.7-91.6h33.3l-0.1,0.4L-151.6,575.6z M-151.3,484.6v86l15.6-86H-151.3z M-167.5,484.6l15.6,86v-86
								H-167.5z"/>
						</g>
					</g>
					<g transform="rotate(45)">
						<g id="s_1_">
							<g transform="rotate(22.5)">
								<g>
									<path class="st3" d="M378.9,468.8l2.9,14.4c-40.3,9.6-26.9,30.7-51.9,28.8c19.2-7.7,3.8-15.4,26.9-38.4"/>
									<path d="M382.1,483.4l-0.3,0.1c-21.2,5-27.3,13.1-32.3,19.6c-4.5,5.9-7.7,10.1-19.6,9.2l-1.3-0.1l1.2-0.5
										c9.5-3.8,10.4-7.5,11.8-13.2c1.4-5.7,3.4-13.5,15-25.1l0.2-0.2l0.4,0.4l-0.2,0.2c-11.5,11.5-13.4,19.2-14.8,24.8
										c-1.4,5.6-2.4,9.4-11,13.2c10.6,0.5,13.6-3.5,17.8-9c5-6.6,11.2-14.7,32.4-19.8l-2.9-14.4l0.6-0.1L382.1,483.4z"/>
								</g>
								<g>
									<path d="M372.3,470c-14,10.3-19.9,20.1-24.7,28.1c-4.8,8-8.2,13.7-17.7,14.2l0-0.6c9.2-0.5,12.4-5.8,17.2-14
										c4.5-7.5,10.7-17.9,24.8-28.2L372.3,470z"/>
								</g>
							</g>
							<g>
								<path class="st3" d="M191.6,565l11.5,11.5l-74.9,51.9l51.9-74.9L191.6,565l-63.4,63.4"/>
								<path d="M203.6,576.6l-0.3,0.2l-76.3,52.8l53-76.6L203.6,576.6z M130.8,626.2l71.9-49.8l-11.1-11.1L130.8,626.2z
									 M130.4,625.8l60.8-60.8l-11.1-11.1L130.4,625.8z"/>
							</g>
						</g>
					</g>
				</g>
				<g id="u">
					<g id="t_1_">
						<g id="s_2_">
							<g transform="rotate(22.5)">
								<g>
									<path class="st3" d="M20.8,509.5l-8.1,12.2c-35.3-21.7-40.7,2.7-57-16.3c19,8.1,13.6-8.1,46.2-8.1"/>
									<path d="M12.8,522.2l-0.2-0.2c-18.5-11.4-28.6-10-36.7-9c-7.3,1-12.6,1.7-20.4-7.4l-0.8-1l1.2,0.5c9.4,4,12.7,2,17.7-1
										c5-3,12-7.2,28.3-7.2l0.3,0l0,0.6l-0.3,0c-16.2,0-23,4.1-28,7.1c-5,3-8.3,5-17.1,1.5c7.1,7.8,12.1,7.2,19,6.2
										c8.2-1.1,18.3-2.5,36.9,8.9l8.2-12.2l0.5,0.3L12.8,522.2z"/>
								</g>
								<g>
									<path d="M15.4,505.8c-17.2-2.6-28.3,0.1-37.3,2.4c-9,2.3-15.5,3.9-22.6-2.5l0.4-0.4c6.8,6.1,12.9,4.6,22.1,2.3
										c8.5-2.1,20.2-5.1,37.5-2.4L15.4,505.8z"/>
								</g>
							</g>
							<g>
								<path class="st3" d="M-151.6,484.3v16.3l-89.6-16.3l89.6-16.3V484.3h-89.6"/>
								<path d="M-151.3,501l-0.4-0.1l-91.3-16.6l91.6-16.7V501z M-237.9,484.6l86,15.6v-15.6H-237.9z M-237.9,484h86v-15.6
									L-237.9,484z"/>
							</g>
						</g>
						<g transform="rotate(90)">
							<g id="s_3_">
								<g transform="rotate(22.5)">
									<g>
										<path class="st3" d="M579,148l-14.4,2.9C555,110.5,533.9,124,535.8,99c7.7,19.2,15.4,3.8,38.4,26.9"/>
										<path d="M574.6,125.9l-0.4,0.4l-0.2-0.2c-11.5-11.5-19.2-13.4-24.8-14.8c-5.6-1.4-9.4-2.4-13.2-11
											c-0.5,10.6,3.5,13.7,9,17.8c6.6,5,14.7,11.2,19.8,32.4l14.4-2.9l0.1,0.6l-15,3l-0.1-0.3c-5-21.2-13.1-27.3-19.6-32.3
											c-5.9-4.5-10.1-7.7-9.2-19.6l0.1-1.3l0.5,1.2c0.1,0.2,0.1,0.4,0.2,0.5c3.7,9,7.4,9.9,13,11.3c5.7,1.4,13.5,3.4,25.1,15
											L574.6,125.9z"/>
									</g>
									<g>
										<path d="M578.3,141.1l-0.5,0.4c-10.3-14-20.1-19.9-28.1-24.7c-8-4.8-13.7-8.2-14.2-17.7l0.6,0c0.5,9.2,5.8,12.4,14,17.2
											C557.6,120.8,567.9,127,578.3,141.1z"/>
									</g>
								</g>
								<g>
									<path class="st3" d="M491.4,379.3l-11.5,11.5L428,315.9l74.9,51.9L491.4,379.3L428,315.9"/>
									<path d="M503.4,367.8l-23.6,23.6l-0.2-0.3l-52.8-76.3L503.4,367.8z M491.4,378.9l11.1-11.1l-71.9-49.8L491.4,378.9z
										 M479.9,390.4l11.1-11.1l-60.8-60.8L479.9,390.4z"/>
								</g>
							</g>
						</g>
					</g>
				</g>
				<g>
					<g transform="scale(0.11)">
						<g id="t_2_">
							<g id="s_4_">
								<g transform="rotate(22.5)">
									<g>
										<path class="st3" d="M-811.6,4109.6l-12.2-8.1c21.7-35.3-2.7-40.7,16.3-57c-8.1,19,8.1,13.6,8.1,46.2"/>
										<path d="M-810.8,4113.4l-16.7-11.1l1.4-2.2c11-17.8,9.7-27.4,8.6-35.1c-1-7.4-1.9-13.9,8.2-22.5l8.9-7.6l-4.6,10.8
											c-3.5,8.2-2.1,10.7,0.8,15.5c3.2,5.3,7.5,12.5,7.5,29.6l0,2.7l-5.5,0l0-2.7c0-15.5-3.7-21.8-6.7-26.8
											c-1.7-2.8-3-5.2-3.5-8c-0.6,2.6-0.2,5.2,0.2,8.4c1.1,7.8,2.5,18.4-8,36.5l12.3,8.2L-810.8,4113.4z"/>
									</g>
									<g>
										<path d="M-804.8,4104.6l-5.4-0.8c2.6-16.7-0.2-27.6-2.4-36.3c-2.3-9.4-4.2-16.8,3-24.8l4.1,3.6c-5.3,5.9-4,10.8-1.8,19.8
											C-805.1,4074.8-802.1,4086.8-804.8,4104.6z"/>
									</g>
								</g>
								<g>
									<path class="st3" d="M-2328.1,3510.3h-16.3l16.3-89.6l16.3,89.6H-2328.1v-89.6"/>
									<path d="M-2308.5,3513.1h-39.1l19.6-107.6L-2308.5,3513.1z M-2325.3,3507.6h10.3l-10.3-56.7V3507.6z M-2341.1,3507.6h10.3
										v-56.7L-2341.1,3507.6z"/>
								</g>
							</g>
							<g transform="rotate(45)">
								<g id="s_5_">
									<g transform="rotate(22.5)">
										<g>
											<path class="st3" d="M2370.4,3597.3l-2.9-14.4c40.3-9.6,26.9-30.7,51.9-28.8c-19.2,7.7-3.8,15.4-26.9,38.4"/>
											<path d="M2431.3,3552.2l-10.9,4.4c-8.3,3.3-9,6.1-10.4,11.6c-1.5,6-3.5,14.2-15.6,26.2l-1.9,1.9l-3.9-3.9l1.9-1.9
												c11-11,12.8-18,14.2-23.7c0.8-3.2,1.6-5.8,3.2-8.2c-2.2,1.4-3.8,3.5-5.8,6.1c-4.8,6.3-11.2,14.8-31.5,20.1l2.9,14.5
												l-5.3,1.1l-3.9-19.7l2.6-0.6c20.3-4.8,26.2-12.6,30.9-18.8c4.6-6,8.5-11.1,21.8-10.1L2431.3,3552.2z"/>
										</g>
										<g>
											<path d="M2419.6,3556.8c-7.9,0.4-10.5,4.8-15.3,12.8c-4.6,7.7-11,18.3-25.5,29l-3.2-4.4c13.6-10,19.4-19.6,24-27.4
												c5-8.3,8.9-14.9,19.7-15.4L2419.6,3556.8z"/>
										</g>
									</g>
									<g>
										<path class="st3" d="M792.4,4243.7l-11.5-11.5l74.9-51.9l-51.9,74.9L792.4,4243.7l63.4-63.4"/>
										<path d="M804.3,4259.4l-27.7-27.7l89.9-62.3L804.3,4259.4z M796.2,4243.7l7.3,7.3l32.8-47.4L796.2,4243.7z M792.4,4239.8
											l40.1-40.1l-47.3,32.8L792.4,4239.8z"/>
									</g>
								</g>
							</g>
						</g>
						<g id="u_1_">
							<g id="t_3_">
								<g id="s_6_">
									<g transform="rotate(22.5)">
										<g>
											<path class="st3" d="M-783.1,4130l8.1-12.2c35.3,21.7,40.7-2.7,57,16.3c-19-8.1-13.6,8.1-46.2,8.1"/>
											<path d="M-708.2,4141.1l-10.8-4.6c-8.2-3.5-10.7-2.1-15.5,0.8c-5.3,3.2-12.5,7.5-29.6,7.5l-2.7,0l0-5.5l2.7,0
												c15.5,0,21.8-3.7,26.8-6.7c2.8-1.7,5.2-3,8-3.5c-2.6-0.6-5.2-0.2-8.4,0.2c-7.8,1.1-18.4,2.5-36.5-8l-8.2,12.3l-4.5-3
												l11.1-16.7l2.2,1.4c17.8,11,27.4,9.7,35.1,8.6c7.4-1,13.9-1.9,22.5,8.2L-708.2,4141.1z"/>
										</g>
										<g>
											<path d="M-719.7,4136.1c-5.9-5.3-10.8-4-19.8-1.8c-8.7,2.2-20.7,5.2-38.5,2.4l0.8-5.4c16.7,2.6,27.6-0.2,36.3-2.3
												c9.4-2.3,16.8-4.2,24.8,3L-719.7,4136.1z"/>
										</g>
									</g>
									<g>
										<path class="st3" d="M-2328.1,3510.3V3494l89.6,16.3l-89.6,16.3V3510.3h89.6"/>
										<path d="M-2330.8,3529.9v-39.1l107.6,19.6L-2330.8,3529.9z M-2325.3,3513.1v10.3l56.7-10.3H-2325.3z M-2325.3,3507.6h56.7
											l-56.7-10.3V3507.6z"/>
									</g>
								</g>
								<g transform="rotate(180)">
									<g id="s_7_">
										<g transform="rotate(22.5)">
											<g>
												<path class="st3" d="M1129-4005.6l14.4-2.9c9.6,40.3,30.7,26.9,28.8,51.9c-7.7-19.2-15.4-3.8-38.4-26.9"/>
												<path d="M1125.8-4007.8l19.7-3.9l0.6,2.6c4.8,20.3,12.6,26.2,18.7,30.9c6,4.6,11.1,8.5,10.1,21.8l-0.9,11.7l-4.4-10.9
													c-3.3-8.3-6.1-9-11.6-10.4c-6-1.5-14.2-3.5-26.2-15.6l-1.9-1.9l3.9-3.9l1.9,1.9c11,11,18,12.8,23.7,14.2
													c3.2,0.8,5.8,1.6,8.2,3.2c-1.4-2.2-3.5-3.8-6.1-5.8c-6.3-4.8-14.8-11.2-20.1-31.5l-14.5,2.9L1125.8-4007.8z"/>
											</g>
											<g>
												<path d="M1132.2-4000.5c10,13.6,19.6,19.4,27.4,24c8.3,5,14.8,8.9,15.4,19.7l-5.4,0.3c-0.4-7.9-4.8-10.5-12.8-15.3
													c-7.7-4.6-18.3-11-29-25.5L1132.2-4000.5z"/>
											</g>
										</g>
										<g>
											<path class="st3" d="M2562.9-3289.7l11.5-11.5l51.9,74.9l-74.9-51.9L2562.9-3289.7l63.4,63.4"/>
											<path d="M2574.8-3305.4l62.3,89.9l-89.9-62.3L2574.8-3305.4z M2606.8-3249.6L2574-3297l-7.3,7.3L2606.8-3249.6z
												 M2602.9-3245.8l-40.1-40.1l-7.3,7.3L2602.9-3245.8z"/>
										</g>
									</g>
								</g>
							</g>
						</g>
						<g>
							<circle class="st3" cx="-2328.1" cy="3510.3" r="29.9"/>
							<path d="M-2328.1,3542.9c-18,0-32.6-14.6-32.6-32.6s14.6-32.6,32.6-32.6c18,0,32.6,14.6,32.6,32.6
								S-2310.1,3542.9-2328.1,3542.9z M-2328.1,3483.2c-15,0-27.2,12.2-27.2,27.1c0,15,12.2,27.2,27.2,27.2
								c15,0,27.1-12.2,27.1-27.2C-2300.9,3495.4-2313.1,3483.2-2328.1,3483.2z"/>
						</g>
					</g>
					<g transform="scale(0.011)">
						<g id="right">
							<g>
								<path d="M-11782.2,42943.2c-172.8,197.6-271.6-148.1-888.9-148.1c-617.2,0-716,370.4-814.8,296.3
									c-98.8-74,518.5-518.5,716.1-543.2C-12572.3,42523.4-12004.4,42721-11782.2,42943.2 M-12498.2,43165.4
									c172.8,148.1,24.7,469.1-148.2,469.1s-493.8-296.3-345.7-493.8"/>
							</g>
							<g>
								<path d="M-13313.1,43387.6c24.7-296.3,271.6-345.7,666.7-345.7c395,0,567.9,296.3,716,370.4c-172.8,0-321-246.9-716-246.9
									c-395.1,0-395.1,0-666.7,246.9 M-13239,43461.7c98.8-148.2,222.2,148.2,493.8,148.2s419.8-74.1,592.6-197.6
									c172.8-123.4-246.9,296.3-518.5,296.3C-12942.7,43708.6-13313.1,43560.5-13239,43461.7"/>
							</g>
							<g>
								<path d="M-12399.4,43609.9c321-172.8,123.4-419.8,0-469.1C-12350.1,43190.1-12152.6,43437-12399.4,43609.9
									 M-13782.2,45091.3c148.2,0,197.5-49.4,395.1-49.4s666.6,271.6,938.3,172.8c-567.9,222.3-345.7,74.1-1333.4,74.1h-123.4
									 M-12350.1,45437c-98.7-172.9-74-123.5-271.6-395.1C-12424.2,45190.1-12374.8,45264.2-12350.1,45437 M-13782.2,45683.9
									c617.3,0,518.5-123.4,1333.4-469.1c-592.6,74.1-716.1,271.6-1333.4,271.6h-123.4 M-13782.2,44770.4
									c172.9,0,222.3-123.4,419.8-123.4c197.5,0,469.1,74,592.6,172.8c24.7,24.7-74.1-197.5-271.7-222.2
									c-197.5-24.7-123.4-345.7-345.6-395.1c0,98.8,74,74.1,98.8,222.2c0,123.5-222.2,123.5-271.6,0
									c49.4,197.6-98.8,197.6-222.3,197.6"/>
							</g>
						</g>
						<g transform="scale(-1,1)">
							<g id="right_1_">
								<g>
									<path d="M33126.9,42943.2c172.8,197.6,271.6-148.1,888.8-148.1c617.3,0,716.1,370.4,814.9,296.3
										c98.8-74-518.5-518.5-716.1-543.2C33917.1,42523.4,33349.1,42721,33126.9,42943.2 M33842.9,43165.4
										c-172.8,148.1-24.7,469.1,148.2,469.1c172.8,0,493.8-296.3,345.6-493.8"/>
								</g>
								<g>
									<path d="M34657.8,43387.6c-24.7-296.3-271.7-345.7-666.7-345.7c-395.1,0-567.9,296.3-716.1,370.4
										c172.9,0,321-246.9,716.1-246.9c395,0,395,0,666.7,246.9 M34583.7,43461.7c-98.8-148.2-222.2,148.2-493.8,148.2
										c-271.6,0-419.8-74.1-592.6-197.6c-172.9-123.4,246.9,296.3,518.5,296.3C34287.4,43708.6,34657.8,43560.5,34583.7,43461.7"
										/>
								</g>
								<g>
									<path d="M33744.2,43609.9c-321-172.8-123.4-419.8,0-469.1C33694.8,43190.1,33497.3,43437,33744.2,43609.9 M35126.9,45091.3
										c-148.1,0-197.5-49.4-395-49.4c-197.6,0-666.7,271.6-938.3,172.8c567.9,222.3,345.7,74.1,1333.3,74.1h123.5 M33694.8,45437
										c98.8-172.9,74.1-123.5,271.6-395.1C33768.9,45190.1,33719.5,45264.2,33694.8,45437 M35126.9,45683.9
										c-617.2,0-518.5-123.4-1333.3-469.1c592.6,74.1,716.1,271.6,1333.3,271.6h123.5 M35126.9,44770.4
										c-172.8,0-222.2-123.4-419.8-123.4c-197.5,0-469.1,74-592.6,172.8c-24.7,24.7,74.1-197.5,271.6-222.2
										c197.5-24.7,123.5-345.7,345.7-395.1c0,98.8-74,74.1-98.8,222.2c0,123.5,222.2,123.5,271.6,0
										c-49.4,197.6,98.8,197.6,222.2,197.6"/>
								</g>
							</g>
						</g>
						<g>
							<path d="M-13782.2,45906.1c-123.4,0-444.4,74.1,0,74.1C-13337.7,45980.2-13658.7,45906.1-13782.2,45906.1"/>
						</g>
					</g>
				</g>
			</g>
		</g>
	</g>
</g>
</svg>
