<?xml version="1.0" encoding="utf-8"?>
<!-- Generator: Adobe Illustrator 19.0.0, SVG Export Plug-In . SVG Version: 6.00 Build 0)  -->
<svg version="1.1" id="Layer_1" xmlns="http://www.w3.org/2000/svg" xmlns:xlink="http://www.w3.org/1999/xlink" x="0px" y="0px"
	 viewBox="-269 374 72 46" style="enable-background:new -269 374 72 46;" xml:space="preserve">
<style type="text/css">
	.st0{clip-path:url(#SVGID_2_);}
	.st1{fill:#E9511D;}
	.st2{fill:#008ABE;}
	.st3{fill:#FFFFFF;}
	.st4{fill:#31AA47;}
</style>
<g>
	<defs>
		<path id="SVGID_1_" d="M-204,420H-262c-3.8,0-7-3.1-7-7V381c0-3.8,3.1-7,7-7h58.1c3.8,0,7,3.1,7,7V413
			C-197,416.9-200.1,420-204,420z"/>
	</defs>
	<clipPath id="SVGID_2_">
		<use xlink:href="#SVGID_1_"  style="overflow:visible;"/>
	</clipPath>
	<g class="st0">
		<g>
			<polygon class="st1" points="-174.9,406.3 -273,406.3 -273,388.7 -174.9,388.7 			"/>
		</g>
		<g>
			<path d="M-174.8,406.5h-98.4v-17.9h98.4V406.5z M-272.9,406.2h97.9v-17.4h-97.9V406.2z"/>
		</g>
		<g>
			<polygon class="st2" points="-174.9,388.7 -273,388.7 -273,373 -174.9,373 			"/>
		</g>
		<g>
			<path d="M-174.8,388.8h-98.4v-16h98.4V388.8z M-272.9,388.5h97.9v-15.5h-97.9V388.5z"/>
		</g>
		<g>
			<polygon class="st3" points="-174.9,405.4 -273,405.4 -273,389.7 -174.9,389.7 			"/>
		</g>
		<g>
			<path d="M-174.8,405.5h-98.4v-16h98.4V405.5z M-272.9,405.2h97.9v-15.5h-97.9V405.2z"/>
		</g>
		<g>
			<polygon class="st4" points="-174.9,422 -273,422 -273,406.3 -174.9,406.3 			"/>
		</g>
		<g>
			<path d="M-174.8,422.2h-98.4v-15.9h98.4V422.2z M-272.9,421.9h97.9v-15.4h-97.9V421.9z"/>
		</g>
		<g>
			<path class="st3" d="M-261.2,380.8c0,2.5,2.1,4.6,4.6,4.6c0.4,0,0.7,0,1.1-0.1c-1,0.9-2.3,1.4-3.7,1.4c-3.2,0-5.8-2.6-5.8-5.8
				c0-3.2,2.6-5.8,5.8-5.8c1.4,0,2.7,0.5,3.7,1.4c-0.3-0.1-0.7-0.1-1.1-0.1C-259.2,376.2-261.2,378.3-261.2,380.8L-261.2,380.8z"/>
		</g>
		<g>
			<polygon class="st3" points="-236.9,384.5 -237.2,385.3 -238.1,385.3 -237.4,385.8 -237.6,386.7 -236.9,386.2 -236.2,386.7 
				-236.5,385.8 -235.7,385.3 -236.6,385.3 			"/>
		</g>
		<g>
			<polygon class="st3" points="-240.8,384.5 -240.6,385.3 -239.7,385.3 -240.4,385.8 -240.1,386.7 -240.8,386.2 -241.6,386.7 
				-241.3,385.8 -242,385.3 -241.1,385.3 			"/>
		</g>
		<g>
			<polygon class="st3" points="-244.8,384.5 -244.5,385.3 -243.6,385.3 -244.3,385.8 -244.1,386.7 -244.8,386.2 -245.5,386.7 
				-245.2,385.8 -246,385.3 -245.1,385.3 			"/>
		</g>
		<g>
			<polygon class="st3" points="-248.7,384.5 -248.4,385.3 -247.5,385.3 -248.3,385.8 -248,386.7 -248.7,386.2 -249.5,386.7 
				-249.2,385.8 -249.9,385.3 -249,385.3 			"/>
		</g>
		<g>
			<polygon class="st3" points="-252.7,384.5 -252.9,385.3 -253.8,385.3 -253.1,385.8 -253.4,386.7 -252.7,386.2 -251.9,386.7 
				-252.2,385.8 -251.5,385.3 -252.4,385.3 			"/>
		</g>
		<g>
			<polygon class="st3" points="-236.9,374.9 -237.2,375.8 -238.1,375.8 -237.4,376.3 -237.6,377.2 -236.9,376.6 -236.2,377.2 
				-236.5,376.3 -235.7,375.8 -236.6,375.8 			"/>
		</g>
		<g>
			<polygon class="st3" points="-240.8,374.9 -240.6,375.8 -239.7,375.8 -240.4,376.3 -240.1,377.2 -240.8,376.6 -241.6,377.2 
				-241.3,376.3 -242,375.8 -241.1,375.8 			"/>
		</g>
		<g>
			<polygon class="st3" points="-244.8,374.9 -244.5,375.8 -243.6,375.8 -244.3,376.3 -244.1,377.2 -244.8,376.6 -245.5,377.2 
				-245.2,376.3 -246,375.8 -245.1,375.8 			"/>
		</g>
		<g>
			<polygon class="st3" points="-236.9,379.7 -237.2,380.5 -238.1,380.5 -237.4,381.1 -237.6,381.9 -236.9,381.4 -236.2,381.9 
				-236.5,381.1 -235.7,380.5 -236.6,380.5 			"/>
		</g>
		<g>
			<polygon class="st3" points="-240.8,379.7 -240.6,380.5 -239.7,380.5 -240.4,381.1 -240.1,381.9 -240.8,381.4 -241.6,381.9 
				-241.3,381.1 -242,380.5 -241.1,380.5 			"/>
		</g>
		<g>
			<polygon class="st3" points="-244.8,379.7 -244.5,380.5 -243.6,380.5 -244.3,381.1 -244.1,381.9 -244.8,381.4 -245.5,381.9 
				-245.2,381.1 -246,380.5 -245.1,380.5 			"/>
		</g>
		<g>
			<polygon class="st3" points="-248.7,379.7 -248.4,380.5 -247.5,380.5 -248.3,381.1 -248,381.9 -248.7,381.4 -249.5,381.9 
				-249.2,381.1 -249.9,380.5 -249,380.5 			"/>
		</g>
	</g>
</g>
</svg>
