<?xml version="1.0" encoding="utf-8"?>
<!-- Generator: Adobe Illustrator 19.0.0, SVG Export Plug-In . SVG Version: 6.00 Build 0)  -->
<svg version="1.1" id="Layer_1" xmlns="http://www.w3.org/2000/svg" xmlns:xlink="http://www.w3.org/1999/xlink" x="0px" y="0px"
	 viewBox="-269 374 72 46" style="enable-background:new -269 374 72 46;" xml:space="preserve">
<style type="text/css">
	.st0{clip-path:url(#SVGID_2_);}
	.st1{fill:#FFED00;}
	.st2{fill:#008866;}
	.st3{fill:#0062AE;}
</style>
<g>
	<defs>
		<path id="SVGID_1_" d="M-204,420H-262c-3.8,0-7-3.1-7-7V381c0-3.8,3.1-7,7-7h58.1c3.8,0,7,3.1,7,7V413
			C-197,416.9-200.1,420-204,420z"/>
	</defs>
	<clipPath id="SVGID_2_">
		<use xlink:href="#SVGID_1_"  style="overflow:visible;"/>
	</clipPath>
	<g class="st0">
		<g>
			<polygon class="st1" points="-214.2,372 -214.2,421 -251.8,421 -251.8,372 			"/>
		</g>
		<g>
			<path d="M-214.1,421.1h-37.8v-49.3h37.8V421.1z M-251.7,420.9h37.3v-48.8h-37.3V420.9z"/>
		</g>
		<g>
			<polygon class="st2" points="-234.1,394.9 -239,387.6 -243.9,394.9 -239,402.3 			"/>
		</g>
		<g>
			<path d="M-239,402.4L-239,402.4l-5-7.5l0,0l4.9-7.4l0.1,0.1l4.9,7.4l0,0L-239,402.4z M-243.8,394.9l4.8,7.2l4.8-7.2l-4.8-7.2
				L-243.8,394.9z"/>
		</g>
		<g>
			<polygon class="st2" points="-228.1,403.8 -233,396.5 -237.9,403.8 -233,411.2 			"/>
		</g>
		<g>
			<path d="M-233,411.3L-233,411.3l-5-7.5l5-7.5l0.1,0.1l4.9,7.4L-233,411.3z M-237.8,403.8l4.8,7.2l4.8-7.2l-4.8-7.2L-237.8,403.8z
				"/>
		</g>
		<g>
			<polygon class="st2" points="-231.9,394.9 -227,387.6 -222.1,394.9 -227,402.3 			"/>
		</g>
		<g>
			<path d="M-227,402.4L-227,402.4l-5-7.5l0,0l4.9-7.4l0.1,0.1l4.9,7.4l0,0L-227,402.4z M-231.8,394.9l4.8,7.2l4.8-7.2l-4.8-7.2
				L-231.8,394.9z"/>
		</g>
		<g>
			<polygon class="st3" points="-251.8,421 -251.8,372 -269.8,372 -269.8,421 			"/>
		</g>
		<g>
			<path d="M-251.7,421.1h-18.2v-49.3h18.2V421.1z M-269.6,420.9h17.7v-48.8h-17.7V420.9z"/>
		</g>
		<g>
			<polygon class="st2" points="-196.3,421 -196.3,372 -214.2,372 -214.2,421 			"/>
		</g>
		<g>
			<path d="M-196.1,421.1h-18.2v-49.3h18.2V421.1z M-214.1,420.9h17.7v-48.8h-17.7V420.9z"/>
		</g>
	</g>
</g>
</svg>
