<?xml version="1.0" encoding="utf-8"?>
<!-- Generator: Adobe Illustrator 19.0.0, SVG Export Plug-In . SVG Version: 6.00 Build 0)  -->
<svg version="1.1" id="Layer_1" xmlns="http://www.w3.org/2000/svg" xmlns:xlink="http://www.w3.org/1999/xlink" x="0px" y="0px"
	 viewBox="-269 374 72 46" style="enable-background:new -269 374 72 46;" xml:space="preserve">
<style type="text/css">
	.st0{clip-path:url(#SVGID_2_);}
	.st1{fill:#0072BB;}
	.st2{fill:#FFED00;}
	.st3{fill:#E40520;}
	.st4{fill:#FFFFFF;}
</style>
<g>
	<defs>
		<path id="SVGID_1_" d="M-204,420H-262c-3.8,0-7-3.1-7-7V381c0-3.8,3.1-7,7-7h58.1c3.8,0,7,3.1,7,7V413
			C-197,416.9-200.1,420-204,420z"/>
	</defs>
	<clipPath id="SVGID_2_">
		<use xlink:href="#SVGID_1_"  style="overflow:visible;"/>
	</clipPath>
	<g class="st0">
		<g>
			<polygon class="st1" points="-196.8,404.5 -269.2,404.5 -269.2,388.5 -196.8,388.5 			"/>
		</g>
		<g>
			<path d="M-196.7,404.7h-72.6v-16.3h72.6V404.7z M-269.1,404.4h72.1v-15.8h-72.1V404.4z"/>
		</g>
		<g>
			<polygon class="st2" points="-196.8,388.5 -269.2,388.5 -269.2,372.4 -196.8,372.4 			"/>
		</g>
		<g>
			<path d="M-196.7,388.6h-72.6v-16.3h72.6V388.6z M-269.1,388.3h72.1v-15.8h-72.1V388.3z"/>
		</g>
		<g>
			<polygon class="st3" points="-269.2,420.6 -196.8,420.6 -196.8,404.5 -269.2,404.5 			"/>
		</g>
		<g>
			<path d="M-196.7,420.8h-72.6v-16.3h72.6V420.8z M-269.1,420.5h72.1v-15.8h-72.1V420.5z"/>
		</g>
		<g>
			<polygon class="st4" points="-233,391.4 -233.4,392.6 -234.6,392.6 -233.6,393.3 -234,394.5 -233,393.8 -232,394.5 -232.4,393.3 
				-231.4,392.6 -232.6,392.6 			"/>
		</g>
		<g>
			<polygon class="st4" points="-237.9,392.3 -238.3,393.4 -239.5,393.4 -238.5,394.2 -238.9,395.3 -237.9,394.6 -236.9,395.3 
				-237.3,394.2 -236.3,393.5 -237.5,393.5 			"/>
		</g>
		<g>
			<polygon class="st4" points="-242.2,394.8 -242.6,395.9 -243.8,395.9 -242.8,396.7 -243.2,397.8 -242.2,397.1 -241.2,397.8 
				-241.6,396.6 -240.6,395.9 -241.8,395.9 			"/>
		</g>
		<g>
			<polygon class="st4" points="-245.4,398.6 -245.8,399.7 -247,399.7 -246,400.5 -246.4,401.6 -245.4,400.9 -244.4,401.6 
				-244.8,400.5 -243.8,399.7 -245,399.7 			"/>
		</g>
		<g>
			<polygon class="st4" points="-228.1,392.3 -227.7,393.4 -226.5,393.4 -227.5,394.2 -227.1,395.3 -228.1,394.6 -229.1,395.3 
				-228.7,394.2 -229.7,393.5 -228.5,393.5 			"/>
		</g>
		<g>
			<polygon class="st4" points="-223.8,394.8 -223.4,395.9 -222.2,395.9 -223.2,396.7 -222.8,397.8 -223.8,397.1 -224.8,397.8 
				-224.4,396.6 -225.4,395.9 -224.2,395.9 			"/>
		</g>
		<g>
			<polygon class="st4" points="-220.6,398.6 -220.2,399.7 -219,399.7 -220,400.5 -219.6,401.6 -220.6,400.9 -221.6,401.6 
				-221.2,400.5 -222.2,399.7 -221,399.7 			"/>
		</g>
	</g>
</g>
</svg>
