<?xml version="1.0" encoding="utf-8"?>
<!-- Generator: Adobe Illustrator 19.0.0, SVG Export Plug-In . SVG Version: 6.00 Build 0)  -->
<svg version="1.1" id="Layer_1" xmlns="http://www.w3.org/2000/svg" xmlns:xlink="http://www.w3.org/1999/xlink" x="0px" y="0px"
	 viewBox="-269 374 72 46" style="enable-background:new -269 374 72 46;" xml:space="preserve">
<style type="text/css">
	.st0{clip-path:url(#SVGID_2_);}
	.st1{fill:#FFFFFF;}
	.st2{fill:#009DCC;}
	.st3{fill:#008E5B;}
	.st4{fill:#FFED00;}
	.st5{fill:#003671;}
	.st6{fill:#D32E3F;}
</style>
<g>
	<defs>
		<path id="SVGID_1_" d="M-204,420H-262c-3.8,0-7-3.1-7-7V381c0-3.8,3.1-7,7-7h58.1c3.8,0,7,3.1,7,7V413
			C-197,416.9-200.1,420-204,420z"/>
	</defs>
	<clipPath id="SVGID_2_">
		<use xlink:href="#SVGID_1_"  style="overflow:visible;"/>
	</clipPath>
	<g class="st0">
		<g>
			<polygon class="st1" points="-196.4,421.8 -196.4,372.6 -269.8,372.6 -269.8,421.8 			"/>
		</g>
		<g>
			<path d="M-196.2,421.9h-73.6v-49.4h73.6V421.9z M-269.6,421.6h73.1v-48.9h-73.1V421.6z"/>
		</g>
		<g>
			<path class="st2" d="M-260.4,402.4c-0.5-0.5-0.9-0.9-0.6-1.7c1-3.4,1.2-4.2,2.6-8.8c0.1-0.4,0.2-0.7,0.9-1.2h-3.4
				c0.4,0.2,0.6,0.9,0.5,1.2c-0.5,1.9-2,7-2,7s-1.5-5-2-7c-0.1-0.3,0.1-1,0.5-1.2h-3.4c0.6,0.5,0.8,0.8,0.9,1.2
				c1.4,4.6,1.6,5.3,2.6,8.8c0.2,0.8-0.1,1.2-0.6,1.7H-260.4L-260.4,402.4z"/>
		</g>
		<g>
			<path d="M-260.1,402.6h-4.7l0.2-0.2c0.6-0.5,0.8-0.9,0.6-1.6c-0.7-2.4-1-3.5-1.6-5.5c-0.3-0.9-0.6-1.9-1-3.2
				c-0.1-0.3-0.2-0.7-0.8-1.1l-0.3-0.2h3.8l0.1,0.2c-0.4,0.2-0.5,0.8-0.5,1.1c0.4,1.6,1.5,5.3,1.9,6.5c0.4-1.2,1.5-5,1.9-6.5
				c0.1-0.3-0.1-0.9-0.5-1.1l0.1-0.2h3.8l-0.3,0.2c-0.6,0.5-0.7,0.8-0.8,1.1c-0.4,1.4-0.7,2.4-1,3.2c-0.6,2-0.9,3.1-1.6,5.5
				c-0.2,0.7,0,1.1,0.6,1.6L-260.1,402.6z M-264.2,402.3h3.4c-0.4-0.4-0.7-0.9-0.4-1.6c0.7-2.4,1-3.5,1.6-5.5c0.3-0.9,0.6-1.9,1-3.2
				c0.1-0.3,0.2-0.6,0.6-1h-2.7c0.3,0.3,0.4,0.8,0.3,1.1c-0.5,1.9-2,6.9-2,7l-0.1,0.4l-0.1-0.4c0,0-1.5-5.1-2-7
				c-0.1-0.3,0-0.8,0.3-1.1h-2.7c0.5,0.4,0.6,0.8,0.6,1c0.4,1.3,0.7,2.4,1,3.2c0.6,2,0.9,3.1,1.6,5.5
				C-263.5,401.5-263.8,401.9-264.2,402.3z"/>
		</g>
		<g>
			<path class="st2" d="M-201.6,402.4c-0.6-0.3-0.9-0.8-0.9-1.7v-8.4c0-0.9,0.3-1.4,0.9-1.7h-3.6c0.6,0.3,0.9,0.8,0.9,1.7v8.4
				c0,0.9-0.3,1.4-0.9,1.7H-201.6L-201.6,402.4z"/>
		</g>
		<g>
			<path d="M-201.6,402.6h-3.6l-0.1-0.2c0.6-0.3,0.8-0.8,0.8-1.6v-8.4c0-0.8-0.3-1.2-0.8-1.6l0.1-0.2h3.6l0.1,0.2
				c-0.6,0.3-0.8,0.8-0.8,1.6v8.4c0,0.8,0.3,1.2,0.8,1.6L-201.6,402.6z M-204.9,402.3h2.8c-0.4-0.4-0.6-0.9-0.6-1.5v-8.4
				c0-0.7,0.2-1.2,0.6-1.5h-2.8c0.4,0.4,0.6,0.9,0.6,1.5v8.4C-204.3,401.5-204.5,402-204.9,402.3z"/>
		</g>
		<g>
			<polygon class="st2" points="-215.8,395.3 -215.7,400.5 -216.6,400 -219.5,411 -218.7,411.8 -220,416.4 -221,415.2 -222.5,415.7 
				-221.3,411.1 -220.2,410.8 -217.3,399.8 -218.4,399.8 			"/>
		</g>
		<g>
			<path d="M-219.9,416.7l-1.1-1.3l-1.6,0.6l1.3-4.9l1-0.3l2.8-10.8l-1.1,0l0.1-0.2l2.9-4.9l0.1,5.9l-1-0.5l-2.8,10.8l0.8,0.7
				L-219.9,416.7z M-220.9,415l0.9,1.1l1.1-4.3l-0.8-0.7l0-0.1l2.9-11.2l0.9,0.5l0-4.6l-2.3,3.9l1,0l-3,11.3l-1,0.3l-1.1,4.3
				L-220.9,415z"/>
		</g>
		<g>
			<polygon class="st2" points="-211.3,393.7 -212.6,399.3 -213.5,398.5 -219.5,409.6 -218.9,410.6 -221.4,415.2 -222.2,413.6 
				-223.9,413.8 -221.4,409.2 -220.2,409.2 -214.2,398.1 -215.3,397.8 			"/>
		</g>
		<g>
			<path d="M-221.4,415.5l-0.8-1.7l-1.9,0.2l2.7-4.9l1.2,0l5.9-10.8l-1.2-0.3l4.5-4.6l-1.5,6.3l-0.9-0.8l-5.9,10.8l0.6,1l0,0.1
				L-221.4,415.5z M-222.1,413.5l0.7,1.4l2.4-4.4l-0.6-1l0-0.1l6.1-11.2l0.8,0.8l1.2-5l-3.5,3.7l1.1,0.3l-0.1,0.1l-6.1,11.1l-1.2,0
				l-2.4,4.4L-222.1,413.5z"/>
		</g>
		<g>
			<polygon class="st2" points="-209.2,397.4 -211.7,402.5 -212.3,401.5 -220.5,410.8 -220.1,411.9 -223.5,415.8 -223.9,414.2 
				-225.7,414 -222.2,410 -221.1,410.3 -212.9,401 -213.9,400.5 			"/>
		</g>
		<g>
			<path d="M-223.6,416.1l-0.4-1.8l-1.9-0.2l3.6-4.1l1.1,0.3l8-9.1l-1.1-0.5l5.3-3.5l-2.8,5.7l-0.7-1l-8,9.1l0.4,1.1L-223.6,416.1z
				 M-225.4,413.9l1.6,0.2l0.4,1.5l3.2-3.7l-0.4-1.1l0-0.1l8.3-9.4l0.6,0.9l2.2-4.5l-4.2,2.7l1,0.5l-8.3,9.5l-1.1-0.3L-225.4,413.9z
				"/>
		</g>
		<g>
			<path class="st3" d="M-246.9,407.3c-0.8-1.1,0.4-1.3,0.8-1.6c0.3-0.3,0.7-1,0.5-1.9c-0.1,0.5-0.7,0.8-1.1,1.1
				c-0.5,0.2-0.7,1.3-0.6,1.6c-0.4-0.8,0.1-1.7,0.5-2.2c0.4-0.5,0.4-1.6,0.1-2.4c0,0.5-0.4,1.1-0.9,1.5c-0.4,0.4-0.1,1.4-0.5,1.8
				c-0.6-0.9-0.8-1.5-0.3-1.9c1.2-0.8,1-2.3,0.5-3.1c0.1,0.6-0.6,1.2-0.7,1.3c-0.5,0.5-0.1,1.4-0.5,2c-0.9-1.8-0.3-2.5,0.2-2.9
				s0.6-1.6,0-2.4c0,0.4-0.3,1.1-0.8,1.4c-0.6,0.4-0.3,1.4-0.5,1.9c-0.6-1.2-0.5-2.4,0.3-3c0.4-0.3,0.5-1.5,0.1-2.2
				c0.2,0.7-0.8,0.8-1.1,1.6c-0.2,0.6,0.2,1.2-0.1,1.9c-0.2-0.4-0.3-0.9-0.5-1.2c-0.2-0.5-0.1-0.9,0.6-2c0.7-1.1,0.1-2.2-0.4-2.8
				c0,0.6-0.8,1.4-0.6,2.1c0.2,0.7,0.1,1.2-0.1,1.7c-0.6-1.2-0.5-2.4-0.5-3c0-0.6-0.5-1.5-1.5-2.2c-0.2,0.5-0.6,2.1,0.1,2.6
				s1.2,1.5,1.5,2.3c-0.7-0.1-1.1-0.9-1.5-1.4c-0.4-0.7-1.4-1.1-2.1-1c0.3,1.1,0.9,2,2,2.3c0.8,0.3,1.7,0.4,2,1.1
				c0.1,0.3,0.3,1,0.5,1.3c-0.9-0.2-0.9-1.4-1.9-1.4c-0.4,0-1.1-0.1-1.5-0.4c0.3,0.9,0.9,1.8,1.7,1.9c0.9,0.1,1.9,0.2,2.5,1.7
				c-0.5-0.5-1.6-0.6-2-0.5c-0.4,0.1-1.1,0.1-1.5-0.1c0.3,0.7,1.3,1.5,2.2,1.3c0.8-0.2,1.5-0.3,2.3,1.4c-0.4-0.6-1.4-0.9-1.9-0.7
				c-0.4,0.2-1.2,0.3-1.8,0.2c0.4,0.8,1.5,1.2,2.3,1.1c0.9-0.2,1.6,0.2,2.1,1.2c-0.7-0.7-1.8-0.5-2.1-0.3c-0.4,0.1-1,0.2-1.7,0
				c0.5,0.8,1.5,1.5,2.9,1.1c1-0.3,1.3,0.2,1.5,0.5c-0.4-0.1-1.3-0.3-1.8,0.1c-0.3,0.2-0.8,0.5-1.4,0.5c0.5,0.5,1.8,0.5,2.3,0.3
				c0.6-0.2,1-0.6,1.4,0.1c0.6,1.2,2.5,4.4,3.1,5c0.3-0.4,0.9,0.2,1.5-0.3C-244.4,410.8-246.4,408.1-246.9,407.3L-246.9,407.3z"/>
		</g>
		<g>
			<path d="M-245.1,412.3L-245.1,412.3c-0.8-0.8-2.7-4-3.3-5.2c-0.2-0.4-0.4-0.3-0.9-0.1c-0.1,0-0.2,0.1-0.3,0.1
				c-0.6,0.2-1.9,0.3-2.5-0.3l-0.2-0.2l0.3,0c0.6,0.1,1.1-0.3,1.3-0.5c0.3-0.2,0.8-0.3,1.5-0.2c-0.2-0.2-0.5-0.3-1.2-0.2
				c-1.8,0.5-2.7-0.7-3-1.2l-0.2-0.3l0.4,0.1c0.6,0.2,1.2,0.1,1.6,0c0.1,0,1-0.3,1.8,0c-0.4-0.5-0.9-0.7-1.6-0.6
				c-0.9,0.2-2-0.3-2.4-1.1l-0.1-0.3l0.3,0.1c0.5,0.1,1.3,0,1.7-0.1c0.3-0.1,0.9-0.1,1.4,0.2c-0.6-0.9-1.2-0.8-1.8-0.6
				c-0.9,0.2-2-0.6-2.3-1.4l-0.1-0.3l0.3,0.1c0.4,0.2,1.1,0.2,1.5,0.1c0.3-0.1,1.1,0,1.7,0.3c-0.6-0.9-1.3-1-2-1.1l-0.1,0
				c-1-0.2-1.6-1.4-1.8-2l-0.1-0.4l0.4,0.3c0.4,0.3,1.1,0.4,1.4,0.4c0.6,0,0.9,0.4,1.2,0.8c0.2,0.2,0.3,0.4,0.5,0.6
				c-0.1-0.1-0.1-0.3-0.2-0.5c-0.1-0.2-0.1-0.4-0.2-0.5c-0.2-0.6-0.8-0.7-1.5-0.9c-0.1,0-0.3-0.1-0.4-0.1c-1-0.3-1.6-1.1-2-2.4
				l0-0.1l0.1,0c0.8-0.1,1.8,0.3,2.2,1l0.1,0.2c0.3,0.5,0.6,1,1.1,1.2c-0.3-0.8-0.8-1.6-1.4-2c-0.7-0.6-0.3-2.2-0.1-2.7l0.1-0.1
				l0.1,0.1c0.9,0.6,1.6,1.5,1.6,2.3c0,0.1,0,0.3,0,0.4c0,0.6,0,1.5,0.4,2.3c0.1-0.4,0.1-0.8,0-1.4c-0.1-0.4,0.1-0.9,0.3-1.4
				c0.1-0.3,0.3-0.6,0.3-0.8l0-0.3l0.2,0.3c0.4,0.5,1.1,1.7,0.4,2.9c-0.7,1.1-0.8,1.4-0.6,1.9c0,0.1,0.1,0.2,0.1,0.3
				c0.1,0.2,0.1,0.3,0.2,0.5c0-0.2,0-0.4,0-0.6c0-0.3-0.1-0.6,0.1-0.9c0.1-0.4,0.4-0.6,0.7-0.8c0.3-0.2,0.5-0.4,0.4-0.7l0.2-0.1
				c0.5,0.8,0.4,2-0.1,2.3c-0.6,0.5-0.8,1.5-0.4,2.5c0-0.1,0-0.2,0-0.3c0-0.5,0-1.1,0.5-1.3c0.4-0.2,0.7-0.9,0.7-1.3v-0.4l0.2,0.3
				c0.6,0.9,0.5,2.1,0,2.6c-0.4,0.4-1,0.9-0.3,2.5c0.1-0.2,0.1-0.4,0.1-0.6c0-0.4,0-0.9,0.4-1.2c0.2-0.2,0.8-0.7,0.7-1.2l0.2-0.1
				c0.5,0.9,0.7,2.5-0.5,3.3c-0.1,0.1-0.2,0.2-0.2,0.3c-0.1,0.3,0.1,0.7,0.5,1.2c0.1-0.2,0.1-0.4,0.1-0.6c0-0.4,0.1-0.8,0.3-1
				c0.4-0.3,0.9-0.9,0.8-1.4l0.2-0.1c0.3,0.8,0.4,2-0.1,2.5c-0.2,0.2-0.5,0.7-0.6,1.1c0.1-0.3,0.3-0.6,0.5-0.7c0.7-0.3,1-0.6,1.1-1
				l0.2,0c0.3,1-0.2,1.8-0.5,2.1c-0.1,0.1-0.2,0.1-0.3,0.2c-0.3,0.1-0.5,0.3-0.6,0.5c0,0.2,0,0.4,0.2,0.7l0,0
				c0.5,0.8,2.5,3.5,3.3,4.6l0.1,0.1l-0.1,0.1c-0.4,0.3-0.7,0.3-1,0.2c-0.2,0-0.4,0-0.5,0.1L-245.1,412.3z M-248.8,406.6
				c0.2,0,0.4,0.1,0.6,0.4c0.7,1.4,2.3,4.2,3,4.9c0.2-0.1,0.4-0.1,0.6-0.1c0.2,0,0.5,0.1,0.7-0.1c-0.9-1.1-2.7-3.7-3.2-4.5
				c-0.2-0.3-0.3-0.6-0.2-0.9c0.1-0.4,0.5-0.5,0.7-0.7c0.1-0.1,0.2-0.1,0.3-0.2c0.3-0.2,0.6-0.8,0.5-1.4c-0.2,0.3-0.5,0.5-1.1,0.8
				c-0.4,0.2-0.6,1.2-0.5,1.4l-0.2,0.1c-0.5-0.8,0-1.8,0.5-2.3c0.3-0.3,0.3-1.1,0.2-1.8c-0.2,0.4-0.5,0.8-0.8,1.1
				c-0.2,0.2-0.2,0.5-0.2,0.8c0,0.3-0.1,0.7-0.3,0.9l-0.1,0.1l-0.1-0.1c-0.5-0.7-0.7-1.2-0.6-1.6c0-0.2,0.2-0.4,0.4-0.5
				c0.9-0.6,0.9-1.7,0.6-2.6c-0.2,0.4-0.6,0.8-0.7,0.9c-0.3,0.2-0.3,0.6-0.3,1c0,0.3,0,0.7-0.2,1l-0.1,0.2l-0.1-0.2
				c-1-2-0.2-2.7,0.2-3.1c0.4-0.4,0.5-1.2,0.2-1.9c-0.1,0.4-0.4,0.9-0.8,1.1c-0.3,0.2-0.4,0.7-0.4,1.1c0,0.3,0,0.5-0.1,0.7l-0.1,0.3
				l-0.1-0.2c-0.6-1.2-0.5-2.5,0.3-3.2c0.3-0.2,0.4-1,0.2-1.6c-0.1,0.2-0.3,0.3-0.4,0.4c-0.2,0.2-0.5,0.4-0.6,0.7
				c-0.1,0.3-0.1,0.5,0,0.8c0,0.3,0.1,0.7-0.1,1.1l-0.1,0.3l-0.1-0.3c-0.1-0.3-0.2-0.6-0.4-0.9c0-0.1-0.1-0.2-0.1-0.3
				c-0.2-0.6-0.1-1,0.6-2.1c0.6-0.9,0.2-1.8-0.2-2.4c-0.1,0.2-0.1,0.4-0.2,0.6c-0.2,0.4-0.4,0.8-0.3,1.2c0.2,0.7,0.1,1.3-0.1,1.8
				l-0.1,0.2l-0.1-0.2c-0.5-1-0.5-2-0.5-2.7c0-0.1,0-0.3,0-0.4c0-0.5-0.4-1.3-1.3-2c-0.2,0.6-0.4,1.9,0.1,2.3
				c0.6,0.5,1.2,1.5,1.5,2.4l0.1,0.2l-0.2,0c-0.7-0.1-1.2-0.8-1.5-1.3l-0.1-0.2c-0.4-0.6-1.1-1-1.8-0.9c0.4,1.2,1,1.8,1.8,2.1
				c0.1,0,0.3,0.1,0.4,0.1c0.7,0.2,1.4,0.4,1.7,1.1c0.1,0.1,0.1,0.3,0.2,0.5c0.1,0.3,0.2,0.6,0.3,0.7l0.1,0.2l-0.3-0.1
				c-0.5-0.1-0.7-0.5-0.9-0.8c-0.3-0.3-0.5-0.6-1-0.7c-0.2,0-0.8,0-1.2-0.2c0.2,0.6,0.7,1.4,1.4,1.5l0.1,0c0.9,0.1,1.8,0.3,2.4,1.7
				l-0.2,0.1c-0.4-0.4-1.5-0.6-1.9-0.5c-0.3,0.1-0.9,0.1-1.3,0c0.4,0.5,1.2,1.1,1.9,0.9c0.9-0.2,1.6-0.2,2.4,1.4l-0.2,0.1
				c-0.3-0.5-1.3-0.9-1.7-0.7c-0.4,0.2-1,0.3-1.5,0.2c0.5,0.6,1.3,0.9,2,0.8c1-0.2,1.7,0.2,2.2,1.2l-0.2,0.1c-0.6-0.6-1.5-0.5-2-0.3
				c-0.4,0.1-0.9,0.2-1.4,0.1c0.4,0.5,1.2,1.1,2.6,0.8c1-0.3,1.3,0.2,1.6,0.5c0,0,0.1,0.1,0.1,0.1l0.3,0.3l-0.4-0.1
				c-0.8-0.2-1.3-0.2-1.6,0.1c-0.1,0.1-0.6,0.4-1.1,0.5c0.5,0.3,1.4,0.2,1.9,0c0.1,0,0.2-0.1,0.3-0.1
				C-249.2,406.7-249,406.6-248.8,406.6z"/>
		</g>
		<g>
			<path class="st4" d="M-222.1,404.6c0.6,0.5,1,1.1,1.4,1.3c0.4,0.2,0.8,0.3,1.6,0.2c0.5-0.1,1.1-0.1,1.6,0.4
				c0.5,0.5,0.7,0.8,0.7,1.4c0,0.6-0.1,0.9-0.4,0.9c0,0.3-0.2,0.5-0.7,0.4c0,0.4-0.7,0.5-1.3,0.2l0.5-0.6c0.1-0.2-0.5-1-0.9-0.8
				l-0.6,1.1c-0.2-0.2-0.4-0.6-0.4-0.9c0-0.5-0.3-1.1-0.7-1.1c-0.4-0.1-0.7-0.3-1.2-0.6c-0.8-0.5-1.6-0.6-2.1-1
				C-225.2,404.8-223.1,402.8-222.1,404.6L-222.1,404.6z"/>
		</g>
		<g>
			<path d="M-218.5,409.7c-0.2,0-0.5-0.1-0.8-0.2l-0.1-0.1l0.6-0.7c0,0,0-0.2-0.2-0.4c-0.1-0.1-0.4-0.3-0.5-0.2l-0.7,1.2l-0.1-0.1
				c-0.3-0.2-0.5-0.6-0.5-1c0-0.5-0.3-1-0.6-1c-0.3-0.1-0.6-0.2-1-0.4c-0.1-0.1-0.2-0.1-0.3-0.2c-0.4-0.2-0.7-0.3-1.1-0.5
				c-0.4-0.1-0.7-0.3-1-0.5l0,0c-0.1-0.2-0.1-0.5,0.1-0.9c0.3-0.5,0.9-1,1.6-1c0,0,0,0,0,0c0.3,0,0.8,0.1,1.1,0.8
				c0.3,0.2,0.5,0.5,0.7,0.7c0.2,0.2,0.4,0.5,0.6,0.5c0.4,0.2,0.7,0.3,1.6,0.2c0.5-0.1,1.1-0.1,1.7,0.4c0.6,0.5,0.7,0.8,0.8,1.5
				c0,0.6-0.1,0.9-0.4,1c0,0.1-0.1,0.2-0.2,0.3c-0.1,0.1-0.3,0.2-0.5,0.2c0,0.1-0.1,0.2-0.2,0.2
				C-218.1,409.6-218.3,409.7-218.5,409.7z M-219,409.3c0.4,0.1,0.7,0.1,0.9,0c0.1,0,0.1-0.1,0.1-0.2l0-0.2l0.2,0
				c0.2,0,0.3,0,0.4-0.1c0,0,0.1-0.1,0.1-0.2l0-0.1l0.1,0c0.2,0,0.3-0.3,0.3-0.8c0-0.5-0.1-0.8-0.7-1.3c-0.5-0.5-1-0.4-1.5-0.3
				c-0.9,0.1-1.3,0-1.7-0.2c-0.2-0.1-0.4-0.3-0.7-0.6c-0.2-0.2-0.4-0.5-0.7-0.7l0,0c-0.2-0.4-0.5-0.6-0.9-0.6c0,0,0,0,0,0
				c-0.6,0-1.1,0.5-1.3,0.9c-0.1,0.2-0.2,0.5-0.1,0.6c0.3,0.2,0.6,0.3,0.9,0.4c0.3,0.1,0.7,0.3,1.1,0.5c0.1,0.1,0.2,0.1,0.3,0.2
				c0.4,0.2,0.6,0.3,0.9,0.4c0.5,0.1,0.8,0.7,0.8,1.2c0,0.2,0.1,0.5,0.3,0.7l0.6-1l0,0c0.3-0.1,0.7,0.1,0.9,0.3
				c0.2,0.2,0.3,0.5,0.2,0.6L-219,409.3z"/>
		</g>
		<g>
			<path class="st4" d="M-241.5,405.5c-0.5,0.4-1.2,0.5-2,1.1c-0.5,0.3-0.8,0.5-1.2,0.6c-0.4,0.1-0.6,0.6-0.7,1.2
				c0,0.3-0.1,0.7-0.3,0.9l-0.7-1c-0.5-0.2-1.1,0.5-0.9,0.8l0.4,0.7c-0.7,0.3-1.2,0.1-1.2-0.2c-0.4,0.1-0.7-0.1-0.7-0.4
				c-0.3,0-0.5-0.3-0.5-0.9c0-0.6,0.1-0.9,0.6-1.4c0.5-0.5,1.1-0.5,1.6-0.4c0.9,0.1,1.3-0.1,1.6-0.3c0.4-0.2,0.7-0.9,1.3-1.4
				C-242.5,403.3-240.8,404.4-241.5,405.5L-241.5,405.5z"/>
		</g>
		<g>
			<path d="M-247.5,409.9c-0.2,0-0.3,0-0.5-0.1c-0.1-0.1-0.2-0.1-0.2-0.2c-0.2,0-0.4,0-0.5-0.1c-0.1-0.1-0.2-0.2-0.2-0.3
				c-0.3-0.1-0.5-0.4-0.5-1c0-0.6,0.2-1,0.7-1.5c0.6-0.6,1.2-0.5,1.7-0.5c0.9,0.1,1.2-0.1,1.6-0.3c0.2-0.1,0.3-0.3,0.5-0.6
				c0.2-0.3,0.4-0.5,0.7-0.8c1-0.8,2-0.7,2.6-0.2c0.4,0.3,0.5,0.8,0.2,1.3l0,0c-0.3,0.2-0.6,0.4-1,0.5c-0.3,0.1-0.7,0.3-1,0.5
				c-0.1,0.1-0.2,0.1-0.3,0.2c-0.4,0.2-0.6,0.4-1,0.5c-0.3,0.1-0.5,0.6-0.6,1c0,0.3-0.1,0.8-0.3,1l-0.1,0.1l-0.8-1.1
				c-0.2-0.1-0.4,0.1-0.6,0.2c-0.1,0.2-0.2,0.3-0.2,0.4l0.5,0.8l-0.1,0.1C-247.1,409.8-247.3,409.9-247.5,409.9z M-248,409.3l0,0.2
				c0,0.1,0,0.1,0.1,0.2c0.1,0.1,0.4,0.1,0.8,0l-0.3-0.6c-0.1-0.2,0-0.5,0.2-0.7c0.2-0.2,0.6-0.4,0.9-0.3l0,0l0.6,0.9
				c0.1-0.2,0.1-0.4,0.1-0.7c0-0.6,0.3-1.2,0.8-1.3c0.3-0.1,0.5-0.2,0.9-0.4c0.1-0.1,0.2-0.1,0.3-0.2c0.4-0.2,0.8-0.4,1.1-0.5
				c0.4-0.2,0.7-0.3,0.9-0.5c0.2-0.3,0.1-0.7-0.2-0.9c-0.5-0.4-1.4-0.5-2.3,0.2c-0.3,0.2-0.5,0.5-0.7,0.7c-0.2,0.3-0.4,0.5-0.6,0.6
				c-0.4,0.2-0.8,0.4-1.7,0.3c-0.5,0-1-0.1-1.5,0.4c-0.5,0.5-0.6,0.8-0.6,1.3c0,0.5,0.1,0.8,0.3,0.8l0.1,0l0,0.1
				c0,0.1,0,0.2,0.1,0.2c0.1,0.1,0.3,0.1,0.4,0.1L-248,409.3z"/>
		</g>
		<g>
			<path class="st4" d="M-240.8,390.1c-1.1-1-2,0.2-2.5-0.1c-0.4-0.3-0.2-0.8,0.1-1c1-0.9,1-2.7-0.2-3.3c-2.1-1.2-7.6-2.5-10.2-3.1
				c-2.6-0.6-7.9-2.1-9.3-2.7c-2-0.8-2.1,1.1-0.8,1.7c-0.3,0.5-0.1,1.3,1,1.8c-0.5,0.9,0.3,1.5,2.6,2.1c-0.4,0.9,0.8,1.9,3.1,2.4
				c-0.4,0.9,0.4,1.5,2.8,1.9c-0.4,0.3-0.2,1.4,2.4,1.7c-0.6,0.4,0,1.4,3.1,1.5c-0.6,0.7-0.1,1.7,0.9,1.6c-0.5,0.6,0.1,1.9,1.5,1.6
				c0,0.7,1.1,1.1,1.7,0.6c0,0.8,1.6,1,2,0.4c0.2,0.6,1.5,0.4,2,0c0,0.9-0.3,1.9-1.2,2.6c-0.8,0.7-1.9,1.7-2,2.9
				c-0.1,1.3-0.3,1.8-0.7,2c0.4,0.1,1.4-0.2,1.6-0.6c-0.1,0.3,0,0.9-0.2,1.3c0.8-0.2,1-0.8,1.4-0.9c-0.1,0.5-0.2,1.2-0.1,1.5
				c0.1-0.1,0.1-0.3,0.5-0.4c0.4-0.1,0.8-0.5,1-1.1c0.5-1.5,2.1-1.4,2.6-2.3L-240.8,390.1L-240.8,390.1z"/>
		</g>
		<g>
			<path d="M-242,406.4l-0.1-0.2c-0.1-0.3-0.1-0.9,0-1.3c-0.1,0-0.1,0.1-0.2,0.2c-0.2,0.2-0.5,0.5-1,0.6l-0.2,0.1l0.1-0.2
				c0.1-0.2,0.1-0.4,0.1-0.6c0-0.1,0-0.1,0-0.2c-0.4,0.3-1.1,0.4-1.4,0.4l-0.4-0.1l0.3-0.2c0.4-0.3,0.6-0.7,0.7-1.9
				c0.1-0.9,0.7-1.9,2.1-3c0.9-0.7,1.1-1.6,1.1-2.2c-0.4,0.2-1.1,0.3-1.5,0.2c-0.2-0.1-0.3-0.1-0.4-0.2c-0.3,0.3-1,0.3-1.4,0.2
				c-0.4-0.1-0.6-0.3-0.7-0.6c-0.3,0.2-0.7,0.2-1.1,0c-0.3-0.1-0.5-0.4-0.6-0.7c-0.6,0.1-1.2-0.1-1.4-0.6c-0.2-0.3-0.2-0.7-0.1-1
				c-0.4,0-0.8-0.3-1-0.6c-0.2-0.3-0.1-0.7,0-1c-2.1-0.1-3.1-0.7-3.2-1.2c0-0.1,0-0.3,0-0.4c-1.9-0.3-2.3-1-2.4-1.3
				c0-0.2,0-0.3,0-0.4c-1.6-0.3-2.5-0.7-2.7-1.2c-0.1-0.2-0.1-0.5,0-0.7c-1.6-0.4-2.7-1-3-1.7c-0.1-0.2-0.1-0.5-0.1-0.7
				c-1.6-0.5-2.4-1-2.6-1.5c-0.1-0.2-0.1-0.4,0-0.7c-0.7-0.3-0.9-0.7-1-1c-0.1-0.3-0.1-0.6,0-0.8c-0.7-0.4-0.9-1.1-0.7-1.6
				c0.2-0.4,0.7-0.7,1.8-0.3c1.4,0.6,6.7,2.1,9.3,2.6c1.3,0.3,7.9,1.7,10.3,3.1c0.5,0.3,0.9,0.9,1,1.5c0.1,0.8-0.2,1.5-0.8,2
				c-0.1,0.1-0.2,0.3-0.2,0.5c0,0.1,0.1,0.2,0.2,0.3c0.2,0.1,0.4,0,0.7-0.1c0.5-0.2,1.1-0.4,1.9,0.2l0,0l0,0l3.1,12.4l0,0
				c-0.2,0.3-0.6,0.5-1.1,0.8c-0.6,0.3-1.3,0.6-1.6,1.5c-0.2,0.6-0.6,1.1-1.1,1.2c-0.3,0.1-0.3,0.2-0.4,0.3c0,0-0.1,0.1-0.1,0.1
				L-242,406.4z M-241.7,404.5l-0.1,0.2c-0.1,0.4-0.2,0.9-0.1,1.2c0.1-0.1,0.2-0.2,0.5-0.3c0.3-0.1,0.7-0.5,0.9-1
				c0.3-0.9,1.1-1.3,1.7-1.6c0.4-0.2,0.7-0.4,0.9-0.6l-3-12.3c-0.6-0.5-1.1-0.3-1.6-0.2c-0.3,0.1-0.6,0.2-0.9,0.1
				c-0.2-0.1-0.3-0.3-0.3-0.5c0-0.3,0.2-0.6,0.3-0.7c0.5-0.4,0.8-1.1,0.7-1.8c-0.1-0.6-0.4-1.1-0.8-1.3c-1.8-1-6.7-2.3-10.2-3.1
				c-2.7-0.6-7.9-2.1-9.4-2.7c-0.7-0.3-1.3-0.2-1.4,0.2c-0.2,0.4,0.1,1,0.7,1.3l0.1,0.1l-0.1,0.1c-0.1,0.2-0.1,0.5-0.1,0.7
				c0.1,0.4,0.5,0.7,1,0.9l0.1,0.1l-0.1,0.1c-0.1,0.2-0.2,0.4-0.1,0.6c0.2,0.5,1,0.9,2.6,1.4l0.1,0l-0.1,0.1c-0.1,0.2-0.1,0.4,0,0.7
				c0.3,0.6,1.4,1.2,3,1.6l0.2,0l-0.1,0.1c-0.1,0.2-0.1,0.5,0,0.6c0.2,0.5,1.1,0.8,2.8,1.1l0.3,0l-0.2,0.2c-0.1,0.1-0.1,0.2-0.1,0.4
				c0.1,0.2,0.4,0.9,2.4,1.2l0.3,0l-0.3,0.2c-0.1,0.1-0.2,0.1-0.1,0.3c0.1,0.3,0.9,0.9,3.2,1l0.3,0l-0.2,0.2
				c-0.2,0.3-0.3,0.6-0.2,0.9c0.1,0.3,0.5,0.5,1,0.5l0.3,0l-0.2,0.2c-0.2,0.2-0.2,0.6,0,0.9c0.1,0.2,0.5,0.6,1.3,0.5l0.1,0l0,0.1
				c0,0.2,0.2,0.5,0.5,0.6c0.4,0.2,0.7,0.1,1-0.1l0.2-0.2v0.3c0,0.3,0.3,0.5,0.5,0.5c0.5,0.2,1.1,0.1,1.3-0.2l0.1-0.2l0.1,0.2
				c0,0.1,0.2,0.2,0.3,0.3c0.4,0.1,1.1,0,1.5-0.3l0.2-0.2v0.3c0,0.6-0.2,1.8-1.2,2.7c-1.3,1-1.9,1.9-2,2.8c-0.1,1-0.2,1.6-0.5,1.9
				c0.4-0.1,1-0.3,1.1-0.6l0.2,0.1c-0.1,0.1-0.1,0.3-0.1,0.5c0,0.2,0,0.3-0.1,0.5c0.3-0.1,0.5-0.3,0.7-0.5c0.2-0.2,0.3-0.3,0.5-0.3
				L-241.7,404.5z"/>
		</g>
		<g>
			<path class="st4" d="M-225.3,390.1c1.1-1,2,0.2,2.5-0.1c0.4-0.3,0.2-0.8-0.1-1c-1-0.9-1-2.7,0.2-3.3c2.1-1.2,7.6-2.5,10.2-3.1
				c2.6-0.6,7.9-2.1,9.3-2.7c2-0.8,2.1,1.1,0.8,1.7c0.3,0.5,0.1,1.3-1,1.8c0.5,0.9-0.3,1.5-2.6,2.1c0.4,0.9-0.8,1.9-3.1,2.4
				c0.4,0.9-0.4,1.5-2.8,1.9c0.4,0.3,0.2,1.4-2.4,1.7c0.6,0.4,0,1.4-3.1,1.5c0.6,0.7,0.1,1.7-0.9,1.6c0.5,0.6-0.1,1.9-1.5,1.6
				c0,0.7-1.1,1.1-1.7,0.6c0,0.8-1.6,1-2,0.4c-0.2,0.6-1.5,0.4-2,0c0,0.9,0.3,1.9,1.2,2.6c0.8,0.7,1.9,1.7,2,2.9
				c0.1,1.3,0.3,1.8,0.7,2c-0.4,0.1-1.4-0.2-1.6-0.6c0.1,0.3,0,0.9,0.2,1.3c-0.8-0.2-1-0.8-1.4-0.9c0.1,0.5,0.2,1.2,0.1,1.5
				c-0.1-0.1-0.1-0.3-0.5-0.4c-0.4-0.1-0.8-0.5-1-1.1c-0.5-1.5-2.1-1.4-2.6-2.3L-225.3,390.1L-225.3,390.1z"/>
		</g>
		<g>
			<path d="M-224.1,406.4l-0.1-0.1c0,0-0.1-0.1-0.1-0.1c-0.1-0.1-0.1-0.2-0.4-0.3c-0.4-0.1-0.8-0.5-1.1-1.2c-0.3-0.8-1-1.2-1.6-1.5
				c-0.4-0.2-0.8-0.4-1.1-0.8l0,0l0-0.1l3.1-12.4l0,0c0.7-0.7,1.4-0.4,1.9-0.2c0.3,0.1,0.5,0.2,0.7,0.1c0.1-0.1,0.2-0.2,0.2-0.3
				c0-0.2-0.1-0.4-0.2-0.5c-0.6-0.5-0.8-1.2-0.8-2c0.1-0.7,0.4-1.2,1-1.5c2.4-1.3,9-2.8,10.3-3.1c2.7-0.6,7.9-2.1,9.3-2.6
				c1-0.4,1.6-0.1,1.8,0.3c0.2,0.5,0,1.2-0.7,1.6c0.1,0.2,0.1,0.5,0,0.8c-0.1,0.3-0.4,0.7-1,1c0.1,0.2,0.1,0.5,0,0.7
				c-0.2,0.5-1,1-2.6,1.5c0.1,0.2,0.1,0.5-0.1,0.7c-0.3,0.7-1.4,1.3-3,1.7c0.1,0.3,0.1,0.5,0,0.7c-0.3,0.5-1.1,0.9-2.7,1.2
				c0.1,0.1,0.1,0.3,0,0.4c-0.1,0.3-0.5,1-2.4,1.3c0.1,0.1,0.1,0.2,0,0.4c-0.1,0.5-1,1.1-3.2,1.2c0.2,0.3,0.2,0.7,0,1
				c-0.2,0.4-0.5,0.6-1,0.6c0.1,0.3,0.1,0.7-0.1,1c-0.3,0.5-0.8,0.7-1.4,0.6c-0.1,0.3-0.3,0.5-0.6,0.7c-0.4,0.2-0.8,0.2-1.1,0
				c-0.1,0.3-0.3,0.5-0.7,0.6c-0.5,0.1-1.1,0.1-1.4-0.2c-0.1,0.1-0.2,0.2-0.4,0.2c-0.4,0.1-1.1,0-1.5-0.2c0,0.6,0.3,1.5,1.1,2.2
				c1.3,1.1,2,2.1,2.1,3c0.1,1.2,0.2,1.7,0.7,1.9l0.3,0.2l-0.4,0.1c-0.3,0-1-0.1-1.4-0.4c0,0.1,0,0.1,0,0.2c0,0.2,0,0.5,0.1,0.6
				l0.1,0.2l-0.2-0.1c-0.5-0.1-0.8-0.4-1-0.6c-0.1-0.1-0.1-0.1-0.2-0.2c0.1,0.5,0.1,1,0,1.3L-224.1,406.4z M-228.2,402.4
				c0.2,0.3,0.6,0.4,0.9,0.6c0.6,0.3,1.3,0.7,1.7,1.6c0.2,0.5,0.6,0.9,0.9,1c0.2,0.1,0.4,0.2,0.5,0.3c0-0.4,0-0.8-0.1-1.2l-0.1-0.2
				l0.2,0c0.2,0,0.3,0.2,0.5,0.3c0.2,0.2,0.4,0.4,0.7,0.5c0-0.2,0-0.3-0.1-0.5c0-0.2,0-0.4-0.1-0.5l0.2-0.1c0.2,0.3,0.7,0.5,1.1,0.6
				c-0.3-0.3-0.4-0.9-0.5-1.9c-0.1-0.8-0.7-1.8-2-2.8c-1.1-0.9-1.2-2-1.2-2.7v-0.3l0.2,0.2c0.3,0.3,1.1,0.4,1.5,0.3
				c0.2-0.1,0.3-0.1,0.3-0.3l0.1-0.2l0.1,0.2c0.2,0.3,0.8,0.4,1.3,0.2c0.2-0.1,0.5-0.2,0.5-0.5v-0.3l0.2,0.2c0.3,0.2,0.7,0.3,1,0.1
				c0.3-0.1,0.5-0.4,0.5-0.6l0-0.1l0.1,0c0.8,0.2,1.2-0.3,1.3-0.5c0.2-0.3,0.2-0.7,0-0.9l-0.2-0.2l0.3,0c0.5,0.1,0.8-0.2,1-0.5
				c0.2-0.3,0.1-0.7-0.2-0.9l-0.2-0.2l0.3,0c2.3-0.1,3.1-0.7,3.2-1c0-0.1,0-0.2-0.1-0.3l-0.3-0.2l0.3,0c2-0.3,2.4-1,2.4-1.2
				c0-0.1,0-0.3-0.1-0.4l-0.2-0.2l0.3,0c1.6-0.3,2.5-0.7,2.8-1.1c0.1-0.2,0.1-0.4,0-0.6l-0.1-0.1l0.2,0c1.6-0.4,2.7-0.9,3-1.6
				c0.1-0.2,0.1-0.4,0-0.7l-0.1-0.1l0.1,0c1.6-0.5,2.4-0.9,2.6-1.4c0.1-0.2,0-0.4-0.1-0.6l-0.1-0.1l0.1-0.1c0.5-0.2,0.9-0.5,1-0.9
				c0.1-0.2,0.1-0.5-0.1-0.7l-0.1-0.1l0.1-0.1c0.6-0.3,0.9-0.9,0.7-1.3c-0.2-0.4-0.7-0.5-1.4-0.2c-1.4,0.6-6.7,2.1-9.4,2.7
				c-3.6,0.8-8.4,2-10.2,3.1c-0.5,0.3-0.8,0.8-0.8,1.3c-0.1,0.7,0.2,1.4,0.7,1.8c0.2,0.1,0.3,0.4,0.3,0.7c0,0.2-0.1,0.4-0.3,0.5
				c-0.3,0.2-0.6,0.1-0.9-0.1c-0.5-0.2-1-0.4-1.6,0.2L-228.2,402.4z"/>
		</g>
		<g>
			<path class="st4" d="M-238.1,389c0.4-0.2,0.8-0.8,0.9-1c-0.3,0-0.7-0.1-0.8-0.2c0.5,0,1-1.1,1.7-1.5c-0.1,0-0.5-0.1-0.5-0.2
				c1.4-0.7,0.6-1.7,1.9-2.6c0.8-0.6,0-1.2-0.4-1.4c-0.3-0.2-0.8-0.2-0.7-0.9c0.1-0.4,0.4-0.6,0.7-0.6c0.2-0.6,0.8-0.8,1.8-0.8
				c1.2,0,2.6,0.5,2.8,2.3c0.1,0.7,0.3,2.3,1.2,3c-0.2,0.1-0.7,0.1-0.9,0c0.3,0.9,1.4,1.6,2,1.8c-0.1,0.1-0.7,0.3-1,0.3
				c0.4,0.3,0.9,1,1.2,1.5L-238.1,389L-238.1,389z"/>
		</g>
		<g>
			<path d="M-238.1,389.1l-0.1-0.2c0.3-0.1,0.6-0.5,0.7-0.8c-0.3,0-0.6-0.1-0.7-0.3l-0.1-0.2l0.2,0c0.2,0,0.5-0.3,0.8-0.6
				c0.2-0.2,0.4-0.5,0.6-0.7c-0.1,0-0.3-0.1-0.3-0.2l-0.1-0.1l0.2-0.1c0.7-0.4,0.8-0.8,1-1.3c0.1-0.4,0.3-0.9,0.9-1.4
				c0.2-0.1,0.3-0.3,0.3-0.4c0-0.2-0.2-0.5-0.6-0.7c-0.1,0-0.1-0.1-0.2-0.1c-0.3-0.1-0.7-0.3-0.6-0.9c0.1-0.5,0.4-0.7,0.8-0.7
				c0.3-0.7,1.1-0.8,1.9-0.8c0.6,0,2.6,0.2,2.9,2.4l0,0.1c0.1,0.7,0.3,2.2,1.1,2.8l0.2,0.1l-0.2,0.1c-0.1,0.1-0.5,0.1-0.8,0.1
				c0.4,0.7,1.3,1.3,1.8,1.5l0.1,0.1l-0.1,0.1c-0.1,0.2-0.5,0.3-0.8,0.4c0.4,0.4,0.8,0.9,1,1.4l0.1,0.2L-238.1,389.1z M-237,387.9
				l-0.1,0.2c0,0,0,0.1-0.1,0.1c-0.1,0.2-0.3,0.5-0.5,0.7l9.2-0.1c-0.3-0.5-0.7-1-1-1.3l-0.3-0.2h0.4c0.2,0,0.5-0.1,0.7-0.2
				c-0.7-0.3-1.6-1-1.9-1.8l-0.1-0.3l0.3,0.1c0.2,0.1,0.4,0.1,0.6,0c-0.7-0.7-0.9-2.1-1-2.8l0-0.1c-0.3-2-2-2.2-2.7-2.2
				c-1,0-1.5,0.2-1.7,0.7l0,0.1l-0.1,0c-0.2,0-0.5,0.1-0.6,0.5c-0.1,0.4,0.1,0.5,0.4,0.6c0.1,0,0.2,0.1,0.3,0.1
				c0.3,0.2,0.7,0.5,0.7,0.9c0,0.2-0.1,0.5-0.4,0.7c-0.5,0.4-0.7,0.8-0.8,1.2c-0.1,0.4-0.3,0.9-0.9,1.3c0.1,0,0.2,0.1,0.3,0.1h0.5
				l-0.4,0.2c-0.3,0.2-0.6,0.5-0.8,0.8c-0.2,0.3-0.5,0.5-0.7,0.7c0.1,0,0.3,0.1,0.5,0.1L-237,387.9z"/>
		</g>
		<g>
			<path class="st4" d="M-236.1,381.2c-1.1,0.1-1.9,0-1.9,1.7c0.7-0.7,0.9-0.3,1.4-0.5c0.8-0.2,1.6,0.6,1.3,1.2
				c0.8-0.2,1.2-1.2,0.4-1.5C-235.5,382-236.2,381.6-236.1,381.2L-236.1,381.2z"/>
		</g>
		<g>
			<path d="M-235.5,383.8l0.1-0.2c0.1-0.2,0-0.5-0.1-0.6c-0.2-0.3-0.7-0.5-1.1-0.4c-0.2,0-0.3,0-0.5,0c-0.3,0-0.5,0-0.9,0.4
				l-0.2,0.2v-0.3c0-1.7,0.8-1.8,1.8-1.8l0.3,0l0,0.2c-0.1,0.3,0.4,0.6,1.2,0.8c0.3,0.1,0.5,0.4,0.5,0.7c0,0.4-0.4,0.9-0.9,1
				L-235.5,383.8z M-236.3,382.3c0.4,0,0.8,0.2,1.1,0.5c0.2,0.2,0.2,0.4,0.2,0.6c0.3-0.1,0.5-0.4,0.5-0.7c0-0.1,0-0.4-0.3-0.5
				c-0.5-0.2-1.3-0.5-1.4-0.9l0,0c-1,0-1.5,0.1-1.6,1.3c0.4-0.3,0.6-0.3,0.9-0.3c0.1,0,0.2,0,0.4,0
				C-236.5,382.3-236.4,382.3-236.3,382.3z"/>
		</g>
		<g>
			<path class="st4" d="M-225.2,408.6c-1.1,0.8-3-2.1-4-5.5C-226.3,405.1-224.1,407.8-225.2,408.6L-225.2,408.6z"/>
		</g>
		<g>
			<path d="M-225.6,408.9c-0.1,0-0.2,0-0.3-0.1c-1.1-0.4-2.5-2.7-3.4-5.7l-0.1-0.3l0.3,0.2c2.6,1.8,4.4,3.8,4.4,5
				c0,0.3-0.1,0.6-0.3,0.7l0,0C-225.3,408.8-225.4,408.9-225.6,408.9z M-229,403.4c0.9,2.7,2.2,4.9,3.2,5.2c0.2,0.1,0.4,0,0.6-0.1
				s0.3-0.3,0.2-0.5C-225,407-226.7,405.1-229,403.4z"/>
		</g>
		<g>
			<path class="st4" d="M-225.8,409.5c-1.2,0.8-3.1-2.2-4.1-5.8C-226.9,405.8-224.6,408.6-225.8,409.5L-225.8,409.5z"/>
		</g>
		<g>
			<path d="M-226.2,409.7c-0.1,0-0.2,0-0.3-0.1c-1.1-0.4-2.5-2.9-3.4-6l-0.1-0.3l0.3,0.2c2.6,1.9,4.5,4.1,4.5,5.3
				c0,0.3-0.1,0.6-0.4,0.8l0,0C-225.9,409.7-226.1,409.7-226.2,409.7z M-229.7,404c0.9,2.8,2.2,5.1,3.2,5.5c0.2,0.1,0.4,0.1,0.6-0.1
				l0,0c0.2-0.1,0.3-0.3,0.3-0.5C-225.6,407.8-227.3,405.8-229.7,404z"/>
		</g>
		<g>
			<path class="st4" d="M-226.9,410.5c-1.2,0.8-2.9-2.5-3.8-6.3C-227.8,406.6-225.6,409.7-226.9,410.5L-226.9,410.5z"/>
		</g>
		<g>
			<path d="M-227.3,410.8c-0.1,0-0.2,0-0.3-0.1c-1.3-0.5-2.5-3.7-3.2-6.5l-0.1-0.4l0.3,0.2c2.5,2.1,4.3,4.5,4.2,5.7
				c0,0.3-0.2,0.6-0.4,0.8l0,0C-227,410.7-227.1,410.8-227.3,410.8z M-230.5,404.5c0.7,3.1,1.9,5.5,2.9,5.9c0.2,0.1,0.4,0.1,0.6-0.1
				l0,0c0.2-0.1,0.3-0.3,0.3-0.6C-226.6,408.7-228.2,406.5-230.5,404.5z"/>
		</g>
		<g>
			<path class="st4" d="M-227.8,411.6c-1.4,0.8-2.9-2.9-3.5-6.9C-228.5,407.4-226.5,410.8-227.8,411.6L-227.8,411.6z"/>
		</g>
		<g>
			<path d="M-228.2,411.8c-0.1,0-0.3,0-0.4-0.1c-1.3-0.6-2.4-4.1-2.9-7.1l-0.1-0.4l0.3,0.3c2.5,2.4,4.2,5.1,4,6.4
				c0,0.3-0.2,0.6-0.5,0.8l0,0C-227.9,411.8-228.1,411.8-228.2,411.8z M-231.2,405c0.6,3.3,1.7,6,2.7,6.5c0.2,0.1,0.4,0.1,0.6,0l0,0
				c0.2-0.1,0.3-0.3,0.4-0.6C-227.4,409.7-228.9,407.3-231.2,405z"/>
		</g>
		<g>
			<path class="st4" d="M-228.9,412.6c-1.5,0.7-2.9-3.2-3.3-7.5C-229.4,408.2-227.5,411.9-228.9,412.6L-228.9,412.6z"/>
		</g>
		<g>
			<path d="M-229.3,412.8c-0.2,0-0.3,0-0.5-0.1c-1.4-0.8-2.3-4.5-2.6-7.6l0-0.4l0.3,0.3c2.5,2.7,4,5.6,3.8,6.9
				c-0.1,0.4-0.3,0.6-0.6,0.8l0,0C-229,412.8-229.1,412.8-229.3,412.8z M-232,405.5c0.4,3.5,1.4,6.4,2.4,7c0.2,0.1,0.4,0.1,0.7,0
				l0,0c0.2-0.1,0.4-0.3,0.4-0.6C-228.3,410.7-229.8,408-232,405.5z"/>
		</g>
		<g>
			<path class="st4" d="M-230.4,413.8c-1.6,0.5-2.4-3.6-2.1-7.9C-230.2,409.4-228.8,413.3-230.4,413.8L-230.4,413.8z"/>
		</g>
		<g>
			<path d="M-230.7,414c-0.2,0-0.4-0.1-0.6-0.2c-1.2-0.9-1.6-4.7-1.4-7.9l0-0.4l0.2,0.3c2.1,3.1,3.2,6.1,2.7,7.4
				c-0.1,0.3-0.3,0.6-0.7,0.7l0,0C-230.5,413.9-230.6,414-230.7,414z M-232.4,406.3c-0.1,3.5,0.4,6.5,1.4,7.3
				c0.2,0.2,0.4,0.2,0.7,0.1l0,0c0.2-0.1,0.4-0.2,0.5-0.5C-229.5,412-230.6,409.1-232.4,406.3z"/>
		</g>
		<g>
			<path class="st4" d="M-240.9,408.6c1.1,0.8,3-2.1,4-5.5C-239.8,405.1-242.1,407.8-240.9,408.6L-240.9,408.6z"/>
		</g>
		<g>
			<path d="M-240.5,408.9c-0.2,0-0.3-0.1-0.5-0.2l0,0c-0.2-0.2-0.4-0.4-0.3-0.7c0-1.2,1.8-3.2,4.4-5l0.3-0.2l-0.1,0.3
				c-0.9,3-2.3,5.3-3.4,5.7C-240.3,408.9-240.4,408.9-240.5,408.9z M-240.8,408.5c0.2,0.1,0.4,0.2,0.6,0.1c1-0.3,2.3-2.5,3.2-5.2
				c-2.3,1.7-4,3.6-4,4.6C-241.1,408.2-241,408.4-240.8,408.5L-240.8,408.5z"/>
		</g>
		<g>
			<path class="st4" d="M-240.3,409.5c1.2,0.8,3.1-2.2,4.1-5.8C-239.2,405.8-241.5,408.6-240.3,409.5L-240.3,409.5z"/>
		</g>
		<g>
			<path d="M-239.9,409.7c-0.2,0-0.3-0.1-0.5-0.2c-0.2-0.2-0.4-0.4-0.4-0.8c0-1.2,1.8-3.4,4.5-5.3l0.3-0.2l-0.1,0.3
				c-0.9,3.1-2.3,5.6-3.4,6C-239.7,409.7-239.8,409.7-239.9,409.7z M-236.4,404c-2.4,1.8-4.1,3.8-4.1,4.8c0,0.2,0.1,0.4,0.3,0.5l0,0
				c0.2,0.1,0.4,0.2,0.6,0.1C-238.6,409.1-237.3,406.8-236.4,404z"/>
		</g>
		<g>
			<path class="st4" d="M-239.2,410.5c1.2,0.8,2.9-2.5,3.8-6.3C-238.3,406.6-240.5,409.7-239.2,410.5L-239.2,410.5z"/>
		</g>
		<g>
			<path d="M-238.8,410.8c-0.2,0-0.3,0-0.5-0.1l0,0c-0.3-0.2-0.4-0.4-0.4-0.8c-0.1-1.3,1.6-3.6,4.2-5.7l0.3-0.2l-0.1,0.4
				c-0.6,2.7-1.9,5.9-3.2,6.5C-238.6,410.7-238.7,410.8-238.8,410.8z M-235.7,404.5c-2.3,2-3.9,4.2-3.8,5.3c0,0.3,0.1,0.4,0.3,0.6
				l0,0c0.2,0.1,0.4,0.1,0.6,0.1C-237.6,410.1-236.4,407.6-235.7,404.5z"/>
		</g>
		<g>
			<path class="st4" d="M-238.3,411.6c1.4,0.8,2.9-2.9,3.5-6.9C-237.6,407.4-239.6,410.8-238.3,411.6L-238.3,411.6z"/>
		</g>
		<g>
			<path d="M-237.9,411.8c-0.2,0-0.3,0-0.4-0.1l0,0c-0.3-0.2-0.4-0.4-0.5-0.8c-0.2-1.3,1.5-3.9,4-6.4l0.3-0.3l-0.1,0.4
				c-0.5,2.9-1.5,6.4-2.9,7.1C-237.6,411.8-237.8,411.8-237.9,411.8z M-234.9,405c-2.3,2.3-3.8,4.7-3.7,5.9c0,0.3,0.2,0.5,0.4,0.6
				l0,0c0.2,0.1,0.4,0.1,0.6,0C-236.6,411-235.5,408.3-234.9,405z"/>
		</g>
		<g>
			<path class="st4" d="M-237.2,412.6c1.5,0.7,2.9-3.2,3.3-7.5C-236.7,408.2-238.7,411.9-237.2,412.6L-237.2,412.6z"/>
		</g>
		<g>
			<path d="M-236.8,412.8c-0.1,0-0.3,0-0.4-0.1l0,0c-0.3-0.1-0.5-0.4-0.6-0.8c-0.3-1.4,1.3-4.2,3.8-6.9l0.3-0.3l0,0.4
				c-0.3,3.1-1.2,6.8-2.6,7.6C-236.5,412.8-236.7,412.8-236.8,412.8z M-234.1,405.5c-2.3,2.5-3.7,5.2-3.5,6.4
				c0.1,0.3,0.2,0.5,0.4,0.6l0,0c0.2,0.1,0.4,0.1,0.7,0C-235.4,411.9-234.4,409-234.1,405.5z"/>
		</g>
		<g>
			<path class="st4" d="M-235.7,413.8c1.6,0.5,2.4-3.6,2.1-7.9C-235.9,409.4-237.3,413.3-235.7,413.8L-235.7,413.8z"/>
		</g>
		<g>
			<path d="M-235.5,414c-0.1,0-0.2,0-0.3,0l0,0c-0.3-0.1-0.5-0.3-0.7-0.7c-0.5-1.3,0.7-4.4,2.7-7.4l0.2-0.3l0,0.4
				c0.2,3.1-0.2,6.9-1.4,7.9C-235.1,413.9-235.3,414-235.5,414z M-233.7,406.3c-1.9,2.8-2.9,5.7-2.5,6.9c0.1,0.3,0.3,0.4,0.5,0.5
				l0,0c0.2,0.1,0.4,0,0.6-0.1C-234.1,412.8-233.5,409.8-233.7,406.3z"/>
		</g>
		<g>
			<path class="st4" d="M-233.1,415c2,0,1.6-4.9,0-9.6C-234.7,410.2-235,415-233.1,415L-233.1,415z"/>
		</g>
		<g>
			<path d="M-233.1,415.2c-0.4,0-0.7-0.2-1-0.5c-0.9-1.3-0.6-5.1,0.8-9.3l0.1-0.3l0.1,0.3c1.4,4.1,1.8,8,0.8,9.3
				C-232.4,415-232.7,415.2-233.1,415.2z M-233.1,405.8c-1.3,3.9-1.6,7.5-0.8,8.7c0.2,0.3,0.4,0.4,0.8,0.4s0.6-0.1,0.8-0.4
				C-231.5,413.3-231.8,409.7-233.1,405.8z"/>
		</g>
		<g>
			<path class="st4" d="M-228.3,404.4c-0.8,0.6-1.9-1.2-1.2-1.7C-228.8,402.2-227.5,403.8-228.3,404.4L-228.3,404.4z"/>
		</g>
		<g>
			<path d="M-228.7,404.6c-0.1,0-0.2,0-0.3-0.1c-0.4-0.2-0.8-0.7-0.9-1.3c0-0.3,0.1-0.6,0.3-0.7c0.2-0.1,0.5-0.2,0.8,0
				c0.5,0.2,0.9,0.7,0.9,1.2c0,0.3-0.1,0.6-0.3,0.7C-228.4,404.6-228.5,404.6-228.7,404.6z M-229.2,402.7c-0.1,0-0.2,0-0.2,0.1
				c-0.2,0.1-0.2,0.3-0.2,0.5c0,0.4,0.4,0.9,0.7,1.1c0.2,0.1,0.4,0.1,0.5-0.1c0.2-0.1,0.2-0.3,0.2-0.5c0-0.4-0.4-0.8-0.8-1
				C-229,402.7-229.1,402.7-229.2,402.7z"/>
		</g>
		<g>
			<path class="st4" d="M-229,405c-0.9,0.6-2-1.3-1.3-1.8C-229.5,402.7-228.1,404.4-229,405L-229,405z"/>
		</g>
		<g>
			<path d="M-229.3,405.3c-0.1,0-0.2,0-0.4-0.1c-0.4-0.2-0.8-0.8-0.9-1.3c0-0.3,0.1-0.6,0.3-0.7c0.5-0.3,1.1,0,1.5,0.5
				c0.3,0.5,0.4,1.1,0,1.4l0,0C-229,405.2-229.2,405.3-229.3,405.3z M-229.9,403.3c-0.1,0-0.2,0-0.2,0.1c-0.2,0.1-0.2,0.3-0.2,0.5
				c0,0.5,0.4,1,0.7,1.1c0.2,0.1,0.4,0.1,0.6,0l0,0c0.4-0.3,0.2-0.8,0-1.1C-229.3,403.5-229.6,403.3-229.9,403.3z"/>
		</g>
		<g>
			<path class="st4" d="M-229.8,405.7c-0.9,0.6-1.9-1.4-1.2-1.9C-230.2,403.2-228.9,405.1-229.8,405.7L-229.8,405.7z"/>
		</g>
		<g>
			<path d="M-230.1,405.9c-0.1,0-0.2,0-0.4-0.1c-0.4-0.2-0.8-0.8-0.9-1.4c0-0.4,0.1-0.6,0.3-0.8c0.2-0.1,0.5-0.1,0.7,0
				c0.5,0.2,0.9,0.9,0.9,1.4c0,0.3-0.1,0.6-0.4,0.8l0,0C-229.9,405.9-230,405.9-230.1,405.9z M-230.7,403.8c-0.1,0-0.1,0-0.2,0.1
				c-0.2,0.1-0.2,0.4-0.2,0.6c0,0.5,0.4,1,0.7,1.2c0.2,0.1,0.4,0.1,0.5,0l0,0c0.2-0.1,0.3-0.3,0.3-0.6c0-0.4-0.4-1-0.8-1.2
				C-230.5,403.8-230.6,403.8-230.7,403.8z"/>
		</g>
		<g>
			<path class="st4" d="M-230.6,406.3c-1,0.6-1.9-1.7-1.1-2.1C-230.8,403.7-229.5,405.7-230.6,406.3L-230.6,406.3z"/>
		</g>
		<g>
			<path d="M-230.9,406.5c-0.1,0-0.3,0-0.4-0.1c-0.4-0.3-0.8-0.9-0.8-1.6c0-0.4,0.1-0.7,0.4-0.8c0.2-0.1,0.5-0.1,0.8,0
				c0.5,0.3,0.9,1,0.9,1.5c0,0.4-0.2,0.6-0.4,0.8l0,0C-230.6,406.5-230.8,406.5-230.9,406.5z M-231.4,404.2c-0.1,0-0.1,0-0.2,0.1
				c-0.2,0.1-0.3,0.4-0.3,0.6c0,0.5,0.3,1.1,0.7,1.3c0.2,0.1,0.4,0.1,0.6,0c0.2-0.1,0.3-0.3,0.3-0.6c0-0.5-0.3-1.1-0.8-1.3
				C-231.2,404.2-231.3,404.2-231.4,404.2z"/>
		</g>
		<g>
			<path class="st4" d="M-231.4,406.9c-1.1,0.5-1.9-1.9-1-2.3C-231.5,404.1-230.3,406.3-231.4,406.9L-231.4,406.9z"/>
		</g>
		<g>
			<path d="M-231.8,407.1c-0.4,0-0.7-0.3-1-0.8c-0.3-0.7-0.3-1.6,0.2-1.9c0.5-0.3,1.1,0.2,1.4,0.8c0.3,0.6,0.3,1.4-0.3,1.7l0,0
				C-231.5,407-231.6,407.1-231.8,407.1z M-232.2,404.6c-0.1,0-0.1,0-0.2,0c-0.4,0.2-0.4,1-0.1,1.5c0.2,0.4,0.6,0.8,1,0.6
				c0.5-0.2,0.4-0.9,0.2-1.4C-231.5,405-231.9,404.6-232.2,404.6z"/>
		</g>
		<g>
			<path class="st4" d="M-237.8,404.4c0.8,0.6,1.9-1.2,1.2-1.7C-237.3,402.2-238.7,403.8-237.8,404.4L-237.8,404.4z"/>
		</g>
		<g>
			<path d="M-237.4,404.6c-0.2,0-0.3-0.1-0.4-0.2c-0.2-0.2-0.3-0.4-0.3-0.7c0.1-0.5,0.5-1,0.9-1.2c0.3-0.1,0.6-0.1,0.8,0
				c0.2,0.2,0.3,0.4,0.3,0.7c-0.1,0.5-0.4,1.1-0.9,1.3C-237.2,404.6-237.3,404.6-237.4,404.6z M-236.9,402.7c-0.1,0-0.2,0-0.3,0.1
				c-0.4,0.2-0.8,0.6-0.8,1c0,0.2,0,0.4,0.2,0.5c0.2,0.1,0.3,0.1,0.5,0.1c0.4-0.2,0.7-0.6,0.7-1.1c0-0.2,0-0.4-0.2-0.5
				C-236.7,402.7-236.8,402.7-236.9,402.7z"/>
		</g>
		<g>
			<path class="st4" d="M-237.2,405c0.9,0.6,2-1.3,1.3-1.8C-236.6,402.7-238,404.4-237.2,405L-237.2,405z"/>
		</g>
		<g>
			<path d="M-236.8,405.3c-0.2,0-0.3-0.1-0.4-0.2l0,0c-0.5-0.3-0.4-1,0-1.4c0.4-0.5,1-0.9,1.5-0.5c0.2,0.2,0.3,0.4,0.3,0.7
				c-0.1,0.5-0.4,1.1-0.9,1.3C-236.6,405.3-236.7,405.3-236.8,405.3z M-237.1,404.9c0.2,0.1,0.4,0.1,0.6,0c0.4-0.2,0.7-0.7,0.7-1.1
				c0-0.2,0-0.4-0.2-0.5c-0.3-0.2-0.8,0.1-1.1,0.5C-237.3,404.2-237.5,404.7-237.1,404.9L-237.1,404.9z"/>
		</g>
		<g>
			<path class="st4" d="M-236.3,405.7c0.9,0.6,1.9-1.4,1.2-1.9S-237.2,405.1-236.3,405.7L-236.3,405.7z"/>
		</g>
		<g>
			<path d="M-236,405.9c-0.1,0-0.3,0-0.4-0.1c-0.3-0.2-0.4-0.4-0.4-0.8c0-0.5,0.5-1.1,0.9-1.4c0.3-0.1,0.5-0.1,0.7,0
				c0.2,0.2,0.3,0.4,0.3,0.8c0,0.6-0.4,1.2-0.9,1.4C-235.7,405.9-235.9,405.9-236,405.9z M-235.4,403.8c-0.1,0-0.2,0-0.3,0.1
				c-0.4,0.2-0.8,0.7-0.8,1.2c0,0.2,0.1,0.4,0.3,0.6l0,0c0.2,0.1,0.3,0.1,0.5,0c0.4-0.2,0.7-0.7,0.7-1.2c0-0.2,0-0.4-0.2-0.6
				C-235.3,403.8-235.4,403.8-235.4,403.8z"/>
		</g>
		<g>
			<path class="st4" d="M-235.6,406.3c1,0.6,1.9-1.7,1.1-2.1C-235.3,403.7-236.6,405.7-235.6,406.3L-235.6,406.3z"/>
		</g>
		<g>
			<path d="M-235.2,406.5c-0.1,0-0.3,0-0.4-0.1l0,0c-0.3-0.2-0.4-0.4-0.4-0.8c0-0.6,0.4-1.2,0.9-1.5c0.3-0.2,0.5-0.2,0.8,0
				c0.3,0.1,0.4,0.4,0.4,0.8c0,0.6-0.3,1.3-0.8,1.6C-234.9,406.5-235.1,406.5-235.2,406.5z M-235.5,406.2c0.2,0.1,0.4,0.1,0.6,0
				c0.4-0.2,0.7-0.8,0.7-1.3c0-0.2,0-0.5-0.3-0.6c-0.2-0.1-0.4,0-0.5,0c-0.4,0.2-0.8,0.8-0.8,1.3
				C-235.8,405.9-235.7,406.1-235.5,406.2L-235.5,406.2z"/>
		</g>
		<g>
			<path class="st4" d="M-234.7,406.9c1.1,0.5,1.9-1.9,1-2.3C-234.6,404.1-235.8,406.3-234.7,406.9L-234.7,406.9z"/>
		</g>
		<g>
			<path d="M-234.3,407.1c-0.1,0-0.2,0-0.4-0.1l0,0c-0.6-0.3-0.6-1.1-0.3-1.7c0.3-0.6,0.9-1.1,1.4-0.8c0.6,0.3,0.6,1.2,0.2,1.9
				C-233.6,406.8-234,407.1-234.3,407.1z M-234.6,406.7c0.4,0.2,0.8-0.1,1-0.6c0.3-0.6,0.3-1.3-0.1-1.5c-0.4-0.2-0.8,0.2-1.1,0.7
				C-235,405.9-235.1,406.5-234.6,406.7L-234.6,406.7z"/>
		</g>
		<g>
			<path class="st4" d="M-233.1,407.7c1.5,0,1.2-3,0-3C-234.3,404.7-234.5,407.7-233.1,407.7L-233.1,407.7z"/>
		</g>
		<g>
			<path d="M-233.1,407.8c-0.4,0-0.7-0.2-0.9-0.5c-0.2-0.3-0.3-0.6-0.3-1c0-0.8,0.4-1.7,1.1-1.7s1.1,0.9,1.1,1.7
				c0,0.4-0.1,0.8-0.3,1C-232.4,407.6-232.7,407.8-233.1,407.8z M-233.1,404.9c-0.6,0-0.9,0.7-0.9,1.5c0,0.3,0.1,0.7,0.2,0.9
				c0.2,0.2,0.4,0.4,0.7,0.4s0.5-0.1,0.7-0.4c0.1-0.2,0.2-0.5,0.2-0.9C-232.2,405.6-232.5,404.9-233.1,404.9z M-223.3,397.5
				C-223.4,397.5-223.4,397.5-223.3,397.5c-0.1,0-0.1-0.1-0.1-0.2c0.1-0.2,0.1-0.6,0.1-0.7c0-0.1,0-0.1,0.1-0.1c0.1,0,0.1,0,0.1,0.1
				c0,0.2,0.1,0.6-0.1,0.9C-223.2,397.5-223.3,397.5-223.3,397.5z M-221.3,397.1C-221.3,397.1-221.4,397.1-221.3,397.1
				c-0.4-0.2-0.6-0.7-0.6-1c0-0.1,0-0.1,0.1-0.1c0.1,0,0.1,0,0.1,0.1c0,0.3,0.3,0.7,0.5,0.8c0.1,0,0.1,0.1,0,0.2
				C-221.2,397.1-221.3,397.1-221.3,397.1z M-219.6,396.5C-219.6,396.5-219.6,396.5-219.6,396.5c-0.6-0.2-1-0.8-1.1-1
				c0-0.1,0-0.1,0-0.2c0.1,0,0.1,0,0.2,0c0.1,0.1,0.5,0.7,1,0.9c0.1,0,0.1,0.1,0.1,0.2C-219.5,396.5-219.6,396.5-219.6,396.5z
				 M-224.1,396.1c-0.2,0-0.4,0-0.6-0.1c-0.1,0-0.1-0.1-0.1-0.2c0-0.1,0.1-0.1,0.2-0.1c0.4,0.1,0.9,0.1,1.2-0.2
				c0.2-0.1,0.2-0.3,0.2-0.6c0-0.1,0-0.1,0.1-0.1c0.1,0,0.1,0,0.1,0.1c0,0.2,0,0.3,0,0.4c0.4,0.1,0.7,0,1-0.3
				c0.2-0.2,0.3-0.4,0.2-0.7c0,0,0,0,0-0.1c0,0,0-0.1,0-0.1c0-0.1,0.1-0.1,0.2-0.1c0.4,0.2,0.8,0.2,1,0c0.2-0.2,0.2-0.4,0.1-0.7
				c0,0,0,0,0-0.1c0,0,0,0,0-0.1c0-0.1,0.1-0.1,0.1-0.1c0,0,0.1,0,0.1,0c0.6,0,1-0.2,1.2-0.5c0.1-0.2,0-0.5-0.3-0.8c0,0,0,0,0,0
				c-0.2,0-0.3-0.1-0.5-0.1c-0.1,0-0.1-0.1-0.1-0.2c0-0.1,0.1-0.1,0.2-0.1c0.5,0.2,1.1,0.2,1.6,0.1c0.1-0.1,0.2,0,0.3-0.1
				c0.2,0,0.3-0.1,0.4-0.1c0.9-0.4,1-0.9,1-1c0-0.1-0.1-0.2-0.3-0.2c0,0,0,0,0,0c-0.4,0.1-0.8,0.2-1.4,0.2c0,0,0,0,0,0
				c-0.1,0-0.1-0.1-0.1-0.1c0-0.1,0.1-0.1,0.1-0.1h0c0.5,0,0.9,0,1.2-0.1c0,0,0,0,0,0c0,0,0.1,0,0.1,0c0.7-0.2,1.2-0.5,1.3-0.8
				c0.1-0.2,0.1-0.3,0-0.5c-0.1-0.1-0.3-0.2-0.5-0.2c0,0-0.1,0-0.1,0c0,0,0,0,0,0c0,0,0,0,0,0c-0.4,0-0.7,0.1-1.2,0.1l-0.1,0
				c-0.1,0-0.1-0.1-0.1-0.1s0-0.1,0.1-0.1l0.1,0c0.5,0,0.9,0,1.2-0.1c0,0,0,0,0.1,0c0.6-0.1,1.1-0.2,1.6-0.6
				c0.3-0.2,0.4-0.4,0.3-0.6c-0.1-0.2-0.3-0.3-0.5-0.3c0,0,0,0,0,0c-0.5,0.1-1,0.2-1.7,0.2c-0.1,0-0.1,0-0.1-0.1
				c0-0.1,0-0.1,0.1-0.1c2.9-0.2,3.5-0.9,3.6-1.2c0.1-0.3-0.1-0.5-0.1-0.6c-0.1-0.1-0.3-0.2-0.4-0.2c0,0,0,0,0,0
				c-0.7,0.2-1.7,0.5-2.7,0.6c-0.1,0-0.1,0-0.1-0.1s0-0.1,0.1-0.1c0.9-0.1,1.8-0.3,2.5-0.5c0,0,0,0,0.1,0c0,0,0.1,0,0.1,0
				c0.5-0.2,0.8-0.3,1-0.4c0.5-0.3,0.7-0.8,0.6-1.2c-0.1-0.3-0.5-0.6-1.3-0.4c-0.1,0-0.1,0-0.2-0.1c0-0.1,0-0.1,0.1-0.2
				c0.9-0.2,1.4,0.1,1.6,0.6c0.1,0.3,0.1,0.6-0.1,0.9c3.1-0.5,7.4-1.5,9.4-2.5c0.1,0,0.1,0,0.2,0.1s0,0.1-0.1,0.2
				c-2.1,1.1-6.4,2.1-9.7,2.6c-0.1,0.1-0.2,0.2-0.4,0.3c-0.1,0.1-0.4,0.2-0.7,0.3c0.1,0,0.2,0.1,0.2,0.2c0.1,0.1,0.2,0.2,0.2,0.4
				c2.8-0.4,6.9-1.4,9.2-2.2c0.1,0,0.1,0,0.2,0.1c0,0.1,0,0.1-0.1,0.2c-2.3,0.8-6.5,1.8-9.3,2.2c0,0.1,0,0.2-0.1,0.2
				c-0.1,0.3-0.5,0.7-1.5,1c0.1,0.1,0.2,0.2,0.2,0.3c0,0,0,0,0,0.1c1.8-0.3,5.9-1.3,7.9-1.9c0.1,0,0.1,0,0.2,0.1
				c0,0.1,0,0.1-0.1,0.2c-2,0.7-6.2,1.6-8,1.9c0,0.2-0.1,0.4-0.5,0.6c-0.4,0.2-0.7,0.4-1.1,0.5c0,0,0.1,0.1,0.1,0.1
				c0,0,0.1,0.1,0.1,0.1c1.5-0.2,4.7-0.8,6.2-1.2c0.1,0,0.1,0,0.2,0.1c0,0.1,0,0.1-0.1,0.2c-1.6,0.4-4.8,1-6.2,1.2
				c0,0.1,0,0.2-0.1,0.3c-0.2,0.3-0.5,0.6-1.1,0.9c0,0,0.1,0.1,0.1,0.1c1.2-0.2,3.3-0.5,4.5-0.8c0.1,0,0.1,0,0.1,0.1
				c0,0.1,0,0.1-0.1,0.1c-1.1,0.2-3.3,0.6-4.5,0.8c0,0.3-0.2,0.7-0.9,1.1c1.1-0.1,2.4-0.2,2.9-0.3c0.1,0,0.1,0,0.1,0.1
				c0,0.1,0,0.1-0.1,0.1c-0.7,0.1-2.6,0.3-3.7,0.4c-0.3,0.1-0.7,0.1-1.1,0.1c0.2,0.2,0.2,0.5,0.2,0.7c0.4,0.1,1.1,0.2,1.4,0.1
				c0.1,0,0.1,0,0.1,0.1c0,0.1,0,0.1-0.1,0.1c-0.5,0-1.3-0.1-1.6-0.1c-0.2,0.3-0.6,0.5-1.3,0.5c0.1,0.3,0,0.6-0.2,0.9
				c-0.3,0.3-0.7,0.3-1.1,0.1c0,0.3-0.1,0.5-0.3,0.7c-0.3,0.3-0.8,0.4-1.3,0.3c0,0.1-0.1,0.1-0.1,0.2
				C-223.4,396-223.7,396.1-224.1,396.1z M-218.2,394.9C-218.2,394.9-218.2,394.9-218.2,394.9c-0.4,0-1.2-0.3-1.6-0.6
				c-0.1,0-0.1-0.1,0-0.2c0-0.1,0.1-0.1,0.2,0c0.4,0.2,1.1,0.5,1.5,0.6c0.1,0,0.1,0.1,0.1,0.1C-218.1,394.8-218.1,394.9-218.2,394.9
				z M-221,390.9C-221,390.9-221.1,390.9-221,390.9c-0.1-0.1-0.1-0.2-0.1-0.2c0.9-0.7,0.5-2,0.1-2.7c-0.3-0.5-0.3-1-0.2-1.4
				c0.2-0.6,0.8-1,1.8-1.5c0.1,0,0.1,0,0.2,0.1c0,0.1,0,0.1-0.1,0.2c-1,0.4-1.5,0.8-1.7,1.3c-0.1,0.3-0.1,0.7,0.2,1.2
				C-220.1,389.2-220.1,390.3-221,390.9C-220.9,390.9-221,390.9-221,390.9z M-233.6,382.4c-0.3,0-0.5-0.2-0.7-0.3
				c-0.2-0.1-0.3-0.2-0.5-0.3c0,0-0.1,0-0.1,0c-0.3,0-0.5-0.2-0.6-0.3c-0.1-0.2-0.1-0.6,0-0.9c0-0.1,0.1-0.1,0.2-0.1
				c0.1,0,0.1,0.1,0.1,0.2c-0.1,0.2-0.1,0.5,0,0.6c0.1,0.1,0.2,0.2,0.4,0.2c0,0,0,0,0,0c0.1,0,0.1,0,0.1,0c0.2,0,0.3-0.1,0.4-0.2
				c0.1-0.1,0.3-0.3,0.6-0.2c0.4,0,0.5,0.2,0.7,0.4c0.1,0.1,0.1,0.2,0.3,0.2l0.4,0.1l-0.4,0.1c-0.1,0-0.2,0.1-0.3,0.2
				C-233.1,382.3-233.3,382.4-233.6,382.4z M-234.3,381.8c0.1,0,0.1,0.1,0.2,0.1c0.2,0.1,0.3,0.2,0.6,0.2c0.2,0,0.3-0.1,0.4-0.2
				c0,0,0.1-0.1,0.2-0.1c-0.1-0.1-0.1-0.1-0.2-0.2c-0.1-0.1-0.2-0.3-0.5-0.3c-0.2,0-0.4,0.1-0.5,0.2
				C-234.2,381.7-234.3,381.7-234.3,381.8z"/>
		</g>
		<g>
			<path d="M-223.6,394.2c-0.1,0-0.2,0-0.4-0.1c-0.1,0-0.1-0.1-0.1-0.2c0-0.1,0.1-0.1,0.2-0.1c0.3,0.1,0.6,0,0.9-0.1
				c0.3-0.2,0.4-0.4,0.5-0.6c0-0.1,0.1-0.1,0.1-0.1c0.4,0.1,0.9-0.1,1.1-0.3c0.2-0.2,0.3-0.5,0.3-0.9c0,0,0-0.1,0-0.1
				c0,0,0.1,0,0.1,0c0.5,0,1-0.2,1.3-0.5c0.2-0.2,0.3-0.5,0.3-0.9c0-0.1,0-0.1,0.1-0.1c0.1,0,0.1,0,0.1,0.1c0,0.4-0.1,0.8-0.4,1
				c-0.3,0.4-0.8,0.6-1.4,0.6c0,0.4-0.1,0.7-0.4,0.9c-0.3,0.3-0.8,0.5-1.2,0.4c-0.1,0.3-0.3,0.5-0.6,0.7
				C-223.1,394.1-223.4,394.2-223.6,394.2z M-219.3,389.9c0,0-0.1,0-0.1-0.1c0-0.1,0-0.1,0-0.2c0.3-0.2,0.5-0.4,0.6-0.8
				c0.1-0.2,0-0.5-0.1-0.6c0,0,0-0.1,0-0.1c0,0,0-0.1,0.1-0.1c0.3-0.2,0.5-0.5,0.6-0.8c0-0.3-0.1-0.6-0.3-0.8c-0.1,0-0.1-0.1,0-0.2
				s0.1-0.1,0.2,0c0.3,0.3,0.5,0.6,0.4,1c0,0.4-0.3,0.7-0.6,0.9c0.1,0.2,0.1,0.5,0,0.7C-218.7,389.3-218.9,389.7-219.3,389.9
				C-219.3,389.9-219.3,389.9-219.3,389.9z"/>
		</g>
		<g>
			<path d="M-223.7,404.2c-0.4,0-0.7-0.2-1-0.4c-0.1-0.1-0.3-0.2-0.4-0.2c-0.1,0-0.1-0.1-0.1-0.1s0.1-0.1,0.1-0.1
				c0.2,0,0.4,0.1,0.5,0.3c0.2,0.1,0.3,0.2,0.5,0.3c0-0.1-0.1-0.2-0.1-0.3c-0.1-0.3-0.2-0.6-0.4-0.8c0,0,0-0.1,0-0.2
				c0,0,0.1,0,0.2,0c0.3,0.3,0.4,0.6,0.5,0.9c0.1,0.2,0.1,0.4,0.2,0.5L-223.7,404.2C-223.7,404.2-223.7,404.2-223.7,404.2z
				 M-225.5,403.5c-0.5,0-0.8-0.2-1-0.4c-0.2-0.1-0.3-0.2-0.5-0.2c-0.1,0-0.1-0.1-0.1-0.1c0-0.1,0.1-0.1,0.1-0.1
				c0.2,0,0.4,0.2,0.6,0.3c0.2,0.1,0.4,0.3,0.6,0.3c-0.1-0.1-0.1-0.3-0.1-0.4c-0.1-0.3-0.2-0.6-0.5-0.9c0,0,0-0.1,0-0.2
				c0,0,0.1,0,0.2,0c0.3,0.3,0.4,0.7,0.5,1c0.1,0.3,0.1,0.4,0.3,0.5L-225.5,403.5C-225.5,403.5-225.5,403.5-225.5,403.5z
				 M-223.8,402c-0.4,0-0.7-0.2-1-0.4c-0.2-0.1-0.3-0.2-0.5-0.2c-0.1,0-0.1-0.1-0.1-0.1c0-0.1,0.1-0.1,0.1-0.1
				c0.2,0,0.4,0.1,0.6,0.3c0.2,0.1,0.4,0.3,0.6,0.3c-0.1-0.1-0.1-0.3-0.2-0.4c-0.1-0.3-0.2-0.6-0.5-0.9c-0.1,0-0.1-0.1,0-0.2
				c0,0,0.1-0.1,0.2,0c0.3,0.3,0.5,0.7,0.5,1c0.1,0.2,0.1,0.4,0.3,0.5L-223.8,402C-223.7,402-223.8,402-223.8,402z M-242.8,397.5
				c0,0-0.1,0-0.1-0.1c-0.2-0.3-0.1-0.7-0.1-0.9c0-0.1,0.1-0.1,0.1-0.1c0.1,0,0.1,0.1,0.1,0.1c0,0.2-0.1,0.5,0.1,0.7
				C-242.6,397.4-242.7,397.5-242.8,397.5C-242.7,397.5-242.8,397.5-242.8,397.5z M-244.8,397.1c0,0-0.1,0-0.1-0.1
				c0-0.1,0-0.1,0-0.2c0.2-0.1,0.4-0.5,0.5-0.8c0-0.1,0.1-0.1,0.1-0.1c0.1,0,0.1,0.1,0.1,0.1C-244.2,396.4-244.4,396.9-244.8,397.1
				C-244.8,397.1-244.8,397.1-244.8,397.1z M-246.5,396.5c-0.1,0-0.1,0-0.1-0.1c0-0.1,0-0.1,0.1-0.2c0.5-0.1,0.9-0.7,1-0.9
				c0-0.1,0.1-0.1,0.2,0c0.1,0,0.1,0.1,0,0.2C-245.4,395.7-245.9,396.3-246.5,396.5C-246.5,396.5-246.5,396.5-246.5,396.5z
				 M-242.1,396.1c-0.3,0-0.6-0.1-0.9-0.3c-0.1,0-0.1-0.1-0.1-0.2c-0.5,0.1-0.9,0-1.3-0.3c-0.2-0.2-0.3-0.5-0.3-0.7
				c-0.4,0.2-0.8,0.1-1.1-0.1c-0.2-0.2-0.3-0.5-0.2-0.9c-0.6,0-1.1-0.2-1.3-0.5c-0.3,0.1-1.1,0.2-1.6,0.1c-0.1,0-0.1-0.1-0.1-0.1
				c0-0.1,0.1-0.1,0.1-0.1c0.4,0,1-0.1,1.4-0.1c0-0.2,0-0.5,0.2-0.7c-0.4,0-0.8,0-1.1-0.1c-1.1,0-3-0.3-3.7-0.4
				c-0.1,0-0.1-0.1-0.1-0.1c0-0.1,0.1-0.1,0.1-0.1c0.6,0.1,1.9,0.3,2.9,0.3c-0.7-0.4-0.9-0.8-0.9-1.1c-1.2-0.2-3.3-0.5-4.5-0.8
				c-0.1,0-0.1-0.1-0.1-0.1c0-0.1,0.1-0.1,0.1-0.1c1.2,0.2,3.3,0.6,4.5,0.8c0,0,0-0.1,0.1-0.1c-0.6-0.2-1-0.5-1.1-0.9
				c-0.1-0.1-0.1-0.2-0.1-0.3c-1.5-0.2-4.8-0.8-6.2-1.2c-0.1,0-0.1-0.1-0.1-0.2s0.1-0.1,0.2-0.1c1.5,0.3,4.7,0.9,6.2,1.2
				c0-0.1,0-0.1,0.1-0.1c0,0,0.1-0.1,0.1-0.1c-0.4-0.1-0.7-0.3-1.1-0.5c-0.3-0.2-0.4-0.4-0.5-0.6c-1.8-0.3-6-1.3-8-1.9
				c-0.1,0-0.1-0.1-0.1-0.2s0.1-0.1,0.2-0.1c2,0.6,6.2,1.6,7.9,1.9c0,0,0-0.1,0-0.1c0.1-0.1,0.1-0.2,0.2-0.3c-1-0.3-1.4-0.7-1.5-1
				c0-0.1,0-0.2-0.1-0.2c-2.8-0.4-7-1.4-9.3-2.2c-0.1,0-0.1-0.1-0.1-0.2c0-0.1,0.1-0.1,0.2-0.1c2.3,0.8,6.4,1.8,9.2,2.2
				c0-0.1,0.1-0.3,0.2-0.4c0.1-0.1,0.1-0.1,0.2-0.2c-0.3-0.1-0.5-0.2-0.7-0.3c-0.2-0.1-0.3-0.2-0.4-0.3c-3.3-0.5-7.6-1.5-9.7-2.6
				c-0.1,0-0.1-0.1-0.1-0.2c0-0.1,0.1-0.1,0.2-0.1c2,1.1,6.3,2,9.4,2.5c-0.2-0.3-0.2-0.6-0.1-0.9c0.2-0.4,0.7-0.8,1.6-0.6
				c0.1,0,0.1,0.1,0.1,0.2s-0.1,0.1-0.2,0.1c-0.8-0.2-1.2,0.1-1.3,0.4c-0.1,0.3,0,0.9,0.6,1.2c0.2,0.1,0.5,0.3,1,0.4
				c0,0,0.1,0,0.1,0c0,0,0,0,0.1,0c0.7,0.2,1.6,0.4,2.5,0.5c0.1,0,0.1,0.1,0.1,0.1c0,0.1-0.1,0.1-0.1,0.1c-1-0.1-2-0.3-2.7-0.6
				c0,0,0,0,0,0c-0.1,0-0.3,0.1-0.4,0.2c-0.1,0.1-0.2,0.3-0.1,0.6c0.1,0.3,0.7,1,3.6,1.2c0.1,0,0.1,0.1,0.1,0.1
				c0,0.1-0.1,0.1-0.1,0.1c-0.7,0-1.3-0.1-1.7-0.2c0,0,0,0,0,0c-0.2-0.1-0.5,0.1-0.5,0.3c-0.1,0.2,0,0.4,0.3,0.6
				c0.5,0.3,1,0.5,1.6,0.6c0,0,0,0,0,0c0.4,0,0.8,0.1,1.2,0.1l0.1,0c0.1,0,0.1,0.1,0.1,0.1c0,0.1-0.1,0.1-0.1,0.1l-0.1,0
				c-0.4,0-0.8,0-1.2-0.1c0,0,0,0,0,0c0,0,0,0,0,0c0,0-0.1,0-0.1,0c-0.2,0-0.4,0-0.5,0.2c-0.1,0.1-0.1,0.3,0,0.5
				c0.2,0.3,0.6,0.7,1.3,0.8c0,0,0.1,0,0.1,0c0,0,0,0,0,0c0.3,0.1,0.8,0.1,1.2,0.1c0,0,0,0,0,0c0.1,0,0.1,0.1,0.1,0.1
				c0,0.1-0.1,0.1-0.2,0.1c-0.5,0-1-0.1-1.4-0.2c0,0,0,0,0,0c-0.1,0-0.2,0.1-0.3,0.2c-0.1,0.2,0.1,0.6,1,1c0.1,0.1,0.3,0.1,0.4,0.1
				c0.1,0,0.2,0,0.3,0.1c0.5,0.1,1,0.1,1.6-0.1c0.1,0,0.1,0,0.2,0.1c0,0.1,0,0.1-0.1,0.2c-0.2,0.1-0.3,0.1-0.5,0.1c0,0,0,0,0,0
				c-0.3,0.2-0.4,0.5-0.3,0.8c0.1,0.3,0.6,0.5,1.3,0.5c0.1,0,0.1,0.1,0.1,0.1c0,0,0,0.1,0,0.1c0,0,0,0,0,0.1c-0.1,0.2,0,0.5,0.1,0.7
				c0.2,0.2,0.6,0.2,1,0c0.1,0,0.1,0,0.2,0.1c0,0,0,0.1,0,0.1c0,0,0,0,0,0.1c-0.1,0.2,0,0.5,0.2,0.7c0.3,0.2,0.6,0.3,1,0.3
				c0-0.1-0.1-0.3,0-0.4c0-0.1,0.1-0.1,0.1-0.1c0.1,0,0.1,0.1,0.1,0.1c0,0.3,0,0.5,0.2,0.6c0.3,0.3,0.8,0.3,1.2,0.2
				c0.1,0,0.1,0,0.2,0.1s0,0.1-0.1,0.2C-241.7,396.1-241.9,396.1-242.1,396.1z M-247.9,394.9c-0.1,0-0.1,0-0.1-0.1
				c0-0.1,0-0.1,0.1-0.1c0.4,0,1.1-0.3,1.5-0.6c0.1,0,0.1,0,0.2,0c0,0.1,0,0.1,0,0.2C-246.8,394.6-247.5,394.8-247.9,394.9
				C-247.9,394.9-247.9,394.9-247.9,394.9z M-245.1,390.9C-245.1,390.9-245.2,390.9-245.1,390.9c-0.9-0.6-0.9-1.7-0.2-3.1
				c0.2-0.4,0.3-0.8,0.2-1.2c-0.2-0.5-0.7-0.9-1.7-1.3c-0.1,0-0.1-0.1-0.1-0.2c0-0.1,0.1-0.1,0.2-0.1c1,0.4,1.6,0.9,1.8,1.5
				c0.1,0.4,0.1,0.8-0.2,1.4c-0.4,0.7-0.8,2,0.1,2.7C-245,390.7-245,390.8-245.1,390.9C-245,390.9-245.1,390.9-245.1,390.9z"/>
		</g>
		<g>
			<path d="M-242.5,394.2c-0.3,0-0.5-0.1-0.8-0.2c-0.3-0.2-0.5-0.4-0.6-0.7c-0.5,0-0.9-0.1-1.2-0.4c-0.3-0.3-0.4-0.6-0.4-0.9
				c-0.6,0-1-0.2-1.4-0.6c-0.3-0.3-0.4-0.7-0.4-1c0-0.1,0.1-0.1,0.1-0.1c0.1,0,0.1,0.1,0.1,0.1c0,0.3,0.1,0.6,0.3,0.9
				c0.3,0.3,0.8,0.5,1.3,0.5c0,0,0.1,0,0.1,0s0,0.1,0,0.1c0,0.3,0.1,0.6,0.3,0.9c0.3,0.3,0.7,0.4,1.1,0.3c0.1,0,0.1,0,0.1,0.1
				c0,0.2,0.2,0.5,0.5,0.6c0.3,0.2,0.6,0.2,0.9,0.1c0.1,0,0.1,0,0.2,0.1c0,0.1,0,0.1-0.1,0.2C-242.2,394.1-242.4,394.2-242.5,394.2z
				 M-246.8,389.9C-246.8,389.9-246.8,389.9-246.8,389.9c-0.4-0.2-0.6-0.6-0.7-0.9c-0.1-0.3,0-0.5,0-0.7c-0.3-0.2-0.6-0.6-0.6-0.9
				c0-0.4,0.1-0.8,0.4-1c0.1,0,0.1,0,0.2,0c0,0.1,0,0.1,0,0.2c-0.3,0.2-0.4,0.5-0.3,0.8c0,0.3,0.3,0.6,0.6,0.8c0,0,0.1,0,0.1,0.1
				s0,0.1,0,0.1c-0.1,0.2-0.1,0.4-0.1,0.6c0.1,0.3,0.3,0.6,0.6,0.8c0.1,0,0.1,0.1,0,0.2C-246.7,389.9-246.7,389.9-246.8,389.9z"/>
		</g>
		<g>
			<path d="M-248.1,409.5c-0.1,0-0.1-0.1-0.1-0.1c0-0.6-0.1-1.8,0.8-2c0.1,0,0.1,0,0.1,0.1c0,0.1,0,0.1-0.1,0.1
				c-0.6,0.1-0.6,0.7-0.6,1.7C-247.9,409.5-248,409.5-248.1,409.5C-248.1,409.5-248.1,409.5-248.1,409.5z M-217.8,409.3
				C-217.8,409.3-217.8,409.3-217.8,409.3c-0.1,0-0.1-0.1-0.1-0.1c0-1-0.1-1.6-0.7-1.7c-0.1,0-0.1-0.1-0.1-0.1
				c0-0.1,0.1-0.1,0.1-0.1c0.9,0.1,0.9,1.3,0.9,1.9C-217.7,409.2-217.8,409.3-217.8,409.3z M-248.8,409.1c-0.1,0-0.1-0.1-0.1-0.1
				c0-0.5,0-2,0.9-2c0,0,0,0,0,0c0.1,0,0.1,0.1,0.1,0.1c0,0.1-0.1,0.1-0.1,0.1c-0.4,0-0.7,0.6-0.6,1.7
				C-248.6,409.1-248.7,409.1-248.8,409.1C-248.8,409.1-248.8,409.1-248.8,409.1z M-217.2,408.9c-0.1,0-0.1-0.1-0.1-0.1
				c0-1.1-0.3-1.7-0.7-1.7c0,0,0,0,0,0c-0.1,0-0.1-0.1-0.1-0.1c0-0.1,0.1-0.1,0.1-0.1c0,0,0,0,0,0c0.9,0,0.9,1.5,1,1.9
				C-217.1,408.8-217.1,408.8-217.2,408.9C-217.2,408.9-217.2,408.9-217.2,408.9z M-246,406.4c-0.2,0-0.5,0-0.7,0l-0.1,0
				c-0.1,0-0.1-0.1-0.1-0.1c0-0.1,0.1-0.1,0.1-0.1l0.1,0c0.4,0,0.9,0.1,1.2,0c0.1,0,0.1,0,0.2,0.1c0,0.1,0,0.1-0.1,0.2
				C-245.6,406.4-245.8,406.4-246,406.4z M-220.3,406.3c-0.1,0-0.3,0-0.4,0c-0.1,0-0.1-0.1-0.1-0.1c0-0.1,0.1-0.1,0.1-0.1
				c0.3,0.1,0.9,0,1.2,0l0.1,0c0.1,0,0.1,0,0.1,0.1c0,0.1,0,0.1-0.1,0.1l-0.1,0C-219.6,406.3-220,406.3-220.3,406.3z M-242.5,404.2
				C-242.5,404.2-242.5,404.2-242.5,404.2l-0.1-0.2c0.1-0.1,0.2-0.2,0.2-0.5c0.1-0.3,0.2-0.6,0.5-0.9c0,0,0.1,0,0.2,0
				c0,0,0.1,0.1,0,0.2c-0.2,0.3-0.3,0.6-0.4,0.8c0,0.1-0.1,0.2-0.1,0.3c0.2-0.1,0.4-0.2,0.5-0.3c0.2-0.1,0.3-0.2,0.5-0.3
				c0.1,0,0.1,0,0.1,0.1c0,0.1,0,0.1-0.1,0.1c-0.1,0-0.3,0.1-0.4,0.2C-241.7,404-242,404.2-242.5,404.2z M-240.6,403.5
				C-240.6,403.5-240.7,403.5-240.6,403.5l-0.1-0.2c0.1-0.1,0.2-0.3,0.3-0.5c0.1-0.3,0.2-0.7,0.5-1c0,0,0.1,0,0.2,0c0,0,0,0.1,0,0.2
				c-0.3,0.3-0.4,0.6-0.5,0.9c0,0.1-0.1,0.3-0.1,0.4c0.2-0.1,0.4-0.2,0.6-0.3c0.2-0.1,0.4-0.3,0.6-0.3c0.1,0,0.1,0,0.1,0.1
				c0,0.1,0,0.1-0.1,0.1c-0.1,0-0.3,0.1-0.5,0.2C-239.9,403.3-240.2,403.5-240.6,403.5z M-242.3,402C-242.4,402-242.4,402-242.3,402
				l-0.1-0.2c0.1-0.1,0.2-0.3,0.3-0.5c0.1-0.3,0.2-0.7,0.5-1c0.1,0,0.1,0,0.2,0c0,0,0,0.1,0,0.2c-0.3,0.3-0.4,0.6-0.5,0.9
				c0,0.1-0.1,0.3-0.2,0.4c0.2-0.1,0.4-0.2,0.6-0.3c0.2-0.1,0.4-0.3,0.6-0.3c0.1,0,0.1,0,0.1,0.1c0,0.1,0,0.1-0.1,0.1
				c-0.1,0-0.3,0.1-0.5,0.2C-241.6,401.8-241.9,402-242.3,402z"/>
		</g>
		<g>
			<path class="st1" d="M-233.1,405.9c5.1-2.8,8.6-6.1,8.6-12c0-1.7,0-3.8,0-6.1c-2.5,1.2-6.6,1.1-8.6-0.2c-2,1.3-6.2,1.4-8.6,0.2
				c0,2.3,0,4.4,0,6.1C-241.7,399.9-238.2,403.1-233.1,405.9L-233.1,405.9z"/>
		</g>
		<g>
			<path d="M-233.1,406.1L-233.1,406.1c-4.6-2.5-8.7-5.7-8.7-12.2v-6.3l0.2,0.1c2.4,1.2,6.5,1.1,8.5-0.2l0.1,0l0.1,0
				c2,1.3,6.1,1.4,8.5,0.2l0.2-0.1v6.3C-224.3,400.3-228.5,403.5-233.1,406.1L-233.1,406.1z M-241.5,388v5.9c0,6.3,4.1,9.4,8.5,11.9
				c4.4-2.5,8.5-5.6,8.5-11.9V388c-2.5,1.1-6.4,1-8.5-0.3C-235.1,389-239.1,389.1-241.5,388z"/>
		</g>
		<g>
			<path class="st5" d="M-224.4,393.9c0-1.7,0-3.8,0-6.1c-2.5,1.2-6.6,1.1-8.6-0.2c-2,1.3-6.2,1.4-8.6,0.2c0,2.3,0,4.4,0,6.1H-224.4
				L-224.4,393.9z"/>
		</g>
		<g>
			<path d="M-224.3,394h-17.5v-6.4l0.2,0.1c2.4,1.2,6.5,1.1,8.5-0.2l0.1,0l0.1,0c2,1.3,6.1,1.4,8.5,0.2l0.2-0.1V394z M-241.5,393.8
				h17V388c-2.5,1.1-6.4,1-8.5-0.3c-2.1,1.3-6,1.4-8.5,0.3V393.8z"/>
		</g>
		<g>
			<path class="st6" d="M-239,401.4v-7.5h-1.3v5.6C-240.1,400-239.4,401-239,401.4L-239,401.4z"/>
		</g>
		<g>
			<path d="M-238.9,401.7l-0.2-0.2c-0.4-0.4-1.1-1.4-1.3-1.9l0-0.1v-5.7h1.6V401.7z M-240.2,399.4c0.2,0.4,0.7,1.2,1.1,1.6v-7h-1.1
				V399.4z"/>
		</g>
		<g>
			<path class="st6" d="M-236.4,403.8v-9.9h-1.3v8.9C-237.3,403.1-236.7,403.6-236.4,403.8L-236.4,403.8z"/>
		</g>
		<g>
			<path d="M-236.2,404.1l-0.2-0.1c-0.3-0.2-1-0.8-1.3-1.1l0,0v-9h1.6V404.1z M-237.6,402.7c0.3,0.3,0.8,0.6,1.1,0.9V394h-1.1V402.7
				z"/>
		</g>
		<g>
			<path class="st6" d="M-233.7,405.5v-11.6h-1.3v10.8C-234.7,405-234,405.3-233.7,405.5L-233.7,405.5z"/>
		</g>
		<g>
			<path d="M-233.6,405.8l-0.2-0.1c-0.3-0.2-1-0.6-1.3-0.8l-0.1,0v-11h1.6V405.8z M-234.9,404.7c0.3,0.2,0.8,0.5,1.1,0.7V394h-1.1
				V404.7z"/>
		</g>
		<g>
			<path class="st6" d="M-227.1,401.4v-7.5h1.3v5.6C-226,400-226.7,401-227.1,401.4L-227.1,401.4z"/>
		</g>
		<g>
			<path d="M-227.2,401.7v-7.9h1.6l0,5.8c-0.3,0.5-0.9,1.5-1.3,1.9L-227.2,401.7z M-227,394v7c0.4-0.5,0.8-1.2,1.1-1.6V394H-227z"/>
		</g>
		<g>
			<path class="st6" d="M-229.7,403.8v-9.9h1.3v8.9C-228.8,403.1-229.4,403.6-229.7,403.8L-229.7,403.8z"/>
		</g>
		<g>
			<path d="M-229.9,404.1v-10.3h1.6v9l0,0c-0.3,0.3-1,0.9-1.3,1.1L-229.9,404.1z M-229.6,394v9.6c0.3-0.2,0.8-0.6,1.1-0.9V394
				H-229.6z"/>
		</g>
		<g>
			<path class="st6" d="M-232.4,405.5v-11.6h1.3v10.8C-231.4,405-232.1,405.3-232.4,405.5L-232.4,405.5z"/>
		</g>
		<g>
			<path d="M-232.5,405.8v-12h1.6v11l-0.1,0c-0.4,0.2-1,0.6-1.3,0.8L-232.5,405.8z M-232.3,394v11.3c0.3-0.2,0.8-0.5,1.1-0.7V394
				H-232.3z"/>
		</g>
	</g>
</g>
</svg>
