<?xml version="1.0" encoding="utf-8"?>
<!-- Generator: Adobe Illustrator 19.0.0, SVG Export Plug-In . SVG Version: 6.00 Build 0)  -->
<svg version="1.1" id="Layer_1" xmlns="http://www.w3.org/2000/svg" xmlns:xlink="http://www.w3.org/1999/xlink" x="0px" y="0px"
	 viewBox="-269 374 72 46" style="enable-background:new -269 374 72 46;" xml:space="preserve">
<style type="text/css">
	.st0{clip-path:url(#SVGID_2_);}
	.st1{fill:#EE7335;}
	.st2{fill:#FFED00;}
</style>
<g>
	<defs>
		<path id="SVGID_1_" d="M-204,420H-262c-3.8,0-7-3.1-7-7V381c0-3.8,3.1-7,7-7h58.1c3.8,0,7,3.1,7,7V413
			C-197,416.9-200.1,420-204,420z"/>
	</defs>
	<clipPath id="SVGID_2_">
		<use xlink:href="#SVGID_1_"  style="overflow:visible;"/>
	</clipPath>
	<g class="st0">
		<g>
			<polygon class="st1" points="-195.5,420.8 -195.5,373 -270,373 -270,420.8 			"/>
		</g>
		<g>
			<path d="M-195.4,420.9h-74.8v-48h74.8V420.9z M-269.9,420.6h74.3v-47.5h-74.3V420.6z"/>
		</g>
		<g>
			<polygon class="st2" points="-232.8,383.9 -236,393.8 -246.9,393.8 -238.1,399.9 -241.5,409.7 -232.8,403.6 -224,409.7 
				-227.4,399.8 -218.6,393.8 -229.4,393.8 			"/>
		</g>
		<g>
			<path d="M-241.6,409.9l0.1-0.2l3.4-9.8l-8.9-6.2h11l3.3-10l3.4,10h10.9l-0.2,0.1l-8.7,6l3.4,10.1l-0.2-0.1l-8.7-6.1L-241.6,409.9
				z M-232.8,403.5L-232.8,403.5l8.6,6l-3.3-9.8l0,0l8.6-5.9h-10.6l0,0l-3.3-9.7l-3.3,9.7h-10.7l8.7,6l0,0l-3.3,9.7L-232.8,403.5z"
				/>
		</g>
	</g>
</g>
</svg>
