<?xml version="1.0" encoding="utf-8"?>
<!-- Generator: Adobe Illustrator 19.0.0, SVG Export Plug-In . SVG Version: 6.00 Build 0)  -->
<svg version="1.1" id="Layer_1" xmlns="http://www.w3.org/2000/svg" xmlns:xlink="http://www.w3.org/1999/xlink" x="0px" y="0px"
	 viewBox="-269 374 72 46" style="enable-background:new -269 374 72 46;" xml:space="preserve">
<style type="text/css">
	.st0{clip-path:url(#SVGID_2_);}
	.st1{fill:#65B32E;}
	.st2{fill:#CA0538;}
	.st3{fill:#FFE247;}
</style>
<g>
	<defs>
		<path id="SVGID_1_" d="M-204,420H-262c-3.8,0-7-3.1-7-7V381c0-3.8,3.1-7,7-7h58.1c3.8,0,7,3.1,7,7V413
			C-197,416.9-200.1,420-204,420z"/>
	</defs>
	<clipPath id="SVGID_2_">
		<use xlink:href="#SVGID_1_"  style="overflow:visible;"/>
	</clipPath>
	<g class="st0">
		<g>
			<polygon class="st1" points="-269.7,420.2 -190.6,420.2 -190.6,396.5 -269.7,396.5 			"/>
		</g>
		<g>
			<path d="M-190.4,420.3h-79.3v-24h79.3V420.3z M-269.5,420h78.8v-23.5h-78.8V420z"/>
		</g>
		<g>
			<polygon class="st2" points="-190.6,396.5 -269.7,396.5 -269.7,372.8 -190.6,372.8 			"/>
		</g>
		<g>
			<path d="M-190.4,396.6h-79.3v-24h79.3V396.6z M-269.5,396.3h78.8v-23.5h-78.8V396.3z"/>
		</g>
		<g>
			<polygon points="-269.7,372.8 -231.7,393.1 -190.6,393.1 -190.6,399.9 -231.7,399.9 -269.7,420.2 			"/>
		</g>
		<g>
			<path d="M-269.6,420.3l-0.2-0.1v-47.4l0.2-0.1l37.9,20.3h41.1l0.1,0.1v6.8l-0.1,0.1h-41.1L-269.6,420.3z M-269.5,373v47
				l37.8-20.2h41v-6.5l-41.1,0L-269.5,373z"/>
		</g>
		<g>
			<polygon class="st3" points="-190.6,395.3 -232.3,395.3 -269.7,375.4 -269.7,377.9 -235,396.5 -269.7,415 -269.7,417.6 
				-232.3,397.6 -190.6,397.6 			"/>
		</g>
		<g>
			<path d="M-269.6,417.7l-0.2-0.1V415l0.1-0.1l34.5-18.4l-34.5-18.4l-0.1-0.1v-2.6l0.2-0.1l37.4,19.9h41.7l0.1,0.1v2.3l-0.1,0.1
				h-41.7L-269.6,417.7z M-269.5,415.1v2.3l37.3-19.9h41.6v-2l-41.6,0l-37.2-19.9v2.3l34.6,18.5v0.2L-269.5,415.1z"/>
		</g>
		<g>
			<path class="st3" d="M-260.8,401.8c3.4-0.2,5.1-3.2,5-5.8c-0.2-2.6-2.4-4.7-5-4.5c-2.4,0.2-4.1,2.4-3.9,4.6
				c0.2,2.2,2,3.4,3.9,3.5c1.9,0.1,3.8-1.1,4-3.6c0.6,2.8-1.7,5.1-4.2,5c-2.8-0.1-5.3-1.7-5.7-4.9c-0.4-3.5,2.2-6.7,6-7
				c4.2-0.3,7.2,3.2,7.5,6.9c0.3,3.6-1.7,8.4-7.6,8.8V401.8L-260.8,401.8z"/>
		</g>
		<g>
			<path d="M-260.8,404.9v-3.1l0.1,0c1.4-0.1,2.6-0.7,3.5-1.7c1-1.1,1.5-2.6,1.4-4.1c-0.1-1.3-0.7-2.5-1.6-3.3
				c-0.9-0.8-2.1-1.2-3.3-1.1c-2.6,0.2-4,2.5-3.8,4.5c0.2,2.2,2,3.4,3.8,3.5c0.1,0,0.2,0,0.2,0c1.7,0,3.5-1.1,3.7-3.6l0.1,0
				c0.3,1.3,0,2.5-0.8,3.5c-0.8,1-2,1.6-3.2,1.6c0,0-0.1,0-0.1,0c-3.1-0.1-5.4-2-5.8-4.9c-0.2-1.7,0.3-3.4,1.4-4.7
				c1.1-1.4,2.8-2.3,4.6-2.4c1.8-0.1,3.5,0.4,4.9,1.6c1.5,1.3,2.5,3.3,2.7,5.3c0.1,2-0.4,4.1-1.5,5.6
				C-256,403.5-258.1,404.7-260.8,404.9L-260.8,404.9z M-260.7,401.9v2.8c2.6-0.2,4.7-1.3,6-3.2c1.1-1.5,1.6-3.6,1.5-5.6
				c-0.1-2-1.1-3.9-2.6-5.2c-1.4-1.2-3-1.8-4.8-1.6c-1.8,0.1-3.4,1-4.6,2.3c-1.1,1.3-1.6,3-1.3,4.6c0.4,2.8,2.6,4.7,5.6,4.8
				c0,0,0.1,0,0.1,0c1.2,0,2.4-0.6,3.2-1.5c0.7-0.9,1-1.9,0.9-3c-0.4,2.3-2.2,3.3-3.8,3.3c-0.1,0-0.2,0-0.3,0
				c-1.9-0.1-3.8-1.3-4-3.6c-0.2-2.4,1.6-4.5,4-4.7c1.2-0.1,2.4,0.3,3.4,1.1c1,0.9,1.6,2.1,1.7,3.4c0.1,1.5-0.5,3.1-1.5,4.2
				C-258.1,401.2-259.3,401.8-260.7,401.9z"/>
		</g>
		<g>
			<path class="st3" d="M-262,393.8c-0.2-0.4-0.6-0.7-1-0.8C-262.9,393.5-262.4,393.8-262,393.8L-262,393.8z"/>
		</g>
		<g>
			<path d="M-262,393.9L-262,393.9c-0.4,0-0.9-0.4-1-0.8l0,0l0,0C-262.6,393.1-262.2,393.4-262,393.9L-262,393.9z M-263,393.1
				c0.1,0.4,0.5,0.7,0.9,0.7C-262.3,393.4-262.6,393.1-263,393.1z"/>
		</g>
		<g>
			<path class="st3" d="M-258.3,397.7c0.2-0.4,0.2-0.9,0-1.2C-258.5,396.8-258.5,397.4-258.3,397.7L-258.3,397.7z"/>
		</g>
		<g>
			<path d="M-258.3,397.7L-258.3,397.7c-0.2-0.4-0.3-1,0-1.3l0,0l0,0C-258,396.8-258.1,397.2-258.3,397.7L-258.3,397.7z
				 M-258.2,396.5c-0.3,0.3-0.2,0.8,0,1.2C-258.1,397.2-258.1,396.8-258.2,396.5z"/>
		</g>
		<g>
			<path class="st3" d="M-258.6,397.2c0.2-0.4,0.2-0.9,0-1.2C-258.9,396.3-258.8,396.9-258.6,397.2L-258.6,397.2z"/>
		</g>
		<g>
			<path d="M-258.6,397.3L-258.6,397.3c-0.2-0.4-0.3-0.9-0.1-1.3l0,0l0,0C-258.4,396.3-258.4,396.8-258.6,397.3L-258.6,397.3z
				 M-258.6,396c-0.2,0.3-0.2,0.9,0,1.2C-258.4,396.8-258.4,396.3-258.6,396z"/>
		</g>
		<g>
			<path class="st3" d="M-258.2,397.8c-0.3-0.3-0.7-0.6-1.1-0.5C-259.2,397.7-258.6,397.9-258.2,397.8L-258.2,397.8z"/>
		</g>
		<g>
			<path d="M-258.4,397.8c-0.4,0-0.8-0.2-1-0.5l0,0l0,0c0.4-0.1,0.8,0.1,1.1,0.5l0,0l0,0C-258.3,397.8-258.3,397.8-258.4,397.8z
				 M-259.4,397.3c0.2,0.3,0.6,0.5,1,0.5c0,0,0.1,0,0.1,0c-0.3-0.3-0.7-0.5-1-0.5C-259.3,397.3-259.3,397.3-259.4,397.3z"/>
		</g>
		<g>
			<path class="st3" d="M-258.5,397.4c-0.3-0.3-0.7-0.6-1.1-0.5C-259.4,397.3-258.9,397.4-258.5,397.4L-258.5,397.4z"/>
		</g>
		<g>
			<path d="M-258.6,397.4c-0.4,0-0.8-0.2-1-0.5l0,0l0,0c0,0,0.1,0,0.1,0c0.3,0,0.7,0.2,1,0.5l0,0l0,0
				C-258.5,397.4-258.6,397.4-258.6,397.4z M-259.6,396.9c0.2,0.3,0.6,0.5,0.9,0.5c0,0,0.1,0,0.1,0
				C-258.8,397-259.2,396.9-259.6,396.9z"/>
		</g>
		<g>
			<path class="st3" d="M-258.9,396.8c0.1-0.4,0.1-0.9-0.1-1.2C-259.2,396-259.1,396.5-258.9,396.8L-258.9,396.8z"/>
		</g>
		<g>
			<path d="M-258.8,396.9L-258.8,396.9c-0.3-0.3-0.4-0.9-0.2-1.3l0,0l0,0C-258.7,395.9-258.7,396.4-258.8,396.9L-258.8,396.9z
				 M-259,395.6c-0.2,0.3-0.1,0.9,0.1,1.2C-258.7,396.3-258.8,395.9-259,395.6z"/>
		</g>
		<g>
			<path class="st3" d="M-258.7,397c-0.3-0.4-0.7-0.6-1.1-0.6C-259.7,396.8-259.1,397-258.7,397L-258.7,397z"/>
		</g>
		<g>
			<path d="M-258.8,397c-0.4,0-0.9-0.2-1-0.6l0,0l0,0c0,0,0,0,0,0C-259.4,396.4-259,396.6-258.8,397L-258.8,397L-258.8,397
				C-258.7,397-258.8,397-258.8,397z M-259.8,396.4c0.2,0.4,0.6,0.6,1,0.6c0,0,0,0,0,0C-259.1,396.6-259.4,396.4-259.8,396.4
				C-259.8,396.4-259.8,396.4-259.8,396.4z"/>
		</g>
		<g>
			<path class="st3" d="M-259.2,396.4c0.1-0.5,0.1-0.9-0.2-1.2C-259.6,395.5-259.5,396.1-259.2,396.4L-259.2,396.4z"/>
		</g>
		<g>
			<path d="M-259.2,396.4L-259.2,396.4c-0.3-0.3-0.4-0.9-0.2-1.3l0,0l0,0C-259.2,395.4-259.1,395.9-259.2,396.4L-259.2,396.4z
				 M-259.4,395.2c-0.2,0.4-0.1,0.9,0.2,1.2C-259.1,395.9-259.2,395.5-259.4,395.2z"/>
		</g>
		<g>
			<path class="st3" d="M-259.2,396.5c-0.3-0.4-0.7-0.6-1.1-0.6C-260.1,396.3-259.6,396.5-259.2,396.5L-259.2,396.5z"/>
		</g>
		<g>
			<path d="M-259.3,396.5c-0.4,0-0.9-0.2-1-0.6l0,0l0,0c0.4,0,0.8,0.2,1.1,0.6l0,0l0,0C-259.2,396.5-259.2,396.5-259.3,396.5z
				 M-260.2,395.9c0.2,0.4,0.7,0.6,1.1,0.5C-259.5,396.1-259.9,395.9-260.2,395.9C-260.2,395.9-260.2,395.9-260.2,395.9z"/>
		</g>
		<g>
			<path class="st3" d="M-259.6,396c0.1-0.5,0-0.9-0.3-1.2C-260,395.1-259.8,395.7-259.6,396L-259.6,396z"/>
		</g>
		<g>
			<path d="M-259.6,396L-259.6,396c-0.3-0.3-0.5-0.9-0.3-1.2l0,0l0,0C-259.6,395-259.5,395.5-259.6,396L-259.6,396z M-259.8,394.8
				c-0.2,0.4,0,0.9,0.3,1.1C-259.5,395.5-259.6,395-259.8,394.8z"/>
		</g>
		<g>
			<path class="st3" d="M-259.6,395.9c-0.3-0.3-0.7-0.6-1.1-0.5C-260.6,395.8-260,396-259.6,395.9L-259.6,395.9z"/>
		</g>
		<g>
			<path d="M-259.8,395.9c-0.4,0-0.8-0.2-1-0.5l0,0l0,0c0,0,0.1,0,0.1,0c0.3,0,0.7,0.2,1,0.5l0,0l0,0
				C-259.7,395.9-259.7,395.9-259.8,395.9z M-260.7,395.4c0.2,0.3,0.6,0.5,1,0.5c0,0,0.1,0,0.1,0
				C-260,395.6-260.3,395.4-260.7,395.4C-260.7,395.4-260.7,395.4-260.7,395.4z"/>
		</g>
		<g>
			<path class="st3" d="M-259.9,395.6c0-0.5-0.1-0.9-0.4-1.2C-260.5,394.8-260.2,395.3-259.9,395.6L-259.9,395.6z"/>
		</g>
		<g>
			<path d="M-259.9,395.6L-259.9,395.6c-0.3-0.3-0.6-0.8-0.4-1.2l0,0l0,0C-260,394.6-259.9,395.1-259.9,395.6L-259.9,395.6z
				 M-260.3,394.4c-0.1,0.4,0.1,0.9,0.4,1.1C-259.9,395.1-260,394.7-260.3,394.4z"/>
		</g>
		<g>
			<path class="st3" d="M-260.2,395.4c-0.3-0.3-0.8-0.5-1.2-0.5C-261.1,395.3-260.5,395.4-260.2,395.4L-260.2,395.4z"/>
		</g>
		<g>
			<path d="M-260.4,395.4c-0.4,0-0.8-0.2-1-0.5l0,0l0,0c0.4-0.1,0.8,0.1,1.2,0.5l0,0l0,0C-260.2,395.4-260.3,395.4-260.4,395.4z
				 M-261.3,394.9c0.2,0.3,0.6,0.4,0.9,0.4c0.1,0,0.1,0,0.2,0c-0.3-0.3-0.6-0.4-1-0.4C-261.2,394.9-261.2,394.9-261.3,394.9z"/>
		</g>
		<g>
			<path class="st3" d="M-260.3,395.2c0-0.5-0.2-0.9-0.5-1.1C-260.9,394.5-260.6,395-260.3,395.2L-260.3,395.2z"/>
		</g>
		<g>
			<path d="M-260.2,395.3L-260.2,395.3c-0.4-0.2-0.6-0.7-0.5-1.2l0,0l0,0C-260.4,394.3-260.3,394.7-260.2,395.3L-260.2,395.3z
				 M-260.7,394.1c-0.1,0.4,0.2,0.9,0.5,1.1C-260.3,394.7-260.5,394.3-260.7,394.1z"/>
		</g>
		<g>
			<path class="st3" d="M-260.7,394.8c0-0.5-0.2-0.9-0.5-1.1C-261.3,394.1-261,394.6-260.7,394.8L-260.7,394.8z"/>
		</g>
		<g>
			<path d="M-260.7,394.8L-260.7,394.8c-0.4-0.2-0.6-0.7-0.5-1.2l0,0l0,0C-260.9,393.9-260.7,394.3-260.7,394.8L-260.7,394.8z
				 M-261.2,393.7c-0.1,0.4,0.2,0.9,0.5,1.1C-260.7,394.3-260.9,393.9-261.2,393.7z"/>
		</g>
		<g>
			<path class="st3" d="M-260.7,394.9c-0.4-0.3-0.8-0.5-1.2-0.4C-261.6,394.9-261,395-260.7,394.9L-260.7,394.9z"/>
		</g>
		<g>
			<path d="M-261,395c-0.3,0-0.7-0.1-0.9-0.4l0,0l0,0c0.4-0.1,0.8,0,1.2,0.4l0,0l0,0C-260.8,394.9-260.9,395-261,395z M-261.8,394.5
				c0.2,0.3,0.8,0.4,1.1,0.4C-261.1,394.6-261.5,394.5-261.8,394.5z"/>
		</g>
		<g>
			<path class="st3" d="M-261.1,394.5c-0.4-0.3-0.8-0.5-1.2-0.4C-262,394.5-261.4,394.6-261.1,394.5L-261.1,394.5z"/>
		</g>
		<g>
			<path d="M-261.4,394.6c-0.3,0-0.7-0.1-0.9-0.4l0,0l0,0c0.4-0.1,0.8,0,1.2,0.4l0,0l0,0C-261.2,394.6-261.3,394.6-261.4,394.6z
				 M-262.2,394.2c0.2,0.3,0.8,0.4,1.1,0.4C-261.5,394.2-261.9,394.1-262.2,394.2z"/>
		</g>
		<g>
			<path class="st3" d="M-261,394.6c-0.1-0.5-0.3-0.9-0.6-1.1C-261.7,393.9-261.4,394.4-261,394.6L-261,394.6z"/>
		</g>
		<g>
			<path d="M-261,394.6L-261,394.6c-0.4-0.2-0.7-0.7-0.7-1.1l0,0l0,0C-261.3,393.7-261.1,394.1-261,394.6L-261,394.6z M-261.6,393.5
				c-0.1,0.4,0.3,0.8,0.6,1C-261.1,394.1-261.3,393.7-261.6,393.5z"/>
		</g>
		<g>
			<path class="st3" d="M-261.5,394.2c-0.4-0.3-0.8-0.5-1.2-0.4C-262.4,394.2-261.9,394.3-261.5,394.2L-261.5,394.2z"/>
		</g>
		<g>
			<path d="M-261.8,394.2c-0.3,0-0.7-0.1-0.9-0.4l0,0l0,0c0.4-0.1,0.8,0,1.2,0.4l0,0l0,0C-261.6,394.2-261.7,394.2-261.8,394.2z
				 M-262.7,393.8c0.2,0.3,0.8,0.4,1.1,0.4C-261.9,393.9-262.3,393.7-262.7,393.8z"/>
		</g>
		<g>
			<path class="st3" d="M-262,393.9c-0.4-0.3-0.8-0.5-1.2-0.4C-262.9,393.9-262.4,394-262,393.9L-262,393.9z"/>
		</g>
		<g>
			<path d="M-262.3,393.9c-0.3,0-0.7-0.1-0.9-0.4l0,0l0,0c0.4-0.1,0.8,0,1.2,0.4l0,0l0,0C-262.1,393.9-262.2,393.9-262.3,393.9z
				 M-263.2,393.5c0.2,0.3,0.8,0.4,1.1,0.4C-262.4,393.6-262.8,393.4-263.2,393.5z"/>
		</g>
		<g>
			<path class="st3" d="M-261.5,394.2c-0.1-0.5-0.3-0.9-0.7-1C-262.2,393.6-261.9,394-261.5,394.2L-261.5,394.2z"/>
		</g>
		<g>
			<path d="M-261.5,394.2L-261.5,394.2c-0.4-0.2-0.8-0.6-0.7-1.1l0,0l0,0C-261.9,393.3-261.6,393.7-261.5,394.2L-261.5,394.2z
				 M-262.2,393.2c0,0.4,0.3,0.8,0.7,1C-261.6,393.7-261.9,393.3-262.2,393.2z"/>
		</g>
		<g>
			<path class="st3" d="M-261.8,394c-0.1-0.4-0.4-0.8-0.8-0.9C-262.6,393.5-262.2,393.9-261.8,394L-261.8,394z"/>
		</g>
		<g>
			<path d="M-261.8,394L-261.8,394c-0.4-0.1-0.8-0.5-0.9-0.9l0,0l0,0C-262.3,393.2-261.9,393.5-261.8,394L-261.8,394z M-262.6,393.1
				c0,0.4,0.4,0.8,0.8,0.9C-262,393.5-262.3,393.2-262.6,393.1z"/>
		</g>
		<g>
			<path class="st3" d="M-262.2,393.7c1.8,1,3.6,3,4.2,4.4l-0.1,0C-258.7,396.8-260.5,394.8-262.2,393.7L-262.2,393.7z"/>
		</g>
		<g>
			<path d="M-258.1,398.2L-258.1,398.2c-0.6-1.3-2.3-3.3-4.1-4.4l0,0c1.8,1,3.6,3,4.2,4.4l0,0l0,0L-258.1,398.2z M-261.6,394.1
				c1.6,1.1,3,2.9,3.5,4l0.1,0C-258.6,396.9-260,395.2-261.6,394.1z"/>
		</g>
		<g>
			<path class="st3" d="M-258.9,393.8c0.2-0.4,0.6-0.7,1-0.8C-258,393.5-258.5,393.8-258.9,393.8L-258.9,393.8z"/>
		</g>
		<g>
			<path d="M-258.9,393.9L-258.9,393.9c0.3-0.5,0.6-0.8,1-0.8l0,0l0,0C-258,393.5-258.5,393.8-258.9,393.9L-258.9,393.9z
				 M-257.9,393.1c-0.3,0-0.7,0.3-0.9,0.7C-258.5,393.8-258,393.5-257.9,393.1z"/>
		</g>
		<g>
			<path class="st3" d="M-262.6,397.7c-0.2-0.4-0.2-0.9,0-1.2C-262.4,396.8-262.4,397.4-262.6,397.7L-262.6,397.7z"/>
		</g>
		<g>
			<path d="M-262.6,397.7L-262.6,397.7c-0.2-0.5-0.2-1-0.1-1.3l0,0l0,0C-262.3,396.8-262.4,397.4-262.6,397.7L-262.6,397.7z
				 M-262.6,396.5c-0.2,0.3-0.2,0.7,0,1.2C-262.4,397.3-262.4,396.8-262.6,396.5z"/>
		</g>
		<g>
			<path class="st3" d="M-262.3,397.2c-0.2-0.4-0.2-0.9,0-1.2C-262,396.3-262.1,396.9-262.3,397.2L-262.3,397.2z"/>
		</g>
		<g>
			<path d="M-262.3,397.3L-262.3,397.3c-0.2-0.5-0.2-1,0-1.3l0,0l0,0C-262,396.3-262.1,396.9-262.3,397.3L-262.3,397.3z M-262.3,396
				c-0.2,0.3-0.2,0.7,0,1.2C-262.1,396.9-262,396.4-262.3,396z"/>
		</g>
		<g>
			<path class="st3" d="M-262.6,397.8c0.3-0.3,0.7-0.6,1.1-0.5C-261.7,397.7-262.3,397.9-262.6,397.8L-262.6,397.8z"/>
		</g>
		<g>
			<path d="M-262.5,397.8c-0.1,0-0.1,0-0.2,0l0,0l0,0c0.3-0.4,0.8-0.6,1.1-0.5l0,0l0,0C-261.7,397.7-262.1,397.8-262.5,397.8z
				 M-262.6,397.8c0,0,0.1,0,0.1,0c0.4,0,0.8-0.2,1-0.5c0,0-0.1,0-0.1,0C-262,397.3-262.3,397.5-262.6,397.8z"/>
		</g>
		<g>
			<path class="st3" d="M-262.4,397.4c0.3-0.3,0.7-0.6,1.1-0.5C-261.5,397.3-262,397.4-262.4,397.4L-262.4,397.4z"/>
		</g>
		<g>
			<path d="M-262.2,397.4c-0.1,0-0.1,0-0.2,0l0,0l0,0c0.4-0.4,0.8-0.6,1.2-0.5l0,0l0,0C-261.4,397.2-261.9,397.4-262.2,397.4z
				 M-262.4,397.4c0,0,0.1,0,0.1,0c0.4,0,0.8-0.2,0.9-0.5c0,0-0.1,0-0.1,0C-261.7,396.9-262.1,397.1-262.4,397.4z"/>
		</g>
		<g>
			<path class="st3" d="M-262,396.8c-0.1-0.4-0.1-0.9,0.1-1.2C-261.7,396-261.8,396.5-262,396.8L-262,396.8z"/>
		</g>
		<g>
			<path d="M-262,396.9L-262,396.9c-0.2-0.5-0.1-1,0.1-1.3l0,0l0,0C-261.6,396-261.8,396.5-262,396.9L-262,396.9z M-261.9,395.6
				c-0.2,0.3-0.3,0.7-0.1,1.2C-261.8,396.5-261.7,396-261.9,395.6z"/>
		</g>
		<g>
			<path class="st3" d="M-262.1,397c0.3-0.4,0.7-0.6,1.1-0.6C-261.2,396.8-261.8,397-262.1,397L-262.1,397z"/>
		</g>
		<g>
			<path d="M-262.1,397C-262.1,397-262.1,397-262.1,397L-262.1,397L-262.1,397c0.2-0.4,0.6-0.6,1-0.6c0,0,0,0,0,0l0,0l0,0
				C-261.2,396.8-261.7,397-262.1,397z M-262.1,397C-262.1,397-262.1,397-262.1,397c0.4,0,0.9-0.2,1-0.6c0,0,0,0,0,0
				C-261.5,396.4-261.8,396.6-262.1,397z"/>
		</g>
		<g>
			<path class="st3" d="M-261.7,396.4c-0.1-0.5-0.1-0.9,0.2-1.2C-261.2,395.5-261.4,396.1-261.7,396.4L-261.7,396.4z"/>
		</g>
		<g>
			<path d="M-261.7,396.4L-261.7,396.4c-0.1-0.5,0-1,0.2-1.3l0,0l0,0C-261.2,395.5-261.4,396.1-261.7,396.4L-261.7,396.4z
				 M-261.5,395.2c-0.2,0.3-0.3,0.7-0.2,1.2C-261.4,396.1-261.3,395.6-261.5,395.2z"/>
		</g>
		<g>
			<path class="st3" d="M-261.7,396.5c0.3-0.4,0.7-0.6,1.1-0.6C-260.8,396.3-261.3,396.5-261.7,396.5L-261.7,396.5z"/>
		</g>
		<g>
			<path d="M-261.6,396.5c0,0-0.1,0-0.1,0l0,0l0,0c0.3-0.4,0.7-0.6,1-0.6c0,0,0.1,0,0.1,0l0,0l0,0
				C-260.8,396.3-261.2,396.5-261.6,396.5z M-261.7,396.4C-261.7,396.4-261.6,396.4-261.7,396.4c0.4,0,0.9-0.2,1.1-0.5
				c0,0,0,0-0.1,0C-261,395.9-261.4,396.1-261.7,396.4z"/>
		</g>
		<g>
			<path class="st3" d="M-261.3,396c-0.1-0.5,0-0.9,0.3-1.2C-260.8,395.1-261,395.7-261.3,396L-261.3,396z"/>
		</g>
		<g>
			<path d="M-261.3,396L-261.3,396c-0.1-0.5,0-1,0.3-1.2l0,0l0,0C-260.8,395.1-261,395.7-261.3,396L-261.3,396z M-261,394.8
				c-0.2,0.3-0.3,0.7-0.3,1.1C-261,395.7-260.9,395.2-261,394.8z"/>
		</g>
		<g>
			<path class="st3" d="M-261.3,395.9c0.3-0.3,0.7-0.6,1.1-0.5C-260.3,395.8-260.9,396-261.3,395.9L-261.3,395.9z"/>
		</g>
		<g>
			<path d="M-261.1,395.9c0,0-0.1,0-0.1,0l0,0l0,0c0.3-0.3,0.7-0.5,1-0.5c0,0,0.1,0,0.1,0l0,0l0,0
				C-260.3,395.8-260.7,395.9-261.1,395.9z M-261.2,395.9c0,0,0.1,0,0.1,0c0.4,0,0.8-0.2,1-0.5c0,0-0.1,0-0.1,0
				C-260.6,395.4-260.9,395.6-261.2,395.9z"/>
		</g>
		<g>
			<path class="st3" d="M-261,395.6c0-0.5,0.1-0.9,0.4-1.2C-260.4,394.8-260.7,395.3-261,395.6L-261,395.6z"/>
		</g>
		<g>
			<path d="M-261,395.6L-261,395.6c0-0.5,0.1-1,0.4-1.2l0,0l0,0C-260.4,394.8-260.6,395.4-261,395.6L-261,395.6z M-260.6,394.4
				c-0.3,0.2-0.4,0.6-0.4,1.1C-260.7,395.3-260.4,394.8-260.6,394.4z"/>
		</g>
		<g>
			<path class="st3" d="M-260.7,395.4c0.3-0.3,0.8-0.5,1.2-0.5C-259.8,395.3-260.3,395.4-260.7,395.4L-260.7,395.4z"/>
		</g>
		<g>
			<path d="M-260.5,395.4c-0.1,0-0.1,0-0.2,0l0,0l0,0c0.4-0.4,0.8-0.5,1.2-0.5l0,0l0,0C-259.7,395.2-260.1,395.4-260.5,395.4z
				 M-260.7,395.4c0.4,0.1,0.9-0.1,1.1-0.4C-259.9,394.9-260.3,395-260.7,395.4z"/>
		</g>
		<g>
			<path class="st3" d="M-260.6,395.2c0-0.5,0.2-0.9,0.5-1.1C-260,394.5-260.3,395-260.6,395.2L-260.6,395.2z"/>
		</g>
		<g>
			<path d="M-260.6,395.3L-260.6,395.3c0-0.5,0.2-1,0.5-1.2l0,0l0,0C-260,394.5-260.3,395-260.6,395.3L-260.6,395.3z M-260.1,394.1
				c-0.3,0.2-0.5,0.6-0.5,1.1C-260.3,395-260,394.5-260.1,394.1z"/>
		</g>
		<g>
			<path class="st3" d="M-260.2,394.8c0-0.5,0.2-0.9,0.5-1.1C-259.5,394.1-259.8,394.6-260.2,394.8L-260.2,394.8z"/>
		</g>
		<g>
			<path d="M-260.2,394.8L-260.2,394.8c0-0.5,0.2-1,0.5-1.2l0,0l0,0C-259.5,394.1-259.8,394.6-260.2,394.8L-260.2,394.8z
				 M-259.7,393.7c-0.3,0.2-0.5,0.6-0.5,1.1C-259.8,394.6-259.6,394.1-259.7,393.7z"/>
		</g>
		<g>
			<path class="st3" d="M-260.2,394.9c0.4-0.3,0.8-0.5,1.2-0.4C-259.3,394.9-259.8,395-260.2,394.9L-260.2,394.9z"/>
		</g>
		<g>
			<path d="M-259.9,395c-0.1,0-0.2,0-0.3,0l0,0l0,0c0.4-0.3,0.8-0.5,1.2-0.4l0,0l0,0C-259.2,394.8-259.6,395-259.9,395z
				 M-260.2,394.9c0.4,0.1,0.9,0,1.1-0.4C-259.4,394.5-259.8,394.6-260.2,394.9z"/>
		</g>
		<g>
			<path class="st3" d="M-259.8,394.5c0.4-0.3,0.8-0.5,1.2-0.4C-258.9,394.5-259.4,394.6-259.8,394.5L-259.8,394.5z"/>
		</g>
		<g>
			<path d="M-259.5,394.6c-0.1,0-0.2,0-0.3,0l0,0l0,0c0.4-0.3,0.8-0.5,1.2-0.4l0,0l0,0C-258.8,394.4-259.2,394.6-259.5,394.6z
				 M-259.8,394.5c0.4,0.1,0.9,0,1.1-0.4C-259,394.1-259.4,394.2-259.8,394.5z"/>
		</g>
		<g>
			<path class="st3" d="M-259.8,394.6c0.1-0.5,0.3-0.9,0.6-1.1C-259.2,393.9-259.5,394.4-259.8,394.6L-259.8,394.6z"/>
		</g>
		<g>
			<path d="M-259.9,394.6L-259.9,394.6c0.1-0.5,0.3-0.9,0.6-1.1l0,0l0,0C-259.1,393.9-259.5,394.4-259.9,394.6L-259.9,394.6z
				 M-259.2,393.5c-0.3,0.2-0.5,0.5-0.6,1C-259.5,394.4-259.2,393.9-259.2,393.5z"/>
		</g>
		<g>
			<path class="st3" d="M-259.4,394.2c0.4-0.3,0.8-0.5,1.2-0.4C-258.4,394.2-259,394.3-259.4,394.2L-259.4,394.2z"/>
		</g>
		<g>
			<path d="M-259.1,394.2c-0.1,0-0.2,0-0.3,0l0,0l0,0c0.4-0.3,0.8-0.5,1.2-0.4l0,0l0,0C-258.4,394.1-258.8,394.2-259.1,394.2z
				 M-259.4,394.2c0.4,0.1,0.9,0,1.1-0.4C-258.6,393.7-259,393.9-259.4,394.2z"/>
		</g>
		<g>
			<path class="st3" d="M-258.9,393.9c0.4-0.3,0.8-0.5,1.2-0.4C-257.9,393.9-258.5,394-258.9,393.9L-258.9,393.9z"/>
		</g>
		<g>
			<path d="M-258.6,393.9c-0.1,0-0.2,0-0.3,0l0,0l0,0c0.4-0.3,0.8-0.5,1.2-0.4l0,0l0,0C-257.9,393.8-258.2,393.9-258.6,393.9z
				 M-258.9,393.9c0.4,0.1,0.9,0,1.1-0.4C-258.1,393.4-258.5,393.6-258.9,393.9z"/>
		</g>
		<g>
			<path class="st3" d="M-259.4,394.2c0.1-0.5,0.3-0.9,0.7-1C-258.6,393.6-259,394-259.4,394.2L-259.4,394.2z"/>
		</g>
		<g>
			<path d="M-259.4,394.2L-259.4,394.2c0.1-0.5,0.4-0.9,0.7-1.1l0,0l0,0C-258.6,393.6-259,394-259.4,394.2L-259.4,394.2z
				 M-258.7,393.2c-0.3,0.1-0.6,0.5-0.7,1C-259,394-258.7,393.6-258.7,393.2z"/>
		</g>
		<g>
			<path class="st3" d="M-259.1,394c0.1-0.4,0.4-0.8,0.8-0.9C-258.3,393.5-258.7,393.9-259.1,394L-259.1,394z"/>
		</g>
		<g>
			<path d="M-259.1,394L-259.1,394c0.2-0.5,0.5-0.9,0.8-1l0,0l0,0C-258.3,393.5-258.7,393.9-259.1,394L-259.1,394z M-258.3,393.1
				c-0.3,0.1-0.6,0.4-0.8,0.9C-258.7,393.9-258.3,393.5-258.3,393.1z"/>
		</g>
		<g>
			<path class="st3" d="M-258.7,393.7c-1.7,1-3.6,3-4.2,4.3l0.1,0.1C-262.2,396.8-260.4,394.8-258.7,393.7L-258.7,393.7z"/>
		</g>
		<g>
			<path d="M-262.8,398.2l-0.1-0.1l0,0c0.6-1.3,2.4-3.3,4.2-4.4l0,0C-260.5,394.8-262.2,396.9-262.8,398.2L-262.8,398.2z
				 M-262.9,398.1L-262.9,398.1c0.6-1.1,2-2.8,3.5-3.9C-260.9,395.3-262.3,396.9-262.9,398.1z"/>
		</g>
	</g>
</g>
</svg>
