<?xml version="1.0" encoding="utf-8"?>
<!-- Generator: Adobe Illustrator 19.0.0, SVG Export Plug-In . SVG Version: 6.00 Build 0)  -->
<svg version="1.1" id="Layer_1" xmlns="http://www.w3.org/2000/svg" xmlns:xlink="http://www.w3.org/1999/xlink" x="0px" y="0px"
	 viewBox="-269 374 72 46" style="enable-background:new -269 374 72 46;" xml:space="preserve">
<style type="text/css">
	.st0{clip-path:url(#SVGID_2_);}
	.st1{fill:#DC2F34;}
	.st2{fill:#FFFFFF;}
	.st3{fill:#003671;}
</style>
<g>
	<defs>
		<path id="SVGID_1_" d="M-204,420H-262c-3.8,0-7-3.1-7-7V381c0-3.8,3.1-7,7-7h58.1c3.8,0,7,3.1,7,7V413
			C-197,416.9-200.1,420-204,420z"/>
	</defs>
	<clipPath id="SVGID_2_">
		<use xlink:href="#SVGID_1_"  style="overflow:visible;"/>
	</clipPath>
	<g class="st0">
		<g>
			<polygon class="st1" points="-195,422 -195,372.7 -269.9,372.7 -269.9,422 			"/>
		</g>
		<g>
			<path d="M-194.9,422.1H-270v-49.6h75.1V422.1z M-269.8,421.9h74.6v-49.1h-74.6V421.9z"/>
		</g>
		<g>
			<polygon class="st2" points="-218.1,376.9 -229.6,397.3 -241.1,376.9 			"/>
		</g>
		<g>
			<path d="M-229.6,397.5L-229.6,397.5l-11.6-20.6h23.2l-0.1,0.1L-229.6,397.5z M-241,377l11.4,20.2l11.4-20.2H-241z"/>
		</g>
		<g>
			<polygon class="st2" points="-208.9,408.7 -229.6,397.3 -208.9,386 			"/>
		</g>
		<g>
			<path d="M-208.9,408.8L-208.9,408.8l-20.9-11.5l0.1-0.1l20.8-11.4V408.8z M-229.5,397.3l20.5,11.3v-22.5L-229.5,397.3z"/>
		</g>
		<g>
			<polygon class="st2" points="-241.1,417.8 -229.6,397.3 -218.1,417.8 			"/>
		</g>
		<g>
			<path d="M-218,417.8h-23.2l11.6-20.6l0.1,0.1L-218,417.8z M-241,417.7h22.8l-11.4-20.2L-241,417.7z"/>
		</g>
		<g>
			<polygon class="st2" points="-250.3,386 -229.6,397.3 -250.3,408.7 			"/>
		</g>
		<g>
			<path d="M-250.3,408.8v-23l0.1,0.1l20.8,11.4l-0.1,0.1L-250.3,408.8z M-250.2,386.1v22.5l20.5-11.3L-250.2,386.1z"/>
		</g>
		<g>
			<polygon class="st2" points="-251.2,386.3 -251.2,374.9 -267.6,374.9 -267.6,386.3 			"/>
		</g>
		<g>
			<path d="M-251.1,386.3h-16.6v-11.5h16.6V386.3z M-267.6,386.2h16.3V375h-16.3V386.2z"/>
		</g>
		<g>
			<polygon class="st1" points="-257,385.4 -257,375.8 -252.1,375.8 -252.1,385.4 			"/>
		</g>
		<g>
			<path d="M-252,385.5h-5v-9.8h5V385.5z M-256.9,385.4h4.8v-9.5h-4.8V385.4z"/>
		</g>
		<g>
			<polygon class="st3" points="-266.7,385.4 -266.7,375.8 -261.8,375.8 -261.8,385.4 			"/>
		</g>
		<g>
			<path d="M-261.8,385.5h-5v-9.8h5V385.5z M-266.6,385.4h4.8v-9.5h-4.8V385.4z"/>
		</g>
		<g>
			<polygon class="st2" points="-261.8,385.4 -261.8,375.8 -257,375.8 -257,385.4 			"/>
		</g>
		<g>
			<path d="M-256.9,385.5h-5v-9.8h5V385.5z M-261.8,385.4h4.8v-9.5h-4.8V385.4z"/>
		</g>
	</g>
</g>
</svg>
