<?xml version="1.0" encoding="utf-8"?>
<!-- Generator: Adobe Illustrator 19.0.0, SVG Export Plug-In . SVG Version: 6.00 Build 0)  -->
<svg version="1.1" id="Layer_1" xmlns="http://www.w3.org/2000/svg" xmlns:xlink="http://www.w3.org/1999/xlink" x="0px" y="0px"
	 viewBox="-269 374 72 46" style="enable-background:new -269 374 72 46;" xml:space="preserve">
<style type="text/css">
	.st0{clip-path:url(#SVGID_2_);}
	.st1{fill:#E95123;}
	.st2{fill:#004288;}
	.st3{fill:#FFFFFF;}
</style>
<g>
	<defs>
		<path id="SVGID_1_" d="M-204,420H-262c-3.8,0-7-3.1-7-7V381c0-3.8,3.1-7,7-7h58.1c3.8,0,7,3.1,7,7V413
			C-197,416.9-200.1,420-204,420z"/>
	</defs>
	<clipPath id="SVGID_2_">
		<use xlink:href="#SVGID_1_"  style="overflow:visible;"/>
	</clipPath>
	<g class="st0">
		<g>
			<polygon class="st1" points="-178.9,420.7 -178.9,373.4 -273.5,373.4 -273.5,420.7 			"/>
		</g>
		<g>
			<path d="M-178.7,420.9h-94.9v-47.6h94.9V420.9z M-273.4,420.6h94.4v-47.1h-94.4V420.6z"/>
		</g>
		<g>
			<polygon class="st2" points="-226.2,397.1 -226.2,373.4 -273.5,373.4 -273.5,397.1 			"/>
		</g>
		<g>
			<path d="M-226.1,397.2h-47.6v-23.9h47.6V397.2z M-273.4,397h47.1v-23.4h-47.1V397z"/>
		</g>
		<g>
			<polygon class="st3" points="-257.1,380.3 -257.7,382.2 -259.7,382.2 -258.1,383.4 -258.7,385.3 -257.1,384.2 -255.5,385.3 
				-256.1,383.4 -254.5,382.3 -256.5,382.3 			"/>
		</g>
		<g>
			<polygon class="st3" points="-242.4,379.3 -243,381.1 -244.9,381.1 -243.4,382.3 -244,384 -242.4,382.9 -240.9,384 -241.5,382.2 
				-240,381.1 -241.9,381.1 			"/>
		</g>
		<g>
			<polygon class="st3" points="-249.8,389.8 -250.6,392.2 -253.1,392.2 -251.1,393.7 -251.9,396.1 -249.8,394.6 -247.8,396.1 
				-248.6,393.7 -246.5,392.2 -249.1,392.2 			"/>
		</g>
		<g>
			<polygon class="st3" points="-246.2,385.4 -246.6,386.6 -247.9,386.6 -246.8,387.4 -247.2,388.6 -246.2,387.8 -245.2,388.6 
				-245.6,387.3 -244.6,386.6 -245.8,386.6 			"/>
		</g>
		<g>
			<polygon class="st3" points="-249.8,374.4 -250.4,376.3 -252.5,376.3 -250.8,377.5 -251.5,379.4 -249.8,378.3 -248.2,379.4 
				-248.8,377.5 -247.2,376.3 -249.2,376.3 			"/>
		</g>
	</g>
</g>
</svg>
