<?xml version="1.0" encoding="utf-8"?>
<!-- Generator: Adobe Illustrator 19.0.0, SVG Export Plug-In . SVG Version: 6.00 Build 0)  -->
<svg version="1.1" id="Layer_1" xmlns="http://www.w3.org/2000/svg" xmlns:xlink="http://www.w3.org/1999/xlink" x="0px" y="0px"
	 viewBox="-269 374 72 46" style="enable-background:new -269 374 72 46;" xml:space="preserve">
<style type="text/css">
	.st0{clip-path:url(#SVGID_2_);}
	.st1{fill:#FFFFFF;}
	.st2{fill:#E40520;}
</style>
<g>
	<defs>
		<path id="SVGID_1_" d="M-204,420H-262c-3.8,0-7-3.1-7-7V381c0-3.8,3.1-7,7-7h58.1c3.8,0,7,3.1,7,7V413
			C-197,416.9-200.1,420-204,420z"/>
	</defs>
	<clipPath id="SVGID_2_">
		<use xlink:href="#SVGID_1_"  style="overflow:visible;"/>
	</clipPath>
	<g class="st0">
		<g>
			<polygon class="st1" points="-270.5,405.8 -195.5,405.8 -195.5,389.2 -270.5,389.2 			"/>
		</g>
		<g>
			<path d="M-195.4,406h-75.2V389h75.2V406z M-270.4,405.7h74.7v-16.4h-74.7V405.7z"/>
		</g>
		<g>
			<polygon class="st2" points="-195.5,389.2 -270.5,389.2 -270.5,372.5 -195.5,372.5 			"/>
		</g>
		<g>
			<path d="M-195.4,389.3h-75.2v-16.9h75.2V389.3z M-270.4,389h74.7v-16.4h-74.7V389z"/>
		</g>
		<g>
			<polygon points="-195.5,422.5 -270.5,422.5 -270.5,405.8 -195.5,405.8 			"/>
		</g>
		<g>
			<path d="M-195.4,422.6h-75.2v-16.9h75.2V422.6z M-270.4,422.4h74.7V406h-74.7V422.4z"/>
		</g>
	</g>
</g>
</svg>
