<?xml version="1.0" encoding="utf-8"?>
<!-- Generator: Adobe Illustrator 19.0.0, SVG Export Plug-In . SVG Version: 6.00 Build 0)  -->
<svg version="1.1" id="Layer_1" xmlns="http://www.w3.org/2000/svg" xmlns:xlink="http://www.w3.org/1999/xlink" x="0px" y="0px"
	 viewBox="-269 374 72 46" style="enable-background:new -269 374 72 46;" xml:space="preserve">
<style type="text/css">
	.st0{clip-path:url(#SVGID_2_);}
	.st1{fill:none;stroke:#000000;stroke-width:1.3578;}
	.st2{fill:#3F3D90;}
	.st3{fill:#FFFFFF;}
	.st4{fill:#E12D13;}
</style>
<g>
	<defs>
		<path id="SVGID_1_" d="M-204,420H-262c-3.8,0-7-3.1-7-7V381c0-3.8,3.1-7,7-7h58.1c3.8,0,7,3.1,7,7V413
			C-197,416.9-200.1,420-204,420z"/>
	</defs>
	<clipPath id="SVGID_2_">
		<use xlink:href="#SVGID_1_"  style="overflow:visible;"/>
	</clipPath>
	<g class="st0">
		<g>
			<path d="M-192.7,422.1h-80.6v-50.1h80.6V422.1z M-271.9,420.7h77.9v-47.4h-77.9V420.7z"/>
		</g>
		<g>
			<path class="st1" d="M-233,397"/>
		</g>
		<g>
			<path class="st1" d="M-233,397"/>
		</g>
		<g>
			<rect x="-272.6" y="372.6" class="st2" width="26.4" height="48.8"/>
		</g>
		<g>
			<rect x="-246.2" y="372.6" class="st3" width="26.4" height="48.8"/>
		</g>
		<g>
			<rect x="-219.8" y="372.6" class="st4" width="26.4" height="48.8"/>
		</g>
		<g>
			<g>
				<path d="M-192.7,422.1h-80.6v-50.1h80.6V422.1z M-271.9,420.7h77.9v-47.4h-77.9V420.7z"/>
			</g>
			<g>
				<path class="st3" d="M-233,397"/>
			</g>
		</g>
	</g>
</g>
</svg>
