<?xml version="1.0" encoding="utf-8"?>
<!-- Generator: Adobe Illustrator 19.0.0, SVG Export Plug-In . SVG Version: 6.00 Build 0)  -->
<svg version="1.1" id="Layer_1" xmlns="http://www.w3.org/2000/svg" xmlns:xlink="http://www.w3.org/1999/xlink" x="0px" y="0px"
	 viewBox="-269 374 72 46" style="enable-background:new -269 374 72 46;" xml:space="preserve">
<style type="text/css">
	.st0{clip-path:url(#SVGID_2_);}
	.st1{fill:#E9511D;}
	.st2{fill:#004996;}
	.st3{fill:#FFFFFF;}
	.st4{fill:#00885B;}
	.st5{fill:#FCC24F;}
	.st6{fill:#1D1D1B;}
</style>
<g>
	<defs>
		<path id="SVGID_1_" d="M-204,420H-262c-3.8,0-7-3.1-7-7V381c0-3.8,3.1-7,7-7h58.1c3.8,0,7,3.1,7,7V413
			C-197,416.9-200.1,420-204,420z"/>
	</defs>
	<clipPath id="SVGID_2_">
		<use xlink:href="#SVGID_1_"  style="overflow:visible;"/>
	</clipPath>
	<g class="st0">
		<g>
			<polygon class="st1" points="-196.5,397 -196.5,372.7 -269.5,372.7 -269.5,397 			"/>
		</g>
		<g>
			<path d="M-196.4,397.1h-73.2v-24.6h73.2V397.1z M-269.3,396.9h72.7v-24.1h-72.7V396.9z"/>
		</g>
		<g>
			<polygon class="st2" points="-196.5,397 -196.5,421.3 -269.5,421.3 -269.5,397 			"/>
		</g>
		<g>
			<path d="M-196.4,421.4h-73.2v-24.6h73.2V421.4z M-269.3,421.2h72.7v-24.1h-72.7V421.2z"/>
		</g>
		<g>
			<polygon class="st3" points="-196.5,388.9 -230.5,388.9 -254.9,372.7 -260.7,372.7 -231.5,392.1 -196.5,392.1 			"/>
		</g>
		<g>
			<path d="M-196.4,392.3h-35.1l0,0l-29.5-19.7h6.3l0,0l24.3,16.2h34.1V392.3z M-231.5,392h34.8v-3h-33.9l0,0l-24.3-16.2h-5.4
				L-231.5,392z"/>
		</g>
		<g>
			<polygon class="st3" points="-196.5,405.1 -230.5,405.1 -254.9,421.3 -260.7,421.3 -231.5,401.9 -196.5,401.9 			"/>
		</g>
		<g>
			<path d="M-254.8,421.4h-6.3l0.3-0.2l29.2-19.5h35.1v3.5h-34.1L-254.8,421.4z M-260.3,421.2h5.4l24.3-16.2h33.9v-3h-34.8
				L-260.3,421.2z"/>
		</g>
		<g>
			<polygon class="st4" points="-241.8,397 -269.5,415.5 -269.5,421.3 -260.7,421.3 -231.5,401.9 -196.5,401.9 -196.5,392.1 
				-231.5,392.1 -260.7,372.7 -269.5,372.7 -269.5,378.5 			"/>
		</g>
		<g>
			<path d="M-260.7,421.4h-8.9v-6L-242,397l-27.6-18.4v-6h8.9l0,0l29.1,19.4h35.1v10h-35.1L-260.7,421.4z M-269.3,421.2h8.6
				l29.2-19.4h34.9v-9.5h-34.9l0,0l-29.1-19.4h-8.6v5.7l27.8,18.5l-0.2,0.1l-27.6,18.4V421.2z"/>
		</g>
		<g>
			<polygon class="st5" points="-241.8,397 -269.5,415.5 -269.5,411.6 -247.6,397 -269.5,382.4 -269.5,378.5 			"/>
		</g>
		<g>
			<path d="M-269.6,415.7v-4.2l21.8-14.5l-21.8-14.5v-4.2l0.2,0.1l27.9,18.6l-0.2,0.1L-269.6,415.7z M-269.3,411.6v3.6L-242,397
				l-27.3-18.2v3.6l22,14.6l-0.2,0.1L-269.3,411.6z"/>
		</g>
		<g>
			<polygon class="st6" points="-269.5,411.6 -247.6,397 -269.5,382.4 			"/>
			<path d="M-269.6,411.8v-29.6l22.2,14.8l-0.2,0.1L-269.6,411.8z M-269.3,382.7v28.7l21.5-14.3L-269.3,382.7z"/>
		</g>
	</g>
</g>
</svg>
