<?xml version="1.0" encoding="utf-8"?>
<!-- Generator: Adobe Illustrator 19.0.0, SVG Export Plug-In . SVG Version: 6.00 Build 0)  -->
<svg version="1.1" id="Layer_1" xmlns="http://www.w3.org/2000/svg" xmlns:xlink="http://www.w3.org/1999/xlink" x="0px" y="0px"
	 viewBox="-269 374 72 46" style="enable-background:new -269 374 72 46;" xml:space="preserve">
<style type="text/css">
	.st0{clip-path:url(#SVGID_2_);}
	.st1{fill:#009E59;}
	.st2{fill:#FFFFFF;}
	.st3{fill:none;stroke:#000000;stroke-width:0.25;}
	.st4{fill:#F3912D;}
	.st5{fill:#1D1D1B;}
	.st6{fill:#E63027;}
</style>
<g>
	<defs>
		<path id="SVGID_1_" d="M-204,420H-262c-3.8,0-7-3.1-7-7V381c0-3.8,3.1-7,7-7h58.1c3.8,0,7,3.1,7,7V413
			C-197,416.9-200.1,420-204,420z"/>
	</defs>
	<clipPath id="SVGID_2_">
		<use xlink:href="#SVGID_1_"  style="overflow:visible;"/>
	</clipPath>
	<g class="st0">
		<g>
			<polygon class="st1" points="-195.8,421.3 -195.8,371.7 -270.2,371.7 -270.2,421.3 			"/>
		</g>
		<g>
			<path d="M-195.7,421.4h-74.6v-49.8h74.6V421.4z M-270,421.1h74.1v-49.3H-270V421.1z"/>
		</g>
		<g>
			<path class="st2" d="M-233,396.5"/>
		</g>
		<g>
			<path class="st3" d="M-233,396.5"/>
		</g>
		<g>
			<polygon class="st4" points="-195.8,421.3 -195.8,389.4 -204.7,389.4 -204.7,421.3 			"/>
		</g>
		<g>
			<path d="M-195.7,421.4h-9.1v-32.1h9.1V421.4z M-204.6,421.1h8.6v-31.6h-8.6V421.1z"/>
		</g>
		<g>
			<polygon class="st5" points="-204.7,421.3 -204.7,389.4 -213.6,389.4 -213.6,421.3 			"/>
			<path d="M-204.6,421.4h-9.1v-32.1h9.1V421.4z M-213.4,421.1h8.6v-31.6h-8.6V421.1z"/>
		</g>
		<g>
			<polygon class="st6" points="-213.6,421.3 -213.6,389.4 -222.4,389.4 -222.4,421.3 			"/>
		</g>
		<g>
			<path d="M-213.4,421.4h-9.1v-32.1h9.1V421.4z M-222.3,421.1h8.6v-31.6h-8.6V421.1z"/>
		</g>
		<g>
			<path class="st4" d="M-208.4,377.1c-0.2,0-0.3-0.1-0.4-0.2c0.3-0.2,0.5-0.1,0.8,0.1c0-0.2,0-0.4-0.1-0.5
				c-0.1-0.1-0.2-0.1-0.3-0.1c-0.1,0-0.3,0-0.4,0c-0.1-0.3-0.5-0.2-0.8-0.1c-0.6,0.2-1.1,0.6-1.3,1c-0.1,0.2-0.1,0.2-0.2,0.3
				c0.1,0,0,0,0.1,0c0,0.4-0.1,0.8,0,1.1c-0.1,0.4,0,0.6,0.1,0.7c0.1,0.1,0.2,0.2,0.2,0.3s0.1,0.3,0.2,0.3c0.1,0.1,0.2,0.2,0.2,0.3
				c0,0.1,0.3,0.4,0.4,0.4c0,0,0.1,0.1,0.1,0.2c-0.1,0.7,0.4,1.5,0.3,2.2c0.1,0,0.2,0,0.3,0c0.1,0.6,0.2,0.9-0.4,1.1
				c-0.5,0.2-0.8,0.4-0.7,0.6c0.1,0.1,0.3,0,0.5-0.1c0.1-0.1,0.2-0.2,0.3-0.2s0.1,0,0.1,0.1c0,0.1-0.3,0.4-0.3,0.5s0.1,0.2,0.3,0.1
				c0.2-0.1,0.3-0.4,0.4-0.6c0-0.1,0.1-0.2,0.1,0c0,0.2-0.1,0.5,0.1,0.6c0.3,0.1,0.3-0.3,0.3-0.5c-0.1-0.3-0.1-0.4-0.1-0.5
				c0-0.1,0.1-0.2,0.2-0.1s0.3,0,0.3-0.2c0-0.2-0.1-0.3-0.3-0.2c-0.2,0.1-0.3,0.1-0.2-0.1c0-0.1,0.1-0.3,0.1-0.4
				c0.1,0.2,0.7,0.2,1,0c0.1,0.3,0.2,0.6-0.1,0.8c-0.3,0.3-0.6,0.5-0.6,0.7c0,0.2,0.1,0.3,0.3,0.2c0.2-0.1,0.3-0.2,0.3-0.4
				s0.1-0.1,0.1,0c0,0.2-0.1,0.4-0.1,0.5c0,0.1,0.2,0.1,0.3,0c0.1-0.1,0.1-0.3,0-0.5c0-0.2,0-0.3,0-0.4c0-0.1,0.1-0.2,0.2,0
				c0.1,0.2,0.1,0.3,0.3,0.4c0.2,0,0.3,0,0.2-0.2c0-0.2-0.2-0.4-0.4-0.5c-0.2-0.2-0.1-0.2-0.1-0.4c0-0.1,0-0.4,0-0.5
				c0.2,0.1,0.4,0.1,0.5,0.1s0.3,0,0.1-0.2c-0.3-0.3-0.2-0.5-0.4-0.7c-0.2-0.2-0.4-0.5-0.5-0.8c-0.1-0.3-0.2-0.8-0.5-1.1
				c-0.2-0.1-0.2-0.5-0.2-1c0-0.5,0-1-0.4-1.2c-0.4-0.2-0.4-0.4-0.3-0.6C-208.9,377.5-208.7,377.3-208.4,377.1c0,0.1,0.1,0.1,0.1,0
				C-208.3,377.2-208.3,377.1-208.4,377.1L-208.4,377.1z"/>
		</g>
		<g>
			<path d="M-207.7,385.4C-207.8,385.4-207.8,385.4-207.7,385.4c-0.1,0-0.2-0.1-0.2-0.2c0-0.1,0-0.2,0-0.4c-0.1,0.1-0.2,0.2-0.3,0.2
				c-0.1,0-0.2,0.1-0.2,0c-0.1,0-0.1-0.1-0.1-0.3c0-0.2,0.2-0.4,0.6-0.8c0.2-0.2,0.2-0.4,0.1-0.6c0,0,0-0.1,0-0.1
				c-0.2,0.1-0.7,0.1-0.9,0c0,0.1,0,0.1-0.1,0.2c0,0,0,0.1-0.1,0.1c0,0.1,0,0.1,0,0.1c0,0,0,0,0,0c0,0,0,0,0.1,0c0.1,0,0.2,0,0.2,0
				c0.1,0,0.1,0.1,0.2,0.3c0,0.1,0,0.1-0.1,0.2c-0.1,0.1-0.2,0.1-0.3,0.1c0,0-0.1,0-0.1,0.1c0,0.1,0,0.3,0.1,0.5
				c0.1,0.2,0,0.4-0.1,0.5c0,0-0.1,0.1-0.3,0.1c-0.2-0.1-0.2-0.3-0.2-0.4c-0.1,0.1-0.2,0.3-0.3,0.4c-0.1,0.1-0.2,0.1-0.3,0
				c-0.1,0-0.1-0.1-0.1-0.2c0-0.1,0.1-0.2,0.2-0.4c0.1-0.1,0.1-0.2,0.1-0.2c0,0,0,0,0,0c0,0,0,0,0,0c-0.1,0-0.2,0.1-0.3,0.2
				c-0.1,0-0.2,0.2-0.4,0.2c-0.1,0-0.1,0-0.2-0.1c-0.1-0.1-0.1-0.2,0-0.2c0-0.2,0.3-0.3,0.8-0.5c0.5-0.2,0.4-0.4,0.4-1
				c-0.1,0-0.2,0-0.3,0l-0.1,0l0-0.1c0.1-0.3,0-0.7-0.1-1.1c-0.1-0.4-0.2-0.7-0.1-1.1c0,0,0,0,0-0.1c0,0,0,0,0-0.1
				c-0.1-0.1-0.5-0.4-0.5-0.5c0-0.1-0.1-0.2-0.1-0.2c-0.1-0.1-0.2-0.2-0.2-0.4c0-0.1-0.1-0.2-0.2-0.3c-0.1-0.1-0.2-0.3-0.1-0.8
				c-0.1-0.2,0-0.6,0-0.9l0-0.1h0l-0.1,0l0.1-0.1c0,0,0-0.1,0.1-0.1c0-0.1,0.1-0.1,0.1-0.2c0.2-0.4,0.7-0.8,1.3-1
				c0.3-0.1,0.7-0.3,0.9,0c0,0,0.1,0,0.2,0c0.1,0,0.1,0,0.2,0l0,0c0.1,0,0.2,0,0.4,0.1c0.1,0.1,0.2,0.4,0.1,0.5l0,0.1l-0.1-0.1
				c-0.2-0.2-0.4-0.2-0.6-0.1c0.1,0.1,0.2,0.1,0.3,0.1c0,0,0,0,0,0c0.1,0,0.1,0,0.1,0.1l0.1,0.1l-0.1,0.1c0,0-0.1,0.1-0.2,0.1
				c-0.2,0-0.4,0.2-0.5,0.4c-0.1,0.1-0.1,0.2-0.1,0.2c0,0.1,0.1,0.2,0.3,0.3c0.4,0.3,0.4,0.8,0.4,1.3c0,0.5,0,0.8,0.2,1
				c0.2,0.2,0.4,0.6,0.5,1.1c0.1,0.3,0.3,0.6,0.5,0.8c0.1,0.1,0.1,0.2,0.2,0.3c0,0.1,0.1,0.2,0.2,0.4c0,0,0.1,0.1,0.1,0.2
				c0,0.1-0.2,0.1-0.2,0.1l0,0c-0.1,0-0.2,0-0.4-0.1c0,0.1,0,0.3,0,0.4c0,0,0,0.1,0,0.1c0,0.1,0,0.1,0.1,0.2
				c0.2,0.1,0.4,0.4,0.5,0.6c0,0.1,0,0.2-0.1,0.2c-0.1,0.1-0.2,0.1-0.3,0c-0.2-0.1-0.2-0.2-0.3-0.3l0-0.1c0-0.1,0-0.1,0-0.1
				c0,0,0,0,0,0.1c0,0.1-0.1,0.2,0,0.4c0,0.2,0,0.4-0.1,0.5C-207.6,385.4-207.6,385.4-207.7,385.4z M-207.8,384.5
				C-207.8,384.5-207.8,384.5-207.8,384.5c0.1,0,0.1,0.1,0.1,0.2l0,0.1c0,0.1-0.1,0.3-0.1,0.4c0,0,0,0.1,0.1,0.1c0,0,0.1,0,0.2-0.1
				c0.1-0.1,0.1-0.3,0-0.4c0-0.2,0-0.4,0.1-0.4c0-0.1,0.1-0.1,0.2-0.1c0,0,0,0,0,0c0.1,0,0.1,0.1,0.1,0.1l0,0.1
				c0.1,0.2,0.1,0.2,0.2,0.3c0.1,0,0.1,0,0.1,0c0,0,0-0.1,0-0.1c0-0.1-0.2-0.3-0.4-0.5c-0.2-0.1-0.2-0.2-0.2-0.4c0,0,0,0,0-0.1
				c0-0.1,0-0.3,0-0.4l0-0.2l0.1,0.1c0.1,0.1,0.3,0.1,0.4,0.1l0,0c0.1,0,0.1,0,0.1,0c0,0,0,0,0,0c-0.2-0.2-0.2-0.3-0.3-0.4
				c0-0.1-0.1-0.2-0.2-0.3c-0.2-0.2-0.4-0.6-0.5-0.9c-0.1-0.5-0.3-0.8-0.5-1c-0.2-0.2-0.2-0.7-0.2-1.1c0-0.5,0-0.9-0.3-1.1
				c-0.2-0.1-0.3-0.2-0.4-0.4c0-0.1,0-0.3,0.1-0.3c0.1-0.2,0.3-0.4,0.5-0.4c-0.1,0-0.2-0.1-0.2-0.2l0-0.1l0,0c0.3-0.2,0.5-0.2,0.7,0
				c0-0.1,0-0.2-0.1-0.3c-0.1-0.1-0.1-0.1-0.3-0.1l0,0c-0.1,0-0.1,0-0.2,0c-0.1,0-0.1,0-0.2,0h0l0,0c-0.1-0.2-0.4-0.2-0.8,0
				c-0.5,0.2-1,0.6-1.2,0.9c0,0.1-0.1,0.1-0.1,0.2l0,0l0,0.1l0,0.2c0,0.4-0.1,0.7,0,0.9l0,0l0,0c-0.1,0.4,0,0.6,0.1,0.7
				c0.1,0.1,0.2,0.2,0.2,0.3c0,0.1,0.1,0.2,0.2,0.3c0.1,0.1,0.2,0.2,0.2,0.3c0,0.1,0.3,0.3,0.4,0.4c0,0,0.1,0.1,0.1,0.1
				c0,0,0,0,0,0.1l0,0l0,0c-0.1,0.4,0,0.7,0.1,1.1c0.1,0.3,0.2,0.7,0.1,1c0.1,0,0.2,0,0.2,0l0.1,0l0,0.1c0.1,0.6,0.1,0.9-0.4,1.1
				c-0.4,0.1-0.6,0.3-0.7,0.4c0,0,0,0.1,0,0.1c0,0,0,0,0.1,0c0,0,0,0,0,0c0.1,0,0.2-0.1,0.3-0.2c0.1-0.1,0.2-0.2,0.4-0.2
				c0,0,0.1,0,0.1,0c0,0,0,0.1,0,0.2c0,0.1-0.1,0.1-0.1,0.2c-0.1,0.1-0.2,0.2-0.2,0.3c0,0,0,0.1,0,0.1c0,0,0.1,0,0.2,0
				c0.2-0.1,0.3-0.4,0.4-0.5c0-0.1,0.1-0.2,0.1-0.2c0.1,0,0.1,0.1,0.1,0.2c0,0,0,0.1,0,0.1c0,0.2,0,0.4,0.1,0.4c0.1,0,0.1,0,0.1,0
				c0.1-0.1,0.1-0.3,0-0.4c-0.1-0.3-0.1-0.5-0.1-0.6c0-0.1,0.1-0.2,0.3-0.2c0,0,0.1,0,0.2,0c0,0,0,0,0-0.1c0-0.1,0-0.1-0.1-0.2
				c0,0-0.1,0-0.1,0c-0.1,0.1-0.2,0.1-0.3,0c-0.1,0-0.1-0.1,0-0.2c0,0,0-0.1,0.1-0.2c0-0.1,0.1-0.2,0.1-0.2l0-0.2l0.1,0.1
				c0.1,0.1,0.6,0.1,0.9,0l0.1,0l0,0.1c0,0,0,0.1,0,0.1c0.1,0.2,0.1,0.5-0.2,0.7c-0.1,0.1-0.6,0.5-0.6,0.7c0,0.1,0,0.2,0.1,0.2
				c0,0,0.1,0,0.1,0c0.1-0.1,0.3-0.2,0.3-0.3C-207.9,384.6-207.9,384.5-207.8,384.5z"/>
		</g>
		<g>
			<path class="st4" d="M-211.1,378.2c0,0.2,0,0.4,0,0.5c-0.1,0.4,0,0.6,0.1,0.7c0.1,0.1,0.2,0.2,0.2,0.3c0,0.1,0.1,0.3,0.2,0.3
				c0.1,0.1,0.2,0.2,0.2,0.3c0,0.1,0.3,0.4,0.4,0.4c0,0,0.1,0.1,0.1,0.2c-0.1,0.3,0,0.6,0.1,0.9c-0.7,0.6-1.4,0.3-1.1-0.3
				c-0.6,0.5-1.6,0.4-1.3,0c-0.9,0.3-1.2,0.1-1-0.2c-0.7,0.3-1.1,0-1-0.2c-0.6,0.2-1,0.1-1.1,0c-0.1-0.1,0.1-0.3,0.2-0.5
				c-0.3,0.1-0.6,0.1-0.8,0.1c-0.3,0-0.2-0.1-0.1-0.2c0.1-0.1,0.1-0.3,0.3-0.5c-0.5,0.1-1.1,0.2-1.6,0c-0.1,0-0.2-0.1-0.1-0.1
				s0.3-0.3,0.7-0.4c-0.7,0.1-2.1,0.2-2.5-0.3c0.4,0.1,0.9-0.1,1.2-0.2c-1.2-0.1-2.9-1-2.9-1.8c0.3,0.6,1,0.8,1.6,0.9
				c-0.8-0.5-1.2-1.1-1.2-1.4c0.5,0.4,1.2,1,1.9,1.1c-0.5-0.3-1.1-1-1.3-1.6c0.4,0.3,1.3,0.8,1.9,1c-0.4-0.3-1.1-1.2-1.1-1.6
				c0.2,0.2,0.6,0.5,1.4,1c0.8,0.5,1.3,0.5,2,0.6c-0.1-0.2-0.2-0.4-0.2-0.5c0.2,0,0.4,0.1,1,0.5c0.6,0.4,1.9,0.5,2.6,0.8
				C-212.1,378.2-211.3,378.1-211.1,378.2L-211.1,378.2z"/>
		</g>
		<g>
			<path d="M-210.5,382.2c-0.1,0-0.3,0-0.3-0.1c-0.1-0.1-0.2-0.2-0.1-0.4c-0.4,0.3-1,0.3-1.2,0.1c-0.1-0.1-0.1-0.1-0.1-0.2
				c-0.5,0.1-0.8,0.1-1,0c-0.1-0.1-0.1-0.1-0.1-0.2c-0.5,0.2-0.8,0.1-1-0.1c0,0-0.1-0.1-0.1-0.1c-0.6,0.1-1,0-1.1-0.1
				c-0.1-0.1,0-0.2,0.1-0.4c-0.2,0-0.4,0-0.6,0c-0.1,0-0.2-0.1-0.2-0.1c0-0.1,0-0.1,0-0.2l0-0.1c0-0.1,0.1-0.2,0.2-0.3
				c-0.6,0.1-1.1,0.1-1.4,0l0,0c-0.1,0-0.2-0.1-0.2-0.1c0,0,0-0.1,0-0.1c0.1-0.1,0.2-0.2,0.4-0.3c-0.6,0.1-1.8,0.1-2.2-0.3l-0.1-0.1
				l0.2,0c0.3,0.1,0.6,0,0.9-0.1c-1.2-0.2-2.7-1-2.7-1.8l0-0.2l0.1,0.2c0.3,0.4,0.6,0.6,1.1,0.8c-0.6-0.4-0.8-0.9-0.8-1.2l0-0.2
				l0.1,0.1c0.5,0.5,1,0.8,1.5,1c-0.4-0.4-0.9-1-1-1.4l-0.1-0.2l0.2,0.2c0.3,0.3,1,0.7,1.6,0.9c-0.4-0.4-0.9-1-0.9-1.5l0-0.1
				l0.1,0.1c0.1,0.1,0.5,0.4,1.4,1c0.6,0.4,1,0.4,1.5,0.5c0.1,0,0.2,0,0.3,0.1c-0.1-0.1-0.2-0.3-0.2-0.4l0-0.1l0.1,0
				c0.2,0,0.4,0.1,1,0.5c0.3,0.2,0.8,0.3,1.4,0.4c0.4,0.1,0.9,0.2,1.2,0.3c0.3,0.1,0.6,0.1,0.9,0.1c0.3,0,0.5,0,0.6,0.1l0,0l0,0
				c0,0.2,0,0.4,0,0.5l0,0l0,0c-0.1,0.4,0,0.6,0.1,0.7c0.1,0.1,0.2,0.2,0.2,0.3c0,0.1,0.1,0.2,0.2,0.3c0.1,0.1,0.2,0.2,0.2,0.3
				c0,0.1,0.3,0.3,0.4,0.4c0,0,0.1,0.1,0.1,0.1c0,0,0,0,0,0.1l0,0l0,0c-0.1,0.3,0,0.6,0.1,0.9l0,0l0,0
				C-210.1,382.1-210.3,382.2-210.5,382.2z M-210.9,381.5L-210.9,381.5c0,0.3,0,0.4,0.1,0.5c0.2,0.1,0.5,0.1,0.9-0.2
				c-0.1-0.3-0.1-0.6-0.1-0.9c0,0,0,0,0-0.1c0,0,0,0,0-0.1c-0.1-0.1-0.5-0.4-0.5-0.5c0-0.1-0.1-0.2-0.1-0.2
				c-0.1-0.1-0.2-0.2-0.2-0.4c0-0.1-0.1-0.2-0.2-0.3c-0.1-0.1-0.2-0.3-0.1-0.8c0-0.1,0-0.3,0-0.5c-0.1,0-0.3,0-0.5-0.1
				c-0.3,0-0.7,0-1-0.2c-0.3-0.1-0.8-0.2-1.2-0.3c-0.5-0.1-1.1-0.2-1.4-0.5c-0.5-0.3-0.7-0.4-0.8-0.4c0,0.1,0.1,0.2,0.2,0.3l0.1,0.1
				l-0.2,0c-0.2,0-0.3-0.1-0.5-0.1c-0.5-0.1-0.9-0.1-1.5-0.5c-0.7-0.4-1.1-0.7-1.3-0.9c0.1,0.4,0.7,1.1,1.1,1.4l-0.1,0.1
				c-0.5-0.1-1.3-0.5-1.7-0.9c0.2,0.5,0.8,1.1,1.2,1.3l0,0.1c-0.7-0.1-1.4-0.6-1.8-1c0.1,0.3,0.4,0.8,1.1,1.2l0,0.1
				c-0.5-0.1-1-0.3-1.4-0.7c0.3,0.7,1.7,1.3,2.8,1.4l0,0.1c-0.3,0.1-0.6,0.2-1,0.2c0,0,0,0,0,0c0.5,0.3,1.6,0.2,2.3,0.1l0,0.1
				c-0.3,0.1-0.6,0.4-0.6,0.4c0,0,0,0,0,0c0,0,0.1,0,0.1,0l0,0c0.3,0.1,0.9,0.1,1.5,0l0.2,0l-0.2,0.2c-0.2,0.2-0.2,0.3-0.3,0.4
				l0,0.1c0,0,0,0.1,0,0.1c0,0,0,0,0.1,0c0.3,0,0.5,0,0.8-0.1l0.1,0.1c-0.1,0.1-0.3,0.3-0.2,0.4c0,0.1,0.4,0.2,1,0l0.1,0l-0.1,0.1
				c0,0,0,0.1,0,0.1c0.1,0.1,0.5,0.2,0.9,0l0.1-0.1l-0.1,0.1c0,0.1,0,0.1,0,0.2c0,0,0.2,0.2,0.9-0.1l0.1-0.1l-0.1,0.1
				c0,0.1,0,0.1,0,0.2C-212,381.9-211.3,381.9-210.9,381.5z"/>
		</g>
		<g>
			<path class="st4" d="M-206.7,383.2c0,0,0-0.1,0-0.1c-0.3-0.3-0.2-0.5-0.4-0.7c-0.2-0.2-0.4-0.5-0.5-0.8c-0.1-0.3-0.2-0.8-0.5-1.1
				c-0.2-0.1-0.2-0.5-0.2-1c0-0.4,0-0.8-0.2-1.1c0.5-0.1,0.9-0.2,1.1,0c0.8-0.2,1.5-0.3,2.2-0.3c0.8-0.1,2.3-0.4,3.3-1.1
				c-0.1,0.3-0.4,0.6-0.7,0.8c1.1-0.3,2.4-0.7,3.5-1.6c0,0.6-0.5,1-0.7,1.2c0.7-0.4,1.8-0.9,2.2-1.6c0.2,0.7-1,1.5-1.6,2
				c0.6-0.3,1.4-0.6,1.7-1c0,0.5-0.7,1.2-1.4,1.6c0.7-0.3,1.4-0.5,1.9-0.9c0.1,0.5-2,1.8-3.1,2.1c0.9-0.2,2.1-0.5,2.6-0.8
				c0,0.1-0.2,0.3-0.4,0.4c-0.6,0.5-1.6,0.7-2.2,0.8c0.1,0.3,0,0.5-0.4,0.5c-0.4,0-1.2-0.1-1.7-0.3c-0.1,0-0.1,0.1-0.2,0.1
				c0.4,0.3,0.6,0.6,0.5,0.7c-0.1,0.1-0.4,0.1-0.6,0.1c0.2,0.5-0.4,0.5-0.9,0.2c0.2,0.3,0.2,0.5,0,0.5c-0.3,0.1-0.5,0-0.8-0.1
				c0,0.2-0.2,0.3-0.5,0.3c0.9,0.5,0.8,0.7,0.7,0.9c-0.1,0.2-0.7,0.2-0.9,0c-0.1,0.4-0.6,0.4-0.9,0.1
				C-206.1,383.1-206.4,383.4-206.7,383.2L-206.7,383.2z"/>
		</g>
		<g>
			<path d="M-208.5,383.3l-0.1,0l-0.1,0c0-0.2-0.2-0.3-0.3-0.3c-0.1,0.1-0.2,0.2-0.3,0.2l0-0.1c0.1,0,0.2-0.1,0.3-0.2l0,0l0,0
				c0.1,0,0.3,0.1,0.3,0.3c0-0.3-0.1-0.8-0.3-1.1c-0.2-0.1-0.5-0.5-0.6-0.8c-0.1-0.2-0.1-0.2-0.3-0.2c0,0-0.1,0-0.1,0l0-0.1
				c0,0,0.1,0,0.1,0c0.2,0,0.3,0,0.4,0.3c0.1,0.3,0.5,0.7,0.6,0.8c0.1,0,0.4,0.2,0.5,0.4c0.1-0.1,0.1-0.3,0-0.5l0.1-0.1
				c0.1,0.1,0.1,0.2,0.2,0.2c0.2,0.2,0.3,0.4,0.4,0.6c0,0.2,0.2,0.4,0.3,0.5l-0.1,0.1c-0.1-0.1-0.3-0.4-0.3-0.6c0,0,0-0.1,0-0.1
				c0,0,0,0.1,0,0.1c0,0.2,0,0.5,0.1,0.6l-0.1,0c0-0.2,0-0.4-0.1-0.7c0-0.1,0-0.3,0-0.3c0-0.1-0.1-0.1-0.2-0.2c0,0,0,0,0,0
				c0,0.2-0.1,0.3-0.1,0.4l-0.1,0.2l0-0.2c0-0.2-0.2-0.3-0.4-0.4C-208.5,382.6-208.4,383.1-208.5,383.3z M-206.5,383.3
				c-0.1,0-0.2,0-0.2-0.1l-0.1,0l0.1-0.1c0,0,0,0,0,0c-0.2-0.2-0.2-0.3-0.3-0.4c0-0.1-0.1-0.2-0.2-0.3c-0.2-0.2-0.4-0.6-0.5-0.9
				c-0.1-0.5-0.3-0.8-0.5-1c-0.2-0.2-0.2-0.7-0.2-1.1c0-0.4,0-0.8-0.2-1l-0.1-0.1l0.1,0c0.3-0.1,0.9-0.2,1.1,0
				c0.8-0.2,1.5-0.3,2.2-0.3c0.7,0,2.2-0.4,3.3-1.1l0.1-0.1l0,0.2c-0.1,0.2-0.3,0.5-0.5,0.7c0.9-0.2,2.1-0.7,3.1-1.5l0.1-0.1l0,0.1
				c0,0.4-0.2,0.7-0.4,1c0.7-0.4,1.5-0.8,1.8-1.3l0.1-0.1l0,0.2c0.1,0.6-0.6,1.3-1.2,1.8c0.5-0.2,1-0.5,1.3-0.8l0.1-0.2l0,0.2
				c0,0.4-0.4,1-1,1.3c0.5-0.2,1-0.4,1.4-0.7l0.1-0.1l0,0.1c0,0.5-1.3,1.4-2.4,1.9c0.8-0.2,1.4-0.4,1.8-0.6l0.1-0.1l0,0.1
				c0,0.1-0.2,0.3-0.4,0.4c-0.6,0.5-1.6,0.7-2.2,0.8c0,0.2,0,0.3-0.1,0.4c-0.1,0.1-0.2,0.2-0.4,0.2c-0.4,0-1.2-0.1-1.7-0.3
				c0,0-0.1,0-0.1,0c0.4,0.3,0.5,0.5,0.4,0.7c-0.1,0.2-0.4,0.1-0.6,0.1c0,0.2,0,0.3-0.1,0.3c-0.2,0.1-0.5,0.1-0.8,0
				c0.1,0.1,0.1,0.2,0,0.3c0,0.1-0.1,0.1-0.2,0.2c-0.3,0.1-0.5,0.1-0.7-0.1c0,0.1-0.1,0.1-0.1,0.2c0,0-0.1,0-0.1,0.1
				c0.4,0.2,0.5,0.4,0.6,0.6c0,0.1,0,0.2-0.1,0.3c-0.2,0.2-0.6,0.2-0.9,0c-0.1,0.1-0.2,0.2-0.3,0.3c-0.2,0.1-0.4,0-0.6-0.2
				c0,0.1-0.1,0.2-0.2,0.2C-206.3,383.3-206.4,383.3-206.5,383.3z M-206.6,383.2c0.1,0.1,0.3,0,0.3,0c0.1-0.1,0.2-0.1,0.2-0.2
				c-0.3-0.2-0.7-0.8-0.9-1l0,0c0.2,0.4,0.2,0.5,0.2,0.5c0,0,0,0.1-0.1,0.2c0,0,0,0,0,0c0,0,0,0,0,0.1c0,0.1,0.1,0.2,0.2,0.4
				C-206.7,383.1-206.6,383.1-206.6,383.2C-206.6,383.2-206.6,383.2-206.6,383.2z M-206.1,382.8l0.1,0.1c0.2,0.2,0.4,0.2,0.6,0.2
				c0.1,0,0.2-0.1,0.2-0.2c-0.3-0.2-1.2-1-1.6-1.5c0,0,0,0.1,0,0.1c0,0.1,0,0.2-0.1,0.3C-206.8,382.1-206.4,382.5-206.1,382.8
				L-206.1,382.8z M-205.2,382.7L-205.2,382.7c0.3,0.2,0.8,0.2,0.9,0.1c0.1-0.1,0.1-0.1,0.1-0.2c0-0.1-0.3-0.3-0.7-0.6
				c-0.4-0.1-1.1-0.5-1.4-0.8c-0.1,0.1-0.3,0.1-0.5,0.1C-206.4,381.7-205.5,382.5-205.2,382.7L-205.2,382.7z M-207.1,382.5
				C-207,382.5-207,382.5-207.1,382.5C-207,382.4-207,382.4-207.1,382.5c0.1-0.1,0.1-0.2-0.1-0.5c0,0,0,0,0,0c0,0-0.1,0-0.1,0
				c-0.1,0-0.2-0.1-0.3-0.2c0.1,0.2,0.2,0.4,0.4,0.6C-207.1,382.4-207.1,382.4-207.1,382.5z M-206.2,381.1c0.3,0.3,1,0.7,1.4,0.8
				l0,0l0,0c0.1,0,0.2,0,0.3,0c0,0,0.1-0.1,0.1-0.1c-0.4-0.2-1.1-0.8-1.3-1.1c0,0-0.1,0-0.1,0c-0.1,0-0.1,0-0.2,0
				c0.3,0.3,0.8,0.6,1.1,0.8l-0.1,0.1c-0.3-0.2-0.8-0.5-1.1-0.8C-206.2,380.9-206.2,381-206.2,381.1z M-207.7,381.4
				c0.1,0.1,0.2,0.3,0.4,0.4c0.1,0,0.1,0,0.2,0c0.1,0,0.1-0.1,0.1-0.2c0-0.2,0-0.3,0-0.3c-0.1,0-0.1-0.1-0.2-0.1
				c-0.4-0.3-0.9-1.1-1-1.7c0,0-0.1,0-0.1,0c0,0,0,0.1,0,0.1c0,0.1,0,0.2,0,0.2c0.2,0.3,0.9,1.2,1,1.5l-0.1,0
				c-0.1-0.2-0.6-1-0.9-1.4c0,0.2,0.1,0.4,0.2,0.5C-208,380.6-207.8,380.9-207.7,381.4L-207.7,381.4z M-204.5,381.6L-204.5,381.6
				c0.3,0.2,0.5,0.2,0.8,0.2c0.1,0,0.1,0,0.1-0.1c0-0.1,0-0.2-0.1-0.3c-0.4-0.2-1.1-0.6-1.5-1c-0.1,0-0.1,0-0.2,0
				c-0.2,0-0.4-0.1-0.6-0.2c0,0.1,0.1,0.2,0.1,0.2c0,0.1,0,0.1,0,0.2C-205.5,380.8-204.8,381.4-204.5,381.6L-204.5,381.6z
				 M-203.6,381.2c0.3,0.2,0.7,0.3,0.8,0.2c0.1,0,0.1-0.1,0-0.2c-0.6-0.1-1.2-0.5-1.8-0.9c0,0-0.1,0-0.1,0c0.3,0.2,0.7,0.4,1.1,0.6
				c0.1,0,0.2,0.1,0.2,0.1l-0.1,0.1c-0.1,0-0.1-0.1-0.2-0.1c-0.4-0.2-0.9-0.5-1.2-0.7c-0.1,0-0.1,0-0.2,0c0,0,0,0,0,0
				C-204.5,380.7-203.9,381.1-203.6,381.2L-203.6,381.2L-203.6,381.2z M-208.1,379.5c0.1,0.5,0.6,1.3,1,1.5c0.4,0.2,0.7,0.1,0.8,0
				c0,0,0-0.1,0-0.2c0-0.1-0.1-0.3-0.4-0.5c-0.3-0.2-0.8-0.6-1-0.9c0,0-0.1,0-0.1,0c0.2,0.3,0.7,0.9,0.9,1.1l-0.1,0.1
				C-207.3,380.5-207.8,379.8-208.1,379.5C-208,379.5-208,379.5-208.1,379.5z M-202.6,381c0.3,0.1,0.5,0,0.6,0c0,0,0.1-0.2-0.5-0.6
				l0,0c-0.3-0.2-1.2-0.4-1.8-0.5c-0.1,0-0.1,0-0.2,0c0,0,0,0,0,0c0,0,0,0,0,0.1c0.2,0.1,0.4,0.2,0.6,0.3c0.5,0.2,1,0.4,1.3,0.5
				l0,0.1c-0.3-0.1-0.8-0.3-1.3-0.5c-0.2-0.1-0.4-0.2-0.5-0.2c0,0,0,0.1,0,0.1C-203.8,380.5-203.2,380.9-202.6,381z M-206.4,380.5
				c0.2,0.1,0.3,0.1,0.4,0.1c0,0,0.1,0,0.1,0c0,0,0-0.1,0-0.1c0-0.2-0.2-0.3-0.2-0.4c-0.4-0.2-0.9-0.5-1.1-0.7c-0.1,0-0.1,0-0.2-0.1
				c0,0,0,0,0,0.1c0.2,0.2,0.8,0.7,1.1,0.8l0,0.1c-0.3-0.1-0.9-0.6-1.1-0.8c0,0,0,0,0,0c0,0,0,0,0,0c0.2,0.3,0.6,0.6,0.9,0.8
				C-206.5,380.3-206.4,380.4-206.4,380.5L-206.4,380.5z M-202.1,380.3c0.5,0.2,1.2,0.3,1.5,0.3c0.2,0,0.3-0.1,0.3-0.1
				c0-0.1,0.1-0.2,0-0.3c-0.5,0.1-1.4,0.1-1.8,0C-202.1,380.2-202.1,380.2-202.1,380.3z M-203.8,379.9c0.5,0.1,1.1,0.3,1.3,0.4
				c0.1,0,0.1,0,0.2-0.1l0,0l0,0c0.1,0,0.1-0.1,0.2-0.2c0-0.1,0-0.1,0-0.2c-0.3,0.1-0.9,0.1-1.2-0.1c0,0-0.1,0-0.1,0
				c-0.1,0-0.1,0.1-0.3,0.1C-203.7,379.8-203.7,379.8-203.8,379.9z M-207,379.4c0.5,0.4,1.2,0.8,1.8,0.8c0.4,0.1,0.7,0,0.8-0.1
				c0-0.1,0-0.1-0.1-0.2c-0.1-0.1-0.1-0.1-0.2-0.2c0,0,0,0,0,0l0,0c-0.4-0.3-1-0.5-1.2-0.6c-0.1,0-0.3,0-0.4-0.1
				c0,0-0.1,0.1-0.1,0.1c0.5,0.3,1.1,0.5,1.5,0.7l0,0.1c-0.4-0.2-1.1-0.5-1.6-0.7C-206.8,379.4-206.9,379.4-207,379.4z M-202,380
				c0.4,0.1,1.3,0.1,1.7,0l0,0l0,0c0.5-0.1,1.5-0.3,2.2-0.8c0,0,0.1-0.1,0.2-0.1c-0.6,0.2-1.4,0.5-2.3,0.7l0,0
				C-200.7,380-201.5,380-202,380C-202,380-202,380-202,380z M-202,379.8c0.5,0,1.3,0,1.7-0.2l0,0l0,0c1-0.3,2.7-1.4,3-1.9
				c-0.4,0.3-1,0.6-1.6,0.8l-0.1,0c-0.2,0.1-0.3,0.2-0.5,0.3c-0.5,0.3-1.1,0.6-2.3,0.8C-201.9,379.7-201.9,379.7-202,379.8
				C-202,379.8-202,379.8-202,379.8z M-203.1,379.7c0.3,0.1,0.8,0.1,1,0c0.1-0.1,0.2-0.2,0.2-0.3c0-0.1,0-0.2-0.1-0.2
				C-202.3,379.4-202.6,379.6-203.1,379.7z M-204.3,379.7c0.2,0,0.4,0,0.6,0c0.2,0,0.2-0.1,0.3-0.1c0-0.1,0-0.2-0.2-0.3
				c-0.2-0.2-0.9-0.4-1.3-0.5c-0.2,0.1-0.4,0.2-0.7,0.2c0,0,0,0,0,0c0.5,0.1,1,0.2,1.5,0.3l0.3,0.1l0,0.1l-0.3-0.1
				c-0.5-0.1-1-0.2-1.5-0.3c0.3,0.1,0.7,0.3,1,0.5c0.1,0,0.2,0,0.3,0l0,0C-204.4,379.7-204.4,379.7-204.3,379.7z M-203.4,379.4
				c0.1,0.1,0.1,0.2,0.1,0.2c0.6-0.1,1-0.3,1.3-0.6c0.1-0.1,0.2-0.3,0.2-0.4c0-0.1,0-0.1-0.1-0.1c-0.2,0.1-0.4,0.1-0.6,0.2
				c0,0,0.1,0.1,0.1,0.1c0,0.1,0,0.2-0.1,0.4C-202.7,379.3-203,379.4-203.4,379.4C-203.4,379.4-203.4,379.4-203.4,379.4z
				 M-201.8,379.4C-201.8,379.5-201.8,379.5-201.8,379.4c1.1-0.1,1.7-0.4,2.2-0.7c0.2-0.1,0.4-0.2,0.5-0.3c0.6-0.3,1.2-0.9,1.3-1.3
				c-0.3,0.3-0.7,0.5-1.2,0.7c-0.1,0.1-0.3,0.1-0.4,0.2l0,0c-0.2,0.1-0.4,0.2-0.6,0.3c-0.6,0.3-1.2,0.7-2,0.8
				c0.1,0.1,0.1,0.1,0.1,0.2c0.9-0.2,2.2-0.7,3.1-1.4l0.1,0.1C-199.5,378.7-200.8,379.2-201.8,379.4z M-208.3,379.3
				c0.2,0.1,0.5,0.2,0.7,0.1c0.1,0,0.1-0.1,0.2-0.2l0.1,0c0,0,0,0.1,0,0.1c0.2,0.1,0.5,0.1,0.7,0c0.1-0.1,0.2-0.1,0.2-0.2l0.1,0
				c0,0,0,0.1,0,0.1c0.2,0,0.4,0.1,0.5,0l0,0c0,0,0,0,0,0c0,0,0.1,0,0.1,0c0.1-0.1,0.2-0.2,0.2-0.3l0.1,0c0,0.1,0,0.1-0.1,0.2
				c0,0,0,0,0,0c0.2,0,0.5-0.1,0.6-0.3c0-0.1,0.1-0.2,0.1-0.3l0.1,0c0,0,0,0,0,0.1c0.4-0.1,1.2-0.4,1.6-0.5l0.2-0.1l0,0
				c0.3-0.2,0.5-0.4,0.6-0.6c-1.1,0.7-2.6,1-3.2,1c-0.7,0-1.4,0.1-2.2,0.3l0,0c-0.2,0.1-0.3,0.1-0.4,0.2l-0.1-0.1
				c0.1-0.1,0.2-0.1,0.3-0.2c-0.2-0.1-0.5,0-0.8,0.1C-208.3,378.7-208.3,379-208.3,379.3z M-203.5,379.3c0.4,0,0.7-0.1,0.8-0.2
				c0.1-0.1,0.1-0.1,0.1-0.2c0-0.1-0.1-0.2-0.3-0.2c-0.4-0.1-1.1,0-1.6,0.2c0.1,0,0.2,0.1,0.3,0.1c0.3,0,0.9-0.1,1.3-0.1v0.1
				c-0.3,0-0.7,0-1,0.1C-203.8,379.1-203.6,379.2-203.5,379.3C-203.5,379.2-203.5,379.2-203.5,379.3z M-201.7,378.7
				c0,0.1-0.1,0.2-0.1,0.3c0.7-0.2,1.3-0.5,1.9-0.8c0.2-0.1,0.4-0.2,0.6-0.3l0,0l0,0c0.5-0.4,1.5-1.2,1.5-1.8
				c-0.4,0.5-1.2,0.9-1.8,1.3c-0.1,0.1-0.2,0.1-0.3,0.2l0,0c-0.3,0.3-1.1,0.6-1.8,0.9c0,0,0.1,0.1,0.1,0.1c0.8-0.3,1.9-0.7,2.9-1.5
				l0.1,0.1C-199.8,378-200.9,378.4-201.7,378.7z M-204.8,378.8C-204.7,378.8-204.7,378.8-204.8,378.8c0.6-0.2,1.4-0.4,1.9-0.3
				c0.1,0,0.1,0,0.2,0.1c0.9-0.2,2.2-0.7,2.6-1.1l0,0c0.2-0.2,0.6-0.6,0.7-1.1c-1.2,0.8-2.5,1.3-3.4,1.5l0,0l-0.2,0.1
				c-0.5,0.2-1.3,0.5-1.7,0.5C-204.6,378.6-204.7,378.7-204.8,378.8C-204.7,378.7-204.7,378.7-204.8,378.8z M-208,383.2l-0.1,0
				c0-0.1,0-0.4-0.1-0.5l0.1,0C-208,382.8-208,383-208,383.2z M-209,382.7c0-0.1-0.1-0.4-0.2-0.7l0.1,0c0.1,0.2,0.2,0.6,0.2,0.7
				L-209,382.7z M-209.5,382.3c0-0.2-0.1-0.4-0.1-0.6l0.1,0c0.1,0.2,0.1,0.5,0.1,0.7L-209.5,382.3z M-210.3,381.8L-210.3,381.8
				c0.1-0.2,0.3-0.5,0.4-0.6l0.1,0.1C-210,381.4-210.2,381.6-210.3,381.8z M-210.9,381.6l-0.1-0.1c0.2-0.1,0.5-0.3,0.6-0.4
				c-0.1,0-0.3,0-0.4,0c-0.2,0.2-0.6,0.4-0.9,0.6l0-0.1c0.3-0.1,0.7-0.4,0.8-0.5c0,0-0.1-0.1-0.1-0.1c-0.3,0.2-0.9,0.6-1.2,0.7
				l0-0.1c0.4-0.1,1-0.5,1.2-0.7c0-0.1,0-0.1,0-0.2c-0.1,0.1-0.3,0.2-0.4,0.3c-0.1,0.1-0.2,0.1-0.3,0.2c-0.3,0.2-0.7,0.3-1,0.4
				l0-0.1c0.2-0.1,0.5-0.2,0.7-0.3c0,0,0,0-0.1-0.1c0,0,0-0.1-0.1-0.1c-0.3,0.2-0.9,0.5-1.1,0.5l0-0.1c0.2-0.1,0.9-0.4,1.1-0.6
				c0-0.1,0-0.1,0.1-0.2c-0.1,0-0.2,0.1-0.3,0.1c-0.1,0-0.1,0.1-0.2,0.1c-0.3,0.2-0.6,0.4-1,0.5l0-0.1c0.4-0.1,0.8-0.3,1-0.4
				c0,0,0,0,0,0c-0.1,0-0.2-0.1-0.2-0.1c-0.3,0.2-0.9,0.6-1.4,0.7l0-0.1c0.4-0.1,1-0.5,1.3-0.7c0,0,0,0,0-0.1c0,0,0-0.1,0-0.1
				c-0.3,0.2-0.9,0.5-1.5,0.7l0-0.1c0.6-0.1,1.2-0.5,1.5-0.7c0,0,0-0.1,0-0.1c-0.2,0-0.3,0-0.4,0c-0.6,0.3-1.3,0.6-1.7,0.7l0-0.1
				c0.3-0.1,1-0.4,1.5-0.6c-0.1,0-0.2-0.1-0.2-0.2c-0.4,0.2-1.1,0.4-1.6,0.5l0-0.1c0.4-0.1,1.1-0.4,1.5-0.5c0-0.1,0-0.2,0-0.3
				c-0.1,0-0.2,0-0.3,0c-0.3,0.2-1,0.6-1.6,0.7l0-0.1c0.5-0.1,1.1-0.4,1.4-0.6c0,0,0,0-0.1,0c-0.1,0-0.2-0.1-0.2-0.1
				c-1.1,0.4-2.5,0.5-3-0.1c-0.1-0.1-0.1-0.1-0.1-0.2c-0.1,0-0.2,0-0.3,0.1l0-0.1c0.1,0,0.2-0.1,0.3-0.1c0,0,0-0.1,0-0.1
				c0,0,0,0-0.1-0.1c-0.7-0.1-1.2-0.2-1.7-0.5l0.1-0.1c0.4,0.2,0.9,0.4,1.5,0.5c0,0,0,0,0,0c0-0.1,0-0.1,0.1-0.2c0,0,0,0-0.1,0
				c-0.1-0.1-0.2-0.2-0.2-0.3c-0.2-0.1-0.3-0.1-0.5-0.2c-0.1,0-0.2,0-0.3-0.1l0-0.1c0.1,0,0.2,0.1,0.3,0.1c0.2,0,0.3,0.1,0.5,0.2
				c0,0,0.1-0.1,0.1-0.1c0.1-0.1,0.4,0,1,0.1c0,0,0,0,0-0.1c-0.1,0-0.2-0.1-0.2-0.1c0,0,0,0,0,0c-0.4-0.1-0.8-0.2-1.1-0.4l0.1-0.1
				c0.2,0.2,0.7,0.3,1,0.4c0-0.1,0-0.1,0-0.2c-0.7-0.2-1.3-0.7-1.6-0.9l0.1-0.1c0.3,0.3,1,0.9,1.9,1l0,0.1c-0.1,0-0.2,0-0.3-0.1
				c0,0.1,0,0.2,0,0.3c0.1,0.1,0.2,0.2,0.5,0.1l0,0.1c-0.1,0-0.2,0-0.3,0c0,0.1,0,0.1,0,0.2c0.1,0.1,0.2,0.2,0.7,0.1
				c-0.1-0.1-0.1-0.2-0.1-0.2l0.1,0c0.1,0.3,0.3,0.4,0.4,0.4c0.2,0.1,0.4,0,0.6-0.1c-0.1-0.1-0.2-0.3-0.2-0.4
				c-0.3-0.1-0.6-0.4-0.7-0.6l0.1-0.1c0.1,0.1,0.4,0.4,0.6,0.5c0,0,0,0,0,0l0.1,0c0,0.3,0.1,0.6,0.5,0.7c0.4,0.1,0.7,0.1,0.9,0.1
				c0,0,0,0,0.1,0c0,0,0,0,0,0l0.1,0c0,0.1,0,0.1,0.1,0.2c0.2,0.2,0.6,0.3,1.3,0.2l0,0.1c-0.1,0-0.3,0-0.4,0c0,0,0,0,0,0.1
				c0.2,0.2,0.7,0.3,1.4,0.1l0,0.1c-0.1,0-0.2,0.1-0.3,0.1c-0.3,0.3-0.9,0.6-1.5,0.7c-0.1,0.1-0.1,0.3,0,0.4
				c0.1,0.1,0.2,0.2,0.3,0.2c0,0,0,0,0.1,0c0.4,0,1-0.3,1.6-1l0.1,0.1c-0.4,0.4-0.8,0.7-1.1,0.9c-0.2,0.2-0.2,0.3-0.1,0.4
				c0,0.1,0.1,0.1,0.2,0c0,0,0,0,0,0l0,0c0.1,0,0.2-0.1,0.3-0.1c0.2-0.1,0.3-0.2,0.5-0.3l0,0l0,0c0.1-0.1,0.2-0.2,0.3-0.3l0.1,0
				l0.1,0.1l-0.1,0c-0.1,0.1-0.2,0.2-0.3,0.2c0,0.1,0,0.2,0,0.3c0,0.1,0.1,0.1,0.2,0.1c0.2,0.1,0.4,0.1,0.7-0.1l0.1,0.1
				C-210.1,381.1-210.5,381.4-210.9,381.6z M-213.5,379.9C-213.5,379.9-213.4,379.9-213.5,379.9c0.7,0,1.4-0.3,1.8-0.7
				c-0.2,0-0.4,0-0.6,0c-0.2,0.1-0.6,0.3-1.1,0.5l0-0.1c0.4-0.1,0.7-0.3,0.9-0.4c-0.1,0-0.2-0.1-0.2-0.1c0,0,0,0,0,0
				c-0.3,0.2-0.8,0.4-1.2,0.4c0,0.1-0.1,0.2,0,0.3C-213.7,379.8-213.7,379.8-213.5,379.9C-213.5,379.9-213.5,379.9-213.5,379.9
				C-213.5,379.9-213.5,379.9-213.5,379.9L-213.5,379.9z M-217.7,378.8C-217.7,378.8-217.7,378.9-217.7,378.8c0,0.1,0,0.2,0.1,0.3
				c0.5,0.4,1.6,0.4,2.6,0.1c-0.8,0-2.1-0.1-2.6-0.3C-217.6,378.9-217.7,378.8-217.7,378.8z M-213.7,378.5c-0.4,0.1-0.7,0.3-0.8,0.5
				c0,0.1-0.1,0.1,0,0.2c0,0,0.1,0.1,0.2,0.1c0.6,0.2,1.2,0,1.8-0.3c0,0,0,0,0,0c-0.1,0-0.2,0-0.3,0c-0.2,0.1-0.5,0.2-0.9,0.3l0-0.1
				c0.4,0,0.6-0.1,0.8-0.2c-0.2,0-0.3-0.1-0.4-0.2C-213.6,378.5-213.6,378.5-213.7,378.5C-213.7,378.5-213.7,378.5-213.7,378.5z
				 M-217.7,378.4c-0.1,0-0.1,0.1-0.1,0.1c0,0.1,0.1,0.2,0.3,0.3c0.5,0.2,2.1,0.3,2.8,0.3c0,0,0-0.1,0.1-0.1c0-0.1,0.1-0.1,0.2-0.2
				C-215.2,378.8-216.9,378.8-217.7,378.4z M-217.7,377.9c-0.1,0-0.1,0-0.2,0c-0.1,0-0.1,0.1-0.1,0.1c0,0,0,0.1,0.1,0.2
				c0.6,0.5,3,0.5,3.6,0.4l0,0c0,0,0,0,0.1,0c-0.2,0-0.3,0-0.5-0.1c-0.1,0-0.2-0.1-0.3-0.2c-0.2,0.1-0.4,0.2-0.7,0.1
				c-0.1,0-0.2-0.1-0.3-0.2c-0.6,0.2-0.8,0-0.9-0.1c0,0-0.1-0.1-0.1-0.1C-217.2,377.9-217.5,377.9-217.7,377.9z M-208.1,381.5
				c-0.1-0.2-0.1-0.3-0.3-0.6l0.1-0.1c0.2,0.2,0.2,0.4,0.3,0.6L-208.1,381.5z M-208.9,381.4c-0.1-0.1-0.3-0.4-0.4-0.6l0.1,0
				C-209.1,381-209,381.2-208.9,381.4L-208.9,381.4z M-208.8,380.8c-0.1-0.1-0.2-0.4-0.2-0.6l0.1,0c0,0.2,0.1,0.4,0.2,0.6
				L-208.8,380.8z M-209.7,380.7c-0.3-0.3-0.5-0.7-0.5-0.9c-0.1-0.2-0.3-0.6-0.3-0.9l0.1,0c0,0.2,0.1,0.7,0.2,0.8l0,0l0,0
				C-210.1,380-209.9,380.3-209.7,380.7L-209.7,380.7z M-211.7,380.7L-211.7,380.7c0.1-0.2,0.7-0.7,0.9-0.8l0.1,0.1
				C-210.9,380.1-211.5,380.5-211.7,380.7z M-209.4,380.4c-0.1-0.2-0.1-0.4-0.2-0.6c0-0.1,0-0.2-0.1-0.3c-0.1-0.2-0.1-0.5-0.1-0.9
				l0.1,0c0,0.4,0,0.7,0.1,0.9c0,0.1,0,0.2,0.1,0.3c0,0.2,0.1,0.4,0.2,0.5L-209.4,380.4z M-212.5,380.2l0-0.1c0.4-0.1,0.7-0.4,1-0.6
				c0.1-0.1,0.2-0.2,0.4-0.2l0.1,0.1c-0.1,0.1-0.2,0.2-0.4,0.2C-211.7,379.8-212.1,380-212.5,380.2z M-209.2,379.7l-0.1,0
				c0.1-0.1,0-0.3,0-0.5l0.1,0l0.1,0l-0.1,0l0.1,0C-209.2,379.3-209.1,379.6-209.2,379.7z M-209.9,379.7c-0.1-0.2-0.1-0.5,0-0.7
				l0.1,0c0,0.2,0,0.5,0,0.6L-209.9,379.7z M-208.8,379.6l-0.1,0c0-0.1,0-0.4-0.1-0.6l0.1,0C-208.9,379.2-208.8,379.4-208.8,379.6z
				 M-210.7,379.3c0-0.1-0.1-0.5,0-0.7l0.1,0c0,0.1,0,0.5,0,0.7L-210.7,379.3z M-210.2,379c-0.1-0.3-0.1-0.6-0.1-0.8
				c0-0.1,0-0.1,0-0.1c0-0.1,0-0.6,0.1-0.9l0.1,0c-0.1,0.2-0.1,0.7-0.1,0.8c0,0,0,0.1,0,0.2c0,0.2,0,0.4,0.1,0.7L-210.2,379z
				 M-209.8,378.9c-0.1-0.3-0.1-1.1,0-1.5l0.1,0c-0.1,0.4-0.1,1.1,0,1.4L-209.8,378.9z M-209.2,378.7c-0.3-0.3-0.4-0.8-0.4-1.1
				l0.1,0C-209.5,377.9-209.4,378.3-209.2,378.7L-209.2,378.7z M-210.8,378.4c0-0.1,0-0.4,0.1-0.5l0.1,0c0,0.2-0.1,0.4,0,0.5
				L-210.8,378.4z M-211,377.7l-0.1-0.1c0.1,0,0.1-0.1,0.2-0.1c0,0,0.1,0,0.1-0.1c0.4-0.4,1-0.8,1.3-0.9l0.1,0
				c0.1-0.1,0.2-0.1,0.3-0.1c0,0,0,0,0,0c0.1,0,0.1,0,0.2,0l0,0.1c-0.1,0-0.1,0-0.2,0c0,0,0,0,0,0c0,0.1,0,0.2-0.2,0.3
				c-0.2,0.1-0.3,0-0.3-0.1c0,0,0,0,0,0c-0.3,0.1-0.8,0.5-1.2,0.9c-0.1,0.1-0.1,0.1-0.2,0.1C-210.9,377.6-211,377.6-211,377.7z
				 M-209,377.3l-0.1-0.1c0.1-0.1,0.2-0.2,0.3-0.3l0.1,0.1C-208.8,377.1-208.9,377.2-209,377.3z"/>
		</g>
		<g>
			<path d="M-210.7,385.2c0-0.1,0-0.3,0.1-0.4c0.1-0.1,0.2-0.2,0.3-0.1c0.1,0.1,0,0.2-0.1,0.2C-210.5,385-210.6,385.1-210.7,385.2
				C-210.6,385.2-210.7,385.3-210.7,385.2L-210.7,385.2z"/>
		</g>
		<g>
			<path d="M-210,385.8c-0.1-0.2,0-0.5,0-0.5c0.1-0.1,0.2-0.1,0.2-0.1c0.1,0.1,0.1,0.2,0,0.3C-209.9,385.5-209.9,385.6-210,385.8
				C-209.9,385.8-209.9,385.9-210,385.8L-210,385.8z"/>
		</g>
		<g>
			<path d="M-209.1,385.2c0,0.1,0,0.4,0.2,0.5c0.1,0.1,0.2,0,0.1-0.1c-0.1-0.1,0-0.2,0-0.3c0-0.1,0-0.2-0.1-0.2
				C-208.9,385.1-209,385.2-209.1,385.2L-209.1,385.2z"/>
		</g>
		<g>
			<path d="M-208.3,384.9c-0.1-0.1-0.2,0-0.2,0.1c-0.1,0.1,0,0.3,0.1,0.4c0.1,0.1,0.1,0,0.1-0.1c0-0.1,0-0.2,0-0.2
				C-208.3,385.1-208.2,385-208.3,384.9L-208.3,384.9z"/>
		</g>
		<g>
			<path d="M-207.7,385.2c-0.1,0-0.2,0.1-0.2,0.2c0,0.1,0,0.2,0.1,0.3c0.1,0,0.1,0.1,0.1,0c0-0.1,0-0.2,0.1-0.2
				C-207.6,385.3-207.6,385.2-207.7,385.2L-207.7,385.2z"/>
		</g>
		<g>
			<path d="M-206.9,384.6c-0.1,0.1-0.1,0.2,0,0.2c0.1,0,0.2,0.1,0.2,0.2c0,0.1,0,0.1,0.1,0c0.1-0.1,0.1-0.3,0-0.4
				S-206.8,384.6-206.9,384.6L-206.9,384.6z"/>
		</g>
	</g>
</g>
</svg>
