<?xml version="1.0" encoding="utf-8"?>
<!-- Generator: Adobe Illustrator 19.0.0, SVG Export Plug-In . SVG Version: 6.00 Build 0)  -->
<svg version="1.1" id="Layer_1" xmlns="http://www.w3.org/2000/svg" xmlns:xlink="http://www.w3.org/1999/xlink" x="0px" y="0px"
	 viewBox="-269 374 72 46" style="enable-background:new -269 374 72 46;" xml:space="preserve">
<style type="text/css">
	.st0{clip-path:url(#SVGID_2_);}
	.st1{fill:#008866;}
	.st2{fill:#FFED00;}
	.st3{fill:#E40520;}
	.st4{fill:#FFFFFF;}
</style>
<g>
	<defs>
		<path id="SVGID_1_" d="M-204,420H-262c-3.8,0-7-3.1-7-7V381c0-3.8,3.1-7,7-7h58.1c3.8,0,7,3.1,7,7V413
			C-197,416.9-200.1,420-204,420z"/>
	</defs>
	<clipPath id="SVGID_2_">
		<use xlink:href="#SVGID_1_"  style="overflow:visible;"/>
	</clipPath>
	<g class="st0">
		<g>
			<polygon class="st1" points="-174.3,420.7 -174.3,373.3 -269,373.3 -269,420.7 			"/>
		</g>
		<g>
			<path d="M-174.2,420.8h-94.9v-47.6h94.9V420.8z M-268.9,420.5h94.4v-47.1h-94.4V420.5z"/>
		</g>
		<g>
			<polygon class="st2" points="-174.3,413.9 -269,413.9 -269,380.1 -174.3,380.1 			"/>
		</g>
		<g>
			<path d="M-174.2,414h-94.9V380h94.9V414z M-268.9,413.8h94.4v-33.6h-94.4V413.8z"/>
		</g>
		<g>
			<polygon class="st3" points="-269,407.1 -174.3,407.1 -174.3,386.8 -269,386.8 			"/>
		</g>
		<g>
			<path d="M-174.2,407.3h-94.9v-20.5h94.9V407.3z M-268.9,407h94.4v-20h-94.4V407z"/>
		</g>
		<g>
			<polygon points="-174.3,400.4 -269,400.4 -269,393.6 -174.3,393.6 			"/>
			<path d="M-174.2,400.5h-94.9v-7h94.9V400.5z M-268.9,400.2h94.4v-6.5h-94.4V400.2z"/>
		</g>
		<g>
			<polygon points="-269,373.3 -266.7,373.3 -235,397 -266.7,420.7 -269,420.7 			"/>
			<path d="M-266.7,420.8h-2.3l-0.1-0.1v-47.3l0.1-0.1h2.3l0.1,0l31.6,23.7v0.2L-266.7,420.8L-266.7,420.8z M-268.9,420.5h2.2
				l31.5-23.5l-31.5-23.5h-2.2V420.5z"/>
		</g>
		<g>
			<polygon class="st4" points="-269,420.7 -269,373.3 -237.4,397 			"/>
		</g>
		<g>
			<path d="M-268.9,420.8l-0.2-0.1v-47.3l0.2-0.1l31.6,23.7v0.2L-268.9,420.8z M-268.9,373.6v46.8l31.3-23.4L-268.9,373.6z"/>
		</g>
		<g>
			<polygon class="st3" points="-257,384.1 -259.6,392.3 -268.2,392.3 -261.2,397.3 -263.9,405.4 -257,400.4 -250.1,405.4 
				-252.8,397.2 -245.8,392.3 -254.4,392.3 			"/>
		</g>
		<g>
			<path d="M-264,405.6l2.7-8.2l-7.1-5.1h8.7l2.7-8.2l0.1,0.2l2.6,8.1h8.7l-7.1,5l2.7,8.3l-7-5.1L-264,405.6z M-257,400.3
				L-257,400.3l6.8,4.9l-2.6-8l0,0l6.8-4.8h-8.4l0,0l-2.6-8l-2.6,8h-8.4l6.9,5l0,0l-2.6,7.9L-257,400.3z"/>
		</g>
		<g>
			<path class="st2" d="M-260,403.5c2.7-0.1,5.9,0,8.3,0.3l1.6-6.8l-7.2-2.5l-5.9,4.9l0.8,4C-261.6,403.4-261.1,403.5-260,403.5
				L-260,403.5z"/>
		</g>
		<g>
			<path d="M-251.7,404l-0.2,0c-2.2-0.3-5.4-0.4-8.2-0.3h0c-1-0.1-1.6-0.1-2.4-0.2l-0.1,0l-0.9-4.3l6.1-5l7.4,2.6L-251.7,404z
				 M-257.6,403.3c2.1,0,4.1,0.1,5.7,0.3l1.6-6.5l-6.9-2.4l-5.7,4.7l0.8,3.8c0.7,0.1,1.2,0.1,2.2,0.2
				C-259.3,403.3-258.4,403.3-257.6,403.3z"/>
		</g>
		<g>
			<path d="M-260.2,403.5l-0.6-4.2c0,0,0,0-0.1,0c-0.9,0-2,0.1-2.1,0.2l-0.1-0.2c0.2-0.1,1.6-0.2,2.2-0.2c1.9,0.1,7.3,0.4,10,0.9
				l0,0.2c-2.5-0.4-7.5-0.8-9.6-0.9l0.6,4.2L-260.2,403.5z M-250.6,398.7c-2.6-0.5-8.1-0.8-10-0.9l0-0.3c1.9,0.1,7.3,0.4,10,0.9
				L-250.6,398.7z"/>
		</g>
		<g>
			<path d="M-257.3,399c0.2,0,0.4-0.2,0.4-0.4c0-0.2-0.2-0.4-0.4-0.4c-0.2,0-0.4,0.2-0.4,0.4C-257.7,398.8-257.5,399-257.3,399
				L-257.3,399z"/>
		</g>
		<g>
			<path d="M-255.6,399.2c0.2,0,0.4-0.2,0.4-0.4c0-0.2-0.2-0.4-0.4-0.4c-0.2,0-0.4,0.2-0.4,0.4C-255.9,399-255.8,399.2-255.6,399.2
				L-255.6,399.2z"/>
		</g>
		<g>
			<path d="M-252.2,400.9C-252.2,400.9-252.2,400.9-252.2,400.9l-0.9-1l-0.9,0.7c-0.1,0-0.1,0-0.2,0l-0.8-0.9l-0.8,0.8
				c0,0,0,0-0.1,0c0,0-0.1,0-0.1,0l-0.8-0.9l-0.9,0.8c0,0-0.1,0-0.1,0c0,0-0.1,0-0.1,0l-0.8-0.9l-0.9,0.8c0,0-0.1,0-0.1,0
				c0,0-0.1,0-0.1,0l-1-1.1l0.2-0.2l0.9,1l0.9-0.8c0,0,0,0,0.1,0c0,0,0.1,0,0.1,0l0.8,0.9l0.9-0.8c0.1,0,0.1,0,0.2,0l0.8,0.9
				l0.8-0.8c0,0,0.1,0,0.1,0c0,0,0.1,0,0.1,0l0.8,0.9l0.9-0.7c0.1,0,0.1,0,0.2,0l0.8,0.9l0.8-0.7l0.2,0.2L-252.2,400.9
				C-252.1,400.9-252.1,400.9-252.2,400.9z"/>
		</g>
		<g>
			<path d="M-251.4,402c-2.2-0.3-6.3-0.6-9-0.6c0,0,0,0-0.1,0v-0.3c0,0,0,0,0.1,0c2.7,0,6.8,0.3,9,0.6L-251.4,402z"/>
		</g>
		<g>
			<path d="M-252.3,401.9C-252.3,401.9-252.3,401.9-252.3,401.9l-0.9-1l-0.9,0.8c-0.1,0-0.1,0-0.2,0l-0.8-0.9l-0.8,0.8
				c0,0-0.1,0-0.1,0c0,0-0.1,0-0.1,0l-0.8-0.9l-0.9,0.8c-0.1,0-0.1,0-0.2,0l-0.8-0.8l-0.9,0.8c0,0-0.1,0-0.1,0c0,0-0.1,0-0.1,0
				l-1-1.1l0.2-0.2l0.9,1l0.9-0.8c0.1,0,0.1,0,0.2,0l0.8,0.8l0.9-0.8c0.1,0,0.1,0,0.2,0l0.8,0.9l0.8-0.8c0.1,0,0.1,0,0.2,0l0.8,0.9
				l0.9-0.8c0.1,0,0.1,0,0.2,0l0.8,0.9l1.2-1.1l0.2,0.2L-252.3,401.9C-252.2,401.9-252.2,401.9-252.3,401.9z"/>
		</g>
		<g>
			<path class="st2" d="M-256.9,395.9c-0.6,1.3-2.3,1.9-3.3,2.4c-0.7,0.3-0.6,0.8-0.6,0.9c0,0.3-0.2,0.5-0.7,0.5
				c-0.5,0-0.7-0.3-0.8-0.5c0,0.2-0.1,0.5-0.6,0.5c-0.3,0-0.5-0.2-0.4-0.6c0-0.5,0.5-1.8,0.8-2.3c0.8-1.4,1.1-3.9,0.7-6.1
				c-0.3-1.6-1-1.9-2.3-1.9c0.2-0.3,0.4-0.5,1-0.8c0.4-1.9,2.3-2.1,3.6-0.3c1,1.3,1.3,2.2,1.4,2.7c2.8,1.6,6,4,9,6.6
				c0.5,0.4-0.2,0.3-1.1,0.2C-252.9,396.7-255.2,396.4-256.9,395.9L-256.9,395.9z"/>
		</g>
		<g>
			<path d="M-261.6,399.8C-261.6,399.8-261.6,399.8-261.6,399.8c-0.4,0-0.6-0.1-0.8-0.3c0,0,0,0,0,0c-0.1,0.1-0.4,0.2-0.6,0.2
				c-0.2,0-0.4-0.1-0.5-0.2c-0.1-0.1-0.1-0.3-0.1-0.6c0-0.6,0.5-1.9,0.8-2.4c0.8-1.3,1-3.8,0.6-5.9c-0.3-1.5-0.9-1.8-2.1-1.7l-0.4,0
				l0.2-0.3c0.2-0.3,0.4-0.5,0.9-0.8c0.2-0.8,0.7-1.4,1.4-1.6c0.9-0.2,1.8,0.3,2.5,1.3c0.7,1,1.2,1.9,1.5,2.7
				c2.8,1.7,6.1,4.1,8.9,6.6c0.1,0.1,0.3,0.3,0.2,0.5c-0.1,0.2-0.5,0.2-1.4,0.1c-0.5-0.1-1-0.2-1.5-0.2c-1.8-0.3-3.5-0.6-4.9-1
				c-0.5,1-1.8,1.6-2.7,2c-0.2,0.1-0.4,0.2-0.6,0.3c-0.5,0.3-0.5,0.6-0.5,0.7c0,0.2-0.1,0.4-0.3,0.5
				C-261.1,399.8-261.3,399.8-261.6,399.8z M-262.2,399.1c0.1,0.2,0.3,0.3,0.6,0.3c0.3,0,0.4,0,0.5-0.1s0.1-0.1,0.1-0.2
				c0-0.2,0-0.7,0.7-1.1c0.2-0.1,0.4-0.2,0.6-0.3c0.9-0.4,2-0.9,2.5-1.8c-1.2-0.4-2.6-1.1-2.4-2.7l0.4,0.1c-0.2,1.1,0.6,1.8,2.3,2.3
				l0,0c1.3,0.4,3.1,0.7,5,1c0.5,0.1,1,0.2,1.5,0.2c0.2,0,0.7,0.1,0.9,0.1c-2.8-2.6-6.1-5-8.9-6.6l-0.1,0l0-0.1
				c-0.2-0.8-0.7-1.7-1.4-2.7c-0.6-0.8-1.4-1.3-2.1-1.1c-0.6,0.1-1,0.6-1.1,1.4l0,0.1l-0.1,0c-0.3,0.2-0.5,0.3-0.7,0.5
				c1.1,0,1.8,0.5,2.1,2c0.4,2.2,0.1,4.8-0.7,6.2c-0.3,0.5-0.7,1.7-0.7,2.2c0,0.2,0,0.3,0.1,0.3c0,0,0.1,0.1,0.2,0.1
				c0.2,0,0.3,0,0.4-0.1c0,0,0-0.1,0-0.2l0.1,0l-0.1,0c0-1.1,0.5-1.7,0.9-2.2c0.4-0.6,0.9-1.1,0.9-2.2l0.4,0c0,1.3-0.5,1.9-1,2.5
				C-261.8,397.7-262.2,398.2-262.2,399.1z"/>
		</g>
		<g>
			<path d="M-256.3,397.4c-0.2,0-0.4,0-0.6-0.1c-0.3,0.1-0.7,0.1-1.1,0l0.1-0.2c0.8,0.3,1.3,0.1,1.9-1l0.2,0.1
				c-0.3,0.4-0.5,0.7-0.8,0.9c0.6,0.2,1-0.1,1.5-0.9l0.2,0.1C-255.4,397.1-255.8,397.4-256.3,397.4z M-261.6,391.8
				c-0.1,0-0.2,0-0.2,0c-0.1,0-0.1-0.1-0.1-0.2l0.2,0c0,0,0,0,0,0c0.3,0.2,2.1-0.8,3.4-1.4l0.1,0.2
				C-260.3,391.4-261.2,391.8-261.6,391.8z"/>
		</g>
		<g>
			<path d="M-262,387.9c0.2,0,0.3-0.1,0.3-0.3c0-0.2-0.1-0.3-0.3-0.3c-0.2,0-0.3,0.1-0.3,0.3C-262.3,387.7-262.2,387.9-262,387.9
				L-262,387.9z"/>
		</g>
	</g>
</g>
</svg>
