<svg xmlns="http://www.w3.org/2000/svg" xmlns:xlink="http://www.w3.org/1999/xlink" width="608" height="163" viewBox="40 47.375 608 163"><defs><path id="a" d="M-43-126.93h566.93V440H-43z"/></defs><clipPath id="b"><use xlink:href="#a" overflow="visible"/></clipPath><path clip-path="url(#b)" fill="#575756" d="M57.378 144.322a2.512 2.512 0 0 1-2.51-2.512V72.696a11.3 11.3 0 0 1 3.33-8.04 11.3 11.3 0 0 1 8.038-3.33h71.293c3.036 0 5.89 1.184 8.037 3.33a11.3 11.3 0 0 1 3.33 8.04v15.666a2.51 2.51 0 0 1-5.02 0V72.696c0-1.696-.66-3.29-1.86-4.488a6.307 6.307 0 0 0-4.487-1.86H66.235c-1.695 0-3.29.662-4.488 1.86a6.31 6.31 0 0 0-1.858 4.488v69.115a2.51 2.51 0 0 1-2.512 2.512"/><defs><path id="c" d="M-43-126.93h566.93V440H-43z"/></defs><clipPath id="d"><use xlink:href="#c" overflow="visible"/></clipPath><path clip-path="url(#d)" fill="#16A085" d="M137.53 200.527H66.234a11.29 11.29 0 0 1-8.04-3.332 11.29 11.29 0 0 1-3.33-8.037v-36.313a2.51 2.51 0 0 1 2.512-2.51h4.35v-77.02a2.51 2.51 0 0 1 2.512-2.51h75.284a2.512 2.512 0 0 1 2.51 2.51v25.042h4.352a2.51 2.51 0 0 1 2.51 2.51v88.292c0 3.035-1.18 5.89-3.33 8.037a11.29 11.29 0 0 1-8.037 3.33m-77.642-45.17v33.8c0 1.698.66 3.29 1.858 4.49a6.31 6.31 0 0 0 4.488 1.857h71.294c1.695 0 3.287-.66 4.486-1.858 1.2-1.2 1.86-2.79 1.86-4.488v-85.78h-4.354a2.512 2.512 0 0 1-2.51-2.51V75.825H66.75v77.02a2.512 2.512 0 0 1-2.51 2.512h-4.352z"/><defs><path id="e" d="M-43-126.93h566.93V440H-43z"/></defs><clipPath id="f"><use xlink:href="#e" overflow="visible"/></clipPath><path clip-path="url(#f)" fill="#575756" d="M139.524 184.177H64.24a2.51 2.51 0 0 1-2.512-2.51v-15.274a2.51 2.51 0 0 1 2.51-2.51 2.51 2.51 0 0 1 2.512 2.51v12.765h70.263v-64.653a2.51 2.51 0 0 1 5.02 0v67.165a2.508 2.508 0 0 1-2.51 2.507"/><defs><path id="g" d="M-43-126.93h566.93V440H-43z"/></defs><clipPath id="h"><use xlink:href="#g" overflow="visible"/></clipPath><path clip-path="url(#h)" fill="#575756" d="M93.757 186.428h16.386v6.2H93.757z"/><defs><path id="i" d="M-43-126.93h566.93V440H-43z"/></defs><clipPath id="j"><use xlink:href="#i" overflow="visible"/></clipPath><path clip-path="url(#j)" fill="#16A085" d="M105.054 107.977v6.142h7.7c.913 0 1.65.254 2.213.763.562.51.843 1.167.843 1.975 0 .785-.286 1.438-.86 1.957-.572.52-1.304.78-2.196.78h-18.46v3.69h18.778c.785 0 1.437.287 1.957.86s.78 1.315.78 2.228v8.53c0 .934-.25 1.676-.75 2.227-.498.554-1.16.828-1.988.828h-8.02v6.144c0 .91-.255 1.648-.765 2.213-.51.56-1.167.842-1.972.842-.807 0-1.464-.285-1.973-.86-.51-.57-.764-1.304-.764-2.194v-6.143h-7.7c-.935 0-1.678-.25-2.23-.747-.55-.5-.826-1.162-.826-1.99 0-.784.286-1.437.86-1.956.57-.52 1.304-.78 2.195-.78h18.46v-3.724H91.56c-.807 0-1.464-.287-1.973-.86-.51-.57-.764-1.304-.764-2.194v-8.53c0-.933.25-1.676.748-2.228.5-.552 1.163-.828 1.99-.828h8.02v-6.142c0-.933.25-1.676.748-2.228.5-.552 1.16-.828 1.99-.828.784 0 1.437.287 1.956.86.52.568.78 1.3.78 2.19"/><g><defs><path id="k" d="M-43-126.93h566.93V440H-43z"/></defs><clipPath id="l"><use xlink:href="#k" overflow="visible"/></clipPath><path clip-path="url(#l)" fill="#575756" d="M188.09 171.16c-5.863 0-9.617-3.62-11.264-10.86l-11.558-50.357a22.298 22.298 0 0 1-.594-5.036c0-2.304.79-4.146 2.374-5.528 1.582-1.383 3.56-2.073 5.932-2.073 4.35 0 6.985 2.373 7.91 7.12l8.7 45.874 11.965-46.073c1.186-4.612 4.217-6.92 9.095-6.92 4.81 0 7.81 2.373 8.997 7.12l11.765 45.874 8.602-44.788c1.055-5.47 3.822-8.205 8.305-8.205 2.372 0 4.315.69 5.833 2.072 1.516 1.382 2.273 3.224 2.273 5.527 0 1.647-.197 3.26-.593 4.838L243.285 160.3c-.988 3.884-2.143 6.55-3.458 7.998-1.647 1.908-4.282 2.863-7.905 2.863-5.73 0-9.387-3.032-10.967-9.102l-10.81-41.347-10.2 40.457c-1.71 6.662-5.663 9.993-11.855 9.993"/></g><g><defs><path id="m" d="M-43-126.93h566.93V440H-43z"/></defs><clipPath id="n"><use xlink:href="#m" overflow="visible"/></clipPath><path clip-path="url(#n)" fill="#575756" d="M286.976 97.205c5.866 0 9.92 3.162 12.16 9.48l18.194 51.836c.79 2.236 1.186 3.95 1.186 5.136 0 2.238-.79 4.05-2.373 5.43s-3.492 2.075-5.732 2.075c-4.15 0-7.052-2.587-8.7-7.764l-2.668-8.45h-25.51l-2.965 9.04c-1.582 4.78-4.22 7.175-7.91 7.175-2.31 0-4.188-.707-5.635-2.122-1.45-1.416-2.177-3.272-2.177-5.58 0-1.71.263-3.29.79-4.737l18.786-50.85c2.635-7.11 6.822-10.665 12.556-10.665m-.494 17.896l-8.207 25.313h16.313l-7.91-25.312h-.196z"/></g><g><defs><path id="o" d="M-43-126.93h566.93V440H-43z"/></defs><clipPath id="p"><use xlink:href="#o" overflow="visible"/></clipPath><path clip-path="url(#p)" fill="#575756" d="M332.95 171.16c-5.474 0-8.206-3.883-8.206-11.65v-49.764c0-4.276.822-7.272 2.472-8.983 1.646-1.713 4.612-2.567 8.897-2.567h14.832c7.974 0 14.3 2.077 18.98 6.23 4.943 4.35 7.415 10.446 7.415 18.29 0 7.778-2.242 13.812-6.724 18.093-4.483 4.286-10.612 6.43-18.39 6.43h-11.073v12.307c.003 7.74-2.732 11.613-8.204 11.613m8.206-38.855h7.12c7.513 0 11.27-3.195 11.27-9.59 0-6.263-3.757-9.393-11.27-9.393h-7.12v18.983z"/></g><g><defs><path id="q" d="M-43-126.93h566.93V440H-43z"/></defs><clipPath id="r"><use xlink:href="#q" overflow="visible"/></clipPath><path clip-path="url(#r)" fill="#575756" d="M364.094 161.916c0-2.583.893-4.785 2.67-6.607 1.78-1.823 3.954-2.734 6.525-2.734 2.634 0 4.825.896 6.573 2.686 1.746 1.788 2.62 4.01 2.62 6.658 0 2.586-.892 4.77-2.67 6.563-1.78 1.79-3.954 2.684-6.524 2.684-2.572 0-4.747-.895-6.527-2.684-1.78-1.795-2.67-3.98-2.67-6.567"/></g><g><defs><path id="s" d="M-43-126.93h566.93V440H-43z"/></defs><clipPath id="t"><use xlink:href="#s" overflow="visible"/></clipPath><path clip-path="url(#t)" fill="#16A085" d="M422.13 171.16c-10.61 0-19.08-3.52-25.408-10.563-6-6.78-8.997-15.535-8.997-26.268 0-10.53 3.1-19.255 9.295-26.165 6.46-7.24 14.896-10.86 25.312-10.86 3.295 0 6.162.294 8.602.888 3.1.728 5.803 1.847 8.107 3.363 2.967 2.043 4.45 4.35 4.45 6.92 0 1.912-.66 3.576-1.98 4.992-1.315 1.42-2.933 2.127-4.844 2.127-1.648 0-3.692-.48-6.13-1.436-2.44-.954-5.143-1.435-8.107-1.435-5.73 0-10.15 2.336-13.25 7.004-2.703 4.012-4.053 9.01-4.053 14.99 0 6.054 1.416 10.95 4.25 14.7 3.165 4.208 7.68 6.312 13.546 6.312 2.57 0 5.438-.575 8.604-1.73 3.164-1.15 5.27-1.728 6.325-1.728 1.847 0 3.396.723 4.646 2.166 1.25 1.44 1.878 3.08 1.878 4.916 0 1.51-.528 2.983-1.582 4.427-3.624 4.92-10.514 7.377-20.663 7.377"/></g><g><defs><path id="u" d="M-43-126.93h566.93V440H-43z"/></defs><clipPath id="v"><use xlink:href="#u" overflow="visible"/></clipPath><path clip-path="url(#v)" fill="#16A085" d="M480.265 97.205c5.866 0 9.92 3.162 12.16 9.48l18.193 51.836c.79 2.236 1.187 3.95 1.187 5.136 0 2.238-.79 4.05-2.373 5.43s-3.492 2.075-5.73 2.075c-4.153 0-7.056-2.587-8.7-7.764l-2.67-8.45h-25.51l-2.97 9.04c-1.58 4.78-4.22 7.175-7.907 7.175-2.31 0-4.188-.707-5.638-2.122-1.448-1.416-2.175-3.272-2.175-5.58 0-1.71.266-3.29.79-4.737l18.786-50.85c2.636-7.11 6.822-10.665 12.557-10.665m-.494 17.896l-8.205 25.313h16.313l-7.91-25.312h-.197z"/></g><g><defs><path id="w" d="M-43-126.93h663V440H-43z"/></defs><clipPath id="x"><use xlink:href="#w" overflow="visible"/></clipPath><path clip-path="url(#x)" fill="#16A085" d="M564.106 147.668c0 7.438-2.77 13.293-8.307 17.568-5.01 3.95-11.34 5.924-18.982 5.924-3.954 0-7.745-.524-11.37-1.572-4.482-1.243-7.71-3.082-9.688-5.508-1.12-1.377-1.68-2.753-1.68-4.13 0-2.23.757-3.968 2.27-5.212 1.52-1.245 3.397-1.87 5.64-1.87 1.186 0 3.688.546 7.515 1.634 4.085 1.152 7.28 1.73 9.59 1.73 2.24 0 4.137-.644 5.688-1.927 1.548-1.283 2.32-3.01 2.32-5.183 0-2.83-1.087-4.87-3.263-6.12-1.912-1.117-4.94-2.302-9.096-3.554-6.327-1.907-10.942-4.08-13.843-6.515-4.02-3.29-6.028-7.766-6.028-13.424 0-6.91 2.568-12.405 7.712-16.485 4.81-3.816 10.742-5.725 17.796-5.725 5.932 0 10.628 1.02 14.09 3.063 3.46 2.044 5.19 4.448 5.19 7.218 0 4.55-2.44 6.822-7.317 6.822-1.45 0-3.478-.41-6.08-1.235-2.604-.822-4.73-1.234-6.377-1.234-2.108 0-3.89.46-5.34 1.382-1.645 1.054-2.472 2.6-2.472 4.638 0 1.188.298 2.206.89 3.063.79 1.116 2.605 2.202 5.44 3.256 2.105.658 4.218 1.316 6.327 1.976 6.13 2.104 10.68 4.57 13.647 7.4 3.817 3.623 5.73 8.295 5.73 14.02"/></g><g><defs><path id="y" d="M-43-126.93h686V440H-43z"/></defs><clipPath id="z"><use xlink:href="#y" overflow="visible"/></clipPath><path clip-path="url(#z)" fill="#16A085" d="M589.02 141.104v18.393c0 7.775-2.733 11.667-8.205 11.667-5.474 0-8.206-3.886-8.206-11.652V108.96c0-7.77 2.73-11.653 8.205-11.653 5.472 0 8.206 3.892 8.206 11.668v17.004h30.256v-17.005c0-7.776 2.732-11.668 8.206-11.668 5.47 0 8.205 3.885 8.205 11.652v50.552c0 7.77-2.734 11.652-8.205 11.652-5.474 0-8.206-3.892-8.206-11.667v-18.393H589.02z"/></g></svg>