<?xml version="1.0" encoding="utf-8"?>
<!-- Generator: Adobe Illustrator 16.0.0, SVG Export Plug-In . SVG Version: 6.00 Build 0)  -->
<!DOCTYPE svg PUBLIC "-//W3C//DTD SVG 1.1//EN" "http://www.w3.org/Graphics/SVG/1.1/DTD/svg11.dtd">
<svg version="1.1" id="Слой_1" xmlns="http://www.w3.org/2000/svg" xmlns:xlink="http://www.w3.org/1999/xlink" x="0px" y="0px"
	 width="18.738px" height="18.258px" viewBox="0 0 18.738 18.258" enable-background="new 0 0 18.738 18.258" xml:space="preserve">
<g>
	<defs>
		<rect id="SVGID_1_" y="0" width="18.738" height="18.259"/>
	</defs>
	<clipPath id="SVGID_2_">
		<use xlink:href="#SVGID_1_"  overflow="visible"/>
	</clipPath>
	<path clip-path="url(#SVGID_2_)" fill="#000100" d="M17.031,6.612h-2.238v-4.56C14.793,0.92,13.871,0,12.739,0H2.053
		C0.921,0,0,0.921,0,2.053v7.211c0,1.131,0.921,2.053,2.053,2.053h0.148l-0.023,3.047l4.411-3.047H6.82v2.74
		c0,0.942,0.766,1.708,1.708,1.708h4.87l3.607,2.493l-0.019-2.493h0.043c0.942,0,1.708-0.766,1.708-1.708V8.32
		C18.739,7.378,17.973,6.612,17.031,6.612 M6.363,10.591l-3.45,2.383l0.018-2.383H2.053c-0.733,0-1.328-0.596-1.328-1.329v-7.21
		c0-0.732,0.596-1.328,1.328-1.328h10.686c0.732,0,1.328,0.596,1.328,1.328v4.56v2.65c0,0.733-0.596,1.329-1.328,1.329H6.82H6.363z
		 M18.015,14.057c0,0.542-0.441,0.983-0.983,0.983h-0.774l0.015,1.829l-2.647-1.829H8.528c-0.542,0-0.983-0.441-0.983-0.983v-2.74
		h5.194c1.132,0,2.053-0.923,2.053-2.054V7.336h2.239c0.542,0,0.983,0.441,0.983,0.984V14.057z"/>
</g>
</svg>
