<?xml version="1.0" encoding="utf-8"?>
<!-- Generator: Adobe Illustrator 16.0.0, SVG Export Plug-In . SVG Version: 6.00 Build 0)  -->
<!DOCTYPE svg PUBLIC "-//W3C//DTD SVG 1.1//EN" "http://www.w3.org/Graphics/SVG/1.1/DTD/svg11.dtd">
<svg version="1.1" id="Layer_1" xmlns="http://www.w3.org/2000/svg" xmlns:xlink="http://www.w3.org/1999/xlink" x="0px" y="0px"
	 width="777.924px" height="777.924px" viewBox="665.007 -4.279 777.924 777.924"
	 enable-background="new 665.007 -4.279 777.924 777.924" xml:space="preserve">
<g>
	<path d="M1122.804,490.2c23.893,11.938,48.598,24.286,59.366,35.054c8.177,8.178,22.141,12.868,38.31,12.868
		c24.357,0,56.771-11.896,67.956-45.424c3.976-11.928,14.235-21.741,23.287-30.4c11.261-10.774,22.905-21.918,23.084-37.855
		c0.104-9.507-4.027-18.505-12.28-26.744c-11.01-11.011-25.927-16.593-44.353-16.593c-17.336,0-34.438,4.889-47.021,8.485
		c-3.334,0.955-9.501,2.721-11.002,2.893c-21.797,0.101-35.261,16.55-45.101,28.572c-2.282,2.79-8.063,9.861-10.807,11.66
		c-7.083-3.528-14.551-5.317-22.196-5.317c-18.854,0-35.226,11.379-38.923,27.057C1100.485,465.653,1104.269,480.926,1122.804,490.2
		z M1157.451,467.804c2.297,0.486,4.604,0.73,6.908,0.73c17.843-0.015,29.154-13.839,38.242-24.945
		c7.198-8.788,13.075-15.511,17.749-15.511c5.705,0,11.991-1.8,20.745-4.306c10.461-2.984,24.786-7.072,37.093-7.072
		c8.752,0,15.021,2.016,19.169,6.164c0.612,0.61,1.054,1.116,1.367,1.509c-2.16,3.172-8.893,9.601-11.654,12.239
		c-11.431,10.94-25.656,24.558-32.416,44.834c-5.177,15.54-21.049,21.077-34.177,21.077c-7.965,0-12.367-1.951-13.257-2.555
		C1195.777,488.576,1177.729,478.243,1157.451,467.804z"/>
	<path d="M1058.293,695.865c14.863,0,28.781-5.4,38.181-14.813c10.108-10.104,13.08-24.08,8.591-40.42
		c-3.454-12.567-11.449-26.005-21.388-35.942c-4.86-4.861-11.199-7.432-18.331-7.432c-19.99,0-42.473,21.86-50.926,42.276
		c-6.672,16.096-4.598,31.228,5.69,41.516C1029.524,690.466,1043.441,695.865,1058.293,695.865z M1046.24,656.71
		c0.1-0.624,0.313-1.547,0.714-2.643c2.96-8.127,10.767-15.92,15.729-19.43c7.301,9.479,9.634,19.228,8.561,21.309
		c-2.503,2.453-7.451,3.974-12.946,3.974C1053.398,659.92,1048.93,658.711,1046.24,656.71z"/>
	<path d="M1442.931,384.682c-0.002-16.304-1.024-32.705-3.041-48.821l0.348-0.084l-0.919-4.694c-0.94-4.808-1.822-9.674-2.675-14.38
		c-2.134-11.78-4.15-22.915-7.011-33.034c-0.041-0.261-0.094-0.512-0.16-0.758c-31.021-114.718-114.679-210.366-224.217-256.655
		l0.065-0.201l-4.489-1.684c-20.037-7.517-36.238-12.827-49.515-16.228c-0.704-0.273-1.343-0.479-1.992-0.645
		c-31.01-7.814-63.094-11.777-95.357-11.777c-179.226,0-334.48,121.343-377.563,295.13c-3.733,15.708-6.355,30.4-8.491,47.584
		c-0.129,0.533-0.219,1.089-0.262,1.468c-0.008,0.068-0.014,0.13-0.019,0.185h-0.003c-1.839,15.239-2.623,28.576-2.623,44.594
		c0,178.284,119.988,332.772,292.19,376.823l3.817,1.036c18.96,5.147,71.037,11.103,90.704,11.103h2.063
		c0.063,0.002,0.124,0.002,0.188,0.002c0.301,0,0.585,0,0.886-0.002h13.377l-0.365-0.243
		C1275.936,766.063,1442.931,594.51,1442.931,384.682z M701.532,358.962c21.351,0.087,39.399,2.415,50.17,5.08
		c-15.462,28.739-12.191,79.831,7.854,102.938c15.803,18.219,39.527,19.115,61.915,2.336
		c58.069-43.552,85.626-101.586,70.207-147.844c-0.202-0.609-0.215-0.796-0.22-0.807c0.002-0.004,0.151-0.474,1.169-1.396
		c6.982-6.357,25.708-9.055,39.384-3.002c9.802,4.33,14.566,12.057,14.566,23.622c0,32.346-6.421,39.138-15.31,48.542l-0.072,0.076
		c-7.112,7.541-15.965,16.926-22.104,35.349c-14.102,42.33,9.457,56.474,22.113,64.071l0.254,0.152
		c3.05,1.84,5.932,3.577,7.534,5.18c1.016,1.017,2.146,2.082,3.346,3.21l0.388,0.366c6.421,5.993,15.214,14.2,18.802,29.455
		c4.416,18.779-0.129,44.134-13.509,75.358c-19.245,44.909-4.86,88.786,42.753,130.629c-4.097-0.813-8.415-1.697-12.822-2.603
		c-2.655-0.545-5.334-1.094-8.003-1.635c-0.345-0.11-0.692-0.215-1.056-0.306c-157.963-39.031-268.287-180.101-268.287-343.053
		C700.604,375.474,700.901,367.185,701.532,358.962z M980.733,615.674c17.217-40.169,22.057-74.376,14.384-101.671
		c-6.456-22.967-19.996-35.619-28.103-43.196c-1.08-1.005-2.04-1.901-2.854-2.716c-4.762-4.762-10.229-8.039-14.619-10.67
		c-4.78-2.869-7.938-4.765-8.927-7.098c-1.078-2.546-0.361-7.381,2.254-15.216c3.677-11.022,8.354-15.965,14.275-22.223
		c14.182-15.007,25.031-29.911,25.031-72.996c0-25.647-13.037-46.123-35.767-56.176c-9.748-4.314-20.751-6.389-31.639-6.389
		c-17.614,0-34.921,5.434-46.084,15.605c-11.724,10.65-15.657,25.151-10.789,39.788c10.334,30.993-12.887,74.444-57.782,108.121
		c-9.766,7.317-11.838,4.93-13.665,2.823c-12.223-14.087-11.434-55.628-1.472-65.587c12.155-12.138,7.96-24.633,6.392-28.159
		c-5.175-11.734-24.345-25.65-85.721-26.491c0.959-4.93,2.048-9.963,3.407-16.248l1.21-5.607c0.301-0.76,0.535-1.48,0.711-2.191
		c39.107-157.831,180.15-268.061,342.99-268.061c24.156,0,48.25,2.445,71.682,7.271c0.104,20.781,9.074,35.005,15.136,44.618
		l0.154,0.245c0.957,1.522,2.815,4.475,3.544,5.856c-0.112,43.056-7.441,55.498-9.364,58.016
		c-25.012,0.893-64.465,22.744-79.454,50.748c-9.642,18.009-8.854,37.076,2.219,53.691c7.093,10.639,13.199,22.476,19.106,33.924
		c12.846,24.875,27.404,53.069,51.466,53.069c5.228,0,10.676-1.396,16.199-4.15c18.203-9.107,30.818-34.144,43.051-58.422
		c4.231-8.385,11.721-23.225,16.133-28.847c12.109,2.37,18.504,13.486,28.591,35.349c7.541,16.332,15.338,33.219,31.157,41.131
		c23.036,11.53,88.297,2.838,135.343-12.379c1.495,6.5,3.082,14.181,5.068,24.486c2.212,15.982,3.333,32.386,3.333,48.759
		c0,93.601-36.375,181.869-102.425,248.549c-65.651,66.276-152.903,103.456-245.819,104.786
		C1008.127,705.371,959.447,665.348,980.733,615.674z M1279.505,291.966c-4.671-2.336-10.264-14.462-14.761-24.213
		c-10.069-21.807-25.289-54.76-63.306-56.444c-20.521-0.778-30.878,19.83-45.233,48.315l-0.395,0.783
		c-7.095,14.051-18.846,37.325-26.533,42.052c-4.848-2.508-15.464-23.062-20.655-33.113c-6.074-11.761-12.961-25.092-21.12-37.319
		c-3.747-5.625-3.884-10.758-0.457-17.164c9.713-18.147,38.791-31.967,49.641-31.967c28.796,0,43.396-31.825,43.396-94.59
		c0-9.482-4.656-16.882-9.178-24.066c-3.23-5.126-6.336-10.052-8.113-15.835c6.529,2.207,14.222,5.007,24.515,8.909
		c0.172,0.083,0.344,0.163,0.512,0.231c47.903,19.624,91.866,50.478,127.136,89.228c34.093,37.457,60.114,82.336,75.449,130.059
		C1342.496,293.207,1287.707,296.077,1279.505,291.966z"/>
</g>
</svg>
