<?xml version="1.0" encoding="utf-8"?>
<!-- Generator: Adobe Illustrator 16.0.0, SVG Export Plug-In . SVG Version: 6.00 Build 0)  -->
<!DOCTYPE svg PUBLIC "-//W3C//DTD SVG 1.1//EN" "http://www.w3.org/Graphics/SVG/1.1/DTD/svg11.dtd">
<svg version="1.1" id="Слой_1" xmlns="http://www.w3.org/2000/svg" xmlns:xlink="http://www.w3.org/1999/xlink" x="0px" y="0px"
	 width="27.788px" height="36.538px" viewBox="0 0 27.788 36.538" enable-background="new 0 0 27.788 36.538" xml:space="preserve">
<g>
	<defs>
		<rect id="SVGID_1_" x="0.008" y="0" width="27.78" height="36.538"/>
	</defs>
	<clipPath id="SVGID_2_">
		<use xlink:href="#SVGID_1_"  overflow="visible"/>
	</clipPath>
	<path clip-path="url(#SVGID_2_)" fill="#F4CD30" d="M0,18.124c0-2.052,0.172-3.354,4.421-6.525C7.939,8.973,19.215,0,19.215,0
		v14.979h8.573v21.558H2.678C1.206,36.537,0,35.333,0,33.859V18.124"/>
</g>
<polygon fill="#C7AA29" points="19.214,14.979 19.214,23.658 3.458,34.392 23.379,27.911 23.379,14.979 "/>
<g>
	<defs>
		<rect id="SVGID_3_" y="0" width="27.789" height="36.538"/>
	</defs>
	<clipPath id="SVGID_4_">
		<use xlink:href="#SVGID_3_"  overflow="visible"/>
	</clipPath>
	<path clip-path="url(#SVGID_4_)" d="M12.014,14.53c0.921-1.098,2.267-1.486,3.005-0.865c0.739,0.62,0.592,2.012-0.329,3.11
		c-0.921,1.098-2.268,1.485-3.006,0.865C10.945,17.02,11.093,15.628,12.014,14.53"/>
</g>
</svg>
