<svg xmlns="http://www.w3.org/2000/svg" width="804.791" height="369.249" viewBox="18.21 113.61 804.791 369.249"><path fill="#261911" d="M807 117.61H391.523c-6.627 0-12 5.373-12 12v101.994c0 6.627 5.373 12 12 12h6.965c0 18.647.764 35.147.39 32.772 2.3 14.57 41.124-32.772 65.124-32.772h343c6.628 0 12-5.373 12-12V129.61c0-6.628-5.372-12-12-12z"/><path fill="#905D31" d="M401.622 283.16c-2.76 0-5.964-1.61-6.69-6.126l-.004-.02-.002-.014a3.96 3.96 0 0 1 .055-1.534c-.006-1.205-.062-3.588-.12-6.08-.128-5.41-.313-13.213-.358-21.782h-2.978c-8.822 0-16-7.178-16-16V129.61c0-8.822 7.178-16 16-16h415.478c8.82 0 16 7.178 16 16v101.994c0 8.822-7.18 16-16 16h-343c-11.013 0-26.79 12.17-39.467 21.948-11.594 8.942-17.878 13.608-22.913 13.608zm-10.1-161.55c-4.41 0-8 3.59-8 8v101.994c0 4.41 3.59 8 8 8h6.965a4 4 0 0 1 4 4c0 10.018.22 19.392.367 25.594.06 2.496.1 4.292.104 5.612 3.56-1.464 11.032-7.228 16.69-11.593 13.64-10.52 30.614-23.613 44.353-23.613h343c4.41 0 8-3.59 8-8V129.61c0-4.41-3.59-8-8-8H391.523z"/><g fill="#FFF"><path d="M417.84 155.25h14.462l2.958 23.334c.272 2.793.575 5.587.902 8.38.33 2.793.63 5.587.904 8.38h.328l1.48-8.38c.492-2.793.984-5.587 1.478-8.38l5.095-23.334h11.83l5.095 23.334c.493 2.684.986 5.437 1.48 8.257l1.478 8.504h.33c.272-2.847.574-5.67.902-8.462.33-2.793.63-5.56.904-8.298l2.957-23.334H483.9l-8.875 53.406h-17.91l-4.108-21.198a93.23 93.23 0 0 1-1.11-6.327c-.3-2.135-.588-4.19-.86-6.16h-.33c-.273 1.97-.562 4.025-.86 6.16a96.563 96.563 0 0 1-1.11 6.328l-3.943 21.198H427.21l-9.37-53.406zM511.833 197.318H496.88l-2.63 11.338h-14.46l16.27-53.406h17.09l16.268 53.406h-14.953l-2.632-11.338zm-2.547-10.928l-.903-3.697a250.664 250.664 0 0 1-1.973-8.38 334.08 334.08 0 0 0-1.972-8.545h-.33c-.602 2.74-1.218 5.6-1.848 8.586a201.23 201.23 0 0 1-1.932 8.34l-.902 3.696h9.86zM532.047 155.25h20.705c2.847 0 5.57.288 8.175.863 2.6.575 4.875 1.56 6.818 2.958 1.943 1.397 3.492 3.233 4.644 5.506 1.148 2.273 1.725 5.08 1.725 8.42 0 3.288-.59 6.11-1.767 8.464-1.18 2.356-2.753 4.287-4.726 5.792-1.972 1.507-4.244 2.63-6.818 3.37-2.575.738-5.26 1.108-8.052 1.108h-6.573v16.925h-14.133V155.25zm20.047 25.307c2.793 0 4.86-.657 6.203-1.972 1.34-1.315 2.013-3.176 2.013-5.587 0-2.41-.713-4.108-2.137-5.094-1.426-.986-3.45-1.48-6.08-1.48h-5.915v14.133h5.916zM566.225 201.097c0-2.41.767-4.437 2.3-6.08 1.533-1.643 3.506-2.465 5.917-2.465 2.41 0 4.38.822 5.915 2.465 1.533 1.644 2.3 3.67 2.3 6.08s-.767 4.437-2.3 6.08c-1.534 1.644-3.506 2.465-5.915 2.465-2.41 0-4.384-.82-5.916-2.465-1.535-1.643-2.3-3.67-2.3-6.08zM587.094 182.364c0-4.49.71-8.476 2.136-11.955 1.424-3.48 3.34-6.41 5.752-8.793a24.883 24.883 0 0 1 8.34-5.464 26.43 26.43 0 0 1 9.9-1.89c3.396 0 6.477.698 9.243 2.095 2.765 1.396 5.105 3.054 7.023 4.97l-7.723 8.71c-1.314-1.15-2.604-2.04-3.862-2.67-1.26-.63-2.767-.945-4.52-.945-1.59 0-3.108.357-4.56 1.068-1.452.713-2.712 1.727-3.78 3.04-1.066 1.314-1.918 2.932-2.547 4.85-.63 1.917-.943 4.08-.943 6.49 0 5.04 1.054 8.902 3.163 11.585 2.106 2.685 4.89 4.026 8.34 4.026 2.08 0 3.874-.395 5.38-1.19a14.498 14.498 0 0 0 3.986-3.082l7.723 8.545c-2.3 2.63-4.93 4.6-7.888 5.916-2.957 1.313-6.08 1.97-9.366 1.97-3.505 0-6.818-.56-9.94-1.683s-5.86-2.82-8.217-5.094c-2.354-2.272-4.218-5.12-5.587-8.545-1.368-3.422-2.052-7.406-2.052-11.954zM633.434 155.25h14.132v41.574h20.212v11.832h-34.344V155.25zM672.87 155.25h14.134v53.406H672.87V155.25zM692.426 182.364c0-4.49.71-8.476 2.136-11.955 1.424-3.48 3.34-6.41 5.752-8.793a24.883 24.883 0 0 1 8.34-5.464 26.43 26.43 0 0 1 9.9-1.89c3.396 0 6.477.698 9.243 2.095 2.765 1.396 5.105 3.054 7.023 4.97l-7.723 8.71c-1.314-1.15-2.604-2.04-3.862-2.67-1.26-.63-2.767-.945-4.52-.945-1.59 0-3.108.357-4.56 1.068-1.452.713-2.712 1.727-3.78 3.04-1.066 1.314-1.918 2.932-2.547 4.85-.63 1.917-.943 4.08-.943 6.49 0 5.04 1.054 8.902 3.163 11.585 2.106 2.685 4.89 4.026 8.34 4.026 2.08 0 3.874-.395 5.38-1.19a14.498 14.498 0 0 0 3.986-3.082l7.723 8.545c-2.3 2.63-4.93 4.6-7.888 5.916-2.958 1.313-6.08 1.97-9.367 1.97-3.506 0-6.82-.56-9.94-1.683s-5.862-2.82-8.218-5.094c-2.354-2.272-4.218-5.12-5.587-8.545-1.37-3.422-2.052-7.406-2.052-11.954zM738.765 155.25h14.132v19.883h.328L766.7 155.25h15.447l-15.94 21.69 19.064 31.716h-15.445l-11.832-20.54-5.094 7.228v13.312h-14.133l-.002-53.406z"/></g><ellipse fill="#281A11" cx="212.343" cy="319.33" rx="163.419" ry="157.529"/><path fill="#905D31" d="M212.343 482.86c-93.417 0-169.418-73.36-169.418-163.53s76-163.53 169.418-163.53c93.42 0 169.42 73.36 169.42 163.53-.002 90.17-76.002 163.53-169.42 163.53zm0-315.06c-86.8 0-157.418 67.977-157.418 151.53 0 83.555 70.617 151.53 157.418 151.53 86.802 0 157.42-67.978 157.42-151.53s-70.62-151.53-157.42-151.53z"/><path fill="#51A84D" d="M329.977 460.46c-2.48 3.135-9.123 1.572-14.048-3.96-32.203-37.306-25.18-56.99-56.12-71.432-4.3-2.258-2.763-7.346 2.842-10.442 16.457-9.033 26.613-13.846 33.644-25.133 2.286-3.846 8.014-3.774 12.28 1.053 28.01 32.688 21.532 53.145 57.826 74.268 5.13 3.287 4.27 9.68-1.49 12.922-16.916 9.508-27.348 13.53-34.935 22.724z"/><path fill="#40823E" d="M319.92 461.86c-1.777-1.116-3.46-2.552-4.946-4.224-32.56-37.975-25.59-57.39-57.23-71.315-5.27-2.588-3.292-8.87 3.474-12.615 16.632-9.18 26.698-14.12 33.495-25.686 1.928-3.312 6.008-4.592 10.438-2.312 1.54.787 2.998 1.945 4.285 3.402 28.39 33.422 21.99 53.648 59.058 74.31 6.28 3.83 5.14 11.747-1.83 15.65-17.12 9.628-27.46 13.753-34.81 23.202-2.09 2.704-6.823 2.8-11.933-.413zM304.907 349.7c-2.883-1.517-5.656-.858-7.063 1.272-7.252 11.01-17.486 15.693-33.768 24.576-4.456 2.453-5.615 6.44-2.244 8.326 30.278 14.94 23.203 34.875 55.062 71.53a15.82 15.82 0 0 0 3.236 2.776c3.322 2.125 6.503 2.207 8.02.48 7.812-8.942 18.32-12.86 35.033-22.245 4.572-2.58 5.204-7.57 1.173-10.28-35.562-21.562-29.008-42.23-56.652-74.205-.844-.948-1.793-1.703-2.797-2.23z"/><path fill="#40823E" d="M357.47 441.105c-7.01-5.998-6.21-12.963 1.864-18.035 8.385-5.45 3.586 3.945 11.16 9.318M293.522 354.425c6.19 5.615 13.78 7.42 17.842 2.238 3.874-5.567-4.15-4.013-10.9-10.646M332.617 456.138c-7.38-7.078-15.79-10.242-20.224-6.2-4.264 4.384 4.728 4.75 12.628 12.696M269.522 371.232c5.768 4.342 4.316 10.256-3.736 14.784-8.345 4.905-2.878-2.964-9.163-6.653M316.64 414.714c-7.98 2.647-16.757-.816-19.59-7.1-2.86-6.328 1.66-13.482 9.562-16.33 7.852-2.826 16.146-.658 19.123 5.842 3 6.495-1.037 14.954-9.094 17.588z"/><path fill="#40823E" d="M327.575 431.814a1.3 1.3 0 0 1-.287-.258c-6.657-8.148-10.717-15.8-13.79-23.135a.612.612 0 0 1 .374-.837.76.76 0 0 1 .91.42c3.087 7.32 7.18 14.908 13.858 22.967.314.383.27.828-.104.992-.275.12-.654.053-.96-.148zM309.587 398.57a.675.675 0 0 1-.154-.23c-2.85-7.1-6.195-14.018-11.674-20.88-.26-.325-.18-.732.176-.91.355-.18.854-.056 1.114.274 5.473 6.97 8.804 13.965 11.655 21.092a.618.618 0 0 1-.39.826.725.725 0 0 1-.728-.173z"/><path fill="#50A74C" d="M314.84 404.08c.147-.363.234-.692.264-.99.03-.297-.014-.59-.127-.88-.13-.33-.285-.562-.465-.687-.182-.127-.432-.14-.75-.035-.202.066-.34.222-.413.466-.074.246-.13.54-.162.89s-.07.718-.106 1.116c-.037.395-.12.78-.248 1.162-.127.38-.323.72-.586 1.02-.264.305-.635.528-1.114.676-.78.237-1.532.237-2.254.007-.724-.23-1.348-.728-1.867-1.482l-1.703.52c-.228-.577-.452-1.15-.677-1.724a415.64 415.64 0 0 1 1.61-.497 5.865 5.865 0 0 1-.167-1.518c.006-.554.116-1.08.33-1.576.77.182 1.537.368 2.303.556-.16.518-.243.964-.256 1.34-.01.376.05.73.175 1.057.148.393.328.65.536.77s.467.138.776.043c.214-.063.365-.222.455-.467a4.3 4.3 0 0 0 .202-.895c.044-.35.09-.72.135-1.115.046-.394.134-.777.264-1.152.13-.376.32-.713.575-1.014s.614-.528 1.08-.683c.806-.264 1.553-.285 2.244-.047.692.234 1.27.7 1.736 1.396a98.126 98.126 0 0 0 1.66-.604c.23.582.462 1.164.696 1.746-.547.203-1.093.4-1.64.59.113.53.128 1.024.045 1.485a4.82 4.82 0 0 1-.45 1.334 214.68 214.68 0 0 1-2.106-.81z"/><path fill="#51A84D" d="M405.84 363.39c1.013 5.7-3.63 8.72-8.913 7.843-18.032-3.252-29.067.812-45.55 4.84-15.766 4.245-36.98 8.454-58.72 10.474-6.045.6-8.874-3.004-8.895-7.582.88-13.39-7.133-26.668-10.72-42.43-1.176-5.168 3.32-7.896 8.617-7.213 18.043 2.64 29.136-2.02 45.9-6.8 16.032-4.995 37.736-10.11 60.04-13.296 6.198-.965 8.935 2.646 8.776 7.643-1.442 14.58 6.34 29.208 9.464 46.52z"/><path fill="#40823E" d="M402.093 373.26c-1.46.356-3.012.42-4.644.15-17.76-2.944-29.493 1.23-46.78 5.157-16.53 4.155-38.617 8.06-59.533 9.852-6.733.59-9.544-3.794-10.13-9.28-.003-13.518-7.585-27.506-10.605-43.312-.928-4.486 2.044-7.285 6.07-8.29 1.443-.346 2.99-.436 4.627-.225 17.808 2.298 29.63-2.507 47.233-7.233 16.827-4.95 39.44-9.822 60.9-12.836 6.904-1.045 9.585 3.338 9.97 9.344-.53 14.76 6.788 30.15 9.305 47.552.782 4.945-2.35 8.088-6.415 9.12zM279.09 331.366c-2.724.655-4.378 2.788-3.515 5.805 4.117 15.72 12.576 28.322 10.91 41.6-.305 3.67 2.345 6.518 7.492 5.97 22.484-2.194 42.844-6.676 57.893-11.012 15.73-4.133 26.15-8.122 44.496-4.636 1.142.216 2.21.2 3.19-.035 2.76-.68 4.51-3.037 3.727-6.35-3.695-17.23-11.95-31.126-9.698-45.55.462-3.992-2.128-6.852-7.405-6.025-23.065 3.307-43.884 8.638-59.17 13.678-15.98 4.84-26.43 9.39-44.75 6.48-1.142-.182-2.204-.154-3.17.074z"/><path fill="#40823E" d="M395.214 323.292c-13.01.533-22.088-2.81-15.972-10.73 6.947-8.3 5.394.004 16.5-1.585M275.805 343.343c12.092 2.37 14.822-2.568 11.79-11.018-2.852-8.76-4.29 1.11-14.04-1.566M402.988 356.013c-12.22-2.422-15.037 2.89-12.098 12.006 2.723 9.464 4.277-1.03 14.023 1.833M284.362 373.234c12.696-.23 21.74 3.006 16 10.6-6.53 7.924-5.28-.314-16.07.81M348.775 343.548c7.962 6.445 9.155 15.88 2.027 18.673-6.67 2.37-14.374-2.105-22.23-8.247-8.156-6.2-8.815-15.73-1.457-18.78 6.914-2.622 13.973 1.985 21.66 8.355z"/><path fill="#40823E" d="M368.608 338.81c-.1.05-.224.086-.366.104-11.578 1.313-18.71 4.246-24.827 7.52-.29.155-.813.048-1.168-.242-.354-.29-.4-.653-.107-.81 6.186-3.31 13.506-6.322 25.28-7.79.56-.072 1.195.173 1.418.542.164.274.058.535-.23.677zM335.267 350.917a.342.342 0 0 1-.153.158c-6.008 3.273-12.792 6.21-23.803 7.5-.522.06-1.155-.17-1.408-.515-.25-.345-.037-.665.477-.722 10.82-1.162 17.45-4.043 23.43-7.305.286-.154.807-.047 1.17.24.263.213.367.464.287.644z"/><path fill="#50A74C" d="M337.848 345.78a6.423 6.423 0 0 0-1.23-.114c-.34.008-.63.078-.873.21-.276.152-.428.314-.45.487-.024.174.12.393.438.658.202.17.458.27.77.303.312.033.668.044 1.064.03.398-.016.822-.03 1.278-.046a8.52 8.52 0 0 1 1.425.073c.496.064 1 .19 1.507.384a5.36 5.36 0 0 1 1.494.882c.79.643 1.303 1.294 1.537 1.947.232.654.102 1.25-.387 1.785.548.485 1.084.98 1.604 1.488l-1.493.758c-.478-.475-.975-.938-1.482-1.396-.43.15-.95.255-1.565.312a7.072 7.072 0 0 1-1.948-.105 43.916 43.916 0 0 0-.85-2.04c.673.07 1.218.09 1.638.05.417-.035.764-.13 1.038-.277.326-.177.486-.36.478-.554-.01-.194-.168-.417-.48-.67-.216-.176-.49-.286-.82-.333-.33-.045-.697-.065-1.106-.06s-.844.014-1.304.025-.938-.014-1.436-.078a6.834 6.834 0 0 1-1.49-.37 4.966 4.966 0 0 1-1.452-.853c-.812-.67-1.3-1.332-1.462-1.977-.163-.644.005-1.215.492-1.703a34.702 34.702 0 0 1-1.48-1.494l1.53-.784c.45.5.923.985 1.41 1.46a4.59 4.59 0 0 1 1.57-.18c.54.03 1.1.12 1.684.27.096.64.217 1.28.354 1.914z"/><path fill="#51A84D" d="M393.962 434.5c-.592 4.857-4.865 6.89-11.31 3.885.013 0-3.57-1.65-9.31-4.457-2.86-1.402-6.244-3.096-9.854-5.06-33.963-21.106-42.04-37.35-76.814-38.096-2.976-.3-5.286-1.396-6.475-3.048-1.19-1.643-1.21-3.86.387-6.167 9.344-13.9 19.573-24.255 21.727-37.19.733-4.385 5.14-7.273 11.462-5.437 21.633 6.01 38.586 14.702 51.738 22.376 13.714 7.695 23.624 14.37 44.157 16.836 6.057.693 9.51 6.06 6.206 11.963-9.623 17.45-20.203 30.148-21.914 44.395z"/><path fill="#40823E" d="M388.358 441.87c-1.646-.155-3.472-.694-5.424-1.608.012-.002-3.6-1.662-9.42-4.492-2.902-1.414-6.34-3.125-10.018-5.115-34.194-21.055-42.558-37.8-77.868-38.292-3.542-.325-6.357-1.59-7.845-3.548-1.488-1.945-1.572-4.617.343-7.412 9.412-14.14 19.812-24.68 22.03-37.61.674-3.755 3.396-6.804 8.058-7.282 1.646-.157 3.454.032 5.37.59 21.836 5.978 39.3 14.75 52.713 22.446 14.005 7.72 23.957 14.365 44.455 16.576 7.188.71 11.62 7.11 7.652 14.3-9.687 17.776-20.458 30.74-22.245 45.062-.56 4.17-3.145 6.82-7.802 6.387zm-78.126-101.633c-3.253.216-5.343 2.16-5.76 4.716-2.122 12.94-12.208 23.112-21.496 36.786-1.277 1.828-1.297 3.6-.38 4.937.914 1.343 2.736 2.26 5.137 2.52 35.832.86 42.774 18.013 75.813 37.972 3.56 1.903 6.89 3.58 9.712 4.968 5.665 2.78 9.222 4.418 9.208 4.42 1.3.61 2.542.984 3.688 1.107 3.26.352 5.277-1.35 5.61-4.152 1.67-14.167 12.086-26.604 21.66-43.745 2.643-4.657.048-9-4.846-9.638-20.56-2.725-30.44-9.443-43.88-17.123-12.907-7.657-29.37-16.275-50.816-22.31-1.28-.38-2.505-.53-3.65-.46z"/><path fill="#40823E" d="M410.88 397.18c-10.383-2.154-12.896-9.712-8.22-17.632 4.736-8.23 4.68 2.104 14.975 3.195M301.628 350.037c9.22 2.334 18.14.18 18.296-7.125-.28-7.57-6.177-1.033-15.382-3.625M394.21 428.113c-9.403-3.84-18.334-2.19-18.144 5.21.648 7.722 6.246 2.073 15.625 6.397M285.09 375.978c5.055.578 8.233 2.512 9.56 5 1.347 2.49.932 5.506-1.29 8.693-2.227 3.212-3.478 2.872-5.373 1.562-1.9-1.29-4.39-3.572-9.455-3.8M359.055 393.405c-7.202 8.296-20.16 8.45-24.794-.192-1.04-1.735-1.307-3.29-1.57-4.826-.26-6.006 2.667-11.807 9.29-15.24 1.925-1.227 3.962-2.175 6.015-2.79 4.095-1.228 8.316-1.088 11.583 1.03 4.93 3.167 5.936 9.814 3.25 16.037-.883 2.077-2.155 4.115-3.773 5.98z"/><path fill="#40823E" d="M377.796 404.1a1.206 1.206 0 0 1-.395-.103c.008-.002-1.94-.873-4.602-2.21a126.9 126.9 0 0 1-8.99-4.987c-3.91-2.846-9.37-3.936-10.82-8.817 4.004 2.315 7.12 5.222 11.855 7.554a123.024 123.024 0 0 0 8.938 4.896c2.648 1.31 4.59 2.16 4.582 2.16.483.217.66.71.396 1.1-.194.288-.58.437-.962.406zM343.886 382.483c-5.748-4.212-11.882-8.12-20.07-11.265-2.59-1.12-4.476-1.817-4.47-1.82-.467-.18-.644-.598-.39-.937.254-.337.843-.466 1.315-.286-.006.002 1.89.71 4.488 1.85 8.274 3.753 15.626 6.46 19.93 12.21a.855.855 0 0 1-.802.25z"/><g><path fill="#50A74C" d="M351.878 384.496c-.035-.426-.114-.783-.237-1.074a1.75 1.75 0 0 0-.58-.73c-.304-.227-.583-.343-.835-.348-.253-.006-.515.137-.79.426-.173.184-.235.41-.182.68.05.268.15.573.296.913l.464 1.095c.164.39.278.797.343 1.226.063.43.04.866-.072 1.31s-.373.883-.78 1.313c-.665.698-1.416 1.16-2.263 1.387-.845.226-1.73.14-2.653-.254-.478.505-.95 1.013-1.42 1.52-.537-.41-1.073-.816-1.608-1.223.447-.48.896-.955 1.35-1.43-.364-.356-.69-.798-.983-1.32s-.465-1.075-.516-1.664c.882-.284 1.763-.567 2.643-.853.114.574.264 1.04.452 1.394.187.356.433.647.734.878.36.273.676.403.95.39.274-.01.543-.154.808-.43.184-.19.255-.428.22-.71-.04-.285-.126-.602-.264-.95a51.27 51.27 0 0 0-.444-1.11c-.16-.393-.272-.8-.337-1.22a3.33 3.33 0 0 1 .056-1.28c.1-.43.353-.854.75-1.277.69-.73 1.45-1.2 2.29-1.408.84-.207 1.683-.138 2.53.213.468-.518.935-1.04 1.397-1.572.543.39 1.083.78 1.623 1.172-.46.52-.923 1.037-1.387 1.548.386.417.652.864.8 1.34s.214.978.205 1.507c-.854.184-1.71.364-2.562.54z"/></g><g><path fill="#51A84D" d="M71.383 424.828c3.674 5.566 10.06 7.02 12.95 2.748 18.145-30.234 39.992-23.515 74.305-58.074 5.016-5.194 4.99-11.863.973-14.235-11.787-7.28-17.032-17.68-27.137-33.49-3.452-5.397-8.985-5.534-11.413-.192-15.697 37.275-37.646 31.158-73.277 59.89-5.307 4.317-6.18 9.522-2.612 11.368 10.473 5.72 15.44 15.647 26.213 31.985z"/><path fill="#40823E" d="M70.178 426.26c-10.924-16.54-15.993-26.4-26.712-31.87-4.365-2.06-3.466-8.324 2.996-13.596 36.317-29.21 58.105-23.116 73.23-61.11.733-1.612 1.696-2.884 2.874-3.72 3.34-2.432 7.937-.666 10.9 3.955 10.274 16.03 15.63 26.376 27.678 33.413 4.91 2.688 5.148 10.778-.98 17.086-35.053 35.01-56.725 28.28-74.314 59.19-.876 1.287-2.015 2.205-3.392 2.68-3.91 1.39-9.133-1.27-12.28-6.03zm52.194-102.807c-16.25 36.592-38.348 30.45-73.314 58.717-4.188 3.398-4.985 7.578-2.188 9.154 10.227 5.96 15.09 15.947 25.706 32.088 2.077 3.143 5.385 4.783 7.99 3.898.914-.303 1.69-.89 2.314-1.727 18.682-29.592 40.69-22.88 74.284-57.008 3.945-4.11 4.064-9.423.907-11.422-11.528-7.507-16.66-17.955-26.59-33.546-1.944-3.038-4.875-4.118-7.123-2.565-.79.538-1.456 1.356-1.985 2.41z"/><path fill="#40823E" d="M49.893 395.13c6.638-6.025 9.115-13.293 4.348-16.69-5.135-3.18-4.486 4.16-12 10.828M136.233 328.835c-4.687 7.424-11.208 7.168-16.17-.2-5.352-7.642 3.223-3.835 7.195-11.84M67.682 417.732c5.507-5.688 12.56-4.256 18.122 3.65 5.957 8.186-3.65 2.816-8.442 9.082M154.69 352.378c-5.912 7.68-7.76 16.32-2.18 20.623 5.98 4.116 4.19-5.052 11.082-13.286M90.878 381.246c3.244 7.64 11.858 12.17 18.464 9.14 6.602-3 8.792-12.122 5.483-19.866-3.32-7.83-11.367-11.165-17.916-7.988-6.526 3.18-9.284 11.114-6.032 18.714z"/><path fill="#40823E" d="M74.326 390.976a.876.876 0 0 0 .3-.14c7.808-5.577 15.317-9.1 22.727-12.132a.685.685 0 0 0 .386-.88.675.675 0 0 0-.89-.355c-7.432 3.037-15.015 6.553-22.92 12.133-.375.264-.523.753-.328 1.093.143.253.433.352.724.28zM107.38 374.43a.68.68 0 0 0 .276-.062c7.342-3.275 14.668-7.547 21.97-14.455.348-.328.467-.886.27-1.246-.197-.358-.632-.38-.976-.055-7.197 6.928-14.45 11.223-21.77 14.51a.715.715 0 0 0-.378.906.64.64 0 0 0 .608.402z"/><g><path fill="#50A74C" d="M97.79 373.664c.18-.457.415-.88.705-1.266s.67-.73 1.14-1.03c-.223-.516-.447-1.03-.676-1.542.588-.26 1.174-.52 1.758-.785.233.527.463 1.054.69 1.58.83-.176 1.566-.108 2.203.21.638.32 1.12.87 1.446 1.648.188.452.25.882.183 1.29a3.582 3.582 0 0 1-.408 1.168c-.206.37-.446.717-.72 1.036-.277.32-.534.623-.775.908a4.92 4.92 0 0 0-.56.795c-.132.246-.156.47-.07.678.125.3.302.482.528.553.227.07.54.018.938-.154.336-.146.647-.357.932-.642.284-.282.576-.674.877-1.174.64.43 1.283.854 1.932 1.28a4.843 4.843 0 0 1-1.013 1.427c-.425.418-.854.75-1.283 1 .227.52.457 1.044.693 1.567-.59.258-1.178.513-1.764.767-.25-.56-.493-1.115-.733-1.67-.913.16-1.69.044-2.33-.338-.64-.383-1.12-.95-1.435-1.707-.194-.465-.26-.904-.196-1.318.062-.412.197-.8.404-1.166s.45-.704.73-1.015c.278-.313.54-.604.785-.877.247-.273.44-.526.578-.756s.17-.44.09-.635c-.13-.307-.3-.48-.515-.52-.215-.038-.488.016-.824.16a2.095 2.095 0 0 0-.752.54c-.206.23-.4.53-.583.896-.656-.302-1.314-.607-1.975-.91z"/></g><g><path fill="#51A84D" d="M22.375 318.83c-2.98 3.852 2.233 10.545 10.69 13.13 27.88 9.1 43.402 6.72 56.516 9.966 12.987 2.484 23.563 10.59 38.618 23.03 4.476 3.472 10.63-1.247 12.062-8.163 3.924-20.697 4.65-30.998 14.09-43.99 3.17-4.33-1.997-11.592-10.6-14.262-28.383-9.408-44.052-6.86-57.157-9.427-12.995-1.806-23.427-8.73-38.822-19.493-4.576-2.962-10.818 1.942-12.202 8.533-3.812 19.755-4.3 29.072-13.193 40.677z"/><path fill="#40823E" d="M19.305 317.352c9.51-11.64 10.69-20.767 14.566-40.263 1.626-7.68 9.446-14.087 14.975-10.544 15.493 10.843 25.782 18.474 38.648 20.665 12.983 2.996 28.543.55 57.262 9.8 2.597.82 5.03 1.984 7.164 3.458 6.17 4.188 8.366 10.214 5.538 13.895-10.084 13.066-11.524 23.204-15.534 43.665-1.694 8.08-9.4 14.26-14.793 10.093-15.118-12.557-25.533-21.417-38.39-24.325-12.99-3.715-28.42-1.478-56.62-10.46-2.553-.796-4.955-1.9-7.07-3.28-6.115-3.93-8.406-9.436-5.745-12.703zm123.485-17.297c-28.006-9.565-43.745-6.936-56.95-9.104-13.105-1.447-23.677-7.693-39.01-18.39-3.655-2.377-8.464 1.255-9.584 6.658-3.746 19.96-3.566 29.434-11.872 40.995-1.542 2.207 0 5.646 3.956 8.205 1.374.897 2.945 1.635 4.634 2.187 27.52 9.208 43.103 6.71 56.32 9.515 13.095 2.084 23.826 9.47 38.853 21.805 3.58 2.777 8.324-.71 9.477-6.366 3.834-20.878 3.87-31.307 12.7-44.217 1.644-2.47.16-6.233-3.83-8.97-1.387-.963-2.978-1.745-4.694-2.318z"/><path fill="#40823E" d="M34.562 286.484c7.733 4.866 12.95 1.368 16.43-10.515 4.14-12.467-4.937-1.31-11.78-5.73M149.975 317.766c-11.45-6.464-18.428-13.668-15.22-19.858 3.818-6.188 7.115 2.494 20.6 8.347M26.757 314.673c11.338 5.992 18.305 12.58 15.322 18.2-3.576 5.58-6.997-2.354-20.264-7.878M141.486 348.32c-7.664-5.53-12.907-2.17-16.358 10.086-4.13 12.87 4.875 1.748 11.59 6.893M74.323 315.964c3.155 7.96 10.63 13.793 17.75 14.186 7.435.37 12.527-7.215 9.39-15.5-3.135-8.14-10.228-14.36-17.352-14.56-7.432-.197-12.966 7.773-9.787 15.874z"/><path fill="#40823E" d="M54.083 312.7c.113.074.235.138.36.18 10.247 3.425 18.9 3.653 27.176 3.073.394-.027.594-.334.45-.687-.143-.353-.576-.618-.967-.595-8.236.554-16.777.222-26.824-3.274-.477-.164-.833.033-.793.443.03.304.273.64.596.86zM92.833 315.013c.103.03.207.043.31.035 8.298-.545 17.03-.22 27.355 3.455.49.174.854-.02.815-.44-.04-.418-.48-.897-.98-1.067-10.534-3.588-19.38-3.804-27.71-3.23-.396.027-.6.336-.456.69.107.26.374.474.666.557z"/><g><path fill="#50A74C" d="M82.32 311.43c.218-.378.498-.704.838-.98.34-.275.774-.48 1.304-.613-.19-.56-.373-1.123-.54-1.692.653-.048 1.31-.1 1.97-.15.17.575.353 1.145.55 1.708.92.1 1.716.397 2.394.89a4.414 4.414 0 0 1 1.51 1.95c.19.467.244.873.158 1.22a2.243 2.243 0 0 1-.48.935 4.16 4.16 0 0 1-.823.727c-.31.21-.6.41-.872.6-.27.19-.48.38-.633.563-.152.185-.184.383-.09.594.13.305.318.52.567.646.248.125.596.168 1.04.127a2.68 2.68 0 0 0 1.044-.307c.323-.17.656-.436 1-.796.695.582 1.388 1.17 2.07 1.772-.297.398-.69.717-1.178.96a5.675 5.675 0 0 1-1.455.5c.21.538.41 1.08.6 1.628-.652.045-1.31.092-1.968.14a52.203 52.203 0 0 0-.638-1.705c-1.007-.125-1.852-.444-2.535-.962a4.71 4.71 0 0 1-1.52-1.924c-.2-.472-.265-.888-.188-1.245.08-.357.236-.674.47-.948.235-.274.51-.515.823-.72l.885-.58c.277-.182.496-.357.656-.525.16-.17.2-.357.116-.558-.13-.32-.312-.528-.545-.628-.236-.1-.54-.133-.915-.098-.328.03-.61.12-.845.276a2.702 2.702 0 0 0-.67.66c-.708-.482-1.41-.97-2.1-1.465z"/></g></g><g><path fill="#51A84D" d="M154.085 356.17c1.094 5.003-2.078 9.946-7.08 11.038l-99.66 21.765a9.274 9.274 0 0 1-11.04-7.08l-9.728-44.546a9.274 9.274 0 0 1 7.08-11.04l99.66-21.763c5.005-1.094 9.947 2.078 11.04 7.08l9.728 44.545z"/><path fill="#40823E" d="M151.543 367.083a11.008 11.008 0 0 1-4.16 1.87l-99.658 21.763c-5.956 1.3-11.86-2.487-13.162-8.443l-9.73-44.545a11.07 11.07 0 0 1 4.286-11.294 10.997 10.997 0 0 1 4.158-1.868l99.66-21.766c5.957-1.3 11.86 2.488 13.163 8.445l9.73 44.545a11.07 11.07 0 0 1-4.287 11.293zm-120.32-37.77a7.5 7.5 0 0 0-2.903 7.653l9.728 44.545c.882 4.036 4.882 6.6 8.915 5.72l99.66-21.764a7.412 7.412 0 0 0 2.816-1.264 7.496 7.496 0 0 0 2.9-7.65l-9.727-44.545c-.88-4.035-4.88-6.602-8.916-5.72l-99.66 21.765a7.427 7.427 0 0 0-2.814 1.262z"/><path fill="#40823E" d="M145.193 318.166c-7.4 1.617-14.712-3.072-16.328-10.475-1.616-7.4 5.262-.16 12.664-1.776M28.545 343.64c7.4-1.616 12.092-8.928 10.476-16.328s-4.85 2.048-12.25 3.664M151.96 350.065c-7.4 1.616-12.09 8.927-10.474 16.328s4.85-2.048 12.25-3.664M35.313 375.54c7.4-1.616 14.712 3.072 16.328 10.475 1.616 7.4-5.262.16-12.663 1.776"/><ellipse transform="rotate(-102.32 90.023 346.23)" fill="#40823E" cx="90.024" cy="346.24" rx="19.899" ry="16.822"/><path fill="#40823E" d="M128.548 338.06a.865.865 0 0 1-.334.15l-30.39 6.638a.893.893 0 0 1-.38-1.743l30.388-6.638a.895.895 0 0 1 1.063.68.898.898 0 0 1-.347.914zM84.003 347.79a.897.897 0 0 1-.335.15l-30.388 6.636a.894.894 0 0 1-1.063-.682.896.896 0 0 1 .683-1.063l30.388-6.635c.48-.104.956.2 1.063.683a.896.896 0 0 1-.347.91z"/><g><path fill="#50A74C" d="M92.263 342.15c-.465-.268-.894-.453-1.284-.554-.394-.1-.792-.108-1.198-.024-.465.098-.797.248-.996.456s-.254.53-.164.964c.058.276.244.487.563.635.316.146.708.277 1.17.395.465.115.96.24 1.486.374a7.515 7.515 0 0 1 1.526.57c.49.247.922.573 1.293.98.37.41.625.94.76 1.593.22 1.06.128 2.032-.27 2.917s-1.147 1.586-2.235 2.098l.478 2.31-2.44.503-.45-2.178c-.64.057-1.338.023-2.098-.1s-1.467-.375-2.12-.754l1.09-2.86c.686.312 1.283.515 1.794.604.512.092.997.09 1.463-.007.552-.114.925-.293 1.115-.536.19-.244.244-.578.157-.998-.062-.292-.252-.522-.573-.69a6.215 6.215 0 0 0-1.183-.447 85.97 85.97 0 0 0-1.493-.406 8.02 8.02 0 0 1-1.528-.582 4.632 4.632 0 0 1-1.29-.96c-.37-.394-.62-.91-.75-1.55-.23-1.104-.124-2.078.313-2.926.438-.85 1.164-1.497 2.176-1.95l-.47-2.265 2.44-.505.458 2.223c.722-.027 1.38.063 1.977.273a6.91 6.91 0 0 1 1.69.875l-1.412 2.52z"/></g></g></g><g><path fill="#281A10" d="M331.862 262.004c31.667-23.333 20-60.5-14.333-71.667-36.19-10.094-54.668-1.5-57.834 25.333-22.667-8.792-47-10.5-71.333.833-18.167-10.5-29.585-10.227-45.833-3.333-8.863-9.11-17.753-16.066-30.063-13.604-11.077 4.185-13.062 9.812-12.938 24.062-3.19 1.25-3.69 1.562-8 2.542 10.832 8.333 9.27 7.73 16 17.167-19.204 26.342-37.19 49.48-32 64.333 24.937 40.52 40.332 73.168 43.5 91.5-5 .02-8.376.084-12.334-2 3.396 18.52 8.396 23.77 20.833 35.668-3.626 2.666-7.314 3.854-12.334 4.666 18.333 14 22.833 16 50.667 18.668 34.833-.5 44.795-12.178 63.833-12.834 6.532 0 12.208 5.48 13.333 12.668 66.666-23 150.666-90.668 90.166-180.667 8.37-4.432 10.583-6.022 14.896-14.147-6 1.748-10.568 1.057-16.23.81z"/><path d="M291.965 190.24c6.832 0 15.043 1.32 24.406 3.927 16.078 5.255 27.43 16.975 29.632 30.602.955 5.914.153 11.766-2.386 17.393-2.786 6.174-7.54 11.766-14.127 16.62l-9.126 6.724 11.324.493c.93.04 1.83.093 2.71.145 1.773.104 3.448.202 5.21.202h.236c-1.875 1.842-4.27 3.205-8.52 5.455l-3.928 2.08 2.48 3.687c19.655 29.24 24.968 57.952 15.788 85.342-6.604 19.707-21.024 38.854-41.702 55.373-16.665 13.313-37.216 24.77-58.262 32.52-2.79-6.775-9.06-11.467-16.005-11.467h-.07l-.067.002c-8.546.295-15.436 2.67-22.73 5.186-9.98 3.44-21.286 7.336-40.805 7.643-23.292-2.24-29.39-3.948-41.81-12.915a25.817 25.817 0 0 0 5.686-3.193l3.835-2.822-3.44-3.29c-10.707-10.24-15.23-15.064-18.272-27.01 1.707.206 3.44.237 5.294.237.45 0 .915-.002 1.393-.004h.335l4.73-.02-.805-4.662c-3.298-19.09-18.845-51.933-43.79-92.517-3.723-12.02 11.71-33.11 28.035-55.428 1.174-1.604 2.357-3.22 3.546-4.85l1.7-2.33-1.675-2.35a255.153 255.153 0 0 1-2.95-4.232c-2.78-4.055-4.028-5.786-7.872-9.024.312-.125.65-.26 1.026-.407l2.563-1.005-.024-2.754c-.12-13.41 1.58-16.904 10.037-20.166a20.962 20.962 0 0 1 3.81-.362c8.084 0 14.755 5.155 22.285 12.894l1.91 1.962 2.52-1.07c7.48-3.173 13.258-4.588 18.73-4.588 7.062 0 14.322 2.376 23.538 7.703l1.803 1.042 1.888-.88c10.82-5.04 22.2-7.593 33.826-7.593 11.068 0 22.633 2.31 34.373 6.863l4.813 1.867.604-5.128c2.086-17.67 11.077-25.9 28.298-25.9m0-4c-19.516 0-29.96 9.867-32.27 29.43-11.578-4.49-23.594-7.133-35.82-7.134-11.708 0-23.608 2.423-35.513 7.967-9.89-5.717-17.782-8.24-25.54-8.24-6.492 0-12.89 1.766-20.293 4.907-7.64-7.85-15.3-14.104-25.153-14.104-1.578 0-3.21.16-4.91.5-11.078 4.185-13.063 9.812-12.94 24.062-3.187 1.25-3.687 1.562-8 2.542 10.834 8.333 9.272 7.73 16 17.167-19.202 26.342-37.187 49.48-32 64.333 24.94 40.52 40.334 73.168 43.5 91.5-.59.002-1.16.006-1.71.006-4.097 0-7.133-.17-10.623-2.006 3.396 18.52 8.396 23.77 20.833 35.668-3.625 2.666-7.313 3.854-12.333 4.666 18.333 14 22.833 16 50.667 18.668 34.834-.5 44.796-12.178 63.834-12.834 6.532 0 12.208 5.48 13.333 12.668 66.667-23 150.667-90.668 90.167-180.667 8.37-4.432 10.583-6.022 14.896-14.147-3.094.902-5.807 1.156-8.483 1.156-2.517 0-5.003-.225-7.746-.344 31.668-23.333 20-60.5-14.332-71.667-9.805-2.738-18.31-4.1-25.563-4.1z"/></g><g><path fill="#905D31" d="M238.362 462.82v-4.15c0-5.68-4.01-10.303-8.952-10.332-7.47.268-13.49 2.36-20.46 4.78-10.113 3.513-22.698 7.886-44.255 7.886l-.214-.008c-29.11-2.084-38.102-7.63-56.378-22.94l-6.325-5.302h8.252c2.728 0 6.268-.33 9.21-1.178-11.248-11.13-15.623-19.19-17.94-37.955l-.77-6.247 5.34 3.338c.46.288.887.563 1.293.823 2 1.284 3.25 2.09 5.507 2.467-4.977-18.597-20.334-49.756-41.862-84.758l-.24-.39-.112-.44c-4.33-16.972 10.623-37.448 29.554-63.37l1.32-1.81c-5.55-7.784-6.52-8.863-17.273-15.883l-6.932-4.525 8.22-.967c6.103-.718 7.584-.948 9.204-1.58.26-12.615 3.24-20.498 16.254-25.413l.472-.136c2.03-.407 4.06-.613 6.03-.613 11.228 0 19.854 6.67 26.275 13.016 6.974-2.766 13.022-4.062 18.9-4.062 8.043 0 16.166 2.423 26.173 7.83 10.874-4.85 22.654-7.306 35.042-7.306 10.58 0 21.574 1.857 32.012 5.39 3.912-18.093 16.506-27.623 36.626-27.623 7.803 0 16.888 1.43 27.004 4.253l.147.045c18.697 6.277 31.796 19.772 35.04 36.1 2.467 12.41-1.14 24.886-9.958 35.166 1.896-.325 3.814-.878 6.188-1.742l6.882-2.503-3.148 6.61c-4.603 9.666-7.252 13.61-14.23 17.78 19.16 30.88 23.69 61.248 13.452 90.304-16.883 47.922-70.565 80.664-111.408 94.143l-3.94 1.303zM117.61 438.093c14.687 11.707 23.33 15.193 47.192 16.91 20.476-.014 32.006-4.02 42.18-7.553 7.135-2.48 13.876-4.822 22.275-5.11l.104-.003c6.994 0 12.885 5.236 14.538 12.3 39.06-13.712 88.46-44.718 104.152-89.255 9.885-28.057 4.993-57.58-14.54-87.75l-1.78-2.748 2.895-1.533c5.827-3.084 8.29-5.084 11.38-10.593-2.844.53-5.588.648-9.107.493l-7.508-.326 5.668-4.934c11.133-9.69 16.083-22.47 13.58-35.063-2.816-14.17-14.4-25.962-30.992-31.556-9.56-2.66-18.077-4.01-25.315-4.01-18.527 0-28.777 8.53-31.333 26.075l-.538 3.694-3.493-1.32c-10.755-4.067-22.26-6.216-33.273-6.216-12.034 0-23.438 2.482-33.894 7.376l-1.39.65-1.342-.747c-9.687-5.396-17.27-7.803-24.59-7.803-5.57 0-11.433 1.386-18.444 4.36l-1.89.803-1.433-1.47c-8.623-8.865-15.624-12.647-23.407-12.647-1.5 0-3.05.15-4.613.45-9.54 3.662-12.16 8.374-12.16 21.687v1.944l-2.064.923c-1.752.786-2.785 1.22-4.612 1.6 6.267 4.47 7.966 6.855 12.982 13.897l1.893 2.655-3.873 5.308c-17.82 24.402-31.935 43.728-28.688 57.922 23.654 38.51 39.43 71.35 43.3 90.146l.742 3.604h-3.68c-3.877 0-6.297-.463-8.38-1.322 2.695 15.258 7.675 21.26 18.435 31.39l2.75 2.585L126.19 435c-2.463 1.642-5.647 2.57-8.583 3.093z"/></g><g><path fill="#C9905E" d="M187.028 416.753c13.25-14 17-21.75 23-48.5 10 14.25 13.5 25.5 13.25 39-11.75 10.75-12.75 21.5-9 35.25-38.25 13-62.5 9-78.25-8.5 23.768 0 50.75 7.75 51-17.25z"/><path d="M174.854 452.167c-16.937.002-30.122-5.502-40.313-16.826l-3.003-3.337h4.49c4.707 0 9.535.3 14.203.59 4.52.28 8.792.545 12.82.545 13.467.002 21.84-2.742 21.978-16.403l.008-.784.54-.57c13.044-13.78 16.62-21.34 22.5-47.562l.99-4.414 2.6 3.703c9.936 14.157 13.88 25.8 13.612 40.186l-.016.858-.635.58c-11.615 10.628-11.767 20.98-8.42 33.25l.495 1.813-1.78.605c-15.383 5.228-28.49 7.77-40.068 7.77zM140.92 436.1c8.883 8.112 20.034 12.07 33.934 12.067 10.54 0 22.987-2.344 37.02-6.97-3.643-14.88-.853-25.13 9.416-34.825.072-11.793-2.99-21.715-10.343-33.172-5.4 22.98-9.605 31.234-21.934 44.364-.553 17.226-13.405 19.573-25.96 19.573h-.002c-4.15 0-8.48-.27-13.066-.553-2.987-.184-6.04-.374-9.065-.483z"/></g><g><path fill="#FFF" d="M135.892 432.253c-11.254-7.77-16.077-15.81-20.364-25.99 15.54 9.378 22.775 2.947 29.474 16.076 0 0 9.793.804 15.273.804 6.163-11.52 13.13-5.627 18.488-19.56 10.45 21.435-2.757 28.67-6.163 28.67h-36.708z"/><path d="M172.6 434.253H135.27l-.514-.354c-11.46-7.913-16.56-16.146-21.07-26.86l-2.386-5.664 5.262 3.176c6.15 3.71 10.84 4.813 14.98 5.787 5.838 1.372 10.5 2.468 14.712 10.093 2.46.188 8.564.627 12.858.7 2.98-5.038 6.204-6.742 9.07-8.26 3.276-1.73 6.107-3.228 8.715-10.008l1.65-4.29 2.015 4.133c6.244 12.808 4.3 20.703 1.568 25.072-2.945 4.716-7.407 6.473-9.527 6.473zm-36.08-4h36.08c.962 0 4.094-1.32 6.138-4.594 1.92-3.07 3.287-8.448-.038-17.214-2.744 4.842-5.847 6.48-8.65 7.963-2.8 1.48-5.444 2.878-8.01 7.677l-.565 1.057h-1.198c-5.5 0-15.033-.777-15.438-.81l-1.11-.093-.508-.99c-3.51-6.882-6.93-7.687-12.597-9.02-3.034-.714-6.604-1.554-10.868-3.48 3.723 7.548 8.296 13.548 16.763 19.503z"/></g><path fill="#E9AD77" d="M205.028 435.503c-7 2.5-15.667 6-28.333 0 5.667-1.332 12.333-6.76 12.333-18 9-7.5 20.25-31.75 22-44.125 1.125 2 11.5 13.125 5.333 31.625-6.498 4.666-11.332 13.366-11.332 30.5z"/><g><path fill="#E8AD76" d="M124.57 292.712c-5.542-11.708-13.875-4.375-19.542-23.208-4.063 5.062-9.333 17.5-2.333 29.5-4.125-.25-7.958 1.543-8.333 8.668.5 10 2.333 13 7.917 21.832 3.75-14.25 8-13.75 21-21.75 1.748-4.313 3.602-8.917 1.29-15.042"/><path d="M103.043 334.457l-2.455-3.885c-5.598-8.855-7.69-12.17-8.224-22.803l-.005-.105.004-.103c.38-7.23 4.005-9.632 7.18-10.33-5.4-12.19.01-24.104 3.923-28.983l2.38-2.966 1.096 3.64c3.01 10 6.586 11.906 10.373 13.92 3.006 1.603 6.414 3.416 9.062 9.01l.063.15c2.597 6.875.432 12.21-1.31 16.5l-.247.606-.558.344c-2.534 1.56-4.723 2.79-6.655 3.88-7.963 4.478-10.646 5.985-13.46 16.677l-1.167 4.447zm-6.678-26.782c.41 7.984 1.648 11.115 5.276 17.04 3.056-8.67 7.037-10.91 14.07-14.866 1.755-.988 3.728-2.1 5.96-3.458 1.6-3.963 2.96-7.787 1.057-12.898-2.073-4.337-4.492-5.625-7.29-7.115-3.626-1.93-7.675-4.085-10.968-12.374-3.012 5.586-5.367 14.87-.05 23.99l1.887 3.23-3.733-.226c-.2-.012-.4-.02-.6-.02-2.434 0-5.266.766-5.61 6.695z"/></g><path fill="#C88F5D" d="M99.528 301.503c13.25 11.25 18.125.965 18.125-5.875-8.015 0-14.5-8.05-14.5-18-5.25 12.25 1.75 21.375 3.25 23.75-3.422-.25-5-.75-6.875.125"/><g><path fill="#FFF" d="M154.195 332.67c.583-3.833 2.208-7.292 4.583-8.667.75 11.375 2.5 15.75 9.75 25.332 3.75-17.332 3.5-14.332 12.667-31.166-23.167-8-58.25-19.085-77.167 8.58 3.667 13.25 5.625 13.876 15.333 22.42-4.332-18.835-2.374-21.585-.457-24.92 2.875 2.376 2.5 6 1.625 8.5 3.333-2.79 6.75-6.25 7-10 1.625-.624 11.25-2.75 21.833 1.085.002 3.318 3.502 8.334 4.835 8.834"/><path d="M122.704 354.773l-4.663-4.102c-.932-.82-1.792-1.567-2.59-2.26-7.585-6.583-9.875-8.57-13.35-21.124l-.247-.896.523-.768c8.418-12.312 20.934-18.555 37.197-18.555 14.4 0 29.37 4.754 42.273 9.21l2.233.77-1.13 2.074a524.216 524.216 0 0 1-4.367 7.848c-4.85 8.583-5.14 9.097-8.102 22.788l-.92 4.258-2.63-3.475c-6.402-8.466-8.683-13.126-9.7-21.434-.477 1.125-.845 2.442-1.062 3.858l-.37 2.44-2.31-.866c-2.076-.78-5.23-5.5-5.97-9.224-3.538-1.142-7.277-1.718-11.134-1.718-3.22 0-5.72.414-7.08.727-.926 4.006-4.43 7.39-7.496 9.96l-2.766 2.314c.357 2.995 1.064 6.903 2.265 12.118l1.397 6.058zm37.858-34.113l.212 3.213c.618 9.363 1.875 13.686 6.754 20.7 2.307-10.247 3.204-11.835 7.574-19.57.89-1.57 1.945-3.442 3.196-5.712-12.065-4.108-25.755-8.22-38.726-8.22-14.732 0-25.657 5.254-33.365 16.055 2.703 9.56 4.316 11.646 9.947 16.598-2.708-14.02-.96-17.05.88-20.23l1.314-2.287 1.826 1.508a8.05 8.05 0 0 1 2.85 4.887c1.346-1.565 2.394-3.284 2.506-4.976l.085-1.275 1.193-.46c1.343-.516 5.002-1.284 9.578-1.284 4.746 0 9.34.792 13.654 2.354l1.32.48v1.4c0 1.347.868 3.23 1.797 4.722 1.03-2.902 2.65-5.146 4.617-6.284l2.788-1.618zm-41.436 7.972c-.206.83-.343 1.832-.37 3.115.266-.855.498-1.99.37-3.115z"/></g><g><path fill="#E8AD75" d="M160.028 308.753c-8.015 0-34.25-7.75-13.5-22 4.75-3.25 25.75-16 12.5-37.75 54.5 24.75 55.75 52.25 49.25 86.25-15.75-17.75-28.25-23.75-48.25-26.5z"/><path d="M209.48 339.62l-2.698-3.038c-14.612-16.47-26.46-22.998-46.896-25.828-5.63-.06-20.33-3.498-22.822-11.526-1.426-4.594 1.377-9.346 8.332-14.122l.704-.475c2.81-1.886 8.652-5.81 12.24-11.67 4.306-7.028 3.962-14.737-1.02-22.915l-3.38-5.547 5.916 2.686c26.018 11.815 41.43 24.737 48.5 40.666 6.77 15.25 4.91 31.977 1.887 47.78l-.764 3.99zm-46.037-86.328c5.175 12.795.11 24.434-15.114 34.66l-.673.453c-3.67 2.52-7.828 6.24-6.773 9.637 1.563 5.034 13.517 8.713 19.145 8.713l.27.02c10.918 1.5 19.058 3.92 26.39 7.842 6.84 3.66 13.373 8.887 20.347 16.312 2.74-15.768 3.18-29.028-2.336-41.455-6.173-13.91-19.345-25.487-41.257-36.183z"/></g><g><path fill="#AA7342" d="M281.528 361.337c10.5-8.334 15-14 21.333-24.834-3.666 20-9.5 28.168-23.166 40.668 30.333.667 83.333-54.833 47.667-102.832 5.668-1.333 12.334-5.5 15.834-9.167-9.333-.166-12.167-.832-18.167-3 24.833-13.832 28.167-36.332-2.167-54.5 9.167.168 15 3.334 19.667 6.834-9.333-23.333-65.167-36.833-70.5 3.5 4.667 5.5 9.833 10 12.667 16.667-33-29.25-102-33-119 15 13.667 9 17 11 20.583 15.584 4.625 3.625 10.25 7.75 14.25 14 11.375 5.875 17.833 14.557 17.833 32.083 55 9.332 61.5 36.5 63.333 50.332"/><path d="M280.243 378.175c-.19 0-.38-.002-.57-.006l-2.492-.056 1.84-1.684c12.344-11.288 18.054-18.85 21.69-34.45-4.666 7.345-9.254 12.685-18.005 19.696l.113.853-1.45.21-.015-.018-.52.07-.113-.866-.598-.754.442-.35c-5.197-34.843-38.026-44.37-62.372-48.502l-.833-.142v-.845c0-15.813-5.01-24.852-17.293-31.195l-.238-.124-.146-.226c-3.604-5.63-8.57-9.5-12.95-12.914l-1.246-1.01c-3.2-4.092-6.186-6.055-17.297-13.358l-3.702-2.436.26-.738c7.942-22.422 25.82-31.313 39.417-34.823 24.958-6.443 56.547.338 77.234 16.153-1.888-2.874-4.204-5.414-6.61-8.053-1.163-1.274-2.364-2.593-3.527-3.964l-.287-.338.058-.44c2-15.13 11.21-24.478 25.936-26.32 18.67-2.338 40.822 8.426 46.484 22.58l1.324 3.313-2.853-2.14c-3.612-2.708-8.195-5.485-15.175-6.36 12.522 8.33 19.032 17.828 18.88 27.63-.15 9.43-6.6 18.383-18.227 25.375 4.503 1.53 7.568 2.075 15.805 2.222l2.28.04-1.575 1.65c-3.167 3.317-9.128 7.322-14.893 9.063 13.614 19.146 14.917 41.628 3.63 63.473-11.4 22.084-34.786 39.782-52.407 39.782zm24.63-47.092l-1.027 5.602c-3.56 19.418-9.374 28.018-21.516 39.408 16.667-1.31 37.9-18 48.55-38.613 6.457-12.498 14.48-37.242-4.32-62.546l-.907-1.222 1.48-.35c4.832-1.136 10.157-4.31 13.602-7.252-7.376-.24-10.377-.953-16.045-3l-2.065-.746 1.918-1.068c12.168-6.777 18.947-15.57 19.092-24.756.154-9.894-7.205-19.58-21.284-28.012l-3.215-1.926 3.748.068c7.593.138 12.974 2.34 16.98 4.798-7.266-11.668-26.328-19.976-42.64-17.934-7.896.988-21.468 5.445-24.143 24.16 1.05 1.226 2.138 2.417 3.19 3.573 3.674 4.03 7.144 7.834 9.345 13.012l1.733 4.08-3.317-2.94c-19.974-17.707-53.35-25.685-79.363-18.97-12.978 3.35-29.987 11.764-37.764 32.818l2.388 1.57c11.244 7.39 14.327 9.418 17.7 13.7l.974.762c4.45 3.468 9.488 7.392 13.26 13.188 12.49 6.535 17.947 16.152 18.133 32.004 54.232 9.47 61.25 37.07 63.026 48.873 9.746-7.94 13.886-13.566 19.615-23.367l2.874-4.915z"/></g><path fill="none" d="M158.778 306.253c0-9.396-5.814-17-13-17"/><path fill="#C78E5C" d="M195.466 320.378c-12.125-7.5-17-11.062-35.5-13.562-12.812-1.375-28-7.938-12.938-17.812 11.438-8.438 22-15.125 16.625-35.375 18.5 15.25 20.375 31.624 20.125 36.124 7.75 12 10.438 18.874 11.688 30.624"/><path fill="#B27A50" d="M162.362 281.837c.833 13.333 3.708 15.542 16.542 26.042-5.75-2.376-6.875-2.44-17.688-3.94-7.625-.562-16.75-3.82-16.75-7.874 1.062-4.812 10.23-8.062 17.896-14.23"/><path d="M157.028 256.004c-1.833-7.333-27.25-21.875-44.5-2 14-8.5 33.958-7 35.125 11 3.25 10.125 12.375-.75 9.375-9"/><path fill="#5D3D21" d="M156.237 254.295c-1.833-7.333-30.875-22.625-44.042.042 11.667-13.833 37.333-8 38.5 10 1.75 8.208 8.542-3.375 5.5-10.167"/><path fill="#BD8658" d="M253.34 276.754c6.126-9.625 19.064-29-4.81-52.75 48.166 16.083 94 71.5 69 114.5-.668-5.332 4.332-19.832-9.584-29.832 1 21.666-6.417 29.832-17.25 43.166 14.666-37.835-10.19-53.918-37.355-75.084"/><path fill="#905D31" d="M303.362 193.337c-10.502 0-17.333 25.042-18.833 38.667-1.25-3.625-6.334-8.833-11.5-14.5 2.123-7.875 3.498-24 30.332-24.167z"/><path fill="#BC8557" d="M304.695 193.504c14.813 1.03 30.458 9.52 35 17.667-5.667-3.666-10.75-4.25-19.417-4.666 51.25 32.833 5.25 63.833-16.25 42.5-.275 0 23.834-11 .667-55.5"/><path fill="#905D31" d="M166.903 249.254c10.5 5.75 15.375 10.625 19.375 17.875 5.875 5.124 8.75 7.374 12.75 12.374 11.25 5.25 20.625 13.312 20.625 31 29.25 5 52.125 16.125 61.375 42 4.125-24.875-15-40.5-49.375-49.125-4.625-7.126-7.5-17.126-3.625-25.043 1.5-3.5 3.5-9.667 18.583-9.333 3.5.083 4.906-2.317 5.668-3.667 9.917-17.583 1.552-43.892-41.25-26.833-6.667-3.167-10-9.5-6.125-22-15 4.125-30.5 12.625-38 32.75"/><g><path fill="#281A11" d="M191.362 251.837c15.212 3.66 19.47 16.948 38.333 5.83"/><path d="M216.565 262.515c-5.036 0-8.92-2.277-13.142-4.75-3.574-2.095-7.27-4.26-12.18-5.442l.234-.973c5.052 1.216 8.982 3.52 12.45 5.552 7.307 4.28 13.077 7.664 25.512.334l.507.86c-5.447 3.214-9.718 4.42-13.382 4.42z"/></g><g fill="#281A11"><path d="M191.362 251.837c31.792-9.833 35.917 2.917 51.5 12.167M242.606 264.434c-3.438-2.042-6.292-4.227-9.05-6.34-9.76-7.477-17.466-13.383-42.048-5.78l-.296-.954c25.076-7.757 33.358-1.41 42.95 5.94 2.736 2.095 5.565 4.263 8.953 6.273l-.51.86z"/></g><g fill="#281A11"><path d="M207.278 250.004c-6.725 0-13.854 1.167-14.5 1.5 11.625-4.375 18.083-15 39.417-16.5-23.583 5.25-23.833 13.5-24.917 15"/><path d="M192.955 251.97l-.405-.91a1.51 1.51 0 0 1 .226-.09c3.803-1.458 7.063-3.6 10.518-5.868 6.85-4.498 14.613-9.596 28.867-10.598l.146.987c-20.303 4.52-23.088 11.27-24.137 13.813-.174.42-.312.753-.484.993l-.15.207h-.255c-6.328 0-12.98 1.044-14.174 1.412l-.15.056zm31.45-15.4c-9.254 1.942-15.194 5.842-20.563 9.368-2.36 1.55-4.633 3.042-7.06 4.31 2.764-.375 6.532-.727 10.21-.745.075-.155.16-.36.25-.582.95-2.3 3.256-7.885 17.164-12.35z"/></g><ellipse transform="rotate(-78.188 216.35 255.564)" fill="#FFF" cx="216.354" cy="255.558" rx="3.611" ry="4.436"/><ellipse transform="rotate(-78.188 213.148 255.116)" cx="213.14" cy="255.108" rx="3.543" ry="4.724"/><g><path fill="#AA7341" d="M182.695 221.67c-6.75 5.25-13.583 17.667-17.333 26.667-21.75-5.5-3.667-27.75-42.667-15 21.25-22.75 56.75-23.417 60-11.667"/><path fill="#281A11" d="M165.657 248.927l-.418-.104c-8.756-2.214-11.215-7.065-13.385-11.344-2.132-4.206-3.815-7.526-10.85-7.526-4.27 0-10.21 1.263-18.155 3.86l-1.85.604 1.328-1.42c13.34-14.282 31.73-19.35 43.422-19.35 9.4 0 16.08 3.024 17.425 7.892l.09.323-.265.205c-6.718 5.225-13.453 17.52-17.18 26.464l-.163.395zm-24.65-19.975c7.646 0 9.636 3.92 11.74 8.073 2.038 4.02 4.345 8.568 12.32 10.718 3.756-8.898 10.37-20.878 17.05-26.253-1.43-4.23-7.647-6.845-16.366-6.845-11.095 0-28.328 4.646-41.312 17.61 7.107-2.22 12.54-3.303 16.568-3.303z"/></g></svg>