<?xml version="1.0" encoding="utf-8"?>
<!-- Generator: Adobe Illustrator 16.0.0, SVG Export Plug-In . SVG Version: 6.00 Build 0)  -->
<!DOCTYPE svg PUBLIC "-//W3C//DTD SVG 1.1//EN" "http://www.w3.org/Graphics/SVG/1.1/DTD/svg11.dtd">
<svg version="1.1" id="Слой_1" xmlns="http://www.w3.org/2000/svg" xmlns:xlink="http://www.w3.org/1999/xlink" x="0px" y="0px"
	 width="23px" height="23px" viewBox="0 0 23 23" enable-background="new 0 0 23 23" xml:space="preserve">
<g>
	<defs>
		<rect id="SVGID_1_" width="23" height="23"/>
	</defs>
	<clipPath id="SVGID_2_">
		<use xlink:href="#SVGID_1_"  overflow="visible"/>
	</clipPath>
	<path clip-path="url(#SVGID_2_)" fill="#E8E8E8" d="M23,11.5C23,17.851,17.851,23,11.5,23C5.149,23,0,17.851,0,11.5
		C0,5.149,5.149,0,11.5,0C17.851,0,23,5.149,23,11.5"/>
	<path clip-path="url(#SVGID_2_)" fill="#6194CF" d="M14.527,13.493c-0.235,0.446-0.525,0.984-0.944,1.153
		c-0.1,0.041-0.253,0.003-0.342-0.044c-0.364-0.189-0.616-0.016-0.718,0.34c-0.053,0.185-0.088,0.373-0.12,0.561l1.394,2.284
		l1.755,0.431v-0.002l0.757-3.105l-1.121-0.271l0.271-1.12L14.527,13.493z"/>
	<path clip-path="url(#SVGID_2_)" fill="#6194CF" d="M6.927,6.948C6.271,7.472,5.86,8.221,5.768,9.055
		c-0.092,0.835,0.146,1.655,0.671,2.31c0.784,0.979,2.06,1.391,3.253,1.076l1.822,2.275c0.025-0.479,0.124-0.979,0.501-1.025
		c0.202-0.025,0.331,0.105,0.522,0.111c0.276,0.011,0.424-0.311,0.529-0.516c0.107-0.206,0.202-0.417,0.294-0.63l-0.008-0.001
		l0.127-1.145l-1.386-0.153l-0.411-0.513c0.177-0.341,0.29-0.716,0.333-1.099c0.092-0.834-0.146-1.654-0.671-2.31
		C10.261,6.084,8.279,5.865,6.927,6.948 M8.981,8.048c0.316,0.395,0.253,0.971-0.142,1.287C8.444,9.652,7.867,9.588,7.551,9.193
		S7.299,8.222,7.694,7.906C8.089,7.589,8.666,7.653,8.981,8.048"/>
</g>
</svg>
