<?xml version="1.0" encoding="utf-8"?>
<!-- Generator: Adobe Illustrator 16.0.0, SVG Export Plug-In . SVG Version: 6.00 Build 0)  -->
<!DOCTYPE svg PUBLIC "-//W3C//DTD SVG 1.1//EN" "http://www.w3.org/Graphics/SVG/1.1/DTD/svg11.dtd">
<svg version="1.1" id="Слой_1" xmlns="http://www.w3.org/2000/svg" xmlns:xlink="http://www.w3.org/1999/xlink" x="0px" y="0px"
	 width="170.116px" height="29.566px" viewBox="12.577 14.999 170.116 29.566"
	 enable-background="new 12.577 14.999 170.116 29.566" xml:space="preserve">
<g>
	<g>
		<g>
			<g>
				<defs>
					<rect id="SVGID_1_" x="0" width="197.947" height="56.922"/>
				</defs>
				<clipPath id="SVGID_2_">
					<use xlink:href="#SVGID_1_"  overflow="visible"/>
				</clipPath>
				<path clip-path="url(#SVGID_2_)" fill="#0069A6" d="M58.998,44.555l-3.295-7.702h-1.785c0,0-1.485,0.035-2.932-0.546
					c-0.57-0.23-1.132-0.559-1.646-1.004c-1.857-1.612-2.59-4.358-2.103-7.07c0.489-2.722,2.01-4.559,4.683-5.259
					c3.208-0.84,6.21-0.253,8.928,1.68c0.22,0.156,0.44,0.311,0.713,0.503c1.188-2.2,2.34-4.339,3.546-6.574
					c-0.555-0.39-1.013-0.748-1.504-1.051c-2.888-1.787-6.067-2.513-9.43-2.533c-3.971-0.023-7.619,0.965-10.764,3.498
					c-6.535,5.264-6.561,15.64-1.685,21.263c2.657,3.064,6.731,4.797,10.644,4.793v0.002H58.998z"/>
			</g>
		</g>
		<g>
			<g>
				<defs>
					<rect id="SVGID_3_" x="0" width="197.947" height="56.922"/>
				</defs>
				<clipPath id="SVGID_4_">
					<use xlink:href="#SVGID_3_"  overflow="visible"/>
				</clipPath>
				<polygon clip-path="url(#SVGID_4_)" fill="#57C8E7" points="95.946,44.555 86.402,44.555 79.074,28.333 88.824,28.333 				"/>
			</g>
		</g>
		<g>
			<g>
				<defs>
					<rect id="SVGID_5_" x="0" width="197.947" height="56.922"/>
				</defs>
				<clipPath id="SVGID_6_">
					<use xlink:href="#SVGID_5_"  overflow="visible"/>
				</clipPath>
				<polygon clip-path="url(#SVGID_6_)" fill="#0069A6" points="86.48,15.583 79.074,28.333 88.824,28.333 95.946,15.583 				"/>
			</g>
		</g>
		<g>
			<g>
				<defs>
					<rect id="SVGID_7_" x="0" width="197.947" height="56.922"/>
				</defs>
				<clipPath id="SVGID_8_">
					<use xlink:href="#SVGID_7_"  overflow="visible"/>
				</clipPath>
				<polygon clip-path="url(#SVGID_8_)" fill="#0069A6" points="79.182,15.637 70.296,15.637 70.296,44.555 79.182,44.555 
					79.182,27.688 79.182,26.46 				"/>
			</g>
		</g>
		<g>
			<g>
				<defs>
					<rect id="SVGID_9_" x="0" width="197.947" height="56.922"/>
				</defs>
				<clipPath id="SVGID_10_">
					<use xlink:href="#SVGID_9_"  overflow="visible"/>
				</clipPath>
				<polygon clip-path="url(#SVGID_10_)" fill="#00B2E2" points="67.571,44.555 58.388,44.555 51.32,28.324 60.483,28.324 				"/>
			</g>
		</g>
		<g>
			<g>
				<defs>
					<rect id="SVGID_11_" x="0" width="197.947" height="56.922"/>
				</defs>
				<clipPath id="SVGID_12_">
					<use xlink:href="#SVGID_11_"  overflow="visible"/>
				</clipPath>
				<path clip-path="url(#SVGID_12_)" fill="#0069A6" d="M24.361,22.65c1.62,0.221,2.309,1.149,2.285,2.872
					c-0.021,1.643-0.901,2.771-2.426,2.922c-0.005,0-0.021,0.002-0.03,0.003l0.081,0.123h5.756l2.12,4.319
					c1.607-1.637,3.813-4.9,2.994-10.068c-0.767-4.075-4.082-6.885-8.459-7.066c-4.603-0.191-14.104-0.131-14.104-0.131v28.941
					h8.515V34.161c0,0,0.043-9.812,0.043-11.603C21.961,22.573,23.312,22.507,24.361,22.65"/>
			</g>
		</g>
		<g>
			<g>
				<defs>
					<rect id="SVGID_13_" x="0" width="197.947" height="56.922"/>
				</defs>
				<clipPath id="SVGID_14_">
					<use xlink:href="#SVGID_13_"  overflow="visible"/>
				</clipPath>
				<polygon clip-path="url(#SVGID_14_)" fill="#0081C9" points="37.296,44.555 28.162,44.555 21.131,28.41 30.246,28.41 				"/>
			</g>
		</g>
	</g>
	<g>
		<path fill="#89898C" d="M105.682,17.842h-6.319v-2.236h15.186v2.236h-6.317v16.12h-2.549V17.842z"/>
		<path fill="#89898C" d="M124.635,15.293c5.461,0,9.413,4.082,9.413,9.36c0,5.408-3.952,9.62-9.413,9.62
			c-5.46,0-9.438-4.212-9.438-9.62C115.198,19.375,119.175,15.293,124.635,15.293z M124.635,31.909c3.9,0,6.761-3.146,6.761-7.255
			c0-3.978-2.859-7.021-6.761-7.021c-3.926,0-6.786,3.043-6.786,7.021C117.849,28.762,120.709,31.909,124.635,31.909z"/>
		<path fill="#89898C" d="M146.034,15.293c5.461,0,9.412,4.082,9.412,9.36c0,5.408-3.951,9.62-9.412,9.62
			c-5.46,0-9.438-4.212-9.438-9.62C136.596,19.375,140.574,15.293,146.034,15.293z M146.034,31.909c3.899,0,6.761-3.146,6.761-7.255
			c0-3.978-2.86-7.021-6.761-7.021c-3.927,0-6.786,3.043-6.786,7.021C139.247,28.762,142.108,31.909,146.034,31.909z"/>
		<path fill="#89898C" d="M158.228,15.606h2.574v16.12h8.242v2.235h-10.816V15.606L158.228,15.606z"/>
		<path fill="#89898C" d="M172.268,29.907c1.117,1.064,2.886,1.975,4.628,1.975c1.924,0,3.225-1.039,3.225-2.625
			c0-4.056-8.866-3.146-8.866-8.866c0-3.095,2.601-5.097,6.007-5.097c1.819,0,3.771,0.599,5.122,1.872l-1.17,2.106
			c-1.015-0.937-2.602-1.612-4.058-1.612c-1.871,0-3.302,1.015-3.302,2.601c0,3.926,8.84,2.886,8.84,8.788
			c0,2.887-2.104,5.227-5.85,5.227c-2.211,0-4.446-0.857-6.032-2.418L172.268,29.907z"/>
	</g>
</g>
</svg>
