<?xml version="1.0" encoding="utf-8"?>
<!-- Generator: Adobe Illustrator 16.0.0, SVG Export Plug-In . SVG Version: 6.00 Build 0)  -->
<!DOCTYPE svg PUBLIC "-//W3C//DTD SVG 1.1//EN" "http://www.w3.org/Graphics/SVG/1.1/DTD/svg11.dtd">
<svg version="1.1" id="Слой_1" xmlns="http://www.w3.org/2000/svg" xmlns:xlink="http://www.w3.org/1999/xlink" x="0px" y="0px"
	 width="12.289px" height="16.278px" viewBox="0 0 12.289 16.278" enable-background="new 0 0 12.289 16.278" xml:space="preserve">
<g>
	<defs>
		<rect id="SVGID_1_" y="0" width="12.289" height="16.278"/>
	</defs>
	<clipPath id="SVGID_2_">
		<use xlink:href="#SVGID_1_"  overflow="visible"/>
	</clipPath>
	<g clip-path="url(#SVGID_2_)">
		<path fill="#000100" d="M1.403,5.86C0.629,5.86,0,6.489,0,7.263v7.612c0,0.774,0.629,1.403,1.403,1.403h9.482
			c0.773,0,1.403-0.629,1.403-1.403V7.263c0-0.774-0.63-1.403-1.403-1.403 M9.95,5.86H2.338 M11.354,14.875
			c0,0.258-0.21,0.468-0.468,0.468H1.403c-0.258,0-0.468-0.21-0.468-0.468V7.263c0-0.258,0.21-0.468,0.468-0.468h9.482
			c0.258,0,0.468,0.21,0.468,0.468V14.875z M6.612,10.731V9.666c0-0.259-0.21-0.468-0.468-0.468c-0.258,0-0.467,0.209-0.467,0.468
			v1.065c-0.279,0.161-0.468,0.46-0.468,0.806c0,0.516,0.419,0.935,0.936,0.935c0.517,0,0.936-0.419,0.936-0.935
			C7.08,11.192,6.892,10.893,6.612,10.731"/>
	</g>
	<g clip-path="url(#SVGID_2_)">
		<path fill="#000100" d="M2.595,6.031h-1V4.345C1.65,1.944,3.64,0,6.031,0c2.447,0,4.438,1.99,4.438,4.437h-1
			C9.469,2.542,7.927,1,6.031,1C4.179,1,2.637,2.506,2.595,4.357V6.031z"/>
	</g>
	<g clip-path="url(#SVGID_2_)">
		<rect x="9.469" y="4.438" fill="#000100" width="1" height="1.687"/>
	</g>
</g>
</svg>
