<svg 
 xmlns="http://www.w3.org/2000/svg"
 xmlns:xlink="http://www.w3.org/1999/xlink"
 width="98px" height="14px">
<path fill-rule="evenodd"  fill="rgb(0, 0, 0)"
 d="M88.136,9.609 C88.096,10.775 87.457,11.556 86.402,11.889 C85.145,12.288 83.843,12.369 82.717,11.502 C82.325,11.200 82.352,10.660 82.616,9.949 C83.072,10.116 83.440,10.297 83.828,10.383 C84.620,10.560 85.677,10.861 85.959,9.894 C86.230,8.968 85.102,8.858 84.463,8.558 C82.575,7.674 81.988,6.495 82.759,5.075 C83.424,3.849 85.866,3.288 87.145,4.058 C87.601,4.332 87.878,4.724 87.731,5.240 C87.579,5.776 87.145,5.676 86.742,5.512 C85.963,5.193 84.916,4.849 84.629,5.810 C84.312,6.875 85.595,6.885 86.268,7.209 C87.303,7.707 88.182,8.288 88.136,9.609 ZM78.081,12.037 C77.131,12.046 76.951,11.540 76.979,10.738 C77.011,9.782 76.986,8.824 76.986,7.867 C77.008,7.867 77.030,7.867 77.052,7.867 C77.052,7.184 77.049,6.501 77.052,5.818 C77.057,4.536 76.835,2.981 78.915,4.379 C79.424,4.721 79.672,4.003 80.096,3.907 C80.751,3.760 81.547,3.433 81.742,4.417 C81.873,5.077 82.026,5.865 80.685,5.771 C79.656,5.699 79.120,6.711 79.099,7.790 C79.080,8.747 79.086,9.704 79.101,10.661 C79.113,11.394 79.092,12.028 78.081,12.037 ZM73.707,10.288 C74.103,10.190 74.645,9.706 74.853,10.494 C75.009,11.082 74.831,11.613 74.169,11.777 C73.445,11.956 72.706,12.072 72.331,12.146 C69.406,12.166 67.903,10.735 67.906,8.291 C67.911,5.349 69.453,3.644 72.001,3.762 C73.958,3.853 75.242,5.268 75.265,7.258 C75.275,8.141 74.968,8.505 74.078,8.450 C73.195,8.396 72.305,8.405 71.422,8.449 C71.002,8.471 70.374,8.161 70.224,8.840 C70.070,9.540 70.508,10.027 71.105,10.298 C71.961,10.685 72.835,10.505 73.707,10.288 ZM71.561,7.192 C72.090,6.892 73.235,7.721 73.150,6.345 C73.102,5.579 72.550,5.128 71.770,5.153 C70.874,5.183 70.142,5.569 70.165,6.586 C70.190,7.647 71.063,7.015 71.561,7.192 ZM62.971,2.721 C63.042,1.951 63.539,1.887 64.106,1.866 C64.663,1.847 65.085,2.087 65.024,2.684 C64.923,3.693 65.323,4.048 66.294,3.940 C66.793,3.884 66.998,4.243 67.032,4.710 C67.078,5.348 66.720,5.601 66.163,5.531 C65.132,5.402 64.746,5.923 64.974,6.827 C65.264,7.978 64.293,9.628 65.992,10.190 C66.627,10.400 67.175,10.296 67.057,11.165 C66.926,12.124 66.163,12.029 65.717,12.087 C63.923,12.138 63.067,11.357 62.992,9.785 C62.960,9.108 63.094,8.426 63.120,7.745 C63.142,7.199 63.301,6.269 63.083,6.162 C60.779,5.029 62.866,3.860 62.971,2.721 ZM59.222,7.282 C60.418,7.860 61.620,8.444 61.202,10.158 C60.901,11.393 59.667,12.161 57.988,12.152 C57.308,12.097 56.633,12.038 56.026,11.669 C55.527,11.367 55.452,10.859 55.572,10.407 C55.786,9.599 56.283,10.153 56.686,10.259 C57.077,10.362 57.472,10.470 57.871,10.511 C58.361,10.560 58.877,10.494 59.088,9.970 C59.336,9.357 58.808,9.139 58.408,8.900 C58.059,8.691 57.683,8.527 57.331,8.324 C56.026,7.570 55.115,6.615 55.966,4.994 C56.581,3.824 58.979,3.328 60.218,4.011 C60.733,4.295 60.885,4.727 60.735,5.208 C60.554,5.792 60.097,5.464 59.724,5.399 C59.263,5.317 58.784,5.189 58.333,5.245 C58.057,5.279 57.697,5.570 57.590,5.835 C57.423,6.251 57.649,6.631 58.088,6.816 C58.465,6.976 58.855,7.105 59.222,7.282 ZM52.269,11.726 C51.679,11.366 51.398,11.773 50.993,11.909 C49.817,12.305 48.678,12.273 47.752,11.387 C47.145,10.806 46.742,9.971 47.157,9.147 C47.747,7.972 48.796,7.354 50.120,7.270 C50.391,7.253 50.665,7.279 50.936,7.259 C51.310,7.232 51.809,7.391 51.866,6.777 C51.920,6.191 51.781,5.671 51.156,5.455 C50.483,5.223 49.815,5.455 49.142,5.483 C48.642,5.504 47.977,6.499 47.642,5.435 C47.317,4.401 48.269,4.201 48.953,3.984 C52.412,2.881 53.742,4.173 53.908,9.224 C53.908,9.355 53.877,9.974 53.915,10.589 C53.996,11.925 53.472,12.460 52.269,11.726 ZM50.781,8.454 C49.987,8.449 49.211,8.637 49.139,9.546 C49.085,10.222 49.623,10.647 50.342,10.573 C51.143,10.490 51.703,10.071 51.844,9.370 C51.918,8.369 51.316,8.457 50.781,8.454 ZM34.723,12.029 C33.791,12.049 33.555,11.595 33.578,10.763 C33.634,8.778 33.658,6.791 33.676,4.805 C33.681,4.236 34.004,3.641 34.453,3.971 C35.681,4.874 36.654,3.909 37.740,3.795 C38.250,3.742 38.941,3.802 39.286,4.111 C40.101,4.841 40.651,4.667 41.534,4.148 C43.364,3.071 45.146,4.090 45.368,6.215 C45.453,7.029 45.382,7.859 45.382,8.682 C45.424,8.682 45.467,8.682 45.510,8.682 C45.510,9.434 45.485,10.188 45.517,10.940 C45.551,11.758 45.141,12.015 44.396,12.022 C43.600,12.029 43.302,11.649 43.325,10.888 C43.363,9.654 43.396,8.420 43.390,7.186 C43.386,6.406 43.290,5.574 42.266,5.562 C41.253,5.550 40.576,6.152 40.502,7.166 C40.438,8.044 40.684,8.945 40.616,9.822 C40.553,10.634 41.241,11.929 39.604,12.003 C37.945,12.078 38.517,10.788 38.459,9.951 C38.398,9.064 38.505,8.166 38.460,7.277 C38.421,6.486 38.532,5.457 37.276,5.563 C36.248,5.649 35.725,6.295 35.753,7.374 C35.782,8.472 35.759,9.571 35.786,10.669 C35.804,11.434 35.697,12.008 34.723,12.029 ZM24.808,1.383 C24.806,0.889 24.791,0.353 25.430,0.291 C26.187,0.216 26.298,0.768 26.293,1.368 C26.290,1.710 26.303,2.053 26.285,2.395 C26.217,3.701 25.935,5.246 28.080,3.934 C28.187,3.868 28.345,3.880 28.480,3.868 C29.791,3.752 30.700,4.352 31.269,5.504 C32.080,7.146 31.820,10.006 30.762,11.147 C29.882,12.096 28.793,12.304 27.596,11.940 C26.950,11.744 26.481,10.829 25.638,11.913 C25.251,12.411 24.802,11.644 24.808,11.024 C24.817,10.203 24.813,9.382 24.814,8.561 C24.815,7.742 24.814,6.923 24.812,6.103 C24.810,4.530 24.813,2.956 24.808,1.383 ZM28.408,10.832 C30.083,10.622 30.177,9.199 30.351,7.853 C30.193,6.599 30.235,5.066 28.396,5.116 C27.020,5.153 26.175,5.974 26.200,7.511 C26.232,9.455 27.157,10.989 28.408,10.832 ZM21.318,10.661 C21.672,10.545 22.154,10.197 22.368,10.724 C22.584,11.258 22.197,11.629 21.673,11.757 C21.019,11.917 20.355,12.035 20.076,12.092 C17.227,12.101 15.895,10.823 15.794,8.364 C15.687,5.780 17.041,3.967 19.201,3.844 C20.519,3.768 21.625,4.228 22.286,5.419 C23.341,7.320 22.759,8.289 20.616,8.295 C20.074,8.297 19.518,8.219 18.992,8.316 C18.429,8.419 17.493,7.789 17.388,8.931 C17.313,9.758 17.802,10.359 18.543,10.697 C19.466,11.119 20.393,10.963 21.318,10.661 ZM19.480,7.367 C19.905,6.677 21.174,7.963 21.271,6.588 C21.341,5.606 20.548,5.018 19.528,4.995 C18.490,4.972 17.468,5.336 17.475,6.473 C17.483,7.776 18.735,6.902 19.480,7.367 ZM2.705,2.217 C3.354,4.638 4.021,7.053 5.113,9.464 C5.717,7.124 6.303,4.779 6.937,2.448 C7.102,1.841 7.067,0.990 8.087,1.049 C8.946,1.099 8.946,1.820 9.103,2.379 C9.765,4.730 10.397,7.088 11.179,9.952 C12.347,7.252 12.768,4.871 13.390,2.555 C13.575,1.864 13.603,0.773 14.647,1.116 C15.571,1.419 14.899,2.269 14.736,2.858 C14.026,5.428 13.279,7.988 12.554,10.554 C12.347,11.285 12.238,12.043 11.189,12.026 C10.108,12.010 10.106,11.172 9.907,10.473 C9.320,8.410 8.745,6.343 8.165,4.278 C8.027,4.294 7.889,4.309 7.751,4.325 C7.210,6.416 6.668,8.507 6.128,10.599 C5.959,11.253 5.926,11.964 4.969,12.025 C3.923,12.092 3.756,11.366 3.546,10.627 C2.779,7.925 1.995,5.229 1.254,2.521 C1.118,2.023 0.508,1.280 1.579,1.075 C2.417,0.914 2.540,1.602 2.705,2.217 Z"/>
<path fill-rule="evenodd"  fill="rgb(0, 105, 190)"
 d="M88.084,9.039 C88.120,9.214 88.144,9.399 88.136,9.609 C88.131,9.769 88.112,9.919 88.084,10.065 L88.084,9.039 ZM95.069,13.292 C94.797,13.304 94.524,13.294 94.077,13.294 C93.236,13.208 92.210,13.168 91.209,12.988 C89.378,12.659 88.954,11.500 90.159,10.086 C91.193,8.873 92.476,7.995 93.989,7.441 C95.023,7.061 96.053,6.882 96.828,7.767 C97.856,8.940 97.898,10.399 97.495,11.845 C97.157,13.059 96.134,13.246 95.069,13.292 ZM92.672,12.093 C92.872,11.260 92.888,10.418 93.878,9.616 C91.740,9.876 91.555,10.449 92.672,12.093 ZM96.058,9.643 C95.142,9.896 95.942,11.121 94.978,11.192 C94.593,10.778 94.999,10.075 94.132,9.518 C93.908,10.548 93.575,11.437 94.457,12.022 C94.825,12.266 95.707,12.270 95.982,11.999 C96.662,11.329 96.495,10.463 96.058,9.643 Z"/>
</svg>