<svg 
 xmlns="http://www.w3.org/2000/svg"
 xmlns:xlink="http://www.w3.org/1999/xlink"
 width="53px" height="53px">
<path fill-rule="evenodd"  fill="rgb(29, 233, 182)"
 d="M49.495,20.593 L37.466,32.584 C35.126,34.917 32.051,36.084 28.976,36.084 C25.901,36.084 22.827,34.917 20.486,32.584 C20.094,32.194 20.094,31.563 20.486,31.173 C20.517,31.142 20.559,31.129 20.593,31.102 C20.631,31.041 20.660,30.975 20.713,30.922 C21.089,30.546 21.698,30.546 22.074,30.922 C25.828,34.677 31.939,34.677 35.692,30.922 L47.265,19.343 C49.075,17.532 50.073,15.114 50.073,12.533 C50.073,9.952 49.075,7.533 47.265,5.722 C45.455,3.911 43.038,2.913 40.456,2.913 C37.877,2.913 35.459,3.910 33.649,5.721 L24.798,14.575 C24.422,14.952 23.813,14.952 23.437,14.575 C23.358,14.496 23.303,14.407 23.262,14.312 C23.220,14.226 23.199,14.138 23.184,14.046 C23.127,13.953 23.088,13.857 23.065,13.754 C23.062,13.743 23.061,13.732 23.059,13.721 C23.041,13.630 23.032,13.542 23.040,13.450 C23.043,13.405 23.057,13.362 23.066,13.317 C23.081,13.255 23.090,13.194 23.116,13.135 C23.163,13.027 23.227,12.924 23.316,12.834 L32.514,3.666 C37.196,-1.003 44.815,-1.001 49.495,3.666 C51.755,5.918 52.999,8.924 52.999,12.129 C52.999,15.335 51.755,18.340 49.495,20.593 ZM31.807,21.298 C32.198,21.688 32.198,22.318 31.807,22.708 C31.708,22.807 31.593,22.880 31.471,22.928 C31.468,22.929 31.466,22.929 31.464,22.930 C31.343,22.977 31.216,23.000 31.088,22.998 L31.088,22.998 L31.088,22.998 C30.948,23.023 30.808,23.019 30.670,22.980 C30.656,22.977 30.644,22.976 30.631,22.973 C30.490,22.927 30.357,22.859 30.245,22.748 C26.492,18.995 20.382,18.993 16.628,22.748 L5.734,33.645 C1.981,37.401 1.981,43.512 5.734,47.267 C7.545,49.078 9.962,50.076 12.543,50.076 C15.123,50.076 17.541,49.078 19.351,47.267 L26.840,39.775 C27.217,39.400 27.824,39.399 28.201,39.775 C28.312,39.887 28.380,40.020 28.426,40.160 C28.429,40.173 28.430,40.186 28.433,40.199 C28.472,40.337 28.476,40.477 28.452,40.617 C28.486,40.687 28.503,40.760 28.520,40.835 C28.529,40.874 28.538,40.912 28.543,40.951 C28.549,41.015 28.549,41.075 28.543,41.138 C28.538,41.201 28.524,41.261 28.507,41.323 C28.494,41.368 28.485,41.412 28.465,41.455 C28.418,41.561 28.356,41.663 28.268,41.751 L20.485,49.509 C18.226,51.761 15.211,53.002 11.994,53.002 C8.779,53.002 5.764,51.760 3.505,49.509 C1.245,47.258 0.001,44.253 0.001,41.047 C0.001,37.841 1.244,34.836 3.504,32.584 L14.826,21.298 C19.508,16.629 27.127,16.631 31.807,21.298 Z"/>
</svg>