<svg 
 xmlns="http://www.w3.org/2000/svg"
 xmlns:xlink="http://www.w3.org/1999/xlink"
 width="53px" height="59px">
<path fill-rule="evenodd"  fill="rgb(253, 216, 53)"
 d="M50.982,28.894 L46.824,28.894 C46.249,28.894 45.784,28.414 45.784,27.819 C45.784,27.225 46.249,26.745 46.824,26.745 L50.982,26.745 C51.557,26.745 52.022,27.225 52.022,27.819 C52.022,28.414 51.557,28.894 50.982,28.894 ZM43.675,47.128 C43.409,47.128 43.143,47.022 42.940,46.813 L40.000,43.775 C39.593,43.354 39.593,42.675 40.000,42.255 C40.406,41.835 41.063,41.835 41.470,42.255 L44.410,45.294 C44.816,45.714 44.816,46.393 44.410,46.813 C44.207,47.022 43.941,47.128 43.675,47.128 ZM41.470,13.384 C41.267,13.593 41.001,13.698 40.735,13.698 C40.469,13.698 40.202,13.593 40.000,13.384 C39.593,12.963 39.593,12.284 40.000,11.865 L42.940,8.826 C43.345,8.407 44.003,8.405 44.410,8.826 C44.816,9.246 44.816,9.925 44.410,10.345 L41.470,13.384 ZM32.269,44.903 L32.269,54.680 C32.269,55.274 31.804,55.754 31.229,55.754 L30.190,55.754 L30.190,57.903 C30.190,58.497 29.725,58.978 29.150,58.978 L22.912,58.978 C22.337,58.978 21.873,58.497 21.873,57.903 L21.873,55.754 L20.833,55.754 C20.258,55.754 19.793,55.274 19.793,54.680 L19.793,44.903 C12.922,42.230 8.357,35.461 8.357,27.819 C8.357,17.748 16.286,9.554 26.031,9.554 C35.777,9.554 43.705,17.748 43.705,27.819 C43.705,35.461 39.140,42.230 32.269,44.903 ZM21.873,53.606 L22.912,53.606 C23.487,53.606 23.952,54.086 23.952,54.680 L23.952,56.829 L28.111,56.829 L28.111,54.680 C28.111,54.086 28.575,53.606 29.150,53.606 L30.190,53.606 L30.190,48.233 L21.873,48.233 L21.873,53.606 ZM26.031,11.703 C17.432,11.703 10.437,18.933 10.437,27.819 C10.437,34.792 14.746,40.942 21.157,43.122 C21.585,43.266 21.873,43.678 21.873,44.142 L21.873,46.085 L30.190,46.085 L30.190,44.142 C30.190,43.679 30.478,43.266 30.905,43.122 C37.316,40.942 41.626,34.792 41.626,27.819 C41.626,18.933 34.630,11.703 26.031,11.703 ZM26.031,17.075 C20.299,17.075 15.635,21.895 15.635,27.819 C15.635,28.414 15.170,28.894 14.595,28.894 C14.020,28.894 13.556,28.414 13.556,27.819 C13.556,20.710 19.152,14.926 26.031,14.926 C26.606,14.926 27.071,15.407 27.071,16.001 C27.071,16.595 26.606,17.075 26.031,17.075 ZM26.031,7.406 C25.456,7.406 24.992,6.925 24.992,6.331 L24.992,2.033 C24.992,1.439 25.456,0.959 26.031,0.959 C26.606,0.959 27.071,1.439 27.071,2.033 L27.071,6.331 C27.071,6.925 26.606,7.406 26.031,7.406 ZM11.328,13.698 C11.061,13.698 10.795,13.593 10.593,13.384 L7.653,10.345 C7.246,9.925 7.246,9.246 7.653,8.826 C8.059,8.405 8.716,8.405 9.123,8.826 L12.063,11.865 C12.469,12.284 12.469,12.963 12.063,13.384 C11.860,13.593 11.594,13.698 11.328,13.698 ZM5.238,28.894 L1.080,28.894 C0.505,28.894 0.040,28.414 0.040,27.819 C0.040,27.225 0.505,26.745 1.080,26.745 L5.238,26.745 C5.813,26.745 6.278,27.225 6.278,27.819 C6.278,28.414 5.813,28.894 5.238,28.894 ZM10.593,42.255 C10.999,41.835 11.656,41.835 12.063,42.255 C12.469,42.675 12.469,43.354 12.063,43.775 L9.123,46.813 C8.920,47.022 8.654,47.128 8.388,47.128 C8.121,47.128 7.855,47.022 7.653,46.813 C7.246,46.393 7.246,45.714 7.653,45.294 L10.593,42.255 Z"/>
</svg>