<svg 
 xmlns="http://www.w3.org/2000/svg"
 xmlns:xlink="http://www.w3.org/1999/xlink"
 width="24px" height="24px">
<path fill-rule="evenodd"  fill="#fff"
 d="M20.484,3.516 C18.216,1.248 15.206,-0.001 12.000,-0.001 C8.793,-0.001 5.784,1.248 3.516,3.516 C1.249,5.783 -0.000,8.792 -0.000,11.999 C-0.000,15.206 1.249,18.215 3.516,20.483 C5.784,22.750 8.793,23.999 12.000,23.999 C13.952,23.999 15.885,23.522 17.602,22.612 C18.034,22.386 18.197,21.850 17.970,21.417 C17.744,20.984 17.208,20.822 16.775,21.048 C15.315,21.821 13.667,22.228 12.000,22.228 C6.359,22.228 1.770,17.640 1.770,11.999 C1.770,6.358 6.359,1.770 12.000,1.770 C17.641,1.770 22.229,6.358 22.229,11.999 C22.229,13.898 21.698,14.980 21.251,15.550 C20.774,16.165 20.134,16.514 19.495,16.514 C18.605,16.514 17.705,15.805 17.705,14.222 L17.705,7.332 C17.705,6.845 17.307,6.447 16.820,6.447 C16.333,6.447 15.934,6.845 15.934,7.332 L15.934,7.720 C14.833,6.614 13.313,5.930 11.631,5.930 C8.282,5.926 5.557,8.650 5.557,11.999 C5.557,15.348 8.282,18.073 11.631,18.073 C12.226,18.073 12.811,17.989 13.372,17.817 C13.839,17.679 14.105,17.183 13.967,16.715 C13.829,16.248 13.333,15.982 12.866,16.120 C12.467,16.238 12.049,16.302 11.631,16.302 C9.261,16.302 7.328,14.374 7.328,11.999 C7.328,9.629 9.256,7.696 11.631,7.696 C14.007,7.696 15.934,9.624 15.934,11.999 L15.934,14.222 C15.934,16.888 17.724,18.285 19.495,18.285 C20.680,18.285 21.831,17.684 22.648,16.637 C23.533,15.501 24.000,13.898 24.000,11.999 C24.000,8.792 22.751,5.783 20.484,3.516 Z"/>
</svg>