<svg 
 xmlns="http://www.w3.org/2000/svg"
 xmlns:xlink="http://www.w3.org/1999/xlink"
 width="30px" height="30px">
<path fill-rule="evenodd"  fill="rgb(255, 255, 255)"
 d="M15.000,30.000 C6.716,30.000 -0.000,23.284 -0.000,15.000 C-0.000,6.716 6.716,-0.000 15.000,-0.000 C23.284,-0.000 30.000,6.716 30.000,15.000 C30.000,23.284 23.284,30.000 15.000,30.000 ZM22.511,11.961 C22.477,11.910 22.390,11.864 22.250,11.822 C22.110,11.779 21.930,11.773 21.711,11.800 L19.287,11.817 C19.248,11.803 19.192,11.805 19.119,11.822 C19.046,11.838 19.009,11.847 19.009,11.847 L18.967,11.868 L18.933,11.893 C18.905,11.910 18.875,11.940 18.841,11.982 C18.807,12.025 18.779,12.074 18.757,12.129 C18.493,12.810 18.193,13.443 17.856,14.027 C17.648,14.376 17.458,14.678 17.284,14.934 C17.110,15.190 16.964,15.378 16.846,15.499 C16.728,15.620 16.622,15.717 16.526,15.790 C16.430,15.863 16.358,15.894 16.307,15.883 C16.257,15.872 16.209,15.860 16.164,15.850 C16.086,15.798 16.022,15.730 15.975,15.642 C15.927,15.555 15.895,15.446 15.878,15.313 C15.861,15.181 15.851,15.068 15.848,14.972 C15.846,14.876 15.847,14.742 15.853,14.567 C15.858,14.392 15.861,14.275 15.861,14.213 C15.861,13.999 15.865,13.767 15.874,13.517 C15.882,13.267 15.889,13.069 15.895,12.923 C15.900,12.776 15.903,12.621 15.903,12.458 C15.903,12.295 15.893,12.168 15.874,12.075 C15.854,11.982 15.825,11.892 15.785,11.804 C15.746,11.717 15.688,11.650 15.613,11.602 C15.537,11.555 15.443,11.517 15.331,11.489 C15.033,11.421 14.655,11.385 14.194,11.379 C13.150,11.368 12.480,11.435 12.182,11.581 C12.064,11.643 11.958,11.727 11.862,11.834 C11.761,11.958 11.747,12.025 11.820,12.036 C12.157,12.087 12.396,12.208 12.536,12.400 L12.586,12.501 C12.626,12.574 12.665,12.703 12.704,12.889 C12.743,13.074 12.769,13.279 12.780,13.505 C12.808,13.915 12.808,14.266 12.780,14.559 C12.752,14.851 12.725,15.079 12.700,15.242 C12.675,15.405 12.637,15.537 12.586,15.638 C12.536,15.739 12.502,15.801 12.485,15.824 C12.469,15.846 12.454,15.860 12.443,15.866 C12.370,15.894 12.294,15.908 12.216,15.908 C12.137,15.908 12.042,15.869 11.930,15.790 C11.818,15.711 11.701,15.603 11.580,15.465 C11.460,15.328 11.324,15.135 11.172,14.888 C11.021,14.640 10.863,14.348 10.701,14.011 L10.566,13.766 C10.482,13.608 10.367,13.379 10.221,13.079 C10.075,12.777 9.946,12.486 9.834,12.205 C9.789,12.087 9.721,11.997 9.632,11.936 L9.590,11.910 C9.562,11.887 9.517,11.864 9.455,11.838 C9.393,11.813 9.329,11.795 9.261,11.783 L6.955,11.800 C6.719,11.800 6.559,11.854 6.475,11.960 L6.441,12.011 C6.424,12.039 6.416,12.084 6.416,12.146 C6.416,12.208 6.433,12.284 6.466,12.374 C6.803,13.167 7.169,13.931 7.565,14.668 C7.961,15.405 8.304,15.998 8.596,16.447 C8.888,16.898 9.185,17.322 9.488,17.722 C9.791,18.121 9.992,18.377 10.090,18.489 C10.188,18.602 10.266,18.686 10.322,18.742 L10.532,18.945 C10.667,19.079 10.865,19.241 11.126,19.430 C11.387,19.618 11.676,19.804 11.993,19.986 C12.310,20.169 12.679,20.318 13.100,20.433 C13.521,20.548 13.930,20.595 14.329,20.573 L15.297,20.573 C15.493,20.556 15.642,20.493 15.743,20.387 L15.777,20.345 C15.799,20.311 15.820,20.259 15.840,20.189 C15.859,20.119 15.869,20.041 15.869,19.957 C15.864,19.715 15.882,19.497 15.924,19.303 C15.966,19.109 16.014,18.963 16.067,18.864 C16.121,18.766 16.181,18.683 16.248,18.616 C16.315,18.549 16.363,18.507 16.391,18.493 C16.419,18.480 16.442,18.470 16.458,18.464 C16.593,18.419 16.752,18.463 16.934,18.595 C17.117,18.727 17.288,18.890 17.448,19.084 C17.608,19.278 17.800,19.496 18.024,19.738 C18.249,19.980 18.445,20.159 18.614,20.278 L18.782,20.379 C18.894,20.446 19.040,20.508 19.220,20.564 C19.399,20.621 19.556,20.635 19.691,20.607 L21.846,20.573 C22.059,20.573 22.225,20.538 22.343,20.468 C22.461,20.397 22.531,20.320 22.553,20.235 C22.576,20.151 22.577,20.056 22.558,19.949 C22.538,19.842 22.518,19.767 22.498,19.725 C22.479,19.683 22.461,19.648 22.443,19.620 C22.163,19.114 21.627,18.492 20.836,17.756 L20.819,17.739 L20.811,17.730 L20.802,17.722 L20.794,17.722 C20.435,17.379 20.207,17.148 20.112,17.030 C19.938,16.805 19.898,16.577 19.994,16.346 C20.061,16.172 20.314,15.805 20.751,15.242 C20.982,14.944 21.164,14.705 21.299,14.525 C22.269,13.232 22.690,12.405 22.561,12.045 L22.511,11.961 Z"/>
</svg>