<svg 
 xmlns="http://www.w3.org/2000/svg"
 xmlns:xlink="http://www.w3.org/1999/xlink"
 width="30px" height="30px">
<path fill-rule="evenodd"  fill="rgb(255, 255, 255)"
 d="M15.000,30.000 C6.716,30.000 -0.000,23.284 -0.000,15.000 C-0.000,6.716 6.716,-0.000 15.000,-0.000 C23.284,-0.000 30.000,6.716 30.000,15.000 C30.000,23.284 23.284,30.000 15.000,30.000 ZM19.744,13.888 L19.744,13.888 L14.730,13.888 L14.730,15.599 L17.789,15.599 C17.333,17.087 15.976,18.166 14.372,18.166 C12.394,18.166 10.791,16.524 10.791,14.499 C10.791,12.474 12.394,10.833 14.372,10.833 C15.368,10.833 16.269,11.249 16.918,11.921 L18.131,10.571 C17.162,9.599 15.836,8.999 14.372,8.999 C11.405,8.999 9.000,11.462 9.000,14.499 C9.000,17.536 11.405,19.999 14.372,19.999 C16.971,19.999 19.246,18.109 19.744,15.599 L19.744,13.888 ZM23.000,13.885 L21.974,13.885 L21.974,12.835 L21.095,12.835 L21.095,13.885 L20.070,13.885 L20.070,14.785 L21.095,14.785 L21.095,15.835 L21.974,15.835 L21.974,14.785 L23.000,14.785 L23.000,13.885 Z"/>
</svg>