<?xml version="1.0" encoding="utf-8"?>
<!-- Generator: Adobe Illustrator 21.0.0, SVG Export Plug-In . SVG Version: 6.00 Build 0)  -->
<svg version="1.1" id="Слой_1" xmlns="http://www.w3.org/2000/svg" xmlns:xlink="http://www.w3.org/1999/xlink" x="0px" y="0px"
	 viewBox="0 0 73 72" style="enable-background:new 0 0 73 72;" xml:space="preserve">
<style type="text/css">
	.st0{fill:#64FFDA;}
</style>
<path class="st0" d="M51.3,39.1c0.4-0.4,1.2-0.4,1.6,0l18.7,18.7c0.4,0.4,0.4,1.2,0,1.6l-11,11c-0.2,0.2-0.5,0.3-0.8,0.3
	s-0.6-0.1-0.8-0.3L40.4,51.7c-0.4-0.4-0.4-1.2,0-1.6l4.7-4.7l-1.6-1.6L31.6,55.6c-0.2,0.2-0.5,0.3-0.8,0.3c-0.3,0-0.6-0.1-0.8-0.3
	L26.5,52l-2,2c3.3,5,4.6,11.1,3.6,17.1c-0.1,0.4-0.4,0.8-0.8,0.9C27.2,72,27.1,72,27,72c-0.3,0-0.6-0.1-0.8-0.3L20,65.5l-10,1
	c0,0-0.1,0-0.1,0c-0.3,0-0.6-0.1-0.8-0.3l-3.2-3.3c-0.2-0.2-0.4-0.6-0.3-0.9l1-10l-6.2-6.2c-0.3-0.3-0.4-0.7-0.3-1.2
	s0.5-0.7,0.9-0.8c1.3-0.2,2.7-0.4,4.1-0.4c5,0,9.7,1.5,13.6,4.4l1.8-1.8L16.4,42c-0.4-0.4-0.4-1.2,0-1.6l11.8-11.8l-1.6-1.6
	l-4.7,4.7c-0.2,0.2-0.5,0.3-0.8,0.3s-0.6-0.1-0.8-0.3L1.6,12.9c-0.4-0.4-0.4-1.2,0-1.6l11-11c0.4-0.4,1.2-0.4,1.6,0L32.9,19
	c0.4,0.4,0.4,1.2,0,1.6l-4.7,4.7l1.6,1.6l12.3-12.3c0.4-0.4,1.2-0.4,1.6,0l0.6,0.6l4.6-4.6c0,0,0.1-0.1,0.1-0.1c0,0,0,0,0,0
	c0,0,0,0,0.1-0.1c0,0,0,0,0,0c0,0,0.1,0,0.1,0c0,0,0,0,0,0c0,0,0,0,0.1,0c0,0,0,0,0,0c0,0,0,0,0.1,0c0,0,0,0,0,0c0,0,0,0,0.1,0
	c0,0,0,0,0,0c0,0,0,0,0.1,0c0,0,0,0,0,0c0,0,0.1,0,0.1,0c0,0,0,0,0,0l5.6,0.5c0.8,0.1,1.9,0.6,2.5,1.2l2.1,2.1
	c0.6,0.6,1.1,1.6,1.2,2.5l0.5,5.6c0,0.3-0.1,0.7-0.3,0.9l-4.6,4.6l0.6,0.6c0.4,0.4,0.4,1.2,0,1.6L45,42.2l1.6,1.6L51.3,39.1z
	 M69.2,58.6l-7.7-7.7l-2,2l7.7,7.7L69.2,58.6z M65.6,62.3l-7.7-7.7l-2,2l7.7,7.7L65.6,62.3z M59.9,68l2-2l-7.7-7.7l-2,2L59.9,68z
	 M10.3,64.2l7.6-0.8l-9.3-9.3l-0.8,7.6L10.3,64.2z M18.1,50.3C18.1,50.3,18.1,50.3,18.1,50.3c-3.7-2.9-8.3-4.5-13-4.5
	c-0.5,0-0.9,0-1.4,0l22.5,22.5c0.4-6-1.8-12-6.1-16.3C19.4,51.4,18.7,50.9,18.1,50.3z M20.5,49.4c0.4,0.3,0.8,0.7,1.1,1
	c0.5,0.5,1.1,1.1,1.5,1.7l1.7-1.7l-2.7-2.7L20.5,49.4z M25.8,24.5l1-1l-7.7-7.7l-2,2l7.7,7.7C24.8,25.5,25.8,24.5,25.8,24.5z
	 M21.1,29.2l2-2l-7.7-7.7l-2,2L21.1,29.2z M13.4,2.8l-2,2l5.3,5.3c0.4,0.4,0.4,1.2,0,1.6c-0.2,0.2-0.5,0.3-0.8,0.3s-0.6-0.1-0.8-0.3
	L9.7,6.4l-2,2l5.3,5.3c0.4,0.4,0.4,1.2,0,1.6c-0.2,0.2-0.5,0.3-0.8,0.3s-0.6-0.1-0.8-0.3l-5.3-5.3l-2,2l7.7,7.7c0,0,2.8-2.8,2.8-2.8
	c0,0,3.7-3.7,3.7-3.7l2.8-2.8L13.4,2.8z M28.4,21.9l2-2l-7.7-7.7l-2,2L28.4,21.9z M59.4,21.8l-0.4-5.1c0-0.3-0.3-0.8-0.5-1.1
	l-2.1-2.1c-0.2-0.2-0.8-0.5-1.1-0.5l-2.5-0.2l3.8,3.8c0.4,0.4,0.4,1.2,0,1.6c-0.2,0.2-0.5,0.3-0.8,0.3s-0.6-0.1-0.8-0.3l-5.2-5.2
	l-3.8,3.8l9.2,9.2L59.4,21.8z M54.9,29.1l-12-12L18.9,41.2l12,12L54.9,29.1z M51.8,54.1c-0.2,0.2-0.5,0.3-0.8,0.3
	c-0.3,0-0.6-0.1-0.8-0.3l-5.3-5.3l-2,2l7.7,7.7l9.3-9.3l-7.7-7.7l-2,2l5.3,5.3c0.4,0.4,0.4,1.2,0,1.6c-0.2,0.2-0.5,0.3-0.8,0.3
	s-0.6-0.1-0.8-0.3l-5.3-5.3c0,0-1,1-1,1l-1,1l5.3,5.3C52.2,53,52.2,53.7,51.8,54.1z M4.2,64.6l3.3,3.3c0.4,0.4,0.4,1.2,0,1.6
	c-0.2,0.2-0.5,0.3-0.8,0.3S6,69.7,5.8,69.4l-3.3-3.3c-0.4-0.4-0.4-1.2,0-1.6C3,64.1,3.7,64.1,4.2,64.6z"/>
</svg>
