<svg 
 xmlns="http://www.w3.org/2000/svg"
 xmlns:xlink="http://www.w3.org/1999/xlink"
 width="84px" height="16px">
<path fill-rule="evenodd"  fill="rgb(56, 56, 56)"
 d="M79.965,15.464 C80.843,15.392 81.418,15.403 81.966,15.286 C82.616,15.147 82.845,14.603 82.861,13.998 C82.888,13.024 82.208,13.536 81.803,13.544 C80.531,13.567 79.961,12.786 79.819,11.692 C79.699,10.764 79.779,9.809 79.770,8.866 C80.720,8.053 80.767,8.048 83.970,7.848 C83.970,9.804 84.047,11.760 83.949,13.707 C83.840,15.893 82.454,16.578 79.965,15.464 ZM81.966,8.531 C80.660,8.462 80.831,9.813 80.794,10.699 C80.758,11.568 80.770,12.773 81.848,12.837 C83.120,12.914 82.819,11.665 82.917,10.704 C82.691,10.003 83.346,8.604 81.966,8.531 ZM79.731,8.899 C79.732,8.899 79.732,8.899 79.732,8.899 C79.731,8.899 79.731,8.899 79.731,8.900 L79.732,8.899 C79.732,8.889 79.735,8.878 79.736,8.867 C79.748,8.867 79.758,8.865 79.770,8.864 C79.770,8.865 79.770,8.865 79.770,8.866 C79.759,8.876 79.748,8.885 79.737,8.894 C79.734,8.897 79.731,8.899 79.731,8.899 ZM78.353,11.182 C78.201,11.996 78.992,13.469 77.759,13.484 C76.787,13.496 77.407,12.012 77.271,11.207 C77.179,10.657 77.252,10.079 77.253,9.513 C77.255,8.285 78.538,7.285 79.606,7.741 C80.172,7.983 79.768,8.475 79.736,8.867 C78.125,8.947 78.536,10.203 78.353,11.182 ZM76.687,10.574 C76.667,12.022 76.362,13.419 74.611,13.686 C73.362,13.875 72.394,12.540 72.364,10.604 C72.530,9.391 72.547,7.889 74.437,7.707 C75.768,7.579 76.712,8.756 76.687,10.574 ZM73.421,10.681 C73.418,11.581 73.373,12.915 74.518,12.914 C75.673,12.912 75.539,11.592 75.644,10.545 C75.450,9.822 75.783,8.457 74.522,8.463 C73.325,8.467 73.424,9.790 73.421,10.681 ZM71.852,12.914 C71.885,13.368 71.630,13.662 71.229,13.698 C70.790,13.737 70.567,13.401 70.567,12.982 C70.567,12.654 70.724,12.375 71.084,12.315 C71.541,12.239 71.773,12.487 71.852,12.914 ZM63.059,2.431 C64.931,2.186 66.885,1.835 68.558,3.059 C70.051,4.150 69.809,5.893 68.005,7.581 C69.437,8.331 70.300,9.436 69.876,11.105 C69.435,12.838 68.054,13.402 66.445,13.595 C66.320,13.610 66.199,13.655 66.074,13.673 C62.868,14.109 62.622,13.899 62.622,10.731 C62.622,8.388 62.608,6.046 62.634,3.704 C62.639,3.251 62.362,2.522 63.059,2.431 ZM65.743,3.865 C64.560,3.914 65.196,4.879 64.987,5.436 C65.209,5.969 64.537,7.004 65.759,6.940 C66.717,6.889 67.183,6.158 67.163,5.262 C67.145,4.425 66.665,3.827 65.743,3.865 ZM65.802,11.942 C66.849,12.037 67.430,11.326 67.435,10.305 C67.440,9.270 66.773,8.742 65.773,8.553 C64.725,8.516 64.954,9.363 65.051,9.873 C65.187,10.591 64.325,11.807 65.802,11.942 ZM60.086,2.294 C61.233,2.308 61.255,2.870 61.239,3.707 C61.199,5.791 61.276,7.880 61.179,9.960 C61.065,12.403 59.719,13.738 57.568,13.734 C55.425,13.729 54.081,12.385 53.977,9.938 C53.883,7.731 53.986,5.515 53.922,3.305 C53.894,2.366 54.365,2.306 55.082,2.325 C55.811,2.345 56.462,2.271 56.435,3.356 C56.380,5.503 56.385,7.654 56.442,9.800 C56.465,10.650 56.468,11.796 57.688,11.746 C58.734,11.703 58.768,10.651 58.804,9.838 C58.854,8.703 58.817,7.564 58.818,6.426 C58.819,5.542 58.865,4.654 58.806,3.773 C58.743,2.814 58.886,2.280 60.086,2.294 ZM49.183,2.316 C49.960,2.314 50.510,2.365 50.482,3.400 C50.422,5.674 50.527,7.952 50.439,10.224 C50.394,11.386 50.733,11.803 51.915,11.721 C52.604,11.674 53.689,11.257 53.637,12.710 C53.586,14.174 52.485,13.595 51.818,13.608 C47.911,13.684 47.910,13.658 47.910,9.848 C47.910,9.216 47.910,8.584 47.911,7.952 C47.911,6.435 47.966,4.916 47.892,3.403 C47.841,2.360 48.408,2.318 49.183,2.316 ZM46.247,11.746 C47.210,11.748 47.269,12.194 47.378,12.811 C47.519,13.613 46.839,13.532 46.401,13.630 C43.288,14.322 40.852,11.936 40.817,8.181 C40.782,4.438 43.149,1.885 46.335,2.274 C46.808,2.332 47.619,2.139 47.441,3.109 C47.327,3.734 47.226,4.185 46.290,4.203 C44.246,4.240 43.385,5.469 43.360,7.961 C43.334,10.457 44.205,11.742 46.247,11.746 Z"/>
<path fill-rule="evenodd"  fill="rgb(57, 153, 207)"
 d="M38.430,13.490 C37.758,13.519 36.981,13.692 36.850,12.656 C36.744,11.820 36.633,11.120 35.457,11.047 C34.156,10.966 34.012,11.800 33.864,12.647 C33.659,13.821 32.795,13.548 32.111,13.466 C31.169,13.352 31.595,12.652 31.716,12.155 C32.113,10.520 32.540,8.892 32.956,7.261 C32.956,7.261 32.956,7.261 32.956,7.261 C33.158,6.218 33.374,5.177 33.558,4.130 C33.753,3.016 34.003,2.238 35.522,2.246 C37.085,2.254 37.223,3.080 37.377,4.197 C37.539,5.372 37.777,6.537 37.982,7.706 C38.676,9.139 38.675,10.739 39.063,12.247 C39.197,12.766 39.333,13.452 38.430,13.490 ZM35.462,4.782 C35.094,6.113 34.819,7.106 34.545,8.100 C34.710,8.535 34.331,9.246 35.250,9.293 C36.239,9.344 36.063,8.649 36.132,8.085 C35.933,7.100 35.733,6.116 35.462,4.782 ZM26.284,13.554 C25.172,13.536 25.086,12.951 25.086,12.096 C25.088,9.246 25.042,6.397 25.040,3.548 C25.039,3.155 24.819,2.627 25.440,2.436 C26.244,2.352 27.048,2.192 27.852,2.198 C30.620,2.219 31.378,2.807 32.203,5.428 C32.105,7.988 31.149,8.986 28.520,9.273 C28.518,9.274 28.517,9.275 28.515,9.275 C27.121,9.871 27.724,11.116 27.686,12.086 C27.646,13.102 27.410,13.571 26.284,13.554 ZM25.448,5.418 C25.448,5.418 25.448,5.418 25.448,5.418 C25.448,5.418 25.448,5.418 25.448,5.419 C25.448,5.435 25.447,5.451 25.447,5.468 C25.460,5.455 25.472,5.442 25.485,5.429 C25.472,5.425 25.461,5.423 25.448,5.418 ZM28.293,7.601 C29.008,7.598 29.589,7.132 29.662,6.335 C29.712,5.787 29.644,5.229 29.628,4.675 C29.133,4.140 28.523,3.904 27.796,3.977 C27.794,3.979 27.793,3.981 27.791,3.984 C27.793,3.985 27.793,3.987 27.795,3.989 C27.746,4.723 27.631,5.462 27.674,6.192 C27.704,6.707 27.260,7.606 28.293,7.601 ZM23.313,11.845 C24.027,11.843 24.386,12.080 24.489,12.744 C24.637,13.705 23.771,13.571 23.348,13.594 C21.956,13.667 20.544,13.540 19.415,12.599 C17.816,11.263 16.234,9.901 14.725,8.466 C13.950,7.730 13.475,7.515 12.593,8.417 C9.837,11.236 9.796,11.189 6.899,8.462 C6.163,7.768 5.337,7.161 4.663,6.414 C3.520,5.148 2.424,4.201 0.909,6.489 C0.571,4.490 0.307,2.896 0.030,1.304 C-0.145,0.301 0.234,-0.095 1.265,0.029 C2.880,0.222 4.503,0.353 6.165,0.514 C4.985,2.740 4.985,2.740 6.852,4.515 C9.736,7.256 9.788,7.302 12.354,4.404 C13.232,3.413 13.748,3.487 14.573,4.360 C15.560,5.406 16.664,6.342 17.779,7.383 C18.377,6.758 17.985,5.888 18.577,5.438 C19.384,3.229 21.284,1.972 23.488,2.255 C23.965,2.317 24.772,2.138 24.635,3.084 C24.544,3.718 24.439,4.301 23.491,4.197 C22.248,4.061 21.311,4.612 20.827,5.817 C20.738,6.999 20.355,8.146 20.672,9.373 C21.043,10.804 21.711,11.849 23.313,11.845 Z"/>
</svg>