<svg 
 xmlns="http://www.w3.org/2000/svg"
 xmlns:xlink="http://www.w3.org/1999/xlink"
 width="71px" height="24px">
<path fill-rule="evenodd"  fill="rgb(52, 48, 81)"
 d="M68.638,5.494 C68.709,6.202 69.233,6.250 69.586,6.484 C71.279,7.609 71.482,9.607 70.048,11.017 C69.506,11.550 68.694,11.775 68.363,12.571 C68.229,12.893 67.802,12.893 67.467,12.723 C67.223,12.598 66.925,12.280 66.762,12.341 C64.181,13.290 63.454,10.907 61.982,9.865 C60.391,12.288 58.881,12.688 56.108,11.262 C55.616,11.009 55.461,11.216 55.130,11.434 C52.736,13.013 50.108,12.171 49.151,9.565 C48.307,7.265 49.052,4.827 48.494,2.491 C48.353,1.899 49.150,1.830 49.607,1.717 C50.544,1.485 51.416,1.649 52.012,2.468 C52.522,3.168 52.608,3.987 52.599,4.841 C52.587,5.891 52.648,6.943 52.719,7.991 C52.752,8.480 52.820,9.126 53.464,9.089 C54.102,9.053 54.112,8.361 54.093,7.909 C54.038,6.584 53.916,5.260 53.762,3.943 C53.618,2.712 53.733,1.623 55.283,1.541 C56.713,1.465 57.249,2.436 57.312,3.676 C57.380,5.002 57.327,6.333 57.382,7.659 C57.403,8.186 57.441,8.959 58.114,8.937 C58.758,8.915 58.770,8.134 58.832,7.606 C58.996,6.213 58.648,4.855 58.490,3.482 C58.416,2.833 57.456,1.992 58.711,1.532 C59.886,1.101 61.046,1.093 61.886,2.231 C62.141,2.578 62.300,2.994 62.625,3.607 C63.107,2.302 64.315,1.896 64.870,0.630 C65.565,-0.956 66.034,0.899 66.618,1.207 C67.722,-0.207 67.712,-0.201 68.714,1.406 C68.850,1.624 69.125,1.764 69.349,1.920 C70.147,2.473 70.953,3.052 70.722,4.172 C70.502,5.239 69.611,5.507 68.638,5.494 ZM66.000,3.000 C66.000,3.000 65.219,3.125 65.000,4.000 C64.781,4.875 65.094,4.969 66.000,5.000 C66.906,5.031 67.000,3.000 67.000,3.000 L66.000,3.000 ZM67.000,9.000 C66.969,7.719 65.000,8.000 65.000,8.000 C65.000,8.000 64.156,7.500 64.000,7.000 C63.844,6.500 62.625,4.844 62.000,6.000 C61.375,7.156 61.969,7.938 63.000,8.000 C64.031,8.062 64.875,7.719 65.000,9.000 C65.125,10.281 67.000,10.000 67.000,10.000 C67.000,10.000 67.031,10.281 67.000,9.000 ZM44.503,11.623 C44.269,11.250 44.537,10.706 44.043,10.449 C42.282,14.123 39.093,14.345 35.462,11.042 C35.369,11.084 35.202,11.113 35.189,11.174 C34.763,13.147 33.912,14.011 32.330,14.056 C30.797,14.099 29.563,13.016 29.161,11.157 C28.880,9.861 28.686,8.544 28.504,7.230 C28.421,6.624 28.262,6.278 27.556,6.513 C26.938,6.718 26.775,7.039 27.134,7.610 C27.279,7.840 27.343,8.122 27.432,8.384 C28.328,11.010 27.916,13.130 26.251,14.481 C24.320,16.049 21.784,16.134 19.319,14.674 C19.104,15.160 18.964,15.688 18.666,16.106 C18.131,16.856 17.396,17.420 16.406,17.304 C15.494,17.197 15.187,16.431 14.920,15.680 C14.699,15.056 14.512,14.413 14.216,13.824 C13.999,13.392 13.541,13.204 13.068,13.442 C12.562,13.697 12.855,14.086 12.971,14.445 C13.176,15.077 13.373,15.714 13.538,16.357 C13.843,17.541 13.300,18.291 12.201,18.674 C10.994,19.096 10.217,18.522 9.849,17.444 C9.078,15.191 8.407,12.905 7.646,10.649 C7.376,9.849 7.206,8.338 6.624,8.458 C5.545,8.682 4.302,9.224 3.627,10.303 C3.223,10.947 2.968,11.512 2.503,10.373 C2.328,9.945 1.842,10.011 1.505,9.841 C0.872,9.522 0.449,9.031 0.198,8.390 C-0.112,7.601 -0.147,6.819 0.691,6.350 C1.447,5.926 2.068,6.454 2.369,7.017 C2.975,8.152 3.639,7.956 4.489,7.369 C5.362,6.768 6.243,6.163 7.179,5.668 C8.693,4.867 9.608,5.157 10.269,6.704 C10.898,8.179 11.373,9.717 11.929,11.222 C12.046,11.540 11.963,12.132 12.573,11.946 C13.022,11.809 13.013,11.351 12.947,10.952 C12.839,10.297 12.825,9.599 12.576,8.999 C12.000,7.614 12.926,7.232 13.910,6.904 C15.085,6.513 15.722,7.157 16.048,8.174 C16.442,9.406 16.144,10.579 15.500,11.814 C16.371,12.101 17.328,11.987 18.203,13.075 C17.524,9.797 17.209,6.956 20.396,5.331 C22.642,4.185 24.731,4.589 26.678,6.574 C26.642,5.445 26.472,4.456 27.641,4.064 C28.057,3.925 27.959,3.511 27.907,3.202 C27.680,1.874 28.613,1.598 29.587,1.427 C30.556,1.257 31.395,1.412 31.600,2.596 C31.688,3.108 31.815,3.457 32.552,3.449 C33.512,3.438 34.139,4.819 33.405,5.230 C31.658,6.209 32.704,7.514 32.702,8.699 C32.702,8.913 32.812,9.126 32.873,9.339 C33.034,9.911 33.156,10.840 33.804,10.677 C34.579,10.483 34.220,9.739 33.838,9.223 C33.776,9.138 33.708,8.945 33.737,8.923 C35.333,7.736 34.290,5.681 35.335,4.279 C36.338,2.935 37.573,2.118 39.263,2.067 C40.401,2.034 41.381,2.427 41.908,3.494 C42.428,4.547 41.815,5.261 40.884,5.996 C42.205,5.649 42.691,6.005 42.753,7.279 C42.790,8.026 43.331,8.815 44.030,9.342 C44.583,10.388 44.966,9.347 45.387,9.206 C46.458,8.847 47.455,8.881 48.016,9.930 C48.580,10.983 48.153,11.887 47.085,12.395 C46.027,12.897 45.145,12.651 44.503,11.623 ZM23.197,8.268 C23.085,7.847 22.849,7.386 22.293,7.458 C21.699,7.534 21.713,8.053 21.718,8.489 C21.733,9.881 22.133,11.204 22.540,12.517 C22.666,12.921 22.913,13.415 23.453,13.330 C24.134,13.222 23.990,12.610 24.061,11.860 C23.817,10.831 23.534,9.542 23.197,8.268 ZM39.298,5.014 C38.359,5.220 38.149,5.932 38.324,7.350 C38.969,6.438 40.215,7.024 40.318,5.860 C40.360,5.390 39.904,4.880 39.298,5.014 ZM39.516,9.810 C40.927,10.692 42.012,10.305 42.694,8.563 C41.597,9.123 40.457,9.115 39.516,9.810 ZM13.712,19.938 C19.616,17.497 25.846,16.426 32.162,15.817 C43.885,14.685 55.630,13.986 67.418,14.372 C68.279,14.400 69.147,14.384 70.063,15.019 C69.224,15.480 68.492,15.308 67.807,15.311 C57.255,15.357 46.733,15.910 36.283,17.373 C28.620,18.446 20.978,19.705 14.033,23.407 L10.508,23.998 C10.049,23.392 9.956,22.801 10.433,22.180 C11.277,21.082 12.463,20.454 13.712,19.938 Z"/>
</svg>