<svg 
 xmlns="http://www.w3.org/2000/svg"
 xmlns:xlink="http://www.w3.org/1999/xlink"
 width="82px" height="18px">
<path fill-rule="evenodd"  fill="rgb(97, 97, 97)"
 d="M79.008,8.087 C78.613,6.759 77.677,5.826 76.584,5.826 C75.134,5.826 73.959,7.471 73.959,9.500 C73.959,11.529 75.134,13.174 76.584,13.174 C77.513,13.174 78.328,12.497 78.795,11.478 L81.864,11.478 C81.150,14.100 79.057,16.000 76.584,16.000 C74.966,16.000 73.513,15.181 72.500,13.884 C71.487,15.181 70.034,16.000 68.416,16.000 C65.943,16.000 63.850,14.100 63.136,11.478 L63.456,11.478 L66.205,11.478 C66.672,12.497 67.486,13.174 68.416,13.174 C69.866,13.174 71.041,11.529 71.041,9.500 C71.041,7.471 69.866,5.826 68.416,5.826 C67.323,5.826 66.387,6.759 65.992,8.087 L63.456,8.087 L63.008,8.087 C63.558,5.177 65.768,3.000 68.416,3.000 C70.034,3.000 71.487,3.819 72.500,5.116 C73.513,3.819 74.966,3.000 76.584,3.000 C79.232,3.000 81.442,5.177 81.992,8.087 L79.008,8.087 ZM59.845,11.269 C58.888,11.302 58.105,10.732 57.956,9.687 C57.782,8.460 58.432,7.692 59.601,7.499 C60.901,7.285 61.343,8.306 61.808,9.101 C61.635,10.397 61.018,11.228 59.845,11.269 ZM52.470,16.932 C51.344,17.642 50.061,17.997 48.622,17.997 C47.182,17.997 45.905,17.654 44.791,16.968 C43.676,16.283 42.807,15.303 42.185,14.028 C41.562,12.754 41.235,11.291 41.204,9.639 L41.204,8.653 C41.204,6.938 41.507,5.425 42.115,4.114 C42.722,2.803 43.593,1.791 44.727,1.078 C45.861,0.364 47.151,0.007 48.598,0.007 C50.030,0.007 51.307,0.360 52.429,1.066 C53.551,1.771 54.424,2.775 55.047,4.078 C55.670,5.381 55.985,6.874 55.993,8.557 L55.993,9.363 C55.993,11.070 55.687,12.581 55.076,13.896 C54.464,15.211 53.596,16.223 52.470,16.932 ZM51.849,8.629 C51.849,6.890 51.568,5.569 51.007,4.667 C50.446,3.765 49.643,3.314 48.598,3.314 C46.555,3.314 45.476,4.902 45.360,8.076 L45.348,9.363 C45.348,11.078 45.623,12.397 46.172,13.319 C46.722,14.241 47.538,14.702 48.622,14.702 C49.651,14.702 50.444,14.249 51.001,13.343 C51.559,12.437 51.841,11.134 51.849,9.435 L51.849,8.629 ZM32.753,7.535 L39.323,7.535 L39.323,10.782 L32.753,10.782 L32.753,17.756 L28.678,17.756 L28.678,0.248 L39.985,0.248 L39.985,3.507 L32.753,3.507 L32.753,7.535 ZM19.449,7.198 L25.857,7.198 L25.857,10.325 L19.449,10.325 L19.449,14.509 L27.018,14.509 L27.018,17.756 L15.375,17.756 L15.375,0.248 L27.041,0.248 L27.041,3.507 L19.449,3.507 L19.449,7.198 ZM9.541,16.668 C8.353,17.385 7.028,17.748 5.566,17.756 L0.005,17.756 L0.005,0.248 L5.449,0.248 C6.943,0.248 8.286,0.599 9.478,1.300 C10.669,2.002 11.600,2.992 12.269,4.270 C12.939,5.549 13.277,6.982 13.285,8.569 L13.285,9.375 C13.285,10.978 12.958,12.415 12.304,13.686 C11.650,14.956 10.729,15.950 9.541,16.668 ZM9.129,8.617 C9.129,6.926 8.816,5.651 8.189,4.793 C7.562,3.936 6.649,3.507 5.449,3.507 L4.080,3.507 L4.080,14.509 L5.496,14.509 C6.664,14.509 7.562,14.078 8.189,13.217 C8.816,12.355 9.129,11.074 9.129,9.375 L9.129,8.617 Z"/>
</svg>