<svg 
 xmlns="http://www.w3.org/2000/svg"
 xmlns:xlink="http://www.w3.org/1999/xlink"
 width="50px" height="13px">
<path fill-rule="evenodd"  fill="rgb(55, 21, 91)"
 d="M48.797,5.990 C48.837,6.898 47.173,7.731 48.678,8.714 C49.084,8.980 49.632,8.960 50.000,9.358 C47.474,8.784 47.474,8.784 47.407,10.604 C47.407,10.604 47.407,10.604 47.407,10.604 C47.407,10.604 47.407,10.604 47.407,10.604 C47.810,10.898 48.214,11.193 48.617,11.488 C48.546,11.576 48.475,11.664 48.404,11.753 C48.031,11.339 47.455,11.190 47.204,10.617 C47.014,10.717 46.660,10.294 46.663,10.629 C46.665,11.060 45.345,11.001 46.278,11.698 C46.499,11.863 46.486,12.207 46.365,12.501 C45.509,11.129 45.125,10.991 44.386,11.780 C44.386,11.780 44.386,11.780 44.386,11.781 C44.386,11.780 44.386,11.780 44.386,11.780 C44.295,12.176 44.495,12.595 44.292,12.997 C43.834,12.909 43.982,12.592 43.997,12.330 C43.856,11.653 43.275,11.629 42.755,11.648 C42.300,11.664 41.844,12.245 41.410,11.499 C41.331,11.362 40.987,11.986 40.604,12.105 C40.297,11.694 41.144,11.071 40.553,10.922 C40.266,10.850 39.526,10.534 39.185,11.247 C39.014,10.833 39.500,10.585 39.284,10.304 C39.236,10.242 38.937,10.356 38.728,10.394 C38.773,10.048 39.119,9.804 39.059,9.386 C37.860,9.349 37.143,10.505 35.715,10.632 C36.530,9.905 37.346,9.673 38.050,9.300 C38.683,8.963 38.820,8.596 38.602,7.990 C38.462,7.603 38.491,7.604 38.922,7.423 C39.125,7.338 39.095,7.132 38.969,7.045 C38.764,6.902 38.512,6.821 38.278,6.716 C38.281,6.654 38.285,6.592 38.288,6.531 C38.315,6.491 38.352,6.446 38.379,6.402 C38.349,6.445 38.326,6.490 38.288,6.530 C38.429,5.371 37.842,4.686 36.641,4.375 C37.169,4.182 37.549,4.402 37.893,4.576 C38.321,4.792 38.623,4.721 38.918,4.405 C39.362,4.370 39.538,4.181 39.095,3.922 C38.714,3.698 38.360,3.482 38.128,3.107 C38.177,3.076 38.231,3.013 38.274,3.019 C38.852,3.101 39.425,3.242 40.005,3.268 C40.548,3.292 40.479,2.335 41.139,2.501 C41.935,2.700 41.979,2.134 42.164,1.676 C42.210,1.562 42.316,1.470 42.428,1.325 C42.729,1.671 42.761,2.320 43.348,2.298 C43.759,2.283 44.216,2.134 44.387,1.661 C44.525,1.107 44.664,0.553 44.803,-0.002 C44.850,0.004 44.896,0.010 44.943,0.017 C44.902,0.748 44.860,1.479 44.818,2.210 C45.148,2.389 45.532,2.515 45.794,2.760 C46.338,3.267 46.769,3.222 47.237,2.399 C47.338,3.023 46.424,3.278 47.119,3.772 C47.522,4.059 47.792,4.442 48.427,4.133 C47.732,5.276 47.956,5.532 49.524,5.556 C49.465,5.987 48.773,5.441 48.797,5.990 ZM38.278,6.726 C38.278,6.726 38.278,6.726 38.278,6.726 C38.278,6.726 38.278,6.726 38.278,6.726 L38.278,6.726 C38.271,6.725 38.264,6.724 38.257,6.723 C38.259,6.718 38.260,6.714 38.262,6.709 C38.262,6.709 38.264,6.712 38.266,6.713 L38.262,6.709 C38.267,6.712 38.273,6.714 38.278,6.716 C38.278,6.720 38.278,6.723 38.278,6.726 C38.278,6.726 38.278,6.726 38.278,6.726 ZM37.177,6.854 C37.521,6.657 37.887,6.667 38.257,6.723 C37.987,7.532 37.548,6.904 37.177,6.854 ZM34.485,10.900 C34.068,11.099 33.363,11.291 32.984,10.606 C32.733,10.152 32.445,9.716 32.159,9.248 C31.560,9.461 31.583,9.921 31.626,10.354 C31.676,10.855 31.506,11.031 30.960,11.017 C30.477,11.004 30.322,10.876 30.332,10.406 C30.369,8.660 30.364,6.912 30.375,5.165 C30.219,4.461 30.719,4.599 31.153,4.572 C31.687,4.538 31.669,4.823 31.624,5.169 C31.599,5.359 31.584,5.549 31.565,5.739 C31.565,6.441 31.565,7.142 31.565,8.008 C32.576,7.315 32.924,5.803 34.464,6.427 C34.462,6.457 34.485,6.537 34.452,6.575 C33.023,8.252 33.029,8.248 34.211,10.034 C34.388,10.301 34.883,10.710 34.485,10.900 ZM29.527,10.296 C29.527,10.690 29.584,11.030 28.926,11.010 C28.350,10.993 28.265,10.780 28.269,10.324 C28.287,8.433 28.176,6.540 28.362,4.679 C29.425,4.366 29.552,4.961 29.539,5.758 C29.515,7.270 29.527,8.783 29.527,10.296 ZM26.893,10.971 C26.272,10.638 25.666,10.936 25.065,10.942 C23.996,10.953 23.451,10.628 23.385,9.767 C23.312,8.808 23.818,8.270 24.862,8.217 C25.060,8.207 25.262,8.248 25.462,8.266 C25.748,8.186 26.257,8.310 26.104,7.778 C25.935,7.188 25.364,7.184 24.940,7.358 C24.481,7.547 24.176,7.630 23.824,7.215 C23.590,6.939 23.628,6.796 23.897,6.591 C24.810,5.896 26.766,6.278 27.306,7.271 C27.685,8.372 27.420,9.499 27.449,10.614 C27.459,10.999 27.078,11.069 26.893,10.971 ZM25.636,9.048 C25.240,9.064 24.756,8.985 24.638,9.473 C24.542,9.873 24.881,10.046 25.253,10.055 C25.687,10.065 26.053,9.936 26.131,9.450 C26.188,9.065 25.933,9.035 25.636,9.048 ZM22.660,5.738 C21.680,5.563 21.484,6.003 21.542,6.849 C21.621,7.978 21.536,9.117 21.587,10.250 C21.613,10.851 21.407,11.003 20.790,11.021 C20.055,11.043 20.171,10.627 20.171,10.217 C20.172,8.921 20.147,7.625 20.187,6.331 C20.202,5.860 20.053,5.676 19.580,5.712 C19.035,5.677 18.136,6.095 18.427,4.949 C18.600,4.269 19.187,4.672 19.597,4.620 C20.609,4.603 21.622,4.602 22.633,4.563 C23.087,4.546 23.304,4.638 23.294,5.138 C23.285,5.596 23.149,5.826 22.660,5.738 ZM17.306,11.004 C16.902,11.014 16.693,10.938 16.708,10.485 C16.750,9.168 16.751,7.850 16.769,6.532 C16.771,6.025 16.761,5.517 16.781,5.011 C16.796,4.637 17.075,4.574 17.409,4.556 C17.786,4.536 17.782,4.754 17.852,5.017 C18.001,5.584 17.997,6.145 17.935,6.714 C17.953,7.965 17.948,9.218 17.999,10.468 C18.021,11.015 17.705,10.994 17.306,11.004 ZM15.090,10.985 C14.623,10.879 14.194,10.948 13.735,11.037 C12.719,11.236 11.887,10.663 11.816,9.684 C11.748,8.749 11.806,7.807 11.782,6.869 C11.768,6.343 12.093,6.322 12.506,6.319 C12.955,6.317 13.061,6.503 13.040,6.905 C13.008,7.518 13.049,8.134 13.046,8.748 C13.044,9.323 13.054,9.962 13.851,9.945 C14.633,9.928 14.640,9.278 14.641,8.712 C14.643,8.097 14.666,7.480 14.622,6.867 C14.585,6.342 14.873,6.320 15.298,6.304 C15.797,6.285 15.943,6.452 15.911,6.914 C15.870,7.493 15.901,8.077 15.901,8.658 C15.903,8.658 15.905,8.658 15.907,8.658 C15.907,9.176 15.867,9.698 15.917,10.211 C15.980,10.839 15.752,11.134 15.090,10.985 ZM11.003,10.795 C10.703,11.342 9.998,10.839 9.473,10.916 C9.083,10.973 8.676,11.027 8.289,10.984 C7.481,10.893 7.022,10.398 6.975,9.637 C6.930,8.891 7.341,8.405 8.122,8.271 C8.452,8.215 8.800,8.260 9.133,8.215 C9.356,8.185 9.735,8.399 9.758,7.963 C9.775,7.636 9.566,7.408 9.236,7.331 C8.904,7.254 8.563,7.237 8.264,7.454 C7.719,7.849 7.520,7.304 7.327,7.060 C7.015,6.665 7.543,6.588 7.744,6.480 C9.220,5.691 11.038,6.692 11.073,8.293 C11.080,8.584 11.074,8.876 11.074,9.167 C11.066,9.168 11.058,9.168 11.050,9.168 C11.050,9.718 11.239,10.362 11.003,10.795 ZM9.177,9.043 C8.761,9.059 8.261,9.015 8.195,9.503 C8.135,9.946 8.545,10.047 8.949,10.055 C9.434,10.063 9.709,9.833 9.771,9.390 C9.847,8.845 9.384,9.129 9.177,9.043 ZM6.354,10.095 C6.350,10.475 6.506,11.053 5.791,10.971 C5.265,10.910 5.023,10.518 5.030,9.998 C5.039,9.323 5.032,8.649 5.032,7.797 C4.463,8.306 4.303,8.826 4.060,9.291 C3.913,9.574 3.749,9.757 3.380,9.765 C2.978,9.775 2.765,9.616 2.607,9.276 C2.374,8.776 2.094,8.296 1.643,7.809 C1.643,8.548 1.662,9.288 1.635,10.027 C1.622,10.390 1.856,10.841 1.129,10.960 C0.376,11.083 0.393,10.624 0.272,10.207 C0.139,10.095 0.047,9.941 0.044,9.786 C0.013,8.027 -0.197,6.245 0.686,4.589 C1.333,4.483 1.740,4.693 2.006,5.310 C2.376,6.168 2.849,6.985 3.335,7.929 C3.827,6.971 4.279,6.153 4.671,5.308 C4.954,4.697 5.467,4.562 6.042,4.667 C6.653,4.778 6.344,5.298 6.351,5.630 C6.378,7.118 6.372,8.607 6.354,10.095 Z"/>
</svg>