<svg 
 xmlns="http://www.w3.org/2000/svg"
 xmlns:xlink="http://www.w3.org/1999/xlink"
 width="72px" height="72px">
<path fill-rule="evenodd"  fill="rgb(255, 143, 0)"
 d="M71.912,15.696 C71.796,15.977 71.572,16.201 71.291,16.317 C71.291,16.317 56.183,22.575 56.182,22.575 L51.937,24.333 C51.796,24.392 51.646,24.420 51.497,24.420 C51.348,24.420 51.198,24.391 51.057,24.333 C50.776,24.217 50.552,23.993 50.436,23.712 L45.624,12.096 L15.106,24.737 L18.885,33.861 L46.220,22.540 C46.806,22.296 47.478,22.575 47.721,23.161 C47.964,23.748 47.685,24.420 47.099,24.662 L18.703,36.424 C18.560,36.483 18.411,36.512 18.264,36.512 C17.813,36.512 17.385,36.245 17.202,35.802 L17.050,35.434 L5.064,40.398 C4.924,40.457 4.774,40.486 4.625,40.486 C4.475,40.486 4.326,40.456 4.185,40.398 C3.904,40.281 3.680,40.058 3.563,39.776 L0.089,31.388 C-0.154,30.802 0.124,30.130 0.711,29.887 L12.696,24.923 L12.543,24.554 C12.426,24.273 12.426,23.957 12.543,23.675 C12.660,23.394 12.883,23.170 13.165,23.053 L44.745,9.973 L44.593,9.606 C44.350,9.019 44.628,8.347 45.214,8.104 L64.568,0.088 C65.154,-0.155 65.827,0.123 66.069,0.710 L71.913,14.816 C72.029,15.097 72.029,15.414 71.912,15.696 ZM2.651,31.570 L5.247,37.836 L16.171,33.311 L13.575,27.046 L2.651,31.570 ZM47.155,9.787 C47.155,9.787 47.307,10.155 47.308,10.155 L52.119,21.771 L54.242,20.891 L49.278,8.908 L47.155,9.787 ZM64.386,2.650 L51.401,8.029 L56.365,20.012 L69.350,14.634 L64.386,2.650 ZM28.730,49.047 L28.710,49.047 C28.076,49.047 27.561,48.533 27.561,47.898 C27.561,47.263 28.076,46.749 28.710,46.749 L29.369,46.749 L30.413,42.995 C30.552,42.498 31.004,42.153 31.520,42.153 L34.852,42.153 L34.852,34.709 L31.960,35.907 C31.816,35.967 31.667,35.995 31.521,35.995 C31.070,35.995 30.642,35.728 30.459,35.286 C30.216,34.699 30.494,34.027 31.081,33.784 L35.549,31.934 C35.552,31.932 35.556,31.930 35.559,31.929 L40.041,30.073 C40.627,29.830 41.299,30.108 41.542,30.694 C41.785,31.280 41.507,31.953 40.920,32.195 L37.150,33.757 L37.150,42.153 L40.481,42.153 C40.997,42.153 41.450,42.497 41.588,42.994 L42.632,46.749 L43.291,46.749 C43.925,46.749 44.440,47.263 44.440,47.898 C44.440,48.532 43.925,49.047 43.291,49.047 L43.271,49.047 L49.247,70.540 C49.417,71.151 49.059,71.784 48.448,71.955 C48.345,71.983 48.242,71.997 48.140,71.997 C47.637,71.997 47.175,71.664 47.033,71.155 L40.886,49.047 L37.149,49.047 L37.149,70.848 C37.149,71.483 36.635,71.997 36.001,71.997 C35.366,71.997 34.852,71.483 34.852,70.848 L34.852,49.047 L31.115,49.047 L24.967,71.156 C24.798,71.767 24.164,72.124 23.553,71.955 C22.942,71.785 22.584,71.152 22.754,70.540 L28.730,49.047 ZM40.247,46.749 L39.608,44.451 L32.393,44.451 L31.755,46.749 L40.247,46.749 Z"/>
</svg>