<svg 
 xmlns="http://www.w3.org/2000/svg"
 xmlns:xlink="http://www.w3.org/1999/xlink"
 width="58px" height="45px">
<path fill-rule="evenodd"  fill="rgb(128, 222, 234)"
 d="M51.233,13.125 L51.233,6.562 L44.467,6.562 L44.467,-0.000 L-0.000,-0.000 L-0.000,31.875 L6.767,31.875 L6.767,38.437 L13.533,38.437 L13.533,45.000 L58.000,45.000 L58.000,13.125 L51.233,13.125 ZM1.933,29.999 L1.933,1.875 L42.533,1.875 L42.533,6.562 L6.767,6.562 L6.767,29.999 L1.933,29.999 ZM8.700,36.562 L8.700,31.875 L8.700,8.437 L44.467,8.437 L49.300,8.437 L49.300,13.125 L13.533,13.125 L13.533,36.562 L8.700,36.562 ZM56.067,43.125 L15.467,43.125 L15.467,38.437 L15.467,15.000 L51.233,15.000 L56.067,15.000 L56.067,43.125 Z"/>
</svg>