<svg 
 xmlns="http://www.w3.org/2000/svg"
 xmlns:xlink="http://www.w3.org/1999/xlink"
 width="27px" height="27px">
<path fill-rule="evenodd"  fill="rgb(255, 255, 255)"
 d="M27.000,18.981 C27.000,23.403 23.357,27.000 18.879,27.000 C18.349,27.000 17.918,26.575 17.918,26.051 C17.918,25.526 18.349,25.101 18.879,25.101 C22.297,25.101 25.077,22.356 25.077,18.981 C25.077,18.080 24.883,17.211 24.499,16.399 C24.413,16.215 24.388,16.009 24.428,15.810 C24.575,15.091 24.650,14.356 24.650,13.627 C24.650,7.625 19.706,2.742 13.628,2.742 C13.055,2.742 12.478,2.786 11.914,2.873 C11.389,2.953 10.898,2.599 10.816,2.081 C10.734,1.563 11.093,1.077 11.618,0.996 C12.280,0.894 12.956,0.843 13.628,0.843 C20.766,0.843 26.573,6.578 26.573,13.627 C26.573,14.380 26.505,15.138 26.371,15.884 C26.789,16.866 27.000,17.906 27.000,18.981 ZM13.561,7.717 C14.321,7.717 14.988,7.803 15.543,7.972 C16.098,8.143 16.564,8.373 16.930,8.655 C17.297,8.938 17.568,9.239 17.736,9.548 C17.905,9.858 17.991,10.164 17.991,10.460 C17.991,10.729 17.885,10.975 17.674,11.191 C17.464,11.407 17.198,11.517 16.884,11.517 C16.687,11.517 16.414,11.482 16.229,11.321 C16.079,11.190 15.921,10.983 15.742,10.680 C15.517,10.256 15.242,9.922 14.926,9.684 C14.605,9.443 14.104,9.327 13.394,9.327 C12.745,9.327 12.214,9.457 11.817,9.714 C11.413,9.976 11.217,10.282 11.217,10.649 C11.217,10.877 11.284,11.069 11.421,11.235 C11.557,11.398 11.746,11.540 11.983,11.658 C12.218,11.775 12.461,11.867 12.705,11.934 C12.949,12.001 13.356,12.099 13.913,12.226 C14.617,12.376 15.257,12.542 15.816,12.719 C16.381,12.897 16.869,13.117 17.266,13.370 C17.663,13.627 17.976,13.953 18.198,14.343 C18.420,14.733 18.533,15.218 18.533,15.784 C18.533,16.461 18.337,17.077 17.952,17.615 C17.566,18.154 16.994,18.582 16.251,18.887 C15.506,19.192 14.613,19.347 13.595,19.347 C12.373,19.347 11.352,19.136 10.557,18.720 C9.994,18.420 9.530,18.014 9.177,17.512 C8.826,17.011 8.648,16.517 8.648,16.043 C8.648,15.768 8.755,15.530 8.966,15.334 C9.179,15.136 9.444,15.039 9.775,15.039 C10.040,15.039 10.267,15.117 10.450,15.269 C10.633,15.422 10.791,15.653 10.920,15.952 C11.079,16.311 11.252,16.613 11.435,16.852 C11.619,17.092 11.881,17.293 12.213,17.448 C12.546,17.604 12.990,17.683 13.531,17.683 C14.275,17.683 14.889,17.524 15.355,17.211 C15.827,16.892 16.057,16.506 16.057,16.029 C16.057,15.657 15.930,15.350 15.678,15.117 C15.426,14.884 15.097,14.705 14.700,14.583 C14.297,14.459 13.758,14.327 13.098,14.191 C12.210,14.004 11.454,13.780 10.851,13.527 C10.251,13.275 9.768,12.927 9.415,12.492 C9.063,12.056 8.885,11.507 8.885,10.861 C8.885,10.246 9.074,9.691 9.445,9.212 C9.817,8.733 10.363,8.360 11.066,8.104 C11.769,7.847 12.609,7.717 13.561,7.717 ZM8.121,1.899 C4.703,1.899 1.923,4.644 1.923,8.019 C1.923,9.050 2.189,10.071 2.692,10.971 C2.800,11.164 2.837,11.389 2.796,11.606 C2.670,12.265 2.606,12.945 2.606,13.627 C2.606,19.628 7.550,24.511 13.628,24.511 C14.250,24.511 14.876,24.459 15.490,24.356 C16.013,24.268 16.509,24.616 16.598,25.133 C16.687,25.649 16.335,26.140 15.812,26.228 C15.092,26.348 14.358,26.410 13.628,26.410 C6.490,26.410 0.683,20.675 0.683,13.627 C0.683,12.940 0.738,12.255 0.848,11.585 C0.292,10.481 -0.000,9.255 -0.000,8.019 C-0.000,3.597 3.643,0.000 8.121,0.000 C8.652,0.000 9.082,0.425 9.082,0.949 C9.082,1.474 8.652,1.899 8.121,1.899 Z"/>
</svg>