<svg 
 xmlns="http://www.w3.org/2000/svg"
 xmlns:xlink="http://www.w3.org/1999/xlink"
 width="97px" height="29px">
<path fill-rule="evenodd"  fill="rgb(0, 0, 0)"
 d="M95.924,13.714 C95.852,13.910 95.752,14.072 95.624,14.200 C95.496,14.328 95.340,14.422 95.156,14.482 C94.972,14.542 94.770,14.572 94.550,14.572 C93.486,14.572 92.954,14.086 92.954,13.114 L92.954,10.300 L93.776,10.300 L93.776,12.952 C93.776,13.116 93.791,13.255 93.821,13.369 C93.851,13.483 93.898,13.575 93.962,13.645 C94.026,13.715 94.106,13.765 94.202,13.795 C94.298,13.825 94.410,13.840 94.538,13.840 C94.790,13.840 94.972,13.770 95.084,13.630 C95.196,13.490 95.252,13.264 95.252,12.952 L95.252,10.300 L96.032,10.300 L96.032,13.012 C96.032,13.284 95.996,13.518 95.924,13.714 ZM92.516,14.500 L91.568,14.500 L90.614,12.856 L90.182,12.778 L90.182,14.500 L89.360,14.500 L89.360,10.342 C89.452,10.326 89.551,10.311 89.657,10.297 C89.763,10.283 89.869,10.272 89.975,10.264 C90.081,10.256 90.184,10.250 90.284,10.246 C90.384,10.242 90.476,10.240 90.560,10.240 C90.756,10.240 90.949,10.258 91.139,10.294 C91.329,10.330 91.499,10.392 91.649,10.480 C91.799,10.568 91.919,10.689 92.009,10.843 C92.099,10.997 92.144,11.190 92.144,11.422 C92.144,11.766 92.064,12.046 91.904,12.262 C91.744,12.478 91.530,12.628 91.262,12.712 L91.556,12.898 L92.516,14.500 ZM91.280,11.548 C91.280,11.368 91.224,11.227 91.112,11.125 C91.000,11.023 90.836,10.972 90.620,10.972 C90.536,10.972 90.453,10.974 90.371,10.978 C90.289,10.982 90.226,10.990 90.182,11.002 L90.182,12.220 L90.530,12.220 C90.758,12.220 90.940,12.168 91.076,12.064 C91.212,11.960 91.280,11.788 91.280,11.548 ZM86.421,12.260 C87.372,12.800 87.346,13.729 87.209,14.643 C87.076,15.530 86.472,16.011 85.644,16.113 C84.539,16.248 83.376,16.420 82.534,15.412 C82.150,14.952 81.859,14.204 82.472,13.844 C82.868,13.611 83.805,13.331 83.944,14.420 C84.010,14.938 84.291,15.167 84.761,15.153 C85.059,15.144 85.346,15.021 85.451,14.698 C85.611,14.209 85.598,13.703 85.173,13.378 C84.757,13.059 84.283,12.806 83.806,12.588 C82.680,12.072 81.887,11.330 82.255,9.945 C82.599,8.653 83.635,8.439 84.760,8.467 C85.480,8.445 86.193,8.510 86.709,9.088 C87.059,9.480 87.497,10.102 87.037,10.485 C86.622,10.830 85.781,11.015 85.430,10.228 C85.198,9.709 84.990,9.369 84.424,9.560 C84.243,9.622 84.044,9.860 83.996,10.055 C83.866,10.585 84.113,11.013 84.549,11.270 C85.157,11.629 85.807,11.911 86.421,12.260 ZM79.238,12.508 C77.579,12.321 77.738,13.314 77.919,14.410 C77.986,14.817 78.182,15.100 78.572,15.152 C79.022,15.212 79.440,15.044 79.482,14.532 C79.549,13.717 79.985,13.543 80.671,13.609 C81.003,13.641 81.287,13.758 81.301,14.095 C81.329,14.798 81.100,15.409 80.456,15.768 C79.406,16.355 78.292,16.367 77.220,15.945 C76.258,15.567 76.023,14.693 76.042,12.407 C76.069,9.062 77.187,7.888 79.744,8.520 C80.926,8.812 81.992,11.324 81.246,12.256 C80.746,12.880 79.894,12.582 79.238,12.508 ZM79.542,10.819 C79.469,10.264 79.605,9.550 79.027,9.516 C77.853,9.479 77.946,10.213 77.845,10.760 C77.739,11.326 77.933,11.660 78.573,11.659 C79.160,11.659 79.646,11.605 79.542,10.819 ZM74.291,16.074 C73.567,16.081 73.393,15.759 73.404,15.096 C73.428,13.642 73.405,12.187 73.408,10.732 C73.409,10.219 73.368,9.714 72.732,9.677 C72.080,9.640 71.743,10.068 71.724,10.685 C71.683,12.077 71.700,13.472 71.687,14.865 C71.681,15.450 71.837,16.061 70.869,16.080 C69.857,16.099 69.887,15.515 69.903,14.806 C69.923,13.958 69.908,13.109 69.908,12.260 C69.908,11.775 69.909,11.291 69.908,10.806 C69.904,8.947 69.904,8.949 71.845,9.079 C71.950,9.086 72.057,8.974 72.170,8.947 C75.058,8.278 75.228,8.427 75.197,11.513 C75.185,12.725 75.177,13.938 75.221,15.149 C75.246,15.872 74.962,16.067 74.291,16.074 ZM68.147,16.071 C67.619,16.068 67.239,15.990 67.257,15.309 C67.281,14.349 67.263,13.388 67.263,12.427 C67.263,11.406 67.271,10.386 67.261,9.365 C67.255,8.739 67.561,8.537 68.135,8.553 C68.673,8.568 69.031,8.687 69.026,9.349 C69.012,11.331 69.009,13.312 69.031,15.293 C69.038,15.968 68.689,16.073 68.147,16.071 ZM63.965,12.464 C64.365,11.914 65.058,12.260 65.619,12.210 C66.134,12.164 66.267,12.470 66.340,12.983 C66.686,15.446 66.406,16.022 64.667,16.166 C61.798,16.402 61.052,15.801 61.023,13.230 C61.020,12.928 61.023,12.625 61.024,12.322 C61.028,9.053 61.982,8.028 64.593,8.508 C65.116,8.604 65.634,8.760 65.950,9.257 C66.203,9.656 66.590,10.187 66.168,10.541 C65.734,10.905 64.969,11.026 64.690,10.311 C64.405,9.577 63.955,9.359 63.338,9.545 C62.704,9.736 62.762,10.396 62.752,10.927 C62.733,11.955 62.753,12.984 62.768,14.012 C62.777,14.590 62.909,15.112 63.562,15.243 C63.909,15.312 64.349,15.367 64.526,15.013 C64.797,14.469 64.845,13.816 64.491,13.303 C64.298,13.024 63.567,13.013 63.965,12.464 ZM59.195,16.076 C58.279,16.044 58.343,15.473 58.344,14.859 C58.344,13.589 58.362,12.319 58.335,11.050 C58.323,10.488 58.517,9.716 57.620,9.676 C56.683,9.635 56.665,10.446 56.631,11.081 C56.569,12.226 56.509,13.389 56.633,14.523 C56.781,15.886 56.178,16.213 55.044,16.069 C54.776,16.093 54.496,15.941 54.556,15.707 C55.113,13.564 54.976,11.290 55.731,9.189 C55.885,9.042 56.039,8.894 56.194,8.747 C56.678,9.246 57.075,8.898 57.571,8.692 C59.168,8.031 60.056,8.649 60.115,10.436 C60.163,11.886 60.119,13.338 60.129,14.789 C60.134,15.470 60.228,16.112 59.195,16.076 ZM34.071,15.003 C34.135,15.358 34.123,15.728 33.848,16.021 C32.356,16.490 32.031,15.763 32.118,14.378 C32.152,13.822 32.652,12.801 31.371,12.799 C30.096,12.798 30.723,13.797 30.588,14.380 C30.426,15.078 31.061,16.202 29.576,16.138 C28.914,16.110 28.626,15.917 28.637,15.201 C28.666,13.328 28.660,11.455 28.639,9.582 C28.632,8.888 28.910,8.610 29.579,8.619 C30.184,8.627 30.627,8.729 30.588,9.498 C30.570,9.859 30.632,10.222 30.623,10.584 C30.607,11.222 30.581,11.773 31.499,11.721 C32.389,11.670 32.175,11.050 32.156,10.564 C32.107,9.320 32.033,8.108 33.856,8.787 C34.067,9.027 34.161,9.331 34.091,9.625 C33.659,11.419 33.746,13.208 34.071,15.003 ZM24.536,13.627 C24.590,14.131 24.395,14.835 25.086,14.990 C25.851,15.162 25.853,14.495 25.961,13.956 C26.127,13.129 26.789,13.435 27.245,13.484 C27.986,13.564 27.739,14.168 27.645,14.607 C27.360,15.945 26.381,16.209 25.237,16.207 C24.080,16.205 23.027,15.892 22.891,14.549 C22.747,13.116 22.744,11.646 22.881,10.212 C23.005,8.911 23.978,8.481 25.171,8.473 C26.326,8.464 27.274,8.749 27.597,10.059 C27.694,10.452 27.943,10.958 27.378,11.132 C26.963,11.259 26.405,11.420 26.075,10.958 C25.748,10.502 25.954,9.356 24.964,9.823 C24.228,10.171 24.613,11.128 24.505,11.815 C24.477,11.991 24.501,12.177 24.501,12.358 C24.509,12.358 24.518,12.358 24.527,12.358 C24.527,12.781 24.491,13.209 24.536,13.627 ZM20.109,13.192 C20.082,13.856 20.088,14.523 20.109,15.188 C20.128,15.759 20.001,16.102 19.335,16.068 C18.766,16.039 18.283,16.057 18.316,15.239 C18.354,14.273 18.325,13.304 18.326,12.336 C18.326,11.369 18.351,10.400 18.318,9.434 C18.296,8.814 18.558,8.419 19.120,8.596 C19.971,8.865 20.751,9.334 21.585,8.535 C21.763,8.365 22.024,8.628 22.022,8.905 C22.020,9.238 22.228,9.782 21.781,9.844 C19.618,10.142 20.166,11.822 20.109,13.192 ZM15.754,15.869 C15.336,15.667 15.143,15.885 14.828,15.988 C13.575,16.398 12.464,16.344 12.085,14.733 C11.680,13.010 12.415,11.829 13.962,11.501 C14.571,11.373 15.664,11.896 15.518,10.486 C15.482,10.130 15.526,9.726 15.115,9.575 C14.690,9.419 14.228,9.454 14.130,9.983 C13.950,10.946 13.258,10.536 12.751,10.598 C12.375,10.644 12.247,10.387 12.288,10.033 C12.365,9.375 12.718,8.950 13.306,8.680 C15.539,7.655 17.301,8.822 17.284,11.325 C17.281,11.808 17.283,12.291 17.283,12.774 C17.285,12.774 17.287,12.774 17.289,12.774 C17.289,13.378 17.241,13.986 17.299,14.584 C17.422,15.864 17.020,16.479 15.754,15.869 ZM14.892,12.449 C13.958,12.543 13.886,13.286 13.861,14.027 C13.842,14.604 13.962,15.234 14.625,15.192 C15.585,15.130 15.495,14.266 15.537,13.543 C15.432,13.118 15.824,12.355 14.892,12.449 ZM9.051,12.505 C7.516,12.339 7.627,13.271 7.765,14.287 C7.826,14.740 8.050,15.106 8.525,15.146 C8.962,15.183 9.407,15.022 9.416,14.502 C9.432,13.620 9.939,13.565 10.582,13.612 C10.885,13.634 11.198,13.646 11.241,14.031 C11.312,14.679 11.080,15.249 10.575,15.615 C9.537,16.368 8.351,16.387 7.214,15.988 C6.188,15.627 5.949,14.658 5.945,13.631 C5.943,13.209 5.945,12.787 5.945,12.365 C5.953,9.050 7.082,7.882 9.648,8.530 C10.872,8.838 11.951,11.249 11.200,12.231 C10.682,12.909 9.757,12.582 9.051,12.505 ZM9.499,10.736 C9.450,10.039 9.359,9.433 8.534,9.509 C7.720,9.584 7.779,10.263 7.712,10.843 C7.618,11.649 8.121,11.639 8.689,11.663 C9.436,11.695 9.581,11.305 9.499,10.736 ZM3.736,11.863 C4.940,12.372 5.484,13.272 5.188,14.597 C4.892,15.919 3.897,16.197 2.754,16.194 C1.799,16.179 0.805,16.182 0.326,15.126 C0.157,14.756 -0.257,14.136 0.343,13.861 C0.809,13.648 1.561,13.400 1.828,14.228 C2.016,14.810 2.195,15.272 2.886,15.124 C3.263,15.043 3.482,14.772 3.502,14.347 C3.532,13.719 3.226,13.329 2.708,13.060 C2.132,12.761 1.559,12.455 0.994,12.135 C0.197,11.685 0.094,10.934 0.192,10.102 C0.291,9.268 0.798,8.768 1.534,8.606 C2.634,8.364 3.790,8.203 4.684,9.132 C5.010,9.470 5.481,10.099 4.947,10.511 C4.554,10.814 3.789,10.997 3.416,10.313 C3.175,9.871 3.064,9.409 2.436,9.521 C2.075,9.585 1.962,9.853 1.938,10.162 C1.887,10.801 2.260,11.161 2.775,11.407 C3.095,11.560 3.410,11.725 3.736,11.863 Z"/>
<path fill-rule="evenodd"  fill="rgb(162, 172, 181)"
 d="M57.171,28.820 C55.533,29.463 54.865,28.193 54.137,27.138 C52.988,25.471 52.309,23.490 50.785,22.058 C50.079,21.395 49.648,21.307 48.737,21.795 C45.249,23.663 41.762,23.572 38.417,21.302 C36.724,20.364 35.556,18.928 34.729,17.170 L34.729,17.170 C34.382,16.830 34.419,16.179 33.848,16.021 C33.123,13.609 33.054,11.197 33.856,8.787 C34.816,8.213 34.723,6.837 35.674,6.257 C36.556,4.878 37.351,3.419 38.822,2.572 L38.822,2.572 L38.822,2.572 C40.242,1.527 41.707,0.573 43.430,0.133 C44.818,-0.050 46.208,-0.050 47.597,0.130 C48.623,0.253 49.607,0.503 50.455,1.154 C52.921,2.532 54.682,4.524 55.558,7.308 C55.715,7.806 55.979,8.268 56.194,8.747 C56.126,9.000 55.965,9.154 55.733,9.233 C55.842,11.383 55.820,13.510 54.799,15.486 C54.674,15.729 54.818,15.938 55.044,16.069 C54.765,16.446 54.486,16.824 54.207,17.201 L54.207,17.201 C53.765,18.336 51.991,18.755 52.564,20.438 L52.564,20.438 C53.324,22.136 54.704,23.242 56.072,24.368 C56.888,25.040 57.734,25.695 58.012,26.836 C58.232,27.739 58.260,28.521 57.171,28.820 Z"/>
<path fill-rule="evenodd"  fill="rgb(28, 88, 138)"
 d="M45.406,0.687 C50.929,0.687 55.406,5.165 55.406,10.687 C55.406,16.210 50.929,20.687 45.406,20.687 C39.883,20.687 35.406,16.210 35.406,10.687 C35.406,5.165 39.883,0.687 45.406,0.687 Z"/>
<path fill-rule="evenodd"  fill="rgb(255, 255, 255)"
 d="M50.810,8.813 C49.872,9.430 48.934,10.046 47.997,10.663 L47.997,10.663 C46.897,11.355 45.783,12.022 44.707,12.750 C44.301,13.025 43.496,13.127 43.666,13.767 C43.824,14.357 44.566,14.478 45.149,14.584 C46.925,14.904 48.291,12.854 49.744,12.098 C50.449,13.094 51.155,14.090 51.860,15.086 C51.401,15.516 50.930,15.842 50.452,16.119 C49.131,17.286 47.401,18.000 45.500,18.000 C41.358,18.000 38.000,14.642 38.000,10.500 C38.000,6.358 41.358,3.000 45.500,3.000 C48.264,3.000 50.672,4.499 51.973,6.725 L51.846,6.713 C52.440,7.453 52.099,7.742 50.810,8.813 ZM47.379,7.458 C44.240,6.301 42.222,7.753 42.232,11.004 C43.940,9.827 45.554,8.715 47.379,7.458 Z"/>
</svg>