<svg 
 xmlns="http://www.w3.org/2000/svg"
 xmlns:xlink="http://www.w3.org/1999/xlink"
 width="243px" height="50px">
<path fill-rule="evenodd"  fill="rgb(255, 255, 255)"
 d="M237.281,14.637 C236.479,15.430 235.688,16.211 234.911,16.979 C234.133,17.748 233.374,18.479 232.634,19.175 C233.515,19.796 234.404,20.514 235.301,21.328 C236.197,22.143 237.082,23.025 237.953,23.975 C238.824,24.925 239.646,25.899 240.416,26.899 C241.187,27.899 241.843,28.839 242.386,29.720 L239.468,29.720 C238.883,28.735 238.204,27.770 237.433,26.823 C236.661,25.877 235.851,24.985 235.003,24.149 C234.155,23.314 233.307,22.551 232.459,21.862 C231.612,21.174 230.860,20.657 230.206,20.311 L230.206,29.720 L227.777,29.720 L227.777,1.100 L230.206,0.650 L230.206,18.695 C230.725,18.249 231.373,17.640 232.148,16.869 C232.923,16.099 233.714,15.323 234.518,14.544 C235.323,13.764 236.082,13.009 236.797,12.278 C237.512,11.547 238.112,10.905 238.597,10.353 L241.564,10.353 C240.992,10.953 240.336,11.619 239.596,12.350 C238.855,13.081 238.084,13.844 237.281,14.637 ZM213.599,25.730 C214.159,26.417 214.881,26.954 215.766,27.341 C216.649,27.729 217.727,27.922 218.997,27.922 C220.044,27.922 220.922,27.804 221.632,27.566 C222.341,27.329 222.858,27.123 223.182,26.948 L223.705,29.046 C223.257,29.296 222.553,29.539 221.594,29.776 C220.635,30.013 219.633,30.132 218.586,30.132 C217.092,30.132 215.771,29.894 214.626,29.420 C213.480,28.946 212.527,28.265 211.768,27.379 C211.008,26.492 210.429,25.431 210.030,24.194 C209.632,22.958 209.433,21.591 209.433,20.092 C209.433,18.569 209.638,17.183 210.049,15.934 C210.460,14.686 211.052,13.612 211.824,12.713 C212.596,11.814 213.530,11.121 214.626,10.634 C215.722,10.147 216.955,9.903 218.325,9.903 C219.371,9.903 220.348,9.991 221.258,10.165 C222.167,10.340 222.870,10.565 223.369,10.840 L222.734,12.937 C222.235,12.688 221.675,12.488 221.052,12.338 C220.430,12.188 219.595,12.113 218.549,12.113 C216.407,12.113 214.781,12.806 213.673,14.192 C212.565,15.578 212.011,17.545 212.011,20.092 C212.011,21.241 212.135,22.297 212.384,23.258 C212.633,24.220 213.038,25.044 213.599,25.730 ZM202.932,6.382 C202.433,6.382 202.010,6.213 201.661,5.876 C201.312,5.539 201.138,5.084 201.138,4.509 C201.138,3.935 201.312,3.479 201.661,3.142 C202.010,2.804 202.433,2.636 202.932,2.636 C203.430,2.636 203.853,2.804 204.202,3.142 C204.550,3.479 204.725,3.935 204.725,4.509 C204.725,5.084 204.550,5.539 204.202,5.876 C203.853,6.213 203.430,6.382 202.932,6.382 ZM194.955,29.739 C194.344,29.551 193.834,29.264 193.423,28.877 C193.012,28.490 192.701,27.991 192.489,27.379 C192.277,26.767 192.172,25.999 192.172,25.075 L192.172,1.100 L194.600,0.650 L194.600,25.000 C194.600,25.599 194.656,26.080 194.768,26.442 C194.880,26.804 195.049,27.092 195.273,27.304 C195.497,27.516 195.789,27.672 196.151,27.772 C196.512,27.872 196.941,27.959 197.440,28.034 L197.103,30.057 C196.281,30.032 195.565,29.926 194.955,29.739 ZM178.030,25.730 C178.591,26.417 179.313,26.954 180.197,27.341 C181.081,27.729 182.159,27.922 183.429,27.922 C184.475,27.922 185.353,27.804 186.063,27.566 C186.773,27.329 187.290,27.123 187.614,26.948 L188.137,29.046 C187.688,29.296 186.984,29.539 186.026,29.776 C185.067,30.013 184.064,30.132 183.018,30.132 C181.524,30.132 180.203,29.894 179.058,29.420 C177.912,28.946 176.959,28.265 176.199,27.379 C175.439,26.492 174.860,25.431 174.462,24.194 C174.063,22.958 173.864,21.591 173.864,20.092 C173.864,18.569 174.070,17.183 174.481,15.934 C174.892,14.686 175.483,13.612 176.256,12.713 C177.027,11.814 177.961,11.121 179.058,10.634 C180.153,10.147 181.386,9.903 182.757,9.903 C183.803,9.903 184.780,9.991 185.690,10.165 C186.599,10.340 187.302,10.565 187.801,10.840 L187.165,12.937 C186.667,12.688 186.106,12.488 185.484,12.338 C184.861,12.188 184.027,12.113 182.981,12.113 C180.838,12.113 179.213,12.806 178.105,14.192 C176.996,15.578 176.442,17.545 176.442,20.092 C176.442,21.241 176.567,22.297 176.816,23.258 C177.065,24.220 177.470,25.044 178.030,25.730 ZM167.214,30.169 C166.566,30.169 166.062,29.969 165.701,29.570 C165.340,29.171 165.159,28.684 165.159,28.109 C165.159,27.535 165.340,27.048 165.701,26.648 C166.062,26.249 166.566,26.049 167.214,26.049 C167.862,26.049 168.366,26.249 168.727,26.648 C169.088,27.048 169.269,27.535 169.269,28.109 C169.269,28.684 169.088,29.171 168.727,29.570 C168.366,29.969 167.862,30.169 167.214,30.169 ZM158.080,27.397 C157.295,28.272 156.367,28.952 155.296,29.439 C154.225,29.926 153.042,30.169 151.747,30.169 C150.451,30.169 149.268,29.926 148.197,29.439 C147.126,28.952 146.198,28.272 145.414,27.397 C144.629,26.523 144.019,25.462 143.583,24.213 C143.147,22.965 142.929,21.579 142.929,20.055 C142.929,18.532 143.147,17.146 143.583,15.897 C144.019,14.648 144.629,13.581 145.414,12.694 C146.198,11.808 147.126,11.121 148.197,10.634 C149.268,10.147 150.451,9.903 151.747,9.903 C153.042,9.903 154.225,10.147 155.296,10.634 C156.367,11.121 157.295,11.808 158.080,12.694 C158.864,13.581 159.474,14.648 159.910,15.897 C160.346,17.146 160.564,18.532 160.564,20.055 C160.564,21.579 160.346,22.965 159.910,24.213 C159.474,25.462 158.864,26.523 158.080,27.397 ZM156.305,14.267 C155.184,12.832 153.665,12.113 151.747,12.113 C149.828,12.113 148.309,12.832 147.189,14.267 C146.068,15.704 145.507,17.633 145.507,20.055 C145.507,22.478 146.068,24.400 147.189,25.824 C148.309,27.247 149.828,27.959 151.747,27.959 C153.665,27.959 155.184,27.247 156.305,25.824 C157.426,24.400 157.986,22.478 157.986,20.055 C157.986,17.633 157.426,15.704 156.305,14.267 ZM130.637,30.169 C129.217,30.169 127.928,29.938 126.770,29.476 C125.612,29.015 124.615,28.347 123.781,27.472 C122.946,26.598 122.299,25.537 121.838,24.288 C121.377,23.040 121.147,21.628 121.147,20.055 C121.147,18.582 121.340,17.227 121.726,15.991 C122.112,14.754 122.679,13.687 123.426,12.788 C124.174,11.889 125.089,11.190 126.172,10.690 C127.256,10.191 128.495,9.941 129.890,9.941 C131.160,9.941 132.263,10.122 133.197,10.484 C134.131,10.846 134.809,11.190 135.233,11.514 L135.233,1.100 L137.661,0.650 L137.661,29.121 C136.939,29.370 136.017,29.607 134.897,29.832 C133.776,30.057 132.356,30.169 130.637,30.169 ZM135.233,13.874 C135.009,13.700 134.728,13.512 134.392,13.312 C134.056,13.112 133.664,12.925 133.215,12.750 C132.767,12.576 132.281,12.432 131.758,12.319 C131.235,12.207 130.687,12.151 130.114,12.151 C128.919,12.151 127.916,12.363 127.106,12.788 C126.297,13.213 125.643,13.780 125.145,14.492 C124.646,15.204 124.286,16.041 124.061,17.002 C123.837,17.964 123.725,18.982 123.725,20.055 C123.725,22.602 124.360,24.557 125.631,25.918 C126.901,27.279 128.582,27.959 130.675,27.959 C131.870,27.959 132.835,27.903 133.570,27.791 C134.305,27.678 134.859,27.560 135.233,27.435 L135.233,13.874 ZM115.524,29.739 C114.914,29.551 114.404,29.264 113.993,28.877 C113.582,28.490 113.270,27.991 113.059,27.379 C112.847,26.767 112.741,25.999 112.741,25.075 L112.741,1.100 L115.170,0.650 L115.170,25.000 C115.170,25.599 115.226,26.080 115.338,26.442 C115.450,26.804 115.618,27.092 115.842,27.304 C116.066,27.516 116.359,27.672 116.720,27.772 C117.081,27.872 117.511,27.959 118.009,28.034 L117.673,30.057 C116.851,30.032 116.135,29.926 115.524,29.739 ZM105.119,6.382 C104.621,6.382 104.197,6.213 103.849,5.876 C103.500,5.539 103.326,5.084 103.326,4.509 C103.326,3.935 103.500,3.479 103.849,3.142 C104.197,2.804 104.621,2.636 105.119,2.636 C105.617,2.636 106.040,2.804 106.389,3.142 C106.738,3.479 106.912,3.935 106.912,4.509 C106.912,5.084 106.738,5.539 106.389,5.876 C106.040,6.213 105.617,6.382 105.119,6.382 ZM93.439,29.720 L91.188,29.720 C90.810,28.838 90.414,27.854 90.000,26.769 C89.586,25.683 89.159,24.523 88.720,23.288 C88.281,22.053 87.856,20.756 87.446,19.396 C87.035,18.036 86.643,16.645 86.270,15.223 C85.897,16.648 85.507,18.043 85.098,19.405 C84.688,20.769 84.265,22.068 83.829,23.304 C83.391,24.540 82.967,25.700 82.555,26.787 C82.143,27.873 81.751,28.851 81.379,29.720 L79.044,29.720 C77.766,26.900 76.599,23.916 75.541,20.769 C74.483,17.622 73.507,14.150 72.614,10.353 L75.192,10.353 C75.467,11.676 75.811,13.105 76.223,14.641 C76.636,16.176 77.080,17.699 77.556,19.209 C78.031,20.719 78.512,22.149 78.999,23.499 C79.486,24.849 79.942,25.998 80.367,26.948 C80.844,25.705 81.322,24.370 81.801,22.944 C82.280,21.518 82.730,20.081 83.151,18.632 C83.572,17.182 83.969,15.752 84.340,14.340 C84.711,12.929 85.045,11.599 85.341,10.353 L87.433,10.353 C87.656,11.601 87.948,12.930 88.308,14.341 C88.668,15.752 89.064,17.188 89.498,18.648 C89.932,20.108 90.393,21.551 90.880,22.975 C91.366,24.399 91.860,25.736 92.360,26.985 C92.785,26.037 93.235,24.883 93.710,23.524 C94.185,22.164 94.660,20.729 95.135,19.220 C95.610,17.711 96.053,16.187 96.465,14.648 C96.877,13.110 97.221,11.678 97.496,10.353 L99.889,10.353 C98.990,14.157 98.009,17.631 96.946,20.774 C95.884,23.919 94.714,26.900 93.439,29.720 ZM106.352,29.720 L103.923,29.720 L103.923,10.353 L106.352,10.353 L106.352,29.720 ZM204.165,29.720 L201.736,29.720 L201.736,10.353 L204.165,10.353 L204.165,29.720 Z"/>
<path fill-rule="evenodd"  fill="rgb(255, 255, 255)"
 d="M214.701,46.414 C214.497,46.452 214.260,46.492 213.992,46.535 C213.723,46.578 213.425,46.613 213.098,46.640 C212.770,46.667 212.435,46.680 212.091,46.680 C211.650,46.680 211.245,46.632 210.875,46.535 C210.504,46.438 210.182,46.285 209.908,46.075 C209.634,45.865 209.419,45.596 209.263,45.267 C209.108,44.939 209.030,44.537 209.030,44.063 C209.030,43.611 209.116,43.224 209.288,42.900 C209.459,42.577 209.701,42.311 210.013,42.101 C210.324,41.891 210.695,41.737 211.124,41.640 C211.554,41.544 212.021,41.495 212.526,41.495 C212.676,41.495 212.835,41.503 213.001,41.519 C213.168,41.535 213.329,41.557 213.485,41.584 C213.640,41.611 213.775,41.638 213.887,41.665 C214.000,41.692 214.078,41.716 214.121,41.737 L214.121,41.221 C214.121,40.930 214.099,40.647 214.056,40.372 C214.013,40.098 213.920,39.850 213.775,39.629 C213.630,39.409 213.425,39.231 213.162,39.096 C212.899,38.962 212.553,38.894 212.123,38.894 C211.511,38.894 211.054,38.938 210.754,39.024 C210.453,39.110 210.233,39.180 210.093,39.234 L209.948,38.313 C210.131,38.227 210.413,38.146 210.794,38.071 C211.175,37.995 211.634,37.958 212.172,37.958 C212.719,37.958 213.184,38.036 213.565,38.192 C213.946,38.348 214.255,38.563 214.491,38.838 C214.728,39.112 214.900,39.438 215.007,39.815 C215.114,40.192 215.168,40.601 215.168,41.043 L215.168,46.309 C215.061,46.341 214.905,46.376 214.701,46.414 ZM214.121,42.658 C214.003,42.604 213.815,42.548 213.557,42.489 C213.299,42.429 212.945,42.400 212.494,42.400 C212.236,42.400 211.967,42.419 211.688,42.456 C211.409,42.494 211.151,42.575 210.915,42.699 C210.678,42.822 210.485,42.992 210.335,43.207 C210.184,43.423 210.109,43.708 210.109,44.063 C210.109,44.376 210.160,44.640 210.262,44.855 C210.364,45.071 210.509,45.243 210.697,45.372 C210.885,45.501 211.111,45.596 211.374,45.655 C211.637,45.714 211.935,45.743 212.268,45.743 C212.676,45.743 213.033,45.730 213.340,45.703 C213.646,45.676 213.906,45.641 214.121,45.598 L214.121,42.658 ZM206.074,44.051 C206.455,44.456 206.809,44.871 207.137,45.297 C207.464,45.723 207.741,46.125 207.967,46.503 L206.726,46.503 C206.468,46.103 206.165,45.699 205.816,45.289 C205.467,44.879 205.101,44.488 204.720,44.115 C204.339,43.743 203.958,43.406 203.576,43.104 C203.195,42.802 202.849,42.559 202.537,42.375 L202.537,46.503 L201.490,46.503 L201.490,38.151 L202.537,38.151 L202.537,42.004 C202.838,41.714 203.174,41.389 203.544,41.029 C203.915,40.669 204.277,40.309 204.632,39.949 C204.986,39.589 205.316,39.250 205.622,38.933 C205.929,38.616 206.173,38.356 206.356,38.151 L207.612,38.151 C207.365,38.431 207.070,38.745 206.726,39.095 C206.382,39.444 206.031,39.796 205.671,40.150 C205.311,40.505 204.962,40.849 204.624,41.182 C204.285,41.515 203.987,41.800 203.729,42.036 C204.094,42.274 204.481,42.568 204.889,42.918 C205.297,43.269 205.692,43.647 206.074,44.051 ZM198.236,45.477 C197.914,45.859 197.519,46.158 197.052,46.373 C196.584,46.589 196.050,46.696 195.449,46.696 C194.901,46.696 194.426,46.618 194.023,46.462 C193.620,46.306 193.327,46.158 193.145,46.018 L193.145,49.491 L192.097,49.491 L192.097,38.442 C192.409,38.335 192.806,38.232 193.290,38.135 C193.773,38.038 194.385,37.990 195.126,37.990 C195.739,37.990 196.294,38.090 196.794,38.289 C197.293,38.488 197.723,38.776 198.083,39.153 C198.442,39.530 198.722,39.988 198.920,40.526 C199.119,41.065 199.219,41.673 199.219,42.351 C199.219,42.987 199.135,43.571 198.969,44.104 C198.802,44.637 198.558,45.095 198.236,45.477 ZM197.285,39.823 C196.737,39.236 196.012,38.943 195.110,38.943 C194.595,38.943 194.178,38.967 193.862,39.016 C193.545,39.064 193.306,39.115 193.145,39.169 L193.145,45.000 C193.241,45.076 193.362,45.157 193.507,45.243 C193.652,45.329 193.821,45.410 194.015,45.485 C194.208,45.560 194.417,45.622 194.643,45.671 C194.869,45.719 195.105,45.743 195.352,45.743 C195.867,45.743 196.300,45.655 196.649,45.477 C196.998,45.299 197.280,45.057 197.495,44.750 C197.709,44.443 197.865,44.082 197.962,43.668 C198.059,43.253 198.107,42.814 198.107,42.351 C198.107,41.253 197.833,40.410 197.285,39.823 ZM189.729,42.545 L183.881,42.545 C183.913,43.568 184.166,44.354 184.638,44.903 C185.111,45.453 185.863,45.727 186.894,45.727 C187.463,45.727 187.914,45.674 188.247,45.566 C188.580,45.458 188.822,45.367 188.972,45.291 L189.165,46.196 C189.015,46.282 188.733,46.384 188.320,46.503 C187.906,46.621 187.420,46.680 186.862,46.680 C186.131,46.680 185.508,46.573 184.993,46.357 C184.477,46.142 184.053,45.840 183.720,45.453 C183.387,45.065 183.145,44.605 182.995,44.072 C182.844,43.538 182.769,42.954 182.769,42.319 C182.769,41.587 182.874,40.949 183.084,40.405 C183.293,39.861 183.567,39.406 183.905,39.040 C184.244,38.674 184.630,38.402 185.065,38.224 C185.500,38.046 185.949,37.958 186.411,37.958 C187.431,37.958 188.244,38.291 188.851,38.959 C189.458,39.627 189.762,40.655 189.762,42.044 C189.762,42.131 189.759,42.217 189.754,42.303 C189.748,42.389 189.740,42.470 189.729,42.545 ZM188.070,39.621 C187.683,39.137 187.136,38.894 186.427,38.894 C186.051,38.894 185.715,38.970 185.420,39.121 C185.124,39.272 184.866,39.473 184.646,39.726 C184.426,39.979 184.254,40.273 184.131,40.607 C184.007,40.941 183.935,41.291 183.913,41.657 L188.682,41.657 C188.661,40.784 188.457,40.106 188.070,39.621 ZM179.451,42.610 L174.924,42.610 L174.924,46.503 L173.876,46.503 L173.876,38.151 L174.924,38.151 L174.924,41.721 L179.451,41.721 L179.451,38.151 L180.498,38.151 L180.498,46.503 L179.451,46.503 L179.451,42.610 ZM169.510,46.503 L168.463,46.503 L168.463,39.040 L165.741,39.040 L165.741,38.151 L172.249,38.151 L172.249,39.040 L169.510,39.040 L169.510,46.503 ZM163.630,45.477 C163.308,45.859 162.913,46.158 162.446,46.373 C161.979,46.589 161.444,46.696 160.843,46.696 C160.295,46.696 159.820,46.618 159.417,46.462 C159.014,46.306 158.722,46.158 158.539,46.018 L158.539,49.491 L157.492,49.491 L157.492,38.442 C157.803,38.335 158.201,38.232 158.684,38.135 C159.167,38.038 159.780,37.990 160.521,37.990 C161.133,37.990 161.689,38.090 162.188,38.289 C162.688,38.488 163.117,38.776 163.477,39.153 C163.837,39.530 164.116,39.988 164.315,40.526 C164.513,41.065 164.613,41.673 164.613,42.351 C164.613,42.987 164.530,43.571 164.363,44.104 C164.196,44.637 163.952,45.095 163.630,45.477 ZM162.680,39.823 C162.132,39.236 161.407,38.943 160.505,38.943 C159.989,38.943 159.573,38.967 159.256,39.016 C158.939,39.064 158.700,39.115 158.539,39.169 L158.539,45.000 C158.636,45.076 158.757,45.157 158.902,45.243 C159.047,45.329 159.216,45.410 159.409,45.485 C159.602,45.560 159.812,45.622 160.037,45.671 C160.263,45.719 160.499,45.743 160.746,45.743 C161.262,45.743 161.694,45.655 162.043,45.477 C162.392,45.299 162.674,45.057 162.889,44.750 C163.104,44.443 163.260,44.082 163.356,43.668 C163.453,43.253 163.501,42.814 163.501,42.351 C163.501,41.253 163.227,40.410 162.680,39.823 ZM153.642,46.535 C153.373,46.578 153.075,46.613 152.747,46.640 C152.420,46.667 152.084,46.680 151.740,46.680 C151.300,46.680 150.895,46.632 150.524,46.535 C150.154,46.438 149.831,46.285 149.557,46.075 C149.284,45.865 149.069,45.596 148.913,45.267 C148.757,44.939 148.679,44.537 148.679,44.063 C148.679,43.611 148.765,43.224 148.937,42.900 C149.109,42.577 149.351,42.311 149.662,42.101 C149.974,41.891 150.344,41.737 150.774,41.640 C151.203,41.544 151.670,41.495 152.175,41.495 C152.326,41.495 152.484,41.503 152.651,41.519 C152.817,41.535 152.978,41.557 153.134,41.584 C153.290,41.611 153.424,41.638 153.537,41.665 C153.650,41.692 153.727,41.716 153.770,41.737 L153.770,41.221 C153.770,40.930 153.749,40.647 153.706,40.372 C153.663,40.098 153.569,39.850 153.424,39.629 C153.279,39.409 153.075,39.231 152.812,39.096 C152.549,38.962 152.202,38.894 151.773,38.894 C151.160,38.894 150.704,38.938 150.403,39.024 C150.102,39.110 149.882,39.180 149.743,39.234 L149.598,38.313 C149.780,38.227 150.062,38.146 150.444,38.071 C150.825,37.995 151.284,37.958 151.821,37.958 C152.369,37.958 152.833,38.036 153.215,38.192 C153.596,38.348 153.905,38.563 154.141,38.838 C154.377,39.112 154.549,39.438 154.657,39.815 C154.764,40.192 154.818,40.601 154.818,41.043 L154.818,46.309 C154.710,46.341 154.554,46.376 154.350,46.414 C154.146,46.452 153.910,46.492 153.642,46.535 ZM153.770,42.658 C153.652,42.604 153.464,42.548 153.207,42.489 C152.949,42.429 152.594,42.400 152.143,42.400 C151.885,42.400 151.617,42.419 151.338,42.456 C151.058,42.494 150.800,42.575 150.564,42.699 C150.328,42.822 150.135,42.992 149.984,43.207 C149.834,43.423 149.759,43.708 149.759,44.063 C149.759,44.376 149.810,44.640 149.912,44.855 C150.014,45.071 150.159,45.243 150.347,45.372 C150.535,45.501 150.760,45.596 151.024,45.655 C151.287,45.714 151.585,45.743 151.918,45.743 C152.326,45.743 152.683,45.730 152.989,45.703 C153.295,45.676 153.555,45.641 153.770,45.598 L153.770,42.658 ZM145.473,39.040 L141.139,39.040 L141.139,46.503 L140.092,46.503 L140.092,38.151 L146.521,38.151 L146.521,46.503 L145.473,46.503 L145.473,39.040 ZM132.832,44.025 C133.208,44.435 133.562,44.855 133.894,45.286 C134.227,45.717 134.509,46.123 134.744,46.503 L133.485,46.503 C133.233,46.078 132.940,45.662 132.608,45.254 C132.275,44.845 131.925,44.461 131.560,44.101 C131.194,43.740 130.829,43.411 130.463,43.114 C130.098,42.818 129.774,42.595 129.491,42.446 L129.491,46.503 L128.444,46.503 L128.444,34.162 L129.491,33.968 L129.491,41.749 C129.715,41.556 129.995,41.294 130.329,40.961 C130.663,40.629 131.004,40.295 131.351,39.959 C131.698,39.622 132.025,39.297 132.334,38.982 C132.642,38.666 132.901,38.390 133.110,38.151 L134.389,38.151 C134.142,38.410 133.860,38.697 133.540,39.013 C133.221,39.328 132.889,39.657 132.542,39.999 C132.196,40.341 131.855,40.677 131.520,41.009 C131.185,41.340 130.858,41.656 130.539,41.955 C130.918,42.224 131.302,42.533 131.688,42.884 C132.075,43.235 132.456,43.616 132.832,44.025 ZM122.330,44.782 C122.572,45.079 122.883,45.310 123.265,45.477 C123.646,45.644 124.111,45.727 124.658,45.727 C125.109,45.727 125.488,45.676 125.794,45.574 C126.100,45.472 126.323,45.383 126.463,45.307 L126.688,46.212 C126.495,46.320 126.191,46.425 125.778,46.527 C125.364,46.629 124.932,46.680 124.481,46.680 C123.837,46.680 123.267,46.578 122.773,46.373 C122.279,46.169 121.868,45.875 121.541,45.493 C121.213,45.111 120.963,44.653 120.792,44.120 C120.620,43.587 120.534,42.997 120.534,42.351 C120.534,41.694 120.623,41.097 120.800,40.558 C120.977,40.020 121.232,39.557 121.565,39.169 C121.898,38.781 122.301,38.483 122.773,38.273 C123.246,38.063 123.778,37.958 124.368,37.958 C124.819,37.958 125.241,37.995 125.633,38.071 C126.025,38.146 126.328,38.243 126.543,38.361 L126.269,39.266 C126.054,39.158 125.813,39.072 125.544,39.008 C125.276,38.943 124.916,38.911 124.465,38.911 C123.541,38.911 122.840,39.209 122.363,39.807 C121.884,40.405 121.646,41.253 121.646,42.351 C121.646,42.847 121.699,43.302 121.807,43.716 C121.914,44.131 122.089,44.486 122.330,44.782 ZM117.731,36.439 C117.516,36.439 117.333,36.366 117.183,36.221 C117.032,36.076 116.957,35.879 116.957,35.631 C116.957,35.384 117.032,35.187 117.183,35.042 C117.333,34.896 117.516,34.824 117.731,34.824 C117.945,34.824 118.128,34.896 118.278,35.042 C118.429,35.187 118.504,35.384 118.504,35.631 C118.504,35.879 118.429,36.076 118.278,36.221 C118.128,36.366 117.945,36.439 117.731,36.439 ZM114.291,46.511 C114.028,46.430 113.808,46.306 113.631,46.139 C113.453,45.972 113.319,45.757 113.228,45.493 C113.136,45.229 113.091,44.898 113.091,44.500 L113.091,34.162 L114.138,33.968 L114.138,44.467 C114.138,44.726 114.162,44.933 114.211,45.089 C114.259,45.245 114.331,45.369 114.428,45.461 C114.525,45.552 114.651,45.620 114.807,45.663 C114.962,45.706 115.148,45.743 115.363,45.776 L115.218,46.648 C114.863,46.637 114.554,46.591 114.291,46.511 ZM106.993,44.782 C107.235,45.079 107.546,45.310 107.927,45.477 C108.309,45.644 108.773,45.727 109.321,45.727 C109.772,45.727 110.151,45.676 110.457,45.574 C110.763,45.472 110.986,45.383 111.126,45.307 L111.351,46.212 C111.158,46.320 110.854,46.425 110.441,46.527 C110.027,46.629 109.595,46.680 109.144,46.680 C108.499,46.680 107.930,46.578 107.436,46.373 C106.942,46.169 106.531,45.875 106.204,45.493 C105.876,45.111 105.626,44.653 105.454,44.120 C105.283,43.587 105.197,42.997 105.197,42.351 C105.197,41.694 105.285,41.097 105.463,40.558 C105.640,40.020 105.895,39.557 106.228,39.169 C106.561,38.781 106.963,38.483 107.436,38.273 C107.909,38.063 108.440,37.958 109.031,37.958 C109.482,37.958 109.904,37.995 110.296,38.071 C110.688,38.146 110.991,38.243 111.206,38.361 L110.932,39.266 C110.717,39.158 110.476,39.072 110.207,39.008 C109.939,38.943 109.579,38.911 109.128,38.911 C108.204,38.911 107.503,39.209 107.025,39.807 C106.547,40.405 106.308,41.253 106.308,42.351 C106.308,42.847 106.362,43.302 106.469,43.716 C106.577,44.131 106.751,44.486 106.993,44.782 ZM102.442,45.477 C102.120,45.859 101.725,46.158 101.258,46.373 C100.790,46.589 100.256,46.696 99.655,46.696 C99.107,46.696 98.632,46.618 98.229,46.462 C97.826,46.306 97.533,46.158 97.351,46.018 L97.351,49.491 L96.304,49.491 L96.304,38.442 C96.615,38.335 97.012,38.232 97.496,38.135 C97.979,38.038 98.591,37.990 99.332,37.990 C99.945,37.990 100.500,38.090 101.000,38.289 C101.499,38.488 101.929,38.776 102.289,39.153 C102.649,39.530 102.928,39.988 103.127,40.526 C103.325,41.065 103.425,41.673 103.425,42.351 C103.425,42.987 103.341,43.571 103.175,44.104 C103.008,44.637 102.764,45.095 102.442,45.477 ZM101.491,39.823 C100.944,39.236 100.219,38.943 99.316,38.943 C98.801,38.943 98.384,38.967 98.068,39.016 C97.751,39.064 97.512,39.115 97.351,39.169 L97.351,45.000 C97.447,45.076 97.568,45.157 97.713,45.243 C97.858,45.329 98.027,45.410 98.221,45.485 C98.414,45.560 98.624,45.622 98.849,45.671 C99.075,45.719 99.311,45.743 99.558,45.743 C100.074,45.743 100.506,45.655 100.855,45.477 C101.204,45.299 101.486,45.057 101.701,44.750 C101.915,44.443 102.071,44.082 102.168,43.668 C102.265,43.253 102.313,42.814 102.313,42.351 C102.313,41.253 102.039,40.410 101.491,39.823 ZM92.453,46.535 C92.185,46.578 91.887,46.613 91.559,46.640 C91.231,46.667 90.896,46.680 90.552,46.680 C90.112,46.680 89.706,46.632 89.336,46.535 C88.965,46.438 88.643,46.285 88.369,46.075 C88.095,45.865 87.880,45.596 87.725,45.267 C87.569,44.939 87.491,44.537 87.491,44.063 C87.491,43.611 87.577,43.224 87.749,42.900 C87.921,42.577 88.162,42.311 88.474,42.101 C88.785,41.891 89.156,41.737 89.586,41.640 C90.015,41.544 90.482,41.495 90.987,41.495 C91.137,41.495 91.296,41.503 91.462,41.519 C91.629,41.535 91.790,41.557 91.946,41.584 C92.101,41.611 92.236,41.638 92.349,41.665 C92.461,41.692 92.539,41.716 92.582,41.737 L92.582,41.221 C92.582,40.930 92.561,40.647 92.518,40.372 C92.475,40.098 92.381,39.850 92.236,39.629 C92.091,39.409 91.887,39.231 91.624,39.096 C91.360,38.962 91.014,38.894 90.584,38.894 C89.972,38.894 89.516,38.938 89.215,39.024 C88.914,39.110 88.694,39.180 88.554,39.234 L88.409,38.313 C88.592,38.227 88.874,38.146 89.255,38.071 C89.636,37.995 90.096,37.958 90.633,37.958 C91.181,37.958 91.645,38.036 92.026,38.192 C92.407,38.348 92.716,38.563 92.953,38.838 C93.189,39.112 93.361,39.438 93.468,39.815 C93.576,40.192 93.629,40.601 93.629,41.043 L93.629,46.309 C93.522,46.341 93.366,46.376 93.162,46.414 C92.958,46.452 92.722,46.492 92.453,46.535 ZM92.582,42.658 C92.464,42.604 92.276,42.548 92.018,42.489 C91.761,42.429 91.406,42.400 90.955,42.400 C90.697,42.400 90.429,42.419 90.149,42.456 C89.870,42.494 89.612,42.575 89.376,42.699 C89.140,42.822 88.946,42.992 88.796,43.207 C88.646,43.423 88.571,43.708 88.571,44.063 C88.571,44.376 88.621,44.640 88.724,44.855 C88.826,45.071 88.971,45.243 89.159,45.372 C89.346,45.501 89.572,45.596 89.835,45.655 C90.098,45.714 90.396,45.743 90.729,45.743 C91.137,45.743 91.495,45.730 91.801,45.703 C92.107,45.676 92.367,45.641 92.582,45.598 L92.582,42.658 ZM83.583,46.503 L82.612,46.503 C82.449,46.122 82.278,45.698 82.100,45.230 C81.921,44.762 81.737,44.262 81.548,43.729 C81.358,43.196 81.175,42.637 80.998,42.051 C80.821,41.465 80.652,40.865 80.491,40.251 C80.330,40.866 80.162,41.467 79.986,42.055 C79.809,42.643 79.627,43.203 79.438,43.736 C79.250,44.269 79.067,44.769 78.889,45.238 C78.711,45.706 78.542,46.128 78.382,46.503 L77.375,46.503 C76.824,45.287 76.321,44.000 75.865,42.643 C75.408,41.286 74.988,39.789 74.602,38.151 L75.714,38.151 C75.833,38.722 75.981,39.338 76.159,40.000 C76.337,40.662 76.529,41.319 76.733,41.970 C76.938,42.622 77.146,43.238 77.356,43.820 C77.566,44.402 77.762,44.898 77.946,45.307 C78.151,44.771 78.357,44.196 78.564,43.581 C78.770,42.966 78.965,42.346 79.146,41.721 C79.328,41.096 79.499,40.480 79.659,39.871 C79.819,39.262 79.963,38.689 80.090,38.151 L80.993,38.151 C81.089,38.690 81.215,39.263 81.370,39.871 C81.525,40.479 81.696,41.099 81.883,41.728 C82.070,42.358 82.269,42.980 82.479,43.594 C82.689,44.208 82.902,44.785 83.117,45.323 C83.300,44.915 83.494,44.417 83.699,43.831 C83.904,43.244 84.109,42.626 84.314,41.975 C84.519,41.324 84.710,40.667 84.887,40.004 C85.065,39.340 85.213,38.723 85.332,38.151 L86.363,38.151 C85.976,39.792 85.553,41.290 85.095,42.645 C84.637,44.001 84.132,45.287 83.583,46.503 ZM118.262,46.503 L117.215,46.503 L117.215,38.151 L118.262,38.151 L118.262,46.503 Z"/>
<path fill-rule="evenodd"  fill="rgb(255, 255, 255)"
 d="M68.959,11.470 C68.404,11.531 67.834,11.459 67.291,11.620 C65.808,11.934 64.570,12.895 63.566,13.985 C62.708,14.943 61.887,15.942 61.220,17.043 C60.142,18.780 59.420,20.702 58.761,22.626 C57.066,27.762 55.471,32.932 53.745,38.058 C53.252,39.553 52.744,41.050 52.035,42.459 C51.131,44.278 49.923,45.966 48.360,47.280 C47.119,48.261 45.579,48.923 43.977,48.903 C42.541,48.955 41.137,48.429 39.972,47.616 C38.414,46.508 37.233,44.943 36.358,43.262 C35.979,42.534 35.600,41.802 35.313,41.033 C35.102,40.487 35.095,39.890 35.151,39.314 C35.228,38.648 35.570,38.058 35.770,37.426 C35.964,36.861 36.099,36.275 36.340,35.727 C36.780,37.160 37.049,38.643 37.529,40.066 C38.058,41.588 38.940,43.003 40.160,44.073 C41.130,44.992 42.445,45.580 43.796,45.560 C45.170,45.616 46.535,45.090 47.578,44.214 C49.684,42.291 50.957,39.634 51.714,36.928 C52.868,32.898 53.841,28.820 54.848,24.753 C55.709,21.313 56.427,17.785 58.060,14.604 C58.722,13.254 59.602,11.996 60.722,10.981 C61.766,10.079 63.065,9.321 64.493,9.370 C65.697,9.375 66.755,10.010 67.781,10.559 C68.190,10.794 68.626,10.987 69.000,11.277 C68.989,11.325 68.969,11.421 68.959,11.470 ZM60.822,9.662 C59.571,10.578 58.675,11.873 57.880,13.180 C56.025,16.349 55.242,19.972 54.386,23.499 C53.864,25.686 53.374,27.881 52.853,30.068 C52.056,33.426 51.295,36.847 49.662,39.923 C49.000,41.151 48.298,42.407 47.217,43.325 C46.255,44.150 44.987,44.666 43.704,44.587 C42.240,44.573 40.912,43.739 39.982,42.659 C39.019,41.594 38.378,40.280 37.976,38.912 C37.663,37.882 37.362,36.847 37.017,35.827 C36.572,34.372 37.189,32.902 37.697,31.552 C38.003,30.815 38.121,30.010 38.510,29.308 C39.167,31.818 39.747,34.349 40.379,36.864 C40.562,37.680 40.813,38.513 41.360,39.167 C41.838,39.731 42.420,40.267 43.156,40.456 C44.167,40.731 45.305,40.414 46.049,39.686 C46.433,39.303 46.665,38.806 46.907,38.330 C47.663,36.869 48.326,35.354 48.793,33.776 C49.823,30.027 50.689,26.236 51.625,22.462 C52.525,18.760 53.459,15.053 54.809,11.482 C55.222,10.399 55.577,9.271 56.271,8.325 C57.276,6.828 58.947,5.759 60.758,5.585 C61.757,5.485 62.744,5.785 63.637,6.210 C64.825,6.749 65.838,7.588 66.786,8.468 C66.979,8.654 67.149,8.864 67.323,9.069 C66.551,8.762 65.759,8.475 64.923,8.426 C63.462,8.314 61.989,8.795 60.822,9.662 ZM60.311,4.490 C58.820,4.662 57.548,5.583 56.515,6.613 C55.237,7.912 54.372,9.568 53.860,11.303 C53.409,12.822 53.012,14.357 52.596,15.886 C51.537,19.943 50.474,23.999 49.478,28.072 C48.629,31.522 47.695,34.996 46.004,38.145 C45.615,38.827 44.964,39.436 44.143,39.492 C43.235,39.535 42.439,38.954 41.898,38.278 C41.144,37.382 40.940,36.196 40.711,35.087 C40.275,33.323 39.800,31.569 39.401,29.795 C39.277,29.229 39.100,28.659 39.156,28.073 C39.208,27.342 39.568,26.687 39.884,26.040 C40.193,25.449 40.486,24.850 40.824,24.273 C40.980,25.410 41.032,26.558 41.193,27.695 C41.518,29.825 41.849,31.953 42.237,34.072 C42.345,34.654 42.415,35.247 42.586,35.816 C42.709,36.224 42.951,36.641 43.368,36.805 C43.784,36.964 44.310,36.928 44.645,36.611 C45.067,36.230 45.296,35.694 45.544,35.194 C46.256,33.750 46.714,32.201 47.121,30.650 C48.146,26.650 48.713,22.549 49.083,18.443 C49.259,16.211 49.466,13.978 49.841,11.769 C50.084,10.174 50.394,8.570 51.026,7.076 C51.673,5.463 52.634,3.972 53.862,2.736 C54.773,1.809 55.967,1.064 57.299,1.001 C58.384,0.989 59.391,1.447 60.370,1.859 C61.342,2.270 62.133,2.980 62.949,3.628 C63.343,3.936 63.699,4.290 64.081,4.615 C64.416,4.920 64.783,5.208 65.010,5.610 C64.371,5.502 63.803,5.178 63.191,4.983 C62.270,4.663 61.301,4.352 60.311,4.490 ZM43.357,19.416 C42.273,20.410 41.360,21.576 40.555,22.800 C38.644,25.774 37.668,29.198 36.550,32.514 C36.026,34.168 35.478,35.814 34.938,37.463 C34.313,39.313 33.715,41.178 32.884,42.949 C32.175,44.398 31.290,45.785 30.102,46.892 C28.904,47.988 27.389,48.773 25.765,48.971 C24.992,49.015 24.201,49.039 23.449,48.829 C22.249,48.494 21.129,47.878 20.201,47.049 C19.042,46.079 18.227,44.780 17.487,43.482 C15.478,39.784 14.312,35.719 13.032,31.733 C11.866,28.128 10.749,24.508 9.505,20.929 C8.636,18.232 7.125,15.729 5.064,13.769 C4.267,13.054 3.442,12.290 2.381,12.001 C1.610,11.739 0.787,11.749 0.000,11.569 C0.611,10.922 1.407,10.484 2.203,10.104 C3.076,9.722 4.031,9.468 4.991,9.539 C6.042,9.605 7.022,10.098 7.826,10.754 C9.601,12.193 10.851,14.182 11.698,16.279 C12.519,18.317 12.955,20.477 13.509,22.595 C14.425,26.345 15.278,30.112 16.237,33.852 C17.067,37.014 18.161,40.170 20.052,42.872 C20.763,43.900 21.714,44.797 22.893,45.262 C24.179,45.794 25.676,45.879 26.985,45.375 C28.442,44.802 29.620,43.665 30.437,42.353 C31.177,41.197 31.635,39.887 31.959,38.561 C32.467,36.535 32.974,34.509 33.466,32.478 C34.380,28.844 35.117,25.131 36.678,21.699 C37.388,20.146 38.223,18.601 39.483,17.419 C40.420,16.504 41.579,15.711 42.913,15.558 C44.064,15.378 45.230,15.729 46.232,16.282 C46.824,16.617 47.412,16.969 47.936,17.404 C47.409,17.632 46.837,17.704 46.290,17.864 C45.210,18.146 44.183,18.662 43.357,19.416 ZM40.059,15.695 C38.787,16.642 37.791,17.908 36.981,19.258 C35.328,22.002 34.619,25.158 33.814,28.219 C33.261,30.387 32.722,32.558 32.178,34.727 C31.689,36.486 31.261,38.265 30.628,39.980 C30.348,40.726 30.069,41.485 29.594,42.135 C28.837,43.252 27.700,44.101 26.425,44.545 C25.054,45.000 23.500,44.697 22.332,43.875 C21.326,43.228 20.645,42.223 19.995,41.248 C18.927,39.573 18.171,37.715 17.614,35.815 C16.591,32.087 15.748,28.314 14.839,24.558 C14.295,22.305 13.773,20.042 13.057,17.835 C12.459,15.965 11.655,14.153 10.603,12.490 C10.059,11.695 9.482,10.906 8.729,10.293 C7.543,9.237 5.993,8.472 4.367,8.581 C3.363,8.580 2.430,8.960 1.510,9.312 C1.871,8.852 2.310,8.461 2.753,8.081 C3.791,7.169 4.983,6.415 6.293,5.954 C6.821,5.773 7.368,5.628 7.927,5.599 C9.277,5.607 10.532,6.284 11.484,7.201 C13.060,8.579 14.035,10.507 14.618,12.485 C15.144,14.334 15.625,16.195 16.118,18.053 C17.528,23.586 19.010,29.100 20.546,34.599 C20.850,35.605 21.035,36.659 21.528,37.598 C22.105,38.712 22.719,39.997 23.977,40.471 C24.975,40.847 26.163,40.652 27.002,39.999 C27.664,39.495 28.055,38.731 28.321,37.961 C28.709,36.816 28.953,35.630 29.252,34.461 C30.629,29.137 31.666,23.716 33.476,18.511 C33.971,17.024 34.588,15.547 35.556,14.297 C36.437,13.269 37.475,12.285 38.790,11.850 C39.314,11.661 39.877,11.645 40.429,11.663 C41.058,11.667 41.655,11.894 42.228,12.131 C43.806,12.784 45.181,13.848 46.358,15.071 C45.350,14.950 44.381,14.557 43.354,14.588 C42.168,14.565 41.010,15.008 40.059,15.695 ZM37.846,11.101 C36.787,11.563 35.957,12.393 35.199,13.239 C33.905,14.740 33.122,16.597 32.558,18.476 C32.024,20.265 31.570,22.076 31.086,23.878 C30.062,27.864 29.009,31.843 28.107,35.858 C27.915,36.651 27.753,37.479 27.292,38.170 C26.915,38.728 26.400,39.213 25.775,39.485 C25.208,39.734 24.518,39.655 24.016,39.293 C22.734,38.445 22.050,36.983 21.616,35.560 C20.500,31.770 19.533,27.938 18.534,24.116 C18.044,22.253 17.576,20.384 17.153,18.505 C16.570,15.799 15.855,13.109 14.787,10.548 C14.237,9.210 13.579,7.885 12.585,6.813 C11.610,5.766 10.339,4.933 8.907,4.687 C7.957,4.501 6.977,4.657 6.061,4.935 C5.238,5.201 4.502,5.666 3.723,6.032 C4.481,5.060 5.395,4.218 6.341,3.432 C7.437,2.529 8.689,1.790 10.063,1.396 C10.769,1.182 11.520,1.201 12.248,1.260 C13.250,1.434 14.179,1.946 14.904,2.651 C15.414,3.147 15.913,3.665 16.303,4.263 C17.726,6.324 18.635,8.713 19.081,11.167 C19.503,13.280 19.587,15.439 19.814,17.577 C20.185,21.918 20.686,26.267 21.779,30.495 C22.232,32.138 22.717,33.785 23.465,35.323 C23.732,35.860 23.878,36.504 24.393,36.874 C24.671,37.100 25.055,37.086 25.390,37.037 C25.946,36.900 26.343,36.398 26.452,35.852 C27.168,31.954 27.827,28.040 28.212,24.092 C28.426,22.047 28.603,19.996 28.887,17.958 C29.295,14.788 30.532,11.699 32.585,9.225 C33.559,8.077 34.967,7.201 36.516,7.200 C37.835,7.233 39.088,7.757 40.230,8.379 C41.940,9.313 43.307,10.725 44.622,12.133 C43.927,11.843 43.289,11.435 42.590,11.154 C41.103,10.520 39.329,10.375 37.846,11.101 ZM30.769,10.161 C30.568,10.391 30.296,10.663 29.959,10.584 C29.265,10.489 28.558,10.467 27.863,10.563 C26.918,10.730 26.015,11.105 25.199,11.605 C24.959,11.754 24.703,11.871 24.445,11.980 C25.287,10.944 26.294,10.051 27.339,9.222 C28.020,8.697 28.748,8.232 29.508,7.827 C30.235,7.454 30.999,7.123 31.814,7.006 C32.256,6.957 32.718,6.945 33.139,7.116 C32.999,7.383 32.827,7.631 32.633,7.860 C32.006,8.623 31.399,9.400 30.769,10.161 ZM26.562,12.067 C27.319,11.732 28.144,11.583 28.966,11.520 C29.262,11.494 29.557,11.546 29.847,11.605 C29.641,12.398 29.301,13.147 29.031,13.918 C28.846,14.384 28.733,14.884 28.466,15.314 C27.283,14.548 25.798,14.268 24.412,14.523 C23.775,14.617 23.171,14.844 22.565,15.046 C23.015,14.529 23.576,14.128 24.088,13.676 C24.847,13.050 25.648,12.449 26.562,12.067 ZM27.943,16.020 C28.093,16.115 28.302,16.212 28.305,16.417 C28.371,17.002 28.195,17.574 28.114,18.149 C27.945,19.267 27.833,20.393 27.672,21.512 C26.773,20.522 25.927,19.462 24.834,18.672 C24.110,18.143 23.282,17.737 22.394,17.581 C21.926,17.480 21.441,17.546 20.976,17.435 C21.992,16.379 23.383,15.676 24.836,15.463 C25.896,15.308 26.999,15.522 27.943,16.020 Z"/>
</svg>