<svg height="157" fill="none" xmlns="http://www.w3.org/2000/svg" viewBox="0 0 157 157" width="157">

<circle cx="78.5" cy="78.5" r="78.5" fill="#80BD1C"/>
<path d="M100.598 26.6865H56.4039L59.6988 53.6165H97.2627L100.598 26.6865Z" fill="white"/>
<path d="M96.548 59.3742H60.4309L61.9415 71.4512C62.6423 71.864 63.1051 72.2517 63.8375 72.6131C68.3791 74.8539 73.3798 76.0238 78.4506 76.0317C83.5214 76.0397 88.5257 74.8854 93.0744 72.6587C93.8295 72.289 94.3014 71.8915 95.0233 71.4672L96.548 59.3742Z" fill="white"/>
<path d="M104.712 69.2432C101.629 73.2428 97.6584 76.482 93.1098 78.7087C88.5611 80.9354 83.5568 82.0896 78.486 82.0817C73.4152 82.0738 68.4145 80.9039 63.8729 78.663C59.3313 76.4221 55.3711 73.1706 52.3003 69.1614L47 73.1689C50.6912 77.9881 55.4514 81.8965 60.9104 84.59C66.3695 87.2836 72.3803 88.6899 78.4755 88.6994C84.5707 88.7089 90.586 87.3214 96.0535 84.6449C101.521 81.9684 106.294 78.0749 110 73.2672L104.712 69.2432Z" fill="white"/>
<path fill-rule="evenodd" clip-rule="evenodd" d="M75.5814 103.189C74.7372 107.81 70.6669 111.314 65.773 111.314C60.2672 111.314 55.8038 106.879 55.8038 101.409C55.8038 95.9383 60.2672 91.5037 65.773 91.5037C70.2646 91.5037 74.0624 94.455 75.3091 98.5123C75.7069 98.2964 76.1238 98.1201 76.5536 97.9852C77.2211 97.7757 77.9199 97.666 78.627 97.6629C79.3341 97.6598 80.0338 97.7633 80.7032 97.9669C81.1509 98.1031 81.585 98.2841 81.9986 98.5078C83.2468 94.4528 87.0435 91.5037 91.5334 91.5037C97.0392 91.5037 101.503 95.9383 101.503 101.409C101.503 106.879 97.0392 111.314 91.5334 111.314C86.6278 111.314 82.5498 107.793 81.719 103.156C81.444 102.582 81.0111 102.097 80.4702 101.758C79.9237 101.414 79.2897 101.233 78.643 101.236C77.9963 101.239 77.3639 101.425 76.8204 101.774C76.2807 102.119 75.8511 102.611 75.5814 103.189ZM65.773 106.167C68.4177 106.167 70.5617 104.036 70.5617 101.409C70.5617 98.7809 68.4177 96.6508 65.773 96.6508C63.1282 96.6508 60.9843 98.7809 60.9843 101.409C60.9843 104.036 63.1282 106.167 65.773 106.167ZM91.5334 106.167C94.1781 106.167 96.3221 104.036 96.3221 101.409C96.3221 98.7809 94.1781 96.6508 91.5334 96.6508C88.8887 96.6508 86.7447 98.7809 86.7447 101.409C86.7447 104.036 88.8887 106.167 91.5334 106.167Z" fill="white"/>
<path d="M66.8268 127C70.817 127 76.9504 124.404 78.8117 121.719C80.673 124.404 86.8064 127 90.7965 127C94.8866 127 97.527 126.173 100.307 124.027C102.093 122.651 104.248 119.495 104.248 116.408C103.833 116.694 103.453 116.967 103.093 117.226C101.095 118.664 99.7416 119.639 96.5625 119.639C92.2995 119.639 89.5787 117.133 87.3123 115.046C85.6946 113.556 84.3085 112.28 82.7584 112.28C81.3038 112.28 80.4394 113.17 79.637 113.997C79.3617 114.281 79.0937 114.557 78.8117 114.787C78.5297 114.557 78.2617 114.281 77.9864 113.997C77.184 113.17 76.3196 112.28 74.865 112.28C73.3149 112.28 71.9288 113.556 70.3111 115.046C68.0447 117.133 65.3239 119.639 61.0609 119.639C57.8818 119.639 56.5281 118.664 54.5301 117.226C54.1708 116.968 53.7907 116.694 53.3755 116.408C53.3755 119.495 55.5308 122.651 57.316 124.027C60.0964 126.173 62.7368 127 66.8268 127Z" fill="white"/>
</svg>