<?xml version="1.0" encoding="utf-8"?>
<!-- Generator: Adobe Illustrator 17.0.0, SVG Export Plug-In . SVG Version: 6.00 Build 0)  -->
<!DOCTYPE svg PUBLIC "-//W3C//DTD SVG 1.1//EN" "http://www.w3.org/Graphics/SVG/1.1/DTD/svg11.dtd">
<svg version="1.1" id="Слой_1" xmlns="http://www.w3.org/2000/svg" xmlns:xlink="http://www.w3.org/1999/xlink" x="0px" y="0px"
	 width="36.542px" height="36.406px" viewBox="0 0 36.542 36.406" enable-background="new 0 0 36.542 36.406" xml:space="preserve">
<g>
	<path fill="#77A1D5" d="M36.463,9.4v19.05c0,1.317-1.068,2.385-2.386,2.385H2.462c-1.318,0-2.385-1.068-2.385-2.385V9.4
		c0-1.317,1.067-2.385,2.385-2.385h31.615C35.395,7.015,36.463,8.083,36.463,9.4z"/>
	<path fill="#77A1D5" d="M28.524,7.015"/>
	<path fill="#77A1D5" d="M6.584,30.834"/>
	<g>
		<rect x="0.078" y="10.578" fill="#293849" width="36.386" height="4.876"/>
	</g>
	<polygon fill="#0C1829" points="36.463,10.578 36.463,15.455 21.397,15.455 25.802,10.578 	"/>
	<path fill="#921C1E" d="M14.872,17.802c-2.868,0.018-5.19,2.357-5.19,5.235c0,2.89,2.34,5.235,5.224,5.235
		c1.353,0,2.586-0.517,3.515-1.364l0,0h0.001c0.19-0.174,0.368-0.361,0.531-0.561h-1.07c-0.143-0.173-0.273-0.353-0.39-0.54h1.846
		c0.113-0.18,0.214-0.367,0.305-0.56h-2.454c-0.084-0.18-0.157-0.363-0.218-0.55h2.891c0.175-0.522,0.269-1.08,0.269-1.66
		c0-0.385-0.042-0.76-0.12-1.121h-3.193c0.04-0.186,0.09-0.37,0.149-0.55h2.893c-0.065-0.192-0.14-0.379-0.225-0.561h-2.445
		c0.088-0.189,0.188-0.372,0.3-0.55h1.844c-0.123-0.196-0.259-0.384-0.405-0.56h-1.028c0.159-0.188,0.334-0.365,0.524-0.529
		c-0.928-0.848-2.162-1.365-3.515-1.365C14.894,17.802,14.883,17.802,14.872,17.802z"/>
	<path fill="#F06723" d="M27.137,23.039c0.001,2.891-2.337,5.235-5.223,5.236c-2.885,0.001-5.224-2.342-5.225-5.234v-0.002
		c-0.001-2.892,2.337-5.236,5.222-5.237c2.885-0.001,5.224,2.342,5.225,5.234C27.137,23.036,27.137,23.037,27.137,23.039z"/>
	<path fill="#F69720" d="M27.137,23.097c0.001,2.891-2.337,5.235-5.223,5.236c-2.885,0.001-5.224-2.342-5.225-5.233v-0.003
		c-0.001-2.891,2.337-5.236,5.222-5.236c2.885-0.001,5.224,2.342,5.225,5.234C27.137,23.094,27.137,23.096,27.137,23.097z"/>
	<path fill="#CA2127" d="M14.872,17.862c-2.868,0.018-5.19,2.356-5.19,5.235c0,2.89,2.34,5.235,5.224,5.235
		c1.353,0,2.586-0.517,3.515-1.364l0-0.001h0.001c0.19-0.173,0.368-0.361,0.531-0.561h-1.07c-0.143-0.172-0.273-0.353-0.39-0.539
		h1.846c0.113-0.18,0.214-0.367,0.305-0.561h-2.454c-0.084-0.18-0.157-0.363-0.218-0.55h2.891c0.175-0.522,0.269-1.081,0.269-1.661
		c0-0.385-0.042-0.76-0.12-1.121h-3.193c0.04-0.186,0.09-0.37,0.149-0.55h2.893c-0.065-0.192-0.14-0.379-0.225-0.561h-2.445
		c0.088-0.188,0.188-0.372,0.3-0.55h1.844c-0.123-0.196-0.259-0.383-0.405-0.561h-1.028c0.159-0.188,0.334-0.364,0.524-0.529
		c-0.928-0.848-2.162-1.365-3.515-1.365C14.894,17.862,14.883,17.862,14.872,17.862z"/>
	<g>
		<path fill="#FFFFFF" d="M16.784,24.43l0.07-0.474c-0.038,0-0.094,0.016-0.143,0.016c-0.193,0-0.215-0.103-0.202-0.179l0.156-0.967
			h0.294l0.071-0.524h-0.277l0.057-0.326h-0.556c-0.012,0.012-0.328,1.833-0.328,2.054c0,0.328,0.184,0.475,0.443,0.472
			C16.57,24.501,16.729,24.445,16.784,24.43z"/>
		<path fill="#FFFFFF" d="M16.961,23.526c0,0.788,0.519,0.975,0.961,0.975c0.408,0,0.587-0.092,0.587-0.092l0.098-0.538
			c0,0-0.31,0.138-0.591,0.138c-0.597,0-0.492-0.447-0.492-0.447h1.13c0,0,0.073-0.361,0.073-0.509c0-0.367-0.183-0.815-0.793-0.815
			C17.374,22.24,16.961,22.844,16.961,23.526z M17.936,22.739c0.314,0,0.256,0.354,0.256,0.382h-0.617
			C17.574,23.085,17.633,22.739,17.936,22.739z"/>
		<path fill="#FFFFFF" d="M21.458,24.43l0.1-0.608c0,0-0.273,0.138-0.46,0.138c-0.394,0-0.553-0.303-0.553-0.626
			c0-0.658,0.339-1.021,0.718-1.021c0.283,0,0.511,0.16,0.511,0.16l0.091-0.59c0,0-0.337-0.137-0.626-0.137
			c-0.642,0-1.267,0.558-1.267,1.607c0,0.695,0.338,1.154,1.001,1.154C21.159,24.506,21.458,24.43,21.458,24.43z"/>
		<path fill="#FFFFFF" d="M13.725,22.249c-0.381,0-0.674,0.123-0.674,0.123l-0.081,0.48c0,0,0.242-0.098,0.606-0.098
			c0.207,0,0.358,0.023,0.358,0.192c0,0.102-0.018,0.14-0.018,0.14s-0.163-0.014-0.239-0.014c-0.481,0-0.986,0.206-0.986,0.826
			c0,0.489,0.331,0.601,0.537,0.601c0.393,0,0.561-0.255,0.571-0.256l-0.018,0.213h0.49l0.219-1.535
			C14.489,22.27,13.922,22.249,13.725,22.249z M13.845,23.498c0.011,0.094-0.059,0.534-0.394,0.534
			c-0.173,0-0.218-0.132-0.218-0.211c0-0.152,0.083-0.336,0.49-0.336C13.818,23.485,13.828,23.496,13.845,23.498z"/>
		<path fill="#FFFFFF" d="M15.01,24.487c0.125,0,0.841,0.032,0.841-0.708c0-0.692-0.663-0.556-0.663-0.834
			c0-0.138,0.108-0.182,0.305-0.182c0.078,0,0.38,0.025,0.38,0.025l0.07-0.492c0,0-0.195-0.043-0.513-0.043
			c-0.412,0-0.829,0.164-0.829,0.727c0,0.639,0.696,0.574,0.696,0.843c0,0.179-0.195,0.194-0.345,0.194
			c-0.259,0-0.493-0.089-0.494-0.085l-0.074,0.487C14.399,24.423,14.543,24.487,15.01,24.487z"/>
		<path fill="#FFFFFF" d="M26.065,21.807l-0.12,0.746c0,0-0.209-0.289-0.537-0.289c-0.51,0-0.935,0.616-0.935,1.323
			c0,0.457,0.226,0.904,0.69,0.904c0.333,0,0.518-0.233,0.518-0.233l-0.024,0.199h0.541l0.425-2.651L26.065,21.807z M25.807,23.262
			c0,0.294-0.146,0.687-0.447,0.687c-0.2,0-0.294-0.168-0.294-0.433c0-0.432,0.193-0.718,0.438-0.718
			C25.704,22.799,25.807,22.937,25.807,23.262z"/>
		<path fill="#FFFFFF" d="M10.713,24.459l0.339-2.001l0.049,2.001h0.383l0.715-2.001l-0.317,2.001h0.569l0.439-2.654h-0.881
			l-0.548,1.628l-0.029-1.628h-0.811l-0.445,2.654H10.713L10.713,24.459z"/>
		<path fill="#FFFFFF" d="M19.283,24.462c0.162-0.922,0.192-1.672,0.578-1.535c0.068-0.357,0.133-0.495,0.206-0.646
			c0,0-0.034-0.007-0.107-0.007c-0.249,0-0.433,0.341-0.433,0.341l0.049-0.313h-0.518l-0.347,2.161H19.283z"/>
		<path fill="#FFFFFF" d="M22.741,22.249c-0.381,0-0.674,0.123-0.674,0.123l-0.08,0.48c0,0,0.241-0.098,0.606-0.098
			c0.207,0,0.359,0.023,0.359,0.192c0,0.102-0.019,0.14-0.019,0.14s-0.163-0.014-0.239-0.014c-0.481,0-0.986,0.206-0.986,0.826
			c0,0.489,0.331,0.601,0.537,0.601c0.393,0,0.561-0.255,0.57-0.256l-0.018,0.213h0.49l0.218-1.535
			C23.505,22.27,22.938,22.249,22.741,22.249z M22.861,23.498c0.011,0.094-0.059,0.534-0.394,0.534
			c-0.172,0-0.217-0.132-0.217-0.211c0-0.152,0.083-0.336,0.49-0.336C22.834,23.485,22.844,23.496,22.861,23.498z"/>
		<path fill="#FFFFFF" d="M23.952,24.462c0.162-0.922,0.192-1.672,0.579-1.535c0.068-0.357,0.133-0.495,0.207-0.646
			c0,0-0.035-0.007-0.107-0.007c-0.249,0-0.433,0.341-0.433,0.341l0.05-0.313h-0.518l-0.347,2.16L23.952,24.462L23.952,24.462
			L23.952,24.462z"/>
	</g>
</g>
</svg>
