<?xml version="1.0" encoding="utf-8"?>
<!-- Generator: Adobe Illustrator 17.0.0, SVG Export Plug-In . SVG Version: 6.00 Build 0)  -->
<!DOCTYPE svg PUBLIC "-//W3C//DTD SVG 1.1//EN" "http://www.w3.org/Graphics/SVG/1.1/DTD/svg11.dtd">
<svg version="1.1" id="Слой_1" xmlns="http://www.w3.org/2000/svg" xmlns:xlink="http://www.w3.org/1999/xlink" x="0px" y="0px"
	 width="36.542px" height="36.406px" viewBox="0 0 36.542 36.406" enable-background="new 0 0 36.542 36.406" xml:space="preserve">
<path fill="#78A3D6" d="M36.502,9.4v19.05c0,1.317-1.068,2.385-2.386,2.385H2.501c-1.318,0-2.385-1.068-2.385-2.385V9.4
	c0-1.317,1.067-2.385,2.385-2.385h31.615C35.434,7.015,36.502,8.083,36.502,9.4z"/>
<path fill="#78A3D6" d="M28.563,7.015"/>
<path fill="#78A3D6" d="M6.623,30.834"/>
<g>
	<rect x="0.117" y="10.578" fill="#293849" width="36.386" height="4.876"/>
</g>
<polygon fill="#0B1829" points="36.502,10.578 36.502,15.455 21.436,15.455 25.841,10.578 "/>
<path fill="#FFC74A" d="M28.792,19.414c-2.121,0-3.846,1.725-3.846,3.846s1.725,3.846,3.846,3.846s3.846-1.725,3.846-3.846
	S30.913,19.414,28.792,19.414z"/>
<path fill="#D3392F" d="M28.497,23.26c0-0.1-0.008-0.198-0.015-0.296h-3.52c0.016-0.202,0.047-0.399,0.092-0.592h3.336
	c-0.049-0.203-0.11-0.402-0.189-0.592h-2.957c0.087-0.207,0.193-0.404,0.313-0.592h2.33c-0.136-0.212-0.293-0.411-0.467-0.592
	h-1.396c0.209-0.218,0.446-0.408,0.7-0.571c-0.599-0.385-1.309-0.612-2.073-0.612c-2.121,0-3.846,1.725-3.846,3.846
	s1.725,3.846,3.846,3.846c0.764,0,1.474-0.226,2.073-0.612c-0.255-0.163-0.491-0.354-0.7-0.571h1.396
	c0.174-0.181,0.33-0.379,0.467-0.592h-2.33c-0.12-0.187-0.226-0.384-0.313-0.592H28.2c0.079-0.189,0.141-0.388,0.189-0.592h-3.335
	c-0.046-0.192-0.077-0.39-0.092-0.592h3.52C28.489,23.458,28.497,23.36,28.497,23.26z"/>
<g>
	<polygon fill="#293987" points="8.384,25.619 9.183,20.901 10.477,20.901 9.678,25.619 	"/>
	<path fill="#293987" d="M14.283,21.023c-0.256-0.096-0.658-0.198-1.16-0.198c-1.279,0-2.179,0.64-2.187,1.557
		c-0.007,0.678,0.643,1.056,1.134,1.282c0.504,0.231,0.673,0.379,0.67,0.585c-0.003,0.316-0.402,0.461-0.774,0.461
		c-0.518,0-0.793-0.072-1.218-0.248l-0.167-0.075l-0.182,1.056c0.302,0.132,0.861,0.246,1.441,0.252c1.36,0,2.243-0.632,2.253-1.612
		c0.005-0.537-0.34-0.945-1.086-1.282c-0.452-0.218-0.729-0.364-0.726-0.585c0-0.196,0.235-0.406,0.741-0.406
		c0.423-0.007,0.73,0.085,0.969,0.181l0.116,0.054L14.283,21.023L14.283,21.023z"/>
	<path fill="#293987" d="M16.489,20.901c-0.31,0-0.534,0.095-0.67,0.402l-1.917,4.317h1.37l0.266-0.723h1.636l0.152,0.723h1.218
		l-1.065-4.718L16.489,20.901L16.489,20.901L16.489,20.901z M15.901,23.952c0.107-0.272,0.515-1.319,0.515-1.319
		c-0.007,0.012,0.106-0.273,0.172-0.45l0.088,0.407c0,0,0.247,1.126,0.299,1.362L15.901,23.952L15.901,23.952z"/>
	<path fill="#293987" d="M6.025,24.135l-0.114-0.647c-0.236-0.754-0.969-1.57-1.79-1.979l1.143,4.109h1.37l2.055-4.718h-1.37
		L6.025,24.135z"/>
</g>
<g>
	<path fill="#F79820" d="M2.715,20.901v0.076c1.623,0.39,2.75,1.377,3.196,2.511l-0.469-2.185c-0.078-0.299-0.316-0.392-0.596-0.403
		L2.715,20.901L2.715,20.901z"/>
</g>
</svg>
