<?xml version="1.0" encoding="utf-8"?>
<!-- Generator: Adobe Illustrator 17.0.0, SVG Export Plug-In . SVG Version: 6.00 Build 0)  -->
<!DOCTYPE svg PUBLIC "-//W3C//DTD SVG 1.1//EN" "http://www.w3.org/Graphics/SVG/1.1/DTD/svg11.dtd">
<svg version="1.1" id="Слой_1" xmlns="http://www.w3.org/2000/svg" xmlns:xlink="http://www.w3.org/1999/xlink" x="0px" y="0px"
	 width="841.89px" height="595.28px" viewBox="0 0 841.89 595.28" enable-background="new 0 0 841.89 595.28" xml:space="preserve">
<g>
	<path fill="#F4D024" d="M663.579,468.997c0.838,5.919-3.281,11.398-9.2,12.236l-405.392,57.415
		c-5.919,0.838-11.398-3.281-12.236-9.2l-57.415-405.392c-0.838-5.919,3.281-11.398,9.2-12.236l405.392-57.415
		c5.919-0.838,11.398,3.281,12.236,9.2L663.579,468.997z"/>
	<path d="M326,220.375c0-10.424,8.451-18.875,18.875-18.875c3.401,0,7.958,0.083,10.875,0.083c0.25-4,0.25-5.412,0.25-9.583
		c0-22.644-18.356-41-41-41s-41,18.356-41,41s18.356,41,41,41c4.914,0,6.5,0,10.917,0C325.917,229.667,326,224.125,326,220.375z"/>
	<rect x="274" y="192" width="52" height="217.5"/>
	<path d="M326,378.292c0,10.424,8.451,18.875,18.875,18.875c3.401,0,7.958-0.083,10.875-0.083c0.25,4,0.25,5.412,0.25,9.583
		c0,22.644-18.356,41-41,41s-41-18.356-41-41s18.356-41,41-41c4.914,0,6.5,0,10.917,0C325.917,369,326,374.542,326,378.292z"/>
	<path d="M518.667,220.375c0-10.424-8.451-18.875-18.875-18.875c-3.401,0-7.958,0.083-10.875,0.083c-0.25-4-0.25-5.412-0.25-9.583
		c0-22.644,18.356-41,41-41c22.644,0,41,18.356,41,41s-18.356,41-41,41c-4.914,0-6.5,0-10.917,0
		C518.75,229.667,518.667,224.125,518.667,220.375z"/>
	<path d="M518.667,378.292c0,10.424-8.451,18.875-18.875,18.875c-3.401,0-7.958-0.083-10.875-0.083c-0.25,4-0.25,5.412-0.25,9.583
		c0,22.644,18.356,41,41,41c22.644,0,41-18.356,41-41s-18.356-41-41-41c-4.914,0-6.5,0-10.917,0
		C518.75,369,518.667,374.542,518.667,378.292z"/>
	<rect x="315.583" y="151.083" width="214.833" height="50.667"/>
	<rect x="312.917" y="397.083" width="214.833" height="50.667"/>
	<path opacity="0.6" d="M518.5,246"/>
	<path opacity="0.6" d="M518.5,346"/>
	<polyline points="570.5,346.25 570.5,408.5 518.5,408.5 518.5,346 	"/>
	<path opacity="0.6" d="M570.5,346.25"/>
	<path opacity="0.6" d="M570.5,246"/>
	<polyline points="518.5,246 518.5,191 570.5,191 570.5,246 	"/>
	<rect x="376.667" y="445" width="88.667" height="21.333"/>
	<rect x="377.667" y="131" width="88.667" height="21.333"/>
</g>
<g>
</g>
<g>
</g>
<g>
</g>
<g>
</g>
<g>
</g>
<g>
</g>
</svg>
