<?xml version="1.0" encoding="utf-8"?>
<!-- Generator: Adobe Illustrator 16.0.0, SVG Export Plug-In . SVG Version: 6.00 Build 0)  -->
<!DOCTYPE svg PUBLIC "-//W3C//DTD SVG 1.1//EN" "http://www.w3.org/Graphics/SVG/1.1/DTD/svg11.dtd">
<svg version="1.1" id="Слой_1" xmlns="http://www.w3.org/2000/svg" xmlns:xlink="http://www.w3.org/1999/xlink" x="0px" y="0px"
	 width="94.461px" height="16.324px" viewBox="0 0 94.461 16.324" enable-background="new 0 0 94.461 16.324" xml:space="preserve">
<g>
	<defs>
		<rect id="SVGID_1_" y="0" width="94.461" height="16.324"/>
	</defs>
	<clipPath id="SVGID_2_">
		<use xlink:href="#SVGID_1_"  display="none" overflow="visible"/>
	</clipPath>
	<path clip-path="url(#SVGID_2_)" fill="#9FC44E" d="M88.323,7.124c-0.537,0.374-1.317,0.559-2.384,0.559h-0.462h-0.596l0.812-4.381
		h0.411h0.367c0.885,0,1.531,0.143,1.978,0.432c0.348,0.227,0.761,0.676,0.761,1.528C89.21,6.289,88.729,6.841,88.323,7.124
		 M25.218,12.622h-8.186l0.529-2.863h5.135l0.583-3.226h-5.085l0.491-2.834h8.173L25.218,12.622z M92.733,1.241
		C91.529,0.416,89.708,0,87.32,0h-6.254l-2.325,12.623h-8.193l0.525-2.864h4.937l0.587-3.217l-4.934,0.009L72.191,3.7h5.083
		L77.951,0H67.625l-2.207,11.975h-3.786L63.855,0h-5.398L56.25,11.975h-3.69L54.784,0h-5.393l-2.331,12.622h-8.251l0.52-2.864h4.958
		l0.584-3.198l-4.95-0.004L40.446,3.7h5.14L46.259,0H14.091L12.26,10.002L8.612,0H3.013L0,16.324h5.346L7.17,6.046l3.54,10.278
		h19.163l2.33-12.625h2.998l-2.33,12.625h50.424l1.461-7.97l2.367,7.97h5.351l-2.451-6.512l0.559-0.121
		c1.233-0.265,2.198-0.833,2.868-1.685c0.671-0.86,1.011-1.964,1.011-3.29C94.461,3.171,93.897,2.035,92.733,1.241"/>
</g>
</svg>
