<?xml version="1.0" encoding="utf-8"?>
<!-- Generator: Adobe Illustrator 17.0.0, SVG Export Plug-In . SVG Version: 6.00 Build 0)  -->
<!DOCTYPE svg PUBLIC "-//W3C//DTD SVG 1.1//EN" "http://www.w3.org/Graphics/SVG/1.1/DTD/svg11.dtd">
<svg version="1.1" id="Слой_1" xmlns="http://www.w3.org/2000/svg" xmlns:xlink="http://www.w3.org/1999/xlink" x="0px" y="0px"
	 width="36.542px" height="36.406px" viewBox="0 0 36.542 36.406" enable-background="new 0 0 36.542 36.406" xml:space="preserve">
<g>
	<path fill="#263B80" d="M18.972,34.268l1.067-6.764l0.069-0.375c0.052-0.326,0.218-0.624,0.47-0.839
		c0.251-0.215,0.572-0.333,0.903-0.333h0.847c1.412,0,2.709-0.151,3.856-0.448c1.223-0.317,2.311-0.811,3.233-1.467
		c0.978-0.695,1.799-1.594,2.442-2.672c0.678-1.136,1.175-2.504,1.479-4.066c0.269-1.379,0.319-2.613,0.15-3.669
		c-0.179-1.116-0.608-2.068-1.277-2.83c-0.405-0.462-0.924-0.862-1.542-1.19l-0.014-0.008L30.653,9.59
		c0.216-1.377,0.208-2.524-0.025-3.513c-0.233-0.991-0.705-1.882-1.445-2.724c-1.532-1.745-4.318-2.631-8.281-2.631H10.02
		c-0.364,0-0.717,0.13-0.994,0.367C8.75,1.326,8.566,1.655,8.509,2.014L3.978,30.75c-0.041,0.262,0.034,0.529,0.207,0.73
		c0.173,0.202,0.424,0.318,0.689,0.318h6.751l-0.006,0.032l-0.464,2.94c-0.036,0.228,0.03,0.46,0.18,0.636
		c0.15,0.176,0.369,0.277,0.6,0.277h5.663c0.317,0,0.625-0.114,0.867-0.32c0.242-0.207,0.402-0.493,0.451-0.806L18.972,34.268z"/>
	<g>
		<path fill="#263B80" d="M15.092,9.628c0.072-0.455,0.364-0.828,0.757-1.017c0.179-0.086,0.379-0.133,0.588-0.133h8.531
			c1.011,0,1.953,0.066,2.814,0.205c0.246,0.04,0.486,0.085,0.718,0.137c0.233,0.052,0.459,0.109,0.677,0.173
			c0.109,0.032,0.217,0.065,0.323,0.101c0.423,0.14,0.817,0.306,1.179,0.498c0.427-2.724-0.003-4.577-1.476-6.256
			c-1.622-1.848-4.552-2.64-8.301-2.64H10.02c-0.766,0-1.419,0.557-1.538,1.314L3.95,30.746c-0.089,0.567,0.349,1.08,0.923,1.08
			h6.718l1.688-10.702L15.092,9.628z"/>
		<path fill="#139AD6" d="M30.68,9.592L30.68,9.592L30.68,9.592c-0.033,0.208-0.069,0.419-0.111,0.637
			c-1.435,7.368-6.345,9.916-12.617,9.916h-3.193c-0.766,0-1.413,0.558-1.532,1.314v0v0l-1.635,10.366l-0.464,2.941
			c-0.078,0.496,0.305,0.945,0.807,0.945h5.663c0.67,0,1.241-0.488,1.345-1.15l0.056-0.288l1.067-6.765l0.069-0.374
			c0.104-0.662,0.675-1.15,1.345-1.15h0.847c5.486,0,9.782-2.229,11.037-8.675c0.525-2.694,0.253-4.942-1.134-6.522
			C31.811,10.309,31.289,9.914,30.68,9.592z"/>
		<path fill="#232C65" d="M29.178,8.993c-0.219-0.064-0.445-0.122-0.677-0.173c-0.233-0.052-0.472-0.097-0.718-0.137
			c-0.862-0.139-1.804-0.205-2.814-0.205h-8.531c-0.209,0-0.409,0.048-0.588,0.133c-0.393,0.188-0.686,0.561-0.757,1.017
			l-1.813,11.496l-0.052,0.336c0.119-0.757,0.766-1.314,1.532-1.314h3.193c6.271,0,11.182-2.548,12.617-9.916
			c0.042-0.218,0.079-0.43,0.111-0.637c-0.362-0.192-0.756-0.358-1.179-0.498C29.395,9.058,29.288,9.025,29.178,8.993z"/>
	</g>
</g>
</svg>
