<?xml version="1.0" encoding="utf-8"?>
<!-- Generator: Adobe Illustrator 17.0.0, SVG Export Plug-In . SVG Version: 6.00 Build 0)  -->
<!DOCTYPE svg PUBLIC "-//W3C//DTD SVG 1.1//EN" "http://www.w3.org/Graphics/SVG/1.1/DTD/svg11.dtd">
<svg version="1.1" id="Слой_1" xmlns="http://www.w3.org/2000/svg" xmlns:xlink="http://www.w3.org/1999/xlink" x="0px" y="0px"
	 width="36.542px" height="36.406px" viewBox="0 0 36.542 36.406" enable-background="new 0 0 36.542 36.406" xml:space="preserve">
<path fill="#F8991D" d="M27.67,24.411c-0.343-0.128-0.374,0.277-0.288,0.541c0.191,0.618,0.451,1.09,0.641,1.184
	c0.181,0.11,0.397-0.144,0.259-0.762C28.223,25.107,28.02,24.547,27.67,24.411 M24.958,25.555c-0.006-0.004-0.009-0.004-0.015-0.008
	c-0.011,0-0.019-0.004-0.026-0.007c-0.012-0.004-0.021-0.009-0.032-0.012c-0.006,0-0.016,0-0.019-0.003
	c-0.017-0.006-0.033-0.009-0.052-0.016c-0.217-0.037-0.432-0.005-0.611,0.111c-0.405,0.276-0.467,0.899-0.135,1.395
	c0.155,0.225,0.362,0.381,0.586,0.467c0.004,0,0.008,0,0.018,0.005c0.006,0.001,0.016,0.007,0.023,0.007
	c0.011,0.005,0.021,0.005,0.031,0.008c0.009,0,0.014,0.004,0.02,0.007c0.018,0.004,0.033,0.011,0.05,0.012
	c0.215,0.043,0.432,0.012,0.612-0.109c0.408-0.276,0.47-0.896,0.137-1.392C25.391,25.793,25.183,25.635,24.958,25.555z
	 M34.582,35.332c-0.989-2.013-2.744-3.491-4.646-4.624c-0.659-0.393-1.404-0.67-2.053-0.883c-1.492-0.483-2.936-0.595-4.62-0.883
	c-1.368-0.234-2.449-0.797-3.609-1.584c-0.604-0.413-1.098-0.98-1.511-1.58c-0.077-0.121-0.463-0.591-0.424-0.752
	c0,0-0.269,1.077,0.264,2.588c-4.897-0.219-9.19-2.935-11.156-6.227C3.205,15.33,4.481,7.988,9.307,4.746
	c4.825-3.243,12.182-0.955,16.12,4.899c2.472,3.674,3.105,7.948,2.046,11.425c-0.008,0.027-0.018,0.052-0.026,0.079
	c-2.092-1.522-4.004-0.746-4.004-0.746c2.097-0.217,3.755,1.452,3.755,1.452c0.243,0.217,0.477,0.456,0.69,0.723
	c0.047,0.064,0.097,0.13,0.144,0.2c0.549,0.746,0.892,1.575,1.037,2.416c4.164-5.282,4.852-12.598,1.167-18.28
	c-4.693-7.242-14.7-9.091-22.345-4.136C0.245,7.738-2.148,17.623,2.547,24.864c3.857,5.958,12.905,7.775,18.092,6.133
	c1.961-0.617,8.675-1.203,13.349,4.317c0,0,0.404,0.462,0.623,0.988c0,0,0.065,0.184,0.238,0.095
	C34.895,36.372,35.024,36.223,34.582,35.332z"/>
</svg>
