<?xml version="1.0" encoding="utf-8"?>
<!-- Generator: Adobe Illustrator 17.0.0, SVG Export Plug-In . SVG Version: 6.00 Build 0)  -->
<!DOCTYPE svg PUBLIC "-//W3C//DTD SVG 1.1//EN" "http://www.w3.org/Graphics/SVG/1.1/DTD/svg11.dtd">
<svg version="1.1" id="Слой_1" xmlns="http://www.w3.org/2000/svg" xmlns:xlink="http://www.w3.org/1999/xlink" x="0px" y="0px"
	 width="36.542px" height="36.406px" viewBox="0 0 36.542 36.406" enable-background="new 0 0 36.542 36.406" xml:space="preserve">
<g>
	<path fill="#75552F" d="M0,15.627V31.32c0,0.639,0.518,1.157,1.157,1.157h34.155c0.639,0,1.157-0.518,1.157-1.157V15.627H0z"/>
	<path fill="#4E4C4D" d="M23.358,2.931H13.112c-0.477,0-0.864,0.387-0.864,0.864v5.11h1.728V4.659h8.518v4.246h1.728v-5.11
		C24.222,3.318,23.835,2.931,23.358,2.931z"/>
	<path fill="#8E6F4F" d="M35.312,8.041H1.157C0.518,8.041,0,8.559,0,9.198v6.429c0,2.017,1.635,3.651,3.651,3.651h29.167
		c2.017,0,3.651-1.635,3.651-3.651V9.198C36.47,8.559,35.952,8.041,35.312,8.041z"/>
	<path fill="#2D2E2D" d="M16.352,19.278v1.854c0,1.04,0.843,1.883,1.883,1.883s1.883-0.843,1.883-1.883v-1.854l-1.883-0.864
		L16.352,19.278z"/>
	<rect x="16.353" y="15.542" fill="#4E4C4D" width="3.765" height="3.736"/>
</g>
</svg>
