<?xml version="1.0" encoding="utf-8"?>
<!-- Generator: Adobe Illustrator 17.0.0, SVG Export Plug-In . SVG Version: 6.00 Build 0)  -->
<!DOCTYPE svg PUBLIC "-//W3C//DTD SVG 1.1//EN" "http://www.w3.org/Graphics/SVG/1.1/DTD/svg11.dtd">
<svg version="1.1" id="Слой_1" xmlns="http://www.w3.org/2000/svg" xmlns:xlink="http://www.w3.org/1999/xlink" x="0px" y="0px"
	 width="36.542px" height="36.406px" viewBox="0 0 36.542 36.406" enable-background="new 0 0 36.542 36.406" xml:space="preserve">
<g>
	<path fill-rule="evenodd" clip-rule="evenodd" fill="#0073B8" d="M21.67,32.156l-7.142-7.95l1.983-1.75l-4.998-5.601l1.994-1.754
		L8.431,9.51l7.915-7.135l2.524,2.754l4.249-3.79l2.517,2.603l1.676-1.5c-0.378-0.218-0.756-0.416-1.135-0.595
		C23.767,0.665,21.061,0,18.202,0C8.177,0,0,8.177,0,18.203c0,10.024,8.177,18.202,18.202,18.202c3.26,0,6.323-0.865,8.974-2.377
		c0.875-0.493,1.669-1.026,2.398-1.593l-3.665-4.183L21.67,32.156z"/>
	
		<rect x="16.085" y="14.356" transform="matrix(0.6691 0.7432 -0.7432 0.6691 19.1212 -8.4048)" fill-rule="evenodd" clip-rule="evenodd" fill="#0073B8" width="5.826" height="5.825"/>
	
		<rect x="19.164" y="21.836" transform="matrix(0.6692 0.7431 -0.7431 0.6692 25.6928 -8.218)" fill-rule="evenodd" clip-rule="evenodd" fill="#0073B8" width="5.825" height="5.824"/>
	
		<rect x="12.988" y="6.964" transform="matrix(-0.6691 -0.7432 0.7432 -0.6691 19.1985 28.3019)" fill-rule="evenodd" clip-rule="evenodd" fill="#0073B8" width="5.824" height="5.824"/>
	
		<rect x="20.631" y="5.541" transform="matrix(-0.669 -0.7433 0.7433 -0.669 32.3362 29.8513)" fill-rule="evenodd" clip-rule="evenodd" fill="#0073B8" width="4.369" height="4.369"/>
	
		<rect x="26.399" y="18.928" transform="matrix(0.669 0.7433 -0.7433 0.669 25.1541 -14.2569)" fill-rule="evenodd" clip-rule="evenodd" fill="#0073B8" width="4.369" height="4.37"/>
	
		<rect x="29.256" y="25.486" transform="matrix(-0.6692 -0.7431 0.7431 -0.6692 31.9188 69.5488)" fill-rule="evenodd" clip-rule="evenodd" fill="#0073B8" width="4.367" height="4.368"/>
	
		<rect x="30.263" y="11.132" transform="matrix(-0.7431 0.6692 -0.6692 -0.7431 63.7124 0.7144)" fill-rule="evenodd" clip-rule="evenodd" fill="#0073B8" width="2.911" height="2.912"/>
	
		<rect x="27.497" y="4.701" transform="matrix(-0.7432 0.6691 -0.6691 -0.7432 54.5918 -8.638)" fill-rule="evenodd" clip-rule="evenodd" fill="#0073B8" width="2.912" height="2.912"/>
	
		<rect x="33.03" y="17.562" transform="matrix(-0.7432 0.6691 -0.6691 -0.7432 72.8393 10.0758)" fill-rule="evenodd" clip-rule="evenodd" fill="#0073B8" width="2.912" height="2.912"/>
	
		<rect x="23.624" y="12.069" transform="matrix(0.6691 0.7432 -0.7432 0.6691 19.1319 -14.4631)" fill-rule="evenodd" clip-rule="evenodd" fill="#0073B8" width="4.368" height="4.369"/>
</g>
</svg>
