<?xml version="1.0" encoding="utf-8"?>
<!-- Generator: Adobe Illustrator 17.0.0, SVG Export Plug-In . SVG Version: 6.00 Build 0)  -->
<!DOCTYPE svg PUBLIC "-//W3C//DTD SVG 1.1//EN" "http://www.w3.org/Graphics/SVG/1.1/DTD/svg11.dtd">
<svg version="1.1" id="Слой_1" xmlns="http://www.w3.org/2000/svg" xmlns:xlink="http://www.w3.org/1999/xlink" x="0px" y="0px"
	 width="36.542px" height="36.406px" viewBox="0 0 36.542 36.406" enable-background="new 0 0 36.542 36.406" xml:space="preserve">
<rect x="6.292" y="9.737" fill="#2D2E2D" width="24.469" height="23.885"/>
<g>
	<polygon fill="#DFDFDE" points="36.503,10.866 18.252,1.479 0,10.866 	"/>
	<g>
		<rect x="2.45" y="10.866" fill="#2D2E2D" width="31.603" height="1.844"/>
		<rect x="2.45" y="33.082" fill="#2D2E2D" width="31.603" height="1.844"/>
	</g>
	<g>
		<path fill="#BDBCBD" d="M3.276,12.738v1.101c0,0.743,0.606,1.349,1.349,1.349h4.68c0.743,0,1.349-0.606,1.349-1.349v-1.101H3.276z
			"/>
		<path fill="#BDBCBD" d="M10.654,33.082v-1.101c0-0.743-0.606-1.349-1.349-1.349h-4.68c-0.743,0-1.349,0.606-1.349,1.349v1.101
			H10.654z"/>
	</g>
	<rect x="4.57" y="15.189" fill="#DFDFDE" width="4.818" height="15.471"/>
	<g>
		<path fill="#BDBCBD" d="M14.618,12.738v1.101c0,0.743,0.606,1.349,1.349,1.349h4.707c0.743,0,1.349-0.606,1.349-1.349v-1.101
			H14.618z"/>
		<path fill="#BDBCBD" d="M21.996,33.082v-1.101c0-0.743-0.606-1.349-1.349-1.349h-4.707c-0.743,0-1.349,0.606-1.349,1.349v1.101
			H21.996z"/>
	</g>
	<rect x="15.884" y="15.189" fill="#DFDFDE" width="4.818" height="15.471"/>
	<g>
		<path fill="#BDBCBD" d="M25.932,12.738v1.101c0,0.743,0.606,1.349,1.349,1.349h4.707c0.743,0,1.349-0.606,1.349-1.349v-1.101
			H25.932z"/>
		<path fill="#BDBCBD" d="M33.31,33.082v-1.101c0-0.743-0.606-1.349-1.349-1.349h-4.68c-0.743,0-1.349,0.606-1.349,1.349v1.101
			H33.31z"/>
	</g>
	<rect x="27.226" y="15.189" fill="#DFDFDE" width="4.818" height="15.471"/>
</g>
</svg>
