<?xml version="1.0" encoding="utf-8"?>
<!-- Generator: Adobe Illustrator 16.0.0, SVG Export Plug-In . SVG Version: 6.00 Build 0)  -->
<!DOCTYPE svg PUBLIC "-//W3C//DTD SVG 1.1//EN" "http://www.w3.org/Graphics/SVG/1.1/DTD/svg11.dtd">
<svg version="1.1" id="Слой_1" xmlns="http://www.w3.org/2000/svg" xmlns:xlink="http://www.w3.org/1999/xlink" x="0px" y="0px"
	 width="23px" height="23px" viewBox="0 0 23 23" enable-background="new 0 0 23 23" xml:space="preserve">
<g>
	<defs>
		<rect id="SVGID_1_" width="23" height="23"/>
	</defs>
	<clipPath id="SVGID_2_">
		<use xlink:href="#SVGID_1_"  overflow="visible"/>
	</clipPath>
	<path clip-path="url(#SVGID_2_)" fill="#E8E8E8" d="M23,11.5C23,17.851,17.851,23,11.5,23C5.149,23,0,17.851,0,11.5
		C0,5.149,5.149,0,11.5,0C17.851,0,23,5.149,23,11.5"/>
	<path clip-path="url(#SVGID_2_)" fill="#000" d="M19.078,18.783c-0.075-0.38-0.537-0.817-1.753-1.276
		c-2.48-0.811-3.512-1.817-3.512-1.817h-0.001c-0.333-0.354-0.133-0.881,0.147-1.356c0.047-0.076,0.093-0.15,0.141-0.223
		c0.005-0.008,0.01-0.018,0.016-0.025l-0.001-0.001c0.328-0.557,0.58-1.198,0.724-1.872c0.044-0.121,0.224-0.26,0.361-0.776
		c0.152-0.515,0.19-1.045,0.047-1.169l-0.03-0.033c-0.206-0.189-0.19-0.178-0.19-0.178s0.36-1.814,0.072-2.671
		c-0.453-1.37-3.156-2.288-3.698-2.395c0,0-0.329-0.067-0.351-0.067c0,0-0.426-0.086-0.92,0.129
		C9.808,5.176,8.125,5.939,7.647,7.385c-0.288,0.857,0.071,2.671,0.071,2.671s0.016-0.011-0.19,0.178l-0.031,0.033
		c-0.139,0.158-0.105,0.654,0.048,1.169c0.138,0.516,0.318,0.655,0.361,0.776c0.141,0.66,0.394,1.289,0.723,1.838
		c0.002,0.002,0.003,0.005,0.005,0.008c0.04,0.061,0.077,0.121,0.113,0.18c0.247,0.41,0.371,0.754,0.372,1.028v0.021
		c-0.003,0.163-0.051,0.301-0.144,0.413c-0.127,0.118-1.179,1.048-3.499,1.806C4.5,17.872,4.072,18.25,3.97,18.609
		c-0.177,0.313-0.324,1.307-0.033,1.547c2.313,1.906,4.875,2.875,7.547,2.824c0.011,0,0.023,0,0.034,0
		c2.605-0.011,5.169-0.887,7.45-2.762C19.208,20.022,19.159,19.062,19.078,18.783"/>
</g>
</svg>
