<?xml version="1.0" encoding="utf-8"?>
<!-- Generator: Adobe Illustrator 16.0.0, SVG Export Plug-In . SVG Version: 6.00 Build 0)  -->
<!DOCTYPE svg PUBLIC "-//W3C//DTD SVG 1.1//EN" "http://www.w3.org/Graphics/SVG/1.1/DTD/svg11.dtd">
<svg version="1.1" id="Слой_1" xmlns="http://www.w3.org/2000/svg" xmlns:xlink="http://www.w3.org/1999/xlink" x="0px" y="0px"
	 width="2048px" height="266.286px" viewBox="0 0 2048 266.286" enable-background="new 0 0 2048 266.286" xml:space="preserve">
<g>
	<path fill="#EAEAEA" d="M519.505,27.108l-0.262,0.114l40.854,93.598h0.001c1.496,3.769,5.321,6.019,10.237,6.019
		c6.22,0,10.68-4.088,11.097-10.172c0.075-1.102-0.298-2.877-0.888-4.219l-0.007,0.003l-9.542-21.143l0.022-0.01
		c-0.551-1.248-0.915-2.946-0.848-3.951c0.386-5.769,4.611-9.652,10.515-9.662c0.006,0,0.012,0,0.019,0
		c4.028,0,7.05,2.152,9.237,6.579l0.508-0.251c-2.261-4.575-5.54-6.894-9.746-6.894c-0.006,0-0.013,0-0.019,0
		c-6.22,0.01-10.673,4.106-11.08,10.191c-0.073,1.087,0.294,2.827,0.872,4.162l-0.024,0.011l9.637,21.35l0,0
		c0.512,1.231,0.844,2.832,0.777,3.796c-0.396,5.768-4.628,9.644-10.531,9.644c-4.679,0-8.311-2.12-9.715-5.67l-0.263,0.104
		l0.259-0.113l-40.852-93.595l0,0L508.276-0.098h-0.616l11.583,27.317L519.505,27.108z"/>
	<path fill="#EAEAEA" d="M728.524,6.831c1.646,4.15,5.595,6.83,10.063,6.83c6.22,0,10.68-4.088,11.097-10.172
		c0.063-0.938-0.198-2.358-0.641-3.588h-0.604c0.455,1.192,0.74,2.648,0.679,3.549c-0.396,5.768-4.628,9.644-10.531,9.644
		c-4.238,0-7.983-2.544-9.54-6.481l-0.267,0.105l0.264-0.115L726.118-0.1H725.5L728.524,6.831L728.524,6.831z"/>
	<path fill="#EAEAEA" d="M786.361,258.901l-53.16-122.54l-0.26,0.113l0.254-0.126c-2.261-4.575-5.54-6.894-9.746-6.894
		c-0.006,0-0.013,0-0.019,0c-6.22,0.01-10.673,4.106-11.08,10.191c-0.073,1.087,0.294,2.827,0.872,4.162l-0.024,0.011l9.637,21.351
		c0.512,1.231,0.845,2.832,0.778,3.797c-0.396,5.768-4.628,9.644-10.531,9.644c-4.238,0-7.983-2.544-9.54-6.481l-0.268,0.106
		l0.264-0.114L659.609,71.44l0.014-0.006c-1.839-4.481-1.39-8.274,1.333-11.274c3.97-4.371,9.684-4.9,14.22-1.315
		c0.79,0.624,1.805,2.034,2.36,3.28l0.022-0.01l9.276,21.261l-0.007,0.003c0.601,1.339,1.665,2.806,2.533,3.49
		c2.115,1.665,4.47,2.485,6.8,2.485c2.948,0,5.857-1.314,8.188-3.89c2.949-3.259,3.631-7.883,1.776-11.844l0.18-0.078L674.158-0.107
		c-0.208-0.001-0.415-0.006-0.623-0.01l32.164,73.69l-0.176,0.087c1.875,3.796,1.248,8.28-1.595,11.423
		c-3.961,4.378-9.674,4.917-14.217,1.339c-0.761-0.598-1.724-1.918-2.293-3.124l0,0l-9.367-21.47l-0.025,0.011
		c-0.602-1.325-1.646-2.764-2.501-3.439c-4.785-3.781-10.809-3.227-14.99,1.379c-2.877,3.168-3.362,7.151-1.449,11.837l-0.017,0.007
		l43.946,100.719l0,0c1.646,4.15,5.595,6.832,10.063,6.832c6.221,0,10.681-4.088,11.098-10.172c0.074-1.103-0.298-2.877-0.889-4.221
		l-0.007,0.004l-9.542-21.144l0.022-0.011c-0.552-1.248-0.915-2.946-0.849-3.95c0.387-5.769,4.612-9.652,10.516-9.661
		c4.017-0.015,7.063,2.144,9.255,6.576l53.156,122.529l0.275-0.119l-0.275,0.119l2.964,6.791c0.206-0.002,0.412,0,0.619,0
		L786.361,258.901L786.361,258.901z"/>
	<path fill="#EAEAEA" d="M763.633,142.833c-1.839-4.481-1.391-8.274,1.333-11.274c3.969-4.371,9.683-4.9,14.219-1.315
		c0.79,0.624,1.805,2.034,2.361,3.28l0.021-0.01l9.276,21.261l-0.006,0.003c0.599,1.339,1.665,2.806,2.532,3.49
		c2.115,1.665,4.471,2.485,6.801,2.485c2.947,0,5.856-1.314,8.188-3.891c2.997-3.313,3.659-8.037,1.689-12.039l0,0L763.621,36.796
		l-0.521,0.224l46.427,108.025l0.261-0.112l-0.255,0.126c1.875,3.796,1.249,8.279-1.595,11.423
		c-3.961,4.378-9.675,4.916-14.217,1.341c-0.76-0.599-1.724-1.92-2.293-3.125l0,0l-9.367-21.47l-0.025,0.011
		c-0.602-1.325-1.646-2.764-2.501-3.439c-4.784-3.781-10.809-3.226-14.989,1.379c-2.882,3.173-3.366,7.161-1.443,11.856l-0.021,0.01
		l53.297,122.857h0.625L763.613,142.84L763.633,142.833z"/>
	<path fill="#EAEAEA" d="M733.248,73.49c1.496,3.769,5.321,6.019,10.237,6.019c6.22,0,10.681-4.088,11.097-10.172
		c0.075-1.102-0.298-2.877-0.888-4.219l-0.006,0.003l-9.542-21.143l0.022-0.01c-0.552-1.248-0.915-2.947-0.849-3.951
		c0.385-5.769,4.612-9.652,10.516-9.661c0.006,0,0.012,0,0.019,0c4.028,0,7.049,2.152,9.237,6.579l0.508-0.251
		c-2.261-4.575-5.54-6.894-9.746-6.894c-0.006,0-0.013,0-0.019,0c-6.221,0.01-10.674,4.106-11.08,10.191
		c-0.073,1.087,0.294,2.827,0.872,4.162l-0.024,0.011l9.636,21.35l0,0c0.513,1.231,0.844,2.832,0.778,3.797
		c-0.396,5.768-4.628,9.644-10.532,9.644c-4.678,0-8.31-2.12-9.714-5.67l-0.26,0.103l0.256-0.112L701.75-0.092
		c-0.205,0-0.41,0.003-0.614,0.01L733.248,73.49L733.248,73.49z"/>
	<path fill="#EAEAEA" d="M559.787,183.803l0.255-0.127c-2.262-4.574-5.54-6.893-9.746-6.893c-0.006,0-0.014,0-0.02,0
		c-6.22,0.01-10.673,4.105-11.08,10.19c-0.072,1.087,0.294,2.827,0.872,4.161l-0.023,0.012l9.636,21.35
		c0.512,1.231,0.845,2.832,0.779,3.797c-0.396,5.769-4.628,9.644-10.532,9.644c-4.238,0-7.983-2.544-9.54-6.481l-0.267,0.106
		l0.263-0.114l-43.927-100.679l0.014-0.006c-1.839-4.481-1.39-8.274,1.333-11.274c3.969-4.371,9.683-4.9,14.219-1.315
		c0.79,0.624,1.805,2.034,2.361,3.28l0.021-0.01l9.276,21.261l-0.006,0.003c0.6,1.339,1.665,2.806,2.533,3.49
		c2.114,1.665,4.47,2.485,6.8,2.485c2.948,0,5.856-1.313,8.188-3.89c2.949-3.259,3.631-7.883,1.777-11.844l0.179-0.078
		l-43.791-100.33l0,0l-8.747-20.629c-0.207-0.002-0.413-0.002-0.62-0.009l8.845,20.86l0.259-0.11l-0.258,0.113l43.707,100.138
		l-0.177,0.087c1.875,3.797,1.249,8.28-1.595,11.423c-3.961,4.377-9.675,4.917-14.217,1.338c-0.76-0.598-1.723-1.917-2.293-3.124
		l0,0l-9.367-21.47l-0.024,0.011c-0.603-1.325-1.646-2.764-2.501-3.439c-4.785-3.781-10.81-3.226-14.99,1.379
		c-2.877,3.168-3.363,7.151-1.45,11.837l-0.016,0.007l43.945,100.72l0,0c1.646,4.148,5.595,6.83,10.063,6.83
		c6.22,0,10.68-4.088,11.097-10.172c0.075-1.102-0.298-2.877-0.888-4.22l-0.007,0.003l-9.542-21.143l0.021-0.01
		c-0.551-1.248-0.915-2.946-0.848-3.951c0.386-5.77,4.611-9.652,10.515-9.661c0.006,0,0.012,0,0.019,0
		c4.027,0,7.049,2.151,9.236,6.575l35.569,81.992h0.618l-35.672-82.228L559.787,183.803z"/>
	<path fill="#EAEAEA" d="M620.22,205.596c2.114,1.664,4.47,2.484,6.8,2.484c2.948,0,5.857-1.313,8.188-3.89
		c2.997-3.313,3.659-8.037,1.689-12.04l0,0L590.469,84.126l-0.521,0.224l46.428,108.025l0.26-0.112l-0.254,0.125
		c1.875,3.796,1.249,8.28-1.596,11.423c-3.961,4.378-9.675,4.916-14.217,1.34c-0.76-0.6-1.724-1.919-2.293-3.124l0,0l-9.367-21.47
		l-0.024,0.011c-0.603-1.325-1.646-2.764-2.501-3.438c-4.785-3.781-10.81-3.227-14.99,1.379c-2.881,3.173-3.365,7.162-1.443,11.857
		l-0.021,0.008l32.772,75.545h0.618l-32.86-75.748l0.02-0.008c-1.839-4.48-1.39-8.272,1.333-11.273
		c3.968-4.371,9.683-4.9,14.219-1.314c0.79,0.623,1.806,2.033,2.361,3.279l0.021-0.01l9.276,21.261l-0.006,0.003
		C618.285,203.445,619.351,204.913,620.22,205.596z"/>
	<path fill="#EAEAEA" d="M1187.793,5.856l-0.278,0.122l40.853,93.598l0,0c1.496,3.769,5.321,6.019,10.237,6.019
		c6.22,0,10.681-4.088,11.097-10.172c0.075-1.102-0.298-2.877-0.888-4.219l-0.006,0.003l-9.542-21.143l0.022-0.01
		c-0.552-1.247-0.915-2.946-0.849-3.951c0.387-5.769,4.612-9.652,10.516-9.661c0.007,0,0.013,0,0.02,0
		c4.027,0,7.048,2.152,9.236,6.579l0.508-0.251c-2.261-4.575-5.54-6.894-9.745-6.894c-0.006,0-0.013,0-0.02,0
		c-6.221,0.01-10.673,4.106-11.08,10.19c-0.073,1.087,0.294,2.827,0.872,4.162l-0.024,0.011l9.636,21.35l0,0
		c0.512,1.231,0.844,2.832,0.778,3.797c-0.396,5.768-4.628,9.643-10.532,9.643c-4.679,0-8.31-2.12-9.714-5.67l-0.263,0.104
		l0.259-0.113l-40.853-93.597l0,0l-2.525-5.821c-0.208-0.005-0.415-0.009-0.623-0.012l2.628,6.058L1187.793,5.856z"/>
	<path fill="#EAEAEA" d="M1132.125,164.808l-53.16-122.54l-0.261,0.113l0.255-0.126c-2.262-4.575-5.541-6.894-9.746-6.894
		c-0.006,0-0.014,0-0.02,0c-6.22,0.01-10.673,4.106-11.08,10.191c-0.072,1.087,0.294,2.827,0.872,4.162l-0.024,0.011l9.637,21.35
		c0.512,1.231,0.845,2.832,0.779,3.797c-0.396,5.768-4.629,9.644-10.532,9.644c-4.238,0-7.983-2.544-9.54-6.481l-0.267,0.105
		l0.263-0.114l-34.086-78.123h-0.619l34.185,78.35l0,0c1.646,4.15,5.594,6.83,10.063,6.83c6.22,0,10.68-4.088,11.097-10.172
		c0.075-1.102-0.298-2.877-0.888-4.22l-0.007,0.003l-9.542-21.143l0.021-0.01c-0.551-1.248-0.915-2.947-0.848-3.951
		c0.385-5.769,4.61-9.652,10.515-9.661c0.006,0,0.012,0,0.02,0c4.026,0,7.048,2.152,9.235,6.576l53.156,122.529l0.232-0.101
		l-0.232,0.101l44.021,100.904h0.646L1132.125,164.808L1132.125,164.808z"/>
	<path fill="#EAEAEA" d="M1162.528,171.264l-53.15-122.517l0.02-0.008c-1.839-4.481-1.39-8.274,1.333-11.274
		c3.969-4.371,9.682-4.9,14.219-1.315c0.79,0.624,1.806,2.034,2.361,3.28l0.021-0.01l9.276,21.261l-0.006,0.003
		c0.599,1.338,1.665,2.806,2.533,3.49c2.114,1.665,4.469,2.485,6.8,2.485c2.948,0,5.856-1.314,8.188-3.89
		c2.997-3.312,3.659-8.037,1.689-12.04l0,0L1133.971-0.09c-0.205,0.001-0.41,0.003-0.616,0.003l21.937,51.04l0.259-0.111
		l-0.253,0.125c1.875,3.796,1.248,8.28-1.596,11.423c-3.961,4.378-9.675,4.916-14.217,1.34c-0.76-0.599-1.723-1.919-2.293-3.124l0,0
		l-9.367-21.47l-0.024,0.011c-0.603-1.325-1.646-2.764-2.501-3.439c-4.785-3.781-10.81-3.227-14.99,1.379
		c-2.881,3.173-3.366,7.162-1.443,11.857l-0.021,0.009l53.16,122.54l0.265-0.115l-0.265,0.117l41.201,94.426h0.625L1162.528,171.264
		L1162.528,171.264z"/>
	<path fill="#EAEAEA" d="M958.972,212.137l-53.16-122.54l-0.26,0.113l0.255-0.126c-2.261-4.575-5.54-6.894-9.746-6.894
		c-0.006,0-0.013,0-0.019,0c-6.221,0.011-10.674,4.106-11.08,10.191c-0.073,1.087,0.294,2.827,0.872,4.162l-0.024,0.011l9.636,21.35
		c0.513,1.232,0.846,2.832,0.779,3.797c-0.396,5.768-4.628,9.644-10.532,9.644c-4.237,0-7.982-2.544-9.54-6.48l-0.267,0.105
		l0.264-0.115L832.221,24.676l0.014-0.006c-1.839-4.481-1.39-8.274,1.333-11.274c3.969-4.371,9.683-4.9,14.219-1.315
		c0.79,0.624,1.806,2.034,2.361,3.28l0.022-0.01l9.275,21.261l-0.006,0.003c0.6,1.339,1.665,2.806,2.533,3.49
		c2.115,1.665,4.47,2.485,6.8,2.485c2.948,0,5.857-1.314,8.188-3.89c3.078-3.403,3.846-8.081,1.955-11.922l0,0l-11.73-26.876h-0.619
		l11.83,27.103l0.26-0.114l-0.254,0.125c1.794,3.633,1.063,8.07-1.862,11.303c-3.961,4.378-9.674,4.917-14.217,1.339
		c-0.76-0.598-1.723-1.918-2.293-3.124l0,0l-9.367-21.47l-0.024,0.011c-0.603-1.325-1.646-2.764-2.501-3.439
		c-4.785-3.781-10.81-3.227-14.99,1.379c-2.877,3.168-3.363,7.151-1.45,11.837l-0.016,0.007l43.945,100.72l0,0
		c1.646,4.15,5.596,6.831,10.063,6.831c6.22,0,10.68-4.088,11.097-10.172c0.075-1.103-0.298-2.877-0.888-4.22l-0.007,0.003
		l-9.542-21.143l0.021-0.01c-0.551-1.248-0.915-2.946-0.848-3.951c0.386-5.769,4.612-9.651,10.515-9.661c0.006,0,0.013,0,0.02,0
		c4.026,0,7.048,2.151,9.235,6.576l53.156,122.53l0.241-0.105l-0.241,0.105l23.377,53.559c0.205-0.008,0.41-0.01,0.616-0.006
		L958.972,212.137L958.972,212.137z"/>
	<path fill="#EAEAEA" d="M989.375,218.594l-53.15-122.517l0.02-0.008c-1.839-4.481-1.39-8.273,1.333-11.274
		c3.97-4.371,9.684-4.9,14.22-1.315c0.79,0.624,1.805,2.034,2.36,3.28l0.022-0.01l9.275,21.261l-0.006,0.003
		c0.6,1.338,1.665,2.806,2.533,3.49c2.115,1.665,4.47,2.485,6.8,2.485c2.948,0,5.857-1.314,8.188-3.89
		c2.997-3.313,3.659-8.037,1.688-12.04l0,0L940.475-0.098h-0.617l42.282,98.38l0.261-0.112l-0.255,0.126
		c1.875,3.796,1.249,8.28-1.595,11.423c-3.961,4.378-9.676,4.916-14.217,1.34c-0.761-0.599-1.724-1.919-2.294-3.124l0,0
		l-9.366-21.47l-0.025,0.011c-0.602-1.325-1.646-2.764-2.501-3.439c-4.785-3.781-10.809-3.226-14.99,1.379
		c-2.881,3.173-3.364,7.162-1.442,11.857l-0.021,0.009l53.16,122.541l0.254-0.111l-0.254,0.111l20.557,47.098h0.618L989.375,218.594
		L989.375,218.594z"/>
	<path fill="#EAEAEA" d="M905.861,26.726c1.496,3.769,5.321,6.02,10.237,6.02c6.22,0,10.68-4.088,11.097-10.172
		c0.075-1.102-0.298-2.877-0.888-4.219l-0.006,0.003l-8.33-18.456h-0.622l8.502,18.837l0,0c0.512,1.23,0.844,2.832,0.778,3.797
		c-0.396,5.768-4.628,9.644-10.532,9.644c-4.678,0-8.311-2.12-9.714-5.67l-0.263,0.104l0.26-0.113L894.771-0.098h-0.618
		L905.861,26.726L905.861,26.726z"/>
	<path fill="#EAEAEA" d="M882.295,256.653l0.255-0.126c-2.262-4.575-5.54-6.894-9.746-6.894c-0.006,0-0.013,0-0.02,0
		c-6.22,0.011-10.673,4.105-11.08,10.191c-0.073,1.102,0.304,2.875,0.896,4.217l0.016-0.006l0.813,1.883l0.594-0.016l-0.903-2.09
		c-0.551-1.248-0.915-2.945-0.848-3.951c0.385-5.77,4.612-9.65,10.515-9.66c0.006,0,0.013,0,0.02,0c4.025,0,7.047,2.15,9.234,6.573
		l3.877,9.144h0.616l-3.975-9.375L882.295,256.653z"/>
	<polygon fill="#EAEAEA" points="912.455,157.198 959.193,265.933 959.803,265.917 912.977,156.975 	"/>
	<path fill="#EAEAEA" d="M903.192,150.534c0.007,0,0.013,0,0.021,0c4.026,0,7.049,2.152,9.235,6.579l0.508-0.251
		c-2.261-4.574-5.539-6.895-9.744-6.895c-0.006,0-0.014,0-0.021,0c-6.22,0.011-10.673,4.107-11.08,10.191
		c-0.073,1.086,0.294,2.826,0.872,4.161l-0.023,0.011l9.636,21.351l0,0c0.512,1.231,0.844,2.832,0.778,3.797
		c-0.396,5.769-4.629,9.644-10.532,9.644c-4.68,0-8.311-2.121-9.714-5.67l-0.263,0.104l0.259-0.113L842.27,99.845l0,0L798.913-0.098
		h-0.617l43.455,100.168l0.23-0.1l-0.23,0.101l40.853,93.598h0.001c1.496,3.77,5.321,6.02,10.237,6.02
		c6.22,0,10.68-4.088,11.097-10.172c0.075-1.102-0.298-2.877-0.888-4.219l-0.006,0.002l-9.542-21.143l0.021-0.01
		c-0.551-1.247-0.915-2.945-0.848-3.951C893.062,154.426,897.287,150.543,903.192,150.534z"/>
	<path fill="#EAEAEA" d="M931.393,253.417c-0.602-1.326-1.646-2.765-2.501-3.439c-4.785-3.781-10.81-3.227-14.99,1.379
		c-2.88,3.172-3.365,7.161-1.442,11.855l-0.021,0.008l1.146,2.699l0.608,0.016l-1.225-2.914l0.02-0.008
		c-1.839-4.48-1.39-8.274,1.333-11.274c3.97-4.37,9.684-4.899,14.22-1.315c0.79,0.625,1.805,2.035,2.36,3.279l0.022-0.01
		l5.341,12.242h0.619l-5.466-12.527L931.393,253.417z"/>
	<path fill="#EAEAEA" d="M855.659,193.719L811.867,93.388l0,0L771.312-0.098h-0.618l40.654,93.712l0.206-0.089l-0.206,0.09
		l43.708,100.137l-0.177,0.088c1.875,3.795,1.249,8.279-1.596,11.423c-3.961,4.378-9.674,4.917-14.217,1.34
		c-0.76-0.599-1.723-1.919-2.293-3.124l0,0l-9.367-21.471l-0.023,0.012c-0.603-1.325-1.646-2.764-2.501-3.439
		c-4.785-3.781-10.81-3.227-14.99,1.379c-2.876,3.168-3.363,7.151-1.449,11.838l-0.016,0.008l32.347,74.137
		c0.206-0.001,0.411-0.004,0.617-0.004l-32.426-74.316l0.014-0.006c-1.839-4.482-1.39-8.275,1.333-11.275
		c3.968-4.37,9.683-4.899,14.219-1.314c0.79,0.624,1.806,2.034,2.361,3.279l0.022-0.01l9.275,21.261l-0.006,0.003
		c0.6,1.338,1.665,2.807,2.533,3.49c2.115,1.664,4.47,2.484,6.8,2.484c2.949,0,5.857-1.313,8.188-3.89
		c2.948-3.259,3.631-7.883,1.776-11.845L855.659,193.719z"/>
	<polygon fill="#EAEAEA" points="739.304,204.528 765.688,265.917 766.305,265.917 739.824,204.304 	"/>
	<path fill="#EAEAEA" d="M730.058,197.297c-0.006,0-0.013,0-0.021,0c-6.22,0.01-10.673,4.105-11.08,10.189
		c-0.072,1.088,0.295,2.827,0.872,4.162l-0.023,0.012l9.636,21.35l0,0c0.512,1.23,0.844,2.832,0.778,3.797
		c-0.396,5.768-4.628,9.643-10.532,9.643c-4.679,0-8.31-2.119-9.714-5.67l-0.262,0.104l0.259-0.112l-40.854-93.597l0,0
		L615.968,24.657l0.02-0.008c-1.839-4.481-1.39-8.273,1.333-11.274c3.969-4.371,9.684-4.9,14.219-1.315
		c0.79,0.624,1.806,2.034,2.361,3.28l0.022-0.01l9.276,21.26l-0.006,0.003c0.6,1.338,1.665,2.806,2.533,3.49
		c2.115,1.665,4.47,2.485,6.8,2.485c2.948,0,5.857-1.314,8.188-3.89c2.997-3.312,3.658-8.037,1.688-12.04l0,0L650.912-0.098h-0.616
		l11.587,26.96l0.258-0.111l-0.252,0.124c1.875,3.796,1.249,8.28-1.595,11.423c-3.962,4.378-9.676,4.916-14.218,1.34
		c-0.76-0.599-1.723-1.919-2.293-3.124l0,0l-9.367-21.47l-0.024,0.011c-0.603-1.325-1.646-2.764-2.501-3.439
		c-4.785-3.781-10.81-3.227-14.99,1.379c-2.881,3.173-3.365,7.162-1.443,11.857l-0.021,0.009l53.16,122.54l0.244-0.105l-0.243,0.105
		l40.853,93.598h0.001c1.496,3.77,5.321,6.02,10.237,6.02c6.22,0,10.68-4.088,11.097-10.172c0.075-1.102-0.298-2.877-0.888-4.219
		l-0.006,0.002l-9.543-21.143l0.021-0.01c-0.551-1.247-0.915-2.945-0.848-3.951c0.386-5.77,4.612-9.652,10.515-9.66
		c0.008,0,0.014,0,0.021,0c4.026,0,7.049,2.151,9.236,6.578l0.508-0.251C737.541,199.616,734.264,197.297,730.058,197.297z"/>
	<path fill="#EAEAEA" d="M682.508,241.049l-43.792-100.332l0,0l-53.16-122.541l-0.26,0.113l0.255-0.126
		c-2.262-4.575-5.54-6.894-9.746-6.894c-0.006,0-0.013,0-0.02,0c-6.22,0.011-10.673,4.106-11.08,10.191
		c-0.072,1.087,0.295,2.827,0.872,4.162l-0.023,0.011l9.636,21.35c0.512,1.232,0.845,2.832,0.779,3.797
		c-0.396,5.768-4.628,9.643-10.532,9.643c-4.238,0-7.983-2.544-9.54-6.481l-0.266,0.105l0.262-0.114L532.316-0.099
		c-0.206,0-0.413,0.001-0.619-0.001l23.675,54.261l0,0c1.646,4.15,5.596,6.831,10.063,6.831c6.22,0,10.68-4.088,11.097-10.172
		c0.075-1.102-0.298-2.877-0.888-4.22l-0.007,0.003l-9.542-21.143l0.021-0.01c-0.551-1.248-0.915-2.946-0.848-3.951
		c0.386-5.769,4.612-9.652,10.515-9.661c0.006,0,0.012,0,0.02,0c4.026,0,7.048,2.151,9.235,6.576l53.156,122.53l0.237-0.104
		l-0.237,0.104l43.793,100.333l0.261-0.114l-0.255,0.127c1.794,3.633,1.063,8.069-1.861,11.303
		c-3.962,4.377-9.675,4.916-14.218,1.34c-0.76-0.598-1.723-1.919-2.293-3.124l0,0l-9.367-21.47l-0.023,0.011
		c-0.602-1.325-1.646-2.765-2.501-3.438c-4.785-3.781-10.81-3.228-14.99,1.379c-2.876,3.168-3.362,7.15-1.449,11.838l-0.016,0.006
		l11.694,26.802c0.205-0.001,0.41-0.011,0.613-0.011l-11.77-26.975l0.014-0.006c-1.839-4.48-1.39-8.273,1.333-11.273
		c3.97-4.371,9.684-4.9,14.22-1.315c0.789,0.624,1.805,2.034,2.36,3.278l0.022-0.01l9.275,21.262l-0.006,0.003
		c0.601,1.339,1.665,2.806,2.533,3.489c2.115,1.666,4.47,2.486,6.8,2.486c2.949,0,5.857-1.314,8.188-3.891
		C683.631,249.568,684.398,244.89,682.508,241.049L682.508,241.049z"/>
	<path fill="#EAEAEA" d="M1228.06,162.559l0.254-0.125c-2.261-4.575-5.54-6.895-9.746-6.895c-0.006,0-0.013,0-0.019,0
		c-6.221,0.01-10.673,4.106-11.08,10.191c-0.073,1.087,0.294,2.827,0.872,4.162l-0.024,0.011l9.636,21.351l0,0
		c0.513,1.23,0.845,2.832,0.778,3.797c-0.396,5.768-4.628,9.644-10.532,9.644c-4.237,0-7.982-2.544-9.54-6.481l-0.267,0.106
		l0.264-0.114l-43.927-100.679l0.014-0.006c-1.839-4.481-1.39-8.274,1.333-11.274c3.97-4.371,9.684-4.9,14.22-1.315
		c0.79,0.624,1.805,2.034,2.36,3.279l0.022-0.01l9.275,21.261l-0.006,0.003c0.601,1.339,1.665,2.806,2.533,3.49
		c2.115,1.665,4.47,2.485,6.8,2.485c2.949,0,5.857-1.314,8.188-3.89c2.949-3.259,3.631-7.883,1.776-11.844l0.18-0.078l-43.517-99.7
		c-0.207-0.001-0.413-0.003-0.62-0.004l43.532,99.735l-0.177,0.087c1.875,3.796,1.249,8.28-1.595,11.423
		c-3.961,4.378-9.674,4.917-14.218,1.34c-0.76-0.598-1.723-1.919-2.293-3.124l0,0l-9.366-21.47l-0.024,0.011
		c-0.603-1.325-1.646-2.764-2.501-3.439c-4.785-3.781-10.809-3.227-14.99,1.379c-2.876,3.169-3.361,7.151-1.449,11.838l-0.016,0.007
		l43.946,100.72l0,0c1.646,4.149,5.595,6.831,10.063,6.831c6.221,0,10.681-4.088,11.098-10.172c0.075-1.103-0.298-2.877-0.888-4.219
		l-0.007,0.002l-9.542-21.143l0.022-0.01c-0.551-1.248-0.915-2.947-0.849-3.951c0.386-5.77,4.612-9.652,10.516-9.661
		c0.006,0,0.012,0,0.019,0c4.026,0,7.048,2.151,9.235,6.574l43.771,103.237h0.616l-43.87-103.469L1228.06,162.559z"/>
	<path fill="#EAEAEA" d="M1258.752,168.917c-1.84-4.48-1.391-8.273,1.332-11.273c3.97-4.371,9.684-4.9,14.22-1.314
		c0.791,0.623,1.805,2.033,2.36,3.278l0.022-0.01l9.276,21.261l-0.007,0.003c0.601,1.339,1.665,2.806,2.533,3.49
		c2.115,1.665,4.47,2.485,6.799,2.485c2.949,0,5.857-1.313,8.188-3.891c2.997-3.313,3.659-8.037,1.688-12.039l0,0l-46.427-108.026
		l-0.521,0.224l46.428,108.024l0.261-0.111l-0.254,0.125c1.875,3.797,1.248,8.279-1.595,11.423
		c-3.961,4.378-9.676,4.916-14.218,1.341c-0.76-0.6-1.724-1.92-2.293-3.125l0,0l-9.366-21.47l-0.025,0.011
		c-0.602-1.324-1.646-2.764-2.501-3.439c-4.785-3.78-10.809-3.225-14.99,1.38c-2.88,3.172-3.364,7.161-1.442,11.854l-0.021,0.01
		l41.039,96.791h0.616l-41.124-96.992L1258.752,168.917z"/>
	<polygon fill="#EAEAEA" points="1232.713,228.618 1248.742,265.917 1249.36,265.917 1233.234,228.395 	"/>
	<path fill="#EAEAEA" d="M1223.467,221.387c-0.006,0-0.014,0-0.021,0c-6.22,0.01-10.673,4.105-11.08,10.189
		c-0.072,1.088,0.294,2.827,0.872,4.162l-0.023,0.012l9.636,21.35l0,0c0.511,1.23,0.844,2.832,0.778,3.796
		c-0.132,1.905-0.688,3.599-1.578,5.021h0.676c0.826-1.433,1.339-3.111,1.467-4.981c0.075-1.103-0.298-2.877-0.888-4.22
		l-0.006,0.004l-9.542-21.143l0.021-0.011c-0.551-1.247-0.915-2.946-0.848-3.95c0.386-5.77,4.612-9.652,10.515-9.662
		c0.007,0,0.013,0,0.021,0c4.026,0,7.049,2.152,9.235,6.58l0.509-0.252C1230.95,223.708,1227.673,221.387,1223.467,221.387z"/>
	<path fill="#EAEAEA" d="M1147.64,253.438c-0.603-1.324-1.646-2.764-2.501-3.439c-4.785-3.781-10.811-3.227-14.99,1.379
		c-2.876,3.168-3.363,7.151-1.449,11.838l-0.016,0.008l1.193,2.695h0.583l-1.238-2.879l0.014-0.006
		c-1.839-4.482-1.39-8.275,1.333-11.275c3.969-4.37,9.684-4.899,14.219-1.314c0.791,0.624,1.806,2.034,2.361,3.279l0.022-0.01
		l5.323,12.203h0.619l-5.449-12.49L1147.64,253.438z"/>
	<path fill="#EAEAEA" d="M1054.906,209.889l0.256-0.127c-2.261-4.575-5.54-6.895-9.745-6.895c-0.007,0-0.014,0-0.02,0
		c-6.22,0.01-10.673,4.106-11.08,10.191c-0.073,1.087,0.294,2.826,0.872,4.162l-0.024,0.011l9.637,21.351l0,0
		c0.511,1.23,0.844,2.832,0.777,3.795c-0.396,5.769-4.628,9.645-10.531,9.645c-4.238,0-7.983-2.544-9.541-6.48l-0.266,0.104
		l0.262-0.114l-43.927-100.678l0.014-0.006c-1.839-4.48-1.39-8.273,1.333-11.274c3.97-4.371,9.684-4.9,14.22-1.315
		c0.79,0.624,1.805,2.035,2.36,3.279l0.022-0.01l9.276,21.262l-0.007,0.002c0.601,1.338,1.665,2.807,2.533,3.49
		c2.115,1.666,4.47,2.485,6.8,2.485c2.949,0,5.857-1.313,8.188-3.89c2.949-3.26,3.631-7.883,1.776-11.844l0.18-0.078L984.48,46.624
		l0,0L964.211-0.098h-0.618L983.96,46.85l0.195-0.085l-0.195,0.086l43.706,100.138l-0.176,0.088
		c1.875,3.795,1.249,8.279-1.595,11.422c-3.961,4.379-9.674,4.918-14.217,1.34c-0.76-0.598-1.724-1.918-2.293-3.123l0,0
		l-9.367-21.471l-0.024,0.012c-0.602-1.325-1.646-2.764-2.501-3.439c-4.784-3.781-10.809-3.227-14.989,1.379
		c-2.876,3.167-3.363,7.151-1.449,11.837l-0.016,0.008l43.945,100.719l0,0c1.646,4.15,5.596,6.832,10.063,6.832
		c6.22,0,10.68-4.088,11.097-10.172c0.075-1.103-0.298-2.877-0.888-4.219l-0.006,0.002l-9.542-21.143l0.021-0.01
		c-0.551-1.248-0.915-2.946-0.848-3.951c0.385-5.77,4.612-9.652,10.515-9.661c0.006,0,0.013,0,0.02,0
		c4.025,0,7.047,2.151,9.234,6.575l23.687,55.906h0.616l-23.784-56.139L1054.906,209.889z"/>
	<path fill="#EAEAEA" d="M1085.568,110.097c-2.261-4.575-5.54-6.894-9.745-6.894c-0.006,0-0.013,0-0.02,0
		c-6.221,0.01-10.673,4.106-11.08,10.19c-0.073,1.087,0.294,2.827,0.872,4.162l-0.024,0.011l9.636,21.351l0,0
		c0.512,1.23,0.845,2.832,0.778,3.797c-0.396,5.768-4.628,9.644-10.532,9.644c-4.679,0-8.31-2.12-9.714-5.67l-0.262,0.104
		l0.259-0.113l-40.853-93.597l0,0l-23.07-53.179h-0.618l23.168,53.405l0.269-0.116l-0.268,0.117l40.854,93.599l0,0
		c1.496,3.768,5.32,6.018,10.236,6.018c6.221,0,10.681-4.088,11.098-10.172c0.074-1.102-0.298-2.877-0.889-4.219l-0.006,0.004
		l-9.543-21.144l0.022-0.01c-0.551-1.247-0.915-2.946-0.849-3.951c0.387-5.769,4.612-9.652,10.516-9.661c0.007,0,0.013,0,0.02,0
		c4.027,0,7.049,2.152,9.236,6.579L1085.568,110.097z"/>
	<path fill="#EAEAEA" d="M1130.326,230.276c2.997-3.313,3.659-8.037,1.689-12.04l0,0l-46.427-108.025l-0.521,0.224l46.427,108.024
		l0.261-0.111l-0.255,0.125c1.875,3.796,1.25,8.279-1.595,11.423c-3.961,4.378-9.675,4.916-14.217,1.34
		c-0.76-0.599-1.724-1.919-2.293-3.124l0,0l-9.367-21.47l-0.024,0.011c-0.603-1.324-1.646-2.764-2.501-3.439
		c-4.785-3.78-10.811-3.225-14.99,1.379c-2.88,3.173-3.365,7.162-1.443,11.855l-0.021,0.01l20.978,49.477h0.616l-21.063-49.678
		l0.02-0.008c-1.839-4.481-1.39-8.274,1.333-11.274c3.969-4.371,9.683-4.899,14.219-1.315c0.791,0.625,1.806,2.034,2.361,3.279
		l0.021-0.01l9.276,21.261l-0.006,0.003c0.6,1.338,1.665,2.807,2.533,3.49c2.114,1.665,4.47,2.484,6.8,2.484
		C1125.087,234.167,1127.994,232.853,1130.326,230.276z"/>
	<path fill="#EAEAEA" d="M28.266,2.444l-0.263,0.115l40.853,93.598h0.001c1.496,3.769,5.321,6.019,10.237,6.019
		c6.22,0,10.68-4.088,11.097-10.172c0.075-1.102-0.298-2.877-0.888-4.22l-0.007,0.003l-9.542-21.143l0.021-0.01
		c-0.551-1.248-0.915-2.947-0.848-3.951c0.386-5.769,4.612-9.652,10.515-9.661c0.007,0,0.013,0,0.02,0
		c4.028,0,7.049,2.152,9.237,6.579l0.508-0.251c-2.262-4.575-5.54-6.894-9.746-6.894c-0.006,0-0.014,0-0.02,0
		c-6.22,0.01-10.673,4.106-11.08,10.191c-0.072,1.087,0.294,2.827,0.872,4.162L79.21,66.82l9.636,21.351l0,0
		c0.512,1.231,0.844,2.832,0.778,3.797c-0.396,5.768-4.628,9.644-10.532,9.644c-4.679,0-8.31-2.12-9.714-5.67l-0.263,0.104
		l0.259-0.113L28.524,2.335l0,0L27.5-0.083l-0.604,0.021l1.106,2.618L28.266,2.444z"/>
	<path fill="#EAEAEA" d="M68.548,159.141l0.254-0.126c-2.261-4.575-5.539-6.894-9.745-6.894c-0.006,0-0.013,0-0.02,0
		c-6.221,0.01-10.674,4.105-11.08,10.189c-0.073,1.087,0.294,2.827,0.872,4.162l-0.024,0.011l9.636,21.351l0,0
		c0.513,1.23,0.845,2.832,0.778,3.797c-0.395,5.768-4.628,9.644-10.532,9.644c-4.237,0-7.982-2.544-9.54-6.481L38.88,194.9
		l0.264-0.114L0.646,106.55v1.305c0,0.029-0.012,0.05-0.016,0.077l37.994,87.078l0,0c1.646,4.15,5.594,6.832,10.063,6.832
		c6.221,0,10.681-4.088,11.098-10.172c0.074-1.103-0.299-2.877-0.889-4.219l-0.007,0.002l-9.543-21.143l0.023-0.01
		c-0.552-1.247-0.915-2.946-0.849-3.951c0.387-5.77,4.612-9.652,10.516-9.661c0.007,0,0.013,0,0.02,0
		c4.026,0,7.047,2.151,9.235,6.576l46.269,106.653h0.618L68.807,159.03L68.548,159.141z"/>
	<path fill="#EAEAEA" d="M99.241,165.499c-1.84-4.48-1.391-8.273,1.333-11.273c3.968-4.371,9.683-4.898,14.219-1.314
		c0.791,0.625,1.806,2.034,2.36,3.279l0.022-0.01l9.276,21.261l-0.007,0.003c0.601,1.338,1.665,2.807,2.533,3.489
		c2.115,1.665,4.471,2.485,6.8,2.485c2.948,0,5.857-1.314,8.188-3.891c2.997-3.313,3.659-8.037,1.688-12.039l0,0L99.229,59.463
		l-0.521,0.224l46.427,108.024l0.261-0.111l-0.255,0.126c1.875,3.796,1.248,8.28-1.595,11.423c-3.961,4.378-9.674,4.917-14.217,1.34
		c-0.761-0.599-1.724-1.919-2.293-3.125l0,0l-9.367-21.47l-0.025,0.011c-0.602-1.324-1.646-2.764-2.501-3.439
		c-4.785-3.78-10.809-3.225-14.99,1.38c-2.881,3.173-3.365,7.161-1.442,11.856l-0.021,0.01l43.479,100.223
		c0.203-0.008,0.407-0.016,0.61-0.016l-43.56-100.41L99.241,165.499z"/>
	<path fill="#EAEAEA" d="M10.783,81.512c0.791,0.625,1.806,2.035,2.36,3.28l0.022-0.01l9.275,21.261l-0.006,0.003
		c0.601,1.339,1.665,2.806,2.533,3.489c2.115,1.665,4.47,2.485,6.8,2.485c2.948,0,5.857-1.314,8.188-3.89
		c2.948-3.259,3.632-7.883,1.776-11.844l0.18-0.078L0.709,1.806v1.417L41.308,96.24l-0.177,0.087
		c1.875,3.796,1.249,8.28-1.595,11.423c-3.961,4.378-9.675,4.917-14.218,1.339c-0.76-0.598-1.723-1.918-2.293-3.124l0,0
		l-9.366-21.47l-0.024,0.011c-0.602-1.325-1.646-2.763-2.501-3.439c-3.248-2.566-7.063-3.121-10.488-1.783v0.626
		C3.945,78.541,7.643,79.031,10.783,81.512z"/>
	<path fill="#EAEAEA" d="M73.201,225.2l17.503,40.727c0.205-0.006,0.408-0.006,0.613-0.006l-17.597-40.944L73.201,225.2z"/>
	<path fill="#EAEAEA" d="M43.872,261.452l-0.263,0.104l0.259-0.113L3.017,167.849l0,0l-2.35-5.542v1.451l1.828,4.312l0.26-0.11
		l-0.259,0.113l40.853,93.598h0.001c0.71,1.791,1.958,3.224,3.586,4.25c0.399,0,0.797,0.006,1.196,0.006
		C46.159,264.956,44.658,263.439,43.872,261.452z"/>
	<path fill="#EAEAEA" d="M63.955,217.969c-0.006,0-0.014,0-0.02,0c-6.22,0.011-10.673,4.105-11.08,10.191
		c-0.072,1.086,0.294,2.826,0.872,4.162l-0.023,0.01l9.636,21.352l0,0c0.512,1.23,0.844,2.832,0.778,3.797
		c-0.265,3.846-2.239,6.842-5.272,8.417h1.141c2.706-1.756,4.445-4.698,4.697-8.379c0.075-1.103-0.298-2.877-0.888-4.22
		l-0.007,0.004l-9.542-21.143l0.021-0.011c-0.551-1.248-0.915-2.946-0.848-3.95c0.386-5.77,4.612-9.652,10.515-9.662
		c0.006,0,0.013,0,0.02,0c4.027,0,7.049,2.152,9.236,6.58l0.509-0.252C71.44,220.288,68.161,217.969,63.955,217.969z"/>
	<path fill="#EAEAEA" d="M16.406,261.722L0.688,225.711v1.416l15.113,34.625l-0.177,0.088c0.645,1.305,0.985,2.691,1.051,4.076
		h0.568c-0.063-1.396-0.401-2.791-1.021-4.115L16.406,261.722z"/>
	<path fill="#EAEAEA" d="M63.576,29.226c1.645,4.149,5.594,6.831,10.063,6.831c6.22,0,10.68-4.088,11.097-10.172
		c0.075-1.102-0.298-2.877-0.888-4.219l-0.006,0.003L74.288,0.501L74.291,0.5c-0.129-0.395,0.116,0.381-0.196-0.577
		c-0.016-0.049-0.018-0.026-0.016-0.001l-0.627-0.034c0.042,0.124,0.142,0.366,0.309,0.809l-0.004,0.002l9.636,21.35l0,0
		c0.512,1.231,0.845,2.832,0.778,3.797c-0.396,5.768-4.628,9.644-10.532,9.644c-4.238,0-7.983-2.544-9.54-6.481l-0.267,0.106
		L64.095,29L51.406-0.083h-0.618L63.576,29.226L63.576,29.226z"/>
	<path fill="#EAEAEA" d="M73.416-0.114h-0.004C73.408-0.069,73.41-0.09,73.416-0.114z"/>
	<path fill="#EAEAEA" d="M73.416-0.114l0.035,0.002c-0.001-0.002-0.002-0.005-0.003-0.007C73.433-0.165,73.422-0.138,73.416-0.114z"
		/>
	<path fill="#EAEAEA" d="M151.397,11.659c0.601,1.339,1.665,2.806,2.533,3.49c2.115,1.665,4.47,2.485,6.8,2.485
		c2.948,0,5.857-1.313,8.188-3.89c2.997-3.312,3.659-8.036,1.688-12.04l0,0l-0.805-1.786c-0.203,0-0.359,0-0.594,0l0.878,2.01
		l0.259-0.111l-0.252,0.125c1.875,3.796,1.248,8.28-1.595,11.423c-3.96,4.378-9.673,4.917-14.217,1.34
		c-0.761-0.598-1.724-1.919-2.294-3.124l0,0L146.89-0.106c-0.208-0.002-0.415-0.006-0.623-0.009l5.135,11.771L151.397,11.659z"/>
	<path fill="#EAEAEA" d="M498.135,193.931l-53.15-122.517l0.021-0.008c-1.839-4.481-1.391-8.274,1.333-11.274
		c3.969-4.371,9.682-4.899,14.219-1.315c0.791,0.625,1.806,2.035,2.361,3.28l0.021-0.01l9.276,21.261l-0.006,0.003
		c0.6,1.339,1.665,2.806,2.532,3.489c2.115,1.665,4.471,2.485,6.801,2.485c2.947,0,5.856-1.314,8.188-3.89
		c2.997-3.312,3.659-8.037,1.689-12.04l0,0L459.834-0.098h-0.617L490.9,73.619l0.259-0.111l-0.252,0.124
		c1.875,3.796,1.249,8.28-1.595,11.423c-3.961,4.378-9.675,4.917-14.217,1.339c-0.761-0.598-1.724-1.918-2.293-3.124l0,0
		l-9.367-21.47l-0.025,0.011c-0.602-1.325-1.646-2.763-2.501-3.439c-4.785-3.781-10.809-3.226-14.989,1.379
		c-2.882,3.173-3.366,7.162-1.443,11.857l-0.021,0.009l53.16,122.54l0.286-0.123l-0.286,0.125l31.321,71.76h0.618L498.135,193.931
		L498.135,193.931z"/>
	<path fill="#EAEAEA" d="M368.199,11.953c0.601,1.339,1.665,2.806,2.533,3.489c2.115,1.665,4.47,2.485,6.8,2.485
		c2.948,0,5.857-1.314,8.188-3.89c3.079-3.403,3.846-8.081,1.956-11.922l0,0l-0.984-2.214c-0.198,0.02-0.406,0.016-0.594,0
		l1.058,2.441l0.257-0.112l-0.252,0.124c1.794,3.633,1.063,8.07-1.861,11.303c-3.961,4.378-9.675,4.916-14.218,1.339
		c-0.76-0.598-1.723-1.918-2.293-3.124l0,0l-5.223-11.97h-0.619l5.257,12.048L368.199,11.953z"/>
	<path fill="#EAEAEA" d="M414.62,2.064c1.496,3.769,5.321,6.02,10.237,6.02c5.513,0,9.637-3.215,10.795-8.182h-0.579
		c-1.143,4.629-5.035,7.615-10.216,7.615c-4.679,0-8.31-2.12-9.714-5.67l-0.261,0.103l0.257-0.112l-0.837-1.92
		c-0.219,0.016-0.406-0.016-0.594,0L414.62,2.064L414.62,2.064z"/>
	<path fill="#EAEAEA" d="M388.806,230.56l0.253-0.125c-2.261-4.575-5.539-6.894-9.745-6.894c-0.006,0-0.013,0-0.02,0
		c-6.221,0.01-10.674,4.105-11.08,10.189c-0.073,1.087,0.294,2.827,0.872,4.162l-0.024,0.011l9.636,21.351l0,0
		c0.513,1.23,0.845,2.832,0.778,3.797c-0.069,1.012-0.263,1.961-0.557,2.845h0.594c0.273-0.878,0.46-1.812,0.529-2.808
		c0.074-1.102-0.299-2.877-0.889-4.219l-0.007,0.004l-9.542-21.144l0.023-0.011c-0.552-1.246-0.915-2.945-0.849-3.95
		c0.387-5.769,4.612-9.651,10.516-9.661c0.007,0,0.013,0,0.02,0c4.026,0,7.048,2.152,9.235,6.577l15.285,35.233h0.617
		l-15.387-35.469L388.806,230.56z"/>
	<path fill="#EAEAEA" d="M465.912,238.909l-46.427-108.026l-0.521,0.224l46.427,108.024l0.261-0.111l-0.255,0.126
		c1.875,3.796,1.248,8.28-1.595,11.423c-3.961,4.379-9.674,4.917-14.217,1.34c-0.761-0.599-1.724-1.918-2.293-3.125l0,0
		l-9.367-21.47l-0.025,0.011c-0.601-1.324-1.646-2.763-2.501-3.439c-4.785-3.78-10.809-3.225-14.99,1.38
		c-2.881,3.173-3.365,7.161-1.442,11.856l-0.021,0.01l12.488,28.787h0.618l-12.576-28.99l0.02-0.008
		c-1.839-4.481-1.39-8.274,1.333-11.274c3.97-4.371,9.684-4.899,14.22-1.315c0.791,0.625,1.806,2.035,2.36,3.28l0.022-0.01
		l9.275,21.261l-0.006,0.004c0.601,1.338,1.665,2.805,2.533,3.488c2.115,1.665,4.47,2.484,6.8,2.484
		c2.948,0,5.857-1.313,8.188-3.889C467.221,247.635,467.883,242.913,465.912,238.909L465.912,238.909z"/>
	<path fill="#EAEAEA" d="M409.7,124.443c0.006,0,0.013,0,0.02,0c4.027,0,7.049,2.152,9.236,6.579l0.509-0.251
		c-2.262-4.575-5.54-6.894-9.746-6.894c-0.006,0-0.014,0-0.02,0c-6.22,0.01-10.673,4.106-11.08,10.191
		c-0.072,1.087,0.294,2.827,0.872,4.162l-0.023,0.011l9.636,21.352l0,0c0.512,1.23,0.844,2.832,0.778,3.797
		c-0.396,5.768-4.628,9.645-10.532,9.645c-4.679,0-8.311-2.121-9.714-5.671l-0.264,0.104l0.26-0.113L348.78,73.759l0,0
		l-31.312-73.85c-0.204,0-0.409,0.004-0.613,0.006l31.403,74.065l0.259-0.11l-0.257,0.112l40.853,93.599h0.001
		c1.496,3.769,5.321,6.019,10.237,6.019c6.22,0,10.68-4.089,11.097-10.173c0.075-1.102-0.298-2.877-0.888-4.219l-0.007,0.002
		l-9.542-21.143l0.021-0.01c-0.551-1.248-0.915-2.947-0.848-3.951C399.571,128.335,403.797,124.452,409.7,124.443z"/>
	<path fill="#EAEAEA" d="M362.17,167.629L318.377,67.296l0,0L289.802-0.098h-0.616l28.67,67.618l0.263-0.111l-0.261,0.114
		l43.793,100.333l0.259-0.113l-0.253,0.125c1.794,3.633,1.063,8.07-1.861,11.303c-3.961,4.379-9.675,4.916-14.218,1.34
		c-0.76-0.598-1.723-1.918-2.293-3.125l0,0l-9.366-21.469l-0.024,0.01c-0.601-1.324-1.646-2.762-2.501-3.438
		c-4.785-3.78-10.809-3.228-14.99,1.38c-2.877,3.168-3.363,7.15-1.449,11.836l-0.016,0.008l43.722,100.207
		c0.206,0,0.412-0.002,0.619,0l-43.802-100.392l0.014-0.006c-1.839-4.479-1.391-8.272,1.333-11.274
		c3.969-4.369,9.683-4.9,14.22-1.314c0.791,0.625,1.806,2.035,2.36,3.279l0.022-0.01l9.275,21.262l-0.006,0.002
		c0.601,1.34,1.665,2.807,2.533,3.49c2.115,1.664,4.47,2.484,6.8,2.484c2.948,0,5.857-1.314,8.188-3.891
		C363.293,176.147,364.059,171.469,362.17,167.629L362.17,167.629z"/>
	<path fill="#EAEAEA" d="M324.983,241.26l-53.149-122.516l0.02-0.008c-1.839-4.481-1.39-8.274,1.333-11.274
		c3.969-4.371,9.684-4.899,14.219-1.315c0.791,0.625,1.807,2.035,2.361,3.28l0.022-0.01l9.275,21.261l-0.006,0.003
		c0.6,1.338,1.665,2.806,2.533,3.489c2.114,1.664,4.47,2.484,6.8,2.484c2.948,0,5.856-1.314,8.188-3.89
		c2.997-3.313,3.659-8.037,1.689-12.04l0,0L271.841,12.699l-0.521,0.224l46.427,108.025l0.261-0.112l-0.254,0.125
		c1.875,3.796,1.248,8.28-1.596,11.423c-3.961,4.378-9.674,4.917-14.217,1.339c-0.76-0.598-1.723-1.918-2.293-3.124h0.001
		l-9.366-21.47l-0.025,0.011c-0.602-1.325-1.646-2.763-2.501-3.439c-4.785-3.781-10.81-3.226-14.99,1.379
		c-2.881,3.173-3.366,7.162-1.442,11.857l-0.021,0.009l53.16,122.54l0.279-0.122l-0.279,0.122l10.672,24.451h0.618L324.983,241.26
		L324.983,241.26z"/>
	<path fill="#EAEAEA" d="M241.469,49.393c1.496,3.769,5.321,6.019,10.237,6.019c6.22,0,10.68-4.088,11.097-10.172
		c0.075-1.102-0.298-2.877-0.888-4.22l-0.007,0.003l-9.542-21.143l0.021-0.01c-0.551-1.248-0.915-2.947-0.848-3.951
		c0.386-5.769,4.611-9.652,10.515-9.661c0.006,0,0.012,0,0.02,0c4.027,0,7.049,2.152,9.236,6.579l0.508-0.251
		c-2.261-4.575-5.54-6.894-9.746-6.894c-0.006,0-0.013,0-0.019,0c-6.22,0.011-10.673,4.106-11.08,10.191
		c-0.073,1.087,0.294,2.827,0.872,4.162l-0.024,0.011l9.637,21.351l0,0c0.512,1.231,0.844,2.832,0.777,3.797
		c-0.396,5.768-4.628,9.643-10.531,9.643c-4.68,0-8.311-2.12-9.715-5.67l-0.264,0.105l0.26-0.114L220.492-0.083h-0.618
		L241.469,49.393L241.469,49.393z"/>
	<polygon fill="#EAEAEA" points="245.813,178.436 283.411,265.917 284.028,265.917 246.334,178.213 	"/>
	<path fill="#EAEAEA" d="M236.567,171.206c-0.006,0-0.013,0-0.019,0c-6.22,0.01-10.673,4.105-11.08,10.19
		c-0.073,1.087,0.294,2.827,0.872,4.162l-0.024,0.011l9.637,21.352l0,0c0.512,1.23,0.845,2.832,0.777,3.797
		c-0.396,5.768-4.628,9.643-10.532,9.643c-4.679,0-8.31-2.119-9.714-5.67l-0.264,0.104l0.26-0.113l-40.851-93.595l0,0L124.248-0.098
		h-0.557l-0.051,0.021l51.466,121.383l0.252-0.107l-0.251,0.11l40.854,93.598l0,0c1.496,3.77,5.32,6.02,10.236,6.02
		c6.221,0,10.681-4.088,11.098-10.172c0.075-1.103-0.298-2.877-0.889-4.221l-0.007,0.004l-9.542-21.144l0.023-0.011
		c-0.551-1.248-0.915-2.945-0.849-3.95c0.387-5.769,4.612-9.651,10.516-9.661c4.024-0.023,7.064,2.145,9.256,6.579l0.508-0.251
		C244.052,173.524,240.773,171.206,236.567,171.206z"/>
	<path fill="#EAEAEA" d="M189.018,214.958l-43.793-100.333l0,0L96.59-0.08c-0.205,0.002-0.409,0.004-0.614,0.005l48.729,114.925
		l0.258-0.11l-0.257,0.112l43.793,100.333l0.258-0.112l-0.253,0.125c1.794,3.633,1.063,8.069-1.862,11.303
		c-3.961,4.377-9.674,4.916-14.217,1.338c-0.76-0.598-1.723-1.918-2.293-3.123l0,0l-9.367-21.471l-0.024,0.012
		c-0.602-1.325-1.646-2.764-2.501-3.439c-4.784-3.781-10.809-3.227-14.989,1.379c-2.877,3.168-3.363,7.151-1.449,11.838
		l-0.016,0.006l23.073,52.883c0.206-0.002,0.411-0.004,0.617-0.004l-23.152-53.063l0.015-0.006
		c-1.839-4.48-1.391-8.273,1.333-11.273c3.968-4.371,9.683-4.9,14.219-1.316c0.791,0.625,1.806,2.035,2.361,3.281l0.021-0.01
		l9.276,21.26l-0.006,0.004c0.6,1.338,1.665,2.806,2.533,3.488c2.114,1.666,4.47,2.485,6.8,2.485c2.947,0,5.856-1.313,8.188-3.89
		C190.141,223.477,190.907,218.799,189.018,214.958L189.018,214.958z"/>
	<polygon fill="#EAEAEA" points="568.321,251.286 574.609,265.917 575.226,265.917 568.842,251.061 	"/>
	<path fill="#EAEAEA" d="M559.073,244.054c-0.006,0-0.013,0-0.019,0c-6.22,0.011-10.673,4.106-11.08,10.19
		c-0.073,1.088,0.294,2.828,0.872,4.162l-0.024,0.012l3.385,7.5h0.622l-3.463-7.674l0.022-0.011
		c-0.551-1.248-0.915-2.946-0.849-3.95c0.387-5.77,4.611-9.652,10.516-9.662c0.006,0,0.012,0,0.019,0c4.028,0,7.05,2.152,9.237,6.58
		l0.508-0.252C566.559,246.374,563.281,244.054,559.073,244.054z"/>
	<path fill="#EAEAEA" d="M467.732,187.474l-53.16-122.539l-0.261,0.113l0.255-0.126c-2.261-4.575-5.539-6.894-9.745-6.894
		c-0.006,0-0.013,0-0.02,0c-6.221,0.01-10.673,4.106-11.08,10.19c-0.073,1.087,0.294,2.827,0.872,4.162l-0.024,0.011l9.636,21.35
		l0,0c0.513,1.231,0.845,2.832,0.778,3.797c-0.396,5.768-4.628,9.643-10.532,9.643c-4.237,0-7.982-2.544-9.54-6.481l-0.267,0.106
		l0.264-0.115L340.959-0.083h-0.625l44.055,101.001l0,0c1.646,4.15,5.594,6.831,10.063,6.831c6.221,0,10.681-4.088,11.098-10.172
		c0.074-1.102-0.298-2.877-0.889-4.219l-0.007,0.003l-9.543-21.143l0.023-0.01c-0.551-1.247-0.915-2.946-0.849-3.951
		c0.387-5.769,4.612-9.652,10.516-9.661c0.007,0,0.013,0,0.02,0c4.026,0,7.047,2.151,9.235,6.576l53.156,122.53l0.291-0.127
		l-0.291,0.127l34.139,78.217h0.619L467.732,187.474L467.732,187.474z"/>
	<path fill="#EAEAEA" d="M294.58,234.804l-53.16-122.54l-0.26,0.113l0.254-0.126c-2.262-4.575-5.54-6.894-9.745-6.894
		c-0.006,0-0.014,0-0.021,0c-6.22,0.01-10.673,4.106-11.08,10.19c-0.072,1.087,0.294,2.827,0.872,4.162l-0.023,0.011l9.636,21.35
		l0,0c0.512,1.231,0.844,2.832,0.778,3.798c-0.396,5.768-4.628,9.643-10.532,9.643c-4.238,0-7.983-2.545-9.54-6.481l-0.267,0.106
		l0.264-0.115L167.829,47.343l0.014-0.006c-1.839-4.481-1.39-8.274,1.333-11.274c3.968-4.37,9.683-4.9,14.219-1.315
		c0.791,0.625,1.807,2.035,2.361,3.28l0.021-0.01l9.276,21.261l-0.006,0.003c0.6,1.339,1.665,2.806,2.533,3.489
		c2.114,1.665,4.47,2.485,6.8,2.485c2.948,0,5.856-1.314,8.188-3.89c3.079-3.403,3.847-8.081,1.956-11.922l0,0L192.898-0.103
		c-0.207-0.001-0.415-0.004-0.622-0.008l21.729,49.783l0.26-0.114l-0.254,0.126c1.794,3.633,1.063,8.07-1.862,11.303
		c-3.961,4.378-9.675,4.917-14.217,1.339c-0.76-0.598-1.723-1.918-2.293-3.124l0,0l-9.367-21.47l-0.023,0.011
		c-0.603-1.325-1.646-2.763-2.501-3.439c-4.785-3.781-10.81-3.226-14.99,1.379c-2.877,3.168-3.362,7.151-1.449,11.837l-0.016,0.007
		l43.945,100.72l0,0c1.646,4.15,5.595,6.832,10.063,6.832c6.22,0,10.68-4.088,11.097-10.172c0.075-1.103-0.298-2.878-0.888-4.22
		l-0.006,0.003l-9.543-21.143l0.021-0.01c-0.551-1.247-0.915-2.946-0.848-3.951c0.386-5.769,4.612-9.652,10.515-9.661
		c0.007,0,0.014,0,0.021,0c4.025,0,7.047,2.152,9.234,6.576l53.156,122.529l0.32-0.139l-0.319,0.139l13.481,30.887h0.618
		L294.58,234.804L294.58,234.804z"/>
	<path fill="#EAEAEA" d="M1990.257,26.202l43.945,100.721l0,0c1.646,4.15,5.595,6.83,10.063,6.83c1.596,0,3.074-0.272,4.4-0.775
		c0.002-0.208,0.002-0.415,0.004-0.623c-1.317,0.535-2.796,0.832-4.404,0.832c-4.238,0-7.983-2.544-9.54-6.481l-0.263,0.104
		l0.259-0.113l-43.927-100.678l0.014-0.006c-1.839-4.481-1.391-8.274,1.333-11.274c3.969-4.371,9.682-4.899,14.219-1.315
		c0.79,0.625,1.806,2.035,2.361,3.28l0.022-0.01l9.276,21.261l-0.007,0.003c0.6,1.339,1.666,2.806,2.533,3.49
		c2.115,1.665,4.47,2.485,6.8,2.485c2.948,0,5.856-1.314,8.188-3.89c2.948-3.258,3.631-7.882,1.777-11.844l0.179-0.078
		l-12.316-28.218h-0.618l12.329,28.25l-0.177,0.087c1.874,3.797,1.248,8.28-1.595,11.423c-3.961,4.379-9.675,4.916-14.217,1.34
		c-0.76-0.598-1.724-1.919-2.293-3.124l0,0l-9.367-21.47l-0.024,0.011c-0.602-1.325-1.646-2.764-2.502-3.439
		c-4.784-3.781-10.809-3.226-14.989,1.379c-2.877,3.168-3.363,7.151-1.45,11.838L1990.257,26.202z"/>
	<path fill="#EAEAEA" d="M2043.535,94.222c-0.072,1.087,0.293,2.827,0.872,4.162l-0.023,0.011l4.276,9.476
		c0.002-0.457,0.004-0.915,0.003-1.372l-3.735-8.278l0.021-0.01c-0.551-1.248-0.915-2.946-0.847-3.951
		c0.237-3.551,1.933-6.382,4.575-8.041V85.55C2045.711,87.268,2043.795,90.336,2043.535,94.222z"/>
	<path fill="#EAEAEA" d="M1220.455,29.411c1.646,4.15,5.595,6.83,10.063,6.83c6.22,0,10.68-4.088,11.097-10.172
		c0.075-1.102-0.298-2.877-0.888-4.22l-0.007,0.003l-9.903-21.936h-0.625l10.079,22.317l0,0c0.512,1.231,0.846,2.832,0.778,3.797
		c-0.396,5.768-4.628,9.644-10.532,9.644c-4.239,0-7.982-2.544-9.54-6.481l-0.266,0.105l0.262-0.114l-12.776-29.282h-0.619
		L1220.455,29.411L1220.455,29.411z"/>
	<path fill="#EAEAEA" d="M1308.277,11.844c0.601,1.339,1.665,2.806,2.533,3.489c2.115,1.665,4.47,2.485,6.8,2.485
		c2.948,0,5.857-1.314,8.188-3.89c2.997-3.312,3.659-8.037,1.688-12.04l0,0l-0.857-1.987c-0.19,0.03-0.391,0.016-0.594,0.016
		l0.93,2.195l0.26-0.112l-0.253,0.125c1.875,3.797,1.248,8.28-1.596,11.423c-3.961,4.378-9.675,4.917-14.217,1.339
		c-0.759-0.598-1.723-1.918-2.293-3.124l0,0l-5.167-11.846h-0.619l5.202,11.924L1308.277,11.844z"/>
	<path fill="#EAEAEA" d="M1679.705,28.444l-0.26,0.113l40.854,93.598l0.444-0.195c1.78,3.795,5.551,6.213,9.792,6.213
		c6.222,0,10.681-4.088,11.098-10.172c0.076-1.102-0.298-2.876-0.889-4.219l-0.006,0.003l-9.543-21.143l0.022-0.01
		c-0.551-1.247-0.915-2.946-0.847-3.951c0.386-5.768,4.611-9.651,10.515-9.661c0.007,0,0.013,0,0.019,0
		c4.027,0,7.049,2.152,9.237,6.579l0.508-0.251c-2.262-4.575-5.54-6.894-9.745-6.894c-0.008,0-0.014,0-0.021,0
		c-6.22,0.01-10.673,4.106-11.08,10.19c-0.073,1.087,0.293,2.827,0.872,4.162l-0.024,0.011l9.636,21.349
		c0.513,1.232,0.845,2.833,0.778,3.798c-0.395,5.768-4.628,9.643-10.531,9.643c-4.238,0-7.983-2.544-9.54-6.481l-0.45,0.178
		l-40.58-92.973l0,0l-12.333-28.429h-0.618l12.431,28.655L1679.705,28.444z"/>
	<path fill="#EAEAEA" d="M1526.774,13.294c0.6,1.338,1.665,2.806,2.533,3.49c2.115,1.665,4.469,2.485,6.8,2.485
		c2.948,0,5.857-1.314,8.188-3.89c3.001-3.317,3.66-8.048,1.683-12.054l-1.503-3.424h-0.563l1.559,3.674
		c1.875,3.796,1.249,8.28-1.596,11.423c-3.961,4.377-9.674,4.916-14.216,1.34c-0.76-0.598-1.723-1.919-2.293-3.124l0,0
		l-5.808-13.312h-0.619l5.842,13.39L1526.774,13.294z"/>
	<path fill="#EAEAEA" d="M1573.195,3.406c1.495,3.769,5.321,6.019,10.237,6.019c5.989,0,10.335-3.795,11.022-9.507h-0.569
		c-0.681,5.375-4.794,8.94-10.453,8.94c-4.679,0-8.311-2.119-9.714-5.67l-0.261,0.103l0.257-0.112l-1.425-3.261h-0.617
		L1573.195,3.406L1573.195,3.406z"/>
	<path fill="#EAEAEA" d="M1547.38,231.902l0.254-0.125c-2.261-4.575-5.539-6.894-9.746-6.894c-0.006,0-0.013,0-0.02,0
		c-6.22,0.01-10.673,4.105-11.079,10.191c-0.073,1.086,0.293,2.826,0.871,4.161l-0.023,0.011l9.636,21.351l0,0
		c0.512,1.231,0.844,2.831,0.779,3.797c-0.036,0.528-0.115,1.036-0.215,1.532c0.192-0.002,0.387-0.006,0.579-0.008
		c0.092-0.482,0.166-0.975,0.2-1.486c0.075-1.104-0.298-2.877-0.888-4.219l-0.006,0.002l-9.543-21.143l0.021-0.01
		c-0.551-1.248-0.915-2.947-0.848-3.951c0.385-5.77,4.611-9.652,10.516-9.66c0.006,0,0.013,0,0.02,0c4.027,0,7.048,2.15,9.236,6.575
		l14.369,33.892h0.615l-14.469-34.125L1547.38,231.902z"/>
	<path fill="#EAEAEA" d="M1624.487,240.25l-46.427-108.025l-0.521,0.224l46.427,108.025l0.26-0.112l-0.254,0.125
		c1.875,3.797,1.249,8.28-1.595,11.424c-3.961,4.377-9.676,4.916-14.218,1.34c-0.76-0.6-1.724-1.92-2.293-3.125l-9.366-21.471
		l-0.024,0.01c-0.603-1.324-1.646-2.763-2.501-3.438c-4.785-3.781-10.809-3.226-14.99,1.379c-2.88,3.172-3.365,7.161-1.443,11.854
		l-0.021,0.01l11.638,27.447h0.615l-11.723-27.648l0.021-0.008c-1.839-4.481-1.39-8.274,1.333-11.274
		c3.968-4.37,9.682-4.901,14.22-1.315c0.789,0.625,1.805,2.035,2.359,3.279l0.023-0.01l9.275,21.262l-0.006,0.004
		c0.6,1.338,1.664,2.805,2.533,3.489c2.115,1.665,4.469,2.485,6.8,2.485c2.948,0,5.857-1.314,8.189-3.891
		C1625.796,248.978,1626.457,244.252,1624.487,240.25L1624.487,240.25z"/>
	<path fill="#EAEAEA" d="M1568.275,125.784c0.007,0,0.013,0,0.02,0c4.027,0,7.049,2.152,9.235,6.579l0.508-0.251
		c-2.261-4.575-5.538-6.894-9.744-6.894c-0.008,0-0.014,0-0.021,0c-6.22,0.01-10.673,4.106-11.08,10.191
		c-0.073,1.086,0.293,2.826,0.872,4.161l-0.025,0.011l9.637,21.351l0,0c0.512,1.231,0.845,2.832,0.779,3.797
		c-0.396,5.769-4.629,9.644-10.532,9.644c-4.238,0-7.983-2.545-9.54-6.481l-0.45,0.178l-40.58-92.974l0,0L1474.74-0.083h-0.618
		l32.711,75.403l0.276-0.12l-0.276,0.121l40.854,93.598l0.445-0.194c1.778,3.795,5.55,6.214,9.792,6.214
		c6.221,0,10.68-4.088,11.097-10.172c0.076-1.102-0.298-2.876-0.888-4.219l-0.006,0.002l-9.543-21.143l0.021-0.01
		c-0.551-1.247-0.915-2.945-0.848-3.951C1558.146,129.677,1562.37,125.794,1568.275,125.784z"/>
	<path fill="#EAEAEA" d="M1520.743,168.969L1476.95,68.637l0,0l-29.818-68.736h-0.618l29.917,68.962l0.256-0.111l-0.255,0.112
		l43.708,100.138l-0.177,0.086c1.875,3.797,1.249,8.281-1.596,11.424c-3.961,4.377-9.675,4.914-14.217,1.34
		c-0.76-0.6-1.724-1.919-2.293-3.124l0,0l-9.367-21.47l-0.024,0.011c-0.603-1.325-1.646-2.765-2.501-3.438
		c-4.785-3.781-10.81-3.228-14.99,1.379c-2.877,3.168-3.363,7.15-1.45,11.836l-0.016,0.008l43.136,98.865h0.619l-43.216-99.049
		l0.013-0.006c-1.839-4.48-1.39-8.273,1.333-11.273c3.969-4.371,9.683-4.9,14.219-1.315c0.79,0.624,1.806,2.034,2.361,3.279
		l0.022-0.011l9.275,21.262l-0.006,0.003c0.599,1.338,1.665,2.806,2.533,3.489c2.115,1.666,4.47,2.486,6.8,2.486
		c2.948,0,5.857-1.314,8.188-3.891c2.947-3.26,3.631-7.883,1.776-11.844L1520.743,168.969z"/>
	<path fill="#EAEAEA" d="M1481.864,241.448l-51.457-121.362l0.021-0.008c-1.839-4.48-1.392-8.274,1.333-11.274
		c3.969-4.371,9.683-4.9,14.219-1.315c0.79,0.624,1.805,2.034,2.361,3.279l0.021-0.01l9.276,21.261l-0.006,0.003
		c0.6,1.339,1.665,2.807,2.532,3.49c2.115,1.664,4.471,2.484,6.801,2.484c2.947,0,5.856-1.313,8.188-3.89
		c2.997-3.313,3.659-8.037,1.689-12.04l0,0l-46.428-108.025l-0.521,0.224l46.427,108.025l0.261-0.112l-0.255,0.126
		c1.875,3.796,1.249,8.28-1.595,11.423c-3.961,4.378-9.675,4.916-14.217,1.34c-0.761-0.599-1.724-1.919-2.293-3.124l0,0
		l-9.367-21.47l-0.025,0.011c-0.602-1.325-1.646-2.764-2.501-3.439c-4.785-3.781-10.809-3.227-14.989,1.379
		c-2.88,3.173-3.365,7.161-1.443,11.855l-0.021,0.009l51.466,121.383l0.257-0.109l-0.256,0.111l10.583,24.246h0.618
		L1481.864,241.448L1481.864,241.448z"/>
	<path fill="#EAEAEA" d="M1400.043,50.735c1.495,3.769,5.32,6.019,10.236,6.019c6.221,0,10.681-4.088,11.098-10.172
		c0.076-1.102-0.299-2.876-0.889-4.219l-0.006,0.003l-9.542-21.143l0.022-0.01c-0.551-1.247-0.915-2.946-0.849-3.951
		c0.387-5.768,4.612-9.651,10.516-9.661c0.007,0,0.013,0,0.02,0c4.027,0,7.049,2.152,9.236,6.579l0.508-0.251
		c-2.261-4.575-5.54-6.894-9.745-6.894c-0.006,0-0.014,0-0.02,0c-6.221,0.01-10.673,4.106-11.08,10.19
		c-0.073,1.087,0.294,2.827,0.872,4.162l-0.024,0.011l9.636,21.35l0,0c0.513,1.232,0.845,2.832,0.778,3.797
		c-0.396,5.768-4.628,9.643-10.531,9.643c-4.679,0-8.31-2.12-9.715-5.67l-0.264,0.104l0.26-0.114l-22.088-50.606h-0.618
		L1400.043,50.735L1400.043,50.735z"/>
	<polygon fill="#EAEAEA" points="1404.387,179.778 1441.407,265.917 1442.025,265.917 1404.907,179.555 	"/>
	<path fill="#EAEAEA" d="M1395.142,172.547c-0.006,0-0.015,0-0.021,0c-6.22,0.011-10.673,4.105-11.08,10.189
		c-0.072,1.088,0.295,2.827,0.872,4.162l-0.023,0.012l9.636,21.35l0,0c0.512,1.232,0.845,2.832,0.778,3.797
		c-0.396,5.768-4.628,9.645-10.531,9.645c-4.678,0-8.311-2.121-9.715-5.67l-0.266,0.104l0.262-0.113l-40.853-93.597l0,0
		L1281.056-0.083h-0.091h-0.522l53.239,122.733l0.18-0.078l-0.18,0.079l40.854,93.598l0,0c1.496,3.77,5.321,6.02,10.237,6.02
		c6.22,0,10.681-4.088,11.098-10.172c0.075-1.102-0.298-2.877-0.889-4.219l-0.006,0.002l-9.542-21.143l0.022-0.01
		c-0.552-1.247-0.915-2.945-0.849-3.951c0.387-5.768,4.612-9.65,10.516-9.66c0.007,0,0.013,0,0.02,0
		c4.027,0,7.048,2.151,9.236,6.578l0.508-0.251C1402.625,174.866,1399.347,172.547,1395.142,172.547z"/>
	<path fill="#EAEAEA" d="M1347.592,216.299L1303.8,115.967l0,0l-50.345-116.05h-0.618l50.442,116.276l0.262-0.114l-0.262,0.114
		l43.707,100.138l-0.177,0.088c1.875,3.795,1.249,8.279-1.595,11.422c-3.961,4.379-9.676,4.916-14.217,1.341
		c-0.761-0.599-1.725-1.919-2.293-3.124l0,0l-9.367-21.471l-0.025,0.012c-0.602-1.325-1.646-2.764-2.501-3.439
		c-4.785-3.781-10.809-3.226-14.99,1.379c-2.877,3.168-3.362,7.152-1.449,11.838l-0.017,0.008l22.489,51.543
		c0.205-0.002,0.411-0.004,0.616-0.006l-22.567-51.721l0.013-0.006c-1.839-4.48-1.39-8.273,1.333-11.273
		c3.97-4.371,9.684-4.899,14.22-1.315c0.79,0.624,1.805,2.034,2.36,3.278l0.022-0.01l9.275,21.262l-0.006,0.003
		c0.6,1.338,1.665,2.806,2.533,3.489c2.115,1.666,4.47,2.486,6.8,2.486c2.948,0,5.857-1.314,8.188-3.891
		c2.947-3.26,3.631-7.883,1.776-11.844L1347.592,216.299z"/>
	<polygon fill="#EAEAEA" points="1725.2,251.469 1731.409,265.917 1732.027,265.917 1725.721,251.247 	"/>
	<path fill="#EAEAEA" d="M1715.954,244.239c-0.007,0-0.013,0-0.02,0c-6.22,0.01-10.673,4.105-11.08,10.19
		c-0.073,1.087,0.293,2.827,0.872,4.161l-0.024,0.012l3.302,7.314h0.622l-3.38-7.488l0.021-0.01
		c-0.551-1.248-0.915-2.947-0.848-3.951c0.387-5.77,4.612-9.652,10.516-9.661c0.007,0,0.013,0,0.019,0
		c4.027,0,7.049,2.151,9.237,6.579l0.508-0.252C1723.439,246.558,1720.16,244.239,1715.954,244.239z"/>
	<path fill="#EAEAEA" d="M1624.612,187.659l-51.465-121.38l-0.261,0.111l0.254-0.126c-2.261-4.575-5.539-6.894-9.746-6.894
		c-0.006,0-0.013,0-0.02,0c-6.222,0.01-10.673,4.106-11.08,10.191c-0.073,1.087,0.294,2.827,0.873,4.161l-0.025,0.011l9.636,21.35
		l0,0c0.513,1.231,0.845,2.831,0.778,3.797c-0.396,5.768-4.628,9.644-10.532,9.644c-4.238,0-7.982-2.544-9.54-6.481l-0.266,0.105
		l0.262-0.114L1498.927-0.083h-0.609l44.642,102.333l0,0c0,0.002,0.002,0.004,0.003,0.006l0.001,0.003l0,0
		c1.645,4.149,5.594,6.83,10.063,6.83c6.221,0,10.68-4.088,11.098-10.172c0.074-1.103-0.299-2.877-0.889-4.219l-0.007,0.003
		l-9.542-21.143l0.022-0.01c-0.551-1.248-0.915-2.946-0.849-3.951c0.387-5.769,4.612-9.652,10.517-9.662c0.006,0,0.012,0,0.019,0
		c4.027,0,7.048,2.151,9.236,6.576l51.461,121.371l0.261-0.111l-0.26,0.113l34.061,78.039c0.205-0.002,0.411-0.004,0.616-0.004
		L1624.612,187.659L1624.612,187.659z"/>
	<path fill="#EAEAEA" d="M1655.015,194.116l-51.456-121.36l0.021-0.008c-1.839-4.481-1.391-8.274,1.333-11.274
		c3.968-4.37,9.682-4.901,14.22-1.315c0.791,0.624,1.805,2.034,2.359,3.279l0.023-0.01l9.275,21.262l-0.006,0.003
		c0.6,1.338,1.665,2.805,2.533,3.49c2.115,1.665,4.469,2.485,6.8,2.485c2.948,0,5.857-1.314,8.188-3.89
		c2.997-3.313,3.659-8.038,1.688-12.041l-32.162-74.834h-0.615l32.259,75.059l0.258-0.111l-0.252,0.124
		c1.875,3.796,1.249,8.28-1.595,11.423c-3.96,4.377-9.675,4.916-14.217,1.34c-0.761-0.599-1.725-1.919-2.293-3.124l0,0l-9.367-21.47
		l-0.024,0.011c-0.602-1.325-1.646-2.763-2.501-3.439c-4.785-3.781-10.809-3.227-14.989,1.379
		c-2.881,3.172-3.365,7.161-1.444,11.855l-0.021,0.009l51.466,121.383l0.262-0.111l-0.26,0.114l31.245,71.587
		c0.205-0.004,0.41-0.006,0.615-0.008L1655.015,194.116L1655.015,194.116z"/>
	<path fill="#EAEAEA" d="M1451.426,235.002l-51.432-121.395l-0.261,0.11l0.254-0.126c-2.261-4.575-5.54-6.894-9.746-6.894
		c-0.006,0-0.013,0-0.019,0c-6.22,0.01-10.673,4.106-11.08,10.191c-0.073,1.087,0.294,2.827,0.872,4.162l-0.024,0.011l9.637,21.351
		l0,0c0.512,1.231,0.845,2.832,0.777,3.797c-0.396,5.768-4.628,9.644-10.531,9.644c-4.237,0-7.982-2.544-9.541-6.481l-0.264,0.104
		l0.26-0.112l-43.927-100.679l0.013-0.005c-1.839-4.481-1.39-8.274,1.333-11.274c3.97-4.371,9.684-4.899,14.22-1.315
		c0.789,0.624,1.805,2.034,2.36,3.279l0.022-0.01l9.275,21.261l-0.006,0.003c0.6,1.338,1.665,2.806,2.533,3.49
		c2.115,1.665,4.47,2.485,6.8,2.485c2.948,0,5.857-1.314,8.188-3.89c3.078-3.403,3.846-8.081,1.956-11.922l0,0l-22.203-50.869
		h-0.619l22.302,51.096l0.258-0.113l-0.253,0.125c1.794,3.633,1.063,8.07-1.862,11.303c-3.961,4.378-9.675,4.916-14.217,1.34
		c-0.76-0.599-1.724-1.919-2.293-3.124l0,0l-9.367-21.47l-0.024,0.011c-0.603-1.325-1.646-2.764-2.501-3.439
		c-4.785-3.781-10.809-3.227-14.99,1.379c-2.877,3.168-3.363,7.152-1.45,11.838l-0.016,0.007l43.946,100.721l0,0
		c1.646,4.15,5.594,6.83,10.063,6.83c6.22,0,10.681-4.088,11.098-10.172c0.075-1.102-0.298-2.875-0.889-4.219l-0.006,0.004
		l-9.542-21.144l0.022-0.01c-0.552-1.247-0.916-2.946-0.849-3.951c0.386-5.769,4.611-9.652,10.516-9.661c0.006,0,0.012,0,0.019,0
		c4.026,0,7.047,2.151,9.235,6.575l51.846,122.376l0.045-0.02l12.973,29.721h0.617l-13.5-30.93L1451.426,235.002z"/>
	<path fill="#EAEAEA" d="M1888.723,8.158c1.643,4.155,5.594,6.839,10.066,6.839c6.222,0,10.681-4.088,11.098-10.172
		c0.075-1.103-0.298-2.877-0.888-4.219l-0.007,0.003l-0.301-0.675c-0.203-0.016-0.422,0-0.608-0.016l0.46,1.073l0,0
		c0.512,1.231,0.844,2.831,0.777,3.797c-0.395,5.768-4.628,9.644-10.531,9.644c-4.238,0-7.983-2.544-9.541-6.481l-0.269,0.107
		l0.265-0.116l-3.5-8.022h-0.617L1888.723,8.158L1888.723,8.158z"/>
	<path fill="#EAEAEA" d="M1923.836,144.168c-1.84-4.481-1.392-8.274,1.333-11.274c3.967-4.37,9.682-4.901,14.219-1.315
		c0.791,0.624,1.805,2.034,2.36,3.279l0.022-0.01l9.276,21.262l-0.006,0.004c0.599,1.338,1.664,2.805,2.532,3.489
		c2.115,1.665,4.47,2.485,6.8,2.485c2.948,0,5.857-1.314,8.188-3.891c2.997-3.313,3.659-8.037,1.688-12.039l0,0l-46.428-108.026
		l-0.52,0.224l46.427,108.024l0.26-0.111l-0.254,0.125c1.875,3.796,1.249,8.279-1.595,11.423c-3.96,4.377-9.675,4.916-14.217,1.341
		c-0.761-0.6-1.725-1.92-2.293-3.125l0,0l-9.367-21.47l-0.024,0.011c-0.602-1.326-1.646-2.764-2.501-3.44
		c-4.785-3.781-10.809-3.227-14.99,1.379c-2.88,3.172-3.364,7.16-1.443,11.855l-0.021,0.008l51.533,121.541h0.625l-51.627-121.74
		L1923.836,144.168z"/>
	<path fill="#EAEAEA" d="M1893.451,74.826c1.495,3.769,5.321,6.019,10.237,6.019c6.221,0,10.681-4.088,11.097-10.172
		c0.076-1.102-0.298-2.876-0.888-4.219l-0.007,0.003l-9.543-21.143l0.022-0.01c-0.552-1.247-0.915-2.946-0.848-3.951
		c0.386-5.768,4.612-9.651,10.516-9.661c0.007,0,0.013,0,0.019,0c4.028,0,7.049,2.152,9.236,6.579l0.508-0.251
		c-2.261-4.575-5.539-6.894-9.745-6.894c-0.007,0-0.013,0-0.02,0c-6.221,0.01-10.673,4.106-11.08,10.19
		c-0.073,1.087,0.293,2.827,0.872,4.162l-0.025,0.011l9.636,21.35l0,0c0.513,1.232,0.845,2.832,0.778,3.797
		c-0.396,5.768-4.627,9.644-10.532,9.644c-4.679,0-8.31-2.12-9.714-5.67l-0.262,0.104l0.258-0.113l-32.604-74.697h-0.617
		L1893.451,74.826L1893.451,74.826z"/>
	<path fill="#EAEAEA" d="M1719.99,185.139l0.255-0.126c-2.261-4.575-5.538-6.894-9.745-6.894c-0.007,0-0.014,0-0.02,0
		c-6.221,0.01-10.673,4.105-11.08,10.19c-0.073,1.087,0.294,2.827,0.873,4.161l-0.025,0.011l9.637,21.351l0,0
		c0.512,1.23,0.844,2.83,0.777,3.797c-0.395,5.768-4.627,9.644-10.531,9.644c-4.238,0-7.983-2.544-9.54-6.481l-0.268,0.106
		l0.263-0.114l-43.928-100.679l0.015-0.006c-1.839-4.481-1.392-8.273,1.333-11.274c3.969-4.37,9.683-4.899,14.22-1.315
		c0.791,0.624,1.805,2.034,2.36,3.279l0.022-0.01l9.276,21.262l-0.006,0.003c0.599,1.338,1.663,2.806,2.531,3.49
		c2.116,1.666,4.471,2.485,6.801,2.485c2.947,0,5.856-1.313,8.188-3.89c2.948-3.259,3.631-7.883,1.776-11.844l0.179-0.078
		l-43.792-100.332l0,0l-9.532-21.973h-0.618l9.63,22.198l0.271-0.117l-0.27,0.118l43.707,100.138l-0.177,0.087
		c1.875,3.796,1.249,8.28-1.595,11.422c-3.96,4.379-9.675,4.916-14.217,1.34c-0.761-0.598-1.724-1.918-2.293-3.125l0,0l-9.367-21.47
		l-0.024,0.01c-0.602-1.325-1.646-2.763-2.501-3.439c-4.785-3.781-10.81-3.227-14.99,1.379c-2.875,3.169-3.361,7.152-1.448,11.838
		l-0.017,0.007l43.946,100.719l0,0c1.646,4.15,5.594,6.83,10.063,6.83c6.221,0,10.68-4.088,11.097-10.172
		c0.075-1.103-0.298-2.877-0.888-4.219l-0.007,0.004l-9.542-21.144l0.021-0.011c-0.55-1.248-0.915-2.945-0.848-3.95
		c0.386-5.769,4.61-9.652,10.516-9.661c0.006,0,0.012,0,0.02,0c4.026,0,7.048,2.15,9.234,6.576l34.198,80.656h0.615l-34.297-80.89
		L1719.99,185.139z"/>
	<path fill="#EAEAEA" d="M1780.422,206.932c2.114,1.665,4.469,2.484,6.8,2.484c2.948,0,5.856-1.313,8.188-3.89
		c2.997-3.313,3.659-8.036,1.688-12.04l0,0l-46.427-108.025l-0.521,0.224l46.427,108.025l0.262-0.112l-0.255,0.126
		c1.875,3.796,1.248,8.279-1.596,11.423c-3.961,4.377-9.675,4.916-14.217,1.341c-0.76-0.6-1.724-1.921-2.293-3.125l-9.367-21.471
		l-0.023,0.01c-0.603-1.324-1.646-2.763-2.501-3.439c-4.785-3.78-10.811-3.225-14.99,1.379c-2.88,3.173-3.365,7.162-1.444,11.855
		l-0.021,0.01l31.465,74.211h0.615l-31.551-74.412l0.021-0.008c-1.839-4.481-1.392-8.274,1.333-11.274
		c3.968-4.37,9.681-4.901,14.219-1.315c0.791,0.625,1.805,2.034,2.36,3.279l0.021-0.01l9.276,21.262l-0.006,0.003
		C1778.488,204.78,1779.554,206.247,1780.422,206.932z"/>
	<path fill="#EAEAEA" d="M2040.804,256.831l0.255-0.125c-2.261-4.576-5.539-6.895-9.746-6.895c-0.006,0-0.013,0-0.02,0
		c-6.221,0.012-10.673,4.105-11.079,10.191c-0.074,1.102,0.303,2.875,0.896,4.217l0.772,1.715c0.2-0.014,0.377,0.016,0.577,0
		l-0.832-1.941c-0.55-1.248-0.914-2.947-0.848-3.951c0.386-5.77,4.612-9.652,10.516-9.662c0.007,0,0.013,0,0.02,0
		c4.027,0,7.048,2.152,9.236,6.578l3.912,8.963h0.617l-4.016-9.201L2040.804,256.831z"/>
	<path fill="#EAEAEA" d="M2041.636,193.629l-0.266,0.104l0.262-0.114l-40.854-93.598l0,0l-42.451-100.12h-0.614l42.546,100.345
		l0.26-0.11l-0.259,0.113l40.853,93.598l0,0c1.21,3.049,3.961,5.078,7.564,5.753v-0.575
		C2045.315,198.366,2042.758,196.465,2041.636,193.629z"/>
	<path fill="#EAEAEA" d="M2014.168,193.898l-43.793-100.333l0,0l-39.712-93.661c-0.204,0.001-0.409,0.002-0.613,0.004l39.806,93.882
		l0.262-0.111l-0.261,0.114l43.707,100.138l-0.177,0.087c1.875,3.796,1.249,8.279-1.596,11.423
		c-3.961,4.378-9.674,4.917-14.217,1.341c-0.76-0.6-1.724-1.921-2.293-3.125l-9.367-21.471l-0.023,0.01
		c-0.602-1.324-1.646-2.763-2.501-3.439c-4.785-3.78-10.811-3.225-14.99,1.379c-2.877,3.169-3.364,7.152-1.45,11.839l-0.016,0.007
		l32.267,73.952h0.618l-32.347-74.136l0.014-0.006c-1.839-4.481-1.391-8.274,1.333-11.274c3.969-4.37,9.683-4.899,14.219-1.315
		c0.791,0.625,1.806,2.035,2.36,3.28l0.022-0.01l9.275,21.262l-0.006,0.003c0.6,1.338,1.665,2.805,2.533,3.49
		c2.115,1.665,4.47,2.484,6.8,2.484c2.948,0,5.857-1.313,8.188-3.889c2.947-3.26,3.631-7.884,1.775-11.845L2014.168,193.898z"/>
	<path fill="#EAEAEA" d="M1944.868,259.079L1893.404,137.7l-0.261,0.11l0.254-0.126c-2.264-4.582-5.538-6.916-9.765-6.894
		c-6.222,0.01-10.673,4.106-11.08,10.191c-0.073,1.087,0.294,2.827,0.873,4.161l-0.025,0.011l9.636,21.35l0,0
		c0.513,1.231,0.845,2.832,0.778,3.797c-0.395,5.769-4.628,9.645-10.532,9.645c-4.238,0-7.982-2.544-9.54-6.48l-0.266,0.104
		l0.262-0.114L1819.81,72.776l0.014-0.006c-1.839-4.481-1.391-8.273,1.333-11.274c3.97-4.371,9.684-4.899,14.221-1.315
		c0.79,0.624,1.805,2.034,2.359,3.279l0.023-0.01l9.275,21.262l-0.006,0.003c0.6,1.338,1.664,2.806,2.532,3.49
		c2.116,1.665,4.47,2.485,6.8,2.485c2.948,0,5.857-1.314,8.188-3.89c3.08-3.403,3.846-8.082,1.956-11.922l0,0l-32.726-74.975h-0.618
		l32.824,75.202l0.26-0.113l-0.254,0.125c1.794,3.633,1.063,8.07-1.862,11.303c-3.962,4.378-9.675,4.915-14.218,1.34
		c-0.76-0.599-1.723-1.919-2.293-3.124l0,0l-9.366-21.47l-0.024,0.01c-0.602-1.325-1.646-2.763-2.501-3.439
		c-4.785-3.781-10.81-3.227-14.99,1.379c-2.876,3.169-3.362,7.152-1.448,11.838l-0.017,0.007l43.942,100.711l0,0
		c0.001,0.002,0.002,0.004,0.003,0.006l0.001,0.004l0,0c1.645,4.148,5.594,6.83,10.063,6.83c6.222,0,10.681-4.088,11.098-10.172
		c0.074-1.104-0.298-2.877-0.889-4.219l-0.007,0.002l-9.542-21.143l0.022-0.01c-0.55-1.248-0.915-2.946-0.849-3.951
		c0.387-5.77,4.612-9.652,10.517-9.661c0.006,0,0.012,0,0.019,0c4.027,0,7.049,2.151,9.236,6.576l51.461,121.37l0.263-0.112
		l-0.262,0.115l2.886,6.612h0.618L1944.868,259.079L1944.868,259.079z"/>
	<polygon fill="#EAEAEA" points="1897.813,204.706 1924.119,265.917 1924.736,265.917 1898.332,204.483 	"/>
	<path fill="#EAEAEA" d="M1888.567,197.475c-0.007,0-0.013,0-0.02,0c-6.221,0.01-10.674,4.105-11.08,10.189
		c-0.073,1.088,0.293,2.828,0.872,4.162l-0.024,0.012l9.636,21.35c0.513,1.232,0.845,2.832,0.778,3.797
		c-0.396,5.768-4.628,9.645-10.532,9.645c-4.678,0-8.31-2.121-9.714-5.67l-0.263,0.104l0.259-0.113l-40.854-93.598l0,0
		L1776.17,25.993l0.021-0.008c-1.839-4.481-1.391-8.274,1.333-11.274c3.967-4.37,9.681-4.901,14.219-1.315
		c0.79,0.624,1.806,2.034,2.36,3.279l0.022-0.01l9.276,21.262l-0.006,0.003c0.599,1.338,1.664,2.805,2.533,3.49
		c2.114,1.665,4.469,2.485,6.8,2.485c2.948,0,5.857-1.314,8.188-3.89c2.997-3.313,3.659-8.038,1.688-12.04l0,0l-12.059-28.056
		h-0.615l12.154,28.28l0.261-0.112l-0.255,0.126c1.875,3.796,1.249,8.28-1.596,11.423c-3.96,4.377-9.674,4.916-14.217,1.34
		c-0.76-0.599-1.724-1.919-2.293-3.124l0,0l-9.367-21.47l-0.023,0.01c-0.603-1.325-1.646-2.763-2.501-3.439
		c-4.785-3.781-10.81-3.227-14.99,1.379c-2.88,3.172-3.365,7.161-1.444,11.855l-0.021,0.009l51.466,121.382l0.261-0.111l-0.26,0.115
		l40.853,93.598h0.002c1.495,3.77,5.32,6.02,10.236,6.02c6.221,0,10.681-4.089,11.098-10.173c0.076-1.103-0.299-2.876-0.889-4.22
		l-0.006,0.003l-9.542-21.144l0.022-0.01c-0.551-1.248-0.915-2.947-0.849-3.951c0.387-5.769,4.612-9.651,10.516-9.66
		c0.007,0,0.013,0,0.019,0c4.027,0,7.049,2.152,9.237,6.578l0.508-0.25C1896.051,199.793,1892.772,197.475,1888.567,197.475z"/>
	<path fill="#EAEAEA" d="M1841.016,241.228l-43.792-100.333l-0.034,0.016l-51.431-121.396l-0.262,0.11l0.255-0.126
		c-2.262-4.575-5.539-6.894-9.746-6.894c-0.006,0-0.014,0-0.02,0c-6.221,0.01-10.673,4.106-11.08,10.191
		c-0.072,1.087,0.294,2.827,0.873,4.161l-0.024,0.011l9.636,21.35l0,0c0.512,1.231,0.844,2.831,0.779,3.797
		c-0.396,5.768-4.629,9.644-10.532,9.644c-4.239,0-7.983-2.544-9.54-6.481l-0.266,0.105l0.262-0.114l-24.151-55.352h-0.618
		l24.246,55.57l0,0c1.643,4.155,5.595,6.839,10.067,6.839c6.221,0,10.68-4.088,11.097-10.172c0.075-1.103-0.298-2.877-0.888-4.219
		l-0.007,0.003l-9.542-21.143l0.021-0.01c-0.55-1.248-0.915-2.946-0.848-3.951c0.386-5.769,4.612-9.652,10.516-9.661
		c0.006,0,0.013,0,0.02,0c4.026,0,7.049,2.152,9.235,6.577l51.846,122.374l0.045-0.019l43.277,99.155l-0.177,0.087
		c1.875,3.796,1.249,8.28-1.595,11.423c-3.961,4.378-9.674,4.917-14.217,1.34c-0.761-0.6-1.725-1.919-2.293-3.125l-9.367-21.47
		l-0.024,0.01c-0.601-1.325-1.645-2.763-2.501-3.438c-4.785-3.781-10.809-3.227-14.99,1.379c-2.877,3.168-3.363,7.15-1.449,11.838
		l-0.016,0.007l11.609,26.606h0.618l-11.689-26.791l0.015-0.006c-1.839-4.481-1.392-8.275,1.333-11.275
		c3.968-4.369,9.682-4.898,14.219-1.314c0.79,0.625,1.805,2.035,2.36,3.28l0.021-0.011l9.276,21.263l-0.006,0.003
		c0.599,1.338,1.665,2.805,2.532,3.49c2.115,1.664,4.471,2.484,6.801,2.484c2.947,0,5.856-1.313,8.188-3.89
		c2.948-3.259,3.631-7.883,1.776-11.844L1841.016,241.228z"/>
	<polygon fill="#EAEAEA" points="569.273,154.256 560.518,150.594 564.157,141.893 563.373,141.564 559.734,150.267 
		551.082,146.649 550.754,147.433 559.406,151.051 555.765,159.754 556.55,160.083 560.19,151.379 568.944,155.042 	"/>
	
		<rect x="555.989" y="139.761" transform="matrix(-0.9254 0.3791 -0.3791 -0.9254 1124.8616 62.5508)" fill="#EAEAEA" width="0.567" height="4.515"/>
	
		<rect x="563.12" y="156.874" transform="matrix(0.9254 -0.3791 0.3791 0.9254 -18.2717 225.4661)" fill="#EAEAEA" width="0.567" height="4.515"/>
	
		<rect x="549.148" y="154.027" transform="matrix(0.9252 -0.3795 0.3795 0.9252 -17.3134 220.7815)" fill="#EAEAEA" width="4.517" height="0.567"/>
	
		<rect x="566.13" y="147.162" transform="matrix(-0.9252 0.3794 -0.3794 -0.9252 1150.2153 68.2008)" fill="#EAEAEA" width="4.514" height="0.568"/>
	<path fill="#EAEAEA" d="M390.246,193.506l-3.156-3.02c-0.355-0.339-0.862-0.445-1.323-0.277s-0.781,0.576-0.834,1.064l-0.476,4.342
		c-0.02,0.186-0.13,0.348-0.294,0.436l-3.846,2.072c-0.432,0.232-0.689,0.681-0.673,1.172c0.018,0.49,0.306,0.92,0.754,1.121
		l3.983,1.793c0.17,0.078,0.291,0.232,0.324,0.414l0.781,4.299c0.088,0.482,0.436,0.867,0.907,1.002
		c0.472,0.136,0.97-0.006,1.3-0.37l2.937-3.234c0.125-0.138,0.31-0.204,0.493-0.18l4.329,0.586c0.211,0.028,0.42,0.005,0.611-0.065
		c0.248-0.09,0.467-0.258,0.622-0.488c0.274-0.407,0.293-0.926,0.05-1.352l-2.168-3.792c-0.092-0.161-0.099-0.358-0.018-0.526
		l1.895-3.936c0.213-0.441,0.157-0.957-0.145-1.344c-0.304-0.387-0.789-0.564-1.271-0.465l-4.276,0.89
		C390.57,193.688,390.381,193.633,390.246,193.506z M395.175,193.459c0.215-0.045,0.425,0.033,0.56,0.207
		c0.135,0.172,0.16,0.395,0.064,0.594l-1.896,3.936c-0.183,0.381-0.167,0.825,0.043,1.191l2.168,3.792
		c0.109,0.19,0.102,0.413-0.021,0.597c-0.123,0.182-0.327,0.273-0.544,0.244l-4.329-0.586c-0.208-0.027-0.418-0.004-0.61,0.066
		c-0.191,0.069-0.368,0.187-0.51,0.342l-2.937,3.234c-0.148,0.161-0.362,0.223-0.573,0.162c-0.212-0.061-0.361-0.226-0.401-0.443
		l-0.781-4.297c-0.075-0.416-0.35-0.767-0.733-0.939l-3.983-1.794c-0.201-0.091-0.325-0.276-0.333-0.496s0.104-0.414,0.297-0.519
		l3.846-2.069c0.371-0.2,0.621-0.569,0.666-0.988l0.476-4.342c0.023-0.22,0.162-0.394,0.368-0.47
		c0.207-0.075,0.425-0.03,0.585,0.121l3.157,3.019c0.305,0.292,0.732,0.414,1.145,0.328L395.175,193.459z"/>
	
		<rect x="389.652" y="187.733" transform="matrix(-0.2093 0.9778 -0.9778 -0.2093 657.5237 -155.628)" fill="#EAEAEA" width="4.059" height="0.567"/>
	
		<rect x="377.194" y="193.105" transform="matrix(0.9048 0.4259 -0.4259 0.9048 118.4823 -143.0984)" fill="#EAEAEA" width="4.058" height="0.567"/>
	<rect x="397.881" y="198.79" fill="#EAEAEA" width="4.058" height="0.567"/>
	
		<rect x="378.9" y="205.333" transform="matrix(0.7682 -0.6402 0.6402 0.7682 -43.3414 291.5223)" fill="#EAEAEA" width="4.058" height="0.567"/>
	
		<rect x="392.563" y="206.675" transform="matrix(0.9188 -0.3948 0.3948 0.9188 -50.4822 172.0257)" fill="#EAEAEA" width="0.567" height="4.058"/>
	<path fill="#EAEAEA" d="M412.299,43.413c0.3,0.765,1.166,1.144,1.931,0.844l7.934-3.109c0.766-0.3,1.145-1.166,0.845-1.931
		l-6.317-16.123c-0.3-0.765-1.166-1.143-1.931-0.844l-7.935,3.109c-0.765,0.3-1.143,1.166-0.844,1.931L412.299,43.413z
		 M422.378,39.464c0.163,0.418-0.043,0.891-0.462,1.054l-7.934,3.109c-0.418,0.164-0.891-0.043-1.054-0.461l-0.938-2.392
		l9.449-3.702L422.378,39.464z M416.505,24.473l4.689,11.969l-9.449,3.702l-4.689-11.969L416.505,24.473z M407.073,25.989
		l7.935-3.109c0.418-0.164,0.891,0.043,1.055,0.461l0.197,0.502l-9.449,3.702l-0.197-0.502
		C406.448,26.626,406.655,26.153,407.073,25.989z"/>
	<path fill="#EAEAEA" d="M417.951,41.444c0.587-0.23,0.878-0.895,0.648-1.482c-0.23-0.587-0.896-0.878-1.482-0.648
		s-0.878,0.895-0.647,1.482C416.699,41.384,417.364,41.674,417.951,41.444z M417.325,39.847c0.294-0.115,0.626,0.03,0.741,0.324
		s-0.03,0.626-0.324,0.741c-0.294,0.115-0.626-0.03-0.74-0.324C416.887,40.294,417.031,39.962,417.325,39.847z"/>
	
		<rect x="399.499" y="27.593" transform="matrix(-0.0637 -0.998 0.998 -0.0637 394.6082 431.6381)" fill="#EAEAEA" width="0.567" height="6.235"/>
	
		<rect x="421.026" y="21.919" transform="matrix(-0.7616 0.6481 -0.6481 -0.7616 761.5574 -235.7552)" fill="#EAEAEA" width="6.236" height="0.567"/>
	
		<rect x="400.64" y="41.489" transform="matrix(0.861 -0.5086 0.5086 0.861 34.8732 211.1514)" fill="#EAEAEA" width="6.235" height="0.567"/>
	
		<rect x="428.119" y="30.462" transform="matrix(-0.1206 -0.9927 0.9927 -0.1206 446.7508 462.9043)" fill="#EAEAEA" width="0.567" height="6.235"/>
	<circle fill="#EAEAEA" cx="403.829" cy="35.638" r="0.79"/>
	<circle fill="#EAEAEA" cx="424.945" cy="28.695" r="0.803"/>
	<path fill="#EAEAEA" d="M902.518,65.944l11.612-4.043c0.684-0.238,1.045-0.986,0.807-1.669l-2.985-8.574
		c-0.237-0.684-0.984-1.045-1.669-0.807l-0.959,0.334l-2.036-1.983c-0.044-0.043-0.104-0.067-0.166-0.066
		c-0.062,0-0.12,0.026-0.164,0.07l-1.787,1.836l-2.159-0.6c-0.114-0.031-0.234,0.028-0.279,0.138l-1.348,3.369l-2.714,0.945
		c-0.685,0.238-1.045,0.986-0.808,1.669l2.985,8.574C901.087,65.821,901.834,66.183,902.518,65.944z M913.574,57.736l-3.088,1.075
		c-0.964,0.336-2.021-0.177-2.357-1.143l-0.137-0.389c-0.336-0.966,0.175-2.026,1.139-2.361l3.088-1.075L913.574,57.736z
		 M907.13,49.699l1.702,1.658l-5.018,1.747L907.13,49.699z M903.088,50.947l1.712,0.476l-1.971,2.023l-0.861,0.3L903.088,50.947z
		 M898.823,55.334l11.612-4.043c0.439-0.153,0.923,0.08,1.076,0.52l0.554,1.59l-3.088,1.075c-1.207,0.42-1.846,1.745-1.425,2.954
		l0.136,0.39c0.421,1.209,1.745,1.85,2.952,1.43l3.088-1.075l0.769,2.209c0.153,0.44-0.079,0.923-0.52,1.076l-11.612,4.043
		c-0.439,0.153-0.923-0.08-1.076-0.52l-2.984-8.574C898.15,55.97,898.384,55.487,898.823,55.334z"/>
	<path fill="#EAEAEA" d="M908.909,57.104c0.169,0.485,0.701,0.742,1.187,0.574c0.484-0.168,0.743-0.701,0.574-1.186
		c-0.17-0.485-0.701-0.743-1.187-0.574C908.997,56.087,908.74,56.619,908.909,57.104z M909.637,56.358
		c0.243-0.084,0.509,0.044,0.593,0.287s-0.044,0.509-0.287,0.593c-0.243,0.084-0.509-0.044-0.593-0.287
		C909.266,56.709,909.394,56.443,909.637,56.358z"/>
	
		<rect x="890.615" y="54.039" transform="matrix(-0.9661 -0.2583 0.2583 -0.9661 1740.5303 337.3237)" fill="#EAEAEA" width="3.62" height="0.567"/>
	
		<rect x="897.207" y="70.247" transform="matrix(0.6003 -0.7997 0.7997 0.6003 302.8898 747.1686)" fill="#EAEAEA" width="3.619" height="0.567"/>
	
		<rect x="913.425" y="46.279" transform="matrix(-0.5647 0.8253 -0.8253 -0.5647 1470.537 -682.4515)" fill="#EAEAEA" width="3.619" height="0.567"/>
	
		<rect x="920.457" y="61.32" transform="matrix(0.2153 -0.9766 0.9766 0.2153 660.8657 948.6882)" fill="#EAEAEA" width="0.567" height="3.619"/>
	<path fill="#EAEAEA" d="M743.228,101.342c-0.976-4.082-5.465-6.263-10.442-5.073c-4.977,1.19-7.992,5.166-7.017,9.248
		c0.632,2.642,2.408,4.446,5.012,5.096l0.901,3.769c0.022,0.097,0.098,0.174,0.195,0.2c0.044,0.012,0.09,0.012,0.133,0.002
		c0.051-0.012,0.098-0.039,0.135-0.079l3.566-3.815l0.011-0.002c0.163-0.03,0.325-0.059,0.489-0.098
		C741.187,109.399,744.203,105.424,743.228,101.342z M736.082,110.06c-0.152,0.037-0.306,0.065-0.459,0.093l-0.1,0.018
		c-0.056,0.006-0.109,0.038-0.148,0.082l-3.282,3.511l-0.822-3.439c-0.024-0.101-0.103-0.179-0.204-0.202
		c-3.18-0.726-4.348-2.974-4.769-4.732c-0.904-3.78,1.939-7.474,6.614-8.592c4.676-1.118,8.883,0.89,9.786,4.67
		C743.602,105.249,740.758,108.942,736.082,110.06z"/>
	<path fill="#EAEAEA" d="M720.279,97.263c0,0.694,0.564,1.258,1.258,1.258c0.694,0,1.259-0.564,1.259-1.258
		c0-0.694-0.564-1.258-1.259-1.258C720.843,96.005,720.279,96.569,720.279,97.263z M722.227,97.263c0,0.381-0.311,0.691-0.691,0.691
		s-0.69-0.31-0.69-0.691c0-0.381,0.31-0.691,0.69-0.691S722.227,96.882,722.227,97.263z"/>
	<path fill="#EAEAEA" d="M739.212,115.183c0,0.855,0.694,1.55,1.55,1.55c0.854,0,1.55-0.695,1.55-1.55s-0.695-1.55-1.55-1.55
		C739.906,113.633,739.212,114.328,739.212,115.183z M741.744,115.183c0,0.542-0.44,0.983-0.982,0.983s-0.983-0.441-0.983-0.983
		s0.441-0.983,0.983-0.983S741.744,114.641,741.744,115.183z"/>
	<path fill="#EAEAEA" d="M729.163,91.59c0-0.559-0.454-1.014-1.014-1.014c-0.559,0-1.014,0.455-1.014,1.014
		c0,0.559,0.455,1.014,1.014,1.014C728.709,92.604,729.163,92.149,729.163,91.59z M727.701,91.59c0-0.247,0.201-0.447,0.447-0.447
		s0.447,0.201,0.447,0.447c0,0.247-0.201,0.447-0.447,0.447S727.701,91.837,727.701,91.59z"/>
	<path fill="#EAEAEA" d="M221.437,241.685c-0.237-0.701-1.003-1.077-1.705-0.839l-12.22,4.145c-0.703,0.237-1.081,1.002-0.844,1.702
		l2.419,7.134c0.238,0.701,1.003,1.077,1.705,0.84l12.22-4.145c0.703-0.238,1.081-1.002,0.844-1.703L221.437,241.685z
		 M222.84,250.013l-12.219,4.144c-0.422,0.143-0.881-0.082-1.023-0.502l-2.419-7.135c-0.142-0.42,0.085-0.878,0.507-1.021
		l12.22-4.144c0.423-0.144,0.882,0.082,1.023,0.502l2.419,7.136l0,0C223.489,249.413,223.262,249.87,222.84,250.013z"/>
	
		<rect x="212.666" y="247.724" transform="matrix(0.3211 0.947 -0.947 0.3211 381.8336 -31.5669)" fill="#EAEAEA" width="0.538" height="5.646"/>
	
		<rect x="218.522" y="245.737" transform="matrix(0.3211 0.947 -0.947 0.3211 383.9283 -38.4616)" fill="#EAEAEA" width="0.538" height="5.646"/>
	<path fill="#EAEAEA" d="M211.952,248.879l0.509-0.174l0.766-0.26c0.42-0.142,0.646-0.602,0.503-1.021l-0.259-0.764l-0.173-0.51
		l-0.086-0.255c-0.144-0.421-0.602-0.647-1.021-0.505l-0.766,0.26l-0.509,0.174l-1.53,0.518c-0.42,0.143-0.646,0.602-0.503,1.023
		l0.259,0.764l0.173,0.509l0.086,0.255c0.144,0.421,0.602,0.648,1.021,0.505L211.952,248.879z M213.221,247.597L213.221,247.597
		c0.049,0.144-0.024,0.292-0.166,0.34l-0.766,0.261l-0.346-1.02l1.019-0.346L213.221,247.597z M212.364,245.9
		c0.14-0.047,0.291,0.028,0.34,0.169l0.086,0.256l-1.019,0.344l-0.173-0.508L212.364,245.9z M209.392,247.191
		c-0.048-0.144,0.025-0.292,0.166-0.34l1.53-0.519l0.173,0.508l0.173,0.51l-1.782,0.604L209.392,247.191z M209.911,248.719
		l-0.086-0.256l1.781-0.604l0.173,0.51l-1.529,0.519C210.11,248.935,209.958,248.86,209.911,248.719z"/>
	<path fill="#EAEAEA" d="M215.936,236.952c0.729,0,1.319-0.57,1.345-1.297c0.014-0.359-0.113-0.701-0.358-0.966
		c-0.245-0.263-0.578-0.416-0.987-0.431c-0.727,0-1.317,0.57-1.344,1.298c-0.027,0.741,0.554,1.366,1.296,1.394L215.936,236.952z
		 M215.156,235.577c0.017-0.42,0.357-0.75,0.808-0.75h0.001c0.208,0.008,0.401,0.096,0.542,0.248
		c0.142,0.151,0.216,0.35,0.208,0.559c-0.016,0.421-0.357,0.75-0.779,0.75v0.283l-0.029-0.283
		C215.477,236.37,215.141,236.006,215.156,235.577z"/>
	<path fill="#EAEAEA" d="M207.772,241.616c0.996,0,1.805-0.779,1.84-1.775c0.019-0.491-0.155-0.961-0.491-1.321
		c-0.335-0.36-0.79-0.569-1.282-0.586l-0.069-0.001c-0.996,0-1.804,0.779-1.84,1.775c-0.018,0.492,0.156,0.961,0.492,1.321
		c0.335,0.36,0.79,0.569,1.282,0.587H207.772z M206.497,239.727c0.024-0.689,0.583-1.229,1.318-1.229c0.001,0,0.001,0,0.002,0
		c0.341,0.012,0.655,0.158,0.888,0.406c0.231,0.249,0.353,0.574,0.34,0.915c-0.025,0.688-0.585,1.229-1.273,1.229l-0.048-0.002
		c-0.34-0.012-0.655-0.156-0.887-0.405C206.605,240.393,206.484,240.068,206.497,239.727z"/>
	<path fill="#EAEAEA" d="M225.099,237.732c-0.68,0-1.23,0.532-1.256,1.212c-0.012,0.336,0.107,0.656,0.335,0.902
		c0.229,0.246,0.54,0.388,0.875,0.4l0.047,0.002c0.68,0,1.231-0.533,1.256-1.213C226.382,238.342,225.839,237.758,225.099,237.732z
		 M225.1,239.68v0.283l-0.025-0.284c-0.185-0.007-0.355-0.085-0.481-0.22s-0.191-0.312-0.184-0.496
		c0.014-0.373,0.315-0.666,0.715-0.666h0.001c0.381,0.015,0.679,0.336,0.665,0.717C225.776,239.388,225.474,239.68,225.1,239.68z"/>
	<path fill="#EAEAEA" d="M203.003,248.754c-0.647,0-1.171,0.506-1.195,1.154c-0.012,0.319,0.103,0.623,0.319,0.858
		c0.218,0.233,0.514,0.37,0.833,0.381l0.045,0.001c0.646,0,1.172-0.506,1.195-1.152c0.012-0.32-0.103-0.625-0.319-0.858
		C203.664,248.904,203.367,248.767,203.003,248.754z M203.004,250.581v0.283l-0.024-0.283c-0.168-0.006-0.324-0.078-0.438-0.201
		c-0.115-0.123-0.174-0.285-0.168-0.453c0.013-0.34,0.288-0.606,0.651-0.606h0.001c0.168,0.007,0.324,0.077,0.438,0.201
		c0.115,0.123,0.174,0.284,0.168,0.452C203.621,250.314,203.344,250.581,203.004,250.581z"/>
	<path fill="#EAEAEA" d="M221.242,255.297l-0.068-0.002c-0.996,0-1.804,0.781-1.84,1.775c-0.037,1.016,0.759,1.871,1.773,1.908
		l0.068,0.001c0.996,0,1.804-0.78,1.84-1.774C223.053,256.19,222.257,255.334,221.242,255.297z M221.176,258.415l-0.047-0.002
		c-0.703-0.025-1.254-0.619-1.229-1.32c0.025-0.689,0.584-1.229,1.319-1.229c0.001,0,0.001,0,0.002,0
		c0.703,0.026,1.254,0.619,1.229,1.321C222.424,257.874,221.865,258.415,221.176,258.415z"/>
	<path fill="#EAEAEA" d="M891.687,226.206c-0.092-0.162-0.099-0.358-0.018-0.526l1.895-3.937c0.213-0.441,0.157-0.957-0.145-1.344
		c-0.304-0.387-0.789-0.564-1.271-0.465l-4.277,0.891c-0.182,0.037-0.37-0.017-0.506-0.146l-3.156-3.019
		c-0.355-0.34-0.862-0.445-1.323-0.277s-0.781,0.576-0.834,1.064l-0.476,4.342c-0.02,0.185-0.13,0.348-0.294,0.436l-3.846,2.07
		c-0.432,0.233-0.69,0.682-0.673,1.172c0.018,0.492,0.306,0.922,0.754,1.123l3.983,1.793c0.17,0.076,0.291,0.232,0.324,0.414
		l0.781,4.297c0.088,0.484,0.436,0.867,0.907,1.003s0.97-0.007,1.3-0.37l2.937-3.234c0.125-0.138,0.31-0.205,0.493-0.18l4.329,0.586
		c0.211,0.029,0.42,0.006,0.611-0.064c0.248-0.092,0.467-0.258,0.622-0.489c0.274-0.407,0.293-0.925,0.05-1.351L891.687,226.206z
		 M893.212,230.95c-0.123,0.182-0.327,0.272-0.544,0.244l-4.329-0.586c-0.208-0.027-0.418-0.004-0.61,0.066s-0.368,0.187-0.51,0.342
		l-2.937,3.234c-0.148,0.162-0.362,0.224-0.573,0.162c-0.213-0.061-0.361-0.226-0.401-0.443l-0.781-4.297
		c-0.075-0.416-0.35-0.766-0.733-0.939l-3.983-1.794c-0.201-0.09-0.325-0.276-0.333-0.495c-0.008-0.22,0.104-0.414,0.297-0.518
		l3.846-2.07c0.371-0.199,0.621-0.568,0.666-0.988l0.476-4.342c0.023-0.219,0.162-0.395,0.368-0.469
		c0.207-0.075,0.425-0.03,0.584,0.121l3.157,3.019c0.306,0.292,0.733,0.414,1.146,0.328l4.277-0.89
		c0.215-0.045,0.425,0.031,0.56,0.205s0.16,0.396,0.064,0.594l-1.896,3.936c-0.183,0.381-0.167,0.825,0.043,1.191l2.168,3.792
		C893.343,230.543,893.335,230.766,893.212,230.95z"/>
	
		<rect x="886.748" y="214.904" transform="matrix(-0.2096 0.9778 -0.9778 -0.2096 1285.4404 -608.7606)" fill="#EAEAEA" width="4.059" height="0.566"/>
	
		<rect x="874.296" y="220.291" transform="matrix(-0.9048 -0.4259 0.4259 -0.9048 1575.2469 793.38)" fill="#EAEAEA" width="4.058" height="0.567"/>
	
		<rect x="894.981" y="225.949" transform="matrix(1 0.0072 -0.0072 1 1.6568 -6.4706)" fill="#EAEAEA" width="4.058" height="0.566"/>
	
		<rect x="876.018" y="232.513" transform="matrix(-0.7683 0.6401 -0.6401 -0.7683 1701.6732 -150.3497)" fill="#EAEAEA" width="4.058" height="0.567"/>
	
		<rect x="887.898" y="235.609" transform="matrix(0.3954 0.9185 -0.9185 0.3954 754.7481 -674.7896)" fill="#EAEAEA" width="4.058" height="0.567"/>
	<path fill="#EAEAEA" d="M240.002,89.844l11.611-4.043c0.685-0.238,1.046-0.986,0.808-1.669l-2.985-8.574
		c-0.238-0.684-0.985-1.045-1.669-0.807l-0.959,0.334l-2.036-1.983c-0.044-0.043-0.104-0.067-0.166-0.066
		c-0.062,0-0.121,0.026-0.164,0.07l-1.788,1.836l-2.158-0.6c-0.114-0.031-0.234,0.028-0.279,0.138l-1.348,3.369l-2.715,0.945
		c-0.684,0.238-1.045,0.986-0.807,1.669l2.985,8.574C238.571,89.721,239.318,90.082,240.002,89.844z M251.06,81.636l-3.088,1.075
		c-0.964,0.336-2.021-0.177-2.358-1.143l-0.136-0.389c-0.336-0.966,0.174-2.026,1.139-2.361l3.088-1.075L251.06,81.636z
		 M244.614,73.598l1.702,1.658l-5.018,1.747L244.614,73.598z M240.572,74.847l1.713,0.476l-1.971,2.023l-0.861,0.3L240.572,74.847z
		 M236.308,79.234l11.612-4.043c0.439-0.153,0.923,0.08,1.076,0.52l0.554,1.59l-3.088,1.075c-1.207,0.42-1.846,1.745-1.425,2.954
		l0.136,0.39c0.421,1.209,1.745,1.85,2.952,1.43l3.088-1.075l0.769,2.209c0.153,0.44-0.08,0.923-0.52,1.076l-11.612,4.043
		c-0.439,0.153-0.923-0.08-1.076-0.52l-2.984-8.574C235.635,79.87,235.868,79.387,236.308,79.234z"/>
	<path fill="#EAEAEA" d="M246.394,81.004c0.169,0.485,0.701,0.742,1.187,0.574c0.484-0.169,0.741-0.701,0.573-1.186
		c-0.169-0.485-0.7-0.743-1.186-0.574S246.225,80.519,246.394,81.004z M247.121,80.258c0.241-0.084,0.509,0.044,0.593,0.287
		c0.084,0.242-0.044,0.509-0.287,0.593c-0.242,0.084-0.509-0.044-0.593-0.287C246.75,80.608,246.879,80.342,247.121,80.258z"/>
	
		<rect x="229.582" y="76.423" transform="matrix(0.2583 -0.9661 0.9661 0.2583 94.9117 280.0897)" fill="#EAEAEA" width="0.567" height="3.619"/>
	
		<rect x="234.672" y="94.103" transform="matrix(0.6004 -0.7997 0.7997 0.6004 19.0156 226.828)" fill="#EAEAEA" width="3.619" height="0.567"/>
	
		<rect x="250.93" y="70.195" transform="matrix(-0.5647 0.8253 -0.8253 -0.5647 453.6365 -98.2962)" fill="#EAEAEA" width="3.619" height="0.567"/>
	
		<rect x="256.428" y="86.769" transform="matrix(0.9765 0.2156 -0.2156 0.9765 24.8401 -53.6257)" fill="#EAEAEA" width="3.619" height="0.567"/>
	<path fill="#EAEAEA" d="M79.209,125.995c-0.977-4.082-5.465-6.263-10.442-5.073c-4.977,1.19-7.993,5.166-7.017,9.248
		c0.632,2.642,2.408,4.446,5.012,5.096l0.901,3.77c0.022,0.096,0.098,0.174,0.194,0.199c0.044,0.012,0.09,0.012,0.134,0.002
		c0.051-0.012,0.098-0.039,0.135-0.078l3.565-3.816l0.012-0.002c0.163-0.029,0.324-0.059,0.488-0.098
		C77.169,134.051,80.185,130.077,79.209,125.995z M72.065,134.713c-0.152,0.037-0.306,0.065-0.459,0.094l-0.1,0.018
		c-0.056,0.006-0.109,0.039-0.149,0.082l-3.281,3.512l-0.823-3.439c-0.024-0.102-0.104-0.18-0.204-0.202
		c-3.18-0.726-4.348-2.974-4.77-4.732c-0.903-3.78,1.94-7.474,6.615-8.592s8.882,0.89,9.786,4.67
		C79.583,129.902,76.739,133.596,72.065,134.713z"/>
	<path fill="#EAEAEA" d="M56.26,121.916c0,0.694,0.564,1.258,1.258,1.258c0.694,0,1.258-0.564,1.258-1.258s-0.563-1.258-1.258-1.258
		C56.824,120.658,56.26,121.223,56.26,121.916z M58.209,121.916c0,0.381-0.311,0.691-0.691,0.691s-0.69-0.31-0.69-0.691
		s0.31-0.691,0.69-0.691S58.209,121.535,58.209,121.916z"/>
	<path fill="#EAEAEA" d="M75.193,139.836c0,0.854,0.695,1.549,1.551,1.549c0.854,0,1.55-0.694,1.55-1.549
		c0-0.855-0.695-1.551-1.55-1.551C75.888,138.286,75.193,138.982,75.193,139.836z M77.726,139.836c0,0.541-0.44,0.982-0.982,0.982
		s-0.983-0.441-0.983-0.982c0-0.543,0.441-0.983,0.983-0.983S77.726,139.293,77.726,139.836z"/>
	<path fill="#EAEAEA" d="M65.145,116.243c0-0.559-0.455-1.014-1.014-1.014c-0.56,0-1.014,0.455-1.014,1.014
		c0,0.559,0.454,1.014,1.014,1.014C64.69,117.257,65.145,116.803,65.145,116.243z M63.684,116.243c0-0.247,0.201-0.447,0.447-0.447
		c0.247,0,0.447,0.201,0.447,0.447c0,0.247-0.201,0.447-0.447,0.447C63.884,116.691,63.684,116.49,63.684,116.243z"/>
	<path fill="#EAEAEA" d="M1078.303,22.156c0.3,0.765,1.166,1.144,1.931,0.844l7.935-3.109c0.765-0.3,1.144-1.166,0.844-1.931
		l-6.317-16.123c-0.3-0.765-1.166-1.143-1.931-0.844l-7.935,3.109c-0.765,0.3-1.143,1.166-0.844,1.931L1078.303,22.156z
		 M1088.383,18.207c0.164,0.418-0.043,0.891-0.461,1.054l-7.935,3.109c-0.418,0.164-0.891-0.043-1.054-0.461l-0.938-2.392
		l9.449-3.702L1088.383,18.207z M1082.509,3.216l4.688,11.969l-9.449,3.702l-4.689-11.969L1082.509,3.216z M1073.076,4.731
		l7.935-3.109c0.418-0.164,0.891,0.043,1.055,0.461l0.197,0.502l-9.449,3.702l-0.197-0.502
		C1072.452,5.368,1072.658,4.895,1073.076,4.731z"/>
	<path fill="#EAEAEA" d="M1083.955,20.187c0.588-0.23,0.879-0.895,0.648-1.482s-0.895-0.878-1.482-0.648
		c-0.587,0.23-0.878,0.895-0.647,1.482C1082.703,20.126,1083.368,20.417,1083.955,20.187z M1083.329,18.59
		c0.294-0.115,0.626,0.03,0.741,0.324s-0.03,0.626-0.324,0.741c-0.294,0.115-0.626-0.03-0.74-0.324
		C1082.891,19.037,1083.035,18.705,1083.329,18.59z"/>
	
		<rect x="1065.54" y="6.3" transform="matrix(-0.062 -0.9981 0.9981 -0.062 1122.5081 1073.7745)" fill="#EAEAEA" width="0.567" height="6.235"/>
	<polygon fill="#EAEAEA" points="1091.816,-0.083 1090.941,-0.083 1087.588,2.77 1087.955,3.202 	"/>
	
		<rect x="1066.65" y="20.281" transform="matrix(0.861 -0.5086 0.5086 0.861 138.2271 546.9279)" fill="#EAEAEA" width="6.235" height="0.567"/>
	
		<rect x="1091.257" y="12.045" transform="matrix(0.9927 -0.1208 0.1208 0.9927 6.5292 132.3281)" fill="#EAEAEA" width="6.235" height="0.567"/>
	<circle fill="#EAEAEA" cx="1069.834" cy="14.381" r="0.79"/>
	<circle fill="#EAEAEA" cx="1090.948" cy="7.437" r="0.803"/>
	<path fill="#EAEAEA" d="M1047.955,179.444l2.679,7.041c0.263,0.691,1.041,1.039,1.734,0.775l12.061-4.586
		c0.692-0.264,1.044-1.041,0.781-1.732l-2.679-7.041c-0.263-0.691-1.041-1.039-1.734-0.775l-12.061,4.586
		C1048.043,177.975,1047.693,178.752,1047.955,179.444z M1060.988,173.627c0.417-0.158,0.884,0.049,1.041,0.463l2.679,7.041l0,0
		c0.156,0.414-0.054,0.881-0.47,1.039l-12.06,4.588c-0.416,0.158-0.883-0.051-1.041-0.465l-2.678-7.041
		c-0.158-0.414,0.053-0.879,0.469-1.039L1060.988,173.627z"/>
	
		<rect x="1051.512" y="182.769" transform="matrix(0.9346 -0.3557 0.3557 0.9346 3.8358 386.9413)" fill="#EAEAEA" width="5.645" height="0.538"/>
	
		<rect x="1059.842" y="178.061" transform="matrix(-0.3557 -0.9346 0.9346 -0.3557 1268.1306 1236.0052)" fill="#EAEAEA" width="0.538" height="5.646"/>
	<path fill="#EAEAEA" d="M1050.48,180.788l0.191,0.504l0.096,0.25c0.158,0.416,0.624,0.627,1.039,0.469l1.51-0.574l0.503-0.191
		l0.756-0.287c0.415-0.158,0.623-0.625,0.465-1.041l-0.287-0.754l-0.19-0.502l-0.096-0.252c-0.158-0.416-0.624-0.625-1.038-0.468
		l-0.756,0.288l-0.504,0.191l-1.51,0.574c-0.415,0.157-0.623,0.623-0.465,1.039L1050.48,180.788z M1051.615,181.506
		c-0.137,0.053-0.292-0.018-0.345-0.155l-0.096-0.251l1.759-0.669l0.191,0.503L1051.615,181.506z M1054.536,180.108
		L1054.536,180.108c0.055,0.141-0.014,0.293-0.153,0.346l-0.756,0.289l-0.383-1.006l1.006-0.382L1054.536,180.108z
		 M1053.618,178.444c0.138-0.052,0.292,0.018,0.346,0.156l0.095,0.251l-1.005,0.382l-0.191-0.503L1053.618,178.444z
		 M1050.85,179.497l1.51-0.574l0.191,0.504l0.19,0.503l-1.759,0.669l-0.287-0.754
		C1050.643,179.702,1050.709,179.549,1050.85,179.497z"/>
	<path fill="#EAEAEA" d="M1058.157,168.026c0-0.742-0.604-1.346-1.346-1.346s-1.346,0.604-1.346,1.346s0.604,1.346,1.346,1.346
		S1058.157,168.768,1058.157,168.026z M1056.032,168.026c0-0.43,0.35-0.779,0.779-0.779s0.779,0.351,0.779,0.779
		c0,0.43-0.351,0.779-0.779,0.779C1056.382,168.805,1056.032,168.456,1056.032,168.026z"/>
	<path fill="#EAEAEA" d="M1048.806,170.647c-1.017,0-1.842,0.826-1.842,1.842s0.825,1.842,1.842,1.842
		c1.016,0,1.842-0.826,1.842-1.842S1049.821,170.647,1048.806,170.647z M1048.806,173.765c-0.703,0-1.275-0.572-1.275-1.274
		c0-0.703,0.572-1.275,1.275-1.275s1.274,0.572,1.274,1.275C1050.08,173.193,1049.509,173.765,1048.806,173.765z"/>
	<path fill="#EAEAEA" d="M1067.351,171.073c0-0.693-0.564-1.258-1.258-1.258c-0.694,0-1.259,0.564-1.259,1.258
		c0,0.694,0.564,1.258,1.259,1.258C1066.786,172.331,1067.351,171.766,1067.351,171.073z M1065.403,171.073
		c0-0.381,0.311-0.691,0.691-0.691s0.69,0.311,0.69,0.691s-0.31,0.691-0.69,0.691S1065.403,171.454,1065.403,171.073z"/>
	<path fill="#EAEAEA" d="M1045.609,182.834c0-0.66-0.537-1.197-1.197-1.197c-0.659,0-1.196,0.537-1.196,1.197
		s0.537,1.197,1.196,1.197C1045.073,184.032,1045.609,183.495,1045.609,182.834z M1043.782,182.834c0-0.348,0.283-0.631,0.63-0.631
		c0.348,0,0.631,0.283,0.631,0.631c0,0.347-0.282,0.629-0.631,0.629C1044.065,183.463,1043.782,183.182,1043.782,182.834z"/>
	<path fill="#EAEAEA" d="M1062.834,187.51c-1.017,0-1.843,0.826-1.843,1.843s0.826,1.842,1.843,1.842
		c1.016,0,1.842-0.825,1.842-1.842C1064.677,188.336,1063.85,187.51,1062.834,187.51z M1062.834,190.627
		c-0.703,0-1.275-0.571-1.275-1.274s0.572-1.274,1.275-1.274c0.702,0,1.274,0.571,1.274,1.274
		C1064.11,190.056,1063.537,190.627,1062.834,190.627z"/>
	<path fill="#EAEAEA" d="M1237.406,137.222c0.248-0.091,0.468-0.259,0.622-0.489c0.274-0.406,0.293-0.925,0.05-1.352l-2.168-3.792
		c-0.092-0.162-0.099-0.358-0.018-0.526l1.896-3.936c0.213-0.442,0.156-0.957-0.146-1.344c-0.303-0.387-0.789-0.565-1.271-0.465
		l-4.276,0.89c-0.183,0.038-0.371-0.016-0.505-0.145l-3.157-3.019c-0.354-0.339-0.862-0.445-1.323-0.277s-0.781,0.576-0.834,1.064
		l-0.475,4.342c-0.021,0.185-0.13,0.348-0.294,0.436l-3.846,2.071c-0.433,0.233-0.69,0.681-0.673,1.172
		c0.018,0.491,0.306,0.921,0.754,1.122l3.982,1.794c0.17,0.077,0.292,0.231,0.324,0.414l0.781,4.298
		c0.088,0.482,0.435,0.867,0.906,1.002c0.473,0.137,0.971-0.006,1.301-0.369l2.936-3.234c0.125-0.139,0.311-0.205,0.494-0.18
		l4.329,0.586C1237.006,137.316,1237.215,137.292,1237.406,137.222z M1231.951,136.059c-0.191,0.07-0.367,0.188-0.51,0.342
		l-2.936,3.234c-0.149,0.162-0.363,0.224-0.574,0.162c-0.212-0.061-0.361-0.225-0.401-0.442l-0.78-4.298
		c-0.075-0.415-0.351-0.766-0.734-0.939l-3.983-1.793c-0.201-0.09-0.325-0.276-0.333-0.496c-0.008-0.22,0.104-0.414,0.297-0.518
		l3.847-2.07c0.37-0.2,0.62-0.569,0.666-0.988l0.475-4.342c0.024-0.219,0.162-0.394,0.368-0.47c0.207-0.075,0.425-0.03,0.584,0.122
		l3.158,3.018c0.305,0.292,0.732,0.414,1.145,0.328l4.277-0.89c0.215-0.045,0.425,0.032,0.56,0.206
		c0.136,0.173,0.16,0.395,0.064,0.593l-1.896,3.936c-0.183,0.38-0.167,0.825,0.042,1.191l2.168,3.792
		c0.109,0.19,0.102,0.414-0.021,0.597s-0.327,0.273-0.544,0.244l-4.329-0.586C1232.354,135.965,1232.144,135.989,1231.951,136.059z"
		/>
	
		<rect x="1230.976" y="120.299" transform="matrix(-0.2096 0.9778 -0.9778 -0.2096 1609.3317 -1059.7654)" fill="#EAEAEA" width="4.058" height="0.567"/>
	
		<rect x="1218.544" y="125.729" transform="matrix(-0.9048 -0.4258 0.4258 -0.9048 2271.3025 759.7668)" fill="#EAEAEA" width="4.058" height="0.567"/>
	<rect x="1239.223" y="131.35" fill="#EAEAEA" width="4.058" height="0.567"/>
	
		<rect x="1220.263" y="137.898" transform="matrix(0.7682 -0.6402 0.6402 0.7682 194.84 814.5199)" fill="#EAEAEA" width="4.058" height="0.567"/>
	
		<rect x="1233.934" y="139.202" transform="matrix(0.9182 -0.3962 0.3962 0.9182 45.0491 500.561)" fill="#EAEAEA" width="0.567" height="4.058"/>
	<path fill="#EAEAEA" d="M1409.923,79.017c-0.977-4.082-5.466-6.263-10.442-5.073s-7.993,5.166-7.017,9.248
		c0.632,2.642,2.407,4.446,5.012,5.096l0.901,3.769c0.022,0.097,0.098,0.174,0.194,0.2c0.044,0.012,0.09,0.012,0.133,0.002
		c0.052-0.012,0.099-0.039,0.136-0.079l3.565-3.815l0.011-0.002c0.163-0.03,0.325-0.059,0.489-0.098
		C1407.882,87.075,1410.899,83.099,1409.923,79.017z M1402.779,87.736c-0.152,0.037-0.306,0.065-0.459,0.093l-0.1,0.018
		c-0.056,0.006-0.109,0.038-0.149,0.082l-3.281,3.511l-0.823-3.44c-0.024-0.101-0.104-0.179-0.204-0.202
		c-3.181-0.726-4.349-2.974-4.77-4.732c-0.904-3.78,1.94-7.474,6.615-8.592c4.675-1.118,8.882,0.89,9.786,4.67
		C1410.297,82.924,1407.452,86.618,1402.779,87.736z"/>
	<path fill="#EAEAEA" d="M1386.974,74.938c0,0.694,0.563,1.258,1.258,1.258c0.693,0,1.258-0.564,1.258-1.258
		s-0.563-1.258-1.258-1.258C1387.537,73.681,1386.974,74.245,1386.974,74.938z M1388.923,74.938c0,0.381-0.311,0.691-0.691,0.691
		s-0.691-0.31-0.691-0.691s0.311-0.691,0.691-0.691C1388.613,74.248,1388.923,74.558,1388.923,74.938z"/>
	<path fill="#EAEAEA" d="M1405.906,92.858c0,0.855,0.695,1.55,1.551,1.55c0.854,0,1.55-0.695,1.55-1.55s-0.695-1.55-1.55-1.55
		C1406.602,91.308,1405.906,92.004,1405.906,92.858z M1408.44,92.858c0,0.542-0.441,0.983-0.983,0.983s-0.982-0.441-0.982-0.983
		s0.44-0.983,0.982-0.983S1408.44,92.316,1408.44,92.858z"/>
	<path fill="#EAEAEA" d="M1395.859,69.266c0-0.559-0.455-1.014-1.014-1.014c-0.56,0-1.015,0.455-1.015,1.014
		s0.455,1.014,1.015,1.014C1395.404,70.28,1395.859,69.825,1395.859,69.266z M1394.397,69.266c0-0.247,0.201-0.447,0.447-0.447
		s0.447,0.201,0.447,0.447c0,0.247-0.201,0.447-0.447,0.447S1394.397,69.512,1394.397,69.266z"/>
	<path fill="#EAEAEA" d="M1567.529,41.426c0.238,0.684,0.986,1.045,1.669,0.807l11.613-4.043c0.684-0.238,1.045-0.986,0.807-1.669
		l-2.984-8.574c-0.238-0.684-0.986-1.045-1.669-0.807l-0.959,0.334l-2.036-1.983c-0.044-0.043-0.104-0.067-0.166-0.066
		c-0.063,0-0.12,0.026-0.164,0.07l-1.788,1.836l-2.159-0.6c-0.113-0.031-0.233,0.028-0.279,0.138l-1.348,3.369l-2.714,0.945
		c-0.684,0.238-1.045,0.986-0.807,1.669L1567.529,41.426z M1580.256,34.025l-3.088,1.075c-0.965,0.336-2.022-0.177-2.358-1.143
		l-0.135-0.389c-0.337-0.966,0.174-2.026,1.138-2.361l3.088-1.075L1580.256,34.025z M1573.81,25.987l1.703,1.658l-5.019,1.747
		L1573.81,25.987z M1569.768,27.236l1.712,0.476l-1.969,2.023l-0.862,0.3L1569.768,27.236z M1565.504,31.623l11.612-4.043
		c0.44-0.153,0.923,0.08,1.076,0.52l0.554,1.59l-3.088,1.075c-1.207,0.42-1.846,1.745-1.425,2.954l0.135,0.389
		c0.421,1.209,1.745,1.85,2.952,1.43l3.088-1.075l0.77,2.209c0.152,0.44-0.08,0.923-0.521,1.076l-11.611,4.043
		c-0.44,0.153-0.923-0.08-1.076-0.52l-2.985-8.574C1564.83,32.259,1565.064,31.776,1565.504,31.623z"/>
	<path fill="#EAEAEA" d="M1575.59,33.393c0.169,0.485,0.701,0.743,1.186,0.574c0.485-0.169,0.743-0.701,0.574-1.186
		c-0.169-0.485-0.701-0.742-1.187-0.574C1575.679,32.376,1575.421,32.908,1575.59,33.393z M1576.317,32.647
		c0.243-0.084,0.509,0.044,0.593,0.287c0.084,0.243-0.044,0.509-0.286,0.593c-0.243,0.084-0.51-0.044-0.594-0.287
		C1575.946,32.997,1576.074,32.731,1576.317,32.647z"/>
	
		<rect x="1557.329" y="30.288" transform="matrix(-0.9661 -0.2583 0.2583 -0.9661 3057.4683 462.8463)" fill="#EAEAEA" width="3.62" height="0.567"/>
	
		<rect x="1565.431" y="44.93" transform="matrix(-0.7998 -0.6003 0.6003 -0.7998 2789.9072 1023.9821)" fill="#EAEAEA" width="0.568" height="3.619"/>
	
		<rect x="1580.109" y="22.581" transform="matrix(0.5647 -0.8253 0.8253 0.5647 669.6657 1315.4524)" fill="#EAEAEA" width="3.619" height="0.567"/>
	
		<rect x="1587.237" y="37.591" transform="matrix(0.2153 -0.9766 0.9766 0.2153 1207.2684 1581.2122)" fill="#EAEAEA" width="0.567" height="3.619"/>
	<path fill="#EAEAEA" d="M1550.086,190.59l-7.935,3.109c-0.765,0.299-1.143,1.166-0.844,1.93l6.317,16.123
		c0.3,0.766,1.166,1.145,1.931,0.845l7.934-3.109c0.766-0.3,1.145-1.165,0.845-1.931l-6.317-16.123
		C1551.717,190.668,1550.851,190.292,1550.086,190.59z M1541.938,195.383c-0.164-0.418,0.043-0.891,0.461-1.055l7.934-3.109
		c0.418-0.163,0.892,0.044,1.056,0.462l0.197,0.502l-9.449,3.702L1541.938,195.383z M1557.703,207.804
		c0.164,0.418-0.043,0.891-0.461,1.054l-7.934,3.109c-0.418,0.164-0.891-0.043-1.054-0.461l-0.938-2.393l9.449-3.701
		L1557.703,207.804z M1547.071,208.484l-4.689-11.969l9.449-3.702l4.688,11.969L1547.071,208.484z"/>
	<path fill="#EAEAEA" d="M1553.278,209.784c0.587-0.229,0.878-0.895,0.648-1.482c-0.23-0.586-0.896-0.877-1.482-0.647
		s-0.878,0.896-0.648,1.481C1552.026,209.724,1552.69,210.014,1553.278,209.784z M1552.652,208.187
		c0.294-0.114,0.626,0.03,0.741,0.323c0.115,0.295-0.03,0.627-0.324,0.742s-0.626-0.03-0.741-0.324
		C1552.213,208.633,1552.358,208.301,1552.652,208.187z"/>
	
		<rect x="1534.727" y="196.011" transform="matrix(0.0638 0.998 -0.998 0.0638 1635.8416 -1345.4561)" fill="#EAEAEA" width="0.567" height="6.235"/>
	
		<rect x="1556.323" y="190.328" transform="matrix(-0.7616 0.6481 -0.6481 -0.7616 2870.6309 -674.8195)" fill="#EAEAEA" width="6.236" height="0.567"/>
	
		<rect x="1535.984" y="209.917" transform="matrix(0.861 -0.5086 0.5086 0.861 107.0134 811.982)" fill="#EAEAEA" width="6.235" height="0.567"/>
	
		<rect x="1563.403" y="198.708" transform="matrix(0.1221 0.9925 -0.9925 0.1221 1573.0303 -1374.8049)" fill="#EAEAEA" width="0.568" height="6.235"/>
	<circle fill="#EAEAEA" cx="1539.156" cy="203.978" r="0.79"/>
	<circle fill="#EAEAEA" cx="1560.271" cy="197.035" r="0.803"/>
	<path fill="#EAEAEA" d="M1380.531,242.9c-0.263-0.69-1.041-1.039-1.734-0.776l-12.061,4.588c-0.694,0.264-1.044,1.041-0.781,1.731
		l2.679,7.041c0.263,0.69,1.041,1.039,1.734,0.776l12.061-4.588c0.692-0.264,1.044-1.041,0.781-1.731L1380.531,242.9z
		 M1382.238,251.17l-12.06,4.588c-0.416,0.158-0.883-0.051-1.041-0.465l-2.678-7.041c-0.158-0.414,0.053-0.879,0.469-1.039
		l12.06-4.586c0.417-0.158,0.884,0.049,1.041,0.463l2.679,7.041l0,0C1382.865,250.547,1382.654,251.013,1382.238,251.17z"/>
	
		<rect x="1372.133" y="249.189" transform="matrix(0.3557 0.9346 -0.9346 0.3557 1119.7787 -1120.2771)" fill="#EAEAEA" width="0.538" height="5.646"/>
	
		<rect x="1377.912" y="246.99" transform="matrix(0.3551 0.9348 -0.9348 0.3551 1122.3353 -1127.2611)" fill="#EAEAEA" width="0.539" height="5.646"/>
	<path fill="#EAEAEA" d="M1371.316,250.435l0.503-0.19l0.756-0.289c0.415-0.158,0.623-0.623,0.465-1.039l-0.286-0.754l-0.191-0.504
		l-0.096-0.25c-0.158-0.416-0.624-0.625-1.038-0.469l-0.756,0.288l-0.503,0.19l-1.511,0.574c-0.415,0.158-0.623,0.625-0.465,1.041
		l0.287,0.754l0.191,0.502l0.096,0.252c0.158,0.416,0.624,0.625,1.039,0.467L1371.316,250.435z M1372.536,249.108L1372.536,249.108
		c0.055,0.141-0.014,0.293-0.153,0.346l-0.756,0.289l-0.383-1.006l1.006-0.382L1372.536,249.108z M1371.618,247.444
		c0.138-0.052,0.292,0.018,0.346,0.156l0.095,0.251l-1.005,0.382l-0.191-0.503L1371.618,247.444z M1368.696,248.842
		c-0.053-0.141,0.015-0.293,0.154-0.346l1.51-0.574l0.191,0.504l0.191,0.503l-1.76,0.669L1368.696,248.842z M1369.27,250.351
		l-0.096-0.251l1.759-0.669l0.191,0.503l-1.511,0.574C1369.477,250.559,1369.323,250.489,1369.27,250.351z"/>
	<path fill="#EAEAEA" d="M1376.157,237.026c0-0.742-0.604-1.346-1.346-1.346s-1.346,0.604-1.346,1.346s0.604,1.346,1.346,1.346
		S1376.157,237.768,1376.157,237.026z M1374.032,237.026c0-0.43,0.35-0.779,0.779-0.779s0.779,0.351,0.779,0.779
		c0,0.43-0.351,0.779-0.779,0.779C1374.382,237.805,1374.032,237.456,1374.032,237.026z"/>
	<path fill="#EAEAEA" d="M1368.648,241.491c0-1.017-0.826-1.843-1.842-1.843c-1.017,0-1.843,0.826-1.843,1.843
		c0,1.016,0.826,1.842,1.843,1.842C1367.822,243.333,1368.648,242.504,1368.648,241.491z M1365.53,241.491
		c0-0.703,0.572-1.275,1.275-1.275s1.275,0.572,1.275,1.275c0,0.702-0.572,1.274-1.275,1.274S1365.53,242.193,1365.53,241.491z"/>
	<path fill="#EAEAEA" d="M1384.094,238.815c-0.694,0-1.258,0.564-1.258,1.258c0,0.694,0.563,1.258,1.258,1.258
		c0.693,0,1.258-0.563,1.258-1.258C1385.351,239.379,1384.786,238.815,1384.094,238.815z M1384.094,240.763
		c-0.381,0-0.691-0.31-0.691-0.69c0-0.382,0.311-0.691,0.691-0.691s0.69,0.31,0.69,0.691
		C1384.784,240.454,1384.475,240.763,1384.094,240.763z"/>
	<path fill="#EAEAEA" d="M1362.412,250.637c-0.66,0-1.196,0.537-1.196,1.197s0.536,1.197,1.196,1.197s1.197-0.537,1.197-1.197
		C1363.609,251.174,1363.073,250.637,1362.412,250.637z M1362.412,252.463c-0.347,0-0.63-0.282-0.63-0.629
		c0-0.348,0.283-0.631,0.63-0.631c0.348,0,0.631,0.283,0.631,0.631C1363.043,252.181,1362.76,252.463,1362.412,252.463z"/>
	<path fill="#EAEAEA" d="M1380.834,256.51c-1.017,0-1.843,0.826-1.843,1.842s0.826,1.842,1.843,1.842
		c1.016,0,1.842-0.826,1.842-1.842C1382.677,257.336,1381.85,256.51,1380.834,256.51z M1380.834,259.627
		c-0.703,0-1.275-0.571-1.275-1.274s0.572-1.274,1.275-1.274c0.702,0,1.274,0.571,1.274,1.274
		C1382.11,259.056,1381.537,259.627,1380.834,259.627z"/>
	<path fill="#EAEAEA" d="M1728.406,158.222c0.248-0.091,0.468-0.259,0.622-0.489c0.274-0.406,0.293-0.925,0.05-1.352l-2.168-3.791
		c-0.092-0.162-0.099-0.358-0.018-0.526l1.896-3.937c0.213-0.441,0.156-0.957-0.146-1.344c-0.303-0.387-0.789-0.564-1.271-0.465
		l-4.276,0.891c-0.183,0.037-0.371-0.017-0.505-0.146l-3.157-3.019c-0.354-0.34-0.862-0.445-1.323-0.277s-0.781,0.576-0.834,1.064
		l-0.475,4.342c-0.021,0.185-0.13,0.348-0.294,0.436l-3.846,2.071c-0.433,0.233-0.69,0.681-0.673,1.172s0.306,0.921,0.754,1.122
		l3.982,1.794c0.17,0.077,0.292,0.231,0.324,0.414l0.781,4.298c0.088,0.482,0.435,0.867,0.906,1.002
		c0.473,0.137,0.971-0.006,1.301-0.369l2.936-3.234c0.125-0.139,0.311-0.205,0.494-0.18l4.329,0.586
		C1728.006,158.316,1728.215,158.292,1728.406,158.222z M1722.951,157.059c-0.191,0.07-0.367,0.188-0.51,0.342l-2.936,3.234
		c-0.149,0.162-0.363,0.224-0.574,0.162c-0.212-0.061-0.361-0.225-0.401-0.442l-0.78-4.298c-0.075-0.415-0.351-0.766-0.734-0.939
		l-3.983-1.793c-0.201-0.091-0.325-0.277-0.333-0.496c-0.008-0.221,0.104-0.414,0.297-0.519l3.847-2.069
		c0.37-0.201,0.62-0.57,0.666-0.988l0.475-4.342c0.024-0.22,0.162-0.395,0.368-0.471c0.207-0.074,0.425-0.029,0.584,0.122
		l3.158,3.019c0.305,0.291,0.732,0.414,1.145,0.328l4.277-0.891c0.215-0.045,0.425,0.031,0.56,0.206
		c0.136,0.173,0.16,0.396,0.064,0.593l-1.896,3.936c-0.183,0.381-0.167,0.826,0.042,1.191l2.168,3.792
		c0.109,0.19,0.102,0.414-0.021,0.597s-0.327,0.273-0.544,0.244l-4.329-0.586C1723.354,156.965,1723.144,156.989,1722.951,157.059z"
		/>
	
		<rect x="1721.966" y="141.3" transform="matrix(-0.2097 0.9778 -0.9778 -0.2097 2223.8857 -1514.4092)" fill="#EAEAEA" width="4.057" height="0.567"/>
	
		<rect x="1709.549" y="146.748" transform="matrix(-0.9048 -0.4259 0.4259 -0.9048 3197.5298 1009.0421)" fill="#EAEAEA" width="4.058" height="0.566"/>
	
		<rect x="1730.178" y="152.396" transform="matrix(1 0.007 -0.007 1 1.1078 -12.086)" fill="#EAEAEA" width="4.058" height="0.567"/>
	
		<rect x="1711.276" y="158.909" transform="matrix(0.7682 -0.6402 0.6402 0.7682 295.1948 1133.7285)" fill="#EAEAEA" width="4.058" height="0.567"/>
	
		<rect x="1724.953" y="160.186" transform="matrix(0.9191 -0.3941 0.3941 0.9191 75.7141 693.0927)" fill="#EAEAEA" width="0.567" height="4.058"/>
	<path fill="#EAEAEA" d="M1903.923,105.017c-0.977-4.082-5.466-6.263-10.442-5.073s-7.993,5.166-7.017,9.248
		c0.632,2.642,2.407,4.446,5.012,5.096l0.901,3.769c0.022,0.097,0.098,0.174,0.194,0.2c0.044,0.012,0.09,0.012,0.133,0.002
		c0.052-0.012,0.099-0.039,0.136-0.079l3.565-3.815l0.011-0.002c0.163-0.03,0.325-0.059,0.489-0.098
		C1901.882,113.075,1904.899,109.099,1903.923,105.017z M1896.779,113.736c-0.152,0.037-0.306,0.065-0.459,0.093l-0.1,0.018
		c-0.056,0.006-0.109,0.038-0.149,0.082l-3.281,3.511l-0.823-3.439c-0.024-0.101-0.104-0.179-0.204-0.202
		c-3.18-0.726-4.348-2.974-4.77-4.732c-0.903-3.78,1.94-7.474,6.615-8.592c4.675-1.118,8.882,0.89,9.786,4.67
		C1904.297,108.924,1901.452,112.618,1896.779,113.736z"/>
	<path fill="#EAEAEA" d="M1880.974,100.938c0,0.694,0.563,1.258,1.258,1.258c0.693,0,1.258-0.564,1.258-1.258
		s-0.563-1.258-1.258-1.258C1881.537,99.681,1880.974,100.245,1880.974,100.938z M1882.923,100.938c0,0.381-0.311,0.691-0.691,0.691
		s-0.691-0.31-0.691-0.691s0.311-0.691,0.691-0.691C1882.613,100.248,1882.923,100.558,1882.923,100.938z"/>
	<path fill="#EAEAEA" d="M1899.906,118.858c0,0.855,0.695,1.55,1.551,1.55c0.854,0,1.55-0.695,1.55-1.55s-0.695-1.55-1.55-1.55
		C1900.602,117.308,1899.906,118.004,1899.906,118.858z M1902.44,118.858c0,0.542-0.441,0.983-0.983,0.983s-0.982-0.441-0.982-0.983
		s0.44-0.983,0.982-0.983S1902.44,118.316,1902.44,118.858z"/>
	<path fill="#EAEAEA" d="M1889.859,95.266c0-0.559-0.455-1.014-1.014-1.014c-0.56,0-1.015,0.455-1.015,1.014
		s0.455,1.014,1.015,1.014C1889.404,96.28,1889.859,95.825,1889.859,95.266z M1888.397,95.266c0-0.247,0.201-0.447,0.447-0.447
		s0.447,0.201,0.447,0.447c0,0.247-0.201,0.447-0.447,0.447S1888.397,95.512,1888.397,95.266z"/>
</g>
</svg>
