<?xml version="1.0" encoding="utf-8"?>
<!-- Generator: Adobe Illustrator 16.0.0, SVG Export Plug-In . SVG Version: 6.00 Build 0)  -->
<!DOCTYPE svg PUBLIC "-//W3C//DTD SVG 1.1//EN" "http://www.w3.org/Graphics/SVG/1.1/DTD/svg11.dtd">
<svg version="1.1" id="Слой_1" xmlns="http://www.w3.org/2000/svg" xmlns:xlink="http://www.w3.org/1999/xlink" x="0px" y="0px"
	 width="17.084px" height="17.892px" viewBox="0 0 17.084 17.892" enable-background="new 0 0 17.084 17.892" xml:space="preserve">
<g>
	<defs>
		<rect id="SVGID_1_" y="0" width="17.083" height="17.892"/>
	</defs>
	<clipPath id="SVGID_2_">
		<use xlink:href="#SVGID_1_"  overflow="visible"/>
	</clipPath>
	<path clip-path="url(#SVGID_2_)" fill="#000100" d="M16.063,8.093V6.209c0-1.353-0.981-2.494-2.285-2.724l-0.954-3.041
		c-0.055-0.171-0.18-0.312-0.342-0.387c-0.167-0.075-0.358-0.076-0.52-0.007L4.022,3.443H2.767C1.241,3.443,0,4.685,0,6.21v8.915
		c0,1.525,1.241,2.767,2.767,2.767h10.529c1.526,0,2.768-1.241,2.768-2.767v-1.882c0.607-0.268,1.02-0.875,1.02-1.562V9.654
		C17.083,8.966,16.671,8.358,16.063,8.093 M12.052,0.993l0.766,2.435L6.251,3.441L12.052,0.993z M15.162,15.125
		c0,1.029-0.836,1.866-1.866,1.866H2.767c-1.029,0-1.867-0.837-1.867-1.866V6.21c0-1.029,0.838-1.867,1.867-1.867h1.277v0.003
		l9.055-0.019l0.311,0.019c0.983,0.06,1.753,0.878,1.753,1.863v1.741h-5.37c-0.938,0-1.704,0.763-1.704,1.703v2.028
		c0,0.938,0.766,1.704,1.704,1.704h5.37V15.125z M16.183,11.682c0,0.386-0.274,0.718-0.653,0.79l-5.737,0.014
		c-0.443,0-0.803-0.36-0.803-0.804V9.654c0-0.443,0.359-0.803,0.803-0.803h5.664l0.074,0.014c0.379,0.071,0.652,0.403,0.652,0.789
		V11.682z"/>
	<path clip-path="url(#SVGID_2_)" fill="#000100" d="M10.972,9.896c-0.494,0-0.894,0.399-0.894,0.894
		c0,0.493,0.399,0.894,0.894,0.894s0.895-0.4,0.895-0.894C11.866,10.296,11.466,9.896,10.972,9.896"/>
</g>
</svg>
