<?xml version="1.0" encoding="utf-8"?>
<!-- Generator: Adobe Illustrator 16.0.0, SVG Export Plug-In . SVG Version: 6.00 Build 0)  -->
<!DOCTYPE svg PUBLIC "-//W3C//DTD SVG 1.1//EN" "http://www.w3.org/Graphics/SVG/1.1/DTD/svg11.dtd">
<svg version="1.1" id="Слой_1" xmlns="http://www.w3.org/2000/svg" xmlns:xlink="http://www.w3.org/1999/xlink" x="0px" y="0px"
	 width="126.858px" height="105.084px" viewBox="0 0 126.858 105.084" enable-background="new 0 0 126.858 105.084"
	 xml:space="preserve">
<g>
	<defs>
		<rect id="SVGID_1_" width="126.858" height="105.084"/>
	</defs>
	<clipPath id="SVGID_2_">
		<use xlink:href="#SVGID_1_"  overflow="visible"/>
	</clipPath>
	<path clip-path="url(#SVGID_2_)" fill="#595A5A" d="M70.336,18.344c-0.559-0.82-1.444-1.134-2.39-0.914l-4.992,1.073
		c-0.476-0.594-0.238-0.297-0.826-0.849l1.518-4.922c0.313-0.886-0.062-1.902-0.804-2.526c-0.042-0.113-1.992-1.574-5.702-3.283
		c-3.71-1.709-6.088-2.243-6.2-2.201c-0.957-0.16-1.974,0.215-2.443,1.03l-2.755,4.352c-0.802-0.088-0.422-0.101-1.182-0.076
		l-2.428-4.492c-0.447-0.862-1.261-1.331-2.248-1.223c-0.113,0.042-2.621,0.198-6.459,1.615c-3.839,1.417-5.847,2.928-5.96,2.969
		c-0.82,0.56-1.134,1.445-0.914,2.39l1.074,4.992c-0.595,0.476-0.298,0.238-0.85,0.827l-4.922-1.519
		c-0.886-0.314-1.902,0.061-2.526,0.804c-0.112,0.042-1.573,1.993-3.283,5.702c-1.709,3.71-2.242,6.088-2.201,6.201
		c-0.16,0.957,0.215,1.973,1.03,2.442l4.352,2.755c-0.088,0.802-0.059,0.535-0.034,1.296l-4.534,2.315
		c-0.861,0.446-1.33,1.261-1.223,2.247c0.042,0.113,0.198,2.621,1.615,6.46c1.417,3.838,2.928,5.846,2.97,5.959
		c0.559,0.82,1.445,1.134,2.39,0.914l4.991-1.073c0.476,0.594,0.238,0.297,0.827,0.849l-1.518,4.923
		c-0.315,0.886,0.06,1.901,0.804,2.525c0.041,0.113,1.992,1.574,5.702,3.283c3.709,1.709,6.087,2.243,6.2,2.201
		c0.957,0.159,1.973-0.216,2.442-1.03l2.755-4.353c0.803,0.09,0.535,0.06,1.296,0.035l2.315,4.533
		c0.446,0.862,1.261,1.331,2.247,1.223c0.113-0.041,2.621-0.197,6.46-1.614c3.838-1.417,5.846-2.929,5.959-2.97
		c0.82-0.559,1.135-1.444,0.914-2.39l-1.073-4.992c0.594-0.476,0.297-0.238,0.849-0.827l4.922,1.519
		c0.886,0.313,1.902-0.062,2.525-0.804c0.113-0.042,1.574-1.992,3.283-5.702c1.71-3.71,2.243-6.088,2.201-6.201
		c0.16-0.957-0.215-1.973-1.029-2.442l-4.354-2.755c0.09-0.802,0.102-0.422,0.077-1.183l4.491-2.427
		c0.862-0.447,1.331-1.261,1.223-2.248c-0.041-0.113-0.196-2.621-1.613-6.459C71.89,20.465,70.378,18.457,70.336,18.344
		 M70.053,29.738l-4.309,2.232c-0.748,0.404-1.33,1.26-1.264,2.134c0.031,2.169,0.048,1.522-0.117,3.507
		c-0.047,0.915,0.399,1.777,1.102,2.287l4.114,2.458c-0.314,0.886-0.729,2.194-1.441,3.74c-0.713,1.546-1.324,2.669-1.793,3.484
		l-4.655-1.489c-0.844-0.202-1.789,0.019-2.454,0.649c-1.586,1.612-0.808,0.94-2.59,2.368c-0.707,0.517-0.98,1.516-0.801,2.348
		l1.103,4.725c-0.862,0.445-2.062,1.018-3.643,1.601c-1.58,0.584-2.864,0.929-3.809,1.15l-2.231-4.309
		c-0.405-0.748-1.261-1.33-2.135-1.264c-2.169,0.031-1.521,0.048-3.506-0.117c-0.916-0.047-1.664,0.358-2.175,1.059l-2.571,4.156
		c-0.886-0.313-2.194-0.729-3.739-1.44c-1.546-0.714-2.557-1.366-3.372-1.835l1.376-4.613c0.202-0.844-0.019-1.789-0.649-2.454
		c-1.528-1.36-0.981-0.921-2.367-2.59c-0.518-0.707-1.516-0.98-2.348-0.801l-4.725,1.103c-0.446-0.862-1.017-2.062-1.601-3.643
		c-0.583-1.58-0.929-2.864-1.149-3.809l4.307-2.231c0.749-0.405,1.331-1.261,1.265-2.135s0.023-1.676-0.019-1.789
		c0,0,0.047-0.915,0.135-1.718c0.047-0.915-0.357-1.664-1.059-2.174l-4.043-2.613c0.314-0.886,0.617-2.152,1.329-3.698
		c0.712-1.545,1.478-2.598,1.947-3.412l4.613,1.376c0.844,0.201,1.676,0.022,2.342-0.608c1.36-1.529,0.92-0.981,2.589-2.367
		c0.707-0.518,0.98-1.517,0.801-2.349l-1.102-4.724c0.861-0.446,2.062-1.018,3.642-1.601c1.581-0.584,2.864-0.929,3.809-1.15
		l2.232,4.308c0.404,0.749,1.261,1.331,2.134,1.265c2.17-0.031,1.522-0.049,3.507,0.116c0.915,0.047,1.777-0.399,2.288-1.101
		l2.612-4.043c0.886,0.314,2.039,0.658,3.585,1.371c1.546,0.712,2.711,1.436,3.526,1.905l-1.489,4.655
		c-0.202,0.844-0.023,1.676,0.608,2.341c1.611,1.586,1.052,0.766,2.48,2.549c0.517,0.707,1.403,1.021,2.235,0.842l4.724-1.102
		c0.446,0.861,1.018,2.061,1.601,3.642C69.486,27.51,69.831,28.793,70.053,29.738"/>
	<path clip-path="url(#SVGID_2_)" fill="#595A5A" d="M39.666,22.128c-6.959,2.569-10.509,10.274-7.941,17.233
		c2.569,6.958,10.275,10.508,17.233,7.94c6.959-2.569,10.509-10.275,7.94-17.233C54.33,23.11,46.624,19.559,39.666,22.128
		 M47.485,43.31c-4.809,1.775-9.993-0.613-11.769-5.423c-1.775-4.809,0.613-9.993,5.423-11.768
		c4.809-1.776,9.993,0.613,11.769,5.422C54.683,36.351,52.293,41.535,47.485,43.31"/>
	<path clip-path="url(#SVGID_2_)" fill="#595A5A" d="M103.374,73.084c-0.164-0.611-0.632-0.988-1.248-1.054l-3.235-0.405
		c-0.162-0.458-0.081-0.229-0.319-0.686l1.952-2.648c0.376-0.467,0.363-1.159,0.047-1.691c-0.001-0.076-0.87-1.368-2.746-3.181
		c-1.877-1.811-3.198-2.634-3.275-2.632c-0.543-0.298-1.234-0.286-1.688,0.106l-2.577,2.044c-0.466-0.223-0.234-0.149-0.697-0.295
		l-0.518-3.22c-0.088-0.613-0.48-1.067-1.099-1.211c-0.076,0.002-1.621-0.432-4.233-0.386c-2.613,0.046-4.142,0.534-4.219,0.535
		c-0.611,0.165-0.987,0.632-1.054,1.248l-0.405,3.235c-0.458,0.162-0.229,0.081-0.686,0.319l-2.647-1.951
		c-0.468-0.377-1.159-0.363-1.691-0.048c-0.077,0.002-1.369,0.87-3.181,2.747c-1.812,1.876-2.634,3.197-2.633,3.274
		c-0.298,0.544-0.286,1.234,0.107,1.688l2.043,2.578c-0.222,0.465-0.148,0.311-0.293,0.774l-3.221,0.44
		c-0.613,0.087-1.068,0.48-1.211,1.098c0.002,0.076-0.433,1.621-0.387,4.234c0.046,2.612,0.534,4.142,0.535,4.218
		c0.165,0.612,0.633,0.988,1.249,1.055l3.235,0.403c0.162,0.458,0.081,0.229,0.319,0.687l-1.951,2.647
		c-0.376,0.469-0.364,1.159-0.048,1.692c0.001,0.077,0.869,1.368,2.746,3.18c1.876,1.813,3.198,2.635,3.274,2.634
		c0.544,0.297,1.235,0.284,1.689-0.107l2.577-2.044c0.465,0.222,0.311,0.147,0.774,0.294l0.44,3.22
		c0.089,0.614,0.48,1.068,1.098,1.211c0.077-0.001,1.622,0.434,4.234,0.388s4.142-0.534,4.219-0.536
		c0.611-0.164,0.987-0.632,1.054-1.248l0.404-3.236c0.459-0.161,0.229-0.08,0.686-0.319l2.648,1.952
		c0.468,0.376,1.159,0.364,1.691,0.047c0.077-0.001,1.368-0.869,3.181-2.745c1.812-1.877,2.634-3.198,2.633-3.275
		c0.298-0.543,0.285-1.235-0.107-1.689l-2.044-2.577c0.224-0.466,0.15-0.233,0.295-0.697l3.221-0.518
		c0.612-0.088,1.066-0.479,1.21-1.098c-0.001-0.077,0.433-1.622,0.387-4.234S103.376,73.16,103.374,73.084 M100.804,79.894
		l-3.066,0.438c-0.536,0.087-1.068,0.48-1.212,1.021c-0.438,1.313-0.291,0.927-0.81,2.089c-0.221,0.542-0.133,1.156,0.184,1.61
		l1.963,2.35c-0.377,0.467-0.902,1.169-1.657,1.95s-1.36,1.331-1.815,1.723l-2.491-1.877c-0.468-0.3-1.083-0.366-1.617-0.126
		c-1.295,0.638-0.686,0.396-2.061,0.882c-0.535,0.163-0.909,0.708-0.977,1.247l-0.33,3.081c-0.613,0.087-1.457,0.179-2.533,0.198
		c-1.076,0.019-1.922-0.043-2.539-0.109l-0.438-3.067c-0.086-0.536-0.48-1.067-1.021-1.212c-1.314-0.438-0.928-0.291-2.09-0.809
		c-0.542-0.221-1.078-0.134-1.534,0.181l-2.425,1.964c-0.468-0.376-1.169-0.9-1.951-1.655s-1.254-1.362-1.646-1.816l1.801-2.492
		c0.299-0.466,0.365-1.082,0.125-1.615c-0.635-1.143-0.398-0.763-0.882-2.061c-0.163-0.535-0.707-0.91-1.247-0.977l-3.08-0.33
		c-0.088-0.614-0.179-1.457-0.198-2.533c-0.019-1.076,0.043-1.923,0.109-2.539l3.066-0.438c0.536-0.086,1.067-0.479,1.211-1.021
		c0.146-0.54,0.367-1.005,0.366-1.082c0,0,0.222-0.542,0.443-1.007c0.221-0.542,0.135-1.079-0.181-1.534l-1.888-2.427
		c0.376-0.468,0.825-1.167,1.58-1.949s1.438-1.255,1.893-1.648l2.491,1.802c0.467,0.3,1.007,0.366,1.539,0.127
		c1.143-0.636,0.763-0.398,2.061-0.882c0.535-0.163,0.91-0.708,0.978-1.247l0.33-3.08c0.613-0.088,1.457-0.181,2.533-0.199
		c1.075-0.02,1.922,0.043,2.538,0.109l0.438,3.066c0.087,0.537,0.48,1.068,1.021,1.212c1.313,0.438,0.928,0.291,2.09,0.81
		c0.542,0.221,1.155,0.133,1.611-0.183l2.426-1.888c0.468,0.377,1.091,0.827,1.873,1.582s1.332,1.437,1.724,1.891l-1.878,2.493
		c-0.299,0.466-0.366,1.005-0.126,1.539c0.637,1.296,0.473,0.685,0.958,2.06c0.163,0.534,0.631,0.91,1.17,0.978l3.081,0.33
		c0.087,0.614,0.179,1.458,0.198,2.534C100.932,78.431,100.87,79.277,100.804,79.894"/>
	<path clip-path="url(#SVGID_2_)" fill="none" stroke="#595A5A" stroke-width="0.5" stroke-miterlimit="10" d="M103.374,73.084
		c-0.164-0.611-0.632-0.988-1.248-1.054l-3.235-0.405c-0.162-0.458-0.081-0.229-0.319-0.686l1.952-2.648
		c0.376-0.467,0.363-1.159,0.047-1.691c-0.001-0.076-0.87-1.368-2.746-3.181c-1.877-1.811-3.198-2.634-3.275-2.632
		c-0.543-0.298-1.234-0.286-1.688,0.106l-2.577,2.044c-0.466-0.223-0.234-0.149-0.697-0.295l-0.518-3.22
		c-0.088-0.613-0.48-1.067-1.099-1.211c-0.076,0.002-1.621-0.432-4.233-0.386c-2.613,0.046-4.142,0.534-4.219,0.535
		c-0.611,0.165-0.987,0.632-1.054,1.248l-0.405,3.235c-0.458,0.162-0.229,0.081-0.686,0.319l-2.647-1.951
		c-0.468-0.377-1.159-0.363-1.691-0.048c-0.077,0.002-1.369,0.87-3.181,2.747c-1.812,1.876-2.634,3.197-2.633,3.274
		c-0.298,0.544-0.286,1.234,0.107,1.688l2.043,2.578c-0.222,0.465-0.148,0.311-0.293,0.774l-3.221,0.44
		c-0.613,0.087-1.068,0.48-1.211,1.098c0.002,0.076-0.433,1.621-0.387,4.234c0.046,2.612,0.534,4.142,0.535,4.218
		c0.165,0.612,0.633,0.988,1.249,1.055l3.235,0.403c0.162,0.458,0.081,0.229,0.319,0.687l-1.951,2.647
		c-0.376,0.469-0.364,1.159-0.048,1.692c0.001,0.077,0.869,1.368,2.746,3.18c1.876,1.813,3.198,2.635,3.274,2.634
		c0.544,0.297,1.235,0.284,1.689-0.107l2.577-2.044c0.465,0.222,0.311,0.147,0.774,0.294l0.44,3.22
		c0.089,0.614,0.48,1.068,1.098,1.211c0.077-0.001,1.622,0.434,4.234,0.388s4.142-0.534,4.219-0.536
		c0.611-0.164,0.987-0.632,1.054-1.248l0.404-3.236c0.459-0.161,0.229-0.08,0.686-0.319l2.648,1.952
		c0.468,0.376,1.159,0.364,1.691,0.047c0.077-0.001,1.368-0.869,3.181-2.745c1.812-1.877,2.634-3.198,2.633-3.275
		c0.298-0.543,0.285-1.235-0.107-1.689l-2.044-2.577c0.224-0.466,0.15-0.233,0.295-0.697l3.221-0.518
		c0.612-0.088,1.066-0.479,1.21-1.098c-0.001-0.077,0.433-1.622,0.387-4.234S103.376,73.16,103.374,73.084z M100.804,79.894
		l-3.066,0.438c-0.536,0.087-1.068,0.48-1.212,1.021c-0.438,1.313-0.291,0.927-0.81,2.089c-0.221,0.542-0.133,1.156,0.184,1.61
		l1.963,2.35c-0.377,0.467-0.902,1.169-1.657,1.95s-1.36,1.331-1.815,1.723l-2.491-1.877c-0.468-0.3-1.083-0.366-1.617-0.126
		c-1.295,0.638-0.686,0.396-2.061,0.882c-0.535,0.163-0.909,0.708-0.977,1.247l-0.33,3.081c-0.613,0.087-1.457,0.179-2.533,0.198
		c-1.076,0.019-1.922-0.043-2.539-0.109l-0.438-3.067c-0.086-0.536-0.48-1.067-1.021-1.212c-1.314-0.438-0.928-0.291-2.09-0.809
		c-0.542-0.221-1.078-0.134-1.534,0.181l-2.425,1.964c-0.468-0.376-1.169-0.9-1.951-1.655s-1.254-1.362-1.646-1.816l1.801-2.492
		c0.299-0.466,0.365-1.082,0.125-1.615c-0.635-1.143-0.398-0.763-0.882-2.061c-0.163-0.535-0.707-0.91-1.247-0.977l-3.08-0.33
		c-0.088-0.614-0.179-1.457-0.198-2.533c-0.019-1.076,0.043-1.923,0.109-2.539l3.066-0.438c0.536-0.086,1.067-0.479,1.211-1.021
		c0.146-0.54,0.367-1.005,0.366-1.082c0,0,0.222-0.542,0.443-1.007c0.221-0.542,0.135-1.079-0.181-1.534l-1.888-2.427
		c0.376-0.468,0.825-1.167,1.58-1.949s1.438-1.255,1.893-1.648l2.491,1.802c0.467,0.3,1.007,0.366,1.539,0.127
		c1.143-0.636,0.763-0.398,2.061-0.882c0.535-0.163,0.91-0.708,0.978-1.247l0.33-3.08c0.613-0.088,1.457-0.181,2.533-0.199
		c1.075-0.02,1.922,0.043,2.538,0.109l0.438,3.066c0.087,0.537,0.48,1.068,1.021,1.212c1.313,0.438,0.928,0.291,2.09,0.81
		c0.542,0.221,1.155,0.133,1.611-0.183l2.426-1.888c0.468,0.377,1.091,0.827,1.873,1.582s1.332,1.437,1.724,1.891l-1.878,2.493
		c-0.299,0.466-0.366,1.005-0.126,1.539c0.637,1.296,0.473,0.685,0.958,2.06c0.163,0.534,0.631,0.91,1.17,0.978l3.081,0.33
		c0.087,0.614,0.179,1.458,0.198,2.534C100.932,78.431,100.87,79.277,100.804,79.894z"/>
	<path clip-path="url(#SVGID_2_)" fill="#595A5A" d="M83.95,70.618c-3.86,0.067-6.929,3.244-6.86,7.105s3.245,6.928,7.106,6.86
		c3.86-0.068,6.928-3.245,6.859-7.106C90.988,73.618,87.811,70.55,83.95,70.618 M84.157,82.37c-2.668,0.047-4.807-2.018-4.854-4.686
		s2.018-4.806,4.686-4.853s4.806,2.017,4.853,4.685S86.825,82.323,84.157,82.37"/>
	<path clip-path="url(#SVGID_2_)" fill="none" stroke="#595A5A" stroke-width="2" stroke-miterlimit="10" d="M83.95,70.618
		c-3.86,0.067-6.929,3.244-6.86,7.105s3.245,6.928,7.106,6.86c3.86-0.068,6.928-3.245,6.859-7.106
		C90.988,73.618,87.811,70.55,83.95,70.618z M84.157,82.37c-2.668,0.047-4.807-2.018-4.854-4.686s2.018-4.806,4.686-4.853
		s4.806,2.017,4.853,4.685S86.825,82.323,84.157,82.37z"/>
	
		<path clip-path="url(#SVGID_2_)" fill="none" stroke="#845E37" stroke-width="4" stroke-linecap="round" stroke-linejoin="round" stroke-miterlimit="10" d="
		M26.191,92.546c7.062,2.513,18.1,4.974,30.091,3.849"/>
	
		<path clip-path="url(#SVGID_2_)" fill="none" stroke="#845E37" stroke-width="4" stroke-linecap="round" stroke-linejoin="round" stroke-miterlimit="10" d="
		M2.184,53.23c0.132,6.418,2.3,14.623,6.465,19.087"/>
	
		<line clip-path="url(#SVGID_2_)" fill="none" stroke="#845E37" stroke-width="4" stroke-linecap="round" stroke-linejoin="round" stroke-miterlimit="10" x1="50.505" y1="89.413" x2="56.64" y2="95.955"/>
	
		<line clip-path="url(#SVGID_2_)" fill="none" stroke="#845E37" stroke-width="4" stroke-linecap="round" stroke-linejoin="round" stroke-miterlimit="10" x1="56.641" y1="95.956" x2="50.451" y2="103.084"/>
	
		<circle clip-path="url(#SVGID_2_)" fill="none" stroke="#845E37" stroke-width="4" stroke-linecap="round" stroke-linejoin="round" stroke-miterlimit="10" cx="17.214" cy="83.012" r="12.417"/>
	<path clip-path="url(#SVGID_2_)" fill="#845E37" d="M19.729,85.945c-0.01-0.512-0.186-0.928-0.527-1.247
		c-0.341-0.32-0.937-0.622-1.789-0.908c-0.972-0.286-1.694-0.641-2.167-1.063c-0.473-0.422-0.718-1.026-0.734-1.811
		c-0.015-0.752,0.204-1.37,0.659-1.853c0.454-0.483,1.08-0.766,1.877-0.848l-0.028-1.406l0.71-0.015l0.029,1.407
		c0.814,0.058,1.449,0.349,1.906,0.873c0.457,0.525,0.689,1.243,0.699,2.153l-0.02,0.035l-0.78,0.016
		c-0.015-0.706-0.212-1.275-0.593-1.709c-0.38-0.433-0.905-0.643-1.573-0.629c-0.687,0.014-1.205,0.204-1.553,0.571
		c-0.348,0.366-0.516,0.824-0.505,1.373c0.011,0.528,0.178,0.951,0.5,1.268c0.322,0.316,0.935,0.614,1.837,0.892
		c0.968,0.302,1.687,0.659,2.157,1.075c0.471,0.415,0.714,1.01,0.73,1.786c0.016,0.771-0.213,1.392-0.686,1.863
		c-0.474,0.472-1.118,0.749-1.934,0.831l0.027,1.322l-0.703,0.015l-0.027-1.316c-0.842-0.034-1.545-0.287-2.109-0.761
		c-0.565-0.474-0.848-1.201-0.85-2.181l0.02-0.042l0.78-0.017c0.017,0.827,0.264,1.417,0.74,1.772
		c0.477,0.354,1.047,0.524,1.711,0.512c0.687-0.014,1.227-0.206,1.622-0.575C19.549,86.961,19.74,86.499,19.729,85.945"/>
	<path clip-path="url(#SVGID_2_)" fill="none" stroke="#845E37" stroke-width="0.75" stroke-miterlimit="10" d="M19.729,85.945
		c-0.01-0.512-0.186-0.928-0.527-1.247c-0.341-0.32-0.937-0.622-1.789-0.908c-0.972-0.286-1.694-0.641-2.167-1.063
		c-0.473-0.422-0.718-1.026-0.734-1.811c-0.015-0.752,0.204-1.37,0.659-1.853c0.454-0.483,1.08-0.766,1.877-0.848l-0.028-1.406
		l0.71-0.015l0.029,1.407c0.814,0.058,1.449,0.349,1.906,0.873c0.457,0.525,0.689,1.243,0.699,2.153l-0.02,0.035l-0.78,0.016
		c-0.015-0.706-0.212-1.275-0.593-1.709c-0.38-0.433-0.905-0.643-1.573-0.629c-0.687,0.014-1.205,0.204-1.553,0.571
		c-0.348,0.366-0.516,0.824-0.505,1.373c0.011,0.528,0.178,0.951,0.5,1.268c0.322,0.316,0.935,0.614,1.837,0.892
		c0.968,0.302,1.687,0.659,2.157,1.075c0.471,0.415,0.714,1.01,0.73,1.786c0.016,0.771-0.213,1.392-0.686,1.863
		c-0.474,0.472-1.118,0.749-1.934,0.831l0.027,1.322l-0.703,0.015l-0.027-1.316c-0.842-0.034-1.545-0.287-2.109-0.761
		c-0.565-0.474-0.848-1.201-0.85-2.181l0.02-0.042l0.78-0.017c0.017,0.827,0.264,1.417,0.74,1.772
		c0.477,0.354,1.047,0.524,1.711,0.512c0.687-0.014,1.227-0.206,1.622-0.575C19.549,86.961,19.74,86.499,19.729,85.945z"/>
	<path clip-path="url(#SVGID_2_)" fill="#845E37" d="M17.977,90.196l-0.703,0.016c-0.151,0.003-0.275-0.117-0.279-0.268
		l-0.021-1.066c-0.789-0.075-1.467-0.347-2.017-0.809c-0.627-0.524-0.946-1.329-0.947-2.389c0-0.04,0.009-0.08,0.026-0.117
		l0.02-0.042c0.044-0.094,0.137-0.154,0.241-0.156l0.78-0.016c0.15-0.003,0.275,0.116,0.278,0.267
		c0.015,0.745,0.221,1.256,0.63,1.56c0.431,0.319,0.935,0.47,1.542,0.458c0.615-0.014,1.1-0.183,1.442-0.502
		c0.338-0.317,0.497-0.703,0.488-1.182c-0.009-0.438-0.154-0.783-0.441-1.054c-0.311-0.291-0.879-0.576-1.689-0.847
		c-0.997-0.294-1.761-0.672-2.263-1.119c-0.529-0.473-0.807-1.148-0.824-2.008c-0.017-0.823,0.229-1.512,0.732-2.045
		c0.45-0.479,1.054-0.779,1.799-0.899l-0.024-1.162c-0.003-0.15,0.117-0.274,0.267-0.279l0.711-0.014
		c0.15-0.003,0.275,0.116,0.278,0.268l0.024,1.165c0.769,0.102,1.388,0.418,1.844,0.941c0.498,0.572,0.756,1.356,0.766,2.329
		c0,0.048-0.012,0.096-0.036,0.138l-0.021,0.035c-0.047,0.083-0.135,0.135-0.231,0.137l-0.78,0.017
		c-0.15,0.003-0.275-0.116-0.278-0.268c-0.013-0.636-0.189-1.151-0.524-1.533c-0.328-0.374-0.774-0.55-1.364-0.537
		c-0.608,0.012-1.065,0.176-1.36,0.486c-0.299,0.315-0.44,0.701-0.43,1.18c0.01,0.459,0.146,0.812,0.418,1.079
		c0.29,0.283,0.871,0.562,1.727,0.826c1,0.312,1.759,0.691,2.257,1.131c0.528,0.466,0.805,1.134,0.822,1.984
		c0.017,0.844-0.241,1.538-0.766,2.063c-0.467,0.465-1.088,0.76-1.849,0.877l0.022,1.078C18.247,90.069,18.128,90.193,17.977,90.196
		 M17.535,89.66l0.158-0.003l-0.021-1.051c-0.003-0.142,0.104-0.262,0.245-0.277c0.748-0.074,1.343-0.327,1.769-0.752
		c0.422-0.421,0.62-0.966,0.606-1.665c-0.015-0.701-0.223-1.221-0.638-1.587c-0.439-0.388-1.132-0.73-2.058-1.018
		c-0.953-0.295-1.589-0.608-1.947-0.959c-0.373-0.366-0.569-0.856-0.581-1.457c-0.013-0.619,0.182-1.146,0.58-1.565
		c0.398-0.421,0.985-0.642,1.744-0.656c0.75-0.017,1.35,0.227,1.784,0.722c0.372,0.423,0.588,0.964,0.646,1.611l0.261-0.006
		c-0.043-0.729-0.252-1.314-0.624-1.741c-0.411-0.474-0.973-0.729-1.719-0.781c-0.141-0.01-0.251-0.125-0.254-0.266l-0.023-1.135
		l-0.165,0.003l0.023,1.135c0.003,0.142-0.103,0.263-0.245,0.276c-0.726,0.074-1.3,0.331-1.707,0.763
		c-0.407,0.433-0.598,0.977-0.584,1.66c0.014,0.713,0.225,1.239,0.643,1.612c0.44,0.395,1.134,0.732,2.063,1.006
		c0.907,0.305,1.524,0.62,1.897,0.97c0.395,0.369,0.602,0.854,0.614,1.44c0.013,0.632-0.209,1.167-0.661,1.59
		c-0.443,0.415-1.049,0.633-1.803,0.649c-0.722,0.015-1.355-0.176-1.878-0.566c-0.49-0.363-0.77-0.938-0.836-1.712l-0.263,0.005
		c0.039,0.787,0.284,1.359,0.746,1.747c0.515,0.432,1.169,0.666,1.945,0.698c0.144,0.005,0.259,0.122,0.262,0.266L17.535,89.66z"/>
	<path clip-path="url(#SVGID_2_)" fill="none" stroke="#845E37" stroke-width="0.75" stroke-miterlimit="10" d="M17.977,90.196
		l-0.703,0.016c-0.151,0.003-0.275-0.117-0.279-0.268l-0.021-1.066c-0.789-0.075-1.467-0.347-2.017-0.809
		c-0.627-0.524-0.946-1.329-0.947-2.389c0-0.04,0.009-0.08,0.026-0.117l0.02-0.042c0.044-0.094,0.137-0.154,0.241-0.156l0.78-0.016
		c0.15-0.003,0.275,0.116,0.278,0.267c0.015,0.745,0.221,1.256,0.63,1.56c0.431,0.319,0.935,0.47,1.542,0.458
		c0.615-0.014,1.1-0.183,1.442-0.502c0.338-0.317,0.497-0.703,0.488-1.182c-0.009-0.438-0.154-0.783-0.441-1.054
		c-0.311-0.291-0.879-0.576-1.689-0.847c-0.997-0.294-1.761-0.672-2.263-1.119c-0.529-0.473-0.807-1.148-0.824-2.008
		c-0.017-0.823,0.229-1.512,0.732-2.045c0.45-0.479,1.054-0.779,1.799-0.899l-0.024-1.162c-0.003-0.15,0.117-0.274,0.267-0.279
		l0.711-0.014c0.15-0.003,0.275,0.116,0.278,0.268l0.024,1.165c0.769,0.102,1.388,0.418,1.844,0.941
		c0.498,0.572,0.756,1.356,0.766,2.329c0,0.048-0.012,0.096-0.036,0.138l-0.021,0.035c-0.047,0.083-0.135,0.135-0.231,0.137
		l-0.78,0.017c-0.15,0.003-0.275-0.116-0.278-0.268c-0.013-0.636-0.189-1.151-0.524-1.533c-0.328-0.374-0.774-0.55-1.364-0.537
		c-0.608,0.012-1.065,0.176-1.36,0.486c-0.299,0.315-0.44,0.701-0.43,1.18c0.01,0.459,0.146,0.812,0.418,1.079
		c0.29,0.283,0.871,0.562,1.727,0.826c1,0.312,1.759,0.691,2.257,1.131c0.528,0.466,0.805,1.134,0.822,1.984
		c0.017,0.844-0.241,1.538-0.766,2.063c-0.467,0.465-1.088,0.76-1.849,0.877l0.022,1.078C18.247,90.069,18.128,90.193,17.977,90.196
		z M17.535,89.66l0.158-0.003l-0.021-1.051c-0.003-0.142,0.104-0.262,0.245-0.277c0.748-0.074,1.343-0.327,1.769-0.752
		c0.422-0.421,0.62-0.966,0.606-1.665c-0.015-0.701-0.223-1.221-0.638-1.587c-0.439-0.388-1.132-0.73-2.058-1.018
		c-0.953-0.295-1.589-0.608-1.947-0.959c-0.373-0.366-0.569-0.856-0.581-1.457c-0.013-0.619,0.182-1.146,0.58-1.565
		c0.398-0.421,0.985-0.642,1.744-0.656c0.75-0.017,1.35,0.227,1.784,0.722c0.372,0.423,0.588,0.964,0.646,1.611l0.261-0.006
		c-0.043-0.729-0.252-1.314-0.624-1.741c-0.411-0.474-0.973-0.729-1.719-0.781c-0.141-0.01-0.251-0.125-0.254-0.266l-0.023-1.135
		l-0.165,0.003l0.023,1.135c0.003,0.142-0.103,0.263-0.245,0.276c-0.726,0.074-1.3,0.331-1.707,0.763
		c-0.407,0.433-0.598,0.977-0.584,1.66c0.014,0.713,0.225,1.239,0.643,1.612c0.44,0.395,1.134,0.732,2.063,1.006
		c0.907,0.305,1.524,0.62,1.897,0.97c0.395,0.369,0.602,0.854,0.614,1.44c0.013,0.632-0.209,1.167-0.661,1.59
		c-0.443,0.415-1.049,0.633-1.803,0.649c-0.722,0.015-1.355-0.176-1.878-0.566c-0.49-0.363-0.77-0.938-0.836-1.712l-0.263,0.005
		c0.039,0.787,0.284,1.359,0.746,1.747c0.515,0.432,1.169,0.666,1.945,0.698c0.144,0.005,0.259,0.122,0.262,0.266L17.535,89.66z"/>
	
		<path clip-path="url(#SVGID_2_)" fill="none" stroke="#845E37" stroke-width="4" stroke-linecap="round" stroke-linejoin="round" stroke-miterlimit="10" d="
		M105.248,18.484C99.429,13.76,90.967,9.837,79.287,6.898"/>
	
		<path clip-path="url(#SVGID_2_)" fill="none" stroke="#845E37" stroke-width="4" stroke-linecap="round" stroke-linejoin="round" stroke-miterlimit="10" d="
		M117.816,62.124c1.805-6.161,2.204-14.637-0.427-20.147"/>
	
		<line clip-path="url(#SVGID_2_)" fill="none" stroke="#845E37" stroke-width="4" stroke-linecap="round" stroke-linejoin="round" stroke-miterlimit="10" x1="82.118" y1="15.022" x2="78.234" y2="6.937"/>
	
		<line clip-path="url(#SVGID_2_)" fill="none" stroke="#845E37" stroke-width="4" stroke-linecap="round" stroke-linejoin="round" stroke-miterlimit="10" x1="78.234" y1="6.937" x2="86.28" y2="2"/>
	
		<circle clip-path="url(#SVGID_2_)" fill="none" stroke="#845E37" stroke-width="4" stroke-linecap="round" stroke-linejoin="round" stroke-miterlimit="10" cx="112.438" cy="29.2" r="12.416"/>
	<path clip-path="url(#SVGID_2_)" fill="#845E37" d="M113.017,23.985c-3.35-0.142-6.155,1.876-6.268,4.508
		c-0.053,1.246,0.508,2.408,1.469,3.299c-0.073,0.826-0.585,2.33-1.216,2.878c1.158,0.049,3-0.75,3.917-1.417
		c0.68,0.244,0.907,0.23,1.693,0.263c3.35,0.143,6.155-1.876,6.268-4.507C118.992,26.377,116.367,24.127,113.017,23.985"/>
	
		<path clip-path="url(#SVGID_2_)" fill="none" stroke="#845E37" stroke-width="4" stroke-linecap="round" stroke-linejoin="round" stroke-miterlimit="10" d="
		M2,45.354c0.051,0.659-0.016,0.955,0.029,1.787"/>
	
		<path clip-path="url(#SVGID_2_)" fill="none" stroke="#845E37" stroke-width="4" stroke-linecap="round" stroke-linejoin="round" stroke-miterlimit="10" d="
		M115.355,68.24c-0.161,0.641-0.319,0.9-0.54,1.703"/>
</g>
</svg>
