<?xml version="1.0" encoding="utf-8"?>
<!-- Generator: Adobe Illustrator 16.0.0, SVG Export Plug-In . SVG Version: 6.00 Build 0)  -->
<!DOCTYPE svg PUBLIC "-//W3C//DTD SVG 1.1//EN" "http://www.w3.org/Graphics/SVG/1.1/DTD/svg11.dtd">
<svg version="1.1" id="Слой_1" xmlns="http://www.w3.org/2000/svg" xmlns:xlink="http://www.w3.org/1999/xlink" x="0px" y="0px"
	 width="143.161px" height="87.858px" viewBox="0 0 143.161 87.858" enable-background="new 0 0 143.161 87.858"
	 xml:space="preserve">
<g>
	<defs>
		<rect id="SVGID_1_" y="0" width="143.161" height="87.859"/>
	</defs>
	<clipPath id="SVGID_2_">
		<use xlink:href="#SVGID_1_"  overflow="visible"/>
	</clipPath>
	<path clip-path="url(#SVGID_2_)" fill="#595A5A" d="M142.978,83.236h-8.51c0.737-1.031,1.181-2.288,1.181-3.652V6.316
		c0-3.483-2.835-6.316-6.318-6.316H13.747c-3.482,0-6.316,2.834-6.316,6.316v73.268c0,1.392,0.467,2.67,1.232,3.716H0.072
		c0,0-0.386,0.392,0.632,1.407c2.885,2.887,9.366,3.136,9.366,3.136v-0.007c0,0,121.403,0.029,121.538,0.021
		c6.768,0,8.952-2.029,10.741-3.213C143.674,83.314,142.978,83.236,142.978,83.236 M79.654,84.777H63.39v-1.105h16.263
		L79.654,84.777z M130.985,78.132H11.906V4.258h119.081L130.985,78.132L130.985,78.132z"/>
	
		<line clip-path="url(#SVGID_2_)" fill="none" stroke="#845E37" stroke-width="3" stroke-linecap="round" stroke-linejoin="round" stroke-miterlimit="10" x1="34.666" y1="41.186" x2="51.749" y2="33.853"/>
	
		<circle clip-path="url(#SVGID_2_)" fill="none" stroke="#845E37" stroke-width="3" stroke-linecap="round" stroke-miterlimit="10" cx="29.375" cy="43.395" r="5.375"/>
	
		<circle clip-path="url(#SVGID_2_)" fill="none" stroke="#845E37" stroke-width="3" stroke-linecap="round" stroke-miterlimit="10" cx="113.624" cy="20.311" r="5.375"/>
	
		<circle clip-path="url(#SVGID_2_)" fill="none" stroke="#845E37" stroke-width="3" stroke-linecap="round" stroke-miterlimit="10" cx="86.374" cy="31.395" r="5.375"/>
	
		<line clip-path="url(#SVGID_2_)" fill="none" stroke="#845E37" stroke-width="3" stroke-linecap="round" stroke-linejoin="round" stroke-miterlimit="10" x1="62.25" y1="31.603" x2="80.499" y2="31.52"/>
	
		<line clip-path="url(#SVGID_2_)" fill="none" stroke="#845E37" stroke-width="3" stroke-linecap="round" stroke-linejoin="round" stroke-miterlimit="10" x1="92.166" y1="30.686" x2="109.249" y2="23.353"/>
	
		<circle clip-path="url(#SVGID_2_)" fill="none" stroke="#845E37" stroke-width="3" stroke-linecap="round" stroke-miterlimit="10" cx="56.875" cy="32.395" r="5.375"/>
	<path clip-path="url(#SVGID_2_)" fill="#845E37" d="M29.999,33.187h-1v-1h1V33.187z M29.999,29.187h-1v-1h1V29.187z M29.999,25.187
		h-1v-1h1V25.187z M29.999,21.187h-1v-1h1V21.187z M29.999,17.187h-1v-1h1V17.187z M29.999,13.187h-1v-1h1V13.187z"/>
	<path clip-path="url(#SVGID_2_)" fill="none" stroke="#845E37" stroke-linecap="round" stroke-miterlimit="10" d="M29.999,33.187
		h-1v-1h1V33.187z M29.999,29.187h-1v-1h1V29.187z M29.999,25.187h-1v-1h1V25.187z M29.999,21.187h-1v-1h1V21.187z M29.999,17.187
		h-1v-1h1V17.187z M29.999,13.187h-1v-1h1V13.187z"/>
	<path clip-path="url(#SVGID_2_)" fill="#845E37" d="M57.499,49.02h-1v-1h1V49.02z M57.499,45.02h-1v-1h1V45.02z M57.499,41.02h-1
		v-1h1V41.02z M57.499,25.02h-1v-1h1V25.02z M57.499,21.02h-1v-1h1V21.02z M57.499,17.02h-1v-1h1V17.02z M57.499,13.02h-1v-1h1
		V13.02z"/>
	<path clip-path="url(#SVGID_2_)" fill="none" stroke="#845E37" stroke-linecap="round" stroke-miterlimit="10" d="M57.499,49.02h-1
		v-1h1V49.02z M57.499,45.02h-1v-1h1V45.02z M57.499,41.02h-1v-1h1V41.02z M57.499,25.02h-1v-1h1V25.02z M57.499,21.02h-1v-1h1
		V21.02z M57.499,17.02h-1v-1h1V17.02z M57.499,13.02h-1v-1h1V13.02z"/>
	<path clip-path="url(#SVGID_2_)" fill="#845E37" d="M86.999,49.687h-1v-1h1V49.687z M86.999,45.687h-1v-1h1V45.687z M86.999,41.687
		h-1v-1h1V41.687z M86.999,37.687h-1v-1h1V37.687z M86.999,21.687h-1v-1h1V21.687z M86.999,17.687h-1v-1h1V17.687z M86.999,13.687
		h-1v-1h1V13.687z"/>
	<path clip-path="url(#SVGID_2_)" fill="none" stroke="#845E37" stroke-linecap="round" stroke-miterlimit="10" d="M86.999,49.687
		h-1v-1h1V49.687z M86.999,45.687h-1v-1h1V45.687z M86.999,41.687h-1v-1h1V41.687z M86.999,37.687h-1v-1h1V37.687z M86.999,21.687
		h-1v-1h1V21.687z M86.999,17.687h-1v-1h1V17.687z M86.999,13.687h-1v-1h1V13.687z"/>
	<path clip-path="url(#SVGID_2_)" fill="#845E37" d="M114.166,50.353h-1v-1h1V50.353z M114.166,46.353h-1v-1h1V46.353z
		 M114.166,42.353h-1v-1h1V42.353z M114.166,38.353h-1v-1h1V38.353z M114.166,34.353h-1v-1h1V34.353z M114.166,30.353h-1v-1h1
		V30.353z M114.166,26.353h-1v-1h1V26.353z"/>
	<path clip-path="url(#SVGID_2_)" fill="none" stroke="#845E37" stroke-linecap="round" stroke-miterlimit="10" d="M114.166,50.353
		h-1v-1h1V50.353z M114.166,46.353h-1v-1h1V46.353z M114.166,42.353h-1v-1h1V42.353z M114.166,38.353h-1v-1h1V38.353z
		 M114.166,34.353h-1v-1h1V34.353z M114.166,30.353h-1v-1h1V30.353z M114.166,26.353h-1v-1h1V26.353z"/>
	<path clip-path="url(#SVGID_2_)" fill="#845E37" d="M40.333,65.687c0,1.104-0.827,2-1.847,2H22.014c-1.021,0-1.848-0.896-1.848-2
		c0-1.105,0.827-2,1.848-2h16.472C39.506,63.687,40.333,64.581,40.333,65.687"/>
	<path clip-path="url(#SVGID_2_)" fill="#845E37" d="M68,65.687c0,1.104-0.827,2-1.847,2H49.68c-1.021,0-1.848-0.896-1.848-2
		c0-1.105,0.827-2,1.848-2h16.472C67.172,63.687,68,64.581,68,65.687"/>
	<path clip-path="url(#SVGID_2_)" fill="#845E37" d="M95.833,65.353c0,1.105-0.827,2-1.848,2H77.514c-1.021,0-1.848-0.895-1.848-2
		c0-1.104,0.827-2,1.848-2h16.472C95.006,63.353,95.833,64.248,95.833,65.353"/>
	<path clip-path="url(#SVGID_2_)" fill="#845E37" d="M122.833,65.187c0,1.104-0.827,2-1.848,2h-16.472c-1.021,0-1.848-0.896-1.848-2
		c0-1.105,0.827-2,1.848-2h16.472C122.006,63.187,122.833,64.081,122.833,65.187"/>
</g>
</svg>
