<?xml version="1.0" encoding="utf-8"?>
<!-- Generator: Adobe Illustrator 16.0.0, SVG Export Plug-In . SVG Version: 6.00 Build 0)  -->
<!DOCTYPE svg PUBLIC "-//W3C//DTD SVG 1.1//EN" "http://www.w3.org/Graphics/SVG/1.1/DTD/svg11.dtd">
<svg version="1.1" id="Слой_1" xmlns="http://www.w3.org/2000/svg" xmlns:xlink="http://www.w3.org/1999/xlink" x="0px" y="0px"
	 width="125px" height="104px" viewBox="0 0 125 104" enable-background="new 0 0 125 104" xml:space="preserve">
<g>
	<defs>
		<rect id="SVGID_1_" width="125" height="104"/>
	</defs>
	<clipPath id="SVGID_2_">
		<use xlink:href="#SVGID_1_"  overflow="visible"/>
	</clipPath>
	<path clip-path="url(#SVGID_2_)" fill="#595A5A" d="M17.967,14.564c-0.571-0.57-1.526-1.068-3.031-1.821
		c-0.759-0.38-2.022-1.011-2.328-1.3c1.282-1.576,2.027-3.356,2.027-4.914c0-1.058,0-2.373-0.592-3.547
		c-0.534-1.057-1.726-2.316-4.376-2.316c-2.65,0-3.842,1.259-4.375,2.316C4.7,4.156,4.7,5.471,4.7,6.528
		c0,1.559,0.743,3.339,2.026,4.915c-0.307,0.289-1.57,0.921-2.329,1.299c-1.504,0.753-2.459,1.251-3.03,1.822
		c-1.264,1.265-1.36,3.387-1.367,3.8c-0.006,0.431,0.16,0.847,0.464,1.155C0.766,19.826,1.18,20,1.611,20h16.112
		c0.432,0,0.845-0.174,1.148-0.481c0.302-0.308,0.469-0.724,0.463-1.155C19.327,17.951,19.231,15.83,17.967,14.564"/>
	<path clip-path="url(#SVGID_2_)" fill="#595A5A" d="M69.3,98.564c-0.57-0.57-1.525-1.068-3.03-1.821
		c-0.76-0.38-2.022-1.011-2.328-1.3c1.281-1.576,2.025-3.356,2.025-4.914c0-1.058,0-2.373-0.591-3.547
		c-0.534-1.057-1.726-2.316-4.376-2.316c-2.65,0-3.842,1.26-4.375,2.316c-0.592,1.174-0.592,2.489-0.592,3.546
		c0,1.559,0.743,3.339,2.026,4.915c-0.307,0.289-1.57,0.921-2.329,1.299c-1.504,0.753-2.459,1.251-3.03,1.822
		c-1.264,1.265-1.36,3.387-1.367,3.8c-0.006,0.431,0.16,0.847,0.464,1.155c0.302,0.307,0.716,0.48,1.147,0.48h16.111
		c0.433,0,0.846-0.174,1.148-0.48c0.302-0.309,0.469-0.725,0.463-1.155C70.66,101.951,70.564,99.829,69.3,98.564"/>
	<path clip-path="url(#SVGID_2_)" fill="#595A5A" d="M123.634,13.897c-0.571-0.57-1.526-1.068-3.031-1.821
		c-0.759-0.38-2.022-1.011-2.328-1.3c1.282-1.576,2.027-3.356,2.027-4.914c0-1.058,0-2.373-0.593-3.547
		C119.176,1.259,117.983,0,115.333,0c-2.649,0-3.842,1.259-4.375,2.316c-0.592,1.174-0.592,2.489-0.592,3.546
		c0,1.559,0.743,3.339,2.026,4.915c-0.308,0.289-1.57,0.921-2.329,1.299c-1.504,0.753-2.459,1.251-3.03,1.822
		c-1.264,1.265-1.359,3.387-1.367,3.8c-0.006,0.431,0.16,0.847,0.465,1.155c0.302,0.307,0.716,0.481,1.146,0.481h16.112
		c0.432,0,0.845-0.174,1.147-0.481c0.303-0.308,0.47-0.724,0.463-1.155C124.993,17.285,124.897,15.163,123.634,13.897"/>
	
		<path clip-path="url(#SVGID_2_)" fill="none" stroke="#595A5A" stroke-width="3" stroke-linecap="round" stroke-miterlimit="10" stroke-dasharray="1,8" d="
		M21.753,24.907c21.333,17,27.667,26.333,37.333,55"/>
	
		<path clip-path="url(#SVGID_2_)" fill="none" stroke="#595A5A" stroke-width="3" stroke-linecap="round" stroke-miterlimit="10" stroke-dasharray="1,8" d="
		M103.086,22.24c-21.333,17-27.667,26.333-37.333,55"/>
	
		<path clip-path="url(#SVGID_2_)" fill="none" stroke="#595A5A" stroke-width="3" stroke-linecap="round" stroke-miterlimit="10" stroke-dasharray="1,8" d="
		M25.853,16.622c28.796-9.137,41.318-9.208,73.801-0.43"/>
	<path clip-path="url(#SVGID_2_)" fill="#845E37" d="M61.919,16.241c-9.113,0-16.5,7.387-16.5,16.5c0,9.112,7.387,16.5,16.5,16.5
		s16.5-7.388,16.5-16.5C78.419,23.628,71.032,16.241,61.919,16.241 M69.547,34.978c0.132,0.164,0.446,0.482,0.944,0.957h0.012
		l0.012,0.011l0.012,0.012l0.023,0.023c1.097,1.019,1.839,1.878,2.228,2.578c0.023,0.039,0.049,0.088,0.076,0.146
		s0.054,0.161,0.082,0.309c0.026,0.148,0.024,0.279-0.006,0.396c-0.031,0.117-0.129,0.224-0.292,0.321
		c-0.163,0.097-0.394,0.146-0.688,0.146l-2.985,0.046c-0.188,0.039-0.404,0.02-0.653-0.058s-0.451-0.163-0.607-0.256l-0.232-0.141
		c-0.234-0.163-0.506-0.412-0.817-0.746c-0.311-0.335-0.577-0.636-0.798-0.904c-0.222-0.268-0.459-0.494-0.712-0.677
		c-0.253-0.182-0.474-0.243-0.659-0.181c-0.023,0.009-0.055,0.022-0.094,0.041c-0.039,0.02-0.105,0.076-0.198,0.169
		c-0.093,0.094-0.177,0.209-0.25,0.345c-0.075,0.136-0.141,0.338-0.199,0.606c-0.058,0.268-0.084,0.57-0.076,0.904
		c0,0.117-0.014,0.224-0.041,0.321c-0.026,0.097-0.057,0.169-0.087,0.216l-0.047,0.058c-0.14,0.148-0.346,0.233-0.618,0.256h-1.342
		c-0.551,0.032-1.119-0.032-1.702-0.192c-0.583-0.16-1.095-0.365-1.534-0.618c-0.44-0.253-0.84-0.509-1.202-0.77
		c-0.361-0.261-0.636-0.484-0.822-0.671l-0.291-0.28c-0.079-0.077-0.185-0.194-0.321-0.35c-0.136-0.155-0.414-0.509-0.834-1.061
		c-0.421-0.552-0.833-1.139-1.237-1.761s-0.88-1.443-1.429-2.462c-0.548-1.018-1.055-2.076-1.522-3.173
		c-0.047-0.124-0.07-0.229-0.07-0.314c0-0.086,0.012-0.148,0.035-0.187l0.047-0.07c0.116-0.148,0.338-0.222,0.665-0.222l3.195-0.023
		c0.094,0.016,0.183,0.041,0.269,0.076c0.085,0.035,0.148,0.068,0.186,0.099l0.059,0.035c0.124,0.086,0.217,0.21,0.28,0.373
		c0.155,0.389,0.334,0.791,0.536,1.207c0.203,0.416,0.362,0.733,0.478,0.951l0.187,0.338c0.226,0.467,0.443,0.871,0.653,1.213
		s0.399,0.609,0.566,0.799c0.167,0.191,0.328,0.341,0.484,0.449c0.155,0.109,0.288,0.164,0.397,0.164
		c0.108,0,0.213-0.02,0.315-0.058c0.015-0.008,0.034-0.028,0.058-0.059c0.023-0.031,0.07-0.116,0.14-0.257
		c0.07-0.139,0.122-0.322,0.157-0.548c0.036-0.225,0.072-0.54,0.111-0.944c0.039-0.405,0.039-0.891,0-1.458
		c-0.016-0.311-0.05-0.595-0.105-0.852c-0.054-0.256-0.109-0.435-0.163-0.536l-0.07-0.14c-0.195-0.265-0.525-0.432-0.992-0.502
		c-0.101-0.015-0.082-0.108,0.058-0.28c0.133-0.148,0.281-0.264,0.444-0.35c0.412-0.202,1.341-0.295,2.788-0.28
		c0.637,0.008,1.163,0.058,1.576,0.152c0.154,0.039,0.284,0.091,0.39,0.157c0.104,0.066,0.185,0.16,0.239,0.28
		c0.055,0.121,0.095,0.245,0.122,0.373c0.027,0.129,0.041,0.306,0.041,0.531c0,0.226-0.004,0.44-0.012,0.642
		c-0.008,0.202-0.017,0.476-0.028,0.822c-0.013,0.346-0.019,0.667-0.019,0.962c0,0.086-0.004,0.249-0.011,0.49
		c-0.008,0.242-0.01,0.428-0.006,0.56c0.004,0.133,0.017,0.29,0.041,0.473c0.022,0.183,0.067,0.334,0.134,0.455
		c0.066,0.12,0.153,0.215,0.262,0.285c0.063,0.016,0.128,0.032,0.199,0.047c0.069,0.016,0.17-0.027,0.303-0.128
		c0.132-0.101,0.28-0.236,0.443-0.403s0.365-0.427,0.606-0.781c0.24-0.354,0.506-0.772,0.793-1.254
		c0.467-0.809,0.883-1.684,1.248-2.625c0.03-0.078,0.069-0.145,0.116-0.204c0.047-0.058,0.09-0.099,0.129-0.122l0.046-0.035
		c0.017-0.008,0.035-0.018,0.059-0.03c0.023-0.011,0.074-0.023,0.151-0.035c0.078-0.011,0.156-0.013,0.233-0.005l3.36-0.024
		c0.303-0.038,0.552-0.029,0.746,0.029c0.193,0.059,0.314,0.123,0.361,0.193l0.07,0.117c0.179,0.498-0.405,1.64-1.75,3.429
		c-0.187,0.249-0.439,0.58-0.758,0.991c-0.607,0.778-0.956,1.288-1.049,1.53C69.251,34.352,69.306,34.667,69.547,34.978"/>
	<path clip-path="url(#SVGID_2_)" fill="#845E37" d="M20.753,49.241c-6.628,0-12,5.373-12,12c0,6.627,5.372,12,12,12
		c6.627,0,12-5.373,12-12C32.753,54.613,27.38,49.241,20.753,49.241 M17.686,66.574h-2.847V58.01h2.847V66.574z M16.264,56.842
		h-0.019c-0.956,0-1.574-0.659-1.574-1.481c0-0.84,0.637-1.479,1.611-1.479c0.974,0,1.573,0.639,1.592,1.479
		C17.874,56.183,17.256,56.842,16.264,56.842 M27.953,66.574h-2.847v-4.582c0-1.151-0.412-1.937-1.442-1.937
		c-0.787,0-1.255,0.529-1.461,1.041c-0.075,0.184-0.094,0.438-0.094,0.694v4.783h-2.848c0,0,0.038-7.761,0-8.564h2.848v1.214
		c0.378-0.583,1.053-1.415,2.566-1.415c1.873,0,3.278,1.225,3.278,3.854V66.574z"/>
	<path clip-path="url(#SVGID_2_)" fill="#845E37" d="M22.109,59.252v-0.028c-0.006,0.009-0.014,0.019-0.019,0.028H22.109z"/>
	<path clip-path="url(#SVGID_2_)" fill="#845E37" d="M103.586,48.24c-6.719,0-12.166,5.447-12.166,12.167
		c0,6.719,5.447,12.167,12.166,12.167c6.72,0,12.167-5.448,12.167-12.167C115.753,53.688,110.306,48.24,103.586,48.24
		 M107.527,55.655c0,0.176-0.144,0.319-0.319,0.319l-1.369,0.001c-0.943,0-1.116,0.368-1.116,1.092v1.507h2.39
		c0.085,0,0.166,0.033,0.226,0.093c0.06,0.061,0.094,0.142,0.094,0.227l-0.001,2.575c0,0.177-0.143,0.319-0.319,0.319h-2.389v6.498
		c0,0.176-0.143,0.32-0.318,0.32h-2.665c-0.177,0-0.319-0.144-0.319-0.32v-6.498h-2.043c-0.176,0-0.319-0.143-0.319-0.319v-2.575
		c0-0.176,0.144-0.319,0.319-0.319h2.043v-1.778c0-2.342,1.474-3.854,3.756-3.854l2.032,0.003c0.176,0.001,0.319,0.144,0.319,0.32
		V55.655z"/>
</g>
</svg>
