<?xml version="1.0" encoding="utf-8"?>
<!-- Generator: Adobe Illustrator 16.0.0, SVG Export Plug-In . SVG Version: 6.00 Build 0)  -->
<!DOCTYPE svg PUBLIC "-//W3C//DTD SVG 1.1//EN" "http://www.w3.org/Graphics/SVG/1.1/DTD/svg11.dtd">
<svg version="1.1" id="Слой_1" xmlns="http://www.w3.org/2000/svg" xmlns:xlink="http://www.w3.org/1999/xlink" x="0px" y="0px"
	 width="177.59px" height="150.768px" viewBox="0 0 177.59 150.768" enable-background="new 0 0 177.59 150.768"
	 xml:space="preserve">
<g>
	<defs>
		<rect id="SVGID_1_" width="177.59" height="150.768"/>
	</defs>
	<clipPath id="SVGID_2_">
		<use xlink:href="#SVGID_1_"  overflow="visible"/>
	</clipPath>
	<path clip-path="url(#SVGID_2_)" fill="none" stroke="#595A5A" stroke-width="6" stroke-miterlimit="10" d="M75.775,146.674
		c69.74,10.364,96.945-55.058,36.705-106.013c-3.454-2.699-6.045-4.993-5.074-7.989c2.159-4.75,3.779-7.449,8.313-15.762
		c0.432-1.187,4.857-8.204,1.079-7.988c-3.521,0-4.858-0.648-6.369-1.62c-3.671-2.807-7.881-5.506-11.768-3.023
		c-4.318,1.944-5.938,7.126-10.795,4.211C84.56,7.323,79.05,0.252,74.373,4.172c-3.455,3.13-7.126,4.534-11.552,4.534
		c-5.398,1.727,4.966,10.795,9.716,23.75c1.728,3.239-3.427,6.693-8.42,10.796C15.536,91.4,30.434,139.981,75.775,146.674"/>
	<path clip-path="url(#SVGID_2_)" fill="#595A5A" d="M91.481,53.637c-0.398,0-0.804-0.092-1.184-0.288
		c-1.272-0.655-1.773-2.217-1.118-3.489l7.557-14.683c0.655-1.272,2.219-1.773,3.49-1.118c1.272,0.655,1.773,2.217,1.118,3.49
		L93.788,52.23C93.328,53.124,92.421,53.637,91.481,53.637"/>
	<path clip-path="url(#SVGID_2_)" fill="none" stroke="#595A5A" stroke-miterlimit="10" d="M91.481,53.637
		c-0.398,0-0.804-0.092-1.184-0.288c-1.272-0.655-1.773-2.217-1.118-3.489l7.557-14.683c0.655-1.272,2.219-1.773,3.49-1.118
		c1.272,0.655,1.773,2.217,1.118,3.49L93.788,52.23C93.328,53.124,92.421,53.637,91.481,53.637z"/>
	<path clip-path="url(#SVGID_2_)" fill="#595A5A" d="M107.676,72.421c-1.153,0-2.205-0.776-2.507-1.944L96.532,37.01
		c-0.357-1.385,0.476-2.799,1.861-3.156c1.387-0.359,2.798,0.476,3.156,1.862l8.636,33.466c0.358,1.386-0.475,2.799-1.861,3.156
		C108.107,72.394,107.89,72.421,107.676,72.421"/>
	<path clip-path="url(#SVGID_2_)" fill="none" stroke="#595A5A" stroke-miterlimit="10" d="M107.676,72.421
		c-1.153,0-2.205-0.776-2.507-1.944L96.532,37.01c-0.357-1.385,0.476-2.799,1.861-3.156c1.387-0.359,2.798,0.476,3.156,1.862
		l8.636,33.466c0.358,1.386-0.475,2.799-1.861,3.156C108.107,72.394,107.89,72.421,107.676,72.421z"/>
	<line clip-path="url(#SVGID_2_)" fill="#595A5A" x1="68.166" y1="35.5" x2="110.916" y2="35.5"/>
	
		<line clip-path="url(#SVGID_2_)" fill="none" stroke="#595A5A" stroke-miterlimit="10" x1="68.166" y1="35.5" x2="110.916" y2="35.5"/>
	<path clip-path="url(#SVGID_2_)" fill="#595A5A" d="M110.916,38.738H68.165c-1.788,0-3.238-1.45-3.238-3.239
		s1.45-3.238,3.238-3.238h42.751c1.789,0,3.239,1.449,3.239,3.238S112.705,38.738,110.916,38.738"/>
	<path clip-path="url(#SVGID_2_)" fill="none" stroke="#595A5A" stroke-miterlimit="10" d="M110.916,38.738H68.165
		c-1.788,0-3.238-1.45-3.238-3.239s1.45-3.238,3.238-3.238h42.751c1.789,0,3.239,1.449,3.239,3.238S112.705,38.738,110.916,38.738z"
		/>
	<line clip-path="url(#SVGID_2_)" fill="#595A5A" x1="69.677" y1="29.022" x2="109.188" y2="29.022"/>
	
		<line clip-path="url(#SVGID_2_)" fill="none" stroke="#595A5A" stroke-miterlimit="10" x1="69.677" y1="29.022" x2="109.188" y2="29.022"/>
	<path clip-path="url(#SVGID_2_)" fill="#595A5A" d="M109.188,32.261H69.677c-1.789,0-3.239-1.45-3.239-3.239
		s1.45-3.238,3.239-3.238h39.512c1.789,0,3.239,1.449,3.239,3.238S110.978,32.261,109.188,32.261"/>
	<path clip-path="url(#SVGID_2_)" fill="none" stroke="#595A5A" stroke-miterlimit="10" d="M109.188,32.261H69.677
		c-1.789,0-3.239-1.45-3.239-3.239s1.45-3.238,3.239-3.238h39.512c1.789,0,3.239,1.449,3.239,3.238S110.978,32.261,109.188,32.261z"
		/>
	<path clip-path="url(#SVGID_2_)" fill="#845E37" d="M100.899,107.947c0-2.215-0.723-4.027-2.168-5.438s-3.995-2.77-7.648-4.079
		c-4.176-1.325-7.267-2.921-9.273-4.788c-2.008-1.866-3.011-4.496-3.011-7.889c0-3.252,1.003-5.901,3.011-7.949
		c2.007-2.047,4.737-3.211,8.189-3.493v-6.082h3.071v6.082c3.513,0.322,6.233,1.636,8.16,3.945c1.927,2.308,2.871,5.43,2.831,9.364
		l-0.091,0.15h-3.372c0-3.051-0.804-5.53-2.409-7.437c-1.606-1.907-3.854-2.861-6.745-2.861c-2.971,0-5.224,0.778-6.76,2.333
		c-1.535,1.556-2.303,3.519-2.303,5.887c0,2.289,0.682,4.131,2.047,5.526c1.365,1.395,3.985,2.735,7.859,4.019
		c4.155,1.387,7.231,2.997,9.229,4.833c1.998,1.837,2.996,4.433,2.996,7.784c0,3.332-1.044,5.997-3.131,7.994
		c-2.089,1.998-4.899,3.137-8.432,3.418v5.721h-3.042v-5.69c-3.633-0.222-6.649-1.38-9.048-3.479
		c-2.399-2.097-3.558-5.264-3.478-9.5l0.091-0.18h3.372c0,3.574,1.013,6.149,3.041,7.724c2.028,1.575,4.476,2.363,7.347,2.363
		c2.971,0,5.325-0.781,7.061-2.342C100.03,112.323,100.899,110.344,100.899,107.947"/>
	<path clip-path="url(#SVGID_2_)" fill="none" stroke="#845E37" stroke-width="2" stroke-miterlimit="10" d="M100.899,107.947
		c0-2.215-0.723-4.027-2.168-5.438s-3.995-2.77-7.648-4.079c-4.176-1.325-7.267-2.921-9.273-4.788
		c-2.008-1.866-3.011-4.496-3.011-7.889c0-3.252,1.003-5.901,3.011-7.949c2.007-2.047,4.737-3.211,8.189-3.493v-6.082h3.071v6.082
		c3.513,0.322,6.233,1.636,8.16,3.945c1.927,2.308,2.871,5.43,2.831,9.364l-0.091,0.15h-3.372c0-3.051-0.804-5.53-2.409-7.437
		c-1.606-1.907-3.854-2.861-6.745-2.861c-2.971,0-5.224,0.778-6.76,2.333c-1.535,1.556-2.303,3.519-2.303,5.887
		c0,2.289,0.682,4.131,2.047,5.526c1.365,1.395,3.985,2.735,7.859,4.019c4.155,1.387,7.231,2.997,9.229,4.833
		c1.998,1.837,2.996,4.433,2.996,7.784c0,3.332-1.044,5.997-3.131,7.994c-2.089,1.998-4.899,3.137-8.432,3.418v5.721h-3.042v-5.69
		c-3.633-0.222-6.649-1.38-9.048-3.479c-2.399-2.097-3.558-5.264-3.478-9.5l0.091-0.18h3.372c0,3.574,1.013,6.149,3.041,7.724
		c2.028,1.575,4.476,2.363,7.347,2.363c2.971,0,5.325-0.781,7.061-2.342C100.03,112.323,100.899,110.344,100.899,107.947z"/>
	<path clip-path="url(#SVGID_2_)" fill="#845E37" d="M92.95,126.167h-3.042c-0.65,0-1.178-0.528-1.178-1.178v-4.612
		c-3.403-0.393-6.307-1.625-8.646-3.67c-2.661-2.327-3.967-5.829-3.88-10.409c0.003-0.176,0.046-0.348,0.124-0.505l0.09-0.181
		c0.2-0.399,0.608-0.651,1.055-0.651h3.372c0.651,0,1.179,0.527,1.179,1.178c0,3.221,0.845,5.443,2.585,6.794
		c1.832,1.424,3.999,2.115,6.624,2.115c2.657,0,4.768-0.686,6.272-2.04c1.49-1.339,2.216-2.995,2.216-5.06
		c0-1.902-0.594-3.404-1.813-4.595c-1.315-1.284-3.746-2.567-7.223-3.813c-4.282-1.358-7.553-3.056-9.679-5.034
		c-2.247-2.09-3.387-5.034-3.387-8.752c0-3.556,1.127-6.509,3.348-8.773c1.985-2.025,4.622-3.274,7.853-3.725v-5.026
		c0-0.651,0.528-1.179,1.179-1.179h3.071c0.651,0,1.179,0.528,1.179,1.179v5.039c3.314,0.508,5.964,1.93,7.887,4.232
		c2.103,2.52,3.146,5.927,3.104,10.132c-0.002,0.209-0.06,0.415-0.168,0.596l-0.09,0.149c-0.213,0.355-0.597,0.572-1.011,0.572
		h-3.372c-0.651,0-1.18-0.528-1.18-1.179c0-2.751-0.717-4.997-2.131-6.679c-1.384-1.642-3.295-2.44-5.844-2.44
		c-2.63,0-4.622,0.667-5.921,1.982c-1.321,1.339-1.964,2.994-1.964,5.06c0,1.986,0.56,3.523,1.712,4.701
		c1.226,1.253,3.711,2.507,7.387,3.725c4.296,1.432,7.544,3.143,9.656,5.084c2.241,2.061,3.377,4.972,3.377,8.652
		c0,3.649-1.176,6.626-3.495,8.846c-2.058,1.968-4.768,3.185-8.068,3.625v4.662C94.128,125.638,93.602,126.167,92.95,126.167
		 M91.087,123.809h0.685v-4.542c0-0.614,0.472-1.126,1.085-1.175c3.239-0.258,5.834-1.299,7.71-3.095
		c1.862-1.781,2.768-4.118,2.768-7.142c0-3.036-0.855-5.299-2.614-6.917c-1.866-1.716-4.828-3.257-8.805-4.582
		c-4.092-1.356-6.817-2.769-8.329-4.314c-1.582-1.615-2.384-3.752-2.384-6.349c0-2.679,0.89-4.938,2.643-6.715
		c1.759-1.781,4.315-2.685,7.599-2.685c3.241,0,5.813,1.104,7.646,3.28c1.568,1.861,2.455,4.218,2.647,7.018h1.131
		c-0.121-3.155-0.974-5.703-2.542-7.581c-1.736-2.078-4.144-3.231-7.363-3.527c-0.606-0.055-1.071-0.564-1.071-1.173v-4.904h-0.714
		v4.904c0,0.614-0.472,1.125-1.082,1.174c-3.147,0.257-5.651,1.314-7.445,3.144c-1.799,1.835-2.674,4.165-2.674,7.124
		c0,3.079,0.862,5.377,2.635,7.026c1.869,1.739,4.839,3.262,8.828,4.526c3.892,1.396,6.533,2.816,8.115,4.359
		c1.675,1.634,2.523,3.748,2.523,6.282c0,2.733-1.008,5.025-2.996,6.813c-1.951,1.755-4.592,2.645-7.849,2.645
		c-3.125,0-5.84-0.879-8.07-2.611c-2.082-1.617-3.244-4.129-3.459-7.476h-1.139c0.101,3.402,1.11,5.899,3.071,7.613
		c2.186,1.913,4.994,2.985,8.344,3.189c0.622,0.038,1.106,0.553,1.106,1.177V123.809z"/>
	<path clip-path="url(#SVGID_2_)" fill="none" stroke="#845E37" stroke-width="2" stroke-miterlimit="10" d="M92.95,126.167h-3.042
		c-0.65,0-1.178-0.528-1.178-1.178v-4.612c-3.403-0.393-6.307-1.625-8.646-3.67c-2.661-2.327-3.967-5.829-3.88-10.409
		c0.003-0.176,0.046-0.348,0.124-0.505l0.09-0.181c0.2-0.399,0.608-0.651,1.055-0.651h3.372c0.651,0,1.179,0.527,1.179,1.178
		c0,3.221,0.845,5.443,2.585,6.794c1.832,1.424,3.999,2.115,6.624,2.115c2.657,0,4.768-0.686,6.272-2.04
		c1.49-1.339,2.216-2.995,2.216-5.06c0-1.902-0.594-3.404-1.813-4.595c-1.315-1.284-3.746-2.567-7.223-3.813
		c-4.282-1.358-7.553-3.056-9.679-5.034c-2.247-2.09-3.387-5.034-3.387-8.752c0-3.556,1.127-6.509,3.348-8.773
		c1.985-2.025,4.622-3.274,7.853-3.725v-5.026c0-0.651,0.528-1.179,1.179-1.179h3.071c0.651,0,1.179,0.528,1.179,1.179v5.039
		c3.314,0.508,5.964,1.93,7.887,4.232c2.103,2.52,3.146,5.927,3.104,10.132c-0.002,0.209-0.06,0.415-0.168,0.596l-0.09,0.149
		c-0.213,0.355-0.597,0.572-1.011,0.572h-3.372c-0.651,0-1.18-0.528-1.18-1.179c0-2.751-0.717-4.997-2.131-6.679
		c-1.384-1.642-3.295-2.44-5.844-2.44c-2.63,0-4.622,0.667-5.921,1.982c-1.321,1.339-1.964,2.994-1.964,5.06
		c0,1.986,0.56,3.523,1.712,4.701c1.226,1.253,3.711,2.507,7.387,3.725c4.296,1.432,7.544,3.143,9.656,5.084
		c2.241,2.061,3.377,4.972,3.377,8.652c0,3.649-1.176,6.626-3.495,8.846c-2.058,1.968-4.768,3.185-8.068,3.625v4.662
		C94.128,125.638,93.602,126.167,92.95,126.167z M91.087,123.809h0.685v-4.542c0-0.614,0.472-1.126,1.085-1.175
		c3.239-0.258,5.834-1.299,7.71-3.095c1.862-1.781,2.768-4.118,2.768-7.142c0-3.036-0.855-5.299-2.614-6.917
		c-1.866-1.716-4.828-3.257-8.805-4.582c-4.092-1.356-6.817-2.769-8.329-4.314c-1.582-1.615-2.384-3.752-2.384-6.349
		c0-2.679,0.89-4.938,2.643-6.715c1.759-1.781,4.315-2.685,7.599-2.685c3.241,0,5.813,1.104,7.646,3.28
		c1.568,1.861,2.455,4.218,2.647,7.018h1.131c-0.121-3.155-0.974-5.703-2.542-7.581c-1.736-2.078-4.144-3.231-7.363-3.527
		c-0.606-0.055-1.071-0.564-1.071-1.173v-4.904h-0.714v4.904c0,0.614-0.472,1.125-1.082,1.174c-3.147,0.257-5.651,1.314-7.445,3.144
		c-1.799,1.835-2.674,4.165-2.674,7.124c0,3.079,0.862,5.377,2.635,7.026c1.869,1.739,4.839,3.262,8.828,4.526
		c3.892,1.396,6.533,2.816,8.115,4.359c1.675,1.634,2.523,3.748,2.523,6.282c0,2.733-1.008,5.025-2.996,6.813
		c-1.951,1.755-4.592,2.645-7.849,2.645c-3.125,0-5.84-0.879-8.07-2.611c-2.082-1.617-3.244-4.129-3.459-7.476h-1.139
		c0.101,3.402,1.11,5.899,3.071,7.613c2.186,1.913,4.994,2.985,8.344,3.189c0.622,0.038,1.106,0.553,1.106,1.177V123.809z"/>
	<path clip-path="url(#SVGID_2_)" fill="#595A5A" d="M130.789,146.33l9.521-5.987c15.346-2.775,26.136-11.8,29.606-24.759
		c4.591-17.148-4.433-37.342-24.138-54.029c-2.592-2.025-6.452-5.077-4.986-9.595l0.122-0.316c1.372-3.017,2.509-5.084,4.572-8.835
		c0.591-1.072,1.263-2.292,2.044-3.726c0.119-0.274,0.277-0.579,0.486-0.988c0.129-0.249,0.37-0.715,0.607-1.217
		c-1.774-0.255-2.967-0.811-4.201-1.606l-0.2-0.14c-3.091-2.363-4.747-2.996-5.903-2.254l-0.384,0.207
		c-0.741,0.334-1.433,0.953-2.167,1.609c-1.624,1.453-4.625,4.135-8.935,1.71c-1.072-0.442-2.09-1.187-3.162-1.972
		c-2.682-1.963-3.69-2.397-4.321-1.869l-3.853-4.599c4.432-3.71,9.172-0.238,11.719,1.627c0.624,0.457,1.565,1.148,1.917,1.271
		l0.286,0.101l0.259,0.156c0.416,0.249,0.6,0.263,0.602,0.263c0.26-0.06,0.999-0.722,1.488-1.16
		c0.905-0.809,2.021-1.807,3.508-2.517c5.019-3.036,10.011,0.688,12.492,2.586c0.697,0.445,1.243,0.737,3.268,0.743
		c1.525-0.056,2.85,0.579,3.613,1.756c1.589,2.446-0.08,5.686-1.298,8.052c-0.137,0.267-0.253,0.484-0.315,0.628l-0.158,0.341
		c-0.82,1.504-1.522,2.777-2.134,3.891c-1.989,3.615-3.021,5.489-4.241,8.148c0.08,0.523,1.099,1.515,3.016,3.013l0.091,0.073
		c21.556,18.233,31.313,40.737,26.103,60.2C171.679,132.206,159.664,146.705,130.789,146.33"/>
	<path clip-path="url(#SVGID_2_)" fill="none" stroke="#595A5A" stroke-miterlimit="10" d="M130.789,146.33l9.521-5.987
		c15.346-2.775,26.136-11.8,29.606-24.759c4.591-17.148-4.433-37.342-24.138-54.029c-2.592-2.025-6.452-5.077-4.986-9.595
		l0.122-0.316c1.372-3.017,2.509-5.084,4.572-8.835c0.591-1.072,1.263-2.292,2.044-3.726c0.119-0.274,0.277-0.579,0.486-0.988
		c0.129-0.249,0.37-0.715,0.607-1.217c-1.774-0.255-2.967-0.811-4.201-1.606l-0.2-0.14c-3.091-2.363-4.747-2.996-5.903-2.254
		l-0.384,0.207c-0.741,0.334-1.433,0.953-2.167,1.609c-1.624,1.453-4.625,4.135-8.935,1.71c-1.072-0.442-2.09-1.187-3.162-1.972
		c-2.682-1.963-3.69-2.397-4.321-1.869l-3.853-4.599c4.432-3.71,9.172-0.238,11.719,1.627c0.624,0.457,1.565,1.148,1.917,1.271
		l0.286,0.101l0.259,0.156c0.416,0.249,0.6,0.263,0.602,0.263c0.26-0.06,0.999-0.722,1.488-1.16
		c0.905-0.809,2.021-1.807,3.508-2.517c5.019-3.036,10.011,0.688,12.492,2.586c0.697,0.445,1.243,0.737,3.268,0.743
		c1.525-0.056,2.85,0.579,3.613,1.756c1.589,2.446-0.08,5.686-1.298,8.052c-0.137,0.267-0.253,0.484-0.315,0.628l-0.158,0.341
		c-0.82,1.504-1.522,2.777-2.134,3.891c-1.989,3.615-3.021,5.489-4.241,8.148c0.08,0.523,1.099,1.515,3.016,3.013l0.091,0.073
		c21.556,18.233,31.313,40.737,26.103,60.2C171.679,132.206,159.664,146.705,130.789,146.33z"/>
	<path clip-path="url(#SVGID_2_)" fill="#595A5A" d="M147.56,52.559h-12.641c1.026,1.927,1.963,3.459,2.932,5.141h9.709
		c0.797,0,1.442-1.15,1.442-2.57C149.002,53.709,148.356,52.559,147.56,52.559"/>
	<path clip-path="url(#SVGID_2_)" fill="none" stroke="#595A5A" stroke-miterlimit="10" d="M147.56,52.559h-12.641
		c1.026,1.927,1.963,3.459,2.932,5.141h9.709c0.797,0,1.442-1.15,1.442-2.57C149.002,53.709,148.356,52.559,147.56,52.559z"/>
	<line clip-path="url(#SVGID_2_)" fill="#595A5A" x1="133.289" y1="49.988" x2="145.882" y2="49.988"/>
	
		<line clip-path="url(#SVGID_2_)" fill="none" stroke="#595A5A" stroke-miterlimit="10" x1="133.289" y1="49.988" x2="145.882" y2="49.988"/>
	<path clip-path="url(#SVGID_2_)" fill="#595A5A" d="M145.882,47.417h-13.846c1.014,1.617,1.945,3.346,2.884,5.141h10.962
		c0.966,0,1.75-1.15,1.75-2.57S146.848,47.417,145.882,47.417"/>
	<path clip-path="url(#SVGID_2_)" fill="none" stroke="#595A5A" stroke-miterlimit="10" d="M145.882,47.417h-13.846
		c1.014,1.617,1.945,3.346,2.884,5.141h10.962c0.966,0,1.75-1.15,1.75-2.57S146.848,47.417,145.882,47.417z"/>
	<path clip-path="url(#SVGID_2_)" fill="#595A5A" d="M50.371,28.591c-0.624,0.457-1.566,1.147-1.917,1.271l-0.286,0.101
		l-0.259,0.155c-0.416,0.25-0.601,0.264-0.602,0.264c-0.259-0.061-0.999-0.722-1.489-1.161c-0.904-0.808-2.019-1.806-3.508-2.516
		c-5.017-3.036-10.009,0.688-12.492,2.586c-0.696,0.445-1.242,0.737-3.266,0.743c-1.527-0.056-2.85,0.579-3.615,1.756
		c-1.588,2.446,0.08,5.686,1.298,8.052c0.138,0.267,0.254,0.484,0.317,0.628l0.158,0.341c0.82,1.504,1.521,2.777,2.134,3.891
		c1.989,3.615,3.02,5.489,4.241,8.148c-0.08,0.523-1.1,1.514-3.017,3.013l-0.091,0.073c-6.528,5.522-11.967,11.437-16.241,17.54
		c1.637,1.165,3.286,2.308,5.099,3.16c3.942-5.563,8.956-10.986,14.974-16.082c2.591-2.025,6.453-5.076,4.987-9.594l-0.122-0.316
		c-1.372-3.017-2.509-5.084-4.574-8.835c-0.589-1.072-1.261-2.293-2.043-3.726c-0.12-0.275-0.277-0.579-0.487-0.988
		c-0.129-0.25-0.369-0.715-0.606-1.217c1.773-0.255,2.966-0.811,4.201-1.606l0.2-0.14c3.091-2.363,4.746-2.996,5.902-2.254
		l0.384,0.207c0.741,0.334,1.434,0.953,2.167,1.609c1.624,1.453,4.625,4.134,8.936,1.71c1.072-0.442,2.09-1.187,3.162-1.972
		c2.681-1.963,3.689-2.398,4.32-1.869l3.854-4.599C57.658,23.254,52.918,26.726,50.371,28.591"/>
	<path clip-path="url(#SVGID_2_)" fill="#595A5A" d="M7.672,114.584c-2.225-8.31-1.244-17.333,2.59-26.326
		c-1.758-0.996-3.576-1.859-5.507-2.355c-4.365,10.231-5.457,20.604-2.879,30.233c4.034,15.07,16.049,29.568,44.924,29.193
		l-9.523-5.987C21.932,136.567,11.142,127.543,7.672,114.584"/>
	<path clip-path="url(#SVGID_2_)" fill="#595A5A" d="M37.366,138.85c-15.146-2.739-25.794-11.631-29.211-24.396
		c-2.19-8.182-1.227-17.074,2.542-25.946c-0.289-0.168-0.58-0.332-0.873-0.493c-3.895,9.113-4.893,18.266-2.636,26.698
		c3.515,13.127,14.412,22.272,29.905,25.104l7.979,5.018c-28.962-0.226-39.218-15.771-42.713-28.828
		c-2.553-9.537-1.462-19.819,2.879-29.967c-0.323-0.095-0.648-0.178-0.977-0.25c-4.38,10.308-5.468,20.763-2.869,30.476
		c3.612,13.49,14.232,29.571,44.317,29.571c0.363,0,0.728-0.002,1.097-0.007l1.693-0.022l-10.955-6.888L37.366,138.85z"/>
	<path clip-path="url(#SVGID_2_)" fill="#595A5A" d="M62.411,26.581c-1.396-1.168-2.945-1.76-4.608-1.76
		c-3.128,0-6.006,2.107-7.731,3.369c-0.488,0.358-1.504,1.102-1.784,1.201l-0.286,0.1l-0.35,0.199
		c-0.138,0.083-0.241,0.132-0.302,0.16c-0.294-0.19-0.938-0.768-1.205-1.007c-0.922-0.824-2.07-1.849-3.576-2.566
		c-1.34-0.811-2.782-1.222-4.287-1.222c-3.746,0-7.013,2.497-8.733,3.815c-0.598,0.382-1.03,0.658-2.979,0.665l-0.204-0.004
		c-1.625,0-3.027,0.724-3.848,1.987c-1.747,2.688-0.003,6.077,1.273,8.554l0.084,0.162c0.094,0.18,0.172,0.329,0.223,0.447
		l0.173,0.37c0.702,1.287,1.317,2.405,1.864,3.399l0.272,0.496c1.96,3.561,2.965,5.388,4.143,7.937
		c-0.135,0.256-0.676,0.934-2.795,2.591l-0.101,0.081c-6.56,5.549-12.026,11.495-16.324,17.633c0.27,0.192,0.542,0.383,0.813,0.575
		c4.247-6.066,9.656-11.946,16.148-17.437l0.085-0.069c2.688-2.101,3.129-2.843,3.203-3.331l0.022-0.148l-0.062-0.136
		c-1.228-2.675-2.239-4.514-4.257-8.181l-0.271-0.493c-0.546-0.993-1.161-2.11-1.847-3.367l-0.153-0.33
		c-0.053-0.121-0.141-0.292-0.248-0.499l-0.084-0.161c-1.162-2.257-2.752-5.346-1.323-7.548c0.633-0.974,1.73-1.532,3.01-1.532
		l0.188,0.003c2.107-0.007,2.741-0.315,3.568-0.846c1.661-1.27,4.753-3.633,8.16-3.633c1.319,0,2.588,0.363,3.813,1.101
		c1.42,0.678,2.509,1.651,3.389,2.438c0.915,0.82,1.379,1.198,1.709,1.275l0.114,0.013c0.09,0,0.356-0.033,0.86-0.335l0.215-0.13
		l0.238-0.083c0.388-0.137,1.155-0.687,2.049-1.341c1.724-1.263,4.332-3.172,7.134-3.172c1.268,0,2.468,0.409,3.572,1.218
		l-3.26,3.89c-0.851-0.29-1.857,0.169-4.495,2.1c-1.049,0.768-2.04,1.494-3.111,1.939c-1.076,0.605-2.141,0.912-3.166,0.912
		c-2.332,0-4.053-1.54-5.192-2.559c-0.762-0.682-1.483-1.326-2.261-1.676l-0.353-0.188c-1.362-0.876-3.096-0.308-6.459,2.266
		l-0.184,0.129c-1.148,0.739-2.268,1.282-4.002,1.531l-0.669,0.096l0.289,0.613c0.24,0.508,0.483,0.98,0.632,1.268
		c0.195,0.379,0.342,0.664,0.474,0.962c0.739,1.355,1.38,2.52,1.946,3.55l0.098,0.179c2.057,3.736,3.189,5.794,4.545,8.773
		l0.113,0.29c1.367,4.214-2.356,7.122-4.835,9.059c-6.072,5.142-11.131,10.619-15.102,16.24c0.301,0.152,0.61,0.29,0.921,0.424
		c3.904-5.494,8.865-10.852,14.812-15.888c2.521-1.969,6.738-5.264,5.147-10.169l-0.134-0.343c-1.383-3.041-2.523-5.111-4.59-8.869
		L32.44,41.39c-0.565-1.029-1.206-2.193-1.925-3.506c-0.119-0.275-0.275-0.578-0.5-1.018c-0.075-0.143-0.185-0.357-0.31-0.609
		c1.647-0.333,2.769-0.945,3.747-1.575l0.217-0.153c2.212-1.691,3.622-2.445,4.574-2.445c0.283,0,0.529,0.07,0.786,0.234
		l0.417,0.223c0.671,0.302,1.335,0.896,2.039,1.525c1.176,1.053,3.144,2.814,5.858,2.814c1.199,0,2.429-0.35,3.601-1.013
		c1.128-0.466,2.167-1.226,3.267-2.032c1.337-0.978,2.792-1.979,3.447-1.979c0.107,0,0.181,0.026,0.257,0.09l0.384,0.321
		l4.495-5.365L62.411,26.581z"/>
	<path clip-path="url(#SVGID_2_)" fill="#595A5A" d="M30.029,51.559h12.64c-1.026,1.927-1.963,3.459-2.931,5.141h-9.709
		c-0.797,0-1.443-1.15-1.443-2.57C28.586,52.709,29.232,51.559,30.029,51.559"/>
	<path clip-path="url(#SVGID_2_)" fill="#595A5A" d="M40.027,57.201h-9.998c-1.09,0-1.943-1.349-1.943-3.071
		c0-1.722,0.853-3.071,1.943-3.071h13.472l-0.391,0.735c-0.733,1.378-1.431,2.57-2.104,3.723c-0.278,0.474-0.555,0.947-0.834,1.433
		L40.027,57.201z M30.029,52.059c-0.385,0-0.943,0.807-0.943,2.071c0,1.264,0.558,2.071,0.943,2.071h9.42
		c0.232-0.401,0.463-0.795,0.693-1.189c0.546-0.933,1.107-1.893,1.689-2.953H30.029z"/>
	<line clip-path="url(#SVGID_2_)" fill="#595A5A" x1="44.3" y1="48.988" x2="31.707" y2="48.988"/>
	<rect x="31.706" y="48.488" clip-path="url(#SVGID_2_)" fill="#595A5A" width="12.593" height="1"/>
	<path clip-path="url(#SVGID_2_)" fill="#595A5A" d="M31.707,46.417h13.846c-1.014,1.617-1.946,3.346-2.884,5.141H31.707
		c-0.966,0-1.75-1.15-1.75-2.57S30.741,46.417,31.707,46.417"/>
	<path clip-path="url(#SVGID_2_)" fill="#595A5A" d="M42.972,52.059H31.707c-1.262,0-2.25-1.349-2.25-3.071
		c0-1.722,0.988-3.071,2.25-3.071h14.749l-0.479,0.766c-1.043,1.663-1.994,3.438-2.865,5.107L42.972,52.059z M31.707,46.917
		c-0.678,0-1.25,0.948-1.25,2.071c0,1.122,0.572,2.071,1.25,2.071h10.659c0.71-1.355,1.471-2.771,2.294-4.142H31.707z"/>
	<path clip-path="url(#SVGID_2_)" fill="#595A5A" d="M11.205,86.642c0,1.945-1.576,3.521-3.521,3.521
		c-1.944,0-3.521-1.576-3.521-3.521s1.577-3.521,3.521-3.521C9.629,83.122,11.205,84.697,11.205,86.642"/>
	<path clip-path="url(#SVGID_2_)" fill="#595A5A" d="M18.08,74.601c0,1.945-1.576,3.521-3.521,3.521
		c-1.944,0-3.521-1.576-3.521-3.521c0-1.945,1.577-3.521,3.521-3.521C16.504,71.08,18.08,72.655,18.08,74.601"/>
</g>
</svg>
