<?xml version="1.0" encoding="utf-8"?>
<!-- Generator: Adobe Illustrator 16.0.0, SVG Export Plug-In . SVG Version: 6.00 Build 0)  -->
<!DOCTYPE svg PUBLIC "-//W3C//DTD SVG 1.1//EN" "http://www.w3.org/Graphics/SVG/1.1/DTD/svg11.dtd">
<svg version="1.1" id="Слой_1" xmlns="http://www.w3.org/2000/svg" xmlns:xlink="http://www.w3.org/1999/xlink" x="0px" y="0px"
	 width="164.992px" height="165.051px" viewBox="0 0 164.992 165.051" enable-background="new 0 0 164.992 165.051"
	 xml:space="preserve">
<g>
	<defs>
		<rect id="SVGID_1_" width="164.992" height="165.051"/>
	</defs>
	<clipPath id="SVGID_2_">
		<use xlink:href="#SVGID_1_"  overflow="visible"/>
	</clipPath>
	<g clip-path="url(#SVGID_2_)">
		<defs>
			<circle id="SVGID_3_" cx="82.496" cy="82.496" r="82.496"/>
		</defs>
		<clipPath id="SVGID_4_">
			<use xlink:href="#SVGID_3_"  overflow="visible"/>
		</clipPath>
		
			<linearGradient id="SVGID_5_" gradientUnits="userSpaceOnUse" x1="-4.882813e-004" y1="165.0518" x2="0.9995" y2="165.0518" gradientTransform="matrix(0 164.9917 164.9917 0 -27149.5156 0.0508)">
			<stop  offset="0" style="stop-color:#C5C5C4"/>
			<stop  offset="1" style="stop-color:#B3B3B3"/>
		</linearGradient>
		<rect clip-path="url(#SVGID_4_)" fill="url(#SVGID_5_)" width="164.992" height="164.992"/>
	</g>
	<g clip-path="url(#SVGID_2_)">
		<defs>
			<rect id="SVGID_6_" width="164.992" height="165.051"/>
		</defs>
		<clipPath id="SVGID_7_">
			<use xlink:href="#SVGID_6_"  overflow="visible"/>
		</clipPath>
		<g opacity="0.2" clip-path="url(#SVGID_7_)">
			<g>
				<defs>
					<rect id="SVGID_8_" x="29.248" width="135.745" height="142.431"/>
				</defs>
				<clipPath id="SVGID_9_">
					<use xlink:href="#SVGID_8_"  overflow="visible"/>
				</clipPath>
				<g clip-path="url(#SVGID_9_)">
					<defs>
						<path id="SVGID_10_" d="M29.247,19.484C43.617,7.329,62.201,0,82.496,0c45.561,0,82.496,36.935,82.496,82.496
							c0,23.606-9.916,44.897-25.81,59.934"/>
					</defs>
					<clipPath id="SVGID_11_">
						<use xlink:href="#SVGID_10_"  overflow="visible"/>
					</clipPath>
					
						<linearGradient id="SVGID_12_" gradientUnits="userSpaceOnUse" x1="-4.882813e-004" y1="165.0508" x2="0.9995" y2="165.0508" gradientTransform="matrix(0 142.4304 142.4304 0 -23411.1191 0.0508)">
						<stop  offset="0" style="stop-color:#FFFFFF"/>
						<stop  offset="0.1337" style="stop-color:#F9F9FA"/>
						<stop  offset="1" style="stop-color:#E6E6E7"/>
					</linearGradient>
					<rect x="29.247" clip-path="url(#SVGID_11_)" fill="url(#SVGID_12_)" width="135.745" height="142.43"/>
				</g>
			</g>
		</g>
		<path clip-path="url(#SVGID_7_)" fill="#505050" d="M40.699,106.66h-0.031v-0.423h-4.649c-0.234,0-0.423,0.19-0.423,0.423V113
			h0.001c0.009,0.227,0.193,0.407,0.422,0.407h4.649V113h0.031V106.66z"/>
		<path clip-path="url(#SVGID_7_)" fill="#505050" d="M40.657,89.838h-0.031v-0.423h-4.649c-0.234,0-0.423,0.189-0.423,0.423v6.34
			h0.001c0.009,0.226,0.193,0.407,0.422,0.407h4.649v-0.407h0.031V89.838z"/>
		<path clip-path="url(#SVGID_7_)" fill="#505050" d="M40.657,70.928h-0.031v-0.423h-4.649c-0.234,0-0.423,0.19-0.423,0.423v6.34
			h0.001c0.009,0.226,0.193,0.407,0.422,0.407h4.649v-0.407h0.031V70.928z"/>
		<path clip-path="url(#SVGID_7_)" fill="#636363" d="M50.864,43.967c-7.631,0-13.817,6.186-13.817,13.817v93.737l5.758,3.166
			l82.001-1.333l5.569-3.5V57.779v0.008c0-7.631-6.187-13.817-13.817-13.817v-0.003H50.75"/>
		<path clip-path="url(#SVGID_7_)" fill="#555555" d="M84.873,53.171c0,1.003-0.813,1.816-1.816,1.816s-1.816-0.813-1.816-1.816
			s0.813-1.816,1.816-1.816S84.873,52.168,84.873,53.171"/>
		<path clip-path="url(#SVGID_7_)" fill="#505050" d="M83.057,52.357c0.449,0,0.814,0.365,0.814,0.814s-0.365,0.814-0.814,0.814
			s-0.813-0.365-0.813-0.814S82.607,52.357,83.057,52.357 M83.057,51.355c-1.003,0-1.816,0.813-1.816,1.816s0.813,1.816,1.816,1.816
			s1.816-0.813,1.816-1.816S84.06,51.355,83.057,51.355"/>
		<path clip-path="url(#SVGID_7_)" fill="#555555" d="M89.758,59.245c1.177,0,2.129,0.953,2.129,2.129
			c0,1.176-0.952,2.129-2.129,2.129H77.454c-1.176,0-2.129-0.953-2.129-2.129c0-1.176,0.953-2.129,2.129-2.129H89.758z"/>
		<path clip-path="url(#SVGID_7_)" fill="#505050" d="M89.758,60.247c0.621,0,1.127,0.505,1.127,1.127
			c0,0.621-0.506,1.127-1.127,1.127H77.454c-0.621,0-1.127-0.506-1.127-1.127c0-0.622,0.506-1.127,1.127-1.127H89.758
			 M89.758,59.245H77.454c-1.176,0-2.129,0.953-2.129,2.129c0,1.176,0.953,2.129,2.129,2.129h12.304
			c1.177,0,2.129-0.953,2.129-2.129C91.887,60.198,90.935,59.245,89.758,59.245"/>
		<line clip-path="url(#SVGID_7_)" fill="#505050" x1="42.968" y1="154.854" x2="42.968" y2="70.453"/>
		<rect x="42.747" y="70.453" clip-path="url(#SVGID_7_)" fill="#505050" width="0.444" height="84.401"/>
		<rect x="42.969" y="70.453" clip-path="url(#SVGID_7_)" fill="#505050" width="81.906" height="0.501"/>
		<rect x="124.812" y="70.453" clip-path="url(#SVGID_7_)" fill="#505050" width="0.502" height="82.901"/>
	</g>
	<g clip-path="url(#SVGID_2_)">
		<defs>
			<path id="SVGID_13_" d="M42.969,70.97v83.802c25.297,13.459,54.852,14.423,81.836-1.418h0.006c0,0.214,0.006,0.156,0.015,0.1
				c0.009-0.059,0.022-0.115,0.039,0.089V70.97H42.969z"/>
		</defs>
		<clipPath id="SVGID_14_">
			<use xlink:href="#SVGID_13_"  overflow="visible"/>
		</clipPath>
		
			<linearGradient id="SVGID_15_" gradientUnits="userSpaceOnUse" x1="4.882813e-004" y1="165.0508" x2="1.0005" y2="165.0508" gradientTransform="matrix(0 94.0819 94.0819 0 -15444.3574 70.9883)">
			<stop  offset="0" style="stop-color:#000000"/>
			<stop  offset="1" style="stop-color:#424243"/>
		</linearGradient>
		<rect x="42.969" y="70.97" clip-path="url(#SVGID_14_)" fill="url(#SVGID_15_)" width="81.896" height="98.225"/>
	</g>
	<g clip-path="url(#SVGID_2_)">
		<defs>
			<rect id="SVGID_16_" width="164.992" height="165.051"/>
		</defs>
		<clipPath id="SVGID_17_">
			<use xlink:href="#SVGID_16_"  overflow="visible"/>
		</clipPath>
		<g opacity="0.1" clip-path="url(#SVGID_17_)">
			<g>
				<defs>
					<rect id="SVGID_18_" x="55.471" y="144.782" width="57.417" height="3.393"/>
				</defs>
				<clipPath id="SVGID_19_">
					<use xlink:href="#SVGID_18_"  overflow="visible"/>
				</clipPath>
				<path clip-path="url(#SVGID_19_)" fill="#D2D2D2" d="M112.888,146.479c0,0.938-1.228,1.696-2.74,1.696H58.21
					c-1.513,0-2.74-0.759-2.74-1.696c0-0.937,1.227-1.696,2.74-1.696h51.937C111.66,144.782,112.888,145.542,112.888,146.479"/>
			</g>
		</g>
	</g>
	<g clip-path="url(#SVGID_2_)">
		<defs>
			<path id="SVGID_20_" d="M69.137,146.687c0,2.578,2.09,4.667,4.668,4.667c2.576,0,4.666-2.089,4.666-4.667
				c0-2.577-2.09-4.666-4.666-4.666C71.227,142.021,69.137,144.109,69.137,146.687"/>
		</defs>
		<clipPath id="SVGID_21_">
			<use xlink:href="#SVGID_20_"  overflow="visible"/>
		</clipPath>
		
			<linearGradient id="SVGID_22_" gradientUnits="userSpaceOnUse" x1="-4.882813e-004" y1="165.0508" x2="0.9995" y2="165.0508" gradientTransform="matrix(0 9.3333 9.3333 0 -1466.6692 142.0195)">
			<stop  offset="0" style="stop-color:#71B564"/>
			<stop  offset="1" style="stop-color:#4F68AE"/>
		</linearGradient>
		<rect x="69.137" y="142.021" clip-path="url(#SVGID_21_)" fill="url(#SVGID_22_)" width="9.334" height="9.333"/>
	</g>
	<g clip-path="url(#SVGID_2_)">
		<defs>
			<path id="SVGID_23_" d="M82.526,105.17l6.624,5.519l-6.624,5.521V105.17z M80.964,101.835c-0.385,0.18-0.631,0.567-0.631,0.994
				v15.722c0,0.424,0.246,0.812,0.631,0.992c0.149,0.069,0.308,0.104,0.465,0.104c0.252,0,0.502-0.086,0.703-0.254l9.434-7.86
				c0.25-0.208,0.395-0.518,0.395-0.844s-0.145-0.633-0.395-0.842l-9.434-7.862c-0.201-0.167-0.451-0.254-0.703-0.254
				C81.271,101.73,81.112,101.765,80.964,101.835"/>
		</defs>
		<clipPath id="SVGID_24_">
			<use xlink:href="#SVGID_23_"  overflow="visible"/>
		</clipPath>
		
			<linearGradient id="SVGID_25_" gradientUnits="userSpaceOnUse" x1="0" y1="165.0508" x2="1" y2="165.0508" gradientTransform="matrix(0 17.916 17.916 0 -2870.9065 101.7383)">
			<stop  offset="0" style="stop-color:#71B564"/>
			<stop  offset="1" style="stop-color:#4F68AE"/>
		</linearGradient>
		<rect x="80.333" y="101.73" clip-path="url(#SVGID_24_)" fill="url(#SVGID_25_)" width="11.627" height="17.916"/>
	</g>
	<g clip-path="url(#SVGID_2_)">
		<defs>
			<path id="SVGID_26_" d="M70.941,97.504c-7.27,7.27-7.27,19.1,0,26.371c0.428,0.429,1.123,0.429,1.551,0
				c0.429-0.428,0.429-1.123,0-1.552c-6.415-6.415-6.415-16.853,0-23.268c6.415-6.416,16.853-6.417,23.268,0
				c6.415,6.415,6.415,16.853,0,23.268c-5.198,5.2-13.299,6.314-19.699,2.712c-0.528-0.299-1.197-0.11-1.494,0.418
				c-0.297,0.526-0.111,1.196,0.417,1.494c2.845,1.602,5.986,2.381,9.109,2.38c4.841,0,9.638-1.871,13.219-5.452
				c7.271-7.271,7.271-19.102,0-26.371c-3.636-3.635-8.409-5.453-13.185-5.453C79.352,92.051,74.576,93.869,70.941,97.504"/>
		</defs>
		<clipPath id="SVGID_27_">
			<use xlink:href="#SVGID_26_"  overflow="visible"/>
		</clipPath>
		
			<linearGradient id="SVGID_28_" gradientUnits="userSpaceOnUse" x1="4.882813e-004" y1="165.0508" x2="1.0005" y2="165.0508" gradientTransform="matrix(0 37.276 37.276 0 -6068.3042 92.0508)">
			<stop  offset="0" style="stop-color:#71B564"/>
			<stop  offset="1" style="stop-color:#4F68AE"/>
		</linearGradient>
		<rect x="63.671" y="92.051" clip-path="url(#SVGID_27_)" fill="url(#SVGID_28_)" width="40.911" height="37.277"/>
	</g>
</g>
</svg>
