<?xml version="1.0" encoding="UTF-8" standalone="no"?>
<!-- Generator: Adobe Illustrator 16.0.0, SVG Export Plug-In . SVG Version: 6.00 Build 0)  -->
<!DOCTYPE svg  PUBLIC '-//W3C//DTD SVG 1.1//EN'  'http://www.w3.org/Graphics/SVG/1.1/DTD/svg11.dtd'>
<svg id="Слой_1" xmlns="http://www.w3.org/2000/svg" xml:space="preserve" height="125.5px" viewBox="0 0 119.997 125.5" width="120px" version="1.1" y="0px" x="0px" xmlns:xlink="http://www.w3.org/1999/xlink" enable-background="new 0 0 119.997 125.5">
	<defs>
		<rect id="SVGID_1_" width="120" height="125.5"/>
	</defs>
	<clipPath id="SVGID_2_">
		<use overflow="visible" xlink:href="#SVGID_1_"/>
	</clipPath>
	<path fill="#845E37" d="m74.689 81.142c0-2.064-0.674-3.755-2.021-5.069-1.349-1.315-3.726-2.582-7.132-3.804-3.893-1.234-6.774-2.723-8.646-4.464-1.871-1.739-2.807-4.192-2.807-7.354 0-3.032 0.936-5.502 2.807-7.411 1.872-1.909 4.417-2.995 7.636-3.257v-5.671h2.864v5.671c3.274 0.3 5.811 1.526 7.607 3.678 1.798 2.152 2.677 5.063 2.64 8.731l-0.085 0.14h-3.145c0-2.845-0.749-5.156-2.246-6.934s-3.593-2.667-6.288-2.667c-2.77 0-4.87 0.725-6.303 2.176-1.431 1.45-2.147 3.28-2.147 5.488 0 2.134 0.636 3.851 1.909 5.151 1.272 1.302 3.715 2.551 7.327 3.748 3.874 1.292 6.742 2.794 8.604 4.506 1.863 1.713 2.794 4.132 2.794 7.257 0 3.107-0.973 5.592-2.92 7.454s-4.567 2.924-7.86 3.187v5.334h-2.836v-5.307c-3.387-0.206-6.2-1.287-8.436-3.241-2.237-1.956-3.317-4.909-3.243-8.858l0.085-0.168h3.144c0 3.333 0.945 5.733 2.835 7.202 1.891 1.468 4.174 2.203 6.85 2.203 2.77 0 4.965-0.729 6.583-2.184 1.621-1.457 2.43-3.302 2.43-5.537" clip-path="url(#SVGID_2_)"/>
	<path d="m74.689 81.142c0-2.064-0.674-3.755-2.021-5.069-1.349-1.315-3.726-2.582-7.132-3.804-3.893-1.234-6.774-2.723-8.646-4.464-1.871-1.739-2.807-4.192-2.807-7.354 0-3.032 0.936-5.502 2.807-7.411 1.872-1.909 4.417-2.995 7.636-3.257v-5.671h2.864v5.671c3.274 0.3 5.811 1.526 7.607 3.678 1.798 2.152 2.677 5.063 2.64 8.731l-0.085 0.14h-3.145c0-2.845-0.749-5.156-2.246-6.934s-3.593-2.667-6.288-2.667c-2.77 0-4.87 0.725-6.303 2.176-1.431 1.45-2.147 3.28-2.147 5.488 0 2.134 0.636 3.851 1.909 5.151 1.272 1.302 3.715 2.551 7.327 3.748 3.874 1.292 6.742 2.794 8.604 4.506 1.863 1.713 2.794 4.132 2.794 7.257 0 3.107-0.973 5.592-2.92 7.454s-4.567 2.924-7.86 3.187v5.334h-2.836v-5.307c-3.387-0.206-6.2-1.287-8.436-3.241-2.237-1.956-3.317-4.909-3.243-8.858l0.085-0.168h3.144c0 3.333 0.945 5.733 2.835 7.202 1.891 1.468 4.174 2.203 6.85 2.203 2.77 0 4.965-0.729 6.583-2.184 1.621-1.457 2.43-3.302 2.43-5.537z" clip-path="url(#SVGID_2_)" stroke="#845E37" stroke-miterlimit="10" stroke-width="2" fill="none"/>
	<path fill="#845E37" d="m67.278 98.129h-2.836c-0.607 0-1.099-0.492-1.099-1.099v-4.3c-3.173-0.366-5.88-1.516-8.061-3.421-2.482-2.171-3.699-5.436-3.618-9.706 0.003-0.163 0.043-0.324 0.116-0.471l0.084-0.169c0.186-0.372 0.566-0.606 0.983-0.606h3.144c0.607 0 1.099 0.491 1.099 1.099 0 3.002 0.788 5.074 2.41 6.334 1.708 1.327 3.728 1.972 6.177 1.972 2.477 0 4.444-0.64 5.848-1.901 1.389-1.249 2.063-2.792 2.063-4.718 0-1.773-0.553-3.175-1.688-4.283-1.229-1.198-3.493-2.395-6.735-3.557-3.993-1.266-7.042-2.849-9.024-4.692-2.095-1.949-3.158-4.694-3.158-8.16 0-3.316 1.051-6.068 3.122-8.181 1.85-1.887 4.309-3.052 7.322-3.471v-4.687c0-0.606 0.491-1.098 1.098-1.098h2.864c0.606 0 1.099 0.492 1.099 1.098v4.699c3.09 0.474 5.56 1.799 7.352 3.946 1.962 2.348 2.935 5.526 2.896 9.446-0.003 0.195-0.057 0.387-0.157 0.554l-0.084 0.141c-0.199 0.33-0.557 0.533-0.941 0.533h-3.146c-0.606 0-1.099-0.492-1.099-1.099 0-2.565-0.668-4.66-1.987-6.226-1.29-1.532-3.072-2.276-5.448-2.276-2.452 0-4.31 0.622-5.521 1.849-1.231 1.248-1.83 2.79-1.83 4.716 0 1.852 0.522 3.286 1.595 4.383 1.144 1.169 3.46 2.337 6.888 3.473 4.006 1.335 7.033 2.93 9.002 4.74 2.09 1.921 3.149 4.635 3.149 8.065 0 3.404-1.097 6.18-3.259 8.248-1.918 1.835-4.445 2.971-7.522 3.381v4.346c0 0.606-0.49 1.098-1.098 1.098m-1.737-2.198h0.639v-4.234c0-0.573 0.439-1.05 1.012-1.095 3.02-0.241 5.438-1.212 7.187-2.886 1.737-1.661 2.581-3.84 2.581-6.66 0-2.829-0.797-4.938-2.438-6.447-1.739-1.6-4.501-3.036-8.208-4.272-3.815-1.265-6.356-2.581-7.765-4.021-1.475-1.508-2.223-3.499-2.223-5.92 0-2.497 0.829-4.603 2.464-6.26 1.641-1.661 4.023-2.503 7.085-2.503 3.021 0 5.42 1.029 7.129 3.058 1.461 1.736 2.289 3.933 2.468 6.543h1.055c-0.113-2.942-0.908-5.317-2.371-7.068-1.617-1.938-3.863-3.013-6.864-3.288-0.565-0.052-0.999-0.526-0.999-1.094v-4.574h-0.666v4.572c0 0.572-0.438 1.049-1.009 1.095-2.934 0.239-5.269 1.225-6.941 2.931-1.678 1.711-2.493 3.884-2.493 6.642 0 2.87 0.804 5.013 2.457 6.551 1.742 1.621 4.511 3.041 8.23 4.221 3.629 1.3 6.091 2.624 7.566 4.064 1.561 1.523 2.353 3.493 2.353 5.856 0 2.549-0.939 4.686-2.793 6.353-1.818 1.635-4.281 2.464-7.316 2.464-2.915 0-5.446-0.819-7.525-2.434-1.941-1.508-3.024-3.85-3.225-6.971h-1.062c0.095 3.174 1.035 5.501 2.863 7.1 2.039 1.783 4.656 2.783 7.78 2.973 0.579 0.035 1.031 0.517 1.031 1.097v4.207z" clip-path="url(#SVGID_2_)"/>
	<path d="m67.278 98.129h-2.836c-0.607 0-1.099-0.492-1.099-1.099v-4.3c-3.173-0.366-5.88-1.516-8.061-3.421-2.482-2.171-3.699-5.436-3.618-9.706 0.003-0.163 0.043-0.324 0.116-0.471l0.084-0.169c0.186-0.372 0.566-0.606 0.983-0.606h3.144c0.607 0 1.099 0.491 1.099 1.099 0 3.002 0.788 5.074 2.41 6.334 1.708 1.327 3.728 1.972 6.177 1.972 2.477 0 4.444-0.64 5.848-1.901 1.389-1.249 2.063-2.792 2.063-4.718 0-1.773-0.553-3.175-1.688-4.283-1.229-1.198-3.493-2.395-6.735-3.557-3.993-1.266-7.042-2.849-9.024-4.692-2.095-1.949-3.158-4.694-3.158-8.16 0-3.316 1.051-6.068 3.122-8.181 1.85-1.887 4.309-3.052 7.322-3.471v-4.687c0-0.606 0.491-1.098 1.098-1.098h2.864c0.606 0 1.099 0.492 1.099 1.098v4.699c3.09 0.474 5.56 1.799 7.352 3.946 1.962 2.348 2.935 5.526 2.896 9.446-0.003 0.195-0.057 0.387-0.157 0.554l-0.084 0.141c-0.199 0.33-0.557 0.533-0.941 0.533h-3.146c-0.606 0-1.099-0.492-1.099-1.099 0-2.565-0.668-4.66-1.987-6.226-1.29-1.532-3.072-2.276-5.448-2.276-2.452 0-4.31 0.622-5.521 1.849-1.231 1.248-1.83 2.79-1.83 4.716 0 1.852 0.522 3.286 1.595 4.383 1.144 1.169 3.46 2.337 6.888 3.473 4.006 1.335 7.033 2.93 9.002 4.74 2.09 1.921 3.149 4.635 3.149 8.065 0 3.404-1.097 6.18-3.259 8.248-1.918 1.835-4.445 2.971-7.522 3.381v4.346c0 0.606-0.49 1.098-1.098 1.098zm-1.737-2.198h0.639v-4.234c0-0.573 0.439-1.05 1.012-1.095 3.02-0.241 5.438-1.212 7.187-2.886 1.737-1.661 2.581-3.84 2.581-6.66 0-2.829-0.797-4.938-2.438-6.447-1.739-1.6-4.501-3.036-8.208-4.272-3.815-1.265-6.356-2.581-7.765-4.021-1.475-1.508-2.223-3.499-2.223-5.92 0-2.497 0.829-4.603 2.464-6.26 1.641-1.661 4.023-2.503 7.085-2.503 3.021 0 5.42 1.029 7.129 3.058 1.461 1.736 2.289 3.933 2.468 6.543h1.055c-0.113-2.942-0.908-5.317-2.371-7.068-1.617-1.938-3.863-3.013-6.864-3.288-0.565-0.052-0.999-0.526-0.999-1.094v-4.574h-0.666v4.572c0 0.572-0.438 1.049-1.009 1.095-2.934 0.239-5.269 1.225-6.941 2.931-1.678 1.711-2.493 3.884-2.493 6.642 0 2.87 0.804 5.013 2.457 6.551 1.742 1.621 4.511 3.041 8.23 4.221 3.629 1.3 6.091 2.624 7.566 4.064 1.561 1.523 2.353 3.493 2.353 5.856 0 2.549-0.939 4.686-2.793 6.353-1.818 1.635-4.281 2.464-7.316 2.464-2.915 0-5.446-0.819-7.525-2.434-1.941-1.508-3.024-3.85-3.225-6.971h-1.062c0.095 3.174 1.035 5.501 2.863 7.1 2.039 1.783 4.656 2.783 7.78 2.973 0.579 0.035 1.031 0.517 1.031 1.097v4.207z" clip-path="url(#SVGID_2_)" stroke="#845E37" stroke-miterlimit="10" stroke-width="2" fill="none"/>
		<path stroke-linejoin="round" d="m28.604 35.438c9.229-9.23 21.979-14.938 36.063-14.938 28.166 0 51 22.834 51 51 0 28.167-22.834 51-51 51-28.167 0-51-22.833-51-51" clip-path="url(#SVGID_2_)" stroke="#595A5A" stroke-linecap="round" stroke-miterlimit="10" stroke-width="6" fill="none"/>
	<polyline fill="#595A5A" points="14.167 56.762 3 75.325 25.333 75.325 14.438 55.833" clip-path="url(#SVGID_2_)"/>
		<polyline stroke-linejoin="round" clip-path="url(#SVGID_2_)" points="14.167 56.762 3 75.325 25.333 75.325 14.438 55.833" stroke="#595A5A" stroke-linecap="round" stroke-miterlimit="10" stroke-width="6" fill="none"/>
	<rect clip-path="url(#SVGID_2_)" height="8.667" width="12.667" y="9.5" x="60" fill="#595A5A"/>
		<rect stroke-linejoin="round" clip-path="url(#SVGID_2_)" height="8.667" width="12.667" stroke="#595A5A" stroke-linecap="round" stroke-miterlimit="10" y="9.5" x="60" fill="none"/>
	<path fill="#595A5A" d="m82.667 5.667c0 2.853-2.313 5.167-5.167 5.167h-23.667c-2.854 0-5.167-2.314-5.167-5.167s2.313-5.167 5.167-5.167h23.667c2.854 0 5.167 2.313 5.167 5.167" clip-path="url(#SVGID_2_)"/>
		<path stroke-linejoin="round" d="m82.667 5.667c0 2.853-2.313 5.167-5.167 5.167h-23.667c-2.854 0-5.167-2.314-5.167-5.167s2.313-5.167 5.167-5.167h23.667c2.854 0 5.167 2.313 5.167 5.167z" clip-path="url(#SVGID_2_)" stroke="#595A5A" stroke-linecap="round" stroke-miterlimit="10" fill="none"/>
	<path fill="#595A5A" d="m118.18 30.458c-1.793 1.851-4.748 1.898-6.599 0.104l-7.66-7.422c-1.851-1.794-1.898-4.748-0.105-6.599 1.794-1.851 4.748-1.898 6.6-0.104l7.661 7.422c1.85 1.795 1.9 4.748 0.1 6.599" clip-path="url(#SVGID_2_)"/>
		<path stroke-linejoin="round" d="m118.18 30.458c-1.793 1.851-4.748 1.898-6.599 0.104l-7.66-7.422c-1.851-1.794-1.898-4.748-0.105-6.599 1.794-1.851 4.748-1.898 6.6-0.104l7.661 7.422c1.85 1.795 1.9 4.748 0.1 6.599z" clip-path="url(#SVGID_2_)" stroke="#595A5A" stroke-linecap="round" stroke-miterlimit="10" fill="none"/>
		<line stroke-linejoin="round" x1="21.344" clip-path="url(#SVGID_2_)" y2="44.965" x2="19.989" stroke="#595A5A" stroke-linecap="round" stroke-miterlimit="10" y1="43.036" stroke-width="6" fill="none"/>
</svg>
