<?xml version="1.0" encoding="utf-8"?>
<!-- Generator: Adobe Illustrator 16.0.0, SVG Export Plug-In . SVG Version: 6.00 Build 0)  -->
<!DOCTYPE svg PUBLIC "-//W3C//DTD SVG 1.1//EN" "http://www.w3.org/Graphics/SVG/1.1/DTD/svg11.dtd">
<svg version="1.1" id="Слой_1" xmlns="http://www.w3.org/2000/svg" xmlns:xlink="http://www.w3.org/1999/xlink" x="0px" y="0px"
	 width="1855.13px" height="1855.13px" viewBox="0 0 1855.13 1855.13" enable-background="new 0 0 1855.13 1855.13"
	 xml:space="preserve">
<g>
	<defs>
		<rect id="SVGID_1_" y="-0.003" width="1855.133" height="1855.133"/>
	</defs>
	<clipPath id="SVGID_2_">
		<use xlink:href="#SVGID_1_"  overflow="visible"/>
	</clipPath>
	<g clip-path="url(#SVGID_2_)">
		<path fill="#825D36" d="M927.566,1855.131c-185.985,0-365.41-54.842-518.878-158.598c-9.151-6.186-11.554-18.619-5.367-27.77
			c6.187-9.152,18.619-11.554,27.771-5.367c146.828,99.266,318.506,151.734,496.475,151.734
			c489.406,0,887.566-398.161,887.566-887.567c0-489.405-398.16-887.566-887.566-887.566S40,438.158,40,927.563
			c0,238.789,93.47,462.818,263.191,630.817c7.85,7.771,7.915,20.434,0.144,28.283c-7.77,7.851-20.433,7.917-28.284,0.145
			c-86.187-85.312-153.882-184.889-201.207-295.964C24.846,1175.836,0,1053.611,0,927.563c0-125.212,24.527-246.689,72.901-361.057
			c46.719-110.456,113.597-209.652,198.777-294.832S456.053,119.618,566.51,72.898C680.877,24.525,802.354-0.002,927.566-0.002
			s246.689,24.527,361.057,72.901c110.457,46.719,209.652,113.597,294.832,198.777s152.058,184.375,198.777,294.832
			c48.373,114.368,72.9,235.845,72.9,361.057s-24.527,246.689-72.9,361.057c-46.72,110.457-113.598,209.652-198.777,294.832
			s-184.375,152.059-294.832,198.777C1174.256,1830.604,1052.778,1855.131,927.566,1855.131z"/>
	</g>
	<g clip-path="url(#SVGID_2_)">
		<path fill="#825D36" d="M651.461,712.337V495.009h542.601v215.123c17.458,0.083,34.917,0.199,52.375,0.346V450.912
			c0-41.423-33.877-75.268-75.268-75.268H674.353c-41.391,0-75.267,33.845-75.267,75.268v261.586
			C616.544,712.461,634.002,712.408,651.461,712.337 M843.291,429.898h158.94c5.031,0,9.106,4.075,9.106,9.138
			c0,5.03-4.075,9.106-9.106,9.106h-158.94c-5.031,0-9.106-4.076-9.106-9.106C834.185,433.973,838.26,429.898,843.291,429.898"/>
	</g>
	<g clip-path="url(#SVGID_2_)">
		<path fill="#825D36" d="M1194.061,1141.554v209.16h-542.6v-209.16h-52.375v273.156c0,41.423,33.876,75.3,75.267,75.3h496.816
			c41.39,0,75.267-33.813,75.267-75.268v-273.188H1194.061z M922.761,1452.376c-20.791,0-37.634-16.843-37.634-37.665
			c0-20.823,16.843-37.634,37.634-37.634s37.634,16.811,37.634,37.634C960.395,1435.533,943.552,1452.376,922.761,1452.376"/>
	</g>
	<g clip-path="url(#SVGID_2_)">
		<path fill="#825D36" d="M263.679,956.72l14.358-14.357l14.358,14.357c3.582,3.582,8.275,5.372,12.968,5.372
			c4.693,0,9.386-1.792,12.969-5.372c7.162-7.163,7.162-18.773,0-25.937l-14.36-14.36l14.362-14.362
			c7.162-7.162,7.162-18.774,0-25.936c-7.165-7.163-18.774-7.161-25.939,0l-14.36,14.36l-14.36-14.36
			c-7.163-7.163-18.772-7.163-25.939,0c-7.162,7.162-7.162,18.774,0,25.936l14.362,14.362l-14.36,14.36
			c-7.162,7.163-7.162,18.773,0,25.937C244.905,963.883,256.517,963.883,263.679,956.72"/>
	</g>
	<g clip-path="url(#SVGID_2_)">
		<path fill="#825D36" d="M1046.186,1062.129c1.693,6.854-0.996,14.045-6.773,18.102c-5.776,4.061-13.448,4.153-19.326,0.236
			l-80.138-53.439l-86.38,53.731c-2.776,1.726-5.91,2.582-9.035,2.582c-3.627,0-7.244-1.15-10.274-3.429
			c-5.646-4.239-8.107-11.513-6.197-18.309l26.059-92.729l-77.793-65.547c-5.4-4.549-7.449-11.947-5.162-18.625
			c2.288-6.679,8.441-11.266,15.497-11.551l96.244-3.872l38.301-94.243c2.659-6.539,9.034-10.743,16.119-10.664
			c7.06,0.113,13.325,4.549,15.772,11.17l33.422,90.336l101.468,7.303c7.04,0.508,13.047,5.286,15.123,12.036
			c2.075,6.748-0.207,14.078-5.748,18.454l-75.59,59.7L1046.186,1062.129z"/>
	</g>
	<g clip-path="url(#SVGID_2_)">
		<path fill="#825D36" d="M658.04,870.061c-2.587,0-5.217-0.404-7.808-1.256l-280-92c-13.117-4.31-20.257-18.438-15.947-31.555
			c4.31-13.117,18.44-20.256,31.555-15.947l280,92c13.117,4.31,20.257,18.438,15.947,31.555
			C678.328,863.383,668.546,870.061,658.04,870.061z"/>
	</g>
	<g clip-path="url(#SVGID_2_)">
		<path fill="#825D36" d="M651.535,714.304c0,14.498-11.753,26.25-26.25,26.25s-26.25-11.752-26.25-26.25
			c0-14.497,11.753-26.25,26.25-26.25S651.535,699.807,651.535,714.304"/>
	</g>
	<g clip-path="url(#SVGID_2_)">
		<path fill="#825D36" d="M1246.285,710.179c0,14.428-11.697,26.125-26.125,26.125s-26.125-11.697-26.125-26.125
			c0-14.428,11.697-26.125,26.125-26.125S1246.285,695.751,1246.285,710.179"/>
	</g>
	<g clip-path="url(#SVGID_2_)">
		<path fill="#825D36" d="M1246.285,1142.679c0,14.429-11.697,26.125-26.125,26.125s-26.125-11.696-26.125-26.125
			c0-14.428,11.697-26.125,26.125-26.125S1246.285,1128.251,1246.285,1142.679"/>
	</g>
	<g clip-path="url(#SVGID_2_)">
		<path fill="#825D36" d="M651.535,1142.304c0,14.497-11.753,26.25-26.25,26.25s-26.25-11.753-26.25-26.25s11.753-26.25,26.25-26.25
			S651.535,1127.807,651.535,1142.304"/>
	</g>
	<g clip-path="url(#SVGID_2_)">
		<path fill="#825D36" d="M437.626,1096.061c-10.728,0-20.645-6.959-23.917-17.757c-4.004-13.214,3.462-27.172,16.676-31.176
			l224.4-68c13.211-4.005,27.172,3.461,31.176,16.676c4.004,13.214-3.462,27.172-16.676,31.176l-224.4,68
			C442.469,1095.712,440.027,1096.061,437.626,1096.061z"/>
	</g>
	<g clip-path="url(#SVGID_2_)">
		<path fill="#825D36" d="M335.301,1125.311c-10.728,0-20.644-6.959-23.917-17.757c-4.004-13.213,3.462-27.171,16.675-31.176
			l18.562-5.625c13.212-4.006,27.171,3.461,31.176,16.676c4.004,13.213-3.462,27.171-16.675,31.176l-18.562,5.625
			C340.145,1124.962,337.702,1125.311,335.301,1125.311z"/>
	</g>
	<g clip-path="url(#SVGID_2_)">
		<path fill="#825D36" d="M425.966,580.073l8.07-8.07l8.071,8.07c2.013,2.014,4.651,3.019,7.289,3.019
			c2.638,0,5.276-1.007,7.289-3.019c4.026-4.026,4.026-10.552,0-14.578l-8.071-8.072l8.072-8.073c4.026-4.026,4.026-10.552,0-14.578
			c-4.027-4.026-10.552-4.025-14.579,0l-8.072,8.071l-8.071-8.071c-4.026-4.026-10.552-4.026-14.58,0
			c-4.026,4.026-4.026,10.552,0,14.578l8.073,8.073l-8.072,8.072c-4.026,4.026-4.026,10.552,0,14.578
			C415.414,584.099,421.94,584.099,425.966,580.073"/>
	</g>
	<g clip-path="url(#SVGID_2_)">
		<path fill="#825D36" d="M1585.721,886.638l-14.358,14.358l-14.357-14.358c-3.582-3.582-8.275-5.372-12.968-5.372
			c-4.693,0-9.387,1.792-12.97,5.372c-7.162,7.163-7.162,18.774,0,25.937l14.36,14.36l-14.362,14.362
			c-7.162,7.162-7.162,18.774,0,25.937c7.165,7.163,18.774,7.161,25.939,0l14.359-14.36l14.36,14.36
			c7.163,7.163,18.771,7.163,25.939,0c7.162-7.162,7.162-18.774,0-25.937l-14.362-14.362l14.36-14.36
			c7.161-7.163,7.161-18.774,0-25.937C1604.494,879.475,1592.884,879.475,1585.721,886.638"/>
	</g>
	<g clip-path="url(#SVGID_2_)">
		<path fill="#825D36" d="M1471.368,1115.311c-2.587,0-5.216-0.404-7.808-1.256l-280-92c-13.117-4.311-20.257-18.438-15.947-31.555
			c4.312-13.116,18.438-20.256,31.555-15.947l280,92c13.117,4.311,20.257,18.438,15.947,31.555
			C1491.656,1108.633,1481.875,1115.311,1471.368,1115.311z"/>
	</g>
	<g clip-path="url(#SVGID_2_)">
		<path fill="#825D36" d="M1187.355,865.311c-10.728,0-20.645-6.959-23.917-17.757c-4.004-13.213,3.462-27.171,16.676-31.176
			l224.4-68c13.212-4.004,27.171,3.461,31.176,16.676c4.004,13.213-3.462,27.171-16.676,31.176l-224.4,68
			C1192.198,864.961,1189.756,865.311,1187.355,865.311z"/>
	</g>
	<g clip-path="url(#SVGID_2_)">
		<path fill="#825D36" d="M1495.519,773.686c-10.728,0-20.645-6.959-23.917-17.757c-4.004-13.213,3.462-27.171,16.676-31.176
			l18.563-5.625c13.213-4.003,27.171,3.461,31.176,16.676c4.004,13.213-3.462,27.171-16.676,31.176l-18.563,5.625
			C1500.361,773.336,1497.919,773.686,1495.519,773.686z"/>
	</g>
	<g clip-path="url(#SVGID_2_)">
		<path fill="#825D36" d="M1401.966,578.073l8.07-8.07l8.071,8.07c2.013,2.014,4.65,3.019,7.289,3.019
			c2.638,0,5.275-1.007,7.289-3.019c4.025-4.026,4.025-10.552,0-14.578l-8.071-8.072l8.071-8.073c4.026-4.026,4.026-10.552,0-14.578
			c-4.026-4.026-10.552-4.025-14.578,0l-8.072,8.071l-8.071-8.071c-4.026-4.026-10.552-4.026-14.58,0
			c-4.025,4.026-4.025,10.552,0,14.578l8.073,8.073l-8.072,8.072c-4.025,4.026-4.025,10.552,0,14.578
			C1391.414,582.099,1397.94,582.099,1401.966,578.073"/>
	</g>
</g>
</svg>
