<?xml version="1.0" encoding="utf-8"?>
<!-- Generator: Adobe Illustrator 16.0.0, SVG Export Plug-In . SVG Version: 6.00 Build 0)  -->
<!DOCTYPE svg PUBLIC "-//W3C//DTD SVG 1.1//EN" "http://www.w3.org/Graphics/SVG/1.1/DTD/svg11.dtd">
<svg version="1.1" id="Слой_1" xmlns="http://www.w3.org/2000/svg" xmlns:xlink="http://www.w3.org/1999/xlink" x="0px" y="0px"
	 width="164.992px" height="165.051px" viewBox="0 0 164.992 165.051" enable-background="new 0 0 164.992 165.051"
	 xml:space="preserve">
<linearGradient id="SVGID_1_" gradientUnits="userSpaceOnUse" x1="82.5161" y1="170.7915" x2="82.5161" y2="5.7983" gradientTransform="matrix(1 0 0 -1 -0.02 170.791)">
	<stop  offset="0" style="stop-color:#C7C6C4"/>
	<stop  offset="1" style="stop-color:#B5B4B5"/>
</linearGradient>
<circle fill="url(#SVGID_1_)" cx="82.496" cy="82.496" r="82.496"/>
<linearGradient id="SVGID_2_" gradientUnits="userSpaceOnUse" x1="97.1387" y1="170.7915" x2="97.1387" y2="28.3608" gradientTransform="matrix(1 0 0 -1 -0.02 170.791)">
	<stop  offset="0" style="stop-color:#FFFFFF"/>
	<stop  offset="0.1337" style="stop-color:#F9FBFA"/>
	<stop  offset="1" style="stop-color:#E6E7E7"/>
</linearGradient>
<path opacity="0.2" fill="url(#SVGID_2_)" enable-background="new    " d="M29.247,19.484C43.617,7.329,62.2,0,82.495,0
	c45.561,0,82.496,36.935,82.496,82.496c0,23.607-9.915,44.897-25.809,59.934"/>
<g>
	<path fill="#4E4E4E" d="M40.699,106.661h-0.031v-0.424h-4.649c-0.232,0-0.423,0.189-0.423,0.424V113h0.002
		c0.008,0.226,0.193,0.406,0.421,0.406h4.649V113h0.031V106.661z"/>
	<path fill="#4E4E4E" d="M40.657,89.838h-0.031v-0.424h-4.649c-0.232,0-0.423,0.189-0.423,0.424v6.34h0.002
		c0.008,0.227,0.193,0.406,0.421,0.406h4.649v-0.406h0.031V89.838z"/>
	<path fill="#4E4E4E" d="M40.657,70.928h-0.031v-0.423h-4.649c-0.232,0-0.423,0.189-0.423,0.423v6.34h0.002
		c0.008,0.226,0.193,0.407,0.421,0.407h4.649v-0.407h0.031V70.928z"/>
	<path fill="#636363" d="M50.863,43.967c-7.632,0-13.817,6.186-13.817,13.817v93.736l0,0l5.758,3.167l82.001-1.333l5.569-3.5V57.779
		v0.008c0-7.631-6.187-13.817-13.817-13.817v-0.003H50.75"/>
	<g>
		<circle fill="#555454" cx="83.056" cy="53.171" r="1.816"/>
		<path fill="#4E4E4E" d="M83.056,52.357c0.449,0,0.814,0.365,0.814,0.814c0,0.449-0.365,0.813-0.814,0.813
			s-0.813-0.365-0.813-0.813C82.242,52.722,82.608,52.357,83.056,52.357 M83.056,51.355c-1.003,0-1.815,0.813-1.815,1.816
			c0,1.003,0.813,1.816,1.815,1.816s1.816-0.813,1.816-1.816C84.872,52.168,84.059,51.355,83.056,51.355L83.056,51.355z"/>
	</g>
	<g>
		<path fill="#555454" d="M89.758,59.245c1.176,0,2.129,0.953,2.129,2.129c0,1.176-0.953,2.129-2.129,2.129H77.454
			c-1.176,0-2.129-0.953-2.129-2.129c0-1.176,0.953-2.129,2.129-2.129H89.758z"/>
		<path fill="#4E4E4E" d="M89.758,60.247c0.621,0,1.127,0.506,1.127,1.127c0,0.621-0.506,1.127-1.127,1.127H77.454
			c-0.621,0-1.127-0.506-1.127-1.127c0-0.621,0.506-1.127,1.127-1.127H89.758 M89.758,59.245H77.454
			c-1.176,0-2.129,0.953-2.129,2.129c0,1.176,0.953,2.129,2.129,2.129h12.304c1.176,0,2.129-0.953,2.129-2.129
			C91.887,60.198,90.934,59.245,89.758,59.245L89.758,59.245z"/>
	</g>
	<g>
		<line fill="none" x1="42.968" y1="154.854" x2="42.968" y2="70.453"/>
		<rect x="42.746" y="70.453" fill="#4E4E4E" width="0.443" height="84.401"/>
	</g>
	<rect x="42.968" y="70.453" fill="#4E4E4E" width="81.906" height="0.501"/>
	<rect x="124.812" y="70.453" fill="#4E4E4E" width="0.501" height="82.901"/>
	<path fill="#FFFFFF" d="M124.805,153.354h0.007c0,0.426,0.021-0.223,0.054,0.188V70.97H42.969v83.803
		C68.266,168.231,97.82,169.196,124.805,153.354z"/>
	
		<linearGradient id="SVGID_3_" gradientUnits="userSpaceOnUse" x1="84.0615" y1="87.438" x2="84.0615" y2="5.7397" gradientTransform="matrix(1 0 0 -1 -0.02 170.791)">
		<stop  offset="0" style="stop-color:#52AC62"/>
		<stop  offset="1" style="stop-color:#4D6AA6"/>
	</linearGradient>
	<path fill="url(#SVGID_3_)" d="M124.99,83.354H43.094v71.418c25.297,13.459,54.853,14.424,81.837-1.418h0.007"/>
</g>
<path fill="#D4D4D3" d="M114.887,77.479c0,1.588-1.287,2.875-2.875,2.875h-54.5c-1.588,0-2.875-1.287-2.875-2.875l0,0
	c0-1.588,1.287-2.875,2.875-2.875h54.5C113.6,74.604,114.887,75.891,114.887,77.479L114.887,77.479z"/>
<path fill="#4B5F90" d="M109.878,106.499v-0.008H59.469c-2.618,0-4.74,2.121-4.74,4.739v27.347c0,2.617,2.122,4.739,4.74,4.739
	h50.409v-0.008c2.49-0.142,4.467-2.206,4.467-4.731V111.23C114.344,108.704,112.368,106.639,109.878,106.499z"/>
<linearGradient id="SVGID_4_" gradientUnits="userSpaceOnUse" x1="84.498" y1="65.4883" x2="84.498" y2="28.6621" gradientTransform="matrix(1 0 0 -1 -0.02 170.791)">
	<stop  offset="0" style="stop-color:#FFFFFF"/>
	<stop  offset="1" style="stop-color:#D1D3D4"/>
</linearGradient>
<path fill="url(#SVGID_4_)" d="M109.819,105.31v-0.008H59.41c-2.618,0-4.74,2.122-4.74,4.739v27.347c0,2.618,2.122,4.74,4.74,4.74
	h50.409v-0.009c2.489-0.142,4.467-2.205,4.467-4.731v-27.347C114.286,107.516,112.31,105.452,109.819,105.31z"/>
<g>
	<path fill="#0D0F0F" d="M72.234,125.943v3.411h-2.317v-9.953h4.04c1.181,0,2.117,0.303,2.81,0.906
		c0.693,0.604,1.039,1.395,1.039,2.369c0,0.98-0.347,1.77-1.039,2.369c-0.691,0.599-1.629,0.898-2.81,0.898L72.234,125.943
		L72.234,125.943z M72.234,124.165h1.723c0.501,0,0.883-0.137,1.146-0.414c0.263-0.275,0.394-0.629,0.394-1.063
		c0-0.441-0.131-0.804-0.394-1.087s-0.645-0.424-1.146-0.424h-1.723V124.165z"/>
	<path fill="#0D0F0F" d="M81.072,127.577h4.286v1.777h-6.604v-9.953h2.317L81.072,127.577L81.072,127.577z"/>
	<path fill="#0D0F0F" d="M91.406,127.418h-3.139l-0.561,1.936h-2.324l3.213-9.953h2.481l3.22,9.953h-2.324L91.406,127.418z
		 M88.781,125.642h2.111l-1.039-3.562h-0.041L88.781,125.642z"/>
	<path fill="#0D0F0F" d="M97.297,123.749h0.041l1.982-4.349h2.509l-3.384,6.453v3.5h-2.305v-3.616l-3.314-6.337h2.495
		L97.297,123.749z"/>
</g>
</svg>
