<?xml version="1.0" encoding="utf-8"?>
<!-- Generator: Adobe Illustrator 16.0.0, SVG Export Plug-In . SVG Version: 6.00 Build 0)  -->
<!DOCTYPE svg PUBLIC "-//W3C//DTD SVG 1.1//EN" "http://www.w3.org/Graphics/SVG/1.1/DTD/svg11.dtd">
<svg version="1.1" id="Слой_1" xmlns="http://www.w3.org/2000/svg" xmlns:xlink="http://www.w3.org/1999/xlink" x="0px" y="0px"
	 width="164.992px" height="165.051px" viewBox="0 0 164.992 165.051" enable-background="new 0 0 164.992 165.051"
	 xml:space="preserve">
<g>
	<defs>
		<rect id="SVGID_1_" width="164.992" height="165.051"/>
	</defs>
	<clipPath id="SVGID_2_">
		<use xlink:href="#SVGID_1_"  overflow="visible"/>
	</clipPath>
	<g clip-path="url(#SVGID_2_)">
		<defs>
			<circle id="SVGID_3_" cx="82.496" cy="82.496" r="82.496"/>
		</defs>
		<clipPath id="SVGID_4_">
			<use xlink:href="#SVGID_3_"  overflow="visible"/>
		</clipPath>
		
			<linearGradient id="SVGID_5_" gradientUnits="userSpaceOnUse" x1="-4.882813e-004" y1="165.0518" x2="0.9995" y2="165.0518" gradientTransform="matrix(0 164.9917 164.9917 0 -27149.5156 0.0508)">
			<stop  offset="0" style="stop-color:#C5C5C4"/>
			<stop  offset="1" style="stop-color:#B3B3B3"/>
		</linearGradient>
		<rect clip-path="url(#SVGID_4_)" fill="url(#SVGID_5_)" width="164.992" height="164.992"/>
	</g>
	<g clip-path="url(#SVGID_2_)">
		<defs>
			<rect id="SVGID_6_" width="164.992" height="165.051"/>
		</defs>
		<clipPath id="SVGID_7_">
			<use xlink:href="#SVGID_6_"  overflow="visible"/>
		</clipPath>
		<g opacity="0.2" clip-path="url(#SVGID_7_)">
			<g>
				<defs>
					<rect id="SVGID_8_" x="29.248" width="135.745" height="142.431"/>
				</defs>
				<clipPath id="SVGID_9_">
					<use xlink:href="#SVGID_8_"  overflow="visible"/>
				</clipPath>
				<g clip-path="url(#SVGID_9_)">
					<defs>
						<path id="SVGID_10_" d="M29.247,19.484C43.617,7.329,62.201,0,82.496,0c45.561,0,82.496,36.935,82.496,82.496
							c0,23.606-9.916,44.897-25.81,59.934"/>
					</defs>
					<clipPath id="SVGID_11_">
						<use xlink:href="#SVGID_10_"  overflow="visible"/>
					</clipPath>
					
						<linearGradient id="SVGID_12_" gradientUnits="userSpaceOnUse" x1="-4.882813e-004" y1="165.0508" x2="0.9995" y2="165.0508" gradientTransform="matrix(0 142.4304 142.4304 0 -23411.1191 0.0508)">
						<stop  offset="0" style="stop-color:#FFFFFF"/>
						<stop  offset="0.1337" style="stop-color:#F9F9FA"/>
						<stop  offset="1" style="stop-color:#E6E6E7"/>
					</linearGradient>
					<rect x="29.247" clip-path="url(#SVGID_11_)" fill="url(#SVGID_12_)" width="135.745" height="142.43"/>
				</g>
			</g>
		</g>
		<path clip-path="url(#SVGID_7_)" fill="#505050" d="M40.699,106.66h-0.031v-0.423h-4.649c-0.234,0-0.423,0.19-0.423,0.423V113
			h0.001c0.009,0.227,0.193,0.407,0.422,0.407h4.649V113h0.031V106.66z"/>
		<path clip-path="url(#SVGID_7_)" fill="#505050" d="M40.657,89.838h-0.031v-0.423h-4.649c-0.234,0-0.423,0.189-0.423,0.423v6.34
			h0.001c0.009,0.226,0.193,0.407,0.422,0.407h4.649v-0.407h0.031V89.838z"/>
		<path clip-path="url(#SVGID_7_)" fill="#505050" d="M40.657,70.928h-0.031v-0.423h-4.649c-0.234,0-0.423,0.19-0.423,0.423v6.34
			h0.001c0.009,0.226,0.193,0.407,0.422,0.407h4.649v-0.407h0.031V70.928z"/>
		<path clip-path="url(#SVGID_7_)" fill="#636363" d="M50.864,43.967c-7.631,0-13.817,6.186-13.817,13.817v93.737l5.758,3.166
			l82.001-1.333l5.569-3.5V57.779v0.008c0-7.631-6.187-13.817-13.817-13.817v-0.003H50.75"/>
		<path clip-path="url(#SVGID_7_)" fill="#555555" d="M84.873,53.171c0,1.003-0.813,1.816-1.816,1.816s-1.816-0.813-1.816-1.816
			s0.813-1.816,1.816-1.816S84.873,52.168,84.873,53.171"/>
		<path clip-path="url(#SVGID_7_)" fill="#505050" d="M83.057,52.357c0.449,0,0.814,0.365,0.814,0.814s-0.365,0.814-0.814,0.814
			s-0.813-0.365-0.813-0.814S82.607,52.357,83.057,52.357 M83.057,51.355c-1.003,0-1.816,0.813-1.816,1.816s0.813,1.816,1.816,1.816
			s1.816-0.813,1.816-1.816S84.06,51.355,83.057,51.355"/>
		<path clip-path="url(#SVGID_7_)" fill="#555555" d="M89.758,59.245c1.177,0,2.129,0.953,2.129,2.129
			c0,1.176-0.952,2.129-2.129,2.129H77.454c-1.176,0-2.129-0.953-2.129-2.129c0-1.176,0.953-2.129,2.129-2.129H89.758z"/>
		<path clip-path="url(#SVGID_7_)" fill="#505050" d="M89.758,60.247c0.621,0,1.127,0.505,1.127,1.127
			c0,0.621-0.506,1.127-1.127,1.127H77.454c-0.621,0-1.127-0.506-1.127-1.127c0-0.622,0.506-1.127,1.127-1.127H89.758
			 M89.758,59.245H77.454c-1.176,0-2.129,0.953-2.129,2.129c0,1.176,0.953,2.129,2.129,2.129h12.304
			c1.177,0,2.129-0.953,2.129-2.129C91.887,60.198,90.935,59.245,89.758,59.245"/>
		<line clip-path="url(#SVGID_7_)" fill="#505050" x1="42.968" y1="154.854" x2="42.968" y2="70.453"/>
		<rect x="42.747" y="70.453" clip-path="url(#SVGID_7_)" fill="#505050" width="0.444" height="84.401"/>
		<rect x="42.969" y="70.453" clip-path="url(#SVGID_7_)" fill="#505050" width="81.906" height="0.501"/>
		<rect x="124.812" y="70.453" clip-path="url(#SVGID_7_)" fill="#505050" width="0.502" height="82.901"/>
		<path clip-path="url(#SVGID_7_)" fill="#FFFFFF" d="M124.806,153.354h0.007c0,0.425,0.021-0.223,0.053,0.188V70.969H42.968v83.803
			C68.266,168.23,97.82,169.194,124.806,153.354"/>
		<g opacity="0.3" clip-path="url(#SVGID_7_)">
			<g>
				<defs>
					<rect id="SVGID_13_" x="43.094" y="83.354" width="81.896" height="81.697"/>
				</defs>
				<clipPath id="SVGID_14_">
					<use xlink:href="#SVGID_13_"  overflow="visible"/>
				</clipPath>
				<g clip-path="url(#SVGID_14_)">
					<defs>
						<path id="SVGID_15_" d="M124.99,83.354H43.094v71.417c25.297,13.459,54.852,14.423,81.836-1.418h0.006"/>
					</defs>
					<clipPath id="SVGID_16_">
						<use xlink:href="#SVGID_15_"  overflow="visible"/>
					</clipPath>
					
						<linearGradient id="SVGID_17_" gradientUnits="userSpaceOnUse" x1="-9.765625e-004" y1="165.0498" x2="0.999" y2="165.0498" gradientTransform="matrix(0 81.6971 81.6971 0 -13400.1074 83.3633)">
						<stop  offset="0" style="stop-color:#71B564"/>
						<stop  offset="1" style="stop-color:#4F68AE"/>
					</linearGradient>
					<rect x="43.094" y="83.354" clip-path="url(#SVGID_16_)" fill="url(#SVGID_17_)" width="81.896" height="85.84"/>
				</g>
			</g>
		</g>
		<g opacity="0.8" clip-path="url(#SVGID_7_)">
			<g>
				<defs>
					<rect id="SVGID_18_" x="55.138" y="94.854" width="58.5" height="58.5"/>
				</defs>
				<clipPath id="SVGID_19_">
					<use xlink:href="#SVGID_18_"  overflow="visible"/>
				</clipPath>
				<path clip-path="url(#SVGID_19_)" fill="#FFFFFF" d="M113.638,124.104c0,16.154-13.097,29.25-29.25,29.25
					c-16.154,0-29.25-13.096-29.25-29.25s13.096-29.25,29.25-29.25C100.541,94.854,113.638,107.949,113.638,124.104"/>
			</g>
		</g>
	</g>
	<g clip-path="url(#SVGID_2_)">
		<defs>
			<path id="SVGID_20_" d="M90.223,121.256l5.841-6.049c0.418-0.417,0.974-0.278,1.112-0.209c0.14,0.069,0.626,0.348,0.626,0.974
				v18.077c0,0.625-0.486,0.903-0.626,0.973c-0.139,0.07-0.626,0.279-1.112-0.208l-5.841-5.84c-0.209-0.14-0.486-0.278-0.765-0.278
				c-0.138,0-0.278,0.069-0.416,0.139c-0.348,0.14-0.626,0.556-0.626,0.974v4.241H71.66c-0.556,0-1.043-0.487-1.043-1.043v-15.713
				c0-0.558,0.487-1.043,1.043-1.043h16.825v4.241c0,0.417,0.209,0.834,0.626,0.974c0.115,0.069,0.247,0.1,0.381,0.1
				C89.759,121.564,90.038,121.441,90.223,121.256 M94.604,113.886l-4.103,4.102v-2.78c0-0.557-0.487-1.043-1.043-1.043H71.66
				c-1.739,0-3.129,1.391-3.129,3.129v15.713c0,1.738,1.39,3.129,3.129,3.129h17.798c0.556,0,1.043-0.487,1.043-1.043v-2.781
				l4.103,4.103c0.625,0.556,1.391,0.903,2.225,0.903c0.348,0,0.765-0.069,1.182-0.209c1.184-0.556,1.947-1.599,1.947-2.92V116.11
				c0-1.32-0.764-2.434-1.947-2.921c-0.387-0.158-0.79-0.235-1.187-0.235C96.007,112.954,95.211,113.278,94.604,113.886"/>
		</defs>
		<clipPath id="SVGID_21_">
			<use xlink:href="#SVGID_20_"  overflow="visible"/>
		</clipPath>
		
			<linearGradient id="SVGID_22_" gradientUnits="userSpaceOnUse" x1="4.882813e-004" y1="165.0508" x2="1.0005" y2="165.0508" gradientTransform="matrix(0 24.3628 24.3628 0 -3936.8474 112.957)">
			<stop  offset="0" style="stop-color:#71B564"/>
			<stop  offset="1" style="stop-color:#4F68AE"/>
		</linearGradient>
		<rect x="68.531" y="112.954" clip-path="url(#SVGID_21_)" fill="url(#SVGID_22_)" width="31.426" height="24.362"/>
	</g>
	<g clip-path="url(#SVGID_2_)">
		<defs>
			<path id="SVGID_23_" d="M81.463,118.614c-0.557,0-1.043,0.486-1.043,1.043c0,0.556,0.486,1.043,1.043,1.043h2.781
				c0.556,0,1.043-0.418,1.043-1.043c0-0.557-0.487-1.043-1.043-1.043H81.463z"/>
		</defs>
		<clipPath id="SVGID_24_">
			<use xlink:href="#SVGID_23_"  overflow="visible"/>
		</clipPath>
		
			<linearGradient id="SVGID_25_" gradientUnits="userSpaceOnUse" x1="0" y1="165.0498" x2="1" y2="165.0498" gradientTransform="matrix(0 2.0858 2.0858 0 -261.4053 118.6133)">
			<stop  offset="0" style="stop-color:#71B564"/>
			<stop  offset="1" style="stop-color:#4F68AE"/>
		</linearGradient>
		<rect x="80.42" y="118.614" clip-path="url(#SVGID_24_)" fill="url(#SVGID_25_)" width="4.867" height="2.086"/>
	</g>
	<g clip-path="url(#SVGID_2_)">
		<defs>
			<path id="SVGID_26_" d="M76.944,119.657c0,0.556,0.487,1.043,1.043,1.043c0.556,0,1.042-0.418,1.042-1.043
				c0-0.557-0.486-1.043-1.042-1.043C77.431,118.614,76.944,119.101,76.944,119.657"/>
		</defs>
		<clipPath id="SVGID_27_">
			<use xlink:href="#SVGID_26_"  overflow="visible"/>
		</clipPath>
		
			<linearGradient id="SVGID_28_" gradientUnits="userSpaceOnUse" x1="0" y1="165.0508" x2="1" y2="165.0508" gradientTransform="matrix(0 2.0858 2.0858 0 -266.2725 118.6133)">
			<stop  offset="0" style="stop-color:#71B564"/>
			<stop  offset="1" style="stop-color:#4F68AE"/>
		</linearGradient>
		<rect x="76.944" y="118.614" clip-path="url(#SVGID_27_)" fill="url(#SVGID_28_)" width="2.085" height="2.086"/>
	</g>
	<g clip-path="url(#SVGID_2_)">
		<defs>
			<rect id="SVGID_29_" width="164.992" height="165.051"/>
		</defs>
		<clipPath id="SVGID_30_">
			<use xlink:href="#SVGID_29_"  overflow="visible"/>
		</clipPath>
		<path clip-path="url(#SVGID_30_)" fill="#D2D2D2" d="M114.888,77.479c0,1.588-1.287,2.875-2.875,2.875h-54.5
			c-1.588,0-2.875-1.287-2.875-2.875c0-1.588,1.287-2.875,2.875-2.875h54.5C113.601,74.604,114.888,75.891,114.888,77.479"/>
	</g>
</g>
</svg>
