<?xml version="1.0" encoding="utf-8"?>
<!-- Generator: Adobe Illustrator 16.0.0, SVG Export Plug-In . SVG Version: 6.00 Build 0)  -->
<!DOCTYPE svg PUBLIC "-//W3C//DTD SVG 1.1//EN" "http://www.w3.org/Graphics/SVG/1.1/DTD/svg11.dtd">
<svg version="1.1" id="Слой_1" xmlns="http://www.w3.org/2000/svg" xmlns:xlink="http://www.w3.org/1999/xlink" x="0px" y="0px"
	 width="471px" height="471px" viewBox="0 0 471 471" enable-background="new 0 0 471 471" xml:space="preserve">
<g>
	<defs>
		<rect id="SVGID_1_" width="471" height="471"/>
	</defs>
	<clipPath id="SVGID_2_">
		<use xlink:href="#SVGID_1_"  overflow="visible"/>
	</clipPath>
	<g clip-path="url(#SVGID_2_)">
		<path fill="#825D36" d="M286.672,216.585c16.158,7.54,20.735,5.296,34.649,0.359c12.297-4.578,37.252-6.194,50.716,28.455
			c7.541,20.466,4.04,40.483-16.696,53.14c-29.981,20.825-37.88,29.083-54.936,51.883c-16.606,22.351-18.312,31.059-43.984,31.956
			c-22.71-1.167-41.74-14.093-47.934-34.469c-4.309-18.312,15.978-32.495,1.436-55.654c-6.373-10.502-1.242-34.484,19.299-55.025
			C249.241,217.393,270.246,210.571,286.672,216.585"/>
	</g>
	<g clip-path="url(#SVGID_2_)">
		<path fill="#825D36" d="M256.391,386.19l-0.164-0.008c-12-0.617-23.123-4.326-32.166-10.726
			c-9.319-6.596-15.964-15.738-19.217-26.439l-0.063-0.235c-2.005-8.521,0.569-16.031,3.059-23.295
			c3.351-9.777,6.516-19.011-1.141-31.206l-0.031-0.05c-7.394-12.185-1.986-37.845,19.862-59.694
			c7.824-7.753,15.937-13.737,24.127-17.796c8.132-4.031,16.143-6.075,23.809-6.075c4.721,0,9.269,0.788,13.515,2.343l0.153,0.056
			l0.148,0.069c6.801,3.174,11.425,4.528,15.462,4.528c4.232,0,8.323-1.46,14.516-3.67c0.57-0.204,1.156-0.413,1.759-0.626
			c3.265-1.213,8.462-2.653,14.728-2.653c8.061,0,15.447,2.336,21.952,6.944c7.913,5.604,14.267,14.475,18.887,26.363l0.024,0.063
			c4.226,11.469,5.017,22.178,2.353,31.828c-2.917,10.567-9.829,19.253-20.541,25.819c-29.733,20.658-37.235,28.604-53.968,50.974
			c-2.475,3.331-4.656,6.413-6.58,9.133c-5.683,8.031-9.788,13.834-15.569,17.857c-5.966,4.151-13.369,6.093-24.751,6.49
			L256.391,386.19z M212.168,346.922c5.639,18.364,22.587,30.474,44.286,31.645c19.765-0.719,23.417-5.882,34.204-21.128
			c1.949-2.754,4.157-5.875,6.692-9.287c17.377-23.23,25.758-31.859,55.819-52.74l0.188-0.123
			c23.423-14.297,19.534-36.536,15.118-48.542c-9.138-23.484-23.384-28.417-33.727-28.417c-5.15,0-9.421,1.188-12.098,2.184
			l-0.055,0.02c-0.609,0.216-1.2,0.427-1.774,0.632c-6.691,2.388-11.526,4.113-17.076,4.113c-5.188,0-10.736-1.547-18.529-5.17
			c-3.363-1.211-6.979-1.826-10.749-1.826c-13.357,0-28.472,7.69-42.562,21.653c-19.986,19.987-23.724,42.054-18.738,50.322
			c9.568,15.261,5.483,27.181,1.879,37.699C212.724,334.729,210.718,340.583,212.168,346.922z"/>
	</g>
	<g clip-path="url(#SVGID_2_)">
		<path fill="#825D36" d="M174.566,332.141c-3.45,0-6.861-0.681-10.142-2.024c-5.877-2.406-10.607-6.674-13.321-12.018
			c-2.809-5.531-3.141-11.543-0.936-16.929c3.148-7.69,11.125-12.66,20.323-12.66c3.449,0,6.861,0.681,10.141,2.023
			c12.33,5.049,18.726,18.034,14.258,28.947C191.74,327.172,183.763,332.141,174.566,332.141z M170.49,296.127
			c-6.092,0-11.302,3.113-13.274,7.93c-1.353,3.305-1.112,7.067,0.679,10.594c1.886,3.714,5.23,6.704,9.416,8.417
			c2.359,0.966,4.8,1.456,7.255,1.456c6.091,0,11.302-3.112,13.274-7.929c2.876-7.026-1.652-15.555-10.095-19.012
			C175.386,296.617,172.945,296.127,170.49,296.127z"/>
	</g>
	<g clip-path="url(#SVGID_2_)">
		<path fill="#825D36" d="M172.973,275.841c-3.776,0-7.64-0.863-11.173-2.497c-5.765-2.665-10.301-7.139-12.774-12.598
			c-2.561-5.65-2.625-11.672-0.184-16.954c3.356-7.26,10.917-11.771,19.732-11.771c3.776,0,7.64,0.864,11.174,2.498
			c5.765,2.665,10.301,7.139,12.775,12.598c2.56,5.65,2.625,11.671,0.184,16.953C189.349,271.331,181.788,275.841,172.973,275.841z
			 M168.573,239.639c-5.811,0-10.723,2.816-12.818,7.35c-1.499,3.242-1.425,7.011,0.208,10.614c1.719,3.794,4.927,6.93,9.033,8.828
			c2.539,1.174,5.298,1.794,7.978,1.794c5.812,0,10.723-2.816,12.819-7.35c1.498-3.242,1.424-7.011-0.208-10.614
			c-1.719-3.795-4.927-6.93-9.033-8.828C174.012,240.259,171.253,239.639,168.573,239.639z"/>
	</g>
	<g clip-path="url(#SVGID_2_)">
		<path fill="#825D36" d="M201.685,230.682c-6.722,0-13.317-2.675-18.571-7.532c-10.496-9.704-12.059-25.143-3.485-34.418
			c4.027-4.355,9.714-6.754,16.014-6.754c6.722,0,13.317,2.675,18.571,7.532c10.496,9.704,12.059,25.144,3.484,34.418
			C213.672,228.283,207.985,230.682,201.685,230.682z M195.643,189.594c-4.152,0-7.853,1.53-10.421,4.308
			c-5.723,6.19-4.349,16.802,3.063,23.654c3.786,3.5,8.671,5.508,13.4,5.508c4.152,0,7.853-1.53,10.421-4.308
			c5.723-6.19,4.35-16.802-3.062-23.654C205.257,191.602,200.373,189.594,195.643,189.594z"/>
	</g>
	<g clip-path="url(#SVGID_2_)">
		<path fill="#825D36" d="M309.235,202.01C309.235,202.01,309.235,202.01,309.235,202.01c-9.103,0-17.799-6.306-21.642-15.69
			c-5.048-12.33-0.276-25.996,10.637-30.464c2.321-0.951,4.779-1.432,7.306-1.432c9.102,0,17.798,6.305,21.64,15.689
			c5.048,12.33,0.277,25.996-10.636,30.464C314.22,201.528,311.762,202.01,309.235,202.01z M305.537,162.04
			c-1.532,0-3.02,0.291-4.42,0.864c-7.026,2.877-9.931,12.086-6.474,20.529c2.684,6.555,8.548,10.959,14.592,10.959h0
			c1.532,0,3.019-0.291,4.419-0.864c7.026-2.877,9.93-12.086,6.473-20.529C317.444,166.444,311.581,162.04,305.537,162.04z"/>
	</g>
	<g clip-path="url(#SVGID_2_)">
		<path fill="#825D36" d="M252.253,201.692c0,0-0.001,0-0.001,0c-8.884,0-17.297-5.784-21.435-14.733
			c-2.665-5.764-3.223-12.111-1.57-17.872c1.71-5.963,5.562-10.592,10.844-13.034c2.547-1.178,5.278-1.774,8.116-1.774
			c8.884,0,17.297,5.783,21.435,14.732c5.591,12.094,1.431,25.958-9.273,30.906C257.821,201.095,255.091,201.692,252.253,201.692z
			 M248.207,161.895c-1.727,0-3.382,0.361-4.92,1.072c-3.242,1.498-5.627,4.417-6.718,8.22c-1.149,4.004-0.736,8.471,1.162,12.576
			c2.851,6.168,8.687,10.312,14.521,10.313c0,0,0.001,0,0.001,0c1.726,0,3.381-0.36,4.919-1.071
			c6.891-3.187,9.384-12.516,5.555-20.797C259.876,166.039,254.041,161.895,248.207,161.895z"/>
	</g>
	<g clip-path="url(#SVGID_2_)">
		<path fill="#825D36" d="M280.836,140.917l-1.721-3.954c-0.587-1.35-1.153-2.705-1.7-4.014
			c-3.926-9.399-7.986-19.119-23.446-34.578l-10.061-10.061L257.649,92c23.978,6.438,33.501,18.537,40.456,27.37
			c1.528,1.94,2.97,3.773,4.359,5.255l4.213,4.494l-5.903,1.76c-6.168,1.84-9.205,3.653-14.236,6.656
			c-0.633,0.378-1.294,0.772-1.992,1.186L280.836,140.917z M269.942,104.684c8.149,10.16,11.357,17.805,14.469,25.254
			c2.977-1.761,5.529-3.182,8.786-4.492c-0.355-0.448-0.714-0.903-1.076-1.363C287.198,117.829,281.383,110.443,269.942,104.684z"/>
	</g>
	<g clip-path="url(#SVGID_2_)">
		<path fill="#825D36" d="M217.292,147.927l-2.017-3.811c-0.688-1.302-1.355-2.609-2.001-3.873
			c-4.63-9.074-9.418-18.456-26.009-32.693l-10.797-9.267l13.982,2.634c24.397,4.595,34.815,15.933,42.421,24.211
			c1.671,1.818,3.249,3.536,4.747,4.908l4.543,4.16l-5.751,2.205c-6.011,2.304-8.9,4.342-13.688,7.72
			c-0.603,0.425-1.232,0.869-1.897,1.334L217.292,147.927z M203.673,112.628c8.899,9.51,12.678,16.889,16.348,24.08
			c2.834-1.982,5.271-3.594,8.418-5.148c-0.389-0.42-0.781-0.846-1.177-1.278C221.878,124.421,215.519,117.5,203.673,112.628z"/>
	</g>
	<g clip-path="url(#SVGID_2_)">
		<path fill="#825D36" d="M122.648,308.68l-4.493-4.212c-1.482-1.389-3.315-2.832-5.255-4.359
			c-8.834-6.954-20.932-16.479-27.37-40.456l-3.69-13.742l10.061,10.061c15.459,15.459,25.179,19.52,34.578,23.445
			c1.31,0.547,2.664,1.113,4.014,1.701l3.954,1.721l-2.196,3.71c-0.413,0.698-0.808,1.358-1.186,1.992
			c-3.003,5.031-4.816,8.067-6.656,14.236L122.648,308.68z M98.213,271.945c5.759,11.44,13.145,17.255,19.398,22.178
			c0.46,0.363,0.916,0.721,1.364,1.077c1.31-3.257,2.731-5.809,4.492-8.786C116.018,283.302,108.375,280.096,98.213,271.945z"/>
	</g>
	<g clip-path="url(#SVGID_2_)">
		<path fill="#825D36" d="M125.949,245.434l-4.16-4.542c-1.372-1.499-3.089-3.077-4.908-4.747
			c-8.278-7.606-19.616-18.024-24.211-42.421l-2.633-13.982l9.266,10.797c14.238,16.591,23.62,21.379,32.693,26.009
			c1.265,0.645,2.572,1.313,3.873,2.001l3.811,2.017l-2.472,3.533c-0.465,0.665-0.909,1.294-1.334,1.896
			c-3.377,4.787-5.416,7.677-7.72,13.688L125.949,245.434z M104.38,206.945c4.872,11.846,11.794,18.206,17.654,23.59
			c0.432,0.396,0.858,0.789,1.278,1.177c1.554-3.147,3.166-5.584,5.148-8.418C121.27,219.624,113.891,215.844,104.38,206.945z"/>
	</g>
	<g clip-path="url(#SVGID_2_)">
		<path fill="#825D36" d="M158.204,183.106l-3.569-3.262c-13.552-12.387-22.249-25.118-29.078-42.569l-3.172-8.106l8.106,3.172
			c17.097,6.69,29.795,15.458,42.462,29.316l3.263,3.57l-4.236,2.334c-5.8,3.196-7.641,4.424-11.441,11.312L158.204,183.106z
			 M136.45,143.25c5.128,10.634,11.428,19.382,19.936,27.76c2.407-3.599,4.631-5.662,7.699-7.646
			C155.575,154.69,146.864,148.332,136.45,143.25z"/>
	</g>
	<g clip-path="url(#SVGID_2_)">
		<path fill="#825D36" d="M235.5,471c-47.22,0-92.774-13.924-131.738-40.266c-2.323-1.571-2.933-4.727-1.362-7.05
			c1.57-2.324,4.727-2.934,7.05-1.363c37.278,25.203,80.866,38.524,126.05,38.524c124.255,0,225.344-101.089,225.344-225.344
			S359.755,10.156,235.5,10.156S10.156,111.245,10.156,235.5c0,60.626,23.731,117.505,66.822,160.158
			c1.993,1.973,2.009,5.188,0.036,7.181c-1.973,1.993-5.188,2.009-7.181,0.037c-21.882-21.66-39.069-46.941-51.084-75.143
			C6.308,298.534,0,267.502,0,235.5c0-31.79,6.228-62.632,18.509-91.669c11.862-28.044,28.841-53.229,50.468-74.854
			c21.626-21.626,46.811-38.606,74.854-50.468C172.868,6.228,203.71,0,235.5,0s62.632,6.228,91.669,18.509
			c28.044,11.862,53.229,28.841,74.855,50.468c21.626,21.626,38.606,46.811,50.467,74.854C464.773,172.868,471,203.71,471,235.5
			s-6.227,62.632-18.509,91.669c-11.861,28.044-28.841,53.229-50.467,74.854c-21.626,21.626-46.811,38.606-74.855,50.468
			C298.132,464.772,267.29,471,235.5,471z"/>
	</g>
	<g clip-path="url(#SVGID_2_)">
		<path fill="#825D36" d="M163.826,312.579c0,7.915,6.422,14.331,14.346,14.331c7.923,0,14.346-6.416,14.346-14.331
			s-6.423-14.331-14.346-14.331C170.248,298.248,163.826,304.664,163.826,312.579"/>
	</g>
	<g clip-path="url(#SVGID_2_)">
		<path fill="#825D36" d="M161.921,257.233c0,7.915,6.423,14.331,14.346,14.331s14.346-6.416,14.346-14.331
			s-6.423-14.331-14.346-14.331S161.921,249.319,161.921,257.233"/>
	</g>
	<g clip-path="url(#SVGID_2_)">
		<path fill="#825D36" d="M187.254,210.445c0,8.651,7.02,15.664,15.68,15.664s15.68-7.013,15.68-15.664s-7.02-15.664-15.68-15.664
			S187.254,201.794,187.254,210.445"/>
	</g>
	<g clip-path="url(#SVGID_2_)">
		<path fill="#825D36" d="M238.128,182.62c0,7.915,6.423,14.331,14.346,14.331s14.346-6.416,14.346-14.331
			s-6.423-14.331-14.346-14.331S238.128,174.705,238.128,182.62"/>
	</g>
	<g clip-path="url(#SVGID_2_)">
		<path fill="#825D36" d="M294.741,183.385c0,7.915,6.423,14.331,14.346,14.331s14.346-6.416,14.346-14.331
			s-6.423-14.331-14.346-14.331S294.741,175.47,294.741,183.385"/>
	</g>
</g>
</svg>
