<?xml version="1.0" encoding="utf-8"?>
<!-- Generator: Adobe Illustrator 16.0.0, SVG Export Plug-In . SVG Version: 6.00 Build 0)  -->
<!DOCTYPE svg PUBLIC "-//W3C//DTD SVG 1.1//EN" "http://www.w3.org/Graphics/SVG/1.1/DTD/svg11.dtd">
<svg version="1.1" id="Слой_1" xmlns="http://www.w3.org/2000/svg" xmlns:xlink="http://www.w3.org/1999/xlink" x="0px" y="0px"
	 width="164.992px" height="164.993px" viewBox="0 0 164.992 164.993" enable-background="new 0 0 164.992 164.993"
	 xml:space="preserve">
<linearGradient id="SVGID_1_" gradientUnits="userSpaceOnUse" x1="82.5161" y1="165.811" x2="82.5161" y2="0.8179" gradientTransform="matrix(1 0 0 -1 -0.02 165.8105)">
	<stop  offset="0" style="stop-color:#C7C6C4"/>
	<stop  offset="1" style="stop-color:#B5B4B5"/>
</linearGradient>
<circle fill="url(#SVGID_1_)" cx="82.496" cy="82.496" r="82.496"/>
<linearGradient id="SVGID_2_" gradientUnits="userSpaceOnUse" x1="97.1387" y1="165.811" x2="97.1387" y2="23.3804" gradientTransform="matrix(1 0 0 -1 -0.02 165.8105)">
	<stop  offset="0" style="stop-color:#FFFFFF"/>
	<stop  offset="0.1337" style="stop-color:#F9FBFA"/>
	<stop  offset="1" style="stop-color:#E6E7E7"/>
</linearGradient>
<path opacity="0.2" fill="url(#SVGID_2_)" enable-background="new    " d="M29.247,19.484C43.617,7.329,62.2,0,82.495,0
	c45.562,0,82.496,36.936,82.496,82.496c0,23.608-9.915,44.897-25.809,59.934"/>
<path fill="#6A6B6B" d="M118.473,60.095v-0.013H42.869c-3.926,0-7.109,3.184-7.109,7.109v41.014c0,3.926,3.184,7.109,7.109,7.109
	h75.604v-0.014c3.734-0.213,6.699-3.307,6.699-7.096V67.189C125.172,63.402,122.207,60.309,118.473,60.095z"/>
<linearGradient id="SVGID_3_" gradientUnits="userSpaceOnUse" x1="80.397" y1="107.5103" x2="80.397" y2="52.2769" gradientTransform="matrix(1 0 0 -1 -0.02 165.8105)">
	<stop  offset="0" style="stop-color:#FFFFFF"/>
	<stop  offset="1" style="stop-color:#D1D3D4"/>
</linearGradient>
<path fill="url(#SVGID_3_)" d="M118.384,58.314v-0.014H42.78c-3.926,0-7.109,3.184-7.109,7.109v41.014
	c0,3.928,3.184,7.109,7.109,7.109h75.604v-0.012c3.734-0.213,6.698-3.309,6.698-7.098V65.408
	C125.083,61.622,122.119,58.527,118.384,58.314z"/>
<g>
	<path fill="#0D0F0F" d="M62.013,89.258v5.117h-3.477V79.447h6.061c1.77,0,3.175,0.453,4.214,1.357
		c1.038,0.906,1.558,2.09,1.558,3.553c0,1.469-0.52,2.654-1.558,3.553c-1.039,0.898-2.444,1.348-4.214,1.348H62.013z M62.013,86.592
		h2.584c0.751,0,1.323-0.205,1.717-0.619c0.394-0.412,0.59-0.943,0.59-1.594c0-0.664-0.196-1.208-0.59-1.63
		c-0.394-0.425-0.966-0.636-1.717-0.636h-2.584V86.592z"/>
	<path fill="#0D0F0F" d="M75.268,91.709h6.429v2.666h-9.904V79.447h3.477L75.268,91.709L75.268,91.709z"/>
	<path fill="#0D0F0F" d="M90.768,91.475h-4.706l-0.841,2.9h-3.486l4.819-14.928h3.722l4.829,14.928h-3.486L90.768,91.475z
		 M86.83,88.809h3.168l-1.558-5.343h-0.062L86.83,88.809z"/>
	<path fill="#0D0F0F" d="M99.604,85.967h0.062l2.974-6.52h3.763l-5.075,9.678v5.25h-3.455v-5.424l-4.972-9.504h3.742L99.604,85.967z
		"/>
</g>
<g opacity="0.2">
	<circle fill="#A8D0DA" cx="82.722" cy="102.27" r="36.25"/>
	<path fill="#0D0F0F" d="M83.684,139.008c-0.271,0-0.493-0.217-0.5-0.488c-0.006-0.275,0.212-0.504,0.488-0.512
		c0.328-0.008,0.656-0.021,0.983-0.037c0.285-0.02,0.513,0.195,0.525,0.473c0.015,0.275-0.197,0.51-0.474,0.525
		c-0.337,0.018-0.675,0.031-1.014,0.039C83.691,139.008,83.688,139.008,83.684,139.008z M79.689,138.897
		c-0.014,0-0.028-0.002-0.042-0.002c-0.338-0.027-0.675-0.063-1.01-0.098c-0.274-0.031-0.473-0.279-0.441-0.555
		c0.031-0.273,0.284-0.471,0.553-0.439c0.325,0.037,0.652,0.066,0.98,0.096c0.275,0.021,0.479,0.264,0.457,0.539
		C80.165,138.698,79.946,138.897,79.689,138.897z M88.655,138.538c-0.24,0-0.452-0.174-0.492-0.418
		c-0.045-0.271,0.14-0.529,0.411-0.576c0.326-0.053,0.649-0.109,0.972-0.174c0.267-0.049,0.532,0.123,0.587,0.396
		c0.053,0.27-0.125,0.533-0.396,0.586c-0.331,0.063-0.664,0.123-0.998,0.18C88.711,138.536,88.683,138.538,88.655,138.538z
		 M74.753,138.143c-0.036,0-0.072-0.004-0.109-0.012c-0.331-0.076-0.66-0.154-0.986-0.236c-0.268-0.068-0.43-0.34-0.36-0.607
		c0.068-0.268,0.337-0.434,0.606-0.361c0.318,0.082,0.638,0.156,0.959,0.229c0.271,0.063,0.439,0.328,0.379,0.6
		C75.188,137.985,74.981,138.143,74.753,138.143z M93.517,137.387c-0.213,0-0.41-0.139-0.479-0.354
		c-0.082-0.262,0.065-0.543,0.329-0.625c0.314-0.098,0.627-0.201,0.938-0.307c0.261-0.088,0.546,0.051,0.636,0.311
		c0.089,0.264-0.051,0.547-0.312,0.637c-0.319,0.107-0.641,0.213-0.965,0.314C93.616,137.379,93.565,137.387,93.517,137.387z
		 M69.965,136.713c-0.06,0-0.118-0.012-0.178-0.033c-0.316-0.119-0.633-0.242-0.946-0.371c-0.255-0.104-0.378-0.396-0.272-0.652
		c0.104-0.256,0.395-0.377,0.652-0.271c0.304,0.123,0.61,0.244,0.921,0.359c0.258,0.1,0.389,0.387,0.291,0.646
		C70.356,136.59,70.166,136.713,69.965,136.713z M98.171,135.575c-0.188,0-0.366-0.105-0.452-0.287
		c-0.118-0.248-0.013-0.547,0.237-0.666c0.297-0.141,0.592-0.283,0.884-0.432c0.244-0.125,0.547-0.027,0.672,0.219
		c0.126,0.246,0.026,0.547-0.219,0.672c-0.301,0.154-0.604,0.303-0.908,0.445C98.314,135.559,98.242,135.575,98.171,135.575z
		 M65.418,134.633c-0.081,0-0.164-0.02-0.239-0.063c-0.297-0.162-0.592-0.328-0.884-0.496c-0.237-0.139-0.319-0.443-0.182-0.684
		c0.139-0.24,0.446-0.32,0.684-0.184c0.284,0.166,0.571,0.328,0.861,0.486c0.242,0.131,0.331,0.436,0.198,0.678
		C65.766,134.54,65.596,134.633,65.418,134.633z M102.526,133.139c-0.162,0-0.322-0.08-0.418-0.227
		c-0.151-0.23-0.087-0.541,0.145-0.691c0.274-0.182,0.548-0.363,0.816-0.553c0.228-0.154,0.537-0.1,0.696,0.127
		c0.157,0.229,0.101,0.539-0.126,0.695c-0.277,0.191-0.559,0.381-0.839,0.564C102.717,133.112,102.621,133.139,102.526,133.139z
		 M61.204,131.946c-0.104,0-0.208-0.031-0.297-0.098c-0.272-0.201-0.542-0.406-0.808-0.613c-0.218-0.17-0.256-0.484-0.085-0.703
		c0.17-0.219,0.483-0.254,0.701-0.084c0.259,0.201,0.521,0.4,0.784,0.596c0.224,0.164,0.271,0.479,0.105,0.699
		C61.509,131.875,61.357,131.946,61.204,131.946z M106.509,130.125c-0.141,0-0.278-0.059-0.377-0.172
		c-0.183-0.209-0.16-0.523,0.048-0.705c0.249-0.217,0.494-0.436,0.734-0.658c0.205-0.186,0.521-0.174,0.707,0.029
		c0.188,0.203,0.175,0.52-0.028,0.707c-0.249,0.229-0.5,0.453-0.755,0.676C106.741,130.084,106.625,130.125,106.509,130.125z
		 M57.399,128.709c-0.126,0-0.252-0.047-0.351-0.141c-0.24-0.236-0.479-0.477-0.715-0.719c-0.191-0.199-0.187-0.516,0.013-0.707
		c0.197-0.191,0.517-0.188,0.707,0.012c0.229,0.234,0.46,0.469,0.694,0.697c0.197,0.191,0.201,0.51,0.009,0.707
		C57.659,128.659,57.529,128.709,57.399,128.709z M110.042,126.596c-0.116,0-0.232-0.041-0.328-0.123
		c-0.208-0.184-0.229-0.498-0.049-0.707c0.218-0.248,0.431-0.498,0.64-0.752c0.176-0.213,0.49-0.242,0.704-0.066
		c0.213,0.176,0.243,0.49,0.066,0.703c-0.215,0.26-0.434,0.52-0.655,0.773C110.32,126.538,110.182,126.596,110.042,126.596z
		 M54.073,124.985c-0.148,0-0.296-0.066-0.395-0.193c-0.207-0.266-0.41-0.533-0.61-0.807c-0.163-0.223-0.115-0.535,0.106-0.699
		c0.222-0.162,0.534-0.117,0.699,0.107c0.194,0.264,0.393,0.525,0.593,0.785c0.171,0.219,0.131,0.531-0.088,0.701
		C54.289,124.95,54.181,124.985,54.073,124.985z M113.062,122.614c-0.095,0-0.19-0.025-0.274-0.082
		c-0.23-0.15-0.295-0.461-0.144-0.691c0.181-0.275,0.356-0.553,0.529-0.832c0.146-0.236,0.456-0.309,0.688-0.164
		c0.235,0.145,0.31,0.453,0.164,0.688c-0.178,0.289-0.358,0.574-0.545,0.857C113.384,122.536,113.224,122.614,113.062,122.614z
		 M51.288,120.84c-0.173,0-0.341-0.092-0.434-0.252c-0.168-0.291-0.332-0.586-0.493-0.883c-0.131-0.244-0.04-0.547,0.203-0.678
		c0.239-0.129,0.546-0.041,0.678,0.203c0.155,0.289,0.315,0.572,0.479,0.857c0.138,0.238,0.056,0.545-0.185,0.684
		C51.459,120.819,51.373,120.84,51.288,120.84z M115.507,118.256c-0.072,0-0.146-0.016-0.214-0.047
		c-0.249-0.119-0.356-0.416-0.238-0.666c0.141-0.299,0.276-0.598,0.41-0.898c0.111-0.254,0.407-0.365,0.658-0.258
		c0.254,0.111,0.368,0.406,0.258,0.658c-0.138,0.313-0.277,0.619-0.423,0.926C115.873,118.153,115.693,118.256,115.507,118.256z
		 M49.102,116.354c-0.197,0-0.386-0.117-0.464-0.313c-0.128-0.313-0.25-0.629-0.366-0.945c-0.097-0.26,0.037-0.547,0.296-0.643
		c0.256-0.098,0.547,0.037,0.642,0.297c0.114,0.309,0.233,0.613,0.356,0.916c0.104,0.256-0.021,0.547-0.276,0.652
		C49.228,116.342,49.164,116.354,49.102,116.354z M117.325,113.6c-0.05,0-0.1-0.008-0.148-0.021
		c-0.265-0.084-0.41-0.365-0.328-0.627c0.099-0.314,0.191-0.629,0.281-0.945c0.074-0.266,0.354-0.422,0.616-0.346
		c0.267,0.076,0.422,0.352,0.347,0.617c-0.093,0.326-0.188,0.65-0.289,0.973C117.735,113.463,117.538,113.6,117.325,113.6z
		 M47.556,111.604c-0.226,0-0.429-0.15-0.485-0.377c-0.082-0.328-0.159-0.656-0.232-0.986c-0.06-0.271,0.11-0.537,0.38-0.598
		c0.281-0.059,0.537,0.111,0.598,0.381c0.071,0.32,0.146,0.641,0.227,0.959c0.067,0.268-0.096,0.539-0.362,0.605
		C47.637,111.6,47.596,111.604,47.556,111.604z M118.482,108.743c-0.027,0-0.056-0.002-0.083-0.008
		c-0.272-0.045-0.456-0.303-0.411-0.574c0.054-0.324,0.104-0.65,0.148-0.977c0.037-0.273,0.299-0.459,0.563-0.428
		c0.273,0.039,0.465,0.291,0.427,0.564c-0.046,0.336-0.097,0.668-0.151,1.002C118.934,108.569,118.722,108.743,118.482,108.743z
		 M46.679,106.686c-0.253,0-0.47-0.189-0.496-0.447c-0.036-0.334-0.067-0.67-0.095-1.008c-0.021-0.275,0.185-0.518,0.459-0.537
		c0.251-0.02,0.517,0.182,0.537,0.459c0.026,0.328,0.059,0.654,0.092,0.98c0.029,0.273-0.17,0.521-0.443,0.551
		C46.714,106.686,46.695,106.686,46.679,106.686z M118.957,103.772c-0.004,0-0.009,0-0.014,0c-0.275-0.01-0.493-0.238-0.486-0.516
		c0.01-0.328,0.015-0.656,0.015-0.984c0-0.277,0.224-0.5,0.5-0.5c0.275,0,0.5,0.223,0.5,0.5c0,0.338-0.005,0.676-0.015,1.014
		C119.449,103.557,119.228,103.772,118.957,103.772z M46.486,101.696c-0.005,0-0.01,0-0.015,0c-0.276-0.008-0.493-0.238-0.485-0.516
		c0.01-0.34,0.024-0.676,0.044-1.014c0.016-0.273,0.229-0.488,0.527-0.471c0.274,0.016,0.485,0.252,0.471,0.527
		c-0.02,0.326-0.032,0.656-0.042,0.984C46.979,101.483,46.756,101.696,46.486,101.696z M118.925,100.922
		c-0.267,0-0.486-0.207-0.499-0.475c-0.018-0.33-0.038-0.658-0.063-0.984c-0.021-0.275,0.187-0.516,0.461-0.537
		c0.243-0.045,0.517,0.186,0.536,0.461c0.026,0.334,0.048,0.674,0.064,1.012c0.014,0.275-0.198,0.51-0.476,0.523
		C118.94,100.922,118.932,100.922,118.925,100.922z M46.974,96.725c-0.028,0-0.057-0.002-0.084-0.008
		c-0.272-0.045-0.456-0.305-0.41-0.574c0.057-0.334,0.117-0.668,0.183-0.998c0.054-0.271,0.321-0.451,0.587-0.395
		c0.271,0.055,0.447,0.316,0.395,0.588c-0.063,0.322-0.122,0.646-0.178,0.971C47.425,96.551,47.213,96.725,46.974,96.725z
		 M118.331,95.963c-0.234,0-0.443-0.166-0.489-0.404c-0.063-0.324-0.127-0.646-0.197-0.967c-0.061-0.271,0.111-0.537,0.381-0.596
		c0.272-0.059,0.537,0.111,0.596,0.381c0.072,0.33,0.141,0.66,0.203,0.992c0.053,0.271-0.126,0.533-0.396,0.586
		C118.394,95.961,118.362,95.963,118.331,95.963z M48.14,91.866c-0.051,0-0.102-0.008-0.15-0.023
		c-0.264-0.082-0.409-0.361-0.326-0.627c0.103-0.322,0.208-0.645,0.318-0.965c0.092-0.26,0.377-0.396,0.637-0.309
		c0.261,0.09,0.398,0.375,0.309,0.637c-0.107,0.311-0.211,0.623-0.311,0.938C48.55,91.731,48.353,91.866,48.14,91.866z
		 M117.063,91.133c-0.208,0-0.402-0.131-0.474-0.338c-0.105-0.313-0.217-0.623-0.329-0.932c-0.097-0.258,0.037-0.547,0.296-0.641
		c0.256-0.1,0.546,0.035,0.642,0.295c0.117,0.316,0.229,0.635,0.339,0.955c0.089,0.262-0.051,0.545-0.312,0.635
		C117.171,91.125,117.116,91.133,117.063,91.133z M49.969,87.213c-0.071,0-0.146-0.016-0.215-0.049
		c-0.249-0.117-0.354-0.416-0.235-0.666c0.146-0.305,0.295-0.607,0.447-0.91c0.125-0.246,0.429-0.344,0.674-0.219
		c0.244,0.125,0.344,0.428,0.218,0.674c-0.149,0.291-0.295,0.588-0.438,0.885C50.335,87.11,50.155,87.213,49.969,87.213z
		 M115.137,86.526c-0.184,0-0.358-0.102-0.446-0.275c-0.147-0.293-0.299-0.584-0.454-0.873c-0.131-0.242-0.039-0.545,0.204-0.676
		c0.242-0.131,0.546-0.041,0.677,0.203c0.159,0.297,0.314,0.596,0.466,0.896c0.124,0.246,0.025,0.547-0.222,0.672
		C115.288,86.508,115.213,86.526,115.137,86.526z M52.424,82.859c-0.095,0-0.189-0.026-0.274-0.082
		c-0.23-0.152-0.294-0.463-0.144-0.692c0.188-0.283,0.377-0.562,0.57-0.84c0.159-0.228,0.472-0.28,0.696-0.123
		c0.227,0.157,0.282,0.47,0.124,0.696c-0.189,0.27-0.374,0.541-0.556,0.816C52.745,82.781,52.586,82.859,52.424,82.859z
		 M112.596,82.23c-0.158,0-0.314-0.076-0.411-0.217c-0.188-0.271-0.377-0.539-0.57-0.804c-0.163-0.224-0.114-0.536,0.108-0.699
		c0.222-0.163,0.535-0.116,0.698,0.109c0.198,0.272,0.395,0.547,0.586,0.825c0.156,0.228,0.101,0.539-0.127,0.695
		C112.792,82.201,112.693,82.23,112.596,82.23z M55.451,78.886c-0.117,0-0.234-0.041-0.33-0.124
		c-0.207-0.182-0.228-0.498-0.046-0.705c0.223-0.255,0.449-0.505,0.678-0.753c0.188-0.202,0.504-0.215,0.706-0.028
		c0.203,0.188,0.216,0.502,0.028,0.707c-0.223,0.242-0.443,0.485-0.66,0.732C55.729,78.828,55.59,78.886,55.451,78.886z
		 M109.486,78.322c-0.136,0-0.271-0.055-0.369-0.164c-0.222-0.242-0.446-0.481-0.675-0.717c-0.192-0.199-0.187-0.516,0.012-0.707
		c0.2-0.192,0.518-0.186,0.707,0.013c0.235,0.243,0.468,0.489,0.694,0.739c0.188,0.203,0.172,0.52-0.032,0.705
		C109.728,78.279,109.606,78.322,109.486,78.322z M58.994,75.363c-0.14,0-0.279-0.059-0.378-0.172
		c-0.181-0.209-0.158-0.524,0.051-0.705c0.255-0.221,0.515-0.439,0.773-0.652c0.212-0.176,0.526-0.145,0.704,0.068
		c0.175,0.213,0.144,0.529-0.069,0.705c-0.254,0.207-0.505,0.42-0.754,0.635C59.227,75.324,59.11,75.363,58.994,75.363z
		 M105.872,74.875c-0.112,0-0.227-0.038-0.319-0.116c-0.252-0.21-0.508-0.417-0.768-0.618c-0.217-0.171-0.255-0.486-0.085-0.703
		c0.17-0.218,0.483-0.254,0.702-0.084c0.268,0.209,0.53,0.422,0.79,0.639c0.212,0.177,0.24,0.492,0.063,0.703
		C106.157,74.814,106.015,74.875,105.872,74.875z M62.982,72.359c-0.163,0-0.323-0.08-0.419-0.227
		c-0.15-0.23-0.085-0.542,0.146-0.691c0.282-0.185,0.567-0.364,0.855-0.541c0.232-0.143,0.542-0.071,0.688,0.166
		c0.145,0.234,0.069,0.543-0.166,0.688c-0.279,0.171-0.558,0.346-0.832,0.525C63.171,72.334,63.076,72.359,62.982,72.359z
		 M101.817,71.953c-0.091,0-0.182-0.024-0.264-0.075c-0.279-0.173-0.563-0.345-0.847-0.511c-0.238-0.139-0.318-0.445-0.18-0.684
		c0.139-0.24,0.446-0.318,0.685-0.179c0.292,0.171,0.581,0.345,0.868,0.522c0.234,0.146,0.308,0.455,0.161,0.688
		C102.147,71.869,101.984,71.953,101.817,71.953z M67.346,69.934c-0.188,0-0.367-0.105-0.453-0.287
		c-0.117-0.25-0.01-0.549,0.24-0.666c0.306-0.143,0.611-0.281,0.921-0.416c0.254-0.109,0.548,0.004,0.657,0.258
		c0.11,0.254-0.005,0.549-0.258,0.658c-0.301,0.131-0.6,0.267-0.896,0.405C67.488,69.919,67.416,69.934,67.346,69.934z
		 M97.401,69.615c-0.068,0-0.138-0.014-0.203-0.043c-0.301-0.133-0.604-0.262-0.908-0.387c-0.256-0.104-0.378-0.396-0.272-0.652
		c0.104-0.256,0.399-0.377,0.652-0.272c0.313,0.128,0.627,0.263,0.936,0.399c0.253,0.113,0.366,0.408,0.254,0.66
		C97.775,69.506,97.594,69.615,97.401,69.615z M71.999,68.132c-0.214,0-0.41-0.138-0.478-0.353c-0.082-0.264,0.066-0.543,0.33-0.625
		c0.321-0.1,0.646-0.194,0.973-0.285c0.261-0.078,0.541,0.082,0.615,0.347c0.074,0.267-0.081,0.542-0.347,0.616
		c-0.318,0.089-0.634,0.182-0.946,0.277C72.098,68.125,72.049,68.132,71.999,68.132z M92.703,67.912
		c-0.045,0-0.092-0.006-0.138-0.02c-0.316-0.091-0.634-0.176-0.952-0.258c-0.268-0.068-0.429-0.341-0.359-0.609
		c0.067-0.267,0.345-0.428,0.607-0.359c0.328,0.084,0.653,0.172,0.979,0.266c0.266,0.075,0.419,0.352,0.343,0.617
		C93.121,67.77,92.922,67.912,92.703,67.912z M76.861,66.99c-0.24,0-0.453-0.174-0.492-0.42c-0.045-0.271,0.142-0.528,0.413-0.573
		c0.332-0.054,0.667-0.104,1.002-0.149c0.277-0.035,0.526,0.155,0.563,0.428c0.037,0.274-0.154,0.526-0.429,0.563
		c-0.326,0.044-0.651,0.093-0.977,0.146C76.915,66.988,76.889,66.99,76.861,66.99z M87.817,66.876c-0.022,0-0.047-0.001-0.07-0.005
		c-0.324-0.047-0.65-0.088-0.979-0.125c-0.274-0.031-0.472-0.278-0.44-0.553c0.031-0.275,0.282-0.467,0.555-0.441
		c0.336,0.039,0.672,0.081,1.005,0.128c0.272,0.039,0.464,0.292,0.426,0.565C88.276,66.695,88.063,66.876,87.817,66.876z
		 M81.834,66.531c-0.271,0-0.492-0.217-0.5-0.488c-0.006-0.275,0.213-0.505,0.488-0.512c0.299-0.008,0.599-0.01,0.897-0.012h0.114
		c0.275,0,0.5,0.225,0.5,0.5c0,0.276-0.225,0.5-0.5,0.5h-0.113c-0.291,0-0.584,0.004-0.875,0.012
		C81.843,66.531,81.839,66.531,81.834,66.531z"/>
</g>
<g opacity="0.4">
	<circle fill="#FFFFFF" cx="83.418" cy="102.967" r="24.399"/>
	<path fill="#0D0F0F" d="M81.762,127.813c-0.013,0-0.023,0-0.034-0.002c-0.342-0.023-0.681-0.053-1.017-0.09
		c-0.274-0.029-0.474-0.277-0.442-0.553c0.031-0.273,0.282-0.477,0.552-0.441c0.322,0.035,0.647,0.064,0.975,0.086
		c0.274,0.02,0.483,0.258,0.466,0.533C82.242,127.61,82.022,127.813,81.762,127.813z M85.754,127.756
		c-0.255,0-0.473-0.193-0.497-0.451c-0.026-0.275,0.175-0.52,0.449-0.547c0.326-0.031,0.65-0.068,0.975-0.111
		c0.267-0.041,0.523,0.152,0.562,0.428c0.038,0.273-0.153,0.525-0.428,0.563c-0.335,0.045-0.673,0.084-1.013,0.117
		C85.786,127.756,85.77,127.756,85.754,127.756z M76.844,126.971c-0.044,0-0.09-0.006-0.136-0.02
		c-0.327-0.092-0.652-0.189-0.977-0.295c-0.263-0.086-0.406-0.367-0.321-0.631c0.085-0.262,0.364-0.406,0.63-0.32
		c0.311,0.102,0.623,0.195,0.938,0.283c0.266,0.074,0.421,0.352,0.347,0.615C77.263,126.825,77.062,126.971,76.844,126.971z
		 M90.647,126.778c-0.214,0-0.411-0.139-0.478-0.352c-0.082-0.266,0.064-0.545,0.328-0.627c0.313-0.098,0.622-0.199,0.931-0.309
		c0.257-0.098,0.546,0.043,0.638,0.303c0.093,0.262-0.043,0.547-0.304,0.639c-0.319,0.115-0.644,0.223-0.967,0.322
		C90.746,126.772,90.696,126.778,90.647,126.778z M72.199,125.141c-0.078,0-0.157-0.02-0.229-0.059
		c-0.304-0.156-0.603-0.318-0.896-0.486c-0.239-0.139-0.323-0.443-0.187-0.684c0.139-0.24,0.444-0.32,0.683-0.188
		c0.283,0.162,0.57,0.318,0.861,0.471c0.245,0.127,0.341,0.43,0.213,0.674C72.554,125.042,72.381,125.141,72.199,125.141z
		 M95.234,124.819c-0.175,0-0.346-0.092-0.437-0.256c-0.136-0.242-0.049-0.547,0.192-0.68c0.285-0.16,0.567-0.324,0.848-0.492
		c0.232-0.146,0.543-0.07,0.687,0.166s0.069,0.543-0.167,0.688c-0.289,0.178-0.583,0.348-0.88,0.512
		C95.4,124.799,95.317,124.819,95.234,124.819z M68.026,122.401c-0.111,0-0.223-0.037-0.315-0.113
		c-0.265-0.215-0.522-0.436-0.777-0.66c-0.207-0.182-0.228-0.498-0.044-0.705s0.497-0.227,0.705-0.045
		c0.245,0.219,0.494,0.43,0.747,0.637c0.216,0.174,0.247,0.488,0.072,0.703C68.315,122.338,68.171,122.401,68.026,122.401z
		 M99.326,121.969c-0.141,0-0.279-0.061-0.379-0.176c-0.18-0.209-0.156-0.523,0.053-0.703c0.248-0.215,0.49-0.434,0.729-0.654
		c0.203-0.189,0.518-0.18,0.707,0.021c0.188,0.203,0.178,0.52-0.023,0.707c-0.248,0.232-0.502,0.459-0.76,0.684
		C99.558,121.928,99.442,121.969,99.326,121.969z M64.496,118.872c-0.145,0-0.289-0.061-0.388-0.184
		c-0.214-0.264-0.423-0.531-0.627-0.805c-0.166-0.221-0.122-0.533,0.1-0.697c0.22-0.168,0.534-0.123,0.699,0.1
		c0.196,0.26,0.396,0.518,0.604,0.771c0.176,0.213,0.144,0.527-0.071,0.701C64.719,118.834,64.607,118.872,64.496,118.872z
		 M102.758,118.346c-0.107,0-0.215-0.033-0.307-0.104c-0.219-0.17-0.259-0.484-0.09-0.701c0.2-0.258,0.395-0.521,0.582-0.787
		c0.159-0.229,0.476-0.279,0.696-0.121c0.226,0.16,0.279,0.473,0.12,0.697c-0.196,0.277-0.399,0.553-0.607,0.822
		C103.054,118.28,102.906,118.346,102.758,118.346z M61.755,114.704c-0.181,0-0.354-0.098-0.442-0.27
		c-0.157-0.303-0.309-0.605-0.451-0.914c-0.117-0.25-0.009-0.549,0.242-0.664c0.251-0.117,0.547-0.01,0.664,0.242
		c0.138,0.295,0.281,0.586,0.432,0.875c0.128,0.244,0.032,0.547-0.213,0.674C61.912,114.686,61.833,114.704,61.755,114.704z
		 M105.386,114.1c-0.073,0-0.148-0.016-0.22-0.051c-0.247-0.121-0.352-0.42-0.23-0.668c0.143-0.293,0.279-0.592,0.411-0.893
		c0.11-0.252,0.406-0.367,0.658-0.258c0.253,0.109,0.367,0.404,0.258,0.658c-0.136,0.313-0.278,0.621-0.427,0.93
		C105.748,113.997,105.57,114.1,105.386,114.1z M59.922,110.065c-0.219,0-0.42-0.145-0.48-0.365
		c-0.092-0.326-0.177-0.656-0.255-0.988c-0.063-0.27,0.104-0.537,0.373-0.602c0.271-0.063,0.538,0.105,0.602,0.373
		c0.074,0.318,0.155,0.635,0.243,0.947c0.074,0.266-0.08,0.541-0.347,0.615C60.012,110.059,59.966,110.065,59.922,110.065z
		 M107.09,109.407c-0.04,0-0.081-0.006-0.122-0.016c-0.269-0.066-0.432-0.34-0.363-0.607c0.08-0.314,0.152-0.633,0.219-0.953
		c0.057-0.27,0.324-0.449,0.59-0.389c0.271,0.057,0.445,0.318,0.39,0.59c-0.068,0.336-0.146,0.668-0.228,0.996
		C107.517,109.254,107.313,109.407,107.09,109.407z M59.076,105.149c-0.261,0-0.479-0.201-0.498-0.465
		c-0.021-0.34-0.039-0.678-0.049-1.02c-0.008-0.277,0.209-0.508,0.485-0.516c0.264,0.01,0.507,0.209,0.515,0.484
		c0.01,0.328,0.024,0.656,0.047,0.98c0.02,0.273-0.188,0.514-0.465,0.533C59.1,105.149,59.088,105.149,59.076,105.149z
		 M107.798,104.467c-0.008,0-0.015,0-0.021,0c-0.276-0.012-0.49-0.244-0.479-0.521c0.014-0.324,0.021-0.65,0.021-0.979
		c0-0.275,0.224-0.5,0.5-0.5s0.5,0.225,0.5,0.5c0,0.342-0.007,0.682-0.021,1.02C108.285,104.256,108.063,104.467,107.798,104.467z
		 M107.704,101.106c-0.254,0-0.472-0.193-0.497-0.451c-0.03-0.326-0.068-0.65-0.112-0.973c-0.038-0.273,0.153-0.525,0.428-0.563
		c0.268-0.051,0.524,0.152,0.562,0.428c0.047,0.334,0.087,0.672,0.119,1.012c0.026,0.273-0.175,0.52-0.449,0.547
		C107.737,101.106,107.721,101.106,107.704,101.106z M59.243,100.161c-0.021,0-0.045-0.002-0.068-0.006
		c-0.272-0.037-0.465-0.289-0.428-0.563c0.046-0.336,0.1-0.672,0.157-1.008c0.047-0.27,0.312-0.461,0.579-0.404
		c0.271,0.049,0.453,0.307,0.405,0.578c-0.058,0.322-0.107,0.645-0.151,0.971C59.704,99.979,59.489,100.161,59.243,100.161z
		 M106.722,96.215c-0.213,0-0.41-0.137-0.479-0.352c-0.098-0.313-0.2-0.623-0.31-0.93c-0.093-0.262,0.043-0.547,0.304-0.639
		c0.255-0.098,0.546,0.043,0.638,0.305c0.114,0.318,0.223,0.641,0.323,0.965c0.082,0.264-0.063,0.545-0.328,0.627
		C106.821,96.208,106.771,96.215,106.722,96.215z M60.416,95.311c-0.056,0-0.111-0.01-0.168-0.029
		c-0.26-0.092-0.396-0.377-0.303-0.639c0.114-0.32,0.234-0.641,0.361-0.955c0.103-0.256,0.396-0.381,0.648-0.277
		c0.257,0.102,0.381,0.393,0.278,0.648c-0.121,0.305-0.237,0.609-0.349,0.92C60.814,95.184,60.621,95.311,60.416,95.311z
		 M104.76,91.631c-0.177,0-0.347-0.094-0.438-0.258c-0.158-0.285-0.323-0.566-0.492-0.844c-0.144-0.236-0.068-0.545,0.166-0.689
		c0.236-0.145,0.544-0.068,0.688,0.166c0.177,0.289,0.348,0.582,0.514,0.881c0.134,0.242,0.047,0.547-0.193,0.682
		C104.926,91.612,104.843,91.631,104.76,91.631z M62.561,90.801c-0.089,0-0.18-0.021-0.262-0.072
		c-0.234-0.145-0.31-0.451-0.166-0.688c0.178-0.291,0.36-0.576,0.548-0.859c0.153-0.229,0.465-0.293,0.692-0.141
		c0.229,0.152,0.293,0.463,0.142,0.693c-0.182,0.27-0.356,0.547-0.527,0.828C62.894,90.717,62.729,90.801,62.561,90.801z
		 M101.902,87.54c-0.14,0-0.279-0.059-0.378-0.172c-0.214-0.248-0.432-0.49-0.655-0.73c-0.188-0.201-0.178-0.518,0.023-0.705
		c0.202-0.189,0.519-0.18,0.707,0.021c0.23,0.248,0.459,0.502,0.681,0.758c0.182,0.209,0.158,0.525-0.051,0.705
		C102.136,87.5,102.019,87.54,101.902,87.54z M65.577,86.825c-0.122,0-0.244-0.045-0.341-0.135
		c-0.202-0.188-0.213-0.504-0.025-0.707c0.232-0.248,0.471-0.492,0.712-0.732c0.196-0.193,0.514-0.191,0.707,0.004
		c0.194,0.197,0.192,0.516-0.004,0.707c-0.231,0.23-0.46,0.465-0.683,0.703C65.846,86.772,65.711,86.825,65.577,86.825z
		 M98.276,84.112c-0.105,0-0.214-0.033-0.305-0.104c-0.259-0.2-0.522-0.393-0.789-0.583c-0.227-0.158-0.279-0.471-0.12-0.697
		c0.159-0.226,0.475-0.277,0.696-0.119c0.277,0.195,0.552,0.396,0.821,0.604c0.22,0.168,0.261,0.481,0.093,0.701
		C98.574,84.045,98.427,84.112,98.276,84.112z M69.335,83.541c-0.155,0-0.311-0.073-0.407-0.211
		c-0.159-0.225-0.106-0.538,0.118-0.697c0.277-0.197,0.56-0.388,0.846-0.572c0.229-0.148,0.541-0.086,0.69,0.147
		c0.149,0.231,0.083,0.542-0.147,0.69c-0.274,0.178-0.544,0.36-0.811,0.549C69.536,83.511,69.436,83.541,69.335,83.541z
		 M94.029,81.49c-0.073,0-0.146-0.016-0.218-0.049c-0.295-0.144-0.592-0.279-0.893-0.41c-0.254-0.11-0.369-0.405-0.261-0.658
		c0.11-0.254,0.407-0.371,0.658-0.26c0.313,0.137,0.623,0.279,0.93,0.427c0.249,0.12,0.354,0.419,0.232,0.668
		C94.394,81.387,94.216,81.49,94.029,81.49z M73.679,81.09c-0.192,0-0.376-0.111-0.458-0.3c-0.11-0.253,0.005-0.548,0.258-0.658
		c0.311-0.135,0.624-0.265,0.941-0.387c0.256-0.099,0.548,0.026,0.646,0.284c0.101,0.258-0.027,0.548-0.285,0.647
		c-0.304,0.118-0.604,0.242-0.901,0.372C73.813,81.076,73.746,81.09,73.679,81.09z M89.334,79.791c-0.039,0-0.079-0.005-0.12-0.016
		c-0.316-0.078-0.636-0.15-0.955-0.217c-0.271-0.056-0.445-0.32-0.39-0.591s0.323-0.44,0.59-0.389
		c0.335,0.069,0.666,0.144,0.996,0.226c0.269,0.067,0.432,0.338,0.364,0.605C89.763,79.639,89.559,79.791,89.334,79.791z
		 M78.43,79.579c-0.231,0-0.439-0.163-0.488-0.397c-0.057-0.271,0.117-0.535,0.388-0.592c0.332-0.068,0.666-0.131,1.002-0.188
		c0.276-0.047,0.53,0.14,0.575,0.412s-0.139,0.53-0.411,0.576c-0.323,0.053-0.645,0.112-0.963,0.18
		C78.498,79.574,78.465,79.579,78.43,79.579z M84.394,79.088c-0.006,0-0.013,0-0.021,0c-0.315-0.012-0.636-0.02-0.955-0.02
		c-0.276,0-0.513-0.224-0.513-0.5c0-0.275,0.212-0.5,0.488-0.5v0.5l0.004-0.5c0.353-0.002,0.685,0.006,1.015,0.02
		c0.276,0.012,0.491,0.243,0.48,0.52C84.884,78.877,84.661,79.088,84.394,79.088z"/>
</g>
<g>
	<g>
		<g>
			<path fill="#E5D0A8" d="M154.815,164.547"/>
		</g>
		<g>
			<path fill="#F4D4B9" d="M104.805,161.938l-1.706-11.111c-6.76-7.83-12.362-5.844-15.846-3.471
				c-1.423,0.969-1.523,1.119-0.623,2.299l10.508,13.949"/>
			<path fill="#F4D4B9" d="M105.138,161.938l-27.794-56.012c-4.642-9.154,7.885-13.494,11.496-5.867l15.254,30.975
				c0.876-5.732,9.517-6.943,12.865-1.697c0.092-5.998,8.131-7.807,12.094-3.643c0.993-5.516,9.677-6.383,12.475-0.67l4.777,9.828"
				/>
			<path fill="#D7AC90" d="M133.929,134.67c0,0-2.439-5.242-4.627-9.889c-0.107,0.289-0.191,0.594-0.249,0.914
				c-0.349-0.367-0.729-0.686-1.131-0.961C130.601,129.241,133.929,134.67,133.929,134.67L133.929,134.67z M104.123,130.872
				c0.093-0.508,0.246-0.979,0.452-1.412c2.435,5.217,6.393,14.225,6.393,14.225s-4.945-8.826-6.872-12.65
				C104.124,131.094,104.132,131.024,104.123,130.872L104.123,130.872z M115.215,127.463c0.666,0.494,1.261,1.115,1.744,1.875
				c0.007-0.398,0.049-0.779,0.121-1.141c2.467,5.121,5.494,11.477,5.494,11.477S117.956,132.184,115.215,127.463z"/>
		</g>
	</g>
	<polygon fill="#D7AC90" points="97.314,146.157 105.138,161.938 95.019,145.395 	"/>
	<path fill="#FCF1E9" d="M87.906,100.084l1.371,2.813c-2.091,4.166-5.496,5.666-10.001,4.934l-1.361-2.662
		C74.229,97.915,85.054,94.034,87.906,100.084z"/>
	<path fill="#FCF1E9" d="M86.354,149.368l5.261,6.869c1.299-2.328-1.855-6.102-4.394-8.859
		C86.228,148.059,85.691,148.5,86.354,149.368z"/>
</g>
<path fill="#F4D4B9" d="M106.222,161.02c11.917-12,25.833-22.332,40.083-26.166c-8,9.416-24.167,24.5-49.167,28.75"/>
<path fill="none" stroke="#F4D4B9" stroke-miterlimit="10" d="M97.138,163.604"/>
<path fill="none" stroke="#F4D4B9" stroke-miterlimit="10" d="M106.222,161.02"/>
</svg>
