<?xml version="1.0" encoding="utf-8"?>
<!-- Generator: Adobe Illustrator 16.0.0, SVG Export Plug-In . SVG Version: 6.00 Build 0)  -->
<!DOCTYPE svg PUBLIC "-//W3C//DTD SVG 1.1//EN" "http://www.w3.org/Graphics/SVG/1.1/DTD/svg11.dtd">
<svg version="1.1" id="Слой_1" xmlns="http://www.w3.org/2000/svg" xmlns:xlink="http://www.w3.org/1999/xlink" x="0px" y="0px"
	 width="131.667px" height="133.229px" viewBox="0 0 131.667 133.229" enable-background="new 0 0 131.667 133.229"
	 xml:space="preserve">
<g>
	<defs>
		<rect id="SVGID_1_" width="131.667" height="133.229"/>
	</defs>
	<clipPath id="SVGID_2_">
		<use xlink:href="#SVGID_1_"  overflow="visible"/>
	</clipPath>
	<path clip-path="url(#SVGID_2_)" fill="#595A5A" d="M31.601,40.253V14.27h64.872v25.72c2.087,0.01,4.174,0.023,6.262,0.041V8.998
		c0-4.952-4.051-8.998-8.999-8.998H34.337C29.39,0,25.34,4.046,25.34,8.998v31.275C27.427,40.268,29.514,40.262,31.601,40.253
		 M54.536,6.486h19.001c0.603,0,1.09,0.487,1.09,1.092c0,0.602-0.487,1.089-1.09,1.089H54.536c-0.601,0-1.089-0.487-1.089-1.089
		C53.447,6.973,53.935,6.486,54.536,6.486"/>
	<path clip-path="url(#SVGID_2_)" fill="#595A5A" d="M96.473,91.569v25.007H31.601V91.569H25.34v32.658
		c0,4.951,4.05,9.002,8.998,9.002h59.397c4.948,0,8.998-4.042,8.998-8.998V91.569H96.473z M64.037,128.73
		c-2.486,0-4.499-2.015-4.499-4.503c0-2.49,2.013-4.499,4.499-4.499s4.5,2.009,4.5,4.499
		C68.536,126.715,66.522,128.73,64.037,128.73"/>
	<path clip-path="url(#SVGID_2_)" fill="#595A5A" d="M31.61,40.488c0,1.733-1.405,3.138-3.138,3.138
		c-1.734,0-3.139-1.405-3.139-3.138c0-1.733,1.405-3.138,3.139-3.138C30.205,37.351,31.61,38.755,31.61,40.488"/>
	<path clip-path="url(#SVGID_2_)" fill="#595A5A" d="M102.716,39.995c0,1.725-1.397,3.123-3.123,3.123
		c-1.725,0-3.124-1.398-3.124-3.123c0-1.725,1.399-3.123,3.124-3.123C101.318,36.872,102.716,38.271,102.716,39.995"/>
	<path clip-path="url(#SVGID_2_)" fill="#595A5A" d="M102.716,91.704c0,1.725-1.397,3.123-3.123,3.123
		c-1.725,0-3.124-1.398-3.124-3.123c0-1.726,1.399-3.123,3.124-3.123C101.318,88.581,102.716,89.978,102.716,91.704"/>
	<path clip-path="url(#SVGID_2_)" fill="#595A5A" d="M31.61,91.659c0,1.733-1.405,3.138-3.138,3.138
		c-1.734,0-3.139-1.404-3.139-3.138s1.405-3.138,3.139-3.138C30.205,88.521,31.61,89.925,31.61,91.659"/>
	
		<line clip-path="url(#SVGID_2_)" fill="none" stroke="#845E37" stroke-width="8" stroke-linecap="round" stroke-miterlimit="10" x1="4" y1="89.124" x2="37" y2="64.124"/>
	
		<circle clip-path="url(#SVGID_2_)" fill="none" stroke="#845E37" stroke-width="8" stroke-linecap="round" stroke-miterlimit="10" cx="84.167" cy="66.624" r="7.5"/>
	
		<line clip-path="url(#SVGID_2_)" fill="none" stroke="#845E37" stroke-width="8" stroke-linecap="round" stroke-miterlimit="10" x1="74.667" y1="65.124" x2="55.667" y2="60.791"/>
	
		<line clip-path="url(#SVGID_2_)" fill="none" stroke="#845E37" stroke-width="8" stroke-linecap="round" stroke-miterlimit="10" x1="92.667" y1="62.791" x2="127.667" y2="39.791"/>
	
		<circle clip-path="url(#SVGID_2_)" fill="none" stroke="#845E37" stroke-width="8" stroke-linecap="round" stroke-miterlimit="10" cx="43.833" cy="58.291" r="7.5"/>
	<path clip-path="url(#SVGID_2_)" fill="#825D36" d="M71.022,41.172l1.311-1.311l1.312,1.311c0.328,0.327,0.756,0.491,1.185,0.491
		c0.428,0,0.857-0.164,1.185-0.491c0.653-0.654,0.653-1.714,0-2.369l-1.312-1.311l1.312-1.311c0.653-0.655,0.653-1.715,0-2.369
		c-0.654-0.654-1.715-0.654-2.369,0l-1.312,1.311l-1.311-1.311c-0.654-0.654-1.715-0.654-2.369,0c-0.654,0.654-0.654,1.714,0,2.369
		l1.311,1.311l-1.311,1.311c-0.654,0.655-0.654,1.715,0,2.369C69.309,41.826,70.368,41.826,71.022,41.172"/>
	<path clip-path="url(#SVGID_2_)" fill="#825D36" d="M121.112,81.823l1.722-1.722l1.721,1.722c0.429,0.429,0.992,0.644,1.554,0.644
		c0.563,0,1.125-0.215,1.556-0.644c0.857-0.859,0.857-2.25,0-3.109l-1.723-1.721l1.723-1.722c0.857-0.858,0.857-2.251,0-3.108
		c-0.859-0.859-2.25-0.858-3.109,0l-1.721,1.721l-1.722-1.721c-0.858-0.859-2.25-0.859-3.108,0c-0.859,0.857-0.859,2.25,0,3.108
		l1.721,1.722l-1.721,1.721c-0.859,0.859-0.859,2.25,0,3.109C118.862,82.681,120.254,82.681,121.112,81.823"/>
	<path clip-path="url(#SVGID_2_)" fill="#825D36" d="M9.067,59.966l1.267-1.267l1.266,1.267c0.316,0.316,0.73,0.474,1.144,0.474
		s0.828-0.158,1.144-0.474c0.632-0.632,0.632-1.656,0-2.288l-1.267-1.267l1.267-1.267c0.632-0.631,0.632-1.656,0-2.287
		c-0.632-0.632-1.656-0.632-2.288,0l-1.267,1.266l-1.266-1.266c-0.632-0.632-1.656-0.632-2.288,0c-0.632,0.631-0.632,1.656,0,2.287
		l1.266,1.267l-1.266,1.267c-0.632,0.632-0.632,1.656,0,2.288C7.411,60.599,8.435,60.599,9.067,59.966"/>
</g>
</svg>
