<svg xmlns="http://www.w3.org/2000/svg" viewBox="0 0 111 90.929"><defs><style>.a,.d{fill:#fff;}.b{fill:#010101;}.c{fill:red;}.d{stroke:#fff;stroke-miterlimit:10;stroke-width:2px;}</style></defs><g transform="translate(0.1)"><path class="a" d="M34.4,103.045c.073-.073.145-.145.218-.145l-.218.145Z" transform="translate(-9.157 -27.853)"/><path class="a" d="M98.6,61.961c1.163,1.09,1.962,8.357,1.962,10.464s-5.377,10.028-5.377,10.028-3.343-3.924-5.523-3.706C89,80.273,88.5,86.086,86.1,85.8s-1.6-3.415-5.959-4.869c.363,6.322-1.453,9.519-3.052,9.592-1.526.073-6.395-7.267-8.066-5.668.509,1.235-.945,8.5-5.45,10.028-4.215-1.453-6.177-5.45-8.139-7.7-2.689,1.526,1.09,9.011-3.052,9.374-4.142.291-4.287-7.049-5.959-9.083-1.817-.145-3.561,7.121-4.215,7.049s-2.4-3.488-2.543-7.63c-2.543.145-2.907,5.6-4.069,5.668s-2.107-8.066-2.107-8.066c-1.381-9.447,1.308-16.277,2.18-17.8-4.36-3.488-4.505-6.249-5.886-7.7,0-.073-.073-.145-.073-.218-1.744-5.087,0-8.357,0-8.357s3.415,4.36,6.249,2.979c.509-.436-2.325-8.139,2.616-9.229s4.578,4.505,6.976,5.6c1.381-.945-1.817-9.592,4-9.81,4.941-.145,4.578,4,5.232,5.668,6.395-3.488,4.723-7.485,8.429-7.485s5.6,4.723,6.395,7.485c2.253-3.125,2.616-7.63,7.339-9.011,6.467.509,6.685,7.339,7.775,8.066,5.813-1.671,3.706-6.1,7.194-6.1,3.2.218,2.616,6.322,3.343,6.758,4.433-3.2,3.125-6.249,4.723-6.177,2.761.145,3.561-.509,3.779,9.737C103.9,58.763,97.361,60.871,98.6,61.961Z" transform="translate(-7.662 -9.731)"/><g transform="translate(29.26 39.513)"><path class="b" d="M42.451,72.966c1.09-.218,3.779,4.941,5.813,5.668-.654,3.633,1.163,4.941,1.163,4.941s-.073-11.845,1.817-13.661c1.962.8,2.834,4.505,5.959,6.758,0,0,.073,6.395.509,6.395,1.017.218,2.543-11.191,2.834-14.461,1.6-1.453,9.955,6.685,10.391,13.371,2.035.145,4.433-11.481,4.287-14.243-1.09-2.616,6.249,2.979,7.412,14.533.8-2.035,0-5.886,0-5.886s5.159-9.737,5.159-12.426,4.578,3.924,4.578,16.786c1.017-2.4,1.308-7.267.945-9.665,1.453-2.471,4.578-5.813,5.45-10.755,1.163-1.453,2.107,4.578,2.107,4.578s.8-6.54-2.834-9.374c-1.017,2.616-1.453,8.5-4.505,11.263C92.082,62.284,91.792,58.651,87.722,54c-1.017,3.488-4.36,15.769-5.741,15.7S78.2,59.668,73.407,56.689c-.145,4.142-.363,15.115-2.471,15.115C69.556,68.751,62.507,55.744,58.8,55.09c.436,3.924-1.308,13.734-1.962,16.641-2.689-.218-6.322-11.627-8.066-13.661C48.192,60.031,48.991,75,47.756,75s-7.194-11.627-7.194-11.627-1.962,11.118,1.017,18.6C42.015,76.963,41.361,73.184,42.451,72.966Z" transform="translate(-39.928 -54)"/></g><path class="c" d="M25.5,47.637a4.245,4.245,0,0,0,1.526,3.052s-.145-5.45,1.308-5.741c1.308.509,4.215,4,4.723,3.851.509-.218-1.235-7.049,4.36-8.357A5.9,5.9,0,0,1,43.3,41.9s.363-5.741,5.45-5.886a6.688,6.688,0,0,1,6.613,4s3.706-5.886,7.7-5.886c3.924,0,6.031,4.505,6.031,4.505s2.616-6.031,7.485-6.249S85.231,39.5,85.231,39.5s2.4-5.159,6.1-4.941,4.287,4.578,4.287,4.578,1.017-3.779,4.36-3.779c3.27,0,4.433,4.723,4.433,6.177,1.017-.509,1.817-7.993-4.869-9.156-2.616-.436-3.343.872-4.215.8s-3.488-3.125-9.955-2.979C84.359,32.741,83.7,32.3,82.687,32.3S79.2,30.052,73.1,30.2s-5.232,1.235-9.665.872c-4.36-.363-7.921,1.381-10.246,2.18-2.4.8-5.813-.509-9.665,2.471s-5.014.436-11.7,4.069C25.135,43.277,25.5,47.637,25.5,47.637Z" transform="translate(-6.723 -7.979)"/><path class="c" d="M39.742,110.734c-.291-1.235.945-3.706,1.235-3.851.363-.218,1.017,5.3,3.851,5.3,2.18,0,3.2-4.505,3.2-4.505s3.2,7.485,6.613,6.9,4.869-6.467,4.869-6.467,3.2,5.232,6.395,4.8c3.125-.363,6.976-5.959,7.412-9.156,2.325,3.27,5.741,4.578,7.194,4.505,1.453-.145,3.706-2.616,3.924-7.993,1.6,1.017,2.907,3.924,4.8,3.343S93.37,99.253,93.079,97c1.381.727,3.052,1.671,3.052,2.471,0,.872-1.453,3.125-2.979,4.287s-2.907,1.09-4.287,2.035-1.817,2.761-4.505,4.069-3.27,1.017-5.014,1.744-1.962,2.4-5.523,2.907c-3.561.581-4.505.945-8.357.8s-4.869,1.6-8.575,1.6-6.177.581-8.647,0-2.253-1.381-3.851-1.744-4,.581-4.8-1.017-1.817-3.2-1.09-3.488A1.57,1.57,0,0,1,39.742,110.734Z" transform="translate(-10.211 -26.24)"/><g transform="translate(0.9 1)"><path class="d" d="M14.053,10.491a3.037,3.037,0,0,0,.727-.291H15c.073,0,.073.073.145.145.581,2.689,1.526,6.758,2.761,12.063a.267.267,0,0,1-.073.218l-.073.073h-.145c-1.381-.581-3.561-1.453-6.54-2.471h-.218c-.073,0-.073.073-.145.145-.654,1.381-1.671,3.415-2.834,6.1-.073.073-.145.145-.218.145s-.145-.073-.218-.145C5.987,24.152,3.879,20.737.9,16.159v-.145a.156.156,0,0,1,.145-.145c.218-.145.509-.218.727-.363H1.99a.254.254,0,0,1,.145.073c1.163,1.744,2.979,4.433,5.3,7.993.073.073.145.145.218.145s.145-.073.218-.145q.654-1.526,2.18-4.578c0-.073.073-.073.145-.145h.218c1.163.363,2.834.945,5.087,1.817.073.073.218,0,.291-.073a.267.267,0,0,0,.073-.218c-.727-3.2-1.381-6.395-2.035-9.592v-.145C13.907,10.563,13.98,10.563,14.053,10.491Z" transform="translate(-0.9 -3.515)"/><path class="d" d="M33.455,17.215c.291,1.09.581,2.18.872,3.343V20.7c0,.073-.073.073-.145.073-1.235.291-2.4.654-3.633,1.017a4.663,4.663,0,0,1-2.979-.145,3.273,3.273,0,0,1-1.962-1.962c0-.073,0-.073-.073-.145a3.1,3.1,0,0,1-.073-1.817,3.582,3.582,0,0,1,1.017-1.744,4.665,4.665,0,0,1,.945-.727c.291-.145.654-.291,1.017-.436.073,0,.145,0,.145-.073a4.035,4.035,0,0,1,3.052.363A2.925,2.925,0,0,1,33.455,17.215Zm-.509,2.616c-.218-.8-.436-1.526-.654-2.325a2.56,2.56,0,0,0-1.235-1.526,2.807,2.807,0,0,0-2.18-.218H28.8a2.9,2.9,0,0,0-1.817,1.381,2.264,2.264,0,0,0-.291,2.035v.073A2.471,2.471,0,0,0,28.078,20.7a3.2,3.2,0,0,0,2.18.073c.872-.218,1.671-.509,2.543-.727a.071.071,0,0,0,.073-.073A.225.225,0,0,0,32.947,19.831Z" transform="translate(-7.586 -4.716)"/><path class="d" d="M46.3,14.258a3.436,3.436,0,0,1-.727,2.761,4.136,4.136,0,0,1-2.616,1.6c-.872.218-1.744.363-2.616.581-.073,0-.073.073-.145.073a.1.1,0,0,0,0,.145c.363,1.453.654,2.834,1.017,4.287a.545.545,0,0,1-.073.363c-.073.145-.145.218-.291.218-.218.073-.363.073-.581.145-.727-2.834-1.453-5.668-2.107-8.5a3.554,3.554,0,0,1,.509-2.834,4.028,4.028,0,0,1,2.689-1.744h.073a4.377,4.377,0,0,1,3.2.436A3.831,3.831,0,0,1,46.3,14.258Zm-4.723-1.817a3.117,3.117,0,0,0-1.889,1.235,2.582,2.582,0,0,0-.436,2.035c.218.8.363,1.6.581,2.4,0,.073.073.073.073.145h.145c.872-.218,1.744-.436,2.689-.581a3.024,3.024,0,0,0,1.889-1.163,2.629,2.629,0,0,0,.509-2.035A2.421,2.421,0,0,0,43.9,12.8a2.887,2.887,0,0,0-2.325-.363Z" transform="translate(-11.059 -3.794)"/><path class="d" d="M54.684,14.514a.437.437,0,0,0-.291.073H54.1a14,14,0,0,1-1.744-.073,8.5,8.5,0,0,1-1.817-.509c-.073,0-.073-.073-.145-.145v-.145a4.284,4.284,0,0,1,.291-.581c0-.073.073-.073.145-.145h.145a7.192,7.192,0,0,0,3.27.509,6.561,6.561,0,0,0,2.107-.654,2.789,2.789,0,0,0,.872-.945c.291-.509.145-1.163-.291-2.107a1.916,1.916,0,0,0-.8-.654,7.748,7.748,0,0,0-1.381-.509c-.291-.073-.581-.145-.8-.218-.291-.073-.581-.145-.8-.218A7.6,7.6,0,0,0,51.923,7.9c-.363-.073-.727-.218-1.017-.291a2.166,2.166,0,0,1-1.017-.727,2.128,2.128,0,0,1-.509-1.163,1.486,1.486,0,0,1,0-.8,2.57,2.57,0,0,1,.073-.436.562.562,0,0,1,.073-.218c0-.145.073-.218.218-.436a3.809,3.809,0,0,1,.945-.945,4.1,4.1,0,0,1,1.962-.8c.145-.145.363-.145.581-.218a5.414,5.414,0,0,1,2.18.073,10.491,10.491,0,0,1,1.6.509c.073,0,.073.073.073.145s0,.073-.073.145a1,1,0,0,0-.218.291,1,1,0,0,0-.218.291c0,.073-.073.073-.145.073h-.145a5.005,5.005,0,0,0-1.308-.363,5.491,5.491,0,0,0-2.18,0,5.013,5.013,0,0,0-1.381.509,2.775,2.775,0,0,0-.654.654c-.073.073-.145.145-.145.218s0,.145-.073.145h0a2.033,2.033,0,0,1-.073.436,1.065,1.065,0,0,0,.145.8,1.52,1.52,0,0,0,.291.436,1.171,1.171,0,0,0,.509.291,7.542,7.542,0,0,0,.945.291c.363.073.727.218,1.163.291a16.158,16.158,0,0,1,2.834.872A3.439,3.439,0,0,1,58.1,9.282a3.578,3.578,0,0,1,.436,1.235c0,.073.073.218.073.291v.872a2.638,2.638,0,0,1-.509,1.235,3.217,3.217,0,0,1-1.09.872c-.363.145-.727.291-1.163.436A5.444,5.444,0,0,1,54.684,14.514Z" transform="translate(-14.136 -1.216)"/><path class="d" d="M63.89,13.5,62.8,1.073c.145,0,.363-.073.581-.073a.534.534,0,0,1,.436.145.4.4,0,0,1,.218.363l.436,5.45a.156.156,0,0,0,.145.145h.218a5.038,5.038,0,0,1,1.235-.727,4.744,4.744,0,0,1,1.453-.363,4.083,4.083,0,0,1,2.907.872,3.3,3.3,0,0,1,1.381,2.325c0,1.308.073,2.543.073,3.851v.145a.254.254,0,0,1-.145.073h-.727c-.073,0-.073,0-.145-.073-.073,0-.073-.073-.073-.145-.073-1.235-.073-2.543-.145-3.779a2.43,2.43,0,0,0-1.017-1.671A2.82,2.82,0,0,0,67.6,7.031a3.006,3.006,0,0,0-1.962.8,2.442,2.442,0,0,0-.8,1.744c.073,1.235.218,2.471.291,3.779,0,.073,0,.073-.073.145,0,.073-.073.073-.145.073-.218,0-.509.073-.727.073-.073,0-.073,0-.145-.073C63.89,13.571,63.89,13.5,63.89,13.5Zm9.3-.509Zm.073,0Zm.145.073Zm0,.073Z" transform="translate(-17.819 -1)"/><path class="d" d="M84.539,11.567c-.073,1.163-.145,2.253-.145,3.415,0,.073,0,.073-.073.145-.073,0-.073.073-.145.073-1.235-.073-2.471-.073-3.706-.145a4.318,4.318,0,0,1-2.761-1.017A3.492,3.492,0,0,1,76.4,11.567v-.145a2.9,2.9,0,0,1,.509-1.744A4.4,4.4,0,0,1,78.362,8.3l1.09-.436a2.77,2.77,0,0,1,1.09-.073h.145a4.231,4.231,0,0,1,2.761,1.235A3.039,3.039,0,0,1,84.539,11.567ZM83.3,13.893c0-.8.073-1.6.073-2.4a2.41,2.41,0,0,0-.727-1.817,3.264,3.264,0,0,0-2.035-.872h-.073a3.1,3.1,0,0,0-2.107.727,2.3,2.3,0,0,0-.872,1.817v.073a2.552,2.552,0,0,0,.872,1.817,2.92,2.92,0,0,0,2.035.727c.872,0,1.744.073,2.616.073.073,0,.073,0,.145-.073C83.3,13.965,83.3,13.965,83.3,13.893Z" transform="translate(-21.537 -2.847)"/><path class="d" d="M90.308,14.459c0,.291-.073.581-.073.872,0,.073,0,.073-.073.145-.073,0-.073.073-.145.073a2.981,2.981,0,0,1-.8-.073c-.073,0-.073,0-.145-.073,0-.073-.073-.073-.073-.145l.218-3.488a3,3,0,0,1,1.235-2.325A4.115,4.115,0,0,1,93.215,8.5h.073c.073,0,.073,0,.145.073,0,.073.073.073.073.145,0,.218-.073.509-.073.727a.071.071,0,0,1-.073.073c-.073,0-.073.073-.145.073a2.905,2.905,0,0,0-1.889.727,2.522,2.522,0,0,0-.872,1.671c0,.727-.073,1.6-.145,2.471Z" transform="translate(-24.981 -3.05)"/><path class="d" d="M100.024,9.593c.727,1.163,1.744,2.834,3.052,5.087V14.9c-.073.073-.073.073-.145.073-.291-.073-.654-.073-.945-.145h-.073a.071.071,0,0,1-.073-.073c-.581-.945-1.381-2.4-2.616-4.287,0-.073-.073-.073-.145-.073h-.145c-.291.291-.8.654-1.381,1.235v.145c-.073.8-.145,1.526-.291,2.325,0,.073,0,.073-.073.145h-.145c-.218,0-.509-.073-.727-.073-.073,0-.073,0-.145-.073,0-.073-.073-.073-.073-.145.436-4.142.872-8.211,1.308-12.353.218,0,.436.073.654.073a.628.628,0,0,1,.436.218c.073.145.145.218.145.363l-.872,7.412c0,.073,0,.145.073.145h.218c.654-.509,1.6-1.308,2.979-2.4a.071.071,0,0,0,.073-.073h.073c.291.073.581.073.872.145a.254.254,0,0,1,.145.073.267.267,0,0,1-.073.218c-.509.363-1.163.945-2.107,1.744l-.073.073C100.024,9.521,100.024,9.521,100.024,9.593Z" transform="translate(-26.921 -1.164)"/><path class="d" d="M108.526,19.145a1.171,1.171,0,0,1-.291.509.82.82,0,0,1-.581.073,1.171,1.171,0,0,1-.509-.291.692.692,0,0,1-.145-.509c.073-.218.073-.509.145-.727.291.073.509.073.8.145a1.171,1.171,0,0,1,.509.291A.638.638,0,0,1,108.526,19.145Z" transform="translate(-29.901 -5.701)"/><path class="d" d="M116.795,18.239c.073.073.073.145.145.218s.145.145.145.218c.073.073.073.145.145.145.073.073.073.073.073.145a.071.071,0,0,1-.073.073,6.054,6.054,0,0,1-1.09.291h-1.09c-.145,0-.218-.073-.363-.073a4.867,4.867,0,0,1-1.526-.727,3.9,3.9,0,0,1-1.381-1.671,3.117,3.117,0,0,1-.291-1.817v-.291a2.558,2.558,0,0,1,.727-1.381,4.091,4.091,0,0,1,1.889-1.235,4.731,4.731,0,0,1,2.253-.073h0a3.8,3.8,0,0,1,1.163.436,5.159,5.159,0,0,1,1.017.727V13.3h0l-.436.218-.436.218h-.073a3.307,3.307,0,0,0-2.325-.727,2.873,2.873,0,0,0-2.107,1.09,2.548,2.548,0,0,0-.436,1.017,1.905,1.905,0,0,0,.145,1.09,3.144,3.144,0,0,0,1.6,1.744,3.056,3.056,0,0,0,2.253.145h.145C116.722,18.166,116.795,18.166,116.795,18.239Z" transform="translate(-31.121 -3.996)"/><path class="d" d="M124.806,7.3c-.727,2.689-1.453,5.377-2.253,8.066a2.426,2.426,0,0,0,.363,1.962,2.753,2.753,0,0,0,1.671,1.308.726.726,0,0,1,.363.291.79.79,0,0,1,.073.363c0,.145-.073.218-.073.363a.071.071,0,0,1-.073.073h-.145c-.145,0-.218-.073-.363-.073a4.17,4.17,0,0,1-2.4-1.744,3.437,3.437,0,0,1-.509-2.761c.727-2.907,1.526-5.741,2.253-8.647.218.073.363.073.581.145a.725.725,0,0,1,.363.291A.265.265,0,0,1,124.806,7.3Z" transform="translate(-33.828 -2.503)"/><path class="d" d="M130.47,13.887c-.291-.073-.509-.145-.8-.218l.218-.654a.744.744,0,0,1,.363-.436,1.008,1.008,0,0,1,.654,0,1.3,1.3,0,0,1,.509.363.82.82,0,0,1,.073.581.6.6,0,0,1-.363.363A1.976,1.976,0,0,1,130.47,13.887Zm-3.125,7.775c-.073,0-.073-.073-.145-.073v-.145c.727-2.253,1.381-4.505,2.107-6.685a.071.071,0,0,1,.073-.073h.145c.291.073.509.145.8.218.073,0,.073.073.145.073v.145c-.727,2.253-1.453,4.433-2.18,6.685a.071.071,0,0,1-.073.073h-.145C127.854,21.808,127.636,21.736,127.345,21.663Z" transform="translate(-35.422 -4.15)"/><path class="d" d="M136.676,24.484c0,.073.073.145.145.218s.145.145.145.218.073.145.073.218.073.073,0,.145c0,.073-.073.073-.145.073a4.16,4.16,0,0,1-2.18,0c-.145,0-.218-.073-.363-.145a5.941,5.941,0,0,1-1.453-.872,3.741,3.741,0,0,1-1.163-1.817,3.1,3.1,0,0,1-.073-1.817c0-.073.073-.145.073-.291a2.614,2.614,0,0,1,.872-1.308,3.63,3.63,0,0,1,2.035-1.017,5.816,5.816,0,0,1,2.253.218h0a7.942,7.942,0,0,1,1.09.581,2.5,2.5,0,0,1,.872.872v.073h0a1.05,1.05,0,0,1-.509.145,1.347,1.347,0,0,1-.509.145h-.073a3.413,3.413,0,0,0-2.18-1.017,2.632,2.632,0,0,0-2.253.872,1.736,1.736,0,0,0-.509.945,2.752,2.752,0,0,0,0,1.09,2.857,2.857,0,0,0,1.381,1.889,3.111,3.111,0,0,0,2.253.436h.145C136.6,24.412,136.6,24.412,136.676,24.484Z" transform="translate(-36.614 -5.664)"/><path class="d" d="M145.214,22.357c.363,1.308.945,3.2,1.6,5.813v.145a.071.071,0,0,1-.073.073h-.218l-.872-.436a.071.071,0,0,1-.073-.073v-.073c-.291-1.09-.727-2.689-1.381-4.869,0-.073-.073-.073-.145-.073h-.145c-.363.145-.945.436-1.671.727l-.073.073-.073.073-.872,2.18a.071.071,0,0,1-.073.073H141c-.218-.073-.509-.218-.727-.291a.071.071,0,0,1-.073-.073v-.145c1.6-3.851,3.125-7.7,4.723-11.481.218.073.363.145.581.218a.726.726,0,0,1,.363.291.463.463,0,0,1,0,.436c-.945,2.325-1.889,4.578-2.907,6.9a.267.267,0,0,0,.073.218.136.136,0,0,0,.218,0c.8-.291,1.962-.8,3.561-1.453h.145c.291.145.581.218.872.363a.156.156,0,0,1,.145.145c0,.073,0,.145-.073.145-.581.218-1.453.581-2.543,1.017a.071.071,0,0,0-.073.073C145.214,22.284,145.214,22.284,145.214,22.357Z" transform="translate(-38.975 -4.553)"/></g></g></svg>