<?xml version="1.0" encoding="utf-8"?>
<!-- Generator: Adobe Illustrator 16.0.0, SVG Export Plug-In . SVG Version: 6.00 Build 0)  -->
<!DOCTYPE svg PUBLIC "-//W3C//DTD SVG 1.1//EN" "http://www.w3.org/Graphics/SVG/1.1/DTD/svg11.dtd">
<svg version="1.1" id="Слой_1" xmlns="http://www.w3.org/2000/svg" xmlns:xlink="http://www.w3.org/1999/xlink" x="0px" y="0px"
	 width="484.46px" height="484.459px" viewBox="179.227 54.297 484.46 484.459"
	 enable-background="new 179.227 54.297 484.46 484.459" xml:space="preserve">
<g>
	<path fill="#F4D024" d="M663.579,468.998c0.838,5.918-3.28,11.398-9.199,12.236l-405.393,57.414
		c-5.919,0.838-11.398-3.281-12.236-9.199l-57.415-405.393c-0.838-5.919,3.281-11.398,9.2-12.236l405.393-57.415
		c5.919-0.838,11.397,3.281,12.235,9.2L663.579,468.998z"/>
	<path d="M326.001,220.375c0-10.424,8.45-18.875,18.875-18.875c3.4,0,7.957,0.083,10.875,0.083c0.25-4,0.25-5.412,0.25-9.583
		c0-22.644-18.356-41-41-41C292.356,151,274,169.356,274,192s18.356,41,41.001,41c4.913,0,6.5,0,10.916,0
		C325.917,229.667,326.001,224.125,326.001,220.375z"/>
	<rect x="274" y="192" width="52.001" height="217.5"/>
	<path d="M326.001,378.292c0,10.424,8.45,18.875,18.875,18.875c3.4,0,7.957-0.084,10.875-0.084c0.25,4,0.25,5.412,0.25,9.584
		c0,22.643-18.356,41-41,41c-22.645,0-41.001-18.357-41.001-41c0-22.645,18.356-41,41.001-41c4.913,0,6.5,0,10.916,0
		C325.917,369,326.001,374.542,326.001,378.292z"/>
	<path d="M518.667,220.375c0-10.424-8.45-18.875-18.875-18.875c-3.4,0-7.957,0.083-10.875,0.083c-0.25-4-0.25-5.412-0.25-9.583
		c0-22.644,18.356-41,41-41c22.645,0,41,18.356,41,41s-18.355,41-41,41c-4.913,0-6.5,0-10.916,0
		C518.751,229.667,518.667,224.125,518.667,220.375z"/>
	<path d="M518.667,378.292c0,10.424-8.45,18.875-18.875,18.875c-3.4,0-7.957-0.084-10.875-0.084c-0.25,4-0.25,5.412-0.25,9.584
		c0,22.643,18.356,41,41,41c22.645,0,41-18.357,41-41c0-22.645-18.355-41-41-41c-4.913,0-6.5,0-10.916,0
		C518.751,369,518.667,374.542,518.667,378.292z"/>
	<rect x="315.583" y="151.083" width="214.834" height="50.667"/>
	<rect x="312.917" y="397.083" width="214.834" height="50.666"/>
	<path opacity="0.6" enable-background="new    " d="M518.501,246"/>
	<path opacity="0.6" enable-background="new    " d="M518.501,346"/>
	<polyline points="570.501,346.25 570.501,408.5 518.501,408.5 518.501,346 	"/>
	<path opacity="0.6" enable-background="new    " d="M570.501,346.25"/>
	<path opacity="0.6" enable-background="new    " d="M570.501,246"/>
	<polyline points="518.501,246 518.501,191 570.501,191 570.501,246 	"/>
	<rect x="376.667" y="445" width="88.668" height="21.334"/>
	<rect x="377.667" y="131" width="88.668" height="21.333"/>
</g>
</svg>
