<?xml version="1.0" encoding="utf-8"?>
<!-- Generator: Adobe Illustrator 16.0.0, SVG Export Plug-In . SVG Version: 6.00 Build 0)  -->
<!DOCTYPE svg PUBLIC "-//W3C//DTD SVG 1.1//EN" "http://www.w3.org/Graphics/SVG/1.1/DTD/svg11.dtd">
<svg version="1.1" id="Слой_1" xmlns="http://www.w3.org/2000/svg" xmlns:xlink="http://www.w3.org/1999/xlink" x="0px" y="0px"
	 width="90.75px" height="102.5px" viewBox="375.365 246.5 90.75 102.5" enable-background="new 375.365 246.5 90.75 102.5"
	 xml:space="preserve">
<g>
	<g>
		<path fill="#A3A2A2" d="M410.737,287.198c0,1.373-0.296,2.431-0.89,3.172c-0.595,0.74-1.42,1.11-2.478,1.11
			c-1.052,0-1.878-0.372-2.479-1.114c-0.603-0.742-0.903-1.798-0.903-3.168v-2.374c0-1.368,0.298-2.425,0.894-3.171
			c0.594-0.745,1.419-1.118,2.476-1.118s1.885,0.373,2.484,1.118c0.599,0.745,0.897,1.802,0.897,3.171L410.737,287.198
			L410.737,287.198z M409.86,284.676c0-1.091-0.214-1.929-0.643-2.514c-0.429-0.587-1.049-0.879-1.862-0.879
			s-1.432,0.292-1.856,0.879c-0.424,0.586-0.636,1.424-0.636,2.514v2.65c0,1.08,0.216,1.918,0.647,2.514
			c0.432,0.596,1.051,0.894,1.859,0.894c0.81,0,1.426-0.296,1.853-0.89c0.426-0.594,0.639-1.433,0.639-2.518L409.86,284.676
			L409.86,284.676z"/>
		<path fill="#A3A2A2" d="M416.677,291.377h-0.877v-9.773l-2.703,0.313v-0.614l3.58-0.643V291.377L416.677,291.377z"/>
		<path fill="#A3A2A2" d="M427.752,287.198c0,1.373-0.297,2.431-0.891,3.172c-0.595,0.74-1.42,1.11-2.477,1.11
			c-1.053,0-1.878-0.372-2.48-1.114c-0.602-0.742-0.903-1.798-0.903-3.168v-2.374c0-1.368,0.299-2.425,0.894-3.171
			c0.594-0.745,1.419-1.118,2.476-1.118c1.058,0,1.886,0.373,2.484,1.118c0.599,0.745,0.898,1.802,0.898,3.171L427.752,287.198
			L427.752,287.198z M426.874,284.676c0-1.091-0.214-1.929-0.643-2.514c-0.428-0.587-1.049-0.879-1.862-0.879
			c-0.813,0-1.432,0.292-1.855,0.879c-0.424,0.586-0.636,1.424-0.636,2.514v2.65c0,1.08,0.217,1.918,0.646,2.514
			c0.432,0.596,1.051,0.894,1.86,0.894c0.809,0,1.425-0.296,1.852-0.89c0.426-0.594,0.64-1.433,0.64-2.518v-2.65H426.874z"/>
		<path fill="#A3A2A2" d="M436.475,287.198c0,1.373-0.296,2.431-0.89,3.172c-0.596,0.74-1.421,1.11-2.478,1.11
			c-1.052,0-1.878-0.372-2.479-1.114c-0.603-0.742-0.903-1.798-0.903-3.168v-2.374c0-1.368,0.298-2.425,0.893-3.171
			c0.595-0.745,1.419-1.118,2.477-1.118c1.057,0,1.885,0.373,2.483,1.118c0.6,0.745,0.898,1.802,0.898,3.171L436.475,287.198
			L436.475,287.198z M435.598,284.676c0-1.091-0.214-1.929-0.644-2.514c-0.428-0.587-1.049-0.879-1.861-0.879
			c-0.813,0-1.433,0.292-1.856,0.879c-0.424,0.586-0.636,1.424-0.636,2.514v2.65c0,1.08,0.216,1.918,0.646,2.514
			c0.433,0.596,1.052,0.894,1.86,0.894s1.425-0.296,1.853-0.89c0.426-0.594,0.639-1.433,0.639-2.518L435.598,284.676
			L435.598,284.676z"/>
	</g>
	<g>
		<path fill="#BFBFBF" d="M407.954,308.152h-0.877v-9.773l-2.703,0.313v-0.614l3.58-0.643V308.152L407.954,308.152z"/>
		<path fill="#BFBFBF" d="M419.777,303.973c0,1.372-0.296,2.431-0.89,3.172c-0.596,0.739-1.42,1.11-2.478,1.11
			c-1.052,0-1.878-0.373-2.479-1.114c-0.603-0.742-0.903-1.798-0.903-3.168v-2.374c0-1.368,0.298-2.426,0.894-3.172
			c0.594-0.744,1.419-1.117,2.476-1.117s1.885,0.373,2.484,1.117c0.599,0.746,0.897,1.803,0.897,3.172L419.777,303.973
			L419.777,303.973z M418.901,301.451c0-1.091-0.214-1.929-0.643-2.514c-0.429-0.587-1.049-0.879-1.862-0.879
			s-1.432,0.292-1.856,0.879c-0.424,0.586-0.636,1.424-0.636,2.514v2.65c0,1.08,0.217,1.918,0.647,2.514
			c0.432,0.596,1.051,0.895,1.859,0.895c0.81,0,1.426-0.297,1.853-0.891c0.426-0.594,0.639-1.433,0.639-2.518L418.901,301.451
			L418.901,301.451z"/>
		<path fill="#BFBFBF" d="M426.466,308.152h-0.877v-9.773l-2.703,0.313v-0.614l3.58-0.643V308.152L426.466,308.152z"/>
		<path fill="#BFBFBF" d="M435.506,308.152h-0.877v-9.773l-2.703,0.313v-0.614l3.58-0.643V308.152L435.506,308.152z"/>
	</g>
	<g>
		<path fill="#A3A2A2" d="M411.644,321.203c0,1.373-0.296,2.43-0.89,3.172c-0.596,0.74-1.42,1.109-2.478,1.109
			c-1.052,0-1.878-0.372-2.479-1.113c-0.603-0.742-0.903-1.799-0.903-3.168v-2.375c0-1.367,0.298-2.425,0.893-3.17
			c0.595-0.746,1.419-1.119,2.477-1.119c1.057,0,1.885,0.373,2.483,1.119c0.6,0.744,0.898,1.801,0.898,3.17L411.644,321.203
			L411.644,321.203z M410.768,318.68c0-1.091-0.214-1.929-0.643-2.515s-1.05-0.879-1.862-0.879c-0.813,0-1.433,0.293-1.856,0.879
			s-0.636,1.424-0.636,2.515v2.649c0,1.08,0.217,1.918,0.647,2.514c0.432,0.597,1.051,0.895,1.859,0.895
			c0.81,0,1.425-0.296,1.853-0.89c0.426-0.595,0.639-1.433,0.639-2.519L410.768,318.68L410.768,318.68z"/>
		<path fill="#A3A2A2" d="M417.585,325.38h-0.878v-9.772l-2.702,0.313v-0.614l3.58-0.644V325.38L417.585,325.38z"/>
		<path fill="#A3A2A2" d="M428.658,321.203c0,1.373-0.296,2.43-0.89,3.172c-0.595,0.74-1.42,1.109-2.478,1.109
			c-1.052,0-1.878-0.372-2.479-1.113c-0.602-0.742-0.903-1.799-0.903-3.168v-2.375c0-1.367,0.298-2.425,0.894-3.17
			c0.594-0.746,1.419-1.119,2.476-1.119c1.058,0,1.885,0.373,2.484,1.119c0.599,0.744,0.897,1.801,0.897,3.17L428.658,321.203
			L428.658,321.203z M427.782,318.68c0-1.091-0.214-1.929-0.643-2.515c-0.428-0.586-1.049-0.879-1.862-0.879
			c-0.813,0-1.432,0.293-1.855,0.879c-0.425,0.586-0.637,1.424-0.637,2.515v2.649c0,1.08,0.217,1.918,0.647,2.514
			c0.432,0.597,1.051,0.895,1.86,0.895c0.809,0,1.425-0.296,1.852-0.89c0.426-0.595,0.639-1.433,0.639-2.519L427.782,318.68
			L427.782,318.68z"/>
		<path fill="#A3A2A2" d="M437.383,321.203c0,1.373-0.296,2.43-0.891,3.172c-0.595,0.74-1.42,1.109-2.477,1.109
			c-1.052,0-1.878-0.372-2.48-1.113c-0.602-0.742-0.902-1.799-0.902-3.168v-2.375c0-1.367,0.298-2.425,0.893-3.17
			c0.594-0.746,1.419-1.119,2.476-1.119c1.058,0,1.886,0.373,2.484,1.119c0.6,0.744,0.898,1.801,0.898,3.17L437.383,321.203
			L437.383,321.203z M436.507,318.68c0-1.091-0.214-1.929-0.644-2.515c-0.428-0.586-1.049-0.879-1.861-0.879
			c-0.813,0-1.433,0.293-1.856,0.879s-0.636,1.424-0.636,2.515v2.649c0,1.08,0.217,1.918,0.646,2.514
			c0.433,0.597,1.052,0.895,1.86,0.895s1.425-0.296,1.852-0.89c0.427-0.595,0.64-1.433,0.64-2.519L436.507,318.68L436.507,318.68z"
			/>
	</g>
	<g>
		<path fill="#848484" d="M382.661,304.349c0,1.249-0.27,2.209-0.81,2.882c-0.541,0.673-1.291,1.009-2.251,1.009
			c-0.956,0-1.708-0.337-2.255-1.013c-0.546-0.675-0.82-1.634-0.82-2.878v-2.158c0-1.244,0.271-2.205,0.811-2.882
			s1.29-1.017,2.251-1.017c0.96,0,1.713,0.34,2.258,1.017s0.816,1.638,0.816,2.882V304.349L382.661,304.349z M381.864,302.055
			c0-0.991-0.194-1.753-0.584-2.286c-0.389-0.533-0.954-0.801-1.693-0.801c-0.74,0-1.303,0.268-1.688,0.801
			s-0.578,1.295-0.578,2.286v2.409c0,0.981,0.195,1.744,0.588,2.285c0.392,0.543,0.955,0.813,1.69,0.813s1.296-0.271,1.684-0.81
			s0.58-1.303,0.58-2.289L381.864,302.055L381.864,302.055z"/>
		<path fill="#848484" d="M388.061,308.148h-0.797v-8.886l-2.457,0.286v-0.559l3.254-0.584V308.148z"/>
		<path fill="#848484" d="M398.13,304.349c0,1.249-0.271,2.209-0.811,2.882c-0.541,0.673-1.291,1.009-2.251,1.009
			c-0.956,0-1.708-0.337-2.255-1.013c-0.546-0.675-0.82-1.634-0.82-2.878v-2.158c0-1.244,0.271-2.205,0.811-2.882
			c0.541-0.677,1.291-1.017,2.251-1.017s1.714,0.34,2.258,1.017s0.817,1.638,0.817,2.882V304.349L398.13,304.349z M397.332,302.055
			c0-0.991-0.194-1.753-0.584-2.286c-0.389-0.533-0.953-0.801-1.693-0.801s-1.302,0.268-1.688,0.801
			c-0.385,0.533-0.578,1.295-0.578,2.286v2.409c0,0.981,0.195,1.744,0.589,2.285c0.391,0.543,0.954,0.813,1.689,0.813
			s1.296-0.271,1.684-0.81s0.58-1.303,0.58-2.289L397.332,302.055L397.332,302.055z"/>
	</g>
	<g>
		<path fill="#848484" d="M383.257,282.306c-0.434-0.538-1.003-0.853-1.698-0.964c-0.13,0.212-0.254,0.427-0.377,0.643
			c0.646,0.043,1.155,0.296,1.51,0.782c0.389,0.533,0.584,1.295,0.584,2.286v2.409c0,0.987-0.194,1.749-0.58,2.289
			c-0.388,0.541-0.95,0.81-1.684,0.81c-0.734,0-1.299-0.271-1.69-0.813c-0.393-0.542-0.588-1.304-0.588-2.286v-0.502
			c-0.226,0.483-0.469,0.959-0.712,1.435c0.116,0.745,0.355,1.361,0.735,1.83c0.547,0.676,1.299,1.013,2.255,1.013
			c0.96,0,1.711-0.336,2.251-1.009c0.541-0.673,0.81-1.634,0.81-2.882v-2.158C384.073,283.944,383.802,282.984,383.257,282.306z"/>
		<path fill="#848484" d="M389.473,291.146h-0.797v-8.886l-2.457,0.286v-0.558l3.254-0.584V291.146z"/>
		<path fill="#848484" d="M397.011,291.146h-0.797v-8.886l-2.457,0.286v-0.558l3.254-0.584V291.146z"/>
	</g>
	<g>
		<path fill="#848484" d="M409.657,275.504h-0.797v-8.886l-2.457,0.286v-0.558l3.254-0.584V275.504z"/>
		<path fill="#848484" d="M417.195,275.504h-0.797v-8.886l-2.457,0.286v-0.558l3.254-0.584V275.504z"/>
		<path fill="#848484" d="M427.264,271.705c0,1.249-0.271,2.209-0.811,2.882c-0.541,0.673-1.291,1.009-2.251,1.009
			c-0.956,0-1.708-0.337-2.255-1.013c-0.546-0.675-0.819-1.634-0.819-2.878v-2.158c0-1.245,0.27-2.205,0.81-2.882
			s1.291-1.016,2.251-1.016s1.713,0.339,2.258,1.016s0.817,1.638,0.817,2.882V271.705L427.264,271.705z M426.468,269.411
			c0-0.991-0.195-1.753-0.584-2.286c-0.39-0.533-0.954-0.8-1.694-0.8s-1.302,0.267-1.687,0.8c-0.386,0.533-0.578,1.295-0.578,2.286
			v2.409c0,0.982,0.194,1.744,0.588,2.286c0.391,0.542,0.955,0.813,1.689,0.813c0.735,0,1.296-0.27,1.685-0.81
			c0.387-0.539,0.58-1.302,0.58-2.289L426.468,269.411L426.468,269.411z"/>
		<path fill="#848484" d="M432.663,275.504h-0.797v-8.886l-2.457,0.286v-0.558l3.254-0.584V275.504z"/>
	</g>
	<g>
		<path fill="#848484" d="M444.002,307.808h-0.798v-8.887l-2.457,0.287v-0.559l3.255-0.584V307.808z"/>
		<path fill="#848484" d="M454.069,304.009c0,1.248-0.27,2.209-0.81,2.882c-0.541,0.673-1.291,1.009-2.251,1.009
			c-0.956,0-1.708-0.337-2.255-1.014c-0.547-0.674-0.82-1.633-0.82-2.877v-2.158c0-1.245,0.27-2.205,0.81-2.883
			c0.541-0.676,1.291-1.015,2.251-1.015s1.713,0.339,2.259,1.015c0.545,0.678,0.816,1.639,0.816,2.883V304.009L454.069,304.009z
			 M453.272,301.714c0-0.99-0.195-1.752-0.584-2.285s-0.954-0.801-1.694-0.801c-0.739,0-1.302,0.268-1.687,0.801
			s-0.578,1.295-0.578,2.285v2.41c0,0.981,0.195,1.744,0.588,2.285c0.391,0.543,0.955,0.813,1.69,0.813
			c0.734,0,1.296-0.271,1.684-0.81c0.387-0.539,0.58-1.303,0.58-2.289L453.272,301.714L453.272,301.714z"/>
		<path fill="#848484" d="M459.469,307.808h-0.797v-8.887l-2.457,0.287v-0.559l3.254-0.584V307.808z"/>
		<path fill="#848484" d="M465.829,307.128c-0.427-0.114-0.777-0.35-1.043-0.719c-0.393-0.541-0.589-1.304-0.589-2.285v-2.41
			c0-0.991,0.193-1.754,0.578-2.287c0.211-0.291,0.485-0.489,0.805-0.617c-0.018-0.239-0.034-0.479-0.045-0.717
			c-0.528,0.151-0.974,0.436-1.323,0.874c-0.541,0.678-0.811,1.639-0.811,2.883v2.158c0,1.244,0.274,2.203,0.82,2.877
			c0.394,0.488,0.901,0.785,1.51,0.918C465.777,307.583,465.808,307.357,465.829,307.128z"/>
	</g>
	<g>
		<path fill="#848484" d="M447.552,287.007c0,1.249-0.271,2.209-0.811,2.882c-0.54,0.673-1.291,1.009-2.251,1.009
			c-0.956,0-1.708-0.337-2.255-1.013c-0.546-0.675-0.82-1.634-0.82-2.878v-2.158c0-1.245,0.271-2.205,0.811-2.882
			c0.541-0.677,1.291-1.016,2.251-1.016s1.713,0.339,2.258,1.016c0.545,0.677,0.817,1.638,0.817,2.882V287.007L447.552,287.007z
			 M446.756,284.713c0-0.991-0.195-1.753-0.584-2.286c-0.39-0.533-0.954-0.8-1.694-0.8s-1.302,0.267-1.688,0.8
			c-0.385,0.533-0.577,1.295-0.577,2.286v2.41c0,0.982,0.194,1.744,0.588,2.286c0.391,0.542,0.955,0.813,1.689,0.813
			c0.735,0,1.296-0.27,1.685-0.81c0.387-0.539,0.58-1.302,0.58-2.289L446.756,284.713L446.756,284.713z"/>
		<path fill="#848484" d="M455.481,287.007c0,1.249-0.27,2.209-0.81,2.882c-0.541,0.673-1.291,1.009-2.251,1.009
			c-0.956,0-1.708-0.337-2.256-1.013c-0.546-0.675-0.819-1.634-0.819-2.878v-2.158c0-1.245,0.27-2.205,0.81-2.882
			c0.54-0.677,1.291-1.016,2.251-1.016s1.713,0.339,2.258,1.016c0.545,0.677,0.817,1.638,0.817,2.882V287.007L455.481,287.007z
			 M454.684,284.713c0-0.991-0.195-1.753-0.584-2.286c-0.389-0.533-0.954-0.8-1.694-0.8s-1.302,0.267-1.687,0.8
			c-0.386,0.533-0.578,1.295-0.578,2.286v2.41c0,0.982,0.195,1.744,0.588,2.286c0.391,0.542,0.955,0.813,1.69,0.813
			c0.734,0,1.296-0.27,1.684-0.81c0.387-0.539,0.58-1.302,0.58-2.289L454.684,284.713L454.684,284.713z"/>
		<path fill="#848484" d="M459.828,281.252l-2.2,0.396v0.558l2.457-0.285v8.886h0.797v-7.927
			C460.499,282.354,460.142,281.814,459.828,281.252z"/>
	</g>
	<g>
		<path fill="#848484" d="M411.017,339.771h-0.797v-8.887l-2.457,0.287v-0.559l3.254-0.584V339.771z"/>
		<path fill="#848484" d="M418.555,339.771h-0.797v-8.887l-2.457,0.287v-0.559l3.254-0.584V339.771z"/>
		<path fill="#848484" d="M428.624,335.972c0,1.249-0.27,2.209-0.81,2.882s-1.291,1.009-2.251,1.009
			c-0.956,0-1.708-0.337-2.255-1.013c-0.546-0.675-0.82-1.634-0.82-2.878v-2.158c0-1.245,0.271-2.205,0.811-2.882
			c0.541-0.677,1.291-1.017,2.251-1.017s1.713,0.34,2.258,1.017s0.816,1.638,0.816,2.882V335.972L428.624,335.972z M427.827,333.679
			c0-0.991-0.194-1.754-0.584-2.286c-0.389-0.533-0.954-0.8-1.693-0.8c-0.74,0-1.303,0.267-1.688,0.8
			c-0.385,0.532-0.578,1.295-0.578,2.286v2.41c0,0.981,0.195,1.744,0.588,2.285c0.392,0.543,0.955,0.813,1.69,0.813
			s1.296-0.271,1.684-0.81s0.58-1.303,0.58-2.289L427.827,333.679L427.827,333.679z"/>
		<path fill="#848484" d="M434.023,339.771h-0.797v-8.887l-2.457,0.287v-0.559l3.254-0.584V339.771z"/>
	</g>
	<g>
		<path fill="#848484" d="M381.884,324.81h-0.797v-8.887l-2.457,0.287v-0.559l3.254-0.584V324.81z"/>
		<path fill="#848484" d="M391.951,321.011c0,1.248-0.27,2.209-0.81,2.882c-0.541,0.673-1.291,1.009-2.251,1.009
			c-0.956,0-1.708-0.337-2.255-1.013c-0.546-0.675-0.82-1.634-0.82-2.878v-2.158c0-1.245,0.27-2.205,0.81-2.882
			c0.541-0.677,1.291-1.017,2.251-1.017c0.961,0,1.714,0.34,2.259,1.017s0.816,1.638,0.816,2.882V321.011L391.951,321.011z
			 M391.154,318.716c0-0.99-0.194-1.752-0.584-2.285c-0.389-0.533-0.954-0.801-1.694-0.801c-0.739,0-1.302,0.268-1.687,0.801
			s-0.578,1.295-0.578,2.285v2.41c0,0.981,0.195,1.744,0.588,2.285c0.392,0.543,0.955,0.813,1.69,0.813
			c0.734,0,1.296-0.271,1.684-0.81c0.387-0.539,0.58-1.303,0.58-2.289L391.154,318.716L391.154,318.716z"/>
		<path fill="#848484" d="M397.351,324.81h-0.797v-8.887l-2.457,0.287v-0.559l3.254-0.584V324.81z"/>
	</g>
	<g>
		<path fill="#848484" d="M448.232,320.671c0,1.248-0.27,2.209-0.81,2.881c-0.541,0.674-1.291,1.01-2.251,1.01
			c-0.956,0-1.708-0.337-2.256-1.014c-0.546-0.674-0.819-1.633-0.819-2.877v-2.158c0-1.245,0.27-2.205,0.81-2.883
			c0.54-0.676,1.291-1.016,2.251-1.016s1.713,0.34,2.258,1.016c0.545,0.678,0.817,1.639,0.817,2.883V320.671L448.232,320.671z
			 M447.435,318.376c0-0.99-0.195-1.752-0.584-2.285s-0.954-0.801-1.694-0.801s-1.302,0.268-1.687,0.801
			c-0.386,0.533-0.578,1.295-0.578,2.285v2.41c0,0.981,0.195,1.744,0.588,2.285c0.391,0.543,0.955,0.813,1.69,0.813
			c0.734,0,1.296-0.27,1.684-0.809c0.387-0.539,0.58-1.303,0.58-2.289L447.435,318.376L447.435,318.376z"/>
		<path fill="#848484" d="M453.632,324.47h-0.797v-8.887l-2.457,0.287v-0.559l3.254-0.584V324.47z"/>
		<path fill="#848484" d="M460.788,324.548c0.153-0.248,0.304-0.498,0.453-0.752c-0.187,0.052-0.383,0.09-0.603,0.09
			c-0.735,0-1.299-0.271-1.69-0.813c-0.393-0.543-0.588-1.305-0.588-2.287v-2.408c0-0.991,0.193-1.754,0.578-2.287
			c0.385-0.532,0.947-0.799,1.688-0.799c0.739,0,1.304,0.267,1.693,0.799c0.391,0.533,0.584,1.296,0.584,2.287v2.137
			c0.357-0.891,0.619-1.801,0.755-2.721c-0.089-0.898-0.342-1.625-0.774-2.164c-0.544-0.676-1.298-1.016-2.258-1.016
			c-0.961,0-1.712,0.34-2.252,1.016c-0.54,0.678-0.81,1.639-0.81,2.883v2.158c0,1.244,0.274,2.203,0.819,2.877
			c0.547,0.677,1.299,1.014,2.255,1.014C460.691,324.562,460.737,324.552,460.788,324.548z"/>
	</g>
	<g>
		<path fill="#ACACAC" d="M391.876,269.109c0.019,0.157,0.038,0.313,0.038,0.492v1.926c0,0.79-0.155,1.4-0.465,1.832
			c-0.309,0.433-0.758,0.648-1.347,0.648s-1.039-0.217-1.352-0.651c-0.228-0.313-0.343-0.752-0.405-1.25
			c-0.169,0.254-0.336,0.51-0.494,0.767c0.108,0.331,0.253,0.625,0.448,0.866c0.437,0.541,1.039,0.81,1.804,0.81
			c0.769,0,1.369-0.27,1.801-0.808c0.433-0.538,0.648-1.307,0.648-2.306v-1.727c0-0.388-0.045-0.729-0.114-1.045
			C392.254,268.815,392.062,268.959,391.876,269.109z"/>
		<path fill="#ACACAC" d="M396.871,274.475h-0.638v-7.109l-1.966,0.228v-0.446l2.603-0.468L396.871,274.475L396.871,274.475z"/>
	</g>
	<g>
		<path fill="#ACACAC" d="M445.481,274.475h-0.638v-7.109l-1.966,0.228v-0.446l2.603-0.468L445.481,274.475L445.481,274.475z"/>
		<path fill="#ACACAC" d="M452.878,271.936c-0.047,0.592-0.191,1.07-0.444,1.423c-0.311,0.433-0.758,0.648-1.347,0.648
			s-1.039-0.217-1.353-0.651c-0.313-0.433-0.47-1.043-0.47-1.829v-1.926c0-0.233,0.022-0.44,0.053-0.637
			c-0.203-0.071-0.397-0.152-0.589-0.241c-0.06,0.302-0.102,0.622-0.102,0.986v1.727c0,0.995,0.219,1.763,0.655,2.303
			c0.438,0.54,1.039,0.81,1.805,0.81c0.769,0,1.369-0.27,1.801-0.808c0.257-0.32,0.427-0.733,0.528-1.219
			C453.249,272.315,453.07,272.119,452.878,271.936z"/>
	</g>
	<g>
		<path fill="#ACACAC" d="M389.211,335.96c0.222,0.19,0.434,0.39,0.637,0.597v-5.949l-2.604,0.468v0.446l1.967-0.229V335.96z"/>
		<path fill="#ACACAC" d="M397.902,335.363c0,0.999-0.217,1.768-0.647,2.307c-0.433,0.537-1.032,0.808-1.802,0.808
			c-0.765,0-1.366-0.271-1.804-0.81c-0.437-0.541-0.656-1.309-0.656-2.303v-1.728c0-0.995,0.217-1.765,0.648-2.306
			c0.432-0.543,1.032-0.813,1.801-0.813c0.77,0,1.371,0.271,1.806,0.813c0.437,0.541,0.654,1.311,0.654,2.306V335.363z
			 M397.264,333.528c0-0.793-0.155-1.403-0.468-1.829s-0.765-0.64-1.355-0.64s-1.041,0.214-1.35,0.64s-0.462,1.036-0.462,1.829
			v1.927c0,0.785,0.156,1.396,0.47,1.828c0.313,0.434,0.764,0.651,1.352,0.651s1.037-0.215,1.348-0.647
			c0.309-0.433,0.465-1.041,0.465-1.832L397.264,333.528L397.264,333.528z"/>
	</g>
	<g>
		<path fill="#ACACAC" d="M444.802,338.402h-0.639v-7.109l-1.966,0.229v-0.445l2.604-0.469L444.802,338.402L444.802,338.402z"/>
		<path fill="#ACACAC" d="M451.076,337.809c-0.2,0.078-0.419,0.126-0.67,0.126c-0.588,0-1.039-0.217-1.352-0.65
			c-0.313-0.434-0.47-1.043-0.47-1.83v-1.926c0-0.793,0.153-1.402,0.462-1.828c0.308-0.427,0.758-0.641,1.35-0.641
			s1.043,0.214,1.355,0.641c0.312,0.426,0.468,1.035,0.468,1.828v1.926c0,0.605-0.12,1.07-0.301,1.465
			c0.229-0.25,0.461-0.498,0.702-0.735c0.063-0.06,0.13-0.095,0.196-0.126c0.026-0.219,0.04-0.45,0.04-0.696v-1.728
			c0-0.994-0.218-1.764-0.654-2.305c-0.436-0.543-1.036-0.813-1.806-0.813c-0.769,0-1.369,0.271-1.801,0.813
			c-0.433,0.541-0.648,1.311-0.648,2.305v1.728c0,0.995,0.22,1.763,0.656,2.304c0.423,0.522,1.004,0.787,1.734,0.803
			C450.594,338.262,450.843,338.044,451.076,337.809z"/>
	</g>
	<path fill="#ACACAC" d="M420.74,349c-25.02,0-45.375-20.354-45.375-45.375c0-25.02,20.355-45.375,45.375-45.375
		c25.021,0,45.375,20.355,45.375,45.375C466.115,328.645,445.76,349,420.74,349z M420.74,260.25
		c-23.917,0-43.375,19.458-43.375,43.375c0,23.918,19.458,43.375,43.375,43.375s43.375-19.457,43.375-43.375
		C464.115,279.708,444.657,260.25,420.74,260.25z"/>
	<rect x="415.865" y="253" fill="#ACACAC" width="10.25" height="5.5"/>
	<path fill="#ACACAC" d="M431.865,251.56c0,1.429-1.158,2.587-2.587,2.587h-16.826c-1.429,0-2.587-1.158-2.587-2.587v-2.473
		c0-1.429,1.158-2.587,2.587-2.587h16.826c1.429,0,2.587,1.158,2.587,2.587V251.56z"/>
	<path fill="#ACACAC" d="M461.937,271.373c-0.878,0.878-2.301,0.878-3.179,0l-7.268-7.267c-0.878-0.878-0.878-2.301,0-3.179
		l1.521-1.52c0.878-0.878,2.301-0.878,3.179,0l7.267,7.267c0.879,0.878,0.879,2.301,0,3.179L461.937,271.373z"/>
</g>
</svg>
