<?xml version="1.0" encoding="UTF-8" standalone="no"?>
<svg width="51px" height="60px" viewBox="0 0 51 60" version="1.1" xmlns="http://www.w3.org/2000/svg" xmlns:xlink="http://www.w3.org/1999/xlink">
    <!-- Generator: Sketch 3.6.1 (26313) - http://www.bohemiancoding.com/sketch -->
    <title>ico-7_hover</title>
    <desc>Created with Sketch.</desc>
    <defs></defs>
    <g id="Page-1" stroke="none" stroke-width="1" fill="none" fill-rule="evenodd">
        <g id="ico-7_hover" fill="#AC9455">
            <g id="Capa_1">
                <g id="g3">
                    <path d="M33.6763636,48.3709091 C33.1018182,48.3709091 32.54,48.3345455 31.9781818,48.2854545 L31.9781818,52.1109091 L2.98,52.1109091 L2.98,6.37818182 L31.9781818,6.37818182 L31.9781818,10.3672727 C32.5418182,10.3181818 33.1,10.2818182 33.6781818,10.2818182 C34.0472727,10.2818182 34.4127273,10.3181818 34.7763636,10.3345455 L34.7763636,4.02 C34.7781818,1.80727273 32.9690909,0 30.7545455,0 L4.20545455,0 C1.99272727,0 0.181818182,1.80727273 0.181818182,4.02 L0.181818182,55.5309091 C0.181818182,57.7418182 1.99272727,59.5527273 4.20545455,59.5527273 L30.7545455,59.5527273 C32.9690909,59.5527273 34.7781818,57.7418182 34.7781818,55.5309091 L34.7781818,48.3145455 C34.4145455,48.3363636 34.0454545,48.3709091 33.6763636,48.3709091 L33.6763636,48.3709091 L33.6763636,48.3709091 Z M13.2345455,2.9 L21.7272727,2.9 C21.9963636,2.9 22.2145455,3.11818182 22.2145455,3.39272727 C22.2145455,3.66181818 21.9981818,3.87818182 21.7272727,3.87818182 L13.2345455,3.87818182 C12.9654545,3.87818182 12.7472727,3.66363636 12.7472727,3.39272727 C12.7472727,3.11818182 12.9636364,2.9 13.2345455,2.9 L13.2345455,2.9 L13.2345455,2.9 Z M17.4818182,57.5418182 C16.3709091,57.5418182 15.4727273,56.64 15.4727273,55.5327273 C15.4727273,54.4218182 16.3709091,53.5254545 17.4818182,53.5254545 C18.5927273,53.5254545 19.4945455,54.42 19.4945455,55.5327273 C19.4945455,56.64 18.5909091,57.5418182 17.4818182,57.5418182 L17.4818182,57.5418182 L17.4818182,57.5418182 Z M45.4636364,22.3163636 C45.5581818,22.4327273 45.6727273,22.5090909 45.7963636,22.5509091 L45.2454545,22.8927273 L44.2909091,21.66 L44.4436364,21.4454545 C44.7272727,21.8072727 45.4636364,22.3163636 45.4636364,22.3163636 L45.4636364,22.3163636 L45.4636364,22.3163636 Z M33.6763636,12.9072727 C24.6072727,12.9072727 17.2527273,20.2618182 17.2527273,29.3272727 C17.2527273,38.3981818 24.6072727,45.7472727 33.6763636,45.7472727 C42.7454545,45.7472727 50.0963636,38.3981818 50.0963636,29.3272727 C50.0981818,20.2618182 42.7490909,12.9072727 33.6763636,12.9072727 L33.6763636,12.9072727 L33.6763636,12.9072727 Z M24.0454545,17.9890909 C24.62,18.8527273 23.2490909,18.9909091 23.2490909,18.9909091 C23.1072727,19.0309091 22.9654545,19.0927273 22.8236364,19.1654545 C23.2090909,18.7454545 23.6218182,18.3563636 24.0454545,17.9890909 L24.0454545,17.9890909 L24.0454545,17.9890909 Z M25.5272727,32.3563636 C25.0127273,33 25.0836364,33.6545455 25.0836364,33.6545455 C25.7436364,35.9672727 24.4236364,35.9672727 24.4236364,35.9672727 C23.4690909,36.1072727 23.8381818,37.2618182 23.8381818,37.2618182 C23.8381818,37.9109091 23.4690909,38.4236364 23.4690909,38.4236364 C23.8381818,38.9272727 23.5472727,39.5109091 23.5472727,39.5109091 C23.4727273,39.6236364 23.44,39.7490909 23.4363636,39.8727273 C20.62,37.1872727 18.8581818,33.4018182 18.8581818,29.2090909 C18.8581818,28.3418182 18.9363636,27.5 19.0781818,26.6709091 C19.1636364,26.5272727 19.2163636,26.4345455 19.2163636,26.4345455 L19.8054545,26.7963636 C20.32,26.58 20.6072727,27.3709091 20.6072727,27.3709091 C21.0472727,27.2963636 21.1963636,28.0945455 21.1963636,28.0945455 C22.2963636,27.66 22.5145455,29.6781818 22.5145455,29.6781818 C23.1036364,29.6781818 23.7654545,30.3981818 23.7654545,30.3981818 C24.8636364,30.3981818 25.0836364,31.12 25.0836364,31.12 C26.0381818,30.9781818 25.5272727,32.3563636 25.5272727,32.3563636 L25.5272727,32.3563636 L25.5272727,32.3563636 Z M25.9272727,17.2890909 C25.8327273,18.0872727 24.4363636,17.9890909 24.0981818,17.9509091 C24.6836364,17.4581818 25.3090909,17.0036364 25.9690909,16.6072727 L25.9272727,17.2890909 L25.9272727,17.2890909 L25.9272727,17.2890909 Z M46.1945455,24.6236364 C46.1945455,24.6236364 45.9072727,25.4181818 45.0254545,25.8527273 C45.0254545,25.8527273 43.7781818,22.8181818 42.2381818,22.1690909 C42.2381818,22.1690909 43.8509091,24.9872727 45.1709091,26.2890909 C45.1709091,26.2890909 45.5363636,26.5090909 46.1218182,26.22 C46.1218182,26.22 46.1927273,28.6054545 44.7981818,30.1927273 C44.7981818,30.1927273 44.4363636,31.0636364 44.5818182,31.9963636 C44.5818182,31.9963636 44.7981818,33.5872727 43.6290909,34.3818182 C43.6290909,34.3818182 43.1145455,34.74 43.1145455,35.6072727 C43.1145455,35.6072727 43.1145455,36.3272727 42.3090909,36.3272727 C42.3090909,36.3272727 41.4290909,38.1909091 38.9363636,37.8327273 C38.9363636,37.8327273 38.9363636,36.4763636 38.2109091,34.8854545 C38.2109091,34.8854545 37.5472727,34.0145455 38.5672727,33.0072727 C38.5672727,33.0072727 39.5254545,32.5745455 38.0618182,30.9145455 C38.0618182,30.9145455 37.1127273,30.1181818 37.6218182,29.2527273 C37.6218182,29.2527273 37.7672727,28.5309091 37.4036364,28.3127273 C37.4036364,28.3127273 36.3818182,28.5254545 36.1581818,27.8090909 C36.1581818,27.8090909 34.2490909,28.5290909 33.3709091,28.1690909 C33.3709091,28.1690909 32.2727273,28.8890909 31.3890909,27.2254545 C31.3890909,27.2254545 29.9236364,26.3563636 30.4418182,25.5636364 C30.4418182,25.5636364 30.5872727,24.7709091 30.5872727,23.9763636 C30.5872727,23.9763636 30.7327273,22.6745455 32.2,22.0272727 C32.2,22.0272727 32.64,20.7236364 33.2981818,20.7236364 C33.2981818,20.7236364 34.6945455,20.6490909 35.4290909,20.3672727 C35.4290909,20.3672727 36.38,20.0763636 36.9636364,20.2218182 C36.9636364,20.2218182 37.3327273,20.7981818 37.1127273,21.16 C37.1127273,21.16 38.1345455,20.8036364 38.8,21.5909091 C38.8,21.5909091 39.4563636,21.5236364 39.3072727,21.0163636 C39.3072727,21.0163636 41,22.0327273 41.8781818,21.4509091 C41.8781818,21.4509091 42.0945455,20.0054545 41.2927273,20.0763636 C41.2927273,20.0763636 40.0454545,20.1490909 39.4563636,19.2818182 C39.4563636,19.2818182 38.8,18.9909091 38.9418182,19.4272727 C38.9418182,19.4272727 39.02,19.8581818 39.5309091,20.0018182 C39.5309091,20.0018182 39.3854545,20.4345455 38.8745455,20.2181818 C38.8745455,20.2181818 38.4363636,20.0727273 38.2909091,19.1309091 C38.2909091,19.1309091 37.1163636,18.9181818 36.8181818,18.4109091 C36.8181818,18.4109091 36.0927273,18.6272727 37.7690909,19.4272727 C37.7690909,19.4272727 38.4327273,19.9272727 37.5490909,20.2927273 C37.5490909,20.2927273 36.9636364,20.0054545 37.6236364,19.8618182 C37.6236364,19.8618182 37.4781818,19.5709091 36.8181818,19.3545455 C36.8181818,19.3545455 36.3836364,18.9254545 36.3090909,18.6345455 C36.3090909,18.6345455 35.4345455,19.2127273 35.06,18.8509091 C35.06,18.8509091 34.9109091,19.5709091 34.4745455,19.5709091 C34.4745455,19.5709091 34.3963636,20.6545455 32.9327273,20.2218182 L32.4890909,20.2218182 C32.4890909,20.2218182 32.1236364,19.2109091 32.6381818,18.92 C32.6381818,18.92 33.5890909,19.1363636 33.8090909,18.92 C34.0327273,18.7072727 34.1763636,18.3436364 33.5927273,18.2 C33.5927273,18.2 32.7181818,17.9763636 33.0781818,17.5454545 C33.0781818,17.5454545 33.5181818,17.0436364 33.9581818,17.6945455 C33.9581818,17.6945455 34.6909091,17.1854545 35.6418182,17.1181818 C35.6418182,17.1181818 37.3345455,16.3909091 36.8909091,15.8836364 C36.8909091,15.8836364 35.7945455,16.5345455 35.28,16.1781818 C35.28,16.1781818 33.8345455,15.7 35.0127273,14.5509091 C40.1090909,15.0418182 44.4418182,18.1309091 46.6818182,22.4690909 C46.4618182,22.5618182 46.16,22.6454545 45.8836364,22.5763636 C46.1018182,22.8036364 47.0436364,23.8581818 46.1945455,24.6236364 L46.1945455,24.6236364 L46.1945455,24.6236364 Z" id="path5"></path>
                </g>
            </g>
        </g>
    </g>
</svg>