<?xml version="1.0" encoding="UTF-8" standalone="no"?>
<svg width="63px" height="60px" viewBox="0 0 63 60" version="1.1" xmlns="http://www.w3.org/2000/svg" xmlns:xlink="http://www.w3.org/1999/xlink">
    <!-- Generator: Sketch 3.6.1 (26313) - http://www.bohemiancoding.com/sketch -->
    <title>ico-1</title>
    <desc>Created with Sketch.</desc>
    <defs></defs>
    <g id="Page-1" stroke="none" stroke-width="1" fill="none" fill-rule="evenodd">
        <g id="ico-1" fill="#AC9455">
            <path d="M62.6988116,23.4040433 C62.6988116,23.9562463 62.372256,24.5586485 61.7191424,25.2112522 L48.0414568,38.5394082 L51.2818999,57.3644888 C51.3070202,57.5401896 51.3195793,57.7911903 51.3195793,58.117491 C51.3195793,58.6445933 51.1877025,59.0901209 50.9239443,59.4540716 C50.6601884,59.8180224 50.2771125,60 49.7747166,60 C49.2974433,60 48.7950496,59.8493978 48.2675333,59.5481978 L31.3494047,50.6627597 L14.4312761,59.5481978 C13.8786439,59.8493978 13.376248,60 12.924095,60 C12.3965788,60 12.0009438,59.8180224 11.7371879,59.4540716 C11.4734298,59.0901209 11.3415507,58.6445933 11.3415507,58.117491 C11.3415507,57.966891 11.366671,57.7158903 11.4169118,57.3644888 L14.6573548,38.5394082 L0.941989835,25.2112522 C0.313996612,24.5335477 0,23.9311455 0,23.4040433 C0,22.4753403 0.70335205,21.8980366 2.11005615,21.6721366 L21.0252027,18.9236754 L29.5031067,1.79285147 C29.98038,0.763747743 30.5958142,0.249194754 31.3494047,0.249194754 C32.1029975,0.249194754 32.7184294,0.763747743 33.195705,1.79285147 L41.673609,18.9236754 L60.5887555,21.6721366 C61.9954596,21.8980366 62.6988116,22.4753403 62.6988116,23.4040433 L62.6988116,23.4040433 L62.6988116,23.4040433 Z" id="Shape"></path>
        </g>
    </g>
</svg>