<?xml version="1.0" encoding="UTF-8" standalone="no"?>
<svg width="72px" height="60px" viewBox="0 0 72 60" version="1.1" xmlns="http://www.w3.org/2000/svg" xmlns:xlink="http://www.w3.org/1999/xlink">
    <!-- Generator: Sketch 3.6.1 (26313) - http://www.bohemiancoding.com/sketch -->
    <title>ico-9</title>
    <desc>Created with Sketch.</desc>
    <defs></defs>
    <g id="Page-1" stroke="none" stroke-width="1" fill="none" fill-rule="evenodd">
        <g id="ico-9" fill="#FAD46B">
            <path d="M71.5874595,48.9587027 L68.8543784,36.5675676 C69.7602162,34.5632432 70.2191351,32.4265946 70.2191351,30.2078919 C70.2191351,25.1967568 67.7925405,20.531027 63.7819459,17.639027 L63.7819459,16.2638919 C63.7819459,13.5927568 61.6086486,11.4194595 58.9371892,11.4194595 L52.2097297,11.4194595 C50.0792432,11.4194595 48.2656216,12.8017297 47.6185946,14.7168649 L37.3349189,14.7168649 L37.3349189,1.92032432 C37.3349189,1.02486486 36.6087568,0.298702703 35.7132973,0.298702703 C34.8178378,0.298702703 34.0916757,1.02486486 34.0916757,1.92032432 L34.0916757,14.7168649 L23.808,14.7168649 C23.160973,12.8020541 21.3473514,11.4194595 19.2168649,11.4194595 L12.4890811,11.4194595 C9.81794595,11.4194595 7.64432432,13.5927568 7.64432432,16.2638919 L7.64432432,16.8619459 C2.91502703,19.644 0.0171891892,24.6694054 0.0171891892,30.2078919 C0.0171891892,33.0282162 0.776432432,35.7658378 2.21902703,38.1684324 L0.247459459,47.1081081 C-0.969081081,52.6248649 2.41881081,58.2051892 7.79967568,59.5475676 C8.62637838,59.7538378 9.47383784,59.8582703 10.3177297,59.8582703 C15.1284324,59.8582703 19.3731892,56.4444324 20.4107027,51.7404324 L22.0644324,44.243027 C24.4021622,43.1513514 26.4149189,41.5031351 27.9561081,39.4177297 L42.2772973,39.4177297 C44.1016216,41.880973 46.6112432,43.7494054 49.4821622,44.783027 L51.0165405,51.7404324 C52.0540541,56.4441081 56.2984865,59.8582703 61.1091892,59.8582703 L61.1091892,59.8582703 C61.7983784,59.8582703 62.4914595,59.7885405 63.1718919,59.6503784 C65.9747027,59.6052973 68.3948108,58.4850811 70.0031351,56.4836757 C71.6442162,54.4410811 72.2069189,51.7686486 71.5874595,48.9587027 L71.5874595,48.9587027 L71.5874595,48.9587027 Z M23.6727568,31.536973 C23.6727568,32.4324324 22.9465946,33.1585946 22.0511351,33.1585946 L18.3554595,33.1585946 L18.3554595,36.8545946 C18.3554595,37.7500541 17.6292973,38.4762162 16.7338378,38.4762162 L13.6255135,38.4762162 C12.7300541,38.4762162 12.0038919,37.7500541 12.0038919,36.8545946 L12.0038919,33.1585946 L8.30789189,33.1585946 C7.41243243,33.1585946 6.68627027,32.4324324 6.68627027,31.536973 L6.68627027,28.4286486 C6.68627027,27.5331892 7.41243243,26.807027 8.30789189,26.807027 L12.0038919,26.807027 L12.0038919,23.1113514 C12.0038919,22.2158919 12.7300541,21.4897297 13.6255135,21.4897297 L16.7338378,21.4897297 C17.6292973,21.4897297 18.3554595,22.2158919 18.3554595,23.1113514 L18.3554595,26.807027 L22.0514595,26.807027 C22.9469189,26.807027 23.6730811,27.5331892 23.6730811,28.4286486 L23.6730811,31.536973 L23.6727568,31.536973 L23.6727568,31.536973 Z M48.8082162,32.7587027 C47.1405405,32.7587027 45.7835676,31.4020541 45.7835676,29.7343784 C45.7835676,28.0667027 47.1405405,26.7097297 48.8082162,26.7097297 C50.4758919,26.7097297 51.8328649,28.0667027 51.8328649,29.7343784 C51.8328649,31.4020541 50.4758919,32.7587027 48.8082162,32.7587027 L48.8082162,32.7587027 L48.8082162,32.7587027 Z M55.0281081,38.9785946 C53.3604324,38.9785946 52.0034595,37.6216216 52.0034595,35.9539459 C52.0034595,34.2862703 53.3604324,32.9296216 55.0281081,32.9296216 C56.6957838,32.9296216 58.0524324,34.2862703 58.0524324,35.9539459 C58.0524324,37.6219459 56.6957838,38.9785946 55.0281081,38.9785946 L55.0281081,38.9785946 L55.0281081,38.9785946 Z M55.0281081,26.5388108 C53.3604324,26.5388108 52.0034595,25.1818378 52.0034595,23.5141622 C52.0034595,21.8464865 53.3604324,20.4898378 55.0281081,20.4898378 C56.6957838,20.4898378 58.0524324,21.8464865 58.0524324,23.5141622 C58.0524324,25.1818378 56.6957838,26.5388108 55.0281081,26.5388108 L55.0281081,26.5388108 L55.0281081,26.5388108 Z M61.248,32.7587027 C59.5803243,32.7587027 58.2236757,31.4020541 58.2236757,29.7343784 C58.2236757,28.0667027 59.5803243,26.7097297 61.248,26.7097297 C62.9156757,26.7097297 64.2726486,28.0667027 64.2726486,29.7343784 C64.2726486,31.4020541 62.9156757,32.7587027 61.248,32.7587027 L61.248,32.7587027 L61.248,32.7587027 Z" id="path3"></path>
        </g>
    </g>
</svg>