<?xml version="1.0" encoding="UTF-8" standalone="no"?>
<svg width="60px" height="61px" viewBox="0 0 60 61" version="1.1" xmlns="http://www.w3.org/2000/svg" xmlns:xlink="http://www.w3.org/1999/xlink">
    <!-- Generator: Sketch 3.6.1 (26313) - http://www.bohemiancoding.com/sketch -->
    <title>ico-6</title>
    <desc>Created with Sketch.</desc>
    <defs></defs>
    <g id="Page-1" stroke="none" stroke-width="1" fill="none" fill-rule="evenodd">
        <g id="ico-6" transform="translate(0.398438, 0.000000)" fill="#AC9455">
            <path d="M55.5562656,2.72863281 C53.2266016,0.969132813 50.1409688,0 46.8664766,0 C43.5923828,0 40.5058203,0.969132813 38.1766875,2.72863281 C35.7864609,4.53408594 34.4705547,6.95326563 34.4705547,9.54071875 C34.4705547,11.7520469 35.4610703,13.8875391 37.2675859,15.5863438 L37.2675859,22.1636172 C37.2675859,22.4279141 37.4123516,22.6714922 37.6447734,22.7980625 C37.75275,22.8566328 37.8720156,22.8859844 37.9906172,22.8859844 C38.1270156,22.8859844 38.2632813,22.8476016 38.3822813,22.7708359 L44.3966953,18.8928438 C45.2056563,19.0180859 46.0350703,19.0817031 46.8664766,19.0817031 C50.1407031,19.0817031 53.2266016,18.1125703 55.5562656,16.3528047 C57.9460938,14.5470859 59.2623984,12.1281719 59.2623984,9.54071875 C59.2623984,6.95326563 57.9460938,4.53408594 55.5562656,2.72863281 L55.5562656,2.72863281 L55.5562656,2.72863281 Z M53.9550781,14.23325 C52.0840156,15.6470391 49.5665547,16.4254531 46.8664766,16.4254531 C46.1717344,16.4254531 45.4775234,16.3725937 44.8037656,16.2679375 L43.8058125,16.1130781 L42.9571406,16.6603984 L39.9235703,18.6163281 L39.9235703,15.5863437 L39.9235703,14.4380469 L39.0871172,13.6515312 C37.8227422,12.4624609 37.1265391,11.0025859 37.1265391,9.54085156 C37.1265391,7.8061875 38.0679141,6.13965625 39.7774766,4.84832031 C41.6486719,3.43479687 44.1661328,2.65638281 46.8662109,2.65638281 C49.5660234,2.65638281 52.0834844,3.43479687 53.9548125,4.84805469 C55.6642422,6.13965625 56.6058828,7.8061875 56.6058828,9.54085156 C56.6058828,11.2755156 55.6646406,12.9417812 53.9550781,14.23325 L53.9550781,14.23325 L53.9550781,14.23325 Z" id="path7"></path>
            <path d="M35.047625,40.9532656 L31.9874922,39.5449219 C31.9840391,37.2990625 31.9629219,26.1106719 31.9758047,24.9339531 C32.0446016,18.0505469 28.7665234,13.9315 20.7825,13.9315 C12.7975469,13.9315 9.51880469,18.1807031 9.58866406,25.0638438 L9.58866406,39.5442578 L6.52826563,40.9532656 C5.61,41.3299219 4.70727344,41.9022109 4.24814063,42.8983047 C4.24814063,42.8983047 -2.49886719,60.1325859 1.16104688,60.1325859 L40.4148438,60.1325859 C44.074625,60.1325859 37.3274844,42.8983047 37.3274844,42.8983047 C36.9274531,41.9428516 35.965625,41.3297891 35.047625,40.9532656 L35.047625,40.9532656 L35.047625,40.9532656 Z M26.9208281,41.4182422 C26.9208281,41.4182422 21.7847031,43.1201016 20.7953828,49.0977266 C20.7925938,49.1135313 20.7828984,49.1135313 20.7801094,49.0977266 C19.7907891,43.1201016 14.6546641,41.4182422 14.6546641,41.4182422 L18.0211953,38.0750859 C13.2755391,35.9465 12.0132891,28.7090156 12.0132891,28.7090156 C11.7451406,27.6625859 11.7128672,26.9468594 11.7128672,26.9468594 C14.08875,26.7849609 22.3811641,26.0708281 22.9480078,23.3827031 C23.7296094,24.8265078 27.8675156,28.4557422 29.5418828,28.7311953 C29.5418828,28.7311953 27.9167891,35.8883281 23.4776641,38.0700391 L26.9208281,41.4182422 L26.9208281,41.4182422 L26.9208281,41.4182422 Z" id="path9"></path>
        </g>
    </g>
</svg>