<?xml version="1.0" encoding="UTF-8" standalone="no"?>
<svg width="63px" height="60px" viewBox="0 0 63 60" version="1.1" xmlns="http://www.w3.org/2000/svg" xmlns:xlink="http://www.w3.org/1999/xlink">
    <!-- Generator: Sketch 3.6.1 (26313) - http://www.bohemiancoding.com/sketch -->
    <title>business-(1)</title>
    <desc>Created with Sketch.</desc>
    <defs></defs>
    <g id="Page-1" stroke="none" stroke-width="1" fill="none" fill-rule="evenodd">
        <g id="business-(1)" fill="#AC9455">
            <g id="Capa_1">
                <g id="Group">
                    <path d="M2.75552525,40.4208633 C0.553982883,45.4856115 0.0143891658,50.5071942 1.15169482e-13,54.1906475 C-0.0071945829,57.3705036 2.57566068,59.9460432 5.75566632,59.9460432 L31.5050785,59.9460432 L56.6789241,59.9460432 C59.8588578,59.9460432 62.441785,57.3705036 62.4345904,54.1906475 C62.4273239,50.5071942 61.8806075,45.4856115 59.6862598,40.4208633 C55.4198721,30.5935252 47.7000127,19.881295 39.6133735,14.7086331 L31.5050785,14.7086331 L22.821217,14.7086331 C14.7345058,19.881295 7.01471833,30.5935252 2.75552525,40.4208633 L2.75552525,40.4208633 L2.75552525,40.4208633 Z M35.239139,40.1546763 C34.3829836,39.1043165 32.9152168,38.6582734 31.5914855,38.3561151 C29.9511206,37.9820863 28.4762311,37.6079856 26.994075,36.7806475 C26.0443901,36.2482734 25.2961535,35.5000719 24.7781435,34.5576259 C24.2673281,33.6223741 24.0083231,32.5432374 24.0083231,31.3634532 C24.0083231,29.2554676 24.7637543,27.5288489 26.2602276,26.2195683 C27.1451613,25.442446 28.3538512,24.9028777 29.720822,24.6582734 L29.720822,23.5071942 C29.720822,22.7302158 30.3539453,22.1043165 31.1237656,22.1043165 L31.8863914,22.1043165 C32.6634064,22.1043165 33.2893351,22.7374101 33.2893351,23.5071942 L33.2893351,24.6726619 C34.5556536,24.9171942 35.6851312,25.4136691 36.5268974,26.118705 C37.4262203,26.8597122 38.0809992,27.8093525 38.4838239,28.9316547 C38.7788018,29.7589928 38.2392081,30.6582734 37.361469,30.7878417 L36.620355,30.8957554 C35.9512588,30.9964029 35.2966237,30.6007194 35.0807862,29.9605036 C34.9009217,29.4352518 34.6635004,29.0035971 34.3685225,28.6727338 C33.6994263,27.9173381 32.6418226,27.4928777 31.4691056,27.4928777 C30.2244428,27.4928777 29.0444592,27.9820863 28.3178783,28.7951079 C27.7207279,29.4641727 27.4329446,30.2339568 27.4329446,31.1476259 C27.4329446,32.0396403 27.684755,32.8023022 28.1811093,33.3921583 C29.2171292,34.6368345 30.9150508,34.9821583 32.5554157,35.3130216 C33.5123672,35.5072662 34.5052196,35.708705 35.361303,36.0828058 C36.275015,36.4856835 37.0377128,36.9892806 37.6204021,37.5720144 C38.2031633,38.1547482 38.6636166,38.8597122 38.9801782,39.6655396 C39.2895453,40.4641727 39.4550207,41.3417986 39.4550207,42.2770504 C39.4550207,44.3202158 38.7931191,46.0468345 37.4908996,47.4209353 C36.4189067,48.5433094 34.965601,49.2914388 33.2892631,49.5864748 L33.2892631,50.4353957 C33.2892631,51.2123741 32.6561398,51.8382734 31.8863195,51.8382734 L31.1236937,51.8382734 C30.3466787,51.8382734 29.72075,51.2051799 29.72075,50.4353957 L29.72075,49.5505036 C28.7998434,49.3778417 27.9148378,49.0756115 27.1234336,48.6728058 C26.1881379,48.1907914 25.37515,47.4066187 24.6989312,46.3418705 C24.2456005,45.6297122 23.9218443,44.8094964 23.7203959,43.8886331 C23.5549205,43.1116547 24.0729305,42.356259 24.85714,42.2195683 L25.6198378,42.0900719 C26.3464906,41.9605755 27.0443652,42.4138129 27.2242298,43.1260432 C27.4400672,43.9676978 27.7278506,44.622446 28.0875797,45.0828058 C28.893373,46.118777 30.2243708,46.737482 31.6488982,46.737482 L31.6488982,46.737482 C31.8935141,46.737482 32.1309353,46.7158993 32.3683565,46.6871942 C33.3899873,46.5360432 34.2965047,46.0540288 34.9368226,45.327482 C35.6059188,44.5648921 35.9440642,43.6008633 35.9440642,42.4713669 C35.9442081,41.5 35.7067869,40.7230216 35.239139,40.1546763 L35.239139,40.1546763 L35.239139,40.1546763 Z" id="Shape"></path>
                    <path d="M31.5195396,0.0395683453 L31.5051505,0.0395683453 L31.5051505,0.0395683453 L20.5334115,0.0683453237 C18.5261229,0.0755395683 17.3318222,2.31294964 18.4469825,3.98201439 L23.3680772,11.3633094 L31.5051505,11.3633094 L31.5339288,11.3633094 L39.6710021,11.3633094 L44.5920968,3.98201439 C45.7072571,2.31294964 44.5128844,0.0755395683 42.5056677,0.0683453237 L31.5339288,0.0395683453 L31.5339288,0.0395683453 L31.5195396,0.0395683453 L31.5195396,0.0395683453 L31.5195396,0.0395683453 Z" id="Shape"></path>
                </g>
            </g>
        </g>
    </g>
</svg>