<?xml version="1.0" encoding="UTF-8" standalone="no"?>
<svg width="73px" height="60px" viewBox="0 0 73 60" version="1.1" xmlns="http://www.w3.org/2000/svg" xmlns:xlink="http://www.w3.org/1999/xlink">
    <!-- Generator: Sketch 3.6.1 (26313) - http://www.bohemiancoding.com/sketch -->
    <title>ico-4</title>
    <desc>Created with Sketch.</desc>
    <defs></defs>
    <g id="Page-1" stroke="none" stroke-width="1" fill="none" fill-rule="evenodd">
        <g id="ico-4" fill="#AC9455">
            <g id="Capa_1">
                <g id="g3">
                    <g id="Layer_1_120_">
                        <g id="g6">
                            <g id="g8" transform="translate(0.000000, 4.076923)">
                                <path d="M49.468,5.62615385 C49.296875,5.45384615 49.084125,5.32923077 48.8544167,5.25692308 L35.0179583,0.921538462 C29.4849167,-0.812307692 25.885125,2.21230769 24.9154167,3.18307692 C24.349625,3.74769231 23.9164167,4.34307692 23.6944167,4.86153846 L17.5308333,19.3292308 C17.1777917,20.1569231 17.2980417,21.26 17.8515,22.36 C18.6439167,23.9307692 20.0715,25.0630769 21.778125,25.4707692 C23.68825,25.9276923 25.6692917,25.3076923 27.2202083,23.7615385 C27.6256667,23.3569231 27.971,22.9107692 28.1745,22.5323077 L30.2465,18.6969231 C30.5872083,18.0615385 31.0820833,17.4030769 31.6031667,16.8830769 C33.3807083,15.1076923 34.2255417,15.92 34.58475,16.2646154 C37.6850417,19.2507692 53.9388333,35.54 53.9388333,35.54 C54.5169583,36.1169231 54.3967083,37.2107692 53.6736667,37.9307692 C52.9521667,38.6492308 51.8545,38.7723077 51.2779167,38.1984615 L46.7115,33.6430769 C46.1225833,33.0538462 45.1729167,33.0538462 44.584,33.6430769 C43.9950833,34.2261538 43.9950833,35.1784615 44.584,35.7646154 L49.1504167,40.3230769 C49.727,40.8969231 49.60675,41.9907692 48.88525,42.7092308 C48.16375,43.4307692 47.0645417,43.5507692 46.4910417,42.9769231 L41.9230833,38.4215385 C41.3341667,37.8338462 40.3814167,37.8338462 39.7955833,38.4215385 C39.2066667,39.0046154 39.2066667,39.9569231 39.7955833,40.5446154 L44.362,45.1015385 C44.9385833,45.6769231 44.8137083,46.7707692 44.09375,47.4907692 C43.3737917,48.2092308 42.2776667,48.3323077 41.6995417,47.7553846 L37.133125,43.2 C36.5472917,42.6138462 35.593,42.6138462 35.005625,43.2 C34.4197917,43.7861538 34.4197917,44.7384615 35.005625,45.3215385 L39.5720417,49.88 C40.1501667,50.4569231 40.0268333,51.5507692 39.306875,52.2707692 C38.5822917,52.9907692 37.4861667,53.1123077 36.911125,52.5369231 L31.351875,46.9846154 C32.1458333,45.7938462 31.93,44.0661538 30.7521667,42.8861538 C29.4325,41.5707692 27.402125,41.4492308 26.227375,42.6246154 C27.402125,41.4507692 27.2865,39.4276923 25.96375,38.1092308 C24.641,36.7923077 22.61525,36.6707692 21.4405,37.8430769 C22.61525,36.6707692 22.4965417,34.6492308 21.17225,33.3323077 C19.8525833,32.0123077 17.8268333,31.8923077 16.649,33.0646154 C17.8268333,31.8923077 17.7050417,29.8707692 16.3838333,28.5492308 C15.1474167,27.3153846 13.305125,27.1476923 12.10725,28.0876923 L3.10545833,19.1046154 C2.51808333,18.5169231 1.56379167,18.5169231 0.976416667,19.1046154 C0.390583333,19.6892308 0.390583333,20.6415385 0.976416667,21.2292308 L9.95508333,30.1876923 L7.292625,32.8446154 C6.117875,34.0153846 6.23658333,36.0369231 7.560875,37.3584615 C8.88054167,38.6753846 10.9062917,38.7969231 12.0825833,37.6230769 C10.9062917,38.7969231 11.0265417,40.8169231 12.3492917,42.1369231 C13.6689583,43.4523077 15.69625,43.5769231 16.8725417,42.4030769 C15.69625,43.5769231 15.8149583,45.5969231 17.1377083,46.9153846 C18.4604583,48.2353846 20.4862083,48.3553846 21.6609583,47.1830769 C20.4862083,48.3538462 20.6049167,50.3738462 21.9276667,51.6953846 C23.248875,53.0123077 25.2730833,53.1338462 26.4509167,51.96 L29.2629167,49.1553846 L34.783625,54.6630769 C36.54575,56.4215385 39.5257917,56.2984615 41.434375,54.3969231 C42.364,53.4692308 42.8604167,52.2846154 42.9297917,51.1123077 C44.1045417,51.0430769 45.2931667,50.5461538 46.22125,49.6169231 C47.1524167,48.6892308 47.6519167,47.5046154 47.7228333,46.3323077 C48.8960417,46.2630769 50.0800417,45.7676923 51.0142917,44.8384615 C51.9439167,43.9092308 52.441875,42.7261538 52.5097083,41.5523077 C53.686,41.4846154 54.8730833,40.9892308 55.80425,40.0569231 C57.70975,38.1553846 57.8269167,35.1769231 56.0694167,33.4215385 L53.7415,31.0969231 L63.2998333,21.56 C63.8872083,20.9753846 63.8872083,20.0230769 63.2998333,19.4369231 L49.468,5.62615385 L49.468,5.62615385 L49.468,5.62615385 Z" id="path10"></path>
                            </g>
                            <g id="g12" transform="translate(49.875000, 0.000000)">
                                <path d="M22.24625,13.06 L10.0655417,0.904615385 C8.89079167,-0.269230769 6.98375,-0.269230769 5.80745833,0.904615385 L1.549375,5.15076923 C0.374625,6.32307692 0.374625,8.22615385 1.549375,9.39846154 L13.731625,21.5569231 C14.9079167,22.7292308 16.8149583,22.7292308 17.9897083,21.5569231 L22.24625,17.3092308 C23.4194583,16.1353846 23.4194583,14.2323077 22.24625,13.06 L22.24625,13.06 L22.24625,13.06 Z M15.8529583,19.2507692 C14.490125,19.2507692 13.3832083,18.1476923 13.3832083,16.7861538 C13.3832083,15.4246154 14.490125,14.32 15.8529583,14.32 C17.2173333,14.32 18.32425,15.4230769 18.32425,16.7861538 C18.3227083,18.1461538 17.2173333,19.2507692 15.8529583,19.2507692 L15.8529583,19.2507692 L15.8529583,19.2507692 Z" id="path14"></path>
                            </g>
                        </g>
                    </g>
                </g>
            </g>
        </g>
    </g>
</svg>