<?xml version="1.0" encoding="UTF-8" standalone="no"?>
<svg width="34px" height="60px" viewBox="0 0 34 60" version="1.1" xmlns="http://www.w3.org/2000/svg" xmlns:xlink="http://www.w3.org/1999/xlink">
    <!-- Generator: Sketch 3.6.1 (26313) - http://www.bohemiancoding.com/sketch -->
    <title>ico-2</title>
    <desc>Created with Sketch.</desc>
    <defs></defs>
    <g id="Page-1" stroke="none" stroke-width="1" fill="none" fill-rule="evenodd">
        <g id="ico-2" transform="translate(0.000000, 0.000000)" fill="#AC9455">
            <g id="Capa_1">
                <g id="Group">
                    <path d="M22.7081463,30.5798985 C22.9038083,30.7382741 23.1383607,30.8153299 23.3713997,30.8153299 C23.6811602,30.8153299 23.9881967,30.6791878 24.1974779,30.4174112 C25.5416898,28.7352792 26.2819672,26.6197462 26.2819672,24.4605076 C26.2819672,22.2930457 25.5742245,20.25 24.235309,18.5521827 C23.8715259,18.0912183 23.2055485,18.0138579 22.7470366,18.3799492 C22.2888272,18.7458883 22.2121059,19.4163959 22.5757377,19.8775127 C23.6144262,21.194467 24.16343,22.7792893 24.16343,24.4605076 C24.16343,26.1598477 23.6042875,27.7576142 22.5463808,29.081269 C22.1797226,29.5399492 22.2522068,30.2109137 22.7081463,30.5798985 L22.7081463,30.5798985 L22.7081463,30.5798985 Z" id="Shape"></path>
                    <path d="M10.7623203,18.3842132 C10.3065322,18.0153807 9.63964691,18.0880203 9.27298865,18.5467005 C7.9287768,20.2288325 7.18849937,22.3443655 7.18849937,24.5037563 C7.18849937,26.6712183 7.89624212,28.714264 9.23515763,30.4119289 C9.44443884,30.6770558 9.75344262,30.8153299 10.0656242,30.8153299 C10.2962421,30.8153299 10.5286759,30.739797 10.72343,30.5841624 C11.1816393,30.2182234 11.2583607,29.5477157 10.8947289,29.086599 C9.85604035,27.7696447 9.30703657,26.1848223 9.30703657,24.5037563 C9.30703657,22.8044162 9.86617907,21.2064975 10.9240858,19.8829949 C11.290744,19.4241624 11.2182598,18.753198 10.7623203,18.3842132 L10.7623203,18.3842132 L10.7623203,18.3842132 Z" id="Shape"></path>
                    <path d="M14.2905927,24.8441117 C14.9984868,24.130203 16.0088777,23.7207107 17.0631526,23.7207107 C18.9999496,23.7207107 20.4938209,25.0259391 20.6961412,26.8949239 L20.738966,27.2911675 C20.7743758,27.5786802 20.7740731,27.6584772 20.8252207,28.0889848 C20.8125095,28.624264 21.1112232,28.0732995 21.2186633,27.9082234 C21.7699369,27.0612183 22.090744,26.0494416 22.090744,24.9635025 C22.090744,21.9918274 19.6883228,19.5741624 16.7352333,19.5741624 C13.7822951,19.5741624 11.3798739,21.9918274 11.3798739,24.9635025 C11.3798739,26.3371066 12.0481211,27.4732995 12.7377049,28.5443147 C13.2257251,29.3022335 13.2995712,28.662335 13.2693064,28.2601523 L13.2702144,27.3574112 C13.2682472,26.403198 13.630517,25.5098985 14.2905927,24.8441117 L14.2905927,24.8441117 L14.2905927,24.8441117 Z" id="Shape"></path>
                    <path d="M30.3807314,0 L3.08988651,0 C1.42108449,0 0.0634047919,1.36629442 0.0634047919,3.04568528 L0.0634047919,48.8039086 C0.0634047919,50.4832995 1.42108449,51.8495939 3.08988651,51.8495939 L8.83324086,51.8495939 C9.99344262,51.8495939 9.5132913,51.4108629 9.35863808,51.1927919 C7.21104666,48.162335 5.96867591,45.314467 5.67450189,43.5418782 C5.63606557,43.3102538 5.61593947,43.0809137 5.61351828,42.8550761 C5.61094578,42.6205584 5.7310971,42.164467 4.94920555,42.164467 L4.2697604,42.164467 C3.85361917,42.164467 3.51313997,41.8218274 3.51313997,41.4030457 L3.51313997,6.62527919 C3.51313997,6.20649746 3.85361917,5.86385787 4.2697604,5.86385787 L29.2005549,5.86385787 C29.6166961,5.86385787 29.9571753,6.20649746 29.9571753,6.62527919 L29.9571753,36.1981218 C29.9571753,36.9214721 30.37029,37.0145178 30.4970996,37.0535025 C31.6020681,37.3937056 32.438739,38.202335 32.9658008,39.0825381 C33.152232,39.3938071 33.4072131,39.5482234 33.4072131,38.9961929 L33.4072131,3.04568528 C33.4072131,1.36629442 32.0495334,0 30.3807314,0 L30.3807314,0 L30.3807314,0 Z M19.0586633,3.87746193 L14.4119546,3.87746193 C13.9939975,3.87746193 13.6553342,3.53649746 13.6553342,3.11604061 C13.6553342,2.69558376 13.9939975,2.35461929 14.4119546,2.35461929 L19.0586633,2.35461929 C19.4766204,2.35461929 19.8152837,2.69558376 19.8152837,3.11604061 C19.8152837,3.53649746 19.4764691,3.87746193 19.0586633,3.87746193 L19.0586633,3.87746193 L19.0586633,3.87746193 Z" id="Shape"></path>
                    <path d="M29.858966,38.2291371 C29.5053216,38.1595431 28.8401009,37.9390355 28.1968222,37.7258376 C27.392232,37.4590355 26.5602522,37.1832487 25.9557125,37.0630964 C25.6441362,37.0003553 24.9993443,36.7937056 24.3755864,36.5939086 C23.5495082,36.3292386 22.6952837,36.0554315 22.1048172,35.9375635 C21.5337201,35.824264 20.950517,35.8285279 20.4508449,35.9418274 C20.1783102,33.572132 19.5236822,27.9050254 19.4098865,27.0357868 L19.4141236,27.0353299 C19.2854981,25.847665 18.3188398,25.0181726 17.0631526,25.0181726 C16.3489029,25.0181726 15.6711223,25.2886294 15.2033796,25.7604061 C14.781034,26.1864975 14.5584363,26.7395939 14.5597982,27.357868 L14.5516267,43.7931472 C13.9986885,43.6806091 12.9525851,43.3241117 12.1799243,42.199797 L12.0764187,42.0499492 C11.9403783,41.8524365 11.8147793,41.6704569 11.6970492,41.4979188 C11.1354855,40.6835025 10.3047163,40.2164467 9.41765448,40.2164467 C8.67783102,40.2164467 7.98113493,40.540203 7.50612863,41.1047208 C7.0058512,41.6990863 6.80716267,42.4886802 6.94638083,43.3279188 C7.27596469,45.3135533 9.29962169,49.8158376 13.5289786,54.2039086 L13.5366961,58.2839086 C13.5366961,59.1615228 14.2462547,59.8755838 15.1183354,59.8755838 L28.4227491,59.8755838 C29.2949811,59.8755838 30.0043884,59.1615228 30.0043884,58.2816244 L29.9924338,54.1009645 L31.3946028,51.730203 C32.0044388,50.7041117 32.3269105,49.5281726 32.3269105,48.3293909 L32.3267591,41.1266497 C32.3093569,40.1616244 31.3157629,38.5132995 29.858966,38.2291371 L29.858966,38.2291371 L29.858966,38.2291371 Z" id="Shape"></path>
                </g>
            </g>
        </g>
    </g>
</svg>