<?xml version="1.0" encoding="UTF-8" standalone="no"?>
<svg width="47px" height="60px" viewBox="0 0 47 60" version="1.1" xmlns="http://www.w3.org/2000/svg" xmlns:xlink="http://www.w3.org/1999/xlink">
    <!-- Generator: Sketch 3.6.1 (26313) - http://www.bohemiancoding.com/sketch -->
    <title>ico-8</title>
    <desc>Created with Sketch.</desc>
    <defs></defs>
    <g id="Page-1" stroke="none" stroke-width="1" fill="none" fill-rule="evenodd">
        <g id="ico-8" fill="#FAD46B">
            <g id="Capa_1">
                <g id="g3">
                    <path d="M25.3895652,54.4643478 C24.6356522,53.1391304 24.233913,52.7269565 24.0382609,52.5286957 C23.9286957,52.4191304 23.7852174,52.2704348 23.6652174,52.0669565 C22.7417391,51.2947826 22.3295652,50.0034783 22.4,48.9965217 C22.4208696,48.6808696 22.5043478,48.4017391 22.613913,48.1382609 L3.27565217,48.1382609 L3.27565217,7.30434783 L30.4347826,7.30434783 L30.4347826,37.7869565 C30.4426087,37.8052174 30.4452174,37.8104348 30.4530435,37.8286957 C30.9147826,38.7730435 31.5252174,40.0121739 31.9947826,40.9382609 C32.2113043,40.7947826 32.453913,40.6591304 32.72,40.5573913 C32.9652174,40.4634783 33.293913,40.3695652 33.6773913,40.3434783 L33.6773913,4.32521739 C33.6721739,1.94086957 31.7391304,0 29.3469565,0 L4.35826087,0 C1.96869565,0 0.0356521739,1.94086957 0.0356521739,4.32521739 L0.0356521739,55.0747826 C0.0356521739,57.4669565 1.96869565,59.4026087 4.35826087,59.4026087 L29.3521739,59.4026087 C30.2704348,59.4026087 31.1156522,59.1156522 31.8147826,58.6252174 C30.7634783,58.2052174 29.5869565,57.6078261 28.3921739,56.7313043 C26.0626087,55.6591304 25.5486957,54.8765217 25.3895652,54.4643478 L25.3895652,54.4643478 L25.3895652,54.4643478 Z M26.5008696,2.71304348 C27.1113043,2.71304348 27.6095652,3.20869565 27.6095652,3.81652174 C27.6095652,4.43217391 27.113913,4.92 26.5008696,4.92 C25.8904348,4.92 25.3947826,4.43217391 25.3947826,3.81652174 C25.3947826,3.20869565 25.8904348,2.71304348 26.5008696,2.71304348 L26.5008696,2.71304348 L26.5008696,2.71304348 Z M11.0626087,3.13304348 L22.6504348,3.13304348 L22.6504348,4.39565217 L11.0626087,4.39565217 L11.0626087,3.13304348 L11.0626087,3.13304348 L11.0626087,3.13304348 Z M22.1313043,54.7930435 L11.5765217,54.7930435 L11.5765217,51.5452174 L22.1286957,51.5452174 L22.1313043,54.7930435 L22.1313043,54.7930435 L22.1313043,54.7930435 L22.1313043,54.7930435 Z M7.31391304,12.0417391 L14.8321739,12.0417391 L14.8321739,20.2252174 L7.31391304,20.2252174 L7.31391304,12.0417391 L7.31391304,12.0417391 L7.31391304,12.0417391 Z M15.32,21.2008696 C15.5886957,21.2008696 15.8104348,20.9791304 15.8104348,20.7104348 L15.8104348,11.5513043 C15.8104348,11.2826087 15.5886957,11.0608696 15.32,11.0608696 L6.82086957,11.0608696 C6.55217391,11.0608696 6.33043478,11.2826087 6.33043478,11.5513043 L6.33043478,20.7130435 C6.33043478,20.9817391 6.55217391,21.2034783 6.82086957,21.2034783 L15.32,21.2008696 L15.32,21.2008696 L15.32,21.2008696 L15.32,21.2008696 Z M6.82086957,11.5513043 L15.32,11.5513043 L15.32,20.7130435 L6.82086957,20.7130435 L6.82086957,11.5513043 L6.82086957,11.5513043 L6.82086957,11.5513043 Z M28.3295652,25.5078261 C28.3295652,26.2330435 27.7452174,26.8147826 27.02,26.8147826 L6.95391304,26.8147826 C6.23130435,26.8147826 5.64434783,26.2330435 5.64434783,25.5078261 C5.64434783,24.7852174 6.22869565,24.1982609 6.95391304,24.1982609 L27.0226087,24.1982609 C27.7452174,24.1982609 28.3295652,24.7852174 28.3295652,25.5078261 L28.3295652,25.5078261 L28.3295652,25.5078261 Z M24.5626087,32.3217391 L6.82086957,32.3217391 C6.09826087,32.3217391 5.51130435,31.7373913 5.51130435,31.0121739 C5.51130435,30.2921739 6.09565217,29.7052174 6.82086957,29.7052174 L26.8895652,29.7052174 C27.6121739,29.7052174 28.1991304,30.2895652 28.1991304,31.0121739 C28.1991304,31.7347826 27.6121739,32.3217391 26.8895652,32.3217391 L26.6,32.3217391 C26.0026087,32.0869565 25.3347826,32.0086957 24.706087,32.2513043 C24.6591304,32.2669565 24.6121739,32.3008696 24.5626087,32.3217391 L24.5626087,32.3217391 L24.5626087,32.3217391 Z M20.8086957,35.3269565 C20.8556522,35.6347826 20.9286957,35.9791304 21.0382609,36.3547826 C21.2417391,36.9182609 21.4321739,37.4295652 21.6252174,37.9408696 L6.82086957,37.9408696 C6.09826087,37.9408696 5.51130435,37.3565217 5.51130435,36.6313043 C5.51130435,35.9086957 6.09565217,35.3243478 6.82086957,35.3243478 L20.8086957,35.3269565 L20.8086957,35.3269565 L20.8086957,35.3269565 L20.8086957,35.3269565 Z M38,59.2252174 C38,59.2252174 38.386087,58.2521739 36.6252174,57.8321739 C36.6252174,57.8321739 33.413913,57.9104348 29.9547826,55.8313043 C29.9547826,55.8313043 27.5756522,55.0304348 27.3304348,54.4173913 C25.6765217,52.0565217 25.2982609,52.3382609 25.22,51.9130435 C23.6026087,51.2008696 23.1747826,47.5252174 26.3052174,49.2052174 C26.3469565,49.1869565 28.4234783,50.8304348 28.433913,50.7886957 C28.433913,50.7886957 30.1086957,52.1947826 30.9982609,52.2469565 C32.1643478,51.5973913 28.7652174,46.5208696 28.7313043,46.0773913 C28.7313043,46.0773913 26.873913,42.9573913 23.8217391,36.6547826 C22.306087,32.8878261 24.8573913,33.5582609 25.8747826,34.8026087 C26.1356522,34.7191304 31.0217391,43.14 31.3478261,43.0852174 C31.3478261,43.0852174 32.7278261,40.166087 35.1669565,42.1252174 C35.1669565,42.1252174 36.7713043,39.6443478 38.9443478,41.7391304 C38.9443478,41.7391304 42.1426087,40.4321739 43.313913,43.3669565 C43.313913,43.3669565 46.6426087,48.2921739 46.5956522,52.953913 L46.9347826,54.7669565 L38,59.2252174 L38,59.2252174 L38,59.2252174 Z" id="path5"></path>
                </g>
            </g>
        </g>
    </g>
</svg>