<?xml version="1.0" encoding="UTF-8" standalone="no"?>
<svg width="55px" height="60px" viewBox="0 0 55 60" version="1.1" xmlns="http://www.w3.org/2000/svg" xmlns:xlink="http://www.w3.org/1999/xlink">
    <!-- Generator: Sketch 3.6.1 (26313) - http://www.bohemiancoding.com/sketch -->
    <title>ico-10_hover</title>
    <desc>Created with Sketch.</desc>
    <defs></defs>
    <g id="Page-1" stroke="none" stroke-width="1" fill="none" fill-rule="evenodd">
        <g id="ico-10_hover" fill="#AC9455">
            <g id="Capa_1">
                <g id="g3">
                    <path d="M17.9815385,17.3076923 C18.7523077,18.6761538 23.6884615,19.3615385 26.1069231,19.2738462 C28.5253846,19.1884615 33.4730769,18.1015385 33.2884615,16.0269231 C32.9469231,12.18 35.2892308,7.03615385 35.7530769,6.32076923 C36.6923077,4.86692308 36.7684615,1.83461538 32.7946154,3.27923077 C31.8646154,3.61615385 29.67,5.89846154 28.7376923,3.19384615 C27.0623077,-1.66615385 23.1738462,-0.316153846 22.3176923,2.85692308 C21.7246154,5.05384615 19.3569231,5.22 16.6546154,4.96846154 C13.4884615,4.67076923 13.0823077,6.65307692 14.1346154,8.33076923 C14.6976923,9.22153846 17.0953846,15.7384615 17.9815385,17.3076923 L17.9815385,17.3076923 L17.9815385,17.3076923 Z" id="path5"></path>
                    <g id="g7" transform="translate(0.000000, 19.461538)">
                        <path d="M26.2776923,3.14692308 C19.8623077,3.38230769 18.0046154,1.03307692 17.6307692,1.16461538 C8.13461538,4.46461538 0.126923077,14.1546154 0.126923077,23.9761538 C0.126923077,36.6107692 7.33615385,39.9315385 27.3876923,39.9315385 C47.4392308,39.9315385 54.6484615,36.5276923 54.6484615,23.9761538 C54.6484615,13.4161538 44.8915385,3.30384615 34.8553846,0.449230769 C34.3246154,0.296923077 33.3738462,2.89076923 26.2776923,3.14692308 L26.2776923,3.14692308 L26.2776923,3.14692308 Z M27.6323077,28.3423077 L27.6323077,30.9269231 C27.6323077,31.1184615 27.4753846,31.2753846 27.2838462,31.2753846 L24.9623077,31.2753846 C24.7684615,31.2753846 24.6115385,31.1184615 24.6115385,30.9269231 L24.6115385,28.5523077 C22.9684615,28.4507692 21.2884615,27.9730769 20.25,27.3130769 C20.1184615,27.23 20.0607692,27.0730769 20.1023077,26.9230769 L20.8546154,24.2692308 C20.8846154,24.1653846 20.9630769,24.08 21.0623077,24.0384615 C21.1707692,24.0015385 21.2792308,24.0084615 21.3738462,24.0661538 C22.1076923,24.5046154 23.6284615,25.2453846 25.5507692,25.2453846 C27.1546154,25.2453846 28.1907692,24.5253846 28.1907692,23.4153846 C28.1907692,22.3584615 27.3946154,21.6592308 25.3523077,20.9253846 C22.8507692,20.0115385 20.2892308,18.6638462 20.2892308,15.5946154 C20.2892308,13.0492308 22.0038462,11.1292308 24.7846154,10.5315385 L24.7846154,8.11076923 C24.7846154,7.91692308 24.9415385,7.76 25.1353846,7.76 L27.4246154,7.76 C27.6161538,7.76 27.7730769,7.91692308 27.7730769,8.11076923 L27.7730769,10.3469231 C29.5269231,10.4553846 30.6946154,10.9469231 31.4353846,11.3161538 C31.5853846,11.3923077 31.6615385,11.5653846 31.6130769,11.7292308 L30.8584615,14.2953846 C30.8307692,14.3946154 30.7569231,14.4753846 30.6623077,14.5215385 C30.5676923,14.5630769 30.4615385,14.5584615 30.3669231,14.5123077 C29.6330769,14.1430769 28.4907692,13.5707692 26.7253846,13.5707692 C25.2807692,13.5707692 24.4223077,14.1730769 24.4223077,15.1769231 C24.4223077,16.0676923 25.2253846,16.6746154 27.6046154,17.5884615 C30.9161538,18.83 32.3284615,20.48 32.3284615,23.1107692 C32.3261538,25.73 30.4915385,27.7584615 27.6323077,28.3423077 L27.6323077,28.3423077 L27.6323077,28.3423077 Z" id="path9"></path>
                    </g>
                </g>
            </g>
        </g>
    </g>
</svg>