<?xml version="1.0" encoding="UTF-8" standalone="no"?>
<svg width="60px" height="60px" viewBox="0 0 60 60" version="1.1" xmlns="http://www.w3.org/2000/svg" xmlns:xlink="http://www.w3.org/1999/xlink">
    <!-- Generator: Sketch 3.6.1 (26313) - http://www.bohemiancoding.com/sketch -->
    <title>ico-5</title>
    <desc>Created with Sketch.</desc>
    <defs></defs>
    <g id="Page-1" stroke="none" stroke-width="1" fill="none" fill-rule="evenodd">
        <g id="ico-5" fill="#AC9455">
            <g id="Capa_1">
                <g id="g3">
                    <path d="M51.1493258,8.7758427 C56.8085393,14.4350562 59.9250562,21.9593258 59.9250562,29.9626966 C59.9250562,37.9659551 56.8083146,45.4901124 51.1493258,51.1493258 C45.49,56.808427 37.9658427,59.9250562 29.9625843,59.9250562 C21.9593258,59.9250562 14.4350562,56.808427 8.7758427,51.1493258 C3.11662921,45.4901124 0,37.9658427 0,29.9626966 C0,21.9594382 3.11640449,14.4350562 8.77573034,8.7758427 C14.4350562,3.11662921 21.9593258,0 29.9625843,0 C37.9658427,0 45.49,3.11662921 51.1493258,8.7758427 L51.1493258,8.7758427 L51.1493258,8.7758427 Z M48.5008989,48.5010112 C52.1911236,44.8107865 54.6448315,40.2140449 55.6566292,35.2131461 C54.8679775,36.3739326 54.1137079,36.8047191 53.6467416,34.2062921 C53.1657303,29.97 49.2747191,32.6761798 46.8278652,31.1713483 C44.2526966,32.9069663 38.4649438,27.7969663 39.4485393,33.5604494 C40.9661798,36.1601124 47.6419101,30.0813483 44.3144944,35.5817978 C42.1916854,39.4217978 36.5521348,47.925618 37.2858427,52.3338202 C37.3783146,58.7560674 30.7235955,53.6730337 28.4307865,51.5426966 C26.888427,47.2753933 27.9051685,39.8166292 23.8721348,37.7267416 C19.4947191,37.5367416 15.7375281,37.1388764 14.0410112,32.2451685 C13.0201124,28.7439326 15.1274157,23.5317978 18.8794382,22.727191 C24.371573,19.2765169 26.3334831,26.7682022 31.4842697,26.9075281 C33.0834831,25.2341573 37.4425843,24.7021348 37.8040449,22.8257303 C34.4244944,22.2293258 42.0916854,19.9840449 37.4805618,18.7069663 C34.9365169,19.0061798 33.2975281,21.3447191 34.6498876,23.3276404 C29.7202247,24.4770787 29.5623596,16.1937079 24.8235955,18.8065169 C24.7031461,22.9374157 17.0859551,20.1457303 22.1880899,19.3080899 C23.9411236,18.5422472 19.328764,16.3226966 21.8205618,16.7260674 C23.0446067,16.6595506 27.1653933,15.2155056 26.0502247,14.2447191 C28.3447191,12.8203371 30.2730337,17.6558427 32.5189888,14.1346067 C34.1404494,11.4270787 31.8389888,10.927191 29.8065169,12.2995506 C28.6606742,11.0166292 31.8296629,8.24550562 34.6247191,7.04808989 C35.5561798,6.64898876 36.4458427,6.43157303 37.1261798,6.49314607 C38.5341573,8.11955056 41.1377528,8.40123596 41.2740449,6.29752809 C37.7874157,4.62775281 33.9429213,3.74561798 29.9625843,3.74561798 C24.2496629,3.74561798 18.8161798,5.5611236 14.3195506,8.91820225 C15.5279775,9.47179775 16.2139326,10.1611236 15.0497753,11.0422472 C14.1452809,13.7374157 10.4752809,17.3552809 7.25348315,16.8430337 C5.5805618,19.7277528 4.4788764,22.9060674 4.00797753,26.237191 C6.70640449,27.13 7.32865169,28.8969663 6.7488764,29.4879775 C5.37393258,30.6869663 4.52876404,32.3865169 4.09348315,34.2469663 C4.97179775,39.6213483 7.49775281,44.574382 11.424382,48.5011236 C16.3759551,53.4526966 22.9595506,56.1797753 29.9625843,56.1797753 C36.9653933,56.1797753 43.5491011,53.4526966 48.5008989,48.5010112 L48.5008989,48.5010112 L48.5008989,48.5010112 Z" id="path5"></path>
                </g>
            </g>
        </g>
    </g>
</svg>