<?xml version="1.0" encoding="utf-8"?>
<!-- Generator: Adobe Illustrator 19.2.1, SVG Export Plug-In . SVG Version: 6.00 Build 0)  -->
<svg version="1.2" baseProfile="tiny" id="Слой_1"
	 xmlns="http://www.w3.org/2000/svg" xmlns:xlink="http://www.w3.org/1999/xlink" x="0px" y="0px" viewBox="0 0 97 97"
	 xml:space="preserve">
<g>
	<path fill="#DE524B" d="M48.5,0C21.8,0,0,21.8,0,48.5c0,8.6,2.3,17,6.6,24.4c1,1.7,3.1,2.2,4.8,1.3c1.7-1,2.2-3.1,1.3-4.8
		C8.9,63.1,7,55.9,7,48.5C7,25.6,25.6,7,48.5,7S90,25.6,90,48.5S71.4,90,48.5,90c-9.5,0-18.4-3.1-25.9-9c-1.5-1.2-3.7-1-4.9,0.6
		c-1.2,1.5-1,3.7,0.6,4.9C26.9,93.4,37.4,97,48.5,97C75.3,97,97,75.3,97,48.5S75.3,0,48.5,0z"/>
	<path fill="#DE524B" d="M31.2,65.6c0.9,0.9,2,1.3,3.2,1.3s2.3-0.4,3.2-1.3l11.3-11.3l11.3,11.3c0.9,0.9,2,1.3,3.2,1.3
		s2.3-0.4,3.2-1.3c1.8-1.8,1.8-4.6,0-6.4L55.3,47.9l11.3-11.3c1.8-1.8,1.8-4.6,0-6.4c-1.8-1.8-4.6-1.8-6.4,0L48.9,41.5L37.6,30.2
		c-1.8-1.8-4.6-1.8-6.4,0c-1.8,1.8-1.8,4.6,0,6.4l11.3,11.3L31.2,59.2C29.5,61,29.5,63.8,31.2,65.6z"/>
</g>
</svg>
