<svg xmlns="http://www.w3.org/2000/svg" viewBox="0 0 23 19.856"><defs><style>.a{fill:#fff;}.b{fill:#010101;}.c{fill:red;}</style></defs><g transform="translate(-18.773 -22.212)"><path class="a" d="M34.4,102.942c.021-.021.042-.042.063-.042l-.063.042Z" transform="translate(-13.758 -65.421)"/><path class="a" d="M49.063,43.928a8.254,8.254,0,0,1,.567,3.024,12.391,12.391,0,0,1-1.554,2.9s-.966-1.134-1.6-1.071c-.189.441-.336,2.121-1.029,2.037s-.462-.987-1.722-1.407c.1,1.827-.42,2.751-.882,2.772-.441.021-1.848-2.1-2.331-1.638.147.357-.273,2.457-1.575,2.9-1.218-.42-1.785-1.575-2.352-2.226-.777.441.315,2.6-.882,2.709-1.2.084-1.239-2.037-1.722-2.625-.525-.042-1.029,2.058-1.218,2.037a3.223,3.223,0,0,1-.735-2.2c-.735.042-.84,1.617-1.176,1.638s-.609-2.331-.609-2.331a8.923,8.923,0,0,1,.63-5.144c-1.26-1.008-1.3-1.806-1.7-2.226,0-.021-.021-.042-.021-.063a3.2,3.2,0,0,1,0-2.415s.987,1.26,1.806.861c.147-.126-.672-2.352.756-2.667s1.323,1.3,2.016,1.617c.4-.273-.525-2.772,1.155-2.835,1.428-.042,1.323,1.155,1.512,1.638,1.848-1.008,1.365-2.163,2.436-2.163s1.617,1.365,1.848,2.163c.651-.9.756-2.2,2.121-2.6,1.869.147,1.932,2.121,2.247,2.331,1.68-.483,1.071-1.764,2.079-1.764.924.063.756,1.827.966,1.953,1.281-.924.9-1.806,1.365-1.785.8.042,1.029-.147,1.092,2.814C50.6,43,48.706,43.613,49.063,43.928Z" transform="translate(-9.439 -13.042)"/><g transform="translate(21.803 27.211)"><path class="b" d="M40.657,59.48c.315-.063,1.092,1.428,1.68,1.638-.189,1.05.336,1.428.336,1.428s-.021-3.423.525-3.948c.567.231.819,1.3,1.722,1.953a9.143,9.143,0,0,0,.147,1.848c.294.063.735-3.234.819-4.179.462-.42,2.877,1.932,3,3.864.588.042,1.281-3.318,1.239-4.116-.315-.756,1.806.861,2.142,4.2a3.944,3.944,0,0,0,0-1.7,16.646,16.646,0,0,0,1.491-3.591c0-.777,1.323,1.134,1.323,4.85a6.684,6.684,0,0,0,.273-2.793,8.528,8.528,0,0,0,1.575-3.108c.336-.42.609,1.323.609,1.323s.231-1.89-.819-2.709c-.294.756-.42,2.457-1.3,3.255a8.281,8.281,0,0,0-1.68-3.7c-.294,1.008-1.26,4.556-1.659,4.535s-1.092-2.9-2.478-3.759c-.042,1.2-.1,4.368-.714,4.368-.4-.882-2.436-4.64-3.507-4.829a22.536,22.536,0,0,1-.567,4.808c-.777-.063-1.827-3.36-2.331-3.948-.168.567.063,4.892-.294,4.892s-2.079-3.36-2.079-3.36a11.964,11.964,0,0,0,.294,5.375C40.531,60.635,40.342,59.543,40.657,59.48Z" transform="translate(-39.928 -54)"/></g><path class="c" d="M25.5,35.232a1.227,1.227,0,0,0,.441.882s-.042-1.575.378-1.659c.378.147,1.218,1.155,1.365,1.113.147-.063-.357-2.037,1.26-2.415a1.7,1.7,0,0,1,1.7.42s.1-1.659,1.575-1.7a1.933,1.933,0,0,1,1.911,1.155s1.071-1.7,2.226-1.7c1.134,0,1.743,1.3,1.743,1.3s.756-1.743,2.163-1.806,2.5,2.058,2.5,2.058.693-1.491,1.764-1.428,1.239,1.323,1.239,1.323.294-1.092,1.26-1.092c.945,0,1.281,1.365,1.281,1.785a1.857,1.857,0,0,0-1.407-2.646c-.756-.126-.966.252-1.218.231a5.029,5.029,0,0,0-2.877-.861c-.294.735-.483.609-.777.609a6.55,6.55,0,0,0-2.772-.609c-1.764.042-1.512.357-2.793.252a6.754,6.754,0,0,0-2.961.63c-.693.231-1.68-.147-2.793.714s-1.449.126-3.381,1.176C25.391,33.972,25.5,35.232,25.5,35.232Z" transform="translate(-6.723 -7.979)"/><path class="c" d="M38.686,100.969a1.783,1.783,0,0,1,.357-1.113c.1-.063.294,1.533,1.113,1.533.63,0,.924-1.3.924-1.3s.924,2.163,1.911,1.995,1.407-1.869,1.407-1.869.924,1.512,1.848,1.386c.9-.1,2.016-1.722,2.142-2.646a2.925,2.925,0,0,0,2.079,1.3c.42-.042,1.071-.756,1.134-2.31.462.294.84,1.134,1.386.966A2.216,2.216,0,0,0,54.1,97c.4.21.882.483.882.714a2.415,2.415,0,0,1-.861,1.239c-.441.336-.84.315-1.239.588s-.525.8-1.3,1.176a11.118,11.118,0,0,1-1.449.5c-.5.21-.567.693-1.6.84a9.075,9.075,0,0,1-2.415.231c-1.113-.042-1.407.462-2.478.462a12.279,12.279,0,0,1-2.5,0c-.714-.168-.651-.4-1.113-.5s-1.155.168-1.386-.294-.525-.924-.315-1.008A.454.454,0,0,1,38.686,100.969Z" transform="translate(-16.805 -60.76)"/></g></svg>