<svg width="243" height="49" viewBox="0 0 243 49" fill="none" xmlns="http://www.w3.org/2000/svg">
<path fill-rule="evenodd" clip-rule="evenodd" d="M237.281 13.987C236.479 14.78 235.688 15.561 234.911 16.329C234.133 17.098 233.374 17.829 232.634 18.525C233.515 19.146 234.404 19.864 235.301 20.678C236.197 21.493 237.082 22.375 237.953 23.325C238.824 24.275 239.646 25.249 240.416 26.249C241.187 27.249 241.843 28.189 242.386 29.07H239.468C238.883 28.085 238.204 27.12 237.433 26.173C236.661 25.227 235.851 24.335 235.003 23.499C234.155 22.664 233.307 21.901 232.459 21.212C231.612 20.524 230.86 20.007 230.206 19.661V29.07H227.777V0.45L230.206 0V18.045C230.725 17.599 231.373 16.99 232.148 16.219C232.923 15.449 233.714 14.673 234.518 13.894C235.323 13.114 236.082 12.359 236.797 11.628C237.512 10.897 238.112 10.255 238.597 9.703H241.564C240.992 10.303 240.336 10.969 239.596 11.7C238.855 12.431 238.084 13.194 237.281 13.987ZM213.599 25.08C214.159 25.767 214.881 26.304 215.766 26.691C216.649 27.079 217.727 27.272 218.997 27.272C220.044 27.272 220.922 27.154 221.632 26.916C222.341 26.679 222.858 26.473 223.182 26.298L223.705 28.396C223.257 28.646 222.553 28.889 221.594 29.126C220.635 29.363 219.633 29.482 218.586 29.482C217.092 29.482 215.771 29.244 214.626 28.77C213.48 28.296 212.527 27.615 211.768 26.729C211.008 25.842 210.429 24.781 210.03 23.544C209.632 22.308 209.433 20.941 209.433 19.442C209.433 17.919 209.638 16.533 210.049 15.284C210.46 14.036 211.052 12.962 211.824 12.063C212.596 11.164 213.53 10.471 214.626 9.984C215.722 9.497 216.955 9.253 218.325 9.253C219.371 9.253 220.348 9.341 221.258 9.515C222.167 9.69 222.87 9.915 223.369 10.19L222.734 12.287C222.235 12.038 221.675 11.838 221.052 11.688C220.43 11.538 219.595 11.463 218.549 11.463C216.407 11.463 214.781 12.156 213.673 13.542C212.565 14.928 212.011 16.895 212.011 19.442C212.011 20.591 212.135 21.647 212.384 22.608C212.633 23.57 213.038 24.394 213.599 25.08ZM202.932 5.732C202.433 5.732 202.01 5.563 201.661 5.226C201.312 4.889 201.138 4.434 201.138 3.859C201.138 3.285 201.312 2.829 201.661 2.492C202.01 2.154 202.433 1.986 202.932 1.986C203.43 1.986 203.853 2.154 204.202 2.492C204.55 2.829 204.725 3.285 204.725 3.859C204.725 4.434 204.55 4.889 204.202 5.226C203.853 5.563 203.43 5.732 202.932 5.732ZM194.955 29.089C194.344 28.901 193.834 28.614 193.423 28.227C193.012 27.84 192.701 27.341 192.489 26.729C192.277 26.117 192.172 25.349 192.172 24.425V0.45L194.6 0V24.35C194.6 24.949 194.656 25.43 194.768 25.792C194.88 26.154 195.049 26.442 195.273 26.654C195.497 26.866 195.789 27.022 196.151 27.122C196.512 27.222 196.941 27.309 197.44 27.384L197.103 29.407C196.281 29.382 195.565 29.276 194.955 29.089ZM178.03 25.08C178.591 25.767 179.313 26.304 180.197 26.691C181.081 27.079 182.159 27.272 183.429 27.272C184.475 27.272 185.353 27.154 186.063 26.916C186.773 26.679 187.29 26.473 187.614 26.298L188.137 28.396C187.688 28.646 186.984 28.889 186.026 29.126C185.067 29.363 184.064 29.482 183.018 29.482C181.524 29.482 180.203 29.244 179.058 28.77C177.912 28.296 176.959 27.615 176.199 26.729C175.439 25.842 174.86 24.781 174.462 23.544C174.063 22.308 173.864 20.941 173.864 19.442C173.864 17.919 174.07 16.533 174.481 15.284C174.892 14.036 175.483 12.962 176.256 12.063C177.027 11.164 177.961 10.471 179.058 9.984C180.153 9.497 181.386 9.253 182.757 9.253C183.803 9.253 184.78 9.341 185.69 9.515C186.599 9.69 187.302 9.915 187.801 10.19L187.165 12.287C186.667 12.038 186.106 11.838 185.484 11.688C184.861 11.538 184.027 11.463 182.981 11.463C180.838 11.463 179.213 12.156 178.105 13.542C176.996 14.928 176.442 16.895 176.442 19.442C176.442 20.591 176.567 21.647 176.816 22.608C177.065 23.57 177.47 24.394 178.03 25.08ZM167.214 29.519C166.566 29.519 166.062 29.319 165.701 28.92C165.34 28.521 165.159 28.034 165.159 27.459C165.159 26.885 165.34 26.398 165.701 25.998C166.062 25.599 166.566 25.399 167.214 25.399C167.862 25.399 168.366 25.599 168.727 25.998C169.088 26.398 169.269 26.885 169.269 27.459C169.269 28.034 169.088 28.521 168.727 28.92C168.366 29.319 167.862 29.519 167.214 29.519ZM158.08 26.747C157.295 27.622 156.367 28.302 155.296 28.789C154.225 29.276 153.042 29.519 151.747 29.519C150.451 29.519 149.268 29.276 148.197 28.789C147.126 28.302 146.198 27.622 145.414 26.747C144.629 25.873 144.019 24.812 143.583 23.563C143.147 22.315 142.929 20.929 142.929 19.405C142.929 17.882 143.147 16.496 143.583 15.247C144.019 13.998 144.629 12.931 145.414 12.044C146.198 11.158 147.126 10.471 148.197 9.984C149.268 9.497 150.451 9.253 151.747 9.253C153.042 9.253 154.225 9.497 155.296 9.984C156.367 10.471 157.295 11.158 158.08 12.044C158.864 12.931 159.474 13.998 159.91 15.247C160.346 16.496 160.564 17.882 160.564 19.405C160.564 20.929 160.346 22.315 159.91 23.563C159.474 24.812 158.864 25.873 158.08 26.747ZM156.305 13.617C155.184 12.182 153.665 11.463 151.747 11.463C149.828 11.463 148.309 12.182 147.189 13.617C146.068 15.054 145.507 16.983 145.507 19.405C145.507 21.828 146.068 23.75 147.189 25.174C148.309 26.597 149.828 27.309 151.747 27.309C153.665 27.309 155.184 26.597 156.305 25.174C157.426 23.75 157.986 21.828 157.986 19.405C157.986 16.983 157.426 15.054 156.305 13.617ZM130.637 29.519C129.217 29.519 127.928 29.288 126.77 28.826C125.612 28.365 124.615 27.697 123.781 26.822C122.946 25.948 122.299 24.887 121.838 23.638C121.377 22.39 121.147 20.978 121.147 19.405C121.147 17.932 121.34 16.577 121.726 15.341C122.112 14.104 122.679 13.037 123.426 12.138C124.174 11.239 125.089 10.54 126.172 10.04C127.256 9.541 128.495 9.291 129.89 9.291C131.16 9.291 132.263 9.472 133.197 9.834C134.131 10.196 134.809 10.54 135.233 10.864V0.45L137.661 0V28.471C136.939 28.72 136.017 28.957 134.897 29.182C133.776 29.407 132.356 29.519 130.637 29.519ZM135.233 13.224C135.009 13.05 134.728 12.862 134.392 12.662C134.056 12.462 133.664 12.275 133.215 12.1C132.767 11.926 132.281 11.782 131.758 11.669C131.235 11.557 130.687 11.501 130.114 11.501C128.919 11.501 127.916 11.713 127.106 12.138C126.297 12.563 125.643 13.13 125.145 13.842C124.646 14.554 124.286 15.391 124.061 16.352C123.837 17.314 123.725 18.332 123.725 19.405C123.725 21.952 124.36 23.907 125.631 25.268C126.901 26.629 128.582 27.309 130.675 27.309C131.87 27.309 132.835 27.253 133.57 27.141C134.305 27.028 134.859 26.91 135.233 26.785V13.224ZM115.524 29.089C114.914 28.901 114.404 28.614 113.993 28.227C113.582 27.84 113.27 27.341 113.059 26.729C112.847 26.117 112.741 25.349 112.741 24.425V0.45L115.17 0V24.35C115.17 24.949 115.226 25.43 115.338 25.792C115.45 26.154 115.618 26.442 115.842 26.654C116.066 26.866 116.359 27.022 116.72 27.122C117.081 27.222 117.511 27.309 118.009 27.384L117.673 29.407C116.851 29.382 116.135 29.276 115.524 29.089ZM105.119 5.732C104.621 5.732 104.197 5.563 103.849 5.226C103.5 4.889 103.326 4.434 103.326 3.859C103.326 3.285 103.5 2.829 103.849 2.492C104.197 2.154 104.621 1.986 105.119 1.986C105.617 1.986 106.04 2.154 106.389 2.492C106.738 2.829 106.912 3.285 106.912 3.859C106.912 4.434 106.738 4.889 106.389 5.226C106.04 5.563 105.617 5.732 105.119 5.732ZM93.439 29.07H91.188C90.81 28.188 90.414 27.204 90 26.119C89.586 25.033 89.159 23.873 88.72 22.638C88.281 21.403 87.856 20.106 87.446 18.746C87.035 17.386 86.643 15.995 86.27 14.573C85.897 15.998 85.507 17.393 85.098 18.755C84.688 20.119 84.265 21.418 83.829 22.654C83.391 23.89 82.967 25.05 82.555 26.137C82.143 27.223 81.751 28.201 81.379 29.07H79.044C77.766 26.25 76.599 23.266 75.541 20.119C74.483 16.972 73.507 13.5 72.614 9.703H75.192C75.467 11.026 75.811 12.455 76.223 13.991C76.636 15.526 77.08 17.049 77.556 18.559C78.031 20.069 78.512 21.499 78.999 22.849C79.486 24.199 79.942 25.348 80.367 26.298C80.844 25.055 81.322 23.72 81.801 22.294C82.28 20.868 82.73 19.431 83.151 17.982C83.572 16.532 83.969 15.102 84.34 13.69C84.711 12.279 85.045 10.949 85.341 9.703H87.433C87.656 10.951 87.948 12.28 88.308 13.691C88.668 15.102 89.064 16.538 89.498 17.998C89.932 19.458 90.393 20.901 90.88 22.325C91.366 23.749 91.86 25.086 92.36 26.335C92.785 25.387 93.235 24.233 93.71 22.874C94.185 21.514 94.66 20.079 95.135 18.57C95.61 17.061 96.053 15.537 96.465 13.998C96.877 12.46 97.221 11.028 97.496 9.703H99.889C98.99 13.507 98.009 16.981 96.946 20.124C95.884 23.269 94.714 26.25 93.439 29.07ZM106.352 29.07H103.923V9.703H106.352V29.07ZM204.165 29.07H201.736V9.703H204.165V29.07Z" fill="white"/>
<path fill-rule="evenodd" clip-rule="evenodd" d="M214.701 45.764C214.497 45.802 214.26 45.842 213.992 45.885C213.723 45.928 213.425 45.963 213.098 45.99C212.77 46.017 212.435 46.03 212.091 46.03C211.65 46.03 211.245 45.982 210.875 45.885C210.504 45.788 210.182 45.635 209.908 45.425C209.634 45.215 209.419 44.946 209.263 44.617C209.108 44.289 209.03 43.887 209.03 43.413C209.03 42.961 209.116 42.574 209.288 42.25C209.459 41.927 209.701 41.661 210.013 41.451C210.324 41.241 210.695 41.087 211.124 40.99C211.554 40.894 212.021 40.845 212.526 40.845C212.676 40.845 212.835 40.853 213.001 40.869C213.168 40.885 213.329 40.907 213.485 40.934C213.64 40.961 213.775 40.988 213.887 41.015C214 41.042 214.078 41.066 214.121 41.087V40.571C214.121 40.28 214.099 39.997 214.056 39.722C214.013 39.448 213.92 39.2 213.775 38.979C213.63 38.759 213.425 38.581 213.162 38.446C212.899 38.312 212.553 38.244 212.123 38.244C211.511 38.244 211.054 38.288 210.754 38.374C210.453 38.46 210.233 38.53 210.093 38.584L209.948 37.663C210.131 37.577 210.413 37.496 210.794 37.421C211.175 37.345 211.634 37.308 212.172 37.308C212.719 37.308 213.184 37.386 213.565 37.542C213.946 37.698 214.255 37.913 214.491 38.188C214.728 38.462 214.9 38.788 215.007 39.165C215.114 39.542 215.168 39.951 215.168 40.393V45.659C215.061 45.691 214.905 45.726 214.701 45.764ZM214.121 42.008C214.003 41.954 213.815 41.898 213.557 41.839C213.299 41.779 212.945 41.75 212.494 41.75C212.236 41.75 211.967 41.769 211.688 41.806C211.409 41.844 211.151 41.925 210.915 42.049C210.678 42.172 210.485 42.342 210.335 42.557C210.184 42.773 210.109 43.058 210.109 43.413C210.109 43.726 210.16 43.99 210.262 44.205C210.364 44.421 210.509 44.593 210.697 44.722C210.885 44.851 211.111 44.946 211.374 45.005C211.637 45.064 211.935 45.093 212.268 45.093C212.676 45.093 213.033 45.08 213.34 45.053C213.646 45.026 213.906 44.991 214.121 44.948V42.008ZM206.074 43.401C206.455 43.806 206.809 44.221 207.137 44.647C207.464 45.073 207.741 45.475 207.967 45.853H206.726C206.468 45.453 206.165 45.049 205.816 44.639C205.467 44.229 205.101 43.838 204.72 43.465C204.339 43.093 203.958 42.756 203.576 42.454C203.195 42.152 202.849 41.909 202.537 41.725V45.853H201.49V37.501H202.537V41.354C202.838 41.064 203.174 40.739 203.544 40.379C203.915 40.019 204.277 39.659 204.632 39.299C204.986 38.939 205.316 38.6 205.622 38.283C205.929 37.966 206.173 37.706 206.356 37.501H207.612C207.365 37.781 207.07 38.095 206.726 38.445C206.382 38.794 206.031 39.146 205.671 39.5C205.311 39.855 204.962 40.199 204.624 40.532C204.285 40.865 203.987 41.15 203.729 41.386C204.094 41.624 204.481 41.918 204.889 42.268C205.297 42.619 205.692 42.997 206.074 43.401ZM198.236 44.827C197.914 45.209 197.519 45.508 197.052 45.723C196.584 45.939 196.05 46.046 195.449 46.046C194.901 46.046 194.426 45.968 194.023 45.812C193.62 45.656 193.327 45.508 193.145 45.368V48.841H192.097V37.792C192.409 37.685 192.806 37.582 193.29 37.485C193.773 37.388 194.385 37.34 195.126 37.34C195.739 37.34 196.294 37.44 196.794 37.639C197.293 37.838 197.723 38.126 198.083 38.503C198.442 38.88 198.722 39.338 198.92 39.876C199.119 40.415 199.219 41.023 199.219 41.701C199.219 42.337 199.135 42.921 198.969 43.454C198.802 43.987 198.558 44.445 198.236 44.827ZM197.285 39.173C196.737 38.586 196.012 38.293 195.11 38.293C194.595 38.293 194.178 38.317 193.862 38.366C193.545 38.414 193.306 38.465 193.145 38.519V44.35C193.241 44.426 193.362 44.507 193.507 44.593C193.652 44.679 193.821 44.76 194.015 44.835C194.208 44.91 194.417 44.972 194.643 45.021C194.869 45.069 195.105 45.093 195.352 45.093C195.867 45.093 196.3 45.005 196.649 44.827C196.998 44.649 197.28 44.407 197.495 44.1C197.709 43.793 197.865 43.432 197.962 43.018C198.059 42.603 198.107 42.164 198.107 41.701C198.107 40.603 197.833 39.76 197.285 39.173ZM189.729 41.895H183.881C183.913 42.918 184.166 43.704 184.638 44.253C185.111 44.803 185.863 45.077 186.894 45.077C187.463 45.077 187.914 45.024 188.247 44.916C188.58 44.808 188.822 44.717 188.972 44.641L189.165 45.546C189.015 45.632 188.733 45.734 188.32 45.853C187.906 45.971 187.42 46.03 186.862 46.03C186.131 46.03 185.508 45.923 184.993 45.707C184.477 45.492 184.053 45.19 183.72 44.803C183.387 44.415 183.145 43.955 182.995 43.422C182.844 42.888 182.769 42.304 182.769 41.669C182.769 40.937 182.874 40.299 183.084 39.755C183.293 39.211 183.567 38.756 183.905 38.39C184.244 38.024 184.63 37.752 185.065 37.574C185.5 37.396 185.949 37.308 186.411 37.308C187.431 37.308 188.244 37.641 188.851 38.309C189.458 38.977 189.762 40.005 189.762 41.394C189.762 41.481 189.759 41.567 189.754 41.653C189.748 41.739 189.74 41.82 189.729 41.895ZM188.07 38.971C187.683 38.487 187.136 38.244 186.427 38.244C186.051 38.244 185.715 38.32 185.42 38.471C185.124 38.622 184.866 38.823 184.646 39.076C184.426 39.329 184.254 39.623 184.131 39.957C184.007 40.291 183.935 40.641 183.913 41.007H188.682C188.661 40.134 188.457 39.456 188.07 38.971ZM179.451 41.96H174.924V45.853H173.876V37.501H174.924V41.071H179.451V37.501H180.498V45.853H179.451V41.96ZM169.51 45.853H168.463V38.39H165.741V37.501H172.249V38.39H169.51V45.853ZM163.63 44.827C163.308 45.209 162.913 45.508 162.446 45.723C161.979 45.939 161.444 46.046 160.843 46.046C160.295 46.046 159.82 45.968 159.417 45.812C159.014 45.656 158.722 45.508 158.539 45.368V48.841H157.492V37.792C157.803 37.685 158.201 37.582 158.684 37.485C159.167 37.388 159.78 37.34 160.521 37.34C161.133 37.34 161.689 37.44 162.188 37.639C162.688 37.838 163.117 38.126 163.477 38.503C163.837 38.88 164.116 39.338 164.315 39.876C164.513 40.415 164.613 41.023 164.613 41.701C164.613 42.337 164.53 42.921 164.363 43.454C164.196 43.987 163.952 44.445 163.63 44.827ZM162.68 39.173C162.132 38.586 161.407 38.293 160.505 38.293C159.989 38.293 159.573 38.317 159.256 38.366C158.939 38.414 158.7 38.465 158.539 38.519V44.35C158.636 44.426 158.757 44.507 158.902 44.593C159.047 44.679 159.216 44.76 159.409 44.835C159.602 44.91 159.812 44.972 160.037 45.021C160.263 45.069 160.499 45.093 160.746 45.093C161.262 45.093 161.694 45.005 162.043 44.827C162.392 44.649 162.674 44.407 162.889 44.1C163.104 43.793 163.26 43.432 163.356 43.018C163.453 42.603 163.501 42.164 163.501 41.701C163.501 40.603 163.227 39.76 162.68 39.173ZM153.642 45.885C153.373 45.928 153.075 45.963 152.747 45.99C152.42 46.017 152.084 46.03 151.74 46.03C151.3 46.03 150.895 45.982 150.524 45.885C150.154 45.788 149.831 45.635 149.557 45.425C149.284 45.215 149.069 44.946 148.913 44.617C148.757 44.289 148.679 43.887 148.679 43.413C148.679 42.961 148.765 42.574 148.937 42.25C149.109 41.927 149.351 41.661 149.662 41.451C149.974 41.241 150.344 41.087 150.774 40.99C151.203 40.894 151.67 40.845 152.175 40.845C152.326 40.845 152.484 40.853 152.651 40.869C152.817 40.885 152.978 40.907 153.134 40.934C153.29 40.961 153.424 40.988 153.537 41.015C153.65 41.042 153.727 41.066 153.77 41.087V40.571C153.77 40.28 153.749 39.997 153.706 39.722C153.663 39.448 153.569 39.2 153.424 38.979C153.279 38.759 153.075 38.581 152.812 38.446C152.549 38.312 152.202 38.244 151.773 38.244C151.16 38.244 150.704 38.288 150.403 38.374C150.102 38.46 149.882 38.53 149.743 38.584L149.598 37.663C149.78 37.577 150.062 37.496 150.444 37.421C150.825 37.345 151.284 37.308 151.821 37.308C152.369 37.308 152.833 37.386 153.215 37.542C153.596 37.698 153.905 37.913 154.141 38.188C154.377 38.462 154.549 38.788 154.657 39.165C154.764 39.542 154.818 39.951 154.818 40.393V45.659C154.71 45.691 154.554 45.726 154.35 45.764C154.146 45.802 153.91 45.842 153.642 45.885ZM153.77 42.008C153.652 41.954 153.464 41.898 153.207 41.839C152.949 41.779 152.594 41.75 152.143 41.75C151.885 41.75 151.617 41.769 151.338 41.806C151.058 41.844 150.8 41.925 150.564 42.049C150.328 42.172 150.135 42.342 149.984 42.557C149.834 42.773 149.759 43.058 149.759 43.413C149.759 43.726 149.81 43.99 149.912 44.205C150.014 44.421 150.159 44.593 150.347 44.722C150.535 44.851 150.76 44.946 151.024 45.005C151.287 45.064 151.585 45.093 151.918 45.093C152.326 45.093 152.683 45.08 152.989 45.053C153.295 45.026 153.555 44.991 153.77 44.948V42.008ZM145.473 38.39H141.139V45.853H140.092V37.501H146.521V45.853H145.473V38.39ZM132.832 43.375C133.208 43.785 133.562 44.205 133.894 44.636C134.227 45.067 134.509 45.473 134.744 45.853H133.485C133.233 45.428 132.94 45.012 132.608 44.604C132.275 44.195 131.925 43.811 131.56 43.451C131.194 43.09 130.829 42.761 130.463 42.464C130.098 42.168 129.774 41.945 129.491 41.796V45.853H128.444V33.512L129.491 33.318V41.099C129.715 40.906 129.995 40.644 130.329 40.311C130.663 39.979 131.004 39.645 131.351 39.309C131.698 38.972 132.025 38.647 132.334 38.332C132.642 38.016 132.901 37.74 133.11 37.501H134.389C134.142 37.76 133.86 38.047 133.54 38.363C133.221 38.678 132.889 39.007 132.542 39.349C132.196 39.691 131.855 40.027 131.52 40.359C131.185 40.69 130.858 41.006 130.539 41.305C130.918 41.574 131.302 41.883 131.688 42.234C132.075 42.585 132.456 42.966 132.832 43.375ZM122.33 44.132C122.572 44.429 122.883 44.66 123.265 44.827C123.646 44.994 124.111 45.077 124.658 45.077C125.109 45.077 125.488 45.026 125.794 44.924C126.1 44.822 126.323 44.733 126.463 44.657L126.688 45.562C126.495 45.67 126.191 45.775 125.778 45.877C125.364 45.979 124.932 46.03 124.481 46.03C123.837 46.03 123.267 45.928 122.773 45.723C122.279 45.519 121.868 45.225 121.541 44.843C121.213 44.461 120.963 44.003 120.792 43.47C120.62 42.937 120.534 42.347 120.534 41.701C120.534 41.044 120.623 40.447 120.8 39.908C120.977 39.37 121.232 38.907 121.565 38.519C121.898 38.131 122.301 37.833 122.773 37.623C123.246 37.413 123.778 37.308 124.368 37.308C124.819 37.308 125.241 37.345 125.633 37.421C126.025 37.496 126.328 37.593 126.543 37.711L126.269 38.616C126.054 38.508 125.813 38.422 125.544 38.358C125.276 38.293 124.916 38.261 124.465 38.261C123.541 38.261 122.84 38.559 122.363 39.157C121.884 39.755 121.646 40.603 121.646 41.701C121.646 42.197 121.699 42.652 121.807 43.066C121.914 43.481 122.089 43.836 122.33 44.132ZM117.731 35.789C117.516 35.789 117.333 35.716 117.183 35.571C117.032 35.426 116.957 35.229 116.957 34.981C116.957 34.734 117.032 34.537 117.183 34.392C117.333 34.246 117.516 34.174 117.731 34.174C117.945 34.174 118.128 34.246 118.278 34.392C118.429 34.537 118.504 34.734 118.504 34.981C118.504 35.229 118.429 35.426 118.278 35.571C118.128 35.716 117.945 35.789 117.731 35.789ZM114.291 45.861C114.028 45.78 113.808 45.656 113.631 45.489C113.453 45.322 113.319 45.107 113.228 44.843C113.136 44.579 113.091 44.248 113.091 43.85V33.512L114.138 33.318V43.817C114.138 44.076 114.162 44.283 114.211 44.439C114.259 44.595 114.331 44.719 114.428 44.811C114.525 44.902 114.651 44.97 114.807 45.013C114.962 45.056 115.148 45.093 115.363 45.126L115.218 45.998C114.863 45.987 114.554 45.941 114.291 45.861ZM106.993 44.132C107.235 44.429 107.546 44.66 107.927 44.827C108.309 44.994 108.773 45.077 109.321 45.077C109.772 45.077 110.151 45.026 110.457 44.924C110.763 44.822 110.986 44.733 111.126 44.657L111.351 45.562C111.158 45.67 110.854 45.775 110.441 45.877C110.027 45.979 109.595 46.03 109.144 46.03C108.499 46.03 107.93 45.928 107.436 45.723C106.942 45.519 106.531 45.225 106.204 44.843C105.876 44.461 105.626 44.003 105.454 43.47C105.283 42.937 105.197 42.347 105.197 41.701C105.197 41.044 105.285 40.447 105.463 39.908C105.64 39.37 105.895 38.907 106.228 38.519C106.561 38.131 106.963 37.833 107.436 37.623C107.909 37.413 108.44 37.308 109.031 37.308C109.482 37.308 109.904 37.345 110.296 37.421C110.688 37.496 110.991 37.593 111.206 37.711L110.932 38.616C110.717 38.508 110.476 38.422 110.207 38.358C109.939 38.293 109.579 38.261 109.128 38.261C108.204 38.261 107.503 38.559 107.025 39.157C106.547 39.755 106.308 40.603 106.308 41.701C106.308 42.197 106.362 42.652 106.469 43.066C106.577 43.481 106.751 43.836 106.993 44.132ZM102.442 44.827C102.12 45.209 101.725 45.508 101.258 45.723C100.79 45.939 100.256 46.046 99.655 46.046C99.107 46.046 98.632 45.968 98.229 45.812C97.826 45.656 97.533 45.508 97.351 45.368V48.841H96.304V37.792C96.615 37.685 97.012 37.582 97.496 37.485C97.979 37.388 98.591 37.34 99.332 37.34C99.945 37.34 100.5 37.44 101 37.639C101.499 37.838 101.929 38.126 102.289 38.503C102.649 38.88 102.928 39.338 103.127 39.876C103.325 40.415 103.425 41.023 103.425 41.701C103.425 42.337 103.341 42.921 103.175 43.454C103.008 43.987 102.764 44.445 102.442 44.827ZM101.491 39.173C100.944 38.586 100.219 38.293 99.316 38.293C98.801 38.293 98.384 38.317 98.068 38.366C97.751 38.414 97.512 38.465 97.351 38.519V44.35C97.447 44.426 97.568 44.507 97.713 44.593C97.858 44.679 98.027 44.76 98.221 44.835C98.414 44.91 98.624 44.972 98.849 45.021C99.075 45.069 99.311 45.093 99.558 45.093C100.074 45.093 100.506 45.005 100.855 44.827C101.204 44.649 101.486 44.407 101.701 44.1C101.915 43.793 102.071 43.432 102.168 43.018C102.265 42.603 102.313 42.164 102.313 41.701C102.313 40.603 102.039 39.76 101.491 39.173ZM92.453 45.885C92.185 45.928 91.887 45.963 91.559 45.99C91.231 46.017 90.896 46.03 90.552 46.03C90.112 46.03 89.706 45.982 89.336 45.885C88.965 45.788 88.643 45.635 88.369 45.425C88.095 45.215 87.88 44.946 87.725 44.617C87.569 44.289 87.491 43.887 87.491 43.413C87.491 42.961 87.577 42.574 87.749 42.25C87.921 41.927 88.162 41.661 88.474 41.451C88.785 41.241 89.156 41.087 89.586 40.99C90.015 40.894 90.482 40.845 90.987 40.845C91.137 40.845 91.296 40.853 91.462 40.869C91.629 40.885 91.79 40.907 91.946 40.934C92.101 40.961 92.236 40.988 92.349 41.015C92.461 41.042 92.539 41.066 92.582 41.087V40.571C92.582 40.28 92.561 39.997 92.518 39.722C92.475 39.448 92.381 39.2 92.236 38.979C92.091 38.759 91.887 38.581 91.624 38.446C91.36 38.312 91.014 38.244 90.584 38.244C89.972 38.244 89.516 38.288 89.215 38.374C88.914 38.46 88.694 38.53 88.554 38.584L88.409 37.663C88.592 37.577 88.874 37.496 89.255 37.421C89.636 37.345 90.096 37.308 90.633 37.308C91.181 37.308 91.645 37.386 92.026 37.542C92.407 37.698 92.716 37.913 92.953 38.188C93.189 38.462 93.361 38.788 93.468 39.165C93.576 39.542 93.629 39.951 93.629 40.393V45.659C93.522 45.691 93.366 45.726 93.162 45.764C92.958 45.802 92.722 45.842 92.453 45.885ZM92.582 42.008C92.464 41.954 92.276 41.898 92.018 41.839C91.761 41.779 91.406 41.75 90.955 41.75C90.697 41.75 90.429 41.769 90.149 41.806C89.87 41.844 89.612 41.925 89.376 42.049C89.14 42.172 88.946 42.342 88.796 42.557C88.646 42.773 88.571 43.058 88.571 43.413C88.571 43.726 88.621 43.99 88.724 44.205C88.826 44.421 88.971 44.593 89.159 44.722C89.346 44.851 89.572 44.946 89.835 45.005C90.098 45.064 90.396 45.093 90.729 45.093C91.137 45.093 91.495 45.08 91.801 45.053C92.107 45.026 92.367 44.991 92.582 44.948V42.008ZM83.583 45.853H82.612C82.449 45.472 82.278 45.048 82.1 44.58C81.921 44.112 81.737 43.612 81.548 43.079C81.358 42.546 81.175 41.987 80.998 41.401C80.821 40.815 80.652 40.215 80.491 39.601C80.33 40.216 80.162 40.817 79.986 41.405C79.809 41.993 79.627 42.553 79.438 43.086C79.25 43.619 79.067 44.119 78.889 44.588C78.711 45.056 78.542 45.478 78.382 45.853H77.375C76.824 44.637 76.321 43.35 75.865 41.993C75.408 40.636 74.988 39.139 74.602 37.501H75.714C75.833 38.072 75.981 38.688 76.159 39.35C76.337 40.012 76.529 40.669 76.733 41.32C76.938 41.972 77.146 42.588 77.356 43.17C77.566 43.752 77.762 44.248 77.946 44.657C78.151 44.121 78.357 43.546 78.564 42.931C78.77 42.316 78.965 41.696 79.146 41.071C79.328 40.446 79.499 39.83 79.659 39.221C79.819 38.612 79.963 38.039 80.09 37.501H80.993C81.089 38.04 81.215 38.613 81.37 39.221C81.525 39.829 81.696 40.449 81.883 41.078C82.07 41.708 82.269 42.33 82.479 42.944C82.689 43.558 82.902 44.135 83.117 44.673C83.3 44.265 83.494 43.767 83.699 43.181C83.904 42.594 84.109 41.976 84.314 41.325C84.519 40.674 84.71 40.017 84.887 39.354C85.065 38.69 85.213 38.073 85.332 37.501H86.363C85.976 39.142 85.553 40.64 85.095 41.995C84.637 43.351 84.132 44.637 83.583 45.853ZM118.262 45.853H117.215V37.501H118.262V45.853Z" fill="white"/>
<path fill-rule="evenodd" clip-rule="evenodd" d="M68.959 10.82C68.404 10.881 67.834 10.809 67.291 10.97C65.808 11.284 64.57 12.245 63.566 13.335C62.708 14.293 61.887 15.292 61.22 16.393C60.142 18.13 59.42 20.052 58.761 21.976C57.066 27.112 55.471 32.282 53.745 37.408C53.252 38.903 52.744 40.4 52.035 41.809C51.131 43.628 49.923 45.316 48.36 46.63C47.119 47.611 45.579 48.273 43.977 48.253C42.541 48.305 41.137 47.779 39.972 46.966C38.414 45.858 37.233 44.293 36.358 42.612C35.979 41.884 35.6 41.152 35.313 40.383C35.102 39.837 35.095 39.24 35.151 38.664C35.228 37.998 35.57 37.408 35.77 36.776C35.964 36.211 36.099 35.625 36.34 35.077C36.78 36.51 37.049 37.993 37.529 39.416C38.058 40.938 38.94 42.353 40.16 43.423C41.13 44.342 42.445 44.93 43.796 44.91C45.17 44.966 46.535 44.44 47.578 43.564C49.684 41.641 50.957 38.984 51.714 36.278C52.868 32.248 53.841 28.17 54.848 24.103C55.709 20.663 56.427 17.135 58.06 13.954C58.722 12.604 59.602 11.346 60.722 10.331C61.766 9.429 63.065 8.671 64.493 8.72C65.697 8.725 66.755 9.36 67.781 9.909C68.19 10.144 68.626 10.337 69 10.627C68.989 10.675 68.969 10.771 68.959 10.82ZM60.822 9.012C59.571 9.928 58.675 11.223 57.88 12.53C56.025 15.699 55.242 19.322 54.386 22.849C53.864 25.036 53.374 27.231 52.853 29.418C52.056 32.776 51.295 36.197 49.662 39.273C49 40.501 48.298 41.757 47.217 42.675C46.255 43.5 44.987 44.016 43.704 43.937C42.24 43.923 40.912 43.089 39.982 42.009C39.019 40.944 38.378 39.63 37.976 38.262C37.663 37.232 37.362 36.197 37.017 35.177C36.572 33.722 37.189 32.252 37.697 30.902C38.003 30.165 38.121 29.36 38.51 28.658C39.167 31.168 39.747 33.699 40.379 36.214C40.562 37.03 40.813 37.863 41.36 38.517C41.838 39.081 42.42 39.617 43.156 39.806C44.167 40.081 45.305 39.764 46.049 39.036C46.433 38.653 46.665 38.156 46.907 37.68C47.663 36.219 48.326 34.704 48.793 33.126C49.823 29.377 50.689 25.586 51.625 21.812C52.525 18.11 53.459 14.403 54.809 10.832C55.222 9.749 55.577 8.621 56.271 7.675C57.276 6.178 58.947 5.109 60.758 4.935C61.757 4.835 62.744 5.135 63.637 5.56C64.825 6.099 65.838 6.938 66.786 7.818C66.979 8.004 67.149 8.214 67.323 8.419C66.551 8.112 65.759 7.825 64.923 7.776C63.462 7.664 61.989 8.145 60.822 9.012ZM60.311 3.84C58.82 4.012 57.548 4.933 56.515 5.963C55.237 7.262 54.372 8.918 53.86 10.653C53.409 12.172 53.012 13.707 52.596 15.236C51.537 19.293 50.474 23.349 49.478 27.422C48.629 30.872 47.695 34.346 46.004 37.495C45.615 38.177 44.964 38.786 44.143 38.842C43.235 38.885 42.439 38.304 41.898 37.628C41.144 36.732 40.94 35.546 40.711 34.437C40.275 32.673 39.8 30.919 39.401 29.145C39.277 28.579 39.1 28.009 39.156 27.423C39.208 26.692 39.568 26.037 39.884 25.39C40.193 24.799 40.486 24.2 40.824 23.623C40.98 24.76 41.032 25.908 41.193 27.045C41.518 29.175 41.849 31.303 42.237 33.422C42.345 34.004 42.415 34.597 42.586 35.166C42.709 35.574 42.951 35.991 43.368 36.155C43.784 36.314 44.31 36.278 44.645 35.961C45.067 35.58 45.296 35.044 45.544 34.544C46.256 33.1 46.714 31.551 47.121 30C48.146 26 48.713 21.899 49.083 17.793C49.259 15.561 49.466 13.328 49.841 11.119C50.084 9.524 50.394 7.92 51.026 6.426C51.673 4.813 52.634 3.322 53.862 2.086C54.773 1.159 55.967 0.414 57.299 0.351C58.384 0.339 59.391 0.797 60.37 1.209C61.342 1.62 62.133 2.33 62.949 2.978C63.343 3.286 63.699 3.64 64.081 3.965C64.416 4.27 64.783 4.558 65.01 4.96C64.371 4.852 63.803 4.528 63.191 4.333C62.27 4.013 61.301 3.702 60.311 3.84ZM43.357 18.766C42.273 19.76 41.36 20.926 40.555 22.15C38.644 25.124 37.668 28.548 36.55 31.864C36.026 33.518 35.478 35.164 34.938 36.813C34.313 38.663 33.715 40.528 32.884 42.299C32.175 43.748 31.29 45.135 30.102 46.242C28.904 47.338 27.389 48.123 25.765 48.321C24.992 48.365 24.201 48.389 23.449 48.179C22.249 47.844 21.129 47.228 20.201 46.399C19.042 45.429 18.227 44.13 17.487 42.832C15.478 39.134 14.312 35.069 13.032 31.083C11.866 27.478 10.749 23.858 9.505 20.279C8.636 17.582 7.125 15.079 5.064 13.119C4.267 12.404 3.442 11.64 2.381 11.351C1.61 11.089 0.787 11.099 0 10.919C0.611 10.272 1.407 9.834 2.203 9.454C3.076 9.072 4.031 8.818 4.991 8.889C6.042 8.955 7.022 9.448 7.826 10.104C9.601 11.543 10.851 13.532 11.698 15.629C12.519 17.667 12.955 19.827 13.509 21.945C14.425 25.695 15.278 29.462 16.237 33.202C17.067 36.364 18.161 39.52 20.052 42.222C20.763 43.25 21.714 44.147 22.893 44.612C24.179 45.144 25.676 45.229 26.985 44.725C28.442 44.152 29.62 43.015 30.437 41.703C31.177 40.547 31.635 39.237 31.959 37.911C32.467 35.885 32.974 33.859 33.466 31.828C34.38 28.194 35.117 24.481 36.678 21.049C37.388 19.496 38.223 17.951 39.483 16.769C40.42 15.854 41.579 15.061 42.913 14.908C44.064 14.728 45.23 15.079 46.232 15.632C46.824 15.967 47.412 16.319 47.936 16.754C47.409 16.982 46.837 17.054 46.29 17.214C45.21 17.496 44.183 18.012 43.357 18.766ZM40.059 15.045C38.787 15.992 37.791 17.258 36.981 18.608C35.328 21.352 34.619 24.508 33.814 27.569C33.261 29.737 32.722 31.908 32.178 34.077C31.689 35.836 31.261 37.615 30.628 39.33C30.348 40.076 30.069 40.835 29.594 41.485C28.837 42.602 27.7 43.451 26.425 43.895C25.054 44.35 23.5 44.047 22.332 43.225C21.326 42.578 20.645 41.573 19.995 40.598C18.927 38.923 18.171 37.065 17.614 35.165C16.591 31.437 15.748 27.664 14.839 23.908C14.295 21.655 13.773 19.392 13.057 17.185C12.459 15.315 11.655 13.503 10.603 11.84C10.059 11.045 9.482 10.256 8.729 9.643C7.543 8.587 5.993 7.822 4.367 7.931C3.363 7.93 2.43 8.31 1.51 8.662C1.871 8.202 2.31 7.811 2.753 7.431C3.791 6.519 4.983 5.765 6.293 5.304C6.821 5.123 7.368 4.978 7.927 4.949C9.277 4.957 10.532 5.634 11.484 6.551C13.06 7.929 14.035 9.857 14.618 11.835C15.144 13.684 15.625 15.545 16.118 17.403C17.528 22.936 19.01 28.45 20.546 33.949C20.85 34.955 21.035 36.009 21.528 36.948C22.105 38.062 22.719 39.347 23.977 39.821C24.975 40.197 26.163 40.002 27.002 39.349C27.664 38.845 28.055 38.081 28.321 37.311C28.709 36.166 28.953 34.98 29.252 33.811C30.629 28.487 31.666 23.066 33.476 17.861C33.971 16.374 34.588 14.897 35.556 13.647C36.437 12.619 37.475 11.635 38.79 11.2C39.314 11.011 39.877 10.995 40.429 11.013C41.058 11.017 41.655 11.244 42.228 11.481C43.806 12.134 45.181 13.198 46.358 14.421C45.35 14.3 44.381 13.907 43.354 13.938C42.168 13.915 41.01 14.358 40.059 15.045ZM37.846 10.451C36.787 10.913 35.957 11.743 35.199 12.589C33.905 14.09 33.122 15.947 32.558 17.826C32.024 19.615 31.57 21.426 31.086 23.228C30.062 27.214 29.009 31.193 28.107 35.208C27.915 36.001 27.753 36.829 27.292 37.52C26.915 38.078 26.4 38.563 25.775 38.835C25.208 39.084 24.518 39.005 24.016 38.643C22.734 37.795 22.05 36.333 21.616 34.91C20.5 31.12 19.533 27.288 18.534 23.466C18.044 21.603 17.576 19.734 17.153 17.855C16.57 15.149 15.855 12.459 14.787 9.898C14.237 8.56 13.579 7.235 12.585 6.163C11.61 5.116 10.339 4.283 8.907 4.037C7.957 3.851 6.977 4.007 6.061 4.285C5.238 4.551 4.502 5.016 3.723 5.382C4.481 4.41 5.395 3.568 6.341 2.782C7.437 1.879 8.689 1.14 10.063 0.746C10.769 0.532 11.52 0.551 12.248 0.61C13.25 0.784 14.179 1.296 14.904 2.001C15.414 2.497 15.913 3.015 16.303 3.613C17.726 5.674 18.635 8.063 19.081 10.517C19.503 12.63 19.587 14.789 19.814 16.927C20.185 21.268 20.686 25.617 21.779 29.845C22.232 31.488 22.717 33.135 23.465 34.673C23.732 35.21 23.878 35.854 24.393 36.224C24.671 36.45 25.055 36.436 25.39 36.387C25.946 36.25 26.343 35.748 26.452 35.202C27.168 31.304 27.827 27.39 28.212 23.442C28.426 21.397 28.603 19.346 28.887 17.308C29.295 14.138 30.532 11.049 32.585 8.575C33.559 7.427 34.967 6.551 36.516 6.55C37.835 6.583 39.088 7.107 40.23 7.729C41.94 8.663 43.307 10.075 44.622 11.483C43.927 11.193 43.289 10.785 42.59 10.504C41.103 9.87 39.329 9.725 37.846 10.451ZM30.769 9.511C30.568 9.741 30.296 10.013 29.959 9.934C29.265 9.839 28.558 9.817 27.863 9.913C26.918 10.08 26.015 10.455 25.199 10.955C24.959 11.104 24.703 11.221 24.445 11.33C25.287 10.294 26.294 9.401 27.339 8.572C28.02 8.047 28.748 7.582 29.508 7.177C30.235 6.804 30.999 6.473 31.814 6.356C32.256 6.307 32.718 6.295 33.139 6.466C32.999 6.733 32.827 6.981 32.633 7.21C32.006 7.973 31.399 8.75 30.769 9.511ZM26.562 11.417C27.319 11.082 28.144 10.933 28.966 10.87C29.262 10.844 29.557 10.896 29.847 10.955C29.641 11.748 29.301 12.497 29.031 13.268C28.846 13.734 28.733 14.234 28.466 14.664C27.283 13.898 25.798 13.618 24.412 13.873C23.775 13.967 23.171 14.194 22.565 14.396C23.015 13.879 23.576 13.478 24.088 13.026C24.847 12.4 25.648 11.799 26.562 11.417ZM27.943 15.37C28.093 15.465 28.302 15.562 28.305 15.767C28.371 16.352 28.195 16.924 28.114 17.499C27.945 18.617 27.833 19.743 27.672 20.862C26.773 19.872 25.927 18.812 24.834 18.022C24.11 17.493 23.282 17.087 22.394 16.931C21.926 16.83 21.441 16.896 20.976 16.785C21.992 15.729 23.383 15.026 24.836 14.813C25.896 14.658 26.999 14.872 27.943 15.37Z" fill="white"/>
</svg>
